<svg viewBox="-100 -100 200 200" xmlns="http://www.w3.org/2000/svg" width="500" height="500" id="face-svg">
    <defs>
      <clipPath id="leftEyeClipPath">
        <polyline points="33.9,-1.88 34.04,-2.32 34.13,-2.75 34.17,-3.16 34.16,-3.56 34.11,-3.94 34.01,-4.32 33.86,-4.68 33.66,-5.02 33.41,-5.35 33.11,-5.67 32.77,-5.97 32.38,-6.26 31.95,-6.54 31.47,-6.8 30.95,-7.05 30.56,-7.37 30.1,-7.68 29.57,-7.96 28.96,-8.23 28.28,-8.48 27.53,-8.71 26.72,-8.92 25.85,-9.11 24.92,-9.28 23.93,-9.43 22.89,-9.57 21.8,-9.68 20.66,-9.78 19.49,-9.86 18.27,-9.92 17.03,-9.97 15.75,-9.99 14.45,-10.01 13.13,-10 11.8,-9.98 10.45,-9.95 9.09,-9.9 7.73,-9.84 6.37,-9.77 5.01,-9.68 3.65,-9.58 2.31,-9.48 0.98,-9.36 -0.33,-9.23 -1.63,-9.09 -2.9,-8.94 -4.15,-8.79 -5.38,-8.63 -6.57,-8.46 -7.74,-8.28 -8.87,-8.1 -9.97,-7.91 -11.04,-7.72 -12.07,-7.52 -13.07,-7.32 -14.03,-7.12 -14.95,-6.92 -15.84,-6.71 -16.69,-6.49 -17.5,-6.28 -18.28,-6.07 -19.02,-5.85 -19.74,-5.63 -20.42,-5.42 -21.07,-5.2 -21.69,-4.98 -22.28,-4.76 -22.84,-4.54 -23.38,-4.31 -23.88,-4.09 -24.36,-3.86 -24.81,-3.64 -25.23,-3.41 -25.63,-3.18 -26,-2.95 -26.35,-2.73 -26.67,-2.49 -26.97,-2.26 -27.24,-2.03 -28.73,0.51 -28.47,0.75 -28.19,0.99 -27.9,1.23 -27.6,1.48 -27.28,1.73 -26.95,1.98 -26.6,2.23 -26.24,2.48 -25.86,2.74 -25.46,2.99 -25.04,3.25 -24.61,3.51 -24.16,3.77 -23.69,4.03 -23.21,4.29 -22.7,4.55 -22.18,4.81 -21.64,5.08 -21.07,5.34 -20.48,5.61 -19.88,5.87 -19.24,6.14 -18.59,6.4 -17.91,6.66 -17.21,6.91 -16.48,7.16 -15.73,7.41 -14.96,7.65 -14.16,7.88 -13.34,8.11 -12.5,8.33 -11.64,8.54 -10.75,8.74 -9.84,8.93 -8.91,9.11 -7.96,9.27 -7,9.42 -6.01,9.56 -5.01,9.68 -3.99,9.79 -2.96,9.88 -1.91,9.95 -0.85,10 0.22,10.04 1.3,10.05 2.38,10.05 3.48,10.02 4.58,9.97 5.68,9.9 6.78,9.8 7.88,9.69 8.98,9.54 10.08,9.38 11.17,9.19 12.25,8.97 13.33,8.73 14.39,8.47 15.44,8.19 16.48,7.88 17.5,7.54 18.51,7.19 19.49,6.81 20.46,6.41 21.4,5.99 22.27,5.68 23.12,5.37 23.95,5.04 24.78,4.7 25.59,4.34 26.38,3.98 27.16,3.6 27.92,3.21 28.66,2.81 29.38,2.41 30.09,1.99 30.77,1.57 31.44,1.13 32.08,0.69 32.69,0.25" />
      </clipPath>
      <clipPath id="rightEyeClipPath">
        <polyline points="-33.3,-0.96 -33.65,-1.66 -33.94,-2.34 -34.17,-2.99 -34.33,-3.61 -34.43,-4.21 -34.47,-4.78 -34.45,-5.32 -34.36,-5.83 -34.22,-6.32 -34.02,-6.79 -33.77,-7.23 -33.46,-7.64 -33.09,-8.03 -32.68,-8.4 -32.21,-8.75 -31.86,-9.18 -31.42,-9.58 -30.91,-9.96 -30.32,-10.3 -29.66,-10.62 -28.92,-10.91 -28.12,-11.17 -27.25,-11.4 -26.31,-11.61 -25.32,-11.79 -24.27,-11.95 -23.17,-12.08 -22.03,-12.19 -20.84,-12.28 -19.62,-12.34 -18.36,-12.38 -17.07,-12.4 -15.76,-12.4 -14.43,-12.38 -13.08,-12.35 -11.72,-12.3 -10.35,-12.23 -8.98,-12.14 -7.6,-12.05 -6.24,-11.94 -4.87,-11.81 -3.52,-11.68 -2.19,-11.53 -0.87,-11.38 0.43,-11.22 1.71,-11.04 2.96,-10.86 4.19,-10.68 5.38,-10.49 6.55,-10.29 7.68,-10.09 8.78,-9.88 9.85,-9.68 10.87,-9.47 11.87,-9.25 12.83,-9.04 13.75,-8.82 14.63,-8.6 15.48,-8.39 16.3,-8.17 17.08,-7.95 17.83,-7.73 18.54,-7.51 19.23,-7.3 19.89,-7.08 20.52,-6.86 21.12,-6.65 21.69,-6.43 22.24,-6.21 22.76,-6 23.25,-5.78 23.72,-5.56 24.16,-5.35 24.58,-5.13 24.98,-4.92 25.35,-4.7 25.7,-4.48 26.03,-4.27 26.34,-4.05 27.63,-0.24 27.42,0.05 27.2,0.34 26.96,0.64 26.71,0.94 26.45,1.24 26.18,1.55 25.89,1.86 25.58,2.18 25.26,2.5 24.93,2.82 24.58,3.15 24.21,3.48 23.83,3.81 23.43,4.15 23.02,4.49 22.58,4.83 22.13,5.17 21.66,5.52 21.16,5.87 20.65,6.22 20.11,6.58 19.55,6.93 18.97,7.28 18.36,7.63 17.73,7.98 17.08,8.32 16.39,8.66 15.69,9 14.95,9.32 14.19,9.64 13.41,9.95 12.6,10.25 11.76,10.54 10.9,10.81 10.01,11.07 9.1,11.31 8.17,11.54 7.21,11.75 6.24,11.94 5.24,12.1 4.22,12.25 3.18,12.37 2.12,12.46 1.04,12.53 -0.05,12.57 -1.15,12.59 -2.27,12.57 -3.4,12.52 -4.53,12.44 -5.68,12.33 -6.83,12.19 -7.99,12.01 -9.15,11.79 -10.31,11.54 -11.47,11.26 -12.63,10.94 -13.78,10.58 -14.93,10.19 -16.06,9.77 -17.19,9.3 -18.31,8.81 -19.41,8.28 -20.49,7.72 -21.55,7.12 -22.5,6.7 -23.44,6.25 -24.36,5.79 -25.27,5.31 -26.17,4.8 -27.05,4.28 -27.92,3.74 -28.77,3.18 -29.6,2.61 -30.41,2.02 -31.2,1.42 -31.97,0.8 -32.72,0.17 -33.44,-0.47 -34.14,-1.13" />
      </clipPath>
      <filter id="fuzzy">
        <feTurbulence id="turbulence" baseFrequency="0.05" numOctaves="3" type="noise" result="noise" />
        <feDisplacementMap in="SourceGraphic" in2="noise" scale="2" />
      </filter>
      <linearGradient id="rainbowGradient" x1="0%" y1="0%" x2="100%" y2="0%">
        <stop offset="0%" style="stop-color: rgb(112, 132, 121); stop-opacity: 1" />
        <stop offset="50%" style="stop-color: rgb(116, 188, 242); stop-opacity: 1" />
        <stop offset="100%" style="stop-color: rgb(193, 115, 126); stop-opacity: 1" />
      </linearGradient>
    </defs>
    <rect x="-100" y="-100" width="100%" height="100%" fill="rgb(214, 242, 166)" />
    <polyline id="faceContour" points="75.55,1.84 75.84,1.87 75.56,3.81 75.84,3.14 75.7,6.25 75.37,6.3 75.38,6.12 75.38,8.96 75.35,9.88 75.34,10.25 74.69,12.97 74.87,12.04 74.59,15.21 74.19,16.36 74.2,16.9 73.37,19.62 73.07,20.82 73.08,22.3 72.41,23.77 71.98,25.2 72.03,25.01 72.38,24.39 71.19,27.86 70.77,29.04 69.86,31.72 69.74,31.32 69.53,32.53 69.03,33.86 69.11,33.6 67.91,36.18 67.52,36.89 66.77,38.73 66.44,38.99 66.77,38.43 64.8,42.08 64.15,42.82 63.06,45.22 63.55,44.61 62.28,46.41 62.61,45.97 61.65,47.63 60.84,48.42 59.49,50.66 59.15,51.12 58.51,51.64 57.51,53.08 57.2,53.36 55.69,55.15 54.15,57.05 54.39,57.06 52.98,58.4 53.44,57.73 51.86,59.17 50.65,60.23 50.84,60.49 48.78,62.29 47.1,63.89 47.4,63.83 46.98,63.7 44.87,65.78 44.98,65.65 42.81,67.2 43.7,66.79 40.96,68.61 40.82,68.75 39.3,69.53 37.26,71.12 36.9,71.26 38,70.58 36.35,71.63 34.64,72.26 32.46,73.92 31,74.38 29.99,74.8 29.44,74.94 28.67,75.26 28.96,75.42 27.51,75.91 26.44,76.48 24.94,77.12 23.26,77.4 21.94,78.08 19.46,78.86 19.93,78.7 18.23,79.09 18.93,79.01 15.65,79.69 14.08,79.94 14.78,79.86 13.47,80.22 12.44,80.38 9.07,81.09 7.81,80.93 6.87,81.34 6.63,81.07 7.68,81.32 6.01,81.45 3.62,81.57 2.55,81.63 1.59,81.53 -1.81,81.69 -2.27,81.46 -1.48,81.63 -3.53,81.55 -4.43,81.22 -7.57,81 -7.39,81.2 -8.49,81.16 -8.07,80.94 -9.68,80.87 -12.4,80.38 -11.58,80.6 -13.62,80.29 -14.28,80.14 -18.25,79.1 -16.07,79.72 -18.45,79.27 -21.77,78.04 -21.22,78.22 -21.09,78.21 -22.56,77.69 -25.56,76.91 -27.26,76.24 -26.31,76.48 -28.03,75.82 -30.61,74.57 -29.15,75.2 -30.95,74.31 -33.74,72.96 -33.81,72.68 -33.76,72.94 -34.94,72.36 -35.16,72.14 -38.18,70.55 -39.11,69.91 -39.57,69.6 -39.85,69.25 -43.07,66.81 -43.2,67.07 -43.37,66.88 -45.63,65.32 -45.41,65.28 -47.56,63.47 -47.1,64.01 -47.13,63.72 -48.59,62.34 -51.08,59.89 -51.82,59.3 -52.75,58.61 -52.65,58.57 -52.57,58.61 -53.39,57.87 -55.71,55.48 -55.14,55.55 -57.43,53.13 -57.59,52.71 -58.81,51.21 -59.23,50.86 -59.88,49.9 -61.01,47.8 -61.63,47.54 -61.88,46.93 -62.13,46.77 -63.67,44.08 -64.16,43.58 -65.34,40.7 -65.2,41.3 -66.07,39.57 -66.15,39.72 -67.21,37.4 -67.13,37.79 -68.2,35.91 -69.31,33.03 -68.57,34.53 -69.72,32.2 -69.86,31.68 -70.47,29.94 -70.58,28.79 -71.55,26.63 -71.13,27.85 -72.37,24.33 -72.87,22.85 -72.76,22.42 -72.72,22.72 -72.98,20.9 -73.74,18.77 -74.02,17.43 -74.36,16.07 -74.62,15.05 -74.53,14.25 -74.56,13.61 -74.8,11.74 -75.01,10.91 -75.36,10.22 -75.3,7.32 -75.33,5.77 -75.39,5.67 -75.48,4.23 -75.71,1.7 -75.68,0.73 -75.6,-0.55 -75.58,-0.92 -75.86,-3.38 -75.62,-2.78 -75.64,-6.01 -75.54,-7.15 -75.37,-7.66 -75,-9.78 -74.93,-10.8 -75.25,-10.6 -74.89,-12.52 -74.94,-12.56 -74.62,-14.49 -74.23,-15.37 -74.09,-15.95 -73.29,-21.1 -73.88,-18.92 -73.06,-21.88 -72.47,-22.97 -72.37,-23.8 -71.71,-25.71 -71.05,-27.85 -71.25,-27.28 -71.2,-27.81 -70.28,-30.52 -69.71,-32.22 -69.25,-32.98 -68.85,-33.8 -68.1,-35.48 -67.54,-37.34 -67.7,-36.16 -67.35,-37.33 -66.92,-38.58 -66.49,-39.28 -65.05,-41.76 -63.99,-43.37 -64.45,-43.09 -62.69,-45.96 -63.46,-44.53 -61.78,-46.82 -61.53,-47.73 -60.44,-48.91 -59.85,-50.23 -58.47,-51.85 -59.25,-50.98 -56.94,-53.87 -56.36,-54.53 -55.96,-55.1 -54.16,-57.19 -54.8,-56.58 -52.63,-58.45 -51.99,-59.47 -52.14,-59.04 -51.16,-60.23 -50.68,-60.66 -48.92,-62.04 -48.43,-62.91 -46.72,-64.24 -45.29,-65.37 -46.23,-64.39 -44.15,-66.3 -41.73,-68.07 -42.99,-67.11 -40.94,-68.64 -40.57,-68.71 -39.78,-69.45 -40.35,-68.95 -37.33,-70.99 -36.84,-71.49 -36.79,-71.46 -34.35,-72.57 -32.18,-73.85 -31.45,-74.34 -32.61,-73.56 -30.63,-74.75 -29.45,-75.26 -29.48,-75.32 -26.46,-76.51 -27.5,-76.26 -24.94,-77.07 -22.97,-77.63 -22.07,-78.18 -22.46,-77.99 -19.4,-78.99 -18.95,-79.02 -19.35,-78.8 -17.85,-79.16 -14.1,-80.2 -15.16,-80.08 -13.94,-80.22 -12.63,-80.65 -11.26,-80.69 -10.19,-80.92 -8.14,-81.19 -7.16,-81.43 -5.25,-81.58 -4.4,-81.41 -3.28,-81.55 -2.14,-81.43 -0.71,-81.5 -0.48,-81.46 1.16,-81.41 2.58,-81.6 3.15,-81.64 5.61,-81.23 6.63,-81.43 8.16,-81.3 7.73,-81.03 8.88,-80.95 10.88,-80.9 11.31,-80.7 11.91,-80.76 15.25,-80 13.93,-80.05 18.26,-79.06 18.23,-79.15 18.52,-79.19 21.34,-78.24 20.63,-78.56 22.7,-78.07 25.05,-77.21 24.34,-77.25 24.6,-76.98 28.04,-75.93 29.02,-75.34 29.34,-75.47 30.4,-74.67 30.68,-74.7 32.9,-73.59 33.81,-73.02 35.73,-72.15 36.83,-71.48 36.44,-71.41 36.18,-71.66 38.45,-70.17 40.87,-68.8 41.76,-68.35 42.68,-67.34 42.88,-67.2 42.96,-67.32 45.42,-65.4 46.28,-64.53 46.11,-64.68 45.97,-65.17 47.49,-63.65 49.09,-62.22 50.32,-61.28 52.05,-59.31 51.37,-59.84 52.5,-59.03 53.66,-57.78 54.81,-56.11 54.29,-56.81 57.47,-53.41 57.21,-53.7 58.73,-51.49 59.77,-50.49 57.72,-52.59 60.58,-49.36 60.67,-49.1 61.78,-47.5 60.98,-48.27 61.79,-47.04 62.67,-45.96 64.09,-43.98 64.7,-42.45 65.67,-40.65 64.86,-42.42 66.38,-38.99 67.08,-38.21 68.49,-35.17 68.69,-34.62 69.33,-33.09 68.64,-34.46 70.16,-31.01 70.03,-31.37 70.34,-30.32 70.92,-29.33 71.73,-25.8 71.22,-27.13 72.06,-25.92 72.77,-23.35 72.47,-23.57 73.4,-20.86 73.12,-21.19 73.68,-19.68 74.19,-16.34 74.64,-15.01 74.86,-13.79 74.39,-15.28 75.17,-11.15 74.96,-11.23 75.37,-9.84 75.36,-9.71 75.34,-8.62 75.54,-5.9 75.56,-4.04 75.71,-4.09 75.81,-2.11 75.82,-1.72 75.55,1.84 75.84,1.87" fill="rgb(102, 32, 223)" stroke="black" stroke-width="1.6666666666666665" stroke-linejoin="round" filter="url(#fuzzy)" />
    <g transform="translate(48.5 -26.700000000000003)">
      <polyline id="rightCountour" points="-33.3,-0.96 -33.65,-1.66 -33.94,-2.34 -34.17,-2.99 -34.33,-3.61 -34.43,-4.21 -34.47,-4.78 -34.45,-5.32 -34.36,-5.83 -34.22,-6.32 -34.02,-6.79 -33.77,-7.23 -33.46,-7.64 -33.09,-8.03 -32.68,-8.4 -32.21,-8.75 -31.86,-9.18 -31.42,-9.58 -30.91,-9.96 -30.32,-10.3 -29.66,-10.62 -28.92,-10.91 -28.12,-11.17 -27.25,-11.4 -26.31,-11.61 -25.32,-11.79 -24.27,-11.95 -23.17,-12.08 -22.03,-12.19 -20.84,-12.28 -19.62,-12.34 -18.36,-12.38 -17.07,-12.4 -15.76,-12.4 -14.43,-12.38 -13.08,-12.35 -11.72,-12.3 -10.35,-12.23 -8.98,-12.14 -7.6,-12.05 -6.24,-11.94 -4.87,-11.81 -3.52,-11.68 -2.19,-11.53 -0.87,-11.38 0.43,-11.22 1.71,-11.04 2.96,-10.86 4.19,-10.68 5.38,-10.49 6.55,-10.29 7.68,-10.09 8.78,-9.88 9.85,-9.68 10.87,-9.47 11.87,-9.25 12.83,-9.04 13.75,-8.82 14.63,-8.6 15.48,-8.39 16.3,-8.17 17.08,-7.95 17.83,-7.73 18.54,-7.51 19.23,-7.3 19.89,-7.08 20.52,-6.86 21.12,-6.65 21.69,-6.43 22.24,-6.21 22.76,-6 23.25,-5.78 23.72,-5.56 24.16,-5.35 24.58,-5.13 24.98,-4.92 25.35,-4.7 25.7,-4.48 26.03,-4.27 26.34,-4.05 27.63,-0.24 27.42,0.05 27.2,0.34 26.96,0.64 26.71,0.94 26.45,1.24 26.18,1.55 25.89,1.86 25.58,2.18 25.26,2.5 24.93,2.82 24.58,3.15 24.21,3.48 23.83,3.81 23.43,4.15 23.02,4.49 22.58,4.83 22.13,5.17 21.66,5.52 21.16,5.87 20.65,6.22 20.11,6.58 19.55,6.93 18.97,7.28 18.36,7.63 17.73,7.98 17.08,8.32 16.39,8.66 15.69,9 14.95,9.32 14.19,9.64 13.41,9.95 12.6,10.25 11.76,10.54 10.9,10.81 10.01,11.07 9.1,11.31 8.17,11.54 7.21,11.75 6.24,11.94 5.24,12.1 4.22,12.25 3.18,12.37 2.12,12.46 1.04,12.53 -0.05,12.57 -1.15,12.59 -2.27,12.57 -3.4,12.52 -4.53,12.44 -5.68,12.33 -6.83,12.19 -7.99,12.01 -9.15,11.79 -10.31,11.54 -11.47,11.26 -12.63,10.94 -13.78,10.58 -14.93,10.19 -16.06,9.77 -17.19,9.3 -18.31,8.81 -19.41,8.28 -20.49,7.72 -21.55,7.12 -22.5,6.7 -23.44,6.25 -24.36,5.79 -25.27,5.31 -26.17,4.8 -27.05,4.28 -27.92,3.74 -28.77,3.18 -29.6,2.61 -30.41,2.02 -31.2,1.42 -31.97,0.8 -32.72,0.17 -33.44,-0.47 -34.14,-1.13" fill="white" stroke="white" stroke-width="0" stroke-linejoin="round" filter="url(#fuzzy)" />
    </g>
    <g transform="translate(-33.78 -25.12)">
      <polyline id="leftCountour" points="33.9,-1.88 34.04,-2.32 34.13,-2.75 34.17,-3.16 34.16,-3.56 34.11,-3.94 34.01,-4.32 33.86,-4.68 33.66,-5.02 33.41,-5.35 33.11,-5.67 32.77,-5.97 32.38,-6.26 31.95,-6.54 31.47,-6.8 30.95,-7.05 30.56,-7.37 30.1,-7.68 29.57,-7.96 28.96,-8.23 28.28,-8.48 27.53,-8.71 26.72,-8.92 25.85,-9.11 24.92,-9.28 23.93,-9.43 22.89,-9.57 21.8,-9.68 20.66,-9.78 19.49,-9.86 18.27,-9.92 17.03,-9.97 15.75,-9.99 14.45,-10.01 13.13,-10 11.8,-9.98 10.45,-9.95 9.09,-9.9 7.73,-9.84 6.37,-9.77 5.01,-9.68 3.65,-9.58 2.31,-9.48 0.98,-9.36 -0.33,-9.23 -1.63,-9.09 -2.9,-8.94 -4.15,-8.79 -5.38,-8.63 -6.57,-8.46 -7.74,-8.28 -8.87,-8.1 -9.97,-7.91 -11.04,-7.72 -12.07,-7.52 -13.07,-7.32 -14.03,-7.12 -14.95,-6.92 -15.84,-6.71 -16.69,-6.49 -17.5,-6.28 -18.28,-6.07 -19.02,-5.85 -19.74,-5.63 -20.42,-5.42 -21.07,-5.2 -21.69,-4.98 -22.28,-4.76 -22.84,-4.54 -23.38,-4.31 -23.88,-4.09 -24.36,-3.86 -24.81,-3.64 -25.23,-3.41 -25.63,-3.18 -26,-2.95 -26.35,-2.73 -26.67,-2.49 -26.97,-2.26 -27.24,-2.03 -28.73,0.51 -28.47,0.75 -28.19,0.99 -27.9,1.23 -27.6,1.48 -27.28,1.73 -26.95,1.98 -26.6,2.23 -26.24,2.48 -25.86,2.74 -25.46,2.99 -25.04,3.25 -24.61,3.51 -24.16,3.77 -23.69,4.03 -23.21,4.29 -22.7,4.55 -22.18,4.81 -21.64,5.08 -21.07,5.34 -20.48,5.61 -19.88,5.87 -19.24,6.14 -18.59,6.4 -17.91,6.66 -17.21,6.91 -16.48,7.16 -15.73,7.41 -14.96,7.65 -14.16,7.88 -13.34,8.11 -12.5,8.33 -11.64,8.54 -10.75,8.74 -9.84,8.93 -8.91,9.11 -7.96,9.27 -7,9.42 -6.01,9.56 -5.01,9.68 -3.99,9.79 -2.96,9.88 -1.91,9.95 -0.85,10 0.22,10.04 1.3,10.05 2.38,10.05 3.48,10.02 4.58,9.97 5.68,9.9 6.78,9.8 7.88,9.69 8.98,9.54 10.08,9.38 11.17,9.19 12.25,8.97 13.33,8.73 14.39,8.47 15.44,8.19 16.48,7.88 17.5,7.54 18.51,7.19 19.49,6.81 20.46,6.41 21.4,5.99 22.27,5.68 23.12,5.37 23.95,5.04 24.78,4.7 25.59,4.34 26.38,3.98 27.16,3.6 27.92,3.21 28.66,2.81 29.38,2.41 30.09,1.99 30.77,1.57 31.44,1.13 32.08,0.69 32.69,0.25" fill="white" stroke="white" stroke-width="0" stroke-linejoin="round" filter="url(#fuzzy)" />
    </g>
    <g transform="translate(48.5 -26.700000000000003)">
      <polyline id="rightUpper" points="-26.23,7.73 -27.22,6.73 -28.15,5.75 -29.02,4.81 -29.83,3.89 -30.57,3.01 -31.24,2.16 -31.85,1.34 -32.4,0.54 -32.88,-0.22 -33.3,-0.96 -33.65,-1.66 -33.94,-2.34 -34.17,-2.99 -34.33,-3.61 -34.43,-4.21 -34.47,-4.78 -34.45,-5.32 -34.36,-5.83 -34.22,-6.32 -34.02,-6.79 -33.77,-7.23 -33.46,-7.64 -33.09,-8.03 -32.68,-8.4 -32.21,-8.75 -31.86,-9.18 -31.42,-9.58 -30.91,-9.96 -30.32,-10.3 -29.66,-10.62 -28.92,-10.91 -28.12,-11.17 -27.25,-11.4 -26.31,-11.61 -25.32,-11.79 -24.27,-11.95 -23.17,-12.08 -22.03,-12.19 -20.84,-12.28 -19.62,-12.34 -18.36,-12.38 -17.07,-12.4 -15.76,-12.4 -14.43,-12.38 -13.08,-12.35 -11.72,-12.3 -10.35,-12.23 -8.98,-12.14 -7.6,-12.05 -6.24,-11.94 -4.87,-11.81 -3.52,-11.68 -2.19,-11.53 -0.87,-11.38 0.43,-11.22 1.71,-11.04 2.96,-10.86 4.19,-10.68 5.38,-10.49 6.55,-10.29 7.68,-10.09 8.78,-9.88 9.85,-9.68 10.87,-9.47 11.87,-9.25 12.83,-9.04 13.75,-8.82 14.63,-8.6 15.48,-8.39 16.3,-8.17 17.08,-7.95 17.83,-7.73 18.54,-7.51 19.23,-7.3 19.89,-7.08 20.52,-6.86 21.12,-6.65 21.69,-6.43 22.24,-6.21 22.76,-6 23.25,-5.78 23.72,-5.56 24.16,-5.35 24.58,-5.13 24.98,-4.92 25.35,-4.7 25.7,-4.48 26.03,-4.27 26.34,-4.05 26.63,-3.84 26.9,-3.63 27.16,-3.41 27.39,-3.2 27.61,-2.98 27.82,-2.77 28.01,-2.56 28.18,-2.35 28.34,-2.13 28.49,-1.92" fill="none" stroke="black" stroke-width="1.6666666666666665" stroke-linejoin="round" filter="url(#fuzzy)" />
      <polyline id="rightLower" points="-39.39,-7.93 -39.03,-7.26 -38.62,-6.57 -38.18,-5.88 -37.7,-5.2 -37.19,-4.51 -36.64,-3.82 -36.06,-3.14 -35.45,-2.46 -34.81,-1.79 -34.14,-1.13 -33.44,-0.47 -32.72,0.17 -31.97,0.8 -31.2,1.42 -30.41,2.02 -29.6,2.61 -28.77,3.18 -27.92,3.74 -27.05,4.28 -26.17,4.8 -25.27,5.31 -24.36,5.79 -23.44,6.25 -22.5,6.7 -21.55,7.12 -20.49,7.72 -19.41,8.28 -18.31,8.81 -17.19,9.3 -16.06,9.77 -14.93,10.19 -13.78,10.58 -12.63,10.94 -11.47,11.26 -10.31,11.54 -9.15,11.79 -7.99,12.01 -6.83,12.19 -5.68,12.33 -4.53,12.44 -3.4,12.52 -2.27,12.57 -1.15,12.59 -0.05,12.57 1.04,12.53 2.12,12.46 3.18,12.37 4.22,12.25 5.24,12.1 6.24,11.94 7.21,11.75 8.17,11.54 9.1,11.31 10.01,11.07 10.9,10.81 11.76,10.54 12.6,10.25 13.41,9.95 14.19,9.64 14.95,9.32 15.69,9 16.39,8.66 17.08,8.32 17.73,7.98 18.36,7.63 18.97,7.28 19.55,6.93 20.11,6.58 20.65,6.22 21.16,5.87 21.66,5.52 22.13,5.17 22.58,4.83 23.02,4.49 23.43,4.15 23.83,3.81 24.21,3.48 24.58,3.15 24.93,2.82 25.26,2.5 25.58,2.18 25.89,1.86 26.18,1.55 26.45,1.24 26.71,0.94 26.96,0.64 27.2,0.34 27.42,0.05 27.63,-0.24 27.83,-0.52 28.02,-0.8 28.2,-1.07 28.37,-1.34 28.52,-1.6 28.67,-1.86 28.81,-2.11 28.94,-2.36 29.06,-2.61 29.17,-2.85" fill="none" stroke="black" stroke-width="2.2222222222222223" stroke-linejoin="round" filter="url(#fuzzy)" />
      <circle r="4.454" cx="-21.48713871746975" cy="2.715938187310851" stroke="black" fill="none" stroke-width="1.0" filter="url(#fuzzy)" clip-path="url(#rightEyeClipPath)" /><circle r="3.894" cx="-20.22713871746975" cy="1.8809381873108508" stroke="black" fill="none" stroke-width="1.0" filter="url(#fuzzy)" clip-path="url(#rightEyeClipPath)" /><circle r="4.646" cx="-23.41213871746975" cy="0.34093818731085035" stroke="black" fill="none" stroke-width="1.0" filter="url(#fuzzy)" clip-path="url(#rightEyeClipPath)" /><circle r="3.932" cx="-24.56213871746975" cy="-0.3290618126891496" stroke="black" fill="none" stroke-width="1.0" filter="url(#fuzzy)" clip-path="url(#rightEyeClipPath)" /><circle r="4.47" cx="-21.54713871746975" cy="3.6959381873108503" stroke="black" fill="none" stroke-width="1.0" filter="url(#fuzzy)" clip-path="url(#rightEyeClipPath)" /><circle r="4.57" cx="-19.91713871746975" cy="-0.43406181268914956" stroke="black" fill="none" stroke-width="1.0" filter="url(#fuzzy)" clip-path="url(#rightEyeClipPath)" /><circle r="4.5" cx="-24.59713871746975" cy="1.9309381873108507" stroke="black" fill="none" stroke-width="1.0" filter="url(#fuzzy)" clip-path="url(#rightEyeClipPath)" /><circle r="3.5540000000000003" cx="-22.91713871746975" cy="2.365938187310851" stroke="black" fill="none" stroke-width="1.0" filter="url(#fuzzy)" clip-path="url(#rightEyeClipPath)" /><circle r="3.824" cx="-21.33213871746975" cy="1.5709381873108503" stroke="black" fill="none" stroke-width="1.0" filter="url(#fuzzy)" clip-path="url(#rightEyeClipPath)" /><circle r="4.7620000000000005" cx="-22.15213871746975" cy="3.380938187310851" stroke="black" fill="none" stroke-width="1.0" filter="url(#fuzzy)" clip-path="url(#rightEyeClipPath)" />
      </g>
    <g transform="translate(-33.78 -25.12)">
      <polyline id="leftUpper" points="30.06,3.17 30.62,2.61 31.15,2.07 31.65,1.54 32.1,1.01 32.51,0.5 32.88,0 33.2,-0.49 33.48,-0.97 33.71,-1.43 33.9,-1.88 34.04,-2.32 34.13,-2.75 34.17,-3.16 34.16,-3.56 34.11,-3.94 34.01,-4.32 33.86,-4.68 33.66,-5.02 33.41,-5.35 33.11,-5.67 32.77,-5.97 32.38,-6.26 31.95,-6.54 31.47,-6.8 30.95,-7.05 30.56,-7.37 30.1,-7.68 29.57,-7.96 28.96,-8.23 28.28,-8.48 27.53,-8.71 26.72,-8.92 25.85,-9.11 24.92,-9.28 23.93,-9.43 22.89,-9.57 21.8,-9.68 20.66,-9.78 19.49,-9.86 18.27,-9.92 17.03,-9.97 15.75,-9.99 14.45,-10.01 13.13,-10 11.8,-9.98 10.45,-9.95 9.09,-9.9 7.73,-9.84 6.37,-9.77 5.01,-9.68 3.65,-9.58 2.31,-9.48 0.98,-9.36 -0.33,-9.23 -1.63,-9.09 -2.9,-8.94 -4.15,-8.79 -5.38,-8.63 -6.57,-8.46 -7.74,-8.28 -8.87,-8.1 -9.97,-7.91 -11.04,-7.72 -12.07,-7.52 -13.07,-7.32 -14.03,-7.12 -14.95,-6.92 -15.84,-6.71 -16.69,-6.49 -17.5,-6.28 -18.28,-6.07 -19.02,-5.85 -19.74,-5.63 -20.42,-5.42 -21.07,-5.2 -21.69,-4.98 -22.28,-4.76 -22.84,-4.54 -23.38,-4.31 -23.88,-4.09 -24.36,-3.86 -24.81,-3.64 -25.23,-3.41 -25.63,-3.18 -26,-2.95 -26.35,-2.73 -26.67,-2.49 -26.97,-2.26 -27.24,-2.03 -27.5,-1.8 -27.73,-1.57 -27.94,-1.34 -28.14,-1.1 -28.31,-0.87 -28.47,-0.64 -28.6,-0.4 -28.72,-0.17 -28.83,0.07 -28.92,0.3" fill="none" stroke="black" stroke-width="2.2222222222222223" stroke-linejoin="round" filter="url(#fuzzy)" />
      <polyline id="leftLower" points="37.45,-4.28 37.1,-3.84 36.73,-3.39 36.32,-2.94 35.88,-2.48 35.42,-2.02 34.92,-1.57 34.41,-1.11 33.86,-0.65 33.29,-0.2 32.69,0.25 32.08,0.69 31.44,1.13 30.77,1.57 30.09,1.99 29.38,2.41 28.66,2.81 27.92,3.21 27.16,3.6 26.38,3.98 25.59,4.34 24.78,4.7 23.95,5.04 23.12,5.37 22.27,5.68 21.4,5.99 20.46,6.41 19.49,6.81 18.51,7.19 17.5,7.54 16.48,7.88 15.44,8.19 14.39,8.47 13.33,8.73 12.25,8.97 11.17,9.19 10.08,9.38 8.98,9.54 7.88,9.69 6.78,9.8 5.68,9.9 4.58,9.97 3.48,10.02 2.38,10.05 1.3,10.05 0.22,10.04 -0.85,10 -1.91,9.95 -2.96,9.88 -3.99,9.79 -5.01,9.68 -6.01,9.56 -7,9.42 -7.96,9.27 -8.91,9.11 -9.84,8.93 -10.75,8.74 -11.64,8.54 -12.5,8.33 -13.34,8.11 -14.16,7.88 -14.96,7.65 -15.73,7.41 -16.48,7.16 -17.21,6.91 -17.91,6.66 -18.59,6.4 -19.24,6.14 -19.88,5.87 -20.48,5.61 -21.07,5.34 -21.64,5.08 -22.18,4.81 -22.7,4.55 -23.21,4.29 -23.69,4.03 -24.16,3.77 -24.61,3.51 -25.04,3.25 -25.46,2.99 -25.86,2.74 -26.24,2.48 -26.6,2.23 -26.95,1.98 -27.28,1.73 -27.6,1.48 -27.9,1.23 -28.19,0.99 -28.47,0.75 -28.73,0.51 -28.97,0.27 -29.21,0.04 -29.43,-0.19 -29.63,-0.42 -29.83,-0.65 -30.01,-0.87 -30.19,-1.09 -30.35,-1.31 -30.5,-1.52 -30.64,-1.74" fill="none" stroke="black" stroke-width="2.2222222222222223" stroke-linejoin="round" filter="url(#fuzzy)" />
      <circle r="3.022" cx="26.15263437586095" cy="-4.390597716418626" stroke="black" fill="none" stroke-width="1.0" filter="url(#fuzzy)" clip-path="url(#leftEyeClipPath)" /><circle r="3.858" cx="28.307634375860946" cy="-3.8605977164186265" stroke="black" fill="none" stroke-width="1.0" filter="url(#fuzzy)" clip-path="url(#leftEyeClipPath)" /><circle r="4.646" cx="27.90263437586095" cy="-1.4305977164186265" stroke="black" fill="none" stroke-width="1.0" filter="url(#fuzzy)" clip-path="url(#leftEyeClipPath)" /><circle r="3.894" cx="25.72263437586095" cy="-0.7105977164186263" stroke="black" fill="none" stroke-width="1.0" filter="url(#fuzzy)" clip-path="url(#leftEyeClipPath)" /><circle r="4.836" cx="24.602634375860948" cy="-3.230597716418626" stroke="black" fill="none" stroke-width="1.0" filter="url(#fuzzy)" clip-path="url(#leftEyeClipPath)" /><circle r="3.2439999999999998" cx="24.787634375860947" cy="-1.3005977164186266" stroke="black" fill="none" stroke-width="1.0" filter="url(#fuzzy)" clip-path="url(#leftEyeClipPath)" /><circle r="4.082" cx="24.422634375860948" cy="-3.6105977164186265" stroke="black" fill="none" stroke-width="1.0" filter="url(#fuzzy)" clip-path="url(#leftEyeClipPath)" /><circle r="3.842" cx="26.147634375860946" cy="-0.2605977164186264" stroke="black" fill="none" stroke-width="1.0" filter="url(#fuzzy)" clip-path="url(#leftEyeClipPath)" /><circle r="3.998" cx="24.637634375860948" cy="-3.3755977164186266" stroke="black" fill="none" stroke-width="1.0" filter="url(#fuzzy)" clip-path="url(#leftEyeClipPath)" /><circle r="4.918" cx="24.517634375860947" cy="-0.47559771641862625" stroke="black" fill="none" stroke-width="1.0" filter="url(#fuzzy)" clip-path="url(#leftEyeClipPath)" />
    </g>
    <g id="hairs">
      <polyline points="8.88,-80.95 10.39,-80.83 11.71,-80.57 13.19,-80.18 14.85,-79.69 16.6,-79.14 18.37,-78.58 20.11,-78 21.82,-77.42 23.47,-76.84 25.07,-76.25 26.61,-75.68 28.05,-75.12 29.38,-74.59 30.56,-74.12 31.58,-73.73 32.42,-73.42 33.08,-73.19 33.56,-73.03 33.85,-72.96 33.87,-73 33.53,-73.2 32.75,-73.61 31.57,-74.18" fill="none" stroke="rgb(134, 61, 19)" stroke-width="2" stroke-linejoin="round" filter="url(#fuzzy)" /><polyline points="2.58,-81.6 3.74,-81.49 5.39,-81.24 7.07,-80.94 8.7,-80.57 10.37,-80.14 12.15,-79.65 14.06,-79.1 16.08,-78.51 18.18,-77.86 20.31,-77.2 22.41,-76.52 24.41,-75.88 26.23,-75.31 27.84,-74.82 29.23,-74.41 30.45,-74.06 31.54,-73.74 32.47,-73.46 33.06,-73.31 33.12,-73.37" fill="none" stroke="rgb(134, 61, 19)" stroke-width="2" stroke-linejoin="round" filter="url(#fuzzy)" /><polyline points="-10.19,-80.92 -8.56,-81.15 -7.26,-81.3 -6.19,-81.35 -5.34,-81.33 -4.74,-81.26 -4.37,-81.13 -4.26,-80.95 -4.42,-80.72 -4.86,-80.43 -5.58,-80.07 -6.63,-79.62 -8.05,-79.09 -9.88,-78.47 -12.17,-77.76 -14.99,-76.94 -18.4,-75.99 -22.44,-74.86 -27.09,-73.59 -32.13,-72.3" fill="none" stroke="rgb(134, 61, 19)" stroke-width="2" stroke-linejoin="round" filter="url(#fuzzy)" /><polyline points="41.76,-68.35 42.25,-67.67 42.32,-67.19 42.16,-66.63 41.67,-66.03 40.72,-65.44 39.3,-64.87 37.45,-64.25 35.18,-63.54 32.47,-62.74 29.25,-61.89 25.47,-61.03 21.09,-60.2 16.1,-59.41 10.53,-58.65 4.35,-57.89 -2.44,-57.11 -9.89,-56.32 -18.04,-55.51 -26.94,-54.71 -36.64,-53.9 -47.28,-52.89" fill="none" stroke="rgb(134, 61, 19)" stroke-width="2" stroke-linejoin="round" filter="url(#fuzzy)" /><polyline points="11.91,-80.76 13.93,-80.24 15.23,-79.87 16.35,-79.57 17.2,-79.35 17.75,-79.19 18,-79.09 17.91,-79.03 17.42,-79.01 16.44,-79.07 14.88,-79.19 12.75,-79.4 10.05,-79.7 6.75,-80.12 2.76,-80.71" fill="none" stroke="rgb(134, 61, 19)" stroke-width="2" stroke-linejoin="round" filter="url(#fuzzy)" /><polyline points="-39.78,-69.45 -39.18,-69.69 -37.58,-70.47 -35.65,-71.27 -33.43,-72.06 -30.98,-72.85 -28.4,-73.6 -25.78,-74.31 -23.12,-74.97 -20.42,-75.63 -17.66,-76.3 -14.85,-76.98 -12,-77.66 -9.15,-78.32 -6.34,-78.96 -3.6,-79.55 -0.97,-80.09 1.5,-80.59 3.75,-81" fill="none" stroke="rgb(134, 61, 19)" stroke-width="2" stroke-linejoin="round" filter="url(#fuzzy)" /><polyline points="7.73,-81.03 9.01,-80.95 10.27,-80.84 11.47,-80.67 12.66,-80.45 13.85,-80.19 14.97,-79.92 15.96,-79.67 16.77,-79.45 17.38,-79.28 17.79,-79.13 17.97,-79.01 17.9,-78.92 17.56,-78.85 16.92,-78.82 15.95,-78.83 14.64,-78.89 12.99,-79 10.96,-79.19 8.54,-79.47 5.71,-79.83 2.47,-80.28 -1.2,-80.84" fill="none" stroke="rgb(134, 61, 19)" stroke-width="2" stroke-linejoin="round" filter="url(#fuzzy)" /><polyline points="15.25,-80 15.34,-79.76 16.07,-79.33 16.4,-78.87 16.21,-78.33 15.54,-77.69 14.4,-76.92 12.75,-76.01 10.55,-74.95 7.76,-73.74 4.4,-72.39 0.45,-70.91 -4.14,-69.32 -9.42,-67.6 -15.44,-65.74 -22.21,-63.7 -29.74,-61.46 -38.02,-59.01 -47.09,-56.43" fill="none" stroke="rgb(134, 61, 19)" stroke-width="2" stroke-linejoin="round" filter="url(#fuzzy)" /><polyline points="60.67,-49.1 61.01,-48.31 60.66,-48.08 59.98,-47.89 58.95,-47.73 57.4,-47.74 55.2,-48.07 52.27,-48.78 48.63,-49.86 44.27,-51.28 39.19,-53.04 33.34,-55.19 26.64,-57.83 19.02,-61 10.43,-64.68 1.02,-68.86 -8.93,-73.61" fill="none" stroke="rgb(134, 61, 19)" stroke-width="2" stroke-linejoin="round" filter="url(#fuzzy)" /><polyline points="-19.35,-78.8 -17.53,-79.28 -15.96,-79.72 -14.8,-80.03 -13.84,-80.26 -12.93,-80.43 -12.08,-80.56 -11.33,-80.65 -10.76,-80.68 -10.44,-80.64 -10.44,-80.52 -10.81,-80.3 -11.6,-79.97 -12.87,-79.54 -14.62,-79 -16.86,-78.35 -19.58,-77.61 -22.77,-76.76 -26.43,-75.82" fill="none" stroke="rgb(134, 61, 19)" stroke-width="2" stroke-linejoin="round" filter="url(#fuzzy)" /><polyline points="45.97,-65.17 47.22,-63.87 47.99,-62.85 48.15,-62.16 47.62,-61.83 46.45,-61.82 44.66,-62.07 42.28,-62.53 39.27,-63.2 35.56,-64.12 31.08,-65.3 25.74,-66.8 19.48,-68.68 12.23,-70.98 4.01,-73.7 -5.12,-76.73" fill="none" stroke="rgb(134, 61, 19)" stroke-width="2" stroke-linejoin="round" filter="url(#fuzzy)" /><polyline points="49.09,-62.22 49.97,-61.27 50.01,-60.66 49.26,-60.39 47.84,-60.34 45.78,-60.44 43,-60.7 39.44,-61.17 35.02,-61.91 29.66,-62.97 23.31,-64.43 15.89,-66.31 7.4,-68.58 -2.12,-71.16 -12.72,-73.99" fill="none" stroke="rgb(134, 61, 19)" stroke-width="2" stroke-linejoin="round" filter="url(#fuzzy)" /><polyline points="36.18,-71.66 38.3,-70.32 40.04,-69.23 41.36,-68.34 42.39,-67.6 43.28,-66.94 44.1,-66.32 44.84,-65.75 45.49,-65.24 46.06,-64.8 46.53,-64.4 46.93,-64.05 47.23,-63.75 47.36,-63.57 47.27,-63.56 46.88,-63.77 46.14,-64.24 45.03,-64.98 43.55,-65.99 41.82,-67.23 40.01,-68.61 38.14,-70.17" fill="none" stroke="rgb(134, 61, 19)" stroke-width="2" stroke-linejoin="round" filter="url(#fuzzy)" /><polyline points="1.16,-81.41 2.37,-81.51 3.59,-81.49 4.78,-81.42 5.78,-81.33 6.55,-81.23 7.12,-81.12 7.53,-80.99 7.81,-80.84 7.96,-80.66 7.94,-80.45 7.73,-80.2 7.27,-79.92 6.52,-79.64 5.44,-79.34 3.99,-79.06 2.17,-78.77 -0.04,-78.48 -2.66,-78.16 -5.73,-77.81 -9.32,-77.42 -13.44,-76.99 -18.05,-76.54 -23.14,-76.06" fill="none" stroke="rgb(134, 61, 19)" stroke-width="2" stroke-linejoin="round" filter="url(#fuzzy)" /><polyline points="-12.63,-80.65 -11.29,-80.75 -9.78,-80.92 -8.16,-81.09 -6.53,-81.22 -4.95,-81.31 -3.47,-81.36 -2.08,-81.38 -0.8,-81.39 0.37,-81.4 1.42,-81.4 2.34,-81.42 3.08,-81.43 3.59,-81.44 3.83,-81.43 3.74,-81.42 3.3,-81.4 2.5,-81.38 1.36,-81.37 -0.13,-81.38 -2.04,-81.42" fill="none" stroke="rgb(134, 61, 19)" stroke-width="2" stroke-linejoin="round" filter="url(#fuzzy)" /><polyline points="36.83,-71.48 36.7,-71.38 37.29,-70.97 38.34,-70.3 39.41,-69.61 40.26,-69.03 40.81,-68.59 41.08,-68.3 41.09,-68.14 40.87,-68.11 40.39,-68.21 39.65,-68.45 38.63,-68.82 37.33,-69.29 35.75,-69.88 33.8,-70.63 31.41,-71.6 28.5,-72.86 25.01,-74.42 20.95,-76.28 16.31,-78.4" fill="none" stroke="rgb(134, 61, 19)" stroke-width="2" stroke-linejoin="round" filter="url(#fuzzy)" /><polyline points="3.15,-81.64 4.94,-81.4 5.94,-81.24 6.4,-81.02 6.51,-80.72 6.37,-80.34 6.01,-79.88 5.39,-79.32 4.49,-78.64 3.23,-77.84 1.57,-76.91 -0.55,-75.86 -3.2,-74.7 -6.4,-73.42 -10.18,-71.99 -14.55,-70.41 -19.52,-68.65 -25.08,-66.75 -31.22,-64.75 -37.86,-62.73 -44.94,-60.7" fill="none" stroke="rgb(134, 61, 19)" stroke-width="2" stroke-linejoin="round" filter="url(#fuzzy)" /><polyline points="-7.16,-81.43 -5.48,-81.38 -3.74,-81.06 -1.75,-80.55 0.53,-79.87 3.08,-79.04 5.92,-78.06 9.03,-76.93 12.4,-75.68 15.98,-74.29 19.7,-72.79 23.51,-71.19 27.35,-69.52 31.17,-67.82 34.94,-66.15 38.64,-64.56 42.27,-63.04 45.85,-61.56 49.35,-60.17" fill="none" stroke="rgb(134, 61, 19)" stroke-width="2" stroke-linejoin="round" filter="url(#fuzzy)" /><polyline points="52.5,-59.03 53.51,-57.85 54.35,-56.82 55.18,-55.84 55.97,-54.9 56.62,-54.09 57.06,-53.48 57.28,-53.06 57.32,-52.83 57.18,-52.75 56.86,-52.82 56.34,-53.05 55.64,-53.43 54.76,-53.96 53.7,-54.63 52.42,-55.49 50.87,-56.57 48.99,-57.94 46.77,-59.62 44.22,-61.59 41.4,-63.84 38.28,-66.38 34.75,-69.3 30.44,-72.77" fill="none" stroke="rgb(134, 61, 19)" stroke-width="2" stroke-linejoin="round" filter="url(#fuzzy)" /><polyline points="-8.14,-81.19 -6.87,-81.33 -5.32,-81.31 -3.66,-81.18 -1.9,-80.98 -0.05,-80.73 1.91,-80.45 3.96,-80.14 6.08,-79.82 8.25,-79.49 10.45,-79.15 12.63,-78.79 14.73,-78.42 16.72,-78.06 18.55,-77.71 20.2,-77.41 21.67,-77.15 22.99,-76.94 24.17,-76.74 25.2,-76.56 25.93,-76.44 26.02,-76.49" fill="none" stroke="rgb(134, 61, 19)" stroke-width="2" stroke-linejoin="round" filter="url(#fuzzy)" /><polyline points="-22.46,-77.99 -20.32,-78.59 -18.89,-78.82 -17.37,-78.97 -15.56,-79.13 -13.53,-79.29 -11.39,-79.42 -9.18,-79.52 -6.89,-79.58 -4.52,-79.62 -2.08,-79.63 0.37,-79.62 2.77,-79.6 5.06,-79.57 7.22,-79.52 9.2,-79.47 11.01,-79.42 12.61,-79.38 13.98,-79.36 15.15,-79.35 16.13,-79.34 17.06,-79.29" fill="none" stroke="rgb(134, 61, 19)" stroke-width="2" stroke-linejoin="round" filter="url(#fuzzy)" /><polyline points="-27.5,-76.26 -25.21,-76.92 -23.21,-77.4 -21.33,-77.75 -19.36,-78 -17.24,-78.2 -14.97,-78.36 -12.53,-78.51 -9.94,-78.64 -7.27,-78.77 -4.56,-78.89 -1.86,-79 0.81,-79.09 3.44,-79.17 6.01,-79.24 8.45,-79.3 10.71,-79.35 12.73,-79.38 14.54,-79.38 16.27,-79.3" fill="none" stroke="rgb(134, 61, 19)" stroke-width="2" stroke-linejoin="round" filter="url(#fuzzy)" /><polyline points="-17.85,-79.16 -15.54,-79.75 -14.15,-79.92 -12.63,-79.93 -10.79,-79.86 -8.65,-79.73 -6.28,-79.53 -3.74,-79.28 -1.12,-78.96 1.55,-78.58 4.23,-78.16 6.92,-77.68 9.61,-77.16 12.3,-76.61 14.99,-76.05 17.67,-75.47 20.32,-74.91 22.91,-74.37 25.38,-73.85 27.64,-73.39 29.59,-73.04 31.23,-72.78 32.72,-72.55 34.48,-72.16" fill="none" stroke="rgb(134, 61, 19)" stroke-width="2" stroke-linejoin="round" filter="url(#fuzzy)" /><polyline points="22.7,-78.07 24.02,-77.52 24.69,-77.17 25.41,-76.82 26.14,-76.47 26.67,-76.19 26.91,-75.98 26.84,-75.84 26.47,-75.76 25.8,-75.75 24.74,-75.81 23.19,-76 21.07,-76.33 18.37,-76.82 15.14,-77.44 11.44,-78.18 7.26,-79.06 2.42,-80.15" fill="none" stroke="rgb(134, 61, 19)" stroke-width="2" stroke-linejoin="round" filter="url(#fuzzy)" /><polyline points="7.73,-81.03 8.98,-80.95 10.16,-80.85 11.22,-80.71 12.23,-80.5 13.18,-80.25 14.02,-80 14.68,-79.76 15.1,-79.54 15.26,-79.36 15.13,-79.2 14.71,-79.05 13.95,-78.9 12.86,-78.76 11.42,-78.62 9.61,-78.5 7.45,-78.39 4.89,-78.32 1.89,-78.27 -1.62,-78.25 -5.65,-78.24 -10.08,-78.31 -14.67,-78.54" fill="none" stroke="rgb(134, 61, 19)" stroke-width="2" stroke-linejoin="round" filter="url(#fuzzy)" /><polyline points="-42.99,-67.11 -41.42,-68.15 -40.13,-68.79 -38.69,-69.38 -36.93,-70.05 -34.84,-70.82 -32.48,-71.64 -29.91,-72.47 -27.22,-73.3 -24.49,-74.11 -21.78,-74.87 -19.12,-75.6 -16.5,-76.31 -13.89,-77.01 -11.27,-77.69 -8.67,-78.35 -6.09,-78.99 -3.58,-79.58 -1.18,-80.14 0.92,-80.65 2.46,-81.1" fill="none" stroke="rgb(134, 61, 19)" stroke-width="2" stroke-linejoin="round" filter="url(#fuzzy)" /><polyline points="-22.07,-78.18 -21.42,-78.31 -20.04,-78.62 -18.55,-78.91 -16.94,-79.19 -15.18,-79.5 -13.33,-79.83 -11.5,-80.15 -9.76,-80.43 -8.14,-80.69 -6.67,-80.91 -5.37,-81.09 -4.28,-81.24 -3.48,-81.36 -3.01,-81.43 -2.98,-81.47 -3.44,-81.48" fill="none" stroke="rgb(134, 61, 19)" stroke-width="2" stroke-linejoin="round" filter="url(#fuzzy)" /><polyline points="60.58,-49.36 60.78,-48.92 60.84,-48.58 60.71,-48.39 60.46,-48.27 60.04,-48.22 59.36,-48.35 58.31,-48.79 56.83,-49.63 54.87,-50.87 52.43,-52.53 49.5,-54.6 46.06,-57.15 42.03,-60.28 37.32,-64.06 31.93,-68.46 25.86,-73.42" fill="none" stroke="rgb(134, 61, 19)" stroke-width="2" stroke-linejoin="round" filter="url(#fuzzy)" /><polyline points="33.81,-73.02 35.19,-72.34 35.82,-71.92 36.1,-71.64 36.32,-71.34 36.51,-71.02 36.53,-70.74 36.2,-70.59 35.42,-70.62 34.17,-70.85 32.47,-71.26 30.3,-71.85 27.6,-72.63 24.3,-73.62 20.39,-74.81 15.9,-76.17 10.85,-77.67 5.24,-79.4" fill="none" stroke="rgb(134, 61, 19)" stroke-width="2" stroke-linejoin="round" filter="url(#fuzzy)" /><polyline points="-12.63,-80.65 -11.38,-80.75 -10.16,-80.9 -9.01,-81.02 -8.04,-81.08 -7.3,-81.05 -6.83,-80.93 -6.65,-80.72 -6.74,-80.45 -7.12,-80.09 -7.81,-79.66 -8.84,-79.12 -10.22,-78.48 -12,-77.7 -14.21,-76.79 -16.87,-75.75 -20.01,-74.59 -23.62,-73.33 -27.68,-71.99 -32.2,-70.55 -37.1,-69.07" fill="none" stroke="rgb(134, 61, 19)" stroke-width="2" stroke-linejoin="round" filter="url(#fuzzy)" /><polyline points="-34.35,-72.57 -32.63,-73.39 -31.18,-73.63 -29.42,-73.65 -27.13,-73.6 -24.3,-73.48 -21,-73.29 -17.29,-73 -13.22,-72.63 -8.87,-72.18 -4.29,-71.68 0.46,-71.11 5.35,-70.46 10.36,-69.74 15.5,-68.94 20.75,-68.08 26.09,-67.22 31.4,-66.45 36.52,-65.82 41.35,-65.38" fill="none" stroke="rgb(134, 61, 19)" stroke-width="2" stroke-linejoin="round" filter="url(#fuzzy)" /><polyline points="68.49,-35.17 68.61,-34.57 68.44,-34.12 68,-33.77 67.28,-33.48 66.26,-33.28 64.89,-33.2 63.15,-33.29 61.03,-33.57 58.5,-34.07 55.56,-34.79 52.17,-35.73 48.33,-36.88 44.01,-38.24 39.21,-39.81 33.94,-41.61 28.19,-43.67 21.96,-46.05 15.25,-48.76 8.05,-51.84 0.33,-55.23 -8.02,-58.88 -17.13,-62.72 -26.96,-66.81" fill="none" stroke="rgb(134, 61, 19)" stroke-width="2" stroke-linejoin="round" filter="url(#fuzzy)" /><polyline points="64.09,-43.98 64.67,-42.67 65.11,-41.76 65.54,-40.89 66.02,-39.92 66.48,-38.94 66.82,-38.15 66.96,-37.66 66.88,-37.55 66.56,-37.8 66.02,-38.41 65.24,-39.37 64.22,-40.67 62.95,-42.34 61.43,-44.4 59.66,-46.9 57.63,-49.84 55.31,-53.28 52.52,-57.38" fill="none" stroke="rgb(134, 61, 19)" stroke-width="2" stroke-linejoin="round" filter="url(#fuzzy)" /><polyline points="-30.63,-74.75 -29.58,-75.17 -28.27,-75.6 -26.64,-76.07 -24.76,-76.54 -22.7,-77.01 -20.54,-77.47 -18.36,-77.9 -16.18,-78.29 -14.05,-78.66 -11.96,-79.01 -9.9,-79.34 -7.9,-79.67 -5.96,-79.99 -4.13,-80.29 -2.42,-80.56 -0.86,-80.8 0.51,-81 1.62,-81.18 2.31,-81.35 2.51,-81.5" fill="none" stroke="rgb(134, 61, 19)" stroke-width="2" stroke-linejoin="round" filter="url(#fuzzy)" /><polyline points="2.58,-81.6 3.76,-81.46 5.47,-81.15 7.26,-80.72 9.07,-80.18 10.96,-79.53 12.99,-78.8 15.18,-78 17.52,-77.13 19.98,-76.2 22.51,-75.21 25.08,-74.2 27.61,-73.19 30.04,-72.22 32.31,-71.33 34.41,-70.52 36.36,-69.76 38.21,-69 40.01,-68.19 41.65,-67.42 42.81,-66.97" fill="none" stroke="rgb(134, 61, 19)" stroke-width="2" stroke-linejoin="round" filter="url(#fuzzy)" /><polyline points="-15.16,-80.08 -14.03,-80.27 -12.98,-80.43 -12.06,-80.53 -11.31,-80.56 -10.8,-80.5 -10.6,-80.32 -10.79,-80.01 -11.46,-79.53 -12.65,-78.89 -14.38,-78.07 -16.65,-77.08 -19.47,-75.92 -22.82,-74.61 -26.7,-73.15 -31.15,-71.54 -36.39,-69.65" fill="none" stroke="rgb(134, 61, 19)" stroke-width="2" stroke-linejoin="round" filter="url(#fuzzy)" /><polyline points="35.73,-72.15 36.41,-71.64 37.01,-71.09 38.05,-70.28 39.49,-69.21 41.1,-68 42.7,-66.78 44.19,-65.58 45.58,-64.42 46.9,-63.29 48.14,-62.22 49.3,-61.21 50.36,-60.29 51.29,-59.49 52.08,-58.82 52.7,-58.32 53.09,-58.03 53.21,-58.01 52.99,-58.32 52.37,-58.98" fill="none" stroke="rgb(134, 61, 19)" stroke-width="2" stroke-linejoin="round" filter="url(#fuzzy)" /><polyline points="51.37,-59.84 52.07,-58.98 51.96,-58.11 51.01,-57.34 49.27,-56.68 46.71,-56.15 43.22,-55.79 38.73,-55.66 33.19,-55.77 26.6,-56.07 18.97,-56.49 10.29,-57.03 0.53,-57.68 -10.39,-58.46 -22.51,-59.27 -35.87,-60.02" fill="none" stroke="rgb(134, 61, 19)" stroke-width="2" stroke-linejoin="round" filter="url(#fuzzy)" /><polyline points="-19.4,-78.99 -18.86,-78.96 -17.59,-78.99 -15.56,-79.13 -13.13,-79.27 -10.5,-79.38 -7.71,-79.41 -4.75,-79.39 -1.64,-79.34 1.57,-79.26 4.77,-79.19 7.91,-79.1 10.92,-79.01 13.74,-78.9 16.26,-78.8 18.54,-78.65" fill="none" stroke="rgb(134, 61, 19)" stroke-width="2" stroke-linejoin="round" filter="url(#fuzzy)" /><polyline points="68.49,-35.17 32.29,-62.3 9.11,-71.33 1.4,-71.55 4.67,-68.84 11.45,-66.23 16.18,-64.66 16.83,-64.3 14.07,-65.06 9.77,-66.59 5.76,-68.24 3.07,-69.23 1.87,-69.06 1.71,-67.77 1.74,-65.96 1.02,-64.48 -1.12,-64.07 -4.36,-64.83 -6.88,-66.06 -5.83,-66.54 0.41,-65.04 8.96,-61.22 11.55,-57.12 4.76,-59.24 30.68,-74.7" fill="none" stroke="rgb(134, 61, 19)" stroke-width="2" stroke-linejoin="round" filter="url(#fuzzy)" /><polyline points="70.92,-29.33 36.92,-51.79 26.86,-54.49 22.45,-55.54 20.25,-56.52 18.78,-57.21 18.31,-57.3 18.73,-56.68 18.9,-55.67 18.14,-54.89 17.03,-54.79 16.19,-55.45 14.53,-56.91 9.53,-59.3 0.05,-62.46 -10.65,-65.28 -15.22,-66.11 -7.26,-64.78 7.93,-65.27 -12.63,-80.65" fill="none" stroke="rgb(134, 61, 19)" stroke-width="2" stroke-linejoin="round" filter="url(#fuzzy)" /><polyline points="22.7,-78.07 38.71,-65.23 30.6,-64.3 15.92,-67.98 4.64,-71.17 -2.74,-72.28 -7.63,-71.42 -9.58,-69.18 -7.17,-66.06 -0.22,-62.53 9.5,-59.15 19.21,-56.55 26.51,-55.29 30,-55.63 29.15,-57.59 24.57,-60.92 18.52,-65.18 14.48,-69.59 13.74,-72.99 10.19,-74.71 -18.95,-79.02" fill="none" stroke="rgb(134, 61, 19)" stroke-width="2" stroke-linejoin="round" filter="url(#fuzzy)" /><polyline points="-29.48,-75.32 -22.34,-70.73 -11.94,-71.84 -13.13,-72.5 -18.08,-71.48 -18.65,-69.5 -12.17,-67.34 -1.42,-65.71 8.49,-65.4 13.67,-66.94 13.49,-70.09 10.04,-73.77 6.04,-76.57 3.07,-77.3 0.85,-75.23 -1.85,-70.31 -0.57,-64.63 42.88,-67.2" fill="none" stroke="rgb(134, 61, 19)" stroke-width="2" stroke-linejoin="round" filter="url(#fuzzy)" /><polyline points="29.34,-75.47 24.24,-74.96 9.94,-74.88 -2.13,-73.61 -9.96,-71.98 -14.18,-70.85 -16.22,-70.48 -17.49,-70.76 -18.78,-71.37 -20.23,-71.88 -21.69,-71.91 -22.82,-71.12 -23.02,-69.37 -21.48,-66.71 -17.57,-63.43 -11.55,-60.16 -4.79,-57.91 0.65,-57.75 3.17,-60.18 3.39,-64.41 6.33,-68.37 19.66,-70.67 30.68,-74.7" fill="none" stroke="rgb(134, 61, 19)" stroke-width="2" stroke-linejoin="round" filter="url(#fuzzy)" /><polyline points="51.37,-59.84 26.36,-68.87 3.99,-72.82 -5.05,-73.36 -6.95,-72.28 -9.53,-70.83 -15.24,-69.67 -21.85,-68.97 -26,-68.74 -25.87,-68.9 -21.65,-69.35 -14.64,-70.01 -5.99,-70.86 3.68,-71.84 13.73,-72.46 23.13,-71.86 31.4,-69.38 38.83,-66.32 35.73,-72.15" fill="none" stroke="rgb(134, 61, 19)" stroke-width="2" stroke-linejoin="round" filter="url(#fuzzy)" /><polyline points="8.88,-80.95 27.3,-72.37 35.68,-64.05 33.16,-61.25 28.12,-61.83 25.55,-63.41 24.63,-65.6 22.63,-68.62 18.32,-72.1 12.66,-75.1 7.79,-76.64 5.78,-76.14 7.93,-73.5 14.32,-69.1 23.56,-63.82 32.73,-58.98 38.13,-56.1 37.3,-55.82 36.16,-53.26 71.73,-25.8" fill="none" stroke="rgb(134, 61, 19)" stroke-width="2" stroke-linejoin="round" filter="url(#fuzzy)" /><polyline points="36.83,-71.48 27.47,-72.57 20.7,-71.31 17.42,-68.02 12.15,-64.73 3.31,-62.98 -6.18,-63.18 -11.5,-64.7 -9.6,-66.47 -1.28,-67.45 9.4,-67.06 17.45,-65.4 19.47,-63.33 15.14,-62 7.75,-61.88 3.36,-61.73 1.62,-60.6 -40.94,-68.64" fill="none" stroke="rgb(134, 61, 19)" stroke-width="2" stroke-linejoin="round" filter="url(#fuzzy)" /><polyline points="-26.46,-76.51 24.64,-56.59 23.39,-55.25 11.37,-59.38 6.39,-62.33 7.82,-63.16 10.9,-62.99 13.7,-62.37 16.58,-60.96 19.65,-58.55 21.99,-55.93 22.63,-54.43 21.25,-54.84 17.85,-56.4 12.87,-57.08 7.93,-55.58 9,-54.21 54.81,-56.11" fill="none" stroke="rgb(134, 61, 19)" stroke-width="2" stroke-linejoin="round" filter="url(#fuzzy)" /><polyline points="-0.48,-81.46 -0.12,-81.08 -2.66,-78.59 -6.75,-74.38 -8.5,-69.92 -7.32,-66.33 -5.41,-64.36 -5,-64.2 -6.44,-65.28 -8.16,-66.59 -7.99,-67.3 -4.7,-67.17 1.08,-66.59 7.27,-66.16 11.63,-66.33 13.29,-67.03 13.33,-67.67 13.82,-67.57 15.96,-66.5 18.6,-65.06 18.95,-64.48 15.39,-65.83 10.93,-69.35 13.87,-74.23 24.34,-77.25" fill="none" stroke="rgb(134, 61, 19)" stroke-width="2" stroke-linejoin="round" filter="url(#fuzzy)" /><polyline points="-31.45,-74.34 -7.45,-77.24 1.23,-74.81 8.49,-71.67 14.94,-70.43 17.8,-71.07 16.98,-72.25 14.72,-72.74 13.44,-72.22 14.16,-71.08 16.36,-69.89 18.66,-68.91 19.79,-68.13 19.36,-67.5 18.18,-67.12 17.92,-67.08 20.21,-67.22 25.5,-67.04 32.6,-65.93 39.53,-63.63 45.02,-60.5 48.51,-58.05 46.53,-60.53 29.02,-75.34" fill="none" stroke="rgb(134, 61, 19)" stroke-width="2" stroke-linejoin="round" filter="url(#fuzzy)" /><polyline points="57.47,-53.41 16.62,-64.32 -3.12,-63.73 0.34,-61.27 9.35,-59.44 11.47,-58.78 4.96,-59.2 -5.15,-60.48 -12.73,-62.27 -14.35,-64.13 -10.26,-65.63 -3.22,-66.54 3.53,-66.85 8.29,-66.65 11.47,-65.95 14.44,-64.59 17.42,-62.51 18.24,-60.13 13.56,-58.56 1.77,-58.9 -15.68,-60.43 -37.36,-59.41 -55.96,-55.1" fill="none" stroke="rgb(134, 61, 19)" stroke-width="2" stroke-linejoin="round" filter="url(#fuzzy)" /><polyline points="72.06,-25.92 9.07,-56.6 -2.26,-70.1 0.42,-74.32 3.52,-73.66 3.7,-71.32 2.01,-69.34 0.88,-68.41 1.96,-68.18 4.97,-68.16 8.13,-68.18 9.63,-68.4 8.74,-68.91 6.19,-69.58 3.59,-70.2 2.57,-70.74 4.14,-71.38 8.35,-72.29 14.37,-73.21 20.92,-73.46 26.89,-72.08 31.37,-68.42 31.12,-62.7 13.53,-57.2 -54.8,-56.58" fill="none" stroke="rgb(134, 61, 19)" stroke-width="2" stroke-linejoin="round" filter="url(#fuzzy)" /><polyline points="61.79,-47.04 40.97,-54.1 19.89,-63.62 10.87,-68.14 8.5,-68.9 10.4,-68.28 16.47,-67.01 25.84,-64.58 36.15,-61.01 44.39,-57.74 48.27,-56.82 47.38,-59.05 42.79,-62.89 33.86,-65.7 12.43,-66.52 -44.15,-66.3" fill="none" stroke="rgb(134, 61, 19)" stroke-width="2" stroke-linejoin="round" filter="url(#fuzzy)" /><polyline points="-46.72,-64.24 -4.49,-66.03 24.54,-60.3 31.55,-58.18 24.11,-59.75 12.79,-62.84 4.2,-65.63 -0.02,-67.16 -1.12,-67.33 -0.82,-66.6 0.11,-65.64 2.04,-64.77 5.66,-63.8 10.61,-62.26 14.75,-60.03 15.2,-57.84 10.69,-57.17 2.62,-59.53 -6.78,-65.27 -17.21,-71.65 -39.78,-69.45" fill="none" stroke="rgb(134, 61, 19)" stroke-width="2" stroke-linejoin="round" filter="url(#fuzzy)" /><polyline points="24.6,-76.98 30.13,-73.11 23.96,-72.03 14.27,-71.37 6.85,-70.89 4.15,-71.17 5.8,-72.28 9.95,-73.61 14.88,-74.34 19.58,-73.81 23.45,-71.76 26,-68.42 26.79,-64.51 25.7,-61.15 22.89,-59.5 18.56,-60.21 13.08,-62.83 7.9,-65.61 6.11,-66.18 10.41,-63.28 16.34,-58.94 4.01,-57.9 -56.94,-53.87" fill="none" stroke="rgb(134, 61, 19)" stroke-width="2" stroke-linejoin="round" filter="url(#fuzzy)" /><polyline points="57.72,-52.59 25.83,-70.38 5.6,-76.26 -7.57,-76.62 -12.28,-74.47 -7.75,-70.97 3.41,-66.79 16.3,-62.93 26.31,-60.51 31.17,-60.12 31.33,-61.43 28.93,-63.54 26.1,-65.56 23.91,-67.08 22.19,-68.22 20.28,-69.27 18.01,-70.27 15.95,-70.94 14.61,-70.91 13.31,-70.16 10.28,-69.27 5.1,-68.93 2.09,-68.48 11.6,-64.09 60.98,-48.27" fill="none" stroke="rgb(134, 61, 19)" stroke-width="2" stroke-linejoin="round" filter="url(#fuzzy)" /><polyline points="64.86,-42.42 58.15,-51.09 54.77,-52.86 50.52,-52.74 43.66,-54.44 35.2,-57.71 26.18,-60.99 17.62,-63.37 10.98,-64.92 7.39,-66.25 6.62,-67.86 7.2,-69.63 7.96,-70.72 9.32,-70.03 12.91,-67.19 18.48,-63.55 19.39,-62.81 3.4,-69.46 -24.94,-77.07" fill="none" stroke="rgb(134, 61, 19)" stroke-width="2" stroke-linejoin="round" filter="url(#fuzzy)" /><polyline points="-10.19,-80.92 -4.86,-70.98 9.33,-64.23 11.92,-61.64 11.42,-61.62 13.17,-62.76 16.53,-64.32 19.9,-65.76 23.04,-66.53 26.33,-66.33 29.36,-65.49 30.87,-64.83 29.8,-65.02 26.41,-66.07 22.43,-67.21 20.03,-67.45 20.22,-66.26 21.8,-64.07 22.13,-61.99 19.62,-61.08 16.62,-61.39 19.4,-61.69 32.39,-60.23 49.57,-56.4 61.78,-47.5" fill="none" stroke="rgb(134, 61, 19)" stroke-width="2" stroke-linejoin="round" filter="url(#fuzzy)" /><polyline points="-32.61,-73.56 23.43,-56.71 36.96,-58.58 40.1,-60.18 38.16,-60.61 32.09,-60.98 23.87,-61.35 15.53,-61.4 8.14,-61.06 2.37,-60.49 -0.78,-59.88 -0.33,-59.39 3.43,-59.25 8.26,-59.81 10.85,-61.35 8.79,-63.77 2.37,-66.51 -5.24,-68.97 -9.97,-71 -9.5,-72.99 -4.33,-75.25 3.69,-77.33 11.84,-78.69 6.63,-81.43" fill="none" stroke="rgb(134, 61, 19)" stroke-width="2" stroke-linejoin="round" filter="url(#fuzzy)" /><polyline points="45.97,-65.17 29.94,-62.55 10.78,-64.44 -0.92,-66.61 -6.7,-67.73 -7.44,-67.99 -5.31,-68.17 -3.08,-68.82 -2.32,-69.93 -2.77,-70.94 -3.06,-71.04 -1.88,-69.63 1.02,-66.66 4.57,-62.81 7.09,-59.26 7.5,-57.21 6.11,-57.23 4.13,-58.94 2.11,-61.32 -0.83,-63.52 -5.18,-65.52 -7.57,-68.01 -0.61,-70.93 19.96,-70.76 53.66,-57.78" fill="none" stroke="rgb(134, 61, 19)" stroke-width="2" stroke-linejoin="round" filter="url(#fuzzy)" /><polyline points="-22.07,-78.18 -10.41,-75.5 -5.29,-71.64 -4.05,-69.07 -0.09,-66.67 6.45,-64.11 12.81,-61.98 17.14,-60.79 19.49,-60.58 21.06,-60.9 23.13,-61.12 26.38,-60.66 30.55,-59.31 34.35,-57.51 35.88,-56.24 33.54,-56.45 27.18,-58.47 18.63,-61.55 10.83,-64.27 5.81,-65.65 3.2,-66.35 1.2,-68.57 -0.07,-73.8 0.72,-79.66 -3.28,-81.55" fill="none" stroke="rgb(134, 61, 19)" stroke-width="2" stroke-linejoin="round" filter="url(#fuzzy)" /><polyline points="-31.45,-74.34 13.77,-64.43 14.43,-64.34 14.78,-62.85 23.68,-58.88 34.61,-54.79 40.54,-53.19 39.16,-54.87 32.39,-58.7 23.82,-62.78 16.57,-65.64 12.48,-66.66 12.84,-65.58 19.18,-62.27 31.89,-57.38 46.74,-53.27 55.31,-52.69 60.67,-49.1" fill="none" stroke="rgb(134, 61, 19)" stroke-width="2" stroke-linejoin="round" filter="url(#fuzzy)" /><polyline points="68.69,-34.62 22.36,-57.68 -2,-65.86 -10.26,-71.07 -15.12,-73.81 -21.17,-73.94 -27.63,-72.12 -32.1,-69.25 -31.92,-66.11 -24.49,-63.21 -8.36,-60.56 14.64,-57.63 38.28,-53.93 54.61,-50.24 60.48,-48.37 62.67,-45.96" fill="none" stroke="rgb(134, 61, 19)" stroke-width="2" stroke-linejoin="round" filter="url(#fuzzy)" /><polyline points="-7.16,-81.43 30.49,-65.03 35.11,-66.9 32.31,-70.72 30.74,-72.28 32.08,-71.58 34.9,-69.93 37,-68.53 36.55,-67.84 32.37,-67.68 23.91,-67.64 11.69,-67.51 -2.03,-67.29 -13.23,-66.95 -17.74,-66.16 -14,-64.15 -4.33,-59.7 11.54,-50.55 70.34,-30.32" fill="none" stroke="rgb(134, 61, 19)" stroke-width="2" stroke-linejoin="round" filter="url(#fuzzy)" /><polyline points="68.64,-34.46 29.46,-62.91 18.46,-71.02 15.02,-72.34 9.7,-71.4 3.83,-69.35 0.59,-66.94 0.29,-65.09 1,-64.43 1.34,-64.97 1.78,-66.15 3.73,-67.24 7.79,-67.85 12.75,-68.09 16.2,-68.44 16.07,-69.25 12.19,-70.49 6.61,-71.71 2.77,-72.43 3.63,-72.15 9.81,-69.91 19.06,-64.68 24.8,-60.14 -3.28,-81.55" fill="none" stroke="rgb(134, 61, 19)" stroke-width="2" stroke-linejoin="round" filter="url(#fuzzy)" /><polyline points="57.21,-53.7 12.4,-60.29 11.99,-66.51 14.09,-71.34 14.73,-73.18 15.54,-72.16 16.07,-69.58 14.79,-66.94 11.31,-65.21 6.46,-64.81 1.18,-65.8 -4.31,-67.81 -9.98,-69.99 -15.18,-71.23 -18.5,-70.77 -19.69,-68.37 -23.33,-63.73 -39.23,-56.53 -59.25,-50.98" fill="none" stroke="rgb(134, 61, 19)" stroke-width="2" stroke-linejoin="round" filter="url(#fuzzy)" /><polyline points="13.93,-80.05 -6.81,-76.42 -19.9,-73.03 -21.25,-70.94 -15.94,-68.47 -9.72,-66.26 -6.65,-65.51 -7.51,-66.41 -10.37,-68.19 -12.6,-69.92 -12.62,-71.08 -10.4,-71.73 -6.81,-72.2 -2.69,-72.75 1.59,-73.27 6.07,-73.29 10.92,-72.19 16.14,-69.66 20.91,-66.18 22.35,-63.29 15.27,-62.83 -4.16,-64.87 -29.08,-66.94 -31.45,-74.34" fill="none" stroke="rgb(134, 61, 19)" stroke-width="2" stroke-linejoin="round" filter="url(#fuzzy)" /><polyline points="21.34,-78.24 18.98,-78.82 15.36,-79.39 10.73,-79.69 6.48,-79.31 3.43,-78.14 2,-76.19 2.26,-73.59 3.63,-70.64 5,-67.75 5.65,-65.23 6.26,-63 9.09,-60.61 16.59,-57.82 28.68,-55.32 41.11,-54.61 47.6,-56.53 44.64,-61.05 24.34,-77.25" fill="none" stroke="rgb(134, 61, 19)" stroke-width="2" stroke-linejoin="round" filter="url(#fuzzy)" /><polyline points="51.37,-59.84 16.15,-72.65 5.3,-75.58 4.7,-75.17 7.51,-73.85 9.97,-72.37 10.15,-71.09 8.13,-70.33 5.05,-70.35 2,-71.18 -0.45,-72.57 -2.25,-73.99 -3.77,-74.98 -5.59,-75.31 -8.06,-75.08 -10.66,-74.55 -11.77,-73.86 -9.61,-72.76 -3.75,-70.72 3.77,-67.47 8.79,-63.37 3.76,-59.98 -45.29,-65.37" fill="none" stroke="rgb(134, 61, 19)" stroke-width="2" stroke-linejoin="round" filter="url(#fuzzy)" /><polyline points="33.81,-73.02 6.22,-69.8 6.7,-69.36 0,-69.28 -11.71,-68.96 -21,-68.92 -24.67,-69.33 -23.67,-69.9 -20.64,-70.44 -17.93,-71.04 -16.64,-71.87 -16.68,-72.94 -17.36,-73.94 -17.97,-74.48 -18.03,-74.32 -17.11,-73.3 -14.52,-71.22 -8.84,-67.68 3.41,-62.76 28.47,-58.15 57.21,-53.7" fill="none" stroke="rgb(134, 61, 19)" stroke-width="2" stroke-linejoin="round" filter="url(#fuzzy)" /><polyline points="1.16,-81.41 44.81,-47.86 50.55,-42.21 35.93,-46.53 17.67,-50.94 8.02,-52.49 10.55,-51.68 21.81,-49.53 35.92,-46.64 48.16,-43.44 55.98,-40.71 58.36,-39.61 54.93,-41.25 45.82,-45.99 32.2,-53.11 16.91,-60.95 4.29,-67.62 -1.37,-71.91 1.18,-73.6 6.69,-72.54 -0.15,-67.56 -52.14,-59.04" fill="none" stroke="rgb(134, 61, 19)" stroke-width="2" stroke-linejoin="round" filter="url(#fuzzy)" /><polyline points="8.16,-81.3 12.02,-74.15 15.31,-66.44 17.62,-63.7 21.22,-64.43 24.03,-66.23 24.51,-67.66 23.42,-68.34 22.68,-68.35 23.34,-67.84 24.38,-66.93 23.36,-65.73 18.03,-64.45 7.43,-64.05 -7.81,-66.43 -23.37,-71.65 -37.33,-70.99" fill="none" stroke="rgb(134, 61, 19)" stroke-width="2" stroke-linejoin="round" filter="url(#fuzzy)" /><polyline points="75.17,-11.15 75.2,-10.85 75.37,-10.19 75.56,-9.3 75.75,-8.16 75.96,-6.86 76.16,-5.52 76.35,-4.21 76.55,-2.93 76.76,-1.61 77.01,-0.27 77.25,1.07 77.46,2.29 77.62,3.36 77.78,4.47 77.87,6.43" fill="none" stroke="rgb(134, 61, 19)" stroke-width="2" stroke-linejoin="round" filter="url(#fuzzy)" /><polyline points="-0.48,-81.46 0.96,-81.44 2.25,-81.35 3.52,-81.13 4.76,-80.81 5.9,-80.47 6.93,-80.15 7.89,-79.91 8.84,-79.72 9.82,-79.57 10.86,-79.41 11.96,-79.2 13.13,-78.91 14.34,-78.53 15.55,-78.07 16.72,-77.55 17.82,-77.01 18.82,-76.5 19.77,-76.08 20.68,-75.78 21.92,-75.38 -29.57,-66.72 -28.26,-67.81 -27.36,-68.78 -26.5,-69.57 -25.61,-70.39 -24.71,-71.35 -23.79,-72.38 -22.86,-73.37 -21.91,-74.2 -20.95,-74.81 -19.97,-75.23 -19,-75.6 -18.02,-76.03 -17.05,-76.6 -16.08,-77.28 -15.1,-77.99 -14.11,-78.67 -13.1,-79.26 -12.03,-79.76 -10.86,-80.19 -9.6,-80.53 -8.24,-80.83 -6.82,-81.2 -5.25,-81.58 18.09,-78.3 15.51,-79.02 14.07,-79.47 12.83,-79.82 11.68,-80.1 10.61,-80.32 9.6,-80.52 8.63,-80.71 7.65,-80.87 6.63,-81.01 5.54,-81.12 4.38,-81.2 3.19,-81.24 2,-81.25 0.84,-81.25 -0.27,-81.25 -1.34,-81.26 -2.4,-81.3 -3.47,-81.36 -4.58,-81.41 -5.74,-81.42 -6.98,-81.36 -8.14,-81.19" fill="none" stroke="rgb(134, 61, 19)" stroke-width="2" stroke-linejoin="round" filter="url(#fuzzy)" /><polyline points="13.45,-96 12.33,-95.03 11.02,-94.54 9.85,-94 8.73,-93.46 7.56,-92.95 6.27,-92.35 4.89,-91.53 3.49,-90.49 2.14,-89.29 0.87,-88 -0.31,-86.67 -1.43,-85.43 -2.52,-84.46 -3.61,-83.9 -4.72,-83.65 -5.87,-83.26 -7.05,-82.24 -8.14,-81.19 -8.14,-81.19 -6.97,-81.11 -5.72,-80.81 -4.55,-80.4 -3.45,-79.83 -2.39,-79.19 -1.35,-78.69 -0.3,-78.49 0.78,-78.58 1.91,-78.82 3.06,-79.04 4.22,-79.09 5.34,-78.88 6.36,-78.39 7.27,-77.69 8.12,-76.89 8.95,-76.12 9.82,-75.46 10.77,-74.88 11.95,-74.21 14.05,-73.71" fill="none" stroke="rgb(134, 61, 19)" stroke-width="2" stroke-linejoin="round" filter="url(#fuzzy)" /><polyline points="-26.95,-77.93 -26.75,-77.75 -25.55,-77.99 -24.22,-78.32 -23.02,-78.62 -21.93,-78.88 -20.91,-79.13 -19.91,-79.36 -18.9,-79.59 -17.84,-79.81 -16.72,-80.03 -15.6,-80.23 -14.53,-80.41 -13.5,-80.58 -12.43,-80.73 -11.29,-80.83 -10.19,-80.92" fill="none" stroke="rgb(134, 61, 19)" stroke-width="2" stroke-linejoin="round" filter="url(#fuzzy)" /><polyline points="-10.19,-80.92 -11.38,-81.34 -12.62,-81.72 -13.78,-82 -14.87,-82.04 -15.97,-81.85 -17.08,-81.5 -18.19,-81.15 -19.29,-80.92 -20.39,-80.87 -21.53,-80.97 -22.73,-81.15 -24,-81.27 -25.33,-81.27 -26.69,-81.1 -28.01,-80.77 -29.28,-80.41 -30.55,-80.23 -31.46,-80.4" fill="none" stroke="rgb(134, 61, 19)" stroke-width="2" stroke-linejoin="round" filter="url(#fuzzy)" /><polyline points="-19.35,-78.8 -17.67,-79.98 -16.5,-82.54 -15.7,-85.09 -14.89,-87.05 -13.9,-88.45 -12.72,-89.4 -11.4,-89.96 -9.98,-90.23 -8.52,-90.37 -7.09,-90.54 -5.72,-90.89 -4.42,-91.44 -3.18,-92.09 -1.98,-92.67 -0.77,-93.1 0.48,-93.53 1.82,-94.28 3.28,-95.64 4.89,-97.57 6.65,-99.73 8.51,-101.84 10.39,-103.58 -18.95,-79.02 -19.82,-78.24 -20.88,-77.28 -21.88,-76.53 -22.92,-75.86 -24.01,-75.19 -25.1,-74.52 -26.15,-73.85 -27.12,-73.17 -28,-72.46 -28.78,-71.73 -29.48,-70.97 -30.13,-70.17 -30.79,-69.31 -31.51,-68.36 -32.3,-67.29 -33.07,-66.07 -33.75,-64.71 -34.34,-63.23 -34.91,-61.82 -35.01,-61.11 3.94,-102.2 2.88,-100.42 1.57,-99.3 0.27,-98.25 -0.96,-97.19 -2.15,-95.9 -3.33,-94.35 -4.55,-92.76 -5.82,-91.4 -7.14,-90.37 -8.5,-89.51 -9.82,-88.55 -11.07,-87.29 -12.21,-85.73 -13.25,-84.11 -14.23,-82.7 -15.26,-81.75 -16.48,-81.44 -17.96,-81.74 -19.3,-81.95 -18.95,-79.02 -22.46,-77.99 -20.47,-78.72 -19.4,-79.06 -18.47,-79.46 -17.43,-80.01 -16.35,-80.65 -15.28,-81.34 -14.23,-82.04 -13.15,-82.73 -12,-83.33 -10.77,-83.79 -9.46,-84.13 -8.13,-84.42 -6.8,-84.76 -5.52,-85.23 -4.3,-85.86 -3.14,-86.63 -2.02,-87.46 -0.91,-88.29 0.21,-89.01 1.38,-89.55 2.56,-89.84 3.46,-89.65 7.33,-106.09 4.94,-104.99 3.22,-103.65 1.71,-102.48 0.33,-101.43 -0.96,-100.28 -2.22,-98.9 -3.46,-97.32 -4.72,-95.65 -6.01,-94.03 -7.35,-92.59 -8.71,-91.31 -10.05,-90.09 -11.32,-88.8 -12.51,-87.42 -13.64,-86.11 -14.76,-85.07 -15.9,-84.39 -17.08,-83.96 -18.24,-83.57 -19.37,-83.17 -20.54,-83.13 -21.93,-83.9 -23.29,-84.46 -22.07,-78.18 -32.61,-73.56 -31.48,-72.02 -32.34,-71.95 -33.68,-71.7 -34.91,-71.02 -35.9,-70.06 -36.74,-69.02 -37.47,-68.05 -38.16,-67.21 -38.83,-66.5 -39.52,-65.89 -40.24,-65.3 -40.97,-64.65 -41.7,-63.88 -42.38,-62.96 -43,-61.88 -43.53,-60.66 -44,-59.29 -44.43,-57.81 -44.89,-56.31 -45.41,-54.95 -46.02,-53.85 -46.55,-52.71" fill="none" stroke="rgb(134, 61, 19)" stroke-width="2" stroke-linejoin="round" filter="url(#fuzzy)" /><polyline points="-32.61,-73.56 -30.11,-72.14 -28.89,-72.52 -27.74,-72.64 -26.48,-72.49 -25.17,-72.35 -23.88,-72.29 -22.62,-72.3 -21.42,-72.29 -20.28,-72.21 -19.17,-72.03 -18.09,-71.76 -17.01,-71.45 -15.93,-71.22 -14.87,-71.15 -13.85,-71.28 -12.89,-71.56 -11.94,-71.83 -10.94,-71.9 -9.82,-71.6 -8.56,-70.88 -7.23,-69.9 -6.11,-69.44" fill="none" stroke="rgb(134, 61, 19)" stroke-width="2" stroke-linejoin="round" filter="url(#fuzzy)" /><polyline points="-36.79,-71.46 -34.62,-72.29 -33.07,-72.81 -32.02,-73.03 -31.11,-72.99 -30.13,-72.79 -29.02,-72.5 -27.77,-72.04 -26.37,-71.3 -24.84,-70.27 -23.25,-69.14 -21.72,-68.2 -20.36,-67.62 -19.19,-67.36 -18.14,-67.15 -17.13,-66.66 -16.18,-65.79 -15.42,-64.95 -14.7,-65.15 -49.28,-41.36 -49.88,-43.31 -49.7,-44.4 -49.14,-45.38 -48.69,-46.57 -48.51,-47.98 -48.5,-49.52 -48.58,-51.11 -48.7,-52.7 -48.81,-54.25 -48.84,-55.72 -48.73,-57.09 -48.42,-58.35 -47.94,-59.53 -47.32,-60.7 -46.64,-61.85 -45.92,-62.96 -45.17,-64.02 -44.39,-65.02 -43.57,-65.97 -42.75,-66.86 -41.98,-67.65 -41.24,-68.29 -40.57,-68.71 -41.73,-68.07 -43.67,-66.52 -44.85,-65.39 -45.61,-64.4 -46.27,-63.34 -46.98,-62.21 -47.78,-61.13 -48.62,-60.17 -49.44,-59.36 -50.17,-58.62 -50.78,-57.87 -51.27,-57 -51.66,-55.98 -52,-54.82 -52.33,-53.6 -52.73,-52.45 -53.18,-51.47 -53.4,-50.52" fill="none" stroke="rgb(134, 61, 19)" stroke-width="2" stroke-linejoin="round" filter="url(#fuzzy)" /><polyline points="-46.23,-64.39 -44.58,-66.26 -43.33,-67.27 -42.45,-67.95 -41.75,-68.58 -41.14,-69.3 -40.6,-70.22 -40.06,-71.35 -39.48,-72.63 -38.8,-73.97 -38.01,-75.28 -37.14,-76.54 -36.28,-77.78 -35.49,-79.02 -34.79,-80.25 -34.12,-81.41 -33.41,-82.46 -32.58,-83.43 -31.66,-84.37 -30.66,-85.36 -29.55,-86.42 -28.19,-87.68 -26.46,-89.44" fill="none" stroke="rgb(134, 61, 19)" stroke-width="2" stroke-linejoin="round" filter="url(#fuzzy)" /><polyline points="-58.13,-48.78 -57.55,-49.94 -56.96,-50.82 -56.26,-51.85 -55.55,-52.97 -54.9,-54.09 -54.27,-55.15 -53.64,-56.14 -53,-57.04 -52.37,-57.86 -51.77,-58.63 -51.2,-59.39 -50.58,-60.18 -49.84,-61.03 -48.92,-61.92 -47.85,-62.9 -46.72,-64.24" fill="none" stroke="rgb(134, 61, 19)" stroke-width="2" stroke-linejoin="round" filter="url(#fuzzy)" /><polyline points="-41.9,-94.53 -40.58,-92.96 -40.94,-91.38 -42.08,-89.88 -43.32,-88.39 -44.2,-86.56 -44.69,-84.35 -44.92,-81.98 -44.99,-79.65 -44.94,-77.4 -44.82,-75.24 -44.78,-73.27 -45.02,-71.67 -45.72,-70.58 -46.93,-70.1 -48.52,-70.28 -49.62,-70.23 -46.72,-64.24" fill="none" stroke="rgb(134, 61, 19)" stroke-width="2" stroke-linejoin="round" filter="url(#fuzzy)" /><polyline points="-51.99,-59.47 -52.46,-60.33 -53.81,-63.25 -54.83,-66.33 -55.02,-68.77 -54.59,-70.63 -53.79,-72 -52.72,-72.88 -51.45,-73.4 -50.21,-73.96 -49.29,-75.04 -48.9,-76.86 -49.04,-79.33 -49.48,-82.19 -50.11,-85.34 -50.81,-88.7" fill="none" stroke="rgb(134, 61, 19)" stroke-width="2" stroke-linejoin="round" filter="url(#fuzzy)" /><polyline points="73.68,-19.68 72.84,-20.58 72.2,-21.4 71.02,-22.14 69.57,-22.85 68.32,-23.62 67.53,-24.53 67.14,-25.57 66.88,-26.64 66.48,-27.63 65.83,-28.47 64.99,-29.2 64.15,-29.88 63.45,-30.62 62.91,-31.48 62.39,-32.46 61.69,-33.48 60.67,-34.44 59.35,-35.26 57.99,-35.87 56.9,-36.39 56.22,-37.08 55.46,-38.06 73.68,-19.68 74.02,-17.17 74.24,-15.64 74.35,-14.53 74.36,-13.51 74.33,-12.46 74.27,-11.38 74.23,-10.29 74.22,-9.16 74.26,-7.98 74.3,-6.75 74.32,-5.47 74.28,-4.17 74.17,-2.87 74.02,-1.57 73.85,-0.29 73.69,0.96 73.55,2.14 73.4,3.23 73.22,4.24 72.99,5.19 72.71,6.1 72.42,7.06 72.13,8.23 71.73,9.41" fill="none" stroke="rgb(134, 61, 19)" stroke-width="2" stroke-linejoin="round" filter="url(#fuzzy)" /><polyline points="-42.57,-100.64 -44.02,-99.46 -45.28,-96.8 -46.22,-94.02 -46.94,-91.49 -47.49,-89.16 -47.94,-87.01 -48.34,-85.09 -48.68,-83.31 -48.92,-81.51 -49.01,-79.51 -48.99,-77.28 -48.98,-74.98 -49.15,-72.87 -49.62,-71.14 -50.4,-69.85 -51.42,-68.86 -52.51,-67.96 -53.47,-66.93 -54.08,-65.61 -54.2,-63.93 -53.93,-62.03 -53.71,-60.3 -54.11,-58.91 -54.8,-56.58 -56.36,-54.53 -55.81,-55.52 -55.26,-56.71 -54.75,-57.86 -54.21,-58.91 -53.62,-59.79 -52.94,-60.55 -52.2,-61.28 -51.43,-62.14 -50.69,-63.18 -49.97,-64.38 -49.25,-65.62 -48.5,-66.81 -47.69,-67.88 -46.86,-68.91 -46.09,-70 -45.43,-71.21 -44.91,-72.47 -44.46,-73.63 -44.04,-74.54 -43.82,-75.2 -44.18,-75.49" fill="none" stroke="rgb(134, 61, 19)" stroke-width="2" stroke-linejoin="round" filter="url(#fuzzy)" /><polyline points="-75.28,-28.82 -74.68,-29.9 -73.79,-31.39 -72.95,-32.77 -72.25,-34.03 -71.65,-35.17 -71.08,-36.18 -70.51,-37.08 -69.93,-37.91 -69.35,-38.76 -68.78,-39.71 -68.19,-40.77 -67.57,-41.91 -66.89,-43.05 -66.12,-44.11 -65.28,-45.04 -64.37,-45.88 -63.44,-46.69 -62.53,-47.54 -61.65,-48.47 -60.8,-49.46 -59.96,-50.42 -59.15,-51.29 -58.34,-52.18 -56.94,-53.87 -59.25,-50.98 -58,-53.39 -57.17,-54.87 -56.53,-56.12 -55.99,-57.33 -55.43,-58.44 -54.82,-59.42 -54.17,-60.29 -53.53,-61.17 -52.93,-62.15 -52.37,-63.31 -51.85,-64.67 -51.36,-66.2 -50.89,-67.82 -50.41,-69.44 -49.85,-70.96 -49.2,-72.32 -48.48,-73.56 -47.77,-74.77 -47.18,-76.04 -46.74,-77.35 -46.4,-78.63 -46.05,-79.81 -45.37,-80.93 -43.7,-83.12 -59.25,-50.98 -59.24,-51.11 -60.08,-50.58 -61.43,-50.03 -62.84,-49.46 -63.99,-48.74 -64.82,-47.86 -65.54,-46.96 -66.41,-46.17 -67.52,-45.45 -68.81,-44.69 -70.14,-43.78 -71.42,-42.73 -72.61,-41.69 -73.68,-40.76 -74.52,-39.81" fill="none" stroke="rgb(134, 61, 19)" stroke-width="2" stroke-linejoin="round" filter="url(#fuzzy)" /><polyline points="-60.44,-48.91 -60.35,-50.64 -60.12,-52.05 -59.54,-53.17 -58.94,-54.39 -58.52,-55.87 -58.35,-57.58 -58.35,-59.41 -58.35,-61.19 -58.18,-62.72 -57.76,-63.93 -57.11,-64.86 -56.33,-65.66 -55.49,-66.52 -54.66,-67.57 -53.88,-68.85 -53.17,-70.3 -52.52,-71.8 -51.88,-73.2 -51.19,-74.64 -50.36,-76.76 -49.09,-80.08" fill="none" stroke="rgb(134, 61, 19)" stroke-width="2" stroke-linejoin="round" filter="url(#fuzzy)" /><polyline points="73.12,-21.19 73.88,-19.37 74.71,-17.56 75.24,-16.1 75.52,-14.91 75.69,-13.83 75.83,-12.77 76,-11.71 76.18,-10.64 76.37,-9.52 76.59,-8.33 76.82,-7.08 77.07,-5.78 77.31,-4.45 77.49,-3.11 77.58,-1.76 77.6,-0.4 77.6,0.95 77.66,2.22 77.83,3.39 78.09,4.53 78.27,5.72 78.27,6.54" fill="none" stroke="rgb(134, 61, 19)" stroke-width="2" stroke-linejoin="round" filter="url(#fuzzy)" /><polyline points="-57.43,-74.59 -57.3,-72.23 -57.4,-70.05 -57.6,-68.32 -57.76,-66.85 -57.83,-65.38 -57.88,-63.83 -58.09,-62.34 -58.53,-61.02 -59.11,-59.8 -59.64,-58.5 -59.96,-56.97 -60.08,-55.25 -60.14,-53.52 -60.33,-51.96 -60.73,-50.62 -61.3,-49.41 -61.85,-48.21 -61.78,-46.82 -49.36,-59.09 -49.99,-58.68 -50.58,-58.19 -51.2,-57.67 -51.91,-57.06 -52.71,-56.37 -53.59,-55.65 -54.52,-54.92 -55.47,-54.14 -56.41,-53.3 -57.3,-52.4 -58.12,-51.45 -58.91,-50.48 -59.69,-49.5 -60.48,-48.48 -61.28,-47.43 -62.06,-46.42 -62.7,-45.68 -62.69,-45.96" fill="none" stroke="rgb(134, 61, 19)" stroke-width="2" stroke-linejoin="round" filter="url(#fuzzy)" /><polyline points="-66.49,-39.28 -68.92,-43.58 -69.95,-46.16 -69.76,-47.54 -69,-48.4 -68.18,-49.23 -67.54,-50.29 -67.07,-51.57 -66.61,-52.94 -66.05,-54.26 -65.44,-55.54 -64.95,-56.96 -64.76,-58.68 -64.77,-60.7 -64.7,-62.71 -64.21,-64.52 -63.21,-66.75" fill="none" stroke="rgb(134, 61, 19)" stroke-width="2" stroke-linejoin="round" filter="url(#fuzzy)" /><polyline points="-67.35,-37.33 -67.04,-38.59 -66.9,-40.24 -66.97,-42.16 -67.25,-44.11 -67.49,-45.88 -67.47,-47.36 -67.12,-48.57 -66.54,-49.68 -65.93,-50.85 -65.45,-52.19 -65.19,-53.78 -65.17,-55.62 -65.35,-57.67 -65.62,-59.87 -65.89,-62.13 -66.06,-64.34 -66.05,-66.4 -65.82,-68.22 -65.38,-69.79 -64.8,-71.15 -64.29,-72.36 -64.13,-73.67 -64.4,-75.83 -67.35,-37.33 -67.32,-36.6 -67.3,-35.93 -67.53,-35.02 -67.88,-33.94 -68.29,-32.77 -68.72,-31.54 -69.11,-30.3 -69.41,-29.05 -69.59,-27.82 -69.69,-26.59 -69.77,-25.37 -69.91,-24.14 -70.12,-22.9 -70.4,-21.65 -70.68,-20.38 -70.9,-19.07 -71.02,-17.69 -71.09,-16.25 -71.13,-14.84 -71.14,-13.54 -71.04,-12.44 -70.84,-11.84" fill="none" stroke="rgb(134, 61, 19)" stroke-width="2" stroke-linejoin="round" filter="url(#fuzzy)" /><polyline points="73.4,-20.86 73.64,-22.94 73.89,-24.43 74.09,-25.8 74.06,-27.01 73.79,-28.13 73.42,-29.25 73.12,-30.42 73.01,-31.64 73.16,-32.93 73.54,-34.27 74.08,-35.66 74.58,-37.08 74.76,-38.52 74.44,-40.04 73.69,-41.8 72.97,-44.09 72.51,-47.42" fill="none" stroke="rgb(134, 61, 19)" stroke-width="2" stroke-linejoin="round" filter="url(#fuzzy)" /><polyline points="-67.54,-37.34 -67.85,-37.16 -68.11,-38 -68.05,-39.18 -67.78,-40.58 -67.56,-42.17 -67.53,-43.86 -67.65,-45.55 -67.8,-47.12 -67.84,-48.55 -67.7,-49.89 -67.42,-51.26 -67.11,-52.77 -66.88,-54.53 -66.86,-56.69 -67.21,-59.6 -67.54,-37.34 -66.89,-36.64 -66.06,-36.88 -65.38,-37.72 -64.68,-38.8 -63.87,-39.91 -62.92,-40.87 -61.84,-41.62 -60.66,-42.19 -59.48,-42.69 -58.37,-43.25 -57.39,-43.93 -56.53,-44.74 -55.72,-45.59 -54.85,-46.37 -53.8,-46.96 -52.48,-47.31 -50.93,-47.5 -49.43,-47.78 -48.2,-48.37 -46.27,-48.86" fill="none" stroke="rgb(134, 61, 19)" stroke-width="2" stroke-linejoin="round" filter="url(#fuzzy)" /><polyline points="-67.54,-37.34 -67.22,-35.26 -66.8,-33.44 -66.73,-31.97 -66.69,-30.55 -66.47,-29.08 -66.15,-27.62 -65.87,-26.26 -65.75,-25.01 -65.84,-23.84 -66.14,-22.72 -66.56,-21.6 -66.96,-20.45 -67.21,-19.24 -67.22,-17.95 -67.02,-16.58 -66.66,-15.18 -66.19,-13.81 -65.59,-12.51 -64.9,-11.35 -64.25,-10.33 -63.69,-9.5 -63.06,-9.09" fill="none" stroke="rgb(134, 61, 19)" stroke-width="2" stroke-linejoin="round" filter="url(#fuzzy)" /><polyline points="-66.9,-59.32 -67.27,-57 -67.27,-54.81 -67.37,-52.93 -67.58,-51.32 -67.77,-49.86 -67.93,-48.47 -68.12,-47.12 -68.47,-45.8 -69.04,-44.52 -69.76,-43.28 -70.51,-42.1 -71.13,-40.99 -71.5,-39.96 -71.61,-38.98 -71.46,-37.92 -71.06,-36.57 -70.25,-34.77 -69.25,-32.98" fill="none" stroke="rgb(134, 61, 19)" stroke-width="2" stroke-linejoin="round" filter="url(#fuzzy)" /><polyline points="-59.43,-45.04 -60.62,-44.01 -61.39,-43.46 -62.18,-42.81 -62.97,-41.96 -63.77,-40.93 -64.56,-39.83 -65.33,-38.77 -66.04,-37.85 -66.66,-37.1 -67.2,-36.43 -67.67,-35.73 -68.11,-34.88 -68.59,-33.89 -69.1,-32.93 -69.71,-32.22" fill="none" stroke="rgb(134, 61, 19)" stroke-width="2" stroke-linejoin="round" filter="url(#fuzzy)" /><polyline points="-71.2,-27.81 -70.37,-29.94 -69.7,-31.46 -69.07,-32.65 -68.48,-33.69 -67.98,-34.67 -67.58,-35.58 -67.23,-36.45 -66.85,-37.32 -66.37,-38.24 -65.77,-39.24 -65.06,-40.29 -64.3,-41.34 -63.52,-42.35 -62.75,-43.28 -62,-44.14 -61.27,-44.99 -60.53,-45.89 -59.77,-46.88 -58.97,-47.97 -58.04,-49.14 -56.93,-50.49" fill="none" stroke="rgb(134, 61, 19)" stroke-width="2" stroke-linejoin="round" filter="url(#fuzzy)" /><polyline points="-71.2,-27.81 -70.48,-30 -70.05,-31.64 -69.97,-33.11 -70.18,-34.59 -70.5,-36.01 -70.7,-37.26 -70.66,-38.33 -70.34,-39.3 -69.89,-40.32 -69.46,-41.54 -69.21,-42.99 -69.22,-44.67 -69.48,-46.5 -69.91,-48.4 -70.36,-50.27 -70.66,-52.05 -70.64,-53.71 -70.31,-55.27 -69.86,-56.85 -69.51,-58.48 -69.48,-59.91 -70.4,-60.57" fill="none" stroke="rgb(134, 61, 19)" stroke-width="2" stroke-linejoin="round" filter="url(#fuzzy)" /><polyline points="72.47,-23.57 73.53,-24.49 73.45,-25.65 73.26,-26.78 73.43,-28.06 74.26,-29.7 75.95,-31.78 78.45,-34.21 81.33,-36.79 83.95,-39.24 85.72,-41.3 86.35,-42.92 85.98,-44.29 85.3,-45.95 85.36,-48.56 86.66,-52.44 86.61,-56.64 87.53,-2.44 86.49,-3.97 85.86,-5.31 85.35,-6.81 84.78,-8.29 83.97,-9.6 82.86,-10.7 81.58,-11.68 80.31,-12.63 79.15,-13.58 78.09,-14.57 77.11,-15.62 76.16,-16.78 75.31,-18.06 74.62,-19.42 74.14,-20.78 73.85,-22.07 73.72,-23.29 73.52,-24.53 72.06,-25.92 70.92,-29.33 71.49,-27.39 72.08,-26.54 72.88,-25.74 73.92,-24.86 75.28,-23.99 76.93,-23.13 78.76,-22.2 80.6,-21.14 82.29,-19.95 83.7,-18.69 84.74,-17.43 85.53,-16.22 86.4,-15.08 87.8,-14.03 89.84,-13.13 92.16,-12.41 94.17,-11.77 95.47,-10.93 47.69,-43.46 50.45,-42.64 51.93,-42.19 52.68,-41.7 53.24,-41.15 53.98,-40.57 55.02,-40.01 56.36,-39.5 57.87,-39.05 59.39,-38.6 60.75,-38.03 61.87,-37.24 62.75,-36.21 63.55,-35.08 64.43,-34.01 65.5,-33.18 66.75,-32.59 68.01,-32.12 69.08,-31.59 69.85,-30.93 70.39,-30.19 70.92,-29.33" fill="none" stroke="rgb(134, 61, 19)" stroke-width="2" stroke-linejoin="round" filter="url(#fuzzy)" /><polyline points="70.92,-29.33 77.09,-29.44 78.28,-28.81 77.69,-27.47 77.17,-25.98 77.33,-24.62 78.08,-23.4 79.1,-22.2 80.08,-20.92 80.89,-19.56 81.51,-18.18 82.01,-16.84 82.49,-15.58 82.98,-14.39 83.52,-13.24 84.16,-12.11 84.94,-10.96 85.94,-9.74 87.14,-8.42 88.48,-7 89.89,-5.56 91.46,-4.22 93.46,-3.03 96.02,-2.17" fill="none" stroke="rgb(134, 61, 19)" stroke-width="2" stroke-linejoin="round" filter="url(#fuzzy)" /><polyline points="57.63,-48.68 57.23,-49.25 57.96,-48.63 58.77,-47.88 59.45,-47.19 60.06,-46.49 60.69,-45.68 61.39,-44.74 62.16,-43.71 62.96,-42.66 63.75,-41.6 64.51,-40.51 65.26,-39.36 66.01,-38.14 66.78,-36.88 67.52,-35.67 68.19,-34.58 68.76,-33.63 69.24,-32.77 69.68,-31.91 70.07,-31.09 70.34,-30.32 64.83,-52.47 65.27,-51.37 65.07,-50.35 65.21,-49.23 65.64,-47.94 66.14,-46.51 66.56,-45.04 66.86,-43.59 67.11,-42.18 67.46,-40.77 68.01,-39.34 68.74,-37.92 69.56,-36.62 70.23,-35.51 70.49,-34.54 70.16,-33.33 70.16,-31.01 69.33,-33.09 69.44,-33.2 70.09,-32.42 70.81,-31.55 71.56,-30.63 72.45,-29.7 73.58,-28.82 75.01,-28.06 76.75,-27.4 78.71,-26.76 80.73,-26.09 82.74,-25.33 84.73,-24.46 86.77,-23.41 88.83,-22.08 90.68,-20.43 92.23,-18.66 94.17,-17.35 72.08,-81.05 72.35,-78.23 72.47,-75.72 72.37,-73.02 72.25,-70.31 72.04,-67.72 71.78,-65.38 71.68,-63.45 71.91,-62.01 72.39,-60.89 72.8,-59.79 72.8,-58.4 72.2,-56.54 71.12,-54.23 69.93,-51.71 69.12,-49.34 69.15,-47.5 70.23,-46.43 72.05,-45.98 73.61,-45.4 73.42,-43.48 70.88,-39.61 68.49,-35.17" fill="none" stroke="rgb(134, 61, 19)" stroke-width="2" stroke-linejoin="round" filter="url(#fuzzy)" /><polyline points="64.86,-42.42 65.88,-39.79 66.08,-37.54 65.61,-35.38 64.86,-33.49 64.08,-31.91 63.39,-30.56 62.84,-29.32 62.43,-28.14 62.1,-26.97 61.81,-25.76 61.55,-24.57 61.42,-23.44 61.39,-22.41 61.23,-21.34 60.68,-20.1 59.89,-18.67 59.29,-16.85 65.67,-40.65 64.84,-42.33 64.05,-43.96 63.35,-45.44 62.79,-46.69 62.34,-47.74 61.91,-48.64 61.44,-49.46 60.9,-50.24 60.3,-50.99 59.67,-51.75 58.99,-52.54 58.24,-53.41 57.44,-54.37 56.59,-55.42 55.74,-56.51 54.91,-57.61 54.13,-58.67 53.4,-59.66 52.69,-60.58 51.93,-61.46 50.99,-62.41 49.81,-63.55 48.4,-64.88" fill="none" stroke="rgb(134, 61, 19)" stroke-width="2" stroke-linejoin="round" filter="url(#fuzzy)" /><polyline points="79.64,-28.65 77.79,-28.87 76.86,-29.45 76.13,-30.45 75.54,-31.6 75.01,-32.68 74.42,-33.63 73.74,-34.45 72.99,-35.2 72.15,-35.96 71.11,-36.77 69.74,-37.67 68.14,-38.71 66.67,-39.89 65.75,-40.94 65.67,-40.65" fill="none" stroke="rgb(134, 61, 19)" stroke-width="2" stroke-linejoin="round" filter="url(#fuzzy)" /><polyline points="64.7,-42.45 64.8,-44.6 64.73,-46.6 64.3,-47.97 63.81,-48.93 63.42,-49.78 63.11,-50.7 62.89,-51.76 62.82,-52.96 62.91,-54.29 63.11,-55.72 63.23,-57.26 63.07,-58.93 62.57,-60.71 61.87,-62.41 61.71,-63.18 64.7,-42.45 66.13,-42.07 68.55,-42.4 70.99,-42.18 72.6,-41.2 73.24,-39.7 73.24,-38.05 73.06,-36.52 73.07,-35.22 73.4,-34.14 74.01,-33.19 74.73,-32.26 75.44,-31.27 76.13,-30.22 76.91,-29.18 77.92,-28.2 79.19,-27.3 80.59,-26.41 81.92,-25.48 83.05,-24.45 84.1,-23.28 85.42,-21.76 87.33,-19.23" fill="none" stroke="rgb(134, 61, 19)" stroke-width="2" stroke-linejoin="round" filter="url(#fuzzy)" /><polyline points="64.09,-43.98 63.9,-42.17 63.97,-40.94 64.43,-39.94 65,-38.75 65.43,-37.3 65.68,-35.77 65.81,-34.33 65.94,-33.07 66.11,-31.99 66.26,-30.98 66.34,-29.94 66.29,-28.82 66.15,-27.63 66,-26.4 65.88,-25.2 65.84,-24.06 65.85,-22.95 65.89,-21.8 65.89,-20.53 65.74,-18.68 62.67,-45.96 61.84,-42.94 62.97,-41.86 63.98,-41.1 64.54,-40.08 64.78,-38.7 64.85,-37.09 64.86,-35.45 64.85,-33.94 64.89,-32.63 64.99,-31.52 65.17,-30.54 65.42,-29.6 65.67,-28.63 65.8,-27.56 65.71,-26.35 65.31,-25.06 64.64,-23.76 63.98,-22.37 63.93,-20.52" fill="none" stroke="rgb(134, 61, 19)" stroke-width="2" stroke-linejoin="round" filter="url(#fuzzy)" /><polyline points="48.17,-54.89 48.26,-55.08 49.25,-55.02 50.42,-54.66 51.53,-54.06 52.55,-53.25 53.52,-52.32 54.48,-51.42 55.4,-50.65 56.23,-50 56.94,-49.4 57.61,-48.8 58.37,-48.21 59.29,-47.75 60.21,-47.48 60.91,-47.34 61.79,-47.04 49.64,-71.49 49.78,-70.36 49.81,-69.61 50.17,-68.84 50.82,-67.79 51.6,-66.49 52.37,-65.08 53.1,-63.74 53.83,-62.58 54.61,-61.6 55.48,-60.72 56.41,-59.83 57.33,-58.82 58.18,-57.6 58.95,-56.23 59.7,-54.89 60.42,-53.86 60.49,-53.26 57.72,-52.59 58.47,-29.47 59.29,-31.13 59.12,-32.84 58.86,-34.45 58.84,-35.97 59.05,-37.46 59.37,-39.02 59.71,-40.72 60,-42.49 60.18,-44.15 60.24,-45.57 60.23,-46.72 60.21,-47.75 60.07,-48.89 59.46,-50.35 57.72,-52.59" fill="none" stroke="rgb(134, 61, 19)" stroke-width="2" stroke-linejoin="round" filter="url(#fuzzy)" /><polyline points="43.95,-71.94 44.58,-71.11 45.06,-70.38 45.64,-69.5 46.28,-68.56 46.91,-67.69 47.52,-66.88 48.18,-66.07 48.94,-65.19 49.8,-64.23 50.71,-63.23 51.6,-62.22 52.43,-61.22 53.18,-60.2 53.86,-59.12 54.54,-57.99 55.25,-56.8 56.06,-55.58 56.93,-54.38 57.82,-53.23 58.55,-52.27 58.76,-51.79 57.72,-52.59" fill="none" stroke="rgb(134, 61, 19)" stroke-width="2" stroke-linejoin="round" filter="url(#fuzzy)" /><polyline points="50.03,-70.93 51.02,-68.73 52.02,-66.85 52.84,-65.17 53.49,-63.74 54.04,-62.51 54.55,-61.36 55.09,-60.19 55.68,-58.98 56.35,-57.71 57.08,-56.4 57.83,-55.05 58.52,-53.73 58.99,-52.57 58.91,-51.9 57.72,-52.59" fill="none" stroke="rgb(134, 61, 19)" stroke-width="2" stroke-linejoin="round" filter="url(#fuzzy)" /><polyline points="58.73,-51.49 59.01,-51.11 59.06,-50.6 59.22,-49.63 59.4,-48.5 59.56,-47.4 59.79,-46.38 60.19,-45.41 60.78,-44.43 61.48,-43.39 62.13,-42.28 62.65,-41.09 63.02,-39.83 63.33,-38.49 63.68,-37.05 64.11,-35.54 64.57,-34.08 64.9,-32.85 64.88,-32.08 64.32,-32.29" fill="none" stroke="rgb(134, 61, 19)" stroke-width="2" stroke-linejoin="round" filter="url(#fuzzy)" /><polyline points="49.34,-68.79 48.84,-68.25 48.98,-67.49 49.54,-66.28 50.29,-64.85 51.07,-63.41 51.79,-62.1 52.43,-60.96 53.07,-59.94 53.76,-58.99 54.56,-58.05 55.46,-57.09 56.43,-56.05 57.37,-54.84 58.04,-53.35 58.73,-51.49" fill="none" stroke="rgb(134, 61, 19)" stroke-width="2" stroke-linejoin="round" filter="url(#fuzzy)" /><polyline points="54.29,-56.81 54.22,-56.86 53.49,-57.51 52.51,-58.12 51.4,-58.53 50.16,-58.83 48.78,-59.05 47.28,-59.22 45.81,-59.36 44.48,-59.52 43.39,-59.77 42.53,-60.17 41.81,-60.68 41.11,-61.21 40.34,-61.67 39.47,-61.99 38.48,-62.21 37.32,-62.35 35.86,-62.39 34.06,-62.24 32.24,-61.88 31.28,-61.3 51.37,-59.84 51.48,-60.33 51.15,-61.99 50.52,-63.71 49.69,-65.05 48.87,-66.04 48.21,-66.89 47.71,-67.8 47.31,-68.87 46.95,-70.14 46.66,-71.61 46.49,-73.33 46.4,-75.33 46.25,-77.64 45.82,-80.12 44.97,-82.54 44.04,-84.73 43.66,-85.58" fill="none" stroke="rgb(134, 61, 19)" stroke-width="2" stroke-linejoin="round" filter="url(#fuzzy)" /><polyline points="47.49,-63.65 48.39,-61.78 49.21,-60.26 50.18,-59.4 51.1,-58.78 51.9,-58.04 52.59,-57.09 53.26,-55.99 53.96,-54.82 54.69,-53.65 55.39,-52.52 56.01,-51.44 56.53,-50.45 56.98,-49.54 57.41,-48.68 57.78,-47.8 58.02,-46.83 58.04,-45.81 57.84,-44.77 57.7,-43.69 58.08,-42.6" fill="none" stroke="rgb(134, 61, 19)" stroke-width="2" stroke-linejoin="round" filter="url(#fuzzy)" /><polyline points="47.49,-63.65 46.61,-64.53 46.26,-64.98 45.95,-65.61 45.48,-66.44 44.84,-67.28 44.09,-68 43.27,-68.62 42.38,-69.27 41.42,-70.1 40.44,-71.17 39.53,-72.4 38.82,-73.65 38.36,-74.77 37.97,-75.67 37.25,-76.46 35.9,-77.54 46.28,-64.53 46.04,-64.32 45.98,-63.24 46.43,-61.93 47.27,-60.72 48.19,-59.62 49,-58.57 49.61,-57.47 50.05,-56.26 50.43,-54.96 50.88,-53.68 51.5,-52.5 52.29,-51.45 53.12,-50.5 53.82,-49.54 54.2,-48.48 54.24,-47.26 54.04,-45.93 53.8,-44.57 53.63,-43.3 53.49,-42.25 53.37,-41.49 53.74,-40.92" fill="none" stroke="rgb(134, 61, 19)" stroke-width="2" stroke-linejoin="round" filter="url(#fuzzy)" /><polyline points="42.96,-67.32 44.07,-69.42 45.05,-72.18 44.72,-73.71 43.58,-74.56 42.43,-75.62 41.64,-77.19 41.13,-78.95 40.6,-80.47 39.83,-81.56 38.83,-82.43 37.79,-83.48 36.92,-85.05 36.3,-87.27 35.91,-89.98 35.55,-92.85 35.05,-95.5 34.28,-97.65 33.26,-99.24 32.11,-100.39 30.92,-101.39 29.72,-102.58 28.77,-104.44 29.57,-108.44" fill="none" stroke="rgb(134, 61, 19)" stroke-width="2" stroke-linejoin="round" filter="url(#fuzzy)" /><polyline points="46.61,-54.29 46.87,-54.94 46.35,-56.19 45.58,-57.52 44.8,-58.72 44.17,-59.76 43.7,-60.71 43.31,-61.65 42.92,-62.61 42.48,-63.59 42,-64.59 41.45,-65.58 40.77,-66.51 39.91,-67.37 38.88,-68.16 37.79,-68.9 36.83,-69.63 36.17,-70.38 35.74,-71.19 35.14,-72.1 33.81,-73.02" fill="none" stroke="rgb(134, 61, 19)" stroke-width="2" stroke-linejoin="round" filter="url(#fuzzy)" /><polyline points="30.4,-74.67 31.75,-75.58 33.4,-75.84 34.7,-75.26 35.82,-74.63 36.93,-74.37 38.13,-74.44 39.48,-74.61 40.98,-74.76 42.62,-74.89 44.33,-75.06 46.02,-75.27 47.57,-75.44 48.95,-75.43 50.14,-75.22 51.24,-74.91 52.36,-74.74 53.64,-74.87 55.16,-75.17 56.93,-75.24 58.99,-74.89 61.53,-74.94 24.6,-76.98 24.43,-77.24 23.89,-77.71 22.99,-78.33 21.94,-78.9 20.86,-79.4 19.77,-79.93 18.67,-80.56 17.54,-81.3 16.37,-82.11 15.18,-82.92 13.98,-83.69 12.81,-84.39 11.68,-85.03 10.6,-85.61 9.56,-86.17 8.54,-86.75 7.5,-87.42 6.38,-88.24 5.16,-89.21 3.85,-90.22 2.5,-91.08 1.16,-91.72 -0.06,-92.4 -0.82,-93.59 24.6,-76.98 25.25,-79.72 25.45,-82.5 24.84,-84.18 23.81,-85.07 22.65,-85.46 21.45,-85.68 20.28,-86.1 19.12,-86.91 17.94,-88.03 16.69,-89.28 15.43,-90.63 14.24,-92.22 13.2,-94.06 12.17,-95.72 10.56,-96.26" fill="none" stroke="rgb(134, 61, 19)" stroke-width="2" stroke-linejoin="round" filter="url(#fuzzy)" /><polyline points="24.34,-77.25 25.34,-76.6 26.75,-75.78 27.88,-74.94 28.66,-73.92 29.26,-72.68 29.89,-71.41 30.63,-70.25 31.46,-69.22 32.23,-68.2 32.83,-67.09 33.3,-65.93 33.8,-64.88 34.52,-64.03 35.5,-63.3 36.51,-62.4 37.17,-61.07 37.28,-59.4 37.05,-58.07" fill="none" stroke="rgb(134, 61, 19)" stroke-width="2" stroke-linejoin="round" filter="url(#fuzzy)" /><polyline points="24.34,-77.25 25.62,-77.47 27.24,-77.19 28.6,-76.86 29.67,-76.51 30.65,-76.12 31.67,-75.71 32.8,-75.28 33.98,-74.81 35.11,-74.3 36.1,-73.78 36.93,-73.29 37.73,-72.87 38.71,-72.44 40.07,-71.89 41.75,-71.2 43.14,-70.62" fill="none" stroke="rgb(134, 61, 19)" stroke-width="2" stroke-linejoin="round" filter="url(#fuzzy)" /><polyline points="22.7,-78.07 23.86,-76.95 24.42,-75.97 25.27,-75.37 26.37,-74.93 27.46,-74.47 28.41,-73.88 29.22,-73.16 29.99,-72.29 30.79,-71.29 31.66,-70.22 32.55,-69.17 33.34,-68.2 33.8,-67.29 33.74,-66.45 33.23,-65.81 21.34,-78.24 19.63,-79.53 18.54,-80.23 17.38,-80.67 16.15,-81.36 14.95,-82.56 13.85,-84.23 12.83,-86.06 11.86,-87.74 10.9,-89.13 9.97,-90.39 9.08,-91.88 8.19,-93.88 7.19,-96.34 5.93,-98.8 4.42,-100.82 3.21,-101.67 18.52,-79.19 18.09,-79.24 17.1,-79.57 15.84,-80.07 14.54,-80.57 13.29,-81.04 12.12,-81.5 11.04,-81.98 10.03,-82.48 9.08,-82.92 8.15,-83.28 7.18,-83.59 6.11,-83.92 4.92,-84.32 3.63,-84.72 2.32,-85.03 0.99,-85.3 -0.5,-85.9 13.93,-80.05 13.82,-79.88 12.77,-80.16 11.64,-80.38 10.57,-80.46 9.54,-80.4 8.56,-80.24 7.57,-80.03 6.54,-79.82 5.44,-79.6 4.29,-79.34 3.11,-79.03 1.94,-78.67 0.82,-78.33 -0.26,-78.06 -1.29,-77.87 -2.29,-77.74 -3.3,-77.55 -4.33,-77.23 -5.4,-76.75 -6.53,-76.18 -7.57,-75.57 15.25,-80 13.48,-84.01 12.05,-83.85 10.88,-83.64 9.87,-84.19 8.96,-85.28 8.03,-86.52 7.02,-87.68 5.88,-88.64 4.64,-89.32 3.36,-89.65 2.07,-89.68 0.8,-89.61 -0.45,-89.72 -1.7,-90.23 -2.96,-91.21 -4.26,-92.51 -5.63,-93.89 -7.09,-95.06 -8.64,-95.84 -10.26,-96.2 -11.91,-96.27 -13.56,-96.39 -15.21,-97.09" fill="none" stroke="rgb(134, 61, 19)" stroke-width="2" stroke-linejoin="round" filter="url(#fuzzy)" /><polyline points="11.31,-80.7 12.49,-80.7 13.96,-80.75 15.41,-80.85 16.83,-81 18.19,-81.26 19.53,-81.68 20.91,-82.32 22.4,-83.27 24.03,-84.61 25.81,-86.33 27.69,-88.27 29.61,-90.11 31.52,-91.48 33.35,-92.13 34.97,-92.26 36.36,-92.47 37.8,-92.85 5.61,-81.23 6.59,-81.15 7.43,-81.04 8.21,-80.78 9.04,-80.38 9.97,-79.87 10.97,-79.31 12.05,-78.79 13.21,-78.34 14.43,-77.98 15.65,-77.66 16.84,-77.34 17.96,-76.99 19.01,-76.6 20.02,-76.17 21.06,-75.67 22.13,-75.05 23.1,-74.33 23.29,-73.91" fill="none" stroke="rgb(134, 61, 19)" stroke-width="2" stroke-linejoin="round" filter="url(#fuzzy)" /><polyline points="-23.83,-73.64 -22.39,-73.99 -21.45,-74.51 -20.59,-75.04 -19.69,-75.48 -18.76,-75.84 -17.78,-76.19 -16.77,-76.58 -15.74,-77.04 -14.7,-77.54 -13.66,-78.05 -12.59,-78.52 -11.47,-78.95 -10.29,-79.33 -9.05,-79.69 -7.8,-80.02 -6.54,-80.32 -5.32,-80.58 -4.15,-80.8 -3.04,-81 -1.97,-81.18 -0.94,-81.33 0.1,-81.42 1.25,-81.48 2.58,-81.6" fill="none" stroke="rgb(134, 61, 19)" stroke-width="2" stroke-linejoin="round" filter="url(#fuzzy)" /><polyline points="1.16,-81.41 2.4,-82.63 3.68,-83.5 5.02,-83.93 6.3,-84.45 7.47,-85.25 8.58,-86.2 9.68,-87.16 10.83,-87.96 12.03,-88.5 13.29,-88.65 14.59,-88.42 15.97,-88 17.44,-87.74 18.99,-87.96 20.55,-88.73 22.26,-89.96 25.06,-91.88" fill="none" stroke="rgb(134, 61, 19)" stroke-width="2" stroke-linejoin="round" filter="url(#fuzzy)" />
    </g>
    
        <g id="pointNose">
          <g id="rightNose"><circle r="1.146" cx="11.076" cy="4.6899999999999995" stroke="black" fill="none" stroke-width="1.0" filter="url(#fuzzy)" /><circle r="2.358" cx="12.212" cy="6.7379999999999995" stroke="black" fill="none" stroke-width="1.0" filter="url(#fuzzy)" /><circle r="1.6400000000000001" cx="8.756" cy="4.31" stroke="black" fill="none" stroke-width="1.0" filter="url(#fuzzy)" /><circle r="1.542" cx="12.484" cy="5.17" stroke="black" fill="none" stroke-width="1.0" filter="url(#fuzzy)" /><circle r="1.546" cx="11.792000000000002" cy="6.122" stroke="black" fill="none" stroke-width="1.0" filter="url(#fuzzy)" /><circle r="1.5659999999999998" cx="12.436" cy="6.802" stroke="black" fill="none" stroke-width="1.0" filter="url(#fuzzy)" /><circle r="2.044" cx="11.068000000000001" cy="4.81" stroke="black" fill="none" stroke-width="1.0" filter="url(#fuzzy)" /><circle r="2.318" cx="11.368" cy="7.266" stroke="black" fill="none" stroke-width="1.0" filter="url(#fuzzy)" /><circle r="1.65" cx="10.456000000000001" cy="5.582" stroke="black" fill="none" stroke-width="1.0" filter="url(#fuzzy)" /><circle r="1.9020000000000001" cx="10.516" cy="5.858" stroke="black" fill="none" stroke-width="1.0" filter="url(#fuzzy)" /></g>
          <g id="leftNose"><circle r="1.982" cx="-10.772" cy="13.245999999999999" stroke="black" fill="none" stroke-width="1.0" filter="url(#fuzzy)" /><circle r="2.044" cx="-11.064" cy="13.998" stroke="black" fill="none" stroke-width="1.0" filter="url(#fuzzy)" /><circle r="1.996" cx="-10.600000000000001" cy="15.302" stroke="black" fill="none" stroke-width="1.0" filter="url(#fuzzy)" /><circle r="2.652" cx="-7.816000000000001" cy="11.857999999999999" stroke="black" fill="none" stroke-width="1.0" filter="url(#fuzzy)" /><circle r="1.336" cx="-7.976000000000001" cy="11.902" stroke="black" fill="none" stroke-width="1.0" filter="url(#fuzzy)" /><circle r="1.572" cx="-10.472000000000001" cy="15.078" stroke="black" fill="none" stroke-width="1.0" filter="url(#fuzzy)" /><circle r="1.448" cx="-10.904" cy="14.969999999999999" stroke="black" fill="none" stroke-width="1.0" filter="url(#fuzzy)" /><circle r="1.044" cx="-10.048" cy="12.441999999999998" stroke="black" fill="none" stroke-width="1.0" filter="url(#fuzzy)" /><circle r="2.918" cx="-10.336" cy="13.338" stroke="black" fill="none" stroke-width="1.0" filter="url(#fuzzy)" /><circle r="1.8359999999999999" cx="-8.252" cy="14.297999999999998" stroke="black" fill="none" stroke-width="1.0" filter="url(#fuzzy)" /></g>
        </g>
      
    <g id="mouth">
      <polyline points="19.05,60.22 19.32,60.63 19.13,60.81 19.23,61.24 19.15,61.68 19.05,62.55 19.07,62.7 19.18,62.99 18.66,64.29 18.42,64.87 18.23,65.3 18.13,65.6 18.24,65.6 17.34,66.99 17.51,66.62 17.55,66.5 17.08,67.32 16.75,67.62 15.53,69.18 16.07,68.56 14.97,69.6 14.58,69.87 15.06,69.51 14.36,70.14 14.15,70.39 13.02,71.23 11.92,71.92 12.34,71.61 12.24,71.73 10.12,72.91 10.39,72.82 9.53,73.23 8.64,73.7 9.85,73.15 7.26,74.33 8.11,73.93 6.14,74.7 6.62,74.54 6.18,74.71 4.74,75.23 4.36,75.32 3.24,75.65 3.7,75.53 0.84,76.22 0.65,76.26 -0.77,76.53 -1.3,76.61 -1.31,76.61 -0.69,76.51 -2.26,76.74 -4.15,76.93 -4.53,76.96 -4.42,76.96 -5.84,77.04 -6,77.04 -7.55,77.07 -6.57,77.05 -9.29,77.03 -8.27,77.05 -10.39,76.93 -12.07,76.77 -12.48,76.7 -11.51,76.85 -13.23,76.59 -12.73,76.7 -13.32,76.58 -15.71,76.1 -16.34,75.93 -16.99,75.75 -15.7,76.14 -16.99,75.8 -18.65,75.2 -19.47,74.91 -20.03,74.67 -19.44,74.97 -21.37,74.07 -20.68,74.49 -21.75,73.87 -22.18,73.68 -22.3,73.68 -23.94,72.59 -23.86,72.57 -23.98,72.56 -24.13,72.32 -24.29,72.32 -25.63,71.22 -25.79,70.96 -25.61,71.05 -26.94,69.74 -26.98,69.59 -26.86,69.56 -27.15,69.31 -27.25,69.3 -27.89,67.71 -27.96,67.84 -27.82,68.08 -28.51,66.47 -28.33,66.71 -28.64,65.88 -28.7,65.03 -28.57,65.42 -28.57,64.28 -28.66,64.27 -28.74,64.26 -28.55,63.8 -28.7,63.93 -28.36,62.5 -28.61,63.05 -28.11,61.76 -27.78,60.9 -27.9,61.16 -28.12,61.3 -27.68,60.31 -27.37,59.74 -27.25,59.84 -26.31,58.47 -26.55,58.72 -25.51,57.52 -25.72,57.76 -25.45,57.36 -25.62,57.6 -24.06,55.96 -23.09,55.32 -23.76,55.79 -22.46,54.74 -23.39,55.52 -22.93,55.15 -22.07,54.46 -20.91,53.79 -20.45,53.47 -20.97,53.77 -18.9,52.65 -19.68,53.11 -17.36,51.98 -17.41,51.98 -17.73,52.14 -15.9,51.38 -16.48,51.67 -14.73,51.03 -12.86,50.43 -13.38,50.6 -12.87,50.45 -10.81,49.94 -10.55,49.88 -9.29,49.63 -10.48,49.86 -7.94,49.41 -8.38,49.47 -8.31,49.46 -6.53,49.23 -5.96,49.17 -5.05,49.09 -3.17,48.99 -2.79,48.97 -4.15,49.02 -2.9,48.99 -1.08,48.98 -1.04,48.98 0.84,49.07 -0.76,48.99 -0.07,49.02 2.27,49.17 2.4,49.21 4.01,49.43 4.75,49.54 3.81,49.41 6.31,49.87 5.3,49.64 7.79,50.27 8.59,50.45 7.49,50.17 8.1,50.36 8.93,50.62 9.1,50.61 10.05,50.97 11.23,51.44 11.2,51.45 12.48,52.05 12.99,52.44 13.15,52.44 13.37,52.54 14.98,53.78 14.99,53.67 15.81,54.33 15.38,53.91 15.2,53.94 16.2,54.72 16.41,54.84 16.58,55.1 17.22,55.82 17.61,56.33 18.25,57.22 17.97,57 18.59,57.91 18.27,57.41 18.73,58.76 18.6,58.24 19.09,59.74 18.92,58.94 19.12,59.91" fill="rgb(139, 102, 204)" stroke="black" stroke-width="3" stroke-linejoin="round" filter="url(#fuzzy)" />
    </g>
  </svg>