<svg viewBox="-100 -100 200 200" xmlns="http://www.w3.org/2000/svg" width="500" height="500" id="face-svg">
    <defs>
      <clipPath id="leftEyeClipPath">
        <polyline points="28.06,-9.06 28.14,-9.95 28.17,-10.81 28.17,-11.64 28.12,-12.43 28.02,-13.19 27.88,-13.92 27.7,-14.61 27.47,-15.28 27.2,-15.91 26.88,-16.51 26.51,-17.07 26.11,-17.61 25.66,-18.11 25.16,-18.58 24.63,-19.03 24.25,-19.61 23.79,-20.16 23.27,-20.67 22.67,-21.13 21.99,-21.55 21.25,-21.93 20.45,-22.27 19.58,-22.57 18.65,-22.83 17.67,-23.05 16.64,-23.23 15.56,-23.38 14.44,-23.49 13.28,-23.56 12.08,-23.6 10.86,-23.61 9.61,-23.59 8.34,-23.54 7.06,-23.46 5.76,-23.35 4.46,-23.22 3.16,-23.07 1.86,-22.89 0.56,-22.69 -0.73,-22.47 -2,-22.23 -3.26,-21.97 -4.49,-21.7 -5.7,-21.41 -6.89,-21.1 -8.04,-20.79 -9.16,-20.46 -10.25,-20.12 -11.3,-19.76 -12.31,-19.4 -13.29,-19.03 -14.22,-18.65 -15.11,-18.27 -15.96,-17.87 -16.76,-17.47 -17.52,-17.07 -18.24,-16.66 -18.92,-16.24 -19.55,-15.82 -20.14,-15.39 -20.69,-14.96 -21.2,-14.52 -21.68,-14.08 -22.12,-13.64 -22.52,-13.19 -22.89,-12.73 -23.23,-12.27 -23.54,-11.8 -23.8,-11.33 -24.04,-10.85 -24.25,-10.36 -24.42,-9.87 -24.56,-9.37 -24.67,-8.86 -24.75,-8.35 -24.81,-7.83 -24.84,-7.3 -24.84,-6.77 -24.81,-6.23 -24.58,-0.93 -24.08,-0.28 -23.58,0.37 -23.06,1.03 -22.54,1.69 -22.01,2.37 -21.47,3.05 -20.92,3.73 -20.36,4.42 -19.8,5.11 -19.23,5.81 -18.65,6.51 -18.06,7.21 -17.46,7.91 -16.86,8.61 -16.25,9.31 -15.62,10.02 -14.99,10.72 -14.35,11.43 -13.7,12.13 -13.03,12.83 -12.36,13.53 -11.69,14.22 -11,14.89 -10.3,15.56 -9.6,16.21 -8.9,16.84 -8.18,17.45 -7.46,18.04 -6.74,18.61 -6.01,19.15 -5.27,19.66 -4.53,20.14 -3.79,20.59 -3.04,21 -2.29,21.38 -1.54,21.71 -0.79,22.01 -0.03,22.26 0.73,22.47 1.49,22.63 2.24,22.74 3,22.8 3.76,22.82 4.52,22.78 5.28,22.68 6.04,22.53 6.8,22.33 7.55,22.07 8.31,21.76 9.06,21.39 9.81,20.96 10.56,20.48 11.3,19.94 12.04,19.35 12.78,18.7 13.52,18 14.25,17.25 14.97,16.44 15.7,15.59 16.41,14.69 17.13,13.74 17.83,12.75 18.54,11.73 19.23,10.66 19.84,9.87 20.44,9.05 21.04,8.2 21.63,7.34 22.21,6.45 22.79,5.54 23.36,4.62 23.93,3.67 24.48,2.72 25.03,1.75 25.57,0.77 26.1,-0.22 26.61,-1.21 27.12,-2.21 27.62,-3.22" />
      </clipPath>
      <clipPath id="rightEyeClipPath">
        <polyline points="-24.58,-10.36 -24.77,-11.37 -24.91,-12.33 -25,-13.25 -25.05,-14.13 -25.04,-14.97 -24.98,-15.77 -24.88,-16.53 -24.72,-17.25 -24.52,-17.94 -24.27,-18.58 -23.97,-19.19 -23.62,-19.76 -23.22,-20.3 -22.78,-20.8 -22.3,-21.26 -21.96,-21.86 -21.55,-22.41 -21.07,-22.92 -20.51,-23.39 -19.87,-23.81 -19.17,-24.18 -18.4,-24.52 -17.57,-24.81 -16.67,-25.07 -15.72,-25.28 -14.72,-25.46 -13.67,-25.6 -12.58,-25.7 -11.44,-25.78 -10.27,-25.81 -9.07,-25.82 -7.85,-25.8 -6.6,-25.74 -5.34,-25.66 -4.06,-25.56 -2.78,-25.43 -1.49,-25.28 -0.2,-25.11 1.08,-24.91 2.35,-24.7 3.62,-24.48 4.86,-24.23 6.09,-23.97 7.29,-23.7 8.47,-23.41 9.62,-23.12 10.74,-22.81 11.83,-22.49 12.88,-22.17 13.9,-21.83 14.87,-21.49 15.81,-21.14 16.7,-20.79 17.56,-20.43 18.37,-20.06 19.14,-19.7 19.87,-19.32 20.56,-18.95 21.2,-18.56 21.8,-18.18 22.37,-17.79 22.9,-17.4 23.39,-17 23.84,-16.61 24.27,-16.2 24.66,-15.8 25.01,-15.38 25.34,-14.97 25.63,-14.55 25.88,-14.12 26.11,-13.69 26.3,-13.25 26.47,-12.81 26.6,-12.36 26.71,-11.9 26.79,-11.44 26.84,-10.98 26.87,-10.5 26.87,-10.02 23.47,-0.27 22.89,0.49 22.3,1.26 21.7,2.04 21.1,2.82 20.48,3.61 19.86,4.41 19.23,5.21 18.6,6.01 17.96,6.82 17.31,7.62 16.66,8.43 16.01,9.23 15.35,10.03 14.69,10.82 14.02,11.62 13.34,12.41 12.66,13.2 11.97,13.99 11.28,14.77 10.58,15.54 9.88,16.3 9.18,17.04 8.48,17.77 7.77,18.47 7.07,19.15 6.37,19.8 5.67,20.42 4.98,21.01 4.29,21.57 3.6,22.09 2.92,22.57 2.24,23 1.57,23.39 0.9,23.74 0.24,24.04 -0.42,24.28 -1.07,24.48 -1.72,24.62 -2.35,24.7 -2.99,24.73 -3.62,24.71 -4.24,24.62 -4.86,24.48 -5.47,24.27 -6.09,24.01 -6.69,23.69 -7.3,23.3 -7.9,22.86 -8.5,22.36 -9.11,21.8 -9.71,21.18 -10.31,20.51 -10.91,19.78 -11.52,19 -12.13,18.17 -12.74,17.29 -13.36,16.36 -13.98,15.38 -14.6,14.36 -15.23,13.31 -15.87,12.21 -16.51,11.09 -17.16,9.93 -17.82,8.75 -18.35,7.81 -18.88,6.84 -19.41,5.86 -19.95,4.86 -20.48,3.84 -21.01,2.81 -21.54,1.76 -22.07,0.7 -22.59,-0.38 -23.12,-1.46 -23.64,-2.55 -24.16,-3.65 -24.67,-4.75 -25.17,-5.85 -25.67,-6.95" />
      </clipPath>
      <filter id="fuzzy">
        <feTurbulence id="turbulence" baseFrequency="0.05" numOctaves="3" type="noise" result="noise" />
        <feDisplacementMap in="SourceGraphic" in2="noise" scale="2" />
      </filter>
      <linearGradient id="rainbowGradient" x1="0%" y1="0%" x2="100%" y2="0%">
        <stop offset="0%" style="stop-color: rgb(2, 12, 116); stop-opacity: 1" />
        <stop offset="30.3%" style="stop-color: rgb(163, 182, 91); stop-opacity: 1" />
        <stop offset="100%" style="stop-color: rgb(53, 141, 52); stop-opacity: 1" />
      </linearGradient>
    </defs>
    <rect x="-100" y="-100" width="100%" height="100%" fill="rgb(166, 221, 242)" />
    <polyline id="faceContour" points="65.41,1.95 65.24,2.41 65.38,4.78 65.34,3.22 65.45,5.23 65.18,6.58 65.38,7.01 64.86,9.89 65,11.32 64.96,10.94 64.83,12.65 64.28,17.28 64.09,18.71 63.73,20.55 63.46,20.74 63.59,21.34 63.11,22.88 62.67,25.45 62.54,25.83 62.4,26.62 62.32,27.17 62.22,28.27 61.71,29.38 61.83,30.06 60.15,34.67 60.74,33.3 59.49,37.14 59.43,37.59 59.18,37.75 59.32,37.83 57.4,42.69 58.31,40.74 57.64,42.67 56.71,44.67 56.41,45.67 55.81,47.18 55.01,48.21 53.76,51.13 53.61,51.26 53.43,51.57 53.48,52.06 53.01,52.45 51.98,54.35 50.64,57.23 50.55,57.25 50.76,56.62 49.85,58.09 47.62,62.02 47.75,61.81 46.52,63.28 45.6,64.41 45.66,64.41 45.34,64.65 44.36,66.3 42.83,68.02 43.29,67.77 42.9,68.18 40.04,71.32 40.33,71.14 39.68,71.93 39.38,72.04 37,74.16 36.43,74.79 36.8,74.38 35.5,75.69 34.76,76.1 32.96,77.94 32.38,78.34 32.66,77.93 30.46,79.75 30.22,79.65 29.57,80.08 26.89,82.07 26.41,82.43 27.27,82.11 24.81,83.57 23.17,84.31 23.69,83.89 21.89,85.09 21.13,85.24 20.23,85.72 18.41,86.69 18.82,86.15 16.41,87.07 15.63,87.35 14.85,87.74 13.5,88.14 14.03,88.22 12.14,88.36 11.41,88.73 10.09,88.91 9.07,89.39 8.67,89.52 6.97,89.49 6.44,89.57 4.69,89.92 4.27,89.76 1.33,90.05 2.76,89.89 1.88,89.86 0.49,89.91 -1.94,89.87 -0.9,90.09 -2.86,89.93 -4.94,90.04 -5.26,89.89 -5.82,89.8 -8.42,89.29 -6.65,89.64 -9.01,89.17 -10.71,88.79 -10.93,89.01 -11.6,88.74 -13.41,88.3 -14.07,87.72 -14.93,87.92 -17.14,86.74 -17.21,86.92 -18.21,86.47 -19.58,86.05 -19.82,86 -19.58,86.1 -22.27,84.52 -22.91,84.5 -23.76,83.98 -24.86,83.36 -26.74,82.26 -26.07,82.74 -28.65,81.12 -27.72,81.32 -29.72,80.46 -31.13,79.06 -31.94,78.31 -32.87,77.65 -33.55,77.49 -34.76,76.27 -35.85,75.4 -35.13,75.9 -36.05,75.31 -38.55,72.84 -38.85,72.74 -39.7,71.58 -39.16,71.79 -41.3,69.64 -41.9,68.92 -42.06,68.98 -43.06,67.64 -44,66.77 -44.9,65.52 -45.21,65.14 -46.85,63.07 -45.95,64.07 -47.89,61.47 -47.82,61.37 -48.63,60.37 -50.03,58 -51.11,56.11 -50.99,56.79 -52.82,53.46 -51.6,55.57 -52.83,52.81 -53.05,52.42 -54.17,50.25 -54.29,50.18 -55.91,47.34 -55.33,47.73 -56.77,45.16 -56.73,44.78 -56.94,44.01 -57.36,43.44 -58.29,40.7 -58.31,41.37 -59.29,37.95 -59.31,37.99 -60.98,33.33 -60.35,34.88 -60.65,33.5 -61.36,31.31 -60.96,32.28 -62.05,28.74 -62.38,27.94 -61.99,28.22 -63.15,24.33 -62.83,25.17 -63.16,23.24 -63.7,19.9 -63.67,20.51 -63.97,19.61 -64.4,16.7 -64.62,14 -64.61,13.87 -64.87,12.4 -64.75,13.02 -64.79,11.7 -65.25,6.17 -65.2,8.97 -65.52,4.04 -65.35,2.47 -65.38,2.63 -65.48,3.6 -65.44,-0.65 -65.52,-2.11 -65.42,-1.16 -65.42,-3.65 -65.44,-5.97 -65.25,-8.21 -65.24,-7.33 -64.93,-10.16 -64.62,-12.83 -64.65,-13.29 -64.46,-15.85 -64.84,-13.39 -64.37,-17.1 -64.13,-18.81 -64.15,-18.45 -63.54,-21.58 -63.44,-21.65 -63.16,-23.1 -63.11,-24.06 -62.89,-24.97 -62.64,-26 -61.47,-31.46 -61.58,-30.51 -60.83,-33.46 -61.06,-32.93 -60.69,-34.14 -60.53,-34.52 -59.55,-37.32 -58.84,-39.43 -57.95,-41.77 -58.31,-40.96 -57.88,-42.35 -56.96,-44.34 -56.38,-45.23 -56.54,-45.64 -55.87,-47.02 -55.19,-48.63 -54.71,-49.97 -54.48,-49.44 -53.89,-51.61 -53.12,-52.46 -52.28,-54.23 -51.17,-55.81 -51.18,-56.38 -50.35,-57.4 -50.12,-57.93 -48.75,-60.28 -48.48,-60.47 -47.9,-61.5 -46.32,-63.62 -45.75,-64.32 -44.97,-65.49 -43.68,-67.3 -44.15,-66.66 -43.08,-67.91 -41.65,-69.57 -41.49,-69.76 -40.54,-70.49 -39.72,-71.62 -38.79,-72.53 -38.81,-72.41 -38.08,-73.19 -35.77,-75.37 -35.21,-75.94 -35.76,-75.71 -33.77,-77.21 -33.26,-77.42 -32.94,-77.78 -31,-79.55 -30.21,-80.12 -29.19,-80.62 -28.84,-80.52 -28.2,-81.51 -27.15,-82.16 -27.3,-82.09 -24.51,-83.28 -23.64,-83.86 -22.2,-84.91 -22,-84.99 -22.39,-84.55 -20.63,-85.47 -19.83,-86.07 -18.43,-86.62 -18.69,-86.31 -17.44,-86.89 -15.39,-87.48 -13.72,-88.16 -14,-87.98 -11.57,-88.55 -10.73,-88.87 -9.41,-89.25 -10.21,-88.91 -9.42,-89.39 -7.25,-89.44 -6.43,-89.57 -3.13,-89.94 -4.53,-89.85 -4.23,-90.12 -2.27,-90.23 -0.8,-90.28 0.76,-90.22 2.08,-90.16 2.56,-89.9 3.27,-89.84 4.28,-89.8 4.77,-89.69 5.53,-89.95 5.82,-89.85 9.24,-89.34 7.9,-89.25 10.63,-88.78 10.03,-89.3 11.53,-88.6 13.67,-88.32 14.84,-87.67 14.2,-88.17 15.9,-87.56 17.9,-86.84 18.62,-86.32 18.96,-86.17 19.86,-85.81 20.02,-85.82 22.46,-84.58 22.34,-84.96 25.11,-83.21 25.36,-83.05 24.84,-83.31 27.04,-82.05 28.52,-81.25 28.45,-81.3 29.13,-80.71 30.74,-79.53 32.78,-78.04 32.19,-78.39 34.04,-77.09 34.64,-76.29 34.23,-76.97 36.3,-74.64 36.22,-75.01 36.68,-74.64 37.09,-74.35 39.24,-72.12 39,-72.15 41.24,-70.15 41.04,-70.07 42.83,-68.35 43.38,-67.47 44.16,-66.76 44.83,-65.53 45.97,-64.57 46.01,-63.92 46.59,-62.84 48.25,-60.99 48.27,-60.72 48.03,-60.76 49.05,-59.43 50.4,-57.22 50.33,-57.65 51.18,-56.25 52.29,-54.27 52.78,-53.3 52.86,-53.43 54.89,-49.38 54.99,-49.1 55.61,-47.76 55.24,-48.81 57.24,-43.82 56.35,-45.62 57.79,-41.94 58.08,-41.63 58.84,-39.26 59.08,-38.4 58.86,-38.82 59.99,-35.47 60.52,-34.63 60.83,-32.81 60.74,-34.18 61.25,-30.91 61.36,-31.47 62.15,-28.97 62.32,-27.95 62.81,-25.87 63.07,-24.57 62.9,-25.32 63.32,-23.04 63.75,-19.55 63.74,-20.24 63.7,-19.54 64.36,-17.06 64.31,-16.45 64.65,-13.18 64.55,-14.53 64.99,-8.52 65.07,-7.89 65.04,-8.05 65.41,-4.23 65.38,-5.02 65.31,-2.09 65.56,-1.69 65.2,-2.55 65.41,1.95 65.24,2.41" fill="rgb(223, 86, 32)" stroke="black" stroke-width="1.6666666666666665" stroke-linejoin="round" filter="url(#fuzzy)" />
    <g transform="translate(33.74 -21.119999999999997)">
      <polyline id="rightCountour" points="-24.58,-10.36 -24.77,-11.37 -24.91,-12.33 -25,-13.25 -25.05,-14.13 -25.04,-14.97 -24.98,-15.77 -24.88,-16.53 -24.72,-17.25 -24.52,-17.94 -24.27,-18.58 -23.97,-19.19 -23.62,-19.76 -23.22,-20.3 -22.78,-20.8 -22.3,-21.26 -21.96,-21.86 -21.55,-22.41 -21.07,-22.92 -20.51,-23.39 -19.87,-23.81 -19.17,-24.18 -18.4,-24.52 -17.57,-24.81 -16.67,-25.07 -15.72,-25.28 -14.72,-25.46 -13.67,-25.6 -12.58,-25.7 -11.44,-25.78 -10.27,-25.81 -9.07,-25.82 -7.85,-25.8 -6.6,-25.74 -5.34,-25.66 -4.06,-25.56 -2.78,-25.43 -1.49,-25.28 -0.2,-25.11 1.08,-24.91 2.35,-24.7 3.62,-24.48 4.86,-24.23 6.09,-23.97 7.29,-23.7 8.47,-23.41 9.62,-23.12 10.74,-22.81 11.83,-22.49 12.88,-22.17 13.9,-21.83 14.87,-21.49 15.81,-21.14 16.7,-20.79 17.56,-20.43 18.37,-20.06 19.14,-19.7 19.87,-19.32 20.56,-18.95 21.2,-18.56 21.8,-18.18 22.37,-17.79 22.9,-17.4 23.39,-17 23.84,-16.61 24.27,-16.2 24.66,-15.8 25.01,-15.38 25.34,-14.97 25.63,-14.55 25.88,-14.12 26.11,-13.69 26.3,-13.25 26.47,-12.81 26.6,-12.36 26.71,-11.9 26.79,-11.44 26.84,-10.98 26.87,-10.5 26.87,-10.02 23.47,-0.27 22.89,0.49 22.3,1.26 21.7,2.04 21.1,2.82 20.48,3.61 19.86,4.41 19.23,5.21 18.6,6.01 17.96,6.82 17.31,7.62 16.66,8.43 16.01,9.23 15.35,10.03 14.69,10.82 14.02,11.62 13.34,12.41 12.66,13.2 11.97,13.99 11.28,14.77 10.58,15.54 9.88,16.3 9.18,17.04 8.48,17.77 7.77,18.47 7.07,19.15 6.37,19.8 5.67,20.42 4.98,21.01 4.29,21.57 3.6,22.09 2.92,22.57 2.24,23 1.57,23.39 0.9,23.74 0.24,24.04 -0.42,24.28 -1.07,24.48 -1.72,24.62 -2.35,24.7 -2.99,24.73 -3.62,24.71 -4.24,24.62 -4.86,24.48 -5.47,24.27 -6.09,24.01 -6.69,23.69 -7.3,23.3 -7.9,22.86 -8.5,22.36 -9.11,21.8 -9.71,21.18 -10.31,20.51 -10.91,19.78 -11.52,19 -12.13,18.17 -12.74,17.29 -13.36,16.36 -13.98,15.38 -14.6,14.36 -15.23,13.31 -15.87,12.21 -16.51,11.09 -17.16,9.93 -17.82,8.75 -18.35,7.81 -18.88,6.84 -19.41,5.86 -19.95,4.86 -20.48,3.84 -21.01,2.81 -21.54,1.76 -22.07,0.7 -22.59,-0.38 -23.12,-1.46 -23.64,-2.55 -24.16,-3.65 -24.67,-4.75 -25.17,-5.85 -25.67,-6.95" fill="white" stroke="white" stroke-width="0" stroke-linejoin="round" filter="url(#fuzzy)" />
    </g>
    <g transform="translate(-29.830000000000002 -20.65)">
      <polyline id="leftCountour" points="28.06,-9.06 28.14,-9.95 28.17,-10.81 28.17,-11.64 28.12,-12.43 28.02,-13.19 27.88,-13.92 27.7,-14.61 27.47,-15.28 27.2,-15.91 26.88,-16.51 26.51,-17.07 26.11,-17.61 25.66,-18.11 25.16,-18.58 24.63,-19.03 24.25,-19.61 23.79,-20.16 23.27,-20.67 22.67,-21.13 21.99,-21.55 21.25,-21.93 20.45,-22.27 19.58,-22.57 18.65,-22.83 17.67,-23.05 16.64,-23.23 15.56,-23.38 14.44,-23.49 13.28,-23.56 12.08,-23.6 10.86,-23.61 9.61,-23.59 8.34,-23.54 7.06,-23.46 5.76,-23.35 4.46,-23.22 3.16,-23.07 1.86,-22.89 0.56,-22.69 -0.73,-22.47 -2,-22.23 -3.26,-21.97 -4.49,-21.7 -5.7,-21.41 -6.89,-21.1 -8.04,-20.79 -9.16,-20.46 -10.25,-20.12 -11.3,-19.76 -12.31,-19.4 -13.29,-19.03 -14.22,-18.65 -15.11,-18.27 -15.96,-17.87 -16.76,-17.47 -17.52,-17.07 -18.24,-16.66 -18.92,-16.24 -19.55,-15.82 -20.14,-15.39 -20.69,-14.96 -21.2,-14.52 -21.68,-14.08 -22.12,-13.64 -22.52,-13.19 -22.89,-12.73 -23.23,-12.27 -23.54,-11.8 -23.8,-11.33 -24.04,-10.85 -24.25,-10.36 -24.42,-9.87 -24.56,-9.37 -24.67,-8.86 -24.75,-8.35 -24.81,-7.83 -24.84,-7.3 -24.84,-6.77 -24.81,-6.23 -24.58,-0.93 -24.08,-0.28 -23.58,0.37 -23.06,1.03 -22.54,1.69 -22.01,2.37 -21.47,3.05 -20.92,3.73 -20.36,4.42 -19.8,5.11 -19.23,5.81 -18.65,6.51 -18.06,7.21 -17.46,7.91 -16.86,8.61 -16.25,9.31 -15.62,10.02 -14.99,10.72 -14.35,11.43 -13.7,12.13 -13.03,12.83 -12.36,13.53 -11.69,14.22 -11,14.89 -10.3,15.56 -9.6,16.21 -8.9,16.84 -8.18,17.45 -7.46,18.04 -6.74,18.61 -6.01,19.15 -5.27,19.66 -4.53,20.14 -3.79,20.59 -3.04,21 -2.29,21.38 -1.54,21.71 -0.79,22.01 -0.03,22.26 0.73,22.47 1.49,22.63 2.24,22.74 3,22.8 3.76,22.82 4.52,22.78 5.28,22.68 6.04,22.53 6.8,22.33 7.55,22.07 8.31,21.76 9.06,21.39 9.81,20.96 10.56,20.48 11.3,19.94 12.04,19.35 12.78,18.7 13.52,18 14.25,17.25 14.97,16.44 15.7,15.59 16.41,14.69 17.13,13.74 17.83,12.75 18.54,11.73 19.23,10.66 19.84,9.87 20.44,9.05 21.04,8.2 21.63,7.34 22.21,6.45 22.79,5.54 23.36,4.62 23.93,3.67 24.48,2.72 25.03,1.75 25.57,0.77 26.1,-0.22 26.61,-1.21 27.12,-2.21 27.62,-3.22" fill="white" stroke="white" stroke-width="0" stroke-linejoin="round" filter="url(#fuzzy)" />
    </g>
    <g transform="translate(33.74 -21.119999999999997)">
      <polyline id="rightUpper" points="-20.21,2.11 -20.82,0.66 -21.41,-0.74 -21.95,-2.1 -22.46,-3.41 -22.92,-4.68 -23.35,-5.9 -23.72,-7.08 -24.06,-8.22 -24.34,-9.31 -24.58,-10.36 -24.77,-11.37 -24.91,-12.33 -25,-13.25 -25.05,-14.13 -25.04,-14.97 -24.98,-15.77 -24.88,-16.53 -24.72,-17.25 -24.52,-17.94 -24.27,-18.58 -23.97,-19.19 -23.62,-19.76 -23.22,-20.3 -22.78,-20.8 -22.3,-21.26 -21.96,-21.86 -21.55,-22.41 -21.07,-22.92 -20.51,-23.39 -19.87,-23.81 -19.17,-24.18 -18.4,-24.52 -17.57,-24.81 -16.67,-25.07 -15.72,-25.28 -14.72,-25.46 -13.67,-25.6 -12.58,-25.7 -11.44,-25.78 -10.27,-25.81 -9.07,-25.82 -7.85,-25.8 -6.6,-25.74 -5.34,-25.66 -4.06,-25.56 -2.78,-25.43 -1.49,-25.28 -0.2,-25.11 1.08,-24.91 2.35,-24.7 3.62,-24.48 4.86,-24.23 6.09,-23.97 7.29,-23.7 8.47,-23.41 9.62,-23.12 10.74,-22.81 11.83,-22.49 12.88,-22.17 13.9,-21.83 14.87,-21.49 15.81,-21.14 16.7,-20.79 17.56,-20.43 18.37,-20.06 19.14,-19.7 19.87,-19.32 20.56,-18.95 21.2,-18.56 21.8,-18.18 22.37,-17.79 22.9,-17.4 23.39,-17 23.84,-16.61 24.27,-16.2 24.66,-15.8 25.01,-15.38 25.34,-14.97 25.63,-14.55 25.88,-14.12 26.11,-13.69 26.3,-13.25 26.47,-12.81 26.6,-12.36 26.71,-11.9 26.79,-11.44 26.84,-10.98 26.87,-10.5 26.87,-10.02 26.85,-9.54 26.8,-9.05 26.73,-8.55 26.65,-8.05 26.53,-7.54 26.4,-7.02 26.25,-6.5 26.09,-5.97 25.9,-5.44 25.7,-4.9" fill="none" stroke="black" stroke-width="1.6666666666666665" stroke-linejoin="round" filter="url(#fuzzy)" />
      <polyline id="rightLower" points="-30.05,-17.45 -29.69,-16.48 -29.3,-15.48 -28.89,-14.46 -28.47,-13.43 -28.03,-12.37 -27.58,-11.31 -27.12,-10.23 -26.65,-9.14 -26.16,-8.05 -25.67,-6.95 -25.17,-5.85 -24.67,-4.75 -24.16,-3.65 -23.64,-2.55 -23.12,-1.46 -22.59,-0.38 -22.07,0.7 -21.54,1.76 -21.01,2.81 -20.48,3.84 -19.95,4.86 -19.41,5.86 -18.88,6.84 -18.35,7.81 -17.82,8.75 -17.16,9.93 -16.51,11.09 -15.87,12.21 -15.23,13.31 -14.6,14.36 -13.98,15.38 -13.36,16.36 -12.74,17.29 -12.13,18.17 -11.52,19 -10.91,19.78 -10.31,20.51 -9.71,21.18 -9.11,21.8 -8.5,22.36 -7.9,22.86 -7.3,23.3 -6.69,23.69 -6.09,24.01 -5.47,24.27 -4.86,24.48 -4.24,24.62 -3.62,24.71 -2.99,24.73 -2.35,24.7 -1.72,24.62 -1.07,24.48 -0.42,24.28 0.24,24.04 0.9,23.74 1.57,23.39 2.24,23 2.92,22.57 3.6,22.09 4.29,21.57 4.98,21.01 5.67,20.42 6.37,19.8 7.07,19.15 7.77,18.47 8.48,17.77 9.18,17.04 9.88,16.3 10.58,15.54 11.28,14.77 11.97,13.99 12.66,13.2 13.34,12.41 14.02,11.62 14.69,10.82 15.35,10.03 16.01,9.23 16.66,8.43 17.31,7.62 17.96,6.82 18.6,6.01 19.23,5.21 19.86,4.41 20.48,3.61 21.1,2.82 21.7,2.04 22.3,1.26 22.89,0.49 23.47,-0.27 24.04,-1.02 24.6,-1.77 25.15,-2.5 25.7,-3.22 26.23,-3.93 26.75,-4.62 27.26,-5.31 27.76,-5.98 28.26,-6.64 28.74,-7.29" fill="none" stroke="black" stroke-width="2.2222222222222223" stroke-linejoin="round" filter="url(#fuzzy)" />
      <circle r="3.326" cx="-0.41102205344128073" cy="-0.7313195079040336" stroke="black" fill="none" stroke-width="1.0" filter="url(#fuzzy)" clip-path="url(#rightEyeClipPath)" /><circle r="3.416" cx="2.263977946558719" cy="-2.461319507904033" stroke="black" fill="none" stroke-width="1.0" filter="url(#fuzzy)" clip-path="url(#rightEyeClipPath)" /><circle r="4.766" cx="1.5689779465587188" cy="-2.266319507904033" stroke="black" fill="none" stroke-width="1.0" filter="url(#fuzzy)" clip-path="url(#rightEyeClipPath)" /><circle r="4.282" cx="-0.45602205344128066" cy="-1.896319507904033" stroke="black" fill="none" stroke-width="1.0" filter="url(#fuzzy)" clip-path="url(#rightEyeClipPath)" /><circle r="3.098" cx="2.1539779465587188" cy="1.0086804920959676" stroke="black" fill="none" stroke-width="1.0" filter="url(#fuzzy)" clip-path="url(#rightEyeClipPath)" /><circle r="3.082" cx="1.313977946558719" cy="-2.711319507904033" stroke="black" fill="none" stroke-width="1.0" filter="url(#fuzzy)" clip-path="url(#rightEyeClipPath)" /><circle r="4.458" cx="-0.2410220534412808" cy="-2.806319507904033" stroke="black" fill="none" stroke-width="1.0" filter="url(#fuzzy)" clip-path="url(#rightEyeClipPath)" /><circle r="4.246" cx="-0.41102205344128073" cy="-0.9813195079040331" stroke="black" fill="none" stroke-width="1.0" filter="url(#fuzzy)" clip-path="url(#rightEyeClipPath)" /><circle r="4.338" cx="-0.03102205344128084" cy="-0.20631950790403275" stroke="black" fill="none" stroke-width="1.0" filter="url(#fuzzy)" clip-path="url(#rightEyeClipPath)" /><circle r="3.968" cx="1.1489779465587193" cy="-0.9963195079040332" stroke="black" fill="none" stroke-width="1.0" filter="url(#fuzzy)" clip-path="url(#rightEyeClipPath)" />
      </g>
    <g transform="translate(-29.830000000000002 -20.65)">
      <polyline id="leftUpper" points="25.18,1.61 25.61,0.41 26.01,-0.77 26.39,-1.91 26.74,-3.03 27.05,-4.11 27.33,-5.17 27.57,-6.19 27.77,-7.18 27.93,-8.13 28.06,-9.06 28.14,-9.95 28.17,-10.81 28.17,-11.64 28.12,-12.43 28.02,-13.19 27.88,-13.92 27.7,-14.61 27.47,-15.28 27.2,-15.91 26.88,-16.51 26.51,-17.07 26.11,-17.61 25.66,-18.11 25.16,-18.58 24.63,-19.03 24.25,-19.61 23.79,-20.16 23.27,-20.67 22.67,-21.13 21.99,-21.55 21.25,-21.93 20.45,-22.27 19.58,-22.57 18.65,-22.83 17.67,-23.05 16.64,-23.23 15.56,-23.38 14.44,-23.49 13.28,-23.56 12.08,-23.6 10.86,-23.61 9.61,-23.59 8.34,-23.54 7.06,-23.46 5.76,-23.35 4.46,-23.22 3.16,-23.07 1.86,-22.89 0.56,-22.69 -0.73,-22.47 -2,-22.23 -3.26,-21.97 -4.49,-21.7 -5.7,-21.41 -6.89,-21.1 -8.04,-20.79 -9.16,-20.46 -10.25,-20.12 -11.3,-19.76 -12.31,-19.4 -13.29,-19.03 -14.22,-18.65 -15.11,-18.27 -15.96,-17.87 -16.76,-17.47 -17.52,-17.07 -18.24,-16.66 -18.92,-16.24 -19.55,-15.82 -20.14,-15.39 -20.69,-14.96 -21.2,-14.52 -21.68,-14.08 -22.12,-13.64 -22.52,-13.19 -22.89,-12.73 -23.23,-12.27 -23.54,-11.8 -23.8,-11.33 -24.04,-10.85 -24.25,-10.36 -24.42,-9.87 -24.56,-9.37 -24.67,-8.86 -24.75,-8.35 -24.81,-7.83 -24.84,-7.3 -24.84,-6.77 -24.81,-6.23 -24.76,-5.68 -24.69,-5.13 -24.6,-4.56 -24.48,-3.99 -24.34,-3.42 -24.18,-2.84 -24.01,-2.25 -23.81,-1.65 -23.6,-1.05 -23.36,-0.44" fill="none" stroke="black" stroke-width="2.2222222222222223" stroke-linejoin="round" filter="url(#fuzzy)" />
      <polyline id="leftLower" points="31.76,-12.78 31.43,-11.91 31.07,-11.01 30.7,-10.08 30.31,-9.14 29.89,-8.18 29.47,-7.2 29.03,-6.21 28.57,-5.22 28.1,-4.22 27.62,-3.22 27.12,-2.21 26.61,-1.21 26.1,-0.22 25.57,0.77 25.03,1.75 24.48,2.72 23.93,3.67 23.36,4.62 22.79,5.54 22.21,6.45 21.63,7.34 21.04,8.2 20.44,9.05 19.84,9.87 19.23,10.66 18.54,11.73 17.83,12.75 17.13,13.74 16.41,14.69 15.7,15.59 14.97,16.44 14.25,17.25 13.52,18 12.78,18.7 12.04,19.35 11.3,19.94 10.56,20.48 9.81,20.96 9.06,21.39 8.31,21.76 7.55,22.07 6.8,22.33 6.04,22.53 5.28,22.68 4.52,22.78 3.76,22.82 3,22.8 2.24,22.74 1.49,22.63 0.73,22.47 -0.03,22.26 -0.79,22.01 -1.54,21.71 -2.29,21.38 -3.04,21 -3.79,20.59 -4.53,20.14 -5.27,19.66 -6.01,19.15 -6.74,18.61 -7.46,18.04 -8.18,17.45 -8.9,16.84 -9.6,16.21 -10.3,15.56 -11,14.89 -11.69,14.22 -12.36,13.53 -13.03,12.83 -13.7,12.13 -14.35,11.43 -14.99,10.72 -15.62,10.02 -16.25,9.31 -16.86,8.61 -17.46,7.91 -18.06,7.21 -18.65,6.51 -19.23,5.81 -19.8,5.11 -20.36,4.42 -20.92,3.73 -21.47,3.05 -22.01,2.37 -22.54,1.69 -23.06,1.03 -23.58,0.37 -24.08,-0.28 -24.58,-0.93 -25.06,-1.56 -25.54,-2.18 -26.01,-2.8 -26.47,-3.41 -26.92,-4 -27.36,-4.59 -27.79,-5.16 -28.22,-5.73 -28.63,-6.29 -29.04,-6.83" fill="none" stroke="black" stroke-width="2.2222222222222223" stroke-linejoin="round" filter="url(#fuzzy)" />
      <circle r="3.508" cx="19.428711812727443" cy="-8.652238812178695" stroke="black" fill="none" stroke-width="1.0" filter="url(#fuzzy)" clip-path="url(#leftEyeClipPath)" /><circle r="4.482" cx="17.448711812727442" cy="-9.302238812178695" stroke="black" fill="none" stroke-width="1.0" filter="url(#fuzzy)" clip-path="url(#leftEyeClipPath)" /><circle r="3.42" cx="20.278711812727444" cy="-7.357238812178695" stroke="black" fill="none" stroke-width="1.0" filter="url(#fuzzy)" clip-path="url(#leftEyeClipPath)" /><circle r="4.538" cx="20.378711812727442" cy="-6.977238812178694" stroke="black" fill="none" stroke-width="1.0" filter="url(#fuzzy)" clip-path="url(#leftEyeClipPath)" /><circle r="3.5220000000000002" cx="17.623711812727443" cy="-9.147238812178696" stroke="black" fill="none" stroke-width="1.0" filter="url(#fuzzy)" clip-path="url(#leftEyeClipPath)" /><circle r="4.3" cx="18.18371181272744" cy="-7.467238812178694" stroke="black" fill="none" stroke-width="1.0" filter="url(#fuzzy)" clip-path="url(#leftEyeClipPath)" /><circle r="4.454" cx="18.538711812727442" cy="-5.627238812178694" stroke="black" fill="none" stroke-width="1.0" filter="url(#fuzzy)" clip-path="url(#leftEyeClipPath)" /><circle r="3.084" cx="19.338711812727443" cy="-7.412238812178694" stroke="black" fill="none" stroke-width="1.0" filter="url(#fuzzy)" clip-path="url(#leftEyeClipPath)" /><circle r="3.884" cx="19.228711812727443" cy="-9.347238812178695" stroke="black" fill="none" stroke-width="1.0" filter="url(#fuzzy)" clip-path="url(#leftEyeClipPath)" /><circle r="3.59" cx="20.263711812727443" cy="-5.422238812178695" stroke="black" fill="none" stroke-width="1.0" filter="url(#fuzzy)" clip-path="url(#leftEyeClipPath)" />
    </g>
    <g id="hairs">
      <polyline points="11.53,-88.6 13.12,-88.29 14.07,-88.04 14.82,-87.81 15.53,-87.53 16.15,-87.24 16.59,-86.97 16.8,-86.75 16.77,-86.58 16.52,-86.44 16.02,-86.34 15.23,-86.28 14.1,-86.26 12.62,-86.3 10.75,-86.41 8.44,-86.6 5.62,-86.88 2.22,-87.24 -1.67,-87.71 -5.74,-88.31" fill="none" stroke="url(#rainbowGradient)" stroke-width="2" stroke-linejoin="round" filter="url(#fuzzy)" /><polyline points="42.83,-68.35 43.46,-67.47 44.23,-66.44 45.05,-65.3 45.88,-64.11 46.69,-62.9 47.46,-61.74 48.16,-60.68 48.77,-59.75 49.3,-58.97 49.73,-58.33 50.06,-57.84 50.26,-57.53 50.32,-57.44 50.21,-57.59 49.92,-58 49.45,-58.71 48.72,-59.79 47.56,-61.5" fill="none" stroke="url(#rainbowGradient)" stroke-width="2" stroke-linejoin="round" filter="url(#fuzzy)" /><polyline points="42.83,-68.35 43.41,-67.55 44.01,-66.76 44.56,-66 45,-65.32 45.31,-64.75 45.46,-64.33 45.43,-64.11 45.19,-64.11 44.74,-64.33 44.06,-64.77 43.16,-65.42 42.02,-66.31 40.59,-67.46 38.86,-68.9 36.79,-70.67 34.31,-72.81 31.38,-75.38 27.91,-78.41 23.95,-81.94" fill="none" stroke="url(#rainbowGradient)" stroke-width="2" stroke-linejoin="round" filter="url(#fuzzy)" /><polyline points="30.74,-79.53 32.02,-78.58 32.85,-77.91 33.6,-77.29 34.3,-76.69 34.92,-76.14 35.46,-75.65 35.92,-75.24 36.28,-74.9 36.53,-74.65 36.64,-74.49 36.54,-74.5 36.16,-74.73 35.44,-75.24 34.35,-76.07 32.9,-77.2 31.02,-78.68 28.48,-80.62" fill="none" stroke="url(#rainbowGradient)" stroke-width="2" stroke-linejoin="round" filter="url(#fuzzy)" /><polyline points="52.78,-53.3 53.03,-52.45 52.88,-51.19 51.93,-50.31 50.18,-49.79 47.67,-49.48 44.43,-49.31 40.45,-49.31 35.69,-49.51 30.12,-49.97 23.69,-50.71 16.38,-51.75 8.19,-53.07 -0.86,-54.65 -10.8,-56.49 -21.68,-58.59 -33.55,-60.95" fill="none" stroke="url(#rainbowGradient)" stroke-width="2" stroke-linejoin="round" filter="url(#fuzzy)" /><polyline points="29.13,-80.71 30.5,-79.64 31.27,-78.83 31.5,-78.24 31.29,-77.78 30.7,-77.39 29.73,-77.08 28.37,-76.82 26.64,-76.62 24.5,-76.43 21.94,-76.24 18.94,-76.04 15.47,-75.85 11.51,-75.73 7.03,-75.7 1.99,-75.79 -3.66,-76 -10,-76.3 -17.1,-76.61 -24.96,-76.89" fill="none" stroke="url(#rainbowGradient)" stroke-width="2" stroke-linejoin="round" filter="url(#fuzzy)" /><polyline points="48.27,-60.72 48.26,-60.4 48.25,-59.82 47.87,-59.42 46.98,-59.31 45.54,-59.49 43.52,-59.95 40.88,-60.71 37.61,-61.82 33.69,-63.33 29.05,-65.29 23.62,-67.74 17.35,-70.67 10.2,-74.05 2.15,-77.89 -6.95,-82.17" fill="none" stroke="url(#rainbowGradient)" stroke-width="2" stroke-linejoin="round" filter="url(#fuzzy)" /><polyline points="49.05,-59.43 49.92,-58.07 50.45,-57.24 50.91,-56.44 51.29,-55.66 51.55,-54.97 51.67,-54.43 51.59,-54.1 51.29,-54.03 50.73,-54.26 49.9,-54.8 48.8,-55.63 47.44,-56.76 45.8,-58.23 43.86,-60.07 41.6,-62.33 38.99,-65.05 35.99,-68.24 32.55,-71.92 28.64,-76.09 24.29,-80.75" fill="none" stroke="url(#rainbowGradient)" stroke-width="2" stroke-linejoin="round" filter="url(#fuzzy)" /><polyline points="-22.39,-84.55 -21,-85.3 -19.97,-85.84 -19.12,-86.21 -18.32,-86.51 -17.52,-86.76 -16.79,-86.96 -16.2,-87.08 -15.86,-87.08 -15.8,-86.95 -16.06,-86.69 -16.65,-86.27 -17.57,-85.7 -18.8,-84.97 -20.37,-84.04 -22.32,-82.9 -24.74,-81.51 -27.69,-79.92 -31.27,-78.09" fill="none" stroke="url(#rainbowGradient)" stroke-width="2" stroke-linejoin="round" filter="url(#fuzzy)" /><polyline points="18.62,-86.32 19.19,-86.04 20.16,-85.54 21.45,-84.84 22.96,-83.99 24.55,-83.06 26.1,-82.13 27.53,-81.23 28.85,-80.4 30.05,-79.62 31.13,-78.92 32.03,-78.33 32.71,-77.89 33.15,-77.62 33.17,-77.65" fill="none" stroke="url(#rainbowGradient)" stroke-width="2" stroke-linejoin="round" filter="url(#fuzzy)" /><polyline points="7.9,-89.25 9.49,-89.03 10.25,-88.86 10.8,-88.58 11.09,-88.23 11.05,-87.85 10.63,-87.43 9.82,-86.95 8.59,-86.4 6.87,-85.79 4.64,-85.13 1.91,-84.43 -1.29,-83.7 -4.98,-82.91 -9.21,-82.04 -14.1,-81.08 -19.79,-79.97 -26.32,-78.67" fill="none" stroke="url(#rainbowGradient)" stroke-width="2" stroke-linejoin="round" filter="url(#fuzzy)" /><polyline points="10.63,-88.78 10.73,-88.92 11.51,-88.7 12.31,-88.44 12.84,-88.19 13.07,-87.96 12.99,-87.73 12.59,-87.5 11.82,-87.29 10.64,-87.12 9.04,-87 6.99,-86.9 4.44,-86.8 1.34,-86.7 -2.43,-86.62 -6.99,-86.54 -12.49,-86.45" fill="none" stroke="url(#rainbowGradient)" stroke-width="2" stroke-linejoin="round" filter="url(#fuzzy)" /><polyline points="36.22,-75.01 36.51,-74.59 36.59,-73.9 36.27,-73.09 35.41,-72.29 33.95,-71.54 31.85,-70.87 29.06,-70.28 25.56,-69.78 21.31,-69.35 16.26,-69 10.42,-68.72 3.77,-68.53 -3.67,-68.44 -11.93,-68.45 -21.07,-68.59 -31.06,-68.92" fill="none" stroke="url(#rainbowGradient)" stroke-width="2" stroke-linejoin="round" filter="url(#fuzzy)" /><polyline points="46.01,-63.92 46.54,-62.86 46.54,-62.11 45.85,-61.72 44.59,-61.54 42.8,-61.48 40.44,-61.53 37.45,-61.73 33.8,-62.11 29.47,-62.69 24.43,-63.49 18.66,-64.54 12.1,-65.85 4.67,-67.45 -3.7,-69.35 -12.99,-71.52 -23.05,-74.03" fill="none" stroke="url(#rainbowGradient)" stroke-width="2" stroke-linejoin="round" filter="url(#fuzzy)" /><polyline points="-35.21,-75.94 -34.97,-76.21 -34.08,-76.88 -33.04,-77.65 -31.93,-78.48 -30.81,-79.3 -29.72,-80.08 -28.71,-80.78 -27.79,-81.4 -26.93,-81.97 -26.13,-82.49 -25.37,-82.95 -24.71,-83.35 -24.22,-83.63 -23.97,-83.77 -24.02,-83.74 -24.34,-83.55 -24.88,-83.21 -25.6,-82.75 -26.51,-82.17 -27.67,-81.46 -29.16,-80.62" fill="none" stroke="url(#rainbowGradient)" stroke-width="2" stroke-linejoin="round" filter="url(#fuzzy)" /><polyline points="54.89,-49.38 55.01,-48.98 55.04,-48.52 54.93,-48.01 54.62,-47.56 54.06,-47.28 53.21,-47.27 52.02,-47.61 50.47,-48.32 48.53,-49.43 46.21,-50.93 43.49,-52.83 40.36,-55.15 36.82,-57.91 32.86,-61.13 28.45,-64.8 23.57,-68.93 18.15,-73.51 12.1,-78.57 5.3,-84.13" fill="none" stroke="url(#rainbowGradient)" stroke-width="2" stroke-linejoin="round" filter="url(#fuzzy)" /><polyline points="25.36,-83.05 25.67,-82.85 26.59,-82.31 27.45,-81.77 28.16,-81.26 28.75,-80.76 29.23,-80.27 29.54,-79.84 29.65,-79.51 29.51,-79.29 29.11,-79.18 28.48,-79.19 27.6,-79.3 26.5,-79.51 25.15,-79.81 23.55,-80.19 21.64,-80.66 19.4,-81.23 16.79,-81.92 13.8,-82.75 10.48,-83.73 6.84,-84.89 2.81,-86.22 -1.91,-87.73" fill="none" stroke="url(#rainbowGradient)" stroke-width="2" stroke-linejoin="round" filter="url(#fuzzy)" /><polyline points="-14,-87.98 -12.12,-88.43 -10.79,-88.72 -9.67,-88.9 -8.53,-89.01 -7.2,-89.11 -5.7,-89.2 -4.14,-89.29 -2.6,-89.38 -1.15,-89.46 0.21,-89.53 1.5,-89.57 2.71,-89.6 3.79,-89.61 4.69,-89.6 5.35,-89.6 5.76,-89.61 5.9,-89.64 5.78,-89.7 5.46,-89.76 4.98,-89.78 4.34,-89.79" fill="none" stroke="url(#rainbowGradient)" stroke-width="2" stroke-linejoin="round" filter="url(#fuzzy)" /><polyline points="37.09,-74.35 38.38,-72.84 38.92,-71.81 39.07,-70.89 38.84,-70.02 38.21,-69.18 37.14,-68.39 35.63,-67.65 33.65,-66.95 31.2,-66.3 28.28,-65.7 24.87,-65.15 20.96,-64.67 16.53,-64.23 11.59,-63.85 6.14,-63.49 0.16,-63.14 -6.35,-62.8 -13.44,-62.44 -21.17,-62.03 -29.6,-61.55 -38.77,-61" fill="none" stroke="url(#rainbowGradient)" stroke-width="2" stroke-linejoin="round" filter="url(#fuzzy)" /><polyline points="-30.21,-80.12 -29.17,-80.41 -27.75,-80.59 -25.8,-80.74 -23.28,-80.82 -20.2,-80.83 -16.65,-80.76 -12.75,-80.59 -8.61,-80.3 -4.29,-79.89 0.22,-79.4 4.93,-78.86 9.83,-78.31 14.87,-77.76 20.01,-77.22 25.23,-76.65 30.61,-75.98" fill="none" stroke="url(#rainbowGradient)" stroke-width="2" stroke-linejoin="round" filter="url(#fuzzy)" /><polyline points="-24.51,-83.28 -23.35,-83.8 -21.83,-84.02 -19.98,-83.91 -17.68,-83.6 -14.88,-83.17 -11.6,-82.62 -7.91,-81.93 -3.85,-81.11 0.54,-80.2 5.23,-79.2 10.14,-78.12 15.2,-76.95 20.34,-75.72 25.49,-74.45 30.6,-73.16 35.69,-71.83" fill="none" stroke="url(#rainbowGradient)" stroke-width="2" stroke-linejoin="round" filter="url(#fuzzy)" /><polyline points="28.52,-81.25 28.78,-81.04 29.54,-80.45 30.49,-79.72 31.34,-79.07 31.95,-78.58 32.27,-78.28 32.3,-78.17 32.02,-78.27 31.42,-78.59 30.45,-79.16 29.05,-80.02 27.18,-81.14 24.88,-82.52 22.15,-84.17" fill="none" stroke="url(#rainbowGradient)" stroke-width="2" stroke-linejoin="round" filter="url(#fuzzy)" /><polyline points="-30.21,-80.12 -29.4,-80.5 -28.69,-80.92 -27.92,-81.44 -27.03,-82.02 -26.04,-82.61 -25.01,-83.19 -24.06,-83.72 -23.25,-84.17 -22.61,-84.51 -22.14,-84.75 -21.82,-84.89 -21.66,-84.93 -21.64,-84.87 -21.76,-84.71 -22.04,-84.44 -22.51,-84.05 -23.22,-83.52 -24.24,-82.81 -25.64,-81.88 -27.44,-80.72 -29.63,-79.36 -32.28,-77.79" fill="none" stroke="url(#rainbowGradient)" stroke-width="2" stroke-linejoin="round" filter="url(#fuzzy)" /><polyline points="-18.43,-86.62 -18.07,-86.62 -16.91,-86.96 -15.48,-87.38 -14.01,-87.78 -12.6,-88.14 -11.27,-88.46 -10.03,-88.73 -8.89,-88.97 -7.8,-89.17 -6.75,-89.35 -5.75,-89.52 -4.85,-89.67 -4.11,-89.81 -3.55,-89.92 -3.19,-89.99 -3.01,-90.01 -3.01,-89.99 -3.25,-89.91 -3.82,-89.78 -4.76,-89.62 -6.03,-89.45 -7.43,-89.27 -8.86,-89.12" fill="none" stroke="url(#rainbowGradient)" stroke-width="2" stroke-linejoin="round" filter="url(#fuzzy)" /><polyline points="18.96,-86.17 19.68,-85.88 20.42,-85.55 21.17,-85.17 21.73,-84.81 22.01,-84.52 21.93,-84.33 21.5,-84.26 20.73,-84.29 19.58,-84.44 17.99,-84.73 15.88,-85.17 13.17,-85.75 9.77,-86.5 5.58,-87.44 0.68,-88.58" fill="none" stroke="url(#rainbowGradient)" stroke-width="2" stroke-linejoin="round" filter="url(#fuzzy)" /><polyline points="-9.41,-89.25 -9.64,-89.12 -9.18,-89.1 -8.53,-89.02 -8.08,-88.82 -8.05,-88.45 -8.49,-87.91 -9.34,-87.16 -10.54,-86.2 -12.1,-85 -14.09,-83.55 -16.64,-81.84 -19.8,-79.85 -23.61,-77.58 -28.04,-75.03 -33.05,-72.24 -38.59,-69.21" fill="none" stroke="url(#rainbowGradient)" stroke-width="2" stroke-linejoin="round" filter="url(#fuzzy)" /><polyline points="52.29,-54.27 52.7,-53.46 53.16,-52.44 53.53,-51.41 53.67,-50.61 53.55,-50.06 53.21,-49.7 52.65,-49.5 51.87,-49.48 50.84,-49.66 49.56,-50.1 47.99,-50.83 46.12,-51.86 43.95,-53.2 41.48,-54.85 38.7,-56.83 35.6,-59.14 32.19,-61.8 28.44,-64.8 24.32,-68.13 19.78,-71.81 14.74,-75.82 9.11,-80.2 2.81,-84.96" fill="none" stroke="url(#rainbowGradient)" stroke-width="2" stroke-linejoin="round" filter="url(#fuzzy)" /><polyline points="11.53,-88.6 13.07,-88.29 13.86,-88.02 14.34,-87.76 14.67,-87.42 14.78,-87.04 14.6,-86.65 14.08,-86.26 13.23,-85.88 12.08,-85.47 10.62,-85.04 8.8,-84.58 6.54,-84.09 3.77,-83.58 0.45,-83.04 -3.4,-82.49 -7.74,-81.93 -12.57,-81.39 -17.86,-80.9 -23.68,-80.47" fill="none" stroke="url(#rainbowGradient)" stroke-width="2" stroke-linejoin="round" filter="url(#fuzzy)" /><polyline points="39,-72.15 40.31,-70.85 40.77,-70.07 40.74,-69.54 40.23,-69.23 39.21,-69.16 37.65,-69.35 35.51,-69.79 32.74,-70.51 29.34,-71.52 25.29,-72.85 20.6,-74.54 15.25,-76.57 9.16,-78.91 2.23,-81.54 -5.58,-84.55" fill="none" stroke="url(#rainbowGradient)" stroke-width="2" stroke-linejoin="round" filter="url(#fuzzy)" /><polyline points="4.28,-89.8 4.82,-89.78 5.55,-89.77 6.4,-89.67 7.21,-89.52 7.84,-89.38 8.24,-89.24 8.41,-89.12 8.32,-89 7.96,-88.88 7.25,-88.77 6.12,-88.67 4.49,-88.59 2.34,-88.52 -0.3,-88.5 -3.34,-88.56 -6.69,-88.72" fill="none" stroke="url(#rainbowGradient)" stroke-width="2" stroke-linejoin="round" filter="url(#fuzzy)" /><polyline points="55.61,-47.76 55.65,-47.4 55.64,-46.41 55.23,-45.71 54.38,-45.37 53.07,-45.42 51.24,-45.9 48.87,-46.81 45.95,-48.15 42.49,-49.91 38.47,-52.12 33.88,-54.82 28.64,-58 22.72,-61.64 16.08,-65.72 8.69,-70.2 0.47,-75.11 -8.69,-80.45" fill="none" stroke="url(#rainbowGradient)" stroke-width="2" stroke-linejoin="round" filter="url(#fuzzy)" /><polyline points="-4.23,-90.12 -2.42,-90.15 -0.66,-90.03 1.05,-89.79 2.69,-89.46 4.28,-89.06 5.87,-88.63 7.49,-88.17 9.18,-87.69 10.94,-87.17 12.75,-86.63 14.58,-86.07 16.36,-85.52 18.05,-85 19.61,-84.54 21.02,-84.15 22.26,-83.82 23.3,-83.55 24.09,-83.36 24.57,-83.27 24.8,-83.27" fill="none" stroke="url(#rainbowGradient)" stroke-width="2" stroke-linejoin="round" filter="url(#fuzzy)" /><polyline points="28.52,-81.25 28.79,-81.03 29.57,-80.42 30.55,-79.68 31.46,-78.97 32.21,-78.37 32.77,-77.89 33.14,-77.53 33.34,-77.28 33.36,-77.14 33.2,-77.1 32.88,-77.16 32.39,-77.31 31.71,-77.56 30.82,-77.93 29.67,-78.46 28.18,-79.19 26.34,-80.16 24.11,-81.37 21.49,-82.82 18.36,-84.57 14.54,-86.69" fill="none" stroke="url(#rainbowGradient)" stroke-width="2" stroke-linejoin="round" filter="url(#fuzzy)" /><polyline points="52.29,-54.27 52.69,-53.49 53.11,-52.52 53.42,-51.57 53.46,-50.9 53.23,-50.53 52.73,-50.41 51.98,-50.51 50.95,-50.84 49.63,-51.46 47.99,-52.41 46,-53.73 43.63,-55.44 40.89,-57.56 37.76,-60.07 34.23,-63 30.28,-66.38 25.87,-70.23 20.99,-74.53 15.7,-79.23 10.11,-84.28" fill="none" stroke="url(#rainbowGradient)" stroke-width="2" stroke-linejoin="round" filter="url(#fuzzy)" /><polyline points="-7.25,-89.44 -5.95,-89.6 -4.64,-89.75 -3.55,-89.87 -2.43,-89.95 -1.16,-90 0.18,-90.02 1.43,-90.01 2.45,-89.98 3.17,-89.93 3.6,-89.88 3.74,-89.86 3.58,-89.88 3.09,-89.95 2.22,-90.08" fill="none" stroke="url(#rainbowGradient)" stroke-width="2" stroke-linejoin="round" filter="url(#fuzzy)" /><polyline points="34.04,-77.09 34.48,-76.58 35.05,-76.02 35.75,-75.36 36.47,-74.7 37.18,-74.04 37.9,-73.37 38.58,-72.7 39.18,-72.09 39.63,-71.62 39.9,-71.3 39.96,-71.19 39.77,-71.3 39.32,-71.67 38.57,-72.33 37.5,-73.33 36.07,-74.68 34.33,-76.37" fill="none" stroke="url(#rainbowGradient)" stroke-width="2" stroke-linejoin="round" filter="url(#fuzzy)" /><polyline points="48.27,-60.72 48.47,-60.26 49.11,-59.27 49.82,-58.21 50.46,-57.23 51.03,-56.33 51.5,-55.53 51.86,-54.86 52.08,-54.38 52.13,-54.16 51.96,-54.29 51.52,-54.85 50.82,-55.84 49.83,-57.29 48.55,-59.22 46.95,-61.67 45.04,-64.7" fill="none" stroke="url(#rainbowGradient)" stroke-width="2" stroke-linejoin="round" filter="url(#fuzzy)" /><polyline points="18.96,-86.17 19.74,-85.86 20.67,-85.46 21.71,-84.98 22.71,-84.49 23.56,-84.04 24.2,-83.67 24.65,-83.38 24.9,-83.18 24.93,-83.08 24.69,-83.08 24.16,-83.21 23.31,-83.46 22.07,-83.88 20.38,-84.5 18.18,-85.36 15.47,-86.45 12.24,-87.72" fill="none" stroke="url(#rainbowGradient)" stroke-width="2" stroke-linejoin="round" filter="url(#fuzzy)" /><polyline points="34.04,-77.09 34.35,-76.63 34.54,-76.22 34.58,-75.79 34.39,-75.39 33.98,-75.01 33.34,-74.6 32.46,-74.16 31.29,-73.74 29.78,-73.36 27.89,-73.05 25.57,-72.83 22.77,-72.71 19.48,-72.69 15.68,-72.78 11.4,-72.99 6.65,-73.33 1.42,-73.81 -4.32,-74.41 -10.66,-75.12 -17.67,-75.85 -25.32,-76.54" fill="none" stroke="url(#rainbowGradient)" stroke-width="2" stroke-linejoin="round" filter="url(#fuzzy)" /><polyline points="-27.3,-82.09 2.49,-77.72 12.18,-73.17 10.01,-73.43 7.43,-74.65 7,-75 8.11,-74.06 11.37,-71.36 17.57,-66.53 24.97,-60.26 29.4,-54.73 28.02,-52.65 22.88,-55.66 18.84,-64.07 14.39,-77.86 3.27,-89.84" fill="none" stroke="url(#rainbowGradient)" stroke-width="2" stroke-linejoin="round" filter="url(#fuzzy)" /><polyline points="59.99,-35.47 16.82,-65.58 -0.38,-73.53 -9.38,-75.62 -11.13,-77.69 -8.65,-80.34 -5.65,-82.55 -3.82,-83.3 -2.73,-82.17 -1.45,-79.39 0.14,-75.71 1.3,-72.18 1.53,-69.58 1.26,-68.23 1.33,-68.41 1.75,-70.95 0.94,-76.25 -6.74,-81.25 -33.77,-77.21" fill="none" stroke="url(#rainbowGradient)" stroke-width="2" stroke-linejoin="round" filter="url(#fuzzy)" /><polyline points="29.13,-80.71 32.21,-68.24 25.3,-72.14 24.14,-74.2 25.46,-73.52 25.34,-72.64 22.83,-72.74 18.86,-73.46 14.41,-74.11 10.03,-74.39 6.51,-74.38 5.34,-74.22 8.14,-73.83 15.16,-72.98 24.17,-71.77 30.88,-71.07 31.1,-72.62 22.87,-77.99 8.04,-85.79 -6.43,-89.57" fill="none" stroke="url(#rainbowGradient)" stroke-width="2" stroke-linejoin="round" filter="url(#fuzzy)" /><polyline points="45.97,-64.57 20.66,-74.5 14.4,-76.06 8.98,-77.54 3.98,-78.56 1.82,-78.27 3.88,-76.58 9.09,-74.02 14.96,-71.25 19.34,-68.75 21.43,-66.6 21.4,-64.6 19.52,-62.68 15.92,-61.14 11.19,-60.71 7.11,-62.05 6.21,-65.13 10.2,-68.99 18.27,-72.03 27.19,-72.82 33.26,-70.87 33.32,-66.91 20.48,-64.77 -30.21,-80.12" fill="none" stroke="url(#rainbowGradient)" stroke-width="2" stroke-linejoin="round" filter="url(#fuzzy)" /><polyline points="58.86,-38.82 39,-50.96 23.53,-61.92 17.6,-67.86 13.89,-70.4 9.19,-71.64 3.42,-72.9 -1.96,-74.42 -5.11,-75.77 -4.83,-76.36 -1.23,-75.81 4.5,-74.08 10.73,-71.45 16,-68.49 19.26,-65.94 19.89,-64.48 17.84,-64.56 13.71,-66.24 8.65,-69.07 4.06,-72.33 1.06,-75.25 0.07,-77.26 0.87,-77.15 8.16,-71.3 52.29,-54.27" fill="none" stroke="url(#rainbowGradient)" stroke-width="2" stroke-linejoin="round" filter="url(#fuzzy)" /><polyline points="32.19,-78.39 23.01,-78.45 6.04,-78.49 -0.61,-77.11 3.39,-75.11 9.92,-73.57 12.36,-73.38 9.78,-74.43 5.5,-75.91 3.11,-77.03 2.94,-77.46 1.61,-76.94 -5.23,-75.14 -18.44,-72.15 -32.53,-69.26 -37.52,-69.97 -23.64,-83.86" fill="none" stroke="url(#rainbowGradient)" stroke-width="2" stroke-linejoin="round" filter="url(#fuzzy)" /><polyline points="56.35,-45.62 30.16,-46.51 3.05,-50.54 -5.3,-54.66 -5.47,-59.92 -4.8,-66.07 -3.69,-71.23 -1.58,-73.71 -0.33,-73.25 -2.6,-71.26 -8.63,-69.75 -15.4,-69.82 -19.34,-70.45 -17.87,-68.55 -2.07,-60.05 58.84,-39.26" fill="none" stroke="url(#rainbowGradient)" stroke-width="2" stroke-linejoin="round" filter="url(#fuzzy)" /><polyline points="34.64,-76.29 0.3,-79.97 -8.59,-77.62 -10.64,-74.13 -9.09,-71.59 -3.58,-70.59 3.49,-70.85 8.65,-71.83 10.47,-73 10.1,-74.01 9.49,-74.64 9.41,-74.72 8.86,-74.16 6.24,-73.07 1.18,-71.83 -4.29,-71.02 -6.39,-70.9 -1.96,-70.96 8.63,-70.3 19.94,-69.22 23.29,-71.06 14.62,-79.85 14.2,-88.17" fill="none" stroke="url(#rainbowGradient)" stroke-width="2" stroke-linejoin="round" filter="url(#fuzzy)" /><polyline points="-19.83,-86.07 10.94,-77.27 15.36,-78.4 16.62,-79.03 17.36,-77.48 16.69,-73.86 14.83,-68.53 13.46,-62.35 14.27,-56.82 17.36,-53.71 20.63,-54.31 20.95,-58.91 17.02,-66.31 12.23,-73.79 13.51,-77.8 25.28,-74.32 52.29,-54.27" fill="none" stroke="url(#rainbowGradient)" stroke-width="2" stroke-linejoin="round" filter="url(#fuzzy)" /><polyline points="62.32,-27.95 -6.85,-51.52 -29.99,-59.87 -29.96,-64.19 -18.61,-68 -3.62,-71.33 10.51,-73.14 21.8,-73.05 29.58,-71.66 33.72,-69.84 34.36,-68.14 31.7,-66.9 26.02,-66.56 18.26,-67.24 10.71,-67.74 6.29,-66.23 2.43,-64.66 -35.21,-75.94" fill="none" stroke="url(#rainbowGradient)" stroke-width="2" stroke-linejoin="round" filter="url(#fuzzy)" /><polyline points="5.53,-89.95 13.04,-83.65 14.96,-79.86 9.59,-79.85 5.36,-79.69 5.27,-78.2 7.1,-76.18 8.46,-74.55 9.59,-73.45 12.31,-72.49 17.13,-71.21 21.67,-69.47 21.94,-67.45 15.86,-65.42 7.15,-63.15 6.6,-60.26 23.26,-60.01 30.74,-79.53" fill="none" stroke="url(#rainbowGradient)" stroke-width="2" stroke-linejoin="round" filter="url(#fuzzy)" /><polyline points="10.63,-88.78 5.72,-88.78 2.53,-86.04 -3.05,-82.51 -6.54,-80.37 -6.54,-79.85 -5.13,-79.77 -4.54,-78.74 -4.98,-76.01 -4.66,-71.66 -1.24,-66.34 6.39,-60.93 16.99,-56.24 27.16,-53.1 32.96,-52.3 32.22,-54.42 26.25,-59.14 19.77,-64.81 17.71,-68.87 18.22,-69.31 5.09,-65.97 -51.18,-56.38" fill="none" stroke="url(#rainbowGradient)" stroke-width="2" stroke-linejoin="round" filter="url(#fuzzy)" />
    </g>
    
        <g id="lineNose">
        <path d="M -9.54,0.7400000000000002 Q 8.38, 9.24 -0.5799999999999992, -4.712" fill="none" stroke="black" stroke-width="3" stroke-linejoin="round" filter="url(#fuzzy)"></path>
        </g>
      
    <g id="mouth">
      <polyline points="-32.61,49.52 -32.07,48.99 -31.51,48.47 -30.94,47.95 -30.35,47.45 -29.75,46.95 -29.13,46.47 -28.5,46 -27.86,45.53 -27.21,45.08 -26.54,44.63 -25.86,44.2 -25.17,43.77 -24.47,43.36 -23.76,42.95 -23.04,42.56 -22.31,42.17 -21.57,41.8 -20.82,41.43 -20.06,41.08 -19.3,40.74 -18.52,40.41 -17.74,40.09 -16.95,39.78 -16.16,39.48 -15.36,39.19 -14.55,38.91 -13.74,38.65 -12.92,38.39 -12.1,38.15 -11.27,37.91 -10.44,37.69 -9.6,37.48 -8.77,37.29 -7.93,37.1 -7.08,36.92 -6.24,36.76 -5.39,36.61 -4.54,36.47 -3.69,36.34 -2.84,36.23 -2,36.12 -1.15,36.03 -0.3,35.95 0.55,35.88 1.39,35.83 2.24,35.79 3.08,35.76 3.92,35.74 4.75,35.73 5.59,35.74 6.41,35.76 7.24,35.79 8.06,35.84 8.87,35.9 9.68,35.97 10.49,36.06 11.28,36.15 12.07,36.27 12.86,36.39 13.63,36.53 14.4,36.68 15.16,36.84 15.92,37.02 16.66,37.21 17.39,37.42 18.12,37.64 18.83,37.87 19.54,38.12 20.23,38.38 20.91,38.66 21.58,38.95 22.24,39.25 22.89,39.57 23.52,39.9 24.14,40.25 24.75,40.61 25.34,40.98 25.92,41.37 26.48,41.78 27.03,42.2 27.56,42.63 28.08,43.08 28.58,43.54 29.06,44.02 29.53,44.52 29.98,45.03 30.41,45.55 30.82,46.09 31.22,46.64 31.59,47.21 31.95,47.8 32.29,48.4 32.6,49.02 32.9,49.65 33.17,50.3 33.43,50.96 33.66,51.64 33.87,52.34 34.06,53.05 34.06,53.05 33.39,52.93 32.72,52.81 32.06,52.69 31.39,52.57 30.72,52.46 30.06,52.34 29.39,52.23 28.72,52.12 28.06,52.02 27.39,51.91 26.72,51.81 26.06,51.71 25.39,51.61 24.72,51.51 24.06,51.42 23.39,51.32 22.72,51.23 22.06,51.14 21.39,51.06 20.72,50.97 20.06,50.89 19.39,50.81 18.72,50.73 18.06,50.65 17.39,50.57 16.72,50.5 16.06,50.43 15.39,50.36 14.72,50.29 14.06,50.22 13.39,50.16 12.72,50.1 12.06,50.03 11.39,49.98 10.72,49.92 10.06,49.86 9.39,49.81 8.72,49.76 8.06,49.71 7.39,49.66 6.72,49.61 6.06,49.56 5.39,49.52 4.72,49.48 4.06,49.44 3.39,49.4 2.72,49.36 2.06,49.33 1.39,49.3 0.72,49.26 0.06,49.23 -0.61,49.21 -1.28,49.18 -1.94,49.15 -2.61,49.13 -3.28,49.11 -3.94,49.09 -4.61,49.07 -5.28,49.05 -5.94,49.04 -6.61,49.02 -7.28,49.01 -7.94,49 -8.61,48.99 -9.28,48.98 -9.94,48.97 -10.61,48.97 -11.28,48.97 -11.94,48.96 -12.61,48.96 -13.28,48.96 -13.94,48.97 -14.61,48.97 -15.28,48.98 -15.94,48.98 -16.61,48.99 -17.28,49 -17.94,49.01 -18.61,49.02 -19.28,49.04 -19.94,49.05 -20.61,49.07 -21.28,49.09 -21.94,49.11 -22.61,49.13 -23.28,49.15 -23.94,49.17 -24.61,49.2 -25.28,49.22 -25.95,49.25 -26.61,49.28 -27.28,49.31 -27.95,49.34 -28.61,49.37 -29.28,49.4 -29.95,49.44 -30.61,49.48 -31.28,49.51 -31.95,49.55" fill="rgb(204, 131, 102)" stroke="black" stroke-width="3" stroke-linejoin="round" filter="url(#fuzzy)" />
    </g>
  </svg>