<svg xmlns="http://www.w3.org/2000/svg" width="500" height="500" viewBox="-100 -100 200 200"><defs><clipPath id="c"><path d="m28.44-2.81-.14-.12-.18-.11-.21-.12-.25-.12-.29-.13-.32-.12-.35-.12-.39-.12-.42-.11-.45-.12-.49-.11-.51-.11-.55-.1-.57-.1-.6-.1-.57-.16-.61-.16-.66-.15-.71-.13-.75-.13-.79-.11-.83-.1-.86-.08-.91-.08-.93-.06-.96-.05-.99-.03-1.01-.03-1.02-.01h-1.05l-1.06.01-1.07.02-1.08.03-1.08.04-1.08.05-1.09.05-1.08.07-1.07.07-1.07.09-1.05.08-1.04.1-1.02.1-1.01.1-.99.11-.96.12-.95.11-.92.12-.89.12-.87.13-.84.12-.81.13-.79.13-.75.12-.73.13-.7.13-.67.13-.63.12-.62.13-.58.12-.56.12-.53.12-.51.12-.48.12-.46.11-.44.11-.42.11-.4.11-.38.11-.36.1-.34.11-.32.1-.3.1-.29.1-.27.09-.25.09-.24.1-.22.09-.21.08-.2.09 3.03 4.41.32.16.33.16.35.15.35.16.37.15.37.15.38.14.4.15.4.13.42.14.43.13.43.12.45.12.46.11.47.11.49.1.5.1.51.09.52.08.54.08.55.06.57.06.58.05.59.04.61.02.62.02h.64l.65-.01.66-.03.68-.03.68-.05.71-.07.71-.07.72-.09.74-.1.74-.11.76-.12.77-.14.77-.14.78-.16.79-.16.8-.18.8-.18.8-.19.81-.19.81-.2.82-.2.81-.21.82-.21.82-.2.81-.21.81-.21.8-.2.8-.2.8-.19.79-.19.77-.18.77-.17.76-.17.75-.15.73-.15.72-.13.7-.12.69-.11.6-.16.6-.15.58-.14.57-.15.55-.14.54-.14.53-.14.5-.13.49-.14.47-.13.45-.13.43-.13.41-.13.39-.13.36-.13"/></clipPath><clipPath id="b"><path d="m-28.66-2.76.27-.14.3-.14.33-.15.36-.15.39-.14.41-.15.45-.15.48-.14.5-.14.53-.14.55-.14.59-.13.6-.13.64-.12.65-.11.63-.2.68-.19.72-.18.75-.16.8-.15.83-.13.86-.12.9-.11.93-.09.95-.07.98-.06 1-.04 1.01-.03 1.04-.02h1.04l1.06.01 1.07.03 1.07.03 1.07.05 1.07.06 1.07.07 1.06.08 1.06.09 1.04.1 1.03.11 1.02.11 1 .12.98.12.97.14.94.13.91.14.9.15.87.14.84.15.81.15.79.15.76.16.73.15.7.15.68.16.64.15.62.15.59.15.56.15.54.15.51.14.49.14.47.14.44.14.43.14.4.13.38.13.37.13.34.13.33.12.31.13.29.12.28.12.25.11.25.12.22.11.22.11.2.11.18.1-2.71 4.49-.33.17-.34.16-.35.16-.36.16-.38.16-.39.15-.4.15-.41.15-.43.14-.44.13-.46.14-.47.12-.49.12-.5.12-.51.1-.53.11-.55.09-.56.1-.59.08-.6.07-.61.07-.64.06-.65.04-.68.04-.69.02-.71.01h-.73l-.74-.02-.77-.03-.78-.04-.79-.05-.81-.07-.83-.09-.84-.09-.85-.11-.86-.12-.88-.13-.88-.14-.89-.16-.9-.16-.9-.17-.91-.18-.91-.19-.91-.2-.91-.2-.91-.21-.9-.21-.9-.21-.88-.21-.88-.22-.87-.21-.86-.21-.84-.21-.83-.2-.8-.19-.79-.19-.77-.19-.74-.17-.72-.16-.7-.15-.67-.14-.64-.13-.61-.12-.58-.1-.57-.15-.55-.15-.54-.15-.51-.14-.49-.14-.48-.13-.45-.14-.43-.13-.41-.12-.39-.13-.37-.13-.34-.12-.32-.12-.29-.13-.27-.12"/></clipPath><linearGradient id="d" x1="0%" x2="100%" y1="0%" y2="0%"><stop offset="0%" style="stop-color:[object Object];stop-opacity:1"/><stop offset="74.4%" style="stop-color:[object Object];stop-opacity:1"/><stop offset="100%" style="stop-color:[object Object];stop-opacity:1"/></linearGradient><filter id="a"><feTurbulence baseFrequency=".05" numOctaves="3" result="noise" type="noise"/><feDisplacementMap in="SourceGraphic" in2="noise" scale="2"/></filter></defs><rect width="100%" height="100%" x="-100" y="-100" fill="#B0E0E6"/><path fill="#C04000" stroke="#000" stroke-linejoin="round" stroke-width="1.667" d="m61.99.32-.01.41-.03 2.53-.04 1.7-.19.92.04.23-.21 1.58.15.37-.07 1.6-.24.93-.23 1.29-.12 2.56-.24.45-.19 1.44.32-1.28-.59 2.56-.17 1.02-.11.65-.17.96-.59 2.82.02-.18-.62 2-.6 2.59.01-.12-.64 1.76-.09-.08-.39 1.92-.08.68-1.08 1.88.34-.49-.72 1.74-.13.94-1.21 2.35-.67 1.68-.63 1.19-.46.91-.15.56-.49.44-.75 1.5-.35 1.04-.34.42-.26.45-1 1.49-1.16 1.5-.05.22-.84 1.47.1-.06-1.86 2.49-.07.5-.27.01-.51.81-.91 1.06-1.11 1.11.28-.17-2.65 3.13-.25.03-.88 1.16-.12-.14-1.39 1.56.63-.86-1.7 1.9-.55.26-1.03.94.42-.37-1.35 1.06-1.81 1.6-.45.12-1.64 1.33-.45.23-.13.3-.01-.18-1.69 1.31-2.13 1.06-.29.15-.62.45-.94.61-.54.21-2.45 1.24.5-.42-.33.08-2.81 1.48 1.04-.8-.44.31-2.29 1-1.24.49.34-.34-1.15.46-1.68.53-.42.05-1.04.18-1.13.36-1.64.14-1.93.28-.09-.06-.91.1-.55.37-.56-.25-1.73.44-.86-.17-.44.16-1.03.07-1.1-.15-.59.09-1.56-.1-.06-.22-1.27-.04-1.96-.06-.02-.25-1.36-.06-1.19-.01-1.76-.45-.99-.31-.7.05.7-.22-2.9-.52.12-.18.18.25-3.75-1.44.31.31-.87-.41.39.02-2.38-1.04-.35-.07-1.14-.47-1.76-.9 1.06.61-1.02-.72-2.1-.85.79.33L-27 70.2l.06.4-1.48-1.36-1.85-1.06-1.29-.98-.15-.06-.15-.11-1.47-1.05-1.4-1.04.8.38-1.21-1.08-1.93-1.63h-.23l-.67-.85-.8-.98-.81-.42-.67-1.13-.76-.71-.25-.06-1.54-2-.65-.94-.8-.4-.4-.66.24.01-1.26-1.68-.29-.08-1.1-1.91-.88-1.08-.13-.72-1.39-2.05-.37-.48.28.57-1.28-2.09-.91-1.87.21.17-.71-1.1-.19-.43-.72-1.38-.3-.81-.28-.53-.85-2.17-.36-.21-1.09-2.83-.1-.05.14-.35-1.04-2.83-.35-1.03.01-.25-.96-2.23-.22-1.22.16.6-.66-2.39-.3-1.53-.41-1.42.37 1.97-.77-4.4-.1-.66-.33-1.12-.14-.42-.06-.14-.13-2.49-.38-2.79v.76l-.37-1.92.05-.93.14-.03-.26-2.12-.09-.98.01-.78-.16-3.93.1.45-.09-1.13v-1.87l-.14-1.18.17-.81-.04-1.3.02-1.74.34-2.47.05.16.19-2.26-.04-.47.36-1.46-.21.25.7-4.27-.04 1.35.17-1.68-.02-.57.33-1.42.18-.92.36-1.62-.08.01 1.04-3.37-.13.62.27-1.82.09.05.89-2.55.58-1.55.4-1.39.5-1.52-.33.84 1.23-3.28-.37.83 1.14-2.94-.18 1.08.28-.85 1.15-2.19.99-2.39-.19.12.44-.75.63-.98.78-1.74 1.19-1.81-1.2 1.95 2.32-3.62.36-.66.68-1.3.14.23.48-.64.63-1.02.74-.88 1.16-1.49.55-.67.43-.83.61-.9.97-.97.27-.38.68-.61 2.15-2.16-1.55 1.51.7-.99 2.2-1.72.37-.5.51-.3 1.63-1.42.44-.25 1.1-.9 1.24-1.05-.74.61 2.35-2.15.93-.19.2-.29.27-.09 1.3-1.05.01.17 1.55-1.13.64-.12.23-.12 1.18-.68 1.48-.8.88-.58 1.43-.4-.24.04 1.4-.43.71-.58 2.85-1.02.17.14 1.27-.47 1.18-.15-.48-.08 1.86-.55 1.56-.28-.19-.01 1.94-.04-.4-.15 1.79-.27.61.16 2.59-.36-.67-.19.7-.06.38.04-.05.17 2.7-.3.7.04 2.23.28-.14-.17 1.49.16h.88l.72.3 1.3.04 1.08.05.34.17 1.72.28 1.32.35 1.03.37.17-.21.21.05.47.32 2.17.51 2.43.91-.19-.03.7.34 1.21.5.4.14 2.17.82.2.15.32.18 1.6 1.05.07-.25-.02-.07.86.86 1.76.64.8.64-.17-.05 1.9 1.31.43.29 1.01.52 2.14 1.71-.36-.28 1.18.83.36.1 2.28 2.14-.67-.33.13-.12 1.84 1.97 1.06 1.24 1.22 1.07-1.02-1.05 2.77 3.04.92.64.03.29 1.19 1.36.25.32-.29-.22.67.96.97 1.11.35.41.96 1.72.67.83 1.15 1.44.4.92 1.18 1.58-.53-.49 1.24 2.02-.08-.02.75 1.94.74.7.39.82.48 1.04.8 2.01.14.38.57.9.96 2.56.67 1.75-.2-.36.65 1.6-.67-2.02.96 2.57.68 2.54.22.35.26 1.62.24.36.05.39.71 2.44.38 2.41-.04-.82.29 1.71.22.58.27 2.14.38 1.08.16 1.24.07.41.25 1.49-.01.94.49 3.56-.07-.27-.03.95.08.75.17 2.23.17 2.34-.17-1.45.13 2.09-.06 1.88-.01.41" filter="url(#a)"/><path fill="#fff" d="m-28.66-2.76.27-.14.3-.14.33-.15.36-.15.39-.14.41-.15.45-.15.48-.14.5-.14.53-.14.55-.14.59-.13.6-.13.64-.12.65-.11.63-.2.68-.19.72-.18.75-.16.8-.15.83-.13.86-.12.9-.11.93-.09.95-.07.98-.06 1-.04 1.01-.03 1.04-.02h1.04l1.06.01 1.07.03 1.07.03 1.07.05 1.07.06 1.07.07 1.06.08 1.06.09 1.04.1 1.03.11 1.02.11 1 .12.98.12.97.14.94.13.91.14.9.15.87.14.84.15.81.15.79.15.76.16.73.15.7.15.68.16.64.15.62.15.59.15.56.15.54.15.51.14.49.14.47.14.44.14.43.14.4.13.38.13.37.13.34.13.33.12.31.13.29.12.28.12.25.11.25.12.22.11.22.11.2.11.18.1-2.71 4.49-.33.17-.34.16-.35.16-.36.16-.38.16-.39.15-.4.15-.41.15-.43.14-.44.13-.46.14-.47.12-.49.12-.5.12-.51.1-.53.11-.55.09-.56.1-.59.08-.6.07-.61.07-.64.06-.65.04-.68.04-.69.02-.71.01h-.73l-.74-.02-.77-.03-.78-.04-.79-.05-.81-.07-.83-.09-.84-.09-.85-.11-.86-.12-.88-.13-.88-.14-.89-.16-.9-.16-.9-.17-.91-.18-.91-.19-.91-.2-.91-.2-.91-.21-.9-.21-.9-.21-.88-.21-.88-.22-.87-.21-.86-.21-.84-.21-.83-.2-.8-.19-.79-.19-.77-.19-.74-.17-.72-.16-.7-.15-.67-.14-.64-.13-.61-.12-.58-.1-.57-.15-.55-.15-.54-.15-.51-.14-.49-.14-.48-.13-.45-.14-.43-.13-.41-.12-.39-.13-.37-.13-.34-.12-.32-.12-.29-.13-.27-.12" filter="url(#a)" transform="translate(31.31 -22.08)"/><path fill="#fff" d="m28.44-2.81-.14-.12-.18-.11-.21-.12-.25-.12-.29-.13-.32-.12-.35-.12-.39-.12-.42-.11-.45-.12-.49-.11-.51-.11-.55-.1-.57-.1-.6-.1-.57-.16-.61-.16-.66-.15-.71-.13-.75-.13-.79-.11-.83-.1-.86-.08-.91-.08-.93-.06-.96-.05-.99-.03-1.01-.03-1.02-.01h-1.05l-1.06.01-1.07.02-1.08.03-1.08.04-1.08.05-1.09.05-1.08.07-1.07.07-1.07.09-1.05.08-1.04.1-1.02.1-1.01.1-.99.11-.96.12-.95.11-.92.12-.89.12-.87.13-.84.12-.81.13-.79.13-.75.12-.73.13-.7.13-.67.13-.63.12-.62.13-.58.12-.56.12-.53.12-.51.12-.48.12-.46.11-.44.11-.42.11-.4.11-.38.11-.36.1-.34.11-.32.1-.3.1-.29.1-.27.09-.25.09-.24.1-.22.09-.21.08-.2.09 3.03 4.41.32.16.33.16.35.15.35.16.37.15.37.15.38.14.4.15.4.13.42.14.43.13.43.12.45.12.46.11.47.11.49.1.5.1.51.09.52.08.54.08.55.06.57.06.58.05.59.04.61.02.62.02h.64l.65-.01.66-.03.68-.03.68-.05.71-.07.71-.07.72-.09.74-.1.74-.11.76-.12.77-.14.77-.14.78-.16.79-.16.8-.18.8-.18.8-.19.81-.19.81-.2.82-.2.81-.21.82-.21.82-.2.81-.21.81-.21.8-.2.8-.2.8-.19.79-.19.77-.18.77-.17.76-.17.75-.15.73-.15.72-.13.7-.12.69-.11.6-.16.6-.15.58-.14.57-.15.55-.14.54-.14.53-.14.5-.13.49-.14.47-.13.45-.13.43-.13.41-.13.39-.13.36-.13" filter="url(#a)" transform="translate(-25.29 -24.69)"/><g fill="none" stroke="#000" transform="translate(31.31 -22.08)"><path stroke-linejoin="round" stroke-width="1.667" d="m-29.7-1.78-.03-.04v-.06l.03-.07.06-.09.09-.1.12-.11.15-.11.17-.13.21-.13.24-.14.27-.14.3-.14.33-.15.36-.15.39-.14.41-.15.45-.15.48-.14.5-.14.53-.14.55-.14.59-.13.6-.13.64-.12.65-.11.63-.2.68-.19.72-.18.75-.16.8-.15.83-.13.86-.12.9-.11.93-.09.95-.07.98-.06 1-.04 1.01-.03 1.04-.02h1.04l1.06.01 1.07.03 1.07.03 1.07.05 1.07.06 1.07.07 1.06.08 1.06.09 1.04.1 1.03.11 1.02.11 1 .12.98.12.97.14.94.13.91.14.9.15.87.14.84.15.81.15.79.15.76.16.73.15.7.15.68.16.64.15.62.15.59.15.56.15.54.15.51.14.49.14.47.14.44.14.43.14.4.13.38.13.37.13.34.13.33.12.31.13.29.12.28.12.25.11.25.12.22.11.22.11.2.11.18.1.18.11.16.1.15.1.14.09.13.1.12.09.11.1.1.09.09.09.08.08" filter="url(#a)"/><path stroke-linejoin="round" stroke-width="2.222" d="M-30.1-2.25v.18l.04.17.06.16.08.16.11.14.14.14.17.14.19.13.22.12.24.13.27.12.29.13.32.12.34.12.37.13.39.13.41.12.43.13.45.14.48.13.49.14.51.14.54.15.55.15.57.15.58.1.61.12.64.13.67.14.7.15.72.16.74.17.77.19.79.19.8.19.83.2.84.21.86.21.87.21.88.22.88.21.9.21.9.21.91.21.91.2.91.2.91.19.91.18.9.17.9.16.89.16.88.14.88.13.86.12.85.11.84.09.83.09.81.07.79.05.78.04.77.03.74.02h.73l.71-.01.69-.02.68-.04.65-.04.64-.06.61-.07.6-.07.59-.08.56-.1.55-.09.53-.11.51-.1.5-.12.49-.12.47-.12.46-.14.44-.13.43-.14.41-.15.4-.15.39-.15.38-.16.36-.16.35-.16.34-.16.33-.17.31-.16.31-.17.29-.16.28-.17.28-.17.26-.16.25-.17.24-.16.24-.17.22-.16" filter="url(#a)"/><circle cx="-6.735" cy=".917" r="3.466" clip-path="url(#b)" filter="url(#a)"/><circle cx="-6.31" cy="-1.208" r="4.716" clip-path="url(#b)" filter="url(#a)"/><circle cx="-9.945" cy="-.108" r="4.532" clip-path="url(#b)" filter="url(#a)"/><circle cx="-7.27" cy="-2.418" r="3.974" clip-path="url(#b)" filter="url(#a)"/><circle cx="-9.575" cy="-1.463" r="4.94" clip-path="url(#b)" filter="url(#a)"/><circle cx="-9.35" cy="-1.393" r="3.782" clip-path="url(#b)" filter="url(#a)"/><circle cx="-8.87" cy="-1.113" r="4.296" clip-path="url(#b)" filter="url(#a)"/><circle cx="-8.5" cy="-1.298" r="3.918" clip-path="url(#b)" filter="url(#a)"/><circle cx="-9.145" cy="1.227" r="4.852" clip-path="url(#b)" filter="url(#a)"/><circle cx="-8.095" cy=".562" r="3.368" clip-path="url(#b)" filter="url(#a)"/></g><g fill="none" stroke="#000" transform="translate(-25.29 -24.69)"><path stroke-linejoin="round" stroke-width="2.222" d="m27.86-2.04.22-.03.18-.04.15-.06.11-.07.08-.07.04-.09.01-.09-.04-.1-.06-.11-.11-.11-.14-.12-.18-.11-.21-.12-.25-.12-.29-.13-.32-.12-.35-.12-.39-.12-.42-.11-.45-.12-.49-.11-.51-.11-.55-.1-.57-.1-.6-.1-.57-.16-.61-.16-.66-.15-.71-.13-.75-.13-.79-.11-.83-.1-.86-.08-.91-.08-.93-.06-.96-.05-.99-.03-1.01-.03-1.02-.01h-1.05l-1.06.01-1.07.02-1.08.03-1.08.04-1.08.05-1.09.05-1.08.07-1.07.07-1.07.09-1.05.08-1.04.1-1.02.1-1.01.1-.99.11-.96.12-.95.11-.92.12-.89.12-.87.13-.84.12-.81.13-.79.13-.75.12-.73.13-.7.13-.67.13-.63.12-.62.13-.58.12-.56.12-.53.12-.51.12-.48.12-.46.11-.44.11-.42.11-.4.11-.38.11-.36.1-.34.11-.32.1-.3.1-.29.1-.27.09-.25.09-.24.1-.22.09-.21.08-.2.09-.18.09-.17.08-.16.08-.14.08-.14.08-.12.07-.12.08-.1.07-.1.07-.09.07" filter="url(#a)"/><path stroke-linejoin="round" stroke-width="2.222" d="m29.73-2.77-.06.19-.09.18-.13.16-.16.16-.2.15-.22.15-.25.14-.29.13-.31.14-.33.13-.36.13-.39.13-.41.13-.43.13-.45.13-.47.13-.49.14-.5.13-.53.14-.54.14-.55.14-.57.15-.58.14-.6.15-.6.16-.69.11-.7.12-.72.13-.73.15-.75.15-.76.17-.77.17-.77.18-.79.19-.8.19-.8.2-.8.2-.81.21-.81.21-.82.2-.82.21-.81.21-.82.2-.81.2-.81.19-.8.19-.8.18-.8.18-.79.16-.78.16-.77.14-.77.14-.76.12-.74.11-.74.1-.72.09-.71.07-.71.07-.68.05-.68.03-.66.03-.65.01h-.64l-.62-.02-.61-.02-.59-.04-.58-.05-.57-.06-.55-.06-.54-.08-.52-.08-.51-.09-.5-.1-.49-.1-.47-.11-.46-.11-.45-.12-.43-.12-.43-.13-.42-.14-.4-.13-.4-.15-.38-.14-.37-.15-.37-.15-.35-.16-.35-.15-.33-.16-.32-.16-.32-.16-.3-.16-.3-.16-.28-.16-.28-.16-.27-.15-.26-.16-.25-.16-.25-.16-.23-.15" filter="url(#a)"/><circle cx="-12.912" cy="-1.763" r="3.7" clip-path="url(#c)" filter="url(#a)"/><circle cx="-10.612" cy="-1.938" r="3.276" clip-path="url(#c)" filter="url(#a)"/><circle cx="-12.762" cy="1.987" r="4.396" clip-path="url(#c)" filter="url(#a)"/><circle cx="-13.862" cy=".672" r="3.906" clip-path="url(#c)" filter="url(#a)"/><circle cx="-11.757" cy="-1.523" r="4.264" clip-path="url(#c)" filter="url(#a)"/><circle cx="-11.717" cy="-2.713" r="4.134" clip-path="url(#c)" filter="url(#a)"/><circle cx="-10.927" cy=".282" r="4.226" clip-path="url(#c)" filter="url(#a)"/><circle cx="-11.197" cy="-2.743" r="3.15" clip-path="url(#c)" filter="url(#a)"/><circle cx="-12.007" cy="-1.223" r="3.288" clip-path="url(#c)" filter="url(#a)"/><circle cx="-13.867" cy="2.012" r="3.946" clip-path="url(#c)" filter="url(#a)"/></g><g fill="none" stroke="url(#d)" stroke-linejoin="round" stroke-width="2"><path d="m-7.92-77.25-1.19.65-.82.92-.81.84-.79.75-.72.81-.67 1.03-.68 1.19-.76 1.21-.85 1.16-.83 1.18-.69 1.34-.52 1.45-.41 1.35-.43 1.27-.46 1.41 7.32-16.23-1.12.43-.69.3-.75.31-.89.4-1.01.49-1.07.56-1.05.58-.97.57-.87.57-.82.61-.82.7-.83.78-.83.82-.74.74-.54.62-.34.68" filter="url(#a)"/><path d="m-13.09-76.37-.03.5-.69.2-.93.36-1.03.61-1.06.72-1.03.66-.99.54-.94.43-.91.43-.89.49-.87.56-.83.6-.79.6-.75.56-.73.49-.71.44-.67.42-.62.45-.58.56-.58.73-.65.9-.71.92-.11.32-14.8-15.18 1.97-.38 1.51-.21 1.24-.35 1.28-.07 1.45.39 1.56.71 1.53.8 1.4.72 1.25.55 1.13.39 1.07.29 1.06.28 1.08.28 1.1.22 1.07-.02 1-.47.85-1 .73-1.33.7-1.06.95.23 1.49 2.23 1.49 2.07L4.74-91.95l-1.27.35-1.17.62-1.32.69-1.34.77-1.18.91-.98 1.07-.81 1.13-.74 1.08-.75.98-.81.88-.86.83-.9.79-.89.73-.9.63-.89.51-.91.39-.9.37-.85.47-.79.67-.76.84-.83.84-1.09.75-1.88.86-.78.54-.71.6-.63.82-.66 1.05-.69 1.13-.71 1.08-.72.94-.7.79-.68.65-.67.56-.64.52-.61.52-.58.59-.55.69-.53.81-.5.96-.49 1.06-.5 1.08-.56.97-.67.81-.76.66-.72.68-.44.93.06 1.28 7.6-16.29-.8-.89-1.51-1.85-1.35-1.13-.98-.19-.79.23-.8.21-.92.07-1.07-.06-1.22-.18-1.33-.29-1.36-.29-1.32-.11-1.24.2-1.31.29-1.71-.31-2.11-1.48 2.37 19.88.77-.73.77-.52.93-.24 1.07.09 1.14.28 1.14.18 1.02-.15.88-.51.77-.73.77-.74.83-.58.93-.34 1-.14 1.04.01 1.04.08 1.01.14.97.19.91.28.89.36.87.34.85.17.89.09 1.04.69" filter="url(#a)"/><path d="m-46.97-50.83.42-.82.44-1.1.4-1.3.43-1.29.47-1.17.44-1.14.38-1.18.32-1.25.3-1.25.35-1.19.4-1.03.43-.87.41-.87.43-1.17.5-1.71.43-1.54-8.4 41.53.01-2.16-.22-1.38-.33-1.24-.31-1.24-.21-1.31-.1-1.41-.02-1.44-.01-1.4.02-1.33.11-1.25.26-1.13.44-.98.6-.8.71-.79.66-1.23-.58-2.49-.36.66 1.14.03.57-.48.84-.11 1.16.15 1.26.09 1.13-.19.86-.57.58-.9.4-1.08.36-1.07.44-.92.58-.7.68-.52.74-.38.78-.26.85-.15 1.01.01 1.21.22 1.37.39 1.37.37 1.16.09.99.23" filter="url(#a)"/><path d="m-48.15-49.1-.4-1.6-1.31-2.53-.97-2.16-.29-1.6.08-1.46.1-1.7-.05-2-.16-2.16-.08-2.03.21-1.63.53-1.18.75-.92.69-.98.47-1.21.21-1.37-.03-1.6-.2-2.48-.01-4.61 16.57 21.03-.9.11-1.02.37-.98.44-.91.53-.79.59-.7.58-.66.53-.7.47-.74.45-.77.45-.78.5-.74.59-.71.69-.68.79-.67.84-.7.82-.73.71-.74.57-.68.44-.59.43-.49.58-.43.71 13.89-5.81-1.26 1.55-1.11.48-1.02.18-.92.25-.85.36-.87.43-.91.43-.94.44-.9.45-.85.47-.79.48-.75.51-.73.59-.71.7-.66.83-.62.92-.64.91-.73.84-.86.73-.87.61-.67.41-.2.07m-4.41 10.42-.5 1.38-.54 1.47-.47 1.34-.38 1.17-.34 1.06-.35 1.04-.37 1.05-.42 1.07-.43 1.05-.43 1.02-.38.99-.32.95-.26.91-.24.92-.28 1.04-.33 1.26-.24.79" filter="url(#a)"/><path d="m-56.93-30.46-1.39-2.23-.27-1.4-.71-1.66-.88-1.8-.6-1.66-.22-1.44.02-1.36.11-1.42.11-1.52.08-1.61.01-1.71-.11-1.82-.26-1.97-.39-2.13-.43-2.22-.38-2.25-.21-2.16.04-1.97.29-1.67.41-1.35.26-1.24-.25-1.73-1.27-3.28-7.46 15.3.83 1.72.4 2.59.79 2.78 1.15 2.59 1.26 2.33 1.34 2.21 1.46 2.24 1.54 2.26 1.38 2.16.96 1.92.38 1.68-.09 1.52-.29 1.5-.14 1.53.16 1.47.54 1.67m118.45 4.06.3-.1.48.69.48 1.01.36 1.15.29 1.17.3 1.15.38 1.15.51 1.16.63 1.19.73 1.2.78 1.19.79 1.17.75 1.17.66 1.18.49 1.2.31 1.19.18 1.18.24 1.23.52 1.35.85 1.54 1.16 2.09-31.07-65.34 1.93 2.23 1.1 1.24.67.9.46.78.36.7.36.67.4.71.5.78.59.86.66.94.71.99.73 1.02.7 1.01.62.99.49.96.39.93.34.94.35 1.01.49 1.36-7.73-12.42.65.98.55 1.09.51 1.17.58 1.18.63 1.14.62 1.11.54 1.09.42 1.09.3 1.09.24 1.12.21 1.12.24 1.11.32 1.08.4 1.04.45 1.03.45 1.05.4 1.14.31 1.26.22 1.38.14 1.44.05 1.37-.05 1.15.07 1.16L27.34-77.2l1.19 1.19.81.86.74.82.78.89.81.98.79 1.1.7 1.2.63 1.22.6 1.16.6 1.03.63.89.64.8.63.82.68.9.8.94.89.84.62.55-.82.57-8.16-7.28 1.35 1.03.83.51.83.39.93.3 1.03.18 1.11.07 1.16.07 1.16.22 1.1.47 1 .7.95.83.96.83.97.75.96.62.88.55.77.5.67.49.66.5.69.55.76.66.81.84.91.97 1.11.98 1.54.85-24.58-14.67 1.21-.81 1.84-1.23 2.07-1.57 1.97-1.49 1.51-.68.97.36.69.96.82.82 1.28.12 1.8-.6 2.08-.9 2.02-.69 1.8-.21 1.72.13 1.99.1 2.26-.36 1.22-.28" filter="url(#a)"/><path d="m26.93-70.43.6.46.68.49.86.53.99.5 1.06.44 1.06.36 1.02.35.96.38.88.47.82.55.8.6.82.64.87.64.96.64 1.01.64 1.04.67 1.07.69 1.1.7 1.09.66 1 .63.83.62.65.41m-7.59-10.07-1.86-1.2-1.37-.21-1.17.01-1.13-.02-1.17-.11-1.16-.23-1.1-.3-1.04-.33-.97-.31-.96-.26-.95-.27-.88-.36-.66-.46-.39-.19-.44 1.06m-11.01-4.57-.3-.66-.3-.66-.55-.36-.81-.19-.95-.24-1-.48-.98-.75-.95-1-.93-1.12-.93-1.08-.96-.89-1.01-.61-1.08-.37-1.15-.25-1.18-.29-1.17-.42-1.08-.54-.91-.55-.74-.44-.66-.27-.78-.18-1.1-.32-1.2-1.09 18.84 12.23.78-.24.48.13.63.19.89.2 1.09.21 1.12.25 1.08.24 1 .21.98.14.97.07.99.01h.96l.9.02.83.01.76-.04.72-.16.77-.2.97.02 1.48.41" filter="url(#a)"/><path d="m2.66-77.89-1.72-.47-1.41-.55-1.2-1.16-.95-1.92-.78-2.21-.71-1.9-.78-1.25-.91-.65-1.06-.47-1.17-.8-1.21-1.44-1.18-1.88-1.11-1.66-1.01-.64-1.23.59m10.85 16.22-1.39.16-1.76.26-1.85.28-1.93.33-2.09.42-2.36.52-2.69.62-2.99.7-3.29.78-3.54.83-3.71.87-3.76.93-3.68.96-3.5 1.01-3.3 1.05-3.15 1.1-3.07 1.15-3.03 1.21-3.01 1.26-3 1.32-3.02 1.38-3.14 1.44-3.33 1.49-3.55 1.55-3.69 1.58-3.66 1.61-3.51 1.65-3.36 1.71-3.4 1.8-3.72 1.96-4.17 2.11-4.46 2.25-4.51 2.32-4.84 2.35-7.18 2.14" filter="url(#a)"/><path d="m-3.3-78.12-.96.24-1.78.26-2.04.3-2.19.36-2.39.44-2.69.52-3 .61-3.25.71-3.34.77-3.3.82-3.21.84-3.22.86-3.5.88-4.06.92-4.83 1.01-5.65 1.11-6.34 1.25-6.7 1.38-6.53 1.46-5.59 1.5-3.98 1.5-2.36 1.16" filter="url(#a)"/><path d="m-3.3-78.12-1.24.24-1.87.26-2.01.32-2.18.37-2.27.45-2.32.54-2.36.63-2.47.72-2.62.78-2.78.83-2.92.86-3.01.88-3.07.93-3.13.99-3.27 1.08-3.48 1.16-3.69 1.26-3.85 1.34-3.85 1.4-3.71 1.41-3.47 1.42-3.26 1.43-3.16 1.46-3.27 1.52-3.67 1.61-4.31 1.72-4.86 1.82-4.82 2.1-5.45 3.11" filter="url(#a)"/><path d="m-4-78.06-2.04.39-1.9.28-1.82.32-1.88.42-2 .53-2.15.63-2.24.71-2.32.79-2.36.83-2.4.89-2.41.93-2.42.97-2.46 1.01-2.51 1.06-2.64 1.11-2.8 1.16-3 1.21-3.19 1.28-3.34 1.33-3.46 1.38-3.52 1.45-3.52 1.5-3.44 1.54-3.3 1.6-3.06 1.63-2.81 1.68-2.58 1.75-2.44 1.85-2.44 1.97-2.63 2.09-2.95 2.19-3.31 2.24-3.52 2.22-3.48 2.13-3.29 1.98-3.56 1.87-5.51 2.23" filter="url(#a)"/><path d="m-5.92-77.51-2.03.15-1.71.27-1.71.4-1.86.53-1.99.65-2.03.72-2 .79-1.95.84-1.9.89-1.85.93-1.84.96-1.84 1.02-1.87 1.05-1.9 1.11-1.93 1.16-1.91 1.21-1.86 1.27-1.79 1.33-1.73 1.38-1.68 1.45-1.67 1.49-1.66 1.55-1.64 1.59-1.6 1.63-1.51 1.67-1.42 1.73-1.32 1.84-1.29 1.96-1.31 2.1-1.39 2.21-1.49 2.27-1.56 2.25-1.54 2.15-1.38 1.87-.94 1.24" filter="url(#a)"/><path d="m-5.92-77.51-2.12.15-1.77.25-1.68.39-1.8.51-1.97.63-2.06.7-2.07.77-2.02.82-1.94.87-1.88.9-1.85.94-1.88.97-1.93 1.02-2.03 1.06-2.12 1.11-2.19 1.18-2.21 1.22-2.14 1.27-1.97 1.3-1.79 1.34-1.71 1.43-1.72 1.55-1.49 1.6" filter="url(#a)"/><path d="m-5.92-77.51-2.16.15-1.84.27-1.75.4-1.82.53-1.93.65-1.99.72-1.98.79-1.93.84-1.9.89-1.85.93-1.83.96-1.82 1.02-1.82 1.05-1.81 1.11-1.8 1.16-1.76 1.21-1.73 1.27-1.69 1.33-1.66 1.38-1.64 1.45-1.64 1.49-1.62 1.55-1.59 1.59-1.51 1.63-1.43 1.67-1.37 1.73-1.34 1.84-1.35 1.96-1.35 2.1-1.35 2.21-1.35 2.27-1.37 2.25-1.4 2.15-1.35 1.87-.95 1.24" filter="url(#a)"/><path d="m-8.32-77.4-1.55.25-1.63.4-1.8.54-1.99.65-2.08.73-2.05.79-2 .84-1.92.88-1.86.92-1.78.96-1.71.99-1.64 1.04-1.6 1.09-1.58 1.14-1.57 1.2-1.59 1.25-1.6 1.3-1.6 1.36-1.59 1.42-1.58 1.49-1.56 1.56-1.56 1.59-1.55 1.59-1.52 1.55-1.47 1.55-1.43 1.65-1.5 2-1.84 2.79" filter="url(#a)"/><path d="m-7.92-77.25-2.69.26-1.99.44-1.92.54-2.22.64-2.61.74-2.94.81-3.05.84-2.95.86-2.78.88-2.71.9-2.85.96-3.15 1.04-3.49 1.16-3.72 1.27-3.82 1.35-3.84 1.41-3.74 1.42-3.43 1.4-2.79 1.36-2.03 1.37-1.78 1.46-2.92 1.66-5.67 1.99" filter="url(#a)"/><path d="m-9.67-77.2-4.45.63-3.13.54-1.64.66-1.31.76-1.61.82-2.08.86-2.49.86-2.86.88-3.2.91-3.57.97-3.94 1.06-4.25 1.17-4.42 1.27-4.4 1.36-4.2 1.4-3.87 1.42-3.59 1.4-3.51 1.41-3.75 1.43-4.27 1.5-4.92 1.6-5.31 1.67-4.49 1.59-.63 1.27" filter="url(#a)"/><path d="m-13.09-76.37-1.31.35-2.03.64-2.45.8-2.53.86-2.4.87-2.17.88-1.9.9-1.65.94-1.49 1.02-1.45 1.11-1.53 1.2-1.67 1.3-1.83 1.36-1.98 1.4-2.07 1.44-2.11 1.45-2.1 1.49-2.02 1.53-1.92 1.59-1.81 1.66-1.74 1.73-1.69 1.78-1.68 1.83-1.68 1.84-1.7 1.86-1.74 1.86-1.78 1.87-1.81 1.88-1.8 1.92-1.75 2.03-1.75 2.31-1.68 2.79-1.56 3.52" filter="url(#a)"/><path d="m-13.09-76.37-2.29.36-2.53.64-2.87.8-2.59.86-2.08.88-1.73.88-1.56.91-1.59.95-1.77 1.02-2.08 1.12-2.48 1.22-2.89 1.3-3.21 1.36-3.41 1.41-3.41 1.44-3.24 1.47-2.89 1.5-2.45 1.55-1.97 1.61-1.54 1.67-1.29 1.73-1.27 1.78-1.48 1.83-1.86 1.85-2.27 1.86-2.59 1.89-2.81 1.91-2.94 1.96-3.07 2.05-3.23 2.17-3.38 2.32-3.4 2.48-3.19 2.57-2.78 2.52-2.31 2.35-2.41 2.14-3.44 2.12" filter="url(#a)"/><path d="m-15.06-75.67-3.25.85-3.37.82-3.01.84-2.53.89-2.05.93-1.76.96-1.83.99-2.18 1.03-2.65 1.08-2.95 1.14-3.01 1.2-2.82 1.24-2.59 1.3-2.49 1.35-2.62 1.41-2.84 1.48-2.95 1.56-2.77 1.6-2.45 1.59-2.44 1.51-3.17 1.44-4.29 1.44-3.51 1.59" filter="url(#a)"/><path d="m-15.23-75.81-2.91 1.2-2.56.93-2.32.89-2.06.88-1.85.89-1.73.93-1.65 1.01-1.66 1.11-1.75 1.22-1.87 1.31-1.98 1.38-2.02 1.42-1.96 1.44-1.82 1.47-1.66 1.49-1.53 1.54-1.5 1.6-1.53 1.67-1.65 1.74-1.75 1.78-1.81 1.83-1.76 1.84-1.64 1.86-1.47 1.88-1.31 1.9-1.27 1.94-1.35 2.02-1.53 2.15-1.72 2.33-1.75 2.52-1.57 2.62-1.22 2.57-.89 2.31-.88 1.91" filter="url(#a)"/><path d="m-19.95-73.82-2.8 1.02-3.02.94-3.04.87-2.63.9-2.12.98-1.86 1.11-1.97 1.23-2.37 1.34-2.91 1.39-3.48 1.43-3.95 1.45-4.25 1.45-4.39 1.49-4.37 1.53-4.26 1.59-4.07 1.67-3.87 1.74-3.62 1.78-3.32 1.83-2.99 1.84-2.6 1.86-2.18 1.86-1.88 1.89-1.91 1.91-2.58 2-4.05 2.12-6.07 2.33-7.87 2.56-8.29 2.71-6.3 2.65-3.01 2.51" filter="url(#a)"/><path d="m-19.95-73.82-2.22 1.02-1.9.95-1.64.87-1.54.89-1.57.99-1.67 1.11-1.82 1.23-1.92 1.34-1.95 1.4-1.89 1.43-1.8 1.44-1.67 1.46-1.57 1.49-1.52 1.54-1.51 1.6-1.52 1.67-1.57 1.73-1.6 1.79-1.62 1.83-1.61 1.84-1.55 1.86-1.47 1.87-1.34 1.9-1.22 1.94-1.12 2.01-1.08 2.15-1.08 2.33-1.11 2.51-1.14 2.63-1.19 2.56-1.21 2.31-.63 1.9" filter="url(#a)"/><path d="m-22.26-72.84-6.32 1.08-.65.82-.54.85-1.51.97-2.25 1.11-2.55 1.25-2.56 1.35-2.48 1.41-2.47 1.44-2.51 1.44-2.67 1.46-2.91 1.48-3.23 1.54-3.56 1.6-3.8 1.67-3.83 1.73-3.55 1.79-2.96 1.83-2.25 1.85-1.67 1.85-1.43 1.87-1.54 1.89-1.91 1.94-2.34 2.02-2.74 2.14-3.2 2.33-3.67 2.51-3.92 2.63-3.61 2.55-3.12 2.31-4.57 1.9" filter="url(#a)"/><path d="m-23.74-72.04-1.68.89-2.13.96-2.71.98-3.1 1.05-3.04 1.12-2.69 1.19-2.38 1.24-2.26 1.3-2.36 1.35-2.61 1.41-2.88 1.47-3.07 1.52-3.09 1.57-2.88 1.62-2.53 1.65-2.16 1.72-1.96 1.79-2.02 1.88-2.36 1.99-2.84 2.08-3.33 2.13-3.65 2.17-3.77 2.15-3.73 2.12-3.66 2.09-3.67 2.07-3.72 2.08-3.79 2.14-3.82 2.19-3.72 2.24-3.16 2.15-1.7 1.79-1.14.95" filter="url(#a)"/><path d="m-23.74-72.04-2.13.89-1.66.95-1.45.97-1.46 1.04-1.49 1.11-1.52 1.18-1.54 1.23-1.56 1.29-1.57 1.34-1.56 1.39-1.52 1.46-1.47 1.51-1.43 1.56-1.37 1.6-1.33 1.62-1.29 1.68-1.27 1.74-1.3 1.85-1.35 1.97-1.38 2.09-1.41 2.18-1.38 2.21-1.32 2.19-1.23 2.11-1.12 2-1.01 1.97-.99 2.11-1.15 2.39" filter="url(#a)"/><path d="m-24.92-71.36-2.61.49-2.5.78-1.49.95-1.08 1.12-1.24 1.26-1.61 1.38-1.9 1.43-2.01 1.44-1.97 1.45-1.87 1.46-1.77 1.49-1.71 1.54-1.72 1.6-1.79 1.68-1.9 1.74-2.01 1.8-2.11 1.83-2.15 1.85-2.12 1.86-2.03 1.88-1.95 1.91-1.88 1.97-1.87 2.05-1.92 2.18-2 2.31-2.06 2.46-2.05 2.51-1.9 2.48-1.58 2.35-1.15 2.19-.81 2.11-.56 2.17" filter="url(#a)"/><path d="m-24.92-71.36-2.45.49-1.08.78-1.19.94-1.52 1.12-1.76 1.26-1.9 1.37-2 1.42-2.02 1.45-2 1.44-1.94 1.46-1.9 1.48-1.88 1.53-1.88 1.59-1.86 1.68-1.82 1.74-1.81 1.79-1.83 1.82-1.91 1.85-2.02 1.85-2.08 1.87-2.04 1.89-1.92 1.94-1.76 2.01-1.63 2.15-1.59 2.32-1.57 2.51-1.54 2.62-1.48 2.56-1.29 2.3-.46 1.9" filter="url(#a)"/><path d="m-25.79-71.12-3.72.95-3.18.97-1.52 1.11-.92 1.28-1.08 1.38-1.48 1.45-1.91 1.44-2.33 1.44-2.7 1.44-2.98 1.46-3.09 1.51-3.09 1.58-3.05 1.66-3.06 1.74-3.12 1.79-3.19 1.82-3.14 1.84-2.99 1.84-2.8 1.85-2.71 1.85-2.75 1.87-2.74 1.9-2.55 2.02-2.34 2.29-2.48 2.79-3.11 3.49" filter="url(#a)"/><path d="m-27.34-69.99-1.53.82-1.89 1.01-2.69 1.13-3.76 1.2-4.28 1.26-3.96 1.31-3.2 1.36-2.5 1.41-2.2 1.48-2.23 1.53-2.48 1.58-2.72 1.62-2.89 1.66-2.94 1.72-2.93 1.8-2.86 1.9-2.82 1.99-2.87 2.08-3.06 2.14-3.39 2.15-3.72 2.15-3.86 2.13-3.6 2.09-2.9 2.08-1.95 2.1-1.19 2.13-1.03 2.17-1.54 2.17-2.37 2.13-2.79 2.07-2.43 2.06-1.84 2.23-2.65 2.29" filter="url(#a)"/><path d="m-27.35-70.16-.33.98-1.42 1.08-1.22 1.3-.84 1.43-.47 1.47-.09 1.47.24 1.45.39 1.44.27 1.48.01 1.53-.26 1.6-.35 1.68-.19 1.75.15 1.8.52 1.83.76 1.85.83 1.86.79 1.87.72 1.91.74 1.96.83 2.05 1.01 2.17 1.32 2.32 1.79 2.45 2.34 2.52 2.76 2.47 2.68 2.34 2.12 2.19 2.03 2.11 3.92 2.16" filter="url(#a)"/><path d="m-27.35-70.16-1.49.98-1.58 1.08-1.76 1.29-1.92 1.43-2.02 1.47-2.03 1.46-1.96 1.44-1.81 1.44-1.66 1.47-1.52 1.52-1.44 1.59-1.45 1.68-1.53 1.74-1.66 1.8-1.77 1.83-1.83 1.84-1.8 1.85-1.69 1.87-1.56 1.88-1.44 1.93-1.34 2.01-1.27 2.14-1.2 2.32-1.07 2.52-.87 2.61-.75 2.55-.92 2.3-1.54 1.89m131.04 4.39.41 1.92.68 2.34.9 2.52 1.1 2.54 1.29 2.5 1.48 2.43L68.43.8l2.14 2.36 2.58 2.33 3.04 2.33 3.44 2.3 3.7 2.29 3.81 2.25 3.64 2.23 3.17 2.21 2.51 2.19 1.88 2.19 1.5 2.18 1.49 2.19 1.73 2.2 1.88 2.22 1.66 2.27 1.01 2.29.08 2.26-.91 2.17-1.72 2.03-1.96 1.9-.99 1.86 1.07 1.96.46 1.91" filter="url(#a)"/><path d="m60.81-15.84 6.9 1.92 4.3 2.34.35 2.52-.82 2.54-.79 2.5-.43 2.43L70.3.8l.38 2.36.7 2.33 1.03 2.33 1.39 2.3 1.7 2.29 1.82 2.25 1.65 2.23 1.32 2.21 1.08 2.19 1.16 2.19 1.61 2.18 2.2 2.19 2.59 2.2 2.51 2.22 1.89 2.27.97 2.29.19 2.26-.08 2.17.26 2.03.83 1.9 1.1 1.86.72 1.96 1.27 1.91M-29.12-68.73l-3.84 1.68-1.81 1.23-1.61 1.24-1.62 1.3-1.56 1.34-1.51 1.39-1.57 1.45-1.69 1.52-1.83 1.58-1.9 1.6-1.91 1.62-1.88 1.65-1.87 1.74-1.87 1.84-1.84 1.97-1.77 2.1-1.66 2.18-1.56 2.21-1.53 2.17-1.55 2.09-1.54 1.99-1.45 1.95-1.64 2.1-2.43 2.38" filter="url(#a)"/><path d="m-29.12-68.73-7.94 1.67-1.94 1.23-1.3 1.24-1.45 1.29-1.76 1.33-2.28 1.38-3.04 1.44-3.95 1.52-4.77 1.57-5.17 1.59-4.94 1.61-4.18 1.63-3.24 1.7-2.65 1.81-2.72 1.97-3.42 2.1-4.32 2.2-4.92 2.24-5.19 2.23-5.61 2.1-6.79 1.83-7.77 1.2m89.35-36.88-2.73 1.68-2.86 1.24-2.71 1.25-2.24 1.3-2.04 1.34-2.13 1.4-2.34 1.46-2.43 1.53-2.34 1.58-2.05 1.61-1.67 1.63-1.28 1.68-.98 1.75-.82 1.86-.81 1.99-.95 2.09-1.17 2.16-1.46 2.19-1.8 2.16-2.17 2.1-2.5 2.03-2.7 2-2.64 2.01-2.27 2.07-1.89 2.15-1.93 2.62" filter="url(#a)"/><path d="m-29.12-68.73-2.75 1.67-2.58 1.23-2.14 1.24-1.58 1.29-1.32 1.33-1.43 1.38-1.77 1.44-2.15 1.52-2.42 1.57-2.46 1.59-2.29 1.61-1.96 1.63-1.63 1.7-1.43 1.81-1.43 1.97-1.64 2.1-1.9 2.2-2.07 2.24-2.06 2.23-1.93 2.1-1.9 1.83-2.03 1.2" filter="url(#a)"/><path d="m-32.4-66.39-1.26.71-2.24 1.13-2.69 1.3-2.67 1.34-2.41 1.39-2.19 1.45-2.09 1.53-2.14 1.57-2.25 1.61-2.43 1.61-2.65 1.65-2.96 1.73-3.3 1.84-3.54 1.98-3.54 2.1-3.2 2.18-2.66 2.2-2.19 2.17-2.05 2.09-2.28 1.98-2.55 1.95-2.53 2.1-3.4 2.37" filter="url(#a)"/><path d="m-32.4-66.39-5.14.73-.89 1.15-.44 1.33-.67 1.37-1.04 1.42-1.43 1.49-1.8 1.55-2.12 1.61-2.39 1.64-2.55 1.67-2.63 1.74-2.64 1.82-2.7 1.92-2.82 2.01-3.08 2.09-3.43 2.14-3.81 2.16-4.09 2.15-4.21 2.13-4.05 2.11-3.64 2.11-3.03 2.11-2.39 2.13-1.83 2.15-1.44 2.16-1.14 2.16-.89 2.19-.66 2.22-.61 2.3-.92 2.41-1.63 2.52-2.4 2.59-2.61 2.57-1.97 2.47-1.02 2.5-1.55 3.39" filter="url(#a)"/><path d="m-32.4-66.39-1.8.72-2.27 1.15-2.36 1.31-2.31 1.36-2 1.41-1.64 1.48-1.48 1.54-1.6 1.6-1.98 1.62-2.54 1.66-3.15 1.71-3.68 1.78-3.97 1.9-3.93 2-3.54 2.09-2.88 2.15-2.17 2.16-1.65 2.15-1.55 2.11-1.87 2.09-2.49 2.07-3.12 2.09-3.49 2.12-3.45 2.16-3.06 2.17-2.66 2.13-2.69 2.06-3.33 2.05-4.38 2.23-5.67 2.28" filter="url(#a)"/><path d="m-34-65.05-9.76 1.46-1.01 1.43-.81 1.43-1.42 1.4-1.65 1.44-1.67 1.53-1.71 1.63-1.85 1.71-2.08 1.79-2.36 1.82-2.58 1.85-2.7 1.87-2.74 1.88-2.74 1.9-2.8 1.95-2.96 2.02-3.2 2.11-3.43 2.21-3.53 2.31-3.49 2.38-3.37 2.41-3.31 2.39-3.43 2.35-3.67 2.29-3.8 2.24-3.53 2.21-2.75 2.2-1.69 2.23-.82 2.28-.57 2.35-.81 2.42-.96 2.48-1.74 2.64" filter="url(#a)"/><path d="m-34.44-64.8-2.02 1.65-1.9 1.41-2.31 1.38-2.92 1.47-3.55 1.57-4.13 1.63-4.44 1.64-4.3 1.67-3.75 1.72-2.98 1.81-2.28 1.92-1.9 2.03-1.9 2.1-2.24 2.16-2.78 2.16-3.34 2.15-3.81 2.12-4.05 2.11-3.97 2.1-3.51 2.11-2.71 2.13-1.76 2.14-.92 2.15-.49 2.17-.62 2.18-1.23 2.22-2.12 2.3-3.01 2.41-3.7 2.51-3.95 2.59-3.5 2.56-2.1 2.47-.23 2.49-.41 3.39m87.2-69.2-.94 1.25-1.12 1.45-1.1 1.38-.94 1.41-.86 1.51-.89 1.63-1.01 1.72-1.09 1.79-1.11 1.83-1.08 1.85-1.02 1.86-.95 1.87-.86 1.89-.75 1.93-.62 2-.48 2.09-.31 2.21-.16 2.31-.03 2.4.06 2.42.08 2.41.04 2.34v2.27l.01 2.22.17 2.19.5 2.18.92 2.18 1.23 2.25 1.12 2.41.65 2.7M60.43-16.92l-.01 2.25-1.03 2.44-1.53 2.41-1.93 2.32-2.13 2.29-1.94 2.33-1.47 2.39-1.05 2.4-.88 2.37-.92 2.28-.97 2.2-.92 2.14-.74 2.11-.57 2.13-.53 2.18-.72 2.27-1.07 2.37-1.49 2.42-1.84 2.42-2.02 2.37-1.94 2.26-1.57 2.21-1.15 2.22-1.04 2.32-1.53 2.32-1.67 1.89m32.66-59.31 4.1 2.25 3.03 2.44.55 2.41-.3 2.32-.01 2.29.8 2.33 1.64 2.39 2.05 2.4 1.82 2.37 1.13 2.28.46 2.2.23 2.14.56 2.11 1.26 2.13 1.9 2.18 2.07 2.27 1.72 2.37 1.02 2.42.41 2.42.3 2.37.82 2.26 1.69 2.21L90 35.86l1.9 2.32.49 2.32.37 1.89" filter="url(#a)"/><path d="m-36.58-63.08-3.26 1.48-2.6 1.25-1.65 1.44-1.41 1.59-1.49 1.64-1.59 1.65-1.65 1.65-1.71 1.71-1.79 1.79-1.87 1.92-1.95 2.02-1.98 2.12-2 2.15-1.97 2.17-1.85 2.15-1.64 2.11-1.36 2.1-1.07 2.09-.85 2.1-.78 2.12-.86 2.14-1.07 2.15-1.32 2.14-1.55 2.15-1.77 2.18-1.94 2.27-2.06 2.4-2.08 2.57-1.85 2.72-1.1 2.76.14 2.78" filter="url(#a)"/><path d="m-36.95-62.58-2.39 1.97-1.39 1.4-1.24 1.38-1.24 1.51-1.24 1.65-1.24 1.75-1.24 1.81-1.24 1.85-1.24 1.87-1.21 1.88-1.17 1.89-1.12 1.92-1.07 1.97-1.03 2.04-1 2.14-.96 2.23-.93 2.32-.89 2.37-.85 2.39-.8 2.37-.75 2.35-.69 2.3-.63 2.27-.56 2.25-.46 2.26-.36 2.29-.25 2.33-.17 2.39-.09 2.46-.04 2.5-.02 2.52v2.5l.01 2.45.04 2.38.06 2.33.09 2.34.06 2.41" filter="url(#a)"/><path d="m-40.45-59.22-2.56 1.23-5.62 1.54-5.87 1.69-3.68 1.77-1.43 1.82-.52 1.85-.97 1.85-2.09 1.85-3.19 1.85-3.78 1.87-3.77 1.9-3.31 1.96-2.71 2.07-2.28 2.19-2.22 2.33-2.59 2.42-3.21 2.45-3.84 2.41-4.28 2.33-4.59 2.24-5.09 2.19-5.97 2.16-6.84 2.14-6.49 2.09-1.57 2.24m87.52-49.45-1.68 1.76-1.87 1.77-1.59 1.82-1.37 1.86-1.36 1.87-1.41 1.88-1.4 1.87-1.31 1.88-1.22 1.9-1.21 1.96-1.27 2.03-1.34 2.13-1.39 2.24-1.35 2.33-1.25 2.39-1.1 2.4-.97 2.38-.88 2.34-.85 2.29-.86 2.26-.89 2.24-.93 2.25-.97 2.28-.99 2.33-.98 2.39-.94 2.45-.83 2.5-.68 2.52-.5 2.5-.3 2.44-.09 2.37.07 2.33-.08 2.32-.94 2.41" filter="url(#a)"/><path d="m-41.4-58.23-1.42 1.74-1.35 1.75-1.37 1.8-1.38 1.84-1.36 1.85-1.28 1.86-1.18 1.85-1.11 1.85-1.04 1.86-1.02 1.9-.99 1.98-.97 2.07-.96 2.2-.95 2.33-.93 2.41-.92 2.45-.86 2.4-.78 2.32-.67 2.25-.57 2.19-.5 2.16-.46 2.15-.45 2.13-.46 2.17-.64 2.25" filter="url(#a)"/><path d="m-42.98-56.36-2.66 1.69-2.34 1.83-2.26 1.87-2.43 1.88-2.28 1.89-1.73 1.87-1.1 1.88-.66 1.9-.51 1.95-.59 2.04-.75 2.14-.89 2.25-.94 2.34-.94 2.39-.9 2.4-.89 2.38-.95 2.34-1.06 2.29-1.19 2.27-1.3 2.25-1.33 2.26-1.27 2.29-1.18 2.34-1.09 2.39-1.03 2.45-.97 2.48-.86 2.5-.65 2.48-.39 2.43-.21 2.39-.24 2.33-.37 2.33-.4 2.4-.25 2.71-.02 3.79M60.16-19.06l1.45 2.66 1.44 2.37 2.21 2.43 2.55 2.5 2.34 2.52 1.91 2.49 1.5 2.44L74.79.74l1.1 2.37 1.03 2.35.96 2.33.8 2.31.55 2.29.34 2.26.23 2.23.31 2.21.48 2.2.64 2.2.73 2.19.77 2.19.87 2.21 1.04 2.23 1.26 2.26 1.34 2.28 1.18 2.25.74 2.16.18 2.05-.27 1.94-.47 1.9-.46 1.96-.52 2.06-1.31 2.18" filter="url(#a)"/><path d="m60.16-19.06.76 2.65 1.12 2.36 2.57 2.41 4.54 2.49 6.15 2.51 6.72 2.48 6.12 2.43L92.89.66 96 3.02l1.63 2.33.54 2.32-.04 2.31-.12 2.28.19 2.25.7 2.23 1.18 2.2 1.39 2.19 1.19 2.18.65 2.18.05 2.16-.2 2.17.18 2.21 1.04 2.28 1.8 2.37 1.85 2.39 1.18 2.26.72 1.99.72 2.05M-43.41-55.53l-.47 1.89-1.09 1.57-1.27 1.54-1.15 1.73-.88 1.94-.55 2.11-.3 2.2-.22 2.21-.32 2.19-.52 2.15-.74 2.1-.86 2.09-.88 2.08-.79 2.1-.67 2.12-.55 2.14-.44 2.15-.34 2.16-.23 2.19-.11 2.23.01 2.31.13 2.4.19 2.5.2 2.55.21 2.57.25 2.57.42 2.61.64 2.69.8 2.59.5 1.73m8.48-64.74-2.27 2.05-1.87 1.88-1.83 1.89-2.14 1.9-2.3 1.87-2.23 1.87-2.09 1.89-1.98 1.95-1.86 2.04-1.71 2.14-1.52 2.26-1.35 2.34-1.26 2.4-1.23 2.41-1.21 2.38-1.15 2.34-1.02 2.29-.87 2.26-.76 2.25-.74 2.27-.86 2.29-1.1 2.34-1.38 2.4-1.65 2.44-1.79 2.48-1.75 2.49-1.49 2.48-1.09 2.43-.74 2.39-.63 2.35-.86 2.35-1.27 2.38-1.48 2.45-1.39 2.32-1.28 1.1" filter="url(#a)"/><path d="m-43.96-54.86-2.64 2.04-1.96 1.86-1.16 1.88-1 1.88-1.21 1.86-1.43 1.85-1.6 1.87-1.68 1.92-1.71 2-1.69 2.11-1.62 2.23-1.5 2.35-1.38 2.4-1.3 2.43-1.33 2.38-1.46 2.33-1.64 2.26-1.82 2.22-1.88 2.21-1.82 2.2-1.63 2.24-1.49 2.29-1.47 2.36L-82-3.24-83.68-.7l-1.36 2.64-.8 2.64-1.19 2.22" filter="url(#a)"/><path d="m-45.86-52.49-1.12 1.63-1.31 1.87-1.36 1.92-1.39 1.87-1.43 1.86-1.44 1.89-1.38 1.94-1.35 2.04-1.35 2.15-1.44 2.26L-61-30.7l-1.68 2.41-1.71 2.42-1.65 2.38-1.51 2.34-1.32 2.29L-70-16.6l-.99 2.26-.88 2.27-.83 2.3-.81 2.35-.78 2.4-.72 2.44-.65 2.47-.56 2.48-.52 2.47-.52 2.43-.54 2.4-.55 2.37-.51 2.36-.45 2.37-.42 2.36-.47 2.32-.6 2.18-.82 1.99-1.43 1.43" filter="url(#a)"/><path d="m-46.49-51.47-.87.93-1.44 1.65-2.45 2.03-3.5 2.21-4.3 2.27-4.69 2.26-4.73 2.21-4.45 2.15-3.99 2.11-3.39 2.09-2.74 2.09-2.1 2.11-1.53 2.14-1.1 2.15-.83 2.17-.81 2.2-1.12 2.23-1.76 2.28-2.71 2.35-3.71 2.42-4.49 2.48-4.74 2.53-4.36 2.55-3.47 2.55-2.38 2.52-1.48 2.48-1.08 2.43-1.21 2.35-1.6 2.3-1.74 2.23-1.17 2.17-.05 2.14.54 2.18-.75 2.26-2.16 2.08" filter="url(#a)"/><path d="m-46.97-50.83-2.94 1.79-5.02 2.02-2.94 1.87-.73 1.83-.14 1.87-.77 1.93-1.77 2.01-2.56 2.14-2.94 2.26-2.99 2.37-2.83 2.42-2.57 2.42-2.28 2.39-2.04 2.33-1.97 2.28-2.1 2.24-2.46 2.24-2.91 2.25-3.31 2.28-3.46 2.33-3.28 2.39-2.76 2.45-2.03 2.48-1.22 2.49-.53 2.48-.07 2.43.04 2.37-.3 2.33-1.05 2.32-1.73 2.4-1.49 2.7-1.84 3.78" filter="url(#a)"/><path d="m-46.97-50.83-2.19 1.76-1.92 2-2.44 1.85-3.17 1.81-3.88 1.83-4.02 1.89-3.45 1.96-2.53 2.07-1.84 2.23-1.72 2.35-2.23 2.43-3.13 2.44-4.06 2.39-4.73 2.31-4.8 2.23-4.26 2.18-3.41 2.17-2.85 2.16-3.04 2.18-3.69 2.24-3.96 2.33-4.05 2.39-5.3 2.19" filter="url(#a)"/><path d="m-47.11-51.06-1.36 1.95-1.43 2.18-1.6 2.3-1.84 2.32-2.19 2.28-2.64 2.21-2.93 2.16-2.84 2.1-2.33 2.08-1.58 2.09-.89 2.11-.56 2.14-.67 2.16-1.11 2.17-1.65 2.2-2.07 2.24-2.2 2.29-1.97 2.35-1.46 2.43-.8 2.48-.2 2.53.19 2.54.27 2.54.05 2.52-.4 2.47-.91 2.42-1.32 2.36-1.49 2.29-1.41 2.24-1.2 2.2-1.03 2.2-1 2.22-.97 2.3-.55 2.36.5 2.33 1.11 1.86" filter="url(#a)"/><path d="m-47.11-51.06-1.41 1.92-2.82 2.15-3.38 2.27-2.65 2.3-1.67 2.26-1.19 2.2-1.23 2.12-1.58 2.07-1.99 2.05-2.4 2.05-2.72 2.08-2.91 2.11-2.88 2.13-2.62 2.14-2.21 2.14-1.86 2.14-1.7 2.2-1.82 2.28-2.1 2.39-2.36 2.51-2.46 2.57-2.49 2.54-2.91 2.43-3.7 2.47-2.38 3.36" filter="url(#a)"/><path d="m-47.79-49.76-3.77 2.86-3.61 1.86-2.45 1.78-1.61 1.85-1.11 1.92-.86 2.01-.81 2.14-.8 2.27-.79 2.39-.69 2.43-.56 2.43-.44 2.39-.39 2.33-.41 2.27-.48 2.25-.6 2.23-.71 2.25-.8 2.29-.84 2.34-.85 2.39-.83 2.44-.82 2.48-.85 2.49-.87 2.46-.87 2.43-.77 2.38-.6 2.34-.42 2.34-.33 2.38-.37 2.44-.48 2.32-1.2 1.09" filter="url(#a)"/><path d="m-48.15-49.1-3.21 2.1-6.66 2.37-7.62 2.34-6.93 2.27-4.85 2.21-2.18 2.13-.17 2.07.37 2.05-.44 2.06-1.93 2.09-3.32 2.12-4.07 2.15-3.99 2.15-3.24 2.16-2.04 2.19-.83 2.24.01 2.31.14 2.41-.53 2.49-1.71 2.54-2.93 2.56-3.75 2.56-3.96 2.55-3.49 2.52-2.41 2.4-1.17 2.26-1.23 2.41-4.21 3.71M59.94-19.64l1 2.48 1.32 2.41 1.44 2.43 1.13 2.39 1 2.33 1.33 2.32 1.97 2.34 2.51 2.39 2.65 2.4 2.28 2.35 1.55 2.29.79 2.21.32 2.15.29 2.12.59 2.14.93 2.18 1.01 2.28.74 2.36.3 2.42-.05 2.43-.06 2.36.23 2.28.61 2.21.83 2.22.63 2.32-.03 2.33-.05 1.89" filter="url(#a)"/><path d="m59.94-19.64 4.38 2.46 1.18 2.4.58 2.42.22 2.37-.01 2.32-.02 2.29.14 2.33.34 2.37.48 2.4.58 2.36.62 2.28.61 2.2.55 2.12.46 2.08.38 2.07.38 2.13.45 2.23.53 2.38.59 2.52.65 2.55.74 2.43.71 2.21 1.01 2.23M-51.24-43.88l-2.46 1.9-.85 2.18-1.17 2.21-1.84 2.12-2.28 2.04-2.43 2.02-2.46 2.05-2.65 2.09-2.96 2.13-3.23 2.15-3.21 2.16-2.81 2.16-2.22 2.2-1.77 2.24-1.63 2.33-1.74 2.41L-88.82-7l-1.79 2.54-1.51 2.55-1.27 2.55-1.41 2.53-2.05 2.48-3.05 2.42-3.93 2.34-4.13 2.3-3.32 2.26-1.89 2.05-.42 1.64" filter="url(#a)"/><path d="m-51.87-42.9-5.1 1.58-2.82 1.99-1.93 1.97-1.72 2.09-2.38 2.31L-69-30.5l-3.36 2.51-2.77 2.47-1.68 2.39-.58 2.32.14 2.26.32 2.24.02 2.24-.55 2.26-1.09 2.31-1.41 2.35-1.39 2.4-1.12 2.44-.72 2.47-.42 2.47-.29 2.45-.39 2.43-.64 2.4-.95 2.36-1.22 2.36-1.42 2.33-1.48 2.31-1.43 2.26-1.36 2.19-1.34 2.13-1.3 2.13-.86 2.19.06 2.19-.5 1.43" filter="url(#a)"/><path d="m-52.31-42.15-1.25 2.33-1.57 2.3-1.36 2.13-.98 2-.69 1.97-.57 2.02-.61 2.07-.7 2.12-.79 2.14-.84 2.14-.82 2.14-.74 2.14-.6 2.2-.48 2.29-.38 2.4-.36 2.49-.36 2.55-.35 2.54-.31 2.55-.27 2.58-.31 2.67-.43 2.56-.42 1.7" filter="url(#a)"/><path d="m-52.31-42.15-3.19 2.37-4.53 2.33-3.66 2.15-1.73 2.04-.64 2.02-.68 2.06-1.25 2.11-1.74 2.15-1.88 2.17-1.65 2.18-1.24 2.2-.78 2.24-.48 2.29-.37 2.37-.5 2.44-.76 2.49-1.04 2.53-1.21 2.54-1.19 2.54-1.03 2.5-.81 2.45-.64 2.41-.62 2.35-.67 2.3-.73 2.25-.64 2.23-.41 2.23-.08 2.26.17 2.29.26 2.34.17 2.39.02 2.43-.12 2.46-.36 2.43-.77 2.24-.62 1.71" filter="url(#a)"/><path d="m-52.31-42.15-3.25 2.37-2.31 2.33-.45 2.15.02 2.04-.28 2.02-.78 2.07-1.18 2.11-1.42 2.15-1.52 2.18-1.61 2.18-1.79 2.2-2.08 2.24-2.5 2.3-2.89 2.37L-77.5-9l-3.13 2.5-2.79 2.53-2.15 2.54-1.34 2.53-.45 2.5.32 2.45.89 2.41 1.14 2.35 1.02 2.3.58 2.26-.09 2.24-.77 2.24-1.29 2.26-1.51 2.3-1.42 2.34-1.15 2.38-.87 2.42-.74 2.42-.81 2.36-.9 2.2-.34 1.92 1.54 1.7" filter="url(#a)"/><path d="m-52.12-42.27-2.34 3.01-2.85 1.95-1.98 2.04-1.29 2.32-1.21 2.51-1.33 2.54-1.31 2.49-1.18 2.4-1.07 2.32-1.07 2.26-1.12 2.24-1.16 2.24-1.14 2.27-1.05 2.31-.97 2.36-.9 2.4-.87 2.45-.88 2.47-.85 2.46-.78 2.46-.63 2.42-.43 2.4-.22 2.37-.02 2.35.09 2.33.15 2.3.14 2.25.09 2.21.06 2.17.03 2.16.05 2.16.04 2.2.05 2.23.19 2.28.53 2.37 1.14 2.29" filter="url(#a)"/><path d="m-54.26-37.69-1.87.62-2.89 1.74-2.13 2.32-1.43 2.58-1.25 2.6-1.19 2.51-.98 2.4-.65 2.3-.41 2.25-.33 2.22-.39 2.24-.56 2.26-.8 2.31-1.07 2.36-1.31 2.41-1.45 2.44-1.47 2.47-1.3 2.47-1.01 2.45-.69 2.43-.45 2.39-.33 2.37-.33 2.35-.37 2.32-.35 2.3-.25 2.25-.08 2.2.09 2.17.21 2.16.3 2.16.32 2.2.22 2.22.04 2.28.09 2.37.56 2.29" filter="url(#a)"/><path d="m-54.36-37.92-2.89 2.21-.44 2.55-.33 2.71-.6 2.68-.81 2.53-.93 2.38-.97 2.27-.97 2.23-.93 2.2-.86 2.22-.72 2.25-.55 2.29-.35 2.35-.14 2.4.01 2.45.1 2.46.13 2.48.09 2.45.04 2.41-.02 2.39-.06 2.36-.07 2.34-.07 2.33-.1 2.3-.13 2.26-.17 2.18-.15 2.12-.03 2.11.21 2.19.41 2.19.19 1.42M59.65-21.35l.6 2.39.97 2.41 2.02 2.38 3.39 2.42 4.23 2.47 3.96 2.49 2.69 2.46 1.03 2.42L78.2.48l-1.05 2.35-1.05 2.32-.53 2.32.18 2.3.78 2.28 1.14 2.25 1.26 2.21 1.23 2.18 1.14 2.18.97 2.19.64 2.18.19 2.14-.1 2.07.12 2.02.68 2 .03 2.23" filter="url(#a)"/><path d="m-55.13-35.81-.76 2.59-.14 2.84.35 2.75.32 2.54.06 2.36-.19 2.26-.37 2.21-.46 2.2-.43 2.21-.29 2.25-.09 2.3.14 2.35.32 2.41.42 2.45.47 2.47.49 2.47.49 2.45.49 2.42.48 2.39.49 2.36.53 2.34.63 2.32.79 2.29.98 2.25 1.13 2.19 1.23 2.16 1.3 2.13 1.35 2.16 1.36 2.18 1.3 2.2 1.08 2.29.94 2.55m-15.31-72.9-2.3 3-2.07 2.86-1.02 2.53-.7 2.31-.92 2.2-1.22 2.17-1.35 2.16-1.35 2.18-1.31 2.22-1.31 2.27-1.3 2.32-1.19 2.39-.93 2.44-.54 2.48-.15 2.47.09 2.45.06 2.39-.22 2.36-.65 2.32-1.02 2.33-1.12 2.34-.91 2.38-.49 2.33-.46 2.21-1.16 2.69" filter="url(#a)"/><path d="m-56.53-31.85-1.81 2.62-.62 2.32-.49 2.24-.49 2.22-.45 2.19-.42 2.16-.42 2.2-.42 2.27-.44 2.38-.41 2.46-.36 2.53-.29 2.55-.2 2.55-.14 2.53-.08 2.5-.04 2.44.02 2.39.09 2.34.16 2.29.23 2.25.27 2.23.28 2.24.31 2.26.34 2.3.41 2.34.52 2.36.66 2.38.8 2.35.9 2.28.94 2.13.88 1.94.76 1.81.8 1.96 1.38 2.88" filter="url(#a)"/><path d="m-57.51-28.91-3.5 2.16-1.61 2.15-.49 2.22-.94 2.18-2.31 2.15-3.7 2.17-4.33 2.26-3.99 2.37-2.88 2.47-1.58 2.53-.54 2.56-.02 2.56-.05 2.53-.41 2.49-.87 2.44-1.23 2.39-1.43 2.33-1.57 2.28-1.81 2.24-2.21 2.22-2.69 2.23-3.03 2.26-2.89 2.29-2.16 2.33-1.03 2.37.01 2.39.44 2.38.12 2.3-.54 2.14-1.04 1.87-1.42 1.55-1.18 1.18" filter="url(#a)"/><path d="m-58.49-26.41-7.41 1.79-4.02 2.26-1.45 2.19-.68 2.1-.84 2.1-1.19 2.21-1.24 2.35-1.04 2.45-1.04 2.53-1.56 2.55-2.6 2.55-3.72 2.52-4.46 2.49-4.53 2.44-4.04 2.38-3.33 2.3-2.88 2.25-2.91 2.19-3.39 2.15-4.01 2.13-4.24 2.18-3.42 2.29-1.21 2.45-.15 2.84M59.69-20.53l-6.22 1.44 1.06 2.04 2.02 2.29 1.35 2.37.44 2.36-.49 2.33-1.51 2.33-2.61 2.35-3.51 2.39-3.85 2.38-3.41 2.36-2.3 2.29-.97 2.21.03 2.16.34 2.12-.12 2.13-1.14 2.18-2.42 2.26-3.66 2.37-4.6 2.44-4.94 2.44-4.52 2.37-3.42 2.26-2.14 2.17-1.52 2.22-2.43 2.44-3.92 2.75m54.08-63.86 7.09 1.82-.35 2.2-.49 2.33.53 2.37 1.04 2.43 1 2.46.84 2.48.87 2.47 1.09 2.43L72.24.44l1.44 2.36 1.51 2.34 1.54 2.32 1.55 2.31 1.47 2.28 1.27 2.26 1.01 2.22.8 2.19.74 2.19.78 2.19.8 2.17.69 2.15.67 2.11 1.05 2.11 1.88 2.2 2.24 2.56-.61 3.33" filter="url(#a)"/><path d="m58.6-25.38 5.26 3.46 9.18 2.44 7.38 2.27 2.59 2.29-.98 2.34-1.65 2.34-.1 2.31 2.13 2.3 3.8 2.33 4.45 2.37 4.21 2.39 3.62 2.36 3.07 2.3 2.75 2.2 2.49 2.12 2.06 2.05 1.42 2.02.84 2.04.94 2.13 2.48 2.35 5.64 2.77 9.49 3.67" filter="url(#a)"/><path d="m58.55-25.77.5 2.4-.41 2.2-1.87 2.26-2.61 2.34-2.08 2.39-.96 2.44-.02 2.48.31 2.49.15 2.47-.27 2.45-.7 2.41-1.07 2.38L48.2 5.3l-1.52 2.34-1.63 2.32-1.65 2.29-1.59 2.27-1.43 2.25-1.22 2.22-1.01 2.21-.83 2.2-.7 2.2-.64 2.2-.65 2.22-.73 2.23-.88 2.27-1.07 2.28-1.24 2.25-1.43 2.17-1.7 2.06-2.08 1.94-2.47 1.92-2.66 1.96-2.43 2.06-1.26 2.19" filter="url(#a)"/><path d="m58.31-26.13 4.74 1.81-.4 2.42-.65 2.38.01 2.33.48 2.35.69 2.36.86 2.36 1.18 2.35 1.68 2.36 2.25 2.37L71.8-.66l2.68 2.38 2.32 2.35 1.7 2.3 1.09 2.23.74 2.19.7 2.16.93 2.17 1.19 2.22 1.34 2.29 1.32 2.35 1.16 2.4.94 2.41.7 2.37.47 2.31.27 2.26.11 2.23-.07 2.24-.51 2.18-1.07 2.04-.76 1.81 1.49 1.56" filter="url(#a)"/><path d="m57.83-28.1 2.85 1.8 1.36 2.09 2.19 2.3 2.63 2.33 2.13 2.34 1.35 2.35 1 2.37 1.41 2.36 2.38 2.36 3.4 2.36 4 2.38 3.89 2.38 3.13 2.38 1.98 2.35.84 2.3.03 2.24-.25 2.19-.04 2.18.42 2.19.86 2.22 1.05 2.29.92 2.35.6 2.4.29 2.4.23 2.37.5 2.31 1.08 2.27 1.7 2.24 2.09 2.21 2 2.15 1.29 2.03.14 1.86-.72 1.72-.36 1.76" filter="url(#a)"/><path d="m57.83-28.1 3.32 1.79 7.71 2.08 6.19 2.28 2.47 2.32-.43 2.33-1.72 2.34-1.64 2.35-.7 2.35.51 2.34 1.53 2.35 2.08 2.36L79.3-.82l1.93 2.38 1.63 2.35 1.49 2.3 1.57 2.23 1.9 2.16 2.38 2.14 2.89 2.13 3.25 2.18 3.29 2.27 2.96 2.37 2.35 2.46 1.87 2.47 1.86 2.39 2.24 2.24 2.23 2.1 1.27 2.11.91 2.59" filter="url(#a)"/><path d="m56.86-31.19 1.05 1.26 1.97 1.95 1.46 2.15.67 2.2.32 2.23.42 2.26.74 2.31 1.04 2.36 1.19 2.41 1.14 2.45.9 2.46.61 2.46.38 2.43.3 2.41.33 2.37.42 2.35.45 2.34.37 2.32.2 2.29-.02 2.27-.21 2.22-.3 2.2-.22 2.2.04 2.2.4 2.21.71 2.16.81 2.08.48 1.98-.15 1.68" filter="url(#a)"/><path d="m56.86-31.19.8 1.25 2.47 1.96 4.69 2.14 5.65 2.2 4.54 2.22 2.37 2.26.44 2.31-.63 2.36-.87 2.4-.62 2.45-.08 2.46.66 2.45 1.56 2.43L80.38.11l3.4 2.37 3.86 2.35 3.74 2.33 2.97 2.32 1.76 2.29.53 2.27-.32 2.22-.45 2.19.17 2.19 1.17 2.21 1.87 2.23 1.6 2.18.33 2.11-1.1 2.26" filter="url(#a)"/><path d="m55.74-34.18 8.19 1.15-1 1.66-1.26 2.13.1 2.3 1.12 2.32 1.58 2.33 1.8 2.32 2.1 2.32 2.57 2.32 3.11 2.34 3.47 2.33 3.47 2.33L84.03-6l2.27 2.34 1.49 2.38 1.02 2.4 1.01 2.38 1.37 2.33 1.71 2.23 1.63 2.14 1.12 2.06.67 2 1.02 1.98 2.06 2.04 2.52 1.96" filter="url(#a)"/><path d="m55.74-34.18 1 1.15 1.29 1.67 1.35 2.13 1.25 2.3 1 2.33.73 2.33.68 2.32.88 2.33 1.23 2.33 1.53 2.34 1.63 2.33 1.56 2.33 1.38 2.34 1.18 2.35 1.01 2.38.85 2.39.75 2.38.68 2.32.67 2.23.63 2.15.51 2.07.36 2.02.33 2.01.6 2.06 1.08 2.16 1.94 2.31" filter="url(#a)"/><path d="m55.74-34.18.91 1.14 3.38 1.64 4.73 2.12L68.41-27l1.77 2.32.54 2.31.29 2.3.73 2.31 1.39 2.31 1.9 2.33 2.2 2.32 2.37 2.31 2.6 2.3 2.91 2.32L88.3-1.5 91.52.93l2.81 2.42L96.3 5.7l.99 2.23.54 2.14 1.67 2.23 5.08 2.59" filter="url(#a)"/><path d="m55.74-34.18 1.44 1.16 1.31 1.7 1.18 2.15 1.54 2.31 1.71 2.35 1.44 2.34.94 2.35.56 2.34.5 2.35.7 2.35.99 2.35 1.21 2.36 1.21 2.36 1.03 2.37.76 2.38.52 2.38.47 2.35.59 2.31.87 2.24 1.13 2.19 1.29 2.15 1.26 2.14 1.08 2.2.78 2.27.42 2.37.05 2.46-.3 2.47-.54 2.4-.55 2.25-.28 2.11.01 2.13-1.04 2.59" filter="url(#a)"/><path d="m54.78-36.74 2.27 3.11 1.53 2 .87 1.83.97 1.93 1.45 2.07 2.01 2.15 2.64 2.22 3.41 2.28 4.21 2.32 4.82 2.38 4.99 2.41 4.62 2.45 3.9 2.46 3.07 2.46 2.41 2.44L99.97.19l1.84 2.39 1.66 2.37 1.28 2.34.6 2.33-.31 2.3-1.14 2.28-1.64 2.24-1.56 2.23-.94 2.21-.01 2.2.81 2.19 1.26 2.18 1.25 2.18 1.09 2.21 1.2 2.29 1.8 2.43 2.3 2.5 1.8 2.27.71 1.5" filter="url(#a)"/><path d="m54.21-37.64 4.11 2.57 1.1 1.85.5 1.92.52 2.13.71 2.26.87 2.32.91 2.33.8 2.34.61 2.34.41 2.35.28 2.35.23 2.35.25 2.35.31 2.36.34 2.37.35 2.38.33 2.38.3 2.36.3 2.31.29 2.24.27 2.18.2 2.13.06 2.12-.11 2.16-.26 2.25-.4 2.39-.47 2.52-.47 2.58-.32 2.46-.09 2.24-.33 2.26" filter="url(#a)"/><path d="m54.07-38.02 5.78 1.96 3.39 2.22 3.72 1.97 3.96 1.86 2.99 1.92 1.23 2.01-.26 2.1-.81 2.16-.27 2.22.96 2.26 2.38 2.32 3.54 2.36 4.14 2.42 3.99 2.45 3.11 2.45 1.8 2.44.67 2.39.31 2.36.99 2.3L98 6.33l3.66 2.06 5.26 2.2" filter="url(#a)"/><path d="m54.07-38.02 1.35 1.99 2.74 2.23 3.3 1.99 2.68 1.91 1.88 1.95 1.39 2.05 1.18 2.13 1 2.2.78 2.25.51 2.31.26 2.35.12 2.4.17 2.44.43 2.45.84 2.46 1.33 2.43 1.76 2.41 2.05 2.39 2.09 2.36 1.9 2.34 1.5 2.32 1 2.31.58 2.27.4 2.23.49 2.18.68 2.2.74 2.23.61 2.26.55 2.15-.01 1.86" filter="url(#a)"/><path d="m54.07-38.02.93 1.99 1.17 2.23 1.33 2 1.24 1.91.91 1.96.58 2.05.43 2.13.47 2.2.65 2.26.82 2.31.92 2.36.93 2.4.86 2.44.76 2.45.67 2.45.61 2.44.56 2.42.51 2.38.43 2.36.31 2.35.17 2.32.02 2.31-.09 2.27-.14 2.23-.16 2.2-.15 2.2-.17 2.22-.19 2.23-.18 2.19-.07 2.12-.09 2.27M53.27-40.03l1.94 2.49 1.93 2.23 1.64 2 1.98 2.02 2.63 2.15 3.13 2.25 3.17 2.31 2.77 2.34 2.2 2.34 1.66 2.35 1.29 2.36.98 2.36.67 2.36.33 2.37.04 2.37-.09 2.38.06 2.38.52 2.38 1.22 2.35 2.01 2.3 2.73 2.26 3.18 2.2 3.24 2.18 2.96 2.18 2.44 2.22 1.97 2.29 1.73 2.36 1.73 2.42 1.72 2.43 1.41 2.39.7 2.31-.11 2.24-.6 2.25-.61 2.34-.21 2.35.96 1.91" filter="url(#a)"/><path d="m51.66-42.59 1.81 1.88 2.71 2.22 4.28 2.26 4.12 2.16L67-32.02l.7 1.99-.02 2.01.24 2.06 1.01 2.13 1.78 2.19 2.32 2.25 2.67 2.3 2.92 2.36 3.17 2.39 3.45 2.44 3.77 2.45L93.13-5l4.45 2.45 4.62 2.41 4.44 2.39 3.82 2.37 2.79 2.35 1.55 2.33.44 2.31-.28 2.28-.48 2.23-.16 2.19.54 2.2 1.44 2.24 2.35 2.26 2.97 2.15.71 1.87" filter="url(#a)"/><path d="m50.99-44.51 1.13 1.82 1.16 2 1.27 2.15 1.49 2.19 1.78 2.14 1.95 2.04 1.89 2 1.65 2.01 1.38 2.05L65.91-24l1.2 2.17 1.25 2.23 1.33 2.28 1.38 2.34 1.39 2.38 1.33 2.43L75-7.72l1.05 2.46.88 2.44.77 2.42.72 2.37.77 2.35.95 2.32 1.27 2.35 1.72 2.41 2.11 2.42 1.94 2.2.58 1.59" filter="url(#a)"/><path d="m50.99-44.51 1.13 1.84 1.76 2L56-38.5l2.09 2.2 1.73 2.14 1.29 2.06 1.05 2.01 1.11 2.03 1.41 2.07 1.82 2.13 2.24 2.19 2.57 2.24 2.76 2.31 2.7 2.35 2.37 2.4 1.78 2.43 1.05 2.45.41 2.46.03 2.44.07 2.42.43 2.39.98 2.37 1.45 2.35 1.64 2.34 1.53 2.31 1.18 2.28.76 2.23.38 2.2.1 2.2-.04 2.24.23 2.27 1.06 2.15.93 1.87" filter="url(#a)"/><path d="m46.88-50.81 2.78 2.2 2.02 2.04 1.07 1.92.97 1.93 1.3 2.01 1.63 2.07 1.76 2.11 1.72 2.1 1.51 2.06 1.23 2.04.92 2.04.68 2.07.55 2.11.58 2.18.7 2.23.84 2.28.92 2.34.9 2.39.81 2.42.68 2.46.58 2.46.53 2.45.52 2.42.5 2.39.46 2.35.35 2.34.22 2.36.07 2.41.03 2.43.13 2.21.45 1.6" filter="url(#a)"/><path d="m46.88-50.81 5.2 2.17 4.34 2.02 1.81 1.9.83 1.9.83 1.98 1.15 2.05 1.7 2.1 2.44 2.08 3.28 2.04 3.87 2 3.97 1.99 3.56 2.02 2.9 2.07 2.32 2.13 2.03 2.19 2.02 2.24 2.06 2.29 2.11 2.34 2.24 2.42 2.47 2.51 2.37 2.59 1.51 2.52 1.59 1.7" filter="url(#a)"/><path d="m45.57-52.94 1.39 2.09 1.4 2.1 1.23 2.01 1.08 1.93 1 1.93.97 1.99.96 2.05.92 2.09.87 2.08.8 2.04.72 2.01.66 2 .61 2.02.57 2.08.54 2.13.49 2.19.46 2.24.41 2.29.36 2.35.31 2.42.27 2.51.22 2.6.17 2.53.07 1.7" filter="url(#a)"/><path d="m44.6-54.05 1.6 1.78 1.64 1.99 1.99 1.95 2.49 1.93 2.62 1.97 2.34 2.05 1.99 2.1 1.85 2.11 2 2.11 2.29 2.1 2.49 2.12 2.47 2.14 2.21 2.2 1.82 2.24 1.39 2.29 1.09 2.3.92 2.33.86 2.33.86 2.35.87 2.34.9 2.33 1.03 2.3 1.26 2.32 1.59 2.39L87.15.54l2.29 2.6 1.85 2.49-.02 2.06m-47.34-62.7L50.49-53l.87 2.06.28 2.06 1.16 2 2.18 1.94 2.76 1.93 2.78 1.98L63-38.99l2.17 2.08 2.1 2.07 2.27 2.04 2.56 1.99 2.75 1.98 2.68 2 2.31 2.06 1.86 2.11 1.59 2.18 1.73 2.22L87.27-16l2.99 2.3 3.63 2.42 1.77 2.81" filter="url(#a)"/><path d="m43.93-55.01 1.58 2.03 1.63 2.09 1.88 2.08 2.19 2.01 2.36 1.97 2.3 1.97 2.11 2.01 1.84 2.06 1.55 2.09 1.32 2.08 1.14 2.05 1.04 2.04.97 2.03.94 2.06.93 2.11.94 2.15.94 2.22.92 2.27.87 2.32.76 2.38.69 2.42.66 2.47.69 2.48.78 2.47.92 2.43 1.02 2.41 1.01 2.36 1 2.16 1.81 1.85m-36.5-62.85 2.37 1.06 4.15 1.59 6.29 1.83 5.8 1.9 3.95 1.92 2.46 1.97 1.78 2.03 1.52 2.09 1.38 2.1 1.22 2.1 1.08 2.1.97 2.1.92 2.13 1.04 2.19 1.41 2.23 1.96 2.28 2.49 2.3 2.72 2.31 2.55 2.34 2.22 2.34 2.18 2.36 2.74 2.33 3.76 2.24 4.41 2.13 3.66 2.21 2.47 2.93" filter="url(#a)"/><path d="m44.22-54.79 1.52 1.05 2.1 1.59 1.99 1.82 1.5 1.89 1.2 1.91 1.26 1.96 1.56 2.03 1.9 2.08 2.1 2.1 2.11 2.1 1.88 2.08 1.52 2.08 1.21 2.12 1.09 2.17 1.21 2.24 1.52 2.27 1.89 2.29 2.17 2.3 2.32 2.32 2.27 2.36 1.99 2.41 1.45 2.41.72 2.3.8 2.37" filter="url(#a)"/><path d="m42.78-56.47 4.54 1.39 4.59 1.38 1.8 1.61.32 1.79.6 1.86 1.66 1.92 2.53 1.98 2.72 2.04 2.31 2.08 1.69 2.1 1.25 2.11 1.2 2.1L69.53-32l2.11 2.14 2.73 2.2 3.23 2.24 3.53 2.27 3.59 2.31 3.4 2.32 2.93 2.34 2.24 2.35 1.5 2.35.99 2.33.94 2.27 1.36 2.23 1.81 2.33 1.84 2.63 2.76 2.95" filter="url(#a)"/><path d="m42.75-56.76 1.1 1.25 1.05 1.26 1.17 1.59 1.32 1.84 1.34 1.94 1.28 1.98 1.19 1.97 1.14 2 1.12 2.02 1.11 2.06 1.07 2.08.98 2.08.88 2.06.77 2.05.69 2.05.66 2.07.65 2.12.66 2.16.68 2.22.67 2.28.65 2.33.6 2.38.53 2.43.45 2.46.36 2.48.27 2.47.19 2.44.12 2.4.04 2.33v4.32l.18 2.23M42.75-56.76l1.93 1.25 3.83 1.26 4.61 1.59 3.4 1.84L58-48.88l.18 1.98-.06 1.97.56 2 1.56 2.02 2.53 2.06 3.21 2.08 3.56 2.08 3.58 2.06 3.33 2.05 2.9 2.05 2.41 2.07 1.97 2.12 1.73 2.16 1.75 2.22 2.01 2.28 2.41 2.33 2.77 2.38 3.02 2.43 3.19 2.46 3.36 2.48 3.5 2.47 3.46 2.44 2.95 2.4 1.97 2.33 1.2 2.22 1.97 2.1 4.1 2.23M41.83-57.4l.37 1.09.42 1.26.41 1.43.53 1.61.56 1.77.49 1.86.39 1.93.41 2 .53 2.05.75 2.09.93 2.11 1.03 2.12.99 2.13.84 2.15.59 2.17.3 2.22v2.26l-.25 2.29-.41 2.32-.44 2.34-.38 2.34-.25 2.36-.12 2.36-.05 2.35-.09 2.37-.22 2.38-.42 2.4-.71 2.42-1.05 2.42-1.39 2.36-1.65 2.28-1.68 2.18-1.34 2.09-.73 2-.29 1.97-.99 2.55" filter="url(#a)"/><path d="m41.83-57.4.45 1.07.55 1.23.84 1.39.77 1.57.5 1.73.29 1.83.3 1.89.44 1.95.64 2.01.77 2.06.84 2.09.81 2.09.66 2.07.42 2.07.11 2.1-.19 2.16-.4 2.23-.5 2.28-.55 2.29-.69 2.27-.89 2.21-.99 2.14-1.44 1.97m-2.74-44.7 1.09 1.07 1.19 1.23 1.21 1.38 1.24 1.57 1.24 1.72 1.26 1.82 1.24 1.89 1.22 1.94 1.2 2.01 1.2 2.06 1.18 2.09 1.17 2.08 1.1 2.06 1 2.06.88 2.08.79 2.15.75 2.24.74 2.29.79 2.3.87 2.28.96 2.23.81 2.25" filter="url(#a)"/><path d="m39.06-60.44 2.62 2.77 1.41 1.8.67 1.57-.07 1.68-.62 1.82-.73 1.92-.35 1.96.15 1.98.47 2 .41 2.04.01 2.06-.56 2.07-1.02 2.08-1.2 2.07-1.07 2.06-.66 2.06-.16 2.09.32 2.13.66 2.17.8 2.23.7 2.28.35 2.34-.24 2.39-.95 2.43-1.69 2.46-2.23 2.47-2.46 2.46L31.3-.62l-1.9 2.4-1.41 2.36-1.08 2.33-1.13 2.36-1.59 2.48-2.06 2.64-1.77 2.38" filter="url(#a)"/><path d="m40.08-59.39 1.5 1.62 1.23 1.36 1.12 1.35 1.14 1.46 1.23 1.61 1.36 1.74 1.54 1.85 1.69 1.92 1.79 1.99 1.79 2.04 1.67 2.08 1.45 2.11 1.17 2.12.91 2.13.71 2.15.59 2.17.59 2.22.67 2.25.83 2.29 1.02 2.32 1.23 2.34 1.38 2.35 1.48 2.35 1.47 2.36L71-8.86l1.17 2.37.96 2.37.78 2.41.61 2.43.47 2.43.29 2.38.18 2.29.22 2.18.49 2.09.64 1.89-.06 1.07" filter="url(#a)"/><path d="m38.86-60.46 1.18 1.06 1.73 1.72 1.63 1.66 1.67 1.6 1.82 1.68 1.99 1.79 2.07 1.89 2.02 1.92 1.88 1.96 1.7 1.97 1.63 2 1.7 2.04 1.94 2.07 2.19 2.07 2.34 2.05 2.26 2.02 1.96 2 1.54 2.02 1.15 2.07.93 2.13.91 2.18 1.03 2.23 1.18 2.28 1.31 2.32 1.56 2.43 2.21 2.83M37.8-61.7l2.41 2.02 2.67 1.66 2.69 1.43 2.6 1.37 2.49 1.44 2.4 1.56 2.46 1.69 2.71 1.78 3 1.87 3.13 1.93 3.07 1.99 3.05 2.06 3.4 2.08 4.27 2.09 5.39 2.05 6.22 2.04 6.23 2.06 5.4 2.14 4.15 2.24 2.8 2.33 1.18 2.39.06 1.84" filter="url(#a)"/><path d="m37.8-61.7 2.16 2.03 1.88 1.66 1.88 1.44 1.92 1.39 2.17 1.46 2.61 1.57 3.01 1.7 3.12 1.8 2.88 1.88 2.43 1.95 1.97 2.01 1.72 2.06 1.7 2.08 1.89 2.09 2.19 2.08 2.48 2.08 2.67 2.11 2.76 2.17 2.82 2.23 3.01 2.29 3.26 2.3 3.28 2.28 2.63 2.22 1.41 2.14 2.11 1.98m-61.8-50.97.72 2.28-1.7 1.83-2.69 1.74-2.08 1.66-1.24 1.62-.79 1.67-.48 1.77-.03 1.85.55 1.91 1.02 1.93 1.19 1.94.97 1.98.32 2.03-.76 2.08-2.17 2.08-3.51 2.05-4.27 1.97-4.05 1.92-3.28 1.95-3.17 2.07-4.13 2.12-3.04 1.87" filter="url(#a)"/><path d="m35.96-63.67 2.18 2.31 1.95 1.86 1.96 1.76 1.85 1.69 1.72 1.67 1.66 1.72 1.67 1.82 1.67 1.89 1.68 1.94 1.68 1.97 1.71 2 1.76 2.03 1.82 2.05 1.83 2.07 1.77 2.08 1.64 2.06 1.44 2.06 1.25 2.07 1.09 2.08 1 2.12.95 2.17.91 2.22.87 2.28.8 2.33.73 2.39.7 2.43.74 2.47.84 2.48.96 2.48L77.8-.73l.97 2.41.86 2.34.74 2.23.52 2.11.28 2.23" filter="url(#a)"/><path d="M34.22-65.36 36-63.58l2.01 1.85 2.09 1.78 2.03 1.65 1.83 1.51 1.52 1.47 1.27 1.49 1.09 1.57 1.04 1.68 1.08 1.77 1.19 1.86 1.27 1.92 1.32 2 1.31 2.05 1.26 2.09 1.23 2.09 1.21 2.06 1.19 2.05 1.13 2.07 1.05 2.15.99 2.24 1.05 2.34 1.16 2.4 1.03 1.85M34.22-65.36l13.02 1.8 3.37 1.87.37 1.8.74 1.65 1.33 1.54 1.38 1.5 1.27 1.53 1.28 1.62 1.47 1.72 1.71 1.81 1.94 1.89 2.15 1.96 2.36 2.03 2.61 2.06 2.91 2.09 3.31 2.11 3.77 2.12 4.32 2.14 4.8 2.16 5.1 2.21 5.1 2.24 4.76 2.29 4.17 2.31 3.59 2.33 3.23 2.35 3.21 2.36 3.37 2.36 3.41 2.34 3.07 2.31 2.51 2.31 2.22 2.39 2.54 2.57 2.53 2.77.47 2.7" filter="url(#a)"/><path d="m33.86-65.46 1.87 1.51 1.46 1.28 1.85 1.46 2.19 1.6 2.26 1.65 2.13 1.64 1.92 1.65 1.72 1.7 1.53 1.76 1.35 1.85 1.21 1.89 1.16 1.93 1.18 1.94 1.26 1.98 1.33 2.03 1.39 2.08 1.45 2.1 1.52 2.06 1.58 1.96 1.66 1.89 1.76 1.94 1.88 2.15 1.73 2.47" filter="url(#a)"/><path d="m32.68-66.29 2.45 1.22 1.66 1.61 1.69 1.76 1.73 1.74 1.65 1.64 1.52 1.56 1.41 1.53 1.36 1.56 1.31 1.63 1.28 1.71 1.25 1.81 1.22 1.89 1.2 1.97 1.21 2.02 1.22 2.06 1.23 2.09 1.22 2.11 1.18 2.13 1.1 2.14.97 2.17.83 2.21.69 2.25.6 2.28.57 2.32.6 2.34.68 2.35.78 2.35.87 2.36.89 2.35.82 2.33.69 2.34.5 2.41.31 2.53.2 2.62.15 2.51.21 2.08" filter="url(#a)"/><path d="m33.04-66.01 3.51.92 5.62 1.16 4.44 1.29 3.34 1.46 2.99 1.57 2.87 1.64 2.73 1.64 2.55 1.67 2.3 1.71 1.92 1.78 1.52 1.85 1.29 1.9 1.47 1.93 2.11 1.96 3.05 2 3.96 2.04 4.58 2.07 4.78 2.08 4.71 2.06 4.49 2 4.32 1.96 4.23 1.98 4.16 2.05 3.76 2.1 2.63 2.07 3.04 2.06" filter="url(#a)"/><path d="m30.9-67.72 1.72 1.3 1.68 1.4 1.71 1.6 1.72 1.7 1.67 1.7 1.55 1.64 1.43 1.57 1.34 1.55L45-53.69l1.27 1.63 1.28 1.72 1.3 1.81 1.3 1.89 1.27 1.95 1.21 2.02 1.14 2.06 1.05 2.09.96 2.11.89 2.13.85 2.14.83 2.18.85 2.21.86 2.25.86 2.28.83 2.32.78 2.34.69 2.35.58 2.36.49 2.36.39 2.35.32 2.33.25 2.34.16 2.41.08 2.53.06 2.62.1 2.52.14 2.08M27.56-69.84l.79-.74.42-.75-.63-.7-1.3-.71-1.41-.72-1.39-.71-1.5-.66-1.79-.62-2.17-.55-2.52-.48-2.77-.41-2.91-.34-2.95-.26-2.91-.19-2.84-.12-2.73-.05-2.65.01-2.61.09-2.66.15-2.84.22-3.12.28-3.44.35-3.81.43-4.19.51-4.68.62-5.19.73-5.38.79-5.48.83" filter="url(#a)"/><path d="m27.56-69.84-1-.75-1.05-.75-1.07-.71-1.31-.72-1.59-.72-1.79-.7-1.91-.67-1.97-.61-2-.54-2.02-.48-2.04-.4-2.08-.32-2.09-.25-2.09-.18-2.07-.11-2.04-.04-2 .04-1.99.1-2.02.18-2.09.24-2.16.32-2.26.39-2.33.47-2.39.56-2.41.64-2.43.73-2.43.78-2.46.83-2.49.85-2.5.86-2.5.88-2.48.91-2.54 1.03-2.68 1.26-2.7 1.67" filter="url(#a)"/><path d="m27.73-69.79-1.72-1.07-.17-.84.62-.75.16-.71-.9-.71-1.87-.69-2.43-.64-2.61-.57-2.59-.5-2.54-.42-2.53-.34-2.55-.28-2.61-.21-2.65-.14-2.7-.07h-2.71l-2.71.08-2.71.14-2.74.22L-13-77l-2.86.37-2.97.46-3.08.54-3.21.62-3.31.7-3.44.77-3.58.83-3.75.88-3.94.92-4.07.96-4.11 1-4.04 1.04-4.02 1.08-4.36 1.12-5.26 1.19-6.14 1.44" filter="url(#a)"/><path d="m27.73-69.79-1.68-1.06-1.47-.83-1.44-.74-1.53-.7-1.65-.71-1.76-.69-1.8-.65-1.84-.58-1.85-.5-1.87-.43-1.89-.36-1.92-.3-1.93-.23-1.97-.17-1.99-.1-1.99-.03-1.99.04-1.96.11-1.9.18-1.82.22-1.73.28-1.66.35-1.72.46-2.13.56" filter="url(#a)"/><path d="m24.31-71.93 1.7-.18.81-.66-1.13-.74-2.22-.72-2.41-.67-2.25-.62-2.07-.55-2.01-.47-2.08-.4-2.25-.33-2.44-.26-2.62-.18-2.7-.12-2.71-.04-2.68.02-2.66.09-2.71.16-2.86.22-3.08.28-3.34.36-3.61.42-3.91.52-4.27.62-4.61.72-4.69.79-4.68.83" filter="url(#a)"/><path d="m24.33-71.86-.48-.67-.45-.66-1.4-.71-2.06-.71-2.2-.66-2.09-.57-1.98-.49-1.97-.41-2.03-.34-2.14-.28-2.25-.21-2.35-.14-2.41-.08h-2.46l-2.51.06-2.56.14-2.66.21-2.8.27-2.99.35-3.23.44-3.51.52-3.8.61-4.09.7-4.35.76-4.56.84-4.74.89-4.76.96-4.25.99-2.7.94" filter="url(#a)"/><path d="m24.26-71.61-1.9-1.07-1.72-.86-1.57-.75-1.54-.68-1.62-.61-1.75-.54-1.92-.47-2.08-.38-2.18-.32-2.22-.24-2.21-.16-2.15-.1-2.08-.02-2.02.05-1.98.11-2.01.19-2.08.25-2.2.33-2.36.4-2.52.49-2.67.56-2.79.65-2.86.73-2.87.78-2.83.83-2.74.85-2.61.88-2.54.92-2.56.98-2.76 1.09-3.05 1.25-3.28 1.39-3.25 1.41-2.7 1.09" filter="url(#a)"/><path d="m22.34-72.84-1.82-.81-1.54-.68-1.57-.66-1.63-.61-1.67-.55-1.7-.46-1.79-.39-1.95-.32-2.15-.25-2.36-.17-2.5-.11-2.59-.04-2.66.03-2.81.1-3.07.16-3.43.22-3.77.29-3.98.35-3.95.42-3.8.52-3.69.62-3.95.73-4.93.79-6.97.82" filter="url(#a)"/><path d="m22.34-72.84-1.91-.81-1.66-.69-1.71-.66-1.71-.62-1.65-.54-1.64-.46-1.73-.39-1.9-.31-2.07-.23-2.23-.17-2.32-.1-2.37-.02-2.44.04-2.56.11-2.76.18-3.02.25-3.27.32-3.45.39-3.49.47-3.45.56-3.39.65-3.43.73-3.63.79-3.97.84-4.33.85-4.59.84-4.73.85-4.66.86-4.08.93-3.06 1.18" filter="url(#a)"/><path d="m22.14-72.99-1.3-.88-.71-.8-1.25-.69-1.76-.58-1.97-.47-2.06-.39-2.18-.33-2.3-.27-2.43-.22-2.5-.15-2.52-.08-2.52-.02-2.54.06-2.58.13-2.67.19-2.76.24-2.81.31-2.81.39-2.9.5-3.22.62-3.73.75-3.93.9" filter="url(#a)"/><path d="m19.97-73.81-3.03-.58-2.75-.63-1.78-.63-1.47-.55-1.51-.45-1.6-.38-1.64-.31-1.64-.25-1.58-.17-1.48-.1-1.32-.04-1.13.03-.89.1-.67.16-.49.23-.37.29-.32.35-.33.43-.36.51-.31.62-.21.73.02.79.83.82" filter="url(#a)"/><path d="m19.57-73.95-1.52-.81-1.71-.7-1.89-.56-1.91-.45-1.91-.38-1.93-.32-1.97-.26-2.03-.19-2.09-.13-2.13-.07-2.18.01-2.2.09-2.22.15-2.23.22-2.25.3-2.29.37-2.36.45-2.44.54-2.53.62-2.61.71-2.66.77-2.69.83-2.67.89-2.58.92-2.42.94-2.25.98-2.25 1.04-2.63 1.13-2.94.91" filter="url(#a)"/><path d="m17.66-74.79-1.71-.76-1.01-.55-.91-.42-1.43-.37-2.01-.31-2.39-.25-2.56-.2L3-77.77l-2.7-.06-2.77.02-2.87.09-2.96.16-3.07.23-3.19.3-3.31.38-3.4.47-3.5.55-3.6.63-3.77.71-4 .77-4.29.84-4.53.88-4.57.93-4.33.95-3.92 1-3.64 1.03-3.78 1.08-4.35 1.12-4.74 1.18-5.06 1.43" filter="url(#a)"/><path d="m17.66-74.79-1.01-.75-1.09-.55-1.57-.42-1.81-.37-1.99-.31-2.21-.26-2.41-.2-2.59-.14-2.7-.07H-2.5l-2.82.07-2.87.14-2.95.2-3.06.26-3.19.34-3.39.41-3.69.51-4.1.61-4.47.7-4.36.75-3.61.8-3.39 1.03" filter="url(#a)"/><path d="m17.85-74.76-2.83-1-1.87-.59-1.9-.42-2.01-.35-2.07-.29-2.1-.22-2.11-.15-2.1-.08h-2.07l-2.07.07-2.11.13-2.17.2-2.27.28-2.4.35-2.54.42-2.66.51-2.76.59-2.85.66-2.95.73-3.04.79-3.14.84-3.2.87-3.17.92-3.04.97-2.8 1.05-2.53 1.14-2.39 1.25-2.47 1.34-2.8 1.41-3.27 1.44-3.65 1.42-3.7 1.37-3.47 1.34-3.34 1.41-3.39 1.5" filter="url(#a)"/><path d="m17.85-74.76-3.16-1-2.02-.58-1.81-.43L9-77.12l-1.94-.29-1.98-.22-1.99-.16-1.94-.08-1.86-.01-1.78.06-1.75.12-1.75.19-1.81.26-1.9.33-1.98.41-2.06.49-2.15.57-2.2.66-2.24.73-2.22.79-2.15.83-2.06.85-1.93.86-1.84.89-1.81.95-1.89 1.07-2.04 1.27-2.23 1.52-2.45 1.65" filter="url(#a)"/><path d="m13.25-76.18-.97-.32-1.54-.33-1.82-.33-1.93-.28L5-77.66l-2-.15-1.96-.07H-.85l-1.83.07-1.82.14-1.85.21-1.92.28-2.01.35-2.1.43-2.16.51-2.18.59-2.18.67-2.15.74-2.1.79-2.05.84-2 .88-1.97.92-1.95.98-1.99 1.05-2.04 1.15-2.1 1.25-2.16 1.34-2.17 1.4-2.13 1.42-2.02 1.42-1.9 1.4-1.86 1.39-1.97 1.48-2.23 1.67-2.45 2.02" filter="url(#a)"/><path d="m13.25-76.18-.96-.32-1.52-.33-1.8-.33-1.93-.29-2.01-.21-2.04-.15L1-77.88l-1.9.01-1.82.07-1.79.14-1.8.21-1.83.28-1.89.36-1.93.43-1.97.52-1.99.59-1.99.68-1.99.73-1.97.8-1.93.84-1.91.89-1.88.93-1.86.99-1.87 1.07-1.88 1.16-1.89 1.24-1.88 1.33-1.87 1.39-1.84 1.42-1.8 1.42-1.77 1.43-1.75 1.46-1.76 1.51-1.78 1.62-1.75 1.69-1.57 1.62-1.22 1.29" filter="url(#a)"/><path d="m12.78-76.5-.91-.12-1.64-.33-1.84-.31-1.92-.25-2-.19-2.06-.11-2.09-.05-2.11.03-2.12.11-2.13.18-2.18.25-2.28.32-2.41.4-2.53.49-2.62.57-2.64.65-2.6.72-2.51.79-2.4.85-2.31.89-2.24.94-2.22.98-2.26 1.02-2.39 1.07-2.59 1.13-2.86 1.18-3.09 1.23-3.18 1.28-3 1.33-2.59 1.38-2.14 1.46-1.9 1.59-2.17 1.72-3.29 1.93" filter="url(#a)"/><path d="m12.78-76.5-.94-.11-1.65-.33-1.86-.32-1.91-.25-1.96-.19-2.01-.12-2.08-.05-2.11.03-2.13.1-2.12.17-2.11.23-2.1.31-2.1.39-2.12.47-2.17.56-2.23.64-2.32.71-2.41.79-2.46.84-2.5.88-2.48.93-2.42.96-2.33.99-2.26 1.05-2.24 1.09-2.31 1.16-2.45 1.28-2.68 1.51-3.12 1.92" filter="url(#a)"/><path d="m11.37-76.71-2.18-.48-1.91-.32-2.12-.23-2.23-.14-2.22-.06-2.17.02-2.15.08-2.19.14-2.27.22-2.36.28-2.47.36-2.58.43-2.71.52-2.79.6-2.81.68-2.78.74-2.71.8-2.63.84-2.59.89-2.59.92-2.63.99-2.72 1.06-2.82 1.15-2.97 1.25-3.14 1.34-3.34 1.39-3.53 1.42-3.63 1.42-3.5 1.41-3.16 1.43-2.8 1.51-2.85 1.65-3.51 1.79-4.67 1.78" filter="url(#a)"/><path d="m11.37-76.71-2.43-.48-2.02-.32-2.01-.23-2.03-.14-1.99-.06H-1l-1.81.07-1.8.14-1.88.2-2.01.26-2.15.34-2.28.41-2.34.49-2.4.58-2.43.67-2.47.73-2.5.8-2.5.83-2.49.85-2.44.86-2.4.89-2.37.95-2.38 1.06-2.5 1.27-2.75 1.51-2.86 1.65" filter="url(#a)"/><path d="m10.05-77.06-.95-.33-1.77-.21-2.21-.16-2.34-.11-2.33-.05-2.27.04-2.16.11-2.08.18-2.07.24-2.14.32-2.29.39-2.51.48-2.71.57-2.87.65-2.97.72-3.03.79-3.06.84-3.09.89-3.09.93-3.08.96-3.06 1-3.08 1.05-3.17 1.1-3.35 1.17-3.6 1.25-3.76 1.31-3.32 1.18-1.5.37" filter="url(#a)"/><path d="m8.33-77.34-1.53-.24-1.9-.2-2.04-.14-1.99-.06-1.83.01-1.68.08-1.61.13-1.65.19-1.75.26-1.85.33-1.91.4-1.96.48-1.99.56-2.02.66-2.06.74-2.09.81-2.08.84-1.99.84-1.82.84-1.63.82-1.52.8-1.37.65" filter="url(#a)"/><path d="m7.99-77.51-1.75-.13-1.9-.15-2-.11-2.07-.05-2.05.03-2.02.11-2 .17-1.99.24-2.02.3-2.05.38-2.14.46-2.26.55-2.38.63-2.49.72-2.52.77-2.49.84-2.4.88-2.27.91-2.17.93-2.14.94-2.31 1.07-3.04 1.63" filter="url(#a)"/><path d="m4.89-77.9-2.27-.12-2.15-.02-1.85.04-1.65.1-1.6.16-1.67.22-1.77.3-1.84.37-1.91.46-1.96.53-2.01.62-2.06.7-2.07.76-2.05.82-1.99.85-1.91.91-1.82.95-1.76 1.01-1.7 1.1-1.69 1.17-1.69 1.26-1.68 1.33-1.67 1.38-1.67 1.41-1.65 1.45-1.64 1.47-1.63 1.51-1.62 1.57-1.57 1.64-1.51 1.73-1.45 1.8-1.41 1.85-1.38 1.85-1.36 1.84-1.32 1.84-1.39 2.11-1.98 3.24" filter="url(#a)"/><path d="m4.01-77.9-1.77-.06-2.21-.05-2.3.04-2.33.13-2.25.2-2.11.25-2.02.32-2.08.39-2.31.48-2.59.56-2.85.66-3.04.73-3.22.79-3.48.84-3.9.89-4.39.92-4.83.95-5.05.98-4.97 1.03-4.62 1.07-4.05 1.11-3.57 1.17-3.9 1.42" filter="url(#a)"/><path d="m2.52-78.06-2.17-.02-1.83.05-1.49.09-1.42.15-1.54.21-1.68.28-1.77.35-1.82.42-1.84.5-1.86.59-1.87.67-1.85.76-1.79.8-1.68.84-1.55.84-1.4.86-1.3.88-1.27.94-1.34 1.06-1.47 1.27-1.63 1.51-1.62 1.63" filter="url(#a)"/><path d="M2.52-78.06.2-78.08l-1.94.06-1.54.1-1.53.16-1.7.23-1.89.29-2.03.38-2.15.45-2.3.55-2.49.62-2.71.71-2.93.76-3.13.82-3.25.86-3.31.91-3.34.95-3.41 1.02-3.53 1.1-3.7 1.18-3.85 1.26-3.91 1.33-3.81 1.38-3.59 1.42-3.3 1.44-3.11 1.48-3.13 1.52-3.39 1.57-3.79 1.65-4.18 1.73-4.39 1.79-4.43 1.84-4.43 1.85-4.48 1.86-4.58 1.87-4.63 1.94-4.51 1.97-2.9 1.11" filter="url(#a)"/><path d="m2.66-77.89-2.64-.16-2.24.04-2.12.16-2.14.22-2.14.27-2.12.35-2.16.42-2.3.52-2.57.6-2.89.69-3.12.76-3.2.82-3.08.87-2.83.92-2.61.96-2.51 1-2.64 1.05-2.96 1.1-3.41 1.15-3.81 1.2-4.02 1.26-3.97 1.32-3.69 1.37-3.23 1.44-2.78 1.49-2.46 1.54-2.38 1.59-2.57 1.6-2.96 1.64-3.45 1.68-3.87 1.79-4.02 1.95-3.9 2.13-3.71 2.27-3.83 2.37-5.08 2.67" filter="url(#a)"/><path d="m.43-78.17-2.37.13-1.54.09-1.78.16-2.28.23-2.58.29-2.66.38-2.7.45-2.87.53-3.14.63-3.43.7-3.61.77-3.56.82-3.27.86-2.88.89-2.52.94-2.36 1-2.45 1.08-2.8 1.16-3.31 1.26-3.9 1.34-4.47 1.38-4.88 1.42-5.07 1.43-4.96 1.44-4.69 1.48-4.42 1.53-4.4 1.63-4.58 1.72-4.7 1.83-4.41 1.94-3.98 1.94-5 1.1" filter="url(#a)"/></g><g fill="none" stroke="#000"><circle cx="8.334" cy="1.994" r="1.626" filter="url(#a)"/><circle cx="10.682" cy="2.582" r="1.594" filter="url(#a)"/><circle cx="9.882" cy="1.11" r="2.95" filter="url(#a)"/><circle cx="9.83" cy=".618" r="2.71" filter="url(#a)"/><circle cx="10.862" cy=".21" r="1.696" filter="url(#a)"/><circle cx="8.126" cy=".742" r="1.028" filter="url(#a)"/><circle cx="11.218" cy=".602" r="2.074" filter="url(#a)"/><circle cx="9.978" cy="3.366" r="2.052" filter="url(#a)"/><circle cx="8.19" cy=".478" r="1.552" filter="url(#a)"/><circle cx="9.034" cy="1.258" r="1.004" filter="url(#a)"/><circle cx="-7.008" cy="7.664" r="1.374" filter="url(#a)"/><circle cx="-9.42" cy="5.872" r="2.84" filter="url(#a)"/><circle cx="-6.556" cy="8.728" r="2.128" filter="url(#a)"/><circle cx="-8.136" cy="9.2" r="2.314" filter="url(#a)"/><circle cx="-9.804" cy="5.724" r="1.618" filter="url(#a)"/><circle cx="-9.004" cy="8.24" r="2.946" filter="url(#a)"/><circle cx="-7.444" cy="5.924" r="1.586" filter="url(#a)"/><circle cx="-6.272" cy="8.532" r="1.838" filter="url(#a)"/><circle cx="-6.656" cy="6.568" r="1.404" filter="url(#a)"/><circle cx="-6.336" cy="6.624" r="2.698" filter="url(#a)"/></g><path fill="#D77F8C" stroke="#000" stroke-linejoin="round" stroke-width="3" d="m13.26 55.25.03-.86-.07.46.02 1.35-.04-.42-.2 1.34.08-.56-.08 1.19-.31.88.16-.41-.15.45-.3.87.05.02-.17.43-.19.3-.21.56-.5.94-.08.15-.32.65-.62.87.49-.71-.24.39-.87 1.18.16-.21-.43.47-.2.23-.04.01-.37.44-.97.81-.59.55-.02.01-.95.6-.03.01-.38.24-.06.08-.73.35-.76.38.19-.11-.65.3.04-.05-.41.16-.83.28.49-.17-.53.19-1.34.33-.72.1-.06.02.28-.03-1.23.12.46-.03-1.55.06-.74-.03-.17-.01.37.02-1.13-.1-1.22-.2-.19-.07.09.03.02-.01-1.39-.35.42.12-1.31-.5-.94-.43.3.18.23.12-1.71-.9.32.14.13.06-1.4-.89.24.16-.57-.45-.44-.29-.32-.3-.5-.52-.43-.44.56.62-.4-.33-1.02-1.23.52.67-1.27-1.66-.08-.14.1.11-.35-.52.12.23-.83-1.57.28.64-.15-.55-.08-.01-.52-1.39-.41-1.01.02-.16-.21-.88.09.41-.18-.74-.01.12-.01-.31-.07-.61-.02-.17-.12-1.2-.07-1.05.03-.17.01-.17.09-.02-.01-.47.07-.46.31-1.62.01-.45-.1.41.2-.45.01-.3.41-1 .29-.71-.39.95.24-.71.46-.96.29-.54-.26.5.92-1.66.07-.02-.31.47.34-.51.8-1.18.21-.13.33-.45-.11.09.62-.54.77-.7.03-.01.11-.11.03-.01.7-.55.93-.66.16-.08.37-.23-.26.2 1.01-.55.35-.19.16-.07.67-.23-.33.1.42-.16 1.69-.5-.5.14 1.65-.34-.51.07-.02.02 1.12-.17.16-.02 1.09-.06h.65-.41l1.53.08.62.08.67.1.31.06-.16-.02 1.02.24.76.22.06.01-.23-.04 1.06.36-.2-.04.22.06.93.44-.06-.06.75.42.45.24.71.49-.37-.23.89.61.58.47-.16-.08 1.06.91.24.23-.17-.2.32.44.65.69-.35-.32.53.59.97 1.35-.03.02-.43-.73.95 1.81.29.41-.27-.51.1.42.43.83.29.86.02.02.06.02.01.3.39 1.6-.14-.7.24 1.33.13.76-.03-.43.05.91-.05-.72" filter="url(#a)"/></svg>