<svg viewBox="-100 -100 200 200" xmlns="http://www.w3.org/2000/svg" width="500" height="500" id="face-svg">
    <defs>
      <clipPath id="leftEyeClipPath">
        <polyline points="32.5,5.29 32.04,4.78 31.54,4.27 31.02,3.74 30.48,3.21 29.91,2.67 29.32,2.13 28.71,1.59 28.08,1.06 27.44,0.52 26.78,0 26.1,-0.52 25.41,-1.04 24.72,-1.54 24.01,-2.03 23.28,-2.51 22.4,-3.2 21.52,-3.86 20.63,-4.5 19.73,-5.11 18.83,-5.69 17.92,-6.24 17.02,-6.76 16.11,-7.24 15.2,-7.69 14.3,-8.09 13.39,-8.47 12.48,-8.8 11.57,-9.09 10.67,-9.35 9.76,-9.57 8.86,-9.75 7.96,-9.89 7.06,-9.99 6.17,-10.06 5.27,-10.08 4.38,-10.08 3.5,-10.03 2.61,-9.96 1.73,-9.85 0.85,-9.71 -0.02,-9.53 -0.89,-9.33 -1.76,-9.1 -2.62,-8.85 -3.47,-8.56 -4.32,-8.26 -5.17,-7.93 -6,-7.58 -6.84,-7.22 -7.66,-6.83 -8.48,-6.43 -9.29,-6.02 -10.09,-5.59 -10.89,-5.15 -11.67,-4.71 -12.45,-4.25 -13.21,-3.79 -13.97,-3.33 -14.71,-2.86 -15.45,-2.39 -16.17,-1.92 -16.87,-1.45 -17.57,-0.99 -18.25,-0.52 -18.92,-0.07 -19.57,0.39 -20.22,0.84 -20.85,1.29 -21.48,1.74 -22.09,2.18 -22.69,2.62 -23.28,3.06 -23.86,3.48 -24.43,3.91 -24.98,4.32 -25.53,4.73 -26.06,5.14 -26.57,5.53 -27.08,5.92 -24.33,8.87 -23.96,8.89 -23.57,8.9 -23.17,8.91 -22.75,8.92 -22.32,8.92 -21.87,8.92 -21.41,8.92 -20.94,8.92 -20.45,8.91 -19.96,8.91 -19.45,8.9 -18.92,8.9 -18.39,8.89 -17.85,8.88 -17.29,8.87 -16.72,8.87 -16.13,8.86 -15.54,8.85 -14.92,8.84 -14.3,8.84 -13.67,8.84 -13.02,8.84 -12.37,8.85 -11.7,8.85 -11.03,8.87 -10.35,8.89 -9.66,8.91 -8.96,8.94 -8.26,8.98 -7.54,9.02 -6.83,9.07 -6.1,9.13 -5.37,9.19 -4.63,9.26 -3.89,9.34 -3.14,9.42 -2.38,9.51 -1.62,9.6 -0.85,9.71 -0.08,9.81 0.7,9.93 1.49,10.04 2.29,10.16 3.09,10.29 3.9,10.42 4.72,10.55 5.55,10.68 6.39,10.82 7.23,10.95 8.09,11.08 8.95,11.22 9.83,11.35 10.71,11.47 11.6,11.6 12.5,11.72 13.42,11.83 14.34,11.94 15.27,12.04 16.21,12.13 17.16,12.21 18.12,12.28 19.08,12.34 20.05,12.39 21.02,12.43 21.78,12.49 22.53,12.53 23.28,12.58 24.02,12.61 24.76,12.64 25.48,12.66 26.2,12.67 26.9,12.67 27.58,12.66 28.25,12.64 28.91,12.62 29.54,12.58 30.15,12.53 30.74,12.48 31.29,12.41" />
      </clipPath>
      <clipPath id="rightEyeClipPath">
        <polyline points="-31.66,4.35 -31.38,3.83 -31.08,3.31 -30.75,2.78 -30.39,2.24 -30.01,1.69 -29.6,1.14 -29.16,0.6 -28.7,0.05 -28.22,-0.49 -27.71,-1.03 -27.18,-1.56 -26.63,-2.08 -26.05,-2.59 -25.46,-3.09 -24.85,-3.58 -24.19,-4.28 -23.5,-4.95 -22.78,-5.6 -22.04,-6.22 -21.27,-6.81 -20.48,-7.37 -19.67,-7.9 -18.83,-8.39 -17.98,-8.85 -17.1,-9.27 -16.2,-9.65 -15.29,-9.99 -14.36,-10.3 -13.41,-10.56 -12.44,-10.79 -11.47,-10.98 -10.48,-11.13 -9.48,-11.24 -8.47,-11.31 -7.45,-11.35 -6.42,-11.34 -5.39,-11.31 -4.35,-11.23 -3.31,-11.13 -2.27,-10.99 -1.22,-10.82 -0.18,-10.62 0.86,-10.39 1.9,-10.14 2.94,-9.85 3.97,-9.55 5,-9.22 6.01,-8.87 7.02,-8.5 8.02,-8.11 9.01,-7.7 9.99,-7.28 10.95,-6.85 11.9,-6.41 12.84,-5.96 13.77,-5.49 14.67,-5.02 15.56,-4.55 16.44,-4.07 17.29,-3.6 18.13,-3.12 18.95,-2.64 19.76,-2.16 20.54,-1.68 21.3,-1.21 22.05,-0.75 22.78,-0.28 23.5,0.18 24.2,0.64 24.88,1.1 25.55,1.55 26.2,2 26.83,2.44 27.45,2.88 28.05,3.31 28.63,3.73 29.2,4.15 29.75,4.56 30.28,4.96 24.79,9.35 24.27,9.42 23.73,9.48 23.19,9.54 22.64,9.6 22.08,9.65 21.51,9.7 20.93,9.75 20.34,9.79 19.75,9.84 19.16,9.88 18.56,9.92 17.95,9.95 17.35,9.99 16.75,10.02 16.14,10.05 15.52,10.08 14.9,10.11 14.27,10.14 13.64,10.16 13.01,10.19 12.39,10.22 11.77,10.24 11.15,10.27 10.53,10.3 9.93,10.33 9.33,10.36 8.74,10.4 8.16,10.43 7.58,10.47 7.02,10.51 6.46,10.55 5.91,10.6 5.37,10.65 4.84,10.7 4.32,10.75 3.8,10.81 3.29,10.87 2.78,10.93 2.27,10.99 1.76,11.06 1.25,11.12 0.74,11.19 0.23,11.26 -0.29,11.34 -0.82,11.41 -1.36,11.48 -1.91,11.55 -2.48,11.63 -3.07,11.7 -3.67,11.77 -4.29,11.84 -4.94,11.91 -5.62,11.97 -6.32,12.03 -7.05,12.09 -7.81,12.14 -8.61,12.19 -9.43,12.24 -10.3,12.28 -11.19,12.31 -12.12,12.33 -13.09,12.35 -14.09,12.36 -15.13,12.36 -15.84,12.38 -16.56,12.39 -17.29,12.39 -18.02,12.39 -18.76,12.38 -19.51,12.36 -20.25,12.34 -21,12.32 -21.75,12.28 -22.49,12.24 -23.22,12.19 -23.95,12.14 -24.66,12.07 -25.36,12 -26.04,11.93" />
      </clipPath>
      <filter id="fuzzy">
        <feTurbulence id="turbulence" baseFrequency="0.05" numOctaves="3" type="noise" result="noise" />
        <feDisplacementMap in="SourceGraphic" in2="noise" scale="2" />
      </filter>
      <linearGradient id="rainbowGradient" x1="0%" y1="0%" x2="100%" y2="0%">
        <stop offset="0%" style="stop-color: rgb(58, 221, 200); stop-opacity: 1" />
        <stop offset="47.4%" style="stop-color: rgb(203, 232, 34); stop-opacity: 1" />
        <stop offset="100%" style="stop-color: rgb(93, 38, 246); stop-opacity: 1" />
      </linearGradient>
    </defs>
    <rect x="-100" y="-100" width="100%" height="100%" fill="rgb(242, 193, 166)" />
    <polyline id="faceContour" points="82.23,0.36 82.11,2.12 81.9,1.12 82.02,2.76 82.13,4.32 81.99,5.79 81.59,7.28 81.68,8.24 81.47,10 81.34,10.23 81.01,11.46 80.67,13.33 80.41,15.76 80.68,15.23 80.07,17.48 79.77,18.79 79.57,18.66 79.35,20.12 78.51,23.22 78.54,22.48 78.51,23.01 77.7,25.43 76.43,28.17 76.95,27.07 76.48,28.32 75.71,30.26 75.5,30.48 75.41,31.03 73.87,33.94 73.48,34.65 73.11,35.3 71.85,37.73 71.77,37.76 70.27,40.21 70.25,40.72 70.04,41.12 69.89,41.18 69.21,42.41 67.91,44.12 66.57,46.33 67.1,45.35 64.44,48.53 65.73,47.14 64.31,48.91 64.39,48.74 62.17,51.2 62.24,51.54 61.23,52.22 58.5,55.25 58.51,55.24 57.19,56.46 58.53,55.04 56.29,57.13 55.01,58.14 52.56,60.16 53.53,59.63 51.71,60.97 50.73,61.66 50.91,61.52 49.86,62.63 48.54,63.35 48.64,63.35 46.2,64.9 45.9,64.95 44.08,66.54 44.38,66.07 41.22,67.91 40.12,68.81 38.78,69.32 37.43,70 37.72,69.81 36.13,70.71 34.38,71.34 34.57,71.2 33.14,72.01 31.65,72.47 30.4,73.03 27.77,73.76 29.46,73.25 26.03,74.34 24.31,75.08 23.08,75.55 25.33,74.73 22.53,75.55 21.47,75.9 19.25,76.52 17.82,76.61 17.92,76.73 15.56,77.27 15.26,77.24 12.11,77.79 11.76,77.75 10.69,77.8 10.4,78.07 6.55,78.48 7.05,78.25 6.88,78.26 3.85,78.36 1.77,78.76 2.73,78.71 -0.44,78.59 0.02,78.69 -3.72,78.34 -3.85,78.69 -3.79,78.61 -5.35,78.51 -6.87,78.2 -9.38,77.98 -9.73,78.19 -11.44,78.02 -12.16,77.91 -14.64,77.47 -16.56,76.94 -18.46,76.63 -19.76,76.45 -19.87,76.41 -21.62,75.92 -21.44,75.89 -21.46,76.06 -25.35,74.78 -25.51,74.67 -27.21,74.37 -26.85,74.29 -29.17,73.36 -31.53,72.49 -31.36,72.73 -31.83,72.49 -33.57,71.67 -35.48,71.14 -34.73,71.12 -37.76,69.81 -37.28,70.1 -39.39,69.16 -40.85,68.17 -41.3,68.21 -44.83,66.01 -44.24,66.18 -46.35,65.17 -46.53,64.74 -47.21,64.18 -47.39,64.21 -48.85,63.46 -50.6,61.63 -50.95,61.84 -52.48,60.56 -53.83,59.16 -55.34,58.29 -54.33,58.86 -55.69,57.69 -57.22,56.34 -58.27,55.68 -58.26,55.58 -59.18,54.56 -59.48,54.05 -60.69,52.62 -62.13,51.48 -63.44,49.91 -64.19,49.06 -63.95,49.46 -64.85,48.04 -66.33,46.57 -67.11,45.18 -67.26,44.96 -68.71,43.23 -69.93,41.04 -69.93,41.24 -70.3,40.84 -70.98,39.59 -71.55,38.77 -72.9,36.51 -72.25,37.67 -73.56,34.99 -74.8,32.52 -74.71,33.19 -75.78,30.04 -75.5,31.43 -77,27.91 -76.64,28.15 -77.55,25.67 -78.22,24.67 -78.77,22.94 -78.27,24.21 -78.63,22.53 -79.36,20.73 -79.45,20.22 -79.92,18.89 -79.83,18.84 -80.27,17.05 -80.88,13.99 -80.64,14.27 -81.51,11.22 -81.02,12.46 -81.3,11.02 -81.77,8.24 -81.77,6.73 -82.06,5.66 -82.06,5.95 -82.07,3.24 -82.03,1.98 -81.96,1.7 -81.96,-1.38 -82.21,-0.05 -82.3,-3.19 -82.03,-1.89 -82.16,-3.39 -81.74,-6.78 -81.6,-7.84 -81.91,-7.32 -81.65,-9.75 -81.17,-11.08 -80.8,-13.93 -81.08,-12.47 -81.29,-12.48 -80.47,-15.59 -80.25,-17.34 -80.01,-18.91 -79.72,-18.75 -79.17,-21.74 -79.3,-21.17 -78.72,-23.11 -77.74,-25.12 -78.38,-24.45 -77.61,-26.45 -76.72,-28.15 -76.62,-28.42 -76.26,-28.89 -75.68,-30.5 -74.72,-33.28 -74.45,-33.65 -74.34,-33.1 -73.18,-36.23 -72.77,-36.61 -72.04,-38.15 -70.88,-40.19 -69.93,-41.37 -70.46,-40.73 -70.31,-40.62 -69.27,-42.46 -68.3,-43.47 -66.89,-45.62 -66.58,-45.92 -66.19,-46.27 -65.41,-47.85 -64.26,-49.16 -63.66,-49.95 -63.29,-50.32 -61.18,-52.43 -61.75,-52.2 -60.13,-53.64 -58.77,-54.93 -57.4,-56.5 -56.42,-57.38 -57.04,-56.6 -54.43,-58.68 -54.11,-59.32 -53.76,-59.51 -51.55,-61.19 -51.76,-61.29 -49.77,-62.47 -48.5,-63.23 -47.76,-63.99 -48.07,-63.77 -45.9,-65.39 -45.04,-65.97 -43.51,-66.73 -43.93,-66.74 -42.86,-66.99 -40.1,-68.49 -38.02,-69.83 -37.37,-69.94 -38.3,-69.52 -34.29,-71.41 -35.31,-70.89 -32.19,-72.66 -32.73,-72.07 -32.3,-72.4 -30.25,-73.12 -27.73,-74.07 -27.73,-74.05 -26.38,-74.73 -26.45,-74.38 -23.76,-75.2 -23.49,-75.61 -22.2,-75.84 -20.91,-76.04 -19.62,-76.49 -17.35,-77.02 -16.9,-76.88 -16.86,-77.04 -11.92,-77.85 -12.03,-77.83 -12.08,-77.91 -10.48,-77.91 -8.93,-78.15 -5.88,-78.41 -5.94,-78.33 -4.32,-78.54 -4.8,-78.41 -2.71,-78.77 -0.64,-78.77 -0.82,-78.59 2.15,-78.69 0.83,-78.53 2.74,-78.84 5.02,-78.51 7.39,-78.29 8.38,-78.33 10.6,-78 8.39,-78.17 9.7,-78.16 12.41,-77.79 12.04,-77.98 14.98,-77.26 16.35,-77.17 19.14,-76.33 18.64,-76.62 21.98,-75.82 21.83,-75.83 22.88,-75.7 24.84,-74.81 25.16,-74.97 24.88,-75.07 28.11,-73.75 30.42,-72.95 30.41,-72.99 31.66,-72.48 31.38,-72.84 33.78,-71.75 33.95,-71.67 36.27,-70.53 36.9,-70 37.58,-69.81 39.68,-68.74 41.48,-68.11 40.9,-67.99 41.49,-68.08 43.03,-67.04 46.25,-65.23 46.18,-65.15 47.11,-64.37 48.6,-63.38 48.63,-63.37 49.91,-62.39 52.23,-60.73 53.72,-59.19 54.3,-59.14 54.14,-59.18 55.99,-57.55 55.4,-58.07 56.72,-56.93 58.29,-55.73 59.14,-54.55 60.17,-53.5 60.33,-53.37 62.15,-51.43 61.53,-52.49 63.24,-49.99 64.01,-49.36 64.74,-48.59 65.69,-47.05 67.54,-45.07 65.77,-46.68 67.61,-44.74 67.64,-44.94 68.62,-43 69.83,-41.01 71.85,-38.46 71.25,-38.87 71.11,-39.55 72.55,-36.8 73.62,-34.88 74.02,-34.38 73.8,-34.76 75.19,-31.42 75.1,-32.06 76.22,-29.83 76.5,-28.34 76.73,-28.02 76.92,-27.13 77.61,-25.71 78.13,-24.1 78.68,-22.7 78.83,-21.78 79.09,-21.69 79.56,-20.11 80.09,-17.53 79.69,-18.52 80.38,-15.53 80.28,-15.48 81.12,-11.95 81.03,-12.41 81.53,-10.06 81.5,-9.95 81.54,-9.49 81.51,-7.52 81.99,-5.75 82,-4.49 82.11,-3.57 82.29,-0.92 82.05,-2.15 82.23,0.36 82.11,2.12" fill="rgb(32, 154, 223)" stroke="black" stroke-width="1.6666666666666665" stroke-linejoin="round" filter="url(#fuzzy)" />
    <g transform="translate(50.870000000000005 -24.39)">
      <polyline id="rightCountour" points="-31.66,4.35 -31.38,3.83 -31.08,3.31 -30.75,2.78 -30.39,2.24 -30.01,1.69 -29.6,1.14 -29.16,0.6 -28.7,0.05 -28.22,-0.49 -27.71,-1.03 -27.18,-1.56 -26.63,-2.08 -26.05,-2.59 -25.46,-3.09 -24.85,-3.58 -24.19,-4.28 -23.5,-4.95 -22.78,-5.6 -22.04,-6.22 -21.27,-6.81 -20.48,-7.37 -19.67,-7.9 -18.83,-8.39 -17.98,-8.85 -17.1,-9.27 -16.2,-9.65 -15.29,-9.99 -14.36,-10.3 -13.41,-10.56 -12.44,-10.79 -11.47,-10.98 -10.48,-11.13 -9.48,-11.24 -8.47,-11.31 -7.45,-11.35 -6.42,-11.34 -5.39,-11.31 -4.35,-11.23 -3.31,-11.13 -2.27,-10.99 -1.22,-10.82 -0.18,-10.62 0.86,-10.39 1.9,-10.14 2.94,-9.85 3.97,-9.55 5,-9.22 6.01,-8.87 7.02,-8.5 8.02,-8.11 9.01,-7.7 9.99,-7.28 10.95,-6.85 11.9,-6.41 12.84,-5.96 13.77,-5.49 14.67,-5.02 15.56,-4.55 16.44,-4.07 17.29,-3.6 18.13,-3.12 18.95,-2.64 19.76,-2.16 20.54,-1.68 21.3,-1.21 22.05,-0.75 22.78,-0.28 23.5,0.18 24.2,0.64 24.88,1.1 25.55,1.55 26.2,2 26.83,2.44 27.45,2.88 28.05,3.31 28.63,3.73 29.2,4.15 29.75,4.56 30.28,4.96 24.79,9.35 24.27,9.42 23.73,9.48 23.19,9.54 22.64,9.6 22.08,9.65 21.51,9.7 20.93,9.75 20.34,9.79 19.75,9.84 19.16,9.88 18.56,9.92 17.95,9.95 17.35,9.99 16.75,10.02 16.14,10.05 15.52,10.08 14.9,10.11 14.27,10.14 13.64,10.16 13.01,10.19 12.39,10.22 11.77,10.24 11.15,10.27 10.53,10.3 9.93,10.33 9.33,10.36 8.74,10.4 8.16,10.43 7.58,10.47 7.02,10.51 6.46,10.55 5.91,10.6 5.37,10.65 4.84,10.7 4.32,10.75 3.8,10.81 3.29,10.87 2.78,10.93 2.27,10.99 1.76,11.06 1.25,11.12 0.74,11.19 0.23,11.26 -0.29,11.34 -0.82,11.41 -1.36,11.48 -1.91,11.55 -2.48,11.63 -3.07,11.7 -3.67,11.77 -4.29,11.84 -4.94,11.91 -5.62,11.97 -6.32,12.03 -7.05,12.09 -7.81,12.14 -8.61,12.19 -9.43,12.24 -10.3,12.28 -11.19,12.31 -12.12,12.33 -13.09,12.35 -14.09,12.36 -15.13,12.36 -15.84,12.38 -16.56,12.39 -17.29,12.39 -18.02,12.39 -18.76,12.38 -19.51,12.36 -20.25,12.34 -21,12.32 -21.75,12.28 -22.49,12.24 -23.22,12.19 -23.95,12.14 -24.66,12.07 -25.36,12 -26.04,11.93" fill="white" stroke="white" stroke-width="0" stroke-linejoin="round" filter="url(#fuzzy)" />
    </g>
    <g transform="translate(-33.02 -23.150000000000002)">
      <polyline id="leftCountour" points="32.5,5.29 32.04,4.78 31.54,4.27 31.02,3.74 30.48,3.21 29.91,2.67 29.32,2.13 28.71,1.59 28.08,1.06 27.44,0.52 26.78,0 26.1,-0.52 25.41,-1.04 24.72,-1.54 24.01,-2.03 23.28,-2.51 22.4,-3.2 21.52,-3.86 20.63,-4.5 19.73,-5.11 18.83,-5.69 17.92,-6.24 17.02,-6.76 16.11,-7.24 15.2,-7.69 14.3,-8.09 13.39,-8.47 12.48,-8.8 11.57,-9.09 10.67,-9.35 9.76,-9.57 8.86,-9.75 7.96,-9.89 7.06,-9.99 6.17,-10.06 5.27,-10.08 4.38,-10.08 3.5,-10.03 2.61,-9.96 1.73,-9.85 0.85,-9.71 -0.02,-9.53 -0.89,-9.33 -1.76,-9.1 -2.62,-8.85 -3.47,-8.56 -4.32,-8.26 -5.17,-7.93 -6,-7.58 -6.84,-7.22 -7.66,-6.83 -8.48,-6.43 -9.29,-6.02 -10.09,-5.59 -10.89,-5.15 -11.67,-4.71 -12.45,-4.25 -13.21,-3.79 -13.97,-3.33 -14.71,-2.86 -15.45,-2.39 -16.17,-1.92 -16.87,-1.45 -17.57,-0.99 -18.25,-0.52 -18.92,-0.07 -19.57,0.39 -20.22,0.84 -20.85,1.29 -21.48,1.74 -22.09,2.18 -22.69,2.62 -23.28,3.06 -23.86,3.48 -24.43,3.91 -24.98,4.32 -25.53,4.73 -26.06,5.14 -26.57,5.53 -27.08,5.92 -24.33,8.87 -23.96,8.89 -23.57,8.9 -23.17,8.91 -22.75,8.92 -22.32,8.92 -21.87,8.92 -21.41,8.92 -20.94,8.92 -20.45,8.91 -19.96,8.91 -19.45,8.9 -18.92,8.9 -18.39,8.89 -17.85,8.88 -17.29,8.87 -16.72,8.87 -16.13,8.86 -15.54,8.85 -14.92,8.84 -14.3,8.84 -13.67,8.84 -13.02,8.84 -12.37,8.85 -11.7,8.85 -11.03,8.87 -10.35,8.89 -9.66,8.91 -8.96,8.94 -8.26,8.98 -7.54,9.02 -6.83,9.07 -6.1,9.13 -5.37,9.19 -4.63,9.26 -3.89,9.34 -3.14,9.42 -2.38,9.51 -1.62,9.6 -0.85,9.71 -0.08,9.81 0.7,9.93 1.49,10.04 2.29,10.16 3.09,10.29 3.9,10.42 4.72,10.55 5.55,10.68 6.39,10.82 7.23,10.95 8.09,11.08 8.95,11.22 9.83,11.35 10.71,11.47 11.6,11.6 12.5,11.72 13.42,11.83 14.34,11.94 15.27,12.04 16.21,12.13 17.16,12.21 18.12,12.28 19.08,12.34 20.05,12.39 21.02,12.43 21.78,12.49 22.53,12.53 23.28,12.58 24.02,12.61 24.76,12.64 25.48,12.66 26.2,12.67 26.9,12.67 27.58,12.66 28.25,12.64 28.91,12.62 29.54,12.58 30.15,12.53 30.74,12.48 31.29,12.41" fill="white" stroke="white" stroke-width="0" stroke-linejoin="round" filter="url(#fuzzy)" />
    </g>
    <g transform="translate(50.870000000000005 -24.39)">
      <polyline id="rightUpper" points="-32.56,8.29 -32.64,8.04 -32.67,7.75 -32.66,7.42 -32.62,7.06 -32.54,6.67 -32.43,6.25 -32.29,5.8 -32.11,5.34 -31.9,4.85 -31.66,4.35 -31.38,3.83 -31.08,3.31 -30.75,2.78 -30.39,2.24 -30.01,1.69 -29.6,1.14 -29.16,0.6 -28.7,0.05 -28.22,-0.49 -27.71,-1.03 -27.18,-1.56 -26.63,-2.08 -26.05,-2.59 -25.46,-3.09 -24.85,-3.58 -24.19,-4.28 -23.5,-4.95 -22.78,-5.6 -22.04,-6.22 -21.27,-6.81 -20.48,-7.37 -19.67,-7.9 -18.83,-8.39 -17.98,-8.85 -17.1,-9.27 -16.2,-9.65 -15.29,-9.99 -14.36,-10.3 -13.41,-10.56 -12.44,-10.79 -11.47,-10.98 -10.48,-11.13 -9.48,-11.24 -8.47,-11.31 -7.45,-11.35 -6.42,-11.34 -5.39,-11.31 -4.35,-11.23 -3.31,-11.13 -2.27,-10.99 -1.22,-10.82 -0.18,-10.62 0.86,-10.39 1.9,-10.14 2.94,-9.85 3.97,-9.55 5,-9.22 6.01,-8.87 7.02,-8.5 8.02,-8.11 9.01,-7.7 9.99,-7.28 10.95,-6.85 11.9,-6.41 12.84,-5.96 13.77,-5.49 14.67,-5.02 15.56,-4.55 16.44,-4.07 17.29,-3.6 18.13,-3.12 18.95,-2.64 19.76,-2.16 20.54,-1.68 21.3,-1.21 22.05,-0.75 22.78,-0.28 23.5,0.18 24.2,0.64 24.88,1.1 25.55,1.55 26.2,2 26.83,2.44 27.45,2.88 28.05,3.31 28.63,3.73 29.2,4.15 29.75,4.56 30.28,4.96 30.8,5.36 31.3,5.74 31.78,6.12 32.24,6.49 32.69,6.86 33.12,7.21 33.54,7.56 33.94,7.89 34.33,8.22 34.7,8.54" fill="none" stroke="black" stroke-width="1.6666666666666665" stroke-linejoin="round" filter="url(#fuzzy)" />
      <polyline id="rightLower" points="-30.93,10.68 -30.67,10.84 -30.34,11 -29.95,11.14 -29.52,11.28 -29.03,11.41 -28.5,11.53 -27.93,11.64 -27.33,11.75 -26.7,11.84 -26.04,11.93 -25.36,12 -24.66,12.07 -23.95,12.14 -23.22,12.19 -22.49,12.24 -21.75,12.28 -21,12.32 -20.25,12.34 -19.51,12.36 -18.76,12.38 -18.02,12.39 -17.29,12.39 -16.56,12.39 -15.84,12.38 -15.13,12.36 -14.09,12.36 -13.09,12.35 -12.12,12.33 -11.19,12.31 -10.3,12.28 -9.43,12.24 -8.61,12.19 -7.81,12.14 -7.05,12.09 -6.32,12.03 -5.62,11.97 -4.94,11.91 -4.29,11.84 -3.67,11.77 -3.07,11.7 -2.48,11.63 -1.91,11.55 -1.36,11.48 -0.82,11.41 -0.29,11.34 0.23,11.26 0.74,11.19 1.25,11.12 1.76,11.06 2.27,10.99 2.78,10.93 3.29,10.87 3.8,10.81 4.32,10.75 4.84,10.7 5.37,10.65 5.91,10.6 6.46,10.55 7.02,10.51 7.58,10.47 8.16,10.43 8.74,10.4 9.33,10.36 9.93,10.33 10.53,10.3 11.15,10.27 11.77,10.24 12.39,10.22 13.01,10.19 13.64,10.16 14.27,10.14 14.9,10.11 15.52,10.08 16.14,10.05 16.75,10.02 17.35,9.99 17.95,9.95 18.56,9.92 19.16,9.88 19.75,9.84 20.34,9.79 20.93,9.75 21.51,9.7 22.08,9.65 22.64,9.6 23.19,9.54 23.73,9.48 24.27,9.42 24.79,9.35 25.29,9.28 25.79,9.21 26.27,9.13 26.73,9.05 27.19,8.96 27.63,8.87 28.05,8.78 28.46,8.68 28.85,8.58 29.23,8.47" fill="none" stroke="black" stroke-width="2.2222222222222223" stroke-linejoin="round" filter="url(#fuzzy)" />
      <circle r="4.74" cx="-15.530974370801301" cy="6.270653163386495" stroke="black" fill="none" stroke-width="1.0" filter="url(#fuzzy)" clip-path="url(#rightEyeClipPath)" /><circle r="4.444" cx="-13.165974370801301" cy="8.210653163386494" stroke="black" fill="none" stroke-width="1.0" filter="url(#fuzzy)" clip-path="url(#rightEyeClipPath)" /><circle r="4.848" cx="-11.7759743708013" cy="6.685653163386494" stroke="black" fill="none" stroke-width="1.0" filter="url(#fuzzy)" clip-path="url(#rightEyeClipPath)" /><circle r="4.036" cx="-11.610974370801301" cy="9.015653163386496" stroke="black" fill="none" stroke-width="1.0" filter="url(#fuzzy)" clip-path="url(#rightEyeClipPath)" /><circle r="4.406" cx="-15.3959743708013" cy="7.050653163386494" stroke="black" fill="none" stroke-width="1.0" filter="url(#fuzzy)" clip-path="url(#rightEyeClipPath)" /><circle r="4.758" cx="-12.1859743708013" cy="6.315653163386495" stroke="black" fill="none" stroke-width="1.0" filter="url(#fuzzy)" clip-path="url(#rightEyeClipPath)" /><circle r="3.752" cx="-13.1559743708013" cy="6.260653163386495" stroke="black" fill="none" stroke-width="1.0" filter="url(#fuzzy)" clip-path="url(#rightEyeClipPath)" /><circle r="4.396" cx="-12.8559743708013" cy="8.900653163386494" stroke="black" fill="none" stroke-width="1.0" filter="url(#fuzzy)" clip-path="url(#rightEyeClipPath)" /><circle r="4.662" cx="-13.005974370801301" cy="8.690653163386495" stroke="black" fill="none" stroke-width="1.0" filter="url(#fuzzy)" clip-path="url(#rightEyeClipPath)" /><circle r="3.156" cx="-15.6609743708013" cy="5.525653163386494" stroke="black" fill="none" stroke-width="1.0" filter="url(#fuzzy)" clip-path="url(#rightEyeClipPath)" />
      </g>
    <g transform="translate(-33.02 -23.150000000000002)">
      <polyline id="leftUpper" points="35.09,9.18 35.04,8.93 34.93,8.65 34.77,8.32 34.57,7.97 34.32,7.58 34.03,7.16 33.7,6.73 33.34,6.27 32.94,5.79 32.5,5.29 32.04,4.78 31.54,4.27 31.02,3.74 30.48,3.21 29.91,2.67 29.32,2.13 28.71,1.59 28.08,1.06 27.44,0.52 26.78,0 26.1,-0.52 25.41,-1.04 24.72,-1.54 24.01,-2.03 23.28,-2.51 22.4,-3.2 21.52,-3.86 20.63,-4.5 19.73,-5.11 18.83,-5.69 17.92,-6.24 17.02,-6.76 16.11,-7.24 15.2,-7.69 14.3,-8.09 13.39,-8.47 12.48,-8.8 11.57,-9.09 10.67,-9.35 9.76,-9.57 8.86,-9.75 7.96,-9.89 7.06,-9.99 6.17,-10.06 5.27,-10.08 4.38,-10.08 3.5,-10.03 2.61,-9.96 1.73,-9.85 0.85,-9.71 -0.02,-9.53 -0.89,-9.33 -1.76,-9.1 -2.62,-8.85 -3.47,-8.56 -4.32,-8.26 -5.17,-7.93 -6,-7.58 -6.84,-7.22 -7.66,-6.83 -8.48,-6.43 -9.29,-6.02 -10.09,-5.59 -10.89,-5.15 -11.67,-4.71 -12.45,-4.25 -13.21,-3.79 -13.97,-3.33 -14.71,-2.86 -15.45,-2.39 -16.17,-1.92 -16.87,-1.45 -17.57,-0.99 -18.25,-0.52 -18.92,-0.07 -19.57,0.39 -20.22,0.84 -20.85,1.29 -21.48,1.74 -22.09,2.18 -22.69,2.62 -23.28,3.06 -23.86,3.48 -24.43,3.91 -24.98,4.32 -25.53,4.73 -26.06,5.14 -26.57,5.53 -27.08,5.92 -27.57,6.3 -28.04,6.67 -28.51,7.04 -28.96,7.39 -29.4,7.74 -29.82,8.08 -30.24,8.41 -30.63,8.73 -31.02,9.04 -31.4,9.35" fill="none" stroke="black" stroke-width="2.2222222222222223" stroke-linejoin="round" filter="url(#fuzzy)" />
      <polyline id="leftLower" points="34.78,11.17 34.65,11.34 34.46,11.5 34.22,11.66 33.93,11.8 33.59,11.93 33.21,12.04 32.78,12.15 32.32,12.25 31.82,12.34 31.29,12.41 30.74,12.48 30.15,12.53 29.54,12.58 28.91,12.62 28.25,12.64 27.58,12.66 26.9,12.67 26.2,12.67 25.48,12.66 24.76,12.64 24.02,12.61 23.28,12.58 22.53,12.53 21.78,12.49 21.02,12.43 20.05,12.39 19.08,12.34 18.12,12.28 17.16,12.21 16.21,12.13 15.27,12.04 14.34,11.94 13.42,11.83 12.5,11.72 11.6,11.6 10.71,11.47 9.83,11.35 8.95,11.22 8.09,11.08 7.23,10.95 6.39,10.82 5.55,10.68 4.72,10.55 3.9,10.42 3.09,10.29 2.29,10.16 1.49,10.04 0.7,9.93 -0.08,9.81 -0.85,9.71 -1.62,9.6 -2.38,9.51 -3.14,9.42 -3.89,9.34 -4.63,9.26 -5.37,9.19 -6.1,9.13 -6.83,9.07 -7.54,9.02 -8.26,8.98 -8.96,8.94 -9.66,8.91 -10.35,8.89 -11.03,8.87 -11.7,8.85 -12.37,8.85 -13.02,8.84 -13.67,8.84 -14.3,8.84 -14.92,8.84 -15.54,8.85 -16.13,8.86 -16.72,8.87 -17.29,8.87 -17.85,8.88 -18.39,8.89 -18.92,8.9 -19.45,8.9 -19.96,8.91 -20.45,8.91 -20.94,8.92 -21.41,8.92 -21.87,8.92 -22.32,8.92 -22.75,8.92 -23.17,8.91 -23.57,8.9 -23.96,8.89 -24.33,8.87 -24.69,8.85 -25.03,8.82 -25.36,8.79 -25.67,8.76 -25.96,8.72 -26.24,8.68 -26.51,8.63 -26.76,8.58 -26.99,8.53 -27.21,8.47" fill="none" stroke="black" stroke-width="2.2222222222222223" stroke-linejoin="round" filter="url(#fuzzy)" />
      <circle r="3.686" cx="-8.157416410066576" cy="6.270483183885576" stroke="black" fill="none" stroke-width="1.0" filter="url(#fuzzy)" clip-path="url(#leftEyeClipPath)" /><circle r="4.838" cx="-8.242416410066575" cy="7.720483183885577" stroke="black" fill="none" stroke-width="1.0" filter="url(#fuzzy)" clip-path="url(#leftEyeClipPath)" /><circle r="3.664" cx="-6.7574164100665755" cy="7.220483183885577" stroke="black" fill="none" stroke-width="1.0" filter="url(#fuzzy)" clip-path="url(#leftEyeClipPath)" /><circle r="3.646" cx="-10.287416410066577" cy="6.865483183885576" stroke="black" fill="none" stroke-width="1.0" filter="url(#fuzzy)" clip-path="url(#leftEyeClipPath)" /><circle r="4.0280000000000005" cx="-8.882416410066575" cy="4.105483183885576" stroke="black" fill="none" stroke-width="1.0" filter="url(#fuzzy)" clip-path="url(#leftEyeClipPath)" /><circle r="3.23" cx="-11.092416410066576" cy="7.635483183885576" stroke="black" fill="none" stroke-width="1.0" filter="url(#fuzzy)" clip-path="url(#leftEyeClipPath)" /><circle r="4.128" cx="-9.427416410066575" cy="4.740483183885576" stroke="black" fill="none" stroke-width="1.0" filter="url(#fuzzy)" clip-path="url(#leftEyeClipPath)" /><circle r="4.684" cx="-10.687416410066575" cy="5.385483183885576" stroke="black" fill="none" stroke-width="1.0" filter="url(#fuzzy)" clip-path="url(#leftEyeClipPath)" /><circle r="4.496" cx="-9.767416410066575" cy="3.540483183885576" stroke="black" fill="none" stroke-width="1.0" filter="url(#fuzzy)" clip-path="url(#leftEyeClipPath)" /><circle r="4.672" cx="-9.442416410066576" cy="3.6554831838855755" stroke="black" fill="none" stroke-width="1.0" filter="url(#fuzzy)" clip-path="url(#leftEyeClipPath)" />
    </g>
    <g id="hairs">
      <polyline points="-40.1,-68.49 -38.61,-69.36 -37.61,-69.86 -36.56,-70.34 -35.4,-70.88 -34.23,-71.42 -33.11,-71.92 -32.06,-72.38 -31.08,-72.78 -30.18,-73.13 -29.41,-73.42 -28.82,-73.63 -28.43,-73.75 -28.25,-73.78 -28.31,-73.7 -28.61,-73.5 -29.17,-73.19 -30.04,-72.75 -31.27,-72.15 -32.95,-71.35 -35.17,-70.32 -37.92,-69.08 -40.89,-67.8" fill="none" stroke="url(#rainbowGradient)" stroke-width="2" stroke-linejoin="round" filter="url(#fuzzy)" /><polyline points="41.48,-68.11 41.44,-67.94 42.25,-67.47 43.5,-66.73 44.81,-65.94 45.93,-65.22 46.78,-64.65 47.35,-64.23 47.67,-63.96 47.74,-63.84 47.51,-63.89 46.92,-64.16 45.85,-64.75 44.19,-65.7 41.92,-67.01 39.2,-68.64" fill="none" stroke="url(#rainbowGradient)" stroke-width="2" stroke-linejoin="round" filter="url(#fuzzy)" /><polyline points="-26.38,-74.73 -25.74,-74.74 -24.66,-75.03 -23.64,-75.33 -22.7,-75.58 -21.85,-75.74 -21.13,-75.83 -20.57,-75.84 -20.2,-75.74 -20.06,-75.54 -20.19,-75.24 -20.61,-74.8 -21.35,-74.23 -22.43,-73.51 -23.85,-72.65 -25.67,-71.63 -27.92,-70.44 -30.65,-69.07 -33.85,-67.51 -37.51,-65.76 -41.62,-63.79 -46.23,-61.6 -51.34,-59.26" fill="none" stroke="url(#rainbowGradient)" stroke-width="2" stroke-linejoin="round" filter="url(#fuzzy)" /><polyline points="67.54,-45.07 66.6,-45.64 66.03,-45.33 65.13,-44.7 63.68,-43.96 61.56,-43.31 58.65,-42.88 54.9,-42.73 50.32,-42.8 44.9,-43.04 38.65,-43.42 31.53,-43.97 23.51,-44.69 14.59,-45.59 4.76,-46.66 -6,-47.93 -17.68,-49.44 -30.3,-51.24 -43.91,-53.21" fill="none" stroke="url(#rainbowGradient)" stroke-width="2" stroke-linejoin="round" filter="url(#fuzzy)" /><polyline points="46.25,-65.23 46.56,-64.9 47.29,-64.33 48.17,-63.67 49.14,-62.95 50.14,-62.19 51.07,-61.47 51.83,-60.87 52.34,-60.45 52.58,-60.2 52.58,-60.11 52.37,-60.14 51.96,-60.28 51.34,-60.53 50.45,-60.95 49.24,-61.57 47.65,-62.45 45.69,-63.6 43.33,-65.02 40.6,-66.68 37.53,-68.55 34.19,-70.61" fill="none" stroke="url(#rainbowGradient)" stroke-width="2" stroke-linejoin="round" filter="url(#fuzzy)" /><polyline points="64.01,-49.36 64.61,-48.43 64.79,-47.53 64.39,-46.95 63.43,-46.59 62.03,-46.31 60.21,-45.99 57.95,-45.67 55.17,-45.42 51.79,-45.32 47.77,-45.41 43.09,-45.7 37.78,-46.16 31.83,-46.78 25.23,-47.56 17.97,-48.51 10.03,-49.63 1.39,-50.92 -7.97,-52.38 -18.11,-54.01 -29.06,-55.82 -40.82,-57.76" fill="none" stroke="url(#rainbowGradient)" stroke-width="2" stroke-linejoin="round" filter="url(#fuzzy)" /><polyline points="65.77,-46.68 66.88,-45.41 67.31,-44.44 67.43,-43.43 67.2,-42.53 66.53,-41.91 65.38,-41.56 63.78,-41.43 61.75,-41.47 59.29,-41.66 56.37,-42.01 52.99,-42.55 49.13,-43.27 44.75,-44.18 39.85,-45.28 34.42,-46.6 28.44,-48.14 21.93,-49.9 14.87,-51.88 7.25,-54.07 -0.97,-56.48 -9.77,-59.18 -19.11,-62.18 -29.03,-65.42" fill="none" stroke="url(#rainbowGradient)" stroke-width="2" stroke-linejoin="round" filter="url(#fuzzy)" /><polyline points="65.69,-47.05 66.29,-46.18 65.86,-46.04 65.01,-45.92 63.77,-45.74 62.03,-45.59 59.67,-45.62 56.58,-45.96 52.71,-46.68 48.04,-47.76 42.58,-49.14 36.32,-50.83 29.26,-52.84 21.34,-55.21 12.53,-57.92 2.73,-60.94 -8.17,-64.26 -20.15,-67.9" fill="none" stroke="url(#rainbowGradient)" stroke-width="2" stroke-linejoin="round" filter="url(#fuzzy)" /><polyline points="19.14,-76.33 19.63,-76.31 20.66,-76.09 21.54,-75.85 22.23,-75.62 22.73,-75.39 23.09,-75.16 23.29,-74.91 23.3,-74.67 23.03,-74.46 22.42,-74.31 21.42,-74.21 20,-74.17 18.17,-74.16 15.94,-74.17 13.29,-74.22 10.18,-74.3 6.54,-74.44 2.3,-74.64 -2.53,-74.93 -7.98,-75.3 -14.12,-75.71" fill="none" stroke="url(#rainbowGradient)" stroke-width="2" stroke-linejoin="round" filter="url(#fuzzy)" /><polyline points="41.49,-68.08 43.15,-67 44.41,-66.12 45.02,-65.51 45.13,-65.1 44.86,-64.81 44.26,-64.59 43.32,-64.45 41.97,-64.44 40.1,-64.6 37.65,-64.98 34.59,-65.6 30.91,-66.43 26.61,-67.44 21.66,-68.61 16.02,-69.94 9.67,-71.47 2.75,-73.27 -4.51,-75.4" fill="none" stroke="url(#rainbowGradient)" stroke-width="2" stroke-linejoin="round" filter="url(#fuzzy)" /><polyline points="36.9,-70 31.38,-52.96 15.81,-49.75 7.95,-54.01 3.2,-60.86 -0.09,-66.22 -1.94,-68.35 -2.77,-67.89 -3.44,-66.51 -4.4,-65.34 -4.72,-64.03 -1.26,-61.07 10.86,-55.48 34.14,-48.69 59.77,-44.09 69.83,-41.01" fill="none" stroke="url(#rainbowGradient)" stroke-width="2" stroke-linejoin="round" filter="url(#fuzzy)" /><polyline points="53.72,-59.19 27.5,-65.19 9.04,-66.37 4.59,-64.7 4.09,-62.85 2.18,-61.64 -2.28,-60.55 -8.45,-59.25 -13.59,-58.09 -14.21,-57.71 -8.73,-58.5 0.6,-60.27 9.08,-62.32 14.07,-63.53 18.95,-62.67 31.6,-58.6 53.98,-50.84 67.64,-44.94" fill="none" stroke="url(#rainbowGradient)" stroke-width="2" stroke-linejoin="round" filter="url(#fuzzy)" /><polyline points="-32.3,-72.4 -37.09,-67.62 -23.19,-67.06 -9.26,-66.51 -5.03,-65.97 -8.22,-65.95 -12.41,-66.47 -13.16,-67.18 -9.67,-67.7 -3.54,-67.75 2.95,-67.24 8.05,-66.3 10.83,-65.27 11.07,-64.55 9.27,-64.36 6.56,-64.72 4.31,-65.53 3.24,-66.94 2.41,-69.22 -0.9,-72.16 -8.98,-74.67 -18.76,-75.68 -19.62,-76.49" fill="none" stroke="url(#rainbowGradient)" stroke-width="2" stroke-linejoin="round" filter="url(#fuzzy)" /><polyline points="10.6,-78 7.37,-76.62 13.36,-74.83 17.92,-72.59 22.95,-69.46 28.7,-66.13 33.65,-63.44 36.64,-61.58 36.97,-60.39 33.67,-59.94 26.17,-60.51 15.82,-62.26 6.3,-64.9 0.83,-67.65 -2.17,-69.09 -10.31,-67.81 -27.51,-65.47 -26.45,-74.38" fill="none" stroke="url(#rainbowGradient)" stroke-width="2" stroke-linejoin="round" filter="url(#fuzzy)" /><polyline points="-12.03,-77.83 22.21,-68.14 23.88,-68.83 18.43,-68.89 12.52,-66.98 8.91,-64.39 8.93,-62.33 11.34,-61.17 12.82,-60.67 11.16,-60.34 7.89,-59.82 7.41,-59.24 12.97,-58.92 24.38,-57.89 40.74,-52.27 62.47,-37.83 78.13,-24.1" fill="none" stroke="url(#rainbowGradient)" stroke-width="2" stroke-linejoin="round" filter="url(#fuzzy)" /><polyline points="2.74,-78.84 8.17,-69.64 19.26,-63.64 26.67,-61.19 35.39,-58.02 43.88,-54.55 47.26,-53.04 42.3,-54.47 29.43,-58.01 12.32,-61.9 -3.72,-64.69 -13.62,-66 -13.91,-66.39 -3.77,-66.84 11.75,-68.05 16.1,-70.73 -17.35,-77.02" fill="none" stroke="url(#rainbowGradient)" stroke-width="2" stroke-linejoin="round" filter="url(#fuzzy)" /><polyline points="-63.29,-50.32 -9.64,-64.32 -0.11,-71.87 0.82,-74.97 -0.8,-74.95 -4.97,-72.91 -10.25,-70.01 -13.42,-67.3 -11.83,-65.33 -5.17,-64.05 4.32,-63.02 12.99,-61.83 17.31,-60.4 15.34,-59.12 7.66,-58.67 -2.63,-59.62 -11,-62.03 -13.49,-65.31 -8.39,-68.39 3.23,-70.13 18.31,-69.65 32.46,-66.91 38.18,-65.03 16.35,-77.17" fill="none" stroke="url(#rainbowGradient)" stroke-width="2" stroke-linejoin="round" filter="url(#fuzzy)" /><polyline points="-32.73,-72.07 9,-70.16 26.5,-67.02 26.28,-65.67 19.17,-65.22 14.37,-64.89 15.14,-64.42 18.85,-64.01 21.11,-63.98 20,-64.19 17.41,-64.1 16.9,-63.12 20.3,-61.2 25.8,-58.92 29.24,-57.32 27.61,-57.77 21.68,-61.6 13.93,-68.52 -12.03,-77.83" fill="none" stroke="url(#rainbowGradient)" stroke-width="2" stroke-linejoin="round" filter="url(#fuzzy)" /><polyline points="55.99,-57.55 22.12,-69.99 15.73,-72.5 12.8,-70.84 8.09,-68.66 2.74,-67.55 -2.43,-67.5 -7.67,-67.97 -12.91,-68.54 -17.06,-69.07 -18.71,-69.68 -17.34,-70.45 -13.85,-71.28 -9.93,-71.82 -6.94,-71.52 -5.12,-69.81 -3.82,-66.36 -2.43,-61.44 -1.04,-56.58 -0.28,-54.89 0.09,-59.74 4.13,-70.54 12.41,-77.79" fill="none" stroke="url(#rainbowGradient)" stroke-width="2" stroke-linejoin="round" filter="url(#fuzzy)" /><polyline points="-12.03,-77.83 2.02,-74.91 15.16,-67.94 12.86,-63.67 -0.98,-62.79 -15.87,-63.07 -23.7,-62.82 -21.44,-61.73 -10.67,-60.32 4.18,-59.08 18.5,-57.98 29.73,-56.63 37.19,-54.97 38.74,-53.81 27.48,-54.56 -6.87,-56.73 -66.19,-46.27" fill="none" stroke="url(#rainbowGradient)" stroke-width="2" stroke-linejoin="round" filter="url(#fuzzy)" /><polyline points="-43.51,-66.73 -32.59,-69.92 -31.77,-69.18 -26.22,-69.1 -18.5,-69.27 -12.45,-69.12 -8.47,-68.45 -4.96,-67.22 -0.79,-65.53 4.27,-63.57 10.01,-61.59 16.1,-59.98 21.77,-59.12 25.96,-59.12 27.94,-59.73 27.98,-60.57 27.08,-61.53 26.49,-62.62 27.75,-63.37 31.53,-63.04 29.51,-64.18 -8.93,-78.15" fill="none" stroke="url(#rainbowGradient)" stroke-width="2" stroke-linejoin="round" filter="url(#fuzzy)" /><polyline points="71.11,-39.55 16.12,-55.59 0.95,-61.44 -5.31,-65.11 -3.72,-67.98 2.96,-69.49 10.8,-69.05 17.97,-66.87 24.19,-64.19 28.94,-62.65 31.22,-63.18 30.97,-65.13 30.24,-66.64 31.7,-66.23 35.17,-64.7 35.58,-65.34 28.71,-70.43 30.41,-72.99" fill="none" stroke="url(#rainbowGradient)" stroke-width="2" stroke-linejoin="round" filter="url(#fuzzy)" /><polyline points="59.14,-54.55 22.36,-63.91 -6,-66.35 -14.39,-66.78 -10.1,-66.99 -2.35,-67.65 3.82,-68.38 6.98,-68.58 7.33,-68.17 5.94,-67.69 4.86,-67.72 6.33,-68.33 10.98,-68.99 17.13,-68.96 22.75,-67.65 28.83,-64.63 39.51,-59.33 56.09,-50.23 76.22,-29.83" fill="none" stroke="url(#rainbowGradient)" stroke-width="2" stroke-linejoin="round" filter="url(#fuzzy)" /><polyline points="76.5,-28.34 33.47,-51.82 14.02,-54.91 3.89,-55.97 -5.64,-58.02 -12.36,-59.9 -13.28,-61.25 -9.29,-62.63 -4.19,-64.51 -1.54,-66.71 -2.43,-68.65 -5.25,-69.75 -7.14,-69.72 -5.92,-68.68 -1.44,-67.15 4.34,-65.91 8.63,-65.73 9.74,-66.95 8.62,-68.91 8.9,-69.89 15.53,-67.59 32.21,-60.39 55.9,-49.4 67.64,-44.94" fill="none" stroke="url(#rainbowGradient)" stroke-width="2" stroke-linejoin="round" filter="url(#fuzzy)" /><polyline points="73.8,-34.76 40.39,-57.53 9.19,-62.4 -17.8,-61.8 -35.86,-60.47 -45.45,-59.48 -48.49,-58.97 -45.69,-59.09 -36.7,-59.81 -21.77,-60.66 -3.15,-61.11 15,-61.22 28.14,-61.85 33.64,-63.89 31.88,-67.12 25.22,-70.1 16.15,-71.41 11.12,-70.84 41.48,-68.11" fill="none" stroke="url(#rainbowGradient)" stroke-width="2" stroke-linejoin="round" filter="url(#fuzzy)" /><polyline points="-5.94,-78.33 -17.95,-66.83 -5.56,-66.99 6.64,-67.55 16.4,-66.85 21.66,-66.31 20.93,-66.55 15.18,-66.79 7.81,-65.92 3.13,-63.46 3.88,-59.61 9.7,-55.05 18.08,-50.65 27.44,-47.38 37.93,-46.18 46.32,-47.94 38.67,-54.9 -10.48,-77.91" fill="none" stroke="url(#rainbowGradient)" stroke-width="2" stroke-linejoin="round" filter="url(#fuzzy)" /><polyline points="24.88,-75.07 29.73,-71.35 22.08,-69.88 11.39,-69.03 7.22,-66.81 9.89,-64.01 14.91,-62.02 18.7,-61.04 20.57,-60.19 21.49,-58.71 22.33,-56.65 23.15,-54.96 23.58,-54.73 23.25,-56.56 22.07,-60.07 20.28,-64.15 18.65,-67.36 18.49,-68.65 20.62,-67.79 23.07,-65.82 18.36,-65.06 -4.94,-67.55 -43.93,-66.74" fill="none" stroke="url(#rainbowGradient)" stroke-width="2" stroke-linejoin="round" filter="url(#fuzzy)" /><polyline points="-51.76,-61.29 -21.15,-63.89 4.62,-64 16.39,-62.84 17.43,-60.73 12.39,-59.52 6.8,-60.32 4.31,-62.79 5.06,-65.84 6.89,-68.52 7.64,-70.41 6.63,-71.58 4.67,-72.37 3.15,-73.07 2.9,-73.74 3.54,-74.22 3.64,-74.34 1.81,-74.03 -2.14,-73.36 -7.53,-72.17 -15.3,-70.05 -28.23,-67.78 -30.25,-73.12" fill="none" stroke="url(#rainbowGradient)" stroke-width="2" stroke-linejoin="round" filter="url(#fuzzy)" /><polyline points="53.72,-59.19 14.12,-66.08 16.29,-68.22 18.46,-68.95 14.89,-68.38 10.08,-66.23 8.02,-63.32 10.1,-60.86 15.86,-59.41 23.47,-58.78 30.1,-58.59 32.64,-58.74 29.01,-59.38 19.49,-60.62 7.03,-62.31 -3.75,-64.09 -8.93,-65.84 -7.45,-67.75 -1.08,-69.94 8.48,-71.75 19.29,-72.71 12.04,-77.98" fill="none" stroke="url(#rainbowGradient)" stroke-width="2" stroke-linejoin="round" filter="url(#fuzzy)" /><polyline points="25.16,-74.97 10.38,-73.95 -2.77,-71.73 -0.74,-69.93 8.76,-68.83 15.91,-67.88 15.78,-66.73 9.34,-65.6 1.28,-65.03 -3.88,-65.46 -5.27,-66.85 -5.57,-68.59 -6.7,-69.65 -4.87,-68.79 9.04,-64.58 39.68,-55.88 67.54,-45.07" fill="none" stroke="url(#rainbowGradient)" stroke-width="2" stroke-linejoin="round" filter="url(#fuzzy)" /><polyline points="-34.29,-71.41 8.81,-53.6 1.16,-52.04 -4.43,-51.03 -3.32,-51.27 -1.04,-53.98 -1.73,-58.31 -6.13,-62.6 -12.23,-65.7 -17.23,-67.45 -19.83,-68.31 -21.19,-68.73 -23.98,-68.73 -30.14,-68.01 -38.31,-66.59 -41.95,-66.35 -30.25,-73.12" fill="none" stroke="url(#rainbowGradient)" stroke-width="2" stroke-linejoin="round" filter="url(#fuzzy)" /><polyline points="-57.4,-56.5 -19.12,-67.16 -9.15,-66.78 -5.52,-64.08 3.07,-61.62 13.73,-60.34 20.68,-60.45 21.19,-61.39 15.79,-62.32 6.75,-62.74 -3.11,-62.66 -11.34,-62.3 -16.69,-61.86 -18.99,-61.47 -17.71,-60.97 -10.36,-59.65 6.64,-56.44 32.3,-51.63 52.68,-50.73 41.49,-68.08" fill="none" stroke="url(#rainbowGradient)" stroke-width="2" stroke-linejoin="round" filter="url(#fuzzy)" /><polyline points="60.17,-53.5 49.32,-60.39 47.59,-59.14 48.31,-55.87 45.09,-54.3 36.49,-54.71 23.5,-56.25 8.33,-57.95 -5.76,-58.98 -14.98,-59.05 -16.27,-58.39 -8.96,-57.38 4.63,-56.09 20.13,-54.27 33.17,-51.89 40.73,-49.94 40.67,-50.32 30.83,-53.52 6.78,-55.2 -61.75,-52.2" fill="none" stroke="url(#rainbowGradient)" stroke-width="2" stroke-linejoin="round" filter="url(#fuzzy)" /><polyline points="-51.55,-61.19 -26.43,-71.08 -11.68,-75.05 -2.91,-75.28 4.97,-72.21 14.46,-66.48 25.38,-59.75 35.37,-54.15 41.49,-51.12 41.87,-50.9 36.73,-52.86 28.35,-56.01 20.18,-59.4 15.31,-62.25 14.89,-64.23 17.28,-65.52 18.95,-66.67 16.82,-67.84 11.26,-68.41 9.03,-67.13 24.79,-61.68 68.62,-43" fill="none" stroke="url(#rainbowGradient)" stroke-width="2" stroke-linejoin="round" filter="url(#fuzzy)" /><polyline points="73.19,-27.12 73.65,-26.7 74.11,-25.89 74.7,-24.88 75.35,-23.83 75.97,-22.81 76.56,-21.85 77.14,-20.92 77.74,-19.98 78.33,-18.99 78.9,-17.96 79.42,-16.85 79.89,-15.65 80.36,-14.31 80.81,-12.99 81.03,-12.41" fill="none" stroke="url(#rainbowGradient)" stroke-width="2" stroke-linejoin="round" filter="url(#fuzzy)" /><polyline points="-5.94,-78.33 -4.87,-78.24 -3.91,-77.76 -2.78,-77.28 -1.6,-77.05 -0.46,-76.98 0.66,-76.92 1.82,-76.8 3.04,-76.58 4.32,-76.25 5.57,-75.78 6.72,-75.15 7.73,-74.35 8.61,-73.44 9.45,-72.52 10.34,-71.7 11.37,-71.07 12.54,-70.56 13.82,-70.07 15.11,-69.43 16.33,-68.56 17.4,-67.51 18.3,-66.4 18.98,-65.36 19.49,-64.5" fill="none" stroke="url(#rainbowGradient)" stroke-width="2" stroke-linejoin="round" filter="url(#fuzzy)" /><polyline points="-16.9,-76.88 -18.6,-79.72 -20.86,-82.74 -22.68,-83.98 -24.03,-83.73 -25.18,-82.94 -26.34,-82.3 -27.53,-81.93 -28.73,-81.68 -29.92,-81.41 -31.17,-81.15 -32.58,-81.12 -34.22,-81.54 -36.09,-82.49 -38.13,-83.85 -40.28,-85.37 -42.49,-86.83 -44.77,-88.22 -47.14,-89.73 -49.51,-91.44 -51.91,-93.05 -55.51,-94.81 -16.9,-76.88 -15.54,-76.57 -13.83,-76.79 -12.48,-76.96 -11.33,-77.05 -10.15,-77.06 -8.88,-76.91 -7.6,-76.56 -6.36,-76.04 -5.2,-75.47 -4.11,-74.99 -3.05,-74.66 -1.99,-74.46 -0.94,-74.28 0.08,-74 1.1,-73.6 2.16,-73.09 3.37,-72.53 4.82,-71.94 6.37,-71.38 7.57,-70.78 -56.18,-86.17 -54.23,-83.79 -51.72,-82.68 -49.23,-82.34 -47.12,-82.39 -45.35,-82.55 -43.71,-82.59 -42.03,-82.33 -40.23,-81.71 -38.37,-80.85 -36.54,-79.97 -34.84,-79.36 -33.34,-79.22 -32.04,-79.54 -30.85,-80 -29.61,-80.16 -28.21,-79.67 -26.63,-78.62 -25.01,-77.48 -23.54,-76.8 -22.25,-76.66 -20.99,-76.66 -19.62,-76.49" fill="none" stroke="url(#rainbowGradient)" stroke-width="2" stroke-linejoin="round" filter="url(#fuzzy)" /><polyline points="-23.76,-75.2 -26.52,-77.54 -27.69,-77.53 -28.95,-77.81 -30.51,-78.48 -32.1,-78.97 -33.55,-79.09 -34.92,-79.07 -36.39,-79.28 -38.05,-79.85 -39.88,-80.66 -41.77,-81.43 -43.65,-81.97 -45.54,-82.27 -47.56,-82.48 -49.76,-82.8 -52.09,-83.31 -54.33,-83.9 -56.34,-84.38 -58.32,-84.73 -60.74,-84.99 -63.55,-84.31" fill="none" stroke="url(#rainbowGradient)" stroke-width="2" stroke-linejoin="round" filter="url(#fuzzy)" /><polyline points="-23.76,-75.2 -26.03,-76.16 -27.01,-75.68 -27.95,-75.24 -29.29,-75.36 -31.02,-76.15 -32.93,-77.32 -34.77,-78.4 -36.36,-79.01 -37.7,-79.04 -38.88,-78.62 -40.02,-77.99 -41.27,-77.41 -42.72,-77.03 -44.41,-76.9 -46.32,-77 -48.34,-77.29 -50.39,-77.75 -52.48,-78.4 -54.77,-79.29 -57.32,-80.32 -59.74,-81.12 -61.29,-82.11" fill="none" stroke="url(#rainbowGradient)" stroke-width="2" stroke-linejoin="round" filter="url(#fuzzy)" /><polyline points="80.28,-15.48 81.04,-13.26 81.72,-12.02 82.41,-11.04 83.12,-10.09 83.83,-9.05 84.52,-7.9 85.17,-6.65 85.71,-5.37 86.11,-4.1 86.31,-2.88 86.36,-1.71 86.33,-0.59 86.33,0.5 86.48,1.58 86.81,2.7 87.28,3.89 87.8,5.17 88.29,6.53 88.78,7.93 89.34,9.29 90.03,10.58 90.84,11.75 91.92,13.01" fill="none" stroke="url(#rainbowGradient)" stroke-width="2" stroke-linejoin="round" filter="url(#fuzzy)" /><polyline points="-38.72,-58.83 -38.39,-60.92 -37.18,-62.27 -36.02,-63.28 -35.15,-64.29 -34.49,-65.41 -33.86,-66.56 -33.16,-67.56 -32.35,-68.28 -31.45,-68.78 -30.52,-69.26 -29.6,-69.97 -28.71,-71 -27.84,-72.1 -27.01,-72.85 -26.33,-73.18 -26.45,-74.38" fill="none" stroke="url(#rainbowGradient)" stroke-width="2" stroke-linejoin="round" filter="url(#fuzzy)" /><polyline points="-30.25,-73.12 -31.68,-72.69 -32.61,-72.57 -33.68,-72.65 -35.01,-72.9 -36.5,-73.18 -37.96,-73.31 -39.34,-73.17 -40.69,-72.83 -42.12,-72.43 -43.69,-72.17 -45.41,-72.18 -47.26,-72.48 -49.18,-72.97 -51.11,-73.51 -53,-73.98 -54.83,-74.34 -56.64,-74.64 -58.5,-74.92 -60.45,-75.09 -62.26,-75.05 -63.29,-75.12 -35.31,-70.89 -33.48,-71.96 -32.58,-72.53 -31.73,-73.22 -30.85,-74.33 -30.09,-75.99 -29.56,-78.21 -29.22,-80.81 -28.9,-83.46 -28.42,-85.77 -27.67,-87.55 -26.67,-88.83 -25.5,-89.92 -24.28,-91.19 -23.13,-92.93 -22.09,-95.21 -21.08,-97.84 -19.52,-100.55 -15.86,-103.58" fill="none" stroke="url(#rainbowGradient)" stroke-width="2" stroke-linejoin="round" filter="url(#fuzzy)" /><polyline points="-38.02,-69.83 -36.71,-68.29 -36.08,-68.85 -35.11,-69.4 -33.81,-69.37 -32.36,-68.89 -30.93,-68.36 -29.62,-68.1 -28.45,-68.22 -27.39,-68.62 -26.39,-69.08 -25.38,-69.37 -24.31,-69.38 -23.14,-69.11 -21.89,-68.61 -20.58,-67.95 -19.21,-67.17 -17.84,-66.4 -16.49,-65.77 -15.24,-65.47 -14.04,-65.47 -12.71,-65.5 -11.09,-65.06 -9.86,-63.8 -40.1,-68.49 -41.62,-74.8 -41.43,-76.64 -40.68,-77.52 -39.37,-77.61 -37.73,-77.14 -36.06,-76.53 -34.55,-76.17 -33.24,-76.24 -32.09,-76.78 -31.08,-77.73 -30.22,-79.06 -29.52,-80.78 -28.94,-82.87 -28.45,-85.31 -27.96,-87.96 -27.37,-90.61 -26.6,-93.07 -25.59,-95.25 -24.34,-97.23 -23.03,-99.21 -22.39,-101.83 -45.9,-65.39 -47.74,-65.03 -48.61,-64.49 -49.51,-63.94 -50.62,-63.43 -51.84,-62.92 -53.09,-62.39 -54.33,-61.87 -55.59,-61.38 -56.91,-60.97 -58.3,-60.63 -59.76,-60.32 -61.24,-59.94 -62.73,-59.46 -64.22,-58.87 -65.73,-58.24 -67.28,-57.63 -68.84,-57.06 -70.41,-56.53 -72.02,-56.03 -73.76,-55.56 -75.61,-55.11 -77.36,-54.6 -78.86,-54.38" fill="none" stroke="url(#rainbowGradient)" stroke-width="2" stroke-linejoin="round" filter="url(#fuzzy)" /><polyline points="79.69,-18.52 81.47,-16.62 84.01,-15.35 85.65,-14.14 85.97,-12.9 85.65,-11.68 85.36,-10.51 85.49,-9.33 86.14,-8.12 87.3,-6.87 88.89,-5.59 90.76,-4.31 92.68,-3.07 94.44,-1.85 95.83,-0.68 96.76,0.47 97.21,1.6 97.33,2.77 97.34,4.04 97.58,5.48 98.35,7.09 99.77,8.75 101.7,10.26" fill="none" stroke="url(#rainbowGradient)" stroke-width="2" stroke-linejoin="round" filter="url(#fuzzy)" /><polyline points="-47.76,-63.99 -52.74,-68.54 -54,-67.93 -54.28,-66.03 -54.83,-64.53 -56.13,-63.95 -58.22,-64.29 -60.91,-65.31 -63.92,-66.63 -66.89,-67.86 -69.5,-68.59 -71.52,-68.47 -72.98,-67.49 -74.37,-66.25 -76.35,-65.92 -78.11,-66.93" fill="none" stroke="url(#rainbowGradient)" stroke-width="2" stroke-linejoin="round" filter="url(#fuzzy)" /><polyline points="-53.76,-59.51 -52.04,-60.35 -50.94,-61.1 -49.92,-61.81 -48.89,-62.4 -47.85,-62.84 -46.79,-63.2 -45.7,-63.52 -44.55,-63.79 -43.38,-63.96 -42.18,-64.06 -40.92,-64.19 -39.5,-64.46 -37.88,-64.9 -36.22,-65.41 -35.06,-65.6" fill="none" stroke="url(#rainbowGradient)" stroke-width="2" stroke-linejoin="round" filter="url(#fuzzy)" /><polyline points="-56.42,-57.38 -57.16,-58.48 -56.3,-59.32 -55.48,-60.33 -54.73,-61.4 -53.88,-62.34 -52.89,-63.14 -51.88,-63.91 -50.97,-64.78 -50.21,-65.79 -49.57,-66.91 -48.97,-68.12 -48.39,-69.39 -47.83,-70.79 -47.32,-72.39 -46.84,-74.25 -46.34,-76.33 -45.76,-78.49 -45.07,-80.47 -44.33,-82.11 -43.53,-83.52 -42.68,-84.84 -42.46,-85.25" fill="none" stroke="url(#rainbowGradient)" stroke-width="2" stroke-linejoin="round" filter="url(#fuzzy)" /><polyline points="77.86,-43.31 78.74,-40.68 79.53,-39 79.94,-37.72 79.92,-36.4 79.62,-34.95 79.24,-33.42 78.91,-31.91 78.7,-30.5 78.63,-29.19 78.69,-27.96 78.86,-26.75 79.15,-25.56 79.57,-24.41 80.17,-23.37 80.86,-22.44 81.38,-21.44 81.23,-19.96 80.09,-17.53" fill="none" stroke="url(#rainbowGradient)" stroke-width="2" stroke-linejoin="round" filter="url(#fuzzy)" /><polyline points="-40.47,-69.13 -42.42,-68.06 -43.53,-67.44 -44.37,-66.91 -45.21,-66.33 -46.1,-65.67 -46.99,-64.97 -47.87,-64.26 -48.75,-63.55 -49.65,-62.83 -50.6,-62.09 -51.57,-61.34 -52.54,-60.57 -53.49,-59.8 -54.42,-59.03 -55.31,-58.26 -56.13,-57.55 -56.78,-57.01 -57.4,-56.5 -57.4,-56.5 -57.18,-57.42 -57.08,-58.54 -56.95,-60.02 -56.8,-61.65 -56.59,-63.29 -56.25,-64.85 -55.7,-66.22 -54.92,-67.33 -53.96,-68.18 -52.93,-68.86 -51.94,-69.56 -51.11,-70.51 -50.5,-71.9 -50.14,-73.68 -49.97,-75.34 -50.25,-76.35" fill="none" stroke="url(#rainbowGradient)" stroke-width="2" stroke-linejoin="round" filter="url(#fuzzy)" /><polyline points="-48.25,-73.31 -47.76,-71.98 -48.02,-70.5 -48.57,-69.07 -49.24,-67.85 -50.01,-66.87 -50.88,-66.07 -51.83,-65.32 -52.77,-64.5 -53.62,-63.55 -54.35,-62.46 -54.98,-61.29 -55.59,-60.14 -56.24,-59.08 -56.98,-58.17 -57.9,-57.42 -59.1,-56.8 -60.64,-56.19 -62.1,-55.13 -61.75,-52.2 -65.41,-47.85 -64.43,-48.87 -63.56,-49.69 -62.6,-50.43 -61.53,-51.14 -60.4,-51.87 -59.27,-52.66 -58.14,-53.48 -57.02,-54.24 -55.86,-54.85 -54.62,-55.28 -53.31,-55.56 -51.99,-55.81 -50.73,-56.13 -49.57,-56.57 -48.5,-57.12 -47.45,-57.68 -46.38,-58.16 -45.28,-58.51 -44.17,-58.72 -42.99,-58.78 -41.56,-58.75 -40.2,-58.88" fill="none" stroke="url(#rainbowGradient)" stroke-width="2" stroke-linejoin="round" filter="url(#fuzzy)" /><polyline points="103.21,-1.16 101.64,-3.54 100.02,-5.25 98.45,-6.82 97.44,-8.35 96.78,-9.76 95.98,-10.98 94.75,-12.03 93.2,-13.02 91.56,-14.08 90.06,-15.24 88.63,-16.46 86.84,-17.55 84.23,-18.31 81.35,-18.86 79.56,-20.11" fill="none" stroke="url(#rainbowGradient)" stroke-width="2" stroke-linejoin="round" filter="url(#fuzzy)" /><polyline points="-62.12,-68.11 -62.44,-66.49 -63.35,-65.38 -64.01,-64.27 -64.46,-62.91 -64.84,-61.29 -65.12,-59.48 -65.28,-57.61 -65.33,-55.77 -65.34,-54.02 -65.39,-52.41 -65.58,-50.95 -66.03,-49.69 -66.81,-48.64 -67.58,-47.66 -66.58,-45.92" fill="none" stroke="url(#rainbowGradient)" stroke-width="2" stroke-linejoin="round" filter="url(#fuzzy)" /><polyline points="-93.65,-27.49 -92.07,-28.65 -90.31,-29.24 -88.5,-29.9 -87.11,-30.77 -86.26,-31.82 -85.65,-32.99 -84.96,-34.16 -83.95,-35.22 -82.58,-36.11 -80.92,-36.85 -79.1,-37.52 -77.26,-38.2 -75.49,-38.91 -73.9,-39.64 -72.57,-40.31 -71.56,-40.89 -70.82,-41.35 -70.14,-41.79 -69.27,-42.46 -68.3,-43.47" fill="none" stroke="url(#rainbowGradient)" stroke-width="2" stroke-linejoin="round" filter="url(#fuzzy)" /><polyline points="-69.27,-42.46 -69.18,-44.21 -69.05,-45.83 -68.68,-47.02 -68.08,-47.96 -67.36,-48.88 -66.72,-49.92 -66.27,-51.16 -66.08,-52.62 -66.06,-54.24 -66.06,-55.94 -65.83,-57.55 -65.14,-58.98 -64,-60.26 -62.78,-61.59 -62.37,-63.44 -71.58,-22.33 -71.47,-24.05 -71.19,-25.27 -70.97,-26.29 -70.84,-27.36 -70.79,-28.57 -70.82,-29.87 -70.94,-31.2 -71.07,-32.55 -71.1,-33.89 -70.98,-35.25 -70.73,-36.62 -70.44,-37.96 -70.18,-39.16 -69.98,-40.08 -69.79,-40.65 -69.52,-41.13 -69.27,-42.46" fill="none" stroke="url(#rainbowGradient)" stroke-width="2" stroke-linejoin="round" filter="url(#fuzzy)" /><polyline points="-43.14,-51.09 -43.9,-51.09 -45.43,-51.29 -47.13,-51.61 -48.77,-51.86 -50.27,-51.93 -51.61,-51.77 -52.79,-51.35 -53.81,-50.68 -54.7,-49.82 -55.48,-48.84 -56.24,-47.87 -57.05,-46.97 -57.96,-46.2 -59.03,-45.56 -60.23,-45.03 -61.54,-44.58 -62.9,-44.16 -64.26,-43.69 -65.59,-43.12 -66.93,-42.46 -68.26,-41.79 -69.4,-41.25 -70.03,-41.02 -69.93,-41.37" fill="none" stroke="url(#rainbowGradient)" stroke-width="2" stroke-linejoin="round" filter="url(#fuzzy)" /><polyline points="-72.04,-38.15 -72.02,-40.21 -72.64,-41.7 -72.93,-42.66 -72.76,-43.49 -72.34,-44.48 -71.92,-45.7 -71.68,-47.13 -71.62,-48.71 -71.64,-50.33 -71.62,-51.94 -71.5,-53.49 -71.26,-55.01 -70.96,-56.54 -70.71,-58.2 -70.58,-60.05 -70.55,-62.08 -70.44,-64.11 -70.08,-65.95 -69.48,-67.54 -68.9,-69.08 -68.71,-70.95 -69.03,-73.35 -69.77,-76.07 -70.78,-78.35 -72.04,-38.15 -72.6,-36.85 -73.03,-35.57 -73.33,-34.31 -73.56,-33.11 -73.76,-31.89 -73.88,-30.63 -73.9,-29.34 -73.86,-28.08 -73.8,-26.86 -73.75,-25.68 -73.71,-24.54 -73.66,-23.41 -73.62,-22.28 -73.6,-21.16 -73.62,-20.04 -73.61,-18.9 -73.49,-17.71 -73.22,-16.43 -72.85,-15.05 -72.45,-13.63 -71.99,-12.36 -71.32,-11.68 -70.48,-12.15" fill="none" stroke="url(#rainbowGradient)" stroke-width="2" stroke-linejoin="round" filter="url(#fuzzy)" /><polyline points="-72.77,-36.61 -78.16,-41.42 -76.67,-42.33 -75.73,-43.1 -76.22,-44.41 -77.1,-45.98 -77.5,-47.5 -77.28,-48.89 -76.82,-50.27 -76.58,-51.85 -76.8,-53.74 -77.37,-55.87 -77.96,-58.04 -78.26,-60.03 -78.17,-61.79 -77.84,-63.42 -77.6,-65.18 -77.74,-67.36 -78.3,-70.23 -79.09,-73.92" fill="none" stroke="url(#rainbowGradient)" stroke-width="2" stroke-linejoin="round" filter="url(#fuzzy)" /><polyline points="79.09,-21.69 78.77,-19.92 78.95,-18.55 79.01,-17.32 78.98,-16.04 78.91,-14.72 78.73,-13.39 78.4,-12.12 77.9,-10.92 77.31,-9.78 76.7,-8.65 76.13,-7.51 75.57,-6.33 74.93,-5.12 74.14,-3.94 73.18,-2.81 72.16,-1.75 71.1,-0.77 69.85,0.17 68.27,0.93 67.49,0.92" fill="none" stroke="url(#rainbowGradient)" stroke-width="2" stroke-linejoin="round" filter="url(#fuzzy)" /><polyline points="-74.34,-33.1 -74.65,-33.19 -75.16,-32.43 -75.71,-31.27 -76.25,-30.08 -76.78,-28.99 -77.29,-27.96 -77.75,-26.95 -78.18,-25.93 -78.61,-24.89 -79.04,-23.84 -79.5,-22.78 -79.99,-21.71 -80.49,-20.62 -80.99,-19.49 -81.49,-18.28 -82.02,-16.9 -82.57,-15.33 -83.1,-13.71 -83.24,-12.8 -76.62,-28.42 -76.12,-27.42 -76.08,-26.13 -76.58,-25.06 -77.1,-24.05 -77.31,-22.97 -77.13,-21.77 -76.68,-20.47 -76.16,-19.13 -75.76,-17.79 -75.57,-16.48 -75.58,-15.23 -75.68,-14.05 -75.76,-12.95 -75.79,-11.9 -75.78,-10.87 -75.78,-9.81 -75.78,-8.7 -75.69,-7.55 -75.45,-6.34 -75.1,-5.06 -74.86,-3.73 -74.9,-2.73 -74.93,-2.9" fill="none" stroke="url(#rainbowGradient)" stroke-width="2" stroke-linejoin="round" filter="url(#fuzzy)" /><polyline points="-76.72,-28.15 -77.51,-26.64 -78.05,-25.47 -78.51,-24.45 -79.01,-23.44 -79.61,-22.4 -80.3,-21.36 -81.13,-20.31 -82.09,-19.22 -83.16,-18.09 -84.25,-16.93 -85.25,-15.79 -86.1,-14.71 -86.8,-13.71 -87.46,-12.69 -88.14,-11.56 -88.83,-10.32 -89.38,-9.12 -89.77,-8.23 -90.7,-7.53" fill="none" stroke="url(#rainbowGradient)" stroke-width="2" stroke-linejoin="round" filter="url(#fuzzy)" /><polyline points="-78.38,-24.45 -77.93,-26.23 -77.81,-27.64 -77.85,-28.87 -77.89,-30.14 -77.97,-31.53 -78.22,-33.07 -78.68,-34.72 -79.23,-36.42 -79.62,-38.11 -79.72,-39.73 -79.6,-41.31 -79.54,-42.9 -79.82,-44.53 -80.56,-46.19 -81.61,-47.86 -82.67,-49.62 -83.45,-51.66 -83.96,-54.21 -83.88,-57.21" fill="none" stroke="url(#rainbowGradient)" stroke-width="2" stroke-linejoin="round" filter="url(#fuzzy)" /><polyline points="78.68,-22.7 78.88,-21.97 79.15,-21.11 79.44,-20.03 79.71,-18.86 79.95,-17.66 80.2,-16.41 80.45,-15.13 80.7,-13.86 80.94,-12.63 81.16,-11.49 81.34,-10.4 81.49,-9.33 81.62,-8.2 81.74,-6.99 81.88,-5.69 82,-4.37 82.1,-3.11 82.15,-2.11 82.05,-2.15 76.92,-27.13 81.44,-27.06 81.91,-25.71 82.42,-24.51 83.39,-23.58 84.51,-22.72 85.7,-21.81 87.02,-20.86 88.39,-19.86 89.59,-18.74 90.34,-17.45 90.56,-15.98 90.46,-14.43 90.58,-13.01 91.49,-11.89 93.04,-11.35" fill="none" stroke="url(#rainbowGradient)" stroke-width="2" stroke-linejoin="round" filter="url(#fuzzy)" /><polyline points="75.1,-32.06 76.42,-30.48 77.65,-29.49 78.57,-28.64 79.21,-27.69 79.94,-26.65 81.08,-25.69 82.71,-24.86 84.63,-24.16 86.46,-23.44 87.91,-22.59 88.92,-21.56 89.76,-20.39 90.84,-19.17 92.49,-17.96 94.69,-16.73 97.21,-15.49 99.89,-14.28 103.44,-12.77" fill="none" stroke="url(#rainbowGradient)" stroke-width="2" stroke-linejoin="round" filter="url(#fuzzy)" /><polyline points="75.19,-31.42 76.02,-34.26 76.68,-35.89 76.05,-36.88 74.91,-37.73 73.89,-38.64 73.21,-39.7 72.87,-40.99 72.75,-42.52 72.72,-44.18 72.71,-45.85 72.74,-47.45 72.89,-49.01 73.23,-50.61 73.72,-52.35 74.19,-54.2 74.44,-56.07 74.37,-57.85 74.02,-59.46 73.49,-60.83 72.93,-62.04 72.28,-63.94 73.8,-34.76 74.77,-32.68 75.45,-31.42 76.03,-30.3 76.53,-29.22 76.99,-28.16 77.44,-27.09 77.91,-26.01 78.4,-24.91 78.89,-23.81 79.36,-22.74 79.81,-21.66 80.21,-20.58 80.57,-19.45 80.9,-18.27 81.23,-17.04 81.58,-15.77 81.96,-14.47 82.36,-13.2 82.76,-12.01 83.16,-10.97 83.5,-10.07 83.72,-9.15 83.67,-7.72 74.02,-34.38 73.84,-33.64 74.3,-32.47 74.75,-31.28 75.09,-30.09 75.32,-28.94 75.47,-27.8 75.56,-26.66 75.56,-25.48 75.47,-24.24 75.3,-23 75.06,-21.78 74.78,-20.62 74.53,-19.47 74.39,-18.34 74.48,-17.25 74.77,-16.2 74.94,-14.48" fill="none" stroke="url(#rainbowGradient)" stroke-width="2" stroke-linejoin="round" filter="url(#fuzzy)" /><polyline points="74.02,-34.38 73.09,-35.17 71.56,-36.09 70.32,-36.94 69.48,-37.8 68.69,-38.68 67.73,-39.6 66.67,-40.52 65.67,-41.45 64.87,-42.39 64.29,-43.33 63.8,-44.24 63.27,-45.12 62.59,-45.93 61.71,-46.68 60.68,-47.35 59.58,-47.95 58.48,-48.49 57.39,-48.98 56.33,-49.46 55.29,-49.97 54.27,-50.61 53.26,-51.45 52.21,-52.47 50.86,-53.31 73.62,-34.88 72.56,-36.68 71.73,-37.92 71.06,-38.78 70.33,-39.64 69.47,-40.65 68.51,-41.72 67.48,-42.68 66.4,-43.43 65.28,-43.98 64.13,-44.41 62.97,-44.83 61.87,-45.35 60.84,-46 59.89,-46.74 58.96,-47.47 58.01,-48.11 57.01,-48.63 55.96,-49.06 54.85,-49.44 53.59,-49.79 52.08,-50.11 50.48,-50.67 68.62,-43 70.99,-41.78 73.03,-41.12 73.92,-40.38 74.27,-39.38 74.54,-38.21 74.91,-37 75.42,-35.85 76.07,-34.77 76.88,-33.77 77.88,-32.82 79.04,-31.93 80.31,-31.08 81.62,-30.24 82.87,-29.37 84.02,-28.43 85.04,-27.42 86.01,-26.36 87.02,-25.32 88.22,-24.35 89.65,-23.42 91.2,-22.48 92.57,-21.45 93.46,-20.25 94.5,-18.26" fill="none" stroke="url(#rainbowGradient)" stroke-width="2" stroke-linejoin="round" filter="url(#fuzzy)" /><polyline points="51.73,-56.35 52.28,-56.25 53.14,-55.93 53.96,-55.44 54.82,-54.77 55.75,-54 56.73,-53.24 57.75,-52.55 58.77,-51.94 59.77,-51.34 60.73,-50.72 61.66,-50 62.55,-49.19 63.4,-48.3 64.23,-47.39 65.01,-46.57 65.74,-45.88 66.43,-45.35 67.13,-44.89 67.85,-44.24 68.62,-43 67.64,-44.94 67.22,-45.19 66.71,-45.63 66.16,-46.18 65.48,-46.9 64.68,-47.77 63.84,-48.7 62.99,-49.62 62.17,-50.51 61.35,-51.33 60.52,-52.09 59.65,-52.82 58.72,-53.54 57.75,-54.28 56.74,-55.02 55.76,-55.72 54.85,-56.35 54.06,-56.88 53.38,-57.31 52.79,-57.57 52.21,-57.53" fill="none" stroke="url(#rainbowGradient)" stroke-width="2" stroke-linejoin="round" filter="url(#fuzzy)" /><polyline points="67.64,-44.94 69.48,-43.6 70.52,-41.91 71.45,-40.64 72.55,-39.85 73.99,-39.34 75.68,-38.88 77.37,-38.33 78.82,-37.64 80.02,-36.82 81.15,-35.94 82.41,-35.07 83.91,-34.24 85.65,-33.5 87.51,-32.85 89.28,-32.28 90.6,-31.54 91.22,-30.22 65.77,-46.68 66.5,-46.37 66.42,-47.41 66.57,-49.18 67.04,-51.28 67.38,-53.22 67.25,-54.72 66.73,-55.84 66.16,-56.9 65.84,-58.22 65.87,-59.97 66.1,-62.08 66.3,-64.32 66.27,-66.37 66.05,-67.77 66.82,-68.68" fill="none" stroke="url(#rainbowGradient)" stroke-width="2" stroke-linejoin="round" filter="url(#fuzzy)" /><polyline points="67.54,-45.07 66.91,-45.59 67.31,-45.15 68.09,-44.29 69.05,-43.19 70.06,-42 71.03,-40.9 71.95,-39.93 72.85,-39.07 73.76,-38.22 74.65,-37.32 75.52,-36.38 76.36,-35.45 77.22,-34.53 78.11,-33.58 79.01,-32.54 79.9,-31.31 81.02,-30.02 60.33,-53.37 63.05,-53.64 65.09,-53.95 66.35,-53.38 67.61,-52.62 69.15,-52.03 70.76,-51.58 72.2,-51.17 73.45,-50.76 74.7,-50.37 76.08,-49.92 77.56,-49.22 79.03,-48.16 80.59,-46.96 82.48,-46.23 84.63,-46.62 86.64,-48.2" fill="none" stroke="url(#rainbowGradient)" stroke-width="2" stroke-linejoin="round" filter="url(#fuzzy)" /><polyline points="58.29,-55.73 57.07,-56.82 56.24,-57.59 55.56,-58.18 54.91,-58.74 54.18,-59.37 53.32,-60.1 52.31,-60.9 51.21,-61.75 50.08,-62.58 48.99,-63.37 47.95,-64.13 46.92,-64.89 45.85,-65.66 44.73,-66.46 43.59,-67.24 42.52,-67.94 41.6,-68.51 40.74,-69 39.64,-69.57 37.91,-70.42 29.24,-67.87 31.02,-67.57 32.37,-67.32 33.61,-67 34.81,-66.67 36.03,-66.39 37.26,-66.19 38.44,-66.03 39.54,-65.8 40.59,-65.41 41.62,-64.83 42.71,-64.15 43.87,-63.5 45.07,-62.99 46.28,-62.65 47.51,-62.45 48.82,-62.28 50.34,-61.87 52.23,-60.73" fill="none" stroke="url(#rainbowGradient)" stroke-width="2" stroke-linejoin="round" filter="url(#fuzzy)" /><polyline points="49.91,-62.39 50.38,-64.87 50.51,-66.63 49.97,-67.69 49.08,-68.56 48.09,-69.6 47.22,-71 46.65,-72.84 46.44,-75.03 46.42,-77.33 46.3,-79.49 45.85,-81.32 45.09,-82.91 44.34,-84.68 43.74,-87.05 42.61,-89.94" fill="none" stroke="url(#rainbowGradient)" stroke-width="2" stroke-linejoin="round" filter="url(#fuzzy)" /><polyline points="49.91,-62.39 50.88,-65.6 52.94,-70.06 53.95,-73.39 53.61,-75.22 52.4,-76.13 50.88,-76.7 49.37,-77.15 47.93,-77.49 46.53,-77.72 45.13,-77.9 43.73,-78.19 42.43,-78.79 41.34,-79.88 40.51,-81.52 39.92,-83.63 39.51,-85.98 39.22,-88.35 38.97,-90.53 38.7,-92.52 38.26,-94.64 37.11,-97.38" fill="none" stroke="url(#rainbowGradient)" stroke-width="2" stroke-linejoin="round" filter="url(#fuzzy)" /><polyline points="32.8,-76.13 34.48,-75.17 35.69,-74.32 36.82,-73.51 37.95,-72.81 39.1,-72.19 40.18,-71.55 41.11,-70.8 41.89,-69.94 42.64,-68.98 43.47,-67.98 44.44,-66.96 45.5,-65.98 46.53,-65.1 47.44,-64.34 48.22,-63.71 48.63,-63.37" fill="none" stroke="url(#rainbowGradient)" stroke-width="2" stroke-linejoin="round" filter="url(#fuzzy)" /><polyline points="48.63,-63.37 50.02,-62.16 51.15,-60.6 51.76,-59.03 52,-57.6 52.08,-56.29 52.19,-55.11 52.47,-54.05 52.97,-53.11 53.63,-52.22 54.3,-51.31 54.86,-50.31 55.31,-49.26 55.69,-48.21 56.1,-47.23 56.58,-46.27 57.04,-45.25 57.38,-44.04 57.57,-42.58 57.74,-40.87 58.05,-38.74 42.25,-96.73 41.97,-94.79 42.17,-91.77 43.14,-89.96 44.43,-88.89 45.53,-87.63 46.27,-85.8 46.71,-83.57 46.97,-81.24 47.17,-79 47.4,-76.89 47.81,-74.92 48.46,-73.16 49.25,-71.56 49.79,-69.81 49.66,-67.48 48.97,-64.77 48.63,-63.37 48.63,-63.37 48.25,-63.77 47.73,-64.79 47.19,-66.13 46.43,-67.44 45.46,-68.59 44.51,-69.7 43.76,-70.98 43.26,-72.57 42.94,-74.48 42.67,-76.63 42.36,-78.93 41.97,-81.27 41.5,-83.56 40.93,-85.72 40.35,-87.79 39.94,-90 39.88,-92.54 40.14,-95.19 40.86,-98 22.67,-75.03 24,-74.54 24.94,-74.3 26.06,-74 27.35,-73.62 28.64,-73.21 29.81,-72.84 30.86,-72.48 31.85,-72.11 32.84,-71.71 33.89,-71.27 34.98,-70.78 36.11,-70.25 37.24,-69.69 38.35,-69.14 39.41,-68.61 40.39,-68.16 41.31,-67.77 42.33,-67.33 43.82,-66.58 46.25,-65.23" fill="none" stroke="url(#rainbowGradient)" stroke-width="2" stroke-linejoin="round" filter="url(#fuzzy)" /><polyline points="18.68,-64.44 19.24,-65.39 20.13,-65.77 21.12,-65.98 22.22,-66.24 23.48,-66.6 24.86,-66.98 26.26,-67.33 27.6,-67.67 28.9,-68.07 30.2,-68.53 31.51,-68.96 32.83,-69.24 34.12,-69.26 35.36,-69.03 36.58,-68.66 37.84,-68.31 39.13,-68.08 40.29,-68 41.05,-68.01 41.49,-68.08 41.49,-68.08 40.24,-66.64 39.24,-66.17 37.7,-65.5 36.07,-65.04 34.69,-65.09 33.58,-65.61 32.64,-66.37 31.77,-67.15 30.89,-67.77 29.94,-68.08 28.84,-68.01 27.56,-67.6 26.12,-66.99 24.63,-66.37 23.24,-65.96 22.05,-65.84 21.06,-65.94 20.14,-66.06 19.15,-65.94 17.9,-65.49 15.76,-64.78" fill="none" stroke="url(#rainbowGradient)" stroke-width="2" stroke-linejoin="round" filter="url(#fuzzy)" /><polyline points="40.9,-67.99 41.37,-69.46 40.42,-70.22 39.38,-71.22 38.5,-72.52 37.72,-73.95 36.99,-75.49 36.39,-77.25 35.95,-79.28 35.61,-81.5 35.23,-83.71 34.67,-85.76 33.86,-87.57 32.84,-89.17 31.74,-90.56 30.62,-91.65 29.47,-92.37 28.3,-92.91 27.21,-93.92 26.24,-96.37 24.55,-100.9" fill="none" stroke="url(#rainbowGradient)" stroke-width="2" stroke-linejoin="round" filter="url(#fuzzy)" /><polyline points="40.9,-67.99 41.7,-67.4 43.13,-66.61 44.51,-65.73 45.65,-64.86 46.62,-64.01 47.54,-63.19 48.5,-62.35 49.51,-61.48 50.52,-60.57 51.5,-59.69 52.4,-58.86 53.21,-58.11 53.93,-57.39 54.62,-56.67 55.3,-55.89 56,-55 56.71,-54.02 57.39,-52.97 57.99,-51.91 58.48,-50.92 58.84,-50.12 58.61,-50.01 41.48,-68.11 42.09,-72.88 41.14,-74.58 40.2,-75.94 39.26,-77.18 38.21,-78.1 37.05,-78.71 35.9,-79.2 34.85,-79.83 33.89,-80.79 33.02,-82.17 32.17,-83.87 31.32,-85.74 30.45,-87.55 29.54,-89.13 28.58,-90.4 27.52,-91.4 26.36,-92.22 25.06,-92.96 23.62,-93.75 22.04,-94.84 20.32,-96.55 18.34,-98.88 15.59,-100.9 22.37,-89.21 22.6,-87.81 23.51,-86.15 24.39,-84.58 25.3,-83.43 26.31,-82.74 27.43,-82.31 28.65,-81.89 29.92,-81.35 31.16,-80.67 32.27,-79.86 33.18,-78.84 33.88,-77.56 34.44,-76.05 35.01,-74.46 35.69,-72.98 36.51,-71.73 37.45,-70.69 38.52,-69.77 39.83,-68.88 41.48,-68.11" fill="none" stroke="url(#rainbowGradient)" stroke-width="2" stroke-linejoin="round" filter="url(#fuzzy)" /><polyline points="36.9,-70 35.24,-69.27 33.58,-68.96 32.39,-69.33 31.4,-69.74 30.39,-69.93 29.3,-69.97 28.11,-69.99 26.88,-70.09 25.65,-70.29 24.48,-70.51 23.35,-70.68 22.25,-70.75 21.13,-70.7 19.96,-70.54 18.71,-70.3 17.37,-69.97 15.92,-69.57 14.41,-69.12 12.88,-68.69 11.41,-68.35 10.09,-68.09 8.99,-67.75 8.35,-67.05 8.92,-65.63" fill="none" stroke="url(#rainbowGradient)" stroke-width="2" stroke-linejoin="round" filter="url(#fuzzy)" /><polyline points="33.78,-71.75 32.7,-73.38 32.62,-75.55 32.54,-77.86 32.18,-80.27 31.62,-82.92 31.01,-85.73 30.4,-88.33 29.68,-90.3 28.75,-91.46 27.59,-91.98 26.29,-92.35 24.96,-93.1 23.68,-94.6 22.38,-96.88 20.9,-99.66 18.97,-102.53 16.25,-105.22" fill="none" stroke="url(#rainbowGradient)" stroke-width="2" stroke-linejoin="round" filter="url(#fuzzy)" /><polyline points="31.38,-72.84 31.54,-73.56 31.15,-74.53 30.23,-75.37 29.04,-76.2 27.87,-77.21 26.89,-78.5 26.09,-80 25.31,-81.45 24.42,-82.54 23.3,-83.1 21.94,-83.24 20.41,-83.26 18.81,-83.52 17.22,-84.23 15.71,-85.41 14.32,-86.92 13.09,-88.53 12.08,-89.97 11.31,-91.07 10.7,-91.84 9.97,-92.74 8.85,-93.81 31.66,-72.48 32.05,-72.26 32.96,-71.54 34.03,-70.82 35.18,-70.23 36.35,-69.7 37.49,-69.17 38.57,-68.63 39.59,-68.07 40.57,-67.49 41.55,-66.86 42.57,-66.17 43.6,-65.38 44.59,-64.51 45.52,-63.61 46.38,-62.69 47.21,-61.78 48.11,-60.84 49.16,-59.83 50.37,-58.7 51.54,-57.6 52.21,-56.87" fill="none" stroke="url(#rainbowGradient)" stroke-width="2" stroke-linejoin="round" filter="url(#fuzzy)" /><polyline points="10.95,-102.31 12.01,-100.53 12.32,-99.06 12.93,-97.17 13.87,-94.67 15.04,-91.97 16.38,-89.49 17.78,-87.34 19.12,-85.4 20.34,-83.54 21.4,-81.74 22.36,-80.13 23.27,-78.82 24.16,-77.81 25.04,-76.98 25.94,-76.14 26.98,-75.19 28.28,-74.2 29.68,-73.36 30.41,-72.99" fill="none" stroke="url(#rainbowGradient)" stroke-width="2" stroke-linejoin="round" filter="url(#fuzzy)" /><polyline points="30.41,-72.99 29.74,-73.58 28.75,-75.68 28.08,-78.59 27.54,-81.14 26.85,-82.76 25.89,-83.45 24.68,-83.51 23.29,-83.3 21.8,-83.14 20.28,-83.32 18.75,-83.97 17.25,-85.17 15.84,-86.93 14.57,-89.16 13.48,-91.66 12.59,-94.14 11.87,-96.3 11.19,-97.97 10.25,-99.09 8.72,-99.9 6.5,-101.82 11.58,-85.18 10.56,-84.84 11.08,-84.08 12.16,-83.01 13.49,-81.95 14.98,-81.1 16.54,-80.47 18.08,-79.99 19.53,-79.56 20.86,-79.13 22.08,-78.72 23.2,-78.34 24.25,-77.97 25.23,-77.51 26.18,-76.82 27.19,-75.8 28.4,-74.54 29.71,-73.43 30.41,-72.99" fill="none" stroke="url(#rainbowGradient)" stroke-width="2" stroke-linejoin="round" filter="url(#fuzzy)" /><polyline points="24.84,-74.81 23.32,-75.37 22.18,-75.68 21.04,-75.9 19.78,-76.11 18.39,-76.31 16.9,-76.5 15.37,-76.66 13.87,-76.77 12.48,-76.81 11.26,-76.79 10.23,-76.7 9.34,-76.54 8.47,-76.33 7.46,-76.11 6.14,-75.98 4.51,-75.98 2.65,-76.05 0.8,-75.74" fill="none" stroke="url(#rainbowGradient)" stroke-width="2" stroke-linejoin="round" filter="url(#fuzzy)" /><polyline points="21.83,-75.83 21.12,-76.06 19.84,-76.41 18.43,-76.75 16.92,-77.09 15.38,-77.46 13.89,-77.83 12.53,-78.18 11.37,-78.47 10.4,-78.7 9.57,-78.88 8.74,-79.06 7.73,-79.29 6.4,-79.58 4.71,-79.86 2.77,-80.07 0.84,-80.06" fill="none" stroke="url(#rainbowGradient)" stroke-width="2" stroke-linejoin="round" filter="url(#fuzzy)" /><polyline points="-4.54,-74.03 -2.81,-74.72 -1.45,-75.21 -0.33,-75.45 0.71,-75.64 1.81,-75.87 3.03,-76.15 4.37,-76.39 5.73,-76.55 7,-76.65 8.11,-76.73 9.08,-76.85 10.01,-77.02 11,-77.2 12.16,-77.32 13.52,-77.3 15.07,-77.14 16.7,-76.89 18.14,-76.64 18.64,-76.62 19.14,-76.33 17.35,-79.55 15.9,-82.29 14.38,-83.23 12.93,-83.03 11.65,-82.53 10.56,-82.35 9.56,-82.75 8.54,-83.64 7.38,-84.71 6.07,-85.72 4.67,-86.58 3.24,-87.35 1.85,-88.14 0.51,-88.97 -0.81,-89.83 -2.12,-90.68 -3.44,-91.58 -4.76,-92.62 -6.09,-93.85 -7.51,-95.28 -9.15,-96.73 -11.11,-98 -13.33,-99 -15.51,-100.03 10.6,-78 8.84,-78.76 7.17,-79.61 5.5,-80.8 3.94,-82.12 2.56,-83.63 1.31,-85.44 0.12,-87.36 -1.09,-89.01 -2.34,-90.15 -3.6,-90.86 -4.86,-91.44 -6.14,-92.14 -7.51,-92.96 -9.05,-93.73 -10.8,-94.38 -12.64,-95.11 -14.24,-96.13 -15.21,-98.4" fill="none" stroke="url(#rainbowGradient)" stroke-width="2" stroke-linejoin="round" filter="url(#fuzzy)" /><polyline points="2.74,-78.84 1.68,-78.89 0.89,-79.48 -0.11,-80.89 -1.28,-82.67 -2.5,-84.08 -3.69,-84.8 -4.84,-84.96 -6.03,-84.9 -7.3,-84.94 -8.69,-85.22 -10.16,-85.77 -11.65,-86.48 -13.15,-87.23 -14.68,-87.93 -16.31,-88.62 -18.09,-89.5 -20,-90.85 -22.01,-92.68 -24.15,-94.48 -26.3,-95.64" fill="none" stroke="url(#rainbowGradient)" stroke-width="2" stroke-linejoin="round" filter="url(#fuzzy)" /><polyline points="0.83,-78.53 2.73,-78.57 4.61,-78.22 6.22,-77.59 7.47,-76.87 8.41,-76.3 9.21,-75.93 10.03,-75.69 10.97,-75.41 12.08,-74.99 13.32,-74.38 14.64,-73.6 15.97,-72.71 17.24,-71.8 18.43,-71.03 19.53,-70.57 20.46,-70.38 21.16,-70.02" fill="none" stroke="url(#rainbowGradient)" stroke-width="2" stroke-linejoin="round" filter="url(#fuzzy)" /><polyline points="2.15,-78.69 2.01,-82.84 3.16,-82.57 4.92,-82.94 6.85,-85.01 8.63,-88.06 10.09,-90.94 11.26,-92.94 12.32,-93.99 13.48,-94.39 14.9,-94.54 16.63,-94.68 18.68,-95.06 21.02,-96.16 23.41,-98.52 24.59,-101.09" fill="none" stroke="url(#rainbowGradient)" stroke-width="2" stroke-linejoin="round" filter="url(#fuzzy)" /><polyline points="-4.8,-78.41 -1.19,-78.62 2.05,-78.64 5.11,-78.54 7.84,-78.37 10.34,-78.15 12.92,-77.86 15.82,-77.49 19.07,-77.03 22.61,-76.48 26.35,-75.85 30.26,-75.15 34.35,-74.39 38.6,-73.58 42.93,-72.72 47.23,-71.81 51.4,-70.84 55.43,-69.8 59.37,-68.7 63.33,-67.52 67.45,-66.26 71.84,-64.92 76.58,-63.5 81.71,-62.04 87.23,-60.54 93.08,-59.03 99.18,-57.51 105.44,-55.99 111.81,-54.45 118.2,-52.86 124.38,-51.2 129.97,-49.48 134.56,-47.74 138.38,-45.98 142.82,-43.98 148.33,-41.01" fill="none" stroke="url(#rainbowGradient)" stroke-width="2" stroke-linejoin="round" filter="url(#fuzzy)" /><polyline points="-4.8,-78.41 -1.45,-78.62 0.85,-78.64 2.56,-78.55 3.96,-78.38 5.32,-78.16 6.87,-77.88 8.71,-77.52 10.77,-77.07 12.9,-76.52 14.95,-75.9 16.86,-75.21 18.55,-74.46 19.94,-73.66 20.91,-72.81 21.39,-71.91 21.36,-70.96 20.9,-69.95 20.2,-68.87 19.45,-67.71 18.8,-66.47 18.32,-65.14 17.98,-63.72 17.68,-62.24 17.33,-60.72 16.85,-59.19 16.28,-57.69 15.73,-56.24 15.22,-54.83 14.12,-53.52 11.47,-52.49" fill="none" stroke="url(#rainbowGradient)" stroke-width="2" stroke-linejoin="round" filter="url(#fuzzy)" /><polyline points="-5.94,-78.33 -4.01,-78.47 -1.31,-78.58 1.57,-78.59 4.6,-78.51 7.68,-78.35 10.75,-78.13 13.76,-77.84 16.75,-77.47 19.75,-77.01 22.76,-76.46 25.77,-75.84 28.82,-75.14 31.95,-74.39 35.21,-73.57 38.62,-72.71 42.12,-71.79 45.66,-70.82 49.2,-69.79 52.79,-68.68 56.52,-67.5 60.5,-66.23 64.76,-64.89 69.24,-63.48 73.78,-62.02 78.18,-60.52 82.31,-59.01 86.08,-57.49 89.56,-55.96 92.94,-54.41 96.51,-52.81 100.53,-51.14 105.09,-49.42 109.96,-47.64 114.73,-45.79 119.24,-43.75 124.24,-41.35 130.24,-38.87" fill="none" stroke="url(#rainbowGradient)" stroke-width="2" stroke-linejoin="round" filter="url(#fuzzy)" /><polyline points="-5.88,-78.41 -4.6,-78.53 -3.01,-78.59 -0.83,-78.58 1.77,-78.51 4.63,-78.39 7.73,-78.2 11.1,-77.93 14.73,-77.58 18.54,-77.15 22.36,-76.67 26.12,-76.13 29.87,-75.55 33.79,-74.92 38.08,-74.24 42.82,-73.49 47.98,-72.68 53.42,-71.79 58.99,-70.83 64.61,-69.79 70.19,-68.68 75.58,-67.51 80.72,-66.25 85.87,-64.87 91.97,-63.35 100.43,-61.59 113.03,-59.19" fill="none" stroke="url(#rainbowGradient)" stroke-width="2" stroke-linejoin="round" filter="url(#fuzzy)" /><polyline points="-16.86,-77.04 -14.07,-77.59 -11.06,-77.94 -8.16,-78.2 -5.56,-78.38 -3.15,-78.48 -0.75,-78.51 1.81,-78.47 4.61,-78.37 7.71,-78.2 11.13,-77.96 14.84,-77.63 18.74,-77.24 22.68,-76.77 26.49,-76.26 30.11,-75.7 33.57,-75.1 37.05,-74.45 40.72,-73.76 44.65,-73.01 48.73,-72.18 52.78,-71.21 56.99,-70.03 62.3,-68.74" fill="none" stroke="url(#rainbowGradient)" stroke-width="2" stroke-linejoin="round" filter="url(#fuzzy)" /><polyline points="-22.2,-75.84 -24.04,-75.25 -26.2,-74.59 -28.52,-73.85 -30.94,-73.03 -33.51,-72.11 -36.24,-71.08 -39.06,-69.94 -41.89,-68.7 -44.65,-67.4 -47.31,-66.06 -49.86,-64.69 -52.32,-63.29 -54.74,-61.87 -57.16,-60.4 -59.61,-58.86 -62.11,-57.24 -64.66,-55.53 -67.27,-53.75 -69.91,-51.91 -72.53,-50.04 -75.03,-48.16 -77.3,-46.29 -79.33,-44.41 -81.24,-42.51 -83.25,-40.56 -85.56,-38.52 -88.19,-36.37 -90.94,-34.15 -93.62,-31.9 -96.65,-28.89" fill="none" stroke="url(#rainbowGradient)" stroke-width="2" stroke-linejoin="round" filter="url(#fuzzy)" /><polyline points="-27.73,-74.07 -31.4,-72.97 -33.37,-72.12 -35.67,-71.11 -38.8,-69.91 -42.58,-68.61 -46.51,-67.26 -50.15,-65.88 -53.32,-64.5 -56.05,-63.09 -58.48,-61.65 -60.76,-60.15 -62.98,-58.58 -65.22,-56.93 -67.56,-55.2 -70.07,-53.4 -72.78,-51.55 -75.7,-49.68 -78.77,-47.79 -81.94,-45.88 -85.15,-43.95 -88.39,-41.99 -91.68,-39.98 -95.06,-37.91 -98.54,-35.8 -102.05,-33.64 -105.46,-31.45 -108.6,-29.27 -111.37,-27.09 -113.81,-24.93 -116.01,-22.76 -118.07,-20.52 -120.11,-18.14 -122.57,-15.57 -126,-13.03 -128.75,-11.08" fill="none" stroke="url(#rainbowGradient)" stroke-width="2" stroke-linejoin="round" filter="url(#fuzzy)" /><polyline points="-32.73,-72.07 -35.55,-70.96 -38.43,-69.95 -41.02,-68.91 -43.6,-67.79 -46.64,-66.6 -50.49,-65.35 -55.19,-64.01 -60.4,-62.59 -65.46,-61.09 -69.74,-59.51 -72.88,-57.87 -74.97,-56.17 -76.47,-54.41 -78.03,-52.59 -80.23,-50.72 -83.35,-48.81 -87.32,-46.88 -91.8,-44.94 -96.33,-43 -100.51,-41.05 -104.17,-39.06 -107.41,-37.02 -110.58,-34.9 -114.09,-32.72 -118.28,-30.49 -123.24,-28.23 -128.8,-25.95 -134.54,-23.63 -139.99,-21.25 -144.86,-18.83 -149.37,-16.44 -153.7,-14.4 -155.59,-13.93" fill="none" stroke="url(#rainbowGradient)" stroke-width="2" stroke-linejoin="round" filter="url(#fuzzy)" /><polyline points="-48.07,-63.77 -47.86,-62.8 -47.52,-61.43 -48.16,-59.98 -49.48,-58.44 -50.89,-56.76 -52.09,-54.97 -52.98,-53.09 -53.6,-51.19 -54.05,-49.3 -54.46,-47.4 -55.01,-45.5 -55.75,-43.57 -56.65,-41.61 -57.56,-39.59 -58.32,-37.51 -58.76,-35.39 -58.81,-33.23 -58.47,-31.05 -57.78,-28.87 -56.86,-26.68 -55.86,-24.48 -54.94,-22.25 -54.19,-19.95 -53.59,-17.59 -52.95,-15.15 -52.04,-12.67 -50.72,-10.18 -49.1,-7.69 -47.56,-5.18 -46.59,-2.64 -46.29,-0.23 -44.95,1.7" fill="none" stroke="url(#rainbowGradient)" stroke-width="2" stroke-linejoin="round" filter="url(#fuzzy)" /><polyline points="-53.76,-59.51 -56.77,-58.44 -59.69,-56.84 -61.72,-54.94 -63.99,-52.96 -66.99,-51.01 -70.46,-49.1 -73.83,-47.21 -76.65,-45.32 -78.86,-43.4 -80.68,-41.44 -82.45,-39.41 -84.44,-37.32 -86.82,-35.19 -89.63,-33.02 -92.83,-30.84 -96.3,-28.65 -99.82,-26.46 -103.16,-24.25 -106.16,-22 -108.77,-19.69 -111.08,-17.32 -113.25,-14.9 -115.4,-12.43 -117.54,-9.95 -119.57,-7.48 -121.35,-5.04 -122.88,-2.66 -124.39,-0.38 -126.29,1.74 -128.94,3.77 -131.95,5.87 -132.71,8.24" fill="none" stroke="url(#rainbowGradient)" stroke-width="2" stroke-linejoin="round" filter="url(#fuzzy)" /><polyline points="-57.04,-56.6 -60.67,-55.69 -64.43,-54.06 -67.95,-52.2 -72.92,-50.25 -79.67,-48.25 -87.18,-46.27 -93.86,-44.32 -98.45,-42.41 -100.66,-40.48 -101.15,-38.51 -101.04,-36.46 -101.34,-34.32 -102.67,-32.12 -105.19,-29.88 -108.71,-27.62 -112.87,-25.33 -117.21,-23.03 -121.26,-20.72 -124.69,-18.41 -127.42,-16.13 -129.74,-13.87 -132.12,-11.62 -134.79,-9.34 -137.48,-7.04 -139.72,-4.8 -141.87,-2.71 -145.53,-0.66 -152.36,1.98" fill="none" stroke="url(#rainbowGradient)" stroke-width="2" stroke-linejoin="round" filter="url(#fuzzy)" /><polyline points="-56.42,-57.38 -61.22,-55.03 -69.17,-52.85 -74.84,-50.89 -77.46,-49.03 -78.86,-47.2 -80.56,-45.36 -83.17,-43.49 -86.76,-41.57 -91.32,-39.57 -96.88,-37.51 -103.36,-35.38 -110.41,-33.22 -117.34,-31.06 -123.38,-28.9 -128.06,-26.75 -131.58,-24.62 -134.88,-22.47 -139.19,-20.25 -145.21,-17.88 -152.36,-15.38 -158.91,-12.83 -163.86,-10.28 -171.15,-7.32" fill="none" stroke="url(#rainbowGradient)" stroke-width="2" stroke-linejoin="round" filter="url(#fuzzy)" /><polyline points="-56.42,-57.38 -59.42,-54.99 -62.09,-52.8 -64.36,-50.81 -66.8,-48.92 -69.49,-47.06 -72.22,-45.18 -74.72,-43.26 -76.89,-41.28 -78.8,-39.24 -80.64,-37.14 -82.61,-34.99 -84.85,-32.81 -87.41,-30.62 -90.27,-28.42 -93.25,-26.21 -96.13,-23.98 -98.7,-21.71 -100.81,-19.38 -102.51,-17.01 -103.99,-14.58 -105.54,-12.13 -107.38,-9.67 -109.54,-7.23 -111.79,-4.82 -113.76,-2.46 -115.09,-0.14 -115.72,2.15 -115.93,4.46 -116.29,6.84 -117.32,9.32 -119.24,11.88 -121.87,14.4 -124.92,16.76 -128.12,18.87 -130,20.73" fill="none" stroke="url(#rainbowGradient)" stroke-width="2" stroke-linejoin="round" filter="url(#fuzzy)" /><polyline points="-64.26,-49.16 -65.9,-46.93 -67.79,-45.03 -70.21,-43.13 -72.87,-41.18 -75.5,-39.14 -78.05,-37.01 -80.54,-34.84 -82.91,-32.64 -85.08,-30.44 -87.01,-28.25 -88.68,-26.06 -90.15,-23.84 -91.43,-21.58 -92.55,-19.27 -93.52,-16.89 -94.33,-14.46 -95.02,-12.01 -95.64,-9.55 -96.21,-7.11 -96.79,-4.71 -97.36,-2.36 -97.93,-0.06 -98.48,2.22 -99.01,4.52 -99.51,6.89 -99.94,9.37 -100.35,11.92 -100.8,14.43 -101.34,16.78 -101.85,18.88 -101.59,20.73" fill="none" stroke="url(#rainbowGradient)" stroke-width="2" stroke-linejoin="round" filter="url(#fuzzy)" /><polyline points="-64.26,-49.16 -65.96,-46.95 -67.91,-45.07 -69.93,-43.19 -71.61,-41.26 -72.85,-39.25 -73.84,-37.15 -74.77,-34.99 -75.79,-32.81 -76.91,-30.63 -78.12,-28.46 -79.39,-26.31 -80.68,-24.14 -81.98,-21.93 -83.3,-19.66 -84.62,-17.3 -85.94,-14.87 -87.23,-12.41 -88.46,-9.94 -89.63,-7.48 -90.73,-5.02 -91.73,-2.59 -92.57,-0.31 -93.15,1.65 -93.2,3.24" fill="none" stroke="url(#rainbowGradient)" stroke-width="2" stroke-linejoin="round" filter="url(#fuzzy)" /><polyline points="79.56,-20.11 82.48,-18.11 82.54,-15.63 82.36,-13.03 82.51,-10.43 83,-7.87 83.77,-5.4 84.78,-3.03 85.97,-0.75 87.22,1.48 88.46,3.73 89.57,6.03 90.44,8.39 90.91,10.8 90.86,13.21 90.34,15.59 89.59,17.93 88.97,20.23 88.8,22.5 89.1,24.73 89.59,26.9 89.81,28.99 89.44,31.16 88.9,33.94" fill="none" stroke="url(#rainbowGradient)" stroke-width="2" stroke-linejoin="round" filter="url(#fuzzy)" /><polyline points="-68.3,-43.47 -70.81,-41.61 -76.28,-40.08 -82.62,-38.24 -86.88,-36.13 -88.91,-33.87 -90.17,-31.58 -91.95,-29.29 -94.64,-27.01 -97.9,-24.72 -101.12,-22.41 -103.92,-20.1 -106.28,-17.8 -108.43,-15.51 -110.68,-13.24 -113.27,-10.97 -116.28,-8.7 -119.7,-6.41 -123.43,-4.1 -127.41,-1.77 -131.57,0.6 -135.86,3 -140.24,5.43 -144.71,7.85 -149.4,10.26 -154.61,12.7 -160.46,15.23 -166.1,17.85 -168.84,20.35 -164.36,22.53" fill="none" stroke="url(#rainbowGradient)" stroke-width="2" stroke-linejoin="round" filter="url(#fuzzy)" /><polyline points="-68.3,-43.47 -74.79,-41.62 -77.72,-40.12 -79.97,-38.31 -81.37,-36.22 -82.09,-33.98 -82.76,-31.7 -84.07,-29.44 -86.46,-27.18 -90.08,-24.92 -94.85,-22.63 -100.49,-20.33 -106.57,-18.04 -112.51,-15.77 -117.84,-13.53 -122.35,-11.3 -126.2,-9.05 -129.67,-6.79 -132.91,-4.54 -135.75,-2.3 -138.03,0 -140.06,2.47 -142.66,5.01 -146.37,6.73" fill="none" stroke="url(#rainbowGradient)" stroke-width="2" stroke-linejoin="round" filter="url(#fuzzy)" /><polyline points="-69.27,-42.46 -74.34,-40.96 -77.9,-39.14 -78.71,-37 -79.08,-34.77 -80.17,-32.56 -82.02,-30.38 -84.31,-28.23 -86.85,-26.09 -89.62,-23.94 -92.66,-21.75 -95.97,-19.47 -99.42,-17.11 -102.86,-14.68 -106.17,-12.23 -109.44,-9.77 -112.89,-7.33 -116.65,-4.9 -120.59,-2.52 -124.52,-0.28 -128.69,1.74 -133.52,3.62 -137.08,5.66" fill="none" stroke="url(#rainbowGradient)" stroke-width="2" stroke-linejoin="round" filter="url(#fuzzy)" /><polyline points="-70.31,-40.62 -71.72,-40.09 -72.9,-38.3 -74.54,-36.1 -76.38,-33.77 -78.01,-31.43 -79.31,-29.12 -80.39,-26.83 -81.46,-24.52 -82.63,-22.2 -83.88,-19.88 -85.14,-17.56 -86.3,-15.26 -87.3,-12.98 -88.14,-10.69 -88.82,-8.39 -89.36,-6.08 -89.77,-3.75 -90.06,-1.39 -90.24,0.99 -90.35,3.4 -90.41,5.83 -90.44,8.26 -90.44,10.69 -90.41,13.1 -90.33,15.47 -90.23,17.78 -90.14,20.01 -90.1,22.13 -90.11,24.19 -90.08,26.27 -89.86,28.48 -89.32,30.91 -88.43,33.64 -87.22,36.56 -86,38.77" fill="none" stroke="url(#rainbowGradient)" stroke-width="2" stroke-linejoin="round" filter="url(#fuzzy)" /><polyline points="-69.93,-41.37 -72.93,-38.62 -75.6,-36.15 -77.4,-33.72 -79.18,-31.35 -81.83,-29.04 -85.67,-26.76 -90.31,-24.46 -94.97,-22.14 -98.9,-19.81 -101.74,-17.49 -103.56,-15.19 -104.7,-12.91 -105.58,-10.62 -106.54,-8.33 -107.74,-6.01 -109.25,-3.68 -111.03,-1.32 -113,1.06 -115.04,3.47 -117.03,5.9 -118.87,8.33 -120.56,10.75 -122.18,13.16 -123.87,15.53 -125.7,17.83 -127.6,20.05 -129.35,22.19 -130.68,24.28 -131.42,26.4 -131.7,28.63 -132.04,31.05 -133.12,33.68 -135.12,36.38 -136.69,38.85 -135.95,40.84" fill="none" stroke="url(#rainbowGradient)" stroke-width="2" stroke-linejoin="round" filter="url(#fuzzy)" /><polyline points="79.09,-21.69 80.33,-18.31 81.38,-15.54 82.46,-13.1 84,-10.87 85.93,-8.7 87.73,-6.51 88.97,-4.28 89.62,-2.02 90.08,0.26 90.82,2.55 92.13,4.85 93.98,7.17 96.05,9.51 97.9,11.86 99.13,14.21 99.51,16.55 99.12,18.87 98.33,21.17 97.72,23.45 97.73,25.71 98.5,27.98 99.66,30.28 100.49,32.62 100.26,35 98.85,37.35 97.17,39.47 96.94,41.15 99.2,42.41" fill="none" stroke="url(#rainbowGradient)" stroke-width="2" stroke-linejoin="round" filter="url(#fuzzy)" /><polyline points="76.92,-27.13 78.52,-24.49 79.25,-22.27 79.74,-20.14 80.29,-17.92 81,-15.54 81.9,-13.06 82.93,-10.52 84.03,-8 85.11,-5.52 86.15,-3.12 87.11,-0.77 87.98,1.55 88.72,3.87 89.29,6.22 89.66,8.6 89.87,11 89.94,13.4 89.95,15.79 89.91,18.15 89.86,20.47 89.8,22.76 89.71,25.01 89.57,27.23 89.32,29.43 88.84,31.61 88.09,33.77 87.08,35.91 86.01,38 85.12,40.02 84.61,41.94 84.42,43.76 84.4,45.48 84.61,47.14" fill="none" stroke="url(#rainbowGradient)" stroke-width="2" stroke-linejoin="round" filter="url(#fuzzy)" /><polyline points="75.19,-31.42 79.17,-29.75 82.07,-27.8 84.87,-25.65 88.09,-23.35 91.09,-20.95 92.95,-18.49 93.34,-16.05 92.59,-13.66 91.34,-11.33 90.14,-9.06 89.32,-6.81 88.93,-4.55 88.96,-2.28 89.35,0 90.02,2.3 90.88,4.61 91.87,6.94 92.92,9.28 93.98,11.63 95,13.99 95.9,16.34 96.56,18.68 96.87,20.99 96.85,23.28 96.62,25.55 96.48,27.82 96.63,30.12 97.02,32.49 97.39,34.94 97.49,37.41 97.4,39.65 96.89,41.12" fill="none" stroke="url(#rainbowGradient)" stroke-width="2" stroke-linejoin="round" filter="url(#fuzzy)" /><polyline points="73.8,-34.76 75.78,-31.99 79.22,-29.36 82.96,-26.96 85.91,-24.69 87.73,-22.49 88.77,-20.27 89.65,-17.99 90.81,-15.63 92.33,-13.18 94.04,-10.69 95.66,-8.2 96.92,-5.73 97.66,-3.32 97.95,-0.95 97.97,1.39 97.99,3.72 98.21,6.08 98.78,8.46 99.71,10.86 100.95,13.26 102.38,15.66 103.86,18.02 105.27,20.35 106.51,22.65 107.58,24.91 108.5,27.13 109.32,29.33 110,31.52 110.52,33.69 110.89,35.85 111.17,37.96 111.3,39.99 111,41.92 110.5,43.75 111.68,45.35" fill="none" stroke="url(#rainbowGradient)" stroke-width="2" stroke-linejoin="round" filter="url(#fuzzy)" /><polyline points="69.83,-41.01 73.03,-38.91 74.17,-36.73 75.05,-34.5 76.11,-32.3 77.56,-30.14 79.52,-27.97 81.98,-25.75 84.84,-23.46 87.96,-21.1 91.25,-18.71 94.66,-16.31 98.15,-13.93 101.61,-11.59 104.84,-9.29 107.61,-7.01 109.76,-4.74 111.3,-2.46 112.42,-0.18 113.36,2.13 114.36,4.44 115.51,6.77 116.85,9.12 118.32,11.48 119.92,13.85 121.61,16.21 123.33,18.55 124.97,20.87 126.37,23.16 127.46,25.43 128.19,27.7 128.56,29.99 128.6,32.36 128.35,34.89 127.85,37.59 128.01,40.21" fill="none" stroke="url(#rainbowGradient)" stroke-width="2" stroke-linejoin="round" filter="url(#fuzzy)" /><polyline points="60.33,-53.37 62.55,-51.85 65.13,-49.9 67.27,-47.99 69.07,-46.07 70.84,-44.02 72.74,-41.85 74.76,-39.59 76.84,-37.32 78.84,-35.06 80.61,-32.83 82.08,-30.62 83.29,-28.41 84.36,-26.18 85.46,-23.9 86.74,-21.58 88.25,-19.21 89.97,-16.83 91.76,-14.46 93.49,-12.12 95,-9.82 96.18,-7.55 97.02,-5.29 97.56,-3.03 97.92,-0.75 98.27,1.54 98.73,3.83 99.37,6.14 100.19,8.46 101.14,10.83 102.29,13.26 103.76,15.82 104.84,18.79" fill="none" stroke="url(#rainbowGradient)" stroke-width="2" stroke-linejoin="round" filter="url(#fuzzy)" /><polyline points="59.14,-54.55 60.55,-53.34 62.6,-51.75 65.2,-49.96 68.42,-48.11 72.34,-46.2 76.99,-44.18 82.32,-42.04 88.04,-39.82 93.73,-37.57 99.02,-35.32 103.74,-33.11 107.9,-30.94 111.53,-28.77 114.65,-26.59 117.37,-24.35 120.14,-22.05 123.69,-19.67 128.71,-17.25 135.28,-14.83 142.52,-12.49 149,-10.26 153.87,-8.11 158.01,-5.96 163.6,-3.85 168.75,-2.15" fill="none" stroke="url(#rainbowGradient)" stroke-width="2" stroke-linejoin="round" filter="url(#fuzzy)" /><polyline points="48.63,-63.37 51.6,-61.18 54.02,-59.47 56.18,-57.97 58.21,-56.51 60.29,-55.02 62.54,-53.44 64.94,-51.78 67.32,-50.03 69.54,-48.19 71.56,-46.25 73.41,-44.23 75.22,-42.11 77.06,-39.92 78.96,-37.7 80.88,-35.47 82.74,-33.24 84.43,-31.02 85.87,-28.81 87.05,-26.58 87.98,-24.3 88.74,-21.98 89.41,-19.61 90.07,-17.21 90.82,-14.82 91.73,-12.47 92.85,-10.18 94.17,-7.93 95.67,-5.69 97.26,-3.43 98.85,-1.13 100.27,1.17 101.32,3.39 101.47,5.79" fill="none" stroke="url(#rainbowGradient)" stroke-width="2" stroke-linejoin="round" filter="url(#fuzzy)" /><polyline points="46.18,-65.15 52.02,-63.57 54.47,-62 57.49,-60.48 61.7,-59 66.09,-57.46 69.7,-55.81 72.5,-54.07 75.17,-52.28 78.45,-50.46 82.61,-48.63 87.36,-46.77 92.12,-44.89 96.33,-42.99 99.8,-41.05 102.69,-39.08 105.37,-37.06 108.22,-34.99 111.53,-32.86 115.48,-30.67 120.15,-28.44 125.46,-26.21 131.03,-24 136.27,-21.83 140.73,-19.68 144.63,-17.47 148.88,-15.09 153.93,-12.5 157,-9.95" fill="none" stroke="url(#rainbowGradient)" stroke-width="2" stroke-linejoin="round" filter="url(#fuzzy)" /><polyline points="31.66,-72.48 34.42,-71.65 39.24,-70.69 45.82,-69.66 52.82,-68.55 58.89,-67.34 63.28,-66.03 65.96,-64.64 67.48,-63.17 68.57,-61.67 69.87,-60.16 71.8,-58.65 74.51,-57.16 77.98,-55.67 82.15,-54.14 86.89,-52.55 91.92,-50.9 96.77,-49.18 100.92,-47.4 104.13,-45.53 106.79,-43.5 109.95,-41.25 114.94,-38.91 122.73,-36.8" fill="none" stroke="url(#rainbowGradient)" stroke-width="2" stroke-linejoin="round" filter="url(#fuzzy)" /><polyline points="28.11,-73.75 30.2,-73.12 32.45,-72.37 34.8,-71.41 37.13,-70.31 39.47,-69.16 41.87,-67.94 44.39,-66.66 47.1,-65.29 50.08,-63.87 53.4,-62.39 57.07,-60.88 60.99,-59.33 64.96,-57.75 68.7,-56.11 71.97,-54.41 74.66,-52.65 76.79,-50.86 78.56,-49.04 80.21,-47.19 81.96,-45.32 83.97,-43.42 86.29,-41.49 88.92,-39.53 91.77,-37.54 94.77,-35.5 97.78,-33.38 100.66,-31.17 103.31,-28.87 105.86,-26.52 108.92,-24.14 113.14,-21.78" fill="none" stroke="url(#rainbowGradient)" stroke-width="2" stroke-linejoin="round" filter="url(#fuzzy)" /><polyline points="21.83,-75.83 24.17,-75.1 26.75,-74.36 30.15,-73.51 34.45,-72.62 39.59,-71.7 45.33,-70.74 51.29,-69.72 57.07,-68.62 62.48,-67.43 67.48,-66.14 72.23,-64.78 76.95,-63.34 81.82,-61.86 86.97,-60.35 92.42,-58.85 98.13,-57.35 103.95,-55.86 109.72,-54.34 115.21,-52.76 120.11,-51.11 124,-49.4 126.57,-47.67 128.37,-45.94 131.72,-43.96 138.57,-41.01" fill="none" stroke="url(#rainbowGradient)" stroke-width="2" stroke-linejoin="round" filter="url(#fuzzy)" /><polyline points="14.98,-77.26 18.53,-76.52 21.1,-75.96 23.37,-75.39 25.65,-74.73 27.95,-74 30.26,-73.19 32.61,-72.31 35.07,-71.34 37.67,-70.29 40.43,-69.16 43.26,-67.96 46.09,-66.68 48.8,-65.34 51.32,-63.93 53.61,-62.47 55.71,-60.96 57.69,-59.41 59.64,-57.81 61.61,-56.17 63.65,-54.47 65.71,-52.72 67.77,-50.92 69.78,-49.1 71.72,-47.24 73.6,-45.36 75.47,-43.45 77.34,-41.51 79.22,-39.54 81.08,-37.53 82.89,-35.47 84.61,-33.34 86.23,-31.13 87.73,-28.84 89.1,-26.51 90.36,-24.2 91.71,-22 93.55,-20.11" fill="none" stroke="url(#rainbowGradient)" stroke-width="2" stroke-linejoin="round" filter="url(#fuzzy)" /><polyline points="12.41,-77.79 15.89,-77.18 19.85,-76.57 23.38,-76 26.43,-75.41 29.03,-74.75 31.23,-74.03 33.22,-73.24 35.22,-72.37 37.42,-71.43 39.88,-70.4 42.58,-69.29 45.48,-68.11 48.51,-66.86 51.65,-65.53 54.93,-64.14 58.34,-62.69 61.85,-61.21 65.36,-59.69 68.74,-58.12 71.86,-56.51 74.68,-54.83 77.29,-53.09 79.91,-51.3 82.78,-49.48 85.99,-47.66 89.41,-45.81 92.69,-43.94 95.55,-42 97.94,-40.15 98.8,-39.55" fill="none" stroke="url(#rainbowGradient)" stroke-width="2" stroke-linejoin="round" filter="url(#fuzzy)" /><polyline points="8.38,-78.33 9.66,-78.08 12.2,-77.66 15.06,-77.15 17.83,-76.59 20.42,-76.01 22.84,-75.4 25.15,-74.74 27.42,-74.01 29.68,-73.22 31.96,-72.35 34.25,-71.4 36.56,-70.37 38.88,-69.27 41.19,-68.08 43.46,-66.83 45.69,-65.5 47.86,-64.11 49.98,-62.66 52.05,-61.17 54.06,-59.64 56.03,-58.07 57.96,-56.44 59.84,-54.75 61.69,-53.01 63.48,-51.22 65.23,-49.4 66.93,-47.56 68.56,-45.7 70.13,-43.8 71.62,-41.87 73.04,-39.9 74.42,-37.93 75.73,-36.02 76.55,-34.76" fill="none" stroke="url(#rainbowGradient)" stroke-width="2" stroke-linejoin="round" filter="url(#fuzzy)" /><polyline points="7.39,-78.29 9.43,-78.12 11.12,-77.94 13.37,-77.6 16.16,-77.12 19.37,-76.53 22.84,-75.86 26.42,-75.14 30,-74.36 33.58,-73.53 37.23,-72.66 41.01,-71.73 44.93,-70.76 48.9,-69.71 52.88,-68.6 56.85,-67.4 60.86,-66.13 64.96,-64.77 69.2,-63.35 73.53,-61.89 77.88,-60.39 82.17,-58.87 86.37,-57.35 90.47,-55.82 94.48,-54.25 98.35,-52.64 102.09,-50.97 105.79,-49.24 109.66,-47.42 113.99,-45.5 118.96,-43.45 124.57,-41.24 130.61,-38.92 136.8,-36.64 144.52,-34.38" fill="none" stroke="url(#rainbowGradient)" stroke-width="2" stroke-linejoin="round" filter="url(#fuzzy)" />
    </g>
    
        <g id="lineNose">
        <path d="M -10.48,9.969999999999999 Q 11.54, 16.935 0.5299999999999994, -4.534000000000001" fill="none" stroke="black" stroke-width="3" stroke-linejoin="round" filter="url(#fuzzy)"></path>
        </g>
      
    <g id="mouth">
      <polyline points="-28.46,24.7 -27.75,25.57 -27.04,26.44 -26.33,27.3 -25.62,28.15 -24.92,28.99 -24.21,29.82 -23.51,30.65 -22.8,31.46 -22.1,32.27 -21.4,33.07 -20.7,33.85 -20,34.63 -19.3,35.4 -18.6,36.16 -17.91,36.91 -17.21,37.64 -16.52,38.37 -15.83,39.09 -15.14,39.79 -14.45,40.49 -13.76,41.17 -13.08,41.84 -12.4,42.5 -11.72,43.15 -11.04,43.78 -10.36,44.41 -9.68,45.02 -9.01,45.61 -8.34,46.2 -7.67,46.77 -7,47.33 -6.34,47.88 -5.68,48.41 -5.02,48.93 -4.36,49.43 -3.71,49.92 -3.05,50.4 -2.41,50.86 -1.76,51.31 -1.11,51.74 -0.47,52.16 0.17,52.56 0.8,52.95 1.43,53.32 2.06,53.67 2.69,54.01 3.31,54.33 3.93,54.64 4.55,54.93 5.17,55.2 5.78,55.46 6.38,55.7 6.99,55.92 7.59,56.13 8.18,56.32 8.78,56.48 9.37,56.64 9.95,56.77 10.53,56.88 11.11,56.98 11.69,57.06 12.26,57.12 12.83,57.15 13.39,57.17 13.95,57.18 14.5,57.16 15.05,57.12 15.6,57.06 16.14,56.98 16.68,56.88 17.21,56.76 17.74,56.62 18.26,56.46 18.78,56.27 19.3,56.07 19.81,55.84 20.31,55.59 20.81,55.32 21.31,55.03 21.8,54.72 22.29,54.38 22.77,54.02 23.24,53.64 23.71,53.23 24.18,52.81 24.64,52.35 25.1,51.88 25.55,51.38 25.99,50.86 26.43,50.31 26.86,49.74 27.29,49.14 27.71,48.52 28.13,47.88 28.54,47.21 28.95,46.51 29.35,45.79 29.74,45.04 30.13,44.27 30.51,43.47 30.13,44.27 29.74,45.04 29.35,45.79 28.95,46.51 28.54,47.21 28.13,47.88 27.71,48.52 27.29,49.14 26.86,49.74 26.43,50.31 25.99,50.86 25.55,51.38 25.1,51.88 24.64,52.35 24.18,52.81 23.71,53.23 23.24,53.64 22.77,54.02 22.29,54.38 21.8,54.72 21.31,55.03 20.81,55.32 20.31,55.59 19.81,55.84 19.3,56.07 18.78,56.27 18.26,56.46 17.74,56.62 17.21,56.76 16.68,56.88 16.14,56.98 15.6,57.06 15.05,57.12 14.5,57.16 13.95,57.18 13.39,57.17 12.83,57.15 12.26,57.12 11.69,57.06 11.11,56.98 10.53,56.88 9.95,56.77 9.37,56.64 8.78,56.48 8.18,56.32 7.59,56.13 6.99,55.92 6.38,55.7 5.78,55.46 5.16,55.2 4.55,54.93 3.93,54.64 3.31,54.33 2.69,54.01 2.06,53.67 1.43,53.32 0.8,52.95 0.17,52.56 -0.47,52.16 -1.11,51.74 -1.76,51.31 -2.41,50.86 -3.05,50.4 -3.71,49.92 -4.36,49.43 -5.02,48.93 -5.68,48.41 -6.34,47.88 -7,47.33 -7.67,46.77 -8.34,46.2 -9.01,45.61 -9.68,45.02 -10.36,44.41 -11.04,43.78 -11.72,43.15 -12.4,42.5 -13.08,41.84 -13.76,41.17 -14.45,40.49 -15.14,39.79 -15.83,39.09 -16.52,38.37 -17.21,37.64 -17.91,36.91 -18.6,36.16 -19.3,35.4 -20,34.63 -20.7,33.85 -21.4,33.07 -22.1,32.27 -22.8,31.46 -23.51,30.65 -24.21,29.82 -24.92,28.99 -25.62,28.15 -26.33,27.3 -27.04,26.44 -27.75,25.57" fill="rgb(102, 167, 204)" stroke="black" stroke-width="3" stroke-linejoin="round" filter="url(#fuzzy)" />
    </g>
  </svg>