<svg xmlns="http://www.w3.org/2000/svg" width="500" height="500" viewBox="-100 -100 200 200"><defs><clipPath id="c"><path d="m28.14 7.7-.18-.24-.22-.26-.25-.26-.29-.28-.31-.29-.34-.3-.37-.3-.39-.31-.42-.32-.45-.31-.47-.32-.48-.32-.51-.32-.53-.31-.55-.32-.62-.43-.64-.42-.66-.42-.69-.4-.7-.4-.73-.38-.75-.37-.76-.35-.78-.33-.79-.32-.81-.29-.82-.28-.83-.25-.84-.24-.85-.21-.86-.18-.86-.17-.87-.14-.87-.12-.88-.09-.87-.07-.88-.05-.88-.02h-.87l-.87.02-.87.04-.86.07-.86.08-.85.11-.84.12-.83.14-.82.16-.81.18-.8.19-.79.21-.77.22-.76.23-.75.24-.73.25-.72.27-.7.27-.68.27-.67.28-.65.29-.63.29-.62.29-.6.29-.58.29-.57.29-.54.28-.54.29-.51.28-.5.28-.49.28-.47.28-.46.27-.44.28-.43.26-.41.27-.39.26-.38.25-.37.25-.35.24-.33.24-1.76 2.64.37-.19.38-.19.39-.2.4-.2.41-.2.42-.21.43-.2.43-.21.45-.21.45-.21.47-.21.47-.21.48-.21.48-.21.5-.2.51-.21.52-.21.53-.21.54-.2.55-.21.56-.2.57-.19.58-.19.59-.18.59-.18.61-.17.62-.16.62-.15.63-.14.64-.13.65-.12.66-.11.67-.09.67-.08.68-.07.69-.05.7-.04.71-.02.71-.01.73.01.73.02.73.04.75.05.75.07.76.09.77.1.78.11.78.13.79.15.8.15.8.17.81.19.82.19.82.21.83.22.83.22.84.23.84.25.85.24.84.26.85.25.84.26.85.26.84.26.67.18.66.19.66.18.65.18.63.17.63.17.61.16.59.16.58.15.56.13.53.13.52.12.5.1.46.09.44.07"/></clipPath><clipPath id="b"><path d="m-27.92 7.84.08-.22.11-.23.16-.25.19-.26.23-.26.27-.27.3-.28.33-.28.36-.28.39-.28.42-.29.45-.27.47-.28.5-.27.51-.26.61-.43.62-.41.66-.4.67-.37.7-.36.72-.32.74-.31.76-.28.77-.25.79-.23.8-.2.82-.18.82-.14.84-.13.84-.09.85-.07.86-.04.86-.02.86.01.87.03.87.05.86.08.86.1.87.12.85.13.85.16.85.17.84.18.82.21.82.21.82.23.79.24.79.24.78.26.76.26.75.27.73.27.72.28.71.28.69.28.67.28.66.28.64.28.62.28.61.27.59.27.57.27.55.26.54.25.52.24.51.25.49.23.47.23.46.22.45.22.43.21.42.2.4.19.38.19.37.18.36.17.34.16.33.16.31.15 1.57-.39-.35-.29-.35-.3-.36-.3-.37-.3-.37-.3-.38-.31-.38-.31-.4-.3-.39-.31-.41-.31-.41-.31-.41-.3-.42-.3-.43-.3-.43-.3-.44-.3-.45-.3-.45-.29-.46-.29-.47-.28-.47-.28-.48-.27-.49-.26-.49-.25-.5-.24-.5-.22-.51-.21-.52-.2-.52-.18-.53-.17-.53-.14-.54-.13-.55-.11-.55-.09-.57-.07-.57-.05-.58-.03-.59-.01-.6.02-.61.03-.62.06-.64.08-.64.11-.66.12-.68.14-.68.17-.7.18-.72.2-.73.22-.75.24-.76.26-.78.27-.8.28-.81.3-.83.31-.85.31-.86.33-.88.33-.89.34-.91.34-.92.35-.93.34-.94.34-.95.34-.71.25-.7.24-.71.24-.69.23-.69.23-.68.21-.67.2-.65.2-.64.17-.62.17-.6.14-.58.13-.55.11-.52.08-.5.07"/></clipPath><filter id="a"><feTurbulence baseFrequency=".05" numOctaves="3" result="noise" type="noise"/><feDisplacementMap in="SourceGraphic" in2="noise" scale="2"/></filter></defs><rect width="100%" height="100%" x="-100" y="-100" fill="#F08080"/><path fill="wheat" stroke="#000" stroke-linejoin="round" stroke-width="1.667" d="m69.46-.02-.07 1.19.29.2-.41 3.11-.01 2.4-.09.71.23.02-.3.05-.35 5.71-.05-1.82-.04 2.6-.4 1.11-.19 2.25-.24.66.01.73-.08.42-.58 3.35-.2.5-.01.95-.28.75-.38 1.2-.29 1.61-.25-.39-.75 2.5-.66 2.55-.75 1.61-.02.75-.45 1.12-.32 1.61-.68 1.03.26-.32-.42 1.37-.52.82-1.7 3.38-.38 1.34-.24-.51.3.49-1.18 1.95-1.44 2.39-.19.63-.38 1.27-.17-.69-.2 1-1.4 2.26-.4.61-2.28 2.85.8-.65-1.07 1.52-1.21 1.15.03.18-1.38 1.42-.36 1.16.17-.32-2.51 2.4.84-.82-1.88 1.83-.9 1.11.26-.33-2.41 2.48-.7.59-.05.38-.94.84-1.79 1.4-.89.65-.89.91-2.14 1.39 1.6-.95-1.66.84-.01.45-3.19 1.85.84-.39-3.17 1.78.07-.1-1.1.78.8-.38-1.25.67-1.31.56-1.98.94-1.82.78-.21.02-1.2.81-1.51.59.23-.46-2.2.97-.4.03-1.9.61-.56.3-.66.23-2.4.49 1.68-.4-3.16.52 1.01-.25-2.71.88-.82.09-.47-.16-2.94.51.29-.32-2.74.13-.57.15.08.25L-.45 86l.82.29-2.46.06-1.54-.41-.94-.09-.41.16-1.77-.15-.81-.36-1.47-.01-.85-.03-1.26-.32-.81-.22-2.36-.57.32-.01-.22-.09-.51.19-1.22-.55-1.99-.72-1.12-.41-1.37-.32-.24-.01-1.74-.68-.89-.73-1.76-.51.75.18-1.73-.89-.26-.17-2.34-1.42-1.87-.71-1.52-1.01.56-.04-1.53-.67-.55-.27-1.67-.85 1.24.69-1-.95-3.63-2.46 1.11.89-1.31-1.08-1.75-1.73-.37-.19.37.1-.7-.3-1.89-1.78-1.61-1.74-.65-.94-1.05-.85-.29-.42-1.21-1.55-.4-.6-.51-.41-.35-.46-1.37-1.76-.75-.61v-.39l-1.02-1.01v-.67l-2.69-3.78-.44-.95.53 1.55-.84-2.12-.84-1.01-1.23-2.22-.27-.33-.97-1.98.6.97-.98-1.96-1.42-3.25-.67-1.15.55 1.39-.46-1.08-.52-1.93-1.32-2.4-.42-1.8-.8-1.71.23.55.06-.48-1.46-4.42-.05.26.49.67-.36-.76-.88-3.52-.39-.82-.26-1.23-.12-.54-.49-3.46.18.59-.73-2.81.03-.93-.34-3.12-.15.54.17.42-.55-2.68.03-.15-.19-4.93.13.56-.24-2.04-.13-.57-.08-.68.24-.41-.23-3.13.19-1.48-.17-1.73.12-.52.16-1.37-.05-.6-.19-.44.43-2.07.05-1.28.23-1.47.51-3.66-.13-.03.38-1.16.14-1.74.13-1.01.02.77.57-3.76.23-1.78-.19 1.17.48-1.8.36-1.71.84-2.31.04-1.23.32-.85.86-2.18.57-1.69-.02-.11.2-.84.59-1.52 1.13-2.27.32-.66-.42.41.61-1.77 1.15-1.52.81-1.85.74-1.91-.66 1.35.73-1.64.43-.16 1.52-2.54.79-1.89.58-1.12-.17.25.84-1 1.16-1.99 1.55-2.18-.85 1.17.75-1.22.48-.54 2.13-3.08.1.59.38-.92.61-.75 1.48-1.78.2-.42 1.6-1.2.55-1.02.32-.5 2.09-1.52-.89.58 2-1.89.93-.48.2-.4 1.24-1.09 2.02-1.31-1.06.5 1.83-1.1-.39-.28 1.98-.99 2.77-1.65-.65.04 1.12-.42 1.53-.89.76-.95 2.33-1.03-.36.22 2.54-1.13-.27.15.74-.49 1.4-.29.44-.6 1.68-.34.68-.42.32-.36 1.72-.61.94-.01 1.23-.63.43.22 2.05-.41 1.38-.36-.32-.24 2.61-.27.36-.05 1.97-.19.23.01.72-.48 2.26.08.34-.13.21.04 1.73-.15 1.44.01 1.74.19.56-.28 1.87.48-1.02-.45 3.08.44 1.5.44-1.57-.52 3.54.53-.26-.08.78.12 1.59.32 1.05.51.49.24.64-.29 2.05.62 1.41.31.19.17 1.74.78 1.46.73-.51-.23L23-81.22l.47-.26.86 1.02 1.49.64 2.08.98.33.26.98.59-.23-.55 2.53 1.6-.73-.5 1.78 1.23 2.12 1.46-.53-.18 1.25.52-.26.21L37-73.08l-.08.1 1.96 1.53-.61-.43 2.98 2.31.25.36 1.35 1.12.35.38.2.71 1.96 1.55-.1-.06 1.61 2.14.73.4.6.92.81 1.49 2.11 1.79-1.57-2.03 1.39 1.92.85 1.54.78.78 1.78 2.48.17.71 1.16 1.49-.13.27 1.19 1.25.21 1.08.16-.21.72 1.75.82 1.38.27.54.93 1.89.71 1.89.19.34.49 1.27.07.33.8 1.81.66 1.32-.01-.23.71 1.85.26 1.39.84 1.48.45 2.24.17.86.76 2.39.08-.06.31 1.76.29.83-.16-.28.59 1.68.72 3.19.06 1.74-.09-.14.7 3.18.18 1.92.12.06.2.45.22 1.71-.19 1.45.31 1.46-.2.87.26 2.09.27.63-.18.22.17 2.92-.15 1.29-.07 1.19" filter="url(#a)"/><path fill="#fff" d="m-27.92 7.84.08-.22.11-.23.16-.25.19-.26.23-.26.27-.27.3-.28.33-.28.36-.28.39-.28.42-.29.45-.27.47-.28.5-.27.51-.26.61-.43.62-.41.66-.4.67-.37.7-.36.72-.32.74-.31.76-.28.77-.25.79-.23.8-.2.82-.18.82-.14.84-.13.84-.09.85-.07.86-.04.86-.02.86.01.87.03.87.05.86.08.86.1.87.12.85.13.85.16.85.17.84.18.82.21.82.21.82.23.79.24.79.24.78.26.76.26.75.27.73.27.72.28.71.28.69.28.67.28.66.28.64.28.62.28.61.27.59.27.57.27.55.26.54.25.52.24.51.25.49.23.47.23.46.22.45.22.43.21.42.2.4.19.38.19.37.18.36.17.34.16.33.16.31.15 1.57-.39-.35-.29-.35-.3-.36-.3-.37-.3-.37-.3-.38-.31-.38-.31-.4-.3-.39-.31-.41-.31-.41-.31-.41-.3-.42-.3-.43-.3-.43-.3-.44-.3-.45-.3-.45-.29-.46-.29-.47-.28-.47-.28-.48-.27-.49-.26-.49-.25-.5-.24-.5-.22-.51-.21-.52-.2-.52-.18-.53-.17-.53-.14-.54-.13-.55-.11-.55-.09-.57-.07-.57-.05-.58-.03-.59-.01-.6.02-.61.03-.62.06-.64.08-.64.11-.66.12-.68.14-.68.17-.7.18-.72.2-.73.22-.75.24-.76.26-.78.27-.8.28-.81.3-.83.31-.85.31-.86.33-.88.33-.89.34-.91.34-.92.35-.93.34-.94.34-.95.34-.71.25-.7.24-.71.24-.69.23-.69.23-.68.21-.67.2-.65.2-.64.17-.62.17-.6.14-.58.13-.55.11-.52.08-.5.07" filter="url(#a)" transform="translate(38.22 -28.77)"/><path fill="#fff" d="m28.14 7.7-.18-.24-.22-.26-.25-.26-.29-.28-.31-.29-.34-.3-.37-.3-.39-.31-.42-.32-.45-.31-.47-.32-.48-.32-.51-.32-.53-.31-.55-.32-.62-.43-.64-.42-.66-.42-.69-.4-.7-.4-.73-.38-.75-.37-.76-.35-.78-.33-.79-.32-.81-.29-.82-.28-.83-.25-.84-.24-.85-.21-.86-.18-.86-.17-.87-.14-.87-.12-.88-.09-.87-.07-.88-.05-.88-.02h-.87l-.87.02-.87.04-.86.07-.86.08-.85.11-.84.12-.83.14-.82.16-.81.18-.8.19-.79.21-.77.22-.76.23-.75.24-.73.25-.72.27-.7.27-.68.27-.67.28-.65.29-.63.29-.62.29-.6.29-.58.29-.57.29-.54.28-.54.29-.51.28-.5.28-.49.28-.47.28-.46.27-.44.28-.43.26-.41.27-.39.26-.38.25-.37.25-.35.24-.33.24-1.76 2.64.37-.19.38-.19.39-.2.4-.2.41-.2.42-.21.43-.2.43-.21.45-.21.45-.21.47-.21.47-.21.48-.21.48-.21.5-.2.51-.21.52-.21.53-.21.54-.2.55-.21.56-.2.57-.19.58-.19.59-.18.59-.18.61-.17.62-.16.62-.15.63-.14.64-.13.65-.12.66-.11.67-.09.67-.08.68-.07.69-.05.7-.04.71-.02.71-.01.73.01.73.02.73.04.75.05.75.07.76.09.77.1.78.11.78.13.79.15.8.15.8.17.81.19.82.19.82.21.83.22.83.22.84.23.84.25.85.24.84.26.85.25.84.26.85.26.84.26.67.18.66.19.66.18.65.18.63.17.63.17.61.16.59.16.58.15.56.13.53.13.52.12.5.1.46.09.44.07" filter="url(#a)" transform="translate(-33.7 -26.47)"/><g fill="none" stroke="#000" transform="translate(38.22 -28.77)"><path stroke-linejoin="round" stroke-width="1.667" d="m-25.88 8.63-.46.08-.39.03h-.34l-.28-.05-.22-.07-.17-.11-.12-.13-.07-.16-.01-.18.02-.2.08-.22.11-.23.16-.25.19-.26.23-.26.27-.27.3-.28.33-.28.36-.28.39-.28.42-.29.45-.27.47-.28.5-.27.51-.26.61-.43.62-.41.66-.4.67-.37.7-.36.72-.32.74-.31.76-.28.77-.25.79-.23.8-.2.82-.18.82-.14.84-.13.84-.09.85-.07.86-.04.86-.02.86.01.87.03.87.05.86.08.86.1.87.12.85.13.85.16.85.17.84.18.82.21.82.21.82.23.79.24.79.24.78.26.76.26.75.27.73.27.72.28.71.28.69.28.67.28.66.28.64.28.62.28.61.27.59.27.57.27.55.26.54.25.52.24.51.25.49.23.47.23.46.22.45.22.43.21.42.2.4.19.38.19.37.18.36.17.34.16.33.16.31.15.3.13.28.13.27.12.26.12.24.1.23.1.22.09.2.08.19.07.18.06" filter="url(#a)"/><path stroke-linejoin="round" stroke-width="2.222" d="m-28.15 7.5-.01.27.06.22.12.18.18.14.24.11.29.08.34.04.38.02.42-.01.46-.04.5-.07.52-.08.55-.11.58-.13.6-.14.62-.17.64-.17.65-.2.67-.2.68-.21.69-.23.69-.23.71-.24.7-.24.71-.25.95-.34.94-.34.93-.34.92-.35.91-.34.89-.34.88-.33.86-.33.85-.31.83-.31.81-.3.8-.28.78-.27.76-.26.75-.24.73-.22.72-.2.7-.18.68-.17.68-.14.66-.12.64-.11.64-.08.62-.06.61-.03.6-.02.59.01.58.03.57.05.57.07.55.09.55.11.54.13.53.14.53.17.52.18.52.2.51.21.5.22.5.24.49.25.49.26.48.27.47.28.47.28.46.29.45.29.45.3.44.3.43.3.43.3.42.3.41.3.41.31.41.31.39.31.4.3.38.31.38.31.37.3.37.3.36.3.35.3.35.29.33.29.33.28.32.28.32.27.3.27.3.27.29.26.28.25.28.25.26.24" filter="url(#a)"/><circle cx="-18.651" cy="3.711" r="4.862" clip-path="url(#b)" filter="url(#a)"/><circle cx="-19.821" cy="5.296" r="4.664" clip-path="url(#b)" filter="url(#a)"/><circle cx="-15.636" cy="3.016" r="4.39" clip-path="url(#b)" filter="url(#a)"/><circle cx="-16.246" cy="4.306" r="3.632" clip-path="url(#b)" filter="url(#a)"/><circle cx="-17.946" cy="2.311" r="3.318" clip-path="url(#b)" filter="url(#a)"/><circle cx="-17.281" cy="5.276" r="3.034" clip-path="url(#b)" filter="url(#a)"/><circle cx="-17.201" cy="1.881" r="4.42" clip-path="url(#b)" filter="url(#a)"/><circle cx="-19.076" cy="2.271" r="3.918" clip-path="url(#b)" filter="url(#a)"/><circle cx="-18.726" cy="2.061" r="3.46" clip-path="url(#b)" filter="url(#a)"/><circle cx="-18.256" cy="5.051" r="4.662" clip-path="url(#b)" filter="url(#a)"/></g><g fill="none" stroke="#000" transform="translate(-33.7 -26.47)"><path stroke-linejoin="round" stroke-width="2.222" d="M27.86 8.93h.23l.17-.03.14-.06.08-.09.05-.12v-.14l-.04-.17-.08-.19-.11-.21-.16-.22-.18-.24-.22-.26-.25-.26-.29-.28-.31-.29-.34-.3-.37-.3-.39-.31-.42-.32-.45-.31-.47-.32-.48-.32-.51-.32-.53-.31-.55-.32-.62-.43-.64-.42-.66-.42-.69-.4-.7-.4-.73-.38-.75-.37-.76-.35-.78-.33-.79-.32-.81-.29-.82-.28-.83-.25-.84-.24-.85-.21-.86-.18-.86-.17-.87-.14-.87-.12-.88-.09-.87-.07-.88-.05-.88-.02h-.87l-.87.02-.87.04-.86.07-.86.08-.85.11-.84.12-.83.14-.82.16-.81.18-.8.19-.79.21-.77.22-.76.23-.75.24-.73.25-.72.27-.7.27-.68.27-.67.28-.65.29-.63.29-.62.29-.6.29-.58.29-.57.29-.54.28-.54.29-.51.28-.5.28-.49.28-.47.28-.46.27-.44.28-.43.26-.41.27-.39.26-.38.25-.37.25-.35.24-.33.24-.32.23-.31.22-.29.21-.28.21-.26.2-.25.2-.23.19-.23.18-.2.17-.2.17" filter="url(#a)"/><path stroke-linejoin="round" stroke-width="2.222" d="m28.65 8.59-.02.15-.08.12-.13.1-.18.07-.22.05-.26.02h-.31l-.34-.02-.38-.04-.41-.06-.44-.07-.46-.09-.5-.1-.52-.12-.53-.13-.56-.13-.58-.15-.59-.16-.61-.16-.63-.17-.63-.17-.65-.18-.66-.18-.66-.19-.67-.18-.84-.26-.85-.26-.84-.26-.85-.25-.84-.26-.85-.24-.84-.25-.84-.23-.83-.22-.83-.22-.82-.21-.82-.19-.81-.19-.8-.17-.8-.15-.79-.15-.78-.13-.78-.11-.77-.1-.76-.09-.75-.07-.75-.05-.73-.04-.73-.02-.73-.01-.71.01-.71.02-.7.04-.69.05-.68.07-.67.08-.67.09-.66.11-.65.12-.64.13-.63.14-.62.15-.62.16-.61.17-.59.18-.59.18-.58.19-.57.19-.56.2-.55.21-.54.2-.53.21-.52.21-.51.21-.5.2-.48.21-.48.21-.47.21-.47.21-.45.21-.45.21-.43.21-.43.2-.42.21-.41.2-.4.2-.39.2-.38.19-.37.19-.36.19-.35.18-.35.18-.33.18-.32.17-.31.16-.31.17-.29.16-.29.15-.27.15" filter="url(#a)"/><circle cx="-14.378" cy="5.348" r="3.846" clip-path="url(#c)" filter="url(#a)"/><circle cx="-13.328" cy="2.693" r="4.446" clip-path="url(#c)" filter="url(#a)"/><circle cx="-14.293" cy="5.733" r="3.044" clip-path="url(#c)" filter="url(#a)"/><circle cx="-15.743" cy="6.063" r="3.012" clip-path="url(#c)" filter="url(#a)"/><circle cx="-14.438" cy="5.623" r="4.682" clip-path="url(#c)" filter="url(#a)"/><circle cx="-14.823" cy="4.408" r="3.59" clip-path="url(#c)" filter="url(#a)"/><circle cx="-16.233" cy="6.758" r="3.996" clip-path="url(#c)" filter="url(#a)"/><circle cx="-11.958" cy="4.713" r="4.554" clip-path="url(#c)" filter="url(#a)"/><circle cx="-15.098" cy="3.068" r="4.526" clip-path="url(#c)" filter="url(#a)"/><circle cx="-16.473" cy="4.688" r="4.354" clip-path="url(#c)" filter="url(#a)"/></g><g fill="none" stroke="#4682B4" stroke-linejoin="round" stroke-width="2"><path d="m58.65-46.36.3.77.11.82-.27.42-.72-.09-1.17-.58-1.62-1.05-2.1-1.49-2.61-1.97-3.15-2.45-3.71-2.95-4.29-3.47-4.92-4.06-5.57-4.7-6.29-5.41-7.21-6.21m27.42 10.69.37.49.54.66.59.69.49.61.33.51.12.34-.13.15-.43-.11-.77-.4-1.14-.7-1.52-.97-1.89-1.23-2.28-1.49-2.7-1.82-3.17-2.2-3.72-2.7-4.39-3.3" filter="url(#a)"/><path d="m41.25-69.57.35.45.16.42-.23.28-.64.13-1.07-.04-1.6-.25-2.19-.5-2.84-.78-3.53-1.1-4.25-1.47-5.05-1.87-5.9-2.28-6.73-2.63-7.58-2.93" filter="url(#a)"/><path d="m38.88-71.45.36.32.94.81.79.75.52.6.28.47.08.37-.1.28-.31.18-.55.06-.81-.1-1.11-.29-1.43-.51-1.79-.73-2.15-.96-2.5-1.15-2.88-1.33-3.26-1.52-3.69-1.76-4.17-2.06-4.64-2.4-5.08-2.73" filter="url(#a)"/><path d="m41.25-69.57.54.56.71.71.73.77.75.8.76.82.73.81.67.75.57.67.43.52.27.36.07.17h-.12l-.31-.17-.49-.31-.67-.45-.85-.65-1.08-.87-1.35-1.17-1.65-1.5-2.01-1.88-2.44-2.29-2.73-2.62m24.05 26.8.64 1.13.55 1.09.48 1.08.37.9.22.65.07.38-.06.13-.19-.1-.34-.35-.51-.61-.72-.91-.95-1.25-1.21-1.64-1.51-2.11-1.82-2.63-2.14-3.22-2.46-3.82-2.66-4.35M29.21-77.99l.45.04.86.45.88.54.8.55.65.48.4.33.14.17-.14.02-.39-.12-.66-.26-.96-.41-1.29-.59-1.68-.82-2.15-1.11-2.7-1.45-3.26-1.78m-42.4.56 1.06-.35 1.9-.04 2.47.2 3.04.4 3.59.62 4.11.83 4.57 1.05 4.97 1.22 5.3 1.36 5.54 1.43 5.73 1.48 5.88 1.54 5.98 1.58 5.98 1.63" filter="url(#a)"/><path d="m34.68-74.75-.12.03.12.27.06.4-.07.46-.28.51-.5.53-.79.53-1.12.53-1.51.49-1.95.46-2.39.4-2.86.36-3.32.33-3.79.3-4.26.26-4.76.21-5.24.13-5.74.02-6.28-.09-6.87-.18-7.46-.22-7.96-.28m86.76 15.22.22.82-.02.81-.42.7-.84.62-1.27.57-1.7.55-2.13.56-2.57.56-3.03.55-3.52.49-4.04.4-4.58.3-5.12.17-5.66.07-6.19-.03-6.74-.11-7.3-.17-7.88-.2-8.47-.24-9.04-.34-9.57-.52-10.16-.59M47.6-62.97l.54 1.02.32.93-.14.65-.56.55-.9.6-1.21.69-1.57.75-2 .71-2.47.6-3 .47-3.52.31-4.06.19-4.59.1-5.11.03h-5.64l-6.17-.02-6.71-.05-7.25-.11-7.81-.23-8.4-.37-9.07-.43-9.84-.34" filter="url(#a)"/><path d="m57.11-49.49.59 1.42.33 1.03.08.81-.19.61-.49.34-.82.04-1.14-.25-1.47-.53-1.79-.79-2.15-1.06-2.52-1.3-2.91-1.54-3.32-1.81-3.75-2.09-4.18-2.41-4.63-2.79-5.1-3.21-5.58-3.63-6.08-4.07-6.58-4.49-7.1-4.91" filter="url(#a)"/><path d="m-19.12-83.11 1.63-.29 1.84.09 2.2.37 2.61.59 3.01.79 3.36.97 3.67 1.16 3.95 1.35 4.22 1.54 4.42 1.69 4.6 1.82 4.73 1.89 4.81 1.93 4.83 1.91 4.82 1.85 4.78 1.76 4.73 1.61" filter="url(#a)"/><path d="m-19.12-83.11 1.54-.36 1.52-.11 1.69.05 1.93.17 2.13.27 2.33.35 2.47.45 2.61.51 2.7.59 2.79.65 2.85.71 2.91.77 2.96.84 3 .88 3.02.91 3.02.91 3.01.9 2.94.86 2.85.83 2.73.81 2.62.79 2.56.79 2.46.77" filter="url(#a)"/><path d="m-19.12-83.11 1.45-.42 1.27-.31 1.25-.26 1.29-.26 1.3-.26 1.28-.25 1.21-.24 1.13-.22 1.01-.18.87-.14.71-.11.51-.07.29-.03.07.01-.19.06-.46.12-.76.18-1.08.23-1.49.29-1.94.33-2.35.36m-23.82 11.7L-15-74.2l-.66 4.13 3.46 2.84 4.92.69 3.3-.09 3.51.62 6.17 2.09 8.57 3.21 8.3 3.14 5.21 1.83 1.07.11-2.09-1.06-3.19-1.26-2.5-.87-1.1-.55-.12-.53.15-.34.65.66 3.13 2.17 7.52 2.58 8.96-.21-.91-7.08-26.31-22.46" filter="url(#a)"/><path d="M-20.12-82.33 25.12-63.4l9.06 4.89-4.07-.54-7.26-.64-8.58-.46L4.2-61.61l-10.48-2.95-8.24-4.03-3.72-4.3.98-3.88 3.88-3 5.15-1.87 6.85-.45 10.83 2.33 17.88 9.39 32.52 26.44" filter="url(#a)"/><path d="M58.92-45.82 40.3-60.05l-18.73-1.56-15.84-.45-8.2-1.08-3.26-2.12-1.03-2.82 1.21-2.53 3.7-1.43 4.16-.4.89-.21-5.07-.64-10.39-.44-11.64 1-6.5 1.56 7.27-2.98L7.91-85.46" filter="url(#a)"/><path d="m47.6-62.97-61.7 1.99-14.85-5.67 1.4-5.18 3.79-2.35 1.37-.2-1 .52-1.79.47-1.31.34-.03.28 1.97.19 4.82.19 8.31.65L.04-70.2l12.09 1.86 7.75-.1-.48-4.63-3.16-6.88 12.74 1.41" filter="url(#a)"/><path d="m49.01-60.56-16.06.7-23.37-8.2-11.77-5.55-6.32-1.05-6.46 1.82-6.1 2.16-2.75.79 1.97-.87 5.25-1.87 5.85-2.13 4.89-1.83 4.49-.9 5.57.91 6.8 2.9 5.25 2.46.47-3.03 11.51-4.33" filter="url(#a)"/><path d="M-42.9-67.91 2.64-62.8l5.52 1.73-3.47 1.5-2.17.52 2.92-.65 6.44-1.61 6.6-1.86L23-64.46l1.62-.42-1.24-.08-3.2-.39-3.25-.69-.84-.04 3.21 1.8 6.96 4.05 8.69 5.36 7.21 4.64.09.76-18.92-7.39-59.46-17.1" filter="url(#a)"/><path d="m-51.85-57.3 56.3-9.33 22.78 1.44 4.79 2.23-5.23.93-8.51.51-6.49.62-2.51.29.03-.93-.02-2.6L8-67.91l-1.81-3.64-.81-2.13.7.03 1.13 1.61L7-70.6l-2.19-.75-3.15-3.71-2.84-4.79-.97-2.77 15.68-1.72" filter="url(#a)"/><path d="M64.57-32.48 11.43-55.71l-10-10.79-1.4-2.59 2.49 1.6 3.84 2.73 3.54 2.08 3.35.76 4.05-.37 5.13-.76 5.6-.42 4.67.01 2.08-.11-1.69-.97-5.58-2.16-8.2-3.06-8.38-3.27-5.73-2.75-.78-1.66 5.04-.04 10.53 2.52 15.56 6.75 16.24 10.87" filter="url(#a)"/><path d="m-44.1-66.97 66.45 17.72 14.48.23-6.5-3.89-11.27-2.94-10.14-1.47-8.14-1.23-6.15-2.06-3.68-2.97-.69-3.22 1.82-2.7 2.56-1.78 1.18-.91-1.36-.32-3.25.09-2.96.58.01 1.23 4.96 1.92L3.24-66.4l12.08 1.82 7.31-.1-5.67-3.69-18.7-7.9-4.06-9.86" filter="url(#a)"/><path d="M49.55-60.8 18.68-73.09l-9.32.74 2.16 3.56 6.31 3.1 6.68 1.85 4.53.32 1.04-1.14-2.45-2.01-4.93-1.81-6.03-.5-6.25 1.37-6.68 2.75-8.02 2.52-9.29.3-7.93-2.93-2.44-5.06 4.17-4.28 2.86-.35-27.19 7.69" filter="url(#a)"/><path d="m-6.75-85.66 28.72 9.81 12.49 6.92 5.78 4.72.7 1.66-2.73-.37-4.07-.97-3.35-.55-1.53.25-.29.87-.74 1.02-2.57.82-4.28.69-4.31.88-2.43 1.29.02 1.3 1.11.29-.1-1.69-2.46-3.41-4.15-3.13-5.71-.92-7.15-1.85L17.63-83.7" filter="url(#a)"/><path d="m-3.54-86.05 17.23 7.76L6.2-74.7l-7.21 1.07-1.46.31.92 1.1.55 2.11.19 2.45.93 2.01 2.14 1.23 2.89.52 2.88.08 2.5-.18 2.2-.41 2.22-.65 2.42-.74 2.41-.55 1.78-.21-.09-.17-3.49-.86-7.55-2.3-9.44-3.92-6.35-4.99-.65-4.81 4.75-2.68" filter="url(#a)"/><path d="M62.11-38.29 37.85-54.26 15.52-67.83 5.1-75.82 1.4-79.4l-.03-.86 2.32.48 3.16.76 2.16.31-.1-.33-2.46-.7-3.99-.53-4.5.08-4.24.83-3.53 1.44-2.37 1.78-.63 1.82 1.43 1.56 2.92.83 2.67-.43.44-1.76-1.74-1.85 1.23.89 16.48 7.89L60.75-41.7" filter="url(#a)"/><path d="m24.33-80.46 2.52 8.8-15-4-8.39-2.63 1.56 1.72 7.37 4.66 7.7 4.75 4.68 2.69 1.29.14-.76-1.51-1.47-1.86-1.67-1.39-2.73-.94-6.59-.74-14.6.18-24.16 2.49-18.5 1.63" filter="url(#a)"/><path d="M54.35-54.08 25.6-71.04 6.61-78.7l-8.27-2.58-1.93 1.07 2.35 3.88 6.16 5.48 9.1 5.31 9.68 3.25 7.03.13 2.17-2.44-2.28-2.91-3.5-.92-.56 1.88 3.57 1.79.07-5.28-18.21-15.05" filter="url(#a)"/><path d="m28.98-78.54-34 9.57 7.15 3.83 6.43 1.35-.58-1.22-2.7-2.28-2.06-1.99-1.87-1.09-2.11-.05-.84 1.15 3.09 2.55 8.58 3.74 12.25 3.83 11.17 2.47 7.59 1.96 9.5 6.73 12.19 11.02" filter="url(#a)"/><path d="m-34.15-74.95 28.98-4.87 11.63-.58 1.05.39-1.13 1.57-1.12 2.71-2.59 3.06-5.5 2.4-7.89 1.22-8.25.1-6.43-.58-3.35-.81-.11-.78 2.73-.72 5.05-.81 7.05-1.01 8.91-.79 10.46.92 9.07 4.75-4.83 8.04-56.35-3.09" filter="url(#a)"/><path d="M46.87-63.37 48.4-59l-7.34-1.83-14.39-5.51-14.35-3.89-9.36-1.45-3.45-.5.71-.71 2.71-.98 3.31-.74 3.13-.18 2.21.2.53.08-1.44-.35-2.62-.65-2.12-.47-.06.19 1.92.88 1.42 1.09-3.01.5-10-.69-14.65-1.46-10.98-1.04.81-2.31" filter="url(#a)"/><path d="m-12.75-84.55-4.44 1.95.61 2.95 8.63 2.09 11.89 1.2 10.2 1.02 6.4 1.37 2.59 1.71-.56 1.63-2.91 1.09-4.22.58-4.1.7-2.57 1.56-.02 2.72 2.96 3.44 5.92 3.35 8.4 2.75 9.71 2.28 8.77 1.93 4.72.33-2.43-4.62-10.75-12.77-11.72-13.17" filter="url(#a)"/><path d="m51.12-58.77-38.31-9.96-19.99 1.03.48 1.63 6.64.09 3.95-1.83.65-3.06.28-2.93 2.24-1.64 4.47-.01 5.11 1.1 3.39 1.22-.03.51-3.45-.42-4.92-.93-3.8-.77-1.48-.05-.9.99-3.4 2.07-4.11 2.74 10.34 4.38 50.64 18.79" filter="url(#a)"/><path d="m-49.24-60.38 37.54-13.34 6.08-1.26-4.39.5-6.3.23-6.1.62-4.46 1.01-1.36.57 2.09-.36 4.61-.67 5.91.33 6.71 2.11 7.34 2.91 6.64 1.2 2.55-2.64-5.06-5.55L-9.3-79.7l-3.45-4.85" filter="url(#a)"/><path d="m19.56-82.75 8.4 24.48-5.9 3.39-3.2-2.01-2.79-3.19-2.13-3.02-.9-2.83-.26-2.73-.49-2.24-.98-1.16-1.23.01-1.27.36-1.49-.61-2.43-2.34-4.55-3.51-6.43-3.19-2.18-2.21 14.61-2.43" filter="url(#a)"/><path d="m17.63-83.7-6.02-.21 1.41 2.37 4.08 2.51 1.38.89-.87-.11-.54.45 1.02 1.75 1.8 2.26.9 1.18-1.1-.9-3.2-2.47-5.43-2.72-8.85-2.24-13.13-.99-18.46 4.06" filter="url(#a)"/><path d="m-23.64-81.1 3.87 19.96 12.01 4.28 3.33-2.2 2.39-1.42 5.19.88 6.65 1.67 6.17.85 5.66-.41 6.15-.9 6.52-.12 4.72 1.36-.26 1.96-7.44.16-13.77-3.11-18.84-2.84-50.56 3.68" filter="url(#a)"/><path d="m-19.44-82.75 30.65 23.32-8.15-4.27-8.88-6.45-1.6-3.41 6.08-1.12 10.25-.12 9.86.35 6.69.97 3.58 1.85 1.9 2.3.64 1.17-2.43-1.72-8.45-3.76-18.69-.59-46.11 7.26" filter="url(#a)"/><path d="m-8.72-85.47-15.06 14.03 9.53 5.3 7.24 3.16 2.72 1.44 2.04-.36 3.09-2.01 4.09-2.96 4.57-2.8 4.35-1.74 3.55-.34 2.78.84 2.62 1.44 2.51 1.17.79-.15-3.82-2.28-10.24-4.05-15.61-3.2-19.37 2.57-25.31 13.36" filter="url(#a)"/><path d="M62.76-37.2 51-53.63l-7.96-6.22-6.61-3.33-6.87-3.47-7.33-3.69-7.06-3.46-5.77-2.95-4.07-2.2-2.65-1.27-1.65-.29-.65.67.59 1.5 1.74 2.15 2 2.56.83 2.59-1.25 2.11-2.73 1.04-2.32-.5-.2-2.21 1.88-3.54 1.76-3.6L0-79.13l-14.86 4.3-36.61 16.94" filter="url(#a)"/><path d="M-29.38-77.87 26.8-56.89l16.59 1.67 1.94-4-2.72-4.31-3.29-2.83-2.58-.9-2.64.67-4.38 1.47-7 1.65-8.6 1.52-7.64 1.39-4.22 1.19-.24.69 1.8-.27.79-1.4-2.1-2.04-4-1.62-2.66-.24 1.56.98 5.8.46 7.04-2.23 3.52-5.95-20.29-14.66" filter="url(#a)"/><path d="m31.51-76.94-23.9-.7-7.4 1.25-5.87.63-.81-.63 3.97-1.49 4.97-1.58 2.61-1.14-.92-.32-3.76.78-4.76 2.15-3.13 3.53 1.53 4.44L2.19-66l13.24 1.58 12.36-1.93 7.49-1.03 20.27 15.77" filter="url(#a)"/><path d="m-46.57-64.25 32.29.03 22.39 3.64 4.14.45-4.2-1.59-5.94-2.95-4.67-3.67-2.06-3.41.84-2.31 3.09-.92 4.14.19 3.98.84 3.15 1.25 2.29 1.63 1.76 1.81 1.29 1.35.75.16 1.23-.72 4.91.67 11.63 5.45 14.87 9.54 2.48-4.53" filter="url(#a)"/><path d="m-48.86-61.3 60.06-.23 26.17 6.72 3.31 2.42-11.83-1.94-18.55-3.38-17.14-2.66-10.11-1.42-1-.8 6.89-.91L.37-64.69l11.9-1.11 8.78-.59 3.4.03-2.28.45-6.01.6-6.2.26-3.62-1.52-.66-4.95 5.24-5.83 26 4.37" filter="url(#a)"/><path d="m-29.38-77.87 54.55 26.63 9.14 3.74-1.04-2.62-2.71-4.08-5.26-4.73-7.35-4.58-6.96-3.59-4.34-2.36-1.15-1.27 1.31-.34 2.63.57 3.15 1.4 3.29 1.93 3.16 2.04 2.57 1.81 1.28 1.31-.75.38-2.82-1.23-3.14-3.09.52-3.7 6.95-2.02 6.12-1.27-16.73-11.64" filter="url(#a)"/><path d="M63.47-35.35 45.31-57.96l-12.23-2.21-18.15 1.22-20.06-.51-16.31-1.7-9.99-1.71-3.28-1.32 2.96-1 8.16-.74 11.41-.41 11.83-.18 9.36-.27 5.17-.8 1.23-1.44-.73-1.53-.17-.54 2.15 1.67 4.71 4.3 5.16 5.38.57 1.99-5.26-5.7 23.52-1.99" filter="url(#a)"/><path d="m17.82-83.53 16.99 16.42 3.66 7.2-2.09 3.56-8.97-1.94-12.73-5.42-11.69-5.63-7.26-4.01-2.13-2.16 1.18-.88 1.49-.19-.54.11-2.93.12-3.65-.2-1.88-.75 1.69-1.3 5.28-1.54 7.24-1.4 6.95-.97 5.01-.45 1.51-.34-8.54-2.6" filter="url(#a)"/><path d="M55.68-51.88 18.91-65.82l-29.82-3.49-14.4-1.9-3.91-1.44 1.58-.54 4.55.2 6.5.27 7.63-.15 7.67-.35L5-73.24l3.33.55-.68.67-4.11.1-4.41-.58.77-.24 11.78 2.23 23.98 7.95 23.26 16.74" filter="url(#a)"/><path d="M49.01-60.56 21.87-68.4 4.33-72.77l-2.72-3.7 1.45-2.38-.79-.62-3.55 1.15-3.98 2.56-2.47 3.23-.8 2.9-.43 1.76-1.41.38L-13-68l-2.63-.7-.67-.59 2.68-.77 5.51-1.38 5.79-1.96 3.44-1.92-.05-.95-8.85 2.44-41.08 12.53" filter="url(#a)"/><path d="m-42.9-67.91 15.88-5.77 19.34 2.04 19.83 2.68 12.82 1.37 3.98-.36-2.74-1.66-5.76-1.76-5.26-.49-2.68 1.34-.14 2.43.65 1.94-.58.09-1.99-2.02L9.2-71.2l1.73-2.93 3.2-2.34-1-2.6-6.65-3.39 7.05-1.88" filter="url(#a)"/><path d="m-16.46-83.73 24.1 1.94 1.15-.42-4.46.66L.12-78.4-2-73.16l.22 5.62 1.61 4.03 1.66 1.17.98-1.81.61-3.85 1.2-4.37 2.4-3.59 3.13-2.13 2.33-.7.04.34-1.97.98L9.74-76l7 2.3 16.25 3.79 9.86 1.82" filter="url(#a)"/><path d="m28.23-78.58-30.54 1.74-1.07 3.81 3.5.9-.23-.91-2.2-.55-1.41.8.22 2.11 1.27 2.89 1.38 2.99.95 2.44.66 1.6 1.02 1.01 2.34 1.02 4.55 1.56 7.11 1.97 8.64 1.47 7.36-.47 2.19-3.58-5.66-6.68-12.32-8.06-12.08-6.32.96-1.28 30.53 5.71" filter="url(#a)"/><path d="m-21.8-81.99 28.22 15.2-6.38-.22-8.53-1.54-3.83.59 2.45 2.28 6.63 2.2 6.8.5 3.87-1.75.36-3.45-1.73-4.1-1.89-3.82-.79-3.01.58-2.06 1.4-1.14 1.38-.31 1.08.53 2.15 1.87 6.48 4.4 13.47 8.17 16.75 10.2 4.27-1.43" filter="url(#a)"/></g><g fill="none" stroke="#000"><circle cx="7.932" cy="29.924" r="1.572" filter="url(#a)"/><circle cx="9.84" cy="30.316" r="2.982" filter="url(#a)"/><circle cx="9.1" cy="29.54" r="1.208" filter="url(#a)"/><circle cx="9.276" cy="28.108" r="2.544" filter="url(#a)"/><circle cx="8.252" cy="28.32" r="1.51" filter="url(#a)"/><circle cx="9.744" cy="27.912" r="2.882" filter="url(#a)"/><circle cx="7.556" cy="29.432" r="1.316" filter="url(#a)"/><circle cx="8.464" cy="28.6" r="2.294" filter="url(#a)"/><circle cx="8.452" cy="30.696" r="1.88" filter="url(#a)"/><circle cx="8.612" cy="31.1" r="2.514" filter="url(#a)"/><circle cx="-10.612" cy="34.918" r="1.86" filter="url(#a)"/><circle cx="-13.416" cy="32.882" r="2.906" filter="url(#a)"/><circle cx="-13.176" cy="34.102" r="1.014" filter="url(#a)"/><circle cx="-10.676" cy="34.834" r="1.284" filter="url(#a)"/><circle cx="-11.212" cy="33.326" r="1.052" filter="url(#a)"/><circle cx="-12.352" cy="31.93" r="2.15" filter="url(#a)"/><circle cx="-11.208" cy="33.866" r="2.682" filter="url(#a)"/><circle cx="-9.824" cy="32.846" r="1.816" filter="url(#a)"/><circle cx="-11.26" cy="35.238" r="2.692" filter="url(#a)"/><circle cx="-12.12" cy="33.782" r="1.934" filter="url(#a)"/></g><path fill="#D77F8C" stroke="#000" stroke-linejoin="round" stroke-width="3" d="m31.91 52.47-.1.79-.23.78.07-.09-.05-.2-.22 1 .02-.1-.07.24-.06.12-.37.45-.62.55-.68.86-.17.01.17.02-.38.32-.7.32-.47.32-1.69 1.07-.64.3 1.12-.65-1.63.94-1.04.37-.29.18.52-.24-2.03.77 1.24-.41-1.56.59-.68.17-.31.09-1.78.53-.59.15-1.81.47-1.01.19.55-.11-.13.07-1.4.3-1.75.32-.72.11h-.24l-.36.1-2.13.26.01.01-2.49.28-.61.06-2.89.22h-.22l1.13-.06-.44.03-3.18.14-1.51.03-1.36.01h.42-1.34l-.96-.01-2.35-.07.25.01-1.03-.07-2.32-.15-1.52-.11 1.49.13-1.26-.11h.06l-.65-.07-1.17-.14-3.61-.46.53.09-2.36-.46 1.35.26-1.13-.22-2.22-.4.9.17-2.56-.57.94.19-2.48-.62.91.27-.88-.29-1.33-.46-.52-.16-1.23-.41-.01.07-.39-.26-1.45-.53-1.7-.92.93.54-.22-.1-1.86-1.26-.03.09-.96-.82.46.49-.82-.72-.37-.43-.57-.65-.23-.12-.08-.34.2.42-.06-.45-.63-.99.04.09-.14-.23-.18-.67.3-.68-.31.42.43-1.23-.12.87.2-1.44.06-.13.32-.34.15-.34-.33.42.78-1.2.24-.12.58-.64-.27.3.72-.53.15-.12.4-.42.84-.51.07.08 1.15-.68.39-.2.39-.29-.35.17 2.88-1.24.56-.17-1.79.66 2.26-.77.76-.25.65-.24.78-.23 1.3-.36.42-.15 1.09-.2 1.53-.38 1.14-.23-1.2.27 2.88-.54.72-.11 1.44-.22-1.01.16 3.03-.41-1.08.15 2.21-.26h-.05l.83-.07 2.73-.22-1 .08 1.65-.1.86-.05 1.21-.05 1.57-.04.88-.01h2.25l1.1.02h-.41l2.31.08-.16-.02 1.17.07h.1l1.13.07 2.78.25-.41-.06.77.1h.19l2.1.27h.08l3.08.47 1.19.22.11.06.67.12v.01l.24.01 1.87.44 1.13.35.1.01 1.86.59.7.25-1.49-.53 2.66.87-.77-.31.62.33 1.44.52-.42-.16 2.47 1.27-.78-.45.35.2.56.29.81.59.54.21.65.52.78.84-.96-.81.58.52.86.86-.22-.2.87 1.09.15.56-.24-.42.15.67-.04-.21.17 1.23" filter="url(#a)"/></svg>