<svg viewBox="-100 -100 200 200" xmlns="http://www.w3.org/2000/svg" width="500" height="500" id="face-svg">
    <defs>
      <clipPath id="leftEyeClipPath">
        <polyline points="26.22,0.41 25.9,0.32 25.55,0.22 25.18,0.13 24.79,0.03 24.38,-0.07 23.96,-0.17 23.51,-0.27 23.05,-0.37 22.57,-0.47 22.07,-0.57 21.56,-0.66 21.03,-0.76 20.49,-0.85 19.94,-0.94 19.37,-1.03 18.74,-1.16 18.1,-1.28 17.44,-1.4 16.76,-1.51 16.06,-1.62 15.35,-1.72 14.62,-1.82 13.88,-1.91 13.13,-1.99 12.36,-2.07 11.58,-2.14 10.79,-2.2 10,-2.26 9.19,-2.3 8.37,-2.35 7.55,-2.38 6.73,-2.41 5.9,-2.42 5.07,-2.44 4.23,-2.44 3.4,-2.44 2.56,-2.43 1.73,-2.42 0.9,-2.4 0.07,-2.37 -0.75,-2.34 -1.56,-2.3 -2.37,-2.25 -3.17,-2.21 -3.97,-2.15 -4.75,-2.09 -5.52,-2.03 -6.28,-1.96 -7.02,-1.89 -7.76,-1.82 -8.47,-1.74 -9.18,-1.66 -9.86,-1.58 -10.54,-1.49 -11.19,-1.41 -11.83,-1.32 -12.44,-1.23 -13.04,-1.14 -13.63,-1.04 -14.19,-0.95 -14.73,-0.86 -15.25,-0.76 -15.76,-0.67 -16.24,-0.58 -16.7,-0.49 -17.15,-0.39 -17.57,-0.3 -17.98,-0.21 -18.37,-0.12 -18.75,-0.03 -19.1,0.06 -19.44,0.15 -19.75,0.24 -20.05,0.33 -20.33,0.42 -20.59,0.5 -20.84,0.59 -21.06,0.67 -21.27,0.76 -22.05,1.74 -21.73,1.78 -21.4,1.82 -21.05,1.85 -20.69,1.89 -20.32,1.93 -19.93,1.96 -19.52,1.99 -19.11,2.03 -18.67,2.06 -18.23,2.09 -17.77,2.11 -17.3,2.14 -16.82,2.17 -16.32,2.19 -15.81,2.21 -15.28,2.24 -14.74,2.26 -14.19,2.28 -13.62,2.3 -13.04,2.31 -12.44,2.33 -11.83,2.34 -11.21,2.36 -10.58,2.37 -9.94,2.38 -9.28,2.39 -8.62,2.39 -7.95,2.4 -7.26,2.4 -6.57,2.41 -5.87,2.41 -5.17,2.41 -4.46,2.41 -3.74,2.4 -3.01,2.4 -2.28,2.39 -1.55,2.39 -0.81,2.38 -0.07,2.37 0.67,2.36 1.42,2.35 2.16,2.34 2.91,2.33 3.66,2.31 4.41,2.3 5.16,2.29 5.91,2.27 6.65,2.26 7.4,2.24 8.15,2.23 8.89,2.21 9.63,2.2 10.36,2.18 11.09,2.17 11.82,2.15 12.55,2.14 13.26,2.13 13.98,2.11 14.68,2.1 15.38,2.09 16.08,2.08 16.76,2.07 17.44,2.06 18.11,2.05 18.68,2.04 19.24,2.02 19.79,2.01 20.34,2 20.87,1.98 21.39,1.97 21.9,1.96 22.39,1.94 22.88,1.93 23.34,1.91 23.8,1.9 24.23,1.88 24.65,1.87 25.05,1.85 25.43,1.83" />
      </clipPath>
      <clipPath id="rightEyeClipPath">
        <polyline points="-27.16,0.06 -26.79,-0.02 -26.4,-0.11 -25.98,-0.2 -25.55,-0.28 -25.09,-0.37 -24.62,-0.46 -24.12,-0.55 -23.61,-0.63 -23.07,-0.72 -22.52,-0.8 -21.95,-0.88 -21.37,-0.96 -20.77,-1.03 -20.15,-1.1 -19.52,-1.17 -18.84,-1.29 -18.14,-1.39 -17.42,-1.49 -16.68,-1.59 -15.91,-1.67 -15.13,-1.75 -14.33,-1.82 -13.51,-1.89 -12.68,-1.95 -11.83,-1.99 -10.97,-2.04 -10.1,-2.07 -9.22,-2.1 -8.33,-2.12 -7.43,-2.13 -6.53,-2.14 -5.62,-2.14 -4.72,-2.13 -3.81,-2.12 -2.9,-2.1 -2,-2.07 -1.09,-2.04 -0.2,-2.01 0.69,-1.96 1.57,-1.92 2.44,-1.87 3.3,-1.81 4.15,-1.76 4.99,-1.69 5.81,-1.63 6.61,-1.56 7.4,-1.49 8.17,-1.42 8.93,-1.35 9.66,-1.27 10.38,-1.19 11.07,-1.11 11.74,-1.04 12.39,-0.96 13.02,-0.88 13.63,-0.79 14.21,-0.71 14.77,-0.63 15.31,-0.55 15.82,-0.47 16.31,-0.4 16.78,-0.32 17.22,-0.24 17.64,-0.17 18.04,-0.09 18.42,-0.02 18.78,0.06 19.12,0.13 19.43,0.2 19.73,0.27 20,0.34 20.25,0.41 20.49,0.47 20.7,0.54 20.89,0.6 21.06,0.67 21.21,0.73 21.34,0.79 21.46,0.85 19.87,1.4 19.51,1.44 19.14,1.47 18.76,1.5 18.36,1.53 17.95,1.56 17.52,1.59 17.09,1.61 16.64,1.64 16.18,1.67 15.71,1.69 15.23,1.71 14.73,1.74 14.23,1.76 13.72,1.78 13.2,1.8 12.66,1.81 12.12,1.83 11.56,1.85 10.99,1.86 10.41,1.88 9.82,1.89 9.22,1.9 8.62,1.91 8.01,1.92 7.39,1.93 6.77,1.94 6.14,1.94 5.51,1.95 4.88,1.95 4.24,1.95 3.6,1.95 2.96,1.95 2.31,1.95 1.67,1.95 1.02,1.94 0.37,1.94 -0.27,1.93 -0.92,1.93 -1.57,1.92 -2.22,1.91 -2.87,1.9 -3.52,1.89 -4.17,1.88 -4.82,1.87 -5.47,1.86 -6.13,1.85 -6.78,1.83 -7.44,1.82 -8.09,1.81 -8.75,1.79 -9.41,1.78 -10.08,1.77 -10.74,1.76 -11.41,1.74 -12.08,1.73 -12.76,1.72 -13.43,1.71 -14.12,1.7 -14.8,1.69 -15.49,1.68 -16.18,1.67 -16.87,1.66 -17.57,1.65 -18.26,1.64 -18.82,1.63 -19.38,1.62 -19.92,1.61 -20.47,1.6 -21.01,1.59 -21.54,1.58 -22.06,1.57 -22.58,1.56 -23.09,1.55 -23.59,1.54 -24.07,1.53 -24.54,1.52 -25,1.51 -25.45,1.5 -25.87,1.49" />
      </clipPath>
      <filter id="fuzzy">
        <feTurbulence id="turbulence" baseFrequency="0.05" numOctaves="3" type="noise" result="noise" />
        <feDisplacementMap in="SourceGraphic" in2="noise" scale="2" />
      </filter>
      <linearGradient id="rainbowGradient" x1="0%" y1="0%" x2="100%" y2="0%">
        <stop offset="0%" style="stop-color: rgb(117, 44, 170); stop-opacity: 1" />
        <stop offset="50%" style="stop-color: rgb(128, 168, 166); stop-opacity: 1" />
        <stop offset="100%" style="stop-color: rgb(58, 121, 57); stop-opacity: 1" />
      </linearGradient>
    </defs>
    <rect x="-100" y="-100" width="100%" height="100%" fill="rgb(166, 213, 242)" />
    <polyline id="faceContour" points="66.55,1.81 66.56,1.27 66.44,3.5 66.25,3.26 66.17,7.02 66.15,6.89 66.09,9.46 65.92,10.28 65.97,9.92 65.69,11.94 65.45,13.82 65.4,13.36 65.03,15.99 64.95,17.68 64.74,18.67 64.73,17.69 64.41,20.94 64.1,21.93 63.34,25.36 63.63,23.9 63.24,25.6 62.63,27.25 62.26,28.28 62.51,28.1 61.54,31.36 61.82,29.86 60.55,33.92 61.05,32.82 60.68,33.45 60.11,35.24 59.22,37.68 59.13,37.87 57.92,40.62 57.94,40.53 57.71,41.04 57.33,41.82 56.77,42.82 54.74,47.04 54.31,47.53 54.53,47.01 53.73,48.33 52.82,49.86 52.6,50.12 51.32,52.43 51.12,52.71 50.2,54.19 50.5,53.41 49.46,55.04 48.09,57.09 48.81,55.88 47.46,57.83 45.91,59.54 45.17,60.35 43.86,61.78 43.29,62.46 43.02,62.65 43.37,62.42 41.36,64.35 40.45,65.03 39.51,66.03 38.91,66.86 38.29,67.38 37.72,67.76 36.15,69.08 35.77,69.49 34.12,70.46 34.74,70.14 33.36,71.39 30.98,72.9 30.17,73.34 31.09,72.85 27.78,74.67 28.43,74.56 26.28,75.8 26.69,75.25 25.05,76.44 23.98,76.92 23.9,76.62 22.93,77.21 21.05,78.28 20.62,78.29 18.62,79.28 18.8,78.89 18.82,79 15.84,80.02 14.09,80.56 13.05,80.85 14.29,80.62 12.15,81.17 10.47,81.19 10.86,81.48 10.52,81.23 9.76,81.67 7.07,82.03 7.6,81.78 6.07,82.09 4.71,82.03 4.03,82.41 1.39,82.51 0.45,82.46 -1.1,82.57 -0.34,82.56 -3.31,82.26 -1.85,82.14 -4.37,82.37 -4.27,82.16 -4.8,82.16 -6.62,82.16 -6.99,82.03 -10.71,81.15 -10.89,81.35 -11.56,81.26 -13.62,80.39 -12.76,80.82 -14.14,80.57 -15.46,80.06 -16.5,79.59 -16.04,79.84 -17.73,79.45 -19.49,78.56 -19.52,78.76 -21.8,77.75 -22.62,77.27 -21.92,77.6 -22.93,77.42 -25.57,76.04 -25.39,76.21 -25.73,75.83 -27.31,74.99 -28.47,74.53 -29.84,73.7 -30.53,72.89 -33.43,71.16 -33.37,71.36 -33.68,70.91 -34.94,69.9 -35.9,69.21 -35.61,69.59 -37.7,67.83 -38.62,67.14 -40.81,65.2 -40.91,65.05 -40.86,65 -41.44,64.09 -43.15,62.48 -42.95,62.99 -43.93,61.59 -45.02,60.36 -45.56,60.08 -46.23,59.21 -47.28,58.07 -48.19,56.83 -48.98,55.78 -48.81,56.25 -50.84,52.92 -50.81,53.11 -50.27,53.88 -51.48,51.84 -51.75,51.47 -52.42,50.92 -53.46,49.13 -54.68,46.83 -55.19,45.99 -54.96,46.19 -56.34,43.36 -56.76,43.09 -56.91,42.37 -58.04,40.49 -57.91,40.49 -58.97,38.18 -58.88,37.97 -60.25,34.81 -59.91,35.69 -60.64,33.96 -61.67,30.8 -61.13,32.05 -61.69,30.38 -62.69,27.97 -62.57,27.95 -63.06,26.01 -63.32,24.53 -64.11,22.5 -64.04,22.4 -64.11,21.46 -64.56,20.13 -64.92,17.94 -64.86,18.35 -65.19,16.28 -65.65,13.36 -65.38,14.7 -65.68,12.91 -65.82,10.94 -66.05,10.48 -65.95,8.84 -65.93,9.3 -66.37,4.68 -66.32,4.81 -66.37,1.6 -66.48,3.34 -66.36,0.76 -66.43,-1.11 -66.55,-1.76 -66.55,-2.26 -66.47,-2.42 -66.45,-5.78 -66.16,-7.98 -66.31,-5.75 -65.96,-10.13 -65.93,-10.24 -65.73,-11.62 -65.4,-13.8 -65.4,-14.69 -65.33,-15.56 -64.86,-18.55 -64.81,-17.47 -64.37,-19.71 -64.15,-22.02 -64.13,-21.98 -63.8,-22.51 -63.34,-24.36 -62.98,-25.89 -63.17,-26 -62.25,-28.74 -61.89,-29.87 -61.22,-32.28 -60.88,-33.46 -61.14,-32.58 -60.12,-34.81 -60.16,-34.97 -60.23,-34.64 -58.48,-38.71 -58.79,-38.05 -59.03,-37.99 -57.35,-41.31 -57.56,-41.32 -56.31,-43.5 -56.46,-43.47 -55.55,-45.21 -54.32,-47.67 -55.04,-46.42 -53.63,-48.47 -52.68,-50.46 -53.41,-48.99 -52.44,-50.37 -51.45,-51.86 -51.01,-53.06 -49.64,-54.63 -49.33,-54.98 -49.2,-55.53 -47.87,-57.26 -47.06,-57.93 -45.61,-60.16 -44.13,-61.47 -43.62,-62.14 -43.32,-62.39 -43.35,-62.55 -43.68,-62.15 -41.11,-64.62 -41.56,-64.41 -39.94,-65.72 -38.13,-67.23 -38.55,-67.06 -36.46,-68.86 -38.21,-67.58 -36.46,-68.81 -35.23,-69.98 -34.98,-69.89 -32.91,-71.53 -32.67,-71.57 -30.33,-73.48 -31.29,-72.69 -28.17,-74.41 -27.61,-74.79 -27.56,-74.82 -27.06,-75.26 -25.79,-75.94 -24.33,-76.78 -22.93,-77.1 -22.23,-77.51 -22.43,-77.39 -21.86,-77.89 -18.76,-78.79 -19.89,-78.47 -17.1,-79.37 -15.25,-80.13 -16.54,-79.69 -14.95,-80.32 -12.91,-80.55 -13.18,-80.85 -10.6,-81.05 -9.15,-81.78 -9.93,-81.62 -9.12,-81.53 -7.62,-81.96 -5.74,-82.17 -6.66,-82.09 -3.75,-82.23 -2.37,-82.3 -0.8,-82.34 -0.93,-82.17 -0.86,-82.24 1.59,-82.15 3.05,-82.15 3.02,-82.41 4.53,-81.99 5.94,-81.98 7.22,-81.79 7.32,-81.86 8.63,-81.45 9.69,-81.26 11.39,-81.24 11.35,-81.02 11.82,-81.13 14.4,-80.15 14.08,-80.27 16.51,-79.76 16.27,-79.92 16.87,-79.51 19.36,-78.7 19.44,-78.82 19.02,-78.65 20.3,-78.28 22.83,-77.43 23.87,-76.54 24.58,-76.4 25.01,-76.23 25.43,-75.95 27.59,-74.8 27.49,-74.92 28.62,-74.5 29.85,-73.68 30.62,-72.89 31.47,-72.63 32.51,-71.71 35.25,-69.87 35.1,-69.66 35.21,-69.89 36.04,-69.06 38.43,-67.05 37.96,-67.49 38.84,-67.02 39.08,-66.61 39.46,-66.09 41.31,-64.38 41.85,-63.94 43.38,-62.16 43.66,-61.77 45.84,-59.33 44.24,-61.64 45.73,-59.71 47.42,-57.42 47.34,-57.8 49.24,-55.28 49.12,-55.67 50.1,-54.23 49.89,-54.47 50.83,-53.02 52.41,-50.69 52.43,-50.66 51.81,-51.41 54.6,-47.05 55.54,-45.46 55.08,-46.21 55.73,-45.1 56.5,-43.28 56.3,-43.56 56.5,-43.56 57.78,-40.58 57.69,-40.83 59.46,-37.06 59.43,-36.8 59.9,-35.94 60.22,-34.43 60.64,-33.43 61.26,-32.07 61.75,-30.29 61.77,-30.32 61.91,-30.03 62.64,-27.17 62.63,-27.73 63.08,-25.98 63.57,-23.9 63.43,-24.36 64.37,-20.45 64.83,-18.39 64.7,-17.9 64.59,-18.49 65.17,-16.61 65.29,-15.14 65.53,-12.64 65.42,-13.74 65.8,-12.34 65.69,-12.09 65.9,-11.24 66.22,-6.62 66.29,-7.71 66.29,-6.25 66.39,-3.12 66.51,-2.12 66.44,-0.22 66.55,1.81 66.56,1.27" fill="rgb(223, 105, 32)" stroke="black" stroke-width="1.6666666666666665" stroke-linejoin="round" filter="url(#fuzzy)" />
    <g transform="translate(25.14 -20.82)">
      <polyline id="rightCountour" points="-27.16,0.06 -26.79,-0.02 -26.4,-0.11 -25.98,-0.2 -25.55,-0.28 -25.09,-0.37 -24.62,-0.46 -24.12,-0.55 -23.61,-0.63 -23.07,-0.72 -22.52,-0.8 -21.95,-0.88 -21.37,-0.96 -20.77,-1.03 -20.15,-1.1 -19.52,-1.17 -18.84,-1.29 -18.14,-1.39 -17.42,-1.49 -16.68,-1.59 -15.91,-1.67 -15.13,-1.75 -14.33,-1.82 -13.51,-1.89 -12.68,-1.95 -11.83,-1.99 -10.97,-2.04 -10.1,-2.07 -9.22,-2.1 -8.33,-2.12 -7.43,-2.13 -6.53,-2.14 -5.62,-2.14 -4.72,-2.13 -3.81,-2.12 -2.9,-2.1 -2,-2.07 -1.09,-2.04 -0.2,-2.01 0.69,-1.96 1.57,-1.92 2.44,-1.87 3.3,-1.81 4.15,-1.76 4.99,-1.69 5.81,-1.63 6.61,-1.56 7.4,-1.49 8.17,-1.42 8.93,-1.35 9.66,-1.27 10.38,-1.19 11.07,-1.11 11.74,-1.04 12.39,-0.96 13.02,-0.88 13.63,-0.79 14.21,-0.71 14.77,-0.63 15.31,-0.55 15.82,-0.47 16.31,-0.4 16.78,-0.32 17.22,-0.24 17.64,-0.17 18.04,-0.09 18.42,-0.02 18.78,0.06 19.12,0.13 19.43,0.2 19.73,0.27 20,0.34 20.25,0.41 20.49,0.47 20.7,0.54 20.89,0.6 21.06,0.67 21.21,0.73 21.34,0.79 21.46,0.85 19.87,1.4 19.51,1.44 19.14,1.47 18.76,1.5 18.36,1.53 17.95,1.56 17.52,1.59 17.09,1.61 16.64,1.64 16.18,1.67 15.71,1.69 15.23,1.71 14.73,1.74 14.23,1.76 13.72,1.78 13.2,1.8 12.66,1.81 12.12,1.83 11.56,1.85 10.99,1.86 10.41,1.88 9.82,1.89 9.22,1.9 8.62,1.91 8.01,1.92 7.39,1.93 6.77,1.94 6.14,1.94 5.51,1.95 4.88,1.95 4.24,1.95 3.6,1.95 2.96,1.95 2.31,1.95 1.67,1.95 1.02,1.94 0.37,1.94 -0.27,1.93 -0.92,1.93 -1.57,1.92 -2.22,1.91 -2.87,1.9 -3.52,1.89 -4.17,1.88 -4.82,1.87 -5.47,1.86 -6.13,1.85 -6.78,1.83 -7.44,1.82 -8.09,1.81 -8.75,1.79 -9.41,1.78 -10.08,1.77 -10.74,1.76 -11.41,1.74 -12.08,1.73 -12.76,1.72 -13.43,1.71 -14.12,1.7 -14.8,1.69 -15.49,1.68 -16.18,1.67 -16.87,1.66 -17.57,1.65 -18.26,1.64 -18.82,1.63 -19.38,1.62 -19.92,1.61 -20.47,1.6 -21.01,1.59 -21.54,1.58 -22.06,1.57 -22.58,1.56 -23.09,1.55 -23.59,1.54 -24.07,1.53 -24.54,1.52 -25,1.51 -25.45,1.5 -25.87,1.49" fill="white" stroke="white" stroke-width="0" stroke-linejoin="round" filter="url(#fuzzy)" />
    </g>
    <g transform="translate(-24.220000000000002 -21.360000000000003)">
      <polyline id="leftCountour" points="26.22,0.41 25.9,0.32 25.55,0.22 25.18,0.13 24.79,0.03 24.38,-0.07 23.96,-0.17 23.51,-0.27 23.05,-0.37 22.57,-0.47 22.07,-0.57 21.56,-0.66 21.03,-0.76 20.49,-0.85 19.94,-0.94 19.37,-1.03 18.74,-1.16 18.1,-1.28 17.44,-1.4 16.76,-1.51 16.06,-1.62 15.35,-1.72 14.62,-1.82 13.88,-1.91 13.13,-1.99 12.36,-2.07 11.58,-2.14 10.79,-2.2 10,-2.26 9.19,-2.3 8.37,-2.35 7.55,-2.38 6.73,-2.41 5.9,-2.42 5.07,-2.44 4.23,-2.44 3.4,-2.44 2.56,-2.43 1.73,-2.42 0.9,-2.4 0.07,-2.37 -0.75,-2.34 -1.56,-2.3 -2.37,-2.25 -3.17,-2.21 -3.97,-2.15 -4.75,-2.09 -5.52,-2.03 -6.28,-1.96 -7.02,-1.89 -7.76,-1.82 -8.47,-1.74 -9.18,-1.66 -9.86,-1.58 -10.54,-1.49 -11.19,-1.41 -11.83,-1.32 -12.44,-1.23 -13.04,-1.14 -13.63,-1.04 -14.19,-0.95 -14.73,-0.86 -15.25,-0.76 -15.76,-0.67 -16.24,-0.58 -16.7,-0.49 -17.15,-0.39 -17.57,-0.3 -17.98,-0.21 -18.37,-0.12 -18.75,-0.03 -19.1,0.06 -19.44,0.15 -19.75,0.24 -20.05,0.33 -20.33,0.42 -20.59,0.5 -20.84,0.59 -21.06,0.67 -21.27,0.76 -22.05,1.74 -21.73,1.78 -21.4,1.82 -21.05,1.85 -20.69,1.89 -20.32,1.93 -19.93,1.96 -19.52,1.99 -19.11,2.03 -18.67,2.06 -18.23,2.09 -17.77,2.11 -17.3,2.14 -16.82,2.17 -16.32,2.19 -15.81,2.21 -15.28,2.24 -14.74,2.26 -14.19,2.28 -13.62,2.3 -13.04,2.31 -12.44,2.33 -11.83,2.34 -11.21,2.36 -10.58,2.37 -9.94,2.38 -9.28,2.39 -8.62,2.39 -7.95,2.4 -7.26,2.4 -6.57,2.41 -5.87,2.41 -5.17,2.41 -4.46,2.41 -3.74,2.4 -3.01,2.4 -2.28,2.39 -1.55,2.39 -0.81,2.38 -0.07,2.37 0.67,2.36 1.42,2.35 2.16,2.34 2.91,2.33 3.66,2.31 4.41,2.3 5.16,2.29 5.91,2.27 6.65,2.26 7.4,2.24 8.15,2.23 8.89,2.21 9.63,2.2 10.36,2.18 11.09,2.17 11.82,2.15 12.55,2.14 13.26,2.13 13.98,2.11 14.68,2.1 15.38,2.09 16.08,2.08 16.76,2.07 17.44,2.06 18.11,2.05 18.68,2.04 19.24,2.02 19.79,2.01 20.34,2 20.87,1.98 21.39,1.97 21.9,1.96 22.39,1.94 22.88,1.93 23.34,1.91 23.8,1.9 24.23,1.88 24.65,1.87 25.05,1.85 25.43,1.83" fill="white" stroke="white" stroke-width="0" stroke-linejoin="round" filter="url(#fuzzy)" />
    </g>
    <g transform="translate(25.14 -20.82)">
      <polyline id="rightUpper" points="-29.44,0.73 -29.34,0.69 -29.2,0.64 -29.04,0.58 -28.85,0.52 -28.63,0.45 -28.39,0.38 -28.12,0.31 -27.82,0.23 -27.5,0.15 -27.16,0.06 -26.79,-0.02 -26.4,-0.11 -25.98,-0.2 -25.55,-0.28 -25.09,-0.37 -24.62,-0.46 -24.12,-0.55 -23.61,-0.63 -23.07,-0.72 -22.52,-0.8 -21.95,-0.88 -21.37,-0.96 -20.77,-1.03 -20.15,-1.1 -19.52,-1.17 -18.84,-1.29 -18.14,-1.39 -17.42,-1.49 -16.68,-1.59 -15.91,-1.67 -15.13,-1.75 -14.33,-1.82 -13.51,-1.89 -12.68,-1.95 -11.83,-1.99 -10.97,-2.04 -10.1,-2.07 -9.22,-2.1 -8.33,-2.12 -7.43,-2.13 -6.53,-2.14 -5.62,-2.14 -4.72,-2.13 -3.81,-2.12 -2.9,-2.1 -2,-2.07 -1.09,-2.04 -0.2,-2.01 0.69,-1.96 1.57,-1.92 2.44,-1.87 3.3,-1.81 4.15,-1.76 4.99,-1.69 5.81,-1.63 6.61,-1.56 7.4,-1.49 8.17,-1.42 8.93,-1.35 9.66,-1.27 10.38,-1.19 11.07,-1.11 11.74,-1.04 12.39,-0.96 13.02,-0.88 13.63,-0.79 14.21,-0.71 14.77,-0.63 15.31,-0.55 15.82,-0.47 16.31,-0.4 16.78,-0.32 17.22,-0.24 17.64,-0.17 18.04,-0.09 18.42,-0.02 18.78,0.06 19.12,0.13 19.43,0.2 19.73,0.27 20,0.34 20.25,0.41 20.49,0.47 20.7,0.54 20.89,0.6 21.06,0.67 21.21,0.73 21.34,0.79 21.46,0.85 21.55,0.91 21.62,0.97 21.67,1.02 21.71,1.08 21.73,1.13 21.73,1.18 21.71,1.24 21.67,1.29 21.62,1.33 21.55,1.38" fill="none" stroke="black" stroke-width="1.6666666666666665" stroke-linejoin="round" filter="url(#fuzzy)" />
      <polyline id="rightLower" points="-28.85,1.35 -28.69,1.37 -28.49,1.39 -28.26,1.4 -28,1.42 -27.7,1.43 -27.38,1.44 -27.04,1.46 -26.67,1.47 -26.28,1.48 -25.87,1.49 -25.45,1.5 -25,1.51 -24.54,1.52 -24.07,1.53 -23.59,1.54 -23.09,1.55 -22.58,1.56 -22.06,1.57 -21.54,1.58 -21.01,1.59 -20.47,1.6 -19.92,1.61 -19.38,1.62 -18.82,1.63 -18.26,1.64 -17.57,1.65 -16.87,1.66 -16.18,1.67 -15.49,1.68 -14.8,1.69 -14.12,1.7 -13.43,1.71 -12.76,1.72 -12.08,1.73 -11.41,1.74 -10.74,1.76 -10.08,1.77 -9.41,1.78 -8.75,1.79 -8.09,1.81 -7.44,1.82 -6.78,1.83 -6.13,1.85 -5.47,1.86 -4.82,1.87 -4.17,1.88 -3.52,1.89 -2.87,1.9 -2.22,1.91 -1.57,1.92 -0.92,1.93 -0.27,1.93 0.37,1.94 1.02,1.94 1.67,1.95 2.31,1.95 2.96,1.95 3.6,1.95 4.24,1.95 4.88,1.95 5.51,1.95 6.14,1.94 6.77,1.94 7.39,1.93 8.01,1.92 8.62,1.91 9.22,1.9 9.82,1.89 10.41,1.88 10.99,1.86 11.56,1.85 12.12,1.83 12.66,1.81 13.2,1.8 13.72,1.78 14.23,1.76 14.73,1.74 15.23,1.71 15.71,1.69 16.18,1.67 16.64,1.64 17.09,1.61 17.52,1.59 17.95,1.56 18.36,1.53 18.76,1.5 19.14,1.47 19.51,1.44 19.87,1.4 20.21,1.37 20.54,1.34 20.85,1.3 21.15,1.26 21.44,1.23 21.71,1.19 21.96,1.15 22.21,1.11 22.43,1.08 22.65,1.04" fill="none" stroke="black" stroke-width="2.2222222222222223" stroke-linejoin="round" filter="url(#fuzzy)" />
      <circle r="3.914" cx="19.42873268912227" cy="-0.005577383054930607" stroke="black" fill="none" stroke-width="1.0" filter="url(#fuzzy)" clip-path="url(#rightEyeClipPath)" /><circle r="4.466" cx="20.328732689122273" cy="2.9144226169450693" stroke="black" fill="none" stroke-width="1.0" filter="url(#fuzzy)" clip-path="url(#rightEyeClipPath)" /><circle r="3.5620000000000003" cx="18.62373268912227" cy="1.9094226169450694" stroke="black" fill="none" stroke-width="1.0" filter="url(#fuzzy)" clip-path="url(#rightEyeClipPath)" /><circle r="3.27" cx="21.56873268912227" cy="2.4044226169450695" stroke="black" fill="none" stroke-width="1.0" filter="url(#fuzzy)" clip-path="url(#rightEyeClipPath)" /><circle r="3.644" cx="21.24373268912227" cy="-1.0155773830549304" stroke="black" fill="none" stroke-width="1.0" filter="url(#fuzzy)" clip-path="url(#rightEyeClipPath)" /><circle r="3.73" cx="17.99873268912227" cy="-0.5755773830549304" stroke="black" fill="none" stroke-width="1.0" filter="url(#fuzzy)" clip-path="url(#rightEyeClipPath)" /><circle r="3.33" cx="18.418732689122272" cy="-1.0105773830549305" stroke="black" fill="none" stroke-width="1.0" filter="url(#fuzzy)" clip-path="url(#rightEyeClipPath)" /><circle r="4.554" cx="21.088732689122274" cy="2.5644226169450697" stroke="black" fill="none" stroke-width="1.0" filter="url(#fuzzy)" clip-path="url(#rightEyeClipPath)" /><circle r="3.464" cx="17.643732689122274" cy="-1.0705773830549306" stroke="black" fill="none" stroke-width="1.0" filter="url(#fuzzy)" clip-path="url(#rightEyeClipPath)" /><circle r="3.332" cx="20.81873268912227" cy="1.5244226169450696" stroke="black" fill="none" stroke-width="1.0" filter="url(#fuzzy)" clip-path="url(#rightEyeClipPath)" />
      </g>
    <g transform="translate(-24.220000000000002 -21.360000000000003)">
      <polyline id="leftUpper" points="28.12,1.12 28.06,1.08 27.96,1.03 27.83,0.97 27.68,0.9 27.5,0.83 27.29,0.76 27.06,0.68 26.81,0.59 26.53,0.5 26.22,0.41 25.9,0.32 25.55,0.22 25.18,0.13 24.79,0.03 24.38,-0.07 23.96,-0.17 23.51,-0.27 23.05,-0.37 22.57,-0.47 22.07,-0.57 21.56,-0.66 21.03,-0.76 20.49,-0.85 19.94,-0.94 19.37,-1.03 18.74,-1.16 18.1,-1.28 17.44,-1.4 16.76,-1.51 16.06,-1.62 15.35,-1.72 14.62,-1.82 13.88,-1.91 13.13,-1.99 12.36,-2.07 11.58,-2.14 10.79,-2.2 10,-2.26 9.19,-2.3 8.37,-2.35 7.55,-2.38 6.73,-2.41 5.9,-2.42 5.07,-2.44 4.23,-2.44 3.4,-2.44 2.56,-2.43 1.73,-2.42 0.9,-2.4 0.07,-2.37 -0.75,-2.34 -1.56,-2.3 -2.37,-2.25 -3.17,-2.21 -3.97,-2.15 -4.75,-2.09 -5.52,-2.03 -6.28,-1.96 -7.02,-1.89 -7.76,-1.82 -8.47,-1.74 -9.18,-1.66 -9.86,-1.58 -10.54,-1.49 -11.19,-1.41 -11.83,-1.32 -12.44,-1.23 -13.04,-1.14 -13.63,-1.04 -14.19,-0.95 -14.73,-0.86 -15.25,-0.76 -15.76,-0.67 -16.24,-0.58 -16.7,-0.49 -17.15,-0.39 -17.57,-0.3 -17.98,-0.21 -18.37,-0.12 -18.75,-0.03 -19.1,0.06 -19.44,0.15 -19.75,0.24 -20.05,0.33 -20.33,0.42 -20.59,0.5 -20.84,0.59 -21.06,0.67 -21.27,0.76 -21.45,0.84 -21.62,0.92 -21.77,1 -21.91,1.08 -22.02,1.16 -22.12,1.23 -22.2,1.31 -22.27,1.38 -22.32,1.45 -22.35,1.52" fill="none" stroke="black" stroke-width="2.2222222222222223" stroke-linejoin="round" filter="url(#fuzzy)" />
      <polyline id="leftLower" points="27.88,1.61 27.76,1.63 27.62,1.66 27.44,1.69 27.23,1.71 26.99,1.73 26.73,1.76 26.44,1.78 26.13,1.8 25.79,1.82 25.43,1.83 25.05,1.85 24.65,1.87 24.23,1.88 23.8,1.9 23.34,1.91 22.88,1.93 22.39,1.94 21.9,1.96 21.39,1.97 20.87,1.98 20.34,2 19.79,2.01 19.24,2.02 18.68,2.04 18.11,2.05 17.44,2.06 16.76,2.07 16.08,2.08 15.38,2.09 14.68,2.1 13.98,2.11 13.26,2.13 12.55,2.14 11.82,2.15 11.09,2.17 10.36,2.18 9.63,2.2 8.89,2.21 8.15,2.23 7.4,2.24 6.65,2.26 5.91,2.27 5.16,2.29 4.41,2.3 3.66,2.31 2.91,2.33 2.16,2.34 1.42,2.35 0.67,2.36 -0.07,2.37 -0.81,2.38 -1.55,2.39 -2.28,2.39 -3.01,2.4 -3.74,2.4 -4.46,2.41 -5.17,2.41 -5.87,2.41 -6.57,2.41 -7.26,2.4 -7.95,2.4 -8.62,2.39 -9.28,2.39 -9.94,2.38 -10.58,2.37 -11.21,2.36 -11.83,2.34 -12.44,2.33 -13.04,2.31 -13.62,2.3 -14.19,2.28 -14.74,2.26 -15.28,2.24 -15.81,2.21 -16.32,2.19 -16.82,2.17 -17.3,2.14 -17.77,2.11 -18.23,2.09 -18.67,2.06 -19.11,2.03 -19.52,1.99 -19.93,1.96 -20.32,1.93 -20.69,1.89 -21.05,1.85 -21.4,1.82 -21.73,1.78 -22.05,1.74 -22.35,1.7 -22.64,1.65 -22.91,1.61 -23.17,1.57 -23.41,1.52 -23.64,1.48 -23.86,1.43 -24.06,1.39 -24.25,1.34 -24.42,1.29" fill="none" stroke="black" stroke-width="2.2222222222222223" stroke-linejoin="round" filter="url(#fuzzy)" />
      <circle r="4.578" cx="-13.875577823989483" cy="1.7465380750561357" stroke="black" fill="none" stroke-width="1.0" filter="url(#fuzzy)" clip-path="url(#leftEyeClipPath)" /><circle r="4.138" cx="-17.93057782398948" cy="-1.9034619249438647" stroke="black" fill="none" stroke-width="1.0" filter="url(#fuzzy)" clip-path="url(#leftEyeClipPath)" /><circle r="4.682" cx="-13.810577823989483" cy="1.1365380750561354" stroke="black" fill="none" stroke-width="1.0" filter="url(#fuzzy)" clip-path="url(#leftEyeClipPath)" /><circle r="4.766" cx="-18.275577823989483" cy="0.07653807505613575" stroke="black" fill="none" stroke-width="1.0" filter="url(#fuzzy)" clip-path="url(#leftEyeClipPath)" /><circle r="4.306" cx="-15.640577823989481" cy="-0.7184619249438644" stroke="black" fill="none" stroke-width="1.0" filter="url(#fuzzy)" clip-path="url(#leftEyeClipPath)" /><circle r="3.9939999999999998" cx="-14.920577823989483" cy="-1.8934619249438644" stroke="black" fill="none" stroke-width="1.0" filter="url(#fuzzy)" clip-path="url(#leftEyeClipPath)" /><circle r="4.22" cx="-17.520577823989484" cy="-0.13846192494386456" stroke="black" fill="none" stroke-width="1.0" filter="url(#fuzzy)" clip-path="url(#leftEyeClipPath)" /><circle r="3.926" cx="-15.200577823989482" cy="0.4315380750561353" stroke="black" fill="none" stroke-width="1.0" filter="url(#fuzzy)" clip-path="url(#leftEyeClipPath)" /><circle r="3.666" cx="-13.680577823989482" cy="2.1815380750561353" stroke="black" fill="none" stroke-width="1.0" filter="url(#fuzzy)" clip-path="url(#leftEyeClipPath)" /><circle r="4.636" cx="-17.535577823989485" cy="2.606538075056135" stroke="black" fill="none" stroke-width="1.0" filter="url(#fuzzy)" clip-path="url(#leftEyeClipPath)" />
    </g>
    <g id="hairs">
      <polyline points="-25.79,-75.94 -17.91,-68.07 -1.47,-67.57 1.91,-69.06 -1.45,-70.35 -2.35,-69.86 3.32,-66.84 14.15,-61.93 25.47,-56.95 32.5,-53.98 33.04,-54.05 28.69,-56.52 23.78,-59.49 22.41,-61.17 25.4,-61.14 31.2,-59.72 41.61,-54.86 56.3,-43.56" fill="none" stroke="rgb(19, 134, 63)" stroke-width="2" stroke-linejoin="round" filter="url(#fuzzy)" /><polyline points="-2.37,-82.3 -21.1,-71.5 -11.57,-69.57 2.01,-67.19 10.98,-65.37 15.55,-65.62 17.52,-67.69 17.52,-70.35 15.4,-72.32 11.3,-72.92 6.32,-72.06 2.52,-69.98 2.18,-66.86 6.77,-62.85 16.05,-58.51 27.48,-55.53 34.85,-57.13 27.97,-66.54 -0.93,-82.17" fill="none" stroke="rgb(19, 134, 63)" stroke-width="2" stroke-linejoin="round" filter="url(#fuzzy)" /><polyline points="-25.79,-75.94 3.28,-73.05 5.08,-71.43 2.73,-67.53 -1.83,-64.9 -7.15,-65.28 -10.41,-67.55 -9.85,-69.61 -6.06,-69.95 -1.37,-68.09 1.64,-64.5 1.85,-60.16 0.15,-56.17 -1.62,-53.3 -2.69,-51.96 -4.48,-52.24 -9.6,-54.11 -18.78,-57.33 -27.5,-61.31 -24.01,-66.41 11.35,-81.02" fill="none" stroke="rgb(19, 134, 63)" stroke-width="2" stroke-linejoin="round" filter="url(#fuzzy)" /><polyline points="49.12,-55.67 1.26,-64.92 -2.22,-64.35 10.57,-60.83 20.55,-59.14 22.27,-61.12 18.31,-65.43 13.13,-69.59 9.6,-71.85 8.22,-71.91 7.69,-70.49 6.19,-68.52 2.98,-66.35 -0.42,-63.63 -0.66,-59.92 4.85,-55.71 14.51,-53.12 21.42,-55.06 17.67,-62.14 0.35,-68.47 -41.56,-64.41" fill="none" stroke="rgb(19, 134, 63)" stroke-width="2" stroke-linejoin="round" filter="url(#fuzzy)" /><polyline points="-45.61,-60.16 -4.21,-71.49 8.94,-75.02 12.17,-73.4 13.3,-68.54 15.78,-62.59 18.32,-57.75 17.7,-55.52 12.9,-56.42 6.86,-59.85 4.53,-64.29 8.95,-67.71 18.73,-68.69 28.7,-67.71 33.39,-67.38 32.32,-69.4 39.46,-66.09" fill="none" stroke="rgb(19, 134, 63)" stroke-width="2" stroke-linejoin="round" filter="url(#fuzzy)" /><polyline points="-25.79,-75.94 9.27,-59.27 10.66,-56.56 6.36,-57.98 1.35,-60.97 -3.38,-63.78 -7.5,-65.67 -9.89,-66.66 -9.08,-66.88 -4.65,-66.49 2.03,-65.8 8.48,-65.31 12.53,-65.47 13.47,-66.43 12.16,-68.03 10.07,-69.92 8.09,-71.8 6.19,-73.31 4.14,-74.02 2.8,-73.61 4.33,-72.62 10.14,-72.95 16.13,-76.49 14.4,-80.15" fill="none" stroke="rgb(19, 134, 63)" stroke-width="2" stroke-linejoin="round" filter="url(#fuzzy)" /><polyline points="25.01,-76.23 -2.23,-69.18 -1.19,-70.47 1.87,-71.91 6.55,-71.52 12.86,-69.61 18.76,-66.95 22.48,-64.43 24.04,-62.88 24.78,-62.69 25.64,-63.76 25.78,-65.74 23.13,-68.41 16.72,-71.69 8.85,-75.38 4.16,-78.86 4.35,-81.27 4.53,-81.99" fill="none" stroke="rgb(19, 134, 63)" stroke-width="2" stroke-linejoin="round" filter="url(#fuzzy)" /><polyline points="60.22,-34.43 13.74,-63.9 -4.04,-72.8 -6.29,-73.23 -2.68,-71.15 -0.62,-69.55 -2.79,-69.22 -8.11,-69.65 -14.34,-69.99 -19.87,-69.74 -23.89,-69 -25.83,-68.18 -24.98,-67.7 -20.68,-67.59 -12.75,-67.61 -2.03,-67.44 9.62,-66.98 19.7,-66.34 26.03,-65.59 27.95,-64.38 27.29,-61.94 28.79,-57.52 38.12,-52.59 43.66,-61.77" fill="none" stroke="rgb(19, 134, 63)" stroke-width="2" stroke-linejoin="round" filter="url(#fuzzy)" /><polyline points="56.5,-43.56 30.8,-62.74 28.77,-63.57 24.41,-62.62 16.25,-62.84 8.13,-63.51 2.47,-64.15 0.17,-64.77 1.29,-65.44 5.04,-66.18 9.8,-67 13.57,-68.05 14.7,-69.51 12.38,-71.41 6.79,-73.42 -1.24,-74.63 -10.69,-73.87 -20.05,-70.37 -24.75,-64.7 -11.96,-59.47 45.84,-59.33" fill="none" stroke="rgb(19, 134, 63)" stroke-width="2" stroke-linejoin="round" filter="url(#fuzzy)" /><polyline points="1.59,-82.15 5.61,-69.81 17.8,-59.46 19.6,-54.59 17.29,-52.4 16.51,-51.64 18.01,-52.29 19.7,-54.45 19.38,-57.78 16.57,-61.62 12.62,-65.31 9.58,-68.34 8.82,-70.34 10.34,-70.97 13.01,-69.96 15.26,-67.26 16.07,-63.29 15.46,-58.94 14.7,-55.29 15.8,-53.13 20.36,-52.61 27.61,-53.49 31.7,-56.02 19.47,-61.63 -30.33,-73.48" fill="none" stroke="rgb(19, 134, 63)" stroke-width="2" stroke-linejoin="round" filter="url(#fuzzy)" /><polyline points="35.25,-69.87 34.04,-60.82 18.23,-64.11 8.36,-66.64 4.57,-67.58 2.94,-67.42 0.65,-66.82 -2.89,-66.72 -6.63,-67.75 -9.08,-69.95 -9.57,-72.72 -8.62,-75.25 -7.39,-76.83 -6.91,-77.06 -7.42,-75.87 -8.34,-73.49 -8.68,-70.38 -7.57,-67.29 -4.84,-65.1 -1.04,-64.72 2.81,-66.71 5.68,-70.88 6.74,-76.03 5.52,-80.24 -0.8,-82.34" fill="none" stroke="rgb(19, 134, 63)" stroke-width="2" stroke-linejoin="round" filter="url(#fuzzy)" /><polyline points="-18.76,-78.79 22.27,-58.96 25.48,-64.12 21.32,-69.94 18.49,-71.57 18.37,-69.53 20.12,-65.57 22.82,-61.47 25.9,-58.6 28.57,-57.71 29.69,-58.79 28.16,-61.16 23.7,-63.83 17.02,-65.91 9.43,-66.94 2.02,-66.85 -5.18,-66.13 -12.11,-66.31 -11.07,-69.49 23.87,-76.54" fill="none" stroke="rgb(19, 134, 63)" stroke-width="2" stroke-linejoin="round" filter="url(#fuzzy)" /><polyline points="57.69,-40.83 50.44,-48.18 41.19,-58.93 34.16,-64.74 25.63,-67.24 14.58,-68.64 3.15,-69.83 -6.49,-70.77 -13.84,-71.15 -19.31,-70.95 -22.78,-70.63 -23.31,-70.91 -20.13,-72.17 -13.69,-74.09 -5.49,-75.65 3.36,-75.67 13.5,-73.4 23.96,-70.72 16.27,-79.92" fill="none" stroke="rgb(19, 134, 63)" stroke-width="2" stroke-linejoin="round" filter="url(#fuzzy)" /><polyline points="19.36,-78.7 14.55,-79.42 18.28,-76.57 25.3,-72.32 29.81,-68.39 28.86,-65.81 22.68,-65.04 14.15,-65.9 7.07,-67.61 4.1,-69.1 5.66,-69.54 10.11,-68.88 14.69,-67.82 16.94,-67.09 16.22,-66.59 14.62,-65.35 15.94,-62.33 24.6,-55.01 62.63,-27.73" fill="none" stroke="rgb(19, 134, 63)" stroke-width="2" stroke-linejoin="round" filter="url(#fuzzy)" /><polyline points="16.27,-79.92 -0.49,-62.18 7.31,-51.83 17.01,-48.23 24.95,-49.11 28.52,-52.25 27.09,-55.5 21.75,-57.87 14.54,-59.68 7.87,-61.5 4.22,-63.23 5.35,-64.07 11.42,-63.31 20.31,-61.26 27.98,-59.4 30.04,-59.63 24.12,-62.7 12.07,-66.79 1.12,-67.16 5.72,-58 59.46,-37.06" fill="none" stroke="rgb(19, 134, 63)" stroke-width="2" stroke-linejoin="round" filter="url(#fuzzy)" /><polyline points="-38.21,-67.58 -25.19,-70.16 -1.95,-70.56 16.43,-68.82 24.94,-67.74 24.6,-67.97 18.96,-68.5 12.03,-68.07 7.16,-66.18 6.14,-63.34 8.59,-60.79 12.25,-59.87 14.3,-61.22 13.24,-64.48 9.99,-68.43 7.22,-71.64 7.23,-73.05 9.85,-72.25 12.4,-69.45 11.59,-65.25 2.58,-60.79 -43.62,-62.14" fill="none" stroke="rgb(19, 134, 63)" stroke-width="2" stroke-linejoin="round" filter="url(#fuzzy)" /><polyline points="62.64,-27.17 15.93,-62.03 -1.13,-74.47 -5.07,-77.9 -2.31,-78.3 2.3,-77.96 5.11,-77.09 5.02,-74.96 3.05,-70.95 0.51,-65.66 -1.87,-61.09 -3.25,-59.49 -2.26,-61.59 -0.3,-66.33 -5.34,-73.21 -13.18,-80.85" fill="none" stroke="rgb(19, 134, 63)" stroke-width="2" stroke-linejoin="round" filter="url(#fuzzy)" /><polyline points="-24.33,-76.78 -30.26,-72.34 -27.81,-71.91 -19.89,-71.08 -8.01,-70.21 3.24,-69.94 9.55,-70.18 9.53,-70.4 4.59,-70.18 -2.53,-69.44 -9.25,-68.53 -13.84,-68.05 -15.56,-68.5 -14.5,-69.86 -11.13,-71.28 -5.91,-71.4 -0.1,-69.31 0.91,-65.84 -15,-62.6 -52.68,-50.46" fill="none" stroke="rgb(19, 134, 63)" stroke-width="2" stroke-linejoin="round" filter="url(#fuzzy)" /><polyline points="62.64,-27.17 52.8,-38.14 33.86,-51.85 21.11,-61.33 16.63,-65.31 14.99,-65.85 12.35,-66.01 8.95,-67.61 6.7,-70.62 6.53,-73.85 7.54,-76.22 7.72,-77.27 4.85,-77.08 -2.26,-75.81 -10.99,-73.86 -9.97,-72.82 24.58,-76.4" fill="none" stroke="rgb(19, 134, 63)" stroke-width="2" stroke-linejoin="round" filter="url(#fuzzy)" /><polyline points="25.43,-75.95 22.32,-63.15 4.59,-63.83 1.09,-65.4 9.24,-65.67 20.41,-65.26 29.02,-65.16 33.38,-65.85 33.97,-67.31 31.86,-69.19 27.97,-71.13 23.01,-72.85 17.78,-74.13 13.44,-74.75 11.25,-74.45 12.1,-73.02 15.79,-70.51 20.82,-67.39 24.81,-64.52 25.64,-62.88 22.76,-63.06 18.04,-64.57 13.62,-65.37 2.58,-62.33 -49.33,-54.98" fill="none" stroke="rgb(19, 134, 63)" stroke-width="2" stroke-linejoin="round" filter="url(#fuzzy)" /><polyline points="61.77,-30.32 42.2,-45.17 25.13,-51.99 17.43,-52.87 15.98,-53.51 17.13,-55.98 17.61,-59.48 15.55,-62.48 11.02,-64.14 5.35,-64.53 0.12,-64.13 -3.55,-63.3 -4.86,-62.16 -3.08,-60.85 1.97,-59.93 8.86,-60.2 14.1,-61.92 13.88,-64.05 7.58,-64.74 1.94,-62.78 13.72,-56.51 61.77,-30.32" fill="none" stroke="rgb(19, 134, 63)" stroke-width="2" stroke-linejoin="round" filter="url(#fuzzy)" /><polyline points="-35.23,-69.98 -35.49,-59.85 -13.83,-56.05 8.25,-56.33 22.28,-58.74 29.33,-61.19 32.58,-62.76 34.49,-63.12 36.18,-62.06 37.15,-59.96 35.49,-58.06 29.34,-57.85 19.17,-60.01 9.43,-63.57 7.49,-65.7 19.17,-62.14 42.19,-49.83 59.43,-36.8" fill="none" stroke="rgb(19, 134, 63)" stroke-width="2" stroke-linejoin="round" filter="url(#fuzzy)" /><polyline points="-35.23,-69.98 -19.12,-75.11 -7.8,-74.05 -2.7,-72.14 -3.46,-70.81 -5.1,-70.07 -4.16,-69.47 -0.65,-68.75 3.54,-68.32 6.67,-68.82 8.44,-70.22 10.03,-71.19 12.51,-69.78 13.85,-65.2 7.09,-60.18 -14.6,-61.6 -32.91,-71.53" fill="none" stroke="rgb(19, 134, 63)" stroke-width="2" stroke-linejoin="round" filter="url(#fuzzy)" /><polyline points="-2.37,-82.3 -1.42,-85.27 -0.75,-86.13 0.09,-86.66 1.13,-87.06 2.23,-87.1 3.32,-86.79 4.4,-86.35 5.46,-86 6.52,-85.91 7.58,-86.11 8.66,-86.61 9.77,-87.35 10.89,-88.28 12.03,-89.36 13.18,-90.52 14.4,-91.61 15.64,-92.31 16.2,-92.34 -5.74,-82.17 -5.48,-82.34 -4.26,-82.84 -2.99,-83.32 -1.89,-83.78 -0.91,-84.28 0.07,-84.78 1.09,-85.23 2.16,-85.61 3.26,-85.92 4.38,-86.23 5.5,-86.62 6.63,-87.18 7.78,-87.94 8.95,-88.92 10.13,-90 11.3,-91.03 12.45,-91.78 13.55,-92.07 14.62,-91.86 15.68,-91.32 16.77,-90.82 17.84,-90.81 18.82,-91.58 19.77,-93.16" fill="none" stroke="rgb(19, 134, 63)" stroke-width="2" stroke-linejoin="round" filter="url(#fuzzy)" /><polyline points="-1.04,-99.54 -1.16,-96.56 -1.77,-95.44 -2.86,-95.08 -4.17,-94.59 -5.45,-93.49 -6.59,-91.71 -7.56,-89.48 -8.41,-87.25 -9.19,-85.42 -9.97,-84.21 -10.81,-83.55 -11.78,-83.15 -12.86,-82.68 -13.96,-81.89 -15.14,-80.73 -16.54,-79.69 -22.93,-77.1 -24.42,-77.19 -25.76,-77.08 -26.86,-76.92 -27.85,-76.89 -28.98,-77.22 -30.39,-78.02 -32.09,-79.2 -33.95,-80.48 -35.82,-81.52 -37.57,-82.15 -39.21,-82.36 -40.81,-82.42 -42.47,-82.68 -44.18,-83.33 -45.69,-84.15 -46.78,-84.66 -48.48,-84.34 -32.91,-71.53 -34.37,-70.44 -35.38,-69.73 -36.23,-69.14 -36.95,-68.66 -37.62,-68.23 -38.35,-67.8 -39.19,-67.34 -40.12,-66.83 -41.1,-66.25 -42.04,-65.65 -42.89,-65.06 -43.63,-64.52 -44.28,-64.03 -44.91,-63.54 -45.62,-62.97 -46.49,-62.27 -47.57,-61.42 -48.82,-60.45 -50.09,-59.45 -51.17,-58.47 -51.72,-57.65 -41.55,-59.18 -42.57,-58.69 -43.85,-57.81 -45.11,-56.82 -46.21,-55.85 -47.13,-54.9 -47.94,-54.01 -48.71,-53.14 -49.47,-52.27 -50.2,-51.39 -50.85,-50.48 -51.42,-49.58 -51.92,-48.72 -52.43,-47.9 -53.02,-47.14 -53.74,-46.43 -54.54,-45.7 -55.36,-44.87 -56.09,-43.89 -56.73,-42.81 -57.56,-41.32" fill="none" stroke="rgb(19, 134, 63)" stroke-width="2" stroke-linejoin="round" filter="url(#fuzzy)" /><polyline points="61.91,-30.03 69.89,-31.5 70.84,-30.59 71.08,-29.33 71.54,-27.98 72,-26.45 72.36,-24.79 72.88,-23.2 73.93,-21.94 75.62,-21.03 77.79,-20.31 79.98,-19.52 81.77,-18.54 83.04,-17.54 84.43,-16.87 87.37,-16.38 61.91,-30.03 61.87,-30.38 61.72,-31.05 61.45,-32.02 61.14,-33.16 60.81,-34.34 60.46,-35.52 60.05,-36.71 59.58,-37.96 59.06,-39.28 58.52,-40.64 58.01,-41.92 57.55,-43.04 57.17,-43.96 56.86,-44.79 56.53,-45.81 56.17,-47.12 60.64,-33.43 61.28,-32.2 62,-31.33 63.03,-30.76 64.2,-30.25 65.22,-29.57 65.97,-28.65 66.56,-27.53 67.2,-26.29 68.08,-24.99 69.27,-23.73 70.7,-22.57 72.18,-21.54 73.44,-20.58 74.35,-19.58 74.95,-18.44 75.41,-17.2 75.77,-16.05 76.07,-15.22 77.32,-14.5" fill="none" stroke="rgb(19, 134, 63)" stroke-width="2" stroke-linejoin="round" filter="url(#fuzzy)" /><polyline points="49.24,-55.28 49.64,-55.43 50.67,-55.57 52.15,-55.82 53.57,-55.75 54.73,-55.24 55.79,-54.5 56.98,-53.73 58.35,-52.99 59.77,-52.27 61.15,-51.65 62.62,-51.32 64.41,-51.46 66.5,-52.07 68.44,-52.95 70.18,-54.11" fill="none" stroke="rgb(19, 134, 63)" stroke-width="2" stroke-linejoin="round" filter="url(#fuzzy)" /><polyline points="74.88,-57.35 73.46,-58.7 71.77,-59.01 69.21,-58.61 66.24,-58.18 63.51,-58.02 61.3,-58.2 59.62,-58.63 58.27,-59.19 57.06,-59.73 55.89,-60.17 54.69,-60.5 53.45,-60.76 52.12,-60.99 50.67,-61.22 49.21,-61.53 48.02,-62.08 47.32,-62.84 46.73,-63.24 43.66,-61.77 60.56,-52.18 57.93,-54.18 56.73,-54.93 56.05,-55.79 55.51,-56.86 54.89,-57.87 54.15,-58.65 53.29,-59.23 52.33,-59.74 51.27,-60.27 50.14,-60.86 49,-61.49 47.93,-62.08 46.99,-62.53 46.13,-62.8 45.06,-62.9 43.38,-62.16" fill="none" stroke="rgb(19, 134, 63)" stroke-width="2" stroke-linejoin="round" filter="url(#fuzzy)" /><polyline points="44.07,-57.54 43.54,-58.49 43.38,-59.1 42.94,-59.89 42.28,-60.87 41.51,-61.96 40.72,-63.07 39.96,-64.09 39.26,-64.95 38.62,-65.63 38.03,-66.17 37.41,-66.67 36.7,-67.26 35.93,-68.09 35.31,-69.1 35.1,-69.66 58.32,-82.51 56.27,-81.66 53.99,-81.3 51.97,-81.29 50.16,-81.2 48.49,-80.88 46.98,-80.46 45.56,-80.02 44.11,-79.5 42.53,-78.77 40.8,-77.82 39,-76.82 37.24,-76.01 35.65,-75.62 34.27,-75.77 33.14,-76.44 32.21,-77.5 31.4,-78.69 30.6,-79.73 29.71,-80.42 28.72,-80.76 27.69,-80.86 26.61,-80.53 25.3,-78.87 23.87,-76.54 16.27,-79.92 16.93,-85.41 15.75,-84.77 14.49,-84.39 13.46,-85.05 12.55,-86.07 11.66,-87 10.74,-87.74 9.77,-88.35 8.78,-88.89 7.75,-89.44 6.69,-90.14 5.61,-91.15 4.49,-92.6 3.36,-94.47 2.2,-96.58 1.05,-98.58 -0.08,-100.08 -1.22,-100.86 -2.42,-101.02 -3.75,-101.03 -5.26,-101.46 -6.82,-102.72 -8.25,-104.76 -9.9,-106.48" fill="none" stroke="rgb(19, 134, 63)" stroke-width="2" stroke-linejoin="round" filter="url(#fuzzy)" /><polyline points="11.35,-81.02 10.87,-81.16 9.93,-81.27 8.92,-81.4 7.96,-81.55 7.01,-81.69 6.05,-81.79 5.06,-81.85 4.03,-81.87 2.99,-81.84 1.95,-81.8 0.94,-81.76 -0.01,-81.73 -0.89,-81.73 -1.78,-81.71 -2.86,-81.64 -4.38,-81.48 -6.6,-81.3" fill="none" stroke="rgb(19, 134, 63)" stroke-width="2" stroke-linejoin="round" filter="url(#fuzzy)" /><polyline points="-0.93,-82.17 -2.47,-82.18 -4.43,-82.04 -6.2,-81.79 -7.75,-81.43 -9.04,-80.97 -10.04,-80.45 -10.79,-79.86 -11.36,-79.21 -11.87,-78.51 -12.42,-77.75 -13.09,-76.94 -13.98,-76.05 -15.1,-75.1 -16.44,-74.06 -17.95,-72.93 -19.55,-71.71 -21.1,-70.43 -22.42,-69.1 -23.35,-67.74 -23.7,-66.35 -23.43,-64.92 -22.61,-63.44 -21.47,-61.88 -20.35,-60.22 -19.53,-58.45 -19.11,-56.59 -18.93,-54.67 -18.6,-52.71 -17.68,-50.74 -15.93,-48.78 -13.55,-46.81 -11.11,-44.79 -9.31,-42.68 -8.51,-40.42 -8.39,-38.05 -8.17,-35.85 -6.21,-34.81" fill="none" stroke="rgb(19, 134, 63)" stroke-width="2" stroke-linejoin="round" filter="url(#fuzzy)" /><polyline points="-5.74,-82.17 -8.22,-81.76 -10.49,-81.39 -13.14,-80.91 -16.21,-80.32 -19.67,-79.66 -23.44,-78.94 -27.3,-78.17 -31.03,-77.35 -34.4,-76.45 -37.34,-75.47 -39.87,-74.41 -42.14,-73.28 -44.34,-72.1 -46.69,-70.89 -49.35,-69.64 -52.34,-68.36 -55.58,-67.02 -58.9,-65.62 -62.15,-64.15 -65.33,-62.61 -68.57,-60.99 -72.09,-59.28 -76.12,-57.47 -80.76,-55.58 -85.88,-53.64 -91.13,-51.72 -95.98,-49.86 -100.1,-48.03 -104.13,-46.1 -109.85,-43.8 -118.63,-41.32" fill="none" stroke="rgb(19, 134, 63)" stroke-width="2" stroke-linejoin="round" filter="url(#fuzzy)" /><polyline points="-9.12,-81.53 -10.44,-81.41 -12.58,-80.94 -14.84,-80.34 -17.25,-79.66 -19.72,-78.93 -22.15,-78.15 -24.57,-77.32 -27.12,-76.42 -29.94,-75.43 -33.08,-74.36 -36.43,-73.22 -39.76,-72.03 -42.88,-70.81 -45.68,-69.55 -48.19,-68.26 -50.54,-66.91 -52.9,-65.49 -55.34,-64.01 -57.86,-62.45 -60.37,-60.81 -62.78,-59.09 -65.11,-57.28 -67.46,-55.41 -70.03,-53.49 -72.98,-51.57 -76.34,-49.63 -79.95,-47.67 -83.5,-45.64 -86.7,-43.5 -89.53,-41.32 -92.37,-39.26 -95.64,-37.41 -98.64,-34.97" fill="none" stroke="rgb(19, 134, 63)" stroke-width="2" stroke-linejoin="round" filter="url(#fuzzy)" /><polyline points="-10.6,-81.05 -13.1,-80.49 -15.72,-79.9 -18.36,-79.27 -21.03,-78.58 -23.73,-77.82 -26.39,-77.02 -28.91,-76.17 -31.27,-75.26 -33.55,-74.27 -35.9,-73.17 -38.4,-71.95 -41.02,-70.64 -43.7,-69.28 -46.41,-67.92 -49.22,-66.59 -52.27,-65.29 -55.67,-63.98 -59.45,-62.62 -63.61,-61.12 -68.39,-59.36 -73.95,-57.26 -78.85,-54.98" fill="none" stroke="rgb(19, 134, 63)" stroke-width="2" stroke-linejoin="round" filter="url(#fuzzy)" /><polyline points="-10.6,-81.05 -13.14,-80.48 -15.42,-79.87 -17.43,-79.22 -19.37,-78.51 -21.33,-77.74 -23.31,-76.9 -25.3,-76.02 -27.33,-75.05 -29.41,-74 -31.52,-72.84 -33.63,-71.6 -35.67,-70.29 -37.61,-68.93 -39.45,-67.56 -41.2,-66.15 -42.9,-64.71 -44.58,-63.21 -46.27,-61.62 -47.97,-59.94 -49.66,-58.16 -51.3,-56.3 -52.87,-54.38 -54.35,-52.43 -55.75,-50.45 -57.11,-48.46 -58.48,-46.45 -59.9,-44.4 -61.37,-42.32 -62.87,-40.2 -64.36,-38.08 -65.76,-35.96 -67.05,-33.85 -68.22,-31.65 -69.29,-29.27 -70.21,-26.72 -70.96,-24.23 -71.85,-21.98" fill="none" stroke="rgb(19, 134, 63)" stroke-width="2" stroke-linejoin="round" filter="url(#fuzzy)" /><polyline points="-13.18,-80.85 -15.11,-80.35 -16.91,-79.69 -18.93,-78.94 -21.01,-78.17 -23.08,-77.37 -25.22,-76.5 -27.47,-75.53 -29.86,-74.46 -32.38,-73.31 -34.98,-72.13 -37.6,-70.92 -40.16,-69.7 -42.63,-68.45 -45.06,-67.13 -47.54,-65.75 -50.11,-64.31 -52.74,-62.81 -55.35,-61.25 -57.92,-59.58 -60.52,-57.77 -63.21,-55.83 -65.95,-53.78 -68.62,-51.57 -71.57,-48.99" fill="none" stroke="rgb(19, 134, 63)" stroke-width="2" stroke-linejoin="round" filter="url(#fuzzy)" /><polyline points="-13.18,-80.85 -14.91,-80.35 -17.1,-79.68 -19.99,-78.93 -23.65,-78.15 -27.81,-77.34 -31.98,-76.45 -35.84,-75.47 -39.33,-74.39 -42.53,-73.24 -45.49,-72.05 -48.15,-70.83 -50.41,-69.59 -52.25,-68.31 -53.85,-66.97 -55.53,-65.57 -57.64,-64.1 -60.41,-62.57 -63.83,-60.95 -67.72,-59.24 -71.84,-57.43 -76.06,-55.53 -80.44,-53.6 -85.1,-51.69 -90,-49.83 -94.94,-48.01 -99.84,-46.09 -104.58,-43.79 -106.55,-41.32" fill="none" stroke="rgb(19, 134, 63)" stroke-width="2" stroke-linejoin="round" filter="url(#fuzzy)" /><polyline points="-14.95,-80.32 -17.35,-79.74 -20.11,-78.93 -22.5,-78.14 -24.74,-77.34 -26.95,-76.48 -29.21,-75.5 -31.6,-74.41 -34.11,-73.26 -36.67,-72.06 -39.21,-70.84 -41.72,-69.62 -44.31,-68.35 -47.08,-67.03 -50.06,-65.64 -53.18,-64.18 -56.33,-62.66 -59.43,-61.07 -62.53,-59.38 -65.72,-57.56 -69.05,-55.64 -72.4,-53.67 -75.51,-51.71 -78.27,-49.93 -81.11,-48.54 -85.11,-47.67" fill="none" stroke="rgb(19, 134, 63)" stroke-width="2" stroke-linejoin="round" filter="url(#fuzzy)" /><polyline points="-14.95,-80.32 -17.44,-79.73 -21.49,-78.91 -24.64,-78.11 -26.72,-77.3 -28.41,-76.4 -30.24,-75.4 -32.46,-74.3 -35.02,-73.13 -37.78,-71.92 -40.61,-70.68 -43.46,-69.42 -46.39,-68.11 -49.5,-66.74 -52.87,-65.31 -56.49,-63.81 -60.26,-62.23 -64.05,-60.57 -67.8,-58.83 -71.51,-57.01 -75.25,-55.14 -79.07,-53.22 -82.97,-51.28 -86.94,-49.32 -90.94,-47.32 -94.99,-45.28 -99.11,-43.21 -103.35,-41.12 -107.7,-39.05 -112.03,-37 -116.03,-34.97 -119.19,-32.93 -121.06,-30.77 -122.03,-28.38 -124.18,-25.62 -130.08,-22.51" fill="none" stroke="rgb(19, 134, 63)" stroke-width="2" stroke-linejoin="round" filter="url(#fuzzy)" /><polyline points="-16.54,-79.69 -17.87,-79.24 -20.28,-78.55 -22.73,-77.75 -24.95,-76.91 -26.97,-76.03 -28.83,-75.09 -30.59,-74.04 -32.35,-72.89 -34.19,-71.63 -36.16,-70.3 -38.27,-68.94 -40.5,-67.56 -42.83,-66.17 -45.25,-64.76 -47.72,-63.28 -50.18,-61.72 -52.58,-60.04 -54.85,-58.26 -56.93,-56.39 -58.8,-54.46 -60.51,-52.51 -62.13,-50.54 -63.76,-48.58 -65.51,-46.59 -67.4,-44.56 -69.39,-42.46 -71.38,-40.31 -73.19,-38.15 -74.64,-36.12 -75.67,-34.31 -76.71,-32.51 -78.82,-29.87" fill="none" stroke="rgb(19, 134, 63)" stroke-width="2" stroke-linejoin="round" filter="url(#fuzzy)" /><polyline points="-15.25,-80.13 -19.6,-78.9 -22.94,-78.07 -26.55,-77.3 -30.12,-76.42 -33.33,-75.42 -36.15,-74.31 -38.71,-73.13 -41.15,-71.91 -43.58,-70.67 -46.17,-69.41 -49.05,-68.11 -52.27,-66.75 -55.81,-65.32 -59.59,-63.82 -63.45,-62.24 -67.19,-60.59 -70.6,-58.85 -73.49,-57.03 -75.83,-55.16 -77.74,-53.24 -79.49,-51.31 -81.38,-49.35 -83.67,-47.35 -86.48,-45.32 -89.84,-43.24 -93.69,-41.15 -97.86,-39.07 -102.14,-37.04 -106.38,-35.05 -110.54,-33.05 -114.8,-30.98 -119.17,-28.64 -121.59,-25.89" fill="none" stroke="rgb(19, 134, 63)" stroke-width="2" stroke-linejoin="round" filter="url(#fuzzy)" /><polyline points="-15.25,-80.13 -18.84,-78.9 -21.17,-78.07 -23.12,-77.29 -25.11,-76.41 -27.25,-75.4 -29.55,-74.29 -31.93,-73.1 -34.35,-71.88 -36.81,-70.64 -39.38,-69.37 -42.1,-68.06 -45,-66.69 -48.07,-65.26 -51.27,-63.74 -54.58,-62.16 -57.96,-60.49 -61.35,-58.74 -64.63,-56.92 -67.68,-55.05 -70.38,-53.13 -72.72,-51.18 -74.8,-49.21 -76.84,-47.21 -79.09,-45.17 -81.75,-43.11 -84.86,-41.03 -88.26,-38.95 -91.66,-36.88 -94.82,-34.82 -97.69,-32.71 -100.51,-30.51 -103.62,-28.19 -107.24,-25.74 -111.31,-23.26 -115.36,-20.75 -117.5,-17.47" fill="none" stroke="rgb(19, 134, 63)" stroke-width="2" stroke-linejoin="round" filter="url(#fuzzy)" /><polyline points="-18.76,-78.79 -22.21,-77.75 -24.33,-76.9 -27.04,-76.05 -30.89,-75.15 -35.29,-74.16 -39.26,-73.02 -42.2,-71.76 -44.25,-70.41 -46.02,-69.04 -48.29,-67.67 -51.67,-66.33 -56.4,-65 -62.37,-63.62 -69.12,-62.15 -76,-60.54 -82.31,-58.76 -87.62,-56.83 -91.91,-54.83 -95.76,-52.86 -100.25,-51 -106.23,-49.13 -111.52,-46.42" fill="none" stroke="rgb(19, 134, 63)" stroke-width="2" stroke-linejoin="round" filter="url(#fuzzy)" /><polyline points="-21.86,-77.89 -28.08,-77.36 -28.75,-76.54 -29.46,-75.53 -31.35,-74.4 -34.34,-73.19 -38.26,-71.96 -42.94,-70.74 -48.03,-69.53 -52.97,-68.28 -57.16,-66.97 -60.32,-65.57 -62.63,-64.12 -64.68,-62.6 -67.16,-61.01 -70.61,-59.32 -75.18,-57.51 -80.54,-55.59 -86.04,-53.62 -91.19,-51.68 -96.17,-49.9 -101.35,-48.53 -104.6,-47.67" fill="none" stroke="rgb(19, 134, 63)" stroke-width="2" stroke-linejoin="round" filter="url(#fuzzy)" /><polyline points="-25.79,-75.94 -28.02,-75.04 -30.1,-74.12 -31.95,-72.97 -33.81,-71.63 -35.74,-70.2 -37.76,-68.77 -39.89,-67.39 -42.1,-66.03 -44.3,-64.65 -46.4,-63.21 -48.35,-61.65 -50.15,-59.97 -51.88,-58.17 -53.61,-56.28 -55.36,-54.34 -57.09,-52.38 -58.74,-50.43 -60.34,-48.47 -61.98,-46.5 -63.8,-44.48 -65.89,-42.39 -68.24,-40.24 -70.66,-38.1 -72.81,-36.08 -74.37,-34.28 -75.44,-32.5 -76.85,-29.87" fill="none" stroke="rgb(19, 134, 63)" stroke-width="2" stroke-linejoin="round" filter="url(#fuzzy)" /><polyline points="-25.79,-75.94 -26.63,-75.03 -27.85,-74.12 -29.41,-72.97 -31.16,-71.62 -32.88,-70.19 -34.38,-68.76 -35.57,-67.37 -36.41,-66.01 -36.96,-64.63 -37.31,-63.18 -37.6,-61.62 -37.96,-59.93 -38.51,-58.13 -39.28,-56.24 -40.25,-54.29 -41.32,-52.34 -42.4,-50.38 -43.41,-48.42 -44.3,-46.44 -44.98,-44.41 -45.3,-42.32 -45.11,-40.19 -44.34,-38.07 -43.11,-36.02 -41.8,-34.07 -40.93,-32.01 -40.88,-29.42 -42.07,-26" fill="none" stroke="rgb(19, 134, 63)" stroke-width="2" stroke-linejoin="round" filter="url(#fuzzy)" /><polyline points="-27.06,-75.26 -28.36,-74.35 -30.22,-73.06 -31.8,-71.76 -32.99,-70.53 -33.96,-69.35 -34.91,-68.11 -35.91,-66.78 -36.88,-65.36 -37.67,-63.87 -38.1,-62.32 -38.09,-60.7 -37.61,-58.97 -36.75,-57.16 -35.7,-55.26 -34.75,-53.35 -34.19,-51.44 -34.15,-49.56 -34.42,-47.65 -34.46,-45.65 -33.78,-43.46 -32.53,-41.21 -31.56,-39.29 -30.04,-38.71" fill="none" stroke="rgb(19, 134, 63)" stroke-width="2" stroke-linejoin="round" filter="url(#fuzzy)" /><polyline points="-27.06,-75.26 -29.66,-74.34 -32.51,-73.04 -35.2,-71.74 -38.08,-70.51 -41.11,-69.31 -44.09,-68.06 -46.85,-66.72 -49.34,-65.29 -51.7,-63.78 -54.25,-62.22 -57.36,-60.57 -61.24,-58.83 -65.83,-57 -70.75,-55.12 -75.54,-53.2 -79.9,-51.28 -83.8,-49.35 -87.5,-47.38 -91.33,-45.36 -95.42,-43.27 -99.61,-41.16 -103.62,-39.09 -107.52,-37.09 -112.02,-35.13 -118.04,-33.32 -125.45,-32.28" fill="none" stroke="rgb(19, 134, 63)" stroke-width="2" stroke-linejoin="round" filter="url(#fuzzy)" /><polyline points="-28.17,-74.41 -31.02,-73.2 -33.2,-71.68 -35.24,-70.12 -37.21,-68.64 -39.16,-67.27 -41.13,-65.94 -43.12,-64.6 -45.07,-63.17 -46.88,-61.63 -48.53,-59.94 -50.01,-58.12 -51.39,-56.22 -52.73,-54.27 -54.1,-52.31 -55.57,-50.37 -57.18,-48.42 -58.94,-46.46 -60.88,-44.44 -62.97,-42.36 -65.18,-40.21 -67.37,-38.07 -69.31,-36.06 -70.82,-34.27 -72.09,-32.49 -73.62,-29.87" fill="none" stroke="rgb(19, 134, 63)" stroke-width="2" stroke-linejoin="round" filter="url(#fuzzy)" /><polyline points="-31.29,-72.69 -33.88,-71.48 -36.27,-70.31 -38.86,-69.18 -41.93,-67.96 -45.05,-66.6 -47.81,-65.13 -50.1,-63.58 -52.05,-61.98 -53.83,-60.29 -55.53,-58.52 -57.22,-56.67 -58.99,-54.76 -60.93,-52.82 -63.2,-50.87 -65.88,-48.89 -68.98,-46.89 -72.44,-44.85 -76.11,-42.79 -79.78,-40.72 -83.28,-38.64 -86.44,-36.55 -89.13,-34.45 -91.27,-32.3 -92.8,-30.07 -93.73,-27.76 -94.25,-25.36 -94.69,-22.9 -95.53,-20.41 -97.24,-17.91 -100.03,-15.37 -103.63,-12.7 -106.96,-9.63 -108.36,-5.75" fill="none" stroke="rgb(19, 134, 63)" stroke-width="2" stroke-linejoin="round" filter="url(#fuzzy)" /><polyline points="-32.91,-71.53 -35.19,-69.89 -37.13,-68.39 -38.79,-67.06 -40.35,-65.78 -41.92,-64.45 -43.52,-63.01 -45.15,-61.42 -46.81,-59.69 -48.49,-57.84 -50.16,-55.9 -51.79,-53.94 -53.34,-51.96 -54.78,-49.99 -56.11,-48 -57.34,-45.99 -58.49,-43.94 -59.58,-41.86 -60.63,-39.75 -61.66,-37.63 -62.66,-35.48 -63.64,-33.3 -64.6,-31.07 -65.53,-28.78 -66.39,-26.44 -67.15,-24.1 -67.82,-21.8 -68.44,-19.51 -69.07,-17.16 -69.72,-14.66 -70.34,-12.14 -70.88,-10.13" fill="none" stroke="rgb(19, 134, 63)" stroke-width="2" stroke-linejoin="round" filter="url(#fuzzy)" /><polyline points="-36.46,-68.81 -38.09,-68.19 -41.54,-66.74 -44.63,-65.09 -46.79,-63.48 -48.48,-61.89 -50.32,-60.22 -52.64,-58.43 -55.44,-56.55 -58.49,-54.62 -61.57,-52.67 -64.51,-50.71 -67.23,-48.74 -69.69,-46.73 -71.88,-44.7 -73.78,-42.63 -75.38,-40.55 -76.72,-38.47 -77.88,-36.39 -78.99,-34.27 -80.19,-32.11 -81.65,-29.88 -83.48,-27.56 -85.74,-25.16 -88.37,-22.71 -91.22,-20.22 -94.13,-17.69 -97.07,-15.12 -100.14,-12.5 -103.39,-9.82 -106.51,-7.21 -109.04,-4.84 -112.09,-2.26" fill="none" stroke="rgb(19, 134, 63)" stroke-width="2" stroke-linejoin="round" filter="url(#fuzzy)" /><polyline points="-38.13,-67.23 -42.94,-64.88 -44.55,-63.24 -45.84,-61.79 -47.6,-60.19 -49.78,-58.39 -52.2,-56.47 -54.63,-54.5 -56.88,-52.53 -58.77,-50.57 -60.27,-48.59 -61.48,-46.59 -62.6,-44.55 -63.82,-42.48 -65.23,-40.39 -66.81,-38.3 -68.49,-36.21 -70.12,-34.08 -71.64,-31.9 -73.03,-29.65 -74.3,-27.32 -75.53,-24.93 -76.74,-22.47 -77.95,-19.97 -79.15,-17.44 -80.39,-14.87 -81.78,-12.29 -83.42,-9.72 -85.32,-7.19 -87.25,-4.75 -88.76,-2.36 -89.48,0.08 -89.46,2.62 -89.88,4.81" fill="none" stroke="rgb(19, 134, 63)" stroke-width="2" stroke-linejoin="round" filter="url(#fuzzy)" /><polyline points="-43.32,-62.39 -44.8,-60.73 -46.77,-58.53 -48.65,-56.37 -50.4,-54.31 -52.01,-52.33 -53.51,-50.39 -54.89,-48.44 -56.22,-46.44 -57.52,-44.39 -58.77,-42.31 -59.95,-40.22 -61.03,-38.13 -62.01,-36.04 -62.94,-33.91 -63.9,-31.73 -64.93,-29.47 -66.07,-27.14 -67.3,-24.74 -68.54,-22.28 -69.68,-19.78 -70.63,-17.24 -71.36,-14.69 -71.89,-12.12 -72.3,-9.57 -72.69,-7.05 -73.14,-4.57 -73.65,-2.11 -74.17,0.39 -74.58,3.01 -74.82,5.73 -74.96,8.43 -75.47,10.48" fill="none" stroke="rgb(19, 134, 63)" stroke-width="2" stroke-linejoin="round" filter="url(#fuzzy)" /><polyline points="-43.62,-62.14 -46.86,-59.99 -52.77,-57.72 -58.12,-55.54 -61.09,-53.5 -62.27,-51.55 -63.12,-49.63 -64.75,-47.7 -67.64,-45.73 -71.81,-43.69 -77.03,-41.61 -82.92,-39.5 -88.95,-37.38 -94.51,-35.27 -99.08,-33.12 -102.46,-30.91 -104.94,-28.62 -107.26,-26.28 -110.16,-23.96 -113.95,-21.68 -118.12,-19.42 -121.73,-17.09 -124.42,-14.62 -127.41,-12.11 -131.59,-10.13" fill="none" stroke="rgb(19, 134, 63)" stroke-width="2" stroke-linejoin="round" filter="url(#fuzzy)" /><polyline points="-47.06,-57.93 -52.29,-55.96 -56.69,-54.08 -58.85,-52.16 -59.13,-50.26 -58.78,-48.35 -58.77,-46.37 -59.63,-44.3 -61.56,-42.2 -64.57,-40.1 -68.49,-38.02 -72.98,-35.93 -77.62,-33.81 -81.99,-31.63 -85.75,-29.37 -88.72,-27.03 -90.84,-24.63 -92.22,-22.16 -93.12,-19.66 -93.91,-17.13 -94.98,-14.58 -96.56,-12.02 -98.62,-9.47 -100.84,-6.95 -102.8,-4.47 -104.24,-1.99 -105.2,0.52 -106.03,3.11 -107.25,5.76 -109.28,8.36 -112.32,10.73 -117.12,12.91" fill="none" stroke="rgb(19, 134, 63)" stroke-width="2" stroke-linejoin="round" filter="url(#fuzzy)" /><polyline points="-47.06,-57.93 -48.91,-55.96 -51.24,-54.08 -54.26,-52.16 -57.25,-50.26 -59.55,-48.34 -61.07,-46.35 -62.17,-44.29 -63.33,-42.19 -64.99,-40.09 -67.5,-38 -71.01,-35.9 -75.43,-33.78 -80.36,-31.59 -85.21,-29.33 -89.35,-26.99 -92.38,-24.58 -94.22,-22.11 -95.11,-19.61 -95.5,-17.08 -95.8,-14.53 -96.27,-11.97 -96.99,-9.42 -97.96,-6.9 -99.25,-4.4 -100.94,-1.91 -103.1,0.61 -105.7,3.17 -108.66,5.75 -111.93,8.26 -115.29,10.5 -118.28,12.3 -121.38,13.36" fill="none" stroke="rgb(19, 134, 63)" stroke-width="2" stroke-linejoin="round" filter="url(#fuzzy)" /><polyline points="-49.2,-55.53 -50.91,-54.07 -53.38,-52.15 -56.35,-50.26 -59.46,-48.4 -62.31,-46.46 -64.58,-44.41 -66.2,-42.31 -67.3,-40.21 -68.1,-38.16 -68.76,-36.13 -69.41,-34.07 -70.15,-31.95 -71.14,-29.74 -72.49,-27.43 -74.22,-25.03 -76.29,-22.59 -78.53,-20.12 -80.72,-17.64 -82.6,-15.11 -84,-12.49 -85.01,-9.75 -86.29,-7.15 -89.36,-5.78" fill="none" stroke="rgb(19, 134, 63)" stroke-width="2" stroke-linejoin="round" filter="url(#fuzzy)" /><polyline points="-49.64,-54.63 -56.45,-52.11 -57.51,-50.09 -58.05,-48.24 -59.18,-46.29 -60.83,-44.2 -62.65,-42.06 -64.32,-39.94 -65.71,-37.85 -66.9,-35.77 -68.08,-33.66 -69.47,-31.47 -71.16,-29.2 -73.15,-26.85 -75.33,-24.43 -77.57,-21.96 -79.78,-19.45 -81.91,-16.91 -83.92,-14.36 -85.72,-11.81 -87.16,-9.27 -88.16,-6.74 -88.7,-4.24 -88.97,-1.74 -89.27,0.78 -89.94,3.31 -91.11,5.82 -92.65,8.27 -94.24,10.6 -95.59,12.83 -96.75,15.12 -97.99,17.68 -98.81,20.13" fill="none" stroke="rgb(19, 134, 63)" stroke-width="2" stroke-linejoin="round" filter="url(#fuzzy)" /><polyline points="-49.64,-54.63 -51.48,-52.11 -53.28,-50.09 -54.87,-48.25 -56.3,-46.3 -57.58,-44.21 -58.68,-42.08 -59.59,-39.96 -60.36,-37.87 -61.08,-35.79 -61.8,-33.68 -62.59,-31.5 -63.43,-29.24 -64.35,-26.89 -65.3,-24.47 -66.26,-22 -67.19,-19.49 -68.03,-16.96 -68.77,-14.41 -69.39,-11.86 -69.91,-9.31 -70.37,-6.79 -70.78,-4.29 -71.15,-1.8 -71.45,0.71 -71.65,3.25 -71.76,5.8 -71.82,8.26 -71.89,10.55 -72.02,12.67 -72.14,14.91 -72,18.35" fill="none" stroke="rgb(19, 134, 63)" stroke-width="2" stroke-linejoin="round" filter="url(#fuzzy)" /><polyline points="-53.41,-48.99 -55.54,-48.13 -57.84,-46.4 -59.85,-44.21 -61.53,-41.96 -63.11,-39.82 -65.06,-37.75 -67.83,-35.72 -71.47,-33.64 -75.68,-31.47 -80.01,-29.21 -84.13,-26.86 -87.9,-24.43 -91.28,-21.96 -94.33,-19.46 -97.11,-16.93 -99.79,-14.39 -102.54,-11.84 -105.47,-9.3 -108.58,-6.79 -111.79,-4.31 -115.11,-1.83 -118.54,0.67 -121.91,3.23 -124.73,5.8 -126.74,8.29 -128.88,10.53 -132.88,12.31 -136.06,13.36" fill="none" stroke="rgb(19, 134, 63)" stroke-width="2" stroke-linejoin="round" filter="url(#fuzzy)" /><polyline points="-53.41,-48.99 -53.6,-48.11 -53.55,-46.36 -53.72,-44.15 -54.37,-41.9 -55.16,-39.74 -55.6,-37.66 -55.4,-35.59 -54.67,-33.47 -53.75,-31.27 -52.99,-28.98 -52.63,-26.61 -52.72,-24.17 -53.13,-21.68 -53.65,-19.15 -54.02,-16.61 -54.01,-14.06 -53.52,-11.5 -52.56,-8.95 -51.26,-6.42 -49.84,-3.9 -48.49,-1.38 -47.35,1.12 -46.44,3.62 -45.7,6.09 -45.03,8.53 -44.34,10.92 -43.56,13.29 -42.69,15.64 -41.76,18.02 -40.84,20.41 -39.97,22.82 -39.07,25.23 -37.91,27.6 -36.21,29.9 -34.03,32.28 -32.51,35.69" fill="none" stroke="rgb(19, 134, 63)" stroke-width="2" stroke-linejoin="round" filter="url(#fuzzy)" /><polyline points="-53.41,-48.99 -54.29,-48.15 -56.31,-46.45 -58.75,-44.28 -60.86,-42.04 -62.53,-39.91 -64.08,-37.88 -65.86,-35.88 -68.11,-33.84 -70.81,-31.72 -73.79,-29.49 -76.75,-27.16 -79.45,-24.76 -81.85,-22.32 -84.16,-19.85 -86.74,-17.35 -89.76,-14.81 -92.96,-12.23 -95.68,-9.64 -97.34,-7.13 -98.11,-4.82 -99.05,-2.76 -99.36,-1.11" fill="none" stroke="rgb(19, 134, 63)" stroke-width="2" stroke-linejoin="round" filter="url(#fuzzy)" /><polyline points="-52.68,-50.46 -54.53,-47.46 -56.11,-45.29 -58.26,-43.21 -61.33,-41.04 -65.01,-38.86 -68.65,-36.71 -71.69,-34.56 -73.99,-32.38 -75.77,-30.13 -77.38,-27.82 -79.1,-25.48 -81.02,-23.13 -83.08,-20.77 -85.14,-18.4 -87.06,-15.99 -88.73,-13.54 -90.09,-11.06 -91.1,-8.56 -91.79,-6.07 -92.22,-3.63 -92.53,-1.22 -92.92,1.17 -93.59,3.61 -94.7,6.13 -96.2,8.75 -97.83,11.41 -99.29,13.97 -100.35,16.36 -100.95,18.66 -101.03,21.46" fill="none" stroke="rgb(19, 134, 63)" stroke-width="2" stroke-linejoin="round" filter="url(#fuzzy)" /><polyline points="-55.04,-46.42 -55.85,-45.01 -57.01,-43.14 -58.4,-40.97 -59.69,-38.75 -60.77,-36.58 -61.68,-34.43 -62.51,-32.25 -63.32,-29.98 -64.12,-27.66 -64.9,-25.3 -65.63,-22.94 -66.32,-20.57 -66.96,-18.18 -67.57,-15.76 -68.15,-13.3 -68.71,-10.81 -69.24,-8.32 -69.73,-5.83 -70.15,-3.37 -70.5,-0.93 -70.76,1.52 -70.94,4 -71.03,6.51 -71.02,9.05 -70.92,11.6 -70.73,14.11 -70.5,16.54 -70.26,18.92 -70.06,21.26 -69.86,23.65 -69.62,26.14 -69.22,28.78 -68.59,31.53 -67.96,33.96" fill="none" stroke="rgb(19, 134, 63)" stroke-width="2" stroke-linejoin="round" filter="url(#fuzzy)" /><polyline points="-54.32,-47.67 -56.42,-44.25 -58.44,-41.66 -59.8,-39.49 -60.66,-37.49 -61.46,-35.49 -62.46,-33.41 -63.66,-31.22 -64.92,-28.92 -66.08,-26.53 -67.07,-24.07 -67.89,-21.57 -68.61,-19.04 -69.28,-16.5 -69.91,-13.94 -70.52,-11.38 -71.08,-8.84 -71.58,-6.31 -72.04,-3.79 -72.45,-1.28 -72.85,1.22 -73.23,3.72 -73.63,6.18 -74.04,8.62 -74.47,11.01 -74.92,13.38 -75.37,15.73 -75.79,18.11 -76.11,20.5 -76.28,22.9 -76.22,25.3 -75.93,27.69 -75.47,30.06 -75.02,32.52 -74.66,35.22 -73.67,37.97" fill="none" stroke="rgb(19, 134, 63)" stroke-width="2" stroke-linejoin="round" filter="url(#fuzzy)" /><polyline points="64.37,-20.45 63.78,-23.72 63.65,-26.52 63.58,-28.83 63.24,-30.91 62.63,-32.97 61.89,-35.08 61.15,-37.26 60.43,-39.48 59.69,-41.69 58.89,-43.89 57.98,-46.05 56.95,-48.19 55.83,-50.28 54.69,-52.3 53.56,-54.23 52.48,-56.03 51.41,-57.69 50.26,-59.25 48.94,-60.8 47.38,-62.5 45.56,-64.48 43.52,-66.61" fill="none" stroke="rgb(19, 134, 63)" stroke-width="2" stroke-linejoin="round" filter="url(#fuzzy)" /><polyline points="-60.23,-34.64 -61.03,-34.09 -61.74,-32.33 -62.58,-29.95 -63.86,-27.44 -65.98,-24.99 -69.24,-22.63 -73.53,-20.3 -78.31,-17.95 -82.88,-15.55 -86.63,-13.09 -89.32,-10.59 -91.09,-8.09 -92.41,-5.61 -93.84,-3.16 -95.87,-0.74 -98.72,1.68 -102.24,4.13 -105.95,6.64 -109.22,9.19 -111.46,11.73 -112.4,14.22 -112.21,16.64 -111.45,18.99 -110.85,21.32 -111.08,23.7 -112.45,26.18 -114.88,28.81 -118.06,31.54 -122.72,33.96" fill="none" stroke="rgb(19, 134, 63)" stroke-width="2" stroke-linejoin="round" filter="url(#fuzzy)" /><polyline points="63.08,-25.98 62.93,-27.66 64.43,-29.77 66.81,-32 68.44,-34.34 68.96,-36.73 69.02,-39.05 69.48,-41.25 70.92,-43.3 73.49,-45.27 76.84,-47.2 80.23,-49.13 82.81,-51.06 83.94,-52.97 83.47,-54.86 81.7,-56.76 79.31,-58.67 76.99,-60.57 75.22,-62.39 74.18,-64.08 74.18,-65.54 75.98,-66.63 78.21,-67.05" fill="none" stroke="rgb(19, 134, 63)" stroke-width="2" stroke-linejoin="round" filter="url(#fuzzy)" /><polyline points="56.5,-43.56 56.24,-44.25 55.51,-45.87 54.53,-47.82 53.58,-49.86 52.84,-51.86 52.28,-53.81 51.74,-55.72 51.05,-57.61 50.14,-59.46 49.05,-61.24 47.92,-62.92 46.86,-64.49 45.93,-65.96 45.06,-67.36 44.12,-68.71 42.98,-70.02 41.57,-71.29 39.87,-72.52 37.91,-73.68 35.78,-74.77 33.57,-75.78 31.34,-76.7 29.13,-77.55 26.95,-78.32 24.76,-79.03 22.53,-79.67 20.23,-80.24 17.84,-80.73 15.35,-81.14 12.72,-81.47 9.9,-81.73 6.84,-81.95 3.34,-82.12 -1.33,-82.24" fill="none" stroke="rgb(19, 134, 63)" stroke-width="2" stroke-linejoin="round" filter="url(#fuzzy)" /><polyline points="56.3,-43.56 55.92,-45.05 55.69,-47.01 55.31,-49.2 54.38,-51.32 52.92,-53.32 51.23,-55.17 49.59,-56.92 48.1,-58.59 46.73,-60.23 45.38,-61.85 44.01,-63.46 42.58,-65.04 41.11,-66.56 39.62,-68.01 38.11,-69.39 36.54,-70.69 34.88,-71.93 33.12,-73.1 31.23,-74.19 29.25,-75.22 27.21,-76.18 25.15,-77.06 23.12,-77.88 21.14,-78.61 19.19,-79.26 17.21,-79.85 15.16,-80.37 13.01,-80.85 10.79,-81.29 8.55,-81.68 6.28,-81.99 3.97,-82.19 1.9,-82.15" fill="none" stroke="rgb(19, 134, 63)" stroke-width="2" stroke-linejoin="round" filter="url(#fuzzy)" /><polyline points="56.3,-43.56 56.17,-45.05 56.78,-47.02 57.94,-49.21 58.51,-51.34 57.84,-53.33 56.13,-55.19 53.99,-56.94 51.92,-58.61 50.15,-60.25 48.71,-61.88 47.46,-63.49 46.22,-65.06 44.84,-66.58 43.22,-68.03 41.34,-69.41 39.29,-70.71 37.19,-71.95 35.17,-73.11 33.29,-74.21 31.57,-75.23 29.96,-76.18 28.37,-77.06 26.74,-77.87 24.98,-78.6 23.06,-79.25 20.92,-79.84 18.57,-80.36 16.03,-80.84 13.32,-81.26 10.52,-81.62 7.65,-81.9 4.74,-82.1 1.8,-82.19 -1.14,-82.23 -3.84,-82.3" fill="none" stroke="rgb(19, 134, 63)" stroke-width="2" stroke-linejoin="round" filter="url(#fuzzy)" /><polyline points="56.5,-43.28 58.93,-45.63 61.06,-47.79 61.42,-49.93 60.77,-51.96 59.36,-53.91 57.26,-55.81 54.72,-57.7 52.11,-59.56 49.75,-61.34 47.77,-63.02 46.13,-64.58 44.7,-66.05 43.32,-67.44 41.89,-68.79 40.35,-70.09 38.73,-71.36 37.06,-72.58 35.35,-73.73 33.61,-74.81 31.81,-75.8 29.93,-76.72 27.95,-77.56 25.86,-78.32 23.69,-79.02 21.47,-79.65 19.21,-80.2 16.91,-80.68 14.55,-81.08 12.07,-81.41 9.41,-81.68 6.52,-81.89 3.4,-82.05 0.09,-82.15 -3.37,-82.18 -7.06,-82.13 -11.26,-81.95 -16.55,-81.53" fill="none" stroke="rgb(19, 134, 63)" stroke-width="2" stroke-linejoin="round" filter="url(#fuzzy)" /><polyline points="55.08,-46.21 54.26,-47.84 53.45,-50.01 52.67,-52.05 51.6,-53.96 50.19,-55.84 48.59,-57.73 46.95,-59.59 45.39,-61.38 43.95,-63.06 42.62,-64.61 41.35,-66.07 40.05,-67.45 38.65,-68.78 37.1,-70.09 35.4,-71.35 33.58,-72.58 31.72,-73.74 29.87,-74.82 28.06,-75.82 26.26,-76.73 24.43,-77.57 22.54,-78.34 20.56,-79.04 18.51,-79.68 16.45,-80.24 14.4,-80.73 12.36,-81.13 10.25,-81.46 8,-81.72 5.54,-81.94 2.91,-82.11 0.36,-82.24 -1.04,-82.34" fill="none" stroke="rgb(19, 134, 63)" stroke-width="2" stroke-linejoin="round" filter="url(#fuzzy)" /><polyline points="54.6,-47.05 52.87,-50.02 51.63,-52.2 50.56,-54.06 49.49,-55.9 48.48,-57.79 47.61,-59.67 46.92,-61.47 46.32,-63.15 45.62,-64.7 44.65,-66.14 43.31,-67.51 41.58,-68.84 39.58,-70.14 37.43,-71.41 35.23,-72.63 33.07,-73.78 30.99,-74.86 28.99,-75.85 27.08,-76.76 25.26,-77.59 23.52,-78.35 21.81,-79.05 20.06,-79.67 18.21,-80.23 16.17,-80.7 13.9,-81.1 11.41,-81.43 8.73,-81.7 5.92,-81.91 3.06,-82.07 0.2,-82.18 -2.69,-82.23 -5.72,-82.23 -9.04,-82.17" fill="none" stroke="rgb(19, 134, 63)" stroke-width="2" stroke-linejoin="round" filter="url(#fuzzy)" /><polyline points="54.6,-47.05 53.3,-50 52.63,-52.17 52,-54.01 51.12,-55.83 50.02,-57.7 48.77,-59.59 47.53,-61.39 46.44,-63.07 45.63,-64.61 45.14,-66.04 44.81,-67.4 44.41,-68.71 43.67,-70.01 42.45,-71.29 40.79,-72.54 38.83,-73.72 36.75,-74.82 34.62,-75.82 32.46,-76.73 30.24,-77.57 27.97,-78.34 25.7,-79.07 23.43,-79.74 21.17,-80.37 19.12,-80.91 17.99,-81.24" fill="none" stroke="rgb(19, 134, 63)" stroke-width="2" stroke-linejoin="round" filter="url(#fuzzy)" /><polyline points="52.43,-50.66 52.13,-52.56 53.75,-54.18 55.83,-55.92 57.12,-57.8 57.03,-59.71 55.76,-61.53 53.93,-63.21 52.12,-64.74 50.53,-66.17 49.04,-67.52 47.39,-68.84 45.43,-70.13 43.19,-71.4 40.84,-72.63 38.57,-73.79 36.47,-74.87 34.54,-75.86 32.68,-76.77 30.78,-77.6 28.78,-78.37 26.69,-79.07 24.57,-79.7 22.42,-80.27 20.2,-80.75 17.78,-81.15 15.03,-81.48 11.83,-81.74 8.18,-81.95 3.97,-82.12 -1.67,-82.24" fill="none" stroke="rgb(19, 134, 63)" stroke-width="2" stroke-linejoin="round" filter="url(#fuzzy)" /><polyline points="50.83,-53.02 50.75,-54.25 50.99,-55.87 51.5,-57.78 51.25,-59.75 50,-61.59 48.34,-63.26 47.04,-64.78 46.56,-66.18 46.84,-67.5 47.36,-68.8 47.5,-70.09 46.77,-71.37 45.07,-72.61 42.66,-73.78 40.04,-74.87 37.65,-75.86 35.72,-76.77 34.12,-77.59 32.48,-78.36 30.42,-79.08 27.74,-79.74 24.63,-80.34 21.63,-80.85 19.13,-81.22 16.37,-81.45" fill="none" stroke="rgb(19, 134, 63)" stroke-width="2" stroke-linejoin="round" filter="url(#fuzzy)" /><polyline points="47.34,-57.8 46.6,-59.14 46.12,-60.47 45.54,-62.1 44.83,-63.82 43.96,-65.47 42.88,-67 41.52,-68.41 39.85,-69.74 37.94,-71 35.91,-72.21 33.88,-73.35 31.89,-74.42 29.93,-75.42 27.98,-76.34 26.02,-77.2 24.08,-77.98 22.15,-78.69 20.22,-79.32 18.24,-79.89 16.17,-80.4 13.96,-80.86 11.62,-81.26 9.15,-81.6 6.58,-81.86 3.92,-82.05 1.14,-82.15 -1.83,-82.18 -5.08,-82.16 -8.53,-82.09 -11.34,-81.96" fill="none" stroke="rgb(19, 134, 63)" stroke-width="2" stroke-linejoin="round" filter="url(#fuzzy)" /><polyline points="45.73,-59.71 44.54,-60.37 42.97,-62.04 41.24,-63.86 39.51,-65.55 37.83,-67.08 36.15,-68.47 34.44,-69.78 32.7,-71.04 30.92,-72.24 29.11,-73.38 27.28,-74.45 25.42,-75.44 23.55,-76.37 21.67,-77.22 19.81,-78 17.96,-78.71 16.11,-79.34 14.26,-79.9 12.38,-80.41 10.48,-80.87 8.57,-81.28 6.66,-81.62 4.77,-81.89 2.9,-82.07 1.01,-82.17 -0.92,-82.2 -3.09,-82.19 -6.02,-82.09" fill="none" stroke="rgb(19, 134, 63)" stroke-width="2" stroke-linejoin="round" filter="url(#fuzzy)" /><polyline points="43.66,-61.77 42.25,-63.75 40.91,-65.32 39.54,-66.63 38.09,-67.87 36.57,-69.13 35.02,-70.43 33.51,-71.72 32.11,-72.95 30.84,-74.09 29.64,-75.14 28.37,-76.1 26.9,-76.97 25.17,-77.77 23.2,-78.5 21.05,-79.16 18.82,-79.75 16.6,-80.27 14.39,-80.72 12.16,-81.1 9.87,-81.41 7.44,-81.65 4.87,-81.84 2.16,-81.96 -0.67,-82.02 -3.6,-82.01 -6.63,-81.93 -9.77,-81.77 -13.05,-81.52 -16.5,-81.18 -20.13,-80.75 -23.98,-80.21 -28.15,-79.53 -32.76,-78.7 -37.06,-77.89" fill="none" stroke="rgb(19, 134, 63)" stroke-width="2" stroke-linejoin="round" filter="url(#fuzzy)" /><polyline points="39.08,-66.61 39.73,-67.62 38.18,-68.76 36.31,-69.98 34.75,-71.22 33.48,-72.43 32.26,-73.56 30.86,-74.61 29.21,-75.57 27.38,-76.48 25.5,-77.32 23.68,-78.09 21.95,-78.79 20.29,-79.4 18.6,-79.95 16.76,-80.44 14.71,-80.9 12.41,-81.32 9.92,-81.68 7.32,-81.96 4.62,-82.14 1.78,-82.19 -1.41,-82.17" fill="none" stroke="rgb(19, 134, 63)" stroke-width="2" stroke-linejoin="round" filter="url(#fuzzy)" /><polyline points="37.96,-67.49 37.95,-68.79 37.65,-70.04 36.84,-71.32 35.55,-72.55 34.16,-73.68 32.86,-74.72 31.58,-75.69 30.14,-76.58 28.47,-77.41 26.56,-78.16 24.49,-78.84 22.28,-79.45 19.94,-79.99 17.44,-80.47 14.78,-80.9 11.99,-81.28 9.12,-81.58 6.21,-81.82 3.25,-81.97 0.22,-82.06 -2.9,-82.07 -6.13,-82 -9.44,-81.87 -12.79,-81.64 -16.14,-81.32 -19.63,-80.9 -23.49,-80.39 -27.75,-79.83 -30.85,-79.37" fill="none" stroke="rgb(19, 134, 63)" stroke-width="2" stroke-linejoin="round" filter="url(#fuzzy)" /><polyline points="38.43,-67.05 38.12,-69.05 37.43,-70.55 35.27,-71.95 32.76,-73.23 30.48,-74.38 28.49,-75.39 26.69,-76.31 25.03,-77.15 23.45,-77.92 21.91,-78.63 20.33,-79.27 18.64,-79.85 16.78,-80.35 14.72,-80.78 12.45,-81.13 10,-81.42 7.39,-81.65 4.65,-81.81 1.78,-81.91 -1.21,-81.94 -4.33,-81.89 -7.59,-81.78 -10.99,-81.58 -14.52,-81.29 -18.17,-80.91 -21.89,-80.45 -25.63,-79.9 -29.34,-79.28 -32.97,-78.59 -36.51,-77.84 -40.02,-77.04 -43.61,-76.16 -47.45,-75.17 -51.63,-74.05 -56.23,-72.78 -61.31,-71.39 -66.86,-69.89" fill="none" stroke="rgb(19, 134, 63)" stroke-width="2" stroke-linejoin="round" filter="url(#fuzzy)" /><polyline points="32.51,-71.71 35.03,-72.89 34.65,-73.96 32.71,-74.92 29.87,-75.83 26.95,-76.71 24.47,-77.53 22.5,-78.28 20.89,-78.94 19.39,-79.53 17.81,-80.05 16.04,-80.53 14.03,-80.95 11.8,-81.32 9.34,-81.62 6.66,-81.86 3.71,-82.01 0.48,-82.09 -3.03,-82.1 -6.72,-82.04 -10.43,-81.9 -14.04,-81.69 -17.6,-81.37 -21.49,-80.94 -26.47,-80.4 -33.62,-79.69" fill="none" stroke="rgb(19, 134, 63)" stroke-width="2" stroke-linejoin="round" filter="url(#fuzzy)" /><polyline points="32.51,-71.71 31.6,-72.89 30.48,-73.95 29.41,-74.91 28.02,-75.81 26.2,-76.69 24.11,-77.51 21.96,-78.26 19.87,-78.93 17.86,-79.51 15.91,-80.04 13.98,-80.52 12.02,-80.95 10,-81.33 7.89,-81.65 5.67,-81.89 3.3,-82.06 0.75,-82.14 -1.99,-82.16 -4.96,-82.13 -8.08,-82.04 -11.2,-81.88 -14.37,-81.62" fill="none" stroke="rgb(19, 134, 63)" stroke-width="2" stroke-linejoin="round" filter="url(#fuzzy)" /><polyline points="30.62,-72.89 30.12,-74.09 30.18,-75.01 30.54,-75.91 30.66,-76.78 29.77,-77.61 27.67,-78.35 24.71,-79.01 21.4,-79.58 18.16,-80.1 15.17,-80.56 12.44,-80.97 9.88,-81.32 7.33,-81.6 4.66,-81.81 1.76,-81.94 -1.41,-81.99 -4.86,-81.96 -8.51,-81.86 -12.29,-81.68 -16.11,-81.42 -19.94,-81.07 -23.75,-80.64 -27.53,-80.14 -31.24,-79.57 -34.82,-78.94 -38.31,-78.24 -41.9,-77.49 -45.93,-76.69 -50.73,-75.86 -56.12,-75.04 -61.17,-74.26 -65.58,-73.48" fill="none" stroke="rgb(19, 134, 63)" stroke-width="2" stroke-linejoin="round" filter="url(#fuzzy)" /><polyline points="29.85,-73.68 29.55,-74.76 27.65,-75.66 25.56,-76.48 23.54,-77.28 21.63,-78.03 19.86,-78.73 18.2,-79.38 16.59,-79.95 14.95,-80.45 13.2,-80.88 11.28,-81.23 9.16,-81.51 6.85,-81.74 4.38,-81.91 1.78,-82.04 -0.95,-82.1 -3.83,-82.1 -6.92,-82.03 -10.27,-81.88 -13.91,-81.65 -17.86,-81.32 -22.12,-80.87 -26.11,-80.32" fill="none" stroke="rgb(19, 134, 63)" stroke-width="2" stroke-linejoin="round" filter="url(#fuzzy)" /><polyline points="29.85,-73.68 29.31,-74.76 28.12,-75.66 26.45,-76.49 24.7,-77.28 23.01,-78.03 21.35,-78.74 19.68,-79.38 18,-79.96 16.26,-80.46 14.41,-80.88 12.36,-81.22 10.07,-81.51 7.56,-81.73 4.87,-81.91 2.07,-82.03 -0.8,-82.09 -3.75,-82.08 -6.82,-82 -10.04,-81.84 -13.46,-81.6 -17.13,-81.28 -21.03,-80.88 -24.89,-80.44 -27.67,-80.13" fill="none" stroke="rgb(19, 134, 63)" stroke-width="2" stroke-linejoin="round" filter="url(#fuzzy)" /><polyline points="28.62,-74.5 34.68,-75.09 33.05,-75.91 31.09,-76.79 29.55,-77.62 27.78,-78.37 25.44,-79.02 22.62,-79.59 19.61,-80.1 16.65,-80.56 13.82,-80.98 11.13,-81.35 8.49,-81.66 5.83,-81.89 3.03,-82.04 0,-82.11 -3.3,-82.12 -6.87,-82.07 -10.58,-81.95 -14.24,-81.74 -17.75,-81.44 -21.23,-81.03 -24.92,-80.55" fill="none" stroke="rgb(19, 134, 63)" stroke-width="2" stroke-linejoin="round" filter="url(#fuzzy)" /><polyline points="27.49,-74.92 26.03,-75.77 24.56,-76.55 22.99,-77.33 21.44,-78.09 19.89,-78.79 18.24,-79.43 16.46,-80 14.59,-80.49 12.65,-80.9 10.64,-81.24 8.55,-81.52 6.35,-81.74 4.04,-81.9 1.63,-82.01 -0.86,-82.06 -3.42,-82.04 -6.06,-81.95 -8.8,-81.78 -11.67,-81.52 -14.68,-81.18 -17.86,-80.74 -21.24,-80.19 -24.9,-79.52 -28.91,-78.69 -32.73,-77.89" fill="none" stroke="rgb(19, 134, 63)" stroke-width="2" stroke-linejoin="round" filter="url(#fuzzy)" /><polyline points="27.59,-74.8 26.34,-75.91 25.13,-76.86 23.69,-77.72 22.23,-78.47 20.7,-79.11 19.03,-79.67 17.2,-80.17 15.21,-80.62 13.03,-81.02 10.62,-81.36 8.01,-81.63 5.21,-81.82 2.25,-81.93 -0.82,-81.97 -3.97,-81.93 -7.15,-81.81 -10.29,-81.61 -13.39,-81.33 -16.43,-80.96 -19.47,-80.52 -22.56,-80.01 -25.75,-79.42 -29.09,-78.78 -32.57,-78.07 -36.22,-77.31 -40.01,-76.5 -43.94,-75.63 -48,-74.69 -52.2,-73.65 -56.67,-72.47 -61.61,-71.14 -67.18,-69.68 -73.13,-68.21 -78.48,-66.89 -81.54,-65.72" fill="none" stroke="rgb(19, 134, 63)" stroke-width="2" stroke-linejoin="round" filter="url(#fuzzy)" /><polyline points="27.59,-74.8 25.35,-75.91 23.28,-76.86 21.3,-77.72 19.44,-78.47 17.64,-79.11 15.82,-79.67 13.94,-80.17 12,-80.62 10.02,-81.02 8.02,-81.36 6.01,-81.63 4.01,-81.82 2.02,-81.93 0.05,-81.97 -1.89,-81.92 -3.79,-81.8 -5.65,-81.6 -7.44,-81.31 -9.17,-80.94 -10.83,-80.5 -12.42,-79.98 -13.95,-79.4 -15.43,-78.75 -16.86,-78.04 -18.25,-77.28 -19.59,-76.46 -20.85,-75.58 -22.03,-74.63 -23.16,-73.57 -24.29,-72.39 -25.5,-71.08 -26.79,-69.67 -28.05,-68.24 -29.07,-66.91 -29.69,-65.73 -30.37,-64.62" fill="none" stroke="rgb(19, 134, 63)" stroke-width="2" stroke-linejoin="round" filter="url(#fuzzy)" /><polyline points="27.59,-74.8 25.5,-75.91 23.45,-76.85 21.47,-77.72 19.62,-78.47 17.85,-79.11 16.07,-79.66 14.23,-80.16 12.3,-80.62 10.32,-81.02 8.29,-81.36 6.24,-81.63 4.17,-81.83 2.07,-81.95 -0.06,-81.99 -2.19,-81.96 -4.31,-81.85 -6.42,-81.66 -8.49,-81.38 -10.53,-81.02 -12.54,-80.59 -14.55,-80.08 -16.55,-79.5 -18.56,-78.86 -20.57,-78.16 -22.55,-77.41 -24.49,-76.62 -26.37,-75.78 -28.19,-74.9 -30.01,-73.95 -31.97,-72.86 -34.19,-71.52 -36.57,-69.98" fill="none" stroke="rgb(19, 134, 63)" stroke-width="2" stroke-linejoin="round" filter="url(#fuzzy)" /><polyline points="25.43,-75.95 24.19,-76.59 22.42,-77.38 20.55,-78.15 18.69,-78.85 16.82,-79.49 14.94,-80.05 13.06,-80.53 11.18,-80.94 9.27,-81.27 7.33,-81.53 5.34,-81.74 3.31,-81.88 1.23,-81.97 -0.88,-81.99 -3.02,-81.94 -5.2,-81.82 -7.39,-81.61 -9.6,-81.31 -11.81,-80.92 -14.02,-80.45 -16.22,-79.89 -18.4,-79.26 -20.53,-78.57 -22.62,-77.82 -24.66,-77.02 -26.7,-76.14 -28.79,-75.16 -30.99,-74.04 -33.31,-72.77 -35.7,-71.39 -38.09,-69.89" fill="none" stroke="rgb(19, 134, 63)" stroke-width="2" stroke-linejoin="round" filter="url(#fuzzy)" /><polyline points="25.01,-76.23 23.67,-76.91 22.16,-77.77 20.6,-78.53 19.04,-79.15 17.37,-79.69 15.51,-80.18 13.45,-80.63 11.28,-81.04 9.06,-81.39 6.84,-81.67 4.6,-81.88 2.3,-82.01 -0.1,-82.06 -2.64,-82.04 -5.28,-81.95 -8.02,-81.78 -10.8,-81.53 -13.61,-81.19 -16.46,-80.77 -19.4,-80.27 -22.48,-79.72 -25.75,-79.1 -29.28,-78.42 -33.02,-77.67 -35.71,-77.1" fill="none" stroke="rgb(19, 134, 63)" stroke-width="2" stroke-linejoin="round" filter="url(#fuzzy)" /><polyline points="24.58,-76.4 22.51,-77.38 20.48,-78.2 18.57,-78.91 16.7,-79.54 14.84,-80.1 13,-80.58 11.15,-80.97 9.27,-81.29 7.33,-81.55 5.32,-81.75 3.26,-81.89 1.17,-81.97 -0.95,-81.98 -3.08,-81.92 -5.22,-81.78 -7.36,-81.56 -9.5,-81.25 -11.65,-80.85 -13.79,-80.37 -15.93,-79.8 -18.07,-79.17 -20.19,-78.46 -22.27,-77.7 -24.33,-76.86 -26.39,-75.95 -28.45,-74.94 -30.55,-73.83 -32.65,-72.64 -34.68,-71.42 -36.56,-70.25 -38.19,-69.23 -39.55,-68.35 -41.04,-67.23" fill="none" stroke="rgb(19, 134, 63)" stroke-width="2" stroke-linejoin="round" filter="url(#fuzzy)" /><polyline points="22.83,-77.43 22.79,-78.3 20.44,-78.97 17.88,-79.6 15.69,-80.15 13.88,-80.62 12.22,-81.01 10.49,-81.32 8.51,-81.57 6.25,-81.76 3.72,-81.9 0.98,-81.97 -1.91,-81.97 -4.89,-81.9 -7.9,-81.74 -10.89,-81.51 -13.83,-81.18 -16.72,-80.77 -19.6,-80.27 -22.53,-79.69 -25.57,-79.04 -28.78,-78.32 -32.24,-77.53 -36.01,-76.67 -40.16,-75.73 -44.71,-74.71 -49.63,-73.62 -54.77,-72.47 -59.88,-71.29 -64.69,-70.07 -69,-68.82 -72.8,-67.52 -76.28,-66.13 -79.78,-64.68 -83.57,-63.24 -87.73,-61.89 -92.46,-60.41 -99.4,-57.93" fill="none" stroke="rgb(19, 134, 63)" stroke-width="2" stroke-linejoin="round" filter="url(#fuzzy)" /><polyline points="20.3,-78.28 21.6,-78.82 19.78,-79.32 17.62,-79.79 15.49,-80.25 13.34,-80.69 11.13,-81.1 8.87,-81.44 6.58,-81.71 4.23,-81.9 1.79,-82 -0.75,-82.03 -3.43,-81.99 -6.23,-81.86 -9.13,-81.66 -12.11,-81.38 -15.14,-81.01 -18.19,-80.57 -21.25,-80.05 -24.3,-79.47 -27.34,-78.82 -30.37,-78.12 -33.43,-77.37 -36.59,-76.56 -39.95,-75.72 -43.6,-74.81 -47.64,-73.82 -52.11,-72.68 -57.06,-71.3 -62.4,-69.62 -67.5,-67.58" fill="none" stroke="rgb(19, 134, 63)" stroke-width="2" stroke-linejoin="round" filter="url(#fuzzy)" /><polyline points="16.27,-79.92 14.57,-80.36 12.94,-80.79 11.23,-81.14 9.4,-81.41 7.45,-81.64 5.38,-81.83 3.25,-81.97 1.06,-82.06 -1.16,-82.08 -3.42,-82.03 -5.75,-81.9 -8.16,-81.69 -10.67,-81.4 -13.32,-81.01 -16.11,-80.54 -18.99,-79.98 -21.89,-79.34 -24.71,-78.65 -27.33,-77.92 -29.81,-77.18 -32.39,-76.38 -35.41,-75.52 -38.6,-74.79" fill="none" stroke="rgb(19, 134, 63)" stroke-width="2" stroke-linejoin="round" filter="url(#fuzzy)" /><polyline points="14.08,-80.27 12.38,-80.86 10.81,-81.19 9.09,-81.45 7.23,-81.67 5.22,-81.85 3.09,-81.98 0.88,-82.05 -1.44,-82.05 -3.87,-81.97 -6.45,-81.81 -9.2,-81.57 -12.13,-81.23 -15.23,-80.81 -18.48,-80.3 -21.83,-79.72 -25.22,-79.06 -28.57,-78.34 -31.86,-77.55 -35.09,-76.69 -38.33,-75.75 -41.62,-74.73 -44.96,-73.63 -48.27,-72.48 -51.5,-71.29 -54.64,-70.08 -57.82,-68.86 -61.25,-67.56 -65.09,-66.16 -69.33,-64.66 -73.63,-63.24 -77.28,-62.19 -81.2,-61.47" fill="none" stroke="rgb(19, 134, 63)" stroke-width="2" stroke-linejoin="round" filter="url(#fuzzy)" /><polyline points="11.82,-81.13 10.71,-81.28 8.97,-81.49 7.02,-81.7 4.98,-81.87 2.88,-82 0.77,-82.07 -1.38,-82.06 -3.57,-81.98 -5.84,-81.81 -8.16,-81.55 -10.53,-81.2 -12.89,-80.76 -15.2,-80.24 -17.45,-79.64 -19.6,-78.97 -21.68,-78.23 -23.72,-77.42 -25.76,-76.54 -27.83,-75.59 -29.93,-74.56 -32.05,-73.46 -34.13,-72.31 -36.15,-71.11 -38.08,-69.88 -39.96,-68.6 -41.83,-67.28 -43.75,-65.9 -45.74,-64.45 -47.81,-62.94 -49.96,-61.36 -52.18,-59.68 -54.47,-57.86 -56.82,-55.91 -59.17,-53.84 -61.57,-51.6 -64.57,-48.99" fill="none" stroke="rgb(19, 134, 63)" stroke-width="2" stroke-linejoin="round" filter="url(#fuzzy)" /><polyline points="11.35,-81.02 10.37,-81.33 8.97,-81.65 6.86,-81.9 4.37,-82.05 1.67,-82.13 -1.16,-82.13 -4.02,-82.07 -6.77,-81.94 -9.37,-81.73 -11.89,-81.44 -14.48,-81.06 -17.3,-80.61 -20.44,-80.09 -23.91,-79.5 -27.69,-78.86 -31.8,-78.16 -36.3,-77.4 -41.18,-76.61 -46.16,-75.79 -50.78,-74.94 -54.77,-74.06 -58.69,-73.02 -63.75,-71.53" fill="none" stroke="rgb(19, 134, 63)" stroke-width="2" stroke-linejoin="round" filter="url(#fuzzy)" /><polyline points="9.69,-81.26 8.24,-81.69 6.56,-81.95 4.27,-82.09 1.71,-82.15 -0.91,-82.13 -3.53,-82.05 -6.12,-81.9 -8.68,-81.66 -11.2,-81.33 -13.67,-80.92 -16.1,-80.43 -18.52,-79.88 -21.03,-79.26 -23.69,-78.58 -26.56,-77.84 -29.66,-77.05 -32.98,-76.19 -36.49,-75.25 -40.18,-74.24 -44.03,-73.14 -48.01,-71.94 -52.09,-70.68 -56.18,-69.35 -60.22,-68 -64.18,-66.64 -68.1,-65.27 -72.07,-63.86 -76.25,-62.38 -80.88,-60.78 -86.1,-59 -91.71,-57.06 -96.98,-55 -100.99,-52.99 -103.9,-51.27 -107.79,-50.46" fill="none" stroke="rgb(19, 134, 63)" stroke-width="2" stroke-linejoin="round" filter="url(#fuzzy)" /><polyline points="8.63,-81.45 6.58,-81.73 4.39,-81.92 2.47,-82.06 0.73,-82.13 -1,-82.12 -2.79,-82.03 -4.62,-81.86 -6.41,-81.6 -8.09,-81.25 -9.61,-80.81 -10.95,-80.28 -12.11,-79.68 -13.07,-79 -13.81,-78.26 -14.3,-77.46 -14.53,-76.58 -14.52,-75.63 -14.35,-74.6 -14.1,-73.5 -13.86,-72.35 -13.69,-71.15 -13.6,-69.93 -13.55,-68.67 -13.48,-67.36 -13.34,-65.98 -13.11,-64.54 -12.76,-63.07 -12.24,-61.54 -11.4,-59.9 -10.07,-58.03 -8.01,-56.07 -5.71,-54.63" fill="none" stroke="rgb(19, 134, 63)" stroke-width="2" stroke-linejoin="round" filter="url(#fuzzy)" /><polyline points="1.59,-82.15 -0.66,-82.18 -2.95,-82.15 -5.21,-82.02 -7.31,-81.78 -9.27,-81.44 -11.19,-81.02 -13.1,-80.52 -15.03,-79.96 -16.96,-79.34 -18.89,-78.67 -20.83,-77.95 -22.76,-77.17 -24.67,-76.34 -26.58,-75.46 -28.49,-74.49 -30.45,-73.43 -32.48,-72.24 -34.59,-70.93 -36.7,-69.54 -38.7,-68.15 -40.48,-66.82 -42.06,-65.55 -43.65,-64.22 -45.71,-62.55" fill="none" stroke="rgb(19, 134, 63)" stroke-width="2" stroke-linejoin="round" filter="url(#fuzzy)" />
    </g>
    
        <g id="lineNose">
        <path d="M -8.58,36.64 Q 10.16, 45.839999999999996 0.79, -4.5840000000000005" fill="none" stroke="black" stroke-width="3" stroke-linejoin="round" filter="url(#fuzzy)"></path>
        </g>
      
    <g id="mouth">
      <polyline points="14.92,52.4 14.86,52.17 14.87,52.95 14.84,52.97 14.89,53.87 14.88,53.38 14.79,53.79 14.47,55.1 14.46,55.24 14.04,56.05 14.13,56.17 14.12,55.95 14.02,55.98 13.8,56.74 13.08,57.91 12.53,58.56 12.62,58.45 12.34,58.62 11.45,59.72 11.63,59.5 10.68,60.37 11.33,59.88 10.35,60.64 10.18,60.87 9.99,61.01 8.62,61.95 7.97,62.4 7.16,62.93 7.04,62.96 7.18,62.87 6.37,63.38 6.61,63.28 5.48,63.89 4.51,64.36 4.53,64.31 4.35,64.41 3.68,64.69 1.95,65.39 0.58,65.91 0.11,66.06 0.88,65.79 -0.98,66.38 -2.31,66.75 -2.96,66.92 -2.86,66.89 -2.85,66.89 -3.48,67.04 -6.05,67.55 -4.61,67.28 -6.13,67.56 -7.15,67.72 -7.31,67.74 -7.69,67.79 -9.69,68 -10.1,68.03 -11.19,68.11 -12.38,68.15 -12.15,68.14 -12.47,68.16 -12.76,68.16 -15.55,68.11 -16.4,68.04 -16.33,68.02 -16.78,68.03 -18.25,67.84 -17.15,67.96 -18.77,67.78 -18.68,67.82 -19.03,67.74 -21.11,67.34 -22.35,67.04 -22.94,66.87 -21.66,67.23 -23.83,66.63 -23.7,66.69 -24.46,66.43 -24.87,66.2 -26.02,65.78 -26.3,65.61 -26.12,65.67 -27.41,65.12 -27.44,65.01 -27.98,64.64 -28.2,64.55 -28.86,64.07 -29.46,63.69 -29,64.06 -29.38,63.76 -30.54,62.74 -30.86,62.29 -30.36,62.92 -30.74,62.6 -31.39,61.7 -31.44,61.45 -32,60.88 -32.02,60.37 -31.98,60.6 -32.39,59.5 -32.34,59.73 -32.46,59.6 -32.54,58.83 -32.61,58.7 -32.78,57.18 -32.62,57.52 -32.7,56.38 -32.61,56.22 -32.6,56.71 -32.49,55.92 -32.21,54.76 -32.2,55.11 -32.01,54.58 -31.91,54.18 -31.39,53.38 -30.95,52.73 -30.81,52.35 -31.08,52.94 -30.53,52.06 -29.8,51.18 -30.48,51.91 -29.53,51.01 -28.67,50.15 -28.36,49.9 -28.01,49.55 -28.36,49.87 -27.42,49.06 -27.8,49.38 -26.78,48.59 -25.43,47.79 -24.37,47.16 -24.52,47.25 -23.53,46.73 -24.81,47.34 -23.86,46.83 -23.68,46.79 -22.19,46.04 -21.73,45.84 -19.68,45.01 -20.26,45.23 -20.35,45.29 -17.46,44.29 -17.06,44.16 -17.65,44.34 -16.26,43.94 -15.47,43.71 -14.04,43.38 -14.94,43.58 -14.51,43.5 -13.97,43.36 -11.44,42.9 -11.14,42.85 -9.88,42.68 -10.12,42.71 -8.7,42.55 -9.41,42.62 -6.68,42.39 -7.31,42.43 -6.12,42.37 -6.34,42.38 -4.86,42.33 -2.48,42.37 -1.97,42.39 -2.95,42.36 -1.78,42.42 -0.43,42.54 -0.42,42.55 0.4,42.61 0.4,42.62 1.38,42.73 2.68,42.95 2.5,42.91 3.64,43.19 3.17,43.05 4.71,43.45 5.11,43.57 6.34,43.92 6.68,44.06 7.05,44.2 8.55,44.87 7.55,44.35 8.82,44.96 9.69,45.47 9.3,45.12 9.6,45.3 11.29,46.48 10.53,45.84 11.86,46.89 12.1,47.1 11.66,46.72 13.15,48.06 12.78,47.89 13.64,48.75 13.58,48.65 13.2,48.36 13.91,49.51 14.16,49.74 14.2,49.88 14.62,50.59 14.67,50.98 14.57,50.89 14.83,51.88" fill="rgb(204, 141, 102)" stroke="black" stroke-width="3" stroke-linejoin="round" filter="url(#fuzzy)" />
    </g>
  </svg>