<svg viewBox="-100 -100 200 200" xmlns="http://www.w3.org/2000/svg" width="500" height="500" id="face-svg">
    <defs>
      <clipPath id="leftEyeClipPath">
        <polyline points="23.93,12.66 23.7,12.11 23.46,11.54 23.2,10.95 22.92,10.35 22.62,9.75 22.31,9.13 21.98,8.51 21.63,7.89 21.27,7.26 20.89,6.63 20.5,6 20.09,5.38 19.67,4.76 19.23,4.14 18.78,3.53 18.3,2.75 17.81,1.98 17.29,1.22 16.75,0.47 16.2,-0.26 15.63,-0.96 15.04,-1.65 14.43,-2.31 13.81,-2.94 13.17,-3.54 12.51,-4.11 11.84,-4.65 11.16,-5.15 10.47,-5.62 9.76,-6.05 9.04,-6.44 8.32,-6.79 7.58,-7.11 6.84,-7.38 6.09,-7.62 5.33,-7.81 4.57,-7.96 3.81,-8.08 3.05,-8.15 2.28,-8.19 1.51,-8.19 0.75,-8.15 -0.01,-8.07 -0.77,-7.96 -1.53,-7.82 -2.28,-7.64 -3.02,-7.43 -3.75,-7.19 -4.48,-6.92 -5.2,-6.63 -5.91,-6.32 -6.6,-5.98 -7.29,-5.62 -7.96,-5.24 -8.61,-4.85 -9.26,-4.45 -9.88,-4.03 -10.5,-3.61 -11.09,-3.17 -11.67,-2.74 -12.23,-2.3 -12.78,-1.86 -13.31,-1.42 -13.81,-0.99 -14.31,-0.56 -14.78,-0.14 -15.24,0.28 -15.68,0.7 -16.1,1.11 -16.51,1.51 -16.91,1.91 -17.28,2.3 -17.64,2.68 -17.98,3.05 -18.3,3.41 -18.61,3.76 -18.9,4.09 -19.17,4.42 -19.42,4.72 -20.64,8.62 -20.33,8.48 -20.02,8.34 -19.69,8.2 -19.36,8.05 -19.01,7.9 -18.65,7.75 -18.28,7.59 -17.9,7.44 -17.51,7.29 -17.11,7.14 -16.71,7 -16.29,6.86 -15.86,6.72 -15.43,6.6 -14.99,6.47 -14.54,6.35 -14.07,6.24 -13.6,6.13 -13.12,6.03 -12.62,5.95 -12.12,5.87 -11.62,5.82 -11.1,5.78 -10.58,5.75 -10.06,5.75 -9.52,5.77 -8.99,5.81 -8.45,5.88 -7.9,5.96 -7.35,6.08 -6.8,6.21 -6.25,6.38 -5.69,6.56 -5.13,6.77 -4.56,7.01 -4,7.27 -3.43,7.56 -2.86,7.86 -2.28,8.19 -1.7,8.54 -1.12,8.91 -0.54,9.29 0.05,9.69 0.64,10.1 1.23,10.53 1.83,10.97 2.43,11.41 3.03,11.86 3.64,12.31 4.26,12.76 4.88,13.21 5.5,13.66 6.14,14.09 6.77,14.52 7.41,14.93 8.06,15.33 8.72,15.71 9.38,16.07 10.04,16.41 10.72,16.72 11.39,17 12.07,17.26 12.76,17.48 13.45,17.67 13.99,17.94 14.54,18.19 15.07,18.42 15.61,18.64 16.14,18.84 16.67,19.03 17.19,19.2 17.7,19.35 18.2,19.49 18.7,19.61 19.18,19.71 19.65,19.8 20.11,19.86 20.55,19.91 20.98,19.95" />
      </clipPath>
      <clipPath id="rightEyeClipPath">
        <polyline points="-18.85,10.95 -18.65,10.4 -18.44,9.85 -18.22,9.28 -17.99,8.71 -17.74,8.13 -17.48,7.55 -17.21,6.97 -16.93,6.39 -16.64,5.82 -16.34,5.25 -16.02,4.69 -15.7,4.13 -15.36,3.59 -15.02,3.06 -14.66,2.54 -14.28,1.8 -13.88,1.09 -13.47,0.4 -13.05,-0.26 -12.61,-0.89 -12.16,-1.49 -11.69,-2.05 -11.21,-2.57 -10.72,-3.06 -10.21,-3.51 -9.68,-3.92 -9.15,-4.29 -8.59,-4.62 -8.03,-4.91 -7.45,-5.16 -6.85,-5.37 -6.24,-5.54 -5.62,-5.67 -4.99,-5.76 -4.34,-5.81 -3.69,-5.83 -3.02,-5.81 -2.35,-5.76 -1.66,-5.67 -0.96,-5.55 -0.26,-5.4 0.45,-5.22 1.16,-5.01 1.88,-4.78 2.61,-4.52 3.33,-4.24 4.06,-3.93 4.79,-3.61 5.52,-3.27 6.25,-2.92 6.98,-2.55 7.7,-2.17 8.42,-1.78 9.13,-1.39 9.84,-0.98 10.54,-0.58 11.23,-0.17 11.91,0.24 12.58,0.65 13.24,1.06 13.88,1.46 14.51,1.86 15.13,2.25 15.73,2.63 16.31,3.01 16.88,3.37 17.44,3.73 17.98,4.08 18.51,4.42 19.03,4.75 19.53,5.08 20.01,5.39 20.48,5.69 20.93,5.97 21.37,6.25 21.79,6.51 22.19,6.76 22.58,7 22.94,7.22 24.2,8.43 23.77,8.14 23.33,7.85 22.87,7.56 22.4,7.28 21.91,6.99 21.42,6.71 20.91,6.43 20.39,6.15 19.86,5.88 19.31,5.62 18.76,5.36 18.2,5.12 17.63,4.88 17.05,4.66 16.47,4.45 15.87,4.24 15.25,4.04 14.63,3.86 14,3.69 13.36,3.53 12.72,3.4 12.06,3.28 11.41,3.19 10.75,3.12 10.08,3.08 9.42,3.07 8.75,3.08 8.09,3.12 7.42,3.19 6.76,3.29 6.09,3.43 5.44,3.59 4.78,3.78 4.13,4 3.49,4.26 2.85,4.54 2.21,4.85 1.58,5.19 0.96,5.55 0.35,5.94 -0.25,6.35 -0.85,6.78 -1.44,7.23 -2.03,7.69 -2.6,8.17 -3.17,8.66 -3.73,9.16 -4.28,9.67 -4.82,10.17 -5.36,10.68 -5.89,11.19 -6.42,11.69 -6.94,12.18 -7.45,12.67 -7.95,13.13 -8.46,13.58 -8.95,14.01 -9.45,14.41 -9.94,14.79 -10.42,15.14 -10.9,15.46 -11.38,15.74 -11.86,15.99 -12.33,16.21 -12.72,16.51 -13.11,16.8 -13.49,17.07 -13.87,17.32 -14.24,17.56 -14.6,17.78 -14.96,17.98 -15.3,18.16 -15.64,18.33 -15.98,18.48 -16.3,18.61 -16.61,18.72 -16.91,18.82 -17.2,18.89 -17.48,18.95" />
      </clipPath>
      <filter id="fuzzy">
        <feTurbulence id="turbulence" baseFrequency="0.05" numOctaves="3" type="noise" result="noise" />
        <feDisplacementMap in="SourceGraphic" in2="noise" scale="2" />
      </filter>
      <linearGradient id="rainbowGradient" x1="0%" y1="0%" x2="100%" y2="0%">
        <stop offset="0%" style="stop-color: rgb(199, 80, 182); stop-opacity: 1" />
        <stop offset="50%" style="stop-color: rgb(239, 55, 27); stop-opacity: 1" />
        <stop offset="100%" style="stop-color: rgb(158, 192, 133); stop-opacity: 1" />
      </linearGradient>
    </defs>
    <rect x="-100" y="-100" width="100%" height="100%" fill="rgb(235, 242, 166)" />
    <polyline id="faceContour" points="61.65,1.01 61.65,3.32 61.54,4.32 61.43,4.54 61.41,5.05 61.55,6.83 61.36,9.66 61.07,11.29 61.3,11.19 60.95,12.49 61,12.23 60.96,14.05 60.51,17.24 60.23,19.52 60.25,19.55 59.95,20.79 59.68,22.75 59,26.42 59.51,23.33 58.83,27.75 58.71,28.6 58.45,28.95 57.85,31.97 57.92,31.83 57.39,33.33 56.92,35.15 56.38,37.23 56.53,36.49 56.09,38 55.24,40.88 54.28,43.58 54.84,41.88 53.67,45.31 53.13,46.55 53.29,46.17 51.99,49.53 51.4,50.31 51.04,51.73 51.33,50.82 50.57,52.5 50.09,53.94 49.32,55.45 49.41,54.7 47.56,58.37 48.36,56.82 46.5,59.99 46.63,60.17 44.64,63.33 45.9,61.6 43.31,65.45 43.25,65.75 42.71,66.38 41.35,68.19 42.15,67.3 40.57,69.13 40.83,68.84 38.57,71.65 38.21,72.14 39.32,71.07 36.04,74.7 36.11,74.46 34.57,76.36 35.1,75.58 34.15,76.49 31.64,79 31.38,79.04 31.71,79.18 30.44,80.13 30.54,80.08 28.18,82.04 28.37,81.97 27.53,82.31 26.67,83.21 25.64,83.84 24.88,84.27 22.43,85.79 23.5,84.87 20.72,86.64 20.7,86.61 20.21,87.12 18.7,87.81 17.66,88.04 16.69,88.49 15.65,88.89 14.02,89.62 14.82,89.16 12.83,90.26 12.42,90.05 10.84,90.6 11.83,90.26 9.99,90.97 8.49,91.36 8.82,91.12 6.54,91.63 6.62,91.51 4.46,91.78 2.37,92.18 2.75,91.88 2.81,92.11 0.33,92.19 -0.81,92.28 0.01,91.99 -1.71,91.98 -2.15,92.06 -2.83,91.96 -5.13,91.63 -6.29,91.67 -6.43,91.56 -8.79,91.19 -9.32,91.28 -9.79,90.66 -10.6,90.77 -10.36,90.99 -11.25,90.32 -13.44,89.98 -15.1,89.11 -14.2,89.51 -16.3,88.83 -17.73,88.22 -18.25,87.73 -19.01,87.77 -20.25,86.85 -21.45,86.47 -21.34,86.12 -23.51,85.07 -22.97,85.69 -25.04,84.08 -26.86,82.91 -26.41,82.94 -27.38,82.72 -27.6,82.31 -28.81,81.42 -30.76,79.93 -29.94,80.33 -31.13,79.11 -31.36,79.69 -32.59,78.15 -34.39,76.07 -34.5,76.53 -35.79,75.12 -35.18,75.71 -36.32,74.35 -37.41,73.13 -38.94,71.38 -39.55,70.86 -40.95,68.59 -40.72,69.51 -40.37,69.66 -42.6,66.95 -43.09,66.24 -43.57,65.18 -43.69,64.91 -44.08,64.32 -45.45,62.23 -46.24,61.1 -46.68,60.02 -47.94,58.01 -47.16,59.21 -48.87,55.58 -49.98,54.26 -49.98,53.61 -50.5,52.53 -50.72,52.29 -51.49,50.43 -52.11,49.46 -52.51,48.21 -52.48,48.22 -53.19,46.58 -54.18,43.4 -54.35,43.03 -54.49,42.65 -55.07,41.78 -55.26,41.07 -55.62,39.75 -56.95,35.8 -56.82,35.64 -57.58,32.8 -58.19,30.96 -58.06,30.96 -58.3,29.65 -58.15,30.68 -59.15,25.69 -59.15,25.68 -59.72,23 -59.68,22.49 -60.07,20.76 -59.94,21.13 -60.5,17.13 -60.49,18.15 -60.94,14.96 -60.8,16.35 -61.12,12.31 -61.02,11.48 -61.42,8.6 -61.5,7.45 -61.37,8.47 -61.59,7.17 -61.57,3.73 -61.7,2.85 -61.73,2.03 -61.73,0.56 -61.66,-1.03 -61.66,-1.37 -61.58,-5.9 -61.52,-5.99 -61.53,-7.8 -61.35,-8.52 -61.13,-12.73 -61.28,-9.94 -60.97,-12.96 -60.78,-16.23 -60.9,-15.06 -60.49,-17.65 -60.43,-17.55 -60,-21.91 -59.58,-23.83 -59.99,-22.17 -59.34,-25.14 -59.18,-25.71 -59.15,-25.35 -58.98,-26.82 -58.5,-28.82 -58.43,-28.83 -57.74,-32.37 -57.43,-33.68 -56.88,-35.4 -56.28,-36.97 -56.5,-36.48 -55.52,-40.11 -55.45,-40.45 -54.41,-43.65 -54.33,-43.39 -54.45,-43 -52.86,-47.62 -53.11,-46.62 -52.83,-47.28 -51.53,-50.51 -52.06,-49.69 -50.67,-52.81 -50.98,-51.9 -50.62,-52.15 -48.59,-56.73 -48.78,-56.65 -47.64,-58.76 -47.47,-58.45 -47.46,-59.15 -45.67,-62.25 -44.68,-63.45 -45.8,-61.71 -44.23,-63.98 -43.38,-65.45 -42.78,-66.07 -41.78,-67.65 -42.65,-66.47 -41.76,-67.8 -40.72,-69.21 -38.58,-71.97 -38.15,-72.1 -37.31,-73.37 -36.23,-74.65 -35.73,-75.07 -36.02,-74.89 -34.69,-76.08 -33.98,-76.76 -31.82,-78.94 -33.32,-77.87 -31.44,-79.27 -31.33,-79.32 -29.21,-81.35 -29.01,-81.28 -27,-83.19 -27.92,-82.38 -25.97,-83.88 -24.92,-84.13 -24.89,-84.29 -22.72,-85.56 -23.75,-85.06 -22.4,-85.82 -21.2,-86.88 -19.62,-87.61 -20.32,-87.13 -16.96,-88.42 -17.69,-88.26 -16.8,-88.61 -15.26,-89.52 -14.34,-89.88 -12.36,-90.39 -11.84,-90.47 -11.47,-90.51 -10.68,-90.7 -8.52,-91.24 -8.57,-91.24 -7.19,-91.61 -7.59,-91.45 -4.9,-91.72 -5.46,-91.72 -4.1,-91.95 -2.96,-92.07 -1.41,-92.35 -0.35,-92 -0.11,-92.34 0.56,-92.13 0.89,-92.39 3.86,-92.14 5.47,-91.84 5.73,-91.8 5.66,-91.56 6.81,-91.66 7.73,-91.6 7.93,-91.32 9.73,-90.93 10.82,-90.85 11.82,-90.41 11.84,-90.43 13.36,-89.97 14.57,-89.59 14.02,-89.85 17.02,-88.75 17.1,-88.31 17.42,-88.42 18.9,-87.5 20.91,-86.53 21.25,-86.28 21.67,-86.38 21.41,-86.61 23.44,-85.15 25.93,-83.89 24.86,-84.34 26.18,-83.5 27.98,-82.4 28.2,-81.79 28.07,-82.33 30.01,-80.51 30.56,-80 31.68,-79.23 32.55,-78.03 33.3,-77.65 32.81,-77.96 33.53,-77.06 36.09,-74.57 35.81,-75.32 37.62,-73.4 37.6,-73.12 37.58,-73.28 40.17,-69.81 40.8,-69.11 40.5,-69.22 41.93,-67.4 42.27,-67.13 43.79,-65.04 43.73,-64.94 43.75,-64.51 44.71,-63.3 45.49,-62.37 45.49,-62.42 46.41,-60.68 48.55,-56.76 47.52,-58.65 49.69,-54.85 48.82,-56.03 49.66,-55.02 50.7,-52.65 50.32,-53.21 51.49,-50.57 52.56,-48.37 52.88,-47.16 53.28,-46.37 53.34,-45.63 53.92,-44.25 54.75,-41.92 54.1,-43.8 55.61,-39.93 55.56,-40.09 55.86,-38.82 56.69,-36.4 57.27,-33.83 57.2,-34.5 57.43,-33.33 58.02,-30.68 58.46,-29.01 58.83,-27.92 58.64,-28.66 58.98,-26.24 59.24,-25.45 59.85,-22.48 60.06,-21.05 60.16,-20.84 60.38,-18.22 60.69,-16.28 60.89,-14.37 60.88,-14.66 61.23,-11.92 61.25,-10.94 61.25,-9.7 61.25,-8.88 61.58,-5.81 61.62,-5.55 61.63,-3.82 61.61,-3.03 61.49,-2.92 61.65,1.01 61.65,3.32" fill="rgb(50, 32, 223)" stroke="black" stroke-width="1.6666666666666665" stroke-linejoin="round" filter="url(#fuzzy)" />
    <g transform="translate(34.11 -25.94)">
      <polyline id="rightCountour" points="-18.85,10.95 -18.65,10.4 -18.44,9.85 -18.22,9.28 -17.99,8.71 -17.74,8.13 -17.48,7.55 -17.21,6.97 -16.93,6.39 -16.64,5.82 -16.34,5.25 -16.02,4.69 -15.7,4.13 -15.36,3.59 -15.02,3.06 -14.66,2.54 -14.28,1.8 -13.88,1.09 -13.47,0.4 -13.05,-0.26 -12.61,-0.89 -12.16,-1.49 -11.69,-2.05 -11.21,-2.57 -10.72,-3.06 -10.21,-3.51 -9.68,-3.92 -9.15,-4.29 -8.59,-4.62 -8.03,-4.91 -7.45,-5.16 -6.85,-5.37 -6.24,-5.54 -5.62,-5.67 -4.99,-5.76 -4.34,-5.81 -3.69,-5.83 -3.02,-5.81 -2.35,-5.76 -1.66,-5.67 -0.96,-5.55 -0.26,-5.4 0.45,-5.22 1.16,-5.01 1.88,-4.78 2.61,-4.52 3.33,-4.24 4.06,-3.93 4.79,-3.61 5.52,-3.27 6.25,-2.92 6.98,-2.55 7.7,-2.17 8.42,-1.78 9.13,-1.39 9.84,-0.98 10.54,-0.58 11.23,-0.17 11.91,0.24 12.58,0.65 13.24,1.06 13.88,1.46 14.51,1.86 15.13,2.25 15.73,2.63 16.31,3.01 16.88,3.37 17.44,3.73 17.98,4.08 18.51,4.42 19.03,4.75 19.53,5.08 20.01,5.39 20.48,5.69 20.93,5.97 21.37,6.25 21.79,6.51 22.19,6.76 22.58,7 22.94,7.22 24.2,8.43 23.77,8.14 23.33,7.85 22.87,7.56 22.4,7.28 21.91,6.99 21.42,6.71 20.91,6.43 20.39,6.15 19.86,5.88 19.31,5.62 18.76,5.36 18.2,5.12 17.63,4.88 17.05,4.66 16.47,4.45 15.87,4.24 15.25,4.04 14.63,3.86 14,3.69 13.36,3.53 12.72,3.4 12.06,3.28 11.41,3.19 10.75,3.12 10.08,3.08 9.42,3.07 8.75,3.08 8.09,3.12 7.42,3.19 6.76,3.29 6.09,3.43 5.44,3.59 4.78,3.78 4.13,4 3.49,4.26 2.85,4.54 2.21,4.85 1.58,5.19 0.96,5.55 0.35,5.94 -0.25,6.35 -0.85,6.78 -1.44,7.23 -2.03,7.69 -2.6,8.17 -3.17,8.66 -3.73,9.16 -4.28,9.67 -4.82,10.17 -5.36,10.68 -5.89,11.19 -6.42,11.69 -6.94,12.18 -7.45,12.67 -7.95,13.13 -8.46,13.58 -8.95,14.01 -9.45,14.41 -9.94,14.79 -10.42,15.14 -10.9,15.46 -11.38,15.74 -11.86,15.99 -12.33,16.21 -12.72,16.51 -13.11,16.8 -13.49,17.07 -13.87,17.32 -14.24,17.56 -14.6,17.78 -14.96,17.98 -15.3,18.16 -15.64,18.33 -15.98,18.48 -16.3,18.61 -16.61,18.72 -16.91,18.82 -17.2,18.89 -17.48,18.95" fill="white" stroke="white" stroke-width="0" stroke-linejoin="round" filter="url(#fuzzy)" />
    </g>
    <g transform="translate(-28.1 -29.44)">
      <polyline id="leftCountour" points="23.93,12.66 23.7,12.11 23.46,11.54 23.2,10.95 22.92,10.35 22.62,9.75 22.31,9.13 21.98,8.51 21.63,7.89 21.27,7.26 20.89,6.63 20.5,6 20.09,5.38 19.67,4.76 19.23,4.14 18.78,3.53 18.3,2.75 17.81,1.98 17.29,1.22 16.75,0.47 16.2,-0.26 15.63,-0.96 15.04,-1.65 14.43,-2.31 13.81,-2.94 13.17,-3.54 12.51,-4.11 11.84,-4.65 11.16,-5.15 10.47,-5.62 9.76,-6.05 9.04,-6.44 8.32,-6.79 7.58,-7.11 6.84,-7.38 6.09,-7.62 5.33,-7.81 4.57,-7.96 3.81,-8.08 3.05,-8.15 2.28,-8.19 1.51,-8.19 0.75,-8.15 -0.01,-8.07 -0.77,-7.96 -1.53,-7.82 -2.28,-7.64 -3.02,-7.43 -3.75,-7.19 -4.48,-6.92 -5.2,-6.63 -5.91,-6.32 -6.6,-5.98 -7.29,-5.62 -7.96,-5.24 -8.61,-4.85 -9.26,-4.45 -9.88,-4.03 -10.5,-3.61 -11.09,-3.17 -11.67,-2.74 -12.23,-2.3 -12.78,-1.86 -13.31,-1.42 -13.81,-0.99 -14.31,-0.56 -14.78,-0.14 -15.24,0.28 -15.68,0.7 -16.1,1.11 -16.51,1.51 -16.91,1.91 -17.28,2.3 -17.64,2.68 -17.98,3.05 -18.3,3.41 -18.61,3.76 -18.9,4.09 -19.17,4.42 -19.42,4.72 -20.64,8.62 -20.33,8.48 -20.02,8.34 -19.69,8.2 -19.36,8.05 -19.01,7.9 -18.65,7.75 -18.28,7.59 -17.9,7.44 -17.51,7.29 -17.11,7.14 -16.71,7 -16.29,6.86 -15.86,6.72 -15.43,6.6 -14.99,6.47 -14.54,6.35 -14.07,6.24 -13.6,6.13 -13.12,6.03 -12.62,5.95 -12.12,5.87 -11.62,5.82 -11.1,5.78 -10.58,5.75 -10.06,5.75 -9.52,5.77 -8.99,5.81 -8.45,5.88 -7.9,5.96 -7.35,6.08 -6.8,6.21 -6.25,6.38 -5.69,6.56 -5.13,6.77 -4.56,7.01 -4,7.27 -3.43,7.56 -2.86,7.86 -2.28,8.19 -1.7,8.54 -1.12,8.91 -0.54,9.29 0.05,9.69 0.64,10.1 1.23,10.53 1.83,10.97 2.43,11.41 3.03,11.86 3.64,12.31 4.26,12.76 4.88,13.21 5.5,13.66 6.14,14.09 6.77,14.52 7.41,14.93 8.06,15.33 8.72,15.71 9.38,16.07 10.04,16.41 10.72,16.72 11.39,17 12.07,17.26 12.76,17.48 13.45,17.67 13.99,17.94 14.54,18.19 15.07,18.42 15.61,18.64 16.14,18.84 16.67,19.03 17.19,19.2 17.7,19.35 18.2,19.49 18.7,19.61 19.18,19.71 19.65,19.8 20.11,19.86 20.55,19.91 20.98,19.95" fill="white" stroke="white" stroke-width="0" stroke-linejoin="round" filter="url(#fuzzy)" />
    </g>
    <g transform="translate(34.11 -25.94)">
      <polyline id="rightUpper" points="-20.07,15.15 -20.01,14.88 -19.94,14.57 -19.85,14.22 -19.75,13.83 -19.64,13.41 -19.51,12.96 -19.36,12.49 -19.2,12 -19.03,11.48 -18.85,10.95 -18.65,10.4 -18.44,9.85 -18.22,9.28 -17.99,8.71 -17.74,8.13 -17.48,7.55 -17.21,6.97 -16.93,6.39 -16.64,5.82 -16.34,5.25 -16.02,4.69 -15.7,4.13 -15.36,3.59 -15.02,3.06 -14.66,2.54 -14.28,1.8 -13.88,1.09 -13.47,0.4 -13.05,-0.26 -12.61,-0.89 -12.16,-1.49 -11.69,-2.05 -11.21,-2.57 -10.72,-3.06 -10.21,-3.51 -9.68,-3.92 -9.15,-4.29 -8.59,-4.62 -8.03,-4.91 -7.45,-5.16 -6.85,-5.37 -6.24,-5.54 -5.62,-5.67 -4.99,-5.76 -4.34,-5.81 -3.69,-5.83 -3.02,-5.81 -2.35,-5.76 -1.66,-5.67 -0.96,-5.55 -0.26,-5.4 0.45,-5.22 1.16,-5.01 1.88,-4.78 2.61,-4.52 3.33,-4.24 4.06,-3.93 4.79,-3.61 5.52,-3.27 6.25,-2.92 6.98,-2.55 7.7,-2.17 8.42,-1.78 9.13,-1.39 9.84,-0.98 10.54,-0.58 11.23,-0.17 11.91,0.24 12.58,0.65 13.24,1.06 13.88,1.46 14.51,1.86 15.13,2.25 15.73,2.63 16.31,3.01 16.88,3.37 17.44,3.73 17.98,4.08 18.51,4.42 19.03,4.75 19.53,5.08 20.01,5.39 20.48,5.69 20.93,5.97 21.37,6.25 21.79,6.51 22.19,6.76 22.58,7 22.94,7.22 23.29,7.43 23.63,7.62 23.94,7.8 24.24,7.97 24.52,8.12 24.78,8.26 25.02,8.38 25.25,8.49 25.46,8.58 25.66,8.66" fill="none" stroke="black" stroke-width="1.6666666666666665" stroke-linejoin="round" filter="url(#fuzzy)" />
      <polyline id="rightLower" points="-19.44,18.85 -19.33,18.9 -19.19,18.94 -19.04,18.98 -18.87,19.01 -18.68,19.03 -18.47,19.05 -18.24,19.04 -18,19.03 -17.75,19 -17.48,18.95 -17.2,18.89 -16.91,18.82 -16.61,18.72 -16.3,18.61 -15.98,18.48 -15.64,18.33 -15.3,18.16 -14.96,17.98 -14.6,17.78 -14.24,17.56 -13.87,17.32 -13.49,17.07 -13.11,16.8 -12.72,16.51 -12.33,16.21 -11.86,15.99 -11.38,15.74 -10.9,15.46 -10.42,15.14 -9.94,14.79 -9.45,14.41 -8.95,14.01 -8.46,13.58 -7.95,13.13 -7.45,12.67 -6.94,12.18 -6.42,11.69 -5.89,11.19 -5.36,10.68 -4.82,10.17 -4.28,9.67 -3.73,9.16 -3.17,8.66 -2.6,8.17 -2.03,7.69 -1.44,7.23 -0.85,6.78 -0.25,6.35 0.35,5.94 0.96,5.55 1.58,5.19 2.21,4.85 2.85,4.54 3.49,4.26 4.13,4 4.78,3.78 5.44,3.59 6.09,3.43 6.76,3.29 7.42,3.19 8.09,3.12 8.75,3.08 9.42,3.07 10.08,3.08 10.75,3.12 11.41,3.19 12.06,3.28 12.72,3.4 13.36,3.53 14,3.69 14.63,3.86 15.25,4.04 15.87,4.24 16.47,4.45 17.05,4.66 17.63,4.88 18.2,5.12 18.76,5.36 19.31,5.62 19.86,5.88 20.39,6.15 20.91,6.43 21.42,6.71 21.91,6.99 22.4,7.28 22.87,7.56 23.33,7.85 23.77,8.14 24.2,8.43 24.62,8.71 25.02,8.99 25.41,9.27 25.78,9.55 26.14,9.82 26.49,10.08 26.82,10.34 27.14,10.59 27.44,10.84 27.73,11.08" fill="none" stroke="black" stroke-width="2.2222222222222223" stroke-linejoin="round" filter="url(#fuzzy)" />
      <circle r="3.378" cx="20.90838488266329" cy="5.5204130578411235" stroke="black" fill="none" stroke-width="1.0" filter="url(#fuzzy)" clip-path="url(#rightEyeClipPath)" /><circle r="4.574" cx="21.023384882663294" cy="4.625413057841123" stroke="black" fill="none" stroke-width="1.0" filter="url(#fuzzy)" clip-path="url(#rightEyeClipPath)" /><circle r="4.696" cx="20.108384882663294" cy="5.115413057841122" stroke="black" fill="none" stroke-width="1.0" filter="url(#fuzzy)" clip-path="url(#rightEyeClipPath)" /><circle r="4.894" cx="19.523384882663294" cy="6.625413057841122" stroke="black" fill="none" stroke-width="1.0" filter="url(#fuzzy)" clip-path="url(#rightEyeClipPath)" /><circle r="3.534" cx="18.368384882663293" cy="5.050413057841123" stroke="black" fill="none" stroke-width="1.0" filter="url(#fuzzy)" clip-path="url(#rightEyeClipPath)" /><circle r="4.55" cx="18.263384882663292" cy="7.3954130578411235" stroke="black" fill="none" stroke-width="1.0" filter="url(#fuzzy)" clip-path="url(#rightEyeClipPath)" /><circle r="3.874" cx="21.173384882663292" cy="3.5604130578411226" stroke="black" fill="none" stroke-width="1.0" filter="url(#fuzzy)" clip-path="url(#rightEyeClipPath)" /><circle r="4.622" cx="20.238384882663293" cy="7.305413057841122" stroke="black" fill="none" stroke-width="1.0" filter="url(#fuzzy)" clip-path="url(#rightEyeClipPath)" /><circle r="4.75" cx="19.99838488266329" cy="7.080413057841124" stroke="black" fill="none" stroke-width="1.0" filter="url(#fuzzy)" clip-path="url(#rightEyeClipPath)" /><circle r="3.12" cx="19.128384882663294" cy="5.670413057841122" stroke="black" fill="none" stroke-width="1.0" filter="url(#fuzzy)" clip-path="url(#rightEyeClipPath)" />
      </g>
    <g transform="translate(-28.1 -29.44)">
      <polyline id="leftUpper" points="25.05,16.84 25.03,16.57 24.99,16.26 24.93,15.92 24.85,15.53 24.75,15.12 24.62,14.68 24.48,14.21 24.31,13.72 24.13,13.2 23.93,12.66 23.7,12.11 23.46,11.54 23.2,10.95 22.92,10.35 22.62,9.75 22.31,9.13 21.98,8.51 21.63,7.89 21.27,7.26 20.89,6.63 20.5,6 20.09,5.38 19.67,4.76 19.23,4.14 18.78,3.53 18.3,2.75 17.81,1.98 17.29,1.22 16.75,0.47 16.2,-0.26 15.63,-0.96 15.04,-1.65 14.43,-2.31 13.81,-2.94 13.17,-3.54 12.51,-4.11 11.84,-4.65 11.16,-5.15 10.47,-5.62 9.76,-6.05 9.04,-6.44 8.32,-6.79 7.58,-7.11 6.84,-7.38 6.09,-7.62 5.33,-7.81 4.57,-7.96 3.81,-8.08 3.05,-8.15 2.28,-8.19 1.51,-8.19 0.75,-8.15 -0.01,-8.07 -0.77,-7.96 -1.53,-7.82 -2.28,-7.64 -3.02,-7.43 -3.75,-7.19 -4.48,-6.92 -5.2,-6.63 -5.91,-6.32 -6.6,-5.98 -7.29,-5.62 -7.96,-5.24 -8.61,-4.85 -9.26,-4.45 -9.88,-4.03 -10.5,-3.61 -11.09,-3.17 -11.67,-2.74 -12.23,-2.3 -12.78,-1.86 -13.31,-1.42 -13.81,-0.99 -14.31,-0.56 -14.78,-0.14 -15.24,0.28 -15.68,0.7 -16.1,1.11 -16.51,1.51 -16.91,1.91 -17.28,2.3 -17.64,2.68 -17.98,3.05 -18.3,3.41 -18.61,3.76 -18.9,4.09 -19.17,4.42 -19.42,4.72 -19.66,5.02 -19.87,5.3 -20.08,5.56 -20.26,5.81 -20.43,6.04 -20.58,6.26 -20.72,6.46 -20.83,6.65 -20.94,6.82 -21.03,6.97" fill="none" stroke="black" stroke-width="2.2222222222222223" stroke-linejoin="round" filter="url(#fuzzy)" />
      <polyline id="leftLower" points="23.98,19.51 23.81,19.6 23.61,19.68 23.38,19.76 23.11,19.83 22.82,19.88 22.5,19.92 22.15,19.95 21.78,19.96 21.39,19.96 20.98,19.95 20.55,19.91 20.11,19.86 19.65,19.8 19.18,19.71 18.7,19.61 18.2,19.49 17.7,19.35 17.19,19.2 16.67,19.03 16.14,18.84 15.61,18.64 15.07,18.42 14.54,18.19 13.99,17.94 13.45,17.67 12.76,17.48 12.07,17.26 11.39,17 10.72,16.72 10.04,16.41 9.38,16.07 8.72,15.71 8.06,15.33 7.41,14.93 6.77,14.52 6.14,14.09 5.5,13.66 4.88,13.21 4.26,12.76 3.64,12.31 3.03,11.86 2.43,11.41 1.83,10.97 1.23,10.53 0.64,10.1 0.05,9.69 -0.54,9.29 -1.12,8.91 -1.7,8.54 -2.28,8.19 -2.86,7.86 -3.43,7.56 -4,7.27 -4.56,7.01 -5.13,6.77 -5.69,6.56 -6.25,6.38 -6.8,6.21 -7.35,6.08 -7.9,5.96 -8.45,5.88 -8.99,5.81 -9.52,5.77 -10.06,5.75 -10.58,5.75 -11.1,5.78 -11.62,5.82 -12.12,5.87 -12.62,5.95 -13.12,6.03 -13.6,6.13 -14.07,6.24 -14.54,6.35 -14.99,6.47 -15.43,6.6 -15.86,6.72 -16.29,6.86 -16.71,7 -17.11,7.14 -17.51,7.29 -17.9,7.44 -18.28,7.59 -18.65,7.75 -19.01,7.9 -19.36,8.05 -19.69,8.2 -20.02,8.34 -20.33,8.48 -20.64,8.62 -20.93,8.74 -21.21,8.87 -21.47,8.98 -21.73,9.09 -21.97,9.19 -22.2,9.28 -22.42,9.37 -22.62,9.44 -22.82,9.51 -23,9.57" fill="none" stroke="black" stroke-width="2.2222222222222223" stroke-linejoin="round" filter="url(#fuzzy)" />
      <circle r="3.38" cx="3.3472218246522205" cy="8.211648007110385" stroke="black" fill="none" stroke-width="1.0" filter="url(#fuzzy)" clip-path="url(#leftEyeClipPath)" /><circle r="4.078" cx="3.49722182465222" cy="6.936648007110385" stroke="black" fill="none" stroke-width="1.0" filter="url(#fuzzy)" clip-path="url(#leftEyeClipPath)" /><circle r="4.452" cx="2.162221824652221" cy="5.521648007110386" stroke="black" fill="none" stroke-width="1.0" filter="url(#fuzzy)" clip-path="url(#leftEyeClipPath)" /><circle r="4.698" cx="0.09222182465222017" cy="4.471648007110385" stroke="black" fill="none" stroke-width="1.0" filter="url(#fuzzy)" clip-path="url(#leftEyeClipPath)" /><circle r="3.416" cx="3.23722182465222" cy="5.076648007110386" stroke="black" fill="none" stroke-width="1.0" filter="url(#fuzzy)" clip-path="url(#leftEyeClipPath)" /><circle r="4.11" cx="3.40722182465222" cy="3.5316480071103857" stroke="black" fill="none" stroke-width="1.0" filter="url(#fuzzy)" clip-path="url(#leftEyeClipPath)" /><circle r="4.48" cx="4.3472218246522205" cy="5.396648007110386" stroke="black" fill="none" stroke-width="1.0" filter="url(#fuzzy)" clip-path="url(#leftEyeClipPath)" /><circle r="4.796" cx="2.8472218246522196" cy="4.241648007110386" stroke="black" fill="none" stroke-width="1.0" filter="url(#fuzzy)" clip-path="url(#leftEyeClipPath)" /><circle r="4.752" cx="2.7122218246522207" cy="3.5516480071103853" stroke="black" fill="none" stroke-width="1.0" filter="url(#fuzzy)" clip-path="url(#leftEyeClipPath)" /><circle r="3.8040000000000003" cx="3.12222182465222" cy="7.241648007110385" stroke="black" fill="none" stroke-width="1.0" filter="url(#fuzzy)" clip-path="url(#leftEyeClipPath)" />
    </g>
    <g id="hairs">
      <polyline points="52.88,-47.16 53.12,-46.45 53.22,-45.77 53.2,-45.22 53,-44.91 52.6,-44.84 51.99,-44.98 51.15,-45.34 50.04,-45.95 48.65,-46.86 46.96,-48.14 44.94,-49.81 42.58,-51.9 39.87,-54.43 36.79,-57.42 33.31,-60.91 29.45,-64.88 25.21,-69.31 20.64,-74.18 15.79,-79.49 10.73,-85.35" fill="none" stroke="rgb(134, 30, 19)" stroke-width="2" stroke-linejoin="round" filter="url(#fuzzy)" /><polyline points="47.52,-58.65 48.62,-56.56 48.79,-55.84 48.62,-55.4 48.22,-55.04 47.55,-54.77 46.57,-54.66 45.23,-54.8 43.48,-55.27 41.3,-56.12 38.67,-57.36 35.61,-58.98 32.11,-60.95 28.16,-63.27 23.75,-65.92 18.83,-68.9 13.41,-72.23 7.46,-75.95 1,-80.13 -6.12,-84.83" fill="none" stroke="rgb(134, 30, 19)" stroke-width="2" stroke-linejoin="round" filter="url(#fuzzy)" /><polyline points="50.32,-53.21 51.06,-51.14 51.01,-49.95 50.17,-49.56 48.58,-49.84 46.29,-50.65 43.31,-51.96 39.62,-53.77 35.17,-56.07 29.9,-58.85 23.8,-62.09 16.86,-65.84 9.05,-70.14 0.31,-75.08 -9.45,-80.82" fill="none" stroke="rgb(134, 30, 19)" stroke-width="2" stroke-linejoin="round" filter="url(#fuzzy)" /><polyline points="-22.72,-85.56 -22.85,-85.53 -21.99,-86.04 -20.74,-86.68 -19.36,-87.3 -17.95,-87.87 -16.58,-88.39 -15.26,-88.9 -14.01,-89.38 -12.85,-89.83 -11.8,-90.23 -10.92,-90.55 -10.29,-90.77 -9.95,-90.88 -9.96,-90.89 -10.33,-90.8 -11.03,-90.63" fill="none" stroke="rgb(134, 30, 19)" stroke-width="2" stroke-linejoin="round" filter="url(#fuzzy)" /><polyline points="14.57,-89.59 14.92,-89.45 15.72,-89 16.33,-88.53 16.74,-88.05 16.95,-87.56 16.92,-87.08 16.62,-86.62 16.03,-86.17 15.19,-85.68 14.08,-85.15 12.68,-84.57 10.95,-83.96 8.84,-83.33 6.34,-82.66 3.43,-81.96 0.09,-81.22 -3.65,-80.44 -7.8,-79.64 -12.34,-78.85 -17.33,-78.03 -22.89,-77.15 -29.12,-76.11" fill="none" stroke="rgb(134, 30, 19)" stroke-width="2" stroke-linejoin="round" filter="url(#fuzzy)" /><polyline points="54.1,-43.8 54.85,-41.53 54.71,-40.66 54.03,-40.34 52.85,-40.47 51.11,-41.16 48.77,-42.46 45.83,-44.34 42.26,-46.8 38.06,-49.9 33.19,-53.68 27.65,-58.15 21.41,-63.29 14.47,-69.05 6.73,-75.42 -1.95,-82.52" fill="none" stroke="rgb(134, 30, 19)" stroke-width="2" stroke-linejoin="round" filter="url(#fuzzy)" /><polyline points="3.86,-92.14 4.91,-91.93 5.42,-91.78 5.79,-91.65 6.14,-91.5 6.46,-91.31 6.73,-91.07 6.87,-90.78 6.85,-90.44 6.61,-90.07 6.14,-89.65 5.43,-89.19 4.48,-88.67 3.28,-88.1 1.8,-87.48 0.02,-86.8 -2.08,-86.06 -4.53,-85.26 -7.37,-84.39 -10.64,-83.45 -14.36,-82.43 -18.53,-81.32 -23.04,-80.17 -27.67,-79.17" fill="none" stroke="rgb(134, 30, 19)" stroke-width="2" stroke-linejoin="round" filter="url(#fuzzy)" /><polyline points="40.5,-69.22 41.5,-67.96 42.07,-67.17 42.29,-66.7 42.14,-66.57 41.68,-66.77 40.92,-67.24 39.87,-67.97 38.5,-68.96 36.72,-70.28 34.45,-72.04 31.63,-74.33 28.21,-77.27 24.13,-80.87 19.37,-85.09" fill="none" stroke="rgb(134, 30, 19)" stroke-width="2" stroke-linejoin="round" filter="url(#fuzzy)" /><polyline points="5.66,-91.56 6.58,-91.57 7.26,-91.44 7.82,-91.2 8.24,-90.91 8.46,-90.57 8.42,-90.19 8.12,-89.77 7.54,-89.3 6.68,-88.77 5.52,-88.16 4.03,-87.48 2.18,-86.71 -0.06,-85.85 -2.71,-84.9 -5.83,-83.87 -9.44,-82.78 -13.52,-81.66 -18.02,-80.51 -22.93,-79.25 -28.43,-77.73" fill="none" stroke="rgb(134, 30, 19)" stroke-width="2" stroke-linejoin="round" filter="url(#fuzzy)" /><polyline points="-36.02,-74.89 -34.87,-75.95 -33.88,-76.93 -33.06,-77.76 -32.35,-78.45 -31.66,-79.09 -30.96,-79.71 -30.27,-80.29 -29.67,-80.77 -29.18,-81.13 -28.84,-81.32 -28.65,-81.34 -28.64,-81.18 -28.83,-80.83 -29.24,-80.26 -29.91,-79.44 -30.83,-78.36 -32,-77.03 -33.38,-75.47 -34.95,-73.73 -36.72,-71.83 -38.78,-69.68 -41.27,-67.12" fill="none" stroke="rgb(134, 30, 19)" stroke-width="2" stroke-linejoin="round" filter="url(#fuzzy)" /><polyline points="-17.69,-88.26 -16.67,-88.73 -15.53,-89.25 -14.45,-89.66 -13.54,-89.95 -12.85,-90.11 -12.38,-90.18 -12.11,-90.15 -12.07,-90.03 -12.26,-89.81 -12.72,-89.46 -13.48,-88.99 -14.55,-88.39 -15.98,-87.64 -17.78,-86.74 -19.98,-85.66 -22.59,-84.38 -25.7,-82.86" fill="none" stroke="rgb(134, 30, 19)" stroke-width="2" stroke-linejoin="round" filter="url(#fuzzy)" /><polyline points="48.82,-56.03 49.57,-54.86 50.12,-53.72 50.56,-52.67 50.91,-51.7 51.13,-50.94 51.15,-50.51 50.95,-50.48 50.52,-50.87 49.86,-51.66 48.97,-52.85 47.83,-54.44 46.42,-56.46 44.69,-58.93 42.67,-61.86 40.38,-65.26 37.87,-69.15 35.05,-73.7" fill="none" stroke="rgb(134, 30, 19)" stroke-width="2" stroke-linejoin="round" filter="url(#fuzzy)" /><polyline points="11.84,-90.43 13.13,-90.03 14.21,-89.65 15.3,-89.2 16.43,-88.68 17.57,-88.12 18.7,-87.55 19.79,-86.99 20.8,-86.49 21.7,-86.05 22.48,-85.66 23.14,-85.34 23.66,-85.06 24.03,-84.86 24.22,-84.73 24.19,-84.71 23.93,-84.8 23.42,-85.02 22.61,-85.4 21.46,-85.99 20.02,-86.76 18.47,-87.67" fill="none" stroke="rgb(134, 30, 19)" stroke-width="2" stroke-linejoin="round" filter="url(#fuzzy)" /><polyline points="35.81,-75.32 36.97,-74.01 37.69,-73.11 38.42,-72.14 39.16,-71.15 39.82,-70.24 40.35,-69.49 40.73,-68.91 40.97,-68.49 41.06,-68.24 40.96,-68.19 40.68,-68.33 40.21,-68.67 39.57,-69.19 38.73,-69.89 37.7,-70.78 36.42,-71.91 34.85,-73.36 32.94,-75.19 30.62,-77.45 27.82,-80.16 24.63,-83.26" fill="none" stroke="rgb(134, 30, 19)" stroke-width="2" stroke-linejoin="round" filter="url(#fuzzy)" /><polyline points="17.02,-88.75 17.27,-88.43 17.91,-88.07 18.74,-87.64 19.48,-87.27 19.96,-87.03 20.17,-86.91 20.14,-86.86 19.89,-86.87 19.33,-86.98 18.36,-87.24 16.9,-87.7 14.92,-88.38 12.43,-89.28 9.38,-90.38" fill="none" stroke="rgb(134, 30, 19)" stroke-width="2" stroke-linejoin="round" filter="url(#fuzzy)" /><polyline points="6.81,-91.66 7.62,-91.5 8.59,-91.21 9.73,-90.88 10.9,-90.53 12.04,-90.17 13.15,-89.79 14.24,-89.41 15.31,-89.01 16.34,-88.61 17.3,-88.22 18.19,-87.84 18.96,-87.5 19.61,-87.2 20.1,-86.97 20.4,-86.83 20.5,-86.78 20.37,-86.84 20.03,-86.99 19.45,-87.24 18.62,-87.61 17.49,-88.1 16.06,-88.7 14.27,-89.44" fill="none" stroke="rgb(134, 30, 19)" stroke-width="2" stroke-linejoin="round" filter="url(#fuzzy)" /><polyline points="-33.32,-77.87 -31.95,-78.91 -30.85,-79.82 -29.79,-80.71 -28.82,-81.52 -27.94,-82.22 -27.15,-82.81 -26.44,-83.3 -25.82,-83.69 -25.32,-83.99 -24.95,-84.19 -24.71,-84.28 -24.59,-84.27 -24.61,-84.14 -24.77,-83.87 -25.1,-83.44 -25.64,-82.84 -26.4,-82.07 -27.39,-81.12 -28.61,-80.01 -30.1,-78.68 -31.92,-77.06 -34.17,-75.09 -36.98,-72.65" fill="none" stroke="rgb(134, 30, 19)" stroke-width="2" stroke-linejoin="round" filter="url(#fuzzy)" /><polyline points="48.82,-56.03 49.58,-54.84 50.15,-53.65 50.63,-52.51 51.04,-51.41 51.35,-50.46 51.52,-49.75 51.51,-49.33 51.34,-49.2 51,-49.32 50.51,-49.71 49.87,-50.33 49.07,-51.19 48.1,-52.3 46.94,-53.69 45.54,-55.41 43.9,-57.51 41.99,-60.02 39.82,-62.96 37.39,-66.31 34.69,-70.12 31.68,-74.43 28.52,-79.18" fill="none" stroke="rgb(134, 30, 19)" stroke-width="2" stroke-linejoin="round" filter="url(#fuzzy)" /><polyline points="14.02,-89.85 15.87,-89.05 16.67,-88.55 17.11,-88.11 17.34,-87.67 17.29,-87.26 16.88,-86.9 16.1,-86.57 14.98,-86.22 13.51,-85.84 11.66,-85.42 9.37,-84.99 6.6,-84.57 3.35,-84.19 -0.42,-83.84 -4.72,-83.52 -9.61,-83.22 -15.1,-82.93 -21.11,-82.75" fill="none" stroke="rgb(134, 30, 19)" stroke-width="2" stroke-linejoin="round" filter="url(#fuzzy)" /><polyline points="24.86,-84.34 26.19,-83.44 27.36,-82.55 28.37,-81.69 29.4,-80.75 30.48,-79.73 31.59,-78.66 32.68,-77.59 33.71,-76.56 34.68,-75.58 35.6,-74.62 36.49,-73.71 37.34,-72.84 38.1,-72.07 38.74,-71.43 39.2,-70.96 39.48,-70.67 39.55,-70.62 39.37,-70.87 38.93,-71.46 38.27,-72.33 37.39,-73.46" fill="none" stroke="rgb(134, 30, 19)" stroke-width="2" stroke-linejoin="round" filter="url(#fuzzy)" /><polyline points="-4.1,-91.95 -2.88,-92.06 -1.62,-92.1 -0.47,-92.09 0.64,-92.05 1.8,-91.99 3.04,-91.9 4.29,-91.79 5.43,-91.67 6.35,-91.56 7.02,-91.48 7.44,-91.43 7.65,-91.41 7.69,-91.41 7.55,-91.43 7.21,-91.47 6.63,-91.57 5.64,-91.78" fill="none" stroke="rgb(134, 30, 19)" stroke-width="2" stroke-linejoin="round" filter="url(#fuzzy)" /><polyline points="-25.97,-83.88 -24.99,-84.09 -23.75,-84.29 -22.2,-84.44 -20.32,-84.51 -18.09,-84.51 -15.52,-84.41 -12.65,-84.2 -9.55,-83.88 -6.25,-83.47 -2.8,-82.98 0.79,-82.44 4.51,-81.87 8.31,-81.28 12.15,-80.67 15.98,-80.03 19.8,-79.34 23.6,-78.58 27.35,-77.78 30.85,-77.08" fill="none" stroke="rgb(134, 30, 19)" stroke-width="2" stroke-linejoin="round" filter="url(#fuzzy)" /><polyline points="-4.1,-91.95 -2.86,-92.06 -1.55,-92.08 -0.32,-92.05 0.87,-91.99 2.13,-91.9 3.47,-91.79 4.83,-91.66 6.07,-91.52 7.06,-91.4 7.77,-91.31 8.17,-91.27 8.3,-91.28 8.16,-91.34 7.75,-91.42 7,-91.51" fill="none" stroke="rgb(134, 30, 19)" stroke-width="2" stroke-linejoin="round" filter="url(#fuzzy)" /><polyline points="-0.35,-92 -0.02,-92.16 0.53,-92.15 1.28,-92.03 1.99,-91.81 2.43,-91.52 2.51,-91.18 2.23,-90.76 1.65,-90.28 0.81,-89.69 -0.3,-88.99 -1.69,-88.17 -3.41,-87.23 -5.48,-86.18 -7.94,-85.02 -10.8,-83.73 -14.09,-82.31 -17.82,-80.75 -21.96,-79.09 -26.51,-77.39 -31.54,-75.6" fill="none" stroke="rgb(134, 30, 19)" stroke-width="2" stroke-linejoin="round" filter="url(#fuzzy)" /><polyline points="33.53,-77.06 35.23,-75.46 36.37,-74.31 37.4,-73.07 38.46,-71.65 39.6,-70.06 40.77,-68.37 41.92,-66.72 42.99,-65.19 43.97,-63.81 44.84,-62.58 45.59,-61.5 46.19,-60.62 46.63,-59.98 46.87,-59.65 46.85,-59.81 46.39,-60.72" fill="none" stroke="rgb(134, 30, 19)" stroke-width="2" stroke-linejoin="round" filter="url(#fuzzy)" /><polyline points="3.86,-92.14 5.01,-91.88 5.85,-91.59 6.75,-91.24 7.85,-90.82 9.15,-90.31 10.6,-89.71 12.15,-89.06 13.74,-88.37 15.34,-87.67 16.91,-86.97 18.44,-86.26 19.93,-85.56 21.35,-84.88 22.7,-84.22 23.97,-83.59 25.14,-83 26.2,-82.47 27.1,-82.04 27.78,-81.76 28.15,-81.69 28.23,-81.81 28.11,-82" fill="none" stroke="rgb(134, 30, 19)" stroke-width="2" stroke-linejoin="round" filter="url(#fuzzy)" /><polyline points="30.01,-80.51 30.75,-79.85 31.68,-78.96 32.61,-78.02 33.51,-77.08 34.44,-76.08 35.43,-75.02 36.47,-73.94 37.44,-72.93 38.27,-72.06 38.91,-71.37 39.33,-70.88 39.52,-70.67 39.38,-70.87 38.87,-71.54 38.17,-72.5" fill="none" stroke="rgb(134, 30, 19)" stroke-width="2" stroke-linejoin="round" filter="url(#fuzzy)" /><polyline points="49.66,-55.02 50.04,-53.63 49.74,-52.82 48.95,-52.17 47.55,-51.82 45.45,-51.92 42.6,-52.5 39.01,-53.55 34.69,-55.01 29.64,-56.89 23.84,-59.18 17.26,-61.87 9.84,-64.96 1.55,-68.45 -7.6,-72.38 -17.61,-76.77" fill="none" stroke="rgb(134, 30, 19)" stroke-width="2" stroke-linejoin="round" filter="url(#fuzzy)" /><polyline points="-33.98,-76.76 -32.8,-77.99 -32.06,-78.64 -31.11,-79.37 -29.92,-80.24 -28.59,-81.2 -27.22,-82.15 -25.87,-83.07 -24.56,-83.91 -23.29,-84.68 -22.11,-85.39 -21.01,-86.04 -20.04,-86.63 -19.22,-87.16 -18.55,-87.6 -18.07,-87.95 -17.78,-88.17 -17.69,-88.25 -17.84,-88.18 -18.29,-87.98 -19.09,-87.69" fill="none" stroke="rgb(134, 30, 19)" stroke-width="2" stroke-linejoin="round" filter="url(#fuzzy)" /><polyline points="27.98,-82.4 28.28,-81.93 29.01,-81.21 30.06,-80.16 31.25,-78.91 32.46,-77.6 33.63,-76.28 34.78,-74.95 35.93,-73.62 37.11,-72.28 38.3,-70.91 39.46,-69.57 40.57,-68.28 41.57,-67.09 42.43,-66.05 43.14,-65.2 43.66,-64.61 43.98,-64.28 44.12,-64.17 44.09,-64.24 43.91,-64.51" fill="none" stroke="rgb(134, 30, 19)" stroke-width="2" stroke-linejoin="round" filter="url(#fuzzy)" /><polyline points="51.49,-50.57 52.14,-48.89 52.24,-47.83 51.95,-47.1 51.36,-46.55 50.48,-46.16 49.3,-45.92 47.8,-45.8 45.97,-45.8 43.79,-45.91 41.25,-46.14 38.32,-46.51 34.98,-47.06 31.22,-47.82 27.06,-48.81 22.47,-50.04 17.45,-51.5 12,-53.22 6.1,-55.18 -0.22,-57.38 -6.97,-59.8 -14.15,-62.41 -21.83,-65.22 -30.02,-68.31" fill="none" stroke="rgb(134, 30, 19)" stroke-width="2" stroke-linejoin="round" filter="url(#fuzzy)" /><polyline points="48.82,-56.03 49.47,-54.98 49.71,-54.17 49.6,-53.68 49.19,-53.48 48.42,-53.69 47.19,-54.47 45.44,-55.88 43.17,-57.93 40.38,-60.62 37.05,-63.94 33.16,-67.91 28.68,-72.52 23.58,-77.79 17.85,-83.78" fill="none" stroke="rgb(134, 30, 19)" stroke-width="2" stroke-linejoin="round" filter="url(#fuzzy)" /><polyline points="17.42,-88.42 18.75,-87.6 19.56,-87.01 19.78,-86.64 19.59,-86.33 19.1,-85.96 18.34,-85.52 17.22,-85.02 15.67,-84.52 13.63,-84.04 11.09,-83.59 8.01,-83.17 4.37,-82.76 0.17,-82.35 -4.62,-81.93 -10.02,-81.5 -16.12,-81.02 -23.1,-80.42" fill="none" stroke="rgb(134, 30, 19)" stroke-width="2" stroke-linejoin="round" filter="url(#fuzzy)" /><polyline points="10.82,-90.85 11.63,-90.5 12.54,-90.14 13.63,-89.7 14.84,-89.19 16.13,-88.61 17.44,-87.97 18.75,-87.31 20.01,-86.67 21.18,-86.07 22.23,-85.54 23.11,-85.12 23.82,-84.8 24.34,-84.57 24.67,-84.44 24.75,-84.43 24.49,-84.62 23.75,-85.08 22.61,-85.8" fill="none" stroke="rgb(134, 30, 19)" stroke-width="2" stroke-linejoin="round" filter="url(#fuzzy)" /><polyline points="-33.98,-76.76 -32.86,-77.97 -32.28,-78.56 -31.6,-79.18 -30.79,-79.87 -29.95,-80.58 -29.2,-81.21 -28.58,-81.7 -28.11,-82.03 -27.79,-82.19 -27.66,-82.17 -27.73,-81.96 -28.02,-81.58 -28.54,-81.01 -29.28,-80.26 -30.27,-79.26 -31.57,-77.96 -33.27,-76.26 -35.49,-74.05 -38.35,-71.21" fill="none" stroke="rgb(134, 30, 19)" stroke-width="2" stroke-linejoin="round" filter="url(#fuzzy)" /><polyline points="43.79,-65.04 43.85,-64.75 44.2,-64.1 44.74,-63.27 45.35,-62.33 45.97,-61.34 46.55,-60.37 47.01,-59.56 47.29,-59.03 47.36,-58.84 47.23,-59 46.88,-59.49 46.33,-60.34 45.53,-61.59 44.38,-63.36 42.79,-65.77" fill="none" stroke="rgb(134, 30, 19)" stroke-width="2" stroke-linejoin="round" filter="url(#fuzzy)" /><polyline points="14.57,-89.59 14.94,-89.46 15.78,-89.04 16.47,-88.62 16.99,-88.21 17.33,-87.82 17.46,-87.49 17.31,-87.22 16.89,-86.98 16.2,-86.76 15.25,-86.54 13.99,-86.32 12.37,-86.12 10.35,-85.94 7.89,-85.8 5.01,-85.71 1.69,-85.66 -2.06,-85.67 -6.28,-85.73 -11.02,-85.84 -16.34,-85.94" fill="none" stroke="rgb(134, 30, 19)" stroke-width="2" stroke-linejoin="round" filter="url(#fuzzy)" /><polyline points="-0.11,-92.34 0.68,-92.22 2,-92.08 3.57,-91.86 5.08,-91.58 6.43,-91.28 7.67,-90.97 8.88,-90.65 10.09,-90.33 11.31,-90 12.5,-89.68 13.61,-89.38 14.62,-89.1 15.49,-88.85 16.19,-88.64 16.69,-88.5 16.97,-88.44 16.99,-88.49 16.74,-88.64 16.17,-88.92 15.25,-89.32" fill="none" stroke="rgb(134, 30, 19)" stroke-width="2" stroke-linejoin="round" filter="url(#fuzzy)" /><polyline points="43.75,-64.51 44.3,-63.58 44.19,-62.91 43.53,-62.23 42.34,-61.53 40.55,-60.95 38.07,-60.61 34.86,-60.56 30.93,-60.78 26.28,-61.2 20.9,-61.78 14.8,-62.48 7.96,-63.36 0.36,-64.47 -8.06,-65.85 -17.39,-67.51 -27.62,-69.47" fill="none" stroke="rgb(134, 30, 19)" stroke-width="2" stroke-linejoin="round" filter="url(#fuzzy)" /><polyline points="13.36,-89.97 14.3,-89.58 15.5,-88.88 17,-87.86 18.7,-86.62 20.55,-85.18 22.54,-83.6 24.6,-81.91 26.67,-80.19 28.73,-78.46 30.77,-76.74 32.8,-75.04 34.8,-73.35 36.71,-71.69 38.52,-70.05 40.24,-68.43 41.97,-66.81" fill="none" stroke="rgb(134, 30, 19)" stroke-width="2" stroke-linejoin="round" filter="url(#fuzzy)" /><polyline points="33.53,-77.06 35.2,-75.52 36.24,-74.57 37.11,-73.66 37.94,-72.67 38.79,-71.59 39.64,-70.48 40.42,-69.44 41.11,-68.52 41.67,-67.78 42.08,-67.22 42.31,-66.89 42.35,-66.8 42.19,-66.99 41.81,-67.46 41.22,-68.2 40.44,-69.19 39.46,-70.4 38.17,-71.89 36.38,-73.9" fill="none" stroke="rgb(134, 30, 19)" stroke-width="2" stroke-linejoin="round" filter="url(#fuzzy)" /><polyline points="54.75,-41.92 54.71,-42.15 55.06,-41.23 55.4,-40.17 55.67,-39.16 55.85,-38.3 55.92,-37.66 55.87,-37.28 55.69,-37.17 55.39,-37.35 54.94,-37.86 54.32,-38.73 53.54,-39.97 52.56,-41.58 51.4,-43.58 50.03,-45.98 48.44,-48.84 46.62,-52.17 44.57,-56 42.22,-60.38 39.49,-65.43 36.29,-71.33" fill="none" stroke="rgb(134, 30, 19)" stroke-width="2" stroke-linejoin="round" filter="url(#fuzzy)" /><polyline points="45.49,-62.37 45.84,-61.74 46.57,-60.4 47.27,-59.1 47.81,-58.1 48.15,-57.41 48.33,-56.99 48.35,-56.78 48.23,-56.76 47.94,-56.96 47.45,-57.44 46.73,-58.27 45.73,-59.53 44.42,-61.28 42.75,-63.56 40.69,-66.4 38.25,-69.84 35.59,-73.78" fill="none" stroke="rgb(134, 30, 19)" stroke-width="2" stroke-linejoin="round" filter="url(#fuzzy)" /><polyline points="28.2,-81.79 28.64,-81.64 29.49,-80.95 30.3,-80.24 30.95,-79.63 31.39,-79.15 31.65,-78.81 31.77,-78.56 31.74,-78.39 31.55,-78.33 31.14,-78.4 30.47,-78.65 29.51,-79.06 28.23,-79.66 26.63,-80.46 24.68,-81.5 22.36,-82.81 19.63,-84.44 16.44,-86.38 12.63,-88.64" fill="none" stroke="rgb(134, 30, 19)" stroke-width="2" stroke-linejoin="round" filter="url(#fuzzy)" /><polyline points="46.41,-60.68 47.41,-58.63 47.37,-57.99 46.74,-57.9 45.57,-58.21 43.84,-58.86 41.55,-59.82 38.65,-61.11 35.13,-62.78 30.92,-64.92 25.98,-67.65 20.25,-71.01 13.7,-75.01 6.28,-79.58 -2.13,-84.7" fill="none" stroke="rgb(134, 30, 19)" stroke-width="2" stroke-linejoin="round" filter="url(#fuzzy)" /><polyline points="52.88,-47.16 53.06,-46.51 52.98,-45.98 52.65,-45.68 52.01,-45.71 51.04,-46.09 49.73,-46.8 48.04,-47.82 45.96,-49.2 43.42,-51 40.38,-53.29 36.79,-56.12 32.65,-59.5 28,-63.42 22.86,-67.92 17.18,-73.03 10.84,-78.79 3.73,-85.12" fill="none" stroke="rgb(134, 30, 19)" stroke-width="2" stroke-linejoin="round" filter="url(#fuzzy)" /><polyline points="-8.57,-91.24 -7.53,-91.4 -6.43,-91.36 -5.11,-91.22 -3.6,-91.01 -1.92,-90.74 -0.11,-90.39 1.79,-89.97 3.73,-89.5 5.71,-88.98 7.73,-88.42 9.8,-87.83 11.88,-87.21 13.92,-86.58 15.86,-85.95 17.69,-85.33 19.43,-84.73 21.1,-84.14 22.69,-83.59 24.15,-83.12 25.41,-82.76 26.41,-82.54 27.19,-82.39" fill="none" stroke="rgb(134, 30, 19)" stroke-width="2" stroke-linejoin="round" filter="url(#fuzzy)" /><polyline points="42.27,-67.13 43.14,-65.82 43.39,-65.23 43.4,-64.89 43.27,-64.66 42.98,-64.52 42.5,-64.46 41.77,-64.54 40.74,-64.84 39.33,-65.46 37.53,-66.45 35.31,-67.82 32.7,-69.55 29.7,-71.6 26.31,-73.97 22.48,-76.69 18.08,-79.82 12.89,-83.45 6.85,-87.61" fill="none" stroke="rgb(134, 30, 19)" stroke-width="2" stroke-linejoin="round" filter="url(#fuzzy)" /><polyline points="-12.36,-90.39 -11.79,-90.45 -10.92,-90.55 -9.77,-90.68 -8.48,-90.81 -7.14,-90.9 -5.77,-90.96 -4.37,-90.99 -2.94,-91 -1.46,-91 0.02,-90.99 1.47,-90.98 2.87,-90.97 4.16,-90.96 5.35,-90.95 6.42,-90.94 7.39,-90.93 8.22,-90.91 8.89,-90.9 9.34,-90.9 9.53,-90.94 9.42,-91.01 9,-91.14 8.32,-91.33" fill="none" stroke="rgb(134, 30, 19)" stroke-width="2" stroke-linejoin="round" filter="url(#fuzzy)" /><polyline points="58.02,-30.68 13.88,-54.36 19.66,-59.12 30.8,-58.04 35.86,-57.87 34.23,-59.82 28.28,-63.06 20.73,-66.54 13.44,-69.66 7.03,-72.28 1.43,-74.52 -3.23,-76.52 -6.15,-78.37 -6.15,-80.01 -2.59,-81.25 3.97,-81.93 11.68,-82 18.09,-81.68 21.07,-81.29 19.23,-80.96 11.38,-80.31 -3.99,-78.43 -26.19,-73.72 -42.78,-66.07" fill="none" stroke="rgb(134, 30, 19)" stroke-width="2" stroke-linejoin="round" filter="url(#fuzzy)" /><polyline points="-41.78,-67.65 -5.19,-73.68 11.12,-71.72 10.28,-72.85 5.42,-75.74 2.9,-78.41 2.68,-79.58 3.25,-78.55 4.24,-75.36 6.22,-70.92 9.49,-66.63 13.5,-63.51 17.22,-61.53 19.78,-59.75 20.48,-57.25 17.66,-54.56 7.8,-54.2 -11.59,-58.72 -32.9,-66.59 -35.73,-75.07" fill="none" stroke="rgb(134, 30, 19)" stroke-width="2" stroke-linejoin="round" filter="url(#fuzzy)" /><polyline points="45.49,-62.42 29.78,-75.08 28.37,-76.18 24.39,-78.15 17.97,-81.18 11.88,-83.21 7.25,-83.32 4.05,-81.89 1.98,-79.92 0.73,-78.34 0.01,-77.66 -0.44,-77.79 -0.78,-78.27 -1.38,-78.63 -2.96,-78.7 -6.41,-78.57 -12.1,-78.34 -19.23,-77.98 -25.85,-77.62 -29.46,-77.76 -28.01,-79.06 -19.11,-82.3 6.81,-91.66" fill="none" stroke="rgb(134, 30, 19)" stroke-width="2" stroke-linejoin="round" filter="url(#fuzzy)" /><polyline points="-0.11,-92.34 12.04,-75.97 16.06,-65.48 23.11,-62.02 26.58,-64.8 24.08,-69.86 16.94,-73.93 8.08,-76.04 1.07,-76.63 -1.22,-76.1 1.65,-74.41 7.21,-71.57 12.33,-68.18 17.07,-65.36 24.72,-64.63 32.61,-68.97 21.41,-86.61" fill="none" stroke="rgb(134, 30, 19)" stroke-width="2" stroke-linejoin="round" filter="url(#fuzzy)" /><polyline points="57.27,-33.83 33.21,-61.83 22.09,-69.86 9.08,-75.52 -1.22,-80.03 -5.34,-83.22 -3.76,-84.87 1.58,-84.39 8.98,-81.08 16.69,-74.98 22.07,-67.52 22.01,-61.41 15.27,-59.42 5.33,-62.32 0.74,-67.28 9.95,-68.96 30.34,-65.69 35.81,-75.32" fill="none" stroke="rgb(134, 30, 19)" stroke-width="2" stroke-linejoin="round" filter="url(#fuzzy)" /><polyline points="-33.32,-77.87 -16.63,-84.7 -7.28,-83.73 -4.86,-81.06 -4.11,-79.67 -1.04,-79.86 4.52,-80.67 10.9,-81.01 16.72,-80.26 21.45,-78.49 24.87,-76.34 26.57,-74.71 25.94,-74.29 22.68,-75.18 17.3,-76.86 11.29,-78.36 6.71,-78.69 5.4,-77.23 8.25,-74.04 14.59,-69.98 21.59,-66.71 23.93,-66.41 14.69,-70.39 -9.68,-76.17 -37.31,-73.37" fill="none" stroke="rgb(134, 30, 19)" stroke-width="2" stroke-linejoin="round" filter="url(#fuzzy)" /><polyline points="40.17,-69.81 9.45,-74.55 -10.84,-72.95 -12.59,-74.44 -3.64,-76.97 8.07,-78.25 18.25,-77.88 25.63,-76.31 30.48,-73.96 33.02,-71.07 32.71,-67.82 28.72,-64.36 21.43,-60.87 13.65,-58.04 9.82,-57.17 14.71,-57.71 53.34,-45.63" fill="none" stroke="rgb(134, 30, 19)" stroke-width="2" stroke-linejoin="round" filter="url(#fuzzy)" /><polyline points="-27.92,-82.38 -17.7,-82.26 -8.08,-74.8 -2,-68.48 1.44,-63.99 3.87,-60.9 4.48,-59.59 2.57,-60.13 -0.59,-61.67 -2.48,-62.9 -1.17,-62.96 3.73,-61.76 11.37,-59.73 20.11,-57.66 27.93,-56.51 32.69,-57.25 32.92,-60.26 28.68,-64.7 22.31,-68.59 19.13,-70.04 25.56,-70.17 27.98,-82.4" fill="none" stroke="rgb(134, 30, 19)" stroke-width="2" stroke-linejoin="round" filter="url(#fuzzy)" /><polyline points="21.25,-86.28 26.7,-76.35 15.99,-70.03 2.37,-66.92 -6.38,-65.58 -9.86,-65.73 -8.74,-67 -3.46,-68.58 4.63,-69.71 13.06,-70.23 19.3,-70.5 21.98,-70.99 21.14,-71.94 17.63,-73.37 12.32,-75.32 5.8,-77.79 -1.3,-80.44 -8.1,-82.46 -13.74,-82.86 -18.19,-81.09 -23.21,-77.13 -31.75,-72.08 -36.23,-74.65" fill="none" stroke="rgb(134, 30, 19)" stroke-width="2" stroke-linejoin="round" filter="url(#fuzzy)" /><polyline points="5.47,-91.84 15.35,-86.6 13.33,-84.43 9.8,-84.44 8.67,-85.34 9.74,-86.01 11.68,-85.72 13.17,-84.21 13.19,-81.55 11.17,-78.11 6.85,-74.46 0.28,-71.29 -7.96,-69.22 -16.37,-68.61 -22.48,-69.23 -23.24,-70.29 -16.12,-70.61 -0.55,-69.45 19.75,-67.87 34.28,-70.02 31.68,-79.23" fill="none" stroke="rgb(134, 30, 19)" stroke-width="2" stroke-linejoin="round" filter="url(#fuzzy)" /><polyline points="54.1,-43.8 42.77,-52.06 23.82,-53.09 9.46,-56.15 5.3,-61.03 7.72,-66.63 12.35,-71.59 17.04,-74.79 21.05,-76.01 23.79,-75.93 24.53,-75.55 22.73,-75.58 18.41,-76.12 12.28,-76.8 5.56,-77.14 -0.28,-76.76 -4.07,-75.48 -5.33,-73.47 -4.59,-71.32 -3.23,-70.02 -2.54,-70.52 -2.11,-73.09 0.75,-77.12 8.91,-80.71 33.53,-77.06" fill="none" stroke="rgb(134, 30, 19)" stroke-width="2" stroke-linejoin="round" filter="url(#fuzzy)" /><polyline points="-36.02,-74.89 -33.14,-77.24 -32.33,-76.97 -29.35,-78.04 -24.39,-79.18 -17.53,-78.33 -8.32,-75.21 2.75,-71.29 13.65,-68.49 21.88,-67.85 25.89,-69.28 25.77,-71.96 22.86,-75.04 18.79,-77.99 14.39,-80.47 9.41,-82.02 3.64,-81.78 -0.6,-78.67 3.54,-72.04 24.55,-62.09 53.92,-44.25" fill="none" stroke="rgb(134, 30, 19)" stroke-width="2" stroke-linejoin="round" filter="url(#fuzzy)" /><polyline points="-8.57,-91.24 8.6,-80.18 11.44,-72.76 6.05,-73.54 2.91,-77.15 3.81,-80.28 6.47,-81.59 9.44,-80.62 13.08,-77.42 18.23,-72.59 24.64,-67.26 30.54,-62.78 33.61,-60.32 32.36,-60.45 27.08,-63.11 19.56,-67.84 11.69,-73.92 4.41,-80.34 -0.95,-85.43 2.11,-87.05 26.18,-83.5" fill="none" stroke="rgb(134, 30, 19)" stroke-width="2" stroke-linejoin="round" filter="url(#fuzzy)" /><polyline points="-47.46,-59.15 -28.49,-63.01 -9.49,-70.02 2.03,-73.99 10.63,-74 16.75,-71.87 19.8,-69.42 20.73,-67.68 21.42,-67.03 23.02,-67.38 25.04,-68.34 25.67,-69.48 22.89,-70.56 15.8,-71.55 5.82,-72.46 -2.9,-73.26 -4.72,-73.75 4.4,-72.82 23.13,-67.29 43.94,-53.78 55.61,-39.93" fill="none" stroke="rgb(134, 30, 19)" stroke-width="2" stroke-linejoin="round" filter="url(#fuzzy)" /><polyline points="18.9,-87.5 -15.97,-72.92 -16.79,-69.55 -11.51,-71.87 -8.4,-75.37 -5.99,-77.94 -2.9,-79.55 0.23,-80.92 2.39,-82.39 3.54,-83.63 4.72,-83.84 7.23,-82.23 11.65,-78.45 17.17,-72.83 21.96,-66.43 24.73,-60.71 26.63,-56.92 30.13,-56.75 30.54,-65.62 7.73,-91.6" fill="none" stroke="rgb(134, 30, 19)" stroke-width="2" stroke-linejoin="round" filter="url(#fuzzy)" /><polyline points="-45.67,-62.25 -35.44,-68.23 -16.77,-71.08 0.41,-73.8 10.89,-75.43 14.46,-75.38 12.47,-74.21 7.88,-72.41 4.9,-70.16 6.6,-68.28 12.31,-68.54 18.21,-72.05 21.76,-76.93 25.53,-78.32 33.98,-73.3 40.17,-69.81" fill="none" stroke="rgb(134, 30, 19)" stroke-width="2" stroke-linejoin="round" filter="url(#fuzzy)" /><polyline points="-10.68,-90.7 -12.05,-83.37 -8.24,-77.65 -5.35,-74.27 -1.52,-72.75 3.2,-72.16 8.33,-72.15 13.69,-72.5 18.88,-72.89 22.83,-73.17 24.5,-73.42 24.1,-73.59 23.31,-73.33 23.71,-72.82 24.87,-73.55 24.18,-77.38 9.73,-90.93" fill="none" stroke="rgb(134, 30, 19)" stroke-width="2" stroke-linejoin="round" filter="url(#fuzzy)" /><polyline points="57.43,-33.33 21.66,-71.04 7.56,-84.62 1.51,-88.83 0.21,-89.25 2.35,-87.55 6.71,-84.4 12.01,-80.66 17.08,-77.3 21.31,-74.82 24.7,-73.07 27.23,-71.8 27.72,-71.36 23.9,-72.73 14.37,-76.56 2.55,-81.67 0.59,-84.64 27.98,-82.4" fill="none" stroke="rgb(134, 30, 19)" stroke-width="2" stroke-linejoin="round" filter="url(#fuzzy)" /><polyline points="-45.67,-62.25 -23.15,-64.71 3.64,-67.19 19.85,-67.67 26.84,-67.06 28.35,-66.37 27.99,-65.73 27.91,-64.91 28.16,-63.93 27.5,-63.21 24.87,-63.31 20.6,-64.52 16.37,-66.64 14.14,-69.15 14.86,-71.54 17.94,-73.6 21.69,-75.26 24.27,-76.47 24.18,-77.1 20.18,-77.23 11.41,-77.3 -1.11,-77.93 -11.92,-80.02 -11.94,-85.41 -2.96,-92.07" fill="none" stroke="rgb(134, 30, 19)" stroke-width="2" stroke-linejoin="round" filter="url(#fuzzy)" /><polyline points="45.49,-62.42 29.26,-69.45 26.63,-67.41 18.55,-70.59 8.86,-76.19 1.67,-80.6 -2.68,-82.37 -5.41,-81.87 -7.36,-80.28 -8.46,-78.8 -8.31,-78.16 -6.76,-78.5 -4.1,-79.55 -0.88,-80.93 2.31,-82.33 4.88,-83.62 6.38,-84.72 6.68,-85.41 5.87,-85.27 3.7,-83.92 -1.25,-81.65 -10.64,-79.62 -23.5,-77.53 -43.38,-65.45" fill="none" stroke="rgb(134, 30, 19)" stroke-width="2" stroke-linejoin="round" filter="url(#fuzzy)" /><polyline points="5.66,-91.56 16.22,-66.06 13.74,-58.57 14.16,-61.37 14.76,-67.48 16.17,-71.22 19.07,-71.03 21.78,-68.85 21.88,-67.53 18.88,-68.63 14.64,-71.85 11.51,-75.82 9.91,-79.35 7.87,-81.95 3.01,-83.29 -4.81,-82.3 -11.62,-77.33 -5.91,-68.66 43.73,-64.94" fill="none" stroke="rgb(134, 30, 19)" stroke-width="2" stroke-linejoin="round" filter="url(#fuzzy)" /><polyline points="41.93,-67.4 14.41,-74.4 -13.73,-71.34 -30.74,-67.71 -37.5,-67.15 -37.55,-69.38 -33.57,-72.78 -26.57,-75.91 -16.74,-78.16 -4.82,-79.57 7.16,-80.37 16.72,-80.56 22.52,-79.93 23.78,-79.27 15.76,-81.96 -12.36,-90.39" fill="none" stroke="rgb(134, 30, 19)" stroke-width="2" stroke-linejoin="round" filter="url(#fuzzy)" /><polyline points="-29.21,-81.35 14.27,-63.35 19.95,-69.66 20.09,-73.83 21.81,-73.58 23.87,-71.79 23.26,-70.46 18.24,-70.16 9.39,-70.76 -0.69,-72.02 -8.65,-73.75 -11.95,-75.78 -9.82,-77.82 -3.37,-79.48 5.05,-80.45 12.63,-80.69 16.76,-80.38 15.33,-79.59 7.06,-77.76 -7.94,-73.66 -27.05,-66.75 -43.3,-59.85 -47.64,-58.76" fill="none" stroke="rgb(134, 30, 19)" stroke-width="2" stroke-linejoin="round" filter="url(#fuzzy)" /><polyline points="-17.69,-88.26 1.97,-69.06 -7.49,-67.97 -12.33,-72.7 -13.02,-77.44 -12.85,-80.34 -12.45,-81.55 -11.65,-81.65 -10.73,-81.05 -10.07,-80.08 -9.66,-79.14 -9.17,-78.69 -8.52,-79.04 -8.16,-80.11 -8.84,-81.51 -10.86,-82.7 -13.48,-83.26 -15.11,-82.86 -13.85,-81.34 -7.57,-79.65 4.43,-81.6 3.86,-92.14" fill="none" stroke="rgb(134, 30, 19)" stroke-width="2" stroke-linejoin="round" filter="url(#fuzzy)" /><polyline points="42.27,-67.13 10.64,-62.99 13.15,-60.15 11.14,-61.57 5.71,-65.73 1.2,-70.58 -2.11,-74.83 -5.24,-77.87 -8.02,-79.46 -9.35,-79.75 -8.64,-79.23 -6.86,-78.39 -5.76,-77.46 -6.03,-76.22 -5.81,-74.26 -2.09,-71.23 5.08,-67.41 9.32,-64.81 6.02,-68.6 28.07,-82.33" fill="none" stroke="rgb(134, 30, 19)" stroke-width="2" stroke-linejoin="round" filter="url(#fuzzy)" /><polyline points="-15.26,-89.52 22.81,-63.36 25.86,-61.05 25.41,-60.52 26.55,-60.12 24.97,-61.61 18.21,-64.68 7.99,-67.9 -1.9,-70.51 -8.51,-72.83 -11.35,-75.29 -12,-77.66 -12.32,-79.03 -12.77,-78.69 -12.23,-77.15 -9.83,-76.43 -5.65,-79 17.1,-88.31" fill="none" stroke="rgb(134, 30, 19)" stroke-width="2" stroke-linejoin="round" filter="url(#fuzzy)" /><polyline points="-24.89,-84.29 -13.23,-79.33 -7.1,-68.55 1.35,-62.44 10.21,-60.34 16.76,-60.07 18.75,-60.61 16.19,-61.74 11.58,-63.19 8.34,-64.27 8.94,-64.11 13.67,-62.3 20.28,-59.41 24.99,-56.7 24.78,-55.19 19.87,-55.16 14.44,-57.49 12.49,-66.04 -7.59,-91.45" fill="none" stroke="rgb(134, 30, 19)" stroke-width="2" stroke-linejoin="round" filter="url(#fuzzy)" /><polyline points="5.47,-91.84 9.47,-82.59 12.58,-76.78 4.4,-76.14 -7.54,-75.92 -15.83,-75.12 -17.54,-74.74 -14.09,-75.59 -9.04,-77.5 -5.45,-79.54 -4.08,-80.55 -3.38,-79.68 -1.05,-76.91 3.83,-73.27 9.43,-70.55 11.74,-70.39 7.41,-72.9 -2.52,-75.63 -10.61,-74.3 -3.24,-66.04 48.55,-56.76" fill="none" stroke="rgb(134, 30, 19)" stroke-width="2" stroke-linejoin="round" filter="url(#fuzzy)" />
    </g>
    
        <g id="pointNose">
          <g id="rightNose"><circle r="1.558" cx="11.292000000000002" cy="34.946" stroke="black" fill="none" stroke-width="1.0" filter="url(#fuzzy)" /><circle r="1.812" cx="11.984" cy="33.181999999999995" stroke="black" fill="none" stroke-width="1.0" filter="url(#fuzzy)" /><circle r="2.676" cx="8.484" cy="33.942" stroke="black" fill="none" stroke-width="1.0" filter="url(#fuzzy)" /><circle r="2.964" cx="9.192" cy="36.826" stroke="black" fill="none" stroke-width="1.0" filter="url(#fuzzy)" /><circle r="2.254" cx="10.112" cy="35.774" stroke="black" fill="none" stroke-width="1.0" filter="url(#fuzzy)" /><circle r="1.966" cx="11.08" cy="36.418" stroke="black" fill="none" stroke-width="1.0" filter="url(#fuzzy)" /><circle r="2.55" cx="10.360000000000001" cy="36.769999999999996" stroke="black" fill="none" stroke-width="1.0" filter="url(#fuzzy)" /><circle r="2.9459999999999997" cx="10.74" cy="35.798" stroke="black" fill="none" stroke-width="1.0" filter="url(#fuzzy)" /><circle r="2.624" cx="11.600000000000001" cy="33.686" stroke="black" fill="none" stroke-width="1.0" filter="url(#fuzzy)" /><circle r="2.596" cx="9.620000000000001" cy="33.961999999999996" stroke="black" fill="none" stroke-width="1.0" filter="url(#fuzzy)" /></g>
          <g id="leftNose"><circle r="1.732" cx="-9.618" cy="33.124" stroke="black" fill="none" stroke-width="1.0" filter="url(#fuzzy)" /><circle r="1.046" cx="-7.538" cy="31.956000000000003" stroke="black" fill="none" stroke-width="1.0" filter="url(#fuzzy)" /><circle r="2.0140000000000002" cx="-9.262" cy="33.08" stroke="black" fill="none" stroke-width="1.0" filter="url(#fuzzy)" /><circle r="1.942" cx="-8.97" cy="31.816000000000003" stroke="black" fill="none" stroke-width="1.0" filter="url(#fuzzy)" /><circle r="1.784" cx="-10.938" cy="33.7" stroke="black" fill="none" stroke-width="1.0" filter="url(#fuzzy)" /><circle r="2.518" cx="-9.962" cy="33.7" stroke="black" fill="none" stroke-width="1.0" filter="url(#fuzzy)" /><circle r="1.8319999999999999" cx="-8.506" cy="33.252" stroke="black" fill="none" stroke-width="1.0" filter="url(#fuzzy)" /><circle r="1.512" cx="-9.378" cy="32.948" stroke="black" fill="none" stroke-width="1.0" filter="url(#fuzzy)" /><circle r="1.924" cx="-10.878" cy="31.616" stroke="black" fill="none" stroke-width="1.0" filter="url(#fuzzy)" /><circle r="2.5860000000000003" cx="-10.382" cy="31.560000000000002" stroke="black" fill="none" stroke-width="1.0" filter="url(#fuzzy)" /></g>
        </g>
      
    <g id="mouth">
      <polyline points="34.61,64.14 34.72,63.65 34.38,64.54 34.32,64.53 34.14,65.03 33.86,65.18 33.94,65 33.62,65.56 33.11,66.26 33.08,66.17 32.64,66.56 32.55,66.65 32.39,66.72 31.88,67.09 31.83,67.19 31.84,67.2 30.96,67.73 30.58,67.82 30.64,67.85 30.05,68.07 29.81,68.19 28.94,68.48 28.75,68.52 27.13,68.96 28.03,68.75 26.55,69.04 27.04,68.96 25.31,69.27 26.4,69.1 25.19,69.26 23.94,69.36 24.69,69.33 23.83,69.4 21.47,69.39 22.09,69.42 22.27,69.43 20.37,69.37 19.93,69.33 20.33,69.37 20.01,69.33 19.43,69.29 17.82,69.1 16.96,68.99 16.44,68.89 17.24,69.03 14.64,68.54 15.07,68.64 14.23,68.45 14.05,68.4 13.74,68.32 12.22,67.92 11.85,67.81 10.56,67.39 10.94,67.52 9.08,66.85 8.76,66.73 8.7,66.71 8.52,66.64 7.3,66.11 6.69,65.84 6.31,65.66 6.21,65.59 4.97,64.95 5.17,65.05 5.01,64.99 4.16,64.52 3.14,63.92 2.16,63.24 2.44,63.43 1.33,62.61 0.75,62.24 0.55,62.03 -0.05,61.57 0.39,61.9 0.21,61.76 0.05,61.64 -0.51,61.17 -0.64,60.97 -1.69,59.85 -1.57,59.96 -2.38,59.02 -2.99,58.29 -2.73,58.54 -2.56,58.76 -3.49,57.35 -3.16,58 -3.37,57.65 -3.94,56.39 -3.98,56.16 -3.8,56.6 -4.1,55.9 -4.12,55.57 -4.44,54.53 -4.28,54.87 -4.46,53.85 -4.38,54.08 -4.4,53.31 -4.38,53.19 -4.42,52.84 -4.18,52.25 -4.15,52.03 -3.93,51.54 -3.95,51.84 -4.19,51.97 -3.52,50.87 -3.66,50.92 -3.35,50.57 -3.23,50.48 -3.08,50.2 -3.1,50.39 -1.9,49.18 -2.01,49.33 -2.05,49.31 -1.88,49.14 -0.71,48.39 -0.25,48.23 0.06,48.12 -0.41,48.34 -0.15,48.22 0.47,47.93 1.52,47.51 1.23,47.59 1.64,47.53 1.68,47.44 3.02,47.16 2.96,47.14 4.28,46.9 4.67,46.86 4.21,46.93 5.38,46.77 5.7,46.72 6.44,46.68 6.89,46.62 7.9,46.62 8.98,46.62 9.73,46.64 10.18,46.68 10.12,46.7 10.87,46.75 11.04,46.75 11.34,46.8 12.62,46.93 13.2,47.04 14.57,47.27 13.48,47.06 14.55,47.26 15.09,47.37 16.92,47.79 16.22,47.62 16.68,47.73 18.52,48.23 18.4,48.2 19.64,48.59 20.24,48.79 21.07,49.09 22.29,49.57 21.71,49.34 22.79,49.79 22.23,49.56 23.38,50.06 24.53,50.59 23.74,50.2 24.66,50.67 25.73,51.23 26.39,51.61 27.02,51.95 27.7,52.36 27.85,52.47 27.44,52.25 28.17,52.69 29.52,53.71 29.7,53.83 29.54,53.66 30.49,54.43 31.01,54.88 30.78,54.75 30.98,54.9 31.41,55.26 31.85,55.71 31.85,55.81 32.48,56.5 32.69,56.66 32.97,57.02 33.55,57.83 34.02,58.73 34.04,58.85 34.32,59.24 34.21,59.12 34.44,59.5 34.41,59.81 34.83,60.86 34.63,60.1 34.95,61.45 34.86,61.02 34.95,61.69 34.92,62.33 34.98,62.58 34.92,62.04 34.92,63.02 34.65,63.49" fill="rgb(112, 102, 204)" stroke="black" stroke-width="3" stroke-linejoin="round" filter="url(#fuzzy)" />
    </g>
  </svg>