<svg xmlns="http://www.w3.org/2000/svg" width="500" height="500" viewBox="-100 -100 200 200"><defs><clipPath id="c"><path d="m34.69-2.67-.11-.51-.14-.49-.18-.46-.22-.45-.26-.43-.29-.4-.34-.39-.37-.38-.41-.36-.45-.34-.48-.33-.52-.32-.56-.3-.59-.3-.63-.28-.52-.26-.58-.26-.65-.26-.71-.25-.76-.24-.83-.24-.88-.23-.93-.22-.98-.22-1.02-.22-1.07-.21-1.1-.2-1.14-.19-1.17-.19-1.19-.17-1.22-.17-1.24-.17-1.25-.15-1.27-.14-1.27-.14-1.27-.12-1.27-.12-1.27-.1-1.27-.1-1.25-.08-1.24-.08-1.22-.06-1.21-.06-1.18-.04-1.16-.03-1.13-.02-1.11-.01h-1.07l-1.05.01-1.01.02-.98.03-.94.04-.91.05-.87.05-.84.07-.8.08-.77.08-.73.09-.7.09-.67.1-.63.11-.61.11-.58.12-.55.12-.52.12-.5.13-.48.13-.44.13-.43.14-.4.14-.38.15-.36.15-.34.15-.31.15-.3.15-.28.16-.26.15-.24.16-.23.16-.81 2.7.23.37.24.37.26.38.26.38.28.4.29.41.3.41.32.42.33.44.35.44.36.45.38.46.39.48.41.48.43.49.45.51.46.51.49.53.51.53.52.55.56.56.57.58.6.58.63.59.66.6.68.61.7.62.74.62.76.63.79.62.82.63.84.62.87.62.89.62.92.6.94.59.96.58.99.56 1 .54 1.02.52 1.04.49 1.06.46 1.06.43 1.08.4 1.09.36 1.1.31 1.1.27 1.1.22 1.11.18 1.1.12 1.1.06 1.09.01 1.08-.05 1.08-.11 1.06-.18 1.04-.24L16.3 16l1-.38.98-.44.96-.5.93-.58.9-.63.86-.71.84-.76.8-.4.79-.43.77-.46.75-.49.72-.51.71-.53.69-.56.67-.57.64-.59.62-.6.59-.61.58-.62.54-.63.52-.63.49-.62"/></clipPath><clipPath id="b"><path d="m-33.88-2.65.12-.71.16-.68.19-.64.23-.61.27-.58.3-.55.35-.53.37-.5.42-.48.45-.45.49-.43.52-.41.56-.4.59-.37.63-.36.52-.33.58-.32.65-.32.7-.3.76-.29.82-.28.87-.28.93-.26.97-.26 1.01-.25 1.06-.24 1.09-.23 1.13-.22 1.16-.21 1.18-.2 1.21-.19 1.22-.18 1.24-.17 1.26-.16 1.26-.15 1.26-.14 1.26-.13 1.26-.12 1.25-.1 1.25-.1 1.23-.08 1.21-.07 1.2-.06 1.18-.05 1.15-.04 1.13-.02 1.1-.02h1.07l1.04.01 1.01.02.98.03.94.04.91.05.88.06.84.07.8.08.77.09.74.09.7.11.67.11.65.11.61.12.58.13.55.13.54.13.5.14.49.14.45.15.44.15.41.16.38.15.37.17.35.16.32.17.31.17.28.18.27.17.26.18.23.18.71 2.7-.24.44-.25.46-.27.46-.28.48-.29.49-.31.49-.32.51-.34.53-.35.53-.37.55-.39.56-.4.58-.42.59-.44.6-.46.61-.48.63-.5.65-.52.65-.54.68-.57.69-.59.7-.62.72-.64.73-.68.75-.7.75-.73.77-.75.78-.79.78-.81.79-.84.8-.87.79-.89.79-.93.79-.94.77-.97.77-1 .75-1.01.74-1.04.71-1.05.69-1.07.66-1.08.62-1.1.59-1.11.55-1.12.51-1.12.45-1.13.41-1.12.34-1.13.29-1.12.23-1.12.15-1.11.09-1.1.01-1.08-.06-1.06-.14-1.05-.22-1.02-.3-1-.39-.97-.47-.94-.55-.92-.64-.87-.73-.85-.81-.8-.88-.77-.97-.77-.5-.75-.55-.73-.58-.71-.61-.68-.64-.66-.67-.64-.7-.62-.72-.59-.75-.57-.76-.54-.77-.51-.78-.49-.79-.47-.79-.43-.79"/></clipPath><filter id="a"><feTurbulence baseFrequency=".05" numOctaves="3" result="noise" type="noise"/><feDisplacementMap in="SourceGraphic" in2="noise" scale="2"/></filter></defs><rect width="100%" height="100%" x="-100" y="-100" fill="#CCF"/><path fill="#CD7F32" stroke="#000" stroke-linejoin="round" stroke-width="1.667" d="m65.51 1.43-.15.43.14.6-.25 1.77-.07 2.79.16-.83-.39 3.61v.37l-.38 2.56.14 1.24-.17.71.17-1.01-.34 2.98-.23.38-.69 3.51.16-.58-.38 1.97-.33 2.15.38-.9-.67 2.04-.39 2.28-.04.03-.97 3.44-.13.1-.58 2.1-.19.69-.32.91-.51 2.57-.15-.32-1.3 3.49.66-1.25-.9 2.15-.49 1.58-.36.64-.99 2.07-.27.51-1.1 2.54-.22.13-.16.61-1.27 2.72.05-.34-.11.2-1.96 3.42.81-1.15-1.17 2.25-1.42 1.69-.11.37-.41.63-.75 1.1-.93 1.42-.8.71-.31.61-1.06 1.44L43.4 66l.06-.18-.68 1.33-1.02 1.17-1.43 1.25-.33.4-1.53 1.65-.26.15-.11.34-1.13.68-1.63 1.73-1.36 1.21.57-.47-2.06 1.68-.22.29-.23-.28-.57.89-2.57 1.73-.01-.22-1.68 1.02-1.01.62-.43.4-1.47.62.28.03-1.12.66-1.67.73.04-.01-2.3 1.04-.45.14-.5.36-1.02.31-.99.33-1.95.75-1 .21-1.13.42-.69.26-.55.02-2.05.18-.44.29-1.91.29.24-.19-1.03.17-1.76.2-.75.07-.91.14-.72.25h.51l-2.7-.33-.06.23-1.32-.08-1.23-.12-1.96-.18-.06.07-1.14-.21-.35-.06-1.71.05.36-.14-2.27-.26-.5-.38-.13.02-2.91-.75-2.09-.63-.23-.06-.25-.07-1.01-.18.09-.28-2.57-.84-.91-.22-1.39-.82-.76-.56-.35.04-1.82-.92-.33-.21-1.29-.91-.51-.18-1.97-1.3-.38-.39.22.1.37.2-2.41-1.42-1.37-1.29.34.5-2.41-1.88-.89-1.03-.96-.79-.01.25-1.9-2.01.34.58-1.65-2.18.22.45-1.32-1.17-1.6-1.9.12.25-.64-.96-1.03-.65-1.22-2.17.71 1.07-1.31-1.8-.84-.99-.82-1.43-1.13-1.68-.24.38-1.76-3.55.83 1.95-1.88-3.12.87 1.17-1.94-3.66-.39-.27-.96-1.9-.37-.44-.47-1.38.04.37-.4-1.31-1.04-1.65-.72-1.75-.05-.29-.9-2.59-.68-1.8v-.13l.03.54-.93-3.17-.49-1.45-1.15-3.48.4 1.25-.58-1.58.33.52-.77-3.09-.37-.48-.74-2.91-.11-1.42-.11-.77.06.54-.66-3.42.01-.26-.21-1.14-.4-1.12-.27-2.51.12-1.02-.17-1.59-.48-2.18.19.03-.19-1.59-.08-2.27-.07-.89-.12-1.61.1-2.51-.03-2.18-.23 1.15.15-.85-.02-1.93.14-2.22.04-.3.09-2.43-.09-2 .22 1.1-.04-2.26.15-1.04.36-3.05.11-.72.14-.95.51-2.66.17-1.17.12-.46.37-3.41.07.5-.27.84.53-2.52.97-3.75-.55 1.74 1.29-4.22-.12-.42.56-1.12.06-.17.67-2.79-.28 1.06 1.52-4.34-.03-.17-.37 1.38 1.83-5.12.04.35 1.09-3.25-.76 1.81.93-2.13.01-.22.94-1.9 1.62-2.82-.02-.19.1.25 1.02-2.42.07.32 2.01-3.67.22-.37 1.09-1.58.01-.12.49-.76 1.66-2.7-.18.76.69-.73.46-1.02.66-1.02 1.1-.98-.41.24.78-1.02 2.35-2.65.7-.81-.23.16 1.1-.8 1.8-1.73-.09-.27 1.74-1.36.18-.3.87-.8 2.59-2.14.23.18 1.46-1.45-.5.51 1.89-1.31.54-.51-.08.14 2.47-1.46.8-.72-.22.29 1.04-.55.65-.36 2.11-1.34-.54.6 1.75-.96.3-.35 1.9-.76.24-.16 1.94-.62-.07-.05 2.29-.83-.92.39 1.62-.43-.14-.02 2.49-.49 1.35-.57.33.27 1.66-.34 1.75-.43 1.32.07-.02-.25 1.28.17 1.02-.28-.54-.06 1.85.21 2.28-.17-.89-.02 1.04.14 2.09-.15.47.22 1.35-.1 1.33.32.95-.09 1.29.34 1.14.44-.55-.42 1.52.52 1.09.41.87-.12 2.35.64.77.61.75.12.54-.05-.55-.12 3.18 1.37-.81-.07 2.76 1.01-.12-.06 1.34.53 1.24.92.04-.33 1.47.88.13.05.47.36 2.1 1.21.59.33 1.67 1.29.6.4 1.43 1.28-.19-.03 2.31 1.78.43.37.91.78 1.03.92 1.38 1.12-.46-.22.31.28 2.09 2.15.86.43.35.79 1.72 2.24.71.45.75 1.06.18.1.55.74 1.38 2.15.25.3.08.09.67.89 1.99 3.17.34.22-.48-.69 1.27 2.24.46.72.82 2.01.42.04.84 2.19 1.36 2.14-.43-.6.67 1.21.57 1.46.61 1.28.86 1.68.45 1.33.16.62.19.01 1.07 3.54-.79-2.15.79 2.31.26.73 1.15 3.28.28.78.19.09.59 2.59.18.65.55 2.26.14 1.61.56 1.51-.08.17.62 2.89-.28-1.14.35 2.1.5 2.53.05 1.27.07.04.34 2.08-.02.29.26 1.91.14 1.76.3 2.94-.01-.24.1 3.62-.12-1.72.22 1.73-.07 2.07.14 3.15-.15.43" filter="url(#a)"/><path fill="#fff" d="m-33.88-2.65.12-.71.16-.68.19-.64.23-.61.27-.58.3-.55.35-.53.37-.5.42-.48.45-.45.49-.43.52-.41.56-.4.59-.37.63-.36.52-.33.58-.32.65-.32.7-.3.76-.29.82-.28.87-.28.93-.26.97-.26 1.01-.25 1.06-.24 1.09-.23 1.13-.22 1.16-.21 1.18-.2 1.21-.19 1.22-.18 1.24-.17 1.26-.16 1.26-.15 1.26-.14 1.26-.13 1.26-.12 1.25-.1 1.25-.1 1.23-.08 1.21-.07 1.2-.06 1.18-.05 1.15-.04 1.13-.02 1.1-.02h1.07l1.04.01 1.01.02.98.03.94.04.91.05.88.06.84.07.8.08.77.09.74.09.7.11.67.11.65.11.61.12.58.13.55.13.54.13.5.14.49.14.45.15.44.15.41.16.38.15.37.17.35.16.32.17.31.17.28.18.27.17.26.18.23.18.71 2.7-.24.44-.25.46-.27.46-.28.48-.29.49-.31.49-.32.51-.34.53-.35.53-.37.55-.39.56-.4.58-.42.59-.44.6-.46.61-.48.63-.5.65-.52.65-.54.68-.57.69-.59.7-.62.72-.64.73-.68.75-.7.75-.73.77-.75.78-.79.78-.81.79-.84.8-.87.79-.89.79-.93.79-.94.77-.97.77-1 .75-1.01.74-1.04.71-1.05.69-1.07.66-1.08.62-1.1.59-1.11.55-1.12.51-1.12.45-1.13.41-1.12.34-1.13.29-1.12.23-1.12.15-1.11.09-1.1.01-1.08-.06-1.06-.14-1.05-.22-1.02-.3-1-.39-.97-.47-.94-.55-.92-.64-.87-.73-.85-.81-.8-.88-.77-.97-.77-.5-.75-.55-.73-.58-.71-.61-.68-.64-.66-.67-.64-.7-.62-.72-.59-.75-.57-.76-.54-.77-.51-.78-.49-.79-.47-.79-.43-.79" filter="url(#a)" transform="translate(41.44 -27.85)"/><path fill="#fff" d="m34.69-2.67-.11-.51-.14-.49-.18-.46-.22-.45-.26-.43-.29-.4-.34-.39-.37-.38-.41-.36-.45-.34-.48-.33-.52-.32-.56-.3-.59-.3-.63-.28-.52-.26-.58-.26-.65-.26-.71-.25-.76-.24-.83-.24-.88-.23-.93-.22-.98-.22-1.02-.22-1.07-.21-1.1-.2-1.14-.19-1.17-.19-1.19-.17-1.22-.17-1.24-.17-1.25-.15-1.27-.14-1.27-.14-1.27-.12-1.27-.12-1.27-.1-1.27-.1-1.25-.08-1.24-.08-1.22-.06-1.21-.06-1.18-.04-1.16-.03-1.13-.02-1.11-.01h-1.07l-1.05.01-1.01.02-.98.03-.94.04-.91.05-.87.05-.84.07-.8.08-.77.08-.73.09-.7.09-.67.1-.63.11-.61.11-.58.12-.55.12-.52.12-.5.13-.48.13-.44.13-.43.14-.4.14-.38.15-.36.15-.34.15-.31.15-.3.15-.28.16-.26.15-.24.16-.23.16-.81 2.7.23.37.24.37.26.38.26.38.28.4.29.41.3.41.32.42.33.44.35.44.36.45.38.46.39.48.41.48.43.49.45.51.46.51.49.53.51.53.52.55.56.56.57.58.6.58.63.59.66.6.68.61.7.62.74.62.76.63.79.62.82.63.84.62.87.62.89.62.92.6.94.59.96.58.99.56 1 .54 1.02.52 1.04.49 1.06.46 1.06.43 1.08.4 1.09.36 1.1.31 1.1.27 1.1.22 1.11.18 1.1.12 1.1.06 1.09.01 1.08-.05 1.08-.11 1.06-.18 1.04-.24L16.3 16l1-.38.98-.44.96-.5.93-.58.9-.63.86-.71.84-.76.8-.4.79-.43.77-.46.75-.49.72-.51.71-.53.69-.56.67-.57.64-.59.62-.6.59-.61.58-.62.54-.63.52-.63.49-.62" filter="url(#a)" transform="translate(-23.8 -29.17)"/><g fill="none" stroke="#000" transform="translate(41.44 -27.85)"><path stroke-linejoin="round" stroke-width="1.667" d="m-33.39 6.82-.16-1.18-.15-1.11-.13-1.07-.09-1.01-.07-.96-.05-.91-.01-.87.02-.83.06-.78.09-.75.12-.71.16-.68.19-.64.23-.61.27-.58.3-.55.35-.53.37-.5.42-.48.45-.45.49-.43.52-.41.56-.4.59-.37.63-.36.52-.33.58-.32.65-.32.7-.3.76-.29.82-.28.87-.28.93-.26.97-.26 1.01-.25 1.06-.24 1.09-.23 1.13-.22 1.16-.21 1.18-.2 1.21-.19 1.22-.18 1.24-.17 1.26-.16 1.26-.15 1.26-.14 1.26-.13 1.26-.12 1.25-.1 1.25-.1 1.23-.08 1.21-.07 1.2-.06 1.18-.05 1.15-.04 1.13-.02 1.1-.02h1.07l1.04.01 1.01.02.98.03.94.04.91.05.88.06.84.07.8.08.77.09.74.09.7.11.67.11.65.11.61.12.58.13.55.13.54.13.5.14.49.14.45.15.44.15.41.16.38.15.37.17.35.16.32.17.31.17.28.18.27.17.26.18.23.18.23.18.2.19.2.18.18.18.16.19.16.18.14.18.14.19.12.18.11.19" filter="url(#a)"/><path stroke-linejoin="round" stroke-width="2.222" d="m-35.55-2.27.19.41.2.49.23.55.26.6.28.65.31.69.33.72.36.74.38.76.42.78.43.79.47.79.49.79.51.78.54.77.57.76.59.75.62.72.64.7.66.67.68.64.71.61.73.58.75.55.77.5.77.97.8.88.85.81.87.73.92.64.94.55.97.47 1 .39 1.02.3 1.05.22 1.06.14 1.08.06 1.1-.01 1.11-.09 1.12-.15 1.12-.23 1.13-.29 1.12-.34 1.13-.41 1.12-.45 1.12-.51 1.11-.55 1.1-.59 1.08-.62 1.07-.66 1.05-.69 1.04-.71 1.01-.74 1-.75.97-.77.94-.77.93-.79.89-.79.87-.79.84-.8.81-.79.79-.78.75-.78.73-.77.7-.75.68-.75.64-.73.62-.72.59-.7.57-.69.54-.68.52-.65.5-.65.48-.63.46-.61.44-.6.42-.59.4-.58.39-.56.37-.55.35-.53.34-.53.32-.51.31-.49.29-.49.28-.48.27-.46.25-.46.24-.44.23-.44.23-.43.21-.42.2-.41.19-.4.19-.4.17-.39.17-.38.16-.38.16-.37" filter="url(#a)"/><circle cx="1.861" cy="1.349" r="4.904" clip-path="url(#b)" filter="url(#a)"/><circle cx="1.801" cy="2.694" r="3.176" clip-path="url(#b)" filter="url(#a)"/><circle cx="-.699" cy="5.494" r="3.614" clip-path="url(#b)" filter="url(#a)"/><circle cx="-.499" cy="2.889" r="4.458" clip-path="url(#b)" filter="url(#a)"/><circle cx=".401" cy="3.309" r="4.162" clip-path="url(#b)" filter="url(#a)"/><circle cx="1.731" cy="2.854" r="4.104" clip-path="url(#b)" filter="url(#a)"/><circle cx="-.454" cy="5.434" r="4.238" clip-path="url(#b)" filter="url(#a)"/><circle cx="-1.729" cy="2.464" r="3.268" clip-path="url(#b)" filter="url(#a)"/><circle cx="-2.959" cy="1.814" r="3.946" clip-path="url(#b)" filter="url(#a)"/><circle cx=".046" cy="4.664" r="4.054" clip-path="url(#b)" filter="url(#a)"/></g><g fill="none" stroke="#000" transform="translate(-23.8 -29.17)"><path stroke-linejoin="round" stroke-width="2.222" d="m33.93 3.97.2-.81.18-.78.15-.74.13-.71.1-.67.06-.64.04-.62v-.58l-.03-.56-.07-.53-.11-.51-.14-.49-.18-.46-.22-.45-.26-.43-.29-.4-.34-.39-.37-.38-.41-.36-.45-.34-.48-.33-.52-.32-.56-.3-.59-.3-.63-.28-.52-.26-.58-.26-.65-.26-.71-.25-.76-.24-.83-.24-.88-.23-.93-.22-.98-.22-1.02-.22-1.07-.21-1.1-.2-1.14-.19-1.17-.19-1.19-.17-1.22-.17-1.24-.17-1.25-.15-1.27-.14-1.27-.14-1.27-.12-1.27-.12-1.27-.1-1.27-.1-1.25-.08-1.24-.08-1.22-.06-1.21-.06-1.18-.04-1.16-.03-1.13-.02-1.11-.01h-1.07l-1.05.01-1.01.02-.98.03-.94.04-.91.05-.87.05-.84.07-.8.08-.77.08-.73.09-.7.09-.67.1-.63.11-.61.11-.58.12-.55.12-.52.12-.5.13-.48.13-.44.13-.43.14-.4.14-.38.15-.36.15-.34.15-.31.15-.3.15-.28.16-.26.15-.24.16-.23.16-.21.16-.2.16-.18.16-.17.17-.16.16-.14.16-.14.16-.12.16-.12.16-.1.16" filter="url(#a)"/><path stroke-linejoin="round" stroke-width="2.222" d="m36.06-1.36-.22.34-.24.4-.27.43-.29.49-.33.51-.36.55-.38.57-.41.59-.44.61-.47.62-.49.62-.52.63-.54.63-.58.62-.59.61-.62.6-.64.59-.67.57-.69.56-.71.53-.72.51-.75.49-.77.46-.79.43-.8.4-.84.76-.86.71-.9.63-.93.58-.96.5-.98.44-1 .38-1.02.31-1.04.24-1.06.18-1.08.11-1.08.05-1.09-.01-1.1-.06-1.1-.12-1.11-.18-1.1-.22-1.1-.27-1.1-.31-1.09-.36-1.08-.4-1.06-.43-1.06-.46-1.04-.49-1.02-.52-1-.54-.99-.56-.96-.58-.94-.59-.92-.6-.89-.62-.87-.62-.84-.62-.82-.63-.79-.62-.76-.63-.74-.62-.7-.62-.68-.61-.66-.6-.63-.59-.6-.58-.57-.58-.56-.56-.52-.55-.51-.53-.49-.53-.46-.51-.45-.51-.43-.49-.41-.48-.39-.48-.38-.46-.36-.45-.35-.44-.33-.44-.32-.42-.3-.41-.29-.41-.28-.4-.26-.38-.26-.38-.24-.37-.23-.37-.22-.36-.22-.35-.2-.34-.2-.34-.19-.33-.18-.33-.17-.32-.17-.32-.16-.31-.15-.31" filter="url(#a)"/><circle cx="-17.133" cy="-1.203" r="4.692" clip-path="url(#c)" filter="url(#a)"/><circle cx="-16.878" cy="-2.223" r="4.498" clip-path="url(#c)" filter="url(#a)"/><circle cx="-14.578" cy="-4.033" r="4.594" clip-path="url(#c)" filter="url(#a)"/><circle cx="-16.498" cy="-3.353" r="4.512" clip-path="url(#c)" filter="url(#a)"/><circle cx="-15.013" cy="-6.028" r="3.168" clip-path="url(#c)" filter="url(#a)"/><circle cx="-16.653" cy="-4.088" r="4.086" clip-path="url(#c)" filter="url(#a)"/><circle cx="-18.518" cy="-5.668" r="4.822" clip-path="url(#c)" filter="url(#a)"/><circle cx="-16.688" cy="-1.798" r="4.136" clip-path="url(#c)" filter="url(#a)"/><circle cx="-17.573" cy="-5.848" r="3.752" clip-path="url(#c)" filter="url(#a)"/><circle cx="-14.488" cy="-5.968" r="4.126" clip-path="url(#c)" filter="url(#a)"/></g><g fill="none" stroke="#D8D8D8" stroke-linejoin="round" stroke-width="2"><path d="m-43.57-66.16 30.52 1.43 33.07 8.14 18.87 4.12 7.38.18.88-1.78-2.64-2.51-5.13-2.58-7.75-2.48-10.26-2.8-10.75-3.49-7.03-3.54 1.04-1.61 10.95 3.12 20.46 10.69 21.99 18.05" filter="url(#a)"/><path d="M-48.83-58.81-25-71.68l11.79-1.19 7.65-1.45 4.71-1.97 4.25-.78 5.25 1.17 5.84 2.75 4.66 3.29 1.58 2.7-2.31 1.3-5.33-.4-6.17-1.83-4.7-2.7L.3-73.68l.87-2.47 3.09-1.44 5.19.3 7.69 2.63 9.72 4.61 8.69 4.31 2.27-.34-7.33-8.36-8.83-9.06" filter="url(#a)"/><path d="m-24.93-81.74-5.64 11.39 14.01 3.83 11.44-.62 2.5-2.21-1.68-1.47-.64-.14 1.35.52 1.01.4-1.61.13-3.87.2-2.86.6 2.1.99 8.66 1.09 12.6.87 10.15.25.37-.96-13.9-2.72-24.6-4.24-11.01-6.93" filter="url(#a)"/><path d="m-30.87-78.13 40.82 4.85 17.5 5.6 2.48.62-6.59-2.82-11.54-3.84-12.33-2.59-9-.2-2.34 2.02 5.65 3.3 11.91 3.53 13.21 2.74 8.38 1.07.11-.82-6.01-1.65-8.85-2.22-34.7-14.9" filter="url(#a)"/><path d="m-2.62-88.48-3.99 3.61-.93 5.32-1.1 3.39-1.15.88-.13-.31 2.49-.48 5.01-.32 5.28.05 2.85.85-.78 2.22-3.79 3.71-5.4 4.24-5.93 2.87-5.33-.2-2.19-3.37 4.72-4.54 12.12-2.9 7.61-.57-32.71-7.16" filter="url(#a)"/><path d="m.08-88.52 15.5 13.96-.37 3.57-2.64 1.09-5.18.09-3.55.18 1.95 1.13 7.11 1.95 8.44 1.7 5.34.27-.44-1.6-6.19-3.02-9.51-3.6-9.06-3.47-5.15-2.94.13-2.02 3.58-.29 2.74 2.94-.79 8.49 4.75 16.7L61.75-29.4" filter="url(#a)"/><path d="m21.66-83.5 9.92 8.3 8.04 8.75 3.52 6.23-1.96 1.96-6.87-2.41-9.54-4.43-9.81-3.65-8.84-1.5-7.45.34-5.34 1.32-1.66 1.84 3.85 2.46 9.76 2.87 13.07 2.09 10.8-.51 2.27-4.23-9.73-7.41-19.82-8.91-15.53-6.22" filter="url(#a)"/><path d="M36.08-73.74 16.1-80.2l-2.95 2.85.57 2.05.4-.47.33-1.08.03-.27-.89.75-2.06 1.42-2.8 1.68-2.78 1.68-2.1 1.49-1.14 1.13-.26.7.37.3.74-.13.81-.84.43-1.97-.45-3.17-1.52-3.66-2.06-2.91-1.35-1.43 1.46-.46 8.73.05 20.98 4.17" filter="url(#a)"/><path d="m-3.16-88.54 29.73 25.3-11.05 2.15-17.57-3.13-7.5-3.88 3.4-3.03 8.33-1.71 7.41-.9 3.76-.87.5-1.06-.6-.78.59.13 2.41 1.12 1.81 1.3-3.78-.46-12.37-5.19-5.55-8.65" filter="url(#a)"/><path d="M47.26-61.14 35.02-71.33l-7.52-2.7-6.59 1.99-7.78 2.05-5.75.51-1.13-.31 2.95.05 4.63.81 4.05 1.07 2.24.46.26-.74-1.29-1.91-2.21-2.4-2.8-2.01-3.6-.86-4.96.54-6.31 1.79-5.91 2.59-1.92 2.75 5.49 2.09 11.59.41 7.66-2.46-12.57-5.76-39.57-.55" filter="url(#a)"/><path d="m16.53-85.81 5.17 25.12-6.68 6.11 1.91-.1 6.73-1.22 5.93-1.43.81-2.6-5.6-4.31-9.89-5.25-10.47-4.67-8.51-2.86-6.45-.91-5.18-.02-4.22-.2-6.6 2.18-20.33 14.34" filter="url(#a)"/><path d="M18.9-84.51 3.37-82.59l-17.14 3.55-9.04 1.66-3.44.92-.19 1.54 2.92 2.08 6.07 1.71 8.06.5 8.22-.83 7-1.51 5.5-1.29 4.35-.51 3.4.15 2.19.24.6-.04-1.24-.01-3.34.77-6.27 2.11L.81-68.69l-13.24 1.7-10.95-1.93-2.72-5.73-9.92.73" filter="url(#a)"/><path d="m-4.9-88.12-8.02 4.48.55 1.78 1.75 2.32 4.89 3.24 8.02 3.37 8.24 2.33 5.14.57.77-1.05-2.39-2-3.41-2.15-3.28-1.68-3.79-.79-5.65.26-7.56 1.05-7.14 1.02-3.17-.12 1.88-1.56 1.72-1.08-8.9 3.42-20.45 11.33" filter="url(#a)"/><path d="m.97-88.5 11.88 8.18-.41 9.83-3.77 5.01-3.29.31-2.37-1.54-1.34-1.21-.42-.44.17-.21.58-.35 1.23-.36 2.11-.03 2.6.4 1.84.48-.58-.03-3.99-.95-6.77-1.92-7.14-2.6-4.38-2.83.49-2.78 4.79-2.55 5.16-2.03-.47-.84-10.52 1.59-18.93 6.51" filter="url(#a)"/><path d="m31.19-77.92-11.97-3.33-6.1-.73 1.87 1.7 2.62 2.56-.14 2.53-2.17 1.96-2.5.77-2.27-.87-2.4-2.29-2.78-2.84-2.81-2.21-2.29-.64-1.36 1.28.11 2.91 2.95 3.94 8.15 4.57 15.21 5.4 19.07 7.05 10.81 8.56" filter="url(#a)"/><path d="m-25.75-81.48 17.04 3.97-2.98 8.83 2.08 8.72 5.3 4.9 4.38.13 1.77-3.42-.93-4.79-2.78-4.26-2.93-2.72-.84-1.07 2.88.23 6.46 1 7.7 1.26 5.42 1.06.57.74-3.93.84-4.79 1.84-1.33 3.18 2.07 3.03-2.54-.73-14.28-8.63 4.79-21.11" filter="url(#a)"/><path d="m3.68-88.31 23.61 14.14 4.17 4.86-3.73 1.17-4.72 1.3-4.83 1.21-4.62.5-2.96.11-.29.24 1.73.48 2.08.33 1.28-.47.46-1.82.28-3.36.7-4.26 1.56-3.69 2.77-1.5 2.61.93-4.31.37-29.1-9.65" filter="url(#a)"/><path d="M-52.22-53.51 1.39-68.12l14.21-5.63 1.66-.42.97 1.15 1.9.24.39-1.33-3.15-2.13-7-1.8-9.66-.74-10.25.31-8.46.89-4.45.94 1.06.75 7.04.65 12.03.68 14.12.29 11.52-1.01 4.75-2.44-5.19-5.31" filter="url(#a)"/><path d="m-39.65-70.26 27.98-7.69 21.8.27 14.08 4.11L32.13-69l1.7 1.89-4.26-1.45-8.73-3.1-10.89-2.66-10.51-1.29-7.84-.36-3.78-.38.39-.97 3.68-1.43 6.16-1.23 8.95.27 13.11 3.89 17.71 10.17 17.13 17.44" filter="url(#a)"/><path d="m-45.7-63.38 54.74 1.74 12.12.19.16-3.82.57-4.01 2.37-1.94 1.86.26-1.3 1.34-5.69 1.21-9.13.45-9.81-.27-7.18-.68-2.05-.75 3.68-.57 7.91-.14 9.06.45 6.67.84 1.64.49-3.66-.65-5.04-1.11 2.65 1.63 19 8.13 21.65 11.78" filter="url(#a)"/><path d="m-48.83-58.81 7.58-3.49 17.74-4.36 17.91-5.97 11.3-5.32 4.09-3.63-.89-2.02-2.74-.71-1.64.48 1.05 1.62 3.26 2.47 3.18 2.65.37 1.99-3.87.7-7.12-.78-7.29-2.2-4.13-3.42-.39-3.64-1.31-1.41-10.98 3.01" filter="url(#a)"/><path d="m32.43-76.67-8.54-2.26.63 5.15.46 4.19-5.59.78-9.7-1.63L.7-73.21l-4.98-2.96-.74-2.25 1.42-.91.82.7-1.81 2.03-5.07 2.75-7.33 2.77-7.23 2.22-4.13 1.41 1.72.7 9.18.54 16.19 1.16 19.43 2.25 14.48 2.33L29.92-63-7.97-87.76" filter="url(#a)"/><path d="m-32.33-76.68 56.34 22.27 11.39-1.31-8.45-6.96-13.75-5.94-11.13-3-6.33-.52-2.75.64-1.05.78-.1.7 1.52.98 4.08 1.51 6.12 1.57 5.46.46 1.53-1.58-2.81-3.09-2.36-2.13 4.31 1.38 5.27 2.34-31.54-17.11" filter="url(#a)"/><path d="m-46.16-62.36 23.44-7.78 19.96-1.57 5.67.5.37.15 1.77-.38 3.96-.25 4.92.43 5.33 1.23 5.37 1.62 4.14 1.14.73-.26-4.12-2.06-7.9-3.42-7.68-3.61-3.94-2.78-5.91-1.19-30.82 2.46" filter="url(#a)"/><path d="M60.79-32.73 5.88-58l-.19-9.26 15.1 3.22 13.25 6.41 4.93 3.26-3.53-1.3-8.18-4.12-7.94-4.4-4.68-2.98-1.67-1.33-.57-.55-.27-.91.92-1.96 1.17-2.67-6.02-2.02-34.75-4.15" filter="url(#a)"/><path d="m44.07-65.58-11.69-1.78-9.21-3.76-2.45-3.43-1.46-2.79-2.5-1.16-3.07.96-2.75 2.59-2.07 3.23-1.34 2.98-.38 2.31 1.07 1.51 2.63.7 3.33-.13 2.44-.87.3-1.09-1.74-.54-2.62.59-2.49 1.46-2.38 1.05-2.37-.61.6-1.66 13.54 2.78L59.1-37.68" filter="url(#a)"/><path d="M56.37-44.86 21.72-68.67l-24.38-4.9-8.8 2.57 2.49 3.35 7.35 1.69 7.85.55 6.25.7 3.89 1.46 1.72 2.07.39 2.31-.09 2.22-.26 1.84-.83 1.06-2.06-.13-3.53-1.4-3.99-2.05-2.41-1.63.32-.79 1.21-1.48-3.18-5.05-33.14-12.65" filter="url(#a)"/><path d="M60.79-32.73-1.13-56.45l-9.1-13.07 7.2-6.25 6.9-1.24 3.57 1.47 2.44 1.91 3.25 1.27 3.77 1.06 2.04 1.83-2.47 2.85-7.97 2.71-9.97.83-3.35-1.53 12.28-1.38 26.46 4.38 20.6 12.8" filter="url(#a)"/><path d="m-45.7-63.38 29.54-14.11 10.12-2.34L5.74-76.5l12.93 5.36 9.81 4.87 4.85 2.9.99.67-.71-.99-1.25-2.05-2.35-2.88-4.77-3.65-7.4-4.02-8.04-3.54-5.22-2.39-.22-1.33 3.57-.91 13.61.9" filter="url(#a)"/></g><path fill="none" stroke="#000" stroke-linejoin="round" stroke-width="3" d="M-10.65 19.84Q9.21 34.86-.72-5.136" filter="url(#a)"/><path fill="#D77F8C" stroke="#000" stroke-linejoin="round" stroke-width="3" d="m-35.34 61.6 1.03-.36 1.01-.37 1-.38 1-.39.98-.41.97-.41.96-.42.95-.42.95-.44.93-.44.92-.44.92-.46.9-.45.9-.46.88-.47.88-.46.87-.47.86-.47.85-.48.85-.47.83-.47.83-.47.82-.47.81-.47.81-.47.8-.46.79-.46.78-.46.77-.45.77-.44.76-.44.76-.43.75-.43.74-.42.73-.41.73-.4.73-.39.71-.38.72-.37.7-.35.7-.35.7-.33.69-.32.68-.31.68-.29.68-.28.67-.26.66-.24.67-.23.65-.21.66-.2.64-.17.65-.16.64-.13.64-.12.63-.09.63-.07.63-.05.62-.03.63-.01.61.02.62.05.61.07.61.09.61.12.61.15.6.18.6.2.61.24.59.26.6.29.6.32.59.36.6.38.59.42.59.45.59.48.59.52.59.55.59.59.59.63.59.66.59.69.59.74.59.77.59.82.59.85.59.89.59.93.6.98.59 1.01.6 1.06.59 1.1.6 1.15.6 1.19.61 1.23.6 1.28.61 1.33.61 1.37-.71-.22-.7-.22-.71-.2-.7-.2-.71-.2-.7-.19-.7-.18-.71-.18-.7-.17-.71-.16-.7-.16-.7-.15-.71-.15-.7-.14-.71-.14-.7-.13-.7-.12-.71-.12-.7-.12-.71-.11-.7-.1-.71-.11-.7-.09-.7-.09-.71-.09-.7-.08-.71-.08-.7-.07-.7-.07-.71-.06-.7-.07-.71-.05-.7-.05-.7-.05-.71-.05-.7-.04-.71-.04-.7-.03-.71-.03-.7-.03-.7-.02-.71-.02-.7-.02-.71-.02-.7-.01-.7-.01h-.71l-.7-.01H-.13l-.7.01h-.71l-.7.01-.71.01-.7.02-.71.01-.7.02-.7.02-.71.02-.7.02-.71.02-.7.03-.7.02-.71.03-.7.03-.71.03-.7.03-.7.04-.71.03-.7.03-.71.04-.7.03-.7.04-.71.04-.7.03-.71.04-.7.04-.71.04-.7.04-.7.03-.71.04-.7.04-.71.04-.7.04-.7.03-.71.04-.7.04-.71.03-.7.03-.7.04-.71.03-.7.03-.71.03-.7.03-.71.03-.7.03-.7.02-.71.03-.7.02" filter="url(#a)"/></svg>