<svg xmlns="http://www.w3.org/2000/svg" width="500" height="500" viewBox="-100 -100 200 200"><defs><clipPath id="c"><path d="m29.93-2.48-.23-.34-.28-.35-.31-.35-.36-.35-.4-.36-.43-.36-.48-.36-.5-.36-.55-.37-.57-.36-.61-.35-.63-.36-.67-.35-.69-.35-.72-.35-.78-.42-.81-.42-.86-.41-.88-.41-.92-.4-.94-.39-.98-.38-.99-.36-1.02-.35-1.04-.34-1.06-.32-1.07-.3-1.09-.29-1.1-.26-1.1-.25-1.11-.23-1.12-.21-1.12-.18-1.11-.17-1.12-.14-1.1-.12-1.11-.1-1.09-.07-1.08-.05-1.07-.03-1.06-.01-1.04.02-1.03.03-1.01.06-.98.08-.97.1-.95.12-.92.14-.9.16-.88.17-.85.2-.83.21-.8.22-.78.24-.76.25-.72.26-.71.28-.68.28-.65.29-.63.31-.61.3-.58.31-.56.32-.55.32-.52.32-.5.32-.48.33-.47.33-.44.33-.43.34-.41.34-.4.34-.37.34-.36.34-.35.34-.33.34-.31.34-.3.34-.28.33 4.09 11.8.49.36.49.36.51.36.52.35.54.35.54.35.56.35.57.34.59.33.59.33.61.32.62.31.63.31.64.3.65.29.67.28.68.28.7.26.71.26.72.24.74.24.74.21.77.2.77.19.78.16.79.15.81.12.81.1.82.09.84.06.83.03.85.01.85-.01.86-.03.87-.06.87-.08.87-.11.87-.13.88-.15.89-.17.88-.2.88-.21.89-.24.88-.25.88-.28.88-.29.88-.3.87-.32.87-.33.87-.34.85-.36.86-.36.84-.36.84-.38.83-.37.81-.38.81-.38.8-.37.78-.37.77-.37.75-.36.74-.36.72-.35.71-.34.59-.34.57-.35.56-.35.53-.35.52-.35.49-.35.47-.36.45-.35.42-.35.39-.35.36-.35.33-.35.3-.36.27-.35.23-.36"/></clipPath><clipPath id="b"><path d="m-30.7-.42.43-.34.46-.35.49-.36.53-.35.56-.36.59-.37.61-.36.65-.37.67-.36.7-.36.72-.36.74-.36.76-.35.79-.35.8-.34.88-.45.91-.44.93-.43.97-.42.98-.4 1.01-.39 1.04-.37 1.05-.36 1.06-.34 1.08-.31 1.1-.3 1.1-.27 1.12-.26 1.11-.23 1.13-.21 1.12-.18 1.12-.17 1.13-.13 1.11-.12 1.12-.09 1.1-.07 1.09-.04 1.08-.03 1.07.01 1.06.02 1.04.05 1.02.06 1 .09.99.11.96.13.94.14.92.17.9.18.87.2.85.21.82.23.8.24.77.26.75.26.72.28.7.28.67.29.65.3.62.31.6.31.58.32.55.31.53.32.51.32.5.32.47.33.45.32.44.32.42.33.4.32.38.33.37.33.35.32.33.33.32.32.3.32.29.32.27.31.26.31-4.01 8.72-.5.22-.52.21-.53.22-.54.21-.57.22-.57.21-.59.21-.61.2-.62.2-.64.2-.65.2-.67.19-.69.18-.69.18-.72.17-.73.18-.75.16-.77.17-.79.15-.8.15-.82.14-.84.14-.86.12-.87.11-.89.11-.9.09-.92.08-.93.07-.94.05-.96.04-.96.03-.98.02H.76L-.23 12l-1-.03-1-.03-1.01-.06-1.02-.06-1.01-.08-1.01-.09-1.02-.11-1.01-.11-1-.13-1-.14-.99-.15-.99-.16-.97-.17-.96-.17-.95-.19-.94-.19-.92-.2-.9-.2-.88-.21-.86-.21-.84-.22-.81-.22-.79-.21-.77-.22-.73-.22-.71-.22-.68-.22-.65-.21-.62-.21-.59-.21-.56-.21-.53-.22-.51-.22-.49-.22-.46-.23-.43-.23-.41-.23-.39-.23-.35-.24-.32-.24-.3-.24-.26-.25-.23-.25-.2-.26-.17-.26"/></clipPath><filter id="a"><feTurbulence baseFrequency=".05" numOctaves="3" result="noise" type="noise"/><feDisplacementMap in="SourceGraphic" in2="noise" scale="2"/></filter></defs><rect width="100%" height="100%" x="-100" y="-100" fill="#704214"/><path fill="coral" stroke="#000" stroke-linejoin="round" stroke-width="1.667" d="m74.8.28.15.41-.04 1.34-.27 2.47-.01 1.93-.03-.18-.17.85-.17 1.15-.05.76-.12 1.38-.06.96-.79 2.76-.22 1.2.57-1.66-.79 3.96-.4.66.12-.35.13.54-.57 1.76-.67.85-.19 1.57-.51 1.6-.82 2.72-.09-.25-.54 1.51-.79 1.37.18.61-.73 1.28.56-.79-1.08 2.38-.52.77-.32.85-1.18 1.95-.43.2-.7 1.86-.62.36-.09.41.15-.05-2.19 2.63-.63 1.2-.46 1-.35-.01.18.07-2.38 3.27-.69.93-.98.89.25-.29-1.3 1.43-1.92 2.23.21-.71-1.28 1.43-.06.69-1.48.94-1.51 1.46 1.18-1.17-.4.58-1.41 1.2-2.45 1.86.07.24-1.51.92.22-.12-1.8 1.48-.4.29.15-.31-2 1.37-2.61 1.41-.65.57-1.22.63.17-.05-3 1.72-.3-.18 1-.06-2.25 1.1-1.4.33-1.03.61.16-.01-.91.23-2.93 1.03-.28.24.08-.01-2.69.71-1.82.66-.7.49-.98-.06.13.39-3.09.54.74-.06-3.33.48.24.02-.38.05-1.83.44-.5.14-1.72.27-.85-.21-3.49.59.91.03-.92-.26-2.88.22.76.03-2.03.06-2.71.03.71-.2-2.54.05-2.07.08-.19-.29.63.25-2.99-.3-.3.08-.87-.33-1.76-.16-1.3-.16-1.55-.35-1 .01-1.45-.33.35-.14-1.19-.1-2.09-.72-1-.02-.06-.24-1.24-.09-1.72-.55.26.05-.96-.45-1.96-.57-1.64-.98-1.79-.29.47-.16-3.15-1.35v.11l-.17-.07-2.59-1.46-.22.32.03-.49-1.99-.93-.32-.19-1.23-.56-1.86-.98.06-.2-1.46-1.05-.15-.38-2.25-1.37-1.63-.87.87.6-1.71-1.51-1.87-1.39.05-.07.15-.2-2.03-1.63-.67-.53-2.32-2 1.73 1.11-3.26-3.12-.64-.71-.6-.45.37.32-.49-.41-.7-.63-.87-1.48-1.57-2.03-1.41-1.36-.14-.71-.36.12-.82-1.82.34.44-.28-.41-2.7-4.33.27.44-.7-1.17-.1-.4-1.12-1.07-.86-1.91.26.15-1.08-2.19.11-.09-1.02-1.23-.34-1.87-.39-.67-.44-1.78.14 1.29-.6-1.57-.93-3.86.03.12-.18.16-.52-2.14-.36-.12.09-.31-.55-2.66-.27-1.23-.44-2.31-.11-.42-.19-1 .04.11-.2-2.77-.13-.17-.36-1.42.33-.58-.48-1.33.05-4.32-.27 1.28.18-1.5-.06-.68-.14-.94.36-1.95.04-1.53.08-1.03v-1.91l-.03.29.11-1.19.02-1.17.23-.28.43-2.18.1-.64.22-1.42.15-.94.17-1.45.37-1.58-.09.38.91-2.82.46-1.01.2-2.61-.01.6.68-1.7-.2-.13.42-1.17.51-1.3 1.13-2.16.52-1.49.47-.14.13-.62.84-2.01.05-.34.37-.74.66-.57.09-.38.72-1.73 1.37-2.06-.37.45 1.59-2.36.72-.88.23-.65.67-.86.79-.86 1.6-2.25-.44-.07 1.17-1.01 1.29-1.34.44-.25 1.31-1.72-1.03 1.33.88-1.47.87-.66 1.91-1.92.97-.7.06-.52 2.73-1.99-1 .87 1.97-1.68 1.07-.85 1.21-1.06-.58.35.67-.5 2.25-1.31-.7.31 1.98-1.15-.51.05 1.78-1.25 1.29-.8 2.49-1.09-1 .41 2.16-1.01 1.22-.89 1.4-.8-.14-.01 1.25-.5 3.8-1.33-.69.21.09-.22 2.12-1 .06-.02 2.61-.56 1.51-.64.95-.36.84.06-.03-.11.92-.35 1.47-.28 2.55-.68-.65.06 1.12-.09 3.72-.49.1-.05.48-.42 1.68-.01.06-.14 2.53-.14 2.21.03.15-.35 1.1.13.01.1-.12-.18L.7-75l1.05-.05-.33-.15 2.88.18-.51.22 3.19-.06.08.11.89.1 2.18.26 1.5.08.56.13 1.34.31-.04.06 1.13.02 2.71.74-.99-.48 3.61 1.16-.56-.13 1.83.47-.09-.14 1.54.73 2.05.6.96.08.87.74 1.21.32 1.39.49.09.03 2.43 1.05.1.07 1.74 1.02-.34-.42 1.27.85 2.37.75.23.64.77.44.49.18 1.79 1.31 1.31.68-1.11-.73 2.96 2.03.37.71.86.16L46-59.25l.98 1.03.29.28.64.13.79.59.47.72 1.6 1.44-.01-.08 1.41 1.33 2.04 2.02-.61-.46 1.8 2.13 2.02 2.05-.91-1.3.35 1.03.89.46-.02.5 1.78 1.62.35.67L62-42.02l1.03 1.44-1.15-.87 1.71 1.98-.07-.13.98 1.76.54.35-.06.49.48 1.3 1.38 2.01.67 1.46.39.52.95 1.86.68 2.24-1.1-2.04.65 1.25.29.52 1.16 2.94-.04-.57.98 2.79.38 1.39-.28.36.75 2.29.31 1 .08-.03.24 1.66.43 2.05.17 1.48.26-.61-.25.75.74 2.86-.09-.59.19 2.82.32 1.25-.16 1.43.15-1.82-.13 4.48.27-.25-.24 2.32.19.16.15.41" filter="url(#a)"/><path fill="#fff" d="m-30.7-.42.43-.34.46-.35.49-.36.53-.35.56-.36.59-.37.61-.36.65-.37.67-.36.7-.36.72-.36.74-.36.76-.35.79-.35.8-.34.88-.45.91-.44.93-.43.97-.42.98-.4 1.01-.39 1.04-.37 1.05-.36 1.06-.34 1.08-.31 1.1-.3 1.1-.27 1.12-.26 1.11-.23 1.13-.21 1.12-.18 1.12-.17 1.13-.13 1.11-.12 1.12-.09 1.1-.07 1.09-.04 1.08-.03 1.07.01 1.06.02 1.04.05 1.02.06 1 .09.99.11.96.13.94.14.92.17.9.18.87.2.85.21.82.23.8.24.77.26.75.26.72.28.7.28.67.29.65.3.62.31.6.31.58.32.55.31.53.32.51.32.5.32.47.33.45.32.44.32.42.33.4.32.38.33.37.33.35.32.33.33.32.32.3.32.29.32.27.31.26.31-4.01 8.72-.5.22-.52.21-.53.22-.54.21-.57.22-.57.21-.59.21-.61.2-.62.2-.64.2-.65.2-.67.19-.69.18-.69.18-.72.17-.73.18-.75.16-.77.17-.79.15-.8.15-.82.14-.84.14-.86.12-.87.11-.89.11-.9.09-.92.08-.93.07-.94.05-.96.04-.96.03-.98.02H.76L-.23 12l-1-.03-1-.03-1.01-.06-1.02-.06-1.01-.08-1.01-.09-1.02-.11-1.01-.11-1-.13-1-.14-.99-.15-.99-.16-.97-.17-.96-.17-.95-.19-.94-.19-.92-.2-.9-.2-.88-.21-.86-.21-.84-.22-.81-.22-.79-.21-.77-.22-.73-.22-.71-.22-.68-.22-.65-.21-.62-.21-.59-.21-.56-.21-.53-.22-.51-.22-.49-.22-.46-.23-.43-.23-.41-.23-.39-.23-.35-.24-.32-.24-.3-.24-.26-.25-.23-.25-.2-.26-.17-.26" filter="url(#a)" transform="translate(40.99 -22.66)"/><path fill="#fff" d="m29.93-2.48-.23-.34-.28-.35-.31-.35-.36-.35-.4-.36-.43-.36-.48-.36-.5-.36-.55-.37-.57-.36-.61-.35-.63-.36-.67-.35-.69-.35-.72-.35-.78-.42-.81-.42-.86-.41-.88-.41-.92-.4-.94-.39-.98-.38-.99-.36-1.02-.35-1.04-.34-1.06-.32-1.07-.3-1.09-.29-1.1-.26-1.1-.25-1.11-.23-1.12-.21-1.12-.18-1.11-.17-1.12-.14-1.1-.12-1.11-.1-1.09-.07-1.08-.05-1.07-.03-1.06-.01-1.04.02-1.03.03-1.01.06-.98.08-.97.1-.95.12-.92.14-.9.16-.88.17-.85.2-.83.21-.8.22-.78.24-.76.25-.72.26-.71.28-.68.28-.65.29-.63.31-.61.3-.58.31-.56.32-.55.32-.52.32-.5.32-.48.33-.47.33-.44.33-.43.34-.41.34-.4.34-.37.34-.36.34-.35.34-.33.34-.31.34-.3.34-.28.33 4.09 11.8.49.36.49.36.51.36.52.35.54.35.54.35.56.35.57.34.59.33.59.33.61.32.62.31.63.31.64.3.65.29.67.28.68.28.7.26.71.26.72.24.74.24.74.21.77.2.77.19.78.16.79.15.81.12.81.1.82.09.84.06.83.03.85.01.85-.01.86-.03.87-.06.87-.08.87-.11.87-.13.88-.15.89-.17.88-.2.88-.21.89-.24.88-.25.88-.28.88-.29.88-.3.87-.32.87-.33.87-.34.85-.36.86-.36.84-.36.84-.38.83-.37.81-.38.81-.38.8-.37.78-.37.77-.37.75-.36.74-.36.72-.35.71-.34.59-.34.57-.35.56-.35.53-.35.52-.35.49-.35.47-.36.45-.35.42-.35.39-.35.36-.35.33-.35.3-.36.27-.35.23-.36" filter="url(#a)" transform="translate(-36.43 -22.37)"/><g fill="none" stroke="#000" transform="translate(40.99 -22.66)"><path stroke-linejoin="round" stroke-width="1.667" d="m-32.81 2.3.02-.19.06-.22.11-.23.15-.26.19-.27.24-.29.28-.3.31-.31.36-.32.39-.33.43-.34.46-.35.49-.36.53-.35.56-.36.59-.37.61-.36.65-.37.67-.36.7-.36.72-.36.74-.36.76-.35.79-.35.8-.34.88-.45.91-.44.93-.43.97-.42.98-.4 1.01-.39 1.04-.37 1.05-.36 1.06-.34 1.08-.31 1.1-.3 1.1-.27 1.12-.26 1.11-.23 1.13-.21 1.12-.18 1.12-.17 1.13-.13 1.11-.12 1.12-.09 1.1-.07 1.09-.04 1.08-.03 1.07.01 1.06.02 1.04.05 1.02.06 1 .09.99.11.96.13.94.14.92.17.9.18.87.2.85.21.82.23.8.24.77.26.75.26.72.28.7.28.67.29.65.3.62.31.6.31.58.32.55.31.53.32.51.32.5.32.47.33.45.32.44.32.42.33.4.32.38.33.37.33.35.32.33.33.32.32.3.32.29.32.27.31.26.31.25.31.23.31.22.3.2.3.19.29.19.29.17.29.16.28.14.28.14.27" filter="url(#a)"/><path stroke-linejoin="round" stroke-width="2.222" d="m-32.12.63-.21.34-.17.33-.13.31-.09.31-.06.31-.01.29.03.28.06.28.1.27.13.27.17.26.2.26.23.25.26.25.3.24.32.24.35.24.39.23.41.23.43.23.46.23.49.22.51.22.53.22.56.21.59.21.62.21.65.21.68.22.71.22.73.22.77.22.79.21.81.22.84.22.86.21.88.21.9.2.92.2.94.19.95.19.96.17.97.17.99.16.99.15 1 .14 1 .13 1.01.11 1.02.11 1.01.09 1.01.08 1.02.06 1.01.06 1 .03 1 .03.99.01h.99l.98-.02.96-.03.96-.04.94-.05.93-.07.92-.08.9-.09.89-.11.87-.11.86-.12.84-.14.82-.14.8-.15.79-.15.77-.17.75-.16.73-.18.72-.17.69-.18.69-.18.67-.19.65-.2.64-.2.62-.2.61-.2.59-.21.57-.21.57-.22.54-.21.53-.22.52-.21.5-.22.48-.22.47-.22.46-.21.44-.22.43-.22.41-.22.4-.21.39-.21.37-.22.36-.21" filter="url(#a)"/><circle cx="-.099" cy="2.774" r="3.752" clip-path="url(#b)" filter="url(#a)"/><circle cx="-.244" cy="3.759" r="4.718" clip-path="url(#b)" filter="url(#a)"/><circle cx="-4.109" cy="1.749" r="4.098" clip-path="url(#b)" filter="url(#a)"/><circle cx=".136" cy="6.019" r="4.454" clip-path="url(#b)" filter="url(#a)"/><circle cx="-3.449" cy="4.339" r="3.248" clip-path="url(#b)" filter="url(#a)"/><circle cx="-1.729" cy="2.439" r="4.98" clip-path="url(#b)" filter="url(#a)"/><circle cx="-3.109" cy="1.269" r="3.102" clip-path="url(#b)" filter="url(#a)"/><circle cx="-1.424" cy="2.429" r="4.636" clip-path="url(#b)" filter="url(#a)"/><circle cx="-1.209" cy="1.924" r="3.92" clip-path="url(#b)" filter="url(#a)"/><circle cx="-4.104" cy="2.594" r="3.488" clip-path="url(#b)" filter="url(#a)"/></g><g fill="none" stroke="#000" transform="translate(-36.43 -22.37)"><path stroke-linejoin="round" stroke-width="2.222" d="m29.44.46.3-.24.24-.25.18-.27.12-.28.07-.3.02-.3-.04-.31-.09-.32-.13-.33-.18-.34-.23-.34-.28-.35-.31-.35-.36-.35-.4-.36-.43-.36-.48-.36-.5-.36-.55-.37-.57-.36-.61-.35-.63-.36-.67-.35-.69-.35-.72-.35-.78-.42-.81-.42-.86-.41-.88-.41-.92-.4-.94-.39-.98-.38-.99-.36-1.02-.35-1.04-.34-1.06-.32-1.07-.3-1.09-.29-1.1-.26-1.1-.25-1.11-.23-1.12-.21-1.12-.18-1.11-.17-1.12-.14-1.1-.12-1.11-.1-1.09-.07-1.08-.05-1.07-.03-1.06-.01-1.04.02-1.03.03-1.01.06-.98.08-.97.1-.95.12-.92.14-.9.16-.88.17-.85.2-.83.21-.8.22-.78.24-.76.25-.72.26-.71.28-.68.28-.65.29-.63.31-.61.3-.58.31-.56.32-.55.32-.52.32-.5.32-.48.33-.47.33-.44.33-.43.34-.41.34-.4.34-.37.34-.36.34-.35.34-.33.34-.31.34-.3.34-.28.33-.27.34-.25.33-.25.33-.23.32-.21.33-.21.32-.19.31-.18.31-.17.31-.16.31" filter="url(#a)"/><path stroke-linejoin="round" stroke-width="2.222" d="m30.3-2.68.24.41.19.39.13.39.08.39.03.37-.02.38-.07.36-.11.37-.15.36-.19.35-.23.36-.27.35-.3.36-.33.35-.36.35-.39.35-.42.35-.45.35-.47.36-.49.35-.52.35-.53.35-.56.35-.57.35-.59.34-.71.34-.72.35-.74.36-.75.36-.77.37-.78.37-.8.37-.81.38-.81.38-.83.37-.84.38-.84.36-.86.36-.85.36-.87.34-.87.33-.87.32-.88.3-.88.29-.88.28-.88.25-.89.24-.88.21-.88.2-.89.17-.88.15-.87.13-.87.11-.87.08-.87.06-.86.03-.85.01-.85-.01-.83-.03-.84-.06-.82-.09-.81-.1-.81-.12-.79-.15-.78-.16-.77-.19-.77-.2-.74-.21-.74-.24-.72-.24-.71-.26-.7-.26-.68-.28-.67-.28-.65-.29-.64-.3-.63-.31-.62-.31-.61-.32-.59-.33-.59-.33-.57-.34-.56-.35-.54-.35-.54-.35-.52-.35-.51-.36-.49-.36-.49-.36-.47-.35-.45-.36-.45-.36-.43-.36-.42-.35-.41-.36-.39-.35-.39-.35-.37-.35-.36-.34" filter="url(#a)"/><circle cx="5.063" cy="4.922" r="4.312" clip-path="url(#c)" filter="url(#a)"/><circle cx="6.223" cy="8.212" r="4.12" clip-path="url(#c)" filter="url(#a)"/><circle cx="7.348" cy="4.097" r="4.152" clip-path="url(#c)" filter="url(#a)"/><circle cx="7.438" cy="6.122" r="3.186" clip-path="url(#c)" filter="url(#a)"/><circle cx="5.468" cy="6.507" r="3.558" clip-path="url(#c)" filter="url(#a)"/><circle cx="5.778" cy="5.522" r="3.124" clip-path="url(#c)" filter="url(#a)"/><circle cx="8.253" cy="7.887" r="3.542" clip-path="url(#c)" filter="url(#a)"/><circle cx="7.928" cy="4.937" r="4.574" clip-path="url(#c)" filter="url(#a)"/><circle cx="5.808" cy="4.317" r="4.4" clip-path="url(#c)" filter="url(#a)"/><circle cx="5.558" cy="3.592" r="3.432" clip-path="url(#c)" filter="url(#a)"/></g><g fill="none" stroke="#2C222B" stroke-linejoin="round" stroke-width="2"><path d="m33.17-67.46 1.32.75 1 .62.53.51.18.43-.09.4-.37.36-.64.33-.95.3-1.27.26-1.62.23-2 .15-2.43.08-2.93-.01-3.43-.11-3.95-.18-4.43-.24-4.89-.3-5.39-.35-5.94-.39-6.57-.44-7.17-.53-7.66-.7m9.75-7.25 1.64-.19 1.67-.24 1.28-.23 1.03-.18.94-.13.87-.1.76-.04.55-.01.27.05-.02.1-.3.14-.53.2-.78.24-1.07.31-1.46.38-1.92.48-2.41.57-2.83.66-3.17.72-3.28.69" filter="url(#a)"/><path d="M33.51-67.04h.22l.81.39.79.46.56.43.3.36.08.29-.15.23-.4.16-.67.1-.96.02-1.29-.07-1.63-.17-2.02-.3-2.43-.46-2.83-.61-3.26-.77-3.72-.91-4.26-1.04-4.88-1.15-5.51-1.3-6-1.49m-4.94-1.73.74-.1 1.18-.02.88.06.4.16v.26l-.29.36-.49.47-.71.59-.98.71-1.32.86-1.72 1.01-2.15 1.19-2.63 1.36-3.12 1.57-3.66 1.79-4.22 2.01-4.8 2.24-5.33 2.39-5.78 2.45-6.17 2.46m92.47-7.82 1.04.54 1.18.92 1.13.99 1.08.97 1.07.98 1.1 1.03 1.1 1.06 1.08 1.02.99.95.89.85.75.73.61.6.45.46.23.23-.15-.16-.84-.88" filter="url(#a)"/><path d="m48.7-57.22.64.78.66.71.53.63.36.57.13.47-.17.29-.54.06-.94-.24-1.38-.54-1.82-.82-2.25-1.06-2.64-1.26-3.03-1.44-3.43-1.65-3.91-1.94-4.47-2.32-5.2-2.78-6.08-3.23" filter="url(#a)"/><path d="m22.67-71.44 1.46.43.81.35.38.32v.3l-.42.25-.86.22-1.36.19-1.9.14-2.47.09-3.05.04-3.63-.03-4.23-.08-4.96-.15-5.82-.19-6.81-.23-7.73-.3m80.95 29.51-.66-.19-.75.17-1.41.02-2.28-.25-3.2-.53-4.13-.81-5.06-1.07-6.01-1.36-7.05-1.73-8.18-2.15-9.42-2.63-10.67-3.14-11.86-3.67-13.05-4.05m-13.14-5.04.95-.54.86-.4.97-.37.87-.31.62-.2.38-.08.19.04.01.17-.2.34-.53.54-.93.77-1.4 1.01-1.86 1.27-2.3 1.53-2.76 1.84-3.28 2.18-3.89 2.58-4.49 3M-8.68-74.6l.84-.12 1.49-.11 1.38-.09 1.1-.07.86-.04.76-.02.73-.01.69.01.59.01.41.03.15.06-.17.08-.5.1-.85.12-1.22.15-1.66.19-2.2.22-2.83.23-3.23.19m19.4-1.08 1.2.13 1.41.16 1.24.15.95.14.69.12.45.1.22.08-.05.06-.41.02-.85-.03-1.38-.09-1.96-.18-2.59-.25-3.49-.33" filter="url(#a)"/><path d="m4.3-75.02.56.16 1.34.14 1.48.2 1.56.25 1.62.28 1.6.31 1.55.33 1.5.34 1.45.34 1.42.34 1.38.34 1.31.33 1.19.31 1.06.28.88.24.7.18.49.13.28.06.02-.02-.3-.12-.69-.24-1.08-.37-1.34-.47m14.76 6.46.69.4.71.47.62.48.43.44.24.39.03.36-.18.31-.46.22-.77.11-1.11-.02-1.46-.16-1.82-.29-2.17-.39-2.54-.48-2.93-.57-3.38-.67-3.82-.78-4.27-.91-4.75-1.05-5.27-1.23-6-1.41-6.97-1.64" filter="url(#a)"/><path d="m59.51-45.76.76 1.22.82 1.35.46.91.13.5-.09.23-.29.04-.5-.13-.72-.3-.96-.45-1.19-.64-1.48-.85L54.67-45l-2.15-1.45-2.56-1.85-3.01-2.29-3.48-2.72-3.95-3.13-4.38-3.49-4.76-3.8-5.13-4.15m-17.3-6.77 1.68.2.99.18.45.2.03.23-.29.28-.59.33-.94.4-1.35.45-1.86.52-2.43.59-3.03.65-3.64.73-4.26.82-4.9.92-5.61.98-6.4 1.03-7.37 1.14m-3.49-1.12 1.13-.77 1-.59 1.02-.49 1.03-.45.91-.37.68-.27.43-.15.18-.02-.06.12-.36.3-.74.5-1.22.74-1.73.99-2.18 1.19-2.6 1.38-3.07 1.6" filter="url(#a)"/><path d="m19.95-72.37-.03.02.24.16.11.22-.15.27-.55.27-1.1.26-1.73.22-2.41.18-3.1.12-3.8.07-4.53.01-5.36-.05-6.4-.07-7.72-.03M53.6-52.25l1.33 1.72.27.91-.64.42-1.27.26-1.75.29-2.2.36-2.66.44-3.22.43-3.86.34-4.56.17-5.31-.06-6.06-.25-6.82-.41-7.59-.53-8.37-.62-9.16-.69-9.95-.75-10.78-.77-11.73-.77M7.06-74.75l1.23.14 1.46.16 1.3.17 1.11.17.97.16.89.17.84.17.77.17.65.16.47.14.23.12-.03.08-.3.05-.59.01-.89-.04-1.23-.09-1.6-.15-2.03-.23-2.5-.3-3.08-.37-3.68-.44m48.12 18 1.02.93.61.64.43.58.15.47-.21.25-.67-.06-1.18-.41-1.72-.81-2.27-1.18-2.78-1.51-3.31-1.79-3.88-2.07-4.51-2.41-5.22-2.8-5.89-3.3m-51.07 1.65 2.23-.8.95-.41.7-.34.75-.32.75-.27.6-.17.29-.01-.14.17-.63.38-1.14.59-1.61.78-2.1 1-2.76 1.29-3.67 1.73" filter="url(#a)"/><path d="m49.17-56.5 1.13 1.01.95.87.99.97.97 1 .88.94.74.81.56.64.39.45.24.33.14.24.06.19-.03.15-.15.06-.34-.1-.59-.34-.89-.64-1.19-.96-1.47-1.25-1.74-1.54-2-1.78-2.3-2.05-2.6-2.32-2.85-2.58M-2.62-74.97l1.01-.02 1.93.16 2.1.27 2.2.37 2.35.46 2.52.52 2.63.57 2.7.61 2.7.61 2.66.62 2.53.59 2.32.56 2.05.5 1.81.47 1.68.45" filter="url(#a)"/><path d="m-41.27-62.43.44-.37 1.6-.79 2.14-.86 2.4-.84 2.6-.83 2.79-.84 2.96-.86 3.1-.86 3.21-.85 3.24-.82 3.21-.79 3.08-.75 2.93-.71 2.76-.68 2.57-.64 2.29-.63" filter="url(#a)"/><path d="m-25.95-70.68 2.34-.42 2.25-.11 2.37.22 2.65.49 3.08.68 3.57.85 4.07.98 4.5 1.11 4.84 1.22 5.11 1.3L14.15-63l5.47 1.44 5.61 1.55 5.79 1.72 6.02 1.94 6.3 2.17 6.39 2.31" filter="url(#a)"/><path d="m50.76-55.14 1.11 1.25.35.96-.37.68-1.05.44-1.81.14-2.61-.16-3.4-.4-4.1-.56-4.8-.66-5.51-.73-6.32-.85-7.23-1.04-8.21-1.32-9.24-1.65-10.3-1.93-11.49-2.06m-10.84-3.09 1.33-.77 1.6-.63 2.01-.57 2.43-.58 2.71-.59 2.86-.58 2.95-.58 3.08-.57 3.22-.56 3.33-.55 3.35-.52 3.23-.48L0-73.54l2.6-.4 2.25-.41" filter="url(#a)"/><path d="m-43.25-61.28 1.39-.83 1.35-.74 1.71-.83 2.02-.85 2.18-.84 2.3-.83 2.37-.83 2.42-.83 2.47-.81 2.48-.8 2.46-.76 2.39-.73 2.28-.68 2.12-.64 1.94-.59 1.79-.54 1.64-.5 1.57-.45 1.51-.42" filter="url(#a)"/><path d="m-21.83-71.88 1-.21 1.2-.12 1.55-.14 1.98-.18 2.33-.22 2.58-.21 2.72-.19 2.81-.16 2.82-.15 2.72-.14 2.55-.14 2.33-.12 2.14-.09 2.02-.07 1.89-.05M53.6-52.25l1.26 1.69.05.84-1.01.27-1.8.06-2.47.03-3.09.04-3.78.07-4.56.02-5.44-.11-6.41-.35-7.4-.64-8.36-.94-9.32-1.21-10.28-1.42-11.27-1.66-12.13-1.97m69.22-8.33.26.53.25.47.12.48-.14.5-.47.49-.85.49-1.23.5-1.63.49-2.1.48-2.59.43-3.14.38-3.7.32-4.26.29-4.83.27-5.35.27-5.88.25-6.42.23-6.98.18-7.58.09-8.16-.04-8.69-.21m8.43-10.69 1.51-.66 1.23-.41 1.14-.31.92-.21.62-.08.33.03.11.14-.05.24-.22.34-.42.48-.66.63-.96.81-1.31.99-1.71 1.21-2.15 1.43-2.6 1.68-3 1.91-3.38 2.1-3.69 2.22-4.08 2.33-4.6 2.54" filter="url(#a)"/><path d="m47.27-57.94.63.29.66.51.66.61.62.63.55.58.44.53.27.41.03.25-.25.01-.6-.27-.98-.58-1.35-.87-1.7-1.13-2.01-1.36-2.34-1.57-2.74-1.85-3.22-2.19-3.75-2.61" filter="url(#a)"/><path d="m43.25-61.31.45.53.49.47.28.43-.09.27-.52.08-.94-.09-1.34-.21-1.75-.33-2.19-.44-2.65-.58-3.14-.75-3.66-.96-4.22-1.2-4.88-1.47-5.7-1.79-6.68-2.12-7.61-2.45m-14.88-1.62 1.58-.17 1.48-.17.97-.09h.61l.42.11.28.21.08.33-.21.45-.56.58-.94.73-1.29.88-1.62 1.05-1.94 1.21-2.28 1.4-2.63 1.56-3.01 1.72-3.38 1.86-3.79 2-4.27 2.19-4.83 2.41-5.4 2.67-5.87 2.83m46.29-25.1 1.6-.03 1.21-.02 1.2.06 1.39.11 1.65.14 1.85.14 1.92.14 1.89.15 1.79.15 1.67.15 1.52.13 1.31.11 1.01.06.66.02.22-.04-.37-.1" filter="url(#a)"/><path d="M1.75-75.05h.61l1.36.17 1.59.24 1.71.29 1.79.33 1.84.37 1.86.39 1.85.42 1.79.42 1.72.43 1.66.43 1.61.42 1.54.4 1.44.38 1.3.34 1.12.3.93.24.73.19.51.11.26.02-.05-.08-.37-.18" filter="url(#a)"/><path d="m-44.8-60.28 14.35-4.16 17.98.39 17.31.24 13.59 1 10.29 2.52 6.73 2.89 2.06 1.47-2.8-.65-6.11-2.02-6.82-2.04-5.11-1.28-2.32-.63-.3-.53-.49-.85-2.4-1.18-2.79-1.49 1.38-1.95 4.88-2.44L4.3-75.02" filter="url(#a)"/><path d="M-8.62-74.74-36.5-60.98l-5.64 1.5 3.7-1.26L-28.4-62l13.57-.79 12.47-.74 7.27-1.16.54-1.51-4.96-1.23-7.77-.24-7.68 1.07-5.05 2.07-.42 2.16 4.82.98 7.23-1.2 2.47-3.02-6.22-3.23 9.39-6.31" filter="url(#a)"/><path d="M3.79-74.8-8.63-56.72l8.06 4.11 6.44-2.83 7.91-2.91 9.21-.46 8.47 2.06 6.26 3.62 3.22 3.71-.06 2.34-2.55.04-3.49-2.32-3.54-4.01-4.79-4.85-8.73-4.92L4.19-67.4l-14.58-2.88-9.25-1.09-8.49 1.71" filter="url(#a)"/><path d="M62-42.02-3.07-54.69l-16.24-6 2.51.82 10.77 3 12.06 1.79 9.29.15 5.32-.62 1.03-1.17-3.69-2.31-7.84-3.75-9.35-4.3-7.11-3.15-1.71-.46 6.71 3.54 22.06 11.13 49.79 31.08" filter="url(#a)"/><path d="m-41.78-62.38 28.13-7.28 6.88-1.54-1.86.39-.26 1.01 4.36 1.07 6 .96 2.89.9-2.24.99-4.54 1.11-1.19 1.27 5.27 1.81 6.88 2.92-4.76 3.71-27.92 2.51-32.14 3.04" filter="url(#a)"/><path d="m43.62-60.6-15.77 7.32-28.28-2.1-13.82-2.11-1.5-1.3 3.31-1.54 3.19-1.78 2.29-1.23 3.15-.08 5.84.89 8.11 1.07 6.88.3.73-1.28-8.25-3.08-15.26-3.31-17.53.47-22.18 8.58" filter="url(#a)"/><path d="M68.43-29.65 23.48-58.29l-11.99-7.67 4.81 2.01 8.98 4.55 5.04 2.74-.79-.32-4.22-2.22-4.17-2.19-1.63-.73 1.63 1.03 4.08 2.24 4.7 2.47 3.04 1.76-.68.41-5.46-1.14-9.48-2.35-10.71-2.82-8.24-2.43-3.89-1.32-1.61.39-2.28 2.86 6.93 6.01 59.88 6.94" filter="url(#a)"/><path d="m-33.84-67.01 44.69 6.38-1.02 4.3-17.17.76-12.8-.3-3.08-.19 3.13-.33 4.27-1.24 3.06-2.57 2.44-3.49 3.28-3.27 4.91-1.78 6.92.67 9.77 3.42 12.97 5.35 12.66 4.25 4.22-1.97-4.12-6.32" filter="url(#a)"/><path d="m63.52-39.6-19.4-12.87-13.19-.88-9.88 2.96-10.11 1.74-10-.57-7.74-2.44-3.65-3.45.86-3.6 4.46-3.15 6.17-2.56 5.42-2.15 2.38-1.98-1.71-1.68-5.27-.7-7.68 1.24-8.44 3.62-.55 3.75 41.36-7.7" filter="url(#a)"/><path d="m22.67-71.44 7.39 16.64-12.77-3.88-6.33-3.35-1.08-.09.09.95-1.93.16-5.58-.72-8.29-.76-7.3-.16-1.46.42 7.33.69 14.67.88 16.39 1.21 13.04 2.2 11.89 5.7 14.86 12.08" filter="url(#a)"/><path d="M43.25-61.31 1.93-62.78l-.38 3.49 4.68 2.85 3.14-.35 3.3-1.58 4.34-.39 4.47 1.24 3.01 1.66.66.97-1.07.68-1.5 1.78L21.39-49l1.37 3.15 10.43-1.78 3.62-18.23" filter="url(#a)"/><path d="m-20.88-72.24 42.11 14.66-.06 5.64-9.56-.35-4.72-1.38-2.79-1.05-5.45-1.16-6.66-1.45-2.46-1.05 5.38.57 11.32 2.74 10.15 3.42 1.53.58-6.45-5.3.51-9.18 17.27-3.63" filter="url(#a)"/><path d="m61.88-41.45-38.69-17.3-13.66-1.93-3.76-.38-2.18-1.75-2.1-1.79-2-.6-1.95.52-1.69.77-.76.2.64-.65 1.46-1.13.4-.85-2.63.1-5.76 1.19-5.74 1.74.07 1.53 11.31 1.15 22.49 1.6 22.77 1.9-.01-6.16" filter="url(#a)"/><path d="m-20.07-72.29 44.98 16.95-5.14.52L.21-58.46l-15.62-3.45-6.55-2.51 1.27-1.73 5.26-.9 5.03.16 1.88 1.32-1.76 2.16-3.45 2.38-2.13 1.9 1.45 1.15 5.54.73 8.52 1.13 9.51 2.05 7.49 2.1.96-.5-8.92-5.43-15.85-7.68-29.06.06" filter="url(#a)"/><path d="m46.98-58.22-22.53-3.01-19.52 3.17-3.52 4.44 3.55 1.74 4.29-1.14 4.09-2.58 4.5-2.63 4.94-1.79 4.86-.52 4.11.74 2.75 1.64.8 2.01-1.53 1.93-3.67 1.49-4.71.8-3.76.06-.47-.41 4.25-.28 7.98.18 7.23.11-1.32-1.3-20.66-3.84L-40-63.63" filter="url(#a)"/><path d="m-28.22-69.44-9.85 13.37 18.18 4.05 19.12-.91 9.91-3.24 3.53-3.34 1.94-2.16 2.84-.63 3.88.6L25-60.35l1.74 1.55-1.56 1.25-5.01.55-6.94-.35-6.32-1.14-3.52-1.55-.53-1.48.1-.99-2.76-.34-7.49.15-10.41.24-8.53-.3-2.35-1.63 4.19-3.79 1.05-3.06" filter="url(#a)"/><path d="m-28.13-69.66 4.8 6.44 12.07 2.24 8.32.32 3.83-.9-.84-1.38-2.56-1.26-.16-.83 3.96-.35 6.48.16 6.08.87 4.04 1.89 2.45 2.89 1.61 3.01-.73 1.49-7.64-1.77-18.87-6.56-16.54-8.48" filter="url(#a)"/><path d="m-49.14-56.54 71.95 13.55 15.68 1.08-6.26-4.67-8.6-5.02-6.01-3.77-4.51-2.51-3.52-1.29-1.72-.14.02.48-.17.23-2.74-.54-5.54-.89-5.15-.05.3 1.87 8.76 3.48 13.84 2.65 7.68-2.49-10.11-10.49L.7-75" filter="url(#a)"/><path d="m65.04-37.49-26.56-21.2-10.06-4.4-3.79 3.78-1.28 5.12.98 3.05 2.56.78 2.73-.22 1.98-.03 1.33.48 1.04.56.47-.14-1.31-1.42-4.63-2.74-8.81-3.48-12.44-3.21-14.14-2-13.23-.43-10.03.69-5.73.91-1.51.35 2.2-.79 3.32-1.61-15.3 5.22" filter="url(#a)"/><path d="m24.72-70.84 3.66 13.5L8.1-59.12l-12.94-2.27-5.3-.62-2.66.09-1.55-.46.09-1.6 1.69-2.42 2.1-2.47 1.16-1.84-.26-.89-1.15.02-1.03.68.01.99 1.64 1.04 3.64.89 5.86.75 7.83.81 8.38.97 6.66.89 4.56.81 9 3.31 21.92 12.56M.7-75l-2.21-2.49-.99-1.47-.67-.33-.78-.14-1.01-.16-1.2-.07h-1.29l-1.32-.06-1.29-.3-1.32-.61-1.42-.92-1.56-1.15-1.64-1.2-1.6-1.02-1.52-.64-1.7-.47-2.21-1.33" filter="url(#a)"/><path d="m-2.74-75.15-.01.1-.34.1-.67.17-.98.19-1.16.17-1.22.14-1.2.17-1.14.23-1.11.3-1.11.36-1.14.41-1.15.42-1.15.43-1.1.43-1.04.42-.96.41-.86.36-.8.31-.82.3-.99.41-1.35.58-1.96.65 22.26-7.06 2.47-2.69 1.49-2.96 1.17-.92 1.16.35 1.21.65 1.25.5 1.27.28 1.3.06 1.33-.21 1.36-.54 1.36-.87 1.32-1.08 1.28-1.13 1.32-1.08L18-85.91l1.65-1.38 1.92-1.38 2.69.66-26.88 13.04-.36-.83-.91-2.61-1.3-3.12-1.52-2.36-1.5-1.22-1.38-.23-1.22.51-1.15.94-1.18.99-1.31.6-1.49-.1-1.65-.9-1.76-1.48-1.76-1.59-1.6-1.33-1.41-1.08-1.31-1.35-1.44-1.97-1.39-.99 22.17 18.21 1.36-2.58.74-2.93.63-1.06.74.17.92.47 1.1.35 1.21.14 1.23-.08 1.25-.39 1.31-.87 1.37-1.4 1.39-1.63 1.35-1.23 1.36-.35 1.95-.57" filter="url(#a)"/><path d="m14.12-77.26-.45.22-.89.14-1.12.04-1.24-.04-1.27-.08-1.27-.09-1.25-.08-1.23-.06H4.18l-1.2.05-1.18.11-1.15.16-1.11.18-1.03.2-.96.2-.91.24-.94.27-1.07.3-1.2.27-1.3.16-1.24.01-1.05.04-.68.85" filter="url(#a)"/><path d="m-10.84-74.17-.92.82-1.33 1.29-1.18.99-1.09.64-1.03.47-.94.51-.79.73-.66.99-.62 1.14-.68 1.13-.78.99-.88.81-.91.69-.89.62-.83.64-.8.68-.78.75-.75.92-.63 1.15-.48 1.41-.44 1.51-.75 1.3-1.32.96 14.54-20.51 1.02-3.28 1.66-.53 1.31-.64 1.05-1.1 1.02-1.41 1.11-1.75 1.17-2.29 1.14-2.76 1.06-2.8.98-2.25.98-1.29 1.07-.36 1.21.21 1.36.23 1.42-.2 1.46-.94 1.52-1.72 1.78-2.14 2.86-2.2-48.78 31.88 1.99-.66 1.58-.39 1.36-.24 1.29-.2 1.3-.24 1.24-.27 1.17-.3 1.1-.31 1.1-.34 1.13-.39 1.19-.4 1.19-.35 1.17-.24 1.08-.08.99.05.96.04 1.02-.16 1.12-.43 1.11-.44.51.69 23.66-.37-.79-.18-1.01-.12-1.16-.08-1.18-.07-1.16-.07-1.14-.06-1.11-.05-1.06-.04-.99-.02-.95-.01-.94.02-.99.04-1.07.07-1.13.09-1.16.1-1.16.11-1.14.12-1.16.13-1.21.15-1.25.16-1.23.17-1.2.2-1.31.28-1.53.33m92.7 60.12.41-.05.18.79.14 1.14.16 1.25.23 1.23.26 1.18.25 1.12.2 1.1.16 1.11.12 1.12.13 1.12.13 1.09.12 1.09.09 1.15.05 1.24.04 1.28.05 1.21.06 1v.84l.05.99-2.83-21 6.87-2.9-.07-1.59-.86-1.23-.34-1.21.46-1.4 1.08-1.64 1.18-1.75.71-1.71-.03-1.58-.47-1.5-.28-1.58.49-1.76 1.56-1.84 3.04-1.64 5.8-.96" filter="url(#a)"/><path d="m-21.83-71.88-1.61.5-1.52.33-1.28.22-1.06.24-.98.32-1 .39-1.08.44-1.16.43-1.17.42-1.16.43-1.14.47-1.12.47-1.13.47-1.18.46-1.31.54-1.49.74-1.67.96" filter="url(#a)"/><path d="m-23.34-71.24 1.24-.47.93-.26.78-.16.81-.14.92-.17 1.03-.19 1.13-.17 1.2-.12 1.22-.07 1.24-.03 1.21-.04 1.17-.06 1.14-.1 1.15-.14L-7-73.5l1.18-.12 1.12-.04.96.04.76.13.66.19.92.2 2.08.2-26.63 2.22 1.97-.8 1.39-.65.95-.71.66-1.05.5-1.59.49-2.05.62-2.14.82-1.8 1.03-1.36 1.19-1.11 1.23-1.24 1.18-1.6 1.05-1.91.94-2.01.94-1.95 1.16-2.03 1.94-2.43m-18.12 26.45-1.19 1.06-.78.49-.88.53-1.04.64-1.09.64-1.06.64-1.01.66-.96.74-.93.8-.94.8-.99.76-1.03.7-1 .69-.9.7-.72.76-.61.77-.66.73-.84.7-.73.84" filter="url(#a)"/><path d="m-28.22-69.44.54-.56.91-.9.9-1.52.75-2.28.58-2.66.5-2.5.5-2.02.61-1.48.78-1.04.99-.66 1.2-.37 1.31-.27 1.37-.42 1.52-.74 1.69-1.13 1.08-.94" filter="url(#a)"/><path d="m-12.51-90.05-.61.98-1.35.13-1.5.67-1.34 1.2-1.15 1.46-1.04 1.46-.98 1.31-.91 1.1-.85.96-.84.93-.87.99-.96 1.07-1.05 1.11-1.04 1.14-.88 1.25-.57 1.5-.28 1.74-.51 1.58-2.09 1.15-1.25.5 1.31-1.41 1.1-1.59.78-1.16.78-.8.85-.82.92-1.08.97-1.29.97-1.33.91-1.26.8-1.17.7-1.13.69-1.2.81-1.37 1.04-1.38 1.16-.87.43.12M73.38-14l-.54.98-1.6.91-1.18 1.06-.2 1.11.45 1.11.64 1.09.55 1.08.36 1.06.11 1.06-.16 1.06-.47 1.07-.75 1.06-.96 1.04-1 1.03-.91 1.05-.71 1.05-.55 1.04-.53.96-.68.85-.9.74-1.08.68-1.13.69-.99.74-.27.82" filter="url(#a)"/><path d="m-35.06-66.12 2.28 1.54.98-.53 1.03-.38 1.2-.2 1.15-.32 1-.53.89-.64.92-.58 1.04-.38 1.18-.11 1.26.18 1.27.43 1.2.58 1.11.55 1.01.32h.96l.96-.18 1.01-.07 1.13.35 1.49.85 2.51 1.03-11.17-14.14-.68.32-.55.37-.74.51-.97.67-1.15.72-1.2.68-1.15.67-1.03.73-.92.81-.89.88-.91.91-.95.91-.96.91-.93.92-.91.95-.9.93-.89.78-.88.57-1.45.68 1.02-1.47.52-1.35.33-2 .24-2.42.36-2.24.65-1.72.91-1.21 1.06-.9 1.09-.78 1.08-.78 1.09-.81 1.13-.89 1.13-1.04 1.08-1.24.96-1.47.84-1.63.75-1.7.76-1.64.87-1.56 1.03-1.47 1.13-1.53 1.14-1.93 1.46-2.71 3.07-2.81" filter="url(#a)"/><path d="m-17.89-67.85-.73-.25-.58-.01-.79.04-1.05.03-1.23.03-1.28.04-1.24.06-1.16.09-1.11.13-1.09.2-1.1.28-1.13.35-1.14.39-1.14.4-1.13.41-1.12.42-1.11.38-1.16.32-1.32.36-1.5.55-1.78 1.25.81 1.61.42 1.96-.32 1.04-.77.42-.82.3-.73.46-.65.65-.65.79-.67.85-.67.92-.66.99-.63 1.07-.61 1.12-.56 1.13-.43 1.14-.25 1.15-.05 1.15.05 1.11.02 1.07-.13 1.04-.31.99-.36.82-.11.33" filter="url(#a)"/><path d="m-21.73-78.26-.15.64-.71.42-1.03.62-1.18.8-1.22.78-1.19.63-1.12.51-1.06.52-1.01.62-.99.75-1 .83-1.04.82-1.07.72-1.13.6-1.14.54-1.11.59-1.04.79-.94 1.1-.82 1.4-.58 1.42-.01.73m18.6.67-1.04-1.18-1.07-.53-.98-.22-1.1-.16-1.25-.15-1.3-.07-1.23.09-1.11.29-1.03.47-1.04.49-1.16.3-1.38.03-1.58-.13-1.61-.06-1.31.12-.41.04M72.95-16.05l-.09-1.14-.17-.88-.21-1-.21-1.16-.24-1.23-.33-1.28-.42-1.27-.46-1.24-.45-1.17-.38-1.03-.27-.85-.13-.7-.08-.71-.13-.93-.28-1.21-.33-.98M-64.39-53.87l1.99-.32 1.24-.37.93-.3.81-.32.87-.47 1.03-.59 1.26-.6 1.45-.51 1.56-.35 1.55-.26 1.45-.27 1.28-.4 1.16-.55 1.09-.57.96-.26.29.23" filter="url(#a)"/><path d="m-48.14-57.41-1.74 1.54-.94 1.24-.81 1.21-.77 1.12-.69.97-.55.86-.44.81-.4.84-.4.88-.42.96-.45 1.02-.46 1.07-.47 1.09-.45 1.11-.41 1.11-.37 1.13-.31 1.16-.27 1.2-.29 1.23-.33 1.21-.4 1.18-.42 1.07-.23.94.05.82 5.43-19.98.91-1.12.5-1.81.1-2.06.19-1.8.38-1.55.37-1.56.25-1.68.19-1.68.21-1.53.26-1.4.23-1.41.15-1.54.09-1.71.11-1.83.18-1.95.29-2.09.44-2.21.58-2.23.52-2.24.31-2.24 1.51-1.21" filter="url(#a)"/><path d="m-53.87-29.11-1.05-1.38-.37-1.51-.47-1.65-.51-1.67-.42-1.59-.28-1.49-.17-1.41-.1-1.4-.02-1.39.13-1.32.31-1.21.45-1.11.47-1.12.37-1.23.32-1.38.68-1.51m-.5-20.88 1.01 1.47.49 2.32.07 2.25-.13 1.99-.23 1.78-.3 1.67-.34 1.66-.4 1.63-.51 1.52-.57 1.31-.52 1.09-.25 1 .07 1.08.14 1.17-.26 1.11-.81 1.14m15.58-18.63-.92 1.26-.55.89-.56.79-.59.75-.63.69-.66.65-.69.63-.75.66-.83.69-.87.74-.88.81-.86.91-.81 1.03-.76 1.13-.74 1.16-.71 1.1-.66.94-.57.74-.51.59-.52.59-.63.79-.88 1.09" filter="url(#a)"/><path d="m-42.92-54.99-1.69.04-1.33.25-1.07.4-1 .57-1.01.7-1.01.79-.95.85-.8.87-.62.8-.53.65-.64.44-.95.24-1.33.16-1.52.35-1.37.72.44.07-.13-.56.62-.75.79-.77.68-.73.51-.7.42-.73.46-.8.59-.9.75-1 .85-1.04.9-1.01.9-.92.87-.84.83-.83.88-.95 1.08-1-11 13.53-1.1 1.79-.56 1.36-.49 1.1-.57.99-.64 1-.63 1.05-.6 1.08-.56 1.07-.5 1.04-.38 1-.26.96-.13.96-.05.97-.06.99-.14.98-.3.99-.48 1-.58 1.1-.52 1.21-.3 1.26-.01 1.08.36.61 5.21-18.97-5.33-4.72 1.69-.15 2.38.12 1.63-.45.89-.95.38-1.28-.04-1.55-.48-1.86-.87-2.14-1.04-2.31-.89-2.29-.46-2.14.02-1.96.38-1.84.58-1.73.72-1.54.85-1.29.77-1.37.26-2.24-.57-3.65" filter="url(#a)"/><path d="m-63.53-39.68.31 2.51-.73 1.2-.54.85-.31.78-.27.76-.29.79-.27.86-.19.95-.07 1.08.01 1.22.01 1.34-.07 1.35-.14 1.25-.12 1.07.01.96-.1 1.19" filter="url(#a)"/><path d="m-64.9-37.62 1.7-.84 1.08-.75.72-.97.64-1 .68-.93.73-.89.83-.83.94-.75 1.03-.65 1.06-.57 1.01-.54.89-.54.73-.56.64-.59.64-.59.78-.59 1.01-.56 1.23-.51 1.34-.46 1.26-.49.94-.5.35.33-29.1 39.75.13-.83.16-1.05.18-1.11.22-1.13.25-1.16.3-1.2.32-1.24.33-1.24.32-1.19.3-1.11.29-1.02.3-.98.35-1.01.42-1.09.49-1.18.55-1.19.54-1.11.49-.97.45-.96.59-1.44" filter="url(#a)"/><path d="m-67.63-31.85 1.16-1.09.54-.77.63-.56.79-.53.86-.63.84-.79.76-.92.66-1.03.56-1.08.56-1.05.64-.95.78-.83.94-.73 1.04-.66 1.1-.62 1.11-.56 1.15-.49 1.24-.37 1.23.02-18.84 18.05-1.11.88-.88.71-.38.78-.12.92-.08 1.07-.2 1.2-.4 1.24-.57 1.22-.68 1.18-.68 1.12-.61 1.1-.53 1.11-.47 1.12-.49 1.13-.59 1.11-.78 1.07-.94.99-.85.98-.38 1.13" filter="url(#a)"/><path d="m-76.91-55.74 1.62 2.59.23 1.71-.45 1.45-.58 1.45-.36 1.55v1.69l.32 1.77.42 1.66.2 1.4-.23 1.08-.53.87-.4.93.27 1.27 1.26 1.77 1.99 2.2 1.9 2.36.93 2.17-.07 1.68" filter="url(#a)"/><path d="m-70.81-24.97-9.56-5.01-1.44-2.3 1.27-1.28 1.82-.86 1.74-.66 1.23-.73.41-1.05-.33-1.33-.59-1.43-.44-1.38-.3-1.44-.6-1.82-1.25-2.41-1.69-2.8-1.35-2.72-.53-2.46-.22-2.33m12.03 32.14-1.05.89-.82.8-.49 1.16-.37 1.35-.37 1.34-.36 1.24-.38 1.16-.45 1.1-.54 1.08-.67 1.06-.83 1.05-.99 1.05-1.12 1-1.04.92-.68.93M65.47-40.64l-.08.59.31.86.36.9.39 1.01.45 1.16.5 1.25.5 1.3.46 1.26.37 1.15.28 1 .25.87.25.78.32.82.46.92.56 1.07.58 1.22.42 1.34.04 1.33-.32.84m.28-.36-.01.87.07 1.21-.04 1.17-.07 1.15-.1 1.16-.2 1.15-.32 1.12-.37 1.09-.33 1.08-.17 1.08.02 1.1.14 1.11.16 1.1.05 1.08-.12 1.06-.32 1.07-.49 1.09-.61 1.08-.7.98-.66.82-.53.7-.53.86m5.13-23.13.88.65.82 1.02.29 1.12.31 1.1.65 1.07.95.99.99.95.78.96.51 1.02.33 1.11.33 1.18.45 1.22.59 1.2.66 1.19.62 1.18.57 1.19.55 1.21.61 1.21.66 1.18.71 1.14.75 1.23.8 1.5.92 1.97 1.04 2.29" filter="url(#a)"/><path d="m71.47-22.72.32 1.1.41 1.06.5 1.06.48 1.06.44 1.06.43 1.08.42 1.07.43 1.04.39 1.02.34 1.03.3 1.08.28 1.13.29 1.18.3 1.18.28 1.17.23 1.15.16 1.16.1 1.18.08 1.19.11 1.09.13.92.17.8.22 1.03m-8.75-29.73 5.74-4.79.59-2.16-1.83-.88-2.26-.61-1.73-.8-1.02-1.01-.54-1.1-.29-1.11-.12-1.17.12-1.32.37-1.57.59-1.84.63-2.1.51-2.28.28-2.3-.01-2.14-.27-1.77-.49-1.25-.42-.84.39-.8 2.2-.8" filter="url(#a)"/><path d="m67.51-32.23.58.86.57 1.06.43.8.33.6.35.63.44.8.54.98.57 1.12.55 1.22.48 1.27.42 1.25.41 1.2.43 1.11.44 1.03.39 1.01.36 1.23.44 1.7-9.78-21.34.59-1.5 1.91-2.07 2.02-2.23 1.67-2.15 1.21-1.95.56-1.61-.22-1.27-.78-1.19-.78-1.55-.3-2.12.21-2.47.34-2.32.21-1.9.33-1.75-.68-.91 3.13 52.49-.14-.39-.22-1.01-.2-.95-.22-.93-.25-1-.27-1.08-.29-1.12-.3-1.13-.31-1.14-.33-1.17-.35-1.21-.36-1.25-.4-1.25-.42-1.23-.44-1.14-.43-1.01-.39-.88-.36-.77-.34-.76-.38-.87-.49-1.03-.61-1.19-.76-1.35-1.16-1.64" filter="url(#a)"/><path d="m65.46-35.7-.36-.96-.37-.73-.51-.7-.57-.72-.59-.75-.62-.8-.69-.89-.78-.99-.87-1.07-.9-1.08-.87-1.02-.79-.9-.71-.75-.67-.63-.69-.57-.76-.61-.88-.7-.97-.82-1.02-.92-1.02-.99-.91-.92-.56-.3 15.69 16.03.39.67 1.01.97 1.14 1.11 1 1.16.87 1.1.9.91 1.12.64 1.47.38 1.87.23 2.17.24 2.31.39 2.28.62 2.12.84 1.99 1.01 1.9 1.08 1.86 1.08 1.82 1.03 1.87.88 2.21.67 2.56.94" filter="url(#a)"/><path d="m65.14-78.61-.86 3.01-.5 2.73-.35 2.63-.12 2.45.4 2 .95 1.48 1.28 1.1 1.24.98.91 1.05.44 1.23-.05 1.5-.5 1.82-.81 2.16-.89 2.41-.71 2.45-.32 2.24.14 1.84.42 1.43.38 1.18v1.23l-.51 1.52-.64 1.63v1.05m0 0 3.63-1.18.14 1.45.36 1.61 1.19 1.17 1.59.83 1.51.66 1.29.58 1.11.53 1.03.56.93.72.81.95.69 1.18.69 1.33.9 1.32 1.25 1.23 1.67 1.07 1.92.94 1.63.76.56.36M64.5-37.84l-.6-1.23-.07-1.12.33-1.32.3-1.49-.05-1.58-.38-1.61-.53-1.61-.46-1.54-.32-1.4-.23-1.16-.23-.93-.24-.87-.18-1.14-.15-1.61-.17-1.77.38-.92m1.69 19.67-1.06-1.03-.77-.66-1.08-.85-1.25-1.01-1.15-1.07-.94-1-.79-.82-.79-.54-.94-.25-1.23.02-1.57.19-1.81.23-1.84.09-1.61-.21-1.3-.46-1.23-.4-1.42-.01-1.31-.43" filter="url(#a)"/><path d="m45.68-52.49 1.42.5 1.15.46 1.15.63 1.18.7 1.18.69 1.15.63 1.04.55.89.48.78.43.73.48.77.58.87.76.96.99 1.01 1.18.98 1.21.9 1 .73.69 1.02 1.06-4.08-6.29 2.18.32 1.93.86.97 1.06.81.82 1.08.5 1.27.36 1.22.44 1.04.62.97.8 1.16.86 1.65.79 2.27.59 2.83.36 3.14.16h3.14l2.81-.11 2.18-.06 1.38.37.72 1.33 1.23 2.63-53.87-34.82.8.6.87.95.74.98.73.95.81.92.88.87.92.82.89.78.83.72.77.68.72.66.7.66.72.71.77.75.86.81.95.84 1.04.87 1.08.93.99 1.1.77 1.34.39 1.37-.34.2" filter="url(#a)"/><path d="m57.42-48.07-.54-2.89.36-2.92.13-2.27-.54-1.49-1.06-.89-1.1-.79-.66-1.17-.06-1.71.35-2.03.36-1.97.08-1.65-.22-1.47-.24-1.73-.06-2.13-.19-1.79-.54-.85" filter="url(#a)"/><path d="m54.21-51.79.33.21 1.09.77 1.16.53.95.36.77.37.75.5.82.69.95.88 1.1.99 1.21 1.01 1.25.91 1.19.79 1.04.7.93.65.9.63.97.56 1.01.47.98.46.91.76-5.65 7.62-.71-1.52-.69-1.42-.54-1.15-.45-.97-.44-.85-.46-.82-.48-.82-.52-.86-.58-.95-.66-1.06-.76-1.14-.81-1.17-.82-1.11-.77-.98-.65-.81-.55-.66-.5-.6-.57-.68-.74-.89-.8-1.02-.16-.38" filter="url(#a)"/><path d="m48.18-76.06-.48 2.53-.42 2.33.14 1.99.49 1.67.63 1.41.64 1.27.48 1.27.23 1.36.04 1.42.02 1.39.14 1.27.33 1.15.43 1.09.49 1.03.83 1.07-1.41-1.33-.43-.37-.73-.71-.71-.72-.66-.62-.67-.59-.72-.59-.8-.65-.87-.7-.92-.72-.94-.71-.95-.69-.94-.66-.92-.62-.89-.61-.88-.61-.88-.61-.9-.61-.96-.59-1-.57-.97-.5-.85-.44-1.11-.66 26.6 40.68-.2-1.57-.11-1.53-.07-1.26-.02-1.1.1-1.09.19-1.13.17-1.16.05-1.16-.17-1.14-.4-1.15-.58-1.16-.67-1.15-.68-1.11-.57-1.03-.42-.97-.27-.94-.21-.94-.26-1.01-.43-1.1-.57-1.22-.65-1.35-.85-1.44-1.28-1.42" filter="url(#a)"/><path d="m46.96-90.81-.26 5.15-.2 3.26-.14 2.6-.24 2.7-.24 2.74.05 2.29.59 1.46 1.18.63 1.46.22 1.3.44.77 1.11.28 1.69.15 1.67.32 1.2.13 1.15-1.1 2.54-1.84 3.46-9.41-28.67.42 2.67.11 2.3.52 1.79.9 1.18.9 1.04.64 1.32.36 1.7.29 1.81.43 1.6.66 1.25.8 1.03.78 1.08.64 1.31.53 1.43.56 1.3.56 1.06.25 1.12-.31 1.57-.1 1.39" filter="url(#a)"/><path d="m36.03-95.02.41 3.2.51 2.59.9 1.57.97 1.23.74 1.51.45 1.96.28 2.24.22 2.31.27 2.19.36 1.98.44 1.72.55 1.48.64 1.24.73 1.07.78.98.76 1.04.63 1.26.48 1.54.36 1.69.37 1.59.42 1.27.33.97.28.58 1.35-.05 1.63-.15 1.38.28 1.02.79.83 1.12.85 1.17.97 1.02 1.1.8 1.16.58 1.1.46 1 .46.93.55.94.69 1.06.82 1.22.89 1.34.92 1.3.92 1.12.92.91.88.81.81.93.69 1.1.55.92.51.3.51-26.2-16.55-.28-2.02-.35-1.84-.62-1.39-.78-1.11-.96-.75-1.12-.39-1.18-.22-1.12-.3-.98-.52-.82-.85-.64-1.19-.51-1.52-.39-1.75-.37-1.79-.46-1.6-.68-1.2-.92-.85-1.01-.8-.88-1.18-.69-1.68-.88-1.48" filter="url(#a)"/><path d="m44.48-60.44-.9-.28-1.03-.58-.97-.66-.91-.6-.91-.52-.94-.45-.97-.41-1-.36-1.03-.33-1.04-.31-1.04-.29-1.01-.3-.98-.31-.96-.34-.98-.35-1-.34-1.03-.32-1.04-.28-1.04-.29-.95-.44 3.72-29.07 1.04 4.02 1.35 2.1 1.02 2.04.7 2.33.63 2.26.76 1.78.97 1.2 1.1.77 1.09.64.94.82.74 1.18.62 1.46.64 1.46.8 1.17.97.81.98.7.72 1.05.24 1.75-.21 2.44-.3 2.62.05 2.17.51 1.41.65.65L75.99-63l-3.07 1.31-1.71.52-1.48.04-1.48-.45-1.45-.8-1.54-.81-1.78-.54-1.99-.22-1.94-.14-1.59-.36-1.12-.67-.86-.71-.98-.36-1.48.41-2.35 1.41-3.45 2.43-3.24 1.5" filter="url(#a)"/><path d="m25.75-87.43.43.67 1.05 1.27 1.06 1.69.94 1.77.86 1.69.83 1.51.88 1.26.97.95 1.06.66 1.14.4 1.19.24 1.16.26 1.06.47.85.88.6 1.35.39 1.7.28 1.83.34 1.67.55 1.28.82.76 1.12.4 1.1.74-.81 3.38-6.58-4.62.46-2.95-.36-2.26-.38-1.95-.53-1.36-.77-.83-.94-.63-1-.65-.99-.76-.94-.9-.9-1.12-.8-1.54-.7-2.11-.68-2.53-.84-2.31-.96-1.49-.11-1.68 6.91 23.25-1.51-.17-1.18-.27-1.15-.19-1.15-.12-1.13-.07-1.14-.09-1.15-.13-1.15-.18-1.16-.21-1.14-.13-1.11.05-1.11.28-1.12.44-1.14.42-1.14.25-1.15.21-1.72.55" filter="url(#a)"/><path d="m6.26-67.15.5-.9.97-.4 1.15-.16 1.13-.13 1.06-.25 1.03-.4 1.03-.46 1.07-.42 1.1-.28 1.1-.08 1.07.1 1.02.26.99.32.99.32 1.06.25 1.16.14h1.27l1.33-.14 1.32-.18 1.26.02 1.28.33 12.31 10.44-1.44-1.35-.65-.74-.67-.67-.73-.71-.72-.76-.71-.8-.74-.8-.82-.72-.89-.57-.93-.4-.94-.28-.93-.34-.89-.61-.8-.96-.45-.73m-1.39-.49-.55-1.82-.56-1.9-.86-1.47-.93-1.39-.9-1.35-.87-1.2-.9-1.03-.96-.9-1.05-.85-1.1-.76-1.14-.62-1.14-.47-1.11-.38-1.07-.41-1.07-.61-1.13-.89-1.24-1.06-1.31-.93-1.12-.5-.51-.09" filter="url(#a)"/><path d="m27.76-69.7-.84-1.06-.52-2.03-.79-1.59-1.03-.99-1.04-.86-.93-1.07-.84-1.33-.84-1.48-.89-1.53-.95-1.53-.97-1.45-1-1.28-1.02-.99-1.08-.73-1.15-.59-1.23-.67-1.3-.9L10-90.97l-1.35-1.45-1.37-1.64-1.43-1.74-1.6-1.66-2.36-2.46 2.2 19.13 2.28-.09 1.39.07 1.25.33 1.22.61 1.15.77 1.04.8.96.76.93.71.96.65 1.01.61 1.04.56 1.06.5 1.04.47 1 .46.99.48 1.03.48 1.1.48 1.15.53 1.08.66.97.73 1.02.52-1.21-.32 1.36-.24 1.02.43.97.52 1.01.46 1.01.36 1.03.27 1.05.23 1.08.24 1.09.28 1.07.34 1.02.42.98.46.97.47.99.45 1.01.43 1.04.46 1.09.57 1.13.53 1.13.02-21.88-7.52-1.9.25-1.34.16-.95-.33-.87-.38-.99-.11-1.15.29-1.25.64-1.27.83-1.2.79-1.08.62-.99.43-.97.4-1.05.52-1.16.64-1.16.46-.9.08-.43.58 16.61-6.47-.88-1.06-.69-.74-.88-.31-1.05-.14-1.14-.12-1.15-.19-1.1-.29-1.03-.39-.98-.45-.98-.48-1.01-.47-1.08-.43-1.15-.36-1.2-.31-1.22-.28-1.23-.3-1.22-.39-1.19-.5-1.15-.58-1.18-.59-1.5-.47-2.59-.11" filter="url(#a)"/><path d="m51.37-80.77-.22 1.09-1.41.5-2.06.92-2.2 1.19-2 .93-1.66.34-1.29-.32-1.01-.81-.87-.96-.95-.72-1.17-.23-1.45.33-1.65.73-1.72.89-1.68.82-1.57.61-1.5.35-1.56.31-1.93.87-2.34 1.76.09.14.47.11 1.12.29 1.28.3 1.23.3 1.15.33 1.09.34 1.06.35 1.05.36 1.03.37 1 .39.96.38.94.38.99.37 1.07.39 1.14.42 1 .47.74.45-17.32-6-.69-2.38-1.12-.14-1.24-.05-1.16-.49-1.01-.93-.89-1.24-.82-1.39-.83-1.41-.92-1.31-1.05-1.13-1.16-.9-1.26-.65-1.3-.45-1.33-.37-1.32-.46-1.28-.76-1.17-1.21-.94-1.61-.89-.83" filter="url(#a)"/><path d="m19.39-72.5 1.04.98.68 1.29.78 1.35.95 1.02 1.03.68 1 .57.93.59.9.61.9.57.89.51.85.53.74.68.58.93.47 1.18.41 1.37.4 1.39.39 1.23.32.91.29.54-18.32-18.22.29-5.99-.05-3.84-.71-1.03-1.22.84-1.47 1.46-1.5 1.07-1.4.21-1.28-.7-1.22-1.39-1.19-1.73-1.19-1.77-1.19-1.67-1.27-1.75-1.68-2.1-2.95-1.44" filter="url(#a)"/><path d="m-3.51-67.72.31-.84.44-.89.58-.69.81-.45.99-.23 1.08-.14 1.11-.22 1.12-.38 1.14-.51 1.16-.54 1.18-.46 1.2-.3 1.21-.16 1.22-.01 1.14.14.98.33.75.31.58-1.05.04-.06.45-.04 1.03.08 1.18.17 1.18.21 1.15.15 1.14.02 1.17-.12 1.21-.21 1.26-.19 1.28-.05 1.25.13 1.2.29 1.15.4 1.11.42 1.11.38 1.16.29 1.22.16h1.23l1.09-.16.39-.24-23.86-2.13-1.45-.78-1.4-.41-1.23-.5-1.17-.75-1.16-.86-1.17-.76-1.17-.48-1.18-.16-1.16.06-1.14.04-1.07-.21-1.01-.6-1-.97-1.07-1.16-1.22-1.03-1.39-.69-1.48-.44-1.45-.55-1.3-.89-.96-.44" filter="url(#a)"/><path d="m11.63-74.31-1.51-.36-1.37-.7-1.2-.68-1.17-.64-1.18-.65-1.18-.65-1.19-.62-1.19-.55-1.18-.49-1.13-.44-1.07-.39-1.01-.37-.99-.39-1.06-.42-1.19-.42-1.32-.33-1.38-.19-1.3-.11-1.12-.26-.87-.63-.55-1.3" filter="url(#a)"/><path d="m31.21-82.3-1.16-.33-1.86 1.11-1.81.85-1.51.33-1.24-.01-1.14-.06-1.18.11-1.3.39-1.42.75-1.5 1.1-1.48 1.32-1.33 1.27-1.08.84-.85.28-.72.04-32.65-12.36 2.13.83 1.39.51 1.51.41 1.54.24 1.44.12 1.34.18 1.34.48 1.37.84L-7.57-82l1.35 1.07 1.25.91 1.12.67 1.04.46 1.02.35 1.05.33 1.12.33 1.16.32 1.2.23 1.22.02 1.25-.27 1.24-.46 1.18-.04 1.06 1.45 1.44 2.24-2.18-.26-1.06 3.08-1.11 1.39-1.1-.34-1.06-.87-1.04-.56-1.05.11-1.04.7-1 1.09-.91 1.25-.79 1.21-.73.95-.78.57-.92.25-1.08.27-1.09.72-.95 1.15-1.01.59" filter="url(#a)"/><path d="m3.79-74.8 2.12-.29 1.37-.71 1.32-.88 1.3-.55 1.2-.03 1.09.29 1.03.19 1.09-.21 1.22-.64 1.35-.93 1.42-.91 1.42-.69 1.33-.4 1.2-.16 1.06-.07.99-.03 1.24.32-24.12 5.3-.26.13L.12-75l-1.15.08-.97.09-.81.09-.8.09-.93.1-1.08.11-1.18.09-1.19.11-1.12.13-1.03.17-1.05.21-1.26.26-1.62.3-1.57.32" filter="url(#a)"/><path d="m1.42-75.2 1.89.1 1.32.13 1.23.11 1.21.1 1.2.09 1.2.1 1.15.1 1.09.12 1.03.14 1.01.15 1.03.16 1.06.18 1.09.19 1.11.2 1.08.23 1.04.25 1.03.27 1.06.3 1.15.34 1.24.38 1.19.4.96.53" filter="url(#a)"/><path d="m1.75-75.05.68-4.44 1.29-2.03 1.38-1.1 1.36-.65 1.29-.02 1.24.55 1.25.64 1.32.12 1.41-.82 1.51-1.79 1.58-2.35 1.62-2.25 1.57-1.49 1.51-.5 1.48.15 1.51.05 1.57-.54 2.15-1.73M1.75-75.05l.5.31 1.04.86 1.12.97 1.15.68 1.17.3 1.16.14 1.14.18 1.07.3 1.01.38.95.37.94.34.94.33.93.43.92.59.88.78.83.89.78.93.75.9.76.9.81.99.82 1.16.75 1.19.69.86M1.75-75.05l.49-.2 1.09.1 1.18.13 1.19.09 1.18.07 1.19.05 1.2.07 1.17.09 1.1.11.99.1.92.12.92.11 1.02.13.98.07.13-.24m-20.38-.6-3.65.15-2.87.27-2.76.39-2.72.46-2.62.5-2.56.54-2.64.58-2.92.65-3.38.74-3.86.81-4.28.9-4.59.96-4.78 1.03-4.9 1.08-4.94 1.14-4.81 1.18-4.38 1.21-3.73 1.24-3.38 1.3-3.98 1.39-5.58 1.51-6.49 1.4" filter="url(#a)"/><path d="m-10.36-74.59-2.39.49-3.28.53-3.39.53-2.99.55-2.4.59-2.04.67-2.06.76-2.38.85-2.85.92-3.28.99-3.62 1.06-3.81 1.1-3.9 1.16-3.87 1.2-3.78 1.25-3.65 1.29-3.56 1.34-3.58 1.38-3.79 1.43-4.3 1.45-5.01 1.47-5.66 1.47-5.74 1.51-4.98 1.65-4.44 1.93-6.94 2.18" filter="url(#a)"/><path d="m-10.84-74.17-2.89.42-2.23.44-2.18.53-2.25.59-2.34.68-2.4.75-2.43.84-2.44.93-2.41 1.02-2.37 1.1-2.3 1.15-2.18 1.18-2.06 1.19-1.95 1.2-1.87 1.22-1.85 1.26-1.88 1.32-1.92 1.42-1.96 1.5-1.96 1.58-1.91 1.63-1.86 1.65-1.82 1.68-1.83 1.73-1.86 1.79-1.9 1.89-1.89 1.96-1.84 2-1.75 1.98-1.65 1.9-1.57 1.81-1.52 1.78-1.5 1.93-1.45 2.68" filter="url(#a)"/><path d="m-15.13-73.6-2.96.76-2.26.63-2.28.68-2.36.76-2.43.85-2.5.94-2.54 1.03-2.51 1.12-2.38 1.17-2.18 1.19-1.97 1.2-1.8 1.21-1.7 1.22-1.69 1.26-1.74 1.34-1.79 1.43-1.84 1.51-1.86 1.58-1.85 1.64-1.83 1.66-1.82 1.7-1.82 1.75-1.82 1.8-1.81 1.88-1.75 1.94-1.67 1.96-1.59 1.96-1.51 1.93-1.48 1.92-1.43 1.94-1.41 2.03-1.4 2.15-1.41 2.23-1.31 2.14-.63 1.96" filter="url(#a)"/><path d="m-17.68-72.92-1.98.49-2.53.52-4.26.68-5.87.79-6.32.89-5.43.96-3.82 1.03-2.22 1.08-1.21 1.13-.98 1.19-1.39 1.22-2.13 1.28-2.85 1.31-3.3 1.37-3.38 1.4-3.16 1.44-2.81 1.49-2.55 1.52-2.57 1.57-2.95 1.63-3.74 1.71-4.77 1.78-5.87 1.85-6.75 1.91-7.15 1.94-6.89 1.97-5.94 1.94-4.66 1.87-3.72 1.78-3.5 1.79-4.52 1.79" filter="url(#a)"/><path d="m-17.68-72.92-3.06.49-1.66.53-1.87.68-2.25.8-2.56.9-2.73.97-2.78 1.03-2.74 1.09-2.64 1.14-2.52 1.19-2.47 1.24-2.55 1.28-2.76 1.33-3.04 1.38-3.27 1.41-3.34 1.46-3.2 1.5-2.87 1.54-2.46 1.6-2.08 1.66-1.82 1.72-1.74 1.79-1.81 1.85-1.97 1.9-2.14 1.93-2.25 1.94-2.28 1.95-2.26 1.94-2.26 1.94-2.33 1.96-2.55 2-2.88 2.03-3.24 2.04-3.38 2.12-2.93 2.35-2.14 2.56" filter="url(#a)"/><path d="m-20.88-72.24-3.82.88-2.47.88-2.47.93-2.58.98-2.56 1.04-2.48 1.09-2.45 1.14-2.46 1.19-2.44 1.24-2.32 1.28-2.15 1.32-1.99 1.37-1.96 1.41-2.09 1.45-2.39 1.49-2.74 1.53-3.09 1.58-3.3 1.64-3.37 1.72-3.3 1.78-3.2 1.85-3.13 1.91-3.11 1.93-3.06 1.95-2.91 1.93-2.69 1.91-2.5 1.89-2.51 1.96-2.55 2.09-2.25 2.19-1.71 1.85M73.55-12.52l.02-2.89-.15-2.48-.61-2.34-.76-2.25-.7-2.17-.54-2.11-.38-2.1-.2-2.1-.09-2.09-.06-2.07-.12-2.04-.24-2.02-.35-1.99-.4-1.96-.37-1.93-.37-1.88-.44-1.82-.62-1.76-.86-1.71-1.08-1.65-1.24-1.58-1.37-1.52-1.54-1.46-1.76-1.4-2-1.35-2.15-1.3-2.15-1.25-2.05-1.19-2.03-1.13-2.19-1.07-2.46-1-2.63-.9-2.41-.84-2.02-.89" filter="url(#a)"/><path d="m-21.83-71.88-8.95 1.04-1.47.88-.73.93-1.45 1.05-2.35 1.15-3.08 1.21-3.47 1.22-3.52 1.21-3.32 1.19-3.07 1.2-2.99 1.24-3.19 1.32-3.7 1.42-4.45 1.53-5.29 1.6-6.04 1.63-6.56 1.67-6.82 1.68-6.8 1.73-6.59 1.81-6.23 1.88-5.72 1.94-5.13 1.97-4.6 1.96-4.42 1.91-4.69 1.88-5.19 1.91-5.39 2.02-4.96 2.2-3.98 2.31-2.97 2.05" filter="url(#a)"/><path d="m-21.83-71.88-3.37 1.03-2.63.89-3.14.92-3.66 1.03-3.53 1.15-2.89 1.2-2.16 1.22-1.66 1.21-1.5 1.18-1.69 1.17-2.11 1.22-2.61 1.3-3.02 1.41-3.21 1.52-3.11 1.6-2.84 1.64-2.57 1.64-2.42 1.64-2.45 1.69-2.56 1.77-2.64 1.89-2.67 1.99-2.73 2.05-2.85 2-3.01 1.89-3.01 1.8-2.95 1.98" filter="url(#a)"/><path d="m-23.34-71.24-2.63.76-3.08.95-3.42.99-3.38 1.04-3.18 1.09-2.9 1.16-2.56 1.2-2.18 1.25-1.78 1.28-1.48 1.34-1.34 1.37-1.32 1.42-1.42 1.46-1.55 1.5-1.72 1.55-1.93 1.6-2.15 1.66-2.38 1.73-2.55 1.79-2.63 1.86-2.55 1.9-2.37 1.92-2.13 1.94-1.91 1.95-1.81 1.93-1.86 1.95-2.09 1.96-2.39 2-2.7 2.04-2.89 2.08-2.87 2.17-2.69 2.35-2.46 2.6-2.33 2.8" filter="url(#a)"/><path d="m-28.13-69.66-8.21.55-2.39 1.06-1.25 1.2-2.66 1.26-4.6 1.25-5.85 1.21-6.12 1.18-5.57 1.16-4.64 1.21-3.77 1.3-3.2 1.42-3.03 1.54-3.14 1.61-3.37 1.64-3.56 1.65-3.71 1.66-3.82 1.71-4.02 1.78-4.27 1.89-4.46 1.96-4.45 2-4.18 1.96-3.89 1.88-4.11 1.79-5.27 1.77-6.9 1.92-9.97 2.66" filter="url(#a)"/><path d="m-31.33-68.32-3.28.81-3.26 1.09-2.53 1.18-2.51 1.22-2.86 1.25-3.34 1.28-3.84 1.32-4.24 1.37-4.42 1.42-4.19 1.46-3.59 1.49-2.73 1.53-1.91 1.58-1.38 1.64-1.26 1.72-1.61 1.79-2.3 1.86-3.19 1.9-4.14 1.93-4.92 1.94-5.33 1.92-5.18 1.91-4.53 1.91-3.8 1.94-3.65 2.02-4.49 2.02-5.85 1.79-6.96 1.29m97.56-42.38-2.62.96-2.29 1.23-1.94 1.26-1.76 1.28-1.78 1.33-1.89 1.39-2.03 1.44-2.16 1.48-2.24 1.51-2.3 1.55-2.27 1.6-2.13 1.68-1.91 1.74-1.62 1.81-1.37 1.87-1.18 1.91-1.11 1.93-1.17 1.94-1.3 1.94-1.49 1.95-1.67 1.95-1.82 1.99-1.88 2.02-1.85 2.08-1.74 2.15-1.53 2.23-1.3 2.34-1.09 2.43-.99 2.47-1.01 2.4-1.17 2.19-1.43 1.77-1.77 1.18" filter="url(#a)"/><path d="m-36.22-65.52-2.87 1.58-2.26 1.31-2.44 1.27-2.92 1.33-3.3 1.39-3.34 1.45-3.1 1.49-2.75 1.51-2.49 1.55-2.42 1.61-2.5 1.68-2.67 1.75-2.81 1.82-2.79 1.87-2.59 1.91-2.27 1.93-1.91 1.95-1.64 1.94-1.49 1.96-1.47 1.96-1.53 2-1.6 2.04-1.68 2.09-1.74 2.16-1.84 2.25-1.98 2.32-2.19 2.39-2.5 2.39-2.9 2.33-3.34 2.19-3.61 2.03-3.31 2.02-2.45 2.33-3.32 3.02" filter="url(#a)"/><path d="m-44.8-60.28-.81.67-1.71 1.25-2.48 1.58-2.95 1.75-2.92 1.77-2.53 1.71-2.08 1.65-1.74 1.65-1.54 1.71-1.44 1.81-1.31 1.91-1.2 1.95-1.11 1.97-1.09 1.94-1.16 1.93-1.32 1.93-1.53 1.97-1.75 2.04-1.89 2.14-1.94 2.2-1.87 2.27-1.73 2.28-1.62 2.26-1.51 2.18-1.24 2.08-.6 2.03" filter="url(#a)"/><path d="m-50.93-54.9-.23 2.23.95 1.67.36 1.46-1 1.51-1.97 1.68-2.17 1.86-1.79 1.96-1.18 2-.61 1.99-.22 1.96-.03 1.94v1.95l-.04 2.01-.07 2.07-.02 2.15.08 2.2.21 2.24.28 2.24.27 2.23.22 2.2.21 2.17.3 2.16.55 2.15.94 2.15 1.35 2.19 1.69 2.28 2.09 2.37 2.64 2.3M-51.9-54.2l-2.01 1.82-1.48 1.49-1.7 1.64-2.11 1.81-2.76 1.89-3.6 1.92-4.36 1.94-4.69 1.94-4.43 1.94-3.84 1.93-3.29 1.92-3.07 1.94-3.18 1.97-3.4 2.02-3.39 2.08-2.97 2.15-2.21 2.23-1.38 2.33-.83 2.38-.83 2.39-1.31 2.3-2.04 2.16-2.72 2-3.06 2-3 2.31-3.72 3" filter="url(#a)"/><path d="m-60.69-43.98-4.68 1.88-1.44 2.11-1.19 1.98-2.38 1.87-4.01 1.83-5.08 1.87-5.35 1.97-5.21 2.07-5.17 2.17-5.32 2.21-5.35 2.24-4.93 2.23-4.19 2.21-3.57 2.18-3.37 2.14-3.61 2.13-4.03 2.12-4.51 2.14-5.05 2.17-5.47 2.25-5.51 2.36-3.36 2.27" filter="url(#a)"/><path d="m-61.59-42.47-4.27 2.6-6.26 2.05-6.31 1.86-5.34 1.81-4 1.89-3.02 2-2.52 2.12-2.28 2.19-2 2.24-1.67 2.25-1.4 2.25-1.4 2.22-1.66 2.2-2.07 2.18-2.46 2.17-2.76 2.18-2.97 2.21-3.15 2.24-3.29 2.27-3.38 2.3-3.45 2.29-3.67 2.24-4.33 2.18-5.46 2.14-6.67 2.15-7.16 2.3-5.57 2.6 1.05 2.89" filter="url(#a)"/><path d="m-63.53-39.68-5.89 2.74-4.92 1.87-4.01 1.77-4.64 1.89-4.83 2-4.14 2.08-3.03 2.14-2.05 2.22-1.57 2.29-1.49 2.34-1.46 2.35-1.16 2.32-.5 2.26.3 2.21.93 2.18 1.06 2.18.64 2.21-.17 2.26-1.14 2.32-1.96 2.37-2.44 2.4-2.54 2.41-2.28 2.37-1.89 2.32-1.61 2.25-1.72 2.19-2.28 2.13-3.05 2.06-3.54 2.01-3.08 1.99-1.14 2.13.92 2.64m64.68-70.9-1.67 2.74-1.21 1.88-.95 1.78-.84 1.9-.8 2-.81 2.09-.84 2.15-.84 2.23-.82 2.29-.76 2.35-.66 2.34-.54 2.32-.42 2.27-.29 2.22-.21 2.19-.13 2.2-.07 2.23-.02 2.27.01 2.32.05 2.37.07 2.39.12 2.39.16 2.36.23 2.32.3 2.25.38 2.19.46 2.14.54 2.1.59 2.08.67 2.09.73 2.13.82 2.18.87 2.13.85 1.93.87 1.59" filter="url(#a)"/><path d="m-63.53-39.68-6.29 2.74-.73 1.87-.83 1.78-2.08 1.89-2.74 2-2.41 2.08-1.49 2.15-.6 2.22-.11 2.29-.05 2.34-.28 2.35-.6 2.32-.91 2.26-1.19 2.22-1.45 2.18-1.65 2.19-1.74 2.21-1.62 2.27L-91.55 2l-.71 2.37-.14 2.4.29 2.4.45 2.37.29 2.31-.11 2.26-.58 2.19-.93 2.12-.98 2.08-.72 2.04-.32 2.05.05 2.16.48 2.35 1.42 2.4" filter="url(#a)"/><path d="m-67.63-31.85-1.23 1.6-1.22 2.29-1.25 2.35-1.28 2.32-1.21 2.28-1.02 2.26-.78 2.21-.55 2.19-.42 2.17-.38 2.17-.43 2.19-.5 2.22-.54 2.25-.54 2.27-.46 2.28-.37 2.27-.25 2.25-.13 2.22-.01 2.22.12 2.24.25 2.26.4 2.29.5 2.27.55 2.23.52 2.18.42 2.14.22 2.07.07 1.89.39 1.58" filter="url(#a)"/><path d="m-67.76-31.23-6.61 1.98-4.79 2.12-2.21 2.05-2.19 2.13-3.2 2.28-3.83 2.38-3.58 2.4-2.71 2.34-1.79 2.23-1.35 2.14-1.58 2.09-2.26 2.09-3.02 2.14-3.5 2.2-3.73 2.29-3.96 2.38-4.32 2.45-4.63 2.45-4.76 2.36-5.31 2.28-6.45 2.48-2.71 3.21" filter="url(#a)"/><path d="m-70.61-24.84-.83 1.82-1.23 2.49-3.11 2.59-5.75 2.52-7.46 2.37-7.37 2.22-5.84 2.13-3.9 2.1-2.36 2.13-1.4 2.19-.77 2.27-.06 2.33.87 2.38 1.76 2.4 2.22 2.39 1.87 2.35.7 2.29-.95 2.23-2.53 2.17-3.52 2.11-3.62 2.07-2.82 2.06-1.55 2.07-.58 2.12-.65 2.17-1.82 2.12-2.82 1.91-3.03 1.57M69.53-27.61l-1.39-3.32-1.17-2.59-.94-2.18-.82-1.97-.84-1.93-.96-1.97-1.07-1.98-1.11-1.93-1.1-1.87-1.11-1.79-1.17-1.74-1.32-1.68-1.52-1.62-1.69-1.56-1.83-1.49-1.9-1.44-1.9-1.38-1.86-1.32-1.81-1.28-1.77-1.22-1.76-1.17-1.8-1.1-1.87-1.04-1.93-.98-1.98-.9-2.02-.83-2.04-.76-2.01-.69-1.92-.6-1.87-.54-2.3-.57" filter="url(#a)"/><path d="m57.75-47.88-.86-1.29-1.38-1.43-1.67-1.66-1.7-1.71-1.55-1.61-1.36-1.48-1.3-1.37-1.38-1.3L44.98-61l-1.79-1.24-1.97-1.19-2.05-1.14-2.06-1.07-2.03-1.01-2.01-.97-2-.92-2.04-.9-2.09-.85-2.16-.82-2.21-.75-2.21-.67-2.18-.57-2.14-.48-2.15-.39-2.2-.33-2.28-.27-2.36-.23-2.45-.17-2.66-.08" filter="url(#a)"/><path d="m56.86-48.34-.09-.99-1.47-1.9-1.6-1.87-1.62-1.66-1.62-1.51-1.58-1.4-1.55-1.36-1.59-1.33-1.67-1.3-1.77-1.25-1.85-1.19-1.91-1.14-1.92-1.07-1.93-1.02-1.92-.94-1.89-.88-1.87-.8-1.88-.75-1.93-.67-1.95-.59-1.88-.53-2-.56" filter="url(#a)"/><path d="m57.42-48.07-2.3-3.15-1.09-2.09-.79-1.68-1.14-1.49-1.67-1.4-2.07-1.37-2.22-1.34-2.18-1.3-2.04-1.24-1.91-1.19-1.82-1.12-1.79-1.06-1.83-.98-1.9-.92-1.95-.85-1.97-.79-1.99-.73-1.99-.66-2.03-.61-2.13-.56-2.27-.5-2.44-.45-2.6-.38-2.74-.32-2.8-.25-2.83-.19-2.79-.12-2.74-.06-2.72.02-2.74.08-2.81.16-2.92.24-3.04.31-3.16.38-3.19.44-3.06.51-2.21.55" filter="url(#a)"/><path d="m52.17-53.81 8.07-1.39-1.67-1.4-1.55-1.34-1.11-1.33-1.64-1.33-2.23-1.3-2.44-1.25-2.37-1.17-2.3-1.12-2.27-1.05-2.22-.99-2.09-.92-1.89-.85-1.74-.79-1.66-.72-1.69-.67-1.76-.62-1.89-.57-2.11-.53-2.48-.48-3-.42-3.69-.34-4.41-.28-4.88-.24-4.48-.29" filter="url(#a)"/><path d="m48.7-57.22-1.36-.9-1.56-1.23-1.66-1.36-1.62-1.32-1.59-1.25-1.59-1.16-1.61-1.1-1.7-1.05-1.81-.98-1.94-.91-2.04-.84-2.09-.77-2.09-.72-2.08-.66-2.09-.61-2.14-.56-2.24-.52-2.35-.47-2.46-.41-2.58-.34-2.71-.28-2.73-.21-2.39-.15L.81-75" filter="url(#a)"/><path d="m46.98-58.22 3.67-1.72 1.17-1.38-2.33-1.29-3.63-1.21-3.42-1.12-2.61-1.03-1.84-.96-1.37-.93-1.31-.9-1.58-.87-1.98-.84-2.31-.79-2.46-.71-2.44-.64-2.33-.54-2.29-.46-2.37-.37-2.6-.31-2.94-.26-3.3-.2-3.57-.15-3.74-.09-3.7-.02-3.54.04-3.84.1-5.99.13" filter="url(#a)"/><path d="m44.48-60.44-1.41-1.02-1.76-1.23-1.78-1.22-1.66-1.11-1.57-1.02-1.58-.95-1.67-.92-1.8-.89-2-.88-2.2-.83-2.35-.78-2.4-.71-2.36-.63-2.26-.53-2.16-.45-2.13-.37-2.17-.31-2.29-.24-2.46-.2-2.61-.14-2.7-.08-2.72-.02-2.68.05-2.71.09-2.8.15-2.6.22-1.55.34" filter="url(#a)"/><path d="m43.62-60.6 4.59-1.83-.78-1.17-2.26-1.09-2.47-1.07-2.28-1.04-2.06-.97-2.04-.89-2.21-.82-2.44-.76-2.6-.7-2.63-.64-2.56-.59-2.48-.54-2.45-.49-2.49-.43-2.62-.37-2.76-.31-2.9-.24-2.98-.18-3.02-.11-3.03-.05-3.07.02-3.17.1-3.35.16-3.55.25-3.7.31-3.76.37-3.78.44-3.82.52-3.25.54" filter="url(#a)"/><path d="m43.25-61.31 2.35-1.38-.04-1.31-1.72-1.13-3.03-1.01-3.4-.94-3.18-.91-2.77-.9-2.46-.87-2.26-.83-2.11-.76-1.99-.7-1.9-.6-1.87-.52-1.93-.44-2.13-.36-2.39-.29-2.7-.23-2.95-.17-3.14-.12-3.25-.05-3.29.01-3.34.08-3.41.14-3.53.22-3.7.28-3.89.36-4.01.42-4.04.48-3.92.52-3.8.57-3.9.65-4.47.78-5.36.93-5.98 1.07" filter="url(#a)"/><path d="m40.09-63.29.7-1.32-.78-1.19-1.65-1.09-2-.97-1.95-.88-1.73-.8-1.57-.74-1.61-.69-1.84-.63-2.12-.59-2.37-.54-2.55-.5-2.67-.44-2.83-.38-3.01-.32-3.18-.25-3.26-.18-3.25-.12-3.18-.07-3.14-.02-3.2.04-3.46.13-4.23.24" filter="url(#a)"/><path d="m37.81-64.78-.8-1.13-.23-1.09-1.19-.96-2.31-.86-2.66-.8-2.37-.73-1.85-.68-1.5-.63-1.46-.58-1.73-.53-2.17-.49-2.6-.42-2.94-.37-3.11-.3-3.17-.23-3.14-.17-3.12-.11-3.12-.04-3.2.03-3.34.09-3.53.17-3.75.25-3.91.31-3.97.38-3.94.43-3.83.52-3.55.54" filter="url(#a)"/><path d="m36.81-65.86-2.3-1.25-2.25-.95-2.07-.85-1.97-.78-1.94-.74-1.98-.67-2.02-.62-2.07-.58-2.14-.52-2.24-.47-2.34-.41-2.42-.35-2.48-.28-2.49-.22-2.46-.14-2.45-.08-2.43-.01-2.45.06-2.49.13-2.58.2-2.64.27-2.7.33-2.73.4-2.71.47-2.7.53-2.66.59-2.64.67-2.64.74-2.66.83-2.73.92-2.83 1.02-3 1.14-3.15 1.23-3.21 1.31-3.11 1.37-2.83 1.29" filter="url(#a)"/><path d="m33.51-67.04-1.91-1.02-2.23-.96-2.32-.9-2.35-.86-2.32-.78-2.27-.69-2.17-.59-2.1-.49-2.07-.41-2.09-.33-2.13-.27-2.2-.22-2.26-.16-2.3-.11-2.3-.05-2.3.02-2.28.08-2.29.15-2.32.21-2.36.3-2.39.36-2.37.43-2.32.47-2.22.51-2.13.55-2.17.62-2.32.76-2.34.98" filter="url(#a)"/><path d="M29.24-69.18 28-69.84l-1.67-.72-1.95-.67-2-.6-2.03-.56-2.13-.52-2.29-.47-2.44-.4-2.54-.34-2.58-.27-2.58-.2-2.56-.14-2.55-.06h-2.57l-2.63.07-2.7.15-2.76.21-2.79.28-2.81.35-2.8.42-2.81.48-2.83.55-2.89.61-2.98.69-3.09.77-3.19.85-3.32.94-3.47 1.04-3.63 1.12-3.76 1.18-3.78 1.21-3.59 1.2-3.28 1.14-2.99 1.05-2.92 1-3.05 1.05-2.77 1.02" filter="url(#a)"/><path d="m29.15-69.21-1.91-.82-1.42-.85-1.84-.81-2.3-.69-2.41-.57-2.31-.47-2.16-.38-2.1-.32-2.19-.26-2.36-.2-2.57-.15-2.76-.1-2.92-.03-3.06.03-3.22.09-3.4.17-3.61.23-3.81.31-3.93.37-3.96.44-3.93.49-3.96.54-4.15.61-4.6.68-5.2.77-5.73.85-5.87.92-5.44.98-4.79 1-5.51.86" filter="url(#a)"/><path d="m22.67-71.44-1.48-.52-1.89-.51-2.19-.53-2.33-.48-2.38-.41-2.4-.33-2.39-.25-2.36-.19-2.29-.12-2.24-.06-2.19.01-2.2.08-2.21.15-2.26.23-2.3.29-2.34.36-2.36.42-2.38.49-2.38.55-2.38.62-2.38.7-2.38.77-2.38.86-2.39.95-2.38 1.04-2.37 1.11-2.34 1.17-2.25 1.2-2.13 1.19-1.97 1.14-1.78 1.08-1.61 1.07-1.56 1.15-1.76 1.39-2.49 1.92" filter="url(#a)"/><path d="m19.39-72.5-1.79-.73-1.52-.41-1.92-.31-2.21-.28-2.37-.23-2.44-.2-2.48-.14-2.5-.08-2.52-.01-2.58.05-2.66.11-2.74.19-2.82.25-2.86.33-2.88.39-2.93.45-3.04.52-3.24.57-3.51.64-3.75.71-3.87.79-3.83.87-3.67.94-3.48 1.01-3.43 1.08-3.49 1.14-3.52 1.19-3.35 1.21-3.06 1.21-3.21 1.19-3.4.98" filter="url(#a)"/><path d="m17.33-73.05-2.72-.59-2.18-.4-2.13-.3-2.24-.23-2.39-.17-2.54-.11-2.64-.05-2.73.02-2.8.09-2.88.16-2.92.24-2.92.3-2.89.37-2.87.44-2.89.49-3 .57-3.17.63-3.42.7-3.72.79-4.09.87-4.53.96-5.1 1.04-5.74 1.11-6.38 1.17-6.88 1.18-7.09 1.18-6.86 1.15-6.15 1.14-5.08 1.17-3.93 1.29-3.25 1.52-3.59 1.83-5.53 2.14-8.99 2.2" filter="url(#a)"/><path d="m7.95-74.65-1.51-.17-2.23-.12L1.77-75l-2.42.01-2.39.07-2.46.13-2.61.21-2.79.28-2.93.35-3.03.42-3.1.47-3.13.54-3.2.59-3.31.67-3.47.74-3.64.81-3.79.89-3.85.96-3.81 1.03-3.7 1.09-3.55 1.14-3.43 1.19-3.41 1.24-3.6 1.28-4.05 1.33-4.74 1.39-5.5 1.45-5.97 1.48-5.7 1.5-4.13 1.41-.34.85" filter="url(#a)"/><path d="m7.95-74.65-1.51-.17-2.24-.12L1.65-75l-2.64.01-2.59.07-2.5.14-2.4.21-2.38.28-2.41.36-2.55.42-2.77.48-3.09.54-3.52.61-3.96.67-4.33.75-4.47.82-4.33.9-3.95.97-3.51 1.03-3.21 1.1-3.26 1.15-3.66 1.2-4.34 1.24-5.04 1.3-5.57 1.34-5.77 1.39-5.63 1.43-5.24 1.46-4.86 1.48-4.77 1.48-5.09 1.53-5.81 1.67-7.06 1.93-8.44 2.2" filter="url(#a)"/><path d="m6.98-74.86-2.59-.11-2.71-.06-2.71.01-2.65.08-2.57.14-2.48.22-2.44.29-2.51.36-2.73.43-3.06.49-3.46.55-3.85.61-4.13.68-4.26.76-4.23.83-4.09.91-3.87.97-3.7 1.05-3.59 1.1-3.62 1.16-3.79 1.2-4.1 1.26-4.58 1.3-5.16 1.35-5.76 1.39-6.21 1.43-6.36 1.47-6.15 1.5-5.63 1.54-5.06 1.6-4.65 1.69-4.46 1.79-4.14 1.86-3.37 1.83-2.9 1.75-4.8 1.75" filter="url(#a)"/><path d="m4.3-75.02-2.77-.04-2.59.01-2.41.08-2.47.14-2.51.22-2.49.29-2.49.36-2.54.43-2.65.49-2.77.54-2.87.6-2.97.67-3.08.75-3.19.82-3.28.9-3.33.97-3.31 1.04-3.22 1.1-3.12 1.15-3.07 1.19-3.08 1.25-3.15 1.29-3.29 1.33-3.49 1.39-3.74 1.44-4 1.46-4.15 1.46-4.07 1.45-3.87 1.46-3.99 1.6-4.06 2.02" filter="url(#a)"/></g><path fill="none" stroke="#000" stroke-linejoin="round" stroke-width="3" d="M-9.68 26.07q18.8 3.42 9.4-30.948" filter="url(#a)"/><path fill="#D77F8C" stroke="#000" stroke-linejoin="round" stroke-width="3" d="m-50.55 27.45 1.11.58 1.12.56 1.14.54 1.15.52 1.17.5 1.19.48 1.2.46 1.21.45 1.22.42 1.24.41 1.24.4 1.26.37 1.27.36 1.28.35 1.29.33 1.3.31 1.3.3 1.32.28 1.32.27 1.33.26 1.33.24 1.34.23 1.34.21 1.35.21 1.35.19 1.36.18 1.36.16 1.36.16 1.36.14 1.36.14 1.36.12 1.37.11 1.36.11 1.36.09 1.36.09 1.36.08 1.35.06 1.35.06 1.35.06 1.34.04 1.34.04 1.33.03 1.33.03 1.31.02 1.32.01 1.3.01 1.29.01h1.29l1.28-.01 1.26-.01 1.26-.01 1.24-.02 1.23-.01 1.22-.03 1.21-.02 1.2-.03 1.18-.02 1.16-.03 1.15-.03 1.13-.03 1.12-.03 1.1-.03 1.09-.03 1.06-.03 1.05-.03 1.03-.03 1.01-.02.99-.03.96-.02.95-.01.92-.02.91-.01.88-.01h2.49l.78.01.76.02.73.02.7.03.68.03.64.04.62.05.59.06.56.06.53.07.5.08.47.09.44.1.4.1.37.12.34.13.3.13.27.15.23.16.2.17.16.18.12.19.09.21.05.22-.05-.22-.09-.21-.12-.19-.16-.18-.2-.17-.23-.16-.27-.15-.3-.13-.34-.13-.37-.12-.4-.1-.44-.1-.47-.09-.5-.08-.53-.07-.56-.06-.59-.06-.62-.05-.64-.04-.68-.03-.7-.03-.73-.02-.76-.02-.78-.01h-2.49l-.88.01-.91.01-.92.02-.95.01-.96.02-.99.03-1.01.02-1.03.03-1.05.03-1.06.03-1.09.03-1.1.03-1.12.03-1.13.03-1.15.03-1.16.03-1.18.02-1.2.03-1.21.02-1.22.03-1.23.01-1.24.02-1.26.01-1.26.01-1.28.01H10.4l-1.29-.01-1.3-.01-1.32-.01-1.31-.02-1.33-.03-1.33-.03-1.34-.04-1.34-.04-1.35-.06-1.35-.06-1.35-.06-1.36-.08-1.36-.09-1.36-.09-1.36-.11-1.37-.11-1.36-.12-1.36-.14-1.36-.14-1.36-.16-1.36-.16-1.36-.18-1.35-.19-1.35-.21-1.34-.21-1.34-.23-1.33-.24-1.33-.26-1.32-.27-1.32-.28-1.3-.3-1.3-.31-1.29-.33-1.28-.35-1.27-.36-1.26-.37-1.24-.4-1.24-.41-1.22-.42-1.21-.45-1.2-.46-1.19-.48-1.17-.5-1.15-.52-1.14-.54-1.12-.56" filter="url(#a)"/></svg>