<svg viewBox="-100 -100 200 200" xmlns="http://www.w3.org/2000/svg" width="500" height="500" id="face-svg">
    <defs>
      <clipPath id="leftEyeClipPath">
        <polyline points="22.22,-2.42 22.05,-2.78 21.85,-3.13 21.61,-3.45 21.35,-3.75 21.05,-4.04 20.72,-4.31 20.37,-4.56 19.99,-4.8 19.58,-5.02 19.15,-5.23 18.7,-5.43 18.22,-5.61 17.72,-5.78 17.21,-5.93 16.67,-6.08 16.08,-6.23 15.46,-6.36 14.81,-6.49 14.15,-6.61 13.46,-6.71 12.75,-6.81 12.02,-6.9 11.27,-6.97 10.51,-7.04 9.74,-7.1 8.95,-7.16 8.15,-7.2 7.34,-7.24 6.52,-7.28 5.69,-7.3 4.86,-7.32 4.03,-7.34 3.2,-7.35 2.36,-7.35 1.53,-7.36 0.7,-7.35 -0.12,-7.35 -0.95,-7.34 -1.76,-7.32 -2.56,-7.31 -3.36,-7.29 -4.15,-7.27 -4.92,-7.24 -5.69,-7.22 -6.44,-7.19 -7.17,-7.16 -7.89,-7.13 -8.6,-7.1 -9.29,-7.07 -9.96,-7.04 -10.61,-7 -11.25,-6.97 -11.87,-6.93 -12.47,-6.9 -13.05,-6.86 -13.62,-6.82 -14.16,-6.79 -14.69,-6.75 -15.19,-6.71 -15.68,-6.67 -16.15,-6.63 -16.61,-6.6 -17.04,-6.56 -17.46,-6.52 -17.86,-6.48 -18.25,-6.44 -18.62,-6.4 -18.98,-6.36 -19.32,-6.32 -19.64,-6.28 -19.96,-6.23 -20.25,-6.19 -20.53,-6.15 -20.8,-6.11 -21.06,-6.06 -21.3,-6.02 -21.52,-5.98 -21.73,-5.93 -21.93,-5.89 -19.14,-3.08 -18.78,-2.89 -18.42,-2.69 -18.04,-2.49 -17.65,-2.28 -17.25,-2.07 -16.84,-1.85 -16.41,-1.62 -15.97,-1.39 -15.53,-1.15 -15.07,-0.91 -14.6,-0.66 -14.12,-0.41 -13.63,-0.15 -13.13,0.11 -12.61,0.38 -12.09,0.66 -11.55,0.94 -11,1.22 -10.44,1.51 -9.86,1.81 -9.28,2.11 -8.68,2.41 -8.08,2.72 -7.46,3.03 -6.83,3.34 -6.2,3.65 -5.56,3.96 -4.91,4.27 -4.25,4.58 -3.59,4.89 -2.92,5.19 -2.25,5.49 -1.57,5.78 -0.89,6.06 -0.2,6.33 0.49,6.6 1.18,6.85 1.87,7.08 2.56,7.31 3.26,7.51 3.95,7.7 4.64,7.87 5.33,8.03 6.02,8.15 6.71,8.26 7.39,8.34 8.06,8.4 8.73,8.43 9.4,8.44 10.06,8.41 10.72,8.36 11.36,8.27 12,8.16 12.63,8.01 13.25,7.83 13.86,7.62 14.46,7.37 15.05,7.1 15.63,6.79 16.19,6.45 16.74,6.08 17.28,5.68 17.8,5.25 18.3,4.79 18.73,4.51 19.14,4.22 19.54,3.91 19.92,3.6 20.28,3.27 20.62,2.93 20.95,2.58 21.25,2.22 21.54,1.86 21.8,1.49 22.03,1.12 22.24,0.74 22.43,0.36 22.58,-0.01 22.71,-0.38" />
      </clipPath>
      <clipPath id="rightEyeClipPath">
        <polyline points="-23.98,-4.76 -23.67,-5.05 -23.33,-5.33 -22.96,-5.59 -22.57,-5.84 -22.15,-6.07 -21.7,-6.29 -21.23,-6.5 -20.73,-6.69 -20.21,-6.87 -19.67,-7.05 -19.11,-7.2 -18.53,-7.35 -17.93,-7.49 -17.32,-7.62 -16.69,-7.74 -15.99,-7.87 -15.27,-7.99 -14.53,-8.1 -13.76,-8.2 -12.98,-8.29 -12.18,-8.37 -11.36,-8.45 -10.52,-8.51 -9.68,-8.57 -8.82,-8.62 -7.95,-8.66 -7.07,-8.7 -6.19,-8.73 -5.31,-8.75 -4.42,-8.77 -3.53,-8.78 -2.64,-8.78 -1.75,-8.79 -0.87,-8.78 0,-8.78 0.87,-8.77 1.73,-8.75 2.58,-8.74 3.42,-8.72 4.24,-8.69 5.05,-8.67 5.85,-8.64 6.62,-8.61 7.39,-8.58 8.13,-8.55 8.86,-8.52 9.56,-8.48 10.25,-8.45 10.91,-8.41 11.56,-8.37 12.18,-8.33 12.78,-8.3 13.36,-8.26 13.92,-8.22 14.45,-8.18 14.97,-8.14 15.46,-8.1 15.93,-8.07 16.38,-8.03 16.81,-7.99 17.21,-7.95 17.6,-7.91 17.97,-7.88 18.33,-7.84 18.66,-7.8 18.98,-7.76 19.28,-7.73 19.57,-7.69 19.84,-7.65 20.09,-7.61 20.33,-7.58 20.55,-7.54 20.75,-7.5 20.95,-7.46 21.12,-7.43 21.29,-7.39 21.44,-7.35 21.57,-7.31 21.69,-7.27 17.72,-4.52 17.33,-4.32 16.93,-4.11 16.51,-3.89 16.09,-3.67 15.65,-3.43 15.21,-3.19 14.75,-2.94 14.29,-2.68 13.81,-2.41 13.32,-2.14 12.83,-1.85 12.32,-1.55 11.81,-1.25 11.29,-0.94 10.76,-0.62 10.22,-0.29 9.66,0.05 9.1,0.4 8.52,0.76 7.94,1.13 7.35,1.5 6.75,1.89 6.14,2.28 5.52,2.68 4.9,3.08 4.27,3.49 3.63,3.91 2.99,4.33 2.35,4.75 1.7,5.17 1.05,5.59 0.39,6 -0.27,6.41 -0.93,6.82 -1.59,7.22 -2.25,7.61 -2.91,7.98 -3.58,8.35 -4.24,8.69 -4.9,9.02 -5.56,9.33 -6.22,9.62 -6.88,9.89 -7.53,10.12 -8.18,10.33 -8.83,10.51 -9.48,10.66 -10.12,10.77 -10.76,10.85 -11.4,10.89 -12.03,10.88 -12.65,10.84 -13.27,10.76 -13.88,10.63 -14.49,10.46 -15.1,10.24 -15.69,9.98 -16.28,9.67 -16.86,9.32 -17.44,8.92 -18.01,8.47 -18.56,7.98 -19.11,7.45 -19.65,6.88 -20.1,6.55 -20.53,6.21 -20.96,5.85 -21.37,5.47 -21.77,5.08 -22.16,4.67 -22.53,4.24 -22.89,3.81 -23.23,3.36 -23.55,2.9 -23.85,2.44 -24.14,1.98 -24.4,1.51 -24.64,1.04 -24.86,0.57" />
      </clipPath>
      <filter id="fuzzy">
        <feTurbulence id="turbulence" baseFrequency="0.05" numOctaves="3" type="noise" result="noise" />
        <feDisplacementMap in="SourceGraphic" in2="noise" scale="2" />
      </filter>
      <linearGradient id="rainbowGradient" x1="0%" y1="0%" x2="100%" y2="0%">
        <stop offset="0%" style="stop-color: rgb(114, 109, 204); stop-opacity: 1" />
        <stop offset="50%" style="stop-color: rgb(184, 247, 145); stop-opacity: 1" />
        <stop offset="100%" style="stop-color: rgb(189, 114, 51); stop-opacity: 1" />
      </linearGradient>
    </defs>
    <rect x="-100" y="-100" width="100%" height="100%" fill="rgb(166, 166, 242)" />
    <polyline id="faceContour" points="60.02,0.96 60.1,2.09 60.04,2.51 59.99,4.44 59.96,5.73 59.92,7.26 59.69,8.3 59.68,8.43 59.57,11.32 59.52,12.24 59.25,15.78 59.03,17.42 59.29,14.7 58.75,17.91 58.54,19.11 58.27,20.95 58.07,21.95 57.43,25.34 57.79,23.7 57.36,26.2 57.23,26.93 56.87,28.08 56.36,30.2 56.38,30.63 56.07,31.51 55.03,35.44 54.88,36.06 54.89,36.36 54.25,37.72 54.04,38.83 53.06,41.42 52.58,42.98 52.72,42.14 51.45,45.61 52.13,43.52 51.31,45.69 51.43,45.64 50.56,47.69 49.67,49.32 50.06,48.74 48.8,51.05 48.3,52.34 48.06,53.01 47.03,54.79 45.63,57.37 46.21,56.64 45.55,57.16 44.25,59.41 44.1,59.79 42.86,61.79 43.44,61.03 42.11,62.76 40.42,64.99 40.13,65.61 39.22,66.76 39.55,66.57 37.75,68.28 37.2,69.2 36.41,69.62 35.22,71.25 34.38,72.4 34.9,71.54 32.97,73.51 32.9,73.45 32.75,73.94 32.08,74.67 30.53,76.09 30.04,76.4 27.94,77.78 28.11,77.88 28.76,77.6 26.77,78.66 25.92,79.47 23.65,81.05 23.2,81.07 23.2,81.07 22.61,81.45 21.27,81.95 20.95,82.49 18.79,83.69 19.71,83.3 18.43,83.73 17.22,84.21 16.9,84.51 15.08,85.19 14.24,85.28 13.82,85.38 12.02,86.2 10.42,86.73 9.22,86.96 9.24,87.18 8.51,87.17 8.01,87.35 6.78,87.44 4.13,87.98 4.86,87.54 2.7,88.1 1.48,88.14 1.06,88.19 1.7,87.84 -1.23,88 -1.83,88.12 -0.02,88.2 -2.28,88.03 -3.95,87.9 -4.28,87.54 -5.16,87.56 -6.31,87.51 -8.74,87.2 -8.07,87.02 -10.21,86.7 -9.94,86.84 -11.47,86.28 -12.97,85.83 -13.69,85.73 -13.5,85.76 -15.14,85.22 -15.51,84.81 -16.11,84.95 -17.23,84.18 -19.61,83.01 -19.61,83.13 -19.72,82.93 -22.4,81.65 -22.73,81.54 -22.17,81.92 -24.21,80.46 -24.74,79.98 -26.73,78.82 -26.74,79.06 -27.66,78.06 -27.28,78.46 -28.76,77.12 -30.79,75.65 -31.94,74.49 -31.93,74.4 -32.82,73.88 -32.45,73.9 -34.25,72.43 -33.62,72.8 -35.76,70.67 -36.69,69.44 -36.45,70.09 -36.8,69.65 -38.78,67.25 -38.63,67.57 -39.83,66.01 -40.23,65.33 -40.31,65.16 -40.77,64.91 -41.66,63.67 -42.81,61.95 -43.33,60.91 -44.69,59.03 -45.38,57.68 -46.35,55.93 -46.92,54.66 -47.47,53.53 -47.13,54.63 -47.71,53.49 -48.69,51.9 -48.28,52.58 -50.13,48.51 -50.32,48.38 -50.83,46.89 -51.96,44.31 -51.72,45.08 -52.66,42.48 -52.9,41.65 -52.68,41.98 -53.54,39.92 -54.49,37.67 -54.61,36.55 -54.98,35.27 -54.91,35.42 -55.1,34.43 -55.59,33.77 -56.22,31.25 -56.12,30.9 -57.13,26.81 -57.22,27.06 -57.28,26.68 -57.99,22.96 -58.11,22.8 -58.42,20.59 -58.59,19.9 -58.58,19.92 -58.67,19.09 -58.93,16.79 -59.26,13.56 -59.27,14.46 -59.41,12.87 -59.73,10.56 -59.57,9.68 -59.94,6.67 -59.87,4.95 -59.91,3.86 -59.92,4.86 -60.08,2.46 -59.94,0.13 -60.12,-1.32 -60.12,-3.36 -59.95,-4.48 -59.9,-6.18 -59.87,-6.25 -59.7,-7.07 -59.75,-9.49 -59.64,-9.08 -59.43,-11.56 -59.58,-12.35 -59.49,-12.46 -58.88,-17.23 -58.8,-17.38 -58.91,-17.43 -58.61,-19.5 -58.53,-19.76 -58.39,-21.01 -58.21,-21.47 -57.78,-23.89 -57.53,-25.21 -57.06,-26.84 -56.53,-29.01 -56.66,-28.77 -56.01,-31.66 -55.53,-33.21 -55.06,-34.99 -55,-34.82 -54.49,-36.82 -54.97,-35.91 -53.77,-38.77 -53.76,-38.88 -53.36,-40.71 -52.77,-42.42 -52.43,-42.66 -51.79,-44.38 -51.63,-44.93 -50.15,-48.03 -50.2,-48.33 -49.22,-50.13 -48.59,-51.55 -48.86,-50.88 -47.99,-52.64 -46.91,-54.55 -46.58,-54.71 -46.54,-55.54 -45.57,-57.02 -44.28,-59.17 -44.3,-59.42 -42.59,-61.65 -43.31,-60.77 -42,-62.93 -42.08,-62.59 -40.16,-65.35 -39.74,-65.49 -39.75,-65.92 -38.21,-67.45 -37.89,-68.15 -37.74,-68.28 -36.86,-69.43 -36.26,-70.07 -35.8,-70.46 -34.43,-71.94 -33.43,-72.77 -33.6,-73.03 -32.6,-73.51 -31.27,-75.07 -29.93,-75.8 -29.6,-76.35 -29.69,-76.19 -28.19,-77.17 -27.02,-78.3 -25.99,-79.38 -25.07,-79.92 -24.56,-79.9 -24.04,-80.66 -22.44,-81.31 -21.46,-82.11 -20.86,-82.14 -19.79,-82.7 -18.6,-83.67 -17.38,-83.85 -17.17,-84.17 -16.79,-84.42 -14.76,-85.08 -14.95,-84.96 -13.26,-85.64 -13.54,-85.5 -12.64,-85.9 -11.84,-86.17 -9.12,-86.97 -9.63,-86.51 -7.82,-87.08 -9.27,-86.86 -5.74,-87.31 -5.09,-87.35 -4.65,-87.68 -3.43,-87.43 -1.87,-87.82 -3.48,-87.7 -0.84,-87.63 1.5,-87.74 0.81,-87.68 1.31,-87.71 1.54,-87.76 3.82,-87.64 4.37,-87.62 6.09,-87.29 7.89,-87.15 7.09,-87.21 9.23,-86.79 9.21,-86.83 11.03,-86.22 11.18,-86.2 12.25,-86.06 13.15,-85.72 14.46,-85.07 14.43,-85.15 16.43,-84.56 17.16,-84.33 17.66,-83.95 18.69,-83.52 19.5,-83.04 19.16,-82.99 21.26,-82.28 22.44,-81.17 23.35,-80.77 24.19,-80.38 24.14,-80.48 26.13,-78.92 27.78,-77.89 27.13,-78.24 28.76,-77.03 29.28,-76.59 28.51,-77.3 28.9,-76.82 30.39,-75.7 31.5,-74.45 33.17,-72.91 32.9,-73.21 34.99,-71.19 35.49,-70.8 35.81,-70.16 35.93,-70.42 37.2,-68.82 37.15,-69.02 39.35,-66.02 39.52,-66.09 39.64,-65.74 41.32,-63.72 41.19,-63.71 41.89,-62.75 43.74,-60.17 43.01,-60.96 43.82,-59.92 45.2,-58.15 45.28,-57.29 45.8,-57.07 46.89,-54.81 46.61,-55.64 47.58,-53.77 48.47,-51.79 48.68,-51.58 49.11,-50.33 50,-48.72 51.32,-45.47 51.56,-45.11 51.91,-44.21 52.23,-43.63 52.84,-41.96 53.18,-40.66 53.79,-38.97 53.79,-38.91 54.44,-37.35 54.28,-37.44 54.91,-35.79 55.82,-32.41 55.94,-32.37 56.59,-29.23 56.41,-30.56 57.3,-26.36 57.26,-26.42 57.61,-25.08 57.55,-24.73 57.83,-23.31 58.32,-20.29 58.27,-20.86 58.5,-19.08 58.93,-17.18 59.01,-15.51 59.11,-15.07 59.41,-12.56 59.43,-13.74 59.57,-11.89 59.47,-11.57 59.81,-9.61 59.8,-6.01 60.09,-5 59.91,-4.49 60.06,-3.22 60.07,-2.23 60.02,0.96 60.1,2.09" fill="rgb(222, 223, 32)" stroke="black" stroke-width="1.6666666666666665" stroke-linejoin="round" filter="url(#fuzzy)" />
    <g transform="translate(27.59 -28.83)">
      <polyline id="rightCountour" points="-23.98,-4.76 -23.67,-5.05 -23.33,-5.33 -22.96,-5.59 -22.57,-5.84 -22.15,-6.07 -21.7,-6.29 -21.23,-6.5 -20.73,-6.69 -20.21,-6.87 -19.67,-7.05 -19.11,-7.2 -18.53,-7.35 -17.93,-7.49 -17.32,-7.62 -16.69,-7.74 -15.99,-7.87 -15.27,-7.99 -14.53,-8.1 -13.76,-8.2 -12.98,-8.29 -12.18,-8.37 -11.36,-8.45 -10.52,-8.51 -9.68,-8.57 -8.82,-8.62 -7.95,-8.66 -7.07,-8.7 -6.19,-8.73 -5.31,-8.75 -4.42,-8.77 -3.53,-8.78 -2.64,-8.78 -1.75,-8.79 -0.87,-8.78 0,-8.78 0.87,-8.77 1.73,-8.75 2.58,-8.74 3.42,-8.72 4.24,-8.69 5.05,-8.67 5.85,-8.64 6.62,-8.61 7.39,-8.58 8.13,-8.55 8.86,-8.52 9.56,-8.48 10.25,-8.45 10.91,-8.41 11.56,-8.37 12.18,-8.33 12.78,-8.3 13.36,-8.26 13.92,-8.22 14.45,-8.18 14.97,-8.14 15.46,-8.1 15.93,-8.07 16.38,-8.03 16.81,-7.99 17.21,-7.95 17.6,-7.91 17.97,-7.88 18.33,-7.84 18.66,-7.8 18.98,-7.76 19.28,-7.73 19.57,-7.69 19.84,-7.65 20.09,-7.61 20.33,-7.58 20.55,-7.54 20.75,-7.5 20.95,-7.46 21.12,-7.43 21.29,-7.39 21.44,-7.35 21.57,-7.31 21.69,-7.27 17.72,-4.52 17.33,-4.32 16.93,-4.11 16.51,-3.89 16.09,-3.67 15.65,-3.43 15.21,-3.19 14.75,-2.94 14.29,-2.68 13.81,-2.41 13.32,-2.14 12.83,-1.85 12.32,-1.55 11.81,-1.25 11.29,-0.94 10.76,-0.62 10.22,-0.29 9.66,0.05 9.1,0.4 8.52,0.76 7.94,1.13 7.35,1.5 6.75,1.89 6.14,2.28 5.52,2.68 4.9,3.08 4.27,3.49 3.63,3.91 2.99,4.33 2.35,4.75 1.7,5.17 1.05,5.59 0.39,6 -0.27,6.41 -0.93,6.82 -1.59,7.22 -2.25,7.61 -2.91,7.98 -3.58,8.35 -4.24,8.69 -4.9,9.02 -5.56,9.33 -6.22,9.62 -6.88,9.89 -7.53,10.12 -8.18,10.33 -8.83,10.51 -9.48,10.66 -10.12,10.77 -10.76,10.85 -11.4,10.89 -12.03,10.88 -12.65,10.84 -13.27,10.76 -13.88,10.63 -14.49,10.46 -15.1,10.24 -15.69,9.98 -16.28,9.67 -16.86,9.32 -17.44,8.92 -18.01,8.47 -18.56,7.98 -19.11,7.45 -19.65,6.88 -20.1,6.55 -20.53,6.21 -20.96,5.85 -21.37,5.47 -21.77,5.08 -22.16,4.67 -22.53,4.24 -22.89,3.81 -23.23,3.36 -23.55,2.9 -23.85,2.44 -24.14,1.98 -24.4,1.51 -24.64,1.04 -24.86,0.57" fill="white" stroke="white" stroke-width="0" stroke-linejoin="round" filter="url(#fuzzy)" />
    </g>
    <g transform="translate(-25.919999999999998 -25.76)">
      <polyline id="leftCountour" points="22.22,-2.42 22.05,-2.78 21.85,-3.13 21.61,-3.45 21.35,-3.75 21.05,-4.04 20.72,-4.31 20.37,-4.56 19.99,-4.8 19.58,-5.02 19.15,-5.23 18.7,-5.43 18.22,-5.61 17.72,-5.78 17.21,-5.93 16.67,-6.08 16.08,-6.23 15.46,-6.36 14.81,-6.49 14.15,-6.61 13.46,-6.71 12.75,-6.81 12.02,-6.9 11.27,-6.97 10.51,-7.04 9.74,-7.1 8.95,-7.16 8.15,-7.2 7.34,-7.24 6.52,-7.28 5.69,-7.3 4.86,-7.32 4.03,-7.34 3.2,-7.35 2.36,-7.35 1.53,-7.36 0.7,-7.35 -0.12,-7.35 -0.95,-7.34 -1.76,-7.32 -2.56,-7.31 -3.36,-7.29 -4.15,-7.27 -4.92,-7.24 -5.69,-7.22 -6.44,-7.19 -7.17,-7.16 -7.89,-7.13 -8.6,-7.1 -9.29,-7.07 -9.96,-7.04 -10.61,-7 -11.25,-6.97 -11.87,-6.93 -12.47,-6.9 -13.05,-6.86 -13.62,-6.82 -14.16,-6.79 -14.69,-6.75 -15.19,-6.71 -15.68,-6.67 -16.15,-6.63 -16.61,-6.6 -17.04,-6.56 -17.46,-6.52 -17.86,-6.48 -18.25,-6.44 -18.62,-6.4 -18.98,-6.36 -19.32,-6.32 -19.64,-6.28 -19.96,-6.23 -20.25,-6.19 -20.53,-6.15 -20.8,-6.11 -21.06,-6.06 -21.3,-6.02 -21.52,-5.98 -21.73,-5.93 -21.93,-5.89 -19.14,-3.08 -18.78,-2.89 -18.42,-2.69 -18.04,-2.49 -17.65,-2.28 -17.25,-2.07 -16.84,-1.85 -16.41,-1.62 -15.97,-1.39 -15.53,-1.15 -15.07,-0.91 -14.6,-0.66 -14.12,-0.41 -13.63,-0.15 -13.13,0.11 -12.61,0.38 -12.09,0.66 -11.55,0.94 -11,1.22 -10.44,1.51 -9.86,1.81 -9.28,2.11 -8.68,2.41 -8.08,2.72 -7.46,3.03 -6.83,3.34 -6.2,3.65 -5.56,3.96 -4.91,4.27 -4.25,4.58 -3.59,4.89 -2.92,5.19 -2.25,5.49 -1.57,5.78 -0.89,6.06 -0.2,6.33 0.49,6.6 1.18,6.85 1.87,7.08 2.56,7.31 3.26,7.51 3.95,7.7 4.64,7.87 5.33,8.03 6.02,8.15 6.71,8.26 7.39,8.34 8.06,8.4 8.73,8.43 9.4,8.44 10.06,8.41 10.72,8.36 11.36,8.27 12,8.16 12.63,8.01 13.25,7.83 13.86,7.62 14.46,7.37 15.05,7.1 15.63,6.79 16.19,6.45 16.74,6.08 17.28,5.68 17.8,5.25 18.3,4.79 18.73,4.51 19.14,4.22 19.54,3.91 19.92,3.6 20.28,3.27 20.62,2.93 20.95,2.58 21.25,2.22 21.54,1.86 21.8,1.49 22.03,1.12 22.24,0.74 22.43,0.36 22.58,-0.01 22.71,-0.38" fill="white" stroke="white" stroke-width="0" stroke-linejoin="round" filter="url(#fuzzy)" />
    </g>
    <g transform="translate(27.59 -28.83)">
      <polyline id="rightUpper" points="-25.15,-0.84 -25.21,-1.32 -25.22,-1.78 -25.19,-2.22 -25.13,-2.64 -25.03,-3.04 -24.89,-3.42 -24.71,-3.78 -24.5,-4.12 -24.25,-4.45 -23.98,-4.76 -23.67,-5.05 -23.33,-5.33 -22.96,-5.59 -22.57,-5.84 -22.15,-6.07 -21.7,-6.29 -21.23,-6.5 -20.73,-6.69 -20.21,-6.87 -19.67,-7.05 -19.11,-7.2 -18.53,-7.35 -17.93,-7.49 -17.32,-7.62 -16.69,-7.74 -15.99,-7.87 -15.27,-7.99 -14.53,-8.1 -13.76,-8.2 -12.98,-8.29 -12.18,-8.37 -11.36,-8.45 -10.52,-8.51 -9.68,-8.57 -8.82,-8.62 -7.95,-8.66 -7.07,-8.7 -6.19,-8.73 -5.31,-8.75 -4.42,-8.77 -3.53,-8.78 -2.64,-8.78 -1.75,-8.79 -0.87,-8.78 0,-8.78 0.87,-8.77 1.73,-8.75 2.58,-8.74 3.42,-8.72 4.24,-8.69 5.05,-8.67 5.85,-8.64 6.62,-8.61 7.39,-8.58 8.13,-8.55 8.86,-8.52 9.56,-8.48 10.25,-8.45 10.91,-8.41 11.56,-8.37 12.18,-8.33 12.78,-8.3 13.36,-8.26 13.92,-8.22 14.45,-8.18 14.97,-8.14 15.46,-8.1 15.93,-8.07 16.38,-8.03 16.81,-7.99 17.21,-7.95 17.6,-7.91 17.97,-7.88 18.33,-7.84 18.66,-7.8 18.98,-7.76 19.28,-7.73 19.57,-7.69 19.84,-7.65 20.09,-7.61 20.33,-7.58 20.55,-7.54 20.75,-7.5 20.95,-7.46 21.12,-7.43 21.29,-7.39 21.44,-7.35 21.57,-7.31 21.69,-7.27 21.8,-7.24 21.9,-7.2 21.99,-7.16 22.06,-7.12 22.12,-7.08 22.17,-7.04 22.21,-7 22.24,-6.96 22.26,-6.92 22.27,-6.88" fill="none" stroke="black" stroke-width="1.6666666666666665" stroke-linejoin="round" filter="url(#fuzzy)" />
      <polyline id="rightLower" points="-25.43,-3.25 -25.53,-2.99 -25.59,-2.7 -25.61,-2.37 -25.59,-2.01 -25.55,-1.62 -25.47,-1.21 -25.36,-0.79 -25.22,-0.34 -25.05,0.11 -24.86,0.57 -24.64,1.04 -24.4,1.51 -24.14,1.98 -23.85,2.44 -23.55,2.9 -23.23,3.36 -22.89,3.81 -22.53,4.24 -22.16,4.67 -21.77,5.08 -21.37,5.47 -20.96,5.85 -20.53,6.21 -20.1,6.55 -19.65,6.88 -19.11,7.45 -18.56,7.98 -18.01,8.47 -17.44,8.92 -16.86,9.32 -16.28,9.67 -15.69,9.98 -15.1,10.24 -14.49,10.46 -13.88,10.63 -13.27,10.76 -12.65,10.84 -12.03,10.88 -11.4,10.89 -10.76,10.85 -10.12,10.77 -9.48,10.66 -8.83,10.51 -8.18,10.33 -7.53,10.12 -6.88,9.89 -6.22,9.62 -5.56,9.33 -4.9,9.02 -4.24,8.69 -3.58,8.35 -2.91,7.98 -2.25,7.61 -1.59,7.22 -0.93,6.82 -0.27,6.41 0.39,6 1.05,5.59 1.7,5.17 2.35,4.75 2.99,4.33 3.63,3.91 4.27,3.49 4.9,3.08 5.52,2.68 6.14,2.28 6.75,1.89 7.35,1.5 7.94,1.13 8.52,0.76 9.1,0.4 9.66,0.05 10.22,-0.29 10.76,-0.62 11.29,-0.94 11.81,-1.25 12.32,-1.55 12.83,-1.85 13.32,-2.14 13.81,-2.41 14.29,-2.68 14.75,-2.94 15.21,-3.19 15.65,-3.43 16.09,-3.67 16.51,-3.89 16.93,-4.11 17.33,-4.32 17.72,-4.52 18.1,-4.71 18.47,-4.89 18.83,-5.07 19.17,-5.24 19.51,-5.41 19.83,-5.57 20.15,-5.72 20.45,-5.86 20.74,-6 21.02,-6.13" fill="none" stroke="black" stroke-width="2.2222222222222223" stroke-linejoin="round" filter="url(#fuzzy)" />
      <circle r="4.466" cx="-11.136099856829873" cy="5.070600574123713" stroke="black" fill="none" stroke-width="1.0" filter="url(#fuzzy)" clip-path="url(#rightEyeClipPath)" /><circle r="3.426" cx="-11.476099856829872" cy="3.320600574123713" stroke="black" fill="none" stroke-width="1.0" filter="url(#fuzzy)" clip-path="url(#rightEyeClipPath)" /><circle r="3.75" cx="-11.456099856829873" cy="4.590600574123712" stroke="black" fill="none" stroke-width="1.0" filter="url(#fuzzy)" clip-path="url(#rightEyeClipPath)" /><circle r="4.798" cx="-10.256099856829874" cy="6.6306005741237115" stroke="black" fill="none" stroke-width="1.0" filter="url(#fuzzy)" clip-path="url(#rightEyeClipPath)" /><circle r="4.694" cx="-9.991099856829873" cy="2.9706005741237123" stroke="black" fill="none" stroke-width="1.0" filter="url(#fuzzy)" clip-path="url(#rightEyeClipPath)" /><circle r="3.016" cx="-11.396099856829874" cy="2.1656005741237125" stroke="black" fill="none" stroke-width="1.0" filter="url(#fuzzy)" clip-path="url(#rightEyeClipPath)" /><circle r="3.852" cx="-13.491099856829873" cy="2.145600574123713" stroke="black" fill="none" stroke-width="1.0" filter="url(#fuzzy)" clip-path="url(#rightEyeClipPath)" /><circle r="3.838" cx="-9.781099856829872" cy="3.9606005741237125" stroke="black" fill="none" stroke-width="1.0" filter="url(#fuzzy)" clip-path="url(#rightEyeClipPath)" /><circle r="3.966" cx="-9.381099856829874" cy="3.5806005741237126" stroke="black" fill="none" stroke-width="1.0" filter="url(#fuzzy)" clip-path="url(#rightEyeClipPath)" /><circle r="4.404" cx="-9.391099856829873" cy="5.530600574123712" stroke="black" fill="none" stroke-width="1.0" filter="url(#fuzzy)" clip-path="url(#rightEyeClipPath)" />
      </g>
    <g transform="translate(-25.919999999999998 -25.76)">
      <polyline id="leftUpper" points="21.79,2.51 22.03,1.9 22.22,1.31 22.37,0.76 22.47,0.23 22.52,-0.27 22.54,-0.75 22.52,-1.2 22.46,-1.63 22.36,-2.04 22.22,-2.42 22.05,-2.78 21.85,-3.13 21.61,-3.45 21.35,-3.75 21.05,-4.04 20.72,-4.31 20.37,-4.56 19.99,-4.8 19.58,-5.02 19.15,-5.23 18.7,-5.43 18.22,-5.61 17.72,-5.78 17.21,-5.93 16.67,-6.08 16.08,-6.23 15.46,-6.36 14.81,-6.49 14.15,-6.61 13.46,-6.71 12.75,-6.81 12.02,-6.9 11.27,-6.97 10.51,-7.04 9.74,-7.1 8.95,-7.16 8.15,-7.2 7.34,-7.24 6.52,-7.28 5.69,-7.3 4.86,-7.32 4.03,-7.34 3.2,-7.35 2.36,-7.35 1.53,-7.36 0.7,-7.35 -0.12,-7.35 -0.95,-7.34 -1.76,-7.32 -2.56,-7.31 -3.36,-7.29 -4.15,-7.27 -4.92,-7.24 -5.69,-7.22 -6.44,-7.19 -7.17,-7.16 -7.89,-7.13 -8.6,-7.1 -9.29,-7.07 -9.96,-7.04 -10.61,-7 -11.25,-6.97 -11.87,-6.93 -12.47,-6.9 -13.05,-6.86 -13.62,-6.82 -14.16,-6.79 -14.69,-6.75 -15.19,-6.71 -15.68,-6.67 -16.15,-6.63 -16.61,-6.6 -17.04,-6.56 -17.46,-6.52 -17.86,-6.48 -18.25,-6.44 -18.62,-6.4 -18.98,-6.36 -19.32,-6.32 -19.64,-6.28 -19.96,-6.23 -20.25,-6.19 -20.53,-6.15 -20.8,-6.11 -21.06,-6.06 -21.3,-6.02 -21.52,-5.98 -21.73,-5.93 -21.93,-5.89 -22.12,-5.84 -22.3,-5.79 -22.46,-5.75 -22.61,-5.7 -22.74,-5.65 -22.87,-5.6 -22.99,-5.56 -23.09,-5.51 -23.18,-5.46 -23.27,-5.41" fill="none" stroke="black" stroke-width="2.2222222222222223" stroke-linejoin="round" filter="url(#fuzzy)" />
      <polyline id="leftLower" points="22.07,-3.48 22.32,-3.26 22.52,-3.02 22.68,-2.74 22.79,-2.45 22.87,-2.14 22.91,-1.81 22.91,-1.47 22.88,-1.12 22.81,-0.75 22.71,-0.38 22.58,-0.01 22.43,0.36 22.24,0.74 22.03,1.12 21.8,1.49 21.54,1.86 21.25,2.22 20.95,2.58 20.62,2.93 20.28,3.27 19.92,3.6 19.54,3.91 19.14,4.22 18.73,4.51 18.3,4.79 17.8,5.25 17.28,5.68 16.74,6.08 16.19,6.45 15.63,6.79 15.05,7.1 14.46,7.37 13.86,7.62 13.25,7.83 12.63,8.01 12,8.16 11.36,8.27 10.72,8.36 10.06,8.41 9.4,8.44 8.73,8.43 8.06,8.4 7.39,8.34 6.71,8.26 6.02,8.15 5.33,8.03 4.64,7.87 3.95,7.7 3.26,7.51 2.56,7.31 1.87,7.08 1.18,6.85 0.49,6.6 -0.2,6.33 -0.89,6.06 -1.57,5.78 -2.25,5.49 -2.92,5.19 -3.59,4.89 -4.25,4.58 -4.91,4.27 -5.56,3.96 -6.2,3.65 -6.83,3.34 -7.46,3.03 -8.08,2.72 -8.68,2.41 -9.28,2.11 -9.86,1.81 -10.44,1.51 -11,1.22 -11.55,0.94 -12.09,0.66 -12.61,0.38 -13.13,0.11 -13.63,-0.15 -14.12,-0.41 -14.6,-0.66 -15.07,-0.91 -15.53,-1.15 -15.97,-1.39 -16.41,-1.62 -16.84,-1.85 -17.25,-2.07 -17.65,-2.28 -18.04,-2.49 -18.42,-2.69 -18.78,-2.89 -19.14,-3.08 -19.48,-3.26 -19.81,-3.44 -20.12,-3.61 -20.43,-3.78 -20.72,-3.95 -21,-4.1 -21.27,-4.26 -21.53,-4.4 -21.77,-4.55 -22.01,-4.69" fill="none" stroke="black" stroke-width="2.2222222222222223" stroke-linejoin="round" filter="url(#fuzzy)" />
      <circle r="4.27" cx="9.308220285773817" cy="-3.51552364897523" stroke="black" fill="none" stroke-width="1.0" filter="url(#fuzzy)" clip-path="url(#leftEyeClipPath)" /><circle r="3.312" cx="5.243220285773817" cy="-7.24052364897523" stroke="black" fill="none" stroke-width="1.0" filter="url(#fuzzy)" clip-path="url(#leftEyeClipPath)" /><circle r="3.91" cx="9.608220285773818" cy="-6.95052364897523" stroke="black" fill="none" stroke-width="1.0" filter="url(#fuzzy)" clip-path="url(#leftEyeClipPath)" /><circle r="3.096" cx="5.153220285773817" cy="-4.6205236489752295" stroke="black" fill="none" stroke-width="1.0" filter="url(#fuzzy)" clip-path="url(#leftEyeClipPath)" /><circle r="4.5280000000000005" cx="7.743220285773816" cy="-4.340523648975229" stroke="black" fill="none" stroke-width="1.0" filter="url(#fuzzy)" clip-path="url(#leftEyeClipPath)" /><circle r="4.454" cx="7.893220285773818" cy="-4.19052364897523" stroke="black" fill="none" stroke-width="1.0" filter="url(#fuzzy)" clip-path="url(#leftEyeClipPath)" /><circle r="3.7279999999999998" cx="4.983220285773817" cy="-3.4555236489752295" stroke="black" fill="none" stroke-width="1.0" filter="url(#fuzzy)" clip-path="url(#leftEyeClipPath)" /><circle r="4.236" cx="5.853220285773817" cy="-6.46552364897523" stroke="black" fill="none" stroke-width="1.0" filter="url(#fuzzy)" clip-path="url(#leftEyeClipPath)" /><circle r="4.668" cx="7.733220285773818" cy="-6.30552364897523" stroke="black" fill="none" stroke-width="1.0" filter="url(#fuzzy)" clip-path="url(#leftEyeClipPath)" /><circle r="4.182" cx="9.708220285773816" cy="-3.8755236489752294" stroke="black" fill="none" stroke-width="1.0" filter="url(#fuzzy)" clip-path="url(#leftEyeClipPath)" />
    </g>
    <g id="hairs">
      <polyline points="31.5,-74.45 32.52,-73.42 33.05,-72.64 33.27,-71.89 33.15,-71.23 32.67,-70.61 31.9,-69.99 30.85,-69.32 29.53,-68.59 27.89,-67.83 25.92,-67.06 23.59,-66.31 20.89,-65.58 17.8,-64.88 14.3,-64.18 10.38,-63.5 6.03,-62.82 1.22,-62.15 -4.03,-61.48 -9.72,-60.83 -15.86,-60.22 -22.45,-59.63 -29.54,-59.03 -37.18,-58.27" fill="none" stroke="rgb(19, 133, 134)" stroke-width="2" stroke-linejoin="round" filter="url(#fuzzy)" /><polyline points="52.84,-41.96 52.93,-40.93 52.44,-40.51 51.31,-40.67 49.55,-41.29 47.14,-42.26 44.08,-43.59 40.33,-45.36 35.83,-47.67 30.53,-50.64 24.39,-54.29 17.4,-58.63 9.56,-63.68 0.82,-69.45 -8.91,-75.89" fill="none" stroke="rgb(19, 133, 134)" stroke-width="2" stroke-linejoin="round" filter="url(#fuzzy)" /><polyline points="39.64,-65.74 40.69,-64.42 41.31,-63.57 41.79,-62.83 42.13,-62.26 42.27,-61.92 42.19,-61.83 41.88,-61.99 41.32,-62.44 40.51,-63.2 39.44,-64.26 38.1,-65.65 36.45,-67.4 34.4,-69.59 31.84,-72.35 28.53,-75.88" fill="none" stroke="rgb(19, 133, 134)" stroke-width="2" stroke-linejoin="round" filter="url(#fuzzy)" /><polyline points="-20.86,-82.14 -19.65,-82.72 -18.17,-83.19 -16.52,-83.5 -14.67,-83.69 -12.59,-83.8 -10.29,-83.85 -7.82,-83.85 -5.24,-83.84 -2.56,-83.82 0.2,-83.79 3.04,-83.75 5.88,-83.72 8.63,-83.68 11.2,-83.67 13.66,-83.66 16.18,-83.6" fill="none" stroke="rgb(19, 133, 134)" stroke-width="2" stroke-linejoin="round" filter="url(#fuzzy)" /><polyline points="21.26,-82.28 22.22,-81.48 22.87,-80.99 23.31,-80.59 23.59,-80.19 23.67,-79.79 23.47,-79.46 22.92,-79.23 21.99,-79.13 20.68,-79.13 19.03,-79.2 17.06,-79.28 14.81,-79.36 12.26,-79.46 9.35,-79.63 6.01,-79.9 2.16,-80.32 -2.23,-80.9 -7.13,-81.65 -12.52,-82.58" fill="none" stroke="rgb(19, 133, 134)" stroke-width="2" stroke-linejoin="round" filter="url(#fuzzy)" /><polyline points="27.78,-77.89 27.75,-77.81 28.02,-77.5 28.13,-77.29 28.09,-77.11 27.99,-76.86 27.85,-76.53 27.59,-76.19 27.13,-75.89 26.37,-75.72 25.27,-75.7 23.77,-75.85 21.87,-76.17 19.57,-76.63 16.89,-77.22 13.85,-77.92 10.41,-78.74 6.49,-79.7 2.05,-80.83 -2.88,-82.13 -8.1,-83.68" fill="none" stroke="rgb(19, 133, 134)" stroke-width="2" stroke-linejoin="round" filter="url(#fuzzy)" /><polyline points="1.54,-87.76 3.23,-87.66 4.51,-87.53 5.6,-87.39 6.49,-87.25 7.17,-87.11 7.68,-86.97 8.02,-86.82 8.18,-86.67 8.15,-86.53 7.89,-86.39 7.38,-86.25 6.58,-86.12 5.46,-86.01 4.02,-85.91 2.24,-85.84 0.07,-85.79 -2.58,-85.75 -5.78,-85.69 -9.51,-85.6" fill="none" stroke="rgb(19, 133, 134)" stroke-width="2" stroke-linejoin="round" filter="url(#fuzzy)" /><polyline points="21.26,-82.28 22.06,-81.44 22.25,-80.82 21.91,-80.2 21.09,-79.47 19.75,-78.61 17.8,-77.67 15.16,-76.69 11.78,-75.7 7.67,-74.67 2.86,-73.57 -2.61,-72.32 -8.73,-70.88 -15.56,-69.24 -23.2,-67.47 -31.89,-65.48" fill="none" stroke="rgb(19, 133, 134)" stroke-width="2" stroke-linejoin="round" filter="url(#fuzzy)" /><polyline points="-18.6,-83.67 -17.63,-83.85 -16.65,-84.02 -15.44,-84.16 -14.01,-84.23 -12.43,-84.23 -10.73,-84.17 -8.89,-84.07 -6.91,-83.94 -4.8,-83.76 -2.58,-83.53 -0.31,-83.26 1.99,-82.95 4.29,-82.63 6.58,-82.32 8.83,-82.03 11.02,-81.75 13.14,-81.47 15.23,-81.15 17.31,-80.77 19.4,-80.32 21.44,-79.85 23.33,-79.41 24.98,-79.04" fill="none" stroke="rgb(19, 133, 134)" stroke-width="2" stroke-linejoin="round" filter="url(#fuzzy)" /><polyline points="-0.84,-87.63 0.62,-87.6 1.54,-87.39 2.66,-87.04 4.17,-86.55 6.04,-85.93 8.13,-85.21 10.32,-84.41 12.53,-83.56 14.71,-82.65 16.85,-81.71 18.97,-80.74 21.02,-79.77 22.96,-78.87 24.73,-78.06 26.29,-77.4 27.57,-76.94 28.46,-76.75" fill="none" stroke="rgb(19, 133, 134)" stroke-width="2" stroke-linejoin="round" filter="url(#fuzzy)" /><polyline points="24.19,-80.38 24.71,-80.02 25.63,-79.34 26.36,-78.78 26.76,-78.44 26.82,-78.31 26.57,-78.37 26.02,-78.57 25.23,-78.88 24.21,-79.28 22.9,-79.8 21.2,-80.54 19,-81.57 16.24,-82.95 12.9,-84.72" fill="none" stroke="rgb(19, 133, 134)" stroke-width="2" stroke-linejoin="round" filter="url(#fuzzy)" /><polyline points="27.78,-77.89 27.73,-77.82 27.95,-77.54 27.94,-77.38 27.73,-77.27 27.41,-77.14 26.99,-76.94 26.38,-76.76 25.47,-76.66 24.18,-76.73 22.44,-77 20.22,-77.5 17.47,-78.22 14.17,-79.13 10.33,-80.22 5.99,-81.46 1.24,-82.9 -3.87,-84.65" fill="none" stroke="rgb(19, 133, 134)" stroke-width="2" stroke-linejoin="round" filter="url(#fuzzy)" /><polyline points="41.89,-62.75 42.93,-61.26 43.43,-60.5 43.88,-59.81 44.3,-59.14 44.61,-58.6 44.77,-58.25 44.75,-58.13 44.55,-58.23 44.17,-58.56 43.58,-59.14 42.73,-60.04 41.58,-61.33 40.07,-63.07 38.14,-65.38 35.7,-68.38 32.64,-72.23" fill="none" stroke="rgb(19, 133, 134)" stroke-width="2" stroke-linejoin="round" filter="url(#fuzzy)" /><polyline points="-28.19,-77.17 -27.06,-78.19 -25.91,-79.01 -24.74,-79.66 -23.48,-80.25 -22.11,-80.83 -20.63,-81.43 -19.07,-82.02 -17.47,-82.61 -15.86,-83.18 -14.28,-83.72 -12.75,-84.23 -11.3,-84.71 -9.93,-85.15 -8.68,-85.55 -7.55,-85.92 -6.53,-86.26 -5.6,-86.56 -4.76,-86.83 -4.02,-87.07 -3.46,-87.27 -3.17,-87.42 -3.14,-87.54 -3.15,-87.58" fill="none" stroke="rgb(19, 133, 134)" stroke-width="2" stroke-linejoin="round" filter="url(#fuzzy)" /><polyline points="-29.93,-75.8 -29.47,-76.15 -28.46,-76.51 -26.92,-76.99 -25.02,-77.48 -22.88,-77.89 -20.56,-78.17 -18.05,-78.35 -15.36,-78.44 -12.49,-78.48 -9.46,-78.47 -6.31,-78.42 -3.06,-78.33 0.27,-78.18 3.66,-77.96 7.09,-77.69 10.52,-77.37 13.93,-77.05 17.27,-76.78 20.49,-76.58 23.54,-76.5 26.36,-76.59" fill="none" stroke="rgb(19, 133, 134)" stroke-width="2" stroke-linejoin="round" filter="url(#fuzzy)" /><polyline points="35.93,-70.42 36.82,-69.31 37.5,-68.39 38.05,-67.6 38.39,-66.99 38.5,-66.57 38.4,-66.32 38.08,-66.22 37.51,-66.3 36.68,-66.59 35.55,-67.1 34.12,-67.85 32.37,-68.86 30.27,-70.13 27.81,-71.68 24.96,-73.53 21.7,-75.69 18,-78.15 13.77,-80.94 8.95,-84.11" fill="none" stroke="rgb(19, 133, 134)" stroke-width="2" stroke-linejoin="round" filter="url(#fuzzy)" /><polyline points="39.52,-66.09 39.88,-65.4 40.18,-64.59 40.17,-63.88 39.84,-63.28 39.16,-62.8 38.1,-62.46 36.65,-62.24 34.8,-62.15 32.54,-62.18 29.84,-62.34 26.69,-62.63 23.07,-63.04 18.97,-63.54 14.36,-64.16 9.25,-64.89 3.64,-65.78 -2.48,-66.84 -9.17,-68.09 -16.55,-69.51 -24.74,-71.11" fill="none" stroke="rgb(19, 133, 134)" stroke-width="2" stroke-linejoin="round" filter="url(#fuzzy)" /><polyline points="6.09,-87.29 7.25,-87.1 8.24,-86.74 9.42,-86.19 10.79,-85.5 12.3,-84.68 13.91,-83.77 15.6,-82.76 17.36,-81.67 19.19,-80.52 21.04,-79.32 22.9,-78.09 24.73,-76.86 26.51,-75.64 28.22,-74.44 29.86,-73.28 31.43,-72.18 32.91,-71.15 34.29,-70.21 35.54,-69.37 36.58,-68.67 37.29,-68.31" fill="none" stroke="rgb(19, 133, 134)" stroke-width="2" stroke-linejoin="round" filter="url(#fuzzy)" /><polyline points="24.19,-80.38 24.74,-80 25.7,-79.29 26.51,-78.69 27.04,-78.26 27.31,-77.99 27.37,-77.85 27.27,-77.77 27.06,-77.71 26.75,-77.66 26.3,-77.65 25.65,-77.73 24.72,-77.97 23.45,-78.42 21.79,-79.09 19.72,-80 17.21,-81.13 14.22,-82.47 10.72,-84 6.61,-85.74" fill="none" stroke="rgb(19, 133, 134)" stroke-width="2" stroke-linejoin="round" filter="url(#fuzzy)" /><polyline points="-33.6,-73.03 -32.42,-73.76 -31,-74.57 -29.51,-75.23 -27.91,-75.75 -26.13,-76.22 -24.12,-76.7 -21.9,-77.18 -19.51,-77.62 -16.99,-78 -14.36,-78.31 -11.63,-78.57 -8.83,-78.81 -5.97,-79.04 -3.08,-79.26 -0.18,-79.47 2.73,-79.66 5.67,-79.78 8.64,-79.81 11.64,-79.76 14.62,-79.65 17.53,-79.56 20.23,-79.55 22.54,-79.76" fill="none" stroke="rgb(19, 133, 134)" stroke-width="2" stroke-linejoin="round" filter="url(#fuzzy)" /><polyline points="21.26,-82.28 22.26,-81.46 23.04,-80.95 23.69,-80.52 24.27,-80.08 24.74,-79.63 25.04,-79.24 25.11,-78.95 24.93,-78.76 24.52,-78.67 23.91,-78.63 23.12,-78.61 22.19,-78.59 21.07,-78.58 19.74,-78.62 18.11,-78.76 16.14,-79.01 13.79,-79.42 11.07,-79.97 7.99,-80.66 4.56,-81.47 0.73,-82.35 -3.58,-83.28 -8.4,-84.31" fill="none" stroke="rgb(19, 133, 134)" stroke-width="2" stroke-linejoin="round" filter="url(#fuzzy)" /><polyline points="-19.79,-82.7 -18.53,-83.34 -17.06,-83.66 -15.33,-83.83 -13.25,-83.92 -10.85,-83.95 -8.2,-83.92 -5.38,-83.87 -2.41,-83.79 0.7,-83.71 3.94,-83.61 7.23,-83.5 10.42,-83.4 13.38,-83.35 16.18,-83.29" fill="none" stroke="rgb(19, 133, 134)" stroke-width="2" stroke-linejoin="round" filter="url(#fuzzy)" /><polyline points="19.5,-83.04 19.95,-82.7 21.1,-82.02 22.36,-81.23 23.56,-80.45 24.72,-79.65 25.86,-78.85 26.97,-78.04 28,-77.27 28.92,-76.58 29.69,-75.98 30.31,-75.48 30.81,-75.07 31.19,-74.75 31.46,-74.52 31.58,-74.42 31.49,-74.51 31.18,-74.8 30.68,-75.26 30.1,-75.79 29.54,-76.31" fill="none" stroke="rgb(19, 133, 134)" stroke-width="2" stroke-linejoin="round" filter="url(#fuzzy)" /><polyline points="43.74,-60.17 43.56,-60.3 43.92,-59.71 44.37,-58.96 44.73,-58.28 44.95,-57.74 45.02,-57.32 44.96,-57.02 44.76,-56.83 44.41,-56.74 43.89,-56.79 43.19,-57 42.29,-57.41 41.18,-58.07 39.82,-59.02 38.18,-60.29 36.25,-61.89 34.01,-63.81 31.47,-66.05 28.62,-68.63 25.45,-71.56 21.98,-74.83 18.2,-78.44 14.07,-82.39" fill="none" stroke="rgb(19, 133, 134)" stroke-width="2" stroke-linejoin="round" filter="url(#fuzzy)" /><polyline points="-0.84,-87.63 0.39,-87.64 0.66,-87.53 0.68,-87.3 0.65,-86.93 0.54,-86.41 0.23,-85.72 -0.4,-84.88 -1.43,-83.87 -2.89,-82.69 -4.82,-81.33 -7.2,-79.76 -10.06,-77.96 -13.41,-75.94 -17.27,-73.68 -21.63,-71.19 -26.49,-68.49 -31.88,-65.58 -37.86,-62.41" fill="none" stroke="rgb(19, 133, 134)" stroke-width="2" stroke-linejoin="round" filter="url(#fuzzy)" /><polyline points="19.5,-83.04 19.82,-82.74 20.59,-82.15 21.19,-81.51 21.49,-80.88 21.5,-80.25 21.25,-79.58 20.71,-78.88 19.85,-78.15 18.63,-77.43 17.04,-76.71 15.09,-75.98 12.8,-75.21 10.22,-74.35 7.36,-73.39 4.21,-72.34 0.72,-71.21 -3.15,-70.04 -7.47,-68.83 -12.28,-67.6 -17.6,-66.32 -23.43,-64.97 -29.68,-63.58 -36.2,-62.28" fill="none" stroke="rgb(19, 133, 134)" stroke-width="2" stroke-linejoin="round" filter="url(#fuzzy)" /><polyline points="-1.87,-87.82 -2.05,-87.73 -1.03,-87.7 0.02,-87.69 0.86,-87.69 1.6,-87.68 2.35,-87.65 3.12,-87.59 3.87,-87.52 4.53,-87.42 5.02,-87.32 5.32,-87.2 5.41,-87.08 5.28,-86.95 4.93,-86.82 4.33,-86.68 3.48,-86.54 2.38,-86.4 1.02,-86.26 -0.63,-86.13 -2.61,-85.98 -4.99,-85.82 -7.71,-85.65 -10.59,-85.53" fill="none" stroke="rgb(19, 133, 134)" stroke-width="2" stroke-linejoin="round" filter="url(#fuzzy)" /><polyline points="11.18,-86.2 12.28,-85.87 13.57,-85.21 15.03,-84.33 16.67,-83.28 18.45,-82.09 20.33,-80.77 22.26,-79.33 24.23,-77.8 26.23,-76.21 28.26,-74.58 30.31,-72.94 32.34,-71.32 34.26,-69.79 36.01,-68.41 37.56,-67.2 38.9,-66.16" fill="none" stroke="rgb(19, 133, 134)" stroke-width="2" stroke-linejoin="round" filter="url(#fuzzy)" /><polyline points="-33.43,-72.77 -33.01,-73.15 -31.74,-73.79 -30.02,-74.49 -28.04,-75.11 -25.85,-75.64 -23.42,-76.13 -20.74,-76.63 -17.84,-77.15 -14.76,-77.66 -11.55,-78.13 -8.21,-78.55 -4.74,-78.89 -1.13,-79.15 2.61,-79.34 6.42,-79.47 10.2,-79.61 13.88,-79.78 17.35,-80.05 20.61,-80.37" fill="none" stroke="rgb(19, 133, 134)" stroke-width="2" stroke-linejoin="round" filter="url(#fuzzy)" /><polyline points="-9.63,-86.51 -8.62,-86.84 -7.82,-87.01 -6.9,-87.15 -6.07,-87.25 -5.44,-87.29 -5.04,-87.28 -4.86,-87.2 -4.9,-87.05 -5.17,-86.83 -5.71,-86.54 -6.6,-86.16 -7.87,-85.68 -9.53,-85.08 -11.57,-84.37 -14.02,-83.52 -16.97,-82.52 -20.53,-81.31" fill="none" stroke="rgb(19, 133, 134)" stroke-width="2" stroke-linejoin="round" filter="url(#fuzzy)" /><polyline points="13.15,-85.72 14.13,-85.28 15.07,-84.93 16.05,-84.57 17,-84.19 17.88,-83.8 18.68,-83.41 19.42,-83.01 20.13,-82.63 20.78,-82.26 21.34,-81.94 21.78,-81.67 22.07,-81.46 22.17,-81.34 22.06,-81.31 21.71,-81.38 21.08,-81.59 20.15,-81.95 18.92,-82.47 17.41,-83.12 15.66,-83.88 13.67,-84.74 11.46,-85.72" fill="none" stroke="rgb(19, 133, 134)" stroke-width="2" stroke-linejoin="round" filter="url(#fuzzy)" /><polyline points="1.31,-87.71 2.1,-87.7 3.31,-87.63 4.56,-87.51 5.7,-87.37 6.67,-87.23 7.46,-87.1 8.08,-86.96 8.55,-86.82 8.85,-86.7 8.99,-86.58 8.96,-86.48 8.72,-86.39 8.24,-86.32 7.5,-86.29 6.47,-86.29 5.13,-86.33 3.46,-86.4 1.4,-86.52 -1.15,-86.65 -4.45,-86.8" fill="none" stroke="rgb(19, 133, 134)" stroke-width="2" stroke-linejoin="round" filter="url(#fuzzy)" /><polyline points="-16.79,-84.42 -15.35,-84.83 -14.2,-85.08 -12.99,-85.29 -11.62,-85.49 -10.05,-85.69 -8.3,-85.88 -6.46,-86.04 -4.61,-86.18 -2.79,-86.29 -1.02,-86.39 0.7,-86.48 2.33,-86.57 3.82,-86.65 5.11,-86.73 6.16,-86.8 6.93,-86.89 7.38,-87" fill="none" stroke="rgb(19, 133, 134)" stroke-width="2" stroke-linejoin="round" filter="url(#fuzzy)" /><polyline points="7.09,-87.21 8.54,-86.92 9.51,-86.69 10.32,-86.47 11.01,-86.27 11.56,-86.1 11.94,-85.94 12.1,-85.81 11.99,-85.73 11.57,-85.7 10.83,-85.73 9.74,-85.83 8.26,-86 6.27,-86.26 3.65,-86.63 0.58,-87.13" fill="none" stroke="rgb(19, 133, 134)" stroke-width="2" stroke-linejoin="round" filter="url(#fuzzy)" /><polyline points="12.25,-86.06 13,-85.66 13.41,-85.21 13.47,-84.71 13.14,-84.12 12.36,-83.43 11.09,-82.62 9.3,-81.69 7,-80.61 4.19,-79.39 0.86,-78.01 -3.01,-76.51 -7.49,-74.88 -12.64,-73.15 -18.5,-71.27 -25.05,-69.23 -32.25,-67.16" fill="none" stroke="rgb(19, 133, 134)" stroke-width="2" stroke-linejoin="round" filter="url(#fuzzy)" /><polyline points="-5.09,-87.35 -4.44,-87.51 -3.68,-87.57 -3,-87.6 -2.37,-87.58 -1.78,-87.53 -1.31,-87.45 -1.01,-87.32 -0.88,-87.15 -0.88,-86.92 -1.02,-86.62 -1.32,-86.24 -1.83,-85.79 -2.6,-85.26 -3.67,-84.65 -5.05,-83.95 -6.77,-83.16 -8.82,-82.25 -11.19,-81.25 -13.89,-80.18 -16.92,-79.03 -20.32,-77.77 -24.21,-76.34 -28.66,-74.69" fill="none" stroke="rgb(19, 133, 134)" stroke-width="2" stroke-linejoin="round" filter="url(#fuzzy)" /><polyline points="50,-48.72 -3.96,-61.29 -14.02,-69.87 -5.94,-72.39 8.01,-70.52 20.39,-67.17 27.54,-65.14 28.99,-65.61 26.4,-67.97 22.35,-70.61 19.09,-72.15 17.67,-72.12 17.83,-71.08 18.74,-70.09 20.14,-69.93 22.17,-70.7 23.49,-72.34 19.32,-75.48 3.84,-80.33 -22.44,-81.31" fill="none" stroke="rgb(19, 133, 134)" stroke-width="2" stroke-linejoin="round" filter="url(#fuzzy)" /><polyline points="54.44,-37.35 30.23,-66 23.55,-72.68 17.16,-72.28 10.96,-70.04 7.4,-68.6 6.72,-69.02 7.98,-70.85 10.07,-72.98 11.69,-74.54 11.42,-75.26 8.41,-75.3 3.25,-74.9 -1.94,-74.17 -4.52,-73.06 -2.83,-71.31 2.66,-68.56 9.34,-64.92 13.88,-61.85 15.19,-62.31 16.63,-69.18 7.09,-87.21" fill="none" stroke="rgb(19, 133, 134)" stroke-width="2" stroke-linejoin="round" filter="url(#fuzzy)" /><polyline points="33.17,-72.91 36.09,-63.68 22.5,-64.41 7.74,-69.3 -0.16,-74.16 -1.94,-76.82 -0.7,-76.36 1.56,-72.93 4.18,-67.56 6.79,-61.81 8.67,-57.34 8.95,-55.37 7.41,-56.3 5.04,-59.56 3.51,-63.84 3.66,-67.79 4.32,-70.77 3.42,-72.77 1.34,-73.5 3.49,-72.51 15.62,-72.38 21.26,-82.28" fill="none" stroke="rgb(19, 133, 134)" stroke-width="2" stroke-linejoin="round" filter="url(#fuzzy)" /><polyline points="52.23,-43.63 0.67,-63.92 -9.66,-69.59 -3.46,-68.92 2.47,-67.61 2.79,-68.38 0.08,-71.05 -1.47,-73.76 0,-74.51 3.71,-72.39 7.64,-68.25 9.9,-64.39 9.07,-63.25 5.04,-65.43 2.38,-67.58 14.73,-60.82 57.26,-26.42" fill="none" stroke="rgb(19, 133, 134)" stroke-width="2" stroke-linejoin="round" filter="url(#fuzzy)" /><polyline points="51.32,-45.47 24.32,-62.8 11.41,-65.81 6.16,-67.93 0.12,-70.47 -6.7,-71.44 -10.89,-70.11 -10.37,-67.48 -6.26,-65.4 -2.18,-65.36 -1.26,-67.47 -2.73,-70.33 -1.39,-72.35 6.63,-73.55 12.54,-76.01 -11.84,-86.17" fill="none" stroke="rgb(19, 133, 134)" stroke-width="2" stroke-linejoin="round" filter="url(#fuzzy)" /><polyline points="14.43,-85.15 -6.37,-81.35 -4.99,-79.41 -1.08,-77.03 -0.11,-74.75 -1.43,-73.09 -2.68,-71.87 -2.13,-70.61 0.12,-69.3 2.4,-68.57 2.93,-69.2 1.15,-71.35 -2.17,-74.24 -5.89,-76.59 -9.29,-77.66 -11.75,-77.79 -12.12,-77.56 -8.32,-75.46 5.87,-65.74 53.79,-38.97" fill="none" stroke="rgb(19, 133, 134)" stroke-width="2" stroke-linejoin="round" filter="url(#fuzzy)" /><polyline points="24.14,-80.48 3.7,-67.67 15.12,-63.86 21.58,-66.18 19.18,-70.7 12.13,-73.81 4.7,-74.07 -0.75,-72.11 -3.69,-69.6 -4.55,-67.97 -3.84,-67.61 -1.68,-67.87 2.15,-67.63 7.82,-66.08 15.18,-63.18 23.5,-59.67 31.46,-56.65 37.59,-54.97 40.83,-54.94 41.07,-56.26 38.82,-58.4 34.03,-61.58 24.91,-67.75 10.63,-78.75 6.09,-87.29" fill="none" stroke="rgb(19, 133, 134)" stroke-width="2" stroke-linejoin="round" filter="url(#fuzzy)" /><polyline points="-25.99,-79.38 5.22,-76.89 13.99,-74.99 11.25,-76.18 8.57,-76 10.31,-72.5 14.2,-66.71 15.77,-60.95 13.41,-56.97 10.39,-54.92 11.95,-53.78 19.33,-53.09 25.87,-54.57 20.09,-60.85 -4.89,-69.39 -42,-62.93" fill="none" stroke="rgb(19, 133, 134)" stroke-width="2" stroke-linejoin="round" filter="url(#fuzzy)" /><polyline points="-25.99,-79.38 -4.04,-79.21 15.1,-71.45 21.32,-66.08 17.41,-65.62 10.75,-67.81 6.23,-69.9 4.48,-70.63 3.81,-70.1 2.92,-68.95 1.94,-67.66 1.9,-66.53 3.52,-65.88 6.63,-66.1 10.02,-67.65 11.41,-70.93 8.15,-76.05 0.16,-81.9 -6.52,-85.88 -1.87,-87.82" fill="none" stroke="rgb(19, 133, 134)" stroke-width="2" stroke-linejoin="round" filter="url(#fuzzy)" /><polyline points="-42.08,-62.59 -21.49,-71.42 -8.29,-68.68 -0.43,-66.33 -0.01,-65.51 -2.83,-65.01 -4.39,-64.1 -3.34,-63.09 -0.97,-62.82 0.79,-63.98 0.88,-66.66 -0.38,-70.31 -1.84,-74.04 -2.32,-76.93 -1.33,-78.42 0.66,-78.44 2.43,-77.42 2.57,-76.01 0.08,-74.62 -5.27,-73.08 -13.01,-71.02 -21.77,-68.95 -28.3,-69.3 -27.92,-74.75 -25.07,-79.92" fill="none" stroke="rgb(19, 133, 134)" stroke-width="2" stroke-linejoin="round" filter="url(#fuzzy)" /><polyline points="-9.27,-86.86 -5.76,-86.32 -1.26,-85.94 0.55,-83.91 1.74,-79.41 4.24,-73.5 8.3,-68.42 12.62,-65.97 15.65,-66.46 16.72,-68.7 16.01,-71.02 13.93,-72.22 10.74,-72.16 6.7,-71.48 2.61,-71.04 0.15,-71.41 1.66,-72.65 8.59,-74.47 18.84,-76.22 26.81,-76.51 34.99,-71.19" fill="none" stroke="rgb(19, 133, 134)" stroke-width="2" stroke-linejoin="round" filter="url(#fuzzy)" /><polyline points="-36.86,-69.43 -25.06,-64.54 -5.92,-65.62 8.96,-64.65 17.86,-63.31 19.61,-63.95 15.6,-66.6 9.23,-69.93 3.62,-72.76 0.1,-74.53 -1.91,-75.25 -3.79,-75.15 -6.47,-74.55 -9.54,-73.69 -11.54,-72.74 -10.83,-71.79 -6.77,-71 -0.22,-70.75 6.62,-71.57 10.89,-73.55 9.92,-75.62 1.59,-76.11 -15.18,-75.27 -29.93,-75.8" fill="none" stroke="rgb(19, 133, 134)" stroke-width="2" stroke-linejoin="round" filter="url(#fuzzy)" /><polyline points="11.18,-86.2 25.29,-74.82 28.76,-69.91 30.67,-66.93 32.54,-65.17 34.07,-64 34.24,-63.4 32.37,-63.75 28.67,-65.23 24.09,-67.48 19.77,-69.75 16.38,-71.39 13.8,-72.18 11.14,-72.41 7.34,-72.59 1.96,-73.02 -4.05,-73.58 -8.24,-73.62 -7.4,-72.16 0.88,-68.33 16.15,-62.16 32.77,-56.17 39.15,-58.06 23.35,-80.77" fill="none" stroke="rgb(19, 133, 134)" stroke-width="2" stroke-linejoin="round" filter="url(#fuzzy)" /><polyline points="-3.48,-87.7 24.46,-68.75 30.9,-56.81 21.83,-55.13 11.08,-57.91 7.14,-60.89 10.11,-62.82 15.93,-63.88 21.14,-64.29 24.59,-64.09 26.68,-63.6 27.94,-63.66 28.32,-65.16 27.39,-68.37 24.58,-72.55 19.3,-76.53 11.91,-79.5 8.25,-80.32 30.39,-75.7" fill="none" stroke="rgb(19, 133, 134)" stroke-width="2" stroke-linejoin="round" filter="url(#fuzzy)" /><polyline points="7.89,-87.15 30.25,-64.08 23.73,-60.52 10.51,-61.75 2.83,-62.51 2.32,-62.72 6.26,-63.22 11.28,-64.37 14.69,-66.11 14.78,-68 10.89,-69.53 3.34,-70.64 -6.09,-71.92 -13.74,-74.11 -15.78,-77.22 -13.36,-80.52 -24.04,-80.66" fill="none" stroke="rgb(19, 133, 134)" stroke-width="2" stroke-linejoin="round" filter="url(#fuzzy)" /><polyline points="-38.21,-67.45 -11.25,-79.14 5.53,-79.6 14.26,-77.24 15.43,-76.03 12.36,-75.82 9.01,-75.26 8.01,-73.77 10.08,-71.75 14.27,-69.97 18.86,-69 22.36,-68.97 24.03,-69.54 23.82,-70.22 21.98,-70.71 18.89,-71.1 15.22,-71.77 11.96,-72.97 9.86,-74.42 8.41,-75.41 5.72,-75.61 0.86,-76.25 -3.81,-79.63 -17.38,-83.85" fill="none" stroke="rgb(19, 133, 134)" stroke-width="2" stroke-linejoin="round" filter="url(#fuzzy)" /><polyline points="-40.16,-65.35 -17.96,-75.07 -9.12,-74.41 -7.71,-69.09 -6.63,-64.07 -5.73,-62.39 -6.08,-63.98 -6.55,-66.87 -4.38,-68.99 2.49,-69.05 13.68,-66.62 26.37,-62.1 36.63,-56.94 40.98,-53.56 36.83,-54.83 22.67,-62.67 1.36,-75.8 -5.74,-87.31" fill="none" stroke="rgb(19, 133, 134)" stroke-width="2" stroke-linejoin="round" filter="url(#fuzzy)" /><polyline points="16.43,-84.56 26.72,-64.28 23.87,-62 22.59,-63.89 22.77,-66.44 22.93,-67.98 22.06,-68.32 20.31,-67.97 18.58,-67.29 17.41,-66.4 16.51,-65.49 15.21,-64.92 13.17,-65.2 10.68,-66.69 8.4,-69.32 6.81,-72.48 5.89,-75.36 5.35,-77.41 5.22,-78.72 6.16,-79.74 8.86,-80.42 13.36,-79.51 21.3,-73.9 46.89,-54.81" fill="none" stroke="rgb(19, 133, 134)" stroke-width="2" stroke-linejoin="round" filter="url(#fuzzy)" /><polyline points="53.79,-38.91 8.16,-58.72 5,-68.25 6.66,-72.68 6.99,-75.36 5.95,-76.97 3.29,-77.4 -0.58,-76.73 -4.15,-75.45 -5.74,-74.24 -4.66,-73.6 -1.47,-73.55 2.61,-73.69 6.29,-73.57 8.42,-73.09 8.04,-72.58 4.63,-72.41 -1.29,-72.62 -7.91,-72.89 -12.66,-72.94 -13.57,-72.75 -9.97,-72.3 -2.37,-71.12 3.62,-70.07 -24.56,-79.9" fill="none" stroke="rgb(19, 133, 134)" stroke-width="2" stroke-linejoin="round" filter="url(#fuzzy)" /><polyline points="6.09,-87.29 1.54,-78.73 -6.52,-75.1 -8.41,-75.99 -7.88,-77.5 -6.22,-78.51 -3.55,-79.25 -0.5,-79.84 2.11,-80.02 3.44,-79.54 2.12,-78.49 -3.48,-77.32 -13.05,-76.58 -22.57,-76.59 -26.71,-77.45 -22.44,-81.31" fill="none" stroke="rgb(19, 133, 134)" stroke-width="2" stroke-linejoin="round" filter="url(#fuzzy)" /><polyline points="-9.63,-86.51 10.47,-70.8 10.02,-63.53 6.74,-61.66 5.31,-62.84 8.48,-64.18 14.99,-65 21.17,-66.31 24.27,-68.88 24.09,-72.17 22.2,-74.75 20.29,-75.46 18.59,-74.25 15.17,-72.45 6.99,-71.8 -5.42,-72.84 -10.03,-74.74 21.26,-82.28" fill="none" stroke="rgb(19, 133, 134)" stroke-width="2" stroke-linejoin="round" filter="url(#fuzzy)" /><polyline points="-12.64,-85.9 -18.05,-78.48 -7.15,-72.46 7.74,-69.33 19.63,-67.48 27.06,-65.9 30.24,-64.89 29.71,-65.15 26.2,-66.83 20.62,-69.36 14.1,-71.78 7.94,-73.24 3.56,-73.33 2.03,-72.08 3.49,-69.86 7.03,-67.31 11.3,-65.11 15.47,-63.79 19.25,-63.47 21.58,-63.94 19.56,-64.74 11.51,-64.24 7.77,-58.28 51.32,-45.47" fill="none" stroke="rgb(19, 133, 134)" stroke-width="2" stroke-linejoin="round" filter="url(#fuzzy)" /><polyline points="-18.6,-83.67 9.2,-60.99 9.4,-58.61 8.96,-60.83 10.08,-63.26 11.37,-65.37 11.91,-67.84 12.07,-70.86 12.59,-73.85 13.68,-76.04 14.84,-77.03 15.54,-76.77 15.71,-75.34 15.73,-72.87 15.97,-69.7 16.46,-66.5 17.07,-64.03 17.68,-62.8 18.36,-62.93 19.75,-64.34 23.75,-66.4 32.18,-66.06 48.47,-51.79" fill="none" stroke="rgb(19, 133, 134)" stroke-width="2" stroke-linejoin="round" filter="url(#fuzzy)" /><polyline points="24.19,-80.38 15.38,-80.3 1.6,-80.08 -6.65,-76.45 -6.79,-70.13 -1.55,-63.64 3.27,-59.48 3.74,-58.63 0.68,-60.03 -1.45,-61.41 1.75,-60.72 11.47,-57.33 24.95,-52.36 37.37,-47.92 44.8,-45.68 45.54,-45.83 38.06,-47.93 14.94,-53.17 -44.28,-59.17" fill="none" stroke="rgb(19, 133, 134)" stroke-width="2" stroke-linejoin="round" filter="url(#fuzzy)" /><polyline points="57.3,-26.36 2.03,-52.87 -5.82,-62.37 0.11,-69.09 6.09,-74.9 10.27,-78.58 13.71,-79.41 16.74,-77.75 18.75,-74.61 18.93,-71.24 16.63,-68.8 11.47,-68 3.7,-68.77 -5.06,-70.13 -11.38,-70.54 -11.1,-68.89 -1.81,-65.3 14.24,-61 30.86,-54.82 57.3,-26.36" fill="none" stroke="rgb(19, 133, 134)" stroke-width="2" stroke-linejoin="round" filter="url(#fuzzy)" /><polyline points="-24.04,-80.66 -32.12,-71.3 -24.18,-71.02 -10.49,-72.24 -0.01,-73 3.88,-73.46 2.64,-74.11 -0.3,-75.07 -2.27,-75.96 -2.96,-76.23 -3.64,-75.75 -4.91,-75.15 -5.59,-75.61 -4.55,-78.09 -3.51,-82.24 -4.21,-85.95 1.5,-87.74" fill="none" stroke="rgb(19, 133, 134)" stroke-width="2" stroke-linejoin="round" filter="url(#fuzzy)" /><polyline points="-46.91,-54.55 -30.71,-71.02 -23.35,-76.98 -16.68,-79.43 -8.96,-79.04 0.08,-76.25 9.59,-72.23 17.96,-68.65 23.6,-66.99 25.53,-67.79 23.64,-70.41 18.53,-73.49 11.02,-75.77 1.96,-76.63 -7.78,-76.07 -17.02,-74.35 -24.13,-71.59 -26.85,-67.84 -21.97,-63.25 -5.69,-58.47 21.98,-56.58 37.2,-68.82" fill="none" stroke="rgb(19, 133, 134)" stroke-width="2" stroke-linejoin="round" filter="url(#fuzzy)" /><polyline points="-35.8,-70.46 -24.34,-69.9 -4.52,-68.21 3.43,-66.08 -0.08,-64.87 -6.15,-64.29 -8.17,-64.1 -4.99,-64.53 1.28,-65.77 8.23,-67.59 14.57,-69.25 19.7,-70.07 23.04,-69.95 23.76,-69.49 20.69,-69.46 12.42,-70.05 0,-70.21 -4.96,-68.66 32.9,-73.21" fill="none" stroke="rgb(19, 133, 134)" stroke-width="2" stroke-linejoin="round" filter="url(#fuzzy)" /><polyline points="-20.86,-82.14 -19.18,-79.05 -18.01,-74.48 -11.08,-71.34 -2.39,-69.45 3.85,-69.55 6.64,-71.2 8.01,-72.86 10.4,-73.49 14.44,-73.35 18.89,-73.48 22.33,-74.43 24.51,-75.73 25.97,-76.4 26.42,-76.4 23.82,-77.44 16.16,-81.89 9.23,-86.79" fill="none" stroke="rgb(19, 133, 134)" stroke-width="2" stroke-linejoin="round" filter="url(#fuzzy)" /><polyline points="-14.95,-84.96 14.69,-75.41 17.78,-73.15 15.72,-72.9 15.86,-72.51 16.73,-72.7 16.11,-73.88 13.99,-75.31 12.09,-76.02 12.19,-75.76 14.73,-75 18.39,-74.34 20.78,-73.93 19.86,-73.44 14.96,-72.07 3.96,-69 -36.86,-69.43" fill="none" stroke="rgb(19, 133, 134)" stroke-width="2" stroke-linejoin="round" filter="url(#fuzzy)" /><polyline points="31.5,-74.45 -5.97,-73.88 -7.97,-74 3.05,-74.22 12.14,-73.44 13.58,-71.97 8.58,-70.42 2.15,-69.06 -0.87,-68.03 1.16,-67.59 5.92,-68.08 9.04,-69.64 7.43,-71.98 1.81,-74.59 -3.58,-77.13 -4.6,-79.51 -2.92,-81.17 -9.15,-79.93 -35.8,-70.46" fill="none" stroke="rgb(19, 133, 134)" stroke-width="2" stroke-linejoin="round" filter="url(#fuzzy)" /><polyline points="52.23,-43.63 7.51,-69.13 -6.84,-78.31 -8.57,-80.12 -3.97,-77.73 4.17,-73.64 12.5,-70.11 17.88,-68.58 19.11,-69.28 17.14,-71.43 14.06,-73.84 11.84,-75.51 11.68,-75.95 13.86,-75.18 18.02,-73.42 23.24,-70.88 27.97,-67.94 29.78,-65.98 26.04,-67.55 19.73,-72.58 37.2,-68.82" fill="none" stroke="rgb(19, 133, 134)" stroke-width="2" stroke-linejoin="round" filter="url(#fuzzy)" /><polyline points="59.41,-12.56 59.77,-12.85 60.54,-12.24 61.11,-11.09 61.41,-9.57 61.65,-7.94 62,-6.38 62.52,-4.91 63.27,-3.49 64.28,-2.03 65.53,-0.53 66.89,1.01 68.12,2.54 69.04,4.05 69.65,5.54 70.16,7.03 70.88,8.53 71.95,10.07 73.08,11.72 73.89,13.56 75.26,15.47" fill="none" stroke="rgb(19, 133, 134)" stroke-width="2" stroke-linejoin="round" filter="url(#fuzzy)" /><polyline points="-3.48,-87.7 -1.31,-87.02 0.03,-86.85 0.83,-86.47 1.47,-85.95 2.2,-85.41 3.07,-84.92 4.05,-84.46 5.06,-83.98 6.02,-83.43 6.89,-82.77 7.68,-82 8.43,-81.23 9.18,-80.6 9.93,-80.21 10.67,-79.97 11.36,-79.49 12.03,-78.46" fill="none" stroke="rgb(19, 133, 134)" stroke-width="2" stroke-linejoin="round" filter="url(#fuzzy)" /><polyline points="-1.87,-87.82 -3.25,-88.66 -4.43,-90.42 -5.6,-92.44 -6.78,-94.12 -7.9,-95.06 -8.92,-95.26 -9.9,-95.1 -10.93,-95.08 -12.06,-95.6 -13.29,-96.77 -14.56,-98.48 -15.86,-100.5 -17.14,-102.55 -18.4,-104.35 -19.59,-105.63 -20.71,-106.27 -21.77,-106.43 -22.89,-106.57 -24.25,-107.14 -25.98,-108.34 -28.1,-110.65 -3.43,-87.43 -2.81,-94.39 -2.15,-93.6 -1.19,-91.84 -0.2,-91 0.68,-91.15 1.48,-91.92 2.35,-93.06 3.38,-94.53 4.59,-96.42 5.92,-98.69 7.27,-101.16 8.57,-103.53 9.79,-105.63 11.02,-107.61 12.43,-109.89 14.29,-111.75 -4.65,-87.68 -3.57,-87.73 -2.78,-88.38 -1.96,-89.78 -1.05,-91.6 -0.13,-93.07 0.72,-93.63 1.53,-93.26 2.39,-92.41 3.34,-91.61 4.4,-91.27 5.54,-91.58 6.72,-92.51 7.9,-93.9 9.04,-95.45 10.15,-96.82 11.21,-97.78 12.25,-98.32 13.28,-98.64 14.34,-98.98 15.45,-99.46 16.53,-100.28 17.31,-102.17" fill="none" stroke="rgb(19, 133, 134)" stroke-width="2" stroke-linejoin="round" filter="url(#fuzzy)" /><polyline points="10.7,-82.52 10.17,-82.78 9.41,-83.49 8.62,-84.1 7.81,-84.53 6.95,-84.82 6,-85.03 4.99,-85.21 3.96,-85.4 2.99,-85.58 2.11,-85.75 1.31,-85.94 0.53,-86.2 -0.28,-86.54 -1.15,-86.91 -2.02,-87.22 -2.83,-87.38 -3.61,-87.39 -4.42,-87.34 -5.09,-87.35" fill="none" stroke="rgb(19, 133, 134)" stroke-width="2" stroke-linejoin="round" filter="url(#fuzzy)" /><polyline points="-25.99,-79.38 -25.23,-79.77 -24.51,-80.17 -23.7,-80.65 -22.8,-81.17 -21.88,-81.68 -20.95,-82.18 -20.03,-82.67 -19.14,-83.12 -18.27,-83.55 -17.45,-83.94 -16.65,-84.3 -15.87,-84.63 -15.1,-84.93 -14.35,-85.21 -13.6,-85.49 -12.82,-85.76 -11.97,-86.03 -11.04,-86.3 -10.09,-86.55 -9.27,-86.75 -8.82,-86.87 -9.27,-86.86" fill="none" stroke="rgb(19, 133, 134)" stroke-width="2" stroke-linejoin="round" filter="url(#fuzzy)" /><polyline points="-7.82,-87.08 -7.96,-88.92 -6.98,-90.77 -5.92,-92.13 -4.95,-92.8 -4.04,-92.76 -3.16,-92.24 -2.27,-91.64 -1.34,-91.35 -0.43,-91.61 0.45,-92.45 1.29,-93.77 2.17,-95.35 3.16,-96.96 4.34,-98.46 5.71,-99.9 7.13,-101.4 8.27,-102.53 8.31,-102.17" fill="none" stroke="rgb(19, 133, 134)" stroke-width="2" stroke-linejoin="round" filter="url(#fuzzy)" /><polyline points="-7.82,-87.08 -7.84,-87.5 -6.78,-87.99 -5.68,-88.49 -4.71,-89.12 -3.84,-89.96 -3,-91.07 -2.14,-92.47 -1.24,-94.24 -0.32,-96.29 0.59,-98.36 1.48,-100.04 2.42,-100.99 3.43,-101.16 4.56,-100.87 5.8,-100.68 7.08,-101.08 8.35,-102.21 9.55,-103.75 10.73,-105.22 12.06,-106.79 13.98,-109.27" fill="none" stroke="rgb(19, 133, 134)" stroke-width="2" stroke-linejoin="round" filter="url(#fuzzy)" /><polyline points="59.11,-15.07 64.23,-17.27 63.76,-18.52 63.22,-19.91 63.56,-21.54 64.34,-23.29 65.22,-25.08 66.23,-26.96 67.51,-28.94 68.89,-30.96 69.96,-32.89 70.37,-34.65 70.36,-36.36 70.81,-38.39 72.69,-41.14 76.04,-44.15" fill="none" stroke="rgb(19, 133, 134)" stroke-width="2" stroke-linejoin="round" filter="url(#fuzzy)" /><polyline points="-9.63,-86.51 -8.55,-86.06 -7.61,-84.99 -6.53,-84.44 -5.5,-84.55 -4.57,-84.92 -3.71,-85.21 -2.89,-85.22 -2.07,-84.81 -1.24,-83.93 -0.43,-82.68 0.35,-81.29 1.13,-80.06 1.92,-79.22 2.76,-78.86 3.67,-78.87 4.6,-79 5.52,-78.94 6.36,-78.45 7.11,-77.5 7.79,-76.28 8.44,-75.06 9.07,-73.96 9.62,-72.71 10.12,-71.07" fill="none" stroke="rgb(19, 133, 134)" stroke-width="2" stroke-linejoin="round" filter="url(#fuzzy)" /><polyline points="-9.12,-86.97 -9.05,-86.93 -8.52,-87.14 -7.72,-87.39 -6.76,-87.67 -5.77,-87.96 -4.81,-88.25 -3.91,-88.53 -3.05,-88.84 -2.18,-89.16 -1.31,-89.5 -0.44,-89.82 0.41,-90.11 1.25,-90.35 2.11,-90.53 3.04,-90.66 4.07,-90.75 5.19,-90.83 6.32,-90.94 7.39,-91.1 8.33,-91.28 9.18,-91.47 9.75,-91.92" fill="none" stroke="rgb(19, 133, 134)" stroke-width="2" stroke-linejoin="round" filter="url(#fuzzy)" /><polyline points="-40.99,-105.2 -38.33,-104.13 -36.29,-103.76 -34.45,-103.04 -32.77,-102.17 -31.26,-101.42 -29.79,-100.71 -28.28,-99.82 -26.72,-98.68 -25.14,-97.42 -23.62,-96.27 -22.23,-95.42 -21.01,-95.01 -19.95,-95.07 -19.01,-95.45 -18.13,-95.89 -17.23,-96.05 -16.26,-95.55 -15.19,-94.08 -13.99,-91.57 -12.66,-88.71 -11.17,-87.05 -9.12,-86.97 -11.84,-86.17 -12.5,-85.52 -12.93,-84.24 -13.31,-82.69 -13.74,-81.19 -14.25,-79.89 -14.82,-78.82 -15.43,-77.94 -16.07,-77.17 -16.74,-76.45 -17.43,-75.69 -18.11,-74.79 -18.74,-73.63 -19.28,-72.15 -19.74,-70.38 -20.14,-68.55 -20.45,-66.91 -20.45,-65.2" fill="none" stroke="rgb(19, 133, 134)" stroke-width="2" stroke-linejoin="round" filter="url(#fuzzy)" /><polyline points="-12.64,-85.9 -13.75,-88.86 -14.68,-90.93 -15.42,-90.82 -16.16,-90.1 -16.97,-89.57 -17.85,-89.3 -18.77,-89.16 -19.75,-89.08 -20.8,-89.08 -21.95,-89.24 -23.22,-89.68 -24.64,-90.58 -26.24,-92.02 -27.97,-93.87 -29.76,-95.84 -31.53,-97.54 -33.27,-98.79 -35.01,-99.64 -36.72,-100.28 -38.19,-100.62 -39.1,-100.54 -39.97,-101.22 -13.26,-85.64 -14.34,-84.78 -15.16,-84.22 -15.86,-83.34 -16.48,-82.21 -17.1,-81.06 -17.79,-80.1 -18.58,-79.38 -19.45,-78.87 -20.35,-78.45 -21.24,-78.03 -22.09,-77.52 -22.87,-76.87 -23.59,-76.04 -24.26,-75.02 -24.89,-73.86 -25.51,-72.66 -26.13,-71.52 -26.73,-70.5 -27.31,-69.6 -27.89,-68.69 -28.51,-67.6 -29.19,-66.19 -29.75,-64.66" fill="none" stroke="rgb(19, 133, 134)" stroke-width="2" stroke-linejoin="round" filter="url(#fuzzy)" /><polyline points="-0.69,-72.31 -1.86,-73.44 -2.38,-74.16 -2.97,-75.01 -3.7,-75.86 -4.53,-76.55 -5.44,-77.18 -6.38,-77.98 -7.32,-79.1 -8.25,-80.43 -9.19,-81.65 -10.13,-82.38 -11.06,-82.53 -11.94,-82.36 -12.74,-82.45 -13.58,-83.32 -14.95,-84.96" fill="none" stroke="rgb(19, 133, 134)" stroke-width="2" stroke-linejoin="round" filter="url(#fuzzy)" /><polyline points="-34.52,-82.89 -33.28,-82.99 -32.41,-82.98 -31.43,-82.83 -30.28,-82.68 -29.07,-82.66 -27.93,-82.83 -26.89,-83.16 -25.93,-83.57 -24.99,-83.97 -24.02,-84.29 -23,-84.5 -21.96,-84.65 -20.92,-84.79 -19.9,-84.96 -18.93,-85.14 -18.03,-85.29 -17.18,-85.4 -16.34,-85.54 -15.5,-85.6 -14.95,-84.96" fill="none" stroke="rgb(19, 133, 134)" stroke-width="2" stroke-linejoin="round" filter="url(#fuzzy)" /><polyline points="-17.17,-84.17 -17.74,-84.05 -18.71,-84 -19.8,-84 -20.91,-84.04 -22.02,-84.09 -23.11,-84.1 -24.16,-84 -25.15,-83.76 -26.11,-83.4 -27.07,-82.97 -28.04,-82.51 -29.05,-82.08 -30.1,-81.79 -31.22,-81.72 -32.42,-81.89 -33.7,-82.2 -35.01,-82.46 -36.27,-82.53 -37.42,-82.41 -38.48,-82.16 -39.57,-81.66 -41.06,-80.8" fill="none" stroke="rgb(19, 133, 134)" stroke-width="2" stroke-linejoin="round" filter="url(#fuzzy)" /><polyline points="-1.74,-81.62 -2.96,-81.52 -3.96,-81.84 -4.92,-82.15 -5.91,-82.44 -6.88,-82.77 -7.8,-83.15 -8.68,-83.53 -9.56,-83.84 -10.48,-84.06 -11.4,-84.19 -12.29,-84.24 -13.09,-84.25 -13.83,-84.2 -14.56,-84.06 -15.35,-83.78 -16.23,-83.45 -17.17,-84.17" fill="none" stroke="rgb(19, 133, 134)" stroke-width="2" stroke-linejoin="round" filter="url(#fuzzy)" /><polyline points="-24.1,-62.15 -24.61,-64.54 -24.5,-66.89 -24.24,-69.25 -23.77,-70.9 -23.1,-71.7 -22.34,-72.13 -21.66,-72.88 -21.13,-74.28 -20.69,-76.16 -20.23,-78.03 -19.63,-79.48 -18.88,-80.54 -18.11,-81.65 -17.5,-83.1 -17.17,-84.17" fill="none" stroke="rgb(19, 133, 134)" stroke-width="2" stroke-linejoin="round" filter="url(#fuzzy)" /><polyline points="59.01,-15.51 59.24,-14.7 59.7,-13.87 60.42,-13.15 61.43,-12.34 62.68,-11.29 64.01,-9.98 65.18,-8.52 66.01,-7.01 66.53,-5.52 67,-4.05 67.61,-2.54 68.4,-0.98 69.16,0.63 69.67,2.2 69.99,3.69 70.5,5.21 70.93,6.78" fill="none" stroke="rgb(19, 133, 134)" stroke-width="2" stroke-linejoin="round" filter="url(#fuzzy)" /><polyline points="-36.66,-76.6 -35.79,-76.93 -35.13,-77.48 -34.29,-78.09 -33.31,-78.61 -32.29,-78.94 -31.26,-79.1 -30.23,-79.18 -29.2,-79.34 -28.18,-79.62 -27.2,-80.04 -26.26,-80.53 -25.36,-81.04 -24.48,-81.54 -23.58,-82.01 -22.66,-82.46 -21.71,-82.86 -20.73,-83.24 -19.72,-83.62 -18.61,-83.86 -17.38,-83.85" fill="none" stroke="rgb(19, 133, 134)" stroke-width="2" stroke-linejoin="round" filter="url(#fuzzy)" /><polyline points="-29.63,-55.82 -30.18,-58.32 -30.06,-59.9 -29.69,-61.13 -29.26,-62.24 -28.76,-63.21 -28.15,-63.95 -27.43,-64.5 -26.69,-65.01 -26.02,-65.73 -25.49,-66.8 -25.06,-68.23 -24.68,-69.89 -24.29,-71.59 -23.84,-73.17 -23.33,-74.58 -22.77,-75.88 -22.17,-77.14 -21.52,-78.37 -20.81,-79.44 -20,-80.27 -19.12,-81.06 -18.25,-82.34 -17.38,-83.85" fill="none" stroke="rgb(19, 133, 134)" stroke-width="2" stroke-linejoin="round" filter="url(#fuzzy)" /><polyline points="-43.78,-86.16 -41.64,-85.87 -40.39,-86.19 -39.32,-86.5 -38.01,-86.34 -36.48,-85.76 -34.91,-84.98 -33.42,-84.27 -32.09,-83.82 -30.88,-83.71 -29.75,-83.88 -28.68,-84.2 -27.64,-84.56 -26.63,-84.88 -25.64,-85.18 -24.64,-85.45 -23.59,-85.56 -22.45,-85.34 -21.21,-84.7 -19.91,-83.89 -18.6,-83.67" fill="none" stroke="rgb(19, 133, 134)" stroke-width="2" stroke-linejoin="round" filter="url(#fuzzy)" /><polyline points="-19.79,-82.7 -20.54,-81.72 -21.11,-80.18 -21.81,-78.94 -22.62,-78.17 -23.45,-77.64 -24.26,-77.08 -25.02,-76.32 -25.71,-75.31 -26.32,-74.08 -26.85,-72.73 -27.34,-71.36 -27.83,-70.08 -28.38,-68.97 -29,-68.04 -29.65,-67.2 -30.27,-66.34 -30.81,-65.36 -31.27,-64.25 -31.69,-63.05 -32.06,-61.85 -32.35,-60.65 -32.47,-59.34 -32.27,-58.04 -27.89,-60.7 -28.04,-61.84 -27.94,-63.63 -27.69,-65.54 -27.46,-67.41 -27.24,-69.16 -26.92,-70.63 -26.4,-71.75 -25.71,-72.61 -24.95,-73.41 -24.22,-74.25 -23.54,-75.13 -22.86,-75.98 -22.16,-76.87 -21.51,-78.13 -21,-79.94 -20.54,-81.77 -19.79,-82.7 -21.46,-82.11 -20.67,-82.12 -19.68,-82.23 -18.66,-82.27 -17.74,-82.38 -16.91,-82.6 -16.14,-82.9 -15.38,-83.22 -14.63,-83.5 -13.87,-83.71 -13.09,-83.85 -12.28,-83.92 -11.41,-83.93 -10.52,-83.91 -9.62,-83.86 -8.73,-83.76 -7.82,-83.59 -6.9,-83.32 -5.94,-82.97 -4.99,-82.6 -4.08,-82.3 -3.29,-82.14 -2.65,-82.02 -2.07,-81.78 -0.78,-81.45" fill="none" stroke="rgb(19, 133, 134)" stroke-width="2" stroke-linejoin="round" filter="url(#fuzzy)" /><polyline points="-21.46,-82.11 -22.52,-81.43 -23.52,-80.87 -24.39,-80.39 -25.21,-79.88 -26.06,-79.31 -26.94,-78.69 -27.83,-78.05 -28.7,-77.42 -29.52,-76.81 -30.32,-76.18 -31.11,-75.52 -31.9,-74.81 -32.69,-74.07 -33.47,-73.33 -34.24,-72.6 -35.01,-71.87 -35.79,-71.15 -36.55,-70.44 -37.29,-69.75 -38.1,-68.92 -6.6,-100.38 -8.7,-98.49 -9.52,-97.11 -10.26,-96.22 -11.14,-95.62 -12.1,-94.99 -13,-94.1 -13.8,-93.02 -14.52,-91.91 -15.23,-90.96 -15.96,-90.25 -16.76,-89.78 -17.6,-89.51 -18.5,-89.37 -19.42,-89.21 -20.34,-88.83 -21.18,-87.99 -21.9,-86.55 -22.49,-84.54 -23.08,-82.41 -23.82,-80.81 -24.56,-79.9 -38.21,-73.85 -37.47,-74.46 -36.5,-75.08 -35.53,-75.5 -34.59,-75.81 -33.62,-76.11 -32.6,-76.38 -31.58,-76.61 -30.63,-76.85 -29.74,-77.14 -28.89,-77.57 -28.01,-78.2 -27.1,-79 -26.2,-79.8 -25.35,-80.25 -24.56,-79.9 -25.07,-79.92 -26.07,-79.48 -27.2,-79.06 -28.36,-78.79 -29.44,-78.67 -30.42,-78.58 -31.35,-78.4 -32.31,-78.11 -33.3,-77.75 -34.3,-77.4 -35.28,-77.03 -36.22,-76.6 -37.12,-76.07 -38.01,-75.46 -38.88,-74.85 -39.79,-74.38 -40.99,-74.15" fill="none" stroke="rgb(19, 133, 134)" stroke-width="2" stroke-linejoin="round" filter="url(#fuzzy)" /><polyline points="58.93,-17.18 59.76,-16.07 60.88,-15.22 61.84,-14.47 62.6,-13.7 63.47,-12.81 64.7,-11.73 66.14,-10.43 67.41,-8.96 68.24,-7.41 68.7,-5.87 69.15,-4.38 69.97,-2.85 71.25,-1.19 72.89,0.6 74.78,2.23 76.7,3.2" fill="none" stroke="rgb(19, 133, 134)" stroke-width="2" stroke-linejoin="round" filter="url(#fuzzy)" /><polyline points="-27.02,-78.3 -26.11,-79.12 -25.31,-79.66 -24.53,-80.14 -23.7,-80.64 -22.82,-81.15 -21.9,-81.66 -20.98,-82.16 -20.06,-82.65 -19.17,-83.1 -18.3,-83.53 -17.47,-83.93 -16.67,-84.29 -15.89,-84.62 -15.12,-84.92 -14.36,-85.21 -13.61,-85.48 -12.83,-85.75 -11.98,-86.03 -11.05,-86.3 -10.1,-86.55 -9.28,-86.75 -8.82,-86.87 -9.27,-86.86 -29.93,-75.8 -29.63,-76.16 -29.09,-76.57 -28.29,-77.13 -27.34,-77.73 -26.38,-78.25 -25.46,-78.67 -24.58,-79.05 -23.73,-79.45 -22.88,-79.89 -21.99,-80.32 -21.06,-80.67 -20.11,-80.92 -19.11,-81.14 -18.04,-81.39 -16.86,-81.36 68.81,-49.77 68.55,-47.86 67.53,-45.58 66.54,-42.95 66,-40.45 65.72,-38.19 65.29,-36.05 64.52,-33.91 63.56,-31.82 62.83,-29.93 62.73,-28.44 63.45,-27.37 64.79,-26.55 65.9,-25.59 65.34,-24 62.12,-21.62 58.5,-19.08" fill="none" stroke="rgb(19, 133, 134)" stroke-width="2" stroke-linejoin="round" filter="url(#fuzzy)" /><polyline points="-14.35,-82.72 -15.77,-82.52 -16.62,-82.32 -17.39,-82.01 -18.21,-81.62 -19.1,-81.21 -20.03,-80.82 -20.97,-80.45 -21.91,-80.09 -22.83,-79.72 -23.73,-79.29 -24.6,-78.79 -25.45,-78.21 -26.31,-77.57 -27.16,-76.92 -28.02,-76.3 -28.86,-75.73 -29.7,-75.21 -30.56,-74.71 -31.43,-74.18 -32.31,-73.61 -33.12,-73 -33.88,-72.37 -34.69,-71.6 -35.8,-70.46 -38.21,-67.45 -37.85,-67.89 -37.36,-68.32 -36.75,-68.8 -35.99,-69.21 -35.09,-69.49 -34.12,-69.67 -33.12,-69.8 -32.13,-69.92 -31.12,-70.01 -30.1,-70.08 -29.12,-70.2 -28.23,-70.44 -27.45,-70.83 -26.69,-71.3 -25.84,-71.76 -24.84,-72.13 -23.73,-72.31 -22.56,-71.93" fill="none" stroke="rgb(19, 133, 134)" stroke-width="2" stroke-linejoin="round" filter="url(#fuzzy)" /><polyline points="-38.21,-67.45 -41.8,-70.64 -42.84,-70.4 -43.53,-69.41 -44.68,-68.97 -46.1,-68.99 -47.41,-68.95 -48.48,-68.59 -49.39,-67.91 -50.25,-67 -51.16,-65.99 -52.24,-65.12 -53.68,-64.72 -55.54,-64.91 -57.58,-65.25 -59.52,-64.96 -62.41,-65 -39.75,-65.92 -42.64,-69.78 -43.77,-69.73 -44.12,-68.08 -44.35,-66.31 -44.87,-65.09 -45.78,-64.46 -46.98,-64.16 -48.27,-63.86 -49.52,-63.39 -50.65,-62.73 -51.66,-61.94 -52.6,-61.1 -53.51,-60.28 -54.42,-59.51 -55.34,-58.79 -56.23,-58.07 -57.12,-57.24 -58.01,-56.21 -58.97,-54.8 -60.2,-52.39" fill="none" stroke="rgb(19, 133, 134)" stroke-width="2" stroke-linejoin="round" filter="url(#fuzzy)" /><polyline points="-39.75,-65.92 -38.75,-67.17 -38.29,-68.23 -38.1,-69.56 -38.19,-71.52 -38.51,-74.15 -38.92,-77.21 -39.25,-80.28 -39.41,-83.14 -39.43,-85.84 -39.38,-88.62 -39.31,-91.59 -39.16,-94.51 -38.88,-96.93 -38.58,-98.89 -38.63,-101.61 -39.03,-106.84" fill="none" stroke="rgb(19, 133, 134)" stroke-width="2" stroke-linejoin="round" filter="url(#fuzzy)" /><polyline points="-40.16,-65.35 -41.42,-63.61 -42.16,-62.61 -42.76,-61.84 -43.39,-61.13 -44.11,-60.4 -44.92,-59.59 -45.78,-58.72 -46.6,-57.8 -47.33,-56.84 -47.95,-55.84 -48.55,-54.84 -49.18,-53.9 -49.87,-53.18 -50.5,-52.72 -51,-51.95" fill="none" stroke="rgb(19, 133, 134)" stroke-width="2" stroke-linejoin="round" filter="url(#fuzzy)" /><polyline points="-42.08,-62.59 -43.22,-63.63 -44.48,-64.06 -46.05,-64.64 -47.73,-65.07 -49.28,-65.05 -50.54,-64.52 -51.43,-63.52 -52.03,-62.24 -52.5,-60.86 -53.01,-59.59 -53.69,-58.56 -54.58,-57.81 -55.73,-57.3 -57.13,-56.94 -58.78,-56.59 -60.53,-56.03 -62.11,-55.06 -62.93,-53.92" fill="none" stroke="rgb(19, 133, 134)" stroke-width="2" stroke-linejoin="round" filter="url(#fuzzy)" /><polyline points="-42,-62.93 -41.68,-63.62 -40.92,-64.62 -40.2,-65.53 -39.54,-66.35 -38.94,-67.14 -38.37,-67.92 -37.82,-68.71 -37.28,-69.53 -36.72,-70.39 -36.13,-71.31 -35.52,-72.27 -34.9,-73.26 -34.25,-74.26 -33.56,-75.24 -32.84,-76.2 -32.08,-77.09 -31.33,-77.89 -30.62,-78.58 -29.93,-79.22 -29.1,-80.05 -28.08,-81.37 -42.59,-61.65 -44.21,-60.59 -45.99,-60.49 -47.37,-60.03 -48.24,-59.06 -48.87,-57.92 -49.55,-56.91 -50.34,-56.07 -51.21,-55.33 -52.08,-54.58 -52.92,-53.75 -53.72,-52.77 -54.5,-51.67 -55.3,-50.49 -56.16,-49.33 -57.1,-48.25 -58.08,-47.24 -59.02,-46.25 -59.88,-45.23 -60.69,-44.18 -61.5,-43.19 -62.37,-42.36 -63.25,-41.73 -63.98,-41.2 -64.69,-41.1" fill="none" stroke="rgb(19, 133, 134)" stroke-width="2" stroke-linejoin="round" filter="url(#fuzzy)" /><polyline points="-44.3,-59.42 -44.65,-58.6 -45.29,-57.32 -45.87,-56.07 -46.37,-54.91 -46.84,-53.8 -47.31,-52.74 -47.8,-51.72 -48.29,-50.7 -48.79,-49.66 -49.3,-48.54 -49.81,-47.33 -50.32,-46.04 -50.8,-44.73 -51.26,-43.43 -51.69,-42.17 -52.08,-40.95 -52.45,-39.73 -52.81,-38.51 -53.19,-37.34 -53.55,-36.36 -53.54,-36.18 -44.28,-59.17 -45.12,-57.14 -45.48,-55.42 -45.75,-54.02 -46.13,-52.87 -46.63,-51.87 -47.16,-50.92 -47.65,-49.93 -48.1,-48.86 -48.53,-47.68 -48.9,-46.37 -49.17,-44.93 -49.27,-43.35 -49.15,-41.65 -48.84,-39.87 -48.41,-38.07 -47.97,-36.34 -47.62,-34.74 -47.39,-33.33 -47.26,-32.13 -47.19,-31.15 -47.2,-30.4 -47.48,-30.17 -70.38,-47.56 -69.54,-47.22 -68.73,-48.23 -67.62,-49.24 -66.28,-50.07 -64.81,-50.77 -63.29,-51.42 -61.76,-52.06 -60.18,-52.69 -58.53,-53.25 -56.81,-53.69 -55.07,-53.97 -53.38,-54.09 -51.82,-54.19 -50.53,-54.48 -49.73,-55.29 -49.59,-56.82 -50.03,-58.91 -49.98,-60.34 -45.57,-57.02" fill="none" stroke="rgb(19, 133, 134)" stroke-width="2" stroke-linejoin="round" filter="url(#fuzzy)" /><polyline points="-45.57,-57.02 -46.39,-56.06 -47.09,-55.42 -47.88,-54.8 -48.92,-54.34 -50.18,-54.1 -51.5,-53.91 -52.71,-53.53 -53.7,-52.79 -54.44,-51.67 -55.01,-50.28 -55.58,-48.86 -56.33,-47.61 -57.37,-46.66 -58.71,-46 -60.24,-45.48 -61.78,-44.95 -63.2,-44.31 -64.34,-43.66 -64.72,-43.74 -46.91,-54.55 -48.55,-53.74 -49.55,-53.05 -50.08,-52.13 -50.63,-51.14 -51.39,-50.15 -52.26,-49.13 -53.11,-48.04 -53.83,-46.85 -54.41,-45.59 -54.87,-44.3 -55.28,-43.02 -55.71,-41.8 -56.17,-40.66 -56.67,-39.63 -57.2,-38.68 -57.78,-37.81 -58.45,-36.97 -59.25,-36.08 -60.18,-35.08 -61.15,-33.91 -62.03,-32.63 -62.68,-31.33 -63.22,-29.73" fill="none" stroke="rgb(19, 133, 134)" stroke-width="2" stroke-linejoin="round" filter="url(#fuzzy)" /><polyline points="-46.91,-54.55 -46.78,-55.19 -46.96,-56.9 -47.09,-59.03 -46.95,-60.98 -46.66,-62.68 -46.42,-64.33 -46.29,-66.05 -46.17,-67.79 -45.96,-69.49 -45.66,-71.14 -45.32,-72.82 -45.06,-74.6 -44.96,-76.61 -45.12,-79 -45.61,-81.88 -46.38,-85.25 -47.11,-88.73 -47.1,-91.02" fill="none" stroke="rgb(19, 133, 134)" stroke-width="2" stroke-linejoin="round" filter="url(#fuzzy)" /><polyline points="-46.91,-54.55 -46.59,-54.95 -46.05,-55.71 -45.25,-56.59 -44.35,-57.47 -43.52,-58.35 -42.83,-59.23 -42.21,-60.08 -41.55,-60.81 -40.76,-61.39 -39.84,-61.84 -38.88,-62.23 -37.98,-62.68 -37.23,-63.27 -36.61,-63.94 -36.01,-64.45 -35.31,-64.63 -34.56,-65.11" fill="none" stroke="rgb(19, 133, 134)" stroke-width="2" stroke-linejoin="round" filter="url(#fuzzy)" /><polyline points="-47.99,-52.64 -47.32,-54.06 -46.99,-55.22 -46.84,-56.71 -46.79,-58.57 -46.71,-60.51 -46.47,-62.22 -46.06,-63.59 -45.6,-64.81 -45.21,-66.15 -44.97,-67.8 -44.86,-69.72 -44.73,-71.68 -44.45,-73.36 -43.95,-74.64 -43.37,-75.7 -43.06,-76.96 -43.38,-78.48 -47.99,-52.64 -47.36,-54.13 -47.16,-55.49 -47.21,-57.3 -47.34,-59.45 -47.37,-61.58 -47.32,-63.58 -47.25,-65.51 -47.18,-67.38 -47.02,-69.12 -46.66,-70.6 -46.08,-71.84 -45.41,-72.97 -44.79,-74.18 -44.35,-75.61 -44.09,-77.25 -43.9,-78.93 -43.65,-80.48 -43.26,-81.85 -42.78,-83.25 -42.32,-85.08 -41.9,-87.49 -41.03,-89.31" fill="none" stroke="rgb(19, 133, 134)" stroke-width="2" stroke-linejoin="round" filter="url(#fuzzy)" /><polyline points="71.03,-2.64 69.55,-3.69 69.05,-4.82 68.92,-6.16 68.62,-7.73 67.98,-9.4 67.05,-10.95 65.87,-12.24 64.5,-13.22 63.03,-13.99 61.63,-14.7 60.47,-15.53 59.63,-16.55 59.08,-17.76 58.69,-19.04 58.42,-20.09 58.32,-20.29" fill="none" stroke="rgb(19, 133, 134)" stroke-width="2" stroke-linejoin="round" filter="url(#fuzzy)" /><polyline points="-49.55,-16.48 -50.12,-17.18 -50.61,-18.19 -50.9,-19.41 -50.98,-20.73 -50.94,-22.11 -50.92,-23.55 -50.98,-25.05 -51.13,-26.6 -51.29,-28.13 -51.41,-29.61 -51.46,-30.96 -51.43,-32.19 -51.35,-33.31 -51.26,-34.41 -51.2,-35.55 -51.19,-36.79 -51.19,-38.11 -51.12,-39.44 -50.95,-40.74 -50.69,-42.03 -50.42,-43.42 -50.2,-45.02 -50.03,-46.83 -50.2,-48.33" fill="none" stroke="rgb(19, 133, 134)" stroke-width="2" stroke-linejoin="round" filter="url(#fuzzy)" /><polyline points="-50.15,-48.03 -49.71,-48.54 -49.1,-49.39 -48.62,-50.32 -48.14,-51.21 -47.59,-52.07 -46.97,-52.94 -46.33,-53.83 -45.7,-54.79 -45.07,-55.83 -44.41,-56.89 -43.72,-57.92 -43.02,-58.82 -42.33,-59.58 -41.71,-60.28 -41.12,-61.05 -40.41,-62.05 -39.13,-63.68 -51.63,-44.93 -50.64,-47.08 -50.01,-48.49 -49.47,-49.63 -48.97,-50.64 -48.48,-51.6 -47.96,-52.57 -47.42,-53.57 -46.85,-54.6 -46.26,-55.67 -45.65,-56.77 -45.01,-57.87 -44.38,-58.95 -43.75,-59.98 -43.13,-60.96 -42.51,-61.9 -41.88,-62.82 -41.21,-63.75 -40.53,-64.67 -39.84,-65.56 -39.18,-66.41 -38.55,-67.22 -38.02,-67.92 -37.74,-68.28 -34.37,-55.92 -35.91,-55.09 -36.96,-54.8 -37.96,-54.77 -38.9,-54.64 -39.75,-54.23 -40.57,-53.6 -41.43,-52.92 -42.35,-52.29 -43.26,-51.71 -44.09,-51.08 -44.77,-50.34 -45.32,-49.46 -45.79,-48.52 -46.3,-47.6 -46.97,-46.75 -47.89,-45.99 -49.07,-45.31 -50.42,-44.63 -51.65,-43.85 -52.43,-42.66" fill="none" stroke="rgb(19, 133, 134)" stroke-width="2" stroke-linejoin="round" filter="url(#fuzzy)" /><polyline points="-46.11,-75.03 -47.17,-72.42 -47.77,-70.89 -48.2,-69.61 -48.5,-68.19 -48.68,-66.5 -48.82,-64.6 -48.97,-62.68 -49.19,-60.86 -49.43,-59.2 -49.69,-57.65 -49.93,-56.18 -50.17,-54.78 -50.44,-53.45 -50.78,-52.18 -51.18,-50.93 -51.59,-49.57 -51.92,-48 -52.1,-46.24 -52.22,-44.5 -52.43,-43.13 -52.77,-42.42" fill="none" stroke="rgb(19, 133, 134)" stroke-width="2" stroke-linejoin="round" filter="url(#fuzzy)" /><polyline points="-53.36,-40.71 -53.05,-42.13 -52.74,-43.34 -52.47,-44.73 -52.25,-46.36 -52.06,-48.09 -51.86,-49.77 -51.59,-51.27 -51.21,-52.57 -50.73,-53.7 -50.2,-54.75 -49.66,-55.84 -49.16,-57.02 -48.71,-58.33 -48.3,-59.78 -47.92,-61.33 -47.58,-62.97 -47.3,-64.63 -47.07,-66.25 -46.84,-67.81 -46.55,-69.37 -46.17,-71.09 -45.69,-73.05 -45.28,-74.62 -53.77,-38.77 -53.69,-39.48 -53.45,-40.69 -53.13,-41.95 -52.78,-43.25 -52.46,-44.67 -52.26,-46.3 -52.26,-48.19 -52.46,-50.26 -52.75,-52.37 -52.99,-54.34 -53.03,-56.07 -52.85,-57.57 -52.51,-58.95 -52.13,-60.36 -51.78,-61.92 -51.51,-63.67 -51.29,-65.58 -51.08,-67.54 -50.84,-69.4 -50.53,-71.03 -50.16,-72.45 -49.76,-73.86 -49.19,-75.52 -47.98,-78.07 -50.08,-59.78 -49.8,-58.46 -49.94,-57.16 -50.23,-55.79 -50.48,-54.43 -50.69,-53.08 -50.92,-51.71 -51.22,-50.31 -51.6,-48.88 -52.03,-47.44 -52.45,-46.01 -52.84,-44.62 -53.19,-43.26 -53.5,-41.95 -53.78,-40.64 -54.05,-39.36 -54.32,-38.13 -54.59,-37.04 -54.81,-36.1 -55,-34.82" fill="none" stroke="rgb(19, 133, 134)" stroke-width="2" stroke-linejoin="round" filter="url(#fuzzy)" /><polyline points="-50.81,-10.53 -51.16,-11.71 -51.31,-13.31 -51.73,-14.68 -52.19,-15.81 -52.52,-16.81 -52.79,-17.81 -53.06,-18.9 -53.36,-20.12 -53.64,-21.47 -53.83,-22.91 -53.94,-24.41 -54,-25.93 -54.08,-27.49 -54.22,-29.14 -54.46,-30.92 -54.78,-32.74 -55,-34.25 -55,-34.82 -55.53,-33.21 -55.42,-34.56 -55.85,-35.86 -56.42,-37.25 -56.95,-38.77 -57.47,-40.45 -57.89,-42.22 -58.05,-43.88 -57.8,-45.28 -57.17,-46.44 -56.31,-47.47 -55.4,-48.54 -54.62,-49.77 -54.05,-51.19 -53.71,-52.77 -53.56,-54.45 -53.53,-56.16 -53.53,-57.88 -53.48,-59.56 -53.39,-61.23 -53.32,-63 -53.4,-65.11 -53.53,-67.83 -53.07,-70.91 -56.01,-31.66 -55.53,-33.04 -55.1,-34.1 -54.56,-34.84 -53.84,-35.37 -53.03,-35.89 -52.32,-36.59 -51.8,-37.53 -51.41,-38.62 -51,-39.71 -50.41,-40.68 -49.56,-41.46 -48.44,-42.07 -47.16,-42.59 -45.9,-43.14 -44.86,-43.84 -44.14,-44.65 -43.6,-45.34 -42.89,-45.59 -41.5,-45.53" fill="none" stroke="rgb(19, 133, 134)" stroke-width="2" stroke-linejoin="round" filter="url(#fuzzy)" /><polyline points="69.14,-54.9 68.41,-52.4 67.8,-50.28 66.98,-48.27 66.19,-46.32 65.62,-44.39 65.21,-42.35 64.9,-40.2 64.65,-38.05 64.33,-35.96 63.58,-33.82 62.12,-31.47 60.15,-28.97 58.43,-26.79 57.66,-25.39 57.55,-24.73 57.55,-24.73 58.68,-23.39 59.54,-22.11 59.84,-20.8 60.21,-19.5 61.13,-18.32 62.7,-17.34 64.7,-16.54 66.67,-15.8 68.21,-14.98 69.19,-13.94 69.69,-12.64 69.99,-11.13 70.29,-9.48 70.66,-7.79 71.09,-6.12 71.51,-4.48 71.98,-2.82 72.61,-1.12 73.52,0.62 74.73,2.37 76.18,4.1 77.76,5.88 79.46,7.78 81.27,9.84" fill="none" stroke="rgb(19, 133, 134)" stroke-width="2" stroke-linejoin="round" filter="url(#fuzzy)" /><polyline points="57.61,-25.08 60.66,-25.62 60.37,-24.15 60.17,-22.57 60.97,-21.36 62.66,-20.45 64.74,-19.62 66.66,-18.75 68.06,-17.78 68.93,-16.78 69.6,-15.83 70.49,-14.96 71.89,-14.09 73.62,-12.92 75.18,-10.98 75.89,-7.63 78.73,-5.91 75.89,-6.7 74.68,-8.48 73.93,-10.52 72.56,-12.2 70.47,-13.36 68.11,-14.15 65.95,-14.81 64.24,-15.54 63.05,-16.46 62.41,-17.63 62.27,-19.02 62.43,-20.52 62.45,-21.93 61.83,-23.11 60.4,-24.02 58.65,-24.71 57.61,-25.08 57.3,-26.36 57.25,-29.13 57.58,-30.94 57.79,-32.66 57.8,-34.42 57.67,-36.11 57.48,-37.66 57.29,-39.06 57.14,-40.36 57.05,-41.68 57.06,-43.1 57.16,-44.64 57.31,-46.28 57.5,-48.01 57.73,-49.86 57.95,-51.86 58.02,-53.99 57.8,-56.15 57.4,-58.21 57.43,-60.3 58.59,-62.6 56.41,-30.56 56.41,-30.61 56.42,-31.97 56.63,-33.88 57.26,-36.13 58.42,-38.64 59.92,-41.23 61.29,-43.64 62.19,-45.71 62.52,-47.45 62.47,-49 62.25,-50.51 61.99,-52.08 61.71,-53.73 61.37,-55.45 60.9,-57.19 60.3,-58.93 59.63,-60.63 59.02,-62.36 58.64,-64.25 58.66,-66.47 59.16,-69.14 60.05,-72.19 60.92,-75.25 60.79,-76.92 56.59,-29.23 57.46,-32.25 58.1,-34.66 57.94,-36.5 57.52,-37.95 57.09,-39.16 56.7,-40.25 56.4,-41.38 56.21,-42.64 56.15,-44.07 56.23,-45.68 56.43,-47.47 56.69,-49.42 56.94,-51.51 57.08,-53.69 57.09,-55.88 56.96,-57.99 56.76,-60.01 56.59,-61.98 56.53,-64.02 56.69,-66.16 57.08,-68.45 57.44,-71.58" fill="none" stroke="rgb(19, 133, 134)" stroke-width="2" stroke-linejoin="round" filter="url(#fuzzy)" /><polyline points="56.59,-29.23 56.27,-31.58 56.73,-33.95 57.64,-36.49 58.33,-38.65 58.59,-40.3 58.61,-41.71 58.74,-43.23 59.12,-45.01 59.71,-47.04 60.37,-49.22 60.99,-51.46 61.46,-53.71 61.71,-55.95 61.7,-58.13 61.44,-60.19 60.99,-62.13 60.47,-63.96 59.99,-65.74 59.6,-67.51 59.31,-69.25 59.1,-70.99 59.06,-72.85 59.57,-75.28 61.33,-78.91" fill="none" stroke="rgb(19, 133, 134)" stroke-width="2" stroke-linejoin="round" filter="url(#fuzzy)" /><polyline points="55.82,-32.41 56.56,-31.94 58,-31.34 59.69,-30.76 61.28,-30.08 62.64,-29.31 63.79,-28.49 64.89,-27.62 66.03,-26.69 67.19,-25.69 68.24,-24.57 69.15,-23.32 70.08,-21.97 71.4,-20.65 73.35,-19.47 75.34,-18.25 75.16,-15.88 55.82,-32.41 56.05,-31.64 56.35,-30.45 56.65,-29.19 56.93,-27.94 57.19,-26.74 57.41,-25.59 57.63,-24.45 57.83,-23.27 58.04,-22.05 58.25,-20.8 58.45,-19.51 58.65,-18.22 58.85,-16.94 59.02,-15.73 59.18,-14.63 59.32,-13.66 59.43,-12.82 59.52,-12 59.61,-11.02 59.81,-9.61 54.91,-35.79 57.11,-34.39 57.3,-32.7 57.37,-31.16 57.73,-29.85 58.32,-28.72 58.96,-27.67 59.52,-26.64 60,-25.57 60.43,-24.45 60.85,-23.27 61.31,-22.04 61.88,-20.8 62.57,-19.56 63.37,-18.31 64.2,-17.09 65.04,-15.98 65.97,-15.19 67.16,-15.52" fill="none" stroke="rgb(19, 133, 134)" stroke-width="2" stroke-linejoin="round" filter="url(#fuzzy)" /><polyline points="54.91,-35.79 55.05,-33.22 55.22,-31.55 55.4,-30.14 55.56,-28.81 55.57,-27.47 55.33,-26.09 54.87,-24.69 54.34,-23.31 53.93,-21.97 53.67,-20.67 53.48,-19.4 53.17,-18.09 52.57,-16.66 51.62,-15.11 50.62,-13.65 50.67,-12.92 53.79,-38.91 53.81,-39.64 54.14,-41.31 54.87,-43.47 55.47,-45.51 55.64,-47.2 55.38,-48.63 54.81,-49.96 54.13,-51.34 53.5,-52.85 53.03,-54.5 52.72,-56.26 52.52,-58.03 52.35,-59.73 52.14,-61.32 51.88,-62.8 51.6,-64.28 51.36,-65.84 51.18,-67.52 51.05,-69.31 50.96,-71.18 50.84,-73.11 50.66,-75.09 50.46,-76.92 50.36,-77.67 53.79,-38.91 53.75,-39.59 53.76,-40.96 53.63,-42.37 53.32,-43.62 52.88,-44.75 52.35,-45.88 51.74,-47.08 51.09,-48.37 50.44,-49.73 49.84,-51.12 49.31,-52.49 48.87,-53.86 48.52,-55.21 48.22,-56.56 47.95,-57.88 47.68,-59.19 47.37,-60.5 47.01,-61.84 46.62,-63.14 46.34,-64.09 46.56,-64.04 51.32,-45.47 51.73,-45.09 52.3,-44.53 52.94,-43.79 53.71,-42.98 54.63,-42.23 55.67,-41.6 56.73,-41.02 57.7,-40.35 58.54,-39.48 59.32,-38.39 60.18,-37.19 61.23,-35.98 62.45,-34.85 63.77,-33.81 65.1,-32.8 66.41,-31.84 67.83,-31.04 69.4,-30.46 70.9,-29.97 71.58,-28.85 48.51,-16.88 48.93,-19.08 49.36,-20.58 49.7,-21.78 50.02,-22.99 50.42,-24.34 50.88,-25.85 51.3,-27.44 51.58,-29.03 51.64,-30.55 51.46,-31.92 51.09,-33.12 50.61,-34.18 50.17,-35.18 49.85,-36.22 49.69,-37.35 49.63,-38.6 49.62,-39.91 49.62,-41.26 49.61,-42.65 49.6,-44.18 49.57,-45.96 49.45,-48.01 49.14,-50.06 48.68,-51.58 48.47,-51.79 47.72,-53.49 47.2,-54.75 46.83,-55.86 46.61,-57.1 46.53,-58.61 46.54,-60.31 46.5,-62 46.31,-63.49 45.92,-64.74 45.37,-65.81 44.74,-66.87 44.16,-68.03 43.69,-69.34 43.32,-70.75 42.98,-72.24 42.59,-74.14 41.76,-77.58 46.89,-54.81 46.86,-54.54 46.96,-53.14 47.03,-51.43 47.23,-49.8 47.6,-48.28 48.04,-46.8 48.42,-45.31 48.7,-43.84 48.92,-42.44 49.14,-41.15 49.39,-39.95 49.66,-38.83 49.91,-37.74 50.09,-36.64 50.19,-35.5 50.16,-34.24 50,-32.81 49.75,-31.22 49.45,-29.52 49.13,-27.83 48.79,-26.2 48.42,-24.63 48.1,-23.08 47.54,-21.94" fill="none" stroke="rgb(19, 133, 134)" stroke-width="2" stroke-linejoin="round" filter="url(#fuzzy)" /><polyline points="56.97,-39.08 56.24,-40.06 55.68,-40.92 55.12,-41.91 54.59,-42.99 54.09,-44.1 53.61,-45.2 53.07,-46.32 52.44,-47.47 51.7,-48.68 50.89,-49.91 50.08,-51.1 49.31,-52.24 48.61,-53.34 47.98,-54.39 47.39,-55.35 46.78,-56.18 46.07,-56.87 45.28,-57.29" fill="none" stroke="rgb(19, 133, 134)" stroke-width="2" stroke-linejoin="round" filter="url(#fuzzy)" /><polyline points="43.82,-59.92 45.2,-59.15 46.36,-58.86 47.26,-58.43 47.95,-57.72 48.49,-56.8 49.06,-55.78 49.78,-54.81 50.72,-53.95 51.85,-53.14 53.09,-52.3 54.33,-51.37 55.44,-50.37 56.35,-49.36 57.04,-48.36 57.63,-47.35 58.23,-46.23 58.65,-44.84" fill="none" stroke="rgb(19, 133, 134)" stroke-width="2" stroke-linejoin="round" filter="url(#fuzzy)" /><polyline points="43.82,-59.92 44.71,-62.46 46.02,-65.76 46.76,-68.82 47.07,-71.47 47.05,-73.65 46.68,-75.28 45.98,-76.43 45.09,-77.32 44.18,-78.23 43.42,-79.37 42.87,-80.79 42.49,-82.4 42.2,-84.14 41.9,-86.01 41.55,-88.07 41.13,-90.36 40.64,-92.95 40.07,-95.81 39.36,-98.63 38.32,-100.49 36.9,-100.07 33.18,-73.81 34.61,-72.4 35.4,-71.57 35.94,-70.93 36.44,-70.27 37,-69.51 37.65,-68.64 38.36,-67.7 39.07,-66.77 39.75,-65.88 40.41,-65.01 41.06,-64.13 41.72,-63.2 42.42,-62.21 43.05,-61.26 43.01,-60.96" fill="none" stroke="rgb(19, 133, 134)" stroke-width="2" stroke-linejoin="round" filter="url(#fuzzy)" /><polyline points="41.19,-63.71 42.16,-62.67 43.39,-62.2 45.09,-62.71 47,-63.53 48.69,-64 50.03,-63.94 51.17,-63.58 52.41,-63.26 53.91,-63.17 55.65,-63.24 57.5,-63.29 59.29,-63.1 60.95,-62.57 62.5,-61.72 63.97,-60.66 65.39,-59.55 66.74,-58.55 67.97,-57.68 69.04,-56.76 70.03,-55.61 71.83,-54.92" fill="none" stroke="rgb(19, 133, 134)" stroke-width="2" stroke-linejoin="round" filter="url(#fuzzy)" /><polyline points="52.96,-46.34 52.3,-47.4 51.47,-49.08 50.7,-50.63 49.99,-51.94 49.31,-53.05 48.64,-54.07 48.02,-55.05 47.45,-56.01 46.89,-56.94 46.31,-57.82 45.67,-58.63 44.97,-59.41 44.27,-60.17 43.6,-60.96 42.96,-61.82 42.3,-62.72 41.63,-63.48 41.32,-63.72 39.64,-65.74 40.91,-64.69 41.71,-63.87 42.6,-63.26 43.66,-62.89 44.79,-62.67 45.85,-62.36 46.77,-61.85 47.56,-61.14 48.33,-60.4 49.22,-59.79 50.34,-59.43 51.76,-59.32 53.44,-59.4 55.27,-59.52 57.04,-59.43 58.52,-58.72 59.78,-57.04 61.99,-54.92" fill="none" stroke="rgb(19, 133, 134)" stroke-width="2" stroke-linejoin="round" filter="url(#fuzzy)" /><polyline points="21.06,-81.49 22.1,-80.77 22.97,-80.3 23.79,-79.87 24.65,-79.38 25.54,-78.84 26.38,-78.29 27.13,-77.78 27.78,-77.33 28.35,-76.92 28.9,-76.5 29.49,-76 30.17,-75.39 30.95,-74.66 31.81,-73.84 32.71,-72.98 33.6,-72.17 34.42,-71.43 35.15,-70.81 35.78,-70.28 36.34,-69.79 36.85,-69.28 37.15,-69.02 37.15,-69.02 36.99,-69.53 36.61,-70.31 36.2,-71.1 35.79,-72.12 35.36,-73.43 34.83,-74.86 34.15,-76.18 33.31,-77.26 32.4,-78.08 31.52,-78.72 30.78,-79.31 30.24,-80.01 29.86,-80.89 29.52,-81.94 29.1,-83.1 28.52,-84.33 27.8,-85.7 27.07,-87.26 26.52,-88.85 26.08,-90.2" fill="none" stroke="rgb(19, 133, 134)" stroke-width="2" stroke-linejoin="round" filter="url(#fuzzy)" /><polyline points="68.21,-66.46 65.19,-66.12 62.51,-65.51 60.61,-65.59 59.44,-66.43 58.64,-67.57 57.81,-68.54 56.72,-69.1 55.29,-69.21 53.56,-68.9 51.58,-68.25 49.51,-67.42 47.54,-66.7 45.88,-66.39 44.67,-66.69 43.9,-67.63 43.42,-68.95 42.93,-70.18 42.05,-70.77 40.51,-70.42 38.5,-69.5 37.2,-68.82 34.99,-71.19 35.5,-70.96 35.98,-70.65 36.51,-70.13 37.16,-69.44 37.91,-68.64 38.68,-67.78 39.43,-66.89 40.16,-66 40.86,-65.11 41.56,-64.24 42.28,-63.39 43.01,-62.57 43.76,-61.8 44.52,-61.06 45.28,-60.33 46,-59.56 46.68,-58.75 47.3,-57.88 47.89,-56.97 48.49,-56.02 49.13,-55.03 49.8,-54.04 50.4,-53.09 50.94,-52.2" fill="none" stroke="rgb(19, 133, 134)" stroke-width="2" stroke-linejoin="round" filter="url(#fuzzy)" /><polyline points="31.5,-74.45 30.42,-75.53 29.62,-76.28 29.12,-76.74 28.73,-77.1 28.29,-77.49 27.74,-77.98 27.07,-78.57 26.31,-79.23 25.48,-79.93 24.63,-80.63 23.75,-81.3 22.85,-81.94 21.95,-82.55 21.04,-83.13 20.18,-83.69 19.38,-84.24 18.62,-84.78 17.88,-85.3 17.09,-85.79 16.21,-86.21 15.28,-86.58 14.75,-86.76" fill="none" stroke="rgb(19, 133, 134)" stroke-width="2" stroke-linejoin="round" filter="url(#fuzzy)" /><polyline points="30.39,-75.7 31.62,-74.82 32.84,-74.33 33.92,-73.87 34.91,-73.42 35.79,-73.01 36.59,-72.61 37.35,-72.18 38.18,-71.75 39.13,-71.36 40.19,-71.01 41.25,-70.62 42.23,-70.1 43.13,-69.47 44.05,-68.86 45.1,-68.36 46.24,-67.84 47.18,-67.17 47.51,-67.35 30.39,-75.7 31.84,-75.33 32.98,-74.62 34.09,-74.17 35.15,-73.85 36.15,-73.62 37.17,-73.59 38.33,-73.81 39.67,-74.21 41.09,-74.6 42.48,-74.75 43.72,-74.59 44.86,-74.2 46.03,-73.83 47.4,-73.74 49.06,-74 50.89,-74.5 52.68,-74.97 54.25,-75.2 55.93,-75.28 58.85,-75.72 28.9,-76.82 30.72,-77.02 31.88,-75.91 33.04,-75.14 34.35,-75 35.77,-75.34 37.27,-76.06 38.91,-77.18 40.72,-78.65 42.71,-80.28 44.8,-81.8 46.92,-83.05 49.04,-84.1 51.13,-85.02 53.02,-85.65 54.4,-85.53 55.33,-84.86 57.43,-86.03" fill="none" stroke="rgb(19, 133, 134)" stroke-width="2" stroke-linejoin="round" filter="url(#fuzzy)" /><polyline points="28.51,-77.3 29.21,-76.63 30.24,-75.71 31.32,-74.74 32.35,-73.83 33.32,-73.04 34.21,-72.36 35.04,-71.79 35.79,-71.27 36.51,-70.75 37.24,-70.18 38.01,-69.54 38.83,-68.85 39.68,-68.14 40.52,-67.43 41.33,-66.74 42.11,-66.01 42.89,-65.19 43.83,-64.11 45.34,-62.36" fill="none" stroke="rgb(19, 133, 134)" stroke-width="2" stroke-linejoin="round" filter="url(#fuzzy)" /><polyline points="11.07,-85.37 12.05,-85.22 12.98,-84.99 13.88,-84.73 14.78,-84.46 15.67,-84.19 16.53,-83.92 17.35,-83.63 18.14,-83.3 18.91,-82.92 19.72,-82.48 20.57,-82.01 21.48,-81.52 22.4,-81.04 23.32,-80.57 24.24,-80.08 25.16,-79.55 26.11,-78.96 27,-78.34 27.77,-77.78 28.76,-77.03 28.76,-77.03 27.87,-78.11 27.31,-79.36 26.54,-80.38 25.59,-80.99 24.6,-81.43 23.65,-81.94 22.76,-82.68 21.92,-83.63 21.14,-84.68 20.38,-85.71 19.65,-86.65 18.92,-87.52 18.17,-88.36 17.39,-89.22 16.58,-90.09 15.74,-90.91 14.87,-91.64 13.98,-92.29 13.1,-92.93 12.24,-93.61 11.37,-94.32 10.45,-94.92 9.38,-95.39 7.83,-96.31" fill="none" stroke="rgb(19, 133, 134)" stroke-width="2" stroke-linejoin="round" filter="url(#fuzzy)" /><polyline points="42.05,-57.84 40.93,-59.9 40.26,-61.24 39.73,-62.36 39.2,-63.38 38.6,-64.34 37.94,-65.28 37.28,-66.23 36.64,-67.17 36.05,-68.08 35.48,-68.94 34.88,-69.73 34.23,-70.48 33.49,-71.25 32.67,-72.1 31.82,-73.03 30.96,-74.03 30.16,-74.99 29.48,-75.8 28.98,-76.38 28.65,-76.83 28.21,-77.35 27.13,-78.24" fill="none" stroke="rgb(19, 133, 134)" stroke-width="2" stroke-linejoin="round" filter="url(#fuzzy)" /><polyline points="11.93,-112.51 13.23,-109.53 14.13,-107.77 14.89,-105.62 15.69,-103.56 16.63,-102.24 17.71,-101.79 18.83,-101.77 19.86,-101.5 20.65,-100.42 21.18,-98.33 21.49,-95.41 21.71,-92.08 22,-88.85 22.45,-86.12 23.04,-84.03 23.7,-82.53 24.31,-81.37 24.95,-80.28 26.13,-78.92 35.19,-65.37 34.87,-65.54 34.42,-66.1 34.01,-66.77 33.59,-67.63 33.12,-68.69 32.56,-69.87 31.89,-71.08 31.16,-72.24 30.4,-73.3 29.69,-74.21 29.07,-74.92 28.53,-75.43 28.05,-75.81 27.55,-76.16 26.97,-76.62 26.26,-77.24 25.35,-77.91 24.34,-78.65 24.19,-80.38" fill="none" stroke="rgb(19, 133, 134)" stroke-width="2" stroke-linejoin="round" filter="url(#fuzzy)" /><polyline points="22.44,-81.17 21.22,-82.15 20.21,-82.89 19.46,-83.59 18.8,-84.29 18.12,-85.03 17.4,-85.85 16.65,-86.8 15.88,-87.86 15.1,-88.96 14.3,-89.99 13.47,-90.87 12.62,-91.55 11.75,-92.03 10.86,-92.34 9.94,-92.52 9,-92.68 8.04,-92.93 7.03,-93.34 5.95,-93.9 4.77,-94.54 3.55,-95.22 2.4,-95.98 1.48,-96.76 0.89,-97.25 50.57,-93.95 49.19,-92.39 47.49,-91.1 46,-90.22 44.43,-89.32 42.67,-88.33 40.85,-87.51 39.15,-87.18 37.72,-87.51 36.61,-88.35 35.7,-89.26 34.82,-89.72 33.82,-89.35 32.58,-88.1 31.13,-86.3 29.59,-84.49 28.12,-83.2 26.82,-82.64 25.69,-82.64 24.67,-82.72 23.61,-82.45 22.44,-81.96 21.26,-82.28" fill="none" stroke="rgb(19, 133, 134)" stroke-width="2" stroke-linejoin="round" filter="url(#fuzzy)" /><polyline points="18.69,-83.52 20.32,-87.67 20.98,-87.04 21.67,-85.45 22.54,-84.22 23.55,-83.68 24.71,-83.81 26.03,-84.47 27.49,-85.46 29.03,-86.63 30.59,-88 32.17,-89.72 33.75,-91.93 35.28,-94.55 36.71,-97.18 38.3,-99.49 40.66,-101.28" fill="none" stroke="rgb(19, 133, 134)" stroke-width="2" stroke-linejoin="round" filter="url(#fuzzy)" /><polyline points="13.15,-85.72 14.11,-85.31 14.99,-85.08 15.94,-84.96 16.89,-84.99 17.81,-85.1 18.7,-85.2 19.59,-85.21 20.53,-85.14 21.53,-85.07 22.62,-85.06 23.76,-85.16 24.94,-85.33 26.14,-85.54 27.36,-85.74 28.56,-85.93 29.72,-86.14 30.77,-86.35 31.64,-86.58 32.3,-86.8 32.79,-86.93 33.33,-86.68 34.42,-85.75" fill="none" stroke="rgb(19, 133, 134)" stroke-width="2" stroke-linejoin="round" filter="url(#fuzzy)" /><polyline points="-3.96,-100.81 -3.04,-100.35 -2.27,-98.87 -1.24,-97.69 -0.2,-96.9 0.71,-96.31 1.54,-95.81 2.4,-95.35 3.37,-94.88 4.42,-94.27 5.5,-93.38 6.52,-92.17 7.44,-90.76 8.29,-89.45 9.13,-88.54 10,-88.23 10.9,-88.43 11.72,-88.48 12.25,-86.06" fill="none" stroke="rgb(19, 133, 134)" stroke-width="2" stroke-linejoin="round" filter="url(#fuzzy)" /><polyline points="11.03,-86.22 11.45,-86.08 12.17,-85.71 12.98,-85.22 13.82,-84.7 14.65,-84.15 15.46,-83.52 16.23,-82.85 16.97,-82.2 17.69,-81.63 18.42,-81.11 19.17,-80.59 19.98,-80.04 20.83,-79.44 21.69,-78.81 22.52,-78.17 23.29,-77.48 24.11,-76.68 25.17,-75.66 26.59,-74.55 -5.5,-94.37 -4.77,-94.15 -3.9,-94.13 -3.06,-93.78 -2.19,-93.14 -1.26,-92.44 -0.33,-91.85 0.54,-91.37 1.35,-90.91 2.17,-90.41 3.08,-89.88 4.09,-89.34 5.15,-88.83 6.2,-88.36 7.18,-87.97 8.07,-87.69 8.93,-87.55 9.85,-87.35 11.03,-86.22" fill="none" stroke="rgb(19, 133, 134)" stroke-width="2" stroke-linejoin="round" filter="url(#fuzzy)" /><polyline points="9.21,-86.83 10.71,-88.34 11.83,-89.87 12.84,-90.58 13.86,-91.07 14.9,-91.42 15.91,-91.54 16.9,-91.48 17.89,-91.46 18.89,-91.6 19.89,-91.91 20.89,-92.25 21.9,-92.45 22.98,-92.48 24.2,-92.53 25.57,-92.93 27.06,-94.05 28.54,-96.17 29.82,-99.41" fill="none" stroke="rgb(19, 133, 134)" stroke-width="2" stroke-linejoin="round" filter="url(#fuzzy)" /><polyline points="7.09,-87.21 7.63,-94.46 6.74,-95.91 5.45,-95.45 4.17,-94.72 3.04,-94.61 2.08,-95.42 1.22,-97.01 0.35,-99.02 -0.59,-101.05 -1.58,-102.71 -2.58,-103.77 -3.56,-104.39 -4.54,-105.12 -5.64,-106.65 -7,-109.28 -8.94,-112.54 -12.25,-114.73 1.54,-87.76 3.35,-89.74 4.83,-91.71 6.18,-93.62 7.37,-94.96 8.39,-95.42 9.29,-94.98 10.12,-93.96 10.94,-92.77 11.78,-91.81 12.69,-91.29 13.7,-91.31 14.81,-91.89 16.02,-92.93 17.28,-94.24 18.55,-95.53 19.75,-96.55 20.87,-97.2 21.96,-97.65 23.14,-98.19 24.5,-99.05 26.06,-100.02 27.65,-100.62 29.09,-100.72 30.53,-101.47 1.31,-87.71 0.99,-88.17 0.35,-88.81 -0.61,-89.32 -1.62,-89.78 -2.54,-90.33 -3.41,-90.92 -4.29,-91.32 -5.21,-91.42 -6.2,-91.31 -7.22,-91.28 -8.24,-91.59 -9.21,-92.27 -10.17,-93.11 -11.23,-93.69 -12.51,-93.73 -13.69,-93.09 0.81,-87.68 1.33,-87.34 2.14,-86.9 3.19,-86.58 4.31,-86.3 5.39,-85.89 6.35,-85.22 7.2,-84.33 7.98,-83.4 8.75,-82.61 9.51,-82.03 10.27,-81.56 11.01,-81.02 11.73,-80.28 12.4,-79.28 13.06,-78.08 13.72,-76.8 14.49,-75.7 15.23,-74.86 0.81,-87.68 0.56,-92.96 -0.63,-94.48 -1.79,-94.84 -2.76,-95.15 -3.65,-95.73 -4.57,-96.38 -5.55,-96.79 -6.61,-96.92 -7.7,-97.04 -8.79,-97.51 -9.84,-98.45 -10.89,-99.61 -12.08,-100.64 -13.59,-101.66 -15.23,-103.51" fill="none" stroke="rgb(19, 133, 134)" stroke-width="2" stroke-linejoin="round" filter="url(#fuzzy)" />
    </g>
    
        <g id="pointNose">
          <g id="rightNose"><circle r="2.56" cx="9.338" cy="22.108" stroke="black" fill="none" stroke-width="1.0" filter="url(#fuzzy)" /><circle r="2.404" cx="8.518" cy="23.496000000000002" stroke="black" fill="none" stroke-width="1.0" filter="url(#fuzzy)" /><circle r="2.192" cx="9.122" cy="22.78" stroke="black" fill="none" stroke-width="1.0" filter="url(#fuzzy)" /><circle r="2.358" cx="7.7219999999999995" cy="22.672" stroke="black" fill="none" stroke-width="1.0" filter="url(#fuzzy)" /><circle r="1.008" cx="6.766" cy="24.560000000000002" stroke="black" fill="none" stroke-width="1.0" filter="url(#fuzzy)" /><circle r="1.38" cx="7.613999999999999" cy="22.268" stroke="black" fill="none" stroke-width="1.0" filter="url(#fuzzy)" /><circle r="2.9459999999999997" cx="7.554" cy="22.572000000000003" stroke="black" fill="none" stroke-width="1.0" filter="url(#fuzzy)" /><circle r="1.6179999999999999" cx="9.554" cy="23.072000000000003" stroke="black" fill="none" stroke-width="1.0" filter="url(#fuzzy)" /><circle r="1.662" cx="7.981999999999999" cy="24.020000000000003" stroke="black" fill="none" stroke-width="1.0" filter="url(#fuzzy)" /><circle r="1.138" cx="9.25" cy="23.092000000000002" stroke="black" fill="none" stroke-width="1.0" filter="url(#fuzzy)" /></g>
          <g id="leftNose"><circle r="1.12" cx="-8.388" cy="22.138" stroke="black" fill="none" stroke-width="1.0" filter="url(#fuzzy)" /><circle r="1.256" cx="-7.516" cy="20.698000000000004" stroke="black" fill="none" stroke-width="1.0" filter="url(#fuzzy)" /><circle r="1.028" cx="-9.772" cy="19.874000000000002" stroke="black" fill="none" stroke-width="1.0" filter="url(#fuzzy)" /><circle r="1.384" cx="-9.975999999999999" cy="22.03" stroke="black" fill="none" stroke-width="1.0" filter="url(#fuzzy)" /><circle r="2.698" cx="-10.872" cy="21.658" stroke="black" fill="none" stroke-width="1.0" filter="url(#fuzzy)" /><circle r="1.904" cx="-7.0440000000000005" cy="21.982000000000003" stroke="black" fill="none" stroke-width="1.0" filter="url(#fuzzy)" /><circle r="2.87" cx="-9.228" cy="20.018000000000004" stroke="black" fill="none" stroke-width="1.0" filter="url(#fuzzy)" /><circle r="1.44" cx="-8.676" cy="21.274" stroke="black" fill="none" stroke-width="1.0" filter="url(#fuzzy)" /><circle r="1.01" cx="-9.744" cy="19.702" stroke="black" fill="none" stroke-width="1.0" filter="url(#fuzzy)" /><circle r="1.242" cx="-9.356" cy="21.266000000000002" stroke="black" fill="none" stroke-width="1.0" filter="url(#fuzzy)" /></g>
        </g>
      
    <g id="mouth">
      <polyline points="32.21,76.91 32.22,76.65 32.16,76.92 31.72,77.73 31.56,78.07 31.82,77.6 31.37,77.95 31.44,77.89 30.95,78.31 31.06,78.44 30.58,78.77 29.87,79.11 29.83,79.19 29.06,79.33 29.22,79.39 29.01,79.51 28.73,79.61 27.25,79.94 26.48,80.05 27.21,79.95 25.64,80.22 26.31,80.19 23.96,80.42 23.14,80.47 23.17,80.49 21.94,80.54 21.82,80.52 21.33,80.51 20.56,80.54 19.29,80.47 20.74,80.55 20.01,80.53 18.48,80.43 17.76,80.39 16.24,80.25 16.02,80.24 14.64,80.1 14.31,80.05 12.68,79.81 11.91,79.69 12.42,79.78 11.31,79.59 10.6,79.47 9.48,79.25 7.3,78.79 7.07,78.73 7.11,78.73 6.9,78.69 4.6,78.12 5.22,78.28 2.03,77.4 2.63,77.57 3.6,77.85 1.66,77.29 -0.4,76.63 -0.39,76.63 -1.9,76.13 -2.78,75.8 -3.31,75.6 -3.04,75.7 -3.54,75.5 -5.65,74.68 -7.16,74.04 -5.65,74.67 -8.33,73.5 -8.27,73.51 -8.41,73.47 -8.88,73.25 -9.87,72.73 -11.76,71.73 -11.2,72.05 -12.89,71.12 -11.85,71.69 -13.46,70.76 -14.12,70.32 -13.23,70.87 -15.37,69.41 -15.42,69.46 -16.31,68.7 -15.8,69.12 -17.1,68.09 -17.84,67.41 -17.42,67.83 -17.7,67.58 -17.74,67.56 -18.7,66.48 -18.46,66.86 -18.84,66.25 -19.61,65.16 -19.5,65.62 -19.62,65.4 -19.64,65.12 -20.03,64.73 -20.28,64.3 -20.56,63.3 -20.46,62.95 -20.51,63.29 -20.4,62.85 -20.47,62.45 -20.31,62.11 -20.43,62.34 -20.34,61.89 -20.17,61.37 -19.7,60.85 -19.61,60.59 -19.49,60.52 -19.51,60.5 -19.66,60.63 -19.43,60.5 -18.47,59.77 -17.94,59.46 -17.87,59.47 -18.01,59.51 -17.45,59.22 -16.41,58.91 -16.67,58.99 -15.66,58.61 -14.88,58.42 -14.71,58.38 -15.18,58.55 -14.96,58.44 -12.82,58.21 -12.21,58.09 -12.76,58.13 -11.92,58.08 -10.65,58.03 -9.99,58.01 -9.73,58.02 -9.08,58.01 -8.23,58 -8.98,58.02 -7.97,58.01 -4.87,58.21 -6.91,58.07 -4.31,58.27 -2.85,58.46 -2.97,58.42 -2.88,58.44 -0.69,58.76 -0.06,58.84 -1.01,58.7 0.6,58.96 2.57,59.34 2.09,59.25 3.62,59.55 2.85,59.39 5.56,59.99 6.8,60.3 5.85,60.06 7.86,60.58 9.34,61 9.43,61.02 9.44,61.03 11.51,61.66 12.78,62.07 12.17,61.87 13.79,62.42 14.42,62.64 15.71,63.11 15.33,62.99 17.21,63.71 17.92,64.01 18.88,64.42 18.07,64.09 18.88,64.43 20.01,64.95 20.27,65.07 20.24,65.02 22.58,66.19 21.84,65.79 22.84,66.33 24,66.92 24.51,67.24 24.54,67.26 25.68,67.95 26.07,68.26 27.67,69.32 27.24,69 28.36,69.89 28.34,69.89 29.25,70.6 29.02,70.4 29.08,70.43 30.25,71.55 29.95,71.31 30.73,72.11 30.92,72.34 31.46,73.1 31.26,72.8 31.58,73.07 31.88,73.51 32.17,74.22 32.17,74.06 31.89,73.91 32.39,75.23 32.37,75.14 32.43,75.17 32.55,75.86 32.51,76.05 32.52,76.15" fill="rgb(203, 204, 102)" stroke="black" stroke-width="3" stroke-linejoin="round" filter="url(#fuzzy)" />
    </g>
  </svg>