<svg xmlns="http://www.w3.org/2000/svg" width="500" height="500" viewBox="-100 -100 200 200"><defs><clipPath id="c"><path d="m28.99-3.96-.34-.25-.38-.24-.41-.25-.44-.24-.47-.25-.49-.24-.53-.24-.55-.24-.58-.25-.61-.23-.63-.24-.65-.24-.68-.24-.7-.23-.72-.23-.74-.24-.77-.24-.82-.25-.84-.24-.88-.25-.9-.25-.93-.25-.96-.24-.97-.25-1-.24-1.01-.23-1.02-.23-1.04-.23-1.05-.21-1.04-.21-1.06-.2-1.05-.19-1.05-.18-1.04-.17-1.04-.15-1.02-.14-1.02-.13-1-.11-.98-.1-.96-.08-.94-.06-.91-.05-.89-.04-.87-.01h-.84l-.8.02-.78.03-.74.05-.72.07-.68.08-.64.1-.61.12-.58.13-.54.15-.51.16-.47.18-.44.18-.4.2-.37.22-.34.22-.31.23-.27.25-.25.25-.22.25-.2.27-.16.27-.15.28-.11.28-.09.3-.06.3-.03.31-.01.31.01.33.04.32.07.33.08.34.11.34.13.35.15.35-.35 5.14.41.27.42.28.43.27.43.29.44.29.46.29.45.3.47.31.47.31.49.31.48.32.5.33.5.33.51.33.51.34.53.34.53.35.55.35.55.35.56.36.57.37.57.36.58.37.59.36.6.37.6.37.6.36.62.36.61.35.63.35.62.35.63.33.64.32.64.32.64.3.65.28.65.28.66.25.66.24.66.21.67.2.66.17.68.15.67.12.68.1.68.07.69.04.69.01.69-.02.7-.06.69-.09.71-.12.7-.16.7-.19.71-.23.71-.26.71-.3.72-.33.71-.37.72-.4.71-.44.71-.47.71-.49.71-.53.57-.33.57-.35.56-.35.56-.37.55-.39.53-.39.53-.4.51-.41.5-.42.49-.42.47-.42.46-.43.44-.42.42-.43.4-.42"/></clipPath><clipPath id="b"><path d="m-28.44-5.91.41-.25.45-.26.47-.25.51-.26.53-.26.55-.25.58-.26.61-.26.63-.25.66-.26.67-.26.7-.25.71-.26.74-.25.75-.25.8-.27.83-.27.86-.28.88-.27.91-.28.94-.27.95-.27.98-.27.99-.26 1-.26 1.02-.25 1.02-.25 1.03-.23 1.04-.23 1.03-.21 1.04-.21 1.03-.19 1.03-.18 1.02-.17 1-.15 1-.13.98-.12.96-.11.95-.08.92-.07.9-.05.88-.04.85-.02.83.01.79.02.77.03.74.06.71.07.67.09.65.11.61.13.58.14.54.16.51.17.48.19.44.2.42.22.38.22.34.24.32.25.29.26.26.27.23.28.21.28.18.29.16.3.13.3.11.32.08.32.05.32.04.34v.34l-.01.34-.04.36-.06.35-.08.36-.1.37-.12.37-.15.37L17-.09l-.46.33-.47.33-.47.34-.49.35-.49.35-.5.36-.5.37-.51.37-.52.38-.52.38-.52.39-.54.39-.53.4-.54.41-.55.4-.55.42-.56.42-.57.42-.57.43-.58.44-.58.43-.59.44-.59.44-.59.44-.59.44-.6.43-.6.44-.59.42-.6.43-.6.41-.6.4-.59.4-.6.38-.6.37-.59.35-.6.33-.6.32-.59.29-.6.27-.6.25-.59.22-.6.19-.6.17-.61.13-.6.1-.61.07-.61.03h-.61l-.61-.04-.63-.08-.62-.12-.63-.16-.64-.2-.64-.24-.65-.29-.65-.32-.66-.37-.67-.41-.67-.44-.68-.49-.68-.53-.69-.56-.7-.6-.7-.64-.54-.4-.54-.41-.54-.43-.53-.45-.53-.46-.52-.47-.52-.48-.51-.5-.49-.49-.49-.51-.47-.5-.47-.51-.44-.51-.43-.5-.41-.5"/></clipPath><filter id="a"><feTurbulence baseFrequency=".05" numOctaves="3" result="noise" type="noise"/><feDisplacementMap in="SourceGraphic" in2="noise" scale="2"/></filter></defs><rect width="100%" height="100%" x="-100" y="-100" fill="#F5FFFA"/><path fill="sienna" stroke="#000" stroke-linejoin="round" stroke-width="1.667" d="m62.26.82-.11.83.05-.88-.04 2.39.2.56-.32 5.03-.06.66-.07.25-.06 2 .02-.24-.31 2.43-.43 2.5-.25 1.78v.77l.07-.41-.55 2.78.14-.67-.82 4.66.25-1.37-.08.74-.76 2.99-.27 1.04-.32 1.27-.11.24-.52 2.24-.53 1.56-.26 1.25-.24.93-.3 1.37-.24.61-1.12 2.93.01.16-.51.89-.76 2.35-.38.67-.22.77-.84 1.44.02.25-1.77 3.76-.11.2.36-.43-1.57 3.04.49-1.2-1.4 2.98-.65.99-1.36 1.89.4-.64-.38.86-1.03 1.83-.59.62-.18.06-1.18 1.61-.36.62-1.22 1.77-.56.7-1.57 2.24-.43.07-.8.76-.43.89-1.1.79-.42.55.15.05-2.15 2.31-1.15.79-.34.51-.96.43-.72.93-1.44 1-.87.61.24-.15-1.48 1.06-1.8 1.15.25.17-.82.42-.41.22-1.69 1.16-.96.58-.77.4-1.32.67-1.85.76.12.07-1.69.49 1.21-.21-2.43.63-.93.62-.14-.01-1.43.36-.98.44-.1-.17-.81.13-1.85.75-.57-.15.27.19-1.05.02-1.81.47-.63.24-1.28.07h-1.6l-1.03-.11-.25.37-1.14-.03-2.43-.04-.04-.22-2.04.03.66.17-2.44-.35.28-.25-1.17-.2-.91.13-2.81-.77 1.28.53-.61-.31-1.24-.09-2.03-.48-1.1-.66-.22-.09-.89-.3-1.21-.48-1.49-.61-1.67-.63.24-.04-.4-.23-.38-.21-1.41-.65-.46-.15-2.72-1.36.02-.3-.33.02-.64-.53-.88-.47-2.46-1.85-.38-.38-.45-.16-2.06-1.64.58.34-.93-.79-.47-.07-1.41-1.4-.84-.77-.33-.33-2.23-2.4.39.3-.07-.05-3.08-3.26 1.49 1.29-1.63-1.64-.65-.78-.15-.04-1.74-2.22h.33l-1.43-1.75-.46-.68-.75-1.5-.53-.52-.95-1.16-.27-.83-1.63-2.5-.65-1.23-.13-.2.21.11-.74-1.11-1.13-2.56-.6-1.03-.43-.88-.29-.77-.34-.79-.45-.62-.14-1.08-1.19-2.46-.73-1.58-.37-1.94-.02.09-.43-1.3-.58-1.26-.32-.64-.51-2.04-.42-1.05.01.04-.61-2.91-.54-1.78-.45-2.25-.07-.45.15.69-.58-2.41-.06-.91-.82-3.78.07-.34-.16-1.12-.11-.36-.46-3.24-.04-1.06-.28-1.43.14-.16-.31-2.28.08-1.62-.21-.94.08-3.12-.03-1.01-.27-.28.12.24.09-4.38-.18-.31.02-.39.12-3.64.09 2.49.08-1.89.04-3.59.12-1.65-.01-.55.23-1.96.13-1.09.2-.06.1-.36.51-4.28-.13.08.55-3.24.3-1.41-.22.5.72-2.65-.24 1.16.3-2.42 1.04-3.55-.21.79.82-2.56-.31.75.78-2.95-.27.51.79-2.46 1.01-2.43-.25.78.18-.78.99-3.09.33-.85.25-.25 1.07-2.78.25-.75.39-.8.64-1.02 1.22-3.12.39-.56-.37.3.77-.84 1.1-1.83 1.11-2.15.52-1.23.28-.33.12-.2.41-.53.83-1.65.3-.56 1.31-2.01.07-.08 1.99-2.4.6-.38.43-.93.14.08.07-.38 1.94-2.3-.37.44 1.87-2.14 1.77-1.52.24-.08 1.02-1.24-.05.2.52-.62 1.08-.96 1.02-.65-.28-.08.68-.58 2.79-2.04-.01-.08 1.41-.95.67-.31-.53.22 1.48-1.15 1.9-.82.52-.37.47-.13.49-.65 1.86-.58-.17-.22 1.59-.93 1.59-.45.13.17 1.76-.96.51.16 1.56-.84-.1.22 1.79-.51 1.57-.27-1.1.17 2.72-.89.82-.16 1.02-.13.97.19.86-.33-.06.21 1.54-.43.52.3 1.12-.21 2.84-.02-.51.1.82-.33 1.05.37 1.25.11.3-.03.92-.11 2.53.73 1.19.01.98.09-.02-.01-.21-.06 2.12.63 1.72.41.26-.04 1.92.67.09.21.02.15 3.3 1.39-.49-.18 2.04.96-1.48-.76 3.18 1.54-1.01-.73.86.58 1.74 1.16 2.39 1.24h-.13l-.42-.44.96.57.07.12 2.51 1.9 1.56 1.35-.86-.71 1.69 1.36 1.52 1.36.71.42-.03.02 2.28 2.25-.07-.09-.02.33.99.68.06.13 1.68 1.86.66.64 1.61 2.1.25.26.44.44.71.87 1.27 2.25.53.67.47.34 1.32 1.59-.04.44 1.05 1.47.43 1.19.18-.01 1.27 2 .25.63.84 1.52.39 1.16-.43-1.01.92 1.87 1.07 1.7.74 1.74.03.57.49.55.73 2.06.96 2.37.81 1.98.14.68-.37-1.38.38 1.78 1.22 3.62.28.42-.27-.66.98 3.24.63 2.78-.54-2.4.8 3.25.35 1.28.33 1.89-.07-1.09.69 3.79.06.06.49 3.69-.13-1.21.68 3.84-.09-.3.33 2.94-.1-.74.19 1.38-.1-.33.43 3.53L62-8.31l.14.78.12 2.08-.17.6.22 1.94.08 1.31-.13 2.42-.11.83" filter="url(#a)"/><path fill="#fff" d="m-28.44-5.91.41-.25.45-.26.47-.25.51-.26.53-.26.55-.25.58-.26.61-.26.63-.25.66-.26.67-.26.7-.25.71-.26.74-.25.75-.25.8-.27.83-.27.86-.28.88-.27.91-.28.94-.27.95-.27.98-.27.99-.26 1-.26 1.02-.25 1.02-.25 1.03-.23 1.04-.23 1.03-.21 1.04-.21 1.03-.19 1.03-.18 1.02-.17 1-.15 1-.13.98-.12.96-.11.95-.08.92-.07.9-.05.88-.04.85-.02.83.01.79.02.77.03.74.06.71.07.67.09.65.11.61.13.58.14.54.16.51.17.48.19.44.2.42.22.38.22.34.24.32.25.29.26.26.27.23.28.21.28.18.29.16.3.13.3.11.32.08.32.05.32.04.34v.34l-.01.34-.04.36-.06.35-.08.36-.1.37-.12.37-.15.37L17-.09l-.46.33-.47.33-.47.34-.49.35-.49.35-.5.36-.5.37-.51.37-.52.38-.52.38-.52.39-.54.39-.53.4-.54.41-.55.4-.55.42-.56.42-.57.42-.57.43-.58.44-.58.43-.59.44-.59.44-.59.44-.59.44-.6.43-.6.44-.59.42-.6.43-.6.41-.6.4-.59.4-.6.38-.6.37-.59.35-.6.33-.6.32-.59.29-.6.27-.6.25-.59.22-.6.19-.6.17-.61.13-.6.1-.61.07-.61.03h-.61l-.61-.04-.63-.08-.62-.12-.63-.16-.64-.2-.64-.24-.65-.29-.65-.32-.66-.37-.67-.41-.67-.44-.68-.49-.68-.53-.69-.56-.7-.6-.7-.64-.54-.4-.54-.41-.54-.43-.53-.45-.53-.46-.52-.47-.52-.48-.51-.5-.49-.49-.49-.51-.47-.5-.47-.51-.44-.51-.43-.5-.41-.5" filter="url(#a)" transform="translate(29.03 -26.29)"/><path fill="#fff" d="m28.99-3.96-.34-.25-.38-.24-.41-.25-.44-.24-.47-.25-.49-.24-.53-.24-.55-.24-.58-.25-.61-.23-.63-.24-.65-.24-.68-.24-.7-.23-.72-.23-.74-.24-.77-.24-.82-.25-.84-.24-.88-.25-.9-.25-.93-.25-.96-.24-.97-.25-1-.24-1.01-.23-1.02-.23-1.04-.23-1.05-.21-1.04-.21-1.06-.2-1.05-.19-1.05-.18-1.04-.17-1.04-.15-1.02-.14-1.02-.13-1-.11-.98-.1-.96-.08-.94-.06-.91-.05-.89-.04-.87-.01h-.84l-.8.02-.78.03-.74.05-.72.07-.68.08-.64.1-.61.12-.58.13-.54.15-.51.16-.47.18-.44.18-.4.2-.37.22-.34.22-.31.23-.27.25-.25.25-.22.25-.2.27-.16.27-.15.28-.11.28-.09.3-.06.3-.03.31-.01.31.01.33.04.32.07.33.08.34.11.34.13.35.15.35-.35 5.14.41.27.42.28.43.27.43.29.44.29.46.29.45.3.47.31.47.31.49.31.48.32.5.33.5.33.51.33.51.34.53.34.53.35.55.35.55.35.56.36.57.37.57.36.58.37.59.36.6.37.6.37.6.36.62.36.61.35.63.35.62.35.63.33.64.32.64.32.64.3.65.28.65.28.66.25.66.24.66.21.67.2.66.17.68.15.67.12.68.1.68.07.69.04.69.01.69-.02.7-.06.69-.09.71-.12.7-.16.7-.19.71-.23.71-.26.71-.3.72-.33.71-.37.72-.4.71-.44.71-.47.71-.49.71-.53.57-.33.57-.35.56-.35.56-.37.55-.39.53-.39.53-.4.51-.41.5-.42.49-.42.47-.42.46-.43.44-.42.42-.43.4-.42" filter="url(#a)" transform="translate(-31.19 -27.29)"/><g fill="none" stroke="#000" transform="translate(29.03 -26.29)"><path stroke-linejoin="round" stroke-width="1.667" d="m-30.77-3.4.07-.25.11-.25.15-.25.18-.25.22-.24.26-.25.28-.26.32-.25.36-.25.38-.26.41-.25.45-.26.47-.25.51-.26.53-.26.55-.25.58-.26.61-.26.63-.25.66-.26.67-.26.7-.25.71-.26.74-.25.75-.25.8-.27.83-.27.86-.28.88-.27.91-.28.94-.27.95-.27.98-.27.99-.26 1-.26 1.02-.25 1.02-.25 1.03-.23 1.04-.23 1.03-.21 1.04-.21 1.03-.19 1.03-.18 1.02-.17 1-.15 1-.13.98-.12.96-.11.95-.08.92-.07.9-.05.88-.04.85-.02.83.01.79.02.77.03.74.06.71.07.67.09.65.11.61.13.58.14.54.16.51.17.48.19.44.2.42.22.38.22.34.24.32.25.29.26.26.27.23.28.21.28.18.29.16.3.13.3.11.32.08.32.05.32.04.34v.34l-.01.34-.04.36-.06.35-.08.36-.1.37-.12.37-.15.37-.16.37-.18.38-.2.38-.21.38-.24.38-.25.39-.26.38-.28.39-.3.39-.31.39" filter="url(#a)"/><path stroke-linejoin="round" stroke-width="2.222" d="m-30.8-.43.11.27.16.31.19.34.23.38.27.4.29.43.32.44.35.47.37.47.39.49.41.5.43.5.44.51.47.51.47.5.49.51.49.49.51.5.52.48.52.47.53.46.53.45.54.43.54.41.54.4.7.64.7.6.69.56.68.53.68.49.67.44.67.41.66.37.65.32.65.29.64.24.64.2.63.16.62.12.63.08.61.04h.61l.61-.03.61-.07.6-.1.61-.13.6-.17.6-.19.59-.22.6-.25.6-.27.59-.29.6-.32.6-.33.59-.35.6-.37.6-.38.59-.4.6-.4.6-.41.6-.43.59-.42.6-.44.6-.43.59-.44.59-.44.59-.44.59-.44.58-.43.58-.44.57-.43.57-.42.56-.42.55-.42.55-.4.54-.41.53-.4.54-.39.52-.39.52-.38.52-.38.51-.37.5-.37.5-.36.49-.35.49-.35.47-.34.47-.33.46-.33.45-.32.44-.32.44-.31.42-.3.42-.29.41-.29.4-.28.39-.28.38-.27.37-.27" filter="url(#a)"/><circle cx="13.655" cy="-2.276" r="4.324" clip-path="url(#b)" filter="url(#a)"/><circle cx="12.47" cy=".824" r="3.754" clip-path="url(#b)" filter="url(#a)"/><circle cx="11.49" cy="1.389" r="4.518" clip-path="url(#b)" filter="url(#a)"/><circle cx="12.27" cy=".424" r="3.398" clip-path="url(#b)" filter="url(#a)"/><circle cx="15.04" cy="-2.096" r="3.146" clip-path="url(#b)" filter="url(#a)"/><circle cx="12.7" cy="-1.741" r="3.646" clip-path="url(#b)" filter="url(#a)"/><circle cx="12.285" cy="2.039" r="3.878" clip-path="url(#b)" filter="url(#a)"/><circle cx="14.17" cy="-1.826" r="3" clip-path="url(#b)" filter="url(#a)"/><circle cx="11.24" cy="-.146" r="3.956" clip-path="url(#b)" filter="url(#a)"/><circle cx="11.94" cy=".074" r="3.268" clip-path="url(#b)" filter="url(#a)"/></g><g fill="none" stroke="#000" transform="translate(-31.19 -27.29)"><path stroke-linejoin="round" stroke-width="2.222" d="M30.58-1.35v-.28l-.04-.27-.07-.27-.11-.26-.14-.26-.18-.26-.21-.25-.25-.26-.28-.25-.31-.25-.34-.25-.38-.24-.41-.25-.44-.24-.47-.25-.49-.24-.53-.24-.55-.24-.58-.25-.61-.23-.63-.24-.65-.24-.68-.24-.7-.23-.72-.23-.74-.24-.77-.24-.82-.25-.84-.24-.88-.25-.9-.25-.93-.25-.96-.24-.97-.25-1-.24-1.01-.23-1.02-.23-1.04-.23-1.05-.21-1.04-.21-1.06-.2-1.05-.19-1.05-.18-1.04-.17-1.04-.15-1.02-.14-1.02-.13-1-.11-.98-.1-.96-.08-.94-.06-.91-.05-.89-.04-.87-.01h-.84l-.8.02-.78.03-.74.05-.72.07-.68.08-.64.1-.61.12-.58.13-.54.15-.51.16-.47.18-.44.18-.4.2-.37.22-.34.22-.31.23-.27.25-.25.25-.22.25-.2.27-.16.27-.15.28-.11.28-.09.3-.06.3-.03.31-.01.31.01.33.04.32.07.33.08.34.11.34.13.35.15.35.17.35.19.36.21.36.23.36.24.36.27.36.28.37.29.37.32.37.32.37" filter="url(#a)"/><path stroke-linejoin="round" stroke-width="2.222" d="m30.78-.16-.09.23-.13.27-.17.29-.2.32-.24.34-.27.37-.3.37-.32.4-.36.4-.37.41-.4.42-.42.43-.44.42-.46.43-.47.42-.49.42-.5.42-.51.41-.53.4-.53.39-.55.39-.56.37-.56.35-.57.35-.57.33-.71.53-.71.49-.71.47-.71.44-.72.4-.71.37-.72.33-.71.3-.71.26-.71.23-.7.19-.7.16-.71.12-.69.09-.7.06-.69.02-.69-.01-.69-.04-.68-.07-.68-.1-.67-.12-.68-.15-.66-.17-.67-.2-.66-.21-.66-.24-.66-.25-.65-.28-.65-.28-.64-.3-.64-.32-.64-.32-.63-.33-.62-.35-.63-.35-.61-.35-.62-.36-.6-.36-.6-.37-.6-.37-.59-.36-.58-.37-.57-.36-.57-.37-.56-.36-.55-.35-.55-.35-.53-.35-.53-.34-.51-.34-.51-.33-.5-.33-.5-.33-.48-.32-.49-.31-.47-.31-.47-.31-.45-.3-.46-.29-.44-.29-.43-.29-.43-.27-.42-.28-.41-.27-.4-.26-.39-.26-.38-.25-.38-.24-.36-.25-.36-.23-.35-.23-.34-.23-.33-.22-.32-.22" filter="url(#a)"/><circle cx="-2.545" cy="2.133" r="4.004" clip-path="url(#c)" filter="url(#a)"/><circle cx="-4.63" cy="2.533" r="4.636" clip-path="url(#c)" filter="url(#a)"/><circle cx="-3.845" cy="2.178" r="4.008" clip-path="url(#c)" filter="url(#a)"/><circle cx="-3.465" cy="-.062" r="3.402" clip-path="url(#c)" filter="url(#a)"/><circle cx="-5.04" cy="3.943" r="3.038" clip-path="url(#c)" filter="url(#a)"/><circle cx="-4.785" cy="3.228" r="3.082" clip-path="url(#c)" filter="url(#a)"/><circle cx="-4.595" cy="-.497" r="4.158" clip-path="url(#c)" filter="url(#a)"/><circle cx="-5.445" cy=".343" r="4.306" clip-path="url(#c)" filter="url(#a)"/><circle cx="-4.635" cy="2.298" r="3.826" clip-path="url(#c)" filter="url(#a)"/><circle cx="-2.82" cy="2.478" r="3.896" clip-path="url(#c)" filter="url(#a)"/></g><g fill="none" stroke="#504444" stroke-linejoin="round" stroke-width="2"><path d="m-11.53-86.99.11 21.15 14.65 2.3 8.29-4.58 4.97-3.11 3.88-.24 2.53.77.47-.24-1.42-1.96-2.15-3.02-1.48-2.73.07-1.26 1.75.74 3.02 2.62 3.49 3.82 2.68 4.03-.27 2.88-5.85-.42-9.12-5.59 17.54-4.48" filter="url(#a)"/><path d="m-15.29-86.02 43.85 26.43 12.33 4.13 1.04-2.2-1.72-2.37-3.12-1.61-5.87-1.55-9.41-1.9-11.65-2.25L-.7-69.76l-6.73-2.17-.64-1.38 5.06-.38 8.43.35L15-71.9l11.35 5.2 15.59 11.82 10.77 7.96" filter="url(#a)"/><path d="M49.99-52.95 26.58-74.41l-6.37-6.5 1.02.43 4.04 4.04 4.8 5.12 3.63 3.87 1.02 1.38-1.81-.91-3.44-1.96-3-1.62-.99-.51.41.07-1.37-.97-6.92-3.29-13.21-4.55L-12-81.23l-23.23 8.39" filter="url(#a)"/><path d="m5.12-88.45-7.03 12.53 7.3 3.03.75-1.61-1.58-1.68-.08-.35 1.48.57 1.77.94 1.63 1.23 2.15 1.66 3.42 1.66 4.26.61 3.44-1.27.8-2.83-2.47-2.75-4.9-.79-6.14 2.27-10.25 5.25-41.59 4.35" filter="url(#a)"/><path d="m33.86-74.53-40.04 3.27.58 2.52 14.39 1.43 14.33 2.44 9.89 3.19 4.7 2.35.17.59-2.94-.82-4.28-1.25-4.07-1-3.04-.66-2.09-.65-1.96-.93-3.06-1.18-5.15-1.11-7.31-.67-7.92.12-5.36 1.27.81 2.71 8.42 3.7 12.44 2.33 7.37-3.49-3.8-11.82 10.18-8.27" filter="url(#a)"/><path d="m-23.01-82.27 48.37 25.75 10.79.85-2.2-4.38-4-3.19-4.26-.86-7.28.12-11.32-.44-12.24-1.67-8.07-2.64-1.08-2.84 3.72-1.96 2.91-.37-1.54.22-4.47-1.8-20.06.98" filter="url(#a)"/><path d="m43.69-62.79-16.38-3.98-15.77-1.61-10.23.19-5.12.44.77-.03 5.41-.51 6.96-.76 5.34-.79 2.05-.52-.9.31-2.07 1.62-1.5 2.88-.45 3.35-.25 2.48-1.07.31-2.19-2.47-3.28-4.57L.3-71.11l-3.4-3.66 22.19-9.48" filter="url(#a)"/><path d="m19.02-84.27 16.84 20.2-3.48 2.11-13.69-2.07-16.47-3.15-12.86-2.64-6.56-1.31-1.14-.09 1.83.32 2.78-.32 3.12-1.56 4.04-2.6 5.52-2.79 6.72-1.99 6.91-.41 6.48 1.68 6.59 4.11 7.53 6.35 7.65 7.2 5.81 7.29 10.43 18.68" filter="url(#a)"/><path d="M55.85-38.88 44.16-56.51 32.1-66.37l-9.57-6.91-6.09-4.76-3.01-2.67-.05-.51 2.49 1.33 3.82 2.41 3.6 2.85 2.13 3.05-.1 3.33-2.73 3.55-5.06 3.33-5.77 2.25-3.79-.21.73-4.54 6.95-9.26 3.44-11.12" filter="url(#a)"/><path d="m36.02-72.02-30.86-6.1-1.46-1.9 3.19.98 1.36 1.34.44 1.44 1.61 2.12 2.83 2.47 2.25 1.68-.19-.01-3.2-1.55-5.4-2.06L.5-74.89l-5.26.35-3.16 1.87-.02 2.41 3.68 1.48 6.92-.38 8.57-1.68 8.79-.84 8.95 1.89 8.97 4.2 11.21 11.12" filter="url(#a)"/><path d="M59.3-27.35 34.9-55.06 15.29-59.8.94-62.38l-4.44-3.25 2.08-2.6 3.52-1.04 2.81.32 2.82.93 4.03.84 5.15.34 4.68-.32 2.23-.85-1.29-.96-4.21-.38-4.94.86-2.91 2.37.78 3.27 3.51 2.74 2.51.49-2.46-2.72-6.88-5.16-2.84-5.04 12.39-1.96 18.63 2.24" filter="url(#a)"/><path d="m-22.05-83.05 2.58-.38 8.92-.06L.61-81.47l8.8 3.98 4.72 4.37.64 2.99-3.07.73-5.78-1.14-6-1.79-2.82-1.35 2.74-.64 7.75-.29 9.28-.33 6.17-.24-1.37.26-15.18 1.54-45.6 4.28" filter="url(#a)"/><path d="M37.01-71.34 8.69-81.72l-7.36-2.19 1.72 2.79 5.04 5.24 4.92 5.61 3.23 4.78 1.48 3.47.41 1.97.07.58.18-.57.33-1.47.02-2.23-.81-2.69-1.2-2.29.45-.45 4.62 2.72 8.26 5.91 4.83 6.66-13.04 1.06-56.05-21.26" filter="url(#a)"/><path d="M55.84-39.28 24.51-57.26 8.25-59.35l-4.48-2.82.68-4.46 2.68-3.83 2.18-2.35v-1.38l-2.32-1.17-3.49-1.32-3.03-1.37-1.35-1.08.67-.41 2.07.43 2.07 1.13.46 1.48-2.09 1.57-3.81 1.7-2.16 2.14 4.35 2.73 12.45 2.63 9.17-1.07-26.97-21.61" filter="url(#a)"/><path d="m-6.5-88.27 18.32 19.3-1.51 2.47-1.49-3.76-2.48-4.63L2.6-77.3l-4.96.52-6.06 2.26-5.61 2.1-1.92.88 4.43.17 9.93 1 9.82 2.71 2.55 3.96-.87 5.07 40.96 7.7" filter="url(#a)"/><path d="m50.38-51.79-27.2-22.93-14.3-8.04-8.73-1.51-3.52 1.9 1.64 3.83 5.11 4.51 5.77 4.16 4.16 3.23 1.95 2.29.69 1.61.84 1.08 1.74.49 2.6-.25 3.09-.82 3.38-.84 3.45-.38 2.58-.08-.35-.72-6.35-2.26L11-69.71l-27.53-.15-31.22 13.22" filter="url(#a)"/><path d="m-31.64-76.11 12.1 11.46 24.85.87 10.59-2.75-2.2-4.3-6.56-4.31-4.66-3.31-.74-1.91 2.22-.51 3.39.77 3.24 1.77 2.49 2.25 1.78 2.06 1.62 1.61 1.89 1.73.16 2.38-8.32 1.69-23.94-1.81-25.38-.68" filter="url(#a)"/></g><g fill="none" stroke="#000"><circle cx="8.752" cy="4.752" r="1.582" filter="url(#a)"/><circle cx="7.496" cy="4.768" r="1.832" filter="url(#a)"/><circle cx="8.724" cy="3.264" r="1.192" filter="url(#a)"/><circle cx="9.244" cy="4.824" r="2.786" filter="url(#a)"/><circle cx="9.6" cy="4.94" r="1.286" filter="url(#a)"/><circle cx="9.872" cy="3.276" r="2.254" filter="url(#a)"/><circle cx="8.896" cy="4.956" r="2.868" filter="url(#a)"/><circle cx="10.436" cy="5.048" r="1.278" filter="url(#a)"/><circle cx="8.088" cy="3.156" r="2.314" filter="url(#a)"/><circle cx="9.656" cy="6.88" r="2.14" filter="url(#a)"/><circle cx="-8.694" cy="4.008" r="2.754" filter="url(#a)"/><circle cx="-10.774" cy="4.9" r="1.138" filter="url(#a)"/><circle cx="-8.794" cy="7.244" r="2.414" filter="url(#a)"/><circle cx="-7.874" cy="6.688" r="2.652" filter="url(#a)"/><circle cx="-8.938" cy="4.324" r="2.806" filter="url(#a)"/><circle cx="-10.974" cy="4.308" r="1.496" filter="url(#a)"/><circle cx="-11.47" cy="6.144" r="2.408" filter="url(#a)"/><circle cx="-10.894" cy="6.1" r="1.78" filter="url(#a)"/><circle cx="-9.478" cy="4.168" r="2.602" filter="url(#a)"/><circle cx="-7.61" cy="7.56" r="2.228" filter="url(#a)"/></g><path fill="#D77F8C" stroke="#000" stroke-linejoin="round" stroke-width="3" d="m-53.6 41.02 1.18 1.17 1.18 1.14 1.18 1.1 1.17 1.07 1.17 1.03 1.16 1 1.17.96 1.15.94 1.16.9 1.15.86 1.14.84 1.15.8 1.14.77 1.14.74 1.13.7 1.13.68 1.13.64 1.13.62 1.12.58 1.12.55 1.12.53 1.11.49 1.11.46 1.11.44 1.11.41 1.11.37 1.1.35 1.1.33 1.1.29 1.09.27 1.09.24 1.1.21 1.09.18 1.08.16 1.09.14 1.08.11 1.08.08 1.09.05 1.07.04h1.08l1.08-.01 1.07-.05 1.08-.06 1.07-.09 1.07-.11 1.07-.14 1.07-.16 1.06-.18 1.07-.2 1.07-.23 1.06-.24 1.07-.27 1.06-.29 1.06-.32 1.06-.33 1.06-.35 1.07-.37 1.06-.39 1.06-.42 1.06-.43 1.06-.45 1.06-.47 1.06-.49 1.06-.5 1.06-.53 1.06-.54 1.06-.56 1.06-.58 1.06-.59 1.06-.61 1.06-.63 1.06-.64 1.06-.66 1.07-.67 1.06-.69 1.06-.71 1.07-.72 1.06-.73 1.07-.75 1.07-.77 1.07-.77 1.07-.79 1.07-.8 1.07-.82 1.08-.83 1.07-.84 1.08-.85 1.07-.87 1.08-.88 1.09-.88 1.08-.9 1.08-.91 1.09-.92 1.09-.94 1.09-.94 1.09-.95 1.09-.96 1.1-.97 1.1-.97-1.08.34-1.08.33-1.08.34-1.08.33-1.08.33-1.08.33-1.08.32-1.08.32-1.08.32-1.08.32-1.09.31-1.08.31-1.08.31-1.08.3-1.08.3-1.08.3-1.08.29-1.08.29-1.08.29-1.08.28-1.08.28-1.08.28-1.08.27-1.08.27-1.08.26-1.08.26-1.08.26-1.08.25-1.08.25-1.08.24-1.08.24-1.08.24-1.08.23-1.08.22-1.08.23-1.08.21-1.09.21-1.08.21-1.08.2-1.08.2-1.08.19-1.08.19-1.08.18-1.08.18-1.08.17-1.08.16-1.08.17-1.08.15-1.08.15-1.08.14-1.08.14-1.08.13-1.08.13-1.08.12-1.08.11-1.08.11-1.08.1-1.08.1-1.08.09-1.08.08-1.08.08-1.09.07-1.08.06-1.08.06-1.08.05-1.08.04-1.08.04-1.08.03-1.08.02-1.08.02-1.08.01h-1.08l-1.08-.01-1.08-.01-1.08-.02-1.08-.03-1.08-.04-1.08-.04-1.08-.05-1.08-.06-1.08-.07-1.08-.07-1.08-.08-1.08-.09-1.08-.1-1.08-.11-1.08-.11-1.09-.13-1.08-.13-1.08-.14-1.08-.15-1.08-.16-1.08-.16-1.08-.18-1.08-.18-1.08-.19-1.08-.2-1.08-.22-1.08-.21" filter="url(#a)"/></svg>