<svg viewBox="-100 -100 200 200" xmlns="http://www.w3.org/2000/svg" width="500" height="500" id="face-svg">
    <defs>
      <clipPath id="leftEyeClipPath">
        <polyline points="37.08,11.72 36.86,11.43 36.59,11.13 36.28,10.82 35.94,10.5 35.56,10.17 35.13,9.83 34.68,9.48 34.18,9.12 33.66,8.74 33.1,8.35 32.5,7.96 31.88,7.55 31.23,7.13 30.55,6.7 29.84,6.26 29.1,5.89 28.32,5.48 27.5,5.05 26.64,4.59 25.75,4.11 24.82,3.6 23.86,3.08 22.86,2.54 21.84,1.98 20.79,1.42 19.72,0.84 18.63,0.27 17.51,-0.31 16.39,-0.89 15.24,-1.47 14.09,-2.04 12.93,-2.59 11.76,-3.14 10.58,-3.67 9.41,-4.18 8.23,-4.67 7.06,-5.14 5.89,-5.59 4.73,-6.01 3.58,-6.4 2.44,-6.76 1.32,-7.09 0.2,-7.39 -0.89,-7.65 -1.97,-7.89 -3.03,-8.09 -4.07,-8.25 -5.08,-8.38 -6.08,-8.48 -7.05,-8.54 -7.99,-8.57 -8.92,-8.57 -9.81,-8.54 -10.68,-8.47 -11.52,-8.38 -12.34,-8.26 -13.13,-8.12 -13.89,-7.95 -14.63,-7.76 -15.34,-7.55 -16.03,-7.33 -16.69,-7.09 -17.32,-6.84 -17.94,-6.58 -18.53,-6.31 -19.1,-6.03 -19.64,-5.75 -20.17,-5.45 -20.68,-5.15 -21.16,-4.84 -21.63,-4.52 -22.08,-4.19 -22.5,-3.87 -22.91,-3.54 -23.3,-3.21 -23.67,-2.88 -24.03,-2.55 -24.36,-2.22 -24.68,-1.9 -25.07,0.66 -24.82,0.67 -24.55,0.67 -24.27,0.68 -23.97,0.68 -23.67,0.68 -23.35,0.68 -23.01,0.69 -22.67,0.69 -22.3,0.7 -21.93,0.72 -21.54,0.74 -21.14,0.76 -20.72,0.79 -20.29,0.83 -19.85,0.88 -19.38,0.93 -18.9,0.99 -18.41,1.06 -17.9,1.14 -17.36,1.23 -16.81,1.33 -16.25,1.45 -15.66,1.59 -15.05,1.74 -14.43,1.92 -13.78,2.11 -13.12,2.32 -12.43,2.56 -11.73,2.81 -11,3.09 -10.25,3.38 -9.49,3.7 -8.7,4.03 -7.9,4.38 -7.07,4.76 -6.23,5.14 -5.37,5.55 -4.48,5.97 -3.58,6.4 -2.66,6.84 -1.73,7.29 -0.77,7.75 0.2,8.21 1.18,8.67 2.18,9.14 3.2,9.6 4.23,10.05 5.27,10.5 6.32,10.94 7.39,11.36 8.46,11.77 9.54,12.15 10.63,12.52 11.73,12.86 12.83,13.17 13.93,13.46 15.04,13.71 16.15,13.92 17.25,14.1 18.35,14.25 19.45,14.35 20.54,14.41 21.62,14.43 22.69,14.41 23.58,14.55 24.46,14.67 25.33,14.77 26.19,14.86 27.03,14.92 27.85,14.97 28.66,15 29.45,15.01 30.21,15.01 30.95,14.99 31.67,14.96 32.36,14.92 33.02,14.86 33.64,14.79 34.24,14.71" />
      </clipPath>
      <clipPath id="rightEyeClipPath">
        <polyline points="-36.14,12.88 -35.92,12.63 -35.66,12.38 -35.36,12.11 -35.02,11.84 -34.65,11.56 -34.23,11.28 -33.79,10.98 -33.3,10.68 -32.79,10.36 -32.24,10.04 -31.66,9.71 -31.05,9.37 -30.41,9.03 -29.75,8.67 -29.05,8.31 -28.34,8 -27.58,7.67 -26.78,7.31 -25.95,6.94 -25.07,6.54 -24.17,6.13 -23.22,5.71 -22.25,5.27 -21.25,4.82 -20.22,4.36 -19.16,3.89 -18.09,3.43 -16.99,2.96 -15.88,2.49 -14.75,2.02 -13.61,1.56 -12.46,1.11 -11.31,0.67 -10.14,0.24 -8.98,-0.18 -7.81,-0.58 -6.65,-0.96 -5.49,-1.33 -4.34,-1.67 -3.19,-2 -2.06,-2.3 -0.94,-2.58 0.17,-2.84 1.26,-3.07 2.34,-3.28 3.39,-3.46 4.43,-3.62 5.44,-3.76 6.43,-3.87 7.4,-3.96 8.34,-4.02 9.26,-4.06 10.15,-4.08 11.01,-4.08 11.85,-4.06 12.66,-4.02 13.45,-3.97 14.2,-3.9 14.93,-3.81 15.63,-3.72 16.31,-3.62 16.96,-3.51 17.58,-3.39 18.18,-3.27 18.76,-3.15 19.31,-3.03 19.84,-2.91 20.35,-2.78 20.84,-2.65 21.3,-2.51 21.75,-2.38 22.17,-2.25 22.57,-2.12 22.95,-2 23.31,-1.87 23.65,-1.76 23.97,-1.65 24.27,-1.54 24.55,-1.45 25.44,-0.36 25.15,-0.55 24.84,-0.74 24.53,-0.92 24.19,-1.11 23.85,-1.29 23.49,-1.47 23.12,-1.65 22.74,-1.82 22.34,-1.98 21.93,-2.13 21.51,-2.27 21.08,-2.41 20.63,-2.52 20.16,-2.63 19.69,-2.72 19.19,-2.81 18.68,-2.88 18.16,-2.94 17.62,-2.98 17.06,-3 16.48,-3 15.89,-2.97 15.28,-2.92 14.66,-2.84 14.01,-2.73 13.35,-2.6 12.67,-2.43 11.98,-2.23 11.27,-2 10.53,-1.73 9.79,-1.44 9.02,-1.11 8.24,-0.75 7.44,-0.36 6.62,0.06 5.79,0.51 4.94,0.98 4.07,1.48 3.19,2 2.3,2.54 1.39,3.1 0.46,3.67 -0.48,4.26 -1.43,4.86 -2.4,5.46 -3.38,6.07 -4.37,6.67 -5.37,7.27 -6.39,7.87 -7.41,8.45 -8.44,9.02 -9.48,9.57 -10.52,10.09 -11.57,10.6 -12.63,11.07 -13.69,11.5 -14.75,11.91 -15.81,12.27 -16.87,12.59 -17.93,12.86 -18.99,13.09 -20.03,13.27 -21.08,13.4 -22.11,13.47 -22.97,13.73 -23.82,13.96 -24.65,14.17 -25.48,14.36 -26.29,14.52 -27.09,14.66 -27.86,14.79 -28.63,14.89 -29.37,14.97 -30.08,15.03 -30.78,15.07 -31.45,15.09 -32.09,15.09 -32.7,15.08 -33.28,15.05" />
      </clipPath>
      <filter id="fuzzy">
        <feTurbulence id="turbulence" baseFrequency="0.05" numOctaves="3" type="noise" result="noise" />
        <feDisplacementMap in="SourceGraphic" in2="noise" scale="2" />
      </filter>
      <linearGradient id="rainbowGradient" x1="0%" y1="0%" x2="100%" y2="0%">
        <stop offset="0%" style="stop-color: rgb(59, 93, 124); stop-opacity: 1" />
        <stop offset="50%" style="stop-color: rgb(159, 3, 122); stop-opacity: 1" />
        <stop offset="100%" style="stop-color: rgb(215, 120, 225); stop-opacity: 1" />
      </linearGradient>
    </defs>
    <rect x="-100" y="-100" width="100%" height="100%" fill="rgb(242, 166, 187)" />
    <polyline id="faceContour" points="79.15,0.17 79.24,1.24 78.98,2.29 79.1,3.02 78.97,6.58 78.82,5.27 78.68,8.96 78.69,8.5 78.23,10.57 78.28,12.82 78.1,13.77 77.55,15.98 77.65,14.93 77.52,16.84 77.24,18.83 77.06,19.03 76.88,18.4 76.25,20.97 75.83,23.76 75.54,24.18 74.57,27.63 74.64,27.7 74.24,28.48 73.97,29.47 73.6,30.41 72.81,32.47 73.11,31.62 72.53,32.48 71.16,35.9 71.61,35.36 69.53,39.23 69.5,38.89 69.64,38.92 68.87,40.89 68.7,41.21 67.62,42.93 66.61,44.68 66.27,44.89 64.73,47.71 64.09,48.12 62.46,50.82 64.13,48.48 62.42,50.99 61.89,51.59 60.99,52.53 60.47,53.45 59.55,54.99 58.46,55.96 57.23,56.83 57.19,57.11 55.83,58.54 55.78,58.46 55.18,59.15 52.36,61.73 52.35,61.91 52.01,61.98 50.45,63.66 49.26,64.36 48.55,65.36 47.35,66.27 46.09,67.17 44.85,68.41 45.38,67.88 44.82,68.11 42.69,69.74 42.79,69.52 38.68,72.12 38.94,72.14 39.59,71.76 37.63,73 34.92,74.2 36.25,73.52 34.27,74.32 32.8,75.15 30.42,76.42 31.77,75.57 29.02,77.16 27.32,77.78 27.73,77.16 26.22,78.05 24.2,78.63 22.62,79.13 22.47,79.34 22.36,79.53 18.29,80.53 19.14,80.03 17.81,80.32 16.54,80.75 15.97,80.88 13.91,81.64 12.71,81.48 10.91,81.76 11.46,81.88 8.79,82.14 5.98,82.7 8.14,82.43 4.86,82.57 3.32,82.73 2.92,82.52 1.81,82.78 0.7,82.54 -2.79,82.7 -1.06,82.81 -2.63,82.48 -4.25,82.63 -5.42,82.35 -7.72,82.25 -8.1,82.36 -10.34,82.18 -11.95,81.92 -12.91,81.69 -13.76,81.52 -14.16,81.58 -14.85,81.21 -17.56,80.87 -20.23,80.01 -19.67,80.08 -20.14,79.73 -21.63,79.37 -23.34,78.72 -23.53,78.99 -26.05,78.23 -26.98,77.81 -27.48,77.38 -30.9,76.18 -30.51,76.1 -30.26,76.39 -32.7,75.45 -33.07,75.34 -34.36,74.37 -37.5,72.51 -38.54,71.96 -37.61,72.71 -39.54,71.63 -40.86,71.04 -42.85,69.85 -42.49,69.38 -41.95,70.05 -44.62,68.28 -44.92,68.2 -46,67.14 -47.75,65.73 -48.38,65.55 -49.08,64.54 -51.41,62.56 -52.71,61.63 -51.37,62.87 -53.36,61.04 -54.57,60 -54.95,59.62 -56.68,58.14 -57.42,56.78 -58.93,55.66 -59.31,54.22 -59.96,53.62 -58.98,54.7 -61.83,52 -62.27,50.87 -62.76,49.87 -63.02,49.97 -63.1,50.03 -65.11,46.76 -64.4,47.92 -65.77,46.26 -65.51,45.95 -66.99,43.94 -68.62,41.33 -68.37,41.55 -69.57,39.43 -70.13,38.06 -70.1,38.08 -70.3,37.52 -71.46,34.91 -72.62,33.17 -72.9,32.4 -73.23,31.58 -73.28,30.82 -74.12,29.54 -74.65,27.87 -75.05,25.81 -74.72,26.14 -75.95,23.04 -75.64,24.69 -76.22,21.39 -76.64,20.65 -76.7,20.38 -77.3,18.04 -77.23,16.97 -77.55,16.26 -78.19,12.84 -77.89,12.71 -78.52,10.22 -78.02,12.24 -78.74,7.35 -78.62,6.69 -78.67,8.14 -78.83,7.18 -79.13,3.79 -78.82,4.28 -79.09,1.62 -79.22,-1.03 -79.22,-1.34 -78.9,-1.99 -78.88,-3.59 -78.92,-5.91 -78.64,-7.73 -79.05,-6.08 -78.68,-9.92 -78.42,-10.25 -78.35,-11.89 -78.1,-12.98 -78.21,-13.41 -77.6,-15.02 -77.55,-16.58 -77.2,-18.16 -76.81,-18.73 -76.54,-19.96 -76.6,-20.92 -75.93,-23.07 -75.24,-25.01 -75.15,-26.69 -74.55,-27.38 -74.48,-27.64 -74.24,-28.56 -72.97,-32.05 -73.33,-31.35 -73.23,-31.22 -72.07,-34.37 -71.49,-35.33 -71.79,-35.01 -70.61,-37.47 -70.22,-37.67 -69.06,-39.65 -68.82,-40.61 -68.24,-42.35 -68.01,-42.36 -67.51,-43.21 -65.96,-45.52 -66.15,-45.31 -64.47,-47.83 -64.05,-48.26 -63.7,-49.26 -62.7,-50.15 -61.81,-51.3 -60.85,-52.81 -61.42,-52.15 -58.08,-55.64 -57.83,-56.27 -57.69,-56.74 -56.35,-57.77 -55.18,-59.39 -54,-60.03 -54.9,-59.32 -53.11,-61.52 -52.46,-61.98 -51.28,-62.68 -49.58,-64.6 -49.33,-64.72 -49.31,-64.42 -46.99,-66.19 -46.58,-66.78 -46.51,-66.77 -44.74,-68.33 -43.98,-68.77 -43.2,-69.49 -41.37,-70.68 -41.25,-70.49 -39.03,-71.97 -38.74,-72.11 -39.02,-71.71 -36.46,-73.42 -35.13,-74.09 -34.73,-74.34 -32.83,-75.58 -31.33,-75.85 -28.81,-77.11 -30.35,-76.6 -26.72,-77.74 -26.13,-78.01 -24.12,-78.75 -23.96,-78.54 -23.49,-79.01 -22.87,-79.15 -20.68,-79.43 -20.32,-80.09 -17.07,-80.54 -16.23,-81.14 -17,-80.6 -14.68,-81.08 -12.94,-81.63 -12.32,-81.85 -11.99,-81.86 -9.45,-82.25 -7.52,-82.28 -6.44,-82.51 -5.58,-82.65 -6.48,-82.45 -4.25,-82.61 -4.46,-82.33 -0.52,-82.67 1.09,-82.64 2.19,-82.82 2.53,-82.65 4.06,-82.55 4.42,-82.52 8.19,-82.04 7.01,-82.15 8.61,-82.37 10.34,-82.02 11.28,-81.73 13.62,-81.33 14.67,-81.05 14.7,-80.98 15.71,-81.14 15.73,-81.02 19.33,-80.06 18.83,-80.48 20.08,-80.06 22.34,-79.55 25.34,-78.35 24.9,-78.4 24.83,-78.58 26.24,-77.76 28.47,-77.31 28.28,-77.2 30.3,-76.4 31.96,-75.92 32.06,-75.52 33.44,-75.07 32.79,-75.12 36.78,-73.29 36.25,-73.23 38.58,-72.17 38.77,-72.1 40.08,-71.23 41.15,-70.83 43.31,-68.96 43.71,-69.08 44.4,-68.39 45.87,-67.33 45.95,-67.08 47.7,-66 48.24,-65.53 49.67,-64.23 49.24,-64.54 50.43,-63.77 52.4,-61.78 51.84,-62.27 54.88,-59.7 53.58,-60.73 54.33,-60.06 55.94,-58.2 59.16,-55.2 58.58,-55.5 59.58,-54.58 60.1,-53.49 62.06,-51.45 61.73,-51.6 61.76,-51.24 63.32,-49.59 63.47,-49.61 65.15,-46.98 64.22,-47.95 66.11,-44.91 66.62,-44.46 67.55,-43.01 67.95,-42.09 68.76,-40.53 69.9,-39.05 69.92,-38.33 69.8,-38.94 71.01,-36.19 71.64,-35.31 71.95,-34.15 72.09,-34.07 73.17,-31.62 74.05,-29.21 73.83,-28.98 73.67,-29.32 74.63,-26.86 75.32,-25.79 76.04,-22.31 76.19,-22.08 75.93,-23.22 76.22,-22.26 76.56,-19.99 76.99,-18.96 77.42,-15.93 77.56,-16.08 77.49,-16.25 78.27,-11.8 78.37,-10.82 78.13,-11.86 78.62,-9.34 78.81,-6.13 78.99,-6.97 79.13,-4.54 78.93,-3.87 79.1,-3.37 79.18,-2.47 79.15,0.17 79.24,1.24" fill="rgb(32, 223, 171)" stroke="black" stroke-width="1.6666666666666665" stroke-linejoin="round" filter="url(#fuzzy)" />
    <g transform="translate(50.84 -28.42)">
      <polyline id="rightCountour" points="-36.14,12.88 -35.92,12.63 -35.66,12.38 -35.36,12.11 -35.02,11.84 -34.65,11.56 -34.23,11.28 -33.79,10.98 -33.3,10.68 -32.79,10.36 -32.24,10.04 -31.66,9.71 -31.05,9.37 -30.41,9.03 -29.75,8.67 -29.05,8.31 -28.34,8 -27.58,7.67 -26.78,7.31 -25.95,6.94 -25.07,6.54 -24.17,6.13 -23.22,5.71 -22.25,5.27 -21.25,4.82 -20.22,4.36 -19.16,3.89 -18.09,3.43 -16.99,2.96 -15.88,2.49 -14.75,2.02 -13.61,1.56 -12.46,1.11 -11.31,0.67 -10.14,0.24 -8.98,-0.18 -7.81,-0.58 -6.65,-0.96 -5.49,-1.33 -4.34,-1.67 -3.19,-2 -2.06,-2.3 -0.94,-2.58 0.17,-2.84 1.26,-3.07 2.34,-3.28 3.39,-3.46 4.43,-3.62 5.44,-3.76 6.43,-3.87 7.4,-3.96 8.34,-4.02 9.26,-4.06 10.15,-4.08 11.01,-4.08 11.85,-4.06 12.66,-4.02 13.45,-3.97 14.2,-3.9 14.93,-3.81 15.63,-3.72 16.31,-3.62 16.96,-3.51 17.58,-3.39 18.18,-3.27 18.76,-3.15 19.31,-3.03 19.84,-2.91 20.35,-2.78 20.84,-2.65 21.3,-2.51 21.75,-2.38 22.17,-2.25 22.57,-2.12 22.95,-2 23.31,-1.87 23.65,-1.76 23.97,-1.65 24.27,-1.54 24.55,-1.45 25.44,-0.36 25.15,-0.55 24.84,-0.74 24.53,-0.92 24.19,-1.11 23.85,-1.29 23.49,-1.47 23.12,-1.65 22.74,-1.82 22.34,-1.98 21.93,-2.13 21.51,-2.27 21.08,-2.41 20.63,-2.52 20.16,-2.63 19.69,-2.72 19.19,-2.81 18.68,-2.88 18.16,-2.94 17.62,-2.98 17.06,-3 16.48,-3 15.89,-2.97 15.28,-2.92 14.66,-2.84 14.01,-2.73 13.35,-2.6 12.67,-2.43 11.98,-2.23 11.27,-2 10.53,-1.73 9.79,-1.44 9.02,-1.11 8.24,-0.75 7.44,-0.36 6.62,0.06 5.79,0.51 4.94,0.98 4.07,1.48 3.19,2 2.3,2.54 1.39,3.1 0.46,3.67 -0.48,4.26 -1.43,4.86 -2.4,5.46 -3.38,6.07 -4.37,6.67 -5.37,7.27 -6.39,7.87 -7.41,8.45 -8.44,9.02 -9.48,9.57 -10.52,10.09 -11.57,10.6 -12.63,11.07 -13.69,11.5 -14.75,11.91 -15.81,12.27 -16.87,12.59 -17.93,12.86 -18.99,13.09 -20.03,13.27 -21.08,13.4 -22.11,13.47 -22.97,13.73 -23.82,13.96 -24.65,14.17 -25.48,14.36 -26.29,14.52 -27.09,14.66 -27.86,14.79 -28.63,14.89 -29.37,14.97 -30.08,15.03 -30.78,15.07 -31.45,15.09 -32.09,15.09 -32.7,15.08 -33.28,15.05" fill="white" stroke="white" stroke-width="0" stroke-linejoin="round" filter="url(#fuzzy)" />
    </g>
    <g transform="translate(-45.75 -25)">
      <polyline id="leftCountour" points="37.08,11.72 36.86,11.43 36.59,11.13 36.28,10.82 35.94,10.5 35.56,10.17 35.13,9.83 34.68,9.48 34.18,9.12 33.66,8.74 33.1,8.35 32.5,7.96 31.88,7.55 31.23,7.13 30.55,6.7 29.84,6.26 29.1,5.89 28.32,5.48 27.5,5.05 26.64,4.59 25.75,4.11 24.82,3.6 23.86,3.08 22.86,2.54 21.84,1.98 20.79,1.42 19.72,0.84 18.63,0.27 17.51,-0.31 16.39,-0.89 15.24,-1.47 14.09,-2.04 12.93,-2.59 11.76,-3.14 10.58,-3.67 9.41,-4.18 8.23,-4.67 7.06,-5.14 5.89,-5.59 4.73,-6.01 3.58,-6.4 2.44,-6.76 1.32,-7.09 0.2,-7.39 -0.89,-7.65 -1.97,-7.89 -3.03,-8.09 -4.07,-8.25 -5.08,-8.38 -6.08,-8.48 -7.05,-8.54 -7.99,-8.57 -8.92,-8.57 -9.81,-8.54 -10.68,-8.47 -11.52,-8.38 -12.34,-8.26 -13.13,-8.12 -13.89,-7.95 -14.63,-7.76 -15.34,-7.55 -16.03,-7.33 -16.69,-7.09 -17.32,-6.84 -17.94,-6.58 -18.53,-6.31 -19.1,-6.03 -19.64,-5.75 -20.17,-5.45 -20.68,-5.15 -21.16,-4.84 -21.63,-4.52 -22.08,-4.19 -22.5,-3.87 -22.91,-3.54 -23.3,-3.21 -23.67,-2.88 -24.03,-2.55 -24.36,-2.22 -24.68,-1.9 -25.07,0.66 -24.82,0.67 -24.55,0.67 -24.27,0.68 -23.97,0.68 -23.67,0.68 -23.35,0.68 -23.01,0.69 -22.67,0.69 -22.3,0.7 -21.93,0.72 -21.54,0.74 -21.14,0.76 -20.72,0.79 -20.29,0.83 -19.85,0.88 -19.38,0.93 -18.9,0.99 -18.41,1.06 -17.9,1.14 -17.36,1.23 -16.81,1.33 -16.25,1.45 -15.66,1.59 -15.05,1.74 -14.43,1.92 -13.78,2.11 -13.12,2.32 -12.43,2.56 -11.73,2.81 -11,3.09 -10.25,3.38 -9.49,3.7 -8.7,4.03 -7.9,4.38 -7.07,4.76 -6.23,5.14 -5.37,5.55 -4.48,5.97 -3.58,6.4 -2.66,6.84 -1.73,7.29 -0.77,7.75 0.2,8.21 1.18,8.67 2.18,9.14 3.2,9.6 4.23,10.05 5.27,10.5 6.32,10.94 7.39,11.36 8.46,11.77 9.54,12.15 10.63,12.52 11.73,12.86 12.83,13.17 13.93,13.46 15.04,13.71 16.15,13.92 17.25,14.1 18.35,14.25 19.45,14.35 20.54,14.41 21.62,14.43 22.69,14.41 23.58,14.55 24.46,14.67 25.33,14.77 26.19,14.86 27.03,14.92 27.85,14.97 28.66,15 29.45,15.01 30.21,15.01 30.95,14.99 31.67,14.96 32.36,14.92 33.02,14.86 33.64,14.79 34.24,14.71" fill="white" stroke="white" stroke-width="0" stroke-linejoin="round" filter="url(#fuzzy)" />
    </g>
    <g transform="translate(50.84 -28.42)">
      <polyline id="rightUpper" points="-35.98,15.18 -36.2,14.95 -36.37,14.72 -36.5,14.5 -36.58,14.28 -36.62,14.05 -36.61,13.83 -36.56,13.6 -36.46,13.36 -36.32,13.13 -36.14,12.88 -35.92,12.63 -35.66,12.38 -35.36,12.11 -35.02,11.84 -34.65,11.56 -34.23,11.28 -33.79,10.98 -33.3,10.68 -32.79,10.36 -32.24,10.04 -31.66,9.71 -31.05,9.37 -30.41,9.03 -29.75,8.67 -29.05,8.31 -28.34,8 -27.58,7.67 -26.78,7.31 -25.95,6.94 -25.07,6.54 -24.17,6.13 -23.22,5.71 -22.25,5.27 -21.25,4.82 -20.22,4.36 -19.16,3.89 -18.09,3.43 -16.99,2.96 -15.88,2.49 -14.75,2.02 -13.61,1.56 -12.46,1.11 -11.31,0.67 -10.14,0.24 -8.98,-0.18 -7.81,-0.58 -6.65,-0.96 -5.49,-1.33 -4.34,-1.67 -3.19,-2 -2.06,-2.3 -0.94,-2.58 0.17,-2.84 1.26,-3.07 2.34,-3.28 3.39,-3.46 4.43,-3.62 5.44,-3.76 6.43,-3.87 7.4,-3.96 8.34,-4.02 9.26,-4.06 10.15,-4.08 11.01,-4.08 11.85,-4.06 12.66,-4.02 13.45,-3.97 14.2,-3.9 14.93,-3.81 15.63,-3.72 16.31,-3.62 16.96,-3.51 17.58,-3.39 18.18,-3.27 18.76,-3.15 19.31,-3.03 19.84,-2.91 20.35,-2.78 20.84,-2.65 21.3,-2.51 21.75,-2.38 22.17,-2.25 22.57,-2.12 22.95,-2 23.31,-1.87 23.65,-1.76 23.97,-1.65 24.27,-1.54 24.55,-1.45 24.82,-1.36 25.06,-1.28 25.29,-1.21 25.51,-1.14 25.7,-1.09 25.88,-1.05 26.04,-1.02 26.19,-1 26.32,-0.99 26.44,-0.99" fill="none" stroke="black" stroke-width="1.6666666666666665" stroke-linejoin="round" filter="url(#fuzzy)" />
      <polyline id="rightLower" points="-36.8,14.48 -36.68,14.52 -36.49,14.58 -36.25,14.64 -35.96,14.71 -35.62,14.78 -35.24,14.84 -34.81,14.91 -34.34,14.97 -33.83,15.02 -33.28,15.05 -32.7,15.08 -32.09,15.09 -31.45,15.09 -30.78,15.07 -30.08,15.03 -29.37,14.97 -28.63,14.89 -27.86,14.79 -27.09,14.66 -26.29,14.52 -25.48,14.36 -24.65,14.17 -23.82,13.96 -22.97,13.73 -22.11,13.47 -21.08,13.4 -20.03,13.27 -18.99,13.09 -17.93,12.86 -16.87,12.59 -15.81,12.27 -14.75,11.91 -13.69,11.5 -12.63,11.07 -11.57,10.6 -10.52,10.09 -9.48,9.57 -8.44,9.02 -7.41,8.45 -6.39,7.87 -5.37,7.27 -4.37,6.67 -3.38,6.07 -2.4,5.46 -1.43,4.86 -0.48,4.26 0.46,3.67 1.39,3.1 2.3,2.54 3.19,2 4.07,1.48 4.94,0.98 5.79,0.51 6.62,0.06 7.44,-0.36 8.24,-0.75 9.02,-1.11 9.79,-1.44 10.53,-1.73 11.27,-2 11.98,-2.23 12.67,-2.43 13.35,-2.6 14.01,-2.73 14.66,-2.84 15.28,-2.92 15.89,-2.97 16.48,-3 17.06,-3 17.62,-2.98 18.16,-2.94 18.68,-2.88 19.19,-2.81 19.69,-2.72 20.16,-2.63 20.63,-2.52 21.08,-2.41 21.51,-2.27 21.93,-2.13 22.34,-1.98 22.74,-1.82 23.12,-1.65 23.49,-1.47 23.85,-1.29 24.19,-1.11 24.53,-0.92 24.84,-0.74 25.15,-0.55 25.44,-0.36 25.72,-0.17 25.99,0.01 26.25,0.19 26.49,0.36 26.73,0.53 26.95,0.7 27.16,0.86 27.36,1.01 27.54,1.16 27.72,1.3" fill="none" stroke="black" stroke-width="2.2222222222222223" stroke-linejoin="round" filter="url(#fuzzy)" />
      <circle r="3.856" cx="-21.149894968932287" cy="9.776853373370777" stroke="black" fill="none" stroke-width="1.0" filter="url(#fuzzy)" clip-path="url(#rightEyeClipPath)" /><circle r="3.916" cx="-20.28489496893229" cy="11.026853373370777" stroke="black" fill="none" stroke-width="1.0" filter="url(#fuzzy)" clip-path="url(#rightEyeClipPath)" /><circle r="4.912" cx="-21.429894968932288" cy="11.666853373370776" stroke="black" fill="none" stroke-width="1.0" filter="url(#fuzzy)" clip-path="url(#rightEyeClipPath)" /><circle r="4.074" cx="-20.994894968932286" cy="10.461853373370776" stroke="black" fill="none" stroke-width="1.0" filter="url(#fuzzy)" clip-path="url(#rightEyeClipPath)" /><circle r="4.156" cx="-19.779894968932286" cy="10.571853373370777" stroke="black" fill="none" stroke-width="1.0" filter="url(#fuzzy)" clip-path="url(#rightEyeClipPath)" /><circle r="4.982" cx="-22.359894968932288" cy="8.981853373370775" stroke="black" fill="none" stroke-width="1.0" filter="url(#fuzzy)" clip-path="url(#rightEyeClipPath)" /><circle r="4.438" cx="-18.78489496893229" cy="11.001853373370777" stroke="black" fill="none" stroke-width="1.0" filter="url(#fuzzy)" clip-path="url(#rightEyeClipPath)" /><circle r="3.7199999999999998" cx="-19.74989496893229" cy="11.506853373370776" stroke="black" fill="none" stroke-width="1.0" filter="url(#fuzzy)" clip-path="url(#rightEyeClipPath)" /><circle r="3.186" cx="-21.33989496893229" cy="11.861853373370776" stroke="black" fill="none" stroke-width="1.0" filter="url(#fuzzy)" clip-path="url(#rightEyeClipPath)" /><circle r="4.818" cx="-20.074894968932288" cy="12.451853373370776" stroke="black" fill="none" stroke-width="1.0" filter="url(#fuzzy)" clip-path="url(#rightEyeClipPath)" />
      </g>
    <g transform="translate(-45.75 -25)">
      <polyline id="leftUpper" points="36.81,14.3 37.05,14.05 37.25,13.8 37.39,13.55 37.49,13.3 37.53,13.05 37.53,12.79 37.49,12.53 37.4,12.27 37.26,12 37.08,11.72 36.86,11.43 36.59,11.13 36.28,10.82 35.94,10.5 35.56,10.17 35.13,9.83 34.68,9.48 34.18,9.12 33.66,8.74 33.1,8.35 32.5,7.96 31.88,7.55 31.23,7.13 30.55,6.7 29.84,6.26 29.1,5.89 28.32,5.48 27.5,5.05 26.64,4.59 25.75,4.11 24.82,3.6 23.86,3.08 22.86,2.54 21.84,1.98 20.79,1.42 19.72,0.84 18.63,0.27 17.51,-0.31 16.39,-0.89 15.24,-1.47 14.09,-2.04 12.93,-2.59 11.76,-3.14 10.58,-3.67 9.41,-4.18 8.23,-4.67 7.06,-5.14 5.89,-5.59 4.73,-6.01 3.58,-6.4 2.44,-6.76 1.32,-7.09 0.2,-7.39 -0.89,-7.65 -1.97,-7.89 -3.03,-8.09 -4.07,-8.25 -5.08,-8.38 -6.08,-8.48 -7.05,-8.54 -7.99,-8.57 -8.92,-8.57 -9.81,-8.54 -10.68,-8.47 -11.52,-8.38 -12.34,-8.26 -13.13,-8.12 -13.89,-7.95 -14.63,-7.76 -15.34,-7.55 -16.03,-7.33 -16.69,-7.09 -17.32,-6.84 -17.94,-6.58 -18.53,-6.31 -19.1,-6.03 -19.64,-5.75 -20.17,-5.45 -20.68,-5.15 -21.16,-4.84 -21.63,-4.52 -22.08,-4.19 -22.5,-3.87 -22.91,-3.54 -23.3,-3.21 -23.67,-2.88 -24.03,-2.55 -24.36,-2.22 -24.68,-1.9 -24.98,-1.58 -25.27,-1.26 -25.54,-0.95 -25.79,-0.65 -26.03,-0.35 -26.26,-0.06 -26.47,0.23 -26.67,0.5 -26.85,0.77 -27.03,1.03" fill="none" stroke="black" stroke-width="2.2222222222222223" stroke-linejoin="round" filter="url(#fuzzy)" />
      <polyline id="leftLower" points="37.76,13.8 37.64,13.86 37.47,13.94 37.24,14.03 36.95,14.12 36.61,14.22 36.22,14.33 35.79,14.43 35.31,14.53 34.79,14.62 34.24,14.71 33.64,14.79 33.02,14.86 32.36,14.92 31.67,14.96 30.95,14.99 30.21,15.01 29.45,15.01 28.66,15 27.85,14.97 27.03,14.92 26.19,14.86 25.33,14.77 24.46,14.67 23.58,14.55 22.69,14.41 21.62,14.43 20.54,14.41 19.45,14.35 18.35,14.25 17.25,14.1 16.15,13.92 15.04,13.71 13.93,13.46 12.83,13.17 11.73,12.86 10.63,12.52 9.54,12.15 8.46,11.77 7.39,11.36 6.32,10.94 5.27,10.5 4.23,10.05 3.2,9.6 2.18,9.14 1.18,8.67 0.2,8.21 -0.77,7.75 -1.73,7.29 -2.66,6.84 -3.58,6.4 -4.48,5.97 -5.37,5.55 -6.23,5.14 -7.07,4.76 -7.9,4.38 -8.7,4.03 -9.49,3.7 -10.25,3.38 -11,3.09 -11.73,2.81 -12.43,2.56 -13.12,2.32 -13.78,2.11 -14.43,1.92 -15.05,1.74 -15.66,1.59 -16.25,1.45 -16.81,1.33 -17.36,1.23 -17.9,1.14 -18.41,1.06 -18.9,0.99 -19.38,0.93 -19.85,0.88 -20.29,0.83 -20.72,0.79 -21.14,0.76 -21.54,0.74 -21.93,0.72 -22.3,0.7 -22.67,0.69 -23.01,0.69 -23.35,0.68 -23.67,0.68 -23.97,0.68 -24.27,0.68 -24.55,0.67 -24.82,0.67 -25.07,0.66 -25.32,0.65 -25.55,0.63 -25.77,0.61 -25.98,0.58 -26.18,0.55 -26.36,0.52 -26.54,0.47 -26.71,0.42 -26.86,0.37 -27,0.31" fill="none" stroke="black" stroke-width="2.2222222222222223" stroke-linejoin="round" filter="url(#fuzzy)" />
      <circle r="3.922" cx="10.46354934125955" cy="4.767124574665687" stroke="black" fill="none" stroke-width="1.0" filter="url(#fuzzy)" clip-path="url(#leftEyeClipPath)" /><circle r="4.026" cx="9.988549341259551" cy="1.8621245746656871" stroke="black" fill="none" stroke-width="1.0" filter="url(#fuzzy)" clip-path="url(#leftEyeClipPath)" /><circle r="4.698" cx="9.39354934125955" cy="3.5921245746656876" stroke="black" fill="none" stroke-width="1.0" filter="url(#fuzzy)" clip-path="url(#leftEyeClipPath)" /><circle r="3.5460000000000003" cx="8.853549341259551" cy="1.3921245746656874" stroke="black" fill="none" stroke-width="1.0" filter="url(#fuzzy)" clip-path="url(#leftEyeClipPath)" /><circle r="4.484" cx="11.39854934125955" cy="2.3771245746656877" stroke="black" fill="none" stroke-width="1.0" filter="url(#fuzzy)" clip-path="url(#leftEyeClipPath)" /><circle r="4.684" cx="9.16354934125955" cy="1.0521245746656875" stroke="black" fill="none" stroke-width="1.0" filter="url(#fuzzy)" clip-path="url(#leftEyeClipPath)" /><circle r="4.568" cx="8.27854934125955" cy="1.747124574665687" stroke="black" fill="none" stroke-width="1.0" filter="url(#fuzzy)" clip-path="url(#leftEyeClipPath)" /><circle r="3.912" cx="10.953549341259551" cy="3.6721245746656876" stroke="black" fill="none" stroke-width="1.0" filter="url(#fuzzy)" clip-path="url(#leftEyeClipPath)" /><circle r="3.596" cx="7.83354934125955" cy="1.0271245746656872" stroke="black" fill="none" stroke-width="1.0" filter="url(#fuzzy)" clip-path="url(#leftEyeClipPath)" /><circle r="3.54" cx="10.318549341259551" cy="0.7971245746656876" stroke="black" fill="none" stroke-width="1.0" filter="url(#fuzzy)" clip-path="url(#leftEyeClipPath)" />
    </g>
    <g id="hairs">
      <polyline points="30.3,-76.4 21.63,-78.76 24.09,-76.29 29.46,-71.65 32.48,-67.62 30.89,-65.48 24.14,-65.07 13.9,-65.43 4.27,-65.48 0.03,-64.63 3.51,-62.97 12.84,-60.98 22.9,-58.99 28.9,-56.99 30.15,-54.98 31.13,-53.57 37.51,-54.36 47.27,-59.23 49.24,-64.54" fill="none" stroke="rgb(103, 19, 134)" stroke-width="2" stroke-linejoin="round" filter="url(#fuzzy)" /><polyline points="-11.99,-81.86 22.4,-63.37 27.2,-62.98 30.92,-64.57 33.97,-65.49 33.68,-66.42 29.33,-68.35 22.76,-71.19 17.18,-73.69 15.04,-74.51 16.25,-73.31 17.82,-70.9 16.05,-68.3 11.42,-65.43 13.69,-60.5 37.51,-51.71 69.9,-39.05" fill="none" stroke="rgb(103, 19, 134)" stroke-width="2" stroke-linejoin="round" filter="url(#fuzzy)" /><polyline points="11.28,-81.73 14.25,-78.56 27.14,-71.15 35.5,-65.2 36.71,-62.63 31.56,-63.17 22.01,-65.38 10.75,-67.47 0.84,-68.22 -5.05,-67.46 -5.73,-65.89 -2.6,-64.68 0.65,-64.88 0.17,-66.87 -4.98,-69.96 -11.28,-72.81 -12.73,-74.82 -8.44,-76.87 -24.12,-78.75" fill="none" stroke="rgb(103, 19, 134)" stroke-width="2" stroke-linejoin="round" filter="url(#fuzzy)" /><polyline points="10.34,-82.02 23.83,-70.58 26.41,-58.68 25.71,-51.89 24.07,-49.78 19.75,-51.61 13.86,-56.16 9.6,-61.61 9.17,-66.04 11.78,-68.23 13.53,-68.33 9.7,-67.73 0.15,-68.01 -5.39,-69.85 8.92,-72.66 40.08,-71.23" fill="none" stroke="rgb(103, 19, 134)" stroke-width="2" stroke-linejoin="round" filter="url(#fuzzy)" /><polyline points="55.94,-58.2 13.34,-68.88 -18.31,-68.1 -32.54,-65.38 -32.33,-63.98 -25.01,-64.55 -18.14,-66.53 -15.55,-69.02 -16.5,-71.35 -18.15,-73.12 -18.51,-74.18 -17.69,-74.46 -16.95,-74.15 -16.97,-73.81 -17.89,-73.89 -21.31,-73.79 -28.9,-72.87 -24.12,-78.75" fill="none" stroke="rgb(103, 19, 134)" stroke-width="2" stroke-linejoin="round" filter="url(#fuzzy)" /><polyline points="-57.69,-56.74 -23.5,-60.53 11.64,-58.78 26.71,-57.07 27.92,-56.49 24.25,-57.12 20.38,-58.68 17.58,-60.44 15.73,-61.66 14.38,-62.09 13.27,-62.01 12.64,-61.82 13.05,-61.67 14.86,-61.34 17.89,-60.4 21.43,-58.62 24.74,-56.28 27.66,-54.18 30.95,-53.3 35.84,-54.08 42.43,-55.86 49.05,-56.64 54.13,-55.29 49.24,-64.54" fill="none" stroke="rgb(103, 19, 134)" stroke-width="2" stroke-linejoin="round" filter="url(#fuzzy)" /><polyline points="8.61,-82.37 19.85,-58.5 1.36,-57.88 -3.07,-59.42 4.59,-59.29 13.47,-58.46 16.87,-58.29 13.69,-59.32 6.23,-61.22 -1.91,-63.26 -7.34,-64.74 -8.07,-65.33 -4.09,-65.11 2.94,-64.5 10.94,-64.05 18.8,-64.07 26.7,-64.29 35.03,-63.95 43.03,-62.33 48.42,-59.78 47.53,-58.95 33.34,-65.41 -6.44,-82.51" fill="none" stroke="rgb(103, 19, 134)" stroke-width="2" stroke-linejoin="round" filter="url(#fuzzy)" /><polyline points="-39.03,-71.97 -20.92,-72.9 -7.12,-69.3 8.34,-68.11 17.22,-69.24 18,-71.18 14.16,-72.7 9.95,-73.55 7.97,-74.06 8.65,-74.65 10.96,-75.38 13.59,-75.95 15.72,-75.83 17.12,-74.52 17.71,-71.83 17.18,-67.97 14.86,-63.65 10,-59.9 2.52,-57.85 -6.26,-58.06 -14.01,-59.88 -21.01,-61.42 -33.83,-62.01 -43.2,-69.49" fill="none" stroke="rgb(103, 19, 134)" stroke-width="2" stroke-linejoin="round" filter="url(#fuzzy)" /><polyline points="-28.81,-77.11 31.94,-55.08 47.43,-51.75 40.83,-56.99 25.75,-63.75 11.38,-69.09 2.51,-72.32 -0.67,-73.57 -0.74,-73.3 -0.43,-72.09 -0.79,-70.53 -1,-69.01 0.34,-67.62 3.76,-66.22 8.14,-64.73 11.24,-63.29 11.32,-62.13 8.86,-61.34 7.15,-60.76 10.55,-60.28 20.9,-60.2 34.93,-60.88 46.37,-61.77 52.18,-61.41 54.88,-59.7" fill="none" stroke="rgb(103, 19, 134)" stroke-width="2" stroke-linejoin="round" filter="url(#fuzzy)" /><polyline points="-12.32,-81.85 -21.23,-75.87 -10.77,-70.86 0.21,-67.24 2.54,-65.24 -0.93,-64.74 -3.92,-65.09 -2.02,-65.47 5.43,-65.47 15.38,-65.27 22.95,-65.43 24.48,-66.25 20.15,-67.3 14.71,-67.48 14.91,-65.71 24.1,-61.77 35.75,-56.91 30.24,-55.97 -26.13,-78.01" fill="none" stroke="rgb(103, 19, 134)" stroke-width="2" stroke-linejoin="round" filter="url(#fuzzy)" /><polyline points="26.24,-77.76 24.46,-70.2 3.81,-70.85 -5.7,-71.91 -1.88,-71.75 8.98,-69.81 20.78,-66.53 29.42,-63.32 32.95,-61.54 31.85,-61.51 28.67,-62.41 26.72,-63.12 28.88,-62.54 36.7,-59.4 47.95,-53.64 51.56,-52.29 25.34,-78.35" fill="none" stroke="rgb(103, 19, 134)" stroke-width="2" stroke-linejoin="round" filter="url(#fuzzy)" /><polyline points="74.63,-26.86 46.62,-52.62 33.24,-60.9 23.74,-67.41 21.51,-71.08 26.12,-70.79 33.9,-67.62 40.65,-63.88 43.08,-61.75 39.53,-62.29 30.37,-65.08 18.08,-68.69 6.75,-71.73 0.11,-73.48 -2.25,-73.79 -8.15,-72.33 -28.36,-68.35 -53.11,-61.52" fill="none" stroke="rgb(103, 19, 134)" stroke-width="2" stroke-linejoin="round" filter="url(#fuzzy)" /><polyline points="22.34,-79.55 -1.62,-72.46 9.49,-68.46 15.75,-66.79 11.9,-66.25 3.78,-65.19 -3.38,-63.38 -7.23,-61.53 -7.22,-60.39 -3.71,-60.34 2.06,-61.36 8.29,-63.16 13.28,-65.26 16.26,-67.15 17.72,-68.45 19.09,-68.9 22,-68.38 27.47,-66.91 34.59,-65.11 39.18,-64.78 33.78,-68.5 4.06,-82.55" fill="none" stroke="rgb(103, 19, 134)" stroke-width="2" stroke-linejoin="round" filter="url(#fuzzy)" /><polyline points="66.11,-44.91 46.77,-55.97 17.75,-65.27 -3.75,-70.52 -15.4,-72.74 -19.35,-72.3 -17.05,-69.47 -9.34,-65.1 1.89,-60.68 13.2,-57.71 20.96,-57.13 23.2,-58.91 20.55,-62.19 15.73,-65.81 11.89,-68.81 11.05,-70.74 13.37,-71.54 17.31,-71.43 20.59,-70.81 21.43,-70.21 19.91,-69.93 18.74,-69.49 21.87,-67.83 28.95,-66.56 15.73,-81.02" fill="none" stroke="rgb(103, 19, 134)" stroke-width="2" stroke-linejoin="round" filter="url(#fuzzy)" /><polyline points="14.67,-81.05 7.04,-81.05 11.36,-79.31 14.61,-77.74 15.44,-76.27 16.01,-74.34 17.79,-71.76 20.62,-68.67 22.76,-65.56 21.94,-63.18 17.09,-62.12 9.64,-62.16 3.23,-62.08 1.73,-60.42 6.16,-56.94 12.22,-53.7 10.7,-54.37 -5.71,-60.91 -30.6,-68.58 -46.99,-66.19" fill="none" stroke="rgb(103, 19, 134)" stroke-width="2" stroke-linejoin="round" filter="url(#fuzzy)" /><polyline points="-5.58,-82.65 0.09,-79.5 -12.39,-76.7 -20.49,-73.68 -19.05,-70.88 -10.99,-69.07 -1.38,-68.83 6.23,-70.06 10.64,-72.03 12.1,-73.74 10.96,-74.46 6.87,-73.97 -0.7,-72.56 -10.63,-70.65 -18.2,-68.34 -15.32,-65.02 5.56,-59.09 43.12,-48.16 71.64,-35.31" fill="none" stroke="rgb(103, 19, 134)" stroke-width="2" stroke-linejoin="round" filter="url(#fuzzy)" /><polyline points="1.09,-82.64 -25.39,-70.22 -17.12,-67.53 -5.97,-67.11 -2.98,-67 -5.43,-66.77 -7.91,-66.16 -7.36,-65.2 -4.24,-64.46 -1.43,-64.72 -1.9,-66.3 -6.17,-68.76 -11.57,-71.21 -13.98,-73.04 -10.46,-74.19 -0.69,-74.6 14.33,-72.62 36.17,-62.73 71.95,-34.15" fill="none" stroke="rgb(103, 19, 134)" stroke-width="2" stroke-linejoin="round" filter="url(#fuzzy)" /><polyline points="63.32,-49.59 7.28,-66.19 -13.23,-66.94 -13.06,-62.72 -6.93,-58.17 -1.99,-55.54 -0.22,-55.52 -1.76,-57.47 -5.98,-60.04 -11.27,-61.98 -15.06,-62.82 -14.92,-62.97 -9.78,-63.34 -0.37,-64.54 10.97,-66.44 19.71,-68.38 17.99,-70.15 -3.19,-72.52 -41.37,-70.68" fill="none" stroke="rgb(103, 19, 134)" stroke-width="2" stroke-linejoin="round" filter="url(#fuzzy)" /><polyline points="25.94,-70.45 24.54,-71.45 23.74,-72.37 23.06,-73.06 22.19,-73.61 21.1,-74.13 19.91,-74.7 18.74,-75.34 17.64,-76.01 16.62,-76.63 15.66,-77.16 14.74,-77.62 13.81,-78.05 12.85,-78.54 11.83,-79.13 10.75,-79.8 9.64,-80.45 8.51,-80.98 7.37,-81.3 6.21,-81.4 5.03,-81.37 3.87,-81.45 2.83,-81.83 1.97,-82.44 1.09,-82.64 -0.52,-82.67 0.8,-83.08 1.86,-83.39 2.91,-84.15 4.11,-85.57 5.44,-87.49 6.85,-89.55 8.3,-91.48 9.8,-93.22 11.37,-94.82 12.97,-96.22 14.52,-97.25 15.93,-97.76 17.16,-97.77 18.3,-97.49 19.49,-97.37 20.92,-97.91 22.69,-99.48 24.78,-102.11 27.2,-105.27 30.13,-107.28" fill="none" stroke="rgb(103, 19, 134)" stroke-width="2" stroke-linejoin="round" filter="url(#fuzzy)" /><polyline points="-36.82,-92.95 -33.31,-92.73 -31.26,-92.91 -29.71,-92.7 -28.32,-92.09 -26.94,-91.22 -25.45,-90.23 -23.85,-89.28 -22.22,-88.46 -20.62,-87.84 -19.12,-87.4 -17.72,-87.09 -16.39,-86.87 -15.09,-86.7 -13.78,-86.54 -12.44,-86.42 -11.07,-86.37 -9.71,-86.44 -8.43,-86.53 -7.31,-86.33 -6.38,-85.49 -5.6,-84.1 -4.87,-82.95 -4.46,-82.33" fill="none" stroke="rgb(103, 19, 134)" stroke-width="2" stroke-linejoin="round" filter="url(#fuzzy)" /><polyline points="-4.46,-82.33 -4.86,-82.82 -5.54,-83.45 -6.29,-84.43 -7.24,-85.61 -8.44,-86.68 -9.83,-87.59 -11.34,-88.5 -12.9,-89.57 -14.46,-90.81 -16.03,-92.1 -17.59,-93.38 -19.2,-94.64 -20.91,-95.93 -22.74,-97.25 -24.68,-98.56 -26.67,-99.84 -28.6,-101.26 -30.38,-103.07 -31.81,-105.06 -32.67,-106.65 18.68,-96.21 17.92,-94 17.05,-92.69 16.03,-92 14.79,-91.47 13.36,-90.91 11.87,-90.43 10.43,-90.12 9.06,-90 7.76,-89.9 6.48,-89.6 5.2,-88.93 3.93,-87.94 2.63,-86.87 1.29,-86.02 -0.16,-85.58 -1.73,-85.39 -3.31,-85.01 -4.67,-84.09 -5.57,-82.96 -5.58,-82.65" fill="none" stroke="rgb(103, 19, 134)" stroke-width="2" stroke-linejoin="round" filter="url(#fuzzy)" /><polyline points="-11.99,-81.86 -9.84,-82.13 -8.25,-82.29 -7.12,-82.4 -6.23,-82.47 -5.35,-82.51 -4.32,-82.53 -3.11,-82.55 -1.77,-82.57 -0.38,-82.59 0.97,-82.59 2.25,-82.57 3.47,-82.52 4.66,-82.44 5.83,-82.35 7,-82.25 8.18,-82.13 9.39,-81.99 10.63,-81.82 11.88,-81.61 13.07,-81.4 14.1,-81.22 14.89,-81.1 15.44,-81.06 15.73,-81.02" fill="none" stroke="rgb(103, 19, 134)" stroke-width="2" stroke-linejoin="round" filter="url(#fuzzy)" /><polyline points="-11.99,-81.86 -12.48,-81.65 -13.35,-81.16 -14.42,-80.73 -15.53,-80.46 -16.65,-80.25 -17.82,-80.01 -19.01,-79.69 -20.2,-79.31 -21.32,-78.89 -22.36,-78.46 -23.32,-77.99 -24.26,-77.5 -25.23,-76.98 -26.26,-76.43 -27.36,-75.84 -28.48,-75.19 -29.62,-74.46 -30.76,-73.62 -31.91,-72.73 -33.08,-71.86 -34.27,-71.05 -35.62,-70.19 -37.49,-68.89" fill="none" stroke="rgb(103, 19, 134)" stroke-width="2" stroke-linejoin="round" filter="url(#fuzzy)" /><polyline points="77.49,-16.25 77.48,-16.34 77.31,-17.15 77.06,-18.4 76.82,-19.73 76.61,-20.93 76.42,-21.98 76.24,-22.97 76.01,-24 75.72,-25.14 75.4,-26.35 75.07,-27.61 74.75,-28.87 74.44,-30.12 74.13,-31.39 73.81,-32.67 73.46,-33.96 73.11,-35.23 72.73,-36.46 72.34,-37.62 71.93,-38.68 71.51,-39.64 71.04,-40.58 70.45,-41.72 69.81,-43.24" fill="none" stroke="rgb(103, 19, 134)" stroke-width="2" stroke-linejoin="round" filter="url(#fuzzy)" /><polyline points="69.8,-30.16 70.52,-28.77 71.18,-28.11 71.88,-27.4 72.57,-26.41 73.18,-25.21 73.65,-24.01 74,-22.98 74.32,-22.13 74.7,-21.34 75.17,-20.44 75.7,-19.33 76.26,-18.08 76.83,-16.95 77.31,-16.27 77.49,-16.25" fill="none" stroke="rgb(103, 19, 134)" stroke-width="2" stroke-linejoin="round" filter="url(#fuzzy)" /><polyline points="77.49,-16.25 78.16,-13.29 79.17,-11.86 80.49,-10.79 81.53,-9.63 82.03,-8.35 82.22,-7.06 82.48,-5.83 83.15,-4.68 84.32,-3.53 85.85,-2.34 87.43,-1.07 88.73,0.3 89.63,1.73 90.23,3.23 90.84,4.77 91.62,6.34 92.36,7.89 92.74,9.34 93.42,10.09" fill="none" stroke="rgb(103, 19, 134)" stroke-width="2" stroke-linejoin="round" filter="url(#fuzzy)" /><polyline points="-12.32,-81.85 -11.38,-82.26 -9.94,-83.05 -8.57,-83.66 -7.44,-84.05 -6.51,-84.35 -5.61,-84.59 -4.6,-84.74 -3.39,-84.81 -2.01,-84.86 -0.57,-84.94 0.84,-85.11 2.17,-85.38 3.42,-85.74 4.66,-86.21 5.92,-86.76 7.17,-87.31 8.34,-87.77 9.54,-88.07 11.13,-88.3" fill="none" stroke="rgb(103, 19, 134)" stroke-width="2" stroke-linejoin="round" filter="url(#fuzzy)" /><polyline points="-36.6,-77.19 -35.68,-77.56 -34.21,-77.95 -32.66,-78.26 -31.19,-78.5 -29.81,-78.72 -28.47,-78.96 -27.19,-79.18 -26,-79.36 -24.92,-79.48 -23.91,-79.57 -22.92,-79.68 -21.85,-79.86 -20.62,-80.1 -19.26,-80.38 -17.91,-80.64 -16.95,-80.79 -17,-80.6 -16.23,-81.14 -17.63,-80.79 -19.34,-80.69 -20.87,-80.62 -22.14,-80.51 -23.2,-80.36 -24.17,-80.25 -25.19,-80.21 -26.36,-80.3 -27.71,-80.51 -29.2,-80.79 -30.75,-81.06 -32.34,-81.27 -34.02,-81.44 -35.89,-81.69 -37.74,-81.99 -38.63,-81.49" fill="none" stroke="rgb(103, 19, 134)" stroke-width="2" stroke-linejoin="round" filter="url(#fuzzy)" /><polyline points="2.92,-95.56 2.21,-95.77 0.82,-94.25 -0.91,-92.45 -2.62,-90.91 -4.07,-89.79 -5.24,-89.03 -6.24,-88.46 -7.19,-87.86 -8.2,-87.12 -9.32,-86.21 -10.51,-85.26 -11.72,-84.36 -12.91,-83.61 -14.06,-83.01 -15.18,-82.59 -16.23,-82.37 -17.25,-82.33 -18.45,-82.11 -20.32,-80.09" fill="none" stroke="rgb(103, 19, 134)" stroke-width="2" stroke-linejoin="round" filter="url(#fuzzy)" /><polyline points="-20.32,-80.09 -18.16,-80.79 -17.14,-81.99 -16.33,-83.21 -15.4,-84.22 -14.33,-85.11 -13.17,-85.98 -11.96,-86.89 -10.72,-87.83 -9.5,-88.71 -8.35,-89.44 -7.24,-89.94 -6.15,-90.22 -4.99,-90.33 -3.71,-90.38 -2.29,-90.54 -0.78,-90.93 0.75,-91.64 2.22,-92.66 3.63,-93.84 5.02,-94.95 6.45,-95.81 7.86,-96.44 9.04,-97.13 10.32,-98.69" fill="none" stroke="rgb(103, 19, 134)" stroke-width="2" stroke-linejoin="round" filter="url(#fuzzy)" /><polyline points="-51.29,-72.25 -50.68,-72.55 -49.87,-73.04 -48.89,-73.72 -47.73,-74.29 -46.43,-74.67 -45.07,-74.92 -43.75,-75.13 -42.5,-75.39 -41.31,-75.71 -40.14,-76.11 -38.93,-76.56 -37.68,-77.07 -36.36,-77.59 -34.98,-78.09 -33.55,-78.5 -32.08,-78.75 -30.57,-78.87 -29.07,-78.89 -27.61,-78.91 -26.25,-78.95 -25.07,-79.03 -24.16,-79.13 -23.5,-79.23 -22.87,-79.15 -22.87,-79.15 -23.26,-78.43 -23.78,-77.9 -24.65,-77.7 -25.76,-77.51 -26.98,-77.18 -28.23,-76.71 -29.46,-76.12 -30.68,-75.46 -31.89,-74.71 -33.05,-73.89 -34.15,-72.98 -35.16,-72.03 -36.08,-71.06 -36.94,-70.12 -37.75,-69.27 -38.58,-68.5 -39.45,-67.8 -40.35,-67.12 -41.25,-66.4 -42.11,-65.58 -42.88,-64.67 -43.54,-63.78 -44.06,-63.06 -44.43,-62.6" fill="none" stroke="rgb(103, 19, 134)" stroke-width="2" stroke-linejoin="round" filter="url(#fuzzy)" /><polyline points="77.56,-16.08 77.66,-15.04 77.85,-13.36 78.01,-11.92 78.15,-10.64 78.28,-9.36 78.38,-8.07 78.45,-6.83 78.46,-5.66 78.43,-4.56 78.36,-3.48 78.26,-2.37 78.12,-1.2 77.94,0.04 77.69,1.3 77.41,2.57 77.13,3.86 76.89,5.02 76.59,5.12 77.56,-16.08 76.91,-16.7 75.42,-17.84 74.03,-18.99 73.26,-20.05 73.04,-21 72.99,-21.87 72.73,-22.75 72.07,-23.66 71.03,-24.58 69.84,-25.47 68.76,-26.33 67.93,-27.2 67.33,-28.18 66.68,-29.23 65.73,-30.19 64.56,-30.84 63.66,-31.38 -23.96,-78.54 -24.39,-77.74 -25.3,-76.65 -26.42,-75.73 -27.53,-74.86 -28.62,-74.03 -29.74,-73.28 -30.91,-72.57 -32.02,-71.75 -32.97,-70.66 -33.72,-69.28 -34.31,-67.76 -34.81,-66.33 -35.27,-65.08 -35.65,-63.84 -35.92,-62.37 -36.2,-60.77 -36.86,-59.29 -30.35,-76.6 -30.27,-76.93 -31.43,-76.77 -32.87,-76.37 -34.26,-75.81 -35.56,-75.19 -36.8,-74.61 -37.99,-74.14 -39.13,-73.77 -40.2,-73.42 -41.24,-73.02 -42.29,-72.57 -43.4,-72.1 -44.57,-71.63 -45.76,-71.16 -46.93,-70.62 -47.99,-70.03 -48.67,-69.78 -31.33,-75.85 -30.58,-78.39 -30.06,-80.29 -28.86,-80.83 -27.48,-80.94 -26.31,-81.36 -25.42,-82.24 -24.64,-83.37 -23.79,-84.45 -22.79,-85.34 -21.64,-86.11 -20.43,-86.92 -19.26,-87.89 -18.15,-89.08 -17.1,-90.4 -16.04,-91.77 -14.93,-93.15 -13.74,-94.63 -12.44,-96.31 -11.01,-98.18 -9.48,-100.1 -8.09,-102.17 -7.06,-104.65 -58.71,-68 -57.89,-68.73 -56.66,-69.44 -55.5,-70.14 -54.43,-70.72 -53.32,-71.13 -52.08,-71.33 -50.71,-71.36 -49.27,-71.32 -47.81,-71.27 -46.36,-71.29 -44.95,-71.37 -43.59,-71.52 -42.3,-71.73 -41.13,-72.02 -40.09,-72.39 -39.17,-72.83 -38.19,-73.3 -36.81,-73.73 -35.13,-74.09" fill="none" stroke="rgb(103, 19, 134)" stroke-width="2" stroke-linejoin="round" filter="url(#fuzzy)" /><polyline points="-16.14,-107.28 -17.28,-106.19 -18.65,-104.68 -19.74,-102.53 -20.65,-100.09 -21.57,-97.59 -22.55,-95.16 -23.53,-92.88 -24.44,-90.77 -25.28,-88.94 -26.12,-87.54 -27.07,-86.64 -28.2,-86.16 -29.44,-85.8 -30.62,-85.08 -31.57,-83.67 -32.31,-81.62 -33.05,-79.43 -34.01,-77.67 -34.95,-76.08 -35.13,-74.09" fill="none" stroke="rgb(103, 19, 134)" stroke-width="2" stroke-linejoin="round" filter="url(#fuzzy)" /><polyline points="77.42,-15.93 76.93,-18.21 76.47,-19.85 76.09,-21.05 75.75,-21.94 75.36,-22.74 74.86,-23.62 74.28,-24.64 73.71,-25.78 73.22,-26.98 72.84,-28.18 72.49,-29.38 72.09,-30.56 71.6,-31.72 71,-32.83 70.34,-33.91 69.68,-34.94 69.05,-35.92 68.46,-36.83 67.84,-37.62 67.14,-38.35 66.28,-39.24 65.35,-40.48" fill="none" stroke="rgb(103, 19, 134)" stroke-width="2" stroke-linejoin="round" filter="url(#fuzzy)" /><polyline points="77.42,-15.93 78.74,-18.69 79.52,-20.66 79.24,-21.91 78.84,-22.84 78.72,-23.8 78.82,-24.95 78.98,-26.31 79.14,-27.79 79.34,-29.35 79.65,-30.96 80.11,-32.65 80.73,-34.44 81.45,-36.33 82.22,-38.28 82.97,-40.24 83.65,-42.15 84.2,-43.97 84.59,-45.67 84.79,-47.26 84.88,-48.85 85.04,-50.66 85.51,-52.85 86.34,-55.39 86.59,-57.78" fill="none" stroke="rgb(103, 19, 134)" stroke-width="2" stroke-linejoin="round" filter="url(#fuzzy)" /><polyline points="-36.46,-73.42 -35.3,-73.82 -33.98,-74 -32.55,-74.27 -31.16,-74.69 -29.84,-75.17 -28.58,-75.62 -27.35,-76.02 -26.18,-76.37 -25.07,-76.67 -24.03,-76.93 -23,-77.11 -21.95,-77.23 -20.83,-77.29 -19.64,-77.36 -18.43,-77.47 -17.23,-77.65 -16.09,-77.85 -14.99,-78.04 -13.89,-78.14 -12.78,-78.16 -11.65,-78.13 -10.42,-78.07 -8.91,-77.9 -7.07,-77.42 -39.02,-71.71 -39.07,-71.83 -39.68,-71.52 -40.58,-70.99 -41.58,-70.38 -42.59,-69.73 -43.58,-69.04 -44.53,-68.33 -45.44,-67.62 -46.31,-66.93 -47.16,-66.25 -47.99,-65.59 -48.82,-64.94 -49.66,-64.27 -50.53,-63.54 -51.46,-62.75 -52.43,-61.87 -53.36,-60.97 -54.06,-60.17 -54,-60.03 -39.02,-71.71 -36.34,-71.44 -34.28,-70.85 -32.85,-71.12 -31.65,-71.82 -30.47,-72.54 -29.27,-73.12 -28.04,-73.46 -26.73,-73.49 -25.36,-73.17 -23.98,-72.57 -22.71,-71.85 -21.62,-71.22 -20.65,-70.7 -19.63,-70.18 -18.49,-69.66 -17.73,-69.89" fill="none" stroke="rgb(103, 19, 134)" stroke-width="2" stroke-linejoin="round" filter="url(#fuzzy)" /><polyline points="-11.48,-76.3 -12.49,-76.64 -13.71,-76.63 -14.85,-76.59 -15.96,-76.62 -17.14,-76.7 -18.4,-76.79 -19.67,-76.85 -20.87,-76.86 -21.97,-76.8 -23,-76.66 -24,-76.43 -25.03,-76.13 -26.14,-75.82 -27.36,-75.54 -28.65,-75.31 -30.01,-75.08 -31.39,-74.8 -32.78,-74.43 -34.15,-73.98 -35.52,-73.46 -36.88,-72.88 -38.16,-72.29 -38.74,-72.11" fill="none" stroke="rgb(103, 19, 134)" stroke-width="2" stroke-linejoin="round" filter="url(#fuzzy)" /><polyline points="-74.27,-76.15 -72.57,-77.19 -70.2,-76.45 -67.8,-75.45 -65.18,-74.39 -62.49,-73.41 -59.98,-72.69 -57.84,-72.29 -56.03,-72.14 -54.42,-72.08 -52.88,-71.99 -51.32,-71.81 -49.75,-71.63 -48.27,-71.58 -46.92,-71.78 -45.76,-72.31 -44.77,-73.14 -43.86,-74.11 -42.69,-74.64 -40.72,-73.75 -38.74,-72.11 -16.28,-102.74 -18.05,-100.67 -19.45,-99.68 -20.6,-98.73 -21.77,-97.52 -22.95,-96 -24.1,-94.34 -25.18,-92.79 -26.17,-91.47 -27.11,-90.32 -28.04,-89.21 -28.99,-88.09 -30.03,-86.97 -31.16,-85.92 -32.39,-84.97 -33.66,-84.05 -34.89,-83.01 -35.99,-81.66 -36.91,-79.96 -37.7,-78.06 -38.49,-76.38 -39.48,-75.41 -40.69,-75.33 -41.82,-75.22 -41.25,-70.49" fill="none" stroke="rgb(103, 19, 134)" stroke-width="2" stroke-linejoin="round" filter="url(#fuzzy)" /><polyline points="-32.02,-104.53 -33.12,-100.74 -34.44,-98.61 -35.34,-95.99 -35.92,-92.96 -36.52,-90.06 -37.36,-87.72 -38.46,-86.03 -39.6,-84.66 -40.54,-83.1 -41.1,-81.08 -41.33,-78.72 -41.47,-76.41 -41.7,-74.47 -42.1,-72.85 -42.59,-71.29 -43.17,-69.78 -43.98,-68.77" fill="none" stroke="rgb(103, 19, 134)" stroke-width="2" stroke-linejoin="round" filter="url(#fuzzy)" /><polyline points="-46.51,-66.77 -46.85,-66.58 -47.83,-66.34 -49.15,-66.31 -50.48,-66.27 -51.71,-66.02 -52.86,-65.55 -53.97,-64.92 -55.04,-64.26 -56.11,-63.65 -57.21,-63.14 -58.38,-62.7 -59.59,-62.25 -60.78,-61.68 -61.91,-60.9 -62.99,-59.92 -64.14,-58.87 -65.45,-57.89 -66.89,-57.14 -68.33,-56.54 -69.68,-55.73" fill="none" stroke="rgb(103, 19, 134)" stroke-width="2" stroke-linejoin="round" filter="url(#fuzzy)" /><polyline points="76.99,-18.96 77.27,-17.06 77.33,-15.92 77.13,-14.67 76.73,-13.28 76.29,-11.87 75.99,-10.52 75.86,-9.22 75.76,-7.96 75.5,-6.74 74.94,-5.58 74.06,-4.49 72.96,-3.44 71.8,-2.38 70.7,-1.28 69.62,-0.14 68.36,0.95 66.81,1.84 65.77,2.51" fill="none" stroke="rgb(103, 19, 134)" stroke-width="2" stroke-linejoin="round" filter="url(#fuzzy)" /><polyline points="-46.58,-66.78 -47.5,-66.14 -48.62,-65.61 -49.66,-65.21 -50.79,-64.92 -52.19,-64.76 -53.84,-64.76 -55.54,-64.83 -57.08,-64.8 -58.31,-64.53 -59.24,-63.96 -60.02,-63.12 -60.82,-62.18 -61.77,-61.43 -62.86,-61.15 -63.71,-61.03 -40.77,-102.92 -40.02,-101.61 -41.17,-100.43 -42.33,-98.32 -43.22,-95.66 -44.02,-93.09 -44.87,-90.94 -45.79,-89.27 -46.69,-87.88 -47.48,-86.49 -48.14,-84.93 -48.72,-83.23 -49.35,-81.57 -50.15,-80.18 -51.15,-79.14 -52.26,-78.36 -53.3,-77.57 -54.03,-76.46 -54.26,-74.74 -53.93,-72.32 -53.26,-69.49 -52.84,-66.92 -53.28,-65.34 -54.32,-64.52 -53.11,-61.52" fill="none" stroke="rgb(103, 19, 134)" stroke-width="2" stroke-linejoin="round" filter="url(#fuzzy)" /><polyline points="-54.9,-59.32 -53.48,-60.81 -52.24,-61.66 -50.96,-62.22 -49.7,-62.58 -48.51,-62.83 -47.38,-63.05 -46.32,-63.32 -45.31,-63.65 -44.29,-64 -43.21,-64.28 -42.04,-64.46 -40.79,-64.58 -39.53,-64.69 -38.27,-64.77 -37.03,-64.76 -35.85,-64.6 -34.98,-64.31 -34.67,-63.71" fill="none" stroke="rgb(103, 19, 134)" stroke-width="2" stroke-linejoin="round" filter="url(#fuzzy)" /><polyline points="76.56,-19.99 78.36,-18.89 79.65,-17.72 79.88,-16.47 79.93,-15.14 80.37,-13.81 81.26,-12.52 82.49,-11.27 83.86,-10.03 85.26,-8.78 86.64,-7.54 87.99,-6.32 89.32,-5.12 90.64,-3.9 91.96,-2.61 93.3,-1.23 94.63,0.25 95.9,1.8 97.14,3.44 98.57,5.14 100.41,6.92 102.5,8.73 104.1,10.46 105.54,11.4" fill="none" stroke="rgb(103, 19, 134)" stroke-width="2" stroke-linejoin="round" filter="url(#fuzzy)" /><polyline points="-58.08,-55.64 -58.02,-56.49 -57.74,-57.54 -57.16,-58.58 -56.43,-59.49 -55.66,-60.29 -54.88,-61.06 -54.07,-61.85 -53.23,-62.68 -52.37,-63.53 -51.51,-64.39 -50.7,-65.26 -49.93,-66.14 -49.2,-67.02 -48.47,-67.91 -47.72,-68.81 -46.93,-69.71 -46.1,-70.62 -45.22,-71.51 -44.29,-72.4 -43.35,-73.29 -42.44,-74.18 -41.65,-75.02 -41.16,-75.66 -41.34,-75.97" fill="none" stroke="rgb(103, 19, 134)" stroke-width="2" stroke-linejoin="round" filter="url(#fuzzy)" /><polyline points="-48.2,-89.73 -48.92,-88.73 -49.78,-87.16 -50.58,-85.51 -51.31,-83.83 -51.97,-82.14 -52.56,-80.47 -53.08,-78.83 -53.48,-77.15 -53.74,-75.38 -53.85,-73.48 -53.91,-71.53 -54.04,-69.67 -54.38,-68.03 -55.03,-66.74 -55.95,-65.8 -57.03,-65.13 -58.05,-64.51 -58.78,-63.66 -59.06,-62.32 -58.88,-60.42 -58.4,-58.25 -58.02,-56.5 -58.08,-55.64" fill="none" stroke="rgb(103, 19, 134)" stroke-width="2" stroke-linejoin="round" filter="url(#fuzzy)" /><polyline points="-95.59,-45.59 -93.95,-45.93 -92.51,-46.45 -90.21,-46.82 -87.21,-46.95 -84.12,-47.04 -81.45,-47.27 -79.39,-47.75 -77.86,-48.45 -76.64,-49.31 -75.5,-50.21 -74.25,-51.04 -72.8,-51.74 -71.17,-52.25 -69.39,-52.59 -67.59,-52.87 -65.99,-53.25 -64.73,-53.87 -63.56,-54.53 -61.51,-54.73 -58.08,-55.64 -61.42,-52.15 -59.27,-54.53 -58.18,-55.87 -57.39,-56.89 -56.68,-57.87 -56.02,-58.85 -55.42,-59.79 -54.82,-60.7 -54.16,-61.59 -53.41,-62.49 -52.59,-63.41 -51.77,-64.34 -50.98,-65.23 -50.21,-66.04 -49.42,-66.76 -48.58,-67.44 -47.92,-68.11 -47.76,-68.57" fill="none" stroke="rgb(103, 19, 134)" stroke-width="2" stroke-linejoin="round" filter="url(#fuzzy)" /><polyline points="-63.7,-49.26 -63.48,-50.76 -62.83,-51.93 -62.15,-53.11 -61.49,-54.44 -60.91,-55.95 -60.46,-57.56 -60.09,-59.17 -59.69,-60.66 -59.2,-61.94 -58.54,-62.99 -57.74,-63.84 -56.82,-64.6 -55.86,-65.37 -54.93,-66.24 -54.11,-67.24 -53.44,-68.43 -52.97,-69.81 -52.67,-71.4 -52.47,-73.11 -52.22,-74.79 -51.76,-76.23 -51.03,-77.42 -50.25,-78.6 -49.68,-79.91" fill="none" stroke="rgb(103, 19, 134)" stroke-width="2" stroke-linejoin="round" filter="url(#fuzzy)" /><polyline points="-64.05,-48.26 -63.58,-49.24 -62.94,-50.26 -62.25,-51.3 -61.5,-52.38 -60.7,-53.5 -59.87,-54.68 -59.03,-55.85 -58.24,-56.99 -57.5,-58.08 -56.82,-59.12 -56.2,-60.11 -55.62,-61.03 -55.01,-61.9 -54.26,-62.75 -53.3,-63.61 -52.15,-64.63 -50.82,-66.22 -64.05,-48.26 -64.19,-49.73 -63.46,-50.7 -62.61,-51.64 -61.75,-52.65 -60.9,-53.78 -60.13,-55.04 -59.49,-56.43 -58.99,-57.89 -58.58,-59.33 -58.16,-60.67 -57.69,-61.86 -57.11,-62.9 -56.42,-63.83 -55.65,-64.78 -54.84,-65.81 -54.07,-66.94 -53.38,-68.07 -52.81,-69.11 -52.16,-70.07 -50.66,-71.36 -67.51,-43.21 -68.44,-46.11 -69.11,-48.26 -68.47,-49.45 -67.6,-50.45 -67.07,-51.69 -66.88,-53.19 -66.76,-54.79 -66.44,-56.29 -65.8,-57.64 -64.95,-58.9 -64.1,-60.23 -63.46,-61.74 -63.11,-63.47 -63.01,-65.35 -63.06,-67.25 -63.27,-69.05 -63.64,-70.91 -63.42,-73.46" fill="none" stroke="rgb(103, 19, 134)" stroke-width="2" stroke-linejoin="round" filter="url(#fuzzy)" /><polyline points="-68.01,-42.36 -68.33,-41.84 -68.79,-40.82 -69.36,-39.67 -70,-38.52 -70.62,-37.4 -71.21,-36.32 -71.75,-35.27 -72.27,-34.23 -72.77,-33.21 -73.24,-32.21 -73.69,-31.2 -74.12,-30.19 -74.54,-29.17 -74.94,-28.15 -75.31,-27.12 -75.68,-26.01 -76.09,-24.68 -76.62,-23.04 -77.34,-21.12 -94.63,-18.32 -92.96,-19.71 -91.63,-20.95 -90.85,-22.19 -90.27,-23.53 -89.54,-24.93 -88.52,-26.34 -87.3,-27.67 -86,-28.88 -84.71,-29.97 -83.48,-30.95 -82.3,-31.87 -81.14,-32.74 -79.96,-33.56 -78.7,-34.31 -77.32,-35 -75.86,-35.66 -74.51,-36.39 -73.48,-37.3 -73,-38.53 -73.08,-40.13 -73.5,-41.99 -73.27,-43.53 -68.24,-42.35 -68.82,-40.61 -70.21,-39.99 -71.01,-38.85 -72.05,-37.89 -73.42,-37.18 -74.87,-36.54 -76.13,-35.81 -77.15,-34.97 -78.01,-34.06 -78.87,-33.13 -79.89,-32.24 -81.23,-31.42 -82.97,-30.69 -85.12,-30 -87.6,-29.28 -90.2,-28.45 -92.67,-27.45 -94.72,-26.29 -96.25,-25.03 -97.47,-23.78 -98.82,-22.58 -100.33,-21.29 -100.98,-19.55 -64.38,-69.3 -65.67,-67.83 -66.19,-66.14 -66.41,-64.3 -66.53,-62.27 -66.56,-60.13 -66.55,-58.03 -66.56,-56.1 -66.73,-54.42 -67.17,-53.04 -67.86,-51.9 -68.65,-50.86 -69.29,-49.69 -69.56,-48.26 -69.4,-46.56 -69,-44.77 -68.68,-43.16 -68.63,-41.86 -68.81,-40.73 -69.06,-39.65" fill="none" stroke="rgb(103, 19, 134)" stroke-width="2" stroke-linejoin="round" filter="url(#fuzzy)" /><polyline points="-70.22,-37.67 -72.13,-37.68 -72.59,-36.64 -72.85,-35.51 -73.3,-34.43 -74.1,-33.5 -75.35,-32.77 -77.03,-32.22 -78.94,-31.73 -80.85,-31.21 -82.59,-30.56 -84.12,-29.74 -85.53,-28.75 -86.87,-27.56 -88.1,-26.22 -89.26,-24.82 -90.47,-23.54 -91.9,-22.48 -93.38,-21.52 -93.73,-20.04" fill="none" stroke="rgb(103, 19, 134)" stroke-width="2" stroke-linejoin="round" filter="url(#fuzzy)" /><polyline points="75.93,-23.22 76.46,-22.01 77.2,-20.57 77.97,-19.15 78.58,-17.81 79.01,-16.52 79.32,-15.22 79.6,-13.9 79.97,-12.57 80.5,-11.26 81.21,-9.97 82.02,-8.7 82.77,-7.45 83.37,-6.25 83.76,-5.11 84.02,-3.99 84.26,-2.83 84.57,-1.56 84.9,-0.15 85.21,1.28 85.82,2.48" fill="none" stroke="rgb(103, 19, 134)" stroke-width="2" stroke-linejoin="round" filter="url(#fuzzy)" /><polyline points="-70.61,-37.47 -72.1,-36.28 -74.42,-36.14 -76.34,-35.76 -77.35,-34.93 -77.7,-33.82 -77.85,-32.62 -78.16,-31.47 -78.83,-30.43 -79.83,-29.49 -81.07,-28.55 -82.44,-27.54 -83.93,-26.44 -85.55,-25.27 -87.26,-24.12 -88.9,-23 -90.2,-21.88 -91.13,-20.67 -92.12,-19.33 -93.96,-17.97 -97.33,-16.68" fill="none" stroke="rgb(103, 19, 134)" stroke-width="2" stroke-linejoin="round" filter="url(#fuzzy)" /><polyline points="-71.79,-35.01 -72.15,-34.93 -73.35,-34.33 -75.31,-33.86 -77.48,-33.54 -79.53,-33.17 -81.4,-32.66 -83.22,-32.06 -85.16,-31.44 -87.28,-30.78 -89.53,-29.99 -91.83,-29.01 -94.08,-27.86 -96.14,-26.63 -97.83,-25.4 -99.1,-24.23 -100.7,-23.17 -105.12,-22.48 -71.79,-35.01 -71.07,-36.86 -71.36,-38.74 -72.58,-41.06 -74.08,-43.48 -75.17,-45.6 -75.47,-47.22 -74.98,-48.41 -74.06,-49.42 -73.13,-50.51 -72.49,-51.85 -72.19,-53.41 -72.07,-55.08 -71.93,-56.74 -71.71,-58.38 -71.46,-60.13 -71.36,-62.14 -71.53,-64.57 -72.02,-67.39 -72.77,-70.46 -73.52,-73.48 -73.81,-76.24 -73.73,-79.36 -72.07,-34.37 -71.52,-34.98 -71.11,-35.76 -70.55,-36.74 -69.87,-37.8 -69.12,-38.84 -68.34,-39.82 -67.52,-40.72 -66.67,-41.56 -65.78,-42.39 -64.86,-43.21 -63.91,-44.03 -62.93,-44.83 -61.92,-45.59 -60.88,-46.3 -59.81,-46.94 -58.68,-47.53 -57.53,-48.13 -56.38,-48.8 -55.28,-49.6 -54.23,-50.5 -53.24,-51.36 -52.37,-52.03 -51.26,-52.56 -69.8,-51.78 -70.43,-49.6 -70.96,-48.17 -71.43,-46.89 -71.73,-45.63 -71.89,-44.36 -71.93,-43.02 -71.9,-41.58 -71.82,-40.06 -71.76,-38.56 -71.78,-37.15 -71.91,-35.88 -72.16,-34.68 -72.52,-33.42 -72.99,-32.1 -73.33,-31.35 -73.33,-31.35 -73.11,-32.19 -72.71,-33.58 -72.58,-35 -72.7,-36.44 -72.81,-37.89 -72.73,-39.29 -72.45,-40.62 -72.1,-41.91 -71.76,-43.2 -71.46,-44.5 -71.17,-45.82 -70.85,-47.18 -70.51,-48.56 -70.15,-49.97 -69.79,-51.4 -69.47,-52.85 -69.19,-54.34 -68.98,-55.92 -68.83,-57.62 -68.72,-59.49 -68.6,-61.6 -68.41,-63.84 -68.11,-65.78 -68.15,-67.02" fill="none" stroke="rgb(103, 19, 134)" stroke-width="2" stroke-linejoin="round" filter="url(#fuzzy)" /><polyline points="-71.37,-48.89 -71.16,-48.02 -71.12,-46.51 -71.11,-45.07 -71.21,-43.76 -71.51,-42.54 -72.04,-41.39 -72.73,-40.28 -73.42,-39.18 -73.97,-38.03 -74.29,-36.82 -74.43,-35.55 -74.49,-34.28 -74.54,-33.06 -74.55,-31.87 -74.48,-30.62 -74.38,-29.26 -74.43,-28.01 -74.55,-27.38" fill="none" stroke="rgb(103, 19, 134)" stroke-width="2" stroke-linejoin="round" filter="url(#fuzzy)" /><polyline points="76.04,-22.31 76.27,-22.4 77.32,-22.46 79.13,-22.13 80.9,-21.36 82.09,-20.22 82.76,-18.89 83.29,-17.51 84.05,-16.15 85.06,-14.85 86.14,-13.56 87.04,-12.25 87.67,-10.89 88.15,-9.49 88.66,-8.1 89.37,-6.79 90.35,-5.57 91.61,-4.41 93.16,-3.23 94.96,-1.85 96.82,-0.14 98.61,1.55 81.09,2.35 81.17,1.21 81.13,-0.16 80.93,-1.52 80.67,-2.74 80.42,-3.86 80.2,-4.95 80.01,-6.1 79.83,-7.32 79.64,-8.59 79.43,-9.9 79.19,-11.22 78.95,-12.54 78.71,-13.87 78.5,-15.2 78.28,-16.54 78.05,-17.88 77.78,-19.21 77.46,-20.47 77.13,-21.55 76.81,-22.35 76.48,-22.91 76.05,-23.7 75.32,-25.79" fill="none" stroke="rgb(103, 19, 134)" stroke-width="2" stroke-linejoin="round" filter="url(#fuzzy)" /><polyline points="75.32,-25.79 74.91,-27.14 75.02,-28.51 75.58,-29.87 76.4,-31.46 77.43,-33.33 78.62,-35.41 79.92,-37.59 81.22,-39.78 82.42,-41.9 83.43,-43.91 84.12,-45.73 84.32,-47.3 83.94,-48.62 83.11,-49.81 82.22,-51.1 81.72,-52.76 81.92,-54.95 82.68,-57.58 83.61,-60.12 85.55,-61.7 73.83,-28.98 72.8,-29.52 71.98,-30.85 71.15,-32.12 70.33,-33.21 69.64,-34.23 69.11,-35.26 68.67,-36.28 68.2,-37.24 67.61,-38.13 66.88,-38.98 66.04,-39.83 65.12,-40.7 64.13,-41.57 63.08,-42.42 62,-43.23 60.97,-44.02 60.03,-44.8 59.17,-45.58 58.22,-46.34 56.78,-47.11" fill="none" stroke="rgb(103, 19, 134)" stroke-width="2" stroke-linejoin="round" filter="url(#fuzzy)" /><polyline points="74.05,-29.21 76.94,-33.07 77.7,-35.36 76.56,-36.35 75.28,-37.16 74.66,-38.27 74.71,-39.7 75.25,-41.39 76.11,-43.31 77.19,-45.47 78.32,-47.79 79.29,-50.12 79.86,-52.28 79.85,-54.11 79.28,-55.59 78.32,-56.79 77.31,-57.92 76.59,-59.21 76.37,-60.81 76.67,-62.71 77.22,-64.77 77.66,-66.87 77.76,-68.98 77.44,-71.02 76.75,-72.72" fill="none" stroke="rgb(103, 19, 134)" stroke-width="2" stroke-linejoin="round" filter="url(#fuzzy)" /><polyline points="71.95,-34.15 72.42,-35.73 72.57,-37.3 72.28,-38.53 71.8,-39.54 71.33,-40.58 71.08,-41.86 71.18,-43.48 71.6,-45.4 72.12,-47.46 72.49,-49.43 72.53,-51.17 72.24,-52.67 71.77,-54.01 71.33,-55.33 71.08,-56.76 71.12,-58.38 71.49,-60.31 72.2,-62.6 73.17,-65.26 74.15,-68.1 74.73,-70.8 74.41,-73.21 73.02,-75.71 71.33,-78.85" fill="none" stroke="rgb(103, 19, 134)" stroke-width="2" stroke-linejoin="round" filter="url(#fuzzy)" /><polyline points="71.64,-35.31 71.4,-36.75 71.44,-38.23 71.5,-39.46 71.37,-40.58 71.01,-41.72 70.5,-42.91 69.91,-44.14 69.3,-45.41 68.71,-46.7 68.17,-48 67.68,-49.3 67.26,-50.59 66.9,-51.85 66.59,-53.08 66.3,-54.22 65.97,-55.31 65.62,-56.48 65.28,-57.91 64.92,-59.55 64.18,-60.81" fill="none" stroke="rgb(103, 19, 134)" stroke-width="2" stroke-linejoin="round" filter="url(#fuzzy)" /><polyline points="71.64,-35.31 70.73,-36.38 69.82,-37.33 69.13,-38.12 68.57,-38.96 67.99,-39.91 67.31,-40.92 66.5,-41.92 65.58,-42.88 64.6,-43.8 63.62,-44.68 62.67,-45.54 61.76,-46.34 60.85,-47.06 59.89,-47.63 58.88,-48.04 57.87,-48.36 56.89,-48.76 55.91,-49.46 54.81,-50.21 82.15,-20.23 81.59,-21.51 80.87,-22.6 80.11,-23.31 79.37,-23.93 78.66,-24.73 77.94,-25.77 77.22,-26.96 76.53,-28.15 75.85,-29.27 75.14,-30.33 74.39,-31.39 73.64,-32.49 73,-33.66 72.54,-34.89 72.22,-36.15 71.75,-37.37 70.8,-38.28 69.92,-38.33 69.9,-39.05 71.21,-41.85 73.07,-44.83 74.02,-47.18 74,-48.92 73.4,-50.31 72.72,-51.65 72.23,-53.06 71.84,-54.47 71.39,-55.72 70.8,-56.78 70.17,-57.79 69.68,-58.96 69.48,-60.45 69.52,-62.29 69.68,-64.43 69.83,-66.83 69.92,-69.59 70.07,-72.76 70.43,-76.05 71.13,-78.49 72.18,-78.52" fill="none" stroke="rgb(103, 19, 134)" stroke-width="2" stroke-linejoin="round" filter="url(#fuzzy)" /><polyline points="69.9,-39.05 70.16,-38.66 70.58,-37.97 71.22,-37.04 71.89,-36 72.5,-34.89 73.05,-33.72 73.57,-32.51 74.07,-31.31 74.55,-30.13 75,-28.96 75.45,-27.76 75.93,-26.52 76.43,-25.32 76.94,-24.24 77.42,-23.34 77.86,-22.54 78.24,-21.64 78.59,-20.39 78.97,-18.69 79.42,-16.34 67.55,-43.01 66.58,-41.08 65.63,-39.03 65.35,-37.54 65.46,-36.44 65.87,-35.55 66.54,-34.73 67.29,-33.91 67.92,-32.97 68.22,-31.84 68.08,-30.47 67.48,-28.92 66.59,-27.33 65.7,-25.85 65.12,-24.52 64.91,-23.16 64.7,-21.4 63.78,-18.71" fill="none" stroke="rgb(103, 19, 134)" stroke-width="2" stroke-linejoin="round" filter="url(#fuzzy)" /><polyline points="66.62,-44.46 65.95,-45.49 65.35,-46.78 64.91,-47.99 64.45,-49.09 63.9,-50.07 63.29,-50.93 62.68,-51.74 62.09,-52.58 61.52,-53.51 60.92,-54.54 60.26,-55.65 59.47,-56.83 58.48,-58.1 57.34,-59.45 56.29,-60.74 55.81,-61.58 56.43,-61.39" fill="none" stroke="rgb(103, 19, 134)" stroke-width="2" stroke-linejoin="round" filter="url(#fuzzy)" /><polyline points="64.22,-47.95 64.36,-48.01 63.83,-48.83 63.17,-49.71 62.54,-50.54 61.93,-51.32 61.32,-52.12 60.65,-52.98 59.91,-53.91 59.07,-54.9 58.14,-55.96 57.11,-57.08 56.05,-58.21 55.05,-59.26 54.16,-60.16 53.38,-60.92 52.59,-61.66 51.7,-62.5 50.43,-63.77 64.22,-47.95 67.63,-47.2 69.56,-46.46 70.83,-45.52 72.42,-44.8 74.4,-44.37 76.39,-44.04 78.08,-43.6 79.43,-42.97 80.67,-42.19 82.01,-41.37 83.58,-40.55 85.29,-39.72 87.01,-38.83 88.65,-37.86 90.24,-36.89 91.88,-35.94 93.74,-34.99 95.93,-33.87 98.45,-32.47 100.88,-30.81 103.46,-29.99 63.32,-49.59 61.6,-50.11 60.17,-50.07 58.69,-50 57.39,-50.27 56.38,-50.94 55.61,-51.96 54.91,-53.18 54.11,-54.41 53.17,-55.48 52.12,-56.31 51.07,-56.94 50.03,-57.42 48.95,-57.82 47.76,-58.09 46.42,-58.15 45,-57.91 43.6,-57.42 41.96,-57" fill="none" stroke="rgb(103, 19, 134)" stroke-width="2" stroke-linejoin="round" filter="url(#fuzzy)" /><polyline points="61.73,-51.6 62.01,-50.83 62.44,-49.73 62.7,-48.44 62.97,-47.15 63.36,-45.91 63.83,-44.68 64.26,-43.42 64.6,-42.08 64.83,-40.72 65.03,-39.39 65.21,-38.15 65.37,-37 65.41,-35.86 65.31,-34.66 65.16,-33.41 65.1,-32.19 65.25,-31.13 65.57,-30.11 65.99,-28.51 76.5,-30.03 76.09,-30.86 75.31,-32.29 74.54,-33.67 73.83,-34.88 73.13,-35.96 72.47,-36.98 71.86,-37.98 71.32,-38.98 70.8,-40 70.25,-41.05 69.63,-42.12 68.91,-43.2 68.08,-44.26 67.17,-45.29 66.23,-46.28 65.33,-47.26 64.49,-48.22 63.74,-49.18 63.08,-50.12 62.56,-50.98 62.26,-51.58 62.06,-51.45 62.06,-51.45 61.26,-53.58 60.76,-55.13 60.31,-56.53 59.61,-57.88 58.63,-59.19 57.59,-60.41 56.69,-61.58 55.99,-62.72 55.41,-63.86 54.85,-65.03 54.24,-66.2 53.59,-67.31 52.95,-68.3 52.41,-69.23 51.92,-70.21 51.34,-71.04" fill="none" stroke="rgb(103, 19, 134)" stroke-width="2" stroke-linejoin="round" filter="url(#fuzzy)" /><polyline points="47.17,-87.71 48.8,-87.08 49.54,-84.9 49.64,-81.94 49.61,-79.14 49.85,-77.04 50.45,-75.66 51.26,-74.67 52.07,-73.72 52.74,-72.64 53.26,-71.42 53.7,-70.12 54.12,-68.78 54.53,-67.37 54.87,-65.83 55.03,-64.14 54.93,-62.46 54.68,-61.2 54.33,-60.06" fill="none" stroke="rgb(103, 19, 134)" stroke-width="2" stroke-linejoin="round" filter="url(#fuzzy)" /><polyline points="31.47,-74.11 32.42,-73.72 33.52,-73.28 34.79,-72.77 36.04,-72.23 37.22,-71.68 38.35,-71.1 39.44,-70.48 40.51,-69.8 41.55,-69.08 42.55,-68.37 43.51,-67.68 44.46,-67.03 45.39,-66.41 46.31,-65.82 47.24,-65.26 48.16,-64.71 49.07,-64.17 49.97,-63.58 50.89,-62.92 51.81,-62.19 52.7,-61.43 53.45,-60.77 53.95,-60.37 54.33,-60.06 54.33,-60.06 56.09,-58.16 57.54,-56.6 58.54,-55.41 59.34,-54.39 60.05,-53.43 60.72,-52.53 61.36,-51.67 61.97,-50.84 62.57,-49.99 63.18,-49.09 63.81,-48.13 64.45,-47.1 65.09,-46.01 65.76,-44.87 66.43,-43.7 67.1,-42.52 67.75,-41.34 68.36,-40.19 68.87,-39.18 69.17,-38.52 69.16,-38.58" fill="none" stroke="rgb(103, 19, 134)" stroke-width="2" stroke-linejoin="round" filter="url(#fuzzy)" /><polyline points="50.43,-63.77 52.7,-63.68 55.37,-64.85 57.59,-65.71 58.96,-65.6 59.81,-64.6 60.69,-63.25 61.94,-62.04 63.49,-61.19 65.19,-60.63 66.91,-60.26 68.76,-60.09 70.85,-60.26 73.11,-60.79 75.4,-61.29 78.57,-61.53 37.97,-89.44 38.37,-87.34 39.21,-85.87 40.37,-84.62 41.58,-83.51 42.71,-82.46 43.71,-81.34 44.58,-80.03 45.32,-78.49 45.96,-76.82 46.61,-75.26 47.36,-73.99 48.21,-73.02 49.08,-72.17 49.82,-71.18 50.3,-69.86 50.49,-68.24 50.44,-66.54 50.27,-65.04 50.43,-63.77 50.43,-63.77 51.25,-61.94 51.77,-60.66 52.43,-59.78 53.15,-58.95 53.9,-57.93 54.61,-56.65 55.19,-55.15 55.58,-53.52 55.76,-51.86 55.82,-50.25 55.8,-48.75 55.79,-47.38 55.87,-46.19 56.13,-45.18 56.58,-44.31 57.12,-43.48 57.55,-42.51 57.69,-41.25 57.55,-39.69 57.36,-38.03 57.64,-36.7" fill="none" stroke="rgb(103, 19, 134)" stroke-width="2" stroke-linejoin="round" filter="url(#fuzzy)" /><polyline points="49.24,-64.54 50.31,-63.38 50.98,-61.92 51.48,-60.59 52.04,-59.51 52.69,-58.54 53.39,-57.46 54.05,-56.16 54.62,-54.67 55.07,-53.12 55.43,-51.62 55.77,-50.27 56.17,-49.11 56.64,-48.15 57.12,-47.29 57.45,-46.36 57.49,-45.18 57.21,-43.71 56.76,-42.07 56.51,-40.5 56.67,-39.12 56.84,-37.93" fill="none" stroke="rgb(103, 19, 134)" stroke-width="2" stroke-linejoin="round" filter="url(#fuzzy)" /><polyline points="49.67,-64.23 48.42,-65.06 47.11,-65.37 45.9,-65.65 44.8,-65.98 43.68,-66.22 42.43,-66.28 41.08,-66.28 39.73,-66.35 38.43,-66.53 37.14,-66.65 35.76,-66.52 34.23,-66.07 32.6,-65.43 30.99,-64.86 29.57,-64.58 28.51,-64.66 27.86,-65.03 27.42,-65.13" fill="none" stroke="rgb(103, 19, 134)" stroke-width="2" stroke-linejoin="round" filter="url(#fuzzy)" /><polyline points="79.12,-66.14 77.89,-65.96 75.15,-65.65 72.62,-65.54 70.21,-65.45 67.67,-65.31 64.95,-65.11 62.33,-64.96 60.11,-64.97 58.4,-65.15 56.99,-65.41 55.49,-65.49 53.68,-65.28 51.79,-64.97 50.37,-64.84 49.67,-64.23" fill="none" stroke="rgb(103, 19, 134)" stroke-width="2" stroke-linejoin="round" filter="url(#fuzzy)" /><polyline points="54.57,-45.28 54.57,-45.64 54.74,-46.7 54.79,-48.08 54.58,-49.42 54.14,-50.68 53.52,-51.93 52.78,-53.2 51.99,-54.42 51.27,-55.58 50.7,-56.73 50.3,-57.97 50.05,-59.37 49.84,-60.84 49.55,-62.22 49.13,-63.35 48.64,-64.23 48.13,-65.08 47.7,-66" fill="none" stroke="rgb(103, 19, 134)" stroke-width="2" stroke-linejoin="round" filter="url(#fuzzy)" /><polyline points="44.4,-68.39 43.69,-68.9 42.63,-69.33 41.25,-69.58 39.75,-69.6 38.22,-69.45 36.71,-69.21 35.24,-68.99 33.82,-68.88 32.51,-68.9 31.33,-69.06 30.25,-69.3 29.22,-69.51 28.16,-69.63 27.03,-69.64 25.87,-69.61 24.74,-69.61 23.69,-69.61 22.73,-69.36 21.78,-68.59 20.68,-67.53 18.95,-67.47 43.71,-69.08 44.57,-68.41 45.56,-67.85 46.55,-67.3 47.49,-66.71 48.38,-66.09 49.23,-65.46 50.06,-64.8 50.9,-64.1 51.76,-63.37 52.62,-62.61 53.5,-61.85 54.42,-61.1 55.41,-60.3 56.54,-59.43 57.77,-58.46 59.01,-57.44 60.12,-56.43 61.08,-55.45 62.13,-54.34 63.8,-52.89 38.77,-72.1 40.25,-71.74 42.17,-72.01 44.04,-72.33 45.85,-72.75 47.73,-73.39 49.63,-74.09 51.43,-74.62 53,-74.8 54.38,-74.67 55.7,-74.42 57.16,-74.28 58.9,-74.43 60.94,-74.83 63.13,-75.34 65.31,-75.83 67.44,-76.3 69.58,-76.72 71.9,-76.75 74.6,-75.69 77.66,-72.46" fill="none" stroke="rgb(103, 19, 134)" stroke-width="2" stroke-linejoin="round" filter="url(#fuzzy)" /><polyline points="64.22,-58.83 62.8,-59 61.32,-59.66 59.81,-60.75 58.48,-61.87 57.35,-62.81 56.34,-63.58 55.31,-64.21 54.23,-64.75 53.09,-65.22 51.97,-65.65 50.88,-66.09 49.85,-66.55 48.85,-67.04 47.86,-67.54 46.86,-68.05 45.86,-68.58 44.87,-69.13 43.87,-69.72 42.77,-70.35 41.5,-70.94 40.09,-71.47 38.77,-72.1 36.25,-73.23 35.7,-73.81 34.64,-74.83 33.79,-75.87 33.04,-76.76 32.21,-77.44 31.25,-78.02 30.22,-78.63 29.21,-79.4 28.3,-80.36 27.51,-81.42 26.85,-82.54 26.26,-83.71 25.48,-84.97 24.05,-86.25 21.92,-87.39" fill="none" stroke="rgb(103, 19, 134)" stroke-width="2" stroke-linejoin="round" filter="url(#fuzzy)" /><polyline points="51.9,-57.38 51.68,-57.83 51.39,-58.42 50.88,-59.3 50.21,-60.25 49.48,-61.15 48.73,-61.97 47.99,-62.71 47.26,-63.45 46.53,-64.22 45.82,-65.05 45.12,-65.92 44.4,-66.8 43.63,-67.67 42.79,-68.52 41.86,-69.35 40.85,-70.14 39.8,-70.88 38.77,-71.58 37.83,-72.26 37.03,-72.91 36.78,-73.29 12.96,-77.4 13.73,-77.58 14.38,-77.82 15.19,-77.99 16.18,-78.04 17.31,-77.96 18.53,-77.79 19.81,-77.58 21.13,-77.39 22.42,-77.27 23.63,-77.19 24.75,-77.11 25.82,-77 26.88,-76.8 27.96,-76.52 29.07,-76.18 30.17,-75.81 31.21,-75.45 32.18,-75.13 33.11,-74.81 34.3,-74.31 36.78,-73.29 9.24,-88.38 10.77,-87.57 12.22,-87.01 13.54,-86.63 14.66,-86.28 15.61,-85.85 16.53,-85.3 17.5,-84.7 18.59,-84.14 19.8,-83.65 21.1,-83.21 22.41,-82.78 23.66,-82.28 24.8,-81.69 25.8,-80.98 26.72,-80.17 27.62,-79.34 28.6,-78.59 29.66,-77.98 30.78,-77.49 31.81,-77 32.58,-76.36 32.97,-75.59 32.79,-75.12" fill="none" stroke="rgb(103, 19, 134)" stroke-width="2" stroke-linejoin="round" filter="url(#fuzzy)" /><polyline points="32.79,-75.12 32.83,-75.24 32.27,-75.56 31.43,-76 30.43,-76.55 29.39,-77.19 28.38,-77.89 27.42,-78.6 26.49,-79.27 25.56,-79.88 24.56,-80.44 23.43,-80.96 22.18,-81.43 20.86,-81.83 19.53,-82.16 18.27,-82.47 17.13,-82.79 16.17,-83.13 15.42,-83.5 14.83,-83.86 14.11,-84.29" fill="none" stroke="rgb(103, 19, 134)" stroke-width="2" stroke-linejoin="round" filter="url(#fuzzy)" /><polyline points="33.44,-75.07 34.01,-74.65 35.33,-73.94 36.59,-73.26 37.73,-72.64 38.82,-72.05 39.92,-71.45 41.03,-70.82 42.14,-70.18 43.2,-69.54 44.21,-68.9 45.16,-68.28 46.07,-67.65 46.99,-67.02 47.9,-66.39 48.77,-65.8 49.53,-65.28 50.15,-64.86 50.91,-64.38 13.88,-71.69 14.91,-72.71 16.23,-73.07 17.5,-73.26 18.86,-73.54 20.34,-74 21.82,-74.6 23.17,-75.23 24.36,-75.76 25.48,-76.13 26.59,-76.3 27.75,-76.27 28.93,-76.06 30.13,-75.74 31.29,-75.48 32.06,-75.52" fill="none" stroke="rgb(103, 19, 134)" stroke-width="2" stroke-linejoin="round" filter="url(#fuzzy)" /><polyline points="31.96,-75.92 34.33,-80.12 35.87,-81.37 37.56,-82.13 39.11,-82.1 40.44,-81.51 41.79,-80.96 43.32,-80.83 44.99,-80.96 46.66,-81 48.19,-80.74 49.59,-80.27 51.01,-79.92 52.63,-80.01 54.64,-80.73 57.04,-81.92 59.24,-81.97" fill="none" stroke="rgb(103, 19, 134)" stroke-width="2" stroke-linejoin="round" filter="url(#fuzzy)" /><polyline points="12.48,-90.4 14.2,-89.06 15.17,-87.77 15.89,-86.84 16.68,-86.24 17.66,-85.88 18.81,-85.64 20.06,-85.35 21.35,-84.82 22.59,-83.91 23.7,-82.64 24.6,-81.2 25.33,-79.87 26.02,-78.84 26.86,-78.1 27.82,-77.55 28.28,-77.2" fill="none" stroke="rgb(103, 19, 134)" stroke-width="2" stroke-linejoin="round" filter="url(#fuzzy)" /><polyline points="28.47,-77.31 26.98,-78.52 26.13,-79.61 25.46,-80.63 24.72,-82.04 23.83,-83.76 22.77,-85.38 21.61,-86.66 20.42,-87.69 19.33,-88.82 18.39,-90.28 17.57,-92.04 16.78,-93.82 15.87,-95.28 14.73,-96.31 13.36,-97 11.89,-97.65 10.55,-98.64 9.76,-100.49 10.37,-103.92 4.66,-94.67 5.8,-92.89 7.2,-91.81 8.39,-90.79 9.56,-89.91 10.8,-89.21 12.08,-88.6 13.3,-87.99 14.4,-87.29 15.38,-86.49 16.28,-85.63 17.19,-84.77 18.19,-83.97 19.3,-83.27 20.53,-82.61 21.85,-81.95 23.19,-81.28 24.4,-80.68 25.27,-80.16 25.77,-79.52 26.24,-77.76 26.24,-77.76 25.48,-78.59 24.96,-79.09 24.14,-79.68 23,-80.41 21.71,-81.23 20.44,-82.09 19.27,-82.98 18.21,-83.87 17.24,-84.68 16.33,-85.33 15.43,-85.8 14.46,-86.21 13.36,-86.79 12.12,-87.75 10.78,-89.01 9.32,-90.12 7.76,-90.92 -0.68,-107.47 1.02,-106.33 2.35,-105.66 3.62,-105.22 4.98,-104.92 6.39,-104.4 7.78,-103.42 9.11,-101.99 10.4,-100.28 11.67,-98.5 12.94,-96.88 14.2,-95.58 15.44,-94.71 16.65,-94.24 17.83,-94.01 18.98,-93.7 20.08,-92.94 21.09,-91.47 22.02,-89.28 22.9,-86.64 23.76,-83.93 24.51,-81.49 25.03,-79.57 25.41,-78.42 26.24,-77.76 25.34,-78.35 25.24,-78.55 26.05,-79.45 27.55,-80.85 29.25,-82.12 30.96,-83.08 32.66,-83.92 34.37,-84.81 36.11,-85.8 37.89,-86.83 39.73,-87.76 41.64,-88.51 43.64,-89.13 45.8,-89.89 48.2,-91.09 50.81,-92.7 53.44,-94.08 55.94,-94.41 59.06,-94.05 39.69,-62.72 39.09,-63.45 38.19,-64.54 37.24,-65.48 36.33,-66.32 35.47,-67.22 34.68,-68.32 33.95,-69.58 33.24,-70.88 32.53,-72.09 31.77,-73.09 30.93,-73.85 29.99,-74.43 28.99,-74.94 27.97,-75.49 27,-76.14 26.11,-76.83 25.32,-77.49 24.55,-78.07 23.62,-78.64 22.16,-79.31 20.08,-80.06 48.1,-85.48 46.77,-86.01 45.08,-85.64 43.07,-84.89 41.09,-84.32 39.29,-84.01 37.69,-83.78 36.19,-83.48 34.7,-83.04 33.17,-82.51 31.64,-82 30.17,-81.65 28.82,-81.51 27.62,-81.55 26.52,-81.69 25.44,-81.88 24.24,-82.11 22.82,-82.29 21.2,-82.04 19.75,-81.06 19.33,-80.06" fill="none" stroke="rgb(103, 19, 134)" stroke-width="2" stroke-linejoin="round" filter="url(#fuzzy)" /><polyline points="15.73,-81.02 15.44,-81.01 14.86,-80.85 14.03,-80.54 12.94,-79.98 11.65,-79.04 10.28,-77.8 8.94,-76.55 7.69,-75.61 6.53,-75.13 5.43,-75.01 4.36,-75.07 3.31,-75.09 2.25,-74.93 1.14,-74.49 -0.07,-73.73 -1.38,-72.65 -2.71,-71.29 -3.85,-69.74 -4.57,-68.26 -4.57,-67.73 15.71,-81.14 16.58,-80.81 17.89,-80.47 19.17,-80.15 20.48,-79.78 21.81,-79.35 23.05,-78.88 24.14,-78.42 25.12,-77.97 26.05,-77.52 27.01,-77.06 28.02,-76.57 29.06,-76.04 30.09,-75.5 31.04,-74.95 31.89,-74.41 32.69,-73.85 33.77,-73.16 36.15,-72.02" fill="none" stroke="rgb(103, 19, 134)" stroke-width="2" stroke-linejoin="round" filter="url(#fuzzy)" /><polyline points="15.71,-81.14 16.59,-80.84 17.91,-80.5 19.19,-80.14 20.49,-79.7 21.79,-79.18 23,-78.65 24.08,-78.13 25.05,-77.63 25.97,-77.1 26.9,-76.53 27.86,-75.92 28.83,-75.28 29.79,-74.63 30.71,-74 31.6,-73.4 32.5,-72.8 33.48,-72.13 34.57,-71.32 35.7,-70.42 37.06,-69.33" fill="none" stroke="rgb(103, 19, 134)" stroke-width="2" stroke-linejoin="round" filter="url(#fuzzy)" /><polyline points="14.67,-81.05 15.08,-81.57 15.86,-81.94 16.89,-81.93 18.11,-81.9 19.46,-82.01 20.92,-82.16 22.42,-82.27 23.86,-82.32 25.17,-82.36 26.36,-82.46 27.51,-82.6 28.72,-82.77 30.05,-82.94 31.54,-83.2 33.32,-83.62 35.36,-83.99 11.28,-81.73 13.04,-81.52 14.15,-81.6 15.08,-81.97 16.07,-82.42 17.24,-82.88 18.64,-83.55 20.33,-84.68 22.26,-86.31 24.29,-88.16 26.22,-89.8 27.91,-90.86 29.3,-91.18 30.47,-90.87 31.57,-90.21 32.75,-89.56 34.11,-89.26 35.72,-89.56 37.62,-90.62 39.76,-92.38 42.06,-94.4 44.31,-95.78 46.17,-95.58 46.73,-94.4" fill="none" stroke="rgb(103, 19, 134)" stroke-width="2" stroke-linejoin="round" filter="url(#fuzzy)" /><polyline points="11.28,-81.73 10.16,-81.75 8.91,-81.21 7.73,-80.31 6.58,-79.39 5.43,-78.6 4.29,-77.98 3.18,-77.53 2.07,-77.21 0.9,-76.83 -0.33,-76.15 -1.6,-75.09 -2.82,-73.8 -3.86,-72.61 -4.68,-71.76 -5.32,-71.21 -5.9,-70.51 -6.64,-69.13 -7.71,-67.12" fill="none" stroke="rgb(103, 19, 134)" stroke-width="2" stroke-linejoin="round" filter="url(#fuzzy)" /><polyline points="-12.32,-81.85 -11.35,-81.96 -9.84,-82.12 -8.43,-82.27 -7.29,-82.38 -6.35,-82.46 -5.45,-82.5 -4.44,-82.53 -3.26,-82.55 -1.92,-82.57 -0.53,-82.6 0.82,-82.61 2.1,-82.59 3.3,-82.54 4.47,-82.47 5.63,-82.37 6.77,-82.28 7.88,-82.2 8.99,-82.12 10.17,-81.98 11.28,-81.73 -10.87,-68.59 -10.5,-70.07 -9.75,-71.62 -8.7,-72.82 -7.63,-73.75 -6.67,-74.52 -5.83,-75.18 -5.01,-75.85 -4.09,-76.64 -3.03,-77.55 -1.81,-78.46 -0.51,-79.25 0.78,-79.86 2.02,-80.32 3.2,-80.72 4.36,-81.08 5.54,-81.4 6.7,-81.69 7.79,-81.94 8.89,-82.11 10.34,-82.02" fill="none" stroke="rgb(103, 19, 134)" stroke-width="2" stroke-linejoin="round" filter="url(#fuzzy)" /><polyline points="34.34,-106.17 30.1,-104.15 27.49,-104.23 25.7,-104.97 24.21,-105.69 22.72,-105.7 21.16,-104.57 19.53,-102.38 17.87,-99.58 16.17,-96.65 14.42,-93.92 12.66,-91.5 10.97,-89.58 9.51,-88.58 8.4,-88.94 7.32,-89.49 4.42,-82.52 2.53,-82.65 1.88,-84.28 0.57,-86.48 -1.14,-88.49 -2.81,-89.8 -4.23,-90.22 -5.4,-90.05 -6.44,-89.72 -7.5,-89.49 -8.66,-89.39 -9.92,-89.36 -11.29,-89.45 -12.75,-89.79 -14.3,-90.61 -15.94,-92.01 -17.65,-93.87 -19.4,-95.85 -21.16,-97.53 -22.92,-98.62 -24.7,-99.22 -26.55,-99.8 -28.44,-100.89 -30.22,-102.59 -31.57,-104.31 -32.6,-106.44 2.53,-82.65 3.89,-83.96 5.33,-85.58 6.67,-86.25 7.89,-86.33 9.16,-86.57 10.62,-87.62 12.33,-89.8 14.21,-93 16.1,-96.67 17.83,-99.95 19.33,-102.06 20.64,-102.81 21.95,-102.73 23.42,-102.74 25.13,-103.62 27.26,-105.49 30.09,-107.15 2.19,-82.82 2.72,-79.56 3.61,-78.02 4.64,-76.67 5.69,-75.66 6.72,-75.06 7.77,-74.78 8.88,-74.79 10.07,-75.02 11.24,-75.3 12.31,-75.4 13.19,-75.17 13.9,-74.6 14.55,-73.68 15.24,-72.34 16,-70.67 16.42,-70.2" fill="none" stroke="rgb(103, 19, 134)" stroke-width="2" stroke-linejoin="round" filter="url(#fuzzy)" /><polyline points="-11.99,-81.86 -14.18,-81.43 -16.73,-80.88 -19.52,-80.3 -22.45,-79.71 -25.58,-79.08 -29.03,-78.37 -32.73,-77.54 -36.41,-76.58 -39.82,-75.51 -42.84,-74.35 -45.6,-73.13 -48.33,-71.87 -51.31,-70.58 -54.72,-69.26 -58.6,-67.91 -62.88,-66.52 -67.4,-65.08 -71.96,-63.58 -76.38,-62.02 -80.61,-60.36 -84.69,-58.6 -88.77,-56.75 -92.92,-54.83 -97.1,-52.86 -101.15,-50.87 -104.89,-48.88 -108.36,-46.84 -111.97,-44.71 -116.39,-42.45 -122.06,-40.08 -128.61,-37.6 -136.06,-35.01" fill="none" stroke="rgb(103, 19, 134)" stroke-width="2" stroke-linejoin="round" filter="url(#fuzzy)" /><polyline points="-26.72,-77.74 -30.6,-76.81 -33.59,-75.52 -36.13,-74.17 -38.7,-72.86 -41.49,-71.58 -44.55,-70.29 -47.85,-68.96 -51.44,-67.58 -55.34,-66.16 -59.53,-64.69 -63.93,-63.15 -68.38,-61.53 -72.7,-59.82 -76.72,-58.02 -80.25,-56.14 -83.17,-54.2 -85.44,-52.21 -87.13,-50.18 -88.43,-48.12 -89.62,-46.01 -90.99,-43.86 -92.81,-41.68 -95.25,-39.48 -98.34,-37.27 -102.02,-35.06 -106.15,-32.85 -110.49,-30.62 -114.81,-28.34 -118.88,-26 -122.53,-23.59 -125.68,-21.13 -128.42,-18.66 -130.99,-16.24 -133.81,-13.93 -137.2,-11.78 -141.24,-9.77 -147.17,-7.73" fill="none" stroke="rgb(103, 19, 134)" stroke-width="2" stroke-linejoin="round" filter="url(#fuzzy)" /><polyline points="-41.37,-70.68 -44.45,-68.91 -48,-67.39 -51.19,-65.99 -54.27,-64.56 -57.45,-63.06 -60.51,-61.46 -63.16,-59.73 -65.42,-57.9 -67.66,-55.97 -70.34,-53.99 -73.84,-51.99 -78.22,-49.95 -83.22,-47.89 -88.36,-45.78 -93.09,-43.63 -97.03,-41.45 -100.12,-39.25 -102.64,-37.04 -105.11,-34.83 -108.06,-32.62 -111.8,-30.38 -116.29,-28.11 -121.24,-25.77 -126.22,-23.38 -130.83,-20.95 -134.85,-18.51 -138.22,-16.12 -141.03,-13.79 -143.61,-11.52 -146.59,-9.21 -150.66,-6.73 -155.56,-3.99 -160.64,-1.34" fill="none" stroke="rgb(103, 19, 134)" stroke-width="2" stroke-linejoin="round" filter="url(#fuzzy)" /><polyline points="-46.58,-66.78 -49.7,-65.13 -54.53,-63.71 -59.26,-62.15 -62.94,-60.53 -65.57,-58.86 -67.44,-57.11 -68.75,-55.24 -69.71,-53.24 -70.53,-51.15 -71.47,-49.03 -72.77,-46.9 -74.58,-44.81 -76.94,-42.73 -79.79,-40.66 -83.02,-38.56 -86.39,-36.44 -89.63,-34.29 -92.53,-32.12 -95.1,-29.92 -97.64,-27.66 -100.6,-25.29 -104.12,-22.8 -107.69,-20.24 -110.67,-17.7 -113.58,-15.02" fill="none" stroke="rgb(103, 19, 134)" stroke-width="2" stroke-linejoin="round" filter="url(#fuzzy)" /><polyline points="-46.99,-66.19 -48.86,-64.65 -50.13,-63.07 -51.31,-61.47 -52.55,-59.74 -53.77,-57.87 -54.89,-55.91 -55.75,-53.9 -56.16,-51.88 -55.88,-49.86 -54.84,-47.81 -53.19,-45.71 -51.31,-43.57 -49.63,-41.38 -48.51,-39.18 -48,-36.97 -47.92,-34.78 -47.93,-32.58 -47.67,-30.37 -46.86,-28.11 -45.39,-25.78 -43.3,-23.38 -40.79,-20.94 -38.2,-18.5 -35.8,-16.11 -33.67,-13.82 -31.69,-11.61 -29.77,-9.39 -27.68,-6.9 -23.64,-3.59" fill="none" stroke="rgb(103, 19, 134)" stroke-width="2" stroke-linejoin="round" filter="url(#fuzzy)" /><polyline points="-51.28,-62.68 -54.42,-61.38 -58.22,-59.73 -63.5,-57.82 -69.14,-55.78 -73.54,-53.71 -76.57,-51.67 -79.38,-49.64 -83.04,-47.58 -87.71,-45.47 -92.67,-43.3 -96.96,-41.1 -99.99,-38.88 -101.8,-36.67 -102.98,-34.45 -104.25,-32.22 -106.14,-29.97 -108.82,-27.68 -112.18,-25.33 -115.98,-22.95 -119.94,-20.54 -123.88,-18.13 -127.62,-15.74 -131.06,-13.35 -134.16,-10.96 -136.99,-8.53 -139.59,-6.03 -142,-3.47 -144.2,-0.87 -146.31,1.7 -148.71,4.16 -151.93,6.42 -156.2,8.45 -160.81,10.45 -163.52,12.84" fill="none" stroke="rgb(103, 19, 134)" stroke-width="2" stroke-linejoin="round" filter="url(#fuzzy)" /><polyline points="-55.18,-59.39 -59.28,-57.21 -62.81,-55.14 -65.08,-52.96 -66.63,-50.72 -67.75,-48.5 -68.62,-46.34 -69.42,-44.23 -70.34,-42.15 -71.51,-40.06 -72.98,-37.94 -74.76,-35.78 -76.77,-33.59 -78.94,-31.35 -81.15,-29.07 -83.28,-26.73 -85.25,-24.32 -87,-21.87 -88.53,-19.37 -89.9,-16.85 -91.21,-14.33 -92.56,-11.8 -94.06,-9.29 -95.75,-6.78 -97.63,-4.25 -99.61,-1.69 -101.54,0.92 -103.14,3.56 -104.12,6.13 -104.38,8.6 -104.49,10.99 -106.28,12.71" fill="none" stroke="rgb(103, 19, 134)" stroke-width="2" stroke-linejoin="round" filter="url(#fuzzy)" /><polyline points="-62.7,-50.15 -64.62,-48.08 -67.12,-45.95 -69.33,-43.95 -71.31,-41.99 -73.29,-39.98 -75.23,-37.88 -77,-35.74 -78.62,-33.57 -80.3,-31.38 -82.34,-29.15 -84.92,-26.85 -88.05,-24.47 -91.51,-22.02 -94.91,-19.54 -97.87,-17.03 -100.18,-14.53 -101.99,-12.02 -103.72,-9.53 -105.78,-7.1 -108.17,-4.8 -110.41,-2.67 -112.33,-1.03" fill="none" stroke="rgb(103, 19, 134)" stroke-width="2" stroke-linejoin="round" filter="url(#fuzzy)" /><polyline points="-66.15,-45.31 -67.5,-43.57 -69.56,-41.82 -73.04,-39.85 -77.22,-37.73 -80.95,-35.55 -83.62,-33.37 -85.35,-31.18 -86.61,-28.95 -87.94,-26.64 -89.73,-24.24 -92.19,-21.79 -95.39,-19.3 -99.32,-16.8 -103.92,-14.29 -109.04,-11.8 -114.4,-9.32 -119.48,-6.88 -123.63,-4.45 -126.27,-1.95 -127.22,0.79 -127.4,3.94 -129.63,7.18" fill="none" stroke="rgb(103, 19, 134)" stroke-width="2" stroke-linejoin="round" filter="url(#fuzzy)" /><polyline points="-70.61,-37.47 -73.45,-35.08 -78.88,-32.82 -84.18,-30.68 -87.41,-28.44 -88.37,-26.07 -87.9,-23.6 -87.13,-21.08 -86.92,-18.53 -87.71,-15.99 -89.48,-13.46 -91.94,-10.93 -94.62,-8.41 -97.15,-5.87 -99.34,-3.33 -101.21,-0.78 -102.92,1.78 -104.65,4.34 -106.48,6.86 -108.39,9.36 -110.27,11.83 -112.05,14.29 -113.72,16.74 -115.33,19.18 -116.9,21.61 -118.34,24 -119.39,26.32 -119.79,28.57 -119.51,30.79 -118.95,33.01 -118.76,35.29 -119.57,37.57 -121.59,39.43" fill="none" stroke="rgb(103, 19, 134)" stroke-width="2" stroke-linejoin="round" filter="url(#fuzzy)" /><polyline points="-71.49,-35.33 -80.96,-32.65 -92.81,-30.66 -101.64,-28.52 -106.52,-26.18 -109.09,-23.71 -111,-21.2 -112.82,-18.68 -114.35,-16.16 -115.22,-13.66 -115.37,-11.16 -115.12,-8.68 -115,-6.2 -115.58,-3.69 -117.31,-1.16 -120.51,1.4 -125.29,3.97 -131.5,6.49 -138.59,8.95 -145.52,11.35 -150.86,13.71 -153.34,16.03 -153.2,18.32 -155.36,20.65" fill="none" stroke="rgb(103, 19, 134)" stroke-width="2" stroke-linejoin="round" filter="url(#fuzzy)" /><polyline points="-71.49,-35.33 -74.26,-32.65 -76.58,-30.66 -78.14,-28.52 -79.35,-26.18 -80.43,-23.71 -81.56,-21.2 -82.86,-18.68 -84.36,-16.16 -85.91,-13.66 -87.37,-11.16 -88.67,-8.68 -89.88,-6.2 -91.08,-3.69 -92.29,-1.16 -93.49,1.4 -94.67,3.97 -95.97,6.49 -97.68,8.95 -100.02,11.35 -102.83,13.71 -105.27,16.03 -106.07,18.32 -105.36,20.65" fill="none" stroke="rgb(103, 19, 134)" stroke-width="2" stroke-linejoin="round" filter="url(#fuzzy)" /><polyline points="-74.24,-28.56 -74.95,-26.9 -75.9,-24.52 -77.39,-21.93 -79.72,-19.39 -83.14,-16.95 -87.66,-14.61 -92.99,-12.28 -98.51,-9.92 -103.47,-7.49 -107.22,-4.99 -109.49,-2.46 -110.4,0.07 -110.35,2.55 -109.9,4.98 -109.56,7.37 -109.79,9.76 -111,12.18 -113.55,14.65 -117.67,17.13 -123.29,19.59 -129.93,22.01 -136.73,24.4 -142.62,26.8 -146.69,29.24 -148.59,31.69 -148.73,34.14 -148.88,36.48 -153.8,38.06" fill="none" stroke="rgb(103, 19, 134)" stroke-width="2" stroke-linejoin="round" filter="url(#fuzzy)" /><polyline points="71.95,-34.15 73.22,-31.67 74.41,-29.18 75.63,-26.75 76.8,-24.42 77.8,-22.14 78.68,-19.84 79.48,-17.47 80.25,-15.05 80.95,-12.6 81.55,-10.13 82.06,-7.65 82.51,-5.18 82.97,-2.7 83.51,-0.18 84.16,2.37 84.91,4.97 85.68,7.59 86.35,10.21 86.8,12.8 86.95,15.33 86.81,17.81 86.41,20.24 85.87,22.64 85.29,25.01 84.76,27.36 84.34,29.65 84.05,31.89 83.85,34.1 83.64,36.32 83.26,38.59 82.58,40.87 81.55,43.11 80.28,45.41 78.39,48.12" fill="none" stroke="rgb(103, 19, 134)" stroke-width="2" stroke-linejoin="round" filter="url(#fuzzy)" /><polyline points="68.76,-40.53 68.76,-38.42 68.42,-36.3 68.37,-34.08 68.7,-31.77 69.22,-29.42 69.79,-27.06 70.33,-24.74 70.78,-22.43 71.07,-20.11 71.11,-17.76 70.92,-15.36 70.55,-12.93 70.1,-10.48 69.62,-8.02 69.11,-5.56 68.53,-3.1 67.85,-0.61 67.02,1.92 66.06,4.51 65,7.16 63.93,9.82 62.92,12.45 62.05,14.98 61.31,17.4 60.62,19.76 59.81,22.15 58.76,24.65 57.35,27.26 55.55,29.84 54.02,32.47" fill="none" stroke="rgb(103, 19, 134)" stroke-width="2" stroke-linejoin="round" filter="url(#fuzzy)" /><polyline points="19.33,-80.06 17.61,-80.77 15.83,-81.22 13.68,-81.6 11.42,-81.91 8.96,-82.15 6.22,-82.32 3.21,-82.42 -0.03,-82.45 -3.44,-82.38 -6.98,-82.24 -10.63,-82 -14.32,-81.69 -18.02,-81.3 -21.67,-80.85 -25.19,-80.33 -28.55,-79.75 -31.74,-79.11 -34.8,-78.39 -37.87,-77.59 -41.1,-76.68 -44.69,-75.68 -48.79,-74.59 -53.47,-73.42 -58.71,-72.2 -64.43,-70.93 -70.43,-69.63 -76.49,-68.29 -82.39,-66.92 -87.93,-65.52 -92.99,-64.07 -97.55,-62.57 -101.8,-60.99 -106.16,-59.28 -111.31,-57.4 -117.7,-55.29 -124.79,-53.03 -130.63,-51.3" fill="none" stroke="rgb(103, 19, 134)" stroke-width="2" stroke-linejoin="round" filter="url(#fuzzy)" />
    </g>
    
        <g id="pointNose">
          <g id="rightNose"><circle r="1.318" cx="12.622" cy="20.852" stroke="black" fill="none" stroke-width="1.0" filter="url(#fuzzy)" /><circle r="1.702" cx="12.950000000000001" cy="21.684" stroke="black" fill="none" stroke-width="1.0" filter="url(#fuzzy)" /><circle r="2.1100000000000003" cx="12.846" cy="21.436" stroke="black" fill="none" stroke-width="1.0" filter="url(#fuzzy)" /><circle r="1.53" cx="13.162" cy="19.976000000000003" stroke="black" fill="none" stroke-width="1.0" filter="url(#fuzzy)" /><circle r="1.07" cx="11.110000000000001" cy="20.684" stroke="black" fill="none" stroke-width="1.0" filter="url(#fuzzy)" /><circle r="1.924" cx="13.482000000000001" cy="19.792" stroke="black" fill="none" stroke-width="1.0" filter="url(#fuzzy)" /><circle r="1.542" cx="12.566" cy="21.244" stroke="black" fill="none" stroke-width="1.0" filter="url(#fuzzy)" /><circle r="1.324" cx="11.55" cy="21.832" stroke="black" fill="none" stroke-width="1.0" filter="url(#fuzzy)" /><circle r="1.508" cx="12.954" cy="20.624000000000002" stroke="black" fill="none" stroke-width="1.0" filter="url(#fuzzy)" /><circle r="2.1879999999999997" cx="12.014000000000001" cy="20.396" stroke="black" fill="none" stroke-width="1.0" filter="url(#fuzzy)" /></g>
          <g id="leftNose"><circle r="1.67" cx="-12.614" cy="21.084000000000003" stroke="black" fill="none" stroke-width="1.0" filter="url(#fuzzy)" /><circle r="2.676" cx="-12.686" cy="20.836000000000002" stroke="black" fill="none" stroke-width="1.0" filter="url(#fuzzy)" /><circle r="1.056" cx="-11.49" cy="19.756" stroke="black" fill="none" stroke-width="1.0" filter="url(#fuzzy)" /><circle r="2.872" cx="-11.406" cy="19.884" stroke="black" fill="none" stroke-width="1.0" filter="url(#fuzzy)" /><circle r="2.714" cx="-9.954" cy="21.28" stroke="black" fill="none" stroke-width="1.0" filter="url(#fuzzy)" /><circle r="2.582" cx="-12.214" cy="19.644000000000002" stroke="black" fill="none" stroke-width="1.0" filter="url(#fuzzy)" /><circle r="1.3559999999999999" cx="-11.942" cy="20.996000000000002" stroke="black" fill="none" stroke-width="1.0" filter="url(#fuzzy)" /><circle r="2.214" cx="-10.326" cy="22.172" stroke="black" fill="none" stroke-width="1.0" filter="url(#fuzzy)" /><circle r="1.646" cx="-11.43" cy="21.716" stroke="black" fill="none" stroke-width="1.0" filter="url(#fuzzy)" /><circle r="1.588" cx="-12.334000000000001" cy="19.836000000000002" stroke="black" fill="none" stroke-width="1.0" filter="url(#fuzzy)" /></g>
        </g>
      
    <g id="mouth">
      <polyline points="-64.43,26.25 -62.67,27.62 -60.91,28.97 -59.14,30.31 -57.37,31.63 -55.59,32.93 -53.82,34.22 -52.04,35.5 -50.26,36.76 -48.47,38 -46.69,39.23 -44.9,40.43 -43.12,41.63 -41.33,42.8 -39.55,43.96 -37.76,45.09 -35.98,46.21 -34.19,47.31 -32.41,48.4 -30.63,49.46 -28.86,50.5 -27.09,51.52 -25.32,52.53 -23.55,53.51 -21.79,54.47 -20.03,55.42 -18.28,56.34 -16.53,57.24 -14.79,58.11 -13.05,58.97 -11.32,59.8 -9.6,60.62 -7.88,61.4 -6.17,62.17 -4.47,62.91 -2.78,63.63 -1.1,64.33 0.58,65 2.24,65.65 3.9,66.27 5.54,66.87 7.18,67.44 8.8,67.98 10.41,68.51 12.01,69 13.6,69.47 15.18,69.91 16.74,70.33 18.29,70.72 19.83,71.08 21.35,71.41 22.86,71.72 24.35,72 25.83,72.25 27.29,72.47 28.74,72.66 30.17,72.82 31.59,72.96 32.98,73.06 34.36,73.14 35.73,73.18 37.07,73.19 38.39,73.17 39.7,73.13 40.99,73.05 42.26,72.93 43.5,72.79 44.73,72.61 45.94,72.41 47.12,72.16 48.28,71.89 49.43,71.58 50.54,71.24 51.64,70.87 52.71,70.46 53.76,70.02 54.79,69.54 55.79,69.03 56.77,68.48 57.72,67.9 58.65,67.28 59.55,66.62 60.42,65.93 61.27,65.21 62.09,64.44 62.89,63.64 63.65,62.8 64.39,61.93 65.1,61.01 65.78,60.06 66.43,59.07 67.05,58.04 67.65,56.98 68.21,55.87 68.74,54.72 69.24,53.54 69.71,52.31 70.14,51.04 70.55,49.74 70.92,48.39 71.26,47 70.92,48.39 70.55,49.74 70.14,51.04 69.71,52.31 69.24,53.54 68.74,54.72 68.21,55.87 67.65,56.98 67.05,58.04 66.43,59.07 65.78,60.06 65.1,61.01 64.39,61.93 63.65,62.8 62.89,63.64 62.09,64.44 61.27,65.21 60.42,65.93 59.55,66.62 58.65,67.28 57.72,67.9 56.77,68.48 55.79,69.03 54.79,69.54 53.76,70.02 52.71,70.46 51.64,70.87 50.54,71.24 49.43,71.58 48.28,71.89 47.12,72.16 45.94,72.41 44.73,72.61 43.5,72.79 42.26,72.93 40.99,73.05 39.7,73.13 38.39,73.17 37.07,73.19 35.73,73.18 34.36,73.14 32.98,73.06 31.59,72.96 30.17,72.82 28.74,72.66 27.29,72.47 25.83,72.25 24.35,72 22.86,71.72 21.35,71.41 19.83,71.08 18.29,70.72 16.74,70.33 15.18,69.91 13.6,69.47 12.01,69 10.41,68.51 8.8,67.98 7.18,67.44 5.54,66.87 3.9,66.27 2.24,65.65 0.58,65 -1.1,64.33 -2.78,63.63 -4.47,62.91 -6.17,62.17 -7.88,61.4 -9.6,60.62 -11.32,59.8 -13.05,58.97 -14.79,58.11 -16.53,57.24 -18.28,56.34 -20.03,55.42 -21.79,54.47 -23.55,53.51 -25.32,52.53 -27.09,51.52 -28.86,50.5 -30.63,49.46 -32.41,48.4 -34.19,47.31 -35.98,46.21 -37.76,45.09 -39.55,43.96 -41.33,42.8 -43.12,41.63 -44.9,40.43 -46.69,39.23 -48.47,38 -50.26,36.76 -52.04,35.5 -53.82,34.22 -55.59,32.93 -57.37,31.63 -59.14,30.31 -60.91,28.97 -62.67,27.62" fill="rgb(102, 204, 176)" stroke="black" stroke-width="3" stroke-linejoin="round" filter="url(#fuzzy)" />
    </g>
  </svg>