<svg viewBox="-100 -100 200 200" xmlns="http://www.w3.org/2000/svg" width="500" height="500" id="face-svg">
    <defs>
      <clipPath id="leftEyeClipPath">
        <polyline points="40.59,-4.4 40.17,-4.65 39.73,-4.92 39.24,-5.2 38.72,-5.49 38.16,-5.78 37.57,-6.09 36.94,-6.4 36.27,-6.73 35.56,-7.06 34.82,-7.4 34.05,-7.74 33.23,-8.09 32.39,-8.45 31.51,-8.81 30.6,-9.17 29.76,-9.54 28.87,-9.92 27.91,-10.32 26.88,-10.73 25.81,-11.15 24.67,-11.57 23.48,-12 22.24,-12.44 20.96,-12.88 19.63,-13.31 18.27,-13.74 16.87,-14.17 15.44,-14.59 13.99,-15 12.51,-15.39 11.01,-15.78 9.51,-16.14 7.99,-16.49 6.47,-16.82 4.95,-17.13 3.43,-17.42 1.92,-17.68 0.42,-17.91 -1.06,-18.12 -2.53,-18.29 -3.97,-18.44 -5.39,-18.56 -6.78,-18.65 -8.14,-18.7 -9.47,-18.73 -10.76,-18.72 -12.02,-18.68 -13.23,-18.6 -14.41,-18.5 -15.54,-18.36 -16.63,-18.19 -17.68,-17.99 -18.68,-17.76 -19.63,-17.5 -20.55,-17.21 -21.41,-16.89 -22.24,-16.55 -23.02,-16.18 -23.75,-15.79 -24.45,-15.38 -25.11,-14.95 -25.72,-14.5 -26.31,-14.03 -26.85,-13.55 -27.37,-13.06 -27.86,-12.56 -28.31,-12.03 -28.73,-11.5 -29.11,-10.94 -29.47,-10.37 -29.8,-9.79 -30.1,-9.2 -30.37,-8.59 -30.62,-7.97 -30.83,-7.34 -31.03,-6.7 -31.2,-6.06 -31.34,-5.4 -31.47,-4.74 -29.81,4.54 -29.36,5.11 -28.9,5.67 -28.42,6.24 -27.92,6.8 -27.41,7.36 -26.88,7.91 -26.33,8.46 -25.76,9 -25.18,9.53 -24.57,10.06 -23.95,10.58 -23.31,11.09 -22.65,11.58 -21.97,12.07 -21.27,12.55 -20.55,13.02 -19.8,13.48 -19.03,13.93 -18.24,14.37 -17.43,14.79 -16.59,15.2 -15.72,15.59 -14.83,15.96 -13.91,16.31 -12.97,16.63 -12.01,16.94 -11.01,17.22 -10,17.47 -8.96,17.69 -7.9,17.89 -6.81,18.06 -5.7,18.2 -4.58,18.3 -3.43,18.38 -2.27,18.43 -1.09,18.44 0.1,18.42 1.31,18.38 2.53,18.29 3.76,18.18 4.99,18.04 6.23,17.87 7.48,17.67 8.72,17.43 9.97,17.18 11.21,16.89 12.44,16.58 13.67,16.24 14.89,15.88 16.09,15.5 17.28,15.1 18.46,14.69 19.61,14.25 20.74,13.8 21.85,13.34 22.93,12.87 23.98,12.39 25,11.9 25.99,11.41 26.95,10.91 27.87,10.42 28.75,9.92 29.6,9.43 30.41,8.95 31.21,8.52 31.99,8.1 32.74,7.68 33.47,7.26 34.18,6.84 34.87,6.43 35.52,6.02 36.16,5.62 36.77,5.23 37.35,4.84 37.9,4.46 38.43,4.09 38.93,3.73 39.4,3.38 39.84,3.04" />
      </clipPath>
      <clipPath id="rightEyeClipPath">
        <polyline points="-40.27,-7.45 -39.83,-7.67 -39.36,-7.89 -38.86,-8.12 -38.31,-8.35 -37.73,-8.59 -37.11,-8.82 -36.46,-9.06 -35.77,-9.3 -35.05,-9.54 -34.29,-9.78 -33.5,-10.02 -32.67,-10.26 -31.81,-10.5 -30.91,-10.74 -29.99,-10.98 -29.13,-11.26 -28.2,-11.53 -27.22,-11.8 -26.17,-12.08 -25.08,-12.35 -23.93,-12.62 -22.73,-12.88 -21.49,-13.14 -20.2,-13.39 -18.88,-13.64 -17.52,-13.88 -16.13,-14.1 -14.71,-14.32 -13.27,-14.52 -11.81,-14.72 -10.34,-14.89 -8.86,-15.06 -7.37,-15.21 -5.88,-15.34 -4.39,-15.46 -2.9,-15.56 -1.43,-15.64 0.03,-15.7 1.47,-15.75 2.9,-15.77 4.3,-15.78 5.67,-15.76 7.02,-15.73 8.33,-15.67 9.61,-15.6 10.85,-15.5 12.05,-15.38 13.22,-15.24 14.34,-15.08 15.42,-14.91 16.45,-14.71 17.44,-14.49 18.39,-14.25 19.29,-14 20.15,-13.72 20.96,-13.43 21.72,-13.12 22.44,-12.8 23.12,-12.46 23.76,-12.11 24.35,-11.74 24.91,-11.36 25.43,-10.97 25.92,-10.56 26.37,-10.15 26.79,-9.72 27.18,-9.29 27.53,-8.84 27.85,-8.37 28.14,-7.9 28.4,-7.41 28.63,-6.92 28.83,-6.41 29,-5.89 29.15,-5.36 29.26,-4.82 29.36,-4.27 29.42,-3.72 29.47,-3.15 28.47,2.76 28.01,3.21 27.55,3.66 27.06,4.11 26.57,4.57 26.05,5.02 25.52,5.48 24.97,5.94 24.41,6.39 23.83,6.85 23.23,7.3 22.61,7.75 21.98,8.19 21.33,8.63 20.66,9.07 19.97,9.5 19.26,9.93 18.53,10.35 17.78,10.77 17.01,11.19 16.22,11.59 15.4,11.99 14.56,12.37 13.7,12.74 12.81,13.09 11.9,13.43 10.97,13.75 10.02,14.06 9.04,14.34 8.04,14.6 7.03,14.83 5.99,15.05 4.93,15.23 3.86,15.39 2.77,15.53 1.66,15.64 0.54,15.71 -0.59,15.76 -1.74,15.78 -2.9,15.77 -4.06,15.73 -5.24,15.66 -6.42,15.56 -7.6,15.43 -8.78,15.27 -9.97,15.08 -11.15,14.86 -12.33,14.61 -13.51,14.33 -14.67,14.03 -15.83,13.7 -16.97,13.34 -18.11,12.96 -19.22,12.56 -20.32,12.14 -21.4,11.69 -22.46,11.23 -23.49,10.75 -24.5,10.25 -25.48,9.75 -26.44,9.23 -27.36,8.7 -28.26,8.16 -29.12,7.62 -29.95,7.07 -30.74,6.63 -31.52,6.19 -32.27,5.74 -33.01,5.29 -33.72,4.85 -34.41,4.4 -35.08,3.95 -35.72,3.51 -36.34,3.06 -36.94,2.63 -37.51,2.2 -38.05,1.77 -38.57,1.36 -39.06,0.95 -39.52,0.56" />
      </clipPath>
      <filter id="fuzzy">
        <feTurbulence id="turbulence" baseFrequency="0.05" numOctaves="3" type="noise" result="noise" />
        <feDisplacementMap in="SourceGraphic" in2="noise" scale="2" />
      </filter>
      <linearGradient id="rainbowGradient" x1="0%" y1="0%" x2="100%" y2="0%">
        <stop offset="0%" style="stop-color: rgb(110, 89, 61); stop-opacity: 1" />
        <stop offset="50%" style="stop-color: rgb(220, 35, 219); stop-opacity: 1" />
        <stop offset="100%" style="stop-color: rgb(75, 159, 26); stop-opacity: 1" />
      </linearGradient>
    </defs>
    <rect x="-100" y="-100" width="100%" height="100%" fill="rgb(206, 242, 166)" />
    <polyline id="faceContour" points="84,1.69 83.83,2.25 83.66,0.71 83.76,4.16 83.39,6.98 83.79,4.98 83.51,6.34 82.93,9.88 83.53,8.16 82.99,10.77 82.49,12.47 82.3,13.94 82.11,14.61 81.85,16.49 81.25,18.02 81.02,19.5 81.43,18.11 80.37,21.47 81,20.28 79.96,23.06 79.62,24.27 79.44,24.74 78.75,26.61 78.18,27.43 78.45,27.33 77.52,29.23 77.02,30.06 77.11,30.46 76.21,31.63 75.66,32.75 73.97,35.54 73.33,36.97 74.15,35.9 72.48,38.6 71.34,39.75 72.19,38.71 70.79,40.54 70.52,41.41 69.12,43.38 69.06,43.27 67.83,44.69 67.16,46.07 65.62,47.44 64.12,49.14 64.25,48.83 63.92,49.43 62.06,51.5 60.62,52.7 60.83,52.7 59.86,53.51 58.41,54.76 59.33,54.03 57.2,55.75 57,56.05 55.25,57.46 54.03,58.59 53.67,58.57 51.81,60.01 51.04,60.6 49.87,61.7 49.58,61.46 49.38,61.53 46.92,63.46 46.73,63.36 45.15,64.37 44.88,64.59 43.14,65.6 41.81,66.4 39.02,67.74 39.44,67.23 37.52,68.39 36.72,68.69 36.74,68.61 34.74,69.76 32.18,70.4 33.39,70.12 31.47,70.76 29.89,71.28 27.98,71.96 27.41,72.17 27.26,72.29 24.16,73.17 24.54,73.23 23.37,73.33 21.18,73.8 20.15,74.17 16.02,74.84 16.09,75.06 15.18,75.06 12.73,75.61 13.08,75.41 11,75.82 9.01,76.01 7.89,76.18 8.62,76.11 5.8,76.26 6.61,76.21 5.18,76.35 3.08,76.4 0.85,76.38 -1.85,76.43 -2.32,76.4 -3.25,76.2 -3.7,76.54 -4.37,76.28 -7.51,76.31 -6.69,76.25 -8.68,76.16 -11.57,75.78 -10.93,75.72 -13.53,75.49 -14.65,75.42 -14.53,75.29 -17.33,74.66 -17.67,74.8 -21.65,73.83 -22.07,73.79 -21.51,73.96 -24.12,73.43 -23.69,73.28 -26.43,72.36 -28.51,71.9 -27.87,71.89 -28.74,71.68 -30.6,71.36 -32.39,70.72 -35.31,69.28 -34.72,69.55 -35.27,69.55 -38.2,67.98 -37.97,68.09 -38.34,68.24 -39.92,67.09 -41.65,66.23 -41.42,66.26 -44.45,64.62 -44.64,64.79 -47.62,62.87 -47.25,63.15 -47.73,63.13 -48.87,61.94 -48.88,62.05 -50.39,60.94 -53.25,59.24 -54.85,57.88 -54.54,58.05 -54.01,58.5 -54.95,57.8 -57.62,55.75 -58.35,55.13 -59.26,54.45 -58.86,54.51 -60.13,53.15 -60.6,52.9 -63.34,49.81 -62.93,50.51 -65.43,48.18 -65.77,47.92 -66.5,46.6 -66.78,46.13 -67.93,44.63 -68.43,44.39 -70.06,42.42 -69.43,43.01 -70.57,41.09 -72.42,38.66 -72.49,38.65 -73.63,36.45 -73.82,36.42 -74.12,35.75 -75.56,33.58 -75.45,33.13 -76.75,31.11 -76.87,30.7 -76.82,30.86 -77.77,29.32 -77.75,28.91 -78.35,27.56 -78.48,26.74 -79.35,24.71 -79.7,23.32 -79.67,24.03 -81.01,20.33 -80.62,20.99 -81.26,19.09 -81.32,18.84 -82.01,16.23 -82.44,15.2 -82.52,13.24 -82.99,11.87 -82.53,13.31 -82.79,11.93 -83.33,10.26 -83.77,7.07 -83.55,6.73 -83.41,6.83 -83.77,2.84 -83.67,2.64 -83.66,3.38 -83.82,1.43 -84.14,0.4 -83.73,-3.48 -84,-3 -83.7,-4.5 -83.73,-4.72 -83.74,-4.57 -83.73,-5.77 -83.16,-8.87 -83.27,-9.16 -82.79,-11.45 -83,-12.42 -82.73,-13.5 -82.37,-14.95 -82.08,-15.14 -81.72,-16.73 -81.77,-17.69 -81.53,-18.08 -81.02,-20.43 -80.39,-21.5 -80.31,-22.8 -80.3,-22.79 -79.88,-23.92 -78.95,-26.15 -78.48,-27.5 -77.92,-28.45 -77.17,-29.95 -77.54,-29.04 -75.59,-33.18 -76.58,-31.18 -75.6,-33.45 -74.5,-34.96 -74.39,-35.66 -72.77,-38.51 -72.86,-38.09 -72.89,-38.02 -71.47,-40.08 -70.76,-41.13 -70.52,-41.69 -69.74,-42.49 -69.19,-42.99 -68.51,-44.46 -67.08,-45.94 -66.69,-46.5 -64.88,-48.6 -65.27,-47.99 -64.35,-49.06 -61.23,-52.21 -62.88,-51.02 -60.94,-52.64 -60.33,-53.3 -58.83,-54.78 -59.11,-54.29 -57.98,-55.14 -56.81,-56.52 -54.55,-58.21 -54.82,-57.97 -54.09,-58.6 -51.88,-59.89 -51.09,-60.68 -51.53,-60.7 -49.11,-62.28 -47.3,-63.21 -48.18,-62.49 -46.61,-63.7 -43.73,-65.21 -43.78,-65.43 -43.25,-65.76 -41.78,-66.27 -39.19,-67.53 -39.02,-67.71 -37.94,-68.1 -37.25,-68.65 -35.26,-69.58 -35.72,-69.1 -33.97,-70.14 -31.22,-70.91 -31.06,-71.04 -28.33,-71.84 -28.16,-71.96 -28.74,-71.84 -24.36,-73.26 -25.1,-73.19 -21.9,-74.03 -21.41,-73.85 -22.26,-73.93 -18.86,-74.54 -17.88,-74.88 -17.19,-75.12 -14.46,-75.54 -13.06,-75.6 -13.91,-75.43 -12.05,-75.68 -10.35,-75.95 -9.68,-75.9 -8.98,-76.17 -7.48,-76.05 -7.24,-76.25 -3.23,-76.32 -3.46,-76.59 -0.69,-76.37 1.96,-76.52 1.66,-76.48 3.91,-76.59 3.24,-76.61 4.41,-76.48 8.43,-76.17 7.79,-76.29 9.76,-76.09 11.56,-75.65 11.03,-75.7 14.54,-75.22 14.07,-75.54 14.5,-75.4 17.79,-74.82 17.56,-75.02 19.72,-74.36 21.32,-73.89 23.42,-73.43 21.97,-73.76 25.85,-72.92 25.65,-72.95 28.78,-71.78 29.03,-71.9 31.18,-71.22 31.16,-70.98 33.73,-69.92 33.55,-70.21 33.9,-70 36.81,-68.64 36.83,-68.66 38.51,-67.85 39.77,-67.29 40.66,-67.02 42.14,-66.14 42.74,-65.65 45.39,-64.3 46.39,-63.67 45.45,-64.09 46.29,-64.09 48.37,-62.65 50.44,-61.05 51.72,-60.09 52.14,-59.95 52.07,-59.94 54.3,-58.4 54.51,-58.19 55.46,-57.12 55.02,-57.76 57.04,-56.06 57.13,-55.86 58.52,-54.81 60.07,-53.3 61.54,-51.91 61.82,-51.93 63.04,-50.42 63.59,-49.99 65.2,-48.07 64.88,-48.6 66.39,-46.87 66.57,-46.94 67.77,-44.88 69.87,-42.23 69.12,-43.53 70.46,-41.31 71.33,-40.53 71.38,-40.24 72.6,-38.47 72.77,-37.7 73.72,-36.37 73.68,-36.58 74,-36 75.09,-34.53 76.06,-32.22 76.37,-31.98 76.65,-30.96 77.89,-28.5 77.97,-28.42 78.18,-27.41 78.52,-26.4 79.27,-24.61 79.88,-23.61 80.63,-21.55 80.61,-20.98 80.38,-21.42 81.62,-18.47 81.52,-17.05 81.95,-16.38 82.15,-14.98 82.02,-14.88 82.52,-14.26 82.73,-11.62 82.76,-11.71 82.97,-10.52 83.38,-7.54 83.38,-7.15 83.87,-4.53 83.49,-4.96 83.67,-3.31 83.8,-3.63 83.71,-3.31 84,1.69 83.83,2.25" fill="rgb(122, 32, 223)" stroke="black" stroke-width="1.6666666666666665" stroke-linejoin="round" filter="url(#fuzzy)" />
    <g transform="translate(54.03 -24.45)">
      <polyline id="rightCountour" points="-40.27,-7.45 -39.83,-7.67 -39.36,-7.89 -38.86,-8.12 -38.31,-8.35 -37.73,-8.59 -37.11,-8.82 -36.46,-9.06 -35.77,-9.3 -35.05,-9.54 -34.29,-9.78 -33.5,-10.02 -32.67,-10.26 -31.81,-10.5 -30.91,-10.74 -29.99,-10.98 -29.13,-11.26 -28.2,-11.53 -27.22,-11.8 -26.17,-12.08 -25.08,-12.35 -23.93,-12.62 -22.73,-12.88 -21.49,-13.14 -20.2,-13.39 -18.88,-13.64 -17.52,-13.88 -16.13,-14.1 -14.71,-14.32 -13.27,-14.52 -11.81,-14.72 -10.34,-14.89 -8.86,-15.06 -7.37,-15.21 -5.88,-15.34 -4.39,-15.46 -2.9,-15.56 -1.43,-15.64 0.03,-15.7 1.47,-15.75 2.9,-15.77 4.3,-15.78 5.67,-15.76 7.02,-15.73 8.33,-15.67 9.61,-15.6 10.85,-15.5 12.05,-15.38 13.22,-15.24 14.34,-15.08 15.42,-14.91 16.45,-14.71 17.44,-14.49 18.39,-14.25 19.29,-14 20.15,-13.72 20.96,-13.43 21.72,-13.12 22.44,-12.8 23.12,-12.46 23.76,-12.11 24.35,-11.74 24.91,-11.36 25.43,-10.97 25.92,-10.56 26.37,-10.15 26.79,-9.72 27.18,-9.29 27.53,-8.84 27.85,-8.37 28.14,-7.9 28.4,-7.41 28.63,-6.92 28.83,-6.41 29,-5.89 29.15,-5.36 29.26,-4.82 29.36,-4.27 29.42,-3.72 29.47,-3.15 28.47,2.76 28.01,3.21 27.55,3.66 27.06,4.11 26.57,4.57 26.05,5.02 25.52,5.48 24.97,5.94 24.41,6.39 23.83,6.85 23.23,7.3 22.61,7.75 21.98,8.19 21.33,8.63 20.66,9.07 19.97,9.5 19.26,9.93 18.53,10.35 17.78,10.77 17.01,11.19 16.22,11.59 15.4,11.99 14.56,12.37 13.7,12.74 12.81,13.09 11.9,13.43 10.97,13.75 10.02,14.06 9.04,14.34 8.04,14.6 7.03,14.83 5.99,15.05 4.93,15.23 3.86,15.39 2.77,15.53 1.66,15.64 0.54,15.71 -0.59,15.76 -1.74,15.78 -2.9,15.77 -4.06,15.73 -5.24,15.66 -6.42,15.56 -7.6,15.43 -8.78,15.27 -9.97,15.08 -11.15,14.86 -12.33,14.61 -13.51,14.33 -14.67,14.03 -15.83,13.7 -16.97,13.34 -18.11,12.96 -19.22,12.56 -20.32,12.14 -21.4,11.69 -22.46,11.23 -23.49,10.75 -24.5,10.25 -25.48,9.75 -26.44,9.23 -27.36,8.7 -28.26,8.16 -29.12,7.62 -29.95,7.07 -30.74,6.63 -31.52,6.19 -32.27,5.74 -33.01,5.29 -33.72,4.85 -34.41,4.4 -35.08,3.95 -35.72,3.51 -36.34,3.06 -36.94,2.63 -37.51,2.2 -38.05,1.77 -38.57,1.36 -39.06,0.95 -39.52,0.56" fill="white" stroke="white" stroke-width="0" stroke-linejoin="round" filter="url(#fuzzy)" />
    </g>
    <g transform="translate(-53.17 -20.07)">
      <polyline id="leftCountour" points="40.59,-4.4 40.17,-4.65 39.73,-4.92 39.24,-5.2 38.72,-5.49 38.16,-5.78 37.57,-6.09 36.94,-6.4 36.27,-6.73 35.56,-7.06 34.82,-7.4 34.05,-7.74 33.23,-8.09 32.39,-8.45 31.51,-8.81 30.6,-9.17 29.76,-9.54 28.87,-9.92 27.91,-10.32 26.88,-10.73 25.81,-11.15 24.67,-11.57 23.48,-12 22.24,-12.44 20.96,-12.88 19.63,-13.31 18.27,-13.74 16.87,-14.17 15.44,-14.59 13.99,-15 12.51,-15.39 11.01,-15.78 9.51,-16.14 7.99,-16.49 6.47,-16.82 4.95,-17.13 3.43,-17.42 1.92,-17.68 0.42,-17.91 -1.06,-18.12 -2.53,-18.29 -3.97,-18.44 -5.39,-18.56 -6.78,-18.65 -8.14,-18.7 -9.47,-18.73 -10.76,-18.72 -12.02,-18.68 -13.23,-18.6 -14.41,-18.5 -15.54,-18.36 -16.63,-18.19 -17.68,-17.99 -18.68,-17.76 -19.63,-17.5 -20.55,-17.21 -21.41,-16.89 -22.24,-16.55 -23.02,-16.18 -23.75,-15.79 -24.45,-15.38 -25.11,-14.95 -25.72,-14.5 -26.31,-14.03 -26.85,-13.55 -27.37,-13.06 -27.86,-12.56 -28.31,-12.03 -28.73,-11.5 -29.11,-10.94 -29.47,-10.37 -29.8,-9.79 -30.1,-9.2 -30.37,-8.59 -30.62,-7.97 -30.83,-7.34 -31.03,-6.7 -31.2,-6.06 -31.34,-5.4 -31.47,-4.74 -29.81,4.54 -29.36,5.11 -28.9,5.67 -28.42,6.24 -27.92,6.8 -27.41,7.36 -26.88,7.91 -26.33,8.46 -25.76,9 -25.18,9.53 -24.57,10.06 -23.95,10.58 -23.31,11.09 -22.65,11.58 -21.97,12.07 -21.27,12.55 -20.55,13.02 -19.8,13.48 -19.03,13.93 -18.24,14.37 -17.43,14.79 -16.59,15.2 -15.72,15.59 -14.83,15.96 -13.91,16.31 -12.97,16.63 -12.01,16.94 -11.01,17.22 -10,17.47 -8.96,17.69 -7.9,17.89 -6.81,18.06 -5.7,18.2 -4.58,18.3 -3.43,18.38 -2.27,18.43 -1.09,18.44 0.1,18.42 1.31,18.38 2.53,18.29 3.76,18.18 4.99,18.04 6.23,17.87 7.48,17.67 8.72,17.43 9.97,17.18 11.21,16.89 12.44,16.58 13.67,16.24 14.89,15.88 16.09,15.5 17.28,15.1 18.46,14.69 19.61,14.25 20.74,13.8 21.85,13.34 22.93,12.87 23.98,12.39 25,11.9 25.99,11.41 26.95,10.91 27.87,10.42 28.75,9.92 29.6,9.43 30.41,8.95 31.21,8.52 31.99,8.1 32.74,7.68 33.47,7.26 34.18,6.84 34.87,6.43 35.52,6.02 36.16,5.62 36.77,5.23 37.35,4.84 37.9,4.46 38.43,4.09 38.93,3.73 39.4,3.38 39.84,3.04" fill="white" stroke="white" stroke-width="0" stroke-linejoin="round" filter="url(#fuzzy)" />
    </g>
    <g transform="translate(54.03 -24.45)">
      <polyline id="rightUpper" points="-42.81,-5.52 -42.68,-5.69 -42.54,-5.86 -42.36,-6.04 -42.16,-6.22 -41.93,-6.41 -41.66,-6.61 -41.36,-6.81 -41.03,-7.02 -40.67,-7.23 -40.27,-7.45 -39.83,-7.67 -39.36,-7.89 -38.86,-8.12 -38.31,-8.35 -37.73,-8.59 -37.11,-8.82 -36.46,-9.06 -35.77,-9.3 -35.05,-9.54 -34.29,-9.78 -33.5,-10.02 -32.67,-10.26 -31.81,-10.5 -30.91,-10.74 -29.99,-10.98 -29.13,-11.26 -28.2,-11.53 -27.22,-11.8 -26.17,-12.08 -25.08,-12.35 -23.93,-12.62 -22.73,-12.88 -21.49,-13.14 -20.2,-13.39 -18.88,-13.64 -17.52,-13.88 -16.13,-14.1 -14.71,-14.32 -13.27,-14.52 -11.81,-14.72 -10.34,-14.89 -8.86,-15.06 -7.37,-15.21 -5.88,-15.34 -4.39,-15.46 -2.9,-15.56 -1.43,-15.64 0.03,-15.7 1.47,-15.75 2.9,-15.77 4.3,-15.78 5.67,-15.76 7.02,-15.73 8.33,-15.67 9.61,-15.6 10.85,-15.5 12.05,-15.38 13.22,-15.24 14.34,-15.08 15.42,-14.91 16.45,-14.71 17.44,-14.49 18.39,-14.25 19.29,-14 20.15,-13.72 20.96,-13.43 21.72,-13.12 22.44,-12.8 23.12,-12.46 23.76,-12.11 24.35,-11.74 24.91,-11.36 25.43,-10.97 25.92,-10.56 26.37,-10.15 26.79,-9.72 27.18,-9.29 27.53,-8.84 27.85,-8.37 28.14,-7.9 28.4,-7.41 28.63,-6.92 28.83,-6.41 29,-5.89 29.15,-5.36 29.26,-4.82 29.36,-4.27 29.42,-3.72 29.47,-3.15 29.49,-2.58 29.49,-2 29.47,-1.41 29.43,-0.81 29.37,-0.21 29.29,0.4 29.19,1.02 29.08,1.64 28.95,2.27 28.8,2.9" fill="none" stroke="black" stroke-width="1.6666666666666665" stroke-linejoin="round" filter="url(#fuzzy)" />
      <polyline id="rightLower" points="-42.55,-2.49 -42.39,-2.28 -42.19,-2.04 -41.96,-1.79 -41.7,-1.5 -41.41,-1.2 -41.09,-0.88 -40.74,-0.55 -40.36,-0.19 -39.96,0.18 -39.52,0.56 -39.06,0.95 -38.57,1.36 -38.05,1.77 -37.51,2.2 -36.94,2.63 -36.34,3.06 -35.72,3.51 -35.08,3.95 -34.41,4.4 -33.72,4.85 -33.01,5.29 -32.27,5.74 -31.52,6.19 -30.74,6.63 -29.95,7.07 -29.12,7.62 -28.26,8.16 -27.36,8.7 -26.44,9.23 -25.48,9.75 -24.5,10.25 -23.49,10.75 -22.46,11.23 -21.4,11.69 -20.32,12.14 -19.22,12.56 -18.11,12.96 -16.97,13.34 -15.83,13.7 -14.67,14.03 -13.51,14.33 -12.33,14.61 -11.15,14.86 -9.97,15.08 -8.78,15.27 -7.6,15.43 -6.42,15.56 -5.24,15.66 -4.06,15.73 -2.9,15.77 -1.74,15.78 -0.59,15.76 0.54,15.71 1.66,15.64 2.77,15.53 3.86,15.39 4.93,15.23 5.99,15.05 7.03,14.83 8.04,14.6 9.04,14.34 10.02,14.06 10.97,13.75 11.9,13.43 12.81,13.09 13.7,12.74 14.56,12.37 15.4,11.99 16.22,11.59 17.01,11.19 17.78,10.77 18.53,10.35 19.26,9.93 19.97,9.5 20.66,9.07 21.33,8.63 21.98,8.19 22.61,7.75 23.23,7.3 23.83,6.85 24.41,6.39 24.97,5.94 25.52,5.48 26.05,5.02 26.57,4.57 27.06,4.11 27.55,3.66 28.01,3.21 28.47,2.76 28.91,2.32 29.33,1.87 29.74,1.44 30.14,1 30.52,0.57 30.89,0.15 31.25,-0.27 31.59,-0.68 31.93,-1.09 32.25,-1.49" fill="none" stroke="black" stroke-width="2.2222222222222223" stroke-linejoin="round" filter="url(#fuzzy)" />
      <circle r="3.194" cx="-3.8268332599562864" cy="-9.132106490855795" stroke="black" fill="none" stroke-width="1.0" filter="url(#fuzzy)" clip-path="url(#rightEyeClipPath)" /><circle r="4.53" cx="-7.091833259956287" cy="-9.297106490855795" stroke="black" fill="none" stroke-width="1.0" filter="url(#fuzzy)" clip-path="url(#rightEyeClipPath)" /><circle r="3.822" cx="-2.6068332599562867" cy="-10.722106490855795" stroke="black" fill="none" stroke-width="1.0" filter="url(#fuzzy)" clip-path="url(#rightEyeClipPath)" /><circle r="3.726" cx="-4.061833259956287" cy="-6.4671064908557945" stroke="black" fill="none" stroke-width="1.0" filter="url(#fuzzy)" clip-path="url(#rightEyeClipPath)" /><circle r="4.394" cx="-3.9068332599562865" cy="-10.947106490855795" stroke="black" fill="none" stroke-width="1.0" filter="url(#fuzzy)" clip-path="url(#rightEyeClipPath)" /><circle r="4.828" cx="-3.296833259956287" cy="-8.567106490855796" stroke="black" fill="none" stroke-width="1.0" filter="url(#fuzzy)" clip-path="url(#rightEyeClipPath)" /><circle r="4.048" cx="-3.766833259956287" cy="-7.502106490855795" stroke="black" fill="none" stroke-width="1.0" filter="url(#fuzzy)" clip-path="url(#rightEyeClipPath)" /><circle r="4.356" cx="-6.046833259956287" cy="-6.912106490855795" stroke="black" fill="none" stroke-width="1.0" filter="url(#fuzzy)" clip-path="url(#rightEyeClipPath)" /><circle r="4.42" cx="-5.886833259956287" cy="-9.167106490855794" stroke="black" fill="none" stroke-width="1.0" filter="url(#fuzzy)" clip-path="url(#rightEyeClipPath)" /><circle r="3.22" cx="-4.601833259956287" cy="-6.662106490855795" stroke="black" fill="none" stroke-width="1.0" filter="url(#fuzzy)" clip-path="url(#rightEyeClipPath)" />
      </g>
    <g transform="translate(-53.17 -20.07)">
      <polyline id="leftUpper" points="42.98,-2.37 42.86,-2.53 42.72,-2.7 42.56,-2.87 42.37,-3.06 42.15,-3.26 41.9,-3.47 41.62,-3.68 41.31,-3.91 40.97,-4.15 40.59,-4.4 40.17,-4.65 39.73,-4.92 39.24,-5.2 38.72,-5.49 38.16,-5.78 37.57,-6.09 36.94,-6.4 36.27,-6.73 35.56,-7.06 34.82,-7.4 34.05,-7.74 33.23,-8.09 32.39,-8.45 31.51,-8.81 30.6,-9.17 29.76,-9.54 28.87,-9.92 27.91,-10.32 26.88,-10.73 25.81,-11.15 24.67,-11.57 23.48,-12 22.24,-12.44 20.96,-12.88 19.63,-13.31 18.27,-13.74 16.87,-14.17 15.44,-14.59 13.99,-15 12.51,-15.39 11.01,-15.78 9.51,-16.14 7.99,-16.49 6.47,-16.82 4.95,-17.13 3.43,-17.42 1.92,-17.68 0.42,-17.91 -1.06,-18.12 -2.53,-18.29 -3.97,-18.44 -5.39,-18.56 -6.78,-18.65 -8.14,-18.7 -9.47,-18.73 -10.76,-18.72 -12.02,-18.68 -13.23,-18.6 -14.41,-18.5 -15.54,-18.36 -16.63,-18.19 -17.68,-17.99 -18.68,-17.76 -19.63,-17.5 -20.55,-17.21 -21.41,-16.89 -22.24,-16.55 -23.02,-16.18 -23.75,-15.79 -24.45,-15.38 -25.11,-14.95 -25.72,-14.5 -26.31,-14.03 -26.85,-13.55 -27.37,-13.06 -27.86,-12.56 -28.31,-12.03 -28.73,-11.5 -29.11,-10.94 -29.47,-10.37 -29.8,-9.79 -30.1,-9.2 -30.37,-8.59 -30.62,-7.97 -30.83,-7.34 -31.03,-6.7 -31.2,-6.06 -31.34,-5.4 -31.47,-4.74 -31.57,-4.07 -31.65,-3.4 -31.72,-2.72 -31.76,-2.03 -31.79,-1.34 -31.8,-0.65 -31.79,0.05 -31.77,0.75 -31.73,1.45 -31.68,2.15" fill="none" stroke="black" stroke-width="2.2222222222222223" stroke-linejoin="round" filter="url(#fuzzy)" />
      <polyline id="leftLower" points="42.73,0.48 42.56,0.65 42.37,0.85 42.15,1.07 41.91,1.3 41.63,1.55 41.33,1.82 41,2.1 40.64,2.4 40.25,2.71 39.84,3.04 39.4,3.38 38.93,3.73 38.43,4.09 37.9,4.46 37.35,4.84 36.77,5.23 36.16,5.62 35.52,6.02 34.87,6.43 34.18,6.84 33.47,7.26 32.74,7.68 31.99,8.1 31.21,8.52 30.41,8.95 29.6,9.43 28.75,9.92 27.87,10.42 26.95,10.91 25.99,11.41 25,11.9 23.98,12.39 22.93,12.87 21.85,13.34 20.74,13.8 19.61,14.25 18.46,14.69 17.28,15.1 16.09,15.5 14.89,15.88 13.67,16.24 12.44,16.58 11.21,16.89 9.97,17.18 8.72,17.43 7.48,17.67 6.23,17.87 4.99,18.04 3.76,18.18 2.53,18.29 1.31,18.38 0.1,18.42 -1.09,18.44 -2.27,18.43 -3.43,18.38 -4.58,18.3 -5.7,18.2 -6.81,18.06 -7.9,17.89 -8.96,17.69 -10,17.47 -11.01,17.22 -12.01,16.94 -12.97,16.63 -13.91,16.31 -14.83,15.96 -15.72,15.59 -16.59,15.2 -17.43,14.79 -18.24,14.37 -19.03,13.93 -19.8,13.48 -20.55,13.02 -21.27,12.55 -21.97,12.07 -22.65,11.58 -23.31,11.09 -23.95,10.58 -24.57,10.06 -25.18,9.53 -25.76,9 -26.33,8.46 -26.88,7.91 -27.41,7.36 -27.92,6.8 -28.42,6.24 -28.9,5.67 -29.36,5.11 -29.81,4.54 -30.25,3.97 -30.67,3.39 -31.07,2.82 -31.47,2.25 -31.84,1.68 -32.21,1.11 -32.56,0.54 -32.9,-0.03 -33.23,-0.6 -33.55,-1.16" fill="none" stroke="black" stroke-width="2.2222222222222223" stroke-linejoin="round" filter="url(#fuzzy)" />
      <circle r="3.816" cx="4.4569832418032815" cy="13.80684147892493" stroke="black" fill="none" stroke-width="1.0" filter="url(#fuzzy)" clip-path="url(#leftEyeClipPath)" /><circle r="3.204" cx="3.151983241803282" cy="12.20684147892493" stroke="black" fill="none" stroke-width="1.0" filter="url(#fuzzy)" clip-path="url(#leftEyeClipPath)" /><circle r="4.6080000000000005" cx="0.7969832418032818" cy="10.231841478924931" stroke="black" fill="none" stroke-width="1.0" filter="url(#fuzzy)" clip-path="url(#leftEyeClipPath)" /><circle r="3.62" cx="0.726983241803282" cy="12.96684147892493" stroke="black" fill="none" stroke-width="1.0" filter="url(#fuzzy)" clip-path="url(#leftEyeClipPath)" /><circle r="4.214" cx="-0.18301675819671814" cy="11.691841478924932" stroke="black" fill="none" stroke-width="1.0" filter="url(#fuzzy)" clip-path="url(#leftEyeClipPath)" /><circle r="3.75" cx="3.861983241803282" cy="13.511841478924929" stroke="black" fill="none" stroke-width="1.0" filter="url(#fuzzy)" clip-path="url(#leftEyeClipPath)" /><circle r="4.578" cx="0.17698324180328173" cy="9.981841478924931" stroke="black" fill="none" stroke-width="1.0" filter="url(#fuzzy)" clip-path="url(#leftEyeClipPath)" /><circle r="4.6579999999999995" cx="3.4169832418032815" cy="9.651841478924931" stroke="black" fill="none" stroke-width="1.0" filter="url(#fuzzy)" clip-path="url(#leftEyeClipPath)" /><circle r="4.566" cx="0.5819832418032815" cy="9.68184147892493" stroke="black" fill="none" stroke-width="1.0" filter="url(#fuzzy)" clip-path="url(#leftEyeClipPath)" /><circle r="4.522" cx="2.7119832418032814" cy="9.96684147892493" stroke="black" fill="none" stroke-width="1.0" filter="url(#fuzzy)" clip-path="url(#leftEyeClipPath)" />
    </g>
    <g id="hairs">
      <polyline points="-35.26,-69.58 -34.92,-69.59 -33.73,-70.03 -32.4,-70.51 -31.22,-70.9 -30.26,-71.21 -29.49,-71.43 -28.89,-71.58 -28.44,-71.64 -28.2,-71.59 -28.19,-71.42 -28.46,-71.1 -29.02,-70.64 -29.87,-70.02 -31.02,-69.25 -32.51,-68.3 -34.4,-67.17 -36.72,-65.83 -39.52,-64.26 -42.81,-62.45 -46.54,-60.43 -50.66,-58.28 -55.14,-56.04" fill="none" stroke="rgb(134, 73, 19)" stroke-width="2" stroke-linejoin="round" filter="url(#fuzzy)" /><polyline points="21.97,-73.76 24.6,-73.15 26.4,-72.62 28,-72.11 29.46,-71.61 30.78,-71.14 31.96,-70.69 32.99,-70.29 33.88,-69.92 34.64,-69.61 35.26,-69.33 35.72,-69.12 35.96,-68.99 35.95,-68.95 35.61,-69.04 34.9,-69.25 33.76,-69.6 32.15,-70.13 30.05,-70.84 27.52,-71.73 24.71,-72.73" fill="none" stroke="rgb(134, 73, 19)" stroke-width="2" stroke-linejoin="round" filter="url(#fuzzy)" /><polyline points="-28.16,-71.96 -27.26,-72.19 -25.24,-72.56 -22.97,-72.77 -20.57,-72.81 -17.99,-72.71 -15.18,-72.51 -12.11,-72.26 -8.8,-71.95 -5.31,-71.59 -1.7,-71.16 1.97,-70.67 5.71,-70.12 9.52,-69.51 13.4,-68.86 17.36,-68.16 21.38,-67.44 25.45,-66.7 29.53,-65.96 33.59,-65.23 37.5,-64.56 41.07,-64.06 44.06,-63.89" fill="none" stroke="rgb(134, 73, 19)" stroke-width="2" stroke-linejoin="round" filter="url(#fuzzy)" /><polyline points="14.5,-75.4 16.54,-75.04 17.58,-74.76 18.22,-74.44 18.46,-74.11 18.23,-73.8 17.52,-73.5 16.3,-73.18 14.55,-72.83 12.17,-72.45 9.11,-72.06 5.3,-71.67 0.68,-71.28 -4.84,-70.89 -11.33,-70.48 -18.78,-70.02 -26.96,-69.58" fill="none" stroke="rgb(134, 73, 19)" stroke-width="2" stroke-linejoin="round" filter="url(#fuzzy)" /><polyline points="-31.22,-70.91 -30.37,-71.21 -29.1,-71.61 -27.79,-72.03 -26.36,-72.48 -24.83,-72.94 -23.3,-73.39 -21.88,-73.78 -20.63,-74.11 -19.58,-74.38 -18.75,-74.59 -18.18,-74.74 -17.92,-74.8 -18.03,-74.76 -18.54,-74.62 -19.48,-74.38 -20.87,-74.07 -22.7,-73.66" fill="none" stroke="rgb(134, 73, 19)" stroke-width="2" stroke-linejoin="round" filter="url(#fuzzy)" /><polyline points="11.56,-75.65 12.1,-75.58 13.23,-75.46 14.35,-75.34 15.46,-75.19 16.59,-75 17.7,-74.78 18.71,-74.54 19.57,-74.31 20.23,-74.11 20.67,-73.94 20.87,-73.81 20.81,-73.7 20.45,-73.64 19.76,-73.61 18.7,-73.64 17.24,-73.72 15.34,-73.87 12.93,-74.09 9.95,-74.37 6.38,-74.71 2.19,-75.1 -2.6,-75.55" fill="none" stroke="rgb(134, 73, 19)" stroke-width="2" stroke-linejoin="round" filter="url(#fuzzy)" /><polyline points="65.2,-48.07 65.35,-47.99 65.83,-47.39 66.31,-46.63 66.67,-45.89 66.81,-45.32 66.67,-44.98 66.23,-44.88 65.48,-45.02 64.41,-45.38 62.98,-45.98 61.19,-46.84 59.01,-47.97 56.46,-49.37 53.51,-51.02 50.16,-52.93 46.38,-55.11 42.11,-57.6 37.31,-60.45 31.99,-63.66 26.21,-67.25 20.21,-71.16" fill="none" stroke="rgb(134, 73, 19)" stroke-width="2" stroke-linejoin="round" filter="url(#fuzzy)" /><polyline points="65.2,-48.07 65.32,-48.01 65.71,-47.49 66.04,-46.86 66.17,-46.31 65.99,-45.98 65.43,-45.98 64.47,-46.3 63.1,-46.95 61.27,-47.91 58.97,-49.23 56.14,-50.91 52.74,-53.01 48.75,-55.53 44.18,-58.44 39.08,-61.71 33.44,-65.36 27.09,-69.52" fill="none" stroke="rgb(134, 73, 19)" stroke-width="2" stroke-linejoin="round" filter="url(#fuzzy)" /><polyline points="61.82,-51.93 62.84,-50.73 63.76,-49.72 64.61,-48.79 65.41,-47.89 66.2,-46.98 66.98,-46.04 67.7,-45.12 68.33,-44.3 68.83,-43.63 69.18,-43.13 69.35,-42.82 69.35,-42.69 69.17,-42.77 68.77,-43.09 68.14,-43.66 67.27,-44.52 66.14,-45.65 64.75,-47.05 63.11,-48.71 61.25,-50.64 59.19,-52.82 57,-55.24" fill="none" stroke="rgb(134, 73, 19)" stroke-width="2" stroke-linejoin="round" filter="url(#fuzzy)" /><polyline points="60.07,-53.3 61.13,-52.35 61.9,-51.63 62.56,-50.96 63.08,-50.38 63.41,-49.97 63.52,-49.75 63.4,-49.73 63.03,-49.92 62.34,-50.37 61.28,-51.16 59.76,-52.39 57.68,-54.17 54.87,-56.62 51.11,-59.91" fill="none" stroke="rgb(134, 73, 19)" stroke-width="2" stroke-linejoin="round" filter="url(#fuzzy)" /><polyline points="-25.1,-73.19 -22.98,-73.69 -21.83,-73.93 -20.78,-74.16 -19.65,-74.42 -18.49,-74.67 -17.42,-74.88 -16.53,-75.01 -15.86,-75.07 -15.42,-75.05 -15.22,-74.97 -15.25,-74.83 -15.52,-74.63 -16.02,-74.35 -16.76,-73.99 -17.75,-73.56 -18.98,-73.03 -20.53,-72.42 -22.45,-71.7 -24.84,-70.87 -27.8,-69.9 -31.35,-68.81 -35.39,-67.61 -39.64,-66.39" fill="none" stroke="rgb(134, 73, 19)" stroke-width="2" stroke-linejoin="round" filter="url(#fuzzy)" /><polyline points="-22.26,-73.93 -19.67,-74.4 -17.66,-74.71 -15.65,-74.91 -13.57,-75.02 -11.46,-75.06 -9.31,-75.05 -7.08,-75.02 -4.78,-74.98 -2.4,-74.93 0.02,-74.88 2.46,-74.83 4.89,-74.79 7.26,-74.75 9.5,-74.73 11.56,-74.71 13.35,-74.7 14.82,-74.69 15.9,-74.72 16.55,-74.81 16.95,-74.91" fill="none" stroke="rgb(134, 73, 19)" stroke-width="2" stroke-linejoin="round" filter="url(#fuzzy)" /><polyline points="23.42,-73.43 23.42,-73.42 24.38,-73.1 25.31,-72.71 25.95,-72.3 26.2,-71.89 26.04,-71.5 25.44,-71.13 24.42,-70.76 22.97,-70.39 21.1,-70.02 18.78,-69.63 16,-69.23 12.73,-68.82 8.93,-68.41 4.61,-68.01 -0.26,-67.6 -5.73,-67.2 -11.86,-66.81 -18.76,-66.42 -26.51,-66.05 -35.02,-65.69" fill="none" stroke="rgb(134, 73, 19)" stroke-width="2" stroke-linejoin="round" filter="url(#fuzzy)" /><polyline points="71.38,-40.24 71.95,-38.97 71.63,-38.3 70.57,-38.06 68.83,-38.1 66.42,-38.29 63.32,-38.63 59.48,-39.14 54.81,-39.9 49.27,-40.96 42.83,-42.35 35.49,-44.09 27.26,-46.17 18.13,-48.59 8.09,-51.35 -2.92,-54.43 -15.05,-57.85 -28.5,-61.6" fill="none" stroke="rgb(134, 73, 19)" stroke-width="2" stroke-linejoin="round" filter="url(#fuzzy)" /><polyline points="69.87,-42.23 69.8,-42.42 70.33,-41.69 70.96,-40.8 71.55,-39.91 72.07,-39.09 72.51,-38.36 72.86,-37.76 73.13,-37.27 73.31,-36.88 73.41,-36.57 73.39,-36.38 73.24,-36.34 72.91,-36.5 72.4,-36.9 71.67,-37.58 70.71,-38.55 69.5,-39.84 68.04,-41.45 66.31,-43.41 64.33,-45.72 62.11,-48.37 59.72,-51.33 57.24,-54.52" fill="none" stroke="rgb(134, 73, 19)" stroke-width="2" stroke-linejoin="round" filter="url(#fuzzy)" /><polyline points="-17.19,-75.12 -15.04,-75.37 -13.48,-75.45 -11.96,-75.48 -10.26,-75.51 -8.38,-75.54 -6.37,-75.56 -4.28,-75.58 -2.12,-75.59 0.11,-75.6 2.35,-75.6 4.49,-75.62 6.45,-75.64 8.11,-75.66 9.42,-75.69 10.38,-75.7 11.02,-75.7 11.38,-75.68 11.41,-75.66" fill="none" stroke="rgb(134, 73, 19)" stroke-width="2" stroke-linejoin="round" filter="url(#fuzzy)" /><polyline points="57.13,-55.86 58.18,-54.86 58.55,-54.04 58.08,-53.59 56.76,-53.48 54.61,-53.69 51.61,-54.2 47.74,-55.02 42.95,-56.18 37.23,-57.66 30.52,-59.46 22.73,-61.58 13.76,-64.06 3.48,-66.97 -8.31,-70.3" fill="none" stroke="rgb(134, 73, 19)" stroke-width="2" stroke-linejoin="round" filter="url(#fuzzy)" /><polyline points="63.59,-49.99 64.56,-48.86 65.06,-48.27 65.41,-47.76 65.64,-47.26 65.67,-46.88 65.4,-46.74 64.74,-46.94 63.66,-47.51 62.14,-48.43 60.16,-49.73 57.7,-51.4 54.72,-53.5 51.2,-56.06 47.14,-59.09 42.6,-62.54 37.51,-66.39" fill="none" stroke="rgb(134, 73, 19)" stroke-width="2" stroke-linejoin="round" filter="url(#fuzzy)" /><polyline points="1.96,-76.52 2.27,-76.52 2.9,-76.5 3.61,-76.43 4.37,-76.29 5.05,-76.1 5.53,-75.86 5.73,-75.57 5.62,-75.25 5.18,-74.88 4.42,-74.48 3.35,-74.03 1.95,-73.52 0.21,-72.94 -1.9,-72.28 -4.42,-71.53 -7.39,-70.71 -10.86,-69.81 -14.84,-68.83 -19.35,-67.76 -24.39,-66.6 -29.97,-65.38 -36.13,-64.12 -43.14,-62.69" fill="none" stroke="rgb(134, 73, 19)" stroke-width="2" stroke-linejoin="round" filter="url(#fuzzy)" /><polyline points="74,-36 74.42,-34.65 73.55,-33.73 71.45,-33.3 68.14,-33.26 63.6,-33.58 57.79,-34.28 50.71,-35.35 42.32,-36.76 32.63,-38.5 21.57,-40.6 9.11,-43.1 -4.82,-46.05 -20.24,-49.46 -36.96,-53.4" fill="none" stroke="rgb(134, 73, 19)" stroke-width="2" stroke-linejoin="round" filter="url(#fuzzy)" /><polyline points="36.81,-68.64 37.36,-68.4 38.43,-67.91 39.61,-67.35 40.79,-66.76 41.93,-66.17 42.95,-65.61 43.79,-65.15 44.39,-64.8 44.77,-64.57 44.94,-64.42 44.91,-64.36 44.63,-64.4 44.04,-64.59 43.07,-64.99 41.71,-65.6 39.94,-66.43 37.75,-67.49 35.09,-68.79 31.99,-70.29" fill="none" stroke="rgb(134, 73, 19)" stroke-width="2" stroke-linejoin="round" filter="url(#fuzzy)" /><polyline points="73.72,-36.37 73.79,-36.29 74.02,-35.76 74.22,-35.05 74.24,-34.42 74,-33.99 73.48,-33.82 72.65,-33.91 71.51,-34.29 70.04,-34.94 68.23,-35.87 66.06,-37.1 63.51,-38.64 60.56,-40.54 57.18,-42.8 53.36,-45.44 49.07,-48.47 44.3,-51.91 39.01,-55.78 33.22,-60.1 27,-64.86 20.59,-69.96" fill="none" stroke="rgb(134, 73, 19)" stroke-width="2" stroke-linejoin="round" filter="url(#fuzzy)" /><polyline points="11.03,-75.7 13.01,-75.45 13.64,-75.29 13.81,-75.06 13.67,-74.71 13.13,-74.25 12.09,-73.71 10.45,-73.09 8.15,-72.41 5.12,-71.65 1.37,-70.81 -3.14,-69.86 -8.46,-68.79 -14.68,-67.61 -21.88,-66.31 -30,-64.97 -38.92,-63.68" fill="none" stroke="rgb(134, 73, 19)" stroke-width="2" stroke-linejoin="round" filter="url(#fuzzy)" /><polyline points="-25.1,-73.19 -22.99,-73.69 -21.84,-73.93 -20.81,-74.16 -19.7,-74.41 -18.58,-74.65 -17.56,-74.84 -16.73,-74.95 -16.14,-74.99 -15.81,-74.94 -15.73,-74.83 -15.92,-74.65 -16.36,-74.39 -17.07,-74.05 -18.03,-73.63 -19.25,-73.12 -20.76,-72.52 -22.61,-71.81 -24.91,-70.97 -27.76,-70 -31.22,-68.89 -35.24,-67.67 -39.53,-66.43" fill="none" stroke="rgb(134, 73, 19)" stroke-width="2" stroke-linejoin="round" filter="url(#fuzzy)" /><polyline points="8.43,-76.17 8.68,-76.16 9.77,-75.99 11.04,-75.78 12.32,-75.58 13.54,-75.41 14.7,-75.25 15.79,-75.1 16.8,-74.94 17.68,-74.77 18.39,-74.61 18.87,-74.47 19.09,-74.37 19.01,-74.32 18.61,-74.33 17.85,-74.39 16.66,-74.54 14.98,-74.76 12.71,-75.08 9.84,-75.49 6.64,-76.01" fill="none" stroke="rgb(134, 73, 19)" stroke-width="2" stroke-linejoin="round" filter="url(#fuzzy)" /><polyline points="31.16,-70.98 32.71,-70.38 33.46,-70.08 34.04,-69.77 34.5,-69.45 34.75,-69.15 34.72,-68.92 34.35,-68.76 33.61,-68.67 32.44,-68.66 30.76,-68.74 28.5,-68.95 25.59,-69.31 22.03,-69.82 17.87,-70.45 13.17,-71.18 7.97,-72.02 2.18,-73.03 -4.39,-74.27" fill="none" stroke="rgb(134, 73, 19)" stroke-width="2" stroke-linejoin="round" filter="url(#fuzzy)" /><polyline points="38.51,-67.85 27.18,-63.24 10.74,-63.79 9.4,-62.81 19.16,-59.57 31.23,-56.54 37.86,-55.83 35.25,-57.63 24.41,-60.75 10.59,-63.77 1.27,-65.72 2.62,-65.8 14.73,-62.85 27.23,-55.97 15.67,-47.5 -65.27,-47.99" fill="none" stroke="rgb(134, 73, 19)" stroke-width="2" stroke-linejoin="round" filter="url(#fuzzy)" /><polyline points="55.02,-57.76 -5.71,-58.78 -10.42,-57.53 2.19,-55.78 17.45,-54.18 30.16,-53.3 37.65,-53.58 38.87,-55 34.57,-57.14 27.11,-59.41 19.78,-61.33 15.67,-62.62 16.46,-63.22 21.8,-63.25 29.69,-62.81 37.62,-61.98 43.84,-60.81 47.68,-59.34 49.08,-57.75 47.51,-56.66 41.06,-57.29 26.47,-60.49 -0.94,-62.96 -58.83,-54.78" fill="none" stroke="rgb(134, 73, 19)" stroke-width="2" stroke-linejoin="round" filter="url(#fuzzy)" /><polyline points="64.88,-48.6 38.47,-58.49 23.62,-56.66 17.46,-53.68 15.94,-53.51 17.16,-55.34 19.89,-57.61 23.44,-59.51 26.95,-60.87 28.94,-61.88 28.04,-62.8 23.94,-63.78 17.37,-64.9 9.13,-66.17 -0.28,-67.55 -9.35,-68.93 -13.74,-70.31 -7.49,-71.84 10.66,-72.94 31.16,-70.98" fill="none" stroke="rgb(134, 73, 19)" stroke-width="2" stroke-linejoin="round" filter="url(#fuzzy)" /><polyline points="61.54,-51.91 22.99,-63.14 12.53,-66.44 6.16,-66.92 6.96,-64.76 15.13,-61.2 25.9,-58.06 34.39,-56.39 38.68,-56.1 39.7,-56.5 39.27,-57.07 38.35,-57.73 36.56,-58.66 32.93,-59.9 27.06,-61.03 19.8,-61.23 12.84,-59.57 7.65,-55.78 4.03,-51.29 -0.77,-50.1 -10.07,-57.93 -0.69,-76.37" fill="none" stroke="rgb(134, 73, 19)" stroke-width="2" stroke-linejoin="round" filter="url(#fuzzy)" /><polyline points="-13.91,-75.43 14.11,-68.17 24.78,-62.05 30.2,-59.09 29.36,-59.24 25.82,-59.99 22.77,-60.1 19.76,-60.1 14.94,-60.81 8.5,-62.38 2.91,-64.43 -0.31,-66.39 -3.6,-67.55 -11.46,-67.15 -22.54,-65.45 -20.82,-65.52 23.42,-73.43" fill="none" stroke="rgb(134, 73, 19)" stroke-width="2" stroke-linejoin="round" filter="url(#fuzzy)" /><polyline points="64.88,-48.6 11.37,-59.99 0.56,-60.98 4.42,-60 12.76,-60.66 18.45,-62.63 17.83,-64.57 10.9,-65.65 0.3,-65.75 -10.14,-65.23 -16.86,-64.66 -17.81,-64.52 -13.13,-65.04 -5.21,-66.03 2.3,-66.99 6.57,-67.41 7.69,-67.21 9.03,-66.99 13.73,-68.01 16.43,-71.21 -3.23,-76.32" fill="none" stroke="rgb(134, 73, 19)" stroke-width="2" stroke-linejoin="round" filter="url(#fuzzy)" /><polyline points="-46.61,-63.7 -41.06,-61.82 -15.86,-58.8 7.67,-55.15 15.9,-52.98 11.23,-52.54 2.61,-53.07 -4.11,-54.03 -8.5,-55.26 -12,-56.51 -14.05,-57.3 -11.78,-57 -2.63,-55.22 12.96,-52.4 30.52,-50.59 41.65,-53.55 38.27,-63.35 31.16,-70.98" fill="none" stroke="rgb(134, 73, 19)" stroke-width="2" stroke-linejoin="round" filter="url(#fuzzy)" /><polyline points="79.27,-24.61 22.54,-41.25 19.71,-50.85 19.13,-59.93 16.66,-66.31 15.68,-68.98 18.47,-68.39 24.74,-65.84 32.36,-62.81 38.92,-60.38 43.01,-58.95 44.4,-58.3 43.53,-58.05 40.96,-58.09 37.35,-58.54 33.82,-59.44 32.12,-60.44 33.82,-60.77 39.13,-59.8 45.9,-57.71 50.01,-55.81 46.83,-56.25 33.26,-60.88 12.4,-69.36 9.76,-76.09" fill="none" stroke="rgb(134, 73, 19)" stroke-width="2" stroke-linejoin="round" filter="url(#fuzzy)" /><polyline points="73.68,-36.58 6.18,-51.33 -2.81,-57.08 -5.79,-57.7 -8.75,-57.41 -8.46,-57.67 -5.58,-58.76 -3.24,-60.6 -3.42,-62.9 -5.93,-65.08 -9.36,-66.58 -12.33,-67 -13.89,-66.22 -13.2,-64.33 -9.1,-61.58 -0.7,-58.3 11.39,-54.9 23.93,-51.97 32.17,-50.25 33.52,-50.26 31.56,-51.57 34.13,-52.82 38.49,-55.5 7.79,-76.29" fill="none" stroke="rgb(134, 73, 19)" stroke-width="2" stroke-linejoin="round" filter="url(#fuzzy)" /><polyline points="33.73,-69.92 15.38,-69.66 24.08,-65.78 36.68,-59.43 46.14,-53.08 48.49,-49.65 43.52,-50.09 34.43,-53.31 25.39,-57.36 19.08,-60.67 15.61,-62.59 13.18,-63.3 9.52,-63.32 3.51,-63.02 -3.99,-62.5 -10.58,-61.84 -13.85,-61.27 -13.4,-61.32 -11.66,-62.38 -12.68,-64.22 -18.92,-65.79 -28.27,-65.9 -33.27,-64.82 -21.6,-65.82 25.65,-72.95" fill="none" stroke="rgb(134, 73, 19)" stroke-width="2" stroke-linejoin="round" filter="url(#fuzzy)" /><polyline points="55.02,-57.76 36.29,-46.79 -0.28,-50.78 -16.47,-55.94 -13.13,-60.31 -2.36,-63.89 5.46,-66.66 5.93,-68.38 -0.13,-68.77 -9.25,-67.78 -17.61,-65.76 -22.4,-63.41 -22.47,-61.53 -18.63,-60.62 -12.96,-60.64 -7.17,-61.14 -0.19,-61.43 12.02,-60.77 28.31,-60.52 14.07,-75.54" fill="none" stroke="rgb(134, 73, 19)" stroke-width="2" stroke-linejoin="round" filter="url(#fuzzy)" /><polyline points="14.5,-75.4 4.64,-68.08 -8.19,-64.33 -5.26,-62.72 3.44,-61.1 9.07,-59.49 9.29,-58.08 5.22,-56.78 -1.63,-55.69 -10.07,-55.17 -18.44,-55.58 -24.26,-56.98 -25.01,-59.13 -19.4,-61.5 -8.11,-63.31 6.59,-63.69 21.81,-62.27 34.29,-59.94 39.69,-58.86 32.21,-60.54 4.96,-62.07 -57.98,-55.14" fill="none" stroke="rgb(134, 73, 19)" stroke-width="2" stroke-linejoin="round" filter="url(#fuzzy)" /><polyline points="-58.83,-54.78 -6.35,-66.74 16.37,-70.11 24.24,-70.95 23.76,-71.4 18.88,-71.88 12.47,-72.2 6.48,-72.12 2.07,-71.49 -0.32,-70.23 -1.2,-68.39 -2.37,-66.11 -6.51,-63.67 -14.93,-61.5 -24.71,-60.11 -28.28,-60.08 -19.21,-61.69 -5.87,-64.44 -35.72,-69.1" fill="none" stroke="rgb(134, 73, 19)" stroke-width="2" stroke-linejoin="round" filter="url(#fuzzy)" /><polyline points="-7.24,-76.25 -6.92,-67.31 2.51,-64.05 7.92,-63.64 13.24,-62.29 18.21,-59.81 21.65,-57.72 23.63,-57.12 24.83,-57.9 25.41,-59.12 24.8,-59.81 22.01,-59.61 16.48,-59 8.86,-58.91 1.38,-60.1 -2.91,-62.67 -1.73,-65.85 4.96,-68.35 14.57,-69.04 23.08,-67.37 26.54,-63.75 22.54,-59.81 16.61,-58.32 54.3,-58.4" fill="none" stroke="rgb(134, 73, 19)" stroke-width="2" stroke-linejoin="round" filter="url(#fuzzy)" /><polyline points="-24.36,-73.26 25.75,-55.55 27.49,-58.09 22.78,-61.78 20.28,-64.38 19.66,-66.11 20.64,-66.52 23.2,-65.03 26.01,-61.72 26.26,-57.45 21.43,-53.51 11.67,-51.09 0.81,-50.82 -5.62,-52.64 -4.52,-56.02 1.55,-60.44 6.37,-65.54 7.36,-70.47 9.33,-73.72 4.41,-76.48" fill="none" stroke="rgb(134, 73, 19)" stroke-width="2" stroke-linejoin="round" filter="url(#fuzzy)" /><polyline points="-13.91,-75.43 -30.7,-63.56 -18.66,-60.96 -6.96,-59.89 0.38,-60.67 5.36,-62.73 10.1,-64.48 15.96,-64.85 23.07,-63.94 30.13,-62.65 35.15,-61.87 36.6,-61.93 34.13,-62.61 28.77,-63.34 22.71,-63.57 18.63,-63.03 18.38,-61.87 21.23,-60.62 22.84,-59.84 17.01,-59.57 2.75,-58.86 -2.2,-56.3 57.13,-55.86" fill="none" stroke="rgb(134, 73, 19)" stroke-width="2" stroke-linejoin="round" filter="url(#fuzzy)" /><polyline points="42.14,-66.14 37.18,-64.4 40.75,-60.29 43.55,-58.43 45.14,-57.96 44.76,-58.75 42.25,-60.44 37.69,-62.48 31.02,-64.49 22.86,-66.22 15.19,-67.22 10.83,-66.84 11.79,-64.84 17.85,-62.1 26.17,-60.83 31.93,-63.29 30.96,-68.79 21.32,-73.89" fill="none" stroke="rgb(134, 73, 19)" stroke-width="2" stroke-linejoin="round" filter="url(#fuzzy)" /><polyline points="21.32,-73.89 6.68,-58.78 25.88,-52.83 37.8,-54.28 39.29,-57.63 34.85,-60.25 29.54,-61.61 26.31,-62.09 25.63,-62.16 26.57,-61.78 28.12,-60.49 29.71,-57.91 31.27,-54.25 33.3,-50.24 36.71,-46.86 41.49,-45.18 44.86,-46.32 41.73,-50.79 31.16,-56.16 28.41,-53.36 79.27,-24.61" fill="none" stroke="rgb(134, 73, 19)" stroke-width="2" stroke-linejoin="round" filter="url(#fuzzy)" /><polyline points="71.33,-40.53 40.03,-56.23 23.62,-59.32 11.25,-61.66 6.86,-63.76 8.43,-65.1 11.4,-65.41 12.42,-64.9 10.15,-64.25 4.94,-64.23 -1.81,-65.21 -8.39,-66.95 -13.73,-68.78 -17.63,-70.15 -20.12,-70.94 -20.46,-71.44 -17.03,-71.94 -8.23,-72.05 7.09,-69.91 31.81,-61.33 72.77,-37.7" fill="none" stroke="rgb(134, 73, 19)" stroke-width="2" stroke-linejoin="round" filter="url(#fuzzy)" /><polyline points="70.46,-41.31 23.55,-58.45 20.53,-63.43 25.55,-64.07 28.23,-63.9 25.48,-64.52 19.36,-65.56 13.62,-65.93 9.71,-65.23 5.38,-63.96 -2.77,-62.88 -15.4,-62.27 -28.73,-61.97 -37.26,-62.01 -38.5,-62.88 -33.24,-65.47 -8.98,-76.17" fill="none" stroke="rgb(134, 73, 19)" stroke-width="2" stroke-linejoin="round" filter="url(#fuzzy)" /><polyline points="-28.74,-71.84 1.82,-60.31 -6.71,-60.18 -12.27,-62.87 -9.59,-65.31 -1.72,-66.82 6.98,-67.56 13.48,-67.92 16.75,-68.19 17.07,-68.38 15.06,-68.33 11.28,-68 6.46,-67.52 2.01,-67.19 -0.14,-67.23 1.36,-67.71 5.88,-68.51 10.39,-69.34 11.15,-69.62 7.67,-68.44 8.81,-65.09 51.72,-60.09" fill="none" stroke="rgb(134, 73, 19)" stroke-width="2" stroke-linejoin="round" filter="url(#fuzzy)" /><polyline points="65.2,-48.07 15,-65.66 -1.41,-72.32 -5.98,-74.44 -6.44,-74.45 -5.59,-73.02 -3.56,-70.37 0.51,-66.99 6.56,-63.64 12.82,-61.11 16.89,-59.83 17.77,-59.8 17,-60.64 17.43,-61.82 20.47,-62.8 23.93,-63.11 22.61,-62.34 11.25,-61 -8.23,-62.81 1.96,-76.52" fill="none" stroke="rgb(134, 73, 19)" stroke-width="2" stroke-linejoin="round" filter="url(#fuzzy)" /><polyline points="66.57,-46.94 29.98,-55.73 9.81,-57.85 1.71,-60.9 -3.67,-64.07 -6.45,-66.27 -5.25,-67.4 -1.3,-67.86 2.76,-68.08 5.36,-68.31 6.93,-68.58 8.93,-68.77 12.28,-68.72 16.66,-68.43 20.85,-68.08 23.7,-67.85 24.96,-67.68 25.35,-67.16 25.82,-65.59 25.78,-62.84 21.91,-60.71 13.27,-63.63 31.16,-70.98" fill="none" stroke="rgb(134, 73, 19)" stroke-width="2" stroke-linejoin="round" filter="url(#fuzzy)" /><polyline points="46.29,-64.09 42.26,-63.96 28.57,-65.94 16.65,-68.95 11.29,-71.18 10.58,-71.7 11.55,-70.29 12.43,-67.37 12.31,-64 10.77,-61.47 7.63,-60.61 3.18,-61.36 -1.44,-62.82 -3.97,-63.78 -1.47,-63.11 7.95,-60.07 22.94,-54.67 37.55,-48.19 42.83,-43.35 33.14,-42.51 21.04,-43.41 73.68,-36.58" fill="none" stroke="rgb(134, 73, 19)" stroke-width="2" stroke-linejoin="round" filter="url(#fuzzy)" /><polyline points="66.39,-46.87 55.88,-51.4 37.85,-55.28 18.33,-56.8 3.22,-58.42 -4.35,-60.74 -5.61,-63.16 -3.28,-64.92 0.85,-65.43 6.23,-64.53 12.57,-62.5 18.8,-59.9 22.8,-57.33 21.9,-55.13 14.05,-53.44 -0.84,-52.47 -19.68,-52.75 -35.5,-55.04 -38.86,-59.62 -21.55,-65.86 25.65,-72.95" fill="none" stroke="rgb(134, 73, 19)" stroke-width="2" stroke-linejoin="round" filter="url(#fuzzy)" /><polyline points="-51.09,-60.68 -4.51,-65.68 19.77,-64.15 20.85,-63.48 10.26,-63.89 -1.06,-64.7 -7.56,-65.26 -8.34,-64.94 -4.87,-63.32 0.65,-60.54 6.04,-57.41 9.72,-55.07 11.29,-54.26 11.63,-54.88 12.22,-56.12 13.89,-56.97 16.28,-56.92 18.28,-56.2 19.21,-55.5 19.1,-55.54 17.27,-56.68 10.5,-58.83 -6.28,-61.27 -32.89,-62.46 -47.3,-63.21" fill="none" stroke="rgb(134, 73, 19)" stroke-width="2" stroke-linejoin="round" filter="url(#fuzzy)" /><polyline points="76.06,-32.22 56.54,-47.25 34.86,-53.01 14.67,-58.59 3.59,-62.55 0,-64.07 -1.18,-63.93 -2.93,-63.4 -4.56,-63.18 -3.44,-63.21 1.76,-63.35 9.14,-64.24 14.94,-66.85 17.42,-70.82 17.24,-73.95 11.03,-75.7" fill="none" stroke="rgb(134, 73, 19)" stroke-width="2" stroke-linejoin="round" filter="url(#fuzzy)" /><polyline points="-39.19,-67.53 4.2,-69.44 10.73,-70.71 5.08,-70.35 0.54,-68.14 2.39,-64.88 9.83,-61.66 18.75,-59.34 24.88,-58.32 26.04,-58.6 22.9,-59.85 18.11,-61.44 14.47,-62.57 12.8,-62.74 11.27,-62.05 6.78,-61.18 -2.15,-60.78 -13.02,-60.73 -19.01,-60.2 -10.28,-58.74 22.46,-55.98 69.12,-43.53" fill="none" stroke="rgb(134, 73, 19)" stroke-width="2" stroke-linejoin="round" filter="url(#fuzzy)" /><polyline points="55.46,-57.12 66.02,-44.88 65.54,-41.36 53.04,-44.15 33.37,-50.35 14.45,-57.55 1.48,-63.82 -4.94,-67.84 -6.56,-68.94 -4.64,-67.12 0.89,-63.07 9.94,-58.15 20.41,-54.08 28.33,-52.27 30.54,-53.14 27.79,-55.73 24.58,-58.24 24.25,-59.3 21.22,-60.41 -17.88,-74.88" fill="none" stroke="rgb(134, 73, 19)" stroke-width="2" stroke-linejoin="round" filter="url(#fuzzy)" /><polyline points="77.89,-28.5 59.11,-44.24 41.21,-48.16 32.65,-49.15 31.47,-49.1 30.21,-49.06 25.07,-50.11 16.65,-52.78 7.33,-56.83 -0.57,-61.45 -5.53,-65.78 -7.11,-69.09 -5.98,-70.91 -3.7,-71.01 -2.23,-69.47 -3.3,-66.87 -7.62,-64.36 -13.7,-63.26 -16.49,-64.01 -7.68,-64.62 21.26,-59.6 72.77,-37.7" fill="none" stroke="rgb(134, 73, 19)" stroke-width="2" stroke-linejoin="round" filter="url(#fuzzy)" /><polyline points="74,13.17 74.69,12.4 75.74,11.33 76.71,10.18 77.48,9.08 77.98,8.03 78.23,7.03 78.28,6.03 78.29,5.02 78.4,3.97 78.65,2.87 79,1.74 79.32,0.57 79.5,-0.61 79.58,-1.75 79.7,-2.82 80.03,-3.84 80.64,-4.84 81.42,-5.91 82.11,-7.13 82.48,-8.5 82.53,-9.92 82.48,-11.12 82.73,-11.62 82.73,-11.62 82.68,-11.18 82.62,-10.01 82.39,-8.59 82.05,-7.21 81.76,-6 81.63,-4.99 81.62,-4.1 81.63,-3.2 81.57,-2.17 81.41,-0.99 81.16,0.27 80.85,1.46 80.44,2.66 79.83,4.27 78.81,6.59" fill="none" stroke="rgb(134, 73, 19)" stroke-width="2" stroke-linejoin="round" filter="url(#fuzzy)" /><polyline points="1.96,-76.52 -0.35,-75.43 -2.23,-74.43 -3.87,-73.87 -5.34,-73.43 -6.62,-72.9 -7.7,-72.16 -8.64,-71.19 -9.49,-70.13 -10.3,-69.14 -11.14,-68.39 -12,-67.88 -12.91,-67.48 -13.88,-66.98 -14.89,-66.23 -15.91,-65.21 -16.93,-64.04 -17.76,-62.62 -17.54,-60.52" fill="none" stroke="rgb(134, 73, 19)" stroke-width="2" stroke-linejoin="round" filter="url(#fuzzy)" /><polyline points="-0.69,-76.37 -2.59,-75.49 -4.12,-74.5 -5.58,-74 -6.85,-73.5 -7.91,-72.67 -8.83,-71.6 -9.7,-70.59 -10.59,-69.86 -11.51,-69.43 -12.46,-69.16 -13.44,-68.84 -14.42,-68.3 -15.39,-67.47 -16.3,-66.38 -17.15,-65.11 -17.94,-63.85 -18.72,-62.81 -19.59,-62.06 -20.55,-61.43 -21.57,-60.56 -22.53,-59.36 -22.95,-58.65" fill="none" stroke="rgb(134, 73, 19)" stroke-width="2" stroke-linejoin="round" filter="url(#fuzzy)" /><polyline points="-8.98,-76.17 -9.71,-75.93 -10.62,-75.57 -11.56,-74.92 -12.47,-74.16 -13.4,-73.54 -14.45,-73.17 -15.63,-72.97 -16.87,-72.79 -18.1,-72.49 -19.22,-71.98 -20.22,-71.25 -21.1,-70.31 -21.93,-69.2 -22.8,-67.94 -23.73,-66.66 -24.64,-65.55 -25.29,-64.84 -25.43,-64.48" fill="none" stroke="rgb(134, 73, 19)" stroke-width="2" stroke-linejoin="round" filter="url(#fuzzy)" /><polyline points="4.71,-81.75 3.92,-81.16 3.2,-80.65 2.23,-80.26 0.96,-79.93 -0.55,-79.67 -2.18,-79.49 -3.83,-79.37 -5.41,-79.26 -6.86,-79.1 -8.17,-78.85 -9.35,-78.5 -10.43,-78.07 -11.45,-77.58 -12.44,-77.08 -13.43,-76.61 -14.47,-76.2 -15.61,-75.86 -16.87,-75.51 -18.25,-75.07 -19.84,-74.52 -22.26,-73.93" fill="none" stroke="rgb(134, 73, 19)" stroke-width="2" stroke-linejoin="round" filter="url(#fuzzy)" /><polyline points="63.74,-26.69 65.35,-26.1 67.26,-25.6 68.78,-25.09 70.07,-24.52 71.3,-23.85 72.43,-23.06 73.38,-22.18 74.22,-21.26 75.04,-20.38 75.89,-19.52 76.69,-18.6 77.43,-17.59 78.14,-16.55 78.85,-15.61 79.64,-14.9 82.02,-14.88" fill="none" stroke="rgb(134, 73, 19)" stroke-width="2" stroke-linejoin="round" filter="url(#fuzzy)" /><polyline points="-31.06,-71.04 -29.42,-71.9 -28.79,-73.42 -28.27,-75.48 -27.47,-77.3 -26.41,-78.53 -25.24,-79.34 -24.11,-80.13 -23.07,-81.25 -22.07,-82.8 -21.07,-84.66 -19.99,-86.6 -18.86,-88.41 -17.73,-89.98 -16.66,-91.37 -15.65,-92.77 -14.62,-94.42 -13.48,-96.43 -12.67,-99.29 -31.06,-71.04 -31.86,-70.52 -32.99,-69.53 -34.07,-68.68 -35.1,-68.1 -36.1,-67.68 -37.11,-67.28 -38.12,-66.81 -39.13,-66.25 -40.13,-65.58 -41.11,-64.84 -42.06,-64.04 -42.98,-63.21 -43.88,-62.35 -44.75,-61.47 -45.56,-60.56 -46.35,-59.65 -47.14,-58.78 -47.97,-57.97 -48.8,-57.22 -49.68,-56.41 -51.16,-55.43" fill="none" stroke="rgb(134, 73, 19)" stroke-width="2" stroke-linejoin="round" filter="url(#fuzzy)" /><polyline points="-43.78,-65.43 -41.9,-64.29 -40.86,-65.19 -39.9,-66.23 -38.92,-66.98 -37.89,-67.42 -36.8,-67.64 -35.61,-67.7 -34.33,-67.67 -32.95,-67.6 -31.5,-67.51 -30.04,-67.41 -28.64,-67.33 -27.36,-67.34 -26.21,-67.51 -25.08,-67.82 -23.8,-68.08 -22.24,-68.03 -20.11,-67.97" fill="none" stroke="rgb(134, 73, 19)" stroke-width="2" stroke-linejoin="round" filter="url(#fuzzy)" /><polyline points="-43.78,-65.43 -45.02,-65.55 -47.02,-65.66 -49.11,-66.09 -51.23,-66.79 -53.38,-67.51 -55.4,-67.98 -57.23,-68.13 -59.02,-68.16 -61.01,-68.37 -63.27,-68.85 -65.62,-69.39 -67.82,-69.56 -69.94,-69.26 -72.51,-69.03 -75.91,-69.72" fill="none" stroke="rgb(134, 73, 19)" stroke-width="2" stroke-linejoin="round" filter="url(#fuzzy)" /><polyline points="-30.79,-102.27 -29.97,-100.32 -30.63,-98.93 -31.83,-97.4 -33.05,-95.49 -34.16,-93.43 -35.19,-91.51 -36.26,-89.9 -37.47,-88.62 -38.82,-87.6 -40.22,-86.67 -41.47,-85.58 -42.4,-84.09 -42.89,-82.04 -42.93,-79.4 -42.63,-76.29 -42.21,-72.97 -42.02,-69.93 -42.37,-67.67 -43.16,-66.25 -43.78,-65.43" fill="none" stroke="rgb(134, 73, 19)" stroke-width="2" stroke-linejoin="round" filter="url(#fuzzy)" /><polyline points="81.95,-16.38 79.39,-14.93 79.61,-14.18 80,-13.34 80.18,-12.32 80.24,-11.18 80.22,-9.94 80.03,-8.65 79.59,-7.35 78.95,-6.13 78.21,-5.06 77.53,-4.15 76.96,-3.33 76.37,-2.42 75.51,-1.15 74.2,0.56 72.68,1.95" fill="none" stroke="rgb(134, 73, 19)" stroke-width="2" stroke-linejoin="round" filter="url(#fuzzy)" /><polyline points="-51.53,-60.7 -49.86,-62.22 -49.26,-63.77 -48.69,-64.99 -47.75,-65.82 -46.59,-66.46 -45.41,-67.1 -44.32,-67.86 -43.36,-68.82 -42.51,-69.97 -41.76,-71.21 -41.03,-72.43 -40.26,-73.53 -39.38,-74.44 -38.37,-75.24 -37.24,-76.03 -36.06,-76.94 -34.88,-78.03 -33.8,-79.29 -32.86,-80.57 -31.98,-81.64 -30.77,-82.57 -28.06,-84.38 -51.53,-60.7 -51.61,-60.42 -52.38,-59.82 -53.39,-59.17 -54.47,-58.56 -55.57,-57.95 -56.67,-57.28 -57.71,-56.55 -58.69,-55.82 -59.6,-55.11 -60.49,-54.43 -61.39,-53.77 -62.33,-53.11 -63.32,-52.42 -64.36,-51.63 -65.43,-50.71 -66.34,-49.89 -66.7,-49.96" fill="none" stroke="rgb(134, 73, 19)" stroke-width="2" stroke-linejoin="round" filter="url(#fuzzy)" /><polyline points="-51.88,-59.89 -51.67,-60.94 -51.34,-62.15 -50.9,-63.58 -50.51,-65.17 -50.07,-66.72 -49.4,-68.03 -48.47,-69.04 -47.36,-69.82 -46.17,-70.48 -44.98,-71.15 -43.87,-71.94 -42.88,-72.9 -42.05,-74.05 -41.34,-75.38 -40.67,-76.8 -39.92,-78.14 -38.95,-79.25 -37.67,-80.04 -36.18,-80.62 -34.72,-81.28 -33.64,-82.27 -33.3,-83.61 -34.1,-85.24" fill="none" stroke="rgb(134, 73, 19)" stroke-width="2" stroke-linejoin="round" filter="url(#fuzzy)" /><polyline points="-26.86,-61.01 -28.99,-60.98 -30.36,-60.82 -31.59,-60.99 -32.85,-61.35 -34.15,-61.7 -35.43,-61.91 -36.66,-61.89 -37.8,-61.61 -38.86,-61.13 -39.91,-60.59 -41.08,-60.18 -42.46,-60.05 -44.05,-60.2 -45.73,-60.49 -47.38,-60.74 -48.89,-60.77 -50.21,-60.53 -51.36,-60.03 -52.44,-59.35 -53.61,-58.56 -54.82,-57.97 -59.11,-54.29 -59.34,-54.17 -60.05,-53.48 -60.83,-52.64 -61.54,-51.74 -62.2,-50.75 -62.81,-49.67 -63.39,-48.53 -63.94,-47.39 -64.5,-46.27 -65.07,-45.14 -65.63,-43.98 -66.14,-42.81 -66.58,-41.68 -66.95,-40.69 -67.14,-39.8 -66.83,-38.85 -44.99,-61.48 -45.99,-61 -46.8,-60.7 -47.78,-60.24 -48.83,-59.67 -49.89,-59.07 -50.94,-58.48 -51.98,-57.88 -53.01,-57.27 -54.05,-56.62 -55.12,-55.96 -56.19,-55.3 -57.24,-54.67 -58.24,-54.05 -59.17,-53.43 -60.05,-52.77 -60.88,-52.06 -61.72,-51.3 -62.68,-50.44 -63.94,-49.31 -65.27,-47.99" fill="none" stroke="rgb(134, 73, 19)" stroke-width="2" stroke-linejoin="round" filter="url(#fuzzy)" /><polyline points="-65.27,-47.99 -63.97,-49.3 -62.69,-50.41 -61.69,-51.22 -60.81,-51.92 -59.95,-52.59 -59.08,-53.23 -58.19,-53.84 -57.24,-54.46 -56.19,-55.08 -55.02,-55.64 -53.74,-56.05 -52.37,-56.31 -51,-56.51 -49.74,-56.81 -48.9,-57.25 -48.87,-57.58" fill="none" stroke="rgb(134, 73, 19)" stroke-width="2" stroke-linejoin="round" filter="url(#fuzzy)" /><polyline points="-52.72,-70.45 -53.98,-68.58 -54.82,-66.86 -55.57,-65.57 -56.36,-64.49 -57.12,-63.43 -57.82,-62.29 -58.47,-61.08 -59.11,-59.85 -59.76,-58.66 -60.42,-57.54 -61.08,-56.5 -61.71,-55.5 -62.34,-54.51 -62.98,-53.51 -63.67,-52.5 -64.44,-51.49 -65.26,-50.49 -66.12,-49.52 -67.04,-48.62 -68.02,-47.75 -68.81,-46.63 -68.51,-44.46 -69.74,-42.49 -70.87,-42.05 -71.71,-41.35 -72.7,-40.62 -73.89,-40 -75.27,-39.47 -76.79,-38.96 -78.37,-38.36 -79.95,-37.65 -81.51,-36.88 -83.11,-36.13 -84.82,-35.43 -86.61,-34.78 -88.41,-34.12 -90.18,-33.38 -91.96,-32.55 -93.89,-31.66 -96.08,-30.77 -98.51,-29.95 -101.01,-29.19 -103.37,-28.42 -105.43,-27.48 -107.32,-26.28 -109.6,-25.01 -112.41,-24.32 -71.47,-40.08 -72.27,-41.75 -73.68,-43.65 -74.08,-45.03 -73.49,-46 -72.57,-46.94 -71.86,-48.14 -71.6,-49.68 -71.72,-51.5 -71.96,-53.4 -72.03,-55.2 -71.81,-56.83 -71.39,-58.31 -71.01,-59.79 -70.87,-61.45 -71.08,-63.35 -71.6,-65.38 -72.19,-67.19 -72.81,-69.25" fill="none" stroke="rgb(134, 73, 19)" stroke-width="2" stroke-linejoin="round" filter="url(#fuzzy)" /><polyline points="-72.77,-38.51 -74.69,-36.82 -75.36,-35.3 -76,-34.05 -76.92,-33.1 -78.09,-32.35 -79.3,-31.65 -80.35,-30.86 -81.2,-29.94 -81.93,-28.88 -82.68,-27.76 -83.56,-26.65 -84.6,-25.61 -85.71,-24.64 -86.76,-23.68 -87.73,-22.67 -88.69,-21.59 -89.78,-20.51 -90.95,-19.48 -91.87,-18.43 -92.47,-17.06" fill="none" stroke="rgb(134, 73, 19)" stroke-width="2" stroke-linejoin="round" filter="url(#fuzzy)" /><polyline points="-55.66,-42.43 -57.38,-42.75 -58.37,-42.54 -59.61,-42.18 -61.2,-41.86 -62.95,-41.58 -64.64,-41.29 -66.13,-40.95 -67.38,-40.53 -68.4,-39.99 -69.26,-39.32 -69.98,-38.57 -70.56,-37.82 -71.19,-37.23 -72.42,-36.83 -74.39,-35.66 -84.17,-13.73 -83.78,-14.81 -83.49,-15.74 -83.24,-16.7 -82.96,-17.73 -82.64,-18.83 -82.29,-19.95 -81.9,-21.06 -81.49,-22.14 -81.05,-23.21 -80.57,-24.29 -80.05,-25.42 -79.5,-26.58 -78.92,-27.71 -78.32,-28.78 -77.71,-29.77 -77.12,-30.71 -76.57,-31.61 -76.04,-32.51 -75.41,-33.55 -74.5,-34.96" fill="none" stroke="rgb(134, 73, 19)" stroke-width="2" stroke-linejoin="round" filter="url(#fuzzy)" /><polyline points="-76.58,-31.18 -78.03,-32.13 -78.33,-31.15 -78.66,-30.04 -79.45,-29.04 -80.61,-28.1 -81.85,-27.13 -82.96,-26.11 -83.87,-25.05 -84.63,-24 -85.33,-22.93 -86.05,-21.86 -86.87,-20.8 -87.87,-19.77 -89.12,-18.79 -90.64,-17.89 -92.29,-17.03 -93.87,-16.13 -95.14,-15.11 -96.03,-13.93 -96.68,-12.57 -97.51,-11.07 -98.96,-9.4 -101.23,-6.98" fill="none" stroke="rgb(134, 73, 19)" stroke-width="2" stroke-linejoin="round" filter="url(#fuzzy)" /><polyline points="-77.27,-58.91 -77.18,-57.5 -76.79,-55.94 -76.45,-54.11 -76.17,-52.13 -76,-50.24 -76,-48.57 -76.19,-47.15 -76.57,-45.95 -77.08,-44.9 -77.54,-43.86 -77.77,-42.73 -77.66,-41.42 -77.25,-39.95 -76.72,-38.36 -76.28,-36.71 -76.07,-35.12 -76.08,-33.68 -76.23,-32.46 -76.55,-31.32 -77.54,-29.04 -60.33,-53.3 -61.13,-52.52 -61.9,-51.73 -62.7,-50.85 -63.56,-49.9 -64.44,-48.93 -65.31,-47.96 -66.17,-46.98 -67,-45.98 -67.81,-44.99 -68.58,-44.01 -69.3,-43.06 -69.99,-42.15 -70.63,-41.26 -71.25,-40.39 -71.86,-39.52 -72.44,-38.65 -73.02,-37.74 -73.61,-36.77 -74.22,-35.7 -74.85,-34.56 -75.45,-33.41 -75.98,-32.37 -76.48,-31.31 -77.54,-29.04" fill="none" stroke="rgb(134, 73, 19)" stroke-width="2" stroke-linejoin="round" filter="url(#fuzzy)" /><polyline points="56.68,-40.01 57.56,-39.75 59.02,-39.12 60.55,-38.57 62.08,-38.17 63.62,-37.88 65.17,-37.6 66.66,-37.28 68.04,-36.9 69.26,-36.46 70.31,-35.94 71.21,-35.33 72,-34.63 72.73,-33.8 73.4,-32.85 74.06,-31.8 74.74,-30.72 75.51,-29.69 76.42,-28.77 77.37,-28 78.13,-27.27 78.52,-26.4 79.22,-14.38 79.44,-14.86 79.54,-15.75 79.56,-16.86 79.47,-18.06 79.31,-19.25 79.12,-20.36 78.89,-21.44 78.59,-22.53 78.23,-23.67 77.85,-24.84 77.55,-26.01 77.38,-27.14 77.3,-28.26 77.16,-29.42 76.81,-30.72 76.37,-31.98 84.59,-63.37 86.01,-61.79 86.37,-59.86 86.2,-57.5 85.7,-55.07 84.82,-52.66 83.49,-50.22 81.88,-47.74 80.28,-45.36 78.95,-43.22 78.01,-41.39 77.45,-39.88 77.23,-38.66 77.4,-37.64 78.03,-36.72 79.08,-35.74 79.67,-34.42 76.37,-31.98" fill="none" stroke="rgb(134, 73, 19)" stroke-width="2" stroke-linejoin="round" filter="url(#fuzzy)" /><polyline points="107.2,-15.17 106.35,-15.87 105.13,-17.07 103.12,-17.99 100.68,-18.71 98.54,-19.52 97.07,-20.55 96.1,-21.75 95.11,-22.92 93.62,-23.89 91.48,-24.65 88.93,-25.29 86.44,-25.97 84.47,-26.81 83.2,-27.81 82.38,-28.86 81.48,-29.78 80.02,-30.5 78.14,-31.1 76.67,-31.75 76.06,-32.22 73.68,-36.58 73.84,-35.55 74.27,-34.19 74.85,-32.9 75.34,-31.68 75.63,-30.47 75.78,-29.26 75.84,-28.07 75.87,-26.9 75.91,-25.72 76.03,-24.53 76.22,-23.33 76.42,-22.16 76.5,-21.05 76.38,-19.97 76.1,-18.81 75.9,-17.4 75.7,-15.83 69.12,-43.53 68.84,-43.42 67.45,-44.14 65.81,-44.83 64.22,-45.32 62.71,-45.65 61.26,-45.92 59.91,-46.24 58.71,-46.72 57.74,-47.44 56.96,-48.36 56.26,-49.4 55.49,-50.4 54.55,-51.19 53.4,-51.7 52.12,-51.92 50.78,-51.91 49.39,-51.7 47.92,-51.34 46.36,-50.9 44.89,-50.53 43.88,-50.41 43.03,-49.99 69.12,-43.53 69.1,-43.56 68.38,-44.74 67.76,-46.17 67.39,-47.57 67.2,-48.93 67.08,-50.27 66.88,-51.56 66.47,-52.75 65.8,-53.8 64.92,-54.79 63.96,-55.82 63.01,-56.96 62.13,-58.21 61.35,-59.48 60.73,-60.72 60.33,-61.83 60.49,-62.29" fill="none" stroke="rgb(134, 73, 19)" stroke-width="2" stroke-linejoin="round" filter="url(#fuzzy)" /><polyline points="77.89,-28.5 77.01,-30.33 76.41,-31.61 75.83,-32.77 75.22,-33.89 74.63,-34.93 74.08,-35.85 73.56,-36.69 73.05,-37.5 72.53,-38.35 71.97,-39.23 71.39,-40.13 70.76,-41.04 70.11,-41.96 69.4,-42.91 68.63,-43.94 67.77,-45.08 66.87,-46.26 65.97,-47.37 64.88,-48.6 65.2,-48.07 64.2,-47.06 64.82,-46.35 65.29,-45.2 65.46,-43.71 65.68,-42.26 66.12,-41.05 66.71,-40.05 67.24,-39.11 67.54,-38.08 67.54,-36.93 67.27,-35.69 66.85,-34.44 66.41,-33.23 66.06,-32.09 65.88,-30.96 65.76,-29.75 65.52,-28.42 65.1,-27.16 64.71,-26.14" fill="none" stroke="rgb(134, 73, 19)" stroke-width="2" stroke-linejoin="round" filter="url(#fuzzy)" /><polyline points="34.74,-57.26 36.67,-57.92 38.43,-58.27 40.11,-58.64 41.63,-59.08 43.05,-59.46 44.45,-59.63 45.82,-59.51 47.1,-59.1 48.21,-58.48 49.16,-57.78 50.04,-57.14 50.96,-56.68 51.99,-56.41 53.06,-56.27 54.12,-56.14 55.15,-55.93 56.21,-55.61 57.35,-55.13 58.62,-54.42 60.07,-53.3 51.72,-60.09 50.2,-61.09 48.48,-61.94 47.07,-62.57 46,-63.05 45.07,-63.46 44.11,-63.89 43.05,-64.36 41.9,-64.86 40.71,-65.37 39.51,-65.84 38.31,-66.28 37.12,-66.67 35.92,-67.01 34.73,-67.28 33.57,-67.49 32.44,-67.62 31.35,-67.73 30.24,-67.83 29.1,-67.91 27.96,-67.9 27.24,-67.94 45.39,-64.3 44.4,-66.75 44.19,-69.36 44.23,-72.05 43.97,-74.19 43.3,-75.69 42.37,-76.81 41.36,-77.83 40.42,-78.98 39.71,-80.52 39.31,-82.67 39.16,-85.38 39.04,-88.33 38.65,-91 37.82,-93.09 36.47,-94.87 34.36,-97.74 42.74,-65.65 42.23,-66.72 41.44,-67.72 40.46,-68.5 39.45,-69.3 38.48,-70.22 37.56,-71.23 36.71,-72.3 35.9,-73.41 35.14,-74.61 34.4,-75.96 33.65,-77.45 32.83,-79 31.88,-80.48 30.76,-81.8 29.53,-82.98 28.26,-84.1 27.02,-85.28 25.82,-86.53 24.59,-87.83 23.28,-89.14 21.88,-90.44 20.37,-91.87 18.13,-94.25 33.73,-69.92 32.44,-71.78 31.28,-72.56 30.05,-73.1 28.71,-73.54 27.31,-73.93 25.92,-74.35 24.61,-74.92 23.4,-75.73 22.26,-76.82 21.16,-78.13 20.06,-79.53 18.94,-80.84 17.81,-81.95 16.65,-82.85 15.49,-83.58 14.32,-84.24 13.13,-84.92 11.9,-85.68 10.6,-86.5 9.21,-87.33 7.68,-88.05 6.06,-88.64 4.72,-89.26 4.59,-90.06" fill="none" stroke="rgb(134, 73, 19)" stroke-width="2" stroke-linejoin="round" filter="url(#fuzzy)" /><polyline points="28.78,-71.78 29.41,-71.44 30.33,-70.81 31.24,-70.1 32.13,-69.44 33.06,-68.89 34.06,-68.45 35.14,-68.04 36.24,-67.59 37.34,-67.06 38.43,-66.46 39.49,-65.8 40.54,-65.08 41.55,-64.34 42.51,-63.58 43.38,-62.84 44.18,-62.15 44.97,-61.48 45.87,-60.76 46.96,-59.88 48.17,-58.86 49.22,-57.86 49.76,-57.22 38.82,-53.27 37.5,-53.64 36.68,-54.98 36.28,-56.75 36.04,-58.6 35.7,-60.23 35.12,-61.42 34.27,-62.15 33.28,-62.65 32.35,-63.24 31.59,-64.12 30.98,-65.26 30.4,-66.46 29.7,-67.5 28.81,-68.3 27.74,-68.94 26.55,-69.59 25.28,-70.28 24.02,-71.09 23.11,-72.32 23.42,-73.43 17.79,-74.82 15.73,-75.67 14.68,-76.6 13.81,-77.66 12.91,-79.08 11.97,-80.96 10.99,-83.23 9.92,-85.67 8.72,-88.04 7.4,-90.14 6.04,-91.92 4.76,-93.45 3.63,-95.11 2.56,-97.69 1.3,-101.71 -0.95,-104.56" fill="none" stroke="rgb(134, 73, 19)" stroke-width="2" stroke-linejoin="round" filter="url(#fuzzy)" /><polyline points="14.5,-75.4 14.24,-76.05 13.49,-76.26 12.48,-76.79 11.42,-77.78 10.32,-79.14 9.17,-80.75 7.95,-82.5 6.69,-84.23 5.44,-85.72 4.2,-86.77 2.93,-87.35 1.57,-87.62 0.04,-87.9 -1.7,-88.5 -3.63,-89.56 -5.68,-91.07 -7.74,-92.84 -9.6,-94.39 -11.22,-95.1" fill="none" stroke="rgb(134, 73, 19)" stroke-width="2" stroke-linejoin="round" filter="url(#fuzzy)" /><polyline points="44.33,-75.01 42.73,-75.23 41.16,-75.34 39.57,-75.27 38.06,-75.19 36.71,-75.22 35.48,-75.37 34.26,-75.58 32.98,-75.77 31.62,-75.92 30.17,-76.04 28.66,-76.13 27.14,-76.2 25.64,-76.25 24.18,-76.26 22.75,-76.2 21.29,-76.08 19.81,-75.99 18.33,-76.05 16.89,-76.39 15.46,-76.8 14.07,-75.54 14.54,-75.22 14.59,-75.4 15.49,-75.54 16.79,-75.69 18.2,-75.71 19.59,-75.56 20.95,-75.31 22.28,-75.04 23.59,-74.77 24.92,-74.49 26.28,-74.18 27.66,-73.85 29.04,-73.53 30.4,-73.25 31.7,-73.02 32.93,-72.84 34.09,-72.7 35.25,-72.61 36.51,-72.57 37.96,-72.57 39.01,-72.72" fill="none" stroke="rgb(134, 73, 19)" stroke-width="2" stroke-linejoin="round" filter="url(#fuzzy)" /><polyline points="-12.4,-77.87 -11.04,-77.75 -10,-77.67 -8.97,-77.64 -7.79,-77.59 -6.42,-77.51 -4.89,-77.4 -3.3,-77.3 -1.71,-77.21 -0.21,-77.11 1.15,-77.01 2.38,-76.9 3.53,-76.8 4.7,-76.68 5.94,-76.54 7.25,-76.37 8.57,-76.19 9.8,-76 10.79,-75.8 11.03,-75.7 35.51,-87.95 34,-87.38 32.2,-87.7 30.33,-87.63 28.52,-87.28 26.78,-86.76 25.02,-86.05 23.21,-85.15 21.4,-84.27 19.69,-83.67 18.16,-83.53 16.81,-83.74 15.56,-84.02 14.31,-84 12.98,-83.47 11.55,-82.44 10.05,-81.08 8.49,-79.65 6.88,-78.33 5.3,-77.31 4.06,-76.77 3.91,-76.59" fill="none" stroke="rgb(134, 73, 19)" stroke-width="2" stroke-linejoin="round" filter="url(#fuzzy)" /><polyline points="1.66,-76.48 3.06,-77.51 4.13,-79.1 5.43,-80.17 6.87,-80.64 8.29,-80.66 9.63,-80.41 10.89,-80.11 12.14,-79.99 13.39,-80.18 14.65,-80.63 15.94,-81.16 17.31,-81.69 18.81,-82.27 20.47,-83 22.31,-83.75 24.41,-84.61" fill="none" stroke="rgb(134, 73, 19)" stroke-width="2" stroke-linejoin="round" filter="url(#fuzzy)" />
    </g>
    
        <g id="lineNose">
        <path d="M -13.88,13.17 Q 12.17, 21.615000000000002 -0.8550000000000004, -4.308" fill="none" stroke="black" stroke-width="3" stroke-linejoin="round" filter="url(#fuzzy)"></path>
        </g>
      
    <g id="mouth">
      <polyline points="-37.11,65.62 -36.97,64.5 -36.79,63.4 -36.57,62.34 -36.32,61.31 -36.03,60.32 -35.71,59.35 -35.36,58.41 -34.98,57.51 -34.57,56.63 -34.12,55.79 -33.65,54.97 -33.15,54.18 -32.62,53.42 -32.07,52.7 -31.49,52 -30.88,51.32 -30.25,50.68 -29.59,50.06 -28.91,49.48 -28.21,48.92 -27.49,48.38 -26.74,47.88 -25.98,47.4 -25.19,46.94 -24.39,46.52 -23.57,46.12 -22.73,45.74 -21.88,45.39 -21.01,45.07 -20.12,44.77 -19.22,44.49 -18.31,44.24 -17.39,44.02 -16.45,43.81 -15.5,43.64 -14.55,43.48 -13.58,43.35 -12.6,43.24 -11.62,43.16 -10.62,43.09 -9.62,43.05 -8.62,43.03 -7.61,43.04 -6.6,43.06 -5.58,43.11 -4.56,43.17 -3.54,43.26 -2.51,43.37 -1.49,43.5 -0.46,43.65 0.56,43.82 1.58,44.01 2.6,44.21 3.61,44.44 4.63,44.68 5.63,44.95 6.63,45.23 7.63,45.53 8.62,45.85 9.6,46.19 10.57,46.54 11.53,46.91 12.48,47.3 13.43,47.7 14.36,48.12 15.27,48.56 16.18,49.01 17.07,49.48 17.95,49.96 18.81,50.46 19.65,50.98 20.48,51.51 21.29,52.05 22.08,52.61 22.86,53.18 23.61,53.76 24.34,54.36 25.05,54.97 25.74,55.6 26.41,56.23 27.05,56.88 27.67,57.54 28.26,58.22 28.83,58.9 29.37,59.6 29.88,60.31 30.37,61.03 30.82,61.76 31.25,62.5 31.65,63.25 32.01,64.01 32.34,64.78 32.64,65.56 32.91,66.35 33.14,67.15 33.34,67.95 33.5,68.77 33.63,69.59 33.71,70.43 33.76,71.27 33.71,70.43 33.63,69.59 33.5,68.77 33.34,67.95 33.14,67.15 32.91,66.35 32.64,65.56 32.34,64.78 32.01,64.01 31.65,63.25 31.25,62.5 30.82,61.76 30.37,61.03 29.88,60.31 29.37,59.6 28.83,58.9 28.26,58.22 27.67,57.54 27.05,56.88 26.41,56.23 25.74,55.6 25.05,54.97 24.34,54.36 23.61,53.76 22.86,53.18 22.08,52.61 21.29,52.05 20.48,51.51 19.65,50.98 18.81,50.46 17.95,49.96 17.07,49.48 16.18,49.01 15.27,48.56 14.36,48.12 13.43,47.7 12.48,47.3 11.53,46.91 10.57,46.54 9.6,46.19 8.62,45.85 7.63,45.53 6.63,45.23 5.63,44.95 4.63,44.68 3.61,44.44 2.6,44.21 1.58,44.01 0.56,43.82 -0.46,43.65 -1.49,43.5 -2.51,43.37 -3.54,43.26 -4.56,43.17 -5.58,43.11 -6.6,43.06 -7.61,43.04 -8.62,43.03 -9.62,43.05 -10.62,43.09 -11.62,43.16 -12.6,43.24 -13.58,43.35 -14.55,43.48 -15.5,43.64 -16.45,43.81 -17.39,44.02 -18.31,44.24 -19.22,44.49 -20.12,44.77 -21.01,45.07 -21.88,45.39 -22.73,45.74 -23.57,46.12 -24.39,46.52 -25.19,46.94 -25.98,47.4 -26.74,47.88 -27.49,48.38 -28.21,48.92 -28.91,49.48 -29.59,50.06 -30.25,50.68 -30.88,51.32 -31.49,52 -32.07,52.7 -32.62,53.42 -33.15,54.18 -33.65,54.97 -34.12,55.79 -34.57,56.63 -34.98,57.51 -35.36,58.41 -35.71,59.35 -36.03,60.32 -36.32,61.31 -36.57,62.34 -36.79,63.4 -36.97,64.5" fill="rgb(150, 102, 204)" stroke="black" stroke-width="3" stroke-linejoin="round" filter="url(#fuzzy)" />
    </g>
  </svg>