<svg xmlns="http://www.w3.org/2000/svg" width="500" height="500" viewBox="-100 -100 200 200"><defs><clipPath id="c"><path d="m28.13-.36-.21-.2-.23-.18-.26-.18-.27-.18-.31-.17-.32-.16-.36-.16-.38-.16-.41-.15-.44-.15-.46-.14-.5-.14-.52-.13-.55-.13-.58-.13-.46-.13-.51-.12-.57-.12-.63-.13-.68-.12-.73-.12-.78-.12-.84-.11-.88-.12-.94-.11-.98-.11-1.02-.11-1.06-.1-1.1-.1-1.13-.1-1.17-.09-1.2-.09-1.22-.09-1.24-.08-1.27-.07-1.28-.07-1.29-.06-1.31-.06-1.31-.06-1.31-.04-1.32-.04-1.32-.04-1.31-.03-1.31-.02-1.29-.01-1.29-.01-1.27-.01h-1.25l-1.23.01-1.22.01-1.19.02-1.16.03-1.14.03-1.12.03-1.08.04-1.06.05-1.03.04-.99.05-.97.06-.93.06-.91.06-.87.06-.84.06-.81.07-.78.07-.76.06-.72.07-.7.07-.67.08-.65.07-.61.08-.59.07-.56.08-.54.08-.51.07-.48.08-.45.08-.44.07-.4.08 5.74.75.41.15.44.16.47.15.5.16.52.16.56.16.58.16.61.17.64.17.67.17.69.17.73.18.75.18.77.19.81.19.83.19.86.19.89.2.93.2.94.21.98.21 1 .22 1.03.22 1.05.22 1.08.23 1.1.23 1.11.24 1.14.24 1.15.24 1.17.24 1.17.24 1.19.25 1.2.24 1.2.24 1.21.24 1.21.23 1.2.24 1.21.22 1.19.22 1.19.21 1.18.21 1.16.19 1.15.18 1.13.17 1.11.16 1.08.14 1.06.13 1.03.11 1 .09.97.07.93.05.89.03h.86l.82-.01.77-.04.74-.07.69-.09.64-.12.6-.14.56-.17.51-.2.46-.22.42-.25.37-.27.47-.13.45-.15.43-.15.39-.17.38-.18.35-.19.33-.19.31-.2.28-.21.26-.22.25-.22.22-.23.2-.23.19-.23.17-.23"/></clipPath><clipPath id="b"><path d="m-29.48.22.22-.23.23-.23.25-.22.28-.21.29-.2.32-.19.35-.19.37-.19.39-.18.42-.17.44-.17.47-.16.5-.16.53-.16.55-.15.45-.14.49-.14.55-.15.6-.14.64-.14.69-.14.75-.13.79-.14.83-.13.88-.13.92-.13.96-.13 1-.12 1.03-.12 1.07-.11 1.1-.11 1.13-.11 1.15-.1 1.18-.09 1.2-.09 1.22-.08 1.23-.08 1.24-.07 1.25-.06 1.27-.06 1.26-.05 1.27-.05 1.26-.03 1.27-.03 1.26-.03 1.24-.01 1.24-.01H11l1.19.01 1.18.02 1.16.02 1.14.03 1.11.04 1.1.04 1.06.05 1.05.05 1.01.05.99.06.96.07.93.06.91.07.87.07.85.07.82.08.8.07.77.08.75.08.72.08.69.08.67.09.65.08.62.09.59.08.57.09.55.09.52.08.49.09.48.09-2.32 1.18-.31.14-.34.15-.37.15-.39.16-.43.15-.46.16-.48.16-.52.17-.54.16-.58.18-.6.17-.64.18-.67.18-.69.18-.73.19-.76.19-.79.19-.82.2-.86.21-.88.21-.92.21-.96.22-.98.22-1.02.22-1.04.23-1.07.24-1.1.23-1.13.25-1.15.24-1.17.24-1.2.25-1.21.24-1.23.25-1.24.24-1.26.25-1.26.24-1.27.23-1.28.23-1.28.22-1.27.22-1.27.2-1.26.2-1.26.18-1.23.18-1.23.16-1.2.14-1.18.13-1.16.11-1.12.09-1.1.07-1.06.05-1.02.03h-.99l-.94-.02-.91-.04-.85-.07-.81-.09-.76-.13-.71-.14-.66-.18-.6-.2-.56-.22-.5-.26-.45-.27-.56-.14-.53-.15-.51-.16-.48-.17-.45-.19-.42-.19-.4-.2-.37-.21-.34-.21-.32-.22-.29-.23-.27-.23-.25-.24-.22-.23-.21-.24"/></clipPath><filter id="a"><feTurbulence baseFrequency=".05" numOctaves="3" result="noise" type="noise"/><feDisplacementMap in="SourceGraphic" in2="noise" scale="2"/></filter></defs><rect width="100%" height="100%" x="-100" y="-100" fill="#F08080"/><path fill="#FFDAB9" stroke="#000" stroke-linejoin="round" stroke-width="1.667" d="m82.23 1.38.23 1.61-.06.69-.13-1.88-.16 1.74.23.95-.27 3.18-.29 1.41.2-.89-.55 4.36.03-.16-.18 1.39-.83 2.73.36-.56-.64 2.37-.23.46.1.7-.15.48-.83 2.32-.55 1.68.04.18-.34.51-.85 2.65-.2.17-.44 1.25-.71 1.7-.15.04-1.14 3.21-.44.12-.46.9-.91 1.94.76-.73-1.18 1.42-.97 1.86-1.18 1.97.3-.29-.43.54-1.26 2.25-.59.47-1.4 1.53-.55.65-1.1 2.03-.17.05-1.37 1.65-.09.4-.28-.03-1.91 2.35.17.18-2.8 2.73 1.59-1.61-3.35 3.38-1.2 1 .14-.28-.58.4-1.43 1.43.44-.27-1.94 1.43-.9.95-1.18.56.06-.08-.98.81-1.5 1.06-1.63 1.23-.59.12-.38.53-4.08 1.96-.87.91-.62.23-1.08.36.91-.33-3.99 2.08.77-.15-1.45.32-.11-.03-1.79.78-1.92.97-1.12.62-.31-.19-.54.51-2.36.38-2.73.91-1.61.75.44-.4-1.78.68-.35.1-.6-.11-2.58.9-2.81.37.41.25-1.36-.02-.29.09-1.91.33-2.51.28-.16.14.39-.07-3.2-.04-2.61.33-.57.01-1.83.02 1.51.12-3.03-.22-1.72.34-2.11-.17.09-.07-1.12.05-2.35-.31 1.71-.07-3.95-.19-1.77-.36.15.31-1.46-.12-2.69-.66-1.7-.37-.2-.15-1.92-.11-.28-.29-2.64-.51 1.36.31-2.51-.58-.74-.57-.39.1-.95-.26-4.14-1.26-1.42-.83 1.62.52-2.26-.82-1.23-.39-.21-.11-.9-.21-3.58-1.76-.57-.47-.03.17-2.57-1.59.45.36-.41.11-.91-.94-1.65-.69-2.17-1.09-1.23-.9.77.33-1.93-1.29-.11-.44-2.64-1.64-.19.24-1-1.06-1.7-1.16-1.25-1.45-.52.02-.84-1.32-.73-.3-2.72-2.95.52.98-.97-.7-1.15-1.29-1.43-1.83-.77-.93.33.16-.89-.68-1.91-2.08-1.25-1.69.82.7-.53-.75-1.65-1.83-.19-1.02-.56-.34-1.25-1.81-1.15-2.27-.74-.95-.86-1.43-.32-.71.64.84-.83-1.57-1.11-1.45-.62-1.55-.24-1.38-.24-.33-1.08-1.9.06-.52-.47-1.19.12.35-1.59-4.52.31 1.32-.91-2.47-.06-1.37-.59-2.23.22.33-.65-.88-.32-2.11-.09-1.26-.47-.76.04-.09-.03-1.14-.35-2.12.16-.28-.43-4.82-.08 1.3-.14-1.29-.03-1.87.1.92-.15-4.16-.21-.89-.01-.77.33-1.17-.05-1.08-.01-.54.01-1.89.09-1.33.48-2.31-.03 1.54-.14-1.01.71-3.49.13-.69.01-1.66.24-.86.08.18.63-2.23.35-1.13.23-1.81.53-2.05-.02.52 1.07-2.44.01-.85.16-.03.43-.93.64-2.2.5-1.45 1.01-1.75.11-.07 1.23-3.1.14.1.41-.42.44-1.52.14.46 1.59-3.11.34-.49.88-1.47.65-1.13-.76 1.19 1.45-2.07.95-1.34.81-1.43 1.19-1.64.5.48 1.36-2.16.67-.73-.73.96 1.6-1.9 1.9-2.54.39-.39 1.26-1 .86-.97-.08.38 1.42-1.08.48-.55 2.22-1.96.74-.71.32.08 2.02-1.91-.77.26 1.27-.83 1.91-1.2.86-.54 1.63-1.1.39-.33 1.24-.93 2.4-1.18.26.14-.86.09 3.09-1.6 2.25-1.3-1.11.53.75-.17 1.56-.69 2.89-1.24-.88.09 3.16-1.04-.69.12 3.5-1.2.45-.14 2.67-.88-1.38.2 1.94-.74 2.93-.28.41-.28 1.78-.35.65-.36.6-.13 1.59-.2.73-.32.37.08.49-.22 4.29-.4-.69-.13 2.31.05 2.73-.24 1.19-.12.34-.22.71.13-.45-.21 2.51.12 2.68.16-.78-.34 1.53.08 2.45-.04.26.16 2.59.39.73-.05 1.3.17.03-.13 2.84.34 2.48.36-.07-.13 1.12.45.69-.03 1.48.29 2.06.61 2.31.57.55.26.38-.26 2.16.82-.58-.2 2.23.93 3.23 1.03-.46-.39.44.4 3.55 1.55-.68-.2.62.23.65.2 3.07 1.35.36-.23 1.45.83-.48.12 2.09 1.05 1.82.98-.06.09 2.36 1.19 1.71 1.08 1.69.85-1-.02.1-.26 1.36 1.01.87.4 1.31 1.23 2.02 1.54 1.62 1.22.21.35 1.75 1.63.06-.04 1.07.73 1.25 1.4.6.27 1.18 1.79 1.2 1.01-1.06-1 1.6 1.08.78 1.37 1.34 1.93 1.64 1.91.77.69-.52-.39.42.63 1.68 2.17-.63-.77 1.72 2 1.32 1.85.64 1.52-1-1.42 1.28 2.49.84.8.64 1.48.84 1.63 1.04 1.62.18.8.78 1.38.11.53.67 1.62.66 1.48.06-.21-.18-.36 1.02 3.61.05-.29.72 1.43.35 3.22.23-.29-.09 1 .89 2.36-.16.04.41 1.56.08.77.55 1.97.19.95.38 2.05-.13.26.15 1.63-.07.03.48 3.47-.18.13.19 1.87-.12-.21-.07 3.42.23 1.61" filter="url(#a)"/><path fill="#fff" d="m-29.48.22.22-.23.23-.23.25-.22.28-.21.29-.2.32-.19.35-.19.37-.19.39-.18.42-.17.44-.17.47-.16.5-.16.53-.16.55-.15.45-.14.49-.14.55-.15.6-.14.64-.14.69-.14.75-.13.79-.14.83-.13.88-.13.92-.13.96-.13 1-.12 1.03-.12 1.07-.11 1.1-.11 1.13-.11 1.15-.1 1.18-.09 1.2-.09 1.22-.08 1.23-.08 1.24-.07 1.25-.06 1.27-.06 1.26-.05 1.27-.05 1.26-.03 1.27-.03 1.26-.03 1.24-.01 1.24-.01H11l1.19.01 1.18.02 1.16.02 1.14.03 1.11.04 1.1.04 1.06.05 1.05.05 1.01.05.99.06.96.07.93.06.91.07.87.07.85.07.82.08.8.07.77.08.75.08.72.08.69.08.67.09.65.08.62.09.59.08.57.09.55.09.52.08.49.09.48.09-2.32 1.18-.31.14-.34.15-.37.15-.39.16-.43.15-.46.16-.48.16-.52.17-.54.16-.58.18-.6.17-.64.18-.67.18-.69.18-.73.19-.76.19-.79.19-.82.2-.86.21-.88.21-.92.21-.96.22-.98.22-1.02.22-1.04.23-1.07.24-1.1.23-1.13.25-1.15.24-1.17.24-1.2.25-1.21.24-1.23.25-1.24.24-1.26.25-1.26.24-1.27.23-1.28.23-1.28.22-1.27.22-1.27.2-1.26.2-1.26.18-1.23.18-1.23.16-1.2.14-1.18.13-1.16.11-1.12.09-1.1.07-1.06.05-1.02.03h-.99l-.94-.02-.91-.04-.85-.07-.81-.09-.76-.13-.71-.14-.66-.18-.6-.2-.56-.22-.5-.26-.45-.27-.56-.14-.53-.15-.51-.16-.48-.17-.45-.19-.42-.19-.4-.2-.37-.21-.34-.21-.32-.22-.29-.23-.27-.23-.25-.24-.22-.23-.21-.24" filter="url(#a)" transform="translate(33.59 -23.87)"/><path fill="#fff" d="m28.13-.36-.21-.2-.23-.18-.26-.18-.27-.18-.31-.17-.32-.16-.36-.16-.38-.16-.41-.15-.44-.15-.46-.14-.5-.14-.52-.13-.55-.13-.58-.13-.46-.13-.51-.12-.57-.12-.63-.13-.68-.12-.73-.12-.78-.12-.84-.11-.88-.12-.94-.11-.98-.11-1.02-.11-1.06-.1-1.1-.1-1.13-.1-1.17-.09-1.2-.09-1.22-.09-1.24-.08-1.27-.07-1.28-.07-1.29-.06-1.31-.06-1.31-.06-1.31-.04-1.32-.04-1.32-.04-1.31-.03-1.31-.02-1.29-.01-1.29-.01-1.27-.01h-1.25l-1.23.01-1.22.01-1.19.02-1.16.03-1.14.03-1.12.03-1.08.04-1.06.05-1.03.04-.99.05-.97.06-.93.06-.91.06-.87.06-.84.06-.81.07-.78.07-.76.06-.72.07-.7.07-.67.08-.65.07-.61.08-.59.07-.56.08-.54.08-.51.07-.48.08-.45.08-.44.07-.4.08 5.74.75.41.15.44.16.47.15.5.16.52.16.56.16.58.16.61.17.64.17.67.17.69.17.73.18.75.18.77.19.81.19.83.19.86.19.89.2.93.2.94.21.98.21 1 .22 1.03.22 1.05.22 1.08.23 1.1.23 1.11.24 1.14.24 1.15.24 1.17.24 1.17.24 1.19.25 1.2.24 1.2.24 1.21.24 1.21.23 1.2.24 1.21.22 1.19.22 1.19.21 1.18.21 1.16.19 1.15.18 1.13.17 1.11.16 1.08.14 1.06.13 1.03.11 1 .09.97.07.93.05.89.03h.86l.82-.01.77-.04.74-.07.69-.09.64-.12.6-.14.56-.17.51-.2.46-.22.42-.25.37-.27.47-.13.45-.15.43-.15.39-.17.38-.18.35-.19.33-.19.31-.2.28-.21.26-.22.25-.22.22-.23.2-.23.19-.23.17-.23" filter="url(#a)" transform="translate(-30 -25.45)"/><g fill="none" stroke="#000" transform="translate(33.59 -23.87)"><path stroke-linejoin="round" stroke-width="1.667" d="m-30.89 3.13.11-.35.11-.33.12-.32.12-.31.13-.3.14-.28.15-.27.16-.26.18-.25.19-.24.22-.23.23-.23.25-.22.28-.21.29-.2.32-.19.35-.19.37-.19.39-.18.42-.17.44-.17.47-.16.5-.16.53-.16.55-.15.45-.14.49-.14.55-.15.6-.14.64-.14.69-.14.75-.13.79-.14.83-.13.88-.13.92-.13.96-.13 1-.12 1.03-.12 1.07-.11 1.1-.11 1.13-.11 1.15-.1 1.18-.09 1.2-.09 1.22-.08 1.23-.08 1.24-.07 1.25-.06 1.27-.06 1.26-.05 1.27-.05 1.26-.03 1.27-.03 1.26-.03 1.24-.01 1.24-.01H11l1.19.01 1.18.02 1.16.02 1.14.03 1.11.04 1.1.04 1.06.05 1.05.05 1.01.05.99.06.96.07.93.06.91.07.87.07.85.07.82.08.8.07.77.08.75.08.72.08.69.08.67.09.65.08.62.09.59.08.57.09.55.09.52.08.49.09.48.09.44.08.43.09.4.08.38.09.36.08.34.08.31.08.3.08.28.08.25.07" filter="url(#a)"/><path stroke-linejoin="round" stroke-width="2.222" d="m-30.75.57.1.14.09.16.1.17.11.19.11.2.13.21.14.22.15.23.17.23.18.24.21.24.22.23.25.24.27.23.29.23.32.22.34.21.37.21.4.2.42.19.45.19.48.17.51.16.53.15.56.14.45.27.5.26.56.22.6.2.66.18.71.14.76.13.81.09.85.07.91.04.94.02h.99l1.02-.03 1.06-.05 1.1-.07 1.12-.09 1.16-.11 1.18-.13 1.2-.14 1.23-.16 1.23-.18 1.26-.18 1.26-.2 1.27-.2 1.27-.22 1.28-.22 1.28-.23 1.27-.23 1.26-.24 1.26-.25 1.24-.24 1.23-.25 1.21-.24 1.2-.25 1.17-.24 1.15-.24 1.13-.25 1.1-.23 1.07-.24 1.04-.23 1.02-.22.98-.22.96-.22.92-.21.88-.21.86-.21.82-.2.79-.19.76-.19.73-.19.69-.18.67-.18.64-.18.6-.17.58-.18.54-.16.52-.17.48-.16.46-.16.43-.15.39-.16.37-.15.34-.15.31-.14.29-.15.25-.15.23-.14.2-.14.18-.14.15-.14.12-.14.11-.14.07-.14.06-.14" filter="url(#a)"/><circle cx="33.505" cy="-1.184" r="3.624" clip-path="url(#b)" filter="url(#a)"/><circle cx="34.03" cy="-1.919" r="3.864" clip-path="url(#b)" filter="url(#a)"/><circle cx="34.015" cy="-1.784" r="3.112" clip-path="url(#b)" filter="url(#a)"/><circle cx="32.23" cy="-3.504" r="3.514" clip-path="url(#b)" filter="url(#a)"/><circle cx="34.585" cy="-1.579" r="3.014" clip-path="url(#b)" filter="url(#a)"/><circle cx="34.345" cy="-2.169" r="3.108" clip-path="url(#b)" filter="url(#a)"/><circle cx="32.29" cy="-.944" r="3.928" clip-path="url(#b)" filter="url(#a)"/><circle cx="33.525" cy="-4.724" r="3.896" clip-path="url(#b)" filter="url(#a)"/><circle cx="33.09" cy="-4.214" r="3.81" clip-path="url(#b)" filter="url(#a)"/><circle cx="33.89" cy="-4.984" r="3.628" clip-path="url(#b)" filter="url(#a)"/></g><g fill="none" stroke="#000" transform="translate(-30 -25.45)"><path stroke-linejoin="round" stroke-width="2.222" d="m29.48 2.02-.1-.29-.11-.27-.11-.26-.11-.25-.12-.24-.13-.23-.14-.22-.16-.22-.18-.2-.19-.2-.21-.2-.23-.18-.26-.18-.27-.18-.31-.17-.32-.16-.36-.16-.38-.16-.41-.15-.44-.15-.46-.14-.5-.14-.52-.13-.55-.13-.58-.13-.46-.13-.51-.12-.57-.12-.63-.13-.68-.12-.73-.12-.78-.12-.84-.11-.88-.12-.94-.11-.98-.11-1.02-.11-1.06-.1-1.1-.1-1.13-.1-1.17-.09-1.2-.09-1.22-.09-1.24-.08-1.27-.07-1.28-.07-1.29-.06-1.31-.06-1.31-.06-1.31-.04-1.32-.04-1.32-.04-1.31-.03-1.31-.02-1.29-.01-1.29-.01-1.27-.01h-1.25l-1.23.01-1.22.01-1.19.02-1.16.03-1.14.03-1.12.03-1.08.04-1.06.05-1.03.04-.99.05-.97.06-.93.06-.91.06-.87.06-.84.06-.81.07-.78.07-.76.06-.72.07-.7.07-.67.08-.65.07-.61.08-.59.07-.56.08-.54.08-.51.07-.48.08-.45.08-.44.07-.4.08-.38.08-.36.07-.34.08-.31.07-.29.07-.26.08-.25.07-.22.07-.21.07-.18.06" filter="url(#a)"/><path stroke-linejoin="round" stroke-width="2.222" d="m29.73.46-.1.13-.09.15-.1.17-.1.18-.1.2-.11.21-.12.21-.13.22-.14.23-.16.22-.17.23-.19.23-.2.23-.22.23-.25.22-.26.22-.28.21-.31.2-.33.19-.35.19-.38.18-.39.17-.43.15-.45.15-.47.13-.37.27-.42.25-.46.22-.51.2-.56.17-.6.14-.64.12-.69.09-.74.07-.77.04-.82.01h-.86l-.89-.03-.93-.05-.97-.07-1-.09-1.03-.11-1.06-.13-1.08-.14-1.11-.16-1.13-.17-1.15-.18-1.16-.19-1.18-.21-1.19-.21-1.19-.22-1.21-.22-1.2-.24-1.21-.23L-3.44 4l-1.2-.24-1.2-.24-1.19-.25-1.17-.24-1.17-.24-1.15-.24-1.14-.24-1.11-.24-1.1-.23-1.08-.23-1.05-.22-1.03-.22-1-.22-.98-.21-.94-.21-.93-.2-.89-.2-.86-.19-.83-.19-.81-.19-.77-.19-.75-.18-.73-.18-.69-.17-.67-.17-.64-.17-.61-.17-.58-.16-.56-.16-.52-.16-.5-.16-.47-.15-.44-.16-.41-.15-.38-.15-.36-.15-.33-.15-.3-.15-.28-.14-.25-.15-.22-.15-.2-.14-.17-.15-.15-.14" filter="url(#a)"/><circle cx=".796" cy="1.206" r="3.236" clip-path="url(#c)" filter="url(#a)"/><circle cx="2.501" cy="-2.769" r="3.926" clip-path="url(#c)" filter="url(#a)"/><circle cx="4.911" cy="1.131" r="3.334" clip-path="url(#c)" filter="url(#a)"/><circle cx="3.206" cy="-1.239" r="3.998" clip-path="url(#c)" filter="url(#a)"/><circle cx="4.131" cy="-1.004" r="4.982" clip-path="url(#c)" filter="url(#a)"/><circle cx="4.911" cy=".011" r="4.728" clip-path="url(#c)" filter="url(#a)"/><circle cx="1.706" cy="1.691" r="4.354" clip-path="url(#c)" filter="url(#a)"/><circle cx="4.951" cy="-.059" r="4.618" clip-path="url(#c)" filter="url(#a)"/><circle cx="1.051" cy="1.331" r="3.892" clip-path="url(#c)" filter="url(#a)"/><circle cx="4.351" cy="1.711" r="3.846" clip-path="url(#c)" filter="url(#a)"/></g><g fill="none" stroke="#DC143C" stroke-linejoin="round" stroke-width="2"><path d="m1.02-79.07-2.28-.67-1.52-.69-1-.56-.84-.32-.96-.12-1.2-.07-1.43-.15-1.58-.28-1.62-.33-1.57-.29-1.44-.2-1.28-.13-1.14-.08-1.03-.04-1.01-.04-1.05-.1-1.15-.17-1.58-.22 16.7 4.6.78-1.85.59-.95.65-.86.89-.42 1.12.03 1.25.22 1.32.11L2-82.84l1.41-.55 1.46-.88 1.49-1.14 1.52-1.28 1.54-1.28 1.57-1.1 1.56-.8 1.54-.41 1.48-.08 1.42.03 1.42-.07 1.55-.28 1.8-.5 2.13-.73 2.31-1.12 1.98-1.92-38.49 16.34-3.19-1.52-1.7-1.19h-1l-.87.36-.95.17-1.1-.12-1.24-.29-1.37-.36-1.5-.41-1.58-.45-1.6-.44-1.57-.3-1.5-.04-1.48.23-1.52.33-1.62.22-1.77-.08-1.86-.31-1.91-.27-1.92-.02-1.98-.04-1.91-.87 29.99 5.94-1.02-.27-1 .18-.95.37-1.02.41-1.14.36-1.25.31-1.31.25-1.3.25-1.29.28-1.28.33-1.29.4-1.33.43-1.34.45-1.34.45-1.33.45-1.29.43-1.24.4-1.17.33-1.1.29-1.13.32-1.31.47-1.37.67-.38.42M80.78-14.96l-.13-1.18-.1-1.09-.1-1.15-.14-1.2-.16-1.25-.14-1.33-.08-1.36-.04-1.33-.02-1.23-.05-1.13-.09-1.03-.13-1.01-.19-1.03-.22-1.09-.24-1.16-.24-1.26-.24-1.39-.3-1.53-.41-1.66-.2-1.79" filter="url(#a)"/><path d="m-46.68-68.08 1.48-.77 1.37-.42 1.14-.26 1.1-.31 1.11-.41 1.1-.44 1.05-.43 1.05-.39 1.1-.4 1.18-.41 1.23-.46 1.26-.48 1.3-.48 1.38-.45 1.43-.41 1.4-.39 1.03-.34-.12-.08" filter="url(#a)"/><path d="m-38.12-70.46.85-.72 1.02-1.37 1.04-1.35.99-1.32.89-1.6.78-2.01.72-2.32.7-2.41.73-2.28.83-1.99.99-1.61 1.19-1.32 1.27-1.37 1.11-2.02.72-3.13.38-3.92.53-3.21 1.34-1.46 8.02-.99-3.68 1.29-1.34 3.15-.73 2.89-.75 2.01-.88 1.36-.95 1.22-.96 1.41-.99 1.64-1.04 1.73-1.08 1.65-1.09 1.55-1.05 1.53-.96 1.65-.89 1.85-.86 1.98-.89 1.9-1.02 1.57-1.21 1.02-1.49.37-1.69-.14-1.43-.06-.1 1.29 2.09 3.01-25.04 15.05.83-.36.9-.55.86-.52.88-.51.96-.59 1.02-.68 1.05-.76 1.03-.77.99-.73.94-.7.93-.66.96-.64 1.05-.64 1.14-.63 1.19-.63 1.19-.63 1.18-.65 1.34-.75 1.86-.98" filter="url(#a)"/><path d="m-45.78-65.88.71-.53 1.05-.73.98-.76.89-.74.92-.68.98-.62 1.03-.55 1.03-.52 1.03-.56 1.05-.61 1.09-.66 1.16-.66 1.22-.63 1.29-.55 1.33-.5 1.33-.46 1.3-.45 1.24-.49 1.21-.52 1.25-.56 1.31-.56 1.34-.52 1.21-.45.91-.51" filter="url(#a)"/><path d="m-56.46-57.42.75-1.05 1.07-1.06 1.03-.85.92-.73.85-.72.83-.74.88-.78.96-.8 1.03-.78 1.09-.76 1.1-.73 1.07-.73 1.02-.73.96-.72.95-.72.97-.71 1-.67.96-.58.77-.45.67-.37 1.1-.54m-31.08 34.56.48-.66.12-.99.01-.95.15-.9.35-.97.49-1.12.55-1.21.54-1.23.49-1.19.43-1.1.39-.98.39-.86.5-.88.87-1.23 1.49-2.01m-3.44 4.21-1.1 1.31-.96.87-.98.94-.98 1.02-.89 1.02-.76.93-.65.83-.62.81-.65.84-.76.93-.86.97-.91.93-.83.81-.66.67-.51.44-.55-.01" filter="url(#a)"/><path d="m-70.78-40.58 1.18-.83.56-.67.53-.67.64-.88.71-1.06.76-1.11.79-1.06.82-.93.85-.81.89-.72.95-.68 1.02-.71 1.1-.76 1.11-.8 1.07-.78.99-.66.91-.47.89-.32.85-.36.59-.61 8.12 3.24-.71-.02-1.34.12-1.67.02-1.7-.09-1.59-.13-1.47-.04-1.37.11-1.32.31-1.26.5-1.18.64-1.07.71-.96.75-.82.79-.72.85-.68.93-.76.98-.95.93-1.18.82-1.3.66-1.14.54-.79.52-.56.67-.79 1.08" filter="url(#a)"/><path d="m-74.35-12.6-.6-1.3-.36-.98-.02-.97.25-1.08.36-1.17.32-1.22.2-1.22.03-1.19-.05-1.16-.03-1.11.08-1.08.23-1.09.34-1.15.35-1.23.26-1.34.09-1.42-.04-1.41-.03-1.31.15-1.07.49-.78.89-.58.96-.83-.64-2.8 16.9-13.12-1.02.71-1.13.73-1.15.88-1.11.89-1.02.82-.93.72-.88.68-.9.7-.96.75-1.01.78-1.04.82-.99.83-.9.82-.79.81-.69.83-.66.86-.7.93-.77.97-.82.94-.79.84-.65.69-.45.48-.26.13" filter="url(#a)"/><path d="m-73.84-35.6-.9 2.07-.71 1.36-.71 1.29-.72 1.27-.66 1.2-.55 1.09-.46 1.02-.4.98-.4 1.01-.42 1.07-.44 1.16-.47 1.24-.49 1.27-.51 1.24-.5 1.11-.45.94-.36.91-.16 1.28 7.97-18.34-.68 1.66-.52 1.56-.49 1.32-.42 1.11-.37 1-.32 1-.29 1.05-.25 1.14-.22 1.22-.17 1.26-.14 1.27-.09 1.25-.04 1.2.03 1.18.08 1.2.12 1.24.1 1.25.07 1.2.05 1.08.07.97.08 1.04.1 1.3.22 1.6 9.59-46.4-.7 1.81-.7 1.58-.61 1.36-.45 1.16-.32 1.03-.29 1.04-.32 1.09-.4 1.14-.47 1.13-.5 1.07-.53.99-.57.93-.61.92-.61.99-.55 1.13-.44 1.31-.33 1.44-.36 1.49-.51 1.35-.48 1.03.5.67m153.96-4.59.67.68.35 1.04.32.91.33.84.34.91.36 1.04.38 1.17.38 1.23.39 1.24.37 1.23.36 1.18.35 1.16.33 1.13.34 1.14.33 1.16.33 1.2.32 1.21.3 1.22.26 1.19.23 1.16.19 1.17.18 1.28.18 1.42.14.98 17.82-15.05-2.67-.96-1.46-1.04L96.4-22l-1.18-1.16-1.61-1.08-1.95-1.03-1.98-.99-1.79-.97-1.49-.92-1.18-.88-.87-.88-.58-.95-.44-1.01-.57-1.01-.96-.91-1.42-.81-1.62-.84-1.29-1.11-.49-1.57.31-2.01-.2-1.83-6.65 1.1-25.5-14.31 1.78.86 1.52.5 1.34.35 1.2.33 1.16.33 1.16.34 1.14.39 1.09.44 1.03.47 1.02.45 1.05.44 1.1.49 1.1.62 1.08.79 1.03.88 1.03.81 1.08.59 1.08.4.99.39.81.55.7.74 1.05 1.2" filter="url(#a)"/><path d="m62.28-52.35 3.52-.51 3 .04.87 1.3.09 1.46.43.97 1.15.43 1.66.17 1.71.28 1.41.61 1.01.94.84 1.05 1.01.92 1.45.69 1.93.53 2.29.53 2.48.67 2.75.71 3.41.41 4.27-.38-35.28-10.82-.39 2.47-.22 2.37-.32 2.07-.04 1.42.41.83.73.53.74.57.47.86.09 1.22-.23 1.47-.39 1.5-.36 1.38-.17 1.18.05 1.1.11 1.2-.09 1.45-.72 1.9-13.1-38.36 1.18.86.94 1.18L52-63.84l1.14 1.27 1.16 1.12 1.09.95.99.84.89.81.8.83.78.87.79.93.77.97.61 1.02.19.84-.53-.04" filter="url(#a)"/><path d="m79.22-41.02-1.41-.81-1.3-.61-1.16-.5-1.12-.67-1.04-.87-.97-.95-.91-.89-.85-.78-.8-.72-.77-.72-.83-.79-.99-.86-1.22-.87-1.36-.8-1.34-.64-1.12-.48-.8-.42-.71-.67-1.16-1.16-2.98-2.36.32.3.68.69.81.84.78.9.68.89.58.82.53.8.57.86.64 1.02.73 1.22.75 1.32.68 1.2.53.83.28.42.04.47-17.84-19.7.26-.58-.74-1.02-1.15-1.09-1.13-1.18-.94-1.39-.69-1.65-.51-1.81-.49-1.73-.62-1.49-.77-1.21-.87-1.12-.81-1.24-.67-1.51-.57-1.74-.59-1.78-.75-1.63-1.01-1.34-1.25-1.15-1.37-1.26-1.19-1.83-.81-2.41-1.5-1.44 15.77 29.69-1.63-.79-1.21-.58-1.16-.58-1.09-.58-1.01-.55-1.01-.5-1.05-.47-1.07-.45-1.05-.41-1.01-.39-.98-.38-1-.37-1.05-.38-1.13-.38-1.26-.39-1.42-.44-1.32-.45-.39-.14" filter="url(#a)"/><path d="m38.53-69.93 2.33.02 1.33.94 1.22.9 1.36.64 1.39.33 1.31.12 1.16.07 1.07.16 1.08.3 1.2.41 1.39.49 1.52.53 1.55.57 1.46.63 1.33.69 1.22.7 1.25.62 1.42.46 1.65.27 1.77.15 1.66.13 1.29.15.98.03 1.9-.21M21-100.96l1.32 3.49 1.79 1.72 1.44 1.7.91 2.25.61 2.58.63 2.35.91 1.7 1.26.91 1.47.37 1.46.29 1.22.65.9 1.17.58 1.62.35 1.86.26 1.98.36 2.07.56 2.14.53 1.23 26.17-2.49-2.59-.83-1.65-.98-1.55-.31-1.56.3-1.57.65-1.64.73-1.75.58-1.8.31-1.75-.06-1.59-.39-1.43-.57-1.36-.48-1.39-.19-1.42.05-1.33-.15-1.12-.85-1.33-.84-3.42 4.2-25.81-5.31 1.02.03 1.23.01 1.43.03 1.39.04 1.25.05 1.16.09 1.18.15 1.24.2 1.31.25 1.31.26 1.25.27 1.18.27 1.12.28 1.13.32 1.2.37 1.28.39 1.3.38 1.22.36 1.32.5 2.35 1.03 24.11-7.06-1.22 1.86-1.3.96-1.46-.03-1.49-.64-1.49-.85-1.52-.71-1.6-.38-1.7.04-1.81.46-1.92.79-1.97.98-1.91.94-1.72.67-1.42.28-1.18-.05-1.12-.16-1.26.07-1.22.55-.33.72" filter="url(#a)"/><path d="m26.78-74.82-1.31-.87-.66-1.21-.62-1.32-.82-1.05-1.1-.66-1.32-.38-1.4-.32-1.35-.42-1.25-.58-1.17-.7-1.18-.72-1.24-.63-1.32-.5-1.36-.42-1.34-.45-1.31-.54-1.34-.6-1.41-.58-1.54-.56-1.7-.57-1.77-.65-.03 9.14 1.59.52 1.52.27 1.36.52 1.24.76 1.15.84 1.12.76 1.14.67 1.16.68 1.11.81 1.01.99.9 1.14.85 1.19.9 1.13 1 1.06 1.06 1.13.93 1.29.63 1.25.23.74m-29.45-14.95-4.28.48-4.53.41-4.01.46-3.11.53-2.56.63-2.6.73-3.09.83-3.71.92-4.21.99-4.5 1.05-4.69 1.11-4.87 1.15-5.11 1.21-5.36 1.26-5.62 1.32-5.87 1.37-6.2 1.44-6.6 1.49-7.01 1.54-7.28 1.59-7.27 1.62-7.05 1.66-6.95 1.73-7.26 1.75-7.22 1.55-5.57 1.32" filter="url(#a)"/><path d="m-14.6-78.21-1.37.27-2.04.44-2.65.56-3.04.69-3.15.79-3.06.86-2.93.93-2.83.96-2.8.99-2.78 1.02-2.74 1.07-2.63 1.13-2.47 1.2-2.3 1.28-2.18 1.36-2.17 1.41-2.23 1.47-2.33 1.5-2.42 1.54-2.47 1.6-2.5 1.66-2.57 1.75-2.69 1.81-2.84 1.87-2.88 1.88-2.69 1.87-2.25 1.84-1.85 1.81-2.27 2.07" filter="url(#a)"/><path d="m-27.38-74.73-5.19 1.17-4.16 1.05-2.88 1-2.36 1.01-2.19 1.07-2.21 1.15-2.45 1.25-2.77 1.33-3.09 1.41-3.29 1.46-3.33 1.51-3.26 1.55-3.2 1.6-3.31 1.66-3.68 1.71-4.29 1.78-4.99 1.83-5.6 1.88-5.89 1.91-5.78 1.94-5.27 1.97-4.45 1.98-3.45 2.01-2.48 2.04-1.7 2.07-1.3 2.12-1.39 2.18-1.97 2.24-2.93 2.31-3.95 2.34-4.76 2.39-5.25 2.42-5.51 2.42-5.69 2.42-5.53 2.46-4.66 2.49-4.61 1.82" filter="url(#a)"/><path d="m-32.92-72.56-3.35 1.31-3.38 1.08-4.04 1.14-4.18 1.23-3.96 1.29-3.62 1.35-3.29 1.4-3.05 1.45-3.1 1.52-3.49 1.56-4.08 1.6-4.5 1.64-4.47 1.67-3.93 1.73-3.22 1.79-2.87 1.85-3.28 1.92-4.52 1.95-6.21 1.92-7.81 1.78-8.85 1.75-7.75 2.19m92.5-33.19-1.15.53-2.07 1.14-2.13 1.26-2.11 1.33-2.08 1.39-2.03 1.44-1.98 1.49-1.93 1.56-1.89 1.6-1.84 1.65-1.79 1.69-1.73 1.73-1.69 1.79-1.62 1.84-1.57 1.88-1.51 1.92-1.43 1.94-1.36 1.98-1.29 2.01-1.23 2.06-1.17 2.12-1.12 2.18-1.08 2.24-1.01 2.28-.94 2.3-.87 2.3-.78 2.3-.7 2.31-.63 2.34-.56 2.37-.49 2.38-.42 2.27-.34 2.07-.38 2.49M80.37-16.52l6.32 2.41 4.64 2.43 2.5 2.4 3.2 2.42 3.52 2.44 2.15 2.44-.19 2.42-2.17 2.45-3.04 2.46-2.68 2.48-1.48 2.48.04 2.44 1.46 2.38 2.5 2.34 3.07 2.31 3.25 2.29 3.18 2.27 2.93 2.27 2.6 2.25 2.19 2.23 1.74 2.2 1.23 2.17.72 2.15.19 2.12-.4 2.1-1.03 2.07-1.65 2.01-2.07 1.95-2.12 1.87-1.71 1.83-.99 1.81-.36 1.81-.24 1.79-.63 1.68-1.06 1.53-1.05 1.38-.29 1.01" filter="url(#a)"/><path d="m-39.26-69.69-2.36 1.33-2.41 1.28-2.27 1.38-2.14 1.46-2.03 1.51-1.94 1.52-1.89 1.54-1.86 1.58-1.84 1.65-1.83 1.72-1.79 1.78-1.75 1.84-1.71 1.88-1.66 1.92-1.59 1.93-1.53 1.96-1.45 1.98-1.39 2-1.31 2.02-1.24 2.06-1.18 2.1-1.12 2.17-1.05 2.24-1 2.3-.94 2.34-.92 2.38-.88 2.42-.82 2.4-.7 2.37-.53 2.56-.48 3.52m45.61-61.14-3.54 1.33-2.27 1.28-2.8 1.38-3.56 1.46-3.87 1.51-3.8 1.52-3.61 1.54-3.51 1.58-3.41 1.65-3.28 1.72-3.13 1.78-3.11 1.84-3.27 1.88L-86-47.3l-3.88 1.93-3.95 1.96-3.72 1.98-3.28 2-2.89 2.02-2.84 2.06-3.24 2.1-4.04 2.17-4.92 2.24-5.56 2.3-5.81 2.34-5.78 2.38-5.66 2.42-5.27 2.4-4.1 2.37-2.65 2.56-4.94 3.52" filter="url(#a)"/><path d="m-39.26-69.69-2.24 1.32-2.23 1.28-2.19 1.36-2.14 1.46-2.06 1.5-1.96 1.52-1.86 1.52-1.81 1.57-1.78 1.63-1.76 1.7-1.72 1.78-1.69 1.83-1.63 1.87-1.58 1.9-1.52 1.93-1.45 1.95-1.38 1.97-1.3 1.98-1.2 1.98-1.14 2.01-1.08 2.07-1.04 2.17-1.01 2.25-.96 2.25-.88 2.18-.82 2.26-.78 3.01" filter="url(#a)"/><path d="m-52.7-60.56-12.62 1.11.31 1.5 1.24 1.65-.12 1.77-1.45 1.85-2.36 1.9-2.85 1.91-3.03 1.93-3.09 1.95-3.24 1.97-3.57 1.99-4.01 2.01-4.38 2.03-4.44 2.08-4.17 2.13-3.68 2.19-3.26 2.25-3.19 2.31-3.59 2.34-4.36 2.38-5.23 2.39-5.86 2.41-6.01 2.4-5.56 2.4-4.57 2.38-3.4 2.35-2.5 2.34-2.28 2.38-2.58 2.53-2.89 2.69-.73 2.04" filter="url(#a)"/><path d="M-53.76-59.93-57.04-58l-2.3 1.67-1.94 1.78-2.11 1.87-2.54 1.9-3.15 1.91-3.9 1.92-4.72 1.94-5.48 1.96-5.91 1.98-5.78 1.99-5.03 2.02-3.89 2.05-2.84 2.11-2.28 2.18-2.48 2.25-3.36 2.29-4.65 2.34-5.99 2.37-7.13 2.39-7.91 2.4-8.38 2.4-8.47 2.41-7.9 2.4-6.1 2.36-3.16 2.23-1.25 1.94M-57.8-56.72l-2.07 2.09-2.07 2.07-2.01 1.97-1.82 1.93-1.59 1.93-1.43 1.95-1.33 1.98-1.26 2.01-1.2 2.02-1.15 2.05-1.12 2.09-1.09 2.14-1.07 2.21-1.05 2.28-1.01 2.31-.95 2.36-.87 2.38-.79 2.4-.71 2.4-.65 2.41-.61 2.39-.58 2.39-.53 2.37-.45 2.36-.36 2.35-.23 2.35-.13 2.34-.06 2.36-.01 2.38-.02 2.44.01 2.46.1 2.32.25 2.02.12 1.33" filter="url(#a)"/><path d="m-60.31-54.36-2.94 2.9-1.96 1.85-1.56 1.86-1.55 1.97-1.56 1.99-1.5 1.97-1.45 2-1.48 2.06-1.62 2.14-1.78 2.22-1.91 2.27-1.91 2.3-1.81 2.3-1.61 2.3-1.37 2.3-1.18 2.31-1.06 2.32-1.02 2.31-1.01 2.31-.96 2.29-.83 2.29-.59 2.28-.38 2.33-.29 2.38-.42 2.49-.73 2.6-1.01 2.66-.99 2.62-.56 2.39-.01 2-.42 1.81" filter="url(#a)"/><path d="m-75.18-32.43-3.17 2.87-1.16 2.39-2.56 2.21-5.1 2.28-7.12 2.38-7.86 2.4-7.33 2.4-6.01 2.37-4.56 2.36-3.47 2.34-2.75 2.33-2.08 2.32-1.15 2.32-.1 2.31.52 2.31.17 2.32-1.25 2.35-3.18 2.39-4.81 2.39-5.71 2.28-6.01 2.12-5.87 2.07-1.78 2.64m235.95-46-.09 3.3-.99 2.3-1.04 2.18-1.73 2.24-2.95 2.32-3.8 2.36-3.8 2.39-3.13 2.4-2.34 2.41-1.84 2.4-1.76 2.42-1.87 2.45-1.88 2.46-1.66 2.47-1.26 2.44-.91 2.38-.73 2.32-.75 2.27-.93 2.26-1.21 2.26-1.59 2.28-2.05 2.3-2.45 2.27-2.74 2.19-3.03 2.06-3.67 1.98-4.42 2.05-4.11 1.98m58.73-65.14 7.5 3.29-.88 2.29-1.26 2.17.23 2.23 1.57 2.3 2.19 2.35 2.09 2.38 1.59 2.4 1 2.39.49 2.39.19 2.4.15 2.44.38 2.46.79 2.48 1.22 2.44 1.51 2.38 1.52 2.3 1.2 2.25.59 2.22-.17 2.23-.74 2.28-.83 2.37-.45 2.46.16 2.38 1.18 1.69M58.76-55.5l-2.57-1.87-3.27-1.75-3.47-1.7-3.44-1.57-3.2-1.41-2.84-1.31-2.58-1.25-2.61-1.24-2.87-1.21-3.12-1.15-3.1-1.08-2.74-.99-2.2-.91-1.73-.86-1.55-.82-1.64-.77-1.85-.72-1.96-.63-1.94-.57-1.85-.5-1.82-.45-1.81-.39-1.63-.22" filter="url(#a)"/><path d="m48.14-64.69-2.92-1.68-2.7-1.51-2.51-1.35-2.29-1.18-2.11-1.02-2.03-.93-2.04-.87-2.12-.82-2.2-.79-2.28-.73-2.36-.67-2.44-.6-2.53-.53-2.61-.46-2.67-.4-2.68-.32L7-78.81l-2.61-.18-2.56-.12-2.5-.04-2.47.01-2.52.09-2.8.17-3.42.27-4.02.4" filter="url(#a)"/><path d="m42.44-67.9.49-1.59-2.06-1.16-1.65-.96-1.36-.86-1.5-.84-1.71-.81-1.84-.78-1.97-.74-2.17-.66-2.46-.59-2.73-.52-3-.45-3.25-.39-3.47-.32-3.64-.25L6.36-79l-3.8-.11-3.83-.05-3.92.02-4.19.09-4.84.17-5.99.27-6.67.4" filter="url(#a)"/><path d="m39.01-70.05.09-.81-.91-.91-1.24-.93-1.52-.91-1.82-.85-2.13-.79-2.43-.72-2.7-.64-2.93-.57-3.13-.49-3.31-.41-3.42-.32-3.49-.25-3.51-.18-3.5-.1-3.52-.04-3.59.04-3.75.11-3.98.17-4.27.23-4.56.29-4.79.35-4.94.41-5.03.48-5.09.55-5.17.64-5.27.74-5.37.83-5.43.93-5.44 1.02-5.36 1.07-5.11 1.1-4.71 1.09-4.24.6" filter="url(#a)"/><path d="m15.5-77.81-2.21-.38-2.83-.36-2.71-.27-2.51-.17-2.32-.1-2.15-.04-1.98.03-1.85.1-1.72.16-1.59.23-1.47.3-1.3.36-1.14.43-1.01.52-.97.6-1.07.69-1.27.78-1.46.85-1.51.92-1.24.95-.55.97.44.98 1.4 1.02 1.82 1.07 1.31 1.12-.4 1.17" filter="url(#a)"/><path d="m14.38-78.26-2.1-.22-2.12-.21-2.5-.2-2.77-.15-2.8-.07-2.72.01-2.67.09-2.7.15-2.77.22-2.86.27-2.94.33-3 .39-3.04.46-3.11.52-3.21.61-3.38.7-3.59.79-3.84.87-4.08.95-4.27 1.02-4.39 1.08-4.39 1.15-4.3 1.19-4.08 1.26-3.77 1.31-3.45 1.36-3.21 1.43-3.14 1.5-3.24 1.55-3.34 1.59-3.31 1.59-3.36 1.62-4.15 1.97-6.25 3.21" filter="url(#a)"/></g><g fill="none" stroke="#000"><circle cx="12.188" cy="11.338" r="2.89" filter="url(#a)"/><circle cx="11.964" cy="10.786" r="2.652" filter="url(#a)"/><circle cx="13.16" cy="9.642" r="1.788" filter="url(#a)"/><circle cx="12.844" cy="10.402" r="2.528" filter="url(#a)"/><circle cx="11.856" cy="10.122" r="1.676" filter="url(#a)"/><circle cx="14.596" cy="10.702" r="2.066" filter="url(#a)"/><circle cx="14.5" cy="10.754" r="1.56" filter="url(#a)"/><circle cx="12.016" cy="9.746" r="2.796" filter="url(#a)"/><circle cx="13.228" cy="12.51" r="2.16" filter="url(#a)"/><circle cx="11.716" cy="10.134" r="2.284" filter="url(#a)"/><circle cx="-9.316" cy="20.82" r="1.916" filter="url(#a)"/><circle cx="-10.54" cy="19.928" r="1.698" filter="url(#a)"/><circle cx="-12.44" cy="21.012" r="1.368" filter="url(#a)"/><circle cx="-10.888" cy="18.804" r="1.106" filter="url(#a)"/><circle cx="-11.36" cy="20.636" r="2.316" filter="url(#a)"/><circle cx="-11.596" cy="17.656" r="1.438" filter="url(#a)"/><circle cx="-12.284" cy="20.86" r="2.662" filter="url(#a)"/><circle cx="-12.72" cy="20.7" r="2.192" filter="url(#a)"/><circle cx="-10.412" cy="20.104" r="2.294" filter="url(#a)"/><circle cx="-10.128" cy="17.388" r="2.208" filter="url(#a)"/></g><path fill="#D77F8C" stroke="#000" stroke-linejoin="round" stroke-width="3" d="m18.33 63.06-.6.71.28-.03-.35.53.19-.3-.37.28-.11.23-1.02.92-.6.44-.48.22.14-.05.26-.03-1.75.76.03.03-1.01.27.25-.13-1.41.36 1-.12-.91.17-1.62.37-.45.08-1.73.08H9l-1.55.12-.16.06-2.37.09-1.16-.08-.68.04.85-.05-2.78-.05 1.71.07-2.42-.12.49.01-1.78-.11-2.83-.3-1.34-.18 1.1.18-1.99-.28-.83-.15-2.06-.37-.9-.16-1.15-.24.41.1.24.04-1.81-.39-1.78-.42-1.41-.35-2.72-.74 1.36.39.11.03-3.07-.89-1.03-.32.71.22-3.38-1.09-.37-.14-1.25-.45.48.19-2.92-1.11.4.15-.83-.35-3.09-1.27.97.41.07.01-1.11-.46-1.72-.81-2.01-1-.07-.02-.29-.16-1.74-.91-1.61-.91 1.5.86-1.65-.93-.61-.41-.43-.3-.33-.19-2.68-1.84 1.53 1.06-1.71-1.13-1.4-1.09-.5-.46.53.34-.96-.69-.35-.33-.77-.76-1.03-1.3-.08.18-.43-.7.64.73-.94-1.19-.09-.16-.49-.62-.47-.75.14.15.01-.25-.4-1.22-.09.2v-.87l-.18-.44.08-.98.17.15-.12.08.29-.55.07-.74.29-.05.1-.23.47-.85-.34.61 1.04-1.04.44-.36.27-.17.09.01.76-.37-.27.13.83-.34.56-.3.17-.08 1.99-.4.04-.1.33-.13 1.61-.14-.24.01-.44.06 2.92-.39-.17.11.5-.13.19.04 1.88-.06 1.86.06.95-.03.21.05.17-.03.18.04-.09-.03 2.05.19.99.03.57.1 3.04.35.66.14-1.23-.23 3.53.6 1.92.35-1.83-.34.84.14 1.78.36 3.62.85-.81-.21 1.7.42.42.12 1.39.37-.42-.11 3.34.97.39.12-.73-.22.64.19 3.01.99-.94-.32 2.88 1.02 2.46.93-1.42-.54.24.08 4.22 1.72.74.36.14.05 1.89.87.02.01.65.37.79.36L6 49.09l-.14-.1.34.18.78.46 2.19 1.34.62.44-1.36-.87 2.05 1.27-.26-.06 2.17 1.46-1.66-1.11 2.82 2.16h-.05l.83.76-.15-.33 1.08 1.16.53.61-.46-.66.21.39 1.48 1.68-.35-.54-.14.09 1.03 1.7-.11-.36.14.17-.05.12.47 1.23.42.99-.13.1.04.15-.01.75.05-.21-.11 1.21" filter="url(#a)"/></svg>