<svg xmlns="http://www.w3.org/2000/svg" width="500" height="500" viewBox="-100 -100 200 200"><defs><clipPath id="c"><path d="m27.73-11.02-.48-.09-.5-.09-.52-.09-.53-.09-.56-.09-.57-.08-.58-.09-.59-.08-.61-.08-.61-.09-.63-.08-.63-.07-.64-.08-.65-.08-.65-.07-.8-.08-.8-.08-.8-.08-.81-.08-.8-.08-.8-.08-.8-.08-.79-.07-.79-.08-.79-.07-.78-.07-.78-.07-.77-.06-.77-.06-.76-.06-.76-.06-.75-.05-.75-.05-.73-.05-.74-.04-.73-.03-.72-.04-.71-.02-.71-.03-.7-.01-.7-.02-.68-.01H-2.9l-.67.01-.66.01-.65.02-.65.02-.64.03-.63.03-.62.04-.61.04-.61.05-.59.05-.59.06-.58.06-.57.07-.56.06-.55.08-.54.07-.52.08-.52.08-.51.09-.49.09-.48.08-.47.1-.46.09-.46.1-.44.1-.44.1-.42.11-.42.1-.4.11-.39.12-.39.11-.37.12-.36.12-.35.11-.35.13.62 8.24.37.43.38.44.38.44.4.46.4.45.42.46.42.47.44.47.44.48.45.48.46.48.46.49.48.48.48.49.48.49.5.5.51.49.52.5.53.5.54.5.54.5.55.49.56.48.56.48.58.47.57.46.59.45.59.43.59.42.6.4.6.38.61.36.62.34.61.32.63.29.63.27.63.23.64.21.64.17.65.15.65.11.66.07.67.04h.67l.68-.03.69-.07.69-.12.7-.15.71-.19.71-.23.73-.27.73-.31.74-.35.74-.39.76-.43.76-.47.78-.5.78-.54.78-.57.8-.61.8-.63.8-.67.81-.69.82-.71.64-.5.64-.51.64-.53.63-.53.63-.54.62-.55.61-.55.6-.56.6-.56.58-.56.57-.56.55-.55.54-.55.52-.54.49-.52"/></clipPath><clipPath id="b"><path d="m-26.96-11.28.3-.08.32-.08.34-.08.35-.08.37-.08.38-.08.39-.07.41-.08.42-.07.43-.08.44-.07.45-.08.46-.07.48-.07.48-.07.55-.07.57-.08.58-.07.58-.07.6-.08.6-.07.61-.08.63-.07.63-.07.64-.07.65-.07.65-.07.67-.07.67-.06.69-.06.69-.06.7-.06.71-.05.71-.05.72-.05.73-.04.74-.04.74-.04.75-.03.75-.02.76-.03.76-.01.77-.02h.77l.77-.01h.78l.77.01.78.01.77.02.78.02.77.02.78.03.76.03.77.04.76.04.75.04.75.05.74.06.73.05.72.06.72.06.7.06.69.07.68.07.67.06.65.07.65.08.63.07.63.08.62.08.61.08.59.08.59.09.57.08.56.09.55.09.54.08.52.09.51.09.78 8.2-.35.41-.37.43-.37.43-.39.43-.39.45-.4.45-.41.46-.42.47-.43.47-.43.48-.44.49-.45.49-.45.49-.46.5-.46.5-.48.5-.48.52-.49.51-.5.52-.5.53-.51.52-.52.52-.52.52-.52.52-.53.51-.53.5-.53.5-.53.48-.54.48-.54.46-.55.44-.54.43-.55.41-.55.39-.55.36-.56.34-.56.31-.57.29-.57.25-.58.23-.58.19-.59.15-.59.12-.61.08-.61.04H.2l-.63-.04-.64-.09-.66-.13-.66-.17-.68-.22-.69-.26-.71-.31-.72-.35-.73-.4-.76-.45-.76-.49-.78-.53-.8-.57-.82-.62-.82-.65-.85-.69-.85-.73-.87-.76-.66-.5-.66-.53-.66-.53-.66-.55-.66-.56-.66-.57-.65-.58-.65-.59-.64-.59-.63-.59-.62-.6-.62-.59-.59-.59-.58-.58-.57-.57"/></clipPath><filter id="a"><feTurbulence baseFrequency=".05" numOctaves="3" result="noise" type="noise"/><feDisplacementMap in="SourceGraphic" in2="noise" scale="2"/></filter></defs><rect width="100%" height="100%" x="-100" y="-100" fill="#BC8F8F"/><path fill="wheat" stroke="#000" stroke-linejoin="round" stroke-width="1.667" d="m66.24 1.01.21 1.14-.18.09.12.9-.27.82.13 2.39-.19.08-.09 1.96-.27 3.87-.1-.26v-.63l-.28 3.06.04-.85-.38 1.05-.49 4.26.21-1.87-.53 2.89-.2.2.12.73-.67 2.22-.11.31-.54 1.6-.22 1.57-.41.43-.66 2.5.45-.9-1.11 2.76-.75 1.75.1.17-.52.91-.5 1.74-.74 1.23.48-1.02-1.69 3.9-.36.29-.17.54-.52 1.02-.36.02-.78 1.94-1.05 1.84-.93 1.22-.56 1.35-.71.71.08.13-1.11 1.71-.23.14-.8.88-.26.37-1.72 2.15-.09.16-.31.62-1.77 1.87.65-.77-2.12 2.28-.22-.04.14.02-2.14 2.28-.5.63-1.24 1.12-.06-.1-1.94 1.87.61-.97-1.72 1.74-.39.33-.53.55-1.56 1.07-.93.92-1.57.52.6-.25-2.75 1.9.68-.67-.12.34-1.49.61-.68.64-2.05 1.19-1.1.38-.7.36-.26.15-.96.22-.87.81-1.83.68-.43-.01-.8.04-1.92.82-.65.16-2.24.83.11-.13-1.4.24-.55.18-2.52.8.39-.23-1.5.12-1.33.36-.13.04.21-.07-1.81.37-1.63.12-1.32-.23-.94.4-.67-.32-2.47.33.59-.11-1.46.08.14-.09-2.8-.23-1.05-.24.69.18-2.9-.21-1.43-.25-.3-.02-.95-.29-.76.11-.39-.33-2.17-.64-1.54-.4.01.13-1.11-.35-1.04-.39-.55.05-1.8-.6-.75-.66-1.73-.52-.48-.17-.86-.41.05.26-2.09-1.3-.5-.07-1.58-.7.07-.19-1.08-.79-.86-.45-1.6-.87-.51-.21-1.71-1.22-.76-.32.62.19-2.13-1.61-.66-.28-.63-.52-1.15-1.09-.34-.41-2.26-1.75-1.18-1.34 1.51 1.73-1.4-1.51-1.05-.88.05-.14-.99-.87-1.81-2-1.16-1.29.29.08-1.95-2.08.63.54-.78-.98-.96-1.17-1.1-1.07-.1-.61-.07.4-2.01-3.45-.64-.94-.77-1.55.11.22-1.34-2.29-.12.43.51.09-1.29-2.28-.05-.14-1.55-3.02-.35.17-.05-.95-1.14-2.84-.2.38-.22-1.1-.61-1.65-.4-.65-.34-1.08-.69-1.45.15-.35-.56-1.64-.53-1.49-.51-2.21.47 1.5-1.02-3.59.2.22-.5-1.41-.25-1.09-.49-2.42.43.89-.48-2.07-.41-2.41.19.38-.47-2.21-.05-1.7-.27-.4.03.32.1-2.78-.08-.39-.08-2.11-.3-.82.07-1.15.06-2.7-.18-.18.09-.2.12-2.67.16-.53.08-3.63.06-.7.18.43-.07-1.23-.02-.89.36-2.05.05-.87.01-.06.56-3.27.13.42.6-3.26-.08.28.17-1 .28-1.13.61-1.6-.23.31.33-1.73.8-2.45.18.12.69-2.36.8-2.28-.4.28.86-1.35-.21.37.73-2.13.79-1.16.85-2.6-.07.44.29-.71.65-1.92.79-1.15 1.07-2.15.2.02-.27.47 1.75-2.78.16-.35.98-1.95-.79 1.84 1.19-1.88 1.8-2.93.82-.88.53-.75.67-1.24.9-1.15.83-.71-.22.39.58-.32.99-1.66.65-.82.13-.13 2.61-2.59-.35.22 1.97-1.62-.07.01 1-.9.6-.46-.42.11 2.41-1.52-.97.61 1.11-.89 1.22-.84 1.7-1.06-.44.04 2.42-1.68.92-.68 1.79-.74-.84-.02.14.17 1.84-.88 1.92-1.06-.88.26 2.1-1.13.76-.06 2.14-1.02-.09.18 1.46-.56.78-.58 1.34-.31-.1.1 3.53-1.27-1.93.9 2.09-.71 1.89-.41-1.6.37 2.02-.67 2.47-.41-.51-.01 2.79-.2-1.08.14 1.31-.16 2.34-.4.66-.23.33-.07 1.08.07 1.34.16 3.18-.26-.8-.07 2.78.06.86.3-1.57.02 3.06.04H7.2l1.25.36-.31-.2 1.42.45 1.18.1-.48-.13 3.6.82-.23-.07.72.32 2.48.75-.53-.25 2.15.69.7.04-.41.15.94.16 1.18.46 1.69 1.01-1.01-.67 3.05 1.33 1.72.72.12.09 1.35.76.82.46.27.22 1.72.92.46.39-.52-.07 2.96 1.78.36.23 1.23.85.22.33 1.13.54.34.17L38-64.3l.62.33.87 1.01 1.58 1.24.84.9-.53-.73 2.14 2.21.98 1.33.86.73 1.44 1.42-1.59-1.4 1.81 2.17.4.52-.13-.73 1.6 2.28.64 1 .86.92 1.82 2.76.13.23.6.69-1.07-1.13 1.43 1.88.51 1 1 1.9 1.39 2.06-.72-1.12 1.43 2.55.71 1.43.41.75.37.96.22.62.2.66.59.83 1.21 2.5.08.77.58 1.36-.39-1.17 1.08 3.26.01.01.37 1.7.69 2.13-.15-.34.82 2.05.08 1.32.66 2.76-.22-1.13.52 2.16.36 2.31-.1.74.08-.88.49 2.26-.01.65.12 1.52.25 1.18-.02 1.75.16.95.17 1.74-.13.3.36 2.39L66.4-.7l.09.22-.25 1.49.21 1.14" filter="url(#a)"/><path fill="#fff" d="m-26.96-11.28.3-.08.32-.08.34-.08.35-.08.37-.08.38-.08.39-.07.41-.08.42-.07.43-.08.44-.07.45-.08.46-.07.48-.07.48-.07.55-.07.57-.08.58-.07.58-.07.6-.08.6-.07.61-.08.63-.07.63-.07.64-.07.65-.07.65-.07.67-.07.67-.06.69-.06.69-.06.7-.06.71-.05.71-.05.72-.05.73-.04.74-.04.74-.04.75-.03.75-.02.76-.03.76-.01.77-.02h.77l.77-.01h.78l.77.01.78.01.77.02.78.02.77.02.78.03.76.03.77.04.76.04.75.04.75.05.74.06.73.05.72.06.72.06.7.06.69.07.68.07.67.06.65.07.65.08.63.07.63.08.62.08.61.08.59.08.59.09.57.08.56.09.55.09.54.08.52.09.51.09.78 8.2-.35.41-.37.43-.37.43-.39.43-.39.45-.4.45-.41.46-.42.47-.43.47-.43.48-.44.49-.45.49-.45.49-.46.5-.46.5-.48.5-.48.52-.49.51-.5.52-.5.53-.51.52-.52.52-.52.52-.52.52-.53.51-.53.5-.53.5-.53.48-.54.48-.54.46-.55.44-.54.43-.55.41-.55.39-.55.36-.56.34-.56.31-.57.29-.57.25-.58.23-.58.19-.59.15-.59.12-.61.08-.61.04H.2l-.63-.04-.64-.09-.66-.13-.66-.17-.68-.22-.69-.26-.71-.31-.72-.35-.73-.4-.76-.45-.76-.49-.78-.53-.8-.57-.82-.62-.82-.65-.85-.69-.85-.73-.87-.76-.66-.5-.66-.53-.66-.53-.66-.55-.66-.56-.66-.57-.65-.58-.65-.59-.64-.59-.63-.59-.62-.6-.62-.59-.59-.59-.58-.58-.57-.57" filter="url(#a)" transform="translate(41.93 -22.35)"/><path fill="#fff" d="m27.73-11.02-.48-.09-.5-.09-.52-.09-.53-.09-.56-.09-.57-.08-.58-.09-.59-.08-.61-.08-.61-.09-.63-.08-.63-.07-.64-.08-.65-.08-.65-.07-.8-.08-.8-.08-.8-.08-.81-.08-.8-.08-.8-.08-.8-.08-.79-.07-.79-.08-.79-.07-.78-.07-.78-.07-.77-.06-.77-.06-.76-.06-.76-.06-.75-.05-.75-.05-.73-.05-.74-.04-.73-.03-.72-.04-.71-.02-.71-.03-.7-.01-.7-.02-.68-.01H-2.9l-.67.01-.66.01-.65.02-.65.02-.64.03-.63.03-.62.04-.61.04-.61.05-.59.05-.59.06-.58.06-.57.07-.56.06-.55.08-.54.07-.52.08-.52.08-.51.09-.49.09-.48.08-.47.1-.46.09-.46.1-.44.1-.44.1-.42.11-.42.1-.4.11-.39.12-.39.11-.37.12-.36.12-.35.11-.35.13.62 8.24.37.43.38.44.38.44.4.46.4.45.42.46.42.47.44.47.44.48.45.48.46.48.46.49.48.48.48.49.48.49.5.5.51.49.52.5.53.5.54.5.54.5.55.49.56.48.56.48.58.47.57.46.59.45.59.43.59.42.6.4.6.38.61.36.62.34.61.32.63.29.63.27.63.23.64.21.64.17.65.15.65.11.66.07.67.04h.67l.68-.03.69-.07.69-.12.7-.15.71-.19.71-.23.73-.27.73-.31.74-.35.74-.39.76-.43.76-.47.78-.5.78-.54.78-.57.8-.61.8-.63.8-.67.81-.69.82-.71.64-.5.64-.51.64-.53.63-.53.63-.54.62-.55.61-.55.6-.56.6-.56.58-.56.57-.56.55-.55.54-.55.52-.54.49-.52" filter="url(#a)" transform="translate(-39.84 -19.22)"/><g fill="none" stroke="#000" transform="translate(41.93 -22.35)"><path stroke-linejoin="round" stroke-width="1.667" d="m-28.85-10.38.08-.1.1-.09.14-.1.16-.09.18-.09.2-.09.23-.09.25-.08.26-.09.29-.08.3-.08.32-.08.34-.08.35-.08.37-.08.38-.08.39-.07.41-.08.42-.07.43-.08.44-.07.45-.08.46-.07.48-.07.48-.07.55-.07.57-.08.58-.07.58-.07.6-.08.6-.07.61-.08.63-.07.63-.07.64-.07.65-.07.65-.07.67-.07.67-.06.69-.06.69-.06.7-.06.71-.05.71-.05.72-.05.73-.04.74-.04.74-.04.75-.03.75-.02.76-.03.76-.01.77-.02h.77l.77-.01h.78l.77.01.78.01.77.02.78.02.77.02.78.03.76.03.77.04.76.04.75.04.75.05.74.06.73.05.72.06.72.06.7.06.69.07.68.07.67.06.65.07.65.08.63.07.63.08.62.08.61.08.59.08.59.09.57.08.56.09.55.09.54.08.52.09.51.09.5.1.48.09.48.09.45.09.45.1.43.09.42.1.41.09.39.1.38.09" filter="url(#a)"/><path stroke-linejoin="round" stroke-width="2.222" d="m-26.84-5.65.24.28.29.32.33.37.37.41.4.44.44.47.47.5.5.52.52.54.54.55.57.57.58.58.59.59.62.59.62.6.63.59.64.59.65.59.65.58.66.57.66.56.66.55.66.53.66.53.66.5.87.76.85.73.85.69.82.65.82.62.8.57.78.53.76.49.76.45.73.4.72.35.71.31.69.26.68.22.66.17.66.13.64.09.63.04h.62l.61-.04.61-.08.59-.12.59-.15.58-.19.58-.23.57-.25.57-.29.56-.31.56-.34.55-.36.55-.39.55-.41.54-.43.55-.44.54-.46.54-.48.53-.48.53-.5.53-.5.53-.51.52-.52.52-.52.52-.52.51-.52.5-.53.5-.52.49-.51.48-.52.48-.5.46-.5.46-.5.45-.49.45-.49.44-.49.43-.48.43-.47.42-.47.41-.46.4-.45.39-.45.39-.43.37-.43.37-.43.35-.41.34-.41.34-.4.32-.38.32-.39.3-.37.29-.36.28-.36.27-.34.26-.34.25-.33" filter="url(#a)"/><circle cx="-13.319" cy="-7.313" r="3.552" clip-path="url(#b)" filter="url(#a)"/><circle cx="-11.659" cy="-8.528" r="3.376" clip-path="url(#b)" filter="url(#a)"/><circle cx="-13.584" cy="-9.123" r="3.256" clip-path="url(#b)" filter="url(#a)"/><circle cx="-12.444" cy="-8.173" r="3.486" clip-path="url(#b)" filter="url(#a)"/><circle cx="-13.154" cy="-7.858" r="4.71" clip-path="url(#b)" filter="url(#a)"/><circle cx="-12.744" cy="-8.553" r="3.486" clip-path="url(#b)" filter="url(#a)"/><circle cx="-11.124" cy="-5.418" r="4.054" clip-path="url(#b)" filter="url(#a)"/><circle cx="-11.029" cy="-7.628" r="3.246" clip-path="url(#b)" filter="url(#a)"/><circle cx="-9.044" cy="-8.173" r="4.542" clip-path="url(#b)" filter="url(#a)"/><circle cx="-11.199" cy="-5.318" r="4.74" clip-path="url(#b)" filter="url(#a)"/></g><g fill="none" stroke="#000" transform="translate(-39.84 -19.22)"><path stroke-linejoin="round" stroke-width="2.222" d="m30.93-10.01-.16-.11-.2-.11-.24-.1-.28-.1-.31-.11-.34-.1-.38-.09-.4-.1-.43-.1-.46-.09-.48-.09-.5-.09-.52-.09-.53-.09-.56-.09-.57-.08-.58-.09-.59-.08-.61-.08-.61-.09-.63-.08-.63-.07-.64-.08-.65-.08-.65-.07-.8-.08-.8-.08-.8-.08-.81-.08-.8-.08-.8-.08-.8-.08-.79-.07-.79-.08-.79-.07-.78-.07-.78-.07-.77-.06-.77-.06-.76-.06-.76-.06-.75-.05-.75-.05-.73-.05-.74-.04-.73-.03-.72-.04-.71-.02-.71-.03-.7-.01-.7-.02-.68-.01H-2.9l-.67.01-.66.01-.65.02-.65.02-.64.03-.63.03-.62.04-.61.04-.61.05-.59.05-.59.06-.58.06-.57.07-.56.06-.55.08-.54.07-.52.08-.52.08-.51.09-.49.09-.48.08-.47.1-.46.09-.46.1-.44.1-.44.1-.42.11-.42.1-.4.11-.39.12-.39.11-.37.12-.36.12-.35.11-.35.13-.32.12-.32.12-.31.13-.3.13-.28.12-.28.13-.26.13-.26.14-.24.13-.24.13m54.42 3.89-.18.26-.22.3-.26.34-.3.37-.33.4-.37.43-.4.46-.43.48-.45.49-.48.52-.49.52-.52.54-.54.55-.55.55-.57.56-.58.56-.6.56-.6.56-.61.55-.62.55-.63.54-.63.53-.64.53-.64.51-.64.5-.82.71-.81.69-.8.67-.8.63-.8.61-.78.57-.78.54-.78.5-.76.47-.76.43-.74.39-.74.35-.73.31-.73.27-.71.23-.71.19-.7.15-.69.12-.69.07-.68.03h-.67l-.67-.04-.66-.07-.65-.11-.65-.15-.64-.17-.64-.21-.63-.23-.63-.27-.63-.29-.61-.32-.62-.34-.61-.36-.6-.38-.6-.4-.59-.42-.59-.43-.59-.45-.57-.46-.58-.47-.56-.48-.56-.48-.55-.49-.54-.5-.54-.5-.53-.5-.52-.5-.51-.49-.5-.5-.48-.49-.48-.49-.48-.48-.46-.49-.46-.48-.45-.48-.44-.48-.44-.47-.42-.47-.42-.46-.4-.45-.4-.46-.38-.44-.38-.44-.37-.43-.35-.42-.35-.41-.33-.41-.33-.4-.31-.39-.31-.39-.29-.37-.28-.37-.27-.36-.27-.35" filter="url(#a)"/><circle cx="21.463" cy="-2.839" r="4.72" clip-path="url(#c)" filter="url(#a)"/><circle cx="24.433" cy="-5.634" r="3.28" clip-path="url(#c)" filter="url(#a)"/><circle cx="20.758" cy="-2.839" r="3.942" clip-path="url(#c)" filter="url(#a)"/><circle cx="22.933" cy="-2.209" r="4.602" clip-path="url(#c)" filter="url(#a)"/><circle cx="20.178" cy="-1.379" r="4.748" clip-path="url(#c)" filter="url(#a)"/><circle cx="20.543" cy="-3.939" r="4.926" clip-path="url(#c)" filter="url(#a)"/><circle cx="22.048" cy="-4.309" r="3.306" clip-path="url(#c)" filter="url(#a)"/><circle cx="21.473" cy="-3.179" r="3.616" clip-path="url(#c)" filter="url(#a)"/><circle cx="20.308" cy="-5.719" r="4.938" clip-path="url(#c)" filter="url(#a)"/><circle cx="21.788" cy="-3.244" r="4.07" clip-path="url(#c)" filter="url(#a)"/></g><g fill="none" stroke="#800020" stroke-linejoin="round" stroke-width="2"><path d="m1.53-78.51 1.3.08 1.46.16 1.76.21 1.84.3 1.82.36 1.71.43 1.6.49 1.53.53 1.53.61 1.58.67 1.66.74 1.75.82 1.79.86 1.74.92 1.61.97 1.42 1.02 1.23 1.07 1.07 1.12.98 1.19.94 1.25.97 1.35 1.01 1.49 1.04 1.7 1.15 2.04 1.8 2.27M-4.4-78.41l-2.23.43-1.92.32-2 .35-1.97.38-1.87.42-1.87.47-1.92.56-2 .64-2.03.74-2.03.82-2.01.9-2.01.95-2.02 1.02-2.08 1.07-2.13 1.13-2.17 1.18-2.18 1.19-2.17 1.2-2.2 1.24-2.31 1.36-2.48 1.6-2.82 1.99" filter="url(#a)"/><path d="m-5.06-78.18-2.94.4-2.56.34-2.69.4-2.69.48-2.56.55-2.57.61-2.79.68-3.06.75-3.22.81-3.2.88-3.09.95-3.01 1.02-3.07 1.08-3.23 1.12-3.45 1.16-3.58 1.17-3.59 1.19-3.44 1.22-3.22 1.27-2.97 1.33-2.81 1.43-2.8 1.52-2.94 1.6-3.18 1.68-3.47 1.74-3.74 1.81-4.02 1.87-4.33 1.91-4.61 1.97-4.7 2.01-4.47 2.06-4.09 2.05-3.83 2.06-3.86 2.69" filter="url(#a)"/><path d="m-7.4-77.78-1.05.14-1.96.35-2 .4-1.86.43-1.8.5-1.84.59-1.9.69-1.93.78-1.94.86-1.91.93-1.88 1-1.84 1.06-1.79 1.12-1.76 1.17-1.73 1.21-1.69 1.26-1.66 1.31-1.61 1.36-1.58 1.41-1.53 1.46-1.49 1.52-1.44 1.58-1.4 1.65-1.39 1.74-1.38 1.82-1.36 1.9-1.32 1.94-1.28 1.96-1.2 1.96-1.13 1.98-1.08 2.07-1.04 2.18-1.01 2.25-.96 2.2-.82 1.96-.54 1.78" filter="url(#a)"/><path d="m-8.71-77.62-1.72.18-1.92.37-2.32.49-2.48.56-2.38.61-2.2.67-2.1.75-2.04.81-1.99.88-1.97.95-1.95 1.01-1.96 1.08-1.98 1.13-1.99 1.16-2 1.17-2.04 1.18-2.12 1.2-2.24 1.25-2.42 1.32-2.57 1.42-2.72 1.52-2.8 1.59-2.85 1.67-2.82 1.74-2.79 1.81-2.8 1.86-2.93 1.89-3.12 1.95-3.05 2.06-2.6 2.28-2.54 2.66" filter="url(#a)"/><path d="m-7.63-77.76-2.74.4-2.85.45-2.41.42-2.08.46-2.07.56-2.37.67-2.88.77-3.44.84-3.92.91-4.21.97-4.27 1.03-4.14 1.09-3.91 1.14-3.63 1.18-3.35 1.21-3.14 1.25-3.03 1.3-3.03 1.39-3.12 1.47-3.33 1.51-3.66 1.47-3.94 1.27-3.82.8" filter="url(#a)"/><path d="m-7.63-77.76-3.82.41-3.45.45-2.47.43-1.7.49-1.45.59-1.65.69-2.1.79-2.65.87-3.11.94-3.33 1-3.26 1.06-2.99 1.12-2.7 1.17-2.56 1.21-2.71 1.26-3.11 1.31-3.61 1.36-4.05 1.41-4.3 1.47-4.35 1.51-4.29 1.58-4.29 1.65-4.43 1.74-4.7 1.82-5.01 1.9-5.15 1.95-4.99 1.95-4.53 1.96-3.97 1.98-3.65 2.07-3.87 2.17-4.4 2.26-4.54 2.19-3.51 1.96-.09 1.78" filter="url(#a)"/><path d="m-9.91-77.55-3.22.69-2.36.39-2.81.44-3.66.57-4.17.68-4.05.78-3.55.86-3.07.93-2.96.99-3.21 1.04-3.64 1.1-4.06 1.15-4.32 1.19-4.35 1.23-4.22 1.27-3.94 1.32-3.65 1.39-3.45 1.44-3.59 1.47-4.1 1.47-4.84 1.48-5.5 1.54-6.27 1.8-8.06 2.37-12.38 3.59" filter="url(#a)"/><path d="m-12.38-77.14-2.09.5-3.07.6-3.41.61-3.56.66-3.21.73-2.56.81-1.98.88-1.77.93-1.99 1.01-2.47 1.07-3.05 1.14-3.51 1.17-3.76 1.17-3.8 1.14-3.75 1.14-3.75 1.18-3.96 1.28-4.41 1.4-4.91 1.52-5.1 1.56-4.84 1.57-4.47 1.69-4.63 2.13-4.14 3" filter="url(#a)"/><path d="m-14.4-76.47-.52.07-1.29.36-1.92.58-2.41.72-2.82.82-3.05.89-3 .95-2.74 1.02-2.43 1.07-2.23 1.13-2.23 1.17-2.39 1.23-2.68 1.27-3.03 1.31-3.34 1.37-3.53 1.42-3.52 1.47-3.28 1.53-2.86 1.6-2.38 1.66-2 1.75-1.84 1.83-1.96 1.89-2.33 1.94-2.79 1.96-3.22 1.99-3.42 2.02-3.37 2.07-3.12 2.13-2.85 2.17-2.77 2.18-2.94 2.17-3.11 2.21-2.99 2.37-2.65 2.53-3.34 2.07" filter="url(#a)"/><path d="m-12.8-76.84-3.55.84-2.34.61-2.2.66-2.31.75-2.31.84-2.18.91-2.06.97-2.05 1.03-2.13 1.11-2.25 1.15-2.31 1.17-2.3 1.19-2.28 1.2-2.31 1.23-2.48 1.29-2.71 1.37-2.96 1.45-3.08 1.54-2.98 1.62-2.71 1.7-2.34 1.76-2.06 1.83-1.97 1.87-2.09 1.93-2.32 1.98-2.49 2.01-2.48 2.05-2.28 2.08-1.98 2.11-1.78 2.17-1.8 2.24-2.08 2.34-2.44 2.43-2.74 2.41-3.07 2.26-4.42 2.32" filter="url(#a)"/><path d="m-14.69-76.43-1.18.25-2.14.65-2.65.77-2.99.83-3.03.89-2.78.97-2.49 1.02-2.37 1.08-2.43 1.13-2.61 1.18-2.77 1.22-2.86 1.27-2.86 1.32-2.79 1.37-2.64 1.43-2.41 1.47-2.13 1.54-1.85 1.59-1.66 1.67-1.65 1.76-1.84 1.83-2.22 1.89-2.68 1.94-3.09 1.97-3.38 1.99-3.49 2.02-3.45 2.07-3.34 2.13-3.18 2.16-3.05 2.19-2.93 2.19-2.92 2.23-3.13 2.32-3.34 2.39-2.83 2.27-1.53 2.01" filter="url(#a)"/><path d="m-18.28-75.45 2.18.75-2.11.77-2.31.88-2.09.97-1.86 1.03-1.51 1.08-1.09 1.14-.7 1.18-.47 1.23-.38 1.27-.35 1.32-.3 1.36-.18 1.43-.03 1.47.12 1.53.2 1.59.22 1.66.17 1.75.15 1.84.2 1.9.3 1.94.48 1.96.67 1.98.84 2.01 1.03 2.07 1.27 2.12 1.56 2.17 1.9 2.18 2.13 2.16 2.13 2.21 1.92 2.36 1.81 2.53 3.18 2.06m-10.42-53.59-2.82 1.02-2.94.96-2.87.94-2.77.95-2.52 1.02-2.3 1.12-2.23 1.17-2.22 1.2-2.18 1.19-2.08 1.18-1.97 1.2-1.89 1.26-1.9 1.34-1.98 1.45-2.09 1.54-2.21 1.62-2.36 1.69-2.58 1.76-2.86 1.82-3.18 1.87-3.47 1.92-3.61 1.96-3.6 2-3.51 2.04-3.42 2.06-3.4 2.07-3.28 2.08-2.97 2.12-3.03 2.33-4.91 3.36" filter="url(#a)"/><path d="m-21.77-74.18-2.4 1.04-2.05 1.07-1.87 1.06-1.79 1.08-1.77 1.14-1.76 1.2-1.72 1.24-1.69 1.28-1.65 1.32-1.61 1.38-1.57 1.44-1.52 1.48-1.47 1.55-1.43 1.6-1.39 1.68-1.38 1.77-1.36 1.84-1.34 1.9-1.32 1.95-1.26 1.97-1.22 2-1.15 2.03-1.1 2.08-1.04 2.12-.99 2.17-.93 2.19-.87 2.21-.81 2.25-.76 2.3-.7 2.33-.65 2.36-.59 2.37-.53 2.35-.48 2.21-.3 1.56" filter="url(#a)"/><path d="m-23.91-73.16-3.08 1.01-2.33.89-2.07.97-2.27 1.12-2.52 1.21-2.58 1.23-2.51 1.19-2.41 1.15-2.47 1.15-2.78 1.21-3.32 1.33-3.95 1.43-4.5 1.54-4.83 1.6-4.87 1.68-4.66 1.74-4.38 1.8-4.26 1.85-4.52 1.89-5.08 1.94-5.5 2.01-5.12 2.06-4.15 1.92-3.79 1.11" filter="url(#a)"/><path d="m-24.67-73.1-2.07 1.06-2.8 1.06-2.55 1.07-2.04 1.14-1.69 1.2-1.6 1.25-1.72 1.28-1.9 1.33-2.06 1.38-2.13 1.44-2.07 1.49-1.93 1.55-1.79 1.62-1.7 1.68-1.72 1.77-1.82 1.85-2 1.91-2.17 1.95-2.29 1.98-2.34 2-2.28 2.04-2.08 2.08-1.79 2.13-1.46 2.17-1.19 2.19-1.06 2.23-1.15 2.25-1.44 2.3-1.85 2.32-2.25 2.34-2.53 2.34-2.55 2.29-2.28 2.2-1.78 2.07-1.27 1.85-1.16 1.37" filter="url(#a)"/><path d="m-31.66-69.02-3.4 1.54-2.66 1.32-1.53 1.2-1.48 1.26-1.95 1.36-2.43 1.44-2.62 1.5-2.54 1.52-2.31 1.57-2.08 1.65-2.03 1.76-2.19 1.85-2.59 1.92-3.13 1.95-3.62 1.96-3.9 1.95-3.84 1.99-3.46 2.06-2.93 2.12-2.57 2.16-2.59 2.16-3.03 2.14-3.52 2.19-3.42 2.35-2.26 2.51-.54 2.04m68.62-47.47 2.1 1.54-2.27 1.31-2 1.21-.75 1.25.16 1.35.32 1.45-.16 1.49-.93 1.52-1.55 1.56-1.77 1.65-1.61 1.74-1.16 1.86-.54 1.92.14 1.95.76 1.95 1.16 1.94 1.25 1.98 1.05 2.05.75 2.13.54 2.17.46 2.15.38 2.09.31 2.12.62 2.47.77 3.33" filter="url(#a)"/><path d="m-35.34-66.32-.98 1.35 1.04.99 1.24.98.29 1.17-.74 1.39-1.29 1.55-1.3 1.62-1.02 1.68-.69 1.73-.51 1.78-.53 1.85-.67 1.89-.76 1.94-.65 1.98-.25 2.02.34 2.05 1.01 2.09 1.6 2.12 2.09 2.18 2.57 2.23 3.09 2.28 3.7 2.28 4.22 2.25 4.4 2.18 4.07 2.1 3.24 2.14 2.2 2.33 1.26 2.68 1.87 2.88m-28.84-55.71-2.16 1.35-2.1.99-3.02.98-4.57 1.17-5.65 1.39-5.71 1.55-4.94 1.62-3.91 1.68-2.99 1.73-2.35 1.78-1.99 1.85-1.83 1.89-1.81 1.94-1.9 1.98-2.04 2.02-2.21 2.05-2.41 2.09-2.65 2.12-3.07 2.18-3.77 2.23-4.74 2.28-5.8 2.28-6.52 2.25-6.42 2.18-5.29 2.1-3.71 2.14-3.09 2.33-4.5 2.68-5.83 2.88M-36.7-65.2l-2.45 1.39-2.85 1.49-2.76 1.57-2.64 1.57-2.46 1.56-2.14 1.6-1.81 1.68-1.61 1.8-1.56 1.9-1.59 1.96-1.57 1.98-1.5 2-1.43 2.01-1.43 2.06-1.51 2.09-1.68 2.14-1.82 2.18-1.9 2.21-1.89 2.23-1.77 2.27-1.64 2.28-1.52 2.31-1.43 2.3-1.4 2.29-1.39 2.28-1.4 2.25-1.4 2.26-1.39 2.29-1.39 2.34-1.43 2.41-1.42 2.47L-92.16.5l-.87 2.57-.27 2.56v2.26l-1.22 1.13M65.11-15.34l.13.88.27 1.98.24 2.37.19 2.52.13 2.51.07 2.44.02 2.34-.04 2.27-.09 2.27-.14 2.3-.19 2.33-.25 2.34-.3 2.34-.36 2.3-.41 2.27-.48 2.25-.53 2.24-.6 2.25-.66 2.25-.71 2.23-.75 2.17-.79 2.09-.83 2.04-.92 2.04-1.01 2.11-1.05 2.11-1.04 1.92m10.1-59.16.78.86 2.31 1.96 4.64 2.36 6.85 2.5 8.07 2.51 7.58 2.42 5.41 2.33 2.4 2.25-.29 2.25-1.67 2.27-1.38 2.32.27 2.34 2.48 2.34 4.21 2.29 4.68 2.26 3.71 2.2 1.84 2.21.06 2.24-.75 2.31-.45 2.32.32 2.24 1.66 2.15 6.6 2.31" filter="url(#a)"/><path d="m-38.69-63.79-2.04 1.45-1.89 1.61-1.75 1.6-1.89 1.55-2.11 1.57-2.15 1.67-1.97 1.8-1.69 1.92-1.41 1.97-1.23 1.99-1.12 1.99-1.09 2.02-1.1 2.04-1.15 2.1-1.21 2.14-1.28 2.18-1.37 2.2-1.47 2.24-1.56 2.26-1.64 2.29-1.63 2.3-1.55 2.31-1.33 2.29-1.07 2.27-.82 2.25-.64 2.26-.6 2.28-.66 2.34-.77 2.41-.9 2.47-.99 2.52-.96 2.58-.78 2.56-.76 2.25-1.41 1.13" filter="url(#a)"/><path d="m-40.29-62.43-2.25 1.71-1.99 1.66-1.58 1.54-1.36 1.53-1.24 1.65-1.21 1.8-1.24 1.93-1.27 1.99-1.28 2-1.28 1.99-1.25 2.01-1.22 2.04-1.15 2.1-1.07 2.14-.98 2.18-.91 2.21-.86 2.23-.83 2.26-.83 2.29-.83 2.3-.83 2.3-.79 2.29-.74 2.27-.63 2.25-.52 2.25-.4 2.29-.33 2.33-.28 2.41-.26 2.47-.22 2.52-.17 2.57-.08 2.56-.08 2.25-.16 1.13" filter="url(#a)"/><path d="m-40.22-62.44-1.73 1.72-1.78 1.9-1.49 1.72-1.28 1.63-1.2 1.68-1.18 1.77-1.21 1.84-1.21 1.9-1.18 1.92-1.1 1.96-.98 2-.86 2.03-.75 2.06-.71 2.09-.7 2.14-.74 2.21-.75 2.3-.73 2.35-.65 2.31-.5 2.12-.33 1.83-.05 1.26m21.11-42.74-1.93 1.75-2.69 1.92-4.01 1.75-4.87 1.67-4.55 1.72-3.56 1.81-2.72 1.88-2.42 1.93-2.58 1.97-2.87 2.01-3.03 2.04-2.93 2.08-2.6 2.12-2.16 2.16-1.82 2.2-1.72 2.23-1.87 2.26-2.21 2.26-2.56 2.25-2.84 2.24-3.01 2.24-3.12 2.26-3.2 2.28-3.28 2.32-3.22 2.34-3.02 2.36-2.72 2.4-2.51 2.46-2.52 2.5-2.75 2.5-3.19 2.45-3.87 2.36-4.4 2.28-3.41 2.16" filter="url(#a)"/><path d="m-42.19-60.82-2.51 1.87-1.32 1.49-1.24 1.45-1.45 1.58-1.75 1.79-2.07 1.94-2.38 2-2.59 2-2.61 1.96-2.43 1.97-2.13 2-1.85 2.07-1.74 2.13-1.87 2.16-2.17 2.18-2.52 2.21-2.81 2.23-2.93 2.28-2.87 2.31-2.71 2.32-2.51 2.31-2.32 2.26-2.1 2.18-1.62 2.03-.6 1.83 1.06 1.35" filter="url(#a)"/><path d="m-44.58-58.32-1.46 1.69-1.66 1.35-2.14 1.57-2.59 1.79-3.06 1.89-3.57 1.91-4.02 1.94-4.23 1.96-4.12 2.01-3.78 2.04-3.48 2.06-3.49 2.1-3.86 2.16-4.41 2.22-4.69 2.27-4.43 2.3-3.76 2.24-3.3 2.12-3.78 2.01-5.26 2.01-6.55 2.28-5.26 2.87" filter="url(#a)"/><path d="m-45.23-57.5-2.13 1.51-1.9 1.47-2.92 1.8-4.6 2.03-6.18 2.08-6.98 2.01-6.83 1.93-6.07 1.92-5.14 1.97-4.28 2.06-3.62 2.13-3.29 2.15-3.37 2.17-3.76 2.18-4.11 2.21-4.18 2.26-4.07 2.31-4.4 2.33-5.5 2.32-6.39 2.31-4.7 2.17 1.27 1.52m203.13-4.99.36 2.47.55 2.17.8 2.27.82 2.39.62 2.42.39 2.41.25 2.35.17 2.31.12 2.29.07 2.28.04 2.28.04 2.26.05 2.24.02 2.22-.06 2.22-.22 2.24-.42 2.25-.64 2.28-.82 2.29-.94 2.31-.97 2.3-.9 2.29-.81 2.25-.7 2.2-.64 2.14-.65 2.08-.7 2.02-.8 1.98-.88 1.92-.96 1.86-1.09 1.8-1.3 1.78-1.51 1.79-1.57 1.74-1.19 1.42-.36.59m-99.9-111.27-3.8 2.3-1.42 2.38-.8 2.05-.92 1.87-1.19 1.9-1.38 2.01-1.37 2.12-1.23 2.18-1.07 2.21-.96 2.22-.92 2.25-.91 2.27-.92 2.29-.94 2.3-.93 2.3-.91 2.29-.86 2.27-.78 2.27-.72 2.28-.65 2.31-.61 2.36-.59 2.41-.55 2.44-.51 2.47-.46 2.46-.44 2.42-.46 2.36-.5 2.29-.48 2.23-.4 2.16-.22 2.13.03 2.08.4 1.97.71 1.89" filter="url(#a)"/><path d="m-49.51-52.06-1.88 2.61-1.42 1.84-1.59 1.87-1.89 2-2.09 2.07-2.09 2.1-1.95 2.13-1.73 2.17-1.56 2.22-1.44 2.25-1.37 2.28-1.33 2.27-1.3 2.26-1.33 2.25-1.43 2.25-1.6 2.26-1.8 2.3-1.95 2.32-2.03 2.36-2.01 2.38-1.89 2.41-1.67 2.44-1.35 2.44-.95 2.45-.49 2.43-.06 2.4.19 2.41.17 2.42-.13 2.45-.6 2.49-.89 2.48-.74 2.42-.19 2.3.01 2.17-.49 2.43" filter="url(#a)"/><path d="M-52.53-48.21-55.42-46l-4.77 2.19-3.24 2.15-1.37 2.1-.81 2.09-1.31 2.13-2.16 2.19-2.83 2.25-3.11 2.27-3.06 2.27-2.88 2.23-2.82 2.2-3.04 2.19-3.61 2.22-4.43 2.27-5.18 2.3-5.47 2.32-5.01 2.33-3.91 2.37-2.74 2.44-2.27 2.51-2.76 2.5-3.62 2.42-3.82 2.33-1.69 2.35m74.12-48.94-.84 2.42-.63 2.31-.27 2.19.08 2.11.24 2.15.19 2.23.01 2.29-.14 2.32-.09 2.29.14 2.26.44 2.23.69 2.2.85 2.2.95 2.25 1.17 2.31 1.57 2.39 2.14 2.45 2.62 2.49 2.73 2.5 2.4 2.47 1.89 2.31 1.49 2.15 1.38 2.73m-19.01-53.25-3.67 2.43-2.37 2.32-1.94 2.19-1.07 2.12-.37 2.16-.16 2.24-.35 2.3-.67 2.32-.98 2.3-1.16 2.27-1.23 2.23-1.16 2.22-.98 2.22-.79 2.27-.67 2.33-.71 2.4-.88 2.44-1.09 2.48-1.18 2.47-1.05 2.43-.68 2.35-.27 2.25-.15 2.17-.49 2.03-1.53 1.52" filter="url(#a)"/><path d="m-58.15-37.69-6.15 2.3-2.27 2.21-.86 2.11-.15 2.17-.44 2.28-1.48 2.34-2.59 2.34-3.2 2.33-3.08 2.3-2.39 2.27-1.53 2.27-.83 2.29-.48 2.32-.52 2.38-.79 2.42-1.14 2.44-1.38 2.44-1.44 2.43-1.31 2.38-1.08 2.34-.83 2.29-.65 2.25-.54 2.22-.51 2.21-.51 2.22-.54 2.25-.58 2.27-.54 2.28-.42 2.29-.2 2.27.03 2.27.22 2.26.45 2.25.78 2.15.98 1.85.18 1.38-1.59 1.4M64.45-18.68l.79 1.55 1.24 1.97 1.08 2.1.51 2.24.06 2.35-.11 2.38-.08 2.38.05 2.34.18 2.3.26 2.28.3 2.27.26 2.26.17 2.25.06 2.23-.09 2.2-.22 2.19-.34 2.2-.47 2.23-.57 2.26-.64 2.28-.68 2.31-.67 2.33-.63 2.35-.58 2.31-.6 2.23-.66 2.06-.76 1.86-.84 1.89-1.11 2.74" filter="url(#a)"/><path d="m64.45-18.68.69 1.53 1.38 1.95 1.58 2.09 1.6 2.22 1.83 2.32 2.18 2.38 2.3 2.37 1.95 2.32L79.14.78l.36 2.26-.13 2.26-.14 2.25.25 2.25.78 2.2 1.22 2.17 1.42 2.15 1.41 2.18 1.3 2.21 1.2 2.25 1.18 2.24 1.2 2.24 1.26 2.33 1.14 2.45.36 1.94M-58.93-35.53l-8.78 2.47-3.93 1.98-1.41 2.07.49 2.25.93 2.33.14 2.34-1.15 2.3-2.31 2.26-3.04 2.22-3.32 2.19-3.3 2.21-3.07 2.26-2.7 2.32-2.33 2.4-2.15 2.44-2.31 2.47-2.79 2.47-3.33 2.42-3.54 2.34-3.08 2.24-2.13 2.16-1.84 2.02-2.21 1.51" filter="url(#a)"/><path d="m-58.93-35.53-1.59 2.47-2.18 1.98-2.89 2.07-2.95 2.25-2.35 2.33-1.59 2.34-1.09 2.3-.94 2.26-.99 2.22-1.09 2.19-1.19 2.21-1.33 2.26-1.54 2.32-1.76 2.4-1.84 2.44-1.8 2.47-1.76 2.47-1.87 2.42-2.09 2.34-2.22 2.24-1.97 2.16-1.24 2.02.31 1.51" filter="url(#a)"/><path d="m-61.1-31.26-4.33 2.14-3.56 2.47-1.55 2.49-1.4 2.41-1.88 2.33-1.88 2.27-1.24 2.24-.46 2.24-.04 2.25-.2 2.32-.83 2.37-1.68 2.42-2.52 2.45-3.15 2.45-3.46 2.43-3.41 2.38-3.04 2.33-2.48 2.27-1.94 2.23-1.59 2.2-1.56 2.19-1.83 2.2-2.29 2.23-2.63 2.27-2.6 2.29-2 2.29-.92 2.25.14 2.23.7 2.27.72 2.44.6 2.62.88 2.52m51.03-72.49-.94 2.57-1.09 2.59-1.3 2.4-1.37 2.3-1.37 2.25-1.34 2.21-1.26 2.19-1.1 2.21-.85 2.28-.55 2.35-.27 2.41-.06 2.45.03 2.45-.01 2.44-.2 2.39-.45 2.32-.72 2.25-.88 2.18-.85 2.15-.62 2.12-.29 2.12v2.16l.14 2.29.05 2.47-.92 2.33" filter="url(#a)"/><path d="m-63.17-24.57-4.42 1.68-6 1.89-2.2 2.08.82 2.27 1.56 2.37.83 2.38-.49 2.37L-75-7.15l-3.22 2.41-4.07 2.44-4.24 2.45-3.65 2.43L-92.66 5l-1.1 2.4.07 2.4.66 2.41.49 2.42-.34 2.41-1.5 2.39-2.52 2.34-2.97 2.26-2.59 2.2-1.5 2.14-.12 2.1.94 2.08 1.29 2.07.96 2.04.45 2.06.17 2.15-1.22 2.27M63.79-21.44l1.04 2.2 1.31 2.32.91 2.21.6 2.28.5 2.38.51 2.46.57 2.47.63 2.43.65 2.37.61 2.34.51 2.32.39 2.33.29 2.34.24 2.35.2 2.34.18 2.32.1 2.3L73 20.6l-.22 2.27-.47 2.26-.72 2.23-.96 2.22-1.12 2.19-1.17 2.15-1.13 2.14-.97 2.13-.77 2.14-.6 2.13-.5 2.13-.51 2.07-.6 1.99-.72 1.85-.8 1.71-.85 1.56-.87 1.45-.97 1.44-1.76 1.78" filter="url(#a)"/><path d="m63.71-22.76.83 3.05.62 2.29.54 2.12.78 2.15 1.22 2.23 1.77 2.32 2.25 2.37 2.49 2.36 2.32 2.33L78.35.75l1.1 2.27.4 2.27-.08 2.26-.18 2.25.12 2.21.72 2.18 1.36 2.17 1.7 2.19 1.54 2.22.93 2.24.18 2.26-.26 2.27-.21 2.33.08 2.4.2 2.39.62 2.47" filter="url(#a)"/><path d="m63.71-22.76 1.46 3.07 4.8 2.31 6.68 2.15 5.13 2.18 2.11 2.26-.41 2.35-1.6 2.38-1.61 2.37-.89 2.35.01 2.31.73 2.3 1.1 2.29 1.15 2.27 1.01 2.26.82 2.24.69 2.22.63 2.22.63 2.23.66 2.25.7 2.27.74 2.3.8 2.31.83 2.31.8 2.3.69 2.26.48 2.21.19 2.14-.18 2.08-.56 2.04-.91 2.01-1.1 1.95-.99 1.81-.59 1.68-.48 1.64-2.12 1.92" filter="url(#a)"/><path d="m62.35-26.6.88 2.17 1.15 2.47 1.23 2.44 1.51 2.36 2.3 2.31 3.37 2.33 4.13 2.39 4.07 2.43 3.16 2.44 1.7 2.42.22 2.37-.87 2.35-1.36 2.33-1.19 2.33-.52 2.35.46 2.34 1.51 2.34 2.39 2.32 2.91 2.3 2.97 2.29 2.6 2.27L96.89 25l1.12 2.25.4 2.22-.12 2.18-.37 2.16-.37 2.13-.18 2.13.08 2.14.28 2.15.37 2.16.43 2.11.63 2.03 1.07 1.88 1.47 1.72 1.32 1.6-.04 1.24" filter="url(#a)"/><path d="m61.98-28.3 1.07 3.11 1.18 2.67 1.07 2.46 1.05 2.29 1.2 2.2 1.35 2.19 1.45 2.23 1.51 2.29 1.54 2.34 1.53 2.34 1.45 2.32L77.71.42l1.2 2.26 1.07 2.26.89 2.27.66 2.26.33 2.21-.04 2.13-.34 2.08-.51 2.14-.53 2.33-.26 2.44.71 2.17M61.97-28.31l.37 1.79.31 2.14.28 2.34.33 2.37.38 2.33.32 2.29.21 2.32.08 2.36v2.41l-.02 2.43v2.4l-.01 2.36-.05 2.31-.13 2.3-.22 2.31-.32 2.33-.4 2.35-.45 2.34-.49 2.31-.53 2.28-.56 2.23-.61 2.23-.67 2.26-.74 2.32-.82 2.34-.9 2.26-1.01 2.18-1.18 2.32m6.14-66.3 2.8 1.91 2.12 1.95.79 2.15.52 2.28.94 2.32 1.62 2.31 2.29 2.3 2.79 2.31 3.04 2.36 3.08 2.4 2.95 2.42 2.65 2.4 2.18 2.35 1.54 2.31.88 2.28.42 2.3.32 2.33.61 2.35 1.1 2.35 1.44 2.33 1.46 2.27 1.23 2.18 1.16 2.12 1.45 2.23 1.74 2.54 2.21 2.82m-43.99-62-3.54 2.01-2.23 1.94.64 2.01 1.25 2.14.59 2.26-.31 2.3-.88 2.3-.99 2.3-.79 2.31-.53 2.36-.37 2.4-.36 2.42-.45 2.39-.58 2.36-.7 2.3-.92 2.29-1.28 2.29-1.87 2.33-2.65 2.36-3.47 2.36-4.05 2.35-4.09 2.27-3.51 2.15-2.55 2.02-1.72 2.15-2.11 2.7" filter="url(#a)"/><path d="m58.4-37.14.78 1.83.97 2.23.86 2.19.75 2.12.7 2.12.67 2.18.63 2.25.57 2.28.49 2.3.4 2.32.33 2.33.27 2.37.24 2.4.2 2.42.17 2.39.14 2.37.09 2.33.04 2.31-.03 2.32-.1 2.33-.17 2.36-.25 2.35-.31 2.33-.35 2.28-.39 2.22-.44 2.2-.54 2.26-.67 2.41-.76 2.5-.67 2.17" filter="url(#a)"/><path d="m58.03-38.1 4.62 1.61.31 1.83.54 2 1.35 2.2 1.67 2.37 1.4 2.49.83 2.52.31 2.46v2.39l-.02 2.33.18 2.3.52 2.3.94 2.31 1.35 2.34 1.75 2.34 2.09 2.33L78.15.34l2.27 2.3 2.04 2.29 1.59 2.28 1.07 2.26.58 2.23.27 2.2.2 2.18.31 2.19.49 2.24.61 2.26.52 2.24.06 2.22-.81 2.44-1.66 3.41" filter="url(#a)"/><path d="m57.62-38.85 1.25 1.68 1.86 1.96 2.31 2.14 2.26 2.15 1.68 2.14.99 2.15.52 2.2.41 2.25.61 2.29.88 2.31 1.05 2.33 1.03 2.36.83 2.38.56 2.41.34 2.41.25 2.4.32 2.38.52 2.35.79 2.34 1.03 2.34 1.16 2.34 1.17 2.35 1.05 2.34.9 2.33.79 2.3.73 2.28.74 2.27.77 2.27.75 2.28.69 2.26.55 2.2.3 2.11-.11 2.03-.63 2.06-.94 2.22-.41 2.1" filter="url(#a)"/><path d="m56.91-40.28 4.91 1.91.41 1.78.05 1.85.85 1.98 1.79 2.16 2.47 2.32 2.91 2.45 3.31 2.48 3.82 2.46 4.23 2.37 4.25 2.31 3.67 2.26 2.61 2.26 1.43 2.29.61 2.33.38 2.35.74 2.33 1.53 2.28 2.56 2.23 3.58 2.23 4.23 2.32 4.02 2.49 2.85 2.67 3.3 2.6" filter="url(#a)"/><path d="m54.81-43.77 1.07 1.76 1.27 2.26 1.42 2.22 1.87 2.18 2.59 2.16 3.2 2.15 3.48 2.15 3.37 2.17 3.07 2.21 2.75 2.24 2.56 2.28 2.53 2.31 2.67 2.33 2.93 2.36 3.24 2.38 3.52 2.41L100-5.8l3.55 2.4 3.18 2.38 2.6 2.36 1.87 2.34 1.15 2.34.52 2.35-.01 2.35-.46 2.35-.82 2.33-1.06 2.3-1.02 2.28-.53 2.27.45 2.28 1.74 2.29 2.99 2.28 3.7 2.21 3.41 2.09 2.04 1.97.53 2.02.73 2.91" filter="url(#a)"/><path d="m54.81-43.77 1.34 1.75 1.4 2.26 1.59 2.21 1.71 2.18 1.54 2.15 1.18 2.15.85 2.14.62 2.16.49 2.2.44 2.24.44 2.28.49 2.3.56 2.32.63 2.35.67 2.38.67 2.4.64 2.41.61 2.4.57 2.37.55 2.35.49 2.33.42 2.33.3 2.34.18 2.36.08 2.36v2.33l-.09 2.29-.2 2.25-.32 2.23-.39 2.28-.35 2.36-.18 2.39-.03 2.23-.46 1.94M53.81-45.67l11.3 3.01 7.19 2.2.48 1.92-1.14 1.85-.14 1.91 1.52 2.01 3 2.16 3.85 2.3 4.04 2.41 3.82 2.46L91.32-21l3.53 2.38 3.57 2.33 3.53 2.29 3.29 2.28 2.85 2.31 2.39 2.33 2.09 2.35 2.12 2.33 2.48 2.3 2.96 2.26 3.25 2.27 3.13 2.33 2.93 2.4 3.3 2.39 4.53 2.06 5.29 1.02" filter="url(#a)"/><path d="m52.21-48.34.8 1.01 1.37 1.44 1.87 1.81 1.81 2.04 1.44 2.14 1.19 2.17 1.23 2.18 1.47 2.16 1.68 2.16 1.7 2.17 1.53 2.18 1.23 2.21.97 2.24.87 2.27.92 2.3 1.13 2.33 1.37 2.35 1.53 2.38 1.56 2.4 1.45 2.41 1.2 2.4.93 2.38.72 2.35.61 2.34.61 2.34.7 2.35.78 2.36.86 2.36.88 2.34.9 2.3.88 2.25.76 2.24.4 2.28-.27 2.37-1.05 2.39-1.37 2.24-.44 1.95" filter="url(#a)"/><path d="m50.39-51.1 1.38 2.04 1.38 1.77 1.79 2.07 1.98 2.19 1.97 2.14 1.91 2.06 1.93 2 2.06 2.02 2.27 2.08 2.56 2.19 2.86 2.3 3.15 2.38 3.39 2.42 3.53 2.42 3.49 2.4 3.22 2.36 2.68 2.33 2 2.33 1.26 2.33.67 2.34.33 2.34.28 2.34.5 2.33.88 2.31 1.35 2.3 1.86 2.3 2.36 2.28 2.74 2.24 2.79 2.19 2.4 2.16 1.7 2.2 1.16 2.29 1.12 2.36.9 2.26-.38 2M49.53-52.02l1.85 2.64 1 1.78.78 1.7.75 1.85.65 2.01.42 2.11.15 2.15-.08 2.17-.22 2.16-.32 2.16-.44 2.17-.6 2.18-.82 2.21-1.01 2.24-1.1 2.27-1.01 2.3-.81 2.32-.54 2.36-.32 2.38-.2 2.39-.17 2.41-.19 2.4-.18 2.38-.16 2.36-.15 2.34-.25 2.34-.49 2.35-.87 2.36-1.29 2.37-1.62 2.34-1.76 2.3-1.73 2.24-1.65 2.21-1.66 2.28-1.8 2.42-1.95 2.51-2.73 2.19" filter="url(#a)"/><path d="m47.29-55.3 2.22 3.07 1.84 2.44 1.41 1.96L54.01-46l1.27 1.89 1.31 1.99 1.27 2.08 1.18 2.14 1.08 2.15 1.02 2.15.96 2.15.91 2.15.84 2.17.76 2.19.7 2.23.64 2.26.61 2.28.6 2.31.57 2.33.52 2.37.46 2.4.35 2.43.24 2.41.13 2.38.08 2.32.06 2.28.08 2.3.09 2.35.11 2.37.07 2.34-.04 2.55-.25 3.92M47.29-55.3l4.21 3.06 4.12 2.44 3.07 1.95 2.57 1.82 2.4 1.88 2.48 1.99 2.61 2.07 2.62 2.13 2.5 2.14 2.44 2.15L79-31.53l3.25 2.14 3.95 2.15 4.51 2.19 4.84 2.21 4.96 2.25 4.99 2.28 4.91 2.29 4.54 2.32 3.79 2.35 2.72 2.41 1.71 2.45 1.17 2.45 1.29 2.39L127.57.6l2.93 2.14 4.07 2.23 4.05 2.87-.61 4.42" filter="url(#a)"/><path d="m47.42-54.57 3.94 1.68 1.2 1.83 1.77 1.85 2.9 1.93 3.43 2.06 3.21 2.1 2.6 2.1 1.93 2.06 1.44 2.04 1.2 2.05 1.18 2.1 1.3 2.2 1.42 2.28 1.46 2.37 1.35 2.4 1.14 2.42.92 2.39.81 2.37.92 2.34 1.27 2.33 1.85 2.34 2.57 2.34 3.31 2.35 3.91 2.34L98.71.03l4.28 2.32 3.94 2.3 3.26 2.3 2.37 2.29 1.39 2.24.51 2.2-.13 2.16-.24 2.2.36 2.3 1.54 2.36 2.63 2.26 3.91 2.01" filter="url(#a)"/><path d="m46.8-55.86.42.73 1.02 1.35 1.39 1.85 1.45 1.98 1.35 1.94 1.25 1.92 1.18 1.95 1.15 2 1.14 2.08 1.12 2.12 1.11 2.14 1.07 2.15 1.02 2.16.97 2.17.89 2.18.82 2.2.75 2.24.68 2.26.63 2.29.58 2.32.55 2.34.5 2.38.46 2.4.43 2.42.38 2.41.32 2.38.26 2.34.18 2.32.11 2.32.02 2.35-.09 2.39-.2 2.41-.28 2.44-.29 2.41-.17 2.1-.11 1.26" filter="url(#a)"/><path d="m43.52-59.34 2.94 1.5 1.78 1.39 1.64 1.58 1.34 1.72 1.01 1.8.93 1.84 1.06 1.92 1.29 2 1.51 2.04 1.64 2.06 1.69 2.03 1.7 1.98 1.71 1.97 1.75 2 1.8 2.09 1.78 2.22 1.63 2.37 1.36 2.47 1.07 2.52.95 2.45 1.11 2.31 1.34 2.13 1.25 1.97 1.32 1.93M41.91-60.82l.1 1.48.67 1.4 1.21 1.46 1.3 1.58 1.15 1.69.86 1.78.55 1.83.37 1.91.38 1.98.56 2.04.77 2.05.86 2.03.72 1.97.42 1.95.05 1.98-.24 2.05-.31 2.2-.11 2.37.22 2.52.4 2.59.13 2.53-.59 2.36-.99 2.47" filter="url(#a)"/><path d="m41.91-60.82 2.37 1.5 1.44 1.44 1.68 1.49 1.88 1.62 1.78 1.73 1.59 1.82 1.48 1.88 1.48 1.96 1.56 2.01 1.7 2.05 1.87 2.06 2.04 2.06 2.14 2.05 2.14 2.07 2 2.11 1.78 2.19 1.55 2.28 1.35 2.34 1.24 2.39 1.23 2.41 1.28 2.39 1.37 2.37 1.49 2.34 1.6 2.33 1.65 2.34 1.62 2.34 1.47 2.36 1.23 2.35.91 2.32.64 2.31.47 2.31.49 2.33.71 2.36.98 2.31 1.04 2.09.75 1.74.78 1.79" filter="url(#a)"/><path d="m41.91-60.82 1.82 1.48 1.3 1.4 1.31 1.46 1.53 1.58 1.74 1.69 1.86 1.78 1.89 1.83 1.88 1.91 1.84 1.98 1.75 2.04 1.6 2.05 1.44 2.03 1.34 1.97 1.34 1.95 1.47 1.98 1.62 2.05 1.71 2.2 1.66 2.37 1.56 2.52 1.55 2.59 1.69 2.53 1.88 2.36 1.65 2.47" filter="url(#a)"/><path d="m39.49-62.96 2.14 1.85 1.82 1.6 2.04 1.49 2.72 1.5 3.53 1.6 4.03 1.68 3.96 1.77 3.4 1.83 2.73 1.91 2.32 1.98 2.39 2.04 2.97 2.05 3.88 2.02 4.81 1.98 5.44 1.96 5.46 1.98 4.85 2.06 3.92 2.2 3.29 2.37 3.54 2.52 4.73 2.6 5.88 2.53 5.31 2.36 2.88 2.48" filter="url(#a)"/><path d="m38.62-63.97 14.25 1.72 3.36 1.67 1.1 1.75 1.48 1.68 2.29 1.62 2.84 1.64 2.99 1.74 2.76 1.81 2.21 1.85 1.57 1.86 1.19 1.9 1.45 1.95 2.48 2.02 4.04 2.08 5.6 2.11 6.59 2.14 6.7 2.12 6.22 2.09 5.75 2.05 5.64 2.04 5.28 2.11 3.56 2.2-.23 2.01M38-64.3l2.1 1.51 2.35 1.64 1.81 1.57 1.38 1.53 1.28 1.55 1.35 1.62 1.41 1.7 1.45 1.77 1.45 1.85 1.44 1.93 1.4 1.99 1.36 2.03 1.3 2.04 1.26 2.03 1.23 2.02 1.19 2.01 1.15 2.05 1.12 2.13 1.07 2.24 1.04 2.36.99 2.44.93 2.47.84 2.43.72 2.33.63 2.22.59 2.17.6 2.23.7 2.41.86 2.6" filter="url(#a)"/><path d="m36.77-65.45 3 1.56 3.07 1.62 2.2 1.7 1.62 1.72 1.39 1.68 1.36 1.66 1.37 1.69 1.41 1.76 1.48 1.81 1.63 1.86 1.81 1.9 1.98 1.93 2.04 1.98 1.96 2.04 1.76 2.09 1.5 2.11 1.29 2.14 1.2 2.13 1.2 2.13 1.25 2.14 1.28 2.16 1.28 2.21 1.26 2.26 1.24 2.29 1.19 2.26 1.04 2.22.86 2.24.74 2.41 1.23 2.58" filter="url(#a)"/><path d="m35.3-66.16 6.56.99 5.83 1.37 6.76 1.55 5.21 1.67 2.84 1.69 1.29 1.68.88 1.67 1.14 1.71 1.52 1.76 1.79 1.82 2.02 1.86 2.38 1.89 2.94 1.94 3.52 1.99 3.81 2.04 3.61 2.09 2.88 2.12 1.87 2.13 1.05 2.14.81 2.14 1.42 2.15 2.8 2.17 4.63 2.21 6.4 2.26 7.52 2.28 7.54 2.27 6.55 2.26 5.21 2.26 4.61 2.34 4.64 2.38 2.05 2.2" filter="url(#a)"/><path d="m33.49-67.57 9.32 1-.1 1.09-.74 1.25.32 1.4 1.39 1.48 2.29 1.51 3.07 1.52 3.78 1.55 4.42 1.59 4.91 1.66 5.16 1.73 5.05 1.8 4.52 1.88 3.7 1.96 2.91 2.03 2.54 2.07L88.89-40l3.74 1.97 4.75 1.89 5.4 1.84 5.73 1.82 6.31 1.84 7.43 2.34" filter="url(#a)"/><path d="m33.49-67.57 1.68 1.01 2.1 1.11 2.69 1.27 2.98 1.42 2.83 1.5 2.57 1.52 2.44 1.55 2.44 1.57 2.42 1.63 2.27 1.7 2.03 1.76 1.79 1.84 1.68 1.91 1.69 1.98 1.79 2.02 1.95 2.04 2.12 2.03 2.34 2.01 2.57 2.01 2.82 2.04 3.01 2.11 3.1 2.23 3.11 2.36 3.13 2.47 3.23 2.52 3.47 2.48 3.64 2.33 3.28 2.16 2.27 1.99 1.93 1.95" filter="url(#a)"/><path d="m30.59-69.67 1.05.81 1.92 1.18 2.01 1.24 1.93 1.3 1.86 1.4 1.82 1.51 1.8 1.59L44.75-59l1.72 1.66 1.65 1.69 1.59 1.71 1.54 1.77 1.48 1.81 1.41 1.85 1.33 1.9 1.26 1.94 1.23 1.98 1.24 2.04 1.29 2.09 1.34 2.11 1.38 2.14 1.38 2.14 1.33 2.14 1.27 2.15 1.19 2.17 1.14 2.22 1.11 2.27 1.05 2.29.9 2.27.67 2.24.45 2.24.46 2.42.64 2.59m-47.02-64.1 5.08.89 3.43 1.17 2.36 1.22 2.45 1.21 2.81 1.24 2.94 1.31 2.95 1.38 3.09 1.45 3.3 1.5 3.39 1.53 3.25 1.56 2.93 1.62 2.72 1.67 2.83 1.74 3.35 1.82 4.11 1.89 4.78 1.96 4.99 2.03 4.59 2.05 3.79 2.04L99.98-38l2.94 1.94 3.61 1.93 4.68 1.98 5.52 2.13 5.81 2.38 5.77 2.61 6.25 2.27" filter="url(#a)"/><path d="m20.86-74.51 2.11.79 2.99 1.1 2.49 1.09 1.95 1.1 1.71 1.12 1.7 1.16 1.84 1.19 2.04 1.23 2.21 1.28 2.26 1.35 2.16 1.42 1.93 1.46 1.69 1.5 1.56 1.52 1.58 1.57L52.85-54l2.02 1.69 2.23 1.74 2.29 1.79 2.17 1.89 1.98 2.13 1.9 2.41 1.68 2.07" filter="url(#a)"/><path d="m19.68-74.97.04 1.17 2.68.95 2.56.93 1.88.97 1.29 1.02.99 1.08.92 1.14.96 1.21.97 1.3.95 1.38.92 1.46.93 1.55.99 1.59 1.05 1.64 1.09 1.68 1.07 1.71.96 1.75.77 1.8.57 1.84.37 1.88.2 1.92.05 1.97-.07 2.03-.17 2.09-.29 2.12-.45 2.15-.71 2.15-.97 2.12-1.09 2.09-.88 2.07-.41 2.13-.25 2.23-1.47 2.04" filter="url(#a)"/><path d="m18.74-75.13 1.88.63 2.26.87 2.6 1.02 2.61 1.08 2.39 1.1 2.08 1.13 1.83 1.17 1.67 1.2 1.64 1.24 1.72 1.3 1.87 1.36 2.03 1.42 2.11 1.47 2.11 1.51 2.03 1.55 1.9 1.59 1.8 1.65 1.74 1.72 1.72 1.78 1.74 1.86 1.84 1.95 1.99 2.06 2.2 2.14 2.37 2.12 2.36 1.95 2.03 1.72.89 1.51" filter="url(#a)"/><path d="m18.74-75.13 2.07.62 2.83.86 3.57 1.02 3.57 1.06 3.11 1.08 2.66 1.12 2.39 1.16 2.24 1.18 2.1 1.22 1.96 1.27 1.94 1.35 2.19 1.4 2.74 1.46 3.51 1.48 4.39 1.51 5.18 1.55 5.74 1.62 5.87 1.7 5.47 1.72 4.52 1.65 3.4 1.51 2.85 1.92" filter="url(#a)"/><path d="m19.15-75.28 1.28.63 1.95.88 2.09.91 2.07.94 2.07.97 2.07 1.03 2.05 1.08 1.98 1.14 1.91 1.22 1.85 1.3 1.84 1.38 1.86 1.47 1.89 1.54 1.91 1.6 1.91 1.64 1.88 1.68 1.81 1.72 1.72 1.76 1.61 1.8 1.49 1.85 1.41 1.89 1.37 1.93 1.41 1.98 1.54 2.03 1.72 2.09 1.91 2.12 2.02 2.14 2.02 2.14 1.89 2.14 1.64 2.13L74.65-26l1.11 2.22 1.09 2.33 1.31 2.43 1.6 2.32 1.44 1.22" filter="url(#a)"/><path d="m18.45-75.32.91.33 2.02.58 3.07.81 3.65.96 3.68 1.03 3.44 1.08 3.15 1.12 2.95 1.15 2.8 1.17 2.68 1.22 2.59 1.27 2.55 1.34 2.56 1.4 2.6 1.46 2.64 1.48 2.64 1.49 2.71 1.54 3 1.62 3.56 1.73 4.13 1.78 4.29 1.59 3.27.62" filter="url(#a)"/><path d="m18.45-75.32.9.34 1.8.61 2.67.84 3.52.98 4.05 1.06 4.07 1.1 3.58 1.15 2.88 1.18 2.29 1.22 2.09 1.27 2.31 1.33 2.81 1.38 3.34 1.44 3.67 1.49 3.7 1.54 3.48 1.58 3.17 1.64 2.93 1.69 2.87 1.77 2.99 1.83 3.2 1.9 3.45 1.96 3.65 2.01 3.72 2.03 3.62 2.03 3.34 2.03 2.95 2.02 2.61 2.05 2.52 2.11 2.75 2.23 3.28 2.37 3.82 2.5 4.15 2.57 4.06 2.52 3.57 2.38 3.3 2.16 6.54 1.79" filter="url(#a)"/><path d="m16.83-75.76 1.6.38 3.61.43 5.99.6 6.34.8 4.79.93 2.78 1.01 1.56 1.08 1.47 1.11L47-68.27l2.56 1.19 2.71 1.22 2.62 1.28 2.67 1.34 3.14 1.41 3.98 1.45 4.79 1.49 5.23 1.51 5.21 1.56 5 1.62 5 1.7 5.35 1.73 5.6 1.65 5.33 1.52 4.78 1.93" filter="url(#a)"/><path d="m14.35-76.51 2.36.54 2.01.62 2.02.72 2.12.81 2.12.86 2.01.91 1.89.94 1.77 1 1.74 1.04 1.76 1.09 1.81 1.16 1.89 1.23 1.96 1.32 2.03 1.41 2.08 1.52L46-59.76l2.01 1.62 1.86 1.58 1.68 1.57 1.66 1.66 1.94 1.96 2.39 2.24 2.4 1.71" filter="url(#a)"/><path d="m14.35-76.51 2.44.54 2.05.63 1.93.74 2.11.81 2.42.87 2.76.92 3.16.96 3.61 1.01 4.07 1.06 4.42 1.11 4.49 1.19L52-65.41l3.58 1.35 2.9 1.44 2.38 1.52 2.19 1.57 2.31 1.62 2.62 1.64 2.93 1.68 3.11 1.73 3.18 1.78 3.25 1.83 3.4 1.83 3.69 1.82 4.06 1.89 4.35 2.08 4.5 2.31 4 2.18" filter="url(#a)"/><path d="m13.63-76.83 2.52.8 1.77.56 1.63.53 1.83.65 2.14.79 2.51.92 2.96 1.01 3.56 1.08 4.32 1.12 5.12 1.16 5.68 1.2 5.79 1.24 5.38 1.3 4.54 1.36 3.48 1.41 2.46 1.47 1.72 1.5 1.45 1.55 1.78 1.59L77-53.94l4 1.7 5.11 1.78 5.51 1.85 5 1.95 3.98 2.08 3.28 2.2 3.53 2.18 4.53 1.98 5.48 1.7" filter="url(#a)"/><path d="m13.63-76.83 3.43.8 1.55.55 1.34.54 1.71.64 2.16.79 2.44.91 2.58 1.01 2.6 1.07 2.61 1.12 2.63 1.15 2.64 1.19 2.67 1.24 2.71 1.29 2.81 1.35 2.96 1.41 3.2 1.46 3.46 1.5 3.72 1.53 3.87 1.58 3.85 1.63 3.69 1.7 3.59 1.74 3.76 1.8 4.31 1.9 4.85 2.14 4.4 2.42 2.4 2.09" filter="url(#a)"/><path d="m8.45-77.8 1.16.22 1.71.36 2.04.51 2.03.57 1.88.58 1.78.62 1.79.69 1.85.79 1.9.89 1.92.98 1.91 1.05 1.87 1.11 1.82 1.15 1.76 1.2 1.71 1.24 1.67 1.3 1.63 1.35 1.6 1.41 1.55 1.46 1.51 1.5 1.45 1.54 1.41 1.59 1.37 1.65 1.34 1.7 1.32 1.76 1.28 1.84 1.28 1.94 1.32 2.11 1.36 2.28 1.28 2.26 1.08 2.05" filter="url(#a)"/><path d="m7.2-78.16 1.72.29 2.43.43 2.36.47 2.39.5 2.81.54 3.45.61 3.95.69 4.12.76 3.96.83 3.64.88 3.35.93 3.21.98 3.22 1.02 3.39 1.08 3.62 1.14 3.9 1.21 4.31 1.28L68-63.13l5.76 1.52 6.22 1.64 5.64 1.71 3.79 1.59 1.97 1.11 3.38.26" filter="url(#a)"/><path d="m5.86-78.16 2.21.3 1.87.3 2.01.39 2.25.49 2.35.54 2.35.59 2.31.62 2.28.71 2.22.79 2.15.89 2.08.98 2.04 1.05 2.03 1.1 2.06 1.16 2.11 1.2 2.18 1.25 2.26 1.3 2.35 1.36 2.43 1.41 2.51 1.47 2.53 1.51 2.51 1.55 2.46 1.6 2.41 1.66 2.39 1.72 2.4 1.78 2.51 1.87 2.68 1.96 2.81 2.07 2.77 2.14 2.46 2.13 2.06 1.98 2.13 1.74 3.43 1.52" filter="url(#a)"/><path d="m2.8-78.2 3.23.11 2.44.28 2.35.4 2.32.45 2.26.5 2.22.55 2.17.61 2.11.69 1.99.76 1.9.83 1.86.89 1.88.93 1.97.99 2.09 1.03 2.21 1.09 2.32 1.16 2.4 1.22 2.44 1.31 2.47 1.41 2.5 1.51 2.54 1.59 2.49 1.63 2.31 1.58 2.07 1.5 1.92 1.59 2.13 2.12 2.92 3.13" filter="url(#a)"/><path d="m2.8-78.2 3.47.12 2.95.28 2.52.4 2.08.46 1.82.51 1.82.56 1.97.63 2.16.71 2.31.78 2.37.84 2.38.9 2.36.96 2.32 1.01 2.3 1.07 2.27 1.13 2.25 1.2 2.25 1.27 2.32 1.36 2.45 1.43 2.66 1.51 2.91 1.57 3.11 1.62 3.19 1.66 3.12 1.7 2.91 1.74 2.63 1.79 2.35 1.83 2.14 1.86 1.99 1.9 1.93 1.95 1.92 2.02 1.95 2.1 2.14 2.15 2.6 2.18 3.31 2.29 3.36 2.31" filter="url(#a)"/><path d="m2.8-78.2 3.31.11 2.52.28 2.35.39 2.17.45 2 .49 1.91.54 1.92.61 2.04.68 2.18.76 2.27.82 2.26.87 2.15.93 2.02.97 1.92 1.02 1.91 1.08 2 1.13 2.13 1.19 2.24 1.28 2.27 1.37 2.23 1.51 2.23 1.68 2.41 1.85 2.61 1.83 2 1.27" filter="url(#a)"/><path d="m3.51-78.52.95.23 2.1.21 2.23.3 2.22.37 2.3.44 2.63.48 3.22.54 3.95.61 4.59.67 4.89.75 4.75.81 4.27.87 3.72.93 3.34.96 3.24 1.02 3.35 1.07 3.48 1.12 3.52 1.19 3.59 1.25 3.97 1.35 4.76 1.48 5.78 1.7 6.93 2.04 7.56 2.27" filter="url(#a)"/><path d="m.73-78.58 3.11.27 2.39.23 2.2.25 2.26.31 2.4.38 2.53.47 2.61.51 2.63.57 2.58.62 2.53.69 2.48.78 2.45.87 2.45.96 2.5 1.03 2.61 1.08 2.79 1.14 3.05 1.18 3.38 1.23 3.76 1.28 4.1 1.34 4.28 1.4 4.21 1.45 3.89 1.49 3.44 1.52 3.18 1.56 3.43 1.63 4.13 1.74 4.59 1.79 3.64 1.62.75.64" filter="url(#a)"/></g><g fill="none" stroke="#000"><circle cx="10.872" cy="24.72" r="2.912" filter="url(#a)"/><circle cx="9.392" cy="26.864" r="1.66" filter="url(#a)"/><circle cx="12.144" cy="26.872" r="1.228" filter="url(#a)"/><circle cx="9.416" cy="26.688" r="2.96" filter="url(#a)"/><circle cx="9.644" cy="24.444" r="2.986" filter="url(#a)"/><circle cx="8.668" cy="27.352" r="1.92" filter="url(#a)"/><circle cx="10.892" cy="27.708" r="1.144" filter="url(#a)"/><circle cx="11.964" cy="25.476" r="1.122" filter="url(#a)"/><circle cx="10.66" cy="24.932" r="1.084" filter="url(#a)"/><circle cx="10.568" cy="25.224" r="2.682" filter="url(#a)"/><circle cx="-10.23" cy="25.142" r="1.682" filter="url(#a)"/><circle cx="-9.198" cy="26.25" r="2.372" filter="url(#a)"/><circle cx="-10.918" cy="25.05" r="1.806" filter="url(#a)"/><circle cx="-9.014" cy="26.37" r="1.206" filter="url(#a)"/><circle cx="-9.022" cy="25.506" r="2.212" filter="url(#a)"/><circle cx="-11.854" cy="24.35" r="1.036" filter="url(#a)"/><circle cx="-9.874" cy="24.886" r="2.966" filter="url(#a)"/><circle cx="-11.318" cy="23.034" r="1.862" filter="url(#a)"/><circle cx="-11.69" cy="26.814" r="1.97" filter="url(#a)"/><circle cx="-8.894" cy="25.874" r="2.056" filter="url(#a)"/></g><path fill="#D77F8C" stroke="#000" stroke-linejoin="round" stroke-width="3" d="m28.83 51.48-.13.02.06.29v.82l-.1.56-.41.71-.12.16.29-.67-.49 1.37.03-.25-.07.55-.74.96-.14.15-.78.94.62-.64-.85.93.05.01-1.49 1.29.85-.62-1.17.79-.53.5-.95.62-.71.47-1.05.69 1.27-.77-.75.46-1.58.8-.97.52.49-.28-2.41 1.02.43-.1-.39.12-1.8.66.65-.18-2.96.95-.3.09.82-.23-1.31.39-2.55.64.91-.19-2.21.46-1.19.27.35-.09-1.71.31-1.73.26L5.57 66l-2.92.41-.14.02.86-.1-2.76.28-1.52.1-1.83.08 1.5-.06-.76.03-.72.03H-6.5l-.49-.03.49.02.22.01-.5-.02-3.87-.25 1.07.1-2.84-.3-.05-.01h-.01l-2.2-.34-.59-.11.77.14-.28-.06-.88-.15-1.89-.39-.98-.35-1.55-.42-1.22-.39 1.35.44-.09-.09-.71-.15-2.36-1.02-1-.47-.65-.3 1.22.65-1.23-.68-.55-.2-1.42-.95.44.3.16-.02-1.06-.78-.46-.23-.75-.7.05-.02-.55-.62-.52-.62-.66-.76.33.09-.37-.38-.18-.54.13.5-.4-1.72-.04.78-.25-1.47.13-.03-.11-.01.04-.02.2-1.37-.14.39.09-.7.47-1.36-.44 1.06.7-1.51.43-.82.31-.29-.37.39.08-.28.73-.94.15-.15.72-.67-.15.11.4-.51 1.06-.78.45-.38-.19.22 1.28-.98 1.47-.93.1-.02-.91.55 1.09-.69 1.82-.97-.72.4 1.87-.85-.35.1 2.35-.89.79-.36-.27.15-.6.18 1.67-.55 1.12-.35.46-.16.52-.16 1.45-.38 2.47-.58 1.04-.19-1.52.29 1.42-.29 1.94-.33.18-.04.9-.14-.4.07 3.06-.38.72-.08 1.18-.09 1.51-.1-.6.04-.62.04 2.47-.13 1.95-.04-.58.01 3.3.04-.2-.01-.59-.02 1.66.08-.56-.02 1.39.05 3.23.34.01.01h.14l1.82.23.02.01 1.8.35.67.1-.69-.08 3.18.72.27.16-.42-.21h.06l2.97.98-.03.12 1.13.33-.58-.15.98.36 1.21.67-.98-.45.78.39 1.24.59.82.65-.14-.09.97.54.02.14 1.08 1.05.31.38-.4-.59.62.86.63.88.19.14.21.27.18.4-.02.02.33.79-.08.03.32 1.06-.28-.76" filter="url(#a)"/></svg>