<svg viewBox="-100 -100 200 200" xmlns="http://www.w3.org/2000/svg" width="500" height="500" id="face-svg">
    <defs>
      <clipPath id="leftEyeClipPath">
        <polyline points="33.47,-5 33.25,-5.56 32.99,-6.11 32.7,-6.68 32.38,-7.25 32.03,-7.83 31.64,-8.42 31.21,-9.01 30.75,-9.6 30.26,-10.19 29.73,-10.79 29.16,-11.39 28.56,-11.98 27.92,-12.58 27.24,-13.18 26.53,-13.77 25.96,-14.43 25.32,-15.09 24.61,-15.76 23.84,-16.43 23,-17.1 22.1,-17.77 21.13,-18.43 20.1,-19.08 19.02,-19.71 17.89,-20.34 16.7,-20.95 15.47,-21.53 14.19,-22.1 12.87,-22.64 11.52,-23.16 10.14,-23.65 8.73,-24.1 7.29,-24.53 5.84,-24.92 4.37,-25.28 2.88,-25.6 1.4,-25.89 -0.1,-26.14 -1.59,-26.34 -3.07,-26.51 -4.55,-26.63 -6.02,-26.72 -7.47,-26.76 -8.91,-26.77 -10.32,-26.73 -11.72,-26.65 -13.08,-26.53 -14.42,-26.37 -15.72,-26.18 -17,-25.94 -18.24,-25.67 -19.44,-25.37 -20.6,-25.03 -21.73,-24.66 -22.82,-24.26 -23.87,-23.83 -24.88,-23.37 -25.85,-22.89 -26.77,-22.38 -27.66,-21.86 -28.51,-21.32 -29.33,-20.76 -30.1,-20.19 -30.84,-19.61 -31.55,-19.03 -32.22,-18.43 -32.86,-17.82 -33.47,-17.19 -34.04,-16.56 -34.58,-15.91 -35.09,-15.26 -35.57,-14.6 -36.01,-13.93 -36.43,-13.26 -36.82,-12.58 -37.18,-11.9 -37.51,-11.21 -37.81,-10.53 -38.09,-9.84 -34.55,3.76 -33.92,4.45 -33.26,5.14 -32.59,5.83 -31.9,6.52 -31.19,7.21 -30.46,7.9 -29.71,8.59 -28.94,9.28 -28.15,9.96 -27.34,10.65 -26.52,11.33 -25.68,12.01 -24.82,12.69 -23.94,13.36 -23.04,14.03 -22.12,14.7 -21.18,15.36 -20.22,16.03 -19.24,16.68 -18.24,17.34 -17.22,17.98 -16.19,18.62 -15.13,19.25 -14.06,19.86 -12.97,20.46 -11.88,21.05 -10.76,21.61 -9.64,22.16 -8.5,22.69 -7.36,23.2 -6.21,23.69 -5.05,24.15 -3.89,24.58 -2.73,24.98 -1.57,25.35 -0.4,25.69 0.76,26 1.92,26.27 3.07,26.51 4.22,26.71 5.36,26.87 6.48,26.98 7.6,27.06 8.7,27.09 9.78,27.09 10.85,27.03 11.9,26.93 12.93,26.79 13.94,26.6 14.92,26.36 15.88,26.07 16.82,25.74 17.72,25.37 18.6,24.94 19.45,24.47 20.28,23.96 21.07,23.4 21.83,22.8 22.56,22.16 23.25,21.48 23.91,20.76 24.55,20 25.14,19.21 25.71,18.39 26.29,17.82 26.86,17.23 27.4,16.62 27.92,16 28.43,15.37 28.91,14.73 29.37,14.07 29.82,13.41 30.24,12.74 30.64,12.07 31.03,11.4 31.39,10.72 31.74,10.05 32.06,9.39 32.37,8.73" />
      </clipPath>
      <clipPath id="rightEyeClipPath">
        <polyline points="-33.46,-9.18 -33.24,-9.79 -33,-10.41 -32.73,-11.03 -32.43,-11.65 -32.09,-12.28 -31.72,-12.9 -31.32,-13.52 -30.89,-14.14 -30.42,-14.75 -29.91,-15.36 -29.37,-15.97 -28.8,-16.57 -28.19,-17.16 -27.55,-17.74 -26.88,-18.31 -26.33,-19.01 -25.72,-19.7 -25.04,-20.37 -24.3,-21.04 -23.5,-21.68 -22.64,-22.31 -21.72,-22.92 -20.75,-23.51 -19.72,-24.08 -18.64,-24.61 -17.51,-25.13 -16.34,-25.61 -15.13,-26.06 -13.88,-26.48 -12.59,-26.86 -11.27,-27.22 -9.93,-27.53 -8.56,-27.82 -7.17,-28.06 -5.77,-28.27 -4.35,-28.44 -2.93,-28.57 -1.5,-28.66 -0.07,-28.71 1.36,-28.73 2.78,-28.7 4.2,-28.64 5.6,-28.54 6.99,-28.4 8.35,-28.23 9.7,-28.02 11.03,-27.77 12.33,-27.49 13.6,-27.18 14.84,-26.83 16.05,-26.45 17.22,-26.04 18.37,-25.61 19.47,-25.15 20.54,-24.66 21.57,-24.15 22.57,-23.61 23.52,-23.06 24.44,-22.48 25.32,-21.89 26.16,-21.29 26.96,-20.67 27.73,-20.04 28.46,-19.4 29.16,-18.76 29.83,-18.1 30.46,-17.44 31.06,-16.76 31.63,-16.07 32.16,-15.37 32.66,-14.66 33.13,-13.95 33.57,-13.22 33.98,-12.5 34.36,-11.76 34.71,-11.02 35.03,-10.28 35.32,-9.53 35.58,-8.78 34.36,3.25 33.81,4.04 33.23,4.84 32.64,5.63 32.02,6.43 31.38,7.23 30.73,8.03 30.05,8.83 29.35,9.63 28.63,10.42 27.9,11.21 27.14,12 26.36,12.79 25.57,13.57 24.75,14.34 23.91,15.11 23.06,15.88 22.18,16.64 21.27,17.4 20.35,18.16 19.4,18.9 18.44,19.64 17.45,20.36 16.44,21.07 15.42,21.76 14.38,22.43 13.32,23.08 12.24,23.7 11.16,24.31 10.06,24.88 8.94,25.43 7.82,25.94 6.69,26.43 5.55,26.87 4.4,27.28 3.25,27.66 2.1,27.99 0.94,28.28 -0.21,28.53 -1.36,28.73 -2.51,28.88 -3.65,28.99 -4.79,29.05 -5.91,29.06 -7.02,29.02 -8.13,28.93 -9.21,28.79 -10.29,28.6 -11.34,28.35 -12.38,28.05 -13.39,27.7 -14.38,27.3 -15.35,26.85 -16.3,26.34 -17.21,25.79 -18.1,25.18 -18.97,24.53 -19.8,23.83 -20.6,23.09 -21.38,22.31 -22.12,21.48 -22.83,20.62 -23.5,19.73 -24.15,18.8 -24.76,17.84 -25.38,17.14 -25.98,16.42 -26.56,15.69 -27.12,14.95 -27.66,14.19 -28.18,13.42 -28.68,12.64 -29.16,11.85 -29.62,11.06 -30.06,10.27 -30.48,9.48 -30.88,8.68 -31.25,7.9 -31.61,7.12 -31.95,6.35" />
      </clipPath>
      <filter id="fuzzy">
        <feTurbulence id="turbulence" baseFrequency="0.05" numOctaves="3" type="noise" result="noise" />
        <feDisplacementMap in="SourceGraphic" in2="noise" scale="2" />
      </filter>
      <linearGradient id="rainbowGradient" x1="0%" y1="0%" x2="100%" y2="0%">
        <stop offset="0%" style="stop-color: rgb(189, 108, 207); stop-opacity: 1" />
        <stop offset="50%" style="stop-color: rgb(54, 203, 212); stop-opacity: 1" />
        <stop offset="100%" style="stop-color: rgb(211, 103, 29); stop-opacity: 1" />
      </linearGradient>
    </defs>
    <rect x="-100" y="-100" width="100%" height="100%" fill="rgb(242, 166, 237)" />
    <polyline id="faceContour" points="85.44,0.51 85.3,2.32 85.43,2.05 85.09,4.45 84.97,6.35 84.9,5.49 84.83,8.36 84.84,7.9 84.8,9.17 84.58,9.62 84.17,12.35 84.53,11.25 83.8,14.56 83.38,15.02 83.44,16 83.06,16.88 82.22,19.15 82.92,17.02 81.94,21.13 82.03,20.85 81.13,22.79 81.18,22.96 81.19,23.03 79.47,26.56 79.46,27.08 79.46,26.88 77.55,30.85 78.16,29.92 77.61,30.03 76.33,32.81 76.15,32.7 75.18,34.62 74.22,35.93 74.2,36.28 72.86,37.87 72.58,38.39 71.66,40.01 71.74,39.57 70.34,41.24 69.21,42.75 68.43,44.04 67.84,44.58 67.58,44.92 67.84,44.61 64.93,47.42 63.35,49.04 63.61,48.49 63.06,49.48 62.69,49.66 61.66,50.37 61.48,50.63 58.53,53 57.87,53.68 59.02,52.8 55.62,55.64 55.26,55.54 54.62,56.35 52.86,57.51 52.72,57.49 51.8,58.24 50.86,58.74 49.56,59.59 47.07,61.04 46.6,61.28 46.92,61.27 44.08,62.89 43.94,62.69 43.69,62.86 42.36,63.56 40.96,64.07 38.41,65.5 36.24,66.05 35.06,66.59 35.46,66.48 35.44,66.61 33.56,67.43 33.43,67.33 31.94,67.99 28.26,69.04 28.77,68.73 25.94,69.69 22.71,70.71 23.24,70.32 23.16,70.35 20.12,71.07 21.41,70.95 19.28,71.38 18.68,71.58 15.39,71.82 15.74,71.88 13.09,72.2 10.84,72.55 12.14,72.35 9.62,72.6 6.79,72.99 6.35,72.86 5.62,72.86 3.84,73.07 3.09,73.25 1.41,73.12 -0.72,73.23 -1.79,73 -1.62,73.09 -3.61,72.97 -4.51,73.23 -6.24,72.9 -7.77,72.73 -8.65,72.69 -9.73,72.57 -12.72,72.26 -15.12,71.93 -13.81,72.08 -15.78,71.95 -17.76,71.5 -18.99,71.37 -20.46,70.93 -21.47,70.89 -23.61,70.28 -25.22,69.83 -24.3,70.2 -27.27,69.5 -27.87,69.28 -30.01,68.33 -28.85,68.72 -31.58,67.98 -33.73,67.1 -35.33,66.41 -36.08,66.46 -34.34,67.01 -37.1,66 -40.42,64.33 -39.96,64.56 -39.49,64.7 -41.21,64.02 -42.89,63.24 -44.89,62.09 -46.91,61.13 -45.79,61.78 -48.99,59.87 -48.67,60.16 -49.23,59.62 -50.97,58.83 -53.45,57.04 -52.48,57.69 -55.95,55.21 -55.21,55.71 -56.08,55.02 -56.93,54.58 -58.96,53.06 -58.98,52.87 -58.74,53.08 -62.32,50.09 -62.5,49.68 -62.73,49.56 -63.74,48.54 -64.34,48.16 -65.6,46.6 -67.8,44.32 -67.23,44.99 -68.19,43.77 -69.01,43.47 -68.92,43.13 -71.36,39.81 -71.38,40.09 -71.72,39.31 -72.08,39.3 -73.26,37.72 -75.23,34.83 -74.91,35.29 -75.45,33.8 -75.58,34.2 -77.32,31.02 -78.01,29.73 -78.67,28.92 -78.27,29.39 -78.3,29.06 -79.33,26.8 -80.3,24.97 -79.62,26.17 -80.5,23.75 -81.11,22.48 -81.38,21.7 -81.84,20.27 -82.81,18.18 -82.26,19.46 -83,16.95 -83.48,15.79 -83.2,16.39 -84.12,12.68 -84.03,13.21 -84.36,10.67 -84.72,10.08 -84.43,11.25 -84.96,8.69 -84.85,8.02 -85.21,5.96 -84.94,5.42 -85.04,3.89 -85.35,2.09 -85.19,1.13 -85.49,-2 -85.23,-0.79 -85.32,-4.22 -85.35,-4.21 -85.14,-3.99 -85.15,-5.61 -84.69,-8.43 -84.78,-8.24 -85.02,-8.13 -84.78,-9.45 -84.3,-11.72 -84.38,-12.25 -83.75,-13.71 -83.5,-14.48 -83.24,-15.35 -83.54,-15.68 -82.41,-19.34 -82.12,-20.07 -81.76,-21.49 -81.65,-21.54 -81.12,-22.98 -81.02,-22.79 -79.77,-25.7 -79.57,-26.55 -79.58,-26.14 -79.82,-26.4 -78.33,-28.99 -78.35,-29.2 -77.77,-30.61 -75.71,-33.59 -75.98,-33.51 -75.8,-33.27 -74.25,-36.28 -73.45,-37.15 -73.76,-36.84 -72.3,-38.67 -71.73,-39.8 -71.27,-40.04 -70.04,-42 -69.6,-42.75 -70.06,-42.12 -67.08,-45.21 -67.24,-44.99 -66.31,-46.15 -65.87,-46.71 -65.3,-47.36 -64.09,-48.42 -63.25,-48.97 -61.13,-51.07 -61.76,-50.52 -60.78,-51.31 -58.73,-53.46 -59.02,-53.16 -57.16,-54.53 -57.98,-53.54 -55.55,-55.67 -55.24,-56.02 -53.03,-57.37 -52.05,-58.23 -51.34,-58.64 -49.25,-59.89 -50.14,-59.09 -48.44,-60.15 -46.3,-61.71 -47.03,-60.95 -44.8,-62.16 -45.16,-62 -42.16,-63.67 -40.66,-64.2 -40.8,-64.23 -37.86,-65.4 -37.82,-65.48 -38.03,-65.51 -35.99,-66.36 -33.33,-67.28 -31.67,-67.96 -31.36,-68.13 -29.7,-68.53 -28.71,-68.74 -27.45,-69.25 -25.68,-69.79 -23.32,-70.4 -23.2,-70.46 -22.94,-70.48 -22.35,-70.48 -19.9,-71.21 -18.14,-71.63 -17.16,-71.78 -16.66,-71.77 -15.25,-71.86 -12.26,-72.25 -12.11,-72.32 -9.52,-72.65 -8.83,-72.67 -9.19,-72.78 -6.71,-72.95 -4.33,-73.26 -4.03,-73.01 -2.43,-73.19 -1.35,-73.13 -0.31,-73.25 1.79,-73.17 2.43,-73.31 4.01,-73.14 5.25,-73.04 4.5,-73.14 6.49,-72.99 10.49,-72.72 9.51,-72.79 10.85,-72.62 14.82,-72 14.95,-71.99 13.75,-72.08 18.55,-71.32 17.58,-71.66 20.51,-71.04 20.45,-70.95 20.46,-71.09 22.81,-70.43 24.55,-70.16 25.29,-69.81 27.49,-69.35 28.85,-68.9 30.82,-68.14 33.22,-67.49 30.64,-68.33 31.65,-68.1 36.95,-65.9 36.13,-66.21 38.61,-65.39 39.46,-64.88 40.91,-64.18 42.49,-63.5 42.16,-63.42 42.95,-63.05 45.53,-62.11 45.18,-61.92 47.11,-61 48.56,-60.17 48.3,-60.14 49.27,-59.9 51.12,-58.51 52.07,-57.79 52.59,-57.84 55.37,-55.71 54.49,-56.26 55.47,-55.56 57.66,-53.91 58.91,-53.02 60.17,-51.9 59.25,-52.63 60.91,-51.26 61.57,-50.65 62.63,-49.69 64.91,-47.64 65.66,-46.68 66.44,-45.79 67.86,-44.71 67.57,-44.73 68.43,-43.72 69.46,-42.45 69.61,-42.33 70.8,-40.77 71.62,-39.96 71.63,-39.44 73.13,-37.67 73.58,-37.15 74.1,-36.34 75.44,-34.46 75.52,-34.09 76.6,-32.37 76.44,-32.89 77.88,-29.63 77.69,-29.87 79.05,-27.85 78.59,-28.37 79.42,-26.72 79.26,-27.52 79.99,-25.12 81.46,-22 81.8,-21.02 81.04,-22.53 82.26,-19.96 82.17,-19.59 82.77,-18.59 82.76,-17.84 82.59,-17.76 83.72,-13.46 83.68,-14.52 84.04,-12.17 83.96,-12.96 84.53,-11.52 84.43,-9.49 84.99,-6.88 84.9,-5.48 84.8,-6.94 85.18,-4.55 85.18,-4.29 85.15,-2.58 85.38,-1.29 85.44,0.51 85.3,2.32" fill="rgb(32, 223, 45)" stroke="black" stroke-width="1.6666666666666665" stroke-linejoin="round" filter="url(#fuzzy)" />
    <g transform="translate(54.36 -19.21)">
      <polyline id="rightCountour" points="-33.46,-9.18 -33.24,-9.79 -33,-10.41 -32.73,-11.03 -32.43,-11.65 -32.09,-12.28 -31.72,-12.9 -31.32,-13.52 -30.89,-14.14 -30.42,-14.75 -29.91,-15.36 -29.37,-15.97 -28.8,-16.57 -28.19,-17.16 -27.55,-17.74 -26.88,-18.31 -26.33,-19.01 -25.72,-19.7 -25.04,-20.37 -24.3,-21.04 -23.5,-21.68 -22.64,-22.31 -21.72,-22.92 -20.75,-23.51 -19.72,-24.08 -18.64,-24.61 -17.51,-25.13 -16.34,-25.61 -15.13,-26.06 -13.88,-26.48 -12.59,-26.86 -11.27,-27.22 -9.93,-27.53 -8.56,-27.82 -7.17,-28.06 -5.77,-28.27 -4.35,-28.44 -2.93,-28.57 -1.5,-28.66 -0.07,-28.71 1.36,-28.73 2.78,-28.7 4.2,-28.64 5.6,-28.54 6.99,-28.4 8.35,-28.23 9.7,-28.02 11.03,-27.77 12.33,-27.49 13.6,-27.18 14.84,-26.83 16.05,-26.45 17.22,-26.04 18.37,-25.61 19.47,-25.15 20.54,-24.66 21.57,-24.15 22.57,-23.61 23.52,-23.06 24.44,-22.48 25.32,-21.89 26.16,-21.29 26.96,-20.67 27.73,-20.04 28.46,-19.4 29.16,-18.76 29.83,-18.1 30.46,-17.44 31.06,-16.76 31.63,-16.07 32.16,-15.37 32.66,-14.66 33.13,-13.95 33.57,-13.22 33.98,-12.5 34.36,-11.76 34.71,-11.02 35.03,-10.28 35.32,-9.53 35.58,-8.78 34.36,3.25 33.81,4.04 33.23,4.84 32.64,5.63 32.02,6.43 31.38,7.23 30.73,8.03 30.05,8.83 29.35,9.63 28.63,10.42 27.9,11.21 27.14,12 26.36,12.79 25.57,13.57 24.75,14.34 23.91,15.11 23.06,15.88 22.18,16.64 21.27,17.4 20.35,18.16 19.4,18.9 18.44,19.64 17.45,20.36 16.44,21.07 15.42,21.76 14.38,22.43 13.32,23.08 12.24,23.7 11.16,24.31 10.06,24.88 8.94,25.43 7.82,25.94 6.69,26.43 5.55,26.87 4.4,27.28 3.25,27.66 2.1,27.99 0.94,28.28 -0.21,28.53 -1.36,28.73 -2.51,28.88 -3.65,28.99 -4.79,29.05 -5.91,29.06 -7.02,29.02 -8.13,28.93 -9.21,28.79 -10.29,28.6 -11.34,28.35 -12.38,28.05 -13.39,27.7 -14.38,27.3 -15.35,26.85 -16.3,26.34 -17.21,25.79 -18.1,25.18 -18.97,24.53 -19.8,23.83 -20.6,23.09 -21.38,22.31 -22.12,21.48 -22.83,20.62 -23.5,19.73 -24.15,18.8 -24.76,17.84 -25.38,17.14 -25.98,16.42 -26.56,15.69 -27.12,14.95 -27.66,14.19 -28.18,13.42 -28.68,12.64 -29.16,11.85 -29.62,11.06 -30.06,10.27 -30.48,9.48 -30.88,8.68 -31.25,7.9 -31.61,7.12 -31.95,6.35" fill="white" stroke="white" stroke-width="0" stroke-linejoin="round" filter="url(#fuzzy)" />
    </g>
    <g transform="translate(-54.510000000000005 -16.43)">
      <polyline id="leftCountour" points="33.47,-5 33.25,-5.56 32.99,-6.11 32.7,-6.68 32.38,-7.25 32.03,-7.83 31.64,-8.42 31.21,-9.01 30.75,-9.6 30.26,-10.19 29.73,-10.79 29.16,-11.39 28.56,-11.98 27.92,-12.58 27.24,-13.18 26.53,-13.77 25.96,-14.43 25.32,-15.09 24.61,-15.76 23.84,-16.43 23,-17.1 22.1,-17.77 21.13,-18.43 20.1,-19.08 19.02,-19.71 17.89,-20.34 16.7,-20.95 15.47,-21.53 14.19,-22.1 12.87,-22.64 11.52,-23.16 10.14,-23.65 8.73,-24.1 7.29,-24.53 5.84,-24.92 4.37,-25.28 2.88,-25.6 1.4,-25.89 -0.1,-26.14 -1.59,-26.34 -3.07,-26.51 -4.55,-26.63 -6.02,-26.72 -7.47,-26.76 -8.91,-26.77 -10.32,-26.73 -11.72,-26.65 -13.08,-26.53 -14.42,-26.37 -15.72,-26.18 -17,-25.94 -18.24,-25.67 -19.44,-25.37 -20.6,-25.03 -21.73,-24.66 -22.82,-24.26 -23.87,-23.83 -24.88,-23.37 -25.85,-22.89 -26.77,-22.38 -27.66,-21.86 -28.51,-21.32 -29.33,-20.76 -30.1,-20.19 -30.84,-19.61 -31.55,-19.03 -32.22,-18.43 -32.86,-17.82 -33.47,-17.19 -34.04,-16.56 -34.58,-15.91 -35.09,-15.26 -35.57,-14.6 -36.01,-13.93 -36.43,-13.26 -36.82,-12.58 -37.18,-11.9 -37.51,-11.21 -37.81,-10.53 -38.09,-9.84 -34.55,3.76 -33.92,4.45 -33.26,5.14 -32.59,5.83 -31.9,6.52 -31.19,7.21 -30.46,7.9 -29.71,8.59 -28.94,9.28 -28.15,9.96 -27.34,10.65 -26.52,11.33 -25.68,12.01 -24.82,12.69 -23.94,13.36 -23.04,14.03 -22.12,14.7 -21.18,15.36 -20.22,16.03 -19.24,16.68 -18.24,17.34 -17.22,17.98 -16.19,18.62 -15.13,19.25 -14.06,19.86 -12.97,20.46 -11.88,21.05 -10.76,21.61 -9.64,22.16 -8.5,22.69 -7.36,23.2 -6.21,23.69 -5.05,24.15 -3.89,24.58 -2.73,24.98 -1.57,25.35 -0.4,25.69 0.76,26 1.92,26.27 3.07,26.51 4.22,26.71 5.36,26.87 6.48,26.98 7.6,27.06 8.7,27.09 9.78,27.09 10.85,27.03 11.9,26.93 12.93,26.79 13.94,26.6 14.92,26.36 15.88,26.07 16.82,25.74 17.72,25.37 18.6,24.94 19.45,24.47 20.28,23.96 21.07,23.4 21.83,22.8 22.56,22.16 23.25,21.48 23.91,20.76 24.55,20 25.14,19.21 25.71,18.39 26.29,17.82 26.86,17.23 27.4,16.62 27.92,16 28.43,15.37 28.91,14.73 29.37,14.07 29.82,13.41 30.24,12.74 30.64,12.07 31.03,11.4 31.39,10.72 31.74,10.05 32.06,9.39 32.37,8.73" fill="white" stroke="white" stroke-width="0" stroke-linejoin="round" filter="url(#fuzzy)" />
    </g>
    <g transform="translate(54.36 -19.21)">
      <polyline id="rightUpper" points="-34.35,-3.52 -34.33,-4.02 -34.3,-4.55 -34.26,-5.09 -34.21,-5.64 -34.14,-6.21 -34.05,-6.78 -33.94,-7.37 -33.8,-7.97 -33.64,-8.57 -33.46,-9.18 -33.24,-9.79 -33,-10.41 -32.73,-11.03 -32.43,-11.65 -32.09,-12.28 -31.72,-12.9 -31.32,-13.52 -30.89,-14.14 -30.42,-14.75 -29.91,-15.36 -29.37,-15.97 -28.8,-16.57 -28.19,-17.16 -27.55,-17.74 -26.88,-18.31 -26.33,-19.01 -25.72,-19.7 -25.04,-20.37 -24.3,-21.04 -23.5,-21.68 -22.64,-22.31 -21.72,-22.92 -20.75,-23.51 -19.72,-24.08 -18.64,-24.61 -17.51,-25.13 -16.34,-25.61 -15.13,-26.06 -13.88,-26.48 -12.59,-26.86 -11.27,-27.22 -9.93,-27.53 -8.56,-27.82 -7.17,-28.06 -5.77,-28.27 -4.35,-28.44 -2.93,-28.57 -1.5,-28.66 -0.07,-28.71 1.36,-28.73 2.78,-28.7 4.2,-28.64 5.6,-28.54 6.99,-28.4 8.35,-28.23 9.7,-28.02 11.03,-27.77 12.33,-27.49 13.6,-27.18 14.84,-26.83 16.05,-26.45 17.22,-26.04 18.37,-25.61 19.47,-25.15 20.54,-24.66 21.57,-24.15 22.57,-23.61 23.52,-23.06 24.44,-22.48 25.32,-21.89 26.16,-21.29 26.96,-20.67 27.73,-20.04 28.46,-19.4 29.16,-18.76 29.83,-18.1 30.46,-17.44 31.06,-16.76 31.63,-16.07 32.16,-15.37 32.66,-14.66 33.13,-13.95 33.57,-13.22 33.98,-12.5 34.36,-11.76 34.71,-11.02 35.03,-10.28 35.32,-9.53 35.58,-8.78 35.81,-8.02 36.02,-7.27 36.2,-6.51 36.36,-5.75 36.49,-4.99 36.6,-4.23 36.68,-3.48 36.74,-2.72 36.78,-1.96 36.8,-1.2" fill="none" stroke="black" stroke-width="1.6666666666666665" stroke-linejoin="round" filter="url(#fuzzy)" />
      <polyline id="rightLower" points="-34.25,-0.14 -34.1,0.36 -33.94,0.9 -33.75,1.48 -33.55,2.1 -33.33,2.74 -33.09,3.42 -32.83,4.12 -32.56,4.85 -32.26,5.59 -31.95,6.35 -31.61,7.12 -31.25,7.9 -30.88,8.68 -30.48,9.48 -30.06,10.27 -29.62,11.06 -29.16,11.85 -28.68,12.64 -28.18,13.42 -27.66,14.19 -27.12,14.95 -26.56,15.69 -25.98,16.42 -25.38,17.14 -24.76,17.84 -24.15,18.8 -23.5,19.73 -22.83,20.62 -22.12,21.48 -21.38,22.31 -20.6,23.09 -19.8,23.83 -18.97,24.53 -18.1,25.18 -17.21,25.79 -16.3,26.34 -15.35,26.85 -14.38,27.3 -13.39,27.7 -12.38,28.05 -11.34,28.35 -10.29,28.6 -9.21,28.79 -8.13,28.93 -7.02,29.02 -5.91,29.06 -4.79,29.05 -3.65,28.99 -2.51,28.88 -1.36,28.73 -0.21,28.53 0.94,28.28 2.1,27.99 3.25,27.66 4.4,27.28 5.55,26.87 6.69,26.43 7.82,25.94 8.94,25.43 10.06,24.88 11.16,24.31 12.24,23.7 13.32,23.08 14.38,22.43 15.42,21.76 16.44,21.07 17.45,20.36 18.44,19.64 19.4,18.9 20.35,18.16 21.27,17.4 22.18,16.64 23.06,15.88 23.91,15.11 24.75,14.34 25.57,13.57 26.36,12.79 27.14,12 27.9,11.21 28.63,10.42 29.35,9.63 30.05,8.83 30.73,8.03 31.38,7.23 32.02,6.43 32.64,5.63 33.23,4.84 33.81,4.04 34.36,3.25 34.9,2.46 35.41,1.67 35.91,0.89 36.38,0.11 36.84,-0.67 37.28,-1.44 37.69,-2.2 38.09,-2.97 38.48,-3.72 38.84,-4.47" fill="none" stroke="black" stroke-width="2.2222222222222223" stroke-linejoin="round" filter="url(#fuzzy)" />
      <circle r="3.89" cx="12.639339146859289" cy="4.726772406641248" stroke="black" fill="none" stroke-width="1.0" filter="url(#fuzzy)" clip-path="url(#rightEyeClipPath)" /><circle r="4.274" cx="12.819339146859289" cy="0.7117724066412485" stroke="black" fill="none" stroke-width="1.0" filter="url(#fuzzy)" clip-path="url(#rightEyeClipPath)" /><circle r="4.046" cx="15.614339146859287" cy="4.186772406641248" stroke="black" fill="none" stroke-width="1.0" filter="url(#fuzzy)" clip-path="url(#rightEyeClipPath)" /><circle r="4.54" cx="16.13933914685929" cy="0.8417724066412484" stroke="black" fill="none" stroke-width="1.0" filter="url(#fuzzy)" clip-path="url(#rightEyeClipPath)" /><circle r="4.4719999999999995" cx="17.179339146859288" cy="3.481772406641248" stroke="black" fill="none" stroke-width="1.0" filter="url(#fuzzy)" clip-path="url(#rightEyeClipPath)" /><circle r="3.828" cx="14.27433914685929" cy="3.8367724066412485" stroke="black" fill="none" stroke-width="1.0" filter="url(#fuzzy)" clip-path="url(#rightEyeClipPath)" /><circle r="4.28" cx="17.27433914685929" cy="3.3717724066412487" stroke="black" fill="none" stroke-width="1.0" filter="url(#fuzzy)" clip-path="url(#rightEyeClipPath)" /><circle r="3.934" cx="14.089339146859288" cy="3.4517724066412487" stroke="black" fill="none" stroke-width="1.0" filter="url(#fuzzy)" clip-path="url(#rightEyeClipPath)" /><circle r="3.71" cx="16.429339146859288" cy="2.3717724066412487" stroke="black" fill="none" stroke-width="1.0" filter="url(#fuzzy)" clip-path="url(#rightEyeClipPath)" /><circle r="3.794" cx="15.614339146859287" cy="4.081772406641249" stroke="black" fill="none" stroke-width="1.0" filter="url(#fuzzy)" clip-path="url(#rightEyeClipPath)" />
      </g>
    <g transform="translate(-54.510000000000005 -16.43)">
      <polyline id="leftUpper" points="34.49,-0.04 34.45,-0.49 34.41,-0.94 34.36,-1.41 34.29,-1.89 34.21,-2.39 34.11,-2.89 33.99,-3.4 33.84,-3.93 33.67,-4.46 33.47,-5 33.25,-5.56 32.99,-6.11 32.7,-6.68 32.38,-7.25 32.03,-7.83 31.64,-8.42 31.21,-9.01 30.75,-9.6 30.26,-10.19 29.73,-10.79 29.16,-11.39 28.56,-11.98 27.92,-12.58 27.24,-13.18 26.53,-13.77 25.96,-14.43 25.32,-15.09 24.61,-15.76 23.84,-16.43 23,-17.1 22.1,-17.77 21.13,-18.43 20.1,-19.08 19.02,-19.71 17.89,-20.34 16.7,-20.95 15.47,-21.53 14.19,-22.1 12.87,-22.64 11.52,-23.16 10.14,-23.65 8.73,-24.1 7.29,-24.53 5.84,-24.92 4.37,-25.28 2.88,-25.6 1.4,-25.89 -0.1,-26.14 -1.59,-26.34 -3.07,-26.51 -4.55,-26.63 -6.02,-26.72 -7.47,-26.76 -8.91,-26.77 -10.32,-26.73 -11.72,-26.65 -13.08,-26.53 -14.42,-26.37 -15.72,-26.18 -17,-25.94 -18.24,-25.67 -19.44,-25.37 -20.6,-25.03 -21.73,-24.66 -22.82,-24.26 -23.87,-23.83 -24.88,-23.37 -25.85,-22.89 -26.77,-22.38 -27.66,-21.86 -28.51,-21.32 -29.33,-20.76 -30.1,-20.19 -30.84,-19.61 -31.55,-19.03 -32.22,-18.43 -32.86,-17.82 -33.47,-17.19 -34.04,-16.56 -34.58,-15.91 -35.09,-15.26 -35.57,-14.6 -36.01,-13.93 -36.43,-13.26 -36.82,-12.58 -37.18,-11.9 -37.51,-11.21 -37.81,-10.53 -38.09,-9.84 -38.34,-9.15 -38.56,-8.47 -38.76,-7.78 -38.94,-7.1 -39.09,-6.42 -39.22,-5.75 -39.33,-5.07 -39.42,-4.4 -39.49,-3.74 -39.54,-3.07" fill="none" stroke="black" stroke-width="2.2222222222222223" stroke-linejoin="round" filter="url(#fuzzy)" />
      <polyline id="leftLower" points="34.49,3.23 34.35,3.65 34.19,4.1 34.02,4.58 33.84,5.1 33.63,5.65 33.42,6.23 33.18,6.83 32.93,7.45 32.66,8.08 32.37,8.73 32.06,9.39 31.74,10.05 31.39,10.72 31.03,11.4 30.64,12.07 30.24,12.74 29.82,13.41 29.37,14.07 28.91,14.73 28.43,15.37 27.92,16 27.4,16.62 26.86,17.23 26.29,17.82 25.71,18.39 25.14,19.21 24.55,20 23.91,20.76 23.25,21.48 22.56,22.16 21.83,22.8 21.07,23.4 20.28,23.96 19.45,24.47 18.6,24.94 17.72,25.37 16.82,25.74 15.88,26.07 14.92,26.36 13.94,26.6 12.93,26.79 11.9,26.93 10.85,27.03 9.78,27.09 8.7,27.09 7.6,27.06 6.48,26.98 5.36,26.87 4.22,26.71 3.07,26.51 1.92,26.27 0.76,26 -0.4,25.69 -1.57,25.35 -2.73,24.98 -3.89,24.58 -5.05,24.15 -6.21,23.69 -7.36,23.2 -8.5,22.69 -9.64,22.16 -10.76,21.61 -11.88,21.05 -12.97,20.46 -14.06,19.86 -15.13,19.25 -16.19,18.62 -17.22,17.98 -18.24,17.34 -19.24,16.68 -20.22,16.03 -21.18,15.36 -22.12,14.7 -23.04,14.03 -23.94,13.36 -24.82,12.69 -25.68,12.01 -26.52,11.33 -27.34,10.65 -28.15,9.96 -28.94,9.28 -29.71,8.59 -30.46,7.9 -31.19,7.21 -31.9,6.52 -32.59,5.83 -33.26,5.14 -33.92,4.45 -34.55,3.76 -35.16,3.07 -35.76,2.39 -36.33,1.7 -36.89,1.02 -37.42,0.35 -37.94,-0.33 -38.44,-1 -38.93,-1.67 -39.39,-2.34 -39.84,-3" fill="none" stroke="black" stroke-width="2.2222222222222223" stroke-linejoin="round" filter="url(#fuzzy)" />
      <circle r="3.058" cx="-22.12292691410523" cy="0.031154566152184593" stroke="black" fill="none" stroke-width="1.0" filter="url(#fuzzy)" clip-path="url(#leftEyeClipPath)" /><circle r="3.846" cx="-23.99792691410523" cy="1.8611545661521847" stroke="black" fill="none" stroke-width="1.0" filter="url(#fuzzy)" clip-path="url(#leftEyeClipPath)" /><circle r="4.352" cx="-22.68792691410523" cy="-2.1488454338478156" stroke="black" fill="none" stroke-width="1.0" filter="url(#fuzzy)" clip-path="url(#leftEyeClipPath)" /><circle r="3.468" cx="-25.01292691410523" cy="1.021154566152184" stroke="black" fill="none" stroke-width="1.0" filter="url(#fuzzy)" clip-path="url(#leftEyeClipPath)" /><circle r="3.618" cx="-25.56292691410523" cy="0.19115456615218474" stroke="black" fill="none" stroke-width="1.0" filter="url(#fuzzy)" clip-path="url(#leftEyeClipPath)" /><circle r="3.964" cx="-21.83792691410523" cy="0.8811545661521847" stroke="black" fill="none" stroke-width="1.0" filter="url(#fuzzy)" clip-path="url(#leftEyeClipPath)" /><circle r="3.48" cx="-25.06292691410523" cy="-1.9688454338478156" stroke="black" fill="none" stroke-width="1.0" filter="url(#fuzzy)" clip-path="url(#leftEyeClipPath)" /><circle r="3.842" cx="-25.62292691410523" cy="-0.6538454338478159" stroke="black" fill="none" stroke-width="1.0" filter="url(#fuzzy)" clip-path="url(#leftEyeClipPath)" /><circle r="4.982" cx="-21.99792691410523" cy="-1.9938454338478155" stroke="black" fill="none" stroke-width="1.0" filter="url(#fuzzy)" clip-path="url(#leftEyeClipPath)" /><circle r="4.618" cx="-24.85292691410523" cy="1.2861545661521845" stroke="black" fill="none" stroke-width="1.0" filter="url(#fuzzy)" clip-path="url(#leftEyeClipPath)" />
    </g>
    <g id="hairs">
      <polyline points="-40.66,-64.2 -39.88,-64.54 -38.43,-65.08 -36.81,-65.64 -34.94,-66.25 -32.78,-66.93 -30.41,-67.65 -28.02,-68.35 -25.72,-69 -23.57,-69.59 -21.58,-70.12 -19.74,-70.6 -18.1,-71.03 -16.77,-71.38 -15.88,-71.62 -15.58,-71.74 -15.91,-71.76" fill="none" stroke="rgb(27, 19, 134)" stroke-width="2" stroke-linejoin="round" filter="url(#fuzzy)" /><polyline points="22.81,-70.43 24.01,-70.15 24.7,-69.8 24.93,-69.4 24.55,-68.99 23.36,-68.6 21.28,-68.27 18.34,-67.94 14.59,-67.58 10.03,-67.14 4.5,-66.64 -2.12,-66.12 -9.85,-65.64 -18.63,-65.25 -28.64,-64.88" fill="none" stroke="rgb(27, 19, 134)" stroke-width="2" stroke-linejoin="round" filter="url(#fuzzy)" /><polyline points="-17.16,-71.78 -16.17,-71.82 -14.42,-71.93 -12.36,-72.09 -10.23,-72.23 -8.12,-72.36 -6.05,-72.46 -4,-72.55 -1.97,-72.62 -0.01,-72.68 1.78,-72.72 3.32,-72.77 4.54,-72.83 5.39,-72.89 5.8,-72.95 5.68,-73.02 5.19,-73.07" fill="none" stroke="rgb(27, 19, 134)" stroke-width="2" stroke-linejoin="round" filter="url(#fuzzy)" /><polyline points="54.49,-56.26 55.71,-55.36 57,-54.39 57.98,-53.62 58.6,-53.1 58.94,-52.74 59.11,-52.48 59.13,-52.29 58.98,-52.18 58.56,-52.22 57.8,-52.51 56.6,-53.11 54.88,-54.07 52.62,-55.4 49.76,-57.11 46.25,-59.21 41.93,-61.76 36.58,-64.87" fill="none" stroke="rgb(27, 19, 134)" stroke-width="2" stroke-linejoin="round" filter="url(#fuzzy)" /><polyline points="18.55,-71.32 18.52,-71.35 18.9,-71.13 19.03,-70.82 18.9,-70.42 18.54,-69.91 17.88,-69.31 16.84,-68.6 15.32,-67.79 13.23,-66.9 10.5,-65.92 7.11,-64.86 3.08,-63.71 -1.56,-62.46 -6.77,-61.1 -12.59,-59.63 -19.12,-58.05 -26.42,-56.35 -34.51,-54.56 -43.44,-52.67 -53.31,-50.6" fill="none" stroke="rgb(27, 19, 134)" stroke-width="2" stroke-linejoin="round" filter="url(#fuzzy)" /><polyline points="17.58,-71.66 19.38,-71.26 20.21,-71.06 20.86,-70.88 21.49,-70.68 22.03,-70.47 22.32,-70.26 22.27,-70.08 21.75,-69.96 20.67,-69.91 18.96,-69.95 16.6,-70.08 13.63,-70.27 10.06,-70.49 5.87,-70.78 1,-71.19 -4.77,-71.73" fill="none" stroke="rgb(27, 19, 134)" stroke-width="2" stroke-linejoin="round" filter="url(#fuzzy)" /><polyline points="-45.16,-62 -42.89,-63.19 -41.42,-63.89 -40.3,-64.39 -39.39,-64.78 -38.58,-65.12 -37.83,-65.41 -37.13,-65.65 -36.53,-65.81 -36.11,-65.84 -35.96,-65.72 -36.09,-65.43 -36.51,-64.99 -37.23,-64.38 -38.26,-63.61 -39.65,-62.66 -41.44,-61.49 -43.62,-60.1 -46.21,-58.49 -49.19,-56.64 -52.62,-54.53 -56.58,-52.15 -61.07,-49.5" fill="none" stroke="rgb(27, 19, 134)" stroke-width="2" stroke-linejoin="round" filter="url(#fuzzy)" /><polyline points="48.3,-60.14 49.05,-59.65 49.13,-59.03 48.32,-58.51 46.55,-58.11 43.77,-57.82 40,-57.62 35.21,-57.51 29.37,-57.48 22.35,-57.57 14.04,-57.79 4.36,-58.16 -6.67,-58.63 -18.93,-59.24 -32.3,-60.12" fill="none" stroke="rgb(27, 19, 134)" stroke-width="2" stroke-linejoin="round" filter="url(#fuzzy)" /><polyline points="60.91,-51.26 61.74,-50.5 62.84,-49.47 63.92,-48.42 64.78,-47.54 65.37,-46.9 65.67,-46.5 65.69,-46.31 65.47,-46.32 64.99,-46.52 64.26,-46.92 63.26,-47.54 61.96,-48.39 60.33,-49.53 58.32,-50.98 55.89,-52.78 52.99,-54.95 49.63,-57.49 45.98,-60.38" fill="none" stroke="rgb(27, 19, 134)" stroke-width="2" stroke-linejoin="round" filter="url(#fuzzy)" /><polyline points="-18.14,-71.63 -17.22,-71.74 -16.03,-71.84 -14.53,-71.99 -12.92,-72.17 -11.38,-72.36 -9.98,-72.53 -8.73,-72.67 -7.62,-72.8 -6.65,-72.9 -5.86,-72.96 -5.28,-72.99 -4.97,-72.98 -4.96,-72.94 -5.29,-72.85 -6.02,-72.73 -7.18,-72.57 -8.83,-72.38 -10.91,-72.17 -13.39,-71.94 -16.29,-71.66" fill="none" stroke="rgb(27, 19, 134)" stroke-width="2" stroke-linejoin="round" filter="url(#fuzzy)" /><polyline points="33.22,-67.49 32.29,-67.76 33.43,-67.25 35.3,-66.45 37.24,-65.59 39.07,-64.75 40.77,-63.93 42.34,-63.15 43.77,-62.4 45.09,-61.72 46.28,-61.1 47.35,-60.54 48.29,-60.06 49.06,-59.67 49.61,-59.4 49.9,-59.26 49.94,-59.26 49.74,-59.4 49.31,-59.66 48.59,-60.07 47.36,-60.76" fill="none" stroke="rgb(27, 19, 134)" stroke-width="2" stroke-linejoin="round" filter="url(#fuzzy)" /><polyline points="65.66,-46.68 66.45,-45.87 67.01,-45.26 67.34,-44.76 67.51,-44.33 67.53,-43.96 67.38,-43.68 67.05,-43.5 66.48,-43.45 65.65,-43.55 64.54,-43.82 63.11,-44.27 61.37,-44.91 59.29,-45.76 56.87,-46.84 54.09,-48.14 50.92,-49.69 47.34,-51.51 43.32,-53.61 38.85,-56.03 33.91,-58.78 28.44,-61.87 22.42,-65.26 16.12,-68.92" fill="none" stroke="rgb(27, 19, 134)" stroke-width="2" stroke-linejoin="round" filter="url(#fuzzy)" /><polyline points="-22.94,-70.48 -21.76,-70.7 -20.03,-71.07 -18.27,-71.4 -16.57,-71.66 -14.88,-71.87 -13.15,-72.06 -11.44,-72.25 -9.85,-72.43 -8.44,-72.6 -7.26,-72.75 -6.33,-72.87 -5.65,-72.96 -5.26,-73.01 -5.24,-73.02 -5.64,-72.98 -6.45,-72.9 -7.6,-72.78 -9.25,-72.61" fill="none" stroke="rgb(27, 19, 134)" stroke-width="2" stroke-linejoin="round" filter="url(#fuzzy)" /><polyline points="52.59,-57.84 53.91,-56.66 53.88,-56.2 53.26,-55.89 52.04,-55.67 50.01,-55.66 47.03,-55.92 43.08,-56.46 38.19,-57.23 32.35,-58.17 25.53,-59.29 17.68,-60.64 8.79,-62.35 -1.18,-64.48 -12.45,-67.02" fill="none" stroke="rgb(27, 19, 134)" stroke-width="2" stroke-linejoin="round" filter="url(#fuzzy)" /><polyline points="10.49,-72.72 10.39,-72.67 11.24,-72.44 12.09,-72.14 12.6,-71.82 12.76,-71.46 12.58,-71.06 12.05,-70.61 11.14,-70.1 9.85,-69.53 8.17,-68.88 6.13,-68.14 3.7,-67.31 0.84,-66.38 -2.52,-65.35 -6.44,-64.21 -11,-62.96 -16.23,-61.62 -22.11,-60.19 -28.55,-58.7 -35.5,-57.16 -42.99,-55.57 -51.25,-53.79" fill="none" stroke="rgb(27, 19, 134)" stroke-width="2" stroke-linejoin="round" filter="url(#fuzzy)" /><polyline points="2.43,-73.31 3.72,-73.18 4.69,-73.11 5.73,-73.04 6.93,-72.95 8.16,-72.83 9.31,-72.71 10.27,-72.56 10.99,-72.42 11.45,-72.29 11.61,-72.17 11.47,-72.06 10.99,-71.97 10.15,-71.9 8.93,-71.83 7.33,-71.76 5.36,-71.7 2.98,-71.63 0.1,-71.56 -3.39,-71.51 -7.54,-71.49 -12.26,-71.55" fill="none" stroke="rgb(27, 19, 134)" stroke-width="2" stroke-linejoin="round" filter="url(#fuzzy)" /><polyline points="-4.33,-73.26 -0.96,-69.03 1.27,-64.68 6.91,-61.39 10.89,-59.18 13.48,-58.31 15.99,-58.63 18.1,-59.61 18.4,-60.89 15.81,-62.42 10.73,-64.19 5.19,-65.92 1.83,-67.06 2.32,-67 6.02,-65.44 10.23,-62.66 12.37,-59.68 13.74,-57.87 20.31,-57.85 32.29,-59.6 17.58,-71.66" fill="none" stroke="rgb(27, 19, 134)" stroke-width="2" stroke-linejoin="round" filter="url(#fuzzy)" /><polyline points="58.91,-53.02 56.91,-49.02 36.95,-55.32 21.87,-58.96 17.6,-59.14 17.94,-58.55 16.25,-59.02 11.53,-60.67 6.79,-62.7 4.32,-64.28 3.15,-65.03 0.57,-65.09 -4.2,-64.95 -7.74,-65.01 -3.13,-65.16 16.67,-64.8 47.11,-61" fill="none" stroke="rgb(27, 19, 134)" stroke-width="2" stroke-linejoin="round" filter="url(#fuzzy)" /><polyline points="-60.78,-51.31 -3.22,-58.16 11.99,-58.5 12.66,-60.55 12.25,-63.71 13.73,-66.18 17.22,-66.76 22.21,-65.12 27.47,-61.75 31.11,-57.74 31.47,-54.34 28.1,-52.36 22.2,-51.87 16.01,-52.38 11.64,-53.26 9.74,-54.18 8.95,-55.16 6.74,-56.28 2.09,-57.41 -1.61,-58.22 3.1,-58.51 20.34,-58.43 38.24,-59.38 24.55,-70.16" fill="none" stroke="rgb(27, 19, 134)" stroke-width="2" stroke-linejoin="round" filter="url(#fuzzy)" /><polyline points="-16.66,-71.77 21.8,-54.57 11.82,-57.61 1.4,-60.89 -2.1,-60.93 -3.55,-58.92 -7.21,-56.85 -13.98,-55.93 -22.04,-56.29 -27.88,-57.41 -27.95,-58.83 -20.63,-60.4 -7.36,-61.93 7.64,-62.49 17.89,-60.64 9.29,-56.33 -57.16,-54.53" fill="none" stroke="rgb(27, 19, 134)" stroke-width="2" stroke-linejoin="round" filter="url(#fuzzy)" /><polyline points="48.3,-60.14 12.52,-66.42 2.59,-62.95 8.97,-56.65 18.41,-52.35 20.83,-51.46 15.24,-53.19 6.78,-55.93 0.92,-58.27 -0.27,-59.52 1.85,-59.72 4.84,-59.32 7.61,-58.69 11,-57.89 16.37,-56.8 23.48,-55.45 29.76,-54.15 31.48,-53.43 26.27,-53.72 15.68,-55.01 8.73,-55.92 24.79,-51.65 78.59,-28.37" fill="none" stroke="rgb(27, 19, 134)" stroke-width="2" stroke-linejoin="round" filter="url(#fuzzy)" /><polyline points="2.43,-73.31 -5.49,-62.63 3.47,-53.64 11.06,-49.42 14.76,-50.34 14.05,-53.9 11.39,-56.87 9.18,-57.52 7.52,-56.07 5.66,-53.92 4.46,-52.49 5.89,-52.48 9.64,-53.93 10.8,-56.46 2.73,-58.98 -16.95,-59.05 -44.21,-54.06 -64.09,-48.42" fill="none" stroke="rgb(27, 19, 134)" stroke-width="2" stroke-linejoin="round" filter="url(#fuzzy)" /><polyline points="-46.3,-61.71 -9.83,-59.77 -12.86,-61.06 -18.06,-63.62 -21.39,-65.07 -21.96,-65.5 -18.89,-66.09 -13.09,-67.46 -7.31,-69.24 -4.25,-70.61 -4.49,-71.09 -6.01,-70.79 -6.11,-70.19 -5.8,-69.57 -14.71,-68.01 -46.3,-61.71" fill="none" stroke="rgb(27, 19, 134)" stroke-width="2" stroke-linejoin="round" filter="url(#fuzzy)" /><polyline points="-22.94,-70.48 -26.49,-63.72 -4.56,-62.51 12.98,-60.07 21.78,-56.68 26.64,-53.32 31.5,-50.61 36.79,-48.93 40.72,-48.64 41.53,-49.95 39.05,-52.65 34.72,-56.05 30.28,-59.27 26.08,-61.67 20.61,-62.98 11.47,-63.19 -2.51,-62.4 -19.53,-61.01 -34.6,-60.08 -42.38,-60.8 -43.05,-62.61 -44.8,-62.16" fill="none" stroke="rgb(27, 19, 134)" stroke-width="2" stroke-linejoin="round" filter="url(#fuzzy)" /><polyline points="22.81,-70.43 34.24,-56.37 32.86,-53.6 35.99,-52.59 37.72,-52.84 35.92,-53.83 31.44,-54.95 25.53,-56.21 19.62,-57.82 15.76,-59.62 15.81,-60.9 19.73,-61.11 24.66,-60.6 26.49,-60.53 23.73,-61.8 20.75,-63.71 25.73,-64.06 40.33,-61.65 48.3,-60.14" fill="none" stroke="rgb(27, 19, 134)" stroke-width="2" stroke-linejoin="round" filter="url(#fuzzy)" /><polyline points="-58.73,-53.46 -0.23,-57.19 27.21,-56.4 35.33,-58.51 37.03,-60.43 37.72,-60.41 38.66,-58.6 39.74,-55.99 40.45,-53.71 40.18,-52.57 38.5,-52.74 35.19,-53.74 29.96,-54.81 22.32,-55.42 12.39,-55.49 2.44,-55.12 -2.16,-54.07 4.74,-52.05 23.33,-49.99 44,-49.38 73.13,-37.67" fill="none" stroke="rgb(27, 19, 134)" stroke-width="2" stroke-linejoin="round" filter="url(#fuzzy)" /><polyline points="-12.11,-72.32 -2.46,-72.22 4.47,-67.76 6.41,-60.48 1.65,-54.82 -4.36,-53.05 -5.85,-54.42 -2.07,-56.9 3.84,-58.93 8.81,-60 12.19,-60.4 14.96,-60.67 17.76,-61.17 20.13,-61.92 21.26,-62.61 19.54,-62.98 9.56,-63.23 -17.01,-63.06 -53.03,-57.37" fill="none" stroke="rgb(27, 19, 134)" stroke-width="2" stroke-linejoin="round" filter="url(#fuzzy)" /><polyline points="83.96,-12.96 84.52,-11.39 85.36,-9.69 86.67,-8.26 88.03,-7.16 89.08,-6.22 89.72,-5.27 90.04,-4.21 90.22,-3.02 90.48,-1.72 90.99,-0.35 91.86,1.05 93.05,2.45 94.46,3.84 95.97,5.21 97.54,6.53 99.2,7.81 100.95,9.03 102.68,10.23 104.07,11.47 105.32,13.07 108.04,15.85" fill="none" stroke="rgb(27, 19, 134)" stroke-width="2" stroke-linejoin="round" filter="url(#fuzzy)" /><polyline points="-9.19,-72.78 -9.46,-73.5 -10.67,-75.33 -12.12,-76.32 -13.54,-76.15 -14.93,-75.54 -16.36,-75.17 -17.9,-75.38 -19.58,-76.21 -21.37,-77.5 -23.23,-79.08 -25.11,-80.77 -26.98,-82.44 -28.85,-83.95 -30.73,-85.15 -32.56,-85.89 -34.3,-86.09 -35.94,-85.86 -37.53,-85.48 -39.22,-85.24 -41.22,-85.35 -43.83,-85.91 -47.26,-86.96 -51.27,-88.32 -8.83,-72.67 -9.95,-72.54 -11.38,-72.32 -12.86,-72.1 -14.3,-71.9 -15.67,-71.71 -16.98,-71.51 -18.24,-71.26 -19.46,-70.98 -20.62,-70.66 -21.72,-70.31 -22.77,-69.95 -23.82,-69.58 -24.91,-69.19 -26.07,-68.8 -27.29,-68.41 -28.52,-68.02 -29.75,-67.61 -30.98,-67.16 -32.27,-66.63 -33.68,-66 -35.21,-65.29 -36.58,-64.63 -37.07,-64.18 -15.25,-71.86 -16.77,-73.54 -18.06,-74.59 -19.2,-74.23 -20.4,-73.58 -21.72,-73.4 -23.14,-73.85 -24.61,-74.66 -26.13,-75.49 -27.69,-76.11 -29.26,-76.47 -30.83,-76.58 -32.37,-76.5 -33.85,-76.24 -35.31,-75.81 -36.77,-75.24 -38.29,-74.64 -39.88,-74.16 -41.46,-73.93 -42.99,-73.95 -44.49,-74.11 -46.13,-74.35 -47.43,-74.89 -22.94,-70.48 -24.5,-73.99 -25.17,-73.05 -26.12,-71.69 -27.36,-70.82 -28.77,-70.43 -30.3,-70.42 -32,-70.73 -33.91,-71.34 -36.03,-72.19 -38.23,-73.15 -40.39,-74.04 -42.39,-74.71 -44.15,-75.03 -45.73,-74.99 -47.21,-74.65 -48.76,-74.24 -50.53,-74.02 -52.6,-74.21 -54.92,-74.84 -57.34,-75.72 -59.73,-76.54 -62.04,-77.16 -64.15,-77.79 -64.41,-78.32 -33.33,-67.28 -34.74,-65.13 -36.18,-64.71 -37.19,-64.35 -37.88,-63.59 -38.45,-62.46 -39.02,-61.14 -39.65,-59.82 -40.31,-58.57 -40.92,-57.35 -41.41,-56.13 -41.76,-54.88 -42.05,-53.65 -42.35,-52.49 -42.73,-51.5 -43.24,-50.69 -43.87,-49.97 -44.54,-49.18 -45.19,-48.19 -45.73,-47.04 -45.63,-45.73" fill="none" stroke="rgb(27, 19, 134)" stroke-width="2" stroke-linejoin="round" filter="url(#fuzzy)" /><polyline points="-20.56,-81.19 -22.57,-80.92 -24.03,-80.01 -24.98,-78.99 -25.74,-78.06 -26.57,-77.17 -27.5,-76.13 -28.47,-74.85 -29.42,-73.43 -30.39,-72.11 -31.46,-71.16 -32.73,-70.65 -34.19,-70.37 -35.73,-69.87 -37.12,-68.76 -38.06,-67.19 -37.82,-65.48" fill="none" stroke="rgb(27, 19, 134)" stroke-width="2" stroke-linejoin="round" filter="url(#fuzzy)" /><polyline points="74.46,5.57 75.22,4.04 75.81,2.76 76.51,1.63 77.36,0.49 78.26,-0.7 79.12,-1.88 79.91,-3.01 80.61,-4.06 81.27,-5.05 81.9,-6.03 82.49,-7.11 82.95,-8.31 83.18,-9.62 83.13,-10.88 82.81,-11.95 82.41,-12.75 82.34,-13.34 83.72,-13.46" fill="none" stroke="rgb(27, 19, 134)" stroke-width="2" stroke-linejoin="round" filter="url(#fuzzy)" /><polyline points="-44.8,-62.16 -46.23,-61.57 -47.21,-61.17 -48.23,-60.72 -49.23,-60.26 -50.18,-59.78 -51.11,-59.24 -52.09,-58.61 -53.17,-57.91 -54.35,-57.18 -55.58,-56.46 -56.77,-55.77 -57.82,-55.18 -58.68,-54.71 -59.4,-54.4 -59.71,-54.35" fill="none" stroke="rgb(27, 19, 134)" stroke-width="2" stroke-linejoin="round" filter="url(#fuzzy)" /><polyline points="-47.03,-60.95 -45.66,-61.98 -44.72,-63.16 -43.94,-64.74 -43.46,-66.77 -43.24,-69.06 -43.09,-71.27 -42.78,-73.16 -42.21,-74.78 -41.41,-76.31 -40.42,-77.88 -39.34,-79.49 -38.24,-81.02 -37.16,-82.4 -36.12,-83.72 -35.15,-85.31 -34.31,-87.67 -33.78,-91.81 -59.69,-46.21 -59.03,-47.83 -58.72,-48.83 -58.23,-49.73 -57.55,-50.53 -56.8,-51.25 -56.08,-51.94 -55.42,-52.74 -54.78,-53.68 -54.11,-54.74 -53.34,-55.82 -52.47,-56.84 -51.55,-57.71 -50.62,-58.4 -49.7,-58.92 -48.8,-59.42 -47.79,-60.25 -46.3,-61.71 -55.24,-56.02 -56.13,-55.46 -57.21,-54.91 -58.24,-54.53 -59.27,-54.15 -60.33,-53.71 -61.45,-53.21 -62.6,-52.68 -63.77,-52.12 -64.95,-51.52 -66.13,-50.89 -67.28,-50.24 -68.35,-49.58 -69.28,-48.88 -70.08,-48.1 -70.84,-47.24 -71.7,-46.33 -72.68,-45.49 -73.61,-44.91 -74.29,-44.54 -69.46,-46.47 -68.72,-47.42 -67.89,-48.07 -66.94,-48.69 -65.81,-49.3 -64.59,-49.9 -63.4,-50.5 -62.33,-51.14 -61.37,-51.83 -60.48,-52.53 -59.61,-53.21 -58.74,-53.77 -57.86,-54.23 -56.96,-54.71 -56,-55.36 -55.24,-56.02 -65.3,-47.36 -65.57,-46.57 -66.11,-45.89 -66.77,-45.13 -67.47,-44.27 -68.2,-43.37 -68.92,-42.48 -69.6,-41.61 -70.23,-40.71 -70.82,-39.77 -71.37,-38.8 -71.89,-37.82 -72.41,-36.87 -72.96,-35.89 -73.55,-34.79 -74.17,-33.57 -74.54,-32.88" fill="none" stroke="rgb(27, 19, 134)" stroke-width="2" stroke-linejoin="round" filter="url(#fuzzy)" /><polyline points="-69.6,-42.75 -71.41,-42.43 -74.18,-42.47 -76.24,-42.17 -77.33,-41.36 -77.85,-40.27 -78.31,-39.12 -79.04,-38.06 -80.3,-37.18 -82.1,-36.5 -84.31,-35.92 -86.59,-35.32 -88.6,-34.6 -90.14,-33.7 -91.2,-32.69 -92.04,-31.66 -93,-30.73 -94.35,-29.94 -96.13,-29.25 -98.15,-28.59 -100.11,-27.91 -101.8,-27.21 -103.23,-26.48 -104.43,-25.64 -104.69,-24.57" fill="none" stroke="rgb(27, 19, 134)" stroke-width="2" stroke-linejoin="round" filter="url(#fuzzy)" /><polyline points="-79.57,-26.55 -84.84,-26.81 -85.98,-25.63 -86.03,-24.39 -86.25,-23.34 -86.81,-22.38 -87.53,-21.34 -88.26,-20.15 -88.99,-18.88 -89.82,-17.64 -90.79,-16.49 -91.94,-15.43 -93.26,-14.42 -94.77,-13.39 -96.53,-12.32 -98.48,-11.29 -100.32,-10.46 -101.72,-10.08 -102.47,-10.2" fill="none" stroke="rgb(27, 19, 134)" stroke-width="2" stroke-linejoin="round" filter="url(#fuzzy)" /><polyline points="63.54,-38.63 65.02,-37.85 66.17,-37.21 67.32,-36.61 68.4,-35.94 69.41,-35.2 70.39,-34.42 71.35,-33.63 72.29,-32.82 73.18,-31.98 74.01,-31.12 74.79,-30.25 75.5,-29.4 76.11,-28.56 76.61,-27.75 77.09,-26.96 77.68,-26.13 78.53,-25.2 79.6,-24.08 80.63,-22.87 81.21,-22.04 81.04,-22.53 77.88,-29.63 78.32,-29.39 79.38,-28.97 80.27,-28.46 80.9,-27.76 81.48,-26.83 82.15,-25.73 82.91,-24.59 83.65,-23.52 84.29,-22.55 84.83,-21.68 85.34,-20.85 85.94,-20.04 86.69,-19.2 87.58,-18.27 88.47,-17.17 89.15,-15.9 89.54,-14.59 90.29,-13.07 102.28,-14.8 100.96,-16.44 99.5,-17.71 97.77,-18.94 96.05,-20 94.43,-20.88 92.87,-21.61 91.3,-22.26 89.73,-22.89 88.23,-23.58 86.9,-24.44 85.9,-25.5 85.28,-26.73 84.92,-27.96 84.46,-28.97 83.49,-29.63 81.89,-30 79.96,-30.36 78.1,-31.07 76.44,-32.89 73.58,-37.15 72.18,-37.57 71.49,-38.56 70.77,-39.46 69.89,-40.22 68.95,-40.9 68.07,-41.59 67.29,-42.29 66.55,-42.98 65.75,-43.65 64.8,-44.28 63.65,-44.89 62.31,-45.51 60.87,-46.16 59.42,-46.81 58.04,-47.4 56.74,-47.82 55.5,-47.99 54.31,-47.98 53.14,-48.06 51.35,-48.01" fill="none" stroke="rgb(27, 19, 134)" stroke-width="2" stroke-linejoin="round" filter="url(#fuzzy)" /><polyline points="70.8,-40.77 70.05,-41.94 69.46,-42.82 69.01,-43.72 68.64,-44.66 68.19,-45.59 67.54,-46.53 66.71,-47.52 65.79,-48.58 64.86,-49.72 63.99,-50.88 63.2,-51.98 62.45,-52.99 61.7,-53.9 60.89,-54.75 60.02,-55.61 59.1,-56.5 58.16,-57.4 57.22,-58.28 56.3,-59.13 55.37,-59.99 54.43,-60.92 53.39,-61.93 51.89,-63.09 69.46,-42.45 68.76,-41.28 68.62,-39.99 68.98,-38.94 69.21,-37.84 69.11,-36.55 68.96,-35.23 69.11,-34.04 69.59,-33.04 70.13,-32.1 70.34,-31.06 70.03,-29.81 69.25,-28.35 68.28,-26.81 67.48,-25.4 67.16,-24.42 67.15,-24.24" fill="none" stroke="rgb(27, 19, 134)" stroke-width="2" stroke-linejoin="round" filter="url(#fuzzy)" /><polyline points="64.91,-47.64 65.79,-46.85 67.23,-46.48 69.34,-46.65 71.67,-47.02 73.67,-47.14 75.12,-46.83 76.11,-46.15 76.89,-45.27 77.72,-44.37 78.77,-43.54 80.12,-42.83 81.72,-42.23 83.49,-41.65 85.44,-41.09 87.63,-40.61 89.06,-40.21" fill="none" stroke="rgb(27, 19, 134)" stroke-width="2" stroke-linejoin="round" filter="url(#fuzzy)" /><polyline points="55.47,-55.56 54.84,-55.96 54.01,-56.27 52.77,-56.55 51.38,-56.82 50.04,-57.15 48.81,-57.51 47.67,-57.84 46.51,-58.05 45.24,-58.06 43.79,-57.85 42.18,-57.42 40.52,-56.88 38.97,-56.39 37.65,-56.09 36.5,-55.96 35.3,-55.8 33.83,-55.38 32.39,-54.86" fill="none" stroke="rgb(27, 19, 134)" stroke-width="2" stroke-linejoin="round" filter="url(#fuzzy)" /><polyline points="49.27,-59.9 51.03,-59.16 52.8,-59 54.7,-59.14 56.42,-59.13 57.84,-58.79 59.05,-58.19 60.15,-57.43 61.18,-56.62 62.17,-55.83 63.17,-55.1 64.27,-54.4 65.49,-53.71 66.86,-52.99 68.31,-52.22 69.8,-51.44 71.31,-50.71 72.85,-50.11 74.47,-49.7 76.21,-49.45 77.96,-49.24 79.49,-48.86 80.71,-48.17 82.01,-47.35 83.91,-46.82 39.46,-64.88 38.34,-65.42 37.01,-66.04 35.58,-66.77 34.2,-67.49 33.02,-68.06 31.99,-68.48 30.98,-68.86 29.85,-69.3 28.58,-69.86 27.21,-70.48 25.81,-71.11 24.4,-71.7 22.98,-72.23 21.68,-72.68 21.01,-72.91 36.95,-65.9 37.85,-67.09 39.45,-67.64 41.13,-67.86 43.27,-68.8 45.86,-70.56 48.42,-72.36 50.51,-73.41 52.05,-73.49 53.28,-72.97 54.55,-72.42 56.06,-72.19 57.84,-72.35 59.93,-72.87 62.42,-73.7 65.3,-74.78 68.41,-75.83 71.58,-76.43 75.29,-75.75" fill="none" stroke="rgb(27, 19, 134)" stroke-width="2" stroke-linejoin="round" filter="url(#fuzzy)" /><polyline points="28.85,-68.9 30.16,-67.53 31.1,-67.21 31.81,-66.85 32.69,-66.19 33.81,-65.36 35.08,-64.53 36.37,-63.79 37.56,-63.11 38.61,-62.42 39.49,-61.69 40.24,-60.94 40.95,-60.22 41.72,-59.57 42.6,-58.97 43.55,-58.34 44.54,-57.53 45.64,-56.55 28.85,-68.9 27.22,-68.9 25.62,-69.02 24.2,-69.37 22.89,-69.71 21.67,-69.91 20.52,-69.98 19.4,-69.97 18.26,-69.96 17.09,-69.99 15.89,-70.07 14.68,-70.21 13.43,-70.35 12.13,-70.44 10.79,-70.44 9.41,-70.33 8.03,-70.15 6.71,-69.94 5.48,-69.72 4.36,-69.48 3.32,-69.22 2.26,-68.96 1.13,-68.77 -0.1,-68.66 -1.26,-68.5 -0.31,-73.96 1.29,-73.83 2.51,-73.76 3.58,-73.68 4.62,-73.59 5.75,-73.5 7,-73.4 8.36,-73.28 9.76,-73.14 11.17,-72.96 12.53,-72.76 13.84,-72.52 15.09,-72.27 16.31,-72.01 17.49,-71.76 18.63,-71.53 19.72,-71.31 20.77,-71.08 21.85,-70.82 23.05,-70.51 24.37,-70.14 25.79,-69.76 27.49,-69.35 22.81,-70.43 21.38,-71.09 20.69,-71.93 19.93,-72.65 18.93,-73.17 17.78,-73.6 16.57,-74.03 15.33,-74.45 14.04,-74.8 12.69,-75.07 11.28,-75.28 9.84,-75.52 8.43,-75.85 7.08,-76.3 5.81,-76.87 4.61,-77.49 3.44,-78.1 2.24,-78.7 0.99,-79.27 -0.31,-79.82 -1.63,-80.29 -2.93,-80.61 -4.21,-80.74 -5.57,-80.92 -7.48,-81.32 22.81,-70.43 21.53,-71.57 21.15,-73.45 20.72,-75.27 19.95,-76.66 18.93,-77.76 17.81,-78.89 16.71,-80.36 15.61,-82.27 14.47,-84.49 13.21,-86.8 11.82,-89.01 10.3,-91.04 8.71,-92.88 7.27,-94.64 6.3,-96.58 5.39,-98.3 -3.71,-67.25 -2.47,-67.98 -1.33,-68.73 -0.16,-69.35 1,-69.77 2.12,-70.04 3.19,-70.23 4.26,-70.39 5.38,-70.58 6.6,-70.8 7.92,-71.05 9.31,-71.29 10.71,-71.44 12.08,-71.44 13.36,-71.26 14.57,-70.91 15.73,-70.48 16.95,-70.12 18.25,-70.04 19.6,-70.43 20.45,-70.95 -8.21,-89.24 -6.1,-88.39 -4.6,-87.53 -3.2,-86.99 -1.81,-86.58 -0.41,-85.91 0.95,-84.84 2.24,-83.42 3.45,-81.8 4.62,-80.18 5.79,-78.74 7.04,-77.59 8.37,-76.75 9.79,-76.19 11.24,-75.87 12.72,-75.8 14.19,-76.03 15.62,-76.47 16.98,-76.71 18.2,-76 19.2,-73.84 20.51,-71.04" fill="none" stroke="rgb(27, 19, 134)" stroke-width="2" stroke-linejoin="round" filter="url(#fuzzy)" /><polyline points="20.51,-71.04 21.28,-73.14 22.74,-75.39 24.25,-76.07 25.72,-75.8 27.23,-75.31 28.8,-74.86 30.39,-74.54 31.96,-74.4 33.47,-74.57 34.98,-75.1 36.58,-75.74 38.4,-76.13 40.45,-76.09 42.53,-75.96 44.64,-75.61 4.01,-73.14 2.73,-72.87 1.53,-71.84 0.32,-70.52 -0.85,-69.36 -1.99,-68.59 -3.12,-68.16 -4.29,-67.94 -5.46,-67.74 -6.6,-67.42 -7.64,-66.84 -8.56,-65.91 -9.43,-64.62 -10.35,-63.15 -11.43,-61.86 -12.73,-61 -13.93,-60.01 1.79,-73.17 2.71,-73.91 3.85,-75.73 4.99,-77.36 6.21,-78.34 7.59,-78.79 9.1,-79.02 10.71,-79.31 12.37,-79.84 14.04,-80.59 15.68,-81.38 17.24,-81.98 18.73,-82.28 20.17,-82.39 21.63,-82.58 23.19,-83.13 24.9,-84.1 26.76,-85.32 28.76,-86.53 30.91,-87.56 33.2,-88.4 35.63,-89.07 38.22,-89.54 41.09,-89.91 44.34,-90.08" fill="none" stroke="rgb(27, 19, 134)" stroke-width="2" stroke-linejoin="round" filter="url(#fuzzy)" />
    </g>
    
        <g id="pointNose">
          <g id="rightNose"><circle r="1.512" cx="10.5" cy="19.334" stroke="black" fill="none" stroke-width="1.0" filter="url(#fuzzy)" /><circle r="2.2960000000000003" cx="10.548" cy="22.234" stroke="black" fill="none" stroke-width="1.0" filter="url(#fuzzy)" /><circle r="1.502" cx="11.264" cy="19.418000000000003" stroke="black" fill="none" stroke-width="1.0" filter="url(#fuzzy)" /><circle r="2.452" cx="9.372" cy="21.462" stroke="black" fill="none" stroke-width="1.0" filter="url(#fuzzy)" /><circle r="1.524" cx="10.495999999999999" cy="22.75" stroke="black" fill="none" stroke-width="1.0" filter="url(#fuzzy)" /><circle r="2.83" cx="11.712" cy="19.278000000000002" stroke="black" fill="none" stroke-width="1.0" filter="url(#fuzzy)" /><circle r="1.866" cx="10.792" cy="21.362000000000002" stroke="black" fill="none" stroke-width="1.0" filter="url(#fuzzy)" /><circle r="1.718" cx="12.016" cy="21.942" stroke="black" fill="none" stroke-width="1.0" filter="url(#fuzzy)" /><circle r="1.3980000000000001" cx="12.516" cy="22.014000000000003" stroke="black" fill="none" stroke-width="1.0" filter="url(#fuzzy)" /><circle r="1.222" cx="11.459999999999999" cy="20.074" stroke="black" fill="none" stroke-width="1.0" filter="url(#fuzzy)" /></g>
          <g id="leftNose"><circle r="1.982" cx="-12.908000000000001" cy="22.982000000000003" stroke="black" fill="none" stroke-width="1.0" filter="url(#fuzzy)" /><circle r="2.794" cx="-14.968" cy="25.998" stroke="black" fill="none" stroke-width="1.0" filter="url(#fuzzy)" /><circle r="2.418" cx="-15.504" cy="23.814000000000004" stroke="black" fill="none" stroke-width="1.0" filter="url(#fuzzy)" /><circle r="1.616" cx="-13.276" cy="23.53" stroke="black" fill="none" stroke-width="1.0" filter="url(#fuzzy)" /><circle r="1.992" cx="-15.540000000000001" cy="23.866000000000003" stroke="black" fill="none" stroke-width="1.0" filter="url(#fuzzy)" /><circle r="1.804" cx="-15.544" cy="25.398000000000003" stroke="black" fill="none" stroke-width="1.0" filter="url(#fuzzy)" /><circle r="2.1" cx="-15.384" cy="25.21" stroke="black" fill="none" stroke-width="1.0" filter="url(#fuzzy)" /><circle r="1.276" cx="-15.44" cy="25.114000000000004" stroke="black" fill="none" stroke-width="1.0" filter="url(#fuzzy)" /><circle r="2.692" cx="-14.364" cy="22.810000000000002" stroke="black" fill="none" stroke-width="1.0" filter="url(#fuzzy)" /><circle r="2.6319999999999997" cx="-12.712" cy="22.718000000000004" stroke="black" fill="none" stroke-width="1.0" filter="url(#fuzzy)" /></g>
        </g>
      
    <g id="mouth">
      <polyline points="-37.69,27.29 -37.17,27.64 -36.64,27.98 -36.08,28.32 -35.51,28.64 -34.91,28.95 -34.3,29.25 -33.67,29.54 -33.02,29.83 -32.36,30.1 -31.68,30.36 -30.99,30.62 -30.28,30.86 -29.55,31.1 -28.81,31.32 -28.06,31.54 -27.3,31.75 -26.52,31.95 -25.73,32.14 -24.93,32.33 -24.11,32.5 -23.29,32.67 -22.45,32.83 -21.61,32.98 -20.75,33.12 -19.89,33.25 -19.02,33.38 -18.14,33.5 -17.25,33.61 -16.36,33.71 -15.46,33.81 -14.55,33.9 -13.64,33.98 -12.72,34.05 -11.8,34.12 -10.88,34.18 -9.95,34.23 -9.01,34.28 -8.08,34.32 -7.14,34.35 -6.2,34.38 -5.26,34.4 -4.32,34.41 -3.38,34.42 -2.44,34.43 -1.5,34.42 -0.56,34.41 0.38,34.4 1.32,34.38 2.25,34.35 3.18,34.32 4.11,34.28 5.03,34.24 5.95,34.19 6.86,34.14 7.77,34.08 8.67,34.02 9.57,33.96 10.45,33.88 11.33,33.81 12.21,33.73 13.07,33.64 13.93,33.56 14.78,33.46 15.61,33.37 16.44,33.27 17.26,33.16 18.06,33.05 18.85,32.94 19.63,32.83 20.4,32.71 21.16,32.58 21.9,32.46 22.63,32.33 23.34,32.2 24.04,32.07 24.72,31.93 25.39,31.79 26.04,31.65 26.67,31.5 27.29,31.35 27.88,31.2 28.46,31.05 29.02,30.9 29.56,30.74 30.09,30.59 30.59,30.43 31.07,30.26 31.53,30.1 31.96,29.94 32.38,29.77 32.77,29.6 33.14,29.44 33.48,29.27 33.81,29.1 34.1,28.93 34.37,28.75 34.62,28.58 34.84,28.41 35.03,28.23 35.03,28.23 34.31,28.24 33.58,28.25 32.85,28.26 32.12,28.26 31.4,28.27 30.67,28.28 29.94,28.28 29.22,28.29 28.49,28.3 27.76,28.3 27.03,28.31 26.31,28.31 25.58,28.32 24.85,28.33 24.13,28.33 23.4,28.34 22.67,28.34 21.94,28.35 21.22,28.35 20.49,28.36 19.76,28.36 19.03,28.37 18.31,28.37 17.58,28.37 16.85,28.38 16.13,28.38 15.4,28.38 14.67,28.39 13.94,28.39 13.22,28.39 12.49,28.39 11.76,28.39 11.03,28.39 10.31,28.39 9.58,28.4 8.85,28.4 8.13,28.4 7.4,28.39 6.67,28.39 5.94,28.39 5.22,28.39 4.49,28.39 3.76,28.39 3.04,28.38 2.31,28.38 1.58,28.38 0.85,28.37 0.13,28.37 -0.6,28.36 -1.33,28.36 -2.06,28.35 -2.78,28.34 -3.51,28.33 -4.24,28.33 -4.96,28.32 -5.69,28.31 -6.42,28.3 -7.15,28.29 -7.87,28.28 -8.6,28.27 -9.33,28.26 -10.06,28.25 -10.78,28.23 -11.51,28.22 -12.24,28.21 -12.96,28.19 -13.69,28.18 -14.42,28.16 -15.15,28.14 -15.87,28.13 -16.6,28.11 -17.33,28.09 -18.05,28.07 -18.78,28.05 -19.51,28.03 -20.24,28.01 -20.96,27.99 -21.69,27.96 -22.42,27.94 -23.15,27.92 -23.87,27.89 -24.6,27.86 -25.33,27.84 -26.05,27.81 -26.78,27.78 -27.51,27.75 -28.24,27.72 -28.96,27.69 -29.69,27.66 -30.42,27.63 -31.14,27.6 -31.87,27.56 -32.6,27.53 -33.33,27.49 -34.05,27.45 -34.78,27.42 -35.51,27.38 -36.24,27.34 -36.96,27.3" fill="rgb(102, 204, 109)" stroke="black" stroke-width="3" stroke-linejoin="round" filter="url(#fuzzy)" />
    </g>
  </svg>