<svg xmlns="http://www.w3.org/2000/svg" width="500" height="500" viewBox="-100 -100 200 200"><defs><clipPath id="c"><path d="m29.93-2.36-.03-.22-.06-.22-.09-.23-.12-.23-.14-.23-.17-.23-.2-.23-.24-.23-.26-.22-.28-.21-.32-.21-.35-.21-.38-.19-.41-.19-.43-.17-.34-.32-.39-.3-.45-.28-.49-.25-.53-.23-.59-.21-.63-.18-.68-.16-.72-.13-.76-.11-.81-.09-.84-.06-.87-.04-.91-.01h-.95l-.97.03-.99.05-1.03.07-1.04.09-1.06.1-1.08.12-1.09.14-1.1.15-1.11.17-1.12.18-1.12.19-1.12.2-1.12.21-1.12.23-1.11.22-1.11.24-1.09.24-1.09.25-1.07.25-1.05.25-1.04.26-1.02.26-1 .26-.98.26-.96.26-.94.26-.91.26-.89.25-.86.26-.85.25-.81.25-.8.24-.76.25-.75.24-.72.24-.7.23-.67.24-.66.23-.63.23-.61.22-.59.22-.57.22-.55.22-.52.22-.51.21-.48.21-.46.21-.45.2-.42.2-1.62 4.68.36.17.37.16.39.16.39.15.41.15.42.15.42.13.44.14.45.12.46.12.47.11.48.11.49.09.49.08.51.08.52.07.54.06.54.05.56.04.57.03.58.02h.59l.6-.01.62-.03.62-.04.63-.06.64-.07.65-.09.66-.11.67-.12.68-.14.69-.16.69-.17.7-.18.71-.2.72-.22.73-.22.73-.24.74-.25.75-.26.75-.26.77-.27.77-.28.77-.28.79-.29.79-.28.79-.28.8-.29.81-.27.82-.27.82-.26.82-.25.84-.24.83-.23.84-.21.85-.2.85-.17.85-.16.86-.14.85-.12.86-.09.86-.08.86-.05.86-.02.71-.13.7-.11.7-.11.69-.1.69-.09.68-.09.67-.08.66-.07.65-.07.63-.06.63-.05.61-.05.59-.05.58-.05.55-.05"/></clipPath><clipPath id="b"><path d="m-29.93-3.2.08-.14.1-.14.14-.15.15-.15.19-.15.21-.15.24-.15.26-.15.3-.15.32-.14.35-.15.37-.14.41-.14.43-.14.46-.13.37-.2.42-.19.47-.19.51-.17.57-.17.6-.15.66-.15.69-.13.74-.12.78-.11.81-.1.86-.08.89-.08.92-.06.95-.05.98-.03 1-.03 1.03-.01h1.05l1.06.01 1.08.02 1.1.03 1.1.04 1.11.05 1.12.06 1.12.08 1.12.08 1.12.08 1.11.1 1.11.11 1.1.11 1.09.12 1.08.12 1.07.14 1.05.13 1.03.15 1.02.14 1 .15.97.16.96.16.93.16.91.16.89.17.86.16.84.17.82.17.79.17.77.17.74.17.72.17.7.17.68.18.66.17.63.17.62.17.59.17.58.18.55.17.53.17.51.17.49.17.48.17.45.17.43.17-1.14 6.29-.4.24-.42.24-.42.24-.44.24-.44.23-.45.22-.47.22-.46.21-.48.21-.49.19-.49.19-.5.18-.5.17-.51.16-.52.16-.52.14-.54.14-.54.12-.55.11-.56.1-.56.09-.57.07-.57.05-.57.03-.58.02h-.58l-.59-.02-.58-.04-.59-.06-.59-.09-.59-.1-.59-.12-.6-.14-.6-.16-.59-.18-.61-.2-.6-.21-.61-.24-.61-.24-.61-.27-.62-.27-.63-.29-.63-.29-.64-.31-.64-.31-.66-.32-.66-.32-.67-.32-.68-.32-.69-.32-.71-.32-.71-.3-.73-.3-.74-.29-.76-.28-.77-.27-.79-.24-.8-.23-.81-.21-.83-.19-.84-.17-.86-.15-.87-.12-.88-.1-.67-.18-.68-.17-.68-.15-.68-.15-.67-.14-.68-.13-.67-.12-.67-.11-.66-.1-.65-.09-.64-.08-.63-.08-.62-.06-.61-.06-.59-.06"/></clipPath><filter id="a"><feTurbulence baseFrequency=".05" numOctaves="3" result="noise" type="noise"/><feDisplacementMap in="SourceGraphic" in2="noise" scale="2"/></filter></defs><rect width="100%" height="100%" x="-100" y="-100" fill="#F08080"/><path fill="#FBCEB1" stroke="#000" stroke-linejoin="round" stroke-width="1.667" d="m69.83-.52-.19 3.93.21-2.55.05 3.27-.22.9-.3 1.68-.01 1.15.14 1.76-.17 1.66-.5.33.16 3.02-.5 1.38-.23 1.96-.12-.44.24-.8-.73 3.49-.24 2.22.59-1.99-1.19 3.71-.42 1.71-.24 2.05.26-.32-1.01 3.53-.3.12.4-.95-.97 2.99-.74 1.6.03 1.03-.31.76-.84.72-1.23 3.45h-.11L60.69 43l-.4.63-.34.37.25-.07-1.03 1.69-.06.99-.75 1.06-1.75 2.69-.44 1.1-.4.12-.49.5-.46 2.1-1.8 2.48.13-.11-.66.91-1.7 1.61-.02 1.1-.6-.38-.61.94-.84 1.67-.8.2-.09.57-1.99 1.6-1.66 2.36.58-.78-.47.24-2.18 2.82-.23-.11-.69.26-1.43 1.69-.01.07-1.22.74.02.18-2.4 2.01-.24-.07-.27.31-.98 1-1.59.9-1.9.59h.42l-1.05.83-1.89 1.52-.14-.08-3.24 1.58-.36-.03-.26.3-.6.23-2.4.84-.3.22-1.67.6.73-.21-2.15.96-.57.25h-.6l-.98.13-2.15.74-1.28.44-1.16.28-.02.01-2.03.28-1.23.05-2.1.2 1.45-.06-1.24.07-1.06.48-1.81-.2-1.17.13-1.38.21-1.14-.05-1.12-.18-.88.18-.78.08-1.97-.29-.56-.27-1.17-.01.23.15-1.8-.29-1.9-.49-.09.04-1.71-.62-2.14-.25 1.19.61-3.25-.87-.26.1-2.12-.92 1.09.32-.09-.29-2.86-.85-1.07-.27-.91-.59-.99-.12-2.15-1.33-.07-.14-1.32-.71-1.69-.62.74.47-1.02-.9-2.06-.67.71.12-2.35-1.02-1.28-.82-2.53-2.01-.21-.78-.72-.39.53.47-1.82-1.56-1.02-.11-1.72-2.2.71.92h-.02l-.75-1.26-2.55-1.48-.92-1.03-.74-1.01.3-.13-1.48-1.3-.06-.04-1.39-1.69-1.29-1.24-1.5-2.55-.22-.26-.78-.83-.39-.7-1.42-1.36-.65-1.49-.02-.12-.54-.98-1.33-2.29-.23-.71-.73-.62-.52-1.53-.18.55-1.1-2.31v.15l-1.16-1.98-.5-2.02-.2-.85-.82-.85.11-.77-.83-2.42-.3-.33-.12-1.05-.28.09-1.51-3.54-.95-3.23.13 1.54-.59-2.58-.15-.69.07-1.13-.19-.94-.92-2.51-.25-.78-.38-2.2.23 1.13-.49-2.22-.31-1.48-.31-2.93-.17-.75.32.1-.55-1.89-.07-1.12-.13-2.35.19-.66-.41-1.18.05-.4-.03-2.18.11.13-.24-4.8.08-1.57.09 1.42-.39-1.01.16-2.03.05-2.79.07-1.89-.03 1.21.46-2.79-.07-.75.04-1.75.28 1.28.32-4.22-.3.81.85-4.23-.03.7.2-1.92.42-2.88-.06.85.91-3.6.56-1.02.31-2.04-.39.95.73-1.52.37-1.77.22-.8.43-.38.92-3.16-.6 1.12 1.06-3.13.41.18.93-2.47.43-1.28-.35.2.28-.2 1.2-2.87.91-1.54-.06-.57 1.13-2.13-.18.32 1.46-1.48.8-2.79-.32.82 1.34-1.44.36-1.46 1.33-1.31.74-1.72.55-.57.29-.21 1.53-2.2-.28.43.93-1.28.86-1.12 1.34-1.25-.26-.41 2.14-1.39-.83-.2 2.16-1.75.43.23.76-1.02 1.46-1.61.7-.74.16-.37.53-.47 2.21-1.84 1.2-.79-.46.1 1.67-.8 1.75-1.51 1.51-.72-.31-.04 1.96-1.11.23-.29.5-.46.08.39 1.38-.86.63-.72 1-.53 3.06-.97-.34-.36h1.09l1.18-.67 1.77-1.05v.11l3.14-.67.37-.03.28-.6 1.04.29-.5-.22 2.73-.66 1.53-.48-.24-.13 2.07-.04 2.4-.38.04-.02 1.62-.18-1.12-.14 1.56-.12 1.26-.12 1.36.21 2.15-.05.55-.15 1.35-.04.3.06 2.36.13.49.22 1.86-.2.71.14 1.12.22.21-.07 3.05.57-1.32-.05 2.33.25.78.28 1 .13.9.43 2.79.81-.1.32.51.03 1.45.68 1.99.48.52.2.56.45 1.46.51-.36-.44 2.67 1.7 1.58.41-1.58-.17 1.67.46 1.42.97.2.07.83.45 2.39 1.36 1.03.71 1.78 1.21-1.19-.62.62.38 2.6 1.71-.08.66.04-.24 2.56 1.94.14-.03.71 1.15.62.92 2.26 1.25.45.28-1.01-.67 3.46 4.15.52-.2-.03.75.23.14 1.32 1.33.19.41 1.48 2.36.45.25.2.35 1.75 1.9-.61-.21 1.99 3.26.63-.15.72.84 1.2 2.55-.77-.68.89 1.01 1.65 3.23.32.92-.4-.15.77.88.56 1.06.86 1.37.52 1.36.28 1.05 1.27 2.74.54 1.46-.69-.6.92 1.55.49 1.67.64 1.67-.11-.65 1.12 4.62.2.85.28 1.13.13.47-.06.65.53 1.25.49 2.59.22-.2.17 1.84-.09.37.62 3.78.26-.31.04 2.85.23 1.31-.01-.25.55 3.6-.24-.77.39 2.79-.12.89-.27-.36.14 1.83.02-.03.23 2.62-.19 3.93" filter="url(#a)"/><path fill="#fff" d="m-29.93-3.2.08-.14.1-.14.14-.15.15-.15.19-.15.21-.15.24-.15.26-.15.3-.15.32-.14.35-.15.37-.14.41-.14.43-.14.46-.13.37-.2.42-.19.47-.19.51-.17.57-.17.6-.15.66-.15.69-.13.74-.12.78-.11.81-.1.86-.08.89-.08.92-.06.95-.05.98-.03 1-.03 1.03-.01h1.05l1.06.01 1.08.02 1.1.03 1.1.04 1.11.05 1.12.06 1.12.08 1.12.08 1.12.08 1.11.1 1.11.11 1.1.11 1.09.12 1.08.12 1.07.14 1.05.13 1.03.15 1.02.14 1 .15.97.16.96.16.93.16.91.16.89.17.86.16.84.17.82.17.79.17.77.17.74.17.72.17.7.17.68.18.66.17.63.17.62.17.59.17.58.18.55.17.53.17.51.17.49.17.48.17.45.17.43.17-1.14 6.29-.4.24-.42.24-.42.24-.44.24-.44.23-.45.22-.47.22-.46.21-.48.21-.49.19-.49.19-.5.18-.5.17-.51.16-.52.16-.52.14-.54.14-.54.12-.55.11-.56.1-.56.09-.57.07-.57.05-.57.03-.58.02h-.58l-.59-.02-.58-.04-.59-.06-.59-.09-.59-.1-.59-.12-.6-.14-.6-.16-.59-.18-.61-.2-.6-.21-.61-.24-.61-.24-.61-.27-.62-.27-.63-.29-.63-.29-.64-.31-.64-.31-.66-.32-.66-.32-.67-.32-.68-.32-.69-.32-.71-.32-.71-.3-.73-.3-.74-.29-.76-.28-.77-.27-.79-.24-.8-.23-.81-.21-.83-.19-.84-.17-.86-.15-.87-.12-.88-.1-.67-.18-.68-.17-.68-.15-.68-.15-.67-.14-.68-.13-.67-.12-.67-.11-.66-.1-.65-.09-.64-.08-.63-.08-.62-.06-.61-.06-.59-.06" filter="url(#a)" transform="translate(43.2 -23.65)"/><path fill="#fff" d="m29.93-2.36-.03-.22-.06-.22-.09-.23-.12-.23-.14-.23-.17-.23-.2-.23-.24-.23-.26-.22-.28-.21-.32-.21-.35-.21-.38-.19-.41-.19-.43-.17-.34-.32-.39-.3-.45-.28-.49-.25-.53-.23-.59-.21-.63-.18-.68-.16-.72-.13-.76-.11-.81-.09-.84-.06-.87-.04-.91-.01h-.95l-.97.03-.99.05-1.03.07-1.04.09-1.06.1-1.08.12-1.09.14-1.1.15-1.11.17-1.12.18-1.12.19-1.12.2-1.12.21-1.12.23-1.11.22-1.11.24-1.09.24-1.09.25-1.07.25-1.05.25-1.04.26-1.02.26-1 .26-.98.26-.96.26-.94.26-.91.26-.89.25-.86.26-.85.25-.81.25-.8.24-.76.25-.75.24-.72.24-.7.23-.67.24-.66.23-.63.23-.61.22-.59.22-.57.22-.55.22-.52.22-.51.21-.48.21-.46.21-.45.2-.42.2-1.62 4.68.36.17.37.16.39.16.39.15.41.15.42.15.42.13.44.14.45.12.46.12.47.11.48.11.49.09.49.08.51.08.52.07.54.06.54.05.56.04.57.03.58.02h.59l.6-.01.62-.03.62-.04.63-.06.64-.07.65-.09.66-.11.67-.12.68-.14.69-.16.69-.17.7-.18.71-.2.72-.22.73-.22.73-.24.74-.25.75-.26.75-.26.77-.27.77-.28.77-.28.79-.29.79-.28.79-.28.8-.29.81-.27.82-.27.82-.26.82-.25.84-.24.83-.23.84-.21.85-.2.85-.17.85-.16.86-.14.85-.12.86-.09.86-.08.86-.05.86-.02.71-.13.7-.11.7-.11.69-.1.69-.09.68-.09.67-.08.66-.07.65-.07.63-.06.63-.05.61-.05.59-.05.58-.05.55-.05" filter="url(#a)" transform="translate(-46.45 -23.64)"/><g fill="none" stroke="#000" transform="translate(43.2 -23.65)"><path stroke-linejoin="round" stroke-width="1.667" d="m-29.59-2.23-.11-.05-.1-.06-.08-.07-.07-.09-.04-.1-.03-.1-.01-.12.01-.12.03-.13.06-.13.08-.14.1-.14.14-.15.15-.15.19-.15.21-.15.24-.15.26-.15.3-.15.32-.14.35-.15.37-.14.41-.14.43-.14.46-.13.37-.2.42-.19.47-.19.51-.17.57-.17.6-.15.66-.15.69-.13.74-.12.78-.11.81-.1.86-.08.89-.08.92-.06.95-.05.98-.03 1-.03 1.03-.01h1.05l1.06.01 1.08.02 1.1.03 1.1.04 1.11.05 1.12.06 1.12.08 1.12.08 1.12.08 1.11.1 1.11.11 1.1.11 1.09.12 1.08.12 1.07.14 1.05.13 1.03.15 1.02.14 1 .15.97.16.96.16.93.16.91.16.89.17.86.16.84.17.82.17.79.17.77.17.74.17.72.17.7.17.68.18.66.17.63.17.62.17.59.17.58.18.55.17.53.17.51.17.49.17.48.17.45.17.43.17.42.17.39.17.38.17.36.16.34.17.33.16.31.17.29.16.28.16.26.16" filter="url(#a)"/><path stroke-linejoin="round" stroke-width="2.222" d="m-27.4-1.43.28.05.32.05.37.04.4.04.44.04.47.03.5.04.53.04.54.05.57.04.59.06.61.06.62.06.63.08.64.08.65.09.66.1.67.11.67.12.68.13.67.14.68.15.68.15.68.17.67.18.88.1.87.12.86.15.84.17.83.19.81.21.8.23.79.24.77.27.76.28.74.29.73.3.71.3.71.32.69.32.68.32.67.32.66.32.66.32.64.31.64.31.63.29.63.29.62.27.61.27.61.24.61.24.6.21.61.2.59.18.6.16.6.14.59.12.59.1.59.09.59.06.58.04.59.02h.58l.58-.02.57-.03.57-.05.57-.07.56-.09.56-.1.55-.11.54-.12.54-.14.52-.14.52-.16.51-.16.5-.17.5-.18.49-.19.49-.19.48-.21.46-.21.47-.22.45-.22.44-.23.44-.24.42-.24.42-.24.4-.24.4-.24.38-.25.37-.25.36-.25.35-.25.34-.25.33-.24.32-.25.3-.25.3-.24" filter="url(#a)"/><circle cx="9.266" cy="-.552" r="3.246" clip-path="url(#b)" filter="url(#a)"/><circle cx="10.486" cy="-2.502" r="4.116" clip-path="url(#b)" filter="url(#a)"/><circle cx="7.206" cy="-1.782" r="3.678" clip-path="url(#b)" filter="url(#a)"/><circle cx="9.371" cy="1.183" r="4.378" clip-path="url(#b)" filter="url(#a)"/><circle cx="8.176" cy="-2.127" r="3.924" clip-path="url(#b)" filter="url(#a)"/><circle cx="10.971" cy=".618" r="3.382" clip-path="url(#b)" filter="url(#a)"/><circle cx="6.536" cy="-3.587" r="3.966" clip-path="url(#b)" filter="url(#a)"/><circle cx="7.646" cy=".638" r="4.366" clip-path="url(#b)" filter="url(#a)"/><circle cx="7.246" cy="-3.432" r="4.106" clip-path="url(#b)" filter="url(#a)"/><circle cx="6.316" cy="-.877" r="3.234" clip-path="url(#b)" filter="url(#a)"/></g><g fill="none" stroke="#000" transform="translate(-46.45 -23.64)"><path stroke-linejoin="round" stroke-width="2.222" d="m29-.87.18-.06.16-.09.15-.11.13-.13.1-.15.09-.16.07-.18.04-.19.02-.21-.01-.21-.03-.22-.06-.22-.09-.23-.12-.23-.14-.23-.17-.23-.2-.23-.24-.23-.26-.22-.28-.21-.32-.21-.35-.21-.38-.19-.41-.19-.43-.17-.34-.32-.39-.3-.45-.28-.49-.25-.53-.23-.59-.21-.63-.18-.68-.16-.72-.13-.76-.11-.81-.09-.84-.06-.87-.04-.91-.01h-.95l-.97.03-.99.05-1.03.07-1.04.09-1.06.1-1.08.12-1.09.14-1.1.15-1.11.17-1.12.18-1.12.19-1.12.2-1.12.21-1.12.23-1.11.22-1.11.24-1.09.24-1.09.25-1.07.25-1.05.25-1.04.26-1.02.26-1 .26-.98.26-.96.26-.94.26-.91.26-.89.25-.86.26-.85.25-.81.25-.8.24-.76.25-.75.24-.72.24-.7.23-.67.24-.66.23-.63.23-.61.22-.59.22-.57.22-.55.22-.52.22-.51.21-.48.21-.46.21-.45.2-.42.2-.4.2-.39.2-.36.2-.35.19-.33.19-.31.19-.29.19-.28.19-.26.18-.24.19M28.45-.31l-.27.12-.3.11-.35.1-.37.08-.41.07-.44.06-.46.06-.49.05-.52.05-.54.05-.55.05-.58.05-.59.05-.61.05-.63.05-.63.06-.65.07-.66.07-.67.08-.68.09-.69.09-.69.1-.7.11-.7.11-.71.13-.86.02-.86.05-.86.08-.86.09-.85.12-.86.14-.85.16-.85.17-.85.2-.84.21-.83.23-.84.24-.82.25-.82.26-.82.27-.81.27-.8.29-.79.28-.79.28-.79.29-.77.28-.77.28-.77.27-.75.26-.75.26-.74.25-.73.24-.73.22-.72.22-.71.2-.7.18-.69.17-.69.16-.68.14-.67.12-.66.11-.65.09-.64.07-.63.06-.62.04-.62.03-.6.01h-.59l-.58-.02-.57-.03-.56-.04-.54-.05-.54-.06-.52-.07-.51-.08-.49-.08-.49-.09-.48-.11-.47-.11-.46-.12-.45-.12-.44-.14-.42-.13-.42-.15-.41-.15-.39-.15-.39-.16-.37-.16-.36-.17-.35-.16-.34-.17-.33-.17-.31-.18-.31-.17-.29-.17-.29-.18-.27-.17-.26-.17-.25-.18" filter="url(#a)"/><circle cx="20.222" cy="-3.144" r="4.078" clip-path="url(#c)" filter="url(#a)"/><circle cx="16.977" cy="-2.449" r="3.994" clip-path="url(#c)" filter="url(#a)"/><circle cx="17.072" cy="-5.889" r="4.438" clip-path="url(#c)" filter="url(#a)"/><circle cx="18.457" cy="-3.934" r="4.728" clip-path="url(#c)" filter="url(#a)"/><circle cx="21.337" cy="-1.914" r="4.098" clip-path="url(#c)" filter="url(#a)"/><circle cx="17.072" cy="-6.324" r="3.39" clip-path="url(#c)" filter="url(#a)"/><circle cx="17.027" cy="-4.169" r="4.452" clip-path="url(#c)" filter="url(#a)"/><circle cx="21.262" cy="-5.994" r="4.832" clip-path="url(#c)" filter="url(#a)"/><circle cx="19.667" cy="-5.999" r="3.016" clip-path="url(#c)" filter="url(#a)"/><circle cx="19.227" cy="-3.979" r="4.638" clip-path="url(#c)" filter="url(#a)"/></g><g fill="none" stroke="#228B22" stroke-linejoin="round" stroke-width="2"><path d="m42.06-68.52 1.52.88.89.74.86.93.89 1.03.82.97.7.85.6.73.51.65.44.57.34.47.21.32.05.14-.13-.06-.32-.26-.54-.49-.79-.75-1.06-1.06-1.37-1.4L43.99-66l-1.98-2.05-2.06-2.27m-17-11.31 1.1.4 1.23.63 1.41.84 1.4.92 1.37.93 1.4.97 1.48 1.02 1.53 1.04 1.53 1.03 1.45.96 1.27.84 1.01.68.7.5.4.3.2.09.08-.07M6.45-86.5l.75.14.81.15.79.15.66.15.46.15.22.14-.05.13-.37.14-.74.13-1.14.1-1.57.07H4.22l-2.6-.05-3.34-.11-4.4-.17m36.13 7.26 1.23.7 1.47.91 1.28.84 1.01.71.8.59.69.55.62.5.51.42.37.31.18.17h-.04l-.35-.22-.73-.49-1.23-.86-1.78-1.24-2.16-1.51m-17.55-8.29 1.24.49 1.2.46.92.39.78.32.69.3.54.26.35.22.13.19-.12.15-.37.12-.66.08-.97.03-1.32-.03-1.65-.1-1.94-.17-2.23-.21-2.52-.26-2.92-.32-3.47-.4-4.17-.52-4.78-.69" filter="url(#a)"/><path d="m6.45-86.5.62.18.43.26.16.36-.22.49-.64.6-1.1.74-1.57.91-2.07 1.08-2.62 1.26-3.24 1.45-3.91 1.63-4.64 1.8-5.39 1.97-6.15 2.14-6.94 2.33-7.81 2.57m18.49-16.45 2.09-.46 1.09-.3.75-.23.71-.22.79-.23.84-.22.81-.2.71-.13.53-.05.27.04-.02.13-.34.22-.65.32-.94.44-1.2.56-1.47.66-1.75.76-2.05.83-2.37.87-2.74.96-3.28 1.16" filter="url(#a)"/><path d="m44.77-66.99.15.56.68 1.12.27.79-.22.46-.62.27-.96.18-1.29.09-1.67-.02-2.05-.16-2.47-.32-2.9-.49-3.35-.65L26.5-66l-4.4-1.03-5.01-1.25-5.65-1.46-6.27-1.67-6.86-1.89-7.4-2.12-8.12-2.36m-12.71-.35 1.29-.77 1.56-.71 1.93-.67 2.16-.62 2.28-.57 2.38-.56 2.47-.55 2.55-.55 2.57-.51 2.53-.48 2.43-.42 2.25-.39 2.08-.36 1.93-.34 1.8-.33 1.52-.27" filter="url(#a)"/><path d="m15.23-84.6 1.67.59.65.41.32.37.11.38-.18.4-.58.41-1.01.44-1.46.46-1.89.5-2.36.53-2.83.53-3.35.52-3.87.53-4.43.55-5.02.62-5.7.72-6.5.87-7.5 1.07" filter="url(#a)"/><path d="m30.84-77.67 1.69 1.05.8.67.06.37-.5.17-.91.09-1.3.01-1.76-.08-2.32-.22-2.95-.36-3.62-.52-4.34-.68-5.08-.85L4.8-79.1l-6.52-1.38-7.19-1.69" filter="url(#a)"/><path d="m-36.85-73.69.44-.22 1.52-.62 1.98-.66 2.17-.57 2.29-.44 2.43-.33 2.59-.23 2.76-.18 2.99-.16 3.21-.17 3.44-.19 3.64-.19 3.77-.18 3.87-.15 3.91-.1 3.94-.06 3.92-.04 3.82-.05 3.6-.09 3.38-.13 3.31-.03m-13.58-6.96.96.34 1.41.55 1.75.77 1.9.89 1.96.96 1.97.99 2 .99 1.98.98 1.88.92 1.72.86 1.54.76 1.34.66 1.09.49.62.21" filter="url(#a)"/><path d="m18.43-83.44 1.53.63 1.5.63 1.42.67 1.4.73 1.46.79 1.51.84 1.5.87 1.44.86 1.3.79 1.18.71 1.05.62.92.52.75.41.53.26.18.02-.39-.35M-5.67-86.3l17.23 6.72-1.17 7.03-3.99 6 1.1 4.25 3.67 1.02 3.01-2.06 2.14-3.43 2.49-2.87 3.36-1.29 3.41.29 2.11 1.33-.13 1.83-2.38 1.85-3.72 1.42-3.56.42-1.92-.94.65-2.2 3.14-2.64 4.69-1.75 4.92.39 3.89 2.83.17 3.18-13.08-2.5-47.27-12.82" filter="url(#a)"/><path d="M55.34-53.32 18.46-68.94l-15.7-4.37-1.7-2.44 4.24-.94 6.51.45 6.73 1.2 5.94 1.67 5.16 2.23 4.61 2.82 3.82 3.02 2.05 2.56-1.03 1.48-5.12.09-9.3-1.25-12.2-2.22-12.35-2.7-8.93-2.72-2.35-2.4 5.42-1.86 11.22-1.16 11.7-.51 4.73-.58-9.86-1.7-35.15-3.3" filter="url(#a)"/><path d="m-29.92-78.13 31.44-2.08 16.69 3.66 3.15 4.67-3.64 4.36-4.42 2.61-3.53-.32-3.27-2.72-3.03-3.16-1.92-1.82-1.02-.14-2.03.34-3.76-.94-1.4-3.2 4.64-4.53-9.54-4.15" filter="url(#a)"/><path d="m18.43-83.44 21.65 18.16 2.51 3.29-7.3-3.13-11.59-5.19-11.4-3.83-9.02-.97-6.93 1.59-6.1 2.93-5.14 3-1.8 2.28 4.39 1.49 11.11 1.28 14.88 1.5 13.3-.15 3.15-7.75-17.59-16.5" filter="url(#a)"/><path d="m-53.47-55.41 52-5.08 3.76-8.14-2.07-4.3-.31-1.65 2.69.27 6.29 2.27 9.24 3.87 10.27 4.34 9.1 3.6 6.58 2.19 3.69.8 1-.25-1.57-1.06-4.3-1.72-7.18-2.15-9.54-2.14-9.96-1.59-7.16-.88-1.51-.58 3.34-1.17L13.3-71l.26-1.53 31.21 5.54" filter="url(#a)"/><path d="m-30-78.52 15.98-1.96 16.06 4.13 13.82 7.65 10.08 6.54 5.78 3.56 2.2 1.14-.8-.31-3.54-1.3-5.38-2.15-5.48-2.77-3.92-3.03L13.03-70l-.18-2.69.71-2.06 1.8-.73 3.82 1.49 5.83 4.1 4.73 5.13-2.51 1.41-11.66-7.99 7.38-10.29" filter="url(#a)"/><path d="m.09-86.67 25.15 14.64 5.87 7.54-.03 1.39-.44-.89-.58-1.31-.94-1.25-1.23-1.37-1.63-1.79-2.39-2.24-3.36-2.38-3.9-1.96-3.4-.93-1.78.38.25 1.29 1.45 1.18.71.21-1.54-.47.13.46 29.01 4.73" filter="url(#a)"/><path d="M63.98-34.73 40.07-56.17l2.51-.77 3.93.78-.19-.87-5.31-3.16-9.2-4.72-10.59-4.75-9.58-3.45-7.15-1.62-4.19.12-1.12 1.58 2.02 2.75L6-66.9l6.24 2.98 4.73 1.19-.79-1.59-9.11-4.07-14.6-5.3-8.63-6.21 6.43-5.82" filter="url(#a)"/><path d="m-41.65-69.48 47.68-3.94 13.18-3.68.43-1.65-6.36.3-10.22 1.66-10.21 2.38-6.57 2.61-1.43 2.56 2.92 2.37 5.44 2.06 6.33 1.59 6.18.96 5.15.12 3.18-.82.65-1.65-1.09-1.79-.13-.56 4.91 2 12.52 4.3 14.66 2.5-1.81-9.5" filter="url(#a)"/><path d="M55.34-53.32 25.31-64.99 4.77-71.4l-3.41-3.53 5.6-.23 8.54 2.36 8.64 3.51 6.91 3.17 3.43 1.77-1.05.07-4.88-1.1-6.46-1.34-5.46-.9-3.29-.38-2.22-.35-3.51-1.07-6.5-2.44-9.23-4.15-8.18-5.09.98-3.09" filter="url(#a)"/><path d="m-47.51-63.33 47.1-5.7 16.8 1.64-.5.5-6.86-.45-6.1-1.09-2.26-1.46.84-1.34 1.47-.74.09-.06-1.83.31-2.93.24-2.6-.12-.93-.45 1.07-.57 1.96-.48.72-.29-2-.1-3.56-.06-.77-.32 6.4-.9 11.63-1.72 3.53-3.08-23.49-6.15" filter="url(#a)"/><path d="M-11.56-85.55 33.6-56.56l7.33 1.2-7.65-7.07-12.57-5.87-12.74-3.33-9.32-2.16-3.54-1.85 2.41-1.42 6.62-.44 8.33.76 7.83 1.69 5.84 2 2.93 1.6-.35.65-3.03-.11-3.18.7.34 4.38 3.21 9.59-10.57 9.56-68.96-8.73" filter="url(#a)"/><path d="M63.06-36.28 10.7-59.59-.77-69.93l-2.7-4.45.43-1.89 2.42-.37 3.66.98 3.84 2.08 2.79 2.48.9 2.03-.73 1.03-.99.12.33-.27 2.12-.15 2.69.11.99.01-2.3-.62-4.97-1.43-4.62-1.75-.42-1 5.63.62 8.93 2.06 5.04 1.21-2.83-3.44 14.82-3.03" filter="url(#a)"/><path d="m-15.82-84.41 41.46 24.56.82 2.64L23.64-59l1.97-2.62 2.7-2.62-.92-2.02-5.11-1.02-6.63-.05-5.06.48-2.76.47-2.65.25-4.98.16h-6.06l-1.78-.36.32.49-40.45 2.1" filter="url(#a)"/><path d="M38.03-72.5 3.86-75.89l-14.57 4 1.45 3.37 6.91 1.61 7.94 1.04 7.9 1.51 6.47 2.02 3.09 1.87-1.48.96-5.87-.46-8.79-2-9.46-3.16-7.69-3.49-3.82-2.7 1.08-.88 5.66 1.23 8.75 2.34 9.74 1.12 9.12-1.8 10.89-.87 20.4 12.06" filter="url(#a)"/><path d="M1.74-86.65 7-74.05l-10.78 4.1-1.29.32 2.58-1.3 1.17-1.81-.29-1.61.13-.87 1.66.23 2.88 1.29 2.93 1.83 1.71 1.42-.17.01-1.73-1.84-2.3-3.25L1.41-79l-1.94-2.41-2.67-.65-3.91.75-3.66.85.14-.59 4.22-2.23-9.95-1.2" filter="url(#a)"/><path d="m-21.92-82.24 20.97-.16 4.83 2.69-6.12 2.51-6.64 1.57-1.9 1.28 3.26 1.81L-1.15-70l6.86 2.93 5.34 2.75 2.8 2.05.08 1.04-2.13-.04-3.37-.94-3.41-1.54-2.4-1.85-.8-1.81.86-1.29 1.93-.23 1.82.97.53 1.53.15 1.44 5.93 2.82 21.88 8.55 28.29 16.48" filter="url(#a)"/><path d="m-16.64-83.88-20.1 14.29.09 2.76 11.8-1.71 15.4-1.8 13.86-.68 10.3.09 6.64.5 3.28.67.05.38-2.61-.42-3.46-1.22-1.57-1.15 2.16.05 4.8 1.54 3.45 1.92-1.7.55-5.83-1.45-5.56-3.21-24.09-12.95" filter="url(#a)"/><path d="M-40.95-70.22 5.97-56.35-.5-62.03l-9.73-6.04-2.17-4.59 2.85-3.24 4.38-1.61 4.26.1 3.71 1.24 3.21 1.41 2.83.74 2.19-.29.73-1.2-1.63-1.74-4.04-1.79-5.24-1.31-4.96-.36-4.18.68-2 .92 7.99-.46 30.69.41" filter="url(#a)"/><path d="m-7.33-86.1.07 4.55-4.12 3.28 4.71.25 7.98-.48 6.66.76 4.67 2.76 3.61 4.21 3.13 4.25 2.67 2.9 2.24.81 1.98-1.4 1.28-3.65-1.19-5.94-4.13-6.51 2.18-.81" filter="url(#a)"/><path d="M18.02-83.79 1.44-73.1l4.97 1.93-.75-1.85-1.71-1.67 1.55-.41 3.47.33 2.31.21-.46-.45-2.99-1.1-4.46-1.29-4.95-.97-4.5-.33-2.74.38.59 1.2 4.99 2.35 8.9 3.87 9.92 5.21 6.15 5.11-1.7 2.05-7.05-4.19 1.08-10.1 14.33-6.34" filter="url(#a)"/><path d="M56.49-50.61 16.82-61.48l4.66-1.07 4.35 2.21-2.36 1.08-5.13-1.8-4.66-3.99-3.6-4.41-3.19-3.32-3.15-1.68-2.81-.29-1.76.71.2 1.6 3.24 2.62 7.12 3.46 10.15 3.08 8.89.31 1.33-4.79-5.64-7.96 11.01 1.09" filter="url(#a)"/><path d="m-51.89-57.91 39.99-12.53 17.58-.93 5.33 2.7 3.93 3.66 3.84 1.84 1.93-.85-.39-2.27-1.77-1.89-2.2-.72-2.27-.1-2.25-.61-1.93-1.87-1.04-2.89.45-2.84 2.13-1.51 3.13.76 2.53 3.19-.01 4.81-3.33 4.55-2.82 2.3 11.15 3.16 41.89 25.22" filter="url(#a)"/><path d="m-20.15-83.18-4.35 9.37 18.98 4.7 15.75 1.78 4.95-.87-1.36-1.42-2.27-.78-1.6-.44-1.72-.75-2.06-.98-.75-.46 2.64.76 5.25 1.83 2.59 1.71-5.38.59-4.21 1.46 42.95 5.19" filter="url(#a)"/><path d="m22.95-81.63-3.93 4.32-11.08 1.16.46 2.31 8.7 3.64 10.35 4.26 7.45 3.36 2.59 1.02-2.11-1.7-5.21-3.5-6.2-3.87-5.42-3.12-3.88-1.89-2.72-.82-2.82-.27-4.28-.28-6.31-.59-7.65-.65-7.37-.01-5.12 1.3-.72 2.46 5.77 2.1 8.6-.85L-30-78.52" filter="url(#a)"/><path d="m24.05-81.56 6.1 20.7-20.22-5.3-15.72-5.68-6.59-2.61-.31-.72 3 .14 4.06.69 3.35 1.02 1.76.91.69.47.8.19 1.51.43 2.09 1 3.66 1.56 8.56 2.39 15.69 4.16 16.35 5.2 4.5.79m15.58 44.07 3.94 1.68 2.98 2.34 1.1 2.45.87 2.42L79.02-.8l1.42 2.58 1.23 2.7.73 2.78.13 2.79-.3 2.75-.44 2.68-.27 2.64.13 2.59.68 2.56 1.19 2.54 1.51 2.51 1.51 2.47 1.17 2.45.53 2.4-.17 2.37-.72 2.29-.96 2.23-.81 2.16-.37 2.14.22 2.16.8 2.21 1.27 2.23 1.51 2.21 1.29 2.06.39 1.82-1.15 1.55-2.89 1.53M.09-86.67l-2.54.13-2.31.12-2.27.22-2.42.31-2.6.42-2.7.51-2.74.58-2.72.65-2.66.71-2.54.77-2.43.84-2.33.89-2.32.96-2.37 1.01-2.45 1.1-2.53 1.18-2.58 1.27-2.59 1.36-2.58 1.44-2.6 1.5-2.67 1.55-2.8 1.59-2.97 1.64-3.17 1.69-3.31 1.74-3.37 1.81-3.34 1.88-3.26 1.97-3.15 2.05-3.09 2.14-3.09 2.23-3.2 2.29-3.37 2.33-3.52 2.29-3.11 2.17-1.43 1.65" filter="url(#a)"/><path d="m-.46-86.52-3.07-.01-2.29.17-2 .28-2.01.35-2.08.42-2.1.47-2.12.53-2.14.62-2.22.72-2.32.81-2.4.9-2.46.96-2.47.99-2.45 1.02-2.4 1.05-2.34 1.11-2.23 1.2-2.15 1.32-2.1 1.43-2.17 1.55-2.38 1.69-2.63 2.09" filter="url(#a)"/><path d="m-2.61-86.47-2.01.03-2.27.19-2.96.31-3.28.42-3.28.5-3.16.57-3.13.63-3.27.7-3.59.76-4.01.82-4.28.87-4.28.92-3.94.97-3.47 1.03-3.16 1.13-3.24 1.23-3.7 1.34-4.38 1.44-4.96 1.5-5.27 1.53-5.45 1.54-5.86 1.56-6.69 1.64-7.61 1.8-9.89 2.08" filter="url(#a)"/><path d="m-2.61-86.47-2.08.03-1.9.19-2.19.31-2.42.42-2.49.51-2.46.58-2.38.63-2.32.7-2.29.77-2.24.82-2.22.88-2.2.93-2.23.98-2.3 1.05-2.44 1.14-2.6 1.25-2.75 1.34-2.8 1.44-2.73 1.49-2.53 1.54-2.29 1.56-2.12 1.59-2.15 1.63-2.4 1.68-2.7 1.7-2.85 1.69-3.43 1.92" filter="url(#a)"/><path d="m-3.97-86.68-2.18.26-1.99.33-2.19.38-2.34.44-2.43.5-2.53.57-2.68.66-2.84.76-2.92.86-2.89.93-2.73.98-2.5 1.04-2.27 1.09-2.13 1.15-2.09 1.23-2.15 1.31-2.24 1.41-2.32 1.5-2.35 1.57-2.33 1.64-2.35 1.69-2.44 1.73-2.61 1.76-2.85 1.8-3.04 1.84-3.1 1.9-2.98 1.97-2.66 2.04-2.23 2.11-1.87 2.17-1.8 2.24-2.12 2.32-2.67 2.37-3.07 2.42-3.05 2.57-2.57 2.88" filter="url(#a)"/><path d="m-5.23-86.56-1.15.25-2.16.34-2.69.44-2.91.53-2.95.59-2.93.65-2.94.72-3.07.78-3.26.83-3.45.9-3.56.95-3.51 1.01-3.35 1.08-3.1 1.18-2.88 1.27-2.76 1.36-2.76 1.44-2.86 1.5-3.05 1.55-3.28 1.59-3.55 1.62-3.92 1.68-4.37 1.72-4.88 1.79-5.31 1.87-5.5 1.95-5.41 2.04-5.14 2.13-4.91 2.23-4.85 2.32-5.26 2.32-7.17 2.1" filter="url(#a)"/><path d="m-5.23-86.56-1.08.25-1.94.32-2.29.43-2.4.52-2.52.58-2.65.63-2.73.69-2.75.75-2.67.82-2.56.87-2.43.91-2.34.95-2.31 1.01-2.37 1.11-2.46 1.21-2.59 1.34-2.72 1.45-2.84 1.51-2.97 1.53-3.17 1.5-3.39 1.46-3.11 1.59" filter="url(#a)"/><path d="m-5.67-86.3-2.27.29-2.51.45-2.25.55-2.07.61-1.98.65-1.87.72-1.7.79-1.44.84-1.1.91-.78.95-.52 1.02-.41 1.1-.42 1.19-.56 1.28-.74 1.37-.89 1.45-.91 1.5-.74 1.56-.38 1.6.1 1.64.57 1.69.91 1.74 1.02 1.81.99 1.89.93 1.97.96 2.06 1.1 2.14 1.18 2.22 1.01 2.27.67 2.29.65 2.26 1.43 2.15 2.71 1.98 4.43 1.97" filter="url(#a)"/><path d="m-7.33-86.1-3.5.49-2.49.58-2.23.62-2.26.66-2.37.72-2.5.79-2.63.85-2.77.91-2.84.96-2.83 1.02-2.73 1.1-2.61 1.19-2.55 1.29-2.62 1.37-2.81 1.46-3.14 1.51-3.5 1.56-3.83 1.6-4 1.64-3.98 1.7-3.69 1.75-3.19 1.82-2.61 1.89-2.16 1.97-2.03 2.06-2.32 2.14-2.87 2.22-3.41 2.25-3.73 2.27-3.85 2.24-4.06 2.14-4.43 2.03-4.46 1.95-3.72 1.97M68.87-15l5.22 3.62L79.1-8.6l2.35 2.33.85 2.28.06 2.43L82.4 1l.89 2.62 2.35 2.61 3.74 2.6 4.48 2.56 4.27 2.53 3.21 2.51 1.64 2.51.05 2.51-1.1 2.53-1.53 2.54-1.18 2.54-.34 2.51.58 2.46 1.18 2.4 1.24 2.34.83 2.29.14 2.25-.56 2.23-1.16 2.23-1.68 2.24-2.07 2.22-2.19 2.19-1.8 2.1-.92 1.97-.04 1.81.22 1.63.93 1.24M68.87-15l.97 3.57.7 2.77.12 2.28-.1 2.22-.09 2.38-.03 2.52-.01 2.59-.01 2.59v2.56l.06 2.54.13 2.5.18 2.46.13 2.42-.02 2.44-.22 2.48-.41 2.56-.49 2.6-.47 2.57-.41 2.46-.49 2.31-.86 2.3-1.38 2.73" filter="url(#a)"/><path d="m-11.56-85.55-3.73.75-3.52.53-3.69.61-3.83.76-3.68.89-3.17.96-2.58 1.01-2.19 1.03-2.13 1.05-2.23 1.11-2.38 1.19-2.47 1.28-2.56 1.39-2.76 1.49-3.14 1.57-3.65 1.64-4.24 1.68-4.74 1.72-5.06 1.72-5.19 1.74-5.33 1.75-5.69 1.77-6.09 1.88-5.92 2.18-6.4 2.65" filter="url(#a)"/><path d="m-11.56-85.55-2.97.76-2.23.54-2.76.63-3.49.78-3.76.91-3.4.97-2.72 1.02-2.09 1.06-1.8 1.09-1.87 1.16-2.16 1.24-2.5 1.33-2.73 1.43-2.79 1.52-2.72 1.6-2.58 1.65-2.46 1.71-2.45 1.74-2.57 1.77-2.8 1.82-3.06 1.87-3.31 1.92-3.51 1.99-3.63 2.06-3.72 2.12-3.78 2.2-3.82 2.25-3.77 2.31-3.66 2.35-3.48 2.38-3.29 2.37-3.07 2.33-2.69 2.26-2.13 2.2-1.87 2.24-3.02 2.49-6.44 3.44" filter="url(#a)"/><path d="m-13.09-85.07-2.89.69-1.9.61-1.92.68-2.11.78-2.25.85-2.3.9-2.27.93-2.23.98-2.24 1.04-2.33 1.14-2.48 1.25-2.59 1.36-2.58 1.45-2.42 1.5-2.14 1.53-1.9 1.54-1.81 1.58-1.93 1.62-2.22 1.67-2.48 1.69-2.41 1.68-2.42 1.9" filter="url(#a)"/><path d="m-16.36-84.48-4.16.67-3.4.86-2.26.97-2.11 1.02-2.24 1.04-2.33 1.05-2.39 1.08-2.48 1.14-2.53 1.23-2.5 1.33-2.41 1.44-2.31 1.52-2.29 1.6-2.32 1.66-2.4 1.7-2.53 1.74-2.67 1.77-2.9 1.81-3.18 1.85-3.54 1.91-3.85 1.98-4.04 2.05-3.99 2.12-3.72 2.18-3.36 2.25-3.07 2.31-2.97 2.36-2.96 2.4-2.87 2.4-2.75 2.35-2.99 2.24-3.85 2.14-3.88 2.56m96.97-56.13-.49.75-.76.84-2.02.91-2.17.95-1.62.96-.78 1.02-.02 1.09.41 1.2.4 1.31.03 1.4-.55 1.48-1.12 1.54-1.57 1.57-1.75 1.61-1.67 1.65-1.28 1.7-.7 1.77-.02 1.83.63 1.91 1.15 1.99 1.52 2.06 1.77 2.15 1.98 2.19 2.16 2.23 2.24 2.24 2.1 2.21 1.64 2.18 1.02 2.17.62 2.19.87 2.28 1.58 2.35 1.81 2.15.79 1.3" filter="url(#a)"/><path d="m-16.64-83.88-2.94.75-2.35.84-2.13.91-1.95.94-1.81.96-1.72 1.01-1.73 1.09-1.77 1.19-1.83 1.31-1.87 1.4-1.85 1.47-1.82 1.53-1.75 1.57-1.69 1.6-1.64 1.65-1.6 1.69-1.56 1.75-1.55 1.82-1.52 1.9-1.49 1.98-1.46 2.06-1.44 2.14-1.39 2.21-1.33 2.24-1.24 2.25-1.15 2.22-1.03 2.15-.93 2.08-.9 2.1-.94 2.32-1.13 2.91" filter="url(#a)"/><path d="m-20.15-83.18-1.95.88-2.16.92-2.04.97-1.84.96-1.74 1-1.76 1.08-1.85 1.2-1.96 1.32-2.03 1.41-2.1 1.49-2.16 1.54-2.24 1.57-2.33 1.61-2.41 1.65-2.43 1.7-2.41 1.77-2.3 1.83-2.15 1.91-2 1.99-1.88 2.06-1.78 2.14-1.75 2.2-1.74 2.23-1.74 2.24-1.72 2.21-1.66 2.18-1.6 2.16-1.59 2.19-1.65 2.28-1.66 2.34-1.39 2.15-.82 1.3" filter="url(#a)"/><path d="M-20.15-83.29-22.59-82l-2.19 1.07-2.14 1.05-2.03 1.03-1.91 1.04-1.86 1.1-1.85 1.2-1.87 1.31-1.88 1.42-1.88 1.52-1.88 1.6-1.88 1.65-1.85 1.7-1.83 1.71-1.8 1.74-1.77 1.76-1.76 1.81-1.77 1.86-1.79 1.94-1.76 2.02-1.68 2.09-1.56 2.11-1.44 2.19-1.57 2.58-2.15 3.54" filter="url(#a)"/><path d="m-20.15-83.29-2.45 1.3-2.64 1.08-2.89 1.06-2.76 1.05-2.48 1.07-2.23 1.13-2.12 1.23-2.08 1.34-2.1 1.46-2.13 1.54-2.17 1.62-2.21 1.67-2.26 1.72-2.31 1.75-2.33 1.78-2.28 1.82-2.12 1.87-1.92 1.93-1.75 1.99-1.69 2.07-1.77 2.13-1.98 2.2-2.23 2.25-2.41 2.31-2.43 2.34-2.28 2.36-2.01 2.36-1.69 2.32-1.44 2.29-1.29 2.27-1.33 2.32-1.54 2.41-1.95 2.5-2.46 2.32-2.77 1.64" filter="url(#a)"/><path d="m-24.19-81.57-2.09 1.2-1.38.99-1.23.95-1.27 1.04-1.33 1.2-1.38 1.33-1.39 1.45-1.38 1.5-1.32 1.55-1.24 1.57-1.2 1.61-1.25 1.65-1.31 1.7-1.35 1.76-1.31 1.83-1.15 1.91-.94 1.99-.79 2.07-.74 2.14-.81 2.2-.92 2.23-.98 2.23-.88 2.21-.59 2.17-.23 2.15.01 2.19.02 2.27-.09 2.34.05 2.15.35 1.29" filter="url(#a)"/><path d="m-23.85-81.21-2.85 1.37-1.05 1.11-.47 1.02-.99 1.1-1.68 1.22-2.07 1.35-2.05 1.47-1.81 1.56-1.48 1.64-1.22 1.68-1.04 1.72-.94 1.75-.87 1.78-.75 1.82-.52 1.86-.19 1.93.2 1.99.57 2.07.83 2.13.87 2.2.71 2.25.4 2.31.13 2.34.03 2.36.21 2.35.67 2.32 1.31 2.28 1.93 2.27 2.35 2.31 2.41 2.42 2.08 2.49 1.69 2.31 2.14 1.64M-30-78.52l-2.55.92-6.12 1.26-6.37 1.43-5 1.5-3.56 1.54-2.42 1.55-1.61 1.56-1.24 1.58-1.31 1.62-1.72 1.67-2.26 1.73-2.77 1.8-3.11 1.88-3.24 1.96-3.22 2.05-3.24 2.13-3.44 2.21-3.81 2.25-4.25 2.27-4.72 2.22-5.38 2.11-5.94 1.95-5.39 1.94m80.29-39.23-2.75 1.78-2.52 1.58-2.41 1.57-2.25 1.58-2.15 1.58-2.19 1.6-2.44 1.66-2.85 1.71-3.19 1.78-3.3 1.86-3.09 1.93-2.66 2.02-2.22 2.1-1.96 2.15-2 2.21-2.28 2.22-2.68 2.22-3.01 2.21-3.18 2.2-3.13 2.19-2.94 2.22-2.71 2.24-2.54 2.28-2.46 2.36-2.52 2.47-2.68 2.67-2.9 2.94-3.16 3.18-3.46 3.2-4.05 2.74-5.17 1.49" filter="url(#a)"/><path d="m-33.89-75.9-2.54 1.81-1.93 1.56-1.81 1.61-1.8 1.69-1.78 1.72-1.71 1.74-1.61 1.74-1.51 1.77-1.43 1.81-1.38 1.86-1.34 1.92-1.32 2-1.29 2.07-1.26 2.14-1.22 2.2-1.19 2.26-1.14 2.3-1.09 2.34-1.04 2.35-.97 2.34-.9 2.31-.83 2.28-.78 2.27-.72 2.31-.69 2.38-.65 2.43-.58 2.38-.49 2.28-.51 2.66" filter="url(#a)"/><path d="m-36.85-73.69-2.77 2.03-2.75 1.64-3.97 1.56-4.97 1.57-4.77 1.63-3.77 1.7-2.99 1.77-3.04 1.84-3.83 1.92-4.78 2.01-5.32 2.09-5.19 2.16-4.55 2.2-3.76 2.23-3.29 2.22-3.44 2.19-4.22 2.17-5.34 2.17-6.2 2.18-6.17 2.22-5.11 2.24-3.61 2.24-2.8 2.27-3.35 2.46-4.65 2.98-7.01 3.91" filter="url(#a)"/><path d="m-36.85-73.69-4.31 2.04-6.02 1.64-4.95 1.57-3.37 1.59-2.93 1.64-3.28 1.71-3.55 1.79-3.35 1.86-2.71 1.94-1.92 2.03-1.18 2.1-.73 2.17-.67 2.2-.97 2.23-1.55 2.22-2.23 2.21-2.87 2.2-3.45 2.19-3.98 2.21-4.49 2.25-4.85 2.3-4.86 2.37-4.34 2.5-3.3 2.69-2.12 2.9-1.5 3.08-2.1 3.07-3.82 2.8-5.33 2.41-5.13 2.64m95.86-66.55-2.48 2.02-1.8 1.63-1.65 1.55-1.65 1.56-1.64 1.62-1.6 1.69-1.52 1.75-1.46 1.83-1.44 1.9-1.46 1.99-1.49 2.08-1.52 2.15-1.51 2.2-1.43 2.23-1.32 2.21-1.18 2.19-1.07 2.14-1.02 2.12-1.03 2.16-1.08 2.26-1.08 2.32-.93 2.12-.6 1.27" filter="url(#a)"/><path d="m-41.65-69.48-1.81 2.17-1.8 1.8-1.49 1.73-1.32 1.74-1.25 1.8-1.22 1.85-1.16 1.94-1.11 2.02-1.06 2.09-1.03 2.17-1.06 2.22-1.07 2.27-1.09 2.31-1.06 2.34-1.01 2.35-.93 2.33-.82 2.31-.73 2.3-.64 2.3-.58 2.33-.54 2.37-.5 2.4-.42 2.43-.31 2.46-.18 2.48-.07 2.51v2.54l-.02 2.7-.14 3.55" filter="url(#a)"/><path d="m-44.3-67.08-2.02 1.86-2.36 1.82-2.32 1.82-1.86 1.85-1.39 1.95-1.18 2.04-1.16 2.13-1.24 2.19-1.31 2.22-1.33 2.24-1.31 2.22-1.31 2.2-1.35 2.18-1.41 2.19-1.5 2.2-1.54 2.24-1.51 2.3-1.39 2.39-1.21 2.51-.99 2.69-.82 2.88-.77 3.01-.86 2.97-1.04 2.74-1.23 2.37-1.22 2-.53 1.41" filter="url(#a)"/><path d="m-44.3-67.08-1.84 1.86-3.65 1.83-4.28 1.82-3.19 1.86-1.86 1.96-1.36 2.05-1.7 2.13-2.45 2.2-3.1 2.23-3.43 2.24-3.38 2.22-3.02 2.21-2.57 2.19-2.19 2.19-1.99 2.22-1.96 2.27-1.96 2.32-1.86 2.42-1.6 2.55-1.31 2.69-1.23 2.84-1.52 2.92-2.17 2.88-2.87 2.71-3.16 2.49-2.78 2.31-2.02 2.25-1.59 2.11-1.63 1.06" filter="url(#a)"/><path d="m-47.77-63.74-1.38 1.8-2.06 1.85-2.23 1.86-1.87 1.94-1.49 2.06-1.33 2.14-1.34 2.2-1.4 2.25-1.39 2.3-1.36 2.33-1.32 2.36-1.3 2.36-1.31 2.34-1.31 2.33-1.28 2.33-1.27 2.33-1.26 2.36-1.24 2.39-1.19 2.43-1.1 2.46-.97 2.5-.83 2.53-.73 2.58-.7 2.61-.73 2.64-.79 2.65-.8 2.64-.74 2.64-.68 2.61-.66 2.61-.76 2.59-.77 2.58-.43 2.64.1 3.05" filter="url(#a)"/><path d="m-47.51-63.33-8.67 1.92.02 1.8-.01 1.96-1.64 2.1-2.55 2.18-2.53 2.23-2.01 2.27-1.54 2.26-1.42 2.24-1.7 2.23-2.31 2.21-3.01 2.23-3.55 2.26-3.78 2.32-3.64 2.4-3.22 2.5-2.67 2.6-2.11 2.7-1.61 2.76-1.24 2.78-1.01 2.75-.91 2.69-.98 2.61-1.22 2.57-1.54 2.55-1.82 2.57-1.96 2.59-1.84 2.61-1.57 2.6-1.31 2.54-1.28 2.48-1.58 2.42-2.09 2.39-2.45 2.4-2.45 2.45-2 2.64-.25 3.07" filter="url(#a)"/><path d="m-47.51-63.33-1.71 1.92-1.47 1.8-1.61 1.96-1.87 2.09-2.13 2.18-2.33 2.23-2.45 2.27-2.5 2.26-2.45 2.24-2.31 2.22-2.07 2.21-1.77 2.23-1.49 2.26-1.32 2.31-1.31 2.4-1.45 2.49-1.69 2.6-1.99 2.7-2.26 2.76-2.47 2.79-2.59 2.75-2.56 2.69-2.37 2.61-2.05 2.55-1.66 2.54-1.36 2.57L-100 .89l-1.4 2.63-1.77 2.6-2.21 2.55-2.54 2.47-2.49 2.41-1.93 2.36-1.06 2.36-.61 2.34-.3 2.49" filter="url(#a)"/><path d="m-47.51-63.33-1.85 1.91-1.54 1.79-1.46 1.95-1.46 2.09-1.42 2.17-1.37 2.22-1.3 2.26-1.21 2.26-1.12 2.23-1.04 2.21-.99 2.2-.97 2.21-.96 2.24-.99 2.29-.99 2.37-.98 2.47-.92 2.58-.84 2.7-.74 2.79-.64 2.82-.55 2.78-.49 2.68-.44 2.58-.4 2.5-.35 2.48-.26 2.54-.17 2.63-.07 2.71v2.68l.03 2.58.06 2.57.34 2.81" filter="url(#a)"/><path d="m-48.85-62.08 5.88 2.06-2.35 1.82-2.89 1.91-2.1 2.07-1.18 2.15-.22 2.2.66 2.25 1.23 2.3 1.34 2.34 1.08 2.35.77 2.36.75 2.34 1.21 2.33 2.01 2.31 2.8 2.33 3.24 2.35 3.14 2.39 2.56 2.42 1.78 2.45 1.01 2.5.46 2.53.08 2.57-.13 2.61-.19 2.63.09 2.65.9 2.65 2.16 2.63 3.44 2.61 4.01 2.6 3.5 2.57 2.21 2.49 1.03 2.18m-38.28-75.95-1.71 2.07-1.35 1.82-1.45 1.92-1.63 2.07-1.74 2.16-1.82 2.21-1.89 2.26-1.95 2.3-2.01 2.35-2.03 2.36-1.97 2.36-1.86 2.35-1.78 2.33-1.76 2.33-1.88 2.34-2.08 2.36-2.29 2.39-2.4 2.44-2.36 2.46-2.16 2.51-1.82 2.54-1.43 2.58-1.02 2.61-.62 2.63-.27 2.65v2.64l.12 2.64.05 2.63-.2 2.62-.59 2.63-.98 2.66-1.18 2.74-.95 2.81-.35 2.72.37 1.91m163.75-43 12.54 2.61-1.38 3.11-3.06 3.06-1.86 2.76-.47 2.51.63 2.44 1.51 2.47L78.03.82l2.7 2.58 2.88 2.59 2.82 2.58 2.67 2.56 2.48 2.53 2.21 2.5 1.69 2.5.81 2.5-.28 2.52-1.33 2.54-1.99 2.56-2.06 2.52-1.52 2.48-.54 2.41.61 2.33 1.67 2.27L93.29 43l2.64 2.19 2.1 2.22.91 2.28v2.25l1.14 2.24" filter="url(#a)"/><path d="m67.91-20.68 1.02 2.59L70.67-15l1.81 3.05 1.73 2.75 1.65 2.5 1.5 2.4 1.18 2.45.78 2.51.47 2.57.42 2.59.71 2.57 1.24 2.55 1.79 2.51 2.11 2.48 1.98 2.45 1.45 2.47.69 2.5.02 2.56-.38 2.59-.51 2.56-.54 2.48-.62 2.4-.57 2.39-.21 2.56-.5 2.74M-52.18-57.7l-2.22 2.26-1.37 2.19-1.24 2.25-1.41 2.29-1.77 2.3-2.18 2.25-2.41 2.21-2.32 2.19-1.91 2.21-1.42 2.26-1.04 2.31-.96 2.4-1.18 2.5-1.6 2.62-2.11 2.71-2.54 2.77-2.83 2.79-2.94 2.75-2.85 2.68-2.58 2.61-2.17 2.57-1.67 2.55-1.16 2.56-.72 2.59-.42 2.59-.23 2.58-.16 2.54-.1 2.48-.03 2.44-.01 2.41-.15 2.42-.59 2.45-1.29 2.46-1.9 2.41-1.69 2.09.29 1.42" filter="url(#a)"/><path d="m-52.73-57.13-3.68 2.77-2.91 2.41-1.98 2.19-1.48 2.19-1.47 2.27-1.53 2.33-1.46 2.36-1.3 2.35-1.29 2.32-1.62 2.28-2.2 2.27-2.8 2.27-3.12 2.3-2.99 2.35-2.49 2.4-1.83 2.41-1.29 2.44-.97 2.47-.91 2.52-1.28 2.59-2.21 2.75-3.17 3.05-1.83 3.21" filter="url(#a)"/><path d="m-53.47-55.41-3.31 2.22-4.39 2.17-4.25 2.3-3.06 2.3-1.59 2.24-.36 2.18.33 2.16.45 2.17.13 2.21-.48 2.27-1.17 2.34-1.81 2.45-2.29 2.57-2.51 2.71-2.52 2.82-2.44 2.85-2.4 2.79-2.48 2.67-2.65 2.53-2.81 2.44-2.89 2.44-2.92 2.52-2.87 2.65-2.59 2.73-1.9 2.68-1.06 2.45-.29 2.51" filter="url(#a)"/><path d="m-54.8-54.1-2.66 2.44-2.4 2.1-1.46 2.14-1.12 2.28-1.32 2.37-1.81 2.39-2.39 2.38-3.08 2.33-3.76 2.31-4.22 2.29-4.21 2.31-3.68 2.34-2.83 2.39-2.03 2.42-1.64 2.45-1.78 2.49-2.3 2.53-2.89 2.56-3.28 2.61-3.34 2.63-3.2 2.64-3.11 2.63-3.21 2.62-3.56 2.6-4.2 2.59-5.02 2.58-5.36 2.56-4.09 2.64-3.94 3.03m87.53-70.19-1.5 1.64-1.54 2.36-1.3 2.37-1.12 2.26-.98 2.18-.87 2.16-.8 2.19-.79 2.23-.79 2.31-.8 2.38-.82 2.5-.84 2.61-.84 2.73-.83 2.79-.79 2.8-.72 2.76-.62 2.67-.5 2.6-.39 2.54-.27 2.53-.18 2.56-.1 2.58-.03 2.6.01 2.59.04 2.53.07 2.47.1 2.42.15 2.39.21 2.41.31 2.46.41 2.54.49 2.59.36 2.26" filter="url(#a)"/><path d="m-56.18-52.02-6.25 3.3-5.54 2.5-4.73 2.23-3.65 2.12-3.01 2.1-3.22 2.12-4.05 2.18-4.56 2.25-3.94 2.3-2.25 2.4-.33 2.54.73 2.71.27 2.85-1.55 2.91-4.02 2.83-6.39 2.66-8.08 2.45-8.63 2.31-7.75 2.28-5.84 2.37-4.5 2.72-2.36 4.21" filter="url(#a)"/><path d="m-56.18-52.02-1.95 3.3-1.72 2.51-2.45 2.24-3.66 2.14-4.46 2.1-4.32 2.14-3.32 2.19-2.07 2.26-1.13 2.32-.73 2.43-.78 2.56-.96 2.72-1.12 2.84-1.29 2.87-1.49 2.8-1.76 2.66-1.99 2.5-2.06 2.39-1.97 2.39-1.86 2.49-1.96 2.68-2.41 2.82-3.08 2.68-2.51 1.94m48.97-56.02.16 2.87 1.77 2.67.53 2.46-1.09 2.39-1.77 2.34-1.61 2.29-1.04 2.29-.37 2.3.27 2.36.8 2.4 1.19 2.44 1.4 2.47 1.43 2.51 1.35 2.55 1.19 2.58 1.04 2.61.88 2.63.72 2.64.58 2.64.53 2.63.68 2.62 1.06 2.63 1.63 2.64 2.13 2.66 2.39 2.68 2.28 2.67 1.96 2.65 1.66 2.57 1.59 2.52 1.53 2.48 1.37 2.43 2.89 2.09" filter="url(#a)"/><path d="m-59.39-45.94-2.12 2.19-4.12 2.13-3.49 2.05-1.89 2.11-1.12 2.19-1.34 2.27-1.82 2.33-1.97 2.42-1.74 2.57-1.5 2.73-1.56 2.85-1.92 2.87-2.29 2.8-2.36 2.64-1.98 2.49L-92-6.9l-.92 2.41-.89 2.5-1.21 2.64-1.57 2.73-1.69 2.66-1.93 2.42-2.42 2.5m41.26-51.92-1.37 3.27-1.57 2.64-1.55 2.3-1.23 2.22-.9 2.28-.81 2.36-.97 2.42-1.36 2.46-1.83 2.49-2.25 2.52-2.47 2.56-2.44 2.59-2.16 2.62-1.75 2.64-1.36 2.65-1.05 2.64-.91 2.64-.94 2.63-1.1 2.64-1.35 2.65-1.58 2.66-1.67 2.65-1.57 2.65-1.22 2.62-.64 2.58.08 2.54.84 2.5 1.45 2.46 1.72 2.44 1.49 2.41.82 2.39.03 2.42-.44 2.58.33 3.2" filter="url(#a)"/><path d="m-64.2-34.26-.76 1.84-1.67 1.99-1.86 2.22-1.52 2.39-1.11 2.46-.88 2.48-.93 2.5-1.12 2.52-1.25 2.56-1.25 2.6-1.1 2.62-.91 2.65-.71 2.65-.58 2.64-.49 2.64-.43 2.63-.39 2.64-.37 2.65-.34 2.65-.26 2.66-.13 2.64.11 2.61.38 2.58.63 2.53.8 2.5.86 2.47.81 2.44.66 2.43.48 2.42.27 2.46.02 2.49-.26 2.48-.55 2.23-.31 1.49" filter="url(#a)"/><path d="m-64.52-32.22-3.67 1.72-9.14 2.24-7.55 2.43-2.85 2.49.53 2.48 1.64 2.48 1.25 2.51.33 2.54-.43 2.6-.76 2.62-.62 2.64-.28 2.64-.02 2.63-.05 2.63-.47 2.62-1.18 2.63-1.98 2.63-2.68 2.65-3.18 2.66-3.46 2.64-3.55 2.61-3.5 2.57-3.21 2.53-2.69 2.48-2 2.46-1.43 2.43-1.16 2.39-.95 2.33-.28 2.28-.47 2.02" filter="url(#a)"/><path d="m-64.95-31.84-1 2.03-.57 2.06-.6 2.55-.68 2.93-.78 3.06-.9 2.98-1.03 2.79-1.09 2.62-1.01 2.52-.8 2.48-.53 2.51-.31 2.55-.23 2.58-.32 2.58-.53 2.56-.74 2.52-.86 2.47-.81 2.45-.6 2.43-.31 2.45-.05 2.48.09 2.51.08 2.57-.04 2.61-.2 2.64-.3 2.63-.31 2.56-.26 2.44-.1 2.29.14 2.15.55 2.04 1.03 1.94.98 1.98" filter="url(#a)"/><path d="m-65.17-31.04-1.56 2.71-2.15 2.55-1.92 2.56-1.15 2.5-.52 2.49-.44 2.51-.81 2.57-1.41 2.6-1.94 2.64-2.18 2.66-2.08 2.65-1.69 2.65-1.16 2.64-.71 2.64-.43 2.64-.35 2.65-.4 2.65-.46 2.65-.44 2.64-.34 2.6-.18 2.58-.09 2.53-.2 2.5-.49 2.47-.86 2.45-1.07 2.44-.96 2.42-.57 2.42-.12 2.37.1 2.3.03 2.16.02 1.99.45 1.93.94 2.03-.45 1.96" filter="url(#a)"/><path d="m-65.54-29.27-.58 1.41-.86 2.5-.97 3.05-.87 3.17-.66 3.04-.48 2.8-.42 2.59-.44 2.49-.46 2.46-.43 2.49-.35 2.55-.24 2.59-.13 2.58-.07 2.56-.02 2.52-.03 2.47-.01 2.44v2.43l.06 2.44.14 2.47.23 2.52.32 2.56.43 2.61.53 2.64.67 2.63.78 2.56.86 2.44.85 2.28.84 2.15.89 2.03.99 1.95 1.03 1.97" filter="url(#a)"/><path d="m-66.27-27.75-.36 2.01-.68 2.56-.73 2.49-.69 2.44-.61 2.47-.5 2.54-.41 2.59-.32 2.63-.25 2.64-.16 2.63-.12 2.63-.1 2.61-.11 2.61-.13 2.61-.14 2.63-.12 2.64-.05 2.65.06 2.64.19 2.61.3 2.56.4 2.51.51 2.48.62 2.45.78 2.42.85 2.39.76 2.36.58 2.61M66.32-26.57l1.41 1.68 1.8 1.98 1.42 2.31 1.12 2.6 1.08 2.79 1.23 2.81 1.49 2.7 1.78 2.57 1.96 2.49 2 2.49L83.47.37l1.71 2.56 1.69 2.57 2 2.57 2.59 2.56 3.23 2.52 3.49 2.47 3.01 2.44 1.87 2.43.61 2.49.13 2.59.83 2.69 2.22 2.67 3.37 2.55 3.93 2.44" filter="url(#a)"/><path d="m65.11-31.39 1.25 3.12.71 2.4 1.26 2.32 2.24 2.43 2.97 2.52 3.08 2.53 2.6 2.5 1.85 2.45 1.18 2.41.77 2.41.66 2.42.78 2.48.98 2.55 1.15 2.63 1.19 2.72 1.07 2.75.89 2.74.77 2.69.88 2.63 1.27 2.6 1.8 2.58 2.14 2.57 2.04 2.52 1.5 2.41.87 2.33.77 2.42 1.13 2.73.11 3.38" filter="url(#a)"/><path d="m63.98-34.73 3.27 3.23 1.12 2.88.53 2.51.53 2.41.7 2.45.9 2.5 1.14 2.51 1.4 2.48 1.6 2.45 1.63 2.4 1.49 2.4 1.22 2.4.96 2.44.85 2.52.87 2.62.97 2.72.94 2.78.69 2.77.29 2.68.01 2.57.15 2.53.72 2.62 1.2 2.82.99 3.03.17 3.14" filter="url(#a)"/><path d="M63.06-36.28 65-33.6l1.85 2.66 1.72 2.67 1.65 2.55 1.35 2.47.82 2.51.32 2.62-.02 2.7-.13 2.73-.1 2.68.04 2.59.2 2.54.39 2.52.59 2.53.75 2.56.86 2.58.83 2.58.67 2.56.44 2.54.18 2.48v2.44l-.11 2.41-.18 2.48-.26 2.62-.37 2.75-.47 2.73-.21 2.39" filter="url(#a)"/><path d="m61.94-39.88 1.4 3.17.97 2.63.92 2.64 1.06 2.61 1.36 2.53 1.64 2.49 1.79 2.49 1.71 2.51 1.44 2.51 1.07 2.49.72 2.46.5 2.43.42 2.43.44 2.44.48 2.48.53 2.55.54 2.64.57 2.71.58 2.75.53 2.74.42 2.7.22 2.64.06 2.61.08 2.6.29 2.6.63 2.53.75 2.38.43 2.24-.17 2.29.43 2.27M61.14-42.29l-.8-2.01-.74-2-.48-2.13-.32-2.19-.33-2.18-.41-2.09-.53-1.98-.68-1.86-.94-1.79-1.26-1.75-1.54-1.75-1.66-1.74-1.6-1.73-1.41-1.67-1.22-1.6-1.12-1.5-1.17-1.41-1.31-1.31-1.44-1.22-1.51-1.13-1.53-1.06-1.5-.99-1.52-.93-1.62-.89-1.87-.84-2.27-.83-2.75-.8-3.19-.76-3.38-.7-3.91-.56" filter="url(#a)"/><path d="m59.72-44.72 2.2-1.56 3.18-2.12.87-2.21-1.18-2.2-2.16-2.11-2.5-1.96-2.46-1.83-2.08-1.74-1.38-1.72-.54-1.72.13-1.75.3-1.74-.11-1.7-.95-1.62-1.82-1.51-2.35-1.4-2.33-1.31-1.88-1.23-1.37-1.16-1.13-1.06-1.32-.95-1.62-.85-2.05-.95" filter="url(#a)"/><path d="m57.38-49.6 7.32-1.33 1.86-2.18-.61-2.18-2.13-1.97-2.3-1.8-1.74-1.74-1.25-1.73-1.04-1.75-1.03-1.75-1.05-1.72-1.08-1.66-1.17-1.58-1.39-1.48-1.72-1.39-2.07-1.28-2.4-1.2-2.6-1.12-2.68-1.05-2.63-.99-2.49-.93-2.3-.88-2.14-.83-2.09-.78-2.21-.74-2.49-.66-2.86-.59-3.22-.5-3.51-.4-3.67-.3-3.79-.2-3.9-.13-4.01-.05h-4.03l-3.8.07-3.32.13-3.3.19" filter="url(#a)"/><path d="m55.34-53.32-1.84-2.44-1.21-1.8-1.07-1.62-1.1-1.61-1.23-1.66-1.39-1.71-1.5-1.75-1.56-1.75-1.57-1.7-1.58-1.59-1.62-1.48-1.69-1.37-1.8-1.28-1.86-1.2-1.86-1.12-1.8-1.04-1.7-.97-1.64-.9-1.72-.86-1.91-.83-2.1-.78-2.02-.69m35.77 30.15 4.42-2.44-.52-1.8-.11-1.62.19-1.61.33-1.66.48-1.71.38-1.75-.17-1.75-.89-1.7-1.38-1.59-1.47-1.48-1.27-1.37-1.12-1.28-1.24-1.2-1.62-1.12-1.98-1.04-2.09-.97-2-.9-2.11-.86-2.63-.83-2.84-.78-2.16-.69" filter="url(#a)"/><path d="m55.34-53.32-.56-2.44 1.97-1.81 1.33-1.62.07-1.62-.34-1.66.08-1.71.74-1.76 1.06-1.75.7-1.69-.11-1.59-.92-1.48-1.31-1.37-1.25-1.28-1-1.19-.97-1.12-1.32-1.04-1.93-.97-2.53-.91-2.91-.86-3.07-.84-3.09-.81-3.08-.82-3.1-.94m19.53 28.38-1.71-2.2-1.52-2.06-1.33-1.89-1.16-1.77-1.03-1.66-1.01-1.57-1.15-1.5-1.37-1.45-1.55-1.41-1.7-1.36-1.79-1.33-1.85-1.27-1.86-1.21-1.86-1.15-1.83-1.07-1.79-.99-1.79-.91-1.84-.84-1.92-.79-2.01-.73-2.1-.69-2.14-.63-2.18-.55-2.24-.46-2.39-.38-2.52-.29-2.59-.14" filter="url(#a)"/><path d="m51.38-58.47-.48-2.2-1.55-1.87-1.1-1.75-.22-1.67.34-1.56.23-1.5-.41-1.45-1.16-1.41-1.65-1.37-1.77-1.32-1.6-1.26-1.32-1.2-1.16-1.13-1.22-1.05-1.5-.98-1.91-.9-2.34-.84-2.66-.77-2.86-.71-2.96-.64-3.01-.58-3.04-.5-3.1-.42-3.21-.33-3.37-.25-3.57-.17-3.82-.08-4.03-.01-4.23.08-4.39.16-4.55.24-4.78.33-4.97.39-4.82.44-3.97.44-2.94.46" filter="url(#a)"/><path d="m51.38-58.47-1.05-2.2-1.51-1.86-1.39-1.75-.95-1.66-.44-1.56-.11-1.49-.13-1.45-.47-1.4-.98-1.37-1.45-1.32-1.78-1.27-1.93-1.2-1.94-1.13-1.89-1.06-1.86-.98-1.9-.91-2.02-.83-2.2-.78-2.4-.72-2.58-.65-2.72-.59-2.81-.52-2.88-.43-2.96-.35-3.07-.26-3.27-.18-3.5-.1-3.76-.02-3.91.05-3.8.15-3.42.24-3.53.35" filter="url(#a)"/><path d="m49.45-61.08-.84-1.6-1.12-1.7-1.5-1.66-1.66-1.55-1.72-1.48-1.74-1.44-1.74-1.41-1.74-1.36-1.75-1.32-1.77-1.27-1.82-1.19-1.87-1.13-1.91-1.05-1.93-.98-1.95-.9-1.95-.83-1.96-.77-1.99-.7-2.02-.65-2.05-.58-2.1-.5-2.16-.42-2.21-.33-2.29-.26-2.35-.16-2.4-.09-2.43-.01-2.41.07-2.35.16-2.28.24-2.29.33-2.4.42-2.47.46-1.72.26" filter="url(#a)"/><path d="m49.45-61.08-.97-1.61-.28-1.7.23-1.66.26-1.56-.1-1.48-.69-1.44-1.39-1.41-1.99-1.37-2.35-1.32-2.42-1.26-2.29-1.19-2.08-1.13-1.89-1.05-1.8-.97-1.81-.9-1.89-.83-2.01-.76-2.18-.71-2.35-.63-2.52-.57-2.68-.49-2.84-.42-2.99-.32-3.11-.25-3.24-.16-3.34-.07H-2.7l-3.49.09-3.55.16-3.64.25-3.77.32-3.87.39-3.89.44-3.73.49-3.61.58-4.14.78-5.73 1.27" filter="url(#a)"/><path d="m47.94-62.82 4.71-1.56.35-1.73-1.92-1.55-2.61-1.44-2.59-1.42-2.31-1.4-1.94-1.36-1.53-1.32-1.23-1.26-1.13-1.2-1.27-1.13-1.6-1.06-1.96-.97-2.22-.89-2.29-.83-2.2-.77-2.07-.72-1.99-.66-2.04-.6-2.24-.52-2.55-.44-2.9-.35-3.24-.26-3.55-.18-3.86-.11-4.23-.03-4.79.02-5.27.12" filter="url(#a)"/><path d="m47.74-63.71-2.35-2.54-.96-1.53-.76-1.39-1.19-1.4-1.7-1.4-1.97-1.37-2.02-1.31-1.95-1.26-1.87-1.2-1.83-1.12-1.83-1.05-1.85-.97-1.85-.89-1.85-.83-1.86-.76-1.88-.72-1.92-.65-2.01-.6-2.13-.52-2.25-.43L9.33-86l-2.53-.27-2.66-.18-2.8-.1-3-.03-3.29.02-3.51.12" filter="url(#a)"/><path d="m47.74-63.71 1.93-2.55-2.74-1.53-3.06-1.4-2.5-1.4L39.38-72l-1.65-1.36-1.49-1.32-1.38-1.26-1.29-1.2-1.17-1.12-1.05-1.05-1.01-.96-1.1-.89-1.31-.82-1.64-.77-2-.71-2.33-.64-2.59-.58-2.77-.51-2.88-.42-2.98-.34-3.07-.25-3.17-.18-3.29-.09-3.4-.01-3.47.06-3.42.14-3.3.23-3.35.27-3.78.23" filter="url(#a)"/><path d="m47.74-63.71-2.01-2.56-1.55-1.54-1.57-1.4-1.63-1.41-1.67-1.41-1.7-1.37-1.75-1.32-1.82-1.26-1.87-1.19-1.93-1.12-1.96-1.04-1.97-.97-1.97-.89-1.97-.82-1.98-.76-2-.7-2.03-.63-2.06-.56-2.11-.49-2.17-.41-2.23-.32-2.3-.24-2.35-.16-2.41-.07H-1.7l-2.41.09-2.38.17-2.35.25-2.32.32-2.3.39-2.25.44-2.16.49-2.14.58-2.47.78-3.13 1.27" filter="url(#a)"/><path d="m43.76-67.66.03-.4-.3-1.15-.77-1.37-1.41-1.41-1.9-1.36-2.17-1.31L35-75.91l-2.16-1.2-2.01-1.12-1.85-1.05-1.73-.97-1.69-.88-1.72-.82-1.8-.76-1.91-.73-2.02-.67-2.12-.62-2.19-.54-2.21-.46-2.24-.36-2.28-.29-2.35-.14" filter="url(#a)"/><path d="m42.06-68.52-.98-1.84.31-1.51.38-1.33-.65-1.26-1.62-1.2-2.07-1.15-2.09-1.07-1.96-.99-1.81-.94-1.72-.89-1.74-.84-1.87-.81-2.11-.76-2.41-.7-2.67-.63-2.88-.55-2.97-.46-2.98-.36-2.95-.27-2.93-.18-2.94-.1-3-.03-3.12.04-3.27.11-3.48.2-3.74.29-3.97.39-4.13.48-4.17.55-4.39.56-5.52.59" filter="url(#a)"/><path d="m41.44-69.44-.59-1.29-1.36-1.44-1.39-1.38-1.57-1.29-1.85-1.24-2.02-1.18-2.05-1.12-1.99-1.04-1.93-.94-1.86-.87-1.85-.81-1.85-.75-1.87-.71-1.92-.65-1.98-.59-2.05-.51-2.14-.43-2.25-.34-2.39-.26-2.54-.17-2.7-.1-2.88-.03-3.13.02-3.28.12" filter="url(#a)"/><path d="m40.73-70.59-1.52-1.47-1.53-1.24-1.63-1.23-1.68-1.2-1.68-1.14-1.66-1.07-1.63-.99-1.63-.93-1.66-.88-1.75-.84-1.89-.81-2.04-.75-2.19-.7-2.31-.62-2.38-.55-2.41-.44-2.41-.36-2.41-.26-2.42-.17-2.44-.1-2.44-.02-2.47.06-2.51.12-2.56.21-2.63.3-2.7.39-2.71.48-2.71.55-2.75.6-2.87.65-3.03.72-3.04.71" filter="url(#a)"/><path d="m40.73-70.59-.9-1.45-1.26-1.23-1.53-1.21-1.69-1.2-1.76-1.14-1.77-1.06-1.77-.98-1.78-.93-1.83-.87-1.9-.84-1.99-.81-2.07-.78-2.16-.72-2.22-.67-2.26-.58-2.28-.48-2.28-.38-2.32-.28-2.4-.18-2.51-.12-2.64-.05h-2.79l-3-.01" filter="url(#a)"/><path d="m40.59-70.56-2.03-1.68-1.26-1.44-1.08-1.28-1.25-1.24-1.48-1.19-1.63-1.12-1.72-1.03-1.73-.94-1.72-.86-1.71-.8-1.75-.74-1.85-.69-2.02-.62-2.24-.55-2.48-.47-2.68-.39-2.86-.31-3-.22-3.12-.14-3.2-.05-3.28.02-3.37.1-3.48.18-3.64.26-3.85.33-4.06.4-4.2.47-4.21.55-4.12.63-4.04.75-4.16.88-4.58 1.01-5.44 1.18-5.88 1.43" filter="url(#a)"/><path d="m38.03-72.5 8.17-.86-3.46-1.2-3.83-1.21-1.98-1.15-.7-1.07-.45-.98-.81-.92-1.37-.87-1.88-.84-2.29-.8-2.62-.76-2.86-.7-3.02-.63-3.12-.55-3.15-.45-3.17-.35-3.19-.26-3.29-.17-3.44-.1-3.63-.03-3.83.05-4.02.11-4.21.2-4.4.29-4.51.39-4.52.48-4.49.55-4.91.56-7.06.59" filter="url(#a)"/><path d="m38.03-72.5 15.35-.87-1.31-1.19-6.06-1.22-5.73-1.15-4.15-1.06-2.83-.98-2.12-.92-1.91-.88-1.92-.84-2.01-.8-2.1-.76-2.18-.69-2.31-.63-2.44-.54-2.59-.45-2.75-.35-2.91-.26-3.1-.17-3.31-.1-3.53-.02-3.74.05-3.95.12-4.13.21-4.29.29-4.41.39-4.45.48-4.46.55-4.6.6-5.1.65-5.83.8" filter="url(#a)"/><path d="m35.47-74.63.16-.47-.22-1.14-.21-1.22-.78-1.13-1.49-1.02-1.89-.92-1.93-.84-1.86-.78-1.88-.74-2.02-.69-2.2-.64-2.33-.57-2.41-.49-2.49-.41-2.66-.33-2.99-.24-3.44-.16-3.95-.09-4.4-.01-4.67.06-4.55.15-4.09.24-4.84.35" filter="url(#a)"/><path d="m34.85-75.01-1.62-.94-2.77-1.13-3.29-1.04-3.32-.95-3.08-.89-2.69-.85-2.21-.83-1.76-.8-1.45-.76-1.32-.71-1.31-.63-1.38-.55-1.45-.46-1.49-.35-1.5-.26-1.46-.17-1.34-.1-1.14-.03-.9.03-.61.09-.36.16-.21.25-.14.36-.36.5" filter="url(#a)"/><path d="m34.85-75.01-.7-.96-1.23-1.14-1.44-1.05-1.47-.96-1.61-.9-1.87-.86-2.14-.83-2.33-.8-2.41-.75-2.42-.68-2.38-.61-2.34-.52-2.31-.42-2.3-.33-2.32-.23-2.35-.15-2.37-.07h-2.41l-2.45.09-2.5.16-2.56.25-2.65.33-2.73.42-2.83.49-2.88.57-2.94.65-2.95.71-2.93.78-2.88.84-2.79.89-2.7.93-2.69.97-2.85 1.05-3.27 1.17-3.83 1.35-4.43 1.55-4.99 2.01" filter="url(#a)"/><path d="m34.85-75.01-1.06-.94-1.3-1.13-.93-1.04-.8-.95-1.1-.89-1.57-.85-1.98-.83-2.19-.8-2.28-.76-2.33-.71-2.35-.63-2.39-.55-2.4-.46-2.43-.35-2.53-.26-2.67-.17-2.84-.1-2.96-.03-3.01.03-3.06.09-3.24.16-3.75.25-4.44.36-3.93.5" filter="url(#a)"/><path d="m36.04-74.39-2.42-1.74-1.75-1.41-1.3-1.16-1.26-1.01-1.5-.91-1.79-.83-2.01-.78-2.14-.73-2.21-.68-2.25-.62-2.26-.55-2.28-.48-2.32-.39-2.4-.3-2.49-.23-2.6-.14-2.72-.06-2.8.02-2.82.09-2.79.17-2.75.26-2.75.33-2.76.39-2.71.43-2.56.45-2.54.46-3.43.52" filter="url(#a)"/><path d="m24.05-81.56-1.2-.3-1.54-.6-1.73-.7-1.8-.68-1.88-.63-1.97-.53-2.1-.44-2.22-.35-2.36-.27-2.49-.17-2.6-.1-2.67-.02-2.7.06-2.69.14-2.65.22-2.61.29-2.62.37-2.65.44-2.72.51-2.82.6-2.91.69-2.96.78-2.98.86-2.96.94-2.98.98-3.05 1.02-3.22 1.05-3.43 1.11-3.56 1.2-3.49 1.32-3.24 1.43-3.23 1.49-3.82 1.37" filter="url(#a)"/><path d="m22.39-82.08-2.23-.69-2.09-.75-2.13-.72-2.16-.62-2.13-.5-2.1-.39-2.12-.28-2.18-.19-2.23-.12-2.25-.04-2.26.02-2.26.1-2.28.17-2.32.26-2.4.35-2.49.42-2.57.51-2.65.58-2.71.65-2.74.71-2.74.79-2.68.84-2.59.89-2.47.91-2.41.94-2.48 1.01-2.7 1.15-2.86 1.3-2.4 1.09" filter="url(#a)"/><path d="m21.87-82.28-2.36-.9-1.74-.74-1.84-.65-2.01-.53-2.14-.43-2.21-.34-2.27-.25-2.36-.18-2.47-.1-2.57-.02-2.67.06-2.74.14-2.77.21-2.79.28-2.8.35-2.83.43-2.91.49-3.06.57-3.28.66-3.53.76-3.75.88-3.85.97-3.83 1.02-3.61 1-3.22.91-3.93 1.03" filter="url(#a)"/><path d="m21.87-82.28-2.05-.9-1.49-.74-1.31-.64-1.2-.53-1.42-.43-1.93-.35-2.48-.26-2.94-.18-3.27-.11-3.49-.03-3.61.05-3.69.12-3.74.19-3.83.28-3.97.34-4.19.4-4.5.45-4.85.51-5.26.6-5.65.74-5.93.86-5.49.7" filter="url(#a)"/><path d="m21.87-82.28 1.24-.9-2.14-.74-2.54-.64-2.36-.53-2.31-.43-2.42-.35-2.59-.26-2.77-.18-2.9-.11-3-.03-3.08.05-3.14.12-3.23.19-3.35.28-3.52.34-3.68.4-3.73.45-3.71.51-3.78.6-4.12.74-4.29.86-2.78.7" filter="url(#a)"/><path d="m18.43-83.44-.69-.57-2.13-.64-2.12-.52-1.97-.42-1.95-.32-2.11-.24-2.32-.16-2.5-.08H0l-2.7.08-2.75.16-2.78.23-2.84.32-2.91.38-2.96.46-3 .54-3.04.63-3.11.71-3.24.79-3.45.87-3.68.94-3.91 1-4.04 1.04-4.06 1.1-3.95 1.17-3.77 1.26-3.56 1.35-3.39 1.46-3.34 1.56-3.43 1.65-3.69 1.7-4.07 1.72-4.37 1.73-4.48 1.79-4.56 2.07" filter="url(#a)"/><path d="m17.92-83.47-.46-.9-2.64-.64-2.69-.48-2.41-.36-2.29-.26-2.34-.17-2.43-.1-2.52-.03-2.6.04-2.68.11-2.77.18-2.86.28-2.94.35-3.01.44-3.07.52-3.17.6-3.3.66-3.5.73-3.72.79-3.91.85-3.97.89-3.86.94-3.62 1-3.38 1.09-3.38 1.19-3.72 1.34-4.37 1.46-5.18 1.56-5.96 1.63-6.58 1.89" filter="url(#a)"/><path d="m15.23-84.6-2.04-.52-2.13-.45-2.01-.34-2-.24-2.11-.16-2.2-.1-2.26-.03-2.27.03-2.26.1-2.25.18-2.27.26-2.28.35-2.29.44-2.33.51-2.38.58-2.46.65-2.58.71-2.68.79-2.73.84-2.71.89-2.56.9-2.32.91-2.1.97-2.29 1.2-3.79 1.74" filter="url(#a)"/><path d="m11.54-85.64-2.68-.41-2.34-.26-2.45-.14-2.66-.06-2.8.02-2.82.1-2.82.18-2.82.26-2.86.33-2.9.41-2.97.48-3.06.56-3.16.64-3.25.73-3.31.82-3.36.89-3.45.95-3.63 1.02-3.91 1.07-4.3 1.13-4.68 1.2-4.97 1.29-5.12 1.38-5.12 1.47-5.03 1.56-4.95 1.63-4.94 1.68-4.95 1.73-4.95 1.74-4.8 1.76-4.52 1.79-4.22 1.84-4.19 1.94-4.58 2.14-5 2.33-5.32 2.21" filter="url(#a)"/><path d="m8.49-86.21-1.72-.1-2.16-.1-2.26-.07-2.22-.01-2.17.05-2.18.13-2.24.21-2.38.3-2.51.38-2.62.47-2.64.55-2.63.62-2.58.69-2.55.75-2.57.82-2.6.87-2.64.93-2.69.99-2.72 1.06-2.77 1.15-2.84 1.24-2.9 1.34-2.96 1.42-2.97 1.5-2.93 1.53-2.88 1.58-2.87 1.6-2.91 1.65-3 1.69-3.14 1.73-3.37 1.78-3.6 1.9-2.87 2.15" filter="url(#a)"/><path d="m8.49-86.21-1.66-.1-2.12-.1-2.25-.07L.2-86.5l-2.23.04-2.23.12-2.27.19-2.36.28-2.43.37-2.48.45-2.5.53-2.51.59-2.55.66-2.59.73-2.61.79-2.57.85-2.46.89-2.32.92-2.26.96-2.32 1.04-2.5 1.16-2.76 1.35-3.1 1.53-4.34 1.99" filter="url(#a)"/><path d="m4.1-86.52-2.43-.08-2.49.02-2.47.1-2.31.19-2.2.26-2.14.35-2.1.4-2.07.48-2.04.55-2.04.63-2.09.73-2.15.82-2.2.89-2.24.96-2.25 1-2.24 1.05-2.24 1.09-2.23 1.17-2.22 1.25-2.18 1.36-2.13 1.46-2.06 1.56-2.03 1.65-2.02 1.69-2.03 1.71-2.03 1.71-2.06 1.78-2.46 2.06" filter="url(#a)"/><path d="m1.74-86.65-1.99.04-2.35.08-2.34.14-2.33.22-2.49.31-2.76.42-3.03.49-3.22.58-3.32.64-3.42.7-3.49.78-3.56.83-3.58.89-3.55.95-3.54 1.01-3.63 1.09-3.87 1.18-4.26 1.27-4.67 1.35-4.95 1.44-4.93 1.49-4.59 1.55-3.98 1.59-3.29 1.64-2.7 1.68-2.38 1.73-2.45 1.8-2.99 1.88-3.96 1.96-5.21 2.05-6.38 2.14-6.94 2.23-6.56 2.32-5.46 2.36-5.09 2.4-7.72 2.66" filter="url(#a)"/><path d="m1.74-86.65-1.94.04-2.2.08-2.13.13-2.1.22-2.17.3-2.28.41-2.42.48-2.54.57-2.66.63-2.76.69-2.78.76-2.73.82-2.56.87-2.36.93-2.2.98-2.14 1.05-2.23 1.15-2.42 1.24-2.64 1.34-2.83 1.43-2.93 1.49-2.92 1.54-2.82 1.56-2.64 1.6-2.42 1.63-2.19 1.69-2 1.7-2.08 1.7-3.38 1.92" filter="url(#a)"/></g><g fill="none" stroke="#000"><circle cx="8.546" cy="29.616" r="2.746" filter="url(#a)"/><circle cx="8.134" cy="31.168" r="1.446" filter="url(#a)"/><circle cx="8.342" cy="30.612" r="2.224" filter="url(#a)"/><circle cx="9.926" cy="29.708" r="2.682" filter="url(#a)"/><circle cx="8.526" cy="33.448" r="1.284" filter="url(#a)"/><circle cx="9.83" cy="30.328" r="1.92" filter="url(#a)"/><circle cx="10.478" cy="32.696" r="1.266" filter="url(#a)"/><circle cx="8.494" cy="33.076" r="1.986" filter="url(#a)"/><circle cx="8.066" cy="31.864" r="1.7" filter="url(#a)"/><circle cx="8.034" cy="32.8" r="2.038" filter="url(#a)"/><circle cx="-12.642" cy="29.33" r="2.032" filter="url(#a)"/><circle cx="-9.554" cy="28.678" r="2.152" filter="url(#a)"/><circle cx="-10.994" cy="27.822" r="2.92" filter="url(#a)"/><circle cx="-10.478" cy="31.638" r="2.086" filter="url(#a)"/><circle cx="-9.478" cy="31.262" r="1.37" filter="url(#a)"/><circle cx="-13.354" cy="28.322" r="2.334" filter="url(#a)"/><circle cx="-9.65" cy="30.698" r="1.654" filter="url(#a)"/><circle cx="-10.294" cy="30.062" r="2.394" filter="url(#a)"/><circle cx="-12.646" cy="30.614" r="1.44" filter="url(#a)"/><circle cx="-12.722" cy="28.91" r="1.05" filter="url(#a)"/></g><path fill="#D77F8C" stroke="#000" stroke-linejoin="round" stroke-width="3" d="m-61.16 30.04 1.34 1.89 1.36 1.86 1.36 1.82 1.38 1.8 1.4 1.77 1.4 1.74 1.42 1.7 1.42 1.67 1.44 1.65 1.44 1.61 1.46 1.58 1.46 1.54 1.48 1.52 1.48 1.48 1.48 1.45 1.5 1.42 1.5 1.38 1.51 1.35 1.51 1.31 1.52 1.28 1.52 1.25 1.53 1.21 1.53 1.18 1.53 1.14 1.54 1.11 1.54 1.07 1.54 1.03 1.54 1 1.54.97 1.55.92 1.54.89 1.54.86 1.54.81 1.54.78 1.54.74 1.54.7 1.53.67 1.53.62 1.53.59 1.52.55 1.51.51 1.52.47 1.5.43 1.5.39 1.49.35 1.49.31 1.48.27 1.47.23 1.46.19 1.46.14 1.44.11 1.43.06 1.43.02 1.41-.02 1.4-.06 1.39-.11 1.38-.15 1.37-.19 1.35-.24 1.34-.27 1.32-.33 1.31-.37 1.3-.41 1.27-.45 1.27-.51 1.25-.54 1.23-.59 1.21-.64 1.19-.69 1.18-.72 1.16-.78 1.14-.82 1.12-.87 1.1-.92 1.07-.96 1.06-1.01 1.04-1.06 1.01-1.11.99-1.15.97-1.21.95-1.25.92-1.3.89-1.35.87-1.4.85-1.45.82-1.5.8-1.55.77-1.6.74-1.65.71-1.7.68-1.75.66-1.8.63-1.86.6-1.91.56-1.96.54-2.01.51-2.06.47-2.12.45-2.17-1.25 1.04-1.25 1.01-1.25.99-1.25.96-1.25.94-1.25.91-1.25.88-1.25.86-1.25.83-1.25.81-1.25.79-1.25.76-1.25.73-1.25.71-1.25.69-1.25.66-1.25.64-1.25.61-1.25.59-1.25.56-1.25.54-1.25.52-1.25.5-1.25.47-1.25.44-1.25.43-1.25.4-1.25.38-1.25.35-1.25.34-1.25.31-1.25.28-1.25.27-1.25.24-1.25.22-1.25.2-1.25.18-1.25.16-1.25.13-1.25.11-1.25.09-1.25.07-1.25.05-1.25.03-1.25.01-1.25-.02-1.25-.03-1.25-.06-1.25-.08-1.25-.09-1.25-.12-1.25-.14-1.25-.15-1.25-.18-1.25-.2-1.25-.21-1.25-.24-1.25-.25-1.25-.28-1.25-.29-1.25-.31-1.25-.33-1.25-.35-1.25-.37-1.25-.39-1.25-.41-1.25-.42-1.25-.44-1.25-.46-1.25-.48-1.25-.5-1.25-.51-1.25-.53-1.25-.55-1.25-.57-1.25-.59-1.25-.6-1.25-.61-1.25-.64-1.25-.65-1.25-.67-1.25-.69-1.25-.7-1.25-.72-1.25-.73-1.25-.75-1.25-.77-1.25-.78-1.25-.8-1.25-.81-1.25-.83-1.25-.85-1.25-.86-1.25-.87-1.25-.9-1.25-.9-1.25-.92-1.25-.94-1.25-.95" filter="url(#a)"/></svg>