<svg viewBox="-100 -100 200 200" xmlns="http://www.w3.org/2000/svg" width="500" height="500" id="face-svg">
    <defs>
      <clipPath id="leftEyeClipPath">
        <polyline points="29.07,8.33 28.71,7.89 28.32,7.43 27.9,6.96 27.47,6.48 27.01,5.99 26.53,5.49 26.03,4.98 25.51,4.47 24.97,3.96 24.41,3.45 23.84,2.93 23.25,2.42 22.64,1.92 22.02,1.41 21.39,0.91 20.69,0.26 19.97,-0.39 19.22,-1.02 18.47,-1.64 17.69,-2.24 16.9,-2.83 16.09,-3.39 15.27,-3.93 14.44,-4.44 13.6,-4.93 12.75,-5.39 11.89,-5.82 11.02,-6.21 10.15,-6.58 9.28,-6.91 8.4,-7.21 7.52,-7.48 6.64,-7.71 5.76,-7.9 4.88,-8.07 4.01,-8.19 3.14,-8.28 2.28,-8.34 1.42,-8.36 0.57,-8.35 -0.26,-8.3 -1.09,-8.23 -1.9,-8.12 -2.7,-7.98 -3.49,-7.81 -4.26,-7.61 -5.02,-7.38 -5.76,-7.13 -6.48,-6.86 -7.18,-6.56 -7.86,-6.24 -8.53,-5.9 -9.17,-5.54 -9.79,-5.16 -10.39,-4.77 -10.97,-4.37 -11.53,-3.96 -12.06,-3.53 -12.58,-3.1 -13.06,-2.67 -13.53,-2.22 -13.97,-1.78 -14.39,-1.34 -14.79,-0.89 -15.17,-0.45 -15.52,-0.01 -15.85,0.42 -16.16,0.86 -16.45,1.3 -16.72,1.74 -16.97,2.17 -17.2,2.6 -17.4,3.02 -17.59,3.44 -17.75,3.86 -17.89,4.26 -18.01,4.66 -18.11,5.06 -18.19,5.44 -18.88,7.64 -18.64,7.86 -18.38,8.07 -18.11,8.26 -17.83,8.44 -17.53,8.6 -17.22,8.76 -16.9,8.9 -16.56,9.02 -16.21,9.14 -15.85,9.24 -15.48,9.33 -15.09,9.4 -14.69,9.47 -14.28,9.52 -13.86,9.56 -13.43,9.59 -12.98,9.61 -12.52,9.62 -12.05,9.62 -11.56,9.61 -11.06,9.59 -10.55,9.56 -10.04,9.52 -9.51,9.48 -8.97,9.42 -8.42,9.36 -7.86,9.29 -7.3,9.22 -6.73,9.15 -6.14,9.07 -5.55,8.99 -4.96,8.9 -4.35,8.82 -3.74,8.73 -3.12,8.65 -2.49,8.57 -1.86,8.49 -1.22,8.42 -0.57,8.35 0.08,8.29 0.74,8.23 1.41,8.18 2.09,8.14 2.77,8.11 3.46,8.09 4.16,8.08 4.86,8.08 5.58,8.09 6.3,8.12 7.03,8.15 7.77,8.21 8.51,8.27 9.27,8.36 10.03,8.45 10.8,8.56 11.58,8.69 12.37,8.83 13.16,8.98 13.96,9.15 14.77,9.33 15.59,9.53 16.4,9.74 17.23,9.96 18.05,10.19 18.71,10.33 19.36,10.47 20,10.61 20.65,10.76 21.28,10.91 21.91,11.06 22.53,11.22 23.14,11.37 23.74,11.52 24.33,11.67 24.9,11.82 25.46,11.96 26,12.1 26.52,12.23 27.02,12.36" />
      </clipPath>
      <clipPath id="rightEyeClipPath">
        <polyline points="-30.34,5.61 -29.92,5.34 -29.48,5.05 -29.01,4.75 -28.51,4.45 -27.98,4.14 -27.42,3.82 -26.85,3.5 -26.25,3.17 -25.63,2.84 -24.99,2.51 -24.32,2.17 -23.65,1.84 -22.95,1.51 -22.24,1.18 -21.51,0.85 -20.69,0.43 -19.85,0.02 -18.99,-0.4 -18.12,-0.8 -17.22,-1.2 -16.31,-1.58 -15.39,-1.96 -14.46,-2.32 -13.51,-2.67 -12.56,-3 -11.61,-3.32 -10.65,-3.62 -9.69,-3.9 -8.72,-4.17 -7.76,-4.41 -6.81,-4.64 -5.85,-4.84 -4.91,-5.02 -3.97,-5.18 -3.05,-5.31 -2.13,-5.43 -1.23,-5.52 -0.34,-5.59 0.53,-5.64 1.38,-5.66 2.21,-5.66 3.02,-5.64 3.82,-5.6 4.58,-5.54 5.33,-5.46 6.05,-5.36 6.74,-5.25 7.41,-5.11 8.05,-4.96 8.66,-4.79 9.25,-4.6 9.8,-4.4 10.33,-4.19 10.82,-3.97 11.29,-3.74 11.72,-3.49 12.13,-3.24 12.51,-2.98 12.85,-2.72 13.17,-2.45 13.46,-2.18 13.71,-1.91 13.94,-1.63 14.15,-1.36 14.32,-1.09 14.47,-0.82 14.59,-0.54 14.69,-0.27 14.76,0 14.8,0.27 14.81,0.54 14.8,0.8 14.77,1.06 14.7,1.32 14.61,1.57 14.5,1.82 14.36,2.07 14.19,2.31 14,2.54 17.2,5.68 16.84,5.78 16.46,5.87 16.08,5.95 15.68,6.02 15.28,6.09 14.87,6.15 14.46,6.2 14.03,6.25 13.61,6.29 13.17,6.33 12.73,6.35 12.28,6.38 11.83,6.39 11.38,6.41 10.92,6.41 10.45,6.41 9.97,6.41 9.49,6.4 9,6.38 8.5,6.36 8,6.34 7.5,6.31 7,6.28 6.49,6.25 5.98,6.21 5.47,6.17 4.95,6.13 4.44,6.09 3.92,6.04 3.4,6 2.88,5.95 2.36,5.91 1.83,5.87 1.31,5.83 0.78,5.79 0.25,5.75 -0.29,5.72 -0.83,5.69 -1.38,5.66 -1.93,5.64 -2.49,5.62 -3.05,5.61 -3.63,5.6 -4.21,5.6 -4.8,5.61 -5.41,5.62 -6.02,5.63 -6.65,5.66 -7.29,5.69 -7.95,5.73 -8.62,5.78 -9.31,5.83 -10.01,5.89 -10.73,5.96 -11.47,6.04 -12.23,6.12 -13,6.22 -13.79,6.31 -14.61,6.42 -15.44,6.53 -16.28,6.65 -17.15,6.77 -18.03,6.9 -18.92,7.03 -19.58,7.11 -20.25,7.2 -20.91,7.28 -21.58,7.37 -22.24,7.45 -22.9,7.54 -23.55,7.62 -24.2,7.71 -24.84,7.79 -25.47,7.87 -26.08,7.95 -26.69,8.02 -27.27,8.09 -27.84,8.16 -28.39,8.22" />
      </clipPath>
      <filter id="fuzzy">
        <feTurbulence id="turbulence" baseFrequency="0.05" numOctaves="3" type="noise" result="noise" />
        <feDisplacementMap in="SourceGraphic" in2="noise" scale="2" />
      </filter>
      <linearGradient id="rainbowGradient" x1="0%" y1="0%" x2="100%" y2="0%">
        <stop offset="0%" style="stop-color: rgb(82, 134, 58); stop-opacity: 1" />
        <stop offset="50%" style="stop-color: rgb(64, 83, 193); stop-opacity: 1" />
        <stop offset="100%" style="stop-color: rgb(166, 243, 36); stop-opacity: 1" />
      </linearGradient>
    </defs>
    <rect x="-100" y="-100" width="100%" height="100%" fill="rgb(242, 226, 166)" />
    <polyline id="faceContour" points="68.08,0.82 68.21,0.55 68.07,2.05 68.08,4.38 67.94,6.46 67.71,6.66 67.78,7.46 67.71,8.67 67.27,12.89 66.97,13.79 67.16,15.36 67.12,15.58 66.8,15.95 66.53,18.14 66.29,18.62 66.27,19.07 65.9,22 65.71,22.8 65.67,22.96 65.05,25.09 64.34,28.28 64.16,29.41 63.63,30.26 63.99,29.52 63.3,31.89 63.09,32.25 62.21,35.08 61.69,36.94 61.29,37.71 61.23,37.61 61.24,38.4 59.65,41.83 59.81,41.4 59.29,42.25 58.35,44.87 57.71,45.53 57.23,47.09 56.43,48.57 56.51,48.64 54.8,51.61 54.78,51.73 55.13,51.01 53.15,54.51 53.2,54.51 53.16,54.27 51.21,57 51.98,56.59 50.32,58.81 49.27,59.9 50.09,59.12 47.46,62.41 47.42,62.21 46.55,63.71 45.92,64.22 43.61,66.93 44.06,66.06 43.84,66.71 42.2,68.1 41.31,69.01 41.73,68.96 41.32,69.48 40.61,69.85 37.82,72.25 35.96,74.12 35.77,73.94 34.89,74.56 35.05,74.45 32.97,75.9 31.51,76.96 31.93,76.63 30.66,77.7 30.31,78.1 28.6,78.84 26.43,80.4 25.76,80.43 26.7,80.09 24.37,81.37 24.58,81.22 23.58,81.6 22.85,82.11 20.46,82.9 20.65,83.1 18.81,83.75 16.96,84.41 16.86,84.4 15.67,84.74 14.57,84.79 15.23,84.77 13.77,85.24 11.38,85.8 10.25,86.11 11.15,86.06 7.8,86.31 6.26,86.53 6.44,86.52 5.8,86.55 4.44,86.73 1.63,87.11 1.12,87.07 1.29,87.07 -1.18,86.86 -1.3,86.88 -2.93,87 -3.25,87.05 -4.4,86.73 -4.33,86.96 -6.46,86.51 -5.94,86.56 -8.95,86.41 -8.66,86.45 -10.24,86.1 -13.01,85.29 -10.8,85.97 -15.28,84.75 -16.47,84.66 -15.37,84.96 -17.05,84.28 -19.1,83.6 -19.01,83.56 -20.39,83.07 -20.18,83.19 -21.05,82.85 -23.7,81.6 -23.69,81.35 -25.56,80.71 -26.73,80 -26.57,80.15 -27.53,79.49 -30.3,78.07 -28.7,78.76 -30.59,77.7 -31.15,77.57 -33.14,76.2 -33.5,75.75 -35.46,74.36 -35.22,74.39 -35.78,74.03 -38.27,72.12 -38.28,71.94 -39.36,70.73 -40.35,70.26 -39.9,70.63 -41.46,69.22 -42.23,68.25 -43.37,67.35 -43.17,67.24 -45.49,64.74 -45.86,64.47 -45.23,65.06 -46.24,63.87 -49.49,59.59 -48.32,61.39 -50.89,57.9 -50.32,58.24 -50.41,58.48 -52.25,55.93 -53.15,54.56 -53.12,54.29 -53.97,53.03 -53.84,53.19 -55.24,51.01 -55.98,49.22 -55.96,49.79 -56.11,49.2 -56.79,47.63 -57.7,46.04 -57.81,45.74 -59.89,41.79 -58.88,43.56 -59.68,41.71 -60.6,39.43 -60.87,38.57 -61.13,37.81 -61.67,36.46 -61.58,36.36 -63.12,32.72 -63.05,32.5 -63.33,31.68 -64.58,27.7 -64.45,27.97 -65.1,26.21 -65.1,24.85 -65.16,24.32 -65.94,22.08 -65.78,21.75 -66.47,19.01 -66.45,17.84 -66.51,18.05 -66.85,16.46 -67.06,15.31 -67.17,13.11 -67.51,10.7 -67.48,10.95 -67.97,7.3 -67.41,9.77 -67.78,6.87 -67.89,6.6 -67.74,5.38 -68.1,2.1 -68.02,1.24 -67.97,-1.66 -67.89,0.07 -68.11,-2.42 -68.07,-3.56 -67.94,-7.9 -68.04,-6.06 -67.61,-8.07 -67.44,-9.9 -67.75,-8.97 -67.36,-11.44 -67.21,-12.65 -67.15,-15.07 -67.23,-14.62 -66.36,-18.59 -66.59,-18.99 -66.07,-20.97 -65.43,-23.86 -65.69,-23.53 -65.1,-25.29 -64.57,-27.61 -65.1,-25.97 -64.06,-28.91 -64.03,-29.41 -63.93,-29.44 -62.85,-32.94 -63.32,-32.43 -62.91,-33.38 -61.76,-36.12 -61.6,-36.54 -61.12,-38.02 -60.81,-38.77 -60.6,-39.56 -59.64,-41.64 -59.2,-43.54 -58.86,-44.01 -58.68,-44.44 -57.29,-47.31 -57.16,-47.36 -55.31,-50.59 -55.25,-50.8 -54.42,-52.07 -55.13,-50.88 -54.24,-52.83 -53.36,-54.07 -52.67,-55.67 -51.88,-56.37 -50.21,-58.91 -50.63,-58.29 -49.19,-60.49 -49.44,-60.12 -48.72,-61 -48.22,-61.91 -46.02,-64.37 -44.61,-65.59 -45.37,-65.2 -43.89,-66.61 -43.25,-67.39 -43.51,-67.13 -42.36,-68.12 -40.34,-70.15 -40.54,-69.66 -38.93,-71.55 -37.2,-73.24 -37.77,-72.7 -36.26,-73.89 -35.72,-74.05 -34.98,-74.95 -33.69,-75.44 -32.79,-76.39 -32.67,-76.47 -30.77,-77.68 -28.81,-78.75 -27.54,-79.92 -27.13,-80.02 -28.14,-79.37 -25.46,-80.67 -25.05,-81.14 -24.01,-81.63 -22.77,-82.21 -20.7,-83.13 -22.36,-82.56 -21.26,-82.9 -19.36,-83.83 -17.4,-84.15 -17.29,-84.52 -17.67,-84.22 -12.8,-85.82 -13.92,-85.37 -13.1,-85.58 -12.26,-85.96 -9.57,-86.18 -10.81,-86.02 -9.4,-86.44 -7.62,-86.86 -5.28,-87.14 -3.71,-87.29 -4.58,-86.97 -2.75,-87.34 -1.03,-87.23 -1.16,-87.22 0.96,-87.36 -0.14,-87.31 3.13,-87.09 3.5,-87.14 5.42,-86.85 5.75,-86.8 6.15,-86.85 6.48,-86.9 7.9,-86.7 9.76,-86.27 10.91,-86.28 12.42,-85.71 13.93,-85.34 14.08,-85.4 15.38,-84.78 17.36,-84.48 15.58,-84.71 18.59,-83.88 18.22,-84.04 19.88,-83.5 21.39,-82.6 21.94,-82.56 22.56,-82.37 25.31,-81.14 25.96,-80.55 26.97,-80.2 27.29,-79.73 26.65,-80.4 27.96,-79.65 29.32,-78.71 31.33,-77.35 31.34,-77.27 32.05,-76.98 32.79,-76.33 33.82,-75.69 35.87,-74.2 35.51,-74.33 37.2,-73.02 37.6,-72.88 39.15,-71.25 40.57,-69.97 41.08,-69.6 40.94,-69.87 41.56,-69.07 42.37,-68.49 45.34,-64.98 45.04,-65.55 46.26,-64.12 46.78,-63.41 47.3,-62.32 47.97,-61.75 48.31,-61.43 48.93,-60.84 50.59,-57.92 51.73,-56.83 52.57,-55.18 51.5,-56.86 53.81,-53.18 53.56,-53.63 55.37,-50.85 54.25,-52.75 55.35,-50.89 56.17,-48.65 57.59,-46.5 57.42,-46.59 58.15,-45.01 58.93,-43.94 58.94,-43.86 59.14,-42.71 60.59,-39.87 60.39,-40.89 61.67,-36.76 61.71,-37.33 61.61,-37.13 62.35,-34.93 62.36,-34.74 63.22,-32.73 63.94,-30.43 64.59,-27.9 64.56,-27.31 64.88,-26.15 64.88,-25.81 65.37,-24.54 65.76,-21.65 65.79,-22.37 66.41,-19.13 66.61,-17.86 66.6,-17.6 66.7,-16.72 67.17,-15.1 67.38,-11.97 67.45,-11.77 67.67,-9.83 67.7,-8.58 67.8,-8.32 67.68,-6.66 67.93,-4.95 67.9,-2.52 68.15,-2.43 68.06,-1.99 68.08,0.82 68.21,0.55" fill="rgb(32, 72, 223)" stroke="black" stroke-width="1.6666666666666665" stroke-linejoin="round" filter="url(#fuzzy)" />
    <g transform="translate(42.38 -25.28)">
      <polyline id="rightCountour" points="-30.34,5.61 -29.92,5.34 -29.48,5.05 -29.01,4.75 -28.51,4.45 -27.98,4.14 -27.42,3.82 -26.85,3.5 -26.25,3.17 -25.63,2.84 -24.99,2.51 -24.32,2.17 -23.65,1.84 -22.95,1.51 -22.24,1.18 -21.51,0.85 -20.69,0.43 -19.85,0.02 -18.99,-0.4 -18.12,-0.8 -17.22,-1.2 -16.31,-1.58 -15.39,-1.96 -14.46,-2.32 -13.51,-2.67 -12.56,-3 -11.61,-3.32 -10.65,-3.62 -9.69,-3.9 -8.72,-4.17 -7.76,-4.41 -6.81,-4.64 -5.85,-4.84 -4.91,-5.02 -3.97,-5.18 -3.05,-5.31 -2.13,-5.43 -1.23,-5.52 -0.34,-5.59 0.53,-5.64 1.38,-5.66 2.21,-5.66 3.02,-5.64 3.82,-5.6 4.58,-5.54 5.33,-5.46 6.05,-5.36 6.74,-5.25 7.41,-5.11 8.05,-4.96 8.66,-4.79 9.25,-4.6 9.8,-4.4 10.33,-4.19 10.82,-3.97 11.29,-3.74 11.72,-3.49 12.13,-3.24 12.51,-2.98 12.85,-2.72 13.17,-2.45 13.46,-2.18 13.71,-1.91 13.94,-1.63 14.15,-1.36 14.32,-1.09 14.47,-0.82 14.59,-0.54 14.69,-0.27 14.76,0 14.8,0.27 14.81,0.54 14.8,0.8 14.77,1.06 14.7,1.32 14.61,1.57 14.5,1.82 14.36,2.07 14.19,2.31 14,2.54 17.2,5.68 16.84,5.78 16.46,5.87 16.08,5.95 15.68,6.02 15.28,6.09 14.87,6.15 14.46,6.2 14.03,6.25 13.61,6.29 13.17,6.33 12.73,6.35 12.28,6.38 11.83,6.39 11.38,6.41 10.92,6.41 10.45,6.41 9.97,6.41 9.49,6.4 9,6.38 8.5,6.36 8,6.34 7.5,6.31 7,6.28 6.49,6.25 5.98,6.21 5.47,6.17 4.95,6.13 4.44,6.09 3.92,6.04 3.4,6 2.88,5.95 2.36,5.91 1.83,5.87 1.31,5.83 0.78,5.79 0.25,5.75 -0.29,5.72 -0.83,5.69 -1.38,5.66 -1.93,5.64 -2.49,5.62 -3.05,5.61 -3.63,5.6 -4.21,5.6 -4.8,5.61 -5.41,5.62 -6.02,5.63 -6.65,5.66 -7.29,5.69 -7.95,5.73 -8.62,5.78 -9.31,5.83 -10.01,5.89 -10.73,5.96 -11.47,6.04 -12.23,6.12 -13,6.22 -13.79,6.31 -14.61,6.42 -15.44,6.53 -16.28,6.65 -17.15,6.77 -18.03,6.9 -18.92,7.03 -19.58,7.11 -20.25,7.2 -20.91,7.28 -21.58,7.37 -22.24,7.45 -22.9,7.54 -23.55,7.62 -24.2,7.71 -24.84,7.79 -25.47,7.87 -26.08,7.95 -26.69,8.02 -27.27,8.09 -27.84,8.16 -28.39,8.22" fill="white" stroke="white" stroke-width="0" stroke-linejoin="round" filter="url(#fuzzy)" />
    </g>
    <g transform="translate(-39.58 -25.44)">
      <polyline id="leftCountour" points="29.07,8.33 28.71,7.89 28.32,7.43 27.9,6.96 27.47,6.48 27.01,5.99 26.53,5.49 26.03,4.98 25.51,4.47 24.97,3.96 24.41,3.45 23.84,2.93 23.25,2.42 22.64,1.92 22.02,1.41 21.39,0.91 20.69,0.26 19.97,-0.39 19.22,-1.02 18.47,-1.64 17.69,-2.24 16.9,-2.83 16.09,-3.39 15.27,-3.93 14.44,-4.44 13.6,-4.93 12.75,-5.39 11.89,-5.82 11.02,-6.21 10.15,-6.58 9.28,-6.91 8.4,-7.21 7.52,-7.48 6.64,-7.71 5.76,-7.9 4.88,-8.07 4.01,-8.19 3.14,-8.28 2.28,-8.34 1.42,-8.36 0.57,-8.35 -0.26,-8.3 -1.09,-8.23 -1.9,-8.12 -2.7,-7.98 -3.49,-7.81 -4.26,-7.61 -5.02,-7.38 -5.76,-7.13 -6.48,-6.86 -7.18,-6.56 -7.86,-6.24 -8.53,-5.9 -9.17,-5.54 -9.79,-5.16 -10.39,-4.77 -10.97,-4.37 -11.53,-3.96 -12.06,-3.53 -12.58,-3.1 -13.06,-2.67 -13.53,-2.22 -13.97,-1.78 -14.39,-1.34 -14.79,-0.89 -15.17,-0.45 -15.52,-0.01 -15.85,0.42 -16.16,0.86 -16.45,1.3 -16.72,1.74 -16.97,2.17 -17.2,2.6 -17.4,3.02 -17.59,3.44 -17.75,3.86 -17.89,4.26 -18.01,4.66 -18.11,5.06 -18.19,5.44 -18.88,7.64 -18.64,7.86 -18.38,8.07 -18.11,8.26 -17.83,8.44 -17.53,8.6 -17.22,8.76 -16.9,8.9 -16.56,9.02 -16.21,9.14 -15.85,9.24 -15.48,9.33 -15.09,9.4 -14.69,9.47 -14.28,9.52 -13.86,9.56 -13.43,9.59 -12.98,9.61 -12.52,9.62 -12.05,9.62 -11.56,9.61 -11.06,9.59 -10.55,9.56 -10.04,9.52 -9.51,9.48 -8.97,9.42 -8.42,9.36 -7.86,9.29 -7.3,9.22 -6.73,9.15 -6.14,9.07 -5.55,8.99 -4.96,8.9 -4.35,8.82 -3.74,8.73 -3.12,8.65 -2.49,8.57 -1.86,8.49 -1.22,8.42 -0.57,8.35 0.08,8.29 0.74,8.23 1.41,8.18 2.09,8.14 2.77,8.11 3.46,8.09 4.16,8.08 4.86,8.08 5.58,8.09 6.3,8.12 7.03,8.15 7.77,8.21 8.51,8.27 9.27,8.36 10.03,8.45 10.8,8.56 11.58,8.69 12.37,8.83 13.16,8.98 13.96,9.15 14.77,9.33 15.59,9.53 16.4,9.74 17.23,9.96 18.05,10.19 18.71,10.33 19.36,10.47 20,10.61 20.65,10.76 21.28,10.91 21.91,11.06 22.53,11.22 23.14,11.37 23.74,11.52 24.33,11.67 24.9,11.82 25.46,11.96 26,12.1 26.52,12.23 27.02,12.36" fill="white" stroke="white" stroke-width="0" stroke-linejoin="round" filter="url(#fuzzy)" />
    </g>
    <g transform="translate(42.38 -25.28)">
      <polyline id="rightUpper" points="-32.49,7.53 -32.46,7.42 -32.38,7.3 -32.26,7.15 -32.1,6.98 -31.9,6.8 -31.66,6.59 -31.38,6.37 -31.07,6.13 -30.72,5.88 -30.34,5.61 -29.92,5.34 -29.48,5.05 -29.01,4.75 -28.51,4.45 -27.98,4.14 -27.42,3.82 -26.85,3.5 -26.25,3.17 -25.63,2.84 -24.99,2.51 -24.32,2.17 -23.65,1.84 -22.95,1.51 -22.24,1.18 -21.51,0.85 -20.69,0.43 -19.85,0.02 -18.99,-0.4 -18.12,-0.8 -17.22,-1.2 -16.31,-1.58 -15.39,-1.96 -14.46,-2.32 -13.51,-2.67 -12.56,-3 -11.61,-3.32 -10.65,-3.62 -9.69,-3.9 -8.72,-4.17 -7.76,-4.41 -6.81,-4.64 -5.85,-4.84 -4.91,-5.02 -3.97,-5.18 -3.05,-5.31 -2.13,-5.43 -1.23,-5.52 -0.34,-5.59 0.53,-5.64 1.38,-5.66 2.21,-5.66 3.02,-5.64 3.82,-5.6 4.58,-5.54 5.33,-5.46 6.05,-5.36 6.74,-5.25 7.41,-5.11 8.05,-4.96 8.66,-4.79 9.25,-4.6 9.8,-4.4 10.33,-4.19 10.82,-3.97 11.29,-3.74 11.72,-3.49 12.13,-3.24 12.51,-2.98 12.85,-2.72 13.17,-2.45 13.46,-2.18 13.71,-1.91 13.94,-1.63 14.15,-1.36 14.32,-1.09 14.47,-0.82 14.59,-0.54 14.69,-0.27 14.76,0 14.8,0.27 14.81,0.54 14.8,0.8 14.77,1.06 14.7,1.32 14.61,1.57 14.5,1.82 14.36,2.07 14.19,2.31 14,2.54 13.79,2.77 13.55,2.99 13.29,3.2 13,3.41 12.7,3.61 12.37,3.81 12.02,3.99 11.65,4.17 11.25,4.34 10.84,4.51" fill="none" stroke="black" stroke-width="1.6666666666666665" stroke-linejoin="round" filter="url(#fuzzy)" />
      <polyline id="rightLower" points="-32.02,8.36 -31.86,8.4 -31.64,8.42 -31.38,8.43 -31.06,8.43 -30.7,8.41 -30.31,8.39 -29.87,8.36 -29.41,8.32 -28.91,8.27 -28.39,8.22 -27.84,8.16 -27.27,8.09 -26.69,8.02 -26.08,7.95 -25.47,7.87 -24.84,7.79 -24.2,7.71 -23.55,7.62 -22.9,7.54 -22.24,7.45 -21.58,7.37 -20.91,7.28 -20.25,7.2 -19.58,7.11 -18.92,7.03 -18.03,6.9 -17.15,6.77 -16.28,6.65 -15.44,6.53 -14.61,6.42 -13.79,6.31 -13,6.22 -12.23,6.12 -11.47,6.04 -10.73,5.96 -10.01,5.89 -9.31,5.83 -8.62,5.78 -7.95,5.73 -7.29,5.69 -6.65,5.66 -6.02,5.63 -5.41,5.62 -4.8,5.61 -4.21,5.6 -3.63,5.6 -3.05,5.61 -2.49,5.62 -1.93,5.64 -1.38,5.66 -0.83,5.69 -0.29,5.72 0.25,5.75 0.78,5.79 1.31,5.83 1.83,5.87 2.36,5.91 2.88,5.95 3.4,6 3.92,6.04 4.44,6.09 4.95,6.13 5.47,6.17 5.98,6.21 6.49,6.25 7,6.28 7.5,6.31 8,6.34 8.5,6.36 9,6.38 9.49,6.4 9.97,6.41 10.45,6.41 10.92,6.41 11.38,6.41 11.83,6.39 12.28,6.38 12.73,6.35 13.17,6.33 13.61,6.29 14.03,6.25 14.46,6.2 14.87,6.15 15.28,6.09 15.68,6.02 16.08,5.95 16.46,5.87 16.84,5.78 17.2,5.68 17.56,5.58 17.91,5.47 18.24,5.36 18.57,5.24 18.89,5.11 19.2,4.97 19.49,4.83 19.78,4.68 20.06,4.52 20.33,4.36" fill="none" stroke="black" stroke-width="2.2222222222222223" stroke-linejoin="round" filter="url(#fuzzy)" />
      <circle r="4.25" cx="-3.9087104790034295" cy="6.1192832149427545" stroke="black" fill="none" stroke-width="1.0" filter="url(#fuzzy)" clip-path="url(#rightEyeClipPath)" /><circle r="3.274" cx="-7.183710479003429" cy="2.854283214942754" stroke="black" fill="none" stroke-width="1.0" filter="url(#fuzzy)" clip-path="url(#rightEyeClipPath)" /><circle r="3.114" cx="-6.29371047900343" cy="2.569283214942754" stroke="black" fill="none" stroke-width="1.0" filter="url(#fuzzy)" clip-path="url(#rightEyeClipPath)" /><circle r="3.158" cx="-7.3037104790034295" cy="4.134283214942753" stroke="black" fill="none" stroke-width="1.0" filter="url(#fuzzy)" clip-path="url(#rightEyeClipPath)" /><circle r="4.272" cx="-4.358710479003429" cy="6.194283214942754" stroke="black" fill="none" stroke-width="1.0" filter="url(#fuzzy)" clip-path="url(#rightEyeClipPath)" /><circle r="3.21" cx="-6.438710479003429" cy="5.699283214942753" stroke="black" fill="none" stroke-width="1.0" filter="url(#fuzzy)" clip-path="url(#rightEyeClipPath)" /><circle r="4.154" cx="-4.983710479003429" cy="4.779283214942754" stroke="black" fill="none" stroke-width="1.0" filter="url(#fuzzy)" clip-path="url(#rightEyeClipPath)" /><circle r="4.166" cx="-5.9687104790034295" cy="4.269283214942754" stroke="black" fill="none" stroke-width="1.0" filter="url(#fuzzy)" clip-path="url(#rightEyeClipPath)" /><circle r="3.952" cx="-5.46371047900343" cy="3.554283214942754" stroke="black" fill="none" stroke-width="1.0" filter="url(#fuzzy)" clip-path="url(#rightEyeClipPath)" /><circle r="3.446" cx="-2.5187104790034294" cy="1.8342832149427535" stroke="black" fill="none" stroke-width="1.0" filter="url(#fuzzy)" clip-path="url(#rightEyeClipPath)" />
      </g>
    <g transform="translate(-39.58 -25.44)">
      <polyline id="leftUpper" points="31.15,11.43 31.08,11.26 30.99,11.06 30.85,10.82 30.69,10.54 30.49,10.24 30.27,9.9 30.01,9.54 29.73,9.16 29.41,8.75 29.07,8.33 28.71,7.89 28.32,7.43 27.9,6.96 27.47,6.48 27.01,5.99 26.53,5.49 26.03,4.98 25.51,4.47 24.97,3.96 24.41,3.45 23.84,2.93 23.25,2.42 22.64,1.92 22.02,1.41 21.39,0.91 20.69,0.26 19.97,-0.39 19.22,-1.02 18.47,-1.64 17.69,-2.24 16.9,-2.83 16.09,-3.39 15.27,-3.93 14.44,-4.44 13.6,-4.93 12.75,-5.39 11.89,-5.82 11.02,-6.21 10.15,-6.58 9.28,-6.91 8.4,-7.21 7.52,-7.48 6.64,-7.71 5.76,-7.9 4.88,-8.07 4.01,-8.19 3.14,-8.28 2.28,-8.34 1.42,-8.36 0.57,-8.35 -0.26,-8.3 -1.09,-8.23 -1.9,-8.12 -2.7,-7.98 -3.49,-7.81 -4.26,-7.61 -5.02,-7.38 -5.76,-7.13 -6.48,-6.86 -7.18,-6.56 -7.86,-6.24 -8.53,-5.9 -9.17,-5.54 -9.79,-5.16 -10.39,-4.77 -10.97,-4.37 -11.53,-3.96 -12.06,-3.53 -12.58,-3.1 -13.06,-2.67 -13.53,-2.22 -13.97,-1.78 -14.39,-1.34 -14.79,-0.89 -15.17,-0.45 -15.52,-0.01 -15.85,0.42 -16.16,0.86 -16.45,1.3 -16.72,1.74 -16.97,2.17 -17.2,2.6 -17.4,3.02 -17.59,3.44 -17.75,3.86 -17.89,4.26 -18.01,4.66 -18.11,5.06 -18.19,5.44 -18.25,5.82 -18.29,6.18 -18.3,6.54 -18.3,6.89 -18.28,7.23 -18.24,7.56 -18.18,7.88 -18.11,8.19 -18.01,8.49 -17.9,8.78" fill="none" stroke="black" stroke-width="2.2222222222222223" stroke-linejoin="round" filter="url(#fuzzy)" />
      <polyline id="leftLower" points="30.43,12.92 30.26,12.95 30.04,12.95 29.78,12.93 29.49,12.89 29.15,12.84 28.79,12.77 28.39,12.68 27.96,12.59 27.5,12.48 27.02,12.36 26.52,12.23 26,12.1 25.46,11.96 24.9,11.82 24.33,11.67 23.74,11.52 23.14,11.37 22.53,11.22 21.91,11.06 21.28,10.91 20.65,10.76 20,10.61 19.36,10.47 18.71,10.33 18.05,10.19 17.23,9.96 16.4,9.74 15.59,9.53 14.77,9.33 13.96,9.15 13.16,8.98 12.37,8.83 11.58,8.69 10.8,8.56 10.03,8.45 9.27,8.36 8.51,8.27 7.77,8.21 7.03,8.15 6.3,8.12 5.58,8.09 4.86,8.08 4.16,8.08 3.46,8.09 2.77,8.11 2.09,8.14 1.41,8.18 0.74,8.23 0.08,8.29 -0.57,8.35 -1.22,8.42 -1.86,8.49 -2.49,8.57 -3.12,8.65 -3.74,8.73 -4.35,8.82 -4.96,8.9 -5.55,8.99 -6.14,9.07 -6.73,9.15 -7.3,9.22 -7.86,9.29 -8.42,9.36 -8.97,9.42 -9.51,9.48 -10.04,9.52 -10.55,9.56 -11.06,9.59 -11.56,9.61 -12.05,9.62 -12.52,9.62 -12.98,9.61 -13.43,9.59 -13.86,9.56 -14.28,9.52 -14.69,9.47 -15.09,9.4 -15.48,9.33 -15.85,9.24 -16.21,9.14 -16.56,9.02 -16.9,8.9 -17.22,8.76 -17.53,8.6 -17.83,8.44 -18.11,8.26 -18.38,8.07 -18.64,7.86 -18.88,7.64 -19.11,7.41 -19.32,7.17 -19.52,6.91 -19.7,6.64 -19.87,6.35 -20.03,6.06 -20.17,5.75 -20.29,5.43 -20.41,5.1 -20.51,4.75" fill="none" stroke="black" stroke-width="2.2222222222222223" stroke-linejoin="round" filter="url(#fuzzy)" />
      <circle r="4.54" cx="-1.286409523781992" cy="8.102289811754178" stroke="black" fill="none" stroke-width="1.0" filter="url(#fuzzy)" clip-path="url(#leftEyeClipPath)" /><circle r="3.446" cx="-1.516409523781992" cy="9.722289811754177" stroke="black" fill="none" stroke-width="1.0" filter="url(#fuzzy)" clip-path="url(#leftEyeClipPath)" /><circle r="4.678" cx="-4.506409523781992" cy="7.747289811754177" stroke="black" fill="none" stroke-width="1.0" filter="url(#fuzzy)" clip-path="url(#leftEyeClipPath)" /><circle r="4.9559999999999995" cx="-2.926409523781992" cy="7.4772898117541775" stroke="black" fill="none" stroke-width="1.0" filter="url(#fuzzy)" clip-path="url(#leftEyeClipPath)" /><circle r="3.524" cx="-4.191409523781992" cy="9.517289811754177" stroke="black" fill="none" stroke-width="1.0" filter="url(#fuzzy)" clip-path="url(#leftEyeClipPath)" /><circle r="3.068" cx="-1.9414095237819922" cy="8.872289811754177" stroke="black" fill="none" stroke-width="1.0" filter="url(#fuzzy)" clip-path="url(#leftEyeClipPath)" /><circle r="3.33" cx="-3.276409523781992" cy="10.237289811754177" stroke="black" fill="none" stroke-width="1.0" filter="url(#fuzzy)" clip-path="url(#leftEyeClipPath)" /><circle r="3.48" cx="-3.081409523781992" cy="8.187289811754177" stroke="black" fill="none" stroke-width="1.0" filter="url(#fuzzy)" clip-path="url(#leftEyeClipPath)" /><circle r="4.1080000000000005" cx="-2.8514095237819923" cy="9.282289811754177" stroke="black" fill="none" stroke-width="1.0" filter="url(#fuzzy)" clip-path="url(#leftEyeClipPath)" /><circle r="4.902" cx="-3.7964095237819917" cy="7.052289811754177" stroke="black" fill="none" stroke-width="1.0" filter="url(#fuzzy)" clip-path="url(#leftEyeClipPath)" />
    </g>
    <g id="hairs">
      <polyline points="-17.67,-84.22 -1.94,-76.94 0.13,-69.71 -6.37,-67.26 -8.84,-67.13 -5.69,-67.95 -1.26,-69.32 1.07,-70.73 1.29,-71.45 1.22,-71.04 2.34,-69.72 4.93,-68.07 8.6,-66.57 13.03,-65.32 17.8,-64.39 21.52,-64.16 21.26,-65.2 13.86,-67.24 -0.45,-68.25 -13.41,-65.01 -4.83,-55.56 60.59,-39.87" fill="none" stroke="rgb(134, 19, 43)" stroke-width="2" stroke-linejoin="round" filter="url(#fuzzy)" /><polyline points="-36.26,-73.89 -21.03,-81.17 -16.67,-81.88 -10.39,-79.42 -2.21,-75.38 3.48,-71.5 4.85,-68.94 3.55,-67.77 2.12,-67.42 1.89,-67.49 2.79,-68.03 4.23,-69.34 5.76,-71.47 7.01,-74.14 7.6,-76.9 7.3,-79.33 6.44,-81.02 5.97,-81.45 7.29,-79.83 11.77,-75.14 18.73,-67.19 17.33,-60.52 -30.77,-77.68" fill="none" stroke="rgb(134, 19, 43)" stroke-width="2" stroke-linejoin="round" filter="url(#fuzzy)" /><polyline points="61.61,-37.13 52.91,-40.62 30.02,-46.98 13.17,-50.94 8.74,-52.17 10.76,-52.8 12.76,-54.6 12.53,-58.09 11.14,-62.79 10.59,-67.56 12.16,-71.1 15.75,-72.46 19.9,-71.6 22.33,-69.49 21,-67.82 15.55,-68.09 8.46,-70.73 4.74,-74.55 8.91,-77.36 20.21,-77.71 30.57,-76.61 32.05,-76.98" fill="none" stroke="rgb(134, 19, 43)" stroke-width="2" stroke-linejoin="round" filter="url(#fuzzy)" /><polyline points="55.35,-50.89 27.52,-70.57 11.41,-72.98 3.38,-71.36 -1.34,-71.43 -4.7,-73.28 -5.44,-75.08 -2.05,-75.27 5.37,-73.45 14.99,-70.2 24.39,-66.6 31.77,-63.59 36.57,-61.56 39.27,-60.49 40.73,-60.24 41.41,-60.87 41.1,-62.66 39.19,-65.84 35.36,-70.23 29.97,-75.05 23.79,-79.31 17.1,-82.28 8.65,-83.82 -4.65,-83.98 -25.05,-81.14" fill="none" stroke="rgb(134, 19, 43)" stroke-width="2" stroke-linejoin="round" filter="url(#fuzzy)" /><polyline points="-1.03,-87.23 -16.64,-75.04 -5,-69.19 5.5,-66.68 7.94,-67.45 4.11,-70.12 -2.14,-73.14 -7.38,-75.29 -9.59,-75.75 -8.21,-74.21 -3.86,-71.03 1.92,-67.34 7.29,-64.68 10.98,-64.18 13.25,-65.75 15.58,-67.98 18.79,-69.11 20.79,-68.77 16.83,-68.83 3.39,-71.58 -17.42,-74.01 -48.22,-61.91" fill="none" stroke="rgb(134, 19, 43)" stroke-width="2" stroke-linejoin="round" filter="url(#fuzzy)" /><polyline points="14.08,-85.4 30.67,-65.41 20.25,-65.53 10.89,-66.1 8.99,-64.75 12.88,-62.53 18.41,-60.86 22.01,-60.83 22.69,-62.66 21.91,-65.5 21.79,-68.01 23.21,-69.24 25.31,-69.22 26.28,-68.86 24.56,-69.26 19.48,-70.87 11.22,-73.04 0.68,-73.98 -10.28,-71.42 -16.68,-63.73 -3.78,-50.5 64.59,-27.9" fill="none" stroke="rgb(134, 19, 43)" stroke-width="2" stroke-linejoin="round" filter="url(#fuzzy)" /><polyline points="-9.4,-86.44 8.67,-79.89 12.5,-72.73 12.63,-69.05 15.46,-67.41 20.66,-66.43 25.32,-65.94 26.65,-66.44 23.62,-68.26 17.29,-71.09 9.92,-73.98 3.63,-75.83 -0.55,-75.91 -2.53,-74.31 -2.93,-72.09 -3.25,-70.86 -5.27,-71.9 -7.71,-75.48 -3.5,-81.34 3.13,-87.09" fill="none" stroke="rgb(134, 19, 43)" stroke-width="2" stroke-linejoin="round" filter="url(#fuzzy)" /><polyline points="-55.13,-50.88 15.57,-48.01 30.34,-53.62 23.45,-60.4 15.54,-63.61 13.37,-63.69 14.97,-63.21 16.33,-64.03 15.25,-66.24 11.86,-68.66 7.53,-69.93 3.69,-69.45 1.07,-67.76 -0.42,-66.17 -1.26,-65.85 -1.84,-67.01 -2.14,-68.91 -1.73,-70.71 0.55,-72.28 6.45,-73.81 12.59,-75.8 -9.4,-86.44" fill="none" stroke="rgb(134, 19, 43)" stroke-width="2" stroke-linejoin="round" filter="url(#fuzzy)" /><polyline points="46.26,-64.12 30.68,-65.68 22.79,-59.08 15.9,-56.07 13.36,-55.76 15.42,-57.36 19.42,-60.61 22.05,-65.1 21.47,-70.14 17.87,-74.79 12.79,-78.18 8.02,-79.76 4.89,-79.53 4.21,-78.05 6.42,-76.13 11.36,-74.41 17.96,-72.88 23.75,-71.3 25,-70.29 17.94,-72.06 5.26,-78.05 15.38,-84.78" fill="none" stroke="rgb(134, 19, 43)" stroke-width="2" stroke-linejoin="round" filter="url(#fuzzy)" /><polyline points="-17.29,-84.52 2.36,-84.07 13.48,-79.62 19.15,-74.46 21.47,-71.06 21.21,-70.11 19.14,-70.39 17.19,-69.85 17.5,-67.24 20.89,-62.88 25.93,-58.36 29.19,-55.66 26.47,-56.3 16.07,-60.49 4.44,-66.68 9.44,-71.57 45.34,-64.98" fill="none" stroke="rgb(134, 19, 43)" stroke-width="2" stroke-linejoin="round" filter="url(#fuzzy)" /><polyline points="-3.71,-87.29 21.88,-65.53 9.57,-63.83 -3.18,-63.45 -8.11,-63.31 -8.62,-64.55 -7.94,-67.09 -6.64,-70.08 -4.15,-72.73 -0.17,-74.65 4.97,-75.47 10.55,-74.78 15.65,-72.28 19,-68.34 19.11,-64.26 15.04,-61.73 7.71,-61.66 0.18,-63.42 -4.37,-65.71 -5.33,-68.97 -4.53,-75.92 -17.4,-84.15" fill="none" stroke="rgb(134, 19, 43)" stroke-width="2" stroke-linejoin="round" filter="url(#fuzzy)" /><polyline points="53.56,-53.63 39.44,-65.51 35.43,-67.67 27.91,-70.47 17.25,-73.57 6.83,-75.96 -0.29,-77.29 -2.68,-77.74 -0.56,-77.67 4.72,-77.32 11.3,-76.8 17.3,-76.18 21.08,-75.64 21.52,-75.38 18.35,-75.48 12.45,-75.72 5.61,-75.62 -0.27,-74.76 -4.34,-73.16 -7.22,-71.58 -9.86,-71.16 -11.06,-72.56 -5.91,-74.85 12.15,-75.52 41.56,-69.07" fill="none" stroke="rgb(134, 19, 43)" stroke-width="2" stroke-linejoin="round" filter="url(#fuzzy)" /><polyline points="-21.26,-102.84 -20.81,-102.63 -19.46,-101.82 -17.87,-100.93 -16.36,-99.54 -14.95,-97.67 -13.61,-95.68 -12.32,-93.89 -11.06,-92.51 -9.8,-91.58 -8.5,-91.05 -7.18,-90.8 -5.9,-90.67 -4.72,-90.51 -3.63,-90.1 -2.59,-89.3 -1.54,-88.28 -0.47,-87.55 0.96,-87.36 -1.16,-87.22 0.1,-86.71 1.06,-86.25 2.15,-86.07 3.24,-85.85 4.21,-85.36 5.02,-84.63 5.74,-83.83 6.46,-83.08 7.27,-82.33 8.19,-81.4 9.2,-80.13 10.22,-78.63 11.21,-77.28 12.06,-76.34 12.45,-75.56 -4.58,-86.97 -3.01,-87.16 -1.82,-87.18 -0.86,-87.11 0.04,-86.94 0.99,-86.69 2,-86.43 3.05,-86.17 4.04,-85.93 4.92,-85.65 5.69,-85.31 6.44,-84.93 7.27,-84.51 8.26,-84.04 9.42,-83.48 10.64,-82.82 11.91,-82.15" fill="none" stroke="rgb(134, 19, 43)" stroke-width="2" stroke-linejoin="round" filter="url(#fuzzy)" /><polyline points="-5.28,-87.14 -7.29,-87.09 -8.81,-87.34 -9.94,-87.52 -10.91,-87.63 -11.88,-87.89 -12.96,-88.49 -14.14,-89.43 -15.45,-90.59 -16.83,-91.76 -18.24,-92.76 -19.63,-93.49 -20.98,-93.96 -22.27,-94.3 -23.51,-94.73 -24.72,-95.37 -25.95,-96.22 -27.27,-97.07 -28.69,-97.72 -29.97,-97.87 -30.5,-96.65 -10.81,-86.02 -11.82,-95.06 -13.05,-96.53 -14.29,-97.05 -15.33,-96.57 -16.26,-95.12 -17.22,-93.46 -18.32,-92.36 -19.63,-92.26 -21.13,-93.2 -22.79,-95 -24.52,-97.28 -26.24,-99.64 -27.9,-101.63 -29.44,-102.91 -30.81,-103.31 -31.98,-102.89 -32.94,-101.89 -33.78,-100.72 -34.67,-99.9 -35.95,-99.92 -37.96,-100.85 -40.73,-102.07 -44.09,-103.22" fill="none" stroke="rgb(134, 19, 43)" stroke-width="2" stroke-linejoin="round" filter="url(#fuzzy)" /><polyline points="-1.05,-79.02 -1.46,-79.6 -2.34,-80.29 -3.26,-80.98 -4.2,-81.41 -5.26,-81.65 -6.46,-81.95 -7.71,-82.46 -8.9,-83.1 -9.97,-83.69 -10.94,-84.09 -11.86,-84.32 -12.73,-84.48 -13.58,-84.61 -14.78,-84.63 -17.67,-84.22 1.18,-107.56 -0.54,-105.49 -1.75,-104.01 -2.89,-102.62 -3.98,-101.23 -5.1,-99.82 -6.29,-98.35 -7.55,-96.88 -8.82,-95.57 -10.04,-94.54 -11.15,-93.77 -12.15,-93.08 -13.06,-92.26 -13.92,-91.17 -14.76,-89.81 -15.66,-88.36 -16.6,-86.97 -17.45,-85.71 -18.18,-84.62 -19.36,-83.83" fill="none" stroke="rgb(134, 19, 43)" stroke-width="2" stroke-linejoin="round" filter="url(#fuzzy)" /><polyline points="-19.36,-83.83 -21.34,-85.6 -22.35,-86.51 -23.07,-86.8 -23.82,-86.5 -24.76,-86.08 -25.89,-85.93 -27.15,-86.24 -28.5,-87.02 -29.89,-88.18 -31.38,-89.6 -33.08,-91.11 -35.11,-92.55 -37.33,-93.58 -39.28,-93.88 -40.39,-94.1" fill="none" stroke="rgb(134, 19, 43)" stroke-width="2" stroke-linejoin="round" filter="url(#fuzzy)" /><polyline points="61.24,-45.57 61.4,-43.88 61.9,-42.32 62.41,-40.96 62.78,-39.71 63.03,-38.52 63.24,-37.36 63.48,-36.14 63.76,-34.81 64.09,-33.36 64.41,-31.82 64.71,-30.28 64.97,-28.81 65.21,-27.45 65.44,-26.19 65.7,-24.97 65.98,-23.74 66.28,-22.45 66.58,-21.1 66.86,-19.77 67.02,-18.54 66.92,-17.54 66.7,-16.72 66.7,-16.72 66.62,-17.45 66.49,-18.36 66.28,-19.55 66.02,-20.87 65.74,-22.2 65.46,-23.48 65.2,-24.69 64.93,-25.85 64.66,-27.02 64.35,-28.28 63.98,-29.67 63.56,-31.18 63.08,-32.72 62.62,-34.17 62.21,-35.42 61.9,-36.39 61.72,-36.92 61.67,-36.76" fill="none" stroke="rgb(134, 19, 43)" stroke-width="2" stroke-linejoin="round" filter="url(#fuzzy)" /><polyline points="-22.77,-82.21 -23.89,-81.82 -25,-81.69 -26.14,-81.79 -27.19,-81.99 -28.16,-82.14 -29.16,-82.15 -30.31,-82.1 -31.67,-82.11 -33.18,-82.26 -34.72,-82.5 -36.18,-82.71 -37.54,-82.85 -38.89,-83.05 -40.27,-83.42 -41.58,-83.78 -42.59,-83.97 -43.36,-85.36" fill="none" stroke="rgb(134, 19, 43)" stroke-width="2" stroke-linejoin="round" filter="url(#fuzzy)" /><polyline points="-10.1,-92.95 -10.75,-91.3 -11.33,-90.45 -12.13,-89.86 -13.01,-89.28 -13.9,-88.66 -14.85,-88.01 -15.86,-87.34 -16.91,-86.69 -17.96,-86.1 -19.03,-85.57 -20.09,-85.08 -21.03,-84.61 -21.68,-84.18 -22.06,-83.73 -22.77,-82.21" fill="none" stroke="rgb(134, 19, 43)" stroke-width="2" stroke-linejoin="round" filter="url(#fuzzy)" /><polyline points="-25.05,-81.14 -24.44,-83.26 -23.6,-84.54 -22.98,-85.88 -22.56,-87.69 -22.15,-89.97 -21.59,-92.22 -20.78,-93.83 -19.72,-94.6 -18.5,-94.74 -17.23,-94.68 -16.02,-94.78 -14.91,-95.17 -13.9,-95.84 -12.95,-96.76 -12.03,-97.97 -11.05,-99.52 -9.9,-101.4 -8.39,-103.38 -6.49,-105.13 -4.54,-106.88" fill="none" stroke="rgb(134, 19, 43)" stroke-width="2" stroke-linejoin="round" filter="url(#fuzzy)" /><polyline points="-25.46,-80.67 -27.55,-81.78 -28.68,-82.91 -30.17,-84.65 -32.01,-86.33 -33.78,-87.13 -35.26,-86.96 -36.53,-86.38 -37.82,-86.02 -39.28,-86.22 -40.91,-86.91 -42.56,-87.76 -44.1,-88.43 -45.51,-88.79 -47.05,-89.02 -49.29,-89.54 -52.96,-91" fill="none" stroke="rgb(134, 19, 43)" stroke-width="2" stroke-linejoin="round" filter="url(#fuzzy)" /><polyline points="-28.14,-79.37 -27.7,-79.58 -28.06,-79.09 -28.94,-78.25 -30.04,-77.35 -31.16,-76.53 -32.21,-75.8 -33.14,-75.12 -33.99,-74.43 -34.75,-73.7 -35.46,-72.95 -36.15,-72.16 -36.84,-71.32 -37.55,-70.4 -38.3,-69.38 -39.08,-68.25 -39.89,-67.1 -40.72,-66.01 -41.44,-65.16 -41.62,-64.86 -27.54,-79.92 -27.33,-79.88 -26.85,-80.03 -26.04,-80.42 -25.09,-80.9 -24.11,-81.39 -23.19,-81.82 -22.31,-82.17 -21.46,-82.48 -20.57,-82.75 -19.63,-83.01 -18.63,-83.29 -17.57,-83.58 -16.5,-83.87 -15.42,-84.14 -14.37,-84.37 -13.36,-84.53 -12.39,-84.65 -11.47,-84.75 -10.57,-84.85 -9.65,-84.98 -8.58,-85.15 -7.14,-85.33 -5.18,-85.46 -28.81,-78.75 -30.73,-78.3 -32.28,-78.11 -33.55,-78.01 -34.72,-77.97 -35.87,-77.96 -37.02,-77.98 -38.17,-78.02 -39.35,-78.05 -40.56,-78.02 -41.83,-77.89 -43.19,-77.7 -44.64,-77.49 -46.1,-77.25 -47.48,-76.97 -48.72,-76.71 -49.89,-76.59 -51.25,-76.64 -53.09,-76.3 -28.81,-78.75 -30.4,-77.48 -31.31,-75.84 -31.95,-74.35 -32.67,-73.38 -33.53,-72.85 -34.43,-72.47 -35.27,-72.04 -36.05,-71.44 -36.77,-70.64 -37.45,-69.64 -38.12,-68.49 -38.79,-67.28 -39.46,-66.12 -40.12,-65.08 -40.73,-64.16 -41.21,-63.25 -41.52,-62.23 -41.68,-61.01 -41.83,-59.59 -42.39,-58.07 -44.04,-56.54" fill="none" stroke="rgb(134, 19, 43)" stroke-width="2" stroke-linejoin="round" filter="url(#fuzzy)" /><polyline points="51.72,-31.29 53.02,-31.41 53.96,-30.81 55.12,-30.07 56.51,-29.22 57.9,-28.27 59.11,-27.27 60.09,-26.29 60.92,-25.39 61.73,-24.55 62.52,-23.68 63.24,-22.7 63.85,-21.58 64.49,-20.37 65.34,-19.18 66.25,-18.17 66.6,-17.6" fill="none" stroke="rgb(134, 19, 43)" stroke-width="2" stroke-linejoin="round" filter="url(#fuzzy)" /><polyline points="-30.77,-77.68 -30.09,-81.04 -29.31,-82.31 -28.56,-82.57 -27.9,-83 -27.28,-84.01 -26.65,-85.43 -25.98,-87 -25.29,-88.51 -24.63,-89.85 -24.01,-91 -23.38,-92.04 -22.59,-93.13 -21.52,-94.27 -20.31,-95.23 -19.62,-95.93" fill="none" stroke="rgb(134, 19, 43)" stroke-width="2" stroke-linejoin="round" filter="url(#fuzzy)" /><polyline points="-30.77,-77.68 -32.14,-77.02 -33.07,-76.52 -34,-76.1 -35.1,-76.02 -36.43,-76.38 -37.92,-77.06 -39.48,-77.79 -41.04,-78.34 -42.54,-78.59 -43.97,-78.51 -45.29,-78.16 -46.5,-77.62 -47.56,-76.95 -48.48,-76.22 -49.31,-75.48 -50.13,-74.79 -51.12,-74.22 -52.47,-73.86 -54.29,-73.69 -56.4,-73.52 -58.28,-73.07 -59.37,-72.2" fill="none" stroke="rgb(134, 19, 43)" stroke-width="2" stroke-linejoin="round" filter="url(#fuzzy)" /><polyline points="-34.98,-74.95 -38.28,-79.67 -39.01,-79.11 -39.27,-77.45 -39.97,-76.39 -41.23,-76.11 -42.8,-76.21 -44.36,-76.26 -45.79,-76.12 -47.15,-75.95 -48.6,-76.07 -50.26,-76.62 -52.09,-77.44 -53.94,-78.13 -55.8,-78.44 -57.9,-78.5 -60.55,-78.8 -63.65,-79.7 -65.86,-80.09 -34.98,-74.95 -35.9,-74.71 -37.14,-75.14 -38.2,-75.14 -39.03,-74.48 -39.81,-73.45 -40.67,-72.4 -41.68,-71.56 -42.79,-71 -43.96,-70.69 -45.11,-70.5 -46.21,-70.3 -47.26,-70 -48.31,-69.56 -49.41,-68.98 -50.58,-68.3 -51.79,-67.6 -53,-67.01 -54.22,-66.63 -55.45,-66.49 -56.68,-66.37 -57.96,-66.04 -59.73,-64.91 -16.18,-70.07 -17.85,-71.55 -18.68,-72.1 -19.35,-72.44 -20.16,-72.72 -21.08,-72.85 -22.01,-72.75 -22.87,-72.46 -23.68,-72.12 -24.5,-71.91 -25.46,-71.97 -26.65,-72.38 -28.08,-73.06 -29.63,-73.78 -31.08,-74.22 -32.23,-74.09 -33.02,-73.3 -33.57,-72.08 -34.21,-71.26 -36.26,-73.89 -37.2,-73.24 -38,-70.58 -38.21,-67.85 -38.5,-65.78 -38.94,-64.26 -39.47,-63.15 -39.98,-62.24 -40.42,-61.38 -40.8,-60.43 -41.17,-59.33 -41.63,-58.16 -42.29,-57.07 -43.12,-56.17 -43.94,-55.43 -44.51,-54.67 -44.63,-53.61 -44.25,-52.13 -43.08,-50.55" fill="none" stroke="rgb(134, 19, 43)" stroke-width="2" stroke-linejoin="round" filter="url(#fuzzy)" /><polyline points="-38.93,-71.55 -38.09,-72.94 -37.62,-73.86 -37.12,-74.77 -36.7,-76.09 -36.48,-78.07 -36.47,-80.75 -36.57,-83.93 -36.56,-87.23 -36.29,-90.27 -35.71,-92.79 -34.97,-94.82 -34.29,-96.62 -33.8,-98.47 -33.43,-100.58 -32.99,-103.05 -32.61,-106.33 -32.79,-111.49 -25.5,-82.59 -26.27,-81.76 -27.09,-81.12 -27.74,-80.63 -28.44,-80.09 -29.33,-79.43 -30.38,-78.68 -31.48,-77.9 -32.54,-77.16 -33.52,-76.48 -34.43,-75.86 -35.3,-75.29 -36.14,-74.79 -36.93,-74.33 -37.62,-73.84 -38.18,-73.12 -38.93,-71.55" fill="none" stroke="rgb(134, 19, 43)" stroke-width="2" stroke-linejoin="round" filter="url(#fuzzy)" /><polyline points="-34.24,-108.49 -35.19,-104.62 -34.75,-100.72 -34.59,-97.51 -35.11,-95.13 -36.18,-93.56 -37.52,-92.6 -38.77,-91.75 -39.7,-90.54 -40.26,-88.76 -40.53,-86.56 -40.61,-84.15 -40.46,-81.5 -40.1,-78.54 -39.84,-75.62 -40.17,-73.16 -40.54,-69.66 -40.54,-69.66 -38.2,-69.53 -37.35,-70.88 -36.77,-71.95 -36.07,-72.59 -35.24,-72.99 -34.32,-73.3 -33.32,-73.56 -32.24,-73.77 -31.08,-73.95 -29.87,-74.1 -28.66,-74.23 -27.51,-74.34 -26.46,-74.4 -25.49,-74.42 -24.57,-74.39 -23.62,-74.35 -22.59,-74.3 -21.49,-74.17 -20.35,-73.83 -19.42,-73.13 -19.57,-72.25" fill="none" stroke="rgb(134, 19, 43)" stroke-width="2" stroke-linejoin="round" filter="url(#fuzzy)" /><polyline points="-68.24,-72.12 -66.01,-72.2 -63.45,-71.8 -61.19,-71.22 -59.14,-70.55 -57.11,-69.79 -54.97,-68.99 -52.79,-68.34 -50.72,-67.97 -48.93,-67.91 -47.52,-68.14 -46.59,-68.72 -46.13,-69.73 -45.95,-71 -45.41,-71.81 -43.41,-71.05 -40.34,-70.15" fill="none" stroke="rgb(134, 19, 43)" stroke-width="2" stroke-linejoin="round" filter="url(#fuzzy)" /><polyline points="-34.47,-100.02 -36.51,-99.5 -37.8,-97.09 -38.39,-93.81 -38.74,-90.78 -39.24,-88.57 -39.94,-87.13 -40.72,-86.07 -41.39,-84.91 -41.82,-83.33 -42.02,-81.25 -42.1,-78.84 -42.21,-76.35 -42.46,-74.05 -42.87,-72.09 -43.43,-70.56 -44.1,-69.53 -44.91,-69 -45.69,-68.41 -45.37,-65.2" fill="none" stroke="rgb(134, 19, 43)" stroke-width="2" stroke-linejoin="round" filter="url(#fuzzy)" /><polyline points="-48.22,-61.91 -47.88,-65.67 -48.68,-69.4 -49.38,-72.28 -49.25,-73.75 -48.46,-74.31 -47.44,-74.68 -46.45,-75.35 -45.58,-76.41 -44.79,-77.73 -44.03,-79.12 -43.25,-80.44 -42.49,-81.66 -41.76,-82.86 -41.11,-84.17 -40.57,-85.73 -40.15,-87.62 -39.79,-89.84 -39.42,-92.31 -38.92,-95.04 -38.19,-98.08 -37.1,-101.15 -35.51,-103.05" fill="none" stroke="rgb(134, 19, 43)" stroke-width="2" stroke-linejoin="round" filter="url(#fuzzy)" /><polyline points="66.41,-19.13 66.89,-18.27 67.98,-17.63 69.26,-16.74 70.45,-15.56 71.36,-14.21 71.88,-12.81 72.02,-11.42 71.96,-10.07 71.87,-8.73 71.87,-7.39 71.98,-6.04 72.21,-4.7 72.56,-3.4 73.06,-2.16 73.68,-0.95 74.36,0.27 74.94,1.58 75.32,3.11 75.7,5.01 76.48,7.27 66.41,-19.13 66.12,-21.24 65.99,-22.67 65.85,-24 65.76,-25.27 65.73,-26.55 65.78,-27.94 65.9,-29.5 66.03,-31.23 66.13,-33.01 66.12,-34.72 65.95,-36.25 65.61,-37.58 65.17,-38.76 64.72,-39.91 64.34,-41.13 64.05,-42.47 63.88,-43.93 63.81,-45.45 63.84,-46.99 63.95,-48.51 64.07,-50 64.13,-51.47 64.02,-52.96 63.39,-54.91" fill="none" stroke="rgb(134, 19, 43)" stroke-width="2" stroke-linejoin="round" filter="url(#fuzzy)" /><polyline points="-46.99,-92.51 -48.88,-90.69 -49.55,-87.96 -49.49,-84.68 -49.34,-81.59 -49.52,-79.37 -50.11,-78.1 -50.81,-77.25 -51.22,-76.05 -51.14,-74 -50.69,-71.2 -50.29,-68.19 -50.26,-65.64 -50.56,-63.82 -50.74,-62.34 -50.47,-60.52 -50.63,-58.29" fill="none" stroke="rgb(134, 19, 43)" stroke-width="2" stroke-linejoin="round" filter="url(#fuzzy)" /><polyline points="-50.63,-58.29 -52.7,-59.99 -55.21,-60.77 -57.06,-60.51 -58.59,-59.95 -59.78,-59.26 -60.51,-58.36 -60.94,-57.31 -61.49,-56.3 -62.52,-55.55 -64.14,-55.08 -66.16,-54.77 -68.27,-54.44 -70.25,-53.97 -72.06,-53.36 -73.72,-52.6 -75.18,-51.66 -76.33,-50.49 -77.28,-49.28 -78.76,-48.52 -81.81,-48.53" fill="none" stroke="rgb(134, 19, 43)" stroke-width="2" stroke-linejoin="round" filter="url(#fuzzy)" /><polyline points="-50.63,-58.29 -51.08,-58.25 -52.7,-58.07 -55.02,-58.35 -57.46,-58.79 -59.63,-59.14 -61.36,-59.27 -62.63,-59.06 -63.48,-58.4 -64.06,-57.28 -64.64,-55.89 -65.47,-54.52 -66.73,-53.41 -68.46,-52.71 -70.6,-52.39 -73.12,-52.31 -76.06,-52.3 -79.34,-52.32 -82.16,-52.38" fill="none" stroke="rgb(134, 19, 43)" stroke-width="2" stroke-linejoin="round" filter="url(#fuzzy)" /><polyline points="-66.6,-35.33 -65.57,-37.24 -64.91,-38.48 -64.34,-39.52 -63.8,-40.57 -63.23,-41.67 -62.58,-42.8 -61.88,-43.93 -61.15,-45.04 -60.4,-46.16 -59.59,-47.29 -58.68,-48.42 -57.68,-49.49 -56.68,-50.42 -55.82,-51.14 -55.24,-51.63 -54.88,-52.01 -54.24,-52.83" fill="none" stroke="rgb(134, 19, 43)" stroke-width="2" stroke-linejoin="round" filter="url(#fuzzy)" /><polyline points="-55.13,-50.88 -54.73,-52.92 -54.39,-54.8 -54.07,-56.61 -53.66,-58.26 -53.27,-59.8 -53.11,-61.46 -53.35,-63.46 -53.92,-65.84 -54.54,-68.44 -54.91,-71.03 -54.89,-73.45 -54.61,-75.73 -54.46,-78.08 -54.83,-80.9 -55.94,-84.81 -57.88,-90.2 -55.13,-50.88 -54.83,-51.18 -55.1,-50.63 -55.63,-49.6 -56.26,-48.3 -56.88,-46.91 -57.47,-45.56 -58.02,-44.29 -58.54,-43.09 -59.04,-41.9 -59.5,-40.68 -59.9,-39.47 -60.23,-38.29 -60.51,-37.17 -60.77,-36.03 -61.12,-34.71 -61.86,-32.82" fill="none" stroke="rgb(134, 19, 43)" stroke-width="2" stroke-linejoin="round" filter="url(#fuzzy)" /><polyline points="79.56,-59.32 78.37,-57.61 78.87,-56.11 79.63,-54.53 79.61,-52.51 78.75,-50.13 77.45,-47.66 75.97,-45.22 74.4,-42.76 72.88,-40.21 71.72,-37.71 71.34,-35.48 71.86,-33.71 72.82,-32.32 73.26,-30.98 72.3,-29.26 69.89,-27.03 67.24,-24.64 65.88,-22.81 65.79,-22.37" fill="none" stroke="rgb(134, 19, 43)" stroke-width="2" stroke-linejoin="round" filter="url(#fuzzy)" /><polyline points="-57.29,-47.31 -58.86,-45.81 -60.47,-45.34 -61.99,-44.89 -63.47,-44.29 -64.86,-43.57 -66.09,-42.77 -67.16,-41.88 -68.08,-40.9 -68.91,-39.83 -69.66,-38.7 -70.42,-37.56 -71.25,-36.46 -72.21,-35.45 -73.32,-34.54 -74.52,-33.7 -75.72,-32.9 -76.88,-32.1 -78.06,-31.26 -79.47,-30.42 -81.31,-29.58 -83.49,-28.6 -85.4,-27.04 -86.27,-24.61 -59.64,-41.64 -60.22,-40.01 -60.53,-38.8 -60.87,-37.72 -61.27,-36.63 -61.68,-35.48 -62.04,-34.29 -62.33,-33.07 -62.54,-31.86 -62.7,-30.67 -62.86,-29.52 -63.05,-28.44 -63.26,-27.4 -63.49,-26.39 -63.7,-25.36 -63.89,-24.25 -64.03,-23.03 -64.15,-21.67 -64.25,-20.17 -64.34,-18.55 -64.46,-16.87 -64.62,-15.27 -64.6,-14.49" fill="none" stroke="rgb(134, 19, 43)" stroke-width="2" stroke-linejoin="round" filter="url(#fuzzy)" /><polyline points="-75.02,-12.74 -74.09,-14.11 -73.28,-15.56 -72.59,-17.1 -71.91,-18.72 -71.26,-20.36 -70.64,-21.95 -70.04,-23.42 -69.45,-24.75 -68.87,-25.96 -68.35,-27.07 -67.92,-28.14 -67.54,-29.19 -67.17,-30.23 -66.75,-31.28 -66.3,-32.36 -65.83,-33.47 -65.36,-34.62 -64.83,-35.77 -64.15,-36.84 -63.27,-37.76 -62.24,-38.51 -61.24,-39.22 -60.43,-40.13 -59.64,-41.64" fill="none" stroke="rgb(134, 19, 43)" stroke-width="2" stroke-linejoin="round" filter="url(#fuzzy)" /><polyline points="-59.64,-41.64 -62.07,-41.2 -64.41,-41.25 -66.13,-40.97 -67.56,-40.4 -68.72,-39.57 -69.43,-38.44 -69.71,-37.09 -69.93,-35.72 -70.57,-34.58 -71.95,-33.82 -74.02,-33.41 -76.45,-33.19 -78.94,-33 -81.39,-32.73 -83.84,-32.31 -85.92,-31.77 -85.71,-31.26 -60.6,-39.56 -60.75,-38.71 -60.94,-37.71 -61.07,-36.5 -61.08,-35.12 -60.95,-33.66 -60.69,-32.17 -60.35,-30.71 -60.01,-29.32 -59.75,-28.02 -59.62,-26.84 -59.6,-25.76 -59.65,-24.72 -59.69,-23.66 -59.68,-22.54 -59.62,-21.3 -59.51,-19.95 -59.39,-18.49 -59.24,-16.96 -59.05,-15.41 -58.78,-13.88 -58.36,-12.42 -57.81,-11.03 -57.42,-9.75" fill="none" stroke="rgb(134, 19, 43)" stroke-width="2" stroke-linejoin="round" filter="url(#fuzzy)" /><polyline points="65.76,-21.65 65.59,-21.1 65.41,-19.7 65.35,-18.36 65.41,-17.15 65.52,-15.91 65.6,-14.59 65.63,-13.21 65.6,-11.84 65.56,-10.51 65.51,-9.23 65.48,-7.99 65.46,-6.76 65.45,-5.53 65.42,-4.31 65.34,-3.12 65.17,-1.99 64.88,-0.88 64.49,0.23 64.07,1.4 63.74,2.69 63.54,4.1 63.3,5.44 62.78,6.17" fill="none" stroke="rgb(134, 19, 43)" stroke-width="2" stroke-linejoin="round" filter="url(#fuzzy)" /><polyline points="65.76,-21.65 66.82,-21.45 68.4,-20.53 69.27,-19.43 69.39,-18.19 69.28,-16.83 69.5,-15.42 70.35,-14.05 71.79,-12.78 73.53,-11.6 75.13,-10.44 76.28,-9.24 76.92,-7.93 77.23,-6.53 77.55,-5.09 78.19,-3.68 79.25,-2.33 80.63,-1.02 82.03,0.31 83.12,1.76 83.81,3.46 84.38,5.58 84.87,8.06" fill="none" stroke="rgb(134, 19, 43)" stroke-width="2" stroke-linejoin="round" filter="url(#fuzzy)" /><polyline points="-60.81,-38.77 -60.94,-40.24 -60.99,-42.07 -61.23,-43.95 -61.5,-45.79 -61.67,-47.61 -61.72,-49.51 -61.78,-51.55 -61.94,-53.67 -62.15,-55.66 -62.21,-57.25 -61.99,-58.36 -61.54,-59.25 -61.13,-60.42 -61.05,-62.28 -61.42,-64.8 -62.2,-67.58 -61.12,-38.02 -62.93,-40.26 -65.83,-43.68 -67.29,-46.39 -67.41,-48.23 -67.04,-49.74 -66.7,-51.35 -66.48,-53.17 -66.32,-55.13 -66.24,-57.14 -66.35,-59.2 -66.75,-61.28 -67.28,-63.26 -67.54,-64.95 -67.28,-66.41 -66.88,-68.17 -67.34,-71.05 -69.41,-75.43 -57.24,-12.45 -58.65,-15.3 -59.55,-17.26 -60.17,-18.98 -60.54,-20.53 -60.71,-21.88 -60.74,-23.07 -60.67,-24.12 -60.54,-25.09 -60.4,-26.05 -60.33,-27.07 -60.39,-28.21 -60.51,-29.42 -60.6,-30.66 -60.65,-31.92 -60.78,-33.35 -61.02,-35.01 -61.6,-36.54 -61.76,-36.12 -64.84,-35.39 -65.25,-34.15 -65.43,-32.97 -65.88,-31.93 -66.51,-30.97 -67.1,-30.06 -67.58,-29.13 -68.03,-28.21 -68.64,-27.3 -69.6,-26.44 -70.96,-25.58 -72.58,-24.62 -74.17,-23.44 -75.51,-22.16 -76.44,-21.41 -62.91,-33.38 -62.13,-35.32 -61.66,-36.61 -61.29,-37.74 -60.96,-38.9 -60.65,-40.16 -60.34,-41.49 -59.98,-42.84 -59.55,-44.16 -59.03,-45.47 -58.44,-46.76 -57.81,-48.02 -57.19,-49.24 -56.61,-50.38 -56.08,-51.43 -55.59,-52.41 -55.09,-53.38 -54.55,-54.4 -53.93,-55.51 -53.26,-56.74 -52.59,-58.03 -51.96,-59.3 -51.42,-60.47 -51,-61.45 -50.9,-61.9" fill="none" stroke="rgb(134, 19, 43)" stroke-width="2" stroke-linejoin="round" filter="url(#fuzzy)" /><polyline points="-77.62,-9.27 -76.97,-10.44 -75.86,-11.3 -74.8,-12.43 -73.94,-13.79 -73.2,-15.27 -72.46,-16.79 -71.67,-18.34 -70.86,-19.89 -70.1,-21.41 -69.39,-22.86 -68.7,-24.18 -67.98,-25.34 -67.23,-26.35 -66.49,-27.26 -65.87,-28.17 -65.47,-29.16 -65.32,-30.3 -65.31,-31.56 -65.09,-32.68 -64.16,-33.22 -62.91,-33.38" fill="none" stroke="rgb(134, 19, 43)" stroke-width="2" stroke-linejoin="round" filter="url(#fuzzy)" /><polyline points="-63.32,-32.43 -63.01,-33.89 -62.71,-35.5 -62.45,-36.91 -62.35,-38.3 -62.48,-39.84 -62.79,-41.56 -63.14,-43.4 -63.43,-45.27 -63.61,-47.15 -63.74,-49.07 -63.88,-51.11 -64.06,-53.26 -64.28,-55.43 -64.53,-57.51 -64.83,-59.47 -65.24,-61.41 -65.77,-63.47 -66.23,-65.66 -66.33,-67.85 -66.03,-70.08 -65.84,-72.99 -66.32,-77.81 -62.85,-32.94 -62.75,-32.94 -62.3,-33.78 -61.53,-34.77 -60.63,-35.68 -59.82,-36.58 -59.17,-37.56 -58.65,-38.64 -58.15,-39.77 -57.58,-40.87 -56.88,-41.89 -56.05,-42.85 -55.14,-43.79 -54.18,-44.72 -53.24,-45.63 -52.29,-46.39 -51.31,-46.88 -50.26,-47.06 -49.16,-47.06 -48.04,-47.2 -47.01,-47.77 -46.33,-48.97" fill="none" stroke="rgb(134, 19, 43)" stroke-width="2" stroke-linejoin="round" filter="url(#fuzzy)" /><polyline points="-55.16,-58.3 -55.71,-56.63 -56.21,-55.25 -56.56,-54.18 -56.83,-53.22 -57.12,-52.19 -57.53,-51.01 -58.04,-49.72 -58.63,-48.37 -59.24,-47.03 -59.81,-45.7 -60.31,-44.38 -60.76,-43.06 -61.17,-41.75 -61.56,-40.47 -61.93,-39.22 -62.29,-37.98 -62.6,-36.72 -62.85,-35.43 -63.07,-34.13 -63.27,-32.84 -63.49,-31.6 -63.73,-30.44 -63.96,-29.48 -64.06,-28.91" fill="none" stroke="rgb(134, 19, 43)" stroke-width="2" stroke-linejoin="round" filter="url(#fuzzy)" /><polyline points="80.85,-7.95 79.92,-9.25 78.99,-10.28 77.65,-11.34 75.97,-12.47 74.27,-13.71 72.8,-15.01 71.62,-16.31 70.74,-17.54 70.06,-18.71 69.44,-19.86 68.74,-21.02 67.9,-22.2 66.99,-23.38 66.17,-24.57 65.52,-25.64 64.88,-26.15 64.56,-27.31 65.47,-26.65 66.13,-25.82 66.89,-24.8 67.77,-23.66 68.71,-22.49 69.63,-21.32 70.51,-20.16 71.44,-19 72.56,-17.85 73.93,-16.66 75.42,-15.42 76.77,-14.12 77.77,-12.78 78.49,-11.45 79.16,-10.15 79.99,-8.83 80.96,-7.35 82.05,-5.49 82.67,-3.07" fill="none" stroke="rgb(134, 19, 43)" stroke-width="2" stroke-linejoin="round" filter="url(#fuzzy)" /><polyline points="63.44,-1.85 63.59,-2.32 63.75,-3.22 64.03,-4.46 64.31,-5.77 64.48,-7.03 64.52,-8.23 64.49,-9.43 64.44,-10.68 64.4,-11.98 64.42,-13.34 64.48,-14.7 64.57,-16.04 64.65,-17.36 64.71,-18.67 64.75,-20.01 64.77,-21.36 64.78,-22.72 64.76,-24.03 64.7,-25.27 64.59,-26.42 64.42,-27.57 64.14,-28.87 63.72,-30.56 63.22,-32.73 46.07,-60.7 46.69,-60.3 47.36,-59.65 48.17,-58.67 49.07,-57.56 49.95,-56.49 50.77,-55.53 51.52,-54.65 52.24,-53.82 52.93,-53 53.59,-52.17 54.23,-51.3 54.86,-50.34 55.51,-49.28 56.19,-48.15 56.85,-47 57.47,-45.92 58.02,-44.97 58.5,-44.16 58.88,-43.49 59.14,-42.71 55.35,-50.89 55.05,-52 55.13,-52.96 55.02,-54.12 54.62,-55.26 54.04,-56.33 53.41,-57.42 52.79,-58.64 52.21,-59.99 51.65,-61.41 51.11,-62.81 50.63,-64.16 50.21,-65.48 49.84,-66.82 49.46,-68.19 48.99,-69.61 48.39,-71.04 47.65,-72.5 46.87,-73.97 46.23,-75.48 45.86,-76.98 45.72,-78.37 45.45,-79.63 44.36,-80.72" fill="none" stroke="rgb(134, 19, 43)" stroke-width="2" stroke-linejoin="round" filter="url(#fuzzy)" /><polyline points="54.25,-52.75 54.63,-52.41 54.21,-53.2 53.74,-54.4 53.52,-55.92 53.58,-57.78 53.71,-59.84 53.68,-61.85 53.38,-63.59 52.85,-65.03 52.23,-66.26 51.64,-67.44 51.15,-68.71 50.73,-70.13 50.3,-71.7 49.8,-73.33 49.17,-74.96 48.49,-76.53 47.87,-78.11 47.48,-79.82 47.33,-81.76 47.22,-83.92 46.87,-86.16 46.3,-88.43 46.49,-91.26 53.81,-53.18 54.09,-52.92 54.67,-52.38 55.3,-51.74 55.98,-50.83 56.68,-49.71 57.35,-48.5 58,-47.35 58.64,-46.32 59.32,-45.4 60.05,-44.54 60.84,-43.68 61.64,-42.76 62.43,-41.76 63.13,-40.72 63.72,-39.69 64.18,-38.71 64.57,-37.77 65.02,-36.82 65.72,-35.85 66.96,-34.67" fill="none" stroke="rgb(134, 19, 43)" stroke-width="2" stroke-linejoin="round" filter="url(#fuzzy)" /><polyline points="51.73,-56.83 52.37,-56.21 53.11,-55.85 54.05,-55.29 55.23,-54.85 56.61,-54.63 58.14,-54.51 59.69,-54.27 61.11,-53.75 62.22,-52.88 62.99,-51.74 63.49,-50.48 63.94,-49.27 64.55,-48.23 65.48,-47.38 66.78,-46.68 68.38,-46.01 70.06,-45.22 71.6,-44.28 73.2,-44.29 51.73,-56.83 50.54,-58.25 49.37,-59.52 48.37,-60.36 47.56,-61.03 46.87,-61.7 46.2,-62.41 45.47,-63.16 44.65,-63.97 43.74,-64.8 42.79,-65.63 41.84,-66.41 40.95,-67.14 40.14,-67.82 39.35,-68.48 38.54,-69.13 37.65,-69.77 36.67,-70.38 35.65,-70.91 34.62,-71.33 33.57,-71.7 32.43,-72.18 31.31,-72.89 70.64,-47.83 69.6,-47.44 68,-47.88 66.71,-48.54 65.73,-49.26 64.87,-50.04 64.07,-50.96 63.28,-52.03 62.46,-53.21 61.53,-54.31 60.4,-55.12 59.06,-55.53 57.58,-55.68 56.21,-55.92 55.21,-56.57 54.58,-57.46 53.79,-57.73 51.73,-56.83 48.31,-61.43 48.06,-58.86 48.68,-56.91 49.24,-55.32 49.66,-53.96 50.12,-52.86 50.73,-51.98 51.41,-51.21 51.99,-50.35 52.39,-49.3 52.6,-48.02 52.73,-46.58 52.85,-45.11 53.04,-43.73 53.3,-42.48 53.6,-41.35 53.91,-40.28 54.18,-39.19 54.4,-38.01 54.59,-36.76 54.71,-35.46 54.68,-34.17 54.41,-32.94 53.95,-31.71 53.76,-30.12" fill="none" stroke="rgb(134, 19, 43)" stroke-width="2" stroke-linejoin="round" filter="url(#fuzzy)" /><polyline points="47.97,-61.75 50.07,-66.01 49.05,-66.32 47.9,-66.67 47.02,-67.64 46.26,-68.98 45.51,-70.38 44.76,-71.67 44.02,-72.78 43.29,-73.76 42.55,-74.69 41.79,-75.69 41.03,-76.84 40.31,-78.19 39.65,-79.73 39.04,-81.42 38.49,-83.22 37.96,-85.05 37.44,-86.87 36.93,-88.63 36.39,-90.36 35.74,-92.18 34.87,-94.1 33.66,-95.91 32.4,-97.73" fill="none" stroke="rgb(134, 19, 43)" stroke-width="2" stroke-linejoin="round" filter="url(#fuzzy)" /><polyline points="29.15,-70.02 30.36,-70.42 31.64,-70.5 32.83,-70.38 33.91,-70.14 34.94,-69.79 35.95,-69.31 36.92,-68.74 37.85,-68.18 38.73,-67.72 39.58,-67.35 40.44,-66.95 41.34,-66.34 42.31,-65.47 43.36,-64.51 44.46,-63.76 45.66,-63.5 46.78,-63.41 45.34,-64.98 45.05,-64.32 45.24,-63.23 45.79,-62.43 46.43,-61.77 47.04,-61.05 47.55,-60.07 47.96,-58.78 48.28,-57.21 48.56,-55.56 48.82,-54 49.08,-52.6 49.31,-51.29 49.45,-49.96 49.51,-48.62 49.54,-47.53 49.65,-46.88 50.01,-45.98 41.08,-69.6 40.28,-70.2 39.24,-71.13 38.19,-72.06 37.2,-72.88 36.25,-73.59 35.32,-74.25 34.38,-74.87 33.45,-75.46 32.56,-76.02 31.71,-76.57 30.85,-77.13 29.94,-77.72 28.97,-78.33 28.02,-78.88 27.27,-79.22 26.88,-79.31 26.71,-79.43" fill="none" stroke="rgb(134, 19, 43)" stroke-width="2" stroke-linejoin="round" filter="url(#fuzzy)" /><polyline points="26.62,-111.84 27.77,-109.53 28.36,-106.3 29.2,-103.66 30.31,-101.93 31.39,-100.72 32.21,-99.5 32.74,-97.99 33.13,-96.22 33.53,-94.34 34.01,-92.45 34.54,-90.57 35.05,-88.64 35.5,-86.64 35.88,-84.56 36.26,-82.48 36.73,-80.59 37.37,-79.04 38.13,-77.83 38.89,-76.62 39.43,-74.83 39.79,-72.24 40.57,-69.97" fill="none" stroke="rgb(134, 19, 43)" stroke-width="2" stroke-linejoin="round" filter="url(#fuzzy)" /><polyline points="40.57,-69.97 42.4,-72.25 43.14,-72.38 44.46,-72.6 46.17,-72.77 47.93,-72.71 49.64,-72.59 51.24,-72.5 52.61,-72.3 53.62,-71.75 54.3,-70.76 54.91,-69.53 55.8,-68.45 57.31,-67.87 59.53,-68 62.29,-68.77 65.21,-69.79 67.83,-70.53 69.83,-70.52 71.2,-69.81 72.11,-69.16 72.37,-70.37" fill="none" stroke="rgb(134, 19, 43)" stroke-width="2" stroke-linejoin="round" filter="url(#fuzzy)" /><polyline points="35.51,-74.33 35.76,-75.95 34.78,-76.59 33.79,-77.3 33.08,-78.4 32.51,-79.77 31.93,-81.16 31.24,-82.33 30.46,-83.24 29.7,-83.98 28.98,-84.67 28.29,-85.39 27.55,-86.15 26.71,-86.96 25.78,-87.88 24.78,-88.96 23.79,-90.19 22.82,-91.49 21.85,-92.72 20.9,-93.82 20.03,-94.91 19.36,-96.21 18.92,-97.72 17.91,-98.73" fill="none" stroke="rgb(134, 19, 43)" stroke-width="2" stroke-linejoin="round" filter="url(#fuzzy)" /><polyline points="33.82,-75.69 33.01,-76.43 32.38,-77.21 31.76,-78.03 31,-78.79 30.11,-79.48 29.22,-80.1 28.43,-80.7 27.75,-81.31 27.1,-81.95 26.4,-82.63 25.58,-83.35 24.64,-84.09 23.61,-84.81 22.54,-85.49 21.47,-86.1 20.42,-86.69 19.44,-87.34 18.56,-88.08 17.86,-88.86 17.33,-89.56 16.4,-90.42 33.82,-75.69 35.55,-75.57 37.16,-76.37 38.46,-76.52 39.46,-75.84 40.49,-75.07 41.84,-74.99 43.65,-75.89 45.8,-77.49 48.09,-79.15 50.33,-80.29 52.42,-80.71 54.42,-80.69 56.43,-80.76 58.45,-81.15 60.18,-81.36 61.09,-80.5" fill="none" stroke="rgb(134, 19, 43)" stroke-width="2" stroke-linejoin="round" filter="url(#fuzzy)" /><polyline points="42.88,-54.53 43.38,-56.04 43.45,-57.34 43.27,-58.53 42.94,-59.73 42.5,-61 41.93,-62.32 41.27,-63.57 40.56,-64.69 39.89,-65.69 39.3,-66.65 38.79,-67.68 38.29,-68.85 37.74,-70.14 37.13,-71.46 36.46,-72.67 35.72,-73.7 34.88,-74.57 33.88,-75.46 32.79,-76.33 32.79,-76.33 34.3,-76.36 35.65,-76.22 36.59,-75.57 37.45,-74.74 38.4,-73.99 39.47,-73.38 40.55,-72.93 41.57,-72.62 42.54,-72.41 43.51,-72.18 44.6,-71.76 45.83,-71.04 47.16,-70.16 48.46,-69.49 49.84,-69.08 32.05,-76.98 31.68,-77.85 31.03,-78.79 30.05,-79.51 29.05,-80.05 28.23,-80.57 27.6,-81.23 27.08,-82.14 26.52,-83.27 25.83,-84.47 24.98,-85.58 23.99,-86.51 22.93,-87.32 21.88,-88.13 20.89,-89.03 19.98,-90.01 19.15,-90.98 18.41,-91.9 17.73,-92.84 16.9,-93.9 15.67,-95.04" fill="none" stroke="rgb(134, 19, 43)" stroke-width="2" stroke-linejoin="round" filter="url(#fuzzy)" /><polyline points="31.33,-77.35 33.62,-82.22 33.9,-81.09 34.37,-79.65 35.43,-79.12 36.94,-79.45 38.76,-80.35 40.73,-81.49 42.68,-82.45 44.39,-82.89 45.74,-82.68 46.74,-82.05 47.62,-81.51 48.79,-81.59 50.65,-82.37 53.24,-82.83 55.85,-80.04" fill="none" stroke="rgb(134, 19, 43)" stroke-width="2" stroke-linejoin="round" filter="url(#fuzzy)" /><polyline points="31.33,-77.35 31.51,-77 31.91,-76.2 32.56,-75.3 33.35,-74.41 34.2,-73.53 35.06,-72.67 35.94,-71.85 36.84,-71.06 37.73,-70.3 38.57,-69.56 39.34,-68.81 40.05,-68.03 40.73,-67.16 41.42,-66.15 42.14,-65.01 42.85,-63.78 43.49,-62.51 44,-61.26 44.38,-60.07 44.7,-59 44.99,-58.12 45.1,-57.35" fill="none" stroke="rgb(134, 19, 43)" stroke-width="2" stroke-linejoin="round" filter="url(#fuzzy)" /><polyline points="8.64,-76.4 9.7,-76.22 10.81,-76.25 11.87,-76.5 12.88,-77.02 13.86,-77.74 14.81,-78.47 15.72,-79.02 16.61,-79.29 17.51,-79.27 18.44,-79.08 19.43,-78.84 20.48,-78.61 21.59,-78.42 22.73,-78.27 23.88,-78.23 24.97,-78.39 25.92,-78.72 26.66,-79.06 27.29,-79.23 28.1,-79.17 29.32,-78.71" fill="none" stroke="rgb(134, 19, 43)" stroke-width="2" stroke-linejoin="round" filter="url(#fuzzy)" /><polyline points="29.32,-78.71 30.67,-77.89 31.55,-77.59 32.38,-77.29 33.25,-76.83 34.18,-76.24 35.16,-75.6 36.16,-74.97 37.21,-74.38 38.27,-73.82 39.33,-73.29 40.36,-72.78 41.36,-72.31 42.34,-71.83 43.33,-71.31 44.35,-70.68 45.41,-69.94 46.48,-69.11 47.5,-68.25 48.45,-67.44 49.32,-66.74 50.14,-66.18 50.93,-65.78 51.72,-65.54 52.62,-65.42" fill="none" stroke="rgb(134, 19, 43)" stroke-width="2" stroke-linejoin="round" filter="url(#fuzzy)" /><polyline points="22.56,-82.37 22.75,-85.77 22.57,-88.78 21.67,-89.67 20.51,-89.58 19.46,-89.73 18.64,-90.58 17.97,-91.98 17.34,-93.69 16.66,-95.59 15.89,-97.6 14.97,-99.53 13.85,-101.17 12.54,-102.61 11.13,-104.47 9.8,-107.36 8.68,-110.72 7.95,-112.21" fill="none" stroke="rgb(134, 19, 43)" stroke-width="2" stroke-linejoin="round" filter="url(#fuzzy)" /><polyline points="21.94,-82.56 22.75,-81.1 23.77,-79.49 24.66,-78.42 25.32,-77.63 25.88,-77.04 26.48,-76.6 27.2,-76.2 27.99,-75.73 28.79,-75.09 29.54,-74.29 30.22,-73.35 30.85,-72.31 31.48,-71.24 32.14,-70.19 32.85,-69.21 33.59,-68.27 34.33,-67.29 35.06,-66.2 35.77,-65.03 36.4,-63.9 36.69,-62.9 36.42,-62.15" fill="none" stroke="rgb(134, 19, 43)" stroke-width="2" stroke-linejoin="round" filter="url(#fuzzy)" /><polyline points="54.3,-92 52.2,-90.96 49.89,-90.36 47.53,-89.59 45.56,-89.26 44.05,-89.54 42.76,-90.08 41.44,-90.41 39.99,-90.29 38.42,-89.76 36.81,-89.01 35.19,-88.16 33.6,-87.31 32.07,-86.5 30.7,-85.87 29.59,-85.57 28.73,-85.69 28,-86.11 27.1,-86.41 25.77,-86 23.99,-84.65 22.3,-83.13 21.39,-82.6 19.88,-83.5 21.11,-83.16 22.16,-82.88 23.28,-82.44 24.42,-81.99 25.47,-81.63 26.38,-81.41 27.2,-81.26 28.02,-81.13 28.89,-80.98 29.84,-80.78 30.85,-80.52 31.87,-80.2 32.86,-79.79 33.81,-79.29 34.76,-78.71 35.75,-78.12 36.79,-77.57 37.91,-77.1 39.09,-76.68 40.34,-76.2 41.65,-75.58 42.96,-74.9 44.04,-74.62 17.36,-84.48 15.83,-85.04 14.81,-86.32 14.03,-88.57 13.25,-91.53 12.35,-94.63 11.31,-97.42 10.19,-99.67 9.09,-101.21 8.08,-102.05 7.18,-102.45 6.32,-103.02 5.39,-104.39 4.22,-106.95 2.59,-110.67 -0.19,-114.77 15.38,-84.78 16.27,-84.07 16.75,-83.37 17.46,-82.98 18.36,-82.74 19.35,-82.48 20.35,-82.08 21.36,-81.52 22.35,-80.79 23.31,-79.91 24.18,-78.93 24.9,-77.95 25.42,-77.08 25.77,-76.39 26.08,-75.73 26.51,-74.73 27.19,-72.99" fill="none" stroke="rgb(134, 19, 43)" stroke-width="2" stroke-linejoin="round" filter="url(#fuzzy)" /><polyline points="10.91,-86.28 12.3,-86.1 13.52,-86.41 14.69,-87.2 15.81,-88.07 16.81,-88.58 17.73,-88.66 18.66,-88.56 19.72,-88.62 20.95,-89.03 22.36,-89.79 23.86,-90.7 25.41,-91.55 26.93,-92.23 28.39,-92.83 29.79,-93.5 31.12,-94.33 32.42,-95.29 33.79,-96.28 35.33,-97.2 37.06,-97.95 38.74,-98.33 40,-98.28 41.4,-99.44" fill="none" stroke="rgb(134, 19, 43)" stroke-width="2" stroke-linejoin="round" filter="url(#fuzzy)" /><polyline points="9.76,-86.27 8.35,-88.12 7.36,-89.42 6.59,-89.68 5.86,-89.7 5.04,-89.83 4.09,-90.16 3.03,-90.74 1.93,-91.63 0.85,-92.81 -0.19,-94.2 -1.22,-95.65 -2.27,-97.12 -3.34,-98.58 -4.4,-100.02 -5.48,-101.28 -6.85,-102.22 -8.96,-102.17 7.9,-86.7 9.67,-87.95 11.36,-89.98 12.78,-90.9 13.93,-90.76 14.94,-90.22 15.91,-89.9 16.92,-90.1 18.04,-90.84 19.26,-91.93 20.56,-93.09 21.94,-94.11 23.39,-94.95 24.9,-95.67 26.49,-96.32 28.13,-96.93 29.77,-97.51 31.3,-98.15 32.6,-98.92 33.56,-99.79 34.46,-101.06 36.22,-103.17" fill="none" stroke="rgb(134, 19, 43)" stroke-width="2" stroke-linejoin="round" filter="url(#fuzzy)" /><polyline points="5.75,-86.8 5.08,-88.68 4,-90.45 2.81,-91.81 1.66,-92.85 0.59,-93.48 -0.43,-93.68 -1.45,-93.72 -2.5,-93.9 -3.61,-94.4 -4.8,-95.17 -6.08,-96.01 -7.43,-96.69 -8.81,-97.16 -10.17,-97.5 -11.47,-97.92 -12.71,-98.56 -13.91,-99.41 -15.07,-100.36 -16.24,-101.34 -17.83,-102.17 -21.41,-101.99 3.5,-87.14 4.88,-87.96 5.66,-88.17 6.35,-88.12 7.16,-88.03 8.17,-87.88 9.33,-87.66 10.56,-87.42 11.79,-87.25 12.98,-87.19 14.11,-87.22 15.15,-87.34 16.14,-87.52 17.08,-87.76 18.04,-88.06 19.06,-88.39 20.17,-88.66 21.38,-88.75 22.61,-88.67 23.58,-88.75" fill="none" stroke="rgb(134, 19, 43)" stroke-width="2" stroke-linejoin="round" filter="url(#fuzzy)" /><polyline points="3.5,-87.14 4.82,-87.11 5.63,-87.5 6.36,-88 7.23,-88.46 8.31,-88.82 9.52,-88.98 10.78,-88.95 12.02,-88.79 13.22,-88.65 14.36,-88.65 15.45,-88.85 16.48,-89.2 17.48,-89.56 18.44,-89.79 19.42,-89.83 20.46,-89.68 21.57,-89.49 22.75,-89.49 23.88,-89.92 24.73,-90.27 3.13,-87.09 1.23,-87.8 0.26,-88.37 -0.59,-88.51 -1.5,-88.54 -2.47,-88.66 -3.48,-88.85 -4.55,-89.04 -5.71,-89.19 -6.95,-89.33 -8.24,-89.54 -9.49,-89.88 -10.68,-90.37 -11.8,-90.93 -12.86,-91.41 -13.87,-91.69 -14.92,-91.76 -16.19,-91.83 -17.86,-92.16 -19.06,-93.21" fill="none" stroke="rgb(134, 19, 43)" stroke-width="2" stroke-linejoin="round" filter="url(#fuzzy)" /><polyline points="-7.62,-86.86 -4.82,-87.14 -2.94,-87.23 -1.09,-87.22 1.05,-87.14 3.57,-87 6.45,-86.79 9.56,-86.5 12.78,-86.13 15.99,-85.68 19.1,-85.17 22.05,-84.59 24.85,-83.94 27.49,-83.24 30.04,-82.47 32.61,-81.64 35.3,-80.75 38.25,-79.78 41.51,-78.73 45.04,-77.59 48.73,-76.35 52.47,-75.02 56.18,-73.61 59.88,-72.12 63.72,-70.55 67.82,-68.91 72.23,-67.21 76.85,-65.44 81.55,-63.61 86.26,-61.7 91.1,-59.69 96.26,-57.59 101.75,-55.45 107.08,-53.35 111.42,-51.4 114.4,-49.45 119.29,-46.5" fill="none" stroke="rgb(134, 19, 43)" stroke-width="2" stroke-linejoin="round" filter="url(#fuzzy)" /><polyline points="-7.62,-86.86 -4.8,-87.14 -2.92,-87.23 -1.14,-87.22 0.81,-87.15 2.97,-87.01 5.27,-86.8 7.68,-86.51 10.12,-86.15 12.56,-85.71 14.94,-85.2 17.21,-84.63 19.39,-83.99 21.49,-83.29 23.58,-82.53 25.71,-81.72 27.93,-80.84 30.26,-79.89 32.69,-78.85 35.19,-77.73 37.71,-76.51 40.25,-75.2 42.8,-73.79 45.42,-72.31 48.17,-70.76 51.09,-69.13 54.16,-67.44 57.3,-65.7 60.43,-63.93 63.43,-62.13 66.27,-60.19 69.15,-57.88 72.5,-55.18" fill="none" stroke="rgb(134, 19, 43)" stroke-width="2" stroke-linejoin="round" filter="url(#fuzzy)" /><polyline points="-10.81,-86.02 -7.74,-86.66 -5.23,-87 -3.17,-87.15 -1.17,-87.18 1.04,-87.11 3.55,-86.98 6.37,-86.77 9.41,-86.48 12.58,-86.12 15.8,-85.69 19.04,-85.18 22.3,-84.6 25.58,-83.96 28.89,-83.26 32.2,-82.5 35.51,-81.68 38.84,-80.79 42.27,-79.83 45.89,-78.79 49.74,-77.66 53.78,-76.43 57.9,-75.11 62,-73.71 66.05,-72.22 70.15,-70.66 74.47,-69.03 79.14,-67.33 84.12,-65.58 89.2,-63.77 94.22,-61.88 99.27,-59.88 104.6,-57.71 110.28,-55.39 116.47,-53.07 123.38,-50.85" fill="none" stroke="rgb(134, 19, 43)" stroke-width="2" stroke-linejoin="round" filter="url(#fuzzy)" /><polyline points="67.17,-15.1 77.36,-12.03 75.53,-9.22 73.28,-6.61 73.27,-4.14 75.5,-1.7 79.06,0.78 82.81,3.34 85.92,5.97 88.19,8.64 89.94,11.3 91.71,13.9 93.9,16.44 96.6,18.93 99.58,21.4 102.44,23.87 104.77,26.34 106.33,28.82 107.14,31.3 107.43,33.78 107.54,36.26 107.7,38.7 107.96,41.1 108.24,43.49 108.5,45.98 108.98,48.7 109.85,51.61" fill="none" stroke="rgb(134, 19, 43)" stroke-width="2" stroke-linejoin="round" filter="url(#fuzzy)" /><polyline points="-25.46,-80.67 -23.75,-81.65 -22.07,-82.47 -20.51,-83.16 -18.9,-83.78 -17.14,-84.38 -15.2,-84.96 -13.11,-85.49 -10.93,-85.96 -8.7,-86.35 -6.46,-86.66 -4.21,-86.87 -1.92,-86.99 0.43,-87.01 2.88,-86.95 5.46,-86.8 8.17,-86.58 11.04,-86.28 14.04,-85.9 17.16,-85.45 20.35,-84.93 23.57,-84.35 26.81,-83.71 30.15,-82.99 33.67,-82.19 37.19,-81.34 39.87,-80.62 40.48,-80.4" fill="none" stroke="rgb(134, 19, 43)" stroke-width="2" stroke-linejoin="round" filter="url(#fuzzy)" /><polyline points="-28.14,-79.37 -25.62,-80.8 -23.65,-81.84 -21.86,-82.73 -20.02,-83.55 -18.08,-84.28 -16.07,-84.92 -14.01,-85.45 -11.91,-85.89 -9.73,-86.25 -7.46,-86.53 -5.13,-86.73 -2.75,-86.86 -0.38,-86.91 1.97,-86.88 4.29,-86.77 6.6,-86.59 8.91,-86.34 11.25,-86 13.61,-85.59 16.02,-85.11 18.46,-84.55 20.95,-83.91 23.48,-83.2 26.03,-82.42 28.58,-81.56 31.08,-80.65 33.48,-79.7 35.77,-78.71 37.96,-77.69 40.17,-76.61 42.56,-75.47 45.28,-74.24 48.63,-72.88" fill="none" stroke="rgb(134, 19, 43)" stroke-width="2" stroke-linejoin="round" filter="url(#fuzzy)" /><polyline points="-30.77,-77.68 -28.98,-79.09 -27.61,-80 -26.11,-80.9 -24.38,-81.79 -22.45,-82.65 -20.37,-83.45 -18.19,-84.18 -15.98,-84.82 -13.77,-85.37 -11.56,-85.82 -9.35,-86.19 -7.12,-86.48 -4.89,-86.69 -2.65,-86.83 -0.41,-86.88 1.82,-86.86 4.03,-86.77 6.24,-86.59 8.47,-86.34 10.73,-86.02 13.02,-85.61 15.34,-85.13 17.68,-84.58 20.01,-83.95 22.33,-83.25 24.61,-82.46 26.83,-81.61 28.97,-80.7 31.03,-79.75 33.08,-78.77 35.19,-77.75 37.36,-76.69 39.47,-75.57 41.46,-74.33" fill="none" stroke="rgb(134, 19, 43)" stroke-width="2" stroke-linejoin="round" filter="url(#fuzzy)" /><polyline points="-30.77,-77.68 -28.9,-79.08 -27.71,-79.98 -26.82,-80.86 -26.08,-81.74 -25.21,-82.6 -23.97,-83.4 -22.3,-84.14 -20.27,-84.8 -17.98,-85.36 -15.49,-85.83 -12.83,-86.21 -10.02,-86.52 -7.08,-86.76 -4.02,-86.92 -0.89,-87.01 2.28,-87.02 5.48,-86.96 8.75,-86.84 12.21,-86.65 16.12,-86.37 20.67,-85.96 25.73,-85.39 29.89,-84.78" fill="none" stroke="rgb(134, 19, 43)" stroke-width="2" stroke-linejoin="round" filter="url(#fuzzy)" /><polyline points="-34.98,-74.95 -32.91,-76.33 -31.06,-77.64 -29.75,-78.79 -28.91,-79.82 -28.15,-80.77 -27.07,-81.67 -25.51,-82.53 -23.59,-83.33 -21.54,-84.07 -19.51,-84.73 -17.49,-85.3 -15.36,-85.77 -12.98,-86.17 -10.28,-86.48 -7.29,-86.72 -4.11,-86.88 -0.88,-86.97 2.34,-86.98 5.56,-86.91 8.83,-86.78 12.25,-86.57 15.85,-86.27 19.59,-85.89 23.27,-85.43 26.64,-84.96 29.73,-84.53 34.34,-84.04" fill="none" stroke="rgb(134, 19, 43)" stroke-width="2" stroke-linejoin="round" filter="url(#fuzzy)" /><polyline points="-34.98,-74.95 -34.95,-76.32 -32.55,-77.64 -30.18,-78.79 -28.21,-79.81 -26.44,-80.76 -24.68,-81.66 -22.79,-82.52 -20.78,-83.33 -18.69,-84.07 -16.56,-84.73 -14.42,-85.3 -12.27,-85.77 -10.09,-86.17 -7.85,-86.49 -5.54,-86.73 -3.19,-86.89 -0.84,-86.98 1.49,-86.99 3.77,-86.94 6.05,-86.81 8.37,-86.6 10.82,-86.31 13.42,-85.92 15.97,-85.44 18.02,-84.97 18.97,-84.71" fill="none" stroke="rgb(134, 19, 43)" stroke-width="2" stroke-linejoin="round" filter="url(#fuzzy)" /><polyline points="-37.2,-73.24 -35.87,-74.04 -34,-75.11 -31.56,-76.31 -28.72,-77.52 -25.72,-78.65 -22.8,-79.7 -20.16,-80.67 -17.88,-81.59 -15.93,-82.46 -14.19,-83.27 -12.57,-84.01 -10.99,-84.67 -9.41,-85.24 -7.83,-85.72 -6.26,-86.13 -4.72,-86.45 -3.27,-86.69 -1.95,-86.85 -0.78,-86.94 0.24,-86.95 1.17,-86.88 2.03,-86.75 2.84,-86.53 3.57,-86.23 4.14,-85.85 4.44,-85.41 4.48,-84.91 4.42,-84.37 4.61,-83.69 5.21,-82.6" fill="none" stroke="rgb(134, 19, 43)" stroke-width="2" stroke-linejoin="round" filter="url(#fuzzy)" /><polyline points="-37.2,-73.24 -39.09,-74.04 -37.6,-75.1 -35.04,-76.3 -32.56,-77.5 -30.46,-78.63 -28.65,-79.68 -26.95,-80.65 -25.21,-81.57 -23.35,-82.44 -21.33,-83.25 -19.19,-84 -16.96,-84.66 -14.7,-85.24 -12.45,-85.73 -10.21,-86.14 -7.94,-86.47 -5.63,-86.72 -3.25,-86.89 -0.84,-86.99 1.56,-87.01 3.89,-86.96 6.16,-86.84 8.44,-86.65 10.88,-86.37 13.65,-85.96 16.69,-85.39 19.43,-84.78" fill="none" stroke="rgb(134, 19, 43)" stroke-width="2" stroke-linejoin="round" filter="url(#fuzzy)" /><polyline points="-40.34,-70.15 -38.51,-71.44 -36.93,-72.7 -35.12,-73.98 -32.99,-75.3 -30.68,-76.63 -28.36,-77.91 -26.15,-79.11 -24.08,-80.19 -22.16,-81.16 -20.35,-82.03 -18.6,-82.81 -16.87,-83.52 -15.12,-84.16 -13.3,-84.76 -11.43,-85.3 -9.51,-85.78 -7.57,-86.19 -5.67,-86.52 -3.82,-86.76 -2.04,-86.91 -0.32,-86.97 1.34,-86.93 2.98,-86.81 4.61,-86.61 6.23,-86.33 7.85,-85.97 9.44,-85.53 10.94,-85.03 12.25,-84.46 13.34,-83.85 14.26,-83.15 15.28,-82.3 16.81,-81.14" fill="none" stroke="rgb(134, 19, 43)" stroke-width="2" stroke-linejoin="round" filter="url(#fuzzy)" /><polyline points="-49.44,-60.12 -50.05,-62.26 -50.8,-64.35 -49.81,-66.14 -47.7,-67.78 -45.59,-69.34 -44.02,-70.85 -42.91,-72.29 -41.91,-73.69 -40.74,-75.05 -39.3,-76.37 -37.66,-77.63 -35.98,-78.83 -34.37,-79.93 -32.87,-80.93 -31.36,-81.83 -29.71,-82.65 -27.74,-83.38 -25.37,-84.05 -22.6,-84.67 -19.53,-85.23 -16.28,-85.73 -13.01,-86.17 -9.78,-86.54 -6.65,-86.81 -3.57,-86.99 -0.48,-87.07 2.74,-87.05 6.16,-86.96 9.83,-86.79 13.74,-86.53 17.9,-86.19 22.23,-85.78 26.1,-85.4" fill="none" stroke="rgb(134, 19, 43)" stroke-width="2" stroke-linejoin="round" filter="url(#fuzzy)" /><polyline points="-49.19,-60.49 -48.23,-61.75 -47.35,-63.48 -46.85,-65.15 -46.36,-66.76 -45.67,-68.36 -44.77,-69.97 -43.66,-71.54 -42.32,-73.05 -40.71,-74.48 -38.84,-75.82 -36.81,-77.07 -34.73,-78.23 -32.69,-79.32 -30.72,-80.35 -28.79,-81.3 -26.83,-82.21 -24.77,-83.05 -22.57,-83.83 -20.27,-84.54 -17.9,-85.16 -15.53,-85.69 -13.17,-86.13 -10.75,-86.5 -8.12,-86.79 -5.17,-87.01 -1.87,-87.16 1.59,-87.21 4.96,-87.09" fill="none" stroke="rgb(134, 19, 43)" stroke-width="2" stroke-linejoin="round" filter="url(#fuzzy)" /><polyline points="-49.19,-60.49 -55.99,-61.76 -54.88,-63.49 -51.78,-65.17 -48.68,-66.79 -46.01,-68.39 -43.81,-70 -41.97,-71.57 -40.44,-73.09 -39.17,-74.51 -38.13,-75.85 -37.27,-77.09 -36.44,-78.26 -35.48,-79.35 -34.24,-80.37 -32.62,-81.33 -30.61,-82.23 -28.25,-83.06 -25.63,-83.83 -22.85,-84.52 -19.99,-85.13 -17.12,-85.65 -14.23,-86.09 -11.26,-86.45 -8.14,-86.72 -4.86,-86.92 -1.44,-87.04 1.99,-87.07 5.31,-87.03 8.38,-86.93 11.21,-86.81 14.26,-86.7" fill="none" stroke="rgb(134, 19, 43)" stroke-width="2" stroke-linejoin="round" filter="url(#fuzzy)" /><polyline points="-51.88,-56.37 -50.86,-58.22 -50.56,-60.16 -50.73,-62.17 -50.88,-64.09 -50.91,-65.89 -50.77,-67.58 -50.28,-69.17 -49.22,-70.69 -47.57,-72.15 -45.5,-73.56 -43.34,-74.93 -41.35,-76.25 -39.61,-77.52 -38.04,-78.72 -36.43,-79.84 -34.59,-80.85 -32.43,-81.77 -30.01,-82.59 -27.45,-83.34 -24.87,-84.02 -22.31,-84.64 -19.72,-85.22 -16.97,-85.75 -13.98,-86.22 -10.76,-86.61 -7.47,-86.91 -4.28,-87.11 -1.22,-87.19 2.02,-87.17 5.89,-87.05 10.22,-86.8" fill="none" stroke="rgb(134, 19, 43)" stroke-width="2" stroke-linejoin="round" filter="url(#fuzzy)" /><polyline points="-52.67,-55.67 -47.7,-58.19 -46.96,-60.05 -46.23,-61.75 -44.73,-63.42 -42.7,-65.07 -40.49,-66.7 -38.3,-68.32 -36.2,-69.92 -34.22,-71.49 -32.37,-73 -30.63,-74.42 -28.96,-75.77 -27.31,-77.03 -25.64,-78.2 -23.93,-79.3 -22.15,-80.33 -20.29,-81.29 -18.34,-82.19 -16.3,-83.03 -14.2,-83.79 -12.1,-84.48 -10.05,-85.09 -8.12,-85.61 -6.33,-86.05 -4.7,-86.4 -3.22,-86.68 -1.86,-86.87 -0.61,-86.98 0.54,-87.02 1.6,-86.98 2.56,-86.87 3.43,-86.71 4.27,-86.46 5.13,-86.05 6.08,-85.34" fill="none" stroke="rgb(134, 19, 43)" stroke-width="2" stroke-linejoin="round" filter="url(#fuzzy)" /><polyline points="-54.24,-52.83 -55.82,-51.69 -59.29,-49.75 -62.03,-47.33 -63.77,-44.75 -65.26,-42.16 -66.98,-39.64 -68.9,-37.2 -70.78,-34.83 -72.43,-32.49 -73.77,-30.13 -74.85,-27.74 -75.82,-25.26 -76.85,-22.69 -78.08,-20.05 -79.57,-17.37 -81.32,-14.71 -83.25,-12.11 -85.23,-9.58 -87.13,-7.08 -88.86,-4.57 -90.36,-1.98 -91.61,0.7 -92.64,3.45 -93.5,6.21 -94.25,8.9 -95.01,11.48 -95.93,13.97 -97.19,16.43 -98.91,18.95 -101,21.53 -103.13,24.06 -105.69,26.21" fill="none" stroke="rgb(134, 19, 43)" stroke-width="2" stroke-linejoin="round" filter="url(#fuzzy)" /><polyline points="65.79,-22.37 58.89,-18.88 57.13,-15.98 58.23,-13.24 59.04,-10.62 58.33,-8.06 56.14,-5.51 53.16,-2.95 50.32,-0.34 48.38,2.29 47.76,4.96 48.41,7.63 49.98,10.27 51.93,12.86 53.71,15.41 54.92,17.92 55.31,20.42 54.76,22.93 53.34,25.46 51.22,27.98 48.66,30.47 45.93,32.9 43.26,35.27 40.77,37.59 38.51,39.91 36.47,42.25 34.66,44.62 33.12,47 31.86,49.37 30.45,51.84 27.95,54.51" fill="none" stroke="rgb(134, 19, 43)" stroke-width="2" stroke-linejoin="round" filter="url(#fuzzy)" /><polyline points="-55.25,-50.8 -56.97,-47.77 -58.49,-45.22 -60.33,-42.85 -62.77,-40.51 -65.64,-38.17 -68.55,-35.83 -71.23,-33.51 -73.66,-31.21 -75.93,-28.9 -78.06,-26.54 -79.99,-24.08 -81.64,-21.52 -83.03,-18.86 -84.3,-16.13 -85.6,-13.36 -87.03,-10.58 -88.65,-7.82 -90.45,-5.11 -92.48,-2.46 -94.79,0.13 -97.43,2.65 -100.4,5.13 -103.57,7.61 -106.72,10.1 -109.56,12.62 -111.84,15.18 -113.47,17.78 -114.53,20.4 -115.27,23.04 -116,25.71 -116.92,28.38 -117.94,31.05 -118.78,33.68 -119.32,36.23 -120.14,38.65 -122.29,40.73 -125.51,41.79" fill="none" stroke="rgb(134, 19, 43)" stroke-width="2" stroke-linejoin="round" filter="url(#fuzzy)" /><polyline points="-59.2,-43.54 -61.58,-40.46 -64.05,-38.03 -65.61,-35.66 -66.43,-33.33 -66.94,-31.07 -67.55,-28.83 -68.48,-26.54 -69.93,-24.12 -72.05,-21.56 -74.92,-18.89 -78.46,-16.14 -82.34,-13.35 -86.15,-10.56 -89.51,-7.8 -92.27,-5.09 -94.56,-2.44 -96.72,0.12 -99.03,2.61 -101.65,5.04 -104.5,7.46 -107.34,9.91 -109.81,12.42 -111.5,14.98 -112.09,17.57 -111.54,20.15 -110.41,22.76 -109.8,25.44 -110.51,28.21 -111.92,30.86 -113.5,32.72" fill="none" stroke="rgb(134, 19, 43)" stroke-width="2" stroke-linejoin="round" filter="url(#fuzzy)" /><polyline points="65.37,-24.54 68.78,-21.87 69.26,-18.95 69.19,-16.09 69.37,-13.34 69.77,-10.69 70.14,-8.1 70.33,-5.53 70.32,-2.94 70.21,-0.33 70.09,2.32 70.03,4.99 70.05,7.66 70.14,10.3 70.25,12.9 70.35,15.46 70.39,17.99 70.36,20.51 70.24,23.03 70.03,25.56 69.71,28.07 69.3,30.55 68.78,32.99 68.15,35.38 67.42,37.74 66.62,40.08 65.78,42.42 64.91,44.76 64.05,47.08 63.24,49.33 62.52,51.46 61.95,53.42 61.42,55.25 60.45,57.21 58.11,59.9" fill="none" stroke="rgb(134, 19, 43)" stroke-width="2" stroke-linejoin="round" filter="url(#fuzzy)" /><polyline points="61.67,-36.76 62.19,-36.03 63.71,-33.85 65.61,-31.15 67.34,-28.34 68.84,-25.59 70.24,-22.92 71.7,-20.32 73.26,-17.75 74.96,-15.18 76.75,-12.6 78.52,-10.02 80.15,-7.45 81.55,-4.9 82.69,-2.35 83.62,0.21 84.4,2.8 85.17,5.42 86.01,8.06 86.99,10.71 88.07,13.33 89.13,15.9 89.96,18.43 90.38,20.93 90.28,23.42 89.74,25.91 88.97,28.4 88.27,30.9 87.91,33.43 88.01,35.98 88.45,38.49 89.02,40.79 90.37,42.25" fill="none" stroke="rgb(134, 19, 43)" stroke-width="2" stroke-linejoin="round" filter="url(#fuzzy)" /><polyline points="58.93,-43.94 64.08,-42.42 69.94,-40.28 72.67,-37.8 73.23,-35.16 73.27,-32.48 73.81,-29.83 75.2,-27.23 77.47,-24.65 80.49,-22.07 84.03,-19.46 87.75,-16.82 91.28,-14.17 94.26,-11.54 96.53,-8.93 98.18,-6.33 99.49,-3.74 100.83,-1.14 102.43,1.49 104.3,4.15 106.25,6.83 107.99,9.5 109.41,12.12 110.57,14.65 111.7,17.11 113.05,19.55 114.72,22.05 116.75,24.68 119.11,27.41 121.66,29.97 123.64,31.89" fill="none" stroke="rgb(134, 19, 43)" stroke-width="2" stroke-linejoin="round" filter="url(#fuzzy)" /><polyline points="56.17,-48.65 57.77,-46.57 59.61,-44.53 61.05,-42.46 62.19,-40.22 63.53,-37.79 65.6,-35.23 68.6,-32.6 72.27,-29.98 75.98,-27.37 79.11,-24.78 81.4,-22.18 83.04,-19.56 84.56,-16.92 86.51,-14.28 89.22,-11.64 92.71,-9.02 96.67,-6.42 100.63,-3.82 104.11,-1.2 106.78,1.43 108.55,4.09 109.59,6.77 110.26,9.44 110.99,12.07 112.07,14.61 113.59,17.08 115.47,19.53 117.47,22.03 119.22,24.67 120.19,27.4 120.29,29.96 122.04,31.89" fill="none" stroke="rgb(134, 19, 43)" stroke-width="2" stroke-linejoin="round" filter="url(#fuzzy)" /><polyline points="54.25,-52.75 56.22,-49.44 58.23,-46.89 59.82,-44.66 60.93,-42.47 61.74,-40.18 62.48,-37.74 63.25,-35.19 64.08,-32.59 64.92,-29.96 65.76,-27.35 66.58,-24.74 67.41,-22.12 68.24,-19.49 69.07,-16.84 69.86,-14.2 70.58,-11.55 71.19,-8.92 71.66,-6.3 71.98,-3.68 72.14,-1.04 72.16,1.6 72.05,4.26 71.84,6.93 71.55,9.58 71.2,12.2 70.8,14.77 70.39,17.3 69.97,19.82 69.55,22.36 69.13,24.93 68.68,27.51 68.2,30.07 67.72,32.55 67.26,34.89 66.86,37.07 66.44,39.1 65.69,41.4" fill="none" stroke="rgb(134, 19, 43)" stroke-width="2" stroke-linejoin="round" filter="url(#fuzzy)" /><polyline points="47.97,-61.75 49.95,-60.15 51.37,-58.19 52.7,-56.24 54.07,-54.22 55.5,-52.09 56.98,-49.87 58.45,-47.63 59.8,-45.4 60.98,-43.18 61.99,-40.91 62.9,-38.57 63.78,-36.11 64.69,-33.57 65.62,-30.99 66.53,-28.43 67.35,-25.91 68.09,-23.43 68.79,-20.89 69.55,-18.23 70.46,-15.41 71.43,-12.48 72.05,-9.83" fill="none" stroke="rgb(134, 19, 43)" stroke-width="2" stroke-linejoin="round" filter="url(#fuzzy)" /><polyline points="47.3,-62.32 51.58,-60.64 53.11,-58.29 55.67,-55.96 60.36,-53.78 66.56,-51.72 72.71,-49.68 77.37,-47.6 79.96,-45.47 80.94,-43.3 81.33,-41.07 82.2,-38.8 84.13,-36.47 87.14,-34.07 90.78,-31.58 94.4,-29.03 97.49,-26.43 99.82,-23.81 101.47,-21.2 102.73,-18.6 103.93,-16 105.31,-13.41 107,-10.82 109.11,-8.25 111.72,-5.69 114.95,-3.15 118.83,-0.62 123.33,1.94 128.35,4.56 133.77,7.27 139.35,10.06 144.43,12.84 147.78,15.45 148.23,17.62 145.65,19.07" fill="none" stroke="rgb(134, 19, 43)" stroke-width="2" stroke-linejoin="round" filter="url(#fuzzy)" /><polyline points="40.57,-69.97 41.44,-69.33 42.94,-67.86 44.66,-66.03 46.41,-64.13 48.16,-62.25 49.89,-60.37 51.55,-58.46 53.11,-56.51 54.54,-54.48 55.85,-52.37 57.06,-50.2 58.21,-47.99 59.32,-45.77 60.41,-43.53 61.51,-41.25 62.63,-38.9 63.77,-36.45 64.92,-33.9 66.02,-31.3 67.03,-28.72 67.95,-26.21 68.82,-23.78 69.7,-21.3 70.49,-18.73 70.85,-16.72" fill="none" stroke="rgb(134, 19, 43)" stroke-width="2" stroke-linejoin="round" filter="url(#fuzzy)" /><polyline points="35.51,-74.33 39.69,-72.67 41.72,-71.06 44.12,-69.51 47.93,-67.88 53.22,-66.13 59.39,-64.3 65.49,-62.45 70.66,-60.57 74.6,-58.68 77.63,-56.74 80.47,-54.74 83.75,-52.65 87.61,-50.49 91.67,-48.29 95.3,-46.08 98.24,-43.88 101.01,-41.67 104.72,-39.39 110.26,-36.97 117.29,-34.37 124.44,-31.57 131.78,-28.63 143.7,-26.15" fill="none" stroke="rgb(134, 19, 43)" stroke-width="2" stroke-linejoin="round" filter="url(#fuzzy)" /><polyline points="32.05,-76.98 35.46,-75.7 39.47,-74.27 42.77,-72.75 45.1,-71.2 46.82,-69.63 48.52,-67.98 50.54,-66.24 52.89,-64.44 55.42,-62.6 58.03,-60.74 60.74,-58.85 63.69,-56.92 67.02,-54.93 70.9,-52.85 75.46,-50.69 80.77,-48.48 86.82,-46.27 93.4,-44.1 100.1,-41.94 106.32,-39.73 111.45,-37.38 114.98,-34.97 116.11,-32.73" fill="none" stroke="rgb(134, 19, 43)" stroke-width="2" stroke-linejoin="round" filter="url(#fuzzy)" /><polyline points="31.33,-77.35 32.51,-76.67 35.02,-75.55 38.83,-74.18 42.75,-72.7 45.86,-71.14 48.19,-69.53 50.32,-67.84 52.79,-66.09 55.86,-64.27 59.51,-62.41 63.46,-60.51 67.38,-58.57 70.96,-56.58 74.05,-54.53 76.72,-52.42 79.15,-50.25 81.6,-48.04 84.29,-45.8 87.34,-43.52 90.75,-41.19 94.41,-38.8 98.14,-36.34 101.75,-33.81 105.12,-31.23 108.31,-28.65 111.53,-26.08 115.1,-23.51 119.19,-20.92 123.7,-18.23 128.21,-15.47 132.42,-12.7 136.94,-10.18 143.36,-8.32" fill="none" stroke="rgb(134, 19, 43)" stroke-width="2" stroke-linejoin="round" filter="url(#fuzzy)" /><polyline points="27.29,-79.73 29,-79.07 31.18,-77.99 33.52,-76.85 36.4,-75.63 39.78,-74.31 43.23,-72.88 46.36,-71.39 49.08,-69.83 51.57,-68.2 54.03,-66.49 56.49,-64.72 58.86,-62.9 61.09,-61.05 63.29,-59.19 65.75,-57.29 68.67,-55.34 72,-53.29 75.43,-51.11 78.76,-48.8 82.06,-46.47 85.7,-44.33 90.3,-42.71" fill="none" stroke="rgb(134, 19, 43)" stroke-width="2" stroke-linejoin="round" filter="url(#fuzzy)" /><polyline points="25.31,-81.14 26.7,-80.46 28.6,-79.69 31.41,-78.66 34.95,-77.44 38.64,-76.09 41.93,-74.67 44.67,-73.18 47.07,-71.63 49.49,-70.02 52.12,-68.34 54.98,-66.6 58.02,-64.8 61.15,-62.92 64.34,-60.98 67.61,-58.98 71.03,-56.93 74.73,-54.86 78.85,-52.79 83.47,-50.73 88.5,-48.66 93.62,-46.56 98.39,-44.42 102.52,-42.24 106,-40.06 109.09,-37.91 112.05,-35.75 115.11,-33.38 119.16,-30.52 125.9,-27.31" fill="none" stroke="rgb(134, 19, 43)" stroke-width="2" stroke-linejoin="round" filter="url(#fuzzy)" /><polyline points="18.59,-83.88 20.2,-83.29 22.23,-82.43 24.23,-81.53 26.06,-80.62 27.81,-79.65 29.58,-78.58 31.45,-77.39 33.41,-76.09 35.42,-74.7 37.43,-73.23 39.4,-71.69 41.33,-70.08 43.19,-68.41 45.01,-66.67 46.8,-64.87 48.57,-63 50.34,-61.06 52.11,-59.06 53.84,-57.01 55.5,-54.94 57.08,-52.87 58.56,-50.79 59.96,-48.72 61.32,-46.61 62.67,-44.47 64.02,-42.29 65.39,-40.1 66.74,-37.94 68.01,-35.77 69.22,-33.39 70.43,-30.53 71.37,-27.31" fill="none" stroke="rgb(134, 19, 43)" stroke-width="2" stroke-linejoin="round" filter="url(#fuzzy)" /><polyline points="9.76,-86.27 12.22,-85.77 14.56,-85.23 16.72,-84.64 18.73,-83.99 20.73,-83.27 22.83,-82.5 25.09,-81.67 27.49,-80.79 29.96,-79.85 32.41,-78.83 34.77,-77.7 36.99,-76.47 39.12,-75.14 41.2,-73.73 43.34,-72.26 45.62,-70.72 48.12,-69.1 50.9,-67.41 53.94,-65.67 57.04,-63.95 59.9,-62.28 62.51,-60.48 65.93,-57.92" fill="none" stroke="rgb(134, 19, 43)" stroke-width="2" stroke-linejoin="round" filter="url(#fuzzy)" /><polyline points="7.9,-86.7 11.32,-86.16 14.33,-85.56 17.82,-84.99 21.6,-84.39 25.02,-83.69 27.81,-82.91 30.24,-82.05 32.83,-81.13 35.98,-80.17 39.78,-79.16 44.01,-78.1 48.32,-76.98 52.39,-75.78 55.99,-74.49 59.04,-73.11 61.58,-71.65 63.77,-70.12 65.95,-68.5 68.6,-66.81 72.2,-65.04 77.13,-63.23 83.46,-61.38 90.85,-59.51 98.54,-57.62 105.56,-55.69 111.09,-53.68 115.22,-51.48 119.54,-49.02 127.16,-46.59" fill="none" stroke="rgb(134, 19, 43)" stroke-width="2" stroke-linejoin="round" filter="url(#fuzzy)" /><polyline points="3.13,-87.09 5.25,-86.92 7.03,-86.74 9.18,-86.46 11.64,-86.05 14.26,-85.57 16.95,-85.03 19.77,-84.42 22.83,-83.75 26.23,-82.99 29.97,-82.16 33.91,-81.27 37.81,-80.34 41.46,-79.36 44.8,-78.34 47.99,-77.25 51.32,-76.09 55.09,-74.84 59.42,-73.5 64.3,-72.09 69.67,-70.6 75.57,-69.05 82.07,-67.38 88.76,-65.52 94.63,-63.55 98.96,-61.75" fill="none" stroke="rgb(134, 19, 43)" stroke-width="2" stroke-linejoin="round" filter="url(#fuzzy)" /><polyline points="3.13,-87.09 4.96,-86.92 6.79,-86.75 9.1,-86.46 11.95,-86.06 15.24,-85.58 18.65,-85.04 21.82,-84.44 24.59,-83.76 27.1,-83.01 29.7,-82.18 32.73,-81.3 36.37,-80.36 40.62,-79.39 45.33,-78.37 50.33,-77.3 55.4,-76.15 60.34,-74.91 64.99,-73.57 69.36,-72.15 73.67,-70.69 78.15,-69.17 82.81,-67.53 87.42,-65.58 92.53,-63.41" fill="none" stroke="rgb(134, 19, 43)" stroke-width="2" stroke-linejoin="round" filter="url(#fuzzy)" />
    </g>
    
        <g id="lineNose">
        <path d="M -9.55,30.46 Q 10.93, 37.155 0.6899999999999995, -5.734000000000001" fill="none" stroke="black" stroke-width="3" stroke-linejoin="round" filter="url(#fuzzy)"></path>
        </g>
      
    <g id="mouth">
      <polyline points="-13.02,31.81 -12.98,32.08 -12.93,32.35 -12.87,32.61 -12.79,32.86 -12.7,33.1 -12.59,33.34 -12.47,33.56 -12.33,33.79 -12.19,34 -12.03,34.21 -11.86,34.41 -11.68,34.6 -11.48,34.79 -11.27,34.97 -11.06,35.14 -10.83,35.31 -10.59,35.47 -10.34,35.62 -10.09,35.77 -9.82,35.91 -9.54,36.05 -9.26,36.18 -8.96,36.3 -8.66,36.42 -8.35,36.53 -8.03,36.63 -7.7,36.73 -7.37,36.83 -7.03,36.92 -6.68,37 -6.33,37.08 -5.97,37.15 -5.61,37.22 -5.24,37.28 -4.86,37.34 -4.48,37.39 -4.1,37.43 -3.71,37.48 -3.31,37.51 -2.92,37.55 -2.52,37.57 -2.12,37.6 -1.71,37.62 -1.3,37.63 -0.89,37.64 -0.48,37.65 -0.07,37.65 0.35,37.65 0.76,37.64 1.18,37.63 1.6,37.61 2.01,37.6 2.43,37.57 2.84,37.55 3.26,37.52 3.67,37.49 4.09,37.45 4.5,37.41 4.91,37.37 5.31,37.32 5.72,37.27 6.12,37.22 6.52,37.17 6.91,37.11 7.3,37.05 7.69,36.99 8.07,36.92 8.45,36.85 8.82,36.78 9.19,36.71 9.55,36.63 9.91,36.55 10.26,36.47 10.6,36.39 10.94,36.31 11.27,36.22 11.59,36.13 11.9,36.04 12.21,35.95 12.51,35.86 12.8,35.76 13.08,35.66 13.35,35.57 13.61,35.47 13.87,35.36 14.11,35.26 14.34,35.16 14.57,35.06 14.78,34.95 14.98,34.84 15.17,34.74 15.34,34.63 15.51,34.52 15.66,34.41 15.8,34.3 15.93,34.19 16.04,34.08 16.14,33.97 16.23,33.86 16.3,33.75 16.23,33.86 16.14,33.97 16.04,34.08 15.93,34.19 15.8,34.3 15.66,34.41 15.51,34.52 15.34,34.63 15.17,34.74 14.98,34.84 14.78,34.95 14.57,35.06 14.34,35.16 14.11,35.26 13.87,35.36 13.61,35.47 13.35,35.57 13.08,35.66 12.8,35.76 12.51,35.86 12.21,35.95 11.9,36.04 11.59,36.13 11.27,36.22 10.94,36.31 10.6,36.39 10.26,36.47 9.91,36.55 9.55,36.63 9.19,36.71 8.82,36.78 8.45,36.85 8.07,36.92 7.69,36.99 7.3,37.05 6.91,37.11 6.52,37.17 6.12,37.22 5.72,37.27 5.31,37.32 4.91,37.37 4.5,37.41 4.09,37.45 3.67,37.49 3.26,37.52 2.84,37.55 2.43,37.57 2.01,37.6 1.6,37.61 1.18,37.63 0.76,37.64 0.35,37.65 -0.07,37.65 -0.48,37.65 -0.89,37.64 -1.3,37.63 -1.71,37.62 -2.12,37.6 -2.52,37.57 -2.92,37.55 -3.31,37.51 -3.71,37.48 -4.1,37.43 -4.48,37.39 -4.86,37.34 -5.24,37.28 -5.61,37.22 -5.97,37.15 -6.33,37.08 -6.68,37 -7.03,36.92 -7.37,36.83 -7.7,36.73 -8.03,36.63 -8.35,36.53 -8.66,36.42 -8.96,36.3 -9.26,36.18 -9.54,36.05 -9.82,35.91 -10.09,35.77 -10.34,35.62 -10.59,35.47 -10.83,35.31 -11.06,35.14 -11.27,34.97 -11.48,34.79 -11.68,34.6 -11.86,34.41 -12.03,34.21 -12.19,34 -12.33,33.79 -12.47,33.56 -12.59,33.34 -12.7,33.1 -12.79,32.86 -12.87,32.61 -12.93,32.35 -12.98,32.08" fill="rgb(102, 123, 204)" stroke="black" stroke-width="3" stroke-linejoin="round" filter="url(#fuzzy)" />
    </g>
  </svg>