<svg xmlns="http://www.w3.org/2000/svg" width="500" height="500" viewBox="-100 -100 200 200"><defs><clipPath id="c"><path d="m37.25-10.45-.28-.13-.32-.14-.35-.14-.39-.13-.41-.14-.46-.13-.48-.13-.52-.13-.56-.13-.59-.12-.62-.13-.65-.12-.69-.12-.72-.11-.76-.12-.65-.14-.71-.13-.78-.13-.83-.13-.89-.13-.95-.12-.99-.11-1.05-.11-1.1-.11-1.13-.1-1.18-.09-1.21-.09-1.24-.08-1.27-.08-1.3-.07-1.31-.06-1.33-.06-1.34-.04-1.35-.05-1.35-.03-1.36-.03-1.35-.02-1.34-.01-1.33-.01-1.32.01h-1.3l-1.28.02-1.26.02-1.24.03-1.21.03-1.18.05-1.14.04-1.12.06-1.08.06-1.04.06-1.01.07-.97.08-.93.08-.9.08-.85.09-.82.1-.79.09-.74.1-.71.1-.67.11-.65.11-.61.11-.58.11-.55.11-.52.12-.51.11-.47.12-.45.12-.42.12-.4.12-.37.13-.35.12-.33.13-.31.12-.29.13-.27.13-.26.13-.23.13-.22.13-.78 13.13.25.61.26.6.28.61.29.6.31.6.32.59.35.59.36.57.39.57.4.56.43.55.44.53.48.52.49.5.52.49.54.48.57.46.59.45.62.43.66.41.68.39.72.36.75.33.78.29.82.27.86.23.89.19.92.15.96.12 1 .07 1.03.03 1.06-.01 1.09-.05 1.12-.1 1.15-.14 1.18-.18 1.2-.22 1.22-.26 1.25-.31 1.26-.34 1.28-.38 1.29-.41 1.3-.45 1.3-.48 1.31-.51 1.31-.54 1.3-.56 1.3-.58 1.28-.6 1.27-.62 1.25-.63 1.23-.64 1.21-.65 1.17-.65 1.15-.65 1.11-.64 1.07-.64 1.02-.63.99-.61.93-.6.89-.58.83-.55.79-.53.72-.5.8-.52.76-.52.74-.5.71-.49.68-.48.65-.46.61-.46.59-.44.56-.42.53-.41.49-.4.46-.37.44-.37.4-.34.37-.33"/></clipPath><clipPath id="b"><path d="m-37.13-9.7.28-.18.31-.19.35-.18.38-.18.41-.18.45-.18.49-.17.52-.18.55-.17.59-.17.62-.17.65-.16.69-.17.72-.16.75-.15.65-.19.72-.19.78-.19.84-.18.89-.17.95-.17 1-.16 1.04-.15 1.09-.15 1.13-.14 1.17-.13 1.2-.12 1.23-.11 1.26-.11 1.28-.09 1.3-.09 1.32-.07 1.32-.06 1.33-.06 1.34-.04 1.34-.04 1.33-.02 1.32-.02h2.62l1.28.02 1.26.03 1.25.03 1.21.05 1.19.05 1.16.06 1.14.07 1.09.08 1.07.09 1.03.1.99.1.96.11.92.12.88.12.85.13.81.13.77.14.74.14.7.15.67.15.63.16.61.16.57.16.55.16.52.16.5.17.47.17.45.17.42.17.4.17.37.18.36.18.33.18.31.18.29.18.27.18.26.18.24.19.22.18 1.07 12.58-.24.63-.26.63-.27.63-.29.63-.3.62-.32.61-.34.6-.36.6-.37.58-.4.58-.42.56-.44.54-.47.53-.49.51-.51.5-.53.49-.56.47-.59.46-.61.44-.64.41-.68.39-.71.36-.74.33-.78.3-.81.26-.85.23-.88.19-.91.15-.96.11-.98.07-1.03.03-1.05-.01-1.08-.06-1.12-.1-1.15-.14-1.17-.19-1.19-.22-1.23-.27-1.24-.3-1.26-.35-1.27-.38-1.29-.42-1.3-.45-1.3-.48-1.31-.51-1.3-.54-1.31-.56-1.3-.58-1.28-.61-1.28-.61-1.25-.63-1.24-.64-1.21-.64-1.18-.64-1.15-.65-1.12-.63-1.08-.63-1.03-.62-.99-.61-.95-.59-.9-.56-.84-.55-.79-.52-.74-.49-.8-.52-.77-.51-.74-.5-.71-.49-.69-.48-.65-.46-.62-.46-.59-.44-.56-.43-.53-.41-.49-.4-.46-.39-.44-.37-.4-.36-.37-.34"/></clipPath><filter id="a"><feTurbulence baseFrequency=".05" numOctaves="3" result="noise" type="noise"/><feDisplacementMap in="SourceGraphic" in2="noise" scale="2"/></filter></defs><rect width="100%" height="100%" x="-100" y="-100" fill="#F08080"/><path fill="#D2691E" stroke="#000" stroke-linejoin="round" stroke-width="1.667" d="m71.07 1.32-.24-.38.01 1.02-.12 1.76-.14 1.71.39-.34-.55 3.03.17 2.01-.23 2.23-.51 1.1.14-.21-.32 2.91v-.71l-.16 2.72-.28 1.28.02-.97-.57 3-.68 2.97.36-1.11-.84 2.51-.48 1.43-.26 1.26-.57 1.61-.65 1.39.55-.63-.31.88-.14.91-.94 1.61-1.17 3.17.83-1.57L62.61 40l-.12.03.31.09-1.92 3.12.24-.26-.36 1.12-1.83 3.07 1.28-1.88-1.88 3.13-.43.65-.79 1.14-.21.33.16.32-1.63 1.95.24.05L54 55.11l-.88.94-.01.53-.91.92-1.33 1.96-.26.33-1.84 1.77.89-.97-.26.6-3.21 3.58.46-.81-.5.96-1.1.92-2.71 2.11-1.17 1.21.77-.55-1.71 1.36-.23.17-2.19 1.7.54-.38-1.85 1.45-.06.02-2.37 1.39-.55.73.4-.44-1.57 1.11-2.12 1.48 1.62-1.02-1.95.69-.98.87-3.26 1.3-.37.56.14-.15-1.08.48-.69.08-2.85 1.2h.2l-1.17.3-1.05.45-1.34.65-1.1.15.45-.24-2.18.71-1.15.24-3.06.6.79-.14-1.25.09-.62.29-2.05.35-.54-.13-1.42.24-1.02.18-1.45.07-.74-.14.27.19-3.35.07-1.02-.12.06.13-1.26-.34-.2.13-1.93-.12-1.71-.31.65.1-2.22-.29-2.22-.22-.35-.02-1.99-.58-1.53-.33-.5-.16.68.33-2.65-.85.16.15-1.66-.61-.13-.19-1.37-.19-1.69-.65-1.98-.84.85.42-3.36-1.75-.03.23.13-.15-.97-.64-1.16-.57-2.29-1.24-1.86-.87-.17-.1-.88-.28-1.45-1.15 1.19.86-2.02-1.18-1.77-1.8.05.41-1.3-1.11-.75-.57-1.7-1.63.04.37-1.42-1.11-.55-.59-2-2.11-.86-.61.08-.2-1.09-1.08-1.75-1.91.93 1.04-.3-.22-3.05-3.85 1.18 1.45-.57-.91-2.74-3.05.16.21.11-.38-2-2.46-.98-1.39.13.39-.72-1.14-1.13-2.09-.61-1.35-.35-.33.02-.08-.24-.94-1.26-1.99-1.7-3.63 1.19 2.81-2.34-4.82.84 1.26-1.18-1.94-.15-.93-.67-1.44-.15-.74-.34-.44-.95-1.99-.7-3.64.55 1.98-.71-1.73-.82-3.52-.38-.38-.59-1.97.02-.67-.24-1.43-.3-1.45-.26-1.19v-.01l-.17-1.6-.49-1.33-.09-1.75-.36-1.85-.32-1.4.23-1.56-.17.65-.33-2.14.33-.37-.23-2.46-.09-.19-.18-2.59.25-.48-.19-2.35.07.15-.25-1.88.36-.74.05-1.45.22-2.74-.39.89.39-4.1.46-2.18-.27.73.13-1.64.6-1.78.1-2.54.29-1.02-.08 1.66.15-3.07.21-.51.4-1.67.17-.69.63-1.73.72-2.75-.03.09.5-1.48.26-1.43-.19.19.58-1.55.75-1.44.71-1.86.97-3.07.74-1.36-.92 1.78 1.32-2.62.05-.76-.32.81 1.83-3.55.51-.63.38-1.36 1.23-2.32-.95 1.68 1.67-3.09.01.48 1-1.68.55-.99 1.26-1.6.4-.67 1.14-1.37-.37-.28 1.04-.89.67-1.21.56-.94 2.04-1.9-.41.35L-48.6-62l1.19-1.34 1.25-1.16 1.63-1.74-.34.39.47-.52 1.43-1.14 1.39-1.47-1.02.7.4-.44 2.36-1.79.65-.39 2.52-1.78.59-.61-.99.75 1.09-1.03.63-.03 1.49-1.18 1.65-1.08-.79.58 3.13-1.84 1.52-.85-1.71.83 2.56-1.31 1.69-.93.9-.03 1.19-.69 1.42-.63 1.11-.32 1.54-.62-.15-.03 2.39-.82-1.58.73 3.24-1.3 1.29-.04.61-.4-1 .27 3.12-.38.31-.18 2.22-.44-1.3-.05 2.94-.42 1.24.03.02.08 1.97-.18 2.36-.28-1.41.15 2.47-.09 1.14-.18 1.87.23.34.02.18-.23 3.7.35L4.89-85l.01.05 1.57.18 1.33.05 3.32.6-.46.09 1.61.29 1.55.46-.27-.2 3.47.99-.39-.33.56.17 2.38 1.09-.67-.5 1.14.46 2.41.89 1.37.72-.04-.15 1.84.71-.64-.2 1.38.99 1.85.89 2.84 1.27.24.02.22.27 1.52.7.42.62 1.6.91-1.19-.71 1.12.56 3.29 2.51.19-.21.77.89-.1.11.37.05 3.51 2.85.17.23.84.92.02.03 1.76 1.7.31.4 1.33 1.52-.23-.32 1.73 2.12 1.15.99 1.3 1.66-.01-.13.53.89.46.67.71.94 1.57 1.81.32.7.39.55 1 1.88.23.24.72 1.2.18.25.49 1.16 1.08 1.41 1.11 2.34.84 1.22-.06.05.88 1.92.91 2.07-.31-.64.97 1.79-.05.68.52.65.55 1.34.56 1.47.97 2.41.44 1.68.08.1.16.3 1.08 4.06-.52-1 .13.38.93 2.89-.55-1.37 1.02 3.53-.1.01.78 3.02.5 2.48-.51-1.35.68 3.96-.06.09.28.25.15 3 .36 1.81-.27-1.83.05 2.57.13.77.16 3.55-.04 1.29-.08 1.05.32 1.87-.24-.38" filter="url(#a)"/><path fill="#fff" d="m-37.13-9.7.28-.18.31-.19.35-.18.38-.18.41-.18.45-.18.49-.17.52-.18.55-.17.59-.17.62-.17.65-.16.69-.17.72-.16.75-.15.65-.19.72-.19.78-.19.84-.18.89-.17.95-.17 1-.16 1.04-.15 1.09-.15 1.13-.14 1.17-.13 1.2-.12 1.23-.11 1.26-.11 1.28-.09 1.3-.09 1.32-.07 1.32-.06 1.33-.06 1.34-.04 1.34-.04 1.33-.02 1.32-.02h2.62l1.28.02 1.26.03 1.25.03 1.21.05 1.19.05 1.16.06 1.14.07 1.09.08 1.07.09 1.03.1.99.1.96.11.92.12.88.12.85.13.81.13.77.14.74.14.7.15.67.15.63.16.61.16.57.16.55.16.52.16.5.17.47.17.45.17.42.17.4.17.37.18.36.18.33.18.31.18.29.18.27.18.26.18.24.19.22.18 1.07 12.58-.24.63-.26.63-.27.63-.29.63-.3.62-.32.61-.34.6-.36.6-.37.58-.4.58-.42.56-.44.54-.47.53-.49.51-.51.5-.53.49-.56.47-.59.46-.61.44-.64.41-.68.39-.71.36-.74.33-.78.3-.81.26-.85.23-.88.19-.91.15-.96.11-.98.07-1.03.03-1.05-.01-1.08-.06-1.12-.1-1.15-.14-1.17-.19-1.19-.22-1.23-.27-1.24-.3-1.26-.35-1.27-.38-1.29-.42-1.3-.45-1.3-.48-1.31-.51-1.3-.54-1.31-.56-1.3-.58-1.28-.61-1.28-.61-1.25-.63-1.24-.64-1.21-.64-1.18-.64-1.15-.65-1.12-.63-1.08-.63-1.03-.62-.99-.61-.95-.59-.9-.56-.84-.55-.79-.52-.74-.49-.8-.52-.77-.51-.74-.5-.71-.49-.69-.48-.65-.46-.62-.46-.59-.44-.56-.43-.53-.41-.49-.4-.46-.39-.44-.37-.4-.36-.37-.34" filter="url(#a)" transform="translate(31.21 -26.21)"/><path fill="#fff" d="m37.25-10.45-.28-.13-.32-.14-.35-.14-.39-.13-.41-.14-.46-.13-.48-.13-.52-.13-.56-.13-.59-.12-.62-.13-.65-.12-.69-.12-.72-.11-.76-.12-.65-.14-.71-.13-.78-.13-.83-.13-.89-.13-.95-.12-.99-.11-1.05-.11-1.1-.11-1.13-.1-1.18-.09-1.21-.09-1.24-.08-1.27-.08-1.3-.07-1.31-.06-1.33-.06-1.34-.04-1.35-.05-1.35-.03-1.36-.03-1.35-.02-1.34-.01-1.33-.01-1.32.01h-1.3l-1.28.02-1.26.02-1.24.03-1.21.03-1.18.05-1.14.04-1.12.06-1.08.06-1.04.06-1.01.07-.97.08-.93.08-.9.08-.85.09-.82.1-.79.09-.74.1-.71.1-.67.11-.65.11-.61.11-.58.11-.55.11-.52.12-.51.11-.47.12-.45.12-.42.12-.4.12-.37.13-.35.12-.33.13-.31.12-.29.13-.27.13-.26.13-.23.13-.22.13-.78 13.13.25.61.26.6.28.61.29.6.31.6.32.59.35.59.36.57.39.57.4.56.43.55.44.53.48.52.49.5.52.49.54.48.57.46.59.45.62.43.66.41.68.39.72.36.75.33.78.29.82.27.86.23.89.19.92.15.96.12 1 .07 1.03.03 1.06-.01 1.09-.05 1.12-.1 1.15-.14 1.18-.18 1.2-.22 1.22-.26 1.25-.31 1.26-.34 1.28-.38 1.29-.41 1.3-.45 1.3-.48 1.31-.51 1.31-.54 1.3-.56 1.3-.58 1.28-.6 1.27-.62 1.25-.63 1.23-.64 1.21-.65 1.17-.65 1.15-.65 1.11-.64 1.07-.64 1.02-.63.99-.61.93-.6.89-.58.83-.55.79-.53.72-.5.8-.52.76-.52.74-.5.71-.49.68-.48.65-.46.61-.46.59-.44.56-.42.53-.41.49-.4.46-.37.44-.37.4-.34.37-.33" filter="url(#a)" transform="translate(-32.77 -30.42)"/><g fill="none" stroke="#000" transform="translate(31.21 -26.21)"><path stroke-linejoin="round" stroke-width="1.667" d="m-38.35-7.96.02-.16.03-.17.05-.17.08-.17.1-.17.13-.18.16-.18.18-.18.22-.18.25-.18.28-.18.31-.19.35-.18.38-.18.41-.18.45-.18.49-.17.52-.18.55-.17.59-.17.62-.17.65-.16.69-.17.72-.16.75-.15.65-.19.72-.19.78-.19.84-.18.89-.17.95-.17 1-.16 1.04-.15 1.09-.15 1.13-.14 1.17-.13 1.2-.12 1.23-.11 1.26-.11 1.28-.09 1.3-.09 1.32-.07 1.32-.06 1.33-.06 1.34-.04 1.34-.04 1.33-.02 1.32-.02h2.62l1.28.02 1.26.03 1.25.03 1.21.05 1.19.05 1.16.06 1.14.07 1.09.08 1.07.09 1.03.1.99.1.96.11.92.12.88.12.85.13.81.13.77.14.74.14.7.15.67.15.63.16.61.16.57.16.55.16.52.16.5.17.47.17.45.17.42.17.4.17.37.18.36.18.33.18.31.18.29.18.27.18.26.18.24.19.22.18.21.18.19.19.18.18.16.19.16.18.14.19.13.18.12.18.11.19.1.18" filter="url(#a)"/><path stroke-linejoin="round" stroke-width="2.222" d="m-38.7-8.23.1.23.12.23.15.24.17.25.2.27.22.27.25.29.28.3.31.31.33.33.37.34.4.36.44.37.46.39.49.4.53.41.56.43.59.44.62.46.65.46.69.48.71.49.74.5.77.51.8.52.74.49.79.52.84.55.9.56.95.59.99.61 1.03.62 1.08.63 1.12.63 1.15.65 1.18.64 1.21.64 1.24.64 1.25.63 1.28.61 1.28.61 1.3.58 1.31.56 1.3.54 1.31.51 1.3.48 1.3.45 1.29.42 1.27.38 1.26.35 1.24.3 1.23.27 1.19.22 1.17.19 1.15.14 1.12.1 1.08.06 1.05.01 1.03-.03.98-.07.96-.11.91-.15.88-.19.85-.23.81-.26.78-.3.74-.33.71-.36.68-.39.64-.41.61-.44.59-.46.56-.47.53-.49.51-.5.49-.51.47-.53.44-.54.42-.56.4-.58.37-.58.36-.6.34-.6.32-.61.3-.62.29-.63.27-.63.26-.63.24-.63.23-.64.22-.63.21-.64.19-.63.19-.63.17-.63.17-.62.16-.62.15-.62.14-.61" filter="url(#a)"/><circle cx="-2.027" cy="1.311" r="4.842" clip-path="url(#b)" filter="url(#a)"/><circle cx="-2.027" cy=".251" r="3.818" clip-path="url(#b)" filter="url(#a)"/><circle cx="-3.757" cy="1.926" r="4.874" clip-path="url(#b)" filter="url(#a)"/><circle cx="-1.897" cy="-.754" r="4.86" clip-path="url(#b)" filter="url(#a)"/><circle cx="-1.607" cy=".376" r="3.124" clip-path="url(#b)" filter="url(#a)"/><circle cx="-6.342" cy="1.366" r="4.196" clip-path="url(#b)" filter="url(#a)"/><circle cx="-4.977" cy="-.144" r="4.41" clip-path="url(#b)" filter="url(#a)"/><circle cx="-5.407" cy=".906" r="4.78" clip-path="url(#b)" filter="url(#a)"/><circle cx="-2.877" cy=".741" r="3.7" clip-path="url(#b)" filter="url(#a)"/><circle cx="-3.497" cy="-.224" r="4.15" clip-path="url(#b)" filter="url(#a)"/></g><g fill="none" stroke="#000" transform="translate(-32.77 -30.42)"><path stroke-linejoin="round" stroke-width="2.222" d="m38.63-9.06-.04-.14-.05-.13-.08-.14-.1-.14-.12-.14-.14-.14-.17-.14-.19-.14-.23-.14-.26-.14-.28-.13-.32-.14-.35-.14-.39-.13-.41-.14-.46-.13-.48-.13-.52-.13-.56-.13-.59-.12-.62-.13-.65-.12-.69-.12-.72-.11-.76-.12-.65-.14-.71-.13-.78-.13-.83-.13-.89-.13-.95-.12-.99-.11-1.05-.11-1.1-.11-1.13-.1-1.18-.09-1.21-.09-1.24-.08-1.27-.08-1.3-.07-1.31-.06-1.33-.06-1.34-.04-1.35-.05-1.35-.03-1.36-.03-1.35-.02-1.34-.01-1.33-.01-1.32.01h-1.3l-1.28.02-1.26.02-1.24.03-1.21.03-1.18.05-1.14.04-1.12.06-1.08.06-1.04.06-1.01.07-.97.08-.93.08-.9.08-.85.09-.82.1-.79.09-.74.1-.71.1-.67.11-.65.11-.61.11-.58.11-.55.11-.52.12-.51.11-.47.12-.45.12-.42.12-.4.12-.37.13-.35.12-.33.13-.31.12-.29.13-.27.13-.26.13-.23.13-.22.13-.2.13-.19.13-.17.13-.16.12-.15.13-.14.13-.12.13-.12.13-.1.13-.1.13m67.52.78-.13.18-.14.2-.16.21-.19.22-.21.23-.23.26-.26.26-.29.28-.31.3-.35.32-.37.33-.4.34-.44.37-.46.37-.49.4-.53.41-.56.42-.59.44-.61.46-.65.46-.68.48-.71.49-.74.5-.76.52-.8.52-.72.5-.79.53-.83.55-.89.58-.93.6-.99.61-1.02.63-1.07.64-1.11.64-1.15.65-1.17.65-1.21.65-1.23.64-1.25.63-1.27.62-1.28.6-1.3.58-1.3.56-1.31.54-1.31.51-1.3.48-1.3.45-1.29.41-1.28.38-1.26.34-1.25.31-1.22.26-1.2.22-1.18.18-1.15.14-1.12.1-1.09.05-1.06.01-1.03-.03-1-.07-.96-.12-.92-.15-.89-.19-.86-.23-.82-.27-.78-.29-.75-.33-.72-.36-.68-.39-.66-.41-.62-.43-.59-.45-.57-.46-.54-.48-.52-.49-.49-.5-.48-.52-.44-.53-.43-.55-.4-.56-.39-.57-.36-.57-.35-.59-.32-.59-.31-.6-.29-.6-.28-.61-.26-.6-.25-.61-.23-.61-.23-.6-.21-.6-.2-.61-.18-.59-.18-.6-.17-.58-.16-.59-.15-.58-.14-.57" filter="url(#a)"/><circle cx="-16.864" cy="-6.312" r="3.724" clip-path="url(#c)" filter="url(#a)"/><circle cx="-21.159" cy="-4.017" r="4.026" clip-path="url(#c)" filter="url(#a)"/><circle cx="-16.819" cy="-4.967" r="4.63" clip-path="url(#c)" filter="url(#a)"/><circle cx="-18.544" cy="-4.037" r="3.86" clip-path="url(#c)" filter="url(#a)"/><circle cx="-18.449" cy="-4.057" r="4.686" clip-path="url(#c)" filter="url(#a)"/><circle cx="-17.779" cy="-6.832" r="3.838" clip-path="url(#c)" filter="url(#a)"/><circle cx="-19.204" cy="-6.442" r="4.44" clip-path="url(#c)" filter="url(#a)"/><circle cx="-18.939" cy="-6.472" r="4.006" clip-path="url(#c)" filter="url(#a)"/><circle cx="-17.429" cy="-4.182" r="4.132" clip-path="url(#c)" filter="url(#a)"/><circle cx="-18.814" cy="-3.547" r="4.144" clip-path="url(#c)" filter="url(#a)"/></g><g fill="none" stroke="#CCF" stroke-linejoin="round" stroke-width="2"><path d="m-9.2-84.26-1.73-.15-1.28.31-1.07.19-.96.01-.95-.04-1 .05-1 .18-.99.26-.97.3-.99.27-1.05.21-1.13.17-1.2.16-1.26.2-1.29.3-1.26.4-1.21.44-1.1.38-1.05.33-1.35.5-2.5 1 6.19.82-.39-.1.92-.65 1.2-.79 1.19-.81 1.12-.85 1.04-.94.98-.98.92-.91.91-.75.91-.59.95-.46.98-.4 1-.37.96-.39.93-.44.93-.54.98-.67 1.02-.74.78-.72-.29-.69" filter="url(#a)"/><path d="m-32.21-75.86.12-.74.84-1.41.87-1.12.92-.73 1.06-.55 1.16-.55 1.17-.68 1.14-.8 1.09-.88 1.03-.91.97-.88.92-.8.9-.74.91-.71.95-.78.96-.91.88-.99.73-.92.76-.72 1.93-.3m-37.14 31.67.29-2.84-.28-3.38-.21-3-.07-2.45.11-1.87.37-1.32.62-.88.76-.65.8-.67.8-.86.84-1.08.9-1.28.87-1.43.66-1.57.36-1.62.14-1.53.26-1.25.79-.85 1.14-1.45m-13.82 36.22-1.25.29-1.21.71-1.62.36-1.86.04-1.88-.05h-1.81l-1.78.09-1.71.28-1.5.56-1.17.91-.81 1.19-.58 1.28-.55 1.15-.75.89-1.09.62-1.5.52-1.85.7-2.11 1.13-2.51 1.32-3.3.77 23.27.16-.83.69-1.37.28-1.47.22-1.65.47-1.88.74-2.02.88-1.95.89-1.72.82-1.37.79-.96.85-.72.96-.92 1-1.74.94-2.69 1-1.99 1.64" filter="url(#a)"/><path d="m-64.44-35.12.63-2.23.38-1.11.28-.75.23-.82.21-1.01.23-1.19.31-1.29.42-1.3.49-1.22.53-1.14.49-1.09.44-1.09.42-1.13.43-1.17.51-1.18.6-1.18.63-1.13.61-1.09.52-1.03.44-.97.49-.98.6-1.16M-77.23-.46l.41-1.62.41-1.43.33-1.48.33-1.57.36-1.6.41-1.6.4-1.54.39-1.48.32-1.41.26-1.37.21-1.31.17-1.23.21-1.16.32-1.08.51-1.04.75-1.03.95-1.04 1.02-1.11.91-1.18.67-1.23.42-1.21.31-1.08.4-.8.28-.21m133.67 3.62 1.03.62 1.09.86.81 1.01.85 1.17 1.07 1.28 1.27 1.33 1.38 1.31 1.35 1.23 1.19 1.2.91 1.2.63 1.27.5 1.35.64 1.34.99.87.77-.71M68.55-26.75l-.08-.25-.21-.72-.37-1.05-.45-1.12-.49-1.18-.52-1.25-.54-1.3-.55-1.3-.54-1.21-.52-1.11-.5-1-.49-.94-.48-.94-.5-.97-.53-1.03-.56-1.1-.62-1.18-.71-1.27-.83-1.38-.88-1.39-.69-1.22" filter="url(#a)"/><path d="m64.55-40.63-1-1.7-.87-1.25-.82-1.08-.84-1.12-.83-1.19-.74-1.21-.63-1.14-.54-1.05-.53-.94-.56-.87-.65-.81-.72-.81-.79-.81-.83-.86-.81-.87-.76-.85-.62-.74-.44-.55-.18-.18-8.21-9.02-.09 1.82.42 1.11.66.92.73.9.75.9.76.96.67 1.12.51 1.28.38 1.36.34 1.29.41 1.1.52.92.61.85.59.91.47 1.05.33 1.19.2 1.25.1 1.25.01 1.22-.12 1.15-.11.8-25.7-35.1-.21 1.1.76 1.33 1.24.98 1.27.75 1.08.65.87.65.68.76.55.87.5.92.54.89.62.89.67 1 .6 1.19.43 1.35.28 1.27.38 1 .88.9 1.83 2" filter="url(#a)"/><path d="m20.04-81.6 1.83.79 1.14.7.79.74.68.77.76.77.91.82 1.03.89 1.03.98.92 1.05.77 1.04.64 1 .55.93.46.86.39.81.43.83.83 1.07 1.93 1.83-1.21 2.38-.26-1.67-.97-1.27-.75-.97-.53-.86-.46-.84-.49-.89-.54-1.02L29.3-72l-.72-1.2-.84-1.14-.95-.97-1-.73-1-.54-.96-.43-.94-.45-.94-.56-.97-.63-.98-.64-.95-.58-.88-.54-.75-.64-.49-.86.09-.58m-5.9-1.63-2.5-.39-1.6-.16H5.99l-.76.09-.74.09-.81.05-.92.01-1-.02-1.06.01-1.08.04-1.1.09-1.09.11-1.08.13-1.1.15-1.1.18-1.12.22-1.08.24-1.03.25-.92.28-.85.33-.65.43 22.62-2.13-2.33-2.79-1.41-2.87-.99-.95-.8.22-.79.41-.87.11-.98-.31-1.07-.69-1.16-1.08-1.21-1.45-1.24-1.72-1.26-1.7-1.28-1.35-1.31-.86-1.38-.62-1.47-.96-1.55-1.68-1.5-2.03-1.29-1.32-1.62.21L4.9-84.95l1.55.01 1.71-.48 1.69-1.24 1.57-1.54 1.44-1.29 1.36-.89 1.35-.74 1.4-.9 1.43-1.12 1.4-1.11 1.33-.78 1.27-.31 1.27-.01 1.4-.1 1.54-.55 1.67-1.06 1.66-1.33 1.58-1.24 1.58-.83 1.81-.36 2.46.04 3.75-.53L4.9-84.95l.11-.05-.39-.11-.82-.14-.98-.13-1.04-.1-1.08-.1-1.11-.11-1.11-.09-1.07-.06h-1.07l-1.1.04-1.13.01-1.18-.06-1.43-.09-2.19.1" filter="url(#a)"/><path d="m-3.38-84.93-1.43.15-2.14.23-2.33.33-2.23.42-2.12.48-2.04.53-2.03.59-2.03.66-2.07.74-2.08.83-2.09.91-2.07 1L-30.1-77l-2.03 1.13-2.01 1.16-2 1.22-1.97 1.25-1.96 1.31-1.92 1.37-1.88 1.43-1.82 1.52-1.81 1.59-1.81 1.69-1.85 1.8-1.93 1.89-1.99 1.98-2 2.03-1.91 2.09-1.77 2.18-1.66 2.34-1.62 2.5" filter="url(#a)"/><path d="m-3.38-84.93-1.39.14-2.06.23-2.23.33-2.14.41-2.03.46-1.95.53-1.9.57-1.9.64-1.91.71-1.94.8-1.95.9-1.94.98-1.88 1.05-1.8 1.11-1.71 1.15-1.63 1.18-1.56 1.21-1.54 1.26-1.52 1.33-1.48 1.39-1.41 1.43-1.33 1.48-1.29 1.61-1.44 2.03" filter="url(#a)"/><path d="m-1.97-85.08-3.2.3-2.26.26-2.12.32-2.27.36-2.64.43-3.04.51-3.33.62-3.37.72-3.22.84-3.02.93-2.88 1-2.86 1.07-2.97 1.11-3.21 1.15-3.62 1.17-4.16 1.2-4.72 1.24-5.06 1.29-5.03 1.32-4.58 1.37-3.94 1.46-3.59 1.63-4.04 1.92-5.42 2.17-6.54 1.93" filter="url(#a)"/><path d="m-4.33-84.8-2.42.2-2.61.34-2.52.42-2.46.48-2.36.53-2.21.58-2.11.63-2.16.72-2.34.8-2.62.9-2.82.98-2.89 1.05-2.75 1.11-2.5 1.15-2.23 1.18-2.09 1.22-2.12 1.26-2.29 1.32-2.51 1.39-2.71 1.43-2.9 1.47-3.24 1.62-4.14 2.02" filter="url(#a)"/><path d="m-6.3-84.62-1.45.1-1.81.31-2.01.39-2.15.44-2.27.53-2.44.64-2.6.76-2.72.87-2.79.96-2.8 1.03-2.72 1.09-2.59 1.13-2.4 1.17-2.2 1.21-2.07 1.24-2 1.3-2.04 1.35-2.16 1.42-2.33 1.51-2.51 1.6-2.64 1.7-2.67 1.79-2.56 1.85-2.32 1.87-2 1.89-1.67 1.89-1.46 1.91-1.41 1.95-1.57 2.05-1.86 2.15-2.19 2.23-2.38 2.18-2.23 1.97-1.85 1.96-2.32 3.06" filter="url(#a)"/><path d="m-7.56-84.73-2.23.46-2.24.43-2.13.43-2.18.5-2.31.62-2.41.75-2.44.86-2.44.95-2.45 1.03-2.53 1.09-2.66 1.12-2.83 1.15-2.99 1.18-3.12 1.22-3.15 1.25-3.08 1.31-2.91 1.36-2.75 1.43-2.73 1.54-2.92 1.68-3.25 1.83-3.5 1.94-3.42 1.94-2.98 1.83-2.39 1.68-2.1 1.75" filter="url(#a)"/><path d="m-9.2-84.26-2.32.46-2.09.4-2.05.5-2.15.64-2.26.78-2.34.89-2.35.98-2.32 1.06-2.27 1.1-2.19 1.15-2.11 1.17-2 1.22-1.91 1.25-1.83 1.3-1.75 1.36-1.69 1.44-1.66 1.52-1.64 1.62-1.63 1.7-1.62 1.79-1.61 1.85-1.58 1.87-1.54 1.9-1.5 1.9-1.46 1.94-1.42 1.98-1.41 2.06-1.38 2.12-1.33 2.18-1.26 2.2-1.19 2.22-1.16 2.28-1.21 2.41-1.24 2.53-1.14 2.46-.99 2.48" filter="url(#a)"/><path d="m-18.99-81.79-1.2.3-1.94.62-2.61.83-2.99.97-3.09 1.06-3.08 1.11-3.03 1.15-2.94 1.18-2.81 1.21-2.69 1.25-2.65 1.3-2.74 1.36-2.94 1.44-3.26 1.5-3.63 1.6-4.03 1.69-4.39 1.79-4.56 1.89-4.37 1.97-3.78 2.02-3.11 2.07-3.03 2.16-3.87 2.32-4.22 2.48" filter="url(#a)"/><path d="m-19.8-81.7-1.83.73-2.43.9-2.7 1.02-2.93 1.09-3.15 1.13-3.13 1.16-2.8 1.19-2.27 1.22-1.73 1.27-1.39 1.32-1.3 1.38-1.47 1.46-1.79 1.54-2.16 1.62-2.48 1.72-2.65 1.82-2.66 1.9-2.56 1.97-2.46 2.03-2.49 2.05-2.66 2.07-2.9 2.04-2.93 1.98-2.59 1.95-2.01 2.03-1.77 2.39-2.84 2.95M69.39-17.06l.61 3.41.81 2.64.91 2.5.82 2.63.81 2.73.94 2.73 1.15 2.67 1.26 2.64 1.16 2.6.8 2.58.31 2.56-.12 2.54-.3 2.52-.18 2.52.21 2.49.68 2.48 1.03 2.44 1.12 2.42.9 2.39.49 2.36.07 2.35-.21 2.32-.36 2.29-.46 2.24-.62 2.15-.71 1.99-.5 1.79.05 1.68.19 1.87-1.57 2.58" filter="url(#a)"/><path d="m-22.3-80.73-2.57 1.13-2.26 1.06-2.18 1.13-2.12 1.17-2 1.16-1.89 1.17-1.8 1.21-1.74 1.27-1.69 1.31-1.63 1.38-1.61 1.46-1.63 1.57-1.69 1.7-1.74 1.82-1.75 1.89-1.69 1.89-1.57 1.85-1.47 1.82-1.4 1.79-1.34 1.75-1.21 1.62-1 1.38" filter="url(#a)"/><path d="m-24.91-79.41-2.83.92-2.87 1.12-2.68 1.2-2.44 1.18-2.21 1.17-2.01 1.22-1.9 1.28-1.86 1.34-1.94 1.4-2.16 1.49-2.51 1.61-2.96 1.72-3.4 1.82-3.72 1.87-3.84 1.88-3.78 1.87-3.67 1.85-3.61 1.86-3.61 1.91-3.5 2.03-3.2 2.17-2.74 2.3-2.34 2.18-1.96 1.61-1.85.86" filter="url(#a)"/><path d="m-30.06-77.14-2.39.5-5.58 1.08-4.45 1.22-2.59 1.22-1.77 1.25-1.8 1.31-2.18 1.4-2.64 1.47-3.09 1.55-3.47 1.64-3.72 1.74-3.82 1.83-3.76 1.91-3.66 1.98-3.61 2.03-3.8 2.04-4.33 2.05-5.12 2.03-5.81 2-5.96 1.98-5.18 2.02-3.75 2.07-2.61 2.11-3.09 2.2-5.37 3.25M69.9-15.71l3.46 2.09 9.1 2.15 7.87 2.4 3.98 2.51.56 2.51-1.63 2.49-2.52 2.5-2.41 2.56-1.73 2.63-.93 2.68-.21 2.7.41 2.68.96 2.62 1.44 2.57 1.77 2.51 1.9 2.44 1.76 2.37 1.45 2.31 1.11 2.26.91 2.23.88 2.23.98 2.24 1.04 2.24.95 2.22.69 2.19.32 2.15-.03 2.12-.35 2.1-.7 2.08-1.16 2.06-1.59 2.03-1.55 1.92-.71 1.57 2.6.54" filter="url(#a)"/><path d="m-35.35-73.6-3.51.81-6.54 1-6.09 1.3-4.98 1.44-4.34 1.51-3.63 1.57-2.6 1.66-1.67 1.76-1.32 1.86-1.73 1.94-2.7 2-3.98 2.03-5.3 2.05-6.46 2.04-7.13 2.03-6.95 2.03-5.8 2.03-3.9 2.07-2.03 2.14-1.12 2.23-1.71 2.33-3.53 2.38-5.62 2.36-6.83 2.25-6.81 2.34-7.84 3.28" filter="url(#a)"/><path d="m-36.67-72.68-10.79 1.99-2.87 1.7-.76 1.54-1.7 1.55-3.73 1.64-5.46 1.78-5.95 1.87-5.03 1.96-3.4 2.01-2.09 2.04-1.8 2.05-2.58 2.04-3.92 2.03-5.24 2.03-6.05 2.03-6.17 2.08-5.6 2.14-4.56 2.24-3.54 2.31-3.11 2.36-3.56 2.37-4.66 2.33-5.9 2.41-7.16 2.67-8.08 2.71M69.4-18.19l6.59 1.98 2.44 2.57.25 2.54.1 2.56.82 2.65 1.72 2.71 2.36 2.71 2.5 2.68 2.08 2.65 1.31 2.62.46 2.58-.2 2.57-.63 2.55-.82 2.53-.88 2.52-.87 2.5-.78 2.48-.63 2.45-.44 2.43-.2 2.39.03 2.37.28 2.35.52 2.32.74 2.27.86 2.22.77 2.12.43 2-.07 1.88-.45 1.82-.47 1.86-.4 1.99-.88 2.04-1.18 2.07" filter="url(#a)"/><path d="m69.4-18.19 2.72 1.98-.26 2.56-.41 2.54.04 2.56.58 2.65 1.22 2.71 1.93 2.71 2.56 2.67 2.83 2.65 2.62 2.61 1.97 2.59 1.17 2.56.46 2.55.04 2.53-.13 2.52-.12 2.5-.04 2.48.04 2.45.1 2.42.14 2.39.16 2.37.12 2.35.04 2.32-.13 2.28-.34 2.23-.59 2.13-.73 2-.64 1.85-.34 1.77-.08 1.85-.03 2.04-.37 1.87" filter="url(#a)"/><path d="m69.4-18.19 4.6 1.98 3.56 2.58 2.7 2.54 1.15 2.57-.17 2.66-.83 2.71-.83 2.72-.42 2.68.11 2.65.57 2.62.8 2.59.83 2.57.77 2.56.67 2.53.58 2.53.47 2.5.3 2.48.04 2.45-.3 2.43-.65 2.4-.95 2.37-1.1 2.34-1.07 2.32-.84 2.26-.5 2.2-.18 2.11-.01 2.01-.04 1.92-.24 1.87-.46 1.87-.53 1.91-.52 1.94-.76 1.96-1.86 2.11-3.95 3.02M-42.6-68.28l-.94 1.04-1.36 1.4-1.6 1.65-1.81 1.81-1.98 1.93-2.11 1.99-2.14 2.04-2.04 2.06-1.89 2.06-1.74 2.05-1.65 2.05-1.62 2.04-1.65 2.07-1.67 2.11-1.64 2.18-1.58 2.25-1.49 2.32-1.43 2.36-1.37 2.4-1.33 2.43-1.27 2.45-1.16 2.46-1.07 2.42-1 2.34-.96 2.27-.96 2.38-1.13 2.91-1.47 4.46" filter="url(#a)"/><path d="m-42.6-68.28-1.05 1.04-1.68 1.42-1.84 1.66-1.97 1.82-2.09 1.94-2.12 2-2.06 2.05-1.95 2.07-1.87 2.06-1.84 2.07-1.87 2.05-1.95 2.07-2.04 2.08-2.15 2.14-2.24 2.2-2.27 2.27-2.23 2.32-2.12 2.37-1.96 2.41-1.74 2.44-1.52 2.44-1.31 2.45-1.17 2.44-1.14 2.45-1.25 2.47-1.48 2.57-1.76 2.68-1.95 2.76-1.97 2.69-1.9 2.45-2.11 2.24-3.13 2.41" filter="url(#a)"/><path d="m-44.53-66.24-3.19 2.74-3.02 2.38-2.33 2.07-1.66 1.9L-56-55.3l-1.18 1.88-1.23 1.94-1.3 2.02-1.29 2.11-1.2 2.18-1.08 2.23-.96 2.27-.91 2.31-.91 2.35-.98 2.38-1.04 2.4-1.11 2.42-1.12 2.42-1.09 2.42-.99 2.44-.85 2.47-.71 2.52-.58 2.58-.5 2.66-.48 2.72-.49 2.76-.55 2.76-.59 2.73-.57 2.67-.49 2.57-.31 2.47-.07 2.38.19 2.34.42 2.35.53 2.37.46 2.33.12 2.34m32.33-87.73 1.55 2.72-1.13 2.37.41 2.06 1.63 1.89 1.41 1.83.51 1.85-.13 1.91-.1 2 .43 2.09 1.06 2.16 1.43 2.21 1.35 2.25.86 2.28.15 2.32-.53 2.37-.83 2.4-.64 2.41.07 2.4 1.04 2.38 1.95 2.38 2.55 2.39 2.76 2.44 2.69 2.53 2.56 2.62 2.45 2.74 2.31 2.86 2.26 2.94 2.62 2.83 3.62 2.38" filter="url(#a)"/><path d="m-48.6-62-2.35 1.75-2.62 2.06-2.37 2.1L-58.3-54l-2.46 2.09-2.46 2.07-2.27 2.06-1.89 2.05-1.37 2.09-.87 2.15-.51 2.22-.35 2.29-.36 2.35-.49 2.39-.69 2.42-.87 2.44-1.03 2.45-1.13 2.47-1.16 2.47-1.13 2.49-1.05 2.53-.96 2.57-.92 2.61-.94 2.61-1.07 2.6-1.21 2.54-1.3 2.5L-86 2.92l-.93 2.45-.52 2.48-.16 2.53v2.63l.06 2.69.21 2.53-.32 1.81" filter="url(#a)"/><path d="m-50.04-60.31-1.47 1.62-1.42 1.69-1.46 1.73-1.46 1.8-1.48 1.88-1.59 1.99-1.82 2.1-2.08 2.17-2.24 2.21-2.22 2.23-2.04 2.26-1.73 2.31-1.46 2.37-1.3 2.4-1.29 2.41-1.36 2.39-1.42 2.36-1.31 2.33-1.08 2.35-.84 2.41-.85 2.49-1.15 2.58-1.47 2.68-1.32 2.93-1.45 3.57m35.68-55.71-2.27 1.83-1.49 1.75-1.93 1.82-2.39 1.92-2.62 2.03-2.7 2.14-2.71 2.21-2.71 2.25-2.83 2.27-3.2 2.31-3.78 2.35-4.44 2.38-4.93 2.42-5.08 2.42-4.76 2.42-4.03 2.41-3.03 2.43-1.99 2.47-1.15 2.52-.66 2.58-.61 2.66-.97 2.72-1.66 2.75-2.52 2.76-3.31 2.72-3.87 2.65-4.12 2.56-4.17 2.47-4.19 2.38-4.15 2.34-3.76 2.34-2.74 2.35-1.44 2.31-1.08 2.25-1.78 2.16" filter="url(#a)"/><path d="m-55.11-53.4-1.56 2.1-1.51 1.93-1.89 2.16-2.23 2.3-2.34 2.3-2.28 2.28-2.2 2.3-2.19 2.35-2.22 2.41-2.19 2.43-2.02 2.43-1.74 2.43-1.43 2.42-1.22 2.44-1.2 2.48-1.35 2.54-1.61 2.6-1.82 2.66-1.88 2.72-1.72 2.73-1.38 2.73-.96 2.69-.56 2.63-.24 2.55-.03 2.48.16 2.42.3 2.37.39 2.36.37 2.37.18 2.41-.12 2.47-.4 2.57-.41 2.7-.04 2.77.51 2.7.81 2.43.33 2.2" filter="url(#a)"/><path d="m-55.11-53.4-2.28 2.1-1.13 1.93-1.2 2.16-1.44 2.29-1.68 2.3-1.94 2.28-2.18 2.29-2.27 2.36-2.16 2.4-1.88 2.43-1.54 2.43-1.21 2.43-.95 2.42-.74 2.43-.55 2.48-.36 2.53-.16 2.6v2.66l.11 2.71.14 2.74.1 2.74.02 2.69-.09 2.63-.24 2.55-.37 2.48-.5 2.41-.58 2.37-.62 2.35-.61 2.35-.53 2.39-.36 2.45-.1 2.57.24 2.74.51 2.87.56 2.75.82 2.37" filter="url(#a)"/><path d="m-56.37-51.8-1.99 2.4-3.02 2-4.55 1.89-4.94 1.96-4.11 2.1-3.1 2.22-2.69 2.3-2.98 2.36-3.68 2.39-4.47 2.41-5.11 2.42-5.46 2.43-5.41 2.43-4.93 2.43-4.16 2.43-3.31 2.47-2.64 2.56-2.18 2.63-1.98 2.68-2.23 2.61-3.28 2.49-5.06 2.39-6.52 2.42-6.84 2.55-10.65 2.69M-56.37-51.8l-1.8 2.42-1.37 2.03-1.11 1.92-1.02 2-1 2.14-.98 2.25-.95 2.33-.93 2.39-.88 2.42-.84 2.44-.78 2.46-.75 2.46-.72 2.47-.68 2.48-.62 2.5-.56 2.54-.49 2.57-.41 2.6-.33 2.59-.27 2.58-.2 2.55-.14 2.51-.08 2.49v2.49l.08 2.51.15 2.52.23 2.55.29 2.54.35 2.54.4 2.52.45 2.51.53 2.5.61 2.53.71 2.58.8 2.67.73 2.22" filter="url(#a)"/><path d="m-56.92-50.81.42 1.43-1.29 2.1-1.27 2.38-.7 2.33-.16 2.25.11 2.27.15 2.34.08 2.41.09 2.43.21 2.43.42 2.41.62 2.41.73 2.41.71 2.45.64 2.52.59 2.58.64 2.66.73 2.72.81 2.75.76 2.75.61 2.71.43 2.64.4 2.54.58 2.46.92 2.38 1.24 2.34 1.4 2.33 1.45 2.32 1.61 2.31 2.12 2.25 2.82 2.22 2.72 2.22M68.72-21.22l4.32 2.53 1.03 2.45 1.35 2.52 1.34 2.53 1.13 2.58 1.09 2.65 1.07 2.69.91 2.7.61 2.67.28 2.65.07 2.61.04 2.59.18 2.57.44 2.55.75 2.53 1 2.52 1.14 2.5 1.16 2.48 1.1 2.45 1.06 2.42 1.07 2.4 1.16 2.37 1.2 2.35 1.06 2.33.59 2.29-.18 2.25-.95 2.15-1.28 2-.95 1.8-.23 1.68.14 1.88-.35 2.58M-60.26-44.52l-4.25 2.74-1.44 1.83-2.03 2.03-2.31 2.33-1.89 2.47-1.19 2.49-.68 2.46-.46 2.41-.53 2.39-.78 2.41-1.1 2.46-1.4 2.52-1.6 2.6-1.61 2.68-1.42 2.72-1.08 2.75-.73 2.73-.48 2.69-.44 2.62-.56 2.54-.72 2.46-.77 2.4-.62 2.36-.36 2.35-.1 2.35-.02 2.4-.1 2.46-.3 2.57-.47 2.69-.54 2.77-.56 2.69-.62 2.42-.35 2.19" filter="url(#a)"/><path d="m-63.65-37.77-5.93 1.22-4.15 2.49-3.59 2.53-2.83 2.45-1.35 2.44.1 2.46.77 2.46.51 2.46-.42 2.48-1.55 2.53-2.44 2.58-2.83 2.61-2.7 2.61-2.23 2.57-1.7 2.53-1.31 2.5-1.14 2.47-1.19 2.48L-99 8.6l-1.59 2.51-1.79 2.54-1.97 2.53-2.13 2.53-2.27 2.51-2.32 2.51-2.24 2.5-1.93 2.51-1.55 2.51-1.37 2.45-1.49 2.28-1.31 1.89.09 1.2m56.43-74.19-1.23 2.66-.75 2.34-.66 2.34-.68 2.35-.68 2.34-.66 2.36-.61 2.43-.51 2.52-.42 2.62-.32 2.69-.23 2.75-.16 2.76-.1 2.74-.05 2.68v2.61l.05 2.52.12 2.44.18 2.39.24 2.36.31 2.35.35 2.37.4 2.41.45 2.47.53 2.57.63 2.64.73 2.69.82 2.64.89 2.57.96 2.54 1.08 2.71 1.23 3.15m-3.37-75.71-3.07 1.8-2.12 2.27-.15 2.35.4 2.31.08 2.33-.5 2.39-1.07 2.49-1.53 2.59-1.91 2.69-2.18 2.74-2.34 2.77-2.4 2.74-2.35 2.69-2.16 2.6-1.84 2.51-1.39 2.41-.91 2.34-.62 2.32-.68 2.3-1.13 2.31-1.69 2.3-1.95 2.33-1.44 2.47-.13 2.91.29 4.05" filter="url(#a)"/><path d="m-67.05-27.55 1.41 2.45.17 2.26-.71 2.25-.7 2.35-.22 2.5.39 2.62.79 2.71.88 2.76.7 2.78.43 2.75.24 2.68.24 2.59.37 2.49.55 2.41.65 2.35.67 2.31.67 2.31.72 2.32.85 2.36 1.04 2.41 1.26 2.55 1.52 2.73 1.71 2.85 1.61 2.7 1.45 2.34M67.32-26.27l.79 2.28.87 3.18.68 3.21.57 2.93.55 2.7.55 2.59.5 2.53.41 2.5.3 2.49.2 2.51.12 2.56.03 2.61-.05 2.67-.14 2.68-.21 2.67-.26 2.63-.27 2.57-.28 2.52-.29 2.46-.33 2.39-.36 2.3-.42 2.23-.46 2.19-.51 2.21-.54 2.26-.57 2.3-.56 2.27-.57 2.16-.7 2.07-1.1 2.16-1.43 1.98" filter="url(#a)"/><path d="M67.32-26.27 65.46-24l-2.36 3.17-.49 3.2.87 2.92 1.23 2.7 1.02 2.57.63 2.53.21 2.49-.25 2.48-.76 2.49-1.26 2.54-1.67 2.61-1.89 2.66-1.86 2.69-1.63 2.67-1.27 2.62-.92 2.58-.75 2.52-.84 2.47-1.17 2.4-1.58 2.29-1.87 2.18-1.96 2.11-1.94 2.15-2.05 2.33-2.27 2.56-2.13 2.51-1.71 1.66m30.53-70.37 1.4 2.26 2.85 3.17 3.53 3.2 2.91 2.92 1.6 2.69.37 2.57-.41 2.52-.69 2.49-.6 2.48-.29 2.49.16 2.53.65 2.6 1.12 2.66L81.39 11l1.63 2.67 1.53 2.63 1.21 2.57.74 2.52.3 2.48.05 2.41.06 2.29.2 2.15.26 2.05.02 2.09-.34 2.36-.42 2.83.12 3.19" filter="url(#a)"/><path d="m67.19-26.65.92 2.84.79 2.53.7 2.46.68 2.48.66 2.5.6 2.53.51 2.59.42 2.64.33 2.67.3 2.69.34 2.67.44 2.65.59 2.62.72 2.59.74 2.57.59 2.56.31 2.53-.08 2.53-.43 2.5-.68 2.49-.76 2.45-.71 2.43-.56 2.4-.44 2.38-.41 2.35-.48 2.34-.66 2.31-.85 2.27-.97 2.19-.91 2.01-.67 1.71-.38 1.45-.22 1.58m.09-78.51.65.35 2.12 1.91 2.13 2.77 1.92 2.96 2.04 2.87 2.67 2.72 3.85 2.62 5.33 2.55 6.52 2.53 6.8 2.51L107.6.67l3.84 2.56 1.29 2.62-1.13 2.67-2.87 2.67-3.66 2.67-3.58 2.63-2.88 2.58-1.85 2.52-.73 2.46.34 2.38 1.25 2.32L99.49 31l2.14 2.23 2.01 2.22 1.64 2.25 1.26 2.27 1.05 2.25.94 2.19.6 2.13-.26 2.12-1.38 2.13-1.5 2.14.52 2.18" filter="url(#a)"/><path d="m66.63-29.71 1.05 2.91 1.13 2.72 1.26 2.55 1.01 2.46.69 2.45.59 2.46.77 2.49 1.07 2.53 1.26 2.59 1.22 2.64.97 2.66.67 2.64.52 2.62.64 2.6.97 2.57 1.32 2.53 1.4 2.5 1.06 2.47.48 2.47.16 2.47.65 2.55 2.02 3.11M65.95-31.79l3.57 2.18 3.03 2.07 1.71 1.97 1.38 2.22 1.01 2.56.44 2.75.09 2.76.22 2.69.73 2.6 1.34 2.53 1.83 2.48 1.99 2.45L85.12-.1l1.47 2.46 1.17 2.56 1.16 2.68 1.44 2.78 1.76 2.76 1.83 2.56 1.6 2.32 1.01 2.45.82 3.98" filter="url(#a)"/><path d="m64.98-34.2 6.6 2.94 4.69 2.31 1.64 2.38 1.35 2.47 1.77 2.51 1.68 2.5 1.1 2.5.61 2.51.6 2.54 1.01 2.59 1.51 2.62 1.72 2.66L90.74-1l.96 2.66.38 2.65.02 2.62-.04 2.6.17 2.57.49 2.55.8 2.54 1.05 2.53 1.19 2.51 1.17 2.5 1 2.46.68 2.42.36 2.39.17 2.39.34 2.37.85 2.3 1.31 2.24.63 2.46-1.76 3.41M63.87-37.01l.28 2.87.98 2.61.89 2.43.7 2.43.56 2.46.44 2.49.33 2.49.19 2.49.02 2.5-.15 2.53-.26 2.57-.28 2.62-.23 2.65-.13 2.66-.06 2.66-.05 2.64-.1 2.62-.19 2.59-.32 2.57-.44 2.54-.56 2.53-.69 2.53-.81 2.53-.91 2.51-.97 2.46-.96 2.34-.86 2.22-.93 2.4-1.7 3.55" filter="url(#a)"/><path d="m63.35-37.66 2.14 2.4 3.32 2.65 2.57 2.48 1.22 2.26.4 2.22.35 2.34.8 2.54 1.39 2.68 1.94 2.71 2.29 2.69 2.4 2.62 2.21 2.56L86.1-5l1.07 2.48.45 2.48.11 2.51.12 2.58.45 2.67.88 2.73 1.21 2.71 1.34 2.62 1.29 2.52 1.19 2.52.99 2.62.52 2.64-.47 2.46" filter="url(#a)"/><path d="m63.4-38.34 8.61 1.86 6.85 2.42 3.2 2.48.36 2.46-1.05 2.46-.76 2.48.82 2.5 2.79 2.5 4.25 2.51 4.71 2.53 4.19 2.56 3.16 2.59 2.17 2.63 1.59 2.66 1.46 2.67 1.59 2.66 1.74 2.66 1.74 2.63 1.54 2.6 1.17 2.59.74 2.56.29 2.55-.01 2.54-.07 2.51.24 2.5.92 2.46 1.77 2.44 2.41 2.41 2.55 2.39 2.11 2.36 1.44 2.35 1.02 2.33.85 2.35.28 2.37-1.15 2.19-3.02 1.79" filter="url(#a)"/><path d="m62.74-39.49 4.59 1.31 3.27 1.86 2.16 2.23.76 2.37-.14 2.4-.27 2.43.13 2.45.71 2.47 1.29 2.47 1.77 2.48 2.12 2.49 2.33 2.51 2.4 2.55 2.43 2.6 2.52 2.64 2.67 2.66 2.79 2.66L97 3.73l2.39 2.62 1.86 2.6 1.4 2.55 1.19 2.52 1.17 2.48.96 2.49.5 2.37 1.58 1.98" filter="url(#a)"/><path d="m60.17-44.75 1.07 1.91 1.55 2.2 2.34 2.12 2.88 2.16 2.71 2.25 2 2.33 1.16 2.39.62 2.43.53 2.45.82 2.48 1.27 2.48 1.65 2.5 1.81 2.5 1.73 2.54 1.52 2.57 1.31 2.6 1.17 2.65 1.13 2.66 1.1 2.67 1.12 2.65 1.22 2.63 1.47 2.6 1.81 2.57 2.08 2.54 2.03 2.51 1.58 2.52.97 2.55.44 2.64-.15 2.84-1.08 2.96" filter="url(#a)"/><path d="m59.06-47.09 2.54 2.88 3.77 2.25 3.06 2.13 1.82 2.24 1 2.35.72 2.4.83 2.38 1.16 2.37 1.55 2.39 1.87 2.47 2.05 2.55 2.1 2.62 2.07 2.67 2.02 2.66 1.97 2.64 1.9 2.6 1.77 2.57 1.55 2.55L94.07.18l.94 2.58.64 2.62.45 2.66.4 2.67.5 2.67.72 2.65 1.02 2.61 1.29 2.55 1.45 2.5 1.41 2.42 1.22 2.32.89 2.22.47 2.14-.01 2.18-.49 2.34-.8 2.57-.72 2.53-.79 1.69" filter="url(#a)"/><path d="m57.98-48.5 3.95 2.96 4.2 2.46 2.04 2.27.43 2.17.02 2.17.35 2.25.91 2.31 1.37 2.37 1.64 2.41 1.74 2.45 1.74 2.46 1.76 2.47 1.81 2.48 1.89 2.49 1.92 2.52 1.9 2.54 1.84 2.6 1.79 2.64L91-1.81 92.58.86l1.39 2.65 1.24 2.63 1.35 2.62 1.72 2.56 1.95 2.45 1.67 2.5 2.38 3.18M57.31-49.91l.61 1.99.06 2.4-1.01 2.38-.96 2.28-.02 2.23.91 2.23 1.31 2.28 1.13 2.33.65 2.39.13 2.43-.22 2.47-.4 2.48-.5 2.5-.6 2.51-.73 2.53-.87 2.55-.94 2.59-.91 2.62-.75 2.65-.57 2.66-.47 2.67-.53 2.65-.75 2.64-1.1 2.61-1.44 2.59-1.68 2.57-1.74 2.55-1.67 2.54-1.54 2.54-1.51 2.52-1.67 2.47-1.96 2.4-2.16 2.37-2.05 2.49-1.55 2.86-.74 2.94" filter="url(#a)"/><path d="m56.59-51.11 2.5 1.83 3.76 2.33 3.82 2.37 2.82 2.27 1.65 2.23.94 2.26.78 2.31 1.04 2.35 1.5 2.35 2.04 2.33 2.63 2.35 3.2 2.41 3.78 2.51 4.36 2.61 4.95 2.66 5.51 2.68 5.96 2.63 6.19 2.59 6.07 2.52 5.58 2.48 4.8 2.43 3.94 2.42 3.24 2.5 2.87 2.72 2.84 3.03 2.97 3.2 1.85 2.9" filter="url(#a)"/><path d="m55.36-53.23 2.32 1.93 2.75 2.06 3.05 2.26 3.16 2.31 3.09 2.26 3.26 2.24 3.74 2.27 4.25 2.31 4.35 2.35 3.87 2.34 2.91 2.33 1.75 2.35.68 2.41.05 2.5.01 2.61.66 2.67 1.87 2.67 3.33 2.64 4.69 2.59 5.63 2.53 5.86 2.48 5.35 2.41 4.22 2.37 2.95 2.43 2.29 2.7 3.1 3.19 5.74 3.48" filter="url(#a)"/><path d="m54.65-54.48 1.57 1.46L60-51.25l5.98 2.03 5.51 2.2 3.19 2.25 1.06 2.25.28 2.24.65 2.27 1.47 2.31 2.13 2.34 2.45 2.33 2.55 2.32 2.68 2.34 3.02 2.39 3.58 2.5 4.19 2.61 4.61 2.67 4.56 2.69 4.01 2.64 3.17 2.6 2.49 2.54 2.41 2.49 2.98 2.38 3.88 2.22 4.8 2.03 7.09 1.7" filter="url(#a)"/><path d="m52.37-57.23 3.71 2.21 1.89 1.86 1.47 1.89 1.68 2.04 1.89 2.17 1.83 2.23 1.55 2.25 1.25 2.25 1.07 2.27 1.07 2.31 1.2 2.33 1.35 2.34 1.43 2.33 1.43 2.34 1.4 2.4 1.38 2.5 1.41 2.6 1.47 2.68 1.5 2.69 1.53 2.65 1.5 2.59 1.39 2.55 1.17 2.49.9 2.39.73 2.23.8 2.03.94 1.7" filter="url(#a)"/><path d="m51.38-58.79 1.17 1.8.91 1.9.28 1.88.14 1.94.51 2.05 1 2.16 1.22 2.22 1.11 2.24.79 2.27.45 2.28.19 2.32.03 2.33-.06 2.34-.17 2.35-.31 2.37-.49 2.43-.66 2.51-.76 2.6-.75 2.66-.67 2.67-.57 2.65-.58 2.6-.71 2.55-.95 2.48-1.24 2.43-1.48 2.39-1.64 2.44-1.64 2.7-1.52 3.19-.43 3.5" filter="url(#a)"/><path d="m50.09-60.32 1.33 1.58 1.63 1.78 1.81 1.85 1.91 1.89 2.06 1.97 2.25 2.07 2.46 2.15 2.68 2.22 2.82 2.25 2.87 2.27 2.76 2.3 2.53 2.32 2.18 2.35 1.83 2.35 1.51 2.37 1.27 2.41 1.1 2.46.92 2.52.73 2.6.5 2.64.31 2.66.25 2.64.39 2.6.7 2.56 1.04 2.52 1.33 2.51 1.43 2.53 1.35 2.6 1.17 2.7.97 2.79.83 2.78.86 2.63 1.15 2.39 1.57 2.49.4 4.02" filter="url(#a)"/><path d="m45.8-65.03 3.83 1.84 2.81 1.84 1.6 1.77 1.15 1.73 1.17 1.77 1.36 1.84 1.62 1.91 1.88 1.98 2.08 2.05 2.12 2.12 1.98 2.17 1.71 2.19 1.36 2.18 1.08 2.2 1.02 2.21 1.23 2.26 1.67 2.32 2.15 2.36 2.44 2.42 2.28 2.47 1.69 2.44.96 2.25.96 1.65" filter="url(#a)"/><path d="m44.04-66.73 7.97 1.85 1.84 1.86 1.64 1.92 1.91 1.91 1.74 1.87 1.39 1.87 1.25 1.88 1.43 1.93 1.86 2.01 2.43 2.09 2.99 2.16 3.32 2.19 3.3 2.22 2.87 2.24 2.22 2.29 1.69 2.35 1.61 2.36 2.06 2.28 2.8 2.14 3.5 2.02 3.99 2.2 4.15 2.97 3.16 4.41" filter="url(#a)"/><path d="m44.02-66.76 3.1 1.74 2.5 1.82 1.56 1.82 1.39 1.79 1.54 1.78 1.66 1.82 1.64 1.87 1.5 1.94 1.37 2.02 1.28 2.08 1.23 2.14 1.2 2.18 1.16 2.21 1.11 2.23 1.08 2.24 1.09 2.28 1.18 2.31 1.29 2.36 1.43 2.39 1.53 2.43 1.56 2.46 1.5 2.48 1.4 2.48 1.3 2.5 1.22 2.5 1.15 2.53 1.03 2.6.81 2.7.56 2.78.39 2.68.45 2.4.93 2.63" filter="url(#a)"/><path d="m43.18-67.68 1.75 1.27 1.61 1.63 1.62 1.82 1.65 1.9 1.68 1.91 1.76 1.9 1.79 1.9 1.78 1.93 1.67 1.99 1.52 2.05 1.38 2.12 1.29 2.18 1.29 2.22 1.34 2.26 1.42 2.29L68.21-36l1.49 2.33 1.46 2.34 1.38 2.36 1.27 2.37 1.14 2.43 1.03 2.51.97 2.6.94 2.67.94 2.69.97 2.67.98 2.62.99 2.57.94 2.51.88 2.41.77 2.24.51 2.05-.15 1.72" filter="url(#a)"/><path d="m43.18-67.68 1.26 1.27 1.59 1.64 1.78 1.83 1.82 1.9 1.77 1.91 1.66 1.91 1.52 1.91 1.38 1.94 1.27 1.99 1.17 2.07 1.11 2.12L60.59-45l1.06 2.23 1.06 2.26 1.07 2.29 1.06 2.32 1.06 2.34 1.03 2.35 1 2.37.94 2.4.87 2.45.79 2.52.68 2.6.56 2.65.45 2.67.35 2.65.28 2.61.24 2.56.23 2.51.23 2.47.23 2.45.2 2.53.12 2.73-.02 3.04-.14 3.23-.17 2.93" filter="url(#a)"/><path d="m39.5-70.76 2.9 2.34 2.06 1.8 1.9 1.76 1.9 1.82 1.94 1.86 1.94 1.89 1.98 1.89 2.09 1.88 2.37 1.92 2.77 1.95 3.16 2.03 3.33 2.1 3.2 2.16 2.74 2.2 2.12 2.23 1.57 2.26 1.24 2.31 1.22 2.33 1.44 2.34 1.69 2.29 1.87 2.25 1.88 2.26 1.88 2.41 1.93 2.75 2.04 2.99 2 2.67 2.14 1.31" filter="url(#a)"/><path d="m35.05-73.96 1.42.59 2.03 1.33 2.57 1.6 2.77 1.69 2.65 1.72 2.4 1.73 2.25 1.75 2.21 1.75 2.23 1.75 2.19 1.77 2.12 1.79 2.07 1.83 2.1 1.89 2.18 1.95 2.27 2.03 2.34 2.1 2.4 2.16 2.56 2.19 2.82 2.18 3.05 2.15 3.09 2.18 2.89 2.3 3.09 2.34 4.6 1.48" filter="url(#a)"/><path d="m35.05-73.96 1 .61 1.86 1.36 2.02 1.62 2 1.72 1.95 1.74 1.93 1.76 1.94 1.77 1.94 1.77 1.92 1.79 1.89 1.8 1.85 1.84 1.78 1.89 1.71 1.94 1.63 2.01L62-48.27l1.43 2.12 1.31 2.17 1.21 2.2 1.13 2.22 1.08 2.25 1.08 2.28 1.1 2.31 1.12 2.35 1.12 2.4 1.09 2.44 1.04 2.46.99 2.48.94 2.49.87 2.5.76 2.48.66 2.49.64 2.56.79 2.81.95 3.27.52 3.31" filter="url(#a)"/><path d="m33.45-74.87 1.45.94 2.06 1.37 1.97 1.34 1.88 1.37 1.85 1.47 1.88 1.58 1.88 1.69 1.87 1.76 1.82 1.81 1.75 1.85 1.69 1.86 1.64 1.86 1.59 1.88 1.52 1.91 1.43 1.98 1.34 2.07 1.26 2.15 1.22 2.2 1.25 2.17 1.33 2.12 1.44 2.17 1.58 2.42 1.88 3.11" filter="url(#a)"/><path d="m33.45-74.87 1.29.94 1.77 1.37 1.43 1.33 1.28 1.37 1.33 1.46 1.42 1.58 1.41 1.68 1.28 1.75 1.12 1.81.95 1.85.84 1.86.69 1.85.46 1.87.11 1.9-.3 1.97-.61 2.06-.66 2.16-.49 2.21-.31 2.16-.38 2.05-.5 1.99-.59 1.98" filter="url(#a)"/><path d="m24.98-79.63 3.54 1.59 2.41 1.29 1.95 1.15 1.81 1.12 1.84 1.2 1.93 1.34 1.98 1.47 1.96 1.59 1.9 1.66 1.82 1.71 1.73 1.73 1.67 1.75 1.63 1.75 1.6 1.78 1.62 1.79L56-54.88 57.63-53l1.61 1.94 1.55 2.02 1.52 2.1 1.51 2.19 1.53 2.22 1.49 2.18 1.34 2.02 1.14 1.9 1.36 2.23" filter="url(#a)"/><path d="m25.62-79.43 2.31 1.07 2.99 1.15 2.37 1.08 1.94 1.08 1.91 1.15 2.03 1.23 2.04 1.3L43.14-70l1.77 1.46 1.72 1.56 1.82 1.65 2.05 1.73 2.27 1.79 2.39 1.84 2.32 1.85 2.07 1.86 1.78 1.87 1.61 1.88 1.69 1.94 1.94 2.06 2.15 2.23 2.1 2.31 1.84 2.17 1.71 1.67" filter="url(#a)"/><path d="m17.19-82.65 2.79.76 2.7.87 2.31.92 2.5 1 2.86 1.08 3.18 1.13 3.41 1.15 3.69 1.19 3.94 1.26 4.08 1.35 4.01 1.46 3.66 1.55 3.14 1.64 2.52 1.69 1.96 1.73 1.58 1.75 1.5 1.77 1.72 1.78 2.17 1.81 2.7 1.85 3.08 1.89 3.2 1.96 3.08 2.03 2.84 2.11 2.68 2.18 2.76 2.21 3.18 2.19 3.79 2.14 4.14 2.17 3.66 2.53 2.75 3.39M13.55-83.48l-1.39-.31-1.94-.36-2.16-.34-2.14-.24-2.09-.14-2.13-.06-2.21.02-2.29.08-2.33.15-2.31.2-2.29.26-2.34.32-2.42.38-2.57.45-2.79.55-3.07.64-3.46.75-3.86.87-4.16.95-4.24 1.05-4.11 1.17-3.95 1.28-3.21 1.03" filter="url(#a)"/><path d="M13.82-83.28 11-83.94l-2.37-.46-1.97-.27-1.93-.14-2.15-.07-2.44.01-2.68.08-2.85.15-2.95.22-3.03.3-3.08.38-3.17.43-3.25.51-3.28.57-3.27.64-3.18.72-3.07.8-3.01.88-3.07.96-3.29 1.04-3.65 1.1-4.06 1.15-4.39 1.2-4.55 1.23-4.48 1.29-4.3 1.34-4.13 1.4-4.09 1.47-4.25 1.54-4.51 1.63-4.94 1.76-5.98 1.94-9.31 2.32" filter="url(#a)"/><path d="m12.27-83.74-1.98-.42-2.48-.37-2.25-.25-2.07-.13-2.06-.03-2.18.03-2.35.1-2.51.16-2.63.22-2.71.29-2.79.35-2.94.42-3.2.5-3.61.6-4.14.69-4.67.8-5.09.89-5.22.98-5.03 1.05-4.54 1.09-3.94 1.14-3.5 1.17-3.4 1.2-3.68 1.24-4.23 1.29-4.88 1.31-5.51 1.31-5.95 1.31-6.04 1.43-6.95 2.03" filter="url(#a)"/><path d="m7.8-84.72-1.76-.13-1.57-.05-2.21-.04-2.73.01-3.01.08-3.12.15-3.14.22-3.08.3-2.96.37-2.79.43-2.72.49-2.83.56-3.17.61-3.67.69-4.17.77-4.51.87-4.66.95-4.65 1.04-4.64 1.1-4.73 1.15-4.98 1.16-5.42 1.15-5.99 1.18-6.26 1.44-4.08 1.94" filter="url(#a)"/><path d="m4.9-84.95-.22.03-1.97-.03H.29l-2.47.08-2.43.15-2.4.24-2.4.3-2.38.38-2.34.44-2.27.5-2.19.57-2.15.62-2.17.71-2.26.78-2.44.87-2.6.97-2.71 1.04-2.71 1.1-2.62 1.14-2.5 1.17-2.45 1.2-2.47 1.25-2.54 1.33-2.49 1.43-2.26 1.41-2.51 1.42" filter="url(#a)"/><path d="m2.44-84.95-2.54-.08-2.8.1-2.72.18-2.54.25-2.38.33-2.33.41-2.36.46-2.44.53-2.52.6-2.59.66-2.66.74-2.75.83-2.87.91-2.98 1-3.06 1.06-3.07 1.12-3.01 1.17-2.89 1.21-2.77 1.27-2.7 1.32-2.73 1.38-2.86 1.45-3.11 1.52-3.4 1.61-3.7 1.71-3.93 1.8-4.05 1.9-3.99 1.97-3.7 2.04-3.28 2.08-2.94 2.11-2.97 2.09-3.61 1.97-4.7 1.72-5.69 1.64" filter="url(#a)"/><path d="M2.44-84.95 0-85.03l-2.5.1-2.43.17-2.45.26-2.58.32-2.79.4-3.11.46-3.48.53-3.84.58-4.1.66-4.22.73-4.14.82-3.89.9-3.54.98-3.16 1.06-2.88 1.11-2.74 1.16-2.81 1.21-3.06 1.25-3.49 1.3-4.03 1.35-4.57 1.43-4.97 1.49-5.11 1.58-5.04 1.67-4.96 1.79-5.26 1.91-5.99 1.98-6.54 2.02-5.72 1.97-3.3 2.04" filter="url(#a)"/><path d="m2.44-84.95-2.53-.08-2.76.1-2.73.17-2.97.24-3.29.33-3.39.39-3.17.45-2.81.52-2.56.57-2.54.64-2.73.71-3.03.8-3.37.88-3.74.98-4.18 1.04-4.67 1.11-5.11 1.15-5.33 1.18-5.29 1.22-5.18 1.26-5.4 1.33-6.22 1.39-7.25 1.44-7.37 1.48-5.91 1.62-4.12 2.03" filter="url(#a)"/><path d="m2.1-84.97-2.51-.01-2.34.09-2.27.17-2.18.25-2.12.31-2.11.37-2.13.44-2.15.53-2.2.63-2.27.74-2.35.83-2.43.93-2.51 1.01-2.55 1.07-2.55 1.12-2.51 1.16-2.44 1.19-2.35 1.23-2.27 1.27-2.21 1.33-2.2 1.39-2.22 1.48-2.29 1.57-2.37 1.69-2.42 1.8-2.4 1.88-2.27 1.9-2.1 1.89-1.94 1.85-1.88 1.82-1.89 1.79-1.8 1.64-1.41 1.41" filter="url(#a)"/><path d="m2.1-84.97-2.51-.01-2.32.08-2.27.17-2.21.24-2.22.3-2.29.35-2.37.43-2.41.5-2.41.59-2.37.71-2.38.81-2.46.91-2.6.99-2.79 1.06-2.95 1.1-3.02 1.14-2.97 1.15-2.8 1.19-2.58 1.23-2.39 1.3-2.28 1.31-2.32 1.27-2.34 1.16-1.62.75" filter="url(#a)"/></g><g fill="none" stroke="#000"><circle cx="11.274" cy="15.466" r="1.792" filter="url(#a)"/><circle cx="9.902" cy="12.634" r="1.094" filter="url(#a)"/><circle cx="8.318" cy="15.086" r="2.916" filter="url(#a)"/><circle cx="11.582" cy="13.578" r="1.754" filter="url(#a)"/><circle cx="9.054" cy="14.61" r="1.186" filter="url(#a)"/><circle cx="10.978" cy="13.798" r="2.904" filter="url(#a)"/><circle cx="10.806" cy="15.426" r="2.074" filter="url(#a)"/><circle cx="10.394" cy="12.898" r="1.842" filter="url(#a)"/><circle cx="11.854" cy="14.006" r="1.598" filter="url(#a)"/><circle cx="10.306" cy="12.134" r="1.142" filter="url(#a)"/><circle cx="-9.874" cy="9.716" r="2.438" filter="url(#a)"/><circle cx="-12.118" cy="12.04" r="1.546" filter="url(#a)"/><circle cx="-12.15" cy="10.48" r="2.432" filter="url(#a)"/><circle cx="-8.662" cy="10.212" r="2.614" filter="url(#a)"/><circle cx="-9.958" cy="10.58" r="1.048" filter="url(#a)"/><circle cx="-11.598" cy="8.904" r="1.754" filter="url(#a)"/><circle cx="-11.378" cy="9.156" r="2.84" filter="url(#a)"/><circle cx="-12.29" cy="9.728" r="1.678" filter="url(#a)"/><circle cx="-10.126" cy="10.384" r="2.56" filter="url(#a)"/><circle cx="-9.722" cy="10.94" r="1.412" filter="url(#a)"/></g><path fill="#D77F8C" stroke="#000" stroke-linejoin="round" stroke-width="3" d="m-16.21 36.59.17 1.43.18 1.39.19 1.35.2 1.3.21 1.26.21 1.21.22 1.17.23 1.13.23 1.09.24 1.04.25 1.01.26.97.26.92.27.89.27.85.28.82.29.77.3.74.3.7.3.67.31.63.32.6.32.56.33.53.34.5.33.47.35.43.35.4.35.38.36.34.36.31.37.29.37.25.37.23.38.2.38.17.39.15.39.12.39.09.4.08.4.04.41.03h.4l.41-.03.41-.04.42-.06.42-.09.42-.11.42-.12.42-.15.43-.16.43-.19.43-.19.43-.22.43-.24.44-.24.43-.27.44-.28.44-.29.44-.31.44-.32.44-.34.44-.34.44-.36.45-.37.44-.38.44-.39.44-.4.44-.4.45-.42.44-.42.44-.43.44-.44.44-.45.44-.45.43-.45.44-.46.43-.46.44-.47.43-.47.43-.47.43-.48.42-.47.43-.48.42-.47.42-.48.42-.48.41-.47.42-.47.4-.47.41-.47.4-.46.41-.46.39-.45.4-.45.39-.45.38-.43.39-.43.38-.43-.38.24-.37.24-.37.24-.37.24-.37.25-.37.26-.37.25-.37.26-.37.26-.37.26-.37.27-.37.26-.37.27-.37.27-.37.26-.37.27-.37.27-.37.26-.37.27-.37.26-.37.26-.37.26-.37.25-.37.26-.37.25-.37.24-.37.25-.37.24-.37.23-.37.23-.37.22-.37.22-.37.21-.37.21-.37.2-.37.19-.37.19-.37.18-.37.17-.37.16-.38.15-.37.15-.37.13-.37.13-.37.12-.37.1-.37.1-.37.08-.37.08-.37.06-.37.05-.37.03-.37.03-.37.01H.45l-.37-.02-.37-.02-.37-.05-.37-.06-.37-.07-.37-.09-.37-.1-.37-.12-.37-.14-.37-.15-.37-.17-.37-.19-.37-.2-.37-.22-.37-.24-.37-.26-.37-.28-.37-.3-.37-.32-.37-.33-.37-.36-.37-.38-.37-.4-.37-.42-.37-.44-.38-.47-.37-.48-.37-.51-.37-.53-.37-.56-.37-.58-.37-.6-.37-.63-.37-.65-.37-.68-.37-.7-.37-.73-.37-.76-.37-.78-.37-.81-.37-.83-.37-.86-.37-.89-.37-.92" filter="url(#a)"/></svg>