<svg xmlns="http://www.w3.org/2000/svg" width="500" height="500" viewBox="-100 -100 200 200"><defs><clipPath id="c"><path d="m32.72-2.44-.03-.37-.06-.37-.1-.36-.14-.37-.18-.36-.22-.36-.26-.36-.3-.36-.33-.36-.38-.35-.42-.35-.46-.36-.49-.34-.53-.35-.57-.34-.45-.36-.51-.36-.58-.37-.64-.37-.7-.36-.77-.37-.82-.37-.88-.36-.94-.36-.98-.35-1.03-.35-1.07-.33-1.11-.33-1.15-.32-1.17-.3-1.21-.29-1.23-.28-1.25-.25-1.26-.24-1.28-.23-1.29-.2-1.29-.19-1.29-.16-1.29-.14-1.29-.12-1.27-.1-1.26-.08-1.25-.05-1.23-.03h-1.21l-1.19.01-1.16.04-1.14.07-1.11.08-1.08.11-1.04.13-1.01.15-.98.17-.95.19-.91.21-.87.22-.84.25-.81.25-.77.28-.74.28-.7.3-.68.31-.64.32-.61.32-.59.34-.56.34-.53.34-.51.36-.48.37-.46.37-.42.38-.41.39-.38.4-.36.39-.33.41-.32.41-.29.41-.27.41-.26.42.42 8.03.31.48.32.48.33.47.35.48.36.47.37.46.38.47.4.46.41.46.43.45.44.44.46.45.47.43.48.43.51.42.52.42.53.41.56.41.57.39.59.39.61.38.63.37.65.36.67.34.69.33.71.31.73.29.75.28.77.25.79.24.8.21.83.2.84.17.86.15.88.12.89.1.91.08.92.05.94.02h.94l.96-.03.97-.05.97-.08.98-.1.99-.14.99-.15 1-.19 1-.2.99-.23 1-.26.99-.28.99-.3.98-.32.97-.34.96-.36.96-.38.94-.39.93-.42.91-.42.89-.44.88-.45.86-.46.83-.47.82-.48.75-.38.74-.38.73-.39.71-.4.7-.4.68-.4.66-.41.65-.4.63-.41.62-.41.59-.4.58-.41.55-.4.53-.39.52-.39"/></clipPath><clipPath id="b"><path d="m-30.21-.19-.19-.54-.14-.53-.09-.51-.04-.5.01-.49.06-.47.11-.46.17-.45.2-.44.26-.42.31-.42.35-.4.39-.39.44-.38.49-.37.36-.4.44-.39.51-.38.57-.37.65-.37.71-.36.77-.34.83-.34.89-.33.94-.31.98-.31 1.04-.29 1.07-.27 1.12-.26 1.15-.25 1.17-.23 1.21-.22 1.22-.2 1.25-.18 1.25-.17 1.27-.14 1.27-.13 1.28-.11 1.27-.09 1.28-.08 1.26-.05 1.25-.04 1.24-.02h1.22l1.2.02 1.19.03 1.15.06 1.13.07 1.11.08 1.07.1 1.05.12 1.01.13.98.15.94.16.92.17.87.19.85.19.81.21.77.21.75.23.71.23.68.23.65.24.62.25.6.24.57.25.54.26.52.26.49.26.46.27.44.27.42.28.39.27.38.28.34.28.33.28.31.28.29.28.27.27L24.97.38l-.33.36-.33.36-.35.36-.35.36-.37.36-.37.36-.39.37-.4.37-.41.37-.42.36-.43.37-.44.38-.46.37-.46.37-.48.37-.48.37-.51.37-.51.38-.53.37-.55.37-.56.37-.57.37-.59.37-.6.36-.61.36-.63.35-.65.35-.66.33-.67.33-.69.32-.7.31-.71.29-.73.29-.74.26-.76.26-.77.23-.78.22-.79.2-.81.18-.81.16-.83.13-.84.12-.85.08-.85.07-.87.03-.88.01-.88-.01-.89-.05-.9-.08-.91-.1-.91-.14-.91-.17-.92-.2-.92-.22-.92-.27-.93-.29-.92-.32-.93-.36-.92-.38-.92-.42-.91-.44-.91-.47-.91-.5-.89-.52-.77-.36-.76-.37-.76-.39-.75-.4-.73-.42-.73-.43-.72-.43-.71-.45-.7-.46-.68-.46-.66-.47-.66-.48-.63-.48-.62-.48-.59-.49"/></clipPath><filter id="a"><feTurbulence baseFrequency=".05" numOctaves="3" result="noise" type="noise"/><feDisplacementMap in="SourceGraphic" in2="noise" scale="2"/></filter></defs><rect width="100%" height="100%" x="-100" y="-100" fill="#E0B0FF"/><path fill="#CD5C5C" stroke="#000" stroke-linejoin="round" stroke-width="1.667" d="m70.99.31.03.41.03 2.99-.18.94.13.16-.04 1.22-.23 3.33.09-.89-.52 4.46.02.79-.06-1.38-.57 5.12.23-2.01-.79 4.44-.13 1.28-.17 1.37-.34.24-.26 1.85-.11.84-.37 1.06-.14.33-.65 2.84-.65 2.06-.08.54.11-.08-.12.75-1.25 3.47-.01.1-.73 1.36-.11.43-1.01 2.6-.78 2.31-.76 1.91-.11.1-.7 1.42-.18.18-.92 1.96-.75 1.09-.69 1.56.86-1.21-2.55 4.14.44-.21-1.3 1.61-.05.52-.96 1.52-1.41 1.65-.42.82.05-.42-1.04 1.86-1.15 1.28.09-.48-1.39 1.79-.64 1.37-.98.64-.94 1.64-.81.85-.92.68-1.48 1.67-.09-.05-.09.15-2.52 2.41.91-.93-.98.87-1.49 1.59.02-.12-1.55 1.05-2.46 1.98-.02-.39-1.19 1.36-1.22.47-.43.59-1.27.53-2.42 1.51.43-.2-.32.22-1.16.51-2.48 1.38-.53.18-.2.09-2.23 1.16-1.25.4.53-.2-2.78 1.25-.16-.29-1.09.44-.6.47-.96.21-1.76.44.11-.08-2.12.58-.26.17-.14-.15-1.94.32-1.74.35-1.01.17-2.63.4-.78-.22-.28.3-1.02-.15-1.51.14-.94.07-1.22-.17-.71.16-.64-.04-1.97-.43.14.16-3.46-.18-1.18-.5-.19-.02 1.04.22-4.01-.76-.37.11-.81-.07-.37-.47-2.42-.34-.66-.49-.2-.08-1.02-.33-2.22-.64.12.22-2.41-.95-1.7-.92-.96-.56-.62-.01-1.08-.83.11-.02-2.29-.96-.27-.41-.34-.22-1.14-.34-1.57-1.24-.75-.43-.53-.21-1.66-1.08-2.26-2.2-.72-.46.02.2-1.22-.98-.29-.07-.81-.7-.95-.81-.84-1.14-2.26-1.96.26.19-1.66-2.07.15.29-1.24-1.41-1.66-1.75.5.35-1.09-1.31-1.88-1.89.81.72-1.63-2.46-.64-.75.32.81-1.62-2.34-.99-1.67-1.13-2.23.73 1.48-1.36-2.02-1.22-1.96.28-.13-1.63-2.59.04-.08-.88-1.98-.22-.16-.93-2.02-.24-.29-1.38-2.93 1.15 1.97-1.78-4.5.59 1.63-1.26-3.37-.74-1.4.12.4-.79-3.15.15.78-.9-3.46-.21.27-.17-.53-1.15-4.97.43 1.86-.53-2.09-.47-2.86-.42-.53-.33-2.04-.22-1.4-.32-1.86-.02-1.04-.15-.65.12.3-.45-2.88-.14-.66.05-.54-.08-1.23-.22-3.12.08-.97-.23-1.6-.17-2.11.09-.8.09-2.41-.19-1.32.12.06.14-2.15-.11-1.99.39-2.2-.11 1.85.12-4.03.08 1.18.14-2.15.2-2.09.22-2.61.34-1.54.23-.71.24-1.51.32-1.92.45-1.86-.43 1.06.57-2.44.67-2.51-.22.71.42-1.53.86-3.33-.11.97 1.19-3.95.38-.79-.63 1.16 1.71-4.29-.91 1.79.26-.48 1.16-3.39 1.04-2.03.39-1.33-.15.7.31-.77 1.01-2.11 1.06-1.77.37-.69.64-1.64.43-1.38 1.1-1.42.11-.16.46-.82.62-1.02 1.52-2.19.72-1.16.23-.67.75-.43 1.23-1.75 1.81-2.86-.45.91.43-.92.94-.7 1.18-1.5.5-.71-.41.23 3.76-3.75-1.1.86.89-1.01 1.76-1.3-.31.44 1.23-1.33 1.4-1.3.57-.28 1.87-1.9-.34.71.81-.63 2.29-1.81 1.65-1.47-.88.62 2.73-1.72-1.21.6 2.59-1.09 1.88-1.21-1.02.38 2.06-.9.77-.62 2.71-1.17-.55.13 1.91-.71.64-.01-.28-.24 1.94-.58 1.93-.86.48-.15.1-.07.68-.25 2.24-.33.89-.45 2.57-.49 1.22-.4.37.02-1.45.45 3.62-.76-.37.17 2.03-.15 1.68-.26h-.04l1.43.01.83.04 2.48-.23.93.01.67.13 2.06-.03-.67.29 1.53-.18 2.71.32.67.22-.13.02 1.1.05 1.63.35.49.14 2.02.68 1.16-.05.38.14.1.16 2.55.59 1.54.69-.43.05 1.51.41.05-.25 3.27 1.72-.02-.28.69.6.58.33.75.11 3.23 1.67.94.84-1.29-1.04 3.36 2.37 1.24.81-1.44-1.11 2.22 1.49 1.26.75-.24.05.87.69 1.82 1.58 1.58.9.03.68.86.17 1.41 1.13.73.86 1.52 1.49-.25.1.44-.12 1.87 2.4.2.25 2.07 2 .94 1.42-.88-1.27.92 1.13.74 1.03 1.15 1.65 1.39 1.88 1.22 1.46 1.24 1.82-.05.09 1.06 1.32-1.33-1.4 2.06 3.49.02-.52.38.84 1.11 1.83 1.61 3.08.75 1.94-.33-1.18.58 1.16.69 1.77.68 1.42.14.77 1.14 2.71.36.58.41.81.14.75.19.83 1.06 3.38-.15-.31.97 2.35.47 1.8.11.62-.02-.24.86 3.95-.19-.78.94 3.26-.32-.67.17.59.55 3.57.73 2.8-.1.9.31 1.11-.18-.05.43 2.59.13 2.03-.05-.54.31 1.77.02 1.12.09 1.45.01 1.48.14 1.67-.09-.23-.03 3.25.03.41" filter="url(#a)"/><path fill="#fff" d="m-30.21-.19-.19-.54-.14-.53-.09-.51-.04-.5.01-.49.06-.47.11-.46.17-.45.2-.44.26-.42.31-.42.35-.4.39-.39.44-.38.49-.37.36-.4.44-.39.51-.38.57-.37.65-.37.71-.36.77-.34.83-.34.89-.33.94-.31.98-.31 1.04-.29 1.07-.27 1.12-.26 1.15-.25 1.17-.23 1.21-.22 1.22-.2 1.25-.18 1.25-.17 1.27-.14 1.27-.13 1.28-.11 1.27-.09 1.28-.08 1.26-.05 1.25-.04 1.24-.02h1.22l1.2.02 1.19.03 1.15.06 1.13.07 1.11.08 1.07.1 1.05.12 1.01.13.98.15.94.16.92.17.87.19.85.19.81.21.77.21.75.23.71.23.68.23.65.24.62.25.6.24.57.25.54.26.52.26.49.26.46.27.44.27.42.28.39.27.38.28.34.28.33.28.31.28.29.28.27.27L24.97.38l-.33.36-.33.36-.35.36-.35.36-.37.36-.37.36-.39.37-.4.37-.41.37-.42.36-.43.37-.44.38-.46.37-.46.37-.48.37-.48.37-.51.37-.51.38-.53.37-.55.37-.56.37-.57.37-.59.37-.6.36-.61.36-.63.35-.65.35-.66.33-.67.33-.69.32-.7.31-.71.29-.73.29-.74.26-.76.26-.77.23-.78.22-.79.2-.81.18-.81.16-.83.13-.84.12-.85.08-.85.07-.87.03-.88.01-.88-.01-.89-.05-.9-.08-.91-.1-.91-.14-.91-.17-.92-.2-.92-.22-.92-.27-.93-.29-.92-.32-.93-.36-.92-.38-.92-.42-.91-.44-.91-.47-.91-.5-.89-.52-.77-.36-.76-.37-.76-.39-.75-.4-.73-.42-.73-.43-.72-.43-.71-.45-.7-.46-.68-.46-.66-.47-.66-.48-.63-.48-.62-.48-.59-.49" filter="url(#a)" transform="translate(38.48 -22.41)"/><path fill="#fff" d="m32.72-2.44-.03-.37-.06-.37-.1-.36-.14-.37-.18-.36-.22-.36-.26-.36-.3-.36-.33-.36-.38-.35-.42-.35-.46-.36-.49-.34-.53-.35-.57-.34-.45-.36-.51-.36-.58-.37-.64-.37-.7-.36-.77-.37-.82-.37-.88-.36-.94-.36-.98-.35-1.03-.35-1.07-.33-1.11-.33-1.15-.32-1.17-.3-1.21-.29-1.23-.28-1.25-.25-1.26-.24-1.28-.23-1.29-.2-1.29-.19-1.29-.16-1.29-.14-1.29-.12-1.27-.1-1.26-.08-1.25-.05-1.23-.03h-1.21l-1.19.01-1.16.04-1.14.07-1.11.08-1.08.11-1.04.13-1.01.15-.98.17-.95.19-.91.21-.87.22-.84.25-.81.25-.77.28-.74.28-.7.3-.68.31-.64.32-.61.32-.59.34-.56.34-.53.34-.51.36-.48.37-.46.37-.42.38-.41.39-.38.4-.36.39-.33.41-.32.41-.29.41-.27.41-.26.42.42 8.03.31.48.32.48.33.47.35.48.36.47.37.46.38.47.4.46.41.46.43.45.44.44.46.45.47.43.48.43.51.42.52.42.53.41.56.41.57.39.59.39.61.38.63.37.65.36.67.34.69.33.71.31.73.29.75.28.77.25.79.24.8.21.83.2.84.17.86.15.88.12.89.1.91.08.92.05.94.02h.94l.96-.03.97-.05.97-.08.98-.1.99-.14.99-.15 1-.19 1-.2.99-.23 1-.26.99-.28.99-.3.98-.32.97-.34.96-.36.96-.38.94-.39.93-.42.91-.42.89-.44.88-.45.86-.46.83-.47.82-.48.75-.38.74-.38.73-.39.71-.4.7-.4.68-.4.66-.41.65-.4.63-.41.62-.41.59-.4.58-.41.55-.4.53-.39.52-.39" filter="url(#a)" transform="translate(-29.23 -27.22)"/><g fill="none" stroke="#000" transform="translate(38.48 -22.41)"><path stroke-linejoin="round" stroke-width="1.667" d="m-25.63 6.19-.67-.73-.62-.7-.58-.69-.53-.66-.48-.65-.44-.62-.39-.61-.34-.59-.29-.57-.24-.56-.19-.54-.14-.53-.09-.51-.04-.5.01-.49.06-.47.11-.46.17-.45.2-.44.26-.42.31-.42.35-.4.39-.39.44-.38.49-.37.36-.4.44-.39.51-.38.57-.37.65-.37.71-.36.77-.34.83-.34.89-.33.94-.31.98-.31 1.04-.29 1.07-.27 1.12-.26 1.15-.25 1.17-.23 1.21-.22 1.22-.2 1.25-.18 1.25-.17 1.27-.14 1.27-.13 1.28-.11 1.27-.09 1.28-.08 1.26-.05 1.25-.04 1.24-.02h1.22l1.2.02 1.19.03 1.15.06 1.13.07 1.11.08 1.07.1 1.05.12 1.01.13.98.15.94.16.92.17.87.19.85.19.81.21.77.21.75.23.71.23.68.23.65.24.62.25.6.24.57.25.54.26.52.26.49.26.46.27.44.27.42.28.39.27.38.28.34.28.33.28.31.28.29.28.27.27.25.28.23.28.22.28.2.27.18.28.17.27.15.27.15.26.12.27.12.26" filter="url(#a)"/><path stroke-linejoin="round" stroke-width="2.222" d="m-34-1.97.32.4.36.42.39.43.42.45.45.45.48.47.5.47.53.48.55.49.58.48.59.49.62.48.63.48.66.48.66.47.68.46.7.46.71.45.72.43.73.43.73.42.75.4.76.39.76.37.77.36.89.52.91.5.91.47.91.44.92.42.92.38.93.36.92.32.93.29.92.27.92.22.92.2.91.17.91.14.91.1.9.08.89.05.88.01.88-.01.87-.03.85-.07.85-.08.84-.12.83-.13.81-.16.81-.18.79-.2.78-.22.77-.23.76-.26.74-.26.73-.29.71-.29.7-.31.69-.32.67-.33.66-.33.65-.35.63-.35.61-.36.6-.36.59-.37.57-.37.56-.37.55-.37.53-.37.51-.38.51-.37.48-.37.48-.37.46-.37.46-.37.44-.38.43-.37.42-.36.41-.37.4-.37.39-.37.37-.36.37-.36.35-.36.35-.36.33-.36.33-.36.31-.35.3-.35.3-.35.28-.35.28-.34.26-.34.26-.34.24-.34.24-.33.23-.33" filter="url(#a)"/><circle cx="11.287" cy="1.11" r="4.104" clip-path="url(#b)" filter="url(#a)"/><circle cx="12.527" cy="1.05" r="4.226" clip-path="url(#b)" filter="url(#a)"/><circle cx="15.292" cy="-.11" r="4.644" clip-path="url(#b)" filter="url(#a)"/><circle cx="15.702" cy="-3.84" r="3.102" clip-path="url(#b)" filter="url(#a)"/><circle cx="15.707" cy="-2.235" r="3.936" clip-path="url(#b)" filter="url(#a)"/><circle cx="15.337" cy="-1.03" r="3.91" clip-path="url(#b)" filter="url(#a)"/><circle cx="12.887" cy="-1.46" r="4.8" clip-path="url(#b)" filter="url(#a)"/><circle cx="14.167" cy="-2.675" r="4.792" clip-path="url(#b)" filter="url(#a)"/><circle cx="12.852" cy=".92" r="4.252" clip-path="url(#b)" filter="url(#a)"/><circle cx="13.702" cy="-.23" r="4.422" clip-path="url(#b)" filter="url(#a)"/></g><g fill="none" stroke="#000" transform="translate(-29.23 -27.22)"><path stroke-linejoin="round" stroke-width="2.222" d="m31.11 1.38.29-.4.26-.39.24-.39.21-.39.19-.38.15-.38.12-.38.08-.37.05-.37.02-.37-.03-.37-.06-.37-.1-.36-.14-.37-.18-.36-.22-.36-.26-.36-.3-.36-.33-.36-.38-.35-.42-.35-.46-.36-.49-.34-.53-.35-.57-.34-.45-.36-.51-.36-.58-.37-.64-.37-.7-.36-.77-.37-.82-.37-.88-.36-.94-.36-.98-.35-1.03-.35-1.07-.33-1.11-.33-1.15-.32-1.17-.3-1.21-.29-1.23-.28-1.25-.25-1.26-.24-1.28-.23-1.29-.2-1.29-.19-1.29-.16-1.29-.14-1.29-.12-1.27-.1-1.26-.08-1.25-.05-1.23-.03h-1.21l-1.19.01-1.16.04-1.14.07-1.11.08-1.08.11-1.04.13-1.01.15-.98.17-.95.19-.91.21-.87.22-.84.25-.81.25-.77.28-.74.28-.7.3-.68.31-.64.32-.61.32-.59.34-.56.34-.53.34-.51.36-.48.37-.46.37-.42.38-.41.39-.38.4-.36.39-.33.41-.32.41-.29.41-.27.41-.26.42-.23.41-.22.42-.2.42-.18.43-.17.42-.15.42-.13.42-.13.42-.1.42-.1.42" filter="url(#a)"/><path stroke-linejoin="round" stroke-width="2.222" d="m34.35-1.17-.26.28-.28.3-.32.32-.34.33-.37.34-.4.35-.41.36-.45.37-.46.38-.49.39-.52.39-.53.39-.55.4-.58.41-.59.4-.62.41-.63.41-.65.4-.66.41-.68.4-.7.4-.71.4-.73.39-.74.38-.75.38-.82.48-.83.47-.86.46-.88.45-.89.44-.91.42-.93.42-.94.39-.96.38-.96.36-.97.34-.98.32-.99.3-.99.28-1 .26-.99.23-1 .2-1 .19-.99.15-.99.14-.98.1-.97.08-.97.05-.96.03h-.94l-.94-.02-.92-.05-.91-.08-.89-.1-.88-.12-.86-.15-.84-.17-.83-.2-.8-.21-.79-.24-.77-.25-.75-.28-.73-.29-.71-.31-.69-.33-.67-.34-.65-.36-.63-.37-.61-.38-.59-.39-.57-.39-.56-.41-.53-.41-.52-.42-.51-.42-.48-.43-.47-.43-.46-.45-.44-.44-.43-.45-.41-.46-.4-.46-.38-.47-.37-.46-.36-.47-.35-.48-.33-.47-.32-.48-.31-.48-.29-.47-.28-.48-.28-.48-.26-.48-.25-.47-.24-.48-.23-.47-.22-.48-.21-.47-.2-.47" filter="url(#a)"/><circle cx="-18.346" cy="2.115" r="3.62" clip-path="url(#c)" filter="url(#a)"/><circle cx="-15.931" cy="4.665" r="4.654" clip-path="url(#c)" filter="url(#a)"/><circle cx="-17.611" cy="1.69" r="3.656" clip-path="url(#c)" filter="url(#a)"/><circle cx="-16.421" cy="2.835" r="4.808" clip-path="url(#c)" filter="url(#a)"/><circle cx="-19.106" cy="2.33" r="4.266" clip-path="url(#c)" filter="url(#a)"/><circle cx="-17.216" cy="2.675" r="4.316" clip-path="url(#c)" filter="url(#a)"/><circle cx="-20.011" cy="5" r="3.688" clip-path="url(#c)" filter="url(#a)"/><circle cx="-19.776" cy="2.41" r="3.526" clip-path="url(#c)" filter="url(#a)"/><circle cx="-18.336" cy="2.395" r="3.01" clip-path="url(#c)" filter="url(#a)"/><circle cx="-18.726" cy="4.36" r="3.63" clip-path="url(#c)" filter="url(#a)"/></g><g fill="none" stroke="#B25D25" stroke-linejoin="round" stroke-width="2"><path d="m56.97-53.87.63 1.21.89 1.66.79 1.54.59 1.16.38.84.25.65.16.54.07.45-.04.31-.17.1-.34-.16-.52-.44-.71-.72-.9-.98-1.08-1.25-1.27-1.55-1.5-1.9-1.75-2.28-2.01-2.7-2.31-3.13-2.62-3.58-3.01-4.11-3.46-4.71M9.79-89.32l1.17.29.83.28.52.25.08.23-.38.22-.82.26-1.28.29-1.79.3-2.38.3-3.04.31-3.73.34-4.42.36-5.14.33-6.02.27m79.19 43.05.62 1.78-.12.81-.7.39-1.19.19-1.66.05-2.15-.13-2.68-.39-3.24-.7-3.84-1.05-4.47-1.42-5.09-1.76-5.73-2.11-6.37-2.47-7.02-2.81-7.7-3.16-8.42-3.43-9.19-3.67-9.97-3.97-10.54-4.66" filter="url(#a)"/><path d="m58.46-51.2.88 2.23-.23 1.03-1.06.42-1.74.24-2.36.16-3.04.07-3.74-.1-4.51-.35-5.31-.64-6.12-.94-6.94-1.21-7.77-1.45-8.62-1.64-9.51-1.83-10.42-2.05-11.3-2.36-12.19-2.73M5.44-89.93l1.82.26.85.21.51.19.41.25.32.31.17.36-.04.42-.3.46-.59.52-.88.59-1.19.66-1.53.76-1.88.83-2.25.92-2.64.99-3.03 1.08-3.45 1.17-3.9 1.26-4.35 1.34-4.78 1.43-5.2 1.47-5.66 1.48-5.99 1.34m84.36 3.41.66.71.78.87.48.61.24.43.15.41.09.46.01.46-.15.38-.39.18-.71-.1-1.07-.41-1.43-.71-1.76-.98-2.07-1.19-2.37-1.4-2.69-1.58-3.03-1.8-3.39-2.07-3.79-2.41-4.16-2.81-4.56-3.2-5.17-3.57m13.42 1.9 1.34.54 1.51.79 1.24.71 1.05.65.93.59.8.52.65.42.5.34.32.25.13.17-.06.06-.3-.05-.55-.21-.85-.4-1.19-.62-1.59-.84-2.02-1.08-2.43-1.29-2.66-1.49" filter="url(#a)"/><path d="m2.52-90.01 1.32.06 1.08.15 1.3.18 1.4.23 1.35.25 1.29.26 1.26.27 1.25.29 1.22.28 1.15.27 1.06.26.93.23.78.2.62.16.44.13.24.07.01.01-.22-.07-.49-.14-.75-.2-1.06-.28-1.45-.4-1.87-.54m20.94 9.44.84.57.73.62.94.8 1.05.87 1.04.85.93.77.8.66.66.57.49.45.29.3.07.14-.15-.03-.37-.22-.6-.41-.86-.64-1.17-.9-1.51-1.2-1.89-1.52-2.55-2.02" filter="url(#a)"/><path d="m11.42-88.97.8.25.86.26.54.22.19.22-.12.25-.44.3-.82.3-1.25.3-1.72.31-2.21.31-2.74.34-3.33.33-3.95.3-4.58.26-5.22.24-6.01.32m-20.76 9.64 1.44-1.09 1.6-.62 2.23-.74 2.78-.89 3.16-.89 3.43-.84 3.68-.77 3.93-.74 4.18-.73 4.39-.73 4.52-.72 4.57-.73 4.58-.73 4.59-.68 4.71-.55m31.97 18.3 1.2 1.5-.08.75-.91.47-1.46.53-1.94.7-2.48.82-3.11.84-3.88.74-4.72.57-5.62.39-6.51.21-7.36.08H1.39l-8.95-.07-9.73-.13-10.63-.07-11.75.24" filter="url(#a)"/><path d="m8.69-89.37 1.26.22 1.49.48 1.65.65 1.75.78 1.84.88 1.92 1 2.01 1.11 2.08 1.19 2.12 1.23 2.11 1.24 2.07 1.2 2.03 1.19 1.99 1.16 1.94 1.17 1.87 1.15 1.76 1.11 1.6.99 1.36.77 1.03.5.69.28m-74.47-9.95.2.03 1.57-.5 1.99-.59 2.25-.58 2.53-.58 2.81-.59 2.99-.55 3.1-.52 3.13-.46 3.17-.43 3.21-.41 3.22-.43 3.17-.44 3.06-.42 2.98-.35 2.97-.22" filter="url(#a)"/><path d="m-39.34-74.82 1.34-1.06 1.3-.54 1.75-.6 2.12-.65 2.37-.6 2.54-.49 2.74-.39 2.94-.32 3.14-.26 3.32-.23 3.47-.21 3.59-.18 3.68-.16 3.73-.13 3.74-.11 3.73-.08 3.69-.06 3.7-.03 3.71-.01 3.73.04 3.75.14 3.85.35m-62.53 1.1 1.79-.99 1.57-.52 1.93-.45 2.22-.43 2.48-.38 2.74-.34 2.97-.32 3.15-.27 3.28-.2 3.37-.14 3.46-.09 3.55-.05 3.63-.02 3.67-.03 3.64-.02 3.55-.02 3.45-.05 3.24-.11 2.85-.24" filter="url(#a)"/><path d="m-39.91-74.54 1.07-.57 1.66-.58 2.15-.48 2.7-.51 3.19-.52 3.58-.47 3.9-.35 4.21-.24 4.51-.15 4.78-.1 5.02-.06 5.2-.02 5.35-.01 5.46-.01 5.47-.04 5.46-.05 5.6.08m27.55 25.27.21.05.56.92.72 1.34.67 1.3.5 1.02.31.73.16.51.05.36-.07.23-.2.04-.37-.21-.56-.51-.78-.83-.98-1.14-1.18-1.43-1.4-1.75-1.63-2.1-1.9-2.49-2.18-2.93-2.47-3.38-2.81-3.89-3.31-4.5m-53.74-16.54 1.91-.39 1.03-.21.62-.09.54-.03.58-.02.59.01.49.06.32.12.12.2-.1.28-.34.37-.6.46-.9.56-1.24.67-1.61.78-1.99.92-2.39 1.08-2.82 1.24-3.27 1.4-3.71 1.49-4.12 1.57-4.57 1.73m46.33-12.62.94.28 1.29.34 1.25.33 1.19.34 1.18.37 1.15.38 1.06.36.91.32.72.26.51.18.25.1h-.05l-.4-.13-.8-.29-1.3-.47-1.84-.67M2.52-90.01l1.29.05.99.1 1.15.12 1.15.13 1.02.12.84.13.68.12.53.12.34.1.08.07-.22.03-.57-.01-.96-.05-1.39-.07-1.92-.12L3-89.33l-3.14-.26m32.24 9.2 1.73 1.16 1.15.84.99.79 1.03.87 1.1.92 1.08.91 1.01.84.92.78.81.7.7.62.57.53.43.43.29.32.14.2-.05.05-.26-.15-.52-.38-.81-.65-1.06-.89-1.29-1.09-1.5-1.26-1.75-1.47-1.94-1.65" filter="url(#a)"/><path d="m4.58-90.04.21.18L6-89.7l1.43.21 1.35.24 1.26.24 1.23.27 1.24.28 1.22.28 1.15.27 1.02.24.86.21.68.17.48.13.26.07h-.01l-.29-.08-.56-.15-.86-.22-1.27-.32-1.79-.49m-31.24 1.05.56-.07h1.02l1.63.04 2.12.07 2.41.14 2.55.24 2.59.36 2.63.48 2.71.57 2.82.63 2.94.65 3.03.68 3.09.7 3.11.72 3.1.74 3.07.74 2.99.73 2.87.72 2.72.71 2.51.64 2.1.44" filter="url(#a)"/><path d="m32.1-80.39 1.5 1.12.48.76-.16.68-.58.74-1.01.8-1.51.8-2.1.78-2.7.77-3.33.77-3.97.77-4.64.76-5.34.77-6.04.81-6.76.89-7.49.97-8.26 1-9.05.95-9.98.91m52.77-22.81.81.02.57.15.6.25.53.31.34.31.06.31-.22.3-.51.31-.8.3-1.14.31-1.49.3-1.86.3-2.25.31-2.65.31-3.1.28-3.6.25-4.17.22-4.81.21-5.57.25-6.37.34" filter="url(#a)"/><path d="m18.12-87.31.93.46.56.29.58.29.58.32.46.35.25.33.03.32-.17.31-.39.31-.65.3-.97.28-1.34.25-1.75.19-2.14.13-2.55.05H8.6l-3.37-.05-3.8-.07-4.23-.1-4.62-.18-5.04-.29-5.49-.45m.11-3.03.49-.12.84-.15 1.31-.2 1.68-.24 1.84-.24 1.84-.21 1.77-.16 1.69-.1 1.64-.07 1.64-.05 1.64-.04 1.63-.05 1.57-.04 1.48-.04 1.36-.04 1.22-.04 1.06-.03.83-.05.56-.05.29-.07.05-.07-.07-.06-.09-.07" filter="url(#a)"/><path d="m3.91-89.75 1.75.02 1.7.25 1.46.33 1.4.4 1.47.46 1.59.52 1.67.56 1.69.58 1.66.59 1.6.56 1.52.56 1.44.52 1.33.5 1.22.46 1.07.42.92.35.72.27.47.14h.17l-.13-.16-.62-.42m-47.78-3.6 1.35-.58.79-.31.73-.23.87-.22.97-.23.93-.19.77-.13.52-.03.26.08.02.17-.17.27-.36.36-.57.45-.8.57-1.09.69-1.4.84-1.73.99-2.09 1.15-2.46 1.28-2.86 1.42-3.32 1.6-3.82 1.85-4.38 2.16" filter="url(#a)"/><path d="m-52.77-59.85 43.42-10.34 29.07 6.3 7.03 5.31-6.73 1-9.77-1.58-7.16-2.42-3.43-2.41-.12-2.07 2.74-1.6 4.78-1.22 5.4-1.11 4.56-1.16 2.98-.96 1.5-.09.32 1.5-.84 3.28-2.15 4.24-3.69 3.04-5.9-1.63L.81-72.06l8.98-17.26" filter="url(#a)"/><path d="m-56.61-54.38 43.62-20.72 12.7-5.71 5.43.5 6.24 3.89 5.78 4.82 2.51 3.22-1.19.42-2.9-1.87-2.25-2.79-.61-2.58.39-1.91.11-1.28-1.09-.75-2.28-.37-2.92-.16-2.99-.18-2.94-.2-3.29.1-4.07.74L-11-78.2l-5.22.74-10.93 3.69-29.46 19.39" filter="url(#a)"/><path d="m-21.43-85.62 26.15 17.5-14.79 1.02-10.77-3.75-.85-5.03 4.47-3.81 6.03-1.26 6.53.98 6.74 1.76 5.99.92 3.97-.76 1.56-2.09-.2-2.24-1.58-1.25-4.17.07-8.7.79-12.24.39-8.63-1.2.49-2.04" filter="url(#a)"/><path d="m-55.99-55.4 69.88-1.22 26.13 2.57 8.05 1.97-1.8-2.63-6.46-5.83-7.46-6.33-6.45-5.17-4.78-3.38-3.34-1.55-2.65.01-2.68.95L9.6-74.9l-2.66.45-2.07-.71-1.23-1.71.54-1.36 4.59 1.4 10.74 5.96 13.62 6.4-7.82-19.57" filter="url(#a)"/><path d="m34.32-78.9-29.5 1.29-2.45 2.57 6.08 3.48 10.35 3.55 8.48 1.46 2.09-1.77-4.99-4.06-9.93-4.28-11.64-2.75-10.43-.57-7.33 1.12-3.53 1.78.48 1.65 4.96 1.82 8.82 3.77 3.14 6.23-46.55-3.06" filter="url(#a)"/><path d="m-9.29-89.42 4.63 15.94 22.02 8.64 8.37 1.89-3.18-2.53-5.88-4.51-3.22-4.23.07-2.61 1.26-.92-.01-.09-2.63-.27-4.9-.95-5.52-1.44-4.33-1.39-2.49-.84-1.57-.06-2.2.52-2.62.45-.39-.29-.05.05L-37-76.64" filter="url(#a)"/><path d="m30.23-81.42-26.57-.97-7.02 3.68 1.66 1.73 2.88-.71 1.36-1.61-.53-.75L.8-78.86l-.33 2.91.7 3.14.03 1.46-2.24-1.05-2.88-2.45 2.42-1.56L12.38-75l23.91 7.51 24.53 21.31" filter="url(#a)"/><path d="m30.23-81.42 18.9 24.89-3.57 1.21-12.87-8.47-10.68-8.27-4.06-4.35 1.32-.62 3.12 1.35 1.98 1.6-.03 1.01-1.21.49-1.28.41-1.07.68-1.52.97-2.7.92-3.92.43-4.25-.43-3.34-1.32-1.52-1.82.54-1.93 2.51-2.25 4.85-3.16 7.71-2.95 13.16 2.94" filter="url(#a)"/><path d="m2.52-90.01 3.07 1.37 7.94 2.02 4.9 1.53L19.48-84l-.84 1.72-.82 3.27-.66 4.39-1.9 3.87-4.13 1.6-5.66-1.25-6-3.3-6.39-3.7-5.67-2.93 4.22-2.82 29.11-3.01" filter="url(#a)"/><path d="m39.61-74.93-23.36-7.81-8.24-.8-5.52 1.75-.47 2.23 4.18 2.17 4.48 2.18-.08 1.98-6.61 1.41-10.86 1.03-9.61 1.75-2.53 3.46 7 4.05 12.43.03 8.75-9.53 20.12-11.23" filter="url(#a)"/><path d="m-31.21-81.02 59.7 25.04 15.4 1.39-4.17-7.81-10.47-8.99-10.19-6.47-7.76-2.98-4.95.14-1.9 2.28 1.32 3.21 4.06 2.82 5.25 1.3 4.21-.78 1.22-2.64-2.6-3.66-5.82-3.62-7.13-2.68-5.58-1.21-.57.56 7.91 3.42 19.36 10.89 38 31.86" filter="url(#a)"/><path d="M52.75-60.13 23.37-76.97l-4.38-1.67-1 1.64.11 2.34 3.3 3.43 4.79 3.77 1.96 2.66-3.51 1.04-7.45.25-6.73.57-2.1 1.08 1.55.42-1.08-1.84-9.85-4.53-15.69-5.89-6.06-6.45 18.99-9.82" filter="url(#a)"/><path d="m-52.77-59.85 50.66-10.89 8.29-8.05 1.92-2 3.84 1.74 5.47 2.72 5.42 2.27 3.99 1.43 1.57.52-1.44-.48-4.18-1.44-5.66-2.07-5.32-2.04-3.61-1.42-1.76-.62-1.01-.14-1.5-.22-2.07-.61-.88-.71 2.84-.02 7.56 1.37 9.51 2.37 4.78.86-6.49-4.78-10.47-7.31" filter="url(#a)"/><path d="m-37.81-76.01 35.08 7.49-10.56-1.19-10.8-2.19-.7-2.66 8.4-2.58 13.28-1.33 13.72.53 10.44 1.93 4.36 2.17-3.3 1.32-10.5-.01-14.37-1.05L-15-75.25l-3.72-2.4 7.71-3.56 16.8-2.65 28.53 4.96" filter="url(#a)"/><path d="m34.32-78.9-9.38-1.8-.88 7.58-3.54 5.6-4.23 1.32-1.91-.24 1.38.5 3.8 1.47 4.1 1.36 2.21.29-.58-.85-2.52-1.17-2.6-.4-1.09 1.08.93 2.37 2.1 2.51 1.3.84-1.93-2.33-6.21-5.24-7.52-5.18-2.44-.91.32 2.96-39.57-10.16" filter="url(#a)"/><path d="M35.34-78.1 13-78.65l-13.92 3.9 4.05 5.07 10.91 3.95 9.68 1.78 6.5.06 3.66-.8.85-1.18-2.42-1.44-5.69-1.59-7.93-1.45-8.4-.77-7.25.35-5.51 1.41-4.14 1.49-2.84.1.04-1.89 5.92-2.18 14.42 1.82L35.78-58.9l29.95 25.41" filter="url(#a)"/><path d="M-29.83-81.51 5.59-59.17l-3.49.84 4.61.49 10.16.61 5.81-1.86-1.86-4.72-6.7-5.92-6.8-5.08-3.54-3.06.37-1.08 2.63-.06 2.38-.24.35-1.24-1.8-2.16-2.65-2.22-2.09-1.27-1.71.18-4.14 1.23-9.04.57 1.18-4.81" filter="url(#a)"/><path d="M65.88-33.18 9.75-65.74l-16.2-9.38 3.53-2.1 7.87-1 4.44-1.48-.72-1.74-4.37-1.34-5.62-.44-4.85.67-2.98 1.71-.98 2.5.59 2.96 1.69 2.93 2.59 2.28 3.36.96L1.85-70l3.39-2.26 2.4-2.77 1.24-2-.31-.41-4.15 1.17-12.9 2.72-24.24 5.53-20.05 8.17" filter="url(#a)"/><path d="M66.7-31.14 33.07-65.11l-6.64-6.68 1.66-.35-1.65-2.2-6.57-3.97-9.43-3.5L.11-83.52l-9.68.14-7.53 1.36-4.19 1.88-.67 1.95 2.21 1.69 5.58 1.01 12.68-.1 22.44-.8 14.39-1.71" filter="url(#a)"/><path d="m41.91-72.95-30.89-5.97-4.58 2.04 10.16 3.07 11.97 3.02 8.44 2.39 3.89 1.07-.04-.54-3.04-1.73-5.33-2.15-7.16-1.91-8.48-1.39L8-75.84l-7.86-.07-5.36.84-1.47 1.92 3.29 2.81 7.89 3 10.65 2.05 9.91.06 5.4-2.4-1.09-4.67-6.86-6.52-10.53-7-15.75-4.15" filter="url(#a)"/><path d="M51.36-62.01 14.73-78.18 3.65-81.86l-9.63 1.34-8.36 1.56-3.37.31 1.93-.11 4.88.7 5.67 1.94 5.95 2.65 7.01 2.61 8.6 2.15 9.18 1.52 6.82.51.29-1.05-10.7-2.4-27.2-1.22-48.24 11.93" filter="url(#a)"/><path d="m-10.74-88.97 39.79 24.45.45-2.46-6.01-6.41-2.59-3.67-.27-.88-.39.49-1.23.79-1.65.7-1.78.63-2.19.71-3.27.73-4.82.46-6.3-.18-7.16-.96-6.93-1.45-5.09-1.48-1.08-1.2 5.15-.77 12.31.2 16.65 2.05 10.08 1.81-24.49-14.51" filter="url(#a)"/><path d="M39.61-74.93 18.5-80l-10.21.79-5.32.89-5.28.64-2.7 1.82 3.45 3.92L8.6-66.37l13.85 5.58 12.6 3.59 7.07.17-.19-3.6-7.06-6.58-13.58-7.84-21.53-6.84-26.67-1.35" filter="url(#a)"/><path d="m-43.99-71.05 41.77-6.16 9.65-.36.95 3.78-2.01 3.78-3.03 1.58-2.47-.33-1-1.06.11-1.05.05-.99-.77-1.13-1.3-1.26-.69-1.13 1.08-.64 3.41.11 5.33.81 5.87 1.02 4.26.4.53-.92-4.38-2-8.98-1.68-12.26.2-13.02 1.29-6.79-2.16 9.84-8.35" filter="url(#a)"/><path d="M49.47-64.69 12.26-79.46l-19-1.62-4.25 3.98 3.89 3.81 4.89.43 2.45-2.72.47-3.66.13-2.47.25-.4-.82 1.22L-3-79.12l-5.36 1.29-5.09.42-2.61-.16-.87-.19-1.67-.39 2.43-2.48 28.08-8.2" filter="url(#a)"/><path d="m-41.31-73.24 17.13-3.71 20.77-1.46 10.24-.58 2.51-.42.96.71 2.68 2.55 3.67 3.71 2.06 3.05-.9.72-2.32-1.95-.55-3.37 3.05-2.86 5.16-1.04 3.05.69-4.6.68-19.56-1.54-39.85 2.05" filter="url(#a)"/><path d="M-52.77-59.85 9.79-52.5l-2.07-7.51-17.8-5.78-13.5-3.54-4.95-2.82 1.96-2.62 6.35-2.2 9.09-1.24 10.9.35 11.9 2.34 11.69 4.13 9.78 4.94 5.87 4.19.15 1.92-6.4-1.16-12.13-3.88L5.64-70.7l-13.37-5.15-7.12-3.87 2.02-2 11.99.63L21.74-76l29.62 13.99" filter="url(#a)"/><path d="M1.85-90.14-7.61-68.9l10.76 8.08 5.66.1.18-3.18-2.02-3.44-1.06-1.85.81.39 1 2.1-1.57 2.48-5.48 1.33-7.82-.79-6.35-2.84-1.68-3.96 2.54-3.8 2.13-2.76-3.76-1.44-10.55.31-12.32 3.76-13.04 10.86" filter="url(#a)"/><path d="m-5.46-89.71 18.47 3.84 4.81 2.11 4.4 4.24 3 5.33-1.46 4.52-6.15 2.59-8.53.62-8.1-.7-5.8-1.19-3.13-1.17-1.26-1.17-.43-1.51-.08-2.18.51-2.76 1.65-2.78 2.89-2.12 3.46-1.05 2.88-.04 1.37.65-.56 1.08-3.04 1.47-6.01 1.74-2.53.94 33.83-7.12" filter="url(#a)"/><path d="M62.44-43.01 49.52-57.97 39.34-69.04l-4.77-4.26-4.29-.78-4.95.6-3.47 1.54-.19 2.47 2.64 3 3.46 2.75 2.41 1.71.78.47-.37-.33-1.18-.39-2.74.02-5.98.25-10.48-.05-14.25-.82-14.61-1.76-10.15-2.79-2.03-4.07 6.15-5.26 9.31-5.16 1.39-1.79L-37-76.64" filter="url(#a)"/><path d="m-19.77-86.44 29.45 3.32 12.76 4.43-3.45 1.91-11.55.2-11.38-.27-6.71.5-1.09 2.05 3.43 3.47 5.87 3.81 5.98 2.79 4.33.96 2.17-.84.82-1.86.98-1.91L14-69.2l2.56-.66-.13-.43-7.03-.6-15.71-.61-19.46-.04-10.26-1.17 14.6-12.91" filter="url(#a)"/><path d="m-10.74-88.97 3.68.9-.25 3.66-.33 6.07 3.89 6.23 6.47 4.3 6.17 1.7 4.38-.29 2.07-1.17-.99-1.36-4.73-1.61-7.31-2.17-6.46-2.32-3.33-1.32-.82-1.41 22.23-10.39" filter="url(#a)"/><path d="M61.07-46.2 24.54-70.77l-2.02-3.65 2.04.61-2.36.76-7.15 1.27-9.55 1.73-8.42 1.42-4.66.46-1.01-.76.26-2.02-.72-2.91-1.53-2.88.31-1.39 5.08 1.45 10.58 4.57 13.73 6.35 14.4 8.02 33.76 29.02" filter="url(#a)"/><path d="m.92-90.15 5.6 5.53 6.89 8.17-3.34 4.56-5.93.49-3.43-1.29-.94-1.18.51-.6 2.01-.29 4.01-.12 5.77.31 6.2 1.17 4.67 2.07 1.21 2.44-3.57 1.83-8.42.29L.55-68.48-11-71.87l-7.97-4.1-2.72-3.43.91-1.17-2.38 3.78-29.61 16.94" filter="url(#a)"/><path d="M64.82-36.56 41.35-65.48l-8.43-9.67-2.49-1.78-2.45.3-3.48.4-2.91.65-1.38 1.34-1 1.69-2.73.97-5.21-.7-6.07-2.48-4.35-3.48-1.68-3.29-1.15-2.05-4.5-.04-10.04 2.38-13.25 4.54-9.54 4.06 5.37-6.66" filter="url(#a)"/><path d="m2.52-90.01 35.07 26.68.85 3.56-13.4-5.26-13.2-6.3-8.2-4.17-3.76-1.31-.82 1.04.69 2.31.23 2.43-1.97 1.73-3.87.69-2.82-.46 1.5-1.74 5.44-3.17 3.87-4-3.99-3.04-8.94-1.41 12.65-7.71" filter="url(#a)"/><path d="m-10.74-88.97 23.03 13.83-14 1.1-13.93-1.35-4.81-2.02 3.01-1.48 6.8-.27 6.74.82 4.47 1.26 2.06 1.06.68.62-.01.34-.9.46-2.18 1.04-2.65 2.02-.89 3.23L-.8-64l3.95 4.54-.45 3.26-6.86 1.45 5.25 4.16 66.19 21.87" filter="url(#a)"/><path d="m34.32-78.9.51 3.29-2.08 3.73-7.5.98-10.63-1.11-9.65-2.25-4.88-2.31 1.2-1.6 5.81-.58 7.42.3 6.12.82 2.87.98-.95 1.03-3.94 1.33-4.74 2.14-2.61 3.29 1.74 4.22 5.36 4.04 4.41 2.14-1.63-1.28-5.28-4.87 6.34-5.82 24.21 2.46M59-35.86l1.06.28.71.67.57 1.04.49 1.23.44 1.29.43 1.26.47 1.18.57 1.08.71 1 .82.95.8.96.67 1.02.47 1.12.33 1.28.34 1.46.49 1.6.64 1.58.61 1.35.37.9.04.33" filter="url(#a)"/><path d="m-9.29-89.42.01.24 1.04-.1 1.2-.1 1.17-.04h1.12l1.1.05 1.1.11 1.14.17 1.15.21 1.15.26 1.1.29 1.06.31 1.03.34 1.03.34 1.03.36 1.01.39.92.43.84.44.83.37.9.27.71.47 58.86 70.38-.59.84-.5 1.43-.23 1.32-.02 1.15.02 1.1-.09 1.14-.25 1.19-.33 1.24-.32 1.27-.26 1.29-.2 1.31-.23 1.33-.33 1.31-.52 1.24-.76 1.16-1.02 1.11-1.17 1.11-1.13 1.22-.91 1.37-.54 1.58.17 1.42M-9.66-89.44l.11.04.45-.09.87-.21 1.08-.24 1.12-.24 1.1-.23 1.09-.26 1.1-.34 1.14-.4 1.19-.41 1.21-.34 1.16-.18 1.06-.04h.99l1-.14 1.31-.26 2.11.12m-25.79 5.21.38-.19.91-.42 1.23-.53 1.33-.52 1.27-.42 1.1-.36.93-.35.86-.37.87-.36.97-.35 1.05-.34 1.08-.35 1.08-.36 1.07-.33 1.13-.25 1.27-.18 1.45-.21 1.3-.24M69.9-15.34l5.68-2.93.49-2.32-1.46-1.64-1.32-1.32-.45-1.37.55-1.65 1.28-1.94 1.54-2.07 1.23-1.95.6-1.74.13-1.65.22-1.88 1-2.44 2.02-3.05 2.51-3.31 1.91-2.83.54-1.78.6-1.66M-51.15-95.53l2.24 1.68 2.01 1.08 1.37-.1 1.24-.58 1.48-.3 1.76.37 1.96 1.15 2.09 1.81 2.15 2.2 2.1 2.15 1.89 1.64 1.53.91 1.18.27 1.03-.16.98-.45" filter="url(#a)"/><path d="m-26.91-83.24-1.37.08-1.3-.72-1.3-.32-1.12.33-.95.69-.91.8-.94.81-1 .79-1.07.72-1.13.59-1.18.45-1.21.34-1.22.32-1.19.35-1.15.42-1.09.46-1.05.49-1.06.49-1.12.48-1.21.52-1.25.58-1.19.63-1.04.67-1.13 1.05" filter="url(#a)"/><path d="m-7.99-95.52-.57.33-.91.55-.74.44-.8.46-1.01.57-1.17.66-1.23.72-1.17.73-1.07.69-1 .61-.96.49-.98.36-.99.28-.96.31-.88.48-.8.72-.8.92-.91.99-1.12.95-1.31.95-1.6.97m1.02-.38-.05-.04.9-.47 1.15-.58 1.13-.56 1.04-.47.94-.4.9-.37.9-.36.92-.37.94-.37.94-.35.94-.33.98-.3 1.08-.3 1.23-.32 1.32-.33 1.28-.31 1-.23.37-.04-.7.25" filter="url(#a)"/><path d="m-20.34-88.94-1.16.72-.68.55-.71.45-.83.49-.94.61-1.01.72-1.04.75-1.02.74-.99.7-.97.66-.96.65-.93.63-.87.63-.8.67-.85.78-1.13 1.04-1.77 1.51m-34.22 6.16 2.09-1.5 1.42-1.05 1.47-.65 1.68-.46 1.79-.35 1.74-.25 1.65-.15 1.58-.01 1.62.15 1.71.3 1.77.3 1.66.09 1.39-.34 1.06-.78.84-1.01.86-.81 1.17-.22 1.58.47 1.83.79 1.73.5 1.39-.14.99-.49.39.08" filter="url(#a)"/><path d="m-39.34-74.82 1.13-1.15.61-1.06.57-1.57.63-1.81.66-1.77.62-1.69.59-1.66.61-1.63.68-1.54.78-1.4.86-1.3.92-1.33.92-1.5.88-1.76.81-2.01.67-2.24.5-2.38.39-2.23.51-1.84 1.21-1.72m-35.44 40.09 1.69-1.51 1.69-.61 1.39-.12 1.3.08 1.34.1 1.33-.07 1.17-.42 1-.79.89-.98.91-.9 1-.6 1.13-.19 1.3.29 1.45.73 1.33.07-1.23 1.33-.88-.87-.87.43-1.24.17-1.72-.35-1.84-.43-1.55-.01-1.13.51-.91.78-.96.7-1.19.45-1.48.18h-1.76l-2.06-.18-2.38-.39-2.71-.62-2.88-.73-2.79-.58-2.31-.08-1.55.6-.79 1.26-.46 1.53-.87 1.31-1.96.65-3.73-.52 38.78-2.8-2.21 2.46-1.05 1.16-.74.87-.66.85-.61.87-.57.9-.59.98-.65 1.06-.69 1.12-.69 1.16-.67 1.19-.62 1.23-.59 1.25-.57 1.23-.53 1.13-.48 1-.46.93-.45 1.05-.37 1.35 9.44-18.04-2.85-3.97-.92.02-.29 1.32-.07 1.63-.23 1.43-.63 1.03-1.06.69-1.34.5-1.47.41-1.46.44-1.4.55-1.34.68-1.32.71-1.37.53-1.45.2h-1.51l-1.65.42" filter="url(#a)"/><path d="m-77-66.37 2.98.46 1.88-.18 1.94.15 2.12.27 2.15.15 2.12.05 2.13.09 2.17.22 2.15.26 1.98.09 1.63-.25 1.14-.63.72-.8.71-.62 1.34-.02 2.21.46" filter="url(#a)"/><path d="m-33.36-98.72-1.44 2.95-1.11 1.92-.65 1.86-.55 1.83-.64 1.69-.74 1.62-.74 1.65-.67 1.7-.62 1.67-.68 1.48-.8 1.19-.92.93-.91.84-.75 1-.49 1.31-.31 1.59-.32 1.63-.52 1.5-.69 1.38-.55 1.27-.17 1.04" filter="url(#a)"/><path d="m-49.75-64.47.75-1.08.7-1.11.72-1.03.71-1.16.61-1.36.49-1.5.4-1.55.39-1.54.41-1.54.45-1.61.45-1.7.48-1.74.55-1.68.65-1.53.78-1.43.84-1.46.82-1.63.72-1.82.57-1.86.49-1.72.66-1.32 1.77-.73-14.39 32.11-1.43 2.3-.94 1.64-.63 1.35-.51 1.28-.51 1.29-.51 1.29-.46 1.26-.33 1.26-.16 1.33-.03 1.43.04 1.54-.01 1.56-.13 1.54-.24 1.49-.23 1.5-.03 1.49.27 1.19.63.42-19.21-12.77 2.13-.21 1.88-.83 1.86-.77 1.66-.74 1.38-.8 1.23-.76 1.25-.57 1.38-.35 1.5-.22 1.5-.26 1.39-.46 1.21-.66 1.03-.81.93-.86 1.02-.93 1.34-1.22 1.73-1.94" filter="url(#a)"/><path d="m-51.54-61.6-.54 1.71-.21 1.46-.46 1.15-.69 1.04-.67 1.12-.49 1.22-.27 1.29-.14 1.31-.14 1.29-.2 1.3-.24 1.33-.22 1.42-.2 1.54-.29 1.7-.82 1.69 1.13-14.37-.04-3.01-.11-2.21.55-1.28.64-1.33.31-1.82.01-2.09-.01-1.97.18-1.63.41-1.35.5-1.34.44-1.57.31-1.88.23-2.1.24-2.08.35-1.88.43-1.72.4-1.81.24-2.18.13-2.64.24-2.84.41-3.14.07-5.22M83.99 10.05l-.95-.52-.75-1.55-.46-1.52-.54-1.45-.81-1.49-.97-1.56-.97-1.59-.82-1.57-.66-1.5-.48-1.44-.32-1.39-.15-1.36-.06-1.32-.11-1.26-.35-1.19-.69-1.14-1.02-1.08-1.17-1.07-1.08-1.1-.84-1.26-.54-1.55-.39-1.94-.48-2.1-.83-1.3M-59.29-96.01l-1.55 5.35-.9 2.26-.19 2.21.21 2.51.28 2.5.05 2.15-.27 1.81-.47 1.67-.47 1.77-.33 1.96-.09 2.16.24 2.46.73 2.92 1.26 3.35 1.52 3.4 1.21 2.73.37 1.67-.59 1.15" filter="url(#a)"/><path d="m-56.53-88.23-.46.21-.62 2.32-.08 2.78.1 2.6.05 2.27v2.02l-.02 1.97v2.01l-.04 2.07-.12 2.05-.26 1.93-.41 1.74-.53 1.57-.52 1.48-.39 1.53-.13 1.65.14 1.81.31 1.89.25 1.86.02 1.71-.27 1.49-.52 1.32-.75 1.45-1.01 2.11-2.22-.98-2.3-.82-2.14-.05-1.55.78-1.19 1.1-1.12.97-1.07.8-.91.8-.75.94-.81 1.09-1.22 1.09-1.93.93-2.67.7-2.97.54-2.46.57-1.09.98.71 2.45 25.53-11.82.25.22.62-.66.72-1.11.75-1.23.73-1.22.68-1.16.63-1.1.61-1.04.61-.99.63-.99.65-1.03.68-1.06.72-1.08.76-1.07.8-1.04.84-1.03.84-1 .79-.92.71-.76.71-.6.85-.62 1.06-1.02" filter="url(#a)"/><path d="m-61.95-44.32.09 2-.74 1.77-.7 1.46-.47 1.16-.25 1.01-.1 1.05.02 1.17.08 1.32.07 1.43v1.48l-.09 1.46-.17 1.38-.18 1.3-.11 1.26.07 1.26.27 1.25.37 1.2.27 1.24.09 1.61m-1.37-18.58-.54-.52-1.79.12-1.47.49-.89.97-.62 1.29-.65 1.39-.83 1.31-1.06 1.18-1.26 1.04-1.37.96-1.34.93-1.22.97-1.13 1.03-1.18 1.1-1.29 1.16-1.28 1.21-1.3 1.17-2.45 1m-1.87 17.54 1.65-2.32 1.09-1.92 1.14-1.43 1.25-1.17 1.11-1.18.79-1.33.55-1.53.5-1.66.57-1.71.66-1.68.72-1.59.84-1.44 1.1-1.22 1.5-.98 1.86-.77 1.9-.69 1.58-.79 1.01-.96.56-1.14.46-1.46 1.07-2.26m133.71 3.26 3.19-.31 2.02.79-.09 1.49-.61 1.59-.03 1.46.85 1.35 1.58 1.31 1.96 1.28 1.96 1.25 1.7 1.21 1.36 1.21 1.06 1.23.96 1.25 1.16 1.22 1.68 1.15 2.31 1.1 2.64 1.2 2.35 1.41 1.43 1.68-27.59-23.49-.4-1.8-.39-1.61-.3-1.53-.03-1.59.34-1.71.72-1.89.98-2.07 1.03-2.2.89-2.21.55-2.08.16-1.83-.2-1.58-.44-1.38-.58-1.34-.57-1.49-.47-1.79-.26-2.14-.05-2.32.08-2.27.19-2.14.55-2.16 1.59-1.12" filter="url(#a)"/><path d="m66.7-31.14.42 1.26.7.8 1.18.73 1.27.83.97.98.65 1.13.63 1.22.88 1.29 1.16 1.38 1.21 1.47.93 1.51.46 1.47.11 1.41.15 1.37.6 1.36 1.1 1.14.52.28-19.78-60.76 1.5 1.87.63 2.26.1 2.16-.17 1.89-.19 1.61-.06 1.41.12 1.34.23 1.41.25 1.59.2 1.79.16 1.88.16 1.84.22 1.64.31 1.44.41 1.29.45 1.27.46 1.34.48 1.4.48 1.35.27 1.3-.44 1.43-.8 1.37m-.14-.75-.34-.9-.44-1.2-.5-1.36-.49-1.38-.47-1.3-.46-1.19-.47-1.14-.52-1.15-.58-1.24-.63-1.34-.65-1.4-.6-1.38-.52-1.26-.43-1.12-.35-.97-.3-.86-.32-.82-.46-.94-.77-1.16-1.08-1.44" filter="url(#a)"/><path d="m63.72-39.53-.6-2.14-.21-1.72v-1.68l.13-1.62.04-1.52-.22-1.39-.52-1.35-.7-1.36-.67-1.45-.44-1.57-.12-1.71.19-1.79.31-1.78.25-1.69v-1.58l-.28-1.57-.54-1.71-.72-1.9-.81-2.06-.72-2.16-.46-2.25-.52-1.89 6.61 37.89-.71-2.06-.4-1.57-.31-1.43-.34-1.24-.43-1.1-.53-1.13-.57-1.26-.6-1.42-.57-1.48-.51-1.44-.45-1.3-.39-1.15-.33-1.01-.32-.95-.37-.99-.49-1.12-.68-1.37-.85-1.68-.95-1.93-1.11-1.8" filter="url(#a)"/><path d="m62.58-42.24.97 1.82 1.09.85 1.34.48 1.36.55 1.18.82 1.04 1.05.99 1.16.97 1.17.87 1.18.65 1.21.4 1.29.26 1.35.32 1.35.54 1.3.85 1.27 1.12 1.28 1.31 1.38 1.44 1.48 1.51 1.49 1.53 1.4 1.48 1.25 1.4 1.26 1.52 1.62 1.44 2.16M61.07-46.2l.36 1.74.5 1.41.41 1.42.32 1.38.23 1.3.16 1.26.1 1.28.1 1.33.13 1.38.16 1.39.19 1.37.19 1.34.21 1.27.22 1.22.22 1.19.16 1.2.04 1.21-.15 1.23-.27 1.29-.21 1.5.08 1.99.24 2.54m-6-36.24-1.66-.56-1.25-.25-1.14-.17-.72-.5-.34-.84-.28-.96-.51-.94-.84-.84-1.1-.78-1.24-.74-1.23-.67-1.17-.56-1.11-.37-1.13-.13-1.25.11-1.44.31-1.6.42-1.63.4-1.38.21-.92-.16-.57-.41-1.19-.14m17.99-1.36-1.26-1.6-1.14-1.1-1.07-.55-1.09-.1-1.13.04-1.11-.17-1-.52-.85-.82-.76-.95-.75-.87-.8-.69-.9-.49-1-.34-1.07-.26-1.1-.2-1.15-.14-1.23-.02-1.36.21-1.46.45-1.35.6-1.01.39-.78-.3 55.76 8.92-2.84-.44-1.86-.72-1.71-.44-1.83-.37-2.2-.32-2.57-.16-2.66-.06-2.37-.11-1.83-.32-1.26-.57-.87-.74-.73-.82-.79-.88-.89-1.01-1-1.21-1.12-1.28-1.43-.94-1.9-.15-2.28.79-2.14 1.35-1.44 1.1-.93-.03" filter="url(#a)"/><path d="m46.42-67.97 1.53 1.44.96.55.92.06 1.22-.09 1.56-.03 1.72.23 1.61.61 1.28 1.01.9 1.25.62 1.23.56.99.72.6 1.03.24 1.31.08 1.34.16 1.04.63.77 1.62m-32.29-55.94.27 2.99.99 2.54.86 3.11.5 3.49.35 3.33.39 2.8.5 2.18.6 1.68.61 1.45.56 1.51.46 1.74.42 1.93.47 1.93.59 1.73.7 1.45.74 1.27.69 1.28.58 1.41.52 1.44.54 1.2.53.96.38 1.34.75 2.35m-6.61-6.71-1.45-1.01-1.14-1.13-.78-1.12-.64-1-.67-.81-.74-.63-.8-.56-.84-.58-.9-.64-.95-.67-1.04-.69-1.14-.76-1.25-.86-1.15-.78-.73-.46M50.9-52.41l-.52-2.15-.81-1.78-.93-1.48-.87-1.22-.7-1.04-.52-.98-.41-1.03-.39-1.15-.45-1.23-.54-1.24-.62-1.17-.66-1.03-.69-.89-.73-.8-.77-.78-.78-.86-.67-1.04-.48-1.23-.42-1.28-.91-1.04" filter="url(#a)"/><path d="m17.57-73.03 1.91.32 1.15-.44.97-.61 1.02-.46 1.18-.33 1.31-.38 1.38-.49 1.33-.47 1.22-.25h1.08l1.01.03 1.11-.3 1.31-.72 1.29-.72.5-.25-25.42 4.13 1.72-2.13 1.24-1.78 1.03-1.19 1.06-.88 1.11-.73 1.12-.62 1.07-.46 1.02-.27 1.02-.11 1.05-.03 1.08-.1 1.08-.23 1.06-.23 1.11-.01 1.32.31 1.68.47 1.54.54-4.17-2.51-.32-1.4-.16-2-.54-1.22-.94-.4-1.14-.03H21.8l-1.1-.15-1.03-.33-1-.54-.96-.77-.94-1.05-.89-1.39-.87-1.75-.86-2.08-.88-2.22-.9-2.08-.93-1.62-.98-1.02-1.08-.6-1.22-.57-1.35-.83-1.18-.99-.12-1.35-3.84 27.08.85-.74.9-.67.92-.26.97.15.99.34.95.3.94.07.97-.24 1.02-.52 1.08-.69 1.11-.7 1.09-.57 1.07-.35 1.03-.13 1 .08.98.24.95.36.94.38 1 .23 1.17-.09 1.31-.35 1.13-.23.69.26" filter="url(#a)"/><path d="m24.04-84.97.72.26.97.15 1.34-.04 1.55-.31 1.58-.49 1.52-.53 1.46-.52 1.44-.57 1.39-.6 1.3-.44 1.17-.13 1.1.13 1.23.06 1.57-.15 1.86.11 2.04.51m-28.16.22-1.61-.67-.89-.5-.82-.36-.95-.31-1.05-.3-1.06-.29-1.03-.27-.98-.26-.96-.26-.99-.26-1.04-.25-1.06-.24-1.06-.24-1.03-.2-1.04-.16L1.44-92l-1.26-.11-1.41-.17-1.23-.32 17.55 4.4-1.38.61-1.39.7-1.22.54-1.08.39-.96.19-.93-.03-.95-.1-1 .04-1.02.36-1.03.76-1.03 1.11-1.03 1.33-1.06 1.31-1.07 1.1-1.06.8-1 .64-.91.8-.85 1.22-.83 1.63-.78 1.48-.28.61" filter="url(#a)"/><path d="m-14.87-121.69 1.27 1.32.8 1.63.98 1.64 1.28 1.6 1.46 1.28 1.49.8 1.44.44 1.4.44 1.37.87 1.39 1.64 1.38 2.42 1.36 2.88 1.3 2.74 1.24 2.03 1.19 1.14 1.17.6 1.13.78 1.02 1.59.86 2.4.7 2.43.8 1.47 1.26.58-3.27-.64-2.01-.91-1.23-.83-.97-.61-.99-.93-1.11-1.57L.62-96.5l-1.28-1.98-1.27-1.45-1.25-.79-1.24-.4-1.25-.4-1.3-.69-1.31-.94-1.23-.98-1.09-.85-.95-.87-1.03-1.26-1.59-1.78-2.82-2.94m22.43 21.9-.89-1.02-.74-.24-.91-.26-1.07-.28-1.17-.21-1.23-.14-1.22-.16-1.18-.22-1.16-.28-1.15-.3-1.15-.3-1.13-.33-1.08-.41-1-.57-.97-.68-1.04-.64-1.24-.4-1.53-.09-1.79-.11-2.11-.39m16.76 7.04 2.83-.1 2.19.08 1.94.19 1.84.28 1.81.35 1.84.44 1.88.53 1.9.61 1.84.7 1.69.77 1.51.85 1.35.91 1.24.98 1.15 1.04 1.07 1.1 1 1.17.96 1.23.95 1.31.99 1.38 1.02 1.48 1.01 1.55.92 1.62.79 1.67.62 1.71.47 1.76.3 1.87.12 2.09-.03 2.39-.16 2.52-.3 2" filter="url(#a)"/><path d="m-2.39-89.96 2.65-.06 2.19.09 2.18.18 2.21.24 2.24.32 2.29.38 2.34.44 2.38.51 2.39.57 2.41.66 2.44.76 2.48.85 2.5.96 2.48 1.04 2.44 1.13 2.34 1.2 2.27 1.26 2.25 1.32 2.3 1.38 2.44 1.43 2.59 1.49 2.72 1.53 2.79 1.6 2.81 1.67 2.76 1.76 2.7 1.84 2.64 1.96 2.69 2.12 2.94 2.34 3.18 2.23" filter="url(#a)"/><path d="m-2.39-89.96 2.74-.06 2.33.08 2.43.18 2.48.23 2.46.3 2.44.37 2.44.43 2.43.48 2.44.55 2.5.62 2.64.71 2.84.82 3.03.92 3.15 1.02 3.21 1.11 3.22 1.17 3.24 1.22 3.21 1.26 3.11 1.32 2.96 1.43 3.12 1.48 4.63 1.37M-3.78-89.97l-3.14.39-2.27.32-2 .36-2.01.47-2.04.57-2.03.67-2.01.74-2 .81-1.98.88-1.95.94-1.92 1.02-1.9 1.08-1.87 1.18-1.86 1.26-1.86 1.35-1.84 1.43-1.81 1.5-1.77 1.56-1.7 1.63-1.65 1.69-1.59 1.75-1.54 1.82-1.5 1.89-1.46 1.95-1.43 2-1.39 2.05-1.35 2.1-1.3 2.14-1.25 2.2-1.2 2.26-1.16 2.31-1.12 2.35-1.08 2.43-1.04 2.6-.99 2.87-.86 2.81" filter="url(#a)"/><path d="m-7.49-89.56-2.79.33-3.08.3-2.71.45-2.06.57-1.8.65-2.11.74-2.74.8-3.5.86-4.14.93-4.6.98-4.88 1.05-5.12 1.14-5.34 1.23-5.54 1.32-5.61 1.42-5.38 1.48-4.84 1.53-4.12 1.57-3.52 1.62-3.36 1.7-3.78 1.8-4.58 1.89-5.23 1.93-5.32 1.92-5.14 1.91-4.75 1.85" filter="url(#a)"/><path d="m-7.49-89.56-2.22.33-2.03.31-2.17.46-2.06.58-1.96.68-1.95.75-2.01.82-2.11.88-2.21.95-2.31 1.02-2.38 1.09-2.42 1.18-2.42 1.27-2.33 1.36-2.22 1.44-2.1 1.51-2.02 1.57-1.99 1.63-2.03 1.7-2.07 1.76-2.09 1.83-2.04 1.89-1.95 1.95-1.82 2.01-1.71 2.05-1.66 2.11-1.66 2.15-1.7 2.21-1.76 2.26-1.83 2.32-1.87 2.36-1.86 2.41-1.73 2.44-1.48 2.38-1.23 2.14-1.26 1.75-1.86 2.03" filter="url(#a)"/><path d="m-7.12-89.73-3.13.36-3.91.51-3.98.59-3.45.63-2.69.67-2.18.73-2.12.82-2.53.92-3.27 1.03-4.16 1.14-4.91 1.23-5.3 1.32-5.26 1.37-4.87 1.43-4.32 1.47-3.78 1.52-3.38 1.56-3.09 1.61-2.85 1.64-2.59 1.69-2.35 1.73-2.31 1.81-2.66 1.92-3.56 2.04-4.83 2.14-6.02 2.19-6.65 2.19-6.64 2.21-6.71 2.31-7.68 2.45" filter="url(#a)"/><path d="m-9.29-89.42-2.28.51-2.99.62-3 .63-2.67.65-2.49.71-2.67.79-3.11.88-3.54 1.01-3.75 1.12-3.76 1.22-3.69 1.3-3.63 1.36-3.61 1.4-3.53 1.44-3.34 1.48-3.05 1.53-2.91 1.6-3.17 1.66-3.85 1.66-4.69 1.52-5.35 1.24-5.19.63" filter="url(#a)"/><path d="m-14.34-88.1-.41.52-1.46.62-1.11.7-1.12.8-1.5.91-1.88 1.05-1.98 1.16-1.83 1.26-1.53 1.33-1.19 1.38-.94 1.43-.78 1.47-.71 1.51-.69 1.56-.62 1.6-.45 1.64-.19 1.67.12 1.71.36 1.79.52 1.9.65 2.04.86 2.16L-29-55.7l1.57 2.15 1.81 2.13 1.75 2.46m7.29-38.81-2.34.53-2.36.74-2.19.83-2.7.89-3.47.96-4.06 1.01-4.24 1.07-4.09 1.16-3.76 1.26-3.45 1.36-3.19 1.45-2.99 1.51-2.82 1.56-2.67 1.61-2.53 1.67-2.4 1.74-2.29 1.81-2.21 1.89-2.24 1.94-2.46 1.98-2.94 2.03-3.58 2.07-4.12 2.11-4.19 2.18-3.76 2.28-3.16 2.35-3.24 2.23-3.29 1.23" filter="url(#a)"/><path d="m-17.36-87.45-2.24.91-2.27.86-2.63.91-3.19.96-3.55 1.02-3.49 1.07-3.21 1.16-3.09 1.27-3.38 1.37-3.98 1.45-4.6 1.52-4.94 1.57-4.89 1.61-4.54 1.68-4.1 1.74-3.77 1.82-3.55 1.88-3.47 1.95-3.45 1.99-3.59 2.03-3.9 2.07-4.41 2.13-4.9 2.18-5.11 2.25-4.97 2.3-4.57 2.25-3.88 2.1-4.56 2.44" filter="url(#a)"/><path d="m-17.36-87.45-3.21.91-3.61.87-3.53.91-3.2.96-2.94 1.02-2.77 1.08-2.64 1.17-2.46 1.27-2.24 1.38-2.02 1.46-1.86 1.52-1.78 1.57-1.76 1.63-1.79 1.68-1.85 1.76-1.99 1.82-2.2 1.9-2.52 1.95-2.89 1.99-3.27 2.05-3.57 2.08-3.75 2.14-3.73 2.19-3.54 2.25-3.25 2.3-3.02 2.34-2.98 2.42-2.93 2.59-2.56 2.86-2.8 2.79" filter="url(#a)"/><path d="m-19.77-86.44-8.31.79-2.23.87-.39.96-.55 1-1.32 1.05-2.17 1.13-2.98 1.25-3.8 1.36-4.69 1.45-5.58 1.5-6.32 1.55-6.69 1.57-6.56 1.63-5.97 1.71-5.11 1.8-4.21 1.87-3.51 1.93-3.41 1.95-4.22 2.01-5.45 2.06-5.58 2.04-6.26 1.56M69.9-15.34l.38 1.95.82 2.51 1.37 2.54 1.59 2.58 1.36 2.66.96 2.71.63 2.71.47 2.7.45 2.67.55 2.65.72 2.64.96 2.65 1.22 2.67 1.37 2.67 1.31 2.65 1.01 2.63.5 2.59-.11 2.57-.61 2.57-.86 2.58-.73 2.61-.25 2.63.39 2.58.79 2.49.45 2.4-.8 2.44-1.97 2.68" filter="url(#a)"/><path d="m-23.98-84.9-2.57 1.1-2.27 1.07-1.96 1.04-2.05 1.13-2.39 1.27-2.85 1.4-3.36 1.49-3.74 1.54L-49-73.3l-3.51 1.61-2.99 1.67-2.49 1.74-2.29 1.82-2.41 1.89-2.76 1.95-3.1 1.98-3.31 2.03-3.44 2.06-3.61 2.12-3.93 2.18-4.4 2.24-4.92 2.29-5.39 2.24-5.6 2.09-5.2 2.43" filter="url(#a)"/><path d="m-23.43-85.03-3.01 1.43-2.47 1.32-2.37 1.36-2.27 1.39-2.17 1.42-2.07 1.45-1.96 1.49-1.88 1.53-1.8 1.58-1.74 1.63-1.69 1.67-1.62 1.71-1.57 1.78-1.53 1.85-1.55 1.95-1.61 2.05-1.68 2.13-1.74 2.18-1.72 2.23-1.63 2.25-1.47 2.27-1.31 2.29-1.2 2.27-1.14 2.23-1.12 2.15-1.07 2.15-1.14 2.52-1.81 3.74m45.63-52.85-6.72 1.22-4.99 1.02-2.55 1.11-2.3 1.3-2.71 1.44-2.95 1.52-2.99 1.57-3.02 1.6-3.13 1.65-3.38 1.71-3.71 1.78-3.99 1.86-4.15 1.92-4.11 1.98-3.93 2.02-3.72 2.08-3.59 2.12-3.62 2.17-3.75 2.22-3.9 2.27-3.99 2.31-4.03 2.35-3.99 2.36-3.97 2.37-3.98 2.37-4.08 2.36-4.17 2.38-4.1 2.43-3.69 2.48-2.96 2.53-2.18 2.55-1.84 2.66-2.35 2.9-4.51 3.46" filter="url(#a)"/><path d="m-28.97-82.34-2.14.77-2.24 1-1.94 1.29-2.31 1.47-3.13 1.53-3.99 1.57-4.54 1.59-4.65 1.63-4.38 1.68-3.94 1.77-3.48 1.84-3.21 1.91-3.18 1.97-3.4 2-3.76 2.05-4.03 2.1-3.97 2.15-3.49 2.2-2.73 2.26-2.11 2.3-2.13 2.35-2.94 2.38-4.26 2.39-5.37 2.34-5.72 2.21-5.34 2.14-4.97 2.52-5.93 3.81M70-16.24l.34 2.04.38 2.1.45 2.2.61 2.32.87 2.44 1.09 2.56L74.9.09l1.05 2.77.85 2.87.64 2.95.47 2.99.32 2.98.2 2.89.1 2.74.14 2.58.37 2.44.71 2.33.95 2.27.91 2.26.61 2.3.32 2.46.25 2.71.26 2.97.12 2.65M-41.31-73.24l-1.56 1.35-2.06 1.79-1.92 1.78-1.65 1.71-1.51 1.73-1.48 1.85-1.5 2-1.52 2.11-1.51 2.18-1.49 2.21-1.46 2.24-1.44 2.25-1.4 2.27-1.36 2.27-1.28 2.27-1.15 2.27-1.02 2.31-.92 2.36-.92 2.44-1 2.51-1.12 2.55-1.19 2.55-1.13 2.5-.91 2.48-.66 2.47-.75 2.39" filter="url(#a)"/><path d="m69.27-19.04.69 2.94 1.98 2.58 3.97 2.56 4.82 2.56 4.13 2.6 2.63 2.66 1.17 2.7.27 2.72.08 2.7.5 2.67 1.27 2.66 2.02 2.65 2.52 2.66L98 18.29l2.57 2.68 2.3 2.66 1.87 2.62 1.22 2.61.33 2.58-.58 2.58-1.24 2.59-1.32 2.61-.87 2.61-.19 2.58.37 2.5.59 2.42.67 2.35.99 2.27.96 1.84" filter="url(#a)"/><path d="m69.27-19.04.81 2.94 1.22 2.58 1 2.56.61 2.56.31 2.6.14 2.66.1 2.7.18 2.72.28 2.7.33 2.67.27 2.66.08 2.65-.18 2.66-.44 2.67-.63 2.68-.68 2.66-.63 2.62-.49 2.61-.34 2.58-.24 2.58-.22 2.59-.26 2.61-.36 2.61-.49 2.58-.65 2.5-.81 2.42-.87 2.35-.83 2.27-.85 1.84M-43.99-71.05l-.9 1.18-1.74 2.01-1.91 2.09-2.12 2.04-2.43 2.02-2.55 2.04-2.36 2.09-1.91 2.14-1.49 2.2-1.24 2.25-1.27 2.29-1.48 2.34-1.75 2.35-1.97 2.38-2.14 2.37-2.25 2.39-2.34 2.4-2.42 2.43-2.46 2.48-2.44 2.54-2.34 2.63-2.18 2.72-2.03 2.8-1.96 2.86-1.97 2.88-1.95 2.84-1.81 2.74-1.39 2.64-.8 2.6-.32 2.65-.38 2.84-1.09 3.07-1.72 3.11-.91 2.47" filter="url(#a)"/><path d="m-44.88-70.04-2.04 2.09-1.59 1.56-1.68 1.6-1.78 1.82-1.73 2.03-1.61 2.16-1.55 2.22-1.6 2.23-1.72 2.25-1.82 2.26-1.82 2.27-1.69 2.27-1.5 2.28-1.29 2.29-1.17 2.33-1.17 2.37-1.23 2.45-1.28 2.51-1.25 2.54-1.14 2.55-1.03 2.56-1.01 2.59-1.07 2.64-1.18 2.69-1.17 2.63-1.02 2.33-.88 1.97" filter="url(#a)"/><path d="m-43.78-70.9-3.38 2.92-3.99 2.29-4.03 2.04-3 2-1.97 2.03-1.69 2.09-2.04 2.14-2.51 2.2-2.73 2.25-2.68 2.3-2.45 2.34-2.24 2.36-2.1 2.38-2.01 2.38-1.93 2.38-1.84 2.4-1.8 2.43-1.83 2.49-1.98 2.55-2.25 2.63-2.59 2.72-2.94 2.8-3.23 2.86-3.4 2.86-3.38 2.83-3.14 2.75-2.68 2.66-2.13 2.63-1.74 2.69-1.56 2.83-1.42 2.99-.96 3.06-.45 2.96-2.22 3.03" filter="url(#a)"/><path d="m-48.81-65.17-2.58 1.69-2.17 1.88-1.28 2.01-1.1 2.08-1.29 2.13-1.55 2.19-1.79 2.25-2.01 2.29-2.23 2.34-2.39 2.35-2.41 2.37-2.3 2.36-2.09 2.36-1.85 2.37-1.63 2.4-1.44 2.44-1.27 2.52-1.1 2.6-.93 2.7-.8 2.8-.72 2.9-.69 2.95-.7 2.89-.75 2.72-.81 2.5-.79 2.36-.68 2.35-1.46 2.63m40.81-67.43-.58 1.67-.77 1.86-1.02 1.98-1.34 2.06-1.5 2.11-1.44 2.16-1.22 2.21-.91 2.27-.59 2.31-.31 2.34-.1 2.35.05 2.35.19 2.32.32 2.31.44 2.33.54 2.39.66 2.46.86 2.49 1 2.52.84 2.61.32 2.86.73 3.42" filter="url(#a)"/><path d="m-49.73-64.46-3.91 3.44-2.75 2.56-1.53 2.31-1.54 2.24-2.22 2.24-2.75 2.28-2.7 2.29-2.21 2.3-1.61 2.3-1.23 2.33-1.16 2.36-1.31 2.42-1.5 2.47-1.63 2.53-1.74 2.56-1.86 2.58-2.11 2.6-2.48 2.62-2.89 2.64-3.2 2.65-3.24 2.68-2.91 2.7-2.26 2.74-1.48 2.79-.84 2.84-.55 2.87-.57 2.87-.75 2.81-.8 2.68-.71 2.5-.75 2.31-1.42 2.28-2.59 2.69" filter="url(#a)"/><path d="m-52.77-59.85-3.65 1.7-3.1 2.15-1.81 2.19-1.7 2.23-1.81 2.28-1.64 2.3-1.21 2.31-.79 2.31-.65 2.33-.79 2.37-1.06 2.43-1.28 2.49-1.32 2.54-1.16 2.57-.92 2.59-.73 2.61-.66 2.63-.73 2.65-.83 2.66-.91 2.7-.94 2.72-.91 2.75-.93 2.79-1.02 2.83-1.16 2.83-1.31 2.81-1.31 2.76-1.13 2.67-.73 2.59-.24 2.55.17 2.6.38 2.74.34 2.95.17 3.06.04 2.71.49 1.36" filter="url(#a)"/><path d="m-52.77-59.85-1.9 1.69-2.77 2.13-2.17 2.18-1.6 2.22-1.59 2.26-1.96 2.3-2.4 2.29-2.79 2.29-3.03 2.31-3.1 2.35-3 2.41-2.77 2.47-2.44 2.52-2.05 2.56-1.68 2.57-1.33 2.6-1.07 2.61-.9 2.62-.9 2.65-1.15 2.66-1.7 2.68-2.45 2.72-3.17 2.78-3.48 2.84-3.2 2.9-2.5 2.92-1.92 2.89-2.04 2.75-3.16 2.48-4.46 2.27" filter="url(#a)"/><path d="m-54.47-57.59-2.61 2.5-3.84 2.16-3.24 2.25-2.21 2.34-2.02 2.37-2.73 2.39-3.89 2.38-5 2.38-5.63 2.36-5.46 2.38-4.43 2.41-2.77 2.48-1.02 2.55.21 2.64.49 2.73-.17 2.8-1.43 2.85-2.73 2.86-3.58 2.81-3.84 2.73-3.67 2.67-3.45 2.66-3.5 2.7-3.99 2.8-4.77 2.87-5.59 2.86-6.09 2.68-5.87 2.37-4.62 2.03-2.36 2.2m99.81-76.21-2.24 2.5-1.92 2.16-1.71 2.24-1.58 2.34-1.46 2.37-1.39 2.38-1.38 2.38-1.35 2.37-1.23 2.37-1.07 2.37-.92 2.4-.84 2.47-.85 2.55-.93 2.63-1 2.73-1.07 2.8-1.08 2.86-1.08 2.86L-78.6-10l-.95 2.73-.82 2.65-.73 2.63-.72 2.69-.84 2.81-1.04 2.92-1.09 2.94-.83 2.74-.25 2.3-.43 1.31" filter="url(#a)"/><path d="m-56.61-54.38-1.47 1.54-1.91 2.18-1.66 2.36-1.51 2.38-1.53 2.39-1.49 2.38-1.3 2.37-1 2.36-.69 2.36-.49 2.4-.41 2.46-.41 2.55-.48 2.63-.56 2.73-.63 2.8-.66 2.86-.66 2.86-.62 2.81-.56 2.73-.52 2.64-.5 2.62-.5 2.69-.46 2.81-.4 2.92-.3 2.93-.23 2.74-.19 2.29-.32 1.31" filter="url(#a)"/><path d="m-60.78-46.5-3.37 2.35-2.68 2.2-3.33 2.22-4.17 2.3-4.13 2.44-3.09 2.53-1.77 2.59-.89 2.6-.76 2.6-1.2 2.61-1.83 2.63-2.38 2.65-2.67 2.67-2.65 2.69-2.37 2.72-1.92 2.76-1.42 2.79-1.01 2.81-.84 2.82-.98 2.79-1.45 2.73-2.13 2.67-2.83 2.63-3.36 2.61-3.51 2.65-3.25 2.7-2.71 2.75-2.1 2.74-1.61 2.67-1.15 2.57-.41 2.6.71 2.87 1.27 3.27-1.44 3.25" filter="url(#a)"/><path d="m-60.78-46.5-9.81 2.32L-81.36-42l-4.62 2.18.13 2.26.95 2.39-.78 2.51-2.89 2.56-4.17 2.57-4.42 2.56-4.03 2.57-3.37 2.59-2.62 2.61-1.99 2.62-1.79 2.64-2.31 2.66-3.53 2.7-4.79 2.76-5.25 2.82-4.4 2.89-2.85 2.9-1.92 2.86-2.5 2.72-3.6 2.45-2.75 2.25m82.91-59.39-1.42 3.23-1.31 2.79-1.5 2.34-1.86 2.22-2.19 2.33-2.34 2.45-2.32 2.55-2.27 2.63-2.17 2.72-1.96 2.82-1.61 2.88-1.13 2.87-.64 2.8-.3 2.68-.25 2.6-.48 2.58-.95 2.66-1.53 2.8-1.96 2.91-1.97 2.92-1.31 2.71-.44 2.26-1.39 1.29m31.87-56.68-1.22 3.09-.81 2.22-.64 2.13-.65 2.34-.67 2.51-.65 2.62-.62 2.7-.57 2.79-.51 2.86-.46 2.88-.42 2.86-.38 2.81-.32 2.75-.27 2.72-.19 2.71-.12 2.72-.03 2.74.05 2.73.12 2.7.2 2.65.26 2.6.32 2.58.38 2.58.44 2.62.51 2.67.58 2.68.65 2.66.69 2.57.71 2.42.72 2.27.77 2.2.86 2.24.99 2.35 1.05 2.34.86 2.12" filter="url(#a)"/><path d="m-64.54-37.57-.92.32-2.47 2.15-4.28 2.66-5.42 2.67-6.07 2.59-6.32 2.55-5.91 2.56-4.81 2.59-3.31 2.61-2.04 2.64-1.47 2.64-1.69 2.67-2.41 2.72-3.17 2.76-3.67 2.82-3.79 2.85-3.52 2.83-2.86 2.75-1.9 2.63-.94 2.47-.55 2.33-1.32 2.32-3.38 2.46-4.68 2.57m76.9-60.16-.03.31-.78 2.14-.94 2.65-.85 2.66-.74 2.58-.64 2.53-.58 2.55-.54 2.58-.49 2.61-.42 2.62-.34 2.63-.26 2.65-.2 2.69-.15 2.76-.13 2.82-.08 2.86-.05 2.86-.03 2.81-.02 2.65-.02 2.41-.01 2.12.04 1.84m7.26-54.33-.21.35-1.12 2.18-2.4 2.68-3.77 2.69-4.41 2.61-3.96 2.58-2.72 2.59-1.28 2.62-.24 2.64.07 2.67-.33 2.68-1.29 2.71-2.45 2.76-3.5 2.79-4.17 2.81-4.43 2.82-4.37 2.78-4.23 2.73-4.16 2.66-4.09 2.61-3.86 2.6-3.26 2.63-2.25 2.7-1.1 2.75-.15 2.73.19 2.66-.34 2.56-1.55 2.59-2.42 2.86-1.8 3.27-2.08 3.24" filter="url(#a)"/><path d="m-63.89-38.88-2.28 3.34-1.85 3.17-1.22 2.79-1.37 2.59-1.93 2.55-2.38 2.57-2.38 2.61-1.93 2.64-1.28 2.65-.78 2.67-.65 2.7-.91 2.74-1.37 2.79-1.74 2.82-1.9 2.82-1.81 2.79-1.63 2.72-1.38 2.64-1.13 2.58-.81 2.55-.53 2.61-.41 2.71-.57 2.81-.89 2.8-1.09 2.61-1.06 2.31-.88 2.17.24 2.47" filter="url(#a)"/><path d="m-65.6-34.59-2.73.89-2.54 2.33-3.01 2.67-3.27 2.67-2.79 2.68-1.9 2.76-1.12 2.86-.62 2.92-.45 2.88-.57 2.79-.92 2.72-1.46 2.66-2.08 2.66-2.68 2.71-3.12 2.74-3.3 2.75-3.18 2.71-2.82 2.63-2.33 2.54-1.92 2.51-1.64 2.51-1.48 2.58-1.34 2.68-1.18 2.8-1.12 2.89-1.37 2.84-2.25 2.42-3.81 1.53M68.12-25.01l5.17 2.02 5.31 2.39 2.89 2.73.33 2.7-1.07 2.56-1.12 2.46-.23 2.45 1.07 2.5 2.42 2.59L86.38.07l4.04 2.78 3.96 2.87 3.37 2.94 2.49 2.97 1.58 2.95.77 2.87.12 2.75-.36 2.62-.63 2.48-.62 2.4-.29 2.34.25 2.35.88 2.39 1.36 2.48 1.52 2.57 1.09 2.6.04 2.5-.99 2.27-.27 1.91 4.09 1.14" filter="url(#a)"/><path d="m67.26-28.96.69 2.99.73 3.09.78 3.1.81 2.96.85 2.8.82 2.7.71 2.64.61 2.65.55 2.66.6 2.69.72 2.7.9 2.7 1.06 2.68 1.23 2.66 1.39 2.66 1.52 2.67 1.59 2.67 1.53 2.68 1.23 2.67.73 2.63.09 2.6-.52 2.58-.92 2.58-.97 2.6-.7 2.63-.3 2.65-.13 2.62-.44 2.48-.93 2.3.1 2.38M67.28-28.72l-1.58 3.05-3.82 2.5-1.68 2.57.84 2.67 1.71 2.65 1.2 2.56.16 2.49-.74 2.47-1.2 2.52-1.29 2.59L59.62.03l-1.31 2.78-1.58 2.87-1.97 2.93-2.34 2.97-2.6 2.95-2.75 2.87-2.85 2.75-2.99 2.62-3.09 2.5-3.11 2.4-2.94 2.35-2.6 2.35-2.17 2.39-1.76 2.48-1.4 2.57-.98 2.6-.54 2.51-.32 2.27-.85 1.92-1.44 1.14" filter="url(#a)"/><path d="m67.28-28.72 1.8 3.03 2.53 2.49 3.08 2.55 3.08 2.67 2.34 2.64 1.4 2.55.71 2.47.49 2.46.73 2.49 1.24 2.57 1.83 2.65 2.37 2.76 2.72 2.85 2.77 2.94 2.45 2.98 1.72 2.98.76 2.9-.19 2.78-.82 2.61-.91 2.46-.43 2.36.43 2.27 1.25 2.24 1.64 2.26 1.57 2.41 1.38 2.81.87 3.78" filter="url(#a)"/><path d="m67.17-29.34.32 1.3.77 2.38 1.28 2.84 1.73 2.97 1.94 2.92 1.88 2.81 1.7 2.72 1.56 2.67 1.55 2.66 1.64 2.67 1.7 2.7L84.81 2l1.22 2.7.76 2.68.37 2.68.25 2.66.44 2.68.84 2.68 1.27 2.67 1.51 2.67 1.45 2.64 1.14 2.61.67 2.6.27 2.58.05 2.61.03 2.62.13 2.64.07 2.6-.33 2.51-.97 2.41-1.21 2.46.16 2.69" filter="url(#a)"/><path d="m67.17-29.34 8.14 1.3 1.29 2.38-.97 2.84-.45 2.97.83 2.92 1.8 2.81 2.13 2.72 1.88 2.67 1.35 2.66.78 2.67.38 2.7.18 2.7.17 2.7.32 2.68.56 2.68.86 2.66 1.17 2.68L89 18.08l1.57 2.67 1.65 2.67 1.7 2.64 1.84 2.61 2.05 2.6 2.32 2.58 2.48 2.61 2.36 2.62 1.84 2.64.88 2.6-.31 2.51-1.18 2.41-1 2.46.29 2.69" filter="url(#a)"/><path d="m66.7-31.14 2.43 2.64 3.22 2.66 3.09 2.57 2.35 2.61 1.73 2.65 1.65 2.63 1.99 2.55 2.36 2.5 2.47 2.49 2.31 2.53 2.08 2.59 1.97 2.68 2.02 2.77 2.2 2.86 2.39 2.93 2.58 2.97 2.73 2.95 2.85 2.87 2.82 2.77 2.54 2.62 1.96 2.5 1.26 2.39.69 2.34.42 2.34.31 2.38.15 2.48v2.61l.42 2.67 1.65 2.57 1.94 2.38-1.82 2.54" filter="url(#a)"/><path d="m64.82-36.56 1.29 3.06 1.86 2.72 2.13 2.54 2.47 2.64 2.72 2.79 2.73 2.87 2.61 2.86 2.51 2.81 2.4 2.74 2.16 2.71 1.68 2.68 1.02 2.69.24 2.7-.48 2.71-1.05 2.7-1.4 2.7-1.5 2.68-1.41 2.69-1.17 2.68-.84 2.68-.48 2.69-.15 2.67.13 2.64.35 2.63.54 2.61.68 2.61.8 2.61.81 2.62.67 2.61.35 2.58-.07 2.51-.37 2.43-.51 2.35-.69 2.23-1.09 2.06-.57 1.89" filter="url(#a)"/><path d="m64.82-36.56 1.4 3.03 1.2 2.69 1.34 2.5 1.35 2.59 1.1 2.75.84 2.84.76 2.85.81 2.79.87 2.71.78 2.65.55 2.64.31 2.65.16 2.67.15 2.69.21 2.69.25 2.67.17 2.63-.01 2.61-.18 2.63-.23 2.69-.12 2.74.08 2.71.26 2.6.22 2.67-.16 3.63M64.08-38.95l2.46 2.2 1.11 2.67 1.44 2.66 1.92 2.61 1.98 2.57 1.79 2.57 1.7 2.6 1.84 2.6 2.13 2.59 2.43 2.54 2.58 2.48 2.62 2.46 2.71 2.47 3.1 2.52L97.86-.8l5.16 2.69 6.24 2.8 6.57 2.91 5.88 3.06 4.54 3.15 3.78 3.14 4.53 2.93 5.43 2.55.13 2.2" filter="url(#a)"/><path d="m64.08-38.95 1.87 2.19 3.99 2.66 4.57 2.65 3.76 2.6 2.63 2.56 1.84 2.56 1.56 2.58 1.68 2.6 1.91 2.59 1.94 2.53 1.52 2.47.76 2.43.1 2.45.02 2.49.76 2.58 1.96 2.67 2.91 2.75 2.9 2.87 1.93 3.07.63 3.32.11 3.39 1.44 2.83" filter="url(#a)"/><path d="m62.58-42.24 1.31 2.79 1.12 2.64 1.01 2.68.9 2.66.77 2.63.66 2.6.58 2.6.54 2.61.51 2.62.47 2.59.4 2.55.31 2.52.22 2.5.15 2.51.1 2.57.06 2.65.01 2.74-.04 2.84-.11 2.93-.18 3-.26 3.02-.31 2.96-.36 2.83-.39 2.63-.43 2.47-.45 2.36-.47 2.29-.41 2.09-.19 1.33" filter="url(#a)"/><path d="m62.58-42.24 1.83 2.76.99 2.61.79 2.65.74 2.63.79 2.6.87 2.57.88 2.57.8 2.58.67 2.6.49 2.59.35 2.53.27 2.47.26 2.43.26 2.44.27 2.49.27 2.57.22 2.65.16 2.73.09 2.81-.01 3.06-.16 3.54-.4 3.82" filter="url(#a)"/><path d="m62.44-43.01 5.91 2.7.31 2.18.18 2.24 1.04 2.39 1.51 2.49 1.45 2.56 1.14 2.66.85 2.75.78 2.8.97 2.81 1.36 2.79 1.88 2.74 2.41 2.71 2.78 2.68 2.87 2.69 2.57 2.69 1.95 2.7 1.19 2.7.52 2.68.15 2.67.18 2.67.56 2.67 1.16 2.69 1.71 2.7 2.04 2.68 1.92 2.65 1.41 2.6.7 2.56.19 2.54.2 2.5.73 2.46 1.2 2.59" filter="url(#a)"/><path d="m61.76-44.43.96 2.35 1.13 2.53 1.32 2.6 1.53 2.63 1.67 2.63 1.61 2.6 1.35 2.58.99 2.58.69 2.59.52 2.6.53 2.59.65 2.53.77 2.48.79 2.44.67 2.45.48 2.49.34 2.58.34 2.66.49 2.72.66 2.83.69 3.06.47 3.54.36 3.83" filter="url(#a)"/><path d="m61.07-46.2 4.19 2.98 1.21 2.56.31 2.3.3 2.29.55 2.36.78 2.43.9 2.52.91 2.6.83 2.7.74 2.78.69 2.8.73 2.77.83 2.72.93 2.65.99 2.62.93 2.63.77 2.66.55 2.7.35 2.74.22 2.77.14 2.74.15 2.37.75.85" filter="url(#a)"/><path d="m60.82-46.18 4.31 1.07 7.82 2.14 4.21 2.32.6 2.32.41 2.35 2.61 2.41 5.2 2.49 6.71 2.56 6.74 2.66 5.52 2.73 3.63 2.78 1.67 2.8.14 2.78-.7 2.75-.82 2.72-.35 2.7.44 2.69 1.34 2.7 2.14 2.7 2.77 2.7 3.17 2.69 3.33 2.68 3.23 2.67 2.86 2.68 2.26 2.69 1.48 2.71.71 2.69.15 2.65.02 2.6.35 2.57.89 2.54 1.3 2.51 1.72 2.47 1.74 2.59" filter="url(#a)"/><path d="m56.95-53.35 2.07 1.54 2.83 2.33 2.29 2.37 2.01 2.39 2.34 2.45 3.06 2.51 3.91 2.58 4.71 2.61 5.23 2.62 5.35 2.62 5.06 2.61 4.41 2.62 3.48 2.61 2.35 2.61 1.24 2.59.36 2.56.02 2.52.33 2.49 1.19 2.5 2.25 2.54 3.11 2.61 3.49 2.69 3.4 2.8 3.16 2.92 3.3 3.08 4.19 3.23 5.23 3.27 4.97 3 4.71 2.62" filter="url(#a)"/><path d="m52.75-60.13 8.74 2.56 6.56 1.97 1.67 1.88-.79 2-1.16 2.14-.39 2.26.81 2.34 1.95 2.42 2.75 2.48L76-37.54l3.15 2.58 3.07 2.6 3.05 2.61 3.11 2.6 3.24 2.6 3.35 2.61 3.35 2.62 3.15 2.61 2.77 2.57 2.35 2.49 2.11 2.42 2.28 2.39 2.84 2.44 3.46 2.59 3.85 2.94 4.18 3.52" filter="url(#a)"/><path d="m52.75-60.13 2.82 2.57 3.12 1.98 4.96 1.9 6.54 2.01 6.99 2.16 6.36 2.27 5.01 2.36 3.39 2.43 1.88 2.5.73 2.56-.01 2.59-.36 2.61-.47 2.62-.38 2.62-.11 2.61.34 2.62.99 2.62 1.75 2.59 2.55 2.57 3.23 2.52 3.72 2.49 3.99 2.48 4.2 2.53 4.55 2.59 5.15 2.67 5.74 2.75 5.59 2.86 4.04 3.09 1.93 3.55 3.83 3.87" filter="url(#a)"/><path d="m48.55-65.82 2.14 2.51 2.37 2.72 2.05 2.47 1.72 2.22 1.64 2.1 1.94 2.12 2.6 2.18 3.44 2.28 4.19 2.36 4.52 2.44 4.33 2.5 3.77 2.56 3.08 2.59 2.56 2.62 2.32 2.63 2.33 2.63 2.5 2.63 2.71 2.63 2.9 2.61 3.06 2.6 3.13 2.58 3.07 2.55 2.87 2.53 2.55 2.54 2.25 2.58 2.05 2.65 2.05 2.72 2.16 2.83 2.23 2.94 2.03 3.05 1.54 3.13.95 3.09.82 2.93 1.65 2.61 3.14 2.26 3 1.96" filter="url(#a)"/><path d="m48.55-65.82 2.02 2.51 2.15 2.71 2.03 2.47 2.03 2.21 2.04 2.09 1.96 2.11 1.84 2.18 1.73 2.26 1.7 2.35 1.72 2.43 1.72 2.5 1.66 2.55 1.52 2.59L74-32.25l1.13 2.62.96 2.63.88 2.62.86 2.63.91 2.61 1.01 2.6 1.13 2.57 1.28 2.54 1.44 2.51 1.59 2.51 1.7 2.54 1.66 2.61 1.5 2.69 1.21 2.78.92 2.91.81 3.1.89 3.35.97 3.43 1.13 2.89M48.55-65.82l2.54 2.51 4.99 2.72 6.15 2.47 5.15 2.21 3.33 2.1 1.98 2.12 1.39 2.18 1.25 2.27 1.32 2.36 1.48 2.43 1.77 2.51 2.15 2.55 2.54 2.59 2.8 2.62 2.93 2.62 2.94 2.63 2.86 2.63 2.78 2.63 2.71 2.62 2.67 2.6 2.7 2.57 2.81 2.54 3.01 2.53 3.22 2.53 3.47 2.57 3.7 2.63 3.96 2.72 4.14 2.82 4.02 2.94 3.42 3.07 2.45 3.17 1.8 3.17 2.26 2.98 3.45 2.61 4.67 2.23" filter="url(#a)"/><path d="m49.43-64.55-3.49.85-.47 1.88 1.09 2.05 1.19 2.02 1.03 2.06.88 2.2.56 2.34v2.42l-.72 2.45-1.42 2.43-1.92 2.39-2.1 2.37-1.92 2.37-1.36 2.39-.57 2.44.27 2.51.91 2.58 1.16 2.68.95 2.77.34 2.81-.5 2.8-1.31 2.75-1.83 2.67-1.9 2.61-1.62 2.61-1.36 2.73L33.59.56l-2.76 3.15" filter="url(#a)"/><path d="m44.35-70.62 2.21 2.57 2.14 2.19 2.15 2.01 2.25 2.01 2.3 2.01 2.23 2.05 2 2.12 1.69 2.23 1.49 2.33 1.47 2.41 1.65 2.43 1.93 2.43 2.2 2.41 2.32 2.4 2.32 2.41 2.19 2.43 2.02 2.49 1.82 2.54 1.65 2.62 1.52 2.69 1.43 2.74 1.4 2.78 1.36 2.78 1.27 2.76 1.12 2.72.96 2.69.86 2.69.89 2.7.97 2.73.96 2.76.7 2.75.29 2.66.08 2.41.38 1.98 1.46 2.14" filter="url(#a)"/><path d="m41.91-72.95 1.67 1.71 1.5 1.59 1.63 1.8 1.64 1.92 1.58 1.96 1.51 2 1.44 2.01 1.4 2.06 1.37 2.12 1.37 2.22 1.35 2.31 1.31 2.38 1.24 2.42 1.15 2.41 1.07 2.41.97 2.4.9 2.39.85 2.42.8 2.47.77 2.52.73 2.6.69 2.68.64 2.76.58 2.8.52 2.81.46 2.76.39 2.7.31 2.64.23 2.65.15 2.7.09 2.74.07 2.58.1 1.82M41.91-72.95l3.79 1.71 4.25 1.58 3.42 1.8 2.07 1.91 1 1.96.61 1.99.91 2.01 1.65 2.05 2.59 2.11 3.5 2.21 4.21 2.31 4.58 2.38 4.59 2.41 4.23 2.42 3.6 2.4 2.82 2.39 2.04 2.38 1.37 2.41.96 2.44.86 2.51 1.09 2.59 1.57 2.68 2.12 2.77 2.6 2.82 2.91 2.83 2.98 2.77 2.78 2.66 2.31 2.58 1.94 2.57 2.16 2.71 1.33 2.9" filter="url(#a)"/><path d="m40.5-74.08 2.68 1.85 2.94 1.82 2.54 1.8 2.07 1.8 1.74 1.9 1.51 2.03 1.36 2.13 1.29 2.19 1.35 2.17 1.49 2.16 1.62 2.17 1.67 2.2 1.6 2.26 1.43 2.33 1.24 2.4 1.12 2.47 1.07 2.52 1.12 2.58 1.21 2.6 1.31 2.61 1.37 2.62 1.41 2.62 1.4 2.63 1.35 2.64 1.26 2.64 1.11 2.59.92 2.52.71 2.43.58 2.37.59 2.38.73 2.45L85.51.72" filter="url(#a)"/><path d="m39.61-74.93 1.94 1.17 2.25 1.56 2.61 1.71 3.17 1.74 3.52 1.77 3.45 1.86 3.09 1.99 2.76 2.1 2.75 2.16 3.09 2.15 3.61 2.12 3.97 2.11 3.96 2.13 3.55 2.19 2.96 2.26 2.45 2.34 2.29 2.42 2.5 2.5 2.94 2.57 3.31 2.62 3.41 2.63 3.68 2.7 5.03 3.12" filter="url(#a)"/><path d="m39.61-74.93 3.36 1.2 3.69 1.59 2.62 1.74 2.12 1.78 1.97 1.82 1.91 1.93 1.86 2.03 1.79 2.13 1.74 2.17 1.74 2.17 1.79 2.18L66.12-52l2.05 2.23 2.13 2.27 2.13 2.35 2.08 2.41 2.01 2.48 1.97 2.53 1.96 2.58 1.99 2.6 2.01 2.62 2.03 2.63 2.06 2.64 2.09 2.63 2.15 2.63 2.17 2.61 2.13 2.58 1.99 2.55 1.75 2.5 1.47 2.5 1.18 2.53.96 2.6.82 2.68.73 2.73.57 2.75.39 3.01.55 4.08" filter="url(#a)"/><path d="m36.21-77.41 3.37 1.93 2.2 1.62 2.48 1.64 2.8 1.71 2.97 1.74 3.31 1.8 3.85 1.88 4.35 2L66.07-61l4.23 2.15 3.53 2.15 2.67 2.14 1.96 2.13 1.6 2.16 1.66 2.21 2.09 2.28 2.61 2.36 3.05 2.44 3.29 2.51 3.39 2.57 3.52 2.62 3.63 2.64 3.56 2.62 3.21 2.49 3.15 2.05 3.99.87" filter="url(#a)"/><path d="m36.21-77.41 4 1.94 5.61 1.63 5.16 1.66 3.94 1.71 2.59 1.76 1.32 1.82.5 1.91.31 2.01.6 2.11 1.12 2.15 1.58 2.16 1.91 2.16L67-52.23l2.35 2.2 2.59 2.25 2.87 2.31 3.13 2.39 3.36 2.46 3.59 2.52 3.82 2.57 4.06 2.6 4.17 2.61 4.04 2.62 3.66 2.61 3.2 2.62 2.94 2.67 2.94 2.69 2.83 2.66 2.02 2.47.58 2.26-.63 2.41" filter="url(#a)"/><path d="m35.34-78.1 4.89 1.93 4.4 1.66 3.94 1.55 4.54 1.56 4.97 1.63 4.75 1.74 4.12 1.83 3.31 1.9 2.59 1.95 2.13 1.97 2.1 2 2.41 2.06 2.84 2.15 3.11 2.27 3.14 2.36 3.14 2.43L95-44.69l3.56 2.38 3.75 2.32 3.64 2.29 3.42 2.34 3.49 2.45 4.57 2.44 8.15 1.51M35.34-78.1l2.12 1.93 1.86 1.66 1.77 1.55 1.62 1.56 1.51 1.63 1.46 1.74 1.48 1.83 1.49 1.9 1.48 1.95 1.39 1.97 1.26 2 1.14 2.06 1.04 2.15.99 2.27 1 2.36 1.03 2.43 1.03 2.42.99 2.38.88 2.32.71 2.29.54 2.34.43 2.45.42 2.44.32 1.51" filter="url(#a)"/><path d="m32.1-80.39 5.04 1.77 1.76 1.53 1.54 1.54 1.98 1.57 2.44 1.63 2.74 1.68 2.81 1.72 2.72 1.77 2.56 1.86 2.4 1.97 2.3 2.07 2.26 2.13 2.31 2.14 2.4 2.12 2.5 2.09 2.58 2.12 2.54 2.16 2.43 2.24 2.34 2.32 2.47 2.39 2.64 2.47 2.17 2.64.66 3.28" filter="url(#a)"/><path d="m32.3-80.09 1.21.47 2.69 1.19 3.3 1.41 3.18 1.52 2.55 1.59 1.82 1.65 1.33 1.7 1.13 1.76 1.24 1.83 1.53 1.91 1.88 2 2.2 2.08 2.41 2.13 2.52 2.15 2.57 2.16 2.58 2.17 2.58 2.2 2.53 2.25 2.39 2.32 2.19 2.38 1.98 2.46 1.87 2.52 1.85 2.57 1.91 2.61 1.94 2.62 1.86 2.61 1.65 2.61 1.34 2.62 1.01 2.68.83 2.76.88 2.73 1.12 2.41 1.82 1.82M32.3-80.09l-1.6.45-.4 1.16 1.16 1.39 2.03 1.49 2.01 1.55 1.48 1.62.83 1.66.29 1.71-.03 1.77-.11 1.84.06 1.96.3 2.06.41 2.13.18 2.14-.42 2.11-1.21 2.07-1.85 2.08-1.97 2.15-1.39 2.23-.31 2.3.36 2.46-1.73 2.81m-1.45-43.51 3.62 2.17 3.36 1.39 4.12 1.32 4.26 1.42 3.63 1.48 3.04 1.54 3.11 1.57 3.81 1.65 4.64 1.72 5.08 1.8 4.88 1.88 4.25 1.92 3.56 1.96 3.1 1.98 2.96 2.04 3.09 2.12 3.58 2.25 4.49 2.38 5.7 2.46 6.67 2.47 6.96 2.42 6.87 2.31 7.66 2.03 9.06 1.62" filter="url(#a)"/><path d="m28.94-82.46 3.37 2.19 1.99 1.4 1.81 1.35 1.97 1.43 2.1 1.51 2.14 1.56 2.07 1.61 1.95 1.68 1.82 1.76 1.69 1.83 1.61 1.9 1.56 1.95 1.56 2 1.59 2.06 1.63 2.11 1.67 2.2 1.65 2.28 1.6 2.35 1.48 2.4 1.33 2.41 1.2 2.4 1.11 2.39 1.09 2.38 1.11 2.39 1.15 2.42 1.15 2.47 1.08 2.55.97 2.67.88 2.82.88 2.94.96 2.97 1.03 2.92 1.17 3.5" filter="url(#a)"/><path d="m28.94-82.46 2.51 2.19 1.04 1.4.62 1.35.52 1.44.71 1.51.85 1.56.67 1.61.18 1.68-.36 1.77-.68 1.83-.67 1.9-.38 1.96.03 2 .47 2.06.82 2.12 1.1 2.2 1.27 2.29 1.26 2.35 1.04 2.39.57 2.41-.13 2.41-.92 2.39-1.62 2.39-2 2.4-1.97 2.43-1.67 2.49-1.45 2.56-1.68 2.68-2.48 2.8-3.59 2.9-4.37 2.93-4.19 2.85-2.8 2.69-2.12 2.09" filter="url(#a)"/><path d="m26.06-83.93 3.23 1.92 2.12 1.28 1.78 1.14 1.79 1.23L36.85-77l1.93 1.47 1.96 1.56 1.95 1.63 1.93 1.69 1.9 1.75 1.85 1.82 1.82 1.9 1.78 1.99 1.76 2.06 1.71 2.12 1.65 2.14 1.58 2.15 1.48 2.17 1.41 2.19 1.34 2.23 1.3 2.3 1.31 2.37 1.34 2.45 1.36 2.52 1.34 2.58 1.26 2.62 1.12 2.64.94 2.61.8 2.53.78 2.45.91 2.61 1.32 4.21" filter="url(#a)"/><path d="m25.31-84.04 3.58 1.28 1.9 1.19 1.84 1.25 2.19 1.3 2.66 1.33 3.01 1.41 3.04 1.46 2.77 1.51 2.37 1.56 2.01 1.62 1.82 1.69 1.8 1.79 1.92 1.85 2.12 1.92 2.36 1.94L63.35-59l2.91 1.94 3.04 2.01 2.97 2.23 2.65 2.55 2.44 2.62 3.04 1.45" filter="url(#a)"/><path d="m24.73-84.37 7.31.99 4.26 1.3 1.82 1.22 1.97 1.16 3.42 1.22 4.78 1.32 5.23 1.43 4.7 1.51 3.56 1.59 2.41 1.64 1.77 1.69 1.88 1.75 2.67 1.82 3.9 1.93 5.26 2.06 6.4 2.16 6.95 2.16 6.63 2.09 5.62 1.99 4.62 2.04 4.39 2.2 6.1 1.74" filter="url(#a)"/><path d="m19.23-86.57 2.44.54 3.08.94 3.65 1.08 4.27 1.14 4.29 1.19 3.61 1.23 2.71 1.28 2.16 1.33 2.26 1.39 2.85 1.44 3.55 1.49 4.12 1.54 4.53 1.6 5.05 1.68 5.89 1.76 7.01 1.85 7.95 1.93 8.07 1.97 6.88 1.95 4.62 1.79 2.76 1.57 4.14 2.01" filter="url(#a)"/><path d="m19.23-86.57 1.97.56 2.37.96 2.54 1.1 2.73 1.16 2.89 1.21 2.91 1.26L37.4-79l2.49 1.36 2.22 1.43 2.03 1.48 1.91 1.54 1.86 1.6 1.83 1.66 1.83 1.74 1.85 1.81 1.9 1.87 1.97 1.93 2.06 1.98 2.15 2.03 2.25 2.1 2.36 2.18 2.46 2.26 2.55 2.36 2.58 2.41 2.51 2.43 2.28 2.4 1.98 2.37 1.69 2.35 1.61 2.36 1.77 2.42 1.96 2.42 1.8 2.29 1.73 2.43M18.12-87.31l1.55.62 2.05.73 2.32.93 2.48 1.04 2.59 1.13 2.71 1.19 2.95 1.24 3.29 1.3 3.69 1.34 4.17 1.4 4.71 1.45 5.33 1.51 5.86 1.56 6.07 1.63 5.76 1.7 4.98 1.78 4.03 1.86 3.36 1.91 3.3 1.95 3.9 1.95 4.89 1.96 5.91 2.03 6.73 2.24 7.22 2.56 6.99 2.63 4.62 1.47" filter="url(#a)"/><path d="m15.47-88.06 2.21.68 2.23.67 2.5.76 2.65.91 2.76 1.02 2.98 1.1 3.3 1.17 3.65 1.22 3.9 1.28 4.02 1.33 4.02 1.38 4.01 1.43 4 1.49 4 1.54 4 1.59 3.98 1.67 3.95 1.76 3.84 1.84L81-63.28l3.01 2.03 2.65 2.02 2.96 1.7 4.04.69" filter="url(#a)"/><path d="m15.47-88.06 1.69.69 1.29.67 1.72.77 2.12.91 2.27 1.03 2.21 1.11 2.04 1.18 1.82 1.24 1.61 1.28 1.43 1.34 1.27 1.4 1.15 1.45 1.06 1.5 1.01 1.56.98 1.62 1.03 1.7 1.08 1.77 1.11 1.86 1.08 1.91.94 1.95.78 1.94.67 1.92.69 1.95.88 2.23 1.12 2.88 1.43 4.02" filter="url(#a)"/><path d="m13.93-88.15 2.15.3 2.67.53 3.28.65 3.34.77 3.01.9 2.7 1.01 2.55 1.1 2.45 1.18 2.27 1.23 2.03 1.28 1.82 1.34 1.74 1.4 1.84 1.44 2.1 1.51 2.45 1.56 2.87 1.62 3.3 1.7 3.71 1.77L64.28-65l4.29 1.91 4.28 1.95 4 1.95 3.57 1.92 3.33 1.96 3.67 2.22 4.68 2.89 5.27 4.02" filter="url(#a)"/><path d="m11.42-88.97 2.64.6 3.32.51 3.37.56 2.96.66 2.57.77 2.4.9 2.52 1.01 2.78 1.1 3.03 1.17 3.16 1.23 3.18 1.29 3.17 1.34 3.21 1.4 3.38 1.46 3.72 1.51 4.2 1.57 4.72 1.64 5.15 1.71 5.33 1.78 5.2 1.86 4.84 1.91 4.4 1.95 4.05 1.97 3.88 2 3.98 2.09 4.46 2.25 5.39 2.45 6.16 2.53 5.08 2.34.63 2.4" filter="url(#a)"/><path d="m8.82-89.39 1.46.21 2.11.41 2.2.53 2.17.64 2.18.71 2.29.79 2.43.84 2.6.9 2.72.98 2.78 1.03 2.82 1.1 2.9 1.14 3.05 1.2 3.21 1.28 3.27 1.36 3.1 1.45 2.75 1.54 2.43 1.63 2.38 1.71 2.66 1.73 3 1.56 3.15.83" filter="url(#a)"/><path d="m4.58-90.04 1.97.22 1.96.31 2.13.36 2.38.45 2.57.54 2.66.64 2.75.71 2.85.8 2.97.86 3.04.92 3.03 1 3.02 1.06 3.1 1.12 3.37 1.19 3.85 1.25 4.43 1.34 4.96 1.41 5.27 1.49 5.31 1.56 5.13 1.64 4.87 1.7 4.69 1.77 4.64 1.85 4.71 1.95 4.81 2.05 4.83 2.14 4.76 2.16 4.67 2.13 4.68 2.08 5.01 2.09 5.59 2.18 5.72 2.25 4.71 2.39" filter="url(#a)"/></g><path fill="none" stroke="#000" stroke-linejoin="round" stroke-width="3" d="M-8.83 22.26q20.2 1.17 10.1-27.35" filter="url(#a)"/><path fill="#D77F8C" stroke="#000" stroke-linejoin="round" stroke-width="3" d="m41.57 60.85.06.5.1-.41-.84 1.32.14-.09-.25.25-.4.52-.82 1.14.54-.42-.91.81.18-.23-1.2 1-.69.26.4-.15-.39.05-.17.26-1.97.85.51-.24-.42.3-.38.05-1.83.68-1.68.41.67-.04-.56-.01-.02.13-1.96.28-1.32.19-1.62.19 1.31-.14-2.36.26-1.47.06.18-.03.22-.01-.48.06-3.44-.06h-.04l-1.28-.07.84.04-3.52-.22h.39l-1.62-.17.88.09-1.52-.16-3.54-.56-.84-.15 2.2.4-4.06-.81-1.29-.3-.58-.14.53.13-1.85-.48-1.08-.31-.41-.12-1.19-.37-.21-.05-2.05-.7-1.04-.37-1.8-.7-.98-.4.95.42-3.07-1.35 1.62.73-1.15-.51-2.52-1.22-.21-.07.9.43-2.19-1.14.41.25-2.91-1.74.26.23-2.01-1.36.66.45-2.21-1.49.85.52.26.15-1.85-1.33-1.13-.98-.11-.05-.27-.32-.43-.24-.43-.62-1.21-1.21-.58-.69-.19-.33-.79-1.04-.3-.52.46.93-.22-.35-.94-1.67.45.53-.44-.43-.26-.8-.36-1.15-.3-.7.19-.27-.04-.03-.14-.81.03-.01.06-1.68.03.75.29-1.32.24-.72.16-.13-.14.09.46-.96.61-.61-.26.36.64-.9-.09.11-.17-.07 1.7-1.17.33-.22-.28.05.83-.5.37-.34 1.5-.57-.15.08.86-.32h-.42l.46-.02.9-.42 1.2-.31 1.89-.45.8-.14-.58.17.03-.01 3.14-.45-1.92.2 2.07-.28.38-.01.3-.03.74-.1h3.48l-2.14-.02 2.47.01 2.09.05-.42-.05.27.06 1.99.15.41-.01 1.21.16 1.74.18-.47-.05 2.53.37-.52-.08 3.06.56.5.09 1.29.29 2.27.56.33.09 1.01.27-.25-.07.85.24 2.17.66.1.05 1.47.48.41.14 1.69.65-.33-.16 1.55.65 2.71 1.17-1.36-.62 1.53.68.04.02 1.13.54.1.04 1.54.75 2.42 1.42.06.02 1.52.94-1.69-1.04 1.77 1.09 1.87 1.28.19.06-.58-.34 1.27.87.52.47.82.78 1.58 1.38-.63-.63 1.2 1.31.55.55.45.39-.12-.01 1.17 1.53-.35-.48.77 1.46.33.67.38.56.07.47-.27-.63.7 1.38-.04-.14.12.94.01.63.08.19-.05.92-.19.58.07.5-.16-.33" filter="url(#a)"/></svg>