<svg viewBox="-100 -100 200 200" xmlns="http://www.w3.org/2000/svg" width="500" height="500" id="face-svg">
    <defs>
      <clipPath id="leftEyeClipPath">
        <polyline points="26.33,0.1 26.47,-0.14 26.57,-0.37 26.62,-0.61 26.63,-0.86 26.6,-1.11 26.53,-1.35 26.41,-1.6 26.26,-1.84 26.07,-2.09 25.84,-2.32 25.58,-2.55 25.27,-2.77 24.93,-2.99 24.56,-3.2 24.15,-3.39 23.8,-3.74 23.39,-4.07 22.93,-4.38 22.42,-4.66 21.87,-4.92 21.26,-5.15 20.61,-5.36 19.92,-5.54 19.19,-5.7 18.41,-5.83 17.6,-5.94 16.75,-6.02 15.87,-6.07 14.96,-6.1 14.02,-6.11 13.06,-6.1 12.07,-6.06 11.06,-6 10.03,-5.93 8.99,-5.83 7.94,-5.72 6.87,-5.58 5.8,-5.44 4.72,-5.27 3.64,-5.1 2.56,-4.91 1.48,-4.71 0.4,-4.5 -0.67,-4.28 -1.73,-4.05 -2.78,-3.82 -3.82,-3.58 -4.85,-3.34 -5.87,-3.09 -6.87,-2.84 -7.85,-2.58 -8.81,-2.33 -9.76,-2.07 -10.68,-1.82 -11.59,-1.56 -12.47,-1.31 -13.33,-1.06 -14.16,-0.82 -14.98,-0.58 -15.77,-0.34 -16.54,-0.1 -17.28,0.13 -18.01,0.35 -18.71,0.57 -19.39,0.79 -20.05,1 -20.69,1.21 -21.32,1.41 -21.92,1.61 -22.5,1.8 -23.07,1.99 -23.61,2.18 -24.14,2.35 -24.65,2.53 -25.14,2.7 -25.61,2.86 -26.06,3.02 -26.5,3.18 -26.92,3.33 -24.94,5.41 -24.62,5.46 -24.28,5.5 -23.94,5.54 -23.58,5.58 -23.21,5.61 -22.83,5.64 -22.43,5.67 -22.03,5.7 -21.61,5.73 -21.17,5.75 -20.73,5.77 -20.28,5.78 -19.81,5.8 -19.33,5.81 -18.84,5.82 -18.34,5.82 -17.82,5.83 -17.29,5.83 -16.75,5.82 -16.19,5.82 -15.62,5.81 -15.04,5.79 -14.45,5.78 -13.84,5.76 -13.23,5.73 -12.6,5.71 -11.97,5.68 -11.32,5.64 -10.66,5.61 -10,5.57 -9.32,5.53 -8.64,5.48 -7.95,5.43 -7.25,5.38 -6.54,5.33 -5.83,5.27 -5.11,5.22 -4.38,5.16 -3.64,5.1 -2.9,5.04 -2.15,4.98 -1.4,4.91 -0.63,4.85 0.13,4.79 0.9,4.72 1.68,4.66 2.46,4.6 3.25,4.53 4.04,4.47 4.84,4.41 5.64,4.36 6.44,4.3 7.25,4.24 8.06,4.19 8.87,4.14 9.68,4.08 10.5,4.03 11.31,3.99 12.13,3.94 12.95,3.89 13.76,3.85 14.58,3.8 15.39,3.75 16.19,3.71 16.86,3.62 17.52,3.52 18.17,3.42 18.81,3.32 19.45,3.2 20.08,3.08 20.69,2.94 21.29,2.8 21.88,2.65 22.46,2.48 23.02,2.31 23.56,2.12 24.08,1.91 24.59,1.69 25.07,1.46" />
      </clipPath>
      <clipPath id="rightEyeClipPath">
        <polyline points="-27.07,0.15 -27.3,0.01 -27.49,-0.14 -27.62,-0.29 -27.7,-0.45 -27.74,-0.61 -27.73,-0.77 -27.67,-0.93 -27.57,-1.09 -27.42,-1.25 -27.24,-1.41 -27,-1.57 -26.73,-1.72 -26.42,-1.87 -26.07,-2.02 -25.68,-2.16 -25.34,-2.39 -24.94,-2.61 -24.49,-2.83 -23.98,-3.02 -23.42,-3.21 -22.82,-3.38 -22.17,-3.53 -21.47,-3.67 -20.73,-3.8 -19.94,-3.91 -19.12,-4 -18.27,-4.08 -17.38,-4.15 -16.46,-4.2 -15.51,-4.23 -14.53,-4.25 -13.53,-4.26 -12.51,-4.25 -11.48,-4.22 -10.43,-4.19 -9.37,-4.14 -8.29,-4.08 -7.22,-4.01 -6.13,-3.93 -5.05,-3.84 -3.96,-3.74 -2.88,-3.63 -1.8,-3.51 -0.73,-3.39 0.34,-3.25 1.39,-3.12 2.43,-2.97 3.46,-2.82 4.47,-2.67 5.46,-2.51 6.44,-2.35 7.4,-2.19 8.33,-2.03 9.25,-1.86 10.15,-1.7 11.02,-1.53 11.87,-1.36 12.7,-1.19 13.5,-1.03 14.28,-0.86 15.04,-0.7 15.78,-0.54 16.49,-0.38 17.19,-0.23 17.86,-0.07 18.51,0.08 19.14,0.23 19.76,0.38 20.35,0.52 20.93,0.67 21.49,0.81 22.02,0.95 22.55,1.08 23.05,1.22 23.53,1.35 24,1.48 24.45,1.6 24.89,1.72 25.3,1.84 24.59,3.27 24.42,3.34 24.24,3.41 24.04,3.47 23.83,3.53 23.6,3.59 23.36,3.64 23.1,3.7 22.82,3.75 22.53,3.79 22.22,3.84 21.89,3.88 21.55,3.92 21.19,3.96 20.81,3.99 20.42,4.02 20,4.05 19.57,4.07 19.12,4.1 18.65,4.12 18.16,4.13 17.65,4.15 17.12,4.16 16.57,4.16 16,4.17 15.4,4.17 14.79,4.16 14.16,4.16 13.5,4.15 12.83,4.13 12.13,4.12 11.42,4.1 10.68,4.07 9.93,4.05 9.16,4.02 8.37,3.99 7.56,3.96 6.74,3.92 5.9,3.88 5.05,3.84 4.18,3.8 3.3,3.75 2.4,3.71 1.5,3.66 0.59,3.61 -0.34,3.56 -1.27,3.51 -2.21,3.46 -3.15,3.41 -4.1,3.36 -5.05,3.31 -6.01,3.26 -6.96,3.2 -7.91,3.15 -8.87,3.1 -9.81,3.05 -10.75,3 -11.69,2.94 -12.62,2.89 -13.53,2.84 -14.44,2.78 -15.33,2.73 -16.21,2.67 -17.08,2.61 -17.92,2.55 -18.66,2.46 -19.39,2.37 -20.1,2.27 -20.8,2.16 -21.49,2.04 -22.16,1.92 -22.81,1.78 -23.44,1.64 -24.05,1.49 -24.64,1.33 -25.21,1.16 -25.75,0.97 -26.27,0.77 -26.77,0.56 -27.23,0.33" />
      </clipPath>
      <filter id="fuzzy">
        <feTurbulence id="turbulence" baseFrequency="0.05" numOctaves="3" type="noise" result="noise" />
        <feDisplacementMap in="SourceGraphic" in2="noise" scale="2" />
      </filter>
      <linearGradient id="rainbowGradient" x1="0%" y1="0%" x2="100%" y2="0%">
        <stop offset="0%" style="stop-color: rgb(10, 11, 241); stop-opacity: 1" />
        <stop offset="50%" style="stop-color: rgb(194, 81, 202); stop-opacity: 1" />
        <stop offset="100%" style="stop-color: rgb(31, 42, 178); stop-opacity: 1" />
      </linearGradient>
    </defs>
    <rect x="-100" y="-100" width="100%" height="100%" fill="rgb(166, 171, 242)" />
    <polyline id="faceContour" points="70.7,0.14 71.01,0.99 70.96,2.61 70.63,4.66 70.58,5.14 70.72,5.26 70.45,7.31 70.17,10.91 70.35,10.17 70.3,10.94 70.08,13.36 69.72,14.48 69.95,14.3 69.65,15.94 69.24,17.59 68.91,19.83 68.38,21.94 68.13,23.2 67.43,25.76 67.06,26.68 67.26,26.32 66.45,29.43 66.92,28.2 66.61,28.61 65.67,31.72 65.25,32.79 64.89,34.11 64.83,34.4 64.29,35.96 63.56,37.41 62.84,39.27 62.69,39.26 62.22,40.86 61.45,41.67 61.06,42.96 60.69,43.91 59.82,45.06 58.66,47.32 58.25,48.14 57.67,49.25 57.95,48.58 57.22,49.77 55.75,51.93 56.06,51.93 55.28,52.87 53.44,55.37 52.85,56.28 51.8,57.64 50.41,59.39 50.5,59.17 50.45,59.33 49.45,60.46 48.25,61.95 47.12,63.12 46.77,63.64 46.27,63.97 45.06,64.92 45.72,64.65 44.56,65.49 42.11,68.04 41.93,68.19 40.85,69.21 39.97,69.91 37.7,71.72 38.5,70.68 35.95,72.73 36.48,72.57 34.42,73.74 33.09,74.9 33.5,74.57 31.92,75.4 31.41,75.7 31.11,75.7 30.77,76.04 26.7,78.07 27.16,78.16 26.88,78.44 23.58,79.54 24.51,79.4 23.68,79.73 22.48,80.06 21.26,80.72 20.34,80.7 18.49,81.44 16.29,82.34 17.15,81.98 15.82,82.43 15.56,82.45 13.08,83.2 12.36,83.1 10.59,83.77 10,83.69 9.49,83.79 8.23,83.86 6.76,84.17 5.42,84.12 4.12,84.29 3.91,84.36 1.59,84.45 1.84,84.64 0.14,84.35 -0.07,84.35 -2.92,84.58 -3,84.37 -3.43,84.26 -6.2,84.23 -6.69,83.92 -7.82,83.94 -9.64,83.85 -8.93,83.99 -9.44,83.61 -12.47,83.12 -11.33,83.29 -13.38,83.08 -14.55,82.62 -15.15,82.48 -16.3,82.03 -19.29,81.09 -18.92,81.53 -20.19,81.02 -22.46,79.99 -22.89,79.86 -23.05,79.86 -24.58,79.21 -26.44,78.55 -25.73,78.66 -26.68,78.22 -29.44,76.96 -30.13,76.28 -31.43,75.57 -31.79,75.44 -33.7,74.44 -34.42,73.71 -34.57,73.9 -36.87,72.14 -36.92,71.82 -37.44,71.92 -38.01,71.45 -40.05,69.63 -39.62,70.26 -40.28,69.7 -41.57,68.45 -42.99,66.8 -45.23,65.22 -45.09,65.04 -45.82,64.13 -46.76,63.17 -46.46,63.7 -48.73,61.31 -49.23,61.1 -49.74,59.87 -50.57,59.04 -51.22,58.52 -52.63,56.6 -51.55,57.79 -53.25,55.55 -53.72,54.68 -54.42,54.32 -55.93,51.81 -56.99,50.25 -57.58,49.11 -58.38,47.88 -58.13,47.98 -60.1,44.97 -59.66,45.21 -59.97,44.95 -61.43,41.84 -61.42,41.96 -61.71,41.23 -63.07,38.36 -63.64,37.13 -63.3,37.68 -64.53,35.22 -64.27,35.69 -64.78,33.72 -65.84,31.37 -65.46,32.03 -66.47,28.54 -66.87,28.14 -67.13,26.38 -67.77,24.5 -67.91,24.61 -68.64,21.54 -68.41,21.59 -68.39,21.44 -68.62,20.88 -68.81,19.96 -69.4,17.59 -69.79,15.02 -69.62,14.68 -70.23,11.58 -70.07,11.04 -70.26,11.17 -70.2,9.85 -70.61,6.86 -70.63,6.68 -70.57,4.94 -70.68,4.35 -70.77,2.1 -70.91,0.7 -70.94,0.98 -70.69,-2.38 -70.73,-2.39 -70.63,-3.76 -70.62,-4.7 -70.66,-5.79 -70.58,-9.08 -70.36,-11.16 -70.22,-9.94 -70.23,-11.69 -69.92,-12.62 -69.91,-12.86 -69.21,-17.25 -69.31,-18.55 -68.83,-19.17 -69.03,-17.95 -68.84,-20.64 -68.61,-21.28 -68.33,-22.08 -67.87,-24.61 -67.16,-27.35 -67.1,-27.09 -66.93,-28.03 -66.08,-30.02 -66.24,-30.48 -65.48,-31.95 -64.9,-33.65 -64.71,-34.43 -64.51,-35.35 -63.34,-37.53 -63.37,-37.89 -62.54,-40.1 -61.95,-41 -61.14,-42.47 -61.62,-41.38 -60.83,-43.62 -59.81,-45.28 -59.47,-45.54 -59.75,-45.6 -57.6,-49.19 -56.15,-51.31 -56.88,-50.39 -55.95,-51.75 -55.59,-52.44 -54.42,-53.73 -53.5,-55.44 -53.91,-55.1 -52.99,-56.12 -51.59,-57.66 -49.96,-60.08 -49.95,-59.93 -50.06,-59.81 -47.55,-62.47 -48.48,-61.75 -45.95,-64.51 -46.8,-63.62 -44.03,-66.36 -43.22,-67.15 -43.15,-66.87 -42.52,-67.42 -42.72,-67.58 -40.31,-69.5 -40.84,-68.77 -39.67,-69.98 -39.55,-70.02 -36.4,-72.67 -36.12,-72.88 -35.59,-72.86 -34.72,-73.73 -32.79,-74.82 -33.25,-74.6 -30.82,-76 -30.11,-76.35 -29.63,-76.83 -28.69,-77.09 -28.25,-77.6 -25.63,-78.81 -23.85,-79.39 -24.84,-79.01 -22.53,-80.15 -21.18,-80.77 -22.23,-80.29 -19.78,-81.22 -17.44,-81.74 -17.68,-81.73 -16.92,-81.92 -15.15,-82.64 -15.55,-82.67 -13.79,-83.02 -12.33,-83.1 -10.23,-83.64 -10,-83.72 -8.46,-84.06 -9.91,-83.85 -7.64,-84.09 -5.09,-84.26 -3.34,-84.56 -3.05,-84.38 -2.87,-84.52 -1.09,-84.34 0.34,-84.56 1.49,-84.47 0.4,-84.72 3.45,-84.49 4.05,-84.38 5.8,-84.06 5.16,-84.45 6.68,-84.03 10.27,-83.62 8.79,-83.85 10.65,-83.43 11.83,-83.22 12.86,-83.24 14.9,-82.45 14.85,-82.85 16.93,-82.13 17.59,-81.88 18.36,-81.53 20.56,-80.8 20.8,-80.77 20.74,-80.63 22.11,-80.4 24.91,-79.03 24.14,-79.67 26.91,-78.44 26.38,-78.34 28,-77.52 29.19,-77.04 28.82,-77.21 31.3,-75.82 30.99,-75.95 32.14,-75.4 33.66,-74.15 35.03,-73.25 35.65,-73.2 36.59,-72.14 37.22,-71.94 38.95,-70.44 38.88,-70.66 40.37,-69.56 42.51,-67.57 43.84,-66.64 43.37,-66.99 44.83,-65.23 43.69,-66.43 46.82,-63.62 47.03,-63.33 46.37,-63.99 48.11,-61.94 49.37,-60.71 49.06,-60.75 51.26,-58.33 51.06,-58.9 52.84,-56.42 52.55,-56.92 54.86,-53.12 54.29,-54.64 55.28,-53.06 55.21,-52.86 57.07,-50.17 57.43,-49.41 57.31,-49.58 57.85,-48.8 59.84,-45.22 59.81,-45.4 60.03,-44.74 60.83,-43.53 61.08,-42.78 61.78,-41.38 63.06,-38.64 62.63,-39.43 63.76,-36.8 64,-36.01 64.27,-35.42 65.01,-33.02 65.32,-32.94 65.65,-31.4 66.35,-29.96 66.43,-29.58 67.36,-25.98 67.29,-26.1 67.5,-25.5 67.93,-24.22 68.25,-23.04 68.22,-23.68 69.34,-18.02 69.28,-18.5 69.32,-16.62 69.73,-15.24 70.05,-13.78 70.04,-12.56 69.99,-12.69 70.32,-10.53 70.41,-8.61 70.53,-8.77 70.69,-7.61 70.86,-5.26 70.81,-1.98 70.86,-1.92 70.94,-1.55 70.7,0.14 71.01,0.99" fill="rgb(223, 209, 32)" stroke="black" stroke-width="1.6666666666666665" stroke-linejoin="round" filter="url(#fuzzy)" />
    <g transform="translate(33.9 -26.4)">
      <polyline id="rightCountour" points="-27.07,0.15 -27.3,0.01 -27.49,-0.14 -27.62,-0.29 -27.7,-0.45 -27.74,-0.61 -27.73,-0.77 -27.67,-0.93 -27.57,-1.09 -27.42,-1.25 -27.24,-1.41 -27,-1.57 -26.73,-1.72 -26.42,-1.87 -26.07,-2.02 -25.68,-2.16 -25.34,-2.39 -24.94,-2.61 -24.49,-2.83 -23.98,-3.02 -23.42,-3.21 -22.82,-3.38 -22.17,-3.53 -21.47,-3.67 -20.73,-3.8 -19.94,-3.91 -19.12,-4 -18.27,-4.08 -17.38,-4.15 -16.46,-4.2 -15.51,-4.23 -14.53,-4.25 -13.53,-4.26 -12.51,-4.25 -11.48,-4.22 -10.43,-4.19 -9.37,-4.14 -8.29,-4.08 -7.22,-4.01 -6.13,-3.93 -5.05,-3.84 -3.96,-3.74 -2.88,-3.63 -1.8,-3.51 -0.73,-3.39 0.34,-3.25 1.39,-3.12 2.43,-2.97 3.46,-2.82 4.47,-2.67 5.46,-2.51 6.44,-2.35 7.4,-2.19 8.33,-2.03 9.25,-1.86 10.15,-1.7 11.02,-1.53 11.87,-1.36 12.7,-1.19 13.5,-1.03 14.28,-0.86 15.04,-0.7 15.78,-0.54 16.49,-0.38 17.19,-0.23 17.86,-0.07 18.51,0.08 19.14,0.23 19.76,0.38 20.35,0.52 20.93,0.67 21.49,0.81 22.02,0.95 22.55,1.08 23.05,1.22 23.53,1.35 24,1.48 24.45,1.6 24.89,1.72 25.3,1.84 24.59,3.27 24.42,3.34 24.24,3.41 24.04,3.47 23.83,3.53 23.6,3.59 23.36,3.64 23.1,3.7 22.82,3.75 22.53,3.79 22.22,3.84 21.89,3.88 21.55,3.92 21.19,3.96 20.81,3.99 20.42,4.02 20,4.05 19.57,4.07 19.12,4.1 18.65,4.12 18.16,4.13 17.65,4.15 17.12,4.16 16.57,4.16 16,4.17 15.4,4.17 14.79,4.16 14.16,4.16 13.5,4.15 12.83,4.13 12.13,4.12 11.42,4.1 10.68,4.07 9.93,4.05 9.16,4.02 8.37,3.99 7.56,3.96 6.74,3.92 5.9,3.88 5.05,3.84 4.18,3.8 3.3,3.75 2.4,3.71 1.5,3.66 0.59,3.61 -0.34,3.56 -1.27,3.51 -2.21,3.46 -3.15,3.41 -4.1,3.36 -5.05,3.31 -6.01,3.26 -6.96,3.2 -7.91,3.15 -8.87,3.1 -9.81,3.05 -10.75,3 -11.69,2.94 -12.62,2.89 -13.53,2.84 -14.44,2.78 -15.33,2.73 -16.21,2.67 -17.08,2.61 -17.92,2.55 -18.66,2.46 -19.39,2.37 -20.1,2.27 -20.8,2.16 -21.49,2.04 -22.16,1.92 -22.81,1.78 -23.44,1.64 -24.05,1.49 -24.64,1.33 -25.21,1.16 -25.75,0.97 -26.27,0.77 -26.77,0.56 -27.23,0.33" fill="white" stroke="white" stroke-width="0" stroke-linejoin="round" filter="url(#fuzzy)" />
    </g>
    <g transform="translate(-39.23 -20.95)">
      <polyline id="leftCountour" points="26.33,0.1 26.47,-0.14 26.57,-0.37 26.62,-0.61 26.63,-0.86 26.6,-1.11 26.53,-1.35 26.41,-1.6 26.26,-1.84 26.07,-2.09 25.84,-2.32 25.58,-2.55 25.27,-2.77 24.93,-2.99 24.56,-3.2 24.15,-3.39 23.8,-3.74 23.39,-4.07 22.93,-4.38 22.42,-4.66 21.87,-4.92 21.26,-5.15 20.61,-5.36 19.92,-5.54 19.19,-5.7 18.41,-5.83 17.6,-5.94 16.75,-6.02 15.87,-6.07 14.96,-6.1 14.02,-6.11 13.06,-6.1 12.07,-6.06 11.06,-6 10.03,-5.93 8.99,-5.83 7.94,-5.72 6.87,-5.58 5.8,-5.44 4.72,-5.27 3.64,-5.1 2.56,-4.91 1.48,-4.71 0.4,-4.5 -0.67,-4.28 -1.73,-4.05 -2.78,-3.82 -3.82,-3.58 -4.85,-3.34 -5.87,-3.09 -6.87,-2.84 -7.85,-2.58 -8.81,-2.33 -9.76,-2.07 -10.68,-1.82 -11.59,-1.56 -12.47,-1.31 -13.33,-1.06 -14.16,-0.82 -14.98,-0.58 -15.77,-0.34 -16.54,-0.1 -17.28,0.13 -18.01,0.35 -18.71,0.57 -19.39,0.79 -20.05,1 -20.69,1.21 -21.32,1.41 -21.92,1.61 -22.5,1.8 -23.07,1.99 -23.61,2.18 -24.14,2.35 -24.65,2.53 -25.14,2.7 -25.61,2.86 -26.06,3.02 -26.5,3.18 -26.92,3.33 -24.94,5.41 -24.62,5.46 -24.28,5.5 -23.94,5.54 -23.58,5.58 -23.21,5.61 -22.83,5.64 -22.43,5.67 -22.03,5.7 -21.61,5.73 -21.17,5.75 -20.73,5.77 -20.28,5.78 -19.81,5.8 -19.33,5.81 -18.84,5.82 -18.34,5.82 -17.82,5.83 -17.29,5.83 -16.75,5.82 -16.19,5.82 -15.62,5.81 -15.04,5.79 -14.45,5.78 -13.84,5.76 -13.23,5.73 -12.6,5.71 -11.97,5.68 -11.32,5.64 -10.66,5.61 -10,5.57 -9.32,5.53 -8.64,5.48 -7.95,5.43 -7.25,5.38 -6.54,5.33 -5.83,5.27 -5.11,5.22 -4.38,5.16 -3.64,5.1 -2.9,5.04 -2.15,4.98 -1.4,4.91 -0.63,4.85 0.13,4.79 0.9,4.72 1.68,4.66 2.46,4.6 3.25,4.53 4.04,4.47 4.84,4.41 5.64,4.36 6.44,4.3 7.25,4.24 8.06,4.19 8.87,4.14 9.68,4.08 10.5,4.03 11.31,3.99 12.13,3.94 12.95,3.89 13.76,3.85 14.58,3.8 15.39,3.75 16.19,3.71 16.86,3.62 17.52,3.52 18.17,3.42 18.81,3.32 19.45,3.2 20.08,3.08 20.69,2.94 21.29,2.8 21.88,2.65 22.46,2.48 23.02,2.31 23.56,2.12 24.08,1.91 24.59,1.69 25.07,1.46" fill="white" stroke="white" stroke-width="0" stroke-linejoin="round" filter="url(#fuzzy)" />
    </g>
    <g transform="translate(33.9 -26.4)">
      <polyline id="rightUpper" points="-21.8,0.93 -22.58,0.93 -23.3,0.9 -23.96,0.86 -24.57,0.8 -25.12,0.72 -25.62,0.63 -26.06,0.52 -26.45,0.41 -26.79,0.28 -27.07,0.15 -27.3,0.01 -27.49,-0.14 -27.62,-0.29 -27.7,-0.45 -27.74,-0.61 -27.73,-0.77 -27.67,-0.93 -27.57,-1.09 -27.42,-1.25 -27.24,-1.41 -27,-1.57 -26.73,-1.72 -26.42,-1.87 -26.07,-2.02 -25.68,-2.16 -25.34,-2.39 -24.94,-2.61 -24.49,-2.83 -23.98,-3.02 -23.42,-3.21 -22.82,-3.38 -22.17,-3.53 -21.47,-3.67 -20.73,-3.8 -19.94,-3.91 -19.12,-4 -18.27,-4.08 -17.38,-4.15 -16.46,-4.2 -15.51,-4.23 -14.53,-4.25 -13.53,-4.26 -12.51,-4.25 -11.48,-4.22 -10.43,-4.19 -9.37,-4.14 -8.29,-4.08 -7.22,-4.01 -6.13,-3.93 -5.05,-3.84 -3.96,-3.74 -2.88,-3.63 -1.8,-3.51 -0.73,-3.39 0.34,-3.25 1.39,-3.12 2.43,-2.97 3.46,-2.82 4.47,-2.67 5.46,-2.51 6.44,-2.35 7.4,-2.19 8.33,-2.03 9.25,-1.86 10.15,-1.7 11.02,-1.53 11.87,-1.36 12.7,-1.19 13.5,-1.03 14.28,-0.86 15.04,-0.7 15.78,-0.54 16.49,-0.38 17.19,-0.23 17.86,-0.07 18.51,0.08 19.14,0.23 19.76,0.38 20.35,0.52 20.93,0.67 21.49,0.81 22.02,0.95 22.55,1.08 23.05,1.22 23.53,1.35 24,1.48 24.45,1.6 24.89,1.72 25.3,1.84 25.7,1.96 26.09,2.07 26.46,2.18 26.82,2.29 27.16,2.4 27.49,2.5 27.8,2.6 28.1,2.7 28.39,2.79 28.66,2.88" fill="none" stroke="black" stroke-width="1.6666666666666665" stroke-linejoin="round" filter="url(#fuzzy)" />
      <polyline id="rightLower" points="-30.04,-3 -29.93,-2.56 -29.78,-2.15 -29.59,-1.76 -29.36,-1.4 -29.09,-1.06 -28.79,-0.75 -28.45,-0.45 -28.07,-0.17 -27.67,0.09 -27.23,0.33 -26.77,0.56 -26.27,0.77 -25.75,0.97 -25.21,1.16 -24.64,1.33 -24.05,1.49 -23.44,1.64 -22.81,1.78 -22.16,1.92 -21.49,2.04 -20.8,2.16 -20.1,2.27 -19.39,2.37 -18.66,2.46 -17.92,2.55 -17.08,2.61 -16.21,2.67 -15.33,2.73 -14.44,2.78 -13.53,2.84 -12.62,2.89 -11.69,2.94 -10.75,3 -9.81,3.05 -8.87,3.1 -7.91,3.15 -6.96,3.2 -6.01,3.26 -5.05,3.31 -4.1,3.36 -3.15,3.41 -2.21,3.46 -1.27,3.51 -0.34,3.56 0.59,3.61 1.5,3.66 2.4,3.71 3.3,3.75 4.18,3.8 5.05,3.84 5.9,3.88 6.74,3.92 7.56,3.96 8.37,3.99 9.16,4.02 9.93,4.05 10.68,4.07 11.42,4.1 12.13,4.12 12.83,4.13 13.5,4.15 14.16,4.16 14.79,4.16 15.4,4.17 16,4.17 16.57,4.16 17.12,4.16 17.65,4.15 18.16,4.13 18.65,4.12 19.12,4.1 19.57,4.07 20,4.05 20.42,4.02 20.81,3.99 21.19,3.96 21.55,3.92 21.89,3.88 22.22,3.84 22.53,3.79 22.82,3.75 23.1,3.7 23.36,3.64 23.6,3.59 23.83,3.53 24.04,3.47 24.24,3.41 24.42,3.34 24.59,3.27 24.74,3.21 24.88,3.13 25,3.06 25.11,2.99 25.21,2.91 25.29,2.83 25.36,2.75 25.41,2.67 25.46,2.58 25.49,2.5" fill="none" stroke="black" stroke-width="2.2222222222222223" stroke-linejoin="round" filter="url(#fuzzy)" />
      <circle r="4.606" cx="-11.577281498900156" cy="-0.04315064120053336" stroke="black" fill="none" stroke-width="1.0" filter="url(#fuzzy)" clip-path="url(#rightEyeClipPath)" /><circle r="3.734" cx="-12.037281498900157" cy="-1.108150641200533" stroke="black" fill="none" stroke-width="1.0" filter="url(#fuzzy)" clip-path="url(#rightEyeClipPath)" /><circle r="4.82" cx="-8.687281498900157" cy="-3.1631506412005335" stroke="black" fill="none" stroke-width="1.0" filter="url(#fuzzy)" clip-path="url(#rightEyeClipPath)" /><circle r="3.82" cx="-12.042281498900158" cy="-1.0781506412005333" stroke="black" fill="none" stroke-width="1.0" filter="url(#fuzzy)" clip-path="url(#rightEyeClipPath)" /><circle r="4.276" cx="-8.972281498900157" cy="1.5418493587994666" stroke="black" fill="none" stroke-width="1.0" filter="url(#fuzzy)" clip-path="url(#rightEyeClipPath)" /><circle r="3.734" cx="-9.417281498900156" cy="-1.1931506412005335" stroke="black" fill="none" stroke-width="1.0" filter="url(#fuzzy)" clip-path="url(#rightEyeClipPath)" /><circle r="3.278" cx="-8.617281498900157" cy="-1.6831506412005335" stroke="black" fill="none" stroke-width="1.0" filter="url(#fuzzy)" clip-path="url(#rightEyeClipPath)" /><circle r="3.9619999999999997" cx="-7.892281498900157" cy="1.3518493587994662" stroke="black" fill="none" stroke-width="1.0" filter="url(#fuzzy)" clip-path="url(#rightEyeClipPath)" /><circle r="3.568" cx="-9.197281498900157" cy="-0.8031506412005334" stroke="black" fill="none" stroke-width="1.0" filter="url(#fuzzy)" clip-path="url(#rightEyeClipPath)" /><circle r="3.466" cx="-9.317281498900156" cy="-0.8981506412005336" stroke="black" fill="none" stroke-width="1.0" filter="url(#fuzzy)" clip-path="url(#rightEyeClipPath)" />
      </g>
    <g transform="translate(-39.23 -20.95)">
      <polyline id="leftUpper" points="22.54,1.57 23.12,1.53 23.65,1.45 24.14,1.35 24.59,1.23 24.99,1.08 25.35,0.91 25.66,0.73 25.93,0.53 26.15,0.32 26.33,0.1 26.47,-0.14 26.57,-0.37 26.62,-0.61 26.63,-0.86 26.6,-1.11 26.53,-1.35 26.41,-1.6 26.26,-1.84 26.07,-2.09 25.84,-2.32 25.58,-2.55 25.27,-2.77 24.93,-2.99 24.56,-3.2 24.15,-3.39 23.8,-3.74 23.39,-4.07 22.93,-4.38 22.42,-4.66 21.87,-4.92 21.26,-5.15 20.61,-5.36 19.92,-5.54 19.19,-5.7 18.41,-5.83 17.6,-5.94 16.75,-6.02 15.87,-6.07 14.96,-6.1 14.02,-6.11 13.06,-6.1 12.07,-6.06 11.06,-6 10.03,-5.93 8.99,-5.83 7.94,-5.72 6.87,-5.58 5.8,-5.44 4.72,-5.27 3.64,-5.1 2.56,-4.91 1.48,-4.71 0.4,-4.5 -0.67,-4.28 -1.73,-4.05 -2.78,-3.82 -3.82,-3.58 -4.85,-3.34 -5.87,-3.09 -6.87,-2.84 -7.85,-2.58 -8.81,-2.33 -9.76,-2.07 -10.68,-1.82 -11.59,-1.56 -12.47,-1.31 -13.33,-1.06 -14.16,-0.82 -14.98,-0.58 -15.77,-0.34 -16.54,-0.1 -17.28,0.13 -18.01,0.35 -18.71,0.57 -19.39,0.79 -20.05,1 -20.69,1.21 -21.32,1.41 -21.92,1.61 -22.5,1.8 -23.07,1.99 -23.61,2.18 -24.14,2.35 -24.65,2.53 -25.14,2.7 -25.61,2.86 -26.06,3.02 -26.5,3.18 -26.92,3.33 -27.33,3.48 -27.71,3.62 -28.09,3.75 -28.44,3.89 -28.78,4.02 -29.11,4.14 -29.42,4.26 -29.72,4.38 -30,4.49 -30.27,4.6" fill="none" stroke="black" stroke-width="2.2222222222222223" stroke-linejoin="round" filter="url(#fuzzy)" />
      <polyline id="leftLower" points="28.32,-2.11 28.16,-1.63 27.95,-1.19 27.7,-0.77 27.42,-0.38 27.1,-0.02 26.75,0.32 26.37,0.63 25.96,0.93 25.53,1.2 25.07,1.46 24.59,1.69 24.08,1.91 23.56,2.12 23.02,2.31 22.46,2.48 21.88,2.65 21.29,2.8 20.69,2.94 20.08,3.08 19.45,3.2 18.81,3.32 18.17,3.42 17.52,3.52 16.86,3.62 16.19,3.71 15.39,3.75 14.58,3.8 13.76,3.85 12.95,3.89 12.13,3.94 11.31,3.99 10.5,4.03 9.68,4.08 8.87,4.14 8.06,4.19 7.25,4.24 6.44,4.3 5.64,4.36 4.84,4.41 4.04,4.47 3.25,4.53 2.46,4.6 1.68,4.66 0.9,4.72 0.13,4.79 -0.63,4.85 -1.4,4.91 -2.15,4.98 -2.9,5.04 -3.64,5.1 -4.38,5.16 -5.11,5.22 -5.83,5.27 -6.54,5.33 -7.25,5.38 -7.95,5.43 -8.64,5.48 -9.32,5.53 -10,5.57 -10.66,5.61 -11.32,5.64 -11.97,5.68 -12.6,5.71 -13.23,5.73 -13.84,5.76 -14.45,5.78 -15.04,5.79 -15.62,5.81 -16.19,5.82 -16.75,5.82 -17.29,5.83 -17.82,5.83 -18.34,5.82 -18.84,5.82 -19.33,5.81 -19.81,5.8 -20.28,5.78 -20.73,5.77 -21.17,5.75 -21.61,5.73 -22.03,5.7 -22.43,5.67 -22.83,5.64 -23.21,5.61 -23.58,5.58 -23.94,5.54 -24.28,5.5 -24.62,5.46 -24.94,5.41 -25.24,5.37 -25.53,5.32 -25.81,5.27 -26.08,5.22 -26.33,5.17 -26.57,5.11 -26.8,5.06 -27.02,5 -27.22,4.94 -27.42,4.88" fill="none" stroke="black" stroke-width="2.2222222222222223" stroke-linejoin="round" filter="url(#fuzzy)" />
      <circle r="4.308" cx="10.253274529829413" cy="1.5937382077825788" stroke="black" fill="none" stroke-width="1.0" filter="url(#fuzzy)" clip-path="url(#leftEyeClipPath)" /><circle r="3.192" cx="12.173274529829413" cy="0.13873820778257961" stroke="black" fill="none" stroke-width="1.0" filter="url(#fuzzy)" clip-path="url(#leftEyeClipPath)" /><circle r="3.29" cx="11.033274529829415" cy="-1.0712617922174208" stroke="black" fill="none" stroke-width="1.0" filter="url(#fuzzy)" clip-path="url(#leftEyeClipPath)" /><circle r="3.5540000000000003" cx="11.813274529829414" cy="-2.3262617922174207" stroke="black" fill="none" stroke-width="1.0" filter="url(#fuzzy)" clip-path="url(#leftEyeClipPath)" /><circle r="4.746" cx="13.343274529829413" cy="-0.36126179221742083" stroke="black" fill="none" stroke-width="1.0" filter="url(#fuzzy)" clip-path="url(#leftEyeClipPath)" /><circle r="4.196" cx="11.528274529829414" cy="1.5637382077825794" stroke="black" fill="none" stroke-width="1.0" filter="url(#fuzzy)" clip-path="url(#leftEyeClipPath)" /><circle r="3.038" cx="14.588274529829413" cy="1.123738207782579" stroke="black" fill="none" stroke-width="1.0" filter="url(#fuzzy)" clip-path="url(#leftEyeClipPath)" /><circle r="3.34" cx="12.918274529829414" cy="-3.0962617922174207" stroke="black" fill="none" stroke-width="1.0" filter="url(#fuzzy)" clip-path="url(#leftEyeClipPath)" /><circle r="3.05" cx="11.818274529829413" cy="-0.41626179221742055" stroke="black" fill="none" stroke-width="1.0" filter="url(#fuzzy)" clip-path="url(#leftEyeClipPath)" /><circle r="3.26" cx="11.673274529829413" cy="0.9237382077825789" stroke="black" fill="none" stroke-width="1.0" filter="url(#fuzzy)" clip-path="url(#leftEyeClipPath)" />
    </g>
    <g id="hairs">
      <polyline points="-50.06,-59.81 -3.44,-71.1 19.45,-69.92 29.01,-67.57 29.24,-67.47 25.07,-68.22 20.66,-68.25 18.33,-67.22 18.47,-65.68 19.8,-64.5 20.26,-64.39 18.12,-65.56 12.93,-67.67 5.67,-69.91 -1.83,-71.51 -7.74,-72.04 -10.72,-71.41 -10.14,-69.67 -6.09,-67 0.2,-64.25 5.11,-63.47 1.16,-66.4 -19.68,-69.37 -49.96,-60.08" fill="none" stroke="rgb(19, 134, 125)" stroke-width="2" stroke-linejoin="round" filter="url(#fuzzy)" /><polyline points="65.65,-31.4 12.85,-55.18 4.02,-64.45 8.03,-66.77 16.31,-65.31 22.48,-62.68 23.49,-60.97 20.07,-61.08 14.68,-62.83 9.45,-65.57 5.45,-68.68 2.98,-71.68 1.84,-74.2 1.43,-75.91 0.86,-76.57 -0.56,-76.17 -2.98,-75.06 -6.05,-73.94 -9.44,-73.63 -13.39,-74.37 -18.62,-75.13 -23.38,-75.33 -10,-83.72" fill="none" stroke="rgb(19, 134, 125)" stroke-width="2" stroke-linejoin="round" filter="url(#fuzzy)" /><polyline points="55.28,-53.06 27.2,-64.83 17.35,-65.14 16.91,-64.83 14.42,-65.87 8.21,-67.82 1.31,-70.2 -3.42,-72.56 -4.88,-74.37 -3.3,-75.16 0.78,-74.59 7.01,-72.51 14.87,-69.1 23.16,-64.98 29.84,-61.12 32.76,-58.43 30.91,-57.25 25.21,-57.28 17.8,-58.1 10.01,-59.77 0.73,-62.68 -11.8,-66.07 -26.34,-66.32 -55.95,-51.75" fill="none" stroke="rgb(19, 134, 125)" stroke-width="2" stroke-linejoin="round" filter="url(#fuzzy)" /><polyline points="5.8,-84.06 -5.31,-80.16 6.86,-71.02 26.81,-59.37 42.23,-50.19 49.01,-46.39 48.27,-47.75 42.98,-52.22 36.03,-57.51 29.81,-61.87 26.29,-64.28 26.77,-64.61 30.85,-63.79 35.45,-63.36 34.63,-64.42 18.82,-67.91 -30.11,-76.35" fill="none" stroke="rgb(19, 134, 125)" stroke-width="2" stroke-linejoin="round" filter="url(#fuzzy)" /><polyline points="-30.82,-76 -15.35,-73.94 7.91,-70.81 20.89,-66.99 25.1,-64.35 26.46,-63.32 28.48,-63.31 31.26,-63.72 33.04,-64.34 31.8,-65.19 26.33,-66.19 16.97,-67.04 5.81,-67.28 -3.98,-66.52 -9.67,-64.82 -10.68,-62.87 -8.88,-61.81 -6.39,-62.43 -2.45,-64.05 4.97,-64.28 5.55,-61.62 -45.95,-64.51" fill="none" stroke="rgb(19, 134, 125)" stroke-width="2" stroke-linejoin="round" filter="url(#fuzzy)" /><polyline points="26.91,-78.44 35.89,-68.15 39.77,-57.94 33.69,-55.16 24.18,-56.73 16.1,-59.68 10.77,-62.88 7.81,-66.01 6.61,-68.76 6.85,-70.83 8.29,-72.06 10.53,-72.56 12.81,-72.64 13.98,-72.7 12.72,-73.09 8.26,-74 1.28,-75.38 -5.78,-76.9 -9.54,-78.12 -7.6,-78.42 -0.45,-76.87 7.16,-72.06 2.85,-63.73 -49.96,-60.08" fill="none" stroke="rgb(19, 134, 125)" stroke-width="2" stroke-linejoin="round" filter="url(#fuzzy)" /><polyline points="4.05,-84.38 28.41,-62.93 27.68,-63.18 23.28,-66.01 18.38,-68.14 14.04,-69.58 10.69,-71.07 8.38,-73.06 7.05,-75.38 6.67,-77.44 7.12,-78.56 8.2,-78.21 9.78,-76.24 11.88,-72.91 14.67,-68.92 18.22,-65.21 22.25,-62.55 26.02,-61.17 28.39,-60.51 28.2,-59.49 25.08,-57.19 20.73,-53.7 20.95,-50.16 36.77,-45.73 66.43,-29.58" fill="none" stroke="rgb(19, 134, 125)" stroke-width="2" stroke-linejoin="round" filter="url(#fuzzy)" /><polyline points="10.27,-83.62 -11.75,-80.02 -14.95,-80.16 -15.34,-79.87 -14.45,-78.62 -10.99,-76.46 -5.85,-73.71 -2.01,-71.22 -2.07,-69.95 -5.83,-70.3 -10.09,-71.65 -10.42,-72.6 -3.63,-71.62 10.36,-67.97 27.42,-62.86 39.1,-60.65 35.84,-67.56 16.93,-82.13" fill="none" stroke="rgb(19, 134, 125)" stroke-width="2" stroke-linejoin="round" filter="url(#fuzzy)" /><polyline points="-2.87,-84.52 -8.4,-78.91 -1.35,-69.35 2.87,-61.91 6.38,-57.85 13.37,-55.78 22.53,-55.13 29.65,-55.91 31.93,-57.66 29.93,-59.36 26.76,-60.06 25.86,-59.6 28.41,-58.76 31.98,-58.86 31.55,-61.21 23.24,-65.95 9.32,-70.73 4.02,-70.88 43.84,-66.64" fill="none" stroke="rgb(19, 134, 125)" stroke-width="2" stroke-linejoin="round" filter="url(#fuzzy)" /><polyline points="37.22,-71.94 31.77,-67 23.19,-63.52 17.08,-61.44 11.26,-61.75 6.94,-63.65 6.6,-65.76 11.27,-66.75 19.62,-66 28.66,-64.04 35.26,-62.26 37.63,-61.92 35.93,-63.24 31.77,-65.3 26.79,-66.74 21.24,-66.95 13.6,-66.64 2.94,-67.39 -6.16,-70.25 0.26,-74.49 33.66,-74.15" fill="none" stroke="rgb(19, 134, 125)" stroke-width="2" stroke-linejoin="round" filter="url(#fuzzy)" /><polyline points="-55.95,-51.75 -28.36,-51.62 -1.87,-56.21 11.91,-63.22 19.17,-68.23 23.46,-70.45 26.6,-70.65 29.73,-69.73 33.19,-68.41 36.55,-67.15 39.29,-66.1 41.26,-65.08 42.83,-63.73 44.46,-61.84 46.35,-59.54 48.09,-57.39 48.76,-56.23 47.23,-56.85 42.61,-59.53 34.87,-63.88 25.78,-68.8 20.25,-72.51 24.8,-73.63 29.19,-77.04" fill="none" stroke="rgb(19, 134, 125)" stroke-width="2" stroke-linejoin="round" filter="url(#fuzzy)" /><polyline points="65.32,-32.94 33.71,-61.73 17.83,-70.31 10.38,-72.81 10.92,-73.12 14.67,-72.91 16.87,-72.97 15.75,-73.41 12.19,-73.86 8.16,-73.82 5.34,-72.93 4.4,-71.23 4.81,-69.29 5.53,-67.89 6.1,-67.46 7.64,-67.6 12.27,-67.17 21.08,-65.15 31.79,-61.97 38.46,-60.33 34.27,-64.23 15.37,-74.35 -17.68,-81.73" fill="none" stroke="rgb(19, 134, 125)" stroke-width="2" stroke-linejoin="round" filter="url(#fuzzy)" /><polyline points="64,-36.01 27.61,-59.81 6.21,-65.74 4.71,-64.37 9.07,-62.55 9.27,-63.3 4.07,-66.39 -2.96,-70.2 -7.9,-73.35 -8.6,-75.26 -4.95,-76.01 1.54,-76.08 8.41,-76.04 13.03,-76.32 13.49,-77 9.39,-77.85 2.05,-78.53 -5.83,-78.93 -11.14,-79.36 -12.15,-80.07 -11.07,-80.22 -16.39,-76.84 -45.95,-64.51" fill="none" stroke="rgb(19, 134, 125)" stroke-width="2" stroke-linejoin="round" filter="url(#fuzzy)" /><polyline points="12.86,-83.24 25.92,-76 22.75,-75.44 17.12,-76.85 14.48,-76.88 13.31,-74.47 11.42,-70.05 8.91,-64.73 7.31,-59.78 7.38,-56.34 8.14,-55.19 7.71,-56.46 5.04,-59.57 0.84,-63.43 -2.8,-66.94 -3.69,-69.4 -1,-70.52 4.03,-70.3 8.28,-69.12 7.77,-68.34 -0.51,-70.12 -12.24,-75.22 0.4,-84.72" fill="none" stroke="rgb(19, 134, 125)" stroke-width="2" stroke-linejoin="round" filter="url(#fuzzy)" /><polyline points="-17.68,-81.73 25.17,-62.22 29.63,-58.61 25.56,-61.49 22.49,-64.76 19.14,-66.72 14.1,-67.34 9.2,-66.61 7.75,-64.54 11.46,-61.69 19.03,-59.2 27.23,-57.96 32.91,-58.02 34.1,-58.78 29.53,-59.99 18.61,-62.42 3.84,-67.54 -7.55,-75.51 -22.53,-80.15" fill="none" stroke="rgb(19, 134, 125)" stroke-width="2" stroke-linejoin="round" filter="url(#fuzzy)" /><polyline points="10.27,-83.62 6.97,-73.64 -4.28,-71.63 -5.78,-74.46 -0.2,-76.83 9.18,-76.3 19.77,-73.02 28.82,-68.59 33.63,-64.89 32.54,-62.96 25.91,-62.42 16.23,-62.01 6.89,-60.86 0.04,-59.66 -4.99,-60.44 -11.28,-64.49 -22.26,-70.32 -28.69,-77.09" fill="none" stroke="rgb(19, 134, 125)" stroke-width="2" stroke-linejoin="round" filter="url(#fuzzy)" /><polyline points="-36.12,-72.88 -3.51,-76.29 -3.27,-77.09 -9.95,-74.65 -17.21,-70.2 -21.49,-65.57 -20.02,-62.39 -12.95,-61.41 -3.2,-62.45 5.79,-64.77 11.89,-67.61 14.65,-70.39 14.81,-72.55 14.14,-73.15 15.25,-71.06 20.02,-65.88 26.77,-59.38 29.53,-55.39 28.53,-53.97 64.27,-35.42" fill="none" stroke="rgb(19, 134, 125)" stroke-width="2" stroke-linejoin="round" filter="url(#fuzzy)" /><polyline points="48.11,-61.94 33.07,-71.66 23.7,-74.59 12.53,-76.76 3.9,-78.49 -0.21,-79.22 -1.21,-78.41 -1.44,-75.85 -2.62,-71.87 -5.79,-67.42 -11.21,-63.84 -17.85,-62.18 -22.96,-62.52 -22.86,-63.78 -14.66,-64.12 1.91,-62.01 22.83,-57.68 38.46,-54.48 33.82,-59.64 -8.46,-84.06" fill="none" stroke="rgb(19, 134, 125)" stroke-width="2" stroke-linejoin="round" filter="url(#fuzzy)" /><polyline points="33.66,-74.15 2.74,-73.23 4.57,-69.44 4.43,-67.1 -0.66,-67.21 -4.58,-68.39 -4.1,-69.6 -0.22,-70.49 4.62,-71.05 8.75,-71.35 11.79,-71.46 13.93,-71.25 15.32,-70.39 16,-68.61 16.21,-66 16.44,-63.29 16.49,-61.87 14.62,-63.21 8.58,-67.76 -0.57,-73.72 -5.27,-77.81 14.9,-82.45" fill="none" stroke="rgb(19, 134, 125)" stroke-width="2" stroke-linejoin="round" filter="url(#fuzzy)" /><polyline points="29.19,-77.04 21.75,-73.18 19.52,-69.65 13.58,-70.54 11.07,-70.27 14.94,-66.4 21.82,-60.26 26.22,-54.86 25.23,-52.89 19.89,-55.34 13.18,-61.11 7.77,-67.28 6.21,-70.07 11.16,-66.99 17.07,-62.49 -15.55,-82.67" fill="none" stroke="rgb(19, 134, 125)" stroke-width="2" stroke-linejoin="round" filter="url(#fuzzy)" /><polyline points="-44.03,-66.36 7.42,-69.44 23.15,-70.62 26.15,-69.5 22.52,-69.2 16.82,-70.03 13.38,-70.49 13.8,-69.55 16.52,-67.42 18.82,-64.97 19.03,-63.09 17.25,-62.34 14.46,-62.99 11.53,-65.04 9.08,-68.11 7.59,-71.32 7.08,-73.35 6.73,-72.83 2.55,-70.28 -34.72,-73.73" fill="none" stroke="rgb(19, 134, 125)" stroke-width="2" stroke-linejoin="round" filter="url(#fuzzy)" /><polyline points="-30.11,-76.35 9.58,-70.92 26.5,-63.83 21.51,-63.49 6.74,-66.14 -7.31,-68.16 -16.44,-68.36 -21.42,-67.14 -24.41,-65.53 -26.08,-64.54 -25.2,-64.83 -20.25,-66.46 -11.33,-68.89 -0.81,-71.42 7.83,-73.48 12.02,-74.81 11.46,-75.38 7.78,-75.58 4.06,-76.66 6.32,-79.8 17.59,-81.88" fill="none" stroke="rgb(19, 134, 125)" stroke-width="2" stroke-linejoin="round" filter="url(#fuzzy)" /><polyline points="-22.23,-80.29 -13.49,-73.91 -7.15,-64.54 2.51,-61.45 11.11,-62.7 15.68,-64.77 14.62,-65.84 9.07,-65.81 2.64,-65.52 -1.49,-66.01 -3.24,-67.93 -4.48,-71.22 -4.64,-74.99 1.51,-77.48 18.81,-75.63 46.82,-63.62" fill="none" stroke="rgb(19, 134, 125)" stroke-width="2" stroke-linejoin="round" filter="url(#fuzzy)" /><polyline points="-22.53,-80.15 -23.86,-78.44 -15.44,-75.84 1.11,-70.41 19.02,-63.91 31.1,-58.99 34.37,-57.41 30.57,-59.28 24.01,-63.09 18.97,-66.58 17.79,-67.84 20.03,-66.46 22.52,-64.04 20.57,-63.34 11.33,-65.72 -1.68,-68.6 -4.74,-67.94 37.22,-71.94" fill="none" stroke="rgb(19, 134, 125)" stroke-width="2" stroke-linejoin="round" filter="url(#fuzzy)" /><polyline points="0.34,-84.56 -2.36,-84.51 -5.24,-84.38 -8.12,-84.16 -10.74,-83.86 -13.22,-83.48 -15.78,-83.01 -18.46,-82.47 -21.17,-81.86 -23.85,-81.16 -26.49,-80.39 -29.12,-79.53 -31.78,-78.59 -34.52,-77.57 -37.36,-76.48 -40.28,-75.32 -43.3,-74.09 -46.43,-72.82 -49.69,-71.51 -53.14,-70.21 -56.84,-68.92 -60.86,-67.65 -65.16,-66.36 -69.65,-64.99 -74.23,-63.44 -78.96,-61.66 -84.24,-59.66 -90.5,-57.52 -97.25,-55.43 -100.93,-53.73" fill="none" stroke="rgb(19, 134, 125)" stroke-width="2" stroke-linejoin="round" filter="url(#fuzzy)" /><polyline points="-3.05,-84.38 -5.53,-84.19 -7.82,-83.9 -9.71,-83.55 -11.49,-83.13 -13.29,-82.64 -15.06,-82.09 -16.7,-81.47 -18.13,-80.79 -19.34,-80.04 -20.4,-79.22 -21.39,-78.32 -22.35,-77.35 -23.34,-76.32 -24.34,-75.22 -25.37,-74.07 -26.42,-72.86 -27.4,-71.6 -28.17,-70.3 -28.55,-68.97 -28.46,-67.61 -28.05,-66.04 -27.39,-63.62" fill="none" stroke="rgb(19, 134, 125)" stroke-width="2" stroke-linejoin="round" filter="url(#fuzzy)" /><polyline points="-5.09,-84.26 -7.46,-83.91 -9.14,-83.55 -11.28,-83.1 -13.47,-82.59 -15.35,-82.01 -16.77,-81.36 -17.79,-80.65 -18.53,-79.85 -19.09,-78.98 -19.54,-78.04 -19.9,-77.03 -20.18,-75.95 -20.41,-74.8 -20.71,-73.6 -21.17,-72.33 -21.84,-70.99 -22.65,-69.58 -23.42,-68.1 -23.88,-66.54 -23.87,-64.91 -23.39,-63.23 -22.64,-61.5 -21.96,-59.72 -21.6,-57.91 -21.65,-56.04 -21.85,-54.11 -21.71,-52.11 -20.78,-50.07 -18.91,-47.99 -16.46,-45.91 -14.01,-43.84 -11.8,-41.77 -9.23,-39.62 -5.49,-37.22 -2.22,-34.43" fill="none" stroke="rgb(19, 134, 125)" stroke-width="2" stroke-linejoin="round" filter="url(#fuzzy)" /><polyline points="-5.09,-84.26 -8.36,-83.92 -10.59,-83.55 -12.77,-83.11 -14.96,-82.6 -17.13,-82.03 -19.31,-81.4 -21.51,-80.69 -23.76,-79.91 -26.03,-79.05 -28.28,-78.12 -30.48,-77.12 -32.67,-76.06 -34.88,-74.93 -37.19,-73.74 -39.63,-72.49 -42.21,-71.18 -44.88,-69.8 -47.55,-68.34 -50.17,-66.8 -52.66,-65.18 -55,-63.5 -57.17,-61.78 -59.16,-60.05 -61,-58.29 -62.79,-56.47 -64.7,-54.56 -66.84,-52.59 -69.1,-50.69 -70.64,-49.19" fill="none" stroke="rgb(19, 134, 125)" stroke-width="2" stroke-linejoin="round" filter="url(#fuzzy)" /><polyline points="-7.64,-84.09 -9.17,-83.91 -11.29,-83.53 -13.73,-83.05 -16.19,-82.48 -18.66,-81.85 -21.28,-81.13 -24.18,-80.34 -27.37,-79.45 -30.78,-78.49 -34.35,-77.45 -38.01,-76.33 -41.75,-75.15 -45.56,-73.92 -49.44,-72.64 -53.41,-71.33 -57.56,-70.02 -61.95,-68.71 -66.59,-67.39 -71.32,-66.01 -75.85,-64.54 -79.9,-62.93 -83.37,-61.17 -86.54,-59.29 -90.03,-57.33 -94.45,-55.36 -99.93,-53.38 -105.81,-51.36 -110.95,-49.21 -114.86,-46.84 -119.18,-44.32 -127.81,-41.38" fill="none" stroke="rgb(19, 134, 125)" stroke-width="2" stroke-linejoin="round" filter="url(#fuzzy)" /><polyline points="-10,-83.72 -12.18,-83.17 -13.2,-82.62 -13.09,-82.04 -12.78,-81.4 -12.82,-80.69 -13.13,-79.9 -13.48,-79.04 -13.75,-78.1 -14,-77.09 -14.33,-76.01 -14.86,-74.88 -15.66,-73.69 -16.78,-72.43 -18.21,-71.12 -19.85,-69.73 -21.55,-68.27 -23.07,-66.72 -24.18,-65.1 -24.66,-63.42 -24.31,-61.7 -23.1,-59.96 -21.22,-58.19 -19.01,-56.36 -16.81,-54.46 -14.65,-52.48 -12.14,-50.46 -9.24,-48.32 -8.61,-45.54" fill="none" stroke="rgb(19, 134, 125)" stroke-width="2" stroke-linejoin="round" filter="url(#fuzzy)" /><polyline points="-22.23,-80.29 -23.67,-79.87 -25.51,-79.03 -27.84,-78.03 -30.38,-76.97 -32.86,-75.87 -35.17,-74.71 -37.3,-73.49 -39.28,-72.2 -41.2,-70.86 -43.13,-69.44 -45.14,-67.94 -47.29,-66.36 -49.59,-64.72 -52.03,-63.02 -54.57,-61.28 -57.14,-59.5 -59.7,-57.68 -62.28,-55.81 -64.92,-53.88 -67.68,-51.89 -70.55,-49.85 -73.41,-47.79 -76.06,-45.71 -78.35,-43.61 -80.28,-41.49 -82.01,-39.29 -83.73,-36.96 -85.45,-34.52 -87.07,-32.12 -88.9,-30.02" fill="none" stroke="rgb(19, 134, 125)" stroke-width="2" stroke-linejoin="round" filter="url(#fuzzy)" /><polyline points="-24.84,-79.01 -29.36,-78.37 -31.79,-77.33 -34.13,-76.17 -36.72,-74.95 -39.43,-73.66 -42.07,-72.33 -44.45,-70.98 -46.51,-69.64 -48.37,-68.32 -50.24,-66.98 -52.27,-65.56 -54.56,-64.03 -57.06,-62.36 -59.75,-60.56 -62.61,-58.66 -65.69,-56.7 -69.06,-54.68 -72.76,-52.62 -76.72,-50.52 -80.75,-48.37 -84.58,-46.19 -87.9,-43.97 -90.56,-41.75 -92.62,-39.52 -94.37,-37.28 -96.24,-35.01 -98.58,-32.72 -101.49,-30.4 -104.88,-28.03 -108.48,-25.6 -111.74,-23.13 -113.83,-20.85 -114.18,-19.17" fill="none" stroke="rgb(19, 134, 125)" stroke-width="2" stroke-linejoin="round" filter="url(#fuzzy)" /><polyline points="-36.4,-72.67 -39.1,-70.7 -40.85,-69.23 -42.63,-67.73 -44.62,-66.1 -46.67,-64.37 -48.59,-62.6 -50.26,-60.82 -51.74,-59.03 -53.12,-57.19 -54.51,-55.3 -55.99,-53.34 -57.54,-51.33 -59.13,-49.27 -60.71,-47.19 -62.23,-45.08 -63.66,-42.94 -64.99,-40.74 -66.25,-38.49 -67.47,-36.17 -68.7,-33.79 -69.98,-31.35 -71.32,-28.86 -72.68,-26.34 -73.95,-23.81 -75.05,-21.3 -75.9,-18.83 -76.55,-16.43 -77.08,-14.14 -77.58,-12.19 -77.93,-11.16" fill="none" stroke="rgb(19, 134, 125)" stroke-width="2" stroke-linejoin="round" filter="url(#fuzzy)" /><polyline points="-42.72,-67.58 -42,-66.84 -40.26,-65.72 -37.98,-64.17 -37.07,-62.32 -38.01,-60.32 -39.8,-58.27 -41.1,-56.24 -41.14,-54.21 -39.92,-52.16 -37.96,-50.05 -35.95,-47.9 -34.44,-45.7 -33.69,-43.48 -33.62,-41.25 -33.93,-39.02 -34.18,-36.78 -33.98,-34.51 -33.17,-32.22 -31.81,-29.9 -30.08,-27.56 -28.09,-25.21 -25.73,-22.85 -22.91,-20.49 -19.87,-18.09 -17.2,-15.62 -15.21,-13.06 -12.83,-10.48 -8.53,-7.92 -5.54,-4.7" fill="none" stroke="rgb(19, 134, 125)" stroke-width="2" stroke-linejoin="round" filter="url(#fuzzy)" /><polyline points="-43.22,-67.15 -46.23,-64.33 -48.62,-62.27 -50.47,-60.53 -52.08,-58.83 -53.74,-57.03 -55.59,-55.12 -57.59,-53.14 -59.61,-51.1 -61.57,-49.03 -63.45,-46.94 -65.29,-44.82 -67.13,-42.68 -69.02,-40.48 -70.9,-38.21 -72.73,-35.88 -74.4,-33.49 -75.87,-31.04 -77.14,-28.56 -78.27,-26.06 -79.38,-23.55 -80.55,-21.07 -81.81,-18.62 -83.14,-16.23 -84.47,-13.87 -85.79,-11.51 -87.05,-9.08 -88.09,-6.57 -88.69,-4.15 -89.14,-2.38" fill="none" stroke="rgb(19, 134, 125)" stroke-width="2" stroke-linejoin="round" filter="url(#fuzzy)" /><polyline points="-50.06,-59.81 -57.85,-58.87 -57.78,-57.02 -57.66,-55 -58.81,-52.94 -60.86,-50.86 -63.31,-48.76 -65.9,-46.65 -68.52,-44.51 -71.15,-42.34 -73.81,-40.12 -76.52,-37.82 -79.38,-35.46 -82.43,-33.05 -85.66,-30.59 -88.91,-28.1 -91.94,-25.59 -94.47,-23.1 -96.41,-20.62 -97.89,-18.17 -99.25,-15.73 -100.84,-13.31 -102.85,-10.89 -105.15,-8.44 -107.4,-5.96 -109.15,-3.44 -110.13,-0.87 -110.32,1.73 -110.02,4.35 -109.66,6.97 -109.74,9.58 -110.58,12.19 -112.21,14.89 -114.1,17.79 -114.51,20.88" fill="none" stroke="rgb(19, 134, 125)" stroke-width="2" stroke-linejoin="round" filter="url(#fuzzy)" /><polyline points="-51.59,-57.66 -53.44,-55.55 -55.06,-53.74 -56.78,-51.84 -58.68,-49.74 -60.75,-47.51 -62.85,-45.24 -64.76,-42.98 -66.35,-40.75 -67.62,-38.52 -68.67,-36.27 -69.64,-33.99 -70.62,-31.69 -71.63,-29.36 -72.61,-27.01 -73.51,-24.64 -74.3,-22.26 -74.99,-19.85 -75.64,-17.4 -76.35,-14.91 -77.18,-12.36 -78.15,-9.78 -79.25,-7.18 -80.42,-4.58 -81.58,-2.03 -82.66,0.45 -83.61,2.86 -84.41,5.25 -85.03,7.68 -85.58,10.06 -85.95,11.58" fill="none" stroke="rgb(19, 134, 125)" stroke-width="2" stroke-linejoin="round" filter="url(#fuzzy)" /><polyline points="-53.91,-55.1 -54.91,-53.63 -56.56,-51.86 -58.3,-49.76 -59.83,-47.48 -61.09,-45.18 -62.14,-42.91 -63.09,-40.69 -64.03,-38.46 -65.02,-36.22 -66.07,-33.95 -67.12,-31.65 -68.15,-29.32 -69.11,-26.97 -69.96,-24.6 -70.72,-22.22 -71.41,-19.82 -72.05,-17.37 -72.66,-14.88 -73.24,-12.34 -73.76,-9.75 -74.22,-7.15 -74.63,-4.56 -75.01,-2.02 -75.4,0.46 -75.78,2.87 -76.07,5.26 -76.18,7.68 -76.09,10.06 -76.12,11.58" fill="none" stroke="rgb(19, 134, 125)" stroke-width="2" stroke-linejoin="round" filter="url(#fuzzy)" /><polyline points="-53.91,-55.1 -54.97,-53.61 -56.41,-51.82 -58.4,-49.7 -60.71,-47.41 -62.91,-45.09 -64.77,-42.81 -66.29,-40.57 -67.6,-38.32 -68.84,-36.05 -70.07,-33.76 -71.29,-31.44 -72.46,-29.09 -73.52,-26.72 -74.45,-24.33 -75.24,-21.92 -75.92,-19.47 -76.52,-17 -77.09,-14.48 -77.65,-11.93 -78.24,-9.36 -78.87,-6.78 -79.5,-4.21 -80.1,-1.67 -80.6,0.85 -80.96,3.34 -81.2,5.83 -81.39,8.33 -81.62,10.86 -81.99,13.4 -82.49,15.94 -83.08,18.42 -83.65,20.83 -84.14,23.2 -84.52,25.68 -84.62,28.44 -84.2,31.36 -83.59,33.72" fill="none" stroke="rgb(19, 134, 125)" stroke-width="2" stroke-linejoin="round" filter="url(#fuzzy)" /><polyline points="-54.42,-53.73 -56.77,-51.95 -59.37,-49.78 -62.3,-47.39 -65.49,-45.03 -69.13,-42.74 -73.13,-40.51 -77.22,-38.27 -81.07,-36.01 -84.37,-33.72 -86.97,-31.4 -88.93,-29.05 -90.46,-26.68 -91.83,-24.29 -93.21,-21.88 -94.63,-19.44 -96.02,-16.96 -97.3,-14.45 -98.46,-11.9 -99.61,-9.32 -100.95,-6.74 -102.65,-4.18 -104.74,-1.64 -107.11,0.87 -109.61,3.36 -112.13,5.85 -114.77,8.35 -117.82,10.87 -121.6,13.42 -126.2,15.95 -131.37,18.44 -136.42,20.84 -140.45,23.2 -142.71,25.69 -143.04,28.44 -141.95,31.36 -140.16,33.72" fill="none" stroke="rgb(19, 134, 125)" stroke-width="2" stroke-linejoin="round" filter="url(#fuzzy)" /><polyline points="-56.88,-50.39 -58.56,-48.56 -62.68,-46.35 -67.95,-44.22 -72.2,-42.11 -74.67,-39.91 -75.9,-37.61 -76.75,-35.22 -77.75,-32.77 -79.05,-30.28 -80.52,-27.78 -81.98,-25.27 -83.21,-22.77 -84.12,-20.3 -84.77,-17.85 -85.38,-15.43 -86.21,-13.01 -87.52,-10.59 -89.39,-8.14 -91.75,-5.65 -94.37,-3.13 -96.97,-0.57 -99.28,2.02 -101.15,4.63 -102.56,7.25 -103.56,9.86 -104.26,12.46 -104.73,15.05 -105.07,17.6 -105.55,20.03 -106.42,22.29 -107.47,24.4 -108.56,26.38" fill="none" stroke="rgb(19, 134, 125)" stroke-width="2" stroke-linejoin="round" filter="url(#fuzzy)" /><polyline points="-56.88,-50.39 -64.73,-48.58 -70.42,-46.39 -70.66,-44.28 -69.3,-42.19 -69.08,-40.03 -70.93,-37.75 -74.67,-35.38 -79.55,-32.96 -84.53,-30.49 -88.69,-28.01 -91.47,-25.51 -92.91,-23.02 -93.59,-20.56 -94.39,-18.14 -96.08,-15.75 -99.12,-13.38 -103.57,-11 -109.09,-8.6 -115.06,-6.16 -120.73,-3.68 -125.58,-1.15 -129.64,1.47 -133.33,4.2 -136.34,6.99 -137.38,9.85" fill="none" stroke="rgb(19, 134, 125)" stroke-width="2" stroke-linejoin="round" filter="url(#fuzzy)" /><polyline points="-59.81,-45.28 -63.81,-42.48 -65.37,-40.32 -66.33,-38.15 -67.18,-35.9 -68.05,-33.6 -69.14,-31.28 -70.61,-28.94 -72.56,-26.58 -74.91,-24.21 -77.46,-21.83 -79.97,-19.42 -82.28,-16.97 -84.4,-14.47 -86.48,-11.93 -88.7,-9.35 -91.16,-6.77 -93.76,-4.2 -96.33,-1.68 -98.71,0.8 -100.93,3.24 -103.29,5.67 -106.16,8.12 -109.63,10.64 -113.29,13.25 -116.31,15.96 -118.13,18.6 -119.24,20.71 -120.33,21.54" fill="none" stroke="rgb(19, 134, 125)" stroke-width="2" stroke-linejoin="round" filter="url(#fuzzy)" /><polyline points="-59.81,-45.28 -61.38,-42.47 -62.44,-40.29 -63.44,-38.1 -64.46,-35.83 -65.55,-33.52 -66.7,-31.18 -67.89,-28.81 -69.08,-26.44 -70.23,-24.05 -71.32,-21.64 -72.33,-19.2 -73.25,-16.73 -74.08,-14.2 -74.81,-11.65 -75.48,-9.07 -76.08,-6.49 -76.63,-3.92 -77.12,-1.39 -77.52,1.12 -77.83,3.61 -78.05,6.1 -78.23,8.6 -78.38,11.11 -78.55,13.64 -78.74,16.15 -78.92,18.63 -79.04,21.09 -79.06,23.53 -78.91,26.01 -78.56,28.53 -78.03,31.04 -77.38,33.44 -76.63,35.68 -75.68,38.03 -74.46,41.23" fill="none" stroke="rgb(19, 134, 125)" stroke-width="2" stroke-linejoin="round" filter="url(#fuzzy)" /><polyline points="-63.34,-37.53 -64.57,-34.78 -65.93,-32.3 -67.35,-29.86 -68.57,-27.36 -69.54,-24.82 -70.32,-22.3 -71.04,-19.83 -71.79,-17.41 -72.64,-15.02 -73.64,-12.63 -74.76,-10.22 -75.92,-7.77 -77.03,-5.29 -78.02,-2.76 -78.88,-0.2 -79.59,2.38 -80.22,4.99 -80.8,7.59 -81.34,10.18 -81.84,12.76 -82.22,15.3 -82.41,17.77 -82.36,20.16 -82.07,22.45 -81.64,24.66 -81.3,26.89 -81.27,29.29 -81.36,32.09 -80.66,35.69" fill="none" stroke="rgb(19, 134, 125)" stroke-width="2" stroke-linejoin="round" filter="url(#fuzzy)" /><polyline points="-64.51,-35.35 -66.8,-33.3 -71.12,-30.98 -75.16,-28.64 -77.55,-26.28 -78.64,-23.9 -79.36,-21.53 -80.34,-19.14 -81.78,-16.7 -83.58,-14.2 -85.56,-11.64 -87.45,-9.06 -89.01,-6.47 -90.14,-3.92 -90.98,-1.41 -91.95,1.06 -93.57,3.5 -96.28,5.93 -100.22,8.39 -105.17,10.9 -110.47,13.46 -115.21,16.03 -118.59,18.5 -120.59,20.76 -122.4,22.83 -125.56,25.09 -128.25,28.14" fill="none" stroke="rgb(19, 134, 125)" stroke-width="2" stroke-linejoin="round" filter="url(#fuzzy)" /><polyline points="-64.51,-35.35 -65.02,-33.28 -65.47,-30.93 -65.22,-28.56 -64.09,-26.17 -62.56,-23.77 -61.3,-21.37 -60.72,-18.94 -60.87,-16.46 -61.49,-13.92 -62.26,-11.34 -62.86,-8.75 -63.12,-6.16 -63.01,-3.59 -62.58,-1.06 -61.96,1.45 -61.23,3.94 -60.44,6.43 -59.6,8.93 -58.67,11.45 -57.63,13.96 -56.52,16.47 -55.35,18.95 -54.21,21.42 -53.15,23.89 -52.21,26.35 -51.39,28.81 -50.66,31.24 -49.94,33.64 -49.14,35.99 -48.14,38.3 -46.84,40.59 -45.24,42.9 -43.45,45.21 -41.7,47.45 -40.17,49.57 -38.92,51.81" fill="none" stroke="rgb(19, 134, 125)" stroke-width="2" stroke-linejoin="round" filter="url(#fuzzy)" /><polyline points="67.36,-25.98 68.27,-24.66 69.49,-22.25 70.35,-19.58 70.93,-16.99 71.4,-14.49 71.92,-12.01 72.58,-9.51 73.41,-6.97 74.35,-4.42 75.29,-1.88 76.08,0.65 76.62,3.18 76.86,5.7 76.86,8.23 76.72,10.78 76.56,13.36 76.46,15.97 76.42,18.58 76.43,21.19 76.46,23.75 76.51,26.23 76.65,28.64 76.92,30.98 77.32,33.27 77.77,35.54 78.12,37.8 78.2,40.06 77.89,42.32 77.2,44.54 76.25,46.7 75.25,48.81 74.31,50.88 73.44,52.97 72.49,55.11 71.5,57.2 70.78,59.04 70.11,60.46" fill="none" stroke="rgb(19, 134, 125)" stroke-width="2" stroke-linejoin="round" filter="url(#fuzzy)" /><polyline points="65.01,-33.02 66.87,-31.25 68.32,-29.14 69.07,-26.88 69.81,-24.49 70.76,-21.95 71.83,-19.28 72.89,-16.58 73.87,-13.89 74.79,-11.24 75.7,-8.63 76.63,-6.05 77.61,-3.49 78.58,-0.95 79.49,1.57 80.26,4.08 80.81,6.59 81.15,9.12 81.34,11.69 81.48,14.28 81.67,16.91 81.97,19.54 82.35,22.16 82.73,24.73 83,27.25 83.06,29.7 82.9,32.09 82.54,34.44 82.08,36.75 81.59,39.01 81.12,41.21 80.69,43.36 80.28,45.46 79.86,47.51 79.28,49.52 78.37,51.53 77,53.64 74.8,56.28" fill="none" stroke="rgb(19, 134, 125)" stroke-width="2" stroke-linejoin="round" filter="url(#fuzzy)" /><polyline points="63.06,-38.64 66.15,-36.92 72.9,-34.97 79.49,-32.71 84.08,-30.26 86.72,-27.76 88.02,-25.25 88.8,-22.73 89.84,-20.2 91.65,-17.69 94.34,-15.21 97.82,-12.74 101.95,-10.26 106.63,-7.75 111.65,-5.24 116.5,-2.73 120.49,-0.22 123,2.26 123.86,4.74 123.51,7.21 122.82,9.67 122.84,12.09 124.56,14.53 128.51,17.09 134.45,19.97 141.35,23.2" fill="none" stroke="rgb(19, 134, 125)" stroke-width="2" stroke-linejoin="round" filter="url(#fuzzy)" /><polyline points="63.06,-38.64 61.26,-36.93 59.56,-35 58.06,-32.75 57.25,-30.32 57.06,-27.84 57.18,-25.34 57.38,-22.83 57.57,-20.31 57.73,-17.82 57.81,-15.35 57.72,-12.9 57.41,-10.44 56.83,-7.95 55.92,-5.43 54.65,-2.93 53.16,-0.44 51.72,2.02 50.63,4.49 49.75,7 48.46,9.49 46.36,11.87 45.06,14.48" fill="none" stroke="rgb(19, 134, 125)" stroke-width="2" stroke-linejoin="round" filter="url(#fuzzy)" /><polyline points="61.78,-41.38 57.08,-39.05 54.42,-36.45 53.79,-33.98 53.77,-31.64 54.42,-29.35 55.74,-27.03 57.23,-24.63 58.3,-22.12 58.61,-19.52 58.14,-16.87 57.05,-14.22 55.56,-11.58 53.85,-8.97 52.08,-6.39 50.36,-3.83 48.71,-1.3 47,1.22 45.02,3.71 42.56,6.21 39.61,8.71 36.38,11.25 33.28,13.84 30.7,16.48 28.71,19.16 27.04,21.82 25.2,24.42 22.8,26.93 19.93,29.35 17.15,31.74 15.17,34.12 14.22,36.51 13.45,38.85 11.17,40.86" fill="none" stroke="rgb(19, 134, 125)" stroke-width="2" stroke-linejoin="round" filter="url(#fuzzy)" /><polyline points="59.84,-45.22 60.58,-44.1 61.57,-42.08 62.77,-39.78 64.32,-37.47 66.34,-35.16 68.76,-32.79 71.3,-30.37 73.59,-27.89 75.4,-25.39 76.69,-22.86 77.59,-20.33 78.35,-17.81 79.24,-15.3 80.4,-12.8 81.92,-10.3 83.76,-7.78 85.84,-5.26 88.05,-2.73 90.25,-0.22 92.32,2.29 94.15,4.79 95.6,7.28 96.51,9.76 96.75,12.26 96.36,14.81 95.63,17.48 95.05,20.34 95.01,23.41 95.29,26.53 94.47,29.43" fill="none" stroke="rgb(19, 134, 125)" stroke-width="2" stroke-linejoin="round" filter="url(#fuzzy)" /><polyline points="57.07,-50.17 57.87,-48.63 58.87,-46.54 59.62,-44.39 60.14,-42.19 60.51,-39.93 60.87,-37.65 61.32,-35.34 61.96,-32.98 62.8,-30.57 63.75,-28.11 64.69,-25.62 65.49,-23.1 66.07,-20.58 66.4,-18.07 66.49,-15.57 66.38,-13.08 66.11,-10.58 65.76,-8.07 65.39,-5.55 65.04,-3.02 64.71,-0.51 64.32,1.99 63.83,4.49 63.23,6.99 62.61,9.46 62.07,11.84 61.5,14.05 60.73,15.94" fill="none" stroke="rgb(19, 134, 125)" stroke-width="2" stroke-linejoin="round" filter="url(#fuzzy)" /><polyline points="55.28,-53.06 60.5,-50.77 62.51,-48.67 62.75,-46.55 62.86,-44.38 63.46,-42.15 64.55,-39.89 65.98,-37.59 67.58,-35.25 69.24,-32.86 70.87,-30.43 72.39,-27.96 73.77,-25.45 75.02,-22.92 76.2,-20.39 77.35,-17.86 78.52,-15.34 79.71,-12.82 80.89,-10.29 82.02,-7.76 83.08,-5.23 84.07,-2.69 85,-0.17 85.84,2.36 86.56,4.87 87.13,7.39 87.56,9.91 87.89,12.47 88.19,15.07 88.48,17.75 88.76,20.48 89.02,23.21 89.33,25.82 89.73,28.17 90.02,30.26 89.78,32.33 88.98,34.4" fill="none" stroke="rgb(19, 134, 125)" stroke-width="2" stroke-linejoin="round" filter="url(#fuzzy)" /><polyline points="54.86,-53.12 55.73,-52.25 56.94,-50.61 58.22,-48.69 59.59,-46.64 61.15,-44.51 62.97,-42.31 64.99,-40.08 67.01,-37.8 68.79,-35.49 70.2,-33.14 71.29,-30.73 72.23,-28.28 73.24,-25.8 74.47,-23.29 75.94,-20.77 77.59,-18.25 79.27,-15.76 80.81,-13.27 82.07,-10.77 83,-8.26 83.66,-5.73 84.16,-3.2 84.67,-0.69 85.29,1.79 85.98,4.29 86.66,6.86 87.49,9.4 89.09,10.94" fill="none" stroke="rgb(19, 134, 125)" stroke-width="2" stroke-linejoin="round" filter="url(#fuzzy)" /><polyline points="49.06,-60.75 49.23,-62.09 50.34,-63.68 49.92,-65.28 47.95,-66.82 45.5,-68.32 43.39,-69.79 41.79,-71.22 40.49,-72.57 39.22,-73.84 37.82,-75.02 36.31,-76.1 34.75,-77.1 33.17,-78.03 31.57,-78.9 29.87,-79.72 27.97,-80.49 25.8,-81.2 23.33,-81.86 20.57,-82.44 17.58,-82.94 14.42,-83.36 11.19,-83.71 7.92,-83.98 4.66,-84.17 1.4,-84.29 -1.89,-84.32 -5.23,-84.28 -8.66,-84.16 -12.22,-83.97 -15.94,-83.69 -19.87,-83.33 -24.05,-82.89 -28.42,-82.38 -32.77,-81.82 -36.84,-81.26 -40.27,-80.77" fill="none" stroke="rgb(19, 134, 125)" stroke-width="2" stroke-linejoin="round" filter="url(#fuzzy)" /><polyline points="49.06,-60.75 62.37,-62.08 59.45,-63.67 54.67,-65.26 50.73,-66.79 47.7,-68.28 45.3,-69.75 43.39,-71.17 41.97,-72.53 41.04,-73.8 40.47,-74.98 39.99,-76.06 39.28,-77.06 38.08,-77.99 36.32,-78.86 34.06,-79.68 31.52,-80.46 28.87,-81.2 26.18,-81.87 23.42,-82.46 20.49,-82.98 17.3,-83.42 13.82,-83.78 10.11,-84.07 6.26,-84.29 2.38,-84.43 -1.52,-84.48 -5.52,-84.46 -9.85,-84.36 -14.6,-84.2 -18.68,-84.06" fill="none" stroke="rgb(19, 134, 125)" stroke-width="2" stroke-linejoin="round" filter="url(#fuzzy)" /><polyline points="38.88,-70.66 37.3,-71.88 35.58,-73.08 33.91,-74.28 32.5,-75.4 31.31,-76.44 30.17,-77.38 28.9,-78.26 27.38,-79.09 25.57,-79.89 23.5,-80.65 21.22,-81.36 18.79,-81.99 16.27,-82.55 13.69,-83.03 11.08,-83.43 8.48,-83.76 5.89,-84 3.35,-84.17 0.85,-84.26 -1.63,-84.28 -4.11,-84.22 -6.63,-84.07 -9.24,-83.86 -11.97,-83.56 -14.83,-83.18 -17.84,-82.73 -21.02,-82.2 -24.33,-81.59 -27.73,-80.9 -31.11,-80.13 -34.39,-79.26 -37.6,-78.31 -41.01,-77.29 -44.58,-76.35" fill="none" stroke="rgb(19, 134, 125)" stroke-width="2" stroke-linejoin="round" filter="url(#fuzzy)" /><polyline points="37.22,-71.94 35.53,-73.11 33.61,-74.31 31.77,-75.46 30.12,-76.49 28.53,-77.42 26.85,-78.28 25.01,-79.1 23.03,-79.9 20.98,-80.66 18.91,-81.38 16.86,-82.02 14.81,-82.58 12.72,-83.06 10.55,-83.47 8.28,-83.79 5.91,-84.05 3.49,-84.23 1.04,-84.33 -1.41,-84.35 -3.89,-84.3 -6.41,-84.17 -9.02,-83.97 -11.75,-83.69 -14.6,-83.33 -17.54,-82.89 -20.48,-82.37 -23.35,-81.81 -26.05,-81.25 -28.34,-80.77" fill="none" stroke="rgb(19, 134, 125)" stroke-width="2" stroke-linejoin="round" filter="url(#fuzzy)" /><polyline points="35.03,-73.25 33.51,-74.8 32.17,-75.93 30.56,-76.99 28.81,-78.02 26.9,-78.96 24.83,-79.79 22.67,-80.52 20.5,-81.17 18.36,-81.75 16.23,-82.29 14.09,-82.78 11.93,-83.21 9.74,-83.57 7.53,-83.87 5.28,-84.08 2.94,-84.22 0.44,-84.28 -2.3,-84.28 -5.3,-84.21 -8.5,-84.06 -11.7,-83.85 -14.53,-83.55 -17.09,-83.1" fill="none" stroke="rgb(19, 134, 125)" stroke-width="2" stroke-linejoin="round" filter="url(#fuzzy)" /><polyline points="33.66,-74.15 33.36,-75.62 31.34,-76.68 29.59,-77.54 28.13,-78.34 26.56,-79.14 24.68,-79.94 22.51,-80.71 20.17,-81.43 17.79,-82.07 15.39,-82.64 13,-83.11 10.61,-83.51 8.2,-83.84 5.79,-84.1 3.4,-84.28 1.03,-84.39 -1.33,-84.42 -3.71,-84.38 -6.17,-84.26 -8.71,-84.07 -11.35,-83.81 -14.09,-83.47 -16.92,-83.06 -19.47,-82.64" fill="none" stroke="rgb(19, 134, 125)" stroke-width="2" stroke-linejoin="round" filter="url(#fuzzy)" /><polyline points="31.3,-75.82 29.22,-77.02 27.26,-78.16 25.36,-79.15 23.51,-79.97 21.71,-80.67 19.89,-81.29 17.96,-81.86 15.91,-82.38 13.77,-82.84 11.59,-83.24 9.37,-83.57 7.08,-83.83 4.66,-84 2.05,-84.1 -0.79,-84.12 -3.86,-84.06 -7.11,-83.93 -10.49,-83.72 -13.93,-83.44 -17.37,-83.08 -20.77,-82.65 -24.14,-82.15 -27.52,-81.58 -30.97,-80.93 -34.59,-80.21 -38.41,-79.42 -42.39,-78.55 -46.46,-77.6 -50.52,-76.59 -54.59,-75.51 -58.84,-74.37 -63.38,-73.15 -68.03,-71.86 -72.33,-70.53 -76.42,-69.5" fill="none" stroke="rgb(19, 134, 125)" stroke-width="2" stroke-linejoin="round" filter="url(#fuzzy)" /><polyline points="31.3,-75.82 30.41,-77.02 27.9,-78.16 25.49,-79.14 23.45,-79.96 21.66,-80.66 19.96,-81.28 18.21,-81.85 16.32,-82.37 14.27,-82.84 12.05,-83.24 9.71,-83.58 7.31,-83.84 4.85,-84.03 2.34,-84.13 -0.24,-84.16 -2.9,-84.12 -5.64,-84 -8.47,-83.81 -11.37,-83.54 -14.33,-83.2 -17.35,-82.78 -20.4,-82.3 -23.46,-81.74 -26.53,-81.12 -29.64,-80.43 -32.86,-79.66 -36.28,-78.79 -39.81,-77.83 -42.93,-76.85 -44.75,-76" fill="none" stroke="rgb(19, 134, 125)" stroke-width="2" stroke-linejoin="round" filter="url(#fuzzy)" /><polyline points="29.19,-77.04 29.35,-78.25 28.65,-79.25 26.25,-80.06 23.47,-80.73 20.95,-81.34 18.67,-81.89 16.47,-82.41 14.21,-82.87 11.86,-83.27 9.46,-83.6 7.03,-83.85 4.58,-84.02 2.1,-84.11 -0.44,-84.12 -3.07,-84.06 -5.83,-83.93 -8.75,-83.72 -11.85,-83.43 -15.14,-83.07 -18.62,-82.63 -22.26,-82.13 -26,-81.55 -29.79,-80.9 -33.56,-80.17 -37.27,-79.37 -40.9,-78.5 -44.44,-77.55 -47.99,-76.53 -51.7,-75.45 -55.77,-74.3 -60.33,-73.09 -65.25,-71.8 -70.2,-70.45 -74.97,-69.05 -79.01,-67.42" fill="none" stroke="rgb(19, 134, 125)" stroke-width="2" stroke-linejoin="round" filter="url(#fuzzy)" /><polyline points="29.19,-77.04 27.52,-78.25 25.86,-79.25 24.05,-80.06 22.43,-80.73 20.96,-81.34 19.38,-81.89 17.51,-82.41 15.3,-82.87 12.81,-83.27 10.13,-83.6 7.34,-83.85 4.46,-84.02 1.48,-84.11 -1.63,-84.12 -4.86,-84.06 -8.19,-83.93 -11.57,-83.72 -15,-83.43 -18.48,-83.07 -22,-82.63 -25.57,-82.13 -29.13,-81.55 -32.61,-80.9 -35.97,-80.17 -39.25,-79.37 -42.59,-78.5 -46.2,-77.55 -50.29,-76.53 -54.9,-75.45 -59.89,-74.3 -64.92,-73.09 -69.65,-71.8 -74.05,-70.45 -78.48,-69.05 -83.08,-67.42" fill="none" stroke="rgb(19, 134, 125)" stroke-width="2" stroke-linejoin="round" filter="url(#fuzzy)" /><polyline points="29.19,-77.04 27.68,-78.24 26.41,-79.23 24.91,-80.03 23.3,-80.7 21.48,-81.3 19.33,-81.86 16.9,-82.38 14.33,-82.85 11.8,-83.27 9.41,-83.62 7.14,-83.89 4.9,-84.08 2.57,-84.2 0.09,-84.25 -2.57,-84.22 -5.4,-84.12 -8.36,-83.96 -11.39,-83.71 -14.45,-83.39 -17.51,-83 -20.49,-82.55 -23.1,-82.08 -24.98,-81.74" fill="none" stroke="rgb(19, 134, 125)" stroke-width="2" stroke-linejoin="round" filter="url(#fuzzy)" /><polyline points="22.11,-80.4 20.48,-80.87 18.54,-81.41 16.49,-81.96 14.35,-82.48 12.17,-82.95 10.01,-83.36 7.93,-83.69 5.94,-83.94 4.01,-84.11 2.09,-84.2 0.18,-84.23 -1.74,-84.18 -3.65,-84.06 -5.53,-83.86 -7.32,-83.59 -9.01,-83.25 -10.55,-82.84 -11.91,-82.35 -13.12,-81.81 -14.22,-81.2 -15.24,-80.55 -16.17,-79.82 -17.15,-78.94 -19.02,-77.6" fill="none" stroke="rgb(19, 134, 125)" stroke-width="2" stroke-linejoin="round" filter="url(#fuzzy)" /><polyline points="20.56,-80.8 17.85,-81.76 15.49,-82.46 13.4,-82.98 11.36,-83.38 9.22,-83.71 6.97,-83.98 4.67,-84.18 2.38,-84.3 0.11,-84.35 -2.16,-84.31 -4.47,-84.2 -6.84,-84.01 -9.26,-83.74 -11.73,-83.4 -14.25,-82.97 -16.81,-82.47 -19.41,-81.89 -22.05,-81.22 -24.72,-80.48 -27.44,-79.65 -30.22,-78.74 -33.1,-77.75 -36.13,-76.69 -39.34,-75.55 -42.74,-74.34 -46.24,-73.06 -49.72,-71.73 -53,-70.39 -55.93,-69.09 -58.47,-67.88 -60.78,-66.77 -63.22,-65.63 -66.13,-64.26 -69.39,-62.47" fill="none" stroke="rgb(19, 134, 125)" stroke-width="2" stroke-linejoin="round" filter="url(#fuzzy)" /><polyline points="16.93,-82.13 14.7,-82.57 12.25,-83.08 9.92,-83.5 7.77,-83.81 5.71,-84.03 3.6,-84.17 1.32,-84.23 -1.16,-84.22 -3.82,-84.14 -6.62,-83.99 -9.47,-83.76 -12.34,-83.45 -15.24,-83.07 -18.19,-82.62 -21.29,-82.1 -24.64,-81.51 -28.31,-80.85 -32.37,-80.12 -36.83,-79.31 -41.63,-78.43 -46.65,-77.47 -51.71,-76.45 -56.6,-75.37 -61.08,-74.22 -65.05,-73 -68.64,-71.73 -72.25,-70.42 -76.45,-69.11 -81.41,-67.92 -86.23,-67.15" fill="none" stroke="rgb(19, 134, 125)" stroke-width="2" stroke-linejoin="round" filter="url(#fuzzy)" /><polyline points="14.9,-82.45 12.09,-83.1 9.69,-83.56 7.66,-83.86 5.74,-84.07 3.72,-84.2 1.53,-84.26 -0.82,-84.25 -3.28,-84.17 -5.79,-84.01 -8.31,-83.78 -10.81,-83.47 -13.28,-83.09 -15.72,-82.64 -18.17,-82.12 -20.67,-81.54 -23.27,-80.88 -26.01,-80.15 -28.88,-79.34 -31.85,-78.46 -34.89,-77.51 -38.03,-76.49 -41.3,-75.41 -44.73,-74.27 -48.26,-73.05 -51.67,-71.77 -54.77,-70.43 -57.79,-69.04 -61.74,-67.42" fill="none" stroke="rgb(19, 134, 125)" stroke-width="2" stroke-linejoin="round" filter="url(#fuzzy)" /><polyline points="12.86,-83.24 11.19,-83.46 9.14,-83.77 6.85,-84.06 4.51,-84.28 2.16,-84.4 -0.29,-84.45 -2.94,-84.41 -5.82,-84.3 -8.89,-84.12 -12.1,-83.86 -15.37,-83.53 -18.7,-83.13 -22.18,-82.64 -25.94,-82.09 -30.17,-81.46 -35.04,-80.75 -40.56,-79.96 -46.51,-79.08 -52.41,-78.12 -57.77,-77.07 -62.69,-75.95 -68.5,-74.78 -77.48,-73.73" fill="none" stroke="rgb(19, 134, 125)" stroke-width="2" stroke-linejoin="round" filter="url(#fuzzy)" /><polyline points="4.05,-84.38 1.48,-84.55 -0.49,-84.55 -2.44,-84.47 -4.45,-84.33 -6.54,-84.1 -8.7,-83.8 -10.93,-83.42 -13.19,-82.96 -15.48,-82.42 -17.83,-81.81 -20.26,-81.11 -22.8,-80.32 -25.46,-79.46 -28.22,-78.51 -31.05,-77.49 -33.93,-76.39 -36.85,-75.23 -39.8,-74.01 -42.75,-72.74 -45.67,-71.44 -48.45,-70.14 -51.02,-68.82 -53.35,-67.49 -55.49,-66.12 -57.56,-64.65 -59.71,-63.05 -62.05,-61.29 -64.64,-59.41 -67.42,-57.44 -70.27,-55.46 -73.07,-53.51 -75.86,-51.53 -78.93,-49.39 -82.44,-47 -85.12,-45.28" fill="none" stroke="rgb(19, 134, 125)" stroke-width="2" stroke-linejoin="round" filter="url(#fuzzy)" /><polyline points="0.4,-84.72 -0.57,-84.61 -2.23,-84.51 -4.08,-84.36 -5.86,-84.14 -7.32,-83.84 -8.36,-83.46 -9.05,-83 -9.57,-82.47 -10.14,-81.85 -10.93,-81.16 -12.06,-80.38 -13.55,-79.53 -15.39,-78.59 -17.51,-77.57 -19.79,-76.49 -22.05,-75.33 -24.05,-74.11 -25.6,-72.83 -26.55,-71.53 -26.83,-70.22 -26.51,-68.93 -25.77,-67.66 -24.83,-66.37 -23.88,-65 -22.94,-63.45 -21.81,-61.67 -20.15,-59.66 -17.78,-57.52 -15.11,-55.44 -13.1,-53.73" fill="none" stroke="rgb(19, 134, 125)" stroke-width="2" stroke-linejoin="round" filter="url(#fuzzy)" /><polyline points="0.4,-84.72 -0.78,-84.61 -2.88,-84.5 -5.2,-84.35 -7.56,-84.13 -10.05,-83.83 -12.84,-83.45 -16.12,-82.98 -19.94,-82.44 -24.26,-81.82 -28.91,-81.12 -33.7,-80.34 -38.43,-79.47 -42.98,-78.53 -47.28,-77.51 -51.38,-76.41 -55.38,-75.24 -59.36,-74.02 -63.35,-72.75 -67.27,-71.45 -71.01,-70.15 -74.45,-68.84 -77.63,-67.52 -80.72,-66.17 -84,-64.72 -87.71,-63.12 -91.96,-61.36 -96.73,-59.46 -102,-57.47 -107.95,-55.5 -114.76,-53.6 -121.98,-51.72 -128.25,-49.46 -133.52,-45.6" fill="none" stroke="rgb(19, 134, 125)" stroke-width="2" stroke-linejoin="round" filter="url(#fuzzy)" /><polyline points="1.49,-84.47 -0.87,-84.39 -3.32,-84.28 -5.93,-84.1 -8.55,-83.84 -11.14,-83.49 -13.76,-83.07 -16.49,-82.58 -19.37,-82.03 -22.36,-81.4 -25.35,-80.71 -28.28,-79.94 -31.09,-79.09 -33.75,-78.18 -36.29,-77.19 -38.75,-76.14 -41.22,-75.02 -43.83,-73.84 -46.71,-72.61 -49.95,-71.3 -53.54,-69.94 -57.42,-68.49 -61.43,-66.96 -65.47,-65.34 -69.5,-63.65 -73.57,-61.92 -77.79,-60.21 -82.18,-58.5 -86.45,-56.71 -90.16,-54.77 -93.88,-52.44" fill="none" stroke="rgb(19, 134, 125)" stroke-width="2" stroke-linejoin="round" filter="url(#fuzzy)" />
    </g>
    
        <g id="lineNose">
        <path d="M -8.71,3.38 Q 10.12, 11.25 0.7049999999999992, -4.7540000000000004" fill="none" stroke="black" stroke-width="3" stroke-linejoin="round" filter="url(#fuzzy)"></path>
        </g>
      
    <g id="mouth">
      <polyline points="-65.62,30.05 -65.13,31.24 -64.59,32.4 -64,33.54 -63.37,34.66 -62.69,35.75 -61.97,36.82 -61.21,37.87 -60.41,38.89 -59.57,39.89 -58.68,40.87 -57.76,41.83 -56.8,42.76 -55.81,43.66 -54.78,44.55 -53.71,45.41 -52.61,46.24 -51.48,47.06 -50.32,47.85 -49.12,48.62 -47.9,49.36 -46.65,50.08 -45.36,50.78 -44.06,51.46 -42.72,52.11 -41.36,52.74 -39.98,53.35 -38.57,53.94 -37.14,54.5 -35.69,55.04 -34.22,55.55 -32.72,56.05 -31.21,56.52 -29.69,56.97 -28.14,57.39 -26.58,57.8 -25.01,58.18 -23.42,58.54 -21.82,58.87 -20.2,59.19 -18.58,59.48 -16.95,59.74 -15.3,59.99 -13.65,60.22 -11.99,60.42 -10.33,60.6 -8.65,60.75 -6.98,60.89 -5.3,61 -3.62,61.09 -1.94,61.16 -0.25,61.21 1.43,61.23 3.11,61.23 4.79,61.21 6.47,61.17 8.14,61.11 9.8,61.02 11.46,60.92 13.12,60.79 14.76,60.64 16.4,60.46 18.03,60.27 19.65,60.05 21.25,59.81 22.84,59.55 24.42,59.27 25.98,58.97 27.53,58.65 29.06,58.3 30.58,57.93 32.08,57.55 33.55,57.13 35.01,56.7 36.44,56.25 37.86,55.78 39.25,55.28 40.61,54.76 41.96,54.23 43.27,53.67 44.56,53.09 45.82,52.48 47.05,51.86 48.25,51.22 49.43,50.55 50.57,49.87 51.67,49.16 52.75,48.43 53.79,47.68 54.79,46.91 55.76,46.12 56.69,45.31 57.58,44.48 58.43,43.62 59.25,42.75 60.02,41.85 60.75,40.94 61.44,40 62.08,39.05 62.68,38.07 63.23,37.07 62.68,38.07 62.08,39.05 61.44,40 60.75,40.94 60.02,41.85 59.25,42.75 58.43,43.62 57.58,44.48 56.69,45.31 55.76,46.12 54.79,46.91 53.79,47.68 52.75,48.43 51.67,49.16 50.57,49.87 49.43,50.55 48.25,51.22 47.05,51.86 45.82,52.48 44.56,53.09 43.27,53.67 41.96,54.23 40.61,54.76 39.25,55.28 37.86,55.78 36.44,56.25 35.01,56.7 33.55,57.13 32.08,57.55 30.58,57.93 29.06,58.3 27.53,58.65 25.98,58.97 24.42,59.27 22.84,59.55 21.25,59.81 19.65,60.05 18.03,60.27 16.4,60.46 14.76,60.64 13.12,60.79 11.46,60.92 9.8,61.02 8.14,61.11 6.47,61.17 4.79,61.21 3.11,61.23 1.43,61.23 -0.25,61.21 -1.94,61.16 -3.62,61.09 -5.3,61 -6.98,60.89 -8.65,60.75 -10.33,60.6 -11.99,60.42 -13.65,60.22 -15.3,59.99 -16.95,59.74 -18.58,59.48 -20.2,59.19 -21.82,58.87 -23.42,58.54 -25.01,58.18 -26.58,57.8 -28.14,57.39 -29.69,56.97 -31.21,56.52 -32.72,56.05 -34.22,55.55 -35.69,55.04 -37.14,54.5 -38.57,53.94 -39.98,53.35 -41.36,52.74 -42.72,52.11 -44.06,51.46 -45.36,50.78 -46.65,50.08 -47.9,49.36 -49.12,48.62 -50.32,47.85 -51.48,47.06 -52.61,46.24 -53.71,45.41 -54.78,44.55 -55.81,43.66 -56.8,42.76 -57.76,41.83 -58.68,40.87 -59.57,39.89 -60.41,38.89 -61.21,37.87 -61.97,36.82 -62.69,35.75 -63.37,34.66 -64,33.54 -64.59,32.4 -65.13,31.24" fill="rgb(204, 197, 102)" stroke="black" stroke-width="3" stroke-linejoin="round" filter="url(#fuzzy)" />
    </g>
  </svg>