<svg viewBox="-100 -100 200 200" xmlns="http://www.w3.org/2000/svg" width="500" height="500" id="face-svg">
    <defs>
      <clipPath id="leftEyeClipPath">
        <polyline points="33.98,-8.88 33.52,-9.11 33.04,-9.34 32.54,-9.58 32,-9.81 31.44,-10.04 30.86,-10.26 30.25,-10.48 29.62,-10.69 28.97,-10.9 28.3,-11.1 27.6,-11.29 26.89,-11.47 26.16,-11.64 25.42,-11.81 24.65,-11.96 23.83,-12.24 22.98,-12.49 22.11,-12.73 21.21,-12.94 20.29,-13.13 19.35,-13.29 18.4,-13.43 17.42,-13.55 16.43,-13.64 15.43,-13.71 14.42,-13.76 13.41,-13.78 12.39,-13.79 11.36,-13.77 10.34,-13.73 9.31,-13.67 8.29,-13.59 7.28,-13.49 6.27,-13.37 5.27,-13.24 4.29,-13.08 3.31,-12.92 2.35,-12.73 1.41,-12.53 0.49,-12.32 -0.42,-12.1 -1.31,-11.86 -2.17,-11.61 -3.02,-11.35 -3.84,-11.08 -4.63,-10.8 -5.4,-10.51 -6.15,-10.22 -6.87,-9.91 -7.57,-9.59 -8.23,-9.27 -8.88,-8.94 -9.49,-8.61 -10.08,-8.26 -10.65,-7.91 -11.18,-7.56 -11.7,-7.2 -12.19,-6.83 -12.65,-6.45 -13.1,-6.07 -13.52,-5.69 -13.92,-5.3 -14.3,-4.9 -14.66,-4.5 -15,-4.09 -15.33,-3.67 -15.64,-3.24 -15.93,-2.81 -16.2,-2.37 -16.46,-1.92 -16.71,-1.46 -16.93,-1 -17.15,-0.52 -17.35,-0.04 -17.53,0.45 -17.71,0.95 -17.87,1.46 -18.02,1.98 -18.15,2.51 -18.45,3.75 -18.28,4.15 -18.09,4.56 -17.9,4.96 -17.69,5.37 -17.47,5.77 -17.25,6.17 -17.01,6.57 -16.76,6.96 -16.49,7.35 -16.22,7.74 -15.93,8.11 -15.63,8.48 -15.31,8.84 -14.98,9.19 -14.64,9.53 -14.28,9.86 -13.91,10.19 -13.52,10.51 -13.11,10.82 -12.68,11.11 -12.23,11.39 -11.77,11.65 -11.28,11.89 -10.77,12.11 -10.24,12.31 -9.69,12.49 -9.12,12.64 -8.52,12.77 -7.9,12.87 -7.26,12.95 -6.6,12.99 -5.91,13.01 -5.2,13 -4.47,12.96 -3.71,12.89 -2.94,12.79 -2.14,12.66 -1.32,12.51 -0.49,12.32 0.37,12.11 1.24,11.88 2.13,11.61 3.04,11.33 3.96,11.02 4.89,10.69 5.84,10.33 6.8,9.96 7.76,9.57 8.74,9.17 9.72,8.76 10.7,8.33 11.69,7.89 12.68,7.45 13.66,7 14.65,6.55 15.63,6.1 16.61,5.64 17.57,5.2 18.53,4.76 19.47,4.32 20.41,3.9 21.32,3.49 22.22,3.1 23.1,2.71 23.88,2.34 24.65,1.96 25.41,1.59 26.15,1.23 26.88,0.87 27.59,0.52 28.28,0.18 28.96,-0.15 29.61,-0.48 30.25,-0.8 30.86,-1.1 31.45,-1.4 32.02,-1.69 32.55,-1.97 33.07,-2.24" />
      </clipPath>
      <clipPath id="rightEyeClipPath">
        <polyline points="-36.69,-11.44 -36.34,-11.7 -35.96,-11.95 -35.55,-12.2 -35.11,-12.45 -34.65,-12.7 -34.16,-12.94 -33.64,-13.18 -33.1,-13.41 -32.54,-13.63 -31.95,-13.85 -31.33,-14.05 -30.69,-14.25 -30.04,-14.44 -29.35,-14.61 -28.65,-14.78 -27.95,-15.08 -27.22,-15.36 -26.44,-15.61 -25.63,-15.84 -24.79,-16.05 -23.92,-16.23 -23.01,-16.38 -22.08,-16.51 -21.12,-16.61 -20.14,-16.68 -19.14,-16.73 -18.13,-16.76 -17.09,-16.76 -16.05,-16.74 -14.99,-16.69 -13.93,-16.62 -12.87,-16.53 -11.8,-16.42 -10.73,-16.29 -9.66,-16.14 -8.6,-15.98 -7.55,-15.79 -6.5,-15.59 -5.47,-15.38 -4.45,-15.15 -3.44,-14.9 -2.46,-14.65 -1.49,-14.38 -0.54,-14.1 0.38,-13.81 1.29,-13.51 2.17,-13.2 3.02,-12.88 3.85,-12.55 4.65,-12.22 5.42,-11.87 6.17,-11.53 6.89,-11.17 7.58,-10.81 8.24,-10.44 8.88,-10.07 9.49,-9.69 10.07,-9.31 10.63,-8.92 11.16,-8.52 11.67,-8.13 12.16,-7.72 12.62,-7.31 13.06,-6.9 13.48,-6.47 13.89,-6.05 14.27,-5.61 14.64,-5.17 14.98,-4.72 15.31,-4.27 15.63,-3.8 15.92,-3.33 16.2,-2.85 16.46,-2.36 16.71,-1.87 16.95,-1.36 17.17,-0.85 17.37,-0.33 17.57,0.2 18.63,4.51 18.51,5.02 18.38,5.54 18.25,6.06 18.1,6.57 17.95,7.09 17.79,7.6 17.62,8.11 17.44,8.61 17.25,9.1 17.05,9.59 16.85,10.07 16.63,10.54 16.4,10.99 16.15,11.43 15.9,11.87 15.64,12.29 15.36,12.71 15.07,13.11 14.76,13.5 14.44,13.87 14.1,14.21 13.75,14.54 13.37,14.84 12.98,15.11 12.57,15.36 12.13,15.57 11.68,15.76 11.21,15.91 10.71,16.02 10.19,16.1 9.65,16.15 9.08,16.15 8.49,16.12 7.88,16.05 7.24,15.95 6.58,15.8 5.89,15.62 5.18,15.4 4.45,15.15 3.69,14.86 2.91,14.54 2.1,14.18 1.28,13.79 0.42,13.38 -0.45,12.93 -1.34,12.47 -2.25,11.97 -3.19,11.46 -4.14,10.93 -5.11,10.38 -6.09,9.82 -7.09,9.25 -8.11,8.67 -9.13,8.08 -10.17,7.5 -11.22,6.91 -12.27,6.33 -13.33,5.76 -14.4,5.19 -15.46,4.64 -16.53,4.11 -17.59,3.59 -18.65,3.09 -19.71,2.61 -20.59,2.13 -21.47,1.66 -22.34,1.19 -23.2,0.74 -24.05,0.29 -24.89,-0.15 -25.72,-0.57 -26.54,-0.98 -27.34,-1.39 -28.12,-1.77 -28.89,-2.15 -29.63,-2.51 -30.35,-2.86 -31.04,-3.19 -31.71,-3.51" />
      </clipPath>
      <filter id="fuzzy">
        <feTurbulence id="turbulence" baseFrequency="0.05" numOctaves="3" type="noise" result="noise" />
        <feDisplacementMap in="SourceGraphic" in2="noise" scale="2" />
      </filter>
      <linearGradient id="rainbowGradient" x1="0%" y1="0%" x2="100%" y2="0%">
        <stop offset="0%" style="stop-color: rgb(139, 2, 134); stop-opacity: 1" />
        <stop offset="50%" style="stop-color: rgb(219, 154, 99); stop-opacity: 1" />
        <stop offset="100%" style="stop-color: rgb(241, 150, 113); stop-opacity: 1" />
      </linearGradient>
    </defs>
    <rect x="-100" y="-100" width="100%" height="100%" fill="rgb(236, 242, 166)" />
    <polyline id="faceContour" points="63.46,0.14 63.29,2.1 63.44,1.66 63.24,3.93 63.06,5.68 63.08,6.3 63.1,8.49 62.84,11.04 62.77,10.7 62.47,12.75 62.6,12.58 62.27,15.56 62.29,14.8 62.31,15.03 61.34,20.02 61.77,18.93 61.51,20.07 60.91,22.51 60.72,23.84 60.75,23.12 60.01,26.7 59.9,26.75 59.49,28.17 59.33,29.33 58.89,29.96 58.39,31.73 58.31,32.71 57.87,33.49 57.27,34.86 57.26,35.86 56.45,37.7 55.68,39.4 55.63,40.08 55.16,40.58 54.48,42.14 53.87,43.69 53.54,44.61 52.72,46.09 52.09,47.05 51.26,48.69 50.61,49.81 50.11,50.64 50.06,50.66 48.94,52.44 49.18,52.15 47.92,54.17 47.79,54.4 47.61,55.03 46.07,56.65 46.19,57.01 44.57,59.04 43.53,60.19 43.65,59.98 42.8,61.02 41.71,62.68 41.2,63.26 40.4,64.04 38.7,65.53 38.89,65.3 39.25,65.13 36.89,67.51 36.41,67.76 36.06,68.29 34.16,69.73 33.21,70.91 33.09,70.96 32.44,71.11 31.05,72.25 30.36,73.07 29.34,73.51 28.85,73.78 26.91,75.23 26.73,75.4 25.04,76.2 24.64,76.47 24.86,76.39 23.83,77.02 23.68,77.09 21.01,78.19 20.91,78.25 19.47,78.77 17.69,79.52 17.43,79.65 16.5,80.25 16.53,80.24 15.08,80.62 14.28,80.98 13.19,81.12 11.69,81.8 10.21,82.01 9.29,81.94 7.98,82.49 8.67,82.18 6.81,82.68 4.74,82.87 4.29,83 5.32,82.67 1.07,83.07 1.61,83.01 0.57,82.83 -1.04,82.96 -2.07,82.84 -3.05,83.02 -4.32,82.8 -2.99,82.8 -3.26,82.86 -5.95,82.79 -7.53,82.31 -7.5,82.48 -9.6,82.16 -10.91,81.92 -12.52,81.42 -11.93,81.74 -12.73,81.37 -13.79,80.97 -15.81,80.5 -16.49,79.97 -16.52,80.04 -16.34,80.2 -19.85,78.72 -19.4,79.07 -20.57,78.34 -20.36,78.57 -22.62,77.58 -23.31,77.11 -23.8,76.66 -25.27,75.86 -25.86,75.55 -26.84,74.9 -27.62,74.69 -28.54,74.06 -30.16,72.78 -30.23,72.92 -30.23,72.96 -31.75,71.73 -33.91,70.12 -34.53,69.57 -34.77,69.41 -35.41,68.67 -36.69,67.74 -38.39,65.73 -37.21,67.03 -38.88,65.37 -39.85,64.39 -39.46,65.12 -40.74,63.57 -41.94,62.31 -42.05,62.15 -43.81,59.6 -44.59,58.67 -44.75,58.53 -45.15,57.98 -45.31,57.91 -47.38,55.02 -46.71,55.78 -48.2,53.92 -48,53.73 -49.25,51.86 -49.85,51.02 -50.72,50.03 -50.57,49.68 -52.36,46.62 -52.22,47.02 -53.46,44.39 -53.54,44.57 -54.13,43.03 -54.25,42.71 -54.72,41.8 -55.11,41.2 -55.77,39.14 -55.68,39.22 -56.71,36.7 -57.44,34.93 -57.48,34.06 -57.99,33.23 -58.32,31.96 -59.13,29.16 -58.75,30.44 -59.6,28.05 -59.68,27.39 -60.2,26.19 -60.56,24.13 -60.18,24.98 -60.55,23.85 -61.33,20.08 -61.48,18.71 -61.93,17.38 -61.66,18.4 -62.4,14.2 -62.26,15.25 -62.68,10.85 -62.69,11.76 -62.54,11.06 -62.77,9.12 -62.79,9.74 -63.23,5.54 -63.11,4.72 -63.08,3.83 -63.37,1.68 -63.25,1.8 -63.25,-0.43 -63.26,-1.91 -63.06,-2.45 -63.25,-3.6 -63.27,-5.25 -62.88,-7.48 -62.84,-7.61 -62.81,-8.4 -62.83,-9.87 -62.59,-11.33 -62.51,-13.94 -62.26,-14.41 -62.24,-13.62 -61.75,-17.68 -61.68,-18.89 -61.23,-20.64 -60.96,-21.81 -61.23,-21.12 -60.85,-22.11 -60.45,-24.86 -60.07,-26.26 -60.07,-26.34 -59.71,-27.55 -58.82,-29.94 -58.51,-31.32 -58.36,-31.7 -58.15,-32.55 -57.4,-34.38 -57.72,-33.71 -56.94,-36.12 -55.72,-39.42 -56.06,-38.3 -55.75,-39.23 -55.25,-40.37 -53.49,-44.54 -53.29,-44.66 -53.52,-44.25 -53.1,-45.04 -52.14,-46.62 -51.8,-47.9 -51.91,-47.25 -50.27,-50.38 -50.1,-51.01 -49.6,-51.39 -48.27,-53.8 -47.8,-54.45 -46.73,-56.32 -47.3,-55.03 -45.47,-57.53 -45.77,-57.66 -43.54,-60.26 -44.6,-59.05 -43.17,-60.77 -43.46,-60.36 -42.02,-62.18 -41.04,-63.22 -40.81,-63.39 -39.84,-64.33 -38.62,-65.69 -39.05,-65.21 -36.29,-68.28 -35.76,-68.34 -36.13,-68.1 -35.29,-68.74 -34.27,-69.77 -32.22,-71.4 -32.01,-71.62 -31.99,-71.43 -30.31,-72.76 -29.17,-73.59 -28.56,-74.22 -28.8,-74.14 -25.96,-75.73 -24.53,-76.29 -25.06,-76.12 -24.77,-76.39 -23.92,-76.93 -22.45,-77.72 -21.35,-78.03 -19.89,-78.63 -19.8,-78.77 -18.76,-79.15 -18.04,-79.77 -15.43,-80.65 -15.31,-80.35 -14.21,-81.04 -14.56,-80.6 -13.33,-81.06 -11.79,-81.39 -10.91,-81.86 -9.05,-82.07 -8.03,-82.43 -8.3,-82.16 -6.88,-82.5 -5.91,-82.76 -4.22,-82.63 -3.4,-82.95 -2.68,-82.79 -3.19,-82.88 -0.01,-83.05 0.18,-83.12 1.71,-82.96 3.27,-82.99 2.52,-83.08 3.77,-82.73 4.28,-83 6.74,-82.59 6.52,-82.71 7.61,-82.46 8.49,-82.3 9.46,-81.92 11.89,-81.6 11.16,-81.62 12.96,-81.3 13.08,-81.11 15.48,-80.7 14.41,-80.64 17.32,-79.84 16.53,-79.99 17.9,-79.39 19.75,-78.73 20.92,-78.52 22.41,-77.57 21.95,-77.96 23.25,-77.36 23.81,-77.11 25.63,-75.96 25.92,-75.89 27.11,-74.88 28.59,-74.09 28.53,-74.06 28.98,-73.64 30.4,-72.8 30.71,-72.59 32.36,-71.4 33.86,-70 33.14,-70.58 34.21,-69.67 36.63,-67.63 35.45,-68.83 38.2,-66.12 37.25,-66.96 38.86,-65.63 40.17,-64.06 40.14,-64.22 41.37,-62.98 42.7,-61.36 42.52,-61.63 42.55,-61.78 43.51,-60.12 44.18,-59.66 46.21,-56.68 46.25,-56.59 46.97,-55.75 47.11,-55.41 47.81,-54.26 48.26,-54.02 48.99,-52.71 49.49,-51.97 50.37,-50.63 51.24,-48.72 51.62,-48.08 52.23,-46.97 53.19,-45.37 54.26,-42.99 53.41,-44.94 54.28,-42.65 54.38,-42.62 55.62,-39.85 55.94,-39.21 56.04,-38.39 56.59,-36.84 57.11,-35.95 57.5,-34.92 58.61,-31.65 58.55,-31.71 59.07,-29.68 59.4,-28.18 60.22,-26.08 60.06,-25.62 60.12,-26.24 60.41,-25.39 60.83,-23.54 60.99,-21.67 61.35,-19.95 61.35,-20.21 61.77,-17.15 61.77,-17.46 62.43,-14.25 62.07,-15.98 62.55,-13.44 62.57,-13.61 62.68,-11.59 63.09,-8.7 63.17,-7.12 63.01,-7.32 63.2,-4.21 63.29,-4.43 63.18,-2.77 63.35,0 63.46,0.14 63.29,2.1" fill="rgb(46, 32, 223)" stroke="black" stroke-width="1.6666666666666665" stroke-linejoin="round" filter="url(#fuzzy)" />
    <g transform="translate(26.22 -23.13)">
      <polyline id="rightCountour" points="-36.69,-11.44 -36.34,-11.7 -35.96,-11.95 -35.55,-12.2 -35.11,-12.45 -34.65,-12.7 -34.16,-12.94 -33.64,-13.18 -33.1,-13.41 -32.54,-13.63 -31.95,-13.85 -31.33,-14.05 -30.69,-14.25 -30.04,-14.44 -29.35,-14.61 -28.65,-14.78 -27.95,-15.08 -27.22,-15.36 -26.44,-15.61 -25.63,-15.84 -24.79,-16.05 -23.92,-16.23 -23.01,-16.38 -22.08,-16.51 -21.12,-16.61 -20.14,-16.68 -19.14,-16.73 -18.13,-16.76 -17.09,-16.76 -16.05,-16.74 -14.99,-16.69 -13.93,-16.62 -12.87,-16.53 -11.8,-16.42 -10.73,-16.29 -9.66,-16.14 -8.6,-15.98 -7.55,-15.79 -6.5,-15.59 -5.47,-15.38 -4.45,-15.15 -3.44,-14.9 -2.46,-14.65 -1.49,-14.38 -0.54,-14.1 0.38,-13.81 1.29,-13.51 2.17,-13.2 3.02,-12.88 3.85,-12.55 4.65,-12.22 5.42,-11.87 6.17,-11.53 6.89,-11.17 7.58,-10.81 8.24,-10.44 8.88,-10.07 9.49,-9.69 10.07,-9.31 10.63,-8.92 11.16,-8.52 11.67,-8.13 12.16,-7.72 12.62,-7.31 13.06,-6.9 13.48,-6.47 13.89,-6.05 14.27,-5.61 14.64,-5.17 14.98,-4.72 15.31,-4.27 15.63,-3.8 15.92,-3.33 16.2,-2.85 16.46,-2.36 16.71,-1.87 16.95,-1.36 17.17,-0.85 17.37,-0.33 17.57,0.2 18.63,4.51 18.51,5.02 18.38,5.54 18.25,6.06 18.1,6.57 17.95,7.09 17.79,7.6 17.62,8.11 17.44,8.61 17.25,9.1 17.05,9.59 16.85,10.07 16.63,10.54 16.4,10.99 16.15,11.43 15.9,11.87 15.64,12.29 15.36,12.71 15.07,13.11 14.76,13.5 14.44,13.87 14.1,14.21 13.75,14.54 13.37,14.84 12.98,15.11 12.57,15.36 12.13,15.57 11.68,15.76 11.21,15.91 10.71,16.02 10.19,16.1 9.65,16.15 9.08,16.15 8.49,16.12 7.88,16.05 7.24,15.95 6.58,15.8 5.89,15.62 5.18,15.4 4.45,15.15 3.69,14.86 2.91,14.54 2.1,14.18 1.28,13.79 0.42,13.38 -0.45,12.93 -1.34,12.47 -2.25,11.97 -3.19,11.46 -4.14,10.93 -5.11,10.38 -6.09,9.82 -7.09,9.25 -8.11,8.67 -9.13,8.08 -10.17,7.5 -11.22,6.91 -12.27,6.33 -13.33,5.76 -14.4,5.19 -15.46,4.64 -16.53,4.11 -17.59,3.59 -18.65,3.09 -19.71,2.61 -20.59,2.13 -21.47,1.66 -22.34,1.19 -23.2,0.74 -24.05,0.29 -24.89,-0.15 -25.72,-0.57 -26.54,-0.98 -27.34,-1.39 -28.12,-1.77 -28.89,-2.15 -29.63,-2.51 -30.35,-2.86 -31.04,-3.19 -31.71,-3.51" fill="white" stroke="white" stroke-width="0" stroke-linejoin="round" filter="url(#fuzzy)" />
    </g>
    <g transform="translate(-27.509999999999998 -21.21)">
      <polyline id="leftCountour" points="33.98,-8.88 33.52,-9.11 33.04,-9.34 32.54,-9.58 32,-9.81 31.44,-10.04 30.86,-10.26 30.25,-10.48 29.62,-10.69 28.97,-10.9 28.3,-11.1 27.6,-11.29 26.89,-11.47 26.16,-11.64 25.42,-11.81 24.65,-11.96 23.83,-12.24 22.98,-12.49 22.11,-12.73 21.21,-12.94 20.29,-13.13 19.35,-13.29 18.4,-13.43 17.42,-13.55 16.43,-13.64 15.43,-13.71 14.42,-13.76 13.41,-13.78 12.39,-13.79 11.36,-13.77 10.34,-13.73 9.31,-13.67 8.29,-13.59 7.28,-13.49 6.27,-13.37 5.27,-13.24 4.29,-13.08 3.31,-12.92 2.35,-12.73 1.41,-12.53 0.49,-12.32 -0.42,-12.1 -1.31,-11.86 -2.17,-11.61 -3.02,-11.35 -3.84,-11.08 -4.63,-10.8 -5.4,-10.51 -6.15,-10.22 -6.87,-9.91 -7.57,-9.59 -8.23,-9.27 -8.88,-8.94 -9.49,-8.61 -10.08,-8.26 -10.65,-7.91 -11.18,-7.56 -11.7,-7.2 -12.19,-6.83 -12.65,-6.45 -13.1,-6.07 -13.52,-5.69 -13.92,-5.3 -14.3,-4.9 -14.66,-4.5 -15,-4.09 -15.33,-3.67 -15.64,-3.24 -15.93,-2.81 -16.2,-2.37 -16.46,-1.92 -16.71,-1.46 -16.93,-1 -17.15,-0.52 -17.35,-0.04 -17.53,0.45 -17.71,0.95 -17.87,1.46 -18.02,1.98 -18.15,2.51 -18.45,3.75 -18.28,4.15 -18.09,4.56 -17.9,4.96 -17.69,5.37 -17.47,5.77 -17.25,6.17 -17.01,6.57 -16.76,6.96 -16.49,7.35 -16.22,7.74 -15.93,8.11 -15.63,8.48 -15.31,8.84 -14.98,9.19 -14.64,9.53 -14.28,9.86 -13.91,10.19 -13.52,10.51 -13.11,10.82 -12.68,11.11 -12.23,11.39 -11.77,11.65 -11.28,11.89 -10.77,12.11 -10.24,12.31 -9.69,12.49 -9.12,12.64 -8.52,12.77 -7.9,12.87 -7.26,12.95 -6.6,12.99 -5.91,13.01 -5.2,13 -4.47,12.96 -3.71,12.89 -2.94,12.79 -2.14,12.66 -1.32,12.51 -0.49,12.32 0.37,12.11 1.24,11.88 2.13,11.61 3.04,11.33 3.96,11.02 4.89,10.69 5.84,10.33 6.8,9.96 7.76,9.57 8.74,9.17 9.72,8.76 10.7,8.33 11.69,7.89 12.68,7.45 13.66,7 14.65,6.55 15.63,6.1 16.61,5.64 17.57,5.2 18.53,4.76 19.47,4.32 20.41,3.9 21.32,3.49 22.22,3.1 23.1,2.71 23.88,2.34 24.65,1.96 25.41,1.59 26.15,1.23 26.88,0.87 27.59,0.52 28.28,0.18 28.96,-0.15 29.61,-0.48 30.25,-0.8 30.86,-1.1 31.45,-1.4 32.02,-1.69 32.55,-1.97 33.07,-2.24" fill="white" stroke="white" stroke-width="0" stroke-linejoin="round" filter="url(#fuzzy)" />
    </g>
    <g transform="translate(26.22 -23.13)">
      <polyline id="rightUpper" points="-38.67,-9.34 -38.6,-9.49 -38.5,-9.65 -38.37,-9.84 -38.21,-10.04 -38.03,-10.25 -37.82,-10.47 -37.58,-10.71 -37.31,-10.95 -37.01,-11.19 -36.69,-11.44 -36.34,-11.7 -35.96,-11.95 -35.55,-12.2 -35.11,-12.45 -34.65,-12.7 -34.16,-12.94 -33.64,-13.18 -33.1,-13.41 -32.54,-13.63 -31.95,-13.85 -31.33,-14.05 -30.69,-14.25 -30.04,-14.44 -29.35,-14.61 -28.65,-14.78 -27.95,-15.08 -27.22,-15.36 -26.44,-15.61 -25.63,-15.84 -24.79,-16.05 -23.92,-16.23 -23.01,-16.38 -22.08,-16.51 -21.12,-16.61 -20.14,-16.68 -19.14,-16.73 -18.13,-16.76 -17.09,-16.76 -16.05,-16.74 -14.99,-16.69 -13.93,-16.62 -12.87,-16.53 -11.8,-16.42 -10.73,-16.29 -9.66,-16.14 -8.6,-15.98 -7.55,-15.79 -6.5,-15.59 -5.47,-15.38 -4.45,-15.15 -3.44,-14.9 -2.46,-14.65 -1.49,-14.38 -0.54,-14.1 0.38,-13.81 1.29,-13.51 2.17,-13.2 3.02,-12.88 3.85,-12.55 4.65,-12.22 5.42,-11.87 6.17,-11.53 6.89,-11.17 7.58,-10.81 8.24,-10.44 8.88,-10.07 9.49,-9.69 10.07,-9.31 10.63,-8.92 11.16,-8.52 11.67,-8.13 12.16,-7.72 12.62,-7.31 13.06,-6.9 13.48,-6.47 13.89,-6.05 14.27,-5.61 14.64,-5.17 14.98,-4.72 15.31,-4.27 15.63,-3.8 15.92,-3.33 16.2,-2.85 16.46,-2.36 16.71,-1.87 16.95,-1.36 17.17,-0.85 17.37,-0.33 17.57,0.2 17.75,0.74 17.92,1.29 18.08,1.84 18.22,2.41 18.36,2.98 18.49,3.56 18.61,4.15 18.72,4.75 18.82,5.36 18.91,5.97" fill="none" stroke="black" stroke-width="1.6666666666666665" stroke-linejoin="round" filter="url(#fuzzy)" />
      <polyline id="rightLower" points="-36.46,-5.9 -36.18,-5.72 -35.85,-5.53 -35.47,-5.33 -35.05,-5.11 -34.59,-4.88 -34.08,-4.64 -33.54,-4.38 -32.96,-4.1 -32.35,-3.81 -31.71,-3.51 -31.04,-3.19 -30.35,-2.86 -29.63,-2.51 -28.89,-2.15 -28.12,-1.77 -27.34,-1.39 -26.54,-0.98 -25.72,-0.57 -24.89,-0.15 -24.05,0.29 -23.2,0.74 -22.34,1.19 -21.47,1.66 -20.59,2.13 -19.71,2.61 -18.65,3.09 -17.59,3.59 -16.53,4.11 -15.46,4.64 -14.4,5.19 -13.33,5.76 -12.27,6.33 -11.22,6.91 -10.17,7.5 -9.13,8.08 -8.11,8.67 -7.09,9.25 -6.09,9.82 -5.11,10.38 -4.14,10.93 -3.19,11.46 -2.25,11.97 -1.34,12.47 -0.45,12.93 0.42,13.38 1.28,13.79 2.1,14.18 2.91,14.54 3.69,14.86 4.45,15.15 5.18,15.4 5.89,15.62 6.58,15.8 7.24,15.95 7.88,16.05 8.49,16.12 9.08,16.15 9.65,16.15 10.19,16.1 10.71,16.02 11.21,15.91 11.68,15.76 12.13,15.57 12.57,15.36 12.98,15.11 13.37,14.84 13.75,14.54 14.1,14.21 14.44,13.87 14.76,13.5 15.07,13.11 15.36,12.71 15.64,12.29 15.9,11.87 16.15,11.43 16.4,10.99 16.63,10.54 16.85,10.07 17.05,9.59 17.25,9.1 17.44,8.61 17.62,8.11 17.79,7.6 17.95,7.09 18.1,6.57 18.25,6.06 18.38,5.54 18.51,5.02 18.63,4.51 18.75,3.99 18.86,3.48 18.96,2.97 19.06,2.46 19.15,1.96 19.24,1.46 19.32,0.97 19.4,0.49 19.47,0.01 19.54,-0.47" fill="none" stroke="black" stroke-width="2.2222222222222223" stroke-linejoin="round" filter="url(#fuzzy)" />
      <circle r="4.496" cx="5.036347269265999" cy="-4.990044104383527" stroke="black" fill="none" stroke-width="1.0" filter="url(#fuzzy)" clip-path="url(#rightEyeClipPath)" /><circle r="4.236" cx="3.9313472692659994" cy="-6.895044104383527" stroke="black" fill="none" stroke-width="1.0" filter="url(#fuzzy)" clip-path="url(#rightEyeClipPath)" /><circle r="3.314" cx="7.316347269266" cy="-6.070044104383527" stroke="black" fill="none" stroke-width="1.0" filter="url(#fuzzy)" clip-path="url(#rightEyeClipPath)" /><circle r="3.404" cx="3.956347269265999" cy="-6.360044104383527" stroke="black" fill="none" stroke-width="1.0" filter="url(#fuzzy)" clip-path="url(#rightEyeClipPath)" /><circle r="3.424" cx="3.8013472692659995" cy="-4.820044104383527" stroke="black" fill="none" stroke-width="1.0" filter="url(#fuzzy)" clip-path="url(#rightEyeClipPath)" /><circle r="3.768" cx="6.081347269265999" cy="-5.205044104383527" stroke="black" fill="none" stroke-width="1.0" filter="url(#fuzzy)" clip-path="url(#rightEyeClipPath)" /><circle r="3.57" cx="6.9713472692659995" cy="-6.565044104383528" stroke="black" fill="none" stroke-width="1.0" filter="url(#fuzzy)" clip-path="url(#rightEyeClipPath)" /><circle r="3.742" cx="5.321347269265999" cy="-6.565044104383528" stroke="black" fill="none" stroke-width="1.0" filter="url(#fuzzy)" clip-path="url(#rightEyeClipPath)" /><circle r="4.08" cx="6.001347269265999" cy="-4.555044104383527" stroke="black" fill="none" stroke-width="1.0" filter="url(#fuzzy)" clip-path="url(#rightEyeClipPath)" /><circle r="3.71" cx="4.681347269265999" cy="-6.730044104383527" stroke="black" fill="none" stroke-width="1.0" filter="url(#fuzzy)" clip-path="url(#rightEyeClipPath)" />
      </g>
    <g transform="translate(-27.509999999999998 -21.21)">
      <polyline id="leftUpper" points="36.75,-6.91 36.63,-7.05 36.47,-7.21 36.27,-7.38 36.04,-7.57 35.78,-7.77 35.48,-7.98 35.15,-8.19 34.79,-8.42 34.4,-8.65 33.98,-8.88 33.52,-9.11 33.04,-9.34 32.54,-9.58 32,-9.81 31.44,-10.04 30.86,-10.26 30.25,-10.48 29.62,-10.69 28.97,-10.9 28.3,-11.1 27.6,-11.29 26.89,-11.47 26.16,-11.64 25.42,-11.81 24.65,-11.96 23.83,-12.24 22.98,-12.49 22.11,-12.73 21.21,-12.94 20.29,-13.13 19.35,-13.29 18.4,-13.43 17.42,-13.55 16.43,-13.64 15.43,-13.71 14.42,-13.76 13.41,-13.78 12.39,-13.79 11.36,-13.77 10.34,-13.73 9.31,-13.67 8.29,-13.59 7.28,-13.49 6.27,-13.37 5.27,-13.24 4.29,-13.08 3.31,-12.92 2.35,-12.73 1.41,-12.53 0.49,-12.32 -0.42,-12.1 -1.31,-11.86 -2.17,-11.61 -3.02,-11.35 -3.84,-11.08 -4.63,-10.8 -5.4,-10.51 -6.15,-10.22 -6.87,-9.91 -7.57,-9.59 -8.23,-9.27 -8.88,-8.94 -9.49,-8.61 -10.08,-8.26 -10.65,-7.91 -11.18,-7.56 -11.7,-7.2 -12.19,-6.83 -12.65,-6.45 -13.1,-6.07 -13.52,-5.69 -13.92,-5.3 -14.3,-4.9 -14.66,-4.5 -15,-4.09 -15.33,-3.67 -15.64,-3.24 -15.93,-2.81 -16.2,-2.37 -16.46,-1.92 -16.71,-1.46 -16.93,-1 -17.15,-0.52 -17.35,-0.04 -17.53,0.45 -17.71,0.95 -17.87,1.46 -18.02,1.98 -18.15,2.51 -18.28,3.05 -18.39,3.59 -18.5,4.15 -18.59,4.71 -18.68,5.29 -18.75,5.87 -18.82,6.46 -18.88,7.07 -18.93,7.68 -18.97,8.29" fill="none" stroke="black" stroke-width="2.2222222222222223" stroke-linejoin="round" filter="url(#fuzzy)" />
      <polyline id="leftLower" points="36.41,-4.35 36.24,-4.18 36.03,-4.01 35.78,-3.82 35.5,-3.62 35.17,-3.42 34.82,-3.2 34.43,-2.98 34,-2.74 33.55,-2.49 33.07,-2.24 32.55,-1.97 32.02,-1.69 31.45,-1.4 30.86,-1.1 30.25,-0.8 29.61,-0.48 28.96,-0.15 28.28,0.18 27.59,0.52 26.88,0.87 26.15,1.23 25.41,1.59 24.65,1.96 23.88,2.34 23.1,2.71 22.22,3.1 21.32,3.49 20.41,3.9 19.47,4.32 18.53,4.76 17.57,5.2 16.61,5.64 15.63,6.1 14.65,6.55 13.66,7 12.68,7.45 11.69,7.89 10.7,8.33 9.72,8.76 8.74,9.17 7.76,9.57 6.8,9.96 5.84,10.33 4.89,10.69 3.96,11.02 3.04,11.33 2.13,11.61 1.24,11.88 0.37,12.11 -0.49,12.32 -1.32,12.51 -2.14,12.66 -2.94,12.79 -3.71,12.89 -4.47,12.96 -5.2,13 -5.91,13.01 -6.6,12.99 -7.26,12.95 -7.9,12.87 -8.52,12.77 -9.12,12.64 -9.69,12.49 -10.24,12.31 -10.77,12.11 -11.28,11.89 -11.77,11.65 -12.23,11.39 -12.68,11.11 -13.11,10.82 -13.52,10.51 -13.91,10.19 -14.28,9.86 -14.64,9.53 -14.98,9.19 -15.31,8.84 -15.63,8.48 -15.93,8.11 -16.22,7.74 -16.49,7.35 -16.76,6.96 -17.01,6.57 -17.25,6.17 -17.47,5.77 -17.69,5.37 -17.9,4.96 -18.09,4.56 -18.28,4.15 -18.45,3.75 -18.62,3.34 -18.78,2.94 -18.93,2.54 -19.07,2.14 -19.21,1.75 -19.33,1.36 -19.45,0.98 -19.57,0.59 -19.67,0.22 -19.77,-0.15" fill="none" stroke="black" stroke-width="2.2222222222222223" stroke-linejoin="round" filter="url(#fuzzy)" />
      <circle r="3.27" cx="-10.293217742493308" cy="6.9076255035381955" stroke="black" fill="none" stroke-width="1.0" filter="url(#fuzzy)" clip-path="url(#leftEyeClipPath)" /><circle r="3.568" cx="-11.443217742493307" cy="4.427625503538195" stroke="black" fill="none" stroke-width="1.0" filter="url(#fuzzy)" clip-path="url(#leftEyeClipPath)" /><circle r="3.12" cx="-8.688217742493308" cy="5.612625503538196" stroke="black" fill="none" stroke-width="1.0" filter="url(#fuzzy)" clip-path="url(#leftEyeClipPath)" /><circle r="3.836" cx="-11.118217742493307" cy="6.822625503538195" stroke="black" fill="none" stroke-width="1.0" filter="url(#fuzzy)" clip-path="url(#leftEyeClipPath)" /><circle r="3.318" cx="-8.478217742493307" cy="6.767625503538195" stroke="black" fill="none" stroke-width="1.0" filter="url(#fuzzy)" clip-path="url(#leftEyeClipPath)" /><circle r="3.288" cx="-11.053217742493308" cy="6.872625503538195" stroke="black" fill="none" stroke-width="1.0" filter="url(#fuzzy)" clip-path="url(#leftEyeClipPath)" /><circle r="4.856" cx="-7.738217742493307" cy="8.262625503538196" stroke="black" fill="none" stroke-width="1.0" filter="url(#fuzzy)" clip-path="url(#leftEyeClipPath)" /><circle r="4.042" cx="-7.998217742493307" cy="8.727625503538196" stroke="black" fill="none" stroke-width="1.0" filter="url(#fuzzy)" clip-path="url(#leftEyeClipPath)" /><circle r="4.2620000000000005" cx="-11.383217742493308" cy="5.922625503538196" stroke="black" fill="none" stroke-width="1.0" filter="url(#fuzzy)" clip-path="url(#leftEyeClipPath)" /><circle r="4.92" cx="-9.358217742493308" cy="9.077625503538195" stroke="black" fill="none" stroke-width="1.0" filter="url(#fuzzy)" clip-path="url(#leftEyeClipPath)" />
    </g>
    <g id="hairs">
      <polyline points="28.53,-74.06 29.25,-73.5 30.27,-72.75 31.42,-71.85 32.6,-70.87 33.74,-69.89 34.82,-68.94 35.84,-68.04 36.8,-67.2 37.68,-66.42 38.45,-65.74 39.07,-65.18 39.5,-64.78 39.71,-64.6 39.65,-64.66 39.31,-65 38.66,-65.63 37.61,-66.67" fill="none" stroke="rgb(134, 28, 19)" stroke-width="2" stroke-linejoin="round" filter="url(#fuzzy)" /><polyline points="33.14,-70.58 34.14,-69.57 34.57,-68.7 34.32,-67.99 33.51,-67.32 32.16,-66.66 30.28,-65.99 27.83,-65.32 24.76,-64.65 21.03,-64 16.59,-63.39 11.44,-62.81 5.59,-62.24 -0.96,-61.63 -8.2,-60.96 -16.15,-60.28 -24.81,-59.73 -34.1,-59.55" fill="none" stroke="rgb(134, 28, 19)" stroke-width="2" stroke-linejoin="round" filter="url(#fuzzy)" /><polyline points="11.89,-81.6 11.94,-81.51 12.69,-81.29 13.62,-81.02 14.56,-80.72 15.46,-80.4 16.31,-80.09 17.13,-79.78 17.89,-79.48 18.56,-79.21 19.09,-79 19.43,-78.83 19.56,-78.73 19.46,-78.69 19.13,-78.7 18.55,-78.77 17.72,-78.92 16.6,-79.16 15.17,-79.51 13.42,-79.98 11.3,-80.57 8.78,-81.25 5.85,-82.06" fill="none" stroke="rgb(134, 28, 19)" stroke-width="2" stroke-linejoin="round" filter="url(#fuzzy)" /><polyline points="17.32,-79.84 17.35,-79.71 18.32,-79.28 19.59,-78.75 20.85,-78.23 21.97,-77.74 22.96,-77.28 23.87,-76.84 24.7,-76.4 25.46,-75.98 26.1,-75.61 26.55,-75.33 26.78,-75.18 26.75,-75.17 26.48,-75.3 25.98,-75.55 25.27,-75.9 24.27,-76.39 22.84,-77.08 20.77,-78.07" fill="none" stroke="rgb(134, 28, 19)" stroke-width="2" stroke-linejoin="round" filter="url(#fuzzy)" /><polyline points="-19.8,-78.77 -18.66,-79.16 -17.15,-79.47 -15.47,-79.59 -13.73,-79.51 -11.91,-79.29 -9.93,-78.96 -7.73,-78.56 -5.31,-78.11 -2.73,-77.59 -0.02,-77 2.77,-76.32 5.62,-75.57 8.51,-74.77 11.43,-73.94 14.35,-73.11 17.27,-72.27 20.18,-71.42 23.09,-70.54 26.01,-69.6 28.9,-68.65 31.69,-67.73 34.3,-66.88 36.73,-66.09" fill="none" stroke="rgb(134, 28, 19)" stroke-width="2" stroke-linejoin="round" filter="url(#fuzzy)" /><polyline points="8.49,-82.3 9.77,-81.91 11.14,-81.47 12.51,-80.94 13.94,-80.32 15.5,-79.6 17.14,-78.8 18.86,-77.91 20.62,-76.98 22.42,-76 24.23,-75.03 26,-74.09 27.67,-73.21 29.18,-72.42 30.49,-71.72 31.61,-71.12 32.54,-70.62 33.2,-70.28 33.42,-70.25" fill="none" stroke="rgb(134, 28, 19)" stroke-width="2" stroke-linejoin="round" filter="url(#fuzzy)" /><polyline points="-19.8,-78.77 -18.77,-79.23 -17.59,-79.73 -16.47,-80.14 -15.52,-80.45 -14.73,-80.68 -14,-80.87 -13.3,-81.05 -12.64,-81.21 -12.06,-81.33 -11.63,-81.39 -11.4,-81.37 -11.39,-81.26 -11.6,-81.06 -12.05,-80.77 -12.74,-80.4 -13.69,-79.94 -14.89,-79.39 -16.36,-78.75 -18.16,-78.01 -20.37,-77.1 -23.06,-76.02 -26.04,-74.84" fill="none" stroke="rgb(134, 28, 19)" stroke-width="2" stroke-linejoin="round" filter="url(#fuzzy)" /><polyline points="-15.43,-80.65 -15.11,-80.61 -14.67,-80.7 -14.16,-80.81 -13.6,-80.93 -13.04,-81.03 -12.61,-81.07 -12.42,-81.01 -12.53,-80.82 -12.98,-80.5 -13.79,-80.03 -14.98,-79.39 -16.6,-78.58 -18.69,-77.56 -21.3,-76.31 -24.46,-74.83 -28.13,-73.15" fill="none" stroke="rgb(134, 28, 19)" stroke-width="2" stroke-linejoin="round" filter="url(#fuzzy)" /><polyline points="6.74,-82.59 7.09,-82.47 8.22,-81.99 9.82,-81.25 11.74,-80.33 13.83,-79.26 16.05,-78.06 18.37,-76.74 20.79,-75.3 23.29,-73.78 25.83,-72.19 28.35,-70.62 30.82,-69.1 33.21,-67.69 35.53,-66.35 37.84,-64.97 40.21,-63.37" fill="none" stroke="rgb(134, 28, 19)" stroke-width="2" stroke-linejoin="round" filter="url(#fuzzy)" /><polyline points="43.51,-60.12 44.36,-59.13 45.03,-58.07 45.3,-57.38 45.2,-57.01 44.8,-56.88 44.15,-56.89 43.25,-57.03 42.09,-57.28 40.65,-57.65 38.87,-58.18 36.72,-58.89 34.18,-59.84 31.22,-61.06 27.82,-62.58 23.95,-64.44 19.59,-66.63 14.71,-69.13 9.36,-71.91 3.63,-74.96 -2.44,-78.35" fill="none" stroke="rgb(134, 28, 19)" stroke-width="2" stroke-linejoin="round" filter="url(#fuzzy)" /><polyline points="-35.76,-68.34 -35.5,-68.42 -34.27,-68.93 -32.45,-69.59 -30.26,-70.21 -27.81,-70.73 -25.11,-71.18 -22.15,-71.58 -18.94,-71.96 -15.5,-72.3 -11.86,-72.6 -8.06,-72.86 -4.15,-73.06 -0.19,-73.22 3.84,-73.34 7.93,-73.46 12.07,-73.61 16.21,-73.78 20.32,-73.94 24.37,-74.04" fill="none" stroke="rgb(134, 28, 19)" stroke-width="2" stroke-linejoin="round" filter="url(#fuzzy)" /><polyline points="53.41,-44.94 54.05,-43.33 54.56,-42.12 54.98,-41.07 55.27,-40.21 55.45,-39.53 55.52,-38.99 55.5,-38.6 55.36,-38.36 55.07,-38.33 54.6,-38.57 53.93,-39.15 53.03,-40.11 51.91,-41.49 50.55,-43.32 48.95,-45.57 47.1,-48.2 45,-51.2 42.67,-54.55 40.06,-58.34 37.12,-62.66 33.79,-67.56" fill="none" stroke="rgb(134, 28, 19)" stroke-width="2" stroke-linejoin="round" filter="url(#fuzzy)" /><polyline points="-2.68,-82.79 -2.19,-82.89 -1.02,-82.97 0.08,-83 0.94,-83 1.52,-82.97 1.84,-82.92 1.92,-82.85 1.78,-82.76 1.37,-82.65 0.64,-82.51 -0.48,-82.33 -2.07,-82.11 -4.19,-81.83 -6.94,-81.49 -10.41,-81.08" fill="none" stroke="rgb(134, 28, 19)" stroke-width="2" stroke-linejoin="round" filter="url(#fuzzy)" /><polyline points="42.52,-61.63 42.77,-61.28 43.22,-60.48 43.61,-59.6 43.78,-58.87 43.6,-58.4 43.07,-58.18 42.2,-58.19 41.03,-58.38 39.57,-58.69 37.81,-59.12 35.72,-59.67 33.29,-60.36 30.48,-61.23 27.26,-62.3 23.61,-63.61 19.47,-65.18 14.81,-67.03 9.61,-69.17 3.93,-71.59 -2.12,-74.28 -8.44,-77.25" fill="none" stroke="rgb(134, 28, 19)" stroke-width="2" stroke-linejoin="round" filter="url(#fuzzy)" /><polyline points="-14.56,-80.6 -13.2,-80.94 -11.61,-81.1 -9.87,-81.08 -8.04,-80.89 -6.13,-80.54 -4.11,-80.05 -1.96,-79.47 0.33,-78.79 2.75,-78.05 5.25,-77.23 7.84,-76.35 10.5,-75.4 13.23,-74.4 16.02,-73.34 18.81,-72.23 21.57,-71.12 24.25,-70.02 26.86,-68.98 29.38,-68 31.87,-67.05 34.36,-66.05 36.88,-64.9 39.36,-63.69" fill="none" stroke="rgb(134, 28, 19)" stroke-width="2" stroke-linejoin="round" filter="url(#fuzzy)" /><polyline points="-5.91,-82.76 -4.48,-82.68 -3.21,-82.55 -1.82,-82.31 -0.17,-81.98 1.75,-81.56 3.84,-81.03 6.03,-80.42 8.24,-79.73 10.46,-79 12.7,-78.22 14.97,-77.43 17.25,-76.63 19.51,-75.83 21.72,-75.04 23.84,-74.27 25.85,-73.55 27.73,-72.88 29.47,-72.26 31.14,-71.65" fill="none" stroke="rgb(134, 28, 19)" stroke-width="2" stroke-linejoin="round" filter="url(#fuzzy)" /><polyline points="-31.99,-71.43 -30.61,-72.51 -29.57,-73.33 -28.66,-73.99 -27.76,-74.58 -26.92,-75.09 -26.24,-75.47 -25.76,-75.73 -25.47,-75.86 -25.33,-75.87 -25.34,-75.76 -25.54,-75.51 -25.99,-75.07 -26.74,-74.43 -27.8,-73.6 -29.15,-72.58 -30.84,-71.32 -33.03,-69.71 -35.82,-67.63" fill="none" stroke="rgb(134, 28, 19)" stroke-width="2" stroke-linejoin="round" filter="url(#fuzzy)" /><polyline points="13.08,-81.11 14.66,-80.63 16,-79.88 17.59,-78.86 19.47,-77.61 21.62,-76.16 23.98,-74.57 26.45,-72.86 28.93,-71.09 31.38,-69.25 33.81,-67.36 36.25,-65.41 38.68,-63.44 41,-61.56 43,-60.04" fill="none" stroke="rgb(134, 28, 19)" stroke-width="2" stroke-linejoin="round" filter="url(#fuzzy)" /><polyline points="12.96,-81.3 13.6,-81.07 14.46,-80.79 15.27,-80.49 16.04,-80.19 16.78,-79.88 17.5,-79.57 18.13,-79.29 18.61,-79.04 18.9,-78.83 18.99,-78.66 18.86,-78.53 18.53,-78.43 17.98,-78.36 17.17,-78.33 16.08,-78.35 14.68,-78.45 12.97,-78.62 10.94,-78.89 8.6,-79.23 5.92,-79.64 2.84,-80.12 -0.64,-80.68 -4.42,-81.41" fill="none" stroke="rgb(134, 28, 19)" stroke-width="2" stroke-linejoin="round" filter="url(#fuzzy)" /><polyline points="38.2,-66.12 37.92,-66.3 38.04,-65.92 37.91,-65.54 37.32,-65.35 36.19,-65.42 34.47,-65.78 32.13,-66.43 29.16,-67.33 25.56,-68.44 21.35,-69.75 16.48,-71.34 10.84,-73.29 4.28,-75.67 -3.32,-78.41" fill="none" stroke="rgb(134, 28, 19)" stroke-width="2" stroke-linejoin="round" filter="url(#fuzzy)" /><polyline points="46.97,-55.75 47.05,-55.34 46.86,-54.98 46.26,-54.78 45.2,-54.73 43.61,-54.85 41.44,-55.17 38.64,-55.76 35.19,-56.68 31.07,-57.98 26.22,-59.7 20.57,-61.86 14.06,-64.45 6.64,-67.41 -1.6,-70.7 -10.51,-74.36" fill="none" stroke="rgb(134, 28, 19)" stroke-width="2" stroke-linejoin="round" filter="url(#fuzzy)" /><polyline points="6.52,-82.71 7.37,-82.46 7.98,-82.16 8.31,-81.8 8.24,-81.4 7.69,-80.93 6.65,-80.37 5.11,-79.7 3.06,-78.91 0.46,-78.01 -2.74,-76.98 -6.56,-75.81 -11.05,-74.48 -16.26,-72.95 -22.22,-71.27 -28.83,-69.62" fill="none" stroke="rgb(134, 28, 19)" stroke-width="2" stroke-linejoin="round" filter="url(#fuzzy)" /><polyline points="-10.91,-81.86 -9.42,-82.05 -8.29,-82.16 -7.16,-82.21 -5.87,-82.25 -4.45,-82.26 -2.97,-82.26 -1.47,-82.23 0.03,-82.18 1.53,-82.12 3.01,-82.05 4.43,-81.98 5.74,-81.91 6.91,-81.84 7.93,-81.79 8.81,-81.74 9.55,-81.71 10.14,-81.69 10.55,-81.69 10.76,-81.7 10.74,-81.74 10.44,-81.82 9.71,-81.97" fill="none" stroke="rgb(134, 28, 19)" stroke-width="2" stroke-linejoin="round" filter="url(#fuzzy)" /><polyline points="4.28,-83 5.72,-82.74 6.25,-82.52 6.42,-82.23 6.35,-81.86 5.94,-81.4 5.11,-80.85 3.78,-80.21 1.91,-79.47 -0.51,-78.6 -3.5,-77.61 -7.1,-76.49 -11.35,-75.22 -16.33,-73.78 -22.13,-72.08 -28.75,-70.12" fill="none" stroke="rgb(134, 28, 19)" stroke-width="2" stroke-linejoin="round" filter="url(#fuzzy)" /><polyline points="-19.89,-78.63 -19.51,-78.86 -18.77,-79.21 -17.91,-79.56 -17.17,-79.81 -16.66,-79.91 -16.4,-79.86 -16.37,-79.69 -16.52,-79.4 -16.85,-79 -17.43,-78.45 -18.32,-77.73 -19.57,-76.83 -21.21,-75.72 -23.25,-74.39 -25.73,-72.8 -28.69,-70.9 -32.15,-68.7 -36.17,-66.21" fill="none" stroke="rgb(134, 28, 19)" stroke-width="2" stroke-linejoin="round" filter="url(#fuzzy)" /><polyline points="51.62,-48.08 52.17,-46.92 52.42,-45.92 52.23,-45.31 51.62,-45.01 50.69,-44.86 49.46,-44.8 47.89,-44.85 45.96,-45.05 43.62,-45.44 40.87,-46.02 37.71,-46.8 34.1,-47.78 30.03,-48.99 25.49,-50.46 20.47,-52.22 14.98,-54.32 9,-56.79 2.47,-59.62 -4.7,-62.75 -12.5,-66.12 -20.72,-69.71" fill="none" stroke="rgb(134, 28, 19)" stroke-width="2" stroke-linejoin="round" filter="url(#fuzzy)" /><polyline points="48.99,-52.71 49.44,-51.88 49.71,-51.01 49.65,-50.33 49.22,-49.93 48.41,-49.84 47.17,-50.1 45.46,-50.74 43.25,-51.77 40.54,-53.13 37.33,-54.79 33.64,-56.77 29.42,-59.1 24.65,-61.83 19.26,-64.99 13.22,-68.59 6.52,-72.61 -0.68,-77.14" fill="none" stroke="rgb(134, 28, 19)" stroke-width="2" stroke-linejoin="round" filter="url(#fuzzy)" /><polyline points="-11.79,-81.39 -10.53,-81.64 -8.87,-81.58 -7.04,-81.26 -4.97,-80.73 -2.59,-80.04 0.1,-79.19 3.03,-78.2 6.16,-77.07 9.45,-75.81 12.91,-74.44 16.51,-72.99 20.19,-71.5 23.87,-70.03 27.48,-68.61 31.02,-67.18 34.62,-65.64 38.46,-63.76" fill="none" stroke="rgb(134, 28, 19)" stroke-width="2" stroke-linejoin="round" filter="url(#fuzzy)" /><polyline points="40.17,-64.06 40.55,-63.73 41.31,-62.93 42.02,-62.14 42.58,-61.49 43.06,-60.92 43.5,-60.34 43.91,-59.79 44.2,-59.38 44.25,-59.24 43.98,-59.49 43.35,-60.18 42.35,-61.29 40.99,-62.81 39.41,-64.61" fill="none" stroke="rgb(134, 28, 19)" stroke-width="2" stroke-linejoin="round" filter="url(#fuzzy)" /><polyline points="-30.31,-72.76 -29.21,-73.41 -27.8,-73.86 -25.86,-74.24 -23.47,-74.53 -20.81,-74.71 -17.94,-74.78 -14.84,-74.77 -11.45,-74.73 -7.76,-74.65 -3.83,-74.55 0.27,-74.41 4.48,-74.24 8.78,-74.04 13.16,-73.82 17.58,-73.59 21.93,-73.37 26.09,-73.19" fill="none" stroke="rgb(134, 28, 19)" stroke-width="2" stroke-linejoin="round" filter="url(#fuzzy)" /><polyline points="17.9,-79.39 19.36,-78.88 20.29,-78.48 20.76,-78.16 20.88,-77.89 20.72,-77.62 20.31,-77.33 19.63,-77.02 18.63,-76.73 17.24,-76.48 15.41,-76.29 13.09,-76.16 10.29,-76.07 7.01,-76 3.25,-75.97 -1.04,-75.97 -5.94,-76.02 -11.57,-76.13 -17.91,-76.26" fill="none" stroke="rgb(134, 28, 19)" stroke-width="2" stroke-linejoin="round" filter="url(#fuzzy)" /><polyline points="9.46,-81.92 10.85,-81.7 11.47,-81.49 11.87,-81.24 12.11,-80.93 12.13,-80.57 11.92,-80.16 11.45,-79.7 10.71,-79.19 9.67,-78.61 8.3,-77.98 6.54,-77.3 4.36,-76.58 1.71,-75.81 -1.4,-74.98 -4.98,-74.07 -9.05,-73.06 -13.63,-71.95 -18.71,-70.79 -24.2,-69.71 -30.02,-68.88" fill="none" stroke="rgb(134, 28, 19)" stroke-width="2" stroke-linejoin="round" filter="url(#fuzzy)" />
    </g>
    
        <g id="pointNose">
          <g id="rightNose"><circle r="1.5899999999999999" cx="7.546000000000001" cy="3.7939999999999996" stroke="black" fill="none" stroke-width="1.0" filter="url(#fuzzy)" /><circle r="1.762" cx="6.998000000000001" cy="4.834" stroke="black" fill="none" stroke-width="1.0" filter="url(#fuzzy)" /><circle r="1.046" cx="10.182" cy="7.129999999999999" stroke="black" fill="none" stroke-width="1.0" filter="url(#fuzzy)" /><circle r="1.224" cx="7.7620000000000005" cy="6.646000000000001" stroke="black" fill="none" stroke-width="1.0" filter="url(#fuzzy)" /><circle r="2.0300000000000002" cx="9.334" cy="6.661999999999999" stroke="black" fill="none" stroke-width="1.0" filter="url(#fuzzy)" /><circle r="2.81" cx="6.470000000000001" cy="4.338" stroke="black" fill="none" stroke-width="1.0" filter="url(#fuzzy)" /><circle r="1.498" cx="9.442" cy="6.958" stroke="black" fill="none" stroke-width="1.0" filter="url(#fuzzy)" /><circle r="2.106" cx="6.626000000000001" cy="5.882" stroke="black" fill="none" stroke-width="1.0" filter="url(#fuzzy)" /><circle r="1.33" cx="10.25" cy="3.8179999999999996" stroke="black" fill="none" stroke-width="1.0" filter="url(#fuzzy)" /><circle r="1.248" cx="6.8100000000000005" cy="4.618" stroke="black" fill="none" stroke-width="1.0" filter="url(#fuzzy)" /></g>
          <g id="leftNose"><circle r="1.082" cx="-8.203999999999999" cy="4.523999999999999" stroke="black" fill="none" stroke-width="1.0" filter="url(#fuzzy)" /><circle r="2.584" cx="-10.84" cy="2.976" stroke="black" fill="none" stroke-width="1.0" filter="url(#fuzzy)" /><circle r="2.7640000000000002" cx="-10.732" cy="2.3040000000000003" stroke="black" fill="none" stroke-width="1.0" filter="url(#fuzzy)" /><circle r="2.208" cx="-8.856" cy="4.712" stroke="black" fill="none" stroke-width="1.0" filter="url(#fuzzy)" /><circle r="2.792" cx="-8.696" cy="4.108" stroke="black" fill="none" stroke-width="1.0" filter="url(#fuzzy)" /><circle r="2.2880000000000003" cx="-8.82" cy="2.9799999999999995" stroke="black" fill="none" stroke-width="1.0" filter="url(#fuzzy)" /><circle r="2.824" cx="-9.239999999999998" cy="1.9319999999999995" stroke="black" fill="none" stroke-width="1.0" filter="url(#fuzzy)" /><circle r="1.056" cx="-10.408" cy="3.8" stroke="black" fill="none" stroke-width="1.0" filter="url(#fuzzy)" /><circle r="2.972" cx="-10.78" cy="3.1999999999999993" stroke="black" fill="none" stroke-width="1.0" filter="url(#fuzzy)" /><circle r="1.384" cx="-8.68" cy="3.0119999999999996" stroke="black" fill="none" stroke-width="1.0" filter="url(#fuzzy)" /></g>
        </g>
      
    <g id="mouth">
      <polyline points="-31.54,44.08 -31.11,46.02 -30.67,47.91 -30.21,49.74 -29.75,51.51 -29.27,53.23 -28.78,54.9 -28.27,56.51 -27.76,58.08 -27.23,59.59 -26.7,61.04 -26.15,62.45 -25.59,63.81 -25.03,65.11 -24.45,66.37 -23.86,67.58 -23.26,68.74 -22.66,69.85 -22.04,70.91 -21.42,71.92 -20.79,72.89 -20.15,73.82 -19.5,74.69 -18.85,75.53 -18.18,76.31 -17.51,77.06 -16.84,77.76 -16.15,78.41 -15.46,79.03 -14.77,79.6 -14.07,80.13 -13.36,80.62 -12.65,81.07 -11.93,81.47 -11.21,81.84 -10.48,82.17 -9.75,82.46 -9.01,82.72 -8.27,82.93 -7.53,83.11 -6.79,83.25 -6.04,83.36 -5.29,83.42 -4.53,83.46 -3.77,83.46 -3.02,83.43 -2.26,83.36 -1.49,83.26 -0.73,83.12 0.03,82.96 0.8,82.76 1.56,82.53 2.33,82.27 3.09,81.98 3.86,81.67 4.62,81.32 5.39,80.94 6.15,80.54 6.91,80.1 7.67,79.65 8.43,79.16 9.19,78.65 9.94,78.11 10.69,77.55 11.44,76.96 12.18,76.35 12.93,75.72 13.66,75.06 14.4,74.38 15.13,73.67 15.86,72.95 16.58,72.21 17.29,71.44 18,70.65 18.71,69.85 19.41,69.02 20.11,68.18 20.79,67.32 21.48,66.44 22.15,65.55 22.82,64.63 23.48,63.7 24.14,62.76 24.78,61.8 25.42,60.83 26.05,59.84 26.67,58.84 27.29,57.83 27.89,56.8 28.48,55.76 29.07,54.71 29.65,53.65 30.21,52.58 30.77,51.49 31.31,50.4 31.85,49.3 32.37,48.19 32.88,47.08 33.38,45.95 33.87,44.82 33.87,44.82 33.22,45.46 32.56,46.1 31.91,46.73 31.26,47.36 30.6,47.99 29.95,48.6 29.29,49.22 28.64,49.83 27.99,50.43 27.33,51.02 26.68,51.61 26.02,52.19 25.37,52.77 24.72,53.34 24.06,53.9 23.41,54.45 22.75,54.99 22.1,55.53 21.44,56.05 20.79,56.57 20.14,57.08 19.48,57.57 18.83,58.06 18.17,58.54 17.52,59.01 16.87,59.46 16.21,59.91 15.56,60.34 14.9,60.76 14.25,61.17 13.59,61.57 12.94,61.95 12.29,62.32 11.63,62.68 10.98,63.03 10.32,63.36 9.67,63.68 9.02,63.98 8.36,64.27 7.71,64.54 7.05,64.8 6.4,65.04 5.75,65.27 5.09,65.48 4.44,65.68 3.78,65.86 3.13,66.02 2.47,66.16 1.82,66.29 1.17,66.4 0.51,66.49 -0.14,66.56 -0.8,66.62 -1.45,66.65 -2.1,66.67 -2.76,66.67 -3.41,66.64 -4.07,66.6 -4.72,66.54 -5.37,66.45 -6.03,66.35 -6.68,66.22 -7.34,66.08 -7.99,65.91 -8.65,65.72 -9.3,65.5 -9.95,65.27 -10.61,65.01 -11.26,64.73 -11.92,64.42 -12.57,64.09 -13.22,63.74 -13.88,63.36 -14.53,62.96 -15.19,62.53 -15.84,62.08 -16.5,61.6 -17.15,61.1 -17.8,60.57 -18.46,60.01 -19.11,59.43 -19.77,58.82 -20.42,58.19 -21.07,57.52 -21.73,56.83 -22.38,56.11 -23.04,55.37 -23.69,54.59 -24.34,53.78 -25,52.95 -25.65,52.09 -26.31,51.19 -26.96,50.27 -27.62,49.32 -28.27,48.33 -28.92,47.32 -29.58,46.27 -30.23,45.19 -30.89,44.08" fill="rgb(110, 102, 204)" stroke="black" stroke-width="3" stroke-linejoin="round" filter="url(#fuzzy)" />
    </g>
  </svg>