<svg viewBox="-100 -100 200 200" xmlns="http://www.w3.org/2000/svg" width="500" height="500" id="face-svg">
    <defs>
      <clipPath id="leftEyeClipPath">
        <polyline points="27.63,-1.45 27.64,-1.57 27.62,-1.7 27.56,-1.84 27.47,-1.97 27.34,-2.11 27.17,-2.25 26.96,-2.39 26.71,-2.53 26.42,-2.67 26.1,-2.8 25.74,-2.94 25.34,-3.07 24.9,-3.2 24.43,-3.33 23.92,-3.45 23.55,-3.65 23.11,-3.84 22.61,-4.02 22.05,-4.19 21.42,-4.34 20.73,-4.49 19.98,-4.62 19.18,-4.74 18.33,-4.85 17.43,-4.94 16.48,-5.02 15.49,-5.09 14.46,-5.14 13.4,-5.19 12.31,-5.22 11.19,-5.23 10.04,-5.24 8.88,-5.23 7.71,-5.21 6.52,-5.18 5.33,-5.14 4.14,-5.09 2.94,-5.02 1.75,-4.95 0.56,-4.87 -0.61,-4.79 -1.77,-4.69 -2.92,-4.59 -4.05,-4.48 -5.15,-4.36 -6.23,-4.24 -7.29,-4.11 -8.32,-3.98 -9.32,-3.85 -10.29,-3.71 -11.23,-3.57 -12.13,-3.42 -13.01,-3.28 -13.84,-3.13 -14.65,-2.98 -15.42,-2.84 -16.16,-2.69 -16.86,-2.54 -17.53,-2.39 -18.17,-2.24 -18.78,-2.1 -19.36,-1.95 -19.91,-1.81 -20.43,-1.67 -20.93,-1.53 -21.41,-1.39 -21.86,-1.25 -22.29,-1.12 -22.69,-0.99 -23.07,-0.86 -23.43,-0.73 -23.77,-0.6 -24.09,-0.48 -24.38,-0.35 -24.66,-0.23 -24.92,-0.12 -25.16,0 -25.38,0.11 -25.59,0.22 -22.52,4.03 -22.19,4.14 -21.86,4.25 -21.51,4.36 -21.15,4.46 -20.77,4.56 -20.39,4.66 -20,4.76 -19.6,4.85 -19.18,4.94 -18.76,5.03 -18.32,5.11 -17.87,5.19 -17.41,5.26 -16.94,5.33 -16.45,5.39 -15.95,5.45 -15.44,5.51 -14.91,5.56 -14.37,5.61 -13.82,5.65 -13.25,5.68 -12.66,5.71 -12.06,5.73 -11.44,5.74 -10.81,5.74 -10.16,5.73 -9.5,5.72 -8.83,5.7 -8.14,5.66 -7.43,5.62 -6.71,5.57 -5.98,5.52 -5.24,5.45 -4.49,5.37 -3.72,5.29 -2.94,5.2 -2.16,5.1 -1.36,4.99 -0.56,4.87 0.25,4.75 1.06,4.63 1.88,4.5 2.71,4.36 3.53,4.22 4.36,4.07 5.19,3.93 6.02,3.78 6.85,3.63 7.68,3.48 8.5,3.33 9.31,3.18 10.12,3.04 10.93,2.89 11.72,2.75 12.51,2.61 13.28,2.48 14.04,2.35 14.79,2.23 15.52,2.12 16.24,2.01 16.95,1.91 17.63,1.82 18.3,1.73 18.95,1.65 19.56,1.53 20.17,1.41 20.76,1.29 21.34,1.17 21.91,1.05 22.47,0.93 23.02,0.81 23.55,0.68 24.07,0.56 24.58,0.43 25.08,0.3 25.56,0.16 26.03,0.03 26.48,-0.12 26.92,-0.27" />
      </clipPath>
      <clipPath id="rightEyeClipPath">
        <polyline points="-27.5,-1.93 -27.48,-2.13 -27.43,-2.33 -27.34,-2.54 -27.22,-2.74 -27.06,-2.95 -26.87,-3.15 -26.63,-3.35 -26.37,-3.55 -26.06,-3.75 -25.72,-3.94 -25.34,-4.13 -24.93,-4.31 -24.48,-4.48 -24,-4.65 -23.48,-4.81 -23.09,-5.08 -22.63,-5.34 -22.11,-5.57 -21.53,-5.79 -20.9,-6 -20.21,-6.18 -19.46,-6.34 -18.66,-6.49 -17.82,-6.61 -16.93,-6.72 -16,-6.8 -15.03,-6.87 -14.02,-6.92 -12.99,-6.94 -11.92,-6.96 -10.83,-6.95 -9.73,-6.93 -8.6,-6.89 -7.46,-6.83 -6.31,-6.76 -5.16,-6.68 -4,-6.58 -2.85,-6.48 -1.7,-6.36 -0.55,-6.23 0.58,-6.08 1.7,-5.93 2.81,-5.78 3.89,-5.61 4.96,-5.44 6,-5.26 7.02,-5.08 8.02,-4.89 8.98,-4.7 9.92,-4.51 10.82,-4.32 11.7,-4.12 12.54,-3.93 13.36,-3.73 14.13,-3.54 14.88,-3.34 15.6,-3.15 16.28,-2.96 16.93,-2.77 17.56,-2.58 18.15,-2.4 18.71,-2.22 19.25,-2.04 19.77,-1.87 20.26,-1.7 20.73,-1.53 21.17,-1.37 21.59,-1.21 21.99,-1.05 22.37,-0.9 22.72,-0.75 23.06,-0.6 23.37,-0.46 23.67,-0.32 23.95,-0.18 24.21,-0.05 24.45,0.08 24.68,0.2 24.89,0.32 21.17,4.76 20.83,4.89 20.48,5.02 20.12,5.14 19.75,5.27 19.37,5.39 18.98,5.51 18.59,5.62 18.18,5.74 17.77,5.85 17.34,5.95 16.91,6.06 16.47,6.15 16.02,6.25 15.55,6.34 15.08,6.42 14.6,6.5 14.11,6.58 13.61,6.65 13.09,6.71 12.56,6.77 12.02,6.83 11.47,6.87 10.91,6.91 10.34,6.94 9.76,6.96 9.16,6.97 8.56,6.97 7.94,6.96 7.31,6.94 6.68,6.92 6.03,6.88 5.38,6.83 4.71,6.77 4.04,6.7 3.36,6.63 2.67,6.54 1.97,6.44 1.26,6.34 0.55,6.23 -0.16,6.1 -0.89,5.98 -1.62,5.84 -2.35,5.7 -3.08,5.55 -3.83,5.4 -4.57,5.25 -5.31,5.09 -6.06,4.92 -6.81,4.76 -7.56,4.6 -8.31,4.43 -9.05,4.27 -9.8,4.1 -10.54,3.94 -11.28,3.78 -12.02,3.63 -12.75,3.48 -13.48,3.33 -14.2,3.19 -14.91,3.06 -15.61,2.93 -16.31,2.81 -17,2.69 -17.68,2.59 -18.28,2.44 -18.87,2.3 -19.45,2.16 -20.02,2.02 -20.59,1.87 -21.14,1.73 -21.69,1.58 -22.23,1.44 -22.75,1.29 -23.26,1.14 -23.76,0.98 -24.25,0.83 -24.72,0.67 -25.18,0.5 -25.63,0.33" />
      </clipPath>
      <filter id="fuzzy">
        <feTurbulence id="turbulence" baseFrequency="0.05" numOctaves="3" type="noise" result="noise" />
        <feDisplacementMap in="SourceGraphic" in2="noise" scale="2" />
      </filter>
      <linearGradient id="rainbowGradient" x1="0%" y1="0%" x2="100%" y2="0%">
        <stop offset="0%" style="stop-color: rgb(76, 159, 4); stop-opacity: 1" />
        <stop offset="58.6%" style="stop-color: rgb(86, 242, 49); stop-opacity: 1" />
        <stop offset="100%" style="stop-color: rgb(153, 93, 159); stop-opacity: 1" />
      </linearGradient>
    </defs>
    <rect x="-100" y="-100" width="100%" height="100%" fill="rgb(166, 229, 242)" />
    <polyline id="faceContour" points="58.29,-0.08 58.28,1.47 58.3,3.97 58.34,1.82 58.42,3.87 58.11,6.92 58.12,9.11 57.84,11.7 57.78,12.24 57.85,10.58 57.58,14.19 57.52,14.53 57.37,17.31 57.47,14.99 57.18,17.26 56.86,20.18 56.69,21.13 56.37,23.15 56.18,24.18 55.78,25.61 55.5,27.18 55.18,28.41 54.69,31.06 55,29.62 54.22,32.44 54.02,33.49 53.67,34.31 52.99,36.81 53.11,36.02 52.39,38.45 51.74,40.69 51.69,40.55 50.84,43.09 50.21,44.53 50.83,43.27 50.22,44.69 48.65,48.09 48.34,49.26 48.19,49.11 47.37,51.08 47.68,50.28 46.63,52.76 46.37,52.6 45.72,54.27 45.12,55.36 44.91,55.76 43.62,58.07 43.12,58.5 42.55,59.12 42.97,59.05 40.7,61.96 41.27,61.51 39.81,63.75 40.24,62.91 38.08,66.06 38.05,65.88 37.41,66.75 37.26,66.92 35.67,68.9 34.58,70.28 33.36,71.28 33.77,71.08 32.05,72.67 30.72,73.95 32.5,72.28 31.25,73.83 29.32,75.28 29.12,75.31 27.98,76.33 28.31,76.17 24.84,78.73 25.05,78.36 24.27,79.07 24.89,78.89 22.76,79.99 22.41,80.2 21.48,80.85 21.47,80.86 19.06,82.11 18.72,82.12 17.55,82.86 17.32,82.89 16.73,83.44 15.89,83.81 13.91,84.34 13.9,84.54 12.44,85.04 10.52,85.46 11.08,85.4 9.46,85.7 9.28,85.98 7.13,86.35 7.91,86.2 5.48,86.57 5.8,86.54 5.17,86.58 3.43,86.76 3.7,86.69 1.84,86.98 0,86.9 0.08,86.74 -0.55,86.74 -2.65,86.99 -1.84,86.79 -3.51,86.71 -4.7,86.67 -5.29,86.41 -5.91,86.55 -8.34,86 -7.49,86.16 -8.97,85.78 -10.21,85.77 -10.79,85.52 -11.95,85.14 -12.83,84.58 -13.11,84.68 -15.47,83.84 -15.74,83.94 -15.35,83.78 -16.96,83.07 -18.27,82.74 -18.41,82.45 -18.92,82.33 -21.09,81.09 -21.57,80.85 -22.63,80.01 -22.68,80.22 -23.84,79.48 -24.18,79.08 -25.87,78 -25.44,78.32 -27.8,76.61 -28.55,75.63 -28.71,75.82 -31.21,73.64 -30.99,73.87 -32.16,72.49 -31.53,72.83 -33.1,71.49 -33.89,70.72 -34.45,70.26 -35.42,69.15 -36.85,67.37 -36.65,67.92 -37.03,67.14 -37.86,66.26 -38.35,65.57 -38.74,64.97 -39.47,63.91 -40.63,62.54 -42.22,60.27 -40.86,62.22 -42.65,59.66 -43.52,57.96 -43.84,57.75 -44.87,55.82 -44.99,55.61 -45.62,54.26 -45.39,54.53 -46.72,52.22 -47.43,50.92 -47.65,50.48 -48.6,48.09 -49.07,47.24 -49.86,45.44 -49.71,45.87 -50,44.67 -50.28,44.4 -51.23,41.93 -51.67,40.55 -52.27,39.04 -52.51,38.04 -52.9,36.24 -52.85,36.57 -53.61,33.95 -54.18,32.01 -54.06,33.09 -54.85,29.37 -54.54,30.81 -54.9,28.73 -55.35,27.06 -56.15,24.37 -55.86,25.77 -56.36,22.65 -56.62,21.41 -56.42,21.91 -57.32,17.11 -57.32,15.63 -57.38,14.89 -57.6,15.46 -57.64,13.61 -57.74,12.34 -58.15,9.58 -58.04,8.97 -58.1,7.96 -58.33,6.06 -58.41,4.34 -58.23,4.5 -58.39,1.77 -58.38,3.36 -58.41,-0.25 -58.2,-3.05 -58.45,-3.96 -58.15,-4.13 -58.44,-4.02 -58.27,-6.9 -58.16,-9.82 -57.92,-9.81 -58.06,-9.82 -57.9,-11.76 -57.67,-14.56 -57.4,-15.71 -57.13,-17.96 -57.45,-16.18 -56.9,-19.06 -56.89,-18.98 -56.73,-20.41 -56.3,-21.82 -56.42,-22.6 -55.36,-27.04 -54.92,-28.87 -55.27,-28.58 -54.72,-30.56 -54.38,-31.87 -54.27,-31.35 -54.07,-32.69 -54.07,-33.27 -53.48,-34.36 -52.66,-37.36 -51.89,-39.73 -52.2,-38.92 -51.31,-41.21 -50.75,-42.6 -50.82,-42.67 -50.42,-44.22 -49.07,-46.83 -49.94,-44.89 -49.2,-46.45 -48.26,-48.59 -47.51,-50.78 -46.49,-52.35 -46.94,-51.56 -46.91,-51.6 -46.2,-53.19 -44.24,-56.34 -44.2,-56.8 -43.53,-57.83 -43.21,-58.27 -41.84,-60.52 -41.16,-61.54 -41.87,-60.33 -40.97,-61.8 -40.11,-62.8 -38.85,-64.83 -37.85,-66.33 -37.74,-66.19 -36.24,-67.77 -37.78,-66.16 -34.77,-69.54 -34.54,-69.88 -34.06,-70.32 -33.98,-70.42 -32.43,-72.25 -31.37,-73.37 -31.26,-73.07 -29.81,-74.72 -29.66,-74.61 -28.63,-75.27 -28.58,-75.47 -27.47,-76.74 -27.2,-76.68 -26.41,-77.61 -24.92,-78.66 -23.53,-79.35 -22.6,-79.97 -22.25,-80.41 -21.28,-81 -19.76,-81.83 -19.7,-81.44 -17.81,-82.56 -19.03,-82.12 -15.94,-83.65 -17.11,-83.23 -14.99,-83.78 -14.51,-83.95 -14.29,-84.32 -11.97,-85.1 -12.42,-84.96 -9.95,-85.58 -8.91,-85.58 -9.06,-85.95 -7.69,-85.96 -6.26,-86.19 -7.26,-86.24 -4.8,-86.59 -4.88,-86.4 -4.35,-86.48 -2.31,-86.76 -1.9,-86.65 -1.37,-86.63 0.52,-86.8 1.9,-86.8 1.38,-86.79 2.07,-86.56 4.42,-86.61 4.07,-86.66 4.33,-86.37 6.07,-86.2 7.76,-86.22 9.19,-85.82 9.35,-85.78 10.33,-85.49 10.43,-85.51 11.17,-85.22 12.21,-84.71 13.88,-84.35 14.99,-83.76 14.87,-83.87 15.81,-83.54 17.47,-82.68 18.14,-82.24 18.68,-82.22 19.59,-81.8 20.18,-81.47 22.03,-80.41 22.46,-80.13 23.66,-79.29 24.45,-78.74 24.03,-79.04 26,-77.58 26.23,-77.63 27.14,-77.09 27.68,-76.29 29.35,-75.11 28.87,-75.45 29.86,-74.43 30.53,-74.01 31.87,-72.69 32.62,-71.92 33.68,-70.97 33.11,-71.62 34.69,-69.92 36.09,-68.43 36.53,-67.48 36.94,-67.3 37.62,-66.58 39.01,-64.88 39.54,-63.89 39.9,-63.44 41.2,-61.75 40.69,-62.35 42.23,-59.61 42.43,-59.93 42.91,-58.91 43.9,-56.94 44.17,-56.86 45.11,-54.8 45.64,-54.17 46.84,-51.72 46.16,-52.79 47.56,-50.63 47.8,-50.01 47.71,-50.17 48.52,-48.4 49.01,-47.4 50.25,-44.39 50.37,-43.78 50.18,-44.9 50.62,-42.93 51.68,-40.08 52.29,-38.69 52.14,-38.77 52.83,-37.01 53.55,-34.96 53.75,-33.54 53.82,-34.05 54.09,-33.15 54.41,-31.57 54.71,-29.72 55.42,-28.02 55.94,-25.14 55.72,-25.89 56.5,-21.71 56.41,-23 56.34,-23.33 56.87,-19.14 56.96,-18.78 57.09,-18.15 57.19,-16.67 57.56,-13.64 57.53,-14.46 57.64,-12.74 58.02,-10.8 58.02,-11.02 58.25,-7.7 58.39,-5.33 58.2,-4.65 58.26,-5.12 58.21,-3.37 58.46,-0.83 58.29,-0.08 58.28,1.47" fill="rgb(223, 66, 32)" stroke="black" stroke-width="1.6666666666666665" stroke-linejoin="round" filter="url(#fuzzy)" />
    <g transform="translate(39.010000000000005 -29.02)">
      <polyline id="rightCountour" points="-27.5,-1.93 -27.48,-2.13 -27.43,-2.33 -27.34,-2.54 -27.22,-2.74 -27.06,-2.95 -26.87,-3.15 -26.63,-3.35 -26.37,-3.55 -26.06,-3.75 -25.72,-3.94 -25.34,-4.13 -24.93,-4.31 -24.48,-4.48 -24,-4.65 -23.48,-4.81 -23.09,-5.08 -22.63,-5.34 -22.11,-5.57 -21.53,-5.79 -20.9,-6 -20.21,-6.18 -19.46,-6.34 -18.66,-6.49 -17.82,-6.61 -16.93,-6.72 -16,-6.8 -15.03,-6.87 -14.02,-6.92 -12.99,-6.94 -11.92,-6.96 -10.83,-6.95 -9.73,-6.93 -8.6,-6.89 -7.46,-6.83 -6.31,-6.76 -5.16,-6.68 -4,-6.58 -2.85,-6.48 -1.7,-6.36 -0.55,-6.23 0.58,-6.08 1.7,-5.93 2.81,-5.78 3.89,-5.61 4.96,-5.44 6,-5.26 7.02,-5.08 8.02,-4.89 8.98,-4.7 9.92,-4.51 10.82,-4.32 11.7,-4.12 12.54,-3.93 13.36,-3.73 14.13,-3.54 14.88,-3.34 15.6,-3.15 16.28,-2.96 16.93,-2.77 17.56,-2.58 18.15,-2.4 18.71,-2.22 19.25,-2.04 19.77,-1.87 20.26,-1.7 20.73,-1.53 21.17,-1.37 21.59,-1.21 21.99,-1.05 22.37,-0.9 22.72,-0.75 23.06,-0.6 23.37,-0.46 23.67,-0.32 23.95,-0.18 24.21,-0.05 24.45,0.08 24.68,0.2 24.89,0.32 21.17,4.76 20.83,4.89 20.48,5.02 20.12,5.14 19.75,5.27 19.37,5.39 18.98,5.51 18.59,5.62 18.18,5.74 17.77,5.85 17.34,5.95 16.91,6.06 16.47,6.15 16.02,6.25 15.55,6.34 15.08,6.42 14.6,6.5 14.11,6.58 13.61,6.65 13.09,6.71 12.56,6.77 12.02,6.83 11.47,6.87 10.91,6.91 10.34,6.94 9.76,6.96 9.16,6.97 8.56,6.97 7.94,6.96 7.31,6.94 6.68,6.92 6.03,6.88 5.38,6.83 4.71,6.77 4.04,6.7 3.36,6.63 2.67,6.54 1.97,6.44 1.26,6.34 0.55,6.23 -0.16,6.1 -0.89,5.98 -1.62,5.84 -2.35,5.7 -3.08,5.55 -3.83,5.4 -4.57,5.25 -5.31,5.09 -6.06,4.92 -6.81,4.76 -7.56,4.6 -8.31,4.43 -9.05,4.27 -9.8,4.1 -10.54,3.94 -11.28,3.78 -12.02,3.63 -12.75,3.48 -13.48,3.33 -14.2,3.19 -14.91,3.06 -15.61,2.93 -16.31,2.81 -17,2.69 -17.68,2.59 -18.28,2.44 -18.87,2.3 -19.45,2.16 -20.02,2.02 -20.59,1.87 -21.14,1.73 -21.69,1.58 -22.23,1.44 -22.75,1.29 -23.26,1.14 -23.76,0.98 -24.25,0.83 -24.72,0.67 -25.18,0.5 -25.63,0.33" fill="white" stroke="white" stroke-width="0" stroke-linejoin="round" filter="url(#fuzzy)" />
    </g>
    <g transform="translate(-34.02 -25.78)">
      <polyline id="leftCountour" points="27.63,-1.45 27.64,-1.57 27.62,-1.7 27.56,-1.84 27.47,-1.97 27.34,-2.11 27.17,-2.25 26.96,-2.39 26.71,-2.53 26.42,-2.67 26.1,-2.8 25.74,-2.94 25.34,-3.07 24.9,-3.2 24.43,-3.33 23.92,-3.45 23.55,-3.65 23.11,-3.84 22.61,-4.02 22.05,-4.19 21.42,-4.34 20.73,-4.49 19.98,-4.62 19.18,-4.74 18.33,-4.85 17.43,-4.94 16.48,-5.02 15.49,-5.09 14.46,-5.14 13.4,-5.19 12.31,-5.22 11.19,-5.23 10.04,-5.24 8.88,-5.23 7.71,-5.21 6.52,-5.18 5.33,-5.14 4.14,-5.09 2.94,-5.02 1.75,-4.95 0.56,-4.87 -0.61,-4.79 -1.77,-4.69 -2.92,-4.59 -4.05,-4.48 -5.15,-4.36 -6.23,-4.24 -7.29,-4.11 -8.32,-3.98 -9.32,-3.85 -10.29,-3.71 -11.23,-3.57 -12.13,-3.42 -13.01,-3.28 -13.84,-3.13 -14.65,-2.98 -15.42,-2.84 -16.16,-2.69 -16.86,-2.54 -17.53,-2.39 -18.17,-2.24 -18.78,-2.1 -19.36,-1.95 -19.91,-1.81 -20.43,-1.67 -20.93,-1.53 -21.41,-1.39 -21.86,-1.25 -22.29,-1.12 -22.69,-0.99 -23.07,-0.86 -23.43,-0.73 -23.77,-0.6 -24.09,-0.48 -24.38,-0.35 -24.66,-0.23 -24.92,-0.12 -25.16,0 -25.38,0.11 -25.59,0.22 -22.52,4.03 -22.19,4.14 -21.86,4.25 -21.51,4.36 -21.15,4.46 -20.77,4.56 -20.39,4.66 -20,4.76 -19.6,4.85 -19.18,4.94 -18.76,5.03 -18.32,5.11 -17.87,5.19 -17.41,5.26 -16.94,5.33 -16.45,5.39 -15.95,5.45 -15.44,5.51 -14.91,5.56 -14.37,5.61 -13.82,5.65 -13.25,5.68 -12.66,5.71 -12.06,5.73 -11.44,5.74 -10.81,5.74 -10.16,5.73 -9.5,5.72 -8.83,5.7 -8.14,5.66 -7.43,5.62 -6.71,5.57 -5.98,5.52 -5.24,5.45 -4.49,5.37 -3.72,5.29 -2.94,5.2 -2.16,5.1 -1.36,4.99 -0.56,4.87 0.25,4.75 1.06,4.63 1.88,4.5 2.71,4.36 3.53,4.22 4.36,4.07 5.19,3.93 6.02,3.78 6.85,3.63 7.68,3.48 8.5,3.33 9.31,3.18 10.12,3.04 10.93,2.89 11.72,2.75 12.51,2.61 13.28,2.48 14.04,2.35 14.79,2.23 15.52,2.12 16.24,2.01 16.95,1.91 17.63,1.82 18.3,1.73 18.95,1.65 19.56,1.53 20.17,1.41 20.76,1.29 21.34,1.17 21.91,1.05 22.47,0.93 23.02,0.81 23.55,0.68 24.07,0.56 24.58,0.43 25.08,0.3 25.56,0.16 26.03,0.03 26.48,-0.12 26.92,-0.27" fill="white" stroke="white" stroke-width="0" stroke-linejoin="round" filter="url(#fuzzy)" />
    </g>
    <g transform="translate(39.010000000000005 -29.02)">
      <polyline id="rightUpper" points="-26.02,-0.48 -26.28,-0.55 -26.52,-0.65 -26.74,-0.77 -26.93,-0.9 -27.1,-1.04 -27.24,-1.2 -27.36,-1.37 -27.44,-1.55 -27.49,-1.74 -27.5,-1.93 -27.48,-2.13 -27.43,-2.33 -27.34,-2.54 -27.22,-2.74 -27.06,-2.95 -26.87,-3.15 -26.63,-3.35 -26.37,-3.55 -26.06,-3.75 -25.72,-3.94 -25.34,-4.13 -24.93,-4.31 -24.48,-4.48 -24,-4.65 -23.48,-4.81 -23.09,-5.08 -22.63,-5.34 -22.11,-5.57 -21.53,-5.79 -20.9,-6 -20.21,-6.18 -19.46,-6.34 -18.66,-6.49 -17.82,-6.61 -16.93,-6.72 -16,-6.8 -15.03,-6.87 -14.02,-6.92 -12.99,-6.94 -11.92,-6.96 -10.83,-6.95 -9.73,-6.93 -8.6,-6.89 -7.46,-6.83 -6.31,-6.76 -5.16,-6.68 -4,-6.58 -2.85,-6.48 -1.7,-6.36 -0.55,-6.23 0.58,-6.08 1.7,-5.93 2.81,-5.78 3.89,-5.61 4.96,-5.44 6,-5.26 7.02,-5.08 8.02,-4.89 8.98,-4.7 9.92,-4.51 10.82,-4.32 11.7,-4.12 12.54,-3.93 13.36,-3.73 14.13,-3.54 14.88,-3.34 15.6,-3.15 16.28,-2.96 16.93,-2.77 17.56,-2.58 18.15,-2.4 18.71,-2.22 19.25,-2.04 19.77,-1.87 20.26,-1.7 20.73,-1.53 21.17,-1.37 21.59,-1.21 21.99,-1.05 22.37,-0.9 22.72,-0.75 23.06,-0.6 23.37,-0.46 23.67,-0.32 23.95,-0.18 24.21,-0.05 24.45,0.08 24.68,0.2 24.89,0.32 25.09,0.44 25.27,0.56 25.44,0.67 25.6,0.78 25.75,0.88 25.88,0.98 26.01,1.08 26.12,1.18 26.23,1.27 26.32,1.36" fill="none" stroke="black" stroke-width="1.6666666666666665" stroke-linejoin="round" filter="url(#fuzzy)" />
      <polyline id="rightLower" points="-29,-1.81 -28.77,-1.55 -28.5,-1.29 -28.22,-1.05 -27.91,-0.83 -27.58,-0.61 -27.22,-0.41 -26.85,-0.21 -26.46,-0.02 -26.05,0.16 -25.63,0.33 -25.18,0.5 -24.72,0.67 -24.25,0.83 -23.76,0.98 -23.26,1.14 -22.75,1.29 -22.23,1.44 -21.69,1.58 -21.14,1.73 -20.59,1.87 -20.02,2.02 -19.45,2.16 -18.87,2.3 -18.28,2.44 -17.68,2.59 -17,2.69 -16.31,2.81 -15.61,2.93 -14.91,3.06 -14.2,3.19 -13.48,3.33 -12.75,3.48 -12.02,3.63 -11.28,3.78 -10.54,3.94 -9.8,4.1 -9.05,4.27 -8.31,4.43 -7.56,4.6 -6.81,4.76 -6.06,4.92 -5.31,5.09 -4.57,5.25 -3.83,5.4 -3.08,5.55 -2.35,5.7 -1.62,5.84 -0.89,5.98 -0.16,6.1 0.55,6.23 1.26,6.34 1.97,6.44 2.67,6.54 3.36,6.63 4.04,6.7 4.71,6.77 5.38,6.83 6.03,6.88 6.68,6.92 7.31,6.94 7.94,6.96 8.56,6.97 9.16,6.97 9.76,6.96 10.34,6.94 10.91,6.91 11.47,6.87 12.02,6.83 12.56,6.77 13.09,6.71 13.61,6.65 14.11,6.58 14.6,6.5 15.08,6.42 15.55,6.34 16.02,6.25 16.47,6.15 16.91,6.06 17.34,5.95 17.77,5.85 18.18,5.74 18.59,5.62 18.98,5.51 19.37,5.39 19.75,5.27 20.12,5.14 20.48,5.02 20.83,4.89 21.17,4.76 21.51,4.63 21.83,4.5 22.15,4.37 22.46,4.24 22.76,4.11 23.05,3.98 23.33,3.85 23.61,3.72 23.88,3.59 24.14,3.46" fill="none" stroke="black" stroke-width="2.2222222222222223" stroke-linejoin="round" filter="url(#fuzzy)" />
      <circle r="4.4719999999999995" cx="-16.567802307678036" cy="-6.543951323729713" stroke="black" fill="none" stroke-width="1.0" filter="url(#fuzzy)" clip-path="url(#rightEyeClipPath)" /><circle r="4.71" cx="-17.162802307678035" cy="-1.7289513237297127" stroke="black" fill="none" stroke-width="1.0" filter="url(#fuzzy)" clip-path="url(#rightEyeClipPath)" /><circle r="3.064" cx="-14.352802307678036" cy="-1.7089513237297123" stroke="black" fill="none" stroke-width="1.0" filter="url(#fuzzy)" clip-path="url(#rightEyeClipPath)" /><circle r="4.33" cx="-14.502802307678035" cy="-4.008951323729713" stroke="black" fill="none" stroke-width="1.0" filter="url(#fuzzy)" clip-path="url(#rightEyeClipPath)" /><circle r="3.166" cx="-18.917802307678038" cy="-5.178951323729713" stroke="black" fill="none" stroke-width="1.0" filter="url(#fuzzy)" clip-path="url(#rightEyeClipPath)" /><circle r="4.85" cx="-16.862802307678038" cy="-4.428951323729713" stroke="black" fill="none" stroke-width="1.0" filter="url(#fuzzy)" clip-path="url(#rightEyeClipPath)" /><circle r="4.474" cx="-14.127802307678037" cy="-4.248951323729713" stroke="black" fill="none" stroke-width="1.0" filter="url(#fuzzy)" clip-path="url(#rightEyeClipPath)" /><circle r="4.366" cx="-15.762802307678037" cy="-3.843951323729713" stroke="black" fill="none" stroke-width="1.0" filter="url(#fuzzy)" clip-path="url(#rightEyeClipPath)" /><circle r="3.68" cx="-17.567802307678036" cy="-3.1639513237297128" stroke="black" fill="none" stroke-width="1.0" filter="url(#fuzzy)" clip-path="url(#rightEyeClipPath)" /><circle r="3.376" cx="-17.097802307678037" cy="-5.458951323729712" stroke="black" fill="none" stroke-width="1.0" filter="url(#fuzzy)" clip-path="url(#rightEyeClipPath)" />
      </g>
    <g transform="translate(-34.02 -25.78)">
      <polyline id="leftUpper" points="25.8,-0.71 26.09,-0.72 26.37,-0.76 26.62,-0.8 26.85,-0.86 27.05,-0.94 27.23,-1.02 27.38,-1.12 27.49,-1.22 27.58,-1.33 27.63,-1.45 27.64,-1.57 27.62,-1.7 27.56,-1.84 27.47,-1.97 27.34,-2.11 27.17,-2.25 26.96,-2.39 26.71,-2.53 26.42,-2.67 26.1,-2.8 25.74,-2.94 25.34,-3.07 24.9,-3.2 24.43,-3.33 23.92,-3.45 23.55,-3.65 23.11,-3.84 22.61,-4.02 22.05,-4.19 21.42,-4.34 20.73,-4.49 19.98,-4.62 19.18,-4.74 18.33,-4.85 17.43,-4.94 16.48,-5.02 15.49,-5.09 14.46,-5.14 13.4,-5.19 12.31,-5.22 11.19,-5.23 10.04,-5.24 8.88,-5.23 7.71,-5.21 6.52,-5.18 5.33,-5.14 4.14,-5.09 2.94,-5.02 1.75,-4.95 0.56,-4.87 -0.61,-4.79 -1.77,-4.69 -2.92,-4.59 -4.05,-4.48 -5.15,-4.36 -6.23,-4.24 -7.29,-4.11 -8.32,-3.98 -9.32,-3.85 -10.29,-3.71 -11.23,-3.57 -12.13,-3.42 -13.01,-3.28 -13.84,-3.13 -14.65,-2.98 -15.42,-2.84 -16.16,-2.69 -16.86,-2.54 -17.53,-2.39 -18.17,-2.24 -18.78,-2.1 -19.36,-1.95 -19.91,-1.81 -20.43,-1.67 -20.93,-1.53 -21.41,-1.39 -21.86,-1.25 -22.29,-1.12 -22.69,-0.99 -23.07,-0.86 -23.43,-0.73 -23.77,-0.6 -24.09,-0.48 -24.38,-0.35 -24.66,-0.23 -24.92,-0.12 -25.16,0 -25.38,0.11 -25.59,0.22 -25.78,0.33 -25.96,0.44 -26.13,0.54 -26.28,0.64 -26.42,0.74 -26.54,0.83 -26.66,0.93 -26.77,1.02 -26.86,1.11 -26.95,1.2" fill="none" stroke="black" stroke-width="2.2222222222222223" stroke-linejoin="round" filter="url(#fuzzy)" />
      <polyline id="leftLower" points="30.48,-2.25 30.19,-1.99 29.89,-1.75 29.58,-1.53 29.24,-1.32 28.9,-1.12 28.53,-0.93 28.15,-0.75 27.76,-0.58 27.35,-0.42 26.92,-0.27 26.48,-0.12 26.03,0.03 25.56,0.16 25.08,0.3 24.58,0.43 24.07,0.56 23.55,0.68 23.02,0.81 22.47,0.93 21.91,1.05 21.34,1.17 20.76,1.29 20.17,1.41 19.56,1.53 18.95,1.65 18.3,1.73 17.63,1.82 16.95,1.91 16.24,2.01 15.52,2.12 14.79,2.23 14.04,2.35 13.28,2.48 12.51,2.61 11.72,2.75 10.93,2.89 10.12,3.04 9.31,3.18 8.5,3.33 7.68,3.48 6.85,3.63 6.02,3.78 5.19,3.93 4.36,4.07 3.53,4.22 2.71,4.36 1.88,4.5 1.06,4.63 0.25,4.75 -0.56,4.87 -1.36,4.99 -2.16,5.1 -2.94,5.2 -3.72,5.29 -4.49,5.37 -5.24,5.45 -5.98,5.52 -6.71,5.57 -7.43,5.62 -8.14,5.66 -8.83,5.7 -9.5,5.72 -10.16,5.73 -10.81,5.74 -11.44,5.74 -12.06,5.73 -12.66,5.71 -13.25,5.68 -13.82,5.65 -14.37,5.61 -14.91,5.56 -15.44,5.51 -15.95,5.45 -16.45,5.39 -16.94,5.33 -17.41,5.26 -17.87,5.19 -18.32,5.11 -18.76,5.03 -19.18,4.94 -19.6,4.85 -20,4.76 -20.39,4.66 -20.77,4.56 -21.15,4.46 -21.51,4.36 -21.86,4.25 -22.19,4.14 -22.52,4.03 -22.84,3.92 -23.15,3.81 -23.46,3.7 -23.75,3.58 -24.03,3.47 -24.3,3.35 -24.57,3.24 -24.83,3.12 -25.08,3.01 -25.32,2.89" fill="none" stroke="black" stroke-width="2.2222222222222223" stroke-linejoin="round" filter="url(#fuzzy)" />
      <circle r="4.676" cx="-7.562577068414345" cy="0.6511904850186565" stroke="black" fill="none" stroke-width="1.0" filter="url(#fuzzy)" clip-path="url(#leftEyeClipPath)" /><circle r="3.35" cx="-5.917577068414346" cy="2.7011904850186568" stroke="black" fill="none" stroke-width="1.0" filter="url(#fuzzy)" clip-path="url(#leftEyeClipPath)" /><circle r="3.248" cx="-6.917577068414346" cy="-0.35380951498134383" stroke="black" fill="none" stroke-width="1.0" filter="url(#fuzzy)" clip-path="url(#leftEyeClipPath)" /><circle r="4.562" cx="-4.282577068414345" cy="3.191190485018657" stroke="black" fill="none" stroke-width="1.0" filter="url(#fuzzy)" clip-path="url(#leftEyeClipPath)" /><circle r="4.96" cx="-6.952577068414345" cy="0.48619048501865647" stroke="black" fill="none" stroke-width="1.0" filter="url(#fuzzy)" clip-path="url(#leftEyeClipPath)" /><circle r="3.056" cx="-4.732577068414345" cy="2.6261904850186566" stroke="black" fill="none" stroke-width="1.0" filter="url(#fuzzy)" clip-path="url(#leftEyeClipPath)" /><circle r="4.328" cx="-7.507577068414346" cy="2.8861904850186555" stroke="black" fill="none" stroke-width="1.0" filter="url(#fuzzy)" clip-path="url(#leftEyeClipPath)" /><circle r="3.914" cx="-7.452577068414346" cy="-0.35380951498134383" stroke="black" fill="none" stroke-width="1.0" filter="url(#fuzzy)" clip-path="url(#leftEyeClipPath)" /><circle r="4.302" cx="-7.672577068414346" cy="0.5961904850186563" stroke="black" fill="none" stroke-width="1.0" filter="url(#fuzzy)" clip-path="url(#leftEyeClipPath)" /><circle r="4.364" cx="-7.632577068414346" cy="0.46119048501865656" stroke="black" fill="none" stroke-width="1.0" filter="url(#fuzzy)" clip-path="url(#leftEyeClipPath)" />
    </g>
    <g id="hairs">
      <polyline points="-31.37,-73.37 -30.8,-73.6 -29.78,-74.16 -28.57,-74.71 -27.19,-75.26 -25.63,-75.84 -23.86,-76.46 -21.88,-77.13 -19.71,-77.83 -17.39,-78.55 -14.99,-79.26 -12.54,-79.93 -10.08,-80.57 -7.64,-81.15 -5.24,-81.69 -2.89,-82.2 -0.61,-82.69 1.59,-83.16 3.69,-83.62 5.64,-84.08 7.37,-84.55 8.92,-85.04" fill="none" stroke="url(#rainbowGradient)" stroke-width="2" stroke-linejoin="round" filter="url(#fuzzy)" /><polyline points="-9.95,-85.58 -9.23,-85.68 -8.6,-85.82 -7.95,-85.95 -7.34,-86.05 -6.8,-86.12 -6.33,-86.14 -5.92,-86.12 -5.6,-86.05 -5.38,-85.92 -5.29,-85.74 -5.39,-85.49 -5.69,-85.17 -6.25,-84.75 -7.07,-84.24 -8.19,-83.62 -9.58,-82.89 -11.25,-82.04 -13.16,-81.09 -15.3,-80.05 -17.69,-78.93 -20.38,-77.75 -23.45,-76.49 -27,-75.07" fill="none" stroke="url(#rainbowGradient)" stroke-width="2" stroke-linejoin="round" filter="url(#fuzzy)" /><polyline points="36.09,-68.43 36.45,-67.77 36.76,-67.27 36.99,-66.75 37.02,-66.28 36.78,-65.95 36.23,-65.81 35.36,-65.89 34.14,-66.18 32.58,-66.68 30.65,-67.38 28.32,-68.31 25.57,-69.47 22.37,-70.89 18.7,-72.58 14.56,-74.59 9.91,-76.95 4.76,-79.68 -0.84,-82.77" fill="none" stroke="url(#rainbowGradient)" stroke-width="2" stroke-linejoin="round" filter="url(#fuzzy)" /><polyline points="4.33,-86.37 5.98,-86.22 7.44,-86.03 8.66,-85.8 9.67,-85.54 10.6,-85.26 11.51,-84.94 12.46,-84.6 13.42,-84.25 14.35,-83.9 15.22,-83.58 15.98,-83.29 16.62,-83.03 17.13,-82.82 17.48,-82.67 17.68,-82.58 17.69,-82.56 17.5,-82.61 17.1,-82.73 16.43,-82.96 15.48,-83.3 14.25,-83.77 12.83,-84.35 11.26,-85" fill="none" stroke="url(#rainbowGradient)" stroke-width="2" stroke-linejoin="round" filter="url(#fuzzy)" /><polyline points="-24.92,-78.66 -23.57,-79.19 -22.05,-79.48 -20.2,-79.56 -17.96,-79.45 -15.36,-79.15 -12.47,-78.69 -9.31,-78.1 -5.89,-77.4 -2.21,-76.6 1.69,-75.69 5.82,-74.68 10.14,-73.59 14.62,-72.42 19.25,-71.19 23.97,-69.91 28.72,-68.61 33.38,-67.41" fill="none" stroke="url(#rainbowGradient)" stroke-width="2" stroke-linejoin="round" filter="url(#fuzzy)" /><polyline points="29.86,-74.43 30.71,-73.73 31.68,-72.81 32.59,-71.9 33.45,-71.02 34.3,-70.12 35.16,-69.17 35.99,-68.23 36.76,-67.34 37.45,-66.54 38.02,-65.87 38.46,-65.34 38.74,-64.97 38.84,-64.81 38.75,-64.86 38.44,-65.17 37.91,-65.75 37.15,-66.61 36.17,-67.73 35.01,-69.05 33.62,-70.64" fill="none" stroke="url(#rainbowGradient)" stroke-width="2" stroke-linejoin="round" filter="url(#fuzzy)" /><polyline points="14.99,-83.76 15.36,-83.59 16.39,-82.97 17.72,-82.11 19.15,-81.13 20.64,-80.05 22.21,-78.89 23.86,-77.64 25.54,-76.32 27.21,-74.98 28.82,-73.67 30.34,-72.4 31.78,-71.21 33.11,-70.11 34.32,-69.12 35.37,-68.3 36.19,-67.71 36.7,-67.42" fill="none" stroke="url(#rainbowGradient)" stroke-width="2" stroke-linejoin="round" filter="url(#fuzzy)" /><polyline points="27.14,-77.09 27.79,-76.35 28.27,-75.84 28.48,-75.5 28.46,-75.26 28.23,-75.08 27.71,-75.02 26.85,-75.14 25.59,-75.45 23.92,-75.97 21.81,-76.68 19.24,-77.6 16.13,-78.78 12.39,-80.27 7.98,-82.08 3.02,-84.21" fill="none" stroke="url(#rainbowGradient)" stroke-width="2" stroke-linejoin="round" filter="url(#fuzzy)" /><polyline points="-24.92,-78.66 -23.54,-79.15 -21.92,-79.35 -19.9,-79.3 -17.43,-79 -14.54,-78.48 -11.29,-77.72 -7.69,-76.76 -3.77,-75.61 0.47,-74.3 4.98,-72.86 9.75,-71.31 14.74,-69.69 19.91,-68.02 25.24,-66.28 30.72,-64.45 36.36,-62.37" fill="none" stroke="url(#rainbowGradient)" stroke-width="2" stroke-linejoin="round" filter="url(#fuzzy)" /><polyline points="42.91,-58.91 43.62,-57.56 44.12,-56.6 44.49,-55.77 44.7,-55.12 44.7,-54.72 44.48,-54.59 44.03,-54.71 43.37,-55.06 42.49,-55.59 41.39,-56.31 40.04,-57.25 38.4,-58.47 36.46,-60.02 34.18,-61.92 31.55,-64.16 28.57,-66.76 25.26,-69.74 21.65,-73.13 17.76,-76.94 13.58,-81.16" fill="none" stroke="url(#rainbowGradient)" stroke-width="2" stroke-linejoin="round" filter="url(#fuzzy)" /><polyline points="28.87,-75.45 29.75,-74.61 30.61,-73.84 31.4,-73.1 32.06,-72.47 32.58,-71.93 32.99,-71.45 33.29,-71.04 33.45,-70.71 33.44,-70.51 33.21,-70.47 32.75,-70.61 32.05,-70.92 31.09,-71.44 29.84,-72.18 28.28,-73.18 26.4,-74.43 24.2,-75.96 21.66,-77.76 18.69,-79.86 15.17,-82.33" fill="none" stroke="url(#rainbowGradient)" stroke-width="2" stroke-linejoin="round" filter="url(#fuzzy)" /><polyline points="42.91,-58.91 43.67,-57.5 44.34,-56.33 44.99,-55.16 45.59,-54.07 46.08,-53.17 46.42,-52.52 46.62,-52.16 46.64,-52.1 46.49,-52.32 46.16,-52.84 45.63,-53.69 44.86,-54.96 43.79,-56.8 42.42,-59.29" fill="none" stroke="url(#rainbowGradient)" stroke-width="2" stroke-linejoin="round" filter="url(#fuzzy)" /><polyline points="-28.63,-75.27 -28.26,-75.74 -27.59,-76.38 -26.75,-77.08 -25.78,-77.81 -24.73,-78.55 -23.69,-79.26 -22.73,-79.89 -21.86,-80.43 -21.12,-80.88 -20.5,-81.24 -20.03,-81.49 -19.73,-81.63 -19.6,-81.67 -19.67,-81.57 -19.95,-81.34 -20.44,-80.95 -21.15,-80.41 -22.06,-79.73 -23.16,-78.91 -24.47,-77.95 -26,-76.88 -27.8,-75.75" fill="none" stroke="url(#rainbowGradient)" stroke-width="2" stroke-linejoin="round" filter="url(#fuzzy)" /><polyline points="29.35,-75.11 29.36,-75.02 29.9,-74.5 30.62,-73.83 31.35,-73.15 31.98,-72.55 32.48,-72.05 32.85,-71.62 33.09,-71.28 33.18,-71.05 33.09,-70.95 32.78,-71.04 32.23,-71.34 31.39,-71.86 30.25,-72.64 28.77,-73.68 26.96,-74.99 24.84,-76.58 22.38,-78.44 19.49,-80.69" fill="none" stroke="url(#rainbowGradient)" stroke-width="2" stroke-linejoin="round" filter="url(#fuzzy)" /><polyline points="39.9,-63.44 40.65,-62.41 41.06,-61.72 41.36,-61.14 41.52,-60.74 41.49,-60.53 41.25,-60.54 40.78,-60.84 40.01,-61.46 38.91,-62.5 37.41,-64.02 35.48,-66.05 33.12,-68.61 30.34,-71.69 27.2,-75.25" fill="none" stroke="url(#rainbowGradient)" stroke-width="2" stroke-linejoin="round" filter="url(#fuzzy)" /><polyline points="27.68,-76.29 28.69,-75.56 29.28,-75.05 29.91,-74.48 30.59,-73.85 31.26,-73.23 31.85,-72.66 32.32,-72.17 32.67,-71.76 32.9,-71.42 32.98,-71.19 32.89,-71.08 32.6,-71.14 32.08,-71.38 31.3,-71.82 30.26,-72.47 28.93,-73.33 27.32,-74.44 25.39,-75.79 23.13,-77.43 20.53,-79.37 17.68,-81.55" fill="none" stroke="url(#rainbowGradient)" stroke-width="2" stroke-linejoin="round" filter="url(#fuzzy)" /><polyline points="2.07,-86.56 3.49,-86.58 4.24,-86.53 5,-86.41 5.86,-86.28 6.7,-86.14 7.37,-86 7.83,-85.85 8.08,-85.69 8.15,-85.53 8.07,-85.34 7.85,-85.14 7.44,-84.94 6.82,-84.74 5.94,-84.54 4.75,-84.35 3.24,-84.17 1.38,-83.98 -0.82,-83.8 -3.37,-83.61 -6.25,-83.44 -9.45,-83.3 -12.89,-83.3" fill="none" stroke="url(#rainbowGradient)" stroke-width="2" stroke-linejoin="round" filter="url(#fuzzy)" /><polyline points="-19.7,-81.44 -18.4,-82 -17,-82.07 -15.14,-81.88 -12.85,-81.42 -10.15,-80.73 -7.07,-79.83 -3.64,-78.75 0.13,-77.5 4.17,-76.09 8.43,-74.56 12.85,-72.92 17.38,-71.19 21.99,-69.38 26.7,-67.48 31.48,-65.51 36.26,-63.57" fill="none" stroke="url(#rainbowGradient)" stroke-width="2" stroke-linejoin="round" filter="url(#fuzzy)" /><polyline points="22.46,-80.13 23.33,-79.49 23.77,-79.06 23.99,-78.69 24.06,-78.32 23.92,-77.95 23.53,-77.6 22.87,-77.27 21.9,-76.97 20.62,-76.72 19.02,-76.49 17.09,-76.3 14.81,-76.16 12.13,-76.07 9.03,-76.04 5.47,-76.06 1.44,-76.12 -3.09,-76.21 -8.19,-76.33 -13.94,-76.47 -20.35,-76.61" fill="none" stroke="url(#rainbowGradient)" stroke-width="2" stroke-linejoin="round" filter="url(#fuzzy)" /><polyline points="6.07,-86.2 7.67,-85.92 9.26,-85.19 10.92,-84.12 12.76,-82.73 14.88,-81.07 17.29,-79.15 19.99,-76.99 22.9,-74.63 25.96,-72.1 29.08,-69.44 32.25,-66.68 35.43,-63.89 38.55,-61.21 41.49,-58.78" fill="none" stroke="url(#rainbowGradient)" stroke-width="2" stroke-linejoin="round" filter="url(#fuzzy)" /><polyline points="50.37,-43.78 50.4,-43.84 50.67,-42.81 50.94,-41.68 51.07,-40.78 51.02,-40.18 50.79,-39.86 50.36,-39.82 49.73,-40.06 48.9,-40.57 47.87,-41.3 46.64,-42.24 45.2,-43.39 43.53,-44.8 41.61,-46.54 39.42,-48.67 36.94,-51.23 34.17,-54.23 31.12,-57.63 27.83,-61.4 24.29,-65.54 20.48,-70.06 16.3,-75.01 11.57,-80.38" fill="none" stroke="url(#rainbowGradient)" stroke-width="2" stroke-linejoin="round" filter="url(#fuzzy)" /><polyline points="-32.43,-72.25 -31.55,-73.03 -30.6,-73.73 -29.5,-74.5 -28.31,-75.31 -27.06,-76.15 -25.78,-77.03 -24.46,-77.94 -23.15,-78.87 -21.85,-79.77 -20.62,-80.62 -19.53,-81.36 -18.63,-81.97 -18,-82.43 -17.65,-82.73 -17.71,-82.78" fill="none" stroke="url(#rainbowGradient)" stroke-width="2" stroke-linejoin="round" filter="url(#fuzzy)" /><polyline points="23.66,-79.29 24.15,-78.94 24.59,-78.6 25.06,-78.22 25.45,-77.84 25.69,-77.49 25.76,-77.18 25.62,-76.93 25.28,-76.74 24.71,-76.62 23.91,-76.56 22.85,-76.59 21.52,-76.71 19.89,-76.94 17.95,-77.29 15.68,-77.75 13.09,-78.33 10.13,-79.05 6.77,-79.94 2.99,-81 -1.27,-82.22 -6.22,-83.56" fill="none" stroke="url(#rainbowGradient)" stroke-width="2" stroke-linejoin="round" filter="url(#fuzzy)" /><polyline points="-21.28,-81 -20.12,-81.5 -19.11,-81.85 -18.05,-82.23 -16.88,-82.65 -15.62,-83.06 -14.27,-83.46 -12.86,-83.85 -11.41,-84.23 -9.96,-84.59 -8.53,-84.95 -7.16,-85.29 -5.88,-85.59 -4.72,-85.85 -3.71,-86.08 -2.86,-86.26 -2.22,-86.42 -1.79,-86.53 -1.63,-86.61 -1.75,-86.65 -2.06,-86.67" fill="none" stroke="url(#rainbowGradient)" stroke-width="2" stroke-linejoin="round" filter="url(#fuzzy)" /><polyline points="-32.43,-72.25 -31.6,-73.01 -30.81,-73.65 -29.98,-74.3 -29.15,-74.96 -28.33,-75.61 -27.53,-76.27 -26.72,-76.93 -25.92,-77.59 -25.14,-78.21 -24.43,-78.75 -23.85,-79.19 -23.46,-79.46 -23.32,-79.55 -23.45,-79.43 -23.84,-79.1 -24.49,-78.56 -25.37,-77.85 -26.48,-76.95 -27.83,-75.9" fill="none" stroke="url(#rainbowGradient)" stroke-width="2" stroke-linejoin="round" filter="url(#fuzzy)" /><polyline points="-19.03,-82.12 -16.99,-82.89 -15.3,-82.95 -13.24,-82.71 -10.72,-82.3 -7.75,-81.73 -4.37,-81 -0.63,-80.12 3.39,-79.09 7.61,-77.94 11.96,-76.69 16.4,-75.36 20.96,-73.94 25.61,-72.45 30.3,-71.02" fill="none" stroke="url(#rainbowGradient)" stroke-width="2" stroke-linejoin="round" filter="url(#fuzzy)" /><polyline points="2.07,-86.56 3.39,-86.54 3.84,-86.37 4.09,-86.04 4.25,-85.58 4.18,-84.99 3.74,-84.27 2.85,-83.4 1.51,-82.39 -0.25,-81.2 -2.4,-79.81 -4.96,-78.2 -7.96,-76.35 -11.44,-74.29 -15.43,-72.04 -19.9,-69.66 -24.87,-67.13 -30.43,-64.33 -36.7,-61.14" fill="none" stroke="url(#rainbowGradient)" stroke-width="2" stroke-linejoin="round" filter="url(#fuzzy)" /><polyline points="-26.41,-77.61 -25.03,-78.5 -23.83,-79.23 -22.78,-79.88 -21.81,-80.47 -20.87,-81.01 -19.99,-81.49 -19.17,-81.92 -18.43,-82.3 -17.78,-82.63 -17.23,-82.91 -16.78,-83.11 -16.45,-83.25 -16.25,-83.3 -16.2,-83.26 -16.33,-83.13 -16.67,-82.87 -17.26,-82.47 -18.16,-81.9 -19.41,-81.15 -21.05,-80.19 -23.06,-79.04 -25.29,-77.79" fill="none" stroke="url(#rainbowGradient)" stroke-width="2" stroke-linejoin="round" filter="url(#fuzzy)" /><polyline points="2.07,-86.56 3.55,-86.55 4.47,-86.42 5.52,-86.19 6.79,-85.9 8.16,-85.58 9.5,-85.24 10.75,-84.88 11.91,-84.5 13.01,-84.11 14.08,-83.72 15.13,-83.32 16.12,-82.95 17.02,-82.61 17.78,-82.33 18.38,-82.12 18.78,-81.99 18.98,-81.94 18.98,-81.98 18.77,-82.09 18.33,-82.29 17.58,-82.63 16.41,-83.18" fill="none" stroke="url(#rainbowGradient)" stroke-width="2" stroke-linejoin="round" filter="url(#fuzzy)" /><polyline points="-22.25,-80.41 -21.25,-80.96 -20.34,-81.4 -19.6,-81.73 -19.03,-82 -18.6,-82.21 -18.34,-82.3 -18.28,-82.25 -18.44,-82.03 -18.84,-81.64 -19.51,-81.08 -20.45,-80.34 -21.73,-79.39 -23.41,-78.22 -25.58,-76.77 -28.32,-75.05" fill="none" stroke="url(#rainbowGradient)" stroke-width="2" stroke-linejoin="round" filter="url(#fuzzy)" /><polyline points="18.68,-82.22 0.12,-71.9 9.48,-70.17 16.84,-69.4 17.24,-67.94 12.29,-66.34 5.47,-65.71 0.31,-66.67 -1.11,-68.83 1.2,-71.06 5.73,-72.23 10.82,-71.88 15.56,-70.4 19.87,-68.67 23.77,-67.66 26.67,-68.06 27.49,-70.16 25.6,-73.72 21.48,-77.79 16.01,-81.21 8.17,-83.45 -8.91,-85.58" fill="none" stroke="url(#rainbowGradient)" stroke-width="2" stroke-linejoin="round" filter="url(#fuzzy)" /><polyline points="9.35,-85.78 -0.66,-73.94 13.44,-67.73 23.75,-64.08 25.84,-62.39 21.67,-62.23 15.13,-62.81 9.69,-63.41 6.81,-63.9 6.02,-64.45 6.22,-65.14 6.95,-65.7 8.5,-65.81 11.21,-65.38 14.71,-64.77 17.97,-64.51 20.05,-64.98 20.92,-66.1 21.65,-67.36 23.51,-68.1 26.65,-67.94 29.14,-67.19 27.15,-67.07 15.94,-69.06 -7.91,-71.62 -40.11,-62.8" fill="none" stroke="url(#rainbowGradient)" stroke-width="2" stroke-linejoin="round" filter="url(#fuzzy)" /><polyline points="18.68,-82.22 27.37,-59.6 21.48,-58.43 16.56,-60.7 15.19,-62.22 17.4,-62.26 20.64,-62.36 21.95,-64.3 20.15,-68.37 16.13,-73.52 11.84,-78.28 8.97,-81.67 7.96,-83.35 7.53,-83.47 5.31,-82.24 0.51,-79.56 -0.11,-75.5 30.53,-74.01" fill="none" stroke="url(#rainbowGradient)" stroke-width="2" stroke-linejoin="round" filter="url(#fuzzy)" /><polyline points="39.54,-63.89 15.9,-75.06 9.09,-75.56 5.08,-73.21 1.8,-71.16 -0.78,-70.12 -2.74,-69.46 -3.98,-68.75 -3.44,-68.26 0.26,-68.44 7.02,-68.88 14.26,-68.18 17.75,-65.13 13.81,-61.38 5.16,-63.57 26.23,-77.63" fill="none" stroke="url(#rainbowGradient)" stroke-width="2" stroke-linejoin="round" filter="url(#fuzzy)" /><polyline points="22.03,-80.41 3.27,-77.37 2.34,-75.23 0.72,-73.41 -2.52,-72.4 -5.68,-72.94 -7.65,-74.76 -8.2,-76.71 -7.46,-77.55 -5.4,-76.62 -2.01,-74.18 2,-71.32 4.97,-69.42 4.91,-69.44 1.23,-71.34 -3.85,-74.05 -5.69,-75.94 0.06,-75.34 13.95,-70.95 29.83,-64.82 28.87,-75.45" fill="none" stroke="url(#rainbowGradient)" stroke-width="2" stroke-linejoin="round" filter="url(#fuzzy)" /><polyline points="17.47,-82.68 -13.04,-75.62 -16.59,-75.01 -9.84,-75.42 -2.96,-76.38 -0.88,-77.18 -2.99,-76.88 -5.87,-75.15 -6.57,-72.65 -4.13,-70.61 0.71,-70.15 6.56,-71.6 12.14,-74.27 16.69,-76.53 21.41,-76.22 36.94,-67.3" fill="none" stroke="url(#rainbowGradient)" stroke-width="2" stroke-linejoin="round" filter="url(#fuzzy)" /><polyline points="6.07,-86.2 -15.81,-73.84 -10.19,-70.23 -2.19,-70.74 -1.04,-71.51 -4.03,-70.32 -6.2,-67.5 -5.94,-64.8 -5.25,-63.67 -6.63,-64.35 -10.25,-66.04 -13.72,-67.6 -14.27,-68.18 -11.28,-67.73 -6.64,-67.19 -2.41,-68.27 1.19,-71.81 0.55,-75.2 -28.63,-75.27" fill="none" stroke="url(#rainbowGradient)" stroke-width="2" stroke-linejoin="round" filter="url(#fuzzy)" /><polyline points="2.07,-86.56 30.55,-60.7 35.55,-56.13 32.9,-60.26 27.89,-64.92 20.49,-68.15 11.7,-69.75 4.41,-69.73 0.8,-68.64 0.31,-67.65 0.45,-67.76 -0.51,-69.35 -1.1,-72.31 2.86,-76.36 12.03,-80.41 11.17,-85.22" fill="none" stroke="url(#rainbowGradient)" stroke-width="2" stroke-linejoin="round" filter="url(#fuzzy)" /><polyline points="10.33,-85.49 -1.99,-84.29 1.58,-79.97 9.36,-74.9 13.2,-72.24 11.86,-71.91 7.18,-72.05 0.97,-71.21 -5.5,-69.04 -10.67,-65.97 -12.66,-62.72 -10.12,-59.94 -3.19,-58.16 6.28,-57.71 15.46,-58.79 21.84,-61.41 24.25,-65.34 23.08,-69.99 19.91,-74.33 16.55,-77.02 14.17,-76.76 12.68,-72.8 10.72,-65.26 2.95,-56.57 -41.84,-60.52" fill="none" stroke="url(#rainbowGradient)" stroke-width="2" stroke-linejoin="round" filter="url(#fuzzy)" /><polyline points="17.47,-82.68 19.98,-73.03 10.64,-69.1 -0.77,-65.01 -10.56,-61.03 -15.81,-57.98 -16.78,-56.6 -15.38,-57.31 -12.89,-59.79 -9.65,-63.12 -6.15,-66.22 -3.5,-68.38 -2.85,-69.43 -4.19,-69.61 -5.9,-69.35 -5.59,-69.03 -1.85,-68.91 4.28,-68.99 9.92,-68.82 14.84,-66.9 27.4,-58.83 54.09,-33.15" fill="none" stroke="url(#rainbowGradient)" stroke-width="2" stroke-linejoin="round" filter="url(#fuzzy)" /><polyline points="-27.2,-76.68 -0.16,-66.97 1.16,-64.95 6.75,-62.54 12.42,-61.38 12.85,-63.37 8.89,-67.39 4.21,-71.04 1.26,-72.96 0.24,-73.56 0.01,-73.98 -1.07,-74.71 -5.05,-75.06 -13.49,-73.85 -24.65,-70.89 -30.6,-69.49 -17.81,-82.56" fill="none" stroke="url(#rainbowGradient)" stroke-width="2" stroke-linejoin="round" filter="url(#fuzzy)" /><polyline points="55.94,-25.14 16.04,-53.2 16.3,-64.53 19.92,-69.91 20.14,-73.12 18.23,-74.99 16.52,-74.89 16.63,-72.22 18.91,-67.56 22.25,-62.93 24.77,-60.74 25.46,-62.03 24.79,-65.55 22.36,-68.76 12.13,-70.63 -26.41,-77.61" fill="none" stroke="url(#rainbowGradient)" stroke-width="2" stroke-linejoin="round" filter="url(#fuzzy)" /><polyline points="36.94,-67.3 30.19,-66.37 27.74,-61.38 18.63,-63.39 9.41,-68.17 4.89,-71.47 5.18,-71.78 7.99,-69.78 10.83,-67.26 11.94,-65.93 10.7,-66.46 7.63,-68.29 3.83,-70.08 0.12,-70.63 -3.59,-69.66 -8.08,-67.96 -13.71,-66.88 -19.36,-67.47 -22.68,-69.71 -21.92,-72.11 -17,-71.59 -3.89,-65.16 43.9,-56.94" fill="none" stroke="url(#rainbowGradient)" stroke-width="2" stroke-linejoin="round" filter="url(#fuzzy)" /><polyline points="-2.31,-86.76 7.81,-80.83 4.1,-74.51 3.71,-69.61 6.05,-68.14 8.17,-68.76 9.87,-69.28 12.1,-68.67 15.06,-67.41 17.85,-66.74 19.26,-67.68 18.55,-70.34 15.92,-73.76 12.31,-76.45 8.75,-77.16 5.6,-75.65 2.59,-73.02 -0.36,-71.56 -2.54,-73.55 -2.81,-79.15 9.19,-85.82" fill="none" stroke="url(#rainbowGradient)" stroke-width="2" stroke-linejoin="round" filter="url(#fuzzy)" /><polyline points="4.07,-86.66 26.63,-60.75 22.09,-59.93 8.58,-61.78 -4.61,-64.08 -12.26,-66.73 -13.59,-69.04 -10.16,-70.21 -3.99,-70.06 3.11,-69.13 9.33,-68.27 13.23,-68.11 14.4,-68.71 13.66,-69.77 12.12,-71.11 10.05,-72.75 6.94,-74.56 1.68,-75.35 -11.24,-71.27 -46.94,-51.56" fill="none" stroke="url(#rainbowGradient)" stroke-width="2" stroke-linejoin="round" filter="url(#fuzzy)" /><polyline points="53.75,-33.54 16.79,-51.72 14.4,-57.09 13.89,-61.73 9.4,-66.6 1.83,-70.91 -5.41,-73.84 -8.98,-75.2 -7.26,-75.31 -1.02,-74.64 7.01,-73.72 13.26,-73.22 14.74,-73.57 10.71,-74.38 4.06,-74.28 2,-72.29 14.92,-68.42 45.11,-54.8" fill="none" stroke="url(#rainbowGradient)" stroke-width="2" stroke-linejoin="round" filter="url(#fuzzy)" /><polyline points="33.68,-70.97 32.97,-69.83 29.14,-70.95 29.92,-67.93 32.99,-63.4 34.56,-60.55 33.29,-60.13 30.17,-61.29 26.93,-62.94 24.58,-64.47 23.02,-65.7 21.22,-66.51 18.09,-66.74 13.19,-66.21 7.28,-64.93 2.04,-63.34 -0.92,-62.38 -1.18,-63.15 0.15,-66.14 1.22,-70.33 0.46,-73.21 -0.57,-74.03 22.46,-80.13" fill="none" stroke="url(#rainbowGradient)" stroke-width="2" stroke-linejoin="round" filter="url(#fuzzy)" /><polyline points="-32.43,-72.25 -24.3,-72.96 -5.76,-74.09 9.2,-70.91 15.96,-66.63 16.44,-64.09 14.51,-63.69 12.28,-64.5 9.66,-65.76 5.82,-67.32 0.53,-69.24 -5.61,-71.23 -11.71,-72.56 -16.89,-72.46 -20.09,-70.6 -19.78,-67.3 -14.32,-63.43 -3.31,-60.37 10.23,-60.14 18.39,-64.6 9.92,-72.1 -27.47,-76.74" fill="none" stroke="url(#rainbowGradient)" stroke-width="2" stroke-linejoin="round" filter="url(#fuzzy)" /><polyline points="17.47,-82.68 27.94,-67.06 19.26,-70.8 11.92,-73.14 9.13,-72.28 7.52,-70.6 4.95,-69.46 2.41,-68.79 1.84,-68.32 3.54,-68.28 5.81,-69.2 6.5,-71.3 4.74,-74.05 1.52,-76.41 -1.31,-77.49 -2.45,-76.99 -2.09,-74.95 -1.15,-70.95 0.35,-64.1 -0.97,-56.08 -40.97,-61.8" fill="none" stroke="url(#rainbowGradient)" stroke-width="2" stroke-linejoin="round" filter="url(#fuzzy)" /><polyline points="-31.26,-73.07 8.95,-61 16.15,-66.12 20.35,-68.87 23.32,-69.08 23.3,-68.71 20.43,-68.42 16.12,-68.11 11.66,-67.55 7.52,-66.63 3.55,-65.37 -0.33,-63.87 -3.72,-62.22 -5.8,-60.64 -5.88,-59.64 -3.69,-60.11 0.8,-62.62 7.68,-66.71 16.15,-70.86 22.51,-74.32 21.22,-78.84 14.99,-83.76" fill="none" stroke="url(#rainbowGradient)" stroke-width="2" stroke-linejoin="round" filter="url(#fuzzy)" /><polyline points="53.55,-34.96 34.82,-56.07 36.94,-56.3 38.85,-55.96 37.43,-57.14 33.77,-59.07 29.42,-61.01 25.38,-62.48 21.81,-63.31 18.38,-63.64 14.92,-63.67 11.83,-63.41 9.63,-62.91 8.41,-62.58 7.5,-63.18 5.69,-65.13 1.97,-67.88 -3.16,-70.01 -6.76,-69.95 -9.76,-66.24 -44.2,-56.8" fill="none" stroke="url(#rainbowGradient)" stroke-width="2" stroke-linejoin="round" filter="url(#fuzzy)" /><polyline points="-33.98,-70.42 -15.12,-65.34 2.17,-61.58 12.79,-62.26 20.54,-64.2 24.87,-66.01 24.28,-67.48 18.98,-68.4 10.87,-68.65 2.05,-68.58 -6.56,-68.8 -15.14,-69.51 -23.4,-70.2 -29.76,-70.19 -32.95,-69.81 -29.81,-74.72" fill="none" stroke="url(#rainbowGradient)" stroke-width="2" stroke-linejoin="round" filter="url(#fuzzy)" /><polyline points="54.41,-31.57 28.66,-60.28 7.65,-72.57 -0.87,-77.27 0.3,-77.87 6.57,-75.06 14.72,-69.72 22.54,-63.56 28.25,-58.31 30.59,-54.95 29.33,-53.66 25.89,-53.85 23.3,-54.36 25.59,-53.65 36.61,-50.04 48.52,-48.4" fill="none" stroke="url(#rainbowGradient)" stroke-width="2" stroke-linejoin="round" filter="url(#fuzzy)" /><polyline points="47.71,-50.17 2.77,-66.31 -7.27,-69.84 -5.07,-69.31 -1.84,-67.95 -0.48,-67.13 0.19,-66.4 1.94,-64.91 4.97,-62.77 7.9,-61.13 9.29,-61.2 9.08,-63.13 8.51,-65.95 9.2,-68.24 12.04,-69.05 16.86,-68.34 22.19,-66.97 24.54,-66.71 18.21,-69.87 -1.14,-76.56 -26.41,-77.61" fill="none" stroke="url(#rainbowGradient)" stroke-width="2" stroke-linejoin="round" filter="url(#fuzzy)" /><polyline points="40.69,-62.35 37.65,-60.88 23.9,-64.61 10.06,-69.56 2.78,-72.73 1.41,-74.25 2.39,-75.25 3.27,-76.22 3.94,-76.83 5.63,-76.44 9.29,-74.81 14.61,-72.38 20.15,-70.11 24.12,-68.95 25.35,-69.42 23.73,-71.35 20.26,-74.04 16.66,-76.42 14.89,-77.4 16.35,-76.27 20.8,-73.08 24.18,-69.2 15.46,-68.3 -26.41,-77.61" fill="none" stroke="url(#rainbowGradient)" stroke-width="2" stroke-linejoin="round" filter="url(#fuzzy)" /><polyline points="14.87,-83.87 22.41,-67.69 15.71,-61.35 6.97,-59.42 -0.54,-61.88 -5.2,-66.74 -7.8,-71.7 -9.55,-75.43 -10.28,-77.62 -8.79,-78.63 -4.33,-79 2.22,-79.07 8.41,-78.83 11.22,-78.14 8.56,-76.91 1.04,-75.47 -6.6,-75.28 -7.45,-79.31 -9.95,-85.58" fill="none" stroke="url(#rainbowGradient)" stroke-width="2" stroke-linejoin="round" filter="url(#fuzzy)" /><polyline points="7.76,-86.22 8.31,-73.06 9.6,-63.63 18.68,-60.07 28.04,-58.74 33.89,-56.81 35.34,-53.99 32.77,-51.66 27.4,-51.17 21.02,-53 15.56,-56.51 12.56,-60.46 12.76,-63.63 15.49,-65.36 18.39,-65.89 18.17,-66.15 12.51,-67.13 2.53,-69.32 -6.17,-72.65 -5.75,-76.65 8.02,-78.95 32.62,-71.92" fill="none" stroke="url(#rainbowGradient)" stroke-width="2" stroke-linejoin="round" filter="url(#fuzzy)" /><polyline points="-11.97,-85.1 -1.18,-79.45 -0.9,-73.08 5.03,-65.83 9.46,-61.05 7.26,-60.35 0.38,-62.64 -6.1,-65.91 -8.5,-68.67 -6.16,-70.1 -0.48,-69.84 6.77,-67.74 14.24,-64.18 20.6,-60.23 24.21,-57.53 24.18,-57.41 22.39,-60.11 22.77,-65.08 23.47,-72.76 9.35,-85.78" fill="none" stroke="url(#rainbowGradient)" stroke-width="2" stroke-linejoin="round" filter="url(#fuzzy)" /><polyline points="-40.11,-62.8 -27.15,-65.4 -7.69,-70.97 3.53,-72.75 7.85,-71.13 9.37,-67.71 11.12,-63.79 14.36,-60.26 18.73,-57.8 22.87,-56.85 25.47,-57.34 25.99,-58.58 24.38,-59.75 20.13,-60.57 11.73,-61.31 -1.83,-62.08 -18.02,-62.59 -29.19,-63.57 -25.11,-68.91 4.33,-86.37" fill="none" stroke="url(#rainbowGradient)" stroke-width="2" stroke-linejoin="round" filter="url(#fuzzy)" /><polyline points="50.18,-44.9 9.35,-65.55 6.5,-72.9 8.78,-73.09 8.64,-71.72 7.73,-70.93 7.94,-70.28 9.44,-68.64 11.62,-65.57 13.92,-61.68 16.11,-58.24 18.12,-56.51 19.99,-57.06 21.7,-59.57 23.16,-62.91 24.32,-65.69 25.51,-66.7 27.47,-65.44 30.66,-62.39 34.32,-59.09 36.36,-57.76 34.51,-60.19 26.48,-67.16 0.52,-86.8" fill="none" stroke="url(#rainbowGradient)" stroke-width="2" stroke-linejoin="round" filter="url(#fuzzy)" /><polyline points="-12.42,-84.96 11.25,-65.92 8.66,-64.31 4.11,-65.32 1.53,-66.57 0.65,-67.44 0.21,-67.8 -0.37,-68.03 -0.61,-68.61 0.3,-69.76 2.68,-71.27 6.14,-72.65 9.73,-73.46 12.32,-73.56 12.92,-73.09 11.25,-72.19 8.24,-70.82 5.96,-68.91 6.16,-67.02 8.14,-66.87 8.2,-70.52 3.53,-77.77 -0.43,-84.19 9.35,-85.78" fill="none" stroke="url(#rainbowGradient)" stroke-width="2" stroke-linejoin="round" filter="url(#fuzzy)" /><polyline points="26,-77.58 5.36,-70.69 9.64,-70.91 12.41,-74.49 12.86,-77.43 12.71,-79.03 12.02,-80.1 10.26,-81.31 7.52,-82.65 4.43,-83.75 1.74,-84.24 -0.03,-83.89 -0.59,-82.54 0.03,-80.16 1.33,-77.07 2.68,-74.29 3.76,-73.58 5.63,-76.26 23.66,-79.29" fill="none" stroke="url(#rainbowGradient)" stroke-width="2" stroke-linejoin="round" filter="url(#fuzzy)" /><polyline points="18.68,-82.22 4.32,-77.17 1.26,-72.01 -2.9,-67.68 -6.16,-64.56 -8.34,-63.1 -9.13,-62.85 -7.41,-63.21 -2.75,-64.06 3.63,-65.52 9.7,-67.45 13.83,-69.24 15.32,-70.15 14.26,-70 11.27,-69.51 7.48,-70.06 4.03,-72.65 0.81,-76.75 -4.39,-80.15 -13.76,-80.92 -21.28,-81" fill="none" stroke="url(#rainbowGradient)" stroke-width="2" stroke-linejoin="round" filter="url(#fuzzy)" /><polyline points="43.9,-56.94 -7.76,-58.9 -16.01,-64.43 -12.27,-70.26 -8.79,-73.68 -7.1,-74.26 -5.68,-72.82 -3.56,-70.55 -1,-68.58 1.25,-67.66 2.69,-67.91 3.42,-68.81 3.98,-69.52 4.94,-69.51 6.34,-69.03 7.45,-68.9 7.29,-69.84 5.85,-71.52 5.17,-72.45 8.61,-71.12 18.05,-67.24 31.63,-59.69 53.75,-33.54" fill="none" stroke="url(#rainbowGradient)" stroke-width="2" stroke-linejoin="round" filter="url(#fuzzy)" /><polyline points="45.64,-54.17 46,-52.09 41.37,-54.21 31.46,-60.84 19.86,-67.73 9.3,-72.3 1.14,-74.08 -4.36,-73.66 -7.72,-71.99 -9.57,-70.05 -10.13,-68.58 -9.65,-68.14 -9.21,-69.51 -9.85,-73.79 -8.81,-81.05 -1.37,-86.63" fill="none" stroke="url(#rainbowGradient)" stroke-width="2" stroke-linejoin="round" filter="url(#fuzzy)" /><polyline points="52.29,-38.69 40.19,-46.46 28.57,-59.73 25.59,-65.89 26.81,-66.35 28.65,-64.4 29.42,-62.48 28.34,-62.19 25.38,-64.34 21.24,-68.57 16.66,-73.47 11.33,-77.35 4.17,-79.19 -4.33,-78.74 -8.76,-75.83 2.95,-68.87 47.8,-50.01" fill="none" stroke="url(#rainbowGradient)" stroke-width="2" stroke-linejoin="round" filter="url(#fuzzy)" /><polyline points="45.64,-54.17 37.16,-62.45 23.77,-68.51 14.29,-70.79 11.28,-70.94 12.09,-71.35 14.3,-72.57 17.09,-73.71 20.23,-73.82 23.01,-72.83 24.11,-71.33 22.45,-69.94 18.17,-68.79 13.12,-67.45 10.34,-65.38 12.22,-62.64 18.39,-60.37 25.02,-60.44 27.11,-63.95 22.2,-68.83 8.94,-70.52 -31.26,-73.07" fill="none" stroke="url(#rainbowGradient)" stroke-width="2" stroke-linejoin="round" filter="url(#fuzzy)" /><polyline points="10.43,-85.51 -24.11,-67.25 -32.82,-64 -29.58,-65.06 -20.93,-66.94 -10.71,-68.5 -0.85,-69.33 7.43,-69.07 12.71,-67.49 13.95,-64.99 11.84,-62.63 9.32,-61.55 10.12,-62.14 15.66,-63.75 23.56,-64.96 30.42,-63.9 36.18,-60.59 33.68,-70.97" fill="none" stroke="url(#rainbowGradient)" stroke-width="2" stroke-linejoin="round" filter="url(#fuzzy)" /><polyline points="53.55,-34.96 40.14,-55.27 33.3,-62.07 27.78,-65.17 19.5,-69.22 10.24,-73.74 3.07,-77.38 -0.63,-79.59 -1.45,-80.46 -0.72,-80.35 0.59,-79.53 2.13,-78.26 3.61,-76.87 4.29,-75.79 3.13,-75.39 -0.29,-75.6 -4.92,-75.75 -8.59,-74.8 -9.1,-71.86 -2,-67.16 37.62,-66.58" fill="none" stroke="url(#rainbowGradient)" stroke-width="2" stroke-linejoin="round" filter="url(#fuzzy)" /><polyline points="41.2,-61.75 15.19,-72.84 18.9,-72.89 25.46,-70.48 27.78,-69.91 26.3,-71.05 23.21,-71.99 19.79,-71.43 16.27,-69.52 12.7,-67.26 9.63,-65.64 7.82,-65.21 7.59,-65.97 8.52,-67.56 9.62,-69.44 9.95,-71.01 9.09,-71.91 7.26,-72.05 5.21,-71.66 3.79,-71.3 2.88,-72.46 1.08,-77.62 9.19,-85.82" fill="none" stroke="url(#rainbowGradient)" stroke-width="2" stroke-linejoin="round" filter="url(#fuzzy)" />
    </g>
    
        <g id="lineNose">
        <path d="M -9.48,18.330000000000002 Q 9.53, 18.945 0.024999999999999467, -5.542000000000001" fill="none" stroke="black" stroke-width="3" stroke-linejoin="round" filter="url(#fuzzy)"></path>
        </g>
      
    <g id="mouth">
      <polyline points="-32.64,64.76 -32.03,64.28 -31.41,63.79 -30.8,63.3 -30.19,62.81 -29.59,62.32 -28.98,61.83 -28.38,61.34 -27.79,60.85 -27.19,60.36 -26.6,59.87 -26,59.39 -25.41,58.91 -24.82,58.43 -24.24,57.95 -23.65,57.48 -23.07,57.01 -22.48,56.54 -21.9,56.08 -21.32,55.63 -20.73,55.18 -20.15,54.73 -19.57,54.3 -18.99,53.86 -18.41,53.44 -17.83,53.02 -17.25,52.61 -16.67,52.21 -16.09,51.82 -15.51,51.43 -14.93,51.05 -14.34,50.69 -13.76,50.33 -13.17,49.98 -12.59,49.65 -12,49.32 -11.41,49.01 -10.82,48.7 -10.23,48.41 -9.64,48.13 -9.04,47.87 -8.44,47.62 -7.84,47.38 -7.24,47.15 -6.63,46.94 -6.02,46.74 -5.41,46.56 -4.8,46.4 -4.18,46.25 -3.56,46.11 -2.94,45.99 -2.31,45.89 -1.68,45.81 -1.05,45.74 -0.41,45.69 0.23,45.66 0.88,45.65 1.53,45.66 2.18,45.69 2.84,45.73 3.5,45.8 4.17,45.89 4.84,46 5.52,46.12 6.21,46.28 6.9,46.45 7.59,46.64 8.29,46.86 8.99,47.1 9.71,47.37 10.42,47.66 11.15,47.97 11.88,48.31 12.61,48.67 13.35,49.06 14.1,49.47 14.86,49.91 15.62,50.38 16.39,50.87 17.17,51.39 17.95,51.94 18.74,52.51 19.54,53.12 20.35,53.75 21.16,54.41 21.98,55.1 22.81,55.82 23.65,56.58 24.5,57.36 25.36,58.17 26.22,59.01 27.09,59.89 27.97,60.8 28.86,61.74 29.76,62.71 30.67,63.71 31.59,64.75 32.52,65.83 33.46,66.93 34.4,68.08 35.36,69.25 34.4,68.08 33.46,66.93 32.52,65.83 31.59,64.75 30.67,63.71 29.76,62.71 28.86,61.74 27.97,60.8 27.09,59.89 26.22,59.01 25.36,58.17 24.5,57.36 23.65,56.58 22.81,55.82 21.98,55.1 21.16,54.41 20.35,53.75 19.54,53.12 18.74,52.51 17.95,51.94 17.17,51.39 16.39,50.87 15.62,50.38 14.86,49.91 14.1,49.47 13.35,49.06 12.61,48.67 11.88,48.31 11.15,47.97 10.42,47.66 9.71,47.37 8.99,47.1 8.29,46.86 7.59,46.64 6.9,46.45 6.21,46.28 5.52,46.12 4.84,46 4.17,45.89 3.5,45.8 2.84,45.73 2.18,45.69 1.53,45.66 0.88,45.65 0.23,45.66 -0.41,45.69 -1.05,45.74 -1.68,45.81 -2.31,45.89 -2.94,45.99 -3.56,46.11 -4.18,46.25 -4.8,46.4 -5.41,46.56 -6.02,46.74 -6.63,46.94 -7.24,47.15 -7.84,47.38 -8.44,47.62 -9.04,47.87 -9.64,48.13 -10.23,48.41 -10.82,48.7 -11.41,49.01 -12,49.32 -12.59,49.65 -13.17,49.98 -13.76,50.33 -14.34,50.69 -14.93,51.05 -15.51,51.43 -16.09,51.82 -16.67,52.21 -17.25,52.61 -17.83,53.02 -18.41,53.44 -18.99,53.86 -19.57,54.3 -20.15,54.73 -20.73,55.18 -21.32,55.63 -21.9,56.08 -22.48,56.54 -23.07,57.01 -23.65,57.48 -24.24,57.95 -24.82,58.43 -25.41,58.91 -26,59.39 -26.6,59.87 -27.19,60.36 -27.79,60.85 -28.38,61.34 -28.98,61.83 -29.59,62.32 -30.19,62.81 -30.8,63.3 -31.41,63.79 -32.03,64.28" fill="rgb(204, 120, 102)" stroke="black" stroke-width="3" stroke-linejoin="round" filter="url(#fuzzy)" />
    </g>
  </svg>