<svg xmlns="http://www.w3.org/2000/svg" width="500" height="500" viewBox="-100 -100 200 200"><defs><clipPath id="c"><path d="m31.39 4.56-.24-.74-.26-.75-.29-.77-.31-.79-.33-.79-.37-.8-.39-.81-.41-.81-.44-.81-.47-.82-.5-.81-.52-.81-.54-.81-.58-.8-.6-.79-.54-.98-.59-.97-.63-.96-.67-.94-.72-.93-.77-.9-.8-.89-.84-.85-.89-.83-.92-.79-.96-.75-.99-.72-1.02-.68-1.05-.63-1.08-.59-1.11-.54-1.13-.5-1.15-.44-1.16-.4-1.18-.34-1.19-.29-1.21-.24-1.21-.19-1.21-.13-1.22-.08-1.22-.03-1.21.03-1.21.08-1.21.12-1.19.18-1.18.22-1.17.27-1.15.32-1.13.36-1.11.4-1.09.44-1.07.47-1.04.51-1.02.55-.99.57-.96.6-.93.62-.91.65-.87.66-.84.68-.81.69-.78.71-.74.71-.72.71-.68.71-.65.72-.63.73-.59.73-.57.73-.53.74-.51.74-.47.74-.45.73-.41.74-.39.73-.36.73-.33.72-.3.71-.27.71-2.27 8.7.41.48.43.48.45.47.47.46.5.46.52.45.55.45.56.44.59.43.62.44.63.42.66.42.69.42.7.42.73.41.75.41.78.4.8.4.83.41.85.4.87.39.9.4.92.4.94.39.97.39.98.39 1.01.39 1.02.39 1.04.38 1.05.38 1.07.38 1.08.37 1.09.36 1.1.36 1.11.35 1.12.34 1.12.33 1.13.32 1.12.31 1.13.29 1.12.29 1.12.26 1.11.25 1.11.23 1.1.2 1.08.19 1.07.16 1.06.14 1.04.12 1.03.08 1 .06.98.03h.96l.94-.04.91-.07.88-.1.86-.14.83-.17.79-.21.77-.24.74-.28.7-.32.67-.35.64-.38.64-.22.62-.23.6-.25.57-.26.56-.28.54-.3.51-.32.49-.33.47-.34.45-.36.43-.37.41-.37.38-.39.36-.4.34-.4"/></clipPath><clipPath id="b"><path d="m-32.21-.21.23-.86.26-.87.28-.88.3-.89.32-.89.34-.89.36-.89.39-.88.41-.88.43-.86.45-.85.47-.83.5-.82.52-.8.54-.77.5-1.11.54-1.07.57-1.03.62-.98.65-.93.68-.88.72-.83.76-.76.79-.71.83-.65.86-.59.89-.53.92-.46.95-.4.98-.34 1-.28 1.02-.21 1.05-.16 1.07-.09 1.09-.04 1.1.03 1.11.07 1.13.14 1.14.18 1.15.24 1.16.28 1.15.34 1.16.37 1.16.42 1.16.46 1.16.5 1.15.53 1.14.56 1.13.59 1.12.62 1.11.65 1.1.66 1.08.69 1.06.7 1.04.72 1.03.73 1 .73.98.75.96.75.93.75.91.75.88.75.86.75.83.74.81.74.78.73.76.72.73.72.72.72.68.71.67.7.64.7.61.69.59.67.57.67.54.66.51.65.49.63.47.63 2.72 7.08-.19.46-.21.45-.23.45-.27.44-.29.45-.33.44-.35.43-.38.44-.41.43-.44.43-.46.43-.5.43-.53.43-.56.43-.59.43-.62.42-.65.43-.68.43-.72.43-.75.43-.78.43-.82.44-.84.43-.89.44-.91.44-.95.44-.97.43-1.01.44-1.04.44-1.06.43-1.09.44-1.12.42-1.13.43-1.16.41-1.18.41-1.19.4-1.21.39-1.23.38-1.23.36-1.24.35-1.25.33-1.25.31-1.25.3-1.25.27-1.24.24-1.24.22-1.23.2-1.21.16-1.2.13-1.17.1-1.16.07-1.13.03-1.11-.01-1.08-.05-1.05-.08-1.01-.13-.98-.17-.94-.21-.91-.26-.86-.29-.82-.34-.78-.39-.73-.42-.69-.46-.72-.25-.7-.27-.68-.29-.65-.31-.62-.33-.6-.34-.57-.36-.55-.38-.52-.39-.49-.4-.47-.42-.44-.42-.41-.44-.39-.44-.36-.44"/></clipPath><filter id="a"><feTurbulence baseFrequency=".05" numOctaves="3" result="noise" type="noise"/><feDisplacementMap in="SourceGraphic" in2="noise" scale="2"/></filter></defs><rect width="100%" height="100%" x="-100" y="-100" fill="#4682B4"/><path fill="#DC143C" stroke="#000" stroke-linejoin="round" stroke-width="1.667" d="m83.95.9-.14-1.22.32 2.09-.23 2.92-.04-.27-.39 2.74-.09.85.19 1.56-.18-.46-.11 1.4-.22 2.36-.71 3.2.4-1-.58 1.19-.15 1.53-.56 1.44-.38 1.96.11-.11-.43 1.6-.63 1.29-.55 2.35-.43 1.11-.2.51-.55 1.44-.77 2.35-.54 1.06.15-.23-1.18 2.07.17.15-.87 1.7-.95 2.38-.02-.49-1.11 2.39.27-.96-1.96 3.71.31-.97-1.29 2.15.1-.39-.76 1.55-1.69 2.11-.47 1.02-.32.53-1.51 1.94-.35.44-1.82 1.71-.07.39-2.25 2.78.64-1.04-1.34 1.14-.41.46-2.19 2.58 1.38-1.37-1.49 1.73-1.59.97-.87.72.19.12-2.75 2.17-2.71 2.11 1.17-.72-1.01.5-2.33 1.73-.33.13-1.63 1.3.33-.47-1.75 1.48-.17-.18-1.8 1.24-2.15.89-.89.86-.82.41-1.03.45-.84.37-.73.32-2.2 1.13.13-.1-3.65 1.56-.29-.2.17.09-.78.38-1.93.56-1.08.4-1.3.47-.48.1-.52.32-3.66.91-.78.31-.11-.2-3.34.62-.65.47-2.84.46.1.03-.48.1-1.3.1-1.8.29-3.19.03-1.96.28 2.33-.38-1.74.22-3.79.09-.96.25-1.38-.22-.51.24-.83-.18-1.91-.09-2.02-.24.5.12-1.47.03-3.92-.46 1.23.16-.73.07-1.61-.51-1.37-.38-3.25-.25.73.23-.78-.38-2.9-.6-.23-.09-2.49-.58-1.34-.49-.61-.17-1.35-.46-1.28-.21-2.11-1.15-.55.29-2.35-1.29.77.43-2.66-1.14-1.53-.83 1.34.75-1.54-.58-1.97-.87-2.15-1.24.7.3-.01.14-2.76-1.55-1.2-1.06-2.67-1.36-.52-.39-.01.2-2.14-1.8-.83-.44-.17.04-1.35-.79-1.84-1.75-.1-.06-2.99-2.48.08-.11-1.72-1.5-.21-.09-1.67-1.63.9.82-.94-1-1.76-1.5-1.01-1.1-2.13-2.43.19-.09-.93-1.14.07.14-.1.24-1.88-2.57-.39-.92-2.56-3.21.71.91-1.07-1.3-.23-.33-.89-1.69-.23-.3-1.79-2.73-.88-1.67.86 1.37-.94-1.53-1.52-2.72-.16-1.43.63 1.62-.71-1.14-.69-1.48-1.09-2.98-1.46-2.87.58.57-.41-1.15-1.27-2.75.17-.11-.51-2.37.16 1.29-.77-2.2.22-.23-.54-2.33-.31-1.03-.4-2.13v.7l-.31-2.72-.25-2.34-.09 1.23-.42-2.17.14-2.66-.44-1.16.03-.23-.01-2.78-.03-.82.1-.98-.1-2.1.17-1.4-.03 1.29-.01-1.87.11-3.6.27-1.32-.03.13.24-2.68-.04-.24-.07.76.69-3.83-.12-.7.35-.98.48-3.36-.01.51.02-.67.71-1.79.29-1.01.13-.87.46-1.04.19-1.45 1.04-2.39-.47.88 1.13-2.95.43-.51.29-.98 1.19-2.8-.57.75 1.31-2.67 1.63-2.84.48-.91-1.17 1.43 1.18-1.83-.43.63 2.2-3.51.42-.51 1.12-2.28.03.27.59-.7.92-1.14.75-1.63 1.5-1.64.66-1.15.38-.33.62-.76 1.24-1.61.67-.87 1.38-1.16.35-.17.36-.6 1.59-1.63-.5.49 2.32-2.29 1.35-1.18 1.43-1.04-1.23 1.02 2.43-1.95 2.12-1.87-.13-.01 1-.58.72-.56 2.29-1.45.55-.25 1.35-1.23.48-.37.59-.04 1.38-1.1-.12.15 2.39-1.54 1.98-.8-.53.12 1.74-.65 2.73-1.34-1.22.31 3.89-1.45.61-.32 1.21-.39 1.45-.48-.22-.26 2.79-.86.54-.12.8-.27 3.59-1.23.73.05.07.01.74-.35 1.51-.44 1.03.12.31-.28 1.39-.15 4.36-.68-.79.08 1.71-.44 1.89-.11 1.11.07-.17-.14 2.69-.38 1.04.34 3.3-.22v-.2l.66-.07 1.7.09 1.93.16.28.17.81-.27 3.03.24-1.07-.1 1.47.46.98-.15 3.27.59 2.11.47.23-.24-.59-.24 1.09.41 1.93.29 2.26.58 2.33.48.39.24.51.09 2.92.88.2.06.07-.05 2.69.92 1.01.49.47.32 1.71.38.08.23 2.21.7 2.08 1.01.34.39 1.45.76 2.73 1.18 1.09.85-1.82-1.47 1.59.94 1.28.9 2.49 1.66h.34l2.37 1.86 1.35.77-.58-.54.8.89 2.62 1.85.52-.01.63.82 1.34.95.48.48.67.75 1.15.98.79.86 1.87 1.52.08.28 2.8 3.01-.25-.68 1.76 2.42.01-.09.37.05 1.59 2.36.03-.14.6.78 2.03 2.63-.4-.47 1.48 2.18.03.32 1.2 1.57.32 1.06.94.83.57 1.43 1.14 1.26.77 1.75-.34-.07 1.23 1.91.14.54.7 1.28.68 1.81.46 1.18-.64-1.37 2.18 4.9.16.6-.15.18.78.98.15 1.28.32.76.4 1.93.68 2.25.04-.65.08.89.41 1.65.57 2.87.03.47.44 1.37-.16-.53.61 3.43-.24-.59.22 1.85.16.83-.07 2.53.15 3 .13.36.27 1.3-.2 1.83-.14-1.22" filter="url(#a)"/><path fill="#fff" d="m-32.21-.21.23-.86.26-.87.28-.88.3-.89.32-.89.34-.89.36-.89.39-.88.41-.88.43-.86.45-.85.47-.83.5-.82.52-.8.54-.77.5-1.11.54-1.07.57-1.03.62-.98.65-.93.68-.88.72-.83.76-.76.79-.71.83-.65.86-.59.89-.53.92-.46.95-.4.98-.34 1-.28 1.02-.21 1.05-.16 1.07-.09 1.09-.04 1.1.03 1.11.07 1.13.14 1.14.18 1.15.24 1.16.28 1.15.34 1.16.37 1.16.42 1.16.46 1.16.5 1.15.53 1.14.56 1.13.59 1.12.62 1.11.65 1.1.66 1.08.69 1.06.7 1.04.72 1.03.73 1 .73.98.75.96.75.93.75.91.75.88.75.86.75.83.74.81.74.78.73.76.72.73.72.72.72.68.71.67.7.64.7.61.69.59.67.57.67.54.66.51.65.49.63.47.63 2.72 7.08-.19.46-.21.45-.23.45-.27.44-.29.45-.33.44-.35.43-.38.44-.41.43-.44.43-.46.43-.5.43-.53.43-.56.43-.59.43-.62.42-.65.43-.68.43-.72.43-.75.43-.78.43-.82.44-.84.43-.89.44-.91.44-.95.44-.97.43-1.01.44-1.04.44-1.06.43-1.09.44-1.12.42-1.13.43-1.16.41-1.18.41-1.19.4-1.21.39-1.23.38-1.23.36-1.24.35-1.25.33-1.25.31-1.25.3-1.25.27-1.24.24-1.24.22-1.23.2-1.21.16-1.2.13-1.17.1-1.16.07-1.13.03-1.11-.01-1.08-.05-1.05-.08-1.01-.13-.98-.17-.94-.21-.91-.26-.86-.29-.82-.34-.78-.39-.73-.42-.69-.46-.72-.25-.7-.27-.68-.29-.65-.31-.62-.33-.6-.34-.57-.36-.55-.38-.52-.39-.49-.4-.47-.42-.44-.42-.41-.44-.39-.44-.36-.44" filter="url(#a)" transform="translate(43.13 -23.08)"/><path fill="#fff" d="m31.39 4.56-.24-.74-.26-.75-.29-.77-.31-.79-.33-.79-.37-.8-.39-.81-.41-.81-.44-.81-.47-.82-.5-.81-.52-.81-.54-.81-.58-.8-.6-.79-.54-.98-.59-.97-.63-.96-.67-.94-.72-.93-.77-.9-.8-.89-.84-.85-.89-.83-.92-.79-.96-.75-.99-.72-1.02-.68-1.05-.63-1.08-.59-1.11-.54-1.13-.5-1.15-.44-1.16-.4-1.18-.34-1.19-.29-1.21-.24-1.21-.19-1.21-.13-1.22-.08-1.22-.03-1.21.03-1.21.08-1.21.12-1.19.18-1.18.22-1.17.27-1.15.32-1.13.36-1.11.4-1.09.44-1.07.47-1.04.51-1.02.55-.99.57-.96.6-.93.62-.91.65-.87.66-.84.68-.81.69-.78.71-.74.71-.72.71-.68.71-.65.72-.63.73-.59.73-.57.73-.53.74-.51.74-.47.74-.45.73-.41.74-.39.73-.36.73-.33.72-.3.71-.27.71-2.27 8.7.41.48.43.48.45.47.47.46.5.46.52.45.55.45.56.44.59.43.62.44.63.42.66.42.69.42.7.42.73.41.75.41.78.4.8.4.83.41.85.4.87.39.9.4.92.4.94.39.97.39.98.39 1.01.39 1.02.39 1.04.38 1.05.38 1.07.38 1.08.37 1.09.36 1.1.36 1.11.35 1.12.34 1.12.33 1.13.32 1.12.31 1.13.29 1.12.29 1.12.26 1.11.25 1.11.23 1.1.2 1.08.19 1.07.16 1.06.14 1.04.12 1.03.08 1 .06.98.03h.96l.94-.04.91-.07.88-.1.86-.14.83-.17.79-.21.77-.24.74-.28.7-.32.67-.35.64-.38.64-.22.62-.23.6-.25.57-.26.56-.28.54-.3.51-.32.49-.33.47-.34.45-.36.43-.37.41-.37.38-.39.36-.4.34-.4" filter="url(#a)" transform="translate(-32.53 -23.74)"/><g fill="none" stroke="#000" transform="translate(43.13 -23.08)"><path stroke-linejoin="round" stroke-width="1.667" d="m-33.62 6.67.07-.48.09-.54.1-.59.11-.64.13-.69.15-.73.16-.76.18-.79.2-.82.22-.84.23-.86.26-.87.28-.88.3-.89.32-.89.34-.89.36-.89.39-.88.41-.88.43-.86.45-.85.47-.83.5-.82.52-.8.54-.77.5-1.11.54-1.07.57-1.03.62-.98.65-.93.68-.88.72-.83.76-.76.79-.71.83-.65.86-.59.89-.53.92-.46.95-.4.98-.34 1-.28 1.02-.21 1.05-.16 1.07-.09 1.09-.04 1.1.03 1.11.07 1.13.14 1.14.18 1.15.24 1.16.28 1.15.34 1.16.37 1.16.42 1.16.46 1.16.5 1.15.53 1.14.56 1.13.59 1.12.62 1.11.65 1.1.66 1.08.69 1.06.7 1.04.72 1.03.73 1 .73.98.75.96.75.93.75.91.75.88.75.86.75.83.74.81.74.78.73.76.72.73.72.72.72.68.71.67.7.64.7.61.69.59.67.57.67.54.66.51.65.49.63.47.63.44.61.41.6.39.58.37.58.34.56.32.55.3.53.27.52.26.51.23.49" filter="url(#a)"/><path stroke-linejoin="round" stroke-width="2.222" d="m-32.97 14.74.13.35.16.36.17.39.2.41.22.42.23.43.27.44.28.44.31.45.34.45.36.44.39.44.41.44.44.42.47.42.49.4.52.39.55.38.57.36.6.34.62.33.65.31.68.29.7.27.72.25.69.46.73.42.78.39.82.34.86.29.91.26.94.21.98.17 1.01.13 1.05.08 1.08.05 1.11.01 1.13-.03 1.16-.07 1.17-.1 1.2-.13 1.21-.16 1.23-.2 1.24-.22 1.24-.24 1.25-.27 1.25-.3 1.25-.31 1.25-.33 1.24-.35 1.23-.36 1.23-.38 1.21-.39 1.19-.4 1.18-.41 1.16-.41 1.13-.43 1.12-.42 1.09-.44 1.06-.43 1.04-.44 1.01-.44.97-.43.95-.44.91-.44.89-.44.84-.43.82-.44.78-.43.75-.43.72-.43.68-.43.65-.43.62-.42.59-.43.56-.43.53-.43.5-.43.46-.43.44-.43.41-.43.38-.44.35-.43.33-.44.29-.45.27-.44.23-.45.21-.45.19-.46.15-.46.14-.46.1-.47.08-.47.06-.48.03-.48.01-.49-.02-.49-.03-.5-.06-.5" filter="url(#a)"/><circle cx="-12.552" cy="-12.812" r="4.382" clip-path="url(#b)" filter="url(#a)"/><circle cx="-15.077" cy="-13.207" r="4.068" clip-path="url(#b)" filter="url(#a)"/><circle cx="-12.252" cy="-17.122" r="3.994" clip-path="url(#b)" filter="url(#a)"/><circle cx="-11.327" cy="-14.582" r="4.334" clip-path="url(#b)" filter="url(#a)"/><circle cx="-13.572" cy="-15.402" r="4.656" clip-path="url(#b)" filter="url(#a)"/><circle cx="-12.242" cy="-14.047" r="4.458" clip-path="url(#b)" filter="url(#a)"/><circle cx="-15.877" cy="-15.362" r="4.642" clip-path="url(#b)" filter="url(#a)"/><circle cx="-13.502" cy="-14.167" r="3.948" clip-path="url(#b)" filter="url(#a)"/><circle cx="-13.887" cy="-17.642" r="3.586" clip-path="url(#b)" filter="url(#a)"/><circle cx="-12.352" cy="-16.822" r="4.78" clip-path="url(#b)" filter="url(#a)"/></g><g fill="none" stroke="#000" transform="translate(-32.53 -23.74)"><path stroke-linejoin="round" stroke-width="2.222" d="m32.57 10.56-.03-.45-.06-.49-.06-.53-.09-.56-.11-.6-.12-.62-.14-.65-.17-.68-.19-.7-.21-.72-.24-.74-.26-.75-.29-.77-.31-.79-.33-.79-.37-.8-.39-.81-.41-.81-.44-.81-.47-.82-.5-.81-.52-.81-.54-.81-.58-.8-.6-.79-.54-.98-.59-.97-.63-.96-.67-.94-.72-.93-.77-.9-.8-.89-.84-.85-.89-.83-.92-.79-.96-.75-.99-.72-1.02-.68-1.05-.63-1.08-.59-1.11-.54-1.13-.5-1.15-.44-1.16-.4-1.18-.34-1.19-.29-1.21-.24-1.21-.19-1.21-.13-1.22-.08-1.22-.03-1.21.03-1.21.08-1.21.12-1.19.18-1.18.22-1.17.27-1.15.32-1.13.36-1.11.4-1.09.44-1.07.47-1.04.51-1.02.55-.99.57-.96.6-.93.62-.91.65-.87.66-.84.68-.81.69-.78.71-.74.71-.72.71-.68.71-.65.72-.63.73-.59.73-.57.73-.53.74-.51.74-.47.74-.45.73-.41.74-.39.73-.36.73-.33.72-.3.71-.27.71-.24.7-.21.68-.19.68-.15.67-.14.66-.1.64-.08.64-.06.62-.03.61v.6" filter="url(#a)"/><path stroke-linejoin="round" stroke-width="2.222" d="m32.29 14.09-.12.36-.14.38-.17.39-.18.4-.21.41-.23.41-.25.41-.27.41-.29.42-.32.41-.34.4-.36.4-.38.39-.41.37-.43.37-.45.36-.47.34-.49.33-.51.32-.54.3-.56.28-.57.26-.6.25-.62.23-.64.22-.64.38-.67.35-.7.32-.74.28-.77.24-.79.21-.83.17-.86.14-.88.1-.91.07-.94.04h-.96l-.98-.03-1-.06-1.03-.08L9 24.92l-1.06-.14-1.07-.16-1.08-.19-1.1-.2L3.58 24l-1.11-.25-1.12-.26-1.12-.29-1.13-.29-1.12-.31-1.13-.32-1.12-.33-1.12-.34-1.11-.35-1.1-.36-1.09-.36-1.08-.37-1.07-.38-1.05-.38-1.04-.38-1.02-.39-1.01-.39-.98-.39-.97-.39-.94-.39-.92-.4-.9-.4-.87-.39-.85-.4-.83-.41-.8-.4-.78-.4-.75-.41-.73-.41-.7-.42-.69-.42-.66-.42-.63-.42-.62-.44-.59-.43-.56-.44-.55-.45-.52-.45-.5-.46-.47-.46-.45-.47-.43-.48-.41-.48-.38-.49-.36-.5-.33-.5-.32-.51-.29-.52-.27-.53-.25-.53-.23-.54-.21-.55-.19-.55" filter="url(#a)"/><circle cx="10.97" cy="9.621" r="3.806" clip-path="url(#c)" filter="url(#a)"/><circle cx="11.145" cy="7.736" r="4.276" clip-path="url(#c)" filter="url(#a)"/><circle cx="9.05" cy="6.471" r="3.982" clip-path="url(#c)" filter="url(#a)"/><circle cx="9.315" cy="8.881" r="4.842" clip-path="url(#c)" filter="url(#a)"/><circle cx="11.15" cy="10.781" r="4.724" clip-path="url(#c)" filter="url(#a)"/><circle cx="9.15" cy="10.196" r="4.772" clip-path="url(#c)" filter="url(#a)"/><circle cx="9.87" cy="8.306" r="4.604" clip-path="url(#c)" filter="url(#a)"/><circle cx="8.445" cy="6.491" r="4.89" clip-path="url(#c)" filter="url(#a)"/><circle cx="9.1" cy="8.831" r="4.974" clip-path="url(#c)" filter="url(#a)"/><circle cx="10.89" cy="9.031" r="3.176" clip-path="url(#c)" filter="url(#a)"/></g><g fill="none" stroke="#40E0D0" stroke-linejoin="round" stroke-width="2"><path d="m12.49-81.83 1.47.29 1.01.23 1.22.38 1.69.58 2.12.73 2.35.83 2.43.88 2.4.91 2.32.91 2.23.9 2.15.89 2.05.86 1.91.81 1.76.75 1.58.67 1.4.59 1.18.49.87.32.43.07m-65.01-10.78 1.43-.2 1.63.02 2.1.12 2.6.19 2.93.27 3.14.38 3.27.47 3.38.55 3.5.63 3.64.69 3.78.74 3.88.8 3.93.83 3.91.86 3.84.89 3.72.89 3.59.87 3.49.85 3.46.89 3.56 1.04" filter="url(#a)"/><path d="m-31.65-76.62 1.33-.4 1.62-.45 1.99-.5 2.37-.52 2.68-.52 2.86-.52 2.87-.51 2.78-.48 2.63-.44 2.52-.39 2.41-.35 2.26-.32 2.08-.28 1.83-.29m25.09 3.72.18.08.34.22.25.31-.16.32-.68.27-1.21.22-1.74.2-2.29.17-2.9.14-3.62.1-4.46.02-5.44-.05-6.55-.16-7.66-.28-8.73-.32" filter="url(#a)"/><path d="m-7.43-82.35.53-.12 1.03.03.85.18.37.31-.19.45-.74.64-1.27.85-1.8 1.05-2.37 1.26-2.99 1.48-3.64 1.73-4.33 2.01-4.98 2.29-5.62 2.55-6.26 2.78-6.99 2.97-7.93 3.17m116.08 2.91.93 1.5.05.74-.46.62-.89.64-1.35.67-1.84.66-2.37.65-2.93.61-3.52.55-4.13.5-4.74.44-5.34.38-5.97.3-6.6.22-7.26.13-7.94.03-8.66-.05-9.37-.13-10.08-.21-10.76-.3-11.46-.38-12.26-.38m11.51-22.48.7-.36 1.39-.74 1.44-.72 1.39-.68 1.38-.64 1.35-.63 1.3-.59 1.18-.52 1-.42.74-.31.46-.18.14-.04-.18.12-.5.26-.84.43-1.23.6-1.72.81-2.32 1.08-2.9 1.33" filter="url(#a)"/><path d="m72.85-40.88.71 1.14.02.8-.48.51-.93.28-1.39.08-1.87-.13-2.39-.37-2.91-.62-3.45-.89-3.98-1.19-4.56-1.5-5.19-1.86-5.84-2.21-6.55-2.54-7.28-2.83-7.99-3.14-8.69-3.49-9.37-3.88-10.04-4.27-10.75-4.63" filter="url(#a)"/><path d="m48.82-67.51.79 1 .13.92-.92.74-1.97.64-2.97.61-3.95.61-4.95.65-5.97.68-7.01.72-8.11.73-9.31.76-10.57.76-11.9.73-13.2.62-14.48.51M73.99-39.62l.48 1.2.38.92.4.89.38.85.32.76.2.6.09.41-.04.2-.2-.07-.39-.4-.6-.78-.84-1.19-1.06-1.57-1.3-1.94-1.53-2.34-1.8-2.82-2.16-3.44-2.71-4.22" filter="url(#a)"/><path d="m59.69-58.42.27.81-.32.95-1.42.67-2.6.37-3.76.12-4.89-.07-6.04-.2-7.24-.32-8.48-.44-9.77-.59-11.1-.79-12.47-.99-13.98-1.13-15.78-1.01m52.13-20.8 1.48.47 2.09.68 2.33.85 2.37.98 2.37 1.08 2.39 1.17 2.44 1.25 2.5 1.33 2.55 1.38 2.58 1.43 2.61 1.46 2.6 1.48 2.56 1.48 2.52 1.46 2.43 1.4 2.25 1.29 1.98 1.09 1.63.83 1.26.57" filter="url(#a)"/><path d="m55.21-62.53.51.68.11.58-.42.44-1.06.25-1.78.02-2.6-.28-3.52-.65-4.52-1.05-5.58-1.45-6.67-1.82-7.77-2.17-8.83-2.52-9.84-2.93-10.88-3.34m12.45-6.1 1.75.15.93.14 1.04.17 1.22.19 1.19.18.95.14.64.11.36.1.14.11-.05.13-.29.15-.62.14-1.05.11-1.51.08-1.98.04H5.05l-2.98-.02-3.57-.03-4.28-.02-5.26-.02m77.09 29.95.32.31.74.95.85 1.14.78 1.13.69 1.04.6.93.48.77.37.58.21.35.02.08-.22-.26-.49-.63-.8-1.05-1.08-1.47-1.36-1.88-1.55-2.14" filter="url(#a)"/><path d="m-45.09-69.96 1.07-.32 1.87-.59 2.62-.71 3.28-.79 3.8-.79 4.22-.8 4.58-.8 4.92-.81 5.19-.82 5.38-.81 5.48-.78 5.45-.75 5.3-.73 4.9-.77m59.31 37.92.32 1.11-.37.64-1.26.11-2.16-.4-3.03-.87-3.95-1.33-4.93-1.8-5.98-2.31-7.06-2.85-8.13-3.4-9.19-3.97-10.27-4.61-11.39-5.32-12.44-6.06m-21.43-4.12.75-.4 1.64-.48 1.98-.49 2.19-.49 2.26-.49 2.23-.43 2.12-.38 2.01-.34 1.93-.32 1.84-.3 1.74-.29 1.58-.26 1.34-.22.85-.15.09-.11" filter="url(#a)"/><path d="m-45.57-69.59.74-.34 1.28-.46 1.79-.62 2.24-.74 2.6-.8 2.86-.83 3.04-.83 3.18-.85 3.31-.84 3.42-.84 3.48-.82 3.47-.77 3.34-.73 3.12-.71 2.87-.68 2.73-.67 2.72-.62 2.61-.57m53.8 21.51.99.97 1.14 1.09 1.08 1.08.92.96.67.72.37.43.05.13-.23-.16-.53-.44-.85-.73-1.21-1.07-1.68-1.48-2.29-2.03-3.04-2.73" filter="url(#a)"/><path d="m-32.26-76.3.98-.31 1.54-.31 1.94-.3 2.32-.29 2.68-.27 3-.24 3.26-.2 3.42-.13 3.5-.07 3.5-.02 3.49.01H.86l3.49-.01 3.51-.01 3.53-.02 3.51-.01 3.4.01 3.18.01 2.73-.08m-67.45 7.59 1.96-1.15 1.32-.69 1.05-.49.96-.42.9-.36.79-.27.62-.14.4.01.13.18-.14.37-.42.55-.68.73-.94.92-1.25 1.13-1.59 1.36-2.01 1.62-2.46 1.91-2.9 2.19-3.32 2.48-3.73 2.77-4.21 3.16-4.77 3.68m133.32 5.32.35.67.59.97.62.98.58.95.51.86.4.74.25.58.09.38-.07.18-.27-.06-.47-.32-.68-.59-.92-.89-1.14-1.19-1.38-1.51-1.62-1.87-1.87-2.26-2.15-2.67-2.45-3.07-2.81-3.48-3.32-3.99M25.87-78.81l.84.26 1.4.53 1.41.57 1.34.55 1.31.54 1.32.55 1.32.57 1.26.57 1.14.54.94.45.62.31.26.12-.13-.06-.48-.21-.79-.34-1.08-.43-1.38-.57-1.74-.74-2.14-.99m14.39 6.99 1.81 1.34 1.1.77.88.62.9.64.9.65.81.61.66.51.46.4.25.28.03.14-.22-.03-.48-.19-.74-.38-1.01-.57-1.29-.78-1.67-1.04-2.19-1.41-2.86-1.89-3.42-2.35" filter="url(#a)"/><path d="m57.82-59.94 1.37 1.22 1.15 1.15 1.03 1.07.82.89.61.68.39.48.21.31.04.16-.14.01-.36-.18-.62-.4-.93-.68-1.25-.98-1.6-1.32-1.97-1.69-2.44-2.13-3-2.65-3.65-3.22m-88.33-5.27 1.23-.52.89-.38.94-.42.94-.4.83-.3.64-.17.37.01.06.21-.28.41-.61.63-.96.86-1.3 1.1-1.66 1.34-2.07 1.6-2.54 1.87-3.1 2.19-3.69 2.54-4.26 2.97-4.8 3.39" filter="url(#a)"/><path d="m62.57-55.13.06.11-.07.53-.55.43-1.06.33-1.58.25-2.13.17-2.74.09-3.37-.03-4.06-.17-4.77-.32-5.49-.5-6.25-.67-7.01-.86-7.77-1.04-8.54-1.26-9.3-1.5-10.09-1.76-10.93-2-11.81-2.22m-10.68-4.04.61-.34.88-.48 1.11-.62 1.29-.71 1.36-.74 1.34-.7 1.23-.62 1.05-.52.83-.4.56-.27.24-.1-.14.09-.59.3-1.11.56-1.7.84-2.25 1.12m72.76-4.34 1.82.71 1.19.66.7.6.27.51-.22.38-.75.25-1.23.16-1.65.14-2.03.17-2.47.18-3 .15-3.64.08-4.35-.03-5.06-.14-5.75-.25-6.41-.33-7.14-.43-7.99-.5-9.17-.48" filter="url(#a)"/><path d="m4.81-82.87 1.7.16.77.16.76.2.83.25.69.27.35.27-.04.28-.39.32-.69.39-.95.46-1.26.55-1.64.62-2.09.67-2.61.72-3.12.77-3.66.83-4.19.9-4.7.96-5.21 1.01-5.69 1.03-6.21 1.04-6.78 1.13m111.6 27.57.64 1.27.56 1.05.32.78.1.53-.09.33-.28.11-.5-.12-.75-.39-1.01-.68-1.32-1.01-1.66-1.39-2.02-1.82-2.39-2.26-2.73-2.7-3.05-3.1-3.4-3.5-3.87-3.98-4.5-4.59-5.05-5.28m-3.3-4.6 1.91.89.95.45.74.37.94.55 1.16.72 1.26.8 1.19.77 1 .66.74.49.43.3.12.1-.19-.09-.5-.29-.77-.45-1.04-.6-1.35-.78-1.87-1.07-2.71-1.55" filter="url(#a)"/><path d="m19.52-80.56 1.44.37.58.28.12.28-.33.26-.86.26-1.43.24-2.05.24-2.77.23-3.59.23-4.48.22-5.4.22-6.3.23-7.24.22-8.23.17m87.1 25.9.68 1.04.31.92-.26.59-.8.32-1.33.08-1.85-.17-2.39-.42-2.98-.69-3.61-.97-4.3-1.28-5.04-1.61-5.8-1.96-6.54-2.33-7.26-2.7-7.95-3.07-8.63-3.47-9.3-3.92-9.91-4.45" filter="url(#a)"/><path d="m-21.49-80.23.85.09 1.46.14 2.2.2 2.87.31 3.48.42 4.03.53 4.51.61 4.89.69 5.11.76 5.25.84 5.33.92 5.4 1 5.46 1.04 5.4 1.02 5.23.91m-69.19-7 1.97-.6 1.4-.42 1.31-.39 1.14-.32.86-.22.52-.1.22.02-.04.13-.27.24-.5.35-.79.47-1.15.62-1.59.78-2.11.96-2.63 1.15-3.15 1.3-3.65 1.47-4.21 1.71" filter="url(#a)"/><path d="m49.4-66.97-.02-.02.66.55.78.62.59.51.31.37.01.24-.27.11-.53-.01-.82-.13-1.14-.27-1.51-.45-1.96-.66-2.46-.93-3.01-1.22-3.51-1.54-3.97-1.84-4.4-2.12-5.01-2.42-6.11-2.83" filter="url(#a)"/><path d="m-28.99-77.49.87-.34 1.99-.32 2.6-.22 3.06-.14 3.41-.05 3.61.04 3.75.13 3.9.18 4.12.23 4.37.28 4.63.34 4.83.38 4.86.38 4.7.31 4.44.24 4.24.19" filter="url(#a)"/><path d="m-39.4-73.17 1.78-.75 1.63-.74 1.56-.69 1.55-.65 1.49-.6 1.4-.54 1.28-.5 1.17-.44 1.06-.39.9-.32.71-.23.45-.14.13-.01-.21.12-.58.24-.94.38-1.35.53-1.78.69-2.22.85-2.62 1.05m18.28-5.96 2.78-.41 1.76-.2 1.72-.09 1.86-.04 1.98.01 2.12.03 2.23.06 2.29.07 2.26.08 2.18.1 2.04.1 1.89.12 1.74.11 1.55.1 1.32.08 1.04.05h.67l.23-.07-.24-.15-.64-.22m14.57 4.09.62.32.59.36.43.45.2.54-.15.6-.58.61-1.11.59-1.69.54-2.31.49-2.9.46-3.45.5-3.97.56-4.49.62-5.06.63-5.69.61-6.4.55-7.16.51-7.97.53-8.82.61-9.74.68" filter="url(#a)"/><path d="m-26.42-78.61.92-.21 1.69-.38 1.98-.38 2-.28 1.97-.22 2.03-.18 2.15-.15 2.3-.15 2.45-.16 2.53-.16 2.53-.17 2.43-.16 2.25-.16 2.01-.16 1.79-.14 1.63-.11 1.55-.07 1.45-.03 1.11-.02.2-.13m6.71.89 2.14.58 1.88.63 1.76.71 1.82.82 1.91.92 2.01 1.01 2.1 1.1 2.17 1.16 2.22 1.22 2.25 1.25 2.26 1.27 2.26 1.29 2.26 1.3 2.21 1.28 2.09 1.22 1.9 1.1 1.63.9 1.3.68.96.43.68.27.51.17" filter="url(#a)"/><path d="m-36.15-74.85 2.87-.99 2.15-.54 2.12-.35 2.32-.27 2.61-.22 2.93-.2 3.2-.16 3.4-.14 3.51-.09 3.58-.04 3.63.03 3.66.09 3.71.14 3.73.13 3.71.11 3.65.04h3.52l3.32-.03 3.1-.01 2.94.07" filter="url(#a)"/><path d="m-.57-82.75.23-.12.6.01.67.11.5.17.2.23-.13.29-.5.37-.84.47-1.19.57-1.55.69-1.99.78-2.53.88-3.12.96-3.72 1.06-4.27 1.16-4.76 1.29-5.31 1.44-6.04 1.62-7.02 1.85m90.16 1.41 1.09.97 1.02.8.57.52.11.3-.29.11-.71-.05-1.14-.23-1.55-.41-1.98-.6-2.44-.82-2.98-1.07-3.68-1.4-4.52-1.81-5.44-2.25-6.21-2.7-6.59-3.12m8.67-.48 1.89.57 1.04.31.85.29.76.3.59.26.35.21.08.14-.19.08-.56.02-1-.08-1.52-.2-2.06-.36-2.63-.54-3.27-.75-4.01-.95-4.61-1.09m-44.61 6.69 2.82-1.04 2.05-.69 1.91-.58 1.97-.58 2.11-.59 2.22-.61 2.28-.59 2.21-.56 2.03-.51 1.72-.44 1.37-.36 1.04-.28.68-.21.16-.1" filter="url(#a)"/><path d="m-43.12-71.1.99-.28 2.27-.54 2.91-.42 3.43-.28 4-.19 4.55-.12 5.06-.06 5.5.04 5.84.12 6.11.2 6.33.29 6.56.34 6.78.42 6.99.47 7.03.45 6.96.38" filter="url(#a)"/><path d="m-60.86-57.06 53.03-1.5 6.13-5.53 7.24-4.08 8.89-2 5.51-1.03.41-1-3.88-1.15-6.63-1.04L1.9-75l-7.85-.07-6.29.36-3.23.56 1.01.53 5.51.43 9.03.36 10.35.45 9.11.58 6.21.71 3.39.86 1.92 1.3.9 1.96-1.95 1.77-3.13-.19 30.15 4.59" filter="url(#a)"/><path d="m4-82.6-27.81 13.11 9.54 4.62 12.9.48 8-1.78 4.15-1.72 2.15-.18 1.9 1.74 3.21 3.35 4.85 3.97 4.78 3.1 1.8.75-3.05-2.26-7.12-4.67-8.25-5.45-6.29-4.36-2.83-1.9 1.19 1.22 7.46 4.82 18.39 9.26 29.19 14.36L77.17-32.4" filter="url(#a)"/><path d="M71.34-43.14 28.52-66.32l-21.9-4.29-7.41.96L.7-67.99l4.65 1.66 4.54 1.62 3.63 1.29 3.11.57 2.81-.36 1.9-1.21-.05-1.72-2.73-1.79-5.2-1.46-6.7-1.01-6.9-.64-5.57-.42-2.26-.22 3.03.1 8.22.7 8.92 1.77 2.73 3.68 1.9 7.52 55.55 15.6" filter="url(#a)"/><path d="m-45.57-69.59 23.53-5.89 16.46-2.09 7.75-.49 2.11.2-.13.94 1.05 2.01 4.31 2.93L16.79-69l8.02 1.84h5.96l2.18-1.42-1.31-1.26-3.27.86-4.78 3.75-9.35 3.76-16.62-4.24 6.1-17.06" filter="url(#a)"/><path d="m-37.66-73.82 35.53-2.6 10.55 1.45.1 1.59-3.11.76-1.2.66 1.75 1.14 2.61 1.65.85 1.9-1.88 1.84-3.42 1.65-2.4 1.46 1.02 1.27 5.3.9 8.3.23 8.52-.65 5.92-1.37 2.02-1.63-.98-1.34-1.05-.56 2.72.78L41.04-63l3.54-2.05-18.91-13.82" filter="url(#a)"/><path d="m-65.48-51.89 75.37 1.84 2.15-8.02-13.37-6.25-7.32-2.76 2.15.04 8.92 1.5 11.7 1.51 10.59.33 6.38-1.32.7-2.59-4.09-2.88-5.91-2.23-4.08-1.12-.18-.28 2.73-.04 4.04.25 9.88 2.92 23.64 11.05" filter="url(#a)"/><path d="m-7.6-82.49-14.88 12.58 18.29.51 16.58-.42 9.62.19 5.05.87 2.76 1.38 1.48 1.52.67 1.34.4 1.21.48 1.39.34 1.69-.39 1.65-1.26.96-1.69-.11-2.25-.87-5.14-.67-11.51.34-15.16 1.57 3.95 4.06 74.25 13.68" filter="url(#a)"/><path d="M52.76-64.78 8.75-67.65l1.48-3.6 1.56-2.47-2.38-.86-1.32 1.06 2.16 2.96 4.8 4.23 5.8 4.37 5.58 3.45 4.38 1.89 2.13.11-.82-1.63-3.28-3.17-4.12-4.31-3.2-4.71-1.58-3.98-1.03-2.05-3.95.89-15.64 4.71-55.22 9.07" filter="url(#a)"/><path d="m-21.49-80.23 3.07 11.52 5.27 4.83-4.92 1.83-2.69.91 4.04.15 8.12-.81 8.12-1.56 5.69-1.51 3.23-.48 2.29 1.12 3.03 2.46 4.15 2.78 3.75 1.81.66-.07-4.25-1.74-7.72-1.83-5.14.44 5.25 4 15.97 4.82 5.61-3.48-50.48-25.92" filter="url(#a)"/><path d="M68.71-47.8 38.6-61.54l.64.88-4.85-1.61-9.17-4.12-6.01-3.31-1.19-1.17-.23.18-3.37.46-6.85.71-6.6 2-1.65 4.27 4.52 6.09 5.59 5.23-2.96.43-16.45-6.93-17.4-12.05 1.5-8.25" filter="url(#a)"/><path d="m-17.41-80.84 31.78 4.26 2.07 2.2-8.36 1.21-4.74.9 1.54.59 4.88.37 4.94.58 2.91 1.24-.19 1.99-3.32 2.27-4.96 1.85-3.7.96.44.18 5.23-.16 7.2-.37 4.06-1.19-3.27-2.99L8.69-72 .4-77.33l21.84-2.51" filter="url(#a)"/><path d="m64.08-53.39-29.3-14.78 1.91 1.43 5.9 3.02 2.63.98.15.04-1.11-.05-2.74-.27-5.51-.75-8.92-1.03-11.73-.77-12.63-.2-10.8.28-6.49.41-1.2.24 2.76.01 3.36-.03.21.11-4.9.17-8.71-.2-8.14-1.04-2.46-1.61 6.41-.33 20.04 3.54 65.01 4.28" filter="url(#a)"/><path d="m-44.5-70 58.97 4.21 5.79-5.27-6.72-4.43-2.75-.97 4.45 2.4 8.9 4.57 9.25 5.19 6.14 4.31.58 2.29-5.92-.27-11.08-2.47-12.37-3.51-8.76-3.11-2.08-1.78 3.72-.23 5.88 1.56 5.08 4.48-2.41 5.94-55.41-13.86" filter="url(#a)"/><path d="m45.68-69.6-34.02-7.96-15.62-.86-4.37 2.77 2.85 3.01 5.7 1.43 6.11.08 6.14-.12 5.98.2 4.61.08 1.71-.81-1.66-1.71-3.9-1.62-4.46.14-3.13 4.29 7.4 13.02 60.94 31.73" filter="url(#a)"/><path d="m-55.9-61.69 27.43-9.5 11.17-2.95 1.65-.96 3.51-.38 7.66.12 8.31.51 4.88.6-.25.44-4.24.35-5.42.49-3.76.83-.61 1.16 1.93 1.34 2.23 1.43.19 1.66-2.39 2.13-2.77 2.55.33 2.13 4.96.35 6.68-2.53 2.56-5.35-4.57-7.54 5.64-7.61" filter="url(#a)"/><path d="M37.98-73.66 32.29-59.9l-6.08 4.51 6.85 1.59 6.27.29-1.61-1.3-8.86-3.2-11.64-4.49-9.94-4.56-5.61-3.55-.76-2 2.86-.53 4.15.52 2.73 1.03-.78 1.19-4.57 1.26-6.09 1.42-3.23 1.57 3.99 1.5 11.85.83 13.65-1.01L30-69.35l-10.33-8.06-12.9-5.32" filter="url(#a)"/><path d="m-54.67-62.71 21.4-1.19 17.51-3.85 1.76-3.13-2.45-2.23-.24-1.45 1.49-.46.57.61-1.54 1.36-2.4 1.6-.81 1.4 2.85 1.03 7.04.81 10.36.97 12.11 1.66 12.39 2.72 11.42 3.67 9.03 3.85 4.55 2.7-2.65.33-12.34-2.32-22.12-4.13-25.41-4.86-9.58-6.34 35.97-11.88" filter="url(#a)"/><path d="m-51.35-65.51 35.6.4 11.96 7.38 10.2 1.86 8.48-2.93 5.58-4.03 1.4-2.95-2.95-1.44-5.57-.34-5.36.31-2.45.74 2.24 1.17 7.29 1.45 10.54 1.05 9.66-.3 5.01-1.54 2.54.49 10.93 9.99 26.21 28.27" filter="url(#a)"/><path d="M49.4-66.97 1.27-64.35l-13.52.06-12.05.4-6.62 1.23 1.49 1.8 5.95 1.39 5.23-.28 2.61-2.33 2.45-3.22 6.37-2.08 12.18.54 15.08 3.05 10.59 3.76-1.31 1.55-8.68-3.45 31.72-2.85" filter="url(#a)"/><path d="m-50.48-66.1 18.5-1.16 30.3-1.37 22.28 1.75 11.69 1.93 3.3.3-2.2-1.14-5.61-1.58-8.01-1.25-9.83-.78-10.7-.54-10.09-.6-7.97-.73-4.68-.75-.47-.36 4.84.77 11.34 2.98L9.72-62.8l17.26 6.77-3.96.48-66.14-15.55" filter="url(#a)"/><path d="m-32.26-76.3 8.86 14.78 20.14 5.61 14.05-.03 9.25-2.74 3.89-3.78-1.72-3.8-5.74-3.15-7.18-2.16-6.46-1.24-4.91-.62-3.42-.31-1.99-.02.19.61 3.74 1.78 8.19 3.3 11.88 4.57 12.59 4.62 8.84 2.76 1.13-.8-7.67-4.51-13.19-6.31-11.1-5.62 1.64-4.18 17.12-1.27" filter="url(#a)"/></g><g fill="none" stroke="#000"><circle cx="9.388" cy="4.236" r="1.706" filter="url(#a)"/><circle cx="9.384" cy="3.684" r="2.068" filter="url(#a)"/><circle cx="9.512" cy="5.5" r="1.082" filter="url(#a)"/><circle cx="11.348" cy="3.276" r="1.748" filter="url(#a)"/><circle cx="11.344" cy="3.948" r="2.012" filter="url(#a)"/><circle cx="8.592" cy="3.404" r="1.336" filter="url(#a)"/><circle cx="11.248" cy="3.952" r="2.418" filter="url(#a)"/><circle cx="8.056" cy="5.684" r="2.278" filter="url(#a)"/><circle cx="9.808" cy="5.412" r="1.564" filter="url(#a)"/><circle cx="7.928" cy="5.336" r="2.822" filter="url(#a)"/><circle cx="-12.97" cy="2.594" r="2.234" filter="url(#a)"/><circle cx="-11.698" cy="2.71" r="2.426" filter="url(#a)"/><circle cx="-14.486" cy="2.682" r="2.964" filter="url(#a)"/><circle cx="-12.338" cy=".422" r="1.928" filter="url(#a)"/><circle cx="-10.802" cy=".766" r="2.634" filter="url(#a)"/><circle cx="-12.346" cy=".038" r="1.234" filter="url(#a)"/><circle cx="-12.078" cy="2.578" r="1.1" filter="url(#a)"/><circle cx="-13.906" cy=".686" r="2.066" filter="url(#a)"/><circle cx="-14.046" cy="1.206" r="1.276" filter="url(#a)"/><circle cx="-13.498" cy=".45" r="1.062" filter="url(#a)"/></g><path fill="#D77F8C" stroke="#000" stroke-linejoin="round" stroke-width="3" d="m-53.92 32.98.44 1.76.47 1.7.51 1.64.53 1.58.56 1.52.59 1.46.62 1.4.65 1.35.68 1.29.7 1.23.73 1.18.75 1.12.78 1.07.81 1.02.83.97.85.91.87.87.9.82.92.76.94.72.97.68.98.62 1 .59 1.02.53 1.04.5 1.06.45 1.08.41 1.1.37 1.11.32 1.12.29 1.15.25 1.16.21 1.17.17 1.19.14 1.2.1 1.21.07 1.22.03h1.24l1.25-.03 1.26-.07 1.27-.09 1.28-.13 1.29-.16 1.3-.18 1.31-.21 1.31-.24 1.32-.27 1.33-.29 1.33-.31 1.34-.34 1.35-.36 1.34-.39 1.36-.4 1.35-.43 1.36-.44 1.36-.46 1.37-.49 1.36-.5 1.37-.51 1.36-.53 1.37-.55 1.36-.56 1.36-.58 1.36-.58 1.36-.6 1.36-.61 1.35-.62 1.35-.63 1.34-.64 1.34-.64 1.33-.66 1.32-.66 1.32-.66 1.32-.67 1.3-.67 1.3-.68 1.28-.67 1.28-.68 1.27-.68 1.25-.68 1.25-.68 1.24-.68 1.22-.67 1.21-.67 1.2-.67 1.18-.66 1.17-.66 1.15-.64 1.14-.65 1.12-.63 1.11-.62 1.09-.62 1.07-.6 1.06-.6 1.03-.58 1.02-.56 1-.56.98-.54.95-.52.94-.51-.94.51-.95.52-.98.54-1 .56-1.02.56-1.03.58-1.06.6-1.07.6-1.09.62-1.11.62-1.12.63-1.14.65-1.15.64-1.17.66-1.18.66-1.2.67-1.21.67-1.22.67-1.24.68-1.25.68-1.25.68-1.27.68-1.28.68-1.28.67-1.3.68-1.3.67-1.32.67-1.32.66-1.32.66-1.33.66-1.34.64-1.34.64-1.35.63-1.35.62-1.36.61-1.36.6-1.36.58-1.36.58-1.36.56-1.37.55-1.36.53-1.37.51-1.36.5-1.37.49-1.36.46-1.36.44-1.35.43-1.36.4-1.34.39-1.35.36-1.34.34-1.33.31-1.33.29-1.32.27-1.31.24-1.31.21-1.3.18-1.29.16-1.28.13-1.27.09-1.26.07-1.25.03h-1.24l-1.22-.03-1.21-.07-1.2-.1-1.19-.14-1.17-.17-1.16-.21-1.15-.25-1.12-.29-1.11-.32-1.1-.37-1.08-.41-1.06-.45-1.04-.5-1.02-.53-1-.59-.98-.62-.97-.68-.94-.72-.92-.76-.9-.82-.87-.87-.85-.91-.83-.97-.81-1.02-.78-1.07-.75-1.12-.73-1.18-.7-1.23-.68-1.29-.65-1.35-.62-1.4-.59-1.46-.56-1.52-.53-1.58-.51-1.64-.47-1.7" filter="url(#a)"/></svg>