<svg xmlns="http://www.w3.org/2000/svg" width="500" height="500" viewBox="-100 -100 200 200"><defs><clipPath id="c"><path d="m20.31-7.68-.12-.53-.15-.51-.17-.5-.18-.48-.21-.47-.24-.45-.25-.43-.27-.42-.29-.39-.32-.38-.33-.35-.35-.33-.37-.32-.39-.29-.41-.27-.39-.44-.43-.4-.45-.36-.48-.33-.51-.29-.53-.25-.56-.22-.58-.18-.61-.15-.63-.11-.66-.08-.67-.05-.69-.01-.71.02-.73.04-.74.07-.76.1-.76.12-.78.14-.78.16-.79.19-.8.2-.8.22-.81.23-.8.24-.8.26-.81.27-.8.27-.79.28-.79.29-.78.3-.77.29-.77.3-.75.3-.74.3-.73.31-.71.3-.7.29-.69.3-.67.29-.65.29-.64.28-.62.28-.6.28-.59.27-.56.27-.55.26-.54.26-.51.25-.5.25-.48.25-.46.24-.45.24-.43.24-.42.23-.4.23-.38.23-.37.22-.36.22-.33.22-.32.22-.31.21-.29.21-.28.21 3.7 6.11.19.37.21.37.23.37.25.38.26.39.28.39.29.39.32.4.33.4.34.4.37.41.38.4.39.41.41.4.43.41.45.41.46.41.48.41.49.42.52.41.53.4.54.4.56.4.57.39.59.38.59.37.62.35.62.35.63.33.64.32.65.3.66.28.66.26.67.24.68.21.68.2.68.17.69.14.68.12.69.09.68.06.68.03h.68l.68-.03.67-.07.67-.09.66-.13.65-.17.65-.19.63-.23.63-.27.62-.29.6-.34.59-.36.58-.4.57-.43.56-.46.54-.49.52-.52.51-.55.5-.58.48-.6.46-.63.45-.65.41-.49.41-.5.39-.52.37-.54.37-.55.35-.56.34-.57.32-.58.31-.59.29-.61.28-.61.27-.61.24-.62.23-.63.22-.63"/></clipPath><clipPath id="b"><path d="m-23.5-5.41.05-.53.07-.52.1-.51.12-.5.16-.48.18-.47.21-.45.23-.44.26-.41.29-.4.31-.38.34-.35.36-.33.38-.32.41-.29.38-.49.41-.46.45-.42.49-.37.52-.33.55-.28.58-.24.62-.2.64-.16.67-.12.7-.07.72-.04h.75l.76.03.78.07.8.1.82.14.82.16.84.18.85.22.85.23.86.25.86.28.86.29.87.3.86.32.86.33.85.34.84.34.84.36.83.35.82.36.8.36.79.36.78.35.77.36.74.35.73.35.72.34.69.33.68.33.66.32.64.32.62.3.61.3.58.29.57.28.55.28.53.27.51.26.5.25.48.25.47.24.45.24.44.22.42.22.41.22.39.21.37.2.36.19.35.19.33.19.32.18.31.18-1.45 5.52-.13.26-.14.27-.16.26-.18.27-.19.28-.2.27-.22.28-.24.27-.25.28-.26.28-.28.28-.3.28-.31.28-.33.27-.34.28-.36.28-.37.27-.4.28-.41.27-.43.27-.44.27-.47.26-.48.26-.5.25-.52.24-.54.23-.55.22-.58.21-.58.2-.61.19-.62.17-.64.16-.65.15-.66.12-.68.12-.69.09-.71.07-.71.06-.73.04-.73.01H1.1l-.74-.03-.76-.04-.76-.07-.77-.09-.76-.11-.77-.14-.77-.16-.77-.18-.77-.2-.76-.23-.76-.24-.76-.27-.74-.3-.74-.31-.73-.33-.72-.36-.7-.37-.7-.4-.68-.41-.66-.43-.65-.45-.63-.46-.61-.48-.56-.4-.54-.41-.53-.43-.52-.44-.51-.45-.49-.47-.47-.48-.46-.49-.44-.51-.43-.52-.4-.53-.39-.54-.37-.56-.34-.57-.33-.58"/></clipPath><filter id="a"><feTurbulence baseFrequency=".05" numOctaves="3" result="noise" type="noise"/><feDisplacementMap in="SourceGraphic" in2="noise" scale="2"/></filter></defs><rect width="100%" height="100%" x="-100" y="-100" fill="ivory"/><path fill="beige" stroke="#000" stroke-linejoin="round" stroke-width="1.667" d="m55.86.73-.06 1.31.09.44.01.09.04 2.25-.32 3.13.06-1.62.08 1.56-.4 2.43-.21 2.22.04 1.15-.22.86-.06.38-.02-.12-.27 2.77.01.35-.53 1.73.04 1-.25.82-.9 4.39-.19.37.14-.53-.67 2.73.05-.08-.06.76-.63 1.46-.2.57-.46 1.76-.55 1.15-.02.37-.53 1.26-.43 1.37-.13.87-1.19 2.65.08.1-.13.36-1.01 1.41.34-.36-.72 1.85-1.11 2.04.24-.43-1.15 2.35-.23.2-1.55 3.1-.02-.28.07.32-.17.12-1.18 2.06-1.49 2.43-.38.03-.71 1.18-.09.21-.52.91-.71.78-1.42 1.63-.18.37.02-.06-1.25 1.46.21-.04-1.08.96-.92.91-.16.17-1.19 1.13-1.25 1.16-.51.78-.59.36-.78.79-1.14.88-1.51 1.01-.15.25.27-.17-1.36 1.03-.92.3-.24.42-1.96 1.12.99-.3-2.23 1.04-.62.48-.01-.16-2.96 1.49.59-.23h-.07l-2.28 1.17.78-.49-2.72 1-.36.13-.58.11-.7.23-.41.29-1.03.19-2.39.67-.84.08-.01-.05-1.36.15.87-.12-3.48.38 2.23-.22-2.94.38.5-.2-1.36.19-1.05.17-1.34-.01-1.03-.06h-.16l-1.3-.11-1.72-.19-.04-.11.15.11-.87-.18-.22-.25-1.89-.26-1.17-.24-2.17-.63 1.4.59-2.38-.65-1.41-.91-.62-.03-.28.18.16-.06-2.27-1.2-.41-.3-1.84-.46 1.31.39-1.01-.46-1.34-.65-.9-.6-1.94-1.36-.3.05-.16-.09-.96-.9-1.29-.65-.95-.76-.38-.28.27-.03-1.54-1.25-1.48-1.12.15.01-.53-.46-.58-.56-.97-.89h-.06l-1.96-2.31.79 1.24-1.58-1.9-1.39-1.54-.72-.8-.76-1.12-.55-.49-.93-1.44-.06.05-1.21-1.76.15.48-1.01-1.99-.5-.35-.28-.81-.26-.35-.63-1.39-.72-1.26-.17.09-.58-1.09-.63-1.2-1.61-3.01.02-.22-.33-.94.14.4-.72-1.8-.27-.36-1.43-3.38.62 1.54-.77-2.12-1-2.2-.34-1.89-.02.37-.66-1.84.14.07-.32-1.01-.39-1.57-.31-1.23-.6-1.61-.06-.26-.08-.26-.72-3.98-.24-.48-.38-1.47v-1.26l-.14-.57-.23-.5-.06-1.79-.17-1.2-.22-1.49-.18-1.61-.17-1.54.06-.29-.15-.45-.36-3.28.11-.17-.09-1.37.05 1.49-.26-4.62.16-.83-.15-1.22.01-1.63.07.62.14-.3.09-3.63.09-1-.09.49.12-2.82.05-.33.1-1.31.17-2.52.31-.61-.19-.4.54-3.39-.09.93.28-1.93-.04.57.75-4.38.02-.5.41-2.09.28-.98-.29 1.15.86-2.82.3-1.89.02-.09.06-.22.34-.81 1.02-3.13-.39.71.81-2.19.27-.54.86-2.83.66-1.07-.2-.19.36-.69.46-.64.5-1.86.93-1.73.47-.79.07-.2 1.35-2.85-.32.56.64-1.18-.05.19.97-1.8 1.49-2.51-1.04 2.04 1.19-2.07.21-.21 1-1.69 1.1-1.76.54-.97.82-.93.6-.55.27-.7.83-.67 1.08-1.52.78-.74.24-.34.54-.3.6-.72.51-.68 1.3-1.33 1.18-1.22.36-.08.65-.46 1.02-.95-.25-.01 2.21-1.48.27-.1.77-.87 1.67-1.26.2.29-.03-.34h.49l.3-.45.77-.35 1.84-1.27 1.12-.25.26-.39.15-.06 2.76-1.23-.87.41 1.29-.57 2.33-.92.88-.28.51-.02-.57.18 1.52-.33.12-.13 1.62-.24 1.4-.57.85.01h.72l.63-.09.26-.12 1.35-.22.6-.1.85-.01.41-.08 1.51.21 1.11-.22.37-.06 1.83.41-.35-.27 1.3.3.52-.14.59.23 1.19-.07.88.25 1.93.56.98.06.36.28 2.28.64-1.72-.41 1.87.59 1.25.34 1.01.27.92.49 1.41.59.26-.01-.44-.27L18.83-75l.54.22 1.47.72.38.2 1.05.75 1.08.67 1.36.83.16.07.72.65-.01-.12 2.34 1.9.64.74.89.6.34.21.15.24 1.11.93.02.08.72.41.7 1.37.9.39.87.99.7 1.03 1.74 1.99-1.41-1.83 1.83 2.58 1.36 1.52.32.57-.64-.83.79.97 1.33 1.52.64 1.13.96 1.45.06.27-.05.02 1.01 1.39.98 2.05-.44-.85.84 1.26.93 1.87.57 1.12.53.88-.24-.2 1.87 4.18.09-.02.29.65.5 1.36.49 1.28.04.32.57 1.09.79 2.55.52 1.64-.44-1.44.81 2.69-.18-.25.74 2.34-.16-.94.72 2.83.69 2.8-.07-.15.51 2.41-.13-.73.33 2.17-.39-1.64 1.08 5.34-.05-.1-.15-.19.26 1.56.4 2.94.31 1.63-.28-.56.3 1.47.27 2.59-.03.44-.06 1.2-.05-.51.3 2.82-.12.62v2.77l.02.81-.06 1.31" filter="url(#a)"/><path fill="#fff" d="m-23.5-5.41.05-.53.07-.52.1-.51.12-.5.16-.48.18-.47.21-.45.23-.44.26-.41.29-.4.31-.38.34-.35.36-.33.38-.32.41-.29.38-.49.41-.46.45-.42.49-.37.52-.33.55-.28.58-.24.62-.2.64-.16.67-.12.7-.07.72-.04h.75l.76.03.78.07.8.1.82.14.82.16.84.18.85.22.85.23.86.25.86.28.86.29.87.3.86.32.86.33.85.34.84.34.84.36.83.35.82.36.8.36.79.36.78.35.77.36.74.35.73.35.72.34.69.33.68.33.66.32.64.32.62.3.61.3.58.29.57.28.55.28.53.27.51.26.5.25.48.25.47.24.45.24.44.22.42.22.41.22.39.21.37.2.36.19.35.19.33.19.32.18.31.18-1.45 5.52-.13.26-.14.27-.16.26-.18.27-.19.28-.2.27-.22.28-.24.27-.25.28-.26.28-.28.28-.3.28-.31.28-.33.27-.34.28-.36.28-.37.27-.4.28-.41.27-.43.27-.44.27-.47.26-.48.26-.5.25-.52.24-.54.23-.55.22-.58.21-.58.2-.61.19-.62.17-.64.16-.65.15-.66.12-.68.12-.69.09-.71.07-.71.06-.73.04-.73.01H1.1l-.74-.03-.76-.04-.76-.07-.77-.09-.76-.11-.77-.14-.77-.16-.77-.18-.77-.2-.76-.23-.76-.24-.76-.27-.74-.3-.74-.31-.73-.33-.72-.36-.7-.37-.7-.4-.68-.41-.66-.43-.65-.45-.63-.46-.61-.48-.56-.4-.54-.41-.53-.43-.52-.44-.51-.45-.49-.47-.47-.48-.46-.49-.44-.51-.43-.52-.4-.53-.39-.54-.37-.56-.34-.57-.33-.58" filter="url(#a)" transform="translate(24.92 -25.99)"/><path fill="#fff" d="m20.31-7.68-.12-.53-.15-.51-.17-.5-.18-.48-.21-.47-.24-.45-.25-.43-.27-.42-.29-.39-.32-.38-.33-.35-.35-.33-.37-.32-.39-.29-.41-.27-.39-.44-.43-.4-.45-.36-.48-.33-.51-.29-.53-.25-.56-.22-.58-.18-.61-.15-.63-.11-.66-.08-.67-.05-.69-.01-.71.02-.73.04-.74.07-.76.1-.76.12-.78.14-.78.16-.79.19-.8.2-.8.22-.81.23-.8.24-.8.26-.81.27-.8.27-.79.28-.79.29-.78.3-.77.29-.77.3-.75.3-.74.3-.73.31-.71.3-.7.29-.69.3-.67.29-.65.29-.64.28-.62.28-.6.28-.59.27-.56.27-.55.26-.54.26-.51.25-.5.25-.48.25-.46.24-.45.24-.43.24-.42.23-.4.23-.38.23-.37.22-.36.22-.33.22-.32.22-.31.21-.29.21-.28.21 3.7 6.11.19.37.21.37.23.37.25.38.26.39.28.39.29.39.32.4.33.4.34.4.37.41.38.4.39.41.41.4.43.41.45.41.46.41.48.41.49.42.52.41.53.4.54.4.56.4.57.39.59.38.59.37.62.35.62.35.63.33.64.32.65.3.66.28.66.26.67.24.68.21.68.2.68.17.69.14.68.12.69.09.68.06.68.03h.68l.68-.03.67-.07.67-.09.66-.13.65-.17.65-.19.63-.23.63-.27.62-.29.6-.34.59-.36.58-.4.57-.43.56-.46.54-.49.52-.52.51-.55.5-.58.48-.6.46-.63.45-.65.41-.49.41-.5.39-.52.37-.54.37-.55.35-.56.34-.57.32-.58.31-.59.29-.61.28-.61.27-.61.24-.62.23-.63.22-.63" filter="url(#a)" transform="translate(-30.54 -26.36)"/><g fill="none" stroke="#000" transform="translate(24.92 -25.99)"><path stroke-linejoin="round" stroke-width="1.667" d="m-22.36-.12-.24-.49-.21-.51-.19-.52-.15-.53-.13-.54-.1-.54-.07-.54-.05-.55-.01-.54.01-.53.05-.53.07-.52.1-.51.12-.5.16-.48.18-.47.21-.45.23-.44.26-.41.29-.4.31-.38.34-.35.36-.33.38-.32.41-.29.38-.49.41-.46.45-.42.49-.37.52-.33.55-.28.58-.24.62-.2.64-.16.67-.12.7-.07.72-.04h.75l.76.03.78.07.8.1.82.14.82.16.84.18.85.22.85.23.86.25.86.28.86.29.87.3.86.32.86.33.85.34.84.34.84.36.83.35.82.36.8.36.79.36.78.35.77.36.74.35.73.35.72.34.69.33.68.33.66.32.64.32.62.3.61.3.58.29.57.28.55.28.53.27.51.26.5.25.48.25.47.24.45.24.44.22.42.22.41.22.39.21.37.2.36.19.35.19.33.19.32.18.31.18.29.17.28.17.27.16.26.16.24.15.23.16.22.15.21.14.2.15.18.14" filter="url(#a)"/><path stroke-linejoin="round" stroke-width="2.222" d="m-24.3-7.14.07.69.1.68.12.67.16.66.18.65.21.64.23.62.26.62.28.61.3.59.33.58.34.57.37.56.39.54.4.53.43.52.44.51.46.49.47.48.49.47.51.45.52.44.53.43.54.41.56.4.61.48.63.46.65.45.66.43.68.41.7.4.7.37.72.36.73.33.74.31.74.3.76.27.76.24.76.23.77.2.77.18.77.16.77.14.76.11.77.09.76.07.76.04.74.03h.75l.73-.01.73-.04.71-.06.71-.07.69-.09.68-.12.66-.12.65-.15.64-.16.62-.17.61-.19.58-.2.58-.21.55-.22.54-.23.52-.24.5-.25.48-.26.47-.26.44-.27.43-.27.41-.27.4-.28.37-.27.36-.28.34-.28.33-.27.31-.28.3-.28.28-.28.26-.28.25-.28.24-.27.22-.28.2-.27.19-.28.18-.27.16-.26.14-.27.13-.26.12-.25.11-.26.09-.25.08-.24.06-.24.05-.24.04-.23.03-.23.02-.22v-.22" filter="url(#a)"/><circle cx="-10.318" cy="-7.807" r="4.426" clip-path="url(#b)" filter="url(#a)"/><circle cx="-10.383" cy="-9.592" r="3.136" clip-path="url(#b)" filter="url(#a)"/><circle cx="-14.558" cy="-10.137" r="4.39" clip-path="url(#b)" filter="url(#a)"/><circle cx="-9.803" cy="-8.552" r="3.57" clip-path="url(#b)" filter="url(#a)"/><circle cx="-11.563" cy="-7.662" r="4" clip-path="url(#b)" filter="url(#a)"/><circle cx="-11.193" cy="-6.167" r="4.63" clip-path="url(#b)" filter="url(#a)"/><circle cx="-10.703" cy="-10.007" r="4.718" clip-path="url(#b)" filter="url(#a)"/><circle cx="-10.243" cy="-6.862" r="3.67" clip-path="url(#b)" filter="url(#a)"/><circle cx="-13.488" cy="-8.802" r="4.38" clip-path="url(#b)" filter="url(#a)"/><circle cx="-13.558" cy="-7.417" r="4.762" clip-path="url(#b)" filter="url(#a)"/></g><g fill="none" stroke="#000" transform="translate(-30.54 -26.36)"><path stroke-linejoin="round" stroke-width="2.222" d="m20.35-1.99.09-.58.07-.58.05-.58.03-.58.01-.58-.01-.58-.04-.56-.06-.56-.08-.55-.1-.54-.12-.53-.15-.51-.17-.5-.18-.48-.21-.47-.24-.45-.25-.43-.27-.42-.29-.39-.32-.38-.33-.35-.35-.33-.37-.32-.39-.29-.41-.27-.39-.44-.43-.4-.45-.36-.48-.33-.51-.29-.53-.25-.56-.22-.58-.18-.61-.15-.63-.11-.66-.08-.67-.05-.69-.01-.71.02-.73.04-.74.07-.76.1-.76.12-.78.14-.78.16-.79.19-.8.2-.8.22-.81.23-.8.24-.8.26-.81.27-.8.27-.79.28-.79.29-.78.3-.77.29-.77.3-.75.3-.74.3-.73.31-.71.3-.7.29-.69.3-.67.29-.65.29-.64.28-.62.28-.6.28-.59.27-.56.27-.55.26-.54.26-.51.25-.5.25-.48.25-.46.24-.45.24-.43.24-.42.23-.4.23-.38.23-.37.22-.36.22-.33.22-.32.22-.31.21-.29.21-.28.21-.26.21-.24.21-.23.2-.22.21-.2.2-.19.2-.17.2-.16.2-.15.21-.14.19" filter="url(#a)"/><path stroke-linejoin="round" stroke-width="2.222" d="m21.02-7.08-.02.57-.03.59-.06.59-.08.61-.1.62-.12.62-.14.62-.16.63-.18.63-.19.63-.22.63-.23.63-.24.62-.27.61-.28.61-.29.61-.31.59-.32.58-.34.57-.35.56-.37.55-.37.54-.39.52-.41.5-.41.49-.45.65-.46.63-.48.6-.5.58-.51.55-.52.52-.54.49-.56.46-.57.43-.58.4-.59.36-.6.34-.62.29-.63.27-.63.23-.65.19-.65.17-.66.13-.67.09-.67.07-.68.03h-.68l-.68-.03-.68-.06-.69-.09-.68-.12-.69-.14-.68-.17-.68-.2-.68-.21-.67-.24-.66-.26-.66-.28-.65-.3-.64-.32-.63-.33-.62-.35-.62-.35-.59-.37-.59-.38-.57-.39-.56-.4-.54-.4-.53-.4-.52-.41-.49-.42-.48-.41-.46-.41-.45-.41-.43-.41-.41-.4-.39-.41-.38-.4-.37-.41-.34-.4-.33-.4-.32-.4-.29-.39-.28-.39-.26-.39-.25-.38-.23-.37-.21-.37-.19-.37-.17-.36-.16-.35-.14-.35-.12-.34-.11-.33-.09-.33-.07-.32-.05-.31-.04-.31-.03-.3" filter="url(#a)"/><circle cx="-.441" cy="7.965" r="4.02" clip-path="url(#c)" filter="url(#a)"/><circle cx="3.449" cy="5.155" r="3.746" clip-path="url(#c)" filter="url(#a)"/><circle cx="1.254" cy="4.875" r="3.28" clip-path="url(#c)" filter="url(#a)"/><circle cx="-.511" cy="9.005" r="4.036" clip-path="url(#c)" filter="url(#a)"/><circle cx="1.379" cy="4.53" r="3.694" clip-path="url(#c)" filter="url(#a)"/><circle cx="-.016" cy="7.475" r="4.948" clip-path="url(#c)" filter="url(#a)"/><circle cx="-.881" cy="7.95" r="4.758" clip-path="url(#c)" filter="url(#a)"/><circle cx="2.134" cy="5.21" r="4.06" clip-path="url(#c)" filter="url(#a)"/><circle cx=".014" cy="7.685" r="3.57" clip-path="url(#c)" filter="url(#a)"/><circle cx="-.016" cy="8.7" r="4.472" clip-path="url(#c)" filter="url(#a)"/></g><g fill="none" stroke="#A7856A" stroke-linejoin="round" stroke-width="2"><path d="m-15.13-76.88 1.62-.59.76-.18.22.09-.04.27-.2.39-.33.53-.53.71-.83.92-1.2 1.17-1.63 1.44-2.11 1.76-2.58 2.1-3.09 2.51-3.59 2.94-4.13 3.37-4.69 3.82m48.61-22.4 1.61.52 1.37.48 1.25.51 1.14.51 1.03.52.97.52.93.53.95.56.97.58.98.59.96.59.91.56.83.53.72.45.58.38.4.27.23.14.03.01-.17-.14-.37-.29-.58-.43-.82-.59-1.18-.8m14.61 14.17.06.19.03.16.17.38.15.49v.41l-.26.23h-.55l-.84-.2-1.1-.4-1.38-.57-1.64-.76-1.92-.96-2.22-1.16-2.54-1.39-2.9-1.65-3.31-1.92-3.74-2.22-4.21-2.55-4.67-2.94-5.07-3.32" filter="url(#a)"/><path d="m-15.55-76.72-.03.05.91-.35 1.13-.41.95-.32.71-.21.52-.13.42-.1.33-.06.18-.02-.07.07-.44.2-.85.34-1.26.47-1.67.61-1.95.72m64.7 34.78.33.82.35.93.31.88.28.82.23.74.14.59.04.36-.1.1-.23-.18-.35-.42-.49-.64-.61-.87-.74-1.12-.91-1.43-1.1-1.85-1.34-2.34-1.57-2.87-1.8-3.35-2.05-3.83-2.36-4.39" filter="url(#a)"/><path d="m-10.46-78.25.71-.09 1.38-.01 1.63.16 1.72.33 1.81.5 1.91.62 2.05.72 2.2.82 2.35.92 2.49 1 2.61 1.08 2.69 1.13 2.73 1.17 2.73 1.19 2.7 1.19 2.66 1.22 2.66 1.28 2.65 1.33 2.52 1.2 2.13.73" filter="url(#a)"/><path d="m-18.31-75.49 1.72-.7 1.21-.36 1.38-.32 1.53-.29 1.54-.2 1.49-.12 1.5-.07 1.55-.05 1.63-.06 1.71-.07 1.73-.07 1.71-.04 1.66-.03 1.56-.01h1.44l1.3-.01 1.13-.04.95-.05.8-.05.73-.03.7-.01m19.13 10.51.29.37.23.4.05.38-.13.4-.33.42-.56.42-.86.37-1.18.31-1.55.21-1.93.11-2.34.01-2.75-.1-3.2-.24-3.63-.36-4.03-.48-4.39-.61-4.75-.75-5.19-.91-5.77-1.03-6.51-1.02" filter="url(#a)"/><path d="m-19.84-74.79.91-.26.95-.28 1.21-.31 1.46-.3 1.64-.29 1.78-.27 1.84-.22 1.85-.16 1.81-.11 1.77-.08 1.78-.06 1.8-.06 1.83-.07 1.83-.06 1.78-.04 1.69-.02 1.55-.01 1.34-.02 1.1-.06.81-.11.42-.16m27.64 20.59 1.04 1.32.77 1.1.53.85.35.6.23.44.14.32.01.13-.15-.11-.37-.41-.61-.75-.88-1.14-1.23-1.64-1.65-2.2-2.08-2.71M20.84-74.06l.62.4.93.63 1.01.68.96.68.91.67.89.68.89.7.86.7.79.65.68.55.55.45.42.35.31.26.21.19.12.13-.01.04-.15-.08-.36-.25-.6-.46-.84-.68-1.06-.88-1.21-1.01-1.41-1.18" filter="url(#a)"/><path d="m19.37-74.78 1.14.61 1.01.64 1.07.74 1.1.79 1.08.8 1.04.81 1.03.83 1.02.86 1 .85.93.8.82.69.67.56.51.42.36.28.2.15.07.02-.07-.09-.19-.21-.33-.32-.49-.47-.7-.66M40.92-54.5l.59.94.24.49.15.36.07.28-.06.12-.25-.11-.44-.35-.68-.64-.97-.98-1.32-1.41-1.74-1.92-2.24-2.51-2.74-3.15-3.16-3.8" filter="url(#a)"/><path d="m29.79-67.56.3.36.26.38.1.35-.07.34-.24.34-.44.31-.72.23-1.04.12h-1.4l-1.79-.15-2.16-.31-2.56-.48-2.96-.69-3.39-.88-3.86-1.03-4.38-1.12L.5-71l-5.47-1.38-6.03-1.6m-7.72-1.06.48-.32 1.03-.32 1.36-.29 1.59-.25 1.77-.21 1.87-.14 1.91-.06 1.9.01 1.9.06 1.94.07 2.01.08 2.07.07 2.08.07 2.04.08 1.94.08 1.81.06 1.67.05 1.55.02 1.42.01 1.3-.03 1.28-.01" filter="url(#a)"/><path d="m31.05-66.39.17.21.26.43.19.5.02.47-.23.39-.53.26-.86.11-1.22-.05-1.6-.22-1.99-.41-2.44-.62-2.91-.82-3.36-1-3.81-1.15-4.21-1.34-4.61-1.6-5.03-1.93-5.5-2.25m21.87-1.42.99.49.93.47.82.47.88.55 1 .66 1.11.73 1.18.78 1.19.78 1.14.76 1.06.7.93.62.8.53.67.46.55.38.44.32.29.21.09.07-.17-.14-.49-.41m-48.51-6.39.89-.27.9-.34 1.11-.37 1.31-.4 1.45-.41 1.55-.39 1.56-.37 1.52-.32 1.42-.27 1.31-.23 1.23-.22 1.18-.22 1.12-.22 1.05-.21.92-.18.77-.15.58-.11.35-.11.12-.09-.14-.03m33.9 16.55.82 1.09.74.93.7.92.74.99.73.98.69.93.64.87.62.84.6.84.56.79.48.7.39.59.28.46.19.31.08.15-.04-.03-.18-.22-.32-.43-.47-.62-.6-.81-.74-1.03-.99-1.41-1.52-2.18" filter="url(#a)"/><path d="m49.35-37.47.43 1.23.04.97-.43.31-.87-.26-1.27-.68-1.66-1.04-2.05-1.37-2.48-1.73-2.94-2.11-3.45-2.58-4.01-3.13-4.57-3.77-5.14-4.41-5.7-5.01-6.28-5.53-6.85-6.02" filter="url(#a)"/><path d="m49.35-37.47.45 1.3.09 1.14-.34.61-.72.18-1.06-.09-1.39-.28-1.72-.45-2.08-.6-2.47-.8-2.87-1.05-3.32-1.38-3.77-1.75-4.23-2.12-4.71-2.45-5.19-2.74-5.65-3.03-6.07-3.37-6.46-3.8-6.77-4.28-7.06-4.78" filter="url(#a)"/><path d="m48.82-39.07.3.91.15.71.04.68-.13.49-.37.17-.62-.18-.87-.49-1.11-.76-1.35-1-1.6-1.24-1.86-1.51-2.15-1.85-2.5-2.26-2.88-2.73-3.29-3.21-3.71-3.67-4.08-4.06-4.41-4.44-4.74-4.87-5.11-5.39m2.04-4.49 1.04.34.25.2.16.25.03.32-.27.35-.68.35-1.19.36-1.71.36-2.24.39-2.75.46-3.24.51-3.72.55-4.19.51-4.66.41-5.13.26" filter="url(#a)"/><path d="m-3.51-79.61.56-.04.5.06.41.16.28.24.06.35-.23.48-.57.61-.91.76-1.24.9-1.57 1.04-1.9 1.2-2.25 1.39-2.64 1.61-3.08 1.83-3.56 2.03-4.09 2.22-4.66 2.4-5.25 2.62m70.35-.38-.32-.38.64.86.75.98.6.78.48.63.44.58.41.55.32.47.17.29-.04.02-.28-.28-.49-.59-.73-.9-1.01-1.27-1.34-1.71-1.71-2.09m-49.72-14.69 1.67-.63.9-.28.47-.09.32-.01.29.02.26.06.18.13.02.23-.23.34-.51.49-.81.62-1.11.76-1.42.93-1.74 1.11-2.1 1.33-2.45 1.55-2.79 1.73-3.12 1.85-3.45 1.91" filter="url(#a)"/><path d="m29.94-67.32.81.71.68.69.79.85.9 1.01.97 1.08.95 1.07.85.97.71.83.55.66.41.51.23.3-.05-.07-.45-.59-.65-.87m-41.5-19.22.98-.13.59.03.38.17.21.29.03.42-.21.57-.5.72-.84.88-1.19 1.06-1.54 1.25-1.89 1.48-2.25 1.73-2.6 1.98-2.98 2.23-3.37 2.42-3.8 2.61-4.31 2.82-4.9 3.15-5.51 3.48m84.63 6.99 1.04 2.5.07.88-.5.2-.97-.21-1.43-.54-1.9-.9-2.4-1.26-2.92-1.7-3.49-2.2-4.09-2.74-4.68-3.28-5.29-3.81-5.9-4.34-6.58-4.87-7.38-5.37m38.83 15.02.09.21.12.19.31.44.36.56.24.49.04.28-.19.06-.42-.18-.65-.41-.88-.63-1.14-.89-1.42-1.15-1.71-1.44-2.01-1.75-2.33-2.1-2.6-2.43-2.84-2.75-3.22-3.14m-48.31 3.55.45-.41.94-.69.97-.71.88-.65.74-.54.57-.4.43-.29.34-.22.3-.18.23-.13.11-.02-.12.14-.42.35-.76.59-1.09.81-1.41 1.04-1.74 1.27" filter="url(#a)"/><path d="m-6.47-79.18.61-.03.51-.06.46-.07.36-.02.2.04.01.12-.21.21-.48.31-.81.4-1.21.53-1.67.65-2.16.8-2.62.9-2.97.96-3.27.99m7.8-4.63h.28l.34-.03.53-.11.63-.14.6-.12.45-.06.19.04-.13.14-.46.26-.8.36-1.17.5-1.57.66-2.02.84-2.41.99-2.72 1.05m68.21 32.62.33.82.34.91.3.86.26.8.2.71.11.55-.01.33-.15.07-.26-.18-.39-.39-.52-.61-.65-.84-.82-1.11-.99-1.43-1.2-1.82-1.44-2.28-1.68-2.75-1.9-3.19-2.09-3.57-2.24-3.89-2.42-4.26M5.23-79.34l1.07.06 1.03.23.89.29.65.3.38.31.12.31-.09.34-.27.37-.46.41-.68.45-.93.46-1.22.48-1.53.48-1.84.52-2.17.58-2.5.66-2.85.75-3.22.82-3.6.88-3.98.91-4.35.88-4.74.8" filter="url(#a)"/><path d="m10.21-78.54.66.31.57.24.42.19.36.2.29.2.11.19-.17.16-.53.1-.9.05H9.74l-1.63-.04-2.03-.05-2.48-.08-3.01-.11-3.57-.17-4.1-.24m42.37 15.63 1.5 2.03.96 1.23.58.76.47.61.49.64.5.7.46.67.36.58.24.44.11.28-.01.14h-.14l-.25-.16-.39-.31-.52-.47-.65-.64-.81-.82-.98-1.05-1.19-1.3-1.43-1.63-1.77-2.05-2.18-2.55-2.57-3.01" filter="url(#a)"/><path d="m1.34-79.87 1.27.32 1.09.41 1.27.59 1.54.78 1.8.98 2.05 1.13 2.24 1.29 2.36 1.41 2.42 1.51 2.42 1.57 2.39 1.61 2.38 1.65 2.39 1.67 2.41 1.69 2.41 1.71 2.39 1.72 2.27 1.65 2.05 1.44m-41.4-22.97.73-.01H-.6l.71.02.52.05.29.06.01.1-.29.12-.58.16-.87.19-1.14.21-1.42.24-1.77.25-2.3.28-3.17.41m14.73-1.8.61-.01.9.14 1.13.23 1.28.32 1.31.36 1.25.38 1.16.38 1.07.36 1 .35.95.33.88.31.8.27.67.23.51.17.34.11.19.06.05.01-.08-.02-.26-.09-.5-.19-.84-.31-1.23-.46-1.73-.62" filter="url(#a)"/><path d="m-7.32-79.19-2.89 2.42.95 1.45 6.02-.16 5.83-.18 2.35.57-1.35 1.25-3.2 1.47-2.71 1.09-.57.37 2.32-.14 5.23.09 7.18 1.09 6.38 2.07.65 2.28-12.48 2.6-43.56 2.98" filter="url(#a)"/><path d="m-18.46-75.43 30.59 5.62 7.05 2.18-2.96.07-2.6.11 1.02 1.08 2.68 1.34 1.43.38-1.12-1.07-3.15-2.01-3.82-1.9-3.16-.9-1.6.51.44 1.72 2.43 2.29 3.92 2.1 4.44 1.56 3.57 1.38.19 1.65-7.63.53-19.55-4.72-19.56-7.03" filter="url(#a)"/><path d="m-16.42-76.31 29.56 11.19 4.85 4.77-9.5-2.58-11.53-3.71-6.65-2.04.41.03 6.72 1.94 10.38 3.59 10.32 4.56 6.54 4.05.23 1.65-6.29-2.02L8.14-60l-10.9-5.5-8.16-1.98-2.9 4.58 10.9 11.82 53.71 17.45" filter="url(#a)"/><path d="m-22.45-73.17 17.62-.42 9.3 2.17 4.63 1.27 3.52.87 2.96 1.02 2.02.93.94.41.23-.1.09-.16.2.15.13.44-.25.43-.64.14-.67-.21-.42-.46-.58-.63-2.02-.82-4.98-.9-8.49-.61-10.39.13-8.01.97.58 1.36 16.45 2.63 42.12 11.8" filter="url(#a)"/><path d="M51.42-31.19-5.44-47.5l-13.97-10.92 1.25-6.44 4.73-3.3 4.5-1.11 3.37.17 1.61.69-.5.7-2.11.47-2.5.16-1.81-.1-.76-.33-.03-.52.3-.76.64-.97 1.55-1 3.25-.72 5.11-.26 5.27-.05 1.08-.78-7.24-2.68-4.77-3.93" filter="url(#a)"/><path d="m-18.72-75.04 9.6 2.84 7.47 6.71 6.79 1.9 4.37-1.81 2.59-2.43.88-1.57-1.12-.7-2.42-.11-2.13.36-.73.74.11.93-.78.94-2.97.89-4.89.84-5.59.46-6.11-.39-8.81-.75-7.65-1.27" filter="url(#a)"/><path d="m-44.27-48.98 38.95-1.09 1.28-6.07-.2-4.05 1.11-2.02 1.35-1.17 1.17-1.3.61-1.9-.36-2.36-1.24-2.37-1.48-1.96-.78-1.34.71-.61 2.49.18 3.85 1.07 4.2 1.99 3.25 2.85 1.52 3.57.31 4.22.62 4.46.84 3.15-4.64-1.12-19.32-6.36-25.23-.92" filter="url(#a)"/><path d="m-11.98-77.92 1.31 4.53 7.49 8.12 5.78 4.52 1.88.54 1.06-1.4 1.55-1.62.82-.86-.78.28-1.39 1.31-.12 1.77 2.01 1.35 3.42.15 2.88-1.36-1.15-3.24-8.58-6.81-1.03-8.82" filter="url(#a)"/><path d="m-39.4-56.79 18.91-8.97 18.36-5.39 9.62-2.45 3.07-.1-.29 1.53-1.65 2.05-2.03 1.58-1.72.75-.56.58 1.71 1.76 4.32 3.92 4.08 5.15-4.35 3-22.53-1.4-32.45 6.98" filter="url(#a)"/><path d="m14.25-77.1-15.09-.25-10.44 2.25-3.07 2.54 3.79 1.97 7.06 1.28 6.65.92 4.69.99 3.25 1.42 2.93 1.77 3.18 1.72 3.2 1.28 2.78.92 2.17 1.15 1.49 1.72.18 1.37-2.28-1.07-4.8-4.75-5.23-6.12-6.45-3.18-26.72-4.26" filter="url(#a)"/><path d="m-5.12-79.27 21.96 7.74 4.51 2.3-4.06-.84-5.28-1.63-3.9-1.3-3.35-.85-3.94-.49-4.45-.03-3.94.57-2.27 1.08.27 1.19 2.99.79 4.42.14 2.43.02-5.11 1.68-29.64 6.03" filter="url(#a)"/><path d="M23.35-72.44.42-67.33l.28-.46-2.77-.42-3.82.93.15 2.12 4.8 2.51 6.73 1.99 5.46 1.09 2.35.3-.65-.54-2.1-1.92-1.73-3.81-.87-5.17-1.16-4.75-1.63-2.64 4.75-.44" filter="url(#a)"/><path d="m-23.24-72.72 27.2 6.98 2.31 1.99-4.41.65-5.58-.42-2.75-1.25.9-1.45 3.06-.91 3.64.12 3.54 1.08 3.04 1.44 1.83 1.08-.19.3-2.23-.29-2.86-.27-1.2.39 2.12 1.35 4.9 2.1 4.7 2.27.89 1.87-4.32 1.13-7.25.07-4.08-3.09 25.56-13.43" filter="url(#a)"/><path d="M-28.08-68.95 9.4-63.21l7.98 1.97-4.82-3.6-4.49-3.67-.41-.81 2.16 2.46 2.72 4.78 2.94 5.51 4.05 4.71 5.6 2.96 5.7 1.03 2.43-.8-4.87-2.7-14.84-4.86-21.42-7.59-2.47-14.56" filter="url(#a)"/><path d="m41.88-53.05-15.57-3.22-9.79-3.23-1.1-3.55-.79-3.65-3.04-2.69-3.84-.71-2.88 1.42-1.5 2.71-.75 2.68-.73 1.68-.78.51-.08-.16 1.57-.32 3.35-.45L9.49-63l.7-1.68-4.94-1.74-10.93-.51-13.28.88-9 .07-4.63 1.07" filter="url(#a)"/><path d="M43.88-49.32 9.35-59.83l-2.68-5.33-1.18-1.82-1.81.16-.42.67 1.13.23 1.03-.31-.61-.2-1.77.83.21 2.47 6.13 4.21 12.58 5.34 12.91 4.28 2.36-2.61-17.86-22.87" filter="url(#a)"/><path d="m-6.47-79.18 16.21 6.12 2.95 6.19-4.51 5.29-4.3 4.17-2.65 1.58-2.13-1.36-2.16-3.27-1.51-3.74.04-3.24 1.63-2.31 2.15-1.4 1.33-.68.07-.14.08.5 2.75 1.64 6.79 3.12 3.18 2.21-29-12.22" filter="url(#a)"/><path d="M48.82-39.07 36.81-53.96l-8.12-5.38-9.56-4.28-7.2-2.35-3.23-.55-.83.3-.62.26-1.23-.38-1.19-1.18-.05-1.7 1.67-1.6 3.06-.91 3.46.1 2.64.99.67 1.48-2.23 1.33-5.39.59-7.53-.49-6.96-1.22-2.91-.9 3.01 1 10.08 4.68 36.57 9.67" filter="url(#a)"/><path d="m17.59-75.75 10.12 10.14 4.82 6.06-3.69-.51-8.85-1.88-9.28-.24-6.04 1.11-1.88.74.82-.86 1.53-2.27 1.29-2.36 1.4-1.03 2.27.99 3.18 2.72 2.88 3.47.56 3.03-3.27 1.63-6.23.09-4.69.55 5.91 7.15 44.97 23.06" filter="url(#a)"/><path d="m-12.8-77.8 9.98 3.97 8.25 1.75-1.64-.7-6.39-.88-5.69-.49-2.58-.33-.03-.14.51.59-.3 1.93-.35 3.48 2.26 4.45 7.2 4.08L9.9-57.92l11.4-.54 7.24-1.63 6.36 3.49 14.41 18.81" filter="url(#a)"/><path d="m-11.92-78.08 17.95 5.94 1.76 6.42-2.58 4.01 1.46 1.91 4.69-.11 4.83-1.36 3.46-1.4 2-.61.56.3-1.42.7-4.12.38-6.8-.4-8.33-1.27-7.79-1.85-5.09-2.03-1.01-1.84 3.16-1.46 6.04-1 6.48-.51 4.39.15 1.81.88.41.23-15.06-8.27" filter="url(#a)"/><path d="M32.49-64.53 12.81-68.8 9.4-64.31l4.74 3.63 5.84 1.82 4.28 1.24 1.48.97-1.86.09-4.49-1.3-5.2-2.5-3.81-2.92-1.49-2.46.05-1.41-.4-.2-2.71.83-5.42 1.49-6.46 1.82-4.06 2.07 2 2.56 9.5 3.16 13.55 2.89 7.61.39L9.24-55.5l-49.74.47" filter="url(#a)"/><path d="m-21.68-73.52 14.44 10.88 13.26 6.49-1.96-.24-7.29-2.92-4.04-3.25 1.35-2.76 4.59-1.98 4.65-1.03 2.58-.09.17.52-1.05.64-.78.36.26-.14.91-.58.77-.78.2-.74-.93-.74-3.78-1.19-9.12-.7-23.84 5.53" filter="url(#a)"/><path d="m-29.1-68 14.17-3.68L0-72.55l7.37 1.3 2.08 1.8.77 1.36 1 .65.6-.14-.89-.86-2.83-1.32L3.74-71l-4.84-.61-3.86.43-1.28 1.6 2.52 2.72 6.38 3.53 8.58 3.78 7.71 3.26 3.83 2.11-.76.82-2.63-.36-1.21-2.74-4.62-8.71-24.97-12.93" filter="url(#a)"/><path d="m15.26-76.83-8.13 2.87-2.33 4.18 3.03 1.82 4.94.93 4.75 1.47 2.32 1.81-1.59 1.34-5 .53-6.18.1-4.86.29-2.24.72-.04.77.63.01-.13-1.44-1.44-2.95-2.34-3.61-2.66-2.86-3.08-.98-4.06 1.21-4.01 2.68 2.12 1.64L13-77.44" filter="url(#a)"/><path d="m47.94-41.06-37.43-7.49-6.95-4.91L0-60.26l-.79-6.18.77-4.19.37-2.23-.14-.77.96.3 3.65 1.37 6.26 2.56 6.78 3.53 3.86 3.69-2.43 2.57L9-59.12l-16.18-1.41-16.38-1.51-10.78 1.1-4.52 3.18" filter="url(#a)"/><path d="M41.88-53.05 2.29-63.98l-16.14-2.33-2.93-2.23 3.27-2.3 6.17-1.39 7.28.22 7.08 1.8 5.9 2.64 4.27 2.38 2.67 1.28 1.17-.14-.41-1.36-2.2-2.01-4.07-1.94-5.64-1.26-6.25-.21-4.77.72-.42 1.03 4.27.41-1-.01-31.83 2.44" filter="url(#a)"/><path d="m41.89-52.76-6.07 1.14-14.3-7.73-13.15-3.44-8.5.49-2.3 1.83 2.81 1.46 5.13.52 4.23-.24.97-.67-2.33-.79-2.91-.71.16-.52 4.13-.4 3.48-.44-5.64-.79-19.18-2.12L-29.1-68" filter="url(#a)"/><path d="M51.42-31.19 24.18-56.88l-6.42-3.69 2.29 1.9 1.13 1.64-1.25.54-1.73.05-1.49-.02-1.95-.28-2.89-1.06-3.05-2.03-1.65-2.65.73-2.5 2.71-1.56 3.12-.23 1.87.99-.07 1.63-1.4 1.41-1.42.04-.89-2.51-1.71-5.35-3.57-5.96 4.03-1.74m-12.63-1.46-.76.07-.76.17-.72.19-.69.16-.69.13-.75.15-.83.18-.9.21-.91.23-.85.23-.73.21-.6.18-.52.18-.6.24-.95.38-1.66.68-8.22-18.69 1.19.9 1.61 1.5 1.63 2.07 1.58 1.83 1.42 1.04 1.13.08.83-.55.68-.5.73.27.95 1.24 1.16 1.72 1.24 1.23 1.16.25 1.02.33 1.12 4.23m68.18 93.37-.4-2.44-.49-1.96-.62-1.51-.64-1.32-.56-1.3-.41-1.26-.25-1.19-.15-1.16-.07-1.17-.07-1.23-.1-1.3-.12-1.33-.13-1.3-.1-1.22-.08-1.14-.16-1.09-.36-1.09-.64-1.08-.76-.96-.66-.74-.46-.95" filter="url(#a)"/><path d="m-11.92-78.08-1.24.23-1.33.33-1.11.31-1 .14-.96-.01h-.95l-.94.12-.92.28-.89.35-.86.3-.8.14-.74-.02-.71-.14-.74-.16-.83-.11-.94.02-1.05.17-1.11.28-1.13.23-.82-.49-8.28-13.04 2.07 2.09 1.21.05 1.29.13 1.59.8 1.76 1.28 1.7 1.41 1.5 1.23 1.19.81.87.13.58-.64.44-1.27.47-1.47.7-1.04 1.02-.06 1.35 1.16 1.54 2.06 1.55 2.29 1.41 1.83 1.23 1.02 1.23.15 1.77-.61" filter="url(#a)"/><path d="m-37.63-68.61.61.08.71-.17.88-.25.99-.35 1-.47.96-.53.9-.51.87-.46.87-.42.87-.43.88-.47.87-.51.83-.51.79-.47.72-.37.66-.27.63-.16.66-.1.76-.09.9-.12 1-.15.95-.15.69-.06.32.06-.15.06-.79-.49h-1.11l-1.22-.21-1.26-.86-1.29-1.59-1.27-1.9-1.15-1.55-.98-.75-.89.07-.92.46-1.12.28-1.37-.27-1.57-.84-1.63-1.12-1.56-1.04-1.47-.75-1.58-.59-2.12-.97-2.94-1.49 21.95 16.32-.19.53.02 1.29-.2 1.35-.48 1.1-.68.83-.76.69-.76.61-.74.58-.67.58-.6.7-.51.93-.44 1.19-.45 1.35-.49 1.26-.5 1.06-.32 1.03-.15 1.02" filter="url(#a)"/><path d="m-43.32-78.99 2.27 3.06 1.49 1.21 1.09.04 1.09-.26 1.28-.01 1.41.3 1.37.38 1.2.2 1.01-.07.96-.2 1.03-.07 1.2.24 1.36.57 1.41.69 1.24.39.7.14m77.75 55.33-.26 1.88-.45 1.88-.15 1.45.12 1.15.13 1.08-.07 1.09-.33 1.08-.48 1.05-.44 1.02-.32 1.07-.26 1.17-.37 1.3-.56 1.35-.65 1.24-.1 1.08" filter="url(#a)"/><path d="m-6.41-78.48-.99.14-1.11.21-.99.17-.82.13-.7.11-.67.14-.72.19-.82.27-.89.32-.94.35-.94.37-.91.36-.89.37-.87.4-.87.43-.86.47-.83.47-.73.44-.59.35-.46.25-.41.18-.56.24-1.1.71m-1.04.97-1.42.93-.85.49-.85.17-1.06-.18-1.2-.31-1.2-.15-1.06.18-.89.49-.73.68-.68.72-.7.65-.77.56-.85.51-.9.48-.93.47-.97.47-1.02.48-1.09.54-1.15.67-1.17.84-1.2.87-1.32.72-1.73.82" filter="url(#a)"/><path d="m-29.75-67.54-2.18-3.06-1.14.38-1.31.13-1.25-.07-.97.17-.76.45-.75.53-.9.39-1.14.13-1.32-.1-1.42-.22-1.44-.18-1.47-.07-1.54.04-1.68.15-1.82.19-1.96.11-2.12-.04-1.69 1.24" filter="url(#a)"/><path d="m-33.7-63.51-.52.25-.68.29-.83.41-.95.4-1.05.25-1.11.15-1.12.19-1.12.33-1.09.49-1.05.66-.95.79-.8.88-.67.9-.62.86-.67.76-.78.64-.85.53-.82.46-.71.46-.85.54-1.83 1 11.27-1.07.93-1.6.81-1.4.67-1.21.55-1.11.5-1.05.51-1.02.53-1 .51-1.05.43-1.17.31-1.36.22-1.53.21-1.62.29-1.6.41-1.49.55-1.32.63-1.17.66-1.04.68-.97.7-.95.74-.99.77-1.12.79-1.29.91-1.39 1.35-1.52-19.1 37.8.08.75-.43.92-.53 1.11-.45 1.13-.32 1.09-.22 1.04-.18 1.07-.2 1.16-.25 1.24-.3 1.28-.31 1.27-.3 1.23-.29 1.18-.25 1.13-.15.98.04.69.04.25" filter="url(#a)"/><path d="m-46.48-44.52-.55 1.75-.14 1.59.2 1.48.22 1.32.02 1.2-.2 1.16-.34 1.17-.35 1.21-.25 1.25-.13 1.26-.03 1.24.03 1.19.09 1.12.12 1.09.13 1.09.08 1.09.03 1.02.05.92.19 1 .19 1.55m-.79-21.11.21-2 .26-1.66.07-1.61-.26-1.82-.41-1.88-.3-1.7-.09-1.46.12-1.3.24-1.22.32-1.16.38-1.12.44-1.12.44-1.26.37-1.54.24-1.93.03-2.35-.2-2.66-.35-2.78-.33-2.63-.12-2.34.16-2.27.29-3.03" filter="url(#a)"/><path d="m-36.98-53.3-1.19 1.05-.89.89-.66.73-.57.59-.59.52-.65.51-.72.51-.74.47-.71.47-.64.53-.57.67-.53.84-.51.97-.56 1.07-.65 1.14-.68 1.14-.53.91m0 0 .2.94.07 1.09-.27 1.2-.35 1.33-.3 1.35-.24 1.33-.19 1.26-.16 1.18-.16 1.1-.19 1.03-.23.97-.24.96-.2.99-.11 1.05-.01 1.15.1 1.27.17 1.38.22 1.45.24 1.44.23 1.33.2 1.15.13 1.09.07 1.17.2 1M53.85-21.9l-.25-1.75-.05-1.61.2-1.85.45-1.89.5-1.74.34-1.48.11-1.26-.04-1.17-.08-1.2-.05-1.31-.01-1.44v-1.51l.02-1.53.02-1.56.05-1.59.09-1.7.12-1.84.13-2 .13-2.11.16-2.13.18-2.12.07-2.2-.47-2.38m-2.13 36.96-.41-.64-.69-1.36-.58-1.33-.47-1.12-.42-.93-.41-.84-.38-.83-.37-.87-.36-.95-.4-1.01-.45-1.01-.53-.93-.62-.82-.71-.7-.79-.66-.83-.69-.82-.85-.74-1.02-.61-.91-.6-.5" filter="url(#a)"/><path d="m53.41-24.16-.1.55.09.82-.04.87-.19 1-.29 1.17-.36 1.29-.44 1.33-.6 1.34-.85 1.4-1.09 1.48-1.23 1.49-1.09 1.38-.7 1.2-.3 1.1L46-6.59l-.35.88 5.77-25.48.46 1.46.28 1.24.14 1.5-.06 1.59-.21 1.49-.23 1.3-.18 1.16-.13 1.09-.09 1.11-.07 1.15-.08 1.18-.09 1.21-.12 1.22-.2 1.27-.3 1.29-.41 1.26-.43 1.19-.31 1.18-.18 1.24-.06.91.77-30.23.92 1.69.35 1.13.3.78.4.71.53.72.6.82.64.96.67 1.11.68 1.22.63 1.23.55 1.11.45.93.33.69.2.36-.01-.62-7.81-13.93-.12 1.86.05 1.72-.04 1.36-.38 1.28-.53 1.3-.35 1.23.03 1.1.37 1.02.53 1.03.46 1.12.22 1.2-.13 1.23-.52 1.23-.87 1.25-1.1 1.33-1.11 1.53-.85 1.75-.3 1.14M33.37-71.34l.1.62.45.86.64.93.7 1.03.65 1.15.6 1.2.59 1.15.59 1.06.58 1 .56.95.52.93.49.91.46.95.46 1.02.44 1.1.4 1.15.37 1.13.35 1.04.38.96.4.92.4.87.33.71.45.79-.84-1.26 1.21.89 1.22.81 1.31.53 1.46.34 1.52.35 1.36.53 1.01.81.66 1.04.55 1.1.71.96 1.03.76 1.32.6 1.42.56 1.4.59 1.34.56 1.35.46 1.49.36 1.69.27 1.61.17.53-.26" filter="url(#a)"/><path d="m36.16-82.01.64.04-.02 1.91-.19 2.32.06 1.97.33 1.58.47 1.48.48 1.55.48 1.54.45 1.45.33 1.52.04 1.97-.25 2.54-.27 2.52-.12 1.43-.43.07.32.26-.59-2.56.17-2.73-.19-1.56-.81-.55-1.09-.25-1.05-.39-.84-.68-.65-.91-.48-1.03-.35-1.16-.24-1.34-.13-1.61-.08-1.89-.12-2.07-.27-2.03-.49-1.75-.67-1.42-.7-1.21-.63-1.19-.6-1.27-.71-1.56-.6-2.79 9.76 30.43-.79-1.53-.36-.81-.45-.97-.56-1.14-.52-1.34-.36-1.61-.15-1.9.04-2.11.16-2.25.26-2.4.35-2.66.39-2.94.3-3.12.03-3.06-.36-2.76-.65-2.39-.53-2.24-.23-2.32 1.27 34.81-1.06-.3-.78-.77-.74-.7-.74-.48-.74-.27-.74-.06-.79.17-.9.4-1.01.57-1.1.61-1.12.5-1.09.31-.99.13-.87-.02-.79-.08-.79-.03-.9.15-1.02.36-.92.18-.37-.75 11.06-6.17-1.31.01-1.3-.13-.87-.45-.75-.34-.83-.01-.99.29-1.08.43-1.08.39-1 .17-.88-.11-.75-.34-.64-.4-.6-.23-.63.07-.72.39-.88.7-1.05 1.02-1.18 1.3-1.12.69 8.14-38.09 1 1.63.69 2.7.49 2.56.38 2.07.42 1.65.51 1.45.6 1.45.62 1.63.56 1.97.43 2.41.32 2.69.33 2.51.5 1.7.81.49 1.07-.39.96.3.16 3.28-.33 4.54" filter="url(#a)"/><path d="m6.82-84.32 1.13.65 1.23.5 1.09.41.9.49.78.59.74.6.79.53.86.46.9.42.87.45.78.51.69.6.6.69.57.75.62.74.7.69.8.58.88.49.96.47 1.04.64.96 1.45" filter="url(#a)"/><path d="m21.22-73.86-.55-.67-.68-1.12-.42-1.94-.24-2.23-.27-1.77-.49-.99-.74-.39-.91-.25-.95-.55-.87-1.11-.72-1.72-.56-2.25-.47-2.57-.55-2.52-.8-2-1.16-1.52-1.67-2.02" filter="url(#a)"/><path d="m21.22-73.86 1.02.7.98.62.84.55.75.52.74.54.77.61.8.65.8.65.73.61.67.56.61.53.57.51.57.53.59.57.63.64.67.71.72.77.73.81.72.81.69.82.69.85.77.99.87 1.13.65.89L18.83-75l-.79-.69-.4-.43-.52-.46-.7-.59-.81-.78-.82-1.01-.77-1.2-.72-1.33-.69-1.37-.73-1.33-.81-1.2-.92-1-1.01-.78-1.06-.64-1.05-.62-.98-.75-.89-.9-.81-.9-.79-.73-.83-.52-.89-.56-.95-.77-1.05-.22m18.01 18.02-.58-.2-.89-.44-.96-.53-.95-.57-.88-.59-.79-.62-.75-.68-.74-.73-.82-.76-.9-.77-.97-.79-1.01-.83-.97-.92-.9-1.03-.81-1.03-.75-.84-.74-.51-.78-.34-.84-.73L1.1-90m5.32 10.59-.85-1.55-.7-1-.71-.16-.74-.15-.77-.47-.83-.75-.88-.84-.92-.8-.93-.64-.91-.46-.88-.3-.87-.25-.84-.3-.85-.41-.87-.53-.92-.59-1-.6-1.1-.61-1.18-.72-1.2-.96-1.12-1.16-.89-1.16-.56-.81-.39-.28" filter="url(#a)"/><path d="m-5.12-79.27 1.54-.23 1.57-.12 1.59-.04 1.62.02 1.67.1 1.72.19 1.77.28 1.82.37 1.84.44 1.86.52 1.88.58 1.87.64 1.89.72 1.88.78 1.91.86 1.91.93 1.92 1 1.89 1.06 1.82 1.1 1.71 1.13 1.6 1.17 1.5 1.23 1.48 1.3 1.53 1.42 1.61 1.52 1.66 1.58 1.62 1.54 1.48 1.43 1.4 1.39 1.83 1.86" filter="url(#a)"/><path d="m-11.98-77.92.65-.5 1.67-.41 1.99-.3 2.04-.21 2.06-.13 2.12-.06 2.16.01 2.18.09 2.17.16 2.14.23 2.13.32 2.18.38 2.24.45 2.33.51 2.38.57 2.39.63 2.36.7 2.34.77 2.35.85 2.4.94 2.49 1.01 2.55 1.08 2.55 1.13 2.46 1.18 2.33 1.2 2.21 1.25 2.18 1.29 2.28 1.37 2.48 1.45 2.71 1.54 2.87 1.63 2.88 1.68 2.82 1.73 2.82 1.76 3.23 1.84 4.68 2.46M-28.33-68.96l-1.36.95-2.69 1.22-2.85 1.4-2.39 1.45-2.12 1.5-2.15 1.56-2.29 1.63-2.4 1.7-2.55 1.75-2.85 1.81-3.32 1.85-3.85 1.89-4.26 1.91-4.39 1.94-4.15 1.96-3.57 2-2.83 2.04-2.12 2.07-1.66 2.12-1.55 2.17-1.83 2.19-2.42 2.22-3.15 2.24-3.79 2.26-4.07 2.29-3.89 2.35-3.27 2.4-2.47 2.46-1.78 2.51-1.41 2.53-1.37 2.52-1.46 2.48-1.52 2.45-1.56 2.47-1.52 2.58-1.14 2.64-1.51 1.53m83.8-64.77-2.04 2.24-1.63 2.27-1.47 1.91-1.31 1.66-1.13 1.63-1.03 1.75-1.04 1.9-1.11 2.06-1.16 2.17-1.16 2.23-1.1 2.26-.98 2.26-.88 2.24-.79 2.24-.76 2.25-.81 2.31-.91 2.35-1.03 2.4-1.12 2.43-1.16 2.42-1.11 2.41-1 2.37-.85 2.33-.71 2.3-.61 2.26-.6 2.23-.62 2.23-.68 2.26-.67 2.31-.58 2.39-.37 2.48-.13 2.53-.01 2.53-.06 2.36v1.69" filter="url(#a)"/><path d="M-46.01-45.31-52.93-43l-4.75 2.17-.75 2.24-.28 2.32-1.91 2.28-3.78 2.18-5 2.11-5.3 2.13-4.8 2.22-3.8 2.35-2.58 2.43-1.59 2.46-1.22 2.42-1.62 2.36-2.58 2.34-3.43 2.31-3.54 2.27-2.91 2.21-2.34 2.13-2.6 2.07-3.24 2.13-5.25 2.58" filter="url(#a)"/><path d="m-46.48-44.52-11.68 2.72 1.45 2.06 2.11 2.03.49 2.15-.79 2.22-1.45 2.25-1.74 2.24-1.91 2.22-2.19 2.24-2.57 2.27-2.99 2.35-3.3 2.41-3.31 2.47-3 2.49-2.45 2.5-1.82 2.49-1.33 2.47-1.12 2.45-1.27 2.44-1.69 2.41-2.2 2.37-2.61 2.3-2.84 2.24-2.96 2.22-3.2 2.25-3.67 2.3-3.63 2.23-.25 1.96M53.34-24.31l7.52 1.58 2.13 2.13.48 2.55-.25 2.64.06 2.56.97 2.43 1.82 2.35 2.12 2.33 1.87 2.35 1.46 2.38 1.28 2.4 1.54 2.42 2.03 2.44 2.41 2.45 2.35 2.45 1.79 2.43.91 2.4.08 2.39-.37 2.39-.27 2.38.27 2.34 1.07 2.23 1.87 2.1 2.59 2.02 3.15 2.02 3.12 2.03 1.11 2.05" filter="url(#a)"/><path d="m48.32-40.43 1.03 2.32 1.34 2.31 1.61 2.28 1.69 2.18 1.66 2.07 1.52 2.04 1.24 2.05.94 2.12.72 2.24.63 2.35.64 2.42.72 2.44.83 2.43 1.04 2.38 1.36 2.36 1.72 2.35 2.01 2.37L71.1.67l1.86 2.4 1.43 2.43.99 2.48.7 2.52.59 2.49.57 2.36.85 2.2 2.16 2.11M48.03-41.08l.84 1.91.8 1.99.72 1.97.72 2.01.77 2.16.78 2.35.71 2.48.6 2.49.48 2.44.39 2.36.35 2.29.35 2.29.34 2.32.33 2.36.3 2.38.25 2.38.2 2.36.17 2.33.16 2.29.15 2.31.1 2.38-.01 2.5-.36 3.27" filter="url(#a)"/><path d="m42.9-51.37.98 1.74 1.58 2.29 2.04 2.38 2.16 2.32 1.87 2.22 1.43 2.19 1.08 2.17.99 2.16 1.14 2.14 1.4 2.11 1.63 2.09 1.73 2.1 1.66 2.16 1.5 2.23 1.35 2.33 1.25 2.39 1.25 2.43 1.29 2.43 1.3 2.39 1.19 2.37.95 2.37.65 2.38.42 2.39.4 2.4.58 2.41.83 2.5.91 2.65.99 2.63 1.74 1.93" filter="url(#a)"/><path d="m34.96-62.12 1.18 1.16 1.55 1.72 1.38 1.74 1.23 1.74 1.14 1.75 1.09 1.78 1.05 1.82 1.01 1.88 1 1.96.98 2.04.98 2.1.96 2.13.92 2.16.87 2.17.84 2.19.79 2.25.77 2.33.73 2.39.7 2.43.64 2.42.57 2.4.49 2.35.41 2.33.34 2.35.29 2.38.27 2.41.25 2.44.21 2.41.15 2.32.1 1.99.12 1.15M25.59-70.89l2.01 1.5 1.74 1.17 1.99 1.11 2.41 1.23 2.6 1.39 2.47 1.51 2.14 1.56 1.83 1.56 1.67 1.55 1.76 1.55 2.07 1.59 2.56 1.64 3.14 1.74 3.71 1.85 4.12 1.97 4.31 2.08 4.27 2.14 4.13 2.19 4.11 2.19 4.24 2.19 4.41 2.19 4.21 2.18 3.4 2.13 2.21 2.08 1.63 2.05 2.72 2.04 5.96 1.88M22.27-73.11l-1.42 1.25 1.94 1.18 2.05 1.17 1.01 1.14v1.15l-.51 1.23-.54 1.35-.27 1.47.11 1.52.51 1.54.87 1.53 1.03 1.52.82 1.53.25 1.58-.58 1.65-1.36 1.77-1.88 1.92-1.98 2.11-1.71 2.25-1.11 2.27-.65 2.09-2.51 2.1" filter="url(#a)"/></g><g fill="none" stroke="#000"><circle cx="6.052" cy="13.638" r="1.792" filter="url(#a)"/><circle cx="7.012" cy="13.854" r="2.282" filter="url(#a)"/><circle cx="9.268" cy="13.934" r="2.96" filter="url(#a)"/><circle cx="9.784" cy="11.454" r="2.116" filter="url(#a)"/><circle cx="8.196" cy="14.87" r="1.598" filter="url(#a)"/><circle cx="6.56" cy="13.058" r="2.3" filter="url(#a)"/><circle cx="9.08" cy="12.026" r="1.528" filter="url(#a)"/><circle cx="6.572" cy="11.674" r="1.604" filter="url(#a)"/><circle cx="9.44" cy="13.082" r="1.606" filter="url(#a)"/><circle cx="7.544" cy="13.262" r="1.27" filter="url(#a)"/><circle cx="-7.596" cy="16.95" r="2.136" filter="url(#a)"/><circle cx="-7.172" cy="15.498" r="2.63" filter="url(#a)"/><circle cx="-4.988" cy="14.91" r="1.88" filter="url(#a)"/><circle cx="-7.828" cy="15.962" r="2.646" filter="url(#a)"/><circle cx="-6.012" cy="14.994" r="1.578" filter="url(#a)"/><circle cx="-7.992" cy="17.738" r="1.558" filter="url(#a)"/><circle cx="-8.536" cy="16.526" r="1.308" filter="url(#a)"/><circle cx="-6.704" cy="17.258" r="2.042" filter="url(#a)"/><circle cx="-6.86" cy="17.434" r="2.484" filter="url(#a)"/><circle cx="-5.792" cy="16.746" r="1.602" filter="url(#a)"/></g><path fill="#D77F8C" stroke="#000" stroke-linejoin="round" stroke-width="3" d="m-31.85 31.17.34.6.36.62.38.63.39.66.41.66.41.69.44.7.45.71.46.72.47.74.49.74.5.75.51.77.52.77.54.77.55.78.56.79.57.78.58.79.59.8.6.79.62.79.62.79.63.78.64.79.65.78.66.77.67.76.67.76.69.75.69.74.69.73.71.72.71.71.72.69.72.67.73.67.74.64.74.63.75.61.75.59.76.57.76.54.76.53.77.5.78.48.77.45.78.43.78.39.79.37.78.34.79.31.79.28.79.25.79.21.8.18.79.14.8.11.79.07.79.03.8-.01.79-.04.79-.09.79-.14.79-.17.79-.22.78-.26.78-.31.78-.36.78-.41.78-.45.77-.51.76-.55.76-.61.76-.66.76-.72.75-.77.74-.82.74-.89.73-.94.73-1 .72-1.06.71-1.12.71-1.19.7-1.24.69-1.31.69-1.38.68-1.44.67-1.51.66-1.57.65-1.65.65-1.71.63-1.79.63-1.86.61-1.93.61-2 .6-2.08.58-2.16.58-2.23.56-2.31-.56 2.31-.58 2.23-.58 2.16-.6 2.08-.61 2-.61 1.93-.63 1.86-.63 1.79-.65 1.71-.65 1.65-.66 1.57-.67 1.51-.68 1.44-.69 1.38-.69 1.31-.7 1.24-.71 1.19-.71 1.12-.72 1.06-.73 1-.73.94-.74.89-.74.82-.75.77-.76.72-.76.66-.76.61-.76.55-.77.51-.78.45-.78.41-.78.36-.78.31-.78.26-.79.22-.79.17-.79.14-.79.09-.79.04-.8.01-.79-.03-.79-.07-.8-.11-.79-.14-.8-.18-.79-.21-.79-.25-.79-.28-.79-.31-.78-.34-.79-.37-.78-.39-.78-.43-.77-.45-.78-.48-.77-.5-.76-.53-.76-.54-.76-.57-.75-.59-.75-.61-.74-.63-.74-.64-.73-.67-.72-.67-.72-.69-.71-.71-.71-.72-.69-.73-.69-.74-.69-.75-.67-.76-.67-.76-.66-.77-.65-.78-.64-.79-.63-.78-.62-.79-.62-.79-.6-.79-.59-.8-.58-.79-.57-.78-.56-.79-.55-.78-.54-.77-.52-.77-.51-.77-.5-.75-.49-.74-.47-.74-.46-.72-.45-.71-.44-.7-.41-.69-.41-.66-.39-.66-.38-.63-.36-.62" filter="url(#a)"/></svg>