<svg viewBox="-100 -100 200 200" xmlns="http://www.w3.org/2000/svg" width="500" height="500" id="face-svg">
    <defs>
      <clipPath id="leftEyeClipPath">
        <polyline points="26.67,-5.06 26.51,-5.44 26.31,-5.81 26.08,-6.15 25.81,-6.48 25.52,-6.8 25.19,-7.1 24.83,-7.38 24.44,-7.65 24.02,-7.9 23.57,-8.14 23.1,-8.37 22.59,-8.59 22.06,-8.79 21.5,-8.98 20.92,-9.17 20.36,-9.35 19.76,-9.53 19.12,-9.7 18.43,-9.86 17.71,-10.01 16.95,-10.15 16.15,-10.28 15.32,-10.41 14.46,-10.53 13.57,-10.64 12.65,-10.74 11.71,-10.84 10.75,-10.92 9.77,-11 8.77,-11.08 7.76,-11.15 6.74,-11.21 5.71,-11.26 4.67,-11.31 3.63,-11.35 2.59,-11.39 1.55,-11.42 0.51,-11.44 -0.52,-11.46 -1.54,-11.47 -2.56,-11.48 -3.56,-11.48 -4.55,-11.48 -5.52,-11.47 -6.48,-11.46 -7.42,-11.45 -8.34,-11.43 -9.24,-11.4 -10.11,-11.37 -10.97,-11.34 -11.8,-11.31 -12.61,-11.27 -13.39,-11.23 -14.15,-11.18 -14.88,-11.14 -15.59,-11.09 -16.27,-11.04 -16.93,-10.98 -17.57,-10.93 -18.18,-10.87 -18.76,-10.81 -19.33,-10.75 -19.87,-10.69 -20.39,-10.63 -20.9,-10.57 -21.38,-10.51 -21.85,-10.45 -22.29,-10.38 -22.72,-10.32 -23.13,-10.26 -23.53,-10.19 -23.9,-10.13 -24.27,-10.06 -24.61,-9.99 -24.94,-9.93 -25.25,-9.86 -25.55,-9.79 -25.84,-9.73 -26.11,-9.66 -22.95,-2.08 -22.58,-1.73 -22.2,-1.37 -21.81,-1 -21.4,-0.63 -20.98,-0.25 -20.55,0.13 -20.1,0.51 -19.64,0.9 -19.17,1.29 -18.68,1.68 -18.18,2.08 -17.67,2.48 -17.15,2.87 -16.61,3.27 -16.06,3.67 -15.49,4.08 -14.9,4.48 -14.3,4.89 -13.69,5.3 -13.06,5.7 -12.41,6.11 -11.75,6.51 -11.07,6.9 -10.37,7.29 -9.66,7.67 -8.94,8.04 -8.2,8.4 -7.45,8.75 -6.68,9.09 -5.91,9.41 -5.11,9.72 -4.31,10.01 -3.5,10.29 -2.68,10.54 -1.85,10.77 -1.01,10.98 -0.16,11.17 0.69,11.33 1.54,11.47 2.4,11.58 3.26,11.67 4.12,11.72 4.99,11.75 5.85,11.74 6.71,11.71 7.56,11.64 8.41,11.55 9.25,11.42 10.09,11.25 10.91,11.06 11.73,10.83 12.53,10.57 13.32,10.28 14.1,9.96 14.86,9.6 15.6,9.22 16.32,8.8 17.03,8.35 17.71,7.88 18.38,7.38 19.02,6.86 19.64,6.31 20.23,5.74 20.8,5.15 21.33,4.73 21.85,4.3 22.35,3.86 22.83,3.41 23.3,2.96 23.74,2.49 24.17,2.03 24.58,1.55 24.96,1.08 25.32,0.6 25.66,0.13 25.98,-0.35 26.27,-0.82 26.54,-1.28 26.78,-1.74" />
      </clipPath>
      <clipPath id="rightEyeClipPath">
        <polyline points="-26.52,-4.13 -26.31,-4.65 -26.08,-5.14 -25.81,-5.6 -25.51,-6.04 -25.18,-6.46 -24.82,-6.85 -24.43,-7.22 -24.01,-7.57 -23.56,-7.9 -23.08,-8.2 -22.58,-8.49 -22.04,-8.77 -21.48,-9.02 -20.9,-9.26 -20.29,-9.48 -19.7,-9.7 -19.07,-9.91 -18.4,-10.11 -17.69,-10.29 -16.94,-10.46 -16.15,-10.62 -15.33,-10.77 -14.47,-10.9 -13.59,-11.03 -12.68,-11.14 -11.74,-11.24 -10.77,-11.34 -9.79,-11.42 -8.79,-11.5 -7.77,-11.57 -6.75,-11.63 -5.71,-11.68 -4.66,-11.73 -3.61,-11.77 -2.55,-11.8 -1.5,-11.83 -0.45,-11.85 0.6,-11.86 1.64,-11.87 2.67,-11.88 3.69,-11.88 4.69,-11.87 5.69,-11.87 6.66,-11.85 7.62,-11.84 8.56,-11.82 9.47,-11.79 10.37,-11.77 11.24,-11.74 12.09,-11.7 12.91,-11.67 13.71,-11.63 14.48,-11.59 15.23,-11.55 15.95,-11.51 16.65,-11.47 17.32,-11.42 17.96,-11.37 18.58,-11.32 19.17,-11.27 19.75,-11.23 20.29,-11.17 20.82,-11.12 21.32,-11.07 21.81,-11.02 22.27,-10.97 22.72,-10.92 23.15,-10.86 23.56,-10.81 23.95,-10.75 24.32,-10.7 24.68,-10.64 25.02,-10.59 25.34,-10.53 25.65,-10.48 25.95,-10.42 26.22,-10.37 26.49,-10.31 26.74,-10.25 23.44,-2.9 23.06,-2.54 22.66,-2.17 22.24,-1.8 21.82,-1.42 21.37,-1.03 20.92,-0.64 20.45,-0.24 19.97,0.16 19.47,0.57 18.96,0.98 18.43,1.4 17.89,1.81 17.33,2.24 16.76,2.66 16.17,3.09 15.57,3.52 14.95,3.95 14.31,4.39 13.66,4.83 12.98,5.26 12.29,5.7 11.58,6.14 10.86,6.57 10.11,7 9.35,7.42 8.58,7.83 7.79,8.24 6.98,8.64 6.16,9.02 5.32,9.39 4.47,9.75 3.61,10.08 2.74,10.41 1.85,10.71 0.96,10.99 0.06,11.25 -0.84,11.48 -1.75,11.69 -2.67,11.88 -3.58,12.03 -4.5,12.16 -5.42,12.26 -6.33,12.32 -7.24,12.36 -8.14,12.36 -9.04,12.32 -9.93,12.25 -10.8,12.14 -11.66,12 -12.51,11.82 -13.35,11.61 -14.16,11.35 -14.96,11.06 -15.73,10.73 -16.49,10.37 -17.21,9.97 -17.92,9.53 -18.59,9.06 -19.24,8.56 -19.86,8.02 -20.45,7.45 -21.01,6.85 -21.54,6.23 -22.03,5.58 -22.53,5.13 -23,4.67 -23.46,4.19 -23.89,3.71 -24.3,3.21 -24.68,2.71 -25.05,2.19 -25.38,1.67 -25.7,1.15 -25.98,0.63 -26.25,0.1 -26.48,-0.43 -26.69,-0.95 -26.88,-1.47 -27.03,-1.98" />
      </clipPath>
      <filter id="fuzzy">
        <feTurbulence id="turbulence" baseFrequency="0.05" numOctaves="3" type="noise" result="noise" />
        <feDisplacementMap in="SourceGraphic" in2="noise" scale="2" />
      </filter>
      <linearGradient id="rainbowGradient" x1="0%" y1="0%" x2="100%" y2="0%">
        <stop offset="0%" style="stop-color: rgb(5, 247, 98); stop-opacity: 1" />
        <stop offset="50%" style="stop-color: rgb(128, 173, 225); stop-opacity: 1" />
        <stop offset="100%" style="stop-color: rgb(74, 109, 226); stop-opacity: 1" />
      </linearGradient>
    </defs>
    <rect x="-100" y="-100" width="100%" height="100%" fill="rgb(242, 227, 166)" />
    <polyline id="faceContour" points="64.42,-0.68 64.39,-0.12 64.48,3.18 64.25,2.43 64.21,6.55 64.06,6.73 63.98,8.13 63.99,8.02 63.75,11.45 63.73,12.65 63.61,12.59 63.29,16.15 63.5,14.96 62.97,17.93 62.89,19.18 62.56,21.21 62.27,21.63 62.17,22.45 61.52,26.19 61.67,24.97 61.5,25.19 61.1,27.06 60.6,30.15 59.99,32.2 59.74,32.03 59.69,32.48 58.58,36.09 58.74,35.3 58.52,36.06 58.07,37.82 57.26,40.17 57.57,38.97 56.91,40.85 56.25,42.09 55.5,44.35 54.91,45.27 54.66,46.12 54.03,47.63 52.97,49.81 53.15,49.51 51.72,51.8 52.21,51.5 50.36,54.16 50.46,54.28 49.84,55.03 48.34,57.47 47.83,58.74 47.57,58.9 47.6,58.89 45.7,61.45 45.04,62.11 44.73,63.04 44.77,62.62 43.26,64.64 43.24,64.45 41.21,67.14 40.7,67.51 40.77,67.44 38.6,69.62 37.91,70.49 38.13,70.15 36.64,71.83 35.98,72.15 34.41,74.01 34.15,73.71 33.92,74.17 33.88,74.19 32.06,75.72 31.2,76.33 30.94,76.27 28.5,78.07 27.76,78.81 27.54,78.69 26.31,79.42 25.95,79.75 25.32,80.27 22.97,81.28 23.11,81.53 21.46,82.24 21,82.33 20.19,82.77 18.67,83.55 16.65,84.34 17.61,83.67 15.41,84.7 15.08,84.83 12.84,85.51 13.36,85.07 10.8,85.78 10.19,85.96 9.86,86.3 9.52,86.26 7.78,86.58 7.56,86.36 5.65,86.88 5.84,86.7 4.06,86.92 3.92,86.82 1.23,86.96 0.98,87.04 -0.92,87.29 -1.12,87.12 -3.11,87.22 -3.89,86.89 -4.05,87.1 -6.05,87.02 -5.91,86.98 -7.1,86.83 -7.89,86.43 -10.26,86.13 -9.4,86.2 -12.23,85.64 -12.33,85.7 -12.82,85.31 -14.23,85.1 -14.59,85.05 -15.34,84.63 -16.79,84.24 -17.58,83.78 -18.29,83.57 -21.45,82.43 -20.17,82.8 -21.49,82.28 -22.5,81.72 -24.24,80.65 -25.08,80.18 -25.77,79.76 -25.33,79.97 -25.83,79.72 -28.82,78.02 -29.78,77.47 -29.81,77.37 -31.46,75.81 -31.12,76.21 -33.3,74.79 -34.09,73.92 -34.6,73.57 -35.21,73.19 -36.23,72.23 -36.14,72.03 -38.06,70.28 -38.89,69.31 -39.72,68.38 -41.04,67.37 -39.75,68.37 -41.44,66.78 -43.31,64.66 -43.58,64.17 -43.97,63.38 -45.31,62.08 -45.4,61.99 -46.91,59.9 -46.84,59.51 -47.45,59.07 -47.82,58.14 -49.25,55.77 -48.99,56.45 -50.26,54.43 -51.36,52.32 -51.6,52.43 -52.54,50.73 -52.38,50.36 -53.88,47.96 -53.87,47.83 -54.1,47.64 -54.87,46.12 -54.89,45.32 -56.24,42.98 -56.57,41.28 -57.3,39.87 -57.03,39.83 -57.35,39.49 -57.73,38.13 -59.12,34.82 -59.43,33.52 -59.46,33.47 -59.81,32.18 -60.47,30.05 -60.48,29.48 -61.01,28.38 -61.2,27.35 -61.19,26.43 -61.86,23.37 -62.42,21.05 -62.48,20.63 -62.39,21.58 -62.64,19.25 -63.1,17.01 -62.92,17.48 -63.56,14.43 -63.72,13.66 -63.95,11.18 -63.96,11.1 -63.82,10.86 -64.18,7.83 -64.34,5.07 -64.03,7.67 -64.41,3.06 -64.44,2.5 -64.43,1.87 -64.31,0.6 -64.46,-0.32 -64.25,-2.95 -64.14,-6.32 -64.29,-5.7 -64.37,-6.15 -64.17,-8.58 -63.78,-10.24 -64.02,-9.36 -63.53,-13.74 -63.55,-13.38 -63.47,-14.53 -63.28,-16.52 -63.02,-17.11 -62.78,-19.54 -62.61,-20.95 -62.36,-21.45 -62.37,-22.25 -61.8,-24.22 -61.11,-27.68 -61.61,-25.48 -61.19,-27 -61.12,-27.94 -60.77,-28.85 -59.87,-32.56 -59.65,-33.09 -58.83,-34.9 -59.26,-34.45 -57.65,-38.44 -57.91,-38.02 -57.14,-40.35 -56.96,-40.54 -56.85,-40.98 -56.33,-42.37 -55.18,-45.01 -54.42,-46.58 -54.39,-46.61 -53.31,-49.11 -52.81,-49.88 -52.36,-50.5 -51.83,-51.4 -51.37,-52.2 -50.83,-53.28 -49.55,-55.7 -49.77,-55.14 -49.19,-55.89 -48.9,-56.72 -46.95,-59.69 -47.51,-58.78 -45.83,-61.1 -46.03,-60.85 -45.63,-61.43 -43.99,-63.45 -43.25,-64.88 -43.81,-63.81 -41.46,-66.93 -40.87,-67.31 -40.96,-67.1 -38.11,-70.1 -37.65,-70.67 -37.21,-71.17 -37,-71.27 -36.58,-72 -36.79,-71.41 -34.73,-73.24 -34.22,-73.97 -32.76,-75.04 -30.84,-76.57 -29.93,-77.17 -29.88,-77.17 -29.87,-77.09 -28.5,-78.14 -26.62,-79.59 -26.14,-79.55 -25.73,-79.82 -25.34,-79.86 -23.71,-81.17 -23.97,-80.81 -20.99,-82.52 -19.63,-82.78 -20.1,-82.61 -18.49,-83.68 -18.56,-83.3 -16.38,-84.31 -15.39,-84.61 -16.64,-84.21 -14.03,-85.17 -14.02,-85.18 -11.1,-85.63 -12.13,-85.46 -11.64,-85.55 -7.92,-86.37 -7.57,-86.62 -5.84,-86.87 -6.71,-86.65 -4.97,-86.84 -4.33,-86.85 -4.05,-87.03 -0.89,-86.92 0.43,-87.2 1.21,-86.96 1.93,-87.23 1.17,-87.29 3,-86.82 2.31,-87.1 5.7,-86.65 6.95,-86.67 7.82,-86.36 8.63,-86.25 8.98,-86.42 10.77,-85.96 11.49,-85.93 11.86,-85.71 12.24,-85.58 14.6,-84.94 13.36,-85.27 15.52,-84.73 18.07,-83.56 18.38,-83.43 19.21,-83.07 20.47,-82.74 20.59,-82.44 22.93,-81.47 22.49,-81.72 24.35,-80.8 24.03,-80.68 25.31,-80.01 26.56,-79.41 27.97,-78.44 27.62,-78.97 29.98,-77.23 29.85,-77.17 31.29,-76.23 30.95,-76.27 33.3,-74.56 32.93,-74.97 35.29,-72.8 34.87,-73.01 37.07,-71.33 36.5,-71.81 37.41,-70.88 39.37,-68.8 40.2,-68.08 40.13,-68.26 41.32,-66.9 41.14,-66.71 42.6,-65.54 43.87,-63.96 43.76,-64.29 44.7,-63.08 46.63,-60.08 46.09,-60.75 47.52,-59.11 48.41,-57.76 47.49,-59.15 49.07,-56.36 49.06,-56.67 50.35,-54.26 50.3,-54.28 50.99,-53.13 51.72,-51.69 52.95,-49.59 52.68,-49.81 54.03,-47.31 55.01,-45.65 55.41,-44.26 55.58,-44.14 55.67,-43.59 56.37,-41.9 56.35,-41.87 57.72,-38.97 57.96,-38.09 58.76,-35.9 58.63,-35.87 59.55,-33.03 59.51,-33.32 60.3,-30.66 59.88,-31.82 60.81,-28.33 60.99,-27.97 61.25,-27.42 61.76,-24.31 62.03,-23.12 61.88,-24.39 62.13,-22.61 62.77,-19.35 62.88,-19.3 63.05,-18.39 63.07,-17.64 63.28,-15.79 63.7,-13.28 63.83,-12.11 63.73,-11.19 63.92,-10.72 64.17,-8.4 64.17,-5.89 64.22,-7.28 64.25,-3.55 64.15,-4.81 64.36,0.3 64.42,-0.68 64.39,-0.12" fill="rgb(32, 69, 223)" stroke="black" stroke-width="1.6666666666666665" stroke-linejoin="round" filter="url(#fuzzy)" />
    <g transform="translate(34.67 -30.790000000000003)">
      <polyline id="rightCountour" points="-26.52,-4.13 -26.31,-4.65 -26.08,-5.14 -25.81,-5.6 -25.51,-6.04 -25.18,-6.46 -24.82,-6.85 -24.43,-7.22 -24.01,-7.57 -23.56,-7.9 -23.08,-8.2 -22.58,-8.49 -22.04,-8.77 -21.48,-9.02 -20.9,-9.26 -20.29,-9.48 -19.7,-9.7 -19.07,-9.91 -18.4,-10.11 -17.69,-10.29 -16.94,-10.46 -16.15,-10.62 -15.33,-10.77 -14.47,-10.9 -13.59,-11.03 -12.68,-11.14 -11.74,-11.24 -10.77,-11.34 -9.79,-11.42 -8.79,-11.5 -7.77,-11.57 -6.75,-11.63 -5.71,-11.68 -4.66,-11.73 -3.61,-11.77 -2.55,-11.8 -1.5,-11.83 -0.45,-11.85 0.6,-11.86 1.64,-11.87 2.67,-11.88 3.69,-11.88 4.69,-11.87 5.69,-11.87 6.66,-11.85 7.62,-11.84 8.56,-11.82 9.47,-11.79 10.37,-11.77 11.24,-11.74 12.09,-11.7 12.91,-11.67 13.71,-11.63 14.48,-11.59 15.23,-11.55 15.95,-11.51 16.65,-11.47 17.32,-11.42 17.96,-11.37 18.58,-11.32 19.17,-11.27 19.75,-11.23 20.29,-11.17 20.82,-11.12 21.32,-11.07 21.81,-11.02 22.27,-10.97 22.72,-10.92 23.15,-10.86 23.56,-10.81 23.95,-10.75 24.32,-10.7 24.68,-10.64 25.02,-10.59 25.34,-10.53 25.65,-10.48 25.95,-10.42 26.22,-10.37 26.49,-10.31 26.74,-10.25 23.44,-2.9 23.06,-2.54 22.66,-2.17 22.24,-1.8 21.82,-1.42 21.37,-1.03 20.92,-0.64 20.45,-0.24 19.97,0.16 19.47,0.57 18.96,0.98 18.43,1.4 17.89,1.81 17.33,2.24 16.76,2.66 16.17,3.09 15.57,3.52 14.95,3.95 14.31,4.39 13.66,4.83 12.98,5.26 12.29,5.7 11.58,6.14 10.86,6.57 10.11,7 9.35,7.42 8.58,7.83 7.79,8.24 6.98,8.64 6.16,9.02 5.32,9.39 4.47,9.75 3.61,10.08 2.74,10.41 1.85,10.71 0.96,10.99 0.06,11.25 -0.84,11.48 -1.75,11.69 -2.67,11.88 -3.58,12.03 -4.5,12.16 -5.42,12.26 -6.33,12.32 -7.24,12.36 -8.14,12.36 -9.04,12.32 -9.93,12.25 -10.8,12.14 -11.66,12 -12.51,11.82 -13.35,11.61 -14.16,11.35 -14.96,11.06 -15.73,10.73 -16.49,10.37 -17.21,9.97 -17.92,9.53 -18.59,9.06 -19.24,8.56 -19.86,8.02 -20.45,7.45 -21.01,6.85 -21.54,6.23 -22.03,5.58 -22.53,5.13 -23,4.67 -23.46,4.19 -23.89,3.71 -24.3,3.21 -24.68,2.71 -25.05,2.19 -25.38,1.67 -25.7,1.15 -25.98,0.63 -26.25,0.1 -26.48,-0.43 -26.69,-0.95 -26.88,-1.47 -27.03,-1.98" fill="white" stroke="white" stroke-width="0" stroke-linejoin="round" filter="url(#fuzzy)" />
    </g>
    <g transform="translate(-42.39 -28.46)">
      <polyline id="leftCountour" points="26.67,-5.06 26.51,-5.44 26.31,-5.81 26.08,-6.15 25.81,-6.48 25.52,-6.8 25.19,-7.1 24.83,-7.38 24.44,-7.65 24.02,-7.9 23.57,-8.14 23.1,-8.37 22.59,-8.59 22.06,-8.79 21.5,-8.98 20.92,-9.17 20.36,-9.35 19.76,-9.53 19.12,-9.7 18.43,-9.86 17.71,-10.01 16.95,-10.15 16.15,-10.28 15.32,-10.41 14.46,-10.53 13.57,-10.64 12.65,-10.74 11.71,-10.84 10.75,-10.92 9.77,-11 8.77,-11.08 7.76,-11.15 6.74,-11.21 5.71,-11.26 4.67,-11.31 3.63,-11.35 2.59,-11.39 1.55,-11.42 0.51,-11.44 -0.52,-11.46 -1.54,-11.47 -2.56,-11.48 -3.56,-11.48 -4.55,-11.48 -5.52,-11.47 -6.48,-11.46 -7.42,-11.45 -8.34,-11.43 -9.24,-11.4 -10.11,-11.37 -10.97,-11.34 -11.8,-11.31 -12.61,-11.27 -13.39,-11.23 -14.15,-11.18 -14.88,-11.14 -15.59,-11.09 -16.27,-11.04 -16.93,-10.98 -17.57,-10.93 -18.18,-10.87 -18.76,-10.81 -19.33,-10.75 -19.87,-10.69 -20.39,-10.63 -20.9,-10.57 -21.38,-10.51 -21.85,-10.45 -22.29,-10.38 -22.72,-10.32 -23.13,-10.26 -23.53,-10.19 -23.9,-10.13 -24.27,-10.06 -24.61,-9.99 -24.94,-9.93 -25.25,-9.86 -25.55,-9.79 -25.84,-9.73 -26.11,-9.66 -22.95,-2.08 -22.58,-1.73 -22.2,-1.37 -21.81,-1 -21.4,-0.63 -20.98,-0.25 -20.55,0.13 -20.1,0.51 -19.64,0.9 -19.17,1.29 -18.68,1.68 -18.18,2.08 -17.67,2.48 -17.15,2.87 -16.61,3.27 -16.06,3.67 -15.49,4.08 -14.9,4.48 -14.3,4.89 -13.69,5.3 -13.06,5.7 -12.41,6.11 -11.75,6.51 -11.07,6.9 -10.37,7.29 -9.66,7.67 -8.94,8.04 -8.2,8.4 -7.45,8.75 -6.68,9.09 -5.91,9.41 -5.11,9.72 -4.31,10.01 -3.5,10.29 -2.68,10.54 -1.85,10.77 -1.01,10.98 -0.16,11.17 0.69,11.33 1.54,11.47 2.4,11.58 3.26,11.67 4.12,11.72 4.99,11.75 5.85,11.74 6.71,11.71 7.56,11.64 8.41,11.55 9.25,11.42 10.09,11.25 10.91,11.06 11.73,10.83 12.53,10.57 13.32,10.28 14.1,9.96 14.86,9.6 15.6,9.22 16.32,8.8 17.03,8.35 17.71,7.88 18.38,7.38 19.02,6.86 19.64,6.31 20.23,5.74 20.8,5.15 21.33,4.73 21.85,4.3 22.35,3.86 22.83,3.41 23.3,2.96 23.74,2.49 24.17,2.03 24.58,1.55 24.96,1.08 25.32,0.6 25.66,0.13 25.98,-0.35 26.27,-0.82 26.54,-1.28 26.78,-1.74" fill="white" stroke="white" stroke-width="0" stroke-linejoin="round" filter="url(#fuzzy)" />
    </g>
    <g transform="translate(34.67 -30.790000000000003)">
      <polyline id="rightUpper" points="-26.78,2.9 -26.89,2.03 -26.98,1.2 -27.03,0.41 -27.06,-0.35 -27.05,-1.06 -27.01,-1.74 -26.93,-2.38 -26.83,-3 -26.69,-3.58 -26.52,-4.13 -26.31,-4.65 -26.08,-5.14 -25.81,-5.6 -25.51,-6.04 -25.18,-6.46 -24.82,-6.85 -24.43,-7.22 -24.01,-7.57 -23.56,-7.9 -23.08,-8.2 -22.58,-8.49 -22.04,-8.77 -21.48,-9.02 -20.9,-9.26 -20.29,-9.48 -19.7,-9.7 -19.07,-9.91 -18.4,-10.11 -17.69,-10.29 -16.94,-10.46 -16.15,-10.62 -15.33,-10.77 -14.47,-10.9 -13.59,-11.03 -12.68,-11.14 -11.74,-11.24 -10.77,-11.34 -9.79,-11.42 -8.79,-11.5 -7.77,-11.57 -6.75,-11.63 -5.71,-11.68 -4.66,-11.73 -3.61,-11.77 -2.55,-11.8 -1.5,-11.83 -0.45,-11.85 0.6,-11.86 1.64,-11.87 2.67,-11.88 3.69,-11.88 4.69,-11.87 5.69,-11.87 6.66,-11.85 7.62,-11.84 8.56,-11.82 9.47,-11.79 10.37,-11.77 11.24,-11.74 12.09,-11.7 12.91,-11.67 13.71,-11.63 14.48,-11.59 15.23,-11.55 15.95,-11.51 16.65,-11.47 17.32,-11.42 17.96,-11.37 18.58,-11.32 19.17,-11.27 19.75,-11.23 20.29,-11.17 20.82,-11.12 21.32,-11.07 21.81,-11.02 22.27,-10.97 22.72,-10.92 23.15,-10.86 23.56,-10.81 23.95,-10.75 24.32,-10.7 24.68,-10.64 25.02,-10.59 25.34,-10.53 25.65,-10.48 25.95,-10.42 26.22,-10.37 26.49,-10.31 26.74,-10.25 26.98,-10.2 27.2,-10.14 27.42,-10.09 27.62,-10.03 27.81,-9.98 27.99,-9.92 28.16,-9.87 28.32,-9.81 28.47,-9.76 28.61,-9.7" fill="none" stroke="black" stroke-width="1.6666666666666665" stroke-linejoin="round" filter="url(#fuzzy)" />
      <polyline id="rightLower" points="-27.02,-6.15 -27.15,-5.85 -27.25,-5.52 -27.33,-5.16 -27.37,-4.76 -27.39,-4.35 -27.37,-3.91 -27.33,-3.45 -27.26,-2.97 -27.16,-2.48 -27.03,-1.98 -26.88,-1.47 -26.69,-0.95 -26.48,-0.43 -26.25,0.1 -25.98,0.63 -25.7,1.15 -25.38,1.67 -25.05,2.19 -24.68,2.71 -24.3,3.21 -23.89,3.71 -23.46,4.19 -23,4.67 -22.53,5.13 -22.03,5.58 -21.54,6.23 -21.01,6.85 -20.45,7.45 -19.86,8.02 -19.24,8.56 -18.59,9.06 -17.92,9.53 -17.21,9.97 -16.49,10.37 -15.73,10.73 -14.96,11.06 -14.16,11.35 -13.35,11.61 -12.51,11.82 -11.66,12 -10.8,12.14 -9.93,12.25 -9.04,12.32 -8.14,12.36 -7.24,12.36 -6.33,12.32 -5.42,12.26 -4.5,12.16 -3.58,12.03 -2.67,11.88 -1.75,11.69 -0.84,11.48 0.06,11.25 0.96,10.99 1.85,10.71 2.74,10.41 3.61,10.08 4.47,9.75 5.32,9.39 6.16,9.02 6.98,8.64 7.79,8.24 8.58,7.83 9.35,7.42 10.11,7 10.86,6.57 11.58,6.14 12.29,5.7 12.98,5.26 13.66,4.83 14.31,4.39 14.95,3.95 15.57,3.52 16.17,3.09 16.76,2.66 17.33,2.24 17.89,1.81 18.43,1.4 18.96,0.98 19.47,0.57 19.97,0.16 20.45,-0.24 20.92,-0.64 21.37,-1.03 21.82,-1.42 22.24,-1.8 22.66,-2.17 23.06,-2.54 23.44,-2.9 23.82,-3.26 24.18,-3.6 24.53,-3.95 24.86,-4.28 25.19,-4.6 25.5,-4.92 25.8,-5.24 26.09,-5.54 26.37,-5.84 26.64,-6.13" fill="none" stroke="black" stroke-width="2.2222222222222223" stroke-linejoin="round" filter="url(#fuzzy)" />
      <circle r="4.804" cx="8.287066576732874" cy="-6.1305827145803375" stroke="black" fill="none" stroke-width="1.0" filter="url(#fuzzy)" clip-path="url(#rightEyeClipPath)" /><circle r="3.116" cx="5.572066576732874" cy="-6.470582714580337" stroke="black" fill="none" stroke-width="1.0" filter="url(#fuzzy)" clip-path="url(#rightEyeClipPath)" /><circle r="4.888" cx="8.022066576732874" cy="-6.485582714580337" stroke="black" fill="none" stroke-width="1.0" filter="url(#fuzzy)" clip-path="url(#rightEyeClipPath)" /><circle r="3.908" cx="8.992066576732874" cy="-2.2905827145803377" stroke="black" fill="none" stroke-width="1.0" filter="url(#fuzzy)" clip-path="url(#rightEyeClipPath)" /><circle r="3.874" cx="8.592066576732872" cy="-3.370582714580337" stroke="black" fill="none" stroke-width="1.0" filter="url(#fuzzy)" clip-path="url(#rightEyeClipPath)" /><circle r="4.246" cx="5.922066576732874" cy="-4.805582714580337" stroke="black" fill="none" stroke-width="1.0" filter="url(#fuzzy)" clip-path="url(#rightEyeClipPath)" /><circle r="3.5140000000000002" cx="6.532066576732873" cy="-2.9555827145803373" stroke="black" fill="none" stroke-width="1.0" filter="url(#fuzzy)" clip-path="url(#rightEyeClipPath)" /><circle r="4.862" cx="7.822066576732874" cy="-6.725582714580337" stroke="black" fill="none" stroke-width="1.0" filter="url(#fuzzy)" clip-path="url(#rightEyeClipPath)" /><circle r="4.578" cx="6.5620665767328745" cy="-1.8305827145803377" stroke="black" fill="none" stroke-width="1.0" filter="url(#fuzzy)" clip-path="url(#rightEyeClipPath)" /><circle r="3.212" cx="8.642066576732873" cy="-2.1305827145803375" stroke="black" fill="none" stroke-width="1.0" filter="url(#fuzzy)" clip-path="url(#rightEyeClipPath)" />
      </g>
    <g transform="translate(-42.39 -28.46)">
      <polyline id="leftUpper" points="26.5,0 26.67,-0.62 26.8,-1.21 26.9,-1.78 26.97,-2.32 27,-2.83 27,-3.32 26.97,-3.79 26.9,-4.23 26.81,-4.65 26.67,-5.06 26.51,-5.44 26.31,-5.81 26.08,-6.15 25.81,-6.48 25.52,-6.8 25.19,-7.1 24.83,-7.38 24.44,-7.65 24.02,-7.9 23.57,-8.14 23.1,-8.37 22.59,-8.59 22.06,-8.79 21.5,-8.98 20.92,-9.17 20.36,-9.35 19.76,-9.53 19.12,-9.7 18.43,-9.86 17.71,-10.01 16.95,-10.15 16.15,-10.28 15.32,-10.41 14.46,-10.53 13.57,-10.64 12.65,-10.74 11.71,-10.84 10.75,-10.92 9.77,-11 8.77,-11.08 7.76,-11.15 6.74,-11.21 5.71,-11.26 4.67,-11.31 3.63,-11.35 2.59,-11.39 1.55,-11.42 0.51,-11.44 -0.52,-11.46 -1.54,-11.47 -2.56,-11.48 -3.56,-11.48 -4.55,-11.48 -5.52,-11.47 -6.48,-11.46 -7.42,-11.45 -8.34,-11.43 -9.24,-11.4 -10.11,-11.37 -10.97,-11.34 -11.8,-11.31 -12.61,-11.27 -13.39,-11.23 -14.15,-11.18 -14.88,-11.14 -15.59,-11.09 -16.27,-11.04 -16.93,-10.98 -17.57,-10.93 -18.18,-10.87 -18.76,-10.81 -19.33,-10.75 -19.87,-10.69 -20.39,-10.63 -20.9,-10.57 -21.38,-10.51 -21.85,-10.45 -22.29,-10.38 -22.72,-10.32 -23.13,-10.26 -23.53,-10.19 -23.9,-10.13 -24.27,-10.06 -24.61,-9.99 -24.94,-9.93 -25.25,-9.86 -25.55,-9.79 -25.84,-9.73 -26.11,-9.66 -26.37,-9.6 -26.62,-9.53 -26.85,-9.47 -27.07,-9.4 -27.28,-9.34 -27.48,-9.27 -27.67,-9.21 -27.85,-9.15 -28.02,-9.08 -28.19,-9.02" fill="none" stroke="black" stroke-width="2.2222222222222223" stroke-linejoin="round" filter="url(#fuzzy)" />
      <polyline id="leftLower" points="27.7,-5.44 27.74,-5.18 27.75,-4.88 27.73,-4.56 27.68,-4.21 27.6,-3.84 27.49,-3.45 27.35,-3.05 27.19,-2.62 27,-2.19 26.78,-1.74 26.54,-1.28 26.27,-0.82 25.98,-0.35 25.66,0.13 25.32,0.6 24.96,1.08 24.58,1.55 24.17,2.03 23.74,2.49 23.3,2.96 22.83,3.41 22.35,3.86 21.85,4.3 21.33,4.73 20.8,5.15 20.23,5.74 19.64,6.31 19.02,6.86 18.38,7.38 17.71,7.88 17.03,8.35 16.32,8.8 15.6,9.22 14.86,9.6 14.1,9.96 13.32,10.28 12.53,10.57 11.73,10.83 10.91,11.06 10.09,11.25 9.25,11.42 8.41,11.55 7.56,11.64 6.71,11.71 5.85,11.74 4.99,11.75 4.12,11.72 3.26,11.67 2.4,11.58 1.54,11.47 0.69,11.33 -0.16,11.17 -1.01,10.98 -1.85,10.77 -2.68,10.54 -3.5,10.29 -4.31,10.01 -5.11,9.72 -5.91,9.41 -6.68,9.09 -7.45,8.75 -8.2,8.4 -8.94,8.04 -9.66,7.67 -10.37,7.29 -11.07,6.9 -11.75,6.51 -12.41,6.11 -13.06,5.7 -13.69,5.3 -14.3,4.89 -14.9,4.48 -15.49,4.08 -16.06,3.67 -16.61,3.27 -17.15,2.87 -17.67,2.48 -18.18,2.08 -18.68,1.68 -19.17,1.29 -19.64,0.9 -20.1,0.51 -20.55,0.13 -20.98,-0.25 -21.4,-0.63 -21.81,-1 -22.2,-1.37 -22.58,-1.73 -22.95,-2.08 -23.31,-2.43 -23.65,-2.77 -23.99,-3.11 -24.31,-3.44 -24.62,-3.77 -24.92,-4.09 -25.21,-4.4 -25.49,-4.7 -25.75,-5 -26.01,-5.3" fill="none" stroke="black" stroke-width="2.2222222222222223" stroke-linejoin="round" filter="url(#fuzzy)" />
      <circle r="3.464" cx="21.310424739175087" cy="4.78986446135238" stroke="black" fill="none" stroke-width="1.0" filter="url(#fuzzy)" clip-path="url(#leftEyeClipPath)" /><circle r="3.762" cx="20.15542473917509" cy="3.32486446135238" stroke="black" fill="none" stroke-width="1.0" filter="url(#fuzzy)" clip-path="url(#leftEyeClipPath)" /><circle r="3.9" cx="22.355424739175085" cy="4.41486446135238" stroke="black" fill="none" stroke-width="1.0" filter="url(#fuzzy)" clip-path="url(#leftEyeClipPath)" /><circle r="3.792" cx="18.440424739175086" cy="2.36986446135238" stroke="black" fill="none" stroke-width="1.0" filter="url(#fuzzy)" clip-path="url(#leftEyeClipPath)" /><circle r="3.58" cx="19.375424739175088" cy="5.37986446135238" stroke="black" fill="none" stroke-width="1.0" filter="url(#fuzzy)" clip-path="url(#leftEyeClipPath)" /><circle r="3.632" cx="21.57042473917509" cy="5.59486446135238" stroke="black" fill="none" stroke-width="1.0" filter="url(#fuzzy)" clip-path="url(#leftEyeClipPath)" /><circle r="3.194" cx="20.725424739175086" cy="4.01986446135238" stroke="black" fill="none" stroke-width="1.0" filter="url(#fuzzy)" clip-path="url(#leftEyeClipPath)" /><circle r="3.356" cx="20.39042473917509" cy="3.2948644613523808" stroke="black" fill="none" stroke-width="1.0" filter="url(#fuzzy)" clip-path="url(#leftEyeClipPath)" /><circle r="3.262" cx="20.19542473917509" cy="4.919864461352381" stroke="black" fill="none" stroke-width="1.0" filter="url(#fuzzy)" clip-path="url(#leftEyeClipPath)" /><circle r="3.222" cx="18.420424739175086" cy="6.0998644613523805" stroke="black" fill="none" stroke-width="1.0" filter="url(#fuzzy)" clip-path="url(#leftEyeClipPath)" />
    </g>
    <g id="hairs">
      <polyline points="-5.84,-86.87 -4.71,-86.91 -2.9,-86.99 -0.83,-87.02 1.24,-86.96 3.22,-86.83 5.14,-86.64 7.01,-86.4 8.87,-86.1 10.75,-85.72 12.65,-85.25 14.58,-84.69 16.54,-84.05 18.49,-83.33 20.4,-82.56 22.27,-81.72 24.1,-80.83 25.89,-79.88 27.66,-78.85 29.44,-77.73 31.24,-76.53 33.08,-75.23 34.96,-73.83 36.87,-72.35 38.81,-70.79 40.73,-69.18 42.63,-67.52 44.49,-65.81 46.3,-64.04 48.07,-62.18 49.79,-60.21 51.46,-58.18 53.05,-56.18 54.67,-54.26" fill="none" stroke="rgb(134, 19, 41)" stroke-width="2" stroke-linejoin="round" filter="url(#fuzzy)" /><polyline points="-7.57,-86.62 -6.14,-86.7 -4.07,-86.8 -1.94,-86.89 0.08,-86.93 2.09,-86.89 4.2,-86.76 6.45,-86.54 8.83,-86.24 11.33,-85.86 13.93,-85.4 16.65,-84.86 19.51,-84.23 22.52,-83.51 25.64,-82.72 28.8,-81.85 31.91,-80.9 34.94,-79.88 37.89,-78.8 40.85,-77.64 43.91,-76.41 47.15,-75.13 50.65,-73.78 54.44,-72.39 58.53,-70.95 62.86,-69.45 67.34,-67.91 71.83,-66.3 76.21,-64.64 80.45,-62.94 84.6,-61.23 88.72,-59.53 92.76,-57.83 96.61,-56.03 100.4,-54.03 104.44,-51.86 108.66,-49.81" fill="none" stroke="rgb(134, 19, 41)" stroke-width="2" stroke-linejoin="round" filter="url(#fuzzy)" /><polyline points="-7.92,-86.37 -6.32,-86.69 -4.88,-86.86 -3.08,-86.96 -0.97,-86.98 1.26,-86.93 3.49,-86.81 5.66,-86.64 7.79,-86.4 9.9,-86.11 12.04,-85.73 14.22,-85.27 16.44,-84.72 18.7,-84.09 20.96,-83.38 23.21,-82.61 25.44,-81.79 27.61,-80.91 29.74,-79.97 31.83,-78.96 33.95,-77.87 36.2,-76.68 38.65,-75.4 41.36,-74.01 44.29,-72.52 47.29,-70.96 50.19,-69.35 52.86,-67.72 55.3,-66.06 57.64,-64.37 60.19,-62.65 63.77,-60.75" fill="none" stroke="rgb(134, 19, 41)" stroke-width="2" stroke-linejoin="round" filter="url(#fuzzy)" /><polyline points="-11.64,-85.55 -8.65,-86.24 -6.39,-86.57 -4.18,-86.75 -2.02,-86.86 0.1,-86.9 2.25,-86.87 4.51,-86.74 6.96,-86.53 9.64,-86.24 12.57,-85.87 15.74,-85.42 19.07,-84.89 22.45,-84.28 25.78,-83.57 29.08,-82.79 32.41,-81.93 35.9,-81 39.61,-79.99 43.51,-78.92 47.47,-77.78 51.28,-76.56 54.77,-75.28 57.89,-73.94 60.72,-72.56 63.51,-71.14 66.57,-69.67 70.24,-68.15 74.75,-66.56 80.1,-64.87 85.88,-63.05 91.31,-61.21 95.59,-59.7 99.88,-59.15" fill="none" stroke="rgb(134, 19, 41)" stroke-width="2" stroke-linejoin="round" filter="url(#fuzzy)" /><polyline points="-11.1,-85.63 -10.12,-85.85 -8.1,-86.22 -6.01,-86.51 -4.01,-86.71 -2.13,-86.83 -0.34,-86.88 1.38,-86.85 3.09,-86.74 4.8,-86.54 6.51,-86.27 8.21,-85.91 9.9,-85.48 11.59,-84.96 13.27,-84.36 14.93,-83.68 16.54,-82.91 18.03,-82.07 19.34,-81.16 20.45,-80.18 21.35,-79.12 22.07,-78 22.69,-76.8 23.3,-75.52 23.94,-74.19 24.55,-72.82 24.94,-71.42 24.99,-69.97 24.93,-68.4 25.38,-66.9" fill="none" stroke="rgb(134, 19, 41)" stroke-width="2" stroke-linejoin="round" filter="url(#fuzzy)" /><polyline points="-11.1,-85.63 -10.37,-85.85 -8.7,-86.22 -6.8,-86.51 -4.75,-86.71 -2.6,-86.83 -0.41,-86.89 1.89,-86.88 4.41,-86.78 7.25,-86.6 10.45,-86.33 13.99,-86 17.81,-85.59 21.83,-85.1 25.88,-84.53 29.83,-83.87 33.57,-83.12 37.18,-82.3 40.86,-81.42 44.92,-80.48 49.56,-79.48 54.69,-78.4 59.63,-77.27 63.39,-76.23" fill="none" stroke="rgb(134, 19, 41)" stroke-width="2" stroke-linejoin="round" filter="url(#fuzzy)" /><polyline points="-18.56,-83.3 -17.19,-84.3 -16.16,-84.94 -14.72,-85.41 -12.74,-85.8 -10.37,-86.14 -7.83,-86.41 -5.28,-86.61 -2.78,-86.75 -0.31,-86.8 2.2,-86.78 4.82,-86.68 7.57,-86.49 10.46,-86.22 13.46,-85.88 16.54,-85.45 19.68,-84.94 22.85,-84.34 25.99,-83.66 29.09,-82.89 32.19,-82.05 35.37,-81.14 38.76,-80.16 42.47,-79.1 46.46,-77.97 50.65,-76.77 54.9,-75.49 59.19,-74.16 63.6,-72.78 68.3,-71.37 73.4,-69.91 78.91,-68.41 84.46,-66.9 89.81,-65.54" fill="none" stroke="rgb(134, 19, 41)" stroke-width="2" stroke-linejoin="round" filter="url(#fuzzy)" /><polyline points="-20.1,-82.61 -18.24,-83.41 -16.22,-84.2 -14.33,-84.84 -12.52,-85.34 -10.7,-85.75 -8.81,-86.1 -6.83,-86.38 -4.8,-86.6 -2.77,-86.75 -0.77,-86.83 1.21,-86.83 3.19,-86.75 5.2,-86.59 7.24,-86.35 9.3,-86.03 11.35,-85.64 13.39,-85.18 15.44,-84.63 17.51,-83.98 19.61,-83.24 21.69,-82.42 23.68,-81.55 25.53,-80.65 27.34,-79.68 29.51,-78.44" fill="none" stroke="rgb(134, 19, 41)" stroke-width="2" stroke-linejoin="round" filter="url(#fuzzy)" /><polyline points="-19.63,-82.78 -18.52,-83.51 -17.4,-84.04 -16.08,-84.51 -14.4,-85 -12.41,-85.48 -10.24,-85.92 -8.03,-86.29 -5.81,-86.57 -3.6,-86.75 -1.39,-86.84 0.82,-86.84 3.03,-86.77 5.21,-86.63 7.38,-86.43 9.53,-86.17 11.68,-85.84 13.84,-85.42 16.01,-84.91 18.2,-84.31 20.4,-83.63 22.59,-82.9 24.8,-82.11 27.08,-81.29 29.49,-80.4 32.06,-79.46 34.71,-78.44 37.29,-77.34 39.61,-76.27" fill="none" stroke="rgb(134, 19, 41)" stroke-width="2" stroke-linejoin="round" filter="url(#fuzzy)" /><polyline points="-20.99,-82.52 -22.13,-82.85 -23.55,-83.47 -23.03,-84.16 -20.8,-84.77 -17.76,-85.28 -14.65,-85.7 -11.75,-86.06 -9.06,-86.36 -6.47,-86.58 -3.89,-86.75 -1.26,-86.84 1.46,-86.86 4.38,-86.81 7.62,-86.66 11.26,-86.44 15.32,-86.14 19.72,-85.79 24.35,-85.37 29.15,-84.87 34.13,-84.26 39.31,-83.52 44.31,-82.74" fill="none" stroke="rgb(134, 19, 41)" stroke-width="2" stroke-linejoin="round" filter="url(#fuzzy)" /><polyline points="-23.97,-80.81 -20.81,-82.32 -18.81,-83.27 -17.2,-83.93 -15.59,-84.48 -13.79,-84.99 -11.84,-85.47 -9.79,-85.9 -7.71,-86.26 -5.6,-86.52 -3.46,-86.7 -1.28,-86.79 0.93,-86.79 3.18,-86.71 5.47,-86.57 7.84,-86.36 10.3,-86.07 12.88,-85.72 15.55,-85.28 18.28,-84.75 20.98,-84.14 23.59,-83.46 26.05,-82.72 28.36,-81.91 30.59,-81.05 32.88,-80.13 35.34,-79.13 38.08,-78.06 41.17,-76.9 44.6,-75.64 48.28,-74.26 52.06,-72.76 55.8,-71.17 59.35,-69.55 62.46,-68.06 64.43,-66.71" fill="none" stroke="rgb(134, 19, 41)" stroke-width="2" stroke-linejoin="round" filter="url(#fuzzy)" /><polyline points="-26.14,-79.55 -25.48,-80.14 -23.89,-81.12 -21.84,-82.15 -19.83,-83.03 -17.93,-83.76 -16.03,-84.38 -14.04,-84.92 -11.97,-85.41 -9.83,-85.84 -7.68,-86.19 -5.54,-86.47 -3.42,-86.65 -1.31,-86.75 0.77,-86.76 2.84,-86.69 4.89,-86.56 6.92,-86.35 8.95,-86.08 11,-85.72 13.11,-85.29 15.29,-84.77 17.54,-84.17 19.85,-83.49 22.18,-82.75 24.5,-81.95 26.79,-81.09 29.04,-80.18 31.3,-79.19 33.63,-78.13 36.08,-76.98 38.69,-75.73 41.44,-74.36 44.28,-72.84 47.2,-71.18 50.07,-69.49 52.04,-68.26" fill="none" stroke="rgb(134, 19, 41)" stroke-width="2" stroke-linejoin="round" filter="url(#fuzzy)" /><polyline points="-28.5,-78.14 -27.73,-79.21 -26.14,-80.13 -24.12,-81.12 -21.96,-82.09 -19.89,-82.95 -17.92,-83.69 -16,-84.33 -14.03,-84.88 -11.99,-85.38 -9.89,-85.81 -7.76,-86.17 -5.62,-86.45 -3.51,-86.64 -1.41,-86.74 0.66,-86.76 2.7,-86.7 4.71,-86.57 6.71,-86.37 8.69,-86.1 10.68,-85.76 12.69,-85.33 14.72,-84.82 16.77,-84.23 18.82,-83.55 20.84,-82.82 22.82,-82.02 24.78,-81.17 26.74,-80.27 28.74,-79.3 30.78,-78.26 32.86,-77.14 34.97,-75.92 37.08,-74.6 39.21,-73.17 41.35,-71.81" fill="none" stroke="rgb(134, 19, 41)" stroke-width="2" stroke-linejoin="round" filter="url(#fuzzy)" /><polyline points="63.05,-18.39 67.03,-15.65 71.87,-12.8 73.92,-9.92 73.79,-7.09 73.03,-4.4 72.7,-1.85 73.12,0.65 74.07,3.17 75.08,5.78 75.74,8.47 75.95,11.21 75.8,13.93 75.53,16.6 75.32,19.2 75.27,21.73 75.4,24.21 75.74,26.65 76.34,29.05 77.32,31.43 78.78,33.79 80.71,36.12 82.95,38.44 85.16,40.77 86.94,43.11 87.95,45.45 88.08,47.79 87.49,50.13 86.54,52.44 85.56,54.74 84.7,56.99 83.86,59.16 82.82,61.2 81.54,63.12 80.28,65.01 79.77,67.14" fill="none" stroke="rgb(134, 19, 41)" stroke-width="2" stroke-linejoin="round" filter="url(#fuzzy)" /><polyline points="-30.84,-76.57 -30.86,-77.3 -30.69,-78.19 -30.79,-79.13 -30.3,-80.09 -29.02,-81.05 -27.24,-81.98 -25.21,-82.83 -23.06,-83.58 -20.79,-84.23 -18.39,-84.81 -15.87,-85.32 -13.23,-85.76 -10.51,-86.13 -7.72,-86.42 -4.85,-86.62 -1.92,-86.74 1.09,-86.77 4.13,-86.73 7.19,-86.61 10.24,-86.43 13.26,-86.18 16.3,-85.85 19.46,-85.45 22.89,-84.95 26.73,-84.36 31.07,-83.69 35.87,-82.96 40.97,-82.18 46.12,-81.36 50.95,-80.48 55.14,-79.54 58.85,-78.52 64.23,-77.17" fill="none" stroke="rgb(134, 19, 41)" stroke-width="2" stroke-linejoin="round" filter="url(#fuzzy)" /><polyline points="-34.73,-73.24 -33.02,-74.94 -31.47,-76.36 -29.84,-77.6 -28.12,-78.74 -26.34,-79.8 -24.57,-80.77 -22.8,-81.66 -21.04,-82.48 -19.24,-83.23 -17.39,-83.9 -15.5,-84.51 -13.56,-85.05 -11.59,-85.51 -9.57,-85.9 -7.5,-86.21 -5.39,-86.46 -3.25,-86.63 -1.09,-86.73 1.1,-86.75 3.33,-86.69 5.6,-86.55 7.91,-86.33 10.26,-86.03 12.64,-85.65 15.04,-85.19 17.47,-84.64 19.97,-84 22.56,-83.27 25.22,-82.45 27.87,-81.58 30.39,-80.67 32.83,-79.69 35.9,-78.44" fill="none" stroke="rgb(134, 19, 41)" stroke-width="2" stroke-linejoin="round" filter="url(#fuzzy)" /><polyline points="-37.21,-71.17 -36.69,-72.16 -35.15,-73.45 -33.26,-74.83 -31.38,-76.17 -29.58,-77.42 -27.84,-78.58 -26.11,-79.66 -24.36,-80.64 -22.57,-81.55 -20.74,-82.38 -18.88,-83.14 -17,-83.83 -15.11,-84.45 -13.2,-85 -11.28,-85.47 -9.33,-85.88 -7.34,-86.21 -5.33,-86.47 -3.31,-86.66 -1.29,-86.78 0.73,-86.83 2.76,-86.79 4.84,-86.67 6.97,-86.47 9.13,-86.18 11.23,-85.84 13.25,-85.44 15.21,-84.96 17.24,-84.36 19.74,-83.43" fill="none" stroke="rgb(134, 19, 41)" stroke-width="2" stroke-linejoin="round" filter="url(#fuzzy)" /><polyline points="-40.87,-67.31 -44.04,-69.42 -46.83,-70.87 -46.51,-72.16 -44.72,-73.47 -42.63,-74.79 -40.65,-76.09 -38.7,-77.33 -36.58,-78.5 -34.23,-79.58 -31.69,-80.57 -29.12,-81.49 -26.62,-82.33 -24.27,-83.09 -22.03,-83.79 -19.85,-84.41 -17.62,-84.95 -15.27,-85.43 -12.76,-85.83 -10.08,-86.15 -7.25,-86.41 -4.31,-86.59 -1.27,-86.69 1.84,-86.72 5.01,-86.67 8.23,-86.53 11.48,-86.32 14.74,-86.02 17.99,-85.65 21.29,-85.19 24.72,-84.65 28.36,-84.01 32.25,-83.28 36.35,-82.46 40.58,-81.58 44.88,-80.68 49.4,-79.69 54.94,-78.44" fill="none" stroke="rgb(134, 19, 41)" stroke-width="2" stroke-linejoin="round" filter="url(#fuzzy)" /><polyline points="62.77,-19.35 63.68,-17.79 64.33,-15.44 65.38,-12.76 67.79,-9.96 71.71,-7.18 76.34,-4.5 80.52,-1.92 83.36,0.6 84.59,3.15 84.45,5.77 83.59,8.46 82.74,11.18 82.56,13.89 83.48,16.56 85.61,19.17 88.75,21.71 92.44,24.19 96.1,26.64 99.13,29.05 101.13,31.43 101.89,33.79 101.47,36.13 100.11,38.46 98.16,40.79 95.98,43.13 93.89,45.48 92.12,47.82 90.8,50.15 90.01,52.47 89.75,54.76 89.98,56.99 90.51,59.15 91.08,61.19 91.42,63.1 91.37,64.88 90.93,66.47 90.67,67.44" fill="none" stroke="rgb(134, 19, 41)" stroke-width="2" stroke-linejoin="round" filter="url(#fuzzy)" /><polyline points="-45.83,-61.1 -46.94,-62.34 -46.7,-64.22 -45.05,-66.05 -43.1,-67.73 -41.35,-69.29 -39.96,-70.79 -38.95,-72.24 -38.26,-73.66 -37.7,-75.03 -37.03,-76.33 -36.06,-77.54 -34.72,-78.67 -33.06,-79.73 -31.21,-80.72 -29.27,-81.64 -27.27,-82.5 -25.15,-83.27 -22.84,-83.97 -20.32,-84.59 -17.59,-85.14 -14.7,-85.62 -11.72,-86.02 -8.7,-86.34 -5.66,-86.58 -2.58,-86.73 0.55,-86.79 3.74,-86.77 6.95,-86.68 10.16,-86.52 13.32,-86.31 16.4,-86.03 19.44,-85.67 22.52,-85.21 25.83,-84.6 29.58,-83.86 33.73,-83.09 37.91,-82.44" fill="none" stroke="rgb(134, 19, 41)" stroke-width="2" stroke-linejoin="round" filter="url(#fuzzy)" /><polyline points="-45.83,-61.1 -48.98,-62.34 -47.26,-64.22 -45.47,-66.05 -44.17,-67.73 -43.25,-69.29 -42.55,-70.79 -41.87,-72.24 -41,-73.66 -39.77,-75.03 -38.16,-76.33 -36.26,-77.54 -34.2,-78.67 -32.15,-79.73 -30.21,-80.72 -28.41,-81.64 -26.68,-82.5 -24.91,-83.27 -22.97,-83.97 -20.76,-84.59 -18.24,-85.14 -15.41,-85.62 -12.36,-86.02 -9.19,-86.34 -5.97,-86.58 -2.77,-86.73 0.38,-86.79 3.49,-86.77 6.56,-86.68 9.62,-86.52 12.72,-86.31 15.93,-86.03 19.36,-85.67 23.13,-85.21 27.37,-84.6 31.92,-83.86 36.19,-83.09 39.52,-82.44" fill="none" stroke="rgb(134, 19, 41)" stroke-width="2" stroke-linejoin="round" filter="url(#fuzzy)" /><polyline points="-46.95,-59.69 -46.33,-60.92 -46.06,-62.42 -46.26,-64.15 -47.28,-65.89 -48.79,-67.54 -49.94,-69.1 -49.99,-70.58 -48.78,-72.03 -46.63,-73.45 -44.13,-74.84 -41.78,-76.15 -39.84,-77.37 -38.34,-78.5 -37.04,-79.56 -35.68,-80.57 -34.07,-81.54 -32.17,-82.45 -30.16,-83.27 -28.2,-83.99 -26.26,-84.59 -24.07,-85.14 -21.11,-85.7 -16.96,-86.3 -12.02,-86.87" fill="none" stroke="rgb(134, 19, 41)" stroke-width="2" stroke-linejoin="round" filter="url(#fuzzy)" /><polyline points="-46.95,-59.69 -48.29,-60.92 -48.71,-62.42 -47.26,-64.15 -45.21,-65.89 -43.35,-67.54 -41.95,-69.1 -40.99,-70.58 -40.27,-72.03 -39.52,-73.45 -38.51,-74.84 -37.19,-76.15 -35.67,-77.37 -34.09,-78.5 -32.56,-79.56 -31.06,-80.57 -29.5,-81.54 -27.81,-82.45 -25.98,-83.27 -23.99,-83.99 -21.8,-84.59 -19.29,-85.14 -16.26,-85.7 -12.66,-86.3 -9.23,-86.87" fill="none" stroke="rgb(134, 19, 41)" stroke-width="2" stroke-linejoin="round" filter="url(#fuzzy)" /><polyline points="-48.9,-56.72 -47.77,-58.73 -47.14,-60.72 -47.32,-62.69 -47.79,-64.66 -48.05,-66.6 -47.96,-68.42 -47.53,-70.11 -46.74,-71.65 -45.55,-73.1 -43.95,-74.47 -42.01,-75.77 -39.83,-77.02 -37.54,-78.2 -35.26,-79.31 -33.11,-80.33 -31.16,-81.28 -29.42,-82.15 -27.77,-82.95 -26.08,-83.68 -24.18,-84.33 -21.97,-84.92 -19.44,-85.43 -16.65,-85.87 -13.6,-86.23 -10.3,-86.52 -6.71,-86.75 -3,-86.91 0.39,-87.04 2.9,-87.13 4.77,-87.1" fill="none" stroke="rgb(134, 19, 41)" stroke-width="2" stroke-linejoin="round" filter="url(#fuzzy)" /><polyline points="-49.77,-55.14 -50.05,-56.83 -52.48,-58.72 -54.65,-60.66 -55.17,-62.62 -54.04,-64.58 -52.03,-66.5 -50.01,-68.32 -48.42,-70 -47.26,-71.56 -46.25,-73.02 -45.08,-74.39 -43.53,-75.71 -41.49,-76.96 -39.02,-78.15 -36.31,-79.26 -33.61,-80.3 -31.17,-81.25 -29.1,-82.13 -27.34,-82.93 -25.74,-83.67 -24.08,-84.33 -22.17,-84.93 -19.91,-85.45 -17.24,-85.89 -14.13,-86.26 -10.57,-86.56 -6.53,-86.78 -2.05,-86.9 2.34,-86.96" fill="none" stroke="rgb(134, 19, 41)" stroke-width="2" stroke-linejoin="round" filter="url(#fuzzy)" /><polyline points="-50.83,-53.28 -49.85,-55.01 -48.84,-56.77 -47.88,-58.62 -47.09,-60.52 -46.5,-62.45 -46.08,-64.38 -45.74,-66.29 -45.4,-68.12 -44.93,-69.81 -44.23,-71.37 -43.28,-72.83 -42.11,-74.2 -40.77,-75.53 -39.26,-76.8 -37.56,-78.01 -35.72,-79.16 -33.79,-80.22 -31.84,-81.2 -29.84,-82.07 -27.7,-82.83 -25.26,-83.6 -22.11,-84.61" fill="none" stroke="rgb(134, 19, 41)" stroke-width="2" stroke-linejoin="round" filter="url(#fuzzy)" /><polyline points="-51.83,-51.4 -56.03,-49.45 -59.42,-47.13 -61.07,-44.78 -62.14,-42.48 -63.03,-40.17 -63.93,-37.77 -64.99,-35.25 -66.24,-32.64 -67.63,-30.01 -69.07,-27.42 -70.51,-24.87 -71.89,-22.35 -73.14,-19.84 -74.2,-17.3 -75.08,-14.73 -75.9,-12.13 -76.82,-9.52 -77.94,-6.89 -79.21,-4.23 -80.44,-1.56 -81.38,1.14 -81.92,3.83 -82.19,6.5 -82.46,9.12 -83.01,11.71 -83.93,14.27 -85,16.74 -85.88,19.04 -86.52,21.12 -88.12,23.37" fill="none" stroke="rgb(134, 19, 41)" stroke-width="2" stroke-linejoin="round" filter="url(#fuzzy)" /><polyline points="-51.83,-51.4 -53.55,-49.47 -55.66,-47.16 -58.08,-44.83 -60.47,-42.55 -62.3,-40.26 -63.52,-37.89 -64.49,-35.39 -65.67,-32.79 -67.33,-30.16 -69.53,-27.57 -72.17,-25.05 -75.17,-22.56 -78.5,-20.09 -82.04,-17.57 -85.51,-15.01 -88.49,-12.43 -90.59,-9.84 -91.78,-7.25 -92.54,-4.64 -93.73,-1.96 -96.16,0.78 -100.06,3.56 -104.9,6.22 -109.57,8.62 -112.26,11.1" fill="none" stroke="rgb(134, 19, 41)" stroke-width="2" stroke-linejoin="round" filter="url(#fuzzy)" /><polyline points="-55.18,-45.01 -56.42,-42.12 -57.39,-39.96 -58.29,-37.65 -59.14,-35.09 -59.95,-32.38 -60.71,-29.67 -61.4,-27.04 -62.04,-24.5 -62.64,-21.99 -63.24,-19.47 -63.82,-16.92 -64.37,-14.33 -64.86,-11.72 -65.26,-9.09 -65.56,-6.44 -65.76,-3.77 -65.89,-1.09 -65.99,1.59 -66.08,4.27 -66.15,6.92 -66.2,9.53 -66.19,12.11 -66.1,14.65 -65.91,17.15 -65.64,19.64 -65.29,22.12 -64.88,24.63 -64.44,27.16 -63.94,29.71 -63.39,32.25 -62.73,34.79 -62,37.3 -61.34,39.58 -61,41.28" fill="none" stroke="rgb(134, 19, 41)" stroke-width="2" stroke-linejoin="round" filter="url(#fuzzy)" /><polyline points="-56.33,-42.37 -55.71,-40.31 -56.58,-37.87 -56.76,-35.34 -55.66,-32.87 -53.76,-30.5 -51.83,-28.2 -50.41,-25.89 -49.59,-23.53 -49.18,-21.11 -48.94,-18.64 -48.64,-16.14 -48.08,-13.61 -47.07,-11.05 -45.46,-8.46 -43.26,-5.84 -40.64,-3.21 -37.97,-0.58 -35.66,2.04 -34.08,4.66 -33.38,7.27 -33.4,9.89 -33.69,12.53 -33.68,15.17 -32.96,17.81 -31.53,20.45 -29.66,23.07 -27.42,25.68 -24.37,28.13 -21.19,30.05" fill="none" stroke="rgb(134, 19, 41)" stroke-width="2" stroke-linejoin="round" filter="url(#fuzzy)" /><polyline points="-59.87,-32.56 -65,-28.93 -68.18,-26.31 -72.66,-24.02 -76.46,-21.74 -77.97,-19.33 -77.39,-16.79 -75.99,-14.19 -75.05,-11.57 -75.33,-8.96 -76.95,-6.35 -79.56,-3.71 -82.55,-1.05 -85.36,1.63 -87.63,4.3 -89.34,6.94 -90.63,9.53 -91.69,12.08 -92.65,14.58 -93.54,17.04 -94.37,19.44 -95.06,21.86 -95.45,24.36 -95.73,27 -96.88,29.64 -99.9,32.18" fill="none" stroke="rgb(134, 19, 41)" stroke-width="2" stroke-linejoin="round" filter="url(#fuzzy)" /><polyline points="-59.87,-32.56 -60.82,-28.94 -61.47,-26.32 -61.98,-24.05 -62.4,-21.77 -62.78,-19.38 -63.14,-16.85 -63.47,-14.26 -63.76,-11.65 -64.01,-9.05 -64.2,-6.45 -64.35,-3.83 -64.43,-1.17 -64.46,1.51 -64.42,4.18 -64.34,6.81 -64.19,9.4 -64,11.95 -63.75,14.46 -63.45,16.9 -63.11,19.23 -62.75,21.52 -62.33,24.06 -61.76,27.35" fill="none" stroke="rgb(134, 19, 41)" stroke-width="2" stroke-linejoin="round" filter="url(#fuzzy)" /><polyline points="58.63,-35.87 59.59,-33.55 61.05,-31.07 62.57,-28.46 63.65,-25.87 64.36,-23.34 64.98,-20.82 65.67,-18.28 66.44,-15.69 67.23,-13.04 68.04,-10.36 68.88,-7.69 69.76,-5.04 70.63,-2.43 71.37,0.16 71.85,2.75 72.01,5.38 71.87,8.05 71.55,10.75 71.18,13.45 70.88,16.12 70.73,18.73 70.68,21.29 70.67,23.79 70.6,26.24 70.42,28.67 70.12,31.06 69.72,33.41 69.27,35.74 68.79,38.06 68.27,40.38 67.7,42.74 67.02,45.11 66.22,47.45 65.29,49.76 64.23,52.08 62.8,54.58 60.89,57.47" fill="none" stroke="rgb(134, 19, 41)" stroke-width="2" stroke-linejoin="round" filter="url(#fuzzy)" /><polyline points="58.63,-35.87 59.5,-33.55 60.29,-31.07 61.05,-28.46 61.85,-25.88 62.68,-23.35 63.43,-20.84 64.05,-18.3 64.51,-15.71 64.9,-13.06 65.28,-10.38 65.71,-7.71 66.19,-5.06 66.69,-2.46 67.16,0.13 67.57,2.72 67.9,5.34 68.16,8.01 68.36,10.71 68.5,13.41 68.56,16.08 68.53,18.7 68.41,21.25 68.21,23.75 67.95,26.21 67.67,28.63 67.37,31.02 67.04,33.37 66.64,35.69 66.15,38 65.54,40.32 64.82,42.68 63.98,45.06 63.04,47.41 62.02,49.65 60.91,51.85 59.53,54.28" fill="none" stroke="rgb(134, 19, 41)" stroke-width="2" stroke-linejoin="round" filter="url(#fuzzy)" /><polyline points="56.37,-41.9 57.57,-39.07 58.62,-36.32 59.51,-33.76 60.3,-31.39 61.03,-29.14 61.71,-26.93 62.34,-24.71 62.9,-22.44 63.4,-20.1 63.85,-17.68 64.28,-15.22 64.68,-12.74 65.05,-10.23 65.39,-7.69 65.7,-5.06 65.98,-2.33 66.22,0.48 66.4,3.31 66.51,6.07 66.57,8.67 66.6,11.12 66.61,13.52 66.55,16.05 66.29,18.86 65.74,21.63" fill="none" stroke="rgb(134, 19, 41)" stroke-width="2" stroke-linejoin="round" filter="url(#fuzzy)" /><polyline points="55.67,-43.59 59.51,-41.37 62.52,-38.8 64.42,-36.28 65.38,-33.79 66.26,-31.3 67.5,-28.78 68.94,-26.25 70.29,-23.75 71.4,-21.24 72.46,-18.72 73.79,-16.15 75.65,-13.54 78.16,-10.88 81.31,-8.22 84.96,-5.58 88.92,-3 92.88,-0.48 96.45,2.04 99.25,4.6 101.04,7.26 101.82,10.02 101.78,12.84 101.22,15.62 100.44,18.25 99.87,20.67 100.05,22.88 101.4,24.98 104.42,27.06" fill="none" stroke="rgb(134, 19, 41)" stroke-width="2" stroke-linejoin="round" filter="url(#fuzzy)" /><polyline points="55.01,-45.65 55.8,-43.88 57.77,-41.61 61.32,-39.08 65.45,-36.5 69.07,-33.99 71.88,-31.59 74.23,-29.27 76.57,-27.01 79.28,-24.74 82.54,-22.43 86.32,-20.07 90.32,-17.65 94.04,-15.18 96.93,-12.68 98.57,-10.14 98.85,-7.56 98.01,-4.9 96.54,-2.18 95.02,0.6 94.07,3.39 94.16,6.12 95.58,8.77 98.33,11.35 102.04,13.91 106.02,16.53 109.43,19.24 111.8,21.97 113.4,24.55 114.99,26.93 116.44,30.15" fill="none" stroke="rgb(134, 19, 41)" stroke-width="2" stroke-linejoin="round" filter="url(#fuzzy)" /><polyline points="52.95,-49.59 57.98,-47.33 59.33,-45.26 59.23,-43.28 59.23,-41.17 59.82,-38.92 60.93,-36.57 62.3,-34.14 63.71,-31.68 65.04,-29.18 66.32,-26.69 67.59,-24.2 68.89,-21.72 70.11,-19.22 71.16,-16.7 71.95,-14.1 72.54,-11.44 73.13,-8.73 73.92,-6.03 74.97,-3.44 76.11,-1.03 77.01,1.22 77.5,3.51 77.91,5.97 79.38,8.02" fill="none" stroke="rgb(134, 19, 41)" stroke-width="2" stroke-linejoin="round" filter="url(#fuzzy)" /><polyline points="50.99,-53.13 54.41,-50.12 56.03,-47.62 58.68,-45.44 62.82,-43.34 67.49,-41.19 71.42,-38.94 73.95,-36.59 75.34,-34.17 76.33,-31.7 77.59,-29.21 79.35,-26.71 81.51,-24.21 83.82,-21.71 86.14,-19.21 88.37,-16.66 90.41,-14.06 92.18,-11.4 93.73,-8.7 95.41,-6.02 97.74,-3.44 101.13,-0.99 105.42,1.35 109.77,3.71 113,6.26 114.25,9.1 113.78,12.65" fill="none" stroke="rgb(134, 19, 41)" stroke-width="2" stroke-linejoin="round" filter="url(#fuzzy)" /><polyline points="50.3,-54.28 55.93,-51.85 56.75,-49.33 57.94,-46.8 60.27,-44.29 63.21,-41.77 66.01,-39.24 68.16,-36.72 69.55,-34.24 70.39,-31.82 71.07,-29.47 71.92,-27.16 73.15,-24.85 74.84,-22.52 76.97,-20.15 79.49,-17.72 82.33,-15.26 85.35,-12.75 88.4,-10.2 91.25,-7.6 93.71,-4.93 95.72,-2.21 97.33,0.56 98.73,3.34 100.17,6.08 101.78,8.75 103.58,11.36 105.44,13.95 107.14,16.58 108.5,19.26 109.35,21.96 109.64,24.58 109.75,27.07 110.71,29.59 113.73,32.03" fill="none" stroke="rgb(134, 19, 41)" stroke-width="2" stroke-linejoin="round" filter="url(#fuzzy)" /><polyline points="49.07,-56.36 51.72,-54.47 54.57,-52.38 56.94,-50.11 58.57,-47.84 59.55,-45.63 60.16,-43.45 60.65,-41.24 61.16,-38.96 61.81,-36.61 62.68,-34.2 63.86,-31.73 65.43,-29.24 67.39,-26.73 69.68,-24.22 72.14,-21.7 74.5,-19.17 76.54,-16.6 78.07,-13.99 79.04,-11.33 79.52,-8.65 79.67,-6 79.72,-3.41 79.93,-0.91 80.52,1.54 81.62,4.03 83.14,6.67 84.74,9.53 85.92,12.57 86.56,15.58 87.83,17.93" fill="none" stroke="rgb(134, 19, 41)" stroke-width="2" stroke-linejoin="round" filter="url(#fuzzy)" /><polyline points="40.13,-68.26 45.51,-66.5 46.77,-64.62 47.66,-62.71 49.14,-60.75 51.01,-58.75 52.92,-56.75 54.77,-54.71 56.73,-52.62 59.02,-50.49 61.7,-48.33 64.59,-46.15 67.36,-43.96 69.73,-41.75 71.68,-39.49 73.43,-37.16 75.37,-34.78 77.88,-32.34 81.16,-29.86 85.14,-27.36 89.57,-24.86 94.03,-22.38 98.1,-19.9 101.35,-17.41 103.51,-14.87 104.56,-12.22 104.95,-9.4 105.77,-6.39 108.35,-3.55" fill="none" stroke="rgb(134, 19, 41)" stroke-width="2" stroke-linejoin="round" filter="url(#fuzzy)" /><polyline points="40.2,-68.08 42.53,-66.85 45.84,-65.32 48.44,-63.56 50.02,-61.76 51.04,-60.01 52.11,-58.24 53.64,-56.37 55.74,-54.35 58.26,-52.17 60.93,-49.86 63.5,-47.47 65.79,-45.01 67.78,-42.53 69.55,-40.03 71.23,-37.53 72.94,-35.06 74.72,-32.63 76.6,-30.27 78.59,-27.97 80.74,-25.69 83.12,-23.42 85.7,-21.09 88.42,-18.69 91.16,-16.2 93.76,-13.67 95.96,-11.19 97.41,-8.91 97.98,-6.88 97.82,-4.81" fill="none" stroke="rgb(134, 19, 41)" stroke-width="2" stroke-linejoin="round" filter="url(#fuzzy)" /><polyline points="39.37,-68.8 40.88,-67.87 42.58,-66.38 44.06,-64.65 45.57,-62.79 47.28,-60.86 49.23,-58.9 51.39,-56.91 53.7,-54.88 56.11,-52.82 58.58,-50.7 61.11,-48.56 63.66,-46.4 66.2,-44.24 68.73,-42.06 71.31,-39.83 74.01,-37.54 76.89,-35.18 79.97,-32.75 83.13,-30.26 86.2,-27.74 88.96,-25.22 91.15,-22.74 92.68,-20.3 94.15,-18.39" fill="none" stroke="rgb(134, 19, 41)" stroke-width="2" stroke-linejoin="round" filter="url(#fuzzy)" /><polyline points="36.5,-71.81 38.61,-69.64 40.18,-68.01 41.73,-66.37 43.31,-64.62 44.86,-62.76 46.32,-60.84 47.71,-58.86 49.04,-56.86 50.34,-54.81 51.61,-52.73 52.85,-50.6 54.06,-48.45 55.25,-46.27 56.43,-44.08 57.61,-41.87 58.79,-39.6 59.95,-37.28 61.07,-34.9 62.11,-32.46 63.06,-29.98 63.91,-27.48 64.68,-24.97 65.37,-22.49 65.97,-20.02 66.47,-17.55 66.92,-15.04 67.39,-12.42 67.91,-9.57 68.24,-5.89" fill="none" stroke="rgb(134, 19, 41)" stroke-width="2" stroke-linejoin="round" filter="url(#fuzzy)" /><polyline points="37.07,-71.33 39.7,-70.25 44.94,-68.71 48.47,-67.11 49.8,-65.45 50.43,-63.73 51.57,-61.99 53.67,-60.26 56.71,-58.51 60.56,-56.67 64.97,-54.7 69.59,-52.58 73.97,-50.32 77.8,-47.96 81.07,-45.54 84.1,-43.07 87.29,-40.58 90.86,-38.05 94.73,-35.52 98.75,-33.04 102.79,-30.7 106.55,-28.49 109.68,-26.23 113.38,-23.12" fill="none" stroke="rgb(134, 19, 41)" stroke-width="2" stroke-linejoin="round" filter="url(#fuzzy)" /><polyline points="30.95,-76.27 33.91,-74.82 36.74,-73.19 39.06,-71.51 41.03,-69.82 42.72,-68.13 44.19,-66.41 45.54,-64.62 46.96,-62.76 48.68,-60.84 50.95,-58.87 53.96,-56.86 57.79,-54.8 62.4,-52.7 67.54,-50.57 72.83,-48.4 77.81,-46.21 82.08,-44 85.38,-41.75 87.64,-39.45 89.01,-37.11 89.79,-34.71 90.41,-32.26 91.31,-29.78 92.84,-27.28 95.16,-24.76 98.16,-22.24 101.5,-19.7 104.68,-17.13 107.29,-14.51 109.17,-11.82 110.53,-9.07 111.84,-6.32 113.55,-3.67 115.75,-1.23 118.03,0.99 120.04,3.35 122.8,6.73" fill="none" stroke="rgb(134, 19, 41)" stroke-width="2" stroke-linejoin="round" filter="url(#fuzzy)" /><polyline points="26.56,-79.41 27.93,-78.59 29.66,-77.43 31.75,-76.13 34.16,-74.71 36.67,-73.19 39.07,-71.59 41.33,-69.95 43.55,-68.26 45.84,-66.53 48.19,-64.75 50.5,-62.91 52.64,-61.01 54.54,-59.06 56.23,-57.06 57.78,-55.01 59.33,-52.93 61,-50.8 62.88,-48.65 65.03,-46.47 67.43,-44.27 70.01,-42.03 72.69,-39.76 75.36,-37.43 77.91,-35.04 80.28,-32.6 82.4,-30.11 84.24,-27.6 85.82,-25.08 87.18,-22.58 88.35,-20.1 89.27,-17.61 89.93,-15.08 90.61,-12.45 92.03,-9.58 94.57,-5.89" fill="none" stroke="rgb(134, 19, 41)" stroke-width="2" stroke-linejoin="round" filter="url(#fuzzy)" /><polyline points="26.56,-79.41 27.87,-78.6 29.29,-77.45 30.56,-76.17 31.49,-74.77 32.06,-73.27 32.45,-71.68 32.82,-70.06 33.22,-68.39 33.58,-66.69 33.82,-64.94 33.96,-63.12 34.06,-61.24 34.21,-59.32 34.44,-57.34 34.73,-55.33 35.03,-53.26 35.24,-51.16 35.24,-49.01 34.83,-46.86 33.9,-44.71 32.44,-42.54 30.56,-40.34 28.45,-38.07 26.29,-35.73 24.33,-33.39 22.81,-30.97 20.63,-27.97" fill="none" stroke="rgb(134, 19, 41)" stroke-width="2" stroke-linejoin="round" filter="url(#fuzzy)" /><polyline points="26.56,-79.41 29.47,-78.6 31.67,-77.47 35.01,-76.2 39.57,-74.82 44.28,-73.33 48.18,-71.75 51.08,-70.14 53.42,-68.49 55.73,-66.81 58.36,-65.08 61.35,-63.28 64.54,-61.42 67.7,-59.51 70.75,-57.56 73.83,-55.57 77.31,-53.54 81.58,-51.43 86.68,-49.26 92.14,-47.09 97.24,-45.01 101.81,-43.04 106.97,-40.97 114.32,-38.09" fill="none" stroke="rgb(134, 19, 41)" stroke-width="2" stroke-linejoin="round" filter="url(#fuzzy)" /><polyline points="25.31,-80.01 28.19,-78.61 30.52,-77.33 32.42,-76.01 34.19,-74.63 35.92,-73.21 37.66,-71.77 39.47,-70.29 41.35,-68.75 43.25,-67.16 45.1,-65.52 46.83,-63.82 48.43,-62.09 49.94,-60.31 51.41,-58.48 52.9,-56.56 54.45,-54.53 56.11,-52.39 57.88,-50.14 59.77,-47.79 61.76,-45.37 63.85,-42.89 65.99,-40.39 68.18,-37.89 70.39,-35.4 72.59,-32.95 74.73,-30.57 76.77,-28.25 78.64,-25.97 80.33,-23.7 81.85,-21.39 83.28,-18.99 84.69,-16.44 86.05,-13.75 87.35,-11.03 88.77,-8.4" fill="none" stroke="rgb(134, 19, 41)" stroke-width="2" stroke-linejoin="round" filter="url(#fuzzy)" /><polyline points="25.31,-80.01 27.93,-78.61 30.88,-77.33 34.58,-76 39.15,-74.62 44.05,-73.21 48.53,-71.76 52.19,-70.28 55.03,-68.74 57.21,-67.15 58.9,-65.5 60.23,-63.81 61.39,-62.07 62.66,-60.29 64.32,-58.45 66.59,-56.52 69.49,-54.49 72.88,-52.35 76.5,-50.09 80.08,-47.74 83.52,-45.32 86.87,-42.85 90.34,-40.35 94.12,-37.85 98.27,-35.36 102.62,-32.92 106.81,-30.53 110.38,-28.2 113,-25.91 114.54,-23.62 115.21,-21.29 115.7,-18.88 117.06,-16.36 120.27,-13.76 125.34,-11.2 130.59,-8.92 133.74,-7.28" fill="none" stroke="rgb(134, 19, 41)" stroke-width="2" stroke-linejoin="round" filter="url(#fuzzy)" /><polyline points="22.49,-81.72 24.37,-80.69 26.47,-79.66 28.43,-78.59 30.22,-77.42 31.99,-76.14 33.9,-74.75 36.02,-73.26 38.33,-71.7 40.72,-70.08 43.04,-68.41 45.16,-66.7 47.02,-64.93 48.62,-63.11 50.03,-61.23 51.35,-59.29 52.67,-57.31 54.08,-55.29 55.63,-53.21 57.35,-51.1 59.17,-48.96 61.03,-46.8 62.84,-44.62 64.53,-42.43 66.15,-40.19 67.77,-37.9 69.51,-35.53 71.4,-33.09 73.39,-30.56 75.28,-27.96 76.87,-25.57 78.14,-24.39" fill="none" stroke="rgb(134, 19, 41)" stroke-width="2" stroke-linejoin="round" filter="url(#fuzzy)" /><polyline points="22.93,-81.47 24.54,-80.73 26.62,-79.77 28.74,-78.65 30.79,-77.44 32.89,-76.16 35.11,-74.83 37.38,-73.46 39.61,-72.06 41.76,-70.62 43.9,-69.14 46.15,-67.6 48.56,-66 51.1,-64.34 53.67,-62.65 56.2,-60.96 58.67,-59.28 61.08,-57.57 63.39,-55.76 65.54,-53.75 67.55,-51.49 69.74,-48.92 72.78,-45.65" fill="none" stroke="rgb(134, 19, 41)" stroke-width="2" stroke-linejoin="round" filter="url(#fuzzy)" /><polyline points="20.59,-82.44 22.59,-81.63 24.9,-80.69 27.14,-79.7 29.38,-78.63 31.81,-77.48 34.44,-76.23 37.12,-74.87 39.65,-73.41 42.01,-71.87 44.32,-70.27 46.83,-68.63 49.76,-66.95 53.18,-65.22 57.01,-63.42 61.07,-61.57 65.22,-59.66 69.34,-57.71 73.36,-55.72 77.15,-53.69 80.55,-51.57 83.61,-49.38 86.82,-47.16 90.75,-45.09 95.17,-43.36 98.68,-41.87" fill="none" stroke="rgb(134, 19, 41)" stroke-width="2" stroke-linejoin="round" filter="url(#fuzzy)" /><polyline points="12.24,-85.58 14.2,-84.91 16.47,-84.05 18.32,-83.23 19.83,-82.43 21.23,-81.59 22.65,-80.7 24.13,-79.73 25.68,-78.68 27.27,-77.54 28.9,-76.3 30.59,-74.97 32.3,-73.54 34.01,-72.03 35.64,-70.45 37.15,-68.82 38.5,-67.14 39.66,-65.42 40.67,-63.63 41.55,-61.78 42.33,-59.87 43.01,-57.92 43.58,-55.96 44.08,-53.95 44.64,-51.85 45.37,-49.54 46.17,-47.01 46.68,-44.26" fill="none" stroke="rgb(134, 19, 41)" stroke-width="2" stroke-linejoin="round" filter="url(#fuzzy)" /><polyline points="11.86,-85.71 14.18,-85.07 16.48,-84.37 18.75,-83.57 20.84,-82.69 22.76,-81.76 24.57,-80.78 26.36,-79.73 28.16,-78.61 30.01,-77.42 31.88,-76.15 33.76,-74.83 35.63,-73.46 37.51,-72.04 39.42,-70.57 41.38,-69.06 43.39,-67.49 45.44,-65.87 47.49,-64.21 49.47,-62.51 51.32,-60.77 53.02,-58.98 54.57,-57.12 56.07,-55.16 57.61,-53.07 59.29,-50.84 61.16,-48.5 63.16,-46.08 65.19,-43.61 67.12,-41.09 68.85,-38.5 70.38,-35.83 71.9,-33.14 73.27,-30.66" fill="none" stroke="rgb(134, 19, 41)" stroke-width="2" stroke-linejoin="round" filter="url(#fuzzy)" /><polyline points="8.98,-86.42 10.96,-85.97 12.82,-85.45 15.02,-84.78 17.38,-84.03 19.7,-83.25 21.98,-82.43 24.28,-81.58 26.62,-80.67 28.96,-79.69 31.28,-78.62 33.6,-77.47 35.96,-76.22 38.4,-74.88 40.92,-73.44 43.48,-71.93 46.02,-70.35 48.52,-68.71 51.03,-67.01 53.6,-65.26 56.27,-63.45 58.98,-61.59 61.58,-59.67 63.91,-57.71 65.9,-55.69 67.66,-53.63 69.46,-51.51 71.56,-49.35 74.01,-47.17 76.65,-45.03 79.18,-42.94 81.56,-40.78 84.05,-38.36 87.17,-35.87" fill="none" stroke="rgb(134, 19, 41)" stroke-width="2" stroke-linejoin="round" filter="url(#fuzzy)" />
    </g>
    
        <g id="pointNose">
          <g id="rightNose"><circle r="1.736" cx="8.936" cy="24.188" stroke="black" fill="none" stroke-width="1.0" filter="url(#fuzzy)" /><circle r="2.858" cx="10.744" cy="24.915999999999997" stroke="black" fill="none" stroke-width="1.0" filter="url(#fuzzy)" /><circle r="2.668" cx="10.059999999999999" cy="24.575999999999997" stroke="black" fill="none" stroke-width="1.0" filter="url(#fuzzy)" /><circle r="1.108" cx="10.7" cy="26.368" stroke="black" fill="none" stroke-width="1.0" filter="url(#fuzzy)" /><circle r="1.312" cx="7.739999999999998" cy="24.892" stroke="black" fill="none" stroke-width="1.0" filter="url(#fuzzy)" /><circle r="1.222" cx="8.616" cy="26.387999999999998" stroke="black" fill="none" stroke-width="1.0" filter="url(#fuzzy)" /><circle r="1.674" cx="11.356" cy="24.156" stroke="black" fill="none" stroke-width="1.0" filter="url(#fuzzy)" /><circle r="2.3899999999999997" cx="7.696" cy="25.287999999999997" stroke="black" fill="none" stroke-width="1.0" filter="url(#fuzzy)" /><circle r="2.6100000000000003" cx="11.107999999999999" cy="25.828" stroke="black" fill="none" stroke-width="1.0" filter="url(#fuzzy)" /><circle r="2.84" cx="7.963999999999999" cy="26.003999999999998" stroke="black" fill="none" stroke-width="1.0" filter="url(#fuzzy)" /></g>
          <g id="leftNose"><circle r="2.214" cx="-10.554" cy="32.754" stroke="black" fill="none" stroke-width="1.0" filter="url(#fuzzy)" /><circle r="1.53" cx="-10.446000000000002" cy="32.693999999999996" stroke="black" fill="none" stroke-width="1.0" filter="url(#fuzzy)" /><circle r="1.322" cx="-8.806000000000001" cy="33.861999999999995" stroke="black" fill="none" stroke-width="1.0" filter="url(#fuzzy)" /><circle r="2.42" cx="-9.818000000000001" cy="34.86599999999999" stroke="black" fill="none" stroke-width="1.0" filter="url(#fuzzy)" /><circle r="2.1879999999999997" cx="-10.790000000000001" cy="31.901999999999994" stroke="black" fill="none" stroke-width="1.0" filter="url(#fuzzy)" /><circle r="2.5700000000000003" cx="-12.338000000000001" cy="34.91" stroke="black" fill="none" stroke-width="1.0" filter="url(#fuzzy)" /><circle r="1.336" cx="-10.066" cy="34.477999999999994" stroke="black" fill="none" stroke-width="1.0" filter="url(#fuzzy)" /><circle r="1.764" cx="-9.422" cy="33.818" stroke="black" fill="none" stroke-width="1.0" filter="url(#fuzzy)" /><circle r="2.45" cx="-11.526" cy="32.778" stroke="black" fill="none" stroke-width="1.0" filter="url(#fuzzy)" /><circle r="2.466" cx="-10.098" cy="33.76199999999999" stroke="black" fill="none" stroke-width="1.0" filter="url(#fuzzy)" /></g>
        </g>
      
    <g id="mouth">
      <polyline points="-42.01,34.46 -41.04,35.75 -40.06,37.04 -39.06,38.32 -38.06,39.6 -37.04,40.86 -36.01,42.12 -34.97,43.37 -33.93,44.61 -32.87,45.85 -31.8,47.07 -30.73,48.28 -29.65,49.48 -28.56,50.66 -27.46,51.83 -26.36,52.99 -25.25,54.14 -24.13,55.27 -23.01,56.38 -21.89,57.48 -20.76,58.56 -19.63,59.63 -18.49,60.67 -17.35,61.7 -16.21,62.71 -15.06,63.69 -13.92,64.66 -12.77,65.6 -11.62,66.53 -10.48,67.43 -9.33,68.31 -8.18,69.16 -7.03,69.99 -5.89,70.79 -4.75,71.57 -3.61,72.32 -2.47,73.04 -1.33,73.74 -0.2,74.41 0.92,75.05 2.04,75.66 3.16,76.24 4.27,76.78 5.38,77.3 6.48,77.79 7.57,78.24 8.65,78.66 9.73,79.04 10.8,79.39 11.86,79.7 12.91,79.98 13.95,80.22 14.98,80.42 16,80.59 17.01,80.72 18.01,80.81 19,80.85 19.97,80.86 20.93,80.83 21.88,80.75 22.82,80.63 23.74,80.47 24.65,80.27 25.54,80.02 26.41,79.73 27.27,79.39 28.12,79 28.95,78.57 29.76,78.09 30.55,77.56 31.32,76.98 32.08,76.35 32.82,75.68 33.53,74.95 34.23,74.17 34.91,73.34 35.57,72.46 36.2,71.52 36.82,70.53 37.41,69.48 37.98,68.38 38.52,67.23 39.05,66.01 39.55,64.74 40.02,63.41 40.47,62.03 40.9,60.58 41.29,59.08 41.67,57.51 42.01,55.89 42.33,54.2 42.62,52.45 42.89,50.63 43.12,48.76 43.33,46.82 43.51,44.81 43.66,42.74 43.77,40.6 43.86,38.4 43.92,36.13 43.92,36.13 43.06,36.78 42.2,37.4 41.34,38.01 40.48,38.6 39.62,39.17 38.76,39.72 37.9,40.25 37.04,40.77 36.18,41.26 35.32,41.74 34.46,42.2 33.6,42.64 32.75,43.07 31.89,43.47 31.03,43.86 30.17,44.24 29.31,44.59 28.45,44.93 27.59,45.26 26.73,45.56 25.87,45.86 25.01,46.13 24.15,46.39 23.29,46.64 22.43,46.86 21.58,47.08 20.72,47.28 19.86,47.46 19,47.63 18.14,47.79 17.28,47.93 16.42,48.06 15.56,48.17 14.7,48.27 13.84,48.36 12.98,48.43 12.12,48.49 11.26,48.54 10.4,48.57 9.55,48.6 8.69,48.61 7.83,48.6 6.97,48.59 6.11,48.56 5.25,48.53 4.39,48.48 3.53,48.42 2.67,48.35 1.81,48.27 0.95,48.17 0.09,48.07 -0.77,47.96 -1.62,47.83 -2.48,47.7 -3.34,47.56 -4.2,47.41 -5.06,47.24 -5.92,47.07 -6.78,46.89 -7.64,46.7 -8.5,46.51 -9.36,46.3 -10.22,46.09 -11.08,45.87 -11.94,45.64 -12.8,45.4 -13.65,45.15 -14.51,44.9 -15.37,44.64 -16.23,44.38 -17.09,44.1 -17.95,43.82 -18.81,43.54 -19.67,43.25 -20.53,42.95 -21.39,42.64 -22.25,42.33 -23.11,42.02 -23.97,41.7 -24.82,41.37 -25.68,41.04 -26.54,40.71 -27.4,40.37 -28.26,40.02 -29.12,39.68 -29.98,39.32 -30.84,38.97 -31.7,38.61 -32.56,38.25 -33.42,37.88 -34.28,37.51 -35.14,37.14 -36,36.77 -36.85,36.39 -37.71,36.01 -38.57,35.63 -39.43,35.24 -40.29,34.86 -41.15,34.47" fill="rgb(102, 122, 204)" stroke="black" stroke-width="3" stroke-linejoin="round" filter="url(#fuzzy)" />
    </g>
  </svg>