<svg xmlns="http://www.w3.org/2000/svg" width="500" height="500" viewBox="-100 -100 200 200"><defs><clipPath id="c"><path d="m39.43-3.66-.33-.57-.38-.58-.42-.58-.47-.59-.5-.59-.56-.59-.59-.59-.63-.58-.67-.57-.71-.56-.74-.55-.78-.54-.81-.52-.85-.5-.87-.49-.88-.76-.94-.72-.98-.68-1.04-.65-1.08-.6-1.12-.55-1.16-.51-1.2-.46-1.23-.41-1.26-.36-1.29-.32-1.31-.27-1.33-.22-1.34-.17-1.36-.12-1.36-.07-1.37-.03-1.36.01-1.37.06-1.36.1-1.35.14-1.34.18-1.32.22-1.3.26-1.29.29-1.25.32-1.24.35-1.2.39-1.18.41-1.14.44-1.11.46-1.08.48-1.03.5-1.01.52-.96.54-.92.55-.89.57-.84.58-.81.58-.77.6-.72.6-.69.61-.66.62-.61.61-.58.62-.55.62-.51.62-.49.62-.45.61-.43.62-.4.61-.37.61-.35.61-.32.61-.29.61-.27.61-.24.61-.22.6-.2.6-.18.6-.16.6-.13.6-.12.59-.1.59 1.28 7.05.36.43.38.42.39.41.4.41.41.4.43.39.43.38.45.37.45.37.47.35.49.33.49.33.51.31.52.3.54.28.55.28.56.26.59.25.6.24.61.21.63.2.66.18.67.16.68.13.71.12.73.08.74.07.76.04.79.01.8-.01.82-.04.84-.06.85-.09.88-.11.89-.14.91-.17.93-.18.95-.21.96-.24.97-.25.99-.27 1.01-.3 1.01-.3 1.03-.33 1.05-.34 1.05-.35 1.06-.36 1.07-.37 1.07-.38 1.09-.38 1.08-.39 1.09-.38 1.09-.39 1.09-.39 1.09-.38 1.09-.37 1.08-.37 1.08-.35 1.07-.35 1.06-.33 1.05-.32 1.03-.31 1.02-.29 1.01-.27.86-.34.84-.33.83-.34.82-.33.8-.34.78-.33.76-.33.73-.34.72-.33.69-.34.66-.34.63-.35.6-.34.58-.36.53-.36"/></clipPath><clipPath id="b"><path d="m-41.18-2.69.36-.38.42-.39.45-.39.5-.39.55-.4.58-.39.63-.38.66-.38.7-.37.74-.36.77-.36.81-.34.84-.33.87-.31.9-.3.92-.5.97-.48 1.03-.44 1.06-.4 1.11-.38 1.15-.34 1.18-.3 1.22-.27 1.24-.24 1.27-.2 1.3-.16 1.31-.12 1.33-.1 1.34-.06 1.36-.02 1.35.01 1.36.04 1.35.07 1.35.1 1.34.12 1.33.16 1.32.18 1.29.2 1.28.23 1.26.25 1.23.27 1.2.29 1.17.3 1.15.32 1.1.34 1.08.34 1.04.37 1 .37.97.38.92.38.89.4.85.4.8.4.77.41.73.41.69.41.65.41.62.42.58.41.54.41.51.41.48.41.44.4.42.4.39.4.37.4.33.39.31.39.28.39.26.39.23.39.21.38.18.38.17.38.14.37.12.37.1.37.08.37.06.36-.81 4.24-.33.2-.34.2-.35.2-.35.19-.37.19-.37.18-.38.18-.39.18-.41.17-.41.16-.42.16-.43.16-.44.14-.45.14-.46.13-.48.13-.48.12-.5.11-.51.11-.53.1-.54.08-.56.08-.57.06-.59.05-.6.04-.62.03-.63.02h-.65l-.67-.02-.68-.03-.7-.04-.72-.06-.74-.07-.76-.08-.77-.1-.8-.11-.81-.12-.83-.14-.85-.15-.87-.16-.88-.17-.91-.18-.92-.19-.94-.2-.96-.2-.98-.21-1-.22-1.01-.22-1.03-.23-1.05-.22-1.06-.23-1.07-.23-1.09-.22-1.1-.23-1.11-.22-1.12-.22-1.13-.21-1.14-.2-1.15-.2-1.15-.19-1.15-.18-1.15-.17-1.15-.16-1.15-.15-.93-.19-.92-.19-.92-.19-.9-.18-.9-.19-.88-.19-.86-.18-.85-.19-.83-.18-.81-.19-.78-.18-.76-.19-.72-.19-.7-.19-.67-.2"/></clipPath><filter id="a"><feTurbulence baseFrequency=".05" numOctaves="3" result="noise" type="noise"/><feDisplacementMap in="SourceGraphic" in2="noise" scale="2"/></filter></defs><rect width="100%" height="100%" x="-100" y="-100" fill="#FFFDD0"/><path fill="gold" stroke="#000" stroke-linejoin="round" stroke-width="1.667" d="m81.27-.2-.08.61.08 1.96-.26-.19-.13 3.06-.01.58-.2 1.59.04-1.01-.15 2.39-.33.97.18.39-.45 2.65-.27 1.12-.14 1.05-.82 2.03.47-.85-.09.5-.66 1.79-.86 2.85-.39.74-.37 1.29.58-1.3-1.03 2.6-.82 1.6-.39 1.39-.69 1.19-.21.72-.5.74-.02-.17-.71 1.72-1.59 3.02-.17.64-.47.51-1.46 2.45.08.13-1.68 1.68-.78 1.04-.26.16.3.22-1.81 1.95.35-.06-1.26 1.12-1.17 1.52-1.57 1.48 1.47-1.29-2.65 2.56.27-.04-2.21 2.1-.29.02-.45.37-1.7 1.71.78-.68-3.24 3 .41-.41.04-.03-2.05 1.3-2.07 1.53-.84.48-1.48 1.22.12-.3-1.92 1.1-.64.73.57-.17-2.28 1.12-.78.61-.26-.08-1.66.84-1.75 1.06-2.01 1.03 1.22-.57-3.23 1.23-.41.31-.64.51-1.18.42-3.03.84-1.07.28-.54.3-.16.14-2.68.81-1.43.55.33-.23-2.56.82-.19.09-.58.19-2.45.48-.96.16-.85.07-1.7.47-1.78.09-.22-.03-1.42.25.93-.07-4.51.38-.34.16-.77.1-1.49.07-1.78.26-1.52-.15-.55-.12-2.7.18-.49-.17-1.15.27-.44-.09-1.17-.13-1.44-.07-1.46.03-.5-.07-2.05-.2-2.24-.56.59-.01-.25.11h-1.44l-2.09-.44-.48.03-3.34-.98-.91.13-1.24-.49-2.24-.68-.57-.02-.63-.24-2.54-.95-.85-.08-.49-.34-2-.53.98.25-3.64-1.35-.71-.16-.97-.65-.57-.2.59.34-3.74-1.83-1.52-.52.45.19-.86-.72.25.39-3.54-2.04-.47-.48-2.06-1.16-.35-.26-.81-.19-.95-1.02-.66-.48-1.11-.79.14.02-3.37-2.33-.4-.23-.54-.59-1.27-.75-.26-.55-.99-.68-.01-.25-2.53-2.23.28.31-.92-1.32-.92-.54-2.04-2.3.1.16-.33-.53-1.98-2.16.62.91-.61-.7-1.05-1.59-1.83-2.45-.61-.63.52-.04-1.31-1.96-1.59-1.65.2.37-.21-.84-.68-1.03-1.63-2.57.38-.03-.15-.41-1.01-1.49-.08-.24-1.18-2.21-.36-1.17.18-.57-.88-1.34-.24-.81-.02-.76-.88-2.34-.19.24-.75-2.28-.23-1.19-.19-1.66.46 1.64-.87-4v2l-.28-2.32-.03-1.13-.59-2.38-.17-2.43.17 1.48-.42-2.01-.19-2.15.07.49-.02-2.87-.1.08.31-1.94-.12-.59.15.72.18-4.21-.24-.22.12.35.43-3.58-.12-.46.38-.79-.1-.75.07-.35.26-1.58.35-2.25.05-.1.26-.72.51-2.4-.06.86.93-2.78.5-1.92-.62 1.09.86-2.26.06.18 1.09-2.55.91-2.71-.2.25.44-.69.83-1.86-.45.85.99-1.46 1.22-2.42-.1-.22.19-.11.78-1.68 1.75-2.63-.49.58 1.1-1.55h-.01l1.29-2.1 1.01-.85.24-.53.17-.38 1.15-1.19.79-1.14 1.26-.96 1.61-1.9-.49.2 2.47-2.06-1.42.95 1.93-1.79.31-.23.43-.66 2.96-2.37-.05.04 1.19-1.3-.75.71 1.43-.77 2.09-1.96.71-.32 1.31-.83-1.02.54 2.6-1.66 1.34-1.22.13.1.41-.18 2.73-1.64 2.08-1.19-1.04.56 1.69-.85 1.78-1.05 1.23-.38.74-.35.19-.39 2.52-.81 1.06-.55 2.78-1.01-.89.27 1.67-.64.59.08 2.19-.97-.19-.12 1.14.09 1.23-.53 2-.32 2.04-.78.38-.15-.72.29 1.64-.47 2.68-.45.39.01.99-.41 1.61-.25 2.6-.44-.04.07 1.73-.1 1.86-.24 1.08.01-.24.01 3.24-.1-.65-.04 3.59-.04 1.92-.19 1.21.1-1.18.16 1.86.11 2.34-.12 1.13.22-.69.03 3.7.18-1.36-.26 3.77.49 1 .09 1.16.32.49-.16 1.3.46 1.52.21 1.5.3.21.17.97.22 1.99.58 1.43.26 1.01.33h.2l2.27.88.34-.1 1.89.47 1.95 1.17 1.73.62-.17-.12.61.09.61.08 1.94 1.05 2.45.98.05.13 1.54 1.05.91.17.24.55 1.84.64 1.59 1.15 1.55.88.38.48-.61-.62 2.49 1.42.83.59 1.6 1.68.63.17 1.45.91.6.66-.02-.11 1.94 1.6 1.11 1.01.33.18.52.66 2.68 2.6-1.04-1.22 2.31 2.3-1.27-1.39 1.86 2.43 2.18 1.93-.09.29.54.56.57.76 1.25 1.79.51.27-.55-.32 2.7 3.87-.5-.82 1.26 1.87.23.03 1.19 1.91-.55-.79.64 1.22.54 1.06 1.07 2.37.19.32.64 1.13.49.85 1.16 2.2.11.05.14 1.03.27.57.79 2.41.26.56.33.48.22 1.51.77 1.62v-.1l.32 2.23.37 1.51.28.57.42 2.51.06.78-.18-.69.36.9.31 2.22.2 2.81-.05 1.54.31.16-.26 1.19.14.03.11.49.15 1.75-.08.61" filter="url(#a)"/><path fill="#fff" d="m-41.18-2.69.36-.38.42-.39.45-.39.5-.39.55-.4.58-.39.63-.38.66-.38.7-.37.74-.36.77-.36.81-.34.84-.33.87-.31.9-.3.92-.5.97-.48 1.03-.44 1.06-.4 1.11-.38 1.15-.34 1.18-.3 1.22-.27 1.24-.24 1.27-.2 1.3-.16 1.31-.12 1.33-.1 1.34-.06 1.36-.02 1.35.01 1.36.04 1.35.07 1.35.1 1.34.12 1.33.16 1.32.18 1.29.2 1.28.23 1.26.25 1.23.27 1.2.29 1.17.3 1.15.32 1.1.34 1.08.34 1.04.37 1 .37.97.38.92.38.89.4.85.4.8.4.77.41.73.41.69.41.65.41.62.42.58.41.54.41.51.41.48.41.44.4.42.4.39.4.37.4.33.39.31.39.28.39.26.39.23.39.21.38.18.38.17.38.14.37.12.37.1.37.08.37.06.36-.81 4.24-.33.2-.34.2-.35.2-.35.19-.37.19-.37.18-.38.18-.39.18-.41.17-.41.16-.42.16-.43.16-.44.14-.45.14-.46.13-.48.13-.48.12-.5.11-.51.11-.53.1-.54.08-.56.08-.57.06-.59.05-.6.04-.62.03-.63.02h-.65l-.67-.02-.68-.03-.7-.04-.72-.06-.74-.07-.76-.08-.77-.1-.8-.11-.81-.12-.83-.14-.85-.15-.87-.16-.88-.17-.91-.18-.92-.19-.94-.2-.96-.2-.98-.21-1-.22-1.01-.22-1.03-.23-1.05-.22-1.06-.23-1.07-.23-1.09-.22-1.1-.23-1.11-.22-1.12-.22-1.13-.21-1.14-.2-1.15-.2-1.15-.19-1.15-.18-1.15-.17-1.15-.16-1.15-.15-.93-.19-.92-.19-.92-.19-.9-.18-.9-.19-.88-.19-.86-.18-.85-.19-.83-.18-.81-.19-.78-.18-.76-.19-.72-.19-.7-.19-.67-.2" filter="url(#a)" transform="translate(36.39 -19.72)"/><path fill="#fff" d="m39.43-3.66-.33-.57-.38-.58-.42-.58-.47-.59-.5-.59-.56-.59-.59-.59-.63-.58-.67-.57-.71-.56-.74-.55-.78-.54-.81-.52-.85-.5-.87-.49-.88-.76-.94-.72-.98-.68-1.04-.65-1.08-.6-1.12-.55-1.16-.51-1.2-.46-1.23-.41-1.26-.36-1.29-.32-1.31-.27-1.33-.22-1.34-.17-1.36-.12-1.36-.07-1.37-.03-1.36.01-1.37.06-1.36.1-1.35.14-1.34.18-1.32.22-1.3.26-1.29.29-1.25.32-1.24.35-1.2.39-1.18.41-1.14.44-1.11.46-1.08.48-1.03.5-1.01.52-.96.54-.92.55-.89.57-.84.58-.81.58-.77.6-.72.6-.69.61-.66.62-.61.61-.58.62-.55.62-.51.62-.49.62-.45.61-.43.62-.4.61-.37.61-.35.61-.32.61-.29.61-.27.61-.24.61-.22.6-.2.6-.18.6-.16.6-.13.6-.12.59-.1.59 1.28 7.05.36.43.38.42.39.41.4.41.41.4.43.39.43.38.45.37.45.37.47.35.49.33.49.33.51.31.52.3.54.28.55.28.56.26.59.25.6.24.61.21.63.2.66.18.67.16.68.13.71.12.73.08.74.07.76.04.79.01.8-.01.82-.04.84-.06.85-.09.88-.11.89-.14.91-.17.93-.18.95-.21.96-.24.97-.25.99-.27 1.01-.3 1.01-.3 1.03-.33 1.05-.34 1.05-.35 1.06-.36 1.07-.37 1.07-.38 1.09-.38 1.08-.39 1.09-.38 1.09-.39 1.09-.39 1.09-.38 1.09-.37 1.08-.37 1.08-.35 1.07-.35 1.06-.33 1.05-.32 1.03-.31 1.02-.29 1.01-.27.86-.34.84-.33.83-.34.82-.33.8-.34.78-.33.76-.33.73-.34.72-.33.69-.34.66-.34.63-.35.6-.34.58-.36.53-.36" filter="url(#a)" transform="translate(-47.53 -19.53)"/><g fill="none" stroke="#000" transform="translate(36.39 -19.72)"><path stroke-linejoin="round" stroke-width="1.667" d="m-42.16.28-.13-.19-.08-.21-.03-.25.02-.27.08-.3.12-.32.18-.34.22-.35.27-.36.33-.38.36-.38.42-.39.45-.39.5-.39.55-.4.58-.39.63-.38.66-.38.7-.37.74-.36.77-.36.81-.34.84-.33.87-.31.9-.3.92-.5.97-.48 1.03-.44 1.06-.4 1.11-.38 1.15-.34 1.18-.3 1.22-.27 1.24-.24 1.27-.2 1.3-.16 1.31-.12 1.33-.1 1.34-.06 1.36-.02 1.35.01 1.36.04 1.35.07 1.35.1 1.34.12 1.33.16 1.32.18 1.29.2 1.28.23 1.26.25 1.23.27 1.2.29 1.17.3 1.15.32 1.1.34 1.08.34 1.04.37 1 .37.97.38.92.38.89.4.85.4.8.4.77.41.73.41.69.41.65.41.62.42.58.41.54.41.51.41.48.41.44.4.42.4.39.4.37.4.33.39.31.39.28.39.26.39.23.39.21.38.18.38.17.38.14.37.12.37.1.37.08.37.06.36.04.36.03.36.01.36-.01.35-.02.35-.04.35-.05.35-.06.34-.07.35-.09.33" filter="url(#a)"/><path stroke-linejoin="round" stroke-width="2.222" d="m-42.49.66.17.28.23.27.29.25.35.24.4.23.46.22.5.22.55.21.59.2.63.2.67.2.7.19.72.19.76.19.78.18.81.19.83.18.85.19.86.18.88.19.9.19.9.18.92.19.92.19.93.19 1.15.15 1.15.16 1.15.17 1.15.18 1.15.19 1.15.2 1.14.2 1.13.21 1.12.22 1.11.22 1.1.23 1.09.22 1.07.23 1.06.23 1.05.22 1.03.23 1.01.22 1 .22.98.21.96.2.94.2.92.19.91.18.88.17.87.16.85.15.83.14.81.12.8.11.77.1.76.08.74.07.72.06.7.04.68.03.67.02h.65l.63-.02.62-.03.6-.04.59-.05.57-.06.56-.08.54-.08.53-.1.51-.11.5-.11.48-.12.48-.13.46-.13.45-.14.44-.14.43-.16.42-.16.41-.16.41-.17.39-.18.38-.18.37-.18.37-.19.35-.19.35-.2.34-.2.33-.2.32-.2.31-.21.31-.2.29-.21.29-.21.28-.2.28-.21.26-.21.26-.21.25-.21" filter="url(#a)"/><circle cx="-7.299" cy="4.905" r="4.418" clip-path="url(#b)" filter="url(#a)"/><circle cx="-5.734" cy="5.185" r="4.086" clip-path="url(#b)" filter="url(#a)"/><circle cx="-8.989" cy="4.05" r="4.218" clip-path="url(#b)" filter="url(#a)"/><circle cx="-8.784" cy=".68" r="4.102" clip-path="url(#b)" filter="url(#a)"/><circle cx="-9.159" cy="2.145" r="3.016" clip-path="url(#b)" filter="url(#a)"/><circle cx="-8.969" cy="4.88" r="3.108" clip-path="url(#b)" filter="url(#a)"/><circle cx="-8.014" cy="1.865" r="4.002" clip-path="url(#b)" filter="url(#a)"/><circle cx="-8.269" cy="2.44" r="4.29" clip-path="url(#b)" filter="url(#a)"/><circle cx="-5.934" cy="1.615" r="4.834" clip-path="url(#b)" filter="url(#a)"/><circle cx="-7.134" cy=".47" r="4.218" clip-path="url(#b)" filter="url(#a)"/></g><g fill="none" stroke="#000" transform="translate(-47.53 -19.53)"><path stroke-linejoin="round" stroke-width="2.222" d="m40.11.69.16-.26.1-.32.05-.36.01-.4-.05-.44-.09-.46-.14-.5-.19-.52-.24-.54-.29-.55-.33-.57-.38-.58-.42-.58-.47-.59-.5-.59-.56-.59-.59-.59-.63-.58-.67-.57-.71-.56-.74-.55-.78-.54-.81-.52-.85-.5-.87-.49-.88-.76-.94-.72-.98-.68-1.04-.65-1.08-.6-1.12-.55-1.16-.51-1.2-.46-1.23-.41-1.26-.36-1.29-.32-1.31-.27-1.33-.22-1.34-.17-1.36-.12-1.36-.07-1.37-.03-1.36.01-1.37.06-1.36.1-1.35.14-1.34.18-1.32.22-1.3.26-1.29.29-1.25.32-1.24.35-1.2.39-1.18.41-1.14.44-1.11.46-1.08.48-1.03.5-1.01.52-.96.54-.92.55-.89.57-.84.58-.81.58-.77.6-.72.6-.69.61-.66.62-.61.61-.58.62-.55.62-.51.62-.49.62-.45.61-.43.62-.4.61-.37.61-.35.61-.32.61-.29.61-.27.61-.24.61-.22.6-.2.6-.18.6-.16.6-.13.6-.12.59-.1.59-.08.58-.06.58-.05.58-.03.58-.02.57v.57l.01.56.02.56.04.56.04.55" filter="url(#a)"/><path stroke-linejoin="round" stroke-width="2.222" d="m41.04-.21-.09.51-.14.49-.19.47-.24.44-.29.43-.34.42-.38.4-.42.39-.47.37-.5.37-.53.36-.58.36-.6.34-.63.35-.66.34-.69.34-.72.33-.73.34-.76.33-.78.33-.8.34-.82.33-.83.34-.84.33-.86.34-1.01.27-1.02.29-1.03.31-1.05.32-1.06.33-1.07.35-1.08.35-1.08.37-1.09.37-1.09.38-1.09.39-1.09.39-1.09.38-1.08.39-1.09.38-1.07.38-1.07.37-1.06.36-1.05.35-1.05.34-1.03.33-1.01.3-1.01.3-.99.27-.97.25-.96.24-.95.21-.93.18-.91.17-.89.14-.88.11-.85.09-.84.06-.82.04-.8.01-.79-.01-.76-.04-.74-.07-.73-.08-.71-.12-.68-.13-.67-.16-.66-.18-.63-.2-.61-.21-.6-.24-.59-.25-.56-.26-.55-.28-.54-.28-.52-.3-.51-.31-.49-.33-.49-.33-.47-.35-.45-.37-.45-.37-.43-.38-.43-.39-.41-.4-.4-.41-.39-.41-.38-.42-.36-.43-.36-.43-.35-.43-.33-.44-.33-.44-.32-.45-.31-.45-.3-.45-.29-.45-.28-.45-.28-.46" filter="url(#a)"/><circle cx="-4.255" cy="-3.801" r="3.606" clip-path="url(#c)" filter="url(#a)"/><circle cx="-4.68" cy="-4.301" r="4.392" clip-path="url(#c)" filter="url(#a)"/><circle cx="-3.175" cy="-3.796" r="4.388" clip-path="url(#c)" filter="url(#a)"/><circle cx="-2.875" cy="-3.511" r="4.15" clip-path="url(#c)" filter="url(#a)"/><circle cx="-3.92" cy="-3.916" r="4.712" clip-path="url(#c)" filter="url(#a)"/><circle cx="-6.41" cy="-8.196" r="4.052" clip-path="url(#c)" filter="url(#a)"/><circle cx="-3.285" cy="-4.161" r="4.276" clip-path="url(#c)" filter="url(#a)"/><circle cx="-4.15" cy="-7.851" r="4.478" clip-path="url(#c)" filter="url(#a)"/><circle cx="-4.19" cy="-3.551" r="4.914" clip-path="url(#c)" filter="url(#a)"/><circle cx="-3.115" cy="-7.721" r="4.232" clip-path="url(#c)" filter="url(#a)"/></g><g fill="none" stroke="#40E0D0" stroke-linejoin="round" stroke-width="2"><path d="m33.42-66.83.25.08.97.46 1.58.83 1.98 1.12 2.15 1.27 2.15 1.31 2.07 1.3 1.99 1.27 1.94 1.24 1.86 1.21 1.7 1.09 1.43.9 1.09.66.8.47" filter="url(#a)"/><path d="m33.42-66.83.2.02.81.3 1.3.58 1.59.77 1.66.84 1.56.84 1.39.76 1.19.65 1 .56.82.44.6.34.32.18-.1-.07-.67-.41-1.36-.79m16.78 12.56 1.44 1.91.49 1.11-.46.5-1.23.13-1.92-.14-2.6-.36-3.3-.58-4.03-.82-4.8-1.09-5.58-1.39-6.4-1.74-7.27-2.11-8.22-2.46-9.3-2.78-10.41-3.08-11.42-3.42m29.12-6.66.64.03.72.21.52.25.18.27-.2.28-.59.31-1.01.33-1.47.34-1.98.35-2.52.37-3.1.38-3.69.41-4.34.45-5.1.5-6.02.55-7.06.59-8 .63" filter="url(#a)"/><path d="m20.61-71.04 1.55.46.92.38.45.38.12.44-.16.51-.44.61-.8.68-1.22.73-1.72.76-2.23.79-2.73.85-3.21.92-3.68 1.02L3.3-61.4l-4.7 1.19-5.3 1.28-5.94 1.37-6.59 1.48-7.2 1.57-7.78 1.62-8.34 1.62-9.02 1.62m5.24-10.66 1.26-.6 2.04-.88 2.21-.78 2.36-.67 2.62-.63 2.89-.63 3.11-.63 3.3-.64 3.47-.64 3.62-.64 3.72-.63 3.76-.6 3.72-.56 3.65-.53 3.59-.5 3.54-.5 3.45-.48 3.29-.46 3.04-.49" filter="url(#a)"/><path d="m20.61-71.04 1.62.44 1.11.32.78.27.57.28.42.29.25.32.01.33-.31.31-.69.27-1.1.22-1.47.18-1.83.17-2.18.17-2.6.17-3.06.16-3.59.13-4.1.07-4.62.02-5.11-.03-5.64-.07-6.19-.15-6.61-.31m80.71 15.09.18.35-.16.57-.8.45-1.63.19-2.46-.02-3.26-.16-4.07-.28-4.96-.46-5.95-.7-7.01-.96-8.14-1.21-9.3-1.44-10.41-1.69-11.46-1.98-12.46-2.26" filter="url(#a)"/><path d="m56.98-52.39.06.36-.47.6-1.34.51-2.39.3-3.46.12-4.51.03-5.59-.03-6.73-.13-7.98-.31-9.27-.53-10.59-.73-11.91-.9-13.24-1.11-14.44-1.44m24.03-17.22 1.5-.09 1.05-.02.59.09.26.19-.02.29-.32.41-.75.54-1.33.71-2 .89-2.69 1.06-3.34 1.26-3.97 1.46-4.63 1.63-5.33 1.81-6.1 2.02-7.09 2.4" filter="url(#a)"/><path d="m-29.38-68.52.88-.18.88-.29.72-.19.65-.11.55-.04.37.05.08.17-.26.31-.6.48-.92.65-1.23.81-1.56.98-1.93 1.16-2.35 1.37-2.85 1.61-3.42 1.93-4.08 2.26-4.7 2.57-5.36 2.87" filter="url(#a)"/><path d="m-3.18-73.29.58-.04 1.45-.04 1.22.02.76.07.43.12.21.16v.19l-.24.24-.5.27-.82.32-1.15.38-1.55.45-2.02.53-2.55.62-3.12.71-3.68.8-4.21.87-4.78.95-5.48 1.09-6.32 1.29" filter="url(#a)"/><path d="m-3.83-73.33 2.72-.05H.45l.8.08.42.15.24.21.06.25-.17.31-.45.36-.75.45-1.08.52-1.46.62-1.89.72-2.38.82-2.9.93-3.43 1.05-3.95 1.17-4.49 1.28-5.03 1.4-5.56 1.49-6.04 1.54-6.55 1.54m96.06 2.03.91.72.25.55-.13.53-.48.56-.9.53-1.36.49-1.87.43-2.41.35-2.97.27-3.55.22-4.13.17-4.73.13-5.34.09-5.99.01-6.67-.09-7.35-.2-8.02-.32-8.71-.42-9.44-.49-10.3-.46-11.31-.35" filter="url(#a)"/><path d="m-25.65-69.44 1.36-.45 1.34-.37.95-.25.58-.12.34.01.21.1.08.18-.11.29-.35.41-.65.54-1 .71-1.41.88-1.84 1.08-2.3 1.26-2.77 1.44-3.24 1.63-3.75 1.85-4.34 2.15-5 2.47-5.56 2.68m86.97-13.91.68.39.4.73-.39.8-1.33.81-2.28.83-3.21.9-4.09.98-5 1.06-5.96 1.15-7.03 1.23-8.2 1.31-9.39 1.43-10.54 1.56-11.58 1.65-12.55 1.59" filter="url(#a)"/><path d="m-34-66.59 1.31-.58 1.17-.47.91-.34.79-.27.72-.22.64-.17.52-.11.41-.03.25.06.04.15-.23.27-.51.4-.82.54-1.1.68-1.39.82-1.69.98-2.04 1.15-2.46 1.33-2.88 1.53-3.28 1.68-3.61 1.78-3.9 1.88" filter="url(#a)"/><path d="m-25.65-69.44 1.35-.45 1.32-.36.91-.24.5-.09.23.04.06.15-.12.25-.36.37-.67.52-1.04.67-1.45.86-1.92 1.07-2.46 1.29-3.04 1.53-3.64 1.75-4.18 1.94-4.64 2.06-5.07 2.19" filter="url(#a)"/><path d="m-26.79-69.53 1.38-.05 1.97-.14 2.32-.09 2.48.04 2.64.18 2.88.29 3.2.38 3.52.45 3.8.5 4.02.55 4.18.59 4.29.65 4.37.7 4.4.76 4.41.8 4.37.82 4.3.81 4.17.75 3.97.61 3.63.44m-83.97-3.12 1.69-.73 1.79-.37 2.11-.22 2.57-.15 3.03-.08 3.4.02 3.68.14 3.89.25 4.1.35 4.31.43 4.53.49 4.75.55 4.97.6 5.17.65 5.3.67 5.39.69 5.4.71 5.4.73 5.41.74 5.5.75 5.64.87" filter="url(#a)"/><path d="m33.42-66.83.05-.04.38.13.58.31.59.41.39.44.08.39-.27.34-.64.28-.98.24-1.34.19-1.74.14-2.16.05-2.62-.02-3.06-.11-3.49-.18-3.95-.23-4.47-.29-5.05-.37-5.7-.48-6.29-.62-6.81-.76-7.32-.82m63.84 5.62 1.41.98 1.08.71.86.55.83.52.87.57.85.58.73.52.52.4.26.23-.04.04-.37-.17-.71-.38-1.06-.6-1.41-.84-1.8-1.1-2.24-1.41-2.85-1.8m-25.75-8.83.69.03.89.18.79.21.51.2.2.18-.1.17-.43.15-.83.12-1.3.08-1.84.05-2.41.02H7.76l-3.68-.01-4.38-.03-5.15-.09-6.07-.2" filter="url(#a)"/><path d="m19.43-71.43.49.2.88.26.94.28.77.26.52.22.25.21v.19l-.29.19-.61.17-1 .12-1.47.05-1.98-.04-2.52-.11-3.04-.15-3.56-.17-4.13-.19-4.75-.24-5.39-.32-6.15-.44m-30.54 8.18 1.8-.85 2.04-.8 2.2-.74 2.41-.72 2.69-.75 2.96-.8 3.14-.81 3.17-.79 3.13-.74 3.06-.71 2.96-.66 2.74-.63 2.29-.58 1.89-.49M48.84-58.9l.57.76-.15.74-1.08.56-2.06.4-3.08.3-4.09.24-5.15.2-6.25.16-7.41.09-8.62.02-9.86-.08-11.17-.18-12.48-.34-13.68-.57" filter="url(#a)"/><path d="m59.47-50.17 1.14 1.21.34.65.1.62-.25.49-.72.22-1.24-.06-1.74-.32-2.24-.55-2.77-.78-3.34-1.02-3.95-1.26-4.59-1.55-5.26-1.88-5.93-2.23-6.62-2.58-7.36-2.93-8.12-3.25-8.78-3.57m-38.6 5.35 1.59-.79 1.47-.57 1.58-.53 1.81-.57 2.06-.6 2.2-.59 2.25-.57 2.24-.53 2.22-.49 2.19-.46 2.18-.44 2.14-.43 2.1-.42 2.06-.41 1.96-.39 1.82-.36 1.64-.34 1.45-.31 1.31-.27 1.15-.25.79-.21-.06-.13" filter="url(#a)"/><path d="m-38.68-64.66 1.02-.37.96-.43 1.14-.51 1.27-.54 1.25-.52 1.12-.44.92-.34.72-.26.54-.16.36-.08h.2l.02.1-.2.19-.44.31-.76.44-1.12.59-1.51.76-1.88.93-2.21 1.1-2.58 1.27-3.04 1.51-3.44 1.69m31.32-12.83 1.87-.21 2.13-.09 2.3.05 2.54.14 2.78.21 2.95.26 3.11.3 3.23.31 3.33.32 3.37.34 3.33.38 3.17.43 2.91.4 2.51.28 2 .07" filter="url(#a)"/><path d="m-3.18-73.29-2.99.13-2.83.21-2.92.31-2.91.4-2.71.47-2.46.52-2.31.57-2.3.63-2.41.68-2.6.74-2.83.8-3.05.86-3.2.94-3.26 1.01-3.19 1.08-3.02 1.15-2.8 1.22-2.57 1.27-2.41 1.3-2.33 1.35-2.33 1.37-2.38 1.42-2.41 1.48-2.4 1.54-2.37 1.6-2.31 1.64-2.31 1.68-2.36 1.68-2.48 1.68-2.61 1.7-2.74 1.73-2.89 1.82-3.07 1.95-3.16 2.11-3.06 2.26-3.7 2.85" filter="url(#a)"/><path d="m-6.42-73.19-1.75.11-2.78.29-3 .39-2.77.44-2.5.48-2.43.52-2.57.55-2.91.59-3.36.64-3.86.72-4.27.81-4.5.89-4.45.99-4.16 1.07-3.71 1.13-3.28 1.18-3.01 1.23-3.04 1.27-3.32 1.31-3.73 1.36-4.02 1.4-4.02 1.42-3.7 1.44-3.19 1.44-2.83 1.46-2.93 1.55-3.55 1.72-4.16 1.91-4 1.91-4.18 1.39" filter="url(#a)"/><path d="m-7.26-73.21-3.12.36-2.76.42-2.66.45-2.7.48-2.9.5-3.21.54-3.46.58-3.53.61-3.42.69-3.23.77-3.11.87-3.11.97-3.17 1.05-3.19 1.12-3.13 1.17-3.08 1.2-3.23 1.23-3.68 1.25-4.41 1.31-5.03 1.41-4.8 1.49-2.8 1.14" filter="url(#a)"/><path d="m-10.85-72.87-4.48.44-2.49.47-2.52.49-2.8.52-2.78.56-2.54.59-2.39.65-2.48.72-2.73.81-3.01.92-3.16 1-3.16 1.08-3.08 1.15-3.02 1.19-3.09 1.24-3.28 1.27-3.57 1.32-3.87 1.37-4.13 1.39-4.34 1.43-4.45 1.45-4.48 1.48-4.38 1.52-4.22 1.61-4.08 1.71-4.11 1.84-4.38 1.91-4.74 1.94-4.73 1.94-4.05 1.92-3.34 1.91" filter="url(#a)"/><path d="m-10.85-72.87-2.62.44-2.83.48-2.99.49-3.08.52-3.27.56-3.73.6-4.32.66-4.73.73-4.81.83-4.58.92-4.21 1.02-3.84 1.08-3.5 1.16-3.24 1.2-3.01 1.25-2.91 1.29-2.93 1.33-3.11 1.37-3.34 1.41-3.54 1.44-3.63 1.47-3.63 1.52-3.64 1.57-3.8 1.65-4.16 1.73-4.65 1.81-5.07 1.87-5.14 1.91-4.75 1.93-4.06 1.92-3.56 1.9-3.83 1.88-5.07 1.85-6.87 1.85-8.15 1.97-7.06 2.28" filter="url(#a)"/><path d="m-10.85-72.87-2.81.44-3.11.48-2.83.49-2.59.52-2.52.55-2.48.6-2.45.65-2.39.73-2.35.82-2.35.91-2.46 1.01-2.64 1.09-2.85 1.14-3.03 1.2-3.14 1.24-3.19 1.29-3.22 1.32-3.26 1.37-3.37 1.4-3.5 1.43-3.66 1.46-3.79 1.5-3.88 1.55-3.88 1.62-3.82 1.73-3.69 1.81-3.54 1.89-3.37 1.93-3.21 1.94-3.03 1.93-2.89 1.93-2.95 2.01-2.83 2.29M80.12-11.38l-6.92 1.15.93 2.26 1.65 2.33-.09 2.09-2.02 1.93L70.69.3l-2.8 1.99-2.03 2.09-1.28 2.18-.93 2.22-.99 2.24-1.41 2.21-2.13 2.18-3.21 2.16-4.58 2.16-6.04 2.17-7.24 2.2-7.74 2.2-7.35 2.15-6.15 2.08-4.51 2-2.93 1.95-1.98 1.95-.7 2.13" filter="url(#a)"/><path d="m-16.01-71.84-6.26.4-6.31.49-3.9.56-2.15.6-1.35.64-1.53.72-2.42.82-3.52.92-4.32 1.03-4.56 1.09-4.34 1.16-3.97 1.2-3.71 1.25-3.7 1.28-3.89 1.33-4.21 1.36-4.53 1.4-4.79 1.44-4.93 1.45-4.89 1.5-4.73 1.54-4.55 1.63-4.54 1.72-4.81 1.82-5.32 1.89-5.8 1.92-6.05 1.93-6.06 1.93-6.08 1.93-6.14 2.01-4.43 2.28" filter="url(#a)"/><path d="m-16.4-71.85-4.08.63-2.43.53-2.44.61-2.56.69-2.62.75-2.69.81-2.86.87-3.1.94-3.37 1.02-3.62 1.09-3.77 1.17-3.87 1.23-3.91 1.28-3.87 1.32-3.73 1.34-3.42 1.37-3 1.41-2.5 1.47-2.11 1.54-1.89 1.6-1.97 1.65-2.33 1.67-2.92 1.68-3.59 1.68-4.18 1.68-4.53 1.73-4.57 1.81-4.39 1.95-4.28 2.1-4.91 2.25-7.21 2.84" filter="url(#a)"/><path d="m-20.72-70.93-2.83.24-2.65.6-1.98.7-2.13.77-2.89.82-3.75.88-4.32.95-4.39 1.04-3.96 1.1-3.3 1.19-2.74 1.24-2.5 1.29-2.76 1.33-3.4 1.36-4.24 1.39-4.97 1.44-5.37 1.49-5.28 1.55-4.78 1.61-4.09 1.64-3.45 1.68-3.02 1.69-2.83 1.72-2.75 1.75-2.63 1.8-2.42 1.86-2.27 1.93-2.37 1.99-2.8 2.04-3.4 2.06-3.8 2.11-3.73 2.17-3.35 2.23-3.07 2.17-3.11 1.85-3.37 1.65" filter="url(#a)"/><path d="m-20.38-71.07-2.83.89-1.58.77-1.8.78-2.27.82-2.35.88-2.04.95-1.52 1.03-.97 1.1-.51 1.19-.2 1.24-.04 1.3v1.33l-.02 1.35-.09 1.38-.17 1.43-.25 1.49-.33 1.55-.4 1.6-.49 1.65-.57 1.67-.63 1.69-.62 1.7-.46 1.73-.19 1.78.12 1.86.34 1.93.41 2 .37 2.03.47 2.03.97 2.04 1.92 2.21 2.97 2.63 3.61 2.69m5.11-49.62-3.41.61-3.8.75-4.83.81-4.65.88-3.75.95-2.93 1.04-2.56 1.11-2.56 1.2-2.72 1.25-2.89 1.31-3.02 1.33-3.16 1.36-3.39 1.39-3.75 1.44-4.22 1.5-4.7 1.55-5.11 1.61-5.35 1.65-5.39 1.68-5.24 1.69-4.96 1.72-4.56 1.76-4.11 1.8-3.76 1.86-3.62 1.93-3.9 1.99-4.6 2.04-5.51 2.07-6.11 2.11-5.78 2.15-4.42 2.19-2.96 2.15-3.21 2.03-6.04 2.03-7.35 2.55m252.44.59.58 2.49 1.49 2.28 2.35 2.31 2.6 2.24 2.31 2.16 1.74 2.13 1.21 2.14.96 2.14 1.11 2.13 1.66 2.13 2.45 2.14 3.1 2.16 3.28 2.2 2.78 2.21 1.72 2.21.52 2.19-.3 2.16-.36 2.12.31 2.09 1.23 2.07 1.77 2.1 1.53 2.12.81 2.12.5 2.03 1.15 1.83 1.14 1.43" filter="url(#a)"/><path d="m-26.79-69.53-2.12.9-2.29.82-2.57.88-3 .96-3.3 1.04-3.38 1.13-3.28 1.2-3.11 1.27-2.96 1.31-2.82 1.34-2.68 1.36-2.58 1.4-2.51 1.44-2.53 1.5-2.59 1.56-2.68 1.61-2.75 1.65-2.78 1.68-2.78 1.71-2.77 1.72-2.74 1.77-2.69 1.81-2.58 1.87-2.39 1.93-2.08 1.99-1.76 2.04-1.52 2.08-1.49 2.11-1.77 2.14-2.25 2.16-2.73 2.15-2.95 2.13-2.82 2.13-2.46 2.21-2.01 2.26-1.63 2.07" filter="url(#a)"/><path d="m-26.79-69.53-2.06.9-2.38.82-2.52.88-2.44.96-2.35 1.03-2.36 1.12-2.43 1.2-2.48 1.27-2.42 1.31-2.3 1.33-2.11 1.36-1.95 1.39-1.85 1.44-1.8 1.49-1.81 1.56-1.85 1.61-1.88 1.65-1.89 1.68-1.89 1.69-1.85 1.72-1.8 1.75-1.77 1.8-1.74 1.87-1.68 1.93-1.59 1.99-1.46 2.03-1.3 2.07-1.2 2.11-1.18 2.15-1.27 2.19-1.36 2.15-1.3 2.03-1.13 2.02-1.32 2.55" filter="url(#a)"/><path d="m-26.6-69.41-2.54.78-3.04.86-3.4 1.01-3.25 1.09-3.03 1.15-2.98 1.18-3.03 1.2-3.03 1.24-2.93 1.28-2.76 1.31-2.55 1.37-2.34 1.4-2.19 1.42-2.13 1.44-2.21 1.46-2.45 1.51-2.78 1.59-3.08 1.72-3.19 1.83-3.11 1.9-3.02 1.93-3.08 1.92-2.88 1.9-2.23 1.89" filter="url(#a)"/><path d="m-28.79-68.44.27.65-1.72.85-2.84.96-2.95 1.04-2.69 1.12-2.42 1.21-2.2 1.27-2.01 1.32-1.82 1.34-1.64 1.36-1.46 1.38-1.29 1.43-1.1 1.5-.88 1.55-.61 1.62-.3 1.65-.01 1.68.21 1.7.29 1.71.2 1.75-.05 1.8-.4 1.86-.69 1.93-.81 1.99-.71 2.04-.41 2.06-.06 2.11.28 2.15.57 2.19.86 2.14.94 2.03.66 2.02.97 2.55m23.23-54.04-2.47.71-3.57 1.04-3.21 1.11-2.71 1.15-2.74 1.18-3.13 1.21-3.53 1.23-3.84 1.27-4.17 1.31-4.68 1.36-5.31 1.4-5.91 1.43-6.18 1.43-5.95 1.44-5.23 1.48-4.18 1.58-3.21 1.71-2.9 1.84-3.75 1.91-5.62 1.92-7.01 1.93-5.44 1.8" filter="url(#a)"/><path d="m-29.38-68.52-1.85.71-2.48 1.04-2.73 1.11-2.81 1.15-2.74 1.18-2.56 1.21-2.36 1.23-2.21 1.27-2.14 1.31-2.1 1.36-2.09 1.4-2.12 1.43-2.15 1.43-2.2 1.44-2.23 1.48-2.29 1.58-2.36 1.71-2.47 1.84-2.5 1.91-2.39 1.92-2.11 1.93-1.78 1.8" filter="url(#a)"/><path d="m-30.16-68.15-3.77 1.36-3.14 1.19-3.42 1.18-3.6 1.2-3.25 1.22-2.62 1.26-2.05 1.29-1.85 1.34-2.03 1.38-2.43 1.42-2.88 1.45-3.17 1.47-3.24 1.51-3.14 1.57-3.03 1.66-3.1 1.73-3.42 1.82-3.95 1.88-4.42 1.9-4.57 1.91-4.23 1.91-3.54 1.89-2.85 1.87-2.6 1.88-2.88 1.9-3.28 1.96-3.4 2.04-3.59 1.98-5.66 1.54" filter="url(#a)"/><path d="m-30.16-68.15-3.32 1.36-2.9 1.21-2.77 1.18-2.6 1.21-2.37 1.24-2.19 1.27-2.12 1.3-2.16 1.36-2.27 1.39-2.43 1.43-2.58 1.46-2.72 1.5-2.81 1.54-2.86 1.61-2.83 1.68-2.76 1.75-2.66 1.83-2.56 1.87-2.43 1.9-2.3 1.91-2.11 1.92-1.87 1.92-1.63 1.92-1.42 1.95-1.33 2-1.38 2.05-1.58 2.12-1.83 2.18-2.02 2.23-2.03 2.24-1.83 2.19-1.5 2.11-1.25 2.01-1.24 1.92-1.31 1.94-1.61 2.48m187.16-9.49-1.31-2.89-.89-2.27-1.15-2.13-1.4-2.1-1.49-2.09-1.57-2.08-1.69-2.05-1.82-2.02-1.9-1.96-1.84-1.9-1.66-1.83-1.48-1.78-1.38-1.75-1.45-1.76-1.68-1.78-1.97-1.79-2.18-1.76-2.25-1.68-2.15-1.57-2-1.45-1.94-1.37-2.08-1.31-2.3-1.36-1.9-1.76" filter="url(#a)"/><path d="m-40.46-63.61-5.28.95-2.91 1.39-2.29 1.42-2.03 1.38-1.97 1.36-2.14 1.36-2.48 1.41-2.85 1.51-3.03 1.58-2.89 1.65-2.44 1.67-1.88 1.7-1.46 1.71-1.35 1.73-1.61 1.76-2.15 1.82-2.83 1.89-3.45 1.94-3.9 2-4.1 2.04-4.06 2.08-3.75 2.11-3.25 2.13-2.58 2.14-1.87 2.15-1.31 2.15-1.09 2.14-1.26 2.15-1.71 2.16-2.05 2.16-1.89 2.13-1.25 2.08-1 2.02-3.14 2.48" filter="url(#a)"/><path d="m-42.15-62.76-2.55.95-4.54 1.21-4.32 1.27-3.39 1.34-2.63 1.4-2.29 1.44-2.3 1.47-2.5 1.47-2.74 1.51-2.94 1.57-3.04 1.67-3.02 1.75-2.89 1.84-2.73 1.88-2.69 1.9-2.9 1.91-3.29 1.9-3.67 1.89-3.76 1.89-3.41 1.91-2.76 1.94-2.08 2.01-1.67 2.1-1.66 2.21-2.06 2.32-3.01 2.33-4.39 2.05-3.63 1.25" filter="url(#a)"/><path d="m-43.19-62.13-2.57 1.52-1.99 1.31-1.93 1.34-2.02 1.41-2.06 1.46-2.02 1.47-1.93 1.48-1.86 1.51-1.85 1.57-1.88 1.67-1.91 1.77-1.89 1.84-1.81 1.89-1.69 1.91-1.55 1.91-1.42 1.9-1.33 1.9-1.26 1.9-1.24 1.92-1.22 1.96-1.22 2.03-1.18 2.12-1.14 2.19-1.1 2.26-1.05 2.26-1.01 2.21-1 2.13-1.02 2.1-.64 1.74m41.52-50.96-3.83 2.03-3.94 1.4-3.2 1.26-2.54 1.32-2.55 1.46-3.14 1.6-4.11 1.67-5.19 1.69-5.95 1.68-6.06 1.66-5.47 1.68-4.42 1.7-3.46 1.76-3.13 1.85-3.66 1.93-4.91 1.99-6.27 2.01-6.98 2.02-6.62 2.06-5.44 2.17-4 2.32-2.12 2.23 1.3 1.4" filter="url(#a)"/><path d="m-50.4-57.53-1.4.78-2.83 1.12-3.75 1.29-4.35 1.48-4.42 1.64-4.12 1.7-4 1.71-4.43 1.69-5.36 1.69-6.41 1.7-7.12 1.74-7.18 1.81-6.49 1.87-5.12 1.95-3.32 2-1.5 2.03-.18 2.07.25 2.1-.44 2.13-2.07 2.14-4.24 2.13-6.32 2.13-7.78 2.12-8.21 2.14-7.6 2.16-6.49 2.17-6.16 2.33-8.94 3.09m128.98-52.3 8.59 2.04-3.7 1.56-4.49 1.43-3.32 1.45-2.21 1.56-1.24 1.7-.27 1.82.58 1.89 1.13 1.92 1.3 1.93 1.13 1.93.77 1.92.37 1.91.03 1.94-.2 1.96-.26 2.02-.17 2.06.07 2.13.44 2.17.88 2.19 1.28 2.19 1.63 2.17 1.91 2.15 2.13 2.13 2.3 2.15 2.34 2.16 2.17 2.17 1.85 2.18 1.55 2.16 1.52 2.17 1.82 2.28 2.38 2.41 2.87 2.48 2.12 2.78M-54.17-54.9l-2.44 1.73-3.86 2-5.05 1.87-5.03 1.75-3.63 1.7-1.95 1.68-.87 1.7-.58 1.76-.83 1.83-1.33 1.91-1.9 1.97-2.58 2.03-3.39 2.06-4.29 2.1-5.1 2.11-5.61 2.14-5.65 2.14-5.26 2.15-4.59 2.15-4.01 2.14-3.76 2.15-3.94 2.16-4.38 2.16-4.68 2.16-4.42 2.18-3.51 2.2-2.25 2.22-1.33 2.23-1.29 2.23-2.23 2.28-3.61 2.41-4.88 2.7-5.72 2.92-4.02 2.49M78.73-18.2l2.48-1.69-1.01-2-.83-2.1.54-2.1 1.9-2.08 2.53-2.07 2.28-2.02 1.58-1.97.79-1.89.09-1.84-.58-1.79-1.24-1.78-1.75-1.77-1.84-1.77-1.35-1.76-.32-1.72.91-1.65 1.86-1.56 2.14-1.48 1.58-1.41.44-1.36-.84-1.34-1.77-1.33L84.13-60l-2.31-1.3-2.39-1.24-2.34-1.14-2.03-1.07" filter="url(#a)"/><path d="m-58.7-50.61-1.86 1.7-2.13 1.56-3.33 1.59-4.58 1.64-4.95 1.68-4.37 1.73-3.42 1.82-2.75 1.91-2.65 1.97-2.99 2.03-3.54 2.06-4.04 2.09-4.4 2.1-4.49 2.13-4.25 2.14-3.69 2.14-2.99 2.13-2.41 2.14-2.24 2.14-2.64 2.14-3.4 2.14-4.1 2.15-4.33 2.16-3.92 2.19-3.08 2.24-2.07 2.26-1.13 2.14-.97 1.75-3.62.99m92.1-54.84-1.41 1.31-1.46 1.58-1.53 1.67-1.61 1.69-1.82 1.75-2.13 1.84-2.37 1.93-2.38 2.01-2.11 2.05-1.67 2.08-1.22 2.11-.94 2.12-.86 2.15-.97 2.15-1.15 2.15-1.36 2.16-1.51 2.15-1.59 2.16-1.62 2.16-1.59 2.17-1.52 2.18-1.39 2.2-1.21 2.21-.97 2.23-.71 2.26-.47 2.29-.28 2.32-.15 2.36-.1 2.35-.04 2.33.1 2.23.35 2.14.56 2.05.54 2.02.19 2.04-.17 2.19.06 2.76" filter="url(#a)"/><path d="m-60.94-48.59-4.4 1.31-3.76 1.58-2.7 1.66-2.47 1.7-1.98 1.74-1.22 1.84-.71 1.93-.67 2-1.03 2.05-1.55 2.08-2.01 2.11-2.27 2.12-2.34 2.14-2.3 2.15-2.25 2.16-2.35 2.15-2.61 2.15-3.05 2.16-3.56 2.16-3.96 2.17-4.14 2.17-3.98 2.2-3.54 2.2-2.94 2.23-2.37 2.26-1.97 2.29-1.75 2.32-1.63 2.36-1.51 2.37-1.35 2.34-1.21 2.24-1.12 2.12-1.08 2.03-.94 1.98-.47 1.9-.96 1.8" filter="url(#a)"/><path d="m-59.52-49.54-2.95 2.06-4.18 2.16-6.45 2.05-7.88 1.95-6.66 1.92-3.69 1.89-1.02 1.89.09 1.88-.24 1.88-1.28 1.92-2.37 1.98-3.26 2.05-3.98 2.12-4.57 2.18-4.99 2.2-5.19 2.2-5.29 2.15-5.53 2.09-6.03 2.07-6.53 2.09-6.5 2.18-5.66 2.27-4.57 2.23-4.72 1.83-6.76 1.49" filter="url(#a)"/><path d="M-64.37-44.82-74.6-42.9l-6.91 1.81-1.92 1.88-2.5 1.89-4.7 1.89-5.51 1.88-4.68 1.89-3.37 1.93-2.66 1.99-2.84 2.07-3.48 2.13-4.04 2.19-4.23 2.2-4.09 2.19-3.87 2.15-3.68 2.12-3.5 2.11-3.18 2.12-2.71 2.15-2.19 2.16-1.8 2.16-1.69 2.14-1.99 2.16-2.81 2.26-4.13 2.4-5.51 2.46-3.71 2.76M78.73-18.1l2.82-2.47-1.09-2.05-1.93-2.02-1.78-2.03-1.43-2.02-1.12-1.99-.93-1.93-.87-1.88-.89-1.86-.95-1.86-1.04-1.86-1.11-1.84-1.17-1.82L66-45.5l-1.3-1.74-1.38-1.7-1.45-1.67-1.5-1.65-1.54-1.61-1.61-1.57-1.69-1.5-1.82-1.44-1.97-1.38-2.12-1.3-2.23-1.23-2.29-1.18-2.26-1.1-2.2-1.03-2.15-.96-2.17-.89-2.29-.83-2.46-.8-2.49-.74-2.36-.64m-96.83 33.38-1.72 1.95-1.38 1.91-1.84 1.88-1.98 1.93-1.7 2.02-1.36 2.11-1.19 2.2-1.25 2.23-1.43 2.23-1.61 2.2-1.64 2.18-1.5 2.15-1.24 2.14-.97 2.16-.76 2.16-.67 2.18-.62 2.2-.54 2.19-.36 2.2-.1 2.2.16 2.2.32 2.18.32 2.17.15 2.17-.12 2.19-.37 2.2-.46 2.22-.35 2.23-.06 2.2.29 2.17.59 2.13.69 2.07.62 2.01.49 1.94.57 1.9.97 2.04 1.25 2.57" filter="url(#a)"/><path d="m-69.62-37.66-9.34 3.08-.41 2.24.64 2.05-.53 2.05-2.11 2.11-3.36 2.16-3.97 2.17-4 2.15-3.69 2.14-3.27 2.15-2.86 2.14-2.45 2.15-2 2.17-1.52 2.17-1.02 2.18-.58 2.21-.23 2.23.1 2.25.4 2.29.65 2.31.74 2.34.54 2.33-.05 2.29-.94 2.22-1.88 2.13-2.52 2.07-2.59 2.05-2.16 2.05-1.63 2.09-1.37 2.06-1.29 1.77-1.13.99" filter="url(#a)"/><path d="m-69.62-37.66-2.78 3.09-2.3 2.24-1.79 2.05-1.92 2.05-2.39 2.12-2.91 2.16-3.43 2.17-3.84 2.16-4 2.15-3.78 2.15-3.23 2.15-2.51 2.15-1.84 2.17-1.34 2.18-1.04 2.19-.89 2.21-.92 2.24-1.16 2.26-1.63 2.29-2.27 2.31-2.99 2.33-3.57 2.32-3.94 2.28-3.99 2.22-3.74 2.14-3.16 2.09-2.2 2.06-.83 2.05.68 2.05 1.67 2.01 1.26 1.94-.93 1.84-3.38 1.76-1.22 1.28M77.96-19.72l-.37-2.16-.54-2.21-.58-2.13-.25-2.1.27-2.08.6-2.04.54-1.97.23-1.9-.08-1.85-.25-1.8-.29-1.79-.37-1.78-.59-1.77-.93-1.74-1.35-1.7-1.73-1.63-2.02-1.56-2.22-1.49-2.35-1.43-2.43-1.39-2.45-1.35-2.42-1.33-2.32-1.3-2.16-1.27-1.96-1.22-1.81-1.19-1.71-1.12-1.75-1.05-1.92-.98-2.23-.92-2.54-.85-2.76-.78-2.79-.7-2.77-.61-2.89-.54-3.08-.49" filter="url(#a)"/><path d="m77.96-19.72-.56-2.16-.56-2.21-.61-2.13-.73-2.1-.77-2.08-.67-2.04-.53-1.97-.46-1.9-.46-1.85-.55-1.8-.65-1.79-.72-1.78-.8-1.77-.85-1.74-.92-1.7-1.03-1.63-1.13-1.56-1.24-1.49-1.29-1.43-1.3-1.39-1.27-1.35-1.28-1.33-1.35-1.3-1.53-1.27-1.81-1.22-2.14-1.19-2.44-1.12-2.65-1.05-2.78-.98-2.85-.92-2.92-.85-2.94-.78-2.88-.7-2.79-.61-2.83-.54-3.4-.49M-73.46-30.6l-2.7 1.23-3.86 1.92-3.69 2.15-2.77 2.23-1.77 2.27-1.31 2.26-1.39 2.2-1.66 2.14-1.83 2.1-1.87 2.1-1.86 2.12-1.89 2.15-1.94 2.16-1.96 2.17-1.9 2.18-1.75 2.19-1.6 2.19-1.49 2.19-1.48 2.15-1.54 2.12-1.6 2.1-1.54 2.12-1.38 2.2-1.3 2.3-1.64 2.32-2.5 2.21-2.26 1.88" filter="url(#a)"/><path d="m-74-29.99-2.08 2.42-3 2.32-1.99 2.3-.77 2.31-.12 2.28.08 2.21.06 2.15-.03 2.12-.19 2.12-.38 2.14-.6 2.16-.82 2.18-1.02 2.19-1.14 2.2-1.15 2.2-1.03 2.19-.79 2.19-.47 2.18-.11 2.16.19 2.17.41 2.18.55 2.2.59 2.21.58 2.22.53 2.19.46 2.16.37 2.12.23 2.06.09 2.01.03 1.96.22 1.97.74 2.06 1.45 2.29 2.18 2.39" filter="url(#a)"/><path d="m-75.98-24.98-1.31 2.13-1.35 2.28-1.65 2.33-2.1 2.21-2.35 2.11-2.36 2.06-2.34 2.07-2.47 2.11-2.73 2.16-3.05 2.17-3.39 2.17-3.82 2.17-4.42 2.18-5.08 2.19-5.54 2.18-5.57 2.15-5 2.13-3.88 2.11-2.35 2.14-.74 2.19.32 2.25.03 2.26-1.87 2.2-4.19 2.12-4.13 2.05-.59 1.96" filter="url(#a)"/><path d="m-77.07-22.43-2.94 1.69-5.43 1.65-3.35 1.91-1.07 2.09-.94 2.15-2.45 2.14-4.32 2.14-5.43 2.14-5.33 2.16-4.05 2.18-2.21 2.21-.7 2.23-.36 2.26-1.54 2.3-3.89 2.34-6.45 2.34-8.03 2.3-7.91 2.19-6.1 2.08-3.4 2.01-.78 1.98 1.21 2 2.23 2.17-1.19 2.73M77.74-21.23l.4-1.51 3.31-1.91 7.91-1.99 9.18-2.02 6.03-1.99 1.03-1.9-2.84-1.85-4.29-1.82-3.72-1.83-2.28-1.85-.98-1.85-.3-1.81-.09-1.76.01-1.71.39-1.67 1.16-1.66 2.01-1.66 2.43-1.64 2.01-1.6.69-1.56-1.08-1.48-2.7-1.34-3.45-1.17-1.77-1.4" filter="url(#a)"/><path d="m77.15-22.27 4-2.39-1.6-2.1-2.07-2.07-1.5-2.01-.99-1.93-.75-1.86-.74-1.84-.86-1.85-1.04-1.86-1.21-1.85-1.32-1.82-1.39-1.77-1.42-1.73-1.44-1.7-1.46-1.67-1.48-1.64-1.54-1.6-1.63-1.56-1.73-1.5-1.86-1.43-1.97-1.36-2.04-1.3-2.08-1.23-2.1-1.16-2.09-1.09-2.11-1.03-2.17-.95-2.29-.89-2.46-.84-2.67-.79-2.81-.74-2.82-.7-2.63-.65-2.4-.55" filter="url(#a)"/><path d="m76.09-25.25 3.43-1.62 3.03-2.04-.37-2.03-2.24-1.93-2.19-1.84-1.14-1.83.04-1.85.83-1.87 1.03-1.86.72-1.82.12-1.77-.52-1.73-1.02-1.69-1.31-1.67-1.41-1.64-1.46-1.6-1.53-1.55-1.71-1.49-1.98-1.43-2.26-1.36-2.43-1.29-2.46-1.22-2.34-1.15-2.25-1.09-2.3-1.01-2.6-.96-3.05-.89-3.45-.83-3.61-.78-3.42-.74-3.06-.69-2.73-.63-2.69-.58-3.07-.5-4.08-.45-6.38-.46" filter="url(#a)"/><path d="m73.55-30.51-.48-2.37-1.03-1.98-1.21-1.83-1.17-1.75-1.06-1.73-.99-1.73-1.01-1.76-1.12-1.77-1.27-1.77-1.43-1.71-1.57-1.63-1.65-1.53-1.69-1.45-1.67-1.4-1.66-1.35-1.68-1.34-1.73-1.31-1.84-1.3-1.96-1.27-2.07-1.24-2.15-1.19-2.2-1.13-2.22-1.05-2.26-.96-2.39-.91-2.73-.96-3.07-.94" filter="url(#a)"/><path d="m73.36-30.83.63-2.42-1.27-1.69-1.6-1.68-1.52-1.83-1.37-1.9-1.21-1.9-1.1-1.83-1.1-1.75-1.17-1.7-1.32-1.68-1.48-1.65-1.62-1.64-1.73-1.6-1.83-1.55-1.9-1.49-1.99-1.42-2.07-1.35-2.14-1.28-2.21-1.22-2.26-1.15-2.28-1.08-2.29-1.02-2.27-.94-2.28-.89-2.3-.83-2.34-.78-2.39-.74-2.42-.69-2.41-.65-2.16-.55" filter="url(#a)"/><path d="m71.11-35.48-.44-1.4-1-1.72-.5-1.73.16-1.71.41-1.76.13-1.79-.45-1.78-1.03-1.72-1.4-1.62-1.52-1.52L64-53.68l-1.4-1.38-1.34-1.36-1.35-1.33-1.4-1.31L57-60.35l-1.69-1.26-1.92-1.22L51.2-64l-2.43-1.1-2.61-1.04-2.7-.97-2.75-.9-2.75-.84-2.69-.78-2.53-.69-2.37-.6-2.5-.53-3.39-.49" filter="url(#a)"/><path d="m70.47-36.6-1.49-2-1.33-1.83-1.27-1.7L65-43.88l-1.54-1.81-1.63-1.81-1.66-1.72-1.66-1.62-1.65-1.52-1.66-1.44-1.72-1.39-1.79-1.35-1.88-1.34-1.97-1.31-2.06-1.28-2.12-1.25-2.18-1.2-2.22-1.15-2.24-1.09-2.27-1.03-2.3-.95-2.3-.89-2.32-.81-2.3-.75-2.28-.67-2.25-.59-2.23-.52-2.22-.46-2.26-.39-2.33-.33-2.44-.28-2.54-.22-2.44-.2-1.6-.21M70.47-36.6l10.25-1.97 1.69-1.8 2.83-1.67 2.06-1.71-.75-1.79-3.1-1.81-3.59-1.73-2.36-1.61-.49-1.5.93-1.42 1.31-1.36.6-1.33-.69-1.32-2.01-1.3-2.81-1.3-2.89-1.26-2.26-1.24-1.29-1.21-.52-1.15-.37-1.05-.6-.81-.79-.51" filter="url(#a)"/><path d="m69.48-37.68-1.74-2.87-1.18-2.15-.92-1.81-.98-1.67-1.24-1.63-1.5-1.65-1.69-1.65-1.85-1.64-1.98-1.6-2.08-1.54-2.13-1.48-2.11-1.4-2.05-1.33-1.99-1.26-1.94-1.2-1.93-1.13-1.94-1.07-1.98-.99-2.04-.94-2.15-.87-2.28-.82-2.42-.77-2.54-.72-2.6-.67-2.6-.61-2.62-.56-2.68-.48-2.81-.4-2.86-.32-2.52-.22-1.36-.18" filter="url(#a)"/><path d="m66.82-41.5-1.52-2.14-1.62-2.08-1.73-1.99-1.66-1.79-1.5-1.59-1.26-1.46-.91-1.4-.52-1.36-.18-1.34v-1.32l-.05-1.31-.34-1.28-.81-1.24-1.39-1.2-2-1.15-2.55-1.08-2.95-1.02-3.15-.95-3.14-.87-2.96-.81-2.71-.74-2.47-.66-2.36-.59-2.37-.52-2.51-.45-2.76-.38-3.07-.33-3.43-.28-3.77-.22-3.78-.2-2.42-.21" filter="url(#a)"/><path d="m65-44.05-1.28-1.73-1.75-2.08-1.73-1.8-1.66-1.56-1.59-1.44-1.51-1.38-1.47-1.36-1.5-1.34-1.59-1.32-1.73-1.31-1.91-1.28-2.07-1.24L43-63.08l-2.34-1.14-2.41-1.08-2.46-1-2.46-.94-2.43-.87-2.39-.79-2.33-.72-2.29-.65-2.25-.58-2.26-.51-2.28-.44-2.34-.38-2.43-.32-2.52-.26-2.6-.21-2.67-.16-2.74-.09-2.82-.03-2.95.03-3.02.08-2.92.11-2.44.09" filter="url(#a)"/><path d="m62.37-46.83.11-1.17-.64-1.57-1.22-1.72-1.25-1.69-1.18-1.61-1.14-1.54-1.11-1.46-1.1-1.38-1.16-1.31-1.33-1.24-1.63-1.17-1.98-1.12-2.34-1.05-2.58-.98-2.71-.92-2.7-.86-2.63-.81-2.55-.76-2.48-.71-2.48-.67-2.58-.61-2.77-.55-3.05-.47-3.34-.4-3.44-.31-2.99-.22-1.49-.18" filter="url(#a)"/><path d="m60.51-49.26 1.47-1.01 5.45-1.2 3.66-1.3.37-1.33-1.73-1.34-2.7-1.33-3.21-1.31-3.47-1.31-3.37-1.27-2.89-1.25-2.17-1.19-1.51-1.14-1.19-1.08-1.34-1.01-1.85-.93-2.5-.87-3.03-.8-3.26-.73-3.16-.65-2.89-.59-2.61-.51-2.54-.44-2.77-.38-3.25-.33-3.8-.27-4.14-.23-3.91-.19-2.42-.21" filter="url(#a)"/><path d="m59.47-50.17-1.05-1.28-1.56-1.36-1.66-1.37-1.64-1.36-1.63-1.34-1.72-1.32-1.84-1.31-1.93-1.29-1.95-1.24-1.92-1.19-1.9-1.13-1.94-1.06-2.02-1-2.14-.92-2.27-.85-2.38-.78-2.45-.71-2.49-.63-2.5-.56-2.5-.5-2.49-.43-2.5-.37-2.55-.3-2.61-.25-2.71-.2-2.8-.13-2.92-.08-3.01-.01-3.11.05-3.2.13-3.27.2-3.32.28-3.31.36-3.22.44-3 .48-2.85.5-3.85.73" filter="url(#a)"/><path d="m51.27-56.63-.9-1.75-1.59-1.38-1.51-1.28-1.61-1.25L44-63.48l-1.4-1.12-.92-1.05-.53-.98-.52-.9-.94-.83-1.63-.76-2.35-.69-2.92-.61-3.25-.55-3.41-.47-3.47-.42-3.51-.35-3.57-.29-3.65-.24-3.73-.18-3.83-.12-3.99-.06h-4.17l-4.42.08-4.7.14-4.95.21-5.17.29-5.26.37-5.18.43-4.95.48-4.65.55-4.59.6-5.03.67-6.08.72-7.34.68" filter="url(#a)"/><path d="m51.27-56.63.37-1.75-.45-1.37-1.86-1.28-1.88-1.24-1.7-1.19-1.9-1.13-2.35-1.05-2.74-.97-2.92-.9-2.9-.84-2.74-.76-2.53-.69-2.34-.62-2.18-.55-2.13-.48-2.15-.41-2.3-.36-2.52-.3-2.81-.24-3.11-.18-3.41-.13-3.71-.07-3.97-.01-4.22.06-4.45.12-4.66.21-4.9.28-5.2.37-5.51.43-5.66.48-5.51.5-6.66.73" filter="url(#a)"/><path d="m46.35-60.32.07-.54.16-1.11-.63-1.19-1.66-1.12-2.37-1.03-2.68-.94-2.68-.87-2.54-.82-2.33-.77-2.15-.72-2.04-.68-2.03-.61-2.15-.55-2.38-.48-2.68-.41-2.99-.34-3.29-.26-3.53-.2-3.71-.12-3.87-.07h-3.98l-4.08.07-4.15.13-4.22.2-4.33.27-4.45.34-4.65.4-4.9.46-5.2.5-5.46.54-5.43.55-4.87.54-3.89.52-2.99.48" filter="url(#a)"/><path d="m46.35-60.32.8-.54 4-1.11 4.36-1.19 1.68-1.12-1.43-1.03-3.5-.94-4.48-.87-4.76-.82-4.67-.77-4.4-.72-4.01-.68-3.59-.61-3.2-.55-2.9-.48-2.76-.41-2.77-.34-2.92-.26-3.21-.2-3.56-.12-3.94-.07h-4.32l-4.67.07-4.94.13-5.11.2-5.12.27-5 .34-4.75.4-4.46.46-4.29.5-4.37.54-4.79.55-5.47.54-6.21.52-6.51.48" filter="url(#a)"/><path d="m41.6-62.85-1.12-.88-1.8-1.09-2-1.04-1.84-.94-1.78-.87-1.95-.81-2.22-.75-2.43-.68-2.49-.61-2.45-.53-2.38-.47-2.32-.41-2.32-.35-2.37-.3-2.47-.24-2.58-.19-2.7-.15-2.88-.08-3.09-.02-3.35.04-3.53.08-3.45.12-2.88.08" filter="url(#a)"/><path d="m33.42-66.83-3.32-1.29-2.75-.85-2.44-.72-2.35-.66-2.37-.6-2.42-.53-2.47-.46-2.47-.39-2.45-.31-2.4-.23-2.36-.17-2.35-.11-2.36-.04-2.37.01-2.37.08-2.36.15-2.32.21-2.25.29-2.17.34-2.07.41-2 .46-1.93.5-1.89.54-1.88.55-1.82.57-1.73.61-1.68.74-2.14 1.14" filter="url(#a)"/><path d="m31.69-67.45-2.45-1.26-.84-.84-1.27-.65-2.13-.55-2.57-.49-2.62-.43-2.53-.37-2.45-.33-2.49-.26-2.62-.22-2.83-.16-3.06-.1-3.3-.05-3.53.02-3.77.08-4.05.15-4.41.23-4.86.3-5.34.38-5.72.43-5.89.49-5.83.54-5.76.6-6.08.67-6.84.72-6.37.67" filter="url(#a)"/><path d="m29.74-68.62-.52-.5-2.3-.63-2.6-.63-2.58-.6-2.52-.53-2.47-.46-2.47-.39-2.47-.31-2.52-.23-2.62-.17-2.75-.11L1-73.24l-3.09.01-3.22.07-3.33.13-3.42.2-3.58.27-3.77.34-3.96.41-4 .45-3.92.51-4.06.63-5.01.78" filter="url(#a)"/><path d="m25.24-69.87-.71-.45-1.44-.52-2.22-.48-2.39-.42-2.29-.36-2.23-.31-2.32-.26-2.53-.21-2.75-.16-2.96-.09-3.15-.04-3.37.02-3.59.1-3.84.16-4.08.23-4.34.31-4.62.38-4.92.44-5.2.49-5.36.55-5.34.6-5.19.66-5 .7-4.73.7-3.81.69" filter="url(#a)"/><path d="m22.6-70.46-2.36-.67-2.28-.54-2.39-.45-2.47-.36-2.45-.28-2.41-.21-2.45-.14-2.57-.09-2.78-.02-3.02.04-3.27.1-3.51.17-3.74.23-3.92.31-4.06.36-4.11.42-4.12.47-4.1.51-4.09.56-4.14.59-4.27.65-4.49.73-4.78.82-5.13.94-5.52 1.04-5.89 1.12-6 1.17-5.84 1.23-6.89 1.45" filter="url(#a)"/><path d="m22.6-70.46-1.84-.67-2.36-.55-2.59-.45-2.67-.35-2.66-.28-2.57-.21-2.52-.14-2.51-.08-2.55-.02-2.59.05-2.63.11-2.63.18-2.61.24-2.58.31-2.53.38-2.48.42-2.43.48-2.39.53-2.39.57-2.43.62-2.5.69-2.6.77-2.7.86-2.75.94-2.75 1.04-2.69 1.1-2.58 1.17-2.48 1.21-2.42 1.24-2.44 1.27-2.52 1.33-2.69 1.42-2.81 1.51-2.19 1.17" filter="url(#a)"/><path d="m20.61-71.04-1.65-.4-2.03-.39-2.16-.35-2.26-.3-2.38-.25-2.49-.19-2.61-.14-2.74-.07-2.89-.01-3.03.05-3.15.13-3.23.2-3.27.27-3.26.34-3.2.41-3.14.48-3.07.53-3.02.6-3.04.65-3.08.71-3.19.76-3.3.84-3.42.9-3.56.97-3.67 1.05-3.79 1.12-3.86 1.19-3.88 1.26-3.79 1.31-3.59 1.32-3.36 1.32-3.19 1.33-3.2 1.38-3.39 1.53-3.78 1.74-4.36 1.82-4.6 1.45" filter="url(#a)"/><path d="m15.11-72.4-2.34-.24-2.71-.24-2.48-.18-2.33-.12-2.37-.08-2.48-.02-2.58.04-2.63.1-2.63.17-2.61.24-2.58.3-2.53.37-2.5.43-2.47.47-2.44.5-2.42.54-2.39.57-2.38.61-2.44.68-2.63.79-2.96.93-3.25 1.01-2.99.87" filter="url(#a)"/><path d="m13.46-72.56-1.72-.36-2.26-.18-2.7-.11-2.99-.06-3.11-.01-3.11.05-3.08.12-3.09.19-3.21.26-3.44.33-3.71.39-3.97.44-4.17.49-4.28.53-4.34.58-4.33.64-4.26.7-4.08.78-3.86.87-3.66.95-3.65 1.04-3.89 1.11-4.36 1.17-4.82 1.21-5.08 1.25-5.02 1.3-4.83 1.34-4.82 1.42-5.23 1.49-5.85 1.53-6.21 1.48-4.92 1.24" filter="url(#a)"/><path d="m12.46-72.65-2.54-.21-2.62-.17-2.53-.13-2.53-.07-2.64-.01-2.8.07-2.91.13-2.98.21-2.98.29-2.97.35-2.94.42-2.92.49-2.91.54-2.93.6-2.96.65-2.97.71-2.97.77-2.94.83-2.91.9-2.87.97-2.86 1.04-2.89 1.12-2.96 1.2-3.08 1.27-3.16 1.31-3.16 1.32-3.06 1.3-2.93 1.29-2.99 1.33-3.4 1.52-4.06 1.89-3.89 2.13" filter="url(#a)"/><path d="m12.46-72.65-2.48-.21-2.58-.17-2.51-.13-2.48-.08-2.55-.01-2.63.05-2.7.12-2.75.19-2.79.26-2.82.33-2.85.41-2.89.46-2.93.51-2.99.56-3.05.62-3.05.67-2.98.72-2.87.78-2.86.85-3.04.92-3.39 1.01-3.67 1.18" filter="url(#a)"/><path d="m8.69-73.14-1.84-.01-1.96-.09-2.29-.06H.04l-2.71.05-2.81.13-2.93.2-3.12.27-3.35.34-3.59.4-3.76.45-3.81.5-3.75.54-3.6.59-3.38.66-3.15.72-2.96.8-2.87.88-2.94.97-3.19 1.05-3.6 1.12-4.15 1.18-4.69 1.22-5.12 1.27-5.34 1.31-5.27 1.36-4.96 1.4-4.56 1.43-4.27 1.44-4.34 1.45-4.85 1.47-5.58 1.56-6 1.72-5.69 1.91-5.24 1.93-6.71 1.4" filter="url(#a)"/><path d="m7.04-73.09-2.5-.12-2.27-.08-2.51-.01-2.72.07-2.78.13-2.76.2-2.71.27-2.66.35-2.63.42-2.62.47-2.65.53-2.69.57-2.75.63-2.85.68-2.95.73-3.03.8-3.06.85-2.99.91-2.82.97-2.78 1.04-3.24 1.24-4.58 1.95" filter="url(#a)"/><path d="m3.57-73.19-1.49-.14-2.39.01-2.67.08-2.71.15-2.7.22-2.66.3-2.62.37-2.55.45-2.48.5-2.43.56-2.38.61-2.35.66-2.32.73-2.32.79-2.32.85-2.33.92-2.32.99-2.32 1.06-2.3 1.14-2.28 1.21-2.24 1.25-2.19 1.3-2.15 1.33-2.1 1.35-2.04 1.39-2 1.45-1.94 1.53-1.9 1.61-1.84 1.68-1.76 1.7-1.7 1.69-1.67 1.67-1.61 1.61-1.4 1.44" filter="url(#a)"/><path d="m3.57-73.19-1.46-.14H-.24l-2.65.08-2.71.14-2.69.22-2.65.28-2.6.37-2.54.43-2.48.49-2.42.54-2.37.6-2.34.64-2.3.71-2.28.76-2.26.82-2.24.88-2.23.96-2.24 1.02-2.28 1.11-2.3 1.2-2.32 1.28-2.28 1.35-2.15 1.37-1.96 1.33-1.76 1.18-1.37.67" filter="url(#a)"/></g><g fill="none" stroke="#000"><circle cx="7.524" cy=".448" r="2.21" filter="url(#a)"/><circle cx="9.904" cy="-.364" r="2.022" filter="url(#a)"/><circle cx="7.372" cy=".296" r="1.056" filter="url(#a)"/><circle cx="9.152" cy=".468" r="2.434" filter="url(#a)"/><circle cx="9.116" cy="-1.304" r="1.478" filter="url(#a)"/><circle cx="7.692" cy="1.872" r="2.75" filter="url(#a)"/><circle cx="9.94" cy="2.212" r="2.952" filter="url(#a)"/><circle cx="10.052" cy=".412" r="1.074" filter="url(#a)"/><circle cx="8.472" cy=".384" r="1.052" filter="url(#a)"/><circle cx="8.304" cy=".796" r="1.926" filter="url(#a)"/><circle cx="-10.074" cy="1.186" r="1.55" filter="url(#a)"/><circle cx="-9.27" cy="1.15" r="2.852" filter="url(#a)"/><circle cx="-10.578" cy=".522" r="2.666" filter="url(#a)"/><circle cx="-7.334" cy=".594" r="1.382" filter="url(#a)"/><circle cx="-9.766" cy=".29" r="2.464" filter="url(#a)"/><circle cx="-9.054" cy=".434" r="2.074" filter="url(#a)"/><circle cx="-8.146" cy=".754" r="2.544" filter="url(#a)"/><circle cx="-8.238" cy="2.47" r="1.11" filter="url(#a)"/><circle cx="-9.926" cy="-.086" r="2.346" filter="url(#a)"/><circle cx="-10.906" cy="1.374" r="1.12" filter="url(#a)"/></g><path fill="#D77F8C" stroke="#000" stroke-linejoin="round" stroke-width="3" d="m-43.71 40.5.47.72.49.69.53.68.55.66.59.64.6.62.64.61.66.58.68.57.71.54.73.53.76.51.78.49.79.48.82.45.84.44.86.42.88.4.89.38.92.37.93.35.94.33.96.31.98.29.99.28 1 .26 1.02.25 1.02.22 1.04.21 1.05.19 1.06.18 1.07.16 1.07.14 1.09.12 1.09.11 1.1.09 1.1.08 1.11.06 1.12.04 1.11.02 1.12.01h1.13l1.12-.02 1.13-.04 1.13-.05 1.12-.07 1.13-.09 1.12-.1 1.12-.12 1.12-.13 1.12-.14 1.11-.17 1.1-.17 1.1-.2 1.1-.2 1.09-.23 1.07-.23 1.08-.26 1.06-.26 1.05-.29 1.04-.29 1.03-.31 1.02-.33 1.01-.34.99-.35.98-.37.97-.38.95-.4.93-.41.92-.42.9-.44.88-.45.87-.47.84-.48.83-.49.8-.51.79-.52.76-.53.74-.54.71-.56.69-.57.67-.59.64-.6.62-.61.59-.62.56-.64.54-.64.5-.66.48-.68.44-.68.42-.7.38-.71.36-.72.32-.74.28-.74.26-.76.21-.77.18-.78.15-.8.11-.8-.11.8-.15.8-.18.78-.21.77-.26.76-.28.74-.32.74-.36.72-.38.71-.42.7-.44.68-.48.68-.5.66-.54.64-.56.64-.59.62-.62.61-.64.6-.67.59-.69.57-.71.56-.74.54-.76.53-.79.52-.8.51-.83.49-.84.48-.87.47-.88.45-.9.44-.92.42-.93.41-.95.4-.97.38-.98.37-.99.35-1.01.34-1.02.33-1.03.31-1.04.29-1.05.29-1.06.26-1.08.26-1.07.23-1.09.23-1.1.2-1.1.2-1.1.17-1.11.17-1.12.14-1.12.13-1.12.12-1.12.1-1.13.09-1.12.07-1.13.05-1.13.04-1.12.02h-1.13l-1.12-.01-1.11-.02-1.12-.04-1.11-.06-1.1-.08-1.1-.09-1.09-.11-1.09-.12-1.07-.14-1.07-.16-1.06-.18-1.05-.19-1.04-.21-1.02-.22-1.02-.25-1-.26-.99-.28-.98-.29-.96-.31-.94-.33-.93-.35-.92-.37-.89-.38-.88-.4-.86-.42-.84-.44-.82-.45-.79-.48-.78-.49-.76-.51-.73-.53-.71-.54-.68-.57-.66-.58-.64-.61-.6-.62-.59-.64-.55-.66-.53-.68-.49-.69" filter="url(#a)"/></svg>