<svg viewBox="-100 -100 200 200" xmlns="http://www.w3.org/2000/svg" width="500" height="500" id="face-svg">
    <defs>
      <clipPath id="leftEyeClipPath">
        <polyline points="28.77,-1.1 28.74,-1.18 28.68,-1.26 28.57,-1.34 28.42,-1.42 28.24,-1.49 28.01,-1.57 27.75,-1.64 27.45,-1.71 27.12,-1.78 26.76,-1.85 26.36,-1.91 25.92,-1.97 25.46,-2.02 24.97,-2.08 24.45,-2.13 23.92,-2.22 23.35,-2.3 22.74,-2.38 22.1,-2.45 21.41,-2.51 20.69,-2.56 19.93,-2.61 19.14,-2.64 18.32,-2.67 17.47,-2.69 16.59,-2.7 15.69,-2.71 14.77,-2.71 13.83,-2.7 12.87,-2.68 11.89,-2.66 10.9,-2.63 9.9,-2.59 8.88,-2.55 7.87,-2.51 6.84,-2.46 5.81,-2.41 4.79,-2.35 3.76,-2.29 2.73,-2.23 1.71,-2.16 0.7,-2.09 -0.31,-2.02 -1.31,-1.95 -2.29,-1.88 -3.27,-1.8 -4.23,-1.73 -5.17,-1.66 -6.1,-1.58 -7.01,-1.51 -7.91,-1.43 -8.79,-1.36 -9.65,-1.29 -10.48,-1.22 -11.3,-1.15 -12.1,-1.08 -12.88,-1.02 -13.63,-0.95 -14.37,-0.89 -15.08,-0.83 -15.77,-0.77 -16.45,-0.72 -17.1,-0.66 -17.73,-0.61 -18.35,-0.55 -18.95,-0.5 -19.53,-0.46 -20.09,-0.41 -20.64,-0.36 -21.17,-0.32 -21.68,-0.28 -22.18,-0.24 -22.66,-0.2 -23.12,-0.16 -23.58,-0.12 -24.01,-0.09 -24.43,-0.06 -24.84,-0.02 -25.23,0.01 -25.85,1.42 -25.51,1.46 -25.15,1.51 -24.79,1.56 -24.41,1.6 -24.03,1.65 -23.63,1.69 -23.22,1.74 -22.8,1.78 -22.36,1.83 -21.92,1.87 -21.46,1.91 -20.99,1.95 -20.51,1.99 -20.01,2.03 -19.5,2.06 -18.98,2.1 -18.44,2.14 -17.89,2.17 -17.32,2.2 -16.74,2.23 -16.14,2.26 -15.53,2.28 -14.89,2.31 -14.25,2.33 -13.58,2.34 -12.91,2.36 -12.21,2.37 -11.5,2.38 -10.77,2.38 -10.03,2.38 -9.28,2.38 -8.51,2.37 -7.72,2.36 -6.92,2.35 -6.11,2.33 -5.28,2.31 -4.44,2.29 -3.59,2.26 -2.73,2.23 -1.86,2.19 -0.98,2.15 -0.09,2.11 0.81,2.07 1.71,2.02 2.62,1.97 3.54,1.91 4.46,1.86 5.38,1.8 6.3,1.74 7.23,1.68 8.15,1.61 9.08,1.55 10,1.48 10.92,1.42 11.83,1.35 12.73,1.28 13.63,1.21 14.52,1.14 15.39,1.07 16.26,1.01 17.11,0.94 17.94,0.87 18.76,0.81 19.56,0.74 20.25,0.67 20.93,0.6 21.59,0.52 22.24,0.45 22.87,0.37 23.48,0.29 24.06,0.21 24.63,0.13 25.17,0.04 25.69,-0.04 26.19,-0.13 26.66,-0.22 27.09,-0.31 27.5,-0.41 27.88,-0.51" />
      </clipPath>
      <clipPath id="rightEyeClipPath">
        <polyline points="-29.3,-0.79 -29.25,-0.87 -29.17,-0.95 -29.04,-1.03 -28.88,-1.11 -28.67,-1.18 -28.44,-1.26 -28.16,-1.33 -27.85,-1.4 -27.51,-1.47 -27.13,-1.54 -26.72,-1.6 -26.28,-1.66 -25.81,-1.72 -25.31,-1.77 -24.79,-1.82 -24.25,-1.91 -23.67,-2 -23.06,-2.08 -22.4,-2.15 -21.71,-2.21 -20.99,-2.27 -20.23,-2.31 -19.44,-2.35 -18.62,-2.38 -17.78,-2.4 -16.9,-2.42 -16.01,-2.42 -15.09,-2.42 -14.16,-2.42 -13.2,-2.4 -12.24,-2.38 -11.25,-2.36 -10.26,-2.33 -9.26,-2.29 -8.25,-2.25 -7.24,-2.2 -6.22,-2.15 -5.2,-2.09 -4.19,-2.04 -3.17,-1.98 -2.16,-1.91 -1.16,-1.85 -0.16,-1.78 0.83,-1.71 1.81,-1.64 2.77,-1.57 3.73,-1.49 4.67,-1.42 5.59,-1.35 6.5,-1.27 7.39,-1.2 8.26,-1.13 9.11,-1.06 9.95,-0.99 10.76,-0.92 11.56,-0.85 12.33,-0.79 13.09,-0.73 13.82,-0.66 14.53,-0.6 15.23,-0.54 15.9,-0.49 16.55,-0.43 17.19,-0.38 17.8,-0.32 18.4,-0.27 18.98,-0.22 19.55,-0.18 20.1,-0.13 20.63,-0.09 21.15,-0.04 21.65,0 22.13,0.04 22.6,0.07 23.05,0.11 23.49,0.15 23.91,0.18 24.32,0.21 24.72,0.24 24.33,1.35 23.96,1.39 23.58,1.42 23.19,1.45 22.79,1.48 22.38,1.51 21.96,1.55 21.53,1.58 21.1,1.61 20.66,1.64 20.21,1.67 19.75,1.7 19.28,1.73 18.81,1.75 18.33,1.78 17.84,1.81 17.33,1.83 16.82,1.86 16.3,1.88 15.77,1.91 15.23,1.93 14.67,1.95 14.11,1.97 13.54,1.99 12.96,2 12.37,2.02 11.77,2.03 11.17,2.04 10.55,2.05 9.92,2.05 9.29,2.06 8.65,2.06 7.99,2.06 7.33,2.05 6.66,2.05 5.98,2.04 5.29,2.02 4.59,2.01 3.89,1.99 3.17,1.98 2.44,1.95 1.71,1.93 0.96,1.91 0.21,1.88 -0.56,1.85 -1.33,1.81 -2.11,1.78 -2.91,1.74 -3.71,1.71 -4.52,1.67 -5.35,1.63 -6.18,1.58 -7.02,1.54 -7.87,1.5 -8.72,1.45 -9.59,1.4 -10.46,1.36 -11.34,1.31 -12.22,1.26 -13.11,1.21 -14.01,1.16 -14.9,1.12 -15.8,1.07 -16.7,1.02 -17.6,0.97 -18.31,0.92 -19.02,0.87 -19.72,0.81 -20.42,0.76 -21.1,0.7 -21.77,0.65 -22.43,0.59 -23.08,0.53 -23.71,0.47 -24.32,0.41 -24.91,0.34 -25.48,0.28 -26.03,0.21 -26.55,0.14 -27.05,0.06" />
      </clipPath>
      <filter id="fuzzy">
        <feTurbulence id="turbulence" baseFrequency="0.05" numOctaves="3" type="noise" result="noise" />
        <feDisplacementMap in="SourceGraphic" in2="noise" scale="2" />
      </filter>
      <linearGradient id="rainbowGradient" x1="0%" y1="0%" x2="100%" y2="0%">
        <stop offset="0%" style="stop-color: rgb(236, 224, 199); stop-opacity: 1" />
        <stop offset="50%" style="stop-color: rgb(133, 109, 136); stop-opacity: 1" />
        <stop offset="100%" style="stop-color: rgb(162, 26, 100); stop-opacity: 1" />
      </linearGradient>
    </defs>
    <rect x="-100" y="-100" width="100%" height="100%" fill="rgb(220, 242, 166)" />
    <polyline id="faceContour" points="70.19,0.02 70.16,0.26 70.1,2.6 69.96,3.3 69.86,4.68 69.59,8.19 69.75,7.89 69.67,9.01 69.43,10.4 69.49,11.16 68.96,14.91 69.01,14.6 69.02,14.25 68.78,16.24 68.74,16.03 68.13,19.79 67.84,20.54 67.58,22.41 67.09,24.79 66.94,25.3 66.61,26.05 65.84,28.96 65.61,29.87 65.07,31.63 64.91,32.08 64.71,32.34 64.72,32.15 63.95,34.69 63.71,35.07 63.21,37.16 62.98,36.6 61.91,40.2 61.19,41.66 61.17,41.12 60.28,43.35 59.76,44.37 58.93,45.73 58.97,45.32 57.85,47.93 56.72,49.55 56.52,49.76 56.48,49.6 54.38,53.12 54.46,53.5 52.7,55.31 54.04,53.79 51.77,57.37 52.11,56.8 49.94,59.3 49.92,59.06 48.79,60.04 48.59,60.58 47.52,61.85 48.21,61.14 47.04,62.52 46.45,63.05 44.71,64.99 43.28,66.34 42.5,67.39 43.26,66.52 40.72,68.46 39.6,69.75 39.65,69.62 37.95,70.77 37.28,71.78 37.77,71.31 36.71,71.94 35.17,72.93 33.71,73.89 33.3,74.21 31.85,74.99 31.27,75.77 30.72,76 28.13,77.34 28.96,76.89 26.55,77.89 26.93,77.9 25.11,79.15 22.9,79.97 22.87,79.99 21.75,80.49 21.39,80.59 19.34,81.51 19.17,81.35 17.08,82.04 15.47,82.48 14.91,82.64 13.67,83.08 11.6,83.22 12.97,82.96 9.93,83.65 9.61,83.58 9.04,84 8.03,83.98 6.29,84.19 6.6,84.21 5.01,84.49 4.62,84.44 0.91,84.62 1.98,84.71 -1.07,84.62 -0.64,84.57 -2.33,84.38 -2.72,84.63 -4.34,84.39 -5.29,84.2 -5.66,84.37 -7.14,84.12 -9.03,83.76 -9.66,83.69 -10.47,83.68 -12.24,83.21 -12.92,83.24 -14.58,82.68 -14.94,82.86 -14.79,82.84 -15.87,82.25 -18.13,81.51 -18.64,81.61 -21.36,80.58 -21.14,80.34 -23.53,79.66 -23.29,79.71 -24.46,79.2 -26.13,78.67 -27.01,78.13 -28.73,77.09 -29.64,76.9 -29.69,76.39 -30.56,75.93 -31.84,75.64 -32.8,74.64 -33.82,74.15 -35.04,73.48 -34.55,73.53 -37.33,71.58 -38.69,70.58 -37.94,71.13 -39.25,69.8 -40.36,69.31 -40.91,68.81 -40.93,68.79 -42.29,67.56 -43.57,65.73 -43.63,66.48 -46.29,63.51 -45.8,63.99 -47.57,62.01 -47.75,61.88 -48.28,61.34 -49.02,60.49 -50.66,58.67 -51.65,57.27 -51.46,57.04 -52.66,56.06 -53.12,55.47 -54.25,53.73 -53.99,53.75 -55.34,52.06 -56.29,50.38 -56.95,49.57 -57.47,48.58 -58.84,45.55 -58.77,46.3 -59.25,45.86 -59.79,44.82 -60.63,42.32 -60.48,42.25 -61.83,40.26 -62.53,38.37 -62.44,38.84 -62.89,38.39 -63.42,36.14 -64.05,34.61 -64.59,32.67 -64.82,32.14 -65.38,30.21 -65.87,28.84 -66.1,28.55 -66.2,27.73 -67.04,25.4 -67.28,24.4 -67.79,22.1 -67.5,23.14 -67.56,22.83 -68.36,20.14 -68.42,17.43 -68.66,17.83 -69.16,15.47 -69.13,13.45 -69.49,13.04 -69.5,11.52 -69.71,10.04 -69.79,9.33 -69.74,8.65 -69.8,8.27 -69.93,4.33 -70.15,3.96 -70.01,1.91 -70.17,1.48 -70.13,-1.15 -70.21,0.53 -70.23,-2.74 -69.91,-4.51 -69.99,-4.79 -69.85,-6.6 -69.7,-8.73 -69.61,-9.02 -69.54,-9.73 -69.42,-10.32 -69.15,-14.06 -69.07,-14.74 -68.74,-16.26 -68.63,-17.93 -68.66,-16.7 -68.31,-19.24 -68.08,-21.18 -67.49,-22.5 -67.69,-22.11 -67.2,-24.02 -66.29,-27.26 -66.06,-28.48 -66.14,-28.85 -65.65,-29.82 -65.02,-31.92 -65.19,-31.52 -64.57,-33.01 -64.27,-34.01 -63.4,-36.48 -63.02,-37.15 -62.92,-37.28 -61.58,-40.6 -61.35,-41.16 -61.16,-40.87 -60.71,-42.94 -59.28,-45.06 -59.46,-45.13 -57.81,-47.66 -58.29,-47.49 -57.95,-47.69 -57.45,-48.25 -55.51,-51.93 -55.43,-51.41 -54.3,-53.42 -54.06,-53.41 -52.88,-55.67 -52.44,-56.45 -52.92,-55.67 -51.51,-57.69 -50.33,-58.88 -50.02,-59.65 -48.72,-60.77 -48.12,-61.75 -47.57,-62.13 -45.23,-64.41 -45.59,-64.25 -44.52,-64.88 -43.39,-66.03 -43.32,-67.16 -42.74,-66.59 -41.04,-68.82 -39.99,-69.6 -39.19,-70.27 -38.39,-70.92 -37.75,-71.42 -37.05,-71.78 -36.24,-72.1 -35.09,-73.33 -34.54,-73.68 -32.08,-75.45 -31.21,-75.51 -30.69,-76.02 -31.46,-75.54 -28.04,-77.38 -27.76,-77.42 -26.34,-78.39 -24.36,-79.47 -25.9,-78.66 -22.91,-79.94 -21.72,-80.25 -22.28,-80.18 -19.91,-81.23 -20.18,-81.02 -18.91,-81.55 -16.5,-82.12 -15.97,-82.44 -14.2,-82.67 -15.01,-82.57 -11.86,-83.32 -11.48,-83.58 -11.18,-83.41 -8.61,-83.83 -8.17,-83.95 -6.79,-83.99 -5.39,-84.37 -4.68,-84.54 -4.62,-84.48 -1.61,-84.67 -0.88,-84.6 -1.27,-84.67 -0.91,-84.5 0.14,-84.71 1.06,-84.54 4.23,-84.34 4.48,-84.3 4.88,-84.49 6.71,-84.13 6.36,-84.05 7.21,-84.05 7.75,-83.9 11.96,-83.39 12.58,-83.07 14.1,-82.97 14.61,-82.79 14.71,-82.65 15.21,-82.58 16.91,-81.82 20.06,-80.91 18.79,-81.27 20.22,-80.9 20.71,-80.86 24.01,-79.4 23.31,-79.63 24.01,-79.2 25.11,-78.88 26.88,-78.05 27.94,-77.46 28.01,-77.5 29.62,-76.4 29.43,-76.71 32.68,-74.63 32.72,-74.53 32.79,-74.68 34.34,-73.56 34.5,-73.71 36.6,-72.26 36.89,-71.86 39.17,-69.76 40.31,-69.33 39.25,-69.6 41.42,-68.21 42.13,-67.76 42.13,-67.82 43.73,-65.8 44.91,-64.59 46.45,-63.11 47.16,-62.76 46.83,-63.3 47.08,-62.3 49.38,-60 49.23,-59.91 51.3,-57.62 51.59,-57.4 52.42,-55.91 51.52,-56.95 54.3,-53.64 55.05,-52.23 55.46,-52.09 54.99,-52.05 55.53,-51.45 57.52,-48.58 58.11,-47.26 58.3,-47.37 59.39,-44.83 58.16,-47.06 59.26,-45.29 60.36,-43.66 61.42,-40.27 61.59,-40.14 61.81,-39.89 61.84,-39.36 62.68,-36.93 63.16,-36.48 63.54,-35.86 63.79,-35.06 64.83,-32.07 64.89,-31.36 65.72,-29.01 65.84,-28.78 66.31,-27.23 66.45,-26.02 66.7,-24.5 67.58,-22.2 67.6,-22.03 68.28,-19.54 68.28,-19.07 68.24,-19.12 68.49,-17.65 68.93,-15.31 68.76,-15.58 69.44,-11.56 69.28,-12.04 69.19,-12.05 69.49,-9.37 69.69,-9.56 69.49,-9 69.89,-6.3 69.87,-3.65 69.96,-0.93 69.94,-1.85 70.19,0.02 70.16,0.26" fill="rgb(87, 32, 223)" stroke="black" stroke-width="1.6666666666666665" stroke-linejoin="round" filter="url(#fuzzy)" />
    <g transform="translate(25.86 -23.4)">
      <polyline id="rightCountour" points="-29.3,-0.79 -29.25,-0.87 -29.17,-0.95 -29.04,-1.03 -28.88,-1.11 -28.67,-1.18 -28.44,-1.26 -28.16,-1.33 -27.85,-1.4 -27.51,-1.47 -27.13,-1.54 -26.72,-1.6 -26.28,-1.66 -25.81,-1.72 -25.31,-1.77 -24.79,-1.82 -24.25,-1.91 -23.67,-2 -23.06,-2.08 -22.4,-2.15 -21.71,-2.21 -20.99,-2.27 -20.23,-2.31 -19.44,-2.35 -18.62,-2.38 -17.78,-2.4 -16.9,-2.42 -16.01,-2.42 -15.09,-2.42 -14.16,-2.42 -13.2,-2.4 -12.24,-2.38 -11.25,-2.36 -10.26,-2.33 -9.26,-2.29 -8.25,-2.25 -7.24,-2.2 -6.22,-2.15 -5.2,-2.09 -4.19,-2.04 -3.17,-1.98 -2.16,-1.91 -1.16,-1.85 -0.16,-1.78 0.83,-1.71 1.81,-1.64 2.77,-1.57 3.73,-1.49 4.67,-1.42 5.59,-1.35 6.5,-1.27 7.39,-1.2 8.26,-1.13 9.11,-1.06 9.95,-0.99 10.76,-0.92 11.56,-0.85 12.33,-0.79 13.09,-0.73 13.82,-0.66 14.53,-0.6 15.23,-0.54 15.9,-0.49 16.55,-0.43 17.19,-0.38 17.8,-0.32 18.4,-0.27 18.98,-0.22 19.55,-0.18 20.1,-0.13 20.63,-0.09 21.15,-0.04 21.65,0 22.13,0.04 22.6,0.07 23.05,0.11 23.49,0.15 23.91,0.18 24.32,0.21 24.72,0.24 24.33,1.35 23.96,1.39 23.58,1.42 23.19,1.45 22.79,1.48 22.38,1.51 21.96,1.55 21.53,1.58 21.1,1.61 20.66,1.64 20.21,1.67 19.75,1.7 19.28,1.73 18.81,1.75 18.33,1.78 17.84,1.81 17.33,1.83 16.82,1.86 16.3,1.88 15.77,1.91 15.23,1.93 14.67,1.95 14.11,1.97 13.54,1.99 12.96,2 12.37,2.02 11.77,2.03 11.17,2.04 10.55,2.05 9.92,2.05 9.29,2.06 8.65,2.06 7.99,2.06 7.33,2.05 6.66,2.05 5.98,2.04 5.29,2.02 4.59,2.01 3.89,1.99 3.17,1.98 2.44,1.95 1.71,1.93 0.96,1.91 0.21,1.88 -0.56,1.85 -1.33,1.81 -2.11,1.78 -2.91,1.74 -3.71,1.71 -4.52,1.67 -5.35,1.63 -6.18,1.58 -7.02,1.54 -7.87,1.5 -8.72,1.45 -9.59,1.4 -10.46,1.36 -11.34,1.31 -12.22,1.26 -13.11,1.21 -14.01,1.16 -14.9,1.12 -15.8,1.07 -16.7,1.02 -17.6,0.97 -18.31,0.92 -19.02,0.87 -19.72,0.81 -20.42,0.76 -21.1,0.7 -21.77,0.65 -22.43,0.59 -23.08,0.53 -23.71,0.47 -24.32,0.41 -24.91,0.34 -25.48,0.28 -26.03,0.21 -26.55,0.14 -27.05,0.06" fill="white" stroke="white" stroke-width="0" stroke-linejoin="round" filter="url(#fuzzy)" />
    </g>
    <g transform="translate(-42.510000000000005 -22.689999999999998)">
      <polyline id="leftCountour" points="28.77,-1.1 28.74,-1.18 28.68,-1.26 28.57,-1.34 28.42,-1.42 28.24,-1.49 28.01,-1.57 27.75,-1.64 27.45,-1.71 27.12,-1.78 26.76,-1.85 26.36,-1.91 25.92,-1.97 25.46,-2.02 24.97,-2.08 24.45,-2.13 23.92,-2.22 23.35,-2.3 22.74,-2.38 22.1,-2.45 21.41,-2.51 20.69,-2.56 19.93,-2.61 19.14,-2.64 18.32,-2.67 17.47,-2.69 16.59,-2.7 15.69,-2.71 14.77,-2.71 13.83,-2.7 12.87,-2.68 11.89,-2.66 10.9,-2.63 9.9,-2.59 8.88,-2.55 7.87,-2.51 6.84,-2.46 5.81,-2.41 4.79,-2.35 3.76,-2.29 2.73,-2.23 1.71,-2.16 0.7,-2.09 -0.31,-2.02 -1.31,-1.95 -2.29,-1.88 -3.27,-1.8 -4.23,-1.73 -5.17,-1.66 -6.1,-1.58 -7.01,-1.51 -7.91,-1.43 -8.79,-1.36 -9.65,-1.29 -10.48,-1.22 -11.3,-1.15 -12.1,-1.08 -12.88,-1.02 -13.63,-0.95 -14.37,-0.89 -15.08,-0.83 -15.77,-0.77 -16.45,-0.72 -17.1,-0.66 -17.73,-0.61 -18.35,-0.55 -18.95,-0.5 -19.53,-0.46 -20.09,-0.41 -20.64,-0.36 -21.17,-0.32 -21.68,-0.28 -22.18,-0.24 -22.66,-0.2 -23.12,-0.16 -23.58,-0.12 -24.01,-0.09 -24.43,-0.06 -24.84,-0.02 -25.23,0.01 -25.85,1.42 -25.51,1.46 -25.15,1.51 -24.79,1.56 -24.41,1.6 -24.03,1.65 -23.63,1.69 -23.22,1.74 -22.8,1.78 -22.36,1.83 -21.92,1.87 -21.46,1.91 -20.99,1.95 -20.51,1.99 -20.01,2.03 -19.5,2.06 -18.98,2.1 -18.44,2.14 -17.89,2.17 -17.32,2.2 -16.74,2.23 -16.14,2.26 -15.53,2.28 -14.89,2.31 -14.25,2.33 -13.58,2.34 -12.91,2.36 -12.21,2.37 -11.5,2.38 -10.77,2.38 -10.03,2.38 -9.28,2.38 -8.51,2.37 -7.72,2.36 -6.92,2.35 -6.11,2.33 -5.28,2.31 -4.44,2.29 -3.59,2.26 -2.73,2.23 -1.86,2.19 -0.98,2.15 -0.09,2.11 0.81,2.07 1.71,2.02 2.62,1.97 3.54,1.91 4.46,1.86 5.38,1.8 6.3,1.74 7.23,1.68 8.15,1.61 9.08,1.55 10,1.48 10.92,1.42 11.83,1.35 12.73,1.28 13.63,1.21 14.52,1.14 15.39,1.07 16.26,1.01 17.11,0.94 17.94,0.87 18.76,0.81 19.56,0.74 20.25,0.67 20.93,0.6 21.59,0.52 22.24,0.45 22.87,0.37 23.48,0.29 24.06,0.21 24.63,0.13 25.17,0.04 25.69,-0.04 26.19,-0.13 26.66,-0.22 27.09,-0.31 27.5,-0.41 27.88,-0.51" fill="white" stroke="white" stroke-width="0" stroke-linejoin="round" filter="url(#fuzzy)" />
    </g>
    <g transform="translate(25.86 -23.4)">
      <polyline id="rightUpper" points="-27.29,-0.13 -27.71,-0.18 -28.07,-0.23 -28.39,-0.29 -28.65,-0.35 -28.87,-0.42 -29.05,-0.49 -29.18,-0.56 -29.26,-0.64 -29.3,-0.72 -29.3,-0.79 -29.25,-0.87 -29.17,-0.95 -29.04,-1.03 -28.88,-1.11 -28.67,-1.18 -28.44,-1.26 -28.16,-1.33 -27.85,-1.4 -27.51,-1.47 -27.13,-1.54 -26.72,-1.6 -26.28,-1.66 -25.81,-1.72 -25.31,-1.77 -24.79,-1.82 -24.25,-1.91 -23.67,-2 -23.06,-2.08 -22.4,-2.15 -21.71,-2.21 -20.99,-2.27 -20.23,-2.31 -19.44,-2.35 -18.62,-2.38 -17.78,-2.4 -16.9,-2.42 -16.01,-2.42 -15.09,-2.42 -14.16,-2.42 -13.2,-2.4 -12.24,-2.38 -11.25,-2.36 -10.26,-2.33 -9.26,-2.29 -8.25,-2.25 -7.24,-2.2 -6.22,-2.15 -5.2,-2.09 -4.19,-2.04 -3.17,-1.98 -2.16,-1.91 -1.16,-1.85 -0.16,-1.78 0.83,-1.71 1.81,-1.64 2.77,-1.57 3.73,-1.49 4.67,-1.42 5.59,-1.35 6.5,-1.27 7.39,-1.2 8.26,-1.13 9.11,-1.06 9.95,-0.99 10.76,-0.92 11.56,-0.85 12.33,-0.79 13.09,-0.73 13.82,-0.66 14.53,-0.6 15.23,-0.54 15.9,-0.49 16.55,-0.43 17.19,-0.38 17.8,-0.32 18.4,-0.27 18.98,-0.22 19.55,-0.18 20.1,-0.13 20.63,-0.09 21.15,-0.04 21.65,0 22.13,0.04 22.6,0.07 23.05,0.11 23.49,0.15 23.91,0.18 24.32,0.21 24.72,0.24 25.1,0.27 25.46,0.3 25.82,0.33 26.15,0.36 26.48,0.38 26.8,0.4 27.1,0.43 27.39,0.45 27.67,0.47 27.93,0.49" fill="none" stroke="black" stroke-width="1.6666666666666665" stroke-linejoin="round" filter="url(#fuzzy)" />
      <polyline id="rightLower" points="-29.93,-0.82 -29.85,-0.72 -29.72,-0.62 -29.54,-0.52 -29.3,-0.43 -29.03,-0.34 -28.71,-0.25 -28.34,-0.17 -27.95,-0.09 -27.51,-0.01 -27.05,0.06 -26.55,0.14 -26.03,0.21 -25.48,0.28 -24.91,0.34 -24.32,0.41 -23.71,0.47 -23.08,0.53 -22.43,0.59 -21.77,0.65 -21.1,0.7 -20.42,0.76 -19.72,0.81 -19.02,0.87 -18.31,0.92 -17.6,0.97 -16.7,1.02 -15.8,1.07 -14.9,1.12 -14.01,1.16 -13.11,1.21 -12.22,1.26 -11.34,1.31 -10.46,1.36 -9.59,1.4 -8.72,1.45 -7.87,1.5 -7.02,1.54 -6.18,1.58 -5.35,1.63 -4.52,1.67 -3.71,1.71 -2.91,1.74 -2.11,1.78 -1.33,1.81 -0.56,1.85 0.21,1.88 0.96,1.91 1.71,1.93 2.44,1.95 3.17,1.98 3.89,1.99 4.59,2.01 5.29,2.02 5.98,2.04 6.66,2.05 7.33,2.05 7.99,2.06 8.65,2.06 9.29,2.06 9.92,2.05 10.55,2.05 11.17,2.04 11.77,2.03 12.37,2.02 12.96,2 13.54,1.99 14.11,1.97 14.67,1.95 15.23,1.93 15.77,1.91 16.3,1.88 16.82,1.86 17.33,1.83 17.84,1.81 18.33,1.78 18.81,1.75 19.28,1.73 19.75,1.7 20.21,1.67 20.66,1.64 21.1,1.61 21.53,1.58 21.96,1.55 22.38,1.51 22.79,1.48 23.19,1.45 23.58,1.42 23.96,1.39 24.33,1.35 24.7,1.32 25.05,1.29 25.4,1.26 25.74,1.23 26.07,1.2 26.39,1.17 26.7,1.14 27,1.11 27.29,1.08 27.58,1.05" fill="none" stroke="black" stroke-width="2.2222222222222223" stroke-linejoin="round" filter="url(#fuzzy)" />
      <circle r="3.046" cx="-4.842772812368656" cy="0.4996035239914227" stroke="black" fill="none" stroke-width="1.0" filter="url(#fuzzy)" clip-path="url(#rightEyeClipPath)" /><circle r="3.624" cx="-0.09277281236865553" cy="-1.725396476008577" stroke="black" fill="none" stroke-width="1.0" filter="url(#fuzzy)" clip-path="url(#rightEyeClipPath)" /><circle r="4.798" cx="-3.0727728123686555" cy="-2.0403964760085773" stroke="black" fill="none" stroke-width="1.0" filter="url(#fuzzy)" clip-path="url(#rightEyeClipPath)" /><circle r="3.882" cx="-2.702772812368656" cy="-1.655396476008577" stroke="black" fill="none" stroke-width="1.0" filter="url(#fuzzy)" clip-path="url(#rightEyeClipPath)" /><circle r="3.616" cx="-0.09277281236865553" cy="-3.245396476008577" stroke="black" fill="none" stroke-width="1.0" filter="url(#fuzzy)" clip-path="url(#rightEyeClipPath)" /><circle r="4.008" cx="-4.6127728123686556" cy="-0.6953964760085771" stroke="black" fill="none" stroke-width="1.0" filter="url(#fuzzy)" clip-path="url(#rightEyeClipPath)" /><circle r="4.422" cx="-1.7427728123686559" cy="1.004603523991423" stroke="black" fill="none" stroke-width="1.0" filter="url(#fuzzy)" clip-path="url(#rightEyeClipPath)" /><circle r="4.898" cx="-1.7077728123686557" cy="-2.745396476008577" stroke="black" fill="none" stroke-width="1.0" filter="url(#fuzzy)" clip-path="url(#rightEyeClipPath)" /><circle r="4.366" cx="-0.902772812368656" cy="-2.790396476008577" stroke="black" fill="none" stroke-width="1.0" filter="url(#fuzzy)" clip-path="url(#rightEyeClipPath)" /><circle r="3.286" cx="-1.9577728123686557" cy="1.299603523991423" stroke="black" fill="none" stroke-width="1.0" filter="url(#fuzzy)" clip-path="url(#rightEyeClipPath)" />
      </g>
    <g transform="translate(-42.510000000000005 -22.689999999999998)">
      <polyline id="leftUpper" points="26.49,-0.43 26.93,-0.48 27.33,-0.53 27.68,-0.59 27.97,-0.65 28.22,-0.72 28.42,-0.79 28.57,-0.87 28.68,-0.94 28.75,-1.02 28.77,-1.1 28.74,-1.18 28.68,-1.26 28.57,-1.34 28.42,-1.42 28.24,-1.49 28.01,-1.57 27.75,-1.64 27.45,-1.71 27.12,-1.78 26.76,-1.85 26.36,-1.91 25.92,-1.97 25.46,-2.02 24.97,-2.08 24.45,-2.13 23.92,-2.22 23.35,-2.3 22.74,-2.38 22.1,-2.45 21.41,-2.51 20.69,-2.56 19.93,-2.61 19.14,-2.64 18.32,-2.67 17.47,-2.69 16.59,-2.7 15.69,-2.71 14.77,-2.71 13.83,-2.7 12.87,-2.68 11.89,-2.66 10.9,-2.63 9.9,-2.59 8.88,-2.55 7.87,-2.51 6.84,-2.46 5.81,-2.41 4.79,-2.35 3.76,-2.29 2.73,-2.23 1.71,-2.16 0.7,-2.09 -0.31,-2.02 -1.31,-1.95 -2.29,-1.88 -3.27,-1.8 -4.23,-1.73 -5.17,-1.66 -6.1,-1.58 -7.01,-1.51 -7.91,-1.43 -8.79,-1.36 -9.65,-1.29 -10.48,-1.22 -11.3,-1.15 -12.1,-1.08 -12.88,-1.02 -13.63,-0.95 -14.37,-0.89 -15.08,-0.83 -15.77,-0.77 -16.45,-0.72 -17.1,-0.66 -17.73,-0.61 -18.35,-0.55 -18.95,-0.5 -19.53,-0.46 -20.09,-0.41 -20.64,-0.36 -21.17,-0.32 -21.68,-0.28 -22.18,-0.24 -22.66,-0.2 -23.12,-0.16 -23.58,-0.12 -24.01,-0.09 -24.43,-0.06 -24.84,-0.02 -25.23,0.01 -25.6,0.03 -25.97,0.06 -26.32,0.09 -26.66,0.12 -26.98,0.14 -27.29,0.16 -27.59,0.19 -27.88,0.21 -28.16,0.23 -28.42,0.25" fill="none" stroke="black" stroke-width="2.2222222222222223" stroke-linejoin="round" filter="url(#fuzzy)" />
      <polyline id="leftLower" points="29.54,-1.73 29.57,-1.58 29.56,-1.44 29.49,-1.31 29.38,-1.18 29.23,-1.06 29.04,-0.94 28.8,-0.83 28.53,-0.72 28.22,-0.61 27.88,-0.51 27.5,-0.41 27.09,-0.31 26.66,-0.22 26.19,-0.13 25.69,-0.04 25.17,0.04 24.63,0.13 24.06,0.21 23.48,0.29 22.87,0.37 22.24,0.45 21.59,0.52 20.93,0.6 20.25,0.67 19.56,0.74 18.76,0.81 17.94,0.87 17.11,0.94 16.26,1.01 15.39,1.07 14.52,1.14 13.63,1.21 12.73,1.28 11.83,1.35 10.92,1.42 10,1.48 9.08,1.55 8.15,1.61 7.23,1.68 6.3,1.74 5.38,1.8 4.46,1.86 3.54,1.91 2.62,1.97 1.71,2.02 0.81,2.07 -0.09,2.11 -0.98,2.15 -1.86,2.19 -2.73,2.23 -3.59,2.26 -4.44,2.29 -5.28,2.31 -6.11,2.33 -6.92,2.35 -7.72,2.36 -8.51,2.37 -9.28,2.38 -10.03,2.38 -10.77,2.38 -11.5,2.38 -12.21,2.37 -12.91,2.36 -13.58,2.34 -14.25,2.33 -14.89,2.31 -15.53,2.28 -16.14,2.26 -16.74,2.23 -17.32,2.2 -17.89,2.17 -18.44,2.14 -18.98,2.1 -19.5,2.06 -20.01,2.03 -20.51,1.99 -20.99,1.95 -21.46,1.91 -21.92,1.87 -22.36,1.83 -22.8,1.78 -23.22,1.74 -23.63,1.69 -24.03,1.65 -24.41,1.6 -24.79,1.56 -25.15,1.51 -25.51,1.46 -25.85,1.42 -26.18,1.37 -26.5,1.33 -26.81,1.28 -27.11,1.23 -27.4,1.19 -27.68,1.14 -27.96,1.1 -28.22,1.06 -28.47,1.01 -28.71,0.97" fill="none" stroke="black" stroke-width="2.2222222222222223" stroke-linejoin="round" filter="url(#fuzzy)" />
      <circle r="4.548" cx="18.119319097520517" cy="1.9419532586709733" stroke="black" fill="none" stroke-width="1.0" filter="url(#fuzzy)" clip-path="url(#leftEyeClipPath)" /><circle r="3.108" cx="13.764319097520517" cy="0.811953258670973" stroke="black" fill="none" stroke-width="1.0" filter="url(#fuzzy)" clip-path="url(#leftEyeClipPath)" /><circle r="4.464" cx="15.594319097520518" cy="-1.128046741329027" stroke="black" fill="none" stroke-width="1.0" filter="url(#fuzzy)" clip-path="url(#leftEyeClipPath)" /><circle r="4.57" cx="15.084319097520517" cy="-2.218046741329027" stroke="black" fill="none" stroke-width="1.0" filter="url(#fuzzy)" clip-path="url(#leftEyeClipPath)" /><circle r="4.59" cx="16.329319097520518" cy="0.7619532586709727" stroke="black" fill="none" stroke-width="1.0" filter="url(#fuzzy)" clip-path="url(#leftEyeClipPath)" /><circle r="3.046" cx="16.759319097520518" cy="-0.058046741329027096" stroke="black" fill="none" stroke-width="1.0" filter="url(#fuzzy)" clip-path="url(#leftEyeClipPath)" /><circle r="4.802" cx="17.604319097520516" cy="-2.1980467413290268" stroke="black" fill="none" stroke-width="1.0" filter="url(#fuzzy)" clip-path="url(#leftEyeClipPath)" /><circle r="3.042" cx="15.419319097520518" cy="-1.123046741329027" stroke="black" fill="none" stroke-width="1.0" filter="url(#fuzzy)" clip-path="url(#leftEyeClipPath)" /><circle r="3.6879999999999997" cx="14.244319097520517" cy="0.9969532586709731" stroke="black" fill="none" stroke-width="1.0" filter="url(#fuzzy)" clip-path="url(#leftEyeClipPath)" /><circle r="4.918" cx="14.694319097520516" cy="0.2619532586709732" stroke="black" fill="none" stroke-width="1.0" filter="url(#fuzzy)" clip-path="url(#leftEyeClipPath)" />
    </g>
    <g id="hairs">
      <polyline points="36.89,-71.86 38.55,-70.45 39.46,-69.72 40.11,-69.19 40.71,-68.69 41.29,-68.16 41.82,-67.6 42.28,-67.05 42.6,-66.59 42.72,-66.27 42.63,-66.1 42.3,-66.1 41.75,-66.22 40.99,-66.47 39.99,-66.86 38.73,-67.42 37.17,-68.18 35.28,-69.18 33.04,-70.41 30.46,-71.89 27.54,-73.63 24.33,-75.65 20.87,-77.92 17.07,-80.41" fill="none" stroke="rgb(134, 52, 19)" stroke-width="2" stroke-linejoin="round" filter="url(#fuzzy)" /><polyline points="-31.21,-75.51 -30.84,-75.84 -30.1,-76.26 -29.07,-76.82 -28.04,-77.37 -27.13,-77.85 -26.39,-78.2 -25.81,-78.44 -25.37,-78.56 -25.1,-78.56 -25,-78.44 -25.08,-78.18 -25.35,-77.78 -25.81,-77.23 -26.48,-76.53 -27.39,-75.65 -28.6,-74.6 -30.13,-73.34 -32.01,-71.86 -34.27,-70.15 -36.9,-68.19 -39.91,-65.97 -43.3,-63.51 -47.12,-60.77" fill="none" stroke="rgb(134, 52, 19)" stroke-width="2" stroke-linejoin="round" filter="url(#fuzzy)" /><polyline points="47.16,-62.76 47.15,-62.71 47.64,-61.97 48.31,-61.05 48.91,-60.2 49.32,-59.53 49.5,-59.06 49.47,-58.76 49.21,-58.63 48.74,-58.67 48.01,-58.92 47.01,-59.41 45.71,-60.13 44.11,-61.08 42.2,-62.27 39.96,-63.72 37.33,-65.49 34.27,-67.62 30.77,-70.12 26.89,-72.93 22.79,-75.98 18.59,-79.26" fill="none" stroke="rgb(134, 52, 19)" stroke-width="2" stroke-linejoin="round" filter="url(#fuzzy)" /><polyline points="61.84,-39.36 62.45,-37.75 62.75,-36.93 62.84,-36.32 62.76,-35.77 62.47,-35.33 61.96,-35.11 61.19,-35.2 60.15,-35.62 58.83,-36.37 57.22,-37.47 55.3,-38.91 53.07,-40.74 50.5,-42.99 47.56,-45.7 44.25,-48.87 40.56,-52.51 36.54,-56.56 32.2,-61.01 27.45,-65.88 22.12,-71.24 15.84,-77.21" fill="none" stroke="rgb(134, 52, 19)" stroke-width="2" stroke-linejoin="round" filter="url(#fuzzy)" /><polyline points="58.11,-47.26 58.42,-46.83 58.68,-46.3 58.95,-45.73 59.31,-44.96 59.69,-44.09 59.99,-43.28 60.15,-42.68 60.15,-42.33 60.02,-42.2 59.75,-42.28 59.36,-42.54 58.81,-42.99 58.08,-43.66 57.17,-44.57 56.05,-45.75 54.71,-47.24 53.16,-49.07 51.37,-51.26 49.31,-53.85 46.94,-56.89 44.2,-60.44 41.09,-64.51 37.69,-69" fill="none" stroke="rgb(134, 52, 19)" stroke-width="2" stroke-linejoin="round" filter="url(#fuzzy)" /><polyline points="39.17,-69.76 39.71,-69.5 40.01,-69.24 40.32,-68.94 40.51,-68.65 40.51,-68.41 40.27,-68.26 39.69,-68.29 38.68,-68.62 37.15,-69.31 35.08,-70.34 32.51,-71.68 29.51,-73.28 26.07,-75.16 22.08,-77.41 17.36,-80.12" fill="none" stroke="rgb(134, 52, 19)" stroke-width="2" stroke-linejoin="round" filter="url(#fuzzy)" /><polyline points="47.16,-62.76 47.12,-62.73 47.54,-62.02 48.08,-61.16 48.51,-60.39 48.69,-59.81 48.59,-59.44 48.22,-59.26 47.59,-59.25 46.68,-59.42 45.45,-59.8 43.84,-60.42 41.85,-61.27 39.48,-62.35 36.77,-63.66 33.72,-65.22 30.29,-67.07 26.43,-69.26 22.07,-71.76 17.14,-74.55 11.62,-77.58 5.54,-80.87" fill="none" stroke="rgb(134, 52, 19)" stroke-width="2" stroke-linejoin="round" filter="url(#fuzzy)" /><polyline points="-24.36,-79.47 -24.28,-79.2 -22.67,-79.24 -20.56,-79.16 -18.1,-78.88 -15.27,-78.42 -12.05,-77.79 -8.43,-77.03 -4.49,-76.13 -0.28,-75.1 4.15,-73.93 8.78,-72.64 13.55,-71.26 18.46,-69.81 23.48,-68.31 28.6,-66.74 33.8,-65.1 38.96,-63.47 44.03,-61.89" fill="none" stroke="rgb(134, 52, 19)" stroke-width="2" stroke-linejoin="round" filter="url(#fuzzy)" /><polyline points="55.05,-52.23 55.13,-52.15 55.03,-51.93 54.93,-51.52 54.65,-51.16 53.99,-51.09 52.83,-51.43 51.15,-52.18 49,-53.27 46.43,-54.62 43.45,-56.22 40.02,-58.15 36.03,-60.49 31.41,-63.32 26.09,-66.64 20.06,-70.43 13.38,-74.68 6.21,-79.41" fill="none" stroke="rgb(134, 52, 19)" stroke-width="2" stroke-linejoin="round" filter="url(#fuzzy)" /><polyline points="42.13,-67.82 43.51,-66.17 44.63,-64.98 45.42,-64.18 45.91,-63.66 46.18,-63.26 46.34,-62.89 46.39,-62.55 46.28,-62.29 45.97,-62.18 45.41,-62.27 44.56,-62.57 43.42,-63.08 41.98,-63.83 40.2,-64.82 38.06,-66.1 35.52,-67.66 32.6,-69.51 29.33,-71.63 25.77,-74.02 21.93,-76.7 17.66,-79.71" fill="none" stroke="rgb(134, 52, 19)" stroke-width="2" stroke-linejoin="round" filter="url(#fuzzy)" /><polyline points="46.45,-63.11 46.62,-62.99 46.26,-62.81 45.62,-62.39 44.61,-61.88 43.08,-61.48 40.9,-61.26 37.99,-61.27 34.32,-61.48 29.9,-61.87 24.7,-62.44 18.72,-63.24 11.9,-64.3 4.19,-65.63 -4.46,-67.12 -14.08,-68.66 -24.67,-70.29" fill="none" stroke="rgb(134, 52, 19)" stroke-width="2" stroke-linejoin="round" filter="url(#fuzzy)" /><polyline points="23.31,-79.63 24.1,-79.23 24.99,-78.8 25.74,-78.38 26.25,-78.01 26.5,-77.67 26.52,-77.37 26.29,-77.1 25.78,-76.88 24.93,-76.73 23.73,-76.67 22.15,-76.67 20.19,-76.72 17.85,-76.82 15.08,-76.97 11.85,-77.21 8.1,-77.58 3.79,-78.1 -1.12,-78.75 -6.71,-79.49 -13.1,-80.26" fill="none" stroke="rgb(134, 52, 19)" stroke-width="2" stroke-linejoin="round" filter="url(#fuzzy)" /><polyline points="-39.99,-69.6 -39.18,-70.25 -38.29,-70.88 -37.31,-71.51 -36.21,-72.19 -35,-72.95 -33.7,-73.77 -32.36,-74.61 -31.05,-75.42 -29.83,-76.15 -28.71,-76.79 -27.71,-77.37 -26.81,-77.88 -26.03,-78.33 -25.43,-78.68 -25.05,-78.91 -24.92,-79 -25.07,-78.92 -25.54,-78.66 -26.41,-78.18 -27.73,-77.48 -29.42,-76.61" fill="none" stroke="rgb(134, 52, 19)" stroke-width="2" stroke-linejoin="round" filter="url(#fuzzy)" /><polyline points="-4.68,-84.54 -3.77,-84.53 -2.35,-84.5 -1.08,-84.44 0.09,-84.33 1.35,-84.2 2.77,-84.04 4.34,-83.87 5.95,-83.7 7.47,-83.53 8.82,-83.37 9.98,-83.23 10.95,-83.12 11.75,-83.04 12.43,-82.99 12.99,-82.97 13.37,-82.97 13.38,-83.01 12.86,-83.13" fill="none" stroke="rgb(134, 52, 19)" stroke-width="2" stroke-linejoin="round" filter="url(#fuzzy)" /><polyline points="-37.05,-71.78 -36.03,-72.35 -34.58,-73.16 -32.76,-74.03 -30.71,-74.85 -28.54,-75.6 -26.25,-76.3 -23.83,-77.01 -21.24,-77.75 -18.53,-78.51 -15.77,-79.27 -13.06,-79.99 -10.47,-80.68 -8.04,-81.32 -5.77,-81.94 -3.59,-82.52 -1.45,-83.06 0.65,-83.56 2.61,-84.01" fill="none" stroke="rgb(134, 52, 19)" stroke-width="2" stroke-linejoin="round" filter="url(#fuzzy)" /><polyline points="51.52,-56.95 53.31,-54.64 53.86,-53.6 53.62,-53.3 52.91,-53.33 51.85,-53.52 50.44,-53.91 48.56,-54.61 46.12,-55.72 43.06,-57.29 39.36,-59.26 35.07,-61.58 30.23,-64.21 24.86,-67.22 18.94,-70.73 12.35,-74.83 4.75,-79.47" fill="none" stroke="rgb(134, 52, 19)" stroke-width="2" stroke-linejoin="round" filter="url(#fuzzy)" /><polyline points="36.89,-71.86 38.36,-70.52 38.73,-69.98 38.43,-69.77 37.65,-69.72 36.41,-69.76 34.64,-69.9 32.29,-70.17 29.26,-70.63 25.46,-71.38 20.79,-72.49 15.22,-73.92 8.77,-75.61 1.47,-77.53 -6.66,-79.77" fill="none" stroke="rgb(134, 52, 19)" stroke-width="2" stroke-linejoin="round" filter="url(#fuzzy)" /><polyline points="-14.2,-82.67 -13.63,-82.67 -11.76,-82.55 -9.36,-82.16 -6.52,-81.5 -3.24,-80.61 0.41,-79.51 4.37,-78.24 8.58,-76.83 13.01,-75.29 17.65,-73.61 22.46,-71.81 27.33,-69.97 32.17,-68.13 36.94,-66.4 41.73,-64.82" fill="none" stroke="rgb(134, 52, 19)" stroke-width="2" stroke-linejoin="round" filter="url(#fuzzy)" /><polyline points="32.68,-74.63 32.74,-74.57 32.89,-74.43 33.05,-74.2 33.1,-73.94 32.93,-73.68 32.39,-73.51 31.38,-73.51 29.8,-73.74 27.62,-74.24 24.86,-74.99 21.58,-75.96 17.79,-77.14 13.41,-78.52 8.23,-80.15 2.05,-82.11" fill="none" stroke="rgb(134, 52, 19)" stroke-width="2" stroke-linejoin="round" filter="url(#fuzzy)" /><polyline points="-26.34,-78.39 -25.05,-78.9 -23.64,-79.07 -21.7,-79.2 -19.36,-79.29 -16.73,-79.3 -13.81,-79.25 -10.59,-79.13 -7.08,-78.94 -3.35,-78.69 0.52,-78.41 4.45,-78.11 8.39,-77.8 12.31,-77.5 16.23,-77.16 20.16,-76.75 24.16,-76.23 28.3,-75.53" fill="none" stroke="rgb(134, 52, 19)" stroke-width="2" stroke-linejoin="round" filter="url(#fuzzy)" /><polyline points="24.01,-79.4 23.78,-79.41 24.08,-79.15 24.55,-78.77 24.9,-78.35 25.01,-77.92 24.84,-77.49 24.4,-77.05 23.67,-76.62 22.61,-76.2 21.2,-75.8 19.41,-75.41 17.22,-75.02 14.64,-74.62 11.66,-74.19 8.26,-73.76 4.4,-73.35 0.03,-72.98 -4.92,-72.64 -10.46,-72.3 -16.57,-71.96 -23.18,-71.63 -30.24,-71.42" fill="none" stroke="rgb(134, 52, 19)" stroke-width="2" stroke-linejoin="round" filter="url(#fuzzy)" /><polyline points="27.94,-77.46 28.46,-77.17 29.42,-76.57 30.58,-75.85 31.76,-75.1 32.89,-74.37 33.96,-73.66 35.01,-72.95 36.06,-72.23 37.07,-71.5 38.01,-70.81 38.84,-70.18 39.52,-69.66 40.02,-69.26 40.34,-69 40.47,-68.88 40.39,-68.9 40.09,-69.08 39.55,-69.43 38.75,-69.98 37.69,-70.74 36.39,-71.68 34.85,-72.8 32.84,-74.26" fill="none" stroke="rgb(134, 52, 19)" stroke-width="2" stroke-linejoin="round" filter="url(#fuzzy)" /><polyline points="34.34,-73.56 34.95,-73.26 35.84,-72.56 36.61,-71.81 37.11,-71.17 37.28,-70.7 37.14,-70.4 36.72,-70.21 36.05,-70.09 35.14,-70.03 33.95,-70.03 32.43,-70.15 30.5,-70.43 28.14,-70.88 25.32,-71.51 22.05,-72.29 18.32,-73.2 14.12,-74.25 9.42,-75.49 4.18,-76.94 -1.66,-78.61 -8.05,-80.49" fill="none" stroke="rgb(134, 52, 19)" stroke-width="2" stroke-linejoin="round" filter="url(#fuzzy)" /><polyline points="1.06,-84.54 3.06,-84.38 3.92,-84.24 4.29,-84.03 4.38,-83.72 4.28,-83.29 4.05,-82.73 3.68,-82.05 3.08,-81.25 2.13,-80.33 0.73,-79.29 -1.17,-78.12 -3.56,-76.8 -6.4,-75.3 -9.69,-73.63 -13.43,-71.78 -17.66,-69.75 -22.41,-67.54 -27.67,-65.17 -33.41,-62.66 -39.62,-60.05 -46.41,-57.17" fill="none" stroke="rgb(134, 52, 19)" stroke-width="2" stroke-linejoin="round" filter="url(#fuzzy)" /><polyline points="7.21,-84.05 8.63,-83.81 10.42,-83.52 11.8,-83.28 12.68,-83.09 13.19,-82.93 13.46,-82.77 13.59,-82.6 13.56,-82.44 13.31,-82.29 12.74,-82.19 11.82,-82.13 10.49,-82.09 8.74,-82.09 6.52,-82.13 3.77,-82.22 0.49,-82.37 -3.3,-82.59 -7.46,-82.92" fill="none" stroke="rgb(134, 52, 19)" stroke-width="2" stroke-linejoin="round" filter="url(#fuzzy)" /><polyline points="55.46,-52.09 55.28,-51.84 55.41,-51.21 55.37,-50.64 54.87,-50.47 53.83,-50.82 52.22,-51.67 50.08,-52.92 47.4,-54.5 44.15,-56.39 40.28,-58.69 35.77,-61.53 30.64,-64.96 24.91,-69 18.56,-73.56 11.62,-78.65" fill="none" stroke="rgb(134, 52, 19)" stroke-width="2" stroke-linejoin="round" filter="url(#fuzzy)" /><polyline points="58.11,-47.26 58.21,-46.9 57.81,-46.54 56.98,-46.25 55.78,-45.85 54.15,-45.38 51.97,-45.02 49.19,-44.91 45.77,-45.08 41.74,-45.51 37.08,-46.14 31.8,-46.93 25.87,-47.86 19.27,-48.92 11.98,-50.13 4.01,-51.54 -4.65,-53.22 -14.03,-55.22 -24.17,-57.52 -35.16,-60.02" fill="none" stroke="rgb(134, 52, 19)" stroke-width="2" stroke-linejoin="round" filter="url(#fuzzy)" /><polyline points="-8.17,-83.95 -6.79,-84.02 -5.36,-84.02 -3.81,-83.86 -2.09,-83.57 -0.24,-83.15 1.68,-82.64 3.68,-82.03 5.79,-81.36 8.05,-80.64 10.47,-79.87 12.98,-79.08 15.52,-78.25 18.05,-77.4 20.52,-76.54 22.93,-75.7 25.29,-74.9 27.6,-74.15 29.86,-73.45 32.03,-72.77 34.03,-72.08 35.86,-71.37 37.62,-70.59" fill="none" stroke="rgb(134, 52, 19)" stroke-width="2" stroke-linejoin="round" filter="url(#fuzzy)" /><polyline points="34.34,-73.56 34.85,-73.24 35.42,-72.46 35.67,-71.56 35.45,-70.7 34.7,-69.93 33.42,-69.22 31.65,-68.53 29.41,-67.78 26.71,-66.97 23.53,-66.11 19.81,-65.21 15.49,-64.33 10.53,-63.48 4.91,-62.63 -1.37,-61.74 -8.27,-60.79 -15.82,-59.75 -24.05,-58.67 -33.01,-57.56 -42.64,-56.6" fill="none" stroke="rgb(134, 52, 19)" stroke-width="2" stroke-linejoin="round" filter="url(#fuzzy)" /><polyline points="58.16,-47.06 59.05,-45.37 59.49,-43.77 59.4,-42.55 58.78,-41.78 57.72,-41.34 56.27,-41.1 54.44,-40.98 52.23,-40.96 49.62,-41.02 46.6,-41.17 43.15,-41.43 39.25,-41.85 34.89,-42.45 30.03,-43.26 24.68,-44.26 18.8,-45.45 12.42,-46.82 5.52,-48.39 -1.87,-50.18 -9.77,-52.24 -18.19,-54.58 -27.16,-57.19 -36.77,-59.91" fill="none" stroke="rgb(134, 52, 19)" stroke-width="2" stroke-linejoin="round" filter="url(#fuzzy)" /><polyline points="7.21,-84.05 8.64,-83.81 10.51,-83.51 12.02,-83.25 13.05,-83.05 13.7,-82.89 14.1,-82.74 14.35,-82.6 14.46,-82.46 14.35,-82.37 13.91,-82.35 13.06,-82.41 11.73,-82.54 9.9,-82.75 7.56,-83.06 4.83,-83.47 1.93,-83.99" fill="none" stroke="rgb(134, 52, 19)" stroke-width="2" stroke-linejoin="round" filter="url(#fuzzy)" /><polyline points="46.45,-63.11 46.76,-62.96 46.82,-62.66 46.88,-62.07 46.86,-61.35 46.63,-60.66 46.08,-60.09 45.17,-59.66 43.89,-59.37 42.25,-59.2 40.24,-59.14 37.84,-59.22 35.02,-59.44 31.77,-59.79 28.08,-60.25 23.94,-60.83 19.33,-61.53 14.21,-62.4 8.6,-63.47 2.5,-64.72 -4.09,-66.11 -11.22,-67.54 -18.98,-68.96 -27.34,-70.48" fill="none" stroke="rgb(134, 52, 19)" stroke-width="2" stroke-linejoin="round" filter="url(#fuzzy)" /><polyline points="-18.91,-81.55 -17.02,-81.97 -15.4,-82.2 -13.71,-82.33 -11.83,-82.4 -9.73,-82.43 -7.44,-82.42 -5.01,-82.35 -2.5,-82.26 0.06,-82.15 2.62,-82.02 5.13,-81.88 7.58,-81.73 9.93,-81.56 12.16,-81.39 14.24,-81.21 16.15,-81.05 17.79,-80.93 19.05,-80.94" fill="none" stroke="rgb(134, 52, 19)" stroke-width="2" stroke-linejoin="round" filter="url(#fuzzy)" /><polyline points="-0.91,-84.5 0.21,-84.57 1.57,-84.52 2.86,-84.44 3.93,-84.37 4.77,-84.3 5.46,-84.22 6.09,-84.12 6.71,-84 7.31,-83.86 7.8,-83.71 8.09,-83.55 8.1,-83.4 7.78,-83.25 7.14,-83.1 6.19,-82.94 4.94,-82.77 3.39,-82.61 1.5,-82.45 -0.75,-82.31 -3.37,-82.17 -6.35,-82.05 -9.78,-81.93 -13.84,-81.8" fill="none" stroke="rgb(134, 52, 19)" stroke-width="2" stroke-linejoin="round" filter="url(#fuzzy)" /><polyline points="42.13,-67.82 43.52,-66.16 44.68,-64.94 45.53,-64.11 46.11,-63.52 46.52,-63.02 46.85,-62.53 47.1,-62.05 47.24,-61.63 47.23,-61.33 47,-61.2 46.56,-61.24 45.88,-61.46 44.96,-61.87 43.77,-62.5 42.3,-63.36 40.53,-64.46 38.45,-65.78 36.07,-67.33 33.36,-69.13 30.25,-71.24 26.68,-73.71 22.68,-76.56 18.53,-79.63" fill="none" stroke="rgb(134, 52, 19)" stroke-width="2" stroke-linejoin="round" filter="url(#fuzzy)" /><polyline points="47.08,-62.3 48.39,-60.73 48.74,-59.69 48.42,-58.86 47.46,-58.22 45.89,-57.71 43.76,-57.28 41.05,-56.95 37.71,-56.75 33.69,-56.69 28.97,-56.76 23.55,-56.92 17.43,-57.15 10.59,-57.47 2.99,-57.97 -5.4,-58.68 -14.56,-59.6 -24.5,-60.65 -35.3,-61.66" fill="none" stroke="rgb(134, 52, 19)" stroke-width="2" stroke-linejoin="round" filter="url(#fuzzy)" /><polyline points="26.88,-78.05 27.67,-77.62 28.41,-77.2 29.23,-76.72 30.09,-76.2 30.88,-75.71 31.52,-75.29 32.01,-74.95 32.36,-74.66 32.57,-74.4 32.62,-74.19 32.48,-74.04 32.1,-74 31.45,-74.11 30.48,-74.37 29.2,-74.8 27.56,-75.37 25.51,-76.09 23.02,-76.95 20.09,-77.98 16.81,-79.22 13.28,-80.7 9.48,-82.45" fill="none" stroke="rgb(134, 52, 19)" stroke-width="2" stroke-linejoin="round" filter="url(#fuzzy)" /><polyline points="34.34,-73.56 34.96,-73.25 35.86,-72.54 36.66,-71.76 37.21,-71.09 37.47,-70.58 37.45,-70.21 37.18,-69.93 36.68,-69.7 35.95,-69.5 34.96,-69.35 33.68,-69.29 32.04,-69.35 30.01,-69.56 27.58,-69.91 24.77,-70.38 21.57,-70.95 17.98,-71.63 13.97,-72.45 9.49,-73.43 4.5,-74.6 -1.05,-75.92 -7.13,-77.37 -13.58,-79.04" fill="none" stroke="rgb(134, 52, 19)" stroke-width="2" stroke-linejoin="round" filter="url(#fuzzy)" /><polyline points="69.44,-11.56 68.86,-10.93 68.77,-8.82 68.28,-6.08 67.04,-3.26 65.02,-0.55 62.49,2.03 59.9,4.54 57.5,7.02 55.23,9.48 52.86,11.92 50.22,14.36 47.39,16.84 44.59,19.39 41.98,21.97 39.49,24.55 36.92,27.04 34.15,29.41 31.26,31.66 28.47,33.87 26,36.12 23.84,38.49 21.8,40.96 19.48,43.43 16.16,45.75 11.32,47.86 7.05,49.76" fill="none" stroke="rgb(134, 52, 19)" stroke-width="2" stroke-linejoin="round" filter="url(#fuzzy)" /><polyline points="69.44,-11.56 73.4,-10.92 76.48,-8.8 77.82,-6.05 77.79,-3.22 77.94,-0.51 79.27,2.08 81.87,4.61 85.28,7.1 88.89,9.57 92.13,12.02 94.55,14.49 95.91,16.99 96.26,19.53 95.92,22.11 95.32,24.66 94.81,27.14 94.56,29.52 94.62,31.83 95.02,34.09 95.8,36.38 96.99,38.74 98.53,41.14 100.16,43.56 101.51,45.93 102.14,48.27 101.89,50.59 101.2,52.94 101.22,55.26 103.24,57.37" fill="none" stroke="rgb(134, 52, 19)" stroke-width="2" stroke-linejoin="round" filter="url(#fuzzy)" /><polyline points="-5.39,-84.37 -4.04,-84.46 -2.23,-84.5 -0.11,-84.47 2.36,-84.39 5.05,-84.24 7.8,-84.02 10.51,-83.74 13.16,-83.39 15.78,-82.97 18.45,-82.48 21.23,-81.92 24.18,-81.28 27.28,-80.57 30.46,-79.77 33.63,-78.89 36.76,-77.94 39.87,-76.93 43.11,-75.87 46.68,-74.76 50.76,-73.58 55.47,-72.31 60.79,-70.96 66.52,-69.51 72.32,-67.99 77.76,-66.41 82.48,-64.79 86.52,-63.15 90.59,-61.47 96.01,-59.64 102.13,-57.4" fill="none" stroke="rgb(134, 52, 19)" stroke-width="2" stroke-linejoin="round" filter="url(#fuzzy)" /><polyline points="-5.39,-84.37 -5.1,-84.46 -3.08,-84.5 -0.84,-84.47 1.45,-84.39 3.81,-84.24 6.27,-84.02 8.83,-83.74 11.48,-83.38 14.21,-82.96 17.05,-82.47 20.07,-81.9 23.35,-81.27 26.94,-80.55 30.86,-79.75 35,-78.87 39.21,-77.92 43.31,-76.9 47.19,-75.84 50.87,-74.72 54.47,-73.53 58.22,-72.26 62.32,-70.9 66.89,-69.45 71.89,-67.93 77.14,-66.35 82.38,-64.73 87.49,-63.08 92.76,-61.41 98.88,-59.7 105.67,-58.05 107.91,-56.95" fill="none" stroke="rgb(134, 52, 19)" stroke-width="2" stroke-linejoin="round" filter="url(#fuzzy)" /><polyline points="-5.39,-84.37 -3.96,-84.46 -2.17,-84.5 -0.25,-84.47 1.88,-84.39 4.21,-84.25 6.67,-84.04 9.21,-83.76 11.75,-83.41 14.25,-82.99 16.72,-82.51 19.16,-81.96 21.63,-81.34 24.15,-80.63 26.77,-79.85 29.52,-78.97 32.41,-78.03 35.4,-77.03 38.46,-75.98 41.59,-74.9 44.88,-73.75 48.46,-72.51 52.39,-71.16 56.61,-69.71 60.92,-68.21 65.18,-66.6 69.4,-64.76 73.61,-62.76" fill="none" stroke="rgb(134, 52, 19)" stroke-width="2" stroke-linejoin="round" filter="url(#fuzzy)" /><polyline points="-6.79,-83.99 -4.67,-84.37 -2.76,-84.53 -0.92,-84.57 1.04,-84.52 3.22,-84.39 5.68,-84.2 8.4,-83.93 11.33,-83.58 14.38,-83.15 17.48,-82.64 20.62,-82.06 23.85,-81.42 27.24,-80.72 30.84,-79.97 34.58,-79.16 38.36,-78.3 42.02,-77.35 45.48,-76.32 48.79,-75.19 52.1,-73.98 55.62,-72.68 59.48,-71.31 63.66,-69.87 67.97,-68.36 72.13,-66.78 75.91,-65.13 79.27,-63.4 82.52,-61.58 86.17,-59.68 90.6,-57.72 95.59,-55.78 100.32,-53.96 104.45,-52.44 109.3,-51.45" fill="none" stroke="rgb(134, 52, 19)" stroke-width="2" stroke-linejoin="round" filter="url(#fuzzy)" /><polyline points="-8.17,-83.95 -6.08,-84.25 -4.25,-84.4 -2.36,-84.46 -0.37,-84.45 1.78,-84.37 4.11,-84.23 6.62,-84.02 9.28,-83.74 12.12,-83.39 15.12,-82.98 18.25,-82.5 21.46,-81.94 24.71,-81.32 28.05,-80.61 31.56,-79.82 35.33,-78.95 39.38,-78.01 43.59,-77.01 47.76,-75.96 51.67,-74.86 55.31,-73.7 58.9,-72.45 62.94,-71.09 67.86,-69.65 73.64,-68.13 79.58,-66.54 84.54,-64.87 87.93,-63.28 91.76,-62.3" fill="none" stroke="rgb(134, 52, 19)" stroke-width="2" stroke-linejoin="round" filter="url(#fuzzy)" /><polyline points="-8.61,-83.83 -6.77,-84.08 -4.8,-84.33 -2.79,-84.48 -0.69,-84.53 1.55,-84.5 3.88,-84.39 6.32,-84.21 8.91,-83.96 11.72,-83.63 14.79,-83.22 18.11,-82.74 21.61,-82.18 25.21,-81.56 28.85,-80.88 32.5,-80.15 36.22,-79.39 40.11,-78.57 44.3,-77.7 48.83,-76.73 53.6,-75.65 58.34,-74.45 62.78,-73.14 66.87,-71.77 70.91,-70.42 75.82,-69.14 83.99,-67.76" fill="none" stroke="rgb(134, 52, 19)" stroke-width="2" stroke-linejoin="round" filter="url(#fuzzy)" /><polyline points="68.76,-15.58 69.86,-12.57 72.42,-10.05 75.16,-7.54 76.99,-4.94 77.9,-2.27 78.15,0.43 77.94,3.13 77.42,5.78 76.85,8.39 76.54,10.98 76.66,13.56 77.23,16.15 78.1,18.77 79.05,21.4 79.88,24 80.47,26.55 80.81,29.01 80.97,31.4 81.05,33.7 81.13,35.93 81.26,38.13 81.45,40.3 81.67,42.45 81.81,44.59 81.75,46.71 81.33,48.8 80.5,50.87 79.31,52.89 78,54.86 76.79,56.76 75.81,58.57 74.95,60.25 73.9,61.88 72.28,63.72 69.53,66.34" fill="none" stroke="rgb(134, 52, 19)" stroke-width="2" stroke-linejoin="round" filter="url(#fuzzy)" /><polyline points="68.76,-15.58 70.4,-12.61 72.42,-10.14 74.98,-7.68 77.19,-5.13 79.02,-2.51 80.89,0.16 82.97,2.82 85.02,5.45 86.58,8.01 87.25,10.53 86.89,13.03 85.69,15.56 84.15,18.14 82.91,20.78 82.45,23.46 82.88,26.1 83.88,28.62 84.92,30.96 85.65,33.11 86.03,35.22 86.17,37.52 86.88,40.2" fill="none" stroke="rgb(134, 52, 19)" stroke-width="2" stroke-linejoin="round" filter="url(#fuzzy)" /><polyline points="-11.86,-83.32 -11,-83.55 -9.02,-83.86 -6.85,-84.13 -4.68,-84.3 -2.48,-84.38 -0.14,-84.38 2.41,-84.31 5.21,-84.17 8.3,-83.96 11.69,-83.68 15.32,-83.34 19.11,-82.92 22.92,-82.43 26.6,-81.87 30.1,-81.23 33.41,-80.51 36.61,-79.71 39.82,-78.83 43.13,-77.89 46.59,-76.87 50.25,-75.8 54.09,-74.67 58.08,-73.47 62.1,-72.19 66.05,-70.82 69.83,-69.37 73.49,-67.85 77.23,-66.27 81.41,-64.65 86.31,-62.98 91.86,-61.26 97.56,-59.47 102.72,-57.58 107.11,-55.55 111.34,-53.44 115.21,-52.05" fill="none" stroke="rgb(134, 52, 19)" stroke-width="2" stroke-linejoin="round" filter="url(#fuzzy)" /><polyline points="-15.01,-82.57 -11.91,-83.28 -9.32,-83.71 -7.05,-84.02 -4.98,-84.25 -3.05,-84.41 -1.22,-84.47 0.58,-84.46 2.38,-84.36 4.21,-84.2 6.09,-83.96 8.04,-83.64 10.07,-83.25 12.15,-82.77 14.23,-82.23 16.28,-81.61 18.24,-80.94 20.09,-80.22 21.81,-79.47 23.42,-78.68 24.98,-77.83 26.54,-76.89 28.15,-75.82 29.85,-74.62 31.63,-73.28 33.49,-71.75 35.59,-69.76" fill="none" stroke="rgb(134, 52, 19)" stroke-width="2" stroke-linejoin="round" filter="url(#fuzzy)" /><polyline points="-15.97,-82.44 -14.25,-82.8 -11.87,-83.26 -9.47,-83.66 -7.21,-83.98 -5.1,-84.22 -3.12,-84.37 -1.21,-84.43 0.68,-84.41 2.59,-84.32 4.54,-84.14 6.57,-83.89 8.68,-83.56 10.85,-83.15 13.07,-82.67 15.29,-82.12 17.47,-81.49 19.6,-80.81 21.66,-80.08 23.65,-79.29 25.59,-78.45 27.5,-77.53 29.42,-76.53 31.35,-75.43 33.31,-74.23 35.27,-72.94 37.21,-71.58 39.13,-70.17 41,-68.69 42.87,-67.15 44.73,-65.54 46.54,-63.9 48.28,-62.25 50.3,-60" fill="none" stroke="rgb(134, 52, 19)" stroke-width="2" stroke-linejoin="round" filter="url(#fuzzy)" /><polyline points="-16.5,-82.12 -14.4,-82.65 -12.62,-83.09 -10.88,-83.47 -8.97,-83.8 -6.92,-84.05 -4.82,-84.23 -2.71,-84.33 -0.59,-84.34 1.57,-84.29 3.81,-84.16 6.15,-83.97 8.59,-83.7 11.1,-83.37 13.67,-82.97 16.28,-82.5 18.89,-81.96 21.51,-81.34 24.12,-80.64 26.73,-79.87 29.35,-79 32.01,-78.07 34.72,-77.07 37.51,-76.03 40.4,-74.94 43.38,-73.79 46.43,-72.54 49.53,-71.19 52.66,-69.75 55.84,-68.23 59.17,-66.62 62.78,-64.77 66.81,-62.76" fill="none" stroke="rgb(134, 52, 19)" stroke-width="2" stroke-linejoin="round" filter="url(#fuzzy)" /><polyline points="-19.91,-81.23 -18.46,-81.68 -16.71,-82.2 -14.79,-82.71 -12.63,-83.18 -10.3,-83.58 -7.94,-83.9 -5.63,-84.15 -3.36,-84.31 -1.12,-84.4 1.15,-84.4 3.48,-84.32 5.96,-84.16 8.68,-83.93 11.7,-83.62 15.06,-83.24 18.69,-82.77 22.47,-82.23 26.2,-81.63 29.78,-80.96 33.19,-80.24 36.54,-79.49 40,-78.69 43.71,-77.84 47.75,-76.9 52.11,-75.84 56.77,-74.63 61.68,-73.29 66.84,-71.75 71.78,-69.76" fill="none" stroke="rgb(134, 52, 19)" stroke-width="2" stroke-linejoin="round" filter="url(#fuzzy)" /><polyline points="-19.91,-81.23 -18.3,-81.68 -16.34,-82.21 -14.16,-82.72 -11.87,-83.18 -9.58,-83.58 -7.37,-83.9 -5.26,-84.15 -3.26,-84.3 -1.33,-84.38 0.57,-84.37 2.47,-84.28 4.41,-84.12 6.41,-83.87 8.47,-83.55 10.61,-83.15 12.77,-82.68 14.95,-82.13 17.08,-81.52 19.16,-80.84 21.16,-80.11 23.08,-79.33 24.95,-78.49 26.78,-77.58 28.63,-76.59 30.49,-75.49 32.39,-74.3 34.29,-73.01 36.17,-71.65 38,-70.24 39.77,-68.77 41.53,-67.22 43.3,-65.58 44.94,-64.03 45.94,-63.3" fill="none" stroke="rgb(134, 52, 19)" stroke-width="2" stroke-linejoin="round" filter="url(#fuzzy)" /><polyline points="-19.91,-81.23 -18.54,-81.68 -16.7,-82.21 -14.63,-82.72 -12.42,-83.18 -10.15,-83.58 -7.9,-83.9 -5.68,-84.15 -3.48,-84.31 -1.26,-84.39 1.02,-84.38 3.41,-84.3 5.95,-84.14 8.66,-83.91 11.56,-83.59 14.61,-83.2 17.79,-82.73 21.05,-82.19 24.33,-81.58 27.57,-80.91 30.75,-80.19 33.89,-79.42 37.04,-78.61 40.27,-77.73 43.65,-76.76 47.23,-75.68 51.06,-74.48 55.12,-73.17 59.27,-71.8 63.31,-70.44 67.49,-69.15 73.7,-67.76" fill="none" stroke="rgb(134, 52, 19)" stroke-width="2" stroke-linejoin="round" filter="url(#fuzzy)" /><polyline points="68.93,-15.31 69.28,-12.86 69.49,-11.01 69.74,-8.78 70.03,-6.17 70.28,-3.45 70.45,-0.79 70.51,1.78 70.46,4.29 70.33,6.77 70.15,9.21 69.92,11.62 69.65,14.02 69.34,16.45 68.97,18.98 68.52,21.62 68,24.29 67.44,26.87 66.89,29.24 66.36,31.32 65.87,33.14 65.34,34.88 64.7,36.6" fill="none" stroke="rgb(134, 52, 19)" stroke-width="2" stroke-linejoin="round" filter="url(#fuzzy)" /><polyline points="-22.28,-80.18 -19.88,-81.04 -17.29,-81.82 -14.91,-82.45 -12.74,-82.97 -10.65,-83.38 -8.61,-83.72 -6.58,-83.98 -4.56,-84.17 -2.53,-84.27 -0.45,-84.3 1.7,-84.25 3.93,-84.13 6.23,-83.94 8.59,-83.68 10.98,-83.35 13.36,-82.95 15.72,-82.48 18.05,-81.94 20.35,-81.32 22.64,-80.62 24.93,-79.84 27.25,-78.98 29.61,-78.05 32.03,-77.05 34.52,-76.01 37.08,-74.9 39.74,-73.74 42.48,-72.49 45.27,-71.13 48,-69.69 50.61,-68.16 53.12,-66.56 55.63,-64.89 58.11,-63.29 60.12,-62.3" fill="none" stroke="rgb(134, 52, 19)" stroke-width="2" stroke-linejoin="round" filter="url(#fuzzy)" /><polyline points="68.49,-17.65 69.82,-15.27 71.06,-12.71 72.07,-10.21 73.02,-7.69 73.96,-5.11 75,-2.47 76.16,0.2 77.35,2.87 78.34,5.5 78.98,8.09 79.32,10.65 79.59,13.2 80.05,15.76 80.94,18.37 82.33,21 84.15,23.64 86.24,26.22 88.41,28.71 90.56,31.08 92.67,33.34 94.68,35.53 96.48,37.68 97.89,39.82 98.81,41.94 99.35,44.09 99.48,46.42 97.95,49.55" fill="none" stroke="rgb(134, 52, 19)" stroke-width="2" stroke-linejoin="round" filter="url(#fuzzy)" /><polyline points="-32.08,-75.45 -30.61,-76.22 -28.77,-77.14 -26.95,-78.05 -25.1,-78.93 -23.19,-79.77 -21.23,-80.56 -19.2,-81.27 -17.1,-81.91 -14.93,-82.47 -12.71,-82.97 -10.46,-83.4 -8.25,-83.76 -6.11,-84.05 -4.05,-84.27 -2.07,-84.4 -0.15,-84.45 1.74,-84.43 3.64,-84.33 5.58,-84.15 7.64,-83.91 9.89,-83.58 12.35,-83.21 14.62,-82.84 15.92,-82.58" fill="none" stroke="rgb(134, 52, 19)" stroke-width="2" stroke-linejoin="round" filter="url(#fuzzy)" /><polyline points="-34.54,-73.68 -32.83,-75 -30.98,-76.13 -28.78,-77.3 -26.56,-78.39 -24.47,-79.35 -22.49,-80.18 -20.53,-80.92 -18.56,-81.59 -16.55,-82.19 -14.49,-82.72 -12.36,-83.17 -10.17,-83.55 -7.93,-83.84 -5.65,-84.06 -3.34,-84.2 -0.98,-84.27 1.45,-84.26 3.99,-84.18 6.66,-84.02 9.45,-83.8 12.33,-83.5 15.23,-83.14 18.07,-82.71 20.84,-82.22 23.57,-81.66 26.42,-81.04 29.53,-80.32 32.96,-79.5 36.51,-78.56 39.86,-77.5 43.03,-76.4" fill="none" stroke="rgb(134, 52, 19)" stroke-width="2" stroke-linejoin="round" filter="url(#fuzzy)" /><polyline points="-36.24,-72.1 -37.65,-73.59 -35.41,-74.87 -32.69,-76.08 -30.06,-77.24 -27.67,-78.32 -25.52,-79.28 -23.53,-80.12 -21.61,-80.87 -19.65,-81.55 -17.63,-82.16 -15.51,-82.69 -13.29,-83.15 -10.98,-83.52 -8.6,-83.83 -6.19,-84.05 -3.76,-84.19 -1.32,-84.26 1.16,-84.25 3.7,-84.17 6.35,-84.02 9.11,-83.8 11.96,-83.5 14.85,-83.14 17.74,-82.71 20.57,-82.22 23.39,-81.67 26.28,-81.04 29.37,-80.32 32.74,-79.5 36.33,-78.56 39.95,-77.5 43.25,-76.4" fill="none" stroke="rgb(134, 52, 19)" stroke-width="2" stroke-linejoin="round" filter="url(#fuzzy)" /><polyline points="-38.39,-70.92 -36.9,-72 -34.97,-73.32 -32.96,-74.63 -31.02,-75.81 -29.19,-76.87 -27.43,-77.84 -25.68,-78.75 -23.91,-79.61 -22.08,-80.41 -20.16,-81.14 -18.13,-81.79 -15.97,-82.38 -13.7,-82.9 -11.36,-83.36 -9.03,-83.75 -6.77,-84.07 -4.62,-84.32 -2.57,-84.49 -0.57,-84.56 1.54,-84.55 3.83,-84.48 5.6,-84.49" fill="none" stroke="rgb(134, 52, 19)" stroke-width="2" stroke-linejoin="round" filter="url(#fuzzy)" /><polyline points="68.24,-19.12 72.51,-15.8 76.55,-13.32 81.2,-11.12 84.62,-8.78 86.37,-6.21 87.2,-3.54 87.88,-0.89 88.66,1.69 89.42,4.21 90.01,6.69 90.35,9.14 90.5,11.56 90.62,13.97 90.89,16.42 91.57,18.95 92.89,21.58 95.02,24.25 97.9,26.84 101.23,29.22 104.64,31.3 107.98,33.13 111.7,34.88 116.7,36.6" fill="none" stroke="rgb(134, 52, 19)" stroke-width="2" stroke-linejoin="round" filter="url(#fuzzy)" /><polyline points="-43.32,-67.16 -41.18,-68.66 -39.39,-69.97 -37.66,-71.17 -35.85,-72.34 -33.89,-73.53 -31.79,-74.71 -29.58,-75.89 -27.29,-77.02 -24.96,-78.08 -22.63,-79.05 -20.3,-79.92 -18.03,-80.71 -15.84,-81.41 -13.73,-82.04 -11.72,-82.59 -9.79,-83.07 -7.93,-83.47 -6.14,-83.79 -4.41,-84.03 -2.74,-84.2 -1.12,-84.28 0.47,-84.3 2.05,-84.23 3.62,-84.1 5.18,-83.89 6.69,-83.62 8.14,-83.27 9.47,-82.86 10.65,-82.38 11.67,-81.85 12.55,-81.32 13.47,-80.86" fill="none" stroke="rgb(134, 52, 19)" stroke-width="2" stroke-linejoin="round" filter="url(#fuzzy)" /><polyline points="-43.32,-67.16 -41.74,-68.67 -40.94,-69.97 -39.72,-71.17 -37.88,-72.35 -35.75,-73.54 -33.58,-74.73 -31.51,-75.9 -29.53,-77.03 -27.62,-78.09 -25.72,-79.06 -23.79,-79.93 -21.8,-80.71 -19.74,-81.42 -17.6,-82.04 -15.39,-82.59 -13.12,-83.06 -10.82,-83.46 -8.5,-83.77 -6.17,-84.01 -3.83,-84.17 -1.48,-84.25 0.91,-84.26 3.37,-84.19 5.92,-84.05 8.57,-83.84 11.3,-83.56 14.06,-83.2 16.8,-82.79 19.47,-82.3 22.09,-81.77 24.76,-81.16 27.59,-80.49 30.62,-79.7 33.59,-78.88" fill="none" stroke="rgb(134, 52, 19)" stroke-width="2" stroke-linejoin="round" filter="url(#fuzzy)" /><polyline points="-43.39,-66.03 -42.93,-67.25 -41.84,-68.87 -40.42,-70.41 -39.14,-71.83 -38.1,-73.18 -37.14,-74.45 -36.05,-75.63 -34.69,-76.72 -33.03,-77.73 -31.09,-78.67 -28.96,-79.54 -26.72,-80.34 -24.42,-81.07 -22.05,-81.74 -19.61,-82.33 -17.06,-82.85 -14.38,-83.3 -11.61,-83.68 -8.77,-83.98 -5.91,-84.21 -3.06,-84.36 -0.21,-84.43 2.67,-84.41 5.65,-84.32 8.81,-84.15 12.26,-83.91 16.16,-83.59 20.46,-83.21 24.51,-82.84 26.87,-82.58" fill="none" stroke="rgb(134, 52, 19)" stroke-width="2" stroke-linejoin="round" filter="url(#fuzzy)" /><polyline points="-44.52,-64.88 -49.45,-66.85 -46.84,-68.46 -44.08,-69.84 -42.04,-71.1 -40.35,-72.3 -38.71,-73.49 -36.94,-74.68 -34.98,-75.85 -32.82,-76.98 -30.53,-78.03 -28.15,-79.01 -25.72,-79.89 -23.28,-80.68 -20.83,-81.39 -18.41,-82.02 -16.03,-82.57 -13.7,-83.05 -11.38,-83.45 -9.04,-83.78 -6.65,-84.02 -4.17,-84.19 -1.59,-84.28 1.12,-84.29 3.95,-84.23 6.92,-84.1 9.99,-83.89 13.11,-83.62 16.22,-83.27 19.24,-82.86 22.19,-82.38 25.2,-81.86 28.55,-81.32 32.32,-80.86" fill="none" stroke="rgb(134, 52, 19)" stroke-width="2" stroke-linejoin="round" filter="url(#fuzzy)" /><polyline points="-44.52,-64.88 -43.41,-66.85 -42.32,-68.46 -41.13,-69.83 -39.82,-71.08 -38.41,-72.28 -36.86,-73.47 -35.15,-74.66 -33.27,-75.83 -31.27,-76.96 -29.15,-78.02 -26.96,-78.99 -24.71,-79.87 -22.42,-80.67 -20.08,-81.38 -17.72,-82.02 -15.36,-82.58 -13,-83.07 -10.67,-83.48 -8.38,-83.81 -6.11,-84.06 -3.87,-84.24 -1.63,-84.34 0.67,-84.36 3.06,-84.3 5.61,-84.19 8.33,-84 11.23,-83.73 14.28,-83.39 17.14,-83 18.93,-82.65" fill="none" stroke="rgb(134, 52, 19)" stroke-width="2" stroke-linejoin="round" filter="url(#fuzzy)" /><polyline points="-48.72,-60.77 -48.57,-62.29 -47.19,-63.93 -45.96,-65.54 -45.09,-67.12 -44.38,-68.66 -43.49,-70.16 -42.23,-71.59 -40.61,-72.95 -38.8,-74.24 -36.96,-75.43 -35.13,-76.55 -33.27,-77.58 -31.29,-78.53 -29.13,-79.42 -26.81,-80.24 -24.37,-80.99 -21.86,-81.68 -19.27,-82.29 -16.6,-82.83 -13.83,-83.3 -11.03,-83.7 -8.27,-84.04 -5.63,-84.3 -3.14,-84.48 -0.68,-84.56 1.92,-84.55 4.81,-84.48 7.18,-84.49" fill="none" stroke="rgb(134, 52, 19)" stroke-width="2" stroke-linejoin="round" filter="url(#fuzzy)" /><polyline points="-50.02,-59.65 -47.48,-61.7 -44.08,-63.52 -40.58,-65.16 -37.66,-66.71 -35.46,-68.17 -33.68,-69.54 -31.86,-70.84 -29.77,-72.07 -27.42,-73.28 -24.96,-74.47 -22.54,-75.64 -20.21,-76.77 -17.97,-77.85 -15.83,-78.85 -13.79,-79.76 -11.92,-80.58 -10.22,-81.31 -8.67,-81.97 -7.27,-82.57 -5.99,-83.08 -4.8,-83.53 -3.66,-83.9 -2.54,-84.2 -1.48,-84.41 -0.61,-84.52 -0.19,-84.5" fill="none" stroke="rgb(134, 52, 19)" stroke-width="2" stroke-linejoin="round" filter="url(#fuzzy)" /><polyline points="-52.44,-56.45 -53.41,-57.91 -54.85,-59.69 -55.49,-61.53 -54.79,-63.3 -53.21,-64.98 -51.33,-66.55 -49.4,-68.03 -47.45,-69.43 -45.46,-70.74 -43.46,-72 -41.47,-73.22 -39.51,-74.42 -37.55,-75.59 -35.57,-76.73 -33.54,-77.8 -31.42,-78.8 -29.17,-79.72 -26.76,-80.54 -24.2,-81.28 -21.56,-81.95 -18.93,-82.54 -16.36,-83.06 -13.85,-83.5 -11.28,-83.87 -8.59,-84.16 -5.8,-84.37 -3.09,-84.49 -0.67,-84.53 1.71,-84.54" fill="none" stroke="rgb(134, 52, 19)" stroke-width="2" stroke-linejoin="round" filter="url(#fuzzy)" /><polyline points="-52.44,-56.45 -52.45,-57.92 -51.4,-59.71 -50.06,-61.56 -48.51,-63.34 -46.75,-65.02 -44.93,-66.6 -43.14,-68.08 -41.44,-69.48 -39.81,-70.8 -38.2,-72.07 -36.54,-73.29 -34.76,-74.49 -32.86,-75.66 -30.83,-76.78 -28.71,-77.84 -26.52,-78.82 -24.31,-79.73 -22.08,-80.54 -19.84,-81.27 -17.59,-81.93 -15.32,-82.5 -13.04,-83 -10.76,-83.42 -8.49,-83.77 -6.24,-84.03 -4.01,-84.22 -1.78,-84.32 0.48,-84.35 2.81,-84.3 5.26,-84.18 7.83,-84 10.55,-83.74 13.35,-83.4 15.99,-83.01 17.64,-82.65" fill="none" stroke="rgb(134, 52, 19)" stroke-width="2" stroke-linejoin="round" filter="url(#fuzzy)" /><polyline points="-52.88,-55.67 -52.23,-56.62 -50.95,-58.37 -49.49,-60.2 -47.94,-61.95 -46.36,-63.63 -44.78,-65.26 -43.21,-66.85 -41.63,-68.39 -40.02,-69.89 -38.33,-71.33 -36.57,-72.71 -34.73,-74.01 -32.84,-75.23 -30.93,-76.37 -29.01,-77.42 -27.08,-78.39 -25.13,-79.31 -23.16,-80.16 -21.18,-80.95 -19.18,-81.65 -17.12,-82.28 -14.85,-82.85 -12.22,-83.4 -9.32,-83.83" fill="none" stroke="rgb(134, 52, 19)" stroke-width="2" stroke-linejoin="round" filter="url(#fuzzy)" /><polyline points="-55.43,-51.41 -62.6,-53.56 -60.83,-55.68 -57.72,-57.66 -54.8,-59.56 -52.38,-61.4 -50.46,-63.17 -48.89,-64.86 -47.46,-66.44 -46.01,-67.94 -44.45,-69.35 -42.8,-70.69 -41.12,-71.97 -39.49,-73.21 -37.93,-74.42 -36.42,-75.58 -34.87,-76.71 -33.2,-77.77 -31.33,-78.77 -29.23,-79.68 -26.92,-80.5 -24.43,-81.24 -21.82,-81.91 -19.14,-82.49 -16.41,-83 -13.66,-83.43 -10.9,-83.79 -8.11,-84.06 -5.29,-84.25 -2.41,-84.37 0.57,-84.4 3.72,-84.36 7.09,-84.26 10.66,-84.09 14.58,-83.84 20.51,-83.39" fill="none" stroke="rgb(134, 52, 19)" stroke-width="2" stroke-linejoin="round" filter="url(#fuzzy)" /><polyline points="-55.43,-51.41 -57.71,-53.57 -60.76,-55.68 -60.99,-57.66 -58.68,-59.57 -55.24,-61.41 -51.85,-63.18 -49.14,-64.86 -47.26,-66.45 -46.05,-67.95 -45.19,-69.36 -44.32,-70.7 -43.15,-71.98 -41.51,-73.22 -39.39,-74.43 -36.93,-75.59 -34.3,-76.72 -31.71,-77.78 -29.26,-78.77 -26.98,-79.68 -24.81,-80.5 -22.65,-81.24 -20.44,-81.9 -18.12,-82.49 -15.67,-82.99 -13.12,-83.42 -10.48,-83.77 -7.8,-84.04 -5.08,-84.23 -2.35,-84.34 0.42,-84.37 3.3,-84.33 6.35,-84.22 9.67,-84.04 13.36,-83.78 17.59,-83.41 21.63,-82.97" fill="none" stroke="rgb(134, 52, 19)" stroke-width="2" stroke-linejoin="round" filter="url(#fuzzy)" /><polyline points="-57.45,-48.25 -57.01,-50.96 -57.55,-53.32 -58.69,-55.46 -59.11,-57.46 -58.45,-59.37 -57.1,-61.21 -55.55,-62.98 -54,-64.66 -52.46,-66.26 -50.87,-67.76 -49.29,-69.17 -47.8,-70.5 -46.5,-71.77 -45.34,-73 -44.18,-74.21 -42.8,-75.39 -41.05,-76.56 -38.91,-77.69 -36.5,-78.74 -34.01,-79.67 -31.58,-80.5 -29.11,-81.25 -26.21,-81.99 -22.72,-82.69 -19.58,-83.32" fill="none" stroke="rgb(134, 52, 19)" stroke-width="2" stroke-linejoin="round" filter="url(#fuzzy)" /><polyline points="-57.95,-47.69 -57.71,-50.88 -58.59,-53.07 -59.15,-54.86 -58.55,-56.58 -56.83,-58.31 -54.57,-60.05 -52.36,-61.78 -50.5,-63.47 -49.07,-65.12 -48.01,-66.72 -47.26,-68.28 -46.74,-69.79 -46.3,-71.24 -45.77,-72.62 -44.94,-73.93 -43.67,-75.16 -41.97,-76.31 -39.95,-77.37 -37.84,-78.36 -35.77,-79.28 -33.79,-80.13 -31.83,-80.92 -29.73,-81.62 -27.31,-82.26 -24.4,-82.82 -20.9,-83.32 -16.9,-83.75 -12.77,-84.12 -9.06,-84.54" fill="none" stroke="rgb(134, 52, 19)" stroke-width="2" stroke-linejoin="round" filter="url(#fuzzy)" /><polyline points="-58.29,-47.49 -57.41,-48.93 -56.45,-51.02 -55.84,-53.21 -55.57,-55.32 -55.32,-57.33 -54.84,-59.25 -54.04,-61.1 -52.94,-62.87 -51.56,-64.56 -49.96,-66.16 -48.22,-67.67 -46.49,-69.09 -44.85,-70.43 -43.36,-71.7 -42.01,-72.92 -40.76,-74.13 -39.52,-75.32 -38.18,-76.51 -36.6,-77.67 -34.75,-78.75 -32.75,-79.68 -30.73,-80.45 -28.38,-81.2 -25,-82.12" fill="none" stroke="rgb(134, 52, 19)" stroke-width="2" stroke-linejoin="round" filter="url(#fuzzy)" /><polyline points="-57.81,-47.66 -60.37,-44.92 -64.6,-42.34 -70.27,-39.9 -76.58,-37.49 -82.81,-35.09 -88.11,-32.74 -91.83,-30.41 -93.94,-28.08 -95.06,-25.71 -96.18,-23.3 -98.13,-20.85 -101.17,-18.35 -104.9,-15.81 -108.47,-13.25 -111.03,-10.68 -112.27,-8.11 -112.65,-5.55 -113.18,-2.96 -114.85,-0.36 -118.09,2.24 -122.8,4.84 -129.02,7.41 -137.42,9.33" fill="none" stroke="rgb(134, 52, 19)" stroke-width="2" stroke-linejoin="round" filter="url(#fuzzy)" /><polyline points="-61.35,-41.16 -66.11,-38.27 -69.85,-36.01 -71.45,-33.83 -73.41,-31.57 -76.8,-29.19 -80.79,-26.69 -84.08,-24.13 -86.05,-21.58 -87.16,-19.07 -88.39,-16.61 -90.64,-14.18 -94.31,-11.75 -99.26,-9.32 -104.97,-6.88 -110.92,-4.43 -116.74,-1.97 -122.29,0.51 -127.42,3.04 -131.8,5.62 -134.94,8.21 -136.56,10.79 -136.98,13.35 -137.12,15.92 -138.07,18.55 -141.58,21.03 -151.2,22.1" fill="none" stroke="rgb(134, 52, 19)" stroke-width="2" stroke-linejoin="round" filter="url(#fuzzy)" /><polyline points="-61.58,-40.6 -63.47,-37.46 -67.83,-34.72 -73.14,-32.31 -76.73,-30.02 -78.08,-27.71 -78.38,-25.33 -79.14,-22.9 -81.14,-20.41 -84.27,-17.89 -87.76,-15.33 -90.83,-12.75 -93.07,-10.17 -94.58,-7.58 -95.78,-5 -97.08,-2.42 -98.77,0.15 -100.87,2.69 -103.22,5.18 -105.51,7.62 -107.46,10.03 -109.09,12.45 -110.9,14.97 -113.6,17.59 -117.33,20.23 -121.07,22.63 -123.5,24.4" fill="none" stroke="rgb(134, 52, 19)" stroke-width="2" stroke-linejoin="round" filter="url(#fuzzy)" /><polyline points="-66.14,-28.85 -68.85,-26.43 -72.62,-23.58 -76.79,-20.9 -80.12,-18.42 -81.93,-16.02 -82.55,-13.62 -82.8,-11.2 -83.48,-8.75 -85.08,-6.3 -87.67,-3.83 -90.9,-1.35 -94.23,1.16 -97.1,3.71 -99.12,6.28 -100.19,8.86 -100.51,11.43 -100.49,13.98 -100.58,16.5 -101.13,18.99 -102.26,21.43 -103.86,23.83 -105.73,26.22 -107.69,28.62 -109.72,31.04 -111.89,33.51 -114.07,35.98 -115.72,38.33 -115.99,40.42 -113.83,42.32" fill="none" stroke="rgb(134, 52, 19)" stroke-width="2" stroke-linejoin="round" filter="url(#fuzzy)" /><polyline points="66.7,-24.5 74.05,-22.06 81.8,-19.75 84.69,-17.49 84.07,-15.17 82.21,-12.77 80.52,-10.3 79.5,-7.77 79.17,-5.18 79.38,-2.55 80,0.11 80.82,2.77 81.57,5.42 82.07,8.03 82.26,10.63 82.24,13.22 82.2,15.82 82.32,18.43 82.68,21.06 83.29,23.67 84.08,26.23 84.99,28.72 85.94,31.11 86.82,33.42 87.49,35.65 87.76,37.84 87.56,40 86.94,42.16 86.2,44.31 85.69,46.45 85.59,48.57 85.77,50.64 85.68,52.63 84.69,54.55 81.78,56.8" fill="none" stroke="rgb(134, 52, 19)" stroke-width="2" stroke-linejoin="round" filter="url(#fuzzy)" /><polyline points="66.45,-26.02 75.69,-22.86 80.71,-20.39 79.93,-18.1 77.8,-15.81 76.67,-13.52 77.17,-11.17 79.07,-8.72 81.74,-6.18 84.41,-3.57 86.43,-0.95 87.54,1.65 87.91,4.21 87.99,6.73 88.31,9.22 89.3,11.7 91.16,14.19 93.89,16.7 97.38,19.25 101.39,21.82 105.61,24.38 109.63,26.87 113.05,29.28 115.54,31.58 116.95,33.85 117.39,36.14 117.18,38.5 116.74,40.95 116.54,43.4 116.92,45.77 117.89,48.04 118.67,50.35 117.65,53.12" fill="none" stroke="rgb(134, 52, 19)" stroke-width="2" stroke-linejoin="round" filter="url(#fuzzy)" /><polyline points="66.45,-26.02 71.74,-22.87 78.11,-20.42 82.4,-18.14 84.31,-15.87 85.43,-13.59 86.79,-11.27 88.61,-8.84 90.87,-6.31 93.64,-3.71 96.99,-1.1 100.8,1.49 104.78,4.04 108.61,6.55 112.11,9.02 115.26,11.47 118.07,13.92 120.46,16.4 122.19,18.94 123.05,21.56 123.08,24.2 122.68,26.76 122.55,29.15 123.3,31.31 125.14,33.31 127.72,35.37 130.27,37.9 130.84,41.66" fill="none" stroke="rgb(134, 52, 19)" stroke-width="2" stroke-linejoin="round" filter="url(#fuzzy)" /><polyline points="66.45,-26.02 67.4,-22.86 68.17,-20.39 68.97,-18.1 69.92,-15.81 71.03,-13.52 72.19,-11.17 73.22,-8.72 73.94,-6.18 74.25,-3.57 74.18,-0.95 73.85,1.65 73.44,4.21 73.1,6.73 72.91,9.22 72.88,11.7 72.95,14.19 73.03,16.7 73.06,19.25 73.04,21.82 72.99,24.38 72.99,26.87 73.08,29.28 73.25,31.58 73.41,33.85 73.39,36.14 73.05,38.5 72.32,40.95 71.27,43.4 70.05,45.77 68.81,48.04 67.54,50.35 66.19,53.12" fill="none" stroke="rgb(134, 52, 19)" stroke-width="2" stroke-linejoin="round" filter="url(#fuzzy)" /><polyline points="66.31,-27.23 67.44,-24.66 68.02,-22.21 68.5,-19.88 68.98,-17.59 69.48,-15.26 70.05,-12.87 70.73,-10.41 71.54,-7.9 72.46,-5.32 73.46,-2.7 74.51,-0.05 75.6,2.6 76.73,5.24 77.91,7.85 79.14,10.43 80.44,13.01 81.82,15.6 83.25,18.21 84.62,20.85 85.79,23.48 86.6,26.07 86.97,28.58 86.95,30.97 86.67,33.25 86.34,35.46 86.11,37.62 86.02,39.77 86.02,41.91 85.99,44.07 85.89,46.41 84.95,49.55" fill="none" stroke="rgb(134, 52, 19)" stroke-width="2" stroke-linejoin="round" filter="url(#fuzzy)" /><polyline points="66.31,-27.23 67.41,-24.69 71.83,-22.26 78.95,-19.95 85.39,-17.68 88.86,-15.38 89.45,-13.02 88.93,-10.6 89.33,-8.11 91.84,-5.57 96.36,-2.97 101.82,-0.34 106.92,2.31 110.87,4.94 113.71,7.53 116.01,10.07 118.38,12.58 121.03,15.1 123.71,17.68 126.07,20.34 127.89,23.09 129.05,25.88 129.26,28.59 129,30.93 133.9,32.34" fill="none" stroke="rgb(134, 52, 19)" stroke-width="2" stroke-linejoin="round" filter="url(#fuzzy)" /><polyline points="66.31,-27.23 67.35,-24.65 68.33,-22.2 69.33,-19.86 70.08,-17.55 70.6,-15.21 71.07,-12.81 71.61,-10.34 72.22,-7.81 72.77,-5.23 73.15,-2.6 73.29,0.06 73.22,2.72 72.98,5.36 72.65,7.98 72.28,10.58 71.91,13.18 71.56,15.78 71.25,18.4 70.96,21.02 70.7,23.63 70.44,26.2 70.14,28.69 69.75,31.08 69.24,33.39 68.6,35.63 67.86,37.82 67.07,39.99 66.28,42.15 65.53,44.3 64.81,46.45 64.07,48.57 63.22,50.64 62.23,52.62 61.1,54.55 59.51,56.8" fill="none" stroke="rgb(134, 52, 19)" stroke-width="2" stroke-linejoin="round" filter="url(#fuzzy)" /><polyline points="64.89,-31.36 69.44,-28.72 74.12,-25.93 77.91,-23.24 80.98,-20.71 82.85,-18.31 83.26,-15.96 82.41,-13.62 80.79,-11.24 79,-8.79 77.6,-6.25 76.98,-3.66 77.31,-1.06 78.53,1.53 80.4,4.1 82.53,6.63 84.52,9.13 86.08,11.62 87.08,14.12 87.67,16.64 88.14,19.19 88.84,21.76 89.96,24.31 91.45,26.81 93,29.22 94.15,31.54 94.51,33.81 93.96,36.11 92.73,38.48 91.28,40.92 90.23,43.38 90.01,45.75 90.56,48.03 90.73,50.35 88.22,53.12" fill="none" stroke="rgb(134, 52, 19)" stroke-width="2" stroke-linejoin="round" filter="url(#fuzzy)" /><polyline points="63.79,-35.06 64.8,-31.82 65.74,-28.88 66.64,-26.05 67.47,-23.36 68.27,-20.82 69.03,-18.39 69.76,-16.02 70.41,-13.66 70.97,-11.26 71.43,-8.8 71.81,-6.26 72.12,-3.68 72.34,-1.08 72.47,1.51 72.48,4.07 72.36,6.61 72.15,9.12 71.88,11.62 71.58,14.13 71.27,16.65 70.96,19.2 70.65,21.77 70.31,24.32 69.93,26.81 69.49,29.23 68.99,31.57 68.43,33.86 67.81,36.17 67.11,38.54 66.33,40.96 65.49,43.4 64.54,45.79 63.44,48.13 62.09,50.47 60.47,52.91 58.81,55.31" fill="none" stroke="rgb(134, 52, 19)" stroke-width="2" stroke-linejoin="round" filter="url(#fuzzy)" /><polyline points="63.79,-35.06 66.23,-31.85 69.69,-28.94 71.96,-26.14 72.86,-23.47 73.21,-20.94 73.73,-18.53 74.66,-16.2 75.9,-13.88 77.22,-11.54 78.49,-9.11 79.74,-6.61 81.08,-4.03 82.56,-1.44 84.08,1.15 85.44,3.7 86.49,6.22 87.22,8.69 87.81,11.12 88.51,13.52 89.42,15.93 90.46,18.46 91.34,21.16 91.88,24 92.19,26.85 92.41,29.59 91.66,32.08" fill="none" stroke="rgb(134, 52, 19)" stroke-width="2" stroke-linejoin="round" filter="url(#fuzzy)" /><polyline points="63.16,-36.48 64.44,-34.42 66.67,-31.75 68.58,-28.96 69.87,-26.19 70.9,-23.52 71.95,-20.97 72.99,-18.53 73.87,-16.15 74.54,-13.78 75.13,-11.39 75.83,-8.93 76.83,-6.41 78.15,-3.84 79.71,-1.25 81.33,1.34 82.81,3.9 84.01,6.44 84.84,8.94 85.31,11.42 85.43,13.91 85.28,16.42 84.95,18.97 84.58,21.57 84.34,24.16 84.34,26.69 84.58,29.1 84.89,31.36 85.12,33.54 85.19,35.77 85.13,38.18 84.82,40.81 83.92,43.42 82.78,45.73" fill="none" stroke="rgb(134, 52, 19)" stroke-width="2" stroke-linejoin="round" filter="url(#fuzzy)" /><polyline points="61.84,-39.36 64.89,-36.91 67.05,-34.49 69.05,-31.88 71.28,-29.17 73.86,-26.46 76.78,-23.82 79.88,-21.29 82.9,-18.86 85.63,-16.52 88.04,-14.2 90.35,-11.88 92.89,-9.49 95.85,-7 99.21,-4.43 102.7,-1.83 106.09,0.76 109.34,3.3 112.64,5.83 116.18,8.37 120.01,10.86 124.13,13.08 128.79,14.73 134.8,16.03" fill="none" stroke="rgb(134, 52, 19)" stroke-width="2" stroke-linejoin="round" filter="url(#fuzzy)" /><polyline points="61.59,-40.14 62.18,-38.76 63.26,-36.74 64.87,-34.38 66.85,-31.81 68.8,-29.12 70.33,-26.43 71.29,-23.79 71.77,-21.24 72.03,-18.79 72.29,-16.39 72.69,-14.02 73.22,-11.63 73.83,-9.19 74.43,-6.68 75,-4.12 75.57,-1.53 76.16,1.06 76.79,3.62 77.44,6.15 78.06,8.64 78.59,11.09 79,13.53 79.32,15.99 79.61,18.54 79.91,21.22 80.17,23.99 80.32,26.74 80.27,29.25 80.15,31.25 80.73,32.15" fill="none" stroke="rgb(134, 52, 19)" stroke-width="2" stroke-linejoin="round" filter="url(#fuzzy)" /><polyline points="57.52,-48.58 58.57,-47.46 59.92,-45.83 62.15,-43.77 65.25,-41.55 69.13,-39.3 73.63,-37 78.31,-34.62 82.66,-32.12 86.44,-29.54 89.82,-26.92 93.29,-24.32 97.26,-21.78 101.82,-19.31 106.65,-16.91 111.16,-14.57 114.74,-12.22 117.05,-9.82 118.18,-7.33 118.62,-4.75 119.21,-2.13 120.87,0.47 124.41,3 130.18,5.53 137.96,8.2 146.77,11.2 153.5,14.91" fill="none" stroke="rgb(134, 52, 19)" stroke-width="2" stroke-linejoin="round" filter="url(#fuzzy)" /><polyline points="57.52,-48.58 58.89,-47.44 63.66,-45.78 69.55,-43.69 73.26,-41.44 74.4,-39.15 74.3,-36.81 74.32,-34.38 75.2,-31.85 77.07,-29.25 79.77,-26.63 83.05,-24.03 86.66,-21.48 90.38,-18.99 93.99,-16.54 97.29,-14.11 100.11,-11.68 102.42,-9.2 104.3,-6.69 105.97,-4.13 107.63,-1.55 109.37,1.04 111.07,3.61 112.46,6.15 113.24,8.67 113.29,11.16 112.82,13.65 112.34,16.17 112.47,18.73 113.66,21.35 115.97,24 119.02,26.58 122.24,29 125.17,31.21 127.65,33.25 129.48,35.33 129.7,37.87 128.21,41.66" fill="none" stroke="rgb(134, 52, 19)" stroke-width="2" stroke-linejoin="round" filter="url(#fuzzy)" /><polyline points="55.53,-51.45 54.37,-48.18 53.7,-45.89 55.15,-43.86 57.05,-41.83 58.28,-39.73 58.51,-37.56 57.8,-35.29 56.42,-32.94 54.66,-30.53 52.8,-28.1 51.02,-25.69 49.34,-23.31 47.68,-20.96 46.01,-18.64 44.39,-16.31 42.94,-13.96 41.69,-11.57 40.46,-9.13 38.91,-6.63 36.83,-4.06 34.3,-1.43 31.52,1.3 28.35,4.16 24.76,7.03 22.37,9.01" fill="none" stroke="rgb(134, 52, 19)" stroke-width="2" stroke-linejoin="round" filter="url(#fuzzy)" /><polyline points="55.53,-51.45 58.36,-48.16 61.47,-45.86 63.52,-43.8 64.65,-41.74 65.75,-39.62 67.39,-37.42 69.69,-35.12 72.49,-32.75 75.71,-30.33 79.37,-27.89 83.56,-25.47 88.21,-23.07 93.08,-20.69 97.74,-18.33 101.76,-15.95 104.89,-13.56 107.07,-11.12 108.52,-8.63 109.54,-6.09 110.43,-3.49 111.38,-0.85 112.41,1.8 113.48,4.46 114.63,7.08 116.07,9.65 118.09,12.18 120.91,14.7 124.37,17.28 127.96,19.95 131.27,22.74 134.36,25.69 138.32,28.96" fill="none" stroke="rgb(134, 52, 19)" stroke-width="2" stroke-linejoin="round" filter="url(#fuzzy)" /><polyline points="51.52,-56.95 54.12,-53.7 56.58,-51.51 59.77,-49.63 63.61,-47.79 67.97,-45.88 72.42,-43.86 76.25,-41.73 78.89,-39.52 80.38,-37.23 81.41,-34.85 82.86,-32.38 85.33,-29.82 88.9,-27.22 93.19,-24.62 97.67,-22.07 101.96,-19.59 105.96,-17.19 109.7,-14.86 113.3,-12.55 116.93,-10.2 120.91,-7.71 125.52,-5.06 130.5,-2.32 134.99,0.28 139.57,2.58 149.13,4.68" fill="none" stroke="rgb(134, 52, 19)" stroke-width="2" stroke-linejoin="round" filter="url(#fuzzy)" /><polyline points="52.42,-55.91 58.56,-54 63.18,-52.26 65.92,-50.36 69.3,-48.33 73.43,-46.26 77.11,-44.2 79.52,-42.13 80.73,-40.03 81.37,-37.87 82.1,-35.63 83.26,-33.31 84.97,-30.92 87.24,-28.51 90.11,-26.1 93.6,-23.72 97.71,-21.38 102.34,-19.08 107.32,-16.79 112.44,-14.48 117.39,-12.15 121.6,-9.81 124.1,-7.32 123.89,-3.65" fill="none" stroke="rgb(134, 52, 19)" stroke-width="2" stroke-linejoin="round" filter="url(#fuzzy)" /><polyline points="51.59,-57.4 56.4,-55.86 57.66,-53.69 58.99,-51.63 60.56,-49.69 62.06,-47.79 63.64,-45.83 65.79,-43.78 68.91,-41.64 73.01,-39.41 77.6,-37.1 81.95,-34.69 85.41,-32.21 87.73,-29.65 89.15,-27.06 90.22,-24.48 91.59,-21.93 93.71,-19.44 96.69,-17.01 100.26,-14.61 103.97,-12.21 107.39,-9.77 110.27,-7.27 112.61,-4.7 114.52,-2.09 116.08,0.52 117.25,3.1 117.96,5.67 118.3,8.24 118.59,10.76 119.15,13.02 120.06,14.71 121.39,16.03" fill="none" stroke="rgb(134, 52, 19)" stroke-width="2" stroke-linejoin="round" filter="url(#fuzzy)" /><polyline points="51.3,-57.62 53.09,-55.85 55.18,-54.06 56.95,-52.24 58.46,-50.31 59.78,-48.28 60.95,-46.22 61.98,-44.13 62.94,-42.03 63.92,-39.89 64.97,-37.68 66.1,-35.41 67.3,-33.07 68.5,-30.68 69.65,-28.27 70.71,-25.86 71.66,-23.46 72.53,-21.09 73.34,-18.73 74.13,-16.38 74.91,-14.01 75.69,-11.6 76.48,-9.14 77.26,-6.62 78.04,-4.03 78.79,-1.38 79.45,1.34 79.91,4.12 80.13,6.83 80.31,9.21 80.74,11.16" fill="none" stroke="rgb(134, 52, 19)" stroke-width="2" stroke-linejoin="round" filter="url(#fuzzy)" /><polyline points="51.3,-57.62 53.2,-55.84 55.85,-54.04 57.78,-52.2 59,-50.25 60,-48.21 61.12,-46.13 62.47,-44.03 64.03,-41.91 65.75,-39.74 67.58,-37.51 69.48,-35.22 71.42,-32.87 73.4,-30.47 75.42,-28.05 77.47,-25.64 79.54,-23.23 81.62,-20.83 83.64,-18.45 85.55,-16.05 87.26,-13.63 88.7,-11.18 89.86,-8.68 90.76,-6.13 91.49,-3.53 92.16,-0.9 92.87,1.76 93.69,4.41 94.64,7.04 95.68,9.63 96.72,12.19 97.7,14.75 98.65,17.35 99.63,20.05 100.67,22.85 101.53,25.77 101.79,28.76 102.53,31.63" fill="none" stroke="rgb(134, 52, 19)" stroke-width="2" stroke-linejoin="round" filter="url(#fuzzy)" /><polyline points="49.38,-60 51.02,-57.88 52.45,-55.96 53.76,-54.11 54.99,-52.23 56.17,-50.27 57.31,-48.25 58.38,-46.18 59.38,-44.08 60.32,-41.96 61.19,-39.79 62.03,-37.56 62.85,-35.27 63.64,-32.92 64.4,-30.53 65.11,-28.12 65.77,-25.7 66.35,-23.3 66.86,-20.9 67.29,-18.51 67.65,-16.12 67.94,-13.71 68.17,-11.26 68.35,-8.76 68.47,-6.21 68.55,-3.61 68.58,-0.97 68.56,1.69 68.48,4.35 68.33,6.98 68.12,9.56 67.82,12.11 67.43,14.65 66.94,17.24 66.36,19.92 65.68,22.72 64.89,25.68 63.9,28.96" fill="none" stroke="rgb(134, 52, 19)" stroke-width="2" stroke-linejoin="round" filter="url(#fuzzy)" /><polyline points="46.83,-63.3 50.32,-60.47 54.09,-58.16 58.84,-56.13 64.07,-54.21 68.72,-52.31 72.16,-50.35 74.41,-48.34 75.88,-46.28 77.02,-44.2 78.15,-42.09 79.37,-39.93 80.61,-37.72 81.78,-35.44 82.86,-33.11 84.04,-30.72 85.63,-28.31 88.01,-25.9 91.39,-23.5 95.81,-21.12 101.05,-18.75 106.71,-16.38 112.29,-13.99 117.26,-11.57 121.13,-9.1 123.52,-6.57 124.28,-3.98 123.68,-1.32 122.54,1.39 122.15,4.13 123.7,6.81 127.41,9.34 132.11,11.75 136.92,14.6" fill="none" stroke="rgb(134, 52, 19)" stroke-width="2" stroke-linejoin="round" filter="url(#fuzzy)" /><polyline points="46.45,-63.11 48.48,-62.2 50.91,-60.31 53.21,-58.25 55.44,-56.27 57.83,-54.34 60.4,-52.43 62.97,-50.48 65.39,-48.49 67.68,-46.45 70.02,-44.39 72.64,-42.29 75.66,-40.16 79.04,-37.98 82.66,-35.73 86.29,-33.4 89.74,-31.02 92.88,-28.61 95.63,-26.2 97.98,-23.8 99.99,-21.44 101.72,-19.1 103.21,-16.78 104.51,-14.45 105.66,-12.09 106.71,-9.67 107.64,-7.14 108.28,-4.39 109.3,-1.85" fill="none" stroke="rgb(134, 52, 19)" stroke-width="2" stroke-linejoin="round" filter="url(#fuzzy)" /><polyline points="46.45,-63.11 51.86,-62.21 55.81,-60.31 57.11,-58.26 57.86,-56.28 59.31,-54.36 61.72,-52.45 64.94,-50.5 68.66,-48.51 72.54,-46.48 76.24,-44.42 79.44,-42.33 81.99,-40.21 83.94,-38.03 85.62,-35.78 87.47,-33.46 89.81,-31.08 92.65,-28.67 95.69,-26.25 98.57,-23.85 101.17,-21.5 103.72,-19.17 106.54,-16.86 109.74,-14.54 113.07,-12.2 116.22,-9.84 119.36,-7.33 123.41,-3.65" fill="none" stroke="rgb(134, 52, 19)" stroke-width="2" stroke-linejoin="round" filter="url(#fuzzy)" /><polyline points="44.91,-64.59 46.87,-63.11 48.66,-61.6 50.95,-59.86 54.01,-57.95 57.71,-55.95 61.65,-53.93 65.43,-51.92 68.85,-49.94 71.93,-47.96 74.81,-45.95 77.61,-43.88 80.34,-41.74 82.88,-39.51 85.08,-37.2 86.85,-34.81 88.22,-32.33 89.35,-29.79 90.45,-27.22 91.65,-24.65 93.03,-22.1 94.61,-19.6 96.42,-17.14 98.46,-14.72 100.77,-12.3 103.31,-9.85 106.03,-7.34 108.83,-4.78 111.61,-2.17 114.28,0.45 116.75,3.05 119.01,5.63 121.14,8.2 123.16,10.73 124.77,13 125.47,14.7 124.49,16.03" fill="none" stroke="rgb(134, 52, 19)" stroke-width="2" stroke-linejoin="round" filter="url(#fuzzy)" /><polyline points="42.13,-67.82 44.53,-65.25 46.58,-63.39 49.04,-61.67 52.16,-59.89 55.52,-58 58.58,-56.02 61.1,-54.02 63.15,-52.03 64.88,-50.05 66.45,-48.07 67.94,-46.07 69.42,-44.01 70.95,-41.88 72.61,-39.67 74.43,-37.38 76.47,-35 78.74,-32.53 81.25,-30 84.04,-27.42 87.13,-24.83 90.52,-22.27 94.11,-19.77 97.76,-17.33 101.23,-14.95 104.26,-12.59 106.7,-10.18 108.56,-7.68 110.08,-5.06 111.53,-2.37 113.13,0.25 114.94,2.72 116.57,5.14 115.98,7.89" fill="none" stroke="rgb(134, 52, 19)" stroke-width="2" stroke-linejoin="round" filter="url(#fuzzy)" /><polyline points="42.13,-67.76 44.53,-65.83 48.09,-64.06 51.97,-62.29 56.17,-60.41 60.47,-58.48 64.4,-56.54 67.74,-54.64 70.67,-52.74 73.43,-50.81 76.15,-48.84 78.91,-46.83 81.93,-44.8 85.5,-42.75 89.83,-40.69 94.8,-38.58 99.99,-36.39 104.87,-34.1 109.22,-31.69 113.35,-29.23 117.88,-26.8 123.13,-24.42 128.08,-22.03" fill="none" stroke="rgb(134, 52, 19)" stroke-width="2" stroke-linejoin="round" filter="url(#fuzzy)" /><polyline points="41.42,-68.21 44.13,-67 46.74,-65.23 48.23,-63.47 49.37,-61.72 50.71,-59.92 52.4,-58.02 54.44,-56.07 56.73,-54.08 59.11,-52.09 61.37,-50.11 63.34,-48.13 64.96,-46.13 66.28,-44.07 67.46,-41.94 68.65,-39.74 69.94,-37.45 71.37,-35.07 72.96,-32.61 74.75,-30.08 76.76,-27.49 79.03,-24.9 81.54,-22.34 84.21,-19.83 86.86,-17.4 89.31,-15.03 91.39,-12.68 93.1,-10.3 94.54,-7.8 95.91,-5.14 97.39,-2.4 99,0.23 100.69,2.56 103.18,4.68" fill="none" stroke="rgb(134, 52, 19)" stroke-width="2" stroke-linejoin="round" filter="url(#fuzzy)" /><polyline points="41.42,-68.21 44.02,-67.03 48.91,-65.28 53.59,-63.55 58.06,-61.84 62.58,-60.08 66.7,-58.23 69.88,-56.29 72.07,-54.32 73.76,-52.35 75.62,-50.42 78.25,-48.5 81.95,-46.57 86.78,-44.59 92.65,-42.53 99.32,-40.41 106.39,-38.23 113.35,-35.98 119.62,-33.61 124.74,-31.09 128.48,-28.39 130.98,-25.49 131.78,-22.2" fill="none" stroke="rgb(134, 52, 19)" stroke-width="2" stroke-linejoin="round" filter="url(#fuzzy)" /><polyline points="39.25,-69.6 41.83,-67.78 44.41,-65.94 46.82,-64.16 48.82,-62.35 50.42,-60.48 51.75,-58.56 52.94,-56.64 54.13,-54.73 55.39,-52.83 56.73,-50.9 58.16,-48.93 59.66,-46.93 61.18,-44.9 62.69,-42.86 64.12,-40.8 65.45,-38.7 66.65,-36.53 67.72,-34.24 68.73,-31.81 69.75,-29.32 70.78,-26.91 71.37,-24.5" fill="none" stroke="rgb(134, 52, 19)" stroke-width="2" stroke-linejoin="round" filter="url(#fuzzy)" /><polyline points="36.6,-72.26 43.46,-70.5 45.57,-69.12 46.08,-67.63 46.89,-66 48.61,-64.28 51.22,-62.49 54.55,-60.63 58.32,-58.73 62.17,-56.82 65.66,-54.92 68.53,-53.01 70.84,-51.09 73.04,-49.13 75.69,-47.12 79.17,-45.1 83.39,-43.06 87.87,-41.02 92.15,-38.97 96.38,-36.86 101.46,-34.58 108.16,-31.97 113.39,-29.01" fill="none" stroke="rgb(134, 52, 19)" stroke-width="2" stroke-linejoin="round" filter="url(#fuzzy)" /><polyline points="36.6,-72.26 39.99,-70.48 42.23,-69.06 43.91,-67.52 45.51,-65.85 47.31,-64.09 49.4,-62.25 51.65,-60.36 53.86,-58.43 55.86,-56.49 57.57,-54.54 59.07,-52.57 60.49,-50.59 61.92,-48.57 63.41,-46.52 64.94,-44.44 66.49,-42.33 68.01,-40.17 69.52,-37.95 71.01,-35.68 72.51,-33.35 73.97,-30.98 75.34,-28.58 76.55,-26.16 77.55,-23.76 78.35,-21.37 79.03,-18.99 79.69,-16.62 80.38,-14.23 81.1,-11.81 81.75,-9.34 82.26,-6.82 82.66,-4.23 83.13,-1.57 83.84,1.19 84.72,4.08 85.31,6.99 85.13,9.01" fill="none" stroke="rgb(134, 52, 19)" stroke-width="2" stroke-linejoin="round" filter="url(#fuzzy)" /><polyline points="32.79,-74.68 39.78,-73.42 41.17,-71.81 42.48,-70.18 44.94,-68.59 48.17,-67 51.47,-65.37 54.45,-63.7 57.09,-61.98 59.58,-60.19 62.03,-58.34 64.44,-56.42 66.76,-54.47 69.04,-52.51 71.41,-50.56 74.07,-48.61 77.05,-46.64 80.21,-44.64 83.2,-42.57 85.71,-40.43 87.6,-38.22 89.09,-35.93 90.62,-33.53 92.74,-30.98 95.9,-28.26 100.12,-25.39 104.74,-22.4 108.65,-19.54" fill="none" stroke="rgb(134, 52, 19)" stroke-width="2" stroke-linejoin="round" filter="url(#fuzzy)" /><polyline points="32.72,-74.53 34.58,-73.41 36.46,-72.04 38.27,-70.61 40.06,-69.13 41.88,-67.57 43.71,-65.92 45.52,-64.19 47.32,-62.38 49.08,-60.52 50.81,-58.61 52.48,-56.68 54.06,-54.75 55.54,-52.8 56.91,-50.82 58.18,-48.82 59.37,-46.8 60.48,-44.74 61.54,-42.64 62.55,-40.51 63.53,-38.33 64.49,-36.09 65.43,-33.77 66.34,-31.39 67.21,-28.96 68.02,-26.52 68.78,-24.11 69.5,-21.73 70.18,-19.41 70.81,-17.11 71.32,-14.72 71.71,-12.12 72.03,-9.37" fill="none" stroke="rgb(134, 52, 19)" stroke-width="2" stroke-linejoin="round" filter="url(#fuzzy)" /><polyline points="29.43,-76.71 35.52,-74.99 38.33,-73.55 41.64,-72.14 45.62,-70.72 49.14,-69.26 51.51,-67.74 52.89,-66.13 53.86,-64.43 55.06,-62.66 56.9,-60.83 59.56,-58.94 63.03,-57.04 67.21,-55.14 71.91,-53.23 76.89,-51.31 81.83,-49.35 86.4,-47.35 90.44,-45.31 94.21,-43.27 98.33,-41.23 103.31,-39.23 108.57,-37.36 111.88,-35.86" fill="none" stroke="rgb(134, 52, 19)" stroke-width="2" stroke-linejoin="round" filter="url(#fuzzy)" /><polyline points="29.62,-76.4 31.84,-75.21 33.9,-74.29 36.7,-73.16 40.11,-71.8 43.49,-70.32 46.3,-68.78 48.37,-67.21 49.9,-65.61 51.31,-63.97 52.95,-62.28 55.09,-60.53 57.75,-58.71 60.79,-56.81 63.96,-54.86 66.98,-52.89 69.66,-50.95 71.95,-49.08 73.99,-47.24 76.11,-45.33 78.79,-43.21 82.4,-40.95 86.81,-39.36" fill="none" stroke="rgb(134, 52, 19)" stroke-width="2" stroke-linejoin="round" filter="url(#fuzzy)" /><polyline points="27.94,-77.46 30.21,-76.33 32.24,-75.29 34.44,-74.24 37.22,-73.04 40.37,-71.68 43.56,-70.2 46.59,-68.65 49.41,-67.06 51.99,-65.42 54.34,-63.73 56.46,-61.99 58.42,-60.19 60.28,-58.33 62.13,-56.42 64.04,-54.48 66.07,-52.52 68.33,-50.55 70.95,-48.57 74.09,-46.57 77.86,-44.53 82.29,-42.43 87.3,-40.27 92.67,-38.02 98.06,-35.69 103.12,-33.25 107.56,-30.7 111.35,-28.05 114.85,-25.37 118.73,-22.73 123.55,-20.19 128.92,-17.7 133.14,-14.95 133.27,-11.56" fill="none" stroke="rgb(134, 52, 19)" stroke-width="2" stroke-linejoin="round" filter="url(#fuzzy)" /><polyline points="25.11,-78.88 27.5,-77.61 29.54,-76.46 31.32,-75.4 32.98,-74.34 34.67,-73.16 36.43,-71.84 38.24,-70.41 40.03,-68.9 41.76,-67.35 43.4,-65.75 44.95,-64.12 46.42,-62.44 47.84,-60.71 49.24,-58.9 50.64,-57.01 52.05,-55.04 53.46,-53.04 54.8,-51.09 56.01,-49.25 57.02,-47.6 57.9,-45.99 59.2,-43.66" fill="none" stroke="rgb(134, 52, 19)" stroke-width="2" stroke-linejoin="round" filter="url(#fuzzy)" /><polyline points="18.79,-81.27 21.85,-80.63 25.27,-79.72 29.05,-78.71 32.33,-77.64 35.17,-76.55 38.14,-75.45 41.64,-74.29 45.76,-73.06 50.31,-71.73 55.1,-70.3 59.95,-68.8 64.72,-67.23 69.27,-65.61 73.41,-63.94 76.99,-62.22 79.91,-60.44 82.16,-58.59 83.84,-56.7 85.16,-54.76 86.4,-52.8 87.81,-50.84 89.69,-48.88 92.31,-46.91 95.96,-44.9 100.8,-42.83 106.77,-40.7 113.39,-38.51 119.93,-36.25 125.7,-33.89 130.52,-31.37 134.6,-28.69 137.54,-26.02" fill="none" stroke="rgb(134, 52, 19)" stroke-width="2" stroke-linejoin="round" filter="url(#fuzzy)" /><polyline points="18.79,-81.27 21.25,-80.62 24.29,-79.71 26.92,-78.69 29.11,-77.62 31.32,-76.53 33.9,-75.41 36.94,-74.25 40.3,-73 43.85,-71.66 47.6,-70.22 51.66,-68.71 56.11,-67.13 60.9,-65.5 65.79,-63.82 70.41,-62.07 74.49,-60.28 77.91,-58.42 80.84,-56.52 83.6,-54.58 86.55,-52.62 89.89,-50.65 93.55,-48.66 97.21,-46.65 100.5,-44.61 103.17,-42.5 105.34,-40.33 107.48,-38.08 110.26,-35.74 114.15,-33.3 119.16,-30.75 124.73,-28.11 130.04,-25.42 134.37,-22.76 137.47,-20.21 139.67,-17.71 142.03,-14.96 145.89,-11.56" fill="none" stroke="rgb(134, 52, 19)" stroke-width="2" stroke-linejoin="round" filter="url(#fuzzy)" /><polyline points="20.06,-80.91 21.51,-80.49 23.43,-79.79 25.49,-79.02 27.78,-78.19 30.31,-77.25 32.96,-76.18 35.58,-74.99 38.09,-73.7 40.52,-72.34 42.91,-70.93 45.32,-69.45 47.77,-67.92 50.29,-66.31 52.91,-64.63 55.64,-62.87 58.48,-61.05 61.36,-59.18 64.18,-57.28 66.86,-55.36 69.42,-53.45 71.93,-51.51 74.52,-49.54 77.27,-47.52 80.16,-45.47 83.13,-43.41 86.05,-41.32 88.68,-39.23 91.35,-36.93" fill="none" stroke="rgb(134, 52, 19)" stroke-width="2" stroke-linejoin="round" filter="url(#fuzzy)" /><polyline points="16.91,-81.82 20.66,-81.27 23.15,-80.55 25.41,-79.68 27.48,-78.69 29.42,-77.64 31.31,-76.56 33.17,-75.45 35.04,-74.28 36.98,-73.04 39.02,-71.7 41.18,-70.28 43.43,-68.77 45.69,-67.21 47.92,-65.58 50.09,-63.91 52.24,-62.18 54.46,-60.39 56.86,-58.54 59.47,-56.64 62.25,-54.71 65.08,-52.75 67.76,-50.78 70.13,-48.81 72.14,-46.82 73.84,-44.79 75.35,-42.71 76.85,-40.56 78.44,-38.34 80.19,-36.04 82.11,-33.62 84.23,-31.06 86.55,-28.33 89.05,-25.44 91.67,-22.43 93.81,-19.54" fill="none" stroke="rgb(134, 52, 19)" stroke-width="2" stroke-linejoin="round" filter="url(#fuzzy)" /><polyline points="15.21,-82.58 18.62,-81.42 20.96,-80.59 22.97,-79.81 24.83,-79.02 26.68,-78.16 28.62,-77.2 30.69,-76.12 32.83,-74.93 34.98,-73.65 37.09,-72.29 39.17,-70.86 41.25,-69.37 43.37,-67.82 45.54,-66.2 47.74,-64.5 49.91,-62.74 52.01,-60.91 54.06,-59.04 56.07,-57.13 58.1,-55.21 60.19,-53.27 62.32,-51.3 64.43,-49.31 66.45,-47.29 68.29,-45.25 69.95,-43.18 71.48,-41.1 73,-38.99 74.61,-36.81 76.34,-34.49 78.12,-32 79.79,-29.42 81.63,-27.23" fill="none" stroke="rgb(134, 52, 19)" stroke-width="2" stroke-linejoin="round" filter="url(#fuzzy)" /><polyline points="11.96,-83.39 13.68,-82.98 15.26,-82.48 17.01,-81.9 18.95,-81.25 21.03,-80.49 23.24,-79.64 25.56,-78.7 27.96,-77.69 30.37,-76.64 32.73,-75.53 35,-74.37 37.18,-73.13 39.29,-71.82 41.38,-70.41 43.49,-68.93 45.61,-67.39 47.73,-65.78 49.85,-64.12 51.96,-62.41 54.08,-60.64 56.24,-58.8 58.42,-56.91 60.61,-54.97 62.76,-53 64.82,-51.04 66.79,-49.1 68.68,-47.16 70.53,-45.18 72.28,-43.1 73.86,-40.95 75.21,-38.81 76.43,-36.8 77.59,-35.06" fill="none" stroke="rgb(134, 52, 19)" stroke-width="2" stroke-linejoin="round" filter="url(#fuzzy)" /><polyline points="7.75,-83.9 11.43,-83.27 13.97,-82.73 16.22,-82.11 18.38,-81.41 20.45,-80.66 22.42,-79.89 24.32,-79.08 26.19,-78.21 28.07,-77.26 29.98,-76.21 31.93,-75.06 33.9,-73.81 35.86,-72.48 37.8,-71.09 39.71,-69.63 41.58,-68.11 43.42,-66.52 45.23,-64.85 47,-63.11 48.72,-61.29 50.4,-59.41 52.02,-57.51 53.56,-55.6 55.03,-53.7 56.43,-51.79 57.81,-49.82 59.19,-47.76 60.41,-45.92 60.91,-45.29" fill="none" stroke="rgb(134, 52, 19)" stroke-width="2" stroke-linejoin="round" filter="url(#fuzzy)" /><polyline points="7.21,-84.05 10.84,-83.5 13.31,-83.01 15.31,-82.5 17.18,-81.94 19.11,-81.3 21.15,-80.57 23.29,-79.75 25.51,-78.84 27.76,-77.86 29.98,-76.84 32.16,-75.77 34.32,-74.67 36.5,-73.5 38.75,-72.23 41.05,-70.87 43.36,-69.42 45.61,-67.9 47.77,-66.33 49.87,-64.72 51.94,-63.09 54.06,-61.44 56.29,-59.62 58.6,-57.4" fill="none" stroke="rgb(134, 52, 19)" stroke-width="2" stroke-linejoin="round" filter="url(#fuzzy)" /><polyline points="6.71,-84.13 8.65,-83.87 11.77,-83.46 15.06,-82.99 18.06,-82.47 20.55,-81.88 22.61,-81.22 24.59,-80.47 26.83,-79.63 29.52,-78.71 32.64,-77.71 36,-76.67 39.38,-75.57 42.62,-74.41 45.63,-73.17 48.41,-71.86 51.04,-70.46 53.63,-68.99 56.34,-67.45 59.32,-65.85 62.68,-64.2 66.4,-62.49 70.4,-60.72 74.54,-58.88 78.71,-56.99 82.87,-55.04 87.01,-53.07 91.11,-51.11 95.18,-49.18 99.34,-47.26 103.84,-45.29 108.89,-43.19 114.15,-40.97 118.54,-38.79 121.2,-36.48" fill="none" stroke="rgb(134, 52, 19)" stroke-width="2" stroke-linejoin="round" filter="url(#fuzzy)" /><polyline points="6.71,-84.13 8.36,-83.88 10.71,-83.47 12.86,-83.01 14.79,-82.49 16.64,-81.92 18.51,-81.28 20.43,-80.55 22.4,-79.72 24.4,-78.81 26.38,-77.84 28.31,-76.81 30.17,-75.73 31.98,-74.61 33.76,-73.42 35.52,-72.14 37.27,-70.78 39,-69.32 40.68,-67.8 42.31,-66.22 43.88,-64.61 45.39,-62.96 46.84,-61.27 48.27,-59.53 49.71,-57.66 51.25,-55.5 53.44,-52.23" fill="none" stroke="rgb(134, 52, 19)" stroke-width="2" stroke-linejoin="round" filter="url(#fuzzy)" /><polyline points="0.14,-84.71 2.99,-84.48 4.87,-84.28 6.67,-84 8.61,-83.64 10.7,-83.19 12.85,-82.65 14.97,-82.05 16.98,-81.38 18.86,-80.65 20.63,-79.88 22.32,-79.06 24.01,-78.17 25.75,-77.2 27.55,-76.14 29.39,-74.98 31.24,-73.74 33.03,-72.42 34.71,-71.02 36.26,-69.55 37.67,-68.01 38.97,-66.4 40.2,-64.72 41.42,-62.97 42.65,-61.15 43.92,-59.29 45.21,-57.38 46.47,-55.46 47.62,-53.52 48.58,-51.56 49.33,-49.57 49.87,-47.54 50.26,-45.48 50.59,-43.41 50.92,-41.34 51.34,-39.3 51.83,-37.39 51.9,-35.86" fill="none" stroke="rgb(134, 52, 19)" stroke-width="2" stroke-linejoin="round" filter="url(#fuzzy)" /><polyline points="0.14,-84.71 2.77,-84.48 4.35,-84.29 6.04,-84.03 8.05,-83.67 10.17,-83.24 12.21,-82.72 14.13,-82.14 15.94,-81.49 17.61,-80.78 19.1,-80.04 20.36,-79.26 21.44,-78.42 22.46,-77.52 23.57,-76.52 24.87,-75.42 26.32,-74.21 27.77,-72.92 29.05,-71.56 30.03,-70.16 30.66,-68.71 31.03,-67.17 31.28,-65.54 31.52,-64.01 31.34,-63.3" fill="none" stroke="rgb(134, 52, 19)" stroke-width="2" stroke-linejoin="round" filter="url(#fuzzy)" /><polyline points="0.14,-84.71 3.06,-84.48 5.08,-84.29 7.07,-84.02 9.28,-83.67 11.71,-83.23 14.3,-82.72 16.98,-82.13 19.68,-81.47 22.33,-80.77 24.84,-80.02 27.18,-79.23 29.36,-78.4 31.43,-77.48 33.52,-76.48 35.72,-75.37 38.1,-74.16 40.73,-72.86 43.6,-71.5 46.65,-70.09 49.76,-68.63 52.71,-67.09 55.3,-65.49 57.57,-63.87 60.02,-62.23 63.91,-60" fill="none" stroke="rgb(134, 52, 19)" stroke-width="2" stroke-linejoin="round" filter="url(#fuzzy)" />
    </g>
    
        <g id="pointNose">
          <g id="rightNose"><circle r="2.626" cx="6.106" cy="4.72" stroke="black" fill="none" stroke-width="1.0" filter="url(#fuzzy)" /><circle r="1.736" cx="7.286" cy="3.992" stroke="black" fill="none" stroke-width="1.0" filter="url(#fuzzy)" /><circle r="2.268" cx="8.126000000000001" cy="5.496" stroke="black" fill="none" stroke-width="1.0" filter="url(#fuzzy)" /><circle r="1.3940000000000001" cx="6.638" cy="3.6799999999999997" stroke="black" fill="none" stroke-width="1.0" filter="url(#fuzzy)" /><circle r="1.938" cx="9.79" cy="3.5839999999999996" stroke="black" fill="none" stroke-width="1.0" filter="url(#fuzzy)" /><circle r="1.654" cx="9.626000000000001" cy="4.816" stroke="black" fill="none" stroke-width="1.0" filter="url(#fuzzy)" /><circle r="2.528" cx="7.1419999999999995" cy="4.916" stroke="black" fill="none" stroke-width="1.0" filter="url(#fuzzy)" /><circle r="2.566" cx="7.618" cy="6.588000000000001" stroke="black" fill="none" stroke-width="1.0" filter="url(#fuzzy)" /><circle r="2.032" cx="6.550000000000001" cy="4.192" stroke="black" fill="none" stroke-width="1.0" filter="url(#fuzzy)" /><circle r="2.012" cx="7.3260000000000005" cy="4.763999999999999" stroke="black" fill="none" stroke-width="1.0" filter="url(#fuzzy)" /></g>
          <g id="leftNose"><circle r="1.062" cx="-9.434000000000001" cy="2.4800000000000004" stroke="black" fill="none" stroke-width="1.0" filter="url(#fuzzy)" /><circle r="1.226" cx="-7.494" cy="3.1080000000000005" stroke="black" fill="none" stroke-width="1.0" filter="url(#fuzzy)" /><circle r="1.8980000000000001" cx="-6.498" cy="1.6520000000000001" stroke="black" fill="none" stroke-width="1.0" filter="url(#fuzzy)" /><circle r="2.4779999999999998" cx="-7.666" cy="3.0920000000000005" stroke="black" fill="none" stroke-width="1.0" filter="url(#fuzzy)" /><circle r="2.49" cx="-6.3660000000000005" cy="1.016" stroke="black" fill="none" stroke-width="1.0" filter="url(#fuzzy)" /><circle r="1.294" cx="-8.646" cy="2.6799999999999997" stroke="black" fill="none" stroke-width="1.0" filter="url(#fuzzy)" /><circle r="2.548" cx="-8.194" cy="4.196" stroke="black" fill="none" stroke-width="1.0" filter="url(#fuzzy)" /><circle r="2.692" cx="-10.17" cy="2.816" stroke="black" fill="none" stroke-width="1.0" filter="url(#fuzzy)" /><circle r="1.004" cx="-8.642" cy="3.8840000000000003" stroke="black" fill="none" stroke-width="1.0" filter="url(#fuzzy)" /><circle r="1.756" cx="-7.282" cy="1.992" stroke="black" fill="none" stroke-width="1.0" filter="url(#fuzzy)" /></g>
        </g>
      
    <g id="mouth">
      <polyline points="-24.84,82.58 -24.64,81.27 -24.42,79.98 -24.17,78.73 -23.91,77.5 -23.62,76.29 -23.31,75.12 -22.98,73.97 -22.63,72.85 -22.27,71.76 -21.88,70.69 -21.48,69.65 -21.06,68.63 -20.62,67.65 -20.16,66.69 -19.69,65.75 -19.21,64.85 -18.71,63.97 -18.19,63.11 -17.66,62.28 -17.12,61.48 -16.56,60.71 -15.99,59.96 -15.41,59.23 -14.81,58.54 -14.21,57.87 -13.59,57.22 -12.97,56.6 -12.33,56.01 -11.69,55.44 -11.04,54.9 -10.38,54.38 -9.71,53.89 -9.03,53.42 -8.35,52.98 -7.66,52.57 -6.97,52.18 -6.27,51.82 -5.56,51.48 -4.85,51.16 -4.14,50.87 -3.43,50.61 -2.71,50.37 -1.99,50.16 -1.27,49.97 -0.54,49.8 0.18,49.66 0.9,49.55 1.63,49.46 2.35,49.39 3.07,49.35 3.79,49.33 4.51,49.34 5.22,49.37 5.93,49.43 6.64,49.51 7.34,49.61 8.04,49.74 8.74,49.89 9.42,50.07 10.11,50.27 10.78,50.49 11.45,50.74 12.11,51.01 12.76,51.3 13.4,51.62 14.04,51.96 14.66,52.33 15.27,52.72 15.88,53.13 16.47,53.56 17.05,54.02 17.61,54.5 18.17,55 18.71,55.53 19.24,56.08 19.75,56.65 20.25,57.25 20.74,57.87 21.21,58.51 21.66,59.17 22.09,59.86 22.51,60.57 22.91,61.3 23.3,62.05 23.66,62.83 24,63.62 24.33,64.44 24.63,65.29 24.92,66.15 25.18,67.04 25.42,67.94 25.64,68.87 25.84,69.83 26.01,70.8 26.16,71.8 26.29,72.81 26.39,73.85 26.47,74.91 26.52,75.99 26.54,77.1 26.52,75.99 26.47,74.91 26.39,73.85 26.29,72.81 26.16,71.8 26.01,70.8 25.84,69.83 25.64,68.87 25.42,67.94 25.18,67.04 24.92,66.15 24.63,65.29 24.33,64.44 24,63.62 23.66,62.83 23.3,62.05 22.91,61.3 22.51,60.57 22.09,59.86 21.66,59.17 21.21,58.51 20.74,57.87 20.25,57.25 19.75,56.65 19.24,56.08 18.71,55.53 18.17,55 17.61,54.5 17.05,54.02 16.47,53.56 15.88,53.13 15.27,52.72 14.66,52.33 14.04,51.96 13.4,51.62 12.76,51.3 12.11,51.01 11.45,50.74 10.78,50.49 10.11,50.27 9.42,50.07 8.74,49.89 8.04,49.74 7.34,49.61 6.64,49.51 5.93,49.43 5.22,49.37 4.51,49.34 3.79,49.33 3.07,49.35 2.35,49.39 1.63,49.46 0.9,49.55 0.18,49.66 -0.54,49.8 -1.27,49.97 -1.99,50.16 -2.71,50.37 -3.43,50.61 -4.14,50.87 -4.85,51.16 -5.56,51.48 -6.27,51.82 -6.97,52.18 -7.66,52.57 -8.35,52.98 -9.03,53.42 -9.71,53.89 -10.38,54.38 -11.04,54.9 -11.69,55.44 -12.33,56.01 -12.97,56.6 -13.59,57.22 -14.21,57.87 -14.81,58.54 -15.41,59.23 -15.99,59.96 -16.56,60.71 -17.12,61.48 -17.66,62.28 -18.19,63.11 -18.71,63.97 -19.21,64.85 -19.69,65.75 -20.16,66.69 -20.62,67.65 -21.06,68.63 -21.48,69.65 -21.88,70.69 -22.27,71.76 -22.63,72.85 -22.98,73.97 -23.31,75.12 -23.62,76.29 -23.91,77.5 -24.17,78.73 -24.42,79.98 -24.64,81.27" fill="rgb(131, 102, 204)" stroke="black" stroke-width="3" stroke-linejoin="round" filter="url(#fuzzy)" />
    </g>
  </svg>