<svg xmlns="http://www.w3.org/2000/svg" width="500" height="500" viewBox="-100 -100 200 200"><defs><clipPath id="c"><path d="m30.83-7.73-.11-.2-.13-.2-.17-.19-.21-.18-.24-.18-.28-.17-.31-.16-.34-.15-.37-.15-.41-.14-.43-.13-.47-.13-.49-.12-.53-.11-.55-.1-.54-.14-.58-.12-.62-.12-.67-.11-.7-.1-.75-.09-.78-.08-.82-.08-.85-.06-.88-.06-.92-.05-.94-.04-.97-.04-1-.03-1.01-.01-1.04-.02h-2.14l-1.09.01-1.1.01-1.11.03-1.12.02-1.13.04-1.13.04-1.13.04-1.13.05-1.13.06-1.13.05-1.12.07-1.11.07-1.1.07-1.09.08-1.07.08-1.06.09-1.05.08-1.03.1-1.01.09-.99.1-.97.11-.94.1-.93.11-.9.11-.88.12-.85.11-.83.12-.81.12-.78.13-.75.13-.73.13-.71.13-.68.13-.66.14-.64.14-.62.14-.6.15-.57.15-.55.15-.53.15-.5.16-.49.16-.46.16-.44.17-.42.17-.39.17 3.67 5.77.25.39.28.4.3.4.32.4.34.4.36.41.37.4.4.4.41.41.43.4.44.4.47.4.48.39.49.39.52.38.53.39.55.38.57.38.58.37.61.37.61.36.64.34.65.34.66.32.67.31.69.29.7.28.71.25.73.24.73.22.74.19.75.17.76.15.76.13.78.1.78.07.79.05.79.02.8-.01.81-.04.81-.06.82-.09.82-.12.82-.14.83-.17.84-.2.84-.23.84-.25.85-.28.85-.3.86-.33.86-.35.86-.37.87-.39.87-.4.87-.43.88-.44.87-.46.88-.47.88-.48.88-.49.88-.5.88-.51.88-.51.71-.41.7-.41.7-.42.69-.42.67-.42.67-.42.65-.42.64-.42.63-.42.61-.41.59-.41.58-.41.55-.4.53-.39.51-.38"/></clipPath><clipPath id="b"><path d="m-30.64-8.64.3-.23.32-.22.35-.21.38-.21.41-.19.43-.19.46-.18.48-.18.51-.16.54-.16.55-.15.58-.14.6-.13.63-.13.64-.12.67-.15.7-.15.73-.13.77-.12.79-.12.82-.1.85-.1.88-.09.91-.08.92-.07.96-.06.97-.05.99-.05 1.01-.03 1.03-.03 1.04-.02 1.05-.02h2.14l1.09.01 1.09.01 1.09.02 1.1.03 1.09.03 1.1.04 1.09.04 1.09.05 1.09.05 1.07.06 1.07.06 1.06.06 1.05.07 1.04.07 1.02.07 1.01.08.99.08.97.09.96.08.94.09.92.09.9.09.88.09.86.09.84.1.82.1.79.09.78.1.75.1.73.1.71.1.69.1.67.11.66.1.63.1.62.11.6.1.58.11.56.11.54.11.53.11.5.11.49.11.47.11.45.12-5.3 6.83-.28.41-.31.41-.33.41-.35.42-.38.43-.4.43-.42.43-.45.43-.47.44-.48.44-.52.44-.53.44-.55.44-.58.44-.59.44-.63.44-.64.44-.67.45-.69.44-.71.44-.74.43-.75.43-.78.42-.8.42-.81.4-.84.39-.85.38-.87.37-.89.35-.9.33-.91.32-.93.29-.93.28-.95.25-.96.23-.96.2-.97.18-.98.15-.98.12-.98.1-.99.06-.98.03h-.98l-.99-.03-.97-.06-.98-.1-.96-.13-.96-.17-.95-.2-.94-.23-.93-.27-.92-.29-.9-.34-.89-.36-.88-.4-.86-.43-.84-.45-.83-.49-.8-.51-.79-.54-.76-.56-.75-.59-.72-.61-.7-.62-.64-.45-.62-.46-.6-.47-.59-.48-.57-.49-.55-.49-.53-.49-.51-.5-.5-.5-.46-.5-.45-.5-.42-.5-.4-.49-.38-.48-.35-.48"/></clipPath><filter id="a"><feTurbulence baseFrequency=".05" numOctaves="3" result="noise" type="noise"/><feDisplacementMap in="SourceGraphic" in2="noise" scale="2"/></filter></defs><rect width="100%" height="100%" x="-100" y="-100" fill="#CCF"/><path fill="tan" stroke="#000" stroke-linejoin="round" stroke-width="1.667" d="M80.37-.53 80.2.94l.03 2.03-.01 2.51-.01-.13-.19.51-.27 3.59.09 1.17-.28 2.47v.33l-.27 1.73-.49 1.55-.13 1.15-.1.02-.3 2.39-.29 2.24-.2-.08-.87 4.41.14-1.21-.45 1.82-.78 3.47.11-.41.05-.35-.97 3.32-.23.66-1 2.9-1.14 3.28.39-.85-.27.72-.61 1.86-.22-.17-.5 1.3-1.02 2.97-1.32 2.03-.7 1.66-1.01 1.76-.03.2-.14.19-.26.69-1.3 2.52-.98 1.5-.3.88-1.15 1.14-.93 1.52-.1.65-.96 1.13-1.35 2.02-.33-.44-2.26 3.53.61-.8.15-.32-1.87 2.62-.98 1.08-.8.67h-.25l-.89 1.52-1.4.95-2.17 2.07.18-.26-1.2 1.13-.7.76-2.58 2.51.34-.43-1.85 1.24-1.04.78-1.45 1.04-.46.94-2.07 1.27-1.35.61-1.56 1.15.13-.16-1.47.81-1.16.76.46-.22-2.79 1.43.14-.16L29 89.44l-1.76.68-.71.28-.39.18-1.58.54-1.02.21-.85.48-1.25.81-2.16.3-1.76.43-.49.01-.32.26-1.29.4-3.49.77 2.19-.51-2.38.27-3.23.88 1.57-.57-2.79.72-.4.02-3.21.21.54-.17-2.54.28-.29.01-2.66-.37.72.37-2.34-.01-2.55-.27-1.01.06-.98-.52.04.38-1.02-.15-.26-.11-3.62-.5.79.15-3.61-.84 1.7.41-4.07-1.12 1.09.52-3.57-1.27-1.72-.58-.42-.08.03.13-.69-.52-4.06-1.48 1.34.56-1.61-.47-1.53-.62-1.09-.63-1.72-.68-.52-.62-1.64-.64-.17-.16-2.6-1.67-1.21-.35-1.7-1.27.66.13-1.19-.37-1.9-1.71 1.54 1.21-2.75-1.83-1.39-1.11-1.53-1.09.86.46-2.73-2.44-.31-.02-2.22-2.17.79.47-1.57-1.74-.08.23-2.48-2.48.77 1.16-1.65-1.84-1.18-1.16-.73-1.05-1.88-2.83-.57-.35-.42-.16.39-.23-1.18-.99-1.58-2.07-.6-.84-1.18-2.4.5.99-1.35-2.25-1.74-2.64-.76-.95-.22-.94-.24.14-1.81-3.98-.2-.94-1.05-1.23.1-1.11-.09.69-.28-.71-.55-1.37-1.58-3.74-.04.53-.6-1.98-1.2-3.48.01-.52.06 1.27-.9-4.13-.58-1-.66-2.37.55.66-.8-2.97-.43-.78-.39-1.63.24-.3-.77-2.8-.63-2.56-.12-1.13.2-.82-.33-.31-.4-2.68-.28-3.04-.02-.79-.12.1.16-1.41-.26-1.44-.2-1.69-.05-2.14.27-2.44.05-2.93-.16 1.22-.13-.88.12-1.55-.09-2.7v-.48l.4-1.21.09-3.97-.13.77.55-1.63.37-3.89.16-.82-.19-.33.27.45.75-4.48.29-.96-.14-.52-.21.45 1.04-4.8-.06 1.29.26-1.35.76-3.12.33-.96.41-.83 1.03-3.58.27-.52.77-2.25.36-.76.42-1.65.21.33.84-3.05.74-1.68.09.24 1.42-2.9.36-.5 1.39-2.97-.15.38.46-1.16.65-1.18 1.21-1.56.01-.33 1.56-2.33-.64.84.43-.58 1.93-3.39 2.22-2.65-1.25 1.66 2.86-3.85-.71.78.99-.97.16-.5.44-.13 2.34-3.4-.31.37 2.29-2.13.23-.24 2.35-2.24-.06.09 1.53-1.54.49-.42 1.14-1.21.2.24 1.22-1.13.68-.94 2.28-1.66-.29.16 2.56-1.58.95-.67.7-.51.84-.88 1.74-1.06.83-.51 1.45-.6 2.45-1.54-1.49.68 1.74-.66 2.9-1.19.52-.27.62-.37 1.02-.18 1.36-.96-.2.23 3.54-1.14 1.84-.82-.12.05.98-.18 1.37-.22.51-.57 1.05.1.3-.35 5.06-1.03.18.2.07-.04 2.26-.34.64-.08-.45.1 2.68-.16 1.79-.44 2.29-.04.96-.05.02.21 1.5-.23.32.19 2.25-.06 2.05.48-1.27-.11 1.73.15 2.08-.01 1.02.05 2.49.44-.32.17 2.41.17.72.43 1.5.42 2.09.41v-.05l1.36.53.56.35 3.14.8h-.64l3.26 1.05.11.34 1.28.06.58.58 3.12 1.4.59.08-.79-.03.59.07 2.11 1.45 2.6 1.27-.13.12-.05-.11 2.28 1.24 1.84 1.56.82.57-.77-.71 3.25 2.38 1.61 1.22.28.29-.08-.05.75.64.66.43 1.52 1.16 1.91 2.4 1.86 1.39.58.53.68.87-.8-.66 1.21 1.49 2.44 2.32.01.28.86 1.18 1.32.95 1.25 2.35.9.62.83 1.44.98 1.51 1.08 1.48.07.39.95 1.54 1.01 1.33 1.18 1.6-.03.4.69 1.18 1.4 2.96.63.8.19.31.16.86 1.5 2.64-.62-1.24 1.11 2.55.18 1.03.26 1.02.84 2.11L74-37.4l.43 1.52-.48-.89 1.25 2.99.08 1.37.65 1.6.71 2.7.13.85.12.29.28 1.63.27.01.61 3.31-.15.11.8 2.24.07 1.78-.04.66.74 2.91-.06.51.18 3.17-.12.11.53 3.36-.01-.61.15 2.52-.19 3.69.19.19.15-.61.08 1.46L80.2.94" filter="url(#a)"/><path fill="#fff" d="m-30.64-8.64.3-.23.32-.22.35-.21.38-.21.41-.19.43-.19.46-.18.48-.18.51-.16.54-.16.55-.15.58-.14.6-.13.63-.13.64-.12.67-.15.7-.15.73-.13.77-.12.79-.12.82-.1.85-.1.88-.09.91-.08.92-.07.96-.06.97-.05.99-.05 1.01-.03 1.03-.03 1.04-.02 1.05-.02h2.14l1.09.01 1.09.01 1.09.02 1.1.03 1.09.03 1.1.04 1.09.04 1.09.05 1.09.05 1.07.06 1.07.06 1.06.06 1.05.07 1.04.07 1.02.07 1.01.08.99.08.97.09.96.08.94.09.92.09.9.09.88.09.86.09.84.1.82.1.79.09.78.1.75.1.73.1.71.1.69.1.67.11.66.1.63.1.62.11.6.1.58.11.56.11.54.11.53.11.5.11.49.11.47.11.45.12-5.3 6.83-.28.41-.31.41-.33.41-.35.42-.38.43-.4.43-.42.43-.45.43-.47.44-.48.44-.52.44-.53.44-.55.44-.58.44-.59.44-.63.44-.64.44-.67.45-.69.44-.71.44-.74.43-.75.43-.78.42-.8.42-.81.4-.84.39-.85.38-.87.37-.89.35-.9.33-.91.32-.93.29-.93.28-.95.25-.96.23-.96.2-.97.18-.98.15-.98.12-.98.1-.99.06-.98.03h-.98l-.99-.03-.97-.06-.98-.1-.96-.13-.96-.17-.95-.2-.94-.23-.93-.27-.92-.29-.9-.34-.89-.36-.88-.4-.86-.43-.84-.45-.83-.49-.8-.51-.79-.54-.76-.56-.75-.59-.72-.61-.7-.62-.64-.45-.62-.46-.6-.47-.59-.48-.57-.49-.55-.49-.53-.49-.51-.5-.5-.5-.46-.5-.45-.5-.42-.5-.4-.49-.38-.48-.35-.48" filter="url(#a)" transform="translate(51.66 -28.12)"/><path fill="#fff" d="m30.83-7.73-.11-.2-.13-.2-.17-.19-.21-.18-.24-.18-.28-.17-.31-.16-.34-.15-.37-.15-.41-.14-.43-.13-.47-.13-.49-.12-.53-.11-.55-.1-.54-.14-.58-.12-.62-.12-.67-.11-.7-.1-.75-.09-.78-.08-.82-.08-.85-.06-.88-.06-.92-.05-.94-.04-.97-.04-1-.03-1.01-.01-1.04-.02h-2.14l-1.09.01-1.1.01-1.11.03-1.12.02-1.13.04-1.13.04-1.13.04-1.13.05-1.13.06-1.13.05-1.12.07-1.11.07-1.1.07-1.09.08-1.07.08-1.06.09-1.05.08-1.03.1-1.01.09-.99.1-.97.11-.94.1-.93.11-.9.11-.88.12-.85.11-.83.12-.81.12-.78.13-.75.13-.73.13-.71.13-.68.13-.66.14-.64.14-.62.14-.6.15-.57.15-.55.15-.53.15-.5.16-.49.16-.46.16-.44.17-.42.17-.39.17 3.67 5.77.25.39.28.4.3.4.32.4.34.4.36.41.37.4.4.4.41.41.43.4.44.4.47.4.48.39.49.39.52.38.53.39.55.38.57.38.58.37.61.37.61.36.64.34.65.34.66.32.67.31.69.29.7.28.71.25.73.24.73.22.74.19.75.17.76.15.76.13.78.1.78.07.79.05.79.02.8-.01.81-.04.81-.06.82-.09.82-.12.82-.14.83-.17.84-.2.84-.23.84-.25.85-.28.85-.3.86-.33.86-.35.86-.37.87-.39.87-.4.87-.43.88-.44.87-.46.88-.47.88-.48.88-.49.88-.5.88-.51.88-.51.71-.41.7-.41.7-.42.69-.42.67-.42.67-.42.65-.42.64-.42.63-.42.61-.41.59-.41.58-.41.55-.4.53-.39.51-.38" filter="url(#a)" transform="translate(-55.98 -30.8)"/><g fill="none" stroke="#000" transform="translate(51.66 -28.12)"><path stroke-linejoin="round" stroke-width="1.667" d="m-31.92-5.9-.02-.31.02-.3.05-.3.09-.29.11-.27.15-.28.17-.26.21-.25.23-.25.27-.23.3-.23.32-.22.35-.21.38-.21.41-.19.43-.19.46-.18.48-.18.51-.16.54-.16.55-.15.58-.14.6-.13.63-.13.64-.12.67-.15.7-.15.73-.13.77-.12.79-.12.82-.1.85-.1.88-.09.91-.08.92-.07.96-.06.97-.05.99-.05 1.01-.03 1.03-.03 1.04-.02 1.05-.02h2.14l1.09.01 1.09.01 1.09.02 1.1.03 1.09.03 1.1.04 1.09.04 1.09.05 1.09.05 1.07.06 1.07.06 1.06.06 1.05.07 1.04.07 1.02.07 1.01.08.99.08.97.09.96.08.94.09.92.09.9.09.88.09.86.09.84.1.82.1.79.09.78.1.75.1.73.1.71.1.69.1.67.11.66.1.63.1.62.11.6.1.58.11.56.11.54.11.53.11.5.11.49.11.47.11.45.12.43.11.42.11.4.12.38.11.37.12.35.12.33.12.32.11.3.12.29.12" filter="url(#a)"/><path stroke-linejoin="round" stroke-width="2.222" d="m-32.06-5.79.05.26.08.3.12.33.15.35.17.38.21.4.24.42.27.44.3.45.32.46.35.48.38.48.4.49.42.5.45.5.46.5.5.5.51.5.53.49.55.49.57.49.59.48.6.47.62.46.64.45.7.62.72.61.75.59.76.56.79.54.8.51.83.49.84.45.86.43.88.4.89.36.9.34.92.29.93.27.94.23.95.2.96.17.96.13.98.1.97.06.99.03h.98l.98-.03.99-.06.98-.1.98-.12.98-.15.97-.18.96-.2.96-.23.95-.25.93-.28.93-.29.91-.32.9-.33.89-.35.87-.37.85-.38.84-.39.81-.4.8-.42.78-.42.75-.43.74-.43.71-.44.69-.44.67-.45.64-.44.63-.44.59-.44.58-.44.55-.44.53-.44.52-.44.48-.44.47-.44.45-.43.42-.43.4-.43.38-.43.35-.42.33-.41.31-.41.28-.41.27-.4.24-.4.21-.38.2-.39.17-.37.16-.37.13-.37.11-.35.08-.35.07-.35" filter="url(#a)"/><circle cx="-14.18" cy="-4.275" r="4.676" clip-path="url(#b)" filter="url(#a)"/><circle cx="-10.215" cy="-4.425" r="4.95" clip-path="url(#b)" filter="url(#a)"/><circle cx="-12.45" cy="-3.16" r="3.456" clip-path="url(#b)" filter="url(#a)"/><circle cx="-12.63" cy="-2.505" r="3.85" clip-path="url(#b)" filter="url(#a)"/><circle cx="-13.465" cy="-3.76" r="3.988" clip-path="url(#b)" filter="url(#a)"/><circle cx="-13.375" cy="-1.165" r="4.786" clip-path="url(#b)" filter="url(#a)"/><circle cx="-11.975" cy="-4.705" r="4.574" clip-path="url(#b)" filter="url(#a)"/><circle cx="-13.995" cy="-2.42" r="4.474" clip-path="url(#b)" filter="url(#a)"/><circle cx="-12.07" cy="-1.97" r="3.874" clip-path="url(#b)" filter="url(#a)"/><circle cx="-10.93" cy="-4.215" r="3.94" clip-path="url(#b)" filter="url(#a)"/></g><g fill="none" stroke="#000" transform="translate(-55.98 -30.8)"><path stroke-linejoin="round" stroke-width="2.222" d="m29.77-5.26.28-.28.24-.27.2-.27.16-.26.12-.25.09-.24.05-.24.01-.22-.03-.23-.06-.21-.11-.2-.13-.2-.17-.19-.21-.18-.24-.18-.28-.17-.31-.16-.34-.15-.37-.15-.41-.14-.43-.13-.47-.13-.49-.12-.53-.11-.55-.1-.54-.14-.58-.12-.62-.12-.67-.11-.7-.1-.75-.09-.78-.08-.82-.08-.85-.06-.88-.06-.92-.05-.94-.04-.97-.04-1-.03-1.01-.01-1.04-.02h-2.14l-1.09.01-1.1.01-1.11.03-1.12.02-1.13.04-1.13.04-1.13.04-1.13.05-1.13.06-1.13.05-1.12.07-1.11.07-1.1.07-1.09.08-1.07.08-1.06.09-1.05.08-1.03.1-1.01.09-.99.1-.97.11-.94.1-.93.11-.9.11-.88.12-.85.11-.83.12-.81.12-.78.13-.75.13-.73.13-.71.13-.68.13-.66.14-.64.14-.62.14-.6.15-.57.15-.55.15-.53.15-.5.16-.49.16-.46.16-.44.17-.42.17-.39.17-.38.17-.35.18-.34.18-.31.19-.3.18-.27.19-.26.19-.24.19-.21.2-.21.2" filter="url(#a)"/><path stroke-linejoin="round" stroke-width="2.222" d="m31.25-6.22-.14.23-.19.24-.23.27-.27.28-.32.31-.35.31-.39.34-.42.34-.45.36-.48.37-.51.38-.53.39-.55.4-.58.41-.59.41-.61.41-.63.42-.64.42-.65.42-.67.42-.67.42-.69.42-.7.42-.7.41-.71.41-.88.51-.88.51-.88.5-.88.49-.88.48-.88.47-.87.46-.88.44-.87.43-.87.4-.87.39-.86.37-.86.35-.86.33-.85.3-.85.28-.84.25-.84.23-.84.2-.83.17-.82.14-.82.12-.82.09-.81.06-.81.04-.8.01-.79-.02-.79-.05-.78-.07-.78-.1-.76-.13-.76-.15-.75-.17-.74-.19-.73-.22-.73-.24-.71-.25-.7-.28-.69-.29-.67-.31-.66-.32-.65-.34-.64-.34-.61-.36-.61-.37-.58-.37-.57-.38-.55-.38-.53-.39-.52-.38-.49-.39-.48-.39-.47-.4-.44-.4-.43-.4-.41-.41-.4-.4-.37-.4-.36-.41-.34-.4-.32-.4-.3-.4-.28-.4-.25-.39-.24-.39-.22-.38-.2-.38-.18-.38-.16-.37-.14-.37-.12-.36-.1-.35-.09-.35-.06-.35" filter="url(#a)"/><circle cx="21.436" cy="-3.038" r="4.848" clip-path="url(#c)" filter="url(#a)"/><circle cx="23.311" cy="-4.503" r="3.142" clip-path="url(#c)" filter="url(#a)"/><circle cx="21.526" cy="-5.543" r="3.77" clip-path="url(#c)" filter="url(#a)"/><circle cx="21.666" cy="-2.363" r="4.316" clip-path="url(#c)" filter="url(#a)"/><circle cx="22.251" cy="-4.918" r="4.238" clip-path="url(#c)" filter="url(#a)"/><circle cx="24.291" cy="-5.678" r="4.48" clip-path="url(#c)" filter="url(#a)"/><circle cx="25.241" cy="-6.153" r="4.536" clip-path="url(#c)" filter="url(#a)"/><circle cx="25.366" cy="-4.453" r="4.766" clip-path="url(#c)" filter="url(#a)"/><circle cx="24.006" cy="-2.303" r="4.306" clip-path="url(#c)" filter="url(#a)"/><circle cx="21.476" cy="-2.908" r="3.744" clip-path="url(#c)" filter="url(#a)"/></g><g fill="none" stroke="#2C222B" stroke-linejoin="round" stroke-width="2"><path d="m46.82-77.96 1.48 1.35 1.32 1.33.87.93.34.46-.16.07-.52-.18-.82-.39-1.11-.6-1.51-.91-2.04-1.29L42-78.95l-3.34-2.25-4.05-2.78-4.98-3.45" filter="url(#a)"/><path d="m50.25-74.4 1.31 1.02.7.64.39.45.3.42.28.42.17.35-.05.15-.35-.11-.73-.43-1.14-.8-1.62-1.21-2.12-1.67-2.65-2.16-3.3-2.75-4.28-3.57M-7.37-95.56l.63.01 1.78-.09 2.09-.08 2.04-.04 1.84.02 1.64.06 1.5.07 1.36.08 1.19.06.91.05.54.01.08-.03-.44-.06-1.11-.06m58.8 40.17.56 1.06-.11.66-.58.47-1.13.14-1.77-.3-2.47-.8-3.16-1.27-3.87-1.7-4.58-2.13-5.35-2.54-6.18-2.95-7.08-3.38-7.99-3.84-8.88-4.39-9.67-5-10.49-5.66m-.55-8.44 2.52-.04 2.62.29 2.71.66 2.82 1 3.02 1.28 3.33 1.52 3.66 1.74 3.96 1.93 4.2 2.09 4.38 2.21 4.55 2.28 4.69 2.34 4.77 2.35 4.73 2.34 4.58 2.26 4.34 2.11" filter="url(#a)"/><path d="m-31.27-88.4 2.27-.79 2.02-.39 2.29-.2 2.77-.14 3.27-.12 3.75-.09 4.14-.06 4.36.01 4.49.08 4.55.15 4.62.21 4.64.21 4.62.16 4.65.13 4.99.27" filter="url(#a)"/><path d="m27.56-90.36 1.01.68.87.56.17.32-.37.2-.72.18-1.06.18-1.52.12-2.15.02-2.86-.08-3.6-.18-4.33-.3-5.07-.44-5.83-.63-6.59-.82-7.31-1.06" filter="url(#a)"/><path d="m11.77-94.87 1.88.28 1.58.42 1.55.48 1.53.5 1.53.54 1.55.58 1.58.62 1.58.62 1.53.6 1.43.57 1.31.53 1.14.46.95.38.72.3.49.19.23.09.03-.01-.14-.08-.35-.18-.71-.35-1.23-.59-1.69-.79m-71.01 8.48.63-.38 1.39-.83 1.54-.92 1.58-.94 1.67-.96 1.75-.95 1.78-.93 1.75-.88 1.64-.8 1.51-.72 1.37-.64 1.22-.57 1.05-.49.87-.4.63-.3.36-.19-.03-.04-.56.17-1.16.37m59.99 6.21.68.36 1.28.81 1.23.84 1.07.75.94.67.8.59.59.46.33.29.06.13h-.18l-.35-.1-.54-.2-.79-.33-1.15-.56-1.65-.89-2.18-1.25-2.7-1.58-3.16-1.87-3.56-2.16" filter="url(#a)"/><path d="m16.4-93.85 1.21.32.35.36-.07.52-.46.68-.93.8-1.51.94-2.18 1.04-2.89 1.16-3.63 1.27-4.38 1.39-5.21 1.52-6.1 1.65-7.06 1.82-8.01 2.04-8.96 2.34-10.03 2.7" filter="url(#a)"/><path d="m16.4-93.85 1.42.29.98.27 1 .33 1.06.37 1.04.38.93.36.73.31.5.25.23.19-.08.13-.42.04-.79-.04-1.15-.13-1.5-.22-1.83-.3-2.22-.4-2.65-.53-3.11-.67-3.48-.81-3.79-.94" filter="url(#a)"/><path d="m18.49-93.49 1.16.47 1.16.44 1.09.43.92.4.68.37.41.33.13.3-.17.27-.52.21-.87.16-1.24.11-1.61.08-2.01.05-2.44.03-2.9-.02-3.37-.08-3.81-.16-4.25-.25-4.7-.37-5.21-.52-5.74-.59m60.21 12.8.82.7 1.19 1.1 1.5 1.48 1.6 1.65 1.51 1.59 1.32 1.44 1.15 1.31 1.05 1.23 1.01 1.18.96 1.13.88 1.03.75.85.56.61.31.31v-.05l-.35-.49-.77-.95-1.18-1.42" filter="url(#a)"/><path d="m43.6-80.49 1.11.87.68.58.64.55.78.69.97.86 1.09.99 1.05.98.87.83.54.53.18.21-.15-.08-.4-.3-.58-.46-.77-.65-1.06-.93-1.57-1.4-2.5-2.17" filter="url(#a)"/><path d="m46.16-78.39.87.71 1.08 1.1.92 1.1.53.84.05.54-.35.3-.68.17-.95.08-1.23.01-1.54-.09-1.92-.2-2.31-.36-2.73-.53-3.18-.74-3.65-.96-4.19-1.21-4.78-1.46-5.43-1.7-6.07-1.94-6.63-2.19-7.06-2.47-7.5-2.77" filter="url(#a)"/><path d="m46.82-77.96 1.37 1.34.97 1.29.28.86-.45.42-1.12.11-1.7-.07-2.2-.18-2.73-.29-3.29-.44-3.91-.64-4.56-.88-5.27-1.14-6.06-1.41-6.96-1.7-7.98-1.97-9-2.27-9.83-2.64" filter="url(#a)"/><path d="m-16.93-94.02 1.24-.02 2.01-.08 2.37.04 2.41.25 2.42.43 2.51.56 2.68.68 2.9.75 3.11.82 3.26.87 3.34.92 3.33.97 3.3 1.01 3.27 1.05 3.26 1.08 3.27 1.11 3.27 1.14 3.25 1.17 3.17 1.14 2.97.99 2.6.69 2.12.31" filter="url(#a)"/><path d="m9.6-95.48 1.57.35.94.29.74.33.54.39.27.43-.07.46-.41.52-.77.58-1.12.67-1.5.74-1.92.83L5.5-89l-2.88.97-3.42 1.05-3.99 1.14-4.58 1.23-5.2 1.31-5.79 1.37-6.34 1.42-6.81 1.45-7.32 1.5M71.69-43.33l-.15.91-.78.87-1.5.7-2.39.34-3.34-.04-4.29-.39-5.25-.66-6.21-.94-7.22-1.24-8.28-1.63-9.39-2.04-10.53-2.46L.68-52.74l-12.83-3.1-14-3.31-15.21-3.51" filter="url(#a)"/><path d="m18.49-93.44.24.12.37.32.23.39-.13.41-.65.41-1.3.4-2.02.39-2.78.39-3.55.4-4.35.36-5.25.33-6.25.29-7.39.35-8.67.52m75.58 16.09 1.4 1.58 1.34 1.5 1.15 1.34 1.08 1.3 1.05 1.32 1.02 1.3.92 1.23.8 1.1.64.92.47.7.29.46.08.18-.14-.1-.39-.42-.64-.73-.91-1.09-1.22-1.47-1.5-1.88-1.71-2.26-1.74-2.45m24.91 55.42 4.26 3.36L85-7.99l.05 2.71.48 2.6 1.04 2.6 1.06 2.68.81 2.77.76 2.83 1.11 2.83 1.71 2.77 2.24 2.72 2.42 2.68 2.19 2.68 1.64 2.71 1 2.75.45 2.78.1 2.79-.03 2.78-.01 2.74.11 2.69.38 2.67.92 2.66 1.65 2.6 2.12 2.42 1.52 2.29.33 2.93" filter="url(#a)"/><path d="m-.08-95.94 2.21.09 2.29.17 2.13.22 2.04.3 2.04.42 2.04.53 2.02.63 1.98.72 1.92.78 1.9.85 1.91.9 1.94.95 1.96 1.02 1.86 1.08 1.65 1.17 1.3 1.28.87 1.38.52 1.44.39 1.43.59 1.33.91 1.18.56 1.27" filter="url(#a)"/><path d="m-.08-95.94 2.32.09 2.49.17 2.44.22 2.56.31 2.82.42 3.12.53 3.41.64 3.59.71 3.64.79 3.56.85 3.4.91 3.25.96 3.22 1.02 3.37 1.09 3.7 1.19 4.08 1.28 4.28 1.37 4.2 1.43 3.96 1.43 3.82 1.41 4 1.47 4.59 1.82 6.72 2.82" filter="url(#a)"/><path d="m-.08-95.94 2.54.09 3.17.17 3.24.24 3.07.32 2.94.44 3.04.55 3.35.65 3.74.73 4.02.81 4.15.87 4.11.94 4 .99 3.9 1.07 3.84 1.14 3.88 1.23 4.02 1.3 4.33 1.38 4.81 1.45 5.43 1.51 6.07 1.57 6.5 1.64 6.55 1.72 6.08 1.8 5.25 1.88 4.42 1.96 4.12 2.08 4.67 2.22 5.78 2.38 6.53 2.45 6.55 2.44 7.91 2.53" filter="url(#a)"/><path d="m-.1-96.15 1.73.05 2.04.17 2.43.24 2.79.33 2.96.4 2.93.48 2.84.57 2.79.65 2.83.74 2.95.82 3.16.89 3.41.97 3.68 1.03 3.99 1.1 4.32 1.18 4.6 1.25 4.81 1.33 4.97 1.41 5.09 1.48 5.25 1.55 5.43 1.64 5.56 1.72 5.53 1.81 5.28 1.9 4.87 2 4.55 2.12 4.61 2.25 5.25 2.36 6.28 2.43 7.2 2.4 6.51 2.16" filter="url(#a)"/><path d="m-1.06-96.1 1.53.12 2.38.14 2.81.18 3.02.23 3.11.33 3.12.43 3.14.54 3.2.63 3.25.73 3.3.79 3.3.86 3.29.93 3.33.98 3.47 1.05 3.69 1.13 3.91 1.21 4.04 1.3 3.95 1.37 3.67 1.43 3.29 1.49 3.04 1.55 3.03 1.63 3.24 1.71 3.52 1.78 3.81 1.84 4.27 1.86 4.98 1.97 5.48 2.21 5.92 2.6M-3.35-96.06l-3.52.41-3.04.34-2.85.4-2.67.48-2.63.57-2.74.65-2.85.74-2.85.82-2.75.89-2.63.95-2.55 1.02-2.62 1.13-2.82 1.24-3.1 1.35-3.4 1.46-3.64 1.54-3.81 1.62-3.9 1.66-3.94 1.72-3.99 1.77-4.08 1.81-4.21 1.84-4.34 1.84-4.33 1.81-4.06 1.81-3.54 1.89-3.02 2.12-2.89 2.33-3.18 2.22-3.16 2.06" filter="url(#a)"/><path d="m-3.35-96.06-3.11.41-2.39.34-2.57.41-2.75.48-2.88.57-3 .67-3.03.74-2.97.83-2.79.89-2.57.96-2.35 1.05-2.2 1.14-2.16 1.26-2.2 1.36-2.32 1.47-2.45 1.55-2.59 1.62-2.69 1.68-2.76 1.73-2.82 1.77-2.88 1.81-2.98 1.84-3.11 1.85-3.26 1.87-3.38 1.9-3.45 1.98-3.46 2.06-3.44 2.16-3.44 2.19-3.38 2.18-3.08 2.14-2.46 2.18-2.13 2.4-3.03 2.65" filter="url(#a)"/><path d="m-5.14-95.62-2.68.16-3.05.29-3.08.44-2.92.55-2.67.62-2.48.7-2.45.76-2.59.86-2.86.94-3.14 1.03-3.31 1.12-3.32 1.2-3.14 1.27-2.88 1.36-2.59 1.42-2.41 1.48-2.37 1.55-2.48 1.62-2.7 1.69-2.94 1.79-3.13 1.88-3.19 1.98-3.16 2.08-3.05 2.16-2.95 2.2-2.89 2.23-2.89 2.24-2.87 2.23-2.75 2.23-2.47 2.24-2.18 2.3-2.24 2.38-2.87 2.4-3.62 2.34-2.95 2.36" filter="url(#a)"/><path d="m-7.82-95.46-1.16.15-2.46.38-2.88.49-3.05.57-3.3.66-3.51.75-3.57.83-3.41.89-3.11.96-2.78 1.04-2.58 1.13-2.61 1.25-2.89 1.36-3.34 1.47-3.78 1.55-4.09 1.62-4.14 1.68-3.96 1.72-3.71 1.77-3.53 1.81-3.54 1.83-3.72 1.85-3.99 1.84-4.28 1.87-4.53 1.94-4.8 2.08-5.13 2.21-5.59 2.24-5.98 2.14-5.25 1.95-1.26 1.38" filter="url(#a)"/><path d="m-7.82-95.46-1.18.15-2.56.38-3.23.5-3.73.57-4.16.67-4.4.76-4.56.84-4.75.9-5.01.97-5.17 1.05-5.06 1.16-4.58 1.26-3.8 1.38-2.97 1.48-2.29 1.56-1.9 1.63-1.84 1.68-2.12 1.74-2.65 1.78-3.38 1.81-4.16 1.84-4.81 1.86-5.25 1.9-5.41 1.93-5.37 1.99-5.27 2.07-5.23 2.13-5.29 2.19-5.49 2.23-5.88 2.28-6.45 2.39-7.12 2.56-7.48 2.76-7.13 2.86-5.58 2.72-2.17 2.62" filter="url(#a)"/><path d="m-7.82-95.46-1.11.15-2.34.38-2.71.49-2.78.57-2.79.66-2.77.76-2.69.83-2.57.89-2.49.96-2.48 1.04-2.49 1.14-2.54 1.25-2.62 1.37-2.71 1.47-2.86 1.56-3.02 1.62-3.19 1.68-3.33 1.72-3.44 1.77-3.57 1.81-3.69 1.84-3.81 1.84-3.84 1.86-3.75 1.89-3.51 1.96-3.21 2.07-2.91 2.17-2.67 2.21-2.5 2.16-2.63 2.07-3.4 2.08-4.72 2.61" filter="url(#a)"/><path d="m-7.37-95.56-2.44.33-2.63.45-3.23.58-3.5.63-3.35.7-3 .76-2.73.86-2.67.94-2.79 1.04-2.99 1.12-3.19 1.2-3.36 1.28-3.51 1.36-3.62 1.42-3.74 1.49-3.87 1.55-4.05 1.61-4.22 1.7-4.36 1.78-4.38 1.88-4.26 1.99-4.03 2.08-3.76 2.16-3.6 2.2-3.69 2.23-4.05 2.23-4.57 2.23-5.05 2.23-5.26 2.24-5.18 2.3-5.12 2.37-5.37 2.41-5.35 2.33-2.25 2.36" filter="url(#a)"/><path d="m-10.34-95.1-3.24.64-1.66.57-1.54.65-1.87.76-2.16.85-2.14.91-1.82.96-1.32 1.04-.82 1.13-.48 1.26-.37 1.37-.46 1.48-.64 1.57-.83 1.63-.94 1.68-.85 1.72-.52 1.77.07 1.81.81 1.84 1.49 1.84 1.89 1.85 1.95 1.89 1.82 1.95 1.72 2.07 1.79 2.18 1.93 2.2 1.9 2.15 1.9 2.07 2.66 2.08 4.91 2.6m85.89 31.35L87.75-14l7.18 3.24 3.38 3.19 1.71 3 .47 2.82-.77 2.72-1.61 2.71-1.73 2.74-1.08 2.79.24 2.84 1.87 2.86 3.38 2.87 4.33 2.86 4.43 2.84 3.7 2.79 2.53 2.75 1.42 2.72.7 2.69.43 2.66.33 2.63.24 2.63.18 2.71.47 2.82 1.32 2.64 3.87 1.46M-19.67-93.1l-6.02 1.46-4.97 1.02-4.49.91-4.86.96-5.81 1.09-6.3 1.26-5.85 1.4-4.82 1.51-3.86 1.59-3.37 1.63-3.37 1.66-3.58 1.71-3.79 1.75-3.91 1.81-4.04 1.84-4.23 1.83-4.51 1.79-4.95 1.77-5.88 1.87-7.5 2.12-9.13 2.32-9.09 2.19-9.14 2.04" filter="url(#a)"/><path d="m-19.67-93.1-3.92 1.47-2.56 1.03-2.19.92-2.16.99-2.25 1.12-2.33 1.28-2.38 1.42-2.37 1.53-2.3 1.61-2.22 1.65-2.12 1.7-2.05 1.74-1.99 1.78-1.95 1.81-1.9 1.84-1.86 1.86-1.81 1.88-1.76 1.92-1.75 1.98-1.72 2.07-1.69 2.13-1.65 2.19-1.6 2.22-1.56 2.26-1.55 2.38-1.58 2.56-1.65 2.75-1.65 2.85-1.47 2.7-1.37 2.6" filter="url(#a)"/><path d="m-21.51-92.28-6.66.92-6.4.98-6.12 1.06-5.63 1.14-4.55 1.2-3.27 1.28-2.43 1.35-2.33 1.42-2.9 1.48-3.79 1.53-4.66 1.57-5.39 1.63-5.9 1.71-6.21 1.83-6.29 1.97-6.17 2.09-5.97 2.18-5.9 2.21-6.18 2.23-6.75 2.26-7.46 2.32-7.54 2.02m118.5-36.38-2.91.93-2.53.99-2.5 1.08-2.47 1.15-2.4 1.22-2.34 1.29-2.34 1.37-2.38 1.44-2.41 1.5-2.41 1.55-2.38 1.61-2.37 1.67-2.38 1.77-2.4 1.88-2.41 1.99-2.41 2.1-2.4 2.16-2.41 2.21-2.43 2.22-2.43 2.22-2.37 2.21-2.19 2.19-1.89 2.21-1.62 2.28-1.59 2.4-1.99 2.43-2.53 1.97" filter="url(#a)"/><path d="m-21.51-92.28-2.77.94-2.35 1-2.18 1.09-2 1.16-1.8 1.24-1.59 1.32-1.5 1.38-1.49 1.46-1.51 1.52-1.46 1.58-1.28 1.64-1.03 1.72-.79 1.82-.69 1.92-.79 2.01-1.08 2.1-1.48 2.17-1.8 2.21-1.94 2.23-1.8 2.24-1.4 2.24-.85 2.26-.31 2.29.07 2.32.23 2.36.18 2.42-.02 2.5-.21 2.59-.31 2.71-.3 2.85-.15 2.91.11 2.85.46 2.68.74 2.48.35 2.11m29.2-69.18-1.62.71-2.81.8-3.36.94-3.28 1.12-3.19 1.3-3.45 1.45-4.05 1.55-4.76 1.63-5.32 1.67-5.51 1.7-5.29 1.75-4.76 1.79-4.07 1.82-3.51 1.86-3.26 1.87-3.47 1.9-4.17 1.94-5.15 2.01-6.09 2.07-6.63 2.15-6.48 2.2-5.63 2.27-4.31 2.35-2.97 2.44-2.15 2.57-2.16 2.7-3.03 2.8-4.52 2.87-6.1 2.93-7.09 2.99-6.55 3.13-4.12 3.34-3.53 3.53" filter="url(#a)"/><path d="m-24.85-91.37-2.84 1.03-3.09 1.09-3.28 1.17-3.49 1.25-3.71 1.32-4.03 1.4-4.44 1.46-4.7 1.53-4.65 1.59-4.25 1.65-3.74 1.73-3.39 1.83-3.37 1.92-3.68 2.03-4.12 2.11-4.46 2.17-4.56 2.22-4.38 2.23-4.04 2.24-3.66 2.26-3.33 2.27-3.12 2.3-2.93 2.34-2.73 2.38-2.46 2.45-2.18 2.52-2.03 2.62-2.23 2.7-2.94 2.79-4.07 2.82-5.28 2.81-5.99 2.74-5.82 2.68-5.18 2.65-5.38 2.73-7.04 3-5.8 4.08" filter="url(#a)"/><path d="m-24.85-91.37-2.13 1.02-2.28 1.07-2.34 1.16-2.25 1.23-2.17 1.3-2.11 1.37-2.09 1.45-2.07 1.51-2.02 1.55-1.97 1.61-1.94 1.68-1.91 1.78-1.91 1.89-1.92 1.99-1.9 2.1-1.86 2.17-1.79 2.21-1.7 2.22-1.58 2.22-1.48 2.2-1.39 2.21-1.32 2.23-1.28 2.28-1.27 2.36-1.24 2.39-1.18 2.31-1.09 2.34" filter="url(#a)"/><path d="m-26.21-90.41-2.63.75-3.63.92-4.92 1.11-5.09 1.3-4.28 1.47-3.16 1.57-2.26 1.63-1.79 1.66-1.8 1.7-2.14 1.74-2.66 1.78-3.19 1.83-3.66 1.84-4.05 1.86-4.37 1.88-4.63 1.92-4.76 1.98-4.73 2.07-4.56 2.14-4.38 2.19-4.37 2.23-4.68 2.28-5.27 2.4-5.88 2.56-6.15 2.72-5.84 2.83-5.04 2.85-4.24 2.95-3.25 3.49" filter="url(#a)"/><path d="m-27.85-89.86-2.81 1.09-2.71 1.11-2.54 1.34-2.33 1.51-2.22 1.61-2.19 1.66-2.15 1.68-2.14 1.72-2.11 1.76-2.12 1.8-2.13 1.84-2.16 1.86-2.2 1.88-2.23 1.92-2.23 1.96-2.19 2.03-2.07 2.09-1.9 2.17-1.7 2.23-1.55 2.31-1.46 2.38-1.48 2.49-1.56 2.6-1.69 2.7-1.79 2.8-1.85 2.87-1.83 2.91-1.72 2.95-1.54 2.93-1.28 2.89-1.04 2.79-.96 2.68-1.03 2.56-1.12 2.49-1.02 2.41-1.31 1.81" filter="url(#a)"/><path d="m-27.85-89.86-2.73 1.08-2.84 1.07-3.78 1.31-4.87 1.48-5.41 1.58-5.21 1.63-4.5 1.65-3.73 1.68-3.24 1.71-3.16 1.76-3.43 1.82-3.89 1.83-4.3 1.84-4.53 1.82-4.62 1.85-4.74 1.94-5.06 2.06-5.81 2.18-6.99 2.19-8.28 2.12-8.81 2.04-7.99 2.06-6.74 2.58m114.66-41.28-2.32 1.08-1.62 1.09-.7 1.33.3 1.49.65 1.6.3 1.64-.34 1.67-.9 1.7-1.19 1.73-1.23 1.79-1.08 1.82-.92 1.84-.83 1.86-.83 1.88-.76 1.91-.45 1.99.23 2.06 1.29 2.14 2.46 2.19 3.41 2.23 3.77 2.28 3.44 2.4 2.76 2.55 2.37 2.72 2.67 2.83 3.18 2.85 2.83 2.94 2.57 3.49" filter="url(#a)"/><path d="m-31.27-88.4-1.91.66-3.96 1.32-4.14 1.55-3.47 1.62-3.08 1.66-3.42 1.67-4.39 1.7-5.46 1.73-6.13 1.78-6.18 1.83-5.64 1.84-4.7 1.86-3.68 1.87-2.88 1.91-2.46 1.98-2.49 2.07-2.78 2.14-3.17 2.19-3.58 2.22-4.09 2.28-4.93 2.39-6.19 2.55-7.55 2.73-8.15 2.82-7.53 2.85-6.59 2.94-5.3 3.48M78.7-19.67 81.35-17l2.2 3.02 1.08 3.16 1.03 3.13 1.09 3 .85 2.85.47 2.76.26 2.74.38 2.77.82 2.81 1.43 2.84 2.08 2.87 2.62 2.87 2.99 2.87 3.09 2.84 2.9 2.81 2.43 2.76 1.78 2.73 1.06 2.7.4 2.67-.1 2.67-.34 2.66-.31 2.67-.07 2.68.16 2.59.1 2.41-.25 2.31.31 2.38M-37.99-84.71l-2.9 1.56-2.3 1.7-2.05 1.69-2.01 1.66-2.1 1.7-2.28 1.78-2.43 1.83-2.46 1.86-2.39 1.85-2.32 1.84-2.38 1.88-2.63 1.96-3.02 2.07-3.4 2.14-3.6 2.18-3.54 2.2-3.2 2.24-2.69 2.35-2.21 2.55-1.95 2.74-2.07 2.83-2.42 2.67-1.81 2.57" filter="url(#a)"/><path d="m-43.04-81.07-2.22 1.56-2.66 1.6-2.56 1.67-2.21 1.79-1.9 1.88-1.81 1.9-1.93 1.87-2.18 1.87-2.36 1.92-2.36 2-2.17 2.09-1.9 2.17-1.68 2.23-1.61 2.28-1.7 2.36-1.92 2.46-2.22 2.59-2.49 2.7-2.71 2.8-2.83 2.86-2.85 2.92-2.82 2.95-2.72 2.95-2.62 2.91-2.5 2.79-2.42 2.62-1.95 2.37.1 1.36" filter="url(#a)"/><path d="m-45.03-79.57-2.35 1.71-3.14 1.63-2.91 1.8-2.42 1.91-2.1 1.92-1.94 1.88-1.87 1.86-1.79 1.9-1.67 2.01-1.55 2.1-1.51 2.18-1.62 2.23-1.89 2.28-2.22 2.37-2.48 2.47-2.57 2.59-2.45 2.71-2.19 2.8-1.89 2.87-1.68 2.91-1.61 2.94-1.66 2.93-1.78 2.89-1.91 2.77-1.92 2.64-1.68 2.53-1.28 2.54-1.78 3.31M77.9-21.91l1.18 3.72 1.08 3.49 1.06 3.25 1.26 3.01 1.23 2.81.87 2.69.41 2.66.05 2.7-.1 2.76-.13 2.81-.11 2.81-.04 2.77.07 2.72.25 2.69.48 2.68.65 2.7.69 2.75.53 2.79.22 2.81-.11 2.79-.34 2.74-.44 2.67-.52 2.66-.63 2.81-.64 2.94-.83 2.47" filter="url(#a)"/><path d="m-50.23-74.66-2.71 2.29-3.2 2.31-3.83 2.33-4.63 2.3-5.2 2.26-5.14 2.25-4.46 2.23-3.4 2.24-2.34 2.27-1.59 2.3-1.25 2.35-1.24 2.41-1.37 2.48-1.48 2.56-1.52 2.64-1.56 2.72-1.74 2.76-2.1 2.79-2.65 2.78-3.26 2.79-3.79 2.79-4.12 2.81-4.19 2.86-3.94 2.91-3.44 2.92-2.81 2.91-2.27 2.88-2.01 2.86-2.04 2.88-2.22 2.95-2.38 2.98-2.66 2.9-3.14 2.91-2.86 4.04" filter="url(#a)"/><path d="m-52.58-72.42-18.68 2.31-2.05 1.89 1.7 1.67 2.09 1.79 1.12 2.03-.39 2.18-1.85 2.25-3.03 2.28-3.83 2.33-4.43 2.41-4.98 2.52-5.52 2.65-5.91 2.74-5.86 2.83-5.24 2.88-4.03 2.9-2.55 2.9-1.25 2.88-.55 2.82-.71 2.77-1.71 2.72-3.24 2.7-4.88 2.71-6.14 2.77-6.64 2.83-6.2 2.88-5.02 2.91-3.56 2.9-2.48 2.89-2.42 2.87-3.79 2.81-6.32 2.69-6.35 3.03m124.7-85.74-2.24 2.31-1.66 1.9-1.43 1.67-1.51 1.8-1.62 2.03-1.63 2.19-1.56 2.25-1.46 2.29-1.41 2.33-1.41 2.42-1.42 2.54-1.4 2.65-1.34 2.75-1.25 2.83-1.15 2.88-1.08 2.9-1.04 2.9-1.01 2.87-1 2.83-.98 2.77-.94 2.74-.86 2.72-.72 2.73-.58 2.78-.43 2.83-.34 2.87-.32 2.9-.37 2.9-.42 2.89-.42 2.86-.3 2.82-.05 2.79.21 2.76.29 2.69-.13 2.29" filter="url(#a)"/><path d="m-52.81-72.18-1.26 2.15-.7 2.36-.77 2.3-1.25 2.25-1.63 2.24-1.61 2.22-1.3 2.23-.87 2.25-.46 2.29-.14 2.34.03 2.4.04 2.47-.12 2.55-.36 2.64-.6 2.71-.66 2.77-.47 2.78-.04 2.78.49 2.77.98 2.77 1.25 2.8 1.27 2.85 1.09 2.91.87 2.95.74 2.91.77 2.84.97 2.79 1.29 2.85 1.66 3.09 1.92 3.37.98 3.14m-2.11-81.77-3.18 2.15-2.85 2.37-2.04 2.31-1.84 2.25-2.06 2.24-2.38 2.23-2.63 2.23-2.87 2.26-3.27 2.3-3.93 2.34-4.71 2.41-5.36 2.48-5.62 2.56-5.44 2.65-4.88 2.71-4.17 2.77-3.45 2.79-2.84 2.78-2.3 2.78-1.91 2.79-1.72 2.81-1.9 2.86-2.45 2.9-3.29 2.93-4.17 2.9-4.82 2.88-5.08 2.85-5 2.88-4.76 2.95-4.61 2.98-4.97 2.9-6.08 2.9-4.18 4.04" filter="url(#a)"/><path d="m-55.1-70.05.97 2.11-.51 1.45-.98 1.66-.85 2.02-.17 2.23.65 2.26 1.07 2.27.88 2.29.28 2.38-.31 2.5-.56 2.63-.4 2.74.1 2.82.76 2.88 1.41 2.9 1.99 2.91 2.44 2.88 2.78 2.83 3.03 2.74 3.22 2.68 3.41 2.63 3.48 2.64 3.23 2.72 2.46 2.85 1.56 2.98 1.56 2.94 3.08 2.6 3.3 1.98M-55.1-70.05l-4.55 2.11-1.82 1.44-3.05 1.65-3.61 2.01-2.76 2.22-1.58 2.27-.94 2.25-.97 2.28-1.39 2.36-1.95 2.48-2.52 2.62-3.09 2.74-3.62 2.82-3.97 2.87-3.98 2.9-3.57 2.91-2.82 2.89-2.06 2.83-1.66 2.75-1.92 2.64-2.86 2.58-4.09 2.57-4.97 2.65-4.68 2.88-2.86 3.25-.43 3.41" filter="url(#a)"/><path d="m-55.1-70.05-1.83 2.11-2.89 1.45-3.83 1.66-4.05 2.02-4.37 2.23-4.81 2.26-4.74 2.27-3.97 2.29-2.91 2.38-2.21 2.5-2.23 2.63-2.92 2.74-3.89 2.82-4.73 2.88-5.11 2.9-4.93 2.91-4.27 2.88-3.44 2.83-2.74 2.74-2.4 2.68-2.48 2.63-2.91 2.64-3.58 2.72-4.49 2.85-5.77 2.98-7.26 2.94-8.23 2.6-9.17 1.98m114.13-67.49-.66.68-1.43 1.39-2.32 2.07-2.53 2.31-2.13 2.31-1.56 2.25-1.25 2.27-1.3 2.36-1.59 2.49-1.96 2.63-2.19 2.74-2.22 2.83-2.01 2.87-1.69 2.91-1.34 2.9-1.07 2.88-.95 2.83-.96 2.74-1.09 2.65-1.28 2.6-1.52 2.61-1.79 2.69-2.07 2.87-2.27 3.08-1.93 3.12-.15 2.7M78.05-22.02l.6 2.4.53 2.72.82 2.97 1.13 3.11 1.26 3.09 1.23 2.99 1.14 2.88L85.78.95l.87 2.78.7 2.8.59 2.82.64 2.86.82 2.88 1.1 2.88 1.3 2.87 1.34 2.85 1.14 2.82.75 2.78.32 2.75-.06 2.72-.31 2.7-.46 2.68-.53 2.66-.56 2.65-.57 2.61-.55 2.55-.53 2.47-.61 2.38-.77 2.3-.95 2.2-1.02 2.13-.94 2.08-.85 2.17-1.53 2.28" filter="url(#a)"/><path d="m-57.57-66.89-.7 1.84-1.14 2.14-.78 2.22-.29 2.23.11 2.24.29 2.25.2 2.3-.1 2.37-.47 2.42-.74 2.5-.83 2.59-.71 2.66-.43 2.73-.09 2.78.19 2.8.33 2.8.34 2.8.27 2.81.23 2.84.38 2.86.72 2.9 1.25 2.91 1.8 2.91 2.24 2.9 2.45 2.9 2.39 2.91 2.1 2.91 1.69 2.92 1.23 2.92.92 2.9.87 2.88 1.25 2.86 1.96 2.84 2.53 2.77 2.41 2.69 1.72 2.67 1.74 2.93" filter="url(#a)"/><path d="m-57.57-66.89-1.19 1.81-.84 2.1.25 2.19 1.59 2.2 2.38 2.19 2.35 2.21 1.77 2.26.91 2.31-.05 2.36-.94 2.44-1.49 2.51-1.46 2.6-.84 2.71.08 2.78.97 2.8 1.61 2.76 2.04 2.71 2.41 2.67 2.75 2.69 2.97 2.8 2.96 2.99 2.72 3.14L-34-8.62l4.48 2.25m-29.2-59.05-5.21 2.47-.88 2.25-.73 2.23-1.3 2.21-1.62 2.22-1.59 2.26-1.41 2.33-1.24 2.39-1.2 2.46-1.32 2.54-1.57 2.63-1.9 2.72-2.18 2.78-2.35 2.79-2.35 2.77-2.2 2.75-1.95 2.74-1.66 2.77-1.36 2.85-1.09 2.91-.87 2.96-.88 2.91-1.15 2.8-1.56 2.69-1.65 2.75-1.1 3.2-.2 3.78" filter="url(#a)"/><path d="m-58.01-66.2-2.62 2.94-2.16 2.89-2.24 2.44-2.64 2.24-3.14 2.25-3.61 2.38-3.91 2.55-4 2.69-3.96 2.81-3.85 2.87-3.68 2.91-3.47 2.92-3.29 2.9-3.18 2.87-3.17 2.82-3.22 2.78-3.25 2.74-3.14 2.73-2.85 2.75-2.37 2.79-1.75 2.83-1.15 2.86-.72 2.89-.64 2.89-.93 2.88-1.53 2.86-2.2 2.86-2.67 2.87-2.83 2.9-2.7 2.95-2.54 3.02-2.49 3.06-2.48 3.07-2.18 3.03-1.57 3.13-1.79 3.97" filter="url(#a)"/><path d="m-58.01-66.2-5.06 2.91-5.88 2.88-6.67 2.43-5.18 2.2-2.88 2.21-1.02 2.34.07 2.51.43 2.66.16 2.78-.6 2.85-1.65 2.89-2.82 2.9-3.85 2.91-4.67 2.87-5.14 2.81-5.26 2.74-5.09 2.67-4.75 2.65-4.39 2.67-4.08 2.73-3.75 2.83-3.35 2.9-2.92 2.91-2.65 2.86-2.65 2.89-2.82 3.12-2.65 3.26m86.26-70.53-.72 1.75.61 2.24 1.55 2.2 1.15 2.21-.01 2.26-.97 2.34-1.32 2.4-1.25 2.46-1.06 2.55-1 2.65-1.05 2.73-1.07 2.78-.94 2.79-.58 2.78-.08 2.76.44 2.75.85 2.79 1.06 2.85 1.12 2.9 1.15 2.93 1.27 2.9 1.46 2.84 1.63 2.81 1.64 2.85 1.48 2.98 1.42 3.01 1.93 2.62 3.73 1.5" filter="url(#a)"/><path d="m-60.87-62.35-3.87 1.77-5.69 2.25-4.33 2.22-1.83 2.22-.05 2.28.64 2.36.44 2.42-.29 2.49-1.37 2.58-2.6 2.67-3.76 2.74-4.56 2.79-4.81 2.8-4.41 2.8-3.56 2.79-2.63 2.8-1.99 2.82-1.9 2.86-2.34 2.9-3.12 2.91-3.89 2.9-4.34 2.9-4.33 2.89-3.82 2.89-2.97 2.91-1.95 2.92-.93 2.91-.13 2.9.23 2.88-.14 2.86-1.28 2.84-2.61 2.78-2.88 2.6-2.36 2.34" filter="url(#a)"/><path d="m-60.87-62.35-2.03 1.74-2.02 2.23-1.7 2.19-1.49 2.19-1.55 2.25-1.84 2.33-2.24 2.38-2.58 2.45-2.67 2.53-2.48 2.63-2.03 2.72-1.47 2.78-.97 2.79-.64 2.77-.58 2.73-.79 2.72-1.19 2.75-1.67 2.83-2.03 2.93-2.15 2.98-1.96 2.93-1.54 2.76-1.12 2.54-.91 2.51-.9 3.6" filter="url(#a)"/><path d="m-59.62-64.01-4.37 3.96-2.4 2.35-2.27 2.09-2.81 2.17-3.34 2.34-3.45 2.54-3.13 2.7-2.5 2.81-1.98 2.88-1.9 2.91-2.42 2.92-3.37 2.9-4.36 2.87-4.98 2.82-4.97 2.76-4.37 2.71-3.43 2.71-2.49 2.73-1.94 2.77-1.88 2.82-2.24 2.87-2.71 2.89-2.92 2.88-2.65 2.88-1.88 2.85-.91 2.82-.16 2.82-.02 2.85-.62 2.91-1.72 3.07-2.78 3.2-2.47 2.76m79.29-83.52-.86.72-1.18 1.72-1.73 2.07-2.11 2.32-2.14 2.55-1.92 2.71-1.69 2.83-1.5 2.88-1.39 2.91-1.28 2.92-1.17 2.9-1.08 2.87-1.05 2.81-1.04 2.74-1.04 2.7-.96 2.68-.85 2.7-.74 2.76-.71 2.82-.76 2.87-.85 2.89-.88 2.89-.78 2.87L-92.1 5l-.56 2.8-.6 2.78-.61 2.74-.43 2.67-.84 2.27" filter="url(#a)"/><path d="m-63.56-58.23-1.63 2.47-1.61 2.27-1.85 2.35-2.31 2.57-2.5 2.76-2.25 2.86-1.69 2.9-1.12 2.92-.75 2.92-.62 2.91-.69 2.87-.82 2.81-.96 2.74-1.04 2.7-1.08 2.69-1.05 2.72-.95 2.76-.77 2.83-.52 2.86-.28 2.89-.08 2.88.01 2.87-.02 2.84-.12 2.82-.18 2.81-.19 2.84-.15 2.91-.14 3.06-.18 3.2-.28 2.75" filter="url(#a)"/><path d="m-65.12-55.9-5.45 2.01-.73 2.29-.65 2.42-1.17 2.44-1.45 2.47-1.54 2.55-1.67 2.66-2.01 2.76-2.59 2.81-3.34 2.82-4.12 2.78-4.73 2.75-5.02 2.76-4.91 2.8-4.37 2.85-3.48 2.89-2.42 2.91-1.4 2.89-.68 2.87-.38 2.85-.46 2.87-.77 2.9-1.13 2.93-1.52 2.9-2.12 2.86-2.94 2.84-3.04 2.83-1.55 3.01" filter="url(#a)"/><path d="M-66.34-54.01-73-51.63l-1.99 2.51-2.26 2.48-3.01 2.46-3.64 2.54-3.78 2.67-3.14 2.78-2.02 2.83-.96 2.82-.44 2.79-.55 2.76-1.11 2.76-1.79 2.8-2.21 2.86-2.27 2.89-1.97 2.91-1.55 2.9-1.24 2.87-1.26 2.87-1.62 2.87-2.18 2.9-2.64 2.91-2.8 2.91-2.53 2.87-2.06 2.87-1.85 2.86-2.41 2.87-3.44 2.82-3.01 2.58" filter="url(#a)"/><path d="m-66.34-54.01-4.87 2.4-5.43 2.53-4.63 2.49-3.52 2.49-1.77 2.57-.16 2.69.57 2.79.3 2.84-.63 2.84-1.86 2.8-2.99 2.79-3.72 2.8-3.9 2.84-3.53 2.87-2.81 2.9-2.07 2.91-1.59 2.91-1.52 2.91-1.82 2.9-2.32 2.9-2.76 2.91-3 2.91-2.95 2.9-2.64 2.89-2.16 2.87-1.58 2.84-1.01 2.82-.52 2.8-.22 2.8-.22 2.81-.51 2.85-.87 2.91-.85 2.94-.21 2.9.77 2.65 1.02 1.49m61.85-91.13-.98 1.79-1.15 2.29-1.22 2.64-1.19 2.85-1.1 2.92-1.01 2.85-.9 2.75-.79 2.69-.65 2.7-.54 2.76-.45 2.84-.43 2.9-.44 2.91-.45 2.87-.45 2.83-.43 2.81-.39 2.84-.34 2.9-.26 2.93-.12 2.87.07 2.82.27 2.83.04 2.22" filter="url(#a)"/><path d="m-72.14-41.19-.95 1.93-1.96 2.71-3.56 2.97-4.9 2.99-5.14 2.93-4.19 2.81-2.55 2.72-.89 2.68.33 2.69.91 2.74 1.03 2.8.92 2.85.79 2.89.7 2.89.6 2.89.39 2.89.04 2.88-.41 2.89-.89 2.9-1.32 2.92-1.58 2.95-1.64 2.97-1.49 2.97-1.19 2.95-.78 2.91-.37 2.86v2.8l.32 2.73.56 2.63.74 2.52.87 2.39.86 2.31.73 2.36.59 2.55.71 2.81 1.27 2.94.9 2.33" filter="url(#a)"/><path d="m-73.13-39.11-1.27 3.16-1.23 3.29-1.08 2.97-1.12 2.73-1.37 2.67-1.9 2.72-2.7 2.81-3.72 2.9-4.69 2.94-5.21 2.94-5 2.92-4.03 2.89-2.6 2.9-1.12 2.89.06 2.91.75 2.9.91 2.9.69 2.88.2 2.86-.42 2.84-1.06 2.82-1.66 2.81-2.19 2.81-2.64 2.82-2.96 2.83-3.09 2.82-2.85 2.8-2.18 2.73-1.23 2.66-.31 2.58.18 2.54.18 2.55.28 2.5 1 2.34.15 1.84" filter="url(#a)"/><path d="m-73.9-36.86-3.51 3.41-1.14 3.09-2.05 2.96-3.46 2.8-4.05 2.68-3.58 2.63-2.53 2.66-1.35 2.73-.44 2.81.07 2.86.15 2.9-.06 2.9-.4 2.9-.7 2.88-.83 2.88-.79 2.89-.64 2.9-.52 2.93-.55 2.94-.81 2.97-1.25 2.96-1.71 2.95-2.01 2.9-2 2.85-1.63 2.79-1.02 2.71-.34 2.62.17 2.52.39 2.43.33 2.39.14 2.42v2.54l-.11 2.67-.36 2.72-1.07 2.6-2.12 2.27-2.36 1.69" filter="url(#a)"/><path d="m-74.17-36.34-6.08 3.87-1.7 3.02.26 2.64.52 2.6.16 2.69-.29 2.82-.72 2.91-1.1 2.95-1.37 2.95-1.49 2.92-1.44 2.89-1.27 2.89-1.02 2.9-.73 2.9-.48 2.91-.31 2.89-.24 2.88-.31 2.86-.47 2.84-.62 2.82-.68 2.81-.51 2.82-.12 2.81.4 2.82.85 2.82 1.04 2.79.88 2.73.52 2.65.17 2.59.06 2.55.24 2.52.52 2.49.73 2.41.76 2.34 1.31 2.64" filter="url(#a)"/><path d="m-74.17-36.34-3.17 3.82-.83 2.99-.91 2.59-1.25 2.53-1.37 2.62-1.34 2.75-1.3 2.87-1.24 2.93-1.18 2.92-1.11 2.87-1.06 2.82-1.01 2.81-.92 2.84-.75 2.88-.54 2.89-.33 2.87-.22 2.84-.18 2.83-.07 2.83.09 2.83.03 2.79-.55 2.55" filter="url(#a)"/><path d="m-75.94-30.97-1.94 3.77-1.88 2.9-2.76 2.57-2.82 2.52-1.8 2.59-.48 2.69.34 2.81.39 2.87-.2 2.9-1.11 2.9-2.11 2.88-2.93 2.87-3.41 2.85-3.44 2.85-3 2.87-2.27 2.91-1.45 2.94-.86 2.96-.6 2.97-.7 2.96-.97 2.9-1.18 2.86-1.19 2.8-1.05 2.75-.93 2.67-.93 2.52-.85 2.26-.33 2.03.78 2.15 2.02 3.02M75.93-30.81l-5.85 2.98 1.43 2.65 1.18 2.61.24 2.68.15 2.78.48 2.91.61 2.99.38 3-.04 2.95-.38 2.88-.55 2.8-.59 2.78-.68 2.77-.87 2.8-1.22 2.83-1.65 2.86-2.04 2.88-2.31 2.88-2.39 2.85-2.26 2.81-1.97 2.77-1.71 2.73-1.7 2.72-2.03 2.7-2.38 2.56-2.33 2.23-2.72 1.58" filter="url(#a)"/><path d="m75.28-32.41 1.19 3.17 2.2 2.37 3.15 2.52 2.67 2.87 1.4 3.12.32 3.2-.17 3.16-.12 3.03.22 2.91.63 2.82.98 2.77 1.19 2.76 1.22 2.79 1.11 2.8.85 2.81.53 2.78.17 2.75-.08 2.73-.19 2.73-.08 2.74.22 2.77.59 2.79.91 2.8 1.02 2.79.87 2.76.46 2.73-.05 2.69-.46 2.65-.61 2.6-.5 2.49-.32 2.39-.39 2.44-.84 2.39" filter="url(#a)"/><path d="m75.2-33.78 3.41 2.96L82-27.98l2.42 2.71 1.83 2.69 1.47 2.73 1.1 2.82.83 2.92.83 2.99 1.04 2.99 1.29 2.95 1.41 2.9 1.4 2.84 1.36 2.82 1.37 2.81 1.45 2.83 1.54 2.85 1.48 2.88 1.17 2.88.62 2.87-.03 2.85-.57 2.83-.8 2.79-.65 2.75-.21 2.72.38 2.7.9 2.68 1.27 2.68 1.36 2.68 1.1 2.66.62 2.59.14 2.48-.23 2.38-.87 2.42-1.43 2.52" filter="url(#a)"/><path d="m73.95-36.77 1.24 3.92 1.04 3.1 1 2.65 1.07 2.66 1.11 2.86 1.09 3.06 1.01 3.16.89 3.12.7 3.03.47 2.91.27 2.8.11 2.75.05 2.74.08 2.78.14 2.8.19 2.8.17 2.78.07 2.73-.11 2.7-.31 2.68-.46 2.7-.51 2.75-.48 2.8-.44 2.86-.45 2.91-.54 2.81-.5 2.26-.03 1.52m-6.39-77.75 12.89 2.34 8 2.68-1.41 2.73-3.96 2.68-1.96 2.68 1.55 2.71 4.72 2.8 6.45 2.89 6.35 2.95 4.78 2.98 2.59 2.94.8 2.88.08 2.82.53 2.78 1.76 2.77 3.14 2.8 4.15 2.83 4.54 2.86 4.3 2.88 3.65 2.89 2.84 2.87 2.24 2.82 1.94 2.74 1.56 2.71.3 2.78-1.55 2.86.52 2.67" filter="url(#a)"/><path d="m72.13-41.28 2.54 2.98 1.85 2.71 1.66 2.82 2 2.79 2.26 2.75 2.33 2.79 2.36 2.92 2.33 3.04 2.09 3.1 1.58 3.09.87 3.02.18 2.93-.27 2.86-.35 2.8-.11 2.79.29 2.79.68 2.81.93 2.8.99 2.79.92 2.76.86 2.74.9 2.73 1.08 2.75 1.27 2.77 1.38 2.79 1.28 2.81.97 2.8.56 2.77.22 2.73.08 2.7.13 2.69.23 2.62.22 2.46-.06 2.31-2.3 2.96" filter="url(#a)"/><path d="m72.13-41.28 1.57 2.96 2.13 2.68 3.1 2.8 3.35 2.77 2.7 2.71 1.55 2.75.44 2.88-.28 3.02-.57 3.1-.48 3.09-.2 3.02.2 2.92.61 2.81.91 2.75 1.06 2.74.96 2.77.67 2.81.32 2.82.06 2.79.04 2.72.24 2.66.58 2.65.91 2.68 1.14 2.74 1.23 2.66 1.16 2.39.65 2.72" filter="url(#a)"/><path d="m71.87-42.3 3.54 2.96 4.53 2.79 4.21 2.71 2.2 2.69.42 2.68-.21 2.67.16 2.66.96 2.68 1.92 2.76 2.81 2.85 3.51 2.93 3.83 2.97L103.47-6l3.24 2.87 2.65 2.78 2.1 2.71 1.66 2.71 1.47 2.76 1.78 2.84 2.68 2.83 3.4 2.57 2.67 1.8" filter="url(#a)"/><path d="m71.87-42.3 2.24 2.99 1.68 2.83.73 2.75.45 2.73.58 2.71.81 2.71 1.02 2.71 1.11 2.75 1.11 2.82 1 2.89.81 2.95.57 2.96.35 2.94.16 2.89.04 2.84-.03 2.81-.06 2.8-.1 2.82-.14 2.84-.2 2.87-.27 2.89-.33 2.88-.4 2.87-.47 2.83-.48 2.78-.47 2.75-.4 2.74-.38 2.71-.41 2.57-.56 2.25-.7 1.59" filter="url(#a)"/><path d="m71.69-43.33.64 2.39.74 2.6.53 2.71.24 2.77.09 2.76.17 2.76.3 2.81.36 2.91.28 3.02.04 3.09-.29 3.07-.7 3.02-1.12 2.93-1.56 2.85-1.94 2.8-2.23 2.78-2.38 2.8-2.36 2.8-2.17 2.8-1.89 2.79-1.6 2.75-1.41 2.73-1.37 2.71-1.47 2.73-1.64 2.77-1.76 2.81-1.71 2.83-1.47 2.83-1.29 2.76-1.5 2.65-2.28 2.63-2.92 2.97-2.1 3.53M71.2-44.64 81.43-43l-.46 2.2.85 2.49 4.03 2.66 5.52 2.74 5.07 2.74 3.62 2.77 2.16 2.82 1.09 2.93.42 3.01.06 3.07.05 3.06.49 3.02 1.4 2.93 2.59 2.86 3.72 2.81 4.37 2.79 4.28 2.8 3.45 2.8 2.18 2.81.97 2.78.2 2.76.08 2.73.48 2.72 1.07 2.73 1.59 2.77 1.87 2.81 2.03 2.83 2.14 2.83 2.18 2.77 1.84 2.65.93 2.64-.17 2.97.11 3.53" filter="url(#a)"/><path d="m71.2-44.64.19 1.63-1.02 2.19-1.67 2.48-1.29 2.65-.73 2.72-.33 2.74.07 2.74.56 2.81 1.03 2.9 1.26 3.01 1.15 3.07.71 3.07.11 3.01-.5 2.93-1.01 2.84-1.36 2.78-1.58 2.77-1.71 2.78-1.83 2.81-1.96 2.82-2.06 2.79-2.08 2.74-1.97 2.69L53.41 21l-1.55 2.69-1.35 2.74-1.15 2.77-.93 2.85-.82 3.36-1.26 4.9M71.2-44.64l3.52 1.61 5.23 2.15 6.54 2.43 4.57 2.61 1.89 2.7.9 2.7 2.08 2.69 4.37 2.73 6.34 2.84 6.96 2.98 6.04 3.08 4.1 3.1 2.04 3.05.56 2.91-.03 2.77.21 2.66 1.06 2.62 2.46 2.7 4.26 2.87 5.73 3.05 6.09 3.04 7.78 2.5" filter="url(#a)"/><path d="m69.35-48.45.66 1.4 1.36 2.1 1.64 2.57 1.46 2.77 1.23 2.8 1.13 2.79 1.15 2.77 1.2 2.74 1.19 2.73 1.17 2.74 1.12 2.77 1.11 2.83 1.1 2.89 1.06 2.93.97 2.95.82 2.93.63 2.9.43 2.86.25 2.83.12 2.82.06 2.83.04 2.85.06 2.87.09 2.89.13 2.9.15 2.87.17 2.84.13 2.79v2.76l-.26 2.74-.56 2.72-.59 2.59-.11 2.25.69 1.6" filter="url(#a)"/><path d="m68.72-49.25 1.04 1.72 1.05 2.15 1.09 2.23 1.24 2.35 1.44 2.49 1.58 2.61 1.65 2.69 1.61 2.74 1.49 2.77 1.32 2.85 1.16 2.92 1.04 3 .94 3.05.83 3.05.71 3.01.54 2.94.39 2.87.27 2.83.2 2.8.22 2.8.29 2.81.42 2.81.56 2.79.68 2.76.7 2.74.58 2.72.32 2.74-.05 2.78-.44 2.81-.74 2.84-.8 2.83-.63 2.77-.32 2.66-.22 2.64-.71 2.97-1.27 3.54" filter="url(#a)"/><path d="m67.32-52.21 1.8 2.8.96 2.17 1 2.28 1.24 2.54 1.43 2.69 1.52 2.76 1.52 2.77 1.51 2.74 1.51 2.73 1.49 2.72 1.43 2.72 1.32 2.75 1.23 2.8 1.19 2.87 1.16 2.93 1.12 2.95 1.02 2.94.84 2.9.67 2.83.54 2.79.52 2.78.58 2.79.7 2.83.77 2.86.65 2.89.3 2.97-.16 3.07-.18 2.96 1.23 1.82M66.66-53.79l2.51 2.05 4.58 2.23 3.66 2.21 2.95 2.34 3.2 2.53 3.51 2.66 3.33 2.74 2.76 2.76 2.12 2.74 1.67 2.73 1.47 2.72 1.51 2.73 1.8 2.76 2.31 2.81 3.04 2.87 3.89 2.92 4.64 2.96 5.09 2.94 5 2.9 4.34 2.84 3.16 2.79 1.79 2.78.57 2.8-.09 2.83.02 2.86.84 2.9 1.91 2.97 2.53 3.07 2.86 2.96 4.6 1.83" filter="url(#a)"/><path d="m62.37-60.13 2.98 2.1 3.49 2.4 2.5 2.51 2.21 2.49 2.53 2.42 2.73 2.36 2.55 2.35 2.25 2.39 2.14 2.46 2.19 2.55 2.32 2.63 2.33 2.68 2.25 2.73 2.17 2.79 2.13 2.88 2.13 2.98 2.17 3.05 2.21 3.07 2.35 3.04 2.6 2.95 2.92 2.84 3.08 2.73 2.8 2.71 2.12 2.75L123 6.6l1.36 2.98 1.62 2.98 1.22 2.76.96 2.53" filter="url(#a)"/><path d="m60.56-63.08 3.15 2.56 3.29 2.4 3.04 2.44 2.84 2.49 2.49 2.48 2.04 2.41 1.86 2.38 2.23 2.36 3.07 2.4 3.97 2.47 4.57 2.55 4.7 2.62 4.47 2.68 4 2.74 3.43 2.79 2.74 2.89 1.94 2.97 1.08 3.05.39 3.07.13 3.04.44 2.96 1.16 2.84 1.94 2.74 2.39 2.71 2.49 2.76 2.42 2.87 2.35 2.98 2.21 2.98 2.17 2.76 2.31 2.54M59.66-63.7l.74 2.2.57 2.34.66 2.33.67 2.3.74 2.27.86 2.25.86 2.28.71 2.35.44 2.46.15 2.57-.1 2.66-.25 2.71-.31 2.71-.36 2.71-.45 2.68-.63 2.66-.81 2.65-.9 2.68-.95 2.76-1.1 2.92-1.59 3.16-2.05 3.65-1.55 4.83" filter="url(#a)"/><path d="m59.66-63.7 1.88 2.24 1.97 2.38 1.71 2.37 1.42 2.34 1.26 2.31 1.19 2.3 1.2 2.35 1.2 2.42 1.19 2.53 1.11 2.62 1.02 2.69.93 2.73.84 2.74.78 2.75.76 2.75.73 2.77.71 2.79.69 2.83.67 2.88.65 2.92.61 2.95.58 2.93.51 2.91.45 2.87.35 2.84.24 2.82.12 2.83.01 2.85-.09 2.89-.19 2.91-.28 2.92-.38 2.91-.47 2.85-.53 2.75-.51 2.7-.51 2.85-.74 3.24" filter="url(#a)"/><path d="m59.66-63.7 3.4 2.21 1.35 2.36 1.34 2.34 1.81 2.31 2.23 2.28 2.35 2.27 2.16 2.29 1.72 2.38 1.23 2.48.84 2.59.65 2.67.67 2.71.87 2.72 1.11 2.71 1.32 2.7 1.43 2.7 1.39 2.7 1.28 2.75 1.14 2.84 1.07 2.94 1.11 3.04 1.23 3.07 1.33 2.96 1.29 2.75 1.03 2.77.82 3.64" filter="url(#a)"/><path d="m59.66-63.7 2.09 2.24 2.83 2.38 3.1 2.37 2.67 2.34 2.01 2.31 1.58 2.3 1.52 2.35 1.74 2.42 2.11 2.53 2.52 2.62 2.82 2.69 2.96 2.73 2.91 2.74 2.65 2.75 2.25 2.75 1.73 2.77 1.18 2.79.67 2.83.24 2.88-.06 2.92-.19 2.95-.21 2.93-.1 2.91.11 2.87.37 2.84.7 2.82 1.03 2.83 1.33 2.85 1.54 2.89 1.65 2.91 1.7 2.92 1.71 2.91 1.58 2.85 1.2 2.75.54 2.7-.11 2.85-1.08 3.24M56.23-68.18l6.09 2.33 2.58 2.53 3.87 2.52 5.44 2.49 5.5 2.48 4.03 2.49 2.1 2.45.75 2.42.44 2.39 1.01 2.39 2.01 2.41 2.96 2.48 3.52 2.55 3.58 2.61 3.23 2.67 2.71 2.73 2.27 2.8 2.21 2.88 2.66 2.97 3.6 3.05 4.73 3.08 5.7 3.06 6.13 2.96 5.89 2.84 5.13 2.73 4.26 2.69 3.7 2.74 3.57 2.89 3.61 3.07 3.74 3.08 6.07 2.55" filter="url(#a)"/><path d="m53.37-71.61 1.09 1.38 1.85 2.03 2.19 2.33 2.46 2.44 2.74 2.48 3.06 2.49 3.38 2.48 3.66 2.48 3.86 2.46 3.96 2.42 3.93 2.4 3.77 2.4 3.53 2.43 3.31 2.48 3.21 2.54 3.31 2.61 3.46 2.67 3.49 2.72 3.25 2.79 2.72 2.88 2.08 2.97 1.62 3.06 1.54 3.09 1.97 3.08 2.83 2.98 3.91 2.84 4.82 2.71 5.14 2.64 4.52 2.7 3.04 2.92 1.69 3.26 3.6 3.54" filter="url(#a)"/><path d="m52.69-72.48 1.18 1.26 2.51 2.14 2.86 2.36 2.94 2.42 3.1 2.42 3.24 2.4 3.15 2.38 2.85 2.34 2.55 2.33 2.5 2.32 2.73 2.35 3.15 2.42 3.62 2.5 4 2.58 4.31 2.66 4.51 2.7 4.61 2.72 4.56 2.73 4.29 2.73 3.78 2.72 3.11 2.75 2.4 2.8 1.82 2.86 1.51 2.94 1.54 3 1.9 3.01L134-3.7l3.65 2.82 5.01 2.7 6.25 2.64 6.02 2.71 2.77 3.45M46.82-77.96l3.82 2.76 6.67 2.03 8.36 1.94 7.02 2.07 4.17 2.22 1.7 2.31.62 2.36.87 2.36 1.88 2.35 2.94 2.32 3.58 2.28 3.63 2.26 3.31 2.26 3.08 2.31 3.44 2.4 4.62 2.54 6.27 2.65 7.47 2.72 7.23 2.73 5.3 2.74 2.51 2.7-.95 2.31" filter="url(#a)"/><path d="m46.82-77.96 3.52 2.79 2.27 2.05 1.85 1.97 1.72 2.11 1.75 2.25 1.8 2.35 1.88 2.38 1.92 2.38 1.95 2.37 1.96 2.34 1.96 2.32 1.96 2.33 2.01 2.34 2.11 2.4 2.26 2.48 2.38 2.57 2.42 2.65 2.31 2.69 2.03 2.73 1.64 2.72 1.28 2.72 1.03 2.7.94 2.7.94 2.73.92 2.82.84 2.96.8 3.14.97 3.29 1.23 3.14 1.82 1.55" filter="url(#a)"/><path d="m46.82-77.96 4.01 2.8 4.79 2.07 4.04 1.99 3.52 2.13 3.24 2.27 2.68 2.35 1.86 2.4 1.21 2.39 1.02 2.38 1.3 2.36 1.88 2.34 2.61 2.36 3.43 2.38 4.27 2.44 5.01 2.51 5.43 2.59 5.36 2.65 4.7 2.7 3.6 2.73 2.34 2.73 1.24 2.75.53 2.75.25 2.78.29 2.82.48 2.88.73 2.93.99 2.97 1.33 2.97 1.84 2.92 2.51 2.86 3.24 2.8 3.78 2.77 3.9 2.82 3.69 2.87 3.32 2.88 2.32 2.64-.23 1.85" filter="url(#a)"/><path d="m46.16-78.39 2.67 2.06 3.06 2.18 2.75 1.98 2.24 1.93 1.78 2.04 1.5 2.19 1.44 2.32 1.55 2.4 1.73 2.44 1.88 2.46 1.93 2.45 1.87 2.45 1.73 2.41 1.54 2.37 1.36 2.36 1.22 2.37 1.14 2.42 1.13 2.51 1.17 2.59 1.21 2.65 1.16 2.64 1.04 2.6.92 2.63.97 2.86 1.26 3.26 1.59 3.5" filter="url(#a)"/><path d="m46.16-78.39 2.82 2.06 3.55 2.18 3.64 1.98 2.89 1.93 2 2.04 1.56 2.19 1.73 2.32 2.33 2.4 2.98 2.44 3.41 2.46 3.41 2.45 3.06 2.45 2.53 2.41 2.08 2.37L86-44.35l1.88 2.37 2.1 2.42 2.42 2.51 2.73 2.59 2.91 2.65 2.89 2.64 2.67 2.6 2.37 2.63 2.35 2.86 3.21 3.26 5.46 3.5" filter="url(#a)"/><path d="m45.41-79.03 2.13 1.73L50-75.21l2.4 2.03 2.3 2.04L56.94-69l2.22 2.26 2.22 2.34 2.15 2.37 1.98 2.39 1.77 2.37 1.59 2.36 1.51 2.35 1.53 2.35 1.58 2.38 1.62 2.43 1.62 2.51 1.55 2.58 1.44 2.65 1.32 2.7 1.19 2.72 1.09 2.73 1.05 2.74 1.1 2.75 1.23 2.76 1.44 2.81 1.68 2.88 1.84 2.94 1.85 2.98 1.69 3 1.36 2.94.96 2.84.55 2.75.23 2.71-.03 2.78-.29 2.98-.62 3.07M45.41-79.03l-8.49 1.72 2.77 2.09 2.59 2.02 1.24 2.03.25 2.14-.38 2.25-.56 2.33-.22 2.37.48 2.38 1.23 2.37 1.7 2.35 1.65 2.34 1.07 2.34.16 2.36-.77 2.42-1.42 2.5-1.65 2.57-1.48 2.65-1.09 2.69-.69 2.72-.38 2.73-.19 2.73-.06 2.72-.03 2.74-.2 2.77-.73 2.86-1.69 2.95-2.96 3.06-4.17 3.08-4.74 2.98L22.5-.98l-2.55 2.8L18 5.48" filter="url(#a)"/><path d="m43.6-80.49 1.7 1.25 1.8 1.39 2.06 1.7 2.19 1.86 2.22 1.91 2.21 1.95 2.2 2.04 2.19 2.16 2.13 2.27 2.03 2.36 1.88 2.42 1.78 2.44 1.73 2.45 1.76 2.45 1.76 2.41 1.72 2.36 1.61 2.31 1.46 2.28 1.39 2.3 1.36 2.42 1.39 2.65 1.53 3.14 1.68 3.86" filter="url(#a)"/><path d="m43.6-80.49 1.82 1.26 1.77 1.39 2.13 1.71 2.3 1.87 2.31 1.92 2.3 1.96 2.28 2.05 2.25 2.18 2.23 2.28 2.18 2.37 2.12 2.42 2.02 2.45 1.87 2.45 1.7 2.44 1.57 2.42L76-46.95l1.62 2.33 1.75 2.34 1.76 2.37 1.58 2.49 1.26 2.64 1.02 2.76 1.13 2.72 1.63 2.3 2.12 1.67M40.35-82.87l14.54 2.43 2.2 1.64.67 1.67 2.15 1.8 3.44 1.9 3.77 1.98 3.6 2.08 3.58 2.18 3.95 2.27 4.45 2.33 4.69 2.35 4.49 2.35 4.01 2.32 3.73 2.29 3.94 2.25 4.6 2.23 5.27 2.24 5.44 2.35 4.88 2.54 3.71 2.74 2.93 2.76 7.35 2.39" filter="url(#a)"/><path d="m40.35-82.87 7.73 2.44 5.79 1.66 2.27 1.7.75 1.82.72 1.93 1.42 2.01 2.4 2.12 3.36 2.21 4.1 2.29 4.64 2.35 4.99 2.36 5.24 2.35 5.32 2.34 5.13 2.32 4.61 2.31 3.8 2.32 2.86 2.37 1.99 2.45 1.36 2.55 1.08 2.64 1.19 2.71 1.69 2.74 2.51 2.74 3.47 2.72 4.12 2.67 4.05 2.62 3.7 2.51 4.65 2.39" filter="url(#a)"/><path d="m40.35-82.87 3.44 2.46 2.95 1.67 3.4 1.72 3.38 1.85 3.05 1.95 2.69 2.04 2.36 2.15 2.04 2.24 1.77 2.31 1.6 2.35 1.6 2.38 1.76 2.37 2.05 2.35 2.42 2.36 2.81 2.35 3.17 2.39 3.41 2.44 3.48 2.51 3.3 2.57 2.91 2.65 2.36 2.69 1.81 2.72 1.39 2.73 1.2 2.74 1.27 2.75 1.54 2.76 1.9 2.81 2.22 2.87 2.39 2.95 2.43 3 2.33 3.02L117-3.77l2.17 2.84 2.2 2.71 2.19 2.66 1.84 2.72.5 3.46" filter="url(#a)"/><path d="m36.18-85.53 2.99 1.98 2.4 1.58 2.28 1.56 2.19 1.63 2.16 1.71 2.17 1.82 2.19 1.92 2.24 2.02 2.29 2.11 2.34 2.21 2.35 2.29 2.32 2.33 2.27 2.36 2.19 2.35 2.14 2.35 2.12 2.34 2.11 2.33 2.13 2.35 2.12 2.4 2.09 2.47 2.02 2.56 1.91 2.64 1.73 2.7 1.46 2.74 1.13 2.73.83 2.72.71 2.69.91 2.67 1.38 2.66 1.85 2.73 1.78 2.91.85 3.14" filter="url(#a)"/><path d="m36.23-85.42 2.36 1.4 2.57 1.59 2.7 1.54 2.78 1.53 2.94 1.6 3.31 1.71 3.76 1.82 4.04 1.91 3.95 1.99 3.47 2.09 2.83 2.19 2.32 2.29 2.18 2.37 2.49 2.41 3.11 2.45 3.79 2.46 4.3 2.45 4.48 2.44 4.29 2.41 3.84 2.41 3.28 2.43 2.78 2.47 2.47 2.52 2.44 2.6 2.62 2.64 2.94 2.69 3.23 2.73 3.38 2.81 3.35 2.95 3.22 3.15 3.21 3.31 3.51 3.32 4.04 3.07 2.69 2.41" filter="url(#a)"/><path d="m36.36-85.54 2.43.76 6.22 1.33 7.42 1.48 6.58 1.55 5.28 1.62 4.54 1.72 4.44 1.82 4.54 1.91 4.39 2.02 3.84 2.11 2.98 2.21 2.07 2.27 1.33 2.33.92 2.35.87 2.36 1.2 2.35 1.85 2.34 2.73 2.33 3.75 2.36 4.76 2.4 5.58 2.48 6.03 2.56 6 2.64 5.47 2.7 4.72 2.73 4.07 2.74 3.88 2.73 4.19 2.69 4.77 2.67 5.42 2.66 6.36 2.73 7.74 2.92 8.09 3.14" filter="url(#a)"/><path d="m31.65-88.26 8.31 1.91 5.55 1.43 2.11 1.41.99 1.47 1.09 1.53 1.39 1.61 1.6 1.69 1.87 1.79 2.32 1.89 2.96 1.98 3.59 2.08 4.04 2.18 4.19 2.25 4.03 2.32 3.74 2.35 3.59 2.35 3.74 2.34 4.23 2.31 4.84 2.29 5.33 2.27 5.45 2.3 5.24 2.39 4.88 2.54 4.58 2.69 4.43 2.75 4.62 2.66 5.77 2.67" filter="url(#a)"/><path d="m31.26-88.38 1.4.54 4.2 1.08 4.99 1.3 4.36 1.43 3.63 1.49 3.27 1.52 3.13 1.56 3.09 1.62 3.09 1.7 3.09 1.8 2.98 1.88 2.8 1.97 2.58 2.08 2.42 2.17 2.42 2.26 2.61 2.35 2.87 2.4 3.14 2.45 3.35 2.45 3.49 2.46 3.66 2.43 3.87 2.4 4.08 2.39 4.19 2.4 4.08 2.43 3.8 2.52 3.53 2.61 3.48 2.67 3.68 2.66 3.93 2.57 4.25 2.54 4.94 2.83 4.49 3.53" filter="url(#a)"/><path d="m26.17-90.76 2.96.77 2.89 1 2.62 1.06 2.85 1.15 3.12 1.27 3.3 1.38 3.39 1.44 3.38 1.48 3.31 1.53 3.24 1.59 3.25 1.67 3.27 1.75 3.22 1.84 3 1.92 2.69 2.01 2.48 2.12 2.53 2.23 2.92 2.33 3.56 2.4 4.23 2.44 4.75 2.48 4.98 2.51 4.93 2.5 4.94 2.44 5.07 2.29 2.74 1.83" filter="url(#a)"/><path d="m22.91-91.81 3.19 1.15 4.52 1.02 5.54 1.04 4.97 1.13 3.55 1.23 2.21 1.33 1.42 1.4 1.32 1.47 1.76 1.55 2.47 1.63 3.13 1.71 3.52 1.81 3.56 1.9 3.38 2 3.16 2.09 3.02 2.19 3.07 2.25 3.24 2.31 3.43 2.34 3.56 2.35 3.57 2.36 3.51 2.34 3.41 2.35 3.34 2.37 3.33 2.4 3.32 2.48 3.28 2.56 3.16 2.64 3 2.71 2.95 2.75 3.12 2.75 3.51 2.74 3.88 2.7 3.88 2.65 3.54 2.63 3.8 2.67 5.76 3" filter="url(#a)"/><path d="m23.55-91.81 6.81.9 1.65.92 2.02.99 2.87 1.06 3.01 1.16 2.76 1.27 2.53 1.36 2.53 1.43 2.7 1.48 2.99 1.54 3.24 1.59 3.41 1.67 3.41 1.75 3.24 1.83 3.05 1.92 3.07 2.02 3.47 2.12 4.28 2.23 5.24 2.32 5.93 2.4 5.94 2.45 5.25 2.49 4.39 2.5 4.08 2.51 4.36 2.44 4.32 2.29 4.37 1.84" filter="url(#a)"/><path d="m20.41-92.61 3.03.92 3.29 1 3.24 1.01 3.1 1.05 2.87 1.13 2.65 1.22 2.56 1.31 2.65 1.38 2.85 1.46 3.08 1.53 3.26 1.61 3.34 1.69 3.36 1.78 3.37 1.88 3.42 1.97L70-69.6l3.68 2.17 3.81 2.24 3.85 2.31 3.76 2.35 3.6 2.35 3.4 2.35 3.26 2.33 3.16 2.3 3.07 2.29 3.02 2.32 3.11 2.4 3.44 2.55 4.07 2.7 4.82 2.76 5.26 2.69 4.53 2.68" filter="url(#a)"/><path d="m18.49-93.44 2.12.68 3.08.87 3.32.92 3.05.97 2.7 1.01 2.57 1.08 2.69 1.18L41-85.47l3.31 1.36 3.57 1.43 3.69 1.48 3.69 1.55 3.57 1.62 3.49 1.69 3.49 1.77 3.68 1.85 3.99 1.95 4.26 2.04 4.33 2.15 4.09 2.24 3.67 2.33 3.32 2.4 3.36 2.44 3.96 2.47 5 2.47 6.06 2.45 6.61 2.4 6.24 2.35 4.93 2.29 3.25 2.3 2.22 2.34 2.68 2.48 3.54 3.21" filter="url(#a)"/><path d="m18.49-93.44 3.5.68 2.45.87 2.19.93 2.15.96 2.12 1.01 2.16 1.09 2.3 1.18 2.49 1.27 2.64 1.35 2.71 1.43 2.71 1.49 2.65 1.56 2.61 1.61 2.56 1.7 2.52 1.77 2.44 1.86 2.32 1.96 2.19 2.04 2.1 2.15 2.07 2.25 2.11 2.33 2.18 2.39 2.24 2.45 2.27 2.46 2.26 2.47 2.22 2.44 2.16 2.41 2.09 2.35 2 2.33 1.86 2.35 1.71 2.44 1.56 2.68 1.64 3.16 2.15 3.91" filter="url(#a)"/><path d="m16.4-93.85 2.06.53 2.24.77 2.42.89 2.51.96 2.54 1.01 2.58 1.06 2.65 1.14 2.8 1.22 2.96 1.3 3.16 1.38 3.35 1.45 3.57 1.53L52.99-79l3.86 1.7 3.83 1.78 3.63 1.88 3.29 1.98 2.91 2.07 2.55 2.16 2.31 2.25 2.2 2.3 2.2 2.34 2.22 2.36 2.27 2.35 2.3 2.33 2.33 2.32 2.37 2.32 2.39 2.34L96-44.09l2.33 2.55 2.42 2.68 2.67 2.76 2.86 2.79 2.59 2.86 2.01 3.19" filter="url(#a)"/><path d="m16.4-93.85 1.94.52 1.94.75 1.88.88 1.76.95 1.57.99 1.37 1.04 1.11 1.11.77 1.19.41 1.27.19 1.34.23 1.42.54 1.49.94 1.56 1.23 1.64 1.23 1.73.91 1.82.36 1.9-.25 2.01-.82 2.12-1.26 2.24-1.53 2.34-1.79 2.39-2.4 2.4-3.35 2.4-2.76 2.56" filter="url(#a)"/><path d="m16.4-93.85 2.19.53 2.6.76 2.86.89 2.8.95 2.63 1 2.59 1.06 2.82 1.13 3.24 1.21 3.76 1.29 4.28 1.37 4.73 1.44L56-80.7l5.39 1.59 5.58 1.68 5.6 1.77 5.46 1.86 5.29 1.95 5.25 2.06 5.44 2.15 5.79 2.24 6.08 2.31 6.07 2.35 5.74 2.37 5.37 2.36 5.34 2.33 5.81 2.28 6.56 2.23 7.09 2.19 6.74 2.25 5.18 2.57 3.93 2.99M14.9-94.27l1.8.74 1.76.77 1.95.85 2.25.91 2.25.95 1.88 1.01 1.4 1.07 1.01 1.15.81 1.25.77 1.34.79 1.4.85 1.47.92 1.52.98 1.59.98 1.66.91 1.74.72 1.82.49 1.9.25 2 .06 2.1-.06 2.22-.21 2.33-.45 2.41-.89 2.45-1.52 2.48-2.03 2.55-1.67 2.53-.67 1.92" filter="url(#a)"/><path d="m11.77-94.87 2.77.64 2.66.71 2.52.78 2.38.84 2.17.9 1.9.96 1.63 1.01 1.37 1.08 1.19 1.16 1.1 1.25 1.1 1.34 1.18 1.41 1.31 1.47 1.42 1.53 1.47 1.6 1.42 1.67 1.26 1.75 1.05 1.83.83 1.92.63 2.02.46 2.12.31 2.23.16 2.32.04 2.41-.03 2.45-.02 2.5-.06 2.51-.36 2.52-.8 2.45-.77 2.31.46 1.85" filter="url(#a)"/><path d="m9.6-95.48 2.2.6 1.87.64 1.3.7.89.76.75.83.74.88.8.93.86.99.87 1.05.86 1.13.9 1.22 1.01 1.3 1.11 1.38 1.1 1.44.9 1.49.51 1.54.04 1.62-.47 1.7-1.06 1.79-1.71 1.82-2.14 1.85-1.79 1.96-.48 2.2-.55 2.58" filter="url(#a)"/><path d="m6.5-95.52 2.85.23 3.27.47 3.73.59 3.74.68 3.57.75 3.53.82 3.68.87 3.91.92 3.99.98 3.83 1.04 3.54 1.12 3.38 1.2 3.64 1.3 4.43 1.37 5.62 1.43 6.98 1.47 8.24 1.51 9.13 1.6 9.19 1.72 7.86 1.81 5.1 1.79 2.87 1.69 7.23 1.98" filter="url(#a)"/><path d="m4.77-95.67 6.1.25 3.41.4 2.08.5 1.99.58 2.27.68 2.56.76 2.88.84 3.25.92 3.61.98 3.81 1.06 3.72 1.12 3.39 1.2 2.98 1.27 2.67 1.35 2.62 1.43 2.84 1.51 3.23 1.58 3.62 1.67 3.91 1.75 4.06 1.85 4.11 1.94 4.18 2.04 4.27 2.14 4.35 2.24 4.4 2.32 4.44 2.36 4.54 2.38 4.71 2.38 4.77 2.36 4.45 2.32 3.9 2.21 4.19 1.92 7.12 1.48" filter="url(#a)"/><path d="m6.04-95.56 2.32.09 2.65.27 2.56.44 2.89.57 3.53.66 4.16.75 4.5.81 4.32.88 3.69.93 2.86.98 2.16 1.05 1.9 1.13 2.15 1.22 2.84 1.3 3.79 1.38 4.81 1.43 5.72 1.49 6.38 1.54 6.71 1.62 6.6 1.71 6.02 1.79 5.21 1.83 4.74 1.85 5.45 1.97 7.46 2.2 8.1 2.59" filter="url(#a)"/><path d="m6.04-95.56 1.27.09 2.18.27 2.56.44 2.72.57 2.76.66 2.72.75 2.65.81 2.58.88 2.5.93 2.45.98 2.41 1.05L35.26-87l2.44 1.22 2.48 1.3 2.53 1.38 2.57 1.43 2.58 1.49 2.57 1.54 2.55 1.62 2.52 1.71 2.47 1.79 2.37 1.83 2.32 1.85 2.49 1.97 2.83 2.2 2.56 2.59" filter="url(#a)"/><path d="m3.99-96.04 2.71.31 2.7.32 2.92.39 2.85.48 2.63.56 2.54.65 2.67.73 3.09.81 3.69.89 4.32.94 4.81 1.01 5.02 1.08 4.92 1.15 4.61 1.22 4.29 1.31 4.09 1.37 4 1.44 4.02 1.5 4.1 1.58 4.34 1.69 4.68 1.81 4.4 1.66 3.15.87" filter="url(#a)"/><path d="m3.99-96.04 1.82.31 2.85.33 3.16.41 3.51.5 3.84.58 3.91.68 3.65.76 3.31.84 3.15.92 3.23.99 3.49 1.05 3.73 1.13 3.84 1.21 3.76 1.28 3.54 1.36 3.26 1.43 3.01 1.52 2.86 1.6 2.89 1.68 3.11 1.76 3.53 1.87 4.07 1.95 4.6 2.06 4.98 2.15 5.11 2.24 4.96 2.3 4.61 2.35 4.22 2.37 4.01 2.36 4.07 2.34 4.45 2.3 4.95 2.27 5.35 2.26 5.5 2.35 5.22 2.58 4.61 2.92 4.7 3.15" filter="url(#a)"/><path d="m1.74-95.98 2.68.29 1.67.22 1.44.3 1.58.43 1.85.55 2.02.65 2.01.73 1.89.8 1.79.86 1.69.91 1.53.97 1.22 1.04.72 1.11.11 1.2-.44 1.29-.82 1.37-.99 1.42-1.02 1.46-1.07 1.5-1.14 1.58-1.02 1.74-.5 1.88.08 1.75-.41 1.15" filter="url(#a)"/><path d="m1.42-96.17 2.2.19 2.44.27 2.78.33 2.84.4 2.78.49 2.83.57 3.03.66 3.35.74 3.67.83 3.88.9 3.87.97 3.72 1.04 3.55 1.1 3.53 1.19 3.78 1.26 4.27 1.33 4.88 1.41L64.25-81l5.79 1.56 5.87 1.64 5.67 1.73 5.29 1.81 4.84 1.92 4.56 2.01 4.64 2.13 5.14 2.24 5.82 2.34 6.09 2.41 5.45 2.42 4.49 2.43 7.6 2.57" filter="url(#a)"/></g><path fill="none" stroke="#000" stroke-linejoin="round" stroke-width="3" d="M-10.9 14.16q20.57 6 10.285-19.814" filter="url(#a)"/><path fill="#D77F8C" stroke="#000" stroke-linejoin="round" stroke-width="3" d="m-31.99 72.44.06-.41.09-.42.11-.43.15-.43.17-.45.2-.46.22-.46.25-.48.27-.48.3-.48.32-.5.34-.49.37-.51.39-.5.4-.52.43-.51.45-.52.47-.52.49-.52.51-.52.53-.52.54-.52.56-.52.58-.52.59-.52.61-.51.62-.51.64-.51.65-.5.66-.5.68-.49.69-.49.7-.48.71-.47.72-.47.74-.45.74-.45.75-.44.76-.43.76-.42.78-.4.78-.4.79-.38.79-.37.8-.36.8-.34.8-.33.81-.31.82-.29.81-.28.82-.27.82-.24.82-.23.81-.21.82-.19.82-.17.82-.15.81-.13.81-.1.81-.09.81-.06.8-.04.8-.01h.79l.78.04.78.06.78.08.76.12.76.14.75.17.74.19.73.23.72.25.71.29.7.31.68.35.68.38.66.41.65.44.63.48.62.51.61.55.59.58.57.62.56.66.54.69.52.73.51.77.48.8.47.85.45.88.42.93.41.97.38 1 .36 1.06.34 1.09.32 1.14.29 1.18.27 1.22.24 1.27-.24-1.27-.27-1.22-.29-1.18-.32-1.14-.34-1.09-.36-1.06-.38-1-.41-.97-.42-.93-.45-.88-.47-.85-.48-.8-.51-.77-.52-.73-.54-.69-.56-.66-.57-.62-.59-.58-.61-.55-.62-.51-.63-.48-.65-.44-.66-.41-.68-.38-.68-.35-.7-.31-.71-.29-.72-.25-.73-.23-.74-.19-.75-.17-.76-.14-.76-.12-.78-.08-.78-.06-.78-.04h-.79l-.8.01-.8.04-.81.06-.81.09-.81.1-.81.13-.82.15-.82.17-.82.19-.81.21-.82.23-.82.24-.82.27-.81.28-.82.29-.81.31-.8.33-.8.34-.8.36-.79.37-.79.38-.78.4-.78.4-.76.42-.76.43-.75.44-.74.45-.74.45-.72.47-.71.47-.7.48-.69.49-.68.49-.66.5-.65.5-.64.51-.62.51-.61.51-.59.52-.58.52-.56.52-.54.52-.53.52-.51.52-.49.52-.47.52-.45.52-.43.51-.4.52-.39.5-.37.51-.34.49-.32.5-.3.48-.27.48-.25.48-.22.46-.2.46-.17.45-.15.43-.11.43-.09.42" filter="url(#a)"/></svg>