<svg viewBox="-100 -100 200 200" xmlns="http://www.w3.org/2000/svg" width="500" height="500" id="face-svg">
    <defs>
      <clipPath id="leftEyeClipPath">
        <polyline points="24.27,1.59 24.3,1.45 24.3,1.3 24.26,1.13 24.18,0.96 24.08,0.79 23.94,0.6 23.76,0.41 23.56,0.22 23.32,0.02 23.06,-0.18 22.76,-0.38 22.44,-0.58 22.1,-0.78 21.72,-0.98 21.32,-1.18 20.91,-1.47 20.47,-1.76 20,-2.03 19.49,-2.3 18.95,-2.56 18.37,-2.81 17.77,-3.04 17.13,-3.26 16.47,-3.47 15.78,-3.67 15.06,-3.84 14.32,-4 13.56,-4.15 12.77,-4.28 11.97,-4.39 11.14,-4.49 10.3,-4.57 9.44,-4.63 8.57,-4.68 7.68,-4.71 6.79,-4.72 5.88,-4.72 4.97,-4.7 4.05,-4.67 3.13,-4.62 2.2,-4.55 1.28,-4.48 0.35,-4.38 -0.58,-4.28 -1.5,-4.16 -2.42,-4.03 -3.34,-3.89 -4.25,-3.74 -5.15,-3.58 -6.04,-3.41 -6.92,-3.23 -7.79,-3.04 -8.65,-2.85 -9.5,-2.65 -10.33,-2.45 -11.15,-2.24 -11.95,-2.02 -12.74,-1.8 -13.51,-1.59 -14.27,-1.36 -15.01,-1.14 -15.73,-0.92 -16.43,-0.7 -17.12,-0.47 -17.79,-0.25 -18.45,-0.03 -19.08,0.19 -19.71,0.41 -20.32,0.63 -20.91,0.84 -21.49,1.06 -22.06,1.27 -22.61,1.49 -23.14,1.7 -23.66,1.91 -24.16,2.11 -24.65,2.32 -25.13,2.52 -25.58,2.72 -23.5,5.23 -23.22,5.32 -22.94,5.4 -22.63,5.48 -22.31,5.55 -21.98,5.62 -21.63,5.68 -21.27,5.74 -20.9,5.79 -20.51,5.83 -20.11,5.88 -19.69,5.91 -19.26,5.94 -18.82,5.96 -18.37,5.98 -17.9,5.99 -17.42,6 -16.92,6 -16.41,6 -15.88,5.99 -15.34,5.97 -14.79,5.95 -14.23,5.92 -13.65,5.89 -13.06,5.85 -12.46,5.8 -11.85,5.75 -11.23,5.69 -10.6,5.62 -9.96,5.55 -9.31,5.47 -8.65,5.39 -7.98,5.31 -7.31,5.22 -6.63,5.12 -5.94,5.03 -5.25,4.93 -4.55,4.83 -3.84,4.72 -3.13,4.62 -2.41,4.51 -1.69,4.41 -0.97,4.31 -0.24,4.2 0.49,4.11 1.23,4.01 1.97,3.92 2.71,3.83 3.46,3.74 4.2,3.67 4.95,3.59 5.7,3.53 6.46,3.47 7.21,3.42 7.96,3.38 8.71,3.34 9.47,3.32 10.22,3.3 10.97,3.3 11.72,3.3 12.46,3.31 13.21,3.33 13.94,3.36 14.68,3.39 15.4,3.44 16,3.41 16.58,3.39 17.16,3.36 17.73,3.33 18.28,3.3 18.83,3.27 19.36,3.24 19.87,3.2 20.37,3.16 20.85,3.11 21.32,3.06 21.76,3 22.19,2.93 22.59,2.85 22.96,2.77" />
      </clipPath>
      <clipPath id="rightEyeClipPath">
        <polyline points="-25.81,0.99 -25.87,0.79 -25.89,0.58 -25.86,0.36 -25.79,0.14 -25.68,-0.09 -25.52,-0.32 -25.33,-0.56 -25.09,-0.8 -24.82,-1.03 -24.51,-1.27 -24.17,-1.5 -23.79,-1.73 -23.38,-1.96 -22.94,-2.18 -22.47,-2.4 -21.99,-2.74 -21.46,-3.06 -20.89,-3.38 -20.28,-3.67 -19.64,-3.95 -18.96,-4.21 -18.24,-4.46 -17.49,-4.68 -16.71,-4.89 -15.91,-5.08 -15.07,-5.25 -14.21,-5.39 -13.33,-5.52 -12.43,-5.63 -11.52,-5.71 -10.58,-5.78 -9.63,-5.83 -8.68,-5.85 -7.71,-5.86 -6.73,-5.85 -5.75,-5.82 -4.77,-5.78 -3.78,-5.71 -2.8,-5.64 -1.82,-5.54 -0.84,-5.43 0.13,-5.31 1.09,-5.17 2.04,-5.02 2.99,-4.85 3.92,-4.68 4.83,-4.5 5.74,-4.3 6.62,-4.1 7.49,-3.89 8.35,-3.68 9.18,-3.46 9.99,-3.23 10.79,-3 11.57,-2.76 12.32,-2.53 13.06,-2.29 13.77,-2.04 14.46,-1.8 15.14,-1.56 15.79,-1.32 16.42,-1.08 17.03,-0.84 17.62,-0.6 18.2,-0.37 18.75,-0.14 19.29,0.09 19.81,0.32 20.32,0.55 20.8,0.77 21.28,0.99 21.73,1.21 22.17,1.43 22.59,1.64 23,1.85 23.39,2.06 23.76,2.26 24.12,2.46 24.47,2.65 21.03,5.46 20.7,5.55 20.35,5.63 19.99,5.71 19.62,5.78 19.24,5.86 18.86,5.93 18.46,5.99 18.05,6.05 17.64,6.11 17.22,6.16 16.78,6.2 16.35,6.25 15.9,6.28 15.45,6.31 14.98,6.34 14.51,6.37 14.03,6.39 13.54,6.4 13.04,6.41 12.53,6.41 12.02,6.41 11.49,6.41 10.96,6.4 10.43,6.38 9.89,6.36 9.34,6.33 8.79,6.3 8.24,6.26 7.68,6.21 7.11,6.16 6.54,6.11 5.97,6.05 5.39,5.99 4.81,5.92 4.22,5.85 3.63,5.78 3.03,5.7 2.43,5.62 1.82,5.54 1.2,5.46 0.58,5.37 -0.04,5.29 -0.68,5.2 -1.32,5.12 -1.97,5.03 -2.63,4.95 -3.29,4.87 -3.97,4.79 -4.65,4.71 -5.35,4.64 -6.05,4.57 -6.77,4.5 -7.5,4.44 -8.24,4.38 -8.98,4.33 -9.74,4.28 -10.51,4.24 -11.29,4.2 -12.09,4.16 -12.89,4.13 -13.7,4.11 -14.51,4.09 -15.34,4.08 -16.17,4.06 -16.8,4 -17.42,3.93 -18.04,3.86 -18.66,3.79 -19.26,3.71 -19.86,3.63 -20.45,3.54 -21.03,3.45 -21.59,3.34 -22.14,3.24 -22.67,3.12 -23.18,2.99 -23.66,2.86 -24.13,2.71 -24.57,2.55" />
      </clipPath>
      <filter id="fuzzy">
        <feTurbulence id="turbulence" baseFrequency="0.05" numOctaves="3" type="noise" result="noise" />
        <feDisplacementMap in="SourceGraphic" in2="noise" scale="2" />
      </filter>
      <linearGradient id="rainbowGradient" x1="0%" y1="0%" x2="100%" y2="0%">
        <stop offset="0%" style="stop-color: rgb(26, 144, 113); stop-opacity: 1" />
        <stop offset="50%" style="stop-color: rgb(251, 17, 123); stop-opacity: 1" />
        <stop offset="100%" style="stop-color: rgb(227, 207, 254); stop-opacity: 1" />
      </linearGradient>
    </defs>
    <rect x="-100" y="-100" width="100%" height="100%" fill="rgb(206, 242, 166)" />
    <polyline id="faceContour" points="67.9,0.02 68.06,1.04 67.97,2.85 68.1,5.27 67.87,4.8 67.65,8.36 67.97,6.42 67.51,9.42 67.48,11.01 67.47,10.8 67.33,13.62 67.05,14.64 67.06,14.8 66.95,16.3 66.31,19.78 66.59,18.76 65.61,22.06 65.61,22.69 65.09,24.77 65.22,23.97 64.32,27.95 64.44,27.61 63.78,29.58 64.35,28.19 62.98,32.44 62.8,33.05 62.81,33.28 61.77,36.05 61.26,36.62 60.99,37.22 60.95,37.72 60.51,38.99 59.81,40.87 59.1,42.87 59.13,42.16 58.42,43.84 57.52,45.66 57.38,45.99 56.01,48.86 54.99,50.62 54.87,50.5 53.43,52.4 53.67,52.4 52.7,53.86 52.99,53.43 51.73,55.36 52.1,54.85 50.45,57.21 49.42,58.34 48.3,60.1 49.19,59.23 47.2,61.62 46.67,62.49 46.22,63.04 44.8,64.53 44.33,64.73 43.66,65.56 42.98,66 41.55,67.83 41,68.53 39.62,69.49 38.88,70.05 39.22,69.76 37.53,71.35 37.15,71.51 36,72.61 35.46,72.79 34.69,73.49 33.54,74.57 30.89,76.08 30.9,76.04 30.11,76.21 29.66,77.01 28.82,77.48 27.37,78.05 25.91,79.14 24.22,79.8 24.52,79.58 22.32,80.61 21.76,80.85 20.45,81.32 20.15,81.43 18.31,82.24 18.11,82.46 16.5,82.71 14.94,83.22 13.21,83.91 15.03,83.07 13.41,83.59 11.06,84.09 10.73,84.3 8.8,84.62 8.42,84.63 7.94,84.64 4.91,85.28 4.08,85.32 4.54,85.01 3.14,85.26 2.57,85.23 1.53,85.48 -1.12,85.28 -0.78,85.47 -0.64,85.35 -2.16,85.33 -5.35,85.25 -6.8,84.94 -6.26,84.8 -7.76,84.99 -9.24,84.51 -9.15,84.62 -9.87,84.28 -10.76,84.25 -11.64,84.21 -13.64,83.55 -15.36,83.1 -15.76,82.97 -16.28,82.9 -18.63,81.93 -18.94,82.03 -20.03,81.77 -21.24,80.99 -22.4,80.63 -23.16,80.49 -24.46,79.59 -25.83,78.84 -26.23,78.66 -26.46,78.56 -28.63,77.57 -29.99,76.58 -29.28,77.09 -31.93,75.26 -30.74,76.37 -33.85,74.05 -33.5,74.52 -34.71,73.56 -36.04,72.25 -35.94,72.31 -37.49,70.97 -36.77,71.77 -40.12,69.19 -39.65,69.27 -40.84,68.2 -41.86,67.16 -41.31,67.48 -43.93,65.28 -44.5,64.37 -43.97,65.33 -45.93,63.25 -47.63,60.96 -47.43,60.9 -47.51,60.73 -49.79,58.46 -49.29,58.73 -50.64,56.97 -50.21,57.93 -52.66,53.86 -53.37,53.25 -53.27,52.89 -54.32,51.68 -54.49,51.31 -55.11,50.54 -55.09,49.83 -56.58,47.1 -57.08,46.55 -57.16,46.31 -58.27,43.81 -59.35,41.82 -59.01,41.92 -59.61,41.19 -60.79,38.29 -60.24,39.8 -61.21,37.53 -61.25,36.97 -62.04,35.51 -62.53,33.21 -63.17,32.09 -62.92,32.1 -63.42,30.55 -64.11,28.06 -64.06,28.52 -64.72,25.92 -64.77,25.91 -65.12,24.21 -65.98,21.7 -65.87,21.24 -66.21,19.92 -66.54,17.66 -66.64,17.8 -66.98,16.38 -67.18,14.95 -67.38,12.02 -67.51,10.82 -67.27,12.56 -67.49,10.1 -67.83,8.69 -67.85,6.19 -67.85,6.39 -67.82,5.52 -67.95,3.03 -67.93,2.86 -68.11,0.64 -68.15,-3.23 -68.01,-2.78 -67.83,-4.83 -67.87,-4.9 -67.83,-4.86 -67.63,-7.63 -67.68,-8.34 -67.57,-9.71 -67.36,-12.25 -67.52,-12.22 -67.09,-13.26 -67.1,-15.38 -66.71,-16.18 -66.6,-17.92 -66.17,-20.76 -66.2,-19.88 -65.31,-23.86 -64.99,-25.3 -64.83,-25.29 -64.49,-26.83 -64.13,-28.34 -64.01,-29.39 -63.34,-30.77 -63.67,-30.1 -62.91,-32.88 -62.77,-32.7 -61.42,-36.59 -61.82,-36.07 -61.29,-37.02 -60.32,-38.66 -60.56,-38.97 -60.22,-40.17 -59.66,-41.26 -58.18,-44.19 -58.08,-44.52 -56.7,-47.18 -56.72,-46.74 -56.41,-48.02 -55.11,-49.73 -55.15,-49.79 -54.26,-51.01 -53.18,-52.88 -53.19,-52.94 -52.12,-54.8 -51.45,-55.67 -52.06,-55.29 -50.49,-57.59 -49.99,-57.74 -47.49,-60.99 -48.05,-60.39 -47.52,-60.98 -46.75,-61.97 -46.82,-61.74 -43.83,-65.31 -44,-65.28 -43.39,-65.66 -42.63,-66.74 -41.96,-67.11 -41.17,-68.12 -40.76,-68.23 -39.81,-69.45 -37.3,-71.2 -37.48,-71.42 -36.06,-72.18 -34.82,-73.47 -33.85,-74.26 -34.61,-73.48 -32.79,-74.67 -32.4,-74.96 -30.83,-75.91 -31.19,-75.71 -30.25,-76.59 -29.05,-77.35 -27.14,-78.11 -25.33,-79.34 -25.59,-78.9 -23.61,-80.1 -22.84,-80.42 -22.69,-80.33 -20.78,-81.16 -18.4,-82.14 -20.34,-81.4 -18.22,-82.15 -16.86,-82.66 -17.47,-82.45 -14.16,-83.2 -13.49,-83.69 -12.43,-83.65 -11.64,-84.14 -10.88,-84.14 -9.14,-84.51 -8.88,-84.71 -7.32,-84.91 -5.7,-84.86 -6.68,-84.89 -3.83,-85.21 -3.19,-85.19 -1.47,-85.27 -1.13,-85.13 0.67,-85.39 0.98,-85.35 3.38,-85 3.68,-85.02 3.99,-85.1 6.24,-84.97 6.81,-84.87 6.87,-84.87 9.69,-84.62 8.38,-84.67 10.92,-84.37 10.33,-84.45 12.98,-83.86 14.32,-83.45 15.79,-82.85 17.09,-82.72 18.14,-82.09 18.14,-82.18 19.02,-81.79 18.49,-82.2 21.66,-80.87 21.86,-81.01 23.58,-79.86 23.08,-80.26 24.54,-79.46 27.13,-78.41 28.49,-77.37 26.68,-78.37 28.47,-77.59 30.41,-76.29 30.76,-76.17 32.17,-75.18 33.62,-74.1 33.51,-73.82 34.57,-73.26 34.59,-73.29 38.06,-70.73 36.7,-72.08 38.55,-70.17 38.33,-70.5 40.08,-69.07 40.79,-68.23 42.08,-66.91 42.41,-66.91 43.78,-65.59 44.5,-64.51 46.42,-62.08 46.69,-61.86 46.28,-62.56 47.66,-60.89 47.16,-61.41 48.2,-59.71 49.18,-58.78 49.29,-58.82 51.42,-55.88 50.98,-56.41 52.78,-53.97 53.61,-52.57 54.13,-51.43 54.57,-51.07 55.96,-48.31 54.82,-50.64 55.58,-49.35 56.93,-46.2 57.15,-46.4 58.18,-44.05 59.08,-42.65 58.89,-43.19 59.99,-39.84 59.58,-41.48 61.02,-37.66 61.55,-35.87 61.75,-35.55 61.43,-37 62.39,-34.03 62.07,-34.7 63.09,-31.6 63.32,-31.03 64.35,-27.49 64.18,-28.81 64.67,-26.2 64.99,-25.56 65.11,-25.24 65.57,-21.89 65.71,-22.92 66.07,-20.34 66.48,-18.7 66.59,-16.65 66.8,-16.63 67.13,-15.09 67.07,-13.15 67.13,-13.52 67.24,-11.9 67.82,-9.18 67.8,-7.53 67.81,-6.31 67.81,-6.83 68.08,-4.36 67.99,-3.07 68.22,-1.81 67.9,0.02 68.06,1.04" fill="rgb(123, 32, 223)" stroke="black" stroke-width="1.6666666666666665" stroke-linejoin="round" filter="url(#fuzzy)" />
    <g transform="translate(36.1 -25.8)">
      <polyline id="rightCountour" points="-25.81,0.99 -25.87,0.79 -25.89,0.58 -25.86,0.36 -25.79,0.14 -25.68,-0.09 -25.52,-0.32 -25.33,-0.56 -25.09,-0.8 -24.82,-1.03 -24.51,-1.27 -24.17,-1.5 -23.79,-1.73 -23.38,-1.96 -22.94,-2.18 -22.47,-2.4 -21.99,-2.74 -21.46,-3.06 -20.89,-3.38 -20.28,-3.67 -19.64,-3.95 -18.96,-4.21 -18.24,-4.46 -17.49,-4.68 -16.71,-4.89 -15.91,-5.08 -15.07,-5.25 -14.21,-5.39 -13.33,-5.52 -12.43,-5.63 -11.52,-5.71 -10.58,-5.78 -9.63,-5.83 -8.68,-5.85 -7.71,-5.86 -6.73,-5.85 -5.75,-5.82 -4.77,-5.78 -3.78,-5.71 -2.8,-5.64 -1.82,-5.54 -0.84,-5.43 0.13,-5.31 1.09,-5.17 2.04,-5.02 2.99,-4.85 3.92,-4.68 4.83,-4.5 5.74,-4.3 6.62,-4.1 7.49,-3.89 8.35,-3.68 9.18,-3.46 9.99,-3.23 10.79,-3 11.57,-2.76 12.32,-2.53 13.06,-2.29 13.77,-2.04 14.46,-1.8 15.14,-1.56 15.79,-1.32 16.42,-1.08 17.03,-0.84 17.62,-0.6 18.2,-0.37 18.75,-0.14 19.29,0.09 19.81,0.32 20.32,0.55 20.8,0.77 21.28,0.99 21.73,1.21 22.17,1.43 22.59,1.64 23,1.85 23.39,2.06 23.76,2.26 24.12,2.46 24.47,2.65 21.03,5.46 20.7,5.55 20.35,5.63 19.99,5.71 19.62,5.78 19.24,5.86 18.86,5.93 18.46,5.99 18.05,6.05 17.64,6.11 17.22,6.16 16.78,6.2 16.35,6.25 15.9,6.28 15.45,6.31 14.98,6.34 14.51,6.37 14.03,6.39 13.54,6.4 13.04,6.41 12.53,6.41 12.02,6.41 11.49,6.41 10.96,6.4 10.43,6.38 9.89,6.36 9.34,6.33 8.79,6.3 8.24,6.26 7.68,6.21 7.11,6.16 6.54,6.11 5.97,6.05 5.39,5.99 4.81,5.92 4.22,5.85 3.63,5.78 3.03,5.7 2.43,5.62 1.82,5.54 1.2,5.46 0.58,5.37 -0.04,5.29 -0.68,5.2 -1.32,5.12 -1.97,5.03 -2.63,4.95 -3.29,4.87 -3.97,4.79 -4.65,4.71 -5.35,4.64 -6.05,4.57 -6.77,4.5 -7.5,4.44 -8.24,4.38 -8.98,4.33 -9.74,4.28 -10.51,4.24 -11.29,4.2 -12.09,4.16 -12.89,4.13 -13.7,4.11 -14.51,4.09 -15.34,4.08 -16.17,4.06 -16.8,4 -17.42,3.93 -18.04,3.86 -18.66,3.79 -19.26,3.71 -19.86,3.63 -20.45,3.54 -21.03,3.45 -21.59,3.34 -22.14,3.24 -22.67,3.12 -23.18,2.99 -23.66,2.86 -24.13,2.71 -24.57,2.55" fill="white" stroke="white" stroke-width="0" stroke-linejoin="round" filter="url(#fuzzy)" />
    </g>
    <g transform="translate(-26.88 -26)">
      <polyline id="leftCountour" points="24.27,1.59 24.3,1.45 24.3,1.3 24.26,1.13 24.18,0.96 24.08,0.79 23.94,0.6 23.76,0.41 23.56,0.22 23.32,0.02 23.06,-0.18 22.76,-0.38 22.44,-0.58 22.1,-0.78 21.72,-0.98 21.32,-1.18 20.91,-1.47 20.47,-1.76 20,-2.03 19.49,-2.3 18.95,-2.56 18.37,-2.81 17.77,-3.04 17.13,-3.26 16.47,-3.47 15.78,-3.67 15.06,-3.84 14.32,-4 13.56,-4.15 12.77,-4.28 11.97,-4.39 11.14,-4.49 10.3,-4.57 9.44,-4.63 8.57,-4.68 7.68,-4.71 6.79,-4.72 5.88,-4.72 4.97,-4.7 4.05,-4.67 3.13,-4.62 2.2,-4.55 1.28,-4.48 0.35,-4.38 -0.58,-4.28 -1.5,-4.16 -2.42,-4.03 -3.34,-3.89 -4.25,-3.74 -5.15,-3.58 -6.04,-3.41 -6.92,-3.23 -7.79,-3.04 -8.65,-2.85 -9.5,-2.65 -10.33,-2.45 -11.15,-2.24 -11.95,-2.02 -12.74,-1.8 -13.51,-1.59 -14.27,-1.36 -15.01,-1.14 -15.73,-0.92 -16.43,-0.7 -17.12,-0.47 -17.79,-0.25 -18.45,-0.03 -19.08,0.19 -19.71,0.41 -20.32,0.63 -20.91,0.84 -21.49,1.06 -22.06,1.27 -22.61,1.49 -23.14,1.7 -23.66,1.91 -24.16,2.11 -24.65,2.32 -25.13,2.52 -25.58,2.72 -23.5,5.23 -23.22,5.32 -22.94,5.4 -22.63,5.48 -22.31,5.55 -21.98,5.62 -21.63,5.68 -21.27,5.74 -20.9,5.79 -20.51,5.83 -20.11,5.88 -19.69,5.91 -19.26,5.94 -18.82,5.96 -18.37,5.98 -17.9,5.99 -17.42,6 -16.92,6 -16.41,6 -15.88,5.99 -15.34,5.97 -14.79,5.95 -14.23,5.92 -13.65,5.89 -13.06,5.85 -12.46,5.8 -11.85,5.75 -11.23,5.69 -10.6,5.62 -9.96,5.55 -9.31,5.47 -8.65,5.39 -7.98,5.31 -7.31,5.22 -6.63,5.12 -5.94,5.03 -5.25,4.93 -4.55,4.83 -3.84,4.72 -3.13,4.62 -2.41,4.51 -1.69,4.41 -0.97,4.31 -0.24,4.2 0.49,4.11 1.23,4.01 1.97,3.92 2.71,3.83 3.46,3.74 4.2,3.67 4.95,3.59 5.7,3.53 6.46,3.47 7.21,3.42 7.96,3.38 8.71,3.34 9.47,3.32 10.22,3.3 10.97,3.3 11.72,3.3 12.46,3.31 13.21,3.33 13.94,3.36 14.68,3.39 15.4,3.44 16,3.41 16.58,3.39 17.16,3.36 17.73,3.33 18.28,3.3 18.83,3.27 19.36,3.24 19.87,3.2 20.37,3.16 20.85,3.11 21.32,3.06 21.76,3 22.19,2.93 22.59,2.85 22.96,2.77" fill="white" stroke="white" stroke-width="0" stroke-linejoin="round" filter="url(#fuzzy)" />
    </g>
    <g transform="translate(36.1 -25.8)">
      <polyline id="rightUpper" points="-22.35,2.12 -22.94,2.11 -23.48,2.07 -23.96,2 -24.38,1.91 -24.75,1.8 -25.06,1.67 -25.32,1.53 -25.53,1.36 -25.69,1.18 -25.81,0.99 -25.87,0.79 -25.89,0.58 -25.86,0.36 -25.79,0.14 -25.68,-0.09 -25.52,-0.32 -25.33,-0.56 -25.09,-0.8 -24.82,-1.03 -24.51,-1.27 -24.17,-1.5 -23.79,-1.73 -23.38,-1.96 -22.94,-2.18 -22.47,-2.4 -21.99,-2.74 -21.46,-3.06 -20.89,-3.38 -20.28,-3.67 -19.64,-3.95 -18.96,-4.21 -18.24,-4.46 -17.49,-4.68 -16.71,-4.89 -15.91,-5.08 -15.07,-5.25 -14.21,-5.39 -13.33,-5.52 -12.43,-5.63 -11.52,-5.71 -10.58,-5.78 -9.63,-5.83 -8.68,-5.85 -7.71,-5.86 -6.73,-5.85 -5.75,-5.82 -4.77,-5.78 -3.78,-5.71 -2.8,-5.64 -1.82,-5.54 -0.84,-5.43 0.13,-5.31 1.09,-5.17 2.04,-5.02 2.99,-4.85 3.92,-4.68 4.83,-4.5 5.74,-4.3 6.62,-4.1 7.49,-3.89 8.35,-3.68 9.18,-3.46 9.99,-3.23 10.79,-3 11.57,-2.76 12.32,-2.53 13.06,-2.29 13.77,-2.04 14.46,-1.8 15.14,-1.56 15.79,-1.32 16.42,-1.08 17.03,-0.84 17.62,-0.6 18.2,-0.37 18.75,-0.14 19.29,0.09 19.81,0.32 20.32,0.55 20.8,0.77 21.28,0.99 21.73,1.21 22.17,1.43 22.59,1.64 23,1.85 23.39,2.06 23.76,2.26 24.12,2.46 24.47,2.65 24.8,2.84 25.12,3.03 25.42,3.22 25.71,3.4 25.99,3.57 26.25,3.74 26.51,3.91 26.74,4.07 26.97,4.23 27.19,4.39" fill="none" stroke="black" stroke-width="1.6666666666666665" stroke-linejoin="round" filter="url(#fuzzy)" />
      <polyline id="rightLower" points="-26.9,-0.01 -26.88,0.34 -26.81,0.67 -26.68,0.98 -26.5,1.26 -26.28,1.52 -26.01,1.76 -25.7,1.98 -25.36,2.19 -24.98,2.38 -24.57,2.55 -24.13,2.71 -23.66,2.86 -23.18,2.99 -22.67,3.12 -22.14,3.24 -21.59,3.34 -21.03,3.45 -20.45,3.54 -19.86,3.63 -19.26,3.71 -18.66,3.79 -18.04,3.86 -17.42,3.93 -16.8,4 -16.17,4.06 -15.34,4.08 -14.51,4.09 -13.7,4.11 -12.89,4.13 -12.09,4.16 -11.29,4.2 -10.51,4.24 -9.74,4.28 -8.98,4.33 -8.24,4.38 -7.5,4.44 -6.77,4.5 -6.05,4.57 -5.35,4.64 -4.65,4.71 -3.97,4.79 -3.29,4.87 -2.63,4.95 -1.97,5.03 -1.32,5.12 -0.68,5.2 -0.04,5.29 0.58,5.37 1.2,5.46 1.82,5.54 2.43,5.62 3.03,5.7 3.63,5.78 4.22,5.85 4.81,5.92 5.39,5.99 5.97,6.05 6.54,6.11 7.11,6.16 7.68,6.21 8.24,6.26 8.79,6.3 9.34,6.33 9.89,6.36 10.43,6.38 10.96,6.4 11.49,6.41 12.02,6.41 12.53,6.41 13.04,6.41 13.54,6.4 14.03,6.39 14.51,6.37 14.98,6.34 15.45,6.31 15.9,6.28 16.35,6.25 16.78,6.2 17.22,6.16 17.64,6.11 18.05,6.05 18.46,5.99 18.86,5.93 19.24,5.86 19.62,5.78 19.99,5.71 20.35,5.63 20.7,5.55 21.03,5.46 21.36,5.37 21.67,5.27 21.98,5.18 22.27,5.08 22.55,4.97 22.82,4.87 23.08,4.76 23.32,4.65 23.56,4.54 23.79,4.42" fill="none" stroke="black" stroke-width="2.2222222222222223" stroke-linejoin="round" filter="url(#fuzzy)" />
      <circle r="3.834" cx="-6.806785174964043" cy="-2.3936477133636385" stroke="black" fill="none" stroke-width="1.0" filter="url(#fuzzy)" clip-path="url(#rightEyeClipPath)" /><circle r="3.332" cx="-7.4467851749640435" cy="-4.338647713363638" stroke="black" fill="none" stroke-width="1.0" filter="url(#fuzzy)" clip-path="url(#rightEyeClipPath)" /><circle r="3.874" cx="-10.596785174964044" cy="-0.30864771336363805" stroke="black" fill="none" stroke-width="1.0" filter="url(#fuzzy)" clip-path="url(#rightEyeClipPath)" /><circle r="4.5920000000000005" cx="-6.836785174964043" cy="-4.313647713363638" stroke="black" fill="none" stroke-width="1.0" filter="url(#fuzzy)" clip-path="url(#rightEyeClipPath)" /><circle r="4.3919999999999995" cx="-6.3617851749640435" cy="-0.138647713363639" stroke="black" fill="none" stroke-width="1.0" filter="url(#fuzzy)" clip-path="url(#rightEyeClipPath)" /><circle r="4.764" cx="-11.051785174964042" cy="-4.568647713363639" stroke="black" fill="none" stroke-width="1.0" filter="url(#fuzzy)" clip-path="url(#rightEyeClipPath)" /><circle r="4.74" cx="-7.001785174964042" cy="-0.6286477133636383" stroke="black" fill="none" stroke-width="1.0" filter="url(#fuzzy)" clip-path="url(#rightEyeClipPath)" /><circle r="4.596" cx="-7.0767851749640425" cy="-0.29864771336363827" stroke="black" fill="none" stroke-width="1.0" filter="url(#fuzzy)" clip-path="url(#rightEyeClipPath)" /><circle r="4.998" cx="-8.036785174964043" cy="-4.573647713363638" stroke="black" fill="none" stroke-width="1.0" filter="url(#fuzzy)" clip-path="url(#rightEyeClipPath)" /><circle r="4.1240000000000006" cx="-7.766785174964043" cy="-1.5836477133636384" stroke="black" fill="none" stroke-width="1.0" filter="url(#fuzzy)" clip-path="url(#rightEyeClipPath)" />
      </g>
    <g transform="translate(-26.88 -26)">
      <polyline id="leftUpper" points="21.79,2.03 22.23,2.09 22.62,2.12 22.97,2.13 23.28,2.11 23.54,2.07 23.77,2.01 23.95,1.93 24.1,1.83 24.2,1.72 24.27,1.59 24.3,1.45 24.3,1.3 24.26,1.13 24.18,0.96 24.08,0.79 23.94,0.6 23.76,0.41 23.56,0.22 23.32,0.02 23.06,-0.18 22.76,-0.38 22.44,-0.58 22.1,-0.78 21.72,-0.98 21.32,-1.18 20.91,-1.47 20.47,-1.76 20,-2.03 19.49,-2.3 18.95,-2.56 18.37,-2.81 17.77,-3.04 17.13,-3.26 16.47,-3.47 15.78,-3.67 15.06,-3.84 14.32,-4 13.56,-4.15 12.77,-4.28 11.97,-4.39 11.14,-4.49 10.3,-4.57 9.44,-4.63 8.57,-4.68 7.68,-4.71 6.79,-4.72 5.88,-4.72 4.97,-4.7 4.05,-4.67 3.13,-4.62 2.2,-4.55 1.28,-4.48 0.35,-4.38 -0.58,-4.28 -1.5,-4.16 -2.42,-4.03 -3.34,-3.89 -4.25,-3.74 -5.15,-3.58 -6.04,-3.41 -6.92,-3.23 -7.79,-3.04 -8.65,-2.85 -9.5,-2.65 -10.33,-2.45 -11.15,-2.24 -11.95,-2.02 -12.74,-1.8 -13.51,-1.59 -14.27,-1.36 -15.01,-1.14 -15.73,-0.92 -16.43,-0.7 -17.12,-0.47 -17.79,-0.25 -18.45,-0.03 -19.08,0.19 -19.71,0.41 -20.32,0.63 -20.91,0.84 -21.49,1.06 -22.06,1.27 -22.61,1.49 -23.14,1.7 -23.66,1.91 -24.16,2.11 -24.65,2.32 -25.13,2.52 -25.58,2.72 -26.03,2.91 -26.46,3.1 -26.87,3.29 -27.27,3.48 -27.65,3.66 -28.02,3.84 -28.38,4.01 -28.72,4.18 -29.05,4.35 -29.37,4.51" fill="none" stroke="black" stroke-width="2.2222222222222223" stroke-linejoin="round" filter="url(#fuzzy)" />
      <polyline id="leftLower" points="24.99,1.01 24.96,1.28 24.88,1.52 24.77,1.75 24.61,1.94 24.42,2.12 24.19,2.28 23.93,2.43 23.64,2.55 23.32,2.67 22.96,2.77 22.59,2.85 22.19,2.93 21.76,3 21.32,3.06 20.85,3.11 20.37,3.16 19.87,3.2 19.36,3.24 18.83,3.27 18.28,3.3 17.73,3.33 17.16,3.36 16.58,3.39 16,3.41 15.4,3.44 14.68,3.39 13.94,3.36 13.21,3.33 12.46,3.31 11.72,3.3 10.97,3.3 10.22,3.3 9.47,3.32 8.71,3.34 7.96,3.38 7.21,3.42 6.46,3.47 5.7,3.53 4.95,3.59 4.2,3.67 3.46,3.74 2.71,3.83 1.97,3.92 1.23,4.01 0.49,4.11 -0.24,4.2 -0.97,4.31 -1.69,4.41 -2.41,4.51 -3.13,4.62 -3.84,4.72 -4.55,4.83 -5.25,4.93 -5.94,5.03 -6.63,5.12 -7.31,5.22 -7.98,5.31 -8.65,5.39 -9.31,5.47 -9.96,5.55 -10.6,5.62 -11.23,5.69 -11.85,5.75 -12.46,5.8 -13.06,5.85 -13.65,5.89 -14.23,5.92 -14.79,5.95 -15.34,5.97 -15.88,5.99 -16.41,6 -16.92,6 -17.42,6 -17.9,5.99 -18.37,5.98 -18.82,5.96 -19.26,5.94 -19.69,5.91 -20.11,5.88 -20.51,5.83 -20.9,5.79 -21.27,5.74 -21.63,5.68 -21.98,5.62 -22.31,5.55 -22.63,5.48 -22.94,5.4 -23.22,5.32 -23.5,5.23 -23.76,5.14 -24,5.05 -24.23,4.95 -24.44,4.84 -24.64,4.74 -24.83,4.63 -25,4.51 -25.16,4.4 -25.3,4.28 -25.43,4.15" fill="none" stroke="black" stroke-width="2.2222222222222223" stroke-linejoin="round" filter="url(#fuzzy)" />
      <circle r="3.138" cx="16.87576956231623" cy="-2.7152698512541398" stroke="black" fill="none" stroke-width="1.0" filter="url(#fuzzy)" clip-path="url(#leftEyeClipPath)" /><circle r="4.958" cx="16.49576956231623" cy="0.9597301487458605" stroke="black" fill="none" stroke-width="1.0" filter="url(#fuzzy)" clip-path="url(#leftEyeClipPath)" /><circle r="3.2560000000000002" cx="19.790769562316232" cy="-2.1552698512541397" stroke="black" fill="none" stroke-width="1.0" filter="url(#fuzzy)" clip-path="url(#leftEyeClipPath)" /><circle r="4.266" cx="19.62076956231623" cy="0.7397301487458607" stroke="black" fill="none" stroke-width="1.0" filter="url(#fuzzy)" clip-path="url(#leftEyeClipPath)" /><circle r="4.346" cx="17.13076956231623" cy="-2.2902698512541395" stroke="black" fill="none" stroke-width="1.0" filter="url(#fuzzy)" clip-path="url(#leftEyeClipPath)" /><circle r="4.834" cx="17.08076956231623" cy="-0.39026985125414004" stroke="black" fill="none" stroke-width="1.0" filter="url(#fuzzy)" clip-path="url(#leftEyeClipPath)" /><circle r="3.17" cx="16.485769562316232" cy="-1.1152698512541395" stroke="black" fill="none" stroke-width="1.0" filter="url(#fuzzy)" clip-path="url(#leftEyeClipPath)" /><circle r="4.072" cx="15.08576956231623" cy="-1.2702698512541397" stroke="black" fill="none" stroke-width="1.0" filter="url(#fuzzy)" clip-path="url(#leftEyeClipPath)" /><circle r="3.608" cx="15.490769562316231" cy="0.9147301487458606" stroke="black" fill="none" stroke-width="1.0" filter="url(#fuzzy)" clip-path="url(#leftEyeClipPath)" /><circle r="4.432" cx="16.15576956231623" cy="-2.41526985125414" stroke="black" fill="none" stroke-width="1.0" filter="url(#fuzzy)" clip-path="url(#leftEyeClipPath)" />
    </g>
    <g id="hairs">
      <polyline points="55.96,-48.31 30.01,-67.94 24.5,-73.38 20.18,-76.22 17.38,-77.86 16.87,-78.19 16.48,-77.61 13.7,-76.87 8.21,-76.37 2.11,-75.93 -1.73,-74.83 -1.41,-72.24 2.29,-68.06 3.11,-64.18 -12.96,-63.53 -52.06,-55.29" fill="none" stroke="rgb(134, 74, 19)" stroke-width="2" stroke-linejoin="round" filter="url(#fuzzy)" /><polyline points="6.87,-84.87 -14.36,-72.44 -2.21,-65.43 8.11,-61.25 6.57,-60.75 -2.07,-62.54 -10.75,-64.72 -15.34,-66.01 -14.78,-65.94 -9.95,-64.65 -2.95,-62.64 3.47,-60.51 6.93,-58.82 6.6,-58 3.62,-58.35 0.11,-60.01 -2.58,-62.82 -4.14,-65.9 -2.78,-67.32 6.87,-65.08 26.63,-61.74 28.49,-77.37" fill="none" stroke="rgb(134, 74, 19)" stroke-width="2" stroke-linejoin="round" filter="url(#fuzzy)" /><polyline points="18.49,-82.2 29.61,-73.13 35.42,-67.38 30.77,-67.68 20.47,-69.35 10.98,-69.97 5.71,-70.08 4.14,-70.9 4.29,-72.54 5.39,-73.86 7.53,-73.68 9.45,-71.99 8.32,-70.22 4.16,-70.5 2.17,-74.88 -11.64,-84.14" fill="none" stroke="rgb(134, 74, 19)" stroke-width="2" stroke-linejoin="round" filter="url(#fuzzy)" /><polyline points="-3.19,-85.19 -5.38,-69.29 8.62,-65.31 11.33,-67.07 3.67,-69.15 -7.38,-70.2 -15.32,-70.79 -16.82,-71.58 -12.33,-72.72 -4.99,-73.96 1.35,-75.03 4.21,-75.75 3.69,-75.96 2.18,-75.51 2.5,-74.31 5.37,-72.77 8.04,-71.83 5.93,-72.21 -1.78,-72.83 -4.13,-71.31 33.51,-73.82" fill="none" stroke="rgb(134, 74, 19)" stroke-width="2" stroke-linejoin="round" filter="url(#fuzzy)" /><polyline points="-3.19,-85.19 -19.91,-73.27 -7.39,-66 6.76,-63.66 10.3,-65.77 5.65,-69.51 -0.54,-72.49 -3.75,-74.06 -2.65,-74.63 2.36,-74.65 9.94,-74.22 17.34,-73.4 20.3,-72.37 16.63,-70.31 15.76,-63.47 58.18,-44.05" fill="none" stroke="rgb(134, 74, 19)" stroke-width="2" stroke-linejoin="round" filter="url(#fuzzy)" /><polyline points="-11.64,-84.14 23.58,-67.47 22.93,-69.22 14.86,-71.75 10.36,-72.12 9.63,-71.2 9.51,-69.84 8.4,-68.22 6.85,-66.27 6.27,-64.04 7.71,-61.8 11.53,-59.88 17.46,-58.48 24.62,-57.7 31.68,-57.54 37.07,-57.93 39.48,-58.8 38.27,-60.09 33.87,-61.67 28.12,-63.2 24.21,-63.99 25.4,-63.29 32.07,-61.18 38.3,-59.94 31.96,-64.7 -3.19,-85.19" fill="none" stroke="rgb(134, 74, 19)" stroke-width="2" stroke-linejoin="round" filter="url(#fuzzy)" /><polyline points="-3.83,-85.21 3.28,-71.81 5.26,-61.17 2.87,-60.74 4.57,-63.85 9.45,-66.44 12.62,-68.54 11.19,-71.04 6.19,-73.77 1.33,-75.7 0.49,-75.87 5.51,-73.94 14.66,-70.38 22.5,-66.72 23.37,-64.74 22.47,-61.63 59.58,-41.48" fill="none" stroke="rgb(134, 74, 19)" stroke-width="2" stroke-linejoin="round" filter="url(#fuzzy)" /><polyline points="-29.05,-77.35 10.35,-66.7 10.4,-59.88 -2.25,-61.84 -11.56,-67.42 -14.67,-72.11 -12.84,-73.95 -6.97,-73.07 2.18,-70.72 12.67,-68.37 21.46,-67.12 25.84,-67.39 25.08,-68.8 21.16,-70.17 17.98,-70.03 18.72,-67.61 21.82,-64.37 18.02,-63.82 -5.88,-66.25 -51.45,-55.67" fill="none" stroke="rgb(134, 74, 19)" stroke-width="2" stroke-linejoin="round" filter="url(#fuzzy)" /><polyline points="57.15,-46.4 40.72,-57.84 20.24,-68.71 6.46,-72.61 1.66,-71.69 4.29,-69.37 10.15,-67.78 15.18,-67.5 17.35,-68.27 16.79,-69.58 14.92,-70.98 13.22,-72.2 12.33,-73.2 11.81,-74.23 10.82,-75.5 9.11,-76.88 7.48,-77.78 7.1,-77.41 8.09,-75.28 9.45,-71.36 11.3,-66.5 14.45,-65.14 -6.68,-84.89" fill="none" stroke="rgb(134, 74, 19)" stroke-width="2" stroke-linejoin="round" filter="url(#fuzzy)" /><polyline points="34.57,-73.26 28.62,-74.01 17.84,-73.21 4.3,-74.09 -3.12,-75.34 -2.54,-76.15 2.14,-76.41 6.44,-76.22 8.69,-75.61 10.16,-74.29 12.82,-71.93 17.06,-68.55 21.23,-64.84 23.39,-61.78 24.07,-59.96 26.85,-59 35.29,-56.46 62.07,-34.7" fill="none" stroke="rgb(134, 74, 19)" stroke-width="2" stroke-linejoin="round" filter="url(#fuzzy)" /><polyline points="-16.86,-82.66 -20.94,-78.8 -23.72,-75.49 -21.84,-74.76 -15.77,-75.28 -6.49,-75.59 3.93,-74.79 13.02,-72.86 19.28,-70.4 22.68,-68.15 24.2,-66.68 24.77,-66.28 24.74,-67.02 24.16,-68.75 23.31,-71.07 23.07,-73.27 24.29,-74.67 26.83,-75.04 28.68,-75.2 26.57,-76.79 18.46,-80.69 6.24,-84.97" fill="none" stroke="rgb(134, 74, 19)" stroke-width="2" stroke-linejoin="round" filter="url(#fuzzy)" /><polyline points="21.86,-81.01 40.23,-59.76 42.92,-56.85 41.02,-59.23 35.65,-64.88 28.32,-71.37 20.26,-76.49 11.6,-79.17 2.08,-79.21 -7.56,-76.96 -14.7,-73.19 -15.43,-68.88 -7.07,-64.77 8.25,-61.02 22.41,-57.89 30.2,-55.01 61.75,-35.55" fill="none" stroke="rgb(134, 74, 19)" stroke-width="2" stroke-linejoin="round" filter="url(#fuzzy)" /><polyline points="23.58,-79.86 -10.78,-72.05 -12.42,-72.41 -10.71,-70.65 -8.16,-67.4 -3.53,-65.14 2.16,-65.05 6.99,-66.55 9.81,-68.22 10.75,-68.95 11.18,-68.43 13.07,-66.83 17.79,-64.17 24.74,-60.32 31.1,-55.46 33.38,-50.78 30.13,-48.41 24.04,-50.61 20.08,-58.69 18.36,-72.33 17.09,-82.72" fill="none" stroke="rgb(134, 74, 19)" stroke-width="2" stroke-linejoin="round" filter="url(#fuzzy)" /><polyline points="49.18,-58.78 12.31,-53.5 25.53,-49.65 37.17,-49.93 37.72,-54 30.94,-58.68 22.83,-60.91 17.32,-59.77 15.34,-56.6 15.59,-53.72 16.02,-52.89 15.05,-54.32 12.2,-56.79 7.67,-58.49 1.9,-58.37 -2.81,-56.89 1.18,-55.89 22.06,-58.47 34.57,-73.26" fill="none" stroke="rgb(134, 74, 19)" stroke-width="2" stroke-linejoin="round" filter="url(#fuzzy)" /><polyline points="33.51,-73.82 14.58,-70.49 -0.54,-68.69 2.32,-67.47 11.57,-65.08 16.73,-62.5 15.81,-61.36 12.54,-62.11 10.67,-63.98 10.56,-65.95 10.1,-67.42 8.07,-68.27 6.07,-68.46 6.62,-67.89 9.34,-66.57 10,-64.67 1.97,-62.76 -43.39,-65.66" fill="none" stroke="rgb(134, 74, 19)" stroke-width="2" stroke-linejoin="round" filter="url(#fuzzy)" /><polyline points="-30.83,-75.91 -35.49,-71.55 -34.11,-68.14 -25.91,-63.8 -13.74,-59.6 -3.58,-56.58 1.99,-55.41 4.44,-56.15 6.34,-58.33 9.03,-61.17 12.35,-63.79 15.38,-65.6 17.05,-66.42 16.52,-66.5 13.51,-66.19 8.77,-65.65 4.09,-64.79 1.67,-63.59 2.71,-62.5 6.05,-62.37 8.43,-63.6 7.18,-64.58 4.14,-61.25 9.91,-49.19 64.67,-26.2" fill="none" stroke="rgb(134, 74, 19)" stroke-width="2" stroke-linejoin="round" filter="url(#fuzzy)" /><polyline points="51.42,-55.88 -8.24,-57.69 -13.19,-64.94 -3.51,-71.25 5.69,-73.85 12.44,-72.18 16.65,-67.89 16.79,-63.85 11.83,-62.39 3.4,-63.95 -4.72,-67.26 -8.8,-70.41 -7.02,-72.07 0.15,-71.77 10.37,-69.57 20.16,-65.96 24.91,-64.55 3.68,-85.02" fill="none" stroke="rgb(134, 74, 19)" stroke-width="2" stroke-linejoin="round" filter="url(#fuzzy)" /><polyline points="38.33,-70.5 28.93,-61.74 12.41,-65.77 2.67,-69.77 -4.23,-71.98 -8.7,-73.81 -9.5,-75.92 -6.66,-77.7 -1.73,-78.16 3.3,-76.72 7.03,-73.58 9.03,-69.72 9.56,-66.48 8.96,-64.98 7.38,-65.55 5.42,-67.54 5.19,-69.63 10.15,-70.16 21.38,-67.98 29.57,-66.15 6.81,-84.87" fill="none" stroke="rgb(134, 74, 19)" stroke-width="2" stroke-linejoin="round" filter="url(#fuzzy)" /><polyline points="-50.49,-57.59 -6.29,-63.92 5.48,-61.89 6.32,-62.65 10.89,-63.65 19.8,-63.48 28.71,-62.8 34.4,-62.61 36.18,-63.33 34.97,-64.73 32.12,-66.44 28.89,-68.11 26.18,-69.5 24.49,-70.49 23.75,-71.11 23.36,-71.52 22.7,-71.8 21.79,-71.64 21.74,-70.41 24.18,-67.53 29.75,-63.29 36.23,-59.37 38.79,-58.28 37.58,-59.2 58.89,-43.19" fill="none" stroke="rgb(134, 74, 19)" stroke-width="2" stroke-linejoin="round" filter="url(#fuzzy)" /><polyline points="-47.49,-60.99 -31.2,-71.54 -14.87,-74.43 -0.16,-71.71 13.11,-67.04 23.93,-63.75 30.7,-62.94 32.79,-63.7 30.54,-64.58 24.81,-64.89 16.99,-64.86 9.4,-65.01 4.86,-65.49 4.74,-66.23 7.79,-67.38 12.1,-68.91 19.93,-68.68 37.23,-61.63 57.15,-46.4" fill="none" stroke="rgb(134, 74, 19)" stroke-width="2" stroke-linejoin="round" filter="url(#fuzzy)" /><polyline points="28.49,-77.37 16.99,-73.49 -1.97,-75.08 -11.43,-77.69 -12.01,-78.88 -6.08,-77.82 3.46,-74.8 12.65,-70.91 17.74,-67.47 17.31,-65.37 13.03,-64.83 7.96,-65.84 3.72,-68.5 -0.55,-72.69 -5.92,-77.05 -9.88,-79.02 -3.91,-77.31 32.17,-75.18" fill="none" stroke="rgb(134, 74, 19)" stroke-width="2" stroke-linejoin="round" filter="url(#fuzzy)" /><polyline points="-27.14,-78.11 -24.25,-75.45 -10.49,-77.79 1.37,-77.59 9.29,-74.85 14.45,-71.54 19.15,-68.84 24.66,-66.73 30.44,-64.8 34.72,-63.01 35.81,-61.89 32.8,-62.11 25.78,-63.97 15.7,-67.09 4.24,-70.64 -5.88,-73.63 -9.85,-74.99 1.15,-72.5 46.28,-62.56" fill="none" stroke="rgb(134, 74, 19)" stroke-width="2" stroke-linejoin="round" filter="url(#fuzzy)" /><polyline points="30.76,-76.17 37.66,-67.27 30.96,-68.2 22.36,-68.41 12.75,-68.38 4.01,-69.05 -0.49,-69.97 0.4,-70.35 4.31,-69.7 7.54,-67.82 8.08,-64.76 6.58,-60.9 4.57,-57.09 1.75,-54.68 -4.92,-55.06 -18.49,-59.09 -35.11,-65.25 -39.81,-69.45" fill="none" stroke="rgb(134, 74, 19)" stroke-width="2" stroke-linejoin="round" filter="url(#fuzzy)" /><polyline points="59.08,-42.65 50.54,-55.1 44.24,-59.63 31.77,-63.65 15.53,-67.4 1.91,-70.34 -4.25,-72.16 -2.16,-72.67 5.42,-72.03 14.06,-70.76 19.83,-69.43 20.7,-68.31 16.99,-67.34 10.98,-66.37 5.7,-65.6 3.2,-65.65 2.9,-67.13 1.85,-69.48 -0.59,-69.37 6.77,-60.23 61.43,-37" fill="none" stroke="rgb(134, 74, 19)" stroke-width="2" stroke-linejoin="round" filter="url(#fuzzy)" /><polyline points="-52.12,-54.8 -22.19,-70.37 -19.74,-73.64 -15.99,-74.09 -7.34,-73.19 3.66,-70.84 14.6,-67.28 23.95,-63.02 30.16,-58.8 31.38,-55.59 26.3,-54.28 15.34,-55.13 1.24,-57.39 -11.6,-59.54 -18.37,-60.14 -15.58,-58.7 -2.86,-56.23 14.94,-55.25 27.53,-59.22 27.58,-69.23 36.7,-72.08" fill="none" stroke="rgb(134, 74, 19)" stroke-width="2" stroke-linejoin="round" filter="url(#fuzzy)" /><polyline points="-52.06,-55.29 -11.5,-67.17 -8.26,-71.44 -6.43,-72.76 -2.54,-73.18 1.79,-72.78 6.2,-71.29 10.59,-68.68 14.26,-65.38 16.39,-62.29 16.24,-60.55 13.17,-61.09 7,-63.96 -0.64,-68.13 -5.37,-71.83 -1.57,-73.47 13.25,-71.73 35.03,-63.66 59.99,-39.84" fill="none" stroke="rgb(134, 74, 19)" stroke-width="2" stroke-linejoin="round" filter="url(#fuzzy)" /><polyline points="26.68,-78.37 11.76,-75.96 -11.54,-72.57 -27.34,-68.5 -33.65,-64.97 -32.26,-62.92 -26.32,-62.81 -18.93,-64.73 -12.03,-68.29 -6.37,-72.54 -2.2,-76.3 0.11,-78.57 -0.14,-78.93 -3.81,-77.45 -11.5,-74.35 -22.75,-70.03 -33.69,-66.03 -34.22,-67.4 -9.14,-84.51" fill="none" stroke="rgb(134, 74, 19)" stroke-width="2" stroke-linejoin="round" filter="url(#fuzzy)" /><polyline points="55.58,-49.35 20.33,-69.35 0.87,-74.52 -1.56,-71.82 6.45,-66.54 16.1,-63.65 21.11,-65.18 19.82,-69.75 13.73,-74.46 4.98,-77.21 -4.53,-77.81 -12.67,-77.57 -17.63,-77.76 -20.62,-78.02 -26.74,-76.4 -33.85,-74.26" fill="none" stroke="rgb(134, 74, 19)" stroke-width="2" stroke-linejoin="round" filter="url(#fuzzy)" /><polyline points="10.33,-84.45 -2.14,-81.77 -4.9,-75.37 -1.31,-67.75 5.04,-61.15 11.18,-56.64 14.83,-54.17 15.31,-53.51 13.51,-54.57 10.93,-57.05 8.87,-60.1 7.84,-62.68 7.65,-64.23 8.12,-65.08 10.11,-66.17 14.51,-68.4 17.95,-71.81 8.77,-74.85 -30.83,-75.91" fill="none" stroke="rgb(134, 74, 19)" stroke-width="2" stroke-linejoin="round" filter="url(#fuzzy)" /><polyline points="46.69,-61.86 16.22,-73.98 14.61,-77.26 16.26,-77.96 17.82,-77.49 20.46,-75.83 24.64,-73.01 29.74,-69.4 34.49,-65.84 37.35,-63.42 37.03,-62.99 32.99,-64.59 25.75,-67.52 16.78,-70.8 8.44,-73.58 3.48,-75.2 3.87,-75.01 8.41,-72.83 9.66,-69.89 -6.71,-67.93 -49.99,-57.74" fill="none" stroke="rgb(134, 74, 19)" stroke-width="2" stroke-linejoin="round" filter="url(#fuzzy)" /><polyline points="54.13,-51.43 30.32,-57.93 12.41,-61.29 7.44,-64.38 9,-66.91 12.1,-68.29 14.29,-68.29 15.61,-66.8 16.59,-64.12 16.24,-61.42 12.68,-60.14 6.55,-60.72 2.13,-62.45 1.61,-65.73 -2.13,-73.9 -5.7,-84.86" fill="none" stroke="rgb(134, 74, 19)" stroke-width="2" stroke-linejoin="round" filter="url(#fuzzy)" /><polyline points="-22.84,-80.42 -20.98,-80.03 -25.49,-76.53 -26.7,-74.61 -23.89,-74.2 -19.71,-73.69 -15.63,-72.43 -11.31,-70.74 -6.28,-69.12 -1.38,-67.71 1.71,-66.57 1.64,-66.07 -2.25,-66.67 -10.02,-68.08 -20.27,-68.61 -27.3,-66.7 -17.87,-65.04 33.51,-73.82" fill="none" stroke="rgb(134, 74, 19)" stroke-width="2" stroke-linejoin="round" filter="url(#fuzzy)" /><polyline points="21.86,-81.01 23.75,-60.99 8.59,-65.38 -0.13,-72.41 -6.06,-75.61 -11.76,-75.1 -15.5,-72.94 -14.78,-70.91 -9.37,-69.78 -1.49,-69.35 5.93,-68.99 11.1,-68.47 13.87,-68.39 15.71,-69.35 20.5,-69.79 32.57,-67.16 38.55,-70.17" fill="none" stroke="rgb(134, 74, 19)" stroke-width="2" stroke-linejoin="round" filter="url(#fuzzy)" /><polyline points="30.76,-76.17 12.47,-76.26 3.62,-73.27 -7.14,-71.38 -13.39,-69.27 -12.3,-65.72 -5.36,-61.15 4.63,-57.17 15.33,-55.23 25.03,-55.79 32.23,-58.27 35.93,-61.65 36.34,-64.94 35.27,-67.3 35.8,-67.44 42.23,-62.07 56.93,-46.2" fill="none" stroke="rgb(134, 74, 19)" stroke-width="2" stroke-linejoin="round" filter="url(#fuzzy)" /><polyline points="-32.79,-74.67 7.28,-69.86 16.36,-69.84 16.98,-68.46 10.61,-67.81 0.33,-68.54 -8.82,-69.59 -12.91,-70.02 -10.97,-69.81 -5.33,-69.47 -0.29,-69.49 0.22,-69.92 -4.8,-70.57 -12.32,-71.46 -16.52,-72.96 -11.92,-74.93 3.29,-74.89 27.2,-66.34 61.02,-37.66" fill="none" stroke="rgb(134, 74, 19)" stroke-width="2" stroke-linejoin="round" filter="url(#fuzzy)" /><polyline points="-39.81,-69.45 -6.17,-75.21 3.92,-77.25 11.34,-76.28 18.44,-72.6 24.39,-67.42 26.89,-62.78 24.06,-60.38 16.19,-60.79 5.88,-63.51 -3.48,-67.55 -9.57,-71.89 -11.97,-75.8 -11.85,-78.72 -10.85,-80.36 -9.98,-80.55 -9.22,-79.33 -7.73,-76.84 -4.56,-73.38 0.48,-69.5 5.95,-66.31 8.11,-65.59 1.09,-68.53 -19.48,-71.29 -47.49,-60.99" fill="none" stroke="rgb(134, 74, 19)" stroke-width="2" stroke-linejoin="round" filter="url(#fuzzy)" /><polyline points="40.79,-68.23 27.97,-69.22 20.65,-67.45 14.19,-70 12.85,-72.78 14.9,-74.03 16.68,-74.1 16.49,-73.43 14.96,-71.92 13.4,-69.47 12.39,-66.52 11.47,-64.08 9.76,-63.21 6.97,-64.41 4.02,-67.37 2.31,-71.15 1.63,-74.62 -1.04,-76.9 -9.1,-77.35 -22.34,-74.34 -47.52,-60.98" fill="none" stroke="rgb(134, 74, 19)" stroke-width="2" stroke-linejoin="round" filter="url(#fuzzy)" /><polyline points="21.66,-80.87 -3.41,-77.62 -3.28,-77.76 1.77,-77.62 7.11,-76.72 10.84,-74.94 11.96,-72.54 11.05,-69.87 10.26,-67.02 11.81,-63.92 16.05,-60.85 20.82,-58.72 22.86,-58.8 20.16,-61.82 13.66,-67.22 6.92,-73.12 4.08,-77.1 7.46,-77.26 16.01,-72.87 23.82,-64.95 15.7,-58.39 -42.63,-66.74" fill="none" stroke="rgb(134, 74, 19)" stroke-width="2" stroke-linejoin="round" filter="url(#fuzzy)" /><polyline points="-3.19,-85.19 -6.36,-84.97 -8.65,-84.75 -11.29,-84.43 -14.18,-84 -16.92,-83.49 -19.4,-82.91 -21.78,-82.28 -24.31,-81.59 -27.13,-80.81 -30.26,-79.94 -33.68,-78.97 -37.36,-77.91 -41.28,-76.79 -45.37,-75.64 -49.53,-74.47 -53.69,-73.26 -57.87,-72 -62.22,-70.67 -66.83,-69.23 -71.64,-67.71 -76.43,-66.09 -81.03,-64.39 -85.53,-62.74 -90.05,-61.44 -94.94,-60.99" fill="none" stroke="rgb(134, 74, 19)" stroke-width="2" stroke-linejoin="round" filter="url(#fuzzy)" /><polyline points="-5.7,-84.86 -8.42,-84.58 -10.7,-84.16 -12.88,-83.66 -15.07,-83.09 -17.26,-82.45 -19.43,-81.75 -21.59,-80.97 -23.74,-80.11 -25.87,-79.2 -27.96,-78.22 -29.99,-77.2 -31.95,-76.13 -33.86,-75.01 -35.74,-73.81 -37.64,-72.52 -39.57,-71.15 -41.53,-69.69 -43.53,-68.18 -45.53,-66.59 -47.54,-64.94 -49.53,-63.22 -51.49,-61.42 -53.41,-59.56 -55.25,-57.67 -56.99,-55.78 -58.65,-53.9 -60.29,-52.03 -61.97,-50.14 -63.76,-48.29 -65.54,-46.45 -67.1,-44.19" fill="none" stroke="rgb(134, 74, 19)" stroke-width="2" stroke-linejoin="round" filter="url(#fuzzy)" /><polyline points="-8.88,-84.71 -11.05,-84.19 -13.92,-83.67 -17.19,-83.1 -20.37,-82.46 -23.09,-81.75 -25.35,-80.96 -27.42,-80.1 -29.66,-79.18 -32.31,-78.2 -35.53,-77.18 -39.38,-76.1 -43.89,-74.97 -49.01,-73.77 -54.54,-72.48 -60.13,-71.1 -65.37,-69.64 -69.94,-68.12 -73.79,-66.53 -77.11,-64.88 -80.23,-63.15 -83.44,-61.35 -86.88,-59.49 -90.56,-57.61 -94.44,-55.72 -98.58,-53.84 -103.13,-51.95 -108.17,-50.05 -113.51,-48.1 -118.61,-46.02 -122.89,-43.54 -126.99,-40.17" fill="none" stroke="rgb(134, 74, 19)" stroke-width="2" stroke-linejoin="round" filter="url(#fuzzy)" /><polyline points="-9.14,-84.51 -11.55,-84.08 -14.49,-83.5 -18.01,-82.89 -21.69,-82.25 -25.14,-81.56 -28.28,-80.78 -31.4,-79.89 -34.91,-78.9 -39.01,-77.82 -43.58,-76.68 -48.26,-75.52 -52.78,-74.34 -57.07,-73.12 -61.29,-71.85 -65.67,-70.5 -70.3,-69.05 -75.06,-67.53 -79.74,-65.93 -84.16,-64.3 -88.35,-62.68 -92.58,-61.12 -97.3,-59.55 -103.37,-57.73 -112.05,-55.67" fill="none" stroke="rgb(134, 74, 19)" stroke-width="2" stroke-linejoin="round" filter="url(#fuzzy)" /><polyline points="67.13,-15.09 68.85,-12.75 72.25,-9.9 74.39,-7.1 75.15,-4.38 75.4,-1.67 75.76,1.05 76.47,3.71 77.51,6.28 78.79,8.76 80.18,11.18 81.53,13.58 82.69,16 83.48,18.44 83.8,20.92 83.68,23.42 83.28,25.93 82.88,28.45 82.74,30.95 83.03,33.42 83.79,35.86 84.91,38.26 86.14,40.63 87.16,42.98 87.64,45.3 87.34,47.58 86.22,49.81 84.46,51.97 82.42,54.03 80.48,56.01 78.92,57.91 77.81,59.74 77.08,61.51 76.5,63.21 75.71,64.87 74.38,66.55 72.83,68.33 72.19,70.05" fill="none" stroke="rgb(134, 74, 19)" stroke-width="2" stroke-linejoin="round" filter="url(#fuzzy)" /><polyline points="-12.43,-83.65 -14.87,-83.14 -18.11,-82.49 -20.85,-81.76 -22.95,-80.98 -24.86,-80.11 -26.94,-79.18 -29.33,-78.19 -31.99,-77.16 -34.8,-76.09 -37.62,-74.97 -40.3,-73.78 -42.77,-72.49 -45.04,-71.11 -47.25,-69.65 -49.58,-68.12 -52.19,-66.54 -55.14,-64.9 -58.35,-63.17 -61.65,-61.37 -64.89,-59.51 -67.96,-57.62 -70.86,-55.74 -73.65,-53.87 -76.42,-52 -79.21,-50.12 -82.05,-48.27 -85.16,-46.45 -89.43,-44.19" fill="none" stroke="rgb(134, 74, 19)" stroke-width="2" stroke-linejoin="round" filter="url(#fuzzy)" /><polyline points="-12.43,-83.65 -14.59,-83.13 -17.2,-82.47 -19.72,-81.74 -22.04,-80.94 -24.21,-80.06 -26.29,-79.12 -28.3,-78.11 -30.29,-77.07 -32.3,-75.98 -34.44,-74.83 -36.81,-73.6 -39.51,-72.28 -42.56,-70.88 -45.94,-69.4 -49.54,-67.84 -53.24,-66.22 -56.87,-64.54 -60.32,-62.79 -63.5,-60.99 -66.42,-59.13 -69.17,-57.25 -71.88,-55.34 -74.71,-53.4 -77.76,-51.43 -81.06,-49.39 -84.55,-47.28 -88.12,-45.07 -91.66,-42.76 -95.12,-40.37 -98.49,-37.92 -101.79,-35.47 -104.95,-33.1 -107.74,-30.84 -109.97,-28.69 -112.14,-26.51 -115.82,-23.88 -122.99,-19.88" fill="none" stroke="rgb(134, 74, 19)" stroke-width="2" stroke-linejoin="round" filter="url(#fuzzy)" /><polyline points="-14.16,-83.2 -17.28,-82.51 -20.08,-81.75 -23.01,-80.96 -26.2,-80.09 -29.58,-79.14 -33.01,-78.13 -36.32,-77.09 -39.5,-76.01 -42.61,-74.88 -45.74,-73.66 -48.85,-72.35 -51.84,-70.95 -54.57,-69.48 -57.02,-67.93 -59.33,-66.33 -61.74,-64.65 -64.5,-62.91 -67.8,-61.11 -71.64,-59.26 -75.82,-57.38 -79.99,-55.48 -83.78,-53.57 -86.96,-51.64 -89.66,-49.66 -92.34,-47.6 -95.58,-45.42 -99.87,-43.1 -105.31,-40.66 -111.7,-38.12 -118.68,-35.51 -125.49,-32.8 -129.95,-30.1" fill="none" stroke="rgb(134, 74, 19)" stroke-width="2" stroke-linejoin="round" filter="url(#fuzzy)" /><polyline points="-14.16,-83.2 -16.78,-82.52 -19.04,-81.77 -21.06,-80.99 -23.05,-80.14 -25.06,-79.2 -27.02,-78.2 -28.89,-77.18 -30.65,-76.13 -32.34,-75.03 -34.01,-73.85 -35.71,-72.58 -37.45,-71.2 -39.22,-69.75 -40.97,-68.23 -42.68,-66.68 -44.36,-65.06 -46.02,-63.36 -47.69,-61.56 -49.35,-59.66 -50.94,-57.75 -52.4,-55.9 -53.72,-54.14 -55.05,-52.27 -56.73,-49.79" fill="none" stroke="rgb(134, 74, 19)" stroke-width="2" stroke-linejoin="round" filter="url(#fuzzy)" /><polyline points="-17.47,-82.45 -19.27,-82.13 -21.99,-81.56 -24.88,-80.79 -27.52,-79.87 -29.88,-78.82 -32.25,-77.69 -35.05,-76.52 -38.57,-75.34 -42.85,-74.14 -47.6,-72.9 -52.31,-71.6 -56.5,-70.22 -59.94,-68.75 -62.74,-67.21 -65.32,-65.62 -68.23,-63.99 -71.98,-62.33 -76.9,-60.63 -83.09,-58.87 -90.28,-57.01 -97.93,-55.04 -105.37,-53.02 -112.24,-50.99 -118.58,-48.94 -124.06,-46.78 -127.55,-44.52" fill="none" stroke="rgb(134, 74, 19)" stroke-width="2" stroke-linejoin="round" filter="url(#fuzzy)" /><polyline points="-18.22,-82.15 -19.24,-81.66 -20.89,-80.82 -22.79,-79.88 -24.79,-78.81 -26.62,-77.66 -28.12,-76.47 -29.35,-75.28 -30.48,-74.08 -31.71,-72.84 -33.08,-71.53 -34.55,-70.13 -35.97,-68.66 -37.19,-67.11 -38.12,-65.51 -38.7,-63.87 -38.99,-62.2 -39.09,-60.48 -39.17,-58.7 -39.38,-56.83 -39.86,-54.87 -40.63,-52.85 -41.6,-50.77 -42.56,-48.63 -43.23,-46.38 -43.37,-43.97 -42.9,-41.42 -42.3,-38.97" fill="none" stroke="rgb(134, 74, 19)" stroke-width="2" stroke-linejoin="round" filter="url(#fuzzy)" /><polyline points="-20.34,-81.4 -22.21,-80.93 -25.03,-80.12 -27.64,-79.13 -29.98,-78.08 -32.25,-77.03 -34.74,-75.95 -37.72,-74.81 -41.42,-73.58 -45.85,-72.26 -50.75,-70.84 -55.66,-69.34 -60.01,-67.78 -63.42,-66.15 -65.75,-64.46 -67.17,-62.71 -68.09,-60.9 -68.96,-59.04 -70.16,-57.15 -71.94,-55.24 -74.35,-53.3 -77.34,-51.32 -80.76,-49.29 -84.46,-47.17 -88.38,-44.96 -92.57,-42.65 -97.19,-40.26 -102.42,-37.83 -108.33,-35.41 -114.65,-33.04 -120.83,-30.76 -126.21,-28.53 -130.41,-26.24 -133.72,-23.66 -137.05,-20.68 -141.28,-17.92" fill="none" stroke="rgb(134, 74, 19)" stroke-width="2" stroke-linejoin="round" filter="url(#fuzzy)" /><polyline points="66.8,-16.63 73.94,-13.81 77.42,-11.29 77.09,-8.77 76.24,-6.2 76.15,-3.6 76.77,-0.99 77.79,1.6 78.91,4.19 79.85,6.8 80.46,9.44 80.75,12.13 80.92,14.85 81.26,17.58 82.02,20.29 83.22,22.93 84.65,25.47 86.04,27.89 87.16,30.19 88.02,32.39 88.72,34.52 89.32,36.63 89.73,38.77 89.76,40.99 89.43,43.34 88.9,45.85 88.07,48.4 87.87,50.5" fill="none" stroke="rgb(134, 74, 19)" stroke-width="2" stroke-linejoin="round" filter="url(#fuzzy)" /><polyline points="66.8,-16.63 77.23,-13.8 85.09,-11.26 87.64,-8.72 88.57,-6.14 88.97,-3.52 88.89,-0.9 88.47,1.71 87.91,4.32 87.41,6.95 87.14,9.62 87.27,12.32 87.98,15.05 89.37,17.77 91.4,20.46 93.86,23.09 96.3,25.62 98.23,28.04 99.27,30.36 99.31,32.6 98.56,34.79 97.5,36.97 96.65,39.17 96.41,41.41 97,43.69 98.42,45.96 100.49,48.17 102.88,50.24 105.05,52.14 106.55,53.93 107.46,55.75 108.64,57.67 111.06,59.23" fill="none" stroke="rgb(134, 74, 19)" stroke-width="2" stroke-linejoin="round" filter="url(#fuzzy)" /><polyline points="-22.84,-80.42 -26.08,-79.16 -29.07,-78.05 -32.11,-77 -34.8,-75.96 -37.1,-74.88 -39.18,-73.69 -41.13,-72.39 -43.02,-70.97 -44.91,-69.48 -46.85,-67.93 -48.94,-66.34 -51.28,-64.69 -53.98,-62.96 -57.07,-61.15 -60.47,-59.29 -63.9,-57.41 -67.04,-55.53 -69.73,-53.66 -72.07,-51.78 -74.37,-49.87 -76.9,-47.89 -79.75,-45.77 -82.96,-43.41 -86.59,-40.83 -88.58,-38.66" fill="none" stroke="rgb(134, 74, 19)" stroke-width="2" stroke-linejoin="round" filter="url(#fuzzy)" /><polyline points="-22.84,-80.42 -25.71,-79.16 -29.03,-78.05 -32,-77 -34.04,-75.97 -35.41,-74.89 -36.69,-73.71 -38.26,-72.41 -40.23,-70.99 -42.49,-69.5 -44.9,-67.96 -47.42,-66.38 -50.09,-64.74 -52.98,-63.01 -56.09,-61.21 -59.3,-59.34 -62.41,-57.46 -65.26,-55.59 -67.77,-53.73 -70.05,-51.86 -72.32,-49.98 -74.87,-48.05 -77.99,-45.99 -81.79,-43.51 -85.31,-40.17" fill="none" stroke="rgb(134, 74, 19)" stroke-width="2" stroke-linejoin="round" filter="url(#fuzzy)" /><polyline points="-25.59,-78.9 -27.5,-77.95 -29.84,-76.91 -32.63,-75.88 -35.75,-74.79 -38.86,-73.57 -41.76,-72.23 -44.39,-70.78 -46.8,-69.25 -49.08,-67.66 -51.28,-66.02 -53.43,-64.32 -55.58,-62.56 -57.76,-60.73 -59.99,-58.86 -62.35,-56.96 -64.89,-55.03 -67.73,-53.08 -70.97,-51.09 -74.64,-49.03 -78.7,-46.9 -82.93,-44.67 -87.04,-42.36 -90.74,-40 -93.84,-37.6 -96.33,-35.2 -98.42,-32.82 -100.45,-30.46 -102.84,-28.1 -105.92,-25.67 -109.85,-23.13 -114.55,-20.47 -119.72,-17.73 -124.81,-15 -128.82,-12.35 -130.52,-9.85 -130.17,-7.63" fill="none" stroke="rgb(134, 74, 19)" stroke-width="2" stroke-linejoin="round" filter="url(#fuzzy)" /><polyline points="-32.79,-74.67 -37.41,-73.78 -40.78,-72.4 -42.55,-70.82 -43.96,-69.22 -45.57,-67.64 -47.34,-66.06 -49.1,-64.41 -50.82,-62.66 -52.65,-60.83 -54.79,-58.95 -57.34,-57.06 -60.26,-55.17 -63.34,-53.29 -66.35,-51.38 -69.14,-49.41 -71.77,-47.35 -74.37,-45.17 -77.03,-42.86 -79.74,-40.43 -82.44,-37.93 -85.14,-35.41 -87.85,-32.94 -90.08,-30.75 -91.62,-29.39" fill="none" stroke="rgb(134, 74, 19)" stroke-width="2" stroke-linejoin="round" filter="url(#fuzzy)" /><polyline points="-34.61,-73.48 -35.7,-72.79 -37.66,-71.41 -39.73,-69.86 -41.69,-68.26 -43.57,-66.63 -45.42,-64.96 -47.24,-63.27 -48.96,-61.54 -50.56,-59.76 -52.07,-57.91 -53.58,-55.97 -55.17,-53.94 -56.91,-51.85 -58.78,-49.71 -60.72,-47.52 -62.63,-45.3 -64.4,-43.08 -65.96,-40.86 -67.31,-38.65 -68.46,-36.44 -69.46,-34.21 -70.37,-31.94 -71.22,-29.59 -72.06,-27.15 -72.91,-24.61 -73.8,-21.97 -74.74,-19.25 -75.73,-16.49 -76.76,-13.74 -77.8,-11.08 -78.77,-8.55 -79.62,-6.2 -80.44,-3.98 -81.41,-1.43 -82.08,2.86" fill="none" stroke="rgb(134, 74, 19)" stroke-width="2" stroke-linejoin="round" filter="url(#fuzzy)" /><polyline points="-39.81,-69.45 -43.4,-68.1 -47.39,-66.54 -51.37,-64.84 -55.63,-63.13 -59.78,-61.41 -63.32,-59.65 -66.02,-57.79 -67.92,-55.83 -69.29,-53.78 -70.47,-51.66 -71.65,-49.5 -72.92,-47.29 -74.25,-45.07 -75.59,-42.84 -76.98,-40.61 -78.54,-38.4 -80.4,-36.17 -82.62,-33.92 -85.12,-31.61 -87.7,-29.23 -90.15,-26.77 -92.29,-24.21 -94.07,-21.58 -95.6,-18.9 -97.15,-16.2 -99.1,-13.51 -101.81,-10.87 -105.51,-8.29 -110.04,-5.75 -114.83,-3.21 -118.96,-0.63 -121.65,1.99 -122.79,4.6 -123.24,7.11 -124.3,9.47 -126.19,11.87 -126.34,14.95" fill="none" stroke="rgb(134, 74, 19)" stroke-width="2" stroke-linejoin="round" filter="url(#fuzzy)" /><polyline points="-40.76,-68.23 -42.08,-67.08 -43.53,-65.78 -45.2,-64.2 -47.15,-62.38 -49.44,-60.44 -52.16,-58.48 -55.41,-56.55 -59.17,-54.62 -63.29,-52.68 -67.5,-50.69 -71.5,-48.63 -75.11,-46.47 -78.31,-44.21 -81.29,-41.88 -84.32,-39.49 -87.67,-37.09 -91.46,-34.69 -95.62,-32.3 -99.86,-29.9 -103.79,-27.48 -107.08,-25.01 -109.52,-22.47 -111.16,-19.88 -112.28,-17.25 -113.27,-14.62 -114.55,-12.02 -116.4,-9.46 -118.97,-6.92 -122.31,-4.39 -126.51,-1.81 -131.48,0.83 -136.71,3.55 -141.37,6.35 -145.09,9.26 -147.48,12.56" fill="none" stroke="rgb(134, 74, 19)" stroke-width="2" stroke-linejoin="round" filter="url(#fuzzy)" /><polyline points="-43.39,-65.66 -45.4,-64.45 -47.91,-62.49 -49.97,-60.42 -51.62,-58.4 -52.97,-56.47 -54.18,-54.59 -55.41,-52.7 -56.75,-50.75 -58.26,-48.72 -59.89,-46.58 -61.62,-44.33 -63.39,-41.99 -65.23,-39.6 -67.17,-37.19 -69.2,-34.8 -71.28,-32.44 -73.28,-30.1 -75.03,-27.74 -76.37,-25.32 -77.27,-22.79 -77.84,-20.16 -78.32,-17.48 -79,-14.81 -80.06,-12.21 -81.54,-9.71 -83.28,-7.31 -84.86,-4.98 -85.43,-2.78" fill="none" stroke="rgb(134, 74, 19)" stroke-width="2" stroke-linejoin="round" filter="url(#fuzzy)" /><polyline points="-44,-65.28 -48.22,-62.82 -52.94,-61.24 -56.2,-59.65 -58.1,-57.83 -59.87,-55.84 -62.03,-53.76 -64.27,-51.64 -66.1,-49.47 -67.41,-47.27 -68.54,-45.04 -70,-42.8 -72.09,-40.59 -74.75,-38.4 -77.61,-36.21 -80.18,-34 -82.15,-31.73 -83.48,-29.39 -84.4,-26.94 -85.31,-24.4 -86.61,-21.76 -88.6,-19.05 -91.45,-16.31 -95.22,-13.6 -99.8,-10.96 -104.88,-8.44 -109.99,-6.04 -114.57,-3.66 -118.39,-1.02 -121.64,2.2 -123.55,5.52" fill="none" stroke="rgb(134, 74, 19)" stroke-width="2" stroke-linejoin="round" filter="url(#fuzzy)" /><polyline points="-50.49,-57.59 -54.17,-55.56 -60.79,-53.47 -66,-51.43 -69.61,-49.33 -72.71,-47.14 -75.9,-44.88 -79.38,-42.63 -83.2,-40.43 -87.35,-38.28 -91.74,-36.16 -96.25,-34.01 -100.82,-31.79 -105.46,-29.48 -110.25,-27.07 -115.18,-24.55 -120.02,-21.92 -124.25,-19.18 -127.36,-16.4 -129.28,-13.63 -130.63,-10.93 -132.74,-8.33 -137.76,-6 -148.96,-4.83" fill="none" stroke="rgb(134, 74, 19)" stroke-width="2" stroke-linejoin="round" filter="url(#fuzzy)" /><polyline points="-50.49,-57.59 -50.38,-55.52 -49.88,-53.41 -50.3,-51.32 -51.76,-49.18 -53.65,-46.95 -55.43,-44.67 -56.89,-42.4 -57.99,-40.17 -58.77,-37.97 -59.3,-35.77 -59.61,-33.53 -59.72,-31.22 -59.65,-28.82 -59.42,-26.33 -59.06,-23.76 -58.6,-21.11 -58.07,-18.43 -57.48,-15.74 -56.8,-13.07 -56.02,-10.44 -55.1,-7.85 -54.04,-5.29 -52.82,-2.73 -51.46,-0.17 -49.92,2.4 -48.2,4.96 -46.29,7.51 -44.24,10.04 -42.15,12.57 -40.15,15.11 -38.37,17.67 -36.82,20.26 -35.27,22.9 -33.34,25.6 -31.01,28.27 -29.66,30.55" fill="none" stroke="rgb(134, 74, 19)" stroke-width="2" stroke-linejoin="round" filter="url(#fuzzy)" /><polyline points="-51.45,-55.67 -52.96,-53.34 -54.24,-51.3 -55.47,-49.21 -56.68,-46.99 -57.85,-44.7 -58.96,-42.42 -59.97,-40.21 -60.89,-38.04 -61.73,-35.89 -62.51,-33.69 -63.27,-31.43 -64.01,-29.07 -64.72,-26.61 -65.41,-24.05 -66.05,-21.4 -66.64,-18.7 -67.15,-15.99 -67.58,-13.31 -67.93,-10.7 -68.21,-8.16 -68.43,-5.67 -68.61,-3.18 -68.76,-0.61 -68.87,2.04 -68.91,4.67 -68.89,7.12 -68.82,9.29 -68.83,10.82" fill="none" stroke="rgb(134, 74, 19)" stroke-width="2" stroke-linejoin="round" filter="url(#fuzzy)" /><polyline points="-53.18,-52.88 -55.5,-50.37 -57.33,-48.33 -58.73,-46.21 -59.77,-43.87 -60.66,-41.4 -61.56,-38.9 -62.57,-36.43 -63.71,-34.02 -64.91,-31.64 -66.08,-29.27 -67.16,-26.85 -68.1,-24.37 -68.9,-21.81 -69.59,-19.2 -70.24,-16.57 -70.87,-13.95 -71.49,-11.36 -72.11,-8.78 -72.7,-6.21 -73.24,-3.64 -73.76,-1.06 -74.26,1.53 -74.77,4.11 -75.31,6.67 -75.81,9.18 -76.19,11.64 -76.31,14.06 -76.12,16.48 -75.68,18.92 -75.18,21.39 -74.83,23.88 -74.77,26.35 -74.94,28.83 -75.12,31.3 -75.21,33.21" fill="none" stroke="rgb(134, 74, 19)" stroke-width="2" stroke-linejoin="round" filter="url(#fuzzy)" /><polyline points="-55.11,-49.73 -58.18,-47.04 -60.23,-44.5 -63.39,-42.1 -67.12,-39.89 -70.25,-37.79 -72.24,-35.7 -73.21,-33.54 -73.59,-31.28 -73.79,-28.92 -74.12,-26.45 -74.76,-23.88 -75.87,-21.22 -77.6,-18.51 -80.07,-15.8 -83.34,-13.13 -87.32,-10.53 -91.74,-8 -96.16,-5.51 -100.11,-3.02 -103.3,-0.46 -105.85,2.15 -108.16,4.74 -110.63,7.2 -113.14,9.53 -115.25,11.9 -115.72,14.95" fill="none" stroke="rgb(134, 74, 19)" stroke-width="2" stroke-linejoin="round" filter="url(#fuzzy)" /><polyline points="-56.41,-48.02 -58.24,-46.44 -62.47,-44.01 -67.55,-41.41 -71.39,-38.84 -73.41,-36.36 -74.51,-33.97 -75.85,-31.65 -78.02,-29.35 -80.93,-27 -84.12,-24.55 -87.19,-22 -89.93,-19.39 -92.36,-16.75 -94.61,-14.13 -96.79,-11.56 -98.9,-9.04 -100.8,-6.53 -102.27,-4.01 -103.25,-1.45 -103.95,1.16 -104.9,3.81 -106.63,6.45 -109.3,8.98 -112.82,11.32 -117.01,13.48 -120.75,16.38" fill="none" stroke="rgb(134, 74, 19)" stroke-width="2" stroke-linejoin="round" filter="url(#fuzzy)" /><polyline points="-56.7,-47.18 -58.28,-44.13 -59.92,-41.28 -61.69,-38.65 -63.44,-36.15 -64.95,-33.75 -66.14,-31.43 -67.12,-29.11 -68.02,-26.73 -68.93,-24.24 -69.86,-21.67 -70.79,-19.04 -71.72,-16.4 -72.69,-13.77 -73.77,-11.18 -74.97,-8.62 -76.27,-6.06 -77.6,-3.5 -78.85,-0.92 -79.9,1.67 -80.67,4.25 -81.15,6.79 -81.39,9.3 -81.48,11.75 -81.49,14.17 -81.44,16.59 -81.3,19.03 -80.99,21.49 -80.5,23.97 -79.91,26.45 -79.41,28.93 -79.14,31.44 -79.1,34 -79.36,36.97" fill="none" stroke="rgb(134, 74, 19)" stroke-width="2" stroke-linejoin="round" filter="url(#fuzzy)" /><polyline points="-58.18,-44.19 -67.41,-41.05 -70.48,-38.5 -74.33,-36.05 -77.43,-33.67 -78.58,-31.38 -78.09,-29.09 -76.87,-26.74 -75.75,-24.27 -75.18,-21.69 -75.27,-19.05 -75.99,-16.4 -77.22,-13.78 -78.84,-11.2 -80.79,-8.64 -83.01,-6.1 -85.55,-3.55 -88.46,-0.98 -91.81,1.61 -95.58,4.19 -99.62,6.74 -103.61,9.24 -107.12,11.67 -109.81,14.07 -111.52,16.46 -112.44,18.89 -113.08,21.37 -114.02,23.84 -115.53,26.29 -117.57,28.85 -121.38,32.1" fill="none" stroke="rgb(134, 74, 19)" stroke-width="2" stroke-linejoin="round" filter="url(#fuzzy)" /><polyline points="-59.66,-41.26 -66.82,-39.26 -66.46,-37.45 -65.66,-35.53 -65.89,-33.41 -66.8,-31.12 -67.88,-28.73 -68.96,-26.23 -70.16,-23.64 -71.63,-20.97 -73.41,-18.25 -75.35,-15.53 -77.26,-12.86 -78.97,-10.27 -80.39,-7.75 -81.53,-5.26 -82.41,-2.76 -83.14,-0.22 -83.83,2.35 -84.64,4.91 -85.7,7.4 -87.02,9.85 -88.51,12.33 -89.84,14.93 -90.32,17.58 -89.12,19.92" fill="none" stroke="rgb(134, 74, 19)" stroke-width="2" stroke-linejoin="round" filter="url(#fuzzy)" /><polyline points="-60.22,-40.17 -68.99,-38.31 -69.28,-35.98 -69.05,-33.61 -69.71,-31.35 -71.07,-29.13 -73.02,-26.84 -75.64,-24.39 -78.95,-21.82 -82.84,-19.17 -87.09,-16.52 -91.54,-13.9 -96.03,-11.35 -100.35,-8.84 -104.23,-6.34 -107.56,-3.83 -110.55,-1.27 -113.68,1.33 -117.22,3.95 -120.86,6.55 -123.73,9.05 -125.13,11.39 -125.2,13.59 -125.38,15.76 -127.79,17.66" fill="none" stroke="rgb(134, 74, 19)" stroke-width="2" stroke-linejoin="round" filter="url(#fuzzy)" /><polyline points="-60.22,-40.17 -61.82,-38.28 -63.73,-35.91 -64.74,-33.52 -65.17,-31.23 -65.51,-28.96 -65.99,-26.6 -66.63,-24.11 -67.36,-21.51 -68.12,-18.85 -68.91,-16.19 -69.7,-13.56 -70.48,-10.96 -71.21,-8.39 -71.87,-5.83 -72.47,-3.27 -73.02,-0.69 -73.57,1.9 -74.14,4.47 -74.72,7.01 -75.29,9.52 -75.79,11.98 -76.17,14.43 -76.38,16.86 -76.4,19.31 -76.19,21.77 -75.76,24.26 -75.12,26.75 -74.37,29.26 -73.66,31.78 -73.08,34.28 -72.66,36.71 -72.26,39 -71.74,41.08 -71.05,43.18 -69.38,46.31" fill="none" stroke="rgb(134, 74, 19)" stroke-width="2" stroke-linejoin="round" filter="url(#fuzzy)" /><polyline points="-60.56,-38.97 -61.36,-37.33 -62.55,-35.48 -64.38,-33.31 -67.18,-30.96 -70.78,-28.51 -74.44,-25.96 -77.46,-23.33 -79.69,-20.62 -81.48,-17.88 -83.3,-15.15 -85.49,-12.48 -88.13,-9.86 -91.18,-7.3 -94.51,-4.75 -97.93,-2.21 -101.19,0.34 -103.96,2.9 -105.92,5.46 -106.87,8.01 -106.94,10.54 -106.52,13.08 -106.21,15.63 -106.47,18.18 -107.47,20.74 -108.92,23.29 -110.25,25.81 -110.89,28.27 -110.61,30.65 -109.68,32.94 -108.67,35.14 -108.14,37.27 -108.18,39.39 -108.53,41.61 -109.49,43.81" fill="none" stroke="rgb(134, 74, 19)" stroke-width="2" stroke-linejoin="round" filter="url(#fuzzy)" /><polyline points="65.57,-21.89 70.18,-19.85 73.28,-17.52 74.22,-15.14 74.91,-12.66 76.34,-10.08 78.52,-7.44 81.09,-4.77 83.72,-2.08 86.25,0.6 88.6,3.24 90.71,5.8 92.48,8.28 93.81,10.68 94.64,13.06 95,15.44 95.09,17.86 95.25,20.31 95.85,22.79 97.02,25.29 98.55,27.82 99.96,30.35 100.82,32.86 101.13,35.32 101.37,37.67 102.14,39.92 103.65,42.08 105.93,44.1 109.82,45.99" fill="none" stroke="rgb(134, 74, 19)" stroke-width="2" stroke-linejoin="round" filter="url(#fuzzy)" /><polyline points="-62.91,-32.88 -66.2,-30.69 -66.94,-28.31 -68.72,-25.81 -71.53,-23.17 -74.14,-20.4 -75.69,-17.6 -76.16,-14.83 -76,-12.14 -75.82,-9.54 -76.04,-6.98 -76.88,-4.44 -78.38,-1.9 -80.43,0.66 -82.86,3.22 -85.5,5.78 -88.22,8.34 -90.86,10.88 -93.29,13.43 -95.34,15.98 -96.86,18.53 -97.76,21.07 -98.07,23.6 -97.98,26.08 -97.82,28.52 -97.99,30.89 -98.73,33.2 -100.07,35.46 -101.73,37.7 -103.27,39.95 -104.27,42.22 -104.68,44.52 -104.82,46.82 -105.19,49.02 -106,51.04 -106.77,52.85 -106.23,54.62 -102.49,56.97" fill="none" stroke="rgb(134, 74, 19)" stroke-width="2" stroke-linejoin="round" filter="url(#fuzzy)" /><polyline points="-62.91,-32.88 -63.98,-30.7 -65.45,-28.34 -66.69,-25.87 -67.57,-23.25 -68.22,-20.5 -68.8,-17.7 -69.41,-14.94 -70.08,-12.26 -70.8,-9.67 -71.51,-7.14 -72.12,-4.63 -72.56,-2.11 -72.77,0.44 -72.78,2.99 -72.64,5.54 -72.42,8.08 -72.18,10.6 -71.92,13.12 -71.62,15.66 -71.29,18.21 -70.92,20.76 -70.53,23.31 -70.16,25.84 -69.81,28.3 -69.5,30.67 -69.2,32.95 -68.86,35.12 -68.35,37.2 -67.61,39.26 -66.58,41.92" fill="none" stroke="rgb(134, 74, 19)" stroke-width="2" stroke-linejoin="round" filter="url(#fuzzy)" /><polyline points="-62.91,-32.88 -65.94,-30.73 -66.75,-28.4 -67.27,-25.96 -68.21,-23.37 -69.53,-20.65 -70.93,-17.87 -72.27,-15.11 -73.57,-12.45 -74.88,-9.89 -76.18,-7.4 -77.39,-4.94 -78.42,-2.45 -79.33,0.08 -80.25,2.63 -81.32,5.17 -82.63,7.67 -84.21,10.14 -86.04,12.61 -88.01,15.11 -89.95,17.62 -91.73,20.09 -93.35,22.65 -93.4,25.91" fill="none" stroke="rgb(134, 74, 19)" stroke-width="2" stroke-linejoin="round" filter="url(#fuzzy)" /><polyline points="-64.13,-28.34 -66.64,-25.76 -69.42,-23.18 -71.54,-20.35 -73.09,-17.46 -74.09,-14.64 -74.71,-11.96 -75.19,-9.37 -75.75,-6.85 -76.54,-4.34 -77.6,-1.81 -78.9,0.75 -80.26,3.31 -81.4,5.87 -82.08,8.42 -82.14,10.96 -81.6,13.51 -80.64,16.05 -79.51,18.6 -78.48,21.14 -77.72,23.66 -77.34,26.15 -77.31,28.58 -77.58,30.94 -78.04,33.24 -78.53,35.5 -78.91,37.73 -79.02,39.97 -78.77,42.25 -78.19,44.55 -77.41,46.84 -76.58,49.04 -75.75,51.05 -74.87,52.86 -74.04,54.63 -73.02,56.97" fill="none" stroke="rgb(134, 74, 19)" stroke-width="2" stroke-linejoin="round" filter="url(#fuzzy)" /><polyline points="65.11,-25.24 67.98,-22.53 70.18,-19.62 70.51,-16.84 70.12,-14.19 69.83,-11.61 69.89,-9.05 70.26,-6.47 70.8,-3.89 71.39,-1.29 71.88,1.3 72.18,3.89 72.3,6.5 72.33,9.14 72.42,11.83 72.69,14.54 73.17,17.28 73.79,20 74.42,22.67 74.95,25.25 75.35,27.7 75.65,30 75.9,32.18 76.05,34.28 75.96,36.33 75.51,38.39 74.78,40.44 74.02,42.16" fill="none" stroke="rgb(134, 74, 19)" stroke-width="2" stroke-linejoin="round" filter="url(#fuzzy)" /><polyline points="65.11,-25.24 66.03,-22.53 66.97,-19.62 68.45,-16.84 70.51,-14.19 72.83,-11.61 75.16,-9.05 77.63,-6.47 80.64,-3.89 84.5,-1.29 89.2,1.3 94.21,3.89 98.71,6.5 101.96,9.14 103.64,11.83 104.12,14.54 104.27,17.28 105.16,20 107.49,22.67 111.23,25.25 115.6,27.7 119.49,30 122.19,32.18 123.98,34.28 125.88,36.33 128.61,38.39 131.89,40.44 134.28,42.16" fill="none" stroke="rgb(134, 74, 19)" stroke-width="2" stroke-linejoin="round" filter="url(#fuzzy)" /><polyline points="64.18,-28.81 68.38,-25.69 74,-22.84 77.25,-20.24 78.58,-17.76 79.02,-15.3 79.04,-12.8 78.72,-10.23 78.26,-7.61 78,-4.95 78.25,-2.27 79.11,0.4 80.42,3.04 81.9,5.6 83.31,8.09 84.52,10.5 85.53,12.88 86.34,15.26 86.96,17.67 87.42,20.12 87.89,22.59 88.65,25.1 89.99,27.63 91.9,30.19 93.82,32.75 94.94,35.23 94.95,37.55 95.04,39.86 97.21,42.87" fill="none" stroke="rgb(134, 74, 19)" stroke-width="2" stroke-linejoin="round" filter="url(#fuzzy)" /><polyline points="64.35,-27.49 66.65,-26.2 66.72,-24.44 66.88,-22.17 67.63,-19.61 68.75,-16.97 69.88,-14.33 70.75,-11.72 71.33,-9.12 71.74,-6.53 72.13,-3.92 72.56,-1.32 73.03,1.29 73.49,3.91 73.92,6.54 74.32,9.2 74.75,11.9 75.27,14.62 75.87,17.35 76.51,20.05 77.12,22.7 77.6,25.26 77.89,27.71 77.96,30.04 77.77,32.27 77.31,34.43 76.55,36.55 75.54,38.71 74.45,40.94 73.49,43.31 72.79,45.82 72.31,48.38 72.3,50.5" fill="none" stroke="rgb(134, 74, 19)" stroke-width="2" stroke-linejoin="round" filter="url(#fuzzy)" /><polyline points="63.32,-31.03 64.63,-28.52 66.25,-25.71 67.65,-22.95 68.82,-20.33 70.12,-17.8 71.95,-15.29 74.6,-12.75 78,-10.17 81.66,-7.53 84.85,-4.87 86.96,-2.18 87.7,0.49 87.31,3.12 86.32,5.69 85.42,8.19 85.11,10.64 85.68,13.06 87.07,15.48 89.02,17.92 91.13,20.38 93,22.87 94.38,25.38 95.25,27.91 95.77,30.43 96.21,32.92 96.7,35.37 97.19,37.76 97.5,40.09 97.48,42.41 97.06,44.78 96.21,47.24 94.73,49.77 92.64,52.12 91.38,53.86" fill="none" stroke="rgb(134, 74, 19)" stroke-width="2" stroke-linejoin="round" filter="url(#fuzzy)" /><polyline points="63.09,-31.6 67.94,-28.6 69.53,-26.54 71.35,-24.52 73.05,-22.26 74.21,-19.78 74.89,-17.2 75.33,-14.61 75.71,-12.03 76.2,-9.46 76.94,-6.89 78.05,-4.32 79.6,-1.74 81.61,0.84 83.99,3.41 86.55,5.99 89.02,8.6 91.05,11.25 92.3,13.97 92.54,16.73 91.84,19.53 90.72,22.32 90.11,25.03 90.59,27.54 91.01,29.58" fill="none" stroke="rgb(134, 74, 19)" stroke-width="2" stroke-linejoin="round" filter="url(#fuzzy)" /><polyline points="63.09,-31.6 63.32,-28.58 61.56,-26.49 58.54,-24.43 55.8,-22.12 54.44,-19.62 54.46,-17.02 55.12,-14.4 55.55,-11.79 55.22,-9.19 54.05,-6.59 52.27,-3.98 50.18,-1.37 47.96,1.24 45.6,3.86 43,6.5 40.11,9.16 37.05,11.86 34.14,14.58 31.75,17.31 30.18,20.01 29.47,22.67 29.35,25.23 29.35,27.68 28.88,30.02 27.53,32.25 25.21,34.41 22.24,36.54 19.14,38.7 16.36,40.93 14.08,43.3 12.27,45.82 10.91,48.38 9.01,50.5" fill="none" stroke="rgb(134, 74, 19)" stroke-width="2" stroke-linejoin="round" filter="url(#fuzzy)" /><polyline points="62.39,-34.03 63.74,-31.34 65.18,-28.84 66.55,-26.63 67.71,-24.43 68.69,-22.08 69.6,-19.59 70.51,-17.02 71.41,-14.41 72.26,-11.79 73,-9.18 73.61,-6.57 74.12,-3.95 74.63,-1.34 75.23,1.29 75.96,3.92 76.81,6.57 77.69,9.25 78.46,11.95 78.99,14.67 79.19,17.39 79.04,20.08 78.61,22.71 78,25.27 77.28,27.72 76.54,30.07 75.8,32.33 75.08,34.54 74.36,36.73 73.65,38.93 72.92,41.19 72.14,43.5 71.27,45.84 70.38,48.12 69.54,50.23 68.84,52.03 68.2,53.52 67.35,54.85" fill="none" stroke="rgb(134, 74, 19)" stroke-width="2" stroke-linejoin="round" filter="url(#fuzzy)" /><polyline points="61.43,-37 69.37,-34.44 73.19,-31.64 74.51,-28.82 75.61,-26.02 76.64,-23.31 77.21,-20.69 77.29,-18.15 77.23,-15.64 77.49,-13.12 78.42,-10.57 80.17,-7.97 82.7,-5.33 85.84,-2.66 89.27,0.02 92.66,2.66 95.71,5.25 98.27,7.73 100.36,10.12 102.24,12.46 104.3,14.81 106.88,17.2 110.06,19.67 113.52,22.16 116.74,24.58 119.27,26.77 121.22,28.19" fill="none" stroke="rgb(134, 74, 19)" stroke-width="2" stroke-linejoin="round" filter="url(#fuzzy)" /><polyline points="61.75,-35.55 62.52,-33.66 63.45,-31.3 64.44,-28.96 65.36,-26.72 66.16,-24.46 66.9,-22.1 67.66,-19.63 68.44,-17.07 69.21,-14.47 69.89,-11.86 70.41,-9.25 70.77,-6.64 71.01,-4.03 71.22,-1.41 71.47,1.21 71.81,3.85 72.27,6.5 72.85,9.17 73.47,11.88 74.09,14.6 74.6,17.32 74.94,20.01 75.08,22.65 75.01,25.21 74.79,27.67 74.48,30.02 74.14,32.28 73.78,34.48 73.36,36.65 72.78,38.85 72.01,41.11 71.09,43.44 70.18,45.83 69.34,48.18 68.52,50.33 67.77,52.12 67.77,53.43" fill="none" stroke="rgb(134, 74, 19)" stroke-width="2" stroke-linejoin="round" filter="url(#fuzzy)" /><polyline points="61.55,-35.87 64.44,-35.7 70.78,-33.94 74.89,-31.5 75.94,-28.82 75.64,-26.08 75.48,-23.38 75.95,-20.75 76.87,-18.19 77.85,-15.65 78.67,-13.11 79.38,-10.54 80.19,-7.93 81.39,-5.28 83.21,-2.61 85.79,0.06 89.19,2.7 93.32,5.28 97.98,7.78 102.82,10.2 107.47,12.58 111.64,14.95 115.29,17.36 118.71,19.81 122.32,22.28 126.24,24.76 129.87,27.26 132.4,29.89 134.67,32.85 139.09,36.05" fill="none" stroke="rgb(134, 74, 19)" stroke-width="2" stroke-linejoin="round" filter="url(#fuzzy)" /><polyline points="61.55,-35.87 63.66,-35.7 65.82,-33.95 67,-31.52 68.27,-28.83 70.87,-26.1 75.56,-23.4 82.2,-20.77 89.76,-18.21 96.97,-15.68 102.88,-13.15 107.25,-10.58 110.33,-7.97 112.5,-5.33 114.07,-2.66 115.22,0.01 116.13,2.66 117.08,5.24 118.34,7.74 120.1,10.15 122.4,12.51 125.04,14.87 127.68,17.28 129.83,19.73 131.15,22.21 131.73,24.65 132.53,27.06 135.03,29.58 139.76,33.05" fill="none" stroke="rgb(134, 74, 19)" stroke-width="2" stroke-linejoin="round" filter="url(#fuzzy)" /><polyline points="61.02,-37.66 69.49,-35.71 77.49,-33.61 81.73,-31.34 83.82,-29.06 84.49,-26.82 84.03,-24.56 82.95,-22.2 82.1,-19.74 82.25,-17.21 83.7,-14.63 86.1,-12.03 88.74,-9.43 90.97,-6.83 92.52,-4.22 93.65,-1.62 94.94,1 96.89,3.61 99.72,6.25 103.21,8.91 106.94,11.6 110.46,14.33 113.49,17.07 115.95,19.8 117.81,22.48 118.94,25.08 119.16,27.56 118.48,29.89 117.4,32.1 116.94,34.22 117.92,36.29 120.21,38.37 122.93,40.42 125.88,42.16" fill="none" stroke="rgb(134, 74, 19)" stroke-width="2" stroke-linejoin="round" filter="url(#fuzzy)" /><polyline points="59.99,-39.84 63.96,-37.81 66.98,-35.81 68.08,-33.7 69.17,-31.49 71.31,-29.27 74.62,-27.06 78.68,-24.83 82.91,-22.51 86.87,-20.1 90.35,-17.59 93.36,-15.04 95.84,-12.48 97.61,-9.91 98.55,-7.34 98.86,-4.76 99.17,-2.18 100.27,0.39 102.71,2.95 106.47,5.5 111.18,8.07 116.45,10.71 121.83,13.37 125.86,16.13 126.66,19.78" fill="none" stroke="rgb(134, 74, 19)" stroke-width="2" stroke-linejoin="round" filter="url(#fuzzy)" /><polyline points="58.89,-43.19 62.81,-40.76 67.01,-38.33 69.27,-36.18 69.64,-33.97 69.54,-31.57 70.2,-29.01 72.13,-26.35 75.29,-23.7 79.26,-21.08 83.48,-18.53 87.39,-16 90.59,-13.48 92.84,-10.93 94.06,-8.34 94.33,-5.72 93.89,-3.05 93.15,-0.35 92.61,2.34 92.63,4.97 93.37,7.47 94.79,9.8 96.85,12.03 99.53,14.26 102.82,16.52 107.16,18.76" fill="none" stroke="rgb(134, 74, 19)" stroke-width="2" stroke-linejoin="round" filter="url(#fuzzy)" /><polyline points="58.89,-43.19 60.42,-40.76 61.84,-38.33 62.83,-36.17 63.81,-33.96 65.16,-31.55 66.94,-28.98 68.89,-26.32 70.67,-23.67 72.07,-21.05 73.11,-18.49 74.02,-15.96 75.04,-13.43 76.33,-10.87 77.86,-8.28 79.49,-5.65 81.01,-2.98 82.25,-0.29 83.19,2.39 83.9,5.01 84.53,7.5 85.17,9.86 85.79,12.14 86.32,14.42 86.95,16.82 88.1,19.45 89.66,22.69" fill="none" stroke="rgb(134, 74, 19)" stroke-width="2" stroke-linejoin="round" filter="url(#fuzzy)" /><polyline points="58.89,-43.19 60.2,-40.73 62.17,-38.28 63.76,-36.08 64.7,-33.82 65.19,-31.38 65.5,-28.78 65.83,-26.11 66.31,-23.43 66.97,-20.8 67.81,-18.2 68.76,-15.62 69.74,-13.04 70.65,-10.44 71.4,-7.8 71.93,-5.15 72.24,-2.48 72.36,0.18 72.37,2.81 72.34,5.39 72.31,7.91 72.32,10.38 72.35,12.82 72.39,15.25 72.4,17.69 72.38,20.16 72.29,22.65 72.1,25.17 71.8,27.71 71.37,30.25 70.81,32.76 70.16,35.23 69.44,37.61 68.69,39.91 67.93,42.17 67.15,44.46 66.1,47.03 64.03,50.62" fill="none" stroke="rgb(134, 74, 19)" stroke-width="2" stroke-linejoin="round" filter="url(#fuzzy)" /><polyline points="55.58,-49.35 58.34,-46.3 61.05,-43.34 62.93,-40.68 64.28,-38.27 65.7,-35.99 67.67,-33.75 70.45,-31.52 74.08,-29.27 78.26,-27.01 82.4,-24.69 85.83,-22.31 88.07,-19.87 89.06,-17.35 89.14,-14.8 88.93,-12.21 89.08,-9.61 90.06,-7 92,-4.39 94.69,-1.77 97.67,0.85 100.4,3.48 102.46,6.12 103.64,8.79 104.05,11.49 103.98,14.22 103.83,16.97 103.95,19.7 104.59,22.39 105.87,25 107.73,27.49 109.93,29.84 112.06,32.06 113.63,34.19 114.45,36.27 115.01,38.35 116.65,40.41 120.92,42.16" fill="none" stroke="rgb(134, 74, 19)" stroke-width="2" stroke-linejoin="round" filter="url(#fuzzy)" /><polyline points="55.96,-48.31 57.37,-47.9 59.29,-45.87 60.92,-43.35 62.15,-40.83 63.34,-38.44 64.72,-36.15 66.26,-33.91 67.82,-31.68 69.27,-29.45 70.63,-27.2 71.98,-24.91 73.37,-22.55 74.79,-20.13 76.17,-17.63 77.41,-15.09 78.47,-12.51 79.38,-9.92 80.25,-7.33 81.17,-4.73 82.17,-2.13 83.18,0.47 84.09,3.07 84.8,5.67 85.31,8.3 85.73,10.98 86.16,13.71 86.68,16.5 87.22,19.35 87.72,22.21 88.17,25.03 88.25,27.95" fill="none" stroke="rgb(134, 74, 19)" stroke-width="2" stroke-linejoin="round" filter="url(#fuzzy)" /><polyline points="55.96,-48.31 58.91,-47.89 62.16,-45.85 64.82,-43.33 67.15,-40.81 69.69,-38.41 72.82,-36.11 76.53,-33.86 80.55,-31.63 84.48,-29.39 88.03,-27.12 90.99,-24.82 93.26,-22.45 94.81,-20.01 95.73,-17.51 96.23,-14.96 96.64,-12.39 97.32,-9.79 98.52,-7.19 100.31,-4.58 102.53,-1.98 104.86,0.63 106.92,3.25 108.49,5.88 109.56,8.53 110.38,11.22 111.41,13.96 113.07,16.73 115.49,19.52 118.26,22.28 120.49,24.96 121.45,27.49 121.34,29.82 121.68,31.86 124.51,33.28" fill="none" stroke="rgb(134, 74, 19)" stroke-width="2" stroke-linejoin="round" filter="url(#fuzzy)" /><polyline points="54.13,-51.43 55.72,-49.46 57.28,-47.8 59.12,-45.69 61.19,-43.3 63.39,-40.86 65.7,-38.48 68.07,-36.17 70.48,-33.9 72.91,-31.65 75.38,-29.39 77.92,-27.12 80.47,-24.8 82.91,-22.42 85.1,-19.98 86.93,-17.48 88.41,-14.93 89.69,-12.35 91,-9.75 92.61,-7.15 94.63,-4.53 97.02,-1.92 99.58,0.7 102.07,3.33 104.24,5.97 105.97,8.63 107.21,11.33 108,14.07 108.43,16.83 108.72,19.59 109.22,22.31 110.26,24.95 111.89,27.46 113.75,29.81 115.25,31.99 116.05,34.07 115.94,36.07 114.25,37.72" fill="none" stroke="rgb(134, 74, 19)" stroke-width="2" stroke-linejoin="round" filter="url(#fuzzy)" /><polyline points="52.78,-53.97 55.54,-51.6 59.5,-49.69 62.7,-47.79 65.06,-45.65 66.86,-43.32 68.21,-40.93 69.21,-38.57 69.99,-36.26 70.65,-33.98 71.28,-31.73 71.94,-29.47 72.71,-27.2 73.65,-24.88 74.81,-22.51 76.18,-20.08 77.74,-17.58 79.38,-15.03 80.99,-12.46 82.47,-9.86 83.76,-7.26 84.85,-4.65 85.79,-2.04 86.6,0.58 87.33,3.2 87.98,5.83 88.57,8.49 89.1,11.18 89.58,13.92 90.06,16.7 90.62,19.49 91.38,22.25 92.49,24.94 94.02,27.48 95.8,29.81 97.08,31.85 96.56,33.28" fill="none" stroke="rgb(134, 74, 19)" stroke-width="2" stroke-linejoin="round" filter="url(#fuzzy)" /><polyline points="49.29,-58.82 55.95,-56.23 57.45,-53.78 58.94,-51.6 61.81,-49.48 65.86,-47.36 70.36,-45.24 74.67,-43.11 78.36,-40.97 81.31,-38.82 83.57,-36.61 85.33,-34.33 86.83,-31.94 88.31,-29.45 90.02,-26.89 92.14,-24.28 94.78,-21.67 97.82,-19.1 100.98,-16.55 103.95,-14.02 106.62,-11.46 109.21,-8.88 112.05,-6.26 115.3,-3.59 118.65,-0.85 121.56,2.01 123.92,4.93 126.79,7.64 130.6,9.42" fill="none" stroke="rgb(134, 74, 19)" stroke-width="2" stroke-linejoin="round" filter="url(#fuzzy)" /><polyline points="49.18,-58.78 58.16,-56.28 64.13,-54.03 64.54,-51.96 63.53,-50 63.87,-48.02 66.6,-45.91 71.52,-43.67 77.52,-41.35 83.12,-39.03 87.21,-36.75 89.53,-34.51 90.73,-32.29 91.94,-30.09 94.14,-27.9 97.67,-25.7 102.26,-23.44 107.38,-21.07 112.76,-18.58 118.6,-16.01 125.24,-13.42 132.89,-10.88 141.63,-8.49 150.63,-6.83" fill="none" stroke="rgb(134, 74, 19)" stroke-width="2" stroke-linejoin="round" filter="url(#fuzzy)" /><polyline points="46.28,-62.56 48.37,-60.95 51.95,-58.79 55.97,-56.51 59.75,-54.29 62.77,-52.17 64.82,-50.13 66.11,-48.06 67,-45.92 67.88,-43.68 69.05,-41.39 70.72,-39.08 72.95,-36.79 75.65,-34.53 78.59,-32.29 81.43,-30.07 83.93,-27.85 86.03,-25.61 87.92,-23.3 89.94,-20.92 92.38,-18.44 95.27,-15.88 98.41,-13.31 101.45,-10.76 104.33,-8.23 107.58,-5.68 112.18,-2.97 117.67,0.02" fill="none" stroke="rgb(134, 74, 19)" stroke-width="2" stroke-linejoin="round" filter="url(#fuzzy)" /><polyline points="42.41,-66.91 41.57,-68.44 41.95,-70.06 41.71,-71.5 40.41,-72.76 38.68,-73.94 37.09,-75.09 35.76,-76.22 34.51,-77.33 33.09,-78.39 31.39,-79.38 29.42,-80.29 27.25,-81.11 24.94,-81.84 22.48,-82.49 19.87,-83.06 17.13,-83.56 14.29,-83.99 11.41,-84.34 8.55,-84.61 5.69,-84.8 2.8,-84.92 -0.15,-84.97 -3.21,-84.96 -6.37,-84.88 -9.66,-84.73 -13.1,-84.5 -16.75,-84.19 -20.67,-83.79 -24.85,-83.3 -29.1,-82.75 -33.1,-82.17 -37.04,-81.51 -43.37,-80.33" fill="none" stroke="rgb(134, 74, 19)" stroke-width="2" stroke-linejoin="round" filter="url(#fuzzy)" /><polyline points="42.08,-66.91 40.36,-68.62 38.82,-69.97 37.18,-71.3 35.39,-72.67 33.53,-74.02 31.65,-75.31 29.78,-76.49 27.91,-77.57 26.05,-78.56 24.18,-79.47 22.29,-80.31 20.38,-81.09 18.43,-81.81 16.45,-82.48 14.44,-83.07 12.4,-83.6 10.35,-84.04 8.28,-84.4 6.22,-84.68 4.15,-84.87 2.07,-84.99 -0.04,-85.04 -2.18,-85.01 -4.36,-84.9 -6.56,-84.7 -8.75,-84.41 -10.86,-84.05 -12.86,-83.62 -14.85,-83.16 -17.17,-82.66" fill="none" stroke="rgb(134, 74, 19)" stroke-width="2" stroke-linejoin="round" filter="url(#fuzzy)" /><polyline points="42.08,-66.91 40.92,-68.61 40.44,-69.94 40.6,-71.25 40.63,-72.61 40.14,-73.96 39.21,-75.25 38.01,-76.44 36.7,-77.52 35.35,-78.5 34.02,-79.41 32.65,-80.26 31.11,-81.04 29.21,-81.77 26.84,-82.45 24.01,-83.08 20.87,-83.64 17.62,-84.12 14.39,-84.5 11.23,-84.78 8.07,-84.99 4.79,-85.13 1.1,-85.25 -3.19,-85.27" fill="none" stroke="rgb(134, 74, 19)" stroke-width="2" stroke-linejoin="round" filter="url(#fuzzy)" /><polyline points="38.33,-70.5 37.97,-71.86 36.76,-72.99 35.51,-74.07 33.98,-75.18 32.17,-76.32 30.19,-77.44 28.18,-78.51 26.14,-79.5 24.1,-80.4 22.02,-81.2 19.9,-81.92 17.72,-82.55 15.5,-83.11 13.27,-83.59 11.04,-84 8.82,-84.33 6.62,-84.59 4.42,-84.77 2.18,-84.87 -0.09,-84.9 -2.41,-84.87 -4.75,-84.77 -7.12,-84.59 -9.51,-84.33 -11.93,-84 -14.4,-83.58 -16.93,-83.09 -19.51,-82.53 -22.13,-81.9 -24.78,-81.2 -27.45,-80.4 -30.14,-79.5 -32.87,-78.45 -35.6,-77.27 -38.25,-76 -40.78,-74.75 -43.66,-73.48" fill="none" stroke="rgb(134, 74, 19)" stroke-width="2" stroke-linejoin="round" filter="url(#fuzzy)" /><polyline points="34.57,-73.26 33.25,-74.39 32,-75.67 31.29,-76.8 30.69,-77.81 29.73,-78.74 28.27,-79.61 26.54,-80.42 24.84,-81.19 23.3,-81.9 21.83,-82.55 20.2,-83.16 18.18,-83.69 15.69,-84.13 12.83,-84.49 9.78,-84.76 6.68,-84.96 3.53,-85.08 0.24,-85.15 -3.3,-85.15 -7.18,-85.06 -11.59,-84.9 -17.07,-84.71" fill="none" stroke="rgb(134, 74, 19)" stroke-width="2" stroke-linejoin="round" filter="url(#fuzzy)" /><polyline points="32.17,-75.18 30.88,-76.43 29.48,-77.65 27.55,-78.74 25.34,-79.73 23.13,-80.62 21.02,-81.39 18.98,-82.07 16.93,-82.68 14.86,-83.22 12.74,-83.7 10.61,-84.1 8.47,-84.42 6.28,-84.66 4.03,-84.83 1.68,-84.92 -0.78,-84.95 -3.32,-84.91 -5.92,-84.8 -8.57,-84.62 -11.31,-84.36 -14.16,-84.03 -17.16,-83.61 -20.28,-83.12 -23.47,-82.56 -26.65,-81.94 -29.76,-81.24 -32.86,-80.47 -36.09,-79.57 -39.62,-78.52 -43.61,-77.3 -47.86,-76 -51.49,-74.96" fill="none" stroke="rgb(134, 74, 19)" stroke-width="2" stroke-linejoin="round" filter="url(#fuzzy)" /><polyline points="30.41,-76.29 31.49,-77.74 29.84,-78.81 27.68,-79.79 25.49,-80.67 23.43,-81.44 21.52,-82.11 19.67,-82.7 17.75,-83.24 15.66,-83.72 13.37,-84.13 10.9,-84.45 8.29,-84.7 5.57,-84.86 2.74,-84.96 -0.2,-85 -3.24,-84.97 -6.39,-84.88 -9.64,-84.71 -13.02,-84.47 -16.57,-84.15 -20.31,-83.74 -24.19,-83.25 -28.1,-82.7 -31.89,-82.1 -35.72,-81.45 -40.25,-80.7 -45.45,-80.1" fill="none" stroke="rgb(134, 74, 19)" stroke-width="2" stroke-linejoin="round" filter="url(#fuzzy)" /><polyline points="28.49,-77.37 26.31,-78.86 24.42,-79.84 22.83,-80.66 21.31,-81.39 19.64,-82.07 17.8,-82.71 15.83,-83.29 13.8,-83.79 11.69,-84.21 9.49,-84.53 7.16,-84.77 4.69,-84.94 2.08,-85.03 -0.69,-85.05 -3.63,-85.01 -6.77,-84.88 -10.08,-84.66 -13.56,-84.37 -17.21,-83.99 -21.17,-83.55 -25.71,-83.02 -30.99,-82.36 -36.5,-81.4" fill="none" stroke="rgb(134, 74, 19)" stroke-width="2" stroke-linejoin="round" filter="url(#fuzzy)" /><polyline points="24.54,-79.46 24.54,-80.03 26.23,-80.74 27.08,-81.45 25.98,-82.12 23.46,-82.76 20.36,-83.33 17.16,-83.83 14.01,-84.24 10.94,-84.55 7.93,-84.78 4.99,-84.93 2.04,-85.02 -0.97,-85.03 -4.14,-84.97 -7.54,-84.83 -11.21,-84.6 -15.18,-84.29 -19.44,-83.91 -23.97,-83.45 -28.76,-82.91 -33.76,-82.31 -38.82,-81.67 -43.6,-81.04 -48.88,-80.42" fill="none" stroke="rgb(134, 74, 19)" stroke-width="2" stroke-linejoin="round" filter="url(#fuzzy)" /><polyline points="23.08,-80.26 21.67,-81.04 20,-81.7 18.34,-82.28 16.49,-82.82 14.44,-83.35 12.3,-83.82 10.17,-84.22 8.09,-84.53 6.03,-84.75 3.93,-84.89 1.77,-84.97 -0.46,-84.98 -2.74,-84.93 -5.06,-84.81 -7.42,-84.62 -9.81,-84.36 -12.27,-84.01 -14.79,-83.58 -17.35,-83.08 -19.89,-82.51 -22.38,-81.88 -24.81,-81.18 -27.24,-80.38 -29.77,-79.47 -32.49,-78.43 -35.42,-77.24 -38.43,-75.98 -41.37,-74.74 -44.22,-73.48" fill="none" stroke="rgb(134, 74, 19)" stroke-width="2" stroke-linejoin="round" filter="url(#fuzzy)" /><polyline points="23.08,-80.26 21.75,-81.04 20.53,-81.71 19.04,-82.29 17.09,-82.84 14.84,-83.36 12.51,-83.83 10.25,-84.22 8.06,-84.52 5.87,-84.74 3.6,-84.88 1.16,-84.95 -1.48,-84.95 -4.3,-84.89 -7.23,-84.75 -10.19,-84.54 -13.1,-84.26 -15.96,-83.89 -18.78,-83.45 -21.67,-82.93 -24.76,-82.34 -28.2,-81.67 -32.04,-80.92 -36.28,-80.08 -40.84,-79.14 -45.59,-78.12 -50.43,-77.03 -55.29,-75.89 -60.09,-74.73 -64.82,-73.54 -69.47,-72.3 -74.11,-70.98 -78.75,-69.56 -83.06,-68.1 -86.49,-66.68 -89.35,-65.28" fill="none" stroke="rgb(134, 74, 19)" stroke-width="2" stroke-linejoin="round" filter="url(#fuzzy)" /><polyline points="21.86,-81.01 20.12,-81.8 18.97,-82.33 17.55,-82.86 15.9,-83.39 14.05,-83.87 11.97,-84.26 9.66,-84.56 7.2,-84.76 4.63,-84.89 2.02,-84.96 -0.63,-84.95 -3.3,-84.88 -5.99,-84.74 -8.69,-84.53 -11.4,-84.23 -14.11,-83.86 -16.81,-83.41 -19.54,-82.88 -22.33,-82.27 -25.24,-81.59 -28.3,-80.82 -31.52,-79.97 -34.85,-79.03 -38.21,-78.01 -41.55,-76.92 -44.88,-75.78 -48.25,-74.61 -51.74,-73.38 -55.4,-72.11 -59.22,-70.76 -63.16,-69.33 -67.2,-67.8 -71.35,-66.17 -75.62,-64.46 -79.88,-62.79 -83.49,-61.46 -86.41,-60.99" fill="none" stroke="rgb(134, 74, 19)" stroke-width="2" stroke-linejoin="round" filter="url(#fuzzy)" /><polyline points="18.49,-82.2 19.84,-82.39 19.56,-82.85 17.08,-83.4 13.9,-83.9 10.95,-84.3 8.42,-84.6 6.14,-84.8 3.91,-84.94 1.59,-85 -0.92,-85.01 -3.61,-84.96 -6.5,-84.84 -9.59,-84.65 -12.86,-84.38 -16.26,-84.03 -19.7,-83.61 -23.1,-83.1 -26.46,-82.54 -29.9,-81.91 -33.62,-81.22 -37.83,-80.45 -42.59,-79.55 -47.75,-78.5 -52.93,-77.28 -57.45,-75.99 -60.06,-74.96" fill="none" stroke="rgb(134, 74, 19)" stroke-width="2" stroke-linejoin="round" filter="url(#fuzzy)" /><polyline points="17.09,-82.72 14.44,-83.44 12.1,-84.03 10.17,-84.43 8.4,-84.69 6.5,-84.87 4.31,-84.98 1.81,-85.04 -0.93,-85.04 -3.81,-84.98 -6.73,-84.86 -9.61,-84.66 -12.45,-84.39 -15.29,-84.04 -18.23,-83.6 -21.35,-83.1 -24.7,-82.53 -28.32,-81.9 -32.22,-81.21 -36.41,-80.44 -40.95,-79.54 -46.03,-78.5 -51.97,-77.28 -58.7,-75.98 -64.75,-74.96" fill="none" stroke="rgb(134, 74, 19)" stroke-width="2" stroke-linejoin="round" filter="url(#fuzzy)" /><polyline points="14.32,-83.45 11.41,-84.15 9.56,-84.52 7.96,-84.75 6.17,-84.9 4.03,-84.99 1.59,-85.04 -1.01,-85.02 -3.59,-84.94 -6.05,-84.79 -8.37,-84.56 -10.61,-84.24 -12.87,-83.85 -15.21,-83.38 -17.73,-82.84 -20.45,-82.21 -23.43,-81.51 -26.64,-80.73 -30.08,-79.86 -33.7,-78.9 -37.47,-77.87 -41.37,-76.78 -45.38,-75.63 -49.52,-74.43 -53.79,-73.19 -58.15,-71.89 -62.52,-70.51 -66.8,-69.07 -70.93,-67.54 -74.93,-65.96 -78.86,-64.33 -82.89,-62.68 -87.14,-61.01 -91.73,-59.28 -96.63,-57.4 -101.54,-55.33 -105.7,-53.11 -107.8,-51.01" fill="none" stroke="rgb(134, 74, 19)" stroke-width="2" stroke-linejoin="round" filter="url(#fuzzy)" /><polyline points="8.38,-84.67 7.04,-84.83 5.45,-84.95 3.53,-85.04 1.42,-85.08 -0.72,-85.07 -2.83,-84.98 -4.87,-84.83 -6.83,-84.6 -8.71,-84.28 -10.53,-83.89 -12.28,-83.41 -13.94,-82.86 -15.53,-82.24 -17.04,-81.53 -18.47,-80.75 -19.82,-79.88 -21.09,-78.92 -22.26,-77.89 -23.31,-76.79 -24.22,-75.64 -25,-74.44 -25.66,-73.21 -26.23,-71.91 -26.79,-70.55 -27.45,-69.1 -28.3,-67.58 -29.37,-65.99 -30.57,-64.35 -31.67,-62.72 -32.41,-61.08 -32.66,-59.4 -32.61,-57.54 -32.66,-55.38 -33.35,-52.94" fill="none" stroke="rgb(134, 74, 19)" stroke-width="2" stroke-linejoin="round" filter="url(#fuzzy)" /><polyline points="6.87,-84.87 5.6,-84.96 3.62,-85.06 1.4,-85.11 -0.85,-85.09 -3.08,-85.01 -5.27,-84.85 -7.48,-84.62 -9.72,-84.3 -12.03,-83.9 -14.4,-83.42 -16.82,-82.86 -19.27,-82.24 -21.75,-81.54 -24.27,-80.75 -26.84,-79.88 -29.46,-78.92 -32.12,-77.88 -34.81,-76.78 -37.48,-75.63 -40.11,-74.43 -42.68,-73.2 -45.23,-71.9 -47.82,-70.54 -50.55,-69.09 -53.47,-67.57 -56.56,-65.98 -59.71,-64.35 -62.81,-62.71 -65.79,-61.08 -68.69,-59.4 -71.52,-57.54 -74.12,-55.38 -77.04,-52.94" fill="none" stroke="rgb(134, 74, 19)" stroke-width="2" stroke-linejoin="round" filter="url(#fuzzy)" /><polyline points="3.38,-85 0.94,-85.2 -1.38,-85.19 -3.7,-85.05 -6,-84.81 -8.26,-84.48 -10.47,-84.08 -12.68,-83.6 -14.94,-83.05 -17.27,-82.43 -19.66,-81.73 -22.08,-80.97 -24.51,-80.13 -26.93,-79.23 -29.34,-78.27 -31.75,-77.26 -34.15,-76.19 -36.5,-75.07 -38.78,-73.87 -40.97,-72.59 -43.07,-71.23 -45.09,-69.79 -47.09,-68.27 -49.13,-66.7 -51.22,-65.05 -53.39,-63.33 -55.61,-61.53 -57.85,-59.66 -60.1,-57.76 -62.39,-55.87 -64.75,-53.99 -67.18,-52.1 -69.64,-50.19 -71.94,-48.41 -72.92,-47.18" fill="none" stroke="rgb(134, 74, 19)" stroke-width="2" stroke-linejoin="round" filter="url(#fuzzy)" /><polyline points="0.98,-85.35 -1.13,-85.21 -3.31,-85.09 -5.41,-84.93 -7.46,-84.7 -9.51,-84.38 -11.6,-83.97 -13.71,-83.48 -15.81,-82.92 -17.9,-82.3 -19.99,-81.61 -22.09,-80.84 -24.22,-79.97 -26.34,-79.01 -28.44,-77.96 -30.51,-76.86 -32.54,-75.71 -34.55,-74.54 -36.57,-73.34 -38.63,-72.09 -40.72,-70.76 -42.8,-69.33 -44.84,-67.81 -46.82,-66.18 -48.79,-64.39 -50.76,-62.46 -52.2,-60.98" fill="none" stroke="rgb(134, 74, 19)" stroke-width="2" stroke-linejoin="round" filter="url(#fuzzy)" /><polyline points="0.98,-85.35 -1.11,-85.21 -3.28,-85.09 -5.36,-84.93 -7.35,-84.7 -9.34,-84.39 -11.36,-83.98 -13.39,-83.49 -15.42,-82.94 -17.43,-82.33 -19.43,-81.65 -21.47,-80.89 -23.58,-80.03 -25.75,-79.08 -27.96,-78.03 -30.15,-76.92 -32.28,-75.78 -34.33,-74.62 -36.35,-73.45 -38.39,-72.23 -40.5,-70.92 -42.65,-69.51 -44.72,-68.06 -46.52,-66.66 -47.9,-65.28" fill="none" stroke="rgb(134, 74, 19)" stroke-width="2" stroke-linejoin="round" filter="url(#fuzzy)" />
    </g>
    
        <g id="pointNose">
          <g id="rightNose"><circle r="1.224" cx="9.338000000000001" cy="30.47" stroke="black" fill="none" stroke-width="1.0" filter="url(#fuzzy)" /><circle r="2.866" cx="9.034" cy="32.018" stroke="black" fill="none" stroke-width="1.0" filter="url(#fuzzy)" /><circle r="1.762" cx="10.786000000000001" cy="30.821999999999996" stroke="black" fill="none" stroke-width="1.0" filter="url(#fuzzy)" /><circle r="2.5060000000000002" cx="10.438" cy="31.65" stroke="black" fill="none" stroke-width="1.0" filter="url(#fuzzy)" /><circle r="2.346" cx="11.654" cy="31.437999999999995" stroke="black" fill="none" stroke-width="1.0" filter="url(#fuzzy)" /><circle r="2.502" cx="9.458" cy="33.342" stroke="black" fill="none" stroke-width="1.0" filter="url(#fuzzy)" /><circle r="2.526" cx="8.386000000000001" cy="30.217999999999996" stroke="black" fill="none" stroke-width="1.0" filter="url(#fuzzy)" /><circle r="2.428" cx="9.298000000000002" cy="30.357999999999997" stroke="black" fill="none" stroke-width="1.0" filter="url(#fuzzy)" /><circle r="1.098" cx="10.802000000000001" cy="31.814" stroke="black" fill="none" stroke-width="1.0" filter="url(#fuzzy)" /><circle r="2.426" cx="11.294" cy="31.546" stroke="black" fill="none" stroke-width="1.0" filter="url(#fuzzy)" /></g>
          <g id="leftNose"><circle r="1.208" cx="-7.8199999999999985" cy="37.135999999999996" stroke="black" fill="none" stroke-width="1.0" filter="url(#fuzzy)" /><circle r="2.9539999999999997" cx="-8.308" cy="38.872" stroke="black" fill="none" stroke-width="1.0" filter="url(#fuzzy)" /><circle r="2.306" cx="-8.867999999999999" cy="38.616" stroke="black" fill="none" stroke-width="1.0" filter="url(#fuzzy)" /><circle r="2.218" cx="-10.787999999999998" cy="38.628" stroke="black" fill="none" stroke-width="1.0" filter="url(#fuzzy)" /><circle r="2.476" cx="-8.239999999999998" cy="38.784" stroke="black" fill="none" stroke-width="1.0" filter="url(#fuzzy)" /><circle r="2.786" cx="-9.604" cy="39.083999999999996" stroke="black" fill="none" stroke-width="1.0" filter="url(#fuzzy)" /><circle r="2.846" cx="-7.747999999999999" cy="36.056" stroke="black" fill="none" stroke-width="1.0" filter="url(#fuzzy)" /><circle r="1.534" cx="-8.219999999999999" cy="36.448" stroke="black" fill="none" stroke-width="1.0" filter="url(#fuzzy)" /><circle r="2.6799999999999997" cx="-8.936" cy="37.98" stroke="black" fill="none" stroke-width="1.0" filter="url(#fuzzy)" /><circle r="2.128" cx="-9.675999999999998" cy="36.348" stroke="black" fill="none" stroke-width="1.0" filter="url(#fuzzy)" /></g>
        </g>
      
    <g id="mouth">
      <polyline points="24.52,54.19 24.49,55.18 24.44,55.19 24.38,55.2 24.13,56.16 24.11,56.36 24.19,56.09 24.04,56.67 24,56.68 23.51,57.68 23.69,57.25 23.09,58.13 22.75,58.65 22.53,58.91 22.71,58.67 22.67,58.77 22.42,58.93 22.31,59.11 21.79,59.5 21.52,59.81 20.77,60.31 21.15,60.12 20.68,60.4 20.16,60.74 19.61,61.06 19.84,60.95 19.7,61.02 18.63,61.53 19.04,61.38 18.17,61.76 18.01,61.81 16.5,62.34 16.87,62.18 17.23,62.11 16.36,62.35 15.34,62.59 15.8,62.5 14.99,62.7 13.47,62.92 13.79,62.89 13.15,62.96 12.77,63.02 11.77,63.07 12.66,63.02 11.08,63.1 10.76,63.1 10.68,63.1 10.37,63.1 9.02,63.04 9.03,63.04 7.96,62.93 7.88,62.92 8.46,62.99 6.92,62.78 6.19,62.65 6.68,62.74 5.75,62.55 5.32,62.45 4.28,62.17 4.04,62.09 4.52,62.24 3.49,61.9 3.49,61.93 3.32,61.84 1.74,61.24 1.63,61.17 1.38,61.05 1.95,61.33 0.43,60.53 0.44,60.52 -0.44,60.03 -0.4,60.02 -0.88,59.72 -0.79,59.78 -1.01,59.62 -2.12,58.82 -1.85,58.98 -1.84,59.04 -2.11,58.79 -2.82,58.12 -2.61,58.35 -3.28,57.66 -3.55,57.21 -3.96,56.74 -3.71,57 -4.28,56.34 -4.21,56.42 -4.39,56.12 -4.59,55.74 -4.96,54.95 -4.85,55.04 -4.92,55.02 -5.21,54.04 -5.2,53.74 -5.19,53.83 -5.4,53.02 -5.24,53.8 -5.32,52.9 -5.32,52.7 -5.35,52.78 -5.39,52.08 -5.21,51.2 -5.28,51.38 -5.28,51.07 -5.12,50.68 -5.13,50.77 -5.14,50.56 -4.85,49.99 -4.85,49.98 -4.44,49.25 -4.21,48.7 -4.44,49.13 -4.19,48.86 -4.07,48.68 -3.34,47.75 -3.04,47.33 -2.92,47.25 -3.14,47.47 -2.55,46.92 -2.09,46.55 -1.83,46.41 -2.19,46.6 -1.61,46.25 -1.48,46.1 -1.25,46.04 0.31,45.19 -0.02,45.35 -0.09,45.4 0.48,45.12 1.51,44.66 0.83,44.94 2.06,44.53 1.59,44.64 2.95,44.23 2.64,44.35 3.14,44.19 4.71,43.86 4.49,43.88 5.01,43.81 5.27,43.76 6.23,43.66 6.1,43.67 5.97,43.69 6.47,43.64 8.11,43.56 8.28,43.56 9.01,43.56 8.66,43.55 10.03,43.61 9.63,43.59 11.31,43.75 10.65,43.67 10.89,43.69 11.97,43.84 12.09,43.85 12.15,43.87 13.66,44.17 13.74,44.18 13.65,44.18 14.68,44.45 14.58,44.41 14.95,44.51 15.22,44.6 17.08,45.3 16.29,44.99 16.47,45.05 17.7,45.56 17.73,45.57 18.52,45.95 19.22,46.35 19.03,46.23 19.85,46.79 19.62,46.66 19.61,46.6 20.15,46.97 21.01,47.67 21.43,48.01 21.17,47.71 21.48,48.04 22.28,48.81 21.93,48.4 22.68,49.27 22.24,48.76 22.64,49.21 23.15,49.85 23.05,49.77 23.3,50.24 23.86,51.1 23.86,51.03 23.96,51.32 24.18,52.1 24.14,51.83 24.28,52.14 24.16,52.04 24.44,52.94 24.49,53.25 24.57,53.75 24.48,53.47 24.61,54.07 24.5,54.47" fill="rgb(150, 102, 204)" stroke="black" stroke-width="3" stroke-linejoin="round" filter="url(#fuzzy)" />
    </g>
  </svg>