<svg xmlns="http://www.w3.org/2000/svg" width="500" height="500" viewBox="-100 -100 200 200"><defs><clipPath id="c"><path d="m30.69-.59-.33-.35-.36-.35-.38-.36-.41-.36-.44-.36-.46-.35-.49-.36-.51-.34-.54-.33-.56-.32-.59-.31-.61-.3-.63-.27-.65-.26-.67-.24-.68-.52-.72-.47-.75-.42-.79-.38-.81-.33-.85-.28-.88-.24-.91-.18-.93-.14-.96-.09-.98-.04h-1l-1.02.05-1.04.08-1.05.13-1.07.16-1.07.2-1.09.24-1.09.26-1.1.3-1.1.32-1.1.34-1.1.37-1.1.38-1.09.41-1.09.41-1.07.43-1.07.44-1.06.45-1.04.46-1.03.45-1.02.46-1 .46-.98.46-.96.45-.95.45-.92.45-.9.43-.89.43-.86.42-.84.4-.81.4-.8.39-.77.37-.75.36-.72.35-.71.34-.68.33-.67.32-.64.3-.63.3-.61.28-.58.27-.58.27-.55.25-.54.24-.52.23-.5.22-.48.21-.47.2-.46.19-.43.18-.42.18-.41.16 2.36 3.01.42.01.44.01h.46l.48-.01.49-.01.51-.02.52-.02.55-.03.56-.04.57-.05.6-.05.61-.07.63-.07.64-.09.67-.09.68-.1.71-.11.72-.12.75-.12.76-.14.78-.16.81-.16.82-.17.85-.19.86-.2.88-.21.9-.23.91-.23.94-.25.94-.25.96-.27.98-.27.98-.29 1-.29 1.01-.29 1.01-.3 1.03-.31 1.03-.3 1.03-.31L2.25 5l1.04-.3 1.04-.3 1.03-.29 1.04-.29 1.02-.27 1.02-.27 1.01-.25 1-.23.99-.22.98-.21.96-.18.94-.16.93-.14.9-.11.89-.09.86-.06.84-.04h.81l.78.02.76.05.73.08.7.11.67.14.64.17.62-.01.61.01.58.02.56.02.54.03.53.03.49.04.48.05.45.04.43.05.41.04.38.04.36.04.33.03.31.02"/></clipPath><clipPath id="b"><path d="m-33.7-.61.3-.21.32-.23.36-.22.38-.23.4-.22.44-.22.46-.22.49-.21.51-.21.55-.2.56-.19.59-.19.62-.17.64-.16.67-.15.64-.32.68-.29.72-.26.76-.23.8-.21.84-.17.87-.15.91-.11.94-.09.97-.05 1-.03h1.03l1.05.02 1.07.06 1.09.07 1.1.1 1.12.12 1.14.14 1.14.16 1.15.18 1.15.2 1.16.21 1.16.22 1.15.24 1.15.24 1.15.26 1.13.26 1.13.27 1.12.27 1.1.28 1.09.28 1.07.28 1.05.28 1.03.28 1.02.28.99.28.97.27.95.27.92.26.9.26.88.25.85.25.83.23.8.23.78.23.76.21.73.21.71.21.68.19.67.19.65.18.62.18.61.17.59.16.57.16.55.15.53.14.51.14.5.13.48.13.46.12.45.11.43.11.41.1-.54 3.48-.36.06-.38.06-.39.05-.41.04-.43.04-.44.03-.45.02-.47.02-.49.01h-.5l-.52-.01-.53-.02-.55-.03-.57-.04-.58-.04-.61-.06-.62-.07-.64-.07-.66-.09-.68-.1-.71-.11-.72-.13-.74-.14-.77-.15-.78-.17-.81-.18-.82-.2-.85-.21-.86-.23-.89-.24-.9-.25-.92-.26-.93-.28-.95-.28-.97-.29-.98-.31-.99-.3-1.01-.32-1.01-.31-1.03-.32-1.03-.32-1.04-.32-1.04-.31-1.05-.31-1.05-.3-1.05-.29-1.04-.28-1.05-.27L-8.8.62-9.84.38l-1.03-.22-1.01-.19-1.01-.18-1-.15-.98-.12-.96-.09-.95-.07-.93-.04h-.91l-.88.02-.87.06-.84.09-.81.12-.79.15h-.74l-.71.01-.71.02-.68.03-.67.04-.65.06-.62.06-.61.07-.59.09-.56.08-.54.1-.52.1-.49.1-.47.1-.45.1"/></clipPath><filter id="a"><feTurbulence baseFrequency=".05" numOctaves="3" result="noise" type="noise"/><feDisplacementMap in="SourceGraphic" in2="noise" scale="2"/></filter></defs><rect width="100%" height="100%" x="-100" y="-100" fill="#BC8F8F"/><path fill="beige" stroke="#000" stroke-linejoin="round" stroke-width="1.667" d="m75.76-.44.02 2.32.02 1.87-.06-.26-.15 3.75.08-.51-.45 1.31-.12 1.95-.09 1.35-.1.6-.4 3v-1.12l-.59 4.2-.1.99.12-1.21.05 1.1-.72 2.33-.47 2.01-.36 1.36.31-.59-.31 1.18-.51 1.32-.69 2.75-.54 1.68-.43.71.46-1.29-.94 2.45-.55 1.74-1.48 3.93.38-.83-.5.89-.49.82-1.4 2.81.35-.41-1.68 2.75-.63 1.09-1.06 1.8 1.24-2.09-.78 1.78-1.46 2.29-.59.99-.88 1.43-1.03 1.44-.49.74-.08-.26-1.35 2.24-.28-.05-1.14 1.81-1.6 1.56v.15l-.61.8-1.54 1.66-.8.68-1.08 1.39.52-1.01-1.8 2.18-1.81 1.54-.31.47.45-.52-.79.72-2.76 2.62.77-.86-1.71 1.07-.95.8-1.3 1.13-.53.29-1.69 1.24-.95.52-1.18 1.01.07-.19-2.27 1.15-1.26 1.08-.96.38.2.1-.99.22-2.35 1.39-2.18.75.2-.24-1.11.62-2.24.85 1.01-.53-2.29 1.16-1.57.36-.61.17-2.01.44-.98.49-1.17.15.49-.07-.24.2-4.04.73-.79.16-1.41.21-1.22.12.29.11-1.27-.12-1.55.36.15-.12-1.9.25-1.93.01-2.22.18.36.01-2.7-.05.36-.17-1.11.03-1.7-.16-1.43-.14-.95-.13-.56-.05-.8-.23-2.68-.03.41-.15-1.58-.15-1.79-.48-2.14-.46.96.29-3.26-.78.28-.07-2.2-.49.89-.04-2.06-.42.29.05-4.21-1.37-.53-.2-1.27-.82.03.22-1.39-.84-2.5-.89.25-.18-.86-.32-1.66-1.09-.06.21-1.25-.73-2.31-1.6.24.44-2-1.57-.51-.5-1.31-.88.04.08-1.71-1.18-.64-.62-3.14-2.1 1.49 1.24-1.19-1.08-1.42-1.54.12.22-2.88-2.53-.39-.42-.75-1.09.43.43-.7-.58-3.18-3.52.59.77-.87-.91-.29-.52-1.95-2.58-.64-1 .18.71-1.65-2.53-.13-.22-.42-.77-1.9-3.01-.14-.3.02.09-1.33-1.57-1.56-3.1.26.41-1.26-2.4.49 1.07-2.04-3.9-.42-1.28.6 1.7-1.38-3.6-.31-.47.81 1.92-1.39-3.77-.43-1.33-1.27-2.74-.42-1.11.44.79-.09-1.04-1.27-3.33.03.02-.51-1.57.1-.17-.86-3.67.33.41-.55-2.47-.16-.59-.08-.61-.39-2.54-.05-.05-.25-1.82-.08.05-.54-4.83.05 1.8-.07-2.4.16-.32-.25-3.72v.24l-.25-2.33.01-1.23.32-1.59-.12-.63.17-.9-.36.08.44-1.65-.09-2.96.21-2.86.46-1.23-.23.57.26-2.22-.29 1.72 1.09-4.81.05-.6.11-.94.1-1.78.23.11.34-2.34.15-.49 1.16-3.8-.39 1.18.27-.53.99-3.04.02-.26.66-1.88.12-1.16.95-2.12.38-.26.32-1.4.39-.56 1.39-3.75-.4.85 1.29-1.75-.85 1.18 2.13-4.45.22-.53.22-.34 1.28-1.79.56-.8-.53.67 1.31-1.97.1-.74h.28l1.53-2.2 1.38-1.49 1.45-2.19-1.37 1.29 1.08-1.11 1.47-1.77 1.59-1.96.29-.44.66-.66 1.71-1.77.53-.64 1.09-.92 1.46-1.55.38-.35.39-.2 1.35-1.33 1.37-1.02-.04-.25 1.03-.79.67-.69 1.99-1.37.03.18 1.94-1.51-.56.48 2.3-1.63 2.9-1.8-.12.09 1.56-.87.51-.06 1.05-.73-.9.47 2.36-1.2.56-.33.61-.02 1.86-.76.8-.78-.11.38 2.45-1.05 1.07-.56 1.41-.24.9-.59 1.44-.23.77-.12 1.65-.63 1.62-.43-.36-.02 2.59-.59 1.45-.06-.87.11 1.54-.35 3.46-.44-.68.29 1.98-.1.75-.21 2.22-.08.92-.15 1.14-.1.99.19.03-.25 2.35.36.79-.09.36-.18 1.08.25 1.94.31.06-.22 3.21.59 1.55.21.13.1 2.63.26-1.36-.27.92.09 2.85 1.05-.16-.22 1.35.34 2.15.63.99.2.11.17 3.53 1.1-.56.03 2.32.78-.11-.14 2.36 1.17.62.18.44.33 1.48.93.93.1 1.83 1.16-.63-.27.64.24 1.79 1.1 1.76.89 1.13.93-.37-.12 1.43.65 1.92 1.35.08.62 1.55.94 1.58.97 1 1.1 1.91 1.81-1.32-1.26 2.8 2.53-1.22-1.02 1.75 1.77.17-.05 2.74 3.09-.68-.74 1.32 1.63 1.89 2.05-.29-.57.63.96.75.91L57.99-55l-.24-.3 1.76 2.59.02-.12.54.76 1.68 2.75-.57-1.01 1.97 3.5.27-.02-.17-.04 1.06 1.73.77 1.31.57 1.64.45.86 1.41 2.56.12.9.99 2.36-.62-1.95 1.47 3.34-.63-.97 1.15 2.8.51.82.66 2.3.51 1.21-.42-.44.44 1.34.57 1.45.68 2.06.49 2.21.01.87-.1.06.73 1.92.34 2.88-.3-1.99v.56l.86 4.45.24 2.12v.94l-.19-.78.52 3.29-.11 2.11.26-.05-.17.99-.03 1.64.21 2 .06-.09.02 2.32" filter="url(#a)"/><path fill="#fff" d="m-33.7-.61.3-.21.32-.23.36-.22.38-.23.4-.22.44-.22.46-.22.49-.21.51-.21.55-.2.56-.19.59-.19.62-.17.64-.16.67-.15.64-.32.68-.29.72-.26.76-.23.8-.21.84-.17.87-.15.91-.11.94-.09.97-.05 1-.03h1.03l1.05.02 1.07.06 1.09.07 1.1.1 1.12.12 1.14.14 1.14.16 1.15.18 1.15.2 1.16.21 1.16.22 1.15.24 1.15.24 1.15.26 1.13.26 1.13.27 1.12.27 1.1.28 1.09.28 1.07.28 1.05.28 1.03.28 1.02.28.99.28.97.27.95.27.92.26.9.26.88.25.85.25.83.23.8.23.78.23.76.21.73.21.71.21.68.19.67.19.65.18.62.18.61.17.59.16.57.16.55.15.53.14.51.14.5.13.48.13.46.12.45.11.43.11.41.1-.54 3.48-.36.06-.38.06-.39.05-.41.04-.43.04-.44.03-.45.02-.47.02-.49.01h-.5l-.52-.01-.53-.02-.55-.03-.57-.04-.58-.04-.61-.06-.62-.07-.64-.07-.66-.09-.68-.1-.71-.11-.72-.13-.74-.14-.77-.15-.78-.17-.81-.18-.82-.2-.85-.21-.86-.23-.89-.24-.9-.25-.92-.26-.93-.28-.95-.28-.97-.29-.98-.31-.99-.3-1.01-.32-1.01-.31-1.03-.32-1.03-.32-1.04-.32-1.04-.31-1.05-.31-1.05-.3-1.05-.29-1.04-.28-1.05-.27L-8.8.62-9.84.38l-1.03-.22-1.01-.19-1.01-.18-1-.15-.98-.12-.96-.09-.95-.07-.93-.04h-.91l-.88.02-.87.06-.84.09-.81.12-.79.15h-.74l-.71.01-.71.02-.68.03-.67.04-.65.06-.62.06-.61.07-.59.09-.56.08-.54.1-.52.1-.49.1-.47.1-.45.1" filter="url(#a)" transform="translate(45.19 -26.62)"/><path fill="#fff" d="m30.69-.59-.33-.35-.36-.35-.38-.36-.41-.36-.44-.36-.46-.35-.49-.36-.51-.34-.54-.33-.56-.32-.59-.31-.61-.3-.63-.27-.65-.26-.67-.24-.68-.52-.72-.47-.75-.42-.79-.38-.81-.33-.85-.28-.88-.24-.91-.18-.93-.14-.96-.09-.98-.04h-1l-1.02.05-1.04.08-1.05.13-1.07.16-1.07.2-1.09.24-1.09.26-1.1.3-1.1.32-1.1.34-1.1.37-1.1.38-1.09.41-1.09.41-1.07.43-1.07.44-1.06.45-1.04.46-1.03.45-1.02.46-1 .46-.98.46-.96.45-.95.45-.92.45-.9.43-.89.43-.86.42-.84.4-.81.4-.8.39-.77.37-.75.36-.72.35-.71.34-.68.33-.67.32-.64.3-.63.3-.61.28-.58.27-.58.27-.55.25-.54.24-.52.23-.5.22-.48.21-.47.2-.46.19-.43.18-.42.18-.41.16 2.36 3.01.42.01.44.01h.46l.48-.01.49-.01.51-.02.52-.02.55-.03.56-.04.57-.05.6-.05.61-.07.63-.07.64-.09.67-.09.68-.1.71-.11.72-.12.75-.12.76-.14.78-.16.81-.16.82-.17.85-.19.86-.2.88-.21.9-.23.91-.23.94-.25.94-.25.96-.27.98-.27.98-.29 1-.29 1.01-.29 1.01-.3 1.03-.31 1.03-.3 1.03-.31L2.25 5l1.04-.3 1.04-.3 1.03-.29 1.04-.29 1.02-.27 1.02-.27 1.01-.25 1-.23.99-.22.98-.21.96-.18.94-.16.93-.14.9-.11.89-.09.86-.06.84-.04h.81l.78.02.76.05.73.08.7.11.67.14.64.17.62-.01.61.01.58.02.56.02.54.03.53.03.49.04.48.05.45.04.43.05.41.04.38.04.36.04.33.03.31.02" filter="url(#a)" transform="translate(-33.39 -23.4)"/><g fill="none" stroke="#000" transform="translate(45.19 -26.62)"><path stroke-linejoin="round" stroke-width="1.667" d="m-35.23.8.04-.04.07-.07.08-.1.12-.12.14-.14.16-.16.19-.18.22-.19.24-.2.27-.21.3-.21.32-.23.36-.22.38-.23.4-.22.44-.22.46-.22.49-.21.51-.21.55-.2.56-.19.59-.19.62-.17.64-.16.67-.15.64-.32.68-.29.72-.26.76-.23.8-.21.84-.17.87-.15.91-.11.94-.09.97-.05 1-.03h1.03l1.05.02 1.07.06 1.09.07 1.1.1 1.12.12 1.14.14 1.14.16 1.15.18 1.15.2 1.16.21 1.16.22 1.15.24 1.15.24 1.15.26 1.13.26 1.13.27 1.12.27 1.1.28 1.09.28 1.07.28 1.05.28 1.03.28 1.02.28.99.28.97.27.95.27.92.26.9.26.88.25.85.25.83.23.8.23.78.23.76.21.73.21.71.21.68.19.67.19.65.18.62.18.61.17.59.16.57.16.55.15.53.14.51.14.5.13.48.13.46.12.45.11.43.11.41.1.4.1.38.1.37.09.35.08.34.08.33.08.31.08.3.06.29.07.28.06" filter="url(#a)"/><path stroke-linejoin="round" stroke-width="2.222" d="m-34.71 1.24.15.03h.19l.22-.02.24-.04.28-.05.31-.07.33-.08.37-.09.39-.1.41-.1.45-.1.47-.1.49-.1.52-.1.54-.1.56-.08.59-.09.61-.07.62-.06.65-.06.67-.04.68-.03.71-.02.71-.01h.74l.79-.15.81-.12.84-.09.87-.06.88-.02h.91l.93.04.95.07.96.09.98.12 1 .15 1.01.18 1.01.19 1.03.22 1.04.24 1.04.25 1.05.27 1.04.28 1.05.29 1.05.3 1.05.31 1.04.31 1.04.32 1.03.32 1.03.32 1.01.31 1.01.32.99.3.98.31.97.29.95.28.93.28.92.26.9.25.89.24.86.23.85.21.82.2.81.18.78.17.77.15.74.14.72.13.71.11.68.1.66.09.64.07.62.07.61.06.58.04.57.04.55.03.53.02.52.01h.5l.49-.01.47-.02.45-.02.44-.03.43-.04.41-.04.39-.05.38-.06.36-.06.35-.06.34-.07.32-.07.31-.07.3-.08.29-.08.27-.08.26-.08.25-.09.24-.08" filter="url(#a)"/><circle cx="20.367" cy="6.244" r="3.594" clip-path="url(#b)" filter="url(#a)"/><circle cx="24.247" cy="6.934" r="3.742" clip-path="url(#b)" filter="url(#a)"/><circle cx="21.692" cy="7.389" r="4.378" clip-path="url(#b)" filter="url(#a)"/><circle cx="21.247" cy="5.634" r="3.112" clip-path="url(#b)" filter="url(#a)"/><circle cx="22.732" cy="3.169" r="3.616" clip-path="url(#b)" filter="url(#a)"/><circle cx="21.642" cy="4.044" r="3.694" clip-path="url(#b)" filter="url(#a)"/><circle cx="21.472" cy="3.009" r="3.232" clip-path="url(#b)" filter="url(#a)"/><circle cx="22.632" cy="3.349" r="4.54" clip-path="url(#b)" filter="url(#a)"/><circle cx="21.657" cy="7.624" r="4.344" clip-path="url(#b)" filter="url(#a)"/><circle cx="20.987" cy="7.434" r="3.946" clip-path="url(#b)" filter="url(#a)"/></g><g fill="none" stroke="#000" transform="translate(-33.39 -23.4)"><path stroke-linejoin="round" stroke-width="2.222" d="m32.43 1.59-.05-.04-.07-.1-.11-.15-.13-.18-.16-.22-.19-.26-.21-.27-.25-.31-.27-.32-.3-.33-.33-.35-.36-.35-.38-.36-.41-.36-.44-.36-.46-.35-.49-.36-.51-.34-.54-.33-.56-.32-.59-.31-.61-.3-.63-.27-.65-.26-.67-.24-.68-.52-.72-.47-.75-.42-.79-.38-.81-.33-.85-.28-.88-.24-.91-.18-.93-.14-.96-.09-.98-.04h-1l-1.02.05-1.04.08-1.05.13-1.07.16-1.07.2-1.09.24-1.09.26-1.1.3-1.1.32-1.1.34-1.1.37-1.1.38-1.09.41-1.09.41-1.07.43-1.07.44-1.06.45-1.04.46-1.03.45-1.02.46-1 .46-.98.46-.96.45-.95.45-.92.45-.9.43-.89.43-.86.42-.84.4-.81.4-.8.39-.77.37-.75.36-.72.35-.71.34-.68.33-.67.32-.64.3-.63.3-.61.28-.58.27-.58.27-.55.25-.54.24-.52.23-.5.22-.48.21-.47.2-.46.19-.43.18-.42.18-.41.16-.39.16-.38.15-.36.14-.35.14-.33.12-.33.13-.3.11-.3.11-.29.1-.27.1" filter="url(#a)"/><path stroke-linejoin="round" stroke-width="2.222" d="m32.52 1.76-.04.22-.06.18-.1.14-.12.11-.15.09-.17.06-.21.04-.23.02h-.25l-.28-.01-.31-.02-.33-.03-.36-.04-.38-.04-.41-.04-.43-.05-.45-.04-.48-.05-.49-.04-.53-.03-.54-.03-.56-.02-.58-.02-.61-.01-.62.01-.64-.17-.67-.14-.7-.11-.73-.08-.76-.05-.78-.02h-.81l-.84.04-.86.06-.89.09-.9.11-.93.14-.94.16-.96.18-.98.21-.99.22-1 .23-1.01.25-1.02.27-1.02.27-1.04.29-1.03.29-1.04.3-1.04.3-1.03.3-1.03.31-1.03.3-1.03.31-1.01.3-1.01.29-1 .29-.98.29-.98.27-.96.27-.94.25-.94.25-.91.23-.9.23-.88.21-.86.2-.85.19-.82.17-.81.16-.78.16-.76.14-.75.12-.72.12-.71.11-.68.1-.67.09-.64.09-.63.07-.61.07-.6.05-.57.05-.56.04-.55.03-.52.02-.51.02-.49.01-.48.01h-.46l-.44-.01-.42-.01-.41-.02-.39-.02-.38-.03-.36-.03-.35-.03-.33-.03-.32-.04-.3-.04-.29-.05-.28-.04" filter="url(#a)"/><circle cx="-15.233" cy="4.107" r="4.816" clip-path="url(#c)" filter="url(#a)"/><circle cx="-16.038" cy="2.632" r="3.622" clip-path="url(#c)" filter="url(#a)"/><circle cx="-15.233" cy="5.202" r="4.54" clip-path="url(#c)" filter="url(#a)"/><circle cx="-15.508" cy="4.062" r="3.486" clip-path="url(#c)" filter="url(#a)"/><circle cx="-14.798" cy="3.112" r="3.978" clip-path="url(#c)" filter="url(#a)"/><circle cx="-17.548" cy="1.697" r="4.846" clip-path="url(#c)" filter="url(#a)"/><circle cx="-13.388" cy="1.517" r="4.228" clip-path="url(#c)" filter="url(#a)"/><circle cx="-14.263" cy="3.292" r="3.646" clip-path="url(#c)" filter="url(#a)"/><circle cx="-13.048" cy="1.362" r="3.228" clip-path="url(#c)" filter="url(#a)"/><circle cx="-13.073" cy=".932" r="3.688" clip-path="url(#c)" filter="url(#a)"/></g><g fill="none" stroke="#D8D8D8" stroke-linejoin="round" stroke-width="2"><path d="m33.41-76.65 1.04.56 1.45.91 1.47 1 1.39 1.02 1.34 1.04 1.37 1.09 1.41 1.15 1.43 1.18 1.39 1.18 1.31 1.11 1.17 1.02 1 .88.79.7.57.52.36.31.14.1-.09-.13-.34-.38-.59-.62-.66-.7m5.63 5.97.67.93.74.95.67.87.54.74.37.6.19.44v.26l-.21.07-.46-.18-.71-.44-1-.75-1.3-1.06-1.63-1.36-1.96-1.68-2.33-2.01-2.67-2.38-2.98-2.76-3.33-3.19-3.84-3.73" filter="url(#a)"/><path d="m49.31-64.9-.28-.16.6.64.85.89.85.92.75.84.59.69.4.49.19.3-.05.08-.27-.12-.52-.33-.79-.56-1.06-.81-1.38-1.09-1.72-1.39-2.13-1.75-2.56-2.12-2.95-2.48-3.07-2.74m-59.46-8 1.28-.32 1.32-.37 1.42-.36 1.5-.37 1.52-.36 1.51-.35 1.44-.31 1.35-.27 1.21-.22 1.05-.18.86-.13.64-.09.36-.05h.01l-.37.03-.78.09-1.11.13-1.33.15m11.04-.77.78-.02 1.39.18 1.54.27 1.68.36 1.89.46 2.11.55 2.27.61 2.34.65 2.3.64 2.19.62 2.04.59 1.9.57 1.79.54 1.72.52 1.62.5 1.48.44 1.26.36.95.23.7.16.71.23m32.77 34.68.33 1.1-.25 1.03-1.05.54-1.86.01-2.64-.45-3.41-.79-4.16-1.06-4.95-1.35-5.75-1.68-6.6-2.1-7.47-2.59-8.39-3.09-9.35-3.53-10.36-3.87-11.56-4.11-13.03-4.25" filter="url(#a)"/><path d="m41.79-70.99 1.32.89.9.87.4.74-.13.55-.62.37-1.05.24-1.46.18-1.85.13-2.27.1-2.72.04-3.23-.07-3.76-.2-4.34-.36-4.94-.54-5.54-.71-6.15-.87-6.73-1.02-7.29-1.2-7.84-1.42-8.39-1.68" filter="url(#a)"/><path d="m39.79-72.96 1.42 1.17 1.28 1.18 1.45 1.32 1.55 1.43 1.54 1.48 1.45 1.45 1.34 1.38 1.24 1.3 1.16 1.23 1.1 1.15 1.02 1.06.89.92.71.72.46.44.14.09-.27-.36M29.8-78.57l1.1.66.56.47-.01.38-.5.34-.9.36-1.29.39-1.77.39-2.33.36-2.93.31-3.57.27-4.18.23-4.82.18-5.47.1H-2.5l-7.01-.1-7.95-.19-9.08-.21m6.15-7.8 1.4-.2 1.73-.21 2.06-.22 2.31-.18 2.52-.12 2.67-.06h2.8l2.88.03 2.92.05 2.93.05 2.82.05 2.65.03 2.42.02 2.1-.01 1.65-.06" filter="url(#a)"/><path d="m57.99-55 .23.42.42.78.28.7.09.61-.11.5-.34.35-.62.16-.92-.04-1.24-.24-1.54-.4-1.85-.56-2.17-.74-2.5-.95-2.86-1.2-3.25-1.52-3.67-1.85-4.1-2.18-4.54-2.5-5.02-2.78-5.52-3.04-6.02-3.31-6.51-3.64-6.8-4.08m27.06.4.62.26 1.18.59 1.24.67 1.25.71 1.27.74 1.27.73 1.22.72 1.2.71 1.17.72 1.15.7 1.07.67.94.58.76.48.55.33.31.19.08.04-.17-.13-.42-.3-.68-.47-.99-.69-1.45-1.01" filter="url(#a)"/><path d="m66.1-41.35.95 1.91.54 1.26.32.78.18.47.07.25-.05.08-.21-.17-.4-.53-.66-1-.96-1.59-1.29-2.22-1.64-2.86-1.99-3.5-2.44-4.23" filter="url(#a)"/><path d="m67.63-37.89.2 1.02-.75.14-1.49-.07-2.25-.25-3.03-.51-3.89-.87-4.81-1.34-5.76-1.87-6.73-2.41-7.67-2.91-8.6-3.35-9.57-3.83L2.66-58.5l-11.79-4.94-13.12-5.47" filter="url(#a)"/><path d="m59.53-52.83.36 1.01-.35.92-1.23.61-2.13.32-3.07.03-4.01-.22-4.95-.41-5.91-.58-6.89-.76-7.93-1.01-8.99-1.3-10.1-1.66-11.26-2.04-12.47-2.41-13.7-2.7M3.75-85.51l1.29.26 1.56.27 1.76.32 1.88.37 1.84.38 1.72.38 1.58.37 1.49.38 1.45.39 1.41.39 1.37.39 1.26.35 1.11.3.88.23.61.15.3.05-.06-.05-.48-.2-1.06-.41m-62.7 7.96.65-.19 2.06-.78 2.56-.74 2.77-.52 2.94-.31 3.15-.17 3.4-.08 3.67-.06 3.96-.07 4.23-.07 4.46-.08 4.65-.08 4.81-.06 4.93-.04 5.01-.03 5-.04 4.82-.1 4.63-.1m-46.84-6.03 1.63-.45 1.75-.2 2.02-.01 2.32.12 2.58.24 2.82.32 3.04.37 3.23.42 3.35.46 3.43.48 3.46.51 3.46.53 3.38.53 3.22.51 3 .47 2.86.48 3.02.62" filter="url(#a)"/><path d="m-1.91-85.44 1.01-.03.93.02.96.03.98.03.94.04.88.05.84.08.78.1.67.11.49.12.23.12-.11.11-.5.09-.88.09-1.24.09-1.59.1-1.94.1-2.28.1-2.67.09-3.16.08-3.71.08m-14.94 3.85 1.95-.82 1.57-.61 1.42-.49 1.33-.42 1.25-.38 1.15-.34.99-.29.77-.23.48-.13.15-.01-.25.1-.67.23-1.11.35-1.58.48-2.18.65M66.1-41.35l.8 1.9.07 1.16-.44.68-.85.41-1.25.3-1.64.25-2.06.19-2.5.07-2.98-.1-3.48-.31-3.97-.51-4.47-.68-4.96-.84-5.46-1-5.97-1.19-6.52-1.42-7.07-1.67-7.62-1.92-8.2-2.16-8.77-2.37-9.39-2.52-10.01-2.59-10.68-2.66" filter="url(#a)"/><path d="m-7.78-84.9 1.68-.09 1.64-.05 1.69.02 1.7.08 1.68.15 1.7.2 1.74.24 1.77.27 1.81.29 1.82.3 1.85.33 1.85.33 1.85.34 1.77.33 1.64.31 1.44.26 1.21.2.95.16.72.09.51.06.27-.01-.01-.08-.48-.23m-54.42 3.65.06-.02.78-.37.86-.36.78-.32.7-.24.6-.19.5-.1.38-.01.24.11.05.25-.17.41-.44.58-.72.77-1.04.98-1.36 1.19-1.71 1.44-2.08 1.69-2.47 1.97-2.85 2.23-3.19 2.45-3.49 2.63-3.81 2.81-4.38 3.24m97.5-13.44 1.33.97 1.03.92.73.7.49.5.3.38.18.31.06.24-.09.17-.29.05-.56-.13-.87-.36-1.23-.62-1.63-.92-2.04-1.2-2.49-1.5-2.94-1.8-3.43-2.11-3.94-2.45-4.52-2.81m32.19 21.93.73.99.42.87.01.69-.39.54-.78.4-1.17.27-1.6.13-2.04-.03-2.51-.22-3.02-.42-3.53-.61-4.05-.77-4.56-.94-5.08-1.1-5.63-1.3-6.21-1.55-6.8-1.84L2-64.85l-7.96-2.53-8.47-2.87-8.98-3.19" filter="url(#a)"/><path d="m-34.52-76.09 1.44-.55 1.62-.27 2.01-.14 2.54-.07 3.09-.05 3.58-.02h4.01l4.33.02 4.62.03 4.87.04 5.1.07 5.29.1 5.44.16 5.49.21 5.4.2 5.1.09m34.01 29.42.17.45.42.87.37.9.22.74.03.51-.22.18-.5-.26-.85-.75-1.22-1.27-1.62-1.78-2-2.25-2.4-2.72L53-55.46l-3.24-3.79-3.66-4.39-4-5.01M24.17-80.89l1.69.62 1.47.68 1.55.82 1.61.91 1.63.95 1.65.99 1.63.98 1.55.94 1.43.88 1.27.77 1.07.62.75.41.33.15-.08-.13" filter="url(#a)"/><path d="m.22-85.35.6-.06.87.09.66.15.45.22.32.31.19.41.01.51-.23.59-.56.68-.96.77-1.37.85-1.77.97-2.15 1.09-2.52 1.23-2.9 1.38-3.3 1.54-3.74 1.72-4.22 1.88-4.73 2.07-5.27 2.25-5.87 2.49-6.55 2.79-7.3 3.11" filter="url(#a)"/><path d="m-26.91-79.59.87-.42 1.5-.23 2.13-.2 2.56-.14 2.87-.04 3.13.07 3.35.17 3.55.23 3.7.27 3.8.29 3.88.33 3.91.36 3.94.39 3.96.43 3.97.47 3.96.48 3.77.43 3.34.27" filter="url(#a)"/><path d="m59.51-52.71.15.21.27.61.13.62-.16.42-.49.13-.87-.17-1.25-.47-1.63-.72-2.02-.97-2.41-1.24-2.84-1.57-3.33-1.96-3.9-2.42-4.56-2.94-5.26-3.48-5.97-4-6.61-4.46-7.22-4.91m-40.92 1.22.94-.26 1.13-.47 1.14-.49 1.18-.49 1.24-.48 1.24-.46 1.16-.41 1.04-.35.9-.29.71-.21.51-.14.27-.05.02.05-.27.16-.57.27-.85.39-1.17.5-1.49.61-1.88.72-2.3.85-2.65.93M-43-70.53l1.41-.92 1.08-.7 1.1-.72 1.2-.79 1.29-.83 1.22-.78 1.02-.62.7-.41.34-.18-.04.05-.38.27-.7.48-.97.65-1.29.86-1.7 1.1-2.24 1.43m39.05-13.8.84.02.43.17.12.3-.2.44-.6.6-1.05.77-1.5.97-1.96 1.18-2.47 1.41-3.07 1.66-3.78 1.91-4.59 2.18-5.46 2.46-6.32 2.74-7.09 3.05-7.85 3.44" filter="url(#a)"/><path d="m-10.56-84.75 2.27-.17 1.61.04 1.73.1 1.97.12 2.13.16 2.2.2 2.2.25 2.2.29 2.21.32 2.2.34 2.15.35 2.09.33 1.99.32 1.87.29 1.71.25 1.47.21 1.19.15.91.12m39.61 34.25.18.08.25.45.33.73.3.81.18.75.02.58-.18.32-.43.01-.68-.34-.95-.69-1.21-1-1.47-1.28-1.74-1.57-2.02-1.87-2.31-2.22-2.63-2.63-2.98-3.07-3.36-3.51-3.72-3.93-4.08-4.36-4.61-4.89" filter="url(#a)"/><path d="m33.41-76.65.9.47 1.03.65.76.58.37.46.04.34-.24.29-.53.23-.84.17-1.21.09-1.65-.03-2.16-.2-2.71-.39-3.3-.59-3.89-.8-4.46-.97-4.99-1.14-5.52-1.28-6.13-1.45-6.84-1.65" filter="url(#a)"/><path d="m41.71-71.61.55.69 1.02.83 1.06.85.87.75.62.59.38.43.18.28-.01.18-.16.09-.35-.02-.58-.15-.85-.34-1.17-.56-1.55-.83-1.96-1.12-2.38-1.41-2.84-1.7-3.29-1.99-3.76-2.29-4.3-2.6" filter="url(#a)"/><path d="m33.41-76.65.99.5 1.29.74 1.2.73 1.01.64.87.59.78.56.72.56.63.52.51.47.32.37.09.23-.19.05-.5-.14-.82-.33-1.11-.51-1.42-.68-1.74-.84-2.09-1.05-2.48-1.26-2.92-1.52-3.39-1.79-4-2.12M6.83-85.17l2.37.43 1.38.26.78.18.4.16.12.19-.08.24-.27.3-.5.36-.78.4-1.11.44-1.49.47-1.91.51-2.37.54-2.84.55-3.36.56-3.88.57-4.37.55-4.87.54-5.41.52-6.09.56" filter="url(#a)"/><path d="m-18.18-82.78 1.56-.48 1.52-.26 1.63-.12 1.8-.02 1.97.08 2.12.14 2.28.19 2.4.23 2.48.25 2.53.27 2.54.28 2.51.29 2.46.3 2.39.31 2.3.32 2.18.32 2.08.3 1.97.3 1.89.3 1.77.29 1.6.26 1.36.18 1.12.08m5.76 2.59-.05.01.78.46 1.18.7 1.22.75 1.09.7.94.63.81.55.68.5.53.4.33.29.05.11-.3-.12-.7-.39-1.1-.67-1.44-.93-1.77-1.16L34.07-76m13.76 9.83-.18-.2.55.52.67.66.73.75.75.8.71.77.6.69.42.53.22.34v.14l-.22-.06-.45-.26-.68-.44-.93-.65-1.21-.89-1.53-1.15-1.86-1.44-2.16-1.72-2.43-1.98-2.7-2.27-3.14-2.64" filter="url(#a)"/><path d="m49.84-64.15.75.7.98 1.07.86.97.73.84.59.69.44.55.28.4.11.28-.05.14-.24-.02-.46-.19-.69-.4-.96-.63-1.24-.88-1.54-1.14-1.84-1.44-2.14-1.74-2.46-2.07-2.84-2.4-3.26-2.77-3.67-3.16m-67.71-.74 1.27-.61 1.09-.43 1.13-.41 1.33-.44 1.55-.48 1.75-.52 1.88-.54 1.97-.55 1.99-.56 2-.57 1.98-.57 1.94-.55 1.88-.52 1.77-.48 1.64-.43 1.47-.38 1.29-.34 1.06-.29.82-.23.5-.16.02-.06" filter="url(#a)"/><path d="m-11.23-84.51.09-.04 1.14-.17 1.36-.15 1.25-.11 1.09-.08.92-.06.72-.05.45-.01.14.03-.2.08-.56.15-.94.21-1.35.28-1.82.35-2.31.43-2.83.5-3.36.56M.25-85.6l1.64.2.9.06.59.08.44.13.29.21.09.25-.26.31-.71.34-1.29.38-1.91.43-2.54.49-3.11.57-3.64.66-4.23.72-4.87.78-5.51.77m87.29 32.37.05.4.07.75-.22.69-.6.49-1.04.23-1.51-.14-2.03-.55-2.6-1-3.17-1.44-3.76-1.83-4.35-2.18-4.95-2.52-5.59-2.9-6.27-3.32-6.97-3.8-7.64-4.33-8.3-4.82-9.15-5.24" filter="url(#a)"/><path d="m60.07-52.07.8 1.61-.04.88-.62.6-1.22.33-1.81.13-2.4-.02-2.98-.15-3.59-.31-4.23-.53-4.94-.8-5.71-1.11-6.54-1.45-7.42-1.74-8.29-2.01-9.12-2.23-9.89-2.5-10.66-2.8-11.54-3.12m18.9-17.22 36.12 10.42 10.76 4.1-3.3.77-9.91-1.01-10.95-1.58-8.96-1.37-5.51-.72-1.44.16 2.24 1 4.57 1.62 5.12 1.86 4.23 1.56 2.57.56.68-.88-.87-2.1-2.23-2.5-5.2-2.31-8.07-2.78 15.73-6.3" filter="url(#a)"/><path d="M63.25-46.89 4.43-65.68l-17.94-6.25-.88-.5 7.6.36 8.87-.59 5.39-1.3.35-1.21-3.86-.72-5.97-.32-5.61-.13-3.25.21.21 1.01 3.88 2.19 6.79 3.16 8.01 3.3 7.36 2.54 7 1.63 10.43 1.72 16.06 4.54 18.64 17.25" filter="url(#a)"/><path d="m16.6-83.36 19.16 10.57 4.31 5.43-7.1 3.51-13.05 1.89-11.69.55-6.32-.11-1.22-.25 1.88-.29 3.42-.53 4.22-.97 4.54-1.5 4.28-1.86 3.67-1.82 3.12-1.29 2.76-.48 1.99.07-.19-.21-4.09-1.37-8.31-2.63-10.02-2.7-7.17-1.11-4.11.43-26.06-.78" filter="url(#a)"/><path d="M68.84-35.11 11.6-58.86l-6.58-1.83 7.96-.1 3.25-2.47-4.47-3.21-7.32-2.04-4.15-.01 2.02 1.99 7.04 3.36 7.89 3.58 4.26 2.18-1.24-.54-4.15-3.01-1.17-2.9 5.73.53 6.35 4.01-14.79 1.8-67.71-.44" filter="url(#a)"/><path d="M48.09-65.92 8.17-62.47l.57-2.29 2.2-2.42.61-.62-.92-.18-2.13-.85-2.08-1.44-.58-1.34 1.54-.59 3.12.53 3.64 1.63 3.37 2.43 3.01 2.76 3.3 2.65 4.39 2.17 5.47 1.18 4.92-.28 2.09-1.35-.59-.46-1.46-.09-20.69-21.99" filter="url(#a)"/><path d="m-39.04-73.23 7.44 6.31 24.13-4.6 15.84-4.09 5.44-2.66-.94-1.58-3.09-.46-2.26.72.21 1.6 2.82 1.9 4.04 1.63 2.9 1.03-.56.46-5.33.12-9.72.09-11.9.16-10.54-.03-5.58-.81 1.39-2.03 8.32-2.72 15.66-1.34 34.18 2.88" filter="url(#a)"/><path d="m26.49-80.11 11.33 10.38 1.79 6.31-1.42 7.1-3.99 4.44-2.73.3.6-2.87 2.79-4.13 2.35-3.72-.27-2.66-4.06-2-7.6-2.01-9.05-1.8-7.36.41-3.53 5.76 5.7 13.03 58.95 19.26" filter="url(#a)"/><path d="m-29.94-78.48 37.41 8.84 1.38 8.65-11.52 2.23-3.44-.34 8.41-.53 13.65-.46 10.99-1 4.2-1.83-2.29-2.25-5.94-1.91-6.82-1.27-6.4-1.11-5.3-1.56-1.96-1.56 5.69.28 16.07 4.38L46.6-56.56l25.07 28.58" filter="url(#a)"/><path d="m55.62-57.78-28.88-16.8-14.18-5.68-1.1.92 7 4.94 8 6.53 4.27 5.9.35 3.75-.8 1.13.46-1.22 1.91-2.83 2.68-3.08 4.21-1.23 6.86 2.14 6.35 3.18v-.98" filter="url(#a)"/><path d="M-21.29-81.84-37.1-70.8l.27-.59 5.08-1.27 9.83.09 13.41 1.22 13.64 1.44 10.7.8 6.37-.2 2.14-1.01-1.52-1.32-4.72-1.14-7.36-.71-8.62-.45-6.97-.72-1.63-1.61 5.36-2.51 9.41-2.15 9.81.71 21.69 7.26" filter="url(#a)"/><path d="m-28.77-78.83 24.46-1.05-4.39 5.1-9.35 6.28 1.02 5.01 12.13 3.3 16.2 1.56 13.45.06 7.45-.88.57-1.15-6.92-1.12-14.64-1.23-19.98-1.56-18.99-1.89-11.12-1.73-4.24.75-14.91 12.3" filter="url(#a)"/><path d="m32.21-77.54 9.34 9.8-1.48 9.99-14.81 2.53-17.01-3.9-10.16-5.99-1.2-4.47 4.62-1.66 5.2.2 1.38-.08-3.9-1.96-7.29-3.48-6.79-2.74-1.48.39 12.49 4.67 48.72 10.09" filter="url(#a)"/><path d="M34.04-76.38 1.93-74.91l-15.31 3.29 3.39-.7 8.62-2.09 5.71-.95 2.51 1.38 2.9 3.59 6.16 4.71 8.73 4.04 6.56 1.43-1.71-2.39-12.71-5.15-19.09-4.17-11.16-1.03L16.6-83.36" filter="url(#a)"/><path d="M67.63-37.89 36.15-66.18 20.32-76.57l-4.33-1.32 1.6 3.81 1.61 5.51-.24 4-.07.9 2.16-1.67 3.15-2.72-.13-2.71-7.04-2.41-12.69-1.37-9.86 2.44L4.52-60.86l64.1 25.33" filter="url(#a)"/><path d="m-34.4-76.18-8.83 7.92 2.32.32 8.74-1.78 11.48-2.62 9.6-2.15 6.32-.55 5.11 1.5 6.37 3.28 7.26 4.2 4.59 3.73-1.3 1.2-4.9-3.12.61-6.58 12.98-4.47 13.84 2.34" filter="url(#a)"/><path d="m-34.4-76.18 25.38 2.42 22.18 2.71 6.44.08-2.02-.03-4.11.49-3.56.21-2.48-.6-1.83-1.12-1.79-1.05-1.86-.58-1.39-.11-.3.1.72.09.82-.01-.02-.02-.9.25-.64.9.97 1.83 2.62 2.46 2.79 1.7 2.03-1.28 3.7-5.17 8.62-5.7 8.83.04m8.93 5.08 6.29 6.32 1.95 4.18 1.81 3.59L51-56.5l.62 1.57-2.82.05-6.61-1.34-8.88-2.35-8.4-2.59-5.48-1.87-1.87-.46.22 1.04-.49 1.89-3.31 1.57-5.47-.1-3.05-2.5 7.29-3.11 23.68 3.86L68-37.48" filter="url(#a)"/><path d="M67.51-38.79 31.43-66.98 16.74-77.25l-4.53-3.09-2.64-.24-2.37 1.11-1.15 2.02.46 2.68 1.39 2.92 1.38 2.57 1.21 1.65 1.74.46 3.01-.65 4.04-1.48 3.7-2.03 1.83-2.26-.43-1.92-1.25-.59.3 1.82 2.98 4.61 2.63 5.75-6.92 2.7-28.53-3.63-46.53 3.83" filter="url(#a)"/><path d="m21.2-82.02 20.61 19.33-4.36 1.23-5.37-3.23-.5-2.7.96-1.51-1.44-.8-5.1-.49-7.42-.33-7.2-.33-4.64-.51-.83-.76 2.79-.71 5.1-.15 5.52.71 4.14 1.13 1.35.3-2.44-1.77-6.8-3.71-10.95-3.82-11.92-2.31 2.25-2.76" filter="url(#a)"/><path d="m-58.11-54.18 26.73-15.16 26.55-4.85 17.7-1.16 7.74-.55 1.49-.23-.63.59-.64 1.43-.69 1.73-1.67 1.37-3.25.61-4.65-.23-5.2-1.01-4.66-1.61-3.1-1.77-.96-1.23 1.26.1 2.86 1.84 2.84 3.26-.36 3.75-6.84 3.5-10.09 3.89 8.12 6.64L66.1-41.35" filter="url(#a)"/><path d="m41.71-71.61-25.34-4.11-.14.51 3.79 1.03 1.77.24-2.35-.92-5.21-1.54-5.5-1.36-3.95-.67-1.89.15-.09.78L4-76.4l1.89 1.14 2.13 1.12 2.43 1.39 3.56 2.21 5.61 3.24 7.32 3.57 6.97 2.33 4.41-.2 1.48-2.82-3.03-6.07-15.68-11.7" filter="url(#a)"/><path d="m16.76-83.14-2.95 8.55-15.54 5.37-.6 4.24 7.44 2.22 3.85-.37-3.69-2.2-7.83-2.36-6.09-1-.02.91 7.24 2.53 12.63 3.58 14.19 4.21 11.08 4.15 3.67 2.28-5.47-2.12-8.98-6.2 5.46-.87 38.32 26.08" filter="url(#a)"/><path d="m29.36-78.9-17.05-1.14-8.05 2.55-.8 4.12-1.07 3-2.64.92-1.98-.05 1.23.53 5.49 1.83 8.71 2.62 9.42 2.18 7.54.69 4.31-1.11 1.36-2.26-.23-2.22-.32-1.08.46.57 1.31 1.96 1.49 2.34.51 1.25-1.76-1.38-4.44-4.66-5.8-6.47-7.07-5.37L2.6-85.24" filter="url(#a)"/><path d="M61.18-50.33 48.26-60.37l-17.47-9.97-7.75-3.39 3.52 2.86 8.76 5.55 7.28 4.43 2.48 1.31-1.79-1.47-3.32-2.41-2.53-1.51-1.52-.02-2.55.23-7.03-2.25-16.08-8.15-21.49-9.35m81.22 52.2-48.64-33.1-15.01-9.01-3.14 1.41.65 3.81-.32 2.4-2.5.47-2.52-.21.56.71 5.25 2.35 9.01 3.44 9.89 3.06 7.42 1.3 2.72-.9-2.28-2.32-5.82-2.23-7.13-.91-6.6.55-5.34.97-4.34-.16-3.83-2.5-3.07-5.15-1.66-6.96-3.14-5.87-16.26.79" filter="url(#a)"/><path d="m-52.94-61.02 56.43-3.05 15.83-.21-1.06-4.15.15-2.39 5.72 1.93 7.63 4.92 4.64 5.18-.47 3.45-4.32 1.09-5.73-1.03-5.91-2.79-6.76-4.14-8.31-4.74-8.96-4.12-8.66-2.21-10.95 1.01-17.25 5.89-16.03 10.19" filter="url(#a)"/><path d="m-15.27-83.86-.42 1.64.94 3.04 2.99 2.44 4 .74 4.18-.69 4.15-.85 4.36.02 4.22 1.02 2.95 1.56 1.1 1.74.71 2.03 2.99 2.33 5.66 1.76 3.78-.51-4.03-3.4-6.13-2.95 28.74 4.86" filter="url(#a)"/><path d="M68.84-35.11 48.78-57.04 34.5-64.48l-9.58-3.36-4.2-1.64.07-.35 1.95.37 1.21.24-1.01-.45-2.88-1.06-3.26-1.09-2.37-.39-1.29.76-1.07 1.82-1.84 2.35-2.63 2.17-1.77 1.56 1.84 1.19 7.18 1.58 10.28 2.64 6.18 3.52-4.96 3.53-7.77 3.69 48.93 8.61" filter="url(#a)"/><path d="m-41.01-71.9 31.95-4.6 5.24 3.08 5.13 5.12 5.55 2.86 4.35.18 3.46-1.38 2.74-2.06 1.52-2.35.12-2.32-.59-1.9-.45-1.05-.22-.04-1.1.83-3.58 1.41-6.86 1.82-8.91 2.3-7.62 2.91-2.25 3.34 5.31 3.14 10.97 2.26 11.38 1.29 9.66 1.51 16.44 3.47 20.52 2.76" filter="url(#a)"/><path d="m11.59-84.37 30.66 23.14-1.17 2.56-13.63-3.34-13.74-3.3-10.6-1.7-8.16-.56-6.08-.24-3.36-.2-.05.04 2.72.53 3.78.91 2.6.8.03.13-2.07-.84-1.83-1.7 1.35-2.09 6-1.83 9.38-1.02 9.12.01 5.03.84-.45 1.36-3.2 2.32 2.73 5.31 42.5 16.41" filter="url(#a)"/><path d="M67.51-38.79 8.83-53.47 6.9-63.97l2.74-3.27-2.04.49-4.33 1.4-3.65 1.3-1.73.94.72.5 3.38-.05 5.85-.55 7.57-.69 8.22-.25 7.63.76 5.51 1.96 1.58 2.71-4.15 2.28-10.74.53-16.38-1.77-19.43-2.88-19.69-1.35-16.88 1.84-9.11 4.99" filter="url(#a)"/><path d="m-49.61-64.35 26.98-11.47 11.95-4 2.9-1.48.31-.38.51.46 1.3 1.24 1.86 1.76 2.2 1.78L.76-75.3l2.08.06.89-.91-1.39-1.28-4.38-.89-7.1-.02-7.66.9-3.4 1.4 7.92 1.32 25.38 2.04 38.97 10.83" filter="url(#a)"/><path d="m32.21-77.54 18.92 19.37-.1 1.08-8.5-6.73-8.54-6.96-5.59-4.4-3.48-1.99-3.03-.65-3.28-.21-3.13-.17h-2.34l-1.37.63-.94 1.74-1.43 2.97-2.79 3.54-4.53 2.67-6.1.08-6.72-3.32-4.54-5.5 3.9-4.78 25.29-4.02" filter="url(#a)"/><path d="M11.59-84.37.99-82.19l6.15 5.04 4.57 2.38-3.37-.52L0-76.05l-7.93.98-4.44 3.01-1.75 4.05-2.18 3.61-4.04 1.87-2.94-.47 3.07-2.85 8.51-5.1 4.7-7.01 7.22-7.39" filter="url(#a)"/><path d="m-61.3-50.49 50.76-17 23.51-3.24h4.01l-3.13.62-1.92-.31 1.96-1.51 4.85-1.83 5.85-.97 5.62.67 4.88 2.56 3.57 4.23 1.3 5.47-1.67 6.12-3.58 6.12-1.73 5.2 3.07 2.15-2.85-7.39-48.11-34.24" filter="url(#a)"/><path d="M57.99-55 27.47-71.98 4.05-76.99l-14.13.7-3.44 1.93 5.32 1.8 9.4 1.99 8.72 2.44 4.83 2.34-.66 1.3-6.12-.34-9.55-1.72-8.94-2.02-3.77-1.21 3.86.05 8.76.87 4.72.49-5.64-2.95 16.5-12.87" filter="url(#a)"/><path d="m-44.66-68.8 11.32-6.35 8.98-2.84 4.73.55 1.54 1.83-.35 1.28-.51.09 1.25-.49 4.49.01 8.13 1.13 10.57 1.85 10.33 1.33 6.83-.4 1.13-2.43-4.61-3.58-8.42-3.2-9.64-1.61-8.85.49-9.75 3.64-29.89 11.05" filter="url(#a)"/><path d="m16.6-83.36-24.97 6.59 6.92-.12 4.95.78-2.99 1.86-5.07 2.05-.51 1.77 6.11 1.18 9.83.19 8.51-1.15 3.22-2.46-3.08-3.21-7.62-2.98-9.06-1.66-7.82.4-5.46 2.61-4.11 4.05-2.56 2.04L6.77-84.95" filter="url(#a)"/><path d="M71.69-27.08-8.94-46.72-29.63-58.2l4.59-7.29 10.79-4.08 9.12-2.35 7.03-1.36 7.13.01 8.47 2 8.92 3.87 7.12 4.65 3.18 3.88-1.67 1.84-5.93-.61-8.47-2.66-8.73-3.86-6.87-4.27-4.27-4.06-4.03-3.17-8.82-1.17-16.34 3.13-25.48 13.78" filter="url(#a)"/><path d="m-2.83-85.29 25.1 11.74-1.7 6.72-4.06 2.52-1-.91-.67-2.86-2.06-3.1-3.81-1.97-5.77-.23-6.49 1.3-3.39 1.97 3.82 1.51 9.99.14 7.65-1.47 1.08-1.94 29.06 2.79" filter="url(#a)"/><path d="m74.97-12.61-3.92-3.55-2.9-2.45-1.48-2.34-2.01-2.42-3.03-2.5-3.4-2.53-2.95-2.51-2.02-2.47-1.01-2.39-.24-2.33.13-2.25.09-2.21-.21-2.17-.65-2.14-1.11-2.12-1.54-2.1-1.94-2.06-2.27-1.99-2.47-1.9-2.5-1.8-2.35-1.71-2.12-1.67-1.99-1.66-2.04-1.69-2.23-1.73-2.45-1.77-2.5-1.76-2.3-1.62-1.99-1.41-2.5-1.45M.22-85.35l-2.39.03-2.65.16-2.74.23-2.79.31-2.76.38-2.66.47-2.6.55-2.62.64-2.7.7-2.78.75-2.81.81-2.81.85-2.77.91-2.76.99-2.76 1.08-2.81 1.18-2.86 1.28-2.89 1.35-2.88 1.42-2.8 1.46-2.73 1.51-2.65 1.58-2.64 1.66-2.7 1.77-2.85 1.87-3.07 1.97-3.32 2.03-3.51 2.05-3.56 2.01-3.43 1.93-3.13 1.83-2.81 1.75-2.5 1.74-2.52 1.9-4.18 2.48" filter="url(#a)"/><path d="m-2.83-85.29-2.55.19-2.5.22-2.49.32-2.44.42-2.44.53-2.45.63-2.44.71-2.4.79-2.32.82-2.25.86-2.16.89-2.12.92-2.11.97-2.1 1.03-2.1 1.11-2.09 1.21-2.07 1.3-2.06 1.39-2.07 1.46-2.07 1.53-2.07 1.59-2.05 1.68-2.03 1.77-2.02 1.88-1.98 1.94-1.76 1.82-.85.94" filter="url(#a)"/><path d="m-5.05-85.21-4.07.26-2.47.28-1.85.37-1.83.47-2.02.56-2.28.64-2.6.71-2.89.76-3.13.8-3.28.83-3.34.89-3.33.96-3.25 1.06-3.19 1.17-3.17 1.28-3.16 1.36-3.22 1.41-3.3 1.44-3.5 1.47-3.8 1.51-4.18 1.6-4.45 1.72-4.43 1.86-4.09 2.01-3.73 2.13-3.79 2.17-4.27 2.22-4.37 2.78" filter="url(#a)"/><path d="m-5.05-85.21-4.15.26-3.19.29-2.77.37-2.6.48-2.68.57-2.8.66-2.72.72-2.47.77-2.16.81-1.96.86-2 .92-2.25 1-2.63 1.09-3 1.2-3.3 1.29-3.56 1.37-3.81 1.42-4.15 1.48-4.56 1.54-4.97 1.6-5.26 1.69-5.32 1.78-5.13 1.87-4.75 1.95-4.32 2-3.95 2-3.75 1.98-3.7 1.93-3.82 1.88-4.06 1.85-4.48 1.86-5.03 1.94-5.62 2.08-6.02 2.26-6.07 2.46-6.43 2.59-9.06 2.82" filter="url(#a)"/><path d="m-7.78-84.9-2.37.21-2.47.36-2.54.48-2.54.58-2.51.66-2.43.72-2.34.77-2.25.81-2.21.85-2.24.91-2.38.98-2.56 1.08-2.78 1.2-2.92 1.29-2.97 1.36-2.92 1.42-2.83 1.47-2.79 1.51-2.84 1.57-3 1.66-3.21 1.76-3.39 1.88-3.48 1.97-3.47 2.03-3.43 2.05-3.43 2.01-3.47 1.92-3.43 1.82-3.07 1.74-2.37 1.74-2.03 1.89-3.46 2.48" filter="url(#a)"/><path d="m-7.1-85.19-3.91.54-2.38.45-2.27.55-2.45.65-2.67.73-2.86.8-2.95.84-2.93.87-2.79.88-2.59.92-2.39.96-2.25 1.03-2.26 1.12-2.42 1.21-2.71 1.3-3.03 1.39-3.25 1.46-3.26 1.52-3.06 1.59-2.76 1.68-2.5 1.77-2.49 1.88-2.77 1.94L-73-57.3l-1.85.93" filter="url(#a)"/><path d="m-10.56-84.75-1.6.37-2.21.5-2.25.6-2.25.68-2.27.73-2.28.79-2.24.82-2.18.85-2.12.92-2.09 1-2.09 1.09-2.1 1.21-2.1 1.3-2.08 1.38-2.02 1.44-1.96 1.48-1.89 1.54-1.84 1.6-1.82 1.69-1.8 1.79-1.81 1.87-1.8 1.96-1.79 1.99-1.74 2-1.68 1.97-1.6 1.93-1.52 1.89-1.43 1.86-1.35 1.88-1.29 1.96-1.24 2.1-1.24 2.26-1.24 2.42-1.22 2.53-1.17 2.55-1.07 2.37" filter="url(#a)"/><path d="m-10.56-84.75-1.65.36-2.37.5-2.65.59-2.97.66-3.19.72-3.17.78-2.93.8-2.56.84-2.23.88-2.05.95-2.1 1.06-2.35 1.17-2.68 1.29-2.97 1.37-3.11 1.42-3.1 1.44-3.02 1.46-3 1.51-3.12 1.59-3.32 1.72-3.44 1.86-3.37 2.01-3.19 2.12-3.35 2.17-4.26 2.22-5.72 2.77" filter="url(#a)"/><path d="m-12.1-84.4-1.63.2-3.1.52-3.16.67-2.87.75-2.85.81-3.11.85-3.51.87-3.81.89-3.94.91-3.87.97-3.78 1.03-3.8 1.12-3.95 1.22-4.12 1.31-4.11 1.4-3.85 1.46-3.49 1.54-3.31 1.6-3.48 1.68-3.89 1.78-4.24 1.86-4.22 1.91-4.09 1.91-4.89 1.92-8.08 2.53M74.11-17.06l-.19-.45-.53-2.07-.62-2.47-.77-2.5-1.01-2.4-1.32-2.29-1.65-2.23-1.85-2.26-1.87-2.32-1.69-2.39-1.4-2.44-1.11-2.44-.92-2.37-.87-2.27-.97-2.16-1.14-2.06-1.37-1.99-1.6-1.95-1.8-1.96-2-1.96-2.14-1.93-2.22-1.87-2.2-1.76-2.08-1.64-1.93-1.55-1.84-1.51-1.85-1.51-1.94-1.51-2.07-1.47-2.37-1.62" filter="url(#a)"/><path d="m-11.23-84.51-3.1.59-2.38.62-2.27.68-2.29.75-2.3.79-2.28.82-2.32.86-2.39.91-2.51.99-2.63 1.1-2.69 1.21-2.68 1.31-2.59 1.38-2.46 1.44-2.34 1.49-2.27 1.53-2.26 1.61-2.3 1.69-2.36 1.78-2.4 1.88-2.4 1.95-2.36 2-2.29 2-2.24 1.97-2.24 1.93-2.3 1.88-2.38 1.86-2.48 1.88-2.5 1.96-2.38 2.09-2.15 2.26-1.9 2.42-1.76 2.54-1.54 2.54-.79 2.37" filter="url(#a)"/><path d="m-11.23-84.51-3.13.59-2.76.62-3.16.68-3.35.74-3.07.79-2.58.82-2.16.86-1.97.9-2.02.98-2.25 1.1-2.6 1.2-3.08 1.31-3.67 1.38-4.33 1.44-4.96 1.47-5.4 1.53-5.53 1.59-5.3 1.68-4.82 1.78-4.28 1.88-3.86 1.96-3.67 2.01-3.7 2.01-3.88 1.98-4.07 1.92-4.21 1.86-4.15 1.81-3.93 1.83-3.69 1.91-3.83 2.05-4.73 2.26-6.49 2.47-8.73 2.25" filter="url(#a)"/><path d="m-12.68-84.45-2.55.69-3.02.74-3.27.78-3.13.84-2.73.86-2.38.89-2.18.91-2.11.93-2.11 1-2.12 1.07-2.14 1.15-2.17 1.26-2.23 1.34-2.27 1.43-2.29 1.5-2.28 1.58-2.21 1.66-2.17 1.73-2.18 1.8-2.3 1.88-2.51 1.94-2.77 1.99-2.94 2.03-2.98 2.05-2.81 2.05-2.54 2.07-2.28 2.11-2.09 2.19-1.98 2.28-1.85 2.3-1.75 2.21-1.18 2.08" filter="url(#a)"/><path d="m-12.68-84.45-5.33.68-4.47.74-2.6.77-2.29.82-2.59.86-2.81.88-2.89.89-2.96.92-3.02.96-3.11 1.04-3.3 1.13-3.76 1.22-4.52 1.32-5.48 1.4-6.36 1.48-6.88 1.54-6.95 1.61-6.58 1.69-5.82 1.77-4.8 1.86-3.86 1.92-3.81 1.94-5.52 2.01-8.58 2.18-9.46 2.33" filter="url(#a)"/><path d="m-14.91-83.84-3.33.84-2.56.77-2.43.84-2.51.88-2.6.89-2.62.91-2.6.94-2.56.99-2.56 1.08-2.55 1.17-2.5 1.26-2.4 1.36-2.28 1.44-2.2 1.51-2.2 1.6-2.29 1.66-2.41 1.75-2.54 1.81-2.63 1.89-2.7 1.94-2.77 1.99-2.91 2.03-3.13 2.06-3.37 2.07-3.55 2.1-3.51 2.13-3.2 2.19-2.68 2.23-2.16 2.28-1.96 2.29-2.3 2.34-2.92 2.46-3.16 2.7-2.28 3.05" filter="url(#a)"/><path d="m-18.95-82.66-4.88.79-2.08.81-1.79.83-1.97.85-2.09.87-2.18.95-2.3 1.09-2.37 1.22-2.37 1.34-2.3 1.41-2.23 1.44-2.22 1.47-2.28 1.51-2.39 1.58-2.51 1.67-2.63 1.77-2.73 1.89-2.87 1.97-3.06 2.02-3.26 2.02-3.4 1.99-3.38 1.91-3.18 1.83-2.83 1.78-2.53 1.79-2.4 1.86-2.5 2.01-2.55 2.3-2.11 3.18" filter="url(#a)"/><path d="m-18.95-82.66-2.33.79-2.35.82-2.22.84-2.07.86-1.98.89-1.98.97-2.05 1.11-2.13 1.24-2.16 1.34-2.14 1.42-2.1 1.46-2.05 1.5-1.99 1.55-1.95 1.62-1.94 1.71-1.92 1.81-1.91 1.88-1.88 1.96-1.82 1.98-1.74 1.99-1.65 1.97-1.55 1.94-1.46 1.91-1.4 1.92-1.33 1.96-1.29 2.04-1.26 2.15-1.25 2.27-1.22 2.41-1.19 2.52-1.13 2.6-1.06 2.66-.99 2.66-.92 2.6-.86 2.4-.77 2.06-.71 1.65" filter="url(#a)"/><path d="m-23.77-81.04-4.89.85-3.51.88-1.59.85-1.56.93-2.34 1.09-2.87 1.27-2.93 1.38-2.72 1.44-2.57 1.47-2.66 1.5-2.97 1.54-3.42 1.62-3.85 1.7-4.07 1.81-3.96 1.9-3.46 1.96-2.68 2-1.86 1.99-1.24 1.97-1.05 1.93-1.36 1.91-2.14 1.91-3.17 1.95-4.21 2.03-4.97 2.15-5.25 2.28-4.91 2.4-4.03 2.52-2.88 2.6-1.91 2.66-1.66 2.66-2.42 2.59-3.81 2.4-4.54 2.05-2.95 1.65" filter="url(#a)"/><path d="m-26.22-79.99-2.52.56-3.7.78-4.51.88-4.06.94-3.17 1.04-2.73 1.15-3.04 1.26-3.83 1.36-4.56 1.43-4.85 1.49-4.6 1.56-4.03 1.64-3.54 1.7-3.47 1.8-3.97 1.86-4.86 1.93-5.64 1.98-5.7 2.03-4.73 2.07-3.13 2.03-1.95 1.85-2.91 1.54-7.09 1.59m91.9-34.07-2.33.9-2.01.93-1.88.94-1.98 1.03-2.18 1.16-2.42 1.27-2.61 1.36-2.73 1.44-2.73 1.49-2.64 1.56-2.53 1.63-2.44 1.71-2.35 1.79-2.27 1.87-2.2 1.92-2.19 1.98-2.24 2.03-2.28 2.06-2.14 2.03-1.69 1.85-1.37 1.54-2.25 1.58" filter="url(#a)"/><path d="m-26.91-79.59-2.35.9-2.1.93-2.08.94-2.19 1.03-2.25 1.16-2.21 1.27L-42.2-72l-2 1.44-1.92 1.49-1.89 1.56-1.95 1.63-2.04 1.71-2.16 1.79-2.27 1.87-2.29 1.92-2.24 1.98-2.09 2.03-1.91 2.06-1.78 2.03-1.71 1.85-1.68 1.54-1.99 1.58" filter="url(#a)"/><path d="m-28.77-78.83-1.37.48-1.76.76-2.17 1.06-2.56 1.31-2.82 1.45-2.89 1.49-2.88 1.49-2.99 1.49-3.25 1.54-3.55 1.62-3.73 1.71-3.64 1.83-3.3 1.91-2.89 1.97-2.6 2-2.62 2-3 1.96-3.67 1.94-4.48 1.92-5.22 1.93-5.71 1.98-5.89 2.06-5.76 2.17-5.33 2.29-4.69 2.41-3.86 2.5-2.9 2.57-1.96 2.6-1.21 2.59-.91 2.51-1.23 2.4-2.26 2.27-3.81 2.21-5.21 2.27-4.81 2.53-1.74 3.24" filter="url(#a)"/><path d="m-28.77-78.83-1.36.47-1.93.73-2.83 1.03-3.9 1.29-4.54 1.43-4.49 1.48-3.98 1.46-3.44 1.45-3.19 1.48-3.29 1.55-3.59 1.65-3.86 1.78-3.95 1.89-3.78 1.99-3.42 2.04-2.97 2.03-2.61 1.98-2.52 1.89-2.79 1.79-3.38 1.74-4.09 1.74-4.72 1.8-5.41 1.85-6.63 1.47" filter="url(#a)"/><path d="m-28.77-78.83-1.28.47-1.55.73-1.99 1.02-2.4 1.28-2.64 1.44-2.7 1.47-2.74 1.46-2.91 1.45-3.26 1.47-3.77 1.54-4.34 1.64-4.76 1.77-4.92 1.89-4.68 1.99-4.13 2.04-3.41 2.05-2.73 1.98-2.33 1.89-2.23 1.78-2.37 1.71-2.65 1.71-3.16 1.88-4 2.45" filter="url(#a)"/><path d="m-28.77-78.83-1.45.48-2.23.75-2.69 1.05-2.69 1.31-2.54 1.45-2.43 1.48-2.58 1.48-3.03 1.48-3.7 1.53-4.4 1.6-4.87 1.7-4.96 1.81-4.69 1.91-4.24 1.98-3.85 2-3.61 2-3.53 1.96-3.46 1.93-3.33 1.89-3.09 1.89-2.82 1.93-2.56 2.02-2.35 2.13-2.24 2.28-2.33 2.4-2.66 2.52-3.22 2.61-3.77 2.67-4.06 2.7-4.02 2.67-3.68 2.47-2.94 2.01" filter="url(#a)"/><path d="m-29.94-78.48-1.57.77-2.34 1.05-3.69 1.37-4.65 1.51-4.84 1.52-4.62 1.48-4.45 1.48-4.43 1.51-4.29 1.6-3.84 1.71-3.14 1.82-2.43 1.91-1.99 1.98-1.94 2.01-2.2 2-2.66 1.97-3.2 1.92-3.78 1.89-4.37 1.9-4.92 1.94-5.31 2.03-5.43 2.14-5.27 2.28-4.92 2.41-4.68 2.51-4.77 2.6-5.24 2.65-5.63 2.66-5.29 2.58-4.13 2.39-3.04 2.05-1.33 1.64" filter="url(#a)"/><path d="m-29.94-78.48-1.95.77-3.52 1.06-4.67 1.37-4.42 1.51-3.5 1.51-2.71 1.49-2.34 1.48-2.21 1.52-2.13 1.6-2.08 1.71-2.11 1.82-2.22 1.92-2.37 1.98-2.49 2.01-2.54 2-2.5 1.96-2.44 1.93-2.42 1.9-2.51 1.91-2.77 1.95-3.11 2.04-3.52 2.15-3.86 2.29-4.08 2.4-4.14 2.52-4 2.59-3.71 2.63-3.32 2.62-2.9 2.55-2.68 2.39-2.92 2.19-3.66 2.1-1.69 2.5" filter="url(#a)"/><path d="m-29.94-78.48-1.71.77-2.21 1.06-2.68 1.37-2.83 1.51-2.64 1.52-2.3 1.49-2 1.48-1.85 1.52-1.89 1.61-2.03 1.71-2.22 1.83-2.4 1.91-2.54 1.99-2.64 2-2.72 2-2.75 1.97-2.67 1.92-2.51 1.91-2.23 1.92-1.96 1.97-1.73 2.05-1.64 2.16-1.66 2.29-1.75 2.4-1.83 2.51-1.92 2.58-2.05 2.62-2.25 2.6-2.52 2.52-2.72 2.39-2.7 2.23-2.25 2.13-1.6 2.12-2.25 1.96" filter="url(#a)"/><path d="m-29.94-78.48-2.07.76-2.69 1.04-3.9 1.35-4.31 1.5-3.69 1.5-2.68 1.47-2 1.45-1.93 1.48-2.38 1.56-3.09 1.67-3.74 1.79-4.12 1.91-4.18 1.98-3.97 2.03-3.55 2.02-3.13 1.97-2.86 1.89-2.88 1.82-3.18 1.78-3.63 1.8-3.99 1.89-4.2 2.05-4.42 2.24-5.07 2.46-6.11 2.22" filter="url(#a)"/><path d="m-29.94-78.48-4.58.75-2.14 1.03-2.82 1.35-2.97 1.49-2.54 1.51-2.23 1.46-2.39 1.44-2.87 1.47-3.36 1.54-3.61 1.65-3.62 1.78-3.52 1.9-3.44 1.99-3.47 2.04-3.47 2.03-3.31 1.98-2.88 1.88-2.27 1.79-1.8 1.73-1.92 1.74-2.94 1.8-4.6 1.84-6.59 1.47" filter="url(#a)"/><path d="m-29.94-78.48-1.6.77-2.44 1.07-3.63 1.37-4.13 1.52-3.96 1.52-3.67 1.49-3.47 1.49-3.27 1.53-2.97 1.62-2.56 1.72-2.2 1.83-1.99 1.92-1.96 1.98-2.1 2.01-2.32 1.99-2.56 1.97-2.81 1.94-3.1 1.93-3.4 1.94-3.72 1.99-3.91 2.08-3.93 2.18-3.71 2.3-3.32 2.41-2.91 2.49-2.66 2.56-2.68 2.58-2.94 2.55-3.29 2.5-3.55 2.42-3.6 2.35-3.5 2.35-3.21 2.46-2.74 2.69-2.25 2.98-2.84 3.02-5.13 2.02" filter="url(#a)"/><path d="m-31.4-77.75-3.45.94-3.5 1.41-2.88 1.58-2.51 1.55-2.27 1.46-2.03 1.43-1.84 1.46-1.85 1.54-2.09 1.66-2.5 1.79-2.99 1.9-3.36 2-3.51 2.03-3.41 2.03-3.08 1.97-2.69 1.88-2.34 1.8-2.11 1.75-1.97 1.77-1.97 1.85-2.37 2-3.12 2.28-3.09 3.16" filter="url(#a)"/><path d="m-32.45-77.02-2.45 1.13-3.06 1.31-3.24 1.38-3.32 1.44-3.29 1.5-3.11 1.56-2.71 1.62-2.16 1.7-1.63 1.78-1.26 1.86-1.2 1.92-1.4 1.97-1.78 2.02-2.25 2.04-2.68 2.07-2.99 2.09-3.14 2.13-3.15 2.16-3.05 2.2-2.85 2.24-2.61 2.27-2.27 2.29-1.87 2.31-1.44 2.31-1.08 2.32-.97 2.35-1.14 2.39-1.52 2.49-1.95 2.61-2.2 2.68-2.13 2.63-1.87 2.43-1.79 2.47-2.9 3.94" filter="url(#a)"/><path d="m-32.45-77.02-2.67 1.13-5.26 1.3-7.1 1.38-6.55 1.44-4.82 1.5-3.35 1.56-2.66 1.62-2.58 1.7-2.72 1.77-2.77 1.86-2.64 1.92-2.39 1.97-2.12 2.01-2.01 2.04-2.11 2.07-2.42 2.09-2.89 2.12-3.49 2.15-4.18 2.2-4.9 2.24-5.53 2.27-5.88 2.29-5.82 2.31-5.47 2.31-5.07 2.31-4.89 2.33-4.9 2.37-4.83 2.49-4.41 2.64-3.75 2.75-3.46 2.64-3.91 2.03-3.55.98" filter="url(#a)"/><path d="m-37.3-74.38-3.69 1.23-4.02 1.43-5.15 1.52-4.66 1.56-3.12 1.63-1.55 1.71-.58 1.79-.38 1.87-.86 1.94-1.75 1.99-2.77 2.03-3.71 2.05-4.37 2.08-4.67 2.11-4.57 2.13-4.14 2.17-3.49 2.21-2.78 2.24-2.22 2.28-1.99 2.3-2.1 2.31-2.53 2.33-3.1 2.35-3.66 2.38-4.14 2.43-4.58 2.49-4.96 2.56-5.18 2.6-4.98 2.6-4.18 2.57-2.94 2.52-2.02 2.47-2.31 2.41-3.82 2.3-4.56 2.21-.71 2.18" filter="url(#a)"/><path d="m-39.6-72.75-2.35 1.07-3.02 1.21-3.21 1.31-3.05 1.44-2.76 1.56-2.5 1.71-2.44 1.84-2.62 1.96-2.88 2.02-3.09 2.04-3.16 2.01-3.09 1.96-2.94 1.9-2.72 1.87-2.45 1.87-2.24 1.92-2.23 2.02-2.51 2.14-3.06 2.28-3.59 2.41-3.78 2.52-3.37 2.59-2.42 2.64-1.38 2.65-.98 2.57-1.72 2.38-2.96 2.03-1.73 1.63" filter="url(#a)"/><path d="m-39.04-73.23-2.03 1.47-1.99 1.57-1.92 1.57-1.91 1.62-1.91 1.71-1.87 1.79-1.81 1.88-1.74 1.95-1.66 1.99-1.57 2.03-1.51 2.06-1.44 2.08-1.4 2.1-1.36 2.13-1.34 2.17-1.33 2.2-1.31 2.25-1.3 2.28-1.25 2.29-1.18 2.32-1.1 2.32-.98 2.35-.86 2.38-.75 2.43-.66 2.49-.61 2.56-.58 2.6-.55 2.6-.5 2.56-.44 2.52-.36 2.47-.31 2.41-.3 2.29-.29 2.21-.05 2.18" filter="url(#a)"/><path d="m-40.98-71.72-1.63 1.23-1.44 1.33-1.45 1.43-1.53 1.56-1.61 1.72-1.62 1.85-1.59 1.98-1.49 2.04-1.38 2.05-1.26 2.01-1.15 1.95-1.04 1.9-.97 1.85-.91 1.87-.85 1.91-.77 2.02-.6 2.14-.41 2.28-.23 2.41-.16 2.52-.22 2.59-.4 2.64-.55 2.65-.55 2.56-.3 2.37.02 2.03-.21 1.63M-43-70.53l-6.13 1.39-5.34 1.44-2.37 1.57-1.21 1.74-1.56 1.89-2.51 2.01-3.29 2.06-3.63 2.07-3.53 2.02-3.16 1.96-2.68 1.9-2.28 1.89-2.19 1.9-2.53 1.97-3.24 2.07-4.09 2.19-4.67 2.31-4.68 2.42-4.04 2.51-2.99 2.55-1.94 2.57-1.29 2.55-1.23 2.48-1.7 2.41-2.38 2.36-2.96 2.37-3.19 2.47-3.05 2.66-2.65 2.83-2.34 2.82-2.56 2.43-4.56 2" filter="url(#a)"/><path d="m-43.67-69.84-1.53 1.33-2.54 1.54-3.14 1.67-2.95 1.8-2.38 1.9-1.94 1.96-1.81 2-1.86 2.03-1.98 2.06-2.03 2.07-2.04 2.09-1.97 2.12-1.85 2.15-1.7 2.2-1.56 2.25-1.45 2.27-1.42 2.29-1.43 2.31-1.49 2.31-1.53 2.33-1.5 2.35-1.4 2.41-1.23 2.49-1.06 2.57-.89 2.62-.8 2.61-.75 2.55-.81 2.52-1 2.54-1.31 2.41-1.62 1.78" filter="url(#a)"/><path d="m-43.67-69.84-4.88 1.34-1.18 1.55-1.79 1.68-3.66 1.81-5.32 1.91-5.92 1.97-5.36 2.01-4.09 2.04-2.69 2.07-1.64 2.08-1.15 2.1-1.15 2.14-1.51 2.17-2.01 2.22-2.52 2.25-2.9 2.28-3.13 2.3-3.24 2.32-3.29 2.34-3.37 2.35-3.52 2.4-3.75 2.44-3.99 2.5-4.09 2.54-3.92 2.58-3.38 2.58-2.57 2.55-1.7 2.51-1.12 2.47-1.09 2.43-1.55 2.41-2.11 2.4-2.3 2.46-2.05 2.52-1.74 2.65-2.23 3.49" filter="url(#a)"/><path d="m-43.67-69.84-3.43 1.31-1.82 1.52-2.62 1.64-3.49 1.78-3.41 1.87-2.58 1.93-1.73 1.98-1.36 2.01-1.63 2.03-2.26 2.04-2.88 2.05-3.19 2.07-3.05 2.11-2.62 2.17-2.22 2.22-2.15 2.26-2.42 2.27-2.77 2.3-2.86 2.32-2.59 2.28-2.15 2.14-1.97 2-3.24 2.79" filter="url(#a)"/><path d="m-43.67-69.84-1.84 1.34-2.19 1.55-2.04 1.68-1.93 1.82-1.93 1.91-2.05 1.97-2.3 2.01-2.57 2.04-2.73 2.07-2.68 2.09-2.44 2.1-2.06 2.14-1.64 2.18-1.29 2.21-1.06 2.26-.99 2.28-1.03 2.31-1.15 2.32-1.29 2.33-1.43 2.37-1.54 2.4-1.6 2.44-1.6 2.5-1.53 2.55-1.43 2.57-1.31 2.57-1.2 2.55-1.15 2.51-1.16 2.48-1.19 2.44-1.27 2.41-1.38 2.43-1.57 2.47L-99.92 6l-1.56 2.64-1.26 2.75-1.38 2.5m178.19-32.4 4.22-2.26 3.12-2.57.37-2.57.23-2.55 1.47-2.52 2.55-2.47 2.8-2.38 2.24-2.29 1.16-2.22-.1-2.17-1.25-2.14-2.01-2.11-2.21-2.11-1.89-2.11-1.32-2.09-.79-2.02-.47-1.9-.25-1.76.05-1.65.54-1.59 1.19-1.56 2.14-1.42 3.64-1.2" filter="url(#a)"/><path d="m-47.38-66.45-6.43 1.17-4.37 1.79-2.77 1.96-1.03 1.99-.15 2.02-.18 2.05-.75 2.06-1.45 2.08-2.1 2.09-2.56 2.12-2.84 2.17-2.97 2.21-3.1 2.25-3.28 2.27-3.62 2.3-4 2.31-4.29 2.33-4.27 2.34-3.9 2.37-3.28 2.43-2.64 2.49-2.22 2.56-2.14 2.58-2.31 2.59-2.62 2.55-2.98 2.51-3.3 2.46-3.46 2.4-3.22 2.36-2.69 2.37-2.51 2.62-2.32 3.29" filter="url(#a)"/><path d="m-49.61-64.35-2.03 1.81-2.48 2.14-3.07 2.2-3.33 2.15-2.96 2.05-2.22 1.94-1.6 1.86-1.34 1.84-1.38 1.87-1.48 1.96-1.51 2.08-1.43 2.21-1.31 2.34-1.24 2.44-1.25 2.51-1.37 2.56-1.52 2.56-1.68 2.53-1.78 2.47-1.81 2.43-1.77 2.4-1.66 2.43-1.57 2.5-1.56 2.62-1.61 2.7-1.64 2.73-1.5 2.7-1.14 2.7-.78 2.81-.66 2.98-1.15 2.87" filter="url(#a)"/><path d="m-50.7-63.43-1.9 2.07-1.83 1.98-1.88 2.01-1.89 2.05-1.91 2.08-1.95 2.09-1.93 2.1-1.82 2.14-1.64 2.17-1.43 2.23-1.22 2.27-1.02 2.29-.86 2.32-.72 2.32-.63 2.35-.59 2.36-.6 2.41-.63 2.45-.68 2.51-.73 2.54-.77 2.56-.77 2.56-.78 2.54-.77 2.51-.76 2.48-.74 2.46-.68 2.45-.6 2.47-.47 2.51-.3 2.56-.15 2.64-.05 2.72-.06 2.77-.1 2.83-.05 2.82.13 2.71.21 2.2m30.33-86.12-1.59 1.68-2.19 1.98-2.73 2.03-2.83 2.08-2.65 2.09-2.58 2.08-2.79 2.11-3.23 2.15-3.74 2.22-4.18 2.26-4.43 2.28-4.45 2.3-4.17 2.31-3.64 2.32-2.92 2.34-2.17 2.37-1.51 2.42-1.1 2.5-.98 2.55-1.11 2.58-1.42 2.57-1.81 2.55-2.21 2.49-2.57 2.45-2.75 2.41-2.54 2.37-1.84 2.38-.86 2.43-.61 2.37-2.47 1.59" filter="url(#a)"/><path d="m-52.94-61.02-1.78 1.68-1.97 1.99-2.29 2.04-2.74 2.09-2.98 2.09-2.96 2.09-2.9 2.12-2.88 2.16-2.95 2.23-3.08 2.26-3.24 2.29-3.4 2.31-3.52 2.32-3.51 2.33-3.33 2.35-2.93 2.39-2.35 2.44-1.66 2.5-.97 2.55-.46 2.57-.21 2.56-.34 2.54-.77 2.51-1.32 2.46-1.76 2.43-1.95 2.42-1.93 2.43-1.81 2.47-1.66 2.54-1.24 2.63-.38 2.71.37 2.75-.9 2.81" filter="url(#a)"/><path d="m-56.95-56.19-.72 1.03-1.78 2.04-2.44 2.14-2.95 2.09-3 2.1-2.63 2.16-2.09 2.24-1.64 2.28-1.37 2.31-1.22 2.31-1.18 2.33-1.2 2.34-1.34 2.36-1.62 2.4-2 2.45-2.39 2.51-2.61 2.54-2.54 2.57-2.15 2.56-1.56 2.54-.98 2.5-.6 2.47-.55 2.46-.76 2.45-1.09 2.47-1.25 2.51-1.11 2.57-.7 2.64-.25 2.7-.14 2.77-.59 2.79-1.47 2.8-2.09 2.72-1.75 2.64-.8 2.81" filter="url(#a)"/><path d="m-58.03-55.08-.37 1.58-.02 1.88 1.01 1.77 1.26 1.75.8 1.82.22 1.95-.22 2.11-.53 2.26-.71 2.4-.66 2.49-.22 2.55.64 2.57 1.79 2.56 2.92 2.53 3.67 2.49 3.78 2.46 3.25 2.45 2.28 2.49 1.3 2.55.57 2.62.28 2.67.35 2.72.6 2.74.89 2.75 1.12 2.73 1.34 2.69 1.54 2.62 1.74 2.5 1.88 2.37 2 2.26 2.29 2.21 3.03 2.29 4.13 2.48 4.71 2.77 1.41 3.45" filter="url(#a)"/><path d="m-58.03-55.08-.83 1.58-1.25 1.89-1.17 1.77-1.1 1.74-1.07 1.83-1.05 1.95-1.06 2.12-1.06 2.26-1.03 2.4-1 2.49-.95 2.55-.88 2.58-.8 2.56-.73 2.53-.64 2.49-.56 2.46-.49 2.46-.42 2.5-.36 2.55-.31 2.62-.23 2.68-.17 2.71-.09 2.74-.01 2.74.06 2.73.13 2.68.2 2.61.24 2.5.29 2.38.33 2.29.38 2.25.44 2.31.53 2.44.62 2.54.66 2.43.38 1.49m14.37-86.14-13.89 3.03-12.83 2.38-4.84 2.05-.93 2 .2 2.1.6 2.21.7 2.26.3 2.27-.78 2.28-2.37 2.28-4.1 2.28-5.41 2.29-5.92 2.3-5.52 2.36-4.63 2.47-3.93 2.58-3.9 2.63-4.56 2.58-5.45 2.47-5.84 2.49-5.04 2.74-5.04 2.48" filter="url(#a)"/><path d="m-56.66-56.37-1.9 3.03-1.59 2.38-1.41 2.05-1.28 2-1.17 2.1-1.06 2.21-.97 2.26-.91 2.27-.88 2.28-.85 2.28-.83 2.28-.76 2.29-.68 2.3-.6 2.36-.53 2.47-.44 2.58-.36 2.63-.25 2.58-.13 2.47-.03 2.49-.01 2.74-.07 2.48m15.26-50.34L-64-51.55l-4.88 1.8-2.21 1.67-1.24 1.78-1.53 1.94-2.26 2.11-2.86 2.26-3.12 2.4-3.02 2.5-2.68 2.56-2.21 2.58-1.72 2.57-1.33 2.52-1.12 2.48-1.11 2.44-1.28 2.43-1.54 2.47-1.82 2.54-2.04 2.61-2.23 2.68-2.4 2.71-2.52 2.74-2.51 2.75-2.27 2.75-1.85 2.72-1.5 2.65-1.58 2.52-2.24 2.33-3.06 2.16-3.28 2.08-2.76 2.28-1.78 3.05" filter="url(#a)"/><path d="m-58.11-54.18-2.11 2.64-1.59 1.8-1.46 1.68-1.43 1.8-1.6 1.94-1.94 2.12-2.26 2.28-2.41 2.41-2.3 2.51-1.99 2.57-1.59 2.58-1.19 2.56-.86 2.53-.63 2.49-.49 2.46-.43 2.47-.44 2.49-.46 2.56-.48 2.62-.47 2.67-.42 2.72-.33 2.74-.25 2.74-.2 2.71-.18 2.68-.21 2.59-.27 2.5-.31 2.39-.37 2.31-.4 2.28-.43 2.32-.45 2.42-.4 2.5-.3 2.5-.03 2.45.13 2.99" filter="url(#a)"/><path d="m-61.3-50.49-.89 1.96-.48 1.8.02 2.13.43 2.3.65 2.34.68 2.33.54 2.32.2 2.31-.27 2.33-.65 2.36-.73 2.39-.41 2.45.27 2.51 1.12 2.55 2 2.58 2.81 2.56 3.48 2.53 4.02 2.5 4.4 2.46 4.54 2.45 4.35 2.45 3.79 2.47 2.98 2.51 2.12 2.57 1.41 2.64 1 2.7.88 2.75 1.13 2.77 1.79 2.74 2.59 2.66 2.74 2.46 1.7 2.09 1 1.18m85.53-49.15-.59-2.95-.5-2.68-.18-2.57.14-2.56.3-2.49.29-2.4.13-2.3-.11-2.24-.38-2.2-.64-2.16-.88-2.14-1.06-2.12-1.14-2.09-1.13-2.04-1.07-1.97-1.02-1.88-1.02-1.8-1.11-1.75-1.28-1.7-1.5-1.69-1.73-1.69-1.89-1.69-2.01-1.67-2.02-1.62-1.95-1.54-1.81-1.44-1.62-1.32-1.44-1.19-1.38-1.07-1.52-.97-1.93-.89-2.53-.87-3.23-.92-3.79-1.09m-94.55 34.41-4.65.97-4.28 2.09-1.83 2.39-1.01 2.37-1.29 2.31-2.05 2.29-3.13 2.3-4.34 2.3-5.38 2.32-5.93 2.35-5.83 2.42-5.21 2.5-4.33 2.55-3.41 2.58-2.55 2.56-1.8 2.53-1.15 2.47-.71 2.43-.58 2.4-.76 2.38-1.13 2.4-1.57 2.44-1.9 2.51-2.08 2.62-2.45 2.72-4.45 2.47m73.77-61.54-1.93 2.67-1.76 2.72-1.44 2.44-1.48 2.3-1.73 2.29-1.99 2.3-2 2.31-1.73 2.32-1.28 2.37-.87 2.43-.7 2.51-.76 2.56-.96 2.58-1.16 2.56-1.22 2.52-1.12 2.48-.92 2.44-.7 2.42-.5 2.42-.37 2.43-.3 2.48-.3 2.54-.36 2.62-.53 2.7-.74 2.76-.9 2.84-1 2.93-.68 3.07" filter="url(#a)"/><path d="M-62.74-47.65-65.15-45l-2.03 2.71-1.22 2.43-.93 2.28-1.01 2.27-1.27 2.29-1.58 2.3-1.88 2.3-2.17 2.34-2.41 2.4-2.61 2.5-2.8 2.56-2.98 2.58-3.11 2.56-3.11 2.51-2.87 2.47-2.4 2.42-1.88 2.39-1.55 2.36-1.5 2.37-1.52 2.42-1.35 2.49-1.2 2.62-1.84 3.45m47.63-59.67-3.14 2.67-5.41 2.72-4.42 2.44-2.76 2.3-1.96 2.29-2.14 2.3-2.7 2.31-3.06 2.32-2.92 2.37-2.42 2.43-1.96 2.51-1.84 2.56-2.1 2.58-2.54 2.56-2.86 2.52-2.85 2.48-2.57 2.44-2.18 2.42-2.05 2.42-2.41 2.43-3.31 2.48-4.44 2.54-5.12 2.62-4.69 2.7-3 2.76-.8 2.84.48 2.93.08 3.07" filter="url(#a)"/><path d="m-64.02-45.86-.87 1.49-1.66 2.07-2.3 2.32-2.61 2.47-2.53 2.55-2.27 2.61-2.24 2.61-2.69 2.58-3.53 2.52-4.39 2.44-4.87 2.38-4.76 2.38-4.06 2.43-3.05 2.51-2.02 2.61-1.28 2.68-.93 2.71-.98 2.73-1.3 2.73-1.71 2.75-1.99 2.76-1.94 2.7-1.49 2.54-.93 2.32-.99 2.03-.34 1.57" filter="url(#a)"/><path d="m-64.24-45.52-1.95 3.5-1.65 2.41-1.26 2.22-.92 2.26-.79 2.31-.81 2.32-.85 2.33-.87 2.37-.84 2.44-.79 2.52-.74 2.57-.68 2.58-.67 2.57-.66 2.52-.68 2.48-.66 2.46-.61 2.43-.49 2.44-.3 2.46-.1 2.5.07 2.57.17 2.63.21 2.69.21 2.75.17 2.76.12 2.74.08 2.64.03 2.45-.01 2.08-.16 1.18m15.43-74.18-9.51 3.51-2.13 2.41-2.03 2.23-1.43 2.27-.85 2.31-1.24 2.33-2.26 2.34-3.11 2.39-3.32 2.45-3.04 2.53-2.68 2.57-2.57 2.58-2.74 2.57-3.01 2.53-3.01 2.49-2.57 2.46-1.72 2.46-.71 2.45.11 2.48.47 2.53.3 2.58-.25 2.64-.89 2.69-1.37 2.72-1.62 2.72-1.68 2.68-1.72 2.6-1.83 2.51-1.92 2.45-1.93 2.48-2.02 2.61-2.65 2.44-4.55.67" filter="url(#a)"/><path d="m-66.59-40.54-5.6 1.26-1.71 1.95-.9 2.21-.73 2.3-.91 2.31-1.38 2.31-1.97 2.34-2.4 2.41-2.43 2.51-2.02 2.57-1.39 2.59-.91 2.56-.9 2.51-1.45 2.47-2.31 2.42-3.05 2.4-3.27 2.39-2.77 2.41-1.81 2.46-.88 2.53-.48 2.61-.73 2.69-1.27 2.74-1.3 2.79-.1 2.9m42.67-60.64-.67 1.25-.98 1.95-1.19 2.2-1.33 2.3-1.43 2.31-1.44 2.31-1.37 2.33-1.24 2.4-1.15 2.51-1.1 2.57-1.06 2.59-.98 2.55-.82 2.51-.68 2.46-.59 2.42-.62 2.39-.76 2.38-.95 2.4-1.15 2.45-1.21 2.51-1.03 2.61-.54 2.68.08 2.72.37 2.78" filter="url(#a)"/><path d="m-67.03-39.97-1.11 2.51-1.5 2.35-1.49 2.35-1.15 2.34-.81 2.3-.7 2.31-.78 2.41-.89 2.51-.94 2.58-.9 2.6-.8 2.55-.67 2.51-.56 2.46-.46 2.42-.36 2.39-.31 2.39-.29 2.4-.25 2.46-.2 2.52-.06 2.61.09 2.68.17 2.74.06 2.79.05 2.89M73.43-21.36l-1.06-3.48-1.09-2.57-1.27-2.19-1.49-2.12-1.67-2.19-1.69-2.3-1.58-2.43-1.4-2.48-1.32-2.46-1.34-2.38-1.46-2.26-1.64-2.14-1.8-2.04-1.92-1.98-1.97-1.95-1.93-1.95-1.84-1.93-1.71-1.91-1.61-1.84-1.56-1.74-1.61-1.65-1.74-1.56-1.93-1.51-2.07-1.46-2.13-1.4-2.12-1.3-2.07-1.17-1.99-1.03-1.84-.98-1.75-1.14" filter="url(#a)"/><path d="m-68.41-36.51-5.87 2.09-1.4 2.53-.7 2.66-.64 2.65-.56 2.55-.39 2.43-.23 2.39-.22 2.39-.37 2.48-.65 2.57-.92 2.65-1.12 2.71-1.21 2.74-1.16 2.74-1.06 2.72-.91 2.69-.78 2.64-.64 2.55-.52 2.48-.41 2.41-.31 2.37-.23 2.35-.16 2.37-.09 2.4.01 2.44.12 2.46.22 2.44.26 2.41.17 2.34-.01 2.27-.23 2.22-.26 2.23.07 2.33.8 2.42 1.63 2.41 1.62 2.8" filter="url(#a)"/><path d="m-68.73-35.11-16.01 2.47-3.52 2.46-4.51 2.27-6.3 2.25-5.18 2.38-2 2.53.73 2.62 1.38 2.61v2.56l-2.36 2.49-4.49 2.44-5.73 2.41-5.91 2.39-5.14 2.39-3.73 2.41-2.09 2.46-.88 2.53-.77 2.6-2.11 2.68-4.12 2.75-4.91 2.81-2.89 2.91-.8 3.05" filter="url(#a)"/><path d="m-69.11-34.85-8.35 2.91.18 2.76.44 2.7-.21 2.57-.43 2.42-.47 2.35-.57 2.38-.88 2.46-1.35 2.58-1.94 2.66-2.47 2.72-2.83 2.74-2.88 2.75-2.7 2.72-2.36 2.69-2.08 2.63-1.91 2.56-1.9 2.47-1.92 2.41-1.85 2.37-1.59 2.35-1.1 2.37-.44 2.41.25 2.43.78 2.45 1.01 2.44.9 2.4.52 2.34.07 2.28-.22 2.24-.18 2.26.27 2.32 1.09 2.42 1.92 2.49 2.14 2.59.91 2.78" filter="url(#a)"/><path d="m-69.11-34.85-13.41 2.89-.33 2.75-.42 2.7-1.31 2.56-1.56 2.41-1.75 2.33-2.09 2.36-2.32 2.44-2.22 2.56-1.8 2.65-1.18 2.72-.54 2.73.02 2.74.46 2.73.74 2.69.75 2.64.42 2.56-.23 2.47-1.05 2.38-1.76 2.32-2.1 2.31-1.92 2.34-1.32 2.4-.62 2.44-.15 2.49-.08 2.49-.35 2.47-.75 2.4-1.11 2.19-1.06 1.86 1.13 2" filter="url(#a)"/><path d="m-70.06-32.73-1.46 2.78-1.31 2.28-.75 2.23-.54 2.41-.62 2.6-.8 2.66-.97 2.65-1.03 2.59-.98 2.53-.8 2.48-.58 2.46-.35 2.46-.17 2.47-.06 2.51-.01 2.55.01 2.61.01 2.64.02 2.68.05 2.69.12 2.68.2 2.63.28 2.59.35 2.52.4 2.47.46 2.42.52 2.38.6 2.34.7 2.33.79 2.32.85 2.32.88 2.31.91 2.27.96 2.19 1.05 2.09 1.25 2.03 1.57 2.16 1.89 2.84" filter="url(#a)"/><path d="m-70.18-31.57-.75 2.47-.76 2.72-.62 2.57-.48 2.4-.35 2.3-.21 2.32-.08 2.43.02 2.57.07 2.66.11 2.73.17 2.74.25 2.74.38 2.73.51 2.69.61 2.64.66 2.55.67 2.46.64 2.38.63 2.33.64 2.31.66 2.35.71 2.4.76 2.44.85 2.47.94 2.48 1.03 2.44 1.09 2.35 1.07 2.2 1.02 1.98 1.07 1.88 1.22 2m-13.19-73.85-3.46 2.24-2.76 1.96-2.31 2.33-3.36 2.61-4.3 2.7-4.49 2.65-4.31 2.57-4.19 2.5-4.17 2.44-3.99 2.42-3.42 2.41-2.4 2.41-1.15 2.45-.11 2.5.33 2.57.06 2.63-.7 2.68-1.53 2.72-2.05 2.72-2.18 2.67-2.05 2.58-1.83 2.46-1.63 2.37-1.96 2.47-3.59 3.02-5.75 4.22M72.94-23.57l3.12-2.73 6.44-2.45 6.64-2.54 3.37-2.5-.59-2.39-3.26-2.28-4.07-2.21-3.45-2.18-2.11-2.14-.64-2.13.54-2.11 1.24-2.09 1.43-2.05 1.18-1.98.74-1.87.35-1.79.19-1.71.27-1.67.46-1.66.49-1.68.16-1.71-.68-1.73-1.87-1.69-3.06-1.6-3.68-1.46-3.39-1.34-2.21-1.24.36-1.04m.78 50.46.24-1.76-.44-2.56-.01-2.57.34-2.41.27-2.28-.01-2.21-.2-2.19-.19-2.15-.08-2.14.01-2.12-.08-2.09-.34-2.03-.67-1.97-1.02-1.87-1.31-1.8-1.5-1.74-1.61-1.71-1.65-1.69-1.63-1.69-1.63-1.67-1.64-1.64-1.7-1.6-1.82-1.51-1.94-1.41-2.03-1.3-2.11-1.18-2.17-1.08-2.29-1-2.45-.94-2.64-.89-2.85-.86-3.07-.83-3.3-.76-3.58-.67-3.72-.56-3.07-.31" filter="url(#a)"/><path d="m71.25-28.42.56-1.42 1.72-1.96.98-2.12-.21-2.29-.72-2.46-.62-2.53-.35-2.5-.26-2.4-.36-2.25-.6-2.11-.85-2-1.09-1.94-1.36-1.93-1.66-1.94-1.96-1.94-2.16-1.92-2.2-1.85-2.05-1.74-1.79-1.63-1.55-1.54-1.46-1.49-1.55-1.49-1.7-1.45-1.74-1.36-1.41-1.13-.52-.57" filter="url(#a)"/><path d="m71.25-28.42 2.33-1.44 1.59-1.99.73-2.15.69-2.33.39-2.48-.24-2.55-.83-2.5-1.21-2.39-1.41-2.26-1.57-2.12-1.76-2.04L68-54.65l-2.15-1.96-2.3-1.94-2.41-1.92-2.44-1.87-2.41-1.81L54-65.88l-2.12-1.65-1.93-1.56-1.76-1.49L46.54-72l-1.6-1.34-1.65-1.28-1.74-1.2-1.87-1.12-2-1.08-2.1-1.02-2.19-.97-2.26-.92-2.35-.85-2.43-.77-2.41-.67-2.19-.54-1.9-.36-2.72-.25" filter="url(#a)"/><path d="m71.25-28.42 1.81-1.43 4.34-1.98 1.78-2.15-1.43-2.32-2.8-2.47-2.53-2.54-1.57-2.5-.64-2.39-.1-2.26.03-2.12-.13-2.02-.33-1.97-.45-1.95-.48-1.94-.46-1.93-.47-1.88-.59-1.82-.78-1.74-1.05-1.64-1.35-1.56-1.64-1.49-1.93-1.43-2.16-1.37-2.37-1.27-2.56-1.2-2.69-1.11-2.71-1.07-2.58-1.04-2.44-1.02-2.47-.94-2.6-.83-2.14-.59" filter="url(#a)"/><path d="m71.67-27.98-.9-3.27-.63-2.79.05-2.37.46-2.21.5-2.16.41-2.15.37-2.12.34-2.1.31-2.09.26-2.1.34-2.06.62-1.97 1.01-1.87L76.19-59l1.56-1.67 1.48-1.62 1.21-1.62.79-1.66.14-1.73-.84-1.8-1.71-1.81-1.25-1.59 2.75-.99" filter="url(#a)"/><path d="m71.16-29.19 3.55-2.58.66-2.21.8-2.32.3-2.51-.88-2.58-1.85-2.53-2.08-2.41-1.73-2.25-1.2-2.1-.86-2.02-.86-1.96-1.12-1.95-1.49-1.94-1.79-1.92-2-1.88-2.11-1.81-2.17-1.73-2.19-1.64-2.18-1.56-2.09-1.49L47.93-72l-1.75-1.35-1.55-1.27-1.45-1.19-1.49-1.13-1.7-1.07-2.06-1.02-2.47-.99-2.77-.93-2.93-.86-3.01-.79-3.19-.78-3.5-.81" filter="url(#a)"/><path d="m69.99-32.31-.62-1.76-.91-2.13-1.13-2.49-1.24-2.62-1.28-2.56-1.27-2.41-1.25-2.23-1.22-2.07-1.26-1.95-1.33-1.89-1.43-1.9-1.56-1.93-1.65-1.95-1.72-1.95-1.73-1.86-1.69-1.73-1.65-1.58-1.66-1.5-1.78-1.48-1.93-1.51-1.96-1.48-1.41-1.13" filter="url(#a)"/><path d="m69.99-32.31-.48-1.78-.09-2.18.05-2.52-.27-2.63-.55-2.57-.55-2.41-.4-2.24-.3-2.08-.37-1.99-.59-1.93-.87-1.93-1.16-1.94-1.42-1.93-1.6-1.89-1.7-1.82-1.72-1.73-1.64-1.63-1.47-1.55-1.32-1.49-1.25-1.43-1.36-1.36-1.63-1.28-1.98-1.18-2.27-1.1-2.44-1.06-2.47-1.05-2.45-1.04-2.6-.98-3.31-.99" filter="url(#a)"/><path d="M68.84-35.11 63.36-37l-.51-1.91-.42-2.15-1.19-2.19-1.63-2.15-1.65-2.12-1.55-2.11-1.5-2.1-1.53-2.04-1.57-1.96-1.57-1.87-1.52-1.77-1.47-1.72-1.45-1.68-1.52-1.68-1.67-1.68-1.87-1.68-2.04-1.64-2.17-1.59-2.19-1.51-2.15-1.4-2.07-1.29-1.97-1.18-1.9-1.07-1.9-.99-1.94-.93-2.03-.88-2.15-.86-2.22-.83-2.2-.76-2.07-.66-1.9-.56-1.66-.31" filter="url(#a)"/><path d="m69.47-34.14 1.43-2 1.54-2.66-.13-2.75-1.61-2.63-2.32-2.42-2.35-2.23-1.99-2.07-1.58-1.98-1.26-1.95-1.1-1.93-1.07-1.94-1.13-1.93-1.23-1.87-1.34-1.81-1.42-1.72-1.45-1.63L51-69.2l-1.49-1.48-1.57-1.41-1.71-1.33-1.92-1.27-2.16-1.19L39.79-77l-2.5-1.06-2.57-1.02-2.56-.96-2.53-.9-2.5-.83-2.48-.74-2.47-.65-2.49-.55-2.62-.46-3.02-.41-3.7-.4-3.48-.28" filter="url(#a)"/><path d="m68-37.48.85-1.36.22-2.19-.92-2.27-.96-2.16-.2-2.09.77-2.11 1.44-2.1 1.59-2.05 1.22-1.97.52-1.85-.32-1.76-1.18-1.7-1.94-1.67-2.56-1.67-2.91-1.68-2.92-1.68-2.57-1.65-1.98-1.61-1.33-1.51-.83-1.41-.67-1.29-.91-1.17-1.53-1.07-2.31-.97-2.99-.91-3.29-.89-3.19-.88-2.96-.86-2.96-.74-3.11-.39" filter="url(#a)"/><path d="m68.62-35.53 4.01-3.11 1.11-2.92-1.7-2.65-2.38-2.41-1.9-2.2-1.19-2.01-.63-1.91-.32-1.87-.23-1.89-.34-1.93-.56-1.95-.8-1.92-1.02-1.83-1.19-1.72-1.33-1.59-1.46-1.52-1.49-1.48-1.35-1.47-1.1-1.45-1.02-1.34-1.17-1.12-.93-.56" filter="url(#a)"/><path d="m67.51-38.79.1-3.05-.15-2.65-1.28-2.39-1.7-2.17-1.52-2-1.03-1.91-.49-1.88v-1.91l.28-1.94.31-1.94.07-1.89-.35-1.81-.86-1.71-1.37-1.62-1.76-1.53-1.99-1.47-2.03-1.42-1.93-1.34-1.74-1.26-1.64-1.18-1.76-1.11-2.13-1.06-2.63-1.02-3.06-.99-3.18-.93-2.93-.84-2.68-.76-3.74-.79" filter="url(#a)"/><path d="m67.51-38.79-.9-3.07-.15-2.66-.71-2.4-1.17-2.17-.91-2.01-.23-1.92.37-1.9.49-1.92.14-1.95-.44-1.93-.94-1.89-1.17-1.8-1.1-1.71-.89-1.62-.7-1.54-.7-1.46-.92-1.4-1.34-1.33-1.8-1.26-2.2-1.18-2.4-1.12-2.41-1.06-2.33-1.01-2.28-.96-2.41-.89-2.69-.83-3.08-.74-3.41-.65-3.57-.55-3.7-.46-4.13-.4-4.99-.4-4.95-.28" filter="url(#a)"/><path d="m65.65-42.21-1.19-2.55-1.07-2.33-1.02-2.15-1.04-1.97-1.06-1.88-1.04-1.88-1.04-1.91-1.12-1.95-1.3-1.94-1.52-1.89-1.73-1.81-1.91-1.7-2.01-1.61-2.05-1.53-2.03-1.47-1.99-1.39-1.94-1.33-1.91-1.25-1.92-1.18-1.98-1.12-2.08-1.06-2.17-1-2.26-.96-2.3-.89-2.31-.83-2.3-.74-2.26-.64-2.25-.55-2.34-.46-2.67-.4-3.17-.4-3.03-.28" filter="url(#a)"/><path d="m63.25-46.89 14.26-.87-4.61-1.98-5.42-2.27-2.39-2.18.21-1.98 1.4-1.8 1.33-1.69.4-1.64-.79-1.64-1.76-1.65-2.23-1.67-2.12-1.68-1.63-1.66-1-1.59-.54-1.51-.42-1.38-.75-1.27-1.4-1.15-2.13-1.05-2.63-.97-2.71-.91-2.5-.88-2.42-.86-2.84-.84-3.56-.76-4.03-.69-5.47-.82" filter="url(#a)"/><path d="m63.42-46.85-.51-2.71-.45-1.95-.96-1.76-1.18-1.83-1.38-1.91-1.6-1.98-1.76-1.97-1.81-1.91-1.77-1.8-1.74-1.69-1.76-1.6-1.84-1.52-1.96-1.45-2.07-1.39-2.14-1.31-2.2-1.24-2.22-1.17-2.24-1.11-2.25-1.05-2.26-.98-2.28-.93-2.29-.86-2.29-.79-2.28-.71-2.29-.62-2.32-.55-2.38-.46-2.46-.39-2.52-.31-2.54-.25-2.49-.17-2.42-.09h-2.38l-2.41.08-2.59.14-3.06.22-4.34.47" filter="url(#a)"/><path d="m63.15-46.83 3.54-2.66L65-52.11l-1.76-2.28-.99-1.98-.54-1.79-.47-1.68-.58-1.65-.76-1.65-.98-1.67-1.28-1.68-1.61-1.68-1.97-1.63-2.25-1.56-2.46-1.47-2.54-1.36-2.49-1.25-2.38-1.15-2.25-1.05-2.18-.98-2.18-.92-2.29-.86-2.44-.81-2.62-.75-2.78-.67-2.91-.6-3.02-.52-3.1-.44-3.18-.36-3.26-.28-3.38-.21-3.57-.13-3.85-.05-4.23.03-4.64.1-4.87.16-4.5.21-2.88.21" filter="url(#a)"/><path d="m63.15-46.83-1.02-2.66-.99-2.62-1.26-2.28-1.53-1.98-1.59-1.79-1.49-1.68-1.42-1.65-1.41-1.65-1.51-1.67-1.65-1.68-1.78-1.68-1.9-1.63-1.96-1.56-1.96-1.47-1.94-1.36-1.88-1.25-1.84-1.15-1.85-1.05-1.89-.98-2-.92-2.13-.86-2.28-.81-2.42-.75-2.52-.67-2.59-.6-2.63-.52-2.66-.44-2.67-.36-2.69-.28-2.71-.21-2.74-.13-2.81-.05-2.93.03-3.06.1-3.11.16-2.87.21-1.98.21" filter="url(#a)"/><path d="m61.18-50.33-.94-1.45-.88-1.53-.89-1.74-.79-1.91-.61-1.98-.43-1.99-.37-1.93-.45-1.8-.73-1.68-1.13-1.58-1.57-1.51-1.91-1.44-2.06-1.39-2.01-1.32-1.86-1.25-1.76-1.16-1.82-1.1-2.04-1.05-2.36-1-2.64-.96-2.79-.89-2.78-.83-2.65-.74-2.47-.65-2.34-.54-2.38-.43-3.1-.4-5.16-.59" filter="url(#a)"/><path d="m61.75-49.32-1.67-2.97-.38-2.3.16-1.93-.17-1.72-.5-1.63-.4-1.62-.12-1.63-.06-1.66-.43-1.68-1.08-1.68-1.71-1.65-2.05-1.57-2.06-1.48-1.8-1.36L48-75.45l-1.24-1.14-1.23-1.05-1.47-.97-1.9-.92-2.42-.87-2.89-.82-3.25-.76-3.48-.7-3.58-.62-3.61-.53-3.63-.44-3.69-.37-3.82-.31-3.83-.23-3.66-.12-3.84-.05" filter="url(#a)"/><path d="m60.07-52.07-.49-1.19-.43-1.77-.81-1.96-.96-2.02-.41-2.02.61-1.93 1.49-1.81 1.74-1.67 1.22-1.57.08-1.5-1.27-1.44-2.48-1.38-3.22-1.31-3.4-1.24-3.1-1.16-2.54-1.1-1.97-1.04-1.63-1-1.64-.94-1.96-.89-2.46-.81-2.9-.72-3.15-.64-3.29-.54-3.54-.46-4.06-.39-4.56-.36-4.35-.27-3.36-.13" filter="url(#a)"/><path d="m59.51-52.71-1.43-2.2-1.27-2.06L55.29-59l-1.78-2.05L51.69-63l-1.72-1.8-1.64-1.65-1.63-1.54-1.69-1.48-1.77-1.43-1.77-1.39-1.73-1.32-1.66-1.24L36.46-76l-1.68-1.08-1.86-1.04-2.12-1.01-2.35-.97-2.47-.91-2.43-.84-2.41-.77-2.62-.77-2.91-.8" filter="url(#a)"/><path d="m57.75-55.3 1.15-1.59 1.49-1.58.69-1.56-.06-1.59-.83-1.63-1.56-1.67-2.09-1.7-2.27-1.69-2.17-1.66-1.93-1.56L48.45-73l-1.62-1.34-1.65-1.23-1.78-1.13-1.97-1.04-2.16-.97-2.37-.9-2.57-.85-2.75-.8-2.91-.74-3.04-.66-3.13-.59-3.23-.51-3.29-.42-3.35-.35-3.39-.28L5.81-85l-3.45-.12-3.49-.05-3.58.04-3.73.1-3.91.18-4.06.24-4.2.32-4.22.41-3.43.47" filter="url(#a)"/><path d="m57.75-55.3 2.86-1.59.9-1.58-1.8-1.56-2.64-1.58-2.48-1.63-1.98-1.67-1.34-1.7-.76-1.69-.37-1.66-.28-1.57-.41-1.46-.65-1.34-.89-1.24-1.12-1.12-1.39-1.04-1.77-.97-2.23-.91-2.72-.85-3.12-.8-3.38-.74-3.48-.66-3.47-.6-3.43-.51-3.47-.43-3.59-.35-3.77-.27-3.97-.2-4.18-.13-4.4-.04-4.67.03-4.9.1-4.99.17-4.85.23-4.84.32-6.6.48" filter="url(#a)"/><path d="m57.75-55.3 2.33-1.57.98-1.55-.87-1.53-.85-1.56-.32-1.59-.2-1.64-.56-1.68-1.12-1.7-1.58-1.67-1.84-1.6-1.92-1.48-1.92-1.36-1.9-1.24-1.82-1.13-1.67-1.03-1.49-.94-1.45-.9-1.72-.87-2.36-.86-3.14-.83-3.59-.75-3.7-.68-4.93-.82" filter="url(#a)"/><path d="m56.37-56.87-.83-1.66.7-1.54.9-1.57-.36-1.62-1.82-1.67-2.67-1.7-2.78-1.71-2.48-1.67-2.08-1.57-1.77-1.46-1.62-1.34-1.61-1.23-1.68-1.12-1.79-1.03-1.91-.96-2.02-.9-2.13-.85-2.27-.8-2.41-.74-2.58-.67-2.74-.6-2.89-.51-3-.43-3.05-.35-3.07-.28-3.05-.2-3.06-.12-3.13-.05-3.27.03-3.47.1-3.59.17-3.41.2-2.46.21" filter="url(#a)"/><path d="m56.37-56.87 1.23-1.65-1.45-1.52-1.73-1.56-1.61-1.61-1.53-1.65-1.44-1.7-1.27-1.71-1.07-1.67-.93-1.58-.98-1.47-1.22-1.35-1.62-1.22-2.03-1.12-2.32-1.03-2.47-.96-2.48-.9-2.46-.86-2.48-.82-2.55-.77-2.63-.7-2.67-.61-2.66-.53-2.7-.43-2.87-.37-3.15-.33-3.18-.25H3.71" filter="url(#a)"/><path d="m54.99-58.74-1.18-1.37-.55-1.51.17-1.61.32-1.65-.19-1.69-.9-1.72-1.48-1.68-1.83-1.59-2.03-1.47-2.18-1.34-2.32-1.22-2.42-1.11-2.43-1.02-2.34-.94-2.22-.9-2.13-.86-2.16-.83-2.3-.78-2.46-.72-2.56-.62-2.51-.52-2.44-.41-2.67-.33-3.61-.32" filter="url(#a)"/><path d="m52.75-61.11 1.17-2.24.12-1.69-.77-1.71-1.96-1.77-2.78-1.71-3.1-1.59-3.08-1.45-2.85-1.32-2.56-1.19-2.27-1.1-2.06-1-1.95-.95-1.95-.88-2.02-.84-2.13-.79-2.26-.73-2.35-.65-2.44-.58-2.5-.5-2.54-.41-2.59-.34-2.63-.26L4.54-85l-2.8-.11-2.92-.04-3.04.04-3.16.11-3.21.19-3.19.25-3.11.33-3.05.42-3.09.52-3.53.63" filter="url(#a)"/><path d="m50.01-64.2-1.57-1.54-1.01-1.36-.97-1.37-1.33-1.43-1.68-1.44-1.84-1.39-1.82-1.31-1.76-1.2-1.69-1.13-1.66-1.07-1.7-1.01-1.76-.96-1.83-.91-1.92-.83-2.02-.76-2.15-.68-2.32-.59-2.53-.51-2.74-.43-2.93-.36-3.08-.29-3.16-.21-3.22-.14-3.29-.06-3.42.02-3.64.09-3.92.16-4.23.24-4.45.31-4.54.4-4.54.5-4.53.61-4.69.71-5.22.89-6.76 1.26" filter="url(#a)"/><path d="M50.01-64.2 49-65.72l-.16-1.33.12-1.34.75-1.4 1.15-1.44.67-1.39-.59-1.31-1.88-1.2-2.62-1.11-2.7-1.06-2.47-1.01-2.25-.98-2.18-.94-2.25-.87-2.35-.8-2.46-.71-2.59-.63-2.77-.52-3.06-.44-3.64-.39-4.41-.39-4.17-.28" filter="url(#a)"/><path d="m49.84-64.15-.58-1.02-.82-1.56-1.29-1.78-1.45-1.75-1.42-1.61-1.52-1.44-1.72-1.3-1.86-1.18-1.78-1.08-1.54-1-1.35-.92-1.37-.89-1.7-.84-2.19-.81-2.67-.75-2.97-.68-3.03-.59-2.94-.51-2.83-.43-2.81-.35-2.87-.3-2.96-.22-2.99-.13-3-.07-3.1-.08" filter="url(#a)"/><path d="m49.84-64.15 3.92-1.04-2.19-1.59-2.5-1.8-2.14-1.76-2.05-1.6-1.99-1.44-1.77-1.31-1.45-1.18-1.23-1.08-1.26-1-1.56-.94-2.05-.88-2.53-.83-2.9-.78-3.07-.72-3.08-.64-2.98-.56-2.89-.49-2.84-.4-2.87-.33-2.95-.24-3.08-.18-3.23-.09-3.4-.02-3.6.05-3.84.14-4.13.2-4.45.29-4.81.37-5.11.45-5.26.54-5.2.63-4.91.7-4.54.79-4.36.85-4.62.88-4.52.68" filter="url(#a)"/><path d="m49.31-64.9-1.72-1.68-2.25-1.97-2.19-1.83-2.07-1.61-1.99-1.42-1.91-1.29-1.8-1.16-1.7-1.07-1.63-.99-1.68-.92-1.83-.88-2.06-.84-2.28-.8-2.46-.74-2.54-.67-2.53-.59-2.46-.5-2.4-.43-2.37-.35-2.37-.28-2.38-.21-2.39-.14-2.41-.06h-2.6l-3.07.12" filter="url(#a)"/><path d="m47.83-66.17-.54-2.44-2.3-1.94-2.43-1.59-2.13-1.4-1.69-1.26-1.32-1.15L36.26-77l-1.22-.98-1.44-.91-1.77-.88-2.11-.83-2.35-.79-2.49-.74-2.5-.66-2.46-.58-2.44-.49-2.5-.42-2.68-.34-2.92-.27-3.19-.2-3.43-.12-3.72-.05-4.08.03-4.55.11-5.06.18-5.56.19" filter="url(#a)"/><path d="m47.83-66.17-2.29-2.45-1.81-1.94-1.02-1.6-.6-1.4-.63-1.26-.82-1.15-1.05-1.06-1.28-.98-1.55-.92-1.9-.87-2.3-.83-2.69-.78-2.99-.73-3.12-.65-3.09-.57-2.99-.49-2.89-.4-2.89-.33-3.02-.26-3.28-.18-3.59-.11-3.93-.03-4.24.05-4.47.11-4.57.19-4.52.25-4.45.33-4.47.42-4.64.52-5.32.63" filter="url(#a)"/><path d="m43.34-70.05-.52-1.58-2.33-1.46-2.05-1.29-1.48-1.15-1.12-1.07-1.1-1.02-1.2-1-1.32-.96-1.36-.89-1.42-.83-1.58-.74-1.89-.66-2.34-.57-2.81-.49-3.22-.41-3.5-.34-3.61-.27-3.64-.19-3.62-.11-3.64-.05-3.71.04-3.84.11-4 .19-4.15.27-4.28.35-4.38.44-4.49.53-4.63.62-4.82.71-5.06.78-5.38.84-5.82.87-6.27.87-6.38.86-5.78.79-5.8.77" filter="url(#a)"/><path d="m43.34-70.05-.14-1.57-.22-1.46-1.29-1.29-2.14-1.14-2.59-1.06-2.68-1.03-2.6-.99-2.45-.96-2.33-.9-2.26-.83-2.24-.75-2.24-.66-2.27-.58-2.33-.5-2.41-.42-2.49-.34-2.59-.28-2.63-.2-2.67-.14-2.68-.05-2.71.02-2.8.1-2.92.17-3.08.24-3.25.31-3.4.41-3.53.5-3.63.6-3.74.71-3.96.89-4.51 1.26" filter="url(#a)"/><path d="m41.79-70.99 1.44-1.51 1.18-1.25-.3-1.2-2.23-1.13-3.13-1.03-2.97-.95-2.33-.89-1.82-.85-1.59-.83-1.62-.8-1.78-.74-1.97-.66-2.18-.58-2.44-.49-2.76-.41-3.09-.34-3.38-.28-3.61-.21-3.75-.13-3.99-.06h-4.54l-5.61.12" filter="url(#a)"/><path d="m41.79-70.99.95-1.52-2.14-1.27-2.39-1.21-1.86-1.13-1.26-1.04-.89-.96-.85-.89-1.17-.87-1.69-.82-2.23-.78-2.62-.72-2.87-.64-2.98-.56-3-.48-3.02-.39-3.04-.32-3.07-.25-3.14-.17-3.26-.09-3.43-.02-3.69.05-4 .12-4.33.2-4.64.27-4.85.35-4.92.44-4.9.54-4.89.63-4.82.71-4 .77" filter="url(#a)"/><path d="m41.71-71.61-4.51-1.6-4.94-1.27-3.45-1.11-2.37-1.03-2.05-1.01-1.91-.99-1.69-.96-1.46-.91-1.41-.83-1.52-.74-1.74-.66-1.96-.58-2.09-.49-2.09-.42-1.99-.34-1.83-.28-1.62-.2-1.43-.14-1.25-.05-1.09.02-.95.09-.8.17-.65.23-.52.31-.48.4-.54.49-.6.58-.4.64-.08.69" filter="url(#a)"/><path d="m39.79-72.96 2.14-.89.41-1.17-.43-1.14-.68-1.03-.35-.93-.34-.88-1.14-.85-2.47-.83-3.66-.79-4.21-.73-4.09-.66-3.62-.57-3.16-.48-2.92-.41-2.92-.33-3.06-.27-3.2-.2-3.37-.13-3.65-.04-4.16.02-4.88.13-5.66.24" filter="url(#a)"/><path d="m38.36-73.61-1.32-1.04-1.73-1.05-1.88-1-2.03-1-2.17-1-2.24-.96-2.26-.91-2.24-.82-2.21-.73-2.17-.65-2.18-.56-2.2-.48-2.24-.4-2.3-.33-2.33-.25-2.34-.18-2.34-.11-2.34-.03-2.35.05-2.38.12-2.42.2-2.48.29-2.54.36-2.59.45-2.65.54-2.68.63-2.69.71-2.66.78-2.58.82-2.44.86-2.28.88-2.13.91-2.04.95-2.06 1.02-2.22 1.14-2.35 1.24-2.34 1.26" filter="url(#a)"/><path d="m38.36-73.61.85-1.02-.85-1.04.4-.97 1.21-.98.57-.99-.96-.97-2.47-.91-3.45-.84-3.83-.75-3.77-.66-3.47-.58-3.13-.49-2.91-.42-2.88-.36-3.01-.3-3.18-.23-3.34-.16-3.45-.08-3.62.01-3.92.09-4.26.1-3.95-.03" filter="url(#a)"/><path d="m38.73-73.49-1.22-1.55-2.06-1.23-1.78-1.02-1.55-.91-1.62-.87-1.91-.84-2.22-.83-2.42-.78-2.51-.73-2.5-.65-2.46-.55-2.44-.48-2.42-.39-2.45-.32-2.48-.25-2.51-.18-2.55-.11-2.62-.03-2.72.04-2.84.11-2.87.18-2.82.23-2.86.31-3.74.48" filter="url(#a)"/><path d="m37.6-74.42-.45-1.35-.66-.95-1.58-.97-2.42-1.01-2.65-.97-2.5-.91-2.28-.83-2.14-.74-2.17-.65-2.26-.56-2.41-.48-2.52-.4-2.62-.34-2.66-.27-2.69-.2-2.71-.12-2.75-.05-2.84.03-2.97.1-3.13.18-3.28.24-3.41.32-3.53.4-3.71.5-3.98.61-4.26.71-4.45.88-5 1.26" filter="url(#a)"/><path d="m31.28-77.64-1.68-1.19-1.26-1.04-1.64-.91-2.19-.81-2.39-.71-2.25-.63-2.06-.53-1.98-.46-2.11-.39-2.37-.32-2.67-.26-2.92-.19-3.12-.11-3.26-.04-3.41.04-3.6.11-3.82.19-4.03.25-4.24.33-4.41.41-4.59.52-4.78.61-4.97.72-5.23.83-5.63.91-5.41.72" filter="url(#a)"/><path d="m29.8-78.57-.96-.66-.98-.82-1.39-.87-1.94-.81-2.36-.73-2.56-.62-2.6-.52-2.59-.44-2.6-.35-2.65-.29-2.75-.22-2.89-.14-3.06-.07h-3.25l-3.43.08-3.59.15-3.69.23-3.78.3-3.84.38-3.95.47-4.1.55-4.3.63-4.49.71-4.67.78-4.85.82-5.19.83-5.71.76-5.11.67" filter="url(#a)"/><path d="m29.8-78.57-1.13-.65-1.97-.81-2.34-.86-2.46-.82-2.43-.73-2.36-.62-2.28-.53-2.23-.44-2.22-.37-2.23-.29-2.25-.24-2.27-.16-2.3-.08-2.36-.02-2.43.06-2.5.13-2.53.19-2.51.26-2.47.33-2.43.42-2.34.52-2.39.62" filter="url(#a)"/><path d="m29.8-78.57.9-.65-2.33-.81-2.72-.86-2.55-.82-2.44-.73-2.46-.62-2.47-.53-2.47-.44-2.42-.37-2.38-.29-2.37-.24-2.38-.16-2.45-.08-2.56-.02-2.69.06-2.86.13-2.98.19-3.09.26-3.17.33-3.28.42-3.35.52-3.53.62" filter="url(#a)"/><path d="m29.8-78.57.22-.65-.13-.81-1.73-.86-2.71-.82-2.89-.73-2.69-.62-2.48-.53-2.41-.44-2.47-.37-2.59-.29-2.71-.24-2.8-.16-2.86-.08-2.94-.02-3.06.06-3.16.13-3.23.19-3.22.26-3.18.33-3.17.42-3.3.52-3.77.62" filter="url(#a)"/><path d="m28.74-79.08-1.98-.94-2.28-.91-2.53-.84-2.54-.73-2.42-.62-2.3-.51-2.23-.43-2.22-.36-2.22-.29-2.24-.23-2.27-.15-2.3-.08-2.34-.01-2.4.07-2.43.13-2.44.2-2.41.27-2.36.35-2.33.43-2.29.53-2.31.62-2.43.74" filter="url(#a)"/><path d="m26.38-80.25-.46-.73-1.62-.76-2.6-.69-2.77-.62-2.6-.52-2.45-.44-2.41-.36-2.44-.31-2.45-.23-2.46-.17-2.47-.08-2.52-.01-2.6.07-2.7.14-2.81.23-2.93.3-3.04.38-3.11.48-3.17.56-3.16.64-3.11.72-3.02.78-2.94.82-2.91.87-3 .9-3.19.93-3.49.99-3.88 1.07-4.26 1.17-4.59 1.28-4.81 1.39-4.77 1.49-4.17 1.6-3.1 1.91" filter="url(#a)"/><path d="m24.17-80.89-1.45-.87-2.42-.71-2.46-.62-2.28-.52-2.21-.43-2.26-.36-2.32-.3-2.34-.25-2.31-.17-2.29-.1-2.28-.02-2.33.06-2.41.12-2.5.2-2.59.27-2.68.35-2.76.43-2.84.53-2.94.63-3 .72-3 .8-2.92.85-2.87.87-3.09.93-3.87 1.2" filter="url(#a)"/><path d="m21.2-82.02-1.65-.53-1.92-.61-1.93-.51-2.05-.41-2.25-.35-2.38-.3-2.44-.24-2.47-.17-2.52-.08-2.65-.01-2.82.06-3.08.14-3.35.22-3.62.28-3.88.37-4.12.46-4.35.54-4.54.64-4.65.72-4.7.79-4.73.83-4.85.86-5.01.87-4.97.87-4.46.88-3.99.98-6.25 1.34" filter="url(#a)"/><path d="m21.09-82.19-3.33-.63-2.87-.51-2.39-.46-2.24-.39-2.17-.33-2.1-.27-1.96-.21-1.81-.13-1.66-.06-1.52.02-1.41.09-1.31.16-1.25.23-1.18.3-1.07.38-.86.47-.58.55-.33.63-.27.71-.45.78-.65.85-.39.87.96.66" filter="url(#a)"/><path d="m20.1-82.39-1.13-.81-1.33-.54-1.64-.4-2.32-.33-2.83-.29-3.02-.23-2.96-.16-2.83-.07-2.75.01-2.76.08-2.87.17-3.01.23-3.16.32-3.23.4-3.25.49-3.21.58-3.17.66-3.16.72-3.22.79-3.33.84-3.46.88-3.59.91-3.7.97-3.82 1.02-3.98 1.11-4.19 1.19-4.36 1.29-4.4 1.37-4.2 1.45-3.81 1.52-3.45 1.58-3.49 1.65-4.06 1.76-4.8 1.82-5.43 1.49" filter="url(#a)"/><path d="m20.1-82.39-5.27-.81-1.62-.53-1.25-.39-1.74-.34-2.13-.3L5.88-85l-2.07-.17-1.84-.09-1.63-.02-1.52.07-1.49.13-1.5.2-1.48.26-1.36.35-1.13.43-.82.52-.46.63-.18.72v.8l.06.85.13.8.49.71" filter="url(#a)"/><path d="m20.1-82.39-.85-.81-.11-.54-1.85-.39-3.16-.34-3.52-.29L7.29-85l-2.98-.15-2.74-.08h-2.64l-2.69.08-2.85.15-3.07.23-3.32.3-3.56.39-3.79.47-3.96.57-4.11.65-4.26.72-4.4.79-4.5.83-4.49.86-4.33.89-3.99.93-3.62.97-3.42 1.05-3.66 1.16-4.3 1.27-4.99 1.39-5.32 1.45-5.31 1.28" filter="url(#a)"/><path d="m17.95-83.02-.61-.36-1.98-.46-2.27-.39-2.39-.32-2.42-.26-2.45-.2-2.55-.12-2.72-.04-2.92.03-3.12.1-3.31.18-3.49.24-3.67.33-3.87.4-4.05.49-4.2.57-4.39.65-4.67.71-5.1.76-5.5.79-5.59.8-5.07.8-4.13.83-3.78.96-5.78 1.37-11.87 2.41" filter="url(#a)"/><path d="m13.91-84.19-.73-.03-2.08-.28-2.37-.31-2.31-.25-2.3-.16-2.42-.08H-.92l-2.84.08-3.07.15-3.32.21-3.63.28-3.99.36-4.35.45-4.65.55-4.89.64-5.01.72-5.05.8-4.94.84-4.72.86-4.55.88-4.88.86-5.64.6" filter="url(#a)"/><path d="m12.99-84.28-1.23-.11-1.54-.24-2.02-.25-2.35-.19-2.52-.1-2.65-.03-2.77.06-2.89.13-3 .2-3.08.28-3.1.36-3.08.44-3.05.52-3.03.6-3.09.67-3.23.72-3.43.78-3.64.84-3.8.89-3.88.96-3.95 1.05-4.05 1.16-4.29 1.25-4.63 1.34-5.03 1.4-5.28 1.44-5.26 1.47-4.94 1.51-4.49 1.59-4.23 1.71-4.44 1.86-5.07 2.03-5.66 2.16-5.22 2.09-1.7 1.51" filter="url(#a)"/><path d="m14.35-84.01-3.06-.43-2.98-.39-2.57-.27-2.27-.16-2.13-.06-2.12.01-2.2.09-2.3.16-2.4.23-2.45.3-2.46.38-2.45.47-2.46.56-2.47.65-2.5.73-2.51.79-2.49.84-2.44.85-2.37.87-2.29.88-2.27.91-2.36 1-2.57 1.16-2.29 1.21" filter="url(#a)"/><path d="m14.35-84.01-2.99-.43-2.95-.39-2.58-.27-2.3-.16-2.15-.07-2.15.02-2.21.09-2.32.16-2.46.22-2.59.29-2.73.38-2.86.46-2.98.56-3.04.65-3.04.73-3.01.79-2.98.84-3 .85-3.02.86-2.98.86-2.9.88-3.14.97-4.25 1.34" filter="url(#a)"/><path d="m11.72-84.27-1.19-.32-2.54-.3-2.58-.22-2.48-.11-2.52-.02-2.67.05-2.85.12-2.97.19-3.01.27-2.97.34-2.87.42-2.84.5-2.91.58-3.14.66-3.49.72-3.92.76-4.31.79-4.58.82-4.66.85-4.53.93-4.34 1.08-4.29 1.31-4.36 1.53-4.02 1.54-3.96 1.25" filter="url(#a)"/><path d="m11.72-84.27-2.03-.32-2.39-.31-2.41-.21-2.41-.1-2.49-.02-2.61.06-2.71.13-2.74.2-2.73.28-2.71.35-2.7.44-2.7.52-2.73.6-2.73.66-2.71.73-2.61.77-2.5.82-2.42.87-2.42.94-2.59 1.04-2.91 1.14-3.3 1.26-3.67 1.35-3.87 1.41-3.84 1.43-3.57 1.43-3.21 1.45-2.93 1.51-2.97 1.62-3.41 1.78-3.94 2.08" filter="url(#a)"/><path d="m11.59-84.37-3.51-.53-2.5-.26-2.23-.14-2.22-.05-2.28.04-2.38.11-2.46.18-2.5.25-2.51.33-2.52.42-2.57.51-2.65.59-2.75.68-2.87.75-2.95.8-2.99.84-2.99.89-2.94.93-2.87.98-2.8 1.05-2.72 1.12-2.69 1.2-2.7 1.3-2.81 1.39-2.99 1.46-3.21 1.53-3.39 1.61-3.42 1.7-3.26 1.78-2.94 1.87-2.68 1.93-2.81 1.93-3.49 1.94-4.29 2.55" filter="url(#a)"/><path d="m11.59-84.37-3.61-.53-2.55-.26-2.2-.14-2.14-.05-2.22.03-2.38.1-2.59.18-2.77.24-2.89.32-2.93.4-2.9.49-2.8.58-2.71.67-2.66.74-2.7.8-2.82.83-2.99.87-3.11.9-3.12.94-3.01 1-2.85 1.07-2.72 1.18-2.77 1.28-3.05 1.38-3.56 1.46-4.11 1.5-4.37 1.45-3.49 1.04" filter="url(#a)"/><path d="m10.04-84.58-3.11-.36-2.41-.22-2.15-.1-2.15-.01-2.24.07-2.3.13-2.31.21-2.27.28-2.2.35-2.13.44-2.03.52-1.92.6-1.79.67-1.65.72-1.49.78-1.35.81-1.25.87-1.22.93-1.24 1.02-1.3 1.14-1.36 1.26-1.4 1.37-1.39 1.42-1.31 1.42-1.12 1.41-.76 1.42-.28 1.48.05 1.58-.33 1.58" filter="url(#a)"/><path d="m6.83-85.17-1.02-.09-2.08-.09-2.53-.03-2.76.04-2.87.12-2.98.18-3.12.26-3.29.34-3.44.42-3.5.52-3.49.6-3.45.68-3.41.75-3.43.81-3.46.85-3.51.9-3.55.93-3.62.99-3.74 1.06-3.93 1.13-4.19 1.22-4.44 1.3-4.65 1.39-4.78 1.47-4.87 1.55-4.98 1.62-5.13 1.71-5.29 1.78-5.37 1.87-5.35 1.93-5.26 1.99-5.31 2.07-5.81 2.2-6.9 2.39-7.31 2.53" filter="url(#a)"/><path d="m6.77-84.95-2.47-.29-1.99-.07-2.01.01-2.11.08-2.19.13-2.2.21-2.18.29-2.1.36-2 .44-1.85.53-1.69.61-1.51.67-1.38.73-1.32.78-1.32.82-1.37.87-1.4.93-1.39 1.04-1.27 1.14-1.11 1.27-.93 1.35-.83 1.42-.83 1.42-.86 1.42-.83 1.45-.7 1.51-.64 1.62-.74 1.78-.51 2.07" filter="url(#a)"/><path d="m4.83-85.26-1.81-.1L1-85.42l-2.11.05-2.3.12-2.5.19-2.6.26-2.63.34-2.59.43-2.57.52-2.58.61-2.59.69-2.59.76-2.59.81-2.55.86-2.55.89-2.56.94-2.59.99-2.64 1.06-2.68 1.14-2.7 1.22-2.72 1.31-2.76 1.4-2.87 1.47-3.03 1.55-3.25 1.63-3.43 1.71-3.53 1.79-3.48 1.86-3.29 1.94-3.02 2-2.83 2.06-2.87 2.14-3.1 2.14-3.25 1.9-3.02.99" filter="url(#a)"/><path d="m3.75-85.51-1.53.14-2.16.05-2.63.08-2.86.14-2.85.22-2.68.29-2.47.38-2.3.46-2.21.54-2.22.62-2.28.69-2.41.74-2.6.79-2.82.84-3.09.91-3.32.97-3.49 1.07-3.56 1.17-3.51 1.27-3.45 1.35-3.41 1.4-3.49 1.45-3.69 1.49-3.94 1.55-4.12 1.64-4.1 1.74-3.81 1.87-3.25 1.99-2.64 2.09-2.22 2.12-2.29 2.09-2.8 1.95-3.44 1.67-4.12 1.29" filter="url(#a)"/><path d="m3.39-85.33-2.42-.13-2.05.04-2.2.14-2.42.2-2.51.25-2.51.34-2.47.42-2.45.51-2.5.61-2.55.69-2.6.76-2.62.81-2.63.85-2.6.89-2.54.92-2.47.98-2.37 1.03-2.29 1.12-2.3 1.2-2.41 1.3-2.62 1.38-2.91 1.46-3.16 1.53-3.29 1.6-3.25 1.68-3.03 1.78-2.69 1.88-2.31 1.95-1.9 1.83-1.43.94" filter="url(#a)"/><path d="m.25-85.6-1.46.12-2.03.18-2.34.21-2.47.26-2.53.34-2.55.43-2.58.53-2.64.62-2.68.71-2.7.77-2.71.82-2.71.87-2.71.9-2.69.94-2.62 1-2.56 1.07-2.51 1.14-2.51 1.23-2.59 1.32-2.71 1.41-2.86 1.48-2.98 1.56-3.03 1.64-3 1.72-2.93 1.79-2.84 1.87-2.8 1.94-2.83 2-2.93 2.04-3.01 2.07-2.97 2.04-2.69 1.99-2.44 1.97-2.89 2.36-4.87 3.72" filter="url(#a)"/></g><path fill="none" stroke="#000" stroke-linejoin="round" stroke-width="3" d="M-11.52 7.58Q8.53 7.695-1.495-5.042" filter="url(#a)"/><path fill="#D77F8C" stroke="#000" stroke-linejoin="round" stroke-width="3" d="m38.47 71.87-.48.34-.11.29.21-.22-.29.81-.16-.16-.74 1.27-.01-.12-.3.1-.28.37h-.09l-.03.29-2.11 1.31.65-.37-.3.09-.82.62-.9.34-1.28.61.47-.25-2.36.7 1.7-.44-1.72.47-1.86.5.7-.16-2.56.51-.2-.02-.4.12-.55.09.15-.05-.72.05-3.64.35-.65.03.28-.08-1.68.09-.23-.04-1.3.01-2.33-.07.1.03-.92-.03.01-.04h-.28l-3.08-.24-2.02-.22-.96-.12.5.05-3.16-.47.97.16-2.73-.47.06.01-1.61-.32-1.05-.23-.39-.09.36.08-3.09-.75-1.69-.46 1.52.42-4.18-1.19-.34-.12-1.05-.34 1.08.34-3.64-1.26-.5-.22 1.29.47-.83-.28-3.12-1.26-1.56-.68 1.59.67-.22-.12-3.14-1.49.49.25-1.65-.85-1.65-.9.7.41.21.12-2.14-1.21-.48-.41-1.14-.67-1.63-1.23 1.33 1.03-.35-.41-1.44-.99-1.46-1.4-.22-.18.55.46-1.61-1.73-.17-.05-.05-.29-.4-.23-.79-1.12-.13-.45.09.27-.45-1.21-.2-.2-.32-1.07-.27-.64.04-.44-.09-.46.22-.26v-.45l.03.7.16-1.28-.13.24.29-.96.43-.64-.29.34.42-.78-.05.11.3-.66.69-.71.24-.38.74-.41-.12-.04.66-.42 1.01-.46.5-.43h.08l-.37.29 2.07-.97-.31.04.91-.18 1.95-.76-.04.08.57-.11-.39.12 2.59-.54.22-.07-.61.06 3.25-.48.11.01.53-.08.41-.01.29-.04.71-.03 3.65-.13-.17.02 2.43.06.03-.01h.58l2.2.15-.69-.06.37.02 3.78.34-.19-.01.23.01 2.95.4-1.91-.28 2.56.37.4.06 3.45.63-2.17-.4 3.44.67.68.15.33.08.74.17 1.36.33 1.51.41 1.77.5-.93-.27 3.98 1.24v.01l-.01-.04 1.13.42 2.99 1.12-.31-.12 2.17.9-.73-.27 2.88 1.24-.98-.41 1.79.84-.1-.01 2.25 1.16-1.25-.68 2.51 1.44 1.59.94.56.34.26.28.99.65-1.21-.78.24.17 2.55 2.02-.53-.56.27.3.64.51.72.65.84.94.8 1.22-.34-.45.84.99-.16-.15.86 1.15-.04-.13-.14.13.66 1.68.01.45-.02-.55.16 1.18-.02-.69.13 1.04-.28 1.25.29-.63" filter="url(#a)"/></svg>