<svg viewBox="-100 -100 200 200" xmlns="http://www.w3.org/2000/svg" width="500" height="500" id="face-svg">
    <defs>
      <clipPath id="leftEyeClipPath">
        <polyline points="33.52,2.15 33.24,1.81 32.92,1.45 32.55,1.07 32.14,0.68 31.69,0.27 31.19,-0.15 30.66,-0.58 30.1,-1.02 29.49,-1.46 28.86,-1.91 28.19,-2.35 27.5,-2.79 26.78,-3.23 26.03,-3.67 25.25,-4.1 24.39,-4.74 23.48,-5.37 22.55,-5.97 21.59,-6.56 20.6,-7.11 19.58,-7.64 18.54,-8.14 17.48,-8.61 16.4,-9.04 15.3,-9.44 14.2,-9.81 13.08,-10.14 11.95,-10.43 10.81,-10.68 9.67,-10.9 8.53,-11.07 7.38,-11.21 6.24,-11.31 5.11,-11.37 3.98,-11.4 2.86,-11.38 1.75,-11.33 0.65,-11.25 -0.43,-11.13 -1.5,-10.97 -2.55,-10.78 -3.58,-10.56 -4.59,-10.31 -5.57,-10.03 -6.54,-9.72 -7.48,-9.39 -8.39,-9.02 -9.28,-8.64 -10.14,-8.23 -10.97,-7.8 -11.77,-7.35 -12.54,-6.88 -13.29,-6.4 -14,-5.9 -14.69,-5.39 -15.34,-4.86 -15.96,-4.33 -16.55,-3.78 -17.12,-3.23 -17.65,-2.68 -18.15,-2.11 -18.63,-1.55 -19.08,-0.99 -19.5,-0.42 -19.89,0.15 -20.26,0.71 -20.61,1.28 -20.92,1.85 -21.22,2.42 -21.49,2.99 -21.73,3.56 -21.95,4.13 -22.14,4.7 -22.31,5.27 -22.46,5.84 -22.59,6.4 -22.69,6.96 -22.77,7.52 -22.82,8.08 -24.16,14.71 -23.71,14.85 -23.25,14.98 -22.78,15.11 -22.29,15.22 -21.79,15.33 -21.29,15.42 -20.77,15.51 -20.24,15.58 -19.7,15.64 -19.15,15.7 -18.58,15.73 -18.01,15.76 -17.43,15.77 -16.84,15.77 -16.24,15.76 -15.62,15.73 -14.99,15.7 -14.35,15.65 -13.69,15.58 -13.03,15.5 -12.35,15.41 -11.66,15.29 -10.96,15.16 -10.25,15.01 -9.53,14.85 -8.8,14.67 -8.06,14.47 -7.31,14.25 -6.55,14.02 -5.78,13.77 -5.01,13.5 -4.22,13.22 -3.43,12.93 -2.63,12.63 -1.82,12.31 -1,11.99 -0.17,11.66 0.66,11.32 1.5,10.97 2.34,10.62 3.2,10.28 4.06,9.93 4.92,9.58 5.8,9.24 6.68,8.91 7.57,8.58 8.46,8.27 9.36,7.97 10.26,7.68 11.17,7.41 12.08,7.16 13,6.93 13.93,6.72 14.85,6.54 15.78,6.38 16.72,6.25 17.65,6.15 18.58,6.08 19.52,6.04 20.45,6.03 21.38,6.05 22.31,6.1 23.23,6.18 24.15,6.28 24.87,6.21 25.59,6.14 26.29,6.07 26.98,6.02 27.65,5.96 28.31,5.91 28.94,5.86 29.56,5.81 30.15,5.77 30.71,5.71 31.25,5.65 31.76,5.59 32.24,5.51 32.68,5.43 33.09,5.32" />
      </clipPath>
      <clipPath id="rightEyeClipPath">
        <polyline points="-29.81,1.61 -29.31,1.57 -28.76,1.51 -28.18,1.43 -27.56,1.33 -26.91,1.2 -26.22,1.06 -25.5,0.9 -24.75,0.73 -23.97,0.54 -23.16,0.35 -22.33,0.14 -21.48,-0.08 -20.61,-0.3 -19.71,-0.53 -18.8,-0.76 -17.75,-1.11 -16.67,-1.45 -15.58,-1.8 -14.46,-2.14 -13.32,-2.47 -12.17,-2.8 -11.01,-3.12 -9.84,-3.43 -8.66,-3.72 -7.48,-4 -6.29,-4.27 -5.1,-4.52 -3.92,-4.75 -2.73,-4.96 -1.56,-5.15 -0.39,-5.33 0.77,-5.48 1.91,-5.61 3.04,-5.71 4.16,-5.79 5.26,-5.85 6.33,-5.89 7.39,-5.9 8.42,-5.89 9.43,-5.86 10.42,-5.8 11.37,-5.72 12.3,-5.61 13.2,-5.48 14.07,-5.33 14.91,-5.16 15.72,-4.97 16.49,-4.76 17.23,-4.52 17.94,-4.27 18.61,-4 19.25,-3.72 19.85,-3.41 20.42,-3.09 20.96,-2.76 21.46,-2.41 21.93,-2.05 22.36,-1.69 22.76,-1.31 23.12,-0.92 23.46,-0.52 23.76,-0.12 24.04,0.29 24.28,0.7 24.49,1.12 24.68,1.54 24.84,1.96 24.97,2.39 25.07,2.83 25.14,3.27 25.19,3.71 25.21,4.16 25.2,4.61 25.16,5.06 25.1,5.52 25.01,5.97 24.89,6.43 24.76,6.89 24.59,7.35 24.09,11.64 23.45,11.76 22.8,11.86 22.13,11.96 21.44,12.05 20.75,12.12 20.03,12.19 19.3,12.24 18.56,12.28 17.81,12.31 17.04,12.32 16.26,12.32 15.47,12.31 14.66,12.28 13.85,12.24 13.02,12.18 12.18,12.11 11.32,12.02 10.45,11.92 9.56,11.8 8.66,11.67 7.75,11.52 6.83,11.35 5.9,11.15 4.96,10.94 4.02,10.72 3.07,10.47 2.11,10.2 1.15,9.91 0.18,9.61 -0.79,9.29 -1.76,8.96 -2.73,8.6 -3.69,8.24 -4.66,7.86 -5.63,7.48 -6.59,7.08 -7.54,6.68 -8.49,6.27 -9.43,5.86 -10.37,5.45 -11.3,5.04 -12.21,4.63 -13.12,4.23 -14.02,3.84 -14.9,3.46 -15.77,3.09 -16.63,2.74 -17.48,2.41 -18.31,2.1 -19.12,1.82 -19.92,1.56 -20.7,1.33 -21.47,1.13 -22.22,0.97 -22.94,0.83 -23.65,0.74 -24.34,0.68 -25.01,0.67 -25.66,0.69 -26.29,0.75 -26.9,0.86 -27.48,1.01 -28.04,1.19 -28.57,1.42 -29.03,1.42 -29.46,1.44 -29.87,1.46 -30.25,1.5 -30.61,1.55 -30.94,1.61 -31.24,1.68 -31.51,1.76 -31.76,1.84 -31.97,1.93 -32.14,2.01 -32.29,2.1 -32.39,2.18 -32.46,2.26 -32.49,2.32" />
      </clipPath>
      <filter id="fuzzy">
        <feTurbulence id="turbulence" baseFrequency="0.05" numOctaves="3" type="noise" result="noise" />
        <feDisplacementMap in="SourceGraphic" in2="noise" scale="2" />
      </filter>
      <linearGradient id="rainbowGradient" x1="0%" y1="0%" x2="100%" y2="0%">
        <stop offset="0%" style="stop-color: rgb(128, 174, 110); stop-opacity: 1" />
        <stop offset="50%" style="stop-color: rgb(186, 235, 105); stop-opacity: 1" />
        <stop offset="100%" style="stop-color: rgb(197, 249, 130); stop-opacity: 1" />
      </linearGradient>
    </defs>
    <rect x="-100" y="-100" width="100%" height="100%" fill="rgb(224, 242, 166)" />
    <polyline id="faceContour" points="81.44,0.28 81.38,1.58 81.29,2.99 81.15,2.78 81.14,5.08 81,7.48 81.02,8.55 80.8,8.51 80.84,9.07 80.67,10.02 80.38,10.34 80.24,12.64 80.14,12.71 79.53,16.54 79.45,16.32 79.52,16.12 78.96,19.11 78.76,19.24 77.83,22.94 77.62,22.95 76.91,24.67 76.95,24.72 76.94,24.74 75.76,27.88 75.52,28.55 74.56,30.34 75.19,29.55 73.63,32.32 73.81,32.67 72.88,34.55 72.51,35.03 71.43,36.82 70.88,37.16 71.1,37.08 69.84,39.84 69,40.51 67.89,42.2 67.29,43.53 67.74,42.83 65.55,45.29 65.17,45.86 65.42,45.66 64.19,46.93 63.91,47.93 61.91,49.94 61.16,50.43 61.39,50.36 59.89,51.92 60.63,51.64 59.41,52.47 56.53,55.54 56.34,55.5 55.25,56.32 54.85,56.76 54,57.39 53.26,57.82 52.79,58.47 50.54,60.36 50.18,60.68 49.42,60.95 49.14,61.1 46.91,62.8 44.52,64.41 43.69,65.04 43.91,65.01 42.08,65.58 43.07,65.07 41.23,66.12 39,67.2 39.36,67.44 36.38,68.92 35.65,69.1 34.98,69.62 33.31,70 32.52,70.38 30.27,71.37 30.65,71.26 28.89,71.88 27.16,72.31 27.03,72.51 26.2,72.72 24.63,73.08 21.88,73.92 21.01,74.17 20.95,74.37 17.93,74.85 17.4,75.11 15.83,75.51 14.52,75.65 12.88,75.71 13.75,75.93 12.93,76.02 12.81,75.81 8.74,76.48 7.49,76.48 5.49,76.74 5.4,76.56 5.13,76.54 0.77,76.91 0.8,76.89 0.53,76.93 -1.45,76.9 -3.2,76.71 -3.75,76.78 -4.82,76.85 -4.89,76.89 -8,76.41 -8.39,76.34 -8.87,76.31 -12.29,75.87 -13.22,75.73 -15.53,75.44 -14.22,75.76 -15.88,75.22 -17.45,75.24 -20.25,74.3 -22.19,73.8 -20.68,74.34 -23.79,73.73 -23.11,73.76 -25.58,72.85 -27.04,72.62 -26.54,72.55 -29.17,71.75 -30.98,70.84 -30,71.53 -33.87,69.89 -34.07,69.81 -34.23,69.8 -34.13,69.81 -37.05,68.42 -37.14,68.28 -39.15,67.53 -40.57,66.37 -40.92,66.23 -42.99,65.36 -44.82,64.29 -43.79,64.61 -45,64.1 -46.48,62.92 -47.86,61.97 -47.74,62.12 -49.66,60.73 -49.65,60.76 -51.71,59.37 -53.46,57.82 -54.62,56.9 -55.77,55.83 -55.99,55.77 -56.54,55.23 -57.96,53.91 -59.03,52.81 -59.22,52.62 -60.6,50.98 -61.02,50.96 -61.37,50.61 -62.39,49.41 -63.25,48.53 -64.66,46.34 -64.69,46.92 -66.04,44.5 -66.52,44.1 -66.74,43.45 -67.82,42.55 -69.26,40.7 -68.58,40.98 -69.53,40.19 -70.3,38.65 -70.73,37.88 -71.58,36.58 -73.13,33.65 -72.96,34.01 -74.31,31.2 -73.35,33.12 -74.21,30.99 -75.46,29.15 -75.58,27.85 -76.51,26.56 -76.51,25.66 -77.15,24.06 -77.65,23.32 -77.52,22.9 -77.86,22.42 -78.53,19.99 -78.6,19.53 -79.17,16.98 -79.24,17.24 -79.69,16.05 -79.82,14.08 -79.87,13.39 -80.3,12.23 -80.34,12.09 -80.74,9.82 -80.81,8.58 -80.87,6.81 -81.04,3.61 -80.94,6.23 -81.16,4.33 -81.11,3.43 -81.24,2.79 -81.34,0.72 -81.51,-0.66 -81.43,-3.19 -81.06,-3.8 -80.9,-5.13 -81.09,-5.22 -80.72,-7.78 -80.66,-9.18 -80.73,-10.53 -80.86,-9.4 -80.3,-13.02 -80.09,-13.68 -80.16,-13.34 -79.69,-15.81 -79.24,-17.11 -78.84,-18.72 -78.57,-19.25 -78.63,-19.98 -77.66,-22.06 -77.64,-22.73 -77.22,-24.21 -76.63,-25.79 -76.22,-26.27 -75.64,-28.39 -75.7,-27.43 -74.38,-31.31 -74.82,-29.69 -74.81,-30.28 -74.27,-31.53 -73.64,-32.59 -71.9,-35.77 -72.26,-35.09 -70.49,-38.2 -70.38,-38.13 -70.08,-39.27 -69.55,-39.35 -68.88,-41.34 -67.16,-43.03 -68.41,-41.5 -65.83,-44.84 -65.64,-44.99 -65.92,-45.02 -64.9,-46.4 -62.84,-48.98 -61.4,-50.48 -61.31,-50.35 -59.96,-52.11 -60.53,-51.13 -57.83,-54 -59.01,-52.82 -57.75,-53.95 -56.99,-54.74 -55.33,-56.22 -54.7,-57.01 -53.62,-57.66 -51.47,-59.28 -51.99,-59.17 -50.21,-60.32 -49.71,-60.77 -47.61,-62.54 -47.82,-62.25 -47.28,-62.28 -47.49,-62.19 -44.36,-64.33 -44.16,-64.53 -43.63,-64.85 -39.86,-66.74 -40.58,-66.5 -40.41,-66.65 -38.33,-67.89 -37.34,-68.35 -36.77,-68.51 -34.85,-69.36 -34.04,-69.88 -32.49,-70.49 -32.02,-70.56 -29.48,-71.75 -27.46,-72.33 -29.02,-71.95 -28.26,-71.95 -25.64,-73.06 -23.85,-73.27 -21.81,-74.26 -22.05,-73.85 -19.68,-74.66 -17.94,-75.15 -18.34,-74.68 -17,-74.93 -14.73,-75.54 -13.69,-75.5 -12.58,-75.88 -13.02,-75.95 -8.59,-76.52 -9.57,-76.43 -7.97,-76.54 -5.77,-76.45 -6.1,-76.41 -3.16,-76.66 -3,-76.66 -3.13,-76.59 1.54,-76.87 1.78,-76.75 3.15,-76.79 4,-76.61 4.77,-76.75 5.73,-76.75 8.28,-76.58 9.05,-76.3 11.06,-76.18 13.11,-75.84 11.83,-76.05 13.22,-75.77 15.95,-75.15 17.4,-75.25 17.77,-75.08 18.92,-74.54 20.99,-74.09 20.02,-74.36 22.12,-74.04 23.07,-73.68 24.05,-73.41 26.04,-72.82 28.15,-71.92 29.35,-71.75 29.01,-71.99 29.76,-71.44 30.92,-71.08 35.07,-69.42 35.22,-69.19 35.18,-69.47 36.4,-68.66 38.18,-67.95 39.31,-67.01 41.01,-66.52 40.11,-66.88 42.14,-65.87 43.52,-64.83 44.77,-64.4 46.63,-62.97 46.23,-63.09 47.04,-62.71 47.21,-62.61 49.66,-61.12 51.18,-59.69 51.63,-59.05 52.7,-58.51 54.33,-57.3 55.5,-56.17 55.24,-56.26 56.66,-55.21 57.96,-53.59 58.67,-53.07 59.81,-52.36 59.4,-52.37 60.38,-51.51 61.43,-50.2 62.34,-49.26 64.37,-47.03 63.77,-47.56 66.22,-44.98 65.5,-45.47 66.96,-43.53 67.38,-43.28 68.27,-41.6 69.33,-40.32 68.64,-40.94 70.1,-38.72 70.32,-38.23 70.69,-37.86 72.92,-34.11 72.65,-34.44 73.01,-33.7 72.6,-34.91 74.27,-30.94 74.88,-30 74.72,-30.89 75.52,-27.91 75.9,-27.69 76.82,-25.74 76.68,-25.32 78.24,-21.4 77.29,-24.12 78.05,-22.21 78.73,-19.89 78.72,-19.1 78.95,-18.94 79.08,-18.55 80.02,-14.01 79.49,-15.55 80.14,-13.16 80.07,-12.79 80.7,-10.64 80.49,-10.01 80.79,-7.68 80.8,-8.74 80.99,-6.61 81.11,-4.84 81.35,-2.37 81.51,-2.43 81.27,-1.7 81.44,0.28 81.38,1.58" fill="rgb(77, 32, 223)" stroke="black" stroke-width="1.6666666666666665" stroke-linejoin="round" filter="url(#fuzzy)" />
    <g transform="translate(32.59 -21.19)">
      <polyline id="rightCountour" points="-29.81,1.61 -29.31,1.57 -28.76,1.51 -28.18,1.43 -27.56,1.33 -26.91,1.2 -26.22,1.06 -25.5,0.9 -24.75,0.73 -23.97,0.54 -23.16,0.35 -22.33,0.14 -21.48,-0.08 -20.61,-0.3 -19.71,-0.53 -18.8,-0.76 -17.75,-1.11 -16.67,-1.45 -15.58,-1.8 -14.46,-2.14 -13.32,-2.47 -12.17,-2.8 -11.01,-3.12 -9.84,-3.43 -8.66,-3.72 -7.48,-4 -6.29,-4.27 -5.1,-4.52 -3.92,-4.75 -2.73,-4.96 -1.56,-5.15 -0.39,-5.33 0.77,-5.48 1.91,-5.61 3.04,-5.71 4.16,-5.79 5.26,-5.85 6.33,-5.89 7.39,-5.9 8.42,-5.89 9.43,-5.86 10.42,-5.8 11.37,-5.72 12.3,-5.61 13.2,-5.48 14.07,-5.33 14.91,-5.16 15.72,-4.97 16.49,-4.76 17.23,-4.52 17.94,-4.27 18.61,-4 19.25,-3.72 19.85,-3.41 20.42,-3.09 20.96,-2.76 21.46,-2.41 21.93,-2.05 22.36,-1.69 22.76,-1.31 23.12,-0.92 23.46,-0.52 23.76,-0.12 24.04,0.29 24.28,0.7 24.49,1.12 24.68,1.54 24.84,1.96 24.97,2.39 25.07,2.83 25.14,3.27 25.19,3.71 25.21,4.16 25.2,4.61 25.16,5.06 25.1,5.52 25.01,5.97 24.89,6.43 24.76,6.89 24.59,7.35 24.09,11.64 23.45,11.76 22.8,11.86 22.13,11.96 21.44,12.05 20.75,12.12 20.03,12.19 19.3,12.24 18.56,12.28 17.81,12.31 17.04,12.32 16.26,12.32 15.47,12.31 14.66,12.28 13.85,12.24 13.02,12.18 12.18,12.11 11.32,12.02 10.45,11.92 9.56,11.8 8.66,11.67 7.75,11.52 6.83,11.35 5.9,11.15 4.96,10.94 4.02,10.72 3.07,10.47 2.11,10.2 1.15,9.91 0.18,9.61 -0.79,9.29 -1.76,8.96 -2.73,8.6 -3.69,8.24 -4.66,7.86 -5.63,7.48 -6.59,7.08 -7.54,6.68 -8.49,6.27 -9.43,5.86 -10.37,5.45 -11.3,5.04 -12.21,4.63 -13.12,4.23 -14.02,3.84 -14.9,3.46 -15.77,3.09 -16.63,2.74 -17.48,2.41 -18.31,2.1 -19.12,1.82 -19.92,1.56 -20.7,1.33 -21.47,1.13 -22.22,0.97 -22.94,0.83 -23.65,0.74 -24.34,0.68 -25.01,0.67 -25.66,0.69 -26.29,0.75 -26.9,0.86 -27.48,1.01 -28.04,1.19 -28.57,1.42 -29.03,1.42 -29.46,1.44 -29.87,1.46 -30.25,1.5 -30.61,1.55 -30.94,1.61 -31.24,1.68 -31.51,1.76 -31.76,1.84 -31.97,1.93 -32.14,2.01 -32.29,2.1 -32.39,2.18 -32.46,2.26 -32.49,2.32" fill="white" stroke="white" stroke-width="0" stroke-linejoin="round" filter="url(#fuzzy)" />
    </g>
    <g transform="translate(-30.62 -20.8)">
      <polyline id="leftCountour" points="33.52,2.15 33.24,1.81 32.92,1.45 32.55,1.07 32.14,0.68 31.69,0.27 31.19,-0.15 30.66,-0.58 30.1,-1.02 29.49,-1.46 28.86,-1.91 28.19,-2.35 27.5,-2.79 26.78,-3.23 26.03,-3.67 25.25,-4.1 24.39,-4.74 23.48,-5.37 22.55,-5.97 21.59,-6.56 20.6,-7.11 19.58,-7.64 18.54,-8.14 17.48,-8.61 16.4,-9.04 15.3,-9.44 14.2,-9.81 13.08,-10.14 11.95,-10.43 10.81,-10.68 9.67,-10.9 8.53,-11.07 7.38,-11.21 6.24,-11.31 5.11,-11.37 3.98,-11.4 2.86,-11.38 1.75,-11.33 0.65,-11.25 -0.43,-11.13 -1.5,-10.97 -2.55,-10.78 -3.58,-10.56 -4.59,-10.31 -5.57,-10.03 -6.54,-9.72 -7.48,-9.39 -8.39,-9.02 -9.28,-8.64 -10.14,-8.23 -10.97,-7.8 -11.77,-7.35 -12.54,-6.88 -13.29,-6.4 -14,-5.9 -14.69,-5.39 -15.34,-4.86 -15.96,-4.33 -16.55,-3.78 -17.12,-3.23 -17.65,-2.68 -18.15,-2.11 -18.63,-1.55 -19.08,-0.99 -19.5,-0.42 -19.89,0.15 -20.26,0.71 -20.61,1.28 -20.92,1.85 -21.22,2.42 -21.49,2.99 -21.73,3.56 -21.95,4.13 -22.14,4.7 -22.31,5.27 -22.46,5.84 -22.59,6.4 -22.69,6.96 -22.77,7.52 -22.82,8.08 -24.16,14.71 -23.71,14.85 -23.25,14.98 -22.78,15.11 -22.29,15.22 -21.79,15.33 -21.29,15.42 -20.77,15.51 -20.24,15.58 -19.7,15.64 -19.15,15.7 -18.58,15.73 -18.01,15.76 -17.43,15.77 -16.84,15.77 -16.24,15.76 -15.62,15.73 -14.99,15.7 -14.35,15.65 -13.69,15.58 -13.03,15.5 -12.35,15.41 -11.66,15.29 -10.96,15.16 -10.25,15.01 -9.53,14.85 -8.8,14.67 -8.06,14.47 -7.31,14.25 -6.55,14.02 -5.78,13.77 -5.01,13.5 -4.22,13.22 -3.43,12.93 -2.63,12.63 -1.82,12.31 -1,11.99 -0.17,11.66 0.66,11.32 1.5,10.97 2.34,10.62 3.2,10.28 4.06,9.93 4.92,9.58 5.8,9.24 6.68,8.91 7.57,8.58 8.46,8.27 9.36,7.97 10.26,7.68 11.17,7.41 12.08,7.16 13,6.93 13.93,6.72 14.85,6.54 15.78,6.38 16.72,6.25 17.65,6.15 18.58,6.08 19.52,6.04 20.45,6.03 21.38,6.05 22.31,6.1 23.23,6.18 24.15,6.28 24.87,6.21 25.59,6.14 26.29,6.07 26.98,6.02 27.65,5.96 28.31,5.91 28.94,5.86 29.56,5.81 30.15,5.77 30.71,5.71 31.25,5.65 31.76,5.59 32.24,5.51 32.68,5.43 33.09,5.32" fill="white" stroke="white" stroke-width="0" stroke-linejoin="round" filter="url(#fuzzy)" />
    </g>
    <g transform="translate(32.59 -21.19)">
      <polyline id="rightUpper" points="-32.02,0 -32.06,0.36 -32.04,0.66 -31.95,0.92 -31.81,1.13 -31.6,1.3 -31.35,1.43 -31.04,1.52 -30.67,1.58 -30.26,1.61 -29.81,1.61 -29.31,1.57 -28.76,1.51 -28.18,1.43 -27.56,1.33 -26.91,1.2 -26.22,1.06 -25.5,0.9 -24.75,0.73 -23.97,0.54 -23.16,0.35 -22.33,0.14 -21.48,-0.08 -20.61,-0.3 -19.71,-0.53 -18.8,-0.76 -17.75,-1.11 -16.67,-1.45 -15.58,-1.8 -14.46,-2.14 -13.32,-2.47 -12.17,-2.8 -11.01,-3.12 -9.84,-3.43 -8.66,-3.72 -7.48,-4 -6.29,-4.27 -5.1,-4.52 -3.92,-4.75 -2.73,-4.96 -1.56,-5.15 -0.39,-5.33 0.77,-5.48 1.91,-5.61 3.04,-5.71 4.16,-5.79 5.26,-5.85 6.33,-5.89 7.39,-5.9 8.42,-5.89 9.43,-5.86 10.42,-5.8 11.37,-5.72 12.3,-5.61 13.2,-5.48 14.07,-5.33 14.91,-5.16 15.72,-4.97 16.49,-4.76 17.23,-4.52 17.94,-4.27 18.61,-4 19.25,-3.72 19.85,-3.41 20.42,-3.09 20.96,-2.76 21.46,-2.41 21.93,-2.05 22.36,-1.69 22.76,-1.31 23.12,-0.92 23.46,-0.52 23.76,-0.12 24.04,0.29 24.28,0.7 24.49,1.12 24.68,1.54 24.84,1.96 24.97,2.39 25.07,2.83 25.14,3.27 25.19,3.71 25.21,4.16 25.2,4.61 25.16,5.06 25.1,5.52 25.01,5.97 24.89,6.43 24.76,6.89 24.59,7.35 24.4,7.81 24.19,8.27 23.95,8.72 23.7,9.18 23.42,9.64 23.11,10.1 22.79,10.55 22.44,11 22.08,11.46 21.7,11.91" fill="none" stroke="black" stroke-width="1.6666666666666665" stroke-linejoin="round" filter="url(#fuzzy)" />
      <polyline id="rightLower" points="-30.17,1.78 -30.64,1.99 -31.06,2.16 -31.41,2.28 -31.72,2.37 -31.97,2.42 -32.17,2.45 -32.31,2.45 -32.42,2.42 -32.47,2.38 -32.49,2.32 -32.46,2.26 -32.39,2.18 -32.29,2.1 -32.14,2.01 -31.97,1.93 -31.76,1.84 -31.51,1.76 -31.24,1.68 -30.94,1.61 -30.61,1.55 -30.25,1.5 -29.87,1.46 -29.46,1.44 -29.03,1.42 -28.57,1.42 -28.04,1.19 -27.48,1.01 -26.9,0.86 -26.29,0.75 -25.66,0.69 -25.01,0.67 -24.34,0.68 -23.65,0.74 -22.94,0.83 -22.22,0.97 -21.47,1.13 -20.7,1.33 -19.92,1.56 -19.12,1.82 -18.31,2.1 -17.48,2.41 -16.63,2.74 -15.77,3.09 -14.9,3.46 -14.02,3.84 -13.12,4.23 -12.21,4.63 -11.3,5.04 -10.37,5.45 -9.43,5.86 -8.49,6.27 -7.54,6.68 -6.59,7.08 -5.63,7.48 -4.66,7.86 -3.69,8.24 -2.73,8.6 -1.76,8.96 -0.79,9.29 0.18,9.61 1.15,9.91 2.11,10.2 3.07,10.47 4.02,10.72 4.96,10.94 5.9,11.15 6.83,11.35 7.75,11.52 8.66,11.67 9.56,11.8 10.45,11.92 11.32,12.02 12.18,12.11 13.02,12.18 13.85,12.24 14.66,12.28 15.47,12.31 16.26,12.32 17.04,12.32 17.81,12.31 18.56,12.28 19.3,12.24 20.03,12.19 20.75,12.12 21.44,12.05 22.13,11.96 22.8,11.86 23.45,11.76 24.09,11.64 24.72,11.52 25.33,11.39 25.92,11.25 26.5,11.1 27.06,10.95 27.6,10.79 28.13,10.63 28.65,10.46 29.15,10.28 29.64,10.1" fill="none" stroke="black" stroke-width="2.2222222222222223" stroke-linejoin="round" filter="url(#fuzzy)" />
      <circle r="4.72" cx="-1.5791247857373132" cy="-0.35224019747137447" stroke="black" fill="none" stroke-width="1.0" filter="url(#fuzzy)" clip-path="url(#rightEyeClipPath)" /><circle r="4.064" cx="-0.2191247857373133" cy="-0.7922401974713744" stroke="black" fill="none" stroke-width="1.0" filter="url(#fuzzy)" clip-path="url(#rightEyeClipPath)" /><circle r="4.796" cx="1.0658752142626868" cy="-0.6722401974713743" stroke="black" fill="none" stroke-width="1.0" filter="url(#fuzzy)" clip-path="url(#rightEyeClipPath)" /><circle r="4.434" cx="-3.8441247857373133" cy="1.8577598025286264" stroke="black" fill="none" stroke-width="1.0" filter="url(#fuzzy)" clip-path="url(#rightEyeClipPath)" /><circle r="3.984" cx="-0.11412478573731333" cy="2.0227598025286255" stroke="black" fill="none" stroke-width="1.0" filter="url(#fuzzy)" clip-path="url(#rightEyeClipPath)" /><circle r="4.926" cx="-1.8291247857373132" cy="1.107759802528626" stroke="black" fill="none" stroke-width="1.0" filter="url(#fuzzy)" clip-path="url(#rightEyeClipPath)" /><circle r="3.002" cx="-2.309124785737313" cy="3.3227598025286262" stroke="black" fill="none" stroke-width="1.0" filter="url(#fuzzy)" clip-path="url(#rightEyeClipPath)" /><circle r="4.804" cx="-2.059124785737313" cy="2.627759802528626" stroke="black" fill="none" stroke-width="1.0" filter="url(#fuzzy)" clip-path="url(#rightEyeClipPath)" /><circle r="3.188" cx="-1.8491247857373132" cy="1.9027598025286263" stroke="black" fill="none" stroke-width="1.0" filter="url(#fuzzy)" clip-path="url(#rightEyeClipPath)" /><circle r="4.406" cx="0.9158752142626865" cy="0.43275980252862567" stroke="black" fill="none" stroke-width="1.0" filter="url(#fuzzy)" clip-path="url(#rightEyeClipPath)" />
      </g>
    <g transform="translate(-30.62 -20.8)">
      <polyline id="leftUpper" points="33.27,3.54 33.57,3.62 33.8,3.64 33.97,3.6 34.08,3.52 34.13,3.38 34.11,3.21 34.05,2.99 33.92,2.74 33.75,2.46 33.52,2.15 33.24,1.81 32.92,1.45 32.55,1.07 32.14,0.68 31.69,0.27 31.19,-0.15 30.66,-0.58 30.1,-1.02 29.49,-1.46 28.86,-1.91 28.19,-2.35 27.5,-2.79 26.78,-3.23 26.03,-3.67 25.25,-4.1 24.39,-4.74 23.48,-5.37 22.55,-5.97 21.59,-6.56 20.6,-7.11 19.58,-7.64 18.54,-8.14 17.48,-8.61 16.4,-9.04 15.3,-9.44 14.2,-9.81 13.08,-10.14 11.95,-10.43 10.81,-10.68 9.67,-10.9 8.53,-11.07 7.38,-11.21 6.24,-11.31 5.11,-11.37 3.98,-11.4 2.86,-11.38 1.75,-11.33 0.65,-11.25 -0.43,-11.13 -1.5,-10.97 -2.55,-10.78 -3.58,-10.56 -4.59,-10.31 -5.57,-10.03 -6.54,-9.72 -7.48,-9.39 -8.39,-9.02 -9.28,-8.64 -10.14,-8.23 -10.97,-7.8 -11.77,-7.35 -12.54,-6.88 -13.29,-6.4 -14,-5.9 -14.69,-5.39 -15.34,-4.86 -15.96,-4.33 -16.55,-3.78 -17.12,-3.23 -17.65,-2.68 -18.15,-2.11 -18.63,-1.55 -19.08,-0.99 -19.5,-0.42 -19.89,0.15 -20.26,0.71 -20.61,1.28 -20.92,1.85 -21.22,2.42 -21.49,2.99 -21.73,3.56 -21.95,4.13 -22.14,4.7 -22.31,5.27 -22.46,5.84 -22.59,6.4 -22.69,6.96 -22.77,7.52 -22.82,8.08 -22.86,8.63 -22.87,9.18 -22.87,9.72 -22.84,10.26 -22.79,10.79 -22.73,11.32 -22.64,11.84 -22.54,12.36 -22.42,12.88 -22.28,13.39" fill="none" stroke="black" stroke-width="2.2222222222222223" stroke-linejoin="round" filter="url(#fuzzy)" />
      <polyline id="leftLower" points="34.5,2.81 34.63,3.24 34.68,3.62 34.67,3.95 34.6,4.24 34.47,4.5 34.29,4.72 34.06,4.9 33.78,5.07 33.45,5.21 33.09,5.32 32.68,5.43 32.24,5.51 31.76,5.59 31.25,5.65 30.71,5.71 30.15,5.77 29.56,5.81 28.94,5.86 28.31,5.91 27.65,5.96 26.98,6.02 26.29,6.07 25.59,6.14 24.87,6.21 24.15,6.28 23.23,6.18 22.31,6.1 21.38,6.05 20.45,6.03 19.52,6.04 18.58,6.08 17.65,6.15 16.72,6.25 15.78,6.38 14.85,6.54 13.93,6.72 13,6.93 12.08,7.16 11.17,7.41 10.26,7.68 9.36,7.97 8.46,8.27 7.57,8.58 6.68,8.91 5.8,9.24 4.92,9.58 4.06,9.93 3.2,10.28 2.34,10.62 1.5,10.97 0.66,11.32 -0.17,11.66 -1,11.99 -1.82,12.31 -2.63,12.63 -3.43,12.93 -4.22,13.22 -5.01,13.5 -5.78,13.77 -6.55,14.02 -7.31,14.25 -8.06,14.47 -8.8,14.67 -9.53,14.85 -10.25,15.01 -10.96,15.16 -11.66,15.29 -12.35,15.41 -13.03,15.5 -13.69,15.58 -14.35,15.65 -14.99,15.7 -15.62,15.73 -16.24,15.76 -16.84,15.77 -17.43,15.77 -18.01,15.76 -18.58,15.73 -19.15,15.7 -19.7,15.64 -20.24,15.58 -20.77,15.51 -21.29,15.42 -21.79,15.33 -22.29,15.22 -22.78,15.11 -23.25,14.98 -23.71,14.85 -24.16,14.71 -24.6,14.56 -25.02,14.41 -25.43,14.25 -25.84,14.08 -26.23,13.91 -26.6,13.74 -26.97,13.55 -27.32,13.37 -27.67,13.18 -28,12.98" fill="none" stroke="black" stroke-width="2.2222222222222223" stroke-linejoin="round" filter="url(#fuzzy)" />
      <circle r="3.928" cx="-5.7333773773804015" cy="1.309576946222184" stroke="black" fill="none" stroke-width="1.0" filter="url(#fuzzy)" clip-path="url(#leftEyeClipPath)" /><circle r="3.518" cx="-2.768377377380401" cy="-0.1854230537778161" stroke="black" fill="none" stroke-width="1.0" filter="url(#fuzzy)" clip-path="url(#leftEyeClipPath)" /><circle r="3.388" cx="-4.963377377380401" cy="-2.660423053777816" stroke="black" fill="none" stroke-width="1.0" filter="url(#fuzzy)" clip-path="url(#leftEyeClipPath)" /><circle r="3.572" cx="-3.163377377380401" cy="-1.8854230537778163" stroke="black" fill="none" stroke-width="1.0" filter="url(#fuzzy)" clip-path="url(#leftEyeClipPath)" /><circle r="3.016" cx="-2.303377377380401" cy="1.8295769462221836" stroke="black" fill="none" stroke-width="1.0" filter="url(#fuzzy)" clip-path="url(#leftEyeClipPath)" /><circle r="3.448" cx="-0.9883773773804014" cy="1.8245769462221837" stroke="black" fill="none" stroke-width="1.0" filter="url(#fuzzy)" clip-path="url(#leftEyeClipPath)" /><circle r="4.78" cx="-2.538377377380401" cy="2.024576946222184" stroke="black" fill="none" stroke-width="1.0" filter="url(#fuzzy)" clip-path="url(#leftEyeClipPath)" /><circle r="3.342" cx="-3.683377377380401" cy="1.8245769462221837" stroke="black" fill="none" stroke-width="1.0" filter="url(#fuzzy)" clip-path="url(#leftEyeClipPath)" /><circle r="4.186" cx="-4.303377377380401" cy="-1.6354230537778163" stroke="black" fill="none" stroke-width="1.0" filter="url(#fuzzy)" clip-path="url(#leftEyeClipPath)" /><circle r="4.288" cx="-1.0583773773804008" cy="-0.6554230537778163" stroke="black" fill="none" stroke-width="1.0" filter="url(#fuzzy)" clip-path="url(#leftEyeClipPath)" />
    </g>
    <g id="hairs">
      <polyline points="78,12.37 78.23,11.75 78.52,10.81 78.85,9.98 79.16,9.24 79.45,8.51 79.7,7.67 79.9,6.68 80.06,5.56 80.19,4.37 80.33,3.16 80.48,1.96 80.63,0.78 80.76,-0.38 80.84,-1.55 80.83,-2.73 80.75,-3.95 80.61,-5.21 80.48,-6.46 80.4,-7.66 80.39,-8.77 80.43,-9.88 80.4,-11.14 80.07,-12.79" fill="none" stroke="rgb(134, 46, 19)" stroke-width="2" stroke-linejoin="round" filter="url(#fuzzy)" /><polyline points="80.14,-13.16 80.04,-14.63 80.07,-15.85 80.01,-17.15 79.98,-18.41 80.15,-19.64 80.58,-20.91 81.23,-22.23 81.94,-23.57 82.48,-24.89 82.66,-26.16 82.4,-27.37 81.78,-28.51 80.93,-29.61 80.06,-30.7 79.31,-31.82 78.79,-32.99 78.49,-34.19 78.35,-35.38 78.25,-36.52 78.12,-37.63 77.88,-38.87 77.6,-40.34 77.49,-41.87 77.91,-43.03" fill="none" stroke="rgb(134, 46, 19)" stroke-width="2" stroke-linejoin="round" filter="url(#fuzzy)" /><polyline points="-17,-74.93 -15.37,-76.05 -14.42,-78.18 -13.55,-80.22 -12.58,-82.15 -11.52,-84.19 -10.41,-86.28 -9.25,-88.15 -8.03,-89.58 -6.74,-90.41 -5.37,-90.53 -3.93,-89.99 -2.42,-89.07 -0.85,-88.25 0.73,-88 2.28,-88.58 3.77,-89.85 5.21,-91.43 6.7,-92.86 8.3,-93.99 10.11,-94.99 12.16,-96.2 14.52,-97.92 17.22,-99.61 -19.68,-74.66 -18.58,-74.9 -17.73,-75.1 -16.73,-75.57 -15.65,-76.35 -14.56,-77.32 -13.47,-78.3 -12.36,-79.19 -11.2,-79.97 -10,-80.65 -8.79,-81.26 -7.58,-81.81 -6.36,-82.31 -5.12,-82.78 -3.83,-83.25 -2.47,-83.72 -1.01,-84.23 0.54,-84.74 2.05,-85.26 3.38,-85.82 4.5,-86.64 5.47,-87.92" fill="none" stroke="rgb(134, 46, 19)" stroke-width="2" stroke-linejoin="round" filter="url(#fuzzy)" /><polyline points="-51.99,-59.17 -52.96,-59.61 -53.98,-58.88 -55.18,-58.1 -56.41,-57.36 -57.57,-56.64 -58.63,-55.97 -59.67,-55.43 -60.75,-55.07 -61.97,-54.87 -63.34,-54.8 -64.78,-54.73 -66.18,-54.51 -67.5,-53.9 -68.99,-52.73 -71.53,-51.13" fill="none" stroke="rgb(134, 46, 19)" stroke-width="2" stroke-linejoin="round" filter="url(#fuzzy)" /><polyline points="-54.7,-57.01 -53.51,-57.81 -52.43,-58.62 -51.49,-59.35 -50.57,-60.04 -49.65,-60.67 -48.77,-61.22 -47.95,-61.69 -47.17,-62.14 -46.34,-62.62 -45.44,-63.18 -44.42,-63.81 -43.31,-64.47 -42.18,-65.11 -41.1,-65.69 -40.13,-66.19 -39.21,-66.67 -38.16,-67.2 -36.98,-67.69" fill="none" stroke="rgb(134, 46, 19)" stroke-width="2" stroke-linejoin="round" filter="url(#fuzzy)" /><polyline points="-64.9,-46.4 -65.59,-45.53 -66.02,-44.84 -66.57,-44.06 -67.21,-43.2 -67.88,-42.31 -68.54,-41.4 -69.17,-40.48 -69.78,-39.56 -70.38,-38.61 -71,-37.61 -71.66,-36.54 -72.35,-35.4 -73.06,-34.21 -73.73,-33.04 -74.34,-31.98 -74.84,-31.07 -75.24,-30.3 -75.61,-29.58 -76,-28.77 -76.44,-27.83 -76.89,-26.5 -70.49,-38.2 -71.92,-36.34 -73.61,-35.32 -75.88,-34.63 -78.2,-34.13 -80.3,-33.77 -82.07,-33.46 -83.42,-33.03 -84.22,-32.34 -84.52,-31.34 -84.54,-30.12 -84.64,-28.83 -85.2,-27.61 -86.43,-26.53 -88.29,-25.62 -90.4,-24.78 -92.19,-23.88 -93.4,-22.9 -94.61,-21.94 -96.63,-20.87" fill="none" stroke="rgb(134, 46, 19)" stroke-width="2" stroke-linejoin="round" filter="url(#fuzzy)" /><polyline points="64.35,-41.33 65.17,-40.08 65.94,-39.3 66.67,-38.63 67.38,-37.86 68.11,-36.97 68.86,-36.02 69.62,-35.09 70.33,-34.21 70.96,-33.36 71.53,-32.5 72.07,-31.59 72.6,-30.63 73.15,-29.63 73.73,-28.6 74.36,-27.54 75.01,-26.45 75.62,-25.34 76.13,-24.26 76.56,-23.29 76.97,-22.46 77.55,-21.51 78.73,-19.89" fill="none" stroke="rgb(134, 46, 19)" stroke-width="2" stroke-linejoin="round" filter="url(#fuzzy)" /><polyline points="-71.9,-35.77 -71.93,-36.24 -71.63,-37.4 -71.6,-38.66 -71.87,-40.02 -72.31,-41.52 -72.91,-43.19 -73.71,-45.06 -74.68,-47.09 -75.78,-49.28 -77,-51.65 -78.26,-54.23 -79.36,-56.96 -80.01,-59.64 -79.96,-62.02 -79.32,-63.88 -78.56,-65.25 -78.49,-66.51 -80.27,-67.8" fill="none" stroke="rgb(134, 46, 19)" stroke-width="2" stroke-linejoin="round" filter="url(#fuzzy)" /><polyline points="66.96,-43.53 67.75,-45.95 67.51,-47.19 66.39,-47.92 65.04,-48.62 63.9,-49.54 63.11,-50.71 62.66,-52.03 62.41,-53.38 62.21,-54.65 61.92,-55.84 61.5,-56.96 61.01,-58.11 60.52,-59.36 60.13,-60.78 59.82,-62.32 59.47,-63.91 58.92,-65.38 58.11,-66.69 57.11,-68.04 55.93,-69.74 53.91,-71.5" fill="none" stroke="rgb(134, 46, 19)" stroke-width="2" stroke-linejoin="round" filter="url(#fuzzy)" /><polyline points="90.65,-29.93 89.34,-30.48 88.02,-31.45 86.48,-32.37 84.88,-33.2 83.44,-34.05 82.24,-34.95 81.24,-35.85 80.33,-36.71 79.43,-37.52 78.46,-38.32 77.37,-39.14 76.14,-39.94 74.8,-40.67 73.45,-41.33 72.2,-41.94 71.12,-42.58 70.12,-43.29 68.97,-44 67.37,-44.57 65.5,-45.47 55.5,-56.17 55.64,-55.71 56.2,-54.7 56.84,-53.62 57.37,-52.6 57.75,-51.62 58.06,-50.62 58.4,-49.57 58.83,-48.46 59.33,-47.3 59.84,-46.09 60.31,-44.86 60.69,-43.64 60.96,-42.42 61.12,-41.19 61.24,-39.97 61.47,-38.81 61.84,-37.81 62.17,-37.07 61.62,-36.76 51.18,-59.69 51.75,-58.94 52.57,-58.05 53.16,-56.84 53.46,-55.43 53.72,-54.04 54.14,-52.85 54.79,-51.92 55.57,-51.19 56.38,-50.55 57.17,-49.9 57.92,-49.16 58.66,-48.32 59.38,-47.37 60.07,-46.33 60.67,-45.22 61.14,-44.05 61.48,-42.85 61.69,-41.63 61.83,-40.39 61.91,-39.15 61.92,-37.93 61.82,-36.77 61.65,-35.66 62.08,-34.29 46.63,-62.97 46.33,-66.02 46.69,-69.57 46.5,-71.97 45.91,-73.49 45.08,-74.51 44,-75.12 42.65,-75.32 41.11,-75.21 39.48,-74.97 37.87,-74.81 36.36,-74.91 34.99,-75.37 33.81,-76.23 32.83,-77.48 32.04,-79.14 31.39,-81.21 30.77,-83.62 30.07,-86.15 29.22,-88.49 28.21,-90.35 27.12,-91.61 26.07,-92.29 25.08,-92.58 23.59,-92.97" fill="none" stroke="rgb(134, 46, 19)" stroke-width="2" stroke-linejoin="round" filter="url(#fuzzy)" /><polyline points="66.13,-58.3 65.91,-58.43 64.9,-58.73 63.6,-59.18 62.15,-59.61 60.66,-59.98 59.2,-60.32 57.76,-60.68 56.33,-61.09 54.89,-61.56 53.44,-62.07 51.98,-62.58 50.53,-63.05 49.21,-63.47 48.14,-63.9 47.39,-64.43 46.71,-65.02 45.51,-65.29 43.52,-64.83 -6.58,-82.44 -4.48,-82.26 -3.13,-82.02 -1.71,-81.87 -0.2,-81.72 1.26,-81.46 2.58,-81.08 3.82,-80.64 5.03,-80.19 6.27,-79.74 7.54,-79.29 8.82,-78.8 10.08,-78.28 11.29,-77.75 12.45,-77.25 13.61,-76.83 14.8,-76.51 16.02,-76.28 17.24,-76.12 18.42,-76.01 19.52,-75.93 20.5,-75.79 21.36,-75.43 22.17,-74.63 23.07,-73.68 20.99,-74.09 20.9,-73.89 21.63,-73.31 22.68,-72.69 23.86,-72.08 25.08,-71.45 26.23,-70.83 27.29,-70.26 28.27,-69.7 29.25,-69.14 30.29,-68.51 31.37,-67.84 32.45,-67.15 33.49,-66.51 34.5,-65.96 35.54,-65.46 36.61,-64.92 37.61,-64.31 38.26,-63.7 38.04,-63.42 9.05,-76.3 7.81,-75.96 6.39,-75.3 5.15,-74.78 4.05,-74.59 2.97,-74.56 1.81,-74.51 0.57,-74.34 -0.71,-74.07 -1.99,-73.79 -3.21,-73.51 -4.37,-73.2 -5.47,-72.79 -6.55,-72.28 -7.62,-71.7 -8.68,-71.1 -9.75,-70.51 -10.78,-69.87 -11.77,-69.12 -12.73,-68.26 -13.77,-67.41 -15.02,-66.8 -16.29,-66.34" fill="none" stroke="rgb(134, 46, 19)" stroke-width="2" stroke-linejoin="round" filter="url(#fuzzy)" /><polyline points="-3.13,-76.59 0.74,-76.66 3.88,-76.61 6.99,-76.47 10.14,-76.24 13.26,-75.95 16.3,-75.59 19.21,-75.18 21.92,-74.71 24.45,-74.16 26.93,-73.55 29.57,-72.86 32.55,-72.1 35.96,-71.26 39.73,-70.37 43.71,-69.43 47.67,-68.43 51.47,-67.39 55.04,-66.31 58.42,-65.17 61.72,-63.96 65.03,-62.67 68.39,-61.26 71.82,-59.72 75.33,-58.1 78.93,-56.46 82.37,-54.84 85.92,-53.07" fill="none" stroke="rgb(134, 46, 19)" stroke-width="2" stroke-linejoin="round" filter="url(#fuzzy)" /><polyline points="-6.1,-76.41 -3.46,-76.61 0.09,-76.71 3.57,-76.7 6.92,-76.6 10.22,-76.41 13.48,-76.13 16.58,-75.79 19.4,-75.39 21.98,-74.93 24.48,-74.42 27.12,-73.86 30.1,-73.24 33.54,-72.55 37.46,-71.79 41.8,-70.95 46.4,-70.03 51.07,-69.05 55.66,-68 60.17,-66.89 64.78,-65.73 69.78,-64.52 75.48,-63.26 82.08,-61.94 89.63,-60.54 97.64,-59.04 104.72,-57.52 109.69,-56.26" fill="none" stroke="rgb(134, 46, 19)" stroke-width="2" stroke-linejoin="round" filter="url(#fuzzy)" /><polyline points="-5.77,-76.45 -3.73,-76.57 -1.55,-76.62 1.03,-76.62 3.93,-76.55 7.09,-76.4 10.4,-76.18 13.72,-75.89 16.92,-75.53 19.88,-75.11 22.59,-74.63 25.11,-74.07 27.57,-73.44 30.08,-72.74 32.79,-71.97 35.76,-71.12 39.02,-70.22 42.57,-69.26 46.34,-68.24 50.27,-67.17 54.26,-66.05 58.22,-64.85 62.08,-63.59 65.8,-62.24 69.4,-60.82 72.89,-59.32 76.34,-57.76 79.78,-56.16 83.29,-54.5 86.97,-52.8 90.94,-51.02 95.29,-49.16 99.9,-47.24 104.42,-45.34 108.44,-43.53 111.9,-41.88 115.58,-40.27 120.78,-38.23" fill="none" stroke="rgb(134, 46, 19)" stroke-width="2" stroke-linejoin="round" filter="url(#fuzzy)" /><polyline points="-5.77,-76.45 -3.76,-76.57 -1.66,-76.62 0.75,-76.62 3.3,-76.57 5.88,-76.43 8.45,-76.23 10.97,-75.96 13.42,-75.62 15.81,-75.23 18.18,-74.78 20.59,-74.26 23.08,-73.68 25.66,-73.01 28.3,-72.27 30.95,-71.47 33.57,-70.59 36.15,-69.67 38.72,-68.7 41.26,-67.67 43.73,-66.61 46.04,-65.51 48.21,-64.34 50.35,-63.09" fill="none" stroke="rgb(134, 46, 19)" stroke-width="2" stroke-linejoin="round" filter="url(#fuzzy)" /><polyline points="-13.69,-75.5 -12.05,-75.91 -9.5,-76.2 -6.86,-76.39 -4.32,-76.5 -1.85,-76.56 0.59,-76.55 3.02,-76.49 5.44,-76.35 7.83,-76.15 10.16,-75.87 12.44,-75.53 14.67,-75.13 16.88,-74.66 19.08,-74.12 21.29,-73.51 23.48,-72.83 25.65,-72.07 27.75,-71.25 29.75,-70.36 31.63,-69.42 33.38,-68.42 34.97,-67.37 36.45,-66.27 37.86,-65.11 39.28,-63.88 40.76,-62.56 42.3,-61.15 43.81,-59.64 45.16,-58.06 46.24,-56.45 47.08,-54.89 47.82,-53.38 48.66,-51.91 49.67,-50.2" fill="none" stroke="rgb(134, 46, 19)" stroke-width="2" stroke-linejoin="round" filter="url(#fuzzy)" /><polyline points="-13.69,-75.5 -12.39,-75.91 -10.04,-76.2 -7.33,-76.39 -4.61,-76.5 -1.89,-76.56 0.89,-76.57 3.79,-76.51 6.83,-76.39 10.02,-76.19 13.31,-75.93 16.65,-75.61 19.98,-75.23 23.33,-74.78 26.79,-74.27 30.48,-73.69 34.49,-73.03 38.82,-72.29 43.39,-71.49 48.08,-70.62 52.75,-69.69 57.35,-68.72 61.87,-67.69 66.35,-66.63 70.65,-65.52 74.58,-64.35 78.95,-63.09" fill="none" stroke="rgb(134, 46, 19)" stroke-width="2" stroke-linejoin="round" filter="url(#fuzzy)" /><polyline points="-17,-74.93 -14.84,-75.44 -12.75,-75.84 -10.51,-76.14 -8,-76.35 -5.2,-76.47 -2.15,-76.54 1.06,-76.54 4.32,-76.49 7.55,-76.36 10.73,-76.17 13.93,-75.91 17.23,-75.58 20.69,-75.19 24.26,-74.74 27.87,-74.22 31.46,-73.63 35.03,-72.97 38.69,-72.23 42.61,-71.42 46.98,-70.55 51.91,-69.62 57.36,-68.64 63.12,-67.61 68.92,-66.54 74.47,-65.44 79.78,-64.31 85.26,-63.12 91.8,-61.75 99.67,-59.69" fill="none" stroke="rgb(134, 46, 19)" stroke-width="2" stroke-linejoin="round" filter="url(#fuzzy)" /><polyline points="-19.68,-74.66 -17.8,-74.93 -15.6,-75.37 -13.45,-75.78 -11.22,-76.09 -8.8,-76.31 -6.17,-76.46 -3.4,-76.55 -0.57,-76.58 2.26,-76.55 5.11,-76.45 8,-76.28 11.04,-76.03 14.29,-75.71 17.85,-75.33 21.74,-74.89 25.95,-74.38 30.4,-73.82 34.98,-73.19 39.57,-72.5 44.08,-71.73 48.45,-70.89 52.67,-69.97 56.77,-68.99 60.84,-67.93 64.96,-66.82 69.24,-65.65 73.77,-64.42 78.61,-63.13 83.71,-61.77 88.94,-60.34 94.1,-58.84 99.12,-57.26 104.05,-55.63 108.86,-54.02 112.97,-52.57 115.88,-51.51" fill="none" stroke="rgb(134, 46, 19)" stroke-width="2" stroke-linejoin="round" filter="url(#fuzzy)" /><polyline points="-21.81,-74.26 -19.93,-74.58 -17.98,-74.94 -15.93,-75.35 -13.78,-75.73 -11.46,-76.05 -8.93,-76.28 -6.2,-76.44 -3.31,-76.55 -0.31,-76.6 2.75,-76.6 5.85,-76.53 8.98,-76.39 12.16,-76.17 15.41,-75.88 18.77,-75.52 22.25,-75.11 25.86,-74.64 29.58,-74.13 33.43,-73.57 37.41,-72.95 41.53,-72.28 45.73,-71.54 50.22,-70.61 55.59,-69.19" fill="none" stroke="rgb(134, 46, 19)" stroke-width="2" stroke-linejoin="round" filter="url(#fuzzy)" /><polyline points="-23.85,-73.27 -21.63,-73.95 -19.42,-74.55 -17.59,-75.02 -15.83,-75.42 -13.83,-75.76 -11.45,-76.04 -8.75,-76.26 -5.84,-76.41 -2.8,-76.5 0.32,-76.53 3.49,-76.5 6.71,-76.4 9.96,-76.23 13.25,-76 16.55,-75.7 19.85,-75.35 23.14,-74.94 26.4,-74.47 29.69,-73.93 33.09,-73.31 36.71,-72.6 40.64,-71.8 44.97,-70.85 50.93,-69.42" fill="none" stroke="rgb(134, 46, 19)" stroke-width="2" stroke-linejoin="round" filter="url(#fuzzy)" /><polyline points="-23.85,-73.27 -22.11,-73.95 -20.17,-74.56 -18.2,-75.03 -16.01,-75.42 -13.53,-75.76 -10.84,-76.04 -8.05,-76.26 -5.22,-76.4 -2.36,-76.49 0.55,-76.51 3.57,-76.46 6.75,-76.35 10.12,-76.18 13.71,-75.94 17.53,-75.63 21.52,-75.26 25.6,-74.83 29.68,-74.33 33.71,-73.76 37.66,-73.12 41.57,-72.39 45.5,-71.6 49.48,-70.73 53.51,-69.81 57.58,-68.84 61.74,-67.81 66.24,-66.75 71.17,-65.87" fill="none" stroke="rgb(134, 46, 19)" stroke-width="2" stroke-linejoin="round" filter="url(#fuzzy)" /><polyline points="-28.26,-71.95 -24.76,-73 -21.94,-73.82 -19.43,-74.45 -17.09,-74.96 -14.79,-75.37 -12.45,-75.72 -10.03,-76.01 -7.56,-76.24 -5.06,-76.4 -2.55,-76.5 -0.04,-76.53 2.5,-76.51 5.07,-76.42 7.64,-76.26 10.2,-76.04 12.7,-75.75 15.11,-75.41 17.43,-75.01 19.7,-74.56 22.01,-74.04 24.56,-73.43 27.49,-72.68 30.75,-71.75" fill="none" stroke="rgb(134, 46, 19)" stroke-width="2" stroke-linejoin="round" filter="url(#fuzzy)" /><polyline points="-29.02,-71.95 -25.9,-72.98 -23.3,-73.78 -21.09,-74.38 -19.03,-74.87 -16.9,-75.3 -14.57,-75.68 -12.01,-75.98 -9.26,-76.22 -6.38,-76.39 -3.41,-76.49 -0.36,-76.54 2.74,-76.52 5.91,-76.43 9.16,-76.27 12.51,-76.04 16,-75.73 19.66,-75.36 23.48,-74.93 27.42,-74.44 31.42,-73.89 35.38,-73.28 39.28,-72.6 43.1,-71.85 46.93,-71.03 50.86,-70.12 54.98,-69.15 59.33,-68.11 63.92,-67.01 68.68,-65.85 73.6,-64.64 78.76,-63.38 84.33,-62.07 90.3,-60.65 96.32,-59.05 103.26,-57.3" fill="none" stroke="rgb(134, 46, 19)" stroke-width="2" stroke-linejoin="round" filter="url(#fuzzy)" /><polyline points="-27.46,-72.33 -28.31,-72.49 -27.39,-73.12 -25.54,-73.8 -23.64,-74.41 -21.67,-74.92 -19.35,-75.35 -16.58,-75.7 -13.43,-75.99 -10.09,-76.2 -6.68,-76.35 -3.25,-76.44 0.22,-76.46 3.72,-76.41 7.24,-76.3 10.76,-76.12 14.27,-75.87 17.77,-75.56 21.34,-75.18 25.08,-74.74 29.1,-74.23 33.47,-73.64 38.23,-72.98 43.28,-72.25 48.5,-71.45 53.69,-70.58 58.71,-69.65 63.52,-68.67 68.2,-67.64 72.9,-66.57 77.7,-65.46 82.62,-64.33 87.7,-63.13 93.18,-61.76 100.5,-59.69" fill="none" stroke="rgb(134, 46, 19)" stroke-width="2" stroke-linejoin="round" filter="url(#fuzzy)" /><polyline points="-40.41,-66.65 -43.09,-65.98 -46.32,-64.63 -49.51,-63.26 -53.03,-61.95 -56.68,-60.63 -60.26,-59.28 -63.88,-57.89 -67.82,-56.44 -72.18,-54.93 -76.78,-53.32 -81.23,-51.61 -85.22,-49.78 -88.59,-47.86 -91.48,-45.9 -94.28,-43.91 -97.43,-41.93 -101.29,-39.93 -105.98,-37.91 -111.34,-35.85 -116.97,-33.74 -122.41,-31.61 -127.26,-29.47 -131.26,-27.34 -134.39,-25.21 -136.8,-23.08 -138.82,-20.91 -140.8,-18.71 -142.93,-16.48 -145.18,-14.26 -147.29,-12.04 -149.2,-9.81 -151.39,-7.51 -154.9,-5.08 -160.29,-2.46 -166.45,0.72" fill="none" stroke="rgb(134, 46, 19)" stroke-width="2" stroke-linejoin="round" filter="url(#fuzzy)" /><polyline points="-40.41,-66.65 -41.4,-65.99 -43.65,-64.66 -45.91,-63.3 -47.96,-62 -49.87,-60.71 -51.73,-59.38 -53.57,-58 -55.41,-56.58 -57.25,-55.11 -59.08,-53.56 -60.92,-51.88 -62.76,-50.08 -64.56,-48.16 -66.31,-46.18 -67.99,-44.2 -69.59,-42.26 -71.13,-40.34 -72.64,-38.4 -74.13,-36.38 -75.57,-34.23 -76.91,-32 -78.08,-29.8 -79.07,-27.75 -79.98,-25.87 -80.95,-24.04 -81.89,-22.06" fill="none" stroke="rgb(134, 46, 19)" stroke-width="2" stroke-linejoin="round" filter="url(#fuzzy)" /><polyline points="-43.63,-64.85 -47.91,-63.99 -53.16,-62.94 -57.22,-61.77 -61.27,-60.42 -65.83,-58.88 -70.29,-57.22 -73.93,-55.5 -76.62,-53.78 -78.81,-52.07 -81.02,-50.36 -83.55,-48.62 -86.48,-46.83 -89.81,-44.96 -93.61,-43.01 -97.97,-40.99 -102.87,-38.94 -108.02,-36.87 -113.03,-34.85 -117.54,-32.9 -121.47,-30.99 -124.97,-29.08 -128.23,-27.08 -131.23,-24.93 -133.88,-22.66 -136.39,-20.35 -139.16,-18.1 -142.19,-15.88 -146.21,-13.68" fill="none" stroke="rgb(134, 46, 19)" stroke-width="2" stroke-linejoin="round" filter="url(#fuzzy)" /><polyline points="-44.36,-64.33 -43,-62.93 -44.61,-61.77 -46.9,-60.41 -49.26,-58.84 -51.31,-57.14 -52.89,-55.39 -54.03,-53.65 -54.85,-51.93 -55.39,-50.2 -55.61,-48.44 -55.45,-46.63 -54.92,-44.73 -54.1,-42.77 -53.1,-40.75 -51.98,-38.7 -50.75,-36.65 -49.39,-34.63 -47.93,-32.64 -46.51,-30.66 -45.32,-28.65 -44.45,-26.58 -43.82,-24.43 -43.14,-22.19 -42.01,-19.88 -40.2,-17.52 -37.75,-15.14 -34.97,-12.73 -32.14,-10.32 -29.27,-7.92 -26.23,-5.51 -23.31,-3.03 -21.27,-0.33 -19.31,2.79" fill="none" stroke="rgb(134, 46, 19)" stroke-width="2" stroke-linejoin="round" filter="url(#fuzzy)" /><polyline points="-47.49,-62.19 -49.9,-61.72 -52.76,-60.63 -56.09,-59.3 -60,-57.88 -64.07,-56.44 -67.91,-54.97 -71.4,-53.42 -74.54,-51.74 -77.43,-49.9 -80.31,-47.95 -83.44,-45.95 -87.11,-43.97 -91.47,-42.02 -96.57,-40.08 -102.31,-38.12 -108.58,-36.08 -115.27,-33.96 -122.15,-31.79 -128.82,-29.65 -134.79,-27.56 -139.76,-25.54 -143.99,-23.51 -148.08,-21.38 -152.4,-19.06 -156.81,-16.46 -163.22,-13.34" fill="none" stroke="rgb(134, 46, 19)" stroke-width="2" stroke-linejoin="round" filter="url(#fuzzy)" /><polyline points="-47.61,-62.54 -56.59,-60.71 -59.42,-58.98 -63.36,-57.18 -68.49,-55.37 -73.47,-53.63 -77.59,-51.95 -80.9,-50.28 -83.65,-48.59 -86.05,-46.82 -88.24,-44.96 -90.46,-43.02 -93.08,-41 -96.5,-38.92 -100.89,-36.84 -106.08,-34.82 -111.55,-32.9 -116.75,-31.07 -121.5,-29.25 -126.28,-27.3 -132.12,-25.11 -139.76,-22.74 -148.48,-20.44 -154.55,-18.72" fill="none" stroke="rgb(134, 46, 19)" stroke-width="2" stroke-linejoin="round" filter="url(#fuzzy)" /><polyline points="-51.47,-59.28 -53.59,-57.12 -54.88,-55.14 -56.31,-53.36 -57.88,-51.7 -59.36,-50.05 -60.64,-48.34 -61.75,-46.54 -62.84,-44.64 -64.01,-42.66 -65.27,-40.62 -66.56,-38.54 -67.81,-36.49 -68.92,-34.47 -69.85,-32.5 -70.61,-30.54 -71.21,-28.56 -71.68,-26.5 -72.07,-24.35 -72.37,-22.11 -72.6,-19.8 -72.72,-17.45 -72.71,-15.07 -72.55,-12.67 -72.23,-10.27 -71.7,-7.88 -70.95,-5.48 -70.01,-3.01 -69.08,-0.32 -68.47,2.79" fill="none" stroke="rgb(134, 46, 19)" stroke-width="2" stroke-linejoin="round" filter="url(#fuzzy)" /><polyline points="-53.62,-57.66 -55.96,-56.15 -58.15,-54.74 -59.95,-53.27 -61.75,-51.58 -63.83,-49.64 -66.27,-47.58 -68.95,-45.51 -71.71,-43.48 -74.34,-41.5 -76.73,-39.53 -78.83,-37.52 -80.64,-35.44 -82.18,-33.33 -83.53,-31.18 -84.76,-29.04 -85.95,-26.9 -87.19,-24.76 -88.53,-22.6 -89.97,-20.43 -91.48,-18.23 -92.98,-16 -94.39,-13.75 -95.65,-11.46 -96.75,-9.14 -97.69,-6.75 -98.5,-4.29 -99.18,-1.79 -99.72,0.72 -100.08,3.19 -100.23,5.55 -100.18,7.81 -100.09,10.01 -100.26,12.23 -100.91,14.57 -101.92,17.24" fill="none" stroke="rgb(134, 46, 19)" stroke-width="2" stroke-linejoin="round" filter="url(#fuzzy)" /><polyline points="-53.62,-57.66 -55.26,-56.16 -56.57,-54.77 -57.63,-53.33 -58.7,-51.67 -59.88,-49.76 -61.04,-47.71 -61.88,-45.64 -62.18,-43.63 -61.87,-41.68 -61.11,-39.76 -60.13,-37.79 -59.16,-35.74 -58.38,-33.63 -57.86,-31.48 -57.54,-29.34 -57.28,-27.24 -56.79,-25.16 -55.83,-23.06 -54.25,-20.92 -52.07,-18.71 -49.48,-16.48 -46.82,-14.29 -44.54,-12.15 -43.12,-9.99 -42.49,-7.66 -40.5,-5.13" fill="none" stroke="rgb(134, 46, 19)" stroke-width="2" stroke-linejoin="round" filter="url(#fuzzy)" /><polyline points="-55.33,-56.22 -64.26,-54.66 -70.45,-53.36 -71.84,-51.76 -72.55,-49.83 -74.64,-47.73 -77.93,-45.62 -81.37,-43.62 -84.1,-41.71 -86.04,-39.83 -87.83,-37.9 -90.35,-35.87 -94.24,-33.74 -99.68,-31.57 -106.3,-29.44 -113.31,-27.37 -119.77,-25.35 -125.05,-23.32 -129.34,-21.18 -133.79,-18.91 -139.84,-16.56 -147.5,-14.34 -154.64,-13.02" fill="none" stroke="rgb(134, 46, 19)" stroke-width="2" stroke-linejoin="round" filter="url(#fuzzy)" /><polyline points="-56.99,-54.74 -61.57,-53.04 -63.56,-51.54 -67.08,-50.01 -72.06,-48.34 -77.12,-46.55 -81.38,-44.66 -84.75,-42.67 -87.56,-40.62 -90.3,-38.53 -93.44,-36.46 -97.37,-34.45 -102.27,-32.52 -108.1,-30.62 -114.71,-28.69 -121.9,-26.67 -129.39,-24.53 -136.8,-22.28 -143.74,-19.98 -150.05,-17.64 -155.86,-15.27 -161.41,-12.85 -167,-10.44 -173.07,-8.08 -176.32,-5.22" fill="none" stroke="rgb(134, 46, 19)" stroke-width="2" stroke-linejoin="round" filter="url(#fuzzy)" /><polyline points="78.95,-18.94 80.59,-15.44 83.4,-12.99 86.9,-10.75 90.43,-8.52 94.01,-6.28 98.02,-4.02 102.56,-1.76 107.43,0.51 112.16,2.78 116.24,5.04 119.32,7.27 121.46,9.46 123.17,11.63 125.1,13.8 127.62,15.99 130.68,18.24 133.96,20.57 137.2,22.99 140.22,25.45 142.57,27.9 143.93,30.25 145.48,32.45 150.19,34.55" fill="none" stroke="rgb(134, 46, 19)" stroke-width="2" stroke-linejoin="round" filter="url(#fuzzy)" /><polyline points="-59.01,-52.82 -60.57,-51.43 -62.59,-50 -65.32,-48.35 -67.97,-46.54 -69.96,-44.64 -71.34,-42.66 -72.5,-40.6 -73.83,-38.5 -75.51,-36.43 -77.54,-34.42 -79.86,-32.51 -82.4,-30.64 -85.05,-28.73 -87.65,-26.73 -89.98,-24.59 -91.78,-22.34 -92.94,-20.04 -93.62,-17.72 -94.32,-15.36 -95.72,-12.91 -98.03,-10.56 -100.41,-9.18" fill="none" stroke="rgb(134, 46, 19)" stroke-width="2" stroke-linejoin="round" filter="url(#fuzzy)" /><polyline points="-59.01,-52.82 -62.03,-51.4 -64.6,-49.93 -66.42,-48.24 -68.19,-46.39 -70.11,-44.44 -72.14,-42.41 -74.35,-40.32 -76.98,-38.22 -80.23,-36.14 -84.14,-34.11 -88.56,-32.12 -93.16,-30.13 -97.55,-28.1 -101.46,-25.99 -104.75,-23.81 -107.47,-21.54 -109.8,-19.22 -111.95,-16.86 -114.11,-14.47 -116.32,-12.07 -118.49,-9.67 -120.44,-7.27 -122,-4.88 -123.08,-2.52 -123.8,-0.2 -124.4,2.1 -125.18,4.38 -126.38,6.67 -128.08,8.98 -130.24,11.3 -132.67,13.59 -135.04,15.8 -136.84,17.97 -137.73,20.17 -138.11,22.35 -140.19,24.06" fill="none" stroke="rgb(134, 46, 19)" stroke-width="2" stroke-linejoin="round" filter="url(#fuzzy)" /><polyline points="-57.83,-54 -55.61,-52.09 -55,-49.86 -57.18,-47.52 -59.47,-45.31 -60.45,-43.28 -59.94,-41.38 -58.28,-39.49 -55.97,-37.53 -53.58,-35.46 -51.74,-33.33 -51,-31.17 -51.59,-29.02 -53.25,-26.91 -55.27,-24.8 -56.74,-22.68 -56.89,-20.52 -55.34,-18.33 -52.18,-16.12 -47.97,-13.9 -43.54,-11.66 -39.71,-9.39 -37.02,-7.04 -35.33,-4.57 -33.82,-1.99 -31.35,0.66 -27.38,3.26 -22.91,5.49 -21.21,6.81" fill="none" stroke="rgb(134, 46, 19)" stroke-width="2" stroke-linejoin="round" filter="url(#fuzzy)" /><polyline points="-60.53,-51.13 -61.78,-50 -64.36,-48.28 -68.49,-46.39 -73.39,-44.42 -78.18,-42.38 -82.51,-40.28 -86.5,-38.16 -90.29,-36.07 -93.9,-34.04 -97.38,-32.06 -100.87,-30.07 -104.51,-28.05 -108.28,-25.94 -111.9,-23.75 -114.96,-21.48 -117.14,-19.16 -118.4,-16.8 -119.1,-14.41 -119.81,-12.01 -121.09,-9.6 -123.25,-7.2 -126.22,-4.82 -129.7,-2.46 -133.33,-0.14 -136.89,2.16 -140.29,4.45 -143.63,6.74 -147.04,9.04 -150.7,11.35 -154.8,13.63 -159.36,15.85 -164.09,18.03 -168.28,20.2 -171.04,22.36 -171.36,24.44 -167.47,26.56" fill="none" stroke="rgb(134, 46, 19)" stroke-width="2" stroke-linejoin="round" filter="url(#fuzzy)" /><polyline points="-59.96,-52.11 -62,-49.9 -64.09,-47.41 -65.92,-45.13 -67.47,-43.11 -68.78,-41.24 -69.97,-39.36 -71.11,-37.4 -72.24,-35.32 -73.35,-33.16 -74.42,-30.99 -75.42,-28.84 -76.33,-26.71 -77.17,-24.58 -77.95,-22.44 -78.66,-20.27 -79.31,-18.07 -79.89,-15.85 -80.4,-13.6 -80.83,-11.32 -81.19,-8.99 -81.47,-6.6 -81.69,-4.15 -81.86,-1.66 -81.96,0.83 -82,3.28 -81.98,5.63 -81.89,7.9 -81.72,10.12 -81.47,12.37 -81.11,14.69 -80.66,17.12 -80.1,19.53" fill="none" stroke="rgb(134, 46, 19)" stroke-width="2" stroke-linejoin="round" filter="url(#fuzzy)" /><polyline points="78.72,-19.1 79.07,-17.77 79.42,-15.59 79.61,-13.19 79.51,-10.74 78.98,-8.24 77.95,-5.72 76.48,-3.19 74.8,-0.7 73.23,1.71 72,4.02 71.14,6.23 70.51,8.4 69.88,10.58 69.05,12.81 67.88,15.12 66.38,17.48 64.66,19.85 62.84,22.17 61.01,24.39 59.2,26.54 57.39,28.66 55.56,30.81 53.77,33.01 52.06,35.26 50.38,37.52 48.6,39.7 46.71,41.62 44.99,42.83" fill="none" stroke="rgb(134, 46, 19)" stroke-width="2" stroke-linejoin="round" filter="url(#fuzzy)" /><polyline points="-70.38,-38.13 -82.52,-35.45 -89.99,-33.32 -89.58,-31.57 -87.42,-29.87 -87.21,-27.99 -89.59,-25.89 -93.58,-23.65 -97.92,-21.33 -101.91,-18.98 -105.48,-16.61 -108.76,-14.23 -111.85,-11.85 -114.8,-9.46 -117.73,-7.07 -120.96,-4.7 -124.86,-2.36 -129.63,-0.07 -135.09,2.18 -140.7,4.4 -145.74,6.66 -149.57,8.98 -151.8,11.34 -152.71,13.61 -153.79,15.7 -157.82,17.66 -168.07,19.99" fill="none" stroke="rgb(134, 46, 19)" stroke-width="2" stroke-linejoin="round" filter="url(#fuzzy)" /><polyline points="78.73,-19.89 81.46,-17.94 86.67,-15.45 90.45,-13.07 92.54,-10.76 94.3,-8.47 96.53,-6.19 99.03,-3.9 101.07,-1.61 102.14,0.69 102.24,2.98 101.87,5.25 101.68,7.51 102.13,9.74 103.35,11.97 105.16,14.21 107.21,16.47 109.17,18.78 110.84,21.12 112.15,23.49 113.16,25.86 113.95,28.19 114.6,30.46 115.2,32.65 115.79,34.76 116.35,36.82 116.84,38.86 117.12,40.87 117.13,42.84 117.02,44.73 117.18,46.52 117.9,48.3 118.52,50.18 116.69,51.92" fill="none" stroke="rgb(134, 46, 19)" stroke-width="2" stroke-linejoin="round" filter="url(#fuzzy)" /><polyline points="-74.82,-29.69 -75.6,-27.81 -76.33,-26.04 -77.07,-24.1 -77.78,-21.99 -78.45,-19.76 -79.07,-17.5 -79.61,-15.26 -80.08,-13.02 -80.49,-10.76 -80.83,-8.45 -81.1,-6.06 -81.29,-3.61 -81.38,-1.12 -81.39,1.34 -81.32,3.74 -81.19,6.08 -81.01,8.35 -80.78,10.6 -80.48,12.86 -80.11,15.15 -79.64,17.44 -79.11,19.7 -78.51,21.84 -77.86,23.84 -77.12,25.79 -76.27,27.85" fill="none" stroke="rgb(134, 46, 19)" stroke-width="2" stroke-linejoin="round" filter="url(#fuzzy)" /><polyline points="-76.22,-26.27 -76.03,-24.2 -74.85,-21.94 -73.59,-19.6 -72.79,-17.27 -72.33,-15 -71.74,-12.76 -70.61,-10.5 -68.83,-8.17 -66.52,-5.76 -63.94,-3.29 -61.44,-0.8 -59.35,1.66 -57.87,4.06 -56.96,6.41 -56.28,8.7 -55.28,10.98 -53.41,13.25 -50.37,15.51 -46.33,17.76 -41.84,19.97 -37.6,22.14 -34.08,24.25 -31.29,26.32 -28.94,28.37 -26.76,30.45 -24.71,32.59 -22.75,34.87 -20.24,37.27 -16.37,39.46 -12.97,40.7" fill="none" stroke="rgb(134, 46, 19)" stroke-width="2" stroke-linejoin="round" filter="url(#fuzzy)" /><polyline points="78.05,-22.21 84.08,-19.88 88.06,-17.83 87.86,-15.62 86.43,-13.27 85.68,-10.84 86.21,-8.36 87.87,-5.85 90.18,-3.34 92.57,-0.86 94.58,1.55 96.07,3.86 97.17,6.08 98.16,8.23 99.29,10.38 100.6,12.59 101.97,14.9 103.17,17.29 104.03,19.7 104.49,22.03 104.67,24.24 104.81,26.33 105.23,28.39 106.17,30.5 107.64,32.72 109.25,35 108.75,37.16" fill="none" stroke="rgb(134, 46, 19)" stroke-width="2" stroke-linejoin="round" filter="url(#fuzzy)" /><polyline points="77.29,-24.12 78.54,-20.86 80.26,-18.16 82.19,-15.62 83.57,-13.21 84.21,-10.89 84.37,-8.59 84.47,-6.31 84.82,-4.03 85.61,-1.74 86.84,0.55 88.47,2.83 90.41,5.1 92.57,7.35 94.86,9.57 97.15,11.79 99.26,14.01 100.98,16.26 102.16,18.55 102.75,20.9 102.84,23.28 102.64,25.68 102.32,28.04 101.93,30.33 101.37,32.51 100.55,34.57 99.54,36.57 98.58,38.6 97.81,40.8 97.02,43.17 94.88,45.29" fill="none" stroke="rgb(134, 46, 19)" stroke-width="2" stroke-linejoin="round" filter="url(#fuzzy)" /><polyline points="78.24,-21.4 78.33,-21.05 78.7,-19.63 79.19,-17.76 79.78,-15.63 80.42,-13.33 81.06,-10.94 81.61,-8.48 82,-5.98 82.23,-3.47 82.34,-0.99 82.4,1.42 82.44,3.73 82.5,5.95 82.55,8.09 82.55,10.22 82.46,12.41 82.25,14.72 81.95,17.14 81.59,19.6 81.21,21.96 80.81,24.15 80.31,26.16 79.68,28.12 78.92,30.2 78.01,32.67" fill="none" stroke="rgb(134, 46, 19)" stroke-width="2" stroke-linejoin="round" filter="url(#fuzzy)" /><polyline points="76.68,-25.32 78.8,-23.36 83.52,-20.85 88.76,-18.27 93.99,-15.77 98.85,-13.36 102.59,-11.02 104.66,-8.72 105.29,-6.44 105.28,-4.16 105.44,-1.88 106.25,0.41 107.78,2.69 110.01,4.95 112.93,7.2 116.56,9.41 120.78,11.62 125.16,13.82 129.09,16.05 131.9,18.33 133.22,20.67 133.16,23.08 132.35,25.52 131.72,27.93 132.17,30.26 134.06,32.46 136.51,34.47 137.52,36.15 137.93,37.08" fill="none" stroke="rgb(134, 46, 19)" stroke-width="2" stroke-linejoin="round" filter="url(#fuzzy)" /><polyline points="76.82,-25.74 78.05,-22.99 79.29,-21.27 80.44,-19.56 81.61,-17.64 83,-15.5 84.61,-13.2 86.31,-10.79 88.01,-8.32 89.6,-5.81 90.96,-3.31 91.97,-0.83 92.52,1.57 92.58,3.91 92.21,6.17 91.53,8.4 90.7,10.63 89.86,12.9 89.17,15.21 88.72,17.55 88.6,19.89 88.84,22.19 89.37,24.45 90.06,26.65 90.73,28.83 91.14,31.01 91.13,33.2 90.59,35.4 89.56,37.58 88.21,39.7 86.81,41.74 85.59,43.7 84.6,45.59 83.68,47.46 82.87,49.21 83.07,50.36" fill="none" stroke="rgb(134, 46, 19)" stroke-width="2" stroke-linejoin="round" filter="url(#fuzzy)" /><polyline points="75.52,-27.91 77.47,-25.48 79.06,-23.31 80.64,-21.47 82.46,-19.68 84.4,-17.76 86.37,-15.66 88.4,-13.42 90.55,-11.06 92.86,-8.62 95.31,-6.14 97.82,-3.64 100.25,-1.16 102.37,1.26 103.91,3.58 104.67,5.81 104.67,7.95 104.21,10.08 103.86,12.27 104.16,14.59 105.41,17.03 107.49,19.52 109.99,21.92 112.51,24.09 114.85,26.04 117.05,27.93 120.34,29.55" fill="none" stroke="rgb(134, 46, 19)" stroke-width="2" stroke-linejoin="round" filter="url(#fuzzy)" /><polyline points="75.52,-27.91 77.67,-25.48 82.43,-23.31 88.17,-21.46 93.08,-19.67 96.93,-17.74 100.13,-15.64 103.01,-13.39 105.69,-11.02 108.14,-8.58 110.19,-6.1 111.72,-3.6 112.87,-1.12 114.08,1.29 115.88,3.61 118.71,5.85 122.68,8.01 127.51,10.16 132.59,12.36 137.02,14.68 139.95,17.1 140.97,19.55 140.49,21.92 139.67,24.12 139.77,26.14 141.34,28.11 144.43,30.19 148.26,32.67" fill="none" stroke="rgb(134, 46, 19)" stroke-width="2" stroke-linejoin="round" filter="url(#fuzzy)" /><polyline points="72.65,-34.44 73.34,-33.29 74.87,-30.87 77.46,-28.32 81.21,-25.94 85.56,-23.76 89.84,-21.74 93.59,-19.76 96.55,-17.73 98.57,-15.59 99.79,-13.35 100.65,-11 101.82,-8.58 103.93,-6.11 107.32,-3.63 111.84,-1.17 116.91,1.24 121.69,3.58 125.44,5.86 127.79,8.09 128.91,10.31 129.41,12.57 130.08,14.88 131.51,17.24 133.88,19.61 136.88,21.94 139.87,24.19 142.24,26.36 143.64,28.49 144.16,30.64 144.12,32.86 143.7,35.15 142.83,37.48 141.77,39.85 143.3,42.2" fill="none" stroke="rgb(134, 46, 19)" stroke-width="2" stroke-linejoin="round" filter="url(#fuzzy)" /><polyline points="72.92,-34.11 75.78,-33.09 78.31,-31.58 79.63,-29.83 80.62,-27.85 81.51,-25.68 82.19,-23.37 82.64,-20.97 83,-18.53 83.47,-16.09 84.23,-13.67 85.43,-11.29 87.12,-8.94 89.31,-6.61 91.95,-4.3 94.9,-1.99 98.01,0.31 101.15,2.6 104.18,4.88 106.97,7.14 109.39,9.39 111.28,11.63 112.53,13.88 113.15,16.16 113.28,18.47 113.18,20.82 113.09,23.2 113.16,25.59 113.4,27.95 113.74,30.24 114.1,32.44 114.35,34.55 114.29,36.6 113.73,38.65 112.7,40.77 111.82,42.89 112.13,44.7 113.41,45.66" fill="none" stroke="rgb(134, 46, 19)" stroke-width="2" stroke-linejoin="round" filter="url(#fuzzy)" /><polyline points="70.69,-37.86 72.95,-35.45 74.71,-33.27 76.01,-30.88 77.05,-28.43 77.96,-26.08 78.87,-23.91 79.94,-21.86 81.26,-19.85 82.87,-17.81 84.66,-15.69 86.49,-13.46 88.19,-11.12 89.74,-8.71 91.21,-6.25 92.78,-3.76 94.62,-1.3 96.79,1.11 99.22,3.46 101.71,5.72 104.04,7.93 106.05,10.12 107.69,12.36 109.02,14.68 110.17,17.07 111.22,19.5 112.19,21.86 113.08,24.09 113.96,26.18 114.95,28.22 115.94,30.34 116.37,32.63 116.45,35.03" fill="none" stroke="rgb(134, 46, 19)" stroke-width="2" stroke-linejoin="round" filter="url(#fuzzy)" /><polyline points="70.32,-38.23 72.57,-35.34 74.54,-33.42 76.48,-31.69 78.21,-29.89 79.66,-27.93 80.93,-25.8 82.26,-23.54 83.75,-21.17 85.33,-18.76 86.87,-16.33 88.23,-13.93 89.38,-11.56 90.38,-9.23 91.27,-6.92 92.13,-4.63 92.98,-2.34 93.83,-0.05 94.67,2.24 95.47,4.51 96.13,6.77 96.53,8.99 96.59,11.18 96.33,13.36 95.95,15.53 95.7,17.75 95.8,20.08 96.23,22.57 96.77,25.15 97.06,27.88" fill="none" stroke="rgb(134, 46, 19)" stroke-width="2" stroke-linejoin="round" filter="url(#fuzzy)" /><polyline points="68.27,-41.6 70.79,-40.21 74.88,-38.03 78.53,-35.82 81.03,-33.8 82.52,-31.9 83.29,-30 83.57,-28.02 83.62,-25.91 83.77,-23.68 84.33,-21.34 85.55,-18.95 87.48,-16.54 89.96,-14.14 92.73,-11.77 95.52,-9.44 98.2,-7.13 100.76,-4.84 103.3,-2.55 105.87,-0.27 108.33,2.03 110.4,4.31 111.74,6.58 112.29,8.8 112.52,10.98 113.31,13.14 115.38,15.2 118.35,17.08 120.78,19.24" fill="none" stroke="rgb(134, 46, 19)" stroke-width="2" stroke-linejoin="round" filter="url(#fuzzy)" /><polyline points="67.38,-43.28 68.86,-40.93 69.95,-39.09 70.98,-37.33 72.03,-35.44 73.11,-33.37 74.21,-31.14 75.27,-28.84 76.26,-26.57 77.13,-24.4 77.88,-22.35 78.51,-20.37 79.05,-18.38 79.55,-16.33 80.02,-14.18 80.46,-11.9 80.87,-9.53 81.24,-7.07 81.54,-4.55 81.75,-2 81.87,0.55 81.91,3.07 81.88,5.64 81.8,8.55" fill="none" stroke="rgb(134, 46, 19)" stroke-width="2" stroke-linejoin="round" filter="url(#fuzzy)" /><polyline points="66.22,-44.98 68.84,-43.49 72.54,-41.87 78.04,-40.02 83.05,-38 86.06,-35.94 87.12,-33.94 87.08,-31.98 86.81,-30.01 86.8,-27.98 87.2,-25.84 87.95,-23.61 88.99,-21.29 90.3,-18.91 91.84,-16.5 93.57,-14.1 95.4,-11.73 97.22,-9.37 99.02,-7.04 100.87,-4.73 102.88,-2.43 105.11,-0.13 107.47,2.17 109.76,4.45 111.79,6.72 113.49,8.95 114.99,11.17 116.4,13.36 117.69,15.57 118.59,17.83 118.86,20.17 118.7,22.64 118.89,25.21 120.18,27.81 122.05,30.34" fill="none" stroke="rgb(134, 46, 19)" stroke-width="2" stroke-linejoin="round" filter="url(#fuzzy)" /><polyline points="66.22,-44.98 67.21,-43.49 68.52,-41.88 70.21,-40.04 72.29,-38.03 74.64,-35.98 77.13,-33.98 79.63,-32.04 82.09,-30.08 84.48,-28.07 86.76,-25.96 88.86,-23.73 90.72,-21.42 92.32,-19.04 93.76,-16.63 95.24,-14.24 96.92,-11.86 98.83,-9.52 100.81,-7.2 102.56,-4.9 103.79,-2.61 104.37,-0.32 104.47,1.98 104.46,4.27 104.71,6.54 105.38,8.77 106.3,10.96 107.15,13.12 107.76,15.19 108.36,17.07 108.82,19.24" fill="none" stroke="rgb(134, 46, 19)" stroke-width="2" stroke-linejoin="round" filter="url(#fuzzy)" /><polyline points="60.38,-51.51 62.92,-49.48 65.79,-47.5 68.34,-45.47 70.36,-43.41 72.12,-41.4 73.92,-39.42 75.95,-37.45 78.26,-35.43 80.77,-33.32 83.3,-31.13 85.58,-28.9 87.4,-26.69 88.71,-24.51 89.66,-22.4 90.59,-20.31 91.87,-18.22 93.78,-16.09 96.44,-13.88 99.81,-11.58 103.71,-9.19 107.91,-6.74 112.16,-4.25 116.23,-1.75 119.91,0.71 123.01,3.08 125.44,5.35 127.25,7.48 128.6,9.54 129.74,11.61 130.85,13.89 132.03,16.52 133.05,19.54 132.57,22.94" fill="none" stroke="rgb(134, 46, 19)" stroke-width="2" stroke-linejoin="round" filter="url(#fuzzy)" /><polyline points="58.67,-53.07 62.75,-51.83 64.55,-49.91 65.94,-47.83 67.2,-45.84 68.51,-43.95 69.93,-42.1 71.48,-40.22 73.1,-38.28 74.74,-36.31 76.34,-34.35 77.85,-32.4 79.25,-30.45 80.57,-28.45 81.87,-26.37 83.19,-24.18 84.57,-21.89 85.99,-19.52 87.44,-17.11 88.86,-14.7 90.22,-12.33 91.49,-9.99 92.67,-7.69 93.8,-5.41 94.91,-3.16 96.02,-0.97 96.96,1.1 96.84,2.78" fill="none" stroke="rgb(134, 46, 19)" stroke-width="2" stroke-linejoin="round" filter="url(#fuzzy)" /><polyline points="51.63,-59.05 54.44,-57.47 56.24,-55.88 57.92,-54.27 59.57,-52.68 61.18,-51.04 62.78,-49.31 64.38,-47.49 66,-45.58 67.6,-43.63 69.15,-41.65 70.6,-39.66 71.95,-37.64 73.21,-35.59 74.39,-33.47 75.53,-31.31 76.61,-29.12 77.64,-26.92 78.6,-24.75 79.47,-22.62 80.24,-20.51 80.93,-18.39 81.55,-16.25 82.12,-14.03 82.64,-11.73 83.14,-9.35 83.59,-6.9 83.98,-4.4 84.28,-1.89 84.48,0.58 84.58,2.98 84.57,5.26 84.48,7.39 84.34,9.4 84.2,11.4 84.05,13.62 83.86,16.25 83.67,19.11" fill="none" stroke="rgb(134, 46, 19)" stroke-width="2" stroke-linejoin="round" filter="url(#fuzzy)" /><polyline points="47.04,-62.71 50.42,-61.04 53.11,-59.32 54.93,-57.65 56.52,-56.01 58.22,-54.39 60.13,-52.77 62.25,-51.11 64.51,-49.38 66.79,-47.57 68.94,-45.69 70.82,-43.75 72.39,-41.79 73.68,-39.81 74.78,-37.8 75.78,-35.75 76.79,-33.64 77.85,-31.49 78.97,-29.29 80.16,-27.09 81.4,-24.92 82.66,-22.8 83.93,-20.71 85.16,-18.63 86.32,-16.51 87.4,-14.32 88.36,-12.04 89.22,-9.66 89.98,-7.19 90.65,-4.66 91.27,-2.09 91.85,0.47 92.39,3 92.86,5.44 93.28,7.66 94.01,9.07" fill="none" stroke="rgb(134, 46, 19)" stroke-width="2" stroke-linejoin="round" filter="url(#fuzzy)" /><polyline points="46.23,-63.09 50.78,-61.95 53.54,-60.29 55.85,-58.59 58.11,-56.95 60.77,-55.34 64.29,-53.71 68.87,-52.01 74.32,-50.22 80.1,-48.36 85.52,-46.48 90.05,-44.61 93.53,-42.75 96.22,-40.88 98.67,-38.96 101.41,-36.99 104.83,-35.03 109.15,-33.13 114.39,-31.3 120.34,-29.49 126.51,-27.6 132.61,-25.68 138.19,-24.12" fill="none" stroke="rgb(134, 46, 19)" stroke-width="2" stroke-linejoin="round" filter="url(#fuzzy)" /><polyline points="46.63,-62.97 46.55,-62.25 48.27,-60.93 49.5,-59.4 49.44,-57.8 48.29,-56.19 46.75,-54.61 45.37,-53.03 44.35,-51.42 43.69,-49.75 43.38,-48 43.56,-46.15 44.31,-44.24 45.45,-42.3 46.43,-40.37 46.55,-38.47 45.28,-36.57 42.5,-34.61 38.63,-32.49 34.49,-30.17 31.1,-27.63 29.28,-24.85 28.19,-21.4" fill="none" stroke="rgb(134, 46, 19)" stroke-width="2" stroke-linejoin="round" filter="url(#fuzzy)" /><polyline points="46.63,-62.97 53.87,-62.24 56.08,-60.93 58.15,-59.39 61.18,-57.78 65.09,-56.18 69.5,-54.59 74.1,-53 78.76,-51.39 83.49,-49.71 88.25,-47.95 92.94,-46.1 97.45,-44.19 101.79,-42.25 105.97,-40.31 109.94,-38.4 113.68,-36.48 117.38,-34.48 121.56,-32.35 126.77,-30.04 133.1,-27.58 140.07,-25.12 147.15,-22.97 150.85,-22.21" fill="none" stroke="rgb(134, 46, 19)" stroke-width="2" stroke-linejoin="round" filter="url(#fuzzy)" /><polyline points="41.01,-66.52 42.59,-65.65 45.02,-64.54 48.91,-63.29 54.55,-61.89 61.28,-60.38 68.15,-58.79 74.47,-57.19 79.89,-55.57 84.4,-53.93 88.22,-52.23 91.61,-50.46 94.82,-48.61 97.96,-46.74 101.09,-44.88 104.34,-43.04 107.95,-41.19 112.21,-39.27 117.12,-37.24 122.15,-35.18 126.41,-33.25 130.24,-31.69 137.26,-30.89" fill="none" stroke="rgb(134, 46, 19)" stroke-width="2" stroke-linejoin="round" filter="url(#fuzzy)" /><polyline points="35.22,-69.19 41.28,-68.4 42.27,-67.39 43.02,-66.25 44.42,-65.02 46.37,-63.72 48.72,-62.37 51.44,-60.94 54.59,-59.46 58.23,-57.92 62.3,-56.35 66.57,-54.75 70.76,-53.13 74.65,-51.48 78.17,-49.77 81.44,-47.99 84.62,-46.15 87.83,-44.25 91,-42.31 93.96,-40.36 96.59,-38.41 98.99,-36.42 101.53,-34.37 104.68,-32.21 108.69,-29.93 113.36,-27.59 118.08,-25.27 122.3,-23.12 126.16,-21.27 130.47,-19.7 134.94,-18.55" fill="none" stroke="rgb(134, 46, 19)" stroke-width="2" stroke-linejoin="round" filter="url(#fuzzy)" /><polyline points="35.22,-69.19 50.86,-68.41 57.6,-67.41 60.31,-66.28 61.65,-65.06 62.38,-63.77 62.91,-62.43 63.77,-61.03 65.46,-59.55 68.25,-58.02 72.07,-56.46 76.68,-54.88 81.72,-53.29 86.9,-51.67 92.17,-49.99 97.71,-48.24 103.85,-46.41 110.7,-44.5 117.99,-42.55 125.12,-40.61 131.69,-38.71 137.89,-36.86 144.21,-34.98 150.38,-32.91 154.68,-30.46 156.62,-27.91" fill="none" stroke="rgb(134, 46, 19)" stroke-width="2" stroke-linejoin="round" filter="url(#fuzzy)" /><polyline points="29.35,-71.75 31.46,-71.02 34.25,-70.05 36.78,-69.04 39.17,-67.99 41.49,-66.89 43.73,-65.73 45.89,-64.51 47.99,-63.2 50.05,-61.79 52.12,-60.31 54.22,-58.76 56.37,-57.15 58.55,-55.5 60.73,-53.8 62.86,-52.05 64.9,-50.26 66.81,-48.42 68.58,-46.55 70.22,-44.65 71.81,-42.74 73.39,-40.81 75.03,-38.87 76.76,-36.92 78.57,-34.96 80.43,-33 82.32,-31.03 84.21,-29.04 86.1,-26.98 87.94,-24.81 89.71,-22.53 91.29,-20.12 92.61,-17.63 93.61,-15.13 94.35,-12.7 95.03,-10.32 95.9,-7.68" fill="none" stroke="rgb(134, 46, 19)" stroke-width="2" stroke-linejoin="round" filter="url(#fuzzy)" /><polyline points="26.04,-72.82 28.84,-71.92 31.64,-71.02 34.51,-70.06 37.09,-69.06 39.35,-68.02 41.51,-66.93 43.83,-65.78 46.55,-64.56 49.8,-63.27 53.65,-61.88 58.08,-60.41 62.96,-58.87 68.13,-57.28 73.45,-55.64 78.77,-53.96 84.02,-52.23 89.1,-50.44 93.9,-48.61 98.26,-46.74 102.06,-44.85 105.28,-42.96 108.14,-41.04 111.03,-39.1 114.4,-37.13 118.52,-35.17 123.36,-33.23 128.57,-31.34 133.77,-29.46 138.79,-27.51 143.58,-25.41 147.59,-23.06 149.23,-19.89" fill="none" stroke="rgb(134, 46, 19)" stroke-width="2" stroke-linejoin="round" filter="url(#fuzzy)" /><polyline points="22.12,-74.04 24.64,-73.26 27.26,-72.45 29.86,-71.62 32.35,-70.71 34.69,-69.71 36.95,-68.65 39.22,-67.54 41.58,-66.39 44.06,-65.18 46.63,-63.91 49.24,-62.58 51.82,-61.18 54.32,-59.72 56.71,-58.22 58.98,-56.67 61.14,-55.09 63.2,-53.5 65.21,-51.88 67.17,-50.21 69.1,-48.47 70.97,-46.63 72.77,-44.71 74.52,-42.73 76.28,-40.76 78.15,-38.87 80.18,-37.11 82.26,-35.57 83.5,-34.91" fill="none" stroke="rgb(134, 46, 19)" stroke-width="2" stroke-linejoin="round" filter="url(#fuzzy)" /><polyline points="20.02,-74.36 23.29,-73.63 27.13,-72.82 31.04,-71.95 34.4,-71.04 37.02,-70.09 39.07,-69.1 40.88,-68.06 42.73,-66.97 44.83,-65.82 47.29,-64.61 50.13,-63.32 53.31,-61.94 56.76,-60.48 60.35,-58.96 63.95,-57.38 67.43,-55.75 70.76,-54.07 73.96,-52.34 77.1,-50.56 80.25,-48.73 83.39,-46.86 86.45,-44.98 89.36,-43.09 92.09,-41.18 94.76,-39.24 97.59,-37.25 100.74,-35.26 104.09,-33.32 107.2,-31.48 109.59,-29.67 111.69,-27.66 115.62,-25.32" fill="none" stroke="rgb(134, 46, 19)" stroke-width="2" stroke-linejoin="round" filter="url(#fuzzy)" /><polyline points="17.77,-75.08 20.73,-74.38 23.67,-73.81 27.31,-73.17 31.14,-72.45 34.81,-71.64 38.29,-70.75 41.57,-69.78 44.62,-68.75 47.57,-67.66 50.72,-66.52 54.41,-65.33 58.78,-64.08 63.74,-62.77 69.05,-61.4 74.46,-59.96 79.84,-58.46 85.13,-56.91 90.25,-55.35 95.08,-53.78 99.64,-52.22 104.3,-50.64 109.59,-48.99 115.79,-47.22 122.6,-45.32 128.95,-43.28" fill="none" stroke="rgb(134, 46, 19)" stroke-width="2" stroke-linejoin="round" filter="url(#fuzzy)" /><polyline points="17.4,-75.25 18.91,-74.7 20.86,-74.16 23.18,-73.52 25.65,-72.77 28.14,-71.94 30.58,-71.04 32.96,-70.1 35.27,-69.11 37.53,-68.07 39.74,-66.97 41.9,-65.83 44.02,-64.61 46.1,-63.31 48.16,-61.94 50.17,-60.48 52.15,-58.96 54.07,-57.38 55.93,-55.75 57.75,-54.07 59.52,-52.34 61.25,-50.55 62.94,-48.72 64.58,-46.86 66.15,-44.97 67.63,-43.07 69.04,-41.15 70.39,-39.21 71.69,-37.23 72.94,-35.25 74.11,-33.31 75.18,-31.43 76.16,-29.58 77.1,-27.67 78,-25.71 78.75,-24.12" fill="none" stroke="rgb(134, 46, 19)" stroke-width="2" stroke-linejoin="round" filter="url(#fuzzy)" /><polyline points="13.11,-75.84 14.23,-75.61 16.15,-75.19 18.1,-74.7 19.93,-74.13 21.56,-73.48 22.89,-72.75 23.88,-71.93 24.58,-71.06 25.14,-70.12 25.74,-69.14 26.51,-68.11 27.5,-67.02 28.69,-65.87 30,-64.66 31.33,-63.37 32.61,-62.01 33.74,-60.56 34.66,-59.05 35.29,-57.48 35.58,-55.85 35.49,-54.18 35.02,-52.45 34.23,-50.67 33.16,-48.84 31.9,-46.97 30.5,-45.09 29.01,-43.2 27.48,-41.29 26.05,-39.34 24.95,-37.33 24.37,-35.3 24.23,-33.36 24.15,-31.6 23.19,-29.93 18.98,-27.69" fill="none" stroke="rgb(134, 46, 19)" stroke-width="2" stroke-linejoin="round" filter="url(#fuzzy)" /><polyline points="11.06,-76.18 15.08,-75.85 18.28,-75.38 20.82,-74.88 22.93,-74.35 25.04,-73.76 27.5,-73.11 30.45,-72.38 33.82,-71.56 37.42,-70.67 41.03,-69.7 44.57,-68.67 48.13,-67.57 51.87,-66.42 55.94,-65.2 60.29,-63.93 64.73,-62.6 68.95,-61.2 72.71,-59.75 75.96,-58.24 78.86,-56.7 81.68,-55.12 84.72,-53.51 88.16,-51.86 92.05,-50.17 96.34,-48.4 100.94,-46.57 105.73,-44.66 110.59,-42.71 115.4,-40.75 120.12,-38.83 124.92,-36.95 130.08,-35.04 135.58,-32.95 140.51,-30.49 143.48,-27.91" fill="none" stroke="rgb(134, 46, 19)" stroke-width="2" stroke-linejoin="round" filter="url(#fuzzy)" /><polyline points="5.73,-76.75 8.92,-76.34 11.72,-75.97 14.28,-75.6 16.79,-75.17 19.36,-74.68 22.04,-74.13 24.84,-73.49 27.78,-72.77 30.83,-71.98 33.96,-71.12 37.1,-70.21 40.12,-69.24 42.92,-68.22 45.4,-67.15 47.59,-66.03 49.6,-64.84 51.63,-63.58 53.85,-62.23 56.38,-60.81 59.23,-59.3 62.28,-57.74 65.36,-56.14 68.31,-54.51 71.03,-52.82 73.57,-51.05 76.04,-49.18 78.61,-47.23 81.27,-45.29 83.82,-43.5 85.97,-41.99 87.83,-40.94" fill="none" stroke="rgb(134, 46, 19)" stroke-width="2" stroke-linejoin="round" filter="url(#fuzzy)" /><polyline points="4.77,-76.75 8.54,-76.52 12.76,-76.2 16.37,-75.81 19.19,-75.36 21.68,-74.88 24.23,-74.34 27.01,-73.75 30.02,-73.1 33.21,-72.37 36.61,-71.56 40.34,-70.68 44.5,-69.72 49.09,-68.69 53.96,-67.6 58.94,-66.45 63.87,-65.24 68.72,-63.98 73.54,-62.65 78.4,-61.26 83.27,-59.81 88.05,-58.31 92.64,-56.76 96.95,-55.18 100.98,-53.58 104.73,-51.93 108.22,-50.24 111.43,-48.49 114.45,-46.65 117.49,-44.73 120.89,-42.77 124.95,-40.8 129.77,-38.89 135.22,-37.05 141.02,-35.24 146.96,-33.23 151.46,-30" fill="none" stroke="rgb(134, 46, 19)" stroke-width="2" stroke-linejoin="round" filter="url(#fuzzy)" /><polyline points="4.77,-76.75 9.41,-76.52 12.92,-76.21 15.61,-75.82 18.06,-75.38 20.58,-74.9 23.17,-74.38 25.78,-73.8 28.44,-73.16 31.26,-72.45 34.29,-71.66 37.49,-70.8 40.75,-69.86 44,-68.85 47.28,-67.78 50.68,-66.65 54.3,-65.47 58.19,-64.23 62.38,-62.94 66.84,-61.57 71.56,-60.14 76.53,-58.64 81.72,-57.09 87.07,-55.51 92.52,-53.93 97.82,-52.4 102.68,-50.87 107.33,-49.27 113.13,-47.56" fill="none" stroke="rgb(134, 46, 19)" stroke-width="2" stroke-linejoin="round" filter="url(#fuzzy)" /><polyline points="4,-76.61 6.36,-76.55 9.88,-76.3 13.77,-75.97 17.32,-75.61 20.49,-75.19 23.62,-74.72 27.02,-74.18 30.89,-73.57 35.31,-72.87 40.19,-72.11 45.3,-71.27 50.35,-70.38 55.15,-69.43 59.72,-68.44 64.27,-67.41 68.99,-66.33 73.8,-65.2 78.39,-64.01 82.44,-62.73 86.06,-61.33 89.98,-59.79 95.18,-58.14 102.17,-56.51 110.79,-55.21" fill="none" stroke="rgb(134, 46, 19)" stroke-width="2" stroke-linejoin="round" filter="url(#fuzzy)" /><polyline points="3.15,-76.79 6.01,-76.69 8.66,-76.48 11.59,-76.18 14.91,-75.81 18.41,-75.38 21.92,-74.91 25.5,-74.39 29.37,-73.82 33.67,-73.19 38.35,-72.48 43.19,-71.7 47.94,-70.85 52.53,-69.91 57.07,-68.91 61.83,-67.85 67.04,-66.73 72.78,-65.56 78.89,-64.33 85.02,-63.05 90.81,-61.7 96,-60.28 100.61,-58.77 105.04,-57.2 110.41,-55.59 118.05,-53.99 127.61,-52.55 133.63,-51.51" fill="none" stroke="rgb(134, 46, 19)" stroke-width="2" stroke-linejoin="round" filter="url(#fuzzy)" /><polyline points="1.78,-76.75 3.94,-76.66 6.58,-76.5 9.88,-76.26 13.79,-75.94 17.94,-75.57 21.79,-75.14 24.96,-74.65 27.49,-74.09 29.77,-73.46 32.3,-72.74 35.48,-71.96 39.45,-71.1 44.12,-70.19 49.26,-69.22 54.55,-68.2 59.7,-67.13 64.46,-65.99 68.65,-64.8 72.19,-63.53 75.21,-62.18 78.02,-60.75 81.1,-59.25 85,-57.68 90.13,-56.08 96.62,-54.42 104.1,-52.71 111.79,-50.93 118.66,-49.08 123.86,-47.19 127.29,-45.3 129.92,-43.47 133.5,-41.69 139.42,-39.81 147.84,-37.46 160.07,-34.11" fill="none" stroke="rgb(134, 46, 19)" stroke-width="2" stroke-linejoin="round" filter="url(#fuzzy)" /><polyline points="1.78,-76.75 3.96,-76.66 6.44,-76.5 9.18,-76.25 11.96,-75.94 14.67,-75.57 17.31,-75.14 19.92,-74.64 22.57,-74.08 25.27,-73.44 28.02,-72.73 30.78,-71.94 33.54,-71.08 36.29,-70.16 39.01,-69.19 41.68,-68.17 44.26,-67.09 46.73,-65.95 49.1,-64.74 51.39,-63.46 53.65,-62.11 55.97,-60.67 58.39,-59.17 60.97,-57.6 63.72,-55.99 66.64,-54.32 69.68,-52.6 72.76,-50.82 75.77,-48.98 78.56,-47.11 81.07,-45.22 83.28,-43.35 85.34,-41.47 87.46,-39.52 89.83,-37.43 92.39,-35.24 94.82,-33.12 97.22,-30.94" fill="none" stroke="rgb(134, 46, 19)" stroke-width="2" stroke-linejoin="round" filter="url(#fuzzy)" />
    </g>
    
        <g id="lineNose">
        <path d="M -13.07,13.280000000000001 Q 11.29, 11.115 -0.8900000000000006, -4.2700000000000005" fill="none" stroke="black" stroke-width="3" stroke-linejoin="round" filter="url(#fuzzy)"></path>
        </g>
      
    <g id="mouth">
      <polyline points="-33.6,22.66 -32.8,23.03 -31.98,23.39 -31.17,23.75 -30.34,24.09 -29.51,24.42 -28.67,24.74 -27.83,25.06 -26.98,25.36 -26.13,25.65 -25.27,25.94 -24.4,26.21 -23.53,26.48 -22.66,26.73 -21.78,26.98 -20.9,27.22 -20.02,27.45 -19.13,27.68 -18.24,27.89 -17.35,28.1 -16.45,28.3 -15.55,28.49 -14.65,28.67 -13.75,28.85 -12.85,29.02 -11.95,29.18 -11.04,29.33 -10.13,29.48 -9.23,29.62 -8.32,29.76 -7.42,29.88 -6.51,30 -5.6,30.12 -4.7,30.23 -3.8,30.33 -2.89,30.43 -1.99,30.52 -1.1,30.6 -0.2,30.68 0.69,30.76 1.59,30.82 2.47,30.89 3.36,30.95 4.24,31 5.12,31.05 5.99,31.1 6.86,31.14 7.73,31.17 8.59,31.2 9.44,31.23 10.29,31.26 11.14,31.28 11.98,31.29 12.81,31.3 13.63,31.31 14.45,31.32 15.27,31.32 16.07,31.33 16.87,31.32 17.66,31.32 18.45,31.31 19.22,31.3 19.99,31.29 20.75,31.27 21.5,31.26 22.24,31.24 22.97,31.22 23.69,31.2 24.4,31.17 25.1,31.15 25.79,31.12 26.47,31.1 27.14,31.07 27.8,31.04 28.44,31.01 29.08,30.98 29.7,30.95 30.31,30.92 30.91,30.89 31.49,30.86 32.06,30.83 32.62,30.8 33.17,30.77 33.7,30.74 34.22,30.71 34.72,30.69 35.21,30.66 35.68,30.63 36.14,30.61 36.58,30.59 37.01,30.56 37.42,30.54 37.82,30.53 38.2,30.51 38.56,30.5 38.9,30.48 39.23,30.47 39.54,30.47 39.84,30.46 40.11,30.46 40.37,30.46 40.11,30.46 39.84,30.46 39.54,30.47 39.23,30.47 38.9,30.48 38.56,30.5 38.2,30.51 37.82,30.53 37.42,30.54 37.01,30.56 36.58,30.59 36.14,30.61 35.68,30.63 35.21,30.66 34.72,30.69 34.22,30.71 33.7,30.74 33.17,30.77 32.62,30.8 32.06,30.83 31.49,30.86 30.91,30.89 30.31,30.92 29.7,30.95 29.08,30.98 28.44,31.01 27.8,31.04 27.14,31.07 26.47,31.1 25.79,31.12 25.1,31.15 24.4,31.17 23.69,31.2 22.97,31.22 22.24,31.24 21.5,31.26 20.75,31.27 19.99,31.29 19.22,31.3 18.45,31.31 17.66,31.32 16.87,31.32 16.07,31.33 15.27,31.32 14.45,31.32 13.63,31.31 12.81,31.3 11.98,31.29 11.14,31.28 10.29,31.25 9.44,31.23 8.59,31.2 7.73,31.17 6.86,31.14 5.99,31.1 5.12,31.05 4.24,31 3.36,30.95 2.47,30.89 1.59,30.82 0.69,30.76 -0.2,30.68 -1.1,30.6 -1.99,30.52 -2.89,30.43 -3.8,30.33 -4.7,30.23 -5.6,30.12 -6.51,30 -7.42,29.88 -8.32,29.76 -9.23,29.62 -10.13,29.48 -11.04,29.33 -11.95,29.18 -12.85,29.02 -13.75,28.85 -14.65,28.67 -15.55,28.49 -16.45,28.3 -17.35,28.1 -18.24,27.89 -19.13,27.68 -20.02,27.45 -20.9,27.22 -21.78,26.98 -22.66,26.73 -23.53,26.48 -24.4,26.21 -25.27,25.94 -26.13,25.65 -26.98,25.36 -27.83,25.06 -28.67,24.74 -29.51,24.42 -30.34,24.09 -31.17,23.75 -31.98,23.39 -32.8,23.03" fill="rgb(126, 102, 204)" stroke="black" stroke-width="3" stroke-linejoin="round" filter="url(#fuzzy)" />
    </g>
  </svg>