<svg xmlns="http://www.w3.org/2000/svg" width="500" height="500" viewBox="-100 -100 200 200"><defs><clipPath id="c"><path d="m23.68 1.38.03-.42-.01-.41-.04-.43-.08-.42-.11-.42-.14-.42-.17-.42-.21-.41-.23-.41-.27-.4-.29-.39-.32-.38-.35-.37-.37-.36-.4-.35-.4-.52-.44-.5-.48-.47-.5-.44-.54-.42-.57-.39-.6-.36-.62-.33-.66-.3-.67-.27-.71-.23-.72-.21-.75-.17-.77-.15-.78-.11-.81-.08-.81-.05-.83-.03-.85.01-.85.03-.86.06-.87.08-.87.11-.87.13-.88.15-.88.18-.87.19-.87.21-.87.23-.86.25-.85.26-.84.27-.84.29-.82.29-.81.31-.79.32-.78.32-.76.33-.75.33-.73.34-.71.34-.69.35-.66.34-.65.34-.63.35-.61.34-.58.34-.56.34-.54.33-.52.33-.5.33-.48.32-.46.32-.43.32-.42.31-.4.31-.37.31-.36.3-.33.3-.32.29-.29.28-.27.29-.25.27-.23.28-.17 1.9.16.19.16.19.19.19.2.18.22.18.24.17.25.17.27.16.29.16.31.16.32.15.34.14.35.15.37.14.38.13.4.13.42.13.44.12.46.13.47.11.48.12.51.1.51.11.54.1.54.1.57.09.57.09.59.09.6.08.61.08.62.07.64.07.65.06.65.06.67.06.67.05.68.04.69.04.7.04.7.03.71.02.72.02.72.02.73.01h1.46l.74-.01.74-.02.75-.02.74-.03.75-.04.75-.04.74-.05.75-.06.75-.07.74-.08.74-.09.74-.09.74-.11.73-.11.73-.13.72-.13.71-.15.71-.16.58-.15.57-.16.56-.17.56-.19.54-.2.52-.21.52-.23.49-.24.48-.25.47-.28.44-.28.42-.31.4-.32.38-.34.35-.37"/></clipPath><clipPath id="b"><path d="m-28.52.83.06-.25.09-.26.13-.25.16-.26.2-.25.23-.26.26-.26.3-.25.32-.25.36-.25.39-.24.42-.24.44-.23.48-.23.5-.22.48-.31.52-.31.56-.29.6-.27.64-.27.68-.25.72-.23.75-.21.79-.2.81-.19.85-.16.87-.15.89-.13.92-.11.94-.09.95-.08.97-.06.97-.04.99-.03.99-.01 1 .01 1 .02 1 .04 1 .05.99.07.98.08.98.1.96.1.95.12.93.13.92.14.9.15.87.16.86.17.83.18.81.18.79.19.76.2.73.2.7.2.68.21.65.21.62.21.59.22.57.22.53.22.51.21.48.22.46.22.43.21.41.22.38.21.35.22.33.21.31.21.28.21.26.21.23.21.21.21.18.2.17.21.14.2.11.2.1.19 1.79.72-.16.17-.19.16-.19.16-.21.16-.23.16-.24.15-.25.15-.26.14-.28.14-.3.14-.3.14-.32.13-.34.12-.34.13-.36.12-.38.12-.39.11-.41.11-.42.11-.44.11-.45.1-.47.1-.49.09-.5.1-.51.08-.53.09-.55.08-.56.08-.57.07-.59.08-.6.06-.62.07-.63.06-.64.05-.66.05-.67.05-.69.04-.69.04-.71.04-.72.03-.73.02-.74.03-.76.01-.76.02h-.77l-.78.01h-.79l-.8-.01-.81-.01-.81-.02-.83-.02-.82-.03-.83-.03-.84-.04-.84-.04-.84-.05-.85-.05-.84-.06-.85-.06-.84-.07-.84-.08-.84-.08-.84-.09-.82-.09-.69-.08-.68-.09-.67-.09-.67-.09-.65-.1-.64-.11-.63-.11-.62-.12-.6-.12-.59-.13-.57-.14-.55-.14-.53-.15-.5-.15-.49-.17"/></clipPath><filter id="a"><feTurbulence baseFrequency=".05" numOctaves="3" result="noise" type="noise"/><feDisplacementMap in="SourceGraphic" in2="noise" scale="2"/></filter></defs><rect width="100%" height="100%" x="-100" y="-100" fill="#556B2F"/><path fill="#D2691E" stroke="#000" stroke-linejoin="round" stroke-width="1.667" d="m64.61.32.01.66.01 2.43.13-.9-.17 1.07-.08 2.78.02.99-.23 1.9-.04-.91-.37 4 .06-1.07-.44 2.73.33-1.01-.49 2.32-.65 3.05.59-2.47-.81 4.05.47-2.37-.78 3.77-.42 1.65-.3.52-.22.97.07.01-.37.54-.97 3.24-.28.65-.51 1.39-.4.67-.15 1.14-.08-.17-.26 1.29-.94 1.28-1.12 2.39.3-.15-1.22 2.28-.29.13-.34.74-.82 1.71-.76 1.28.65-1.03-1.49 2.53-1.34 1.89-.56.85-.66.91-.19.24.3-.37-.31.85-1.79 1.99-1.13 1.74-.07-.1-.49.31-1.16 1.52-.66.78-.13.35-.38.15-1.09 1.19-1.68 1.13.44.3-2.21 1.67.03.24-1.14.93-1.22.89-.97.76-.75.41-.19.4.32-.19-1.81 1.39-.09-.14-2.45 1.56-1.47 1.01.33-.24-1.38.76.25-.3-2.2 1.29-.84.65-.75.29-2.25 1.1 1.02-.54-2.49.95.52.1-2.42.81-1.01.14-1.56.54 1.08-.13-1.69.19-.46.19-.22.26-.92.11-1.53.44-3.2.7 1.37-.26-1.47.13-2.07.56v-.21l-1.27.37-.04-.1-2.37.11-1.59.36.59-.23h-.81l-3.11.03.74-.02-2.3.18-.87-.35-.66.06-1.56.02 1.53.14-3.38-.42-1.02-.16-1.45-.22-.05.02-.51-.16-2.54-.34.79.18-.76-.36-.46-.17-2.87-.71-.94-.48-.38.05-.83-.3-2.47-.92-.25-.09-.48-.16-1.81-.59.31-.25-.39-.05-.38-.11-2.49-1.28-1.76-.89.3.27-1.45-1-.31-.22-1.08-.55-1.36-.92-1.27-.79 1.03.6-1.69-1.27-.89-.39-2.15-1.81-.77-.36.79.25-2.44-1.79-.26-.39-.69-.58.11-.28-.49-.52-2.03-1.93-1.3-1.01-.15-.03-1.41-1.94.52.51-1.68-2.01-1.16-1.12-.42-.48-.7-.92-.3-.36.12-.24-.66-.98-.58-.88-1.49-1.66-.62-1.81.09.81-.47-1.27-1.14-2.1.19.82-1.21-2.74-.46-.48-.88-1.59-.52-.98.24.2-1.19-2.35.02-.25-.84-1.83-.38-1.13-.25-1.17-.37-.61.19.24-.81-2.1-.45-1.63-.44-1.48-.43-1.84.01-.08.09.91-.49-2.55-.15-.63-.77-2.47.28.55-.63-3.43-.22-.32-.01-.57-.37-2.36.17 1.18-.34-3.64-.02.34-.11-1.16V6.14l-.1-1.56-.24-1.83.02.69-.02-1.58.02-2.35v-.65l.18-.67-.09-2.16.07-2.41.18-1.18.04-.05-.08-.08.35-2.36.12.28.05-1.3.23-3.08-.08 1.15.1-1.31.5-1.52.23-1.33.53-2.82-.12-.01.51-1.02.03-.73.04-.13 1.26-4.1-.22.54.03-.46.31-.81.86-2.22.45-1.48v.52l.39-1.26.35-.71.61-1.52.35-1.3.2-.4.7-.72.85-2.35.18.1.63-1.58 1.46-2.76-.01.45 1.48-2.4-.3.13 1.12-1.43.43-1.11.16-.17 1.05-1.44.41-.88.73-.58 1.19-1.83-.09.29.98-1.47 1.89-1.87-.03.33.01.21.86-1.07 1.28-1.8-.25.46 1.25-1.58 1.11-.6 1.25-1.26.53-.45 1.68-1.49-.94.65.84-.71 2.18-1.14.41-.73 1.6-.97.58-.16-.11-.42-.01.15 2.04-1.48.66-.14.97-.79.26.19 2.89-1.53.02-.35-.38.43 1.59-.81 1.37-.72-.04.34 1.81-1.02 1.53-.45 1.56-.63.3-.26 1.18-.21-.69.31 1.51-.74.81-.15-.13.18 4.76-1.07.11-.02-.66-.12 1.69-.23-.27.02 2.06-.08 1.5-.3 1.08-.24 1.45.02 1.22.01 1.13-.1-1.28.16 1.38-.19 2.04-.1.59.24 2.43.1.52-.22.01.11 1.95.43-.71-.12 1.1-.04 2.21.45 1.9.34.51-.11.25.45 2.6.21-.77-.09.57.39 1.78.31 1.78.73.19.07 2.14.38-.32.08v.05l3.36 1.2-.7-.15.84.39 2.07.93.3.15.38.17.36.21 1.97 1.2.9.19 1.26 1.07.85.54-.07.11 1.11.56 2.18 1.26v.35l-.5-.33 2.31 1.7.33.3 1.12.62 1.1 1.06.09.19.39.02 1.15.99 1.47 1.39.71 1.01 1.39 1.36.91 1.18-.28-.21.78.47 1.55 2.08.86 1.14-.84-.87.64 1.15 1.38 1.32.96 1.37.02-.08 1.75 2.64-.06-.17.53.93.95 1.69.14.3.32.46.73 1.35.68 1.19.39.49.33.76.83 1.73.18.75 1 2.45.16-.58.62 1.76.33.88.65 2.07.18.93.39.94.58 1.27.14.19.25.68-.04.36.8 3.19.3 1.38-.09-.46.53 1.91.16 1.25.23.77-.08-.31.59 3.26.29 1.98-.32-1.07.56 2.84-.06.96.21 1.03.14.92.06 1.93.07-.71v1.26l.01 1.2-.03 2.08-.02 1.38.01.66" filter="url(#a)"/><path fill="#fff" d="m-28.52.83.06-.25.09-.26.13-.25.16-.26.2-.25.23-.26.26-.26.3-.25.32-.25.36-.25.39-.24.42-.24.44-.23.48-.23.5-.22.48-.31.52-.31.56-.29.6-.27.64-.27.68-.25.72-.23.75-.21.79-.2.81-.19.85-.16.87-.15.89-.13.92-.11.94-.09.95-.08.97-.06.97-.04.99-.03.99-.01 1 .01 1 .02 1 .04 1 .05.99.07.98.08.98.1.96.1.95.12.93.13.92.14.9.15.87.16.86.17.83.18.81.18.79.19.76.2.73.2.7.2.68.21.65.21.62.21.59.22.57.22.53.22.51.21.48.22.46.22.43.21.41.22.38.21.35.22.33.21.31.21.28.21.26.21.23.21.21.21.18.2.17.21.14.2.11.2.1.19 1.79.72-.16.17-.19.16-.19.16-.21.16-.23.16-.24.15-.25.15-.26.14-.28.14-.3.14-.3.14-.32.13-.34.12-.34.13-.36.12-.38.12-.39.11-.41.11-.42.11-.44.11-.45.1-.47.1-.49.09-.5.1-.51.08-.53.09-.55.08-.56.08-.57.07-.59.08-.6.06-.62.07-.63.06-.64.05-.66.05-.67.05-.69.04-.69.04-.71.04-.72.03-.73.02-.74.03-.76.01-.76.02h-.77l-.78.01h-.79l-.8-.01-.81-.01-.81-.02-.83-.02-.82-.03-.83-.03-.84-.04-.84-.04-.84-.05-.85-.05-.84-.06-.85-.06-.84-.07-.84-.08-.84-.08-.84-.09-.82-.09-.69-.08-.68-.09-.67-.09-.67-.09-.65-.1-.64-.11-.63-.11-.62-.12-.6-.12-.59-.13-.57-.14-.55-.14-.53-.15-.5-.15-.49-.17" filter="url(#a)" transform="translate(32.91 -21.8)"/><path fill="#fff" d="m23.68 1.38.03-.42-.01-.41-.04-.43-.08-.42-.11-.42-.14-.42-.17-.42-.21-.41-.23-.41-.27-.4-.29-.39-.32-.38-.35-.37-.37-.36-.4-.35-.4-.52-.44-.5-.48-.47-.5-.44-.54-.42-.57-.39-.6-.36-.62-.33-.66-.3-.67-.27-.71-.23-.72-.21-.75-.17-.77-.15-.78-.11-.81-.08-.81-.05-.83-.03-.85.01-.85.03-.86.06-.87.08-.87.11-.87.13-.88.15-.88.18-.87.19-.87.21-.87.23-.86.25-.85.26-.84.27-.84.29-.82.29-.81.31-.79.32-.78.32-.76.33-.75.33-.73.34-.71.34-.69.35-.66.34-.65.34-.63.35-.61.34-.58.34-.56.34-.54.33-.52.33-.5.33-.48.32-.46.32-.43.32-.42.31-.4.31-.37.31-.36.3-.33.3-.32.29-.29.28-.27.29-.25.27-.23.28-.17 1.9.16.19.16.19.19.19.2.18.22.18.24.17.25.17.27.16.29.16.31.16.32.15.34.14.35.15.37.14.38.13.4.13.42.13.44.12.46.13.47.11.48.12.51.1.51.11.54.1.54.1.57.09.57.09.59.09.6.08.61.08.62.07.64.07.65.06.65.06.67.06.67.05.68.04.69.04.7.04.7.03.71.02.72.02.72.02.73.01h1.46l.74-.01.74-.02.75-.02.74-.03.75-.04.75-.04.74-.05.75-.06.75-.07.74-.08.74-.09.74-.09.74-.11.73-.11.73-.13.72-.13.71-.15.71-.16.58-.15.57-.16.56-.17.56-.19.54-.2.52-.21.52-.23.49-.24.48-.25.47-.28.44-.28.42-.31.4-.32.38-.34.35-.37" filter="url(#a)" transform="translate(-25.51 -26.74)"/><g fill="none" stroke="#000" transform="translate(32.91 -21.8)"><path stroke-linejoin="round" stroke-width="1.667" d="m-27.11 2.88-.31-.15-.26-.17-.24-.18-.19-.19-.16-.21-.12-.21-.09-.23-.05-.23-.01-.24.02-.24.06-.25.09-.26.13-.25.16-.26.2-.25.23-.26.26-.26.3-.25.32-.25.36-.25.39-.24.42-.24.44-.23.48-.23.5-.22.48-.31.52-.31.56-.29.6-.27.64-.27.68-.25.72-.23.75-.21.79-.2.81-.19.85-.16.87-.15.89-.13.92-.11.94-.09.95-.08.97-.06.97-.04.99-.03.99-.01 1 .01 1 .02 1 .04 1 .05.99.07.98.08.98.1.96.1.95.12.93.13.92.14.9.15.87.16.86.17.83.18.81.18.79.19.76.2.73.2.7.2.68.21.65.21.62.21.59.22.57.22.53.22.51.21.48.22.46.22.43.21.41.22.38.21.35.22.33.21.31.21.28.21.26.21.23.21.21.21.18.2.17.21.14.2.11.2.1.19.07.2.06.19.03.19.01.18-.01.19-.03.18-.04.18-.07.17-.08.18-.1.17" filter="url(#a)"/><path stroke-linejoin="round" stroke-width="2.222" d="m-29.09 1.54.14.24.19.23.23.22.26.22.3.2.34.2.37.19.41.19.43.17.45.17.49.17.5.15.53.15.55.14.57.14.59.13.6.12.62.12.63.11.64.11.65.1.67.09.67.09.68.09.69.08.82.09.84.09.84.08.84.08.84.07.85.06.84.06.85.05.84.05.84.04.84.04.83.03.82.03.83.02.81.02.81.01.8.01h.79l.78-.01h.77l.76-.02.76-.01.74-.03.73-.02.72-.03.71-.04.69-.04.69-.04.67-.05.66-.05.64-.05.63-.06.62-.07.6-.06.59-.08.57-.07.56-.08.55-.08.53-.09.51-.08.5-.1.49-.09.47-.1.45-.1.44-.11.42-.11.41-.11.39-.11.38-.12.36-.12.34-.13.34-.12.32-.13.3-.14.3-.14.28-.14.26-.14.25-.15.24-.15.23-.16.21-.16.19-.16.19-.16.16-.17.16-.17.14-.18.13-.18.12-.18.1-.18.09-.19.08-.19.06-.2.06-.2.04-.19" filter="url(#a)"/><circle cx="-7.812" cy="4.917" r="4.992" clip-path="url(#b)" filter="url(#a)"/><circle cx="-10.387" cy="2.472" r="4.952" clip-path="url(#b)" filter="url(#a)"/><circle cx="-9.367" cy="2.267" r="4.65" clip-path="url(#b)" filter="url(#a)"/><circle cx="-10.912" cy="3.072" r="3.312" clip-path="url(#b)" filter="url(#a)"/><circle cx="-11.392" cy="1.637" r="4.638" clip-path="url(#b)" filter="url(#a)"/><circle cx="-11.962" cy="2.452" r="4.122" clip-path="url(#b)" filter="url(#a)"/><circle cx="-8.872" cy=".587" r="3.628" clip-path="url(#b)" filter="url(#a)"/><circle cx="-10.382" cy="3.197" r="4.848" clip-path="url(#b)" filter="url(#a)"/><circle cx="-11.892" cy="1.862" r="4.16" clip-path="url(#b)" filter="url(#a)"/><circle cx="-7.547" cy="1.507" r="4.442" clip-path="url(#b)" filter="url(#a)"/></g><g fill="none" stroke="#000" transform="translate(-25.51 -26.74)"><path stroke-linejoin="round" stroke-width="2.222" d="m21.25 4.77.43-.24.39-.27.34-.3.31-.32.26-.34.22-.36.18-.37.14-.39.1-.4.06-.4.03-.42-.01-.41-.04-.43-.08-.42-.11-.42-.14-.42-.17-.42-.21-.41-.23-.41-.27-.4-.29-.39-.32-.38-.35-.37-.37-.36-.4-.35-.4-.52-.44-.5-.48-.47-.5-.44-.54-.42-.57-.39-.6-.36-.62-.33-.66-.3-.67-.27-.71-.23-.72-.21-.75-.17-.77-.15-.78-.11-.81-.08-.81-.05-.83-.03-.85.01-.85.03-.86.06-.87.08-.87.11-.87.13-.88.15-.88.18-.87.19-.87.21-.87.23-.86.25-.85.26-.84.27-.84.29-.82.29-.81.31-.79.32-.78.32-.76.33-.75.33-.73.34-.71.34-.69.35-.66.34-.65.34-.63.35-.61.34-.58.34-.56.34-.54.33-.52.33-.5.33-.48.32-.46.32-.43.32-.42.31-.4.31-.37.31-.36.3-.33.3-.32.29-.29.28-.27.29-.25.27-.23.28-.21.26-.19.27-.18.25-.15.25-.13.25-.11.24-.09.23-.08.23-.06.22-.04.22" filter="url(#a)"/><path stroke-linejoin="round" stroke-width="2.222" d="m24.36-.74-.01.6-.04.57-.1.54-.13.52-.16.49-.21.47-.23.45-.27.42-.3.4-.33.38-.35.37-.38.34-.4.32-.42.31-.44.28-.47.28-.48.25-.49.24-.52.23-.52.21-.54.2-.56.19-.56.17-.57.16-.58.15-.71.16-.71.15-.72.13-.73.13-.73.11-.74.11-.74.09-.74.09-.74.08-.75.07-.75.06-.74.05-.75.04-.75.04-.74.03-.75.02-.74.02-.74.01H.57l-.73-.01-.72-.02-.72-.02-.71-.02-.7-.03-.7-.04-.69-.04-.68-.04-.67-.05-.67-.06-.65-.06-.65-.06-.64-.07-.62-.07-.61-.08-.6-.08-.59-.09-.57-.09-.57-.09-.54-.1-.54-.1-.51-.11-.51-.1-.48-.12-.47-.11-.46-.13-.44-.12-.42-.13-.4-.13-.38-.13-.37-.14-.35-.15-.34-.14-.32-.15-.31-.16-.29-.16-.27-.16-.25-.17-.24-.17-.22-.18-.2-.18-.19-.19-.16-.19-.16-.19-.13-.2-.11-.2-.1-.21-.08-.21-.07-.21-.04-.22-.03-.23-.02-.22.01-.23.02-.23" filter="url(#a)"/><circle cx="-3.15" cy="1.293" r="4.884" clip-path="url(#c)" filter="url(#a)"/><circle cx="-2.405" cy=".498" r="4.852" clip-path="url(#c)" filter="url(#a)"/><circle cx="-3.49" cy="-2.167" r="3.72" clip-path="url(#c)" filter="url(#a)"/><circle cx="-2.99" cy="-.047" r="4.598" clip-path="url(#c)" filter="url(#a)"/><circle cx="-1.625" cy="2.153" r="3.936" clip-path="url(#c)" filter="url(#a)"/><circle cx="-2.17" cy=".418" r="4.086" clip-path="url(#c)" filter="url(#a)"/><circle cx="-1.16" cy=".518" r="3.08" clip-path="url(#c)" filter="url(#a)"/><circle cx="-4.625" cy="2.168" r="3.01" clip-path="url(#c)" filter="url(#a)"/><circle cx="-1.675" cy=".773" r="3.986" clip-path="url(#c)" filter="url(#a)"/><circle cx="-3.005" cy="-.157" r="4.76" clip-path="url(#c)" filter="url(#a)"/></g><g fill="none" stroke="#FFDAB9" stroke-linejoin="round" stroke-width="2"><path d="m-.89-75.24 1.49.02 1.03.12.63.16.19.21-.24.28-.63.38-.96.48-1.28.59-1.65.69-2.08.81-2.6.89-3.16.99-3.77 1.09-4.45 1.22-5.22 1.45-6.08 1.74m71.82 6.66.77.98.63.82.3.52.02.29-.24.12-.53-.07-.87-.28-1.24-.54-1.64-.8-2.01-1.06-2.4-1.32-2.82-1.62-3.31-1.97-3.85-2.35-4.45-2.77-5.11-3.19" filter="url(#a)"/><path d="m4.17-75 .39-.07.37.1.34.17.29.21.25.26.13.32-.1.37-.44.42-.82.48-1.22.54-1.6.6-1.95.68-2.29.76-2.64.81-3.07.89-3.57.96-4.16 1.09-4.77 1.22-5.3 1.33-5.6 1.23" filter="url(#a)"/><path d="m31.4-65.57 1.18.67.87.61.49.47.28.4.15.38v.34l-.19.26-.43.18-.68.11-.93.07-1.2.03-1.48-.01-1.78-.09-2.12-.19-2.48-.33-2.87-.48-3.31-.62-3.77-.76-4.26-.89-4.7-1.05-5.05-1.21-5.28-1.38-5.49-1.59m-4.91-2.05.66-.21.92-.24 1.02-.23.94-.19.73-.13.48-.05.29.03.14.1.01.19-.16.27-.38.36-.66.46-.97.56-1.3.66-1.6.76-1.9.88-2.22 1.01-2.61 1.19-3.07 1.37-3.55 1.51-3.77 1.46M58-32.97l.1.06-.17.59-.54.62-.96.41-1.4.09-1.89-.26-2.39-.59-2.91-.89-3.45-1.12-3.97-1.34-4.51-1.58-5.04-1.87-5.6-2.2-6.18-2.55-6.8-2.89-7.45-3.22-8.12-3.53-8.78-3.83-9.54-4.06" filter="url(#a)"/><path d="m39.14-59.86.52.3.57.61.37.64-.01.49-.49.23-.99-.08-1.49-.39-1.97-.66-2.48-.94-3.06-1.23-3.72-1.55-4.41-1.88-5.12-2.17-5.77-2.5-6.2-2.87m-30.37 2.49.38.01 1.23-.38 1.58-.47 1.81-.52 1.98-.54 2.07-.55 2.07-.52 1.99-.47 1.86-.4 1.73-.36 1.59-.34 1.42-.32 1.22-.31 1.04-.26.97-.21" filter="url(#a)"/><path d="m37.95-61.11.47.7-.32.43-.84.47-1.36.61-1.95.71-2.67.72-3.5.65-4.37.54-5.3.45-6.21.41-7.13.37-8.06.33-9.01.27-9.96.25-10.82.17" filter="url(#a)"/><path d="m-22.9-70.47.82.04 1.96-.13 2.56.02 2.92.26 3.18.5 3.46.71 3.81.87 4.22 1.02 4.67 1.12 5.07 1.21 5.36 1.28 5.49 1.35 5.56 1.47 5.62 1.58 5.65 1.53" filter="url(#a)"/><path d="M-16.56-72.7h.02l.73-.24 1.04-.27 1.19-.28 1.17-.27 1-.23.81-.17.65-.12.55-.07.48-.03h.39l.24.06.04.1-.24.18-.55.25-.88.33-1.17.42-1.43.49-1.69.56-1.94.62-2.23.66-2.54.73-3.06.94m-6.3 2.29.82-.29 1.17-.4 1.46-.46 1.61-.44 1.7-.4 1.81-.35 1.94-.34 2.1-.33 2.24-.35 2.34-.35 2.4-.33 2.4-.3 2.34-.26 2.27-.23 2.2-.2 2.18-.19 2.16-.18L5-72.33l2.07-.17 1.88-.17 1.58-.19 1.21-.21.95-.25m-38.19 4.3.08-.19.47-.23.83-.35 1-.42 1.07-.43 1.06-.43.94-.38.73-.28.42-.16.1-.02-.2.11-.44.21-.63.3-.82.41-1.1.52-1.6.74-2.36 1" filter="url(#a)"/><path d="m-15.06-73.1 2.93-.67 1.08-.27.44-.1h.28l.23.09.16.16-.02.25-.31.36-.66.49-1.1.62-1.54.75-1.98.9-2.42 1.07-2.9 1.28-3.44 1.52-3.99 1.71-4.39 1.71m65.2-1.78 1.34.87.63.5.51.44.53.44.46.39.31.28.09.15-.15.01-.38-.12-.62-.24-.89-.38-1.23-.55-1.6-.8-2.03-1.09L27-66.52l-2.98-1.72-3.54-2.06m35.18 31.64.23.92-.1 1-.55.86-1.01.66-1.51.47-2.01.33-2.53.2-3.08.05-3.63-.14-4.2-.34-4.79-.55-5.36-.75-5.93-.91-6.51-1.05-7.08-1.22-7.68-1.4-8.34-1.6-9.02-1.76-9.68-1.91-10.31-2.07" filter="url(#a)"/><path d="M-10.19-74.19v-.13l.56-.11.78-.09.87-.07.82-.05.65.01.37.08.03.15-.29.24-.59.3-.84.38-1.07.46-1.35.55-1.72.66-2.19.78-2.7.9-3.23 1.03-3.74 1.18-4.21 1.32m-9.77 5.31 1.39-.7 2.05-.59 2.42-.35 2.75-.09 3.09.15 3.48.33 3.95.46 4.44.56 4.9.65 5.31.75 5.65.83 5.91.91 6.11.98 6.28 1.03 6.45 1.09 6.68 1.15 7.07 1.43m15.87 14.8.44 1.35-.05 1.02-.5.74-.96.52-1.42.36-1.9.22-2.39.03-2.9-.2-3.43-.44-3.99-.7-4.54-.92-5.11-1.11-5.65-1.27-6.23-1.43-6.81-1.61-7.45-1.81-8.12-2.02-8.76-2.24-9.35-2.51-9.9-2.75M4.17-75l.5-.07.7.11.87.17 1.04.18 1.2.21 1.3.22 1.26.22 1.14.21.93.19.72.15.52.12.34.09.18.05-.02.02-.3-.05-.67-.14-1.17-.24-1.73-.35-2.33-.44" filter="url(#a)"/><path d="m-25.86-68.94 1.44-.69 1.35-.54 1.43-.5 1.58-.54 1.64-.54 1.59-.51 1.42-.44 1.21-.36.99-.29.82-.26.67-.21.56-.19.44-.14.27-.08.11.01M34.69-63.4l.26.23.75.6.65.57.44.46.21.35.03.29-.14.25-.3.25-.5.22-.74.15-1.03.04-1.35-.1-1.66-.27-2.01-.44-2.36-.59-2.76-.75-3.17-.9-3.59-1.05-3.99-1.2-4.32-1.35-4.61-1.53-4.81-1.74-4.93-1.99m53.11 21.75.84 1.06.02.66-.7.36-1.41.06-2.17-.26-2.93-.6-3.69-.96-4.45-1.32-5.23-1.67-6.07-2.02-7-2.35-8.05-2.67-9.15-3-10.13-3.41m54.4 8.81.73.99.52.83.12.56-.21.36-.53.23-.89.1-1.27-.05-1.68-.21-2.07-.37-2.44-.52-2.84-.66-3.28-.84-3.81-1.03-4.41-1.26-5.03-1.49-5.63-1.75-6.12-2.02-6.53-2.32-6.91-2.64" filter="url(#a)"/><path d="m51.92-45.07.51.93.33.71.08.37-.15.1-.37-.16-.63-.45-.94-.78-1.29-1.14-1.68-1.55-2.1-2.01-2.53-2.54-3.05-3.17-3.68-3.85-4.45-4.58" filter="url(#a)"/><path d="m37.95-61.11.52.71-.13.45-.54.51-.91.65-1.37.77-1.94.79-2.62.75-3.35.66-4.08.59-4.82.54-5.53.51-6.27.45-7 .39-7.74.29-8.46.22-9.3.22-10.37.43m47.87-21.53 1.38.15.39.19.17.31.04.38-.23.42-.64.44-1.12.46-1.61.51-2.11.56-2.6.64-3.09.69-3.61.74-4.14.77-4.74.8-5.41.86-6.18 1.01-7.06 1.25" filter="url(#a)"/><path d="m42.86-56.45 1.07 1.13.66.75.51.6.44.57.36.53.22.43.07.31-.05.21-.17.1-.33-.01-.52-.17-.73-.34-.98-.55-1.23-.78-1.52-1.02-1.81-1.28-2.11-1.54-2.41-1.8-2.7-2.06-2.99-2.32-3.28-2.57-3.65-2.82m-39.45-3.41.71-.11.6-.15.82-.23 1.06-.26 1.16-.28 1.14-.26.98-.23.79-.18.63-.12.49-.07.35-.02.19.04v.08l-.23.13-.5.19-.81.25-1.14.32-1.52.42-1.94.56-2.41.7-2.78.76m72.07 25.88.48.97.23.78-.05.53-.29.37-.54.24-.82.13-1.11-.01-1.44-.14-1.75-.3-2.1-.47-2.45-.67-2.82-.88-3.24-1.1-3.69-1.33-4.13-1.57-4.58-1.85-4.97-2.14-5.36-2.47-5.74-2.8-6.18-3.06-6.75-3.27-7.46-3.4" filter="url(#a)"/><path d="m53.86-41.69.51 1.03.13.56-.25.17-.63-.12-1.02-.45-1.44-.82-1.91-1.29-2.42-1.8-3-2.34-3.63-2.89-4.28-3.49-4.91-4.14-5.46-4.8-6.09-5.47m-8.31-6.51.52.06.67.17.63.18.52.2.44.23.36.25.22.25.02.24-.23.22-.52.21-.81.21-1.1.22-1.4.21-1.69.2-1.99.17-2.32.15-2.7.14-3.14.16-3.62.19-4.12.23-4.59.2-5 .1m52.89 6.13 1.66 1.25 1.17.93 1.04.88.99.89.99.93 1.03 1.01 1.09 1.1 1.11 1.16 1.08 1.16.99 1.08.85.94.69.77.52.59.35.4.17.21.02.02-.1-.15-.24-.35-.49-.68-.94-1.16" filter="url(#a)"/><path d="m20.2-71.71.08.19.84.47 1.18.61 1.26.69 1.28.73 1.29.76 1.28.78 1.3.82 1.32.83 1.32.85 1.28.84 1.21.79 1.09.71.94.59.77.47.59.33.41.22.25.12.11.04-.05-.06-.27-.22-.54-.4m-60.04-8.92.71-.07 1.63-.44 2.02-.49 2.13-.42 2.13-.35 2.14-.29 2.22-.25 2.36-.25 2.49-.26 2.58-.28 2.51-.28 2.21-.28 1.68-.27 1.12-.25m39.85 20.53.83.85.55.94.11.66-.21.48-.41.44-.6.41-.83.38-1.11.32-1.46.21-1.82.09-2.19-.04-2.56-.19-2.92-.32-3.29-.45-3.66-.57-4.06-.67-4.47-.78-4.9-.89-5.33-1L.8-55.4l-6.13-1.31-6.47-1.54-6.85-1.79-7.38-1.94" filter="url(#a)"/><path d="m-9.16-74.54.58.03 1.5.09 1.84.18 1.98.31 2.04.46 2.06.57 2.12.69 2.22.76 2.36.84 2.52.89 2.64.94 2.68.98 2.69 1.02 2.66 1.05 2.65 1.08 2.64 1.09 2.64 1.09 2.62 1.07 2.56 1.04 2.44.99 2.22.86 1.92.62" filter="url(#a)"/><path d="M-9.16-74.54h.55l1.4-.04 1.67-.01 1.73.06 1.72.13 1.68.19 1.65.24 1.68.27 1.75.29 1.84.31 1.89.32 1.87.34 1.8.33 1.68.33 1.57.31 1.46.28 1.35.24 1.25.21 1.12.17.97.16.77.12.49.05.06-.09" filter="url(#a)"/><path d="m25.75-69.06.45.23.71.41.82.5.72.47.51.41.26.32.02.23-.22.15-.47.05-.72-.04-1-.14-1.29-.24-1.61-.35-2-.49-2.44-.62-2.88-.78-3.27-.92-3.55-1.05-3.8-1.2-4.23-1.37m46.31 23.06-.24-.13.48.7.75.97.78 1.04.74 1 .65.93.56.84.44.71.35.58.23.45.13.3.03.16-.07.02-.18-.14-.32-.31-.46-.51-.64-.75-.82-1.01-1.04-1.34-1.29-1.69-1.61-2.12-1.96-2.58-2.35-3.05M-4.79-75.14l1.44.12 1.47.31 1.55.51 1.82.68 2.23.85 2.63 1.01 2.93 1.15 3.09 1.27 3.16 1.36 3.18 1.44 3.22 1.5 3.28 1.55 3.4 1.61 3.52 1.67 3.55 1.7 3.39 1.58 3.01 1.34" filter="url(#a)"/><path d="m52.45-44.14.58 1.09.2.53v.31l-.2.14-.44-.09-.72-.33-1.02-.61-1.35-.91-1.72-1.25-2.11-1.67-2.56-2.12-3.02-2.6-3.49-3.08-3.95-3.55-4.43-4.07-4.99-4.63m-44.36-4.17 1.45-.46 1.31-.41 1.16-.32 1.11-.26 1.17-.25 1.3-.26 1.46-.28 1.55-.3 1.52-.29 1.35-.27 1.12-.23.9-.18.73-.14.63-.11.5-.09.25-.06-.21-.03-.77.04" filter="url(#a)"/><path d="m-10.19-74.19.11-.12.87-.09 1.28-.07 1.58-.07 1.73-.06 1.76-.04 1.68-.01 1.54.01 1.38.01 1.28.02 1.2.02 1.15.02 1.02.02h.78l.42-.02-.04-.06-.45-.07-.53-.04m5.09.58.7.33.73.2.47.18.34.21.21.24.01.23-.29.2-.67.16-1.05.14-1.49.13-1.95.14-2.43.13-2.93.1-3.38.06-3.81-.02-4.26-.12-4.73-.2m-4.87-.44.66-.1.45-.1.59-.15.73-.14.76-.12.65-.06.44.03.16.13-.07.24-.28.36-.46.48-.66.6-.91.72-1.23.86-1.6 1.02-2.01 1.21-2.41 1.39-2.78 1.58-3.1 1.77-3.42 1.96-3.78 2.17-4.19 2.28m76.7-5.67.54.4.69.51.58.46.45.38.34.32.24.28.08.22-.17.06-.53-.19-.95-.52-1.37-.85-1.75-1.17-2.15-1.46-2.66-1.83-3.37-2.34" filter="url(#a)"/><path d="m30.62-66.22.6.41.57.39.64.45.54.42.37.36.2.3.05.23-.12.16-.35.06-.6-.06-.89-.17-1.18-.27-1.45-.37-1.71-.46-2.01-.59-2.36-.76-2.79-.96-3.3-1.2-3.87-1.42-4.45-1.61-5.08-1.78m2.51-1.71 1.45.15 1.79.34 1.75.4 1.61.42 1.51.43 1.44.44 1.39.44 1.33.43 1.27.41 1.17.37 1 .3.75.22.43.11.09-.01-.02-.07m32.76 31.76.07.87-.6.86-1.36.66-2.17.36-3.02.1-3.91-.14-4.82-.33-5.74-.55-6.68-.83-7.63-1.15-8.57-1.5-9.54-1.87-10.53-2.21-11.6-2.41-12.86-2.34" filter="url(#a)"/><path d="m-17.74-72.49.8-.08.9-.05 1.31-.07 1.75-.07 2.07-.05 2.23-.01 2.29.04 2.28.09 2.31.15 2.37.18 2.45.2 2.5.21 2.47.2 2.38.19 2.22.19 2.06.19 1.94.21 1.84.21 1.69.17 1.36.07m35.34 34.35.22.93v.7l-.37.35-.79.08-1.22-.17-1.68-.5-2.16-.89L48.17-37l-3.15-1.8-3.67-2.23-4.22-2.63-4.84-3-5.49-3.38-6.18-3.8-6.88-4.31-7.52-4.86-8.1-5.4" filter="url(#a)"/><path d="m45.16-53.91-.06.04.04.41-.29.38-.83.12-1.41-.16-1.94-.39-2.46-.59-3.02-.79-3.64-1.07-4.29-1.38-5-1.73-5.8-2.07-6.75-2.4-7.78-2.75-8.6-3.19" filter="url(#a)"/><path d="m-3.34-75.12 16.27 7.21-6.02-1.43-4.57-1.54-.21-.03 2.05 1.41 2.59 2.16 2.16 1.89 1.08.83-.39-.3-1.64-.75-1.91-.32-.75.69 1.61 1.76 3.99 2.45 4.88 2.52 3.48 1.79.45.25-3.24-1.69-8.05-3.43-12.03-4.94 8.29-8.52m-56.01 29.48 22.75-5.46 24.61-5.13 13.92-1.71 4.3.62-2.21.82-4.42.25-2.88.21.38.95 3.29 1.89 4.79 2.37 4.62 2.05 3.02.98.45-.55-2.02-2.14-3.14-3.26-2.59-3.27-2.39-1.98-6.27-.17-15.23.71-20.92.3-5.72-3.85" filter="url(#a)"/><path d="m28.46-67.48 8.42 9.25 1.57 4.96-7.01-.5-11.07-2.72-10.69-3.04L1.9-61.8l-3.87-.84.33.71 4.18 1.85 6.74 2.3 6.9 2.01 4.22 1.13-.47-.02-5.04-1.07-7.18-1.74-6.21-2.12-3.94-2.53-3.24-3.05-5.19-2.52-9.9 2.05-26.66 14.29" filter="url(#a)"/><path d="m51.92-45.07-5.31-6.55-3.88-1.06-8.21.18-11.01.73-10.69.52-8.58-.5-5.54-1.43-1.53-1.24 3.33.11 7.95 1.7 10.6 2.46 9.98 1.87 6.2.26 1.08-1.5-2.7-2.45-2.99-1.97-.11-.12 1.65 1.81-6.48-.1-40.61-20.93" filter="url(#a)"/><path d="m-32.2-65 20.21 3.44 24.7 6.32 8.57 2.44-3.65-1.92-6.35-3.61-3.29-2.9.66-1.23 3 .12 3.42.45 2.47-.14.86-1.03-.6-1.51-1.2-1.11-.55.05.98 1.44 2.37 2.45L22.29-59l2.98 2.69 2.83 2.33-4.67-1.33-39.99-17.39" filter="url(#a)"/><path d="m-25.5-69.02 8.06 8.42 23.05.76 14.5-.79 5.19-.49-.81.11-3.29.67-2.72 1.29-.34 2 2.28 2.52 3.76 2.51 3.46 1.81 1.47.53-1.56-.97-4.79-2.15-7.71-2.56-9.67-2.1-9.06-1.03-2.88.36 9.83 1.75 19.71.83-3.1-16.03" filter="url(#a)"/><path d="m-15.74-73.13 18.51 4.48-.35.68.33.54.23.41-.19.23.37.4.87.66.37.52-.56-.05-.63-.6.62-.54 2.19.27 2.24 1.31-.32 1.62-2.55 1.19 6.54 3.85 43.73 19.5" filter="url(#a)"/><path d="m-34.38-63.87 30.71 5.29 7.83 5.25 6.09.36 4.44-1.93 2.58-.98.91.46-.72.6-2.01-.42-2.33-1.22-1.65-.87-1.95.39-6.95 1.2-17.05.96-23.08 1.84-13.32 6.2" filter="url(#a)"/><path d="m-47.43-51.35 27.75-11.66 16.31.42 11.43 3.62 7.93 1.54 3.86-1.36 1.07-2.43.12-1.44.06.5.1 2.16.3 2.82.96 2.4 1.51 1.15.86-.45-1.52-1.83-4.59-2.41-6.26-2.11-5.01-1.53-1.19-1.76 2.88-3.61-7.4-7.77" filter="url(#a)"/><path d="m14.31-73.2-2.73 5.46-7.7 1.03 2.67.79 6.64 1.78 3.11 2.27-3.8 1.82-9.63.79-11.56-.29-9.11-1.05-3.71-1.35 2.36-1.24 7.11-.8h9.34l8.97 1.24 7.63 3.07 8.53 5.19 13.74 5.6 8.08-6.2" filter="url(#a)"/><path d="m58.16-33.55-27.8-19.01-6.22-2.64-1.55-.74-1.58-1.73-3.45-2.89-4.28-3.32-3.14-2.91-1.01-1.98.81-.85 1.75.36 1.8 1.54 1.27 2.58.28 3.27-1.28 3.36-3.54 2.69-6.01 1.24-7.13-.69-5.07-2.43-.22-2.8 3.4-.77 6.07 2.61 39.42-.19" filter="url(#a)"/><path d="m-43.72-55.22 26.93-7.55 9.36-1.29 6.35-2.07 2.92-2.02.37-.48-.26 1.48.85 2.93 3.06 3.56 5.4 3.46 6.58 2.92 5.62 2.06 2.71.92-.66-.42-2.67-1.75-2.66-2.85-1.36-3.4.36-3.1 2.5-2.05 4.22-1.25 8.79 2.37" filter="url(#a)"/><path d="m-40.33-58.74 40.2-2.74 15.86 2.87 7.92 2.38.84-.69-4.8-2.55-8.41-2.59-9.87-1.6-9.11-.55-6.59.02-3.42-.02-.79-.44.71-.91 1.32-1.24 1.75-1.33 2.51-1.15 3.53-.67 4.27.15 4.15 1.18 2.83 1.96.68 1.99-.61 1.03 1.74-.21 5.57-1.46-15.82-9.59" filter="url(#a)"/><path d="M50.21-47.46 24.85-62.71l-.3-.02-.19 2.95-6.48.31-8.81-2.51-6.17-3.48-2.15-2.97-.16-1.9-1.1-.84-3.58.05-5.46.63-5.35.76-3.5.43-1.53.03-.28-.25 3.29-1.34 14.8-4.25" filter="url(#a)"/><path d="m-22.94-70.13 15.61.21L6.9-64.57l4.57 2.92-2.11-.17-2.55-1.27.18-1.32 2.37-1.33 2.51-1.4 1.1-1.25-.68-.72-2.03.12-2.72.94-2.83 1.49-2.48 1.67-1.8 1.62-.94 1.54-.06 1.51.63 1.39.7 1.06-.42 1-1.07 3.12 7.28 9.94L61.3-24.83" filter="url(#a)"/><path d="M-30.28-66.75.7-64.66l12.14 5.6 3.78 2.35 1.88-.25 1.55-1.18 1.13-1.31.15-1.51-1.19-1.85-2.2-1.98-2.15-1.62-.98-.9.65-.17 1.7.19 1.36.1-.43-.2-3.1-.3-5.73.02-7.3.64-6.56.95-2.45.2 3.57-1.86 6.02-3.87 8.61-2.44" filter="url(#a)"/><path d="m48.07-50.43-34.7-14.32-6.58-3.07 4.51 1.86 6.86 2.77 4.52 2.31L25-58.67l2.37 2.74 3.14 3.07 2.23 2.43-.64.98-2.74-.09-.66.3 5.58 1.96 10.53 3.11 8.17 2.78 2.68 2.73" filter="url(#a)"/><path d="M7.04-74.84 37.4-49.83l.68 8.14-14.41-.79-13.47-3.65-4.9-2.81 2.31-.94 4.63-.04 3.19-.6.7-1.98-.91-3.08-1.13-3.19-.5-2.19.09-.67.11.62-.45 1.19-1.1 1.13-1.46.98-1.65 1.05-2.16.89-2.96-.28-3.26-2.54-2.83-4.14-5.02-2.87-27.28 1.73" filter="url(#a)"/><path d="m-36.97-62 5.74 3.43 22.37.8 18.81 2 10.42 1.18 4.7-.39 1.51-1.68-1.09-2.35-3.76-2.39-5.9-1.97-6.54-1.32-5.19-.7-2.3-.16.8.36 2.54.91 2.22 1.33.49 1.28-.81.58.37-.34 5.18-.21 12.11 2.21 14.41 4.65-.06-5.27" filter="url(#a)"/><path d="m39.14-59.86-.75-.54-.27.45-3.78-.54-7.99-1.57-9.68-2.09-7.69-2.05-3.17-1.47 1.69-.46 5.18.8 6.79 2.05 6.8 2.94 5.42 2.94 2.36 1.48-2.44-1.45-7.69-4.57-10.47-5.62-7.3-3.51 8.36-.43" filter="url(#a)"/><path d="M39.14-59.86 2.82-64.01l.16 1.93 10.22 1.93 6.88 1.08.96.92-2.92 1.02-3.57 1.04-1.56 1.12 1.12 1.33 2.03 1.26-.2.33-4.72-1.47-8.91-3.42-10.24-4.35-8.09-3.67-3.72-1.7 1.61.72 9.4 3.02 23.81 6.58L57-35.42" filter="url(#a)"/><path d="m50.23-47.54-6.7-3.92-12.92-4.91-10.07-2.97-7.03-.64-6.86.39-7.2.32-5.81-.02-2.47-.22 1.24-.22 3.49-.24 3.42-.39 1.79-.62-.03-.84-1.22-1-2.28-1.2-3.86-1.37-5.03-1.29-2.73-.8 5.76-.2 19.1.69 27.13 5.88" filter="url(#a)"/><path d="M39.53-59.84 1.89-63.41l-7.91-2.37.81-.03 6.07.98 6.83.8 3.77.44.48.67-.26 1.57 1.33 2.59 2.92 3.11 2.53 2.82.25 1.74-2.01-.03-2.31-2.36.77-4.07 10.28-1.09L51.98-44.9" filter="url(#a)"/><path d="M-30.28-66.75 20.37-55.3l15.36 2.13-.04-1.14-6.4-2.01-8.22-1.99-8.04-1.89-6.76-1.66-4.68-1-2.3-.15-.23.4 1.14.44 1.68.39 1.39.9.77 1.92.75 2.32 1.74.4 3.36-3.65 8.44-4.5 23.82 6.93" filter="url(#a)"/><path d="M13.74-73.59.31-65.74l-.56 5.24 1.52 3.25 5.94 2 7.12.13 3.86-1.95-1.14-3.38-4.93-3.71-6.16-3.15-4.97-2.13-2.34-1 .72.07 3.34 1 4.89 1.82 4.92 2.36 3.4 2.48.57 2.04-2.9 1.28-5.66 1.05-4.81 2.52 3.96 5.41 19.54 4.26 11.33-14.96" filter="url(#a)"/><path d="m-21.13-71.15 46.02 18.71 6.02 3.58-10.63-1.74-13.02-2.24-9.62-1.57-4.5-.89.21-.52 2.98-.5 3.42-.74 2.44-.89 1.45-.56 1.07.37 1.02 1.55.7 2.36-.19 2.36-1.34 1.78-1.98.87-2.47-1.63-5.6-8.7 3.03-15.56" filter="url(#a)"/><path d="M59.11-30.91 20.21-52.1 2.69-58.37l-3.24-4.32 2.3-2.86 5.07.03 6.9 3.08 7.07 4.59 4.65 3.61.04.78-4.86-2.12-7.85-3.21-7.82-1.79-5.38 1.13-2.17 3.19.32 2 2.19-3.06 6.43-8.7 7.97-7.18" filter="url(#a)"/><path d="m-32.31-65.42 9.68 9.17 20.23-1.9 13.85-2.74 7.82-.98 1.77-.14-3.24-.13-4.56-.03-1.42.62 3.5 1.71 5.52 2.88 1.26 3.3-8.05 2-13.81-.75.66-1.14 51.08 8.65" filter="url(#a)"/><path d="M59.11-30.91 13.62-55.14l-26.28-4.91-7.52-.33 4.18 1.3 8.98 2.91L2-52.42l6.32 3.21 3.17 1.86 1.88.73 2.82.11 3.56-.66.76-2.14-6.55-3.49-15.39-2.87-20.13-.39-13.86-.91 9.56-11.97" filter="url(#a)"/><path d="m-2.27-75.05 8.22 2.79-3.6 3.2.04 4.33 1.37 4.55-.61 4.02-.74 2.78 2.4.67 5.67-1.91 5.74-3.85 2.22-3.97-2.58-1.88-5.7 1.54-5.14 4.31-4.68 3.35-37.21-6.82m96.21 24.16.14 1.27.32 1.26.36 1.14.37 1.15.37 1.19.36 1.2.32 1.17.28 1.09.22 1.03.18 1 .14 1.03.14 1.08.14 1.14.11 1.18.1 1.18.08 1.14.11 1.09.16 1.04.26 1.06.34 1.15.32 1.3.04 1.19-.53.13M-.99-75.21l-1.2-2.41-1.27-.61-1.35-.78-1.37-.79-1.34-.69-1.24-.66-1.15-.66-1.08-.61-1.09-.48-1.18-.35-1.29-.29-1.35-.32-1.32-.37-1.18-.41-1.02-.42-.93-.49-1.02-.67-1.29-.93-1.74-1.15-2.46-2.18" filter="url(#a)"/><path d="m-9.43-74.52-.18.27-.37 1.02-.45 1.61-.66 1.85-.83 1.69-.91 1.2-.89.6-.83.09-.76-.19-.7-.12-.68.24-.67.77-.68 1.27-.67 1.6-.57 1.68-.46 1.42-.83.41 9.72-15.2-1.06-7.63-1.42-1.53-1.59-.03-1.35.52-.96.94-.7 1.16-.61 1.03-.74.58-.99.01-1.27-.47-1.52-.82-1.7-1.07-1.8-1.32-1.85-1.59-1.88-1.9-1.82-2.3-1.41-2.35-.35-.59 15.83 19.44-1.48.56-1.37.5-1.2.4-1.05.3-.96.24-.91.19-.91.17-.95.17-.98.21-1 .29-.99.35-.95.39-.9.39-.85.34-.83.29-.86.26-.93.28-1.02.36-1.08.45-1.03.51-.86.43-.73.24-1.27.38 18.21-5.6 1.32-1.87 1.1-1.72.77-1.88.56-1.69.55-1.12.69-.52.86-.23 1.01-.25 1.09-.46 1.1-.71 1.04-.89.97-.99.92-.98.94-.96 1.04-.97 1.15-1.14 1.25-1.42 1.27-1.7 1.2-1.76 1.02-1.52.72-1.28.42-1.49.81-1.6" filter="url(#a)"/><path d="m-28.65-67.68.74-.59.95-.82.77-.64.66-.58.7-.6.8-.61.91-.61 1.01-.64 1.04-.68.99-.74.88-.78.71-.79.56-.79.5-.76.53-.68.51-.49.1-.59-18.09 15.2.51-1.91.15-1.4-.12-1.67.13-1.48.49-1.16.69-1.09.71-1.27.63-1.54.55-1.74.45-1.9.36-2.04.31-2.2.36-2.21.59-1.89.97-1.24 1.42-.69 1.61-1.06 1.22-3.11L-36.97-62l1.47-1.16.82-1.31.63-1.04.59-.68.6-.52.62-.55.69-.65.75-.73.82-.73.87-.69.88-.63.85-.58.81-.55.78-.58.77-.67.82-.79.9-.96 1.05-1.11 1.27-1.16 1.47-1.01-37.08 30.39 1.3-.91.91-.73.75-.74.69-.83.69-.88.77-.84.88-.75.95-.67.99-.6 1.01-.5 1.01-.34 1.01-.18.96-.15.88-.3.76-.51.7-.61.89-.89-3.12 3.45.31.47.87.39 1.04.06 1.1-.11 1.13-.18 1.08-.34.97-.54.84-.69.78-.68.8-.54.87-.34.95-.21.99-.17.99-.19.95-.18.93-.06.94.17 1.02.43 1.11.63 1.18.67 1.17.53 1.11.33 1.2.15 1.72-.42-25.94 2.69 1.28-.97.69-.33.67-.21.92-.1 1.16.01 1.24-.01 1.18-.18 1.07-.38.97-.49.94-.43.96-.26 1.02-.07 1.09.1 1.16.16 1.19.14 1.12.06.95-.06.69-.16.54-.14.77.18 1.81.78" filter="url(#a)"/><path d="m-49.67-48.35-.68 1.07-.41.91-.29 1.02-.27 1.09-.34 1.12-.43 1.14-.48 1.18-.49 1.25-.43 1.29-.4 1.27-.32 1.24-.22 1.2-.05 1.21.15 1.28.28 1.34.3 1.35.22 1.27-.02 1.15-.06-14.96-.12-2.46.64-.95.62-.83.46-.95.36-1.07.31-1.17.28-1.26.27-1.33.28-1.37.34-1.33.43-1.24.53-1.06.6-.89.62-.75.59-.75.49-.91.38-1.17.32-1.35.53-1.33.79-1.28-23.1 41.4 1.24-2.52.85-.96.69-.71.71-.79.77-.86.79-.82.74-.78.64-.79.51-.86.43-.95.41-.98.49-.97.57-.96.61-.98.63-1.04.86-.99 1.5-.91 1.95-1.53-3.82 7.31.77 1.25.48 1.44-.25 1.06-.51.81-.45.75-.29.82-.08.98.17 1.15.44 1.26.65 1.29.67 1.29.39 1.24-.08 1.18-.33.96.58.89" filter="url(#a)"/><path d="m-57.62-34.67-.4 1.25-.42 1.12-.37.94-.34.86-.35.88-.35.93-.35.97-.34 1-.31 1-.31 1.02-.29 1.04-.29 1.04-.27 1.04-.27 1.05-.25 1.09-.26 1.16-.26 1.22-.25 1.23-.23 1.17-.18 1.05-.13 1.04-.1 1.28-.09 1.52-14.91 13.96.47-1.98.64-1.79.63-1.6.85-1.54 1.13-1.5 1.27-1.4 1.2-1.24 1.04-1.09.89-.99.78-.94.7-.95.58-1 .42-1.06.26-1.12.18-1.17.2-1.21.35-1.25.58-1.2.82-1.09.92-.94.84-.81.74-.82 1.08-1.1 1.62-2.37m121.66.27.15-1.41.09-1.33-.13-1.33-.12-1.38-.14-1.36-.23-1.27-.37-1.19-.44-1.16-.41-1.2-.31-1.26-.18-1.31-.11-1.33-.09-1.29-.14-1.22-.21-1.16-.21-1.15-.15-1.23-.05-1.36-.04-1.44-.19-1.45-.38-1.43-.13-1.04" filter="url(#a)"/><path d="m59.76-28.84-.3-1.76-.25-1.35-.31-1.17-.3-1.18-.24-1.26-.22-1.29-.25-1.25-.29-1.2-.3-1.14-.3-1.11-.31-1.07-.34-1.03-.4-.99-.45-.97-.47-1.01-.45-1.1-.42-1.22-.38-1.33-.39-1.39-.38-1.4-.3-1.33-.11-1.15.1-.9-.11-1 5.57 23.89.71 1.36 1.09 1.02 1.03.97.67 1 .43.99.41.9.51.82.59.82.6.91.6 1.01.65 1.06.74 1.04.81.96.78.92.68.92.58 1 .62 1.22.88 1.67.94 2.11" filter="url(#a)"/><path d="m58-32.97-.63-1.88-.42-1.43-.19-1.34-.03-1.32.02-1.3.02-1.29.04-1.29.1-1.34.14-1.4.14-1.42.05-1.42-.06-1.42-.17-1.45-.24-1.52-.18-1.71-.02-2.11.17-2.83" filter="url(#a)"/><path d="m58-32.97-.07-2.27.19-1.84-.03-1.47-.2-1.24-.31-1.1-.34-1.06-.25-1.12-.06-1.28.26-1.58.63-1.96.94-2.33 1.13-2.62 1.12-2.77.97-2.77.72-2.64.47-2.42.25-2.1.05-1.76-.18-1.48-.63-1.32-1.29-1.23-.79-1.72 8.98 45.27-.92-.12-.82-.33-.74-.54-.64-.77-.54-.99-.55-1.09-.74-1.06-.98-.93-1.18-.8-1.2-.75-1.06-.84-.78-1.01-.45-1.2-.2-1.3-.21-1.2-.69-.8-1.62-.25-2.38.07 4.74 11.04-.38-.94-.42-.94-.42-.97-.44-1.06-.43-1.11-.44-1.1-.43-1.04-.43-.97-.46-.91-.46-.88-.46-.83-.45-.8-.45-.84-.5-.98-.51-1.05m.06.17-.02.38.15.9.18 1.04.11 1.07.08 1.07.13 1.06.19 1.05.26 1.02.33 1 .44.99.5 1 .5 1.02.42 1.02.27 1.01.04 1.11-.52 1.38m-4.81-18.76-.25-.49-.29-1.25-.22-1.36-.31-1.06-.48-.77-.6-.71-.56-.85-.45-1.07-.32-1.29-.3-1.44-.38-1.49-.56-1.48-.72-1.35-.83-1.16-.82-.86-.71-.59-.56-.58-.45-1.35" filter="url(#a)"/><path d="m50.23-47.54-.16-.55-.38-1.13-.25-1.33.09-1.5.39-1.74.52-2 .51-2.14.33-2.02.04-1.75-.21-1.57-.31-1.72-.3-2.07-.43-2.25-.66-2.22-.14-3.05-6.41 18.13.86 1.4.56.97.5.79.54.8.56.83.51.82.46.82.45.85.48.92.54.97.59 1 .61 1 .55.99.47.99.41 1 .38.98.16.78L68.54-64.8l-1.84-1.11-2.73.4-2.69 1.09-2.63 1.32-2.51 1.18-2.23.77-1.79.25-1.4-.21-1.18-.52-1.16-.67-1.24-.67-1.37-.52-1.48-.2-1.59.26-1.6.67-1.52.72-1.4.38-1.35-.07" filter="url(#a)"/><path d="m61.27-57.92-2.61-.07-1.73-.39-1.14-.42-.82-.56-.88-.55-1.16-.32-1.42-.08-1.55.03-1.54-.04-1.51-.17-1.46-.3-1.41-.35-1.32-.33-1.22-.22-1.14-.09h-1.11l-1.1-.06-1.07-.32-1.12-.65-1.77-.92-4.83-3.56-1.1-.39-1.11-.29-1.03.11-.99.28-.95.13-.9-.12-.86-.34-.84-.39-.85-.33-.88-.2-.9-.07-.96.06-1.01.17-1.05.26-1.05.34-1.02.36-.94.32-.87.24-.85.18-.89.15-1.01.11-1.29.05-1.75.17" filter="url(#a)"/><path d="m33.53-54-.39-1.24-.24-1.51-.28-1.34-.37-1.03-.52-.79-.64-.67-.67-.69-.64-.81-.61-.96-.6-1.1-.61-1.19-.65-1.15-.67-.95-.7-.67-.74-.41-.82-.4-.93-.74-.91-.88m-15.5-4.31 1.9.27 1.43.07 1.15-.27 1.08-.64 1.07-.88 1.09-.91 1.17-.86 1.27-.85 1.36-.9 1.39-.93 1.32-.77 1.18-.39 1.04.06 1 .32 1.11.17 1.35-.4 1.67-1.21 1.9-1.89 1.8-2.06 1-.93m-26.28 13-.7.79-.58.78-.66.36-.78.09-.92-.08-1.02-.17-1.04-.14h-1l-.9.22-.8.46-.77.62-.82.67-.91.56-1.03.39-1.09.27-1.09.28-.97.45-.77.61-.51.63.07.69" filter="url(#a)"/><path d="m4.17-75 .33 1.76.52.34.66-.06.78-.05.91.16 1.03.39 1.04.59.96.76.84.9.7 1.04.6 1.18.55 1.31.58 1.44.66 1.47.75 1.37.77 1.28 1.02 1.24m-36.36-35.77 1.88 2.66 2.31 1.51 1.7 1.33 1.25 1.5 1.11 1.72 1.19 1.81 1.3 1.64 1.36 1.3 1.37.99 1.29.87 1.16.88.96.83.72.67.61.65.87 1.01 1.56.94m-2.04.1-.94.06-2.14.14-2.67.21-2.7.26-2.59.33-2.57.41-2.62.47-2.68.55-2.7.6-2.73.67-2.85.73-3.02.78-3.19.84-3.26.89-3.15.93-2.9.97-2.64.98-2.51 1-2.69 1.03-3.18 1.07-3.81 1.15-4.22 1.35-5.33 1.68" filter="url(#a)"/><path d="m-.99-75.21-2.57.14-2.91.23-2.64.27-2.32.35-2.19.42-2.24.49-2.38.56-2.55.63-2.73.69-2.93.75-3.1.8-3.24.86-3.31.91-3.3.95-3.24.98-3.17 1.01-3.11 1.06-3.07 1.1-3.14 1.18-3.34 1.25-3.64 1.35-3.94 1.42-4.04 1.5-3.84 1.54-3.36 1.59-2.9 1.64-2.96 1.66-3.7 1.61-4.33 1.53" filter="url(#a)"/><path d="m-2.12-75.11-2.49.13-2.26.27-2.24.34-2.38.4-2.56.44-2.67.48-2.7.54-2.68.61-2.61.68-2.52.75-2.39.81-2.22.86-2.09.91-2.02.98-2.11 1.04-2.39 1.12-2.8 1.21-3.28 1.28-3.68 1.35-3.95 1.4-4.02 1.43-3.95 1.43-3.73 1.43-3.41 1.44-3.04 1.49-2.7 1.58-2.62 1.7-3.01 1.73-3.64 1.61-2.82 1.34" filter="url(#a)"/><path d="m-9.16-74.54-3.97.49-4.45.52-2.77.47-1.81.51-1.72.6-2.16.68-2.81.76-3.46.82-3.92.85-4.05.89-3.82.96-3.37 1.02-2.87 1.1-2.53 1.19-2.48 1.27-2.72 1.36-3.19 1.41-3.76 1.45-4.25 1.44-4.61 1.39-4.86 1.29-5.23 1.23-4.86 1.2" filter="url(#a)"/><path d="m-10.85-74.31-1.05.38-2.4.58-2.92.61-3.25.66-3.28.71-2.94.77-2.44.83-1.98.89-1.7.93-1.65.97-1.77 1.01-2.02 1.04-2.32 1.09-2.64 1.14-2.93 1.22-3.21 1.3-3.4 1.38-3.51 1.44-3.5 1.52-3.35 1.57-3.09 1.63-2.77 1.69-2.45 1.74-2.2 1.82-2.04 1.89-1.99 1.97-2.11 2.02-2.39 2.07-2.79 2.07-3.14 2.06-3.34 2-3.32 1.92-2.91 1.99-1.53 2.7" filter="url(#a)"/><path d="m-10.19-74.19-3.17.72-1.71.45-1.36.49-1.49.6-1.67.71-1.75.78-1.77.83-1.76.87-1.75.92-1.7.98-1.61 1.06-1.5 1.13-1.34 1.22-1.18 1.3-1.04 1.35-.93 1.41-.89 1.42-.91 1.44-.99 1.44-1.07 1.46-1.07 1.51-.98 1.57-.79 1.66-.55 1.7-.35 1.73-.32 1.84-.55 2.24-.77 3.32" filter="url(#a)"/><path d="m-10.3-74.17-4.1.8-2.66.64-2.26.65-2.47.71-2.64.77-2.61.84-2.55.89-2.68.94-3 .97-3.39 1.01-3.64 1.04-3.66 1.09-3.45 1.15-3.15 1.23-2.88 1.3-2.77 1.38-2.85 1.45-3.11 1.52-3.44 1.57-3.72 1.64-3.86 1.69-3.88 1.75-3.84 1.82-3.87 1.9-4.04 1.96-4.39 2.02-4.82 2.06-5.22 2.06-5.42 2.05-5.28 2.01-4.98 1.96-4.96 1.98-5.25 2.06-4.44 1.83" filter="url(#a)"/><path d="m-15.06-73.1-.81.15-1.27.41-1.78.61-2.1.73-2.2.81-2.16.85-2.04.89-1.94.94-1.85 1-1.81 1.09-1.78 1.16-1.8 1.24-1.83 1.32-1.85 1.36-1.88 1.41-1.89 1.44-1.87 1.46-1.83 1.49-1.75 1.52-1.65 1.58-1.52 1.64-1.41 1.72-1.31 1.81-1.26 1.91-1.27 2.01-1.31 2.1-1.38 2.15-1.44 2.15-1.45 2.11-1.39 2.02-1.33 1.93-1.25 1.86-1.18 1.85-1.06 1.96-.99 2.21-1.2 2.22" filter="url(#a)"/><path d="m-17.25-72.39-1.05.27-1.77.7-2.01.81-2.07.85-2.1.89-2.09.94-2.02.98-1.93 1.01-1.85 1.03-1.81 1.08-1.81 1.14-1.8 1.22-1.79 1.29-1.77 1.38-1.74 1.45-1.67 1.52-1.6 1.57-1.51 1.62-1.46 1.68-1.46 1.74-1.52 1.81-1.6 1.89-1.68 1.96-1.69 2.03-1.59 2.07-1.45 2.08-1.3 2.07-1.26 1.97-1.26 1.74-1.12 1.2" filter="url(#a)"/><path d="m-19.6-71.6-3.23 1.07-2.47.81-2.13.86-2.18.95-2.25.99-2.15 1.01-1.92 1.03-1.67 1.06-1.47 1.13-1.41 1.21-1.5 1.3-1.71 1.38-1.95 1.46-2.13 1.51-2.22 1.57-2.17 1.62-2.06 1.66-1.94 1.73-1.92 1.8-1.97 1.88-2.09 1.96-2.14 2.03-2.06 2.08-1.86 2.1-1.69 2.11-1.72 2.09-1.63 2.06" filter="url(#a)"/><path d="m-21.13-71.15-2.21.82-2.58.85-2.38.84-2.29.89-2.41.98-2.51 1.06-2.45 1.16-2.26 1.24-2.07 1.32-1.98 1.38-2.07 1.42-2.32 1.43-2.65 1.44-2.98 1.44-3.27 1.46-3.48 1.52-3.63 1.58-3.72 1.66-3.79 1.74-3.89 1.82-4.04 1.97-4.04 2.18-3.75 2.39-3.84 2.3-6.34 1.59" filter="url(#a)"/><path d="m-25.86-68.94-.77.38-1.68.84-1.82 1-1.89 1.1-1.94 1.2-1.92 1.28-1.84 1.36-1.74 1.4-1.66 1.44-1.61 1.46-1.6 1.47-1.59 1.48-1.57 1.53-1.55 1.58-1.5 1.65-1.45 1.74-1.4 1.84-1.37 1.93-1.36 2.02-1.34 2.08-1.33 2.12-1.3 2.12-1.24 2.08-1.2 2.02-1.14 1.97-1.1 1.95-1.05 1.97-1 2.05-.97 2.15-.92 2.25-.87 2.27-.8 2.2-.82 2.2-1.12 3.04m46.84-59.6-3.32 1.45-2.68 1.11-3.76 1.02-4.15 1-3.41 1.05-2.31 1.12-1.7 1.22-1.85 1.31-2.58 1.4-3.47 1.47-4.15 1.53-4.57 1.58-4.86 1.63-5.28 1.67-5.84 1.75-6.29 1.81-6.23 1.88-5.48 1.96-4.17 2.02-2.78 2.06-1.87 2.06-1.83 2.04-2.79 1.98-4.8 1.9-7.43 1.97-9.27 2.68" filter="url(#a)"/><path d="m-25.5-69.02-2.67 1.17-2.69 1.08-2.85 1.09-2.72 1.17-2.43 1.27-2.19 1.34-2.03 1.4-2.01 1.43-2.12 1.44-2.38 1.43-2.78 1.44-3.24 1.46-3.64 1.51-3.87 1.59-3.87 1.67-3.67 1.75-3.39 1.84-3 1.98-2.5 2.16-1.97 2.3-1.76 2.28-2.47 2.12-3.62 2.25" filter="url(#a)"/><path d="m-28.39-67.49-1.81.82-1.96.94-1.6.96-1.39 1.03-1.39 1.11-1.52 1.22-1.69 1.31-1.85 1.41-1.95 1.47-1.99 1.53-1.99 1.57-1.96 1.62-1.93 1.67-1.94 1.73-2.02 1.81-2.11 1.88-2.12 1.95-1.97 2.03-1.72 2.05-1.5 2.08-1.51 2.04-1.76 1.96-1.84 1.72-1.01 1.18" filter="url(#a)"/><path d="m-28.65-67.68-1.92.99-3.25 1.08-4.19 1.19-3.81 1.29-2.76 1.38-1.79 1.43-1.22 1.46-1.01 1.46-1.04 1.47-1.25 1.48-1.57 1.53-1.92 1.58-2.23 1.66-2.45 1.75-2.53 1.85-2.5 1.93-2.36 2.03-2.16 2.09-1.94 2.11-1.77 2.12-1.69 2.07-1.76 2.02-2 1.99-2.34 1.97-2.67 1.99-2.84 2.06-2.78 2.15-2.52 2.21-2.14 2.25-1.77 2.25-1.51 2.23-1.6 2.19-2.42 1.92-4.07.94m167.54-9.18 1.04 3.91 1.14 2.68.71 2.23.25 2.09.04 2.08.02 2.15.07 2.24.1 2.34.07 2.39.01 2.36L66.5 10l-.1 2.17-.11 2.06-.13 2.03-.18 2.04-.25 2.08-.37 2.13-.47 2.14-.54 2.14-.57 2.11-.58 2.08-.64 2.06-.74 2.06-.9 2.07-1.03 2.06-1.13 2.07-1.16 2.14-1.19 2.34-.98 2.27" filter="url(#a)"/><path d="m-29.62-66.89-2.55 1.19-1.95.97-1.72 1.03-1.86 1.13-2.01 1.23-2.04 1.34-1.94 1.42-1.81 1.5-1.71 1.55-1.68 1.59-1.72 1.65-1.82 1.7-1.96 1.76-2.1 1.83-2.19 1.91-2.2 1.96-2.1 2.02-1.94 2.04-1.79 2.04-1.78 2.04-1.94 2.01-2.27 2.01-2.54 2.04-2.56 2.07-2.25 2.1-1.72 1.99-1.15 1.65-.64 1.14" filter="url(#a)"/><path d="m-30.28-66.75-2.04 1.12-2.81 1.14-3.15 1.28-2.95 1.38-2.47 1.42-1.86 1.45-1.34 1.44-1.06 1.43-1.08 1.43-1.36 1.46-1.76 1.52-2.14 1.59-2.46 1.68-2.65 1.76-2.8 1.86-2.91 1.99-3.04 2.14-3.15 2.26-3.16 2.25-2.89 2.15-1.97 2.08-.24 2.04" filter="url(#a)"/><path d="m-34.38-63.87-2.46 1.36-1.86 1.2-1.54 1.36-1.53 1.49-1.6 1.54-1.63 1.58-1.61 1.62-1.54 1.66-1.47 1.72-1.41 1.79-1.4 1.86-1.4 1.93-1.39 1.99-1.37 2.02-1.3 2.04-1.23 2.05-1.16 2.04-1.13 2.04-1.12 2.04-1.15 2.05-1.18 2.06-1.19 2.08-1.2 2.11-1.18 2.13-1.14 2.18-1.07 2.2-.91 2.19-.7 2.09-.5 1.99-.5 1.98-.66 2.3-.37 3.37" filter="url(#a)"/><path d="m-34.79-63.14-1.05 1.53-1.51 1.43-1.42 1.48-.72 1.49-.05 1.45.13 1.46-.14 1.5-.56 1.57-.87 1.67-.94 1.77-.82 1.86-.51 1.96-.1 2.04.37 2.11.82 2.12 1.2 2.11 1.46 2.07 1.6 2.02 1.63 1.99 1.6 1.99 1.52 2.01 1.41 2.07 1.32 2.14 1.26 2.19 1.36 2.23 1.6 2.22 1.89 2.19 2.06 2.16 1.93 2.14 1.58 2.18 1.27 2.34L-16.39-1l.16 2.86M-36.97-62l-2.67.66-4.15 1.31-4.67 1.5-5.04 1.55-4.66 1.56-3.61 1.58-2.54 1.62-2.19 1.68-2.86 1.75-4.19 1.82-5.39 1.89-5.83 1.97-5.43 2.02-4.58 2.04-3.9 2.03-3.49 2.01-3.02 1.98-2.2 1.96-1.61 1.99-2.78 2.1-6.55 2.31-11.33 2.8m192.85 5.44 1 2.37 1.13 2.19 2.45 2.2 4.01 2.19 4.82 2.21 4.58 2.25 3.64 2.28 2.53 2.26 1.63 2.25 1.11 2.24.98 2.28 1.08 2.32 1.23 2.37 1.21 2.36.92 2.33.41 2.25-.1 2.18-.4 2.11-.39 2.08-.19 2.07.03 2.07.36 2.08 1.03 2.07 2.23 2.07 3.52 2.04 3.93 1.98 2.54 1.94-.11 1.79M-36.87-61.94l-2.37 1.81-1.85 1.69-1.68 1.61-1.65 1.6-1.7 1.62-1.78 1.67-1.83 1.73-1.77 1.81-1.63 1.88-1.49 1.95-1.38 2-1.36 2.04-1.39 2.05-1.47 2.05-1.58 2.06-1.68 2.05-1.76 2.05-1.77 2.06-1.69 2.08-1.52 2.1-1.31 2.12-1.16 2.14-1.1 2.16-1.17 2.17-1.31 2.16-1.42 2.17-1.41 2.16-1.21 2.21-.88 2.28-.5 2.35-.28 2.4-.34 2.35-.7 2.22-1.15 2.02-1.14 1.84-.2 1.99" filter="url(#a)"/><path d="m-42.69-56.56-1.12 1.19-1.27 1.21-1.44 1.39-1.55 1.56-1.57 1.7-1.54 1.78-1.54 1.87-1.62 1.97-1.75 2.07-1.84 2.14-1.86 2.15-1.78 2.12-1.57 2.06-1.3 2.01-1.03 1.96-.85 1.96-.8 2-.89 2.06-1.06 2.14-1.24 2.19-1.35 2.22-1.37 2.22-1.29 2.18-1.16 2.15-.98 2.13-.83 2.16-.86 2.34-1.13 2.64-.89 2.85m37.73-58.88-3.18 1.92-2.97 1.53-3.82 1.63-4.38 1.73-4.78 1.79-4.96 1.87-4.79 1.94-4.24 2.01-3.5 2.05-2.76 2.05-2.06 2.04-1.41 2.03-.89 2.02-.68 2.03-.99 2.03-1.91 2.05-3.22 2.07-4.54 2.09-5.35 2.13-5.29 2.17-4.37 2.19-2.85 2.18-1.31 2.08-.41 1.96-.78 1.97-2.25 2.29-4.29 3.36M62.96-17.2l.4 1.77.74 2.6 1.32 2.48 2.2 2.27 2.88 2.13 2.89 2.11 2.37 2.16L77.55.56l1.66 2.33 2.04 2.37 2.65 2.36 3.14 2.27 3.19 2.16 2.8 2.07 2.11 2.02 1.46 2.03 1.15 2.08 1.38 2.13 2.1 2.15 3.01 2.15 3.66 2.11 3.66 2.07 2.85 2.04 1.41 2.06-.21 2.09-1.27 2.05-.56 1.79 3.28.98" filter="url(#a)"/><path d="m-44.56-54.69-10.11 2.59-1.24 1.94-.72 1.78-1.79 1.84-2.95 1.94-3.74 2.02-3.84 2.05-3.32 2.05-2.51 2.03-1.83 2.01-1.51 1.99-1.58 2-1.89 2.01-2.22 2.04-2.46 2.04-2.59 2.05-2.75 2.08-3.08 2.17-3.78 2.3-4.69 2.33-5.01 2.02-2.53 1.36" filter="url(#a)"/><path d="m-44.56-54.69-2.62 2.59-2.99 1.94-3.63 1.79-3.58 1.85-2.78 1.95-1.97 2.02-1.67 2.05-1.87 2.05-2.31 2.04-2.77 2.01-3.26 2-3.83 2-4.4 2.02-4.83 2.04-4.93 2.05-4.7 2.06-4.12 2.1-3.26 2.18-2.15 2.25-1.07 2.24-.86 2.07-2.55 1.83-5.47 1.95" filter="url(#a)"/><path d="m-47.43-51.35-2.58 1.48-2.58 1.6-1.98 1.8-2.01 1.96-2.3 2.03-2.43 2.07-2.27 2.05-1.87 2.04-1.39 2.01-.92 2-.57 2.01-.39 2.02-.41 2.03-.6 2.06-.86 2.07-1.16 2.11-1.46 2.16-1.71 2.22-1.84 2.19-1.72 2.05-1.35 1.85-1.09 1.68-.85 1.48m34.34-44.97-.8 1.5.45 1.63 1.12 1.84.74 1.99.03 2.07-.65 2.09-1.16 2.08-1.46 2.06-1.46 2.05-1.25 2.03-.91 2.05-.51 2.06-.15 2.07.18 2.1.46 2.12.71 2.15.94 2.16 1.15 2.16 1.33 2.17 1.49 2.17 1.59 2.19 1.64 2.22 1.62 2.27 1.52 2.31 1.33 2.32 1.1 2.29.87 2.24.7 2.2.73 2.22 1.06 2.32 1.73 2.51 2.45 2.68 2.57 2.72 3.11 2.8" filter="url(#a)"/><path d="m-49.67-48.35-1.46 1.83-2.19 2.1-2.61 2.12-2.7 2.11-3.11 2.07-4.01 2.04-5.15 2.01-6.03 2.01-6.19 2.01-5.51 2.03-4.2 2.05-2.7 2.07-1.44 2.09-.66 2.12-.39 2.16-.49 2.16-.8 2.15-1.26 2.1-1.84 2.08-2.58 2.12-3.51 2.25-4.72 2.42-6.27 2.53-7.55 2.45-4.45 1.85" filter="url(#a)"/><path d="m-50.72-46.91-1.11 1.33-1.61 1.77-2.42 2.17-3.12 2.32-3.38 2.28-2.99 2.15-2.09 2.03-1.07 1.95-.33 1.92-.05 1.93-.18 2-.53 2.08-.91 2.14-1.2 2.2-1.37 2.21-1.46 2.2-1.49 2.18-1.53 2.17-1.59 2.19-1.61 2.21-1.52 2.28-1.27 2.33-.93 2.35-.78 2.38-1.04 2.45-1.39 2.64-1.02 2.94" filter="url(#a)"/><path d="m-50.88-46.74-4.01 2.37-2.15 2.21-1.36 2.14-1.06 2.09-1.1 2.06-1.19 2.04-1.2 2.02-1.15 2.04-1.14 2.06-1.15 2.08-1.16 2.11-1.1 2.12-.98 2.15-.81 2.17-.69 2.17-.61 2.17-.6 2.18-.62 2.2-.66 2.23-.69 2.27-.69 2.29-.7 2.3-.7 2.29-.71 2.27-.74 2.26-.75 2.28-.73 2.32-.59 2.36-.29 2.37.09 2.28.43 2.16.56 2.06.55 2.11.54 2.17.08 1.42" filter="url(#a)"/><path d="m-51.31-45.63-5.31 1.66-5.79 2.31-3.26 2.46-1.52 2.34-.46 2.16.13 2.03.28 1.95-.04 1.94-.67 1.96-1.36 2.02-1.83 2.11-1.93 2.16-1.67 2.2-1.21 2.22-.74 2.21-.46 2.22-.46 2.21-.73 2.24-1.15 2.26-1.61 2.3-1.94 2.32L-85.07 2l-1.89 2.34-1.6 2.32-1.32 2.27-1.18 2.2-1.17 2.13-1.2 2.11-1.08 2.12-.76 2.16-.34 2.2-.04 2.23-.04 2.26-.94 2.13M62.8-18.45l.7 2.12 1.9 2.18 2.5 2.19 2.13 2.19 1.76 2.19 1.97 2.22 2.55 2.25 2.95 2.26 2.76 2.26 1.92 2.24.76 2.24-.2 2.27-.54 2.32-.13 2.37.84 2.37 1.98 2.34 2.81 2.26 2.99 2.16 2.44 2.1 1.35 2.07.18 2.07-.5 2.07-.33 2.07.61 2.09 1.85 2.12 2.44 1.98.04 1.36" filter="url(#a)"/><path d="m-55.06-39.62-2.34 1.86-1.42 2.09-.58 2.02-.38 1.99-.47 2.01-.62 2.05-.76 2.08-.86 2.1-.92 2.12-.91 2.15-.86 2.16-.77 2.17-.69 2.17-.62 2.16-.56 2.18-.47 2.22-.37 2.27-.26 2.29-.17 2.31-.11 2.28-.11 2.25-.12 2.24-.12 2.26-.05 2.32.07 2.38.19 2.39.28 2.29.31 2.1.31 1.98.32 2.27.75 3.17" filter="url(#a)"/><path d="m-55.06-39.62-.99 1.86-1.05 2.09-.98 2.02-.94 1.98-.99 2.01-1.12 2.04-1.34 2.08-1.49 2.1-1.5 2.12-1.34 2.14-1.08 2.16-.86 2.17-.8 2.16-.89 2.17-1.07 2.17-1.23 2.22-1.3 2.26-1.25 2.3-1.07 2.31-.79 2.28-.47 2.24-.18 2.22.03 2.25.11 2.32.01 2.41-.23 2.44-.55 2.31-.76 1.99-.38 1.65 1.13 2.13" filter="url(#a)"/><path d="m-57.42-35.07-.75 1.72-.93 1.81-1.38 1.93-1.76 2.04-1.77 2.09-1.47 2.09-1.15 2.09-1.03 2.13-1.11 2.16-1.25 2.17-1.28 2.15-1.23 2.13-1.15 2.14-1.12 2.18-1.22 2.26-1.42 2.32-1.61 2.32-1.71 2.28-1.57 2.2-1.12 2.13-.43 2.14.28 2.28.65 2.53.42 2.72-.62 2.37" filter="url(#a)"/><path d="m-57.97-33.37-4.6 1.87-1.29 1.93-3.28 2.08-4.76 2.13-4.1 2.1-2.16 2.11-.25 2.13.85 2.17.95 2.18.22 2.16-.97 2.15-2.17 2.16-2.96 2.21-3.14 2.26-2.73 2.31-2.03 2.3-1.44 2.28-1.22 2.24-1.37 2.22-1.72 2.25-2.06 2.31-2.41 2.38-2.82 2.39-3.18 2.28-3.01 2.08-1.79 1.97-.01 2.27-.92 3.16" filter="url(#a)"/><path d="m-58.93-31.14-2.28 1.53-.73 2.14-.94 2.17-1.19 2.1-1.14 2.09-1.01 2.12-.95 2.18-.99 2.18-1 2.15-.91 2.14-.75 2.14-.57 2.2-.45 2.26-.43 2.31-.46 2.31-.5 2.27-.48 2.22-.42 2.2-.39 2.23-.41 2.31-.5 2.41-.59 2.44-.56 2.29-.4 1.97-.34 1.63-.63 2.13" filter="url(#a)"/><path d="m-59.32-29.88-1.76 1.41-4.41 1.76-4.86 1.97-4.03 2.16-2.92 2.25-1.87 2.26-1 2.23-.42 2.19-.18 2.16-.3 2.15-.8 2.18-1.52 2.21-2.31 2.28-2.89 2.31-3.21 2.35-3.34 2.36-3.46 2.33-3.51 2.27-3.11 2.15-1.97 1.99-.54 1.93-.66 2.19-5.35 2.73" filter="url(#a)"/><path d="m-59.77-28.92-3.73 2.22-5.12 2.02-5.16 2.23-5.02 2.32-4.42 2.3-3.45 2.26-2.22 2.21-.93 2.19.17 2.2.81 2.22.8 2.26.33 2.3L-88 .15l-.73 2.34-.84 2.33-.68 2.29-.36 2.24-.04 2.2.19 2.15.3 2.13.21 2.14-.18 2.15-.82 2.17-1.59 2.19-2.2 2.19-2.41 2.18-2.18 2.16-1.79 2.12-1.64 2.01-1.83 1.85-1.71 1.76.14 1.83" filter="url(#a)"/><path d="m-60.63-26.7-1.3 1.77-2.21 2-1.35 1.99-.36 2.11-.03 2.2-.18 2.21-.43 2.17-.61 2.13-.65 2.16-.65 2.2-.63 2.27-.63 2.31-.61 2.31-.6 2.28-.56 2.24-.49 2.24-.4 2.26-.28 2.3-.14 2.33-.04 2.32v4.41l-.05 2.07-.13 2.05-.23 2.02-.28 1.96-.04 1.88.89 1.97" filter="url(#a)"/><path d="m-60.63-26.7-.83 1.76-1.18 1.98-1.81 1.98-2.4 2.09-2.77 2.19-2.86 2.21-2.84 2.15-2.85 2.11-2.93 2.13-3.1 2.18-3.31 2.27-3.67 2.31-4.27 2.31-5.1 2.26-5.8 2.22-5.89 2.18-4.98 2.22-3.25 2.31-1.43 2.4-.39 2.43-.42 2.29-1.07 1.95-2.6 1.63-7.05 2.12m72.68-50.95-.92 3.33-.53 2.63-.33 2.36-.21 2.25-.08 2.18.13 2.17.37 2.17.59 2.21.74 2.26.77 2.31.73 2.33.67 2.35.62 2.33.61 2.29.65 2.24.65 2.18.62 2.15.53 2.12.45 2.13.4 2.15.44 2.16.57 2.19.72 2.18.85 2.18.9 2.16.9 2.11.89 2 .98 1.85 1.28 1.76 1.64 1.82M62.06-21.28l.63 1.46.87 2.02 1.54 2.3 2 2.41 2.04 2.37 1.89 2.26 1.7 2.16 1.41 2.11.93 2.13.38 2.21-.04 2.3-.12 2.38.18 2.4.72 2.32 1.3 2.17 1.7 1.98 1.9 1.84L83 17.43l1.77 2.1 1.46 2.31 1.22 2.08 1.88 1.11M62.06-21.28l19.88 1.49-1.42 2.05-3.54 2.33-1.55 2.43.52 2.39 1.6 2.28 1.9 2.19 2.06 2.16 2.36 2.19L86.6.49l2.91 2.32 2.74 2.35 2.23 2.34 1.58 2.27.93 2.18.43 2.08.1 2.04-.04 2.05.04 2.08.33 2.13.83 2.16 1.47 2.14 2.2 2.12 2.89 2.07 3.32 2.06 3.24 2.06 2.6 2.09 1.6 2.06.7 1.8 1.83.98" filter="url(#a)"/><path d="m61.3-24.83.67 2.67.96 2.14 1.47 2.16 1.61 2.29 1.34 2.38.93 2.34.73 2.26.87 2.17 1.26 2.13 1.66 2.13 1.83 2.2 1.67 2.3 1.24 2.38.73 2.41.29 2.35.06 2.18.04 1.96.22 1.78.53 1.83.97 2.17L82 22.08l2.89 2.4" filter="url(#a)"/><path d="m61.05-25.51.78 1.95.58 2.46.53 2.35.52 2.24.51 2.2.49 2.19.45 2.19.36 2.21.26 2.23.17 2.25.1 2.26.08 2.26.08 2.26.05 2.26.01 2.29-.06 2.33-.16 2.36-.26 2.36-.36 2.34-.45 2.26-.53 2.19-.56 2.13-.59 2.09-.58 2.08-.56 2.08-.57 2.08-.61 2.09-.71 2.09-.8 2.05-.88 1.98-1.24 2.3" filter="url(#a)"/><path d="m60.33-26.97-3.12 1.53 1.35 2.04 1.55 2.28.91 2.29.32 2.24-.04 2.21-.21 2.2-.28 2.2-.3 2.21-.32 2.23-.38 2.25-.48 2.26-.64 2.26-.83 2.26-1 2.28-1.1 2.29-1.11 2.33-1.04 2.36-.91 2.36-.77 2.33-.69 2.27-.71 2.2-.86 2.13-1.13 2.09-1.44 2.09-1.68 2.08-1.76 2.08-1.61 2.09-1.26 2.1-.87 2.05-.84 1.98-2.02 2.3m23.27-69.87 1.03 1.53 2.11 2.04 3.92 2.28 5.08 2.28 4.95 2.24 3.68 2.21 2.04 2.19.82 2.2.31 2.21.31 2.23.53 2.24.77 2.26 1.04 2.26 1.39 2.26 1.75 2.27 2 2.29 2 2.32 1.77 2.36 1.48 2.37 1.26 2.34 1.18 2.27 1.11 2.19.92 2.12.57 2.09.26 2.08.17 2.08.46 2.08.96 2.1 1.45 2.12 1.68 2 1.11 1.37" filter="url(#a)"/><path d="m59.11-30.91.75 2.54.64 2.1.55 1.99.5 2.01.46 2.09.44 2.17.39 2.26.35 2.32.28 2.31.21 2.26.14 2.2.08 2.15.05 2.16v2.21l-.05 2.3-.11 2.38-.19 2.43-.27 2.39-.32 2.21-.34 1.95-.33 1.7-.35 1.67-.48 2.23-.91 3.87" filter="url(#a)"/><path d="m58-32.97.91 1.65.93 1.97.87 1.95.81 1.98.81 2.08.88 2.16.95 2.21.92 2.22.82 2.22.66 2.21.55 2.22.49 2.22.5 2.24.56 2.25.63 2.27.71 2.27.78 2.27.84 2.28.86 2.31.83 2.33.71 2.36.5 2.36.22 2.32-.09 2.28-.36 2.21-.56 2.15-.62 2.11-.57 2.09-.44 2.09-.32 2.09-.33 2.1-.5 2.08-.72 2.06-.71 1.99-.41 1.97-.39 1.8M53.54-42.15l1.54 1.78 1.58 2 1.45 2.17 1.37 2.19 1.36 2.14 1.41 2.07 1.57 2.04 1.74 2.04 1.87 2.07 1.89 2.13 1.89 2.16 1.93 2.18 2.07 2.2 2.28 2.19 2.42 2.2 2.41 2.2 2.18 2.22 1.81 2.24 1.42 2.26L88.85.58l.97 2.24.9 2.21.9 2.22.87 2.27.79 2.42.69 2.59.86 2.69 1.58 2.43 1.73 1.69" filter="url(#a)"/><path d="m53.54-42.15 1.47 1.79 2.16 2.01 2.14 2.18 1.84 2.2 1.66 2.14 1.8 2.08 2.3 2.05 2.93 2.05 3.39 2.09 3.49 2.14 3.21 2.17 2.67 2.19 2.04 2.2 1.4 2.21.85 2.21.4 2.21.06 2.24-.16 2.24-.25 2.26-.22 2.26-.04 2.25.29 2.26.71 2.28 1.14 2.33 1.46 2.39 1.62 2.43 1.57 2.41 1.24 2.3.66 2.15-.06 2.03-.63 2.07-.77 2.3.33 2.34" filter="url(#a)"/><path d="m52.45-44.14 1.5 1.87 1.32 1.89 1.08 2.04 1.12 2.13 1.25 2.17 1.29 2.13 1.22 2.08 1.05 2.06.88 2.06.75 2.09.66 2.14.61 2.16.59 2.19.56 2.2.52 2.21.43 2.21.33 2.21.21 2.24.11 2.24.02 2.26L67.92.7l-.05 2.25-.07 2.25-.06 2.28-.05 2.32-.03 2.4-.01 2.45-.02 2.45-.06 2.32-.12 2.11-.19 1.92-.24 2.02-.55 2.8" filter="url(#a)"/><path d="m51.98-44.9 12.09 1.15.32 1.6-.88 1.83.62 2.01 1.69 2.1 1.81 2.14 1.42 2.13 1.18 2.09 1.38 2.08 1.97 2.08 2.75 2.1 3.42 2.14 3.8 2.17 3.77 2.19 3.37 2.21 2.67 2.21 1.83 2.22.98 2.23.25 2.24-.27 2.25-.59 2.26-.7 2.26-.59 2.27-.28 2.28.22 2.3.88 2.34 1.58 2.37 2.2 2.4 2.52 2.37 2.35 2.3 1.63 2.2.64 2.12-.08 2.09.01 2.12.84 2.08 1.05 1.84-1.47 1.37" filter="url(#a)"/><path d="m50.23-47.54 1.63 2.28 1.44 1.98 1.66 1.82 2.01 1.8 2.21 1.87 2.13 1.99 1.77 2.08 1.29 2.14.87 2.17.69 2.15.79 2.12 1.12 2.1 1.51 2.1 1.74 2.15 1.7 2.22 1.36 2.3.97 2.34.77 2.31.94 2.21 1.35 2.09 1.54 2.02 1.35 2.11L82.99.98M47.87-50.15l2.53 2.4 3.99 1.97 4.33 1.74 3.15 1.73 2.12 1.81 2.16 1.93 2.94 2.03 3.71 2.09 4.02 2.08 3.98 2.06 3.95 2.03 4.23 2.02 4.82 2.04 5.51 2.09 5.97 2.14 5.92 2.18 5.15 2.17 3.77 2.18 2.32 2.17 1.92 2.15 3.38 2.06 6.31 1.91 9.66 2.03" filter="url(#a)"/><path d="m48.07-50.43 1.23 1.03 2.75 1.72 2.33 1.79 1.85 1.74 2 1.75 2.39 1.81 2.47 1.92 2.03 2.02 1.29 2.07.6 2.08.24 2.05.25 2.02.55 2.01.9 2.03 1.22 2.08 1.44 2.15 1.57 2.17 1.67 2.17 1.74 2.17 1.72 2.22 1.8 2.35 2.56 2.26M45.66-53.65l-3.5 2.32-.59 1.83.33 1.81.32 1.8.21 1.78.29 1.8.43 1.87.54 1.95.66 2.03.84 2.07 1.02 2.09 1.06 2.08.94 2.06.65 2.07.32 2.09v2.12l-.28 2.16-.54 2.18-.84 2.19-1.13 2.19-1.41 2.2-1.6 2.2-1.72 2.22-1.73 2.24-1.76 2.28-1.91 2.3-2.35 2.26-3.08 2.17-3.6 2.1-2.79 2.09.46 2.37" filter="url(#a)"/><path d="m42.86-56.45 2.24 1.9 2.16 1.62 1.7 1.66 1.36 1.74 1.46 1.77 1.86 1.78 2.25 1.8 2.46 1.82 2.4 1.89 2.1 1.95 1.66 2.02 1.21 2.06.87 2.08.73 2.08.78 2.08.96 2.08 1.18 2.1 1.33 2.13 1.36 2.15 1.26 2.18 1.07 2.2.9 2.2.77 2.2.68 2.21.62 2.23.52 2.25.39 2.28.25 2.28.2 2.26.28 2.19.52 2.12.77 2.09.68 2.09-.13 1.95" filter="url(#a)"/><path d="m42.15-57.46 1.78 1.93 1.46 1.64 1.35 1.57 1.34 1.61 1.34 1.68 1.28 1.77 1.21 1.83 1.15 1.86 1.12 1.88 1.14 1.92 1.16 1.96 1.17 2.03 1.14 2.07 1.05 2.13.96 2.15.86 2.16.77 2.16.72 2.17.68 2.19.67 2.22.64 2.24.62 2.28.56 2.28.51 2.27.43 2.25.36 2.23.31 2.22.28 2.25.25 2.32.25 2.4.2 2.46.14 2.45.04 2.29-.03 1.99-.02 1.58.07 1.26.07 1.33" filter="url(#a)"/><path d="m40.68-58.85 1.78 2.2.44 1.87-1.21 1.7-1.91 1.69-1.31 1.72-.06 1.74 1 1.76 1.32 1.77 1.05 1.79.55 1.85.18 1.91.01 2-.15 2.05-.58 2.07-1.37 2.06-2.35 2.03-3.13 2.02-3.33 2.04-2.9 2.1-2.26 2.15-2.18 2.19-3.08 2.18-4.38 2.13-4.41 2.22-1.65 2.84" filter="url(#a)"/><path d="m39.53-59.84 4.9 2.2 2.81 1.9 1.32 1.71 1.23 1.61 1.87 1.63 2.47 1.68 2.66 1.75 2.41 1.81 1.91 1.84 1.46 1.87 1.2 1.89L64.95-38l1.3 2 1.41 2.06 1.45 2.12 1.38 2.14 1.25 2.15 1.16 2.15 1.12 2.14 1.16 2.15 1.16 2.19 1.09 2.24.94 2.3.78 2.33.76 2.31.95 2.24 1.32 2.14 1.63 2.06 1.55 2.06L86.38.79l.37 1.72" filter="url(#a)"/><path d="m36.5-62.03 1.8 1 1.88 1.24 1.94 1.47 2.05 1.64 1.94 1.69 1.68 1.71 1.43 1.72 1.31 1.73 1.35 1.75 1.51 1.75 1.73 1.78 1.97 1.8 2.16 1.85 2.26 1.92 2.27 1.99 2.2 2.04 2.06 2.07 1.91 2.07 1.74 2.04 1.57 2.02 1.42 2.03 1.36 2.1 1.4 2.17 1.42 2.22 1.31 2.16 1.36 2.01 2.24 1.49" filter="url(#a)"/><path d="m36.5-62.03 1.6 1 2.35 1.23 3.03 1.47 2.96 1.62 2.41 1.69 1.83 1.71 1.45 1.71 1.28 1.73 1.24 1.74 1.26 1.75 1.32 1.76 1.42 1.79 1.6 1.84 1.81 1.9 2.02 1.99 2.18 2.05 2.24 2.08 2.17 2.06 1.96 2.03 1.6 1.98 1.17 1.98.86 2.09 1.01 2.23 1.76 2.21 2.61 1.96" filter="url(#a)"/><path d="m31.4-65.57 2.18 1.32 1.55 1.14 1.6 1.25 1.67 1.36 1.68 1.46 1.65 1.55 1.57 1.6 1.5 1.63 1.43 1.65 1.37 1.68 1.32 1.71 1.29 1.75 1.24 1.8 1.2 1.83 1.15 1.87 1.1 1.91 1.05 1.96 1.02 2.01.97 2.06.92 2.11.85 2.14.8 2.15.72 2.16.67 2.16.61 2.17.56 2.2.53 2.25.47 2.3.43 2.32.36 2.3.31 2.25.23 2.17.17 2.11.12 2.1.09 2.16.04 2.33-.1 3.01" filter="url(#a)"/><path d="m31.47-65.68 1.25.95 1.53 1.19 1.44 1.22 1.32 1.26 1.33 1.36 1.4 1.48 1.49 1.57 1.52 1.66 1.5 1.69 1.42 1.73 1.31 1.74 1.2 1.76 1.1 1.78 1.02 1.81.96 1.84.91 1.89.86 1.94.82 1.99.77 2.04.73 2.06.7 2.07.67 2.08.64 2.08.59 2.1.5 2.12.4 2.16.3 2.18.22 2.2.17 2.21.17 2.2.18 2.19.16 2.18.08 2.22-.07 2.39-.21 2.73-.1 3.02" filter="url(#a)"/><path d="m31.47-65.68 1.36.94 1.64 1.17 1.63 1.21 1.59 1.24 1.6 1.34 1.66 1.45 1.68 1.56 1.64 1.64 1.57 1.68 1.46 1.7 1.37 1.73 1.28 1.74 1.23 1.75 1.19 1.77 1.16 1.79 1.13 1.84 1.12 1.91 1.09 1.98 1.08 2.05L59-33.1l1 2.08.93 2.03.85 1.96.75 1.96.7 2.1.7 2.37.63 2.15" filter="url(#a)"/><path d="m30.62-66.22 1.36.91 1.65 1.06 1.71 1.15 1.83 1.24 1.98 1.35 2.07 1.45 2.03 1.53 1.88 1.59 1.66 1.62 1.48 1.64 1.39 1.67 1.38 1.71 1.42 1.75 1.47 1.79 1.49 1.82 1.47 1.87 1.43 1.9 1.39 1.95 1.34 2 1.3 2.05 1.27 2.11 1.22 2.14L66-27.77l1.12 2.15 1.12 2.15 1.17 2.15 1.27 2.18 1.37 2.24 1.37 2.33 1.21 2.37.96 2.37.77 2.26.77 2.08.79 1.99.22 2.44" filter="url(#a)"/><path d="m28.46-67.48 1.78 1.08 1.63 1.04 1.58 1.08 1.59 1.13 1.61 1.23 1.65 1.33 1.65 1.42 1.64 1.51 1.59 1.57 1.54 1.6 1.5 1.62 1.46 1.65 1.43 1.68 1.38 1.73 1.34 1.77 1.27 1.8 1.21 1.84 1.15 1.86 1.1 1.89 1.09 1.96 1.08 2.03 1.07 2.13 1.03 2.19.97 2.21.85 2.15.74 2.06.67 1.99.57 1.57M28.46-67.48l2.17 1.09 2.71 1.04 2.85 1.09 2.23 1.15 1.56 1.24 1.31 1.34 1.56 1.43 2.13 1.52L47.8-56l3.42 1.61 3.82 1.63 4.02 1.67 4.11 1.7 4.2 1.74 4.37 1.78 4.55 1.82 4.58 1.86 4.29 1.89 3.63 1.93 2.7 1.99 1.8 2.05 1.23 2.11 1.18 2.15 1.6 2.16 2.29 2.14 3.02 2.12 3.72 2.11 4.36 2.13 4.83 2.22 4.66 2.36 3.32 2.52 1.52 2.48 3.2 2.09" filter="url(#a)"/><path d="m26.13-68.89.86 1.27.14 1.14.42 1.08 1.04 1.11 1.65 1.15 1.98 1.24 2.02 1.33 1.74 1.42 1.24 1.51.6 1.56-.03 1.6-.53 1.63-.79 1.66-.75 1.69-.5 1.73-.16 1.78.11 1.81.15 1.85-.03 1.87-.36 1.92-.64 1.97-.74 2.05-.6 2.11-.36 2.17-.26 2.18-.51 2.15-1.12 2.1-1.72 2.04-1.86 1.99-1.25 1.83-.89 1.21m1.15-52.15 2.46 1.26 2.06 1.13 2.02 1.07 2.27 1.09 2.68 1.13 3.04 1.22 3.06 1.3 2.71 1.4 2.16 1.49 1.72 1.55 1.63 1.59 1.91 1.6 2.46 1.63 3.06 1.65 3.54 1.7 3.82 1.77 3.83 1.8 3.59 1.82 3.13 1.81 2.59 1.82 2.26 1.84 2.38 1.94 2.75 2.06 3.98 2.31" filter="url(#a)"/><path d="m23.38-70.14 2.48.89 2.46.93 2.45 1.06 2.29 1.14 2.13 1.17 2.12 1.2 2.26 1.22 2.48 1.27 2.73 1.34 3 1.42 3.35 1.52 3.82 1.6 4.42 1.65 5.05 1.69 5.55 1.71 5.74 1.74 5.52 1.74 5.01 1.75 4.45 1.76 4.17 1.78 4.37 1.86 5 1.97 5.65 2.1 6.08 2.19 6.25 2.2 5.59 2.4" filter="url(#a)"/><path d="m22.54-70.53 2.23 1.03 2.01.94 2.25 1 2.36 1.05 2.33 1.07 2.25 1.12 2.19 1.17 2.19 1.24 2.2 1.33 2.21 1.41 2.21 1.5 2.18 1.55 2.11 1.59 1.97 1.63 1.82 1.66 1.67 1.69 1.57 1.74 1.58 1.77 1.71 1.82 1.93 1.84 2.21 1.88 2.44 1.92 2.59 1.98 2.64 2.04 2.6 2.12 2.53 2.17 2.44 2.18 2.34 2.16 2.29 2.1 2.35 2.05 2.62 1.99 3.04 1.84 3.75 1.21M22.54-70.53l9.57 1.02 2.28.92 2.89.99 3.47 1.03 2.83 1.05 1.73 1.09.93 1.14.79 1.2 1.28 1.29 2.1 1.38 2.97 1.47 3.7 1.53 4.31 1.58 4.93 1.59 5.71 1.61 6.7 1.63 7.84 1.69 8.72 1.76 8.82 1.83 7.69 1.84 5.45 1.78 2.73 1.7.39 1.51" filter="url(#a)"/><path d="m22.54-70.53 2.55 1.02 1.87.92 1.98.99 2.23 1.03 2.42 1.06 2.48 1.09 2.47 1.14 2.47 1.21 2.6 1.3 2.84 1.39 3.09 1.47 3.25 1.53 3.33 1.58 3.4 1.6 3.57 1.61 3.9 1.65 4.32 1.69 4.78 1.77 5.2 1.81 5.62 1.83 5.96 1.8 5.87 1.77 5.23 1.8 6.67 2.05" filter="url(#a)"/><path d="m22.54-70.53 2.48 1.03 2.5.93 3.03 1 3.76 1.04 4.18 1.07 4.2 1.11 3.98 1.16 3.77 1.24 3.57 1.32 3.34 1.41 3.04 1.48 2.75 1.55 2.57 1.59 2.61 1.62 2.85 1.65 3.14 1.68 3.39 1.73 3.47 1.76 3.41 1.81 3.25 1.83 3.11 1.86 3.12 1.89 3.38 1.95 3.98 2.04 4.85 2.13 5.72 2.22 6.23 2.23 6.07 2.16 4.57 2.11-.08 2.65" filter="url(#a)"/><path d="m14.31-73.2 3.65.79 3.57.6 2.85.65 2.06.75 1.62.85 1.64.92 1.98.98 2.4 1.02 2.73 1.06 2.9 1.11 2.92 1.15 2.89 1.22 2.91 1.3 2.96 1.38 2.99 1.46 2.92 1.53 2.72 1.57 2.51 1.61 2.49 1.63 2.85 1.66 3.58 1.71 4.48 1.77 5.1 1.81 5.02 1.83 4.09 1.82 2.74 1.81 1.74 1.83 1.91 1.91 3.05 1.92" filter="url(#a)"/><path d="m13.74-73.59 2.36.7 2.54.7 3.06.72 3.6.74 3.72.77 3.32.84 2.72.92 2.39 1.01 2.61 1.08 3.29 1.14 4.06 1.19 4.61 1.24 4.66 1.3 4.25 1.37 3.57 1.44 2.86 1.52 2.34 1.59 2.14 1.65 2.25 1.69 2.61 1.72 3.12 1.75 3.63 1.76 3.98 1.79 4.1 1.81 3.95 1.86 3.6 1.92 3.24 1.99 3.09 2.05 3.32 2.09 3.93 2.09 4.6 2.05 4.95 1.99 4.68 1.98 4.11 2.12 4.32 2.39 5.1 2.17" filter="url(#a)"/><path d="m14.51-73.5 1.08.49 2.42.59 3.35.61 4.28.67 4.72.75 4.32.85 3.35.92 2.34.97 1.73 1.02 1.61 1.07 1.86 1.11 2.22 1.16 2.54 1.23 2.83 1.31 3.17 1.38 3.62 1.47 4.12 1.52 4.57 1.58 4.84 1.61 4.85 1.64 4.65 1.68 4.3 1.72 3.83 1.76 3.3 1.81 2.79 1.83 2.45 1.84 2.55 1.86 3.32 1.89 4.79 2 6.73 2.14 8.35 2.39 7.51 2.72" filter="url(#a)"/><path d="m11.66-74.16 2.25.57 2.16.56 2.32.58 2.34.6 2.35.65 2.43.74 2.54.82 2.55.89 2.44.95 2.26.99 2.15 1.03 2.2 1.07 2.44 1.12 2.8 1.17 3.06 1.24 3.04 1.34 2.67 1.44 2.16 1.54 1.87 1.6 2.14 1.61 2.95 1.54 3.7 1.48 3.26 1.8" filter="url(#a)"/><path d="m6.65-74.68 1.41.13 2.14.35 2.56.41 3.13.46 3.44.53 3.19.6 2.54.66 1.91.71 1.55.76 1.6.81 1.91.89 2.37.96 2.84 1.04 3.31 1.11 3.79 1.15 4.26 1.19 4.67 1.24 4.99 1.3L63.42-59l5.2 1.47 5.19 1.58 5.21 1.64 5.31 1.67 5.45 1.68 5.69 1.75 6.04 1.97 5.18 2.34" filter="url(#a)"/><path d="m4.69-75.22 1.72.36 2 .31 2.16.36 2.2.41 2.32.47 2.47.54 2.53.6 2.42.66 2.23.71 2.06.76 2.04.83 2.18.89 2.46.98 2.77 1.04 3.06 1.11 3.27 1.15 3.37 1.21 3.39 1.26 3.33 1.33 3.18 1.4 3 1.48 2.78 1.57 2.63 1.64 2.67 1.68 2.96 1.72L73.28-49l3.76 1.77 3.81 1.77 3.63 1.71 3.73 1.67 4.33 1.74" filter="url(#a)"/><path d="m4.69-75.22 1.7.36 1.8.32 1.95.36 2.04.41 2.18.47 2.39.54 2.62.61 2.84.66 3.02.72 3.11.77 3.14.84 3.18.91 3.25.98 3.42 1.05L45-65.11l3.92 1.17 4.09 1.23 4.1 1.28 3.92 1.34 3.57 1.42 3.17 1.5 2.79 1.57 2.6 1.64 2.64 1.68 2.97 1.72 3.55 1.74 4.24 1.76 4.91 1.76 5.38 1.77 5.52 1.78 5.39 1.86 5.31 1.97 5.85 2.15 7 2.22 4.8 1.76" filter="url(#a)"/></g><path fill="none" stroke="#000" stroke-linejoin="round" stroke-width="3" d="M-10.51 17.73Q8.62 21.105-.945-4.836" filter="url(#a)"/><path fill="#D77F8C" stroke="#000" stroke-linejoin="round" stroke-width="3" d="m10.48 54.86.02.02v.44l-.12-.1.14.24-.46.63.14.24-.41.63-.3.2-.49.82.06-.09-.5.39.17.03-1 .65.32-.26-1.37 1.09-.41.26.47-.33-.08.1-1.58.74-.48.33-.75.3.66-.37-.86.46-1.1.42-.08-.07-.02.09-2.17.61-.23.06-.48.12-.31.12-.9.2-1.82.36.15-.04-1.16.15-.4.08-.15.04-1.39.15-1.4.15.23-.05-.69.07-2.37.13-.83.02h-.01.29l-1.22.01-.72.01h.29l-3.08-.08 1.52.06-3-.14-1.82-.15 1.17.1-1.93-.19-.66-.07.54.06-1.36-.16-2.36-.37.48.09-2.13-.39-.29-.05.59.1-.87-.17-1.71-.4-1.12-.31-.58-.14-1.03-.34-.24-.02-.55-.22-.82-.24-.52-.23.69.29-1.69-.64-.5-.25-1.4-.61-.61-.36 1.19.6-2.2-1.09-.44-.3.46.27-1.23-.78-.61-.31.19.08-.24-.11-.12-.11-1.07-.83-.19-.22-.36-.33.26.1-.98-.97-.03-.02-.58-.88.26.42-.46-.77-.11-.76-.07.08-.07-.34.02.1-.23-.35.03-1.2-.13.62.06-.66-.03-.34.14-.54.14-.22.35-.74-.19.5.16-.53.18-.22.33-.62.52-.4.4-.4.34-.39-.01-.01.56-.48.58-.45.22-.1.98-.51-.05-.01-.36.15 1.55-.81-.76.38.62-.24 1.73-.74h.06l-.12.06 1.37-.55-.15.06.48-.13 2.87-.71.47-.11.83-.13-.82.12 2.52-.46-1.61.32.79-.18 1.03-.15 2.49-.29 1.18-.08-1.83.15 3.35-.26.21-.02-.68.04.8-.04 1.1-.03.71-.01.39-.01 1.84.01-.04.01 1.95.06 1.29.07-.39-.02.43.03 2.46.21 1.7.2-.94-.1.41.04 1.4.18-.32-.03 1.45.21.76.13 1.86.36.09.05-.21-.05 1.7.35 2.17.63-.32-.12-.54-.13 1.17.35 1.15.36-.16-.06 1.7.54.24.16.3.1 1.78.76.86.37-.04.01.56.28.49.21.23.19.02.01 1.32.87.68.42-.26-.18 1.05.91-.24-.28.02.01.33.32.56.44.78 1.16.37.35.19.44.2.13.11.34-.09-.2-.03.33.32.46.03.23.18.45-.18.87" filter="url(#a)"/></svg>