<svg xmlns="http://www.w3.org/2000/svg" width="500" height="500" viewBox="-100 -100 200 200"><defs><clipPath id="c"><path d="M24.08-8.05 24-8.54l-.11-.48-.12-.47-.16-.45-.18-.45-.2-.43-.23-.43-.25-.4-.27-.4-.29-.39-.32-.37-.34-.36-.36-.35-.38-.34-.4-.32-.39-.4-.43-.37-.45-.37-.49-.35-.51-.33-.54-.32-.57-.3-.6-.28-.62-.26-.65-.25-.68-.23-.69-.21-.72-.19-.74-.17-.77-.15-.78-.14-.79-.11-.82-.1-.82-.08-.84-.06-.86-.04-.86-.02-.87-.01-.88.02-.88.03-.89.04-.89.07-.89.08-.89.09-.89.11-.89.13-.88.13-.87.16-.87.16-.86.18-.85.19-.84.19-.83.21-.82.22-.8.23-.78.23-.78.24-.75.25-.74.26-.72.26-.71.26-.68.27-.67.27-.64.28-.63.27-.61.28-.6.28-.58.29-.56.28-.54.29-.53.3-.51.29-.49.3-.48.3-.45.3-.44.3-.42.3-.41.3-.38.3 2.82 6.95.18.56.19.56.21.57.23.58.24.58.27.58.28.59.29.6.32.59.33.6.34.61.36.6.38.61.39.61.41.62.42.61.44.62.46.63.47.62.49.63.5.62.51.63.53.62.54.61.56.61.56.6.57.59.59.58.59.57.6.55.61.53.62.52.62.49.63.47.64.45.64.42.64.39.66.36.65.32.66.29.66.26.67.21.67.18.67.13.68.08.68.05.68-.01.68-.06.68-.1.69-.15.68-.21.69-.26.69-.31.7-.37.69-.42.69-.47.7-.53.69-.57.7-.63.69-.68.7-.73.69-.77.69-.81.69-.86.56-.57.56-.59.55-.61.54-.63.54-.65.52-.66.52-.68.51-.69.5-.7.48-.7.47-.72.45-.71.44-.72.43-.72.4-.7"/></clipPath><clipPath id="b"><path d="m-24.38-4 .07-.51.11-.49.14-.49.17-.48.21-.47.23-.46.27-.44.3-.44.33-.43.35-.41.39-.4.42-.4.44-.37.47-.37.49-.36.47-.43.5-.43.55-.41.59-.39.63-.37.66-.36.71-.34.74-.31.77-.3.8-.28.84-.26.86-.24.88-.21.91-.2.93-.17.94-.15.97-.13.97-.11.99-.09.99-.06 1-.05 1-.02h1.01l1 .02 1 .03 1 .06.98.07.98.1.97.11.95.13.94.14.92.17.91.17.88.19.87.21.84.22.82.23.8.24.77.25.75.26.73.27.69.28.68.28.64.3.62.29.6.31.57.3.54.31.52.31.5.32.47.31.45.32.43.32.4.33.39.32.36.33.34.33.32.34.29.33.28.33.25.34.24.33.21.34.19.33-4.66 3.88-.31.54-.32.55-.34.54-.36.55-.37.54-.38.54-.41.53-.41.54-.43.53-.44.53-.46.52-.46.53-.48.51-.49.52-.51.51-.52.51-.53.5-.54.51-.56.5-.57.49-.58.49-.59.48-.6.48-.61.46-.61.46-.62.44-.63.44-.63.41-.64.41-.64.39-.64.37-.65.36-.64.33-.65.32-.65.29-.65.27-.65.25-.65.22-.65.2-.65.17-.65.14-.64.11-.65.08-.64.05-.64.02-.64-.01-.64-.05-.64-.08-.64-.12-.63-.15-.64-.18-.63-.23-.63-.25-.63-.29-.63-.33-.63-.36-.63-.4-.63-.43-.63-.47-.63-.49-.63-.53-.62-.56-.63-.58-.62-.61-.5-.43-.5-.45-.49-.46-.49-.48-.48-.49-.47-.5-.45-.51-.45-.53-.44-.53-.43-.54-.41-.55-.4-.55-.39-.56-.37-.56-.35-.55"/></clipPath><filter id="a"><feTurbulence baseFrequency=".05" numOctaves="3" result="noise" type="noise"/><feDisplacementMap in="SourceGraphic" in2="noise" scale="2"/></filter></defs><rect width="100%" height="100%" x="-100" y="-100" fill="#BC8F8F"/><path fill="gold" stroke="#000" stroke-linejoin="round" stroke-width="1.667" d="m66.31 2.07.04.14-.16 2.06.02-2.06-.08 3.58-.16.64.02.55.08.48-.19 2.76-.45.75-.03 2.04v.21l-.32 1.13.06 1.37-.86 3.55.11-.6-.15.72-.56 2.61-.29 2.38.03-.5-.33 1.04-.74 2.89.01-.53.13.69-.31.51-1.47 4.72.25-1.55-.79 2.24-.43 2-.23.29-1.19 2.76.64-.8-1.22 1.76-.44 1.13.13.69-1.26 2.37-.05-.23-1.14 1.7-1.09 1.99.7-1.27-.47 1.12-1.29 2.11-1.44 2.41-.01-.24-.33 1.2-.63.41-1.43 2.33-.18-.14-.83 1.11.16.06-.42.76-1.7 2.02-.69.82-1.13.92-.89 1.31-1.41 1.19 1.65-1.52-3.29 3.28-.56.34.89-.46-2.17 2.03-.85 1.05-.1-.29-2.43 1.97 1.13-.86-1.73 1.48-.22-.02-.22.29-3.41 2.19 1.72-1.09-2.76 1.46.24-.07-2.99 1.94-.27.02-.91.59-1.26.87 1.64-.83-2.44.94-2.03.94.6.07-.58-.26-.64.6-2.63 1.2-.96.08-1.7.41-1.36.28-1.53.51-.93.16 1.16-.11-1.61.29.45-.03-2.28.53-1.24.29-.68-.12-.61.19-.96.24-1.64-.01-1.83.12-2.12.29.67-.27-2.93-.06 1.26-.04-1.18.39-2.01-.24.12-.14-1.91-.21h-1.63l-.24-.21-.83.09-1.58-.39-.05-.09-1.94-.46-.52.16.28-.01-2.85-.83.46.03-1.42-.13-2.22-.79.07.01-2.24-.59.46-.09h-.53l-2.48-1.35-.04-.12-2.38-1.25-1-.28.15.13-.5-.36-1.96-1.25.12-.16-3.38-1.67 1.68.86-.76-.46-1.72-.9-.79-.33-1.42-1.6-.61-.36-.4-.08-1.34-1.17.06.04-2.46-2.31-.27-.26-.87-.59-.23-.51-.59-.23-1.66-2.19-.31.18-1.41-1.48-.29-1.51-.59-.14-.87-1.09-.54-.43-.31-.67-1.05-.76-1.96-3.08-.17-.3-.79-1.68-.17.31-.75-1.72.03.99-1.33-2.77.22.64-1.05-1.85-.41-1.01-1.43-2.88-.14-.47-.1-.06-1.33-1.92-.62-1.7v-.14l-.84-2.27-.34-.48-.11-.15-.59-1.56-.72-1.86.41.73-1.17-3.86.59 1.83-.85-2.73-.95-2.5.39.42-.43-2-.01.03-.86-3.43.27.92-.55-2.52-.4-2.31-.24-1.75-.01 1.1-.01.33-.22-2.85-.29-1.8-.22-2.09-.22-.29-.23-2.23.25-.84-.24-1.64-.16-2.44.22 1.08-.1-3.57-.11-.11-.05-2.26.01.64.19-2.39.15-1.91-.03-.55.07-.42-.06-3.12.46.05.11-1.54-.04-.9.19-1.53.08-.21.35-3 .52-2.14-.23.44.15-.41.89-4.69-.61 2.63.76-2.35.11-1.14.62-1.84.32-1.97.29-.5.46-1.38.71-2.19.3-.8-.02.45.65-2.66.93-1.85-.16.94.5-1.82.69-1.96.69-1.57-.21 1.15 1.51-3.23.49-1.2.46-.58.35-.98-.83 1.1 2.54-4.01.89-1.38.1-.25.98-1.61.25-.05 1.12-1.85.27-.29.98-1.25.07-.66-.01.4 1.51-2.01.49-.67 1.05-.79.05-.05 2.37-2.47-.44-.09.72-.66 1.73-1.31.55-.4.52-.71 1.29-1.09.63-.71 1.92-2-.94 1.05 1.46-1.61.98-.26.09-.58 1.21-.78.98-.48 2.34-1.36-1.36.36 2.28-.8.81-.61.26-.62 1.3-.45 1.71-1.15.71-.13.61-.42-.28.39 2.07-1.13.52-.08.27-.33 2.1-.51 1.49-.52-.37-.28 2.06-.1 1.83-.73.79-.19.12.03 1.34-.47 2.91-.67-1.09.14 2.64-.17-1.16.19 2.09-.47 1.37-.04-.9-.08 3.93-.04-.56.03 1.81-.22.09.26 2.15-.09.24-.11 1.12.02-.52-.04 1.87.27 1.15.06 1.79.11 1.15.34 1.2.22.26-.04 1.81.19.64.19 1.93.43-.81-.21 2.52.83-.93-.3 1.74.6 1.97.6.17.3 1.64.77.21.03 1.19.58h.06l3.96 1.76-.03-.06 1.28.75-.04-.24.57.57 2.21 1.16-.23.31.48.14.61.12 1.73 1.21.38.78 1.63.82 1.11.84.69.46h-.13l1.4 1.28-.03.05 2.75 2.24-.5-.08.8.64 1.94 1.64.68.84 1.09 1.13.67 1.17 1 .61.41.99-.57-.72 2.03 2.81.93.6-.17-.11.93 1.37 1.03.83.12.25-.01.64 1.38 2.12 1.17 1.45.4 1.02-.65-1.05 1.72 3.4.46.5.94 1.35-.01.25.83 2.43.5.8.39.71.68 1.39.07.53 1.33 3.15.18.38.48 2.06.26-.32.09.15.45 2.1.67 1.57.01.31.12.99 1.21 4.16-.18.49.42 1.13.34.36.18.86.07 1.79-.06-.34.66 4.11.09-.22.49 1.81-.25.73.33-.08-.05 2.5.35 1.85-.08 1.54.25.83-.04 1.36.23 1.8.08-.83-.28 2.15.23 3.66.04.14" filter="url(#a)"/><path fill="#fff" d="m-24.38-4 .07-.51.11-.49.14-.49.17-.48.21-.47.23-.46.27-.44.3-.44.33-.43.35-.41.39-.4.42-.4.44-.37.47-.37.49-.36.47-.43.5-.43.55-.41.59-.39.63-.37.66-.36.71-.34.74-.31.77-.3.8-.28.84-.26.86-.24.88-.21.91-.2.93-.17.94-.15.97-.13.97-.11.99-.09.99-.06 1-.05 1-.02h1.01l1 .02 1 .03 1 .06.98.07.98.1.97.11.95.13.94.14.92.17.91.17.88.19.87.21.84.22.82.23.8.24.77.25.75.26.73.27.69.28.68.28.64.3.62.29.6.31.57.3.54.31.52.31.5.32.47.31.45.32.43.32.4.33.39.32.36.33.34.33.32.34.29.33.28.33.25.34.24.33.21.34.19.33-4.66 3.88-.31.54-.32.55-.34.54-.36.55-.37.54-.38.54-.41.53-.41.54-.43.53-.44.53-.46.52-.46.53-.48.51-.49.52-.51.51-.52.51-.53.5-.54.51-.56.5-.57.49-.58.49-.59.48-.6.48-.61.46-.61.46-.62.44-.63.44-.63.41-.64.41-.64.39-.64.37-.65.36-.64.33-.65.32-.65.29-.65.27-.65.25-.65.22-.65.2-.65.17-.65.14-.64.11-.65.08-.64.05-.64.02-.64-.01-.64-.05-.64-.08-.64-.12-.63-.15-.64-.18-.63-.23-.63-.25-.63-.29-.63-.33-.63-.36-.63-.4-.63-.43-.63-.47-.63-.49-.63-.53-.62-.56-.63-.58-.62-.61-.5-.43-.5-.45-.49-.46-.49-.48-.48-.49-.47-.5-.45-.51-.45-.53-.44-.53-.43-.54-.41-.55-.4-.55-.39-.56-.37-.56-.35-.55" filter="url(#a)" transform="translate(30.38 -20.32)"/><path fill="#fff" d="M24.08-8.05 24-8.54l-.11-.48-.12-.47-.16-.45-.18-.45-.2-.43-.23-.43-.25-.4-.27-.4-.29-.39-.32-.37-.34-.36-.36-.35-.38-.34-.4-.32-.39-.4-.43-.37-.45-.37-.49-.35-.51-.33-.54-.32-.57-.3-.6-.28-.62-.26-.65-.25-.68-.23-.69-.21-.72-.19-.74-.17-.77-.15-.78-.14-.79-.11-.82-.1-.82-.08-.84-.06-.86-.04-.86-.02-.87-.01-.88.02-.88.03-.89.04-.89.07-.89.08-.89.09-.89.11-.89.13-.88.13-.87.16-.87.16-.86.18-.85.19-.84.19-.83.21-.82.22-.8.23-.78.23-.78.24-.75.25-.74.26-.72.26-.71.26-.68.27-.67.27-.64.28-.63.27-.61.28-.6.28-.58.29-.56.28-.54.29-.53.3-.51.29-.49.3-.48.3-.45.3-.44.3-.42.3-.41.3-.38.3 2.82 6.95.18.56.19.56.21.57.23.58.24.58.27.58.28.59.29.6.32.59.33.6.34.61.36.6.38.61.39.61.41.62.42.61.44.62.46.63.47.62.49.63.5.62.51.63.53.62.54.61.56.61.56.6.57.59.59.58.59.57.6.55.61.53.62.52.62.49.63.47.64.45.64.42.64.39.66.36.65.32.66.29.66.26.67.21.67.18.67.13.68.08.68.05.68-.01.68-.06.68-.1.69-.15.68-.21.69-.26.69-.31.7-.37.69-.42.69-.47.7-.53.69-.57.7-.63.69-.68.7-.73.69-.77.69-.81.69-.86.56-.57.56-.59.55-.61.54-.63.54-.65.52-.66.52-.68.51-.69.5-.7.48-.7.47-.72.45-.71.44-.72.43-.72.4-.7" filter="url(#a)" transform="translate(-42.06 -26.74)"/><g fill="none" stroke="#000" transform="translate(30.38 -20.32)"><path stroke-linejoin="round" stroke-width="1.667" d="m-23.33 1.47-.25-.57-.22-.57-.19-.57-.15-.55-.13-.56-.08-.54-.06-.54-.02-.53v-.52l.05-.52.07-.51.11-.49.14-.49.17-.48.21-.47.23-.46.27-.44.3-.44.33-.43.35-.41.39-.4.42-.4.44-.37.47-.37.49-.36.47-.43.5-.43.55-.41.59-.39.63-.37.66-.36.71-.34.74-.31.77-.3.8-.28.84-.26.86-.24.88-.21.91-.2.93-.17.94-.15.97-.13.97-.11.99-.09.99-.06 1-.05 1-.02h1.01l1 .02 1 .03 1 .06.98.07.98.1.97.11.95.13.94.14.92.17.91.17.88.19.87.21.84.22.82.23.8.24.77.25.75.26.73.27.69.28.68.28.64.3.62.29.6.31.57.3.54.31.52.31.5.32.47.31.45.32.43.32.4.33.39.32.36.33.34.33.32.34.29.33.28.33.25.34.24.33.21.34.19.33.18.34.15.33.14.34.12.33.1.33.08.33.07.33.05.32.03.33.02.32" filter="url(#a)"/><path stroke-linejoin="round" stroke-width="2.222" d="m-25.41-2.64.09.45.12.47.15.49.19.51.21.52.24.53.27.55.29.54.31.56.33.56.35.55.37.56.39.56.4.55.41.55.43.54.44.53.45.53.45.51.47.5.48.49.49.48.49.46.5.45.5.43.62.61.63.58.62.56.63.53.63.49.63.47.63.43.63.4.63.36.63.33.63.29.63.25.63.23.64.18.63.15.64.12.64.08.64.05.64.01.64-.02.64-.05.65-.08.64-.11.65-.14.65-.17.65-.2.65-.22.65-.25.65-.27.65-.29.65-.32.64-.33.65-.36.64-.37.64-.39.64-.41.63-.41.63-.44.62-.44.61-.46.61-.46.6-.48.59-.48.58-.49.57-.49.56-.5.54-.51.53-.5.52-.51.51-.51.49-.52.48-.51.46-.53.46-.52.44-.53.43-.53.41-.54.41-.53.38-.54.37-.54.36-.55.34-.54.32-.55.31-.54.29-.55.28-.55.26-.55.24-.55.23-.55.2-.55.2-.55.18-.55.16-.55.14-.55" filter="url(#a)"/><circle cx="-2.133" cy="5.935" r="3.608" clip-path="url(#b)" filter="url(#a)"/><circle cx="-1.653" cy="7.62" r="4.702" clip-path="url(#b)" filter="url(#a)"/><circle cx="-4.098" cy="7.535" r="4.88" clip-path="url(#b)" filter="url(#a)"/><circle cx="-4.063" cy="8.575" r="3.316" clip-path="url(#b)" filter="url(#a)"/><circle cx="-4.318" cy="6.48" r="4.512" clip-path="url(#b)" filter="url(#a)"/><circle cx="-1.288" cy="4.475" r="4.716" clip-path="url(#b)" filter="url(#a)"/><circle cx="-.943" cy="6.155" r="3.922" clip-path="url(#b)" filter="url(#a)"/><circle cx="-2.768" cy="5.11" r="3.872" clip-path="url(#b)" filter="url(#a)"/><circle cx="-3.643" cy="4.655" r="4.782" clip-path="url(#b)" filter="url(#a)"/><circle cx="-1.718" cy="5.46" r="3.698" clip-path="url(#b)" filter="url(#a)"/></g><g fill="none" stroke="#000" transform="translate(-42.06 -26.74)"><path stroke-linejoin="round" stroke-width="2.222" d="m23.45-2.53.18-.6.15-.59.13-.58.11-.56.07-.56.05-.55.02-.53v-.53l-.03-.51-.05-.51-.08-.49-.11-.48-.12-.47-.16-.45-.18-.45-.2-.43-.23-.43-.25-.4-.27-.4-.29-.39-.32-.37-.34-.36-.36-.35-.38-.34-.4-.32-.39-.4-.43-.37-.45-.37-.49-.35-.51-.33-.54-.32-.57-.3-.6-.28-.62-.26-.65-.25-.68-.23-.69-.21-.72-.19-.74-.17-.77-.15-.78-.14-.79-.11-.82-.1-.82-.08-.84-.06-.86-.04-.86-.02-.87-.01-.88.02-.88.03-.89.04-.89.07-.89.08-.89.09-.89.11-.89.13-.88.13-.87.16-.87.16-.86.18-.85.19-.84.19-.83.21-.82.22-.8.23-.78.23-.78.24-.75.25-.74.26-.72.26-.71.26-.68.27-.67.27-.64.28-.63.27-.61.28-.6.28-.58.29-.56.28-.54.29-.53.3-.51.29-.49.3-.48.3-.45.3-.44.3-.42.3-.41.3-.38.3-.37.3-.35.31-.33.3-.32.3-.3.3-.28.3-.27.3-.25.3-.23.3-.22.3" filter="url(#a)"/><path stroke-linejoin="round" stroke-width="2.222" d="m24.1-3.95-.12.46-.17.5-.2.54-.23.57-.25.61-.29.63-.32.65-.34.68-.36.68-.38.71-.4.7-.43.72-.44.72-.45.71-.47.72-.48.7-.5.7-.51.69-.52.68-.52.66-.54.65-.54.63-.55.61-.56.59-.56.57-.69.86-.69.81-.69.77-.7.73-.69.68-.7.63-.69.57-.7.53-.69.47-.69.42-.7.37-.69.31-.69.26-.68.21-.69.15-.68.1-.68.06-.68.01-.68-.05-.68-.08-.67-.13-.67-.18-.67-.21-.66-.26-.66-.29-.65-.32-.66-.36-.64-.39-.64-.42-.64-.45-.63-.47-.62-.49-.62-.52-.61-.53-.6-.55-.59-.57-.59-.58-.57-.59-.56-.6-.56-.61-.54-.61-.53-.62-.51-.63-.5-.62-.49-.63-.47-.62-.46-.63-.44-.62-.42-.61-.41-.62-.39-.61-.38-.61-.36-.6-.34-.61-.33-.6-.32-.59-.29-.6-.28-.59-.27-.58-.24-.58-.23-.58-.21-.57-.19-.56-.18-.56-.15-.56-.14-.55-.12-.54-.1-.54-.08-.53-.06-.53-.05-.52-.03-.52-.01-.51v-.5" filter="url(#a)"/><circle cx="17.18" cy="-11.227" r="4.76" clip-path="url(#c)" filter="url(#a)"/><circle cx="15.985" cy="-10.327" r="4.692" clip-path="url(#c)" filter="url(#a)"/><circle cx="16.075" cy="-11.082" r="4.56" clip-path="url(#c)" filter="url(#a)"/><circle cx="14.64" cy="-11.267" r="3.286" clip-path="url(#c)" filter="url(#a)"/><circle cx="14.55" cy="-9.407" r="3.054" clip-path="url(#c)" filter="url(#a)"/><circle cx="17.285" cy="-13.357" r="3.998" clip-path="url(#c)" filter="url(#a)"/><circle cx="15.785" cy="-13.212" r="4.144" clip-path="url(#c)" filter="url(#a)"/><circle cx="18.09" cy="-11.872" r="3.198" clip-path="url(#c)" filter="url(#a)"/><circle cx="16.97" cy="-9.832" r="4.024" clip-path="url(#c)" filter="url(#a)"/><circle cx="14.135" cy="-10.042" r="4.512" clip-path="url(#c)" filter="url(#a)"/></g><g fill="none" stroke="#2C222B" stroke-linejoin="round" stroke-width="2"><path d="m-31.17-73.26 1.7-.71 1.19-.67 1.09-.65 1.11-.63 1.08-.57 1-.49.92-.43.84-.37.77-.33.73-.3.65-.27.56-.21.44-.15.3-.08.13.01-.07.08-.31.19-.58.3-.89.43-1.23.61-1.59.78-1.97.97-2.46 1.14m25.44-7.86 1.44.01 1.42.27 1.58.42 1.72.57 1.87.71 2.1.86 2.34.98 2.57 1.1 2.71 1.19 2.8 1.27 2.82 1.33 2.8 1.36 2.76 1.38 2.7 1.38 2.65 1.37 2.58 1.37 2.5 1.34 2.35 1.25 2.14 1.06m-5.74-6.27.54.44.67.67.9.92 1.06 1.1 1.16 1.19 1.19 1.24 1.19 1.26 1.17 1.25 1.12 1.22 1.02 1.13.89 1 .74.85.61.68.47.52.35.38.23.22.08.05-.12-.16-.36-.42-.66-.76-.92-1.09" filter="url(#a)"/><path d="m49.71-54.6.66.62.34.59.31.71.26.72.14.6-.06.41-.27.23-.48.05-.68-.13-.93-.34-1.17-.57-1.46-.82-1.75-1.1L42.57-55l-2.34-1.65-2.65-1.93-2.96-2.23-3.33-2.58-3.73-2.96-4.17-3.37-4.58-3.73-4.93-4.03m30.6 16.16.63.89.43.58.21.4.06.29-.08.17-.31-.04-.63-.29-.99-.6-1.39-.88-1.78-1.16-2.17-1.44-2.57-1.76-3.04-2.14-3.61-2.62-4.22-3.13-4.64-3.51M9.99-81.69l1.46.22 1.24.27 1.13.31 1.05.32.98.33.94.33.88.32.77.29.57.23.29.12-.05-.01-.4-.14-.72-.26-1.02-.39-1.38-.53" filter="url(#a)"/><path d="M-1.76-82.5h.21l.94.04 1.21.08 1.31.11 1.32.13 1.31.16 1.34.17 1.38.2 1.4.2 1.37.2 1.24.18 1.07.14.83.09.6.04h.36l.12-.04-.13-.07-.43-.13-.8-.21m-24.44-.15 1.68-.38.78-.1.55-.01.45.04.36.09.26.16.11.25-.08.34-.33.46-.6.56-.91.68-1.25.8-1.6.95-1.98 1.11-2.34 1.29-2.7 1.47-3.07 1.64-3.48 1.81-3.93 1.98-4.42 2.17-5 2.49" filter="url(#a)"/><path d="m-24.81-76.89.59-.16.47-.15.5-.16.54-.16.53-.11.47-.04.38.06.25.19.08.32-.12.48-.35.63-.59.81-.85.97-1.12 1.16-1.41 1.35-1.72 1.56-2.05 1.79-2.4 2.03-2.75 2.28-3.11 2.54-3.47 2.84-3.93 3.27-4.67 4.05m100.4-2.18.35.96.55 1.08.34.78.05.45-.21.18-.44-.03-.69-.27-1.01-.57-1.37-.91-1.78-1.3-2.22-1.72-2.62-2.14-3.04-2.59-3.46-3.03-3.95-3.53-4.56-4.1-5.35-4.78M2.57-82.65l1.72.27 1.83.39 1.96.51 2.02.61 2.06.69 2.11.74 2.14.77 2.15.81 2.11.83 2.05.84 1.96.84 1.83.8 1.63.7 1.38.53 1.02.27" filter="url(#a)"/><path d="m45.15-60.15.64.56.25.46.13.44.02.38-.18.22-.47.02-.78-.18-1.13-.38-1.46-.54-1.83-.72-2.22-.92-2.62-1.17-3.04-1.44-3.45-1.74-3.86-2.04-4.29-2.34-4.82-2.68-5.41-3.05-6.05-3.44" filter="url(#a)"/><path d="m39.97-65.57.97.85.9.95.6.85.25.68-.09.5-.42.33-.72.17-1.02.05-1.29-.08-1.6-.22-1.93-.37-2.3-.51-2.69-.66-3.09-.78-3.51-.9-3.94-1.03-4.4-1.19-4.89-1.38-5.39-1.58-5.9-1.78-6.44-1.96-7.01-2.17m26.38-5.51 1.13.26.66.2.53.21.45.21.35.22.16.21-.1.18-.46.11-.85.03-1.26-.05-1.69-.12-2.19-.21-2.83-.34-3.55-.49-4.17-.66" filter="url(#a)"/><path d="m-28.08-74.67.74-.57 1.35-.56 1.58-.49 1.65-.37 1.75-.29 1.89-.25 2.07-.24 2.25-.24 2.41-.25 2.52-.24 2.58-.23 2.58-.23 2.54-.22 2.47-.21 2.37-.21 2.29-.2 2.18-.19 2.02-.2 1.79-.21 1.53-.2 1.44-.13m41.41 34.96.42.98-.21.81-.7.67-1.21.45-1.73.24-2.29.04-2.86-.15-3.47-.38-4.12-.66-4.79-.98-5.47-1.32-6.15-1.6-6.81-1.86-7.48-2.07-8.2-2.28-8.96-2.46-9.77-2.64-10.59-2.96" filter="url(#a)"/><path d="m16.89-79.96 1.41.51 1.02.47.93.44.93.43.95.43.96.43.88.41.72.33.49.25.23.16v.07l-.24-.01-.47-.1-.68-.19-.9-.28-1.16-.36-1.45-.46-1.8-.59-2.18-.73-2.6-.92-3.03-1.14" filter="url(#a)"/><path d="m-21.18-78.26.92-.35 1.57-.35 1.79-.3 1.96-.23 2.16-.18 2.3-.14 2.39-.1 2.46-.07 2.49-.04 2.45-.03h2.38l2.26.01 2.16.02L8.2-80l2 .01 1.85-.03 1.59-.08 1.09-.16m-13-2.26.43-.06h.59l.75.06.91.09.99.12.94.12.79.13.58.11.35.1.07.09-.21.07-.54.07-.89.05-1.24.05-1.6.04-1.91.03H-.5l-2.57-.06-2.9-.16m71.26 68.96 2.21 2.56.01 2.57-.12 2.56.24 2.61.59 2.58.75 2.49.67 2.39.45 2.33.22 2.33.01 2.36-.15 2.4-.23 2.4-.23 2.39-.13 2.36.02 2.33.18 2.32.29 2.35.28 2.37.13 2.41-.15 2.4-.46 2.35-.69 2.28-.76 2.2-.66 2.16-.56 2.14-.63 2.14-.95 2.1-1.38 2.01-1.52 1.8-1.01 1.45.13.98" filter="url(#a)"/><path d="m65.29-12.71 2.37 2.55 1.61 2.56.17 2.54-.05 2.59.19 2.58.3 2.49.21 2.37.07 2.32.05 2.31.18 2.35.4 2.38.64 2.41.83 2.39.95 2.34.96 2.31.84 2.29.6 2.31.22 2.38-.23 2.43-.6 2.45-.65 2.38-.31 2.26.27 2.14.6 2.1.2 2.11-.74 2.21-.91 3.08" filter="url(#a)"/><path d="m65.29-12.71.47 2.56.72 2.57.91 2.56.9 2.61L69.43.17l1.74 2.49 2.45 2.39 2.88 2.33 2.84 2.33 2.36 2.36 1.75 2.4 1.3 2.4 1.13 2.39 1.18 2.36 1.27 2.33 1.2 2.32.95 2.35.6 2.37.3 2.41.09 2.4-.03 2.35-.17 2.28-.4 2.2-.67 2.16-.91 2.14-.99 2.14-.8 2.1-.36 2.01.29 1.8.94 1.45.63.98M-.42-82.43l1.96-.1 2.09.08 2.35.2 2.36.27 2.3.33 2.29.39 2.36.49 2.49.6 2.63.72 2.78.8 2.91.88 3 .9 3.05.92 3.08.92 3.15.95 3.25 1 3.3 1.07 3.22 1.14 3.03 1.22 2.88 1.32 3.09 1.45 3.92 1.68 5.16 1.91 4.85 1.97" filter="url(#a)"/><path d="m-.42-82.43 2.03-.1 2.14.09 2.54.2 2.71.28 2.59.34 2.33.42 2.13.51 2.13.63 2.33.73 2.71.82 3.23.87 3.81.92 4.32.93 4.66.97 4.66 1 4.32 1.06 3.72 1.13 3.03 1.22 2.47 1.31 2.17 1.42 2.19 1.51 2.49 1.59 3.06 1.66 3.81 1.69 4.66 1.7 5.49 1.71 6.13 1.74 6.41 1.79 6.19 1.89 5.43 2.02 4.27 2.14 3.49 2.17 5.73 1.98" filter="url(#a)"/><path d="m-.42-82.43 1.96-.1 1.94.09 2.1.2 2.12.28 2.06.34 2.02.42 2.03.51 2.09.63 2.13.73 2.16.82 2.13.87 2.08.92 2 .93 1.94.97 1.9 1 1.9 1.06 1.9 1.13 1.93 1.22 1.97 1.31 2.02 1.42 2.08 1.51 2.11 1.59 2.09 1.66 2 1.69 1.88 1.7 1.76 1.71 1.69 1.74 1.69 1.79L57-52.4l1.81 2.02 1.82 2.14 1.84 2.17 2.19 1.98" filter="url(#a)"/><path d="m-.42-82.43 2.08-.1 2.13.08 2.22.21 2.2.28 2.19.33 2.26.41 2.4.51 2.63.62 2.91.73 3.2.81 3.45.88 3.58.91 3.54.93 3.36.95 3.16.99 3.08 1.05 3.27 1.11 3.75 1.2 4.4 1.29 5 1.4 5.41 1.51 5.52 1.6 5.44 1.67 5.3 1.7 5.25 1.69 5.22 1.68 5.05 1.68 4.6 1.69 4.18 1.72 5.7 2.14" filter="url(#a)"/><path d="m-1.76-82.5 1.49-.08 1.7.03 1.81.09 1.93.18 2.07.25 2.16.32 2.24.38 2.34.45 2.48.51 2.63.59 2.74.66 2.79.74 2.76.82 2.71.9 2.67.96 2.73 1.03 2.94 1.07 3.26 1.14 3.67 1.2 4 1.28 4.09 1.35 3.86 1.43 3.45 1.49 3.28 1.61 3.75 1.82 5.47 2.13" filter="url(#a)"/><path d="m-1.76-82.5 1.47-.08 1.71.03 1.83.1 1.96.17 2.09.25 2.19.32 2.24.39 2.31.45 2.35.51 2.39.59 2.38.67 2.36.74 2.35.83 2.39.9 2.47.97 2.6 1.02 2.72 1.09 2.84 1.14 2.91 1.21 2.94 1.28 2.94 1.36 2.93 1.44 2.87 1.52 2.74 1.63 2.64 1.77 2.79 1.89 3.33 1.76" filter="url(#a)"/><path d="m-5.69-82.46 2.76-.01 2.18-.02 1.93.02 1.86.09 1.88.18 1.89.25 1.87.31 1.86.39 1.86.49 1.89.59 1.91.7 1.91.79 1.85.86 1.72.9 1.58.91 1.42.92 1.31.95 1.21.99 1.13 1.06 1.04 1.14.94 1.2.96 1.27 1.12 1.42 1.35 1.7 1.41 2.07" filter="url(#a)"/><path d="m-5.69-82.46 2.75-.01 2.24-.02 2.05.02 2.05.11 2.08.19 2.1.26 2.07.34 2.04.42 2.05.52 2.06.62 2.08.72 2.09.8 2.06.86 2.01.91 1.95.94 1.89.97 1.84 1.02 1.83 1.07 1.83 1.14 1.82 1.23 1.84 1.32 1.83 1.42 1.83 1.51 1.82 1.58 1.79 1.65 1.75 1.69 1.69 1.71 1.6 1.74 1.51 1.77 1.43 1.82 1.37 1.91 1.35 2.01 1.36 2.11 1.34 2.16 1.27 2.16 1.16 2.08 1.12 1.81" filter="url(#a)"/><path d="m-4.79-82.38 2.32-.11 1.94-.05 1.87.02 2.09.1 2.52.17 3.05.24 3.42.32 3.47.38 3.2.45 2.76.52 2.37.59 2.26.66 2.52.75 3.11.83 3.83.9 4.47.97 4.77 1.03 4.67 1.08 4.23 1.15 3.75 1.22 3.54 1.29 3.79 1.37 4.52 1.45L75-65.51l5.75 1.64 5.45 1.75 4.59 1.86 4.2 1.89 6.72 1.91" filter="url(#a)"/><path d="m-6.16-82.34 1.25-.08 2.02-.04 2.18-.02 2.19.03 2.25.1 2.33.18 2.46.25 2.57.32 2.61.4 2.62.49 2.6.6 2.65.7 2.84.79 3.14.85 3.47.9 3.7.92 3.74.94 3.54.97 3.19 1.02 2.85 1.09 2.72 1.16 2.91 1.25 3.48 1.37 4.35 1.49 5.22 1.65 5.68 1.75 5.31 1.73 4.01 1.46 1.86.8" filter="url(#a)"/><path d="m-8.25-81.87 2.97-.36 2.45-.19 2.21-.07 2.17.01 2.26.09 2.44.17 2.63.25 2.73.32 2.74.39 2.64.46 2.56.53 2.51.6 2.57.68 2.7.76 2.9.84 3.12.91 3.33.98 3.53 1.05 3.69 1.11 3.82 1.18 3.9 1.25 3.99 1.32 4.06 1.4 4.13 1.49 4.16 1.55 4.1 1.63 3.95 1.67 3.78 1.69 3.67 1.68 3.75 1.64 4.03 1.62 4.49 1.62 5.09 1.69 5.86 1.8 7.01 1.95 9.87 2.72" filter="url(#a)"/><path d="m-8.25-81.87 3.04-.36 2.44-.19 2.06-.08 1.9.01 1.93.08 2.04.16 2.16.24 2.26.3 2.28.38 2.28.43 2.24.51 2.23.57 2.24.65 2.26.73 2.33.81 2.42.88 2.5.96 2.58 1.01 2.64 1.07 2.69 1.12 2.79 1.19 2.99 1.26 3.19 1.35 3.22 1.42 2.86 1.41 2.02 1.03" filter="url(#a)"/><path d="m-8.25-81.87 3.02-.36 2.44-.19 2.06-.08h1.88l1.89.08 1.98.16 2.07.22 2.14.3 2.13.36 2.09.42 2.04.49 2.03.55 2.04.63 2.11.71 2.19.79 2.3.87 2.35.95 2.38 1 2.33 1.03 2.3 1.05 2.38 1.15 2.64 1.38m25 56.92.29 1.74.49 2.61.39 2.66.17 2.52-.01 2.38-.08 2.31-.05 2.29.01 2.32.03 2.38v2.44l-.11 2.5-.24 2.54-.38 2.57-.51 2.58-.59 2.55-.65 2.52-.69 2.46-.71 2.41-.75 2.35-.78 2.3-.84 2.25-.9 2.2-.96 2.16-1.04 2.12-1.11 2.06-1.17 2.03-1.22 1.99-1.26 1.96-1.29 1.95-1.33 1.93-1.38 1.93-1.46 1.93-1.51 1.9-1.49 1.8-1.37 1.62-1.31 1.49-1.99 2.08" filter="url(#a)"/><path d="m-15.63-80 1.62-.73 1.91-.51 2.06-.38 2.2-.29 2.27-.22 2.26-.16 2.19-.08h2.15l2.17.07 2.24.15 2.37.22 2.56.3 2.77.37 3 .44 3.24.51 3.48.59 3.74.66 3.98.74 4.2.81 4.35.9 4.42.96 4.36 1.03 4.21 1.09 3.99 1.15 3.72 1.23 3.45 1.3 3.18 1.37 3.01 1.46 3.08 1.55 3.59 1.65 4.54 1.73 5.6 1.8 6.03 1.77 5.09 1.55 3.38 1" filter="url(#a)"/><path d="m-21.18-78.26-1.92-.79 1.69-.72 2.32-.64 2.61-.55 2.8-.45 2.77-.36 2.62-.27 2.46-.18 2.41-.11 2.44-.05 2.55.01 2.68.07 2.82.14 2.94.2 3.06.27 3.2.34 3.42.43 3.74.53 4.14.65 4.51.76 4.69.87 4.58.93 4.2.94 3.63.89 3.05.84 3.54 1.08" filter="url(#a)"/><path d="m-21.18-78.26 1.85-.79 1.6-.73 1.86-.63 2.11-.55 2.18-.46 2.13-.35 2.08-.26 2.07-.18 2.15-.11 2.29-.04 2.47.02 2.65.08 2.78.15 2.87.22 2.91.29 2.95.38 3.01.46 3.13.56 3.26.67 3.37.75 3.42.84 3.44.88 3.44.91 3.47.92 3.56.94 3.71.98 3.79 1.05 3.74 1.15 3.57 1.18 3.6 1.1 4.17 1.1" filter="url(#a)"/><path d="m-21.18-78.26-1.88-.8 2.78-.72 3.19-.64 2.8-.55 2.46-.45 2.27-.35 2.16-.26 2.15-.18 2.19-.1 2.26-.04 2.37.02 2.5.09 2.63.16 2.8.23 2.97.3 3.16.38 3.32.48 3.41.57 3.38.67 3.24.76 3.02.83 2.78.88 2.61.91 2.58.94 2.71.96 3.04 1.01 3.54 1.07 4.11 1.15 4.64 1.23 5.04 1.32 5.32 1.47 5.57 1.69 6.05 1.92 6.99 1.99" filter="url(#a)"/><path d="m-23.77-77.05 2.27-1.04 1.95-.87 1.87-.75 1.92-.65 1.99-.55 2.04-.46 2.07-.36 2.12-.27 2.21-.18 2.37-.11 2.58-.05 2.81.02 3.05.09 3.24.15 3.35.22 3.42.3 3.42.38 3.42.47 3.39.57 3.37.67 3.36.75 3.39.83 3.49.88 3.67.91 3.88.93 4.11.96 4.26 1 4.39 1.06 4.5 1.14 4.68 1.21 5 1.29 5.45 1.42 5.94 1.72 6.73 2.08" filter="url(#a)"/><path d="m-23.49-77.44 1.1-.65 1.86-.64 2.02-.64 1.96-.62 1.93-.56 1.95-.48 2.05-.41 2.19-.32 2.33-.25 2.49-.18 2.65-.1 2.8-.03 2.96.06 3.1.12 3.23.21 3.35.27 3.46.35 3.58.41 3.67.49 3.73.56 3.72.63 3.66.72 3.56.79 3.52.88 3.56.94 3.74 1.01 4.05 1.06 4.44 1.12 4.89 1.18 5.38 1.27 6.01 1.37 7.22 1.51 9.71 1.88" filter="url(#a)"/><path d="m-26.52-75.74 1.23-.92 1.56-.73 1.99-.76 2.15-.76 2.22-.71 2.21-.64 2.18-.56 2.1-.46 2.03-.37 1.96-.28 1.93-.2 1.95-.12 1.99-.05 2.04.02 2.1.08 2.15.15 2.19.22 2.23.3 2.27.38 2.32.47 2.38.57 2.42.66 2.46.75 2.45.83 2.41.87 2.33.91 2.23.94 2.13.97 2.06 1.01 2.04 1.07 2.04 1.15 2.08 1.22 2.16 1.33 2.31 1.47 2.58 1.69 2.91 1.92 2.86 2" filter="url(#a)"/><path d="m-27.82-75.29 1.73-1.2 1.63-.84 1.18-.7 1.15-.66 1.49-.63 1.85-.61 2.08-.55 2.19-.48 2.3-.41 2.42-.34 2.55-.25 2.63-.19 2.67-.1 2.65-.03 2.64.04 2.64.12 2.68.2 2.73.27 2.81.34 2.88.42 2.93.48 2.96.56 3.03.63 3.16.71 3.37.79 3.65.88 3.94.94 4.12 1.01 4.18 1.06 4.14 1.12 4.13 1.18 4.15 1.27 3.97 1.37 3.43 1.52 3.44 1.88" filter="url(#a)"/><path d="m-28.08-74.67 1.79-1.01 1.64-.86 1.67-.79 1.81-.76 1.97-.75 2.09-.71 2.16-.65 2.15-.57 2.07-.48 1.98-.38 1.87-.3 1.81-.21 1.79-.14 1.78-.07 1.81-.01 1.82.05 1.83.12 1.83.18 1.83.25 1.81.31 1.8.39 1.8.49 1.82.62 1.82.76 1.79.9 1.83 1.02 2.37 1.35" filter="url(#a)"/><path d="m-28.89-74.06-2.81-1.22 1.9-1.07 3.05-.86 2.84-.75 2.39-.68 2.05-.64 1.86-.6 1.81-.55 1.9-.5 2.07-.41 2.24-.35 2.4-.27 2.49-.19 2.52-.12 2.53-.05 2.55.03 2.61.1 2.69.18 2.74.26 2.77.32 2.73.39 2.69.46 2.68.52 2.77.6 2.96.68 3.26.76 3.62.88 4 .97 4.39 1.09 5.27 1.34" filter="url(#a)"/><path d="m-29.81-73.62 1.26-.71 1.85-.98 2.15-.97 2.19-.85 2.11-.77 2.03-.69 1.95-.65 1.89-.61 1.85-.55 1.84-.5 1.84-.42 1.84-.35 1.83-.28 1.77-.2 1.66-.13 1.53-.05 1.38.02 1.27.09 1.2.17 1.15.25 1.14.32 1.11.38 1.04.45.92.51.74.57.52.66.21.75v.9l.82 1.28" filter="url(#a)"/><path d="m-29.81-73.62.92-.71 1.51-.99 1.68-.97 1.66-.86 1.65-.76 1.71-.7 1.79-.65 1.85-.6 1.9-.55 1.97-.49 2.07-.42 2.17-.34 2.29-.27 2.39-.19 2.45-.12 2.5-.04 2.55.03 2.61.11 2.7.19 2.78.26 2.87.33 2.92.4 2.94.47 2.97.54 3.02.62 3.11.69 3.26.79 3.43.87 3.57.94 3.69 1.01 3.83 1.04 4.02 1.07 4.28 1.16 4.65 1.4" filter="url(#a)"/><path d="m-33.13-71.78.54-1.37 1.32-1.08 2.15-1.02 2.3-.96 2.1-.86 1.88-.77 1.75-.71 1.75-.65 1.81-.61 1.92-.56 2.04-.5 2.14-.43 2.23-.35 2.32-.29 2.38-.2 2.41-.14 2.44-.06 2.48.01 2.56.1 2.68.16 2.84.24 3 .32 3.14.38 3.21.44 3.24.5 3.28.57 3.39.63 3.43.68 3.04.63" filter="url(#a)"/><path d="m-33.13-71.78.02-1.38.34-1.08 2.15-1.02 2.75-.96 2.58-.86 2.27-.78 2.03-.7 1.93-.66 1.88-.61 1.89-.55 1.93-.49 2.03-.42 2.17-.35 2.31-.28 2.44-.2 2.57-.12 2.65-.05 2.74.03 2.82.1 2.88.18 2.95.25 3 .32 3.02.4 3.02.46 3.01.53 3.01.6 3.04.69 3.07.77 3.18.87 3.36.96 3.54 1.03 3.4 1.02 2.86.79" filter="url(#a)"/><path d="m-34.43-70.42 1.44-1.37 1.63-1.25 1.67-1.13 1.69-1.04 1.68-.95 1.67-.87 1.67-.78 1.73-.72 1.8-.66 1.91-.61 2.01-.55 2.1-.5 2.19-.42 2.25-.35 2.3-.27 2.33-.21 2.31-.12 2.29-.05 2.25.03 2.24.1 2.24.18 2.24.25 2.25.33 2.25.39 2.24.47 2.23.53 2.24.61 2.31.69 2.38.78 2.46.87 2.53.95 2.52 1.01 2.44 1.03 2.41 1 2.97 1.09" filter="url(#a)"/><path d="m-35.41-70.16 1.27-.94 1.31-1.07 1.42-1.11 1.67-1.07 1.85-1.01 1.92-.93 1.94-.87 1.97-.81 2.01-.76 2.07-.7 2.12-.64 2.13-.57 2.11-.48 2.06-.4 2.01-.31 2-.22 2.01-.15 2.04-.07 2.11-.01 2.16.06 2.21.13 2.24.19 2.27.27 2.3.35 2.34.44 2.4.54 2.48.64 2.58.75 2.65.84 2.67.89 2.58.92 2.38.9 2.12.88 1.92.88 1.97.99 2.33 1.43" filter="url(#a)"/><path d="m-35.41-70.16 1.31-.94 1.52-1.07 1.46-1.1 1.4-1.08 1.39-1.01 1.41-.93 1.42-.87 1.52-.81 1.7-.76 1.94-.7 2.19-.64 2.34-.57 2.4-.48 2.39-.4 2.34-.31 2.33-.23 2.34-.14 2.41-.08 2.5-.01 2.59.06 2.68.12 2.73.19 2.74.27 2.74.34 2.75.43 2.81.53 2.96.64 3.17.75 3.43.85 3.61.91 3.65.93 3.46.9 3.14.84 2.99.78 3.37.58" filter="url(#a)"/><path d="m-35.93-69.6-3.18-.67-.96-.89.51-1.01 1.77-1.06 2.6-1.06 2.85-1 2.65-.93 2.3-.87 2.04-.82 1.95-.76 2.02-.72 2.18-.65 2.35-.57 2.46-.5 2.52-.41 2.52-.32 2.51-.24 2.56-.16 2.64-.09 2.79-.02 2.95.04 3.13.11 3.26.17 3.35.24 3.41.3 3.49.37 3.64.48 3.88.6 4.14.76 4.1.85 3.36.75" filter="url(#a)"/><path d="m-35.93-69.6-.35-.67 1.44-.88 1.81-1.02 1.88-1.06 1.88-1.05 1.87-1 1.85-.94 1.87-.87 1.91-.81 1.98-.77 2.06-.71 2.1-.65 2.12-.59 2.07-.49 2.02-.42 1.96-.32 1.92-.24 1.92-.16 1.94-.09 2.01-.03 2.08.04 2.14.11 2.2.17 2.22.23 2.22.29 2.2.36 2.24.44 2.43.6 2.7.82 2.59 1.02" filter="url(#a)"/><path d="m-37.85-67.6 1.37-1.2 1.76-1.4 1.87-1.38 1.83-1.27 1.76-1.16 1.69-1.06 1.67-.97 1.66-.88 1.71-.8 1.79-.73 1.88-.67 1.95-.62 2.03-.56 2.07-.5 2.11-.43 2.15-.36 2.18-.29 2.18-.21 2.18-.14 2.16-.06 2.15.02 2.15.09 2.16.17 2.19.24 2.2.31 2.16.39 2.12.45 2.05.51 2.02.59 2.07.66 2.19.76 2.38.87 2.53.95 2.07.81" filter="url(#a)"/><path d="m-37.85-67.6.65-1.19.15-1.41.98-1.37 1.76-1.26 1.88-1.16 1.6-1.07 1.25-.97 1.08-.88 1.15-.8 1.42-.73 1.83-.67 2.24-.62 2.56-.57 2.77-.5 2.84-.44 2.85-.37 2.82-.29 2.81-.22 2.82-.15 2.85-.07 2.92.01 3.02.08 3.14.16 3.26.24 3.32.3 3.34.38 3.34.43 3.42.5 3.58.56 3.66.66 3.32.76" filter="url(#a)"/><path d="m-39.77-65.8 1.56-1.53 1.3-1.41.88-1.41.61-1.35.76-1.27 1.2-1.16L-31.8-75l1.96-.98 2.09-.89 2.08-.8 2.04-.74 2.03-.68 2.04-.62 2.1-.57 2.21-.5 2.32-.44 2.47-.37 2.6-.29 2.73-.22 2.83-.14 2.93-.07h3.02l3.12.09 3.22.16 3.31.24 3.35.3 3.34.38 3.29.44 3.24.5 3.19.57 3.14.63 3.01.68 2.91.64" filter="url(#a)"/><path d="m-40.29-65.09 1.41-1.86 1.19-1.61 1.13-1.3 1.13-1.13 1.26-1.08 1.49-1.06 1.73-1.04 1.88-.99 1.93-.94 1.92-.88 1.89-.83 1.93-.77 2.01-.73 2.11-.67 2.19-.6 2.2-.52 2.18-.44 2.11-.34 2.07-.25 2.08-.17 2.14-.11 2.22-.05 2.32.01 2.42.08 2.61.17 2.75.26 2.32.25" filter="url(#a)"/><path d="m-40.84-64.69.81-1.25 1.6-1.38 1.78-1.4 1.83-1.39 1.82-1.34 1.78-1.27 1.74-1.16 1.71-1.08 1.72-.98 1.75-.9 1.82-.81 1.89-.74 1.95-.68 2.01-.63 2.04-.56 2.07-.5 2.08-.43 2.11-.37 2.11-.29 2.11-.21L-2-82.2l2.08-.06 2.07.01 2.06.1 2.08.16 2.08.25 2.09.31 2.06.39 2 .45 1.94.52 1.9.59 1.9.68 2 .77 2.13.87 2.29.98 2.37 1.09 2.53 1.35m-74.43 11.11-5.66 2.1-1.09 1.79-.89 1.75-1.46 1.8-1.93 1.86-2.19 1.95-2.22 2.05-2.11 2.14-1.97 2.2-1.97 2.25-2.14 2.26-2.48 2.26-2.89 2.29-3.25 2.33-3.45 2.38-3.43 2.44-3.19 2.47-2.77 2.49-2.26 2.48-1.8 2.48-1.48 2.46-1.34 2.46-1.32 2.45-1.32 2.46-1.24 2.47-1.04 2.47-.77 2.48-.55 2.48-.49 2.47-.7 2.48-1.22 2.51-2.02 2.55-2.72 2.56-2.7 2.51-1.52 2.53.09 3.45" filter="url(#a)"/><path d="m-45.22-60.16-3.53 1.24-.97 1.42-1.15 1.45-2.22 1.62-3.54 1.86-4.6 2.03-4.99 2.11-4.64 2.12-3.85 2.12-3 2.14-2.44 2.18-2.27 2.23-2.5 2.29-2.91 2.31-3.32 2.32-3.59 2.33-3.67 2.33-3.66 2.35-3.6 2.39-3.61 2.43-3.73 2.47-4.01 2.47-4.38 2.43-4.87 2.42-6.06 2.52-8.4 2.57" filter="url(#a)"/><path d="m-45.27-60.11-2.22 1.5-1.76 1.67-1.5 1.78-1.88 1.86-2.65 1.95-3.44 2.05-3.88 2.15-3.91 2.23-3.57 2.25-2.99 2.27-2.35 2.27-1.79 2.29-1.4 2.33-1.24 2.39-1.33 2.43-1.63 2.48-2.09 2.49-2.58 2.49-2.97 2.48-3.11 2.46-2.92 2.46-2.41 2.46-1.69 2.46-.96 2.47-.48 2.47-.49 2.48-1.08 2.48-2.17 2.49-3.5 2.49-4.61 2.51-5.05 2.54-4.57 2.57-3.29 2.59-1.67 2.63-.12 2.69 1.14 2.67-.17 2.24" filter="url(#a)"/><path d="m-45.27-60.11-4.29 1.5-4.76 1.66-4.03 1.77-2.88 1.84-1.46 1.94-.41 2.04-.08 2.14-.34 2.21-.87 2.25-1.35 2.26-1.62 2.25-1.68 2.27-1.59 2.32-1.52 2.37-1.55 2.42-1.67 2.48-1.79 2.49-1.84 2.49-1.72 2.46-1.52 2.45-1.41 2.44-1.49 2.44-1.81 2.45-2.22 2.46-2.45 2.47-2.31 2.48-1.81 2.47-1.18 2.44-.84 2.4-.95 2.43-1.31 2.67.1 3.28M64.36-18.8l.11 2.89.12 2.21.14 2.25-.22 2.41-.74 2.48-1.18 2.46-1.43 2.38L59.52.62l-2.01 2.32-2.58 2.34-3.17 2.38-3.53 2.43-3.42 2.5-2.86 2.53-1.99 2.57-1.09 2.57-.37 2.55.04 2.52.1 2.47-.11 2.41-.53 2.36-1.06 2.3-1.65 2.25-2.23 2.21-2.73 2.17-3.06 2.12-3.17 2.07-2.98 2.02-2.6 1.99-2.11 1.96-1.67 1.94-1.32 1.93-1.18 1.93-1.35 1.98-1.84 2.03-2.14 2.05-.8 1.91M64.36-18.8l.71 2.87 1.07 2.18 1.46 2.22 2.07 2.39 2.85 2.46 3.36 2.44 3.22 2.37L81.49.44l1.19 2.28.06 2.29-.68 2.34-.89 2.39-.7 2.47-.35 2.52-.01 2.56.23 2.57.44 2.57.7 2.54 1.06 2.48 1.45 2.4 1.71 2.33 1.66 2.26 1.19 2.23.39 2.26-.48 2.35-.96 2.36-.01 1.92" filter="url(#a)"/><path d="m-46.81-58.65-1.92 1.67-1.13 1.8-1.16 1.85-1.35 1.93-1.54 2.03-1.7 2.14-1.88 2.22-2.14 2.26-2.49 2.25-2.89 2.25-3.24 2.25-3.41 2.3-3.34 2.35-3.01 2.43-2.51 2.48-2 2.49-1.7 2.49-1.65 2.45-1.83 2.44-2.05 2.43-2.1 2.43-1.92 2.43-1.55 2.45-1.24 2.46-1.17 2.5-1.41 2.51-1.71 2.43-1.83 2.26-2.99 2.19" filter="url(#a)"/><path d="m-48.32-56.64-2.61.74-1.17 1.45-1.65 1.93-2.14 2.16-2.27 2.21-2.13 2.17-1.88 2.15-1.74 2.17-1.81 2.22-2.08 2.27-2.44 2.31-2.77 2.34-3.01 2.36-3.16 2.37-3.2 2.38-3.17 2.4-3.04 2.42-2.8 2.45-2.48 2.45-2.08 2.45-1.73 2.45-1.5 2.45-1.47 2.46-1.59 2.48-1.75 2.53-1.74 2.6-1.54 2.65-1.23 2.7-1.04 2.68-1.19 2.6-1.69 2.46-2.4 2.35-2.95 2.29-3.13 2.35-2.78 2.53-1.57 2.91 1.42 3.97" filter="url(#a)"/><path d="m-49.63-54.84-7.25 2.03-.43 2.4-.21 2.34-1.65 2.15-2.95 2.06-3.44 2.1-3.28 2.17-2.92 2.25-2.65 2.3-2.54 2.32-2.45 2.33-2.29 2.33-2.15 2.34-2.13 2.35-2.32 2.39-2.63 2.43-2.87 2.44-2.87 2.45-2.5 2.43-1.89 2.4-1.35 2.37-1.2 2.31-1.51 2.23-2.1 2.21-2.45 2.31m58.91-55.59-1.33 1.7-1.17 1.98-1.2 2.21-1.21 2.32-1.16 2.32-1.08 2.28-1 2.24-.94 2.26-.88 2.31-.84 2.37-.79 2.45-.74 2.49-.66 2.5-.59 2.5-.51 2.47-.46 2.45-.39 2.44-.35 2.45-.31 2.45-.26 2.46-.21 2.47-.18 2.47-.12 2.48-.05 2.47.03 2.49.11 2.5.2 2.53.27 2.57.33 2.58.4 2.61.46 2.69.47 2.66.47 2.23" filter="url(#a)"/><path d="m-51.98-51.33-5.43 1.94-1.53 2.27-1.32 2.37-.99 2.35-.56 2.28-.46 2.23-.78 2.24-1.25 2.29-1.65 2.37-1.85 2.45-1.83 2.5-1.67 2.51-1.45 2.48-1.19 2.47-.94 2.44-.66 2.44-.43 2.44-.27 2.45-.27 2.45-.41 2.47-.64 2.46-.92 2.47-1.15 2.47-1.36 2.47-1.5 2.5-1.57 2.53-1.49 2.56-1.23 2.56-.84 2.6-.44 2.83.73 2.88" filter="url(#a)"/><path d="m-52.08-51.08-9.53 3.51-1.29 2.04-.17 1.89-.39 2.05-.59 2.2-.82 2.29-1.17 2.34-1.59 2.34-2.01 2.35-2.39 2.35-2.69 2.35-2.87 2.38-2.92 2.41-2.81 2.43-2.6 2.45-2.37 2.44-2.09 2.43-1.76 2.42L-93.51-6l-.93 2.43-.61 2.47-.55 2.57-.83 2.69-1.37 2.79-1.98 2.82-2.4 2.7-2.37 2.38-1.76 2-1.46 2.56" filter="url(#a)"/><path d="m-54.68-46.79-2.75 2.17-1.43 2.42-1.64 2.26-2.42 2.17-3.14 2.17-3.52 2.24-3.39 2.36-2.8 2.46-1.95 2.51-1.17 2.51-.81 2.48-.97 2.45-1.52 2.42-2.19 2.41-2.67 2.42-2.84 2.43-2.78 2.44-2.66 2.45-2.65 2.46-2.77 2.46-2.99 2.43-3.21 2.42-3.32 2.47-3.17 2.62-2.7 2.85-3.3 2.76m64.76-63.24-8.5 2.15-6.45 2.41-1.62 2.25-.85 2.15-2.45 2.14-4.33 2.21-5.24 2.34-4.82 2.44-3.64 2.51-2.54 2.51-2.18 2.47-2.6 2.41-3.46 2.4-4.37 2.39-5.08 2.4-5.5 2.4-5.5 2.41-4.98 2.44-4.16 2.5-3.79 2.53-4.68 2.44-3.14 1.93" filter="url(#a)"/><path d="m-55.03-45.81-4.74 1.91-1.82 2.22-2.75 2.34-3.46 2.37-2.93 2.36-1.92 2.36-1.18 2.35-.86 2.34-.88 2.36-1.1 2.38-1.49 2.41-2.03 2.43-2.7 2.45-3.51 2.44-4.46 2.44-5.49 2.42-6.46 2.41-7.15 2.45-7.33 2.49-6.81 2.58-5.62 2.67-3.91 2.74-1.94 2.72-.11 2.61 1.28 2.42 1.73 2.23.71 2.16-1.93 2.35-3.74 2.81" filter="url(#a)"/><path d="m-55.03-45.81-3.59 1.89-7.3 2.19-4.81 2.31-1.18 2.34.26 2.34-.37 2.33-1.72 2.32-2.83 2.32-3.43 2.31-3.6 2.34-3.5 2.38-3.19 2.42-2.87 2.44-2.84 2.43-3.18 2.41-3.7 2.38-3.81 2.35-3.22 2.31-2.38 2.3-2.4 2.37-3.83 2.66-6.95 3.35m68.19-48.63-1.96 2.78-2.23 2.41-1.46 2.37-.77 2.37-.58 2.36-.77 2.36-1.13 2.37-1.51 2.39-1.81 2.43-1.99 2.45-2.04 2.46-1.96 2.46-1.82 2.45-1.68 2.45-1.58 2.46-1.56 2.49-1.62 2.54-1.77 2.6-1.92 2.63-2 2.65-1.89 2.62-1.57 2.56-1.03 2.49-.34 2.44.32 2.43.78 2.46.87 2.51.59 2.54.05 2.5-.41 2.37-.54 2.21-.34 2.05-.14 2.01-.15 2 1.32 1.94" filter="url(#a)"/><path d="m-58.66-38.42-2 1.77-1.79 2.31-1.48 2.35-1.13 2.34-.78 2.35-.57 2.34-.56 2.37-.67 2.42-.79 2.44-.87 2.46-.81 2.45-.65 2.43-.44 2.42-.23 2.43-.1 2.45-.1 2.52-.22 2.58-.42 2.66-.61 2.68-.7 2.66-.64 2.56-.42 2.45-.16 2.33.04 2.31.03 2.38-.17 2.57-.3 2.82-.03 3.07.5 2.75m138.84-54.7.59 2.71.89 2.51.81 2.27.53 2.27.24 2.37.08 2.43.05 2.41.13 2.36.24 2.29.32 2.25.32 2.25.22 2.3.05 2.35-.13 2.43-.27 2.5-.32 2.56-.29 2.6-.21 2.6-.1 2.55-.04 2.48-.16 2.56-.8 3.6" filter="url(#a)"/><path d="m64.11-21.45.42 2.76.83 2.54 1.25 2.33 1.74 2.33 2.37 2.42 3.02 2.45 3.47 2.43 3.57 2.39L84.07.55l2.65 2.33 1.75 2.34.77 2.38-.12 2.44-.75 2.48-1.08 2.54-1.08 2.56-.83 2.57-.41 2.55.07 2.52.49 2.47.75 2.42.78 2.35.6 2.31.24 2.26-.17 2.21-.57 2.17-.85 2.12-1.04 2.07-1.14 2.02-1.23 2-1.29 1.96-1.24 1.93-.97 1.92-.51 1.91-.23 1.98-.78 2.07-2.85 2.24M-59.16-36.6l-1.66 1.35-2.57 2.02-2.33 2.37-2.22 2.55-2.77 2.61-3.54 2.55-3.99 2.46-3.86 2.41-3.29 2.39-2.65 2.39-2.29 2.41-2.27 2.41-2.36 2.43-2.25 2.44-1.81 2.45-1.26 2.44-.99 2.43-1.27 2.42-2.02 2.46-2.84 2.55-3.46 2.56-4.29 2.26-6.36 1.34" filter="url(#a)"/><path d="m-59.16-36.6-5.59 1.38-2.99 2.05-2.75 2.41-3.18 2.58-3.67 2.62-3.64 2.56-2.91 2.5-1.69 2.44-.41 2.42.55 2.43.94 2.44.8 2.45.34 2.45-.11 2.47-.42 2.47-.58 2.47-.79 2.48-1.22 2.49-1.89 2.51-2.68 2.53-3.3 2.55-3.5 2.55-3.15 2.53-2.4 2.48-1.5 2.39-.74 2.27-.24 2.16-.03 2.14-.2 2.22-.76 2.23.63 1.5" filter="url(#a)"/><path d="m-59-37.54-4.39 3.19-5.04 2.41-4.88 2.34-4.05 2.33-1.95 2.32.13 2.35.83 2.4-.16 2.44-2.21 2.45-4.36 2.44-5.77 2.42-5.94 2.4-4.91 2.39-3.16 2.42-1.47 2.48-.57 2.58-.84 2.66-2.14 2.74-3.88 2.71-5.22 2.6-5.57 2.4-4.73 2.2-2.93 2.15-.71 2.34.52 2.79m71.82-57.44 13.63 1.34-.6 2.22-1.83 2.35-1.75 2.33-1.71 2.36-1.33 2.42-.5 2.46.49 2.48 1.22 2.45 1.41 2.44 1.05 2.42.47 2.43.04 2.47.06 2.52.54 2.59 1.33 2.65 2.16 2.66 2.84 2.63 3.26 2.56 3.43 2.46 3.38 2.4 3.18 2.38 2.86 2.44 2.53 2.53 2.43 2.6 2.73 2.57 3.44 2.39 4.09 2.1 4.01 1.94 1.59 2.28m-54.43-72.32-1.43 2.67-2.97 2.69-3.95 2.72-3.4 2.6-1.98 2.46-.59 2.39.22 2.39.31 2.41-.14 2.42-.81 2.44-1.42 2.45-1.76 2.45-1.8 2.46-1.58 2.46L-83.09 4l-.94 2.47-.81 2.49-.93 2.52-1.27 2.55-1.82 2.56-2.46 2.55-3.01 2.51-3.16 2.41-2.6 2.22-1.51 1.99-.63 1.88-.04 2.37" filter="url(#a)"/><path d="m-60.56-33.48-1.12 2.64-1.07 2.67-1.13 2.71-1.52 2.58-1.99 2.44-2.18 2.36-1.98 2.37-1.5 2.38-.95 2.41-.5 2.41-.22 2.43-.19 2.43-.39 2.45-.77 2.43-1.19 2.43-1.53 2.43-1.61 2.46-1.41 2.51-1.05 2.53-.78 2.46-.95 2.48-.81 3.4" filter="url(#a)"/><path d="m-62.03-29.11-2.21 2.36-.89 2.18-1.82 2.27-2.64 2.42-2.61 2.5-1.94 2.5-1.08 2.46-.4 2.44-.08 2.41-.11 2.44-.38 2.47-.73 2.53-1.03 2.6-1.14 2.65-1 2.65-.64 2.62-.18 2.55.24 2.47.48 2.42.46 2.42.23 2.45-.11 2.49-.41 2.52-.59 2.47-.63 2.35-.55 2.2-.32 2.09.1 2.04.59 2.1.58 2.28-.49 2.77" filter="url(#a)"/><path d="m-62.03-29.11-4.18 2.37-.83 2.19-.6 2.27-.88 2.43-1 2.51-1.01 2.5-1.06 2.47-1.19 2.44-1.43 2.43-1.75 2.45-2.07 2.48-2.26 2.54-2.19 2.61-1.88 2.64-1.37 2.65-.85 2.61-.43 2.56-.19 2.49-.12 2.44-.14 2.44-.13 2.46-.01 2.47.24 2.48.56 2.43.86 2.34 1 2.25.88 2.17.57 2.16.22 2.2.08 2.31.27 2.4.64 2.36.59 2.03-.7 1.26" filter="url(#a)"/><path d="m-62.32-28.61-3.76 3.42-5.33 2.77-3.81 2.37-2.44 2.31-1.84 2.37-1.65 2.41-1.43 2.44-.95 2.44-.27 2.46.4 2.46.83 2.46.95 2.47.75 2.47.35 2.48-.16 2.5-.72 2.52-1.28 2.54-1.8 2.54-2.2 2.52-2.44 2.46-2.49 2.37-2.41 2.26-2.18 2.16-1.61 2.14-.59 2.16.61 2.15 1.03 1.98-.72 1.96" filter="url(#a)"/><path d="m-62.64-26.64-1.89 2.18-3.01 2.12-3.98 2.42-2.88 2.53-.86 2.5.61 2.45 1.04 2.41.68 2.39.02 2.39-.58 2.43-.96 2.5-1.14 2.58-1.27 2.66-1.43 2.69-1.56 2.64-1.57 2.55-1.34 2.42-.91 2.33-.53 2.31-.5 2.4-.94 2.55-1.55 2.72-1.69 2.77-1.09 2.47-1.26 1.61m155-56.19.6 1.44 1.38 2.08 1.79 2.46 1.43 2.59.96 2.6.87 2.59 1.12 2.58 1.49 2.58 1.68 2.53 1.56 2.48 1.2 2.4.73 2.34.29 2.33-.04 2.35-.23 2.38-.26 2.41-.1 2.4.27 2.36.8 2.28 1.31 2.21 1.56 2.23 1.3 2.35.57 2.6-.28 2.79-.85 2.64-1.43 1.71" filter="url(#a)"/><path d="m63.35-22.94 3.73 1.9 4.28 2.38 3.74 2.39 1.94 2.33.61 2.35.17 2.4.19 2.43.24 2.42.23 2.38.23 2.33.36 2.32.61 2.33.87 2.37L81.6 9.8l1.08 2.48 1.02 2.52.9 2.56.79 2.57.64 2.57.44 2.53.13 2.48-.22 2.41-.53 2.35-.7 2.3-.62 2.26-.33 2.23.14 2.19.63 2.13.94 2.01.92 1.95.62 2.09-.64 2.25" filter="url(#a)"/><path d="m63.35-22.94 4.42 1.87 6.97 2.36 3.37 2.36-.27 2.31-1.41 2.31-.74 2.38.39 2.42 1.25 2.4 1.74 2.36L81.15.14l2.55 2.27 3.14 2.27 3.72 2.31 4.04 2.37 4.03 2.44 3.81 2.51 3.65 2.56 3.59 2.59 3.42 2.6 2.67 2.56 1.23 2.51-.15 2.49-.17 2.47.45 1.8" filter="url(#a)"/><path d="m63.53-23.43 1.08 1.5 1.28 1.71 1.32 2.1 1.17 2.41.74 2.55.32 2.6.13 2.61.17 2.6.37 2.58.6 2.55.74 2.49.72 2.43.52 2.4.19 2.38-.16 2.38-.42 2.4-.54 2.4-.49 2.39-.33 2.37-.11 2.35.1 2.35.24 2.36.28 2.38.18 2.41-.03 2.39-.28 2.36-.51 2.3-.64 2.23-.66 2.17-.62 2.15-.62 2.14-.78 2.12-1.07 2.02-1.29 1.82-1 1.46.24.98m-.84-80.84-2.01 1.47-2.28 1.66-2.37 2.05-2.53 2.36-2.2 2.51-1.98 2.56-2.37 2.57-3.05 2.57-3.35 2.57-2.88 2.53-1.86 2.48-.83 2.39-.29 2.32-.47 2.29-1.31 2.33-2.46 2.38-3.42 2.43-3.78 2.46-3.54 2.41-3.18 2.29-3.01 2.06-2.51 1.78-3.48 1.44m53.95-56.07 1.79 3.5 2.97 2.69 3.21 2.49 3.21 2.39 2.83 2.32 2.02 2.32 1.31 2.37 1.2 2.4 1.81 2.4 2.91 2.35 4.18 2.3 5.35 2.26 6.29 2.25 6.91 2.28 7.12 2.34 6.73 2.42 5.58 2.49 3.64 2.56 1.44 2.64.07 2.68.09 2.76-.42 3.19" filter="url(#a)"/><path d="m62.32-27.59 3.38 3.5 1.5 2.69.81 2.49.26 2.39.18 2.32.6 2.32 1.18 2.37 1.6 2.4 1.64 2.4 1.37 2.35.96 2.3.59 2.26.37 2.25.26 2.28.21 2.34.19 2.42.21 2.49.39 2.56.71 2.64 1.01 2.68.96 2.76.83 3.19" filter="url(#a)"/><path d="m62.32-27.59 2.71 3.5 4.9 2.69 5.61 2.49 4.38 2.39 2.39 2.32.74 2.32-.07 2.37.08 2.4 1.04 2.4 2.45 2.35 3.74 2.3 4.52 2.26 4.64 2.25 4.22 2.28 3.55 2.34 2.84 2.42 2.27 2.49 2.04 2.56 2.44 2.64 3.59 2.68 4.66 2.76 2.71 3.19" filter="url(#a)"/><path d="m62.32-27.59 2.87 3.54 3.42 2.73 3.5 2.52 3.7 2.42 3.38 2.36 2.4 2.37 1.19 2.41.1 2.42-.66 2.42-1.06 2.37L80 .32l-.97 2.32-.62 2.34-.19 2.37.18 2.42.47 2.47.63 2.52.72 2.56.75 2.58.79 2.56.88 2.53 1.01 2.48 1.13 2.42 1.19 2.36 1.14 2.3 1.02 2.26.89 2.23.79 2.2.71 2.13.57 2.02.25 1.95-.79 2.08-3.05 2.26" filter="url(#a)"/><path d="m62.2-28.58 1.9 3.73 1.96 2.38 1.45 2.04 1.03 2.15 1.02 2.34 1.46 2.48 2.28 2.54 3.25 2.56 4.17 2.57 4.77 2.56 4.86 2.54 4.29 2.48 3.11 2.39 1.69 2.32.69 2.29.74 2.32 2.02 2.38 3.92 2.44 5.25 2.48 4.93 2.46 3.4 2.35 3.11 2.1 5.73 1.96" filter="url(#a)"/><path d="m62.19-28.89.43 2.14.82 2.66 1.18 2.61 1.5 2.52 1.52 2.42 1.26 2.38.95 2.37.87 2.4 1.05 2.41 1.39 2.4 1.75 2.37 2 2.33 2.14 2.31 2.19 2.32 2.17 2.34 2.05 2.4 1.83 2.46 1.5 2.51 1.12 2.56.74 2.59.43 2.59.21 2.55.09 2.51.03 2.43-.04 2.34-.16 2.22-.11 2.13.34 2.16.35 2.49" filter="url(#a)"/><path d="m62.19-28.89 1.31 2.15 1.09 2.67 1.21 2.63 1.11 2.53.99 2.43.96 2.39.91 2.39.82 2.41.64 2.42.46 2.41.25 2.38L72 .27l-.12 2.33-.24 2.34-.29 2.37-.26 2.43-.17 2.47-.03 2.52.1 2.56.2 2.57.24 2.57.2 2.53.11 2.49.05 2.42-.02 2.36-.05 2.3-.13 2.27-.3 2.23-.52 2.2-.75 2.13-.92 2.02-1.07 1.96-1.41 2.08-1.55 2.26m-3.55-82.14 10.67 2.62 3.79 2.78-1.25 2.4-2.05 2.22-.93 2.26.55 2.38 1.73 2.49 2.47 2.55 2.88 2.58 3.04 2.59 3.04 2.57 2.91 2.54 2.7 2.49 2.41 2.43 2.07 2.39L97.2 9.2l1.17 2.38.68 2.39.3 2.4.11 2.39.2 2.37.53 2.32 1.03 2.3 1.54 2.32 1.92 2.39 2.03 2.48 1.76 2.5 1.1 2.43.27 2.25-.37 2.12-.52 2.3 1.16 3.01" filter="url(#a)"/><path d="m60.98-32.71 2.84 2.29 6.63 2.62 5.3 2.6 1.82 2.4-.76 2.29-1.6 2.31-1.28 2.39-.57 2.48.09 2.55.63 2.57 1.15 2.59 1.71 2.57 2.3 2.54 2.87 2.49 3.35 2.44 3.65 2.4 3.76 2.38 3.58 2.38 3.06 2.4 2.21 2.4 1.16 2.39.12 2.37-.59 2.33-.79 2.32-.41 2.34.4 2.39 1.26 2.46 1.72 2.47 1.41 2.41.34 2.28-.83 2.15-.85 2.1 1.05 1.98 3 1.03" filter="url(#a)"/><path d="m60.72-32.39.58 1 1 2.11 1.49 2.48 1.67 2.59 1.45 2.59 1.05 2.52.71 2.46.56 2.42.51 2.41.51 2.42.48 2.42.43 2.4.37 2.38.35 2.36.4 2.35.49 2.35.59 2.38.67 2.43.72 2.47.7 2.52.62 2.56.47 2.57.26 2.57.03 2.54-.21 2.48-.39 2.43-.5 2.37-.51 2.31-.47 2.27-.43 2.24-.4 2.2-.4 2.13-.38 2.03-.38 1.96-.49 2.09-1.18 2.26M60.24-34.45l7.92 1.88 4.73 2.26-.78 2.5-2.23 2.5-1.4 2.39.07 2.33L70-18.26l2.44 2.4 2.92 2.48 2.82 2.53 2.25 2.57 1.42 2.58.66 2.57.16 2.54.08 2.49.4 2.44 1.03 2.4 1.78 2.39 2.52 2.38 3.07 2.4 3.34 2.4 3.3 2.4 3.04 2.36 2.66 2.33 2.24 2.31 1.85 2.33 1.41 2.4.97 2.47.61 2.51.48 2.43.56 2.26.6 2.13.4 2.3-.92 3.01" filter="url(#a)"/><path d="m58.73-37.98 4.67 2.87 4.45 2.38 2.61 2.41.76 2.48-.3 2.46-.42 2.4.02 2.35.49 2.36.79 2.42.9 2.48.98 2.53 1.12 2.57 1.34 2.57 1.6 2.57 1.79 2.54 1.86 2.49 1.7 2.45 1.35 2.42.82 2.4.23 2.39-.27 2.4-.6 2.4-.69 2.39-.57 2.38-.29 2.34.02 2.34.26 2.35.33 2.4.2 2.44-.04 2.45-.29 2.4-.36 2.29-.23 2.19-.01 2.13.04 2.13-.35 2.23-1.73 3.1" filter="url(#a)"/><path d="m58.73-37.98 1.47 2.86 2.01 2.37 2.14 2.4 1.77 2.47 1.6 2.46 1.84 2.38 2.16 2.34 2.24 2.34 1.99 2.4 1.47 2.47.94 2.52.57 2.56.5 2.57.75 2.57 1.25 2.54 1.79 2.49 2.23 2.44 2.44 2.39 2.38 2.37 2.15 2.38 1.78 2.4 1.38 2.41.97 2.41.6 2.37.29 2.3.02 2.25-.3 2.26-.74 2.36-1.05 2.6-.7 2.81.55 2.66 1.31 1.73" filter="url(#a)"/><path d="m58.73-37.98 1.23 2.86 1.08 2.39 1.26 2.4 1.53 2.48 1.68 2.47 1.61 2.39 1.36 2.35 1 2.36.61 2.41.27 2.47v2.54l-.17 2.56-.25 2.58-.23 2.57-.18 2.53-.09 2.5-.02 2.45.04 2.41.06 2.39.05 2.39.03 2.4-.01 2.4-.04 2.4-.07 2.37-.11 2.34-.14 2.33-.22 2.34-.31 2.39-.42 2.46-.5 2.48-.54 2.41-.54 2.29-.61 2.15-.82 2.1-1.04 1.99-.61 1.03" filter="url(#a)"/><path d="m57.98-39.9 1.23 2.27 2.12 2.43 2.25 2.4 1.76 2.43 1.2 2.46.95 2.44 1.03 2.39 1.26 2.36 1.39 2.38 1.38 2.41 1.23 2.48 1.01 2.52.85 2.56.75 2.58.73 2.56.71 2.54.68 2.5.56 2.45.38 2.41.15 2.39-.06 2.39-.2 2.4-.26 2.41-.25 2.4-.23 2.37-.24 2.33-.3 2.32-.38 2.33-.44 2.4-.45 2.48-.43 2.51-.34 2.44-.12 2.26.15 2.13-.09 2.31-1.56 3.01M57.09-41.41l9.74 1.71.2 2.12-.2 2.3 1.3 2.35 3.58 2.4 6 2.44 7.49 2.41 7.32 2.38 5.78 2.33 3.81 2.35 2.37 2.38 1.76 2.45 1.68 2.5 1.52 2.55.99 2.57.24 2.57-.24 2.55-.03 2.5.93 2.43 2.3 2.35 3.42 2.32 3.75 2.33 3.1 2.39 2.02 2.47 1.73 2.53 3.17 2.53 5.36 2.45 6.4 1.67" filter="url(#a)"/><path d="m55.33-45.44 1.04 2.04 1.12 2.47 1.08 2.51.98 2.4.85 2.28.76 2.24.69 2.28.65 2.36.62 2.44.59 2.47.55 2.48.49 2.46.42 2.44.35 2.44.28 2.42.2 2.42.14 2.4.09 2.38.02 2.37-.02 2.35-.07 2.35-.13 2.38-.18 2.42-.24 2.47-.3 2.52-.36 2.56-.44 2.59-.5 2.59-.57 2.57-.63 2.51-.68 2.45-.73 2.36-.77 2.28-.8 2.22-.88 2.28-1.06 2.49-1.19 2.84m-1.37-89.53 9.99 2 1.09 2.43-.38 2.49-.46 2.38-.14 2.24.39 2.18 1.05 2.22 1.79 2.31 2.57 2.41 3.28 2.46 3.85 2.46 4.16 2.43 4.16 2.4 3.74 2.38 2.98 2.39 2.11 2.41 1.51 2.42 1.43 2.39 1.85 2.31 2.43 2.24 2.95 2.19 3.33 2.21 3.52 2.31 5.21 2.75" filter="url(#a)"/><path d="m54.87-45.94 1.33 1.98 1.9 2.06 3.38 2.11 4.63 2.19 4.7 2.27 3.59 2.34 2.02 2.39.82 2.42.41 2.41.73 2.38 1.4 2.37 2.11 2.37 2.62 2.41 2.96 2.46 3.08 2.5 3.01 2.55 2.68 2.57 2.08 2.57 1.28 2.55.43 2.5-.29 2.44-.67 2.39-.63 2.35-.14 2.37.6 2.4 1.33 2.45 1.8 2.48 2.04 2.44 2.14 2.32 1.93 2.1.94 1.82.41 1.46" filter="url(#a)"/><path d="m54.87-45.94 2.21 1.99 2.91 2.06 1.93 2.11 1.06 2.19.87 2.27 1.06 2.34 1.36 2.4 1.68 2.42 1.94 2.41 2.06 2.38L73.92-21l1.7 2.38 1.4 2.41 1.13 2.47.87 2.51.59 2.54.25 2.57-.1 2.57-.35 2.54-.45 2.5-.34 2.45-.05 2.39.33 2.37.75 2.37 1.15 2.41 1.44 2.44 1.56 2.45 1.42 2.41 1.07 2.3.68 2.14.49 1.97.41 1.98-.83 2.48" filter="url(#a)"/><path d="m54.87-45.94 1.24 1.96 1.26 2.04 1.56 2.07L61-37.71l2.54 2.24 2.68 2.32 2.4 2.37 1.84 2.4 1.22 2.39.64 2.36.22 2.32.01 2.32.03 2.35.22 2.42.48 2.49.69 2.53.79 2.56.86 2.6 1 2.62 1.23 2.59 1.54 2.44 1.68 2.16 1.32 1.98.18 2.47" filter="url(#a)"/><path d="m54.87-45.94 2.63 1.97 1.63 2.04 1.07 2.09 1.06 2.16 1.34 2.26 1.54 2.32 1.52 2.37 1.35 2.41 1.2 2.4 1.09 2.36 1.06 2.34 1.05 2.33 1.03 2.38 1.03 2.43 1.07 2.49 1.15 2.54 1.28 2.57L78.4-3.9l1.55 2.59 1.59 2.53 1.52 2.43 1.38 2.29 1.22 2.19 1.13 2.22 1.11 2.22.67 1.78" filter="url(#a)"/><path d="m53.15-49.34 3.22 3.12 1.8 2.63 1.17 2.55.81 2.49.71 2.38.82 2.29.96 2.25 1.1 2.29 1.23 2.35 1.34 2.42 1.45 2.46 1.52 2.47 1.51 2.46 1.42 2.43 1.26 2.43 1.06 2.42.87 2.41.69 2.4.55 2.38.44 2.35.32 2.33.19 2.32.07 2.35-.03 2.39-.09 2.45-.12 2.52-.11 2.58-.07 2.62-.05 2.64-.09 2.59-.21 2.53-.42 2.6-1.13 3.64" filter="url(#a)"/><path d="m53.8-48.29-.96 2.14-1.42 2.06-.41 2.05.79 2.09 1.6 2.15 1.78 2.23 1.43 2.3.87 2.35.27 2.4-.23 2.39-.62 2.35-.89 2.31-1.02 2.31-1.05 2.34-1.07 2.41-1.27 2.48-1.73 2.52-2.27 2.55-2.47 2.58-1.91 2.7-.78 2.8-.29 2.66-2.25 1.91" filter="url(#a)"/><path d="m50.74-53.77-1.97 1.52-3.49 1.94-1.48 2.07.52 2.23 1.05 2.35.68 2.42.23 2.41.16 2.37.46 2.32.94 2.3 1.31 2.31 1.44 2.36 1.26 2.4.82 2.45.21 2.45-.46 2.46-1.07 2.43-1.53 2.43-1.8 2.42-1.86 2.42L44.4-5.3l-1.6 2.38-1.5 2.35-1.56 2.32-1.85 2.3-2.3 2.32-2.74 2.37-2.87 2.43-2.42 2.51-1.43 2.6-.65 2.67-1.31 2.65-3.32 2.28" filter="url(#a)"/><path d="m48.78-55.97-1.76 1.85 1.53 1.82 1.34 1.92-.07 2.05-1.66 2.19-2.63 2.31-2.65 2.39-1.9 2.39-.81 2.35.2 2.29.88 2.27 1.17 2.27 1.05 2.33.6 2.39-.08 2.44-.78 2.46-1.37 2.44-1.83 2.4-2.28 2.38L35-10.64 31.89-8.2l-3.03 2.48-2.24 2.46-1.19 2.33-1.01 2.05-2.58 1.09m24.15-61.48 9.59 2.58 1.3 1.91.26 1.9.4 2.01.65 2.12.93 2.14 1.26 2.15 1.56 2.14 1.79 2.17 1.94 2.2 2.15 2.25 2.45 2.31 2.83 2.35 3.12 2.38 3.16 2.38 2.83 2.38 2.25 2.36 1.6 2.37 1.11 2.4.93 2.44 1.04 2.49 1.35 2.54 1.76 2.58 2.11 2.61L96.7-1.5l2.38 2.58 2.25 2.46 2.15 2.27 2.19 2.18 1.91 2.34-.14 2.68" filter="url(#a)"/><path d="m46.56-58.55 2.93 1.61 5.19 1.43 4.53 1.55 3.36 1.74 2.34 1.89 1.53 2.05 1.21 2.18 1.66 2.29 2.71 2.36 3.82 2.37 4.53 2.35 4.6 2.33 4.17 2.3 3.58 2.32 3.16 2.36 3.13 2.4 3.46 2.43 3.85 2.46 3.99 2.45 3.67 2.43 2.93 2.42 2.02 2.42 1.38 2.43 1.29 2.43 1.8 2.4 2.62 2.34 3.19 2.29 3.04 2.24 2.17 2.26 1.16 2.35 1.05 2.46 3.15 2.43M46.56-58.55l.22 1.61.11 1.42.21 1.55.77 1.73 1.19 1.89 1.2 2.03.91 2.18.54 2.29.2 2.35.01 2.37-.05 2.35.03 2.32.18 2.3.34 2.3.41 2.35.37 2.39.25 2.44.08 2.46-.12 2.44-.38 2.43-.72 2.41-1.14 2.41-1.55 2.44-1.75 2.44-1.65 2.42-1.28 2.34-.93 2.25-.88 2.17-.95 2.16.18 1.77" filter="url(#a)"/><path d="m46.56-58.55 1.42 1.6 2.09 1.42 2.54 1.54 2.33 1.72 1.97 1.87 1.77 2.03 1.77 2.16 1.95 2.28 2.24 2.35 2.54 2.37 2.78 2.35 2.81 2.3 2.64 2.27L77.78-30l2.19 2.33 2.17 2.39 2.33 2.44 2.51 2.46 2.54 2.45 2.32 2.4 1.97 2.37 1.81 2.39 2.05 2.45 2.61 2.52 2.93 2.52 2.68 2.52 3.91 2.97" filter="url(#a)"/><path d="m46.15-59.54.71 1.12 1.31 1.73 1.34 1.81 1.29 1.87 1.26 1.98 1.23 2.07 1.18 2.11 1.12 2.12 1.05 2.11 1.01 2.12.97 2.16.94 2.2.9 2.27.85 2.33.81 2.39.73 2.4.67 2.37.58 2.28.51 2.2.45 2.24.42 2.4.38 2.54.32 2.43" filter="url(#a)"/><path d="m46.15-59.54 1.72 1.14 2.01 1.76 1.23 1.83.94 1.9 1.03 2.02 1.29 2.09 1.53 2.13 1.72 2.14 1.85 2.14 1.96 2.17 2.02 2.2 2.01 2.25 1.88 2.3 1.63 2.35 1.33 2.38 1.05 2.39.88 2.37.89 2.36 1.05 2.37 1.33 2.39 1.58 2.43 1.73 2.5 1.66 2.54 1.42 2.58 1.09 2.62.79 2.64.68 2.61.75 2.47 1 2.19 1.31 2.01 1.27 2.49" filter="url(#a)"/><path d="m45.15-60.15 2.03 1.6 2.48 1.5 3.13 1.49 4.41 1.58 5.72 1.72L69-50.39l5.06 2.03 3.21 2.15 1.5 2.27.72 2.34 1 2.36 1.9 2.35 2.8 2.31 3.26 2.29 3.24 2.3 2.97 2.34 2.75 2.39 2.83 2.44 3.15 2.46 3.57 2.45 3.86 2.42 3.98 2.39 3.91 2.41 3.68 2.44 3.24 2.49 2.65 2.47 2.32 2.34 3.24 2.06 5.39 1.1" filter="url(#a)"/><path d="m44.48-61.32 1.55 1.46 1.94 1.53 1.97 1.72 1.96 1.81 2.14 1.92 2.55 2.01 3.12 2.09 3.61 2.12 3.86 2.15 3.79 2.16 3.55 2.18 3.42 2.22 3.5 2.27 3.78 2.31 4.06 2.35 4.11 2.38 3.78 2.39 3.06 2.39 2.08 2.38.96 2.4-.07 2.41-.82 2.46-1.12 2.51-.94 2.54-.32 2.58.51 2.59 1.3 2.57 1.86 2.54 2.21 2.45 2.54 2.37 3.01 2.31 3.56 2.32 3.8 2.4 3.09 2.5 1.07 2.44-.95 1.48" filter="url(#a)"/><path d="m44.48-61.32 1.4 1.45 1.57 1.54 2.21 1.71 2.49 1.82 2.35 1.91 2.05 2.01 1.92 2.09 2.03 2.12 2.31 2.14 2.6 2.16 2.78 2.18 2.82 2.22 2.73 2.26 2.56 2.31 2.33 2.35 2.15 2.38 2.11 2.39 2.28 2.38 2.63 2.38 3.1 2.39 3.54 2.41 3.82 2.46 3.85 2.5 3.67 2.55 3.35 2.57 3 2.6 2.72 2.59 2.52 2.54 2.43 2.45 2.42 2.35 2.52 2.28 2.61 2.29 2.45 2.42 2.11 2.71.04 3.68" filter="url(#a)"/><path d="m39.97-65.57 2.41 2.05 1.82 1.79 1.46 1.64 1.31 1.64 1.27 1.7 1.28 1.78 1.29 1.87 1.29 1.97 1.28 2.04 1.24 2.08 1.2 2.12 1.12 2.12 1.07 2.14 1.01 2.17.97 2.21.94 2.28.9 2.33.88 2.39.83 2.41.77 2.38.7 2.3.62 2.22.54 2.24.49 2.41.44 2.56.31 2.44m-26.94-55.2 8.64 1.17 4.17 1.76.52 1.84.01 1.74.64 1.65 1.35 1.62 2.03 1.65 2.83 1.74 3.71 1.87 4.41 1.99 4.6 2.13 4.19 2.24 3.3 2.31 2.33 2.34 1.63 2.34 1.38 2.31 1.57 2.3 2.05 2.3 2.68 2.33 3.35 2.4 3.97 2.45 4.48 2.47 4.78 2.45 4.78 2.41 4.4 2.37 3.58 2.38 2.25 2.47.61 2.56-.09 2.45 2.57 1.86" filter="url(#a)"/><path d="m40.47-65.49 11.56 1.14 1.65 1.74-.04 1.83.66 1.73 1.73 1.62 2.59 1.58 3.31 1.61L66-52.55l4.89 1.8 5.52 1.94 5.56 2.09 4.8 2.21 3.33 2.32 1.77 2.37.83 2.36 1.07 2.28L96.24-33l4.27 2.12 5.52 2.19 5.71 2.41 5.83 2.61 6.61 2.22M37.72-67.73l2.29 2.1 2.16 1.98 1.9 1.81 1.69 1.71 1.55 1.69 1.44 1.73 1.35 1.8 1.28 1.89 1.24 1.98 1.21 2.05 1.18 2.09 1.15 2.12 1.12 2.15 1.08 2.17 1.04 2.2 1 2.24.95 2.3.93 2.34.88 2.38.84 2.38.8 2.38.72 2.36.64 2.35.55 2.37.47 2.43.41 2.5.38 2.54.35 2.56.32 2.59.28 2.76.21 3.09.09 2.96" filter="url(#a)"/><path d="m37.75-67.78 1.46 1.77 1.28 1.62 1.36 1.74 1.21 1.78.78 1.71.37 1.64.22 1.59.34 1.62.64 1.69.9 1.79 1.03 1.93.98 2.07.78 2.21.53 2.31.27 2.39.07 2.37-.09 2.3-.25 2.15-.38 2.06-.44 2.12-.45 2.51-.57 3.47" filter="url(#a)"/><path d="m37.75-67.78 1.97 1.8 1.46 1.66 1.38 1.78 1.38 1.79 1.35 1.73 1.24 1.68 1.1 1.65.96 1.69.87 1.78.86 1.89.88 2.02.92 2.14.95 2.24.92 2.3.82 2.33.7 2.35.54 2.33.41 2.33.36 2.35.35 2.37.39 2.4.41 2.44.38 2.45.29 2.45.12 2.45-.05 2.43-.23 2.44-.33 2.44-.39 2.43-.39 2.41-.34 2.36-.28 2.29-.23 2.26-.2 2.28-.27 2.35-.48 2.46-.54 2.45" filter="url(#a)"/><path d="m35.79-69.52 1.4.82 1.93 1.42 1.9 1.72 1.8 1.8 1.7 1.78 1.6 1.74 1.54 1.73 1.53 1.76 1.59 1.82 1.65 1.89 1.67 1.98 1.61 2.03 1.47 2.09 1.29 2.12 1.13 2.15 1 2.18.94 2.21.95 2.25.98 2.3.99 2.34.99 2.38.96 2.38.89 2.38.85 2.37.82 2.37.83 2.39.88 2.44.91 2.49.91 2.55.84 2.58.71 2.63.52 2.73.3 2.83.09 2.7-.09 1.96" filter="url(#a)"/><path d="m34.68-70.36 1.84 1.32 1.98 1.47L40.68-66l2.58 1.66 2.88 1.73 2.77 1.74 2.26 1.71 1.62 1.68 1.19 1.68 1.1 1.7 1.37 1.78 1.84 1.88 2.35 2 2.67 2.12 2.74 2.22 2.57 2.29 2.26 2.33 1.93 2.33 1.71 2.33 1.64 2.32 1.73 2.33 1.86 2.36 2.02 2.4 2.09 2.44 2.08 2.46 1.94 2.46 1.72 2.43 1.54 2.42 1.48 2.42 1.68 2.46 2.09 2.5 2.55 2.48 2.78 2.36 2.47 2.07 1.02 1.12M32.67-71.96l2.35 1.46 3.67 1.42 4.4 1.47 3.84 1.56 2.78 1.65 2.08 1.7 2.04 1.72 2.5 1.7 3.08 1.67 3.41 1.67 3.35 1.68 2.94 1.76 2.44 1.85 2.06 1.97 2.07 2.09 2.52 2.21 3.4 2.29 4.46 2.34 5.41 2.34 5.96 2.31 6 2.28 5.61 2.26 4.98 2.31 4.41 2.4 4.1 2.49 4.04 2.55 4.05 2.54 3.99 2.39 3.88 1.97 1.06 1.12" filter="url(#a)"/><path d="m32.67-71.96 2.53 1.46 3.52 1.43L42-67.59l2.81 1.57 2.65 1.65 2.68 1.7 2.73 1.73 2.88 1.7 3.15 1.68 3.45 1.68 3.6 1.7 3.52 1.77 3.23 1.87 2.85 1.99 2.53 2.1 2.35 2.21 2.28 2.29 2.31 2.33 2.32 2.33 2.27 2.32 2.2 2.31 2.16 2.31 2.23 2.34 2.44 2.4 2.78 2.45 3.12 2.49 3.29 2.47 3.23 2.41 3.01 2.35 2.96 2.36 3.16 2.52 2.89 2.74 1.35 2.91" filter="url(#a)"/><path d="m32.67-71.96 2.45 1.45 3.25 1.42 3.97 1.46 4.3 1.56 4.29 1.63 4.14 1.7 3.95 1.72 3.75 1.69 3.39 1.67 2.88 1.65 2.42 1.66 2.19 1.73 2.33 1.83 2.72 1.95 3.13 2.08 3.38 2.2 3.44 2.3 3.48 2.36 3.67 2.35 4.14 2.31 4.78 2.23 5.25 2.19 5.13 2.24 4.23 2.38 3.18 2.52 3.86 2.5 7.68 2.38" filter="url(#a)"/><path d="m30.94-73.17 3.35 1.72 4.28 1.4 3.41 1.35 2.51 1.48 2.04 1.63 1.75 1.71 1.48 1.73 1.31 1.73 1.32 1.73 1.48 1.75 1.77 1.81 2.14 1.87 2.57 1.95 3.01 2.01 3.36 2.07 3.56 2.11L73.81-43l3.36 2.15 3.09 2.18 2.88 2.22 2.75 2.28 2.7 2.34 2.61 2.4 2.39 2.44 2.03 2.4 1.74 2.3 1.88 2.18 2.68 2.21 3.97 2.49 5.18 2.7" filter="url(#a)"/><path d="m27.87-74.9 7.27 1.15 6.68 1.13 4.05 1.23 2.61 1.29 2.55 1.38 2.98 1.5 3.11 1.6 2.8 1.67 2.4 1.71 2.19 1.72 2.24 1.73 2.4 1.77 2.53 1.8 2.55 1.88 2.45 1.94 2.26 2.01 2.11 2.06 2.14 2.11 2.47 2.12 3.11 2.15 3.93 2.18 4.71 2.21 5.3 2.28 5.65 2.34 5.79 2.41 5.81 2.46 5.69 2.44 5.41 2.28 4.88 2.07 4.08 2.1 3.88 2.93" filter="url(#a)"/><path d="m27.3-75.47 4.99 1.31 6.18 1.12 3.66 1.19 1.3 1.3.43 1.38.74 1.47 1.55 1.54 2.37 1.61 2.93 1.67 3.18 1.69 3.29 1.68 3.58 1.67 4.17 1.66 5.05 1.68 5.98 1.72 6.66 1.82 6.84 1.93 6.46 2.06 5.59 2.2 4.48 2.3 3.52 2.38 3.08 2.39 3.24 2.31 3.82 2.2 4.48 2.09 4.94 2.15 4.87 2.51 4.24 3.5M27.34-75.23l1.22.63 1.41.91 1.6 1.09 1.68 1.19 1.68 1.28 1.69 1.38 1.73 1.48 1.78 1.58 1.79 1.66 1.75 1.7 1.69 1.71 1.62 1.73 1.57 1.75 1.54 1.79 1.52 1.86 1.5 1.93 1.46 2.01 1.4 2.06 1.31 2.09 1.23 2.12 1.15 2.13L60.77-39l1.08 2.19 1.08 2.24 1.06 2.31 1.02 2.43 1.02 2.65 1.08 2.89 1.08 2.48" filter="url(#a)"/><path d="m27.34-75.23-.56.63.72.93 1.3 1.09 1.4 1.21 1.39 1.3L33-68.68l1.36 1.5 1.26 1.6 1.1 1.67.95 1.7.82 1.73.65 1.75.44 1.78.18 1.83-.06 1.89-.26 1.95-.36 2.02-.36 2.06-.32 2.11-.27 2.14-.23 2.17-.21 2.2-.2 2.25-.14 2.29-.04 2.34.01 2.39-.05 2.4-.37 2.38-.97 2.35-1.74 2.33-2.39 2.34-2.55 2.44-2.07 2.56-1.27 2.66-.88 2.68-.61 2.46" filter="url(#a)"/><path d="m26.06-75.98 2 .81 2.35 1.03 2.34 1.1 2.57 1.2 2.96 1.29 3.25 1.38 3.29 1.47 3.01 1.54 2.54 1.61 2.08 1.66 1.81 1.68 1.77 1.69 1.92 1.67 2.14 1.67 2.32 1.69 2.5 1.74 2.71 1.83 3.04 1.94 3.42 2.07 3.73 2.19 3.79 2.3 3.5 2.36 2.96 2.37 2.45 2.32 2.3 2.22 2.65 2.17 3.12 2.22 3.07 2.42 2.42 2.64 3.01 2.25" filter="url(#a)"/><path d="m26.09-75.92 1.51.63 1.78.75 2.25.92 2.55 1.06 2.87 1.19 3.06 1.28 2.94 1.39 2.51 1.48 2.01 1.59 1.7 1.65 1.71 1.7 2.05 1.72 2.57 1.74 3.13 1.77 3.68 1.82 4.18 1.88 4.67 1.94 5.11 2.01 5.4 2.07 5.36 2.1L92-43.1l4.02 2.16 3.11 2.18 2.55 2.23 2.65 2.29 3.37 2.34 4.28 2.41 4.77 2.44 4.55 2.4 3.84 2.32 3.31 2.19 3.65 2.22 4.91 2.5 4.35 2.71" filter="url(#a)"/><path d="m22.07-77.68 3.02 1.32 1.98.93 1.99.86 2.57.95 3.04 1.05 3.07 1.17 2.89 1.27 2.85 1.37 3.21 1.47 3.92 1.57 4.65 1.64 5.07 1.69 5.01 1.71 4.55 1.72 3.97 1.76 3.57 1.8 3.52 1.86 3.84 1.94 4.3 2 4.63 2.06 4.62 2.1 4.22 2.12 3.6 2.13 3.03 2.16 2.8 2.19 3 2.25 3.52 2.31 3.97 2.43 4.1 2.66 4.74 2.89 8.73 2.49" filter="url(#a)"/><path d="m20.67-78.29 4.3.89 5.58 1 3.97.92 2.43.91 1.66.97 1.53 1.07 1.82 1.18 2.22 1.27 2.52 1.38 2.61 1.48 2.49 1.57 2.23 1.63 1.94 1.69 1.77 1.71 1.77 1.75 1.94 1.77 2.23 1.83 2.53 1.88 2.75 1.94 2.85 2.01 2.85 2.06 2.8 2.1 2.71 2.14 2.62 2.16 2.55 2.19 2.57 2.23 2.74 2.29 3.06 2.35 3.4 2.4 3.57 2.44 3.42 2.41 3.03 2.32 2.7 2.2 2.67 2.22 2.52 2.51.99 2.71" filter="url(#a)"/><path d="m16.89-79.96.13.83 1.66.84 2.48.92 2.42.99 1.92 1.04 1.41 1.09 1.16 1.13 1.19 1.2 1.36 1.27 1.48 1.35 1.46 1.44 1.28 1.51 1.03 1.58.76 1.64.56 1.67.45 1.68.45 1.67.49 1.65.5 1.66.43 1.69.28 1.78.11 1.88.04 2.02.1 2.18.2 2.33.24 2.49.1 2.63-.24 2.76-.75 2.65" filter="url(#a)"/><path d="m16.08-80.26 1.32.48 1.89.7 2.24.81 2.46.9 2.53.98L29-75.37l2.33 1.08 2.12 1.13 1.93 1.19 1.84 1.27 1.88 1.34 2.06 1.42 2.28 1.51 2.47 1.57 2.54 1.64 2.51 1.67 2.4 1.68 2.32 1.66L58-56.57l2.41 1.64 2.53 1.66 2.71 1.74 2.93 1.85 3.13 2 3.06 2.15 2.47 2.31 1.53 2.41 1.67 2.3" filter="url(#a)"/><path d="m13.56-81.09 2.48.71 3.2.91 3.43.95 3.23.97 2.58.94 1.87.92 1.47.92 1.54.96 1.93 1.02 2.39 1.1 2.69 1.2 2.74 1.29 2.6 1.39 2.44 1.51 2.47 1.62L53.33-63l3.12 1.69 3.46 1.67 3.64 1.66 3.7 1.66 3.97 1.58 5.48 1.22" filter="url(#a)"/><path d="m13.56-81.09 2.21.73 2.48.92 2.36.98 2.23.98 2.06.96 1.86.94 1.74.96 1.68 1.01 1.72 1.08 1.79 1.17 1.9 1.26 2.01 1.36 2.1 1.47 2.13 1.54 2.14 1.62 2.12 1.67 2.09 1.71 2.06 1.74 2.02 1.77 1.99 1.82 1.93 1.88 1.86 1.94 1.8 2 1.74 2.06 1.72 2.1 1.69 2.13 1.69 2.15 1.69 2.18 1.67 2.23 1.6 2.27 1.45 2.35 1.28 2.44 1.21 2.51 1.37 2.49 1.68 2.29 1.73 1.81 1.15 1.43" filter="url(#a)"/><path d="m14.37-80.88 4.98.54 1.78.58 2.22.69 3.28.8 3.92.88 3.72.96 2.81 1.02 1.7 1.06.91 1.12.76 1.18 1.18 1.25 1.97 1.33 2.78 1.41 3.43 1.49L53.6-65l3.93 1.63 3.94 1.68L65.38-60l3.92 1.66 4.04 1.62 4.22 1.58 4.45 1.61 4.61 1.67 4.5 1.78 3.66 1.94 1.7 2.7" filter="url(#a)"/><path d="m14.37-80.88 1.7.54 1.83.58 2.09.68 2.34.79 2.43.88 2.37.96 2.26 1.01 2.25 1.06 2.41 1.11 2.71 1.17 3.03 1.24 3.23 1.32 3.19 1.39 2.91 1.48 2.56 1.56 2.31 1.64 2.37 1.69 2.77 1.7 3.39 1.67 3.84 1.59 3.76 1.53 3.16 1.55 2.71 1.82 3.2 2.61" filter="url(#a)"/><path d="m14.37-80.88 2.5.54 3.72.59 3.08.69 2.31.8 2.2.89 2.39.97 2.55 1.02 2.58 1.08 2.65 1.12 2.79 1.2 2.99 1.26 3.09 1.35 3.07 1.42 2.95 1.5 2.82 1.57 2.77 1.64 2.85 1.67 3.09 1.67 3.55 1.67 4.22 1.64 5 1.64 5.69 1.67 6.05 1.74 6.1 1.85 6.12 2 6.39 2.15 6.69 2.32 6.2 2.41 3.53 2.3" filter="url(#a)"/><path d="m14.37-80.88 1.46.54 1.48.58 1.69.69 1.9.8 2.06.88 2.13.96 2.08 1.02 1.97 1.06 1.88 1.12 1.81 1.18 1.8 1.25 1.8 1.33 1.84 1.41 1.86 1.49L41.99-65l1.86 1.63 1.83 1.68L47.46-60l1.7 1.66 1.57 1.62 1.44 1.58 1.35 1.61 1.35 1.67 1.39 1.78 1.39 1.94 1.87 2.7" filter="url(#a)"/><path d="m12.44-81.31 2.4.37 4.08.65 3.85.84 3.19.92 2.81.94 2.61.94 2.36.93 2.08.93 1.92.96 2.04 1.02 2.51 1.11 3.24 1.19 4.12 1.29 4.95 1.4 5.52 1.51 5.66 1.61 5.17 1.68 4.18 1.69 3.28 1.68L81.89-58l5.3 1.67 7.69 1.58 8.53 1.23" filter="url(#a)"/><path d="m12.44-81.31 1.42.38 2.09.67 2.44.86 2.46.93 2.28.96 2.07.95 1.93.95 1.87.97 1.87 1.01 1.87 1.08 1.88 1.16 1.89 1.26 1.9 1.35 1.93 1.45 1.93 1.54 1.94 1.62 1.93 1.66 1.9 1.7 1.88 1.74 1.85 1.76 1.83 1.82 1.82 1.86 1.81 1.94 1.79 2 1.74 2.06 1.67 2.1 1.6 2.12 1.55 2.15 1.55 2.16 1.59 2.21 1.61 2.25 1.55 2.32 1.4 2.44 1.25 2.66 1.14 2.91.42 2.5" filter="url(#a)"/><path d="m11.8-81.5 2.7.59 2.44.56 3.03.62 3.43.71 3.34.8 2.84.89 2.19.97 1.74 1.02 1.64 1.08 1.88 1.15 2.38 1.21 2.95 1.28 3.45 1.36 3.79 1.43 3.89 1.52 3.84 1.57 3.69 1.63 3.56 1.67 3.44 1.67 3.34 1.68 3.21 1.68 3 1.7 2.81 1.74 2.8 1.82 3.08 1.93 3.7 2.05 4.52 2.19 5.25 2.31 5.62 2.4 5.5 2.42 4.99 2.35 4.37 2.19 3.94 2 3.73 1.94 1.83 1.78" filter="url(#a)"/><path d="m11.8-81.5 1.96.58 1.49.56 1.46.61 1.53.7 1.58.78 1.54.88 1.34.95 1.05 1.01.71 1.07.5 1.11.48 1.19.68 1.25.94 1.33 1.13 1.4 1.09 1.49.8 1.57.3 1.63-.27 1.68-.89 1.69-1.52 1.66-2.11 1.62-2.55 1.59-2.56 1.61-1.93 1.68-.78 1.78-.08 1.94-2.22 2.7" filter="url(#a)"/><path d="m4.44-82.38 3.49.27 2.65.36 2.51.41 2.45.47 2.4.53 2.39.61 2.37.69 2.34.77 2.31.85 2.35.93 2.52.99 2.85 1.06 3.32 1.1 3.84 1.18 4.23 1.24 4.37 1.31 4.21 1.4 3.79 1.48 3.29 1.55 2.89 1.64 2.7 1.69 2.73 1.71 2.96 1.67 3.38 1.61 3.96 1.54 4.48 1.57 4.63 1.82 4.51 2.62" filter="url(#a)"/><path d="m4.44-82.38 2.62.26 2.35.36 2.19.4 2.02.46 1.87.52 1.78.59 1.79.67 1.89.75 2.03.84 2.15.91 2.21.97 2.18 1.03 2.07 1.08 1.94 1.13 1.83 1.2 1.78 1.28 1.82 1.34 1.91 1.42 2.06 1.49 2.22 1.6 2.37 1.81 2.24 2.12" filter="url(#a)"/><path d="m3.09-82.61 1.96.23 2.66.29 2.89.36 2.79.41 2.46.48 2.1.54 1.88.61 1.92.7 2.2.78 2.62.86 3.04.93 3.34 1 3.48 1.07 3.47 1.12 3.37 1.19 3.3 1.27 3.37 1.34 3.63 1.41 4.1 1.5 4.68 1.56 5.21 1.63 5.51 1.66 5.43 1.68 4.99 1.67 4.41 1.65 3.94 1.66 3.81 1.68 3.97 1.75 4.17 1.85 4.13 2 3.81 2.16 3.48 2.32 3.53 2.43 3.89 2.31" filter="url(#a)"/><path d="m1.97-82.63 1.66.11 2.38.25 2.47.3 2.54.35 2.72.41 2.91.52 3.02.64 3.01.75 2.87.83 2.62.89 2.32.92 1.99.95 1.71.97 1.56 1.02 1.6 1.08 1.87 1.16 2.32 1.24 2.87 1.33 3.45 1.43 3.95 1.52 4.29 1.59 4.45 1.65 4.42 1.7 4.24 1.72 3.93 1.75 3.56 1.79 3.13 1.85 2.74 1.93 2.46 2 2.42 2.07 2.65 2.11 3.11 2.12 3.64 2.12 3.98 2.13 3.98 2.21 3.68 2.35 4.48 2.16" filter="url(#a)"/><path d="m1.97-82.63 1.72.1 2.46.25 2.45.29 2.36.33 2.31.38 2.42.48 2.67.6 3.03.72 3.38.82 3.63.88 3.74.91 3.76.91 3.77.92 3.82.93 3.93.99 4.04 1.06 4.06 1.13 4.17 1.2 4.71 1.27 5.97 1.41 7.64 1.7 7.47 2.06" filter="url(#a)"/></g><g fill="none" stroke="#000"><circle cx="10.73" cy="22.472" r="1.792" filter="url(#a)"/><circle cx="12.73" cy="22.504" r="1.534" filter="url(#a)"/><circle cx="10.838" cy="22.636" r="2.274" filter="url(#a)"/><circle cx="10.906" cy="22.64" r="2.204" filter="url(#a)"/><circle cx="12.598" cy="21.52" r="1.374" filter="url(#a)"/><circle cx="11.494" cy="20.212" r="1.652" filter="url(#a)"/><circle cx="11.614" cy="19.084" r="1.154" filter="url(#a)"/><circle cx="10.298" cy="21.368" r="1.922" filter="url(#a)"/><circle cx="9.246" cy="22.548" r="1.122" filter="url(#a)"/><circle cx="10.602" cy="20.952" r="2.282" filter="url(#a)"/><circle cx="-7.362" cy="19.572" r="2.33" filter="url(#a)"/><circle cx="-8.89" cy="22.512" r="2.18" filter="url(#a)"/><circle cx="-7.738" cy="23.008" r="2.686" filter="url(#a)"/><circle cx="-7.618" cy="22.484" r="2.464" filter="url(#a)"/><circle cx="-9.89" cy="22.22" r="1.422" filter="url(#a)"/><circle cx="-9.462" cy="21.924" r="2.946" filter="url(#a)"/><circle cx="-7.506" cy="20.544" r="1.372" filter="url(#a)"/><circle cx="-8.578" cy="22.08" r="1.146" filter="url(#a)"/><circle cx="-10.822" cy="22.168" r="1.102" filter="url(#a)"/><circle cx="-8.306" cy="21.276" r="1.426" filter="url(#a)"/></g><path fill="#D77F8C" stroke="#000" stroke-linejoin="round" stroke-width="3" d="m13.48 58.71.07.63.21.71-.11.29-.01.39.07.61-.06-.2-.06.76-.05-.09-.05.87-.1.4v-.1l-.42 1.06.05-.34-.02.37-.33.45-.79 1.43.12-.12.19-.15-.86 1.09.57-.66-.44.45-.18.37-.76.81-.74.77-.21.25-.95.96-.3.25.65-.58-.5.4-.66.58-1.2.85.16-.04-.25.15-.25.15-1.25.84-1.23.72.53-.29-.61.32-.14.05-1.91.99-1.1.47.54-.24-.61.29-.68.27-1.45.54.82-.29-.9.32-.64.21-.97.31-1.42.39.62-.16-1.97.47-.05.02-.9.18.13-.02-.45.09-.45.07-.44.08-.59.07-.95.14-.42.04-1.51.08.24.02-1.28.06-.89-.03.1.02-1.17-.04-.32.02-1.05-.12-.48-.02-.27-.01-.15-.05-1.21-.22.11.04-1.91-.43.06.06-.84-.24-1.2-.47.32.1-.78-.31-.63-.26.75.3-.3-.13-.91-.51-.85-.45.45.31-.83-.57.11.06-.45-.35-.81-.73-.6-.46.36.25-.43-.38-.08-.24-.29-.18-.47-1-.08.13-.19-.72-.14.03-.13-.36-.16-1.1.12.33-.03-.14-.19-.96-.04-.62.17-.07.02-.51.08-1v.58l-.05-.6.26-.56-.17.26.18-.53.64-1.44.1-.16-.35.64.49-.7.25-.41.44-.78.26-.29.88-1.23-.5.6.59-.66.81-.78.08-.12.08-.12.47-.4-.17.2.92-.84 1.11-.84.33-.24-.58.36 1.67-1.14.7-.44.39-.23-.76.43 2.1-1.16.43-.26-.29.16.87-.46 1.48-.65.71-.29.28-.13.06-.02.56-.22.8-.29-.12.04 2.19-.69-.24.06 1.55-.42-.56.14-.23.07 2.14-.53-.58.13 1.96-.38-.81.15 1.64-.3.83-.11.73-.1.24-.03.55-.03h.01l1.17-.1 1.48.01 1.18-.03-1.07.01H.69l1.57.19-.36-.11-.53.02.93.03.94.13.93.16.26.1.71.17.21.04 1.53.43-.37-.17.02.1.62.13 1.48.63.36.23-.47-.28.34.24 1.44.95.4.25h.06l.07-.01.01.02.36.38.85.86.3.54.3.3-.07-.08.01-.11.01.26.42.64.26.57-.06-.09" filter="url(#a)"/></svg>