<svg viewBox="-100 -100 200 200" xmlns="http://www.w3.org/2000/svg" width="500" height="500" id="face-svg">
    <defs>
      <clipPath id="leftEyeClipPath">
        <polyline points="31.91,-1.54 31.61,-1.61 31.27,-1.67 30.88,-1.73 30.46,-1.79 30,-1.84 29.5,-1.89 28.96,-1.94 28.39,-1.99 27.79,-2.03 27.16,-2.07 26.5,-2.11 25.82,-2.14 25.11,-2.18 24.37,-2.21 23.62,-2.24 22.77,-2.27 21.88,-2.29 20.97,-2.32 20.03,-2.34 19.07,-2.37 18.08,-2.39 17.08,-2.41 16.05,-2.43 15.01,-2.44 13.95,-2.46 12.88,-2.48 11.81,-2.49 10.72,-2.51 9.63,-2.52 8.54,-2.53 7.45,-2.54 6.36,-2.55 5.27,-2.56 4.19,-2.56 3.12,-2.57 2.05,-2.57 1,-2.58 -0.04,-2.58 -1.06,-2.58 -2.07,-2.58 -3.05,-2.58 -4.02,-2.58 -4.97,-2.58 -5.89,-2.57 -6.8,-2.56 -7.67,-2.56 -8.52,-2.55 -9.35,-2.54 -10.15,-2.53 -10.92,-2.52 -11.66,-2.5 -12.38,-2.49 -13.06,-2.47 -13.72,-2.45 -14.34,-2.43 -14.94,-2.41 -15.51,-2.39 -16.05,-2.37 -16.56,-2.34 -17.04,-2.32 -17.5,-2.29 -17.93,-2.26 -18.33,-2.23 -18.71,-2.2 -19.06,-2.17 -19.39,-2.14 -19.69,-2.1 -19.97,-2.07 -20.23,-2.03 -20.47,-1.99 -20.68,-1.95 -20.87,-1.91 -21.04,-1.86 -21.18,-1.82 -21.31,-1.77 -21.41,-1.73 -21.49,-1.68 -21.55,-1.63 -21.59,-1.58 -20.77,-0.91 -20.41,-0.83 -20.04,-0.74 -19.65,-0.65 -19.26,-0.57 -18.85,-0.48 -18.42,-0.39 -17.99,-0.3 -17.54,-0.2 -17.08,-0.11 -16.61,-0.02 -16.13,0.08 -15.64,0.18 -15.13,0.27 -14.62,0.37 -14.09,0.47 -13.55,0.57 -12.99,0.67 -12.42,0.77 -11.84,0.87 -11.24,0.98 -10.64,1.08 -10.02,1.18 -9.39,1.28 -8.74,1.38 -8.09,1.48 -7.42,1.58 -6.75,1.68 -6.06,1.77 -5.37,1.86 -4.67,1.95 -3.95,2.04 -3.23,2.12 -2.5,2.2 -1.76,2.28 -1.01,2.35 -0.25,2.42 0.51,2.48 1.29,2.53 2.07,2.58 2.85,2.63 3.65,2.66 4.45,2.69 5.26,2.71 6.07,2.73 6.9,2.74 7.72,2.74 8.56,2.73 9.4,2.71 10.24,2.69 11.09,2.66 11.95,2.61 12.81,2.56 13.68,2.5 14.54,2.43 15.41,2.36 16.29,2.27 17.16,2.17 18.04,2.07 18.91,1.96 19.79,1.84 20.66,1.71 21.53,1.58 22.39,1.44 23.25,1.29 23.93,1.19 24.6,1.09 25.26,0.99 25.91,0.88 26.54,0.77 27.16,0.66 27.75,0.55 28.33,0.43 28.89,0.32 29.42,0.2 29.93,0.09 30.41,-0.03 30.86,-0.14 31.28,-0.26 31.66,-0.37" />
      </clipPath>
      <clipPath id="rightEyeClipPath">
        <polyline points="-30.98,-1.4 -30.86,-1.45 -30.7,-1.5 -30.5,-1.55 -30.26,-1.6 -29.97,-1.64 -29.65,-1.68 -29.29,-1.72 -28.88,-1.75 -28.45,-1.79 -27.98,-1.82 -27.47,-1.85 -26.93,-1.88 -26.36,-1.9 -25.76,-1.93 -25.13,-1.95 -24.48,-1.97 -23.79,-1.99 -23.05,-2.01 -22.27,-2.03 -21.46,-2.05 -20.61,-2.07 -19.73,-2.08 -18.81,-2.1 -17.87,-2.11 -16.9,-2.13 -15.9,-2.14 -14.89,-2.15 -13.85,-2.16 -12.8,-2.17 -11.73,-2.18 -10.65,-2.18 -9.56,-2.19 -8.47,-2.2 -7.37,-2.2 -6.27,-2.2 -5.16,-2.2 -4.07,-2.21 -2.97,-2.21 -1.89,-2.2 -0.81,-2.2 0.25,-2.2 1.3,-2.19 2.33,-2.19 3.35,-2.18 4.35,-2.17 5.32,-2.16 6.28,-2.15 7.21,-2.14 8.12,-2.12 9,-2.11 9.85,-2.09 10.68,-2.07 11.48,-2.05 12.25,-2.02 12.99,-2 13.7,-1.97 14.38,-1.95 15.03,-1.92 15.65,-1.89 16.24,-1.85 16.8,-1.82 17.33,-1.78 17.84,-1.75 18.31,-1.71 18.76,-1.67 19.19,-1.62 19.58,-1.58 19.96,-1.53 20.3,-1.48 20.62,-1.43 20.92,-1.38 21.19,-1.33 21.44,-1.27 21.66,-1.22 21.86,-1.16 22.03,-1.1 22.18,-1.03 22.31,-0.97 22.41,-0.9 22.83,-0.47 22.54,-0.39 22.23,-0.31 21.91,-0.22 21.57,-0.14 21.22,-0.06 20.86,0.03 20.48,0.11 20.09,0.2 19.68,0.29 19.26,0.37 18.82,0.46 18.37,0.54 17.91,0.63 17.43,0.71 16.94,0.8 16.43,0.88 15.91,0.96 15.37,1.05 14.81,1.13 14.24,1.21 13.65,1.29 13.05,1.37 12.44,1.45 11.81,1.52 11.16,1.6 10.5,1.67 9.83,1.73 9.14,1.8 8.44,1.86 7.73,1.91 7.01,1.96 6.27,2.01 5.53,2.05 4.77,2.09 4,2.12 3.22,2.15 2.43,2.17 1.62,2.19 0.81,2.2 0,2.21 -0.83,2.21 -1.67,2.2 -2.51,2.19 -3.36,2.17 -4.22,2.14 -5.09,2.11 -5.96,2.08 -6.84,2.03 -7.72,1.98 -8.6,1.93 -9.49,1.87 -10.39,1.8 -11.28,1.73 -12.18,1.65 -13.08,1.57 -13.97,1.49 -14.87,1.39 -15.77,1.3 -16.66,1.2 -17.55,1.1 -18.44,0.99 -19.32,0.88 -20.19,0.77 -21.05,0.65 -21.76,0.57 -22.45,0.48 -23.14,0.39 -23.81,0.3 -24.46,0.21 -25.1,0.12 -25.72,0.03 -26.33,-0.06 -26.91,-0.15 -27.47,-0.24 -28,-0.33 -28.52,-0.42 -29,-0.5 -29.45,-0.59 -29.88,-0.67" />
      </clipPath>
      <filter id="fuzzy">
        <feTurbulence id="turbulence" baseFrequency="0.05" numOctaves="3" type="noise" result="noise" />
        <feDisplacementMap in="SourceGraphic" in2="noise" scale="2" />
      </filter>
      <linearGradient id="rainbowGradient" x1="0%" y1="0%" x2="100%" y2="0%">
        <stop offset="0%" style="stop-color: rgb(173, 27, 33); stop-opacity: 1" />
        <stop offset="50%" style="stop-color: rgb(111, 161, 78); stop-opacity: 1" />
        <stop offset="100%" style="stop-color: rgb(24, 129, 252); stop-opacity: 1" />
      </linearGradient>
    </defs>
    <rect x="-100" y="-100" width="100%" height="100%" fill="rgb(242, 166, 198)" />
    <polyline id="faceContour" points="76.58,0.94 76.45,1.26 76.57,1.45 76.13,2.34 76.33,6.79 75.95,8.87 76.26,8.12 76.12,9.08 75.78,10.91 75.47,13.02 75.48,13.12 75.03,15.14 74.66,18.58 74.76,16.28 74.43,18.4 74.8,18.06 74.04,19.95 73.8,21.81 73.26,25.05 73.28,24.54 72.21,27.21 72.34,27.32 72.01,29.13 71.88,28.55 71.5,30.67 71.09,32.17 70.77,32.42 70.14,34.12 68.62,36.93 67.55,39.71 67.94,39.17 67.27,40.92 66.62,41.74 65.99,42.8 65.86,43.48 65.35,44.21 64.86,45.26 63.88,46.52 63.1,48.81 61.91,50.26 62.75,48.74 60.31,53.02 59.88,53.31 60.39,52.7 59.37,53.84 58.78,54.72 57.21,56.7 56.02,58 55.87,58.11 54.95,59.33 53.22,61.4 53.31,61.38 52.07,62.98 51.86,63.05 50.41,64.61 49.6,65.28 47.77,66.89 47.58,66.94 46.1,68.59 45.26,69.26 46.31,68.18 44.84,69.43 42.41,70.93 42.19,71.66 40.77,72.6 38.34,74.18 40.2,72.75 36.71,75.18 36.02,75.59 34.16,76.53 34.96,76.31 32.76,77.33 31.95,77.72 31.96,77.81 31.08,78.14 29.02,79.33 28.55,79.39 27.63,79.87 24.55,81.15 25.61,81.03 23.8,81.48 20.19,82.62 19.97,82.61 20.81,82.59 20.43,82.56 15.97,83.87 15.63,83.92 16.16,83.75 13.99,84.18 12.38,84.39 12.23,84.55 11.42,84.8 9.5,84.95 7.72,85.25 9.28,85.01 5.78,85.58 4.02,85.41 2.72,85.5 3.85,85.46 2.17,85.66 -0.67,85.86 -2.13,85.61 -3.81,85.63 -3.48,85.62 -4.23,85.62 -4.97,85.48 -6,85.61 -7.56,85.13 -9.88,84.82 -11,84.82 -11.33,84.67 -14.25,84.39 -13.7,84.33 -16.3,83.72 -16.7,83.69 -18.93,83.02 -18.77,82.91 -20.03,82.62 -20.45,82.46 -23.02,81.74 -24.07,81.46 -25.61,80.7 -26.57,80.56 -24.79,81.17 -28.53,79.46 -29.52,79.13 -28.98,79.16 -31.79,77.8 -32.06,77.96 -32.91,77.37 -34.99,76 -34.72,76.6 -36.63,75.2 -36.83,75.08 -38.28,74.2 -38.93,73.78 -40.47,72.61 -40.93,72.39 -43.73,70.08 -45.61,68.76 -46.02,68.45 -45.67,68.75 -47.52,67.36 -46.34,68.15 -49.44,65.17 -49.72,64.96 -49.47,65.22 -52.14,62.9 -52.13,62.55 -54.5,60.1 -53.66,60.56 -55.46,58.59 -56.01,58.72 -55.71,58.67 -57.72,55.93 -57.78,56.06 -59.26,54.27 -60.1,53.19 -60.29,52.89 -60.72,51.4 -61.47,50.6 -63.99,47.22 -62.67,49.03 -62.69,48.97 -65.46,44.6 -65.02,45.11 -65.69,43.98 -66.66,41.6 -67.33,40.37 -67.59,39.95 -68.75,36.99 -68.91,37.52 -69.23,35.93 -68.97,36.86 -70.42,33.21 -70.59,32.62 -71.49,30.81 -71.81,28.54 -71.91,29.17 -72.35,27.19 -73.19,24.63 -72.8,25.65 -73.61,23.66 -74.01,22.18 -73.93,20.97 -74.07,20.47 -74.79,18.04 -74.66,17.46 -75.59,14.09 -74.76,16.23 -75.53,13.52 -75.5,12.93 -75.97,9.51 -75.74,10.14 -75.83,8.44 -76.11,7.28 -75.9,7.24 -76.09,4.29 -76.16,1.55 -76.38,1.69 -76.26,-2.37 -76.27,-1.3 -76.16,-4.37 -76.03,-4.61 -76.22,-4.64 -76.32,-6.66 -76.23,-7.82 -76,-10.02 -75.56,-11.6 -75.87,-11.85 -75.68,-13.11 -75.29,-15.19 -75.02,-15.21 -74.93,-17.08 -74.62,-18.4 -74,-20.31 -74.31,-20.66 -74.24,-20.55 -73.56,-23.1 -72.9,-25.42 -72.53,-26.87 -71.9,-28.12 -71.87,-29.38 -71.97,-28.11 -71.29,-31.1 -70.6,-32.45 -70.06,-34.04 -69,-36.02 -69.39,-36.07 -68.56,-37.41 -68,-39.1 -68.23,-38.22 -66.53,-41.39 -67.05,-41.61 -66.22,-42.44 -64.1,-46.07 -63.89,-47.18 -63.85,-47.24 -62.96,-47.97 -62.02,-49.74 -62.1,-49.71 -60.2,-53.14 -60.9,-52.06 -59.24,-54.06 -58.97,-54.17 -57.15,-57.02 -57.67,-56.44 -55.62,-58.67 -54.87,-59.11 -55.4,-58.99 -52.91,-61.61 -52.58,-61.86 -51.89,-62.35 -51.03,-63.42 -51.77,-62.6 -50.08,-64.68 -47.9,-66.42 -47.28,-67.07 -48.02,-66.7 -45.54,-68.52 -45.34,-69.14 -43.68,-69.97 -44.02,-70.13 -40.79,-72.22 -40.26,-72.77 -38.92,-73.84 -38.87,-73.68 -36.86,-74.68 -36.22,-75.45 -37.26,-74.58 -34.45,-76.19 -35.07,-76.26 -33.12,-77.2 -32.6,-77.37 -29.98,-78.45 -28.13,-79.46 -29.44,-78.81 -27.4,-79.87 -24.97,-80.9 -24.38,-81.05 -24.97,-80.89 -21.38,-82.09 -22.19,-81.75 -18.76,-83.13 -18.84,-82.85 -16.99,-83.6 -15.78,-83.71 -13.95,-84.33 -13.46,-84.27 -13.37,-84.14 -11.1,-84.76 -9.36,-84.76 -10.35,-84.95 -7.88,-85.19 -8.25,-85.01 -4.82,-85.34 -5.18,-85.32 -1.95,-85.44 -2.99,-85.4 -1.87,-85.61 1.65,-85.51 0.14,-85.5 3.37,-85.43 3.2,-85.45 5.9,-85.46 6.22,-85.49 6.27,-85.28 9.97,-85.03 8.8,-84.82 12.23,-84.69 10.29,-84.9 12.04,-84.48 14.59,-83.93 16.37,-83.47 15.9,-83.71 17.12,-83.31 18.15,-83.13 21.31,-82.13 21.73,-81.89 23.56,-81.58 23.27,-81.47 24.83,-80.77 26.61,-80.14 27.17,-79.81 26.59,-80.3 30.62,-78.39 28.95,-79.41 32.42,-77.61 32.7,-77.29 34.38,-76.42 34.19,-76.45 35.44,-75.81 36.34,-75.13 37.08,-74.92 38.08,-74.17 38.68,-73.73 40.46,-72.62 42.2,-71.05 42.97,-70.76 44.53,-69.83 44.34,-69.52 45.58,-69.01 46.49,-68.05 48.36,-66.38 48,-66.8 50.36,-64.35 49.85,-65.08 50.4,-64.12 51.37,-63.52 53.91,-60.36 54.13,-60.75 54.29,-59.93 54.94,-59.3 56.78,-57.5 57.79,-56.04 59.14,-54.01 60.24,-52.68 59.24,-54.21 60.45,-52.36 60.47,-52.06 61.09,-50.75 62.47,-49.57 63.3,-48.13 63.91,-46.62 64.88,-45.68 64.22,-45.73 65.82,-43.73 66.81,-41.53 66.82,-41.82 67.62,-40.17 67.57,-39.38 68.7,-37.06 69.4,-35.21 69.16,-36.77 70.06,-34.13 70.29,-33.06 71.17,-30.72 71.77,-28.5 71.41,-30.27 72.3,-26.82 72.29,-27.27 73,-25.65 73.54,-23.22 73.83,-21.23 73.97,-21.61 73.87,-20.97 74.48,-17.88 74.9,-15.33 75.33,-15.29 75.14,-16.38 75.39,-14.77 75.68,-12.07 75.91,-10.53 76.03,-8.44 75.83,-8.15 75.88,-8.91 76.11,-4.21 76.25,-4.98 76.31,-3.58 76.46,-3.24 76.58,0.94 76.45,1.26" fill="rgb(32, 223, 142)" stroke="black" stroke-width="1.6666666666666665" stroke-linejoin="round" filter="url(#fuzzy)" />
    <g transform="translate(45.18 -26.03)">
      <polyline id="rightCountour" points="-30.98,-1.4 -30.86,-1.45 -30.7,-1.5 -30.5,-1.55 -30.26,-1.6 -29.97,-1.64 -29.65,-1.68 -29.29,-1.72 -28.88,-1.75 -28.45,-1.79 -27.98,-1.82 -27.47,-1.85 -26.93,-1.88 -26.36,-1.9 -25.76,-1.93 -25.13,-1.95 -24.48,-1.97 -23.79,-1.99 -23.05,-2.01 -22.27,-2.03 -21.46,-2.05 -20.61,-2.07 -19.73,-2.08 -18.81,-2.1 -17.87,-2.11 -16.9,-2.13 -15.9,-2.14 -14.89,-2.15 -13.85,-2.16 -12.8,-2.17 -11.73,-2.18 -10.65,-2.18 -9.56,-2.19 -8.47,-2.2 -7.37,-2.2 -6.27,-2.2 -5.16,-2.2 -4.07,-2.21 -2.97,-2.21 -1.89,-2.2 -0.81,-2.2 0.25,-2.2 1.3,-2.19 2.33,-2.19 3.35,-2.18 4.35,-2.17 5.32,-2.16 6.28,-2.15 7.21,-2.14 8.12,-2.12 9,-2.11 9.85,-2.09 10.68,-2.07 11.48,-2.05 12.25,-2.02 12.99,-2 13.7,-1.97 14.38,-1.95 15.03,-1.92 15.65,-1.89 16.24,-1.85 16.8,-1.82 17.33,-1.78 17.84,-1.75 18.31,-1.71 18.76,-1.67 19.19,-1.62 19.58,-1.58 19.96,-1.53 20.3,-1.48 20.62,-1.43 20.92,-1.38 21.19,-1.33 21.44,-1.27 21.66,-1.22 21.86,-1.16 22.03,-1.1 22.18,-1.03 22.31,-0.97 22.41,-0.9 22.83,-0.47 22.54,-0.39 22.23,-0.31 21.91,-0.22 21.57,-0.14 21.22,-0.06 20.86,0.03 20.48,0.11 20.09,0.2 19.68,0.29 19.26,0.37 18.82,0.46 18.37,0.54 17.91,0.63 17.43,0.71 16.94,0.8 16.43,0.88 15.91,0.96 15.37,1.05 14.81,1.13 14.24,1.21 13.65,1.29 13.05,1.37 12.44,1.45 11.81,1.52 11.16,1.6 10.5,1.67 9.83,1.73 9.14,1.8 8.44,1.86 7.73,1.91 7.01,1.96 6.27,2.01 5.53,2.05 4.77,2.09 4,2.12 3.22,2.15 2.43,2.17 1.62,2.19 0.81,2.2 0,2.21 -0.83,2.21 -1.67,2.2 -2.51,2.19 -3.36,2.17 -4.22,2.14 -5.09,2.11 -5.96,2.08 -6.84,2.03 -7.72,1.98 -8.6,1.93 -9.49,1.87 -10.39,1.8 -11.28,1.73 -12.18,1.65 -13.08,1.57 -13.97,1.49 -14.87,1.39 -15.77,1.3 -16.66,1.2 -17.55,1.1 -18.44,0.99 -19.32,0.88 -20.19,0.77 -21.05,0.65 -21.76,0.57 -22.45,0.48 -23.14,0.39 -23.81,0.3 -24.46,0.21 -25.1,0.12 -25.72,0.03 -26.33,-0.06 -26.91,-0.15 -27.47,-0.24 -28,-0.33 -28.52,-0.42 -29,-0.5 -29.45,-0.59 -29.88,-0.67" fill="white" stroke="white" stroke-width="0" stroke-linejoin="round" filter="url(#fuzzy)" />
    </g>
    <g transform="translate(-41.99 -24.380000000000003)">
      <polyline id="leftCountour" points="31.91,-1.54 31.61,-1.61 31.27,-1.67 30.88,-1.73 30.46,-1.79 30,-1.84 29.5,-1.89 28.96,-1.94 28.39,-1.99 27.79,-2.03 27.16,-2.07 26.5,-2.11 25.82,-2.14 25.11,-2.18 24.37,-2.21 23.62,-2.24 22.77,-2.27 21.88,-2.29 20.97,-2.32 20.03,-2.34 19.07,-2.37 18.08,-2.39 17.08,-2.41 16.05,-2.43 15.01,-2.44 13.95,-2.46 12.88,-2.48 11.81,-2.49 10.72,-2.51 9.63,-2.52 8.54,-2.53 7.45,-2.54 6.36,-2.55 5.27,-2.56 4.19,-2.56 3.12,-2.57 2.05,-2.57 1,-2.58 -0.04,-2.58 -1.06,-2.58 -2.07,-2.58 -3.05,-2.58 -4.02,-2.58 -4.97,-2.58 -5.89,-2.57 -6.8,-2.56 -7.67,-2.56 -8.52,-2.55 -9.35,-2.54 -10.15,-2.53 -10.92,-2.52 -11.66,-2.5 -12.38,-2.49 -13.06,-2.47 -13.72,-2.45 -14.34,-2.43 -14.94,-2.41 -15.51,-2.39 -16.05,-2.37 -16.56,-2.34 -17.04,-2.32 -17.5,-2.29 -17.93,-2.26 -18.33,-2.23 -18.71,-2.2 -19.06,-2.17 -19.39,-2.14 -19.69,-2.1 -19.97,-2.07 -20.23,-2.03 -20.47,-1.99 -20.68,-1.95 -20.87,-1.91 -21.04,-1.86 -21.18,-1.82 -21.31,-1.77 -21.41,-1.73 -21.49,-1.68 -21.55,-1.63 -21.59,-1.58 -20.77,-0.91 -20.41,-0.83 -20.04,-0.74 -19.65,-0.65 -19.26,-0.57 -18.85,-0.48 -18.42,-0.39 -17.99,-0.3 -17.54,-0.2 -17.08,-0.11 -16.61,-0.02 -16.13,0.08 -15.64,0.18 -15.13,0.27 -14.62,0.37 -14.09,0.47 -13.55,0.57 -12.99,0.67 -12.42,0.77 -11.84,0.87 -11.24,0.98 -10.64,1.08 -10.02,1.18 -9.39,1.28 -8.74,1.38 -8.09,1.48 -7.42,1.58 -6.75,1.68 -6.06,1.77 -5.37,1.86 -4.67,1.95 -3.95,2.04 -3.23,2.12 -2.5,2.2 -1.76,2.28 -1.01,2.35 -0.25,2.42 0.51,2.48 1.29,2.53 2.07,2.58 2.85,2.63 3.65,2.66 4.45,2.69 5.26,2.71 6.07,2.73 6.9,2.74 7.72,2.74 8.56,2.73 9.4,2.71 10.24,2.69 11.09,2.66 11.95,2.61 12.81,2.56 13.68,2.5 14.54,2.43 15.41,2.36 16.29,2.27 17.16,2.17 18.04,2.07 18.91,1.96 19.79,1.84 20.66,1.71 21.53,1.58 22.39,1.44 23.25,1.29 23.93,1.19 24.6,1.09 25.26,0.99 25.91,0.88 26.54,0.77 27.16,0.66 27.75,0.55 28.33,0.43 28.89,0.32 29.42,0.2 29.93,0.09 30.41,-0.03 30.86,-0.14 31.28,-0.26 31.66,-0.37" fill="white" stroke="white" stroke-width="0" stroke-linejoin="round" filter="url(#fuzzy)" />
    </g>
    <g transform="translate(45.18 -26.03)">
      <polyline id="rightUpper" points="-29.43,-0.68 -29.82,-0.77 -30.15,-0.85 -30.44,-0.94 -30.66,-1.01 -30.84,-1.09 -30.97,-1.16 -31.04,-1.22 -31.07,-1.29 -31.05,-1.34 -30.98,-1.4 -30.86,-1.45 -30.7,-1.5 -30.5,-1.55 -30.26,-1.6 -29.97,-1.64 -29.65,-1.68 -29.29,-1.72 -28.88,-1.75 -28.45,-1.79 -27.98,-1.82 -27.47,-1.85 -26.93,-1.88 -26.36,-1.9 -25.76,-1.93 -25.13,-1.95 -24.48,-1.97 -23.79,-1.99 -23.05,-2.01 -22.27,-2.03 -21.46,-2.05 -20.61,-2.07 -19.73,-2.08 -18.81,-2.1 -17.87,-2.11 -16.9,-2.13 -15.9,-2.14 -14.89,-2.15 -13.85,-2.16 -12.8,-2.17 -11.73,-2.18 -10.65,-2.18 -9.56,-2.19 -8.47,-2.2 -7.37,-2.2 -6.27,-2.2 -5.16,-2.2 -4.07,-2.21 -2.97,-2.21 -1.89,-2.2 -0.81,-2.2 0.25,-2.2 1.3,-2.19 2.33,-2.19 3.35,-2.18 4.35,-2.17 5.32,-2.16 6.28,-2.15 7.21,-2.14 8.12,-2.12 9,-2.11 9.85,-2.09 10.68,-2.07 11.48,-2.05 12.25,-2.02 12.99,-2 13.7,-1.97 14.38,-1.95 15.03,-1.92 15.65,-1.89 16.24,-1.85 16.8,-1.82 17.33,-1.78 17.84,-1.75 18.31,-1.71 18.76,-1.67 19.19,-1.62 19.58,-1.58 19.96,-1.53 20.3,-1.48 20.62,-1.43 20.92,-1.38 21.19,-1.33 21.44,-1.27 21.66,-1.22 21.86,-1.16 22.03,-1.1 22.18,-1.03 22.31,-0.97 22.41,-0.9 22.49,-0.83 22.55,-0.76 22.59,-0.69 22.61,-0.62 22.61,-0.54 22.59,-0.47 22.55,-0.39 22.49,-0.31 22.41,-0.22 22.31,-0.14" fill="none" stroke="black" stroke-width="1.6666666666666665" stroke-linejoin="round" filter="url(#fuzzy)" />
      <polyline id="rightLower" points="-31.86,-1.3 -31.88,-1.26 -31.85,-1.21 -31.76,-1.16 -31.63,-1.1 -31.44,-1.04 -31.21,-0.97 -30.93,-0.9 -30.62,-0.83 -30.26,-0.75 -29.88,-0.67 -29.45,-0.59 -29,-0.5 -28.52,-0.42 -28,-0.33 -27.47,-0.24 -26.91,-0.15 -26.33,-0.06 -25.72,0.03 -25.1,0.12 -24.46,0.21 -23.81,0.3 -23.14,0.39 -22.45,0.48 -21.76,0.57 -21.05,0.65 -20.19,0.77 -19.32,0.88 -18.44,0.99 -17.55,1.1 -16.66,1.2 -15.77,1.3 -14.87,1.39 -13.97,1.49 -13.08,1.57 -12.18,1.65 -11.28,1.73 -10.39,1.8 -9.49,1.87 -8.6,1.93 -7.72,1.98 -6.84,2.03 -5.96,2.08 -5.09,2.11 -4.22,2.14 -3.36,2.17 -2.51,2.19 -1.67,2.2 -0.83,2.21 0,2.21 0.81,2.2 1.62,2.19 2.43,2.17 3.22,2.15 4,2.12 4.77,2.09 5.53,2.05 6.27,2.01 7.01,1.96 7.73,1.91 8.44,1.86 9.14,1.8 9.83,1.73 10.5,1.67 11.16,1.6 11.81,1.52 12.44,1.45 13.05,1.37 13.65,1.29 14.24,1.21 14.81,1.13 15.37,1.05 15.91,0.96 16.43,0.88 16.94,0.8 17.43,0.71 17.91,0.63 18.37,0.54 18.82,0.46 19.26,0.37 19.68,0.29 20.09,0.2 20.48,0.11 20.86,0.03 21.22,-0.06 21.57,-0.14 21.91,-0.22 22.23,-0.31 22.54,-0.39 22.83,-0.47 23.1,-0.55 23.36,-0.63 23.61,-0.71 23.84,-0.79 24.06,-0.86 24.26,-0.94 24.45,-1.01 24.62,-1.08 24.79,-1.15 24.93,-1.22" fill="none" stroke="black" stroke-width="2.2222222222222223" stroke-linejoin="round" filter="url(#fuzzy)" />
      <circle r="4.7" cx="6.073082884919517" cy="1.1127653079706161" stroke="black" fill="none" stroke-width="1.0" filter="url(#fuzzy)" clip-path="url(#rightEyeClipPath)" /><circle r="3.576" cx="5.018082884919516" cy="-0.5172346920293842" stroke="black" fill="none" stroke-width="1.0" filter="url(#fuzzy)" clip-path="url(#rightEyeClipPath)" /><circle r="4.084" cx="7.123082884919516" cy="0.6127653079706161" stroke="black" fill="none" stroke-width="1.0" filter="url(#fuzzy)" clip-path="url(#rightEyeClipPath)" /><circle r="4.454" cx="9.053082884919515" cy="-2.4722346920293843" stroke="black" fill="none" stroke-width="1.0" filter="url(#fuzzy)" clip-path="url(#rightEyeClipPath)" /><circle r="4.502" cx="5.518082884919515" cy="-2.537234692029384" stroke="black" fill="none" stroke-width="1.0" filter="url(#fuzzy)" clip-path="url(#rightEyeClipPath)" /><circle r="3.452" cx="4.988082884919516" cy="0.2577653079706157" stroke="black" fill="none" stroke-width="1.0" filter="url(#fuzzy)" clip-path="url(#rightEyeClipPath)" /><circle r="3.65" cx="8.848082884919517" cy="0.6377653079706156" stroke="black" fill="none" stroke-width="1.0" filter="url(#fuzzy)" clip-path="url(#rightEyeClipPath)" /><circle r="4.96" cx="5.948082884919517" cy="-0.7622346920293839" stroke="black" fill="none" stroke-width="1.0" filter="url(#fuzzy)" clip-path="url(#rightEyeClipPath)" /><circle r="4.094" cx="4.643082884919516" cy="-1.4722346920293838" stroke="black" fill="none" stroke-width="1.0" filter="url(#fuzzy)" clip-path="url(#rightEyeClipPath)" /><circle r="4.14" cx="5.378082884919516" cy="-0.152234692029384" stroke="black" fill="none" stroke-width="1.0" filter="url(#fuzzy)" clip-path="url(#rightEyeClipPath)" />
      </g>
    <g transform="translate(-41.99 -24.380000000000003)">
      <polyline id="leftUpper" points="32.1,-0.63 32.34,-0.75 32.52,-0.85 32.63,-0.96 32.69,-1.05 32.69,-1.15 32.64,-1.23 32.53,-1.32 32.37,-1.4 32.16,-1.47 31.91,-1.54 31.61,-1.61 31.27,-1.67 30.88,-1.73 30.46,-1.79 30,-1.84 29.5,-1.89 28.96,-1.94 28.39,-1.99 27.79,-2.03 27.16,-2.07 26.5,-2.11 25.82,-2.14 25.11,-2.18 24.37,-2.21 23.62,-2.24 22.77,-2.27 21.88,-2.29 20.97,-2.32 20.03,-2.34 19.07,-2.37 18.08,-2.39 17.08,-2.41 16.05,-2.43 15.01,-2.44 13.95,-2.46 12.88,-2.48 11.81,-2.49 10.72,-2.51 9.63,-2.52 8.54,-2.53 7.45,-2.54 6.36,-2.55 5.27,-2.56 4.19,-2.56 3.12,-2.57 2.05,-2.57 1,-2.58 -0.04,-2.58 -1.06,-2.58 -2.07,-2.58 -3.05,-2.58 -4.02,-2.58 -4.97,-2.58 -5.89,-2.57 -6.8,-2.56 -7.67,-2.56 -8.52,-2.55 -9.35,-2.54 -10.15,-2.53 -10.92,-2.52 -11.66,-2.5 -12.38,-2.49 -13.06,-2.47 -13.72,-2.45 -14.34,-2.43 -14.94,-2.41 -15.51,-2.39 -16.05,-2.37 -16.56,-2.34 -17.04,-2.32 -17.5,-2.29 -17.93,-2.26 -18.33,-2.23 -18.71,-2.2 -19.06,-2.17 -19.39,-2.14 -19.69,-2.1 -19.97,-2.07 -20.23,-2.03 -20.47,-1.99 -20.68,-1.95 -20.87,-1.91 -21.04,-1.86 -21.18,-1.82 -21.31,-1.77 -21.41,-1.73 -21.49,-1.68 -21.55,-1.63 -21.59,-1.58 -21.61,-1.53 -21.61,-1.47 -21.6,-1.42 -21.56,-1.36 -21.51,-1.31 -21.44,-1.25 -21.35,-1.19 -21.25,-1.13 -21.13,-1.07 -20.99,-1" fill="none" stroke="black" stroke-width="2.2222222222222223" stroke-linejoin="round" filter="url(#fuzzy)" />
      <polyline id="leftLower" points="33.06,-1.24 33.16,-1.18 33.21,-1.12 33.19,-1.04 33.12,-0.96 32.99,-0.88 32.81,-0.78 32.59,-0.69 32.32,-0.58 32.01,-0.48 31.66,-0.37 31.28,-0.26 30.86,-0.14 30.41,-0.03 29.93,0.09 29.42,0.2 28.89,0.32 28.33,0.43 27.75,0.55 27.16,0.66 26.54,0.77 25.91,0.88 25.26,0.99 24.6,1.09 23.93,1.19 23.25,1.29 22.39,1.44 21.53,1.58 20.66,1.71 19.79,1.84 18.91,1.96 18.04,2.07 17.16,2.17 16.29,2.27 15.41,2.36 14.54,2.43 13.68,2.5 12.81,2.56 11.95,2.61 11.09,2.66 10.24,2.69 9.4,2.71 8.56,2.73 7.72,2.74 6.9,2.74 6.07,2.73 5.26,2.71 4.45,2.69 3.65,2.66 2.85,2.63 2.07,2.58 1.29,2.53 0.51,2.48 -0.25,2.42 -1.01,2.35 -1.76,2.28 -2.5,2.2 -3.23,2.12 -3.95,2.04 -4.67,1.95 -5.37,1.86 -6.06,1.77 -6.75,1.68 -7.42,1.58 -8.09,1.48 -8.74,1.38 -9.39,1.28 -10.02,1.18 -10.64,1.08 -11.24,0.98 -11.84,0.87 -12.42,0.77 -12.99,0.67 -13.55,0.57 -14.09,0.47 -14.62,0.37 -15.13,0.27 -15.64,0.18 -16.13,0.08 -16.61,-0.02 -17.08,-0.11 -17.54,-0.2 -17.99,-0.3 -18.42,-0.39 -18.85,-0.48 -19.26,-0.57 -19.65,-0.65 -20.04,-0.74 -20.41,-0.83 -20.77,-0.91 -21.11,-0.99 -21.44,-1.07 -21.76,-1.15 -22.07,-1.22 -22.36,-1.3 -22.64,-1.37 -22.91,-1.45 -23.16,-1.52 -23.41,-1.59 -23.64,-1.65" fill="none" stroke="black" stroke-width="2.2222222222222223" stroke-linejoin="round" filter="url(#fuzzy)" />
      <circle r="4.148" cx="10.923457714880275" cy="0.8346217837470409" stroke="black" fill="none" stroke-width="1.0" filter="url(#fuzzy)" clip-path="url(#leftEyeClipPath)" /><circle r="4.51" cx="7.9884577148802745" cy="-1.9853782162529594" stroke="black" fill="none" stroke-width="1.0" filter="url(#fuzzy)" clip-path="url(#leftEyeClipPath)" /><circle r="3.412" cx="11.853457714880275" cy="1.5496217837470407" stroke="black" fill="none" stroke-width="1.0" filter="url(#fuzzy)" clip-path="url(#leftEyeClipPath)" /><circle r="3.118" cx="11.143457714880274" cy="-2.1803782162529597" stroke="black" fill="none" stroke-width="1.0" filter="url(#fuzzy)" clip-path="url(#leftEyeClipPath)" /><circle r="4.328" cx="10.808457714880275" cy="1.7546217837470408" stroke="black" fill="none" stroke-width="1.0" filter="url(#fuzzy)" clip-path="url(#leftEyeClipPath)" /><circle r="3.36" cx="10.583457714880275" cy="-1.2003782162529595" stroke="black" fill="none" stroke-width="1.0" filter="url(#fuzzy)" clip-path="url(#leftEyeClipPath)" /><circle r="4.382" cx="11.288457714880275" cy="0.1396217837470406" stroke="black" fill="none" stroke-width="1.0" filter="url(#fuzzy)" clip-path="url(#leftEyeClipPath)" /><circle r="4.11" cx="9.213457714880274" cy="-0.7803782162529596" stroke="black" fill="none" stroke-width="1.0" filter="url(#fuzzy)" clip-path="url(#leftEyeClipPath)" /><circle r="4.3260000000000005" cx="7.628457714880275" cy="-0.33037821625296004" stroke="black" fill="none" stroke-width="1.0" filter="url(#fuzzy)" clip-path="url(#leftEyeClipPath)" /><circle r="3.5220000000000002" cx="11.588457714880274" cy="-3.1003782162529596" stroke="black" fill="none" stroke-width="1.0" filter="url(#fuzzy)" clip-path="url(#leftEyeClipPath)" />
    </g>
    <g id="hairs">
      <polyline points="23.56,-81.58 23.88,-81.3 24.78,-80.87 25.7,-80.48 26.48,-80.16 27.12,-79.89 27.62,-79.64 27.94,-79.42 28,-79.27 27.72,-79.21 27.05,-79.28 25.94,-79.5 24.42,-79.88 22.49,-80.4 20.11,-81.07 17.2,-81.91 13.74,-82.92 9.88,-84.12" fill="none" stroke="rgb(85, 19, 134)" stroke-width="2" stroke-linejoin="round" filter="url(#fuzzy)" /><polyline points="67.62,-40.17 67.69,-39.15 67.54,-38.27 66.88,-37.9 65.64,-37.95 63.85,-38.27 61.5,-38.87 58.54,-39.84 54.95,-41.26 50.69,-43.18 45.73,-45.58 40.08,-48.43 33.69,-51.71 26.51,-55.43 18.49,-59.65 9.6,-64.41 -0.18,-69.7 -10.75,-75.48" fill="none" stroke="rgb(85, 19, 134)" stroke-width="2" stroke-linejoin="round" filter="url(#fuzzy)" /><polyline points="62.47,-49.57 63,-48.27 63.01,-47.26 62.54,-46.45 61.63,-45.74 60.28,-45.07 58.46,-44.47 56.12,-43.97 53.25,-43.57 49.84,-43.28 45.89,-43.11 41.38,-43.07 36.33,-43.17 30.7,-43.39 24.49,-43.73 17.67,-44.19 10.22,-44.79 2.12,-45.57 -6.62,-46.5 -16.01,-47.54 -26.07,-48.64 -36.82,-49.76 -48.35,-50.95" fill="none" stroke="rgb(85, 19, 134)" stroke-width="2" stroke-linejoin="round" filter="url(#fuzzy)" /><polyline points="44.53,-69.83 44.86,-69.35 45.8,-68.5 46.98,-67.39 48.23,-66.17 49.44,-64.94 50.6,-63.71 51.72,-62.51 52.81,-61.33 53.86,-60.17 54.86,-59.09 55.76,-58.1 56.54,-57.25 57.18,-56.54 57.65,-56.02 57.84,-55.83 57.63,-56.12 56.9,-57.02 55.67,-58.44" fill="none" stroke="rgb(85, 19, 134)" stroke-width="2" stroke-linejoin="round" filter="url(#fuzzy)" /><polyline points="-29.98,-78.45 -28.62,-78.87 -26.82,-78.85 -24.09,-78.66 -20.6,-78.28 -16.53,-77.65 -11.93,-76.8 -6.79,-75.74 -1.13,-74.47 5.02,-73 11.58,-71.32 18.46,-69.47 25.53,-67.55 32.67,-65.67 39.78,-63.86 46.88,-62.04" fill="none" stroke="rgb(85, 19, 134)" stroke-width="2" stroke-linejoin="round" filter="url(#fuzzy)" /><polyline points="-13.46,-84.27 -12.75,-84.34 -11.6,-84.54 -10.6,-84.72 -9.8,-84.84 -9.14,-84.91 -8.62,-84.93 -8.3,-84.88 -8.32,-84.77 -8.75,-84.56 -9.68,-84.26 -11.12,-83.85 -13.08,-83.33 -15.57,-82.71 -18.59,-82 -22.32,-81.14" fill="none" stroke="rgb(85, 19, 134)" stroke-width="2" stroke-linejoin="round" filter="url(#fuzzy)" /><polyline points="0.14,-85.5 2.34,-85.45 3.83,-85.42 5.14,-85.37 6.38,-85.28 7.57,-85.15 8.7,-85.01 9.73,-84.86 10.66,-84.72 11.48,-84.57 12.21,-84.43 12.81,-84.29 13.26,-84.16 13.52,-84.05 13.56,-83.97 13.35,-83.9 12.86,-83.87 12.05,-83.86 10.88,-83.9 9.3,-84 7.33,-84.16 4.97,-84.37 2.26,-84.64 -0.85,-84.97" fill="none" stroke="rgb(85, 19, 134)" stroke-width="2" stroke-linejoin="round" filter="url(#fuzzy)" /><polyline points="59.14,-54.01 59.37,-53.5 58.72,-53.39 57.55,-53.2 55.88,-52.92 53.66,-52.64 50.8,-52.43 47.2,-52.34 42.79,-52.43 37.51,-52.7 31.36,-53.15 24.35,-53.79 16.46,-54.62 7.69,-55.66 -2,-56.93 -12.64,-58.39 -24.32,-59.94 -37.32,-61.4" fill="none" stroke="rgb(85, 19, 134)" stroke-width="2" stroke-linejoin="round" filter="url(#fuzzy)" /><polyline points="60.24,-52.68 59.75,-53.19 59.5,-52.85 59.08,-52.3 58.39,-51.71 57.33,-51.17 55.81,-50.74 53.78,-50.46 51.22,-50.36 48.14,-50.43 44.54,-50.67 40.4,-51.08 35.71,-51.68 30.43,-52.45 24.53,-53.4 17.99,-54.52 10.76,-55.82 2.83,-57.28 -5.81,-58.89 -15.12,-60.67 -25.09,-62.63 -35.87,-64.72" fill="none" stroke="rgb(85, 19, 134)" stroke-width="2" stroke-linejoin="round" filter="url(#fuzzy)" /><polyline points="40.46,-72.62 41.74,-71.53 42.47,-70.87 42.8,-70.38 42.79,-69.97 42.5,-69.58 41.91,-69.22 40.96,-68.93 39.61,-68.71 37.82,-68.6 35.58,-68.58 32.89,-68.64 29.73,-68.77 26.1,-69 21.96,-69.35 17.28,-69.82 12.03,-70.42 6.21,-71.12 -0.19,-71.95 -7.25,-72.94 -15.11,-74.13 -23.9,-75.51" fill="none" stroke="rgb(85, 19, 134)" stroke-width="2" stroke-linejoin="round" filter="url(#fuzzy)" /><polyline points="-16.99,-83.6 -15.79,-83.8 -14.81,-83.98 -14.1,-84.07 -13.57,-84.08 -13.23,-84.02 -13.15,-83.87 -13.35,-83.62 -13.83,-83.24 -14.6,-82.73 -15.69,-82.11 -17.16,-81.34 -19.11,-80.43 -21.61,-79.34 -24.7,-78.04 -28.44,-76.45 -32.95,-74.52 -38.24,-72.23" fill="none" stroke="rgb(85, 19, 134)" stroke-width="2" stroke-linejoin="round" filter="url(#fuzzy)" /><polyline points="26.59,-80.3 28.93,-79.23 30.21,-78.65 31.3,-78.08 32.24,-77.56 32.97,-77.13 33.49,-76.79 33.82,-76.53 33.97,-76.34 33.92,-76.22 33.67,-76.17 33.19,-76.18 32.45,-76.28 31.4,-76.51 29.97,-76.91 28.1,-77.51 25.78,-78.31 23.05,-79.31 19.95,-80.46 16.41,-81.8 12.14,-83.39" fill="none" stroke="rgb(85, 19, 134)" stroke-width="2" stroke-linejoin="round" filter="url(#fuzzy)" /><polyline points="63.3,-48.13 63.87,-46.96 64.31,-46.11 64.7,-45.32 65.05,-44.55 65.3,-43.87 65.39,-43.36 65.31,-43.02 65.05,-42.88 64.6,-42.96 63.95,-43.3 63.07,-43.9 61.94,-44.78 60.55,-45.96 58.89,-47.45 56.97,-49.29 54.78,-51.51 52.32,-54.11 49.59,-57.07 46.58,-60.4 43.23,-64.14 39.43,-68.4 34.91,-73.38" fill="none" stroke="rgb(85, 19, 134)" stroke-width="2" stroke-linejoin="round" filter="url(#fuzzy)" /><polyline points="48,-66.8 49.42,-65.35 50.19,-64.55 51,-63.69 51.93,-62.7 52.86,-61.69 53.73,-60.74 54.5,-59.86 55.2,-59.05 55.79,-58.32 56.25,-57.72 56.52,-57.31 56.56,-57.16 56.36,-57.26 55.93,-57.61 55.3,-58.18 54.46,-58.95 53.4,-59.93 52.11,-61.15 50.56,-62.65 48.71,-64.45 46.49,-66.62 43.81,-69.25" fill="none" stroke="rgb(85, 19, 134)" stroke-width="2" stroke-linejoin="round" filter="url(#fuzzy)" /><polyline points="-29.44,-78.81 -27.52,-79.74 -26.04,-80.39 -24.91,-80.84 -23.93,-81.19 -22.98,-81.5 -22.09,-81.78 -21.28,-81.99 -20.62,-82.12 -20.15,-82.16 -19.89,-82.09 -19.87,-81.9 -20.12,-81.59 -20.67,-81.13 -21.52,-80.53 -22.71,-79.77 -24.24,-78.84 -26.11,-77.72 -28.32,-76.44 -30.86,-74.98 -33.74,-73.37 -36.99,-71.6 -40.63,-69.69 -44.82,-67.52" fill="none" stroke="rgb(85, 19, 134)" stroke-width="2" stroke-linejoin="round" filter="url(#fuzzy)" /><polyline points="15.9,-83.71 17.11,-83.34 18.45,-82.93 19.66,-82.51 20.57,-82.14 21.16,-81.81 21.46,-81.5 21.52,-81.21 21.33,-80.93 20.89,-80.66 20.19,-80.4 19.2,-80.13 17.9,-79.85 16.24,-79.57 14.18,-79.3 11.68,-79.05 8.74,-78.84 5.36,-78.67 1.52,-78.52 -2.76,-78.38 -7.5,-78.24 -12.69,-78.1 -18.34,-77.97 -24.75,-77.78" fill="none" stroke="rgb(85, 19, 134)" stroke-width="2" stroke-linejoin="round" filter="url(#fuzzy)" /><polyline points="-34.45,-76.19 -34.17,-76.5 -32.92,-77.04 -31.22,-77.66 -29.36,-78.28 -27.44,-78.89 -25.5,-79.47 -23.51,-80.04 -21.47,-80.58 -19.41,-81.11 -17.32,-81.61 -15.23,-82.1 -13.16,-82.58 -11.12,-83.03 -9.17,-83.46 -7.33,-83.85 -5.66,-84.2 -4.2,-84.51 -2.96,-84.76 -1.97,-84.97 -1.22,-85.14 -0.73,-85.27 -0.5,-85.39 -0.6,-85.49" fill="none" stroke="rgb(85, 19, 134)" stroke-width="2" stroke-linejoin="round" filter="url(#fuzzy)" /><polyline points="-8.25,-85.01 -6.12,-85.18 -5.07,-85.17 -4.59,-85.02 -4.52,-84.74 -4.81,-84.3 -5.5,-83.7 -6.63,-82.91 -8.26,-81.93 -10.44,-80.76 -13.2,-79.37 -16.59,-77.74 -20.66,-75.85 -25.46,-73.64 -31.04,-71.11 -37.38,-68.32 -44.31,-65.47" fill="none" stroke="rgb(85, 19, 134)" stroke-width="2" stroke-linejoin="round" filter="url(#fuzzy)" /><polyline points="34.38,-76.42 34.47,-76.26 34.63,-75.94 34.52,-75.61 34.01,-75.31 33.07,-75 31.67,-74.7 29.75,-74.42 27.21,-74.21 23.97,-74.13 19.97,-74.19 15.16,-74.39 9.54,-74.7 3.11,-75.09 -4.14,-75.58 -12.24,-76.19 -21.51,-76.84" fill="none" stroke="rgb(85, 19, 134)" stroke-width="2" stroke-linejoin="round" filter="url(#fuzzy)" /><polyline points="44.34,-69.52 45.43,-68.87 46.43,-68.07 47.25,-67.33 47.81,-66.77 48.11,-66.39 48.16,-66.19 47.99,-66.14 47.58,-66.26 46.89,-66.59 45.82,-67.22 44.29,-68.21 42.25,-69.6 39.64,-71.4 36.43,-73.63 32.43,-76.39" fill="none" stroke="rgb(85, 19, 134)" stroke-width="2" stroke-linejoin="round" filter="url(#fuzzy)" /><polyline points="0.14,-85.5 2.24,-85.46 3.46,-85.43 4.31,-85.37 4.86,-85.26 5.14,-85.08 5.11,-84.85 4.71,-84.57 3.89,-84.25 2.67,-83.87 1.03,-83.42 -1.05,-82.9 -3.64,-82.31 -6.82,-81.65 -10.61,-80.93 -15.04,-80.12 -20.23,-79.19 -26.36,-78.13" fill="none" stroke="rgb(85, 19, 134)" stroke-width="2" stroke-linejoin="round" filter="url(#fuzzy)" /><polyline points="12.04,-84.48 14.02,-84.04 15.2,-83.77 15.98,-83.58 16.63,-83.37 17.2,-83.14 17.58,-82.91 17.61,-82.73 17.22,-82.6 16.35,-82.54 15,-82.55 13.14,-82.62 10.73,-82.77 7.71,-83.01 4.07,-83.33 -0.15,-83.73 -4.81,-84.2" fill="none" stroke="rgb(85, 19, 134)" stroke-width="2" stroke-linejoin="round" filter="url(#fuzzy)" /><polyline points="-37.26,-74.58 -35.45,-75.69 -34.23,-76.43 -32.91,-77.1 -31.44,-77.77 -29.93,-78.44 -28.47,-79.08 -27.06,-79.69 -25.73,-80.26 -24.47,-80.78 -23.3,-81.26 -22.24,-81.68 -21.31,-82.03 -20.54,-82.32 -19.96,-82.52 -19.61,-82.64 -19.52,-82.65 -19.72,-82.55 -20.21,-82.34 -21.04,-82 -22.21,-81.53 -23.72,-80.93 -25.5,-80.23 -27.45,-79.48" fill="none" stroke="rgb(85, 19, 134)" stroke-width="2" stroke-linejoin="round" filter="url(#fuzzy)" /><polyline points="14.59,-83.93 15.81,-83.6 16.94,-83.22 18.47,-82.65 20.4,-81.91 22.52,-81.07 24.65,-80.2 26.69,-79.33 28.61,-78.47 30.4,-77.65 32.01,-76.91 33.4,-76.3 34.5,-75.84 35.34,-75.55 35.94,-75.36 36.29,-75.24" fill="none" stroke="rgb(85, 19, 134)" stroke-width="2" stroke-linejoin="round" filter="url(#fuzzy)" /><polyline points="-7.88,-85.19 -7.22,-85.16 -5.87,-85.24 -4.54,-85.32 -3.33,-85.38 -2.23,-85.43 -1.18,-85.46 -0.21,-85.48 0.68,-85.47 1.44,-85.45 2.04,-85.42 2.44,-85.36 2.62,-85.29 2.56,-85.19 2.24,-85.07 1.65,-84.93 0.77,-84.78 -0.41,-84.6 -1.91,-84.41 -3.72,-84.2 -5.93,-83.98 -8.6,-83.72 -11.79,-83.44 -15.35,-83.17" fill="none" stroke="rgb(85, 19, 134)" stroke-width="2" stroke-linejoin="round" filter="url(#fuzzy)" /><polyline points="-13.95,-84.33 -13.28,-84.23 -11.97,-84.12 -10.17,-83.97 -8.11,-83.72 -5.84,-83.36 -3.34,-82.9 -0.59,-82.35 2.36,-81.73 5.45,-81.05 8.63,-80.32 11.86,-79.54 15.14,-78.72 18.46,-77.88 21.76,-77.02 25.02,-76.17 28.19,-75.34 31.27,-74.52 34.23,-73.69 37.09,-72.83 39.77,-71.97" fill="none" stroke="rgb(85, 19, 134)" stroke-width="2" stroke-linejoin="round" filter="url(#fuzzy)" /><polyline points="53.91,-60.36 54,-60.35 54.03,-59.84 54,-59.02 53.76,-58.05 53.15,-57.11 52.03,-56.32 50.36,-55.74 48.14,-55.32 45.43,-55 42.27,-54.72 38.68,-54.44 34.63,-54.16 30.11,-53.91 25.06,-53.72 19.47,-53.61 13.33,-53.61 6.66,-53.72 -0.57,-53.94 -8.38,-54.27 -16.83,-54.67 -25.91,-55.13 -35.6,-55.68 -46.01,-56.26" fill="none" stroke="rgb(85, 19, 134)" stroke-width="2" stroke-linejoin="round" filter="url(#fuzzy)" /><polyline points="-24.97,-80.89 -22.55,-81.62 -20.7,-82.03 -18.73,-82.34 -16.6,-82.56 -14.32,-82.71 -11.95,-82.78 -9.51,-82.79 -7.01,-82.74 -4.46,-82.65 -1.85,-82.52 0.8,-82.36 3.49,-82.18 6.18,-81.99 8.85,-81.8 11.45,-81.62 13.93,-81.47 16.24,-81.35 18.34,-81.23 20.29,-81.1 22.13,-80.93 23.79,-80.77" fill="none" stroke="rgb(85, 19, 134)" stroke-width="2" stroke-linejoin="round" filter="url(#fuzzy)" /><polyline points="-44.02,-70.13 -41.61,-71.67 -39.74,-72.75 -37.89,-73.64 -35.89,-74.45 -33.73,-75.26 -31.43,-76.07 -29,-76.93 -26.42,-77.83 -23.71,-78.77 -20.9,-79.74 -18.05,-80.71 -15.27,-81.66 -12.65,-82.56 -10.25,-83.38 -8.03,-84.12 -6.01,-84.79" fill="none" stroke="rgb(85, 19, 134)" stroke-width="2" stroke-linejoin="round" filter="url(#fuzzy)" /><polyline points="66.82,-41.82 67.31,-40.55 67.54,-39.56 67.58,-38.93 67.34,-38.76 66.8,-39.02 65.92,-39.65 64.67,-40.67 63.01,-42.18 60.91,-44.28 58.36,-47.02 55.35,-50.4 51.89,-54.39 47.97,-58.99 43.56,-64.23 38.59,-70.22" fill="none" stroke="rgb(85, 19, 134)" stroke-width="2" stroke-linejoin="round" filter="url(#fuzzy)" /><polyline points="53.91,-60.36 53.95,-60.36 53.81,-59.88 53.51,-59.11 52.89,-58.19 51.77,-57.31 50.03,-56.59 47.59,-56.1 44.47,-55.8 40.72,-55.62 36.38,-55.49 31.46,-55.38 25.94,-55.28 19.79,-55.21 12.95,-55.24 5.42,-55.39 -2.8,-55.7 -11.71,-56.17 -21.37,-56.75 -31.88,-57.36 -43.25,-58" fill="none" stroke="rgb(85, 19, 134)" stroke-width="2" stroke-linejoin="round" filter="url(#fuzzy)" /><polyline points="42.2,-71.05 43.11,-70.56 44.07,-69.89 45.05,-69.09 46.1,-68.18 47.21,-67.2 48.3,-66.2 49.29,-65.28 50.16,-64.44 50.91,-63.71 51.54,-63.08 52.05,-62.56 52.4,-62.2 52.54,-62.04 52.46,-62.11 52.15,-62.4 51.62,-62.91 50.8,-63.71 49.58,-64.9 47.83,-66.64" fill="none" stroke="rgb(85, 19, 134)" stroke-width="2" stroke-linejoin="round" filter="url(#fuzzy)" /><polyline points="50.36,-64.35 50.29,-64.47 50.87,-63.84 51.79,-62.86 52.73,-61.86 53.51,-61.01 54.09,-60.34 54.51,-59.84 54.76,-59.48 54.8,-59.34 54.53,-59.53 53.84,-60.16 52.67,-61.32 51.03,-62.95 48.99,-64.98 46.71,-67.29" fill="none" stroke="rgb(85, 19, 134)" stroke-width="2" stroke-linejoin="round" filter="url(#fuzzy)" /><polyline points="-43.68,-69.97 -42.59,-70.5 -39.92,-71.12 -36.44,-71.43 -32.27,-71.37 -27.43,-71.01 -21.91,-70.4 -15.71,-69.58 -8.81,-68.56 -1.19,-67.36 7.15,-65.99 16.12,-64.49 25.6,-62.98 35.4,-61.59 45.29,-60.38" fill="none" stroke="rgb(85, 19, 134)" stroke-width="2" stroke-linejoin="round" filter="url(#fuzzy)" /><polyline points="21.73,-81.89 23,-81.56 24.12,-81.05 25.4,-80.4 26.8,-79.67 28.26,-78.9 29.79,-78.09 31.38,-77.23 32.99,-76.33 34.59,-75.41 36.11,-74.51 37.52,-73.67 38.81,-72.89 39.96,-72.19 41.01,-71.57 41.93,-71.02 42.73,-70.56 43.36,-70.2 43.81,-69.97 44.05,-69.88 44.05,-69.93 43.78,-70.15 43.15,-70.56" fill="none" stroke="rgb(85, 19, 134)" stroke-width="2" stroke-linejoin="round" filter="url(#fuzzy)" /><polyline points="67.57,-39.38 68.41,-37.6 68.87,-36.63 69.1,-36 69.22,-35.42 69.21,-34.93 69.03,-34.68 68.64,-34.8 68.02,-35.32 67.17,-36.24 66.09,-37.52 64.77,-39.18 63.15,-41.27 61.2,-43.87 58.9,-47.01 56.25,-50.7 53.29,-54.9 50.01,-59.64 46.33,-65.03" fill="none" stroke="rgb(85, 19, 134)" stroke-width="2" stroke-linejoin="round" filter="url(#fuzzy)" /><polyline points="67.62,-40.17 67.82,-39.08 68.06,-38.03 68.03,-37.38 67.72,-37.01 67.13,-36.82 66.26,-36.79 65.07,-37.03 63.54,-37.6 61.66,-38.53 59.41,-39.82 56.79,-41.43 53.79,-43.37 50.37,-45.66 46.5,-48.33 42.16,-51.4 37.35,-54.89 32.05,-58.79 26.25,-63.15 19.93,-68.03 13.01,-73.44 5.34,-79.29" fill="none" stroke="rgb(85, 19, 134)" stroke-width="2" stroke-linejoin="round" filter="url(#fuzzy)" /><polyline points="9.97,-85.03 10,-84.87 10.73,-84.75 11.6,-84.59 12.61,-84.37 13.66,-84.13 14.63,-83.9 15.46,-83.69 16.15,-83.48 16.69,-83.29 17.02,-83.12 17.1,-82.98 16.86,-82.88 16.27,-82.83 15.32,-82.83 13.99,-82.9 12.29,-83.03 10.21,-83.22 7.75,-83.47 4.89,-83.77 1.5,-84.14 -2.64,-84.57" fill="none" stroke="rgb(85, 19, 134)" stroke-width="2" stroke-linejoin="round" filter="url(#fuzzy)" /><polyline points="-13.46,-84.27 -12.74,-84.34 -11.6,-84.54 -10.6,-84.72 -9.78,-84.84 -9.07,-84.92 -8.47,-84.93 -8.05,-84.9 -7.88,-84.79 -8.07,-84.62 -8.63,-84.36 -9.6,-84.01 -10.99,-83.57 -12.82,-83.02 -15.17,-82.36 -18.06,-81.56 -21.46,-80.65 -25.28,-79.7" fill="none" stroke="rgb(85, 19, 134)" stroke-width="2" stroke-linejoin="round" filter="url(#fuzzy)" /><polyline points="-43.68,-69.97 -42.9,-70.66 -41.22,-71.68 -39.39,-72.61 -37.5,-73.41 -35.54,-74.11 -33.49,-74.76 -31.32,-75.38 -29.03,-76.02 -26.61,-76.68 -24.04,-77.39 -21.36,-78.13 -18.6,-78.88 -15.81,-79.63 -13.04,-80.37 -10.34,-81.08 -7.75,-81.76 -5.27,-82.41 -2.88,-83.01 -0.61,-83.56 1.49,-84.06 3.31,-84.54 4.74,-85.03" fill="none" stroke="rgb(85, 19, 134)" stroke-width="2" stroke-linejoin="round" filter="url(#fuzzy)" /><polyline points="50.36,-64.35 50.12,-64.49 50.18,-63.9 50.22,-62.99 49.95,-62.03 49.23,-61.12 48.07,-60.24 46.48,-59.35 44.47,-58.44 41.99,-57.56 38.99,-56.77 35.42,-56.09 31.29,-55.52 26.59,-55.01 21.35,-54.52 15.59,-54 9.31,-53.45 2.47,-52.88 -4.95,-52.31 -12.99,-51.76 -21.64,-51.26 -30.89,-50.81 -40.72,-50.36 -51.17,-49.86" fill="none" stroke="rgb(85, 19, 134)" stroke-width="2" stroke-linejoin="round" filter="url(#fuzzy)" /><polyline points="-13.37,-84.14 -11.46,-84.52 -9.99,-84.67 -8.58,-84.73 -6.98,-84.72 -5.16,-84.66 -3.18,-84.57 -1.13,-84.47 0.92,-84.35 2.94,-84.21 4.92,-84.07 6.86,-83.92 8.74,-83.76 10.53,-83.6 12.2,-83.46 13.71,-83.33 15.02,-83.22 16.09,-83.13 16.86,-83.09 17.22,-83.13 17.1,-83.26 16.57,-83.47" fill="none" stroke="rgb(85, 19, 134)" stroke-width="2" stroke-linejoin="round" filter="url(#fuzzy)" /><polyline points="0.14,-85.5 2.35,-85.45 3.91,-85.4 5.32,-85.32 6.68,-85.19 8.03,-85.03 9.33,-84.84 10.53,-84.66 11.62,-84.48 12.58,-84.32 13.42,-84.16 14.12,-84.01 14.63,-83.9 14.9,-83.84 14.92,-83.82 14.68,-83.84 14.17,-83.9 13.3,-84.03 11.96,-84.26 10.11,-84.6 7.97,-85.02" fill="none" stroke="rgb(85, 19, 134)" stroke-width="2" stroke-linejoin="round" filter="url(#fuzzy)" /><polyline points="5.9,-85.46 6.25,-85.39 6.85,-85.18 7.4,-84.89 7.63,-84.56 7.5,-84.17 7.04,-83.7 6.27,-83.13 5.16,-82.44 3.64,-81.65 1.63,-80.73 -0.88,-79.68 -3.91,-78.49 -7.48,-77.15 -11.63,-75.69 -16.4,-74.12 -21.83,-72.43 -27.92,-70.59 -34.79,-68.49 -42.69,-65.91" fill="none" stroke="rgb(85, 19, 134)" stroke-width="2" stroke-linejoin="round" filter="url(#fuzzy)" /><polyline points="-11.1,-84.76 -9.91,-84.78 -8.66,-84.77 -6.92,-84.69 -4.72,-84.53 -2.21,-84.32 0.47,-84.07 3.21,-83.78 5.95,-83.47 8.67,-83.16 11.33,-82.85 13.91,-82.53 16.37,-82.2 18.69,-81.88 20.76,-81.59 22.36,-81.42" fill="none" stroke="rgb(85, 19, 134)" stroke-width="2" stroke-linejoin="round" filter="url(#fuzzy)" /><polyline points="21.31,-82.13 21.93,-81.89 22.5,-81.62 22.86,-81.3 22.98,-80.95 22.82,-80.6 22.33,-80.25 21.49,-79.89 20.28,-79.52 18.66,-79.12 16.59,-78.7 13.99,-78.28 10.81,-77.86 7.01,-77.47 2.57,-77.08 -2.52,-76.69 -8.23,-76.29 -14.54,-75.87 -21.43,-75.46 -28.85,-75.14" fill="none" stroke="rgb(85, 19, 134)" stroke-width="2" stroke-linejoin="round" filter="url(#fuzzy)" /><polyline points="-32.6,-77.37 -30.6,-78.25 -29.45,-78.79 -28.65,-79.17 -27.96,-79.47 -27.41,-79.67 -27.11,-79.71 -27.12,-79.56 -27.47,-79.19 -28.22,-78.59 -29.42,-77.72 -31.12,-76.57 -33.38,-75.11 -36.21,-73.33 -39.62,-71.25 -43.5,-68.95" fill="none" stroke="rgb(85, 19, 134)" stroke-width="2" stroke-linejoin="round" filter="url(#fuzzy)" /><polyline points="16.37,-83.47 16.66,-83.38 18.02,-82.82 20.05,-81.95 22.41,-80.89 24.87,-79.71 27.31,-78.47 29.73,-77.21 32.11,-75.93 34.48,-74.65 36.81,-73.38 39.06,-72.17 41.16,-71.04 43.02,-70.08 44.51,-69.38" fill="none" stroke="rgb(85, 19, 134)" stroke-width="2" stroke-linejoin="round" filter="url(#fuzzy)" /><polyline points="21.31,-82.13 22.08,-81.86 23.1,-81.49 24.22,-81.03 25.43,-80.5 26.66,-79.96 27.88,-79.43 29.07,-78.92 30.22,-78.41 31.31,-77.92 32.28,-77.46 33.09,-77.05 33.7,-76.74 34.06,-76.55 34.16,-76.49 33.96,-76.59 33.45,-76.84 32.61,-77.25 31.43,-77.8 29.96,-78.47 28.33,-79.23" fill="none" stroke="rgb(85, 19, 134)" stroke-width="2" stroke-linejoin="round" filter="url(#fuzzy)" /><polyline points="-18.76,-83.13 -18.03,-83.11 -16.27,-83.27 -14,-83.4 -11.44,-83.43 -8.68,-83.38 -5.71,-83.27 -2.58,-83.14 0.66,-82.99 3.97,-82.82 7.31,-82.62 10.69,-82.38 14.04,-82.15 17.23,-81.97 20.27,-81.83" fill="none" stroke="rgb(85, 19, 134)" stroke-width="2" stroke-linejoin="round" filter="url(#fuzzy)" /><polyline points="42.2,-71.05 42.76,-70.67 42.66,-70.28 41.84,-69.94 40.35,-69.65 38.12,-69.38 35.08,-69.2 31.12,-69.15 26.15,-69.25 20.15,-69.5 13.12,-69.87 5.12,-70.35 -3.87,-70.97 -13.88,-71.87 -24.87,-73.18" fill="none" stroke="rgb(85, 19, 134)" stroke-width="2" stroke-linejoin="round" filter="url(#fuzzy)" /><polyline points="66.82,-41.82 67.22,-40.47 67.18,-39.3 66.78,-38.34 65.95,-37.63 64.69,-37.11 62.99,-36.68 60.83,-36.35 58.19,-36.14 55.06,-36.12 51.43,-36.29 47.29,-36.66 42.65,-37.18 37.49,-37.85 31.8,-38.67 25.55,-39.66 18.75,-40.84 11.41,-42.22 3.54,-43.84 -4.87,-45.72 -13.87,-47.85 -23.5,-50.19 -33.74,-52.69 -44.45,-55.43" fill="none" stroke="rgb(85, 19, 134)" stroke-width="2" stroke-linejoin="round" filter="url(#fuzzy)" /><polyline points="46.49,-68.05 47.76,-66.91 48.71,-66 49.59,-65.13 50.4,-64.3 51.2,-63.47 51.98,-62.65 52.64,-61.95 53.08,-61.48 53.22,-61.3 53.09,-61.4 52.71,-61.77 52.02,-62.44 50.9,-63.56 49.18,-65.31" fill="none" stroke="rgb(85, 19, 134)" stroke-width="2" stroke-linejoin="round" filter="url(#fuzzy)" /><polyline points="60.45,-52.36 60.65,-51.8 61.05,-50.99 61.39,-50.18 61.51,-49.5 61.34,-49.04 60.86,-48.79 60.08,-48.76 59.01,-48.93 57.63,-49.31 55.93,-49.92 53.87,-50.78 51.43,-51.9 48.61,-53.31 45.37,-55.01 41.72,-57.02 37.62,-59.33 33.07,-61.94 28.04,-64.87 22.52,-68.18 16.51,-71.9 10.05,-76.01 3.11,-80.5" fill="none" stroke="rgb(85, 19, 134)" stroke-width="2" stroke-linejoin="round" filter="url(#fuzzy)" /><polyline points="-40.26,-72.77 -38.97,-73.46 -37.22,-73.95 -34.97,-74.4 -32.27,-74.83 -29.11,-75.25 -25.45,-75.7 -21.3,-76.19 -16.7,-76.7 -11.73,-77.24 -6.52,-77.77 -1.19,-78.31 4.17,-78.82 9.56,-79.31 15.04,-79.74 20.7,-80.03" fill="none" stroke="rgb(85, 19, 134)" stroke-width="2" stroke-linejoin="round" filter="url(#fuzzy)" /><polyline points="-29.44,-78.81 -27.55,-79.73 -26.11,-80.35 -25.08,-80.75 -24.21,-81.04 -23.43,-81.27 -22.73,-81.43 -22.18,-81.49 -21.84,-81.43 -21.78,-81.21 -22.01,-80.82 -22.57,-80.25 -23.48,-79.5 -24.72,-78.57 -26.33,-77.44 -28.31,-76.11 -30.69,-74.55 -33.47,-72.76 -36.62,-70.77 -40.1,-68.63 -43.92,-66.39 -48.19,-64.03" fill="none" stroke="rgb(85, 19, 134)" stroke-width="2" stroke-linejoin="round" filter="url(#fuzzy)" /><polyline points="66.81,-41.53 66.71,-41.34 66.15,-40.73 65,-40.11 63.2,-39.72 60.68,-39.66 57.4,-39.9 53.34,-40.38 48.48,-41.06 42.76,-42 36.17,-43.24 28.66,-44.83 20.25,-46.76 10.94,-48.99 0.74,-51.51 -10.34,-54.36 -22.32,-57.59 -35.37,-61.18" fill="none" stroke="rgb(85, 19, 134)" stroke-width="2" stroke-linejoin="round" filter="url(#fuzzy)" /><polyline points="71.77,-28.5 34.31,-61.14 30.55,-64.13 33.97,-61.1 33.64,-61.09 31.17,-63.04 30.37,-63.95 32.21,-62.94 35.11,-61.1 36.99,-59.99 36.59,-60.44 33.69,-62.37 28.62,-65.14 21.87,-67.98 13.9,-70.22 5.2,-71.6 -3.36,-72.28 -10.47,-72.66 -14.84,-73.02 -16.13,-73.4 -14.96,-74 -11.19,-75.46 -1.61,-77.63 30.62,-78.39" fill="none" stroke="rgb(85, 19, 134)" stroke-width="2" stroke-linejoin="round" filter="url(#fuzzy)" /><polyline points="37.08,-74.92 0.28,-74.36 3.14,-68.89 12.45,-65.84 14.82,-66.82 9.31,-69.58 0.08,-71.86 -7.23,-72.57 -7.87,-71.67 -0.29,-69.65 12.54,-67.53 24.44,-66.91 29.88,-69.36 27.73,-74.73 20.21,-80.69 10.29,-84.9" fill="none" stroke="rgb(85, 19, 134)" stroke-width="2" stroke-linejoin="round" filter="url(#fuzzy)" /><polyline points="-54.87,-59.11 20.38,-51.41 40.71,-55.11 39.18,-62.33 32,-68.68 26.91,-71.65 26.42,-70.79 29.43,-67.61 32.9,-64.52 34.06,-63.46 32.08,-64.98 28.39,-68.19 25.41,-71.53 24.95,-73.66 27.19,-74 30.69,-72.91 32.81,-71.52 30.48,-71.49 21.82,-74.02 9.39,-78.11 4.74,-79.97 32.7,-77.29" fill="none" stroke="rgb(85, 19, 134)" stroke-width="2" stroke-linejoin="round" filter="url(#fuzzy)" /><polyline points="8.8,-84.82 -14.76,-75.13 -2.76,-70.17 15.61,-66 31.22,-61.81 42.41,-57.69 48.44,-54.5 48.67,-53.01 43.39,-53.29 34.31,-54.77 24.05,-56.75 15.06,-58.81 8.82,-60.9 5.77,-62.93 5.61,-64.49 7.37,-65.06 9.28,-64.51 8.94,-63.66 4.54,-64.12 -4.15,-67.12 -15.72,-72.14 -25.9,-77.14 -24.38,-81.05" fill="none" stroke="rgb(85, 19, 134)" stroke-width="2" stroke-linejoin="round" filter="url(#fuzzy)" /><polyline points="21.31,-82.13 -5.57,-68.46 2.29,-68.25 6.82,-69.28 4.97,-69.57 1.26,-69.89 0.04,-70 3.84,-68.86 13.1,-65.95 25.89,-61.91 38.15,-58.16 44.97,-56.36 42.3,-57.84 28.58,-62.69 7.49,-68.78 -5.46,-72.82 28.95,-79.41" fill="none" stroke="rgb(85, 19, 134)" stroke-width="2" stroke-linejoin="round" filter="url(#fuzzy)" /><polyline points="21.73,-81.89 -5.5,-73.91 -4.96,-72.19 0.97,-71.53 8.04,-71.33 12.91,-71.98 14.37,-73.17 13.34,-74.07 11.65,-74.12 10.66,-73.44 10.73,-72.63 11.31,-72.29 11.76,-72.6 12,-73.22 12.42,-73.66 13.03,-73.69 12.73,-73.54 9.86,-73.59 3.82,-73.89 -3.51,-74 -8.79,-73.09 -10.37,-70.56 -6.9,-68.01 32.7,-77.29" fill="none" stroke="rgb(85, 19, 134)" stroke-width="2" stroke-linejoin="round" filter="url(#fuzzy)" /><polyline points="71.41,-30.27 47.03,-54.88 28.12,-60.15 21.41,-59.93 22.57,-61.13 24.98,-64.37 26.05,-67.84 26.32,-69.92 26.65,-70.19 26.63,-69.25 24.69,-68.03 19.22,-67.22 9.62,-66.95 -3.09,-66.96 -16.53,-67.02 -27.81,-67.22 -34.77,-67.88 -36.96,-69.24 -35.97,-70.98 -34.76,-72.15 -35.69,-71.92 -37.12,-71.31 -31.09,-74.57 -7.88,-85.19" fill="none" stroke="rgb(85, 19, 134)" stroke-width="2" stroke-linejoin="round" filter="url(#fuzzy)" /><polyline points="-37.26,-74.58 -14.89,-61.66 17.18,-55.45 31.49,-56.67 34.16,-58.88 32.99,-59.16 30.15,-58.54 25.52,-58.66 19.98,-59.71 14.91,-61 10.14,-62.26 3.93,-64.17 -4.42,-67.59 -12.66,-72.29 -17.36,-76.75 -16.81,-79.22 -7.6,-79.6 26.61,-80.14" fill="none" stroke="rgb(85, 19, 134)" stroke-width="2" stroke-linejoin="round" filter="url(#fuzzy)" /><polyline points="-9.36,-84.76 -9.65,-71.8 1.74,-69.83 1.2,-72.6 -3.01,-75.34 -3.87,-76.85 -1.41,-77.61 0.9,-78.31 0.46,-79.13 -2.71,-79.64 -6.53,-79.18 -8.11,-77.25 -4.77,-73.89 4.72,-69.77 18.68,-66.02 31.61,-63.98 35.6,-65.31 22.58,-72.56 -13.46,-84.27" fill="none" stroke="rgb(85, 19, 134)" stroke-width="2" stroke-linejoin="round" filter="url(#fuzzy)" /><polyline points="-50.08,-64.68 -29.59,-70.41 -5.06,-73.17 9.46,-70.73 15.34,-66.2 16.94,-62.5 16.44,-60.62 14.31,-60.01 10.98,-59.56 6.81,-58.72 2.07,-58.12 -1.27,-59.03 2.07,-61.61 15.23,-64.06 24.49,-66.68 -11.1,-84.76" fill="none" stroke="rgb(85, 19, 134)" stroke-width="2" stroke-linejoin="round" filter="url(#fuzzy)" /><polyline points="-57.67,-56.44 -32.05,-63.48 3.12,-66.28 26.93,-66.06 36.49,-66.19 34.53,-67.12 24.64,-67.94 10.87,-68.27 -1.7,-68.47 -7.99,-68.83 -5.33,-69.08 4.97,-68.83 18.19,-68.49 29.24,-68.06 39.96,-61.64 71.41,-30.27" fill="none" stroke="rgb(85, 19, 134)" stroke-width="2" stroke-linejoin="round" filter="url(#fuzzy)" /><polyline points="-55.62,-58.67 -18.81,-68.33 -4.52,-69.22 9,-70.36 20.61,-71.26 28.5,-70.94 31.92,-69.43 30.83,-67.17 25.99,-64.91 19.36,-63.64 14.26,-63.86 14.26,-64.7 20.77,-64.25 31.35,-61.55 41.23,-58.11 46.63,-57.67 35.44,-75.81" fill="none" stroke="rgb(85, 19, 134)" stroke-width="2" stroke-linejoin="round" filter="url(#fuzzy)" /><polyline points="60.24,-52.68 -5.82,-57.02 -6.24,-59.95 12.64,-61.59 28.18,-63.22 34.41,-65.14 32.2,-66.79 24.07,-67.63 12.71,-67.67 0.67,-67.33 -9.96,-67.11 -17.84,-67.32 -22.31,-68.05 -23.12,-69.29 -20.53,-70.99 -15.76,-73.11 -11.02,-75.57 -8.68,-78.06 -9.33,-79.95 -9.85,-80.45 -3.34,-78.71 18.31,-72.6 59.14,-54.01" fill="none" stroke="rgb(85, 19, 134)" stroke-width="2" stroke-linejoin="round" filter="url(#fuzzy)" /><polyline points="-51.77,-62.6 -14.2,-71.43 5.39,-72.09 12.34,-72.89 13.1,-74.08 10.09,-74.66 5.46,-74.27 0.84,-73.28 -4.06,-72.17 -10.62,-71.2 -18.13,-70.43 -21.76,-69.81 -14.39,-68.59 7.91,-64.89 38.79,-58.64 49.85,-65.08" fill="none" stroke="rgb(85, 19, 134)" stroke-width="2" stroke-linejoin="round" filter="url(#fuzzy)" /><polyline points="30.43,-106.57 29.5,-105.1 28.09,-104.94 26.19,-104.26 24.09,-103.02 22.11,-101.78 20.38,-101.13 18.89,-101.26 17.53,-101.82 16.19,-102.14 14.82,-101.66 13.38,-100.23 11.92,-98.13 10.47,-95.86 9.06,-93.84 7.69,-92.16 6.37,-90.67 5.08,-89.17 3.79,-87.68 2.54,-86.5 1.36,-85.89 0.18,-85.74 -1.87,-85.61" fill="none" stroke="rgb(85, 19, 134)" stroke-width="2" stroke-linejoin="round" filter="url(#fuzzy)" /><polyline points="-19.81,-72.97 -18.02,-74.68 -16.83,-75.41 -15.73,-75.84 -14.66,-76.22 -13.67,-76.7 -12.77,-77.39 -11.94,-78.31 -11.13,-79.37 -10.32,-80.44 -9.49,-81.44 -8.63,-82.35 -7.69,-83.2 -6.63,-83.98 -5.44,-84.64 -4.21,-85.11 -3.14,-85.35 -2.99,-85.4 -2.99,-85.4 -3.15,-84.77 -4.26,-84.79 -5.53,-84.71 -6.75,-84.42 -7.87,-84.08 -8.91,-83.82 -9.91,-83.66 -10.91,-83.54 -11.92,-83.42 -12.94,-83.23 -13.98,-82.98 -15.05,-82.66 -16.17,-82.27 -17.32,-81.82 -18.5,-81.29 -19.67,-80.68 -20.82,-79.97 -21.89,-79.19 -22.89,-78.37 -23.83,-77.58 -24.86,-76.82 -26.23,-76 -27.97,-74.89 -5.18,-85.32 -5.86,-86 -7.17,-86.7 -8.5,-88.21 -9.8,-90.23 -11.06,-91.99 -12.23,-92.88 -13.33,-92.83 -14.4,-92.23 -15.54,-91.66 -16.84,-91.58 -18.34,-92.18 -20.02,-93.3 -21.81,-94.65 -23.63,-95.88 -25.4,-96.82 -27.09,-97.43 -28.72,-97.85 -30.34,-98.24 -32.1,-98.76 -34.08,-99.59 -36.01,-101.04 -36.51,-103.13 -4.82,-85.34 -4.3,-85.73 -3.32,-86.33 -2.31,-86.96 -1.23,-87.51 -0.08,-87.87 1.12,-88.07 2.33,-88.2 3.56,-88.4 4.79,-88.76 6.03,-89.29 7.27,-89.94 8.5,-90.63 9.72,-91.3 10.94,-91.95 12.2,-92.64 13.54,-93.5 14.98,-94.56 16.49,-95.74 17.99,-96.81 19.42,-97.5 20.85,-97.69 22.45,-97.47 24.31,-97.17 26.03,-98.11 30.1,-113.45 28.22,-112.5 25.64,-110.94 23.59,-110.31 21.95,-110.14 20.38,-109.72 18.74,-108.74 17.05,-107.29 15.39,-105.64 13.82,-104.08 12.36,-102.78 10.95,-101.81 9.57,-101.13 8.2,-100.62 6.84,-100.07 5.46,-99.28 4.08,-98.08 2.69,-96.48 1.31,-94.67 -0.03,-93 -1.29,-91.69 -2.42,-90.49 -3.41,-88.72 -4.32,-86.36 -4.82,-85.34" fill="none" stroke="rgb(85, 19, 134)" stroke-width="2" stroke-linejoin="round" filter="url(#fuzzy)" /><polyline points="19.19,-93.4 18.15,-92.9 17.14,-92.81 15.82,-92.78 14.41,-92.65 13.1,-92.33 11.87,-91.76 10.69,-91.04 9.5,-90.31 8.3,-89.73 7.1,-89.34 5.89,-89.11 4.69,-88.95 3.48,-88.77 2.26,-88.53 1.05,-88.26 -0.15,-87.99 -1.3,-87.7 -2.4,-87.31 -3.47,-86.8 -4.61,-86.17 -6,-85.5 -8.25,-85.01" fill="none" stroke="rgb(85, 19, 134)" stroke-width="2" stroke-linejoin="round" filter="url(#fuzzy)" /><polyline points="14.66,-102.87 13.53,-102.12 12.75,-101.22 11.64,-99.94 10.3,-98.61 8.9,-97.36 7.52,-96.16 6.17,-94.96 4.85,-93.74 3.53,-92.56 2.24,-91.53 0.96,-90.76 -0.27,-90.28 -1.46,-89.98 -2.6,-89.71 -3.75,-89.46 -4.98,-89.4 -6.36,-89.76 -7.7,-89.85 -7.88,-85.19" fill="none" stroke="rgb(85, 19, 134)" stroke-width="2" stroke-linejoin="round" filter="url(#fuzzy)" /><polyline points="16.81,-88.49 16.36,-88 15.02,-87.84 13.61,-87.92 12.4,-88.16 11.36,-88.46 10.34,-88.71 9.28,-88.81 8.16,-88.7 6.98,-88.39 5.79,-87.97 4.59,-87.54 3.38,-87.2 2.18,-86.98 0.99,-86.85 -0.18,-86.74 -1.32,-86.59 -2.43,-86.39 -3.54,-86.14 -4.7,-85.83 -5.96,-85.49 -7.25,-85.21 -7.88,-85.19 -10.35,-84.95 -10.31,-84.77 -11.21,-84.53 -12.27,-84.23 -13.29,-83.9 -14.31,-83.55 -15.39,-83.19 -16.54,-82.83 -17.75,-82.46 -18.99,-82.08 -20.24,-81.69 -21.45,-81.27 -22.63,-80.84 -23.76,-80.38 -24.85,-79.9 -25.93,-79.4 -26.99,-78.86 -28.01,-78.28 -29.04,-77.68 -30.17,-77.02 -31.49,-76.32 -32.53,-75.83" fill="none" stroke="rgb(85, 19, 134)" stroke-width="2" stroke-linejoin="round" filter="url(#fuzzy)" /><polyline points="-10.35,-84.95 -8.67,-85.11 -7.34,-85.31 -6.04,-85.62 -4.79,-85.99 -3.63,-86.37 -2.5,-86.73 -1.37,-87.05 -0.22,-87.29 0.95,-87.43 2.14,-87.47 3.33,-87.45 4.51,-87.41 5.69,-87.4 6.86,-87.44 8.02,-87.52 9.14,-87.6 10.22,-87.68 11.26,-87.74 12.34,-87.76 13.56,-87.71 14.95,-87.55 16.24,-87.37 16.64,-87.56" fill="none" stroke="rgb(85, 19, 134)" stroke-width="2" stroke-linejoin="round" filter="url(#fuzzy)" /><polyline points="-11.1,-84.76 -10.24,-86.18 -9.64,-87.55 -8.81,-88.49 -7.72,-88.88 -6.49,-89.06 -5.24,-89.37 -4.05,-89.99 -2.89,-90.97 -1.74,-92.34 -0.55,-94.07 0.72,-96.22 2.08,-98.82 3.56,-101.92 5.17,-105.38 6.83,-108.45 7.91,-108.8" fill="none" stroke="rgb(85, 19, 134)" stroke-width="2" stroke-linejoin="round" filter="url(#fuzzy)" /><polyline points="-13.37,-84.14 -14.04,-86.36 -14.92,-86.75 -16.02,-86.47 -17.19,-85.82 -18.39,-85.08 -19.64,-84.48 -20.97,-84.18 -22.37,-84.23 -23.82,-84.59 -25.27,-85.12 -26.71,-85.62 -28.1,-85.88 -29.39,-85.8 -30.56,-85.48 -31.69,-85.13 -33.18,-84.87 -35.52,-84.3" fill="none" stroke="rgb(85, 19, 134)" stroke-width="2" stroke-linejoin="round" filter="url(#fuzzy)" /><polyline points="-15.78,-83.71 -17.12,-83.94 -18.55,-84.4 -20.13,-85.2 -21.84,-86.35 -23.55,-87.49 -25.11,-88.2 -26.49,-88.4 -27.82,-88.36 -29.24,-88.47 -30.82,-88.96 -32.53,-89.77 -34.32,-90.63 -36.17,-91.29 -38.07,-91.72 -39.94,-92.08 -41.57,-92.71 -42.69,-94.41 -31.92,-74.4 -31.09,-75.27 -29.87,-76.14 -28.8,-76.88 -27.83,-77.48 -26.84,-78.04 -25.82,-78.63 -24.82,-79.28 -23.84,-79.96 -22.83,-80.62 -21.75,-81.24 -20.57,-81.78 -19.35,-82.28 -18.14,-82.76 -16.96,-83.28 -15.78,-83.71 -16.99,-83.6 -15.67,-83.31 -14.53,-83.35 -13.54,-83.33 -12.55,-83.2 -11.53,-82.97 -10.49,-82.64 -9.47,-82.21 -8.43,-81.74 -7.34,-81.29 -6.21,-80.89 -5.06,-80.52 -3.94,-80.15 -2.88,-79.79 -1.88,-79.45 -0.85,-79.07 0.14,-78.4 0.13,-77.19" fill="none" stroke="rgb(85, 19, 134)" stroke-width="2" stroke-linejoin="round" filter="url(#fuzzy)" /><polyline points="3.79,-101.25 3.04,-100.08 1.76,-97.84 0.46,-95.89 -0.81,-94.46 -2.03,-93.47 -3.23,-92.77 -4.45,-92.26 -5.69,-91.82 -6.91,-91.33 -8.08,-90.68 -9.15,-89.85 -10.15,-88.96 -11.12,-88.18 -12.12,-87.6 -13.1,-87.15 -14.02,-86.52 -14.86,-85.46 -15.82,-84.21 -16.99,-83.6" fill="none" stroke="rgb(85, 19, 134)" stroke-width="2" stroke-linejoin="round" filter="url(#fuzzy)" /><polyline points="6.38,-86.84 6.07,-86.83 5.22,-86.85 4.1,-86.87 2.9,-86.85 1.7,-86.78 0.51,-86.69 -0.65,-86.59 -1.8,-86.47 -2.93,-86.33 -4.08,-86.15 -5.24,-85.95 -6.41,-85.74 -7.54,-85.52 -8.64,-85.3 -9.68,-85.1 -10.7,-84.9 -11.71,-84.7 -12.71,-84.49 -13.72,-84.29 -14.76,-84.06 -15.91,-83.78 -17.26,-83.41 -18.84,-82.85" fill="none" stroke="rgb(85, 19, 134)" stroke-width="2" stroke-linejoin="round" filter="url(#fuzzy)" /><polyline points="-24.38,-81.05 -23.93,-81.4 -22.8,-82.22 -21.61,-83.18 -20.43,-84.16 -19.26,-85.14 -18.11,-86.13 -17,-87.11 -15.94,-88.07 -14.93,-89.01 -13.95,-89.97 -12.99,-91.06 -12.06,-92.3 -11.16,-93.62 -10.27,-94.89 -9.3,-96.14 -8.02,-97.76 -5.66,-100.19 -27.4,-79.87 -26.36,-82.58 -25.25,-82.71 -24.15,-82.73 -23,-83.13 -21.83,-83.86 -20.66,-84.87 -19.53,-86.14 -18.46,-87.65 -17.44,-89.33 -16.47,-91.06 -15.54,-92.8 -14.62,-94.53 -13.71,-96.24 -12.77,-97.82 -11.8,-99.07 -10.76,-99.81 -9.6,-100.18 -8.28,-100.76 -6.94,-102.41 -6.39,-105.28 -27.4,-79.87 -28.62,-79.61 -29.56,-79.66 -30.86,-79.76 -32.47,-80.04 -34.15,-80.48 -35.72,-80.9 -37.1,-81.2 -38.35,-81.44 -39.64,-81.85 -41.14,-82.66 -42.91,-83.87 -44.87,-85.21 -46.86,-86.24 -48.72,-86.61 -50.43,-86.22 -52.01,-85.36 -53.63,-84.77 -55.9,-85.23" fill="none" stroke="rgb(85, 19, 134)" stroke-width="2" stroke-linejoin="round" filter="url(#fuzzy)" /><polyline points="-33.12,-77.2 -34.62,-77.07 -36.1,-77.86 -37.82,-79.39 -39.56,-81 -41.2,-82.27 -42.75,-83.05 -44.2,-83.31 -45.58,-83.08 -47.02,-82.6 -48.68,-82.25 -50.64,-82.32 -52.85,-82.84 -55.13,-83.58 -57.26,-84.21 -59.04,-84.48 -60.57,-84.51 -62.55,-84.78 -66.37,-85.7" fill="none" stroke="rgb(85, 19, 134)" stroke-width="2" stroke-linejoin="round" filter="url(#fuzzy)" /><polyline points="-37.26,-74.58 -37.07,-75.21 -37.66,-75.13 -38.46,-74.62 -39.37,-73.96 -40.41,-73.26 -41.56,-72.56 -42.8,-71.9 -44.05,-71.27 -45.25,-70.67 -46.37,-70.07 -47.4,-69.43 -48.37,-68.73 -49.33,-67.96 -50.3,-67.12 -51.28,-66.24 -52.18,-65.42 -52.93,-64.79 -53.63,-64.4 -54.55,-64.18 -63.08,-61.73 -61.23,-63.13 -59.97,-63.85 -58.71,-64.32 -57.41,-64.71 -56.17,-65.08 -55.05,-65.44 -54.03,-65.85 -53.04,-66.36 -52.05,-66.99 -51.05,-67.72 -50.08,-68.51 -49.12,-69.31 -48.16,-70.06 -47.11,-70.69 -45.93,-71.2 -44.62,-71.63 -43.21,-72.08 -41.79,-72.62 -40.45,-73.17 -39.38,-73.57 -38.87,-73.68" fill="none" stroke="rgb(85, 19, 134)" stroke-width="2" stroke-linejoin="round" filter="url(#fuzzy)" /><polyline points="-76.15,-69.95 -73.52,-71.11 -71.64,-71.6 -69.41,-71.44 -66.91,-70.87 -64.46,-70.27 -62.33,-69.94 -60.73,-70.07 -59.71,-70.72 -59.09,-71.77 -58.51,-72.87 -57.55,-73.61 -55.98,-73.69 -53.85,-73.07 -51.46,-72 -49.16,-70.92 -47.16,-70.16 -45.52,-69.85 -44.36,-69.92 -44.02,-70.13 -18.4,-81.52 -20.57,-80.8 -21.94,-80.4 -23.11,-80.11 -24.22,-79.83 -25.33,-79.53 -26.46,-79.19 -27.61,-78.81 -28.76,-78.39 -29.92,-77.93 -31.09,-77.41 -32.22,-76.86 -33.28,-76.28 -34.25,-75.71 -35.13,-75.18 -35.94,-74.7 -36.72,-74.26 -37.53,-73.84 -38.4,-73.41 -39.36,-72.91 -40.43,-72.27 -41.66,-71.44 -42.97,-70.52 -43.68,-69.97" fill="none" stroke="rgb(85, 19, 134)" stroke-width="2" stroke-linejoin="round" filter="url(#fuzzy)" /><polyline points="-43.68,-69.97 -43.3,-71.12 -42.88,-73.73 -42.8,-76.78 -42.7,-79.37 -42.37,-81.22 -41.84,-82.49 -41.22,-83.49 -40.58,-84.46 -39.89,-85.49 -39.08,-86.52 -38.13,-87.53 -37.04,-88.55 -35.92,-89.73 -34.87,-91.19 -33.94,-93 -33.12,-95.1 -32.36,-97.35 -31.59,-99.65 -30.78,-101.9 -29.86,-104.04 -28.76,-106.02 -27.47,-108 -26.2,-110.47 -25.85,-113.68" fill="none" stroke="rgb(85, 19, 134)" stroke-width="2" stroke-linejoin="round" filter="url(#fuzzy)" /><polyline points="-66.75,-49.29 -66.3,-49.56 -65.54,-50.25 -64.79,-51.23 -64.06,-52.3 -63.3,-53.35 -62.47,-54.34 -61.57,-55.27 -60.64,-56.19 -59.7,-57.11 -58.77,-58.03 -57.85,-58.93 -56.95,-59.81 -56.05,-60.64 -55.15,-61.41 -54.25,-62.11 -53.37,-62.75 -52.52,-63.34 -51.68,-63.95 -50.82,-64.66 -49.91,-65.5 -49,-66.42 -48.14,-67.23 -47.2,-67.72 -45.54,-68.52 -45.54,-68.52 -45.01,-69.17 -44.19,-69.99 -43.34,-71.21 -42.6,-72.84 -41.99,-74.65 -41.4,-76.25 -40.71,-77.4 -39.92,-78.12 -39.09,-78.63 -38.34,-79.24 -37.69,-80.12 -37.07,-81.28 -36.37,-82.55 -35.47,-83.77 -34.37,-84.86 -33.19,-85.83 -32.2,-86.8 -31.65,-88.06 -30.97,-90.25 -48.02,-66.7 -50.08,-69.75 -51.14,-69.53 -52.17,-68.54 -53.2,-67.67 -54.18,-67.07 -55.21,-66.72 -56.46,-66.59 -58.02,-66.67 -59.82,-66.87 -61.67,-67.03 -63.45,-67.04 -65.19,-66.91 -67.15,-66.86 -69.5,-67.04 -71.94,-67.19 -73.28,-66.88 -47.28,-67.07 -48.79,-66.8 -50.13,-65.76 -51.04,-64.68 -51.76,-63.86 -52.53,-63.32 -53.51,-62.98 -54.69,-62.73 -56.02,-62.49 -57.38,-62.2 -58.69,-61.81 -59.91,-61.26 -61.04,-60.54 -62.14,-59.7 -63.34,-58.88 -64.7,-58.29 -66.02,-58.11 -66.38,-58.6 -51.03,-63.42 -53.52,-66.7 -52.12,-67.16 -50.46,-67.52 -49.35,-68.35 -48.78,-69.75 -48.63,-71.8 -48.73,-74.37 -48.86,-77.17 -48.79,-79.84 -48.41,-82.13 -47.73,-83.98 -46.89,-85.48 -46.02,-86.74 -45.16,-87.8 -44.32,-88.62 -43.46,-89.27 -42.67,-90.06 -42.08,-91.44 -41.76,-93.74 -41.52,-96.71 -40.78,-99.46 -38.69,-101.24 -51.89,-62.35 -52.82,-62.11 -54.16,-61.83 -55.9,-61.83 -57.9,-62.11 -59.91,-62.37 -61.83,-62.43 -63.68,-62.31 -65.48,-62.06 -67.24,-61.73 -68.97,-61.36 -70.74,-61 -72.57,-60.66 -74.43,-60.32 -76.26,-59.96 -78.07,-59.6 -79.95,-59.25 -82.11,-58.89 -84.64,-58.26 -87.16,-56.88 -88.3,-54.79" fill="none" stroke="rgb(85, 19, 134)" stroke-width="2" stroke-linejoin="round" filter="url(#fuzzy)" /><polyline points="73.87,-20.97 74.53,-18.46 75.24,-16.95 75.86,-16.05 76.39,-15.23 76.88,-14.22 77.36,-13 77.77,-11.68 78.1,-10.37 78.38,-9.11 78.69,-7.9 79.13,-6.72 79.71,-5.51 80.43,-4.27 81.27,-2.95 82.21,-1.58 83.29,-0.16 84.52,1.28 85.78,2.82 86.74,4.74 87.12,7.34 87.54,10.22" fill="none" stroke="rgb(85, 19, 134)" stroke-width="2" stroke-linejoin="round" filter="url(#fuzzy)" /><polyline points="-50.42,-95.65 -49.68,-90.49 -49.6,-86.52 -49.7,-83.1 -49.86,-80.2 -50.1,-77.83 -50.46,-75.89 -50.93,-74.27 -51.56,-72.93 -52.39,-71.84 -53.45,-71 -54.6,-70.33 -55.55,-69.6 -55.93,-68.45 -55.58,-66.58 -54.85,-64.17 -54.59,-61.75 -55.4,-58.99 -49.26,-93.45 -49.09,-89.38 -49.23,-85.87 -49.43,-82.63 -49.69,-79.89 -50.03,-77.66 -50.44,-75.78 -50.87,-74.11 -51.34,-72.55 -51.89,-71.11 -52.59,-69.84 -53.39,-68.78 -54.18,-67.87 -54.77,-66.93 -55.06,-65.77 -55.08,-64.19 -54.95,-62.18 -54.9,-60.1 -54.87,-59.11" fill="none" stroke="rgb(85, 19, 134)" stroke-width="2" stroke-linejoin="round" filter="url(#fuzzy)" /><polyline points="-46.34,-64.37 -46.23,-64.38 -46.96,-63.83 -47.95,-62.99 -48.91,-62.2 -49.75,-61.59 -50.52,-61.09 -51.3,-60.61 -52.17,-60.09 -53.1,-59.52 -54.07,-58.91 -55.01,-58.26 -55.93,-57.56 -56.83,-56.79 -57.75,-55.86 -58.97,-54.17" fill="none" stroke="rgb(85, 19, 134)" stroke-width="2" stroke-linejoin="round" filter="url(#fuzzy)" /><polyline points="-59.24,-54.06 -60.45,-53.04 -61.27,-52.22 -62.03,-51.23 -62.73,-50.19 -63.39,-49.16 -64.09,-48.16 -64.9,-47.15 -65.9,-46.14 -67.09,-45.14 -68.4,-44.18 -69.72,-43.28 -70.94,-42.4 -71.98,-41.52 -72.83,-40.6 -73.55,-39.63 -74.26,-38.61 -75.1,-37.53 -76.15,-36.38 -77.46,-35.17 -78.89,-33.94 -80.04,-32.86 -80.51,-32.92" fill="none" stroke="rgb(85, 19, 134)" stroke-width="2" stroke-linejoin="round" filter="url(#fuzzy)" /><polyline points="73.97,-21.61 78.18,-21.42 78.1,-19.51 78.16,-17.91 79.46,-16.92 81.72,-16.22 84.2,-15.42 86.29,-14.38 87.72,-13.11 88.62,-11.73 89.29,-10.32 90,-8.95 90.84,-7.6 91.66,-6.26 92.27,-4.86 92.58,-3.38 92.73,-1.82 93.11,-0.18 94.1,1.54 95.81,3.41 97.81,5.56 99.38,8 100.2,10.2 101.74,10.83" fill="none" stroke="rgb(85, 19, 134)" stroke-width="2" stroke-linejoin="round" filter="url(#fuzzy)" /><polyline points="-66.28,-32.2 -66.03,-33.65 -65.93,-34.7 -65.99,-35.81 -66.08,-36.99 -66.07,-38.2 -65.87,-39.42 -65.47,-40.68 -64.91,-42 -64.25,-43.36 -63.6,-44.69 -63.01,-45.89 -62.56,-46.96 -62.25,-47.99 -62.05,-49.04 -62.1,-49.71 -62.1,-49.71 -62.08,-49.03 -62.5,-48.13 -62.9,-47.13 -63.1,-45.86 -62.97,-44.18 -62.51,-42.17 -61.82,-40.03 -61.09,-37.99 -60.54,-36.21 -60.31,-34.77 -60.42,-33.63 -60.74,-32.66 -61.09,-31.7 -61.27,-30.58 -61.26,-29.26 -61.12,-27.8 -60.89,-26.33 -60.48,-25.01 -59.84,-24.01 -59.43,-23.25" fill="none" stroke="rgb(85, 19, 134)" stroke-width="2" stroke-linejoin="round" filter="url(#fuzzy)" /><polyline points="-66.22,-42.44 -64.98,-45.1 -64.66,-46.81 -64.52,-48.11 -64.27,-49.28 -63.87,-50.43 -63.35,-51.58 -62.78,-52.74 -62.19,-53.9 -61.6,-55.09 -61.02,-56.32 -60.42,-57.58 -59.79,-58.8 -59.11,-59.96 -58.38,-61.05 -57.64,-62.12 -56.97,-63.26 -56.38,-64.48 -55.91,-65.69 -55.54,-66.73 -55.32,-67.36 -55.58,-67.2" fill="none" stroke="rgb(85, 19, 134)" stroke-width="2" stroke-linejoin="round" filter="url(#fuzzy)" /><polyline points="-48.89,-57.52 -50.01,-57.21 -51.18,-56.56 -52.23,-55.99 -53.27,-55.45 -54.3,-54.85 -55.27,-54.12 -56.12,-53.25 -56.86,-52.29 -57.57,-51.31 -58.31,-50.37 -59.12,-49.5 -60,-48.7 -60.91,-47.95 -61.77,-47.21 -62.55,-46.42 -63.32,-45.47 -64.27,-44.27 -65.63,-42.82 -67.05,-41.61" fill="none" stroke="rgb(85, 19, 134)" stroke-width="2" stroke-linejoin="round" filter="url(#fuzzy)" /><polyline points="-68.23,-38.22 -67.44,-40.49 -67.14,-42.15 -66.76,-43.82 -66.3,-45.46 -65.79,-46.91 -65.26,-48.14 -64.71,-49.25 -64.17,-50.34 -63.68,-51.5 -63.24,-52.75 -62.85,-54.06 -62.48,-55.43 -62.11,-56.85 -61.69,-58.3 -61.2,-59.75 -60.61,-61.17 -59.95,-62.63 -59.23,-63.81 -63.26,-17.59 -63.89,-18.47 -64.76,-20.21 -65.48,-22.05 -66.07,-23.71 -66.65,-25.18 -67.21,-26.5 -67.68,-27.78 -68.02,-29.12 -68.25,-30.58 -68.39,-32.12 -68.43,-33.62 -68.38,-35 -68.28,-36.23 -68.19,-37.34 -68.13,-38.2 -68.23,-38.22" fill="none" stroke="rgb(85, 19, 134)" stroke-width="2" stroke-linejoin="round" filter="url(#fuzzy)" /><polyline points="-68,-39.1 -68.51,-39.78 -68,-40.91 -67.35,-42.2 -66.78,-43.69 -66.31,-45.29 -65.94,-46.84 -65.63,-48.26 -65.35,-49.58 -65.1,-50.9 -64.92,-52.33 -64.83,-53.9 -64.81,-55.53 -64.73,-57.1 -64.45,-58.59 -63.86,-60.23 -62.66,-62.52 -68,-39.1 -67.99,-39.53 -67.61,-40.76 -67.06,-42.15 -66.53,-43.68 -66.08,-45.28 -65.68,-46.8 -65.26,-48.15 -64.79,-49.37 -64.29,-50.54 -63.81,-51.75 -63.36,-53.01 -62.91,-54.31 -62.45,-55.62 -61.92,-56.92 -61.31,-58.17 -60.62,-59.38 -59.91,-60.55 -59.21,-61.71 -58.57,-62.9 -57.95,-64.15 -57.29,-65.43 -56.6,-66.55 -56.07,-67.37 -71.29,-31.1 -70.02,-28.78 -69.43,-27.67 -69.51,-26.78 -69.81,-25.67 -70.21,-24.38 -70.68,-23.03 -71.15,-21.75 -71.53,-20.56 -71.71,-19.41 -71.67,-18.26 -71.43,-17.05 -71.02,-15.8 -70.52,-14.54 -70,-13.3 -69.53,-12.13 -69.1,-11.02 -68.58,-9.9 -67.91,-8.6 -67.37,-6.91 -72.38,-12.54 -72.45,-13.98 -72.24,-15.05 -71.98,-16.16 -71.87,-17.34 -71.95,-18.52 -72.15,-19.69 -72.33,-20.92 -72.38,-22.25 -72.27,-23.69 -72.03,-25.15 -71.75,-26.51 -71.54,-27.64 -71.51,-28.54 -71.58,-29.41 -71.29,-31.1 -71.97,-28.11 -71.47,-30.52 -70.95,-32.33 -70.4,-33.82 -69.88,-35.1 -69.41,-36.24 -68.95,-37.29 -68.48,-38.32 -67.99,-39.4 -67.46,-40.54 -66.89,-41.78 -66.29,-43.09 -65.66,-44.43 -65.04,-45.73 -64.44,-46.98 -63.85,-48.15 -63.29,-49.28 -62.73,-50.4 -62.16,-51.52 -61.56,-52.62 -60.91,-53.7 -60.23,-54.78 -59.53,-55.94 -58.89,-57.08 -58.74,-57.49" fill="none" stroke="rgb(85, 19, 134)" stroke-width="2" stroke-linejoin="round" filter="url(#fuzzy)" /><polyline points="52.15,-39.65 53.71,-39.43 55,-39.23 56.18,-38.88 57.29,-38.34 58.27,-37.65 59.2,-36.91 60.24,-36.21 61.51,-35.62 63.01,-35.14 64.58,-34.7 66.03,-34.19 67.26,-33.51 68.26,-32.6 69.11,-31.53 69.91,-30.41 70.66,-29.4 71.34,-28.52 71.91,-27.68 72.29,-27.27" fill="none" stroke="rgb(85, 19, 134)" stroke-width="2" stroke-linejoin="round" filter="url(#fuzzy)" /><polyline points="70.29,-33.06 71.05,-31.17 71.5,-29.92 71.85,-28.94 72.23,-27.95 72.68,-26.86 73.15,-25.66 73.61,-24.39 74,-23.11 74.35,-21.84 74.68,-20.57 75.04,-19.29 75.44,-18.06 75.85,-16.95 76.25,-16.03 76.57,-15.16 76.84,-14.04 77.1,-12.46 77.35,-10.73 67.62,-10.79 68.37,-12.77 68.66,-13.82 68.94,-14.59 69.22,-15.51 69.4,-16.67 69.44,-17.93 69.4,-19.21 69.38,-20.48 69.45,-21.8 69.62,-23.19 69.87,-24.62 70.11,-26.01 70.18,-27.24 69.97,-28.29 69.48,-29.27 69.07,-30.49 69.36,-32.3 70.06,-34.13" fill="none" stroke="rgb(85, 19, 134)" stroke-width="2" stroke-linejoin="round" filter="url(#fuzzy)" /><polyline points="70.06,-34.13 74.26,-34.56 74.72,-33.02 75.2,-31.73 76.01,-30.78 77,-29.89 78.33,-28.98 80.31,-28.13 83.01,-27.41 86.11,-26.8 89,-26.12 91.21,-25.19 92.78,-23.93 94.3,-22.55 96.52,-21.48 99.58,-21.1 102.35,-21.15 102.69,-20.12" fill="none" stroke="rgb(85, 19, 134)" stroke-width="2" stroke-linejoin="round" filter="url(#fuzzy)" /><polyline points="67.57,-39.38 66.91,-40.01 66.02,-40.68 65.09,-41.46 64.15,-42.32 63.2,-43.17 62.23,-43.96 61.27,-44.75 60.38,-45.61 59.59,-46.55 58.89,-47.52 58.23,-48.43 57.54,-49.17 56.76,-49.72 55.85,-50.15 54.84,-50.58 53.82,-51.18 52.83,-52.03 51.9,-53.05 50.99,-54.02 50.03,-54.7 48.94,-55 47.56,-55.19 45.52,-56.28 67.57,-39.38 68.45,-37.56 69.02,-36.42 69.49,-35.46 69.96,-34.36 70.45,-33.11 70.93,-31.81 71.39,-30.58 71.81,-29.42 72.21,-28.31 72.6,-27.18 73.01,-25.98 73.44,-24.72 73.85,-23.46 74.23,-22.25 74.55,-21.07 74.84,-19.73 75.18,-17.87 75.62,-15.48 67.62,-40.17 67.02,-41.28 66.42,-42.26 65.72,-43.33 64.97,-44.38 64.22,-45.35 63.47,-46.28 62.7,-47.25 61.94,-48.28 61.22,-49.33 60.56,-50.34 59.98,-51.24 59.46,-51.95 58.93,-52.51 58.32,-53.01 57.52,-53.69 56.48,-54.75 55.28,-55.98" fill="none" stroke="rgb(85, 19, 134)" stroke-width="2" stroke-linejoin="round" filter="url(#fuzzy)" /><polyline points="95.5,-27.11 93.12,-27.01 91.6,-27.56 90.15,-28.66 88.63,-29.93 87.17,-31.18 85.89,-32.32 84.68,-33.32 83.29,-34.2 81.62,-35 79.86,-35.86 78.23,-36.82 76.79,-37.78 75.41,-38.6 74.22,-39.41 73.68,-40.66 73.31,-42.15 67.62,-40.17 84.7,-17.19 83.64,-18.01 82.35,-19.62 81.38,-21.24 80.63,-22.63 79.98,-23.91 79.38,-25.19 78.74,-26.47 77.98,-27.69 77.06,-28.76 76,-29.72 74.86,-30.61 73.71,-31.52 72.59,-32.52 71.57,-33.59 70.73,-34.71 70.09,-35.79 69.57,-36.85 69,-37.97 68.27,-39.2 67.62,-40.17" fill="none" stroke="rgb(85, 19, 134)" stroke-width="2" stroke-linejoin="round" filter="url(#fuzzy)" /><polyline points="75.95,-21.56 75.68,-21.97 75.31,-22.71 74.85,-23.87 74.37,-25.21 73.91,-26.52 73.47,-27.73 73.02,-28.85 72.55,-29.96 72.04,-31.11 71.5,-32.32 70.95,-33.55 70.41,-34.76 69.89,-35.91 69.35,-37.03 68.78,-38.15 68.2,-39.29 67.66,-40.42 67.16,-41.45 66.62,-42.38 65.82,-43.73" fill="none" stroke="rgb(85, 19, 134)" stroke-width="2" stroke-linejoin="round" filter="url(#fuzzy)" /><polyline points="59.29,-63.99 60.25,-61.64 61.01,-59.6 61.64,-57.97 62.16,-56.83 62.52,-55.93 62.72,-55 62.83,-53.9 62.99,-52.63 63.28,-51.28 63.68,-49.89 64.1,-48.52 64.48,-47.25 64.79,-46.16 65.07,-45.14 65.82,-43.73 64.22,-45.73 65.53,-43.97 66.52,-42.69 67.31,-41.66 67.98,-40.63 68.65,-39.54 69.43,-38.5 70.35,-37.53 71.38,-36.6 72.4,-35.64 73.35,-34.59 74.2,-33.46 74.97,-32.3 75.73,-31.17 76.52,-30.07 77.35,-28.98 78.22,-27.84 79.09,-26.65 79.93,-25.41 80.76,-24.18 81.61,-22.94 82.5,-21.56 83.43,-19.93 84.42,-18.21 85.75,-17.4 63.3,-48.13 60.42,-44.41 61.29,-43.75 62.46,-43.26 63.41,-42.47 64.09,-41.45 64.47,-40.26 64.56,-38.91 64.49,-37.49 64.43,-36.09 64.45,-34.77 64.47,-33.49 64.4,-32.16 64.12,-30.7 63.67,-29.13 63.16,-27.57 62.71,-26.15 62.29,-24.91 61.72,-23.73 60.92,-22.49 60.71,-21.33 62.47,-49.57 64.58,-49.22 67.59,-49.77 69.54,-49.7 70.17,-48.68 70.15,-47.1 70.17,-45.48 70.67,-44.14 71.86,-43.21 73.79,-42.69 76.35,-42.5 79.23,-42.47 81.98,-42.35 84.2,-41.87 85.72,-40.91 86.74,-39.58 87.77,-38.21 89.27,-37.13 91.31,-36.43 93.43,-35.85 95.04,-35.06 96.69,-33.97 60.47,-52.06 61.22,-50.82 62.03,-49.53 62.7,-48.25 63.24,-47.01 63.69,-45.84 64.08,-44.67 64.39,-43.43 64.54,-42.08 64.48,-40.61 64.28,-39.08 64.07,-37.55 64.03,-36.13 64.21,-34.88 64.5,-33.8 64.71,-32.74 64.78,-31.51 64.87,-29.99 65.51,-28.27" fill="none" stroke="rgb(85, 19, 134)" stroke-width="2" stroke-linejoin="round" filter="url(#fuzzy)" /><polyline points="81.18,-38.19 81.27,-39.86 80.46,-40.89 79.12,-41.51 77.63,-42.16 76.25,-42.99 75,-43.91 73.83,-44.83 72.72,-45.76 71.7,-46.72 70.73,-47.7 69.74,-48.61 68.56,-49.35 67.07,-49.87 65.29,-50.24 63.44,-50.63 61.85,-51.16 60.8,-51.82 60.45,-52.36" fill="none" stroke="rgb(85, 19, 134)" stroke-width="2" stroke-linejoin="round" filter="url(#fuzzy)" /><polyline points="59.24,-54.21 62.73,-56.6 62.75,-58.03 62.54,-60.15 62.22,-62.36 61.54,-64.05 60.53,-65.19 59.43,-66.1 58.49,-67.2 57.87,-68.7 57.55,-70.56 57.39,-72.5 57.26,-74.31 57.09,-76.06 57.01,-78.05 57.16,-80.69 57.71,-84.33 59.04,-89.4" fill="none" stroke="rgb(85, 19, 134)" stroke-width="2" stroke-linejoin="round" filter="url(#fuzzy)" /><polyline points="59.14,-54.01 57.97,-55.8 56.9,-57.38 55.99,-58.75 55.24,-59.94 54.56,-61.06 53.89,-62.21 53.23,-63.46 52.63,-64.76 52.1,-66.06 51.6,-67.3 51.05,-68.47 50.41,-69.56 49.67,-70.63 48.87,-71.65 48.04,-72.6 47.26,-73.48 46.62,-74.43 46.09,-75.6 45.5,-76.61 56.78,-57.5 55.49,-58.88 54.79,-59.93 54.32,-61.1 53.88,-62.49 53.41,-63.99 52.93,-65.47 52.45,-66.85 51.99,-68.2 51.55,-69.6 51.17,-71.17 50.88,-72.95 50.67,-74.93 50.51,-77.04 50.35,-79.19 50.09,-81.33 49.69,-83.45 49.1,-85.54 48.39,-87.62 47.65,-89.7 47,-91.77 46.51,-93.8 45.98,-95.46 44.92,-96.08 56.78,-57.5 55.08,-58.42 54.18,-59.22 53.24,-59.77 52.14,-60.31 51.04,-60.99 50.08,-61.81 49.25,-62.64 48.47,-63.42 47.65,-64.1 46.73,-64.68 45.71,-65.17 44.63,-65.6 43.54,-65.96 42.45,-66.24 41.3,-66.43 40.04,-66.53 38.62,-66.63 37.1,-66.82 35.63,-67.11 34.7,-67.59 54.94,-59.3 54.31,-59.75 53.51,-60.16 52.51,-60.78 51.42,-61.55 50.35,-62.26 49.31,-62.82 48.27,-63.23 47.19,-63.54 46.03,-63.76 44.77,-63.87 43.43,-63.84 42.02,-63.66 40.56,-63.33 39.07,-62.9 37.55,-62.54 36.08,-62.41 34.7,-62.56 33.35,-62.7 31.89,-62.26 30.03,-60.66" fill="none" stroke="rgb(85, 19, 134)" stroke-width="2" stroke-linejoin="round" filter="url(#fuzzy)" /><polyline points="54.29,-59.93 53.96,-60.57 53.15,-61.45 52.16,-62.51 51.24,-63.53 50.44,-64.44 49.72,-65.29 48.98,-66.12 48.19,-66.95 47.35,-67.76 46.46,-68.55 45.56,-69.29 44.65,-70 43.72,-70.71 42.72,-71.46 41.63,-72.27 40.47,-73.12 39.32,-73.97 38.28,-74.73 37.41,-75.36 36.65,-75.79 54.29,-59.93 53.94,-60.57 53.11,-61.45 52.1,-62.49 51.15,-63.46 50.29,-64.3 49.49,-65.07 48.67,-65.81 47.81,-66.56 46.92,-67.3 45.99,-68.03 45.06,-68.73 44.1,-69.41 43.11,-70.09 42.07,-70.81 41,-71.55 39.89,-72.31 38.81,-73.04 37.77,-73.7 36.8,-74.29 35.91,-74.8 35.08,-75.26 34.3,-75.67 33.52,-76.06 32.4,-76.59" fill="none" stroke="rgb(85, 19, 134)" stroke-width="2" stroke-linejoin="round" filter="url(#fuzzy)" /><polyline points="53.91,-60.36 51.88,-62.28 50.63,-63.28 49.83,-63.98 49.03,-64.5 48.05,-64.85 46.87,-65.06 45.6,-65.23 44.34,-65.41 43.17,-65.65 42.09,-65.93 41.02,-66.24 39.86,-66.52 38.55,-66.77 37.11,-66.96 35.66,-67.1 34.33,-67.1 33.13,-66.94" fill="none" stroke="rgb(85, 19, 134)" stroke-width="2" stroke-linejoin="round" filter="url(#fuzzy)" /><polyline points="50.4,-64.12 49.69,-64.26 48.78,-64.32 47.79,-64.69 46.8,-65.3 45.8,-65.94 44.77,-66.52 43.75,-67.03 42.75,-67.55 41.73,-68.11 40.64,-68.65 39.46,-69.1 38.17,-69.36 36.81,-69.41 35.46,-69.27 34.16,-69.02 32.97,-68.72 31.85,-68.43 30.8,-68.15 29.74,-67.89 28.55,-67.63 27.01,-67.4 24.88,-68.23" fill="none" stroke="rgb(85, 19, 134)" stroke-width="2" stroke-linejoin="round" filter="url(#fuzzy)" /><polyline points="46.49,-68.05 45.67,-68.9 45.01,-69.71 44.43,-70.71 43.82,-71.95 43.11,-73.36 42.32,-74.82 41.45,-76.15 40.54,-77.29 39.67,-78.29 38.91,-79.33 38.32,-80.59 37.89,-82.14 37.53,-83.93 37.13,-85.82 36.58,-87.72 35.89,-89.68 35.15,-91.85 34.36,-94.13 33.41,-96 32.92,-96.67 46.49,-68.05 47.64,-66.85 48.3,-65.81 48.75,-64.7 49.1,-63.5 49.5,-62.25 50.03,-61.01 50.68,-59.83 51.4,-58.74 52.14,-57.68 52.9,-56.61 53.64,-55.44 54.3,-54.14 54.81,-52.74 55.11,-51.35 55.27,-50.11 55.37,-49.09 55.5,-48.22 55.64,-47.25 55.75,-45.99 55.88,-44.34 44.53,-69.83 46.44,-71.98 47.03,-70.99 47.7,-69.72 48.66,-68.8 49.79,-68.25 51,-67.9 52.21,-67.58 53.41,-67.17 54.62,-66.64 55.87,-66.04 57.13,-65.4 58.42,-64.71 59.71,-63.95 61.04,-63.11 62.45,-62.27 63.99,-61.56 65.65,-61.12 67.29,-60.98 68.77,-60.95 70.03,-60.82 71.27,-60.49 72.88,-60.08 75.04,-59.54" fill="none" stroke="rgb(85, 19, 134)" stroke-width="2" stroke-linejoin="round" filter="url(#fuzzy)" /><polyline points="44.53,-69.83 43.12,-70.44 41.78,-71.08 40.42,-71.74 39.14,-72.38 38.01,-72.96 37,-73.48 36.08,-73.94 35.19,-74.33 34.28,-74.66 33.34,-74.97 32.34,-75.3 31.3,-75.67 30.22,-76.09 29.12,-76.52 28.02,-76.91 26.96,-77.21 25.92,-77.43 24.89,-77.62 23.87,-77.81 22.89,-78.02 21.95,-78.13 20.68,-77.93" fill="none" stroke="rgb(85, 19, 134)" stroke-width="2" stroke-linejoin="round" filter="url(#fuzzy)" /><polyline points="42.97,-70.76 42.59,-72.51 41.57,-73.92 40.49,-75.05 39.48,-75.95 38.55,-76.64 37.68,-77.22 36.83,-77.73 35.99,-78.22 35.13,-78.74 34.26,-79.41 33.36,-80.29 32.44,-81.36 31.47,-82.49 30.48,-83.56 29.56,-84.56 28.93,-85.48 28.67,-86.34" fill="none" stroke="rgb(85, 19, 134)" stroke-width="2" stroke-linejoin="round" filter="url(#fuzzy)" /><polyline points="28.83,-99.83 28.5,-97.05 29.07,-94.85 29.88,-93.18 30.78,-91.98 31.78,-91.08 32.83,-90.2 33.82,-89.06 34.65,-87.5 35.29,-85.61 35.78,-83.58 36.18,-81.63 36.57,-79.88 36.98,-78.34 37.45,-76.97 38.02,-75.74 38.74,-74.63 39.66,-73.59 40.78,-72.56 42,-71.52 42.97,-70.76 42.2,-71.05 40.53,-72.14 39.13,-72.87 38.05,-73.52 37.15,-74.11 36.32,-74.64 35.49,-75.09 34.63,-75.47 33.73,-75.81 32.76,-76.16 31.71,-76.55 30.6,-76.97 29.46,-77.38 28.34,-77.74 27.26,-78.02 26.26,-78.24 25.26,-78.47 24.07,-78.76 22.65,-79.32 42.2,-71.05 41.13,-73.31 40.51,-75.58 40.01,-77.44 39.26,-78.43 38.3,-78.82 37.34,-79.19 36.55,-79.96 35.9,-81.16 35.27,-82.57 34.51,-83.9 33.6,-85.04 32.6,-86.09 31.63,-87.26 30.78,-88.68 30.04,-90.33 29.32,-92.01 28.54,-93.49 27.64,-94.66 26.65,-95.59 25.54,-96.53 24.11,-97.76 21.77,-99.7 16.97,-82.58 18.44,-82.25 20.04,-81.85 21.39,-81.5 22.52,-81.18 23.55,-80.84 24.53,-80.48 25.51,-80.1 26.5,-79.71 27.51,-79.32 28.56,-78.89 29.64,-78.44 30.75,-77.95 31.84,-77.45 32.88,-76.97 33.84,-76.5 34.73,-76.05 35.56,-75.61 36.38,-75.16 37.2,-74.69 37.99,-74.21 38.68,-73.73" fill="none" stroke="rgb(85, 19, 134)" stroke-width="2" stroke-linejoin="round" filter="url(#fuzzy)" /><polyline points="38.68,-73.73 38.41,-75.06 37.93,-76.21 37.32,-77.16 36.6,-77.88 35.81,-78.53 35.02,-79.35 34.27,-80.5 33.53,-81.93 32.75,-83.42 31.9,-84.76 30.96,-85.82 29.94,-86.57 28.88,-87.12 27.81,-87.62 26.76,-88.18 25.72,-88.85 24.63,-89.6 23.46,-90.43 22.15,-91.33 20.76,-92.29 19.46,-93.23 18.59,-94.11 18.58,-94.75 38.68,-73.73 41.21,-74.16 43.1,-74.08 44.26,-73.31 45.08,-72.34 45.84,-71.41 46.66,-70.54 47.55,-69.73 48.52,-69 49.57,-68.39 50.72,-67.93 51.96,-67.6 53.28,-67.33 54.64,-67 55.98,-66.55 57.26,-65.96 58.5,-65.26 59.77,-64.51 61.17,-63.72 62.75,-62.87 64.5,-62.01 66.32,-61.36 67.92,-61.36 68.28,-62.48 38.08,-74.17 40,-75.41 41.09,-74.17 42.11,-72.81 43.16,-71.85 44.27,-71.29 45.47,-71.02 46.76,-70.89 48.08,-70.74 49.37,-70.47 50.54,-70.04 51.61,-69.53 52.64,-69.03 53.73,-68.57 54.91,-68.03 56.18,-67.28 57.49,-66.43 58.74,-65.91 59.44,-65.62 38.08,-74.17 39.2,-78.83 38.59,-79.86 37.57,-80 36.53,-80.13 35.58,-80.65 34.8,-81.83 34.18,-83.73 33.68,-86.1 33.16,-88.47 32.49,-90.43 31.63,-91.76 30.6,-92.57 29.48,-93.12 28.34,-93.69 27.2,-94.39 26.03,-95.25 24.79,-96.28 23.51,-97.55 22.27,-99.2 21.18,-101.32 20.31,-103.89 19.53,-106.88 18.38,-110.12 16.03,-112.44 20.72,-79.87 21.53,-80.05 22.45,-80.07 23.38,-79.92 24.33,-79.64 25.31,-79.33 26.3,-79.03 27.31,-78.74 28.37,-78.42 29.48,-78.06 30.63,-77.65 31.74,-77.19 32.77,-76.66 33.65,-76.08 34.42,-75.5 35.22,-75.06 36.16,-74.91 37.08,-74.92" fill="none" stroke="rgb(85, 19, 134)" stroke-width="2" stroke-linejoin="round" filter="url(#fuzzy)" /><polyline points="62.31,-79.27 60.31,-77.95 58.51,-77.05 57.06,-77.07 55.67,-77.42 54.17,-77.69 52.62,-77.84 51.1,-77.89 49.58,-77.79 47.94,-77.47 46.11,-76.96 44.09,-76.35 41.98,-75.75 39.95,-75.19 38.25,-74.76 37.08,-74.92" fill="none" stroke="rgb(85, 19, 134)" stroke-width="2" stroke-linejoin="round" filter="url(#fuzzy)" /><polyline points="40.71,-53.14 41.36,-54.41 41.43,-56.05 41.33,-57.71 41.21,-59.42 41.09,-61.13 40.98,-62.78 40.81,-64.36 40.54,-65.88 40.12,-67.4 39.55,-68.94 38.89,-70.56 38.25,-72.2 37.66,-73.67 37.04,-74.67 36.34,-75.13" fill="none" stroke="rgb(85, 19, 134)" stroke-width="2" stroke-linejoin="round" filter="url(#fuzzy)" /><polyline points="34.38,-76.42 34.84,-76.69 35.78,-76.83 36.88,-76.94 38.14,-77.18 39.58,-77.51 41.22,-77.9 43.09,-78.37 45.11,-78.89 47.11,-79.39 48.95,-79.79 50.64,-80.12 52.37,-80.6 54.48,-81.42 57.02,-82.21 59.36,-81.47 32.7,-77.29 30.73,-75.3 29.2,-75.1 28.15,-75.82 27.27,-76.64 26.36,-77.17 25.38,-77.35 24.34,-77.32 23.26,-77.21 22.15,-77.09 21.01,-76.97 19.78,-76.85 18.49,-76.72 17.2,-76.62 16.01,-76.56 14.96,-76.39 13.92,-75.87 12.54,-74.82 10.43,-73.16" fill="none" stroke="rgb(85, 19, 134)" stroke-width="2" stroke-linejoin="round" filter="url(#fuzzy)" /><polyline points="57.43,-86.96 55.78,-86.56 53.79,-85.42 51.78,-84.66 49.87,-84.44 48.01,-84.49 46.18,-84.52 44.42,-84.4 42.83,-84.26 41.53,-84.4 40.52,-84.88 39.54,-85.17 38.09,-84.23 35.93,-81.59 33.62,-78.58 32.42,-77.61" fill="none" stroke="rgb(85, 19, 134)" stroke-width="2" stroke-linejoin="round" filter="url(#fuzzy)" /><polyline points="28.95,-79.41 31.9,-79.56 33.19,-78.64 34.24,-78.17 35.47,-78.42 36.85,-79.07 38.23,-79.63 39.5,-79.78 40.7,-79.52 41.95,-79.06 43.38,-78.7 45.04,-78.63 46.86,-78.84 48.71,-79.18 50.46,-79.43 52.11,-79.53 53.76,-79.55 55.57,-79.7 57.55,-80.07 59.53,-80.5 61.23,-80.67 62.49,-80.33 63.66,-79.58 65.55,-78.71 68.69,-76.9" fill="none" stroke="rgb(85, 19, 134)" stroke-width="2" stroke-linejoin="round" filter="url(#fuzzy)" /><polyline points="6.94,-94.4 9.35,-93.69 10.57,-92.85 11.51,-92.12 12.45,-91.48 13.52,-90.9 14.67,-90.29 15.81,-89.54 16.92,-88.67 18.03,-87.75 19.2,-86.93 20.44,-86.26 21.69,-85.69 22.85,-85.05 23.86,-84.19 24.71,-83.06 25.49,-81.85 26.26,-80.8 27.08,-80.07 28.19,-79.5 30.62,-78.39 48.75,-71.35 47.67,-71.93 46.68,-72.31 45.69,-72.73 44.6,-73.24 43.38,-73.82 42.1,-74.42 40.82,-74.98 39.59,-75.45 38.43,-75.84 37.36,-76.18 36.35,-76.51 35.39,-76.86 34.44,-77.27 33.48,-77.76 32.48,-78.32 31.43,-78.91 30.34,-79.48 29.22,-79.96 28.12,-80.33 27.05,-80.61 26.01,-80.89 24.95,-81.21 23.96,-81.48 23.56,-81.58" fill="none" stroke="rgb(85, 19, 134)" stroke-width="2" stroke-linejoin="round" filter="url(#fuzzy)" /><polyline points="21.31,-82.13 19.02,-82.82 17.6,-83.21 16.54,-83.47 15.51,-83.71 14.41,-83.96 13.27,-84.22 12.17,-84.45 11.14,-84.65 10.15,-84.82 9.14,-84.98 8.09,-85.12 7.01,-85.24 5.91,-85.35 4.8,-85.41 3.64,-85.45 2.48,-85.47 1.52,-85.49 1.65,-85.51 -6.11,-108.17 -5.4,-106.8 -4.12,-105.26 -2.85,-104.15 -1.55,-103.09 -0.19,-101.98 1.19,-100.95 2.57,-100.17 3.94,-99.71 5.3,-99.52 6.62,-99.43 7.88,-99.16 9.06,-98.4 10.1,-96.92 11.02,-94.76 11.87,-92.22 12.74,-89.78 13.72,-87.95 14.86,-87.08 16.11,-87.18 17.38,-87.87 18.55,-87.99 19.61,-85.77 21.31,-82.13" fill="none" stroke="rgb(85, 19, 134)" stroke-width="2" stroke-linejoin="round" filter="url(#fuzzy)" /><polyline points="18.15,-83.13 17.39,-84.16 16.81,-85.55 16.04,-86.63 15.03,-87.62 13.99,-89.14 13.1,-91.43 12.34,-94.16 11.57,-96.77 10.67,-98.94 9.61,-100.77 8.45,-102.63 7.26,-104.78 6.04,-107.07 4.66,-109 2.94,-110.08 0.18,-109.54 34.57,-65.89 33.86,-66.13 33.3,-66.88 32.91,-68.03 32.59,-69.37 32.25,-70.69 31.78,-71.87 31.14,-72.88 30.35,-73.78 29.46,-74.62 28.55,-75.48 27.66,-76.37 26.82,-77.28 26,-78.17 25.19,-79 24.35,-79.77 23.5,-80.49 22.62,-81.17 21.64,-81.78 20.33,-82.37 18.15,-83.13 14.59,-83.93 12.73,-84.9 11.76,-86.2 11.08,-87.93 10.38,-90.42 9.57,-93.45 8.63,-96.4 7.59,-98.79 6.44,-100.46 5.2,-101.54 3.9,-102.24 2.55,-102.71 1.17,-103.06 -0.21,-103.36 -1.57,-103.69 -2.9,-104.15 -4.24,-104.84 -5.71,-105.82 -7.58,-107.26 -10.59,-109.09" fill="none" stroke="rgb(85, 19, 134)" stroke-width="2" stroke-linejoin="round" filter="url(#fuzzy)" /><polyline points="12.04,-84.48 14.06,-84 15.34,-83.67 16.36,-83.38 17.43,-83.06 18.61,-82.65 19.84,-82.14 21.03,-81.6 22.16,-81.05 23.21,-80.53 24.21,-80.05 25.2,-79.6 26.18,-79.16 27.17,-78.7 28.19,-78.21 29.22,-77.67 30.27,-77.07 31.29,-76.43 32.26,-75.77 33.15,-75.13 33.95,-74.52 34.69,-73.93 35.43,-73.33 36.2,-72.76 37.03,-72.14" fill="none" stroke="rgb(85, 19, 134)" stroke-width="2" stroke-linejoin="round" filter="url(#fuzzy)" /><polyline points="10.29,-84.9 12.33,-85.9 14.04,-85.56 15.52,-85.76 16.99,-86.9 18.63,-88.66 20.4,-90.45 22.15,-91.76 23.74,-92.35 25.13,-92.32 26.38,-91.98 27.61,-91.72 28.93,-91.8 30.37,-92.26 31.91,-92.93 33.51,-93.61 35.25,-94.3 37.2,-95.13 39.35,-96.1 41.46,-96.71 43.57,-96.85 10.29,-84.9 12.24,-85.23 14.02,-85.28 15.43,-85.28 16.61,-85.18 17.79,-85.06 19.1,-85.02 20.51,-85.13 21.97,-85.4 23.4,-85.78 24.76,-86.14 26.05,-86.39 27.3,-86.55 28.57,-86.74 29.95,-87.1 31.47,-87.68 33.14,-88.41 34.93,-89.16 36.8,-89.88 38.67,-90.6 40.25,-91.2 40.88,-91.41" fill="none" stroke="rgb(85, 19, 134)" stroke-width="2" stroke-linejoin="round" filter="url(#fuzzy)" /><polyline points="6.27,-85.28 8.65,-86.45 9.85,-86.47 10.83,-86.65 11.87,-87.13 13.09,-87.85 14.45,-88.71 15.9,-89.71 17.39,-90.8 18.92,-91.9 20.52,-92.84 22.17,-93.56 23.86,-94.17 25.53,-94.87 27.18,-95.8 28.83,-96.85 30.54,-97.78 32.27,-98.41 33.3,-97.8" fill="none" stroke="rgb(85, 19, 134)" stroke-width="2" stroke-linejoin="round" filter="url(#fuzzy)" />
    </g>
    
        <g id="lineNose">
        <path d="M -11.87,25.8 Q 9.47, 34.14 -1.1999999999999993, -4.61" fill="none" stroke="black" stroke-width="3" stroke-linejoin="round" filter="url(#fuzzy)"></path>
        </g>
      
    <g id="mouth">
      <polyline points="43.31,74.5 43.57,74.32 43.3,74.91 43.38,74.94 42.58,76.31 42.29,76.27 42.8,76.01 42.19,76.66 40.94,77.65 41.68,76.96 40.07,78.12 40.51,77.98 40.28,78.07 39.32,78.61 38.19,79.2 37.87,79.16 38.35,79.04 38.17,79.14 37.54,79.37 36.35,79.81 35.52,80.08 35.37,80.07 33.89,80.41 32.98,80.55 30.81,80.89 29.72,81.05 31.81,80.84 28.84,81.16 27.48,81.24 29.13,81.16 25.69,81.38 26.87,81.31 25.27,81.39 24.49,81.46 21.65,81.44 22.92,81.45 21.62,81.45 18.07,81.32 20.31,81.45 17.12,81.29 15.47,81.19 15.33,81.17 14.94,81.14 13.7,81.01 14,81.04 12.01,80.84 9.56,80.52 10,80.58 8.29,80.34 7.15,80.16 4.41,79.67 3.51,79.5 2.72,79.34 2.6,79.31 2.57,79.31 -1.51,78.38 -3.09,77.96 -3.26,77.92 -5.56,77.3 -4.63,77.54 -4.29,77.66 -5.72,77.22 -7.25,76.77 -7.6,76.65 -11.21,75.42 -11.97,75.1 -12.84,74.81 -13.45,74.56 -13.52,74.53 -13.78,74.41 -14.66,74.03 -15.06,73.88 -17.92,72.58 -17.77,72.6 -18.97,72.03 -18.53,72.27 -20.73,70.98 -20.39,71.21 -22.45,69.87 -23.04,69.54 -22.29,69.96 -23.57,69.21 -24.12,68.68 -25.43,67.67 -25.55,67.42 -26.35,66.69 -25.88,67.1 -26.36,66.66 -26.29,66.77 -27.41,65.5 -27.44,65.6 -27.6,65.08 -28.52,63.68 -28.11,64.47 -28.59,63.51 -28.63,62.62 -28.79,62.45 -28.79,62.93 -28.92,61.77 -28.6,62.06 -28.58,60.92 -28.67,61.01 -28.4,59.8 -28.09,59.59 -28.17,59.68 -27.72,58.76 -27.6,58.76 -27.18,58.46 -26.33,57.87 -25.99,57.56 -26.47,57.69 -26.49,57.91 -24.85,56.79 -25.42,57.13 -25.28,57.02 -22.96,56.08 -23.3,56.11 -21.79,55.62 -22,55.67 -21.22,55.48 -20.5,55.19 -19.52,55.06 -20.21,55.22 -18.47,54.74 -16.86,54.57 -16.68,54.5 -16.85,54.54 -13.81,54.16 -13.89,54.21 -14.2,54.23 -12.55,54.05 -12.46,54.06 -10.68,53.94 -10.53,53.96 -7.56,53.92 -5.49,53.96 -7.36,53.94 -6.21,53.98 -5.5,53.99 -2.83,54.1 -3.45,54.06 -1.57,54.19 0.13,54.32 1.21,54.42 3.67,54.69 3.2,54.65 7.2,55.21 6,55.02 8.53,55.43 7.62,55.27 11.06,55.89 9.47,55.59 9.89,55.67 14.27,56.58 12.4,56.16 12.95,56.29 15.48,56.86 19.06,57.79 18.67,57.69 20.03,58.05 19.5,57.92 21.75,58.57 21.45,58.48 24.99,59.65 26.39,60.14 26.35,60.14 28.28,60.88 26.15,60.06 29.09,61.18 30.32,61.77 31.22,62.16 30.24,61.7 30.75,61.95 32.99,63 32.66,62.87 35.35,64.33 36.46,64.91 36.72,65.17 36.74,65.19 38.26,66.07 37.27,65.41 38.26,66.2 38.1,66.09 40.41,67.8 39.26,66.95 41.37,68.9 41.68,69.09 40.81,68.27 41.42,68.85 42.67,70.61 42.91,70.92 42.63,70.76 43.14,71.48 42.61,70.79 43.55,72.45 43.43,72.69 43.56,72.49 43.46,73.6 43.5,73.75 43.6,73.29" fill="rgb(102, 204, 161)" stroke="black" stroke-width="3" stroke-linejoin="round" filter="url(#fuzzy)" />
    </g>
  </svg>