<svg xmlns="http://www.w3.org/2000/svg" width="500" height="500" viewBox="-100 -100 200 200"><defs><clipPath id="c"><path d="m30.01-14.14-.36-.29-.38-.29-.4-.29-.42-.28-.44-.28-.46-.27-.49-.27-.49-.25-.52-.25-.53-.23-.55-.23-.57-.21-.58-.2-.59-.19-.6-.18-.68-.31-.69-.29-.71-.26-.73-.24-.74-.21-.76-.18-.77-.16-.79-.13-.8-.11-.81-.08-.83-.06-.84-.03-.84-.01-.86.01-.86.03-.88.06-.88.07-.88.1-.89.1-.9.13-.89.14-.9.15-.9.17-.9.18-.91.18-.9.2-.89.2-.9.21-.89.22-.89.22-.88.22-.87.22-.87.23-.86.23-.85.22-.84.23-.84.22-.82.22-.81.22-.8.21-.79.21-.77.21-.77.2-.74.19-.74.2-.72.18-.71.18-.69.18-.68.17-.66.16-.65.16-.63.16-.63.15-.61.14-.6.14-.59.14-.58.13-.56.13-.55.12-.54.12-.52.11-.51.11-.5.1-.49.11L-19.79.46l.12.56.15.56.17.57.18.57.21.58.22.58.25.58.26.58.28.59.3.59.31.58.34.59.35.58.36.57.39.58.4.58.43.57.44.57.46.57.47.56.49.55.51.54.53.52.54.51.56.49.57.47.58.45.6.43.61.4.62.38.63.34.65.32.66.28.67.25.67.21.69.18.7.14.71.1.72.07.72.02.74-.02.74-.06.75-.1.76-.14.76-.18.78-.23.78-.27.78-.31.8-.35.8-.39.81-.43.81-.47.82-.51.82-.54.83-.57.84-.61.84-.64.84-.67.85-.69.85-.72.85-.74.85-.76.85-.77.85-.79.7-.61.68-.61.68-.62.68-.63.67-.64.65-.63.65-.64.64-.64.62-.64.62-.63.59-.63.58-.62.56-.61.55-.6.52-.59"/></clipPath><clipPath id="b"><path d="m-28.7-19.42.32-.27.35-.27.37-.27.4-.27.42-.25.44-.26.47-.24.49-.24.52-.23.54-.22.56-.21.58-.2.6-.18.63-.18.64-.16.63-.3.67-.27.71-.25.74-.22.77-.2.81-.17.84-.15.87-.12.89-.09.93-.08.95-.04.97-.03h.99l1.01.02 1.03.04 1.05.05 1.05.08 1.07.1 1.08.11 1.08.13 1.09.14 1.09.15 1.09.17 1.09.17 1.09.19 1.08.19 1.08.2 1.06.21 1.06.21 1.04.21 1.03.22 1.02.22 1 .22.99.22.96.22.95.22.93.22.91.22.88.21.87.2.84.21.82.2.8.19.78.19.75.18.74.18.71.18.69.17.67.16.65.16.63.15.61.15.6.15.57.14.56.13.54.14.53.12.51.12.49.12.47.11.46.11.45.11.42.1.42.1L20.39-.79l-.33.75-.34.75-.36.76-.39.77-.4.78-.41.77-.44.79-.45.78-.47.79-.48.78-.5.79-.52.78-.52.78-.54.77-.56.77-.57.78-.58.77-.61.76-.61.76-.63.75-.64.74-.65.72-.66.7-.66.68-.67.65-.68.63-.68.6-.69.57-.69.54-.69.49-.69.46-.69.42-.69.37-.69.33-.69.28-.69.23-.69.19-.68.13-.68.07-.68.03-.67-.03-.68-.09-.67-.14-.66-.2-.67-.26-.66-.31-.66-.37-.65-.42-.66-.48-.66-.53-.65-.58-.66-.63-.65-.69-.66-.73-.66-.77-.66-.82-.66-.86-.67-.89-.66-.93-.67-.96-.68-.99-.68-1.02-.68-1.03-.68-1.05-.54-.81-.54-.81-.54-.83-.53-.83-.53-.84-.52-.84-.52-.85-.5-.84-.5-.83-.49-.84-.48-.82-.47-.81-.46-.8-.44-.78-.43-.76"/></clipPath><filter id="a"><feTurbulence baseFrequency=".05" numOctaves="3" result="noise" type="noise"/><feDisplacementMap in="SourceGraphic" in2="noise" scale="2"/></filter></defs><rect width="100%" height="100%" x="-100" y="-100" fill="#E0B0FF"/><path fill="#CD5C5C" stroke="#000" stroke-linejoin="round" stroke-width="1.667" d="M72.43-.98 72.68.9l-.03.61-.21 2.38.22.84-.6 1.83.2-.69-.14 1.58-.39 3.47-.12.96.11-.21-.17 1.28-.02.7-.26 1.31-.21 1.25-.45 1.76-.11 1.16-.22 1-1.19 2.95.87-2.06-.97 2.87-.44 1.69-.59.97-.73 1.59-.07.47.3-.1-1.06 2.05-.44 1.33-.26.84-.58.97-.34.89-.64.36-1.21 2.48-.22 1.2.67-1.5-1.66 2.69-.92 1.92.18-.21-1.56 1.99-.52.88-.63.41.5-.34-1.11 1.64-1.92 2.44.47-.19-.83.98-.93.57-.91 1.03h.52l-2.53 2.5-.11.06-1.06 1.23-.49.48-.08.04-1.98 1.69.47-.19-1.6 1.06-1.29 1.96-1.35.47-.84.92-.4.33.34-.65L40.75 63l-1.58.54-.53.52-.44.53-1.96 1.26-.34.16-1.3.22-.34.4-.74.74-.61.12-3.02 1.58.01.11-.87.35-.8.28-2.19.99-1.31.66 1.01-.62-2.6 1.01.28.17-3.66.99.88-.05.53-.29-.9.15-4.08 1.3-.41-.12-.47.35-3.62.4 2.18-.22-2.03.24-1.13.23-2.75.47-.35.05-1.74.16 1.19-.15-2.72.09-2.08.14.78.09-2.54.11-.57-.07-1.87.04-.65.01-.73-.15-1.94-.05-1.34-.02-.55-.14-1.66-.38-1.34-.2-1.81-.22.73.11-.81-.24-.8.13-1.01-.45-.59.02-3.36-1.01.18.28-1.71-.45-1.49-.36-2.37-.84.61.18-.42-.14-1.08-.54-.56-.02-1.71-.87-2.07-.78-.67-.47-.73.07-.42-.45-2.89-1.26 1.43.61-1.38-.77-2.68-1.75-1.03-.57.78.7-2.41-1.61.65.46-1.1-.8-.94-.94-.62.06-2.67-2-1-.48-.26-.37-1.33-1.32-.67-.66-1.3-1.2.67.53-.52-.79-.76-.29-3.01-2.59-.29-.66-.13-.31-1.01-1.03-.93-1.22-.45.11-1.18-2.08.16.27-2.32-2.37-.49-.86.63.6-1.04-1.35-.59-1.68-1.99-2.31-.27-.7.48.94-.83-1.16-.66-1.46-.6-.5-.28-.55-.65-1.14-.69-1.45-.8-2.1-1.03-1.83.04.39-.66-1.6.1-.44-.33-1.16-.96-2.43-.6-1.9.02-.37-.17-.1-.01-.31-1.2-3.24.28.29-.78-2.35.63 1.33-1.07-3.92.11 1.18-.38-2.86-.31-2.22.23 1.49-.69-3.64.37 1.13-.16-2.29-.31-1.12-.34-.5-.1-1.67-.07-2.14.05-1.09.05.13.2-1.22-.04-2.1-.26-1.2.01-.37.22-1.09-.05-1.65.31-.6-.23-.16.61-3.6.02-.71-.2.1.83-2.45.03-.57.23-1.58-.27.23.78-2.73.41-2.2.19-.68.31-.63.42-.75-.02-.83.86-3.12-.28 1.58.16-.58.86-2.87.42-.61.21-.69.84-1.65-.25.68.78-1.76 1.26-2.63.44-.96.1-.37.58-1.36.2-1.18 1.09-.67.94-2.42.96-1-.39.49 1.32-1.31.92-1.83-.22.12.17-.41 2.49-3.34-.4.59 1.01-.87.19-.38.49-.64 1.87-1.78.51-1.12.31.07 1.52-1.03.89-1.72.72-.76.36.11-.52.32 2.52-2.42-.17.09 1.28-.97 2.26-1.88-.04.41 1.22-1.21 2.1-1.3.02-.24-.24.37 1.19-.83 1.72-.82.65-.83 1.85-1.12-.12.08-.01-.1 3.28-1.54-.06-.14 2.2-.7 1.67-.87.72-.55-.66.45.42-.38 3.31-1.16 1.18-.05-.93-.16.83-.05 3.34-1.03-.85.28 1.52-.45 1.48-.17 1.62-.49.38-.16 1.14-.16.41-.36 1.11-.13.27.13 1.34-.44 2.95-.33 1.28-.03.69-.22.49.22 1.72-.1 1.71-.33.83.28 1.17-.03.1-.34 1.23.2.49.16 1.57.07 3.01.15-.15-.06h.09l3.42.32.77.2-.98-.05 2.26.37 1.18.11 2.46.42-1.32-.11 3.83.62-.26.19 1.74.54-.28-.11.81.03 3.02 1.26h.15l1.5.52 1.95.65-.59.03 1.1.02 1.14.56.44.67 1.96.7 1.29.33 1.98 1.13-.21.16.06-.12 1.65.86-.3.23 3.81 2.1-1.42-.42.99.44 2.81 1.71.07-.08 1.55.99 1.74 1.51-.03-.14-.13.17 1.46 1.22 1.63 1.42-.54-.41 1.25 1.38 1.13.5.85 1.36.83.76.57.74 1.41.89-.24-.2.22.39 2.24 2.43.49.55 1.18 2.16-.63-1.08 1.44 1.79.89 1.51 1 1.19-.23-.08.61 1.56 1.32 1.11.06.77.37.77.25-.09 1.62 3.4h.19l1.19 2.31-.31-.14.32.86.81 1.3.29.19 1.1 2.96.09.55-.21-.34.64 2.11.7.74.01 1.76.5.35.64 1.49.15 1.1.49 3.04-.29-1.6.91 3.1v.06l-.07.93.68 2.11-.11 1.23.51 2.37-.19-.91-.01.86.41.65.27 2.91.09 1.92-.46-1.18.15 1.75.4 2.11-.34.07.25 1.88" filter="url(#a)"/><path fill="#fff" d="m-28.7-19.42.32-.27.35-.27.37-.27.4-.27.42-.25.44-.26.47-.24.49-.24.52-.23.54-.22.56-.21.58-.2.6-.18.63-.18.64-.16.63-.3.67-.27.71-.25.74-.22.77-.2.81-.17.84-.15.87-.12.89-.09.93-.08.95-.04.97-.03h.99l1.01.02 1.03.04 1.05.05 1.05.08 1.07.1 1.08.11 1.08.13 1.09.14 1.09.15 1.09.17 1.09.17 1.09.19 1.08.19 1.08.2 1.06.21 1.06.21 1.04.21 1.03.22 1.02.22 1 .22.99.22.96.22.95.22.93.22.91.22.88.21.87.2.84.21.82.2.8.19.78.19.75.18.74.18.71.18.69.17.67.16.65.16.63.15.61.15.6.15.57.14.56.13.54.14.53.12.51.12.49.12.47.11.46.11.45.11.42.1.42.1L20.39-.79l-.33.75-.34.75-.36.76-.39.77-.4.78-.41.77-.44.79-.45.78-.47.79-.48.78-.5.79-.52.78-.52.78-.54.77-.56.77-.57.78-.58.77-.61.76-.61.76-.63.75-.64.74-.65.72-.66.7-.66.68-.67.65-.68.63-.68.6-.69.57-.69.54-.69.49-.69.46-.69.42-.69.37-.69.33-.69.28-.69.23-.69.19-.68.13-.68.07-.68.03-.67-.03-.68-.09-.67-.14-.66-.2-.67-.26-.66-.31-.66-.37-.65-.42-.66-.48-.66-.53-.65-.58-.66-.63-.65-.69-.66-.73-.66-.77-.66-.82-.66-.86-.67-.89-.66-.93-.67-.96-.68-.99-.68-1.02-.68-1.03-.68-1.05-.54-.81-.54-.81-.54-.83-.53-.83-.53-.84-.52-.84-.52-.85-.5-.84-.5-.83-.49-.84-.48-.82-.47-.81-.46-.8-.44-.78-.43-.76" filter="url(#a)" transform="translate(33.87 -27.89)"/><path fill="#fff" d="m30.01-14.14-.36-.29-.38-.29-.4-.29-.42-.28-.44-.28-.46-.27-.49-.27-.49-.25-.52-.25-.53-.23-.55-.23-.57-.21-.58-.2-.59-.19-.6-.18-.68-.31-.69-.29-.71-.26-.73-.24-.74-.21-.76-.18-.77-.16-.79-.13-.8-.11-.81-.08-.83-.06-.84-.03-.84-.01-.86.01-.86.03-.88.06-.88.07-.88.1-.89.1-.9.13-.89.14-.9.15-.9.17-.9.18-.91.18-.9.2-.89.2-.9.21-.89.22-.89.22-.88.22-.87.22-.87.23-.86.23-.85.22-.84.23-.84.22-.82.22-.81.22-.8.21-.79.21-.77.21-.77.2-.74.19-.74.2-.72.18-.71.18-.69.18-.68.17-.66.16-.65.16-.63.16-.63.15-.61.14-.6.14-.59.14-.58.13-.56.13-.55.12-.54.12-.52.11-.51.11-.5.1-.49.11L-19.79.46l.12.56.15.56.17.57.18.57.21.58.22.58.25.58.26.58.28.59.3.59.31.58.34.59.35.58.36.57.39.58.4.58.43.57.44.57.46.57.47.56.49.55.51.54.53.52.54.51.56.49.57.47.58.45.6.43.61.4.62.38.63.34.65.32.66.28.67.25.67.21.69.18.7.14.71.1.72.07.72.02.74-.02.74-.06.75-.1.76-.14.76-.18.78-.23.78-.27.78-.31.8-.35.8-.39.81-.43.81-.47.82-.51.82-.54.83-.57.84-.61.84-.64.84-.67.85-.69.85-.72.85-.74.85-.76.85-.77.85-.79.7-.61.68-.61.68-.62.68-.63.67-.64.65-.63.65-.64.64-.64.62-.64.62-.63.59-.63.58-.62.56-.61.55-.6.52-.59" filter="url(#a)" transform="translate(-27.55 -24.29)"/><g fill="none" stroke="#000" transform="translate(33.87 -27.89)"><path stroke-linejoin="round" stroke-width="1.667" d="m-30.67-16.95.1-.2.12-.21.14-.23.16-.24.18-.26.21-.25.23-.27.25-.27.28-.27.3-.27.32-.27.35-.27.37-.27.4-.27.42-.25.44-.26.47-.24.49-.24.52-.23.54-.22.56-.21.58-.2.6-.18.63-.18.64-.16.63-.3.67-.27.71-.25.74-.22.77-.2.81-.17.84-.15.87-.12.89-.09.93-.08.95-.04.97-.03h.99l1.01.02 1.03.04 1.05.05 1.05.08 1.07.1 1.08.11 1.08.13 1.09.14 1.09.15 1.09.17 1.09.17 1.09.19 1.08.19 1.08.2 1.06.21 1.06.21 1.04.21 1.03.22 1.02.22 1 .22.99.22.96.22.95.22.93.22.91.22.88.21.87.2.84.21.82.2.8.19.78.19.75.18.74.18.71.18.69.17.67.16.65.16.63.15.61.15.6.15.57.14.56.13.54.14.53.12.51.12.49.12.47.11.46.11.45.11.42.1.42.1.39.09.39.09.37.09.35.08.34.08.33.08.32.08.3.07.29.07.28.07" filter="url(#a)"/><path stroke-linejoin="round" stroke-width="2.222" d="m-29.44-9.43.19.38.21.44.25.49.28.54.3.58.33.61.36.66.37.68.39.71.41.74.43.76.44.78.46.8.47.81.48.82.49.84.5.83.5.84.52.85.52.84.53.84.53.83.54.83.54.81.54.81.68 1.05.68 1.03.68 1.02.68.99.67.96.66.93.67.89.66.86.66.82.66.77.66.73.65.69.66.63.65.58.66.53.66.48.65.42.66.37.66.31.67.26.66.2.67.14.68.09.67.03.68-.03.68-.07.68-.13.69-.19.69-.23.69-.28.69-.33.69-.37.69-.42.69-.46.69-.49.69-.54.69-.57.68-.6.68-.63.67-.65.66-.68.66-.7.65-.72.64-.74.63-.75.61-.76.61-.76.58-.77.57-.78.56-.77.54-.77.52-.78.52-.78.5-.79.48-.78.47-.79.45-.78.44-.79.41-.77.4-.78.39-.77.36-.76.34-.75.33-.75.3-.73.28-.73.27-.71.24-.71.22-.69.21-.69.18-.67.16-.66.15-.65.12-.63" filter="url(#a)"/><circle cx="-13.609" cy="-12.707" r="3.038" clip-path="url(#b)" filter="url(#a)"/><circle cx="-13.174" cy="-11.312" r="4.836" clip-path="url(#b)" filter="url(#a)"/><circle cx="-12.464" cy="-14.132" r="3.584" clip-path="url(#b)" filter="url(#a)"/><circle cx="-12.609" cy="-12.617" r="4.328" clip-path="url(#b)" filter="url(#a)"/><circle cx="-15.774" cy="-12.022" r="4.568" clip-path="url(#b)" filter="url(#a)"/><circle cx="-15.134" cy="-13.717" r="4.174" clip-path="url(#b)" filter="url(#a)"/><circle cx="-14.379" cy="-9.907" r="4.142" clip-path="url(#b)" filter="url(#a)"/><circle cx="-16.014" cy="-13.762" r="4.902" clip-path="url(#b)" filter="url(#a)"/><circle cx="-12.779" cy="-14.622" r="4.23" clip-path="url(#b)" filter="url(#a)"/><circle cx="-13.224" cy="-10.077" r="3.06" clip-path="url(#b)" filter="url(#a)"/></g><g fill="none" stroke="#000" transform="translate(-27.55 -24.29)"><path stroke-linejoin="round" stroke-width="2.222" d="m32.14-11.42-.08-.23-.11-.24-.15-.25-.17-.27-.21-.28-.23-.28-.25-.29-.29-.29-.31-.29-.33-.3-.36-.29-.38-.29-.4-.29-.42-.28-.44-.28-.46-.27-.49-.27-.49-.25-.52-.25-.53-.23-.55-.23-.57-.21-.58-.2-.59-.19-.6-.18-.68-.31-.69-.29-.71-.26-.73-.24-.74-.21-.76-.18-.77-.16-.79-.13-.8-.11-.81-.08-.83-.06-.84-.03-.84-.01-.86.01-.86.03-.88.06-.88.07-.88.1-.89.1-.9.13-.89.14-.9.15-.9.17-.9.18-.91.18-.9.2-.89.2-.9.21-.89.22-.89.22-.88.22-.87.22-.87.23-.86.23-.85.22-.84.23-.84.22-.82.22-.81.22-.8.21-.79.21-.77.21-.77.2-.74.19-.74.2-.72.18-.71.18-.69.18-.68.17-.66.16-.65.16-.63.16-.63.15-.61.14-.6.14-.59.14-.58.13-.56.13-.55.12-.54.12-.52.11-.51.11-.5.1-.49.11-.47.09-.47.1-.44.09-.44.08-.42.08-.42.08-.4.08-.38.08-.38.07-.36.06m61.44 4.51-.19.33-.24.36-.28.39-.31.43-.36.46-.38.49-.42.51-.44.54-.48.55-.49.57-.52.59-.55.6-.56.61-.58.62-.59.63-.62.63-.62.64-.64.64-.65.64-.65.63-.67.64-.68.63-.68.62-.68.61-.7.61-.85.79-.85.77-.85.76-.85.74-.85.72-.85.69-.84.67-.84.64-.84.61-.83.57-.82.54-.82.51-.81.47-.81.43-.8.39-.8.35-.78.31-.78.27-.78.23-.76.18-.76.14-.75.1-.74.06-.74.02-.72-.02-.72-.07-.71-.1-.7-.14-.69-.18-.67-.21-.67-.25-.66-.28-.65-.32-.63-.34-.62-.38-.61-.4-.6-.43-.58-.45-.57-.47-.56-.49-.54-.51-.53-.52-.51-.54-.49-.55-.47-.56-.46-.57-.44-.57-.43-.57-.4-.58-.39-.58-.36-.57-.35-.58-.34-.59-.31-.58-.3-.59-.28-.59-.26-.58-.25-.58-.22-.58-.21-.58-.18-.57-.17-.57-.15-.56-.12-.56-.11-.55-.09-.54-.07-.54-.05-.52-.03-.52-.01-.51.01-.5.03-.5.04-.48.07-.48" filter="url(#a)"/><circle cx="-14.804" cy="-.21" r="3.426" clip-path="url(#c)" filter="url(#a)"/><circle cx="-14.174" cy="-.77" r="3.632" clip-path="url(#c)" filter="url(#a)"/><circle cx="-15.259" cy="-.135" r="3.04" clip-path="url(#c)" filter="url(#a)"/><circle cx="-15.199" cy="-1" r="3.358" clip-path="url(#c)" filter="url(#a)"/><circle cx="-13.199" cy="-2.85" r="4.698" clip-path="url(#c)" filter="url(#a)"/><circle cx="-13.889" cy="-2.96" r="3.838" clip-path="url(#c)" filter="url(#a)"/><circle cx="-12.929" cy="-2.32" r="3.788" clip-path="url(#c)" filter="url(#a)"/><circle cx="-12.144" cy=".025" r="4.746" clip-path="url(#c)" filter="url(#a)"/><circle cx="-11.804" cy="-.025" r="3.522" clip-path="url(#c)" filter="url(#a)"/><circle cx="-16.759" cy=".7" r="4.298" clip-path="url(#c)" filter="url(#a)"/></g><g fill="none" stroke="#F0F" stroke-linejoin="round" stroke-width="2"><path d="m-23.11-74.57-.12-.01.82-.23 1.13-.19 1.16-.15 1.14-.17 1.12-.16 1.09-.11 1.04-.02.97.06.92.09.92.06.98-.02 1.11-.12 1.28-.21 1.38-.24 1.31-.2.99-.01.64.71" filter="url(#a)"/><path d="m-5.23-75.49-.81-3.04-.96.36-1.27.73-1.42.37-1.37-.13-1.27-.58-1.16-.91-1.13-1.12-1.17-1.22-1.27-1.24-1.38-1.19-1.46-.96-1.4-.55-1.26-.15-1.37-.09-2.54-.04m15.83 10.12-.93.5-.62.81-.59.79-.66.59-.74.47-.83.44-.9.45-.96.45-.98.41-.99.37-.94.38-.86.47-.71.56-.68.56-1.05.53-2.14.76 31.48-5.66-.21-.14-.78-.14-1.14-.24-1.17-.3-1.05-.31-.91-.31-.85-.29-.87-.24-.94-.17-1.03-.14-1.09-.16-1.09-.22-1.05-.24-1.1-.16h-1.43l-2.19.18-1.34.44 1.65-.15 1.73.11 1.44.4 1.2.63 1.11.72 1.09.66 1.08.47 1.01.25.92.07.84-.03.81-.05.87.06 1.01.3 1.22.61 1.26.88.61 1.06" filter="url(#a)"/><path d="m-13.36-74.69.91.05 1.03-.07 1.31-.04 1.41.13 1.36.4 1.27.65 1.18.73 1.13.6 1.08.33 1.01.05.94-.07.9-.01.88.2.93.47.98.72L4-69.7l1.05.86 1.03.76 1.03.64.98.55.68.62-.21.38-25.47-7.63-1.37-.1-1.12-.03-1.08.03-1.16-.19-1.21-.44-1.26-.55-1.28-.53-1.29-.48-1.26-.4-1.22-.26-1.2-.06-1.22.18-1.27.37-1.35.42-1.39.38-1.36.3-1.27.28-1.23.27-1.35.23-1.63.08-2.02-.2-2.32-.56 26.86 1.88 1.25-1.08.98-1.89.86-1.65.85-.9.85-.41.83-.37.84-.67.91-1.02 1.07-1.22 1.23-1.23 1.34-1.19 1.29-1.26 1.17-1.5 1.13-1.76 1.36-1.77 1.76-1.53m-28.95 23.67-.82.39-1.23.46-1.08.33-1 .32-1 .41-1 .51-.95.56-.89.56-.84.56-.85.57-.91.59-.99.61-1.09.63-1.16.61-1.18.6-1.15.59-1.05.59-.89.59-.74.61-.68.65-.75.7-.96.73-1.13.6-.91.1M71.1-15.86l.09.42.2 1.01.36 1.23.61 1.18.84 1.02.97.91.97.91.86.99.74 1.08.62 1.14.51 1.15.4 1.17.31 1.18.24 1.22.24 1.27.27 1.32.31 1.35.33 1.36.28 1.29.22 1.21.24 1.23.43 1.69.56 2.97" filter="url(#a)"/><path d="m-29.18-77.05.14 1.06-.13.66-.63.66-.97.79-1.13.9-1.13.96-1.03.97-.9.99-.79 1.01-.73 1.03-.74 1.03-.76.94-.77.81-.76.62-.78.45-.9.36-1.1.35-.98.51.57 1.54-12.8 23.3.54-.57.03-.84-.14-1.19-.08-1.24.15-1.15.37-1.02.49-.96.47-.96.4-.98.36-1 .43-.98.56-.93.71-.88.78-.85.75-.9.63-1.03.44-1.13.22-1.03.03-.56-.23.08m-24.47 11.28 1.74-.83 1.35-1.1 1.26-.77 1.34-.46 1.45-.3 1.46-.31 1.26-.49.93-.81.58-1.09.42-1.18.57-.93 1.05-.42 1.71.16 2.2.46 2.15.28 1.46-.18.57-.23" filter="url(#a)"/><path d="m-54.74-49.68-.6.25-1.39-.12-2.04-.29-2.42-.4-2.52-.43-2.36-.33-2.01-.06-1.58.28-1.28.57-1.29.71-1.59.67-1.93.58-2.1.53-2.24.39-2.67-.06-2.05-.2" filter="url(#a)"/><path d="m-57.98-45.39 1.01.5.98-.49.78-.9.69-.83.81-.57 1.02-.36 1.19-.25 1.23-.31 1.16-.42 1.01-.55.91-.63.85-.58.88-.44.93-.26.97-.15.98-.18 1-.28 1.12-.32 1.4-.15 1.64.19 1.24.74-22.72 8.07-.28-1.82.21-.99.65-.84.8-.85.74-.82.63-.81.53-.86.47-.98.47-1.11.52-1.16.61-1.09.75-.98.85-.93.81-.95.54-.96.15-.63" filter="url(#a)"/><path d="m-59.83-42.74-.01-.23.55-.77.57-.91.55-.93.59-.94.64-.92.64-.87.61-.83.6-.82.62-.86.66-.9.71-.93.74-.95.75-.97.77-.99.76-.97.68-.76.46-.28m-11.85 15.83.29-.83-.07-.99-.56-1.61-.62-1.79-.17-1.49.49-1.04.97-.71 1.06-.6.85-.72.49-1.02.15-1.38-.07-1.71-.18-1.94-.17-1.98.01-1.84.5-1.59 1.19-1.42m-6.39 26.93.7-.92 1.4-.71 1.47-.6 1.25-.56.94-.63.67-.76.53-.84.57-.83.74-.71.96-.53 1.11-.38 1.15-.3 1.1-.31 1.07-.33 1.11-.32 1.22-.26 1.3-.18 1.31-.19 1.19-.31 1.04-.42.85-.36.44-.19-27.24 21.86-4.09 1.03-.03 1.43-.26 1.08-1.11.83-1.46.88-1.28 1.07-.97 1.22-.84 1.25-.98 1.19-1.32 1.09-1.66 1.03-1.78 1.04-1.58 1.14-1.17 1.28-.85 1.37-.99 1.35-1.65 1.22-2.07 1.23-1.11 1.37M73.02-45.79l-.08 3.42-.34 2.22-.45 1.74-.53 1.51-.42 1.39-.22 1.33-.04 1.3.01 1.29-.04 1.27-.09 1.23-.16 1.22-.21 1.25-.28 1.31-.28 1.31-.16 1.22.11 1.28m-5.96-14.14-1.01-2.21-.47-1.19-.34-.92-.35-.93-.32-1.02-.25-1.12-.16-1.26-.06-1.4.03-1.51.01-1.53-.12-1.44-.35-1.32-.55-1.27-.56-1.39-.35-1.53-.08-1.47-.02-1.13-.18-1.41" filter="url(#a)"/><path d="m60.05-13.34-.06-.68.82-1.15.42-1.09-.07-1.03-.26-1.06-.1-1.12.26-1.23.61-1.34.85-1.41.92-1.42.82-1.39.61-1.34.33-1.28.08-1.21-.13-1.12-.24-1-.24-.92-.24-.91-.3-.95-.25-.65-2.24-4.08.34.72.48 1.07.39 1.36.05 1.48-.27 1.48-.37 1.38-.2 1.22.1 1.06.35.97.43.94.34.96.17 1v1.06l-.15 1.12-.26 1.18-.36 1.22-.48 1.23-.42 1.21.36.95-2.49-25.05.09-.56-.37-1.07-.57-1.15-.35-1.3.09-1.65.41-2 .39-2.06.06-1.77-.38-1.29-.69-.89-.76-.75-.65-.88-.56-1.07-.55-1.23-.53-1.37-.29-1.64.36-2.01 1.61-2.13 28.02 39.74-1.04-.68-.8-1.14-1.31-.94-1.6-.73-1.55-.7-1.36-.77-1.18-.86-1.07-.9-1.03-.86-1.02-.83-1.05-.79-1.16-.77-1.37-.71-1.62-.59-1.79-.45-1.75-.37-1.51-.39-1.13-.56-.78-.8-.52-.84-.46-.16-3.33-4.49L58-46.19l1.17 1.06.93.86.75.81.64.85.65.86.76.81.94.77 1.18.71 1.45.63 1.71.53 1.88.44 1.91.39 1.86.41 1.77.48 1.77.56 1.9.57 2.1.53 2.3.45 2.41.43 2.39.54 2.24.73 1.92.86.61.93-41.36-21.73-.78-.59-.97-.6-1.01-.65-.99-.58-1.01-.47-1.06-.32-1.13-.16-1.19-.02-1.23.07-1.25.09-1.27.07-1.33.05-1.39.05-1.4.04-1.31-.05-1.11-.27-.92-.55-.88-.69-1.06-.42-1.37.02" filter="url(#a)"/><path d="m38.69-63.84 2.92-.41 2.18-.61 1.28.43.78.92.72.82 1.03.36 1.47-.18 1.84-.56 1.92-.58 1.7-.24 1.32.31 1.04.75 1.06.79 1.38.41 1.81-.2 2-.7 1.74-.87 1.05-.49" filter="url(#a)"/><path d="m33.96-67.05 1.25.62 1.11.72 1.07.69 1.05.61 1.08.59 1.13.59 1.14.6 1.11.6 1.05.55.96.53.9.53.86.54.85.57.87.59.88.64.9.69.89.76.9.81.93.78 1.02.69 1.31.65m2.43-23.26-1.69.92-1.76-.3-1.89-.29-1.96-.08-1.98.18-1.99.41-1.93.49-1.76.37-1.5.08-1.26-.18-1.15-.2-1.24.03-1.47.4-1.67.68-1.74.71-1.64.57-1.46.41-1.27.36-1.16.37-1.1.27-1.06-.04-1.02-.24-.76.34m-5.03-1.91-2.11-1.03-.9-2.06-.87-1.88-1.06-.9-1.13-.14-1.1.01-1.06-.29-1.06-.69-1.08-.96-1.14-1.1-1.22-1.23-1.34-1.54-1.36-2.11-1.2-2.84-1.16-3-9.61 28.14 1.86-1.03 1.17-1.01.95-.81.93-.63.97-.5.98-.44.95-.38.9-.3.88-.15.91-.03.95.05 1.03.02 1.1-.11 1.12-.25 1.13-.37 1.12-.38 1.08-.33 1.06-.27 1.08-.29 1.16-.41 1.24-.5 1.26-.42 1.3-.14 2.27.3-42.41-23.1 2.28 1.8 1.57.15 1.26.04 1.18.4 1.2.74 1.3.88 1.42.83 1.54.71 1.59.68 1.6.87 1.56 1.25 1.49 1.7 1.43 1.99 1.36 1.96 1.26 1.59 1.13 1 1.01.32.93-.19.94-.26 1.1.37 1.49 1.58 2.21 2.87m65 63.9.53 1.66 1.79 2.16 3.49 2.3 3.9 2.27 2.72 2.27 1.05 2.32-.06 2.37-.24 2.4.2 2.41.75 2.39 1.05 2.39.95 2.39.58 2.38.1 2.34-.34 2.3-.65 2.23-.79 2.17-.74 2.09-.46 2.05.03 2.02.66 1.99 1.32 1.99 1.88 1.96 2.22 1.94 2.19 1.88 1.76 1.8.9 1.71-.21 1.66-1.22 1.63-1.7 1.67-1.47 1.78-.25 1.82" filter="url(#a)"/><path d="m-.97-75.64-2.6.03-2.89.12-2.86.25-2.65.33-2.53.4-2.58.45-2.81.51-3.16.54-3.49.59-3.7.63-3.71.69-3.6.77-3.4.85-3.28.94-3.34 1.03-3.66 1.09-4.22 1.15-4.89 1.21-5.46 1.27-5.76 1.34-5.82 1.42-5.9 1.47-6.38 1.48-7.29 1.48-8.12 1.51-7.79 1.6-5.68 1.72-2.31 1.47" filter="url(#a)"/><path d="m-5.23-75.49-3.15.12-2.7.27-2.07.34-2.04.4-2.38.44-2.76.5-2.96.57-2.94.64-2.83.72-2.72.81-2.67.89-2.69.97-2.72 1.03-2.71 1.1-2.66 1.15-2.61 1.19-2.57 1.25-2.58 1.3-2.65 1.34-2.72 1.4-2.75 1.45-2.74 1.51-2.7 1.56-2.71 1.62-2.86 1.67-3.15 1.7-3.53 1.72-3.78 1.72-3.82 1.73-3.65 1.77-3.41 1.89-3.33 2.15-3.78 2.46" filter="url(#a)"/><path d="m-5.23-75.49-2.04.12-2.39.27-2.14.34-2.01.4-2.03.44-2.14.5-2.27.57-2.38.64-2.45.73-2.46.81-2.44.89-2.38.97-2.32 1.04-2.26 1.1-2.21 1.15-2.19 1.2-2.19 1.25-2.19 1.3-2.19 1.34-2.18 1.41-2.17 1.45-2.17 1.51-2.19 1.57-2.18 1.62-2.17 1.67-2.09 1.7-1.99 1.72-1.88 1.73-1.86 1.75-1.95 1.8-2.16 1.9-2.36 2.03-2.35 2.08-1.59 1.71" filter="url(#a)"/><path d="m-10.64-75.13-1.57.35-1.66.4-1.83.44-1.96.49-2.03.55-2.05.63-2.07.72-2.08.8-2.09.89-2.09.96-2.06 1.03-2.02 1.09-1.95 1.14-1.91 1.18-1.86 1.23-1.85 1.28-1.82 1.32-1.79 1.37-1.75 1.42-1.71 1.48-1.67 1.54-1.67 1.61-1.67 1.69-1.69 1.76-1.73 1.86-1.95 2.22" filter="url(#a)"/><path d="m-10.64-75.13-1.5.35-1.6.4-1.77.44-1.91.49-1.99.56-2.02.64-2.04.72-2.04.81-2.04.89-2.03.97-2.01 1.04-1.96 1.09-1.9 1.14-1.86 1.19-1.81 1.24-1.77 1.28-1.72 1.34-1.66 1.38-1.59 1.44-1.54 1.49-1.49 1.55-1.49 1.62-1.47 1.67-1.44 1.72-1.37 1.73-1.24 1.7-1.17 1.74-1.48 2.25M71.71-12.76l2.64 2.5 1.92 1.91 1.83 1.99 1.4 2.17.78 2.3.29 2.36.23 2.37.68 2.35 1.57 2.31 2.56 2.27 3.23 2.24 3.32 2.21 2.82 2.21 2 2.23 1.19 2.24.63 2.26.46 2.25.7 2.2 1.27 2.13 2.01 2.07 2.61 2.03 2.82 2.08 2.7 2.12 2.28 1.78" filter="url(#a)"/><path d="m-13.77-74.33-1.85.39-2.13.48-2.28.55-2.38.63-2.42.73-2.4.81-2.32.9-2.23.98-2.12 1.04-2.05 1.1-2.03 1.14-2.09 1.19-2.15 1.23-2.22 1.28-2.23 1.33-2.17 1.38-2.1 1.42-2.01 1.48-1.96 1.55-1.97 1.61-2.05 1.68-2.12 1.72-2.09 1.73-1.81 1.6-.87.99" filter="url(#a)"/><path d="m-14.91-74.17-2.22.62-2.45.6-2.37.6-2.19.61-2.04.67-2.02.76-2.08.86-2.15.98-2.2 1.05-2.22 1.12-2.28 1.17-2.39 1.2-2.53 1.27-2.63 1.35-2.59 1.42-2.42 1.46-2.13 1.48-1.9 1.48-1.82 1.49-1.86 1.53-1.81 1.52-1.47 1.27-1.16.64" filter="url(#a)"/><path d="m-14.91-74.17-4.47.62-2.97.61-1.52.61-1.35.62-1.96.69-2.84.78-3.54.89-3.85.99-3.84 1.08-3.72 1.13-3.76 1.19-3.97 1.25-4.25 1.3-4.45 1.37-4.47 1.42-4.34 1.46-4.2 1.5-4.11 1.51-4.05 1.53-3.98 1.55-3.88 1.6-3.8 1.64-3.91 1.71-4.25 1.79-4.79 1.88-5.35 1.96-5.71 2.04-5.52 2.13-4.45 2.3-2.96 2.87" filter="url(#a)"/><path d="m-14.91-74.17-2.23.63-2.31.61-2.19.61-2.2.63-2.36.7-2.63.8-2.96.9-3.24 1-3.41 1.09-3.37 1.15-3.13 1.2-2.73 1.27-2.3 1.32-1.93 1.38-1.72 1.43-1.67 1.47-1.79 1.51-2 1.53-2.32 1.55-2.65 1.59-2.99 1.64-3.26 1.69-3.35 1.76-3.24 1.83-2.96 1.91-2.6 1.98-2.36 2.05-2.39 2.09-2.68 2.13-3.08 2.13-3.33 2.1-3.23 2.03-2.79 1.97-2.23 1.91-1.87 1.97-1.69 2.13-.5 2.44" filter="url(#a)"/><path d="m-14.91-74.17-2.63.62-3.48.61-3.43.61-2.78.63-2.22.69-2.13.78-2.44.89-2.87.99-3.2 1.08-3.36 1.14-3.4 1.19-3.4 1.25-3.47 1.31-3.55 1.36-3.63 1.43-3.65 1.46-3.67 1.5-3.74 1.51-3.96 1.54-4.39 1.56-5 1.6-5.67 1.65-6.19 1.72-6.37 1.8-6.07 1.88-5.38 1.97-4.55 2.05-3.85 2.13-3.33 2.2-3.14 2.21-4.7 1.74" filter="url(#a)"/><path d="m-16.91-73.52-3.07.61-2.43.6-2.04.62-2.07.69-2.31.78-2.71.91-3.13 1.01-3.49 1.09-3.73 1.15-3.82 1.21-3.78 1.26-3.6 1.32-3.38 1.38-3.17 1.44-3.05 1.47-3.06 1.5-3.2 1.53-3.42 1.55-3.66 1.59-3.86 1.63-3.99 1.68-4.03 1.76-3.98 1.82-3.8 1.91-3.51 1.98-3.14 2.04-2.91 2.11-3.01 2.13-3.64 2.14-4.67 2.11-5.64 2.03-5.85 1.93-4.83 1.86-3 1.91-1.28 1.85" filter="url(#a)"/><path d="m-18.39-73.35-1.76.42-2.58.64-2.59.75-2.52.85-2.59.93-2.67 1.01-2.69 1.07-2.63 1.12-2.55 1.17-2.51 1.21-2.51 1.26-2.53 1.31-2.55 1.36-2.52 1.41-2.46 1.47-2.41 1.52-2.41 1.57-2.51 1.63-2.72 1.67-2.91 1.7-3.01 1.73-2.9 1.74-2.57 1.79-2.17 1.85-1.93 1.95-2.13 2.07-2.82 2.19-3.77 2.27-4.36 2.23-3.94 1.94-2.69 1.4" filter="url(#a)"/><path d="m-19.91-72.9.62.62-.36.59-2.34.67-2.88.79-2.67.91-2.22 1.03-1.68 1.11-1.08 1.16-.45 1.21.05 1.27.33 1.33.3 1.39-.03 1.44-.5 1.48-.97 1.51-1.26 1.53-1.29 1.56-1.07 1.6-.61 1.64-.04 1.7.6 1.77 1.23 1.84 1.77 1.91 2.14 1.98 2.27 2.05 2.15 2.09 1.84 2.11 1.44 2.11 1.11 2.09 1.02 2.04 1.24 2 1.74 1.98 2.32 2.04 2.75 2.14 2.79 2.26 2.1 2.34.68 2.22" filter="url(#a)"/><path d="m-19.06-73.18-6.29.84-5.82.77-2.92.84-1.23.93-1.05 1.01-1.72 1.07-2.73 1.11-3.79 1.16-4.67 1.2-5.09 1.24-4.85 1.29-3.99 1.35-2.84 1.39-1.89 1.44-1.58 1.5-2.09 1.56-3.24 1.61-4.66 1.67-5.9 1.7-6.63 1.71-6.73 1.69-6.4 1.68-6.18 1.7-6.53 1.78-5.99 2.29" filter="url(#a)"/><path d="m-23.23-72.1-4.59.55-2.73.82-3.08.94-3.08 1.02-2.93 1.09-2.99 1.12-3.19 1.16-3.24 1.21-3.03 1.25-2.75 1.3-2.7 1.35-3.01 1.4-3.64 1.45-4.32 1.51-4.81 1.57-4.97 1.62-4.85 1.67-4.53 1.69-4.08 1.71-3.56 1.72-3.19 1.73-3.22 1.78-3.82 1.88-4.64 2.02-5.41 2.07-7.22 1.69" filter="url(#a)"/><path d="m-22.3-71.94-3.81.86-2.69.76-2.75.91-2.95 1.05-3.03 1.13-2.93 1.17-2.78 1.21-2.83 1.24-3.18 1.31-3.81 1.38-4.55 1.44-5.15 1.47-5.47 1.5-5.56 1.51-5.51 1.54-5.49 1.56-5.48 1.6-5.46 1.65-5.32 1.73-5.02 1.8-4.6 1.88-4.13 1.97-3.78 2.04-3.81 2.12-4.49 2.16-5.61 2.15-6.67 2.05-7.88 2.02" filter="url(#a)"/><path d="m-22.3-71.94-3.39.85-2.68.75-2.62.9-2.85 1.03-3.31 1.12-4.02 1.16-4.96 1.18-6.02 1.21-6.83 1.28-6.97 1.36-6.23 1.43-4.79 1.47-3.26 1.48-2.34 1.49-2.44 1.5-3.49 1.51-4.97 1.55-6.22 1.58-6.84 1.66-6.9 1.77-6.49 1.73-5.75 1.19" filter="url(#a)"/><path d="m-23.48-71.89-2.47 1.13-2.03.97-2.03 1.05-1.85 1.11-1.66 1.14-1.56 1.17-1.49 1.22-1.36 1.27-1.17 1.31-.94 1.37-.74 1.42-.59 1.47-.48 1.53-.37 1.58-.21 1.63-.01 1.68.2 1.7.34 1.73.39 1.76.32 1.81.18 1.87.03 1.96.04 2.07.3 2.15.84 2.21 1.46 2.19 1.77 2.12 1.36 2.08.29 2.11.75 1.95" filter="url(#a)"/><path d="m-27.21-70.35-1.33.57-2.64 1.02-2.91 1.11-2.83 1.13-2.75 1.16-2.66 1.2-2.5 1.25-2.26 1.29-2.02 1.35-1.98 1.4-2.17 1.44-2.52 1.5-2.82 1.57-2.93 1.61-2.82 1.67-2.61 1.69-2.49 1.7-2.53 1.7-2.63 1.7-2.67 1.75-2.67 1.87-2.89 2.13-2.62 2.43" filter="url(#a)"/><path d="m-27.21-70.35-1.99.57-3.65 1.03-3.09 1.12-2.3 1.13-2.15 1.17-2.52 1.2-3.02 1.25-3.39 1.31-3.49 1.35-3.39 1.41-3.2 1.46-2.98 1.51-2.79 1.57-2.64 1.62-2.67 1.67-2.93 1.7-3.47 1.7-4.17 1.72-4.86 1.75-5.28 1.8-5.23 1.91-4.62 2.04-3.69 2.21-3.21 2.47-4.33 3.29" filter="url(#a)"/><path d="m-26.55-70.8-3.41 1.24-3.81 1.2-3.04 1.21-2.23 1.21-1.8 1.22-1.68 1.26-1.76 1.33-1.92 1.4-2.13 1.47-2.37 1.5-2.61 1.52-2.82 1.54-2.96 1.57-3.02 1.6-3.04 1.65-3.01 1.71-2.96 1.78-2.84 1.86-2.69 1.92-2.51 1.99-2.31 2.05-2.17 2.08-2.04 2.1-1.95 2.1-1.86 2.08-1.78 2.05-1.79 2.04-1.93 2.05-2.18 2.09-2.38 2.16-2.33 2.26-1.97 2.35-1.47 2.43-1.19 2.5-1.43 2.47-1.97 2.31-1.36 2.27" filter="url(#a)"/><path d="m-31.14-68.68-2.82 1.23-2.5 1.08-2.63 1.16-2.76 1.22-2.57 1.28-2.26 1.34-2.08 1.39-2.13 1.44-2.38 1.5-2.7 1.55-2.96 1.61-3.09 1.66-3.06 1.69-2.89 1.73-2.59 1.76-2.26 1.81-1.95 1.86-1.7 1.92-1.59 2-1.66 2.06-1.91 2.11-2.35 2.13-2.86 2.14-3.32 2.12-3.55 2.09-3.44 2.09-2.99 2.11-2.33 2.15-1.72 2.22-1.33 2.28-1.24 2.3-1.25 2.29-1.11 2.26-.77 2.26-1.05 2.2-2.67 1.78" filter="url(#a)"/><path d="m-31.08-68.54-2.96 1.41-2.88 1.25-2.62 1.18-2.75 1.21-3.63 1.3-4.77 1.41-5.4 1.47-5.08 1.51-4.03 1.51-2.83 1.52-2.05 1.54-1.9 1.57-2.21 1.61-2.62 1.68-2.86 1.75-2.88 1.82-2.78 1.91-2.75 1.98-2.81 2.04-2.92 2.1-2.98 2.13-2.97 2.13-3.07 2.09-3.39 2.01-3.82 1.92-4.14 1.83-4.66 1.9-5.94 1.84" filter="url(#a)"/><path d="m-31.08-68.54-3.76 1.41-2.13 1.25-1.91 1.19-2.02 1.21-2.07 1.3-2.05 1.41-1.98 1.48-1.91 1.5-1.84 1.52-1.8 1.52-1.81 1.54-1.83 1.58-1.82 1.62-1.81 1.68-1.79 1.75-1.79 1.84-1.79 1.9-1.78 1.99-1.74 2.04-1.64 2.1-1.52 2.12-1.43 2.12-1.39 2.08-1.39 2.02-1.44 1.94-1.43 1.9-1.33 1.95-1.15 2.12-1.24 2.42M71.1-15.8l3.81 2.85 7.3 2.38 4.23 2.1-.11 2.09-2.22 2.19-1.92 2.3-.31 2.35 1.5 2.37 2.91 2.35 3.67 2.32 3.8 2.28 3.36 2.25 2.52 2.24 1.54 2.22.64 2.24.07 2.25-.12 2.25.05 2.25.48 2.2.96 2.14 1.3 2.09 1.41 2.06 1.4 2.04 1.57 2.03 1.73 1.99.69 2-2.45 2.37" filter="url(#a)"/><path d="m-34.35-66.9-1.84 1.12-2 1.13-2.19 1.16-2.56 1.28-3.05 1.41-3.38 1.49-3.51 1.51-3.49 1.51-3.48 1.51-3.49 1.52-3.46 1.56-3.24 1.6-2.79 1.66-2.27 1.74-1.85 1.81-1.82 1.89-2.23 1.97-2.99 2.05-3.84 2.1-4.47 2.14-4.7 2.15-4.59 2.13-4.19 2.05-3.42 1.73-1.23.43" filter="url(#a)"/><path d="m-36.08-65.86-3.4 1.28-1.36 1.13-1.44 1.27-1.94 1.45-2.34 1.52-2.5 1.54-2.5 1.52-2.37 1.52-2.24 1.54-2.15 1.58-2.13 1.63-2.14 1.7-2.18 1.77-2.23 1.84-2.28 1.92-2.31 2-2.26 2.05-2.18 2.09-2.04 2.1-1.92 2.1-1.86 2.07-1.9 2.03-1.99 1.99-2.07 1.99-2.08 2.04-2.02 2.13-1.91 2.23-1.88 2.29-2.21 2.27-3.15 2.23" filter="url(#a)"/><path d="m-36.73-65.03-2.08 1.2-1.85 1.14-2.09 1.31-2.21 1.39-2.19 1.43-2.08 1.47-1.95 1.53-1.8 1.59-1.7 1.65-1.66 1.69-1.67 1.7-1.73 1.73-1.8 1.75-1.85 1.8-1.87 1.87-1.84 1.96-1.8 2.06-1.77 2.15-1.8 2.18-1.83 2.17-1.83 2.11-1.75 2.05-1.7 2.01-1.68 1.91-1.22 1.63" filter="url(#a)"/><path d="m-41.52-62.21-1.77 1.38-2.06 1.75-1.74 1.61-1.47 1.5-1.37 1.48-1.33 1.52-1.35 1.58-1.33 1.63-1.32 1.7-1.28 1.78-1.24 1.85-1.21 1.94-1.16 2-1.12 2.06-1.08 2.09-1.04 2.11-.97 2.09-.91 2.06-.81 2.03-.7 2.01-.62 2.01-.53 2.06-.49 2.14-.45 2.24-.41 2.34-.39 2.44-.36 2.55-.31 2.53-.09 1.76M71.1-15.86l.33 1.61.46 2.06.42 2.16.39 2.23.33 2.26.21 2.27.1 2.29-.01 2.33-.1 2.36-.19 2.39-.27 2.4-.34 2.4-.41 2.39-.46 2.39-.51 2.37-.55 2.35-.59 2.3-.62 2.24-.65 2.17-.68 2.11-.7 2.05-.75 2.02-.8 2-.88 1.99-.96 1.98-1.04 1.94-1.08 1.89-1.11 1.81-1.12 1.71-1.14 1.64-1.22 1.6-1.39 1.63-1.9 2.02" filter="url(#a)"/><path d="m71.1-15.86-.12 1.58-1.45 2.04-2.98 2.14-3.13 2.21-2.15 2.24-.99 2.24-.25 2.26-.04 2.3-.24 2.34-.72 2.37-1.32 2.38-1.88 2.37-2.3 2.37-2.51 2.37-2.52 2.38-2.43 2.37-2.34 2.33-2.39 2.25-2.65 2.16-3.06 2.07-3.37 2.02-3.34 1.98-3.04 1.9-3.35 1.64-5.92.68M-42.74-61l-2.02 1.31-1.94 1.34-2.1 1.44-2.35 1.54-2.64 1.64-2.78 1.69-2.65 1.72-2.26 1.73-1.76 1.76-1.34 1.8-1.17 1.85-1.26 1.93-1.52 2-1.82 2.08-2.04 2.12-2.15 2.14-2.15 2.14-2.11 2.11-2.06 2.08-1.97 2.09-1.81 2.11-1.55 2.15-1.25 2.21-.98 2.26-.9 2.29-1.04 2.27-1.25 2.27-1.37 2.24-1.23 2.24-.95 2.21-.78 2.11-1.04 1.66" filter="url(#a)"/><path d="m-44.96-59.53-1.57 1.17-1.72 1.43-1.57 1.55-1.49 1.64-1.47 1.69-1.5 1.73-1.51 1.73-1.51 1.74-1.52 1.78-1.53 1.83-1.52 1.91-1.5 2-1.45 2.08-1.36 2.13-1.21 2.14-1.06 2.14-.92 2.09-.84 2.07-.83 2.05-.88 2.07-.93 2.13-.9 2.22-.79 2.28-.61 2.3-.45 2.26-.44 2.24-.54 2.37-.55 2.44" filter="url(#a)"/><path d="m-48.59-56.23-.97.47-2.08 1.32-2.2 1.56-2.37 1.62-2.71 1.65-3.04 1.71-3.23 1.79-3.3 1.88-3.31 1.96-3.26 2.03-3.14 2.07-2.95 2.11-2.73 2.1-2.49 2.1-2.26 2.06-2.03 2.04-1.85 2.04-1.8 2.06-1.9 2.11-2.11 2.18-2.39 2.25-2.57 2.33-2.56 2.38-2.34 2.38-1.96 2.36-1.54 2.3-1.15 2.22-.82 2.19-.67 2.19-1.01 2.3-.04 2.9m67.3-62.98.6 1.22-.13 1.67.55 1.75.31 1.75-.5 1.75-1.28 1.76-1.75 1.79-1.87 1.85-1.69 1.94-1.28 2.03-.72 2.1-.14 2.14.4 2.15.85 2.13 1.24 2.12 1.66 2.1 2.19 2.1 2.87 2.13 3.59 2.17 4.17 2.21 4.38 2.25 4.08 2.27 3.28 2.27 2.2 2.27 1.16 2.25.44 2.24.12 2.25.09 2.26.13 2.32.19 2.38.59 2.47 1.68 2.46 3.16 2.2 3.74 1.38" filter="url(#a)"/><path d="m-50.04-54.18-2.08 1.41-1.87 1.63-1.98 1.61-2.67 1.67-3.31 1.79-3.47 1.89-3.17 1.97-2.64 2.04-2.15 2.08-1.85 2.11-1.72 2.11-1.75 2.1-1.85 2.06-1.99 2.03-2.13 2.03-2.22 2.04-2.25 2.1-2.2 2.18-2.14 2.26-2.1 2.32-2.12 2.38-2.19 2.38-2.17 2.36-2.05 2.29-1.85 2.21-1.76 2.18-2.02 2.19-2.65 2.3-2.28 2.89M70.19-18.96l2.1 2.99 1.46 2.74 3.06 2.41 4.13 2.18 3.79 2.15 2.67 2.2 1.67 2.27L90.31.32l1.26 2.36 1.52 2.34 1.78 2.32 2.04 2.27 2.3 2.25 2.52 2.22 2.65 2.22 2.51 2.22 2.12 2.25 1.57 2.27 1.07 2.27.73 2.21.64 2.13.89 2.05 1.64 2.02 2.19 2.13.05 2.78" filter="url(#a)"/><path d="m-51.56-53.15-17.12 1.38-5.58 1.67-2.45 1.72-1.99 1.7-1.57 1.73-1.15 1.78-1.24 1.89-1.93 2-2.79 2.09-3.35 2.15-3.38 2.16-3.16 2.12-3.13 2.08-3.62 2.02-4.53 2-5.41 2.01-5.7 2.09-5.43 2.22-5.2 2.35-5.64 2.33-5.84 2.04-3.01 1.29m93.22-42.82-1.46 1.41-1.72 1.71-1.64 1.74-1.51 1.75-1.4 1.77-1.38 1.85-1.41 1.94-1.46 2.05-1.46 2.12-1.44 2.16-1.36 2.16-1.29 2.15-1.2 2.12-1.09 2.1-.97 2.11-.84 2.14-.71 2.18-.62 2.22-.57 2.25-.56 2.26-.57 2.27-.59 2.27-.6 2.26-.61 2.26-.58 2.27-.51 2.29-.39 2.31-.23 2.33-.08 2.31.02 2.26.02 2.14-.03 2.03-.08 1.97-.03 2.09.25 2.4.62 2.96" filter="url(#a)"/><path d="m-52.38-52.1-2.12 2.04-2.07 1.81-2.08 1.74-1.83 1.75-1.54 1.83-1.4 1.94-1.4 2.05-1.45 2.13-1.48 2.17-1.48 2.17-1.41 2.14-1.25 2.11-1.07 2.09-.84 2.1-.66 2.12-.51 2.17-.42 2.22-.4 2.25-.42 2.26-.48 2.27-.62 2.27-.77 2.25-.97 2.25-1.1 2.25-1.13 2.28-.99 2.31-.71 2.35-.34 2.36-.05 2.3.05 2.14-.08 1.89-.32 1.79-.39 2.15" filter="url(#a)"/><path d="m-54.74-49.68-3.96 1.54-4.82 1.68-2.72 1.7-1.04 1.79-.67 1.92-1.37 2.04-2.6 2.14-3.76 2.17-4.51 2.17-4.79 2.14-4.85 2.09-5 2.06-5.3 2.06-5.53 2.09-5.42 2.15-4.82 2.21-3.89 2.25-3.06 2.27-2.59 2.26-2.52 2.25-2.57 2.23-2.62 2.21-2.98 2.2-4.09 2.19-5.76 2.22-6.41 2.29-5.18 2.29m101.63-55.36-1.81 2.05-1.57 1.7-1.62 1.8-2.03 1.95-2.7 2.09-3.11 2.17-2.9 2.21-2.19 2.18-1.38 2.15-.86 2.12-.81 2.1-1.17 2.1-1.79 2.14-2.47 2.18-3.01 2.23-3.27 2.25-3.16 2.27-2.73 2.28-2.1 2.27-1.49 2.26-1.06 2.27-.92 2.28-1.08 2.29-1.45 2.29-1.94 2.3-2.41 2.27-2.8 2.23-3 2.16-2.95 2.11-2.59 2.09-2.05 2.12-1.51 2.19-1.17 2.25-1.05 2.31-.92 2.28-.66 2.06-.89 1.5" filter="url(#a)"/><path d="m-58.2-45.27-8.27 1.56-1.03 1.8-2 2.04-3.18 2.14-2.79 2.17-1.84 2.15-1.36 2.11-1.66 2.06-2.36 2.04-2.92 2.03-2.98 2.08-2.54 2.14-1.89 2.21-1.37 2.28-1.24 2.33-1.48 2.35-1.94 2.35-2.34 2.33-2.56 2.29-2.58 2.26-2.58 2.23-2.7 2.21-3.02 2.22-3.42 2.23-3.69 2.28-3.65 2.35-3.31 2.42-2.93 2.46-2.83 2.39-3.09 2.23-3.27 2.02-2.61 1.91-1.23 2.12-2.85 2.9" filter="url(#a)"/><path d="m-58.2-45.27-8.62 1.54-3.47 1.77-1.49 2.02-.45 2.12-.56 2.15-1.41 2.13-2.4 2.1-3.18 2.03-3.71 2-4.09 1.99-4.33 2.03-4.38 2.09-4.15 2.17-3.7 2.26-3.27 2.33-3.18 2.37-3.6 2.37-4.36 2.33-4.94 2.27-4.96 2.22-4.47 2.18-3.96 2.19-3.54 2.26-2.17 2.32-.39 2.08M70.48-17.36l.88 1.44 1.84 1.72 1.95 1.96 1.37 2.1.64 2.18.06 2.22L77-3.5l-.24 2.26-.02 2.3.3 2.34.6 2.36.78 2.38.78 2.37.67 2.37.49 2.37.34 2.39.21 2.38.07 2.34-.08 2.25-.21 2.16-.22 2.07-.18 2.03-.32 2.02-.9 2.12-1.63 2.42M-59.83-42.74l-2.95 2.79-1.35 2.3-1.39 2.21-1.76 2.16-2.24 2.11-2.71 2.04-2.92 2-2.77 2-2.35 2.05-1.92 2.13-1.65 2.21-1.6 2.28-1.64 2.34-1.65 2.35-1.64 2.36-1.64 2.32-1.77 2.28-1.95 2.25-2.04 2.21-1.85 2.2-1.32 2.19-.66 2.2-.28 2.25-.51 2.34-1.4 2.46-2.45 2.55-2.89 2.51-2.21 2.24-.77 1.84.75 1.13" filter="url(#a)"/><path d="m-63.7-35.74-1.58 2.73-2 2.16-2.74 2-3.03 1.95-2.79 1.94-2.23 2.02-1.61 2.13-1.03 2.22-.67 2.31-.62 2.35-.93 2.37-1.45 2.36-1.92 2.32-2.04 2.27-1.73 2.24-1.12 2.21-.46 2.19-.03 2.2.13 2.22.1 2.26.02 2.35-.04 2.42-.13 2.45-.37 2.38-.76 2.22-1.18 1.99-1.48 1.89-1.39 2.12.12 2.89" filter="url(#a)"/><path d="m-63.7-35.74-1.6 2.73-2.59 2.15-3 2.01-2.17 1.94-1.11 1.94-.54 2.01-.57 2.12-.98 2.22-1.45 2.31-1.78 2.35-1.83 2.37-1.59 2.36-1.19 2.32-.85 2.27-.75 2.23-.98 2.21-1.43 2.18-1.93 2.19-2.19 2.21-2.03 2.25-1.39 2.34-.47 2.44.27 2.49.35 2.43-.34 2.21-1.19 1.9-.82 1.63 1.39 1.76" filter="url(#a)"/><path d="m-66.18-30.39-.76 1.21-2.07 1.73-3.72 1.95-3.92 2.02-2.68 2.1-1.11 2.2-.21 2.27-.32 2.3-1.19 2.29-2.35 2.28-3.33 2.25-3.82 2.25-3.83 2.26-3.54 2.26-3.21 2.28-2.98 2.29-2.85 2.28-2.67 2.26-2.33 2.21-1.72 2.15-.89 2.11.02 2.11.75 2.12.97 2.18.45 2.23-.81 2.26-2.37 2.28-3.42 2.3-3.09 2.33-1.14 2.37 1.21 2.28.41 1.62" filter="url(#a)"/><path d="m-66.77-29.42-1.28 1.8-2.52 2.09-3.53 2.02-4.37 2.06-4.75 2.17-4.73 2.27-4.74 2.3-5.15 2.28-5.88 2.25-6.35 2.23-5.96 2.22-4.53 2.21-2.44 2.23-.54 2.26.35 2.28-.21 2.32-2.02 2.29-4.34 2.23-6.02 2.1-6.07 1.97-4.02 1.93-.49 2.07 2.67 2.37.73 2.93" filter="url(#a)"/><path d="m-66.77-29.42-2.85 1.83-.62 2.11-.92 2.05-1.38 2.1-1.59 2.21-1.65 2.29-1.71 2.32-1.75 2.3-1.79 2.28-1.87 2.26-2 2.25-2.09 2.26-2.1 2.27-1.96 2.28-1.7 2.29-1.38 2.28-1.06 2.25-.76 2.21-.48 2.16-.22 2.14.04 2.12.29 2.15.48 2.18.6 2.23.57 2.26.39 2.28.06 2.29-.31 2.27-.51 2.24-.33 2.14.24 1.96.73 1.76.53 1.76 1.15 2.65" filter="url(#a)"/><path d="m-67.4-28.12-.87 2.7-.69 2.08-.62 2.05-.65 2.21-.65 2.32-.63 2.34-.6 2.31-.54 2.29-.48 2.26-.41 2.25-.32 2.26-.21 2.27-.1 2.29.02 2.29.1 2.28.18 2.25.22 2.21.24 2.17.28 2.14.32 2.14.38 2.16.45 2.19.52 2.23.58 2.25.65 2.27.7 2.27.77 2.24.84 2.19.91 2.1.97 1.99 1.03 1.9 1.08 1.86 1.2 1.91 1.36 2.02 1.53 2.16 1.26 2.07" filter="url(#a)"/><path d="m-68.26-25.25-.25.53-.67 1.86-.9 2.21-1.02 2.33-1.08 2.39-1.09 2.42-1.11 2.42-1.11 2.38-1.02 2.32-.86 2.28-.68 2.25-.5 2.22-.35 2.23-.25 2.24-.16 2.27-.08 2.3-.02 2.34.07 2.35.17 2.33.31 2.3.51 2.25.71 2.2.92 2.17 1.05 2.16 1.06 2.16.98 2.15.8 2.12.6 2.06.46 1.99.43 1.93.51 1.87.63 1.84.72 1.82.81 1.78 1.01 1.77 1.33 1.87 1.32 2.08" filter="url(#a)"/><path d="m-68.42-24.67 2.59 1.53-1.04 1.83-1.18 2.18-.57 2.36.12 2.36.64 2.31.92 2.26 1.1 2.24 1.35 2.24 1.79 2.24 2.36 2.26 2.82 2.27 3.04 2.29 2.98 2.29 2.82 2.25 2.72 2.2 2.74 2.14 2.77 2.11 2.65 2.1 2.25 2.13 1.68 2.17 1.21 2.22 1.11 2.26 1.52 2.28 2.24 2.29 2.89 2.31 3.28 2.32 3.63 2.25 4.18 2.09 3.32 2.15" filter="url(#a)"/><path d="m-68.14-26.25.18 3.06.74 2.45.64 2.37.32 2.38.3 2.4.52 2.41.67 2.37.55 2.31.25 2.25-.02 2.21-.07 2.18.2 2.18.65 2.19 1.15 2.21 1.51 2.27 1.69 2.34 1.74 2.39 1.83 2.4 2.09 2.34 2.53 2.2 2.89 2.08 2.95 2.02 2.58 2.09 2.06 2.21 1.82 2.14 2 1.7m-31.77-59.15-1.12 3.04-1.65 2.44-1.55 2.34-1.11 2.36-.86 2.4-.93 2.39-1.15 2.36-1.34 2.3-1.39 2.24-1.29 2.18-1.09 2.17-.81 2.15-.46 2.16-.06 2.16.3 2.22.54 2.32.54 2.45.29 2.55-.16 2.47-.54 2.21-.58 1.8-.73 1.1" filter="url(#a)"/><path d="m-68.14-26.25-4.6 3.05-.84 2.45-1.19 2.35-1.68 2.37-1.7 2.4-1.56 2.41-1.41 2.36-1.3 2.31-1.19 2.24-1.13 2.2L-85.8.06l-.95 2.17-.74 2.17-.54 2.2-.49 2.24-.69 2.34-1.04 2.41-1.35 2.45-1.48 2.38-1.4 2.18-1.32 1.97-1.32 1.87-1.04 2.1 1.21 2.88" filter="url(#a)"/><path d="m-68.14-26.25-4.54 3.08-.62 2.48.04 2.38-.05 2.41-.36 2.43-.65 2.42-.82 2.38-.87 2.32-.83 2.27-.78 2.23-.72 2.22-.62 2.21-.48 2.23-.25 2.26.02 2.3.29 2.34.52 2.35.65 2.34.68 2.3.62 2.24.54 2.19.44 2.16.39 2.15.39 2.16.46 2.16.58 2.13.74 2.08.94 1.98 1.14 1.9L-70 41.7l1.35 1.86 1.21 1.84.85 1.67.86 1.65M69.2-22.99l.64 2.26.6 2.31.61 2.49.54 2.48.46 2.37.36 2.27.27 2.22.19 2.25.15 2.29.11 2.33.06 2.35.01 2.34-.05 2.33-.13 2.29-.19 2.27-.25 2.24-.32 2.24-.38 2.24-.46 2.25-.56 2.27-.65 2.25-.75 2.21-.8 2.16-.82 2.09-.84 2.06-.84 2.06-.82 2.04-.76 1.91-.57 1.65m4.68-66.63 5.01 2.13 7.93 2.2 4.08 2.34-.16 2.44-1.84 2.43-1.16 2.37.69 2.28 2.53 2.24 3.65 2.25 3.72 2.29L96.08.2l1.79 2.35.9 2.34.64 2.32 1 2.3 1.62 2.26 2.1 2.25 2.19 2.23 2.02 2.25 1.84 2.25 1.89 2.27 2.01 2.27 1.92 2.22 1.45 2.15.82 2.08.43 2.06.39 2.09.6 2.14.35 1.79" filter="url(#a)"/><path d="m67.99-25.84 8.76 2.36 6.78 2.42 1.96 2.35.19 2.2.14 2.11.61 2.1.96 2.14.95 2.18.58 2.22.06 2.26-.38 2.29-.58 2.32-.43 2.36-.04 2.38.48 2.39.96 2.39 1.32 2.4 1.49 2.39 1.46 2.38 1.31 2.36 1.03 2.31.74 2.26.57 2.18.59 2.11.82 2.06 1.15 2.02 1.34 1.99 1.24 2 .84 2.01.37 2.01-.02 1.94-.36 1.78-.73 1.66-.57 1.87" filter="url(#a)"/><path d="m66.37-31.12 5.62 2.87 4.42 2.4 1.98 2.34 1.63 2.33 2.19 2.28 2.6 2.2 2.71 2.15 2.69 2.14 2.72 2.15 2.84 2.19 3.02 2.22 3.24 2.25 3.5 2.29 3.68 2.32 3.69 2.36 3.41 2.37 2.84 2.39 2.04 2.4 1.18 2.39.38 2.4-.23 2.38-.56 2.37-.61 2.32-.34 2.26.15 2.19.76 2.11 1.31 2.06 1.58 2.02 1.44 1.99.78 2-.43 2.02-1.89 2.05-2.62 1.98-1 1.7 2.78 1.34" filter="url(#a)"/><path d="m65.27-32.61 2.86 1.96 3.86 2.31 2.98 2.31 2.73 2.31 3.71 2.29 5.09 2.26 5.86 2.18 5.65 2.11 4.74 2.1 3.79 2.1 3.27 2.14 3.29 2.18 3.58 2.2 3.75 2.23 3.43 2.27 2.52 2.32 1.31 2.37.3 2.4v2.36l.63 2.25 1.62 2.19 1.68 2.28.55 2.62" filter="url(#a)"/><path d="m64.95-33.47 13.85 2.22 4.85 2.05 2.78 1.96 1.77 2.03.65 2.13-.68 2.24-1.71 2.32-1.99 2.37-1.4 2.38-.2 2.35L84.1-9.1l2.53 2.3 3.48 2.31 4.01 2.31L98.23.16l3.86 2.34 3.28 2.35 2.43 2.33 1.42 2.31.37 2.29-.53 2.27-1.11 2.27-1.28 2.26-1.03 2.27-.44 2.26.35 2.25 1.23 2.21 2.04 2.17 2.63 2.13 2.8 2.09 2.5 2.05 1.91 2.02 1.37 1.98 1.08 1.9.46 1.86-1.42 1.96-4.98 2.82" filter="url(#a)"/><path d="m65.26-33.33.59 1.1 1.01 1.81 1.55 2.13 1.87 2.26 1.84 2.3 1.52 2.3 1.1 2.25.72 2.2.49 2.15.42 2.13.47 2.13.54 2.17.6 2.19.59 2.23.55 2.26.56 2.29.61 2.34.7 2.36.75 2.38.68 2.38.48 2.37.2 2.38-.04 2.42-.17 2.46-.14 2.44-.18 2.29-.53 2.14-.86 2.08M64.07-35.64l6.11 2.13 4.89 2.13 5.88 2.02 5.48 1.98 3.06 2.02.29 2.1-1.3 2.2-1.33 2.29-.26 2.35 1.17 2.36 2.39 2.33 3.12 2.29 3.3 2.27 3.09 2.26 2.65 2.28 2.2 2.32 1.8 2.34 1.45 2.35 1.08 2.34.68 2.3.37 2.26.31 2.22.49 2.19.76 2.15 1.07 2.15 1.98 2.32 4.28 3.27" filter="url(#a)"/><path d="m63.88-35.64 1.11 1.79 1.19 1.63 2.04 1.87 3.03 2.1 3.67 2.22 3.88 2.28 3.76 2.28 3.4 2.26 2.88 2.2 2.34 2.17 1.87 2.14 1.54 2.16 1.37 2.17 1.36 2.2 1.51 2.24 1.87 2.27 2.43 2.31 3.09 2.34 3.66 2.36 3.88 2.39 3.58 2.38 2.8 2.39 1.77 2.39.88 2.42.4 2.42.32 2.38.47 2.3.68 2.17 1.26 2.08 2.36 2.02 1.76 2.04" filter="url(#a)"/><path d="m62.26-39.04 3.85 2.89 7.14 2.44 5.93 2.22 3.4 2.09 1.48 2.05.82 2.07 1.44 2.14 2.8 2.23 4 2.3 4.36 2.35 3.68 2.36 2.31 2.34.85 2.33-.23 2.3-.69 2.31-.56 2.32-.02 2.33.67 2.34 1.39 2.35 2 2.33 2.43 2.31 2.64 2.3 2.54 2.27 2.12 2.26 1.44 2.27.69 2.27.18 2.27.19 2.25.72 2.23 1.55 2.17 2.21 2.13 2.34 2.08 2.01 2.07 1.52 2.05 1.1 2.01.25 2.02-1.51 2.39M62.26-39.04l.95 2.88.27 2.43.1 2.21-.22 2.08-.68 2.03-1.02 2.05-1.11 2.13-.95 2.21-.61 2.29-.27 2.34-.07 2.36-.17 2.33-.51 2.31-.98 2.29-1.37 2.28L54-2.52 52.26-.19l-1.89 2.34-2.22 2.35-2.84 2.33-3.64 2.31-4.42 2.27-4.86 2.25-4.73 2.22-4.01 2.24-2.93 2.27-2.01 2.32-1.68 2.35-2.06 2.27-2.39 2.1-1.41 2.46" filter="url(#a)"/><path d="M62.01-38.95 66-36.23l2.59 2.04.8 1.83.41 1.91 1.08 2.06 2.35 2.18 3.81 2.24 4.87 2.26 5.16 2.24 4.64 2.19 3.71 2.14 2.79 2.11 2.19 2.12 1.94 2.14 2.05 2.17 2.53 2.2 3.36 2.22 4.26 2.26 4.6 2.32 3.88 2.4 2.45 2.47 1.63 2.43 2.63 2.15 3.92 1.8M61.64-39.72l-4.98 1.46 1.73 2.15 1.6 2.25.65 2.17v2.07l-.72 2.03-1.71 2.04-2.69 2.1-3.2 2.19L49.33-19l-2.32 2.33-1.68 2.35-1.47 2.33-1.78 2.28-2.31 2.25-2.71 2.24-2.8 2.27-2.52 2.31-1.99 2.36-1.25 2.37-.48 2.35-.18 2.32-.9 2.26-2.11 2.09-2.27 1.85" filter="url(#a)"/><path d="m58.88-44.27 1.38 1.54 1.47 1.99 1.5 2.13 1.76 2.11 1.89 2.04 1.75 2.01 1.4 2.04 1.04 2.1.84 2.18.8 2.23.88 2.25.97 2.23.99 2.22.92 2.19.78 2.17.63 2.18.5 2.19.41 2.21.37 2.25.36 2.28.39 2.31.46 2.35.56 2.37.66 2.38.71 2.4.67 2.4.56 2.41.42 2.41.31 2.41.27 2.38.22 2.3.03 2.2-.3 2.09-.61 2.03-.62 1.98-.26 1.9m-25-80.37 4.6 2.22 7.97 1.81 6.19 1.77 2.82 1.88.14 2.02-1.27 2.1-1.5 2.11-.99 2.09-.14 2.08.77 2.1 1.53 2.14 2.04 2.2 2.32 2.27 2.4 2.31 2.37 2.34 2.29 2.33 2.19 2.31 2.11 2.29 2.05 2.28 2.03 2.29 2.03 2.33 2.05 2.35 2.08 2.36 2.11 2.35 2.24 2.32 2.52 2.28 3.09 2.23 3.93 2.2 4.67 2.14 4.27 1.95 1.11 1.35" filter="url(#a)"/><path d="m56.55-47.57 1.87 2.55 2.04 2.08 2.91 2.07 3.22 2.09 2.68 2.06 1.86 2.01 1.41 1.98 1.5 2 1.91 2.06 2.31 2.14 2.42 2.21 2.23 2.23 1.84 2.23 1.47 2.2 1.27 2.14 1.24 2.11 1.31 2.11 1.38 2.13 1.42 2.18 1.5 2.2 1.63 2.18L97.7-.43l1.78 2.36 3.18 2.8" filter="url(#a)"/><path d="m57.18-46.49 1.79 1.25 2.4 1.68 2.12 1.73 1.64 1.77 1.45 1.87 1.71 1.99 2.24 2.07 2.79 2.08 3.13 2.08 3.18 2.06 2.99 2.07 2.63 2.11 2.22 2.18 1.94 2.25 1.94 2.31 2.26 2.35 2.77 2.34 3.25 2.29 3.52 2.24 3.51 2.21 3.14 2.25 2.4 2.34 1.27 2.4.27 2.39.33 2.16 1.33 1.47M55.51-49.2l5.69 2.07 3.89 1.75 2.03 1.71 1.58 1.72 1.89 1.76 2.53 1.86 3.13 1.96 3.48 2.04 3.65 2.07 3.76 2.06 3.88 2.04 3.95 2.03 3.78 2.06 3.26 2.14 2.49 2.22 1.81 2.33 1.69 2.4 2.28 2.42 3.19 2.3 3.63 2.09 3.12 1.87-.35 1.39" filter="url(#a)"/><path d="M53.27-51.63 57-49.26l5.64 2.07 5.08 2.03 4.42 2.03 4.05 2.05 3.34 2.07 2.25 2.04 1.27 2.01.93 1.98 1.35 1.99 2.39 2.04 3.76 2.12 5.16 2.19 6.19 2.25 6.45 2.25 5.61 2.21 3.97 2.12 2.55 2.05 2.83 2.01 5.11 2.08 7.42 2.41 8.17 3.53" filter="url(#a)"/><path d="m53.27-51.63 10.62 2.4 7.93 2.09.88 2.06-2.03 2.06-1.62 2.09.23 2.08 2.39 2.07 4.2 2.04 5.3 2.02 5.66 2.05 5.47 2.1 5.1 2.16 4.75 2.2 4.53 2.23 4.36 2.23 4.22 2.2 4.05 2.18 3.87 2.16 3.6 2.15 3.18 2.17 2.59 2.19 2 2.22 1.66 2.25 1.74 2.28 2.21 2.34 2.8 2.4 3.1 2.44 2.69 2.4 1.39 2.26.09 2.08 1.38 2.24" filter="url(#a)"/><path d="m53.05-52.02 2.12 2.55 1.72 2.13 1.41 1.89 1.21 1.8 1.1 1.79 1.07 1.84 1.06 1.91 1.04 2 1.01 2.05.97 2.08.92 2.1.86 2.1.82 2.12.79 2.16.77 2.22.75 2.26.72 2.31.68 2.33.61 2.33.51 2.32.41 2.31.29 2.3.17 2.31.06 2.34-.03 2.35-.1 2.36-.15 2.35-.19 2.32-.22 2.29-.24 2.25-.27 2.22-.3 2.21-.37 2.26-.53 2.4-.79 2.73-1.18 2.87" filter="url(#a)"/><path d="m53.05-52.02 2.09 2.55 1.71 2.12 1.57 1.89 1.53 1.8 1.57 1.78 1.71 1.82 1.88 1.91 2.06 1.99 2.2 2.05 2.38 2.08 2.58 2.08 2.83 2.1 3.01 2.11 3.04 2.15 2.87 2.2 2.6 2.26 2.37 2.31 2.34 2.33 2.53 2.34 2.83 2.31 2.99 2.29 2.86 2.29 2.35 2.3 1.64 2.33.98 2.36.72 2.37 1.03 2.36 1.82 2.33 2.69 2.28 2.94 2.24 2.09 2.23.81 2.3 2.36 2.29" filter="url(#a)"/><path d="m51.31-53.45 1.46 1.31 1.31 1.43 1.45 1.7 1.55 1.89 1.59 2 1.54 2.04 1.47 2.07 1.37 2.08 1.27 2.07 1.21 2.05 1.16 2.05 1.16 2.07L69-28.58l1.14 2.16 1.11 2.2 1.01 2.23.9 2.22.78 2.21.68 2.19.64 2.18.66 2.17.68 2.18.69 2.2.63 2.24.53 2.26.44 2.3.38 2.35.39 2.38.43 2.41.4 2.38.26 2.34-.05 2.34-.45 2.46-.78 2.82-.81 3.44" filter="url(#a)"/><path d="m51.31-53.45 1.39 1.31 1.08 1.43L54.89-49l1.14 1.89 1.09 1.99.88 2.05.5 2.08.05 2.08-.41 2.06-.78 2.06-1.02 2.05-1.18 2.08-1.24 2.11-1.22 2.16-1.09 2.2-.92 2.23-.73 2.22-.6 2.21-.53 2.2-.52 2.17-.57 2.18-.66 2.19-.8 2.2-1.04 2.24-1.37 2.27-1.73 2.3-2.04 2.35-2.21 2.38-2.22 2.4-2.15 2.38-2.13 2.37-2.25 2.38-2.36 2.46-2.32 2.6-2.21 2.58-2.82 1.77" filter="url(#a)"/><path d="m50.48-54.21 1.96 1.36 2.92 1.61 2.76 1.85 1.9 1.89 1.13 1.87.76 1.82.76 1.82.95 1.85 1.17 1.91 1.36 1.98 1.51 2.03 1.62 2.07 1.71 2.08 1.78 2.09 1.78 2.11 1.71 2.15 1.56 2.2 1.38 2.25 1.23 2.31 1.15 2.33 1.13 2.34 1.14 2.31 1.11 2.29 1.02 2.27.88 2.3.72 2.33.54 2.37.36 2.39.16 2.37-.04 2.35-.16 2.28-.02 2.12.75 1.87" filter="url(#a)"/><path d="m47.25-57.45 4.01 1.85 1.78 1.7 2.23 1.58 2.86 1.61 2.99 1.73 2.75 1.86 2.31 1.95 1.84 2.02 1.39 2.05 1.03 2.07.85 2.06.8 2.06.89 2.06 1.04 2.07 1.23 2.12 1.42 2.16 1.65 2.19 1.85 2.22 2.02 2.23 2.07 2.21 1.96 2.19 1.71 2.18 1.37 2.17 1.07 2.18.9 2.2.87 2.23.93 2.27 1.02 2.3 1.02 2.34.96 2.4.84 2.42.64 2.39.46 2.31.46 2.23.92 2.32 1.42 2.65" filter="url(#a)"/><path d="m47.79-57.04 2.48 1.2 4.97 1.42 4.6 1.53 3.79 1.67L67-49.44l3.19 1.83 2.98 1.84 2.65 1.83 2.22 1.82 1.81 1.86 1.59 1.91 1.63 1.97 1.91 2.02 2.26 2.05 2.59 2.08 2.78 2.08 2.9 2.1 2.98 2.14 3.06 2.19 3.17 2.25 3.27 2.31 3.33 2.35 3.37 2.34 3.35 2.31 3.22 2.26 2.92 2.25 2.46 2.27 1.95 2.34 1.59 2.42 1.72 2.4 2.22 2.18 1.79 1.49" filter="url(#a)"/><path d="m44.7-59.68 2.31 2.04 1.9 1.61 1.93 1.5 1.94 1.55 1.94 1.64 1.95 1.75 1.94 1.8 1.83 1.81 1.65 1.8 1.41 1.79 1.2 1.82 1.09 1.86 1.07 1.94 1.12 2.01 1.17 2.05 1.16 2.06 1.06 2.03.93 2.02.82 2.03.79 2.08.83 2.15.87 2.26.94 2.5 1.29 2.82M44.83-59.85l1.57 1.29 2.67 1.41 4.22 1.53 5.27 1.56 5.19 1.58 4.09 1.63 2.63 1.72 1.68 1.82 1.61 1.91 2.27 1.98 3.22 2.03 4 2.04 4.32 2.05 4.16 2.03 3.73 2.03 3.3 2.03 3.07 2.07 3.17 2.13 3.54 2.2 4.1 2.24 4.76 2.26 5.52 2.23 6.41 2.15 7.26 2.08 7.61 2.04 7.06 2.1 5.85 2.42 8.28 3.56" filter="url(#a)"/><path d="m44.86-59.71 2.48.77 1.37 1.38 1.92 1.48 3.1 1.51 4.3 1.56 5.13 1.65 5.28 1.73 4.89 1.79 4.27 1.81 3.8 1.8 3.56 1.8 3.46 1.82 3.28 1.87 2.97 1.94 2.65 2.01 2.65 2.05 3.25 2.06 4.64 2.04 6.71 2.02 8.95 2.04 10.5 2.07 10.32 2.15 7.97 2.27 4.47 2.5 2 2.83" filter="url(#a)"/><path d="m43.12-61.22 1.73 1.32 1.92 1.34 2.06 1.44 2.33 1.52 2.66 1.57 2.87 1.6 2.77 1.66 2.4 1.74 1.91 1.84 1.51 1.92 1.3 1.99 1.34 2.03 1.56 2.05 1.89 2.05 2.21 2.06L76-33.03l2.45 2.08 2.27 2.11 1.97 2.15 1.61 2.2 1.32 2.22 1.2 2.22 1.28 2.22 1.49 2.19 1.71 2.17 1.75 2.16 1.54 2.18 1.13 2.19.73 2.22.55 2.25.7 2.27 1.03 2.34 1.22 2.45 1.08 2.57.95 2.62 1.52 1.89" filter="url(#a)"/><path d="m43.12-61.22 1.62 1.3 1.94 1.31 2.82 1.41 3.48 1.5 3.48 1.53 2.98 1.56L61.76-51l1.77 1.69 1.45 1.79 1.42 1.88 1.6 1.96 1.91 2.01 2.13 2.04 2.14 2.04 1.9 2.02 1.63 1.97 1.58 1.96 1.88 2 2.39 2.07 2.84 2.17 3.13 2.28 3.5 2.52 3.94 3.24" filter="url(#a)"/><path d="m43.12-61.22 3.97 1.31 2.77 1.33 3.32 1.43 2.95 1.51 2.12 1.55 1.68 1.58 1.89 1.64 2.53 1.72 3.2 1.82 3.53 1.9 3.39 1.98 2.91 2.02 2.36 2.04 2 2.05 2.01 2.03 2.35 2.03 2.88 2.04 3.46 2.08 3.89 2.13 4.1 2.19 3.97 2.25 3.51 2.26 2.82 2.23 2.32 2.16 2.47 2.08 3.36 2.04 4.13 2.11 3.63 2.42 3.58 3.56" filter="url(#a)"/><path d="m41.57-62.21 2.31 1.78L45.89-59l2.56 1.44 2.99 1.49 2.9 1.53 2.38 1.59 1.82 1.67L60-49.54l1.39 1.79 1.51 1.81 1.67 1.82 1.76 1.83 1.76 1.86 1.7 1.91 1.64 1.96 1.59 2.01 1.57 2.05 1.61 2.06 1.71 2.08 1.88 2.09 2.02 2.12 2.06 2.18 1.91 2.25 1.55 2.32 1.13 2.38.86 2.38.85 2.31 1.07 2.22 1.31 2.15 1.41 2.19 1.35 2.37L96.4.9" filter="url(#a)"/><path d="m38.69-63.84 2.8 1.7 2.57 1.59 2.46 1.49 2.52 1.48 2.57 1.5 2.53 1.54 2.35 1.61 2.06 1.67 1.73 1.74 1.45 1.79 1.25 1.81 1.12 1.83 1.09 1.84 1.12 1.88 1.23 1.92 1.42 1.96 1.63 2.02 1.85 2.05 1.98 2.07 2 2.09 1.88 2.11L79.99-24l1.5 2.19 1.34 2.26 1.26 2.31 1.21 2.34 1.17 2.35 1.11 2.32 1.05 2.28 1.09 2.25 1.24 2.28 1.44 2.35 1.41 2.42.93 2.41.14 2.2.38 1.49M39.12-63.86l1.49.59 3.02 1.24 3.01 1.4 2.47 1.44 2.18 1.45 2.52 1.47 3.48 1.5 4.7 1.56 5.71 1.63 6.1 1.7 5.71 1.76 4.74 1.79 3.63 1.79 2.75 1.78 2.41 1.78 2.65 1.83 3.41 1.91 4.38 2.02 5.04 2.11 4.75 2.12 3.5 1.99 2.96 1.82 7.18 2.08" filter="url(#a)"/><path d="m35.31-65.96 3.11 1.67 3.77 1.54 3.7 1.38 2.75 1.33 1.71 1.35 1.2 1.4 1.31 1.46 1.81 1.51 2.36 1.55 2.76 1.61 2.89 1.68 2.8 1.78 2.67 1.86 2.68 1.95 3.01 2.01 3.6 2.04 4.26 2.06 4.54 2.02 4.17 1.96 3.23 1.93 2.28 1.96 2.06 2.09 2.53 2.21 1.77 2.27" filter="url(#a)"/><path d="m35.61-66.19 3.66 1.62 2.97 1.26 2.29 1.32 2.14 1.4 2.11 1.45 1.94 1.47 1.66 1.5 1.44 1.54 1.42 1.59 1.57 1.67 1.84 1.72 2.16 1.77 2.43 1.8 2.63 1.81 2.72 1.84 2.68 1.86 2.55 1.91 2.39 1.95 2.28 2.01 2.24 2.04 2.29 2.07 2.34 2.07 2.29 2.08 2.12 2.11 1.87 2.17 1.65 2.24 1.57 2.34 1.64 2.42 1.79 2.44 1.91 2.34 1.9 2.14 1.55 1.91.3 1.42" filter="url(#a)"/><path d="m33.96-67.05 2.23 1.26 3.26 1.48 3.34 1.47 2.78 1.4 2.06 1.35 1.57 1.36 1.46 1.41 1.57 1.46 1.79 1.51 1.96 1.55 2.06 1.61 2.12 1.69 2.17 1.77 2.24 1.87 2.32 1.94 2.39 2.01 2.4 2.04 2.38 2.06 2.26 2.03 2.07 1.97 1.85 1.92 1.57 1.97 1.32 2.09 1.19 2.22 1.87 2.27" filter="url(#a)"/><path d="m33.9-66.93 4.18 1.08 5.73 1.25 4.43 1.27L50.38-62l.63 1.4.28 1.43.78 1.47 1.76 1.5 2.94 1.55 3.99 1.6 4.73 1.66 5 1.72 4.75 1.76 4.16 1.8 3.4 1.82 2.75 1.83 2.31 1.87 2.13 1.9 2.08 1.96 2.07 2.01 2.07 2.04 2.11 2.06 2.27 2.08 2.61 2.08 3.05 2.12 3.47 2.16 3.81 2.25 3.97 2.34 3.92 2.42 3.53 2.44 2.73 2.34 1.87 2.14L131-6.34l2.29 1.43" filter="url(#a)"/><path d="m30.84-68.55 2.83 1.03 1.5.89 1.68 1.09 2.2 1.28 2.66 1.35 2.97 1.37 3.12 1.36 3.07 1.39 2.8 1.41 2.39 1.46 1.97 1.51 1.67 1.56 1.6 1.61 1.74 1.69 2.01 1.78 2.27 1.86 2.36 1.94 2.28 2.01 2.12 2.05 1.97 2.05 1.88 2.04 1.83 1.97 1.82 1.94 1.94 1.97 2.28 2.1 2.47 2.22 1.54 2.28" filter="url(#a)"/><path d="m28.88-69.25 1.89 1.06 2.25 1.12 2.1 1.18 1.91 1.22 1.75 1.27 1.63 1.32 1.5 1.37 1.4 1.42 1.35 1.45 1.35 1.48 1.37 1.52 1.41 1.58 1.41 1.64 1.36 1.71 1.25 1.75 1.09 1.78.93 1.8.82 1.81.75 1.82.75 1.87.76 1.93.78 2.02.76 2.07.72 2.09.62 2.04.51 1.99.43 2.02.39 2.16.3 2.36" filter="url(#a)"/><path d="m28.44-69.92 2.8 1.25 2.51 1.03 2.23 1.01 2.3 1.12 2.43 1.26 2.47 1.33 2.39 1.36 2.23 1.37 2.09 1.39 2.08 1.42 2.22 1.46 2.47 1.52 2.75 1.56 2.99 1.62 3.19 1.7 3.34 1.78 3.49 1.86 3.6 1.95 3.65 2 3.54 2.05 3.27 2.05 2.9 2.03 2.46 2 2.08 1.97 1.92 1.99 2.19 2.08 2.87 2.16 3.34 2.14 3.59 1.96" filter="url(#a)"/><path d="m27.3-70.48 10.53 1.13 3.71 1.11 1.13 1.13.54 1.17.79 1.21 1.48 1.26 2.2 1.31 2.65 1.36 2.78 1.4 2.84 1.44 3.09 1.47 3.6 1.51 4.17 1.56 4.54 1.62 4.49 1.69 4.05 1.76 3.47 1.78 3.03 1.79L89.25-43l2.84 1.77 2.71 1.8 2.39 1.9 2.23 2.04 2.89 2.23 4.48 2.39 5.3 2.71M26.2-70.5l-1.1.82-.43 1 1.12 1 2.04 1.04 2.24 1.13 1.75 1.24.89 1.32.1 1.34-.39 1.37-.59 1.39-.68 1.42-.73 1.47-.79 1.5-.73 1.56-.52 1.62-.15 1.69.23 1.78.48 1.86.52 1.94.39 2 .23 2.05.09 2.06-.07 2.04-.47 1.99-1.25 1.94-2.28 1.98-3.28 2.1-3.98 2.23-4.06 2.28" filter="url(#a)"/><path d="m26.79-70.53 1.18.44 2.73.87 3.35 1.03 2.96 1.12 2.35 1.18 1.99 1.23 2.02 1.28 2.35 1.33 2.79 1.37 3.17 1.43 3.33 1.46 3.22 1.5 2.93 1.55 2.58 1.6 2.29 1.65 2.17 1.71 2.23 1.76 2.39 1.79 2.64 1.81 2.9 1.84 3.14 1.87 3.36 1.9 3.56 1.96 3.68 2.01 3.65 2.04 3.42 2.07 2.97 2.07 2.36 2.09 1.77 2.1 1.45 2.16 1.57 2.25 2.22 2.35 3.16 2.46 3.91 2.5 3.94 2.39 3.46 2.17 4.98 2.54" filter="url(#a)"/><path d="m23.34-71.7 5.09.86 4.2.76 2.37.89 1.93 1 2.33 1.1 2.77 1.16 2.93 1.22 2.87 1.27 2.78 1.32 2.79 1.36 2.98 1.41 3.35 1.45 3.73 1.49 3.99 1.54 4.01 1.58 3.78 1.65 3.39 1.7 3.04 1.74 2.82 1.79 2.75 1.8 2.8 1.82 2.89 1.84 2.99 1.88 3.18 1.95 3.55 2.01 4.12 2.06 4.68 2.08 4.91 2.06 4.57 2.02 3.83 2.03 3.36 2.08 3.29 2.07 1.47 1.75" filter="url(#a)"/><path d="m23.19-71.7 1.54.56 1.63.69 1.7.83 1.58.91 1.32.97 1.16 1.04 1.18 1.13 1.32 1.21 1.47 1.28 1.53 1.33 1.53 1.35 1.52 1.38 1.53 1.4 1.54 1.45 1.51 1.49 1.4 1.53 1.2 1.58.92 1.65.62 1.74.31 1.84.06 1.92-.14 2.01-.17 2.08-.03 2.2.28 2.38.23 2.42M20.17-72.96l5.9 1.1 3.91.88 1.87.84 1.76.89 2.44.98 3.08 1.06 3.57 1.13 4.07 1.19 4.6 1.23 5.07 1.29 5.3 1.34 5.25 1.38 4.95 1.41 4.59 1.45 4.28 1.47 4.04 1.51 3.89 1.58 3.9 1.67 4.34 1.77 5.46 1.85 6.93 1.84 7.32 1.82 4.81 1.68" filter="url(#a)"/><path d="m19.64-72.88 1.55.35 2.73.75 3.38.81 3.68.86 3.62.92 3.35 1 2.96 1.07 2.66 1.15 2.61 1.2 2.84 1.26 3.22 1.31 3.52 1.35 3.58 1.41L62.76-58l3.18 1.48L69-55l3.16 1.58 3.49 1.63 3.91 1.7 4.3 1.74 4.57 1.78 4.72 1.8 4.74 1.8 4.69 1.82 4.54 1.85 4.35 1.93 4.1 2.04 3.84 2.12 3.78 2.13 4.35 2.02 6.11 1.85 8.37 2.11" filter="url(#a)"/><path d="m17.9-73.42 2.05.65 2.48.77 2.77.76 3.12.8 3.27.84 3.16.92 2.94.98 2.71 1.05 2.45 1.14 2.21 1.21 2.02 1.28 1.96 1.33 2.02 1.36 2.18 1.39 2.3 1.43 2.37 1.47 2.39 1.51 2.45 1.56 2.61 1.62 2.89 1.7 3.23 1.77 3.5 1.86 3.62 1.94 3.59 2 3.41 2.06 3.13 2.06 2.81 2.04 2.55 2 2.56 1.96 2.95 1.98 3.54 2.11 4 2.24 4.98 2.29" filter="url(#a)"/><path d="m14.33-74.23 2.96.71 2.64.73 2.59.75 2.56.76 2.47.79 2.35.84 2.22.9 2.19.96 2.33 1.04 2.63 1.11 2.98 1.2 3.3 1.26L49-61.87l3.46 1.34 3.35 1.37 3.21 1.41 3.09 1.44 3.02 1.48 2.98 1.52 2.96 1.56 3 1.63 3.21 1.72 3.68 1.84 4.38 1.93 4.77 1.97 3.9 1.95.89 1.76M9.75-75.02l-.98-.19-2.09-.18-2.32-.14-2.41-.08-2.6-.02-2.79.05-2.97.12-3.09.19-3.19.25-3.28.31-3.36.36-3.45.42-3.52.48-3.55.55-3.48.61-3.37.69-3.24.77-3.2.85-3.3.93-3.57 1.01-3.96 1.06-4.42 1.12-4.8 1.17-4.99 1.22-4.88 1.27-4.47 1.32-3.91 1.37-3.63 1.4-4.07 1.45-5.2 1.52-6.01 1.61-5.55 1.43" filter="url(#a)"/><path d="m10.73-74.97-2.88-.33-2.26-.18-2.25-.12-2.23-.05-2.2.01-2.23.09-2.29.15-2.33.23-2.36.29-2.35.36-2.32.43-2.28.47-2.24.52-2.19.57-2.17.61-2.18.66-2.24.73-2.38.81-2.53.92-2.69 1-2.74 1.09-2.7 1.13-2.55 1.14-2.37 1.14-2.31 1.21-2.59 1.43-3.73 2.1" filter="url(#a)"/><path d="m6.54-75.49-1.21-.04-2.18-.1-2.19-.05-2.12.02-2.16.08-2.23.16-2.31.23-2.33.3-2.33.37-2.31.42-2.26.48-2.24.53-2.19.57-2.17.61-2.16.66-2.18.73-2.26.81-2.36.91-2.48 1.01-2.57 1.09-2.55 1.13-2.44 1.14-2.27 1.14-2.21 1.2-2.48 1.43-3.77 2.1" filter="url(#a)"/><path d="m6.54-75.49-1.43-.04-2.23-.1-2-.05-1.71.02-1.54.09-1.52.17-1.58.23-1.66.31-1.72.37-1.72.43-1.69.49-1.61.53-1.46.58-1.27.63-1.07.68-.9.76-.77.84-.7.92-.6 1.01-.41 1.09-.1 1.14.31 1.19.67 1.25.88 1.34.91 1.43.97 1.5 1.3 1.49 1.96 1.4 2.17 1.33.48 1.24" filter="url(#a)"/><path d="m6.45-75.49-2.41-.11-2.06-.07-2.12-.02-2.34.05-2.59.13-2.79.19-2.96.25-3.08.3-3.19.36-3.33.41-3.54.46-3.79.53-4.01.58-4.08.67-3.97.74-3.82.84-3.86.91-4.28 1-5.12 1.05-6.1 1.11-6.93 1.13-7.29 1.14-6.89 1.17-7.17 1.67" filter="url(#a)"/><path d="m6.45-75.49-2.42-.11-2.06-.07-2.04-.02-2.16.06-2.28.13-2.34.2-2.32.26-2.27.31-2.21.37-2.2.43-2.22.48-2.28.54-2.33.62-2.36.69-2.37.78-2.32.85-2.29.94-2.25 1-2.25 1.07-2.26 1.12-2.29 1.17-2.32 1.22-2.36 1.27-2.38 1.32-2.44 1.36-2.5 1.41-2.52 1.44-2.44 1.52-2.24 1.6-2 1.43" filter="url(#a)"/><path d="m6.6-75.43-3.41-.2-2.41-.08-2.36.02-2.77.09-3.2.16-3.41.23-3.39.31-3.28.36-3.2.43-3.19.48-3.19.53-3.14.56-3.06.61-3.03.65-3.23.72-3.71.81-4.46.91-5.23 1.01-5.7 1.09-5.68 1.14-5.32 1.12-5.19 1.09-5.56 1.04-4.71.94" filter="url(#a)"/><path d="m1.53-75.81-1.66.06-2.24.07-2.46.14-2.45.21-2.33.27-2.23.33-2.17.38-2.18.44-2.24.49-2.36.56-2.49.62-2.64.71-2.8.79-2.94.88-3.06.95-3.13 1.01-3.16 1.08-3.13 1.14-3.04 1.18-2.89 1.24-2.66 1.28-2.38 1.33-2.11 1.38-2 1.43-2.09 1.49-2.38 1.55-2.74 1.63-2.97 1.68-3.02 1.74-3.01 1.74-2.92 1.61-1.95 1.01" filter="url(#a)"/><path d="m.3-76.01-1.62.24-2.06.14-2.27.17-2.35.25-2.3.33-2.21.39-2.11.46-2.04.5-1.99.55-1.94.59-1.91.65-1.89.7-1.88.79-1.88.86-1.88.95-1.88 1.03-1.85 1.1-1.81 1.17-1.76 1.22-1.71 1.29-1.68 1.35-1.65 1.41-1.61 1.46-1.54 1.49-1.46 1.51-1.37 1.52-1.3 1.54-1.24 1.56-1.16 1.61-1.08 1.68-.99 1.79-.88 1.75-.7 1.22" filter="url(#a)"/></g><g fill="none" stroke="#000"><circle cx="12.408" cy="9.214" r="1.024" filter="url(#a)"/><circle cx="11.096" cy="9.122" r="2.436" filter="url(#a)"/><circle cx="10.604" cy="9.026" r="2.078" filter="url(#a)"/><circle cx="12.812" cy="9.75" r="1.702" filter="url(#a)"/><circle cx="10" cy="7.174" r="1.38" filter="url(#a)"/><circle cx="12.012" cy="7.218" r="1.498" filter="url(#a)"/><circle cx="13.672" cy="8.986" r="1.006" filter="url(#a)"/><circle cx="10.908" cy="9.554" r="2.924" filter="url(#a)"/><circle cx="13.492" cy="7.654" r="1.176" filter="url(#a)"/><circle cx="13.504" cy="9.786" r="1.392" filter="url(#a)"/><circle cx="-11.05" cy="13.082" r="2.362" filter="url(#a)"/><circle cx="-10.182" cy="12.262" r="1.95" filter="url(#a)"/><circle cx="-8.07" cy="13.154" r="2.154" filter="url(#a)"/><circle cx="-9.854" cy="10.538" r="1.778" filter="url(#a)"/><circle cx="-8.502" cy="10.394" r="2.914" filter="url(#a)"/><circle cx="-7.938" cy="12.31" r="1.056" filter="url(#a)"/><circle cx="-7.522" cy="12.086" r="2.016" filter="url(#a)"/><circle cx="-10.09" cy="10.442" r="1.75" filter="url(#a)"/><circle cx="-11.154" cy="12.814" r="2.874" filter="url(#a)"/><circle cx="-8.882" cy="10.446" r="1.69" filter="url(#a)"/></g><path fill="#D77F8C" stroke="#000" stroke-linejoin="round" stroke-width="3" d="m-35.51 55.37.72-.7.72-.68.72-.68.73-.67.72-.66.73-.65.72-.63.73-.63.73-.62.73-.6.73-.6.73-.58.73-.57.73-.56.73-.55.73-.54.73-.53.73-.52.73-.5.73-.5.73-.48.73-.47.73-.45.73-.45.72-.43.73-.42.73-.41.72-.4.73-.38.72-.37.73-.36.72-.35.72-.33.72-.32.72-.3.71-.3.72-.28.71-.26.71-.26.71-.23.71-.23.71-.21.7-.2.7-.18.7-.17.7-.16.69-.14.7-.12.69-.12.68-.09.69-.08.68-.07.68-.06.68-.03.67-.03h.67l.67.01.66.02.67.04.65.05.66.07.65.09.64.1.65.12.64.13.63.15.64.17.62.18.63.2.62.22.61.23.61.25.61.27.6.28.6.3.59.32.59.33.59.35.57.37.58.39.57.41.56.42.56.44.55.46.55.48.54.49.54.51.53.54.53.55.52.56.51.59.51.61.5.62.5.65.49.66.48.68.48.7.47.72.46.74-.64-.05-.65-.05-.65-.05-.65-.05-.65-.04-.65-.05-.65-.04-.65-.03-.64-.04-.65-.03-.65-.02-.65-.03-.65-.02-.65-.03-.65-.01-.65-.02-.65-.01-.64-.01-.65-.01-.65-.01h-2.6l-.65.01-.64.01-.65.01-.65.01-.65.02-.65.02-.65.02-.65.02-.65.03-.64.02-.65.03-.65.04-.65.03-.65.04-.65.04-.65.04-.65.04-.64.04-.65.05-.65.05-.65.05-.65.06-.65.05-.65.06-.65.06-.64.06-.65.07-.65.06-.65.07-.65.07-.65.07-.65.08-.65.07-.64.08-.65.08-.65.08-.65.09-.65.08-.65.09-.65.09-.65.09-.64.1-.65.09-.65.1-.65.1-.65.1-.65.1-.65.1-.65.11-.64.11-.65.1-.65.12-.65.11-.65.11-.65.12-.65.12-.65.11-.64.13-.65.12-.65.12-.65.13-.65.12-.65.13-.65.13-.65.14-.64.13-.65.13-.65.14-.65.14-.65.14-.65.14-.65.14-.65.14-.64.15-.65.14" filter="url(#a)"/></svg>