<svg viewBox="-100 -100 200 200" xmlns="http://www.w3.org/2000/svg" width="500" height="500" id="face-svg">
    <defs>
      <clipPath id="leftEyeClipPath">
        <polyline points="27.99,3.63 27.84,3.05 27.66,2.45 27.46,1.84 27.23,1.22 26.98,0.59 26.69,-0.04 26.38,-0.67 26.03,-1.3 25.66,-1.92 25.25,-2.53 24.81,-3.14 24.34,-3.74 23.84,-4.32 23.31,-4.89 22.74,-5.44 22.32,-6.27 21.84,-7.07 21.3,-7.83 20.69,-8.56 20.03,-9.24 19.31,-9.88 18.53,-10.48 17.71,-11.03 16.82,-11.54 15.89,-11.99 14.92,-12.4 13.9,-12.76 12.84,-13.07 11.75,-13.33 10.62,-13.54 9.47,-13.71 8.28,-13.82 7.08,-13.89 5.86,-13.92 4.62,-13.9 3.37,-13.83 2.12,-13.72 0.86,-13.58 -0.4,-13.39 -1.66,-13.17 -2.91,-12.9 -4.16,-12.61 -5.39,-12.28 -6.6,-11.93 -7.8,-11.54 -8.98,-11.13 -10.13,-10.69 -11.26,-10.23 -12.37,-9.75 -13.44,-9.25 -14.49,-8.74 -15.5,-8.21 -16.48,-7.67 -17.43,-7.11 -18.34,-6.55 -19.21,-5.98 -20.06,-5.41 -20.86,-4.83 -21.63,-4.25 -22.37,-3.67 -23.07,-3.09 -23.73,-2.52 -24.37,-1.94 -24.97,-1.38 -25.54,-0.82 -26.08,-0.26 -26.6,0.3 -27.08,0.85 -27.53,1.39 -27.95,1.93 -28.34,2.47 -28.71,3 -29.05,3.52 -29.36,4.03 -29.64,4.54 -29.89,5.04 -30.13,5.53 -30.33,6.02 -30.51,6.49 -29.06,10.11 -28.61,10.38 -28.14,10.63 -27.65,10.88 -27.15,11.11 -26.62,11.34 -26.08,11.55 -25.52,11.76 -24.94,11.95 -24.34,12.14 -23.73,12.31 -23.09,12.47 -22.44,12.62 -21.77,12.77 -21.08,12.9 -20.37,13.02 -19.64,13.13 -18.89,13.24 -18.12,13.33 -17.33,13.41 -16.52,13.48 -15.69,13.55 -14.84,13.6 -13.97,13.64 -13.09,13.68 -12.18,13.7 -11.26,13.71 -10.33,13.72 -9.38,13.71 -8.41,13.7 -7.43,13.67 -6.45,13.64 -5.45,13.6 -4.45,13.56 -3.44,13.5 -2.42,13.45 -1.4,13.38 -0.38,13.31 0.64,13.24 1.66,13.17 2.68,13.09 3.69,13.01 4.69,12.92 5.68,12.84 6.67,12.76 7.64,12.67 8.59,12.59 9.53,12.51 10.45,12.44 11.36,12.36 12.24,12.29 13.09,12.23 13.93,12.17 14.73,12.11 15.51,12.06 16.26,12.02 16.98,11.98 17.67,11.95 18.33,11.92 18.95,11.9 19.54,11.89 20.1,11.88 20.63,11.88 21.12,11.88 21.57,11.89 22.08,11.83 22.56,11.77 23.03,11.7 23.47,11.63 23.9,11.56 24.31,11.48 24.7,11.39 25.07,11.3 25.43,11.2 25.77,11.09 26.08,10.96 26.39,10.83 26.67,10.69 26.94,10.53 27.2,10.36" />
      </clipPath>
      <clipPath id="rightEyeClipPath">
        <polyline points="-27.84,1.82 -27.67,1.08 -27.48,0.32 -27.27,-0.44 -27.03,-1.21 -26.76,-1.98 -26.47,-2.74 -26.15,-3.49 -25.8,-4.24 -25.42,-4.97 -25.02,-5.68 -24.58,-6.38 -24.12,-7.05 -23.62,-7.71 -23.1,-8.33 -22.55,-8.93 -22.12,-9.92 -21.63,-10.86 -21.1,-11.73 -20.5,-12.55 -19.85,-13.29 -19.15,-13.98 -18.4,-14.59 -17.59,-15.13 -16.74,-15.61 -15.85,-16.01 -14.91,-16.35 -13.93,-16.62 -12.91,-16.82 -11.86,-16.96 -10.78,-17.03 -9.67,-17.05 -8.54,-17 -7.38,-16.89 -6.21,-16.73 -5.02,-16.51 -3.82,-16.25 -2.61,-15.94 -1.4,-15.58 -0.19,-15.18 1.03,-14.74 2.24,-14.27 3.44,-13.76 4.63,-13.22 5.81,-12.66 6.98,-12.07 8.12,-11.46 9.25,-10.83 10.36,-10.19 11.44,-9.53 12.5,-8.86 13.53,-8.19 14.53,-7.5 15.5,-6.82 16.45,-6.13 17.36,-5.45 18.24,-4.76 19.08,-4.09 19.9,-3.41 20.68,-2.75 21.43,-2.09 22.15,-1.44 22.83,-0.8 23.49,-0.18 24.11,0.44 24.71,1.04 25.28,1.63 25.82,2.21 26.33,2.79 26.82,3.35 27.27,3.89 27.71,4.43 28.11,4.96 28.49,5.47 28.84,5.97 29.16,6.46 29.46,6.93 29.74,7.4 29.99,7.85 30.22,8.29 29.69,12.92 29.26,13.07 28.82,13.21 28.36,13.35 27.88,13.49 27.39,13.62 26.87,13.74 26.33,13.85 25.78,13.97 25.2,14.07 24.6,14.17 23.99,14.26 23.35,14.35 22.7,14.44 22.02,14.51 21.33,14.58 20.61,14.65 19.87,14.71 19.11,14.76 18.33,14.81 17.53,14.86 16.7,14.9 15.85,14.93 14.98,14.96 14.09,14.98 13.18,15 12.25,15.01 11.3,15.01 10.33,15.01 9.35,15.01 8.36,15 7.35,14.99 6.33,14.97 5.29,14.95 4.25,14.92 3.2,14.89 2.15,14.86 1.09,14.82 0.03,14.78 -1.03,14.74 -2.08,14.7 -3.14,14.65 -4.18,14.61 -5.22,14.56 -6.25,14.51 -7.27,14.46 -8.27,14.41 -9.25,14.36 -10.22,14.31 -11.16,14.26 -12.08,14.21 -12.98,14.16 -13.85,14.11 -14.69,14.06 -15.51,14.02 -16.29,13.97 -17.04,13.92 -17.75,13.87 -18.43,13.83 -19.07,13.78 -19.68,13.73 -20.24,13.68 -20.77,13.63 -21.27,13.58 -21.72,13.52 -22.23,13.42 -22.73,13.31 -23.2,13.2 -23.65,13.07 -24.08,12.94 -24.5,12.79 -24.88,12.64 -25.25,12.47 -25.6,12.28 -25.93,12.08 -26.24,11.87 -26.53,11.64 -26.81,11.39 -27.06,11.12 -27.3,10.84" />
      </clipPath>
      <filter id="fuzzy">
        <feTurbulence id="turbulence" baseFrequency="0.05" numOctaves="3" type="noise" result="noise" />
        <feDisplacementMap in="SourceGraphic" in2="noise" scale="2" />
      </filter>
      <linearGradient id="rainbowGradient" x1="0%" y1="0%" x2="100%" y2="0%">
        <stop offset="0%" style="stop-color: rgb(1, 118, 190); stop-opacity: 1" />
        <stop offset="50%" style="stop-color: rgb(126, 125, 52); stop-opacity: 1" />
        <stop offset="100%" style="stop-color: rgb(192, 11, 110); stop-opacity: 1" />
      </linearGradient>
    </defs>
    <rect x="-100" y="-100" width="100%" height="100%" fill="rgb(166, 242, 228)" />
    <polyline id="faceContour" points="69.5,1.1 69.61,1.22 69.67,3.53 69.72,3.46 69.42,5.59 69.5,5.74 69.55,6.45 69.1,8.77 69.02,10.38 68.98,10.44 68.86,12.49 68.82,12.32 68.49,13.95 68.04,16.71 67.75,17.3 67.9,17.52 67.63,18.41 67.44,19.53 66.46,22.83 66.16,23.9 65.85,24.77 66.2,23.66 65.37,26.13 65.14,26.92 65.06,27.63 64.45,29.13 63.92,30.02 63.96,29.93 63.2,32.39 62.9,32.28 61.46,35.78 61.4,36.36 60.5,37.72 60.27,37.85 60.48,38.12 59.56,39.39 58.88,40.72 58.04,42.25 57.05,43.78 56.41,44.6 56.36,44.65 55.28,46.39 54.57,47.08 55.11,46.54 53.71,48.62 53.25,49.04 52,50.44 50.55,52.39 50.15,52.85 50.49,52.45 48.57,54.47 47.38,55.78 46.34,56.57 47.55,55.84 45.76,57.14 46.06,57.2 43.61,59.33 43.18,59.65 43.54,59.25 41.05,61.65 41.62,60.88 40.77,61.71 39.08,62.69 37.62,64.09 37.01,64.49 37.37,64.18 36.08,65.22 34.4,65.92 33.17,66.87 33.6,66.61 31.38,67.97 30.26,68.26 30.51,68.43 27.67,69.84 28.4,69.33 25.79,70.42 25.36,70.97 24.01,71.26 22.17,72.11 22.83,71.84 21.1,72.57 21.44,72.21 20.77,72.68 19.4,73.18 16.53,73.74 16.58,73.92 14.26,74.57 15.38,74.04 12.82,74.53 11.53,75.09 9.27,75.3 9.12,75.34 10.15,75.3 9.14,75.29 7.5,75.55 4.82,75.7 3.62,75.77 3.97,76.08 3.24,75.87 1.32,75.9 -0.49,75.98 -1.91,75.97 -1.43,76.11 -3.19,75.95 -4.24,75.78 -5.17,75.7 -5.63,75.7 -8.62,75.53 -8.47,75.57 -9.43,75.21 -9.49,75.29 -11.83,74.94 -13.01,74.79 -14.16,74.34 -13.99,74.57 -16.24,73.99 -16.55,73.74 -18.97,73.03 -18.09,73.48 -22.03,72.02 -21.43,72.44 -23.11,71.54 -24.18,71.33 -25.3,70.98 -26.18,70.43 -26.31,70.46 -26.76,70.29 -28.07,69.74 -30.18,68.61 -31.41,67.91 -31.94,67.49 -32.83,67.08 -35.09,65.8 -35.67,65.22 -37.01,64.29 -36.04,64.89 -37.18,64.54 -39.36,62.75 -39.67,62.29 -40.8,61.55 -40.2,62.09 -41.91,60.95 -42.49,60.12 -42.88,59.98 -45.05,57.77 -46.32,56.43 -45.41,57.53 -47.48,55.66 -46.57,56.39 -48.88,54.08 -50.06,52.96 -49.92,52.62 -49.95,53.01 -52.52,50.2 -52.49,49.84 -52.03,50.55 -54.54,47.33 -54.33,47.28 -55.46,45.67 -55.94,45.03 -57.03,43.41 -56.37,44.75 -57.95,41.63 -58.88,40.72 -58.6,40.6 -59.63,39.07 -60.18,38.19 -59.6,38.88 -60.98,36.68 -61.81,34.69 -62.01,34.32 -62.39,33.72 -62.68,32.99 -63.84,30.55 -64.05,29.97 -63.88,29.69 -64.67,28.33 -65.45,25.62 -65.7,24.67 -66.49,22.36 -66.47,22.22 -66.53,22.68 -66.11,23.24 -67.32,19.72 -67.31,19.58 -67.29,19.33 -68.18,15.83 -68.29,15.02 -68.34,13.86 -68.47,12.83 -68.62,12.71 -68.8,11.68 -68.91,9.53 -68.95,8.68 -69.34,7.22 -69.23,7.33 -69.5,5.97 -69.43,2.52 -69.47,1.77 -69.43,1.98 -69.47,-1.45 -69.56,-0.76 -69.62,-3.51 -69.58,-1.66 -69.33,-5.03 -69.35,-5.85 -69.07,-8.18 -69.05,-8.67 -68.89,-10.32 -68.84,-11.17 -68.5,-14.21 -68.42,-13.41 -68.37,-13.21 -68.18,-14.74 -68.11,-15.2 -67.66,-17.11 -67.42,-18.14 -66.81,-21.24 -67.14,-20.29 -66.55,-22.65 -65.84,-24.58 -65.71,-25.42 -65.26,-26.59 -65.5,-25.27 -65.15,-26.79 -64.09,-29.44 -63.25,-31.45 -63.4,-31.61 -62.45,-33.49 -62.71,-32.74 -61.33,-35.99 -61.06,-36.42 -61.23,-36.03 -59.94,-38.62 -59.52,-39 -60.07,-38.59 -58.89,-40.89 -58.82,-40.77 -57.11,-43.52 -56.98,-43.24 -56.4,-44.43 -55.27,-45.97 -55.05,-46.78 -54.88,-46.47 -53.56,-48.36 -53.51,-48.83 -51.78,-50.91 -51.36,-51.17 -50.79,-51.72 -49.77,-53.17 -48.38,-54.64 -47.75,-55.13 -46.7,-56.09 -47.05,-56.02 -45.49,-57.47 -44.8,-58.19 -44.05,-58.67 -44.29,-58.59 -43.67,-59.07 -41.4,-61.16 -41.09,-61.41 -40.22,-61.88 -38.13,-63.6 -38.43,-63.3 -38.35,-63.44 -36.94,-64.28 -35.23,-65.44 -34.22,-66.08 -32.53,-67.19 -32.12,-67.41 -31.91,-67.64 -29.78,-68.53 -29.75,-68.88 -28.99,-69.05 -28.91,-69.06 -26.67,-70.2 -24.79,-71.12 -25.54,-70.7 -22.6,-71.96 -22.44,-72.21 -21.54,-72.45 -19.4,-72.79 -20.04,-72.79 -18.99,-73.08 -17.26,-73.74 -15.95,-73.99 -16.01,-73.89 -14.35,-74.44 -13.71,-74.43 -12.64,-74.76 -9.88,-75.29 -11.44,-75 -9.42,-75.28 -7.63,-75.58 -5.94,-75.78 -5.8,-75.82 -4.31,-75.97 -4.58,-75.86 -2.51,-76.11 -1.91,-75.99 -0.52,-75.97 1.94,-75.83 2.64,-75.98 3.69,-76.06 4.48,-75.74 5.81,-75.73 7.61,-75.54 8.11,-75.54 8.84,-75.45 10.1,-75.08 11.66,-75.13 11.48,-74.9 14.49,-74.34 12.8,-74.8 15.1,-74.16 15.13,-74.12 17.36,-73.75 19.62,-72.79 19.59,-72.88 21.62,-72.16 21.7,-72.18 23.29,-71.82 23.52,-71.68 24.25,-71.32 25.83,-70.57 27.55,-69.76 27.34,-69.89 28.98,-69.15 28.82,-69.2 30.39,-68.3 30.64,-68.3 32.94,-66.88 33.71,-66.81 35.3,-65.56 35.93,-64.96 35.49,-65.36 36.27,-65.02 39.44,-62.65 39.67,-62.43 41.18,-61.27 40.94,-61.36 42.12,-60.72 43.22,-59.58 43.36,-59.64 43.84,-58.96 46.13,-57.21 44.65,-58.07 46.44,-56.9 46.72,-56.54 48.2,-54.97 48.13,-55.21 50.55,-52.21 49.67,-53.09 50.96,-51.65 52.49,-50.25 52.03,-50.47 53.83,-48.2 53.8,-48.18 54.85,-46.77 55.48,-46.03 56.17,-44.98 57.43,-43.23 57.7,-42.89 58.24,-41.6 58.85,-40.82 59.22,-40.34 60.34,-38.08 60.44,-37.72 61.34,-36.03 61.3,-35.8 62.3,-34.26 62.07,-34.56 63.27,-31.69 63.75,-30.72 64.47,-28.72 64.28,-29.33 64.82,-27.57 65.34,-26.4 65.71,-25.87 65.94,-24.33 65.91,-24.42 67.2,-20.38 67.22,-19.22 67.3,-19.09 67.88,-17.22 67.97,-17.09 67.75,-17.69 67.75,-17.1 68.41,-13.87 68.59,-12.59 68.63,-13.13 68.77,-10.48 69.21,-8.68 69.27,-6.9 69.17,-8.73 69.47,-5.93 69.41,-5.18 69.63,-3.56 69.59,-2.45 69.6,-1.15 69.5,1.1 69.61,1.22" fill="rgb(223, 32, 69)" stroke="black" stroke-width="1.6666666666666665" stroke-linejoin="round" filter="url(#fuzzy)" />
    <g transform="translate(27.72 -20.14)">
      <polyline id="rightCountour" points="-27.84,1.82 -27.67,1.08 -27.48,0.32 -27.27,-0.44 -27.03,-1.21 -26.76,-1.98 -26.47,-2.74 -26.15,-3.49 -25.8,-4.24 -25.42,-4.97 -25.02,-5.68 -24.58,-6.38 -24.12,-7.05 -23.62,-7.71 -23.1,-8.33 -22.55,-8.93 -22.12,-9.92 -21.63,-10.86 -21.1,-11.73 -20.5,-12.55 -19.85,-13.29 -19.15,-13.98 -18.4,-14.59 -17.59,-15.13 -16.74,-15.61 -15.85,-16.01 -14.91,-16.35 -13.93,-16.62 -12.91,-16.82 -11.86,-16.96 -10.78,-17.03 -9.67,-17.05 -8.54,-17 -7.38,-16.89 -6.21,-16.73 -5.02,-16.51 -3.82,-16.25 -2.61,-15.94 -1.4,-15.58 -0.19,-15.18 1.03,-14.74 2.24,-14.27 3.44,-13.76 4.63,-13.22 5.81,-12.66 6.98,-12.07 8.12,-11.46 9.25,-10.83 10.36,-10.19 11.44,-9.53 12.5,-8.86 13.53,-8.19 14.53,-7.5 15.5,-6.82 16.45,-6.13 17.36,-5.45 18.24,-4.76 19.08,-4.09 19.9,-3.41 20.68,-2.75 21.43,-2.09 22.15,-1.44 22.83,-0.8 23.49,-0.18 24.11,0.44 24.71,1.04 25.28,1.63 25.82,2.21 26.33,2.79 26.82,3.35 27.27,3.89 27.71,4.43 28.11,4.96 28.49,5.47 28.84,5.97 29.16,6.46 29.46,6.93 29.74,7.4 29.99,7.85 30.22,8.29 29.69,12.92 29.26,13.07 28.82,13.21 28.36,13.35 27.88,13.49 27.39,13.62 26.87,13.74 26.33,13.85 25.78,13.97 25.2,14.07 24.6,14.17 23.99,14.26 23.35,14.35 22.7,14.44 22.02,14.51 21.33,14.58 20.61,14.65 19.87,14.71 19.11,14.76 18.33,14.81 17.53,14.86 16.7,14.9 15.85,14.93 14.98,14.96 14.09,14.98 13.18,15 12.25,15.01 11.3,15.01 10.33,15.01 9.35,15.01 8.36,15 7.35,14.99 6.33,14.97 5.29,14.95 4.25,14.92 3.2,14.89 2.15,14.86 1.09,14.82 0.03,14.78 -1.03,14.74 -2.08,14.7 -3.14,14.65 -4.18,14.61 -5.22,14.56 -6.25,14.51 -7.27,14.46 -8.27,14.41 -9.25,14.36 -10.22,14.31 -11.16,14.26 -12.08,14.21 -12.98,14.16 -13.85,14.11 -14.69,14.06 -15.51,14.02 -16.29,13.97 -17.04,13.92 -17.75,13.87 -18.43,13.83 -19.07,13.78 -19.68,13.73 -20.24,13.68 -20.77,13.63 -21.27,13.58 -21.72,13.52 -22.23,13.42 -22.73,13.31 -23.2,13.2 -23.65,13.07 -24.08,12.94 -24.5,12.79 -24.88,12.64 -25.25,12.47 -25.6,12.28 -25.93,12.08 -26.24,11.87 -26.53,11.64 -26.81,11.39 -27.06,11.12 -27.3,10.84" fill="white" stroke="white" stroke-width="0" stroke-linejoin="round" filter="url(#fuzzy)" />
    </g>
    <g transform="translate(-46.29 -17.55)">
      <polyline id="leftCountour" points="27.99,3.63 27.84,3.05 27.66,2.45 27.46,1.84 27.23,1.22 26.98,0.59 26.69,-0.04 26.38,-0.67 26.03,-1.3 25.66,-1.92 25.25,-2.53 24.81,-3.14 24.34,-3.74 23.84,-4.32 23.31,-4.89 22.74,-5.44 22.32,-6.27 21.84,-7.07 21.3,-7.83 20.69,-8.56 20.03,-9.24 19.31,-9.88 18.53,-10.48 17.71,-11.03 16.82,-11.54 15.89,-11.99 14.92,-12.4 13.9,-12.76 12.84,-13.07 11.75,-13.33 10.62,-13.54 9.47,-13.71 8.28,-13.82 7.08,-13.89 5.86,-13.92 4.62,-13.9 3.37,-13.83 2.12,-13.72 0.86,-13.58 -0.4,-13.39 -1.66,-13.17 -2.91,-12.9 -4.16,-12.61 -5.39,-12.28 -6.6,-11.93 -7.8,-11.54 -8.98,-11.13 -10.13,-10.69 -11.26,-10.23 -12.37,-9.75 -13.44,-9.25 -14.49,-8.74 -15.5,-8.21 -16.48,-7.67 -17.43,-7.11 -18.34,-6.55 -19.21,-5.98 -20.06,-5.41 -20.86,-4.83 -21.63,-4.25 -22.37,-3.67 -23.07,-3.09 -23.73,-2.52 -24.37,-1.94 -24.97,-1.38 -25.54,-0.82 -26.08,-0.26 -26.6,0.3 -27.08,0.85 -27.53,1.39 -27.95,1.93 -28.34,2.47 -28.71,3 -29.05,3.52 -29.36,4.03 -29.64,4.54 -29.89,5.04 -30.13,5.53 -30.33,6.02 -30.51,6.49 -29.06,10.11 -28.61,10.38 -28.14,10.63 -27.65,10.88 -27.15,11.11 -26.62,11.34 -26.08,11.55 -25.52,11.76 -24.94,11.95 -24.34,12.14 -23.73,12.31 -23.09,12.47 -22.44,12.62 -21.77,12.77 -21.08,12.9 -20.37,13.02 -19.64,13.13 -18.89,13.24 -18.12,13.33 -17.33,13.41 -16.52,13.48 -15.69,13.55 -14.84,13.6 -13.97,13.64 -13.09,13.68 -12.18,13.7 -11.26,13.71 -10.33,13.72 -9.38,13.71 -8.41,13.7 -7.43,13.67 -6.45,13.64 -5.45,13.6 -4.45,13.56 -3.44,13.5 -2.42,13.45 -1.4,13.38 -0.38,13.31 0.64,13.24 1.66,13.17 2.68,13.09 3.69,13.01 4.69,12.92 5.68,12.84 6.67,12.76 7.64,12.67 8.59,12.59 9.53,12.51 10.45,12.44 11.36,12.36 12.24,12.29 13.09,12.23 13.93,12.17 14.73,12.11 15.51,12.06 16.26,12.02 16.98,11.98 17.67,11.95 18.33,11.92 18.95,11.9 19.54,11.89 20.1,11.88 20.63,11.88 21.12,11.88 21.57,11.89 22.08,11.83 22.56,11.77 23.03,11.7 23.47,11.63 23.9,11.56 24.31,11.48 24.7,11.39 25.07,11.3 25.43,11.2 25.77,11.09 26.08,10.96 26.39,10.83 26.67,10.69 26.94,10.53 27.2,10.36" fill="white" stroke="white" stroke-width="0" stroke-linejoin="round" filter="url(#fuzzy)" />
    </g>
    <g transform="translate(27.72 -20.14)">
      <polyline id="rightUpper" points="-28.62,7.49 -28.58,7.15 -28.54,6.75 -28.5,6.29 -28.45,5.77 -28.38,5.2 -28.31,4.58 -28.22,3.93 -28.11,3.25 -27.99,2.55 -27.84,1.82 -27.67,1.08 -27.48,0.32 -27.27,-0.44 -27.03,-1.21 -26.76,-1.98 -26.47,-2.74 -26.15,-3.49 -25.8,-4.24 -25.42,-4.97 -25.02,-5.68 -24.58,-6.38 -24.12,-7.05 -23.62,-7.71 -23.1,-8.33 -22.55,-8.93 -22.12,-9.92 -21.63,-10.86 -21.1,-11.73 -20.5,-12.55 -19.85,-13.29 -19.15,-13.98 -18.4,-14.59 -17.59,-15.13 -16.74,-15.61 -15.85,-16.01 -14.91,-16.35 -13.93,-16.62 -12.91,-16.82 -11.86,-16.96 -10.78,-17.03 -9.67,-17.05 -8.54,-17 -7.38,-16.89 -6.21,-16.73 -5.02,-16.51 -3.82,-16.25 -2.61,-15.94 -1.4,-15.58 -0.19,-15.18 1.03,-14.74 2.24,-14.27 3.44,-13.76 4.63,-13.22 5.81,-12.66 6.98,-12.07 8.12,-11.46 9.25,-10.83 10.36,-10.19 11.44,-9.53 12.5,-8.86 13.53,-8.19 14.53,-7.5 15.5,-6.82 16.45,-6.13 17.36,-5.45 18.24,-4.76 19.08,-4.09 19.9,-3.41 20.68,-2.75 21.43,-2.09 22.15,-1.44 22.83,-0.8 23.49,-0.18 24.11,0.44 24.71,1.04 25.28,1.63 25.82,2.21 26.33,2.79 26.82,3.35 27.27,3.89 27.71,4.43 28.11,4.96 28.49,5.47 28.84,5.97 29.16,6.46 29.46,6.93 29.74,7.4 29.99,7.85 30.22,8.29 30.43,8.71 30.61,9.13 30.78,9.53 30.92,9.92 31.04,10.3 31.14,10.67 31.22,11.03 31.28,11.38 31.33,11.71 31.36,12.04" fill="none" stroke="black" stroke-width="1.6666666666666665" stroke-linejoin="round" filter="url(#fuzzy)" />
      <polyline id="rightLower" points="-28.95,6.5 -28.83,7.08 -28.7,7.62 -28.56,8.13 -28.42,8.6 -28.26,9.04 -28.1,9.45 -27.92,9.84 -27.73,10.19 -27.52,10.53 -27.3,10.84 -27.06,11.12 -26.81,11.39 -26.53,11.64 -26.24,11.87 -25.93,12.08 -25.6,12.28 -25.25,12.47 -24.88,12.64 -24.5,12.79 -24.08,12.94 -23.65,13.07 -23.2,13.2 -22.73,13.31 -22.23,13.42 -21.72,13.52 -21.27,13.58 -20.77,13.63 -20.24,13.68 -19.68,13.73 -19.07,13.78 -18.43,13.83 -17.75,13.87 -17.04,13.92 -16.29,13.97 -15.51,14.02 -14.69,14.06 -13.85,14.11 -12.98,14.16 -12.08,14.21 -11.16,14.26 -10.22,14.31 -9.25,14.36 -8.27,14.41 -7.27,14.46 -6.25,14.51 -5.22,14.56 -4.18,14.61 -3.14,14.65 -2.08,14.7 -1.03,14.74 0.03,14.78 1.09,14.82 2.15,14.86 3.2,14.89 4.25,14.92 5.29,14.95 6.33,14.97 7.35,14.99 8.36,15 9.35,15.01 10.33,15.01 11.3,15.01 12.25,15.01 13.18,15 14.09,14.98 14.98,14.96 15.85,14.93 16.7,14.9 17.53,14.86 18.33,14.81 19.11,14.76 19.87,14.71 20.61,14.65 21.33,14.58 22.02,14.51 22.7,14.44 23.35,14.35 23.99,14.26 24.6,14.17 25.2,14.07 25.78,13.97 26.33,13.85 26.87,13.74 27.39,13.62 27.88,13.49 28.36,13.35 28.82,13.21 29.26,13.07 29.69,12.92 30.09,12.76 30.48,12.6 30.84,12.44 31.19,12.27 31.53,12.09 31.84,11.91 32.14,11.73 32.43,11.54 32.7,11.35 32.95,11.15" fill="none" stroke="black" stroke-width="2.2222222222222223" stroke-linejoin="round" filter="url(#fuzzy)" />
      <circle r="4.644" cx="14.708025773220406" cy="-3.4280628987285686" stroke="black" fill="none" stroke-width="1.0" filter="url(#fuzzy)" clip-path="url(#rightEyeClipPath)" /><circle r="3.882" cx="10.763025773220406" cy="-5.383062898728568" stroke="black" fill="none" stroke-width="1.0" filter="url(#fuzzy)" clip-path="url(#rightEyeClipPath)" /><circle r="4.314" cx="14.823025773220408" cy="-3.3130628987285684" stroke="black" fill="none" stroke-width="1.0" filter="url(#fuzzy)" clip-path="url(#rightEyeClipPath)" /><circle r="4.3580000000000005" cx="13.408025773220405" cy="-2.008062898728568" stroke="black" fill="none" stroke-width="1.0" filter="url(#fuzzy)" clip-path="url(#rightEyeClipPath)" /><circle r="3.4699999999999998" cx="12.963025773220405" cy="-6.653062898728568" stroke="black" fill="none" stroke-width="1.0" filter="url(#fuzzy)" clip-path="url(#rightEyeClipPath)" /><circle r="4.114" cx="12.318025773220405" cy="-3.2530628987285684" stroke="black" fill="none" stroke-width="1.0" filter="url(#fuzzy)" clip-path="url(#rightEyeClipPath)" /><circle r="4.62" cx="11.108025773220406" cy="-6.413062898728568" stroke="black" fill="none" stroke-width="1.0" filter="url(#fuzzy)" clip-path="url(#rightEyeClipPath)" /><circle r="4.5760000000000005" cx="11.718025773220406" cy="-5.353062898728568" stroke="black" fill="none" stroke-width="1.0" filter="url(#fuzzy)" clip-path="url(#rightEyeClipPath)" /><circle r="3.784" cx="11.053025773220407" cy="-2.1030628987285684" stroke="black" fill="none" stroke-width="1.0" filter="url(#fuzzy)" clip-path="url(#rightEyeClipPath)" /><circle r="4.748" cx="13.463025773220405" cy="-2.6530628987285683" stroke="black" fill="none" stroke-width="1.0" filter="url(#fuzzy)" clip-path="url(#rightEyeClipPath)" />
      </g>
    <g transform="translate(-46.29 -17.55)">
      <polyline id="leftUpper" points="28.55,7.86 28.53,7.63 28.52,7.35 28.5,7.02 28.47,6.64 28.43,6.22 28.37,5.76 28.31,5.27 28.22,4.75 28.11,4.2 27.99,3.63 27.84,3.05 27.66,2.45 27.46,1.84 27.23,1.22 26.98,0.59 26.69,-0.04 26.38,-0.67 26.03,-1.3 25.66,-1.92 25.25,-2.53 24.81,-3.14 24.34,-3.74 23.84,-4.32 23.31,-4.89 22.74,-5.44 22.32,-6.27 21.84,-7.07 21.3,-7.83 20.69,-8.56 20.03,-9.24 19.31,-9.88 18.53,-10.48 17.71,-11.03 16.82,-11.54 15.89,-11.99 14.92,-12.4 13.9,-12.76 12.84,-13.07 11.75,-13.33 10.62,-13.54 9.47,-13.71 8.28,-13.82 7.08,-13.89 5.86,-13.92 4.62,-13.9 3.37,-13.83 2.12,-13.72 0.86,-13.58 -0.4,-13.39 -1.66,-13.17 -2.91,-12.9 -4.16,-12.61 -5.39,-12.28 -6.6,-11.93 -7.8,-11.54 -8.98,-11.13 -10.13,-10.69 -11.26,-10.23 -12.37,-9.75 -13.44,-9.25 -14.49,-8.74 -15.5,-8.21 -16.48,-7.67 -17.43,-7.11 -18.34,-6.55 -19.21,-5.98 -20.06,-5.41 -20.86,-4.83 -21.63,-4.25 -22.37,-3.67 -23.07,-3.09 -23.73,-2.52 -24.37,-1.94 -24.97,-1.38 -25.54,-0.82 -26.08,-0.26 -26.6,0.3 -27.08,0.85 -27.53,1.39 -27.95,1.93 -28.34,2.47 -28.71,3 -29.05,3.52 -29.36,4.03 -29.64,4.54 -29.89,5.04 -30.13,5.53 -30.33,6.02 -30.51,6.49 -30.67,6.96 -30.8,7.42 -30.91,7.86 -31,8.3 -31.07,8.73 -31.12,9.15 -31.15,9.56 -31.16,9.97 -31.15,10.36 -31.13,10.74" fill="none" stroke="black" stroke-width="2.2222222222222223" stroke-linejoin="round" filter="url(#fuzzy)" />
      <polyline id="leftLower" points="29.07,7.45 28.92,7.86 28.77,8.24 28.61,8.59 28.44,8.91 28.26,9.21 28.07,9.48 27.87,9.73 27.66,9.96 27.44,10.16 27.2,10.36 26.94,10.53 26.67,10.69 26.39,10.83 26.08,10.96 25.77,11.09 25.43,11.2 25.07,11.3 24.7,11.39 24.31,11.48 23.9,11.56 23.47,11.63 23.03,11.7 22.56,11.77 22.08,11.83 21.57,11.89 21.12,11.88 20.63,11.88 20.1,11.88 19.54,11.89 18.95,11.9 18.33,11.92 17.67,11.95 16.98,11.98 16.26,12.02 15.51,12.06 14.73,12.11 13.93,12.17 13.09,12.23 12.24,12.29 11.36,12.36 10.45,12.44 9.53,12.51 8.59,12.59 7.64,12.67 6.67,12.76 5.68,12.84 4.69,12.92 3.69,13.01 2.68,13.09 1.66,13.17 0.64,13.24 -0.38,13.31 -1.4,13.38 -2.42,13.45 -3.44,13.5 -4.45,13.56 -5.45,13.6 -6.45,13.64 -7.43,13.67 -8.41,13.7 -9.38,13.71 -10.33,13.72 -11.26,13.71 -12.18,13.7 -13.09,13.68 -13.97,13.64 -14.84,13.6 -15.69,13.55 -16.52,13.48 -17.33,13.41 -18.12,13.33 -18.89,13.24 -19.64,13.13 -20.37,13.02 -21.08,12.9 -21.77,12.77 -22.44,12.62 -23.09,12.47 -23.73,12.31 -24.34,12.14 -24.94,11.95 -25.52,11.76 -26.08,11.55 -26.62,11.34 -27.15,11.11 -27.65,10.88 -28.14,10.63 -28.61,10.38 -29.06,10.11 -29.5,9.84 -29.91,9.56 -30.31,9.26 -30.69,8.96 -31.06,8.65 -31.41,8.34 -31.74,8.01 -32.05,7.68 -32.35,7.33 -32.64,6.99" fill="none" stroke="black" stroke-width="2.2222222222222223" stroke-linejoin="round" filter="url(#fuzzy)" />
      <circle r="3.7800000000000002" cx="17.715952196639186" cy="5.87196863623149" stroke="black" fill="none" stroke-width="1.0" filter="url(#fuzzy)" clip-path="url(#leftEyeClipPath)" /><circle r="4.968" cx="17.845952196639185" cy="2.19196863623149" stroke="black" fill="none" stroke-width="1.0" filter="url(#fuzzy)" clip-path="url(#leftEyeClipPath)" /><circle r="3.62" cx="18.360952196639186" cy="1.07696863623149" stroke="black" fill="none" stroke-width="1.0" filter="url(#fuzzy)" clip-path="url(#leftEyeClipPath)" /><circle r="4.366" cx="21.130952196639186" cy="1.2619686362314901" stroke="black" fill="none" stroke-width="1.0" filter="url(#fuzzy)" clip-path="url(#leftEyeClipPath)" /><circle r="3.972" cx="16.415952196639186" cy="5.11696863623149" stroke="black" fill="none" stroke-width="1.0" filter="url(#fuzzy)" clip-path="url(#leftEyeClipPath)" /><circle r="3.552" cx="20.270952196639186" cy="2.22696863623149" stroke="black" fill="none" stroke-width="1.0" filter="url(#fuzzy)" clip-path="url(#leftEyeClipPath)" /><circle r="4.228" cx="20.480952196639187" cy="5.97696863623149" stroke="black" fill="none" stroke-width="1.0" filter="url(#fuzzy)" clip-path="url(#leftEyeClipPath)" /><circle r="3.056" cx="19.025952196639185" cy="1.1919686362314903" stroke="black" fill="none" stroke-width="1.0" filter="url(#fuzzy)" clip-path="url(#leftEyeClipPath)" /><circle r="3.708" cx="18.435952196639185" cy="1.2169686362314902" stroke="black" fill="none" stroke-width="1.0" filter="url(#fuzzy)" clip-path="url(#leftEyeClipPath)" /><circle r="4.128" cx="20.350952196639184" cy="5.491968636231491" stroke="black" fill="none" stroke-width="1.0" filter="url(#fuzzy)" clip-path="url(#leftEyeClipPath)" />
    </g>
    <g id="hairs">
      <polyline points="3.69,-76.06 4.58,-75.83 5.51,-75.66 6.25,-75.48 6.71,-75.25 6.93,-74.96 6.9,-74.61 6.59,-74.18 5.99,-73.68 5.08,-73.1 3.88,-72.44 2.38,-71.7 0.58,-70.84 -1.55,-69.87 -4.06,-68.79 -7.01,-67.61 -10.43,-66.35 -14.32,-65.04 -18.67,-63.67 -23.5,-62.21 -28.82,-60.61 -34.61,-58.88 -40.85,-57.07" fill="none" stroke="rgb(41, 134, 19)" stroke-width="2" stroke-linejoin="round" filter="url(#fuzzy)" /><polyline points="11.48,-74.9 13.21,-74.55 14.32,-74.18 15.68,-73.65 17.4,-72.94 19.38,-72.09 21.45,-71.17 23.53,-70.22 25.55,-69.28 27.48,-68.35 29.34,-67.43 31.15,-66.52 32.91,-65.61 34.61,-64.7 36.21,-63.83 37.66,-63.06 38.91,-62.4 39.94,-61.88 40.67,-61.52" fill="none" stroke="rgb(41, 134, 19)" stroke-width="2" stroke-linejoin="round" filter="url(#fuzzy)" /><polyline points="61.3,-35.8 61.83,-34.78 61.94,-33.91 61.79,-33.08 61.29,-32.44 60.43,-32.1 59.17,-32.04 57.54,-32.24 55.53,-32.65 53.13,-33.24 50.34,-34.01 47.15,-34.96 43.53,-36.15 39.47,-37.64 34.94,-39.48 29.93,-41.69 24.42,-44.25 18.4,-47.1 11.85,-50.17 4.77,-53.42 -2.87,-56.87 -11.14,-60.56 -20.02,-64.53" fill="none" stroke="rgb(41, 134, 19)" stroke-width="2" stroke-linejoin="round" filter="url(#fuzzy)" /><polyline points="-34.22,-66.08 -33,-66.86 -32.15,-67.38 -31.33,-67.84 -30.54,-68.27 -29.78,-68.66 -29.04,-69.03 -28.31,-69.38 -27.61,-69.71 -26.98,-69.97 -26.5,-70.15 -26.22,-70.2 -26.17,-70.11 -26.38,-69.86 -26.85,-69.47 -27.57,-68.94 -28.54,-68.27 -29.78,-67.46 -31.34,-66.45 -33.28,-65.22 -35.64,-63.74 -38.37,-62.02 -41.31,-60.22" fill="none" stroke="rgb(41, 134, 19)" stroke-width="2" stroke-linejoin="round" filter="url(#fuzzy)" /><polyline points="-32.53,-67.19 -31.98,-67.48 -30.98,-67.94 -29.73,-68.49 -28.35,-69.07 -26.88,-69.67 -25.31,-70.29 -23.68,-70.95 -22.08,-71.6 -20.57,-72.2 -19.24,-72.73 -18.16,-73.15 -17.36,-73.46 -16.86,-73.65 -16.67,-73.75 -16.75,-73.78" fill="none" stroke="rgb(41, 134, 19)" stroke-width="2" stroke-linejoin="round" filter="url(#fuzzy)" /><polyline points="32.94,-66.88 33.7,-66.49 34.11,-65.94 34.04,-65.43 33.64,-64.9 32.97,-64.28 31.98,-63.58 30.55,-62.88 28.62,-62.22 26.12,-61.61 23.06,-61.03 19.43,-60.45 15.24,-59.86 10.5,-59.27 5.21,-58.68 -0.63,-58.12 -7.04,-57.55 -14.04,-56.96 -21.65,-56.32 -29.87,-55.69 -38.74,-55.1" fill="none" stroke="rgb(41, 134, 19)" stroke-width="2" stroke-linejoin="round" filter="url(#fuzzy)" /><polyline points="48.2,-54.97 48.71,-54.42 49.45,-53.51 50.1,-52.71 50.69,-52.01 51.19,-51.37 51.59,-50.81 51.85,-50.36 51.96,-50.04 51.89,-49.87 51.63,-49.87 51.16,-50.07 50.46,-50.47 49.51,-51.11 48.27,-52.02 46.71,-53.2 44.82,-54.68 42.59,-56.46 40.06,-58.53 37.24,-60.92 34.16,-63.61 30.84,-66.61" fill="none" stroke="rgb(41, 134, 19)" stroke-width="2" stroke-linejoin="round" filter="url(#fuzzy)" /><polyline points="27.55,-69.76 27.69,-69.66 27.88,-69.36 27.85,-68.99 27.56,-68.55 26.97,-68.06 26.01,-67.53 24.58,-67.02 22.61,-66.53 20.05,-66.06 16.92,-65.6 13.2,-65.1 8.88,-64.56 3.9,-63.99 -1.77,-63.45 -8.14,-63 -15.18,-62.65 -22.91,-62.32 -31.55,-61.88" fill="none" stroke="rgb(41, 134, 19)" stroke-width="2" stroke-linejoin="round" filter="url(#fuzzy)" /><polyline points="39.44,-62.65 39.96,-62.22 40.62,-61.7 41.26,-61.2 41.84,-60.74 42.35,-60.32 42.74,-59.96 43,-59.68 43.11,-59.52 43.03,-59.47 42.74,-59.56 42.24,-59.78 41.5,-60.14 40.52,-60.66 39.26,-61.36 37.69,-62.3 35.78,-63.5 33.46,-65 30.62,-66.87 27.23,-69.12" fill="none" stroke="rgb(41, 134, 19)" stroke-width="2" stroke-linejoin="round" filter="url(#fuzzy)" /><polyline points="43.36,-59.64 43.99,-58.87 44.25,-58.31 44.02,-57.98 43.43,-57.73 42.49,-57.51 41.15,-57.32 39.37,-57.21 37.08,-57.22 34.25,-57.39 30.87,-57.73 26.88,-58.24 22.26,-58.92 16.98,-59.75 10.99,-60.75 4.27,-61.9 -3.23,-63.22 -11.46,-64.74 -20.32,-66.57" fill="none" stroke="rgb(41, 134, 19)" stroke-width="2" stroke-linejoin="round" filter="url(#fuzzy)" /><polyline points="40.94,-61.36 41.92,-60.69 42.54,-60.12 42.93,-59.66 43.12,-59.27 43.13,-58.97 42.93,-58.74 42.54,-58.57 41.95,-58.45 41.13,-58.37 40.03,-58.37 38.65,-58.47 36.94,-58.7 34.9,-59.07 32.52,-59.6 29.78,-60.28 26.66,-61.11 23.11,-62.1 19.12,-63.27 14.69,-64.6 9.82,-66.13 4.5,-67.86 -1.33,-69.79 -7.7,-71.94" fill="none" stroke="rgb(41, 134, 19)" stroke-width="2" stroke-linejoin="round" filter="url(#fuzzy)" /><polyline points="-25.54,-70.7 -23.61,-71.56 -22.53,-71.99 -21.75,-72.22 -21.19,-72.32 -20.81,-72.33 -20.61,-72.26 -20.59,-72.09 -20.8,-71.79 -21.27,-71.35 -22.06,-70.73 -23.19,-69.92 -24.69,-68.9 -26.57,-67.69 -28.84,-66.29 -31.49,-64.71 -34.58,-62.9 -38.2,-60.81 -42.38,-58.43" fill="none" stroke="rgb(41, 134, 19)" stroke-width="2" stroke-linejoin="round" filter="url(#fuzzy)" /><polyline points="52.49,-50.25 52.59,-49.87 52.98,-49.17 53.24,-48.6 53.31,-48.19 53.15,-47.96 52.7,-47.95 51.94,-48.2 50.81,-48.73 49.3,-49.58 47.39,-50.75 45.07,-52.24 42.29,-54.09 38.98,-56.33 35.08,-59.04 30.54,-62.23 25.35,-65.92 19.55,-70.08" fill="none" stroke="rgb(41, 134, 19)" stroke-width="2" stroke-linejoin="round" filter="url(#fuzzy)" /><polyline points="-25.54,-70.7 -23.43,-71.56 -21.82,-72.01 -20.17,-72.28 -18.36,-72.49 -16.37,-72.67 -14.21,-72.84 -11.89,-73.02 -9.45,-73.19 -6.93,-73.34 -4.37,-73.46 -1.78,-73.57 0.78,-73.67 3.27,-73.76 5.59,-73.85 7.7,-73.98 9.54,-74.13 11.08,-74.31 12.28,-74.5" fill="none" stroke="rgb(41, 134, 19)" stroke-width="2" stroke-linejoin="round" filter="url(#fuzzy)" /><polyline points="-31.91,-67.64 -30.27,-68.21 -28.74,-68.39 -26.79,-68.37 -24.28,-68.25 -21.23,-68.06 -17.73,-67.77 -13.89,-67.35 -9.75,-66.79 -5.35,-66.1 -0.73,-65.29 4.1,-64.36 9.13,-63.35 14.34,-62.28 19.72,-61.16 25.24,-59.99 30.86,-58.79 36.54,-57.6 42.23,-56.46" fill="none" stroke="rgb(41, 134, 19)" stroke-width="2" stroke-linejoin="round" filter="url(#fuzzy)" /><polyline points="57.7,-42.89 57.87,-41.99 57.36,-41.5 56.12,-41.27 54.1,-41.31 51.22,-41.71 47.45,-42.5 42.75,-43.69 37.08,-45.24 30.43,-47.13 22.77,-49.37 14.08,-52.02 4.37,-55.19 -6.37,-58.94 -18.29,-63.18" fill="none" stroke="rgb(41, 134, 19)" stroke-width="2" stroke-linejoin="round" filter="url(#fuzzy)" /><polyline points="57.43,-43.23 57.64,-42.71 57.67,-42.12 57.45,-41.61 56.92,-41.21 56.04,-40.97 54.74,-40.93 53.03,-41.13 50.89,-41.56 48.3,-42.21 45.27,-43.08 41.77,-44.16 37.77,-45.5 33.25,-47.13 28.19,-49.09 22.56,-51.37 16.39,-53.97 9.67,-56.89 2.38,-60.14 -5.49,-63.72 -13.91,-67.63" fill="none" stroke="rgb(41, 134, 19)" stroke-width="2" stroke-linejoin="round" filter="url(#fuzzy)" /><polyline points="56.17,-44.98 57.07,-43.7 57.68,-42.74 58.2,-41.86 58.68,-41.05 59.08,-40.32 59.37,-39.74 59.49,-39.41 59.41,-39.4 59.09,-39.76 58.53,-40.52 57.71,-41.69 56.62,-43.29 55.22,-45.38 53.45,-48.07" fill="none" stroke="rgb(41, 134, 19)" stroke-width="2" stroke-linejoin="round" filter="url(#fuzzy)" /><polyline points="60.44,-37.72 60.92,-36.62 60.96,-36.07 60.69,-35.77 60.1,-35.63 59.18,-35.71 57.86,-36.11 56.11,-36.92 53.89,-38.18 51.17,-39.88 47.95,-42 44.22,-44.54 39.95,-47.5 35.12,-50.87 29.67,-54.72 23.61,-59.1 16.94,-64.11 9.7,-69.72" fill="none" stroke="rgb(41, 134, 19)" stroke-width="2" stroke-linejoin="round" filter="url(#fuzzy)" /><polyline points="10.1,-75.08 11.22,-75.02 12.15,-74.85 13,-74.66 13.81,-74.48 14.64,-74.27 15.49,-74.03 16.32,-73.78 17.02,-73.55 17.51,-73.35 17.73,-73.2 17.67,-73.12 17.3,-73.08 16.64,-73.09 15.67,-73.14 14.37,-73.22 12.69,-73.36 10.59,-73.58 8.05,-73.88 5.13,-74.27 1.87,-74.72 -1.69,-75.25" fill="none" stroke="rgb(41, 134, 19)" stroke-width="2" stroke-linejoin="round" filter="url(#fuzzy)" /><polyline points="-4.58,-75.86 -2.87,-75.91 -1.16,-75.68 0.81,-75.29 2.96,-74.77 5.23,-74.13 7.58,-73.39 10.02,-72.55 12.57,-71.62 15.18,-70.62 17.85,-69.57 20.55,-68.48 23.26,-67.36 25.96,-66.23 28.62,-65.1 31.21,-64.02 33.71,-62.98 36.11,-61.99 38.43,-61.03 40.71,-60.04 43.08,-58.91" fill="none" stroke="rgb(41, 134, 19)" stroke-width="2" stroke-linejoin="round" filter="url(#fuzzy)" /><polyline points="-32.53,-67.19 -31.93,-67.43 -30.81,-67.77 -29.35,-68.11 -27.63,-68.41 -25.66,-68.68 -23.41,-68.96 -20.9,-69.26 -18.2,-69.55 -15.36,-69.82 -12.42,-70.06 -9.43,-70.24 -6.4,-70.38 -3.35,-70.48 -0.32,-70.57 2.69,-70.65 5.68,-70.73 8.65,-70.8 11.6,-70.85 14.53,-70.86 17.39,-70.86 20.1,-70.88 22.47,-71.01" fill="none" stroke="rgb(41, 134, 19)" stroke-width="2" stroke-linejoin="round" filter="url(#fuzzy)" /><polyline points="53.83,-48.2 54.11,-47.79 54.67,-47.02 55.26,-46.19 55.79,-45.39 56.21,-44.7 56.48,-44.14 56.6,-43.73 56.57,-43.47 56.37,-43.37 55.98,-43.46 55.38,-43.76 54.56,-44.3 53.52,-45.1 52.24,-46.14 50.73,-47.43 48.96,-48.99 46.87,-50.87 44.44,-53.1 41.65,-55.73 38.54,-58.73 35.19,-62.06 31.58,-65.74" fill="none" stroke="rgb(41, 134, 19)" stroke-width="2" stroke-linejoin="round" filter="url(#fuzzy)" /><polyline points="19.62,-72.79 20.01,-72.64 20.5,-72.32 20.72,-71.94 20.61,-71.49 20.19,-70.94 19.46,-70.28 18.4,-69.52 16.96,-68.7 15.1,-67.82 12.79,-66.86 10.05,-65.82 6.86,-64.66 3.21,-63.38 -0.92,-61.96 -5.6,-60.4 -10.87,-58.74 -16.76,-56.97 -23.27,-55.08 -30.37,-53.03 -38.05,-50.8 -46.3,-48.54" fill="none" stroke="rgb(41, 134, 19)" stroke-width="2" stroke-linejoin="round" filter="url(#fuzzy)" /><polyline points="62.3,-34.26 62.44,-33.75 62.79,-32.72 62.99,-31.92 62.94,-31.57 62.63,-31.64 62.08,-32.11 61.28,-32.93 60.22,-34.13 58.87,-35.72 57.2,-37.74 55.2,-40.24 52.84,-43.33 50.07,-47.1 46.9,-51.6 43.31,-56.83" fill="none" stroke="rgb(41, 134, 19)" stroke-width="2" stroke-linejoin="round" filter="url(#fuzzy)" /><polyline points="50.96,-51.65 51.93,-50.67 52.61,-49.81 53.26,-48.93 53.9,-48.06 54.5,-47.25 55.04,-46.49 55.48,-45.84 55.79,-45.32 55.96,-44.96 55.95,-44.8 55.78,-44.82 55.43,-45.04 54.9,-45.46 54.19,-46.11 53.27,-47.02 52.13,-48.22 50.75,-49.73 49.13,-51.54 47.26,-53.65 45.13,-56.07 42.71,-58.89" fill="none" stroke="rgb(41, 134, 19)" stroke-width="2" stroke-linejoin="round" filter="url(#fuzzy)" /><polyline points="-38.35,-63.44 -36.9,-64.33 -35.36,-65.28 -33.86,-66.19 -32.47,-67.01 -31.2,-67.73 -30.02,-68.37 -28.96,-68.93 -28.03,-69.43 -27.25,-69.83 -26.66,-70.15 -26.28,-70.35 -26.2,-70.39 -26.53,-70.24 -27.3,-69.88 -28.39,-69.4" fill="none" stroke="rgb(41, 134, 19)" stroke-width="2" stroke-linejoin="round" filter="url(#fuzzy)" /><polyline points="-5.8,-75.82 -4.71,-75.89 -3.62,-75.88 -2.28,-75.84 -0.7,-75.75 1,-75.63 2.74,-75.5 4.45,-75.36 6.08,-75.21 7.63,-75.05 9.09,-74.88 10.43,-74.71 11.64,-74.56 12.68,-74.42 13.5,-74.32 14.07,-74.26 14.38,-74.25 14.43,-74.29 14.25,-74.37 13.89,-74.47 13.35,-74.59 12.53,-74.79" fill="none" stroke="rgb(41, 134, 19)" stroke-width="2" stroke-linejoin="round" filter="url(#fuzzy)" /><polyline points="58.24,-41.6 58.79,-40.83 59.35,-39.87 59.89,-38.86 60.36,-37.91 60.74,-37.1 61.04,-36.41 61.27,-35.83 61.42,-35.35 61.46,-34.99 61.38,-34.82 61.16,-34.87 60.76,-35.2 60.19,-35.81 59.44,-36.71 58.5,-37.89 57.36,-39.36 56.02,-41.12 54.47,-43.18 52.74,-45.57 50.81,-48.34 48.66,-51.55 46.16,-55.32" fill="none" stroke="rgb(41, 134, 19)" stroke-width="2" stroke-linejoin="round" filter="url(#fuzzy)" /><polyline points="35.93,-64.96 36.03,-64.98 36.85,-64.43 37.77,-63.71 38.45,-63.11 38.78,-62.7 38.77,-62.48 38.46,-62.41 37.88,-62.47 37.01,-62.66 35.83,-62.99 34.31,-63.47 32.44,-64.1 30.19,-64.9 27.54,-65.86 24.47,-66.98 20.93,-68.29 16.89,-69.82 12.34,-71.61 7.34,-73.64" fill="none" stroke="rgb(41, 134, 19)" stroke-width="2" stroke-linejoin="round" filter="url(#fuzzy)" /><polyline points="1.94,-75.83 2.58,-75.88 3.09,-75.76 3.4,-75.48 3.45,-75.09 3.13,-74.59 2.36,-73.97 1.12,-73.19 -0.6,-72.27 -2.82,-71.19 -5.56,-69.96 -8.84,-68.59 -12.7,-67.05 -17.15,-65.33 -22.17,-63.4 -27.8,-61.26 -34.14,-58.92 -41.38,-56.3" fill="none" stroke="rgb(41, 134, 19)" stroke-width="2" stroke-linejoin="round" filter="url(#fuzzy)" /><polyline points="14.49,-74.34 14.06,-74.45 14.8,-74.25 15.96,-73.94 17.25,-73.57 18.49,-73.2 19.56,-72.87 20.43,-72.59 21.08,-72.38 21.52,-72.22 21.78,-72.09 21.87,-71.99 21.77,-71.92 21.45,-71.91 20.86,-71.98 19.98,-72.13 18.77,-72.38 17.24,-72.7 15.39,-73.11 13.15,-73.61 10.45,-74.23 7.24,-75.01" fill="none" stroke="rgb(41, 134, 19)" stroke-width="2" stroke-linejoin="round" filter="url(#fuzzy)" /><polyline points="11.48,-74.9 13.15,-74.6 14.07,-74.39 15.14,-74.1 16.44,-73.71 17.86,-73.28 19.28,-72.84 20.59,-72.42 21.75,-72.05 22.75,-71.72 23.6,-71.43 24.31,-71.19 24.87,-70.98 25.25,-70.82 25.44,-70.74 25.4,-70.73 25.11,-70.81 24.56,-70.98 23.71,-71.26 22.51,-71.66 20.84,-72.25 18.48,-73.08" fill="none" stroke="rgb(41, 134, 19)" stroke-width="2" stroke-linejoin="round" filter="url(#fuzzy)" /><polyline points="-32.12,-67.41 -31.43,-67.81 -30.51,-68.29 -29.68,-68.72 -28.86,-69.13 -28.01,-69.54 -27.14,-69.95 -26.31,-70.33 -25.6,-70.64 -25.05,-70.85 -24.71,-70.94 -24.61,-70.89 -24.78,-70.7 -25.25,-70.34 -26.03,-69.82 -27.14,-69.13 -28.56,-68.28 -30.29,-67.3 -32.3,-66.18 -34.66,-64.88 -37.59,-63.27" fill="none" stroke="rgb(41, 134, 19)" stroke-width="2" stroke-linejoin="round" filter="url(#fuzzy)" /><polyline points="19.62,-72.79 20.08,-72.67 20.8,-72.44 21.38,-72.23 21.77,-72.03 21.97,-71.82 21.98,-71.6 21.77,-71.39 21.27,-71.21 20.44,-71.09 19.24,-71.02 17.64,-71 15.66,-71.03 13.3,-71.08 10.52,-71.18 7.26,-71.34 3.46,-71.58 -0.93,-71.94 -5.86,-72.43 -11.25,-73.06" fill="none" stroke="rgb(41, 134, 19)" stroke-width="2" stroke-linejoin="round" filter="url(#fuzzy)" /><polyline points="-36.94,-64.28 -35.39,-65.25 -33.87,-66.07 -32.35,-66.76 -30.79,-67.36 -29.14,-67.9 -27.4,-68.41 -25.55,-68.91 -23.58,-69.43 -21.51,-69.96 -19.35,-70.52 -17.13,-71.09 -14.91,-71.65 -12.7,-72.18 -10.53,-72.68 -8.44,-73.12 -6.45,-73.53 -4.58,-73.91 -2.83,-74.26 -1.23,-74.6 0.22,-74.91 1.45,-75.2 2.4,-75.46 3.08,-75.72" fill="none" stroke="rgb(41, 134, 19)" stroke-width="2" stroke-linejoin="round" filter="url(#fuzzy)" /><polyline points="25.83,-70.57 26.88,-70.05 27.37,-69.72 27.62,-69.39 27.71,-69.03 27.63,-68.62 27.37,-68.17 26.84,-67.69 25.98,-67.21 24.74,-66.75 23.1,-66.32 21.08,-65.91 18.69,-65.5 15.91,-65.09 12.71,-64.69 9,-64.32 4.75,-63.97 -0.07,-63.63 -5.48,-63.3 -11.41,-62.99 -17.8,-62.73 -24.56,-62.59 -31.82,-62.49" fill="none" stroke="rgb(41, 134, 19)" stroke-width="2" stroke-linejoin="round" filter="url(#fuzzy)" /><polyline points="62.3,-34.26 62.42,-33.78 62.71,-32.82 62.82,-32.14 62.64,-31.95 62.16,-32.24 61.38,-32.99 60.3,-34.17 58.89,-35.8 57.13,-37.9 54.99,-40.5 52.41,-43.69 49.28,-47.66 45.42,-52.6 40.72,-58.62" fill="none" stroke="rgb(41, 134, 19)" stroke-width="2" stroke-linejoin="round" filter="url(#fuzzy)" /><polyline points="52.49,-50.25 52.63,-49.83 53.16,-49.03 53.65,-48.29 54.04,-47.65 54.3,-47.13 54.4,-46.73 54.31,-46.51 53.98,-46.5 53.39,-46.71 52.52,-47.16 51.39,-47.85 49.98,-48.8 48.28,-50.01 46.28,-51.53 43.95,-53.39 41.25,-55.59 38.16,-58.16 34.68,-61.09 30.84,-64.37 26.63,-68.03" fill="none" stroke="rgb(41, 134, 19)" stroke-width="2" stroke-linejoin="round" filter="url(#fuzzy)" /><polyline points="-9.42,-75.28 -7.73,-75.5 -6.14,-75.58 -4.57,-75.58 -2.9,-75.5 -1.08,-75.39 0.91,-75.24 3.05,-75.07 5.25,-74.88 7.42,-74.68 9.46,-74.48 11.26,-74.3 12.76,-74.16 13.88,-74.09 14.55,-74.11 14.77,-74.18" fill="none" stroke="rgb(41, 134, 19)" stroke-width="2" stroke-linejoin="round" filter="url(#fuzzy)" /><polyline points="27.55,-69.76 27.83,-69.65 28.45,-69.35 29.15,-68.99 29.89,-68.59 30.63,-68.16 31.3,-67.74 31.8,-67.37 32.08,-67.08 32.13,-66.88 31.97,-66.74 31.61,-66.67 31.03,-66.67 30.2,-66.78 29.06,-67.01 27.56,-67.4 25.7,-67.94 23.45,-68.64 20.81,-69.49 17.77,-70.48 14.33,-71.62 10.51,-72.93 6.35,-74.36" fill="none" stroke="rgb(41, 134, 19)" stroke-width="2" stroke-linejoin="round" filter="url(#fuzzy)" /><polyline points="8.84,-75.45 9.92,-75.19 10.61,-74.93 10.92,-74.62 10.86,-74.23 10.48,-73.76 9.8,-73.18 8.84,-72.46 7.54,-71.62 5.82,-70.65 3.62,-69.59 0.88,-68.46 -2.41,-67.24 -6.27,-65.93 -10.7,-64.5 -15.68,-62.91 -21.25,-61.17 -27.45,-59.26 -34.4,-57.12 -42.19,-54.65" fill="none" stroke="rgb(41, 134, 19)" stroke-width="2" stroke-linejoin="round" filter="url(#fuzzy)" /><polyline points="-38.35,-63.44 7.78,-53.46 20.9,-52.3 30.25,-50.96 34.7,-50.44 33.28,-51.61 27.52,-54.18 19.52,-57.47 11.5,-60.73 5.83,-63.2 4.09,-64.34 5.86,-64.1 8.56,-62.96 9,-61.76 5.87,-61.17 1.08,-61.36 -2.01,-62.17 -3.01,-63.74 -6.99,-66.46 -16.96,-69.77 -15.95,-73.99" fill="none" stroke="rgb(41, 134, 19)" stroke-width="2" stroke-linejoin="round" filter="url(#fuzzy)" /><polyline points="32.94,-66.88 4.6,-70.14 -7.14,-69.59 -7.47,-68.62 -3.41,-68.11 0.38,-68.18 2.21,-68.35 2.48,-68.1 2.16,-67.4 1.74,-66.71 1.18,-66.56 0.18,-67.11 -1.3,-68 -2.92,-68.53 -3.84,-68 -2.85,-66 1.34,-62.62 9.35,-58.54 19.93,-55.04 28.75,-53.72 29.24,-55.92 16.82,-61.63 -3.67,-68.84 -5.94,-75.78" fill="none" stroke="rgb(41, 134, 19)" stroke-width="2" stroke-linejoin="round" filter="url(#fuzzy)" /><polyline points="19.59,-72.88 13.99,-67.69 21.21,-60.26 22.48,-55.59 20.6,-53.66 17.44,-54.02 12.94,-56.18 7.75,-59.4 3.35,-62.78 0.74,-65.56 -0.23,-67.23 -0.39,-67.7 0.04,-67.17 2.23,-65.95 7.91,-64.16 16.71,-61.69 23.36,-58.99 17.71,-57.96 -8.9,-59.94 -47.75,-55.13" fill="none" stroke="rgb(41, 134, 19)" stroke-width="2" stroke-linejoin="round" filter="url(#fuzzy)" /><polyline points="50.96,-51.65 18.1,-61.32 18.18,-63.07 17.94,-63.38 17.42,-62.28 20.81,-59.43 26.65,-56.2 30.1,-54.48 28.22,-54.95 22.46,-56.88 16.94,-59.22 14.38,-61.63 13.53,-64.09 11.06,-65.56 2.96,-64.66 -35.23,-65.44" fill="none" stroke="rgb(41, 134, 19)" stroke-width="2" stroke-linejoin="round" filter="url(#fuzzy)" /><polyline points="39.67,-62.43 43.32,-56.58 35.78,-61.55 28.38,-65.09 22.57,-64.94 17.68,-62.52 14.01,-59.93 12.45,-58.4 12.82,-58.19 13.44,-59.05 12.31,-60.58 8.74,-62.33 3.97,-63.8 0.47,-64.59 0.37,-64.61 4.21,-64.13 10.51,-63.64 16.55,-63.51 19.65,-63.8 18.58,-64.24 14.57,-64.18 11.1,-62.55 7,-59.66 -32.53,-67.19" fill="none" stroke="rgb(41, 134, 19)" stroke-width="2" stroke-linejoin="round" filter="url(#fuzzy)" /><polyline points="-1.91,-75.99 -6.21,-60.4 8.4,-57.81 11.17,-61.12 5.01,-64.7 -2.83,-66.93 -7.9,-67.82 -8.16,-67.47 -3.09,-65.95 6,-63.85 15.75,-62.38 22.26,-62.66 24.18,-64.35 25.01,-64.72 31.52,-59.51 47.72,-46.25 63.75,-30.72" fill="none" stroke="rgb(41, 134, 19)" stroke-width="2" stroke-linejoin="round" filter="url(#fuzzy)" /><polyline points="2.64,-75.98 -7.82,-70.36 -14.19,-66.25 -8.52,-65.39 -0.96,-65.26 1.36,-64.84 -0.88,-64.09 -2.89,-63.3 -1.04,-62.93 4.66,-63.24 11.74,-63.9 17.88,-64.07 22.17,-63.27 24.72,-62.32 26.4,-62.86 30.17,-64.75 33.71,-66.81" fill="none" stroke="rgb(41, 134, 19)" stroke-width="2" stroke-linejoin="round" filter="url(#fuzzy)" /><polyline points="17.36,-73.75 12.79,-65.78 11.19,-59.58 9.62,-59.28 13.25,-60.17 20.41,-59.89 27.37,-58.63 31.82,-57.48 33.05,-57.36 31.14,-58.53 26.41,-60.69 19.55,-63.2 11.79,-65.34 4.71,-66.58 -0.26,-66.65 -2.45,-65.53 -2.27,-63.42 -0.83,-60.7 1.08,-57.86 4.18,-55.33 10.32,-53.32 19.08,-52.1 22.26,-53.13 3.73,-58.51 -44.05,-58.67" fill="none" stroke="rgb(41, 134, 19)" stroke-width="2" stroke-linejoin="round" filter="url(#fuzzy)" /><polyline points="-34.22,-66.08 -21.91,-55.85 -9.88,-52.53 -7,-53.52 -3.23,-53.79 3.84,-52.27 9.96,-50.88 11.08,-51.46 7.72,-54.05 4.22,-57.21 4.62,-59.42 8.85,-60.29 12.27,-60.93 8.92,-62.7 -2.58,-65.18 -12.09,-66.74 11.48,-74.9" fill="none" stroke="rgb(41, 134, 19)" stroke-width="2" stroke-linejoin="round" filter="url(#fuzzy)" /><polyline points="25.83,-70.57 31.9,-56.45 29.61,-55.49 33.74,-54.05 36.63,-52.21 32.78,-51.75 22.62,-53.13 10.82,-55.39 2.9,-56.98 2.14,-56.78 7.91,-54.77 16.15,-52.02 21.7,-50.07 21.39,-49.85 16.33,-51 11.38,-52.02 11.13,-51.49 13.71,-49.79 8.12,-49.86 -14.63,-55.98 -25.54,-70.7" fill="none" stroke="rgb(41, 134, 19)" stroke-width="2" stroke-linejoin="round" filter="url(#fuzzy)" /><polyline points="-9.88,-75.29 -16.17,-71.53 -7.95,-68.62 0.19,-64.96 4.08,-61.35 5.05,-58.6 5.39,-56.81 5.9,-55.84 5.98,-55.68 5.06,-56.36 3.7,-57.64 3.31,-59.05 5.07,-60.19 9.08,-61.04 14.26,-61.95 19.01,-63.18 21.9,-64.63 22.06,-65.73 19.08,-65.74 13.49,-63.79 8.68,-58.76 13.39,-49.44 37.68,-36.92 64.28,-29.33" fill="none" stroke="rgb(41, 134, 19)" stroke-width="2" stroke-linejoin="round" filter="url(#fuzzy)" /><polyline points="43.22,-59.58 41.37,-57.87 26.5,-63.39 12.59,-67.76 5.05,-69.45 3.2,-69.21 4.72,-67.93 7.88,-66.03 11.65,-63.73 15.05,-61.46 17.07,-59.89 17.24,-59.48 15.98,-60.16 14.37,-61.36 13.28,-62.42 12.77,-62.96 12.2,-63.07 11.14,-62.99 10.17,-62.96 10.63,-62.99 13.33,-62.95 17.63,-62.28 22.52,-60.01 26.06,-57.83 4.48,-75.74" fill="none" stroke="rgb(41, 134, 19)" stroke-width="2" stroke-linejoin="round" filter="url(#fuzzy)" /><polyline points="-38.43,-63.3 -39.49,-56.01 -26.53,-52.55 -13.15,-53.12 -2.9,-55.92 5.38,-59.01 11.97,-61.34 15.76,-62.79 15.75,-63.72 12.25,-64.46 6.91,-65.17 2,-65.82 -0.5,-66.22 0.42,-66.16 4.56,-65.57 10.44,-64.73 15.69,-64.26 17.9,-64.81 16,-66.55 11.12,-68.96 6.05,-70.96 2.92,-71.59 1.73,-70.35 5.74,-66.78 42.12,-60.72" fill="none" stroke="rgb(41, 134, 19)" stroke-width="2" stroke-linejoin="round" filter="url(#fuzzy)" /><polyline points="-0.52,-75.97 -1.61,-73.87 -2.62,-73.55 -3.53,-73.26 -4.39,-72.92 -5.29,-72.74 -6.25,-72.71 -7.28,-72.7 -8.32,-72.53 -9.33,-72.13 -10.29,-71.56 -11.2,-70.9 -12.09,-70.22 -12.95,-69.56 -13.79,-68.92 -14.61,-68.28 -15.42,-67.67 -16.22,-67.1 -17.01,-66.58 -17.75,-66.06 -18.44,-65.43 -19.1,-64.64 -19.79,-63.74 -20.7,-62.86 -22.4,-61.99 -1.91,-75.99 -0.31,-87.3 1.31,-89.6 2.69,-88.74 3.92,-87.4 5.1,-86.29 6.26,-85.4 7.41,-84.68 8.55,-84.21 9.72,-84.15 10.95,-84.6 12.22,-85.51 13.5,-86.64 14.76,-87.71 15.97,-88.54 17.22,-89.22 18.64,-90.06 20.4,-91.41 22.49,-93.2 24.67,-94.89 26.7,-96.03 29.12,-97.18 12.56,-73.42 12.87,-73.37 12.13,-73.59 11.19,-73.9 10.23,-74.19 9.26,-74.44 8.29,-74.64 7.29,-74.82 6.26,-74.97 5.21,-75.1 4.13,-75.21 3.01,-75.29 1.85,-75.35 0.65,-75.41 -0.57,-75.47 -1.77,-75.55 -2.89,-75.62 -3.89,-75.68 -4.78,-75.71 -5.59,-75.72 -6.44,-75.69 -7.63,-75.58 -37.68,-87.24 -36.02,-85.53 -34.64,-85.36 -32.92,-84.96 -31.01,-84.11 -29.12,-83.02 -27.34,-81.91 -25.69,-80.91 -24.2,-80.07 -22.85,-79.39 -21.6,-78.86 -20.42,-78.44 -19.26,-78.09 -18.12,-77.82 -17.01,-77.64 -15.92,-77.57 -14.84,-77.57 -13.73,-77.58 -12.6,-77.48 -11.55,-77.12 -10.64,-76.21 -9.42,-75.28" fill="none" stroke="rgb(41, 134, 19)" stroke-width="2" stroke-linejoin="round" filter="url(#fuzzy)" /><polyline points="68.59,-12.59 68.81,-14.32 69.17,-15.96 69.47,-17.06 69.8,-17.84 70.24,-18.63 70.81,-19.64 71.48,-20.95 72.18,-22.53 72.81,-24.28 73.29,-26.02 73.52,-27.6 73.5,-28.98 73.46,-30.27 73.81,-31.69 74.75,-33.15 75.25,-33.52" fill="none" stroke="rgb(41, 134, 19)" stroke-width="2" stroke-linejoin="round" filter="url(#fuzzy)" /><polyline points="-31.51,-66.12 -30.91,-66.63 -30.06,-67.12 -29.31,-67.57 -28.56,-68.06 -27.73,-68.61 -26.79,-69.19 -25.78,-69.76 -24.73,-70.29 -23.7,-70.78 -22.69,-71.23 -21.73,-71.65 -20.81,-72.05 -19.92,-72.43 -19.04,-72.8 -18.14,-73.15 -17.22,-73.49 -16.29,-73.79 -15.38,-74.06 -14.48,-74.29 -13.58,-74.51 -12.64,-74.76" fill="none" stroke="rgb(41, 134, 19)" stroke-width="2" stroke-linejoin="round" filter="url(#fuzzy)" /><polyline points="13.78,-89.96 13.18,-89.07 12.03,-88.32 10.75,-87.16 9.46,-85.91 8.18,-84.93 6.93,-84.31 5.68,-84.01 4.43,-83.89 3.16,-83.83 1.86,-83.74 0.55,-83.56 -0.76,-83.25 -2.01,-82.79 -3.19,-82.22 -4.29,-81.65 -5.35,-81.21 -6.43,-80.97 -7.56,-80.87 -8.74,-80.76 -9.9,-80.37 -10.9,-79.41 -11.72,-77.76 -12.61,-75.88 -13.71,-74.43 -40.82,-75.83 -39.05,-75.59 -37.48,-75.46 -36.28,-75.62 -35.27,-75.94 -34.27,-76.15 -33.18,-76.12 -31.99,-75.9 -30.71,-75.66 -29.41,-75.54 -28.12,-75.61 -26.87,-75.81 -25.65,-76.05 -24.47,-76.24 -23.32,-76.35 -22.21,-76.38 -21.14,-76.34 -20.07,-76.21 -18.96,-75.97 -17.84,-75.74 -16.79,-75.75 -15.86,-76.1 -14.93,-76.25 -13.71,-74.43" fill="none" stroke="rgb(41, 134, 19)" stroke-width="2" stroke-linejoin="round" filter="url(#fuzzy)" /><polyline points="-14.35,-74.44 -15.51,-74.25 -16.46,-74.37 -17.48,-74.43 -18.52,-74.41 -19.52,-74.39 -20.49,-74.41 -21.47,-74.41 -22.49,-74.35 -23.57,-74.22 -24.69,-74.02 -25.87,-73.79 -27.12,-73.58 -28.45,-73.39 -29.77,-73.27 -30.88,-73.28 -31.79,-73.59 -18.99,-73.08 -18.33,-76.86 -17.2,-76.94 -16.19,-77.03 -15.26,-77.57 -14.29,-78.1 -13.24,-78.38 -12.13,-78.5 -11.01,-78.7 -9.89,-79.13 -8.79,-79.79 -7.71,-80.56 -6.66,-81.3 -5.61,-81.94 -4.56,-82.49 -3.45,-83 -2.27,-83.53 -1,-84.07 0.33,-84.6 1.7,-85.1 3.05,-85.64 4.37,-86.31 5.7,-87.15 7.09,-87.99 8.49,-88.56 9.61,-89.46" fill="none" stroke="rgb(41, 134, 19)" stroke-width="2" stroke-linejoin="round" filter="url(#fuzzy)" /><polyline points="-18.99,-73.08 -20.24,-75.01 -20.98,-75.03 -21.95,-75.03 -23.05,-74.99 -24.22,-74.87 -25.51,-74.85 -26.94,-75.1 -28.5,-75.64 -30.1,-76.37 -31.65,-77.13 -33.08,-77.74 -34.36,-78.07 -35.48,-78.01 -36.46,-77.55 -37.38,-76.75 -38.34,-75.79 -39.44,-74.9 -40.77,-74.3 -42.28,-74.14 -43.87,-74.38 -45.38,-74.79 -46.78,-75.04 -48.35,-74.97 -50.42,-75.37 -24.79,-71.12 -24.71,-71.82 -24.13,-73.62 -23.44,-75.21 -22.61,-76.11 -21.71,-76.61 -20.86,-77.34 -20.12,-78.67 -19.48,-80.59 -18.87,-82.75 -18.19,-84.76 -17.39,-86.34 -16.45,-87.42 -15.39,-88.16 -14.28,-88.83 -13.17,-89.72 -12.06,-91.07 -10.87,-92.87 -9.53,-94.82 -8.2,-96.5 -7.51,-98.1" fill="none" stroke="rgb(41, 134, 19)" stroke-width="2" stroke-linejoin="round" filter="url(#fuzzy)" /><polyline points="-28.91,-69.06 -29.43,-69.61 -29.98,-69.45 -30.83,-69.45 -31.92,-69.66 -33.07,-69.81 -34.2,-69.69 -35.35,-69.33 -36.55,-68.86 -37.82,-68.42 -39.09,-68.14 -40.34,-68.09 -41.6,-68.27 -42.92,-68.54 -44.26,-68.62 -45.4,-68.36 -46.21,-68.27" fill="none" stroke="rgb(41, 134, 19)" stroke-width="2" stroke-linejoin="round" filter="url(#fuzzy)" /><polyline points="-47.12,-56.59 -46.88,-56.94 -46.19,-57.62 -45.47,-58.25 -44.8,-58.8 -44.09,-59.35 -43.31,-59.96 -42.45,-60.64 -41.54,-61.34 -40.62,-62.02 -39.74,-62.66 -38.89,-63.26 -38.03,-63.85 -37.12,-64.44 -36.15,-65.07 -35.11,-65.71 -34.05,-66.35 -33.04,-66.97 -32.11,-67.54 -31.25,-68.06 -30.42,-68.53 -29.66,-68.89 -28.99,-69.05" fill="none" stroke="rgb(41, 134, 19)" stroke-width="2" stroke-linejoin="round" filter="url(#fuzzy)" /><polyline points="67.75,-17.1 68.31,-14.81 68.95,-13.46 69.76,-12.35 70.6,-11.21 71.32,-10.05 71.9,-8.97 72.47,-7.97 73.1,-7 73.75,-5.95 74.32,-4.79 74.79,-3.52 75.27,-2.17 75.94,-0.76 76.88,0.58 78.43,1.37" fill="none" stroke="rgb(41, 134, 19)" stroke-width="2" stroke-linejoin="round" filter="url(#fuzzy)" /><polyline points="67.75,-17.1 68.24,-14.78 68.61,-13.37 69.14,-12.19 69.98,-11.04 71.09,-9.94 72.29,-8.93 73.36,-7.96 74.18,-6.95 74.76,-5.84 75.19,-4.61 75.55,-3.3 75.88,-1.93 76.26,-0.54 76.75,0.83 77.39,2.17 78.12,3.45 78.81,4.68 79.42,5.84 79.96,6.6" fill="none" stroke="rgb(41, 134, 19)" stroke-width="2" stroke-linejoin="round" filter="url(#fuzzy)" /><polyline points="-32.53,-67.19 -34.7,-67.61 -36.91,-68.32 -39.05,-69.18 -40.56,-69.4 -41.4,-68.79 -41.98,-67.77 -42.74,-66.9 -43.93,-66.49 -45.51,-66.56 -47.3,-66.95 -49.09,-67.43 -50.75,-67.83 -52.24,-68.09 -53.67,-68.24 -55.21,-68.43 -57.06,-68.89 -59.32,-69.73 -61.83,-70.69 -64.17,-71.08 -66.11,-70.44 -68.6,-69.85 -32.53,-67.19 -32.69,-68.72 -32.38,-69.96 -32.14,-71.68 -31.88,-73.33 -31.47,-74.8 -30.98,-76.44 -30.51,-78.58 -30.09,-81.25 -29.69,-84.15 -29.19,-86.87 -28.52,-89.13 -27.72,-90.98 -26.96,-92.86 -26.48,-95.2 -26.27,-97.58 -25.64,-98.68" fill="none" stroke="rgb(41, 134, 19)" stroke-width="2" stroke-linejoin="round" filter="url(#fuzzy)" /><polyline points="67.75,-17.69 67.74,-17.46 67.56,-17.86 67.24,-18.66 66.75,-19.69 66.09,-20.86 65.32,-22.04 64.55,-23.18 63.85,-24.25 63.27,-25.25 62.77,-26.21 62.3,-27.15 61.82,-28.1 61.29,-29.06 60.69,-30.04 59.99,-30.99 59.16,-31.85 58.24,-32.59 57.32,-33.26 56.51,-33.96 55.88,-34.79 55.33,-35.76 54.65,-36.73 53.88,-37.38" fill="none" stroke="rgb(41, 134, 19)" stroke-width="2" stroke-linejoin="round" filter="url(#fuzzy)" /><polyline points="-59.24,-44.96 -58.34,-46 -57.46,-46.89 -56.74,-47.67 -56.03,-48.43 -55.24,-49.21 -54.35,-50 -53.4,-50.8 -52.43,-51.6 -51.46,-52.41 -50.53,-53.24 -49.64,-54.09 -48.82,-54.95 -48.08,-55.81 -47.41,-56.64 -46.78,-57.43 -46.16,-58.15 -45.53,-58.78 -44.9,-59.33 -44.19,-59.82 -43.25,-60.32 -42.02,-60.89 -41.09,-61.41 -44.05,-58.67 -44.87,-58.23 -45.88,-57.79 -47.27,-57.84 -49.05,-58.36 -51.04,-59.02 -53.09,-59.55 -55.21,-59.92 -57.39,-60.22 -59.55,-60.44 -61.48,-60.4 -62.96,-59.88 -63.9,-58.81 -64.44,-57.4 -65.01,-56.22 -66.2,-55.99 -68.31,-56.81 -47.75,-55.13 -48.43,-54.21 -48.89,-52.69 -49.23,-51.16 -49.7,-49.87 -50.3,-48.79 -50.92,-47.77 -51.52,-46.78 -52.09,-45.84 -52.67,-44.95 -53.25,-44.09 -53.79,-43.21 -54.23,-42.22 -54.55,-41.12 -54.73,-39.91 -54.8,-38.66 -54.81,-37.43 -54.79,-36.27 -54.75,-35.18 -54.73,-34.15 -54.79,-33.17 -54.93,-32.21 -55.11,-31.17 -55.19,-30.03 -54.82,-29.39" fill="none" stroke="rgb(41, 134, 19)" stroke-width="2" stroke-linejoin="round" filter="url(#fuzzy)" /><polyline points="67.97,-17.09 69.02,-17.98 68.8,-18.94 68.26,-20.04 67.75,-21.34 67.35,-22.76 67.06,-24.14 66.83,-25.42 66.6,-26.57 66.35,-27.65 66.09,-28.69 65.85,-29.76 65.62,-30.92 65.36,-32.18 65.04,-33.51 64.7,-34.83 64.42,-36.04 64.27,-37.06 64.3,-37.77" fill="none" stroke="rgb(41, 134, 19)" stroke-width="2" stroke-linejoin="round" filter="url(#fuzzy)" /><polyline points="-49.77,-53.17 -48.99,-54.59 -48.56,-55.82 -48.13,-56.79 -47.6,-57.57 -46.96,-58.24 -46.27,-58.82 -45.59,-59.36 -44.93,-59.9 -44.22,-60.51 -43.42,-61.23 -42.55,-62.07 -41.65,-63.02 -40.79,-64.04 -40.05,-65.08 -39.87,-65.68 -56.93,-26.15 -57.03,-27.71 -57.01,-28.77 -56.82,-29.73 -56.68,-30.77 -56.69,-31.93 -56.82,-33.14 -57,-34.35 -57.17,-35.53 -57.27,-36.65 -57.23,-37.72 -57.04,-38.75 -56.67,-39.73 -56.18,-40.71 -55.64,-41.69 -55.12,-42.69 -54.65,-43.7 -54.21,-44.67 -53.74,-45.59 -53.23,-46.49 -52.73,-47.52 -52.31,-48.83 -51.9,-50.28 -51.36,-51.17 -39.07,-64.63 -39.11,-64.36 -39.56,-63.86 -40.33,-63.15 -41.23,-62.35 -42.15,-61.53 -43.01,-60.73 -43.77,-59.97 -44.42,-59.25 -45.02,-58.57 -45.63,-57.92 -46.27,-57.28 -46.95,-56.64 -47.66,-55.98 -48.4,-55.23 -49.18,-54.33 -49.98,-53.24 -50.75,-52.07 -51.36,-51.17 -53.51,-48.83 -53.87,-48.09 -54.43,-47.27 -54.97,-46.51 -55.51,-45.72 -56.08,-44.86 -56.69,-43.94 -57.32,-42.99 -57.96,-42.01 -58.56,-41.05 -59.1,-40.13 -59.57,-39.27 -59.99,-38.45 -60.4,-37.65 -60.82,-36.84 -61.26,-35.98 -61.78,-34.87 -62.71,-32.74 -55.27,-45.97 -56.43,-47.77 -57.48,-49.77 -57.42,-51.2 -56.7,-52.26 -55.88,-53.33 -55.26,-54.62 -54.85,-56.12 -54.54,-57.75 -54.27,-59.41 -54.04,-61.07 -53.82,-62.69 -53.59,-64.2 -53.3,-65.57 -52.97,-66.85 -52.76,-68.27 -52.84,-70.08 -53.17,-72.35 -53.35,-74.72 -52.9,-76.59 -51.98,-77.83 -51.92,-79.86 -56.98,-43.24 -58.92,-43.8 -60.21,-43.1 -61.78,-42.64 -63.47,-42.46 -65.08,-42.34 -66.75,-42.24 -68.64,-42.21 -70.64,-42.16 -72.4,-41.88 -73.62,-41.19 -74.37,-40.16 -75.02,-39.03 -76.01,-38.02 -77.66,-37.1 -80.29,-36.07 -84.19,-34.62" fill="none" stroke="rgb(41, 134, 19)" stroke-width="2" stroke-linejoin="round" filter="url(#fuzzy)" /><polyline points="-57.11,-43.52 -56.86,-43.79 -56.37,-44.59 -55.85,-45.51 -55.35,-46.41 -54.84,-47.33 -54.32,-48.33 -53.81,-49.45 -53.34,-50.68 -52.92,-52.02 -52.53,-53.43 -52.12,-54.84 -51.66,-56.2 -51.16,-57.49 -50.67,-58.71 -50.22,-59.89 -49.78,-61.02 -49.31,-62.1 -48.83,-63.09 -48.51,-63.89 -48.47,-64.12 -58.82,-40.77 -57.09,-42.05 -56.21,-42.91 -55.24,-43.49 -54.23,-43.97 -53.37,-44.53 -52.66,-45.2 -51.99,-45.94 -51.22,-46.69 -50.36,-47.43 -49.46,-48.13 -48.51,-48.78 -47.43,-49.32 -46.2,-49.8 -45,-50.4 -44.24,-51.07" fill="none" stroke="rgb(41, 134, 19)" stroke-width="2" stroke-linejoin="round" filter="url(#fuzzy)" /><polyline points="-49.71,-59.18 -49.51,-58.57 -49.85,-57.6 -50.44,-56.47 -51.19,-55.34 -52,-54.27 -52.76,-53.21 -53.43,-52.11 -54.04,-50.98 -54.62,-49.86 -55.17,-48.81 -55.7,-47.8 -56.18,-46.82 -56.63,-45.81 -57.08,-44.76 -57.57,-43.69 -58.14,-42.62 -58.75,-41.52 -59.3,-40.41 -59.63,-39.4 -59.52,-39" fill="none" stroke="rgb(41, 134, 19)" stroke-width="2" stroke-linejoin="round" filter="url(#fuzzy)" /><polyline points="-57.25,-68.75 -57.41,-66.65 -57.67,-64.64 -58.1,-62.78 -58.47,-60.97 -58.63,-59.11 -58.63,-57.17 -58.59,-55.26 -58.61,-53.49 -58.73,-51.92 -58.93,-50.53 -59.17,-49.25 -59.38,-47.98 -59.52,-46.63 -59.57,-45.18 -59.59,-43.66 -59.72,-42.22 -60.11,-41.06 -60.79,-40.34 -61.3,-39.94 -59.94,-38.62" fill="none" stroke="rgb(41, 134, 19)" stroke-width="2" stroke-linejoin="round" filter="url(#fuzzy)" /><polyline points="67.22,-19.22 67.24,-21.07 66.89,-22.92 66.77,-24.47 66.83,-25.81 66.83,-26.99 66.69,-28.09 66.47,-29.18 66.29,-30.35 66.25,-31.68 66.39,-33.18 66.69,-34.81 67.04,-36.44 67.3,-38 67.38,-39.42 67.27,-40.74 67.06,-42.07 66.88,-43.47 66.82,-45 66.92,-46.61 67.27,-48.33 67.96,-50.17 68.93,-51.88" fill="none" stroke="rgb(41, 134, 19)" stroke-width="2" stroke-linejoin="round" filter="url(#fuzzy)" /><polyline points="67.22,-19.22 67.52,-18.7 68.29,-18.17 69.33,-17.81 70.18,-17.32 70.68,-16.52 70.99,-15.44 71.33,-14.21 71.81,-12.95 72.37,-11.71 72.84,-10.5 73.12,-9.33 73.21,-8.18 73.21,-7.04 73.24,-5.86 73.4,-4.64 73.72,-3.35 74.19,-2.02 74.77,-0.65 75.44,0.71 76.11,2.03 76.71,3.3 77.32,4.59 78.33,6.3" fill="none" stroke="rgb(41, 134, 19)" stroke-width="2" stroke-linejoin="round" filter="url(#fuzzy)" /><polyline points="79.4,-55.08 78.04,-52.49 78.43,-50.73 79.14,-49.33 79.45,-47.87 79.34,-46.24 79.03,-44.5 78.58,-42.63 77.78,-40.55 76.34,-38.19 74.26,-35.62 71.87,-33.04 69.7,-30.71 68.2,-28.78 67.55,-27.27 67.72,-26.08 68.61,-25.06 69.91,-23.89 70.52,-22.1 67.22,-19.22 67.2,-20.38 67.41,-19.54 67.59,-18.79 67.84,-18.14 68.1,-17.56 68.39,-16.92 68.7,-16.11 69.1,-15.11 69.61,-13.99 70.26,-12.82 71.04,-11.63 71.86,-10.48 72.62,-9.38 73.21,-8.34 73.61,-7.32 73.92,-6.25 74.33,-5.07 74.91,-3.82 75.47,-2.55 75.62,-1.25 63.48,-40.06 63.35,-39.1 63.58,-38.08 63.85,-37.06 64.16,-36.01 64.56,-34.89 65.03,-33.7 65.5,-32.47 65.87,-31.27 66.1,-30.11 66.2,-28.98 66.25,-27.87 66.33,-26.8 66.51,-25.76 66.79,-24.68 67.09,-23.23 67.2,-20.38 65.71,-25.87 66.06,-24.7 66.47,-23.31 66.88,-21.8 67.25,-20.44 67.6,-19.34 67.97,-18.49 68.38,-17.78 68.86,-17.09 69.4,-16.31 69.94,-15.39 70.45,-14.31 70.91,-13.12 71.32,-11.88 71.69,-10.63 72.02,-9.45 72.32,-8.39 72.64,-7.42 73.07,-6.4 73.66,-5.2 74.12,-3.79" fill="none" stroke="rgb(41, 134, 19)" stroke-width="2" stroke-linejoin="round" filter="url(#fuzzy)" /><polyline points="65.71,-25.87 65.64,-26.73 66.12,-28.06 66.65,-29.42 66.83,-30.67 66.56,-31.83 65.94,-32.95 65.17,-34.02 64.43,-35.05 63.84,-36.07 63.42,-37.13 63.14,-38.26 62.94,-39.49 62.76,-40.8 62.58,-42.15 62.43,-43.49 62.27,-44.76 61.95,-46.05" fill="none" stroke="rgb(41, 134, 19)" stroke-width="2" stroke-linejoin="round" filter="url(#fuzzy)" /><polyline points="62.07,-34.56 62.47,-35.09 63.31,-36.53 63.89,-38.04 63.96,-39.41 63.7,-40.66 63.32,-41.88 62.96,-43.12 62.68,-44.41 62.44,-45.73 62.15,-47.06 61.75,-48.34 61.24,-49.58 60.65,-50.79 60.08,-52.02 59.61,-53.34 59.27,-54.78 59.08,-56.37 59,-58.1 58.93,-59.83 58.66,-61.32 57.93,-62.53 56.68,-65.02" fill="none" stroke="rgb(41, 134, 19)" stroke-width="2" stroke-linejoin="round" filter="url(#fuzzy)" /><polyline points="62.07,-34.56 63.29,-32.53 64.63,-31.36 65.74,-30.5 66.59,-29.7 67.28,-28.85 67.88,-27.93 68.44,-26.9 69.07,-25.77 69.9,-24.61 70.99,-23.48 72.29,-22.45 73.6,-21.53 74.72,-20.72 75.48,-19.95 75.86,-19.13 76,-18.19 76.12,-17.11 76.43,-15.9 77.01,-14.62 77.81,-13.26 78.73,-11.73 79.74,-9.94 80.94,-8.06" fill="none" stroke="rgb(41, 134, 19)" stroke-width="2" stroke-linejoin="round" filter="url(#fuzzy)" /><polyline points="65.97,-6.57 65.9,-8.24 65.85,-9.85 65.88,-11.28 65.94,-12.57 66,-13.78 66.04,-14.88 66.03,-15.83 65.95,-16.67 65.83,-17.47 65.68,-18.33 65.53,-19.33 65.36,-20.48 65.18,-21.72 64.97,-22.99 64.72,-24.23 64.44,-25.38 64.13,-26.44 63.83,-27.46 63.55,-28.47 63.3,-29.56 63.08,-30.8 62.81,-32.22 62.46,-33.62 62.3,-34.26 60.44,-37.72 62.19,-37.17 63.73,-36.87 64.82,-36.25 65.75,-35.38 66.52,-34.29 67.13,-33.11 67.76,-31.97 68.66,-31.03 70.06,-30.34 72,-29.87 74.36,-29.5 76.86,-29.06 79.25,-28.37 81.4,-27.38 83.32,-26.17 85.09,-24.93 86.79,-23.87 88.93,-23.14 92.69,-23.3" fill="none" stroke="rgb(41, 134, 19)" stroke-width="2" stroke-linejoin="round" filter="url(#fuzzy)" /><polyline points="58.87,-21.81 59.36,-22.35 59.55,-23.21 59.75,-24.24 60.06,-25.37 60.34,-26.52 60.47,-27.66 60.44,-28.83 60.37,-30.09 60.39,-31.45 60.51,-32.85 60.66,-34.19 60.71,-35.41 60.57,-36.51 60.21,-37.55 59.67,-38.61 59.07,-39.73 58.85,-40.82" fill="none" stroke="rgb(41, 134, 19)" stroke-width="2" stroke-linejoin="round" filter="url(#fuzzy)" /><polyline points="70.95,-26.17 70.59,-27.42 69.85,-28.33 69.02,-29.17 68.14,-29.96 67.21,-30.76 66.26,-31.64 65.35,-32.61 64.52,-33.63 63.76,-34.64 63.05,-35.57 62.36,-36.45 61.69,-37.32 61.04,-38.24 60.4,-39.21 59.74,-40.19 59.07,-41.11 58.37,-41.94 57.7,-42.89" fill="none" stroke="rgb(41, 134, 19)" stroke-width="2" stroke-linejoin="round" filter="url(#fuzzy)" /><polyline points="34.88,-52.28 35.99,-52.02 37.07,-51.99 38.24,-52.22 39.47,-52.54 40.66,-52.81 41.75,-52.91 42.69,-52.75 43.54,-52.35 44.35,-51.78 45.2,-51.15 46.08,-50.51 46.94,-49.85 47.74,-49.15 48.48,-48.38 49.19,-47.57 49.89,-46.75 50.6,-45.93 51.32,-45.13 52.16,-44.39 53.38,-43.87 55.3,-43.72 57.43,-43.23 55.48,-46.03 56.32,-44.95 57.34,-44.08 58.75,-43.64 60.77,-43.67 63.29,-44 65.96,-44.33 68.43,-44.44 70.49,-44.23 72.1,-43.72 73.43,-43 74.74,-42.19 76.21,-41.39 77.83,-40.57 79.37,-39.64 80.55,-38.54 81.33,-37.31 82.08,-36.12 83.36,-35.21 85.49,-34.65 87.89,-34.14 88.74,-32.74" fill="none" stroke="rgb(41, 134, 19)" stroke-width="2" stroke-linejoin="round" filter="url(#fuzzy)" /><polyline points="39.41,-54.32 40.21,-54.78 41.2,-54.79 42.16,-54.69 43.02,-54.5 43.81,-54.18 44.62,-53.72 45.48,-53.18 46.41,-52.6 47.38,-52.02 48.33,-51.41 49.2,-50.75 49.98,-50 50.71,-49.19 51.42,-48.34 52.15,-47.52 53.07,-46.88 54.85,-46.77" fill="none" stroke="rgb(41, 134, 19)" stroke-width="2" stroke-linejoin="round" filter="url(#fuzzy)" /><polyline points="50.55,-52.21 48.73,-53.85 47.57,-54.7 46.71,-55.44 45.93,-56.04 45.16,-56.47 44.36,-56.78 43.54,-57.07 42.7,-57.35 41.83,-57.6 40.9,-57.75 39.89,-57.76 38.79,-57.62 37.6,-57.39 36.26,-57.17 34.66,-57.24 32.44,-58.16 50.55,-52.21 49.51,-54.75 49.03,-56.4 48.4,-57.44 47.65,-58.13 46.94,-58.72 46.37,-59.41 45.95,-60.31 45.67,-61.45 45.5,-62.78 45.38,-64.22 45.26,-65.69 45.08,-67.11 44.76,-68.44 44.16,-69.74 43.1,-71.26 41.3,-74.05 48.13,-55.21 47.94,-55.68 47.68,-56.87 47.43,-58.1 47.23,-59.29 47.13,-60.59 47.09,-62.01 46.99,-63.42 46.76,-64.72 46.42,-65.92 46.02,-67.08 45.56,-68.28 44.97,-69.49 44.13,-70.61 43.02,-71.59 41.85,-72.55 41.11,-73.73 41.19,-75.32 41.67,-77.39 70.25,-47.85 68.57,-47.69 66.96,-47.82 65.51,-48.19 64.18,-48.75 62.94,-49.46 61.7,-50.17 60.37,-50.75 58.95,-51.19 57.56,-51.61 56.28,-52.09 55.11,-52.64 54.03,-53.25 53,-53.85 51.91,-54.29 50.37,-54.36 48.13,-55.21 48.13,-55.21 48.22,-52.12 49.05,-51.32 49.87,-50.68 50.42,-49.73 50.61,-48.43 50.54,-46.91 50.41,-45.35 50.41,-43.91 50.6,-42.65 50.86,-41.45 51,-40.17 50.94,-38.78 50.84,-37.46 50.88,-36.37 50.74,-35.32 49.62,-33.8" fill="none" stroke="rgb(41, 134, 19)" stroke-width="2" stroke-linejoin="round" filter="url(#fuzzy)" /><polyline points="41.38,-76.2 42.32,-74.37 43.66,-72.63 44.72,-71.18 45.45,-69.88 45.96,-68.66 46.35,-67.45 46.66,-66.2 46.88,-64.85 46.97,-63.37 46.96,-61.83 46.93,-60.35 46.94,-59.01 47.03,-57.73 47.35,-56.38 48.2,-54.97 46.72,-56.54 47.92,-55.56 49.13,-54.96 50.21,-54.32 51.14,-53.59 51.97,-52.8 52.77,-51.97 53.57,-51.12 54.36,-50.26 55.15,-49.38 55.94,-48.47 56.73,-47.54 57.52,-46.6 58.31,-45.66 59.06,-44.71 59.76,-43.76 60.4,-42.78 61.01,-41.78 61.62,-40.76 62.28,-39.75 62.98,-38.79 63.74,-37.92 64.53,-37.2 65.27,-36.65 65.57,-36.5 43.36,-59.64 44.12,-58.77 44.68,-57.84 44.92,-56.8 45.1,-55.64 45.42,-54.51 45.97,-53.51 46.66,-52.62 47.39,-51.76 48.08,-50.88 48.67,-49.91 49.15,-48.86 49.54,-47.73 49.85,-46.54 50.1,-45.31 50.29,-44.03 50.44,-42.71 50.56,-41.37 50.66,-40.04 50.75,-38.74 50.79,-37.5 50.75,-36.33 50.66,-35.27 50.52,-34.41" fill="none" stroke="rgb(41, 134, 19)" stroke-width="2" stroke-linejoin="round" filter="url(#fuzzy)" /><polyline points="42.12,-60.72 44.83,-62.59 47.96,-65.39 49.56,-66.05 49.93,-65.02 49.93,-63.45 50.13,-62.06 50.7,-61.01 51.59,-60.22 52.72,-59.62 54.07,-59.2 55.66,-59 57.5,-59.04 59.57,-59.28 61.83,-59.64 64.28,-60.1 66.9,-60.65 69.56,-61.16 71.96,-61.37 74,-61.17 76.39,-61.16" fill="none" stroke="rgb(41, 134, 19)" stroke-width="2" stroke-linejoin="round" filter="url(#fuzzy)" /><polyline points="39.67,-62.43 38.74,-63.22 37.53,-64.27 36.63,-65.14 35.9,-65.83 35.14,-66.42 34.25,-67.02 33.28,-67.67 32.28,-68.38 31.34,-69.11 30.47,-69.83 29.67,-70.51 28.9,-71.16 28.13,-71.81 27.3,-72.48 26.4,-73.17 25.48,-73.83 24.59,-74.39 23.77,-74.89 22.77,-75.74" fill="none" stroke="rgb(41, 134, 19)" stroke-width="2" stroke-linejoin="round" filter="url(#fuzzy)" /><polyline points="60.18,-64.32 59.62,-64 58.05,-64.35 56.48,-64.77 54.95,-65.02 53.54,-65.18 52.32,-65.36 51.26,-65.66 50.33,-66.09 49.5,-66.66 48.7,-67.29 47.83,-67.82 46.76,-68.07 45.38,-67.92 43.68,-67.41 41.78,-66.76 39.91,-66.26 38.29,-66.09 37.04,-66.23 36.06,-66.48 35.11,-66.63 33.98,-66.73 32.94,-66.88" fill="none" stroke="rgb(41, 134, 19)" stroke-width="2" stroke-linejoin="round" filter="url(#fuzzy)" /><polyline points="30.39,-68.3 29.67,-69.74 29.74,-72.24 29.59,-74.24 28.99,-75.43 28.1,-76.16 27.1,-76.64 26.06,-76.94 25.03,-77.13 24.04,-77.42 23.09,-78.02 22.17,-79.04 21.25,-80.47 20.29,-82.23 19.29,-84.14 18.3,-86.04 17.36,-87.72 16.51,-88.98 15.68,-89.94 14.86,-91.29 14.56,-93.8" fill="none" stroke="rgb(41, 134, 19)" stroke-width="2" stroke-linejoin="round" filter="url(#fuzzy)" /><polyline points="27.34,-69.89 26.97,-70.09 26.02,-70.58 25,-71.08 24.08,-71.52 23.23,-71.9 22.41,-72.27 21.55,-72.65 20.61,-73.06 19.56,-73.5 18.39,-73.97 17.15,-74.46 15.92,-74.97 14.89,-75.44 14.27,-75.77 14.75,-75.69" fill="none" stroke="rgb(41, 134, 19)" stroke-width="2" stroke-linejoin="round" filter="url(#fuzzy)" /><polyline points="27.34,-69.89 27.44,-67.03 28.4,-67.01 29.51,-67.15 30.57,-66.84 31.52,-66.1 32.33,-65.09 33,-63.98 33.6,-62.96 34.23,-62.08 34.95,-61.28 35.7,-60.36 36.39,-59.19 36.9,-57.84 37.26,-56.51 37.59,-55.4 37.96,-54.35 38.09,-52.5" fill="none" stroke="rgb(41, 134, 19)" stroke-width="2" stroke-linejoin="round" filter="url(#fuzzy)" /><polyline points="27.55,-69.76 26.02,-70.46 24.82,-70.97 23.85,-71.34 22.98,-71.64 22.1,-71.9 21.16,-72.18 20.13,-72.48 19.02,-72.8 17.85,-73.13 16.69,-73.43 15.57,-73.69 14.53,-73.92 13.57,-74.1 12.65,-74.26 11.74,-74.41 10.81,-74.56 9.85,-74.69 8.89,-74.82 7.93,-74.91 6.92,-74.97 5.75,-75 4.44,-75.01 50.08,-74.5 48.08,-74.78 45.93,-74.77 43.83,-74.57 41.99,-74.18 40.47,-73.85 39.14,-73.71 37.82,-73.66 36.35,-73.48 34.72,-73.01 33.04,-72.34 31.48,-71.69 30.15,-71.29 29.06,-71.17 28.08,-71.2 27.01,-71.19 25.79,-71.16 24.51,-71.32 23.52,-71.68" fill="none" stroke="rgb(41, 134, 19)" stroke-width="2" stroke-linejoin="round" filter="url(#fuzzy)" /><polyline points="11.48,-74.9 11.42,-77.24 10.7,-79.03 9.85,-80.57 8.89,-81.45 7.84,-81.74 6.7,-81.72 5.51,-81.64 4.29,-81.66 3.04,-81.88 1.75,-82.34 0.42,-83.09 -0.92,-84.06 -2.24,-85.13 -3.49,-86.12 -4.68,-86.89 -5.84,-87.44 -7.02,-87.85 -8.27,-88.27 -9.63,-88.77 -11.03,-89.41 -12.43,-90.3 -13.84,-91.51 -15.41,-92.61 -17.01,-92.33 11.66,-75.13 12.36,-75.85 13.29,-76.1 14.17,-76.27 15.12,-76.36 16.23,-76.27 17.47,-76.07 18.8,-75.96 20.19,-76.14 21.58,-76.63 22.92,-77.32 24.18,-78 25.36,-78.48 26.49,-78.71 27.68,-78.72 29.02,-78.74 30.5,-79.26 31.78,-81.23 8.11,-75.54 9.2,-76.8 10.8,-80.37 12.25,-82.95 13.31,-83.34 14.15,-82.51 15.05,-81.78 16.17,-81.82 17.54,-82.48 19.06,-83.29 20.62,-83.9 22.16,-84.29 23.64,-84.65 25.09,-85.17 26.53,-85.96 28.03,-87.06 29.72,-88.6 31.76,-90.54 34.14,-92.28 36.58,-92.64" fill="none" stroke="rgb(41, 134, 19)" stroke-width="2" stroke-linejoin="round" filter="url(#fuzzy)" /><polyline points="5.81,-75.73 7.15,-75.82 8.15,-76.02 9.14,-76.35 10.17,-76.68 11.2,-76.89 12.19,-76.94 13.15,-76.94 14.12,-76.94 15.16,-76.97 16.29,-76.98 17.52,-76.93 18.8,-76.82 20.07,-76.65 21.28,-76.46 22.39,-76.27 23.43,-76.13 24.45,-76.13 25.56,-76.37 26.87,-76.76 28.44,-76.96 30.23,-76.55 1.94,-75.83 2.72,-76.31 3.74,-77.83 4.95,-80.23 6.2,-82.22 7.39,-83.05 8.49,-83.01 9.6,-82.91 10.79,-83.42 12.08,-84.62 13.4,-86.14 14.65,-87.5 15.81,-88.43 16.92,-88.98 18.13,-89.35 19.62,-89.69 21.63,-89.97 24.36,-90.37" fill="none" stroke="rgb(41, 134, 19)" stroke-width="2" stroke-linejoin="round" filter="url(#fuzzy)" />
    </g>
    
        <g id="pointNose">
          <g id="rightNose"><circle r="1.686" cx="12.24" cy="15.078" stroke="black" fill="none" stroke-width="1.0" filter="url(#fuzzy)" /><circle r="2.464" cx="9.64" cy="15.378" stroke="black" fill="none" stroke-width="1.0" filter="url(#fuzzy)" /><circle r="2.396" cx="12.44" cy="16.226" stroke="black" fill="none" stroke-width="1.0" filter="url(#fuzzy)" /><circle r="2.442" cx="11.008" cy="17.806" stroke="black" fill="none" stroke-width="1.0" filter="url(#fuzzy)" /><circle r="1.376" cx="12.384" cy="18.23" stroke="black" fill="none" stroke-width="1.0" filter="url(#fuzzy)" /><circle r="1.8279999999999998" cx="10.048" cy="17.118000000000002" stroke="black" fill="none" stroke-width="1.0" filter="url(#fuzzy)" /><circle r="1.44" cx="11.559999999999999" cy="15.034000000000002" stroke="black" fill="none" stroke-width="1.0" filter="url(#fuzzy)" /><circle r="2.6" cx="8.996" cy="16.034000000000002" stroke="black" fill="none" stroke-width="1.0" filter="url(#fuzzy)" /><circle r="1.286" cx="10.312" cy="17.41" stroke="black" fill="none" stroke-width="1.0" filter="url(#fuzzy)" /><circle r="1.022" cx="9.264" cy="15.126000000000001" stroke="black" fill="none" stroke-width="1.0" filter="url(#fuzzy)" /></g>
          <g id="leftNose"><circle r="2.5460000000000003" cx="-10.604" cy="22.89" stroke="black" fill="none" stroke-width="1.0" filter="url(#fuzzy)" /><circle r="2.17" cx="-8.948" cy="21.794000000000004" stroke="black" fill="none" stroke-width="1.0" filter="url(#fuzzy)" /><circle r="1.696" cx="-10.251999999999999" cy="22.298000000000002" stroke="black" fill="none" stroke-width="1.0" filter="url(#fuzzy)" /><circle r="1.08" cx="-9.384" cy="23.886000000000003" stroke="black" fill="none" stroke-width="1.0" filter="url(#fuzzy)" /><circle r="1.066" cx="-10.032" cy="20.502000000000002" stroke="black" fill="none" stroke-width="1.0" filter="url(#fuzzy)" /><circle r="2.384" cx="-9.251999999999999" cy="21.950000000000003" stroke="black" fill="none" stroke-width="1.0" filter="url(#fuzzy)" /><circle r="1.106" cx="-8.552" cy="23.538000000000004" stroke="black" fill="none" stroke-width="1.0" filter="url(#fuzzy)" /><circle r="1.288" cx="-11.315999999999999" cy="23.126" stroke="black" fill="none" stroke-width="1.0" filter="url(#fuzzy)" /><circle r="2.79" cx="-9.576" cy="23.338" stroke="black" fill="none" stroke-width="1.0" filter="url(#fuzzy)" /><circle r="1.298" cx="-7.8839999999999995" cy="21.178" stroke="black" fill="none" stroke-width="1.0" filter="url(#fuzzy)" /></g>
        </g>
      
    <g id="mouth">
      <polyline points="-20.24,64.25 -19.83,63.26 -19.42,62.29 -19,61.35 -18.59,60.44 -18.17,59.55 -17.76,58.69 -17.34,57.85 -16.92,57.03 -16.5,56.24 -16.08,55.47 -15.66,54.73 -15.24,54.01 -14.82,53.31 -14.4,52.64 -13.98,51.99 -13.56,51.36 -13.13,50.75 -12.71,50.17 -12.29,49.61 -11.86,49.07 -11.44,48.55 -11.02,48.06 -10.59,47.58 -10.17,47.13 -9.75,46.7 -9.33,46.29 -8.91,45.9 -8.49,45.53 -8.07,45.18 -7.65,44.85 -7.23,44.54 -6.81,44.25 -6.39,43.98 -5.98,43.73 -5.56,43.5 -5.15,43.29 -4.74,43.09 -4.32,42.92 -3.91,42.76 -3.5,42.63 -3.1,42.51 -2.69,42.41 -2.29,42.32 -1.88,42.26 -1.48,42.21 -1.09,42.17 -0.69,42.16 -0.29,42.16 0.1,42.18 0.49,42.22 0.88,42.27 1.27,42.34 1.65,42.42 2.03,42.52 2.41,42.63 2.79,42.77 3.16,42.91 3.54,43.07 3.9,43.25 4.27,43.44 4.63,43.64 4.99,43.86 5.35,44.09 5.71,44.34 6.06,44.6 6.4,44.87 6.75,45.16 7.09,45.46 7.43,45.78 7.76,46.1 8.09,46.44 8.42,46.79 8.74,47.16 9.06,47.53 9.38,47.92 9.69,48.32 10,48.73 10.3,49.15 10.6,49.58 10.89,50.03 11.18,50.48 11.47,50.95 11.75,51.42 12.03,51.91 12.3,52.41 12.57,52.91 12.83,53.43 13.09,53.95 13.35,54.49 13.6,55.03 13.84,55.58 14.08,56.15 14.31,56.72 14.54,57.29 14.76,57.88 14.98,58.47 15.19,59.08 15.4,59.69 15.6,60.3 15.8,60.93 15.6,60.3 15.4,59.69 15.19,59.08 14.98,58.47 14.76,57.88 14.54,57.29 14.31,56.72 14.08,56.15 13.84,55.58 13.6,55.03 13.35,54.49 13.09,53.95 12.83,53.43 12.57,52.91 12.3,52.41 12.03,51.91 11.75,51.42 11.47,50.95 11.18,50.48 10.89,50.03 10.6,49.58 10.3,49.15 10,48.73 9.69,48.32 9.38,47.92 9.06,47.53 8.74,47.16 8.42,46.79 8.09,46.44 7.76,46.1 7.43,45.78 7.09,45.46 6.75,45.16 6.4,44.87 6.06,44.6 5.71,44.34 5.35,44.09 4.99,43.86 4.63,43.64 4.27,43.44 3.9,43.25 3.54,43.07 3.16,42.91 2.79,42.77 2.41,42.63 2.03,42.52 1.65,42.42 1.27,42.34 0.88,42.27 0.49,42.22 0.1,42.18 -0.29,42.16 -0.69,42.16 -1.09,42.17 -1.48,42.21 -1.88,42.26 -2.29,42.32 -2.69,42.41 -3.1,42.51 -3.5,42.63 -3.91,42.76 -4.32,42.92 -4.74,43.09 -5.15,43.29 -5.56,43.5 -5.98,43.73 -6.39,43.98 -6.81,44.25 -7.23,44.54 -7.65,44.85 -8.07,45.18 -8.49,45.53 -8.91,45.9 -9.33,46.29 -9.75,46.7 -10.17,47.13 -10.59,47.58 -11.02,48.06 -11.44,48.55 -11.86,49.07 -12.29,49.61 -12.71,50.17 -13.13,50.75 -13.56,51.36 -13.98,51.99 -14.4,52.64 -14.82,53.31 -15.24,54.01 -15.66,54.73 -16.08,55.47 -16.5,56.24 -16.92,57.03 -17.34,57.85 -17.76,58.69 -18.17,59.55 -18.59,60.44 -19,61.35 -19.42,62.29 -19.83,63.26" fill="rgb(204, 102, 122)" stroke="black" stroke-width="3" stroke-linejoin="round" filter="url(#fuzzy)" />
    </g>
  </svg>