<svg xmlns="http://www.w3.org/2000/svg" width="500" height="500" viewBox="-100 -100 200 200"><defs><clipPath id="c"><path d="m25.74 7.53.19-.16.16-.17.13-.17.08-.17.04-.18v-.19l-.03-.2-.07-.2-.12-.2-.15-.22-.18-.21-.23-.23L25.3 5l-.3-.23-.33-.24-.24-.21-.3-.23-.35-.24-.41-.25-.46-.26-.51-.28-.57-.28-.61-.29-.66-.3-.71-.3-.76-.31-.8-.3-.83-.31-.88-.3-.91-.3-.94-.3-.98-.29-1-.29-1.03-.27-1.05-.27L9.6-1.3l-1.08-.24-1.1-.23-1.11-.22-1.12-.2-1.13-.19-1.12-.17-1.13-.15-1.13-.14-1.12-.12-1.11-.11-1.1-.09-1.1-.07-1.08-.05-1.06-.04-1.05-.03h-2.03l-.98.02-.96.03-.94.05-.9.05-.89.07-.85.07-.83.08-.79.09-.77.09-.74.1-.71.09-.69.1-.65.1-.63.1-.6.1-.57.11-.55.11-.52.1-.49.11-.47.1-.44.1-.41.1-.38.1-.35.09-.33.09-.31.08-.46.04.22.08.23.07.25.07.28.06.29.06.31.05.33.05.35.04.37.05.38.04.41.04.42.03.43.04.46.04.47.04.49.03.51.04.53.03.54.04.57.05.58.04.59.06.62.05.62.07.64.07.66.08.66.09.68.1.69.11.71.12.71.13.72.14.73.15.74.16.75.17.75.18.76.19.77.2.77.21.78.22.78.22.79.23.79.24.79.24.8.24.8.24.8.25.81.25.8.24.81.24.81.24.81.23.81.23.81.22.81.2.81.2.81.18.81.17.81.16.81.14.8.12.8.11.8.08.79.07.67.12.67.12.66.1.65.1.65.09.63.08.63.07.62.06.61.05.6.04.59.04.58.03.56.02.54.01h.53"/></clipPath><clipPath id="b"><path d="m-21.99 8.27-.3-.14-.27-.13-.23-.14-.19-.15-.15-.15-.11-.15-.08-.16-.04-.16v-.16l.03-.18.06-.17.1-.18.14-.18.17-.19.2-.19.14-.17.18-.18.24-.19.27-.2.33-.21.37-.22.41-.22.46-.23.5-.24.55-.24.59-.25.63-.24.67-.25.71-.25.74-.24.77-.24.81-.24.84-.23.87-.23.9-.22.92-.21.94-.21.96-.19.98-.19 1-.17 1.01-.17 1.02-.15 1.02-.14 1.04-.13 1.04-.12 1.04-.11 1.04-.1 1.04-.08L2.4-.7l1.03-.06 1.01-.05 1.01-.05.99-.03.98-.03.96-.01.95-.02h1.83l.88.01h.85l.84.02.8.01.78.01.75.01.73.01.7.01h.67l.65.01h1.79l.54-.01.51-.01.49-.02.46-.02.43-.02.4-.04.37-.04.34-.04-1.8-1.74-.01.02-.03.01-.06.01h-.08l-.11-.01h-.14l-.16-.01-.19-.01-.2-.02-.23-.01-.26-.02-.27-.01-.3-.02-.31-.01-.34-.01-.36-.01-.39-.01h-.82l-.45.01-.46.01-.47.02-.5.04-.51.04-.52.06-.53.06-.55.09-.56.1-.56.11-.58.13-.59.14-.59.16-.6.18-.61.19-.61.21-.62.22-.62.24-.63.26-.64.26-.64.28-.64.29-.65.3-.65.32-.66.31-.66.33-.66.33-.68.33-.67.34-.69.34-.68.33-.7.33-.7.33-.71.31-.72.31-.72.3-.74.28-.74.27-.75.25-.76.23-.77.22-.78.19-.78.17-.8.15-.8.12-.63.19-.63.18-.63.17-.63.15-.63.15-.62.14-.62.12-.61.12-.61.1-.6.09-.6.08-.58.07-.57.06-.56.05-.55.04"/></clipPath><filter id="a"><feTurbulence baseFrequency=".05" numOctaves="3" result="noise" type="noise"/><feDisplacementMap in="SourceGraphic" in2="noise" scale="2"/></filter></defs><rect width="100%" height="100%" x="-100" y="-100" fill="#4682B4"/><path fill="#FFEBCD" stroke="#000" stroke-linejoin="round" stroke-width="1.667" d="m75.01 1.77.06-.15.1 1.04-.13.87.02.56-.16 2.33-.32 1.4-.02 3.59-.22.69.04.94-.18-1.32-.09 1.71-.25 2.58-.39 1.07-.32 1.28-.08 1.01-.64 2.44.03.56-.54 2.42-.18-.3-.03-.07-.72 3.18-.53.8.08.7-.61 1.33-.17.35-1.04 2.96.06.44-.11.05-1.22 2.7-.38 1.2-.98 1.65.37-.71-1.15 2.14-.43 1.75-.63.62-1.08 2.21-.38.52.2-.32-1.59 2.76-.19.22-1.41 2.47-.56-.04-1.29 2.19-1.36 1.78-.12.08-.56.73-.85.93-.82 1.14-1.12 1.42-.12-.2-.07.26-.75.78-2.12 2.12-.85 1.14-.57.58-1.44 1.04-.23.45-2.44 1.98.28-.38-1.58 1.47v-.08l-.04-.12-2.05 1.64-.06.25-.95.67-.97.6-1.95 1.09-.52.77-1.32.41-.67.62-1.57.86-1.09.64-.61-.01-1.35.93-2.26 1.11.24-.24-2.78 1.03-.59.37.28-.19-2.43.88-1.38.38-.79.72-.66-.24-.68.31-1.97.71-.54.13.12-.13-3.95.88-.74.26-.36.12-.33-.27-1.15.26-1.12.46-1.62.07-1.73.35-.85-.05-1.19.18-1.88-.3-2 .11-.13.17-.12-.16-1.39-.16-2.01.19-1.79-.26.69.08-1.11.13-1.62-.18-1.85-.24-.36-.3-2.84-.42.69.02-1.61-.05-2.04-.57-2.23-.72 1.31.31-2.6-.57-.44-.21-1.3-.62-1.57-.06-1.54-.86-1.67-.43.81.02-2.56-1.06 1.49.81-1.96-.88-1.79-1.01-.08-.06-2.2-1.16-1.12-.21-1.7-.96.98.42-1.93-1.26-.6-.4.33.32-2.41-1.67-1.64-1-1.21-.95-1.41-1.05-1.41-.92-.52-.58-.22-.27-1.11-.74.17.14-1.91-1.62-.85-.66-1.47-1.65-.2-.4-1.27-1.13-.19-.68-1.16-1.22-.67-.43-1.27-1.57-1.67-2.08.38.62-1.44-1.8.15-.02-2.46-3.04 1.45 1.98-2.13-3.29-.27-.22.52.69-1.72-2.68-1.32-2.75.97 1.98-1.8-3.25-.65-.86-.53-1.23-.4-1-.31-.52-.57-1.79-.52-.17-1.31-3.16.08-.05-.59-1.39-.48-1.11-.52-1.73-.6-1.69-.01-.16.24.2-1.46-4.35.29.51-.74-2.27-.18-1.49-.28-.1-.46-2.88-.47-1.91.11 1.15-.35-2.34-.05-1.28-.08-1.16-.09.77-.25-2.01-.3-1.42.03-.56.1-.65-.16-3.29-.22-2.82.01.06-.18-.83.2-3.89-.12.68.08-1.37.05-1.13-.04-3.71-.02.95.51-2.91.24-1.91-.13-.02-.01-.25.37-1.48.25-3 .02-.57-.08.32.43-2.32.89-2.38.04-.48-.2-.07.85-3.64-.13.36.42-.81.37-2.11.31-.48.77-2.08.41-.45-.14.17 1.29-4.08.55-1.13.44-1.25-.31.3 1.41-2.39-.31.38.77-1.16.24-.4.51-1.15 1.21-2.46 1.32-2.07-.8 1.07.93-2.02 1.2-1.29.46-.63 1.13-2.12.52-1.04.88-.67.46-.88 2.15-2.63.2-.31.26-.74.35-.15.46-.32 1.6-2.21.73-.51 1.16-1.35.73-.53.1-.37 1.94-1.6-.1-.18.87-.42 1.22-1.41.61-.38.44-.5 2.45-2.23-.26.69 1.04-1.04 2.37-1.49.66-.57-.51.47 1.78-1.62 1.39-.64 1.05-.66 1.89-.82.41-.56-.74.34 4.04-1.93-.35.33 1.38-.83 1.32-.39.29-.22 1.33-.94 2.5-.58.05-.12-.28-.05 2.41-.71 1.09-.19 1.9-.8-.7.49 1.34-.46 1.57-.67.34.06 3-.56 1.69-.16 1.1-.17-.41-.07 2.11-.49-.07.24 2.84-.4 1.16-.04.51-.03 2.2-.2.22.25.84.08.85-.17 2.63-.04.75.14-.9.09L5.82-84l1.06.11 2.08.44 1.33.2.25.19 2.19.02-1.64-.26 3.97.91-.27-.22 1.77.63 1.53.38 1.45.6 1.38.39-.95-.31 1.85.34.14.13 3.96 1.33-.77-.02 1.86.55 1.49.88 1.05.46 1.45.55-1.23-.39 1.61.84 1.47.36.18.52.36.15 4.12 2.32-.1-.09.51.31 1.37.88 1.72 1.21 1.03.94-.58-.56 1.17 1.01 1.92 1.51.47.37.73.58.41.55 2.53 2.09-.38-.27 1.89 1.92.5.15.43 1.24 1.82 1.27-.24.01 1.38 1.39.8.8 1.67 2.14-.49-.35.73.97.78 1.06 1.37 1.64.36.93.85.89.36.59 1.79 3.13-.66-1.61.08.44 1.66 2.72.14.5 1.43 2.01.57 1.73.06.09.6 1.34-.04-.11 1.26 2.55.38 1.23.63 1.03.17.11.49 1.39.14.6 1.26 4.11.13.04.43 1.7.68 1.97.19.49-.15-.76.95 3.69.36 1.76v-.39l.05 1.31.8 2.84.06 1.13-.06 1.16.46 1.25-.08.71.28.98-.09.7.41 1.52.06 1.34.02-.43.11 3.28.15 2.57-.09-1.25-.14 4.62.06-.15" filter="url(#a)"/><path fill="#fff" d="m-21.99 8.27-.3-.14-.27-.13-.23-.14-.19-.15-.15-.15-.11-.15-.08-.16-.04-.16v-.16l.03-.18.06-.17.1-.18.14-.18.17-.19.2-.19.14-.17.18-.18.24-.19.27-.2.33-.21.37-.22.41-.22.46-.23.5-.24.55-.24.59-.25.63-.24.67-.25.71-.25.74-.24.77-.24.81-.24.84-.23.87-.23.9-.22.92-.21.94-.21.96-.19.98-.19 1-.17 1.01-.17 1.02-.15 1.02-.14 1.04-.13 1.04-.12 1.04-.11 1.04-.1 1.04-.08L2.4-.7l1.03-.06 1.01-.05 1.01-.05.99-.03.98-.03.96-.01.95-.02h1.83l.88.01h.85l.84.02.8.01.78.01.75.01.73.01.7.01h.67l.65.01h1.79l.54-.01.51-.01.49-.02.46-.02.43-.02.4-.04.37-.04.34-.04-1.8-1.74-.01.02-.03.01-.06.01h-.08l-.11-.01h-.14l-.16-.01-.19-.01-.2-.02-.23-.01-.26-.02-.27-.01-.3-.02-.31-.01-.34-.01-.36-.01-.39-.01h-.82l-.45.01-.46.01-.47.02-.5.04-.51.04-.52.06-.53.06-.55.09-.56.1-.56.11-.58.13-.59.14-.59.16-.6.18-.61.19-.61.21-.62.22-.62.24-.63.26-.64.26-.64.28-.64.29-.65.3-.65.32-.66.31-.66.33-.66.33-.68.33-.67.34-.69.34-.68.33-.7.33-.7.33-.71.31-.72.31-.72.3-.74.28-.74.27-.75.25-.76.23-.77.22-.78.19-.78.17-.8.15-.8.12-.63.19-.63.18-.63.17-.63.15-.63.15-.62.14-.62.12-.61.12-.61.1-.6.09-.6.08-.58.07-.57.06-.56.05-.55.04" filter="url(#a)" transform="translate(28.96 -29.54)"/><path fill="#fff" d="m25.74 7.53.19-.16.16-.17.13-.17.08-.17.04-.18v-.19l-.03-.2-.07-.2-.12-.2-.15-.22-.18-.21-.23-.23L25.3 5l-.3-.23-.33-.24-.24-.21-.3-.23-.35-.24-.41-.25-.46-.26-.51-.28-.57-.28-.61-.29-.66-.3-.71-.3-.76-.31-.8-.3-.83-.31-.88-.3-.91-.3-.94-.3-.98-.29-1-.29-1.03-.27-1.05-.27L9.6-1.3l-1.08-.24-1.1-.23-1.11-.22-1.12-.2-1.13-.19-1.12-.17-1.13-.15-1.13-.14-1.12-.12-1.11-.11-1.1-.09-1.1-.07-1.08-.05-1.06-.04-1.05-.03h-2.03l-.98.02-.96.03-.94.05-.9.05-.89.07-.85.07-.83.08-.79.09-.77.09-.74.1-.71.09-.69.1-.65.1-.63.1-.6.1-.57.11-.55.11-.52.1-.49.11-.47.1-.44.1-.41.1-.38.1-.35.09-.33.09-.31.08-.46.04.22.08.23.07.25.07.28.06.29.06.31.05.33.05.35.04.37.05.38.04.41.04.42.03.43.04.46.04.47.04.49.03.51.04.53.03.54.04.57.05.58.04.59.06.62.05.62.07.64.07.66.08.66.09.68.1.69.11.71.12.71.13.72.14.73.15.74.16.75.17.75.18.76.19.77.2.77.21.78.22.78.22.79.23.79.24.79.24.8.24.8.24.8.25.81.25.8.24.81.24.81.24.81.23.81.23.81.22.81.2.81.2.81.18.81.17.81.16.81.14.8.12.8.11.8.08.79.07.67.12.67.12.66.1.65.1.65.09.63.08.63.07.62.06.61.05.6.04.59.04.58.03.56.02.54.01h.53" filter="url(#a)" transform="translate(-31.12 -22.89)"/><g fill="none" stroke="#000" transform="translate(28.96 -29.54)"><path stroke-linejoin="round" stroke-width="1.667" d="m-16.83 9.47-.69-.12-.65-.12-.62-.11-.57-.12-.54-.12-.49-.12-.46-.12-.42-.12-.38-.13-.34-.12-.3-.14-.27-.13-.23-.14-.19-.15-.15-.15-.11-.15-.08-.16-.04-.16v-.16l.03-.18.06-.17.1-.18.14-.18.17-.19.2-.19.14-.17.18-.18.24-.19.27-.2.33-.21.37-.22.41-.22.46-.23.5-.24.55-.24.59-.25.63-.24.67-.25.71-.25.74-.24.77-.24.81-.24.84-.23.87-.23.9-.22.92-.21.94-.21.96-.19.98-.19 1-.17 1.01-.17 1.02-.15 1.02-.14 1.04-.13 1.04-.12 1.04-.11 1.04-.1 1.04-.08L2.4-.7l1.03-.06 1.01-.05 1.01-.05.99-.03.98-.03.96-.01.95-.02h1.83l.88.01h.85l.84.02.8.01.78.01.75.01.73.01.7.01h.67l.65.01h1.79l.54-.01.51-.01.49-.02.46-.02.43-.02.4-.04.37-.04.34-.04.31-.06.29-.06.26-.07.23-.08.2-.08.17-.1.15-.1.12-.11.09-.12.07-.13" filter="url(#a)"/><path stroke-linejoin="round" stroke-width="2.222" d="m-24.21 8.35.3.01.33.01h.36l.4.01h.42l.45-.01.47-.01.5-.01.51-.03.53-.03.55-.04.56-.05.57-.06.58-.07.6-.08.6-.09.61-.1.61-.12.62-.12.62-.14.63-.15.63-.15.63-.17.63-.18.63-.19.8-.12.8-.15.78-.17.78-.19.77-.22.76-.23.75-.25.74-.27.74-.28.72-.3.72-.31.71-.31.7-.33.7-.33.68-.33.69-.34.67-.34.68-.33.66-.33.66-.33.66-.31.65-.32.65-.3.64-.29.64-.28.64-.26.63-.26.62-.24.62-.22.61-.21.61-.19.6-.18.59-.16.59-.14.58-.13.56-.11.56-.1.55-.09.53-.06.52-.06.51-.04.5-.04.47-.02.46-.01.45-.01h.82l.39.01.36.01.34.01.31.01.3.02.27.01.26.02.23.01.2.02.19.01.16.01h.14l.11.01h.08l.06-.01.03-.01.01-.02-.02-.03-.05-.03-.08-.04-.1-.05-.13-.06-.15-.07-.19-.07-.21-.09-.23-.09-.26-.1" filter="url(#a)"/><circle cx="23.244" cy="-3.863" r="4.47" clip-path="url(#b)" filter="url(#a)"/><circle cx="22.984" cy="-.133" r="3.214" clip-path="url(#b)" filter="url(#a)"/><circle cx="19.499" cy="-2.128" r="4.232" clip-path="url(#b)" filter="url(#a)"/><circle cx="19.964" cy="-.798" r="3.442" clip-path="url(#b)" filter="url(#a)"/><circle cx="23.219" cy="-2.088" r="3.542" clip-path="url(#b)" filter="url(#a)"/><circle cx="20.894" cy="-2.443" r="3.846" clip-path="url(#b)" filter="url(#a)"/><circle cx="20.794" cy=".227" r="4.518" clip-path="url(#b)" filter="url(#a)"/><circle cx="22.824" cy="-3.483" r="3.5" clip-path="url(#b)" filter="url(#a)"/><circle cx="21.924" cy="-2.113" r="3.388" clip-path="url(#b)" filter="url(#a)"/><circle cx="20.164" cy="-3.973" r="4.514" clip-path="url(#b)" filter="url(#a)"/></g><g fill="none" stroke="#000" transform="translate(-31.12 -22.89)"><path stroke-linejoin="round" stroke-width="2.222" d="m21.68 8.92.57-.13.53-.13.5-.14.46-.13.43-.13.38-.14.36-.14.31-.15.28-.15.24-.15.19-.16.16-.17.13-.17.08-.17.04-.18v-.19l-.03-.2-.07-.2-.12-.2-.15-.22-.18-.21-.23-.23L25.3 5l-.3-.23-.33-.24-.24-.21-.3-.23-.35-.24-.41-.25-.46-.26-.51-.28-.57-.28-.61-.29-.66-.3-.71-.3-.76-.31-.8-.3-.83-.31-.88-.3-.91-.3-.94-.3-.98-.29-1-.29-1.03-.27-1.05-.27L9.6-1.3l-1.08-.24-1.1-.23-1.11-.22-1.12-.2-1.13-.19-1.12-.17-1.13-.15-1.13-.14-1.12-.12-1.11-.11-1.1-.09-1.1-.07-1.08-.05-1.06-.04-1.05-.03h-2.03l-.98.02-.96.03-.94.05-.9.05-.89.07-.85.07-.83.08-.79.09-.77.09-.74.1-.71.09-.69.1-.65.1-.63.1-.6.1-.57.11-.55.11-.52.1-.49.11-.47.1-.44.1-.41.1-.38.1-.35.09-.33.09-.31.08-.27.07-.25.08-.23.06-.2.06-.17.05-.15.05-.13.04-.1.03-.09.02-.06.02" filter="url(#a)"/><path stroke-linejoin="round" stroke-width="2.222" d="m28.16 7.85-.29.03-.33.04-.35.03-.38.03-.4.03-.43.02-.46.02-.47.02-.5.01h-1.04l-.54-.01-.56-.02-.58-.03-.59-.04-.6-.04-.61-.05-.62-.06-.63-.07-.63-.08-.65-.09-.65-.1-.66-.1-.67-.12-.67-.12-.79-.07-.8-.08-.8-.11-.8-.12-.81-.14-.81-.16-.81-.17-.81-.18-.81-.2-.81-.2-.81-.22-.81-.23-.81-.23-.81-.24-.81-.24-.8-.24-.81-.25-.8-.25-.8-.24-.8-.24-.79-.24-.79-.24-.79-.23-.78-.22-.78-.22-.77-.21-.77-.2-.76-.19-.75-.18-.75-.17-.74-.16-.73-.15-.72-.14-.71-.13-.71-.12-.69-.11-.68-.1-.66-.09-.66-.08-.64-.07-.62-.07-.62-.05-.59-.06-.58-.04-.57-.05-.54-.04-.53-.03-.51-.04-.49-.03-.47-.04-.46-.04-.43-.04-.42-.03-.41-.04-.38-.04-.37-.05-.35-.04-.33-.05-.31-.05-.29-.06-.28-.06-.25-.07-.23-.07-.22-.08-.19-.09-.18-.09-.15-.1-.13-.11-.12-.11-.1-.13-.07-.13-.06-.14-.04-.14-.02-.16" filter="url(#a)"/><circle cx="7.164" cy="3.848" r="3.036" clip-path="url(#c)" filter="url(#a)"/><circle cx="9.029" cy="6.193" r="4.994" clip-path="url(#c)" filter="url(#a)"/><circle cx="6.374" cy="5.688" r="3.586" clip-path="url(#c)" filter="url(#a)"/><circle cx="8.589" cy="3.718" r="3.194" clip-path="url(#c)" filter="url(#a)"/><circle cx="9.679" cy="5.333" r="4.21" clip-path="url(#c)" filter="url(#a)"/><circle cx="7.804" cy="5.493" r="4.966" clip-path="url(#c)" filter="url(#a)"/><circle cx="7.594" cy="3.163" r="3.716" clip-path="url(#c)" filter="url(#a)"/><circle cx="8.319" cy="3.878" r="4.902" clip-path="url(#c)" filter="url(#a)"/><circle cx="9.469" cy="6.453" r="3.066" clip-path="url(#c)" filter="url(#a)"/><circle cx="6.949" cy="3.853" r="4.666" clip-path="url(#c)" filter="url(#a)"/></g><g fill="none" stroke="plum" stroke-linejoin="round" stroke-width="2"><path d="m-33.31-75.13.35-.39.78-.46 1.03-.5 1-.45.86-.37.72-.29.57-.21.42-.1.23.03.01.17-.21.32-.44.49-.7.64-.96.81-1.25.98-1.55 1.16-1.85 1.35-2.15 1.54-2.51 1.78-2.94 2.04-3.49 2.37-4.16 2.83" filter="url(#a)"/><path d="m-33.64-75.35 2.67-1.2 1.7-.67 1.6-.57 1.71-.58 1.85-.61 1.93-.61 1.96-.59 1.91-.54 1.85-.51 1.77-.48 1.64-.44 1.42-.4 1.11-.33.73-.25.37-.2.02-.1" filter="url(#a)"/><path d="m-18.66-81.29 1.33-.46 1.4-.4 1.52-.32 1.55-.28 1.43-.25 1.26-.21 1.09-.18.99-.15.89-.12.78-.08.65-.04h.44l.2.05-.09.1-.38.15-.68.19-.96.23-1.24.28-1.52.32-1.84.37-2.22.44-2.73.53-3.2.6m78.94 28.39.47.86.57.88.52.82.39.67.28.53.18.48.1.43-.01.35-.15.21h-.35l-.55-.25-.78-.52-1.01-.78-1.25-1.04-1.52-1.33-1.81-1.64-2.13-1.96-2.44-2.28-2.73-2.58-2.99-2.87-3.21-3.2-3.39-3.55-3.52-3.92M12.73-83.04l-.08.06.95.26.95.3.77.32.49.31.15.28-.24.24-.6.21-.95.22-1.25.24-1.58.26-1.97.27-2.43.27-2.98.23-3.56.2-4.16.14-4.72.1-5.34.08-6.12.19" filter="url(#a)"/><path d="m-12.41-82.92 1.46-.14 1.33-.11 1.47-.11 1.74-.07 2.01-.04 2.13-.03 2.12-.02 1.98-.01h3.31l1.32.02 1.13.02.91.03h.55M50.7-62.3l.76 1.16.95 1.07.98 1.08.99 1.14.95 1.14.84 1.05.68.88.51.68.34.46.15.2-.07-.09-.32-.44-.63-.87-1.08-1.44" filter="url(#a)"/><path d="m54.09-58.39.92 1.06.84 1.12.73 1.05.74 1.06.79 1.11.77 1.09.72 1.01.62.88.48.7.32.48.13.2-.07-.06-.26-.34-.49-.65-.75-1.02-.99-1.41-1.14-1.72m8.7 14.35.91 1.94.55 1.22.35.83.24.67.15.64.06.61-.05.48-.19.25-.37-.08-.56-.43-.77-.81-.98-1.16-1.21-1.52-1.46-1.89-1.72-2.28-1.99-2.71-2.25-3.15-2.54-3.63-2.85-4.16-3.17-4.73-3.34-5.17m-72.21-13.61.68-.41 1.06-.5 1-.41.83-.29.7-.21.6-.13.47-.06.3.04.11.14-.08.25-.26.37-.47.51-.73.65-1.05.82-1.42 1-1.81 1.19-2.2 1.36-2.56 1.55-2.92 1.72-3.33 1.93-3.78 2.13-4.22 2.31M18.09-81.6l1.26.48.98.34.98.32 1.18.42 1.38.51 1.46.58 1.44.59 1.31.57 1.13.49.91.41.67.3.47.21.28.13.15.07.01.02-.17-.07-.46-.19-.87-.41-1.37-.66-1.68-.83" filter="url(#a)"/><path d="m52.71-59.78 1.15 1.19.9 1.04.64.84.45.69.33.58.23.51.11.41-.06.26-.28.06-.52-.15-.77-.4-1.03-.62-1.25-.83-1.48-1.02-1.71-1.21-1.99-1.47-2.33-1.78-2.75-2.17-3.2-2.58-3.66-2.96-4.14-3.35-4.71-3.76m-66.21 5.21.6-.38 1.07-.54 1.66-.76 2.09-.88 2.32-.89 2.45-.87 2.53-.85 2.6-.84 2.65-.84 2.64-.83 2.6-.8 2.53-.77 2.45-.73 2.31-.68 2.11-.62 1.88-.54 1.8-.52" filter="url(#a)"/><path d="m54.89-57.59.82 1.22.04.46-.3.24-.62.09-1.01-.13-1.5-.44-2.06-.81-2.69-1.22-3.38-1.67-4.11-2.13-4.81-2.55-5.47-2.94-6.14-3.35-6.94-3.81-8.01-4.35m11.26-1.94 1.53.4 1.63.63 1.74.79 1.74.88 1.72.92 1.68.93 1.6.93 1.5.89 1.44.87 1.39.85 1.37.83 1.34.82 1.28.76 1.16.68.97.54.72.4.47.23.19.06-.17-.19-.68-.57m23.6 29.9.23.58.28.98.03.74-.27.42-.56.2-.83.05-1.11-.07-1.43-.27-1.76-.55-2.13-.89-2.51-1.27-2.91-1.63-3.3-1.99-3.71-2.32-4.13-2.66-4.55-3.02-5-3.4-5.45-3.78-5.97-4.2-6.52-4.62-7.13-5.08-7.7-5.54M59.31-51.2l.64.82.41.79.11.52-.18.27-.43.13-.66.05-.92-.1-1.26-.31-1.63-.61-2.03-.95-2.44-1.27-2.87-1.6-3.3-1.93-3.79-2.26-4.31-2.63-4.81-3.01-5.29-3.37-5.75-3.71-6.31-4.08-7.06-4.5m-37.38 2 1.36-.66 1.47-.55 1.65-.57 1.84-.59 1.93-.57 1.96-.52 1.98-.5 1.97-.48 1.93-.45 1.8-.43 1.62-.39 1.4-.35 1.13-.31.79-.23.19-.12" filter="url(#a)"/><path d="m-37.64-73.01 1.5-.55 1.89-.43 2.23-.25 2.58-.09 3 .04 3.42.15 3.8.25 4.11.35 4.4.46 4.67.54 4.91.64 5.11.71 5.28.79 5.42.84 5.54.91 5.67.94 5.75.97 5.75.98 5.66.92m-61.71-16.45 1.3-.46 1.32-.39 1.38-.31 1.34-.25 1.16-.19.9-.14.66-.09.47-.03.29.03.1.09-.15.18-.46.26-.81.35-1.2.46-1.6.56-1.99.66-2.42.76-2.92.88-3.53 1.04-4.14 1.19m-13.76 7.24.27.07.88-.57.96-.67.84-.59.73-.49.68-.43.61-.34.5-.22.33-.07.13.11-.07.29-.3.49-.54.68-.78.89-1.04 1.1-1.33 1.32-1.64 1.59-2.02 1.92-2.43 2.27-2.87 2.63-3.24 2.97-3.62 3.39m94.59-19.57 1.18.86.68.71.06.45-.42.31-.84.24-1.28.17-1.76.09-2.28-.01-2.84-.14-3.41-.26-4.04-.41-4.75-.58-5.48-.76-6.21-.96-6.95-1.17-7.77-1.38-8.83-1.47" filter="url(#a)"/><path d="m-33.31-75.13.37-.41.87-.48 1.16-.57 1.19-.55 1.1-.51 1.01-.46.91-.41.81-.35.66-.27.5-.17.32-.08.11.04-.1.15-.35.27-.62.4-.93.55-1.21.71-1.5.87-1.79 1.02-2.14 1.19-2.67 1.43-3.41 1.81" filter="url(#a)"/><path d="m45.02-67.32-20.04-4.29-15.29 3.45-9.91 1.75.48-.04 5.98-.5 4.63-.62.59-.97-1.78-1.24-1.29-.77.6.48 1.58 1.83.24 2.31-3.18 1.46-7.02-.38-8.95-2.33-7.88-3.29-5.87-2.28-6.77-.1 1.61-5.32" filter="url(#a)"/><path d="m20.92-80.61-7.17 6.67-17.95.92-8.62-.74.41-.69 5.75.01 7.29.93 5.99 1.69 3.52 2.16 1.53 2.33.89 2.34 1.53 2.15 2.83 1.7 3.98.95 4.15-.1 2.74-1.19-.17-1.94-3.44-1.95-5.18-.92-3.88.96.49 2.91 6.09 3.49 9.48.95 3.59-6.64-22.04-18.42" filter="url(#a)"/><path d="m39.29-71.8-2.62 3.44-1.66 2.41-7.99-3.52-9.2-4.09-7.89-2.15-6.6-.64-5.09-.3-2.54-.55.47-.72 2.49-.68 3-.71 2.65-1.1 1.74-1.61.69-1.35 3.55.12" filter="url(#a)"/><path d="m20.92-80.61-33.26 7.74 7.05 3.53 14.38 1.55 9.4.06 3.85-.54-.68-.67-4.85-.75-7.83-.83-8.14-.8-5.59-.5-1.97.07.18.89-.77 1.68-4.32 2.03-8.11 1.66-9.55.86-7.5.39-2.16.74 7.72 1.3 28.01 2.45 66.61 14.71" filter="url(#a)"/><path d="M62.31-46.59 48.03-56.61l-9.1-2.42-14-4.12-13.35-3.21-6.92-1.69.66-1.07 5.32-1.21 6.17-1.38 4.75-1.07 3.28-.21 2.79 1.09 2.81 2.4 1.81 3.25-1.49 3.04-6.97 1.47-12.47-1.18-14.33-3.94-9.62-5.38 1.13-4.23 15.45.38 40.6 8.4" filter="url(#a)"/><path d="m10.29-83.25-24.27 10.86L.74-65.72l20.34 3.91 14.25 1.37 7.88.33 3.66.14.73-.13-1.73-.86-3.88-1.79-5.43-2.39-6.37-2.4-6.96-1.92-7.22-1.34-6.38-.82-3.35-.27 2.13.5 8.24 1.43 11.5 2.08 9.25 1.98 1.97 1-9.24-1.86-38.05-17.05" filter="url(#a)"/><path d="m5.82-84 8.68 2.23 2.16 1.92 1.89 3.55 2.12 4.93-.61 4.67-4.49 3.33-7.21 1.57-7.99-.5-6.53-2.48-2.32-3.29 3.49-1.94 5.87 1.34-1.85 3.83-17.38.1-4.78-15.17" filter="url(#a)"/><path d="m56.07-55.8-38.67-.49 4.17.32 2.38-2.5-3.57-1.94-4.35.32-1.92 1.89-.72 1.29-2.03-1.21-3.7-3.87-3.7-4.84-2.76-3.45-2.51-.53-1.35 2.55 4.81 4.44 9.42 2.01-30.23-19.48" filter="url(#a)"/><path d="m60.52-49.72-44.55-7.01.54-4.82 5.56-3.03 4.41.26.78 1.52-3 .48-4.2-1.15-2.54-2.09-.23-2.18.46-1.79-.85-1.33-2.73-.86-3.45-.15-2.39 1.15-.44 3.1 1.07 4.93 2.11 4.96 5.58 2.18 17.5.67 30.81 12.35" filter="url(#a)"/><path d="m60.16-50.31-23.67-8.51L1.68-62.6l-23.03.32-6.72.47 4.53-.58 8.67-.87 7.74-.24 4.36.22.47-.58-2.37-2.65-3.05-4.51-1.86-4.4-.41-1.94.11 1.62-3.97 4.96-38.29 10.3" filter="url(#a)"/><path d="m-3.48-84.04-13.17 5.41-8.94 4.13 2.96-.35 10.5-1.37 13.44.52 12.7 2.91 7.89 3.87-.82 2.98-10.87 1.28-17.68.23-17.16.41-8.43.81 4.52-.43 9.77-3.23-26.84.15" filter="url(#a)"/><path d="M-33.64-75.35 19.55-64.3l14.18 2.41-3.1-3.99-9.52-4.69-10.45-2.86-6.99-.75-1.02.63 4 1.05 5.16.71 2.15.1-2.48-.33-4.92-.37-2.69-.15 2.22-.19 1.98-1.01-11.5-2.71-26.52-.5" filter="url(#a)"/><path d="m31-76.7.56 10.9-18.28 1.48L.69-62.84l-6.25-.28-2.22-2.77.33-3.99 1.49-3.55 1.43-2.09.81-.38.22 1.17-.31 2.34-1.04 3.04-1.78 3.13-1.75 2.58-.28 1.34 2.12-.46 3.67-2.63 2.8-4.58.2-5.37-.92-4.34 1.58-2.19 3.29-.72-9.23-1.38" filter="url(#a)"/><path d="M-23.36-80.08 23.6-64.41l6.84 6.61-12.62-.42L4.6-60.43l-7.23-1.89-2.24-1.18 1.2-.28 4.42.67 6.87 1.12 6.65.31 3.17-1.87-1.47-4.33-4.14-5.44-3.34-4.22-.66-1.16-.78 2.45-12.83 6.89-52.57 16.63" filter="url(#a)"/><path d="m-48.21-64.33 39.4-10.28 21.75 2.33 13.01 6.16 6.56 5.04 3.05 2.84.39.78-3.3-1.03-7.38-2.44-9.74-3.3-8.91-3.6-5.34-3.34-.97-2.56 2.32-1.22 4.2.57 5.83 2.57 7.97 4.25 8.39 4.06 1.68-.41-13.46-9.46L-.22-83.91" filter="url(#a)"/><path d="m50.2-62.45-32.49-5.81-18.87-1.09.14-1.28 7.57-.63 7.35.57 4.05 1.13.06.7-2.84.01-3.19-.2-.74.29 3.16.97 6.24 1.24 6.93.78 5.12-.22 1.99-1.2-1.36-1.7-5.09-1.77-10.4-2.01L.67-74.88l-22.21.58-28.61 11.57" filter="url(#a)"/><path d="M48.31-64.37 9.02-72.6l-7.78.11 6.23.25 5.28-1.15 1.58-1.42 1.26.22 4.01 2.87 6.7 4.88 6.67 4.9 3.53 2.89-1 .01-4.26-2.04-4.32-2.07-1.32.01 1.99 3.08.42 4.84-11.05 1.91-26.88-7.98-7.4-20.46" filter="url(#a)"/><path d="m-17.32-81.75 37.87 11.82 7.95 3.38.94 2.33-.37 1.19-1.51-.2-2.76-1.03-2.24-.9.66-.02 4.34 1.05 6.4 1.84 5.48 1.89 1.92 1-2.78-.63-7.22-2.24-10.85-2.97-13.59-2.58-14.1-1.93-11.32-1.5-27.11 4.53" filter="url(#a)"/><path d="m19.97-80.92.41 1.61 1.55 4.67-2.6 2.84-5.67.01-5.16-1.36-2.72-1.52-.45-1.1.87-.25L7.53-75l.77 2.18-.64 2.24-.86.48 3.6-2.04 12.71-1.01 27.09 10.7" filter="url(#a)"/><path d="m-1.06-83.99 23.7 6.83 8.75 3.31 3.14 2.26 1.79 2.7 1.3 3.09-.66 2.04-4.03-.2-7.13-2.43-8.3-3.73-6.74-3.94-2.65-3.28 2.31-2.06 5.35-.79 4.29-.13-.28-.51-7.05-2.21" filter="url(#a)"/><path d="M-20.95-80.79-13-69.24l15.87 1.55 4.23-3.59.08-3.58.62-1.75.72-.12-.6.73-1.78 1.27-1.33 1.94 1.05 2.64 4.39 2.65 6.85 1.42 6.85-.54 4.93-1.51 3.75-.11 1.11.47-23.2-15.29" filter="url(#a)"/><path d="m-45.17-67.22 41.85 1.81 9.4 2.06 1.45-1.13-4.01-3.55-6.75-3.7-7.51-2.31-7.33-.59-6.23.55-3.67.68.31.09 5.08-.53 9.49-.44 12.16.7 11.67 2.59 7.33 4.47 1.35 5.49.88 4.91 13.4 1.4 14.99-9.38" filter="url(#a)"/><path d="m-42.72-69.45 48.18 2.64 12 .23 2.18 2.49-5.25 1.87-8.58.14-7.24-.88-3.53-.82.31-.12 2.88.88 3.12 1.93.79 2.83-2.81 3.34-5.18 3.13-5.22 1.95-5.62-.43-10.71-3.77-16.13-5.93-6.62-2.76" filter="url(#a)"/><path d="m10.29-83.25 3.13 3.2.63 4.44 1.1 3.42 1.39 2.26.01 1.74-.27 2.39 1.12 3.81 1.96 4.74.6 4.17-1.79 2.02-2.6-.79-.69-3.15 2.07-4.47 2.96-4.58 1.95-3.37 2.89-.65 8.56 2.87 14.28 6.16 15.94 14.5" filter="url(#a)"/><path d="M68.59-34.56 32.34-64.64 8.41-74.02l-17.99-.95-8.92 1.4 1.52 1.16 9 .3 10.97-.41 7.7-.76 1.53-.68-4.71-.13-8.79.8-9.39 1.91-6.1 2.98.27 3.63 7.36 3.3 11.7 1.07 10.79-3.03 4.74-6.98-18.31-13.5" filter="url(#a)"/><path d="M-42.98-68.76 16.6-61.2l14.26 3.75-.66 3.03-1.27.45 2.04-2.08 3.51-3.33 1.99-3.51-1.23-3.39-4.03-3.21-4.55-2.45-1.99-.49 2.67 2.63 6.74 5.77 6.64 7.06-.52 4.74-14.88-1.81-29.3-11.29-14.68-15.96" filter="url(#a)"/><path d="m-58.35-52.73 27.64-3.06 21.74-3.51 9.11-3.63L7.64-65l8.85-.74 8.54.19 6.22.8 2.07.38-3.83-1.42-9.81-3.69-12.34-4.7-8.3-3.48L.4-78.7l8.41-.15-9.03-5.06" filter="url(#a)"/><path d="M54.89-57.59 6.98-68.85l-7.69.75 7.42 3.82 6.12 3.41.77 1.41-2.56-.68-2.09-1.71 1.5-1.4 5.85-.25 8.19.8 7.06.93 2.93-.03-2.02-1.58-4.98-2.7-4.01-2.5.69-.93 6.21 1.07 8.28 1.85 4.18.24-5.1-4.04-17.76-10.53" filter="url(#a)"/><path d="m-32.9-75.69 23.92 6.64 17.71 2.69-.48-2.87-9.19-3-8.64-1.44-3.22-.38 2.72.18 6.14.78 6.02 1.46 3.42 1.94.54 1.88-.53 1.24.72.16 3.16-.9 4.78-1.37 4.42-.8 2.53.94.78 3.25 1.14 5.25 5.5 6.09 14.71 4.62 10.84-9.06" filter="url(#a)"/><path d="m56.07-55.8-3.53 2.76-18.55-2.78-18.97-5.86-8.75-4.3 1.22-.92 6.76 2.06 8 3.25 5.84 2.38 1.49.23-2.96-1.93-5.07-3.12-3.66-3.21.12-2.61 3.72-1.6 5.53-.01 6.27 2.27L40.59-65l7.21 4.67 13.93 12.57" filter="url(#a)"/><path d="m-.22-83.91 6.75 15.44-18.63 4.12-6.94-.17 5-1.35 8.93-.83 7.14 1.03 3.35 3.26-.35 4.45-3.07 3.75-4.1 1.49-2.59-1.13 1.18-2.91 4.47-3.43 3.07-3.27-4.3-3.13-10.13-2.84 2.24-1.81 46.12-1.44" filter="url(#a)"/><path d="M60.16-50.31 48.82-61.27l-9.58-6.22-7.55-3.6-7.53-1.13-9.79.52-10.9 1.21-8.4 1.18-3.06.7 2.21.1 4.77-.42 3.82-.78.63-.92-2.46-.87-3.46-.64-1.65-.2 2.19.57 6.43 1.62L14-67.5l10.05 3 6.18 2.1-5.19.04-26.83-1.17-56.1 9.92" filter="url(#a)"/><path d="M-28.57-77.78 4.29-76.5l7.77.51 4.02 1.73 4.18 2.43 3.41 2.33.8 1.59-2.76.57-5.75-.35-6.85-.83-5.62-.68-2.72-.04.43.81 2.73 1.57 3.98 2.01 4.81 1.97 5.63 1.33 5.88-.08 4.55-2.04 1.66-3.77-1.15-3.91-2.15-1.38-3.33 3.4L8.8-61.79l-63.27 4.03" filter="url(#a)"/><path d="m6.88-83.89-29.86 9.82-2.22-1.43 3.37-2.49 2.08-1.33.26-.4-.14-.09.61-.02 1.91.28 3.42 1.09 5.03 2.35 6.54 3.83 7.77 5.15 8.83 5.95 10.03 6.02 11.16 5.26 11.09 3.64 8.38 1.11 2.88-2.18-4.22-6.03-13.1-11.11-27.97-18.57" filter="url(#a)"/><path d="m-48.21-64.33 55.5-.83 4.24-6.75-6.09-4.17-1.11-.22 5.26 3.12 6.81 4.56 2.91 3.64-3.62 1.27-9.26-.86-11.67-1.58-10.32-.87-6.01.34-.37 1.1 4.53 1.1 6.41.55 3.95-.26-2.08-1.44-8.3-3.32-9.06-5.29-3.46-2.71" filter="url(#a)"/><path d="m50.7-62.3-37.56-3.38-1.47-1.46-6.4-1.9-10.49-1.83-7.48-.94-1.55-.04 2.72.09 3.26-.38 1.11-.53-.46.47 1.45 2.21 6.36 2.96 9.79.65 6.94-4.59.84-7.7 2.21-2.25" filter="url(#a)"/><path d="m-25.63-79.33 32.07-.15 11.62.99 4.49 3.65.51 4.87-1.47 3.72-.05 1.74 3.49.35 5.64-.53 3.66-1.56-2.25-2.85-9.89-3.51L5.47-75.2l-20.28-.06-16.55 1.87 1.41-3.56" filter="url(#a)"/><path d="m-55.54-56.55 24.12-14.71 12.6-3.9 8.33 2.29L.09-68.84l11.33 3.29 8.08 1.97 3.32.96.07.35-.83-.16-.39-.68.11-1.06.32-1 .58-.38 1.16.62 1.68 1.5 1.24 1.69-1.1.94-5.78-.38-12.09-1.11-16.9.39-12.55 4.87 13.73 10.76 78.41 17.81" filter="url(#a)"/><path d="M61.65-48.2 30.71-65.87l-5.15-4.82-4.86-1.93-6.63-.33-6.76.26-5.36.17-3.08.27-.54.94 1.55 1.77 2.39 2.16 1.57 1.83-.41 1.03-2.23.31-2.48.15-.58.58 2.78 1.16 5.87 1.12 6.68-.18 4.22-2.7-.21-5.28-3-5.7-.23-1.95 10.47 6.83 37.59 23.59" filter="url(#a)"/><path d="M27.01-78.59-2.24-68.03l5.03.61 1.81-1.22-1.33-2.05-1.25-2.75-.61-2.81.06-2.13.93-1.08 1.4.01.79.98-.41 1.64-.85 1.51 1.16.07 7.56-2.35 9.77-2.98m-52.93-26.06 2.93.98 2.36 1.86 1.9 1.99 1.61 1.64 1.51 1.06 1.5.36 1.53-.23 1.53-.55 1.5-.52 1.45-.11 1.4.6 1.41 1.54 1.49 2.45 1.56 3 1.59 2.86 1.49 2.02 1.33.94 1.12.47.93 1 .75 1.37" filter="url(#a)"/><path d="m-28.85-82.77.88.03 1.27-.24 1.23-.19 1.13-.07 1.11-.01 1.12-.05 1.11-.13 1.08-.21 1.06-.24 1.1-.2 1.18-.11 1.27-.02 1.33.02h1.34l1.27-.11 1.19-.24 1.11-.35 1.11-.38 1.17-.26 1.25-.06 1.3.11 1.26.08 1.16.03.76 1.38.9.38 1.12.89 1.12.81 1.03.51 1.02.29 1.08.22 1.14.32 1.14.53 1.07.75.98.86.91.84.88.72.9.61.94.66.95.95.91 1.43.88 1.84.89 1.77.92 1.35" filter="url(#a)"/><path d="m-3.48-84.04 1.47-1.54.99-2.41 1.01-3.36 1.13-2.93 1.21-1.94 1.23-1.35 1.27-1.19 1.34-.96 1.41-.27 1.43.56 1.41.93 1.37.35 1.35-1.03 1.42-2.58 1.74-3.32 3.09-1.02-.19 28.3.18-.19-.71-.5-1.06-.63-1.18-.6-1.18-.53-1.14-.48-1.07-.43-1.02-.39-1.01-.34-1.05-.27-1.11-.21-1.17-.15-1.2-.12-1.18-.12-1.13-.15-1.09-.18-1.06-.2-1.05-.19-1.03-.15-1-.11-.98-.09-1.06-.1-.89-.08m-20.53-10.56 1.25-.49 1.18.17 1.23 1.14 1.39 1.65 1.56 1.65 1.66 1.36 1.67.99 1.56.57 1.37.21 1.17.04 1.05.22 1.12.62 1.3.81 1.52.62 1.5 1" filter="url(#a)"/><path d="m15.78-71.18-1.08-1.16-1.02-.87-.96-.85-.9-.79-.85-.75-.85-.78-.89-.88-.98-1.02-1.05-1.1-1.08-1.06-1.08-.9-1.05-.65-1.03-.39-1.03-.2-1.03-.11-1.02-.17-1-.28-.99-.38-1.02-.31-1.02-.14h-1l-4.88.65 1.5-.06 1.28.28 1.32.48 1.28.74 1.18 1.01 1.07 1.11.99 1.04.95.87.95.74.94.72.91.76.83.73.81.51 1 .12 1.14-.36" filter="url(#a)"/><path d="m-9.62-83.25.29-.13.9-.14 1.15-.09 1.25-.04h1.25l1.18.05 1.09.09 1.03.11 1 .14 1.01.17 1.03.19 1 .2.93.2.9.22 1.09.3 1.2.51-35.59-1.47.69-.44 1.27-.15 1.33.12 1.19.19 1.1.09 1.1-.06 1.1-.14 1.07-.14 1.03-.08 1.02-.01 1.1.04 1.24.06 1.45.06 1.63.09 1.66.09 1.31-.03.13-1.4.93.04 1.18.14 1.27-.14 1.25-.44 1.18-.69 1.1-.84 1.04-.92 1.03-.93 1.07-.83 1.13-.63 1.1-.36.94-.05.87.1 1.66-.07-41.92-2.82.66 1.08 1.56 1.42 1.63 1 1.49.38 1.38.08 1.37.21 1.39.55 1.41.82 1.41.87 1.39.79 1.31.65 1.2.41 1.06-.06.95-.69 1.01-1.08 1.36-.4 2.05 1.63 2.31 2.35-4.69.72 2.34-.43 1.58-.29 1.11-.29.95-.37.98-.41 1.07-.4 1.17-.36 1.2-.32 1.19-.33 1.13-.34 1.08-.35 1.06-.3 1.06-.22 1.08-.14 1.07-.1 1.01-.13.99-.19 1.19-.2 1.33-.01-42.73 5.73.54-.26 1.61-.01 1.58.2 1.39.16 1.27.05 1.22-.02 1.22-.03h2.34l1.11.01 1.11.02 1.15.04 1.13.01 1.01-.07.87-.16.92-.27 1.33-.28" filter="url(#a)"/><path d="m-36.41-59.2-.39-.96.49-1.01.86-.65.87-.57.72-.8.6-1.14.56-1.3.62-1.25.72-1.02.83-.78.87-.68.86-.77.79-1 .7-1.27.64-1.42.66-1.41.73-1.22.82-.95.87-.73.87-.67.87-.75 1-.83 1.29-.74 1.6-.66" filter="url(#a)"/><path d="M-17.96-81.78v.08l.76-.48 1.07-.85 1.23-1.12 1.26-1.31 1.21-1.39 1.11-1.35 1.08-1.21 1.08-1.03 1.16-.93 1.22-1.03 1.26-1.34 1.27-1.72 1.23-1.98 1.22-2.02 1.23-1.88 1.26-1.73L2-104.8l1.33-1.85 1.35-1.95 1.42-1.83 1.64-1.45 2.01-.97 2.4-.34-32.01 32.21.74-2.15.66-.59.75-1.07.9-1.54 1.13-1.43 1.28-1.08 1.32-.86 1.24-.83 1.15-.91 1.1-1.03 1.13-1.13 1.22-1.21 1.28-1.21 1.32-1.01 1.29-.59 1.2-.16 1.06-.18.93-1 .92-2.1m-55.91 20.38 2.05.53 1.93.03 1.74.03 1.72.11 1.65.11 1.55.05h1.48l1.45-.06 1.43-.14 1.4-.21 1.34-.27 1.29-.3 1.25-.33 1.21-.42 1.15-.55 1.09-.71 1.04-.77 1.08-.64 1.2-.3 1.34.18 1.43.74 1.4 1.27 1.32 1.39 1.66.15-2.41.71.03.29-.56.71-.91.76-1 .73-.96.76-.92.77-.95.72-.98.64-1 .6-.97.62-.93.71-.89.81-.85.92-.83.97-.81.96-.8.9-.81.81-.84.76-.86.79-.84.86-.79.98-.78 1.14-.74.92 19.27-18.08-1.19-1.25-1.15.78-1.1.88-1.12.48-1.22.08-1.31-.12-1.3-.06-1.22.19-1.11.45-1.07.6-1.1.58-1.22.44-1.33.24-1.38.09-1.37.04-1.34.08-1.36.14-1.43.14-1.42.18-1.3.46-1.99 1.04 23.15-3.82-.81-.33-1.09-.1-1.05.39-1.05.6-1.05.62-1.04.56-1.04.48-1.11.42-1.19.37-1.26.34-1.22.32-1.14.29-1.12.25-1.26.26-1.52.5-1.35 1" filter="url(#a)"/><path d="m-28.57-77.78 1.4.72 1.23.31 1.1-.35.97-.62.91-.61.93-.45.99-.25 1.05-.1 1.05-.05 1.05-.09 1.04-.14 1.1-.15 1.18-.09 1.26.03 1.3.14 1.24.22 1.15.25 1.07.28 1.06.29 1.14.24 1.21.1 1.15-.02.76.03-26.37.81.13-.27.54-1.06.67-1.29.83-1.06.97-.79.98-.81.86-1.21.7-1.81.59-2.33.54-2.59.59-2.49.71-2.13.89-1.67 1.09-1.32 1.28-1.15 1.41-1.11 1.48-1.15 1.41-1.24 1.26-1.46 1.07-1.79 1.04-2.19 1.3-2.7 2.17-4.61" filter="url(#a)"/><path d="m-33.64-75.35 2.55-1.17 1.36-.55 1.08-.39 1.03-.37 1.05-.38 1.06-.36 1.06-.31 1.05-.22 1.05-.12 1.07-.04h1.08l1.07.01h1.04l1.05-.04 1.08-.08 1.19-.12 1.29-.17 1.35-.19 1.28-.19 1.08-.07.91.07 1.3.02" filter="url(#a)"/><path d="m-7.41-77.54-.49-.47-.78-.16h-.89l-1.07.08-1.22.12-1.29.11-1.27.06-1.19-.02-1.13-.11-1.09-.16-1.09-.19-1.09-.18-1.1-.12-1.07-.01-1.04.13-1.01.32-.98.5-.97.61-.97.61-1.03.48-1.16.28-1.35.13-1.5.03-.71-.19-4.74 2.68-.84 1.33-.14 1.48-.4 1.31-.81.91-1.03.63-1.01.61-.86.79-.62 1.08-.39 1.36-.23 1.47-.23 1.39-.34 1.15-.43.98-.35 1.05-.02 1.34.2 1.38m5.57-16.54-1.7 1.22-1.09.84-.93.74-.91.76-.89.76-.85.76-.79.74-.75.74-.71.73-.71.73-.71.74-.72.77-.74.81-.8.94-.92 1.14-1.15 1.67" filter="url(#a)"/><path d="m-22.2-77-.78.03-1.2.44-1.14.48-1.07.4-1.05.3-1.11.21-1.15.17-1.17.18-1.12.24-1.1.31-1.09.37-1.13.43-1.16.48-1.1.51-.97.52-.83.49-.94.6-1.63 1.04M73.12-18.65l.65 2.1.64 1.42.97 1.08 1.26.88 1.4.81 1.38.8 1.16.87.87.99.6 1.12.52 1.27.65 1.44.92 1.56 1.29 1.65 1.66 1.69L89.1.7l2.34 1.48 2.24 1.14" filter="url(#a)"/><path d="m-22.67-78.61-.75.22-1.23.42-1.19.45-1.08.42-1.05.42-1.05.43-1.05.46-1.06.49-1.03.51-1.04.53-1.05.53-1.08.54-1.09.53-1.07.54-1.02.54-.97.57-.98.63-1 .67-1.02.64-1.07.63-1.62 1.22m-1.05.88-1.27.62-1.24.07-1.05.25-.91.5-.9.61-.98.59-1.1.58-1.16.57-1.18.55-1.13.48-1.07.37-.98.33-.91.48-1.02.79-1.38.98-1.48.76" filter="url(#a)"/><path d="m-70.57-56.68 2.26-.83 1.75-.55 1.81-.36 1.52-.64 1.05-1.02.7-1.12.69-.89.95-.49 1.29-.17 1.52-.07 1.52-.2 1.33-.44 1.02-.71.79-.86.94-.6 1.61.29 1.51.83.42-1.3.5-1.36.3-1.7.12-2.08v-2.42l-.04-2.58.06-2.5.28-2.13.61-1.54.99-.85 1.32-.31 1.47-.18 1.33-.61.92-1.46.38-2.45.01-3.16.13-3.22.75-2.53.18-2.24 6.03 15.48-.59.77-1.07 1.18-1 .87-.96.74-.96.86-.94 1.03-.91 1.11-.88 1.07-.88.97-.91.86-.95.81-.94.84-.87.99-.74 1.18-.61 1.33-.57 1.34-.62 1.16-.7.86-.62.63.06.72" filter="url(#a)"/><path d="m-50.15-62.73-2.09-1.7-1.05.31-1.17.58-1.47.38-1.68.08-1.79-.19-1.82-.29-1.8-.2-1.75.01-1.65.32-1.49.63-1.32.92-1.18 1.1-1.19 1.14-1.37 1.02-1.63.78-1.91.47-2.23.13-2.81-.21-3.68-.24-3.98.9m173.4 6.72-1.48 1.85-1.15 2.54-.04 1.85.89 1.16 1.14.92.76 1.19-.05 1.73-.98 2.26-1.8 2.61-2.31 2.71-2.36 2.52-1.91 2.14-1.12 1.72-.25 1.45.38 1.39.39 1.28-1.23.79" filter="url(#a)"/><path d="m-52.87-59.97-.88 1.76-.33 1.14-.32.84-.5.8-.67.87-.77.98-.76 1.1-.63 1.22-.44 1.38-.21 1.53-.02 1.64.1 1.67.11 1.63.02 1.53-.13 1.39-.28 1.28-.38 1.16-.33 1.08-.2 1.03-.02 1 .11.99.17.99.35 1.01.65 1.24 5.36-29.26.76-.73.68-.94.61-.96.64-.85.73-.75.76-.71.77-.73.76-.8.78-.86.8-.91.83-.93.87-.93.9-.91.91-.9.87-.89.8-.89.78-.9.89-.89 1.11-.86 1.18-.6-18.49 19.47.63-.92.76-1.34.67-1.36.54-1.34.44-1.3.45-1.21.54-1.06.66-.9.75-.79.78-.83.75-.98.65-1.22.55-1.48.46-1.71.43-1.83.5-1.76.62-1.48.72-1.16.73-1.09.7-1.56.74-2.29-13.42 27.76-3.42-2.35-2.7-.9-1.67.55-1.08 1.15-.7 1.44-.49 1.56-.53 1.53-.76 1.31-1.12.98-1.45.69-1.68.53-1.73.55-1.67.68-1.63.74-1.71.62-1.91.33-2.01.1-1.79.2-1.39.47-1.04.01" filter="url(#a)"/><path d="m-59.75-51.02-.84 1.65-.59 1.36-.27 1.4-.07 1.45-.1 1.41-.26 1.35-.42 1.23-.52 1.11-.55.98-.52.88-.43.84-.31.91-.11 1.06.1 1.27.3 1.48.41 1.61.39 1.62.2 1.47-.04 1.27-.21 1.13-.14 1.16.14 1.3.24 1.19-.12-23.07-1.17-.92-.57 1.16-.58 1.47-.7 1.21-.87.84-1.14.49-1.52.23-1.91.05-2.18.04-2.16.24-1.86.63-1.46 1.06-1.28 1.21-1.52 1.03-1.92.69-2.14.58-2.5.21 35.07-44.08-.11 1.81-.4 1.62-.65 1.15-.79.92-.81.9-.73 1.05-.54 1.31-.33 1.61-.12 1.85v1.91l.03 1.83-.03 1.66-.15 1.47-.3 1.36-.46 1.3-.63 1.25-.79 1.19-.9 1.1-.99 1.06-.94 1.12-.62 1.43.19 2.19.48 2.77-.52 1-.96 1.83-.81 1.07-.75.73-.6.67-.48.75-.45.84-.48.96-.57 1.07-.66 1.16-.74 1.19-.83 1.16-.9 1.1-.92 1.03-.89 1-.82 1.01-.74 1.02-.7 1.05-.69 1.06-.64 1.09-.56 1.08-.45 1.16-.65 1.78 12.56-18.64-1.37-2.13-1.73-2.39-.16-1.71.92-1.2.91-1.18.25-1.55-.44-2.01-.73-2.28-.65-2.35-.45-2.33-.43-2.4-.56-2.54-.52-2.6-.1-2.75.14-4.07" filter="url(#a)"/><path d="m-66.72-38.79-.93-.11-1.76.1-1.97.18-1.71.56-1.38.97-1.06 1.22-.83 1.28-.77 1.22-.84 1.1-.9 1.04-.84 1.05-.74 1.09-.85 1.07-1.34.95-1.87.8-1.69.62-.24.57m19.72-13.71.67-.87.76-.83.85-1.03.79-1.18.67-1.18.6-1.11.59-1.06.66-1.05.74-1.05.81-1.04.85-1.03.88-1.01.9-1.02.93-1.06.93-1.04.84-.82.61-.42m8.57 3.3-1.05.5-1.39.18-1.24.03-1.09.05-1.02.21-.96.46-.92.69-.9.84-.89.91-.9.91-.91.92-.89.91-.91.87-.95.83-1.02.79-1.1.75-1.12.77-1.05.8-.86.85-.6.87-.45.82-.57.7-.94.48-.71.07" filter="url(#a)"/><path d="m-55.45-47.34-1.36 1.04-.81 1.05-.68.99-.76.85-.91.76-1.03.76-1.07.79-1.01.82-.87.77-.75.72-.69.64-.67.62-.65.66-.59.78-.57 1.07-.74 1.62-1.18 2.78-3.75-35.83 1.29 2.95.36 2.44-.29 1.94-.28 1.84.06 1.96.29 2.01.27 1.96.13 1.87.03 1.78.02 1.69v1.53l-.08 1.31-.18 1.1-.14 1.04.2 1.21.76 1.59 1.12 2.04.74 2.44-.55 3.13-.49-.04-.35.7-.4 1.01-.42 1.1-.45 1.09-.45 1.07-.43 1.08-.41 1.1-.4 1.15-.42 1.18-.45 1.2-.48 1.2-.45 1.18-.4 1.18-.34 1.25-.34 1.37-.41 1.31-.41.69 28.11-32.64-.75.61-1.37.34-1.48.36-1.24.53-.94.72-.77.8-.77.82-.86.81-1.01.75-1.14.64-1.2.51-1.17.42-1.04.42-.91.48-.88.55-.99.64-1.16.8-1.21 1.14-1.06 1.45-.52.86" filter="url(#a)"/><path d="m-61.87-1.03-1.8-1.23-.97-1.4-.31-1.37-.01-1.28-.05-1.21-.24-1.13-.39-1.1-.43-1.08-.41-1.11-.44-1.17-.56-1.25-.68-1.32-.73-1.37-.64-1.37-.38-1.34-.04-1.23.32-1.12.57-1 .48-1-.19-1.23-1.17-1.61-.89-1.31m0 0 1.74-.92 1.42-.61.76-1.05.37-1.39.28-1.42.31-1.24.37-1 .48-.8.62-.63.76-.51.86-.51.89-.67.97-.96 1.33-1.23 1.75-1.34M71.76-25.02l.32 2.83-.27 1.81-.17 1.37v1.31l.06 1.33.08 1.32.08 1.22.06 1.13-.07 1.04-.28 1.02-.52 1.02-.74 1.07-.85 1.13-.85 1.2-.77 1.28-.71 1.33-.68 1.37-.65 1.37-.53 1.29-.24 1.09.17.8 14.76-6.75-.38-2.14-.49-1.16-.51-.99-.45-.99-.42-.96-.42-.94-.38-.98-.31-1.06-.24-1.17-.26-1.27-.33-1.33-.41-1.31-.44-1.27-.53-1.26-.78-1.31-1.03-1.29-.67-.39-1.3-4.16-.35-1.13-.43-1.74-.31-1.53-.23-1.28-.13-1.22.05-1.34.26-1.52.45-1.66.54-1.73.54-1.77.51-1.82.52-1.97.57-2.13.58-2.21.5-2.13.32-1.91.09-1.6-.15-1.4-.27-1.43-.11-1.72.34-2.09 1.03-2.51" filter="url(#a)"/><path d="m70.48-28.46.53.45 1.18.78 1.66.67 1.85.57 1.81.67 1.7.84 1.6.98 1.5 1.06 1.33 1.16 1.1 1.3.92 1.43 1.17 1.39 2.1 1.11 3.15.73 1.86.7M70.48-28.46l-.89-2.76-.59-1.52-.54-1.01-.61-.82-.68-.82-.7-.91-.65-.97-.56-.98-.51-.92-.53-.88-.65-.89-.8-.99-.92-1.12-1.03-1.25-1.47-1.62 9.87 13.35-.13-.79.08-1.04.68-1.47 1.08-1.86.91-1.89.37-1.62-.24-1.28-.59-1.08-.66-1.11-.51-1.3-.29-1.53-.13-1.66-.05-1.66-.08-1.55-.16-1.4-.31-1.26-.51-1.15-.71-1.09-.8-1.16-.61-1.46-.16-1.99.19-2.35-.49-1.51 10.98-2.39-1 2.53.01 1.82-.3 2.06-.81 2.29-1.01 2.32-.86 2.21-.57 2.1-.38 2.06-.35 2.05-.34 1.96-.16 1.75.26 1.39.77 1.04 1.06.85.86.98.25 1.28-.04 1.34.62.88.83.62-6.7 4.07" filter="url(#a)"/><path d="m68.42-34.67.82.23.39 1.09.52 1.43.7 1.48.8 1.38.83 1.25.8 1.14.75 1.1.72 1.1.71 1.14.71 1.19.71 1.23.72 1.28.78 1.29.9 1.27 1.04 1.21 1.13 1.12 1.09 1.03.88 1 .58 1.02.36 1.06.37 1.08.49.88.38.16M66.41-66.09l-.69 2.66.28 1.89.31 1.8.02 1.9-.15 1.91-.11 1.74.11 1.45.38 1.16.57 1.03.58 1.1.42 1.33.17 1.57-.01 1.67-.05 1.59.08 1.36.25 1.18.21 1.25-.11 1.6-.39 1.86.14 1.37m-.63-1.03-.03 1.03-.31 1.15-.11 1.34.25 1.43.5 1.42.54 1.38.4 1.32.2 1.29-.03 1.29-.25 1.32-.48 1.37-.69 1.45-.87 1.49-.91 1.5-.76 1.46-.45 1.36-.1 1.22.14 1.06.12.96-.17.91-.56.92-.87 1-.88 1.09-.32 1.12" filter="url(#a)"/><path d="m65.53-40.8 1.05-2.85.6-2.49-.07-1.86-.13-1.56-.11-1.34-.22-1.12-.33-1.1-.27-1.29-.05-1.64.2-1.98.43-2.3.79-2.72 1.53-3.29 2.43-3.64 2.21-2.17" filter="url(#a)"/><path d="m64.96-42.53-1.02-1.54-.75-1.3-.58-1.12-.43-.94-.38-.89-.43-.92-.52-.98-.63-1.01-.7-1.02-.73-1.02-.69-1.02-.61-.99-.51-.96-.49-.96-.66-1.1-.77-1.14L87.45-29.5l-1.39-.7-2.28-.89-1.7-1.24-1.13-1.51-.89-1.56-.96-1.36-1.25-1-1.66-.63-1.96-.39-2.01-.35-1.82-.44-1.47-.56-1.18-.63-1-.66-.94-.75-.93-.94-.89-1.1-.6-.83" filter="url(#a)"/><path d="m88.37-41.58-1.43-.37-.83-.77-1.02-.74-1.57-.6-2.05-.46-2.16-.42-1.82-.53-1.3-.73-.94-.91-1.02-.92-1.38-.86-1.59-.89-1.34-1.07-1.08-.91-1.96.71-4.57 4.46.03-.93 2-.67 3.45-.84 3.43-.53 2.34.25 1.13.97.51 1.26.68 1.13 1.24.8 1.66.61 1.62.65 1.18.89.67 1.12.5 1.25.89 1.26 1.76 1.24L88.2-37l3.48.09L61.5-81.94l-.73 4.67-.21 2.81.4 1.72.4 1.59.03 1.97-.31 2.32-.4 2.41-.28 2.19-.09 1.86.07 1.6.12 1.54.07 1.63-.03 1.77-.15 1.78-.09 1.48.22.88-.36-.59-1.22-.48-.65-1.13-.63-1.16-.72-.97-.81-.76-.92-.62-1.01-.58-1.04-.59-1-.66-.93-.72-.88-.76-.86-.77-.91-.71-.99-.63-1.09-.55-1.16-.47-1.15-.44-1.08-.43-.97-.45-.96-.56-1.32-.94" filter="url(#a)"/><path d="m54.05-91.54.75 2.71.63 2.46.23 2.45-.15 2.74-.26 2.86-.11 2.68.24 2.19.63 1.6.97 1.09 1.15.79 1.1.77.88 1.01.55 1.36.2 1.74-.09 2.01-.25 2.07-.07 1.81.61 1.15 1.61.34 1.44.62-4.8 5.89m-9.17-23.78.92.5.78 1.22.53 1.73.35 1.88.36 1.75.48 1.49.61 1.24.7 1.09.68 1.08.62 1.16.5 1.31.36 1.44.16 1.49-.03 1.42v1.28l.42 1.13-2.69-3.82-2.68 1.19-1.46-.07-.74-.79-.66-.9-.76-.82-.9-.7-.99-.63-1.03-.62-1.01-.63-.97-.64-.95-.59-.99-.48-1.04-.33-1.07-.18h-1.1l-1.19.27-1.46.56-1.79.65-1.69.18 21.68 3.73-.66-1.29-.44-1.18-.36-1.37-.41-1.4-.53-1.34-.67-1.21-.81-1.09-.9-.97-.95-.87-.96-.82-.93-.81-.87-.85-.79-.94-.7-1.06-.66-1.15-.7-1.17-.8-1.12-.92-1.06L40-79.15l-1.12-1.21-1.14-1.46-.91-1.48-.28-1.13" filter="url(#a)"/><path d="m51.13-61.06.14-1.79.47-2.46-.11-1.93-.64-1.35-.82-1.16-.82-1.09-.88-.93-.99-.72-1.03-.6-.94-.72-.75-1.02-.55-1.42-.38-1.81-.32-2.09-.35-2.23-.51-2.18-.82-1.98-1.12-1.74-1-1.55-.27-1.28L50.7-62.3l1.75-.13.76 1.03.8.92 1.11.64 1.36.41 1.48.26 1.59.12 1.68.05 1.67.12 1.57.32 1.47.51 1.58.49 1.99.16 2.5-.35 2.74-.69 2.38-.54 1.68.18 1.44.85 2.18.16-32.23-4.66.66.31.96.49 1.09.49 1.1.53 1.11.59 1.16.58 1.17.54 1.1.54.98.63.88.77.84.93.85.98.93.94 1.04.9 1.31 1.05 2.14 1.69" filter="url(#a)"/><path d="m61.12-43.44-.94-1.71-.37-.83-.34-.72-.43-.87-.5-1.02-.5-1.13-.48-1.19-.46-1.21-.46-1.18-.47-1.12-.53-1.05-.61-1-.69-.96-.77-.92-.83-.86-.86-.8-.86-.77-.82-.86-.76-1.13-1.13-1.6" filter="url(#a)"/><path d="m41.21-100.14.77 1.82.36 2.47.47 2.81.36 3.23.07 3.5v3.3l.24 2.59.62 1.67.9.94.91.71.66 1.02.31 1.65-.02 2.23-.23 2.39-.2 1.97-.27 1.65L33.89-92.4l.92 1 .49 1.12.04 1.9v2.27l.22 2.15.52 1.85.76 1.58.87 1.47.87 1.46.81 1.44.83 1.26.95.91 1.11.44 1.13.12.79.49.1 2.05.25 3.2-9.32-24.4.33 1.66.58.18.74.42.66 1.15.56 1.8.56 2.15.64 2.16.69 2.01.63 1.91.51 1.91.52 1.78.74 1.19 1.05.16.81-.03-1.62 4.44 15.16 21.72-.35-.74-.53-.91-.56-1.07-.55-1.13-.51-1.11-.48-1.09-.48-1.09-.5-1.1-.55-1.11-.6-1.1-.65-1.04-.7-1-.75-.94-.81-.9-.86-.87-.92-.84-.94-.81-.95-.81-.9-.83-.83-.9-.79-.99-.8-1-.69-.75-.05-.04-1.03-.94.61.54.54.44.75.61.88.72.91.75.9.78.91.8.93.84.92.86.9.87.87.87.84.87.83.86.81.86.82.88.84.93.82.96.73.91.52.74.46.67-15.79-15.76-1.91-.15-1.15-.67-1.08-.55-1.18-.51-1.24-.5-1.21-.42-1.12-.26-1.04-.12-.96-.03-.93.03-.97.09-1.06.18-1.2.32-1.34.46-1.44.64-1.51.83-1.52.99-1.37 1.01-1.02.73-.6.24-.73.17" filter="url(#a)"/><path d="m37.92-72.68 2.68-1.36 2.96-2.23 1.97-1.09 1.09.21.67 1.03.59 1.32.66 1.29.8 1.15.96.95 1.14.76 1.32.55 1.47.37 1.6.2 1.72.06 1.8-.02h1.8l1.75.14 1.63.34 1.53.48 1.52.42 1.58.13 1.66-.04 1.69.3m-34.59-4.96-.56-.31-1.08-.6-1.29-.72-1.2-.66-1.04-.54-.9-.43-.8-.35-.77-.31-.8-.31-.9-.35-1.01-.39-1.11-.44-1.2-.46-1.29-.47-1.37-.47-1.39-.4-1.42-.3 5.14-23.14.63 1.52.33 1.53.61 1.78.96 1.75 1.07 1.78.97 2.06.74 2.48.53 2.7.45 2.51.48 1.91.62 1.12.79.44.91.15.79.56.44 1.74.32 3.2 1.94 3.2" filter="url(#a)"/><path d="m33.03-75.37-.63-.31-1.03.05-1.05.38-1 .38-.96.06-.98-.27-1.03-.42-1.14-.33-1.24-.1-1.3.18-1.28.4-1.23.54-1.16.61-1.12.66-1.15.71-1.22.74-1.25.63-1.23.39-1.14.15-1.04.31-.99 1.22-1.39 2.65m24.38-9.15.72-.07 1.3.28 1.44.55 1.41.4 1.49.03 1.7-.44 1.94-.92 2.17-1.34 2.31-1.62 2.46-1.75 2.53-1.7 2.43-1.36 2.09-.77 1.82-.19 2.45-.38 5.35-2.32" filter="url(#a)"/><path d="m31.38-76.25-1.05.13-.55-.09-.81-.07-1.12.04-1.3.12-1.37.14-1.35.08-1.28.03-1.19.02-1.1.1-1.04.22-1.05.37-1.12.52-1.2.6-1.26.58-1.24.41-1.15.21-1.04.21-.93.5-.84.78-.66.67m9.84-33.06 1.29 3.76 1.03 3.46.9 2.53.83 1.46.83.85.83.91.84 1.42.86 1.83.98 1.74 1.17 1.13 1.34.44 1.27.35.69 1.37-.38 2.97-1.28 2.43L13.14-98.7l2.78 1.77 1.5 1.57 1.19 1.77 1.1 1.69.98 1.53.84 1.4.73 1.29.75 1.24.83 1.28.91 1.39.96 1.49.95 1.53.95 1.42 1.03 1.17 1.13.85 1.23.61" filter="url(#a)"/><path d="m25.92-79.12-.56-8.46-1.25-1.15-.92-.56-.71-1.05-.72-1.56-.86-1.83-1.01-1.8-1.17-1.51-1.24-1.1-1.27-.76-1.22-.64-1.13-.87-1.06-1.5-1.08-2.29-1.25-2.76-1.58-2.46-2.02-1.64-2.74-.6" filter="url(#a)"/><path d="m19.97-80.92 1.68-.51 1.79-.77 1.74-.54 1.63-.36 1.56-.37 1.52-.49 1.44-.57 1.32-.55 1.18-.41 1.11-.23 1.17-.16 1.41-.29 1.78-.61 2.16-.94 2.37-1.12 2.3-1.18 2.04-1.13 2.03-.6-30.23 10.83 1.56-.05 1.7-.45 1.65-.27 1.58-.22 1.63-.55 1.78-1.15 1.9-1.72 1.91-2.01 1.79-1.84 1.57-1.24 1.37-.44 1.29.19 1.44.36 1.73.09 2-.34 2.1-.59 2.04-.52 2.06-.27 2.27-.12 2.41-.31M20.92-80.61 19.58-81l-1.37-.44-1.34-.4-1.27-.34-1.21-.26-1.12-.19-1.05-.14-1.02-.11-1.05-.12-1.12-.12-1.2-.11-1.24-.1-1.21-.07-1.12-.03-1.05-.01-1.06.02-1.15.05-1.15.1-.9.04" filter="url(#a)"/><path d="m19.54-81-1.67.91-1.54.52-1.25-.38-1.1-.58-1.06-.27-1.03.2-1.05.61-1.09.89-1.17.98-1.24.92-1.25.71-1.17.44-1.04.18-.91.01-.94-.03-1.13.26-1.1 1.18 10.74-8.61 1.26-.25 1.04-.62 1.24-.55 1.31-.17 1.28.18 1.24.31 1.2.18 1.13-.06 1.1-.29 1.13-.39 1.23-.32 1.35-.12 1.4.15 1.34.37 1.35.43 1.64.27" filter="url(#a)"/><path d="m35.62-81.28-.71-.28-.94-.35-.86-.29-.84-.21-.94-.22-1.08-.26-1.21-.26-1.33-.17-1.39-.04-1.4.06-1.34.13-1.25.16-1.16.17-1.13.15-1.14.11-1.21.04-1.27-.05-1.3-.1-1.26-.14-1.14-.15-.95-.09-1.23.01L5.82-84l-1.55.07-.83.1-.91.19-1.03.22-1.06.22-1.03.21-1.01.25-1.04.32-1.08.37-1.13.41-1.14.42-1.1.44-1.02.46-.95.46-.95.47-1.07.49-1.31.52-1.46.5-1 .19" filter="url(#a)"/><path d="M4.01-83.98H2.83l-1.37.11-1.18.17-1.04.18-1 .22-1.05.24-1.12.23-1.16.21-1.17.17-1.14.18-1.08.22-1.04.32-1.07.43-1.14.5-1.22.56-1.26.56-1.18.57-1.02.57-.79.52-.67.36-1.08.41 2 8.15.76-1.29.44-1.06.63-.96.89-.7 1.09-.52 1.16-.51 1.13-.64 1.02-.75.94-.73.94-.56.98-.33 1.05-.15 1.1-.16 1.1-.35 1.05-.65.97-.94.91-1.06.93-.83 1.2-.51 1.92-2.32m71.12 71.85 1.08 1.79 1.53 2.17.69 2.58-.16 2.75-.5 2.71-.41 2.6-.12 2.54.22 2.53.53 2.53.75 2.54.82 2.54.74 2.51.52 2.48.22 2.42-.08 2.38-.38 2.33-.64 2.31-.86 2.3-1.03 2.29-1.13 2.29-1.15 2.3-1.11 2.29-1.01 2.28-.91 2.28-.83 2.25-.8 2.22-.84 2.18-.93 2.09-1.06 2-1.23 1.9-1.39 1.84-1.54 1.82-1.68 1.85-1.78 1.84-1.74 1.67-1.32 1.22-.16.36" filter="url(#a)"/><path d="m-3.99-84.01 2.22-.07 1.97.04 1.98.08 2.1.15 2.24.23 2.3.31 2.24.38 2.09.45 1.9.5 1.7.57 1.58.63 1.53.71 1.56.8 1.64.87 1.73.94 1.78 1.01 1.77 1.06 1.71 1.11 1.61 1.18 1.5 1.25 1.37 1.31 1.18 1.4.95 1.5.75 1.63.67 1.72.69 1.7.22 1.49" filter="url(#a)"/><path d="m-5.15-83.97 1.72-.04h2.14l2.33.04 2.38.1 2.36.17 2.35.25 2.39.33 2.49.41 2.58.51 2.64.58 2.67.66 2.66.72 2.66.77 2.66.82 2.65.88 2.66.94 2.63 1.01 2.6 1.1 2.55 1.19 2.51 1.26 2.49 1.34 2.53 1.41 2.65 1.46 2.81 1.54 3.02 1.62 3.21 1.7 3.36 1.79 3.4 1.85 3.31 1.9 3.07 1.92 2.79 1.94 2.59 1.95 2.58 1.93 2.62 1.88 2.46 1.89 2.21 2.21 2.74 3.14" filter="url(#a)"/><path d="m-7.99-83.57 3.29-.31 2.51-.12h2.2l2.15.07 2.25.14 2.4.22 2.48.31 2.5.37 2.45.44 2.41.5 2.36.56 2.35.63 2.36.71 2.38.79 2.39.86 2.41.94 2.44 1 2.48 1.05 2.56 1.12 2.63 1.17 2.65 1.23 2.61 1.3 2.51 1.39 2.43 1.5 2.46 1.65 2.63 1.8 2.89 1.8" filter="url(#a)"/><path d="m-10.03-83.32 2.51-.28 2.71-.23 2.52-.11 2.42-.02 2.49.07 2.63.15 2.77.23 2.9.31 2.99.38 3.09.45 3.2.51 3.29.59 3.37.65 3.42.74 3.43.81 3.45.88 3.51.96 3.63 1.02 3.78 1.09 3.93 1.15 3.98 1.22 3.86 1.29 3.57 1.37 3.14 1.43 2.71 1.51 2.45 1.57 2.44 1.62 2.74 1.65 3.33 1.69 4.1 1.72 4.96 1.77 5.8 1.83 6.46 1.9 6.65 1.92 5.88 1.91 4.06 2.01 3.16 2.52" filter="url(#a)"/><path d="m-10.03-83.32 1.96-.28 2.78-.23 2.74-.11 2.66-.02 2.73.06 2.89.15 3.05.23 3.09.3 3.03.38 2.87.45 2.7.51 2.6.58 2.59.64 2.7.73 2.88.8 3.07.88 3.21.95 3.21 1.02 3.1 1.08 2.95 1.14 2.85 1.21 2.92 1.27 3.2 1.35 3.64 1.44 4.12 1.5 4.44 1.58 4.59 1.62 4.56 1.64 4.5 1.66 4.44 1.67 4.27 1.75 3.94 1.85 3.76 2.03 3.49 2.29" filter="url(#a)"/><path d="m-10.03-83.32 2.49-.28 2.73-.22 2.57-.12 2.4-.03 2.37.07 2.49.14 2.76.22 3.17.3 3.62.37 4.03.44 4.27.5 4.31.56 4.19.63 3.95.71 3.68.79 3.46.87 3.3.93L49-76.43l3.3 1.06 3.46 1.11 3.67 1.18 3.89 1.25 4.1 1.31 4.46 1.4L77-67.61l5.93 1.63 6.12 1.72 4.61 1.71 2 1.49" filter="url(#a)"/><path d="m-9.62-83.25 1.85-.4 2.03-.2 2.1-.09 2.2-.03 2.29.03 2.37.08 2.4.15 2.42.22 2.45.3 2.51.37 2.61.46 2.74.55 2.84.63 2.89.69 2.86.74 2.77.77 2.69.8 2.71.83 2.85.89 3.04.98 3.22 1.14L47.61-73l3.67 1.55 4 1.8" filter="url(#a)"/><path d="m-9.62-83.25 1.62-.4 2.15-.2 2.28-.09 2.43-.02 2.58.03 2.65.1 2.7.16 2.78.24 2.92.32 3.14.4 3.37.48 3.55.57 3.65.64 3.67.7 3.63.76 3.58.8 3.59.86 3.66.91 3.79.99 3.89 1.08 3.93 1.17 3.85 1.25 3.68 1.32 3.5 1.38 3.44 1.43 3.62 1.48 4.03 1.58 4.62 1.69 5.2 1.81 5.63 1.92 5.66 1.94 4.56 1.84.76 1.28M73.92-13.52l.83 1.92 1.83 2.13 1.58 2.33.71 2.49.26 2.61.39 2.7.71 2.75.79 2.72.52 2.65.11 2.57-.16 2.49-.14 2.44.19 2.41.63 2.39.98 2.38 1.09 2.37.87 2.36.41 2.37-.12 2.37-.59 2.37-.89 2.36-.97 2.36-.91 2.35-.8 2.32-.68 2.29-.63 2.25-.62 2.18-.66 2.08-.78 1.98-.98 1.88-1.25 1.79-1.52 1.73-1.69 1.7-1.74 1.68-1.83 1.63-2.11 1.53-1.68 1.42" filter="url(#a)"/><path d="m73.92-13.52.74 1.9 1.56 2.11 2.3 2.31 2.21 2.46 1.55 2.59.95 2.68.75 2.74.76 2.71.73 2.65.59 2.56.42 2.47.36 2.41.51 2.39.87 2.37 1.38 2.36 1.94 2.35 2.38 2.35 2.6 2.33 2.38 2.35 1.72 2.37.69 2.36-.42 2.36-1.26 2.33-1.55 2.32-1.25 2.34-.6 2.35-.06 2.33.1 2.18-.84 1.94" filter="url(#a)"/><path d="m73.92-13.52.4 1.91.89 2.11 1.48 2.33 1.49 2.47 1.05 2.6.64 2.69.54 2.74.67 2.72.88 2.65.99 2.56.9 2.48.63 2.42.23 2.4-.2 2.38-.56 2.37-.82 2.36-.94 2.35-.94 2.35-.89 2.36-.85 2.36-.84 2.37-.9 2.36-.98 2.34-.99 2.33-.92 2.32-.77 2.29-.64 2.24-.62 2.13-.79 2-1.07 1.84-1.27 1.58-.74.84M-15.41-82.36l3.24-.53 2.35-.37 2.35-.28 2.41-.21 2.37-.12 2.3-.04 2.26.04 2.28.12 2.34.2 2.38.27 2.36.36 2.3.41 2.19.48 2.12.53 2.1.6 2.13.68 2.21.77 2.28.84 2.3.92 2.26.97 2.18 1.03 2.18 1.09 2.22 1.2 2.25 1.27 2.55 1.54" filter="url(#a)"/><path d="m-15.41-82.36 3.31-.54 2.38-.36 2.35-.28 2.42-.21 2.42-.12 2.42-.03 2.45.04 2.55.13 2.64.21 2.7.29 2.7.35 2.65.43 2.59.49 2.57.55 2.6.63 2.7.69 2.83.78 2.96.86 3.01.93 2.99.99 2.92 1.05 2.85 1.11 2.88 1.17 3.03 1.23 3.31 1.28 3.64 1.36 3.92 1.49 4 1.66 3.58 2.08" filter="url(#a)"/><path d="m-17.32-81.75.88-.59 2.35-.49 2.77-.38 2.86-.29 2.81-.21 2.68-.12 2.55-.03 2.47.05 2.43.13 2.43.22 2.43.29 2.44.37 2.46.43 2.49.5 2.58.58 2.69.64 2.84.72 2.95.8 3.04.87 3.04.95 2.99 1.01 2.92 1.07 2.83 1.14 2.77 1.21 2.71 1.28 2.67 1.35 2.67 1.43 2.69 1.51 2.77 1.57 2.85 1.62 2.91 1.65 2.9 1.66 2.88 1.68 2.87 1.74 2.93 1.87 3.02 2.02 3.19 2.3" filter="url(#a)"/><path d="m-23.36-80.08 2.53-.72 2.04-.65 2.09-.62 2.32-.54 2.51-.44 2.55-.34 2.53-.25 2.48-.15 2.46-.08 2.51-.01 2.58.05 2.64.13 2.68.18 2.69.26 2.76.34 2.89.42 3.09.52 3.27.61 3.33.68 3.22.74 3.01.78 2.81.82 2.66.77 2.42.49" filter="url(#a)"/><path d="m-25.63-79.33 1.17-.71 1.38-.68 1.56-.59 2.02-.52 2.45-.47 2.72-.41 2.81-.36 2.82-.29 2.8-.22 2.74-.14 2.68-.06 2.67.03 2.68.11 2.75.19 2.88.27 3.04.35 3.22.41 3.42.48 3.64.55 3.85.62 4.06.7 4.21.78 4.27.85 4.23.93 4.15.99 4.1 1.05 4.19 1.12 4.42 1.17 4.77 1.24 5.14 1.3 5.46 1.39 5.67 1.51L88-66.08l5.4 1.82 5.48 1.81" filter="url(#a)"/><path d="m-25.63-79.33 2.14-.71 1.78-.68 1.84-.59 2.03-.52 2.17-.47 2.27-.41 2.38-.36 2.47-.29 2.56-.22 2.61-.14 2.62-.06 2.63.03 2.66.11 2.69.19 2.7.27 2.67.35 2.62.41 2.58.48 2.56.55 2.62.62 2.72.7 2.86.78 2.99.85 3.05.93 3.05.99 2.98 1.05 2.9 1.12 2.86 1.17 2.91 1.24 3 1.3 3.12 1.39 3.2 1.51 3.24 1.66 3.17 1.82 2.75 1.81" filter="url(#a)"/><path d="m-25.63-79.33 2.26-.7 1.9-.68 1.7-.6 1.86-.52 2.19-.46 2.45-.42 2.56-.36 2.58-.29 2.57-.23 2.53-.14 2.53-.06 2.55.01 2.63.11 2.73.18 2.84.26 2.92.34 2.96.4 2.98.47 2.96.54 2.92.6 2.88.68 2.82.76 2.79.85 2.81.92 2.91.97 3.12 1.04 3.33 1.1 3.37 1.17 3.15 1.21 2.76 1.15 1.99.82" filter="url(#a)"/><path d="m-27.25-78.17 1.55-.96 1.93-.8 2.13-.7 2.15-.6 2.17-.53 2.22-.48 2.27-.42 2.33-.37 2.36-.32 2.37-.24 2.36-.17 2.34-.09 2.33-.01 2.35.07 2.44.15 2.53.23 2.6.31 2.58.39 2.47.45 2.28.49 2.07.5 1.87.43 2 .39" filter="url(#a)"/><path d="m-27.25-78.17 1.39-.97.92-.8 1.18-.7 1.79-.6 2.35-.54 2.7-.47 2.85-.42 2.83-.37 2.74-.3 2.65-.23 2.58-.16 2.55-.07h2.57l2.64.09 2.75.17 2.85.25 2.94.32 2.98.4 2.97.45 2.93.51 2.93.58 3.02.65 3.21.75 3.49.85 3.67.93 3.47.92 2.88.8 2.97.76" filter="url(#a)"/><path d="m-33.64-75.35 3.06-1.41 2.23-1.18 1.53-1 1.35-.85 1.6-.73 1.92-.63 2.15-.56 2.3-.49 2.44-.42 2.6-.37 2.76-.3 2.86-.23 2.93-.15 2.97-.07 3.02.02 3.06.09 3.12.18 3.17.25 3.17.33 3.15.4 3.11.47 3.11.54 3.17.61 3.3.68 3.51.76 3.72.85 3.9.91 4.01.99 4.07 1.04 4.15 1.1 4.32 1.17 4.53 1.22 4.57 1.25 4.19 1.35 4.51 1.84" filter="url(#a)"/><path d="m-33.64-75.35.41-1.39-.18-1.17 1.76-1 2.95-.85 3.15-.73 2.9-.64 2.65-.55 2.55-.49 2.57-.44 2.62-.38 2.7-.32 2.75-.25 2.77-.18 2.8-.1 2.83-.02 2.95.06 3.13.13 3.38.23 3.59.3 3.71.39 3.71.46 3.6.52 3.29.52 2.27.33m42.7 65.11.5 2.1.3 2.05.62 2.16 1.24 2.32 1.71 2.45 1.72 2.58L81.34.53l.83 2.71.47 2.71.3 2.65.2 2.56.08 2.49-.06 2.43-.19 2.4-.2 2.38-.1 2.37.07 2.36.26 2.35.37 2.35.39 2.36.32 2.37.2 2.36v2.36l-.29 2.35-.69 2.33-1.14 2.33-1.42 2.31-1.4 2.25-1.1 2.16-.83 2.03-.81 1.97-1.15 2.2m-1.53-75.48 1.19 2.08 3.14 2.01 3.55 2.13 2.99 2.27 2.27 2.41 1.6 2.54.99 2.64.4 2.71-.14 2.71-.52 2.64-.63 2.55-.37 2.44.22 2.38.94 2.36 1.6 2.37 2.02 2.36 2.12 2.33 1.82 2.28 1.17 2.25.5 2.3.5 2.46 1.51 2.65 1.87 2.72" filter="url(#a)"/><path d="m-35.2-74.31 1.91-1.32 1.86-1.11 2-.93 2.05-.84 2.02-.77 2.02-.72 2.07-.68 2.15-.63 2.27-.57 2.37-.52 2.46-.43 2.49-.36 2.5-.26 2.5-.18 2.48-.1 2.48-.02 2.49.05 2.51.13 2.54.2 2.6.28 2.66.36 2.73.44 2.79.53 2.83.6 2.84.67 2.83.73 2.77.77 2.67.82 2.57.86 2.51.93 2.56 1.03 2.75 1.15 3.06 1.29 3.34 1.38 3.36 1.4 2.88 1.34 2.59 1.47" filter="url(#a)"/><path d="m-38.91-71.86 1.47-1.16 1.24-1.23.33-1.18-.03-1.08.45-.97 1.23-.87 1.86-.79 2.25-.73 2.49-.69 2.7-.64 2.87-.6 2.97-.54 2.99-.47 2.98-.39 2.98-.31 3.08-.21 3.28-.13 3.59-.06 3.92.01 4.21.08 4.34.15 4.25.2 3.96.22 3.9.24 5.58.4" filter="url(#a)"/><path d="m-38.91-71.86 1.18-1.16.04-1.23-.33-1.19.68-1.08 1.76-.97 2.11-.87 1.87-.79 1.51-.74 1.41-.68 1.66-.64 2.19-.59 2.83-.54 3.38-.46 3.74-.39 3.84-.3 3.8-.21 3.71-.12 3.71-.06 3.83.02 4.03.09 4.24.15 4.4.21 4.5.28 4.74.36 5.4.52 6.52.72 6.67.92" filter="url(#a)"/><path d="m-41.94-69.8-.21-1.7 1.17-1.4 2.18-1.28 2.8-1.2 2.85-1.08 2.62-.98 2.34-.88 2.19-.8 2.16-.75 2.19-.69 2.28-.64 2.34-.59 2.38-.53 2.4-.45 2.41-.38 2.42-.29 2.46-.21 2.53-.13 2.64-.04 2.74.02 2.85.1 2.94.16 3.04.24 3.2.31 3.42.4 3.68.5 3.91.6 4 .68 3.96.73 3.91.77 3.45.72m-84.03 9.14-2.4 2.25-2.07 1.72-2.36 1.58-2.64 1.62-2.61 1.68-2.37 1.72-2.24 1.8-2.33 1.9-2.62 2.03-2.96 2.13-3.21 2.21-3.31 2.25-3.29 2.26-3.15 2.24-2.98 2.23-2.83 2.23-2.72 2.23-2.71 2.25-2.7 2.28-2.61 2.31-2.34 2.34-1.86 2.37-1.34 2.39-.96 2.41-.93 2.45-1.32 2.49-1.98 2.54-2.57 2.61-2.82 2.67-2.5 2.72-1.78 2.75-.98 2.77-.55 2.8-.63 2.81-.99 2.7-1.26 2.28-2.41 1.3M73.12-18.65l1.07 3.25L77-12.9l4.91 2.26 5.81 2.35 4.96 2.52 2.77 2.62.32 2.63-1.39 2.59-1.95 2.54-1.59 2.53-.76 2.53.09 2.53.79 2.53 1.29 2.51 1.63 2.48 1.82 2.42 1.86 2.37 1.79 2.32 1.67 2.3 1.57 2.28 1.54 2.28 1.56 2.29 1.48 2.29 1.16 2.29.55 2.28-.22 2.26-.72 2.26-.5 2.29.3 2.35.7 2.33-.29 2.09-1.78 1.83" filter="url(#a)"/><path d="m-45.17-67.22-1.4 1.15-1.81 1.43-2.17 1.51-2.64 1.57-3 1.67-3.16 1.77-3.28 1.88-3.44 1.96-3.57 2.04-3.49 2.09-3.22 2.11-2.92 2.12-2.93 2.11-3.46 2.1-4.55 2.11-5.96 2.15-7.27 2.21-8.03 2.3-7.98 2.36-6.99 2.37-5.26 2.36-3.11 2.36-1.14 2.41-.24 2.48-1.42 2.56-4.49 2.52-6.19 2.17" filter="url(#a)"/><path d="m-45.61-66.72-1.97 1.45-2.41 1.41-2.58 1.57-2.84 1.67-3.16 1.71-3.26 1.77-2.98 1.87-2.45 2-1.96 2.13-1.67 2.22-1.65 2.26-1.8 2.26-2 2.23-2.1 2.21-2.03 2.19-1.85 2.2-1.64 2.23-1.54 2.25-1.65 2.3-1.97 2.33-2.46 2.35-3.01 2.37-3.51 2.38-3.92 2.39-4.16 2.41-4.18 2.47-3.88 2.6-3.12 2.76-1.68 2.86.29 2.62" filter="url(#a)"/><path d="m-45.61-66.72-4.66 1.46-1.82 1.41-1.17 1.58-1.36 1.68-1.85 1.72-2.4 1.78-2.82 1.89-2.96 2.02-2.9 2.14-2.78 2.22-2.79 2.26-2.98 2.26-3.34 2.24-3.74 2.22-4.04 2.21-4.12 2.22-3.89 2.24-3.41 2.27-2.78 2.31-2.25 2.34-1.99 2.36-2.09 2.38-2.5 2.4-2.99 2.43-3.35 2.47-3.48 2.54-3.48 2.6-3.59 2.68-3.9 2.72-4.21 2.72-3.95 2.74-2.95 2.84-1.99 3-.12 2.42" filter="url(#a)"/><path d="m-50.98-61.83-4.24 1.91-4.33 1.9-5.02 1.94-6.23 2.01-6.02 2.08-4.5 2.13-2.67 2.14-1.32 2.13-.59 2.12-.38 2.1-.61 2.11-1.28 2.16-2.36 2.23-3.68 2.3-4.87 2.35-5.57 2.38-5.51 2.37-4.68 2.39-3.39 2.41-2.17 2.42-1.45 2.42-1.44 2.39-2.05 2.34-3.09 2.35-4.32 2.46-5.35 2.55-7.3 1.81m94.42-59.9-1.42 1.91-1.19 1.9-.92 1.94-.41 2.01-.07 2.08-.13 2.13-.5 2.14-.85 2.13-.91 2.12-.66 2.1-.26 2.11.09 2.16.3 2.23.38 2.3.4 2.35.43 2.38.43 2.37.39 2.39.33 2.41.4 2.42.7 2.42 1.19 2.39 1.54 2.34 1.4 2.35.77 2.46.59 2.55 2.26 1.81" filter="url(#a)"/><path d="m-50.98-61.83-2.43 1.91-2.86 1.91-3.63 1.94-3.78 2.01-3.08 2.09-2.19 2.13-1.63 2.14-1.46 2.14-1.53 2.11-1.74 2.11-2.02 2.11-2.39 2.17-2.79 2.24-3.17 2.3-3.48 2.35-3.69 2.38-3.7 2.38-3.41 2.39-2.88 2.41-2.25 2.42-1.88 2.42-2.09 2.4-2.86 2.37-3.77 2.39-4.09 2.48-3.42 2.62-2.08 2.8-2.89 3.5" filter="url(#a)"/><path d="m-52.87-59.97-1.87 2.05-3.16 1.91-5.56 2.02-6.33 2.11-5.06 2.15-3.21 2.15-2.05 2.15-1.9 2.12-2.29 2.12-2.73 2.13-2.91 2.18-2.92 2.25-2.97 2.31-3.24 2.36-3.75 2.39-4.3 2.39-4.6 2.41-4.47 2.41-3.94 2.42-3.28 2.43-2.8 2.42-2.79 2.45-3.17 2.48-3.67 2.58-3.85 2.7-3.54 2.83-3.1 2.95-3.24 2.99-4.32 2.83-5.12 2.38-1.06 1.61" filter="url(#a)"/><path d="m-54.47-57.76-6.19.82-7.28 1.58-3.97 2.03-1.13 2.26-.28 2.32-1.08 2.32-2.46 2.26-3.57 2.21-4.09 2.16-4.15 2.13-4.14 2.15-4.49 2.18-5.38 2.23-6.52 2.28-7.33 2.31-7.26 2.34-6.24 2.35-4.86 2.35-4.12 2.33-4.73 2.3-6.34 2.16-3.96 1.36" filter="url(#a)"/><path d="m-54.47-57.76-4.46.83-6.26 1.58-5.24 2.05-3.4 2.27-2.82 2.33-3.39 2.32-4.12 2.27-4.16 2.21-3.31 2.17-1.96 2.15-.73 2.17-.18 2.19-.56 2.24-1.68 2.29-3.09 2.31-4.31 2.35-5.03 2.35-5.17 2.36-4.99 2.35-4.97 2.37-5.34 2.41-5.59 2.57-4.59 2.87-4.98 3" filter="url(#a)"/><path d="m-54.93-57.44-1.51 1.47-2.46 2.01-2.38 2.14-2.4 2.18-2.99 2.18-4.11 2.15-5.5 2.13-6.84 2.13-7.8 2.14-8.03 2.19-7.33 2.27-5.75 2.32-3.62 2.37-1.34 2.4.58 2.4 1.83 2.42 2.24 2.42 1.89 2.44.99 2.44-.17 2.46-1.32 2.49-2.25 2.55-2.91 2.62-3.32 2.7-3.54 2.76-3.6 2.79-3.58 2.75-3.55 2.63-3.59 2.46-3.77 2.32-3.96 2.26-3.78 2.31-2.71 2.42-1.28 2.32-3.11 1.88" filter="url(#a)"/><path d="m-54.93-57.44-2.74 1.47-1.83 2.01-1.45 2.15-1.21 2.18-1.13 2.18-1.1 2.15-1.05 2.14-.99 2.12-.95 2.15-.97 2.19-1.01 2.27-1.09 2.33-1.13 2.37-1.14 2.4-1.11 2.4-1.04 2.42-.94 2.43-.84 2.43-.72 2.45-.62 2.47-.49 2.5-.37 2.55-.26 2.62-.18 2.7-.13 2.76-.11 2.77-.09 2.72-.04 2.62.01 2.48.06 2.35.09 2.3.09 2.32.13 2.4.19 2.46.32 2.57.89 3.24" filter="url(#a)"/><path d="m-54.93-57.44-1.36 1.46-2.46 1.99-3.51 2.14-3.47 2.17-2.43 2.17-1.26 2.14-.59 2.12-.49 2.11-.71 2.12-1.05 2.17-1.36 2.25-1.6 2.32-1.78 2.36-1.92 2.39-2.02 2.39-2.09 2.4-2.16 2.42-2.21 2.41-2.26 2.43-2.34 2.42-2.47 2.44-2.7 2.48-3.06 2.58-3.45 2.69-3.66 2.84-3.46 2.95-2.72 2.98-1.78 2.82-1.49 2.38-2.79 1.61m61.69-66.32-.55 1.94-.1 2.17-.61 2.17-1.18 2.16-1.48 2.13-1.53 2.1-1.43 2.12-1.25 2.18-1.02 2.27-.75 2.34-.44 2.38-.11 2.4.23 2.41.52 2.41.75 2.42.86 2.43.86 2.45.79 2.46.65 2.49.51 2.55.38 2.62.28 2.7.23 2.75.23 2.78.28 2.72.41 2.62.6 2.47.87 2.34 1.18 2.28 1.47 2.32 1.63 2.4 1.56 2.46 1.23 2.56.33 3.24" filter="url(#a)"/><path d="m-57.89-53.61-2.01 1.94-2.33 2.18-3.03 2.17-3.43 2.16-3.14 2.13-2.3 2.1-1.37 2.12-.63 2.19-.27 2.27-.26 2.34-.49 2.38-.86 2.4-1.22 2.41-1.52 2.42-1.69 2.43-1.71 2.43-1.64 2.45-1.48 2.46-1.31 2.5-1.14 2.56-1.05 2.62-1.02 2.7L-92.83.5l-1.01 2.75-.88 2.71-.65 2.61-.34 2.48-.13 2.37-.09 2.31-.19 2.33-.28 2.41-.21 2.47.09 2.54.4 2.62-.16 2.38m38.39-84.09 3.93 1.91 2.43 2.16-.8 2.14-1.59 2.14-.85 2.11.5 2.07 1.82 2.07 2.58 2.14 2.57 2.24 1.93 2.32 1.05 2.36.3 2.38-.14 2.38-.23 2.38-.03 2.4.46 2.41 1.09 2.4 1.62 2.39 1.71 2.38 1.24 2.4.58 2.5.52 2.64 1.61 2.81 3.45 3.01 5.09 3.02" filter="url(#a)"/><path d="m-59.75-51.02-2.04 2.67-1.93 2.46-1.99 2.29-1.8 2.18-1.58 2.13-1.59 2.13-1.81 2.16-2.08 2.22-2.21 2.26-2.14 2.31-1.95 2.33-1.77 2.35-1.73 2.37-1.86 2.39-2.07 2.41-2.22 2.45-2.25 2.52-2.14 2.59-1.89 2.66-1.6 2.7-1.44 2.72-1.63 2.74-2.13 2.8-2.45 2.89-1.81 2.88-.21 2.89m42.12-53.43-.57 1.24-.72 1.97-.65 2.39-.55 2.52-.46 2.48-.37 2.4-.19 2.36.09 2.37.41 2.4.64 2.41.71 2.41.59 2.42.38 2.43.18 2.5.09 2.59.13 2.69.25 2.8.38 2.83.46 2.79.55 2.62.7 2.39 1 2.16 1.37 2.07 1.81 2.36 2.67 3.48M72.71-21.33l.66 2.12.88 2.57 1.84 2.45 2.94 2.32 3.24 2.31 2.68 2.37 1.72 2.47.94 2.57.54 2.65.51 2.7.7 2.68.88 2.64.94 2.57.85 2.51.63 2.46.39 2.42.19 2.39.14 2.39.16 2.37.22 2.37.21 2.36.08 2.37-.19 2.37-.57 2.37-.95 2.37-1.27 2.35-1.46 2.33-1.46 2.31-1.29 2.28-1.03 2.21-.79 2.11-.7 2-.77 1.85-.84 1.74-.76 1.69-.64 1.77-.89 1.87" filter="url(#a)"/><path d="m72.71-21.33 1.43 2.07 3.98 2.54 6.46 2.42 6.62 2.28 4.85 2.24 2.97 2.31 2.08 2.4 1.94 2.52 1.89 2.61 1.66 2.69 1.49 2.7 1.7 2.65 2.43 2.55 3.41 2.45 4.36 2.38 5.02 2.37 5.27 2.37 5.03 2.39 4.2 2.34 3.1 2.25 2.62 2.13 3.87 2.16 4.37 2.69M-67.95-35.83l-3.53 3.56-2.83 2.39-2.52 2.28-1.63 2.35-.88 2.39-.8 2.38-1.23 2.4-1.61 2.42-1.59 2.49-1.16 2.55-.63 2.62-.27 2.68-.28 2.7-.61 2.72-1.11 2.71-1.55 2.66-1.81 2.6-1.77 2.49-1.51 2.39-1.1 2.29-.68 2.29-.26 2.36.09 2.5L-97 25l-.26 2.52-1.31 2.23-1.16 2.46" filter="url(#a)"/><path d="m-68.5-34.7-2.48 3.3-5.23 2.62-4.65 2.32-2.24 2.29-.32 2.37.38 2.43.08 2.46-.77 2.45-1.82 2.47-2.7 2.5-3.18 2.57-3.18 2.65-2.75 2.71-2.17 2.74-1.66 2.72-1.43 2.66-1.43 2.58-1.53 2.48-1.55 2.42-1.37 2.38-.98 2.39-.53 2.41-.14 2.44.04 2.46-.02 2.47-.3 2.46-.71 2.44-1.09 2.44-1.15 2.45-.59 2.46.5 2.44 1.37 2.38.96 2.26-.58 2.26-.73 2.83" filter="url(#a)"/><path d="m-68.5-34.7-1.87 3.26-3.4 2.59-3.1 2.28-1.78 2.25-.66 2.32-.17 2.4-.24 2.43-.62 2.41-1.08 2.4-1.47 2.42-1.67 2.49-1.57 2.58-1.19 2.7L-88 .62l-.28 2.82-.24 2.75-.55 2.59-1.05 2.39-1.38 2.2-1.24 2.15-.69 2.32-.41 2.58-.8 2.3" filter="url(#a)"/><path d="m-68.5-34.7-7.17 3.29-4.8 2.61-.17 2.31 1.18 2.28.78 2.36-.04 2.42-.87 2.45-1.66 2.45-2.27 2.45-2.56 2.48-2.42 2.55-1.97 2.64-1.41 2.71-.99 2.75-.83 2.73-.97 2.68-1.31 2.57-1.78 2.46-2.23 2.39-2.54 2.35-2.55 2.36-2.22 2.4-1.69 2.44-1.27 2.48-1.27 2.47-1.71 2.45-2.11 2.41-1.7 2.38-.35 2.39.65 2.38-1.1 2.24" filter="url(#a)"/><path d="m-69.79-30.62-11.26 1.06-5.69 2.02-2.74 2.34-3.62 2.39-4.58 2.39-3.97 2.38-2.61 2.41-1.81 2.47-1.96 2.55-2.45 2.62-2.61 2.67-2.31 2.71-1.94 2.71-2.09 2.71-2.91 2.67-3.98 2.6-4.63 2.49-4.24 2.36-2.86 2.26-1.26 2.24-.63 2.34-1.7 2.54-3.98 2.72-5.77 2.52-3.38 1.24m83.94-57.05-.88 2.04-.72 2.06-.68 2.34-.83 2.47-1.1 2.48-1.37 2.44-1.58 2.41-1.66 2.45-1.67 2.52-1.59 2.63-1.49 2.72-1.39 2.77-1.3 2.76-1.16 2.68-.93 2.56-.58 2.44-.2 2.34.05 2.31.04 2.33-.23 2.39-.68 2.45-1.1 2.48-1.36 2.49-1.38 2.44-1.05 2.36-.11 2.31 2.04 2.68" filter="url(#a)"/><path d="m-70.83-28.26-.75 2.05-1.26 2.07-1.38 2.35-1 2.49-.57 2.49-.32 2.45-.26 2.43-.27 2.47-.31 2.55-.34 2.64-.36 2.73-.37 2.76-.36 2.74-.35 2.67-.32 2.56-.29 2.46-.24 2.39-.2 2.35-.18 2.37-.18 2.4-.15 2.44-.06 2.46.13 2.47.42 2.45.7 2.42.93 2.42 1.03 2.44 1.03 2.5 1.01 2.55 1.01 2.48.83 1.72M71.76-25.02l2.77 3.97 5.42 2.89 4.45 2.58 1.87 2.41-.28 2.35-1.2 2.41-.94 2.5-.01 2.58.96 2.59 1.58 2.57 1.78 2.55 1.66 2.53 1.42 2.52 1.22 2.53 1.03 2.53.84 2.52.6 2.48.43 2.43.4 2.36.55 2.32.69 2.28.62 2.27.24 2.27-.28 2.28-.59 2.3-.43 2.34.01 2.32.33 2.19.55 1.94.86 2.18" filter="url(#a)"/><path d="m71.91-24.26 4.28 2.53 5.82 2.48 4.11 2.51 1.48 2.41-.59 2.34-1.49 2.33-1.49 2.38-1.07 2.46-.61 2.56-.24 2.64.1 2.68.44 2.67.83 2.64 1.23 2.57 1.57 2.51 1.77 2.45 1.75 2.41 1.46 2.4.97 2.37.43 2.37-.01 2.36-.23 2.35-.28 2.37-.26 2.37-.31 2.37-.49 2.36-.81 2.35-1.16 2.34-1.4 2.34L86.29 49l-1.15 2.28-.73 2.16-.35 1.95.17 1.72" filter="url(#a)"/><path d="m71.04-26.72 2.21 2.44 1.47 2.44 1.26 2.47 2 2.46 3.83 2.4 5.8 2.33 6.69 2.31 5.94 2.36 4.12 2.43 2.28 2.53L108 .06l1.49 2.67 2.09 2.68 2.38 2.65 1.88 2.57.72 2.48-.46 2.42-.85 2.39-.04 2.38 1.88 2.37 4.29 2.35 6.21 2.3 6.6 2.27 4.85 2.32 1.51 2.47-1.07 2.66 1.04 2.74" filter="url(#a)"/><path d="m70.61-28.42.84 2.64.81 2.36.92 2.52 1 2.57 1.02 2.52 1.02 2.45 1.07 2.41 1.14 2.45 1.19 2.51 1.19 2.56 1.16 2.57 1.07 2.58.96 2.55.81 2.54.6 2.53.36 2.54.1 2.53-.15 2.52-.35 2.48-.48 2.43-.52 2.38-.45 2.33-.27 2.29-.06 2.27.05 2.27-.03 2.29-.28 2.31-.55 2.34-.63 2.32-.4 2.2-.03 1.95-.23 2.18M69.22-32.57l5.11 3.6.8 2.85 1.1 2.59 1.52 2.58 1.36 2.57 1.3 2.52 1.77 2.46 2.7 2.45 3.63 2.47 4.24 2.52 4.37 2.56 4.1 2.57 3.54 2.58 2.83 2.56 1.95 2.55.95 2.54-.09 2.55-1 2.53-1.6 2.51-1.71 2.49-1.38 2.43-.71 2.39.11 2.34.9 2.31 1.63 2.29 2.23 2.29 2.64 2.3 2.71 2.3 2.29 2.3 1.34 2.29.15 2.26-.86 2.25-1.29 2.3-1.03 2.44.05 2.47 2.56 1.74" filter="url(#a)"/><path d="m68.42-34.67 2.5 2.3 4.95 2.74L79.52-27l1.73 2.52.75 2.47.68 2.46 1.09 2.43 1.71 2.4 2.4 2.37 2.98 2.37 3.29 2.4 3.25 2.46 2.94 2.53 2.48 2.61 2.01 2.66 1.59 2.66 1.19 2.64.84 2.58.58 2.51.47 2.45.54 2.42.76 2.39 1.05 2.38 1.42 2.36 1.9 2.33 2.4 2.33 2.72 2.36 2.64 2.41 2.1 2.44 1.25 2.37.05 2.17-1.2 2.1" filter="url(#a)"/><path d="m68.42-34.67 4.12 2.29 3.16 2.73 2.14 2.62 1.28 2.5.89 2.46.92 2.45 1.18 2.43 1.45 2.39 1.57 2.35 1.46 2.35 1.17 2.38.85 2.43.57 2.52.45 2.6.55 2.66.89 2.68 1.47 2.66 2.16 2.58 2.73 2.49 2.94 2.42 2.58 2.39 1.72 2.4.69 2.4.05 2.36.02 2.27.39 2.16.71 2.17 1.44 2.71" filter="url(#a)"/><path d="m66.15-39.48 2.26 2.87 2.32 2.36 2.28 2.48 1.52 2.61.86 2.65.91 2.63 1.74 2.59 2.89 2.56 3.81 2.51 4.05 2.47 3.53 2.46 2.54 2.46 1.55 2.51.97 2.54.95 2.56 1.35 2.56 1.81 2.55 1.96 2.54 1.61 2.53.82 2.54-.12 2.54-.79 2.54-.84 2.52-.2 2.45.88 2.37 1.93 2.3 2.41 2.28 2.14 2.28 1.42 2.26 1.02 2.25 1.58 2.84M65.53-40.8l-.35 1.71.59 2.05.5 2.27.18 2.43-.03 2.51-.18 2.53-.41 2.51-.82 2.49-1.35 2.46-1.93 2.44-2.44 2.4-2.86 2.38-3.14 2.37-3.26 2.4-3.18 2.45L44-2.87 41.69-.28l-1.62 2.66-.96 2.68-.52 2.65-.45 2.59-.83 2.51-1.55 2.44-2.32 2.4-2.75 2.41-2.55 2.4-1.77 2.37-.96 2.28-.92 2.17-1.89 2.19-3.22 2.71" filter="url(#a)"/><path d="m64.96-42.53.81 1.74 1.18 1.98 1.31 2.18 1.33 2.32 1.28 2.46 1.17 2.56 1.06 2.6 1.02 2.6 1.08 2.59 1.16 2.56 1.18 2.51 1.11 2.47.89 2.46.63 2.47.39 2.5.2 2.54.13 2.56.11 2.56.11 2.54.09 2.53.06 2.53.05 2.53.08 2.56.18 2.57.29 2.56.34 2.47.22 2.32-.14 2.17-.68 2.22-.75 2.3M64.96-42.53l5.34 1.74 8.54 1.99 5.92 2.18 2.83 2.32 1.5 2.47 1.43 2.56 1.72 2.6 1.96 2.61 2.19 2.59 2.48 2.55 2.84 2.52 3.2 2.48 3.58 2.46 3.94 2.47 4.24 2.5 4.38 2.54 4.26 2.56 3.83 2.57 3.13 2.54 2.23 2.54 1.27 2.53.37 2.54-.31 2.55-.67 2.56-.71 2.54-.58 2.46-.46 2.36-.44 2.26-.2 2.29.48 2.52-.73 2.87" filter="url(#a)"/><path d="m63.39-45.04 2.66 2.18 4.25 1.98 3.32 2.06 1.76 2.18.67 2.32.13 2.44.03 2.54.21 2.59.55 2.6.96 2.59 1.35 2.55 1.66 2.52 1.89 2.48 1.99 2.46 2.01 2.48 1.93 2.5 1.78 2.54 1.59 2.56 1.4 2.56 1.29 2.55 1.29 2.53 1.38 2.53 1.45 2.54 1.41 2.56 1.3 2.57 1.23 2.56 1.36 2.48 1.61 2.32 1.51 2.18.54 2.22-1.39 2.3" filter="url(#a)"/><path d="m62.31-46.59 2 .36 1.47 1.93 1.72 2.32 1.85 2.33 1.86 2.3 1.73 2.33 1.47 2.4 1.21 2.45 1.09 2.49 1.1 2.48 1.2 2.48 1.3 2.45 1.38 2.43 1.47 2.39 1.6 2.36 1.69 2.34 1.68 2.33 1.54 2.38 1.37 2.47L92.41-1l1.6 2.69 1.86 2.82 1.75 2.88 1.23 2.77.89 2.22 1.07 1.05" filter="url(#a)"/><path d="m59.31-51.2 1.66 1.58 1.77 1.97 1.62 2.16 1.45 2.17 1.35 2.16L68.49-39l1.43 2.23 1.56 2.32 1.62 2.41 1.57 2.5 1.45 2.56 1.33 2.58 1.22 2.57 1.13 2.56.99 2.52.8 2.48.55 2.47.35 2.47.26 2.5.31 2.54.48 2.57.7 2.57.87 2.54.93 2.53.87 2.51.68 2.52.43 2.56.21 2.63.11 2.76.12 2.92.18 2.97" filter="url(#a)"/><path d="m56.07-55.8 1.73 2.06 2.05 2 2.29 1.99 2.63 2.05 2.78 2.11 2.47 2.14 1.93 2.15 1.44 2.18 1.23 2.24 1.22 2.31 1.31 2.41 1.33 2.48 1.23 2.54 1.03 2.57.8 2.57.64 2.56.58 2.52.62 2.49.7 2.46.76 2.46.78 2.5.78 2.55.83 2.58.95 2.57 1.11 2.55 1.25 2.51 1.21 2.5.91 2.5.32 2.48-.29 2.53-.38 2.6" filter="url(#a)"/><path d="m52.71-59.78 6.92 2.02 6.23 1.96 2.25 1.98-.04 1.99-.53 2.02-.19 2.06.27 2.1.62 2.14.92 2.16 1.23 2.2 1.58 2.25 1.99 2.33 2.43 2.41 2.9 2.48 3.41 2.53 3.89 2.57 4.25 2.57 4.37 2.56 4.19 2.53 3.66 2.5 2.89 2.49 2.06 2.49 1.39 2.51 1.02 2.54 1.04 2.57 1.28 2.58 1.57 2.55 1.74 2.54 1.8 2.52 1.85 2.54 2.02 2.56 2.27 2.64 2.61 2.77 2.95 2.93 1.64 2.98" filter="url(#a)"/><path d="m51.13-61.06 8.77 1.51 1.67 1.79.03 1.9.46 1.94 1.29 1.97 2.15 2 3.03 2.04 3.95 2.08 4.79 2.11 5.35 2.14 5.63 2.16 5.65 2.22 5.51 2.29 5.24 2.38 4.81 2.46 4.22 2.53 3.49 2.56 2.79 2.58 2.27 2.57 1.98 2.53 1.85 2.47 1.72 2.4 1.55 2.35 1.53 2.42 2 2.64 3.28 2.94 4.72 2.91 2.55 1.83" filter="url(#a)"/><path d="m51.13-61.06 2.21 1.51 2.12 1.79 3.22 1.9 4.33 1.94 4.46 1.97 3.73 2 3 2.04 2.98 2.08 3.7 2.11 4.7 2.14 5.4 2.16 5.48 2.22 5.02 2.29 4.31 2.38 3.75 2.46 3.5 2.53 3.49 2.56 3.53 2.58 3.42 2.57 3.22 2.53 3.17 2.47 3.52 2.4 4.32 2.35 5.46 2.42 6.73 2.64 7.52 2.94 5.9 2.91.26 1.83" filter="url(#a)"/><path d="m51.13-61.06 2.6 1.52 3.37 1.8 3.52 1.91 3.19 1.95 2.5 1.98 1.71 2.02 1.01 2.06.55 2.09.39 2.13.5 2.15.82 2.19 1.3 2.25 1.84 2.32 2.38 2.39 2.82 2.48 3.07 2.53 3.08 2.56 2.85 2.57 2.51 2.56 2.19 2.53 2 2.49 1.94 2.47 1.92 2.47 1.83 2.5 1.62 2.55L104.02-2l1.16 2.59.98 2.54.77 2.52.65 2.51.93 2.5 1.67 2.39 1.15 2.96" filter="url(#a)"/><path d="m50.7-62.3 2.18 2.12 2.22 1.93 2.03 1.88 1.76 1.88 1.51 1.9 1.32 1.92 1.15 1.94 1.04 1.98.99 2.04 1.02 2.12 1.11 2.18 1.22 2.24 1.32 2.29 1.38 2.35 1.36 2.41 1.28 2.46 1.14 2.48 1 2.45.93 2.44.96 2.51 1.02 2.67.89 2.59" filter="url(#a)"/><path d="m50.2-62.45 1.17 1.39 1.57 1.58 1.89 1.76 2.2 1.87 2.31 1.94 2.15 1.98 1.82 2.01 1.52 2.06 1.37 2.09 1.41 2.13 1.56 2.15 1.68 2.2 1.71 2.25 1.65 2.32 1.53 2.4 1.41 2.47 1.34 2.52 1.34 2.56 1.36 2.57 1.37 2.56 1.35 2.53 1.28 2.5 1.2 2.47 1.13 2.48 1.07 2.5 1.03 2.55.97 2.59.92 2.59.87 2.55.83 2.52.74 2.52.56 2.5.18 2.39.12 2.96" filter="url(#a)"/><path d="m48.31-64.37 2.51 2.05 2.38 2.02 2.36 1.94 2.06 1.9 1.63 1.9 1.32 1.91 1.21 1.92 1.25 1.95 1.38 1.98 1.55 2.05 1.69 2.12 1.83 2.18 1.98 2.24 2.12 2.29 2.27 2.35 2.32 2.42 2.23 2.46 1.94 2.48 1.56 2.46 1.2 2.44 1.01 2.52 1.01 2.67 1.59 2.6m-40.4-50.85 1.36 2.07.01 2.04.64 1.96 1.56 1.92 1.91 1.92 1.8 1.93 1.5 1.95 1.2 1.98.97 2.03.73 2.08.47 2.15.15 2.22-.21 2.28-.54 2.33-.7 2.38-.66 2.44-.42 2.46-.09 2.48.12 2.49.05 2.47-.29 2.46-.82 2.41-1.31 2.38-1.57 2.32-1.5 2.31-1.19 2.32-.81 2.41-.53 2.55-.54 2.7-1.74 2.46" filter="url(#a)"/><path d="m45.75-66.74 2.39 2.2 1.85 1.76 1.6 1.64 1.51 1.66 1.49 1.76 1.5 1.85 1.52 1.91 1.54 1.97 1.52 2.01 1.48 2.05 1.42 2.09 1.35 2.13 1.29 2.16 1.23 2.2 1.19 2.25 1.15 2.33 1.11 2.39 1.03 2.47.96 2.52.88 2.56.79 2.57.74 2.56.7 2.53.7 2.51.69 2.48.68 2.48.62 2.5.5 2.56.35 2.59.21 2.6.11 2.55.11 2.52.16 2.52.16 2.51.05 2.4-.29 2.96m-35.49-83.7 5.75 1.4 1.31 1.72 1.87 1.68 3.42 1.65 4.31 1.67 4.28 1.74L69.24-56l3.21 1.88 2.9 1.95 2.9 1.99 3.19 2.03 3.66 2.07 4.25 2.1 4.74 2.13 5.02 2.16 5.01 2.21 4.76 2.28 4.44 2.36 4.26 2.45 4.39 2.53 4.85 2.57 5.55 2.6 6.24 2.6 6.47 2.58L150.8-15l3.95 2.35 2.25 2.12 3.34 1.79 7.23 1.29" filter="url(#a)"/><path d="m44.55-67.69.72 1.41.01 1.72.18 1.69.66 1.65 1 1.68 1.23 1.76 1.39 1.83 1.47 1.89 1.48 1.95 1.45 2 1.41 2.04 1.3 2.08 1.06 2.11.68 2.14.18 2.18-.32 2.24-.65 2.3-.73 2.37-.54 2.46-.19 2.52.11 2.57.23 2.58.11 2.58-.17 2.54-.45 2.48-.69 2.41-.96 2.38-1.35 2.43-1.77 2.65-1.96 2.94-1.8 2.92-1.51 1.85" filter="url(#a)"/><path d="m42.63-69.2 1.99 1.62L46.48-66l1.9 1.73 1.88 1.85 1.8 1.92 1.69 1.92 1.59 1.92 1.51 1.92 1.45 1.93 1.38 1.93 1.31 1.96 1.25 2 1.2 2.06 1.15 2.12 1.12 2.18 1.09 2.24 1.04 2.3 1.01 2.36.98 2.43.92 2.47.88 2.49.8 2.47.72 2.46.64 2.52.54 2.69.3 2.61" filter="url(#a)"/><path d="m41.46-70.21 3.24 2.03 3.05 1.79 2.44 1.73 1.98 1.69 1.73 1.67 1.63 1.68 1.65 1.75 1.73 1.82 1.8 1.88 1.8 1.94 1.76 1.98 1.67 2.03 1.55 2.07 1.47 2.1 1.44 2.12 1.48 2.16 1.58 2.21 1.73 2.27 1.84 2.36 1.86 2.44 1.79 2.53 1.69 2.57 1.62 2.61 1.61 2.61 1.59 2.61 1.51 2.55 1.38 2.42 1.24 2.18 1.29 2.05" filter="url(#a)"/><path d="m42.04-69.65 1.47.88 3.38 1.32 4.48 1.54 4.51 1.73 4.08 1.84 3.59 1.91 3.09 1.93 2.64 1.94 2.28 1.94 2.08 1.95 2.05 1.98 2.14 2 2.26 2.04 2.29 2.1 2.23 2.16 2.16 2.22 2.24 2.28 2.56 2.34 3.07 2.39 3.59 2.44 3.84 2.46 3.61 2.49 2.94 2.49 2.05 2.48 1.32 2.45 1.12 2.43 1.56 2.39 2.49 2.37 3.52 2.35 4.29 2.39 4.57 2.45 4.4 2.56 3.91 2.69 3.17 2.86 2.02 3.2-.35 4.07M39.29-71.8l.94 1.62.59 1.32 1.21 1.39 1.65 1.54 1.87 1.69 1.93 1.81 1.83 1.88 1.62 1.91 1.34 1.92 1.11 1.93.93 1.94.84 1.96.83 1.97.87 2.02.94 2.07.97 2.14.91 2.19.71 2.26.39 2.31.06 2.37-.2 2.43-.28 2.47-.21 2.49-.08 2.49-.03 2.5-.16 2.5-.43 2.49-.66 2.4-.64 2.14-.36 1.77" filter="url(#a)"/><path d="m37.41-72.99 2.26 1.35 2.53 1.38 2.76 1.35 2.61 1.42 2.27 1.55 1.94 1.67 1.75 1.79 1.66 1.86 1.66 1.9 1.72 1.92 1.78 1.92 1.82 1.94 1.82 1.95 1.75 1.97 1.67 2.01 1.63 2.06 1.65 2.12 1.76 2.19 1.89 2.24 2.03 2.31 2.12 2.36 2.15 2.43 2.12 2.48 2 2.49 1.82 2.48 1.57 2.48 1.27 2.53 1 2.7 1.02 2.62" filter="url(#a)"/><path d="m37.41-72.99 2.27 1.33 1.88 1.37 1.7 1.33 1.68 1.39 1.7 1.51 1.77 1.65 1.81 1.76 1.8 1.85 1.75 1.88 1.68 1.89 1.61 1.91 1.56 1.9 1.49 1.91 1.42 1.92 1.34 1.95 1.28 2 1.24 2.09 1.23 2.18 1.22 2.2 1.17 2.13 1.07 1.98.89 1.69" filter="url(#a)"/><path d="m37.41-72.99 3.64 1.33 3.79 1.37 3.07 1.33 2.34 1.39 1.66 1.51 1.22 1.65 1.15 1.76 1.39 1.85 1.77 1.88 2.22 1.89 2.61 1.91 2.89 1.9 3.03 1.91 3 1.92 2.86 1.95 2.68 2 2.47 2.09 2.31 2.18 2.3 2.2 2.5 2.13 2.93 1.98 3.58 1.69" filter="url(#a)"/><path d="m37.51-72.9 1.42.72 2.1 1.17 2.55 1.35 2.99 1.5 3.29 1.6 3.36 1.64 3.39 1.65 3.74 1.66 4.59 1.67 5.91 1.72 7.43 1.78 8.71 1.84 9.31 1.9 8.96 1.94 7.64 2 5.68 2.04 3.78 2.08 2.78 2.1 3.36 2.08 5.37 2.08 7.21 2.05 6.44 1.96 2.92 1.8M33.39-75.22l3.09 1.87 2.1 1.57 1.68 1.44 1.57 1.41 1.62 1.46 1.72 1.56 1.79 1.68 1.76 1.78 1.66 1.86 1.54 1.89 1.43 1.92 1.35 1.94 1.27 1.94 1.19 1.97 1.11 1.99 1.03 2.03.98 2.07.94 2.14.92 2.2.89 2.26.85 2.32.81 2.38.75 2.43.68 2.47.59 2.49.47 2.5.29 2.5.09 2.49-.1 2.47-.23 2.39-.26 2.24-.15 2.14-.04 2.4" filter="url(#a)"/><path d="m33.03-75.37 3.96 1.77 2.75 1.32 2.19 1.31 2.05 1.41 1.95 1.52 1.87 1.61 1.82 1.65 1.87 1.68 1.95 1.7 2.02 1.73 2.06 1.77 2.08 1.83 2.09 1.89 2.12 1.94 2.16 1.99 2.19 2.04 2.2 2.07 2.17 2.11 2.12 2.15 2.04 2.19 1.98 2.24 1.93 2.31 1.87 2.38 1.77 2.46 1.64 2.52 1.45 2.56 1.28 2.59 1.17 2.58 1.15 2.56L92.17-15l1.33 2.43 1.36 2.39 1.31 2.45 1.28 2.65 1.38 2.95L100.29.8l1.22 1.86M21.96-80.45l2.71 1.27 2.26 1.14L28.04-77l.23 1.04.04 1.11.41 1.19.93 1.27 1.27 1.34 1.39 1.42 1.33 1.49 1.18 1.56.95 1.61.69 1.65.43 1.69.22 1.72.1 1.77.04 1.82-.03 1.86-.12 1.93-.3 1.97-.55 2.02-.79 2.07-.98 2.09-1.06 2.13-1.06 2.16-1.08 2.21-1.23 2.27-1.62 2.36-2.15 2.45-2.59 2.54-2.73 2.59-2.59 2.62-2.49 2.65-2.44 2.69-2 2.77-1.7 2.67m12.08-68.31 5.75 1.15 4.21.92 3.19.85 3.01.9 2.93 1.01 2.98 1.15 3.29 1.26L50.89-72l4.12 1.4 4.38 1.44 4.54 1.49 4.55 1.57 4.39 1.65 4.1 1.73 3.72 1.81 3.44 1.86 3.42 1.89 3.69 1.92 4.16 1.94 4.64 1.95 4.93 1.96 4.95 2 4.78 2.05 4.57 2.11 4.41 2.18 4.34 2.23 4.27 2.28 4.06 2.34 3.7 2.46 3.78 2.58 5.88 2.55 10.98 2.35" filter="url(#a)"/><path d="m21.82-80.58 2.34 1.16 2.07.91 1.69.87 1.43.9 1.3 1.02 1.24 1.15 1.12 1.27.9 1.35.67 1.4.49 1.45.44 1.51.52 1.58.7 1.66.92 1.74 1.15 1.82 1.28 1.86 1.32 1.9 1.22 1.93.99 1.94.66 1.97.28 1.99-.1 2.02L44-45.1l-.69 2.13-.75 2.19-.59 2.25-.27 2.31.05 2.38.16 2.43-.14 2.49-.75 2.51-1.42 2.49-1.79 2.5-1.82 2.55-2.06 2.71-3.39 2.64" filter="url(#a)"/><path d="m19.97-80.92 2.49.75 3 1.03 2.96 1.06 2.71 1.04 2.41 1.07 2.21 1.12 2.06 1.18 1.96 1.27 1.89 1.33 1.86 1.42 1.88 1.48 1.96 1.56 2.05 1.6 2.14 1.65 2.22 1.68 2.27 1.73 2.29 1.76 2.32 1.81L63-54.51l2.37 1.92 2.41 1.97 2.42 2.02 2.4 2.06 2.35 2.1 2.25 2.12 2.13 2.16 2.04 2.2 1.98 2.26 1.9 2.35 1.76 2.45 1.49 2.55 1.18 2.6.97 2.61 1.04 2.63 1.49 2.7 2.35 3.13" filter="url(#a)"/><path d="m19.54-81 2.17.28 2.89.68 2.75.91 2.63 1 2.78 1.01 3.22 1.05 3.83 1.1 4.41 1.16 4.79 1.23 4.87 1.3 4.75 1.38 4.46 1.45 4.05 1.53 3.53 1.58 2.93 1.62 2.42 1.65 2.23 1.67 2.63 1.71 3.62 1.76 4.94 1.82 6.12 1.88 6.61 1.92 6.31 1.95 5.51 2.05 4.75 2.29 5.75 2.49" filter="url(#a)"/><path d="m14.79-82.61 2.96.91 2.61.76 2.53.76 2.58.78 2.59.81 2.52.86 2.4.91 2.39 1 2.61 1.12 3.04 1.21 3.54 1.3 3.98 1.36 4.24 1.4 4.31 1.46 4.27 1.53 4.22 1.61 4.22 1.7 4.31 1.79 4.51 1.86 4.74 1.89 4.89 1.91 4.76 1.93 4.35 1.94 3.88 1.92 3.76 1.78 4.22 1.56 4.65 2.01M10.54-83.06l.79.11 1.93.52 2.1.69 1.75.73 1.08.75.45.78.09.8.1.84.32.89.54.98.6 1.08.45 1.19.17 1.27-.08 1.34-.12 1.37.01 1.4.15 1.45.13 1.55-.23 1.67-1.03 1.82-2.37 1.94-4.07 2.05-5.82 2.39" filter="url(#a)"/><path d="m10.54-83.06 1.67.11 3.23.52 4.22.69 4.5.73 4.2.75 3.73.78 3.51.8 3.6.84 3.92.89 4.31.98 4.6 1.08 4.73 1.19 4.74 1.27 4.72 1.34 4.79 1.37 4.99 1.4 5.32 1.45 5.65 1.55 5.98 1.67 6.55 1.82 7.43 1.94 7.64 2.05 6.01 2.39" filter="url(#a)"/><path d="m8.96-83.45 1.54.25 1.98.32 2.44.51 2.73.64 2.83.71 2.83.75 2.76.77 2.7.81 2.68.84 2.72.89 2.82.98 2.95 1.08 3.11 1.18 3.23 1.28 3.24 1.33 3.16 1.37 3.01 1.4 2.92 1.46 3.01 1.54 3.36 1.68 3.92 1.82 4.54 1.95 4.96 2.05 6.05 2.39" filter="url(#a)"/><path d="m6.88-83.89 2.95.51 2.62.45 2.53.49 2.47.53 2.38.57 2.36.65 2.42.73 2.53.82 2.63.91 2.63.97 2.56 1.02 2.45 1.08 2.39 1.14 2.39 1.21 2.47 1.27 2.59 1.35 2.69 1.42 2.74 1.51 2.78 1.58 2.87 1.63 2.97 1.63 3.07 1.62 3.15 1.63 3.3 1.71 3.39 1.8 2.18 1.89" filter="url(#a)"/><path d="m5.82-84 2.5.44 2.11.34 2.48.4 3.01.52 3.33.63 3.29.71 2.96.75 2.54.79 2.19.83 1.99.88 1.93.95 1.96 1.03 2.05 1.12 2.2 1.2 2.38 1.29 2.61 1.36 2.88 1.42 3.18 1.49 3.45 1.55 3.66 1.64 3.75 1.72 3.66 1.78 3.37 1.85 2.93 1.89 2.39 1.92 1.93 1.94 1.63 1.94 1.61 1.96 1.84 1.99 2.21 2.03 2.66 2.12 3.04 2.19 3.22 2.23 3.01 2.18 2.4 2.03 2.14 1.72" filter="url(#a)"/><path d="m5.82-84 2.19.44 1.75.32 1.67.38 1.75.5 1.84.62 1.83.68 1.65.74 1.3.76.82.8.31.83-.08.87-.24.96-.1 1.05.3 1.17.83 1.27 1.26 1.34 1.33 1.36.98 1.35.37 1.37-.12 1.44-.46 1.6-1.46 1.85" filter="url(#a)"/><path d="m4.01-83.98 2.08.15 2.08.28 2.02.32 2.15.4 2.33.51 2.45.6 2.46.68 2.36.73 2.22.77 2.1.8 2 .84 1.98.9 2.03.97 2.11 1.07 2.17 1.17 2.19 1.27 2.12 1.33 2.02 1.37 1.9 1.39 1.84 1.44 1.88 1.52 1.97 1.67 2.05 1.83 2 1.91 1.65 1.67" filter="url(#a)"/><path d="m3.26-84.12 1.19.19 2.58.26 2.88.35 2.78.41 2.62.47 2.54.53 2.56.57 2.62.64 2.7.73 2.79.81 2.91.9 3.08.95 3.34 1.02 3.67 1.08 4.04 1.13 4.38 1.2 4.6 1.26 4.64 1.34 4.53 1.43 4.36 1.51 4.29 1.58 4.4 1.63 4.52 1.63 4.4 1.61 4.13 1.61 4.43 1.7 5.43 1.78" filter="url(#a)"/><path d="m3.26-84.12 1.17.19 2.51.26 2.91.35 2.97.41 2.94.47 2.88.53 2.82.57 2.78.64 2.74.73 2.7.81 2.65.9 2.63.95 2.65 1.02 2.71 1.08 2.8 1.13 2.88 1.2 2.92 1.26 2.88 1.34 2.78 1.43 2.69 1.51 2.72 1.58 2.85 1.63 3.04 1.63 3.09 1.61 2.94 1.61 2.67 1.7 2.29 1.78" filter="url(#a)"/><path d="m.63-84.08 3.38.1 2.71.2 2.62.26 2.63.33 2.74.42 2.93.52 3.09.6 3.18.68 3.15.74 3 .78 2.75.83 2.49.87 2.29.94 2.25 1.02 2.39 1.11 2.66 1.19 3 1.28 3.35 1.35 3.69 1.4 3.98 1.48 4.22 1.54 4.32 1.62 4.23 1.71 3.95 1.79 3.54 1.85 3.2 1.89 3.08 1.92 3.25 1.93 3.64 1.94 4.07 1.94 4.38 1.92 4.51 1.97 4.45 2.14 3.91 2.38 2.3 2.07" filter="url(#a)"/></g><g fill="none" stroke="#000"><circle cx="8.63" cy="7.55" r="2.448" filter="url(#a)"/><circle cx="9.534" cy="7.818" r="2.858" filter="url(#a)"/><circle cx="10.098" cy="4.674" r="2.122" filter="url(#a)"/><circle cx="9.274" cy="7.882" r="2.192" filter="url(#a)"/><circle cx="10.066" cy="4.578" r="1.776" filter="url(#a)"/><circle cx="10.83" cy="6.646" r="1.98" filter="url(#a)"/><circle cx="7.618" cy="7.87" r="2.826" filter="url(#a)"/><circle cx="7.394" cy="7.454" r="1.81" filter="url(#a)"/><circle cx="9.262" cy="4.79" r="1.79" filter="url(#a)"/><circle cx="8.146" cy="6.958" r="2.244" filter="url(#a)"/><circle cx="-9.912" cy="3.506" r="1.096" filter="url(#a)"/><circle cx="-9.464" cy="1.774" r="1.062" filter="url(#a)"/><circle cx="-12.424" cy="1.002" r="2.984" filter="url(#a)"/><circle cx="-11.66" cy="1.838" r="2.072" filter="url(#a)"/><circle cx="-9.296" cy="3.682" r="1.13" filter="url(#a)"/><circle cx="-11.324" cy=".69" r="2.704" filter="url(#a)"/><circle cx="-12.376" cy="2.99" r="2.702" filter="url(#a)"/><circle cx="-11.624" cy=".734" r="1.144" filter="url(#a)"/><circle cx="-10.292" cy="3.986" r="2.914" filter="url(#a)"/><circle cx="-11.612" cy=".806" r="1.548" filter="url(#a)"/></g><path fill="#D77F8C" stroke="#000" stroke-linejoin="round" stroke-width="3" d="m-17.96 60.79.26-.41.26-.4.27-.41.27-.41.27-.42.28-.41.28-.42.29-.42.29-.41.29-.42.3-.42.31-.41.3-.42.31-.41.32-.42.31-.41.33-.4.32-.41.33-.4.33-.4.33-.39.34-.4.34-.38.34-.38.35-.38.35-.37.35-.37.35-.36.36-.35.36-.34.36-.34.36-.33.37-.32.36-.32.37-.3.37-.3.38-.29.37-.28.38-.26.38-.26.38-.25.38-.23.38-.23.39-.21.38-.2.39-.18.38-.18.39-.16.39-.15.39-.13.39-.12.39-.1.4-.09.39-.08.39-.06.4-.04.39-.03.39-.01.4.01.39.03.39.04.4.06.39.08.39.1.4.11.39.14.39.16.39.17.39.2.39.22.39.24.39.26.39.28.38.31.39.33.38.35.38.37.38.4.38.42.38.45.37.47.38.5.37.52.37.55.37.57.36.6.37.63.36.65.36.68.36.71.35.74.35.77.35.8.35.82.34.86.34.88.34.92.34.94.33.98.33 1.01-.33-1.01-.33-.98-.34-.94-.34-.92-.34-.88-.34-.86-.35-.82-.35-.8-.35-.77-.35-.74-.36-.71-.36-.68-.36-.65-.37-.63-.36-.6-.37-.57-.37-.55-.37-.52-.38-.5-.37-.47-.38-.45-.38-.42-.38-.4-.38-.37-.38-.35-.39-.33-.38-.31-.39-.28-.39-.26-.39-.24-.39-.22-.39-.2-.39-.17-.39-.16-.39-.14-.4-.11-.39-.1-.39-.08-.4-.06-.39-.04-.39-.03-.4-.01-.39.01-.39.03-.4.04-.39.06-.39.08-.4.09-.39.1-.39.12-.39.13-.39.15-.39.16-.38.18-.39.18-.38.2-.39.21-.38.23-.38.23-.38.25-.38.26-.38.26-.37.28-.38.29-.37.3-.37.3-.36.32-.37.32-.36.33-.36.34-.36.34-.36.35-.35.36-.35.37-.35.37-.35.38-.34.38-.34.38-.34.4-.33.39-.33.4-.33.4-.32.41-.33.4-.31.41-.32.42-.31.41-.3.42-.31.41-.3.42-.29.42-.29.41-.29.42-.28.42-.28.41-.27.42-.27.41-.27.41-.26.4" filter="url(#a)"/></svg>