<svg xmlns="http://www.w3.org/2000/svg" width="500" height="500" viewBox="-100 -100 200 200"><defs><clipPath id="c"><path d="m29.98-1.06-.09-.04-.12-.05-.16-.04-.18-.05-.21-.04-.25-.04-.27-.04-.3-.04-.34-.04-.36-.04-.4-.04-.42-.03-.46-.04-.48-.03-.51-.03-.43-.04-.49-.04-.53-.04-.58-.04-.63-.03-.67-.03-.72-.03-.76-.03-.8-.03-.83-.03-.87-.02-.91-.02-.93-.02-.96-.02-.99-.02-1.01-.01-1.02-.01-1.05-.01-1.05-.01-1.07-.01H4.82l-1.07.01H2.68l-1.06.01-1.05.01-1.04.01-1.03.02-1 .01-.99.02-.97.02-.95.02-.93.03-.9.02-.88.03-.85.02-.83.03-.79.03-.78.04-.74.03-.72.03-.69.04-.66.04-.63.03-.61.04-.59.04-.56.04-.54.04-.51.05-.49.04-.47.04-.45.05-.42.04-.41.05-.38.05-.37.04-.34.05-.32.05-.3.05-.29.05-.26.06-.25.05-1.2.8.24.07.25.06.26.06.27.07.28.07.3.06.3.07.32.06.34.07.34.07.36.07.38.06.38.07.4.06.42.07.43.07.44.06.46.07.48.06.5.07.51.06.53.06.54.06.57.06.58.06.6.06.62.05.63.05.66.05.67.05.69.04.7.04.72.04.74.03.75.03.77.03.79.02.79.02.81.01.82.01.84.01H-.4l.86-.01.87-.02.88-.01.88-.03.89-.02.89-.04.89-.03.89-.04.89-.05.89-.05.89-.06.88-.05.88-.07.87-.07.86-.07.85-.07.84-.08.83-.08.81-.09.8-.08.79-.09.7-.07.69-.07.67-.07.67-.07.65-.07.64-.07.63-.07.61-.08.59-.07.58-.07.55-.08.54-.07.52-.07.5-.07.48-.07"/></clipPath><clipPath id="b"><path d="m-28.47-.69.09-.05.12-.06.15-.05.18-.05.22-.05.25-.05.28-.04.31-.05.35-.04.38-.05.4-.04.45-.04.47-.04.5-.04.53-.04.45-.04.5-.05.56-.04.6-.05.66-.03.7-.04.75-.04.79-.03.83-.03.88-.03.9-.02.94-.02.98-.02 1-.02 1.02-.02 1.04-.01 1.07-.01 1.07-.01h2.19l1.11-.01 1.11.01h1.11l1.1.01 1.1.01 1.1.01 1.08.01 1.07.01 1.05.02 1.04.02 1.02.02 1 .02.97.02.95.03.93.02.9.03.87.03.85.03.81.03.79.04.76.03.72.03.7.04.67.03.64.04.61.04.58.03.56.04.53.04.51.04.48.04.46.04.44.04.41.04.39.04.36.04.35.04.32.05.3.04.29.04.26.04.24.05.22.04.21.04-.24.8-.31.05-.33.05-.34.06-.36.05-.36.05-.38.05-.39.06-.4.05-.42.05-.43.06-.44.05-.46.05-.47.06-.48.05-.5.05-.51.05-.53.05-.54.05-.56.05-.57.05-.59.05-.61.05-.62.05-.64.05-.66.04-.67.04-.69.04-.7.04-.72.04-.73.03-.74.04-.76.03-.77.02-.79.03-.79.02-.81.02-.81.01-.83.02h-.83l-.84.01h-1.7l-.86-.01h-.86l-.86-.02-.86-.01-.86-.02-.86-.03-.86-.02-.86-.03-.85-.04-.84-.04-.84-.04-.83-.04-.81-.05-.81-.05-.8-.06-.78-.05-.77-.06-.75-.07-.74-.06-.72-.07-.7-.07-.68-.07-.63-.05-.61-.06-.6-.06-.59-.06-.57-.06-.56-.06-.54-.06-.53-.06-.51-.06-.5-.06-.47-.07-.46-.06-.44-.06-.42-.07-.4-.06"/></clipPath><filter id="a"><feTurbulence baseFrequency=".05" numOctaves="3" result="noise" type="noise"/><feDisplacementMap in="SourceGraphic" in2="noise" scale="2"/></filter></defs><rect width="100%" height="100%" x="-100" y="-100" fill="#CCF"/><path fill="#FFEBCD" stroke="#000" stroke-linejoin="round" stroke-width="1.667" d="m65.27.17-.17 1.02.25 1.55-.2.95-.09 1.2.02.33-.04 2-.05 1.8-.33 2.13-.13.55.2-1.15-.24 2.62-.09 1.01-.26 1.26-.14.48-.7 3.04-.68 3.24.44-2.03-.79 3.78-.05.71-.09.27-.71 2.63.27-1.48-.36 1.08-.97 3.84-.16.87-.63 1.51-.11-.01.04.09-.49 1.51-.62 1.48-.45 1.47-1.16 1.93.7-.92-1.16 2.43-.69.97-.58 1.27-1.3 2.78.84-1.73-1.07 2.22-1.42 1.98-.08.33-.57 1.11-.95 1.46 1.09-1.72-1.42 2.48-1.02 1.13-.55.6-1.59 2.34-.38.44-1.27 1.42-.9 1.34-.12-.17.22.12-.8.75-.63.68-1.9 1.91-.17.35-1.1.85-.3.54-.65.61-2.72 2.47.83-.7-.94.91-.73.37-1.93 1.36-1.12.88.09.09-1.51 1.06-.83.31-.78.74-.75.34-.21.15-1.53 1.12-.51.34-1.21.38-.3.03-2.31 1.26-1.19.55-.04.05-1.84.65-.43.26-1.2.49-1.11.47-1.04.19-.43.12-1.09.21.37.14-3.78.8.51.03-1.46.3.13-.21-2.09.26-1.23.21-.27.14-1.06.23-2.06-.02-.47.2-1.56.13-.37-.25-2.17-.05-.2-.03 1.2.32-2.72-.3.22.23-2.99-.31-.07.09-2.21-.49-.11.13-.24-.16-2.88-.63-.47-.19-1.35-.16.74.05-1.26-.34-2.07-.5-2.01-.83-.3.1.09-.06-.58-.14-1.61-.47-.76-.26-2.28-1.27.17.03-1.02-.31-2.04-1.12 1.12.42-.78-.29-2.24-1.27.98.52-1.44-.75-1.7-1.12-1.38-.8.15.15-2.78-2.44.02.29-1.76-1.49.04-.13-.21.05-1.65-1.64-1.06-.61.8.74-.94-1.09-.93-.78-.68-.73-1.72-1.9-.75-.64-.92-1.17-.81-.81-1.16-1.32-.17-.37-.75-1.18-.14.4-1.29-2.08-.7-.66-.15-.63-2.16-2.86.79 1.09-1.91-3.32.65 1.4-1.35-2.48-.14.01-1.29-2.51-.14-.02-.35-.71-1-2.58-.41-.38-.13-.86-.2.17-.94-2.62.19.51-.28-.61-1.13-2.93-.95-1.78-.26-1.48.01.7-.65-3.11-.61-1.01-.08-.68-.45-2.02-.73-2.41-.24-.74.29.71-.21-.57-.28-.98-.37-2.76-.42-1.4-.2-1.3.07-.06-.31-.95-.27-2.81-.23-1.63V8.98l-.28-1.6.33 1.12-.28-2.42-.21-1.22-.02-2.34.06-.67.03-.08-.12-1.86-.04.19.23-3.35-.18-.78.26-1.06-.04-1.21-.01-.93.41-2.52-.23-.61.12.12.17-1.76.49-2.32-.12-.34.63-3.04.23-1.39.24-1.66.09.58.2-2.24.25-.6.13-.93.84-2.11-.29.49.34-1.79.26-.37.85-2.75.25-1.08.44-1.2-.13.33.44-.73.41-1.85.16-.73 1.2-2.76.96-1.77.15-.13.14-1.06.08.38.73-1.43.76-1.93.61-.88.64-1.59 1.87-2.68-.54.8-.01-.24 1.89-2.4-.14.12 1.75-2.69-.02-.23.28-.43 1.08-1.23.17-.26.97-1.23 1.11-1.41.24-.35.6-.73.35-.63 1.39-1.1.98-1.42-.04.52 2.21-2.46.1-.1.92-.91.34-.27 2.31-1.83-1.04.61 1.41-1.07.64-.53.82-.62 1.48-.79-.14-.29 2.75-1.76.63-.39.16-.07 2.12-1.16-.26.08 1.32-.79 1.56-1 .07.14 2.66-1.47-.65.53 1.09-.47.28-.36 2.88-.95.67-.16 1.9-.7-.53.1 1.9-.49-.65.17 1.68-.49 1.79-.28.75-.15-1.03-.02 1.99-.26 2.28-.38.54-.18.96-.08 1.14-.07v-.14l1.86.17-.23-.27 2.43.16 1.84-.12-.55.05.58.15 2.68.02-.4-.21 2.28.29.86.04.25.05.87.21.59.07 1.72.44 1.94.44.09.01 2.39.56-.9-.31.23.09 2.3.54.64.63.37-.1 1.34.59H19l2.81 1.22-.85-.31 2.43.95.79.26 1.25.81-.68-.46 3.07 1.91-1.22-.85 2.73 1.76-.29-.45 1.88 1.47 1.66 1-.14-.02-.18-.15 1.46 1.02.29.27.82.6 1.44 1.36 2.37 1.94-.2.03 1.65 1.19-.49-.37.5.3.94 1.16.67.89 2.01 1.94.33.08.38.64-.04-.21 2.09 3.01-.19-.56.52.99 2.06 2.88.92.96-.03-.06.3.55.72 1.14 1.34 1.98.5.71.22.48-.02.17 1.89 3.06-.3-.37 1.51 2.64-.11-.04.5 1.11.11.57 1.3 2.51.28 1.38.31.4.25.72.11.11.57 1.34.97 3 .24.4v.28l.64 2.19-.07-.47.76 3.41.45.43.43 2.6.27 1.38-.28-2.33.55 3.65.3 1.59.13.83.37 1.76.07 1.18.09.17.36 1.61v.45l.36 4.08-.12-.18.08.07.32 3.84-.09-.13.16.61-.1 2.77.02.51.12.86-.17 1.02" filter="url(#a)"/><path fill="#fff" d="m-28.47-.69.09-.05.12-.06.15-.05.18-.05.22-.05.25-.05.28-.04.31-.05.35-.04.38-.05.4-.04.45-.04.47-.04.5-.04.53-.04.45-.04.5-.05.56-.04.6-.05.66-.03.7-.04.75-.04.79-.03.83-.03.88-.03.9-.02.94-.02.98-.02 1-.02 1.02-.02 1.04-.01 1.07-.01 1.07-.01h2.19l1.11-.01 1.11.01h1.11l1.1.01 1.1.01 1.1.01 1.08.01 1.07.01 1.05.02 1.04.02 1.02.02 1 .02.97.02.95.03.93.02.9.03.87.03.85.03.81.03.79.04.76.03.72.03.7.04.67.03.64.04.61.04.58.03.56.04.53.04.51.04.48.04.46.04.44.04.41.04.39.04.36.04.35.04.32.05.3.04.29.04.26.04.24.05.22.04.21.04-.24.8-.31.05-.33.05-.34.06-.36.05-.36.05-.38.05-.39.06-.4.05-.42.05-.43.06-.44.05-.46.05-.47.06-.48.05-.5.05-.51.05-.53.05-.54.05-.56.05-.57.05-.59.05-.61.05-.62.05-.64.05-.66.04-.67.04-.69.04-.7.04-.72.04-.73.03-.74.04-.76.03-.77.02-.79.03-.79.02-.81.02-.81.01-.83.02h-.83l-.84.01h-1.7l-.86-.01h-.86l-.86-.02-.86-.01-.86-.02-.86-.03-.86-.02-.86-.03-.85-.04-.84-.04-.84-.04-.83-.04-.81-.05-.81-.05-.8-.06-.78-.05-.77-.06-.75-.07-.74-.06-.72-.07-.7-.07-.68-.07-.63-.05-.61-.06-.6-.06-.59-.06-.57-.06-.56-.06-.54-.06-.53-.06-.51-.06-.5-.06-.47-.07-.46-.06-.44-.06-.42-.07-.4-.06" filter="url(#a)" transform="translate(38.58 -25.19)"/><path fill="#fff" d="m29.98-1.06-.09-.04-.12-.05-.16-.04-.18-.05-.21-.04-.25-.04-.27-.04-.3-.04-.34-.04-.36-.04-.4-.04-.42-.03-.46-.04-.48-.03-.51-.03-.43-.04-.49-.04-.53-.04-.58-.04-.63-.03-.67-.03-.72-.03-.76-.03-.8-.03-.83-.03-.87-.02-.91-.02-.93-.02-.96-.02-.99-.02-1.01-.01-1.02-.01-1.05-.01-1.05-.01-1.07-.01H4.82l-1.07.01H2.68l-1.06.01-1.05.01-1.04.01-1.03.02-1 .01-.99.02-.97.02-.95.02-.93.03-.9.02-.88.03-.85.02-.83.03-.79.03-.78.04-.74.03-.72.03-.69.04-.66.04-.63.03-.61.04-.59.04-.56.04-.54.04-.51.05-.49.04-.47.04-.45.05-.42.04-.41.05-.38.05-.37.04-.34.05-.32.05-.3.05-.29.05-.26.06-.25.05-1.2.8.24.07.25.06.26.06.27.07.28.07.3.06.3.07.32.06.34.07.34.07.36.07.38.06.38.07.4.06.42.07.43.07.44.06.46.07.48.06.5.07.51.06.53.06.54.06.57.06.58.06.6.06.62.05.63.05.66.05.67.05.69.04.7.04.72.04.74.03.75.03.77.03.79.02.79.02.81.01.82.01.84.01H-.4l.86-.01.87-.02.88-.01.88-.03.89-.02.89-.04.89-.03.89-.04.89-.05.89-.05.89-.06.88-.05.88-.07.87-.07.86-.07.85-.07.84-.08.83-.08.81-.09.8-.08.79-.09.7-.07.69-.07.67-.07.67-.07.65-.07.64-.07.63-.07.61-.08.59-.07.58-.07.55-.08.54-.07.52-.07.5-.07.48-.07" filter="url(#a)" transform="translate(-31.06 -24.11)"/><g fill="none" stroke="#000" transform="translate(38.58 -25.19)"><path stroke-linejoin="round" stroke-width="1.667" d="m-27.73-.12-.19-.06-.17-.06-.14-.06-.12-.05-.09-.06-.07-.06-.03-.05-.01-.06.03-.06.05-.05.09-.05.12-.06.15-.05.18-.05.22-.05.25-.05.28-.04.31-.05.35-.04.38-.05.4-.04.45-.04.47-.04.5-.04.53-.04.45-.04.5-.05.56-.04.6-.05.66-.03.7-.04.75-.04.79-.03.83-.03.88-.03.9-.02.94-.02.98-.02 1-.02 1.02-.02 1.04-.01 1.07-.01 1.07-.01h2.19l1.11-.01 1.11.01h1.11l1.1.01 1.1.01 1.1.01 1.08.01 1.07.01 1.05.02 1.04.02 1.02.02 1 .02.97.02.95.03.93.02.9.03.87.03.85.03.81.03.79.04.76.03.72.03.7.04.67.03.64.04.61.04.58.03.56.04.53.04.51.04.48.04.46.04.44.04.41.04.39.04.36.04.35.04.32.05.3.04.29.04.26.04.24.05.22.04.21.04.18.05.17.04.16.05.13.04.13.05.1.04.09.05.08.04.07.05.05.04" filter="url(#a)"/><path stroke-linejoin="round" stroke-width="2.222" d="m-29.58-.52.16.05.19.05.21.06.24.05.27.06.29.06.31.06.33.06.36.07.38.06.4.06.42.07.44.06.46.06.47.07.5.06.51.06.53.06.54.06.56.06.57.06.59.06.6.06.61.06.63.05.68.07.7.07.72.07.74.06.75.07.77.06.78.05.8.06.81.05.81.05.83.04.84.04.84.04.85.04.86.03.86.02.86.03.86.02.86.01.86.02h.86l.86.01h1.7l.84-.01h.83l.83-.02.81-.01.81-.02.79-.02.79-.03.77-.02.76-.03.74-.04.73-.03.72-.04.7-.04.69-.04.67-.04.66-.04.64-.05.62-.05.61-.05.59-.05.57-.05.56-.05.54-.05.53-.05.51-.05.5-.05.48-.05.47-.06.46-.05.44-.05.43-.06.42-.05.4-.05.39-.06.38-.05.36-.05.36-.05.34-.06.33-.05.31-.05.31-.05.29-.05.28-.05.28-.05.26-.05.25-.05.23-.05.23-.05.22-.05.21-.04" filter="url(#a)"/><circle cx=".35" cy="2.166" r="3.2" clip-path="url(#b)" filter="url(#a)"/><circle cx=".805" cy=".201" r="3.308" clip-path="url(#b)" filter="url(#a)"/><circle cx="3.715" cy="2.201" r="4.594" clip-path="url(#b)" filter="url(#a)"/><circle cx="3.725" cy="2.076" r="3.3" clip-path="url(#b)" filter="url(#a)"/><circle cx="2.975" cy="-1.259" r="3.284" clip-path="url(#b)" filter="url(#a)"/><circle cx="3.07" cy=".746" r="4.21" clip-path="url(#b)" filter="url(#a)"/><circle cx="1.845" cy="-2.384" r="4.594" clip-path="url(#b)" filter="url(#a)"/><circle cx=".43" cy="2.496" r="4.64" clip-path="url(#b)" filter="url(#a)"/><circle cx="-.2" cy="1.656" r="4.346" clip-path="url(#b)" filter="url(#a)"/><circle cx="1.745" cy="1.446" r="3.434" clip-path="url(#b)" filter="url(#a)"/></g><g fill="none" stroke="#000" transform="translate(-31.06 -24.11)"><path stroke-linejoin="round" stroke-width="2.222" d="m29.43-.56.16-.05.14-.05.12-.05.1-.05.07-.05.05-.05.02-.05-.01-.05-.04-.05-.06-.05-.09-.04-.12-.05-.16-.04-.18-.05-.21-.04-.25-.04-.27-.04-.3-.04-.34-.04-.36-.04-.4-.04-.42-.03-.46-.04-.48-.03-.51-.03-.43-.04-.49-.04-.53-.04-.58-.04-.63-.03-.67-.03-.72-.03-.76-.03-.8-.03-.83-.03-.87-.02-.91-.02-.93-.02-.96-.02-.99-.02-1.01-.01-1.02-.01-1.05-.01-1.05-.01-1.07-.01H4.82l-1.07.01H2.68l-1.06.01-1.05.01-1.04.01-1.03.02-1 .01-.99.02-.97.02-.95.02-.93.03-.9.02-.88.03-.85.02-.83.03-.79.03-.78.04-.74.03-.72.03-.69.04-.66.04-.63.03-.61.04-.59.04-.56.04-.54.04-.51.05-.49.04-.47.04-.45.05-.42.04-.41.05-.38.05-.37.04-.34.05-.32.05-.3.05-.29.05-.26.06-.25.05-.23.05-.22.05-.19.06-.19.05-.16.06-.15.05-.14.06-.12.06-.11.05-.1.06" filter="url(#a)"/><path stroke-linejoin="round" stroke-width="2.222" d="m30.11-.62-.21.04-.23.05-.27.05-.3.06-.32.06-.36.06-.38.06-.4.07-.43.07-.46.07-.48.07-.5.07-.52.07-.54.07-.55.08-.58.07-.59.07-.61.08-.63.07-.64.07-.65.07-.67.07-.67.07-.69.07-.7.07-.79.09-.8.08-.81.09-.83.08-.84.08-.85.07-.86.07-.87.07-.88.07-.88.05-.89.06-.89.05-.89.05-.89.04-.89.03-.89.04-.89.02-.88.03-.88.01-.87.02-.86.01h-1.69l-.84-.01-.82-.01-.81-.01-.79-.02-.79-.02-.77-.03-.75-.03-.74-.03-.72-.04-.7-.04-.69-.04-.67-.05-.66-.05-.63-.05-.62-.05-.6-.06-.58-.06-.57-.06-.54-.06-.53-.06-.51-.06-.5-.07-.48-.06-.46-.07-.44-.06-.43-.07-.42-.07-.4-.06-.38-.07-.38-.06-.36-.07-.34-.07-.34-.07-.32-.06-.3-.07-.3-.06-.28-.07-.27-.07-.26-.06-.25-.06-.24-.07-.22-.06-.21-.06-.21-.07-.19-.06-.18-.06-.17-.06-.17-.06-.15-.05-.14-.06-.14-.06" filter="url(#a)"/><circle cx="1.386" cy="-.297" r="3.65" clip-path="url(#c)" filter="url(#a)"/><circle cx=".796" cy=".183" r="3.314" clip-path="url(#c)" filter="url(#a)"/><circle cx="1.971" cy=".073" r="3.504" clip-path="url(#c)" filter="url(#a)"/><circle cx="4.101" cy="-1.307" r="3.9" clip-path="url(#c)" filter="url(#a)"/><circle cx="1.156" cy="-.322" r="3.32" clip-path="url(#c)" filter="url(#a)"/><circle cx=".776" cy="1.048" r="4.54" clip-path="url(#c)" filter="url(#a)"/><circle cx="3.951" cy="-.372" r="3.21" clip-path="url(#c)" filter="url(#a)"/><circle cx="3.196" cy="-2.612" r="4" clip-path="url(#c)" filter="url(#a)"/><circle cx="1.156" cy="-2.377" r="3.882" clip-path="url(#c)" filter="url(#a)"/><circle cx="2.601" cy="-.067" r="3.04" clip-path="url(#c)" filter="url(#a)"/></g><g fill="none" stroke="#DC143C" stroke-linejoin="round" stroke-width="2"><path d="m78.46 10.88-.59-2.02-1.4-1.72-.89-1.41-.18-1.26.28-1.21.27-1.19-.24-1.18-.94-1.18-1.54-1.18-1.8-1.18-1.68-1.2-1.32-1.21-.83-1.23-.34-1.25-.01-1.28-.17-1.35-1.13-1.44-1.43-1.1L-.55-81.49l-1.59-.15-1.01-.58-.91-.9-.88-.75-.91-.38-.98-.06-1.05.03-1.12-.08-1.12-.34-1.11-.62-1.09-.77-1.08-.79-1.06-.64-1.01-.41-.92-.19-.88-.08-.93-.15-1.14-.43-1.25-.97 17.61 8.1-.45-3.41-.72.6-.78.84-.88.25-1.02-.26-1.14-.6-1.21-.87-1.22-1.15-1.21-1.32-1.18-1.34-1.17-1.22-1.21-1.23-1.27-1.51-1.37-2.06-1.47-2.51-1.59-2.47-1.82-2.05-2.36-1.92-3.36-1.51" filter="url(#a)"/><path d="m-2.75-81.38-1.23.06-.82.3-.8.39-.9.38-1 .32-1.03.3-.96.36-.87.45-.78.59-.75.69-.76.73-.73.64-.68.47-.61.39-.62.53-.97 1.07 11.65-7.84 1.28-.19 1.11-.12 1.14-.22 1.06-.28.99-.28.97-.27.99-.3 1.04-.37 1.04-.5 1.03-.6 1-.58.98-.45 1.01-.21 1.08.04 1.16.17 1.18.18 1.09.1.86-.05.5-.39.26-.93" filter="url(#a)"/><path d="m-20.17-73.48.84-.71 1.25-.7 1.16-.61.93-.66.76-.68.7-.63.71-.52.77-.44.8-.37.81-.34.82-.33.88-.36.99-.37 1.09-.33 1.08-.21 1-.13.97-.54 17.58 5.82-.05-.07-.78-.46-1-.55-1.05-.56-1.02-.51-.94-.4-.88-.32-.84-.29-.87-.29-.91-.32-.94-.34-.95-.36-.95-.35-.93-.33-.97-.26-1.04-.19-1.07-.13-1.04-.09-.87-.03-.48.03" filter="url(#a)"/><path d="m-4.61-81.41-1.01.13-.99.33-1.05.61-1.01.88-.89 1.07-.75 1.19-.66 1.27-.63 1.29-.64 1.18-.66.9-.73.52-.81.16-.91.01-.97.12-.99.44-.92.75-.77.84-.62.74-.57.84-1.15 1.57m-4.07-12.63.81.12 1.05-.04.92-.1.94-.19 1.06-.26 1.14-.3 1.15-.33 1.07-.32.97-.25.91-.13.88-.03.9.05.9.07.9.03.88-.02.92-.09 1.05-.16 1.16-.17 1.13-.07.92.05" filter="url(#a)"/><path d="m-5.75-81.34-.87.47-1.03.79-1.06.88-.96.66-.85.42-.8.35-.79.4-.77.47-.75.51-.74.56-.75.63-.8.73-.87.81-.91.85-.91.84-.8.81-.67.78-.62.81-.69.8-.4.84 15.08-13.33.91.03.84.12.84.06h.91l.99-.01 1.03.03 1.02.07.99.11.97.13.97.13.97.11.96.12.93.15.91.21.89.28.91.35.97.39 1.01.39 1.02.37.94.3.79.21.62.13.68.17 1.43.33 48.37 62.76-.56-.41-.57-.88-.45-1.11-.57-1.15-.73-1.07-.77-.97-.76-.88-.76-.87-.8-.9-.83-.98-.78-1.04-.69-1.01-.65-.92-.75-.75-.93-.63-1.12-.67-1.13-.98-1.02-1.09" filter="url(#a)"/><path d="m64.16-14.32.19-.61-.03-1.04-.15-1.27-.05-1.38.13-1.43.34-1.44.48-1.45.51-1.5.45-1.56.29-1.59.12-1.56-.02-1.51-.05-1.47-.02-1.48.03-1.51.02-1.5-.07-1.43-.16-1.3-.18-1.2-.06-1.23.03-1.39-.19-1.56-.66-1.56-.25-1.41-76.1-32.57-1.62-.38-1.33-1.37-.96-.76-.76.21-.81.61-1.01.41-1.26-.09-1.43-.61-1.5-.98-1.47-1.16-1.42-1.1-1.37-.88-1.35-.56-1.35-.23-1.3.02-1.2.2-1.08.55-1.34 1.54 20.77 4.86 1.26-.27.73-.27.74-.36.93-.43 1.03-.45 1.05-.36.99-.25.95-.12.94-.07.95-.07.98-.13 1.01-.21 1.03-.26 1.01-.26 1.01-.22 1.01-.17 1.04-.15 1.05-.12 1.03-.12.94-.1.82-.15.72-.22.68-.18-21.9 4.94.28-7.16.61-1.23.71-.78.94-.8 1.14-.64 1.16-.58 1.09-.79.98-1.06.93-1.17.97-1.01 1.07-.73 1.2-.6 1.27-.95 1.14-1.86.75-3.16.53-4.96" filter="url(#a)"/><path d="m6.74-69.48-.51-1.18-.6-.59-.79-.45-.87-.67-.9-.86-.88-.84-.87-.63-.88-.33-.9-.09-.92.04-.92.07-.9-.02-.88-.15-.88-.25-.91-.35-.99-.41-1.04-.49-1.06-.56-1-.55-.9-.44-.93-.3-1.25-.42-1.67-.55.65-.17.08-.39.83-.54.9-.63.81-.93.78-1.35.83-1.69.91-1.73.97-1.48.98-1.11.98-.81.97-.74 1.01-.89 1.08-1.2 1.15-1.6 1.18-1.97 1.15-2.09 1.1-1.86 1.14-1.48 1.23-1.28.59-1.1" filter="url(#a)"/><path d="m-14.06-79.67.13-.17.85-.41.93-.4.88-.33.89-.27.96-.28 1.01-.34 1.02-.4.99-.42.95-.37.93-.28.96-.17.98-.07 1.02-.02 1.04-.03 1.02-.06 1.01-.1 1.02-.14 1.05-.19 1.08-.22 1.07-.24.97-.17.78-.03.73.16-26.21 6.2-1.57 2-1.04.5-.81.22-.78.28-.82.46-.84.65-.82.79-.78.88-.7.96-.63 1.08-.58 1.2-.63 1.23-.77 1.08-.95.82-.97.62-.86.9" filter="url(#a)"/><path d="m-18-78.42-1.9.8-1.01.66-.68.72-.62.88-.64 1.06-.66 1.18-.66 1.25-.61 1.29-.56 1.32-.54 1.3-.57 1.25-.63 1.16-.69 1.1-.7 1.11-.63 1.17-.49 1.31-.35 1.46-.37 1.42-.82.95-6.16-4.37.29-.37.44-.82.52-.95.54-.9.57-.78.65-.66.76-.54.86-.51.91-.55.93-.67.89-.81.84-.9.8-.94.8-.88.81-.77.86-.64.92-.55.92-.55.87-.64.78-.75.68-.78.7-.68 1.03-.62 1.92-.76.31-2.87.91-.22.82-.17.75-.34.79-.34.86-.27.89-.25.91-.38.91-.62.94-.9.96-1.13.98-1.21.97-1.13.97-.99.96-.92.98-.96 1.04-1.04 1.12-1 1.17-.76 1.13-.47 1.03-.43 1.18-.72 2.15-.86m59.34 81.91.24.58.4 1.07.32 1.34.15 1.4.06 1.37.05 1.3.06 1.26.1 1.24.12 1.2.15 1.18.16 1.15.14 1.12.09 1.1.04 1.09v1.1l-.01 1.13.02 1.18.05 1.26.04 1.33.01 1.33-.05 1.19-.04.89.04.72.04 1.49" filter="url(#a)"/><path d="m-20.88-77.47 2.11-.42 1.47.14 1.19.65 1.03.93.92.89.9.76.9.7.92.67.88.56.83.34.84.28.99.61 1.16 1.23 1.11 1.51.81.48-16.06-9.33 1.87-1.62.93-2.65.7-1.99.74-.78.8-.14.85-.17.83-.54.82-.91.79-1.13.79-1.3.85-1.56.96-2 1.05-2.45 1.04-2.56 1.03-1.99 1.16-.88-15.49 23.03.04-3.81 1.54.07 1.47.26 1.08-.47.75-1.26.55-1.87.5-2.22.57-2.2.66-1.81.78-1.19.9-.58 1.03-.21 1.17-.28 1.25-.83 1.15-1.69 1.01-2.24 1.12-1.22" filter="url(#a)"/><path d="m-4.07-111.66-.28 4.14-.81 2.46-.9 1.98-.99 1.48-1.14.88-1.23.54-1.25.53-1.19.59-1.12.56-1.07.47-.99.6-.87 1.09-.67 1.9-.47 2.74-.32 3.3-.33 3.44-.52 3.17-.85 2.5-1.18 1.52-.91.66" filter="url(#a)"/><path d="m-25.89-74.84 1.14-.68.97-.51.89-.45.82-.42.84-.45.94-.52 1.03-.57 1.08-.57 1.03-.52.92-.42.82-.33.77-.28.83-.3.98-.34 1.15-.39 1-.28-40.64 11.3 1.4-1.07 1.52-.28 1.54-.05 1.48-.08 1.4-.09 1.32-.06 1.26-.02 1.21.02 1.17.06 1.17.12 1.18.11h1.18l1.12-.28 1.01-.69.89-1.09.82-1.27.91-.9 1.22.12 1.5 1.16.81.81.71-2.34 1.13-.64 1.06-.48.83-.93.65-1.4.65-1.58.78-1.4.96-1.05 1.05-.73 1.06-.6.99-.66.89-.84.81-1.07.79-1.24.79-1.31.82-1.25.88-1.1.98-.91 1.11-.73 1.21-.66 1.21-.66 1.07-.71.86-.68.4-.55" filter="url(#a)"/><path d="m-33.83-55.69-.24-1.16.27-.93.41-.97.35-1.09.27-1.19.25-1.25.31-1.23.43-1.17.57-1.09.71-1.02.81-.96.83-.96.73-1.15.5-1.54.31-1.75.11-.9-1.57-2.73-1.89-2.11-1.25-.14-.91.98-.85 1.29-.95 1.1-1.11.59-1.33-.01-1.55-.59-1.7-.98-1.76-1.09-1.7-.9-1.59-.53-1.51-.21-1.58-.11-1.85-.35-2.27-.86-2.55-1.19-2.29-.53-1.37 1.58" filter="url(#a)"/><path d="m-57.99-75.44.55-.46.65-.8 1.27-.35 1.68.01 1.81.15 1.81.17 1.76.21 1.71.26 1.62.28 1.49.19 1.3-.01 1.12-.2 1.05-.25 1.15-.04 1.37.35 1.61.71 1.75.83 1.7.61 1.53.24 1.33.01 1.24-.04 1.54-.56 19-22.02-1.01 1.96-1.34 1.6-1.09 1.28-.89 1-.84.85-.84.83-.83.85-.82.82-.84.74-.9.65-.99.58-1.08.53-1.16.45-1.17.34-1.14.23-1.07.21-.98.36-.86.83-.63 1.69-.33 2.63-.15 2.64-.04.95M64-15.67l2.54.34 2.2.43.74 1.01.46 1.34.91 1.37 1.28 1.3 1.23 1.27.91 1.29.74 1.34.99 1.36 1.58 1.34 2.01 1.3 1.87 1.23L83.07.4l3.13 1.17M-32.61-70.75l-.71-.31-1.59-1.09-1.38-.52-.97.23-.81.49-.92.36-1.17.02-1.45-.33-1.65-.53-1.69-.48-1.54-.15-1.32.3-1.14.63-1.14.64-1.31.35-1.55-.06-1.75-.37-1.89-.44-1.94-.32-1.79-.08-.67.55m28.52 1.4-1.24.54-1.1.24-1.06.04-1.02-.04-1.02-.01-1.05.07-1.12.09-1.22.08-1.3.04-1.33.11-1.32.22-1.32.28-1.48.12-1.75-.29-1.93-.72-1.97-.98 17.92 2.61-1.41 1.6-.93.89-.7.92-.6 1.1-.59 1.16-.64 1.1-.68.98-.68.89-.64.86-.57.89-.54.91-.54.9-.57.85-.58.82-.53.84-.45.93-.33 1.07-.27 1.24-.24 1.36-.26 1.37-.25 1.2-.09.72.25-.19" filter="url(#a)"/><path d="m-38.09-66.23-.36.61-.28 1.22-.33 1.42-.47 1.34-.51 1.25-.47 1.24-.39 1.24-.36 1.19-.36 1.12-.36 1.07-.37 1.04-.41 1-.45.91-.49.81-.47.79-.35.93-.16 1.22v1.6l-.08 1.76-1.08 1.49" filter="url(#a)"/><path d="m-38.09-66.23-.05 1.13-.02 1.62-.18 1.64-.47 1.34-.77.89-.91.6-.87.58-.67.75-.45.99-.28 1.18-.18 1.3-.14 1.32-.12 1.3-.13 1.25-.14 1.17-.12 1.2-.02 1.39.17 1.7.3 1.95.21 1.83-.09.95m4.59-25.81.71-.63.69-.88.45-1.07.34-1.28.38-1.4.5-1.38.67-1.28.81-1.16.88-1.1.88-1.12.84-1.18.78-1.24.74-1.3.72-1.4.71-1.56.7-1.71.67-1.82.59-1.81.44-1.8.31-1.65.52-.38-14.25 28.06-2.81-2.71-2-.7-.72 1.16-.29 1.7-.44 1.4-.74.9-1 .5-1.2.22-1.38.05-1.51-.08-1.6-.15-1.59-.12-1.5.03-1.35.28-1.17.58-1.02.82-.9.96-.92.94-1.08.78-1.3.66-1.48.76-1.42 1.09-1.29 1.37-1.32 1.57" filter="url(#a)"/><path d="m-39.35-65.05-.94.14-1.07.71-1.09.58-1.05.53-.98.55-.94.52-.95.48-.97.45-.96.48-.95.52-.95.52-1 .48-1.06.44-1.09.46-1.05.6-.94.78-.81.93-.75.95-.78.85-.92.81-1.17.88-1.52.9-1.95.25" filter="url(#a)"/><path d="m-41.66-62.49-.47-.13-1.15.06-1.31.05-1.27.03-1.2.08-1.12.2-1.1.31-1.16.31-1.28.17-1.46-.03-1.67-.26-1.91-.42-2.12-.43-2.18-.2-1.95.27-1.53.78-.79.73 22.73-.62-1.24.56-1.59-.47-2.39-1.56-2.71-1.82-2.23-1.08-1.32.12-.52 1.1-.2 1.48-.33 1.34-.74.96-1.14.64-1.43.45-1.6.29-1.77-.02-2.02-.54-2.43-.86-3.49-.04 27.15-.55-.76 1.22-.5.96-.52.79-.43.96-.21 1.29-.01 1.54.05 1.57-.05 1.41-.27 1.16-.48.95-.58.88-.55.92-.44 1.03-.3 1.14-.2 1.21-.19 1.27-.19 1.36-.1 1.53.13 1.74.32 1.81.22 1.41-.15.3 3.47-24.72-.49-2.3.93-.79 1.06-.61.93-.77.75-1.02.61-1.2.51-1.27.51-1.22.54-1.07.62-.89.68-.76.75-.71.77-.8.78-1 .76-1.26.76-1.49.79-1.53.83-1.33.92-1.07 1.43-1.29-14.44 22.38-.89.18-1.55-.43-1.65-.32-1.53-.11-1.47-.06-1.46-.09-1.44-.03-1.45.1-1.45.25-1.44.39-1.33.52-1.18.6-1.13.6-1.47.43-2.34.06-3.54-.64-4.79-1.92 29.51 1.2-.69.41-.99.59-.85.72-.67.79-.59.83-.6.84-.63.87-.67.92-.69.94-.7.93-.72.91-.78.87-.88.87-1 .88-1.09.88-1.11.88-1 .83-.81.76-.56.68-.38.66-.47.73-1.07 1.02" filter="url(#a)"/><path d="m-44.94-59.13.54-.75.66-.86.7-1 .72-1.03.74-1.01.75-.98.74-.95.7-.94.65-.95.62-.95.6-.92.63-.87.68-.84.75-.83.82-.87.87-.95.92-.98.95-.96.97-.84.93-.73.85-.68.76-.69.85-.91-17.64 20.84.2-.66.35-.88.55-.96.62-1.08.62-1.17.63-1.19.68-1.12.7-1.04.7-.99.67-.97.64-.96.62-.94.64-.89.69-.86.75-.86.81-.95.83-1.09.83-1.29.79-1.44.76-1.45.73-1.32.73-1.13.67-1.06.82-1.2-18.11 28.14-.09-2.42-.14-2.16-.06-1.8.3-1.27.64-.95.81-.83.9-.8.92-.8.92-.81.86-.9.74-1.04.6-1.21.48-1.33.45-1.33.48-1.28.54-1.22.62-1.24.66-1.37.69-1.59.7-1.86.64-2.15.56-2.32.59-2.23 1.1-2.67-15.42 37.73-.22-.73-.09-1.11.25-1.03.58-.83.77-.7.8-.67.75-.7.67-.76.64-.85.62-.96.6-1.11.54-1.29.48-1.45.44-1.5.46-1.32.53-.9.62-.21-8.44 16.12.03-.45.34-.62.53-.72.59-.82.6-.91.57-.95.53-.97.54-.96.59-.94.65-.93.7-.94.73-.98.74-1 .73-1 .74-.95.73-.89.72-.86.66-.79.56-.65.83-.62M-50.52-51.3l-.33.55-.57.88-.47.83-.45.94-.48 1.12-.52 1.28-.54 1.32-.5 1.26-.43 1.12-.32.98-.24.89-.24.91-.34 1.06-.52 1.31-.63 1.53-.31 1.27" filter="url(#a)"/><path d="m-52.26-48.78-.89-.33-1.59.53-1.08 1.15-.57 1.46-.33 1.43-.34 1.21-.53.94-.8.73-1.09.64-1.26.67-1.25.79-1.07.94-.76 1.06-.48 1.1-.32 1.09-.35 1.05-.51 1.04-.76 1.08-.92 1.11-.83 1.07-.37.92.31.32 16.33-20.8-1.54 2-1.41 1.24-1.3.92-1.02.86-.72.86-.47.87-.37.94-.37 1.05-.44 1.19-.53 1.27-.63 1.25-.7 1.11-.76.91-.78.72-.84.64-.97.71-1.19.9-1.32 1.08-.77.9 11.23 6.21-.6-.41-.31-1.06-.01-1.25.16-1.25.18-1.17.11-1.07.07-1.03.06-1.07.11-1.17.2-1.28.24-1.36.25-1.36.19-1.29.13-1.16.12-1.04.19-1.01.33-1.08.46-1.22.56-1.3.59-1.37" filter="url(#a)"/><path d="m-33.67-55.44-2.09.03-1.08.31-.91.42-1 .27-1.04.15-1 .16-.94.25-.89.35-.84.44-.77.52-.7.6-.68.64-.77.6-.97.49-1.18.39-1.25.33-1.13.32-.85.35-.67.5-1.16 1.42" filter="url(#a)"/><path d="m-54.23-45.31-1.49.45-1.44.55-.93.65-.62.69-.52.8-.57.95-.74 1.06-1.01 1.04-1.33.86-1.59.63-1.73.43-1.68.38-1.48.51-1.23.75-1.04.96-.97 1.09-.99 1.06-1.05.96-1.1.88-1.16.87-1.05.91-.49.84 23.6-16.44 1.62-.29.62-1.39.62-1.13.77-.7.85-.55.83-.65.77-.78.7-.85.68-.82.64-.75.64-.7.65-.68.69-.67.75-.63.81-.54.79-.41.74-.24.67-.17-13.84 11.95-.83 1.42-.72.82-.45.69-.34.82-.38 1.02-.5 1.18-.63 1.21-.74 1.13-.8.98-.84.84-.8.78-.73.82-.59.95-.48 1.07-.41 1.16-.41 1.13-.49 1.05-.61.96-.67.92-.63.95-.43 1.03-.19.99-.04.3 12.71-22.22-.15-1.83-.92-2.86-.87-2.59-.24-1.72.49-.99.98-.61 1.15-.57 1.04-.71.75-.95.41-1.21.11-1.49-.11-1.77-.24-2.05-.35-2.32-.38-2.41-.33-2.16-.87-2.74" filter="url(#a)"/><path d="m-55.6-42.5 1.7-.73 1.43-.78.68-1.3.34-1.37.32-1.19.46-1 .62-.88.77-.77.85-.68.9-.57.91-.51.89-.46.88-.44.89-.41.93-.36.99-.26 1.02-.18 1.01-.2.96-.31.89-.43.93-.46 1.06-.33 1.24-.11 1.13.35" filter="url(#a)"/><path d="m-76.8-24.58.94-1.73 1.15-1.1.9-1.03.89-.95.97-.87 1.1-.86 1.16-.89 1.16-.92 1.08-.9.99-.84.98-.73 1.08-.64 1.18-.68 1.18-.84.98-1.14.68-1.38.52-1.31.73-.77 1.4.23 1.4.86-1.56-34.25-.77 2.09-.73 1.47-.19 1.69.23 2.01.41 2.19.49 2.32.66 2.54.89 2.76 1.03 2.81.93 2.58.52 2.11-.12 1.56-.91 1.04-1.64.59-1.93.44-.86 1.33 3.55 4.72-.22.68.17-.69.33-.7.5-.98.6-1.18.67-1.26.67-1.23.65-1.13.62-1.03.6-.95.62-.95.63-.96.64-.97.62-.94.59-.88.58-.82.59-.8.64-.82.69-.89.71-.91.49-.65" filter="url(#a)"/><path d="m-57.66-38.49.55-1.27-.15-1.13-.74-1.45-1.1-1.97-1.4-2.57-1.55-3.02-1.34-3.05-.72-2.58.16-1.76.95-.97 1.36-.57 1.24-.69.77-1.22.15-1.86-.3-2.29-.48-2.37-.4-2.23-.29-2.15-.26-2.34-.16-2.63 1.31-1.52M62.65-23.5l1.54.42-.3-.64-.54-1.22-.37-1.47-.16-1.51-.08-1.43-.15-1.3-.3-1.19-.43-1.13-.5-1.09-.47-1.08-.38-1.07-.26-1.11-.14-1.17-.1-1.27-.1-1.36-.16-1.38-.22-1.32-.24-1.24-.22-1.23-.17-1.27.08-.69" filter="url(#a)"/><path d="m-59.87-32.42-.2.14-.94.59-1.43.74-1.36.84-1.03.92-.65.99-.36 1.05-.23 1.09-.25 1.09-.37 1.06-.54 1.05-.67 1.06-.74 1.15-.74 1.26-.68 1.39-.57 1.48-.46 1.51-.38 1.45-.43 1.33-.59 1.21-.74 1.18-.75 1.29-.59 1.37-.45 1.3 15.15-26.54.41-.99.45-1.3.54-1.43.6-1.39.57-1.24.5-1.04.46-.9.46-.87.51-.92.58-1.03.63-1.12.67-1.16.65-1.13.62-1.03.6-.93.62-.88.69-.93.77-1.06.76-1.14.47-.78" filter="url(#a)"/><path d="m-64.08-14.32.1-1.05.26-1.57.26-1.46.22-1.22.21-1.05.2-1 .22-.99.24-.98.24-.98.26-.97.26-.99.3-1.07.36-1.21.4-1.35.42-1.35.39-1.19.14-.05.3-.71.42-1.1.52-1.3.57-1.36.55-1.25.48-1.07.42-.89.41-.78.46-.82.55-.95.64-1.13.74-1.32.92-1.57 1.37-2.08m-8.93 17.58-.29-1.05.18-.59.23-.84.19-1.23.08-1.57-.13-1.83-.43-1.97-.66-1.95-.68-1.77-.47-1.54-.15-1.4.06-1.52-.06-1.95-.47-2.68-.86-3.56-.38-4.37" filter="url(#a)"/><path d="m-64.92-56.81.3 2.46-.34 1.77.09 1.93.71 2.08.94 1.97.73 1.73.38 1.57.21 1.66.23 1.86.32 1.98.26 1.82.01 1.37-.3.83-.22.57 1.42 1.66-1.1 3.83-3.08-3.95.51-1.27.82-.71.39-.85.06-1.17-.1-1.5-.23-1.78-.36-1.96-.4-1.94-.27-1.76-.04-1.48.24-1.28.41-1.22.47-1.33.44-1.5.42-1.6.42-1.59.41-1.5.31-1.52.1-1.71-.12-2.07-.11-2.34.16-2.22.02-1.61-.73 40.23-.32 1.1-.3.86-.55.86-.86.83-1.13.75-1.33.73-1.41.79-1.39.95-1.24 1.15-1.01 1.33-.74 1.46-.52 1.5-.43 1.44-.55 1.33-.9 1.23-1.32 1.17-1.66 1.18-1.75 1.21-1.56 1.21-1.13 1.15-.21 1.03-1.77-5.2.88-2.13 2-1.02 1.83-.93 1.36-1.19 1.1-1.42 1.13-1.51 1.38-1.42 1.69-1.22 1.92-.96 1.96-.75 1.8-.65 1.48-.66 1.04-.79.52-.96v-1.09l-.02-.97 2.01-.39M55.35 3.13l.72-.88.61-.95.61-.93.61-.95.59-1.01.55-1.06.47-1.1.36-1.14.26-1.17.22-1.21.21-1.24.19-1.26.11-1.24-.04-1.17-.24-1.08-.37-1.03-.35-1.06-.07-1.24.45-1.52 1.02-1.78 1.14-1.56.53.28" filter="url(#a)"/><path d="m65.84-8.5-.05-.91-.28-1.59-.32-1.42-.27-1.19-.23-1.06-.23-1.06-.25-1.13-.3-1.21-.3-1.25-.3-1.2-.25-1.06-.22-.93-.26-.98-.35-1.16-.45-.93L65.27.17l-.08-.86-.02-1.11-.03-1.21-.05-1.22-.06-1.22-.09-1.25-.1-1.26-.11-1.3-.12-1.3-.14-1.27-.15-1.23-.17-1.18-.18-1.16-.19-1.19-.21-1.22-.22-1.26-.22-1.22-.21-1.12-.2-.99-.23-1.01-.31-1.19-.4-.98-.76-3.41.57 2.44.46 1.66.33 1.3.24 1.1.18 1.06.16 1.14.16 1.22.14 1.26.14 1.23.14 1.19.15 1.15.16 1.17.15 1.22.15 1.27.12 1.29.1 1.29.09 1.26.07 1.23.04 1.18.01 1.24-.1 1.9-4.03-29.8-.36-1.12-.49-1.48-.42-1.23-.32-1-.28-.94-.28-1-.33-1.09-.38-1.14-.42-1.14-.44-1.12-.44-1.13-.41-1.18-.39-1.23-.38-1.26-.4-1.2-.45-1.11-.52-1.04-.59-1.06-.65-1.16-.62-1.18-.32-.96" filter="url(#a)"/><path d="m42.68-51.63 1.42 1.82 1.02.78.9.35.9.33.93.44.95.51.94.56.89.62.82.7.77.8.74.87.75.87.75.85.71.86.65.93.59 1.03.55 1.08.53 1.01.48.79.39.5.31.2-.11-.11 1.5-1.77-.35-.92-.39-1.24.09-1.7.65-2.07.98-2.26.93-2.22.51-1.98v-1.69l-.24-1.59.04-1.82.68-2.31 1.21-2.79 1.09-2.94.35-2.77.64-3.31-1.98 49.03-.29-1.86-.23-.69-.34-.83-.44-1.13-.5-1.3-.46-1.32-.42-1.25-.37-1.15-.38-1.08-.42-1.09-.44-1.14-.46-1.15-.44-1.04-.41-.78-.36-.53-.31-.43.65.23.76.3.72.64.72.93.7 1.05.68 1.05.69 1.01.74.99.79 1.04.83 1.12.83 1.2.82 1.17.83 1.06.9.91.95.89.99 1.11.98 1.35.72 1.11-15.99-21.62.33 1.14.45 1.43.17 1.36-.15 1.27-.28 1.25-.26 1.26-.14 1.29.01 1.26.14 1.19.2 1.16.12 1.18-.09 1.29-.35 1.43-.56 1.54-.64 1.54-.57 1.41-.37 1.22-.12 1.08.03 1.09-.03 1.21-.33 1.32-.78 1.5 2.72-29.53-.76-.24-1.1-.66-1-.82-.94-.76-.93-.63-.93-.51-.94-.49-.92-.52-.9-.54-.86-.47-.87-.39-.92-.44-.97-.77-.96-1.3-.76-1.27" filter="url(#a)"/><path d="m54.47-74.82-.69 2.17-.06 1.89.57 1.45.66 1.45.41 1.83.09 2.2-.16 2.34-.3 2.27-.3 2.07-.12 1.8.2 1.49.5 1.15.63.92.52.96.11 1.4-.71 2.27-1.41 2.03" filter="url(#a)"/><path d="m54.71-44.76-.78-2.37.24-1.86.92-2.27 1.12-2.61.88-2.53.42-2.11-.13-1.55-.61-1.11-.89-.98-.92-1.15-.69-1.55-.3-2.01.12-2.4.46-2.66.67-2.73.7-2.72.39-2.79-.23-3.9-3.26 36.24 2.35 1.12 2.98-.45 1.93.05.56.99-.12 1.52L60.4-43l.22 1.38.68 1.04 1.11.69 1.44.45 1.64.36 1.73.4 1.8.47 1.87.53 1.92.57 1.87.64 1.63.85 1.28 1.18.99 1.5 1.02 1.61 1.33 1.28 1.63.31 2.38-2.12-12.1 1.7-1.46-2.12-.85-1.21-1.15-.78-1.32-.7-1.22-.81-1.01-.96-.79-1.01-.6-1.01-.49-.98-.53-.95-.72-.89-1-.79-1.23-.66-1.26-.6-1.02-.7-.71-.92-.74-.96-1.57-.57-2.35-1.04" filter="url(#a)"/><path d="m70.97-33.72-1.55.37-.99-.59-.97-.77-1.11-.85-1.1-.91-.98-.9-.87-.82-.85-.73-.9-.7-.93-.74-.94-.8-.93-.83-.93-.78-.93-.72-.89-.77-.77-.97-.63-1.25-.67-1.32-1.19-.19-2.06-3.17.12-1.56-.09-1.03-.66-.69-.9-.83-.79-1.18-.5-1.55-.16-1.88.06-2.02.06-1.94-.14-1.64-.46-1.27-.71-.99-.81-.89-.73-.96-.56-1.1-.41-1.21-.4-1.26-.54-1.29-.78-1.34-1.01-1.43-1.02-1.61-.59-1.87.25-2.21 10.77 31.75 1.18 1.26.63.93.56.83.67.84.81.88.95.81 1.09.7 1.18.61 1.17.61 1.08.7.95.81.88.86.84.84.81.81.73.84.59 1 .45 1.19.44 1.27.59 1.15.88.85 1.24.46 1.59-.39" filter="url(#a)"/><path d="m50.06-52.3-.08-.65-.02-1.24-.37-1.47-.64-1.42-.61-1.47-.32-1.71.02-2.02.23-2.22.23-2.21v-1.97l-.32-1.59-.61-1.18-.82-.83-.88-.64-.84-.66-.73-.91-.64-1.32-.59-1.74-.59-2.08-.57-2.28-.46-2.3-.29-2.24-.09-2.15.23-1.47" filter="url(#a)"/><path d="m49.76-52.85.58.64 1 .75 1.2.61 1.11.55.94.63.8.79.72.94.67 1.04.67 1.04.7.97.77.9.84.88.93.91.98.9.96.82.78.66.41.53-.2.54m-13.86-14.1.51-1.32-.91-.99-1-1.21-.61-1.54-.13-1.91.21-2.18.3-2.22.17-2.06-.04-1.89-.21-1.81-.26-1.84-.21-1.84-.12-1.81-.03-1.77.03-1.86-.05-2.08-.35-2.36-.81-2.77-.97-3.42" filter="url(#a)"/><path d="m48.87-53.75-1.75-1.62-1.35-.56-1.06-.45-.78-.67-.57-.88-.51-.92-.64-.8-.85-.58-1.03-.33-1.09-.12-1.03-.04-.9-.12-.78-.3-.78-.51-.92-.62-1.15-.59-1.26-.46-1.08-.28-.57-.16 16.04 7.13 1.55 1.96 1.04.94 1.07.29 1.49-.15 1.85-.34 1.8-.17 1.36.28.87.73.72.93 1 .81 1.48.53 1.79.34 1.7.33 1.39.35 1.12.49-9.87 11.33-.77-1.81-.45-1.16-.38-.96-.45-.95-.53-1.01-.57-1.07-.57-1.07-.54-1.03-.52-1-.52-.97-.55-.99-.56-.97-.54-.89-.51-.8-.57-.79-.86-1.11-1.47-2.07-.52-.99 1.3.9 1.18 1.31.97.98.77.78.64.79.63.86.68.88.75.84.77.81.77.84.74.92.71.99.69 1.02.68.97.65.92.66.93.76 1.06.88 1.32.72 1.48" filter="url(#a)"/><path d="m46.48-57.06 1.13-1.07 1.19.37.71 1.36.47 1.46.51 1.17.71.84.94.62 1.12.49 1.2.43 1.21.46 1.17.53 1.13.64 1.07.75.95.85.84.93.76.97.83.96 1.06.94 1.33.92 1.3.88.35.9-22.07-18.41 1.13 2.05.76 1.1.81 1.04.85 1.09.76 1.04.62.96.52.92.48.97.48 1.03.43 1.07.38 1.04.34 1.02.41 1.06.49 1.12.02.71M26.11-64.76l.43-.05 1.18-.25 1.11-.25.8.01.58.34.57.5.78.41 1.07.2 1.28.04 1.33.03 1.21.13 1 .26.82.32.71.36.7.45.81.61 1.06.67 1.37.45 1.13.03" filter="url(#a)"/><path d="m25.46-63.14.72-.79 1.22-.38 1.11-.25.84-.07.69.09.7.21.82.28 1.03.26 1.23.14 1.36.01 1.34-.07 1.18-.03.95.1.76.25.74.41.85.55 1.03.72 1.11.83.91.38-18.67-6.72.07-.45.93-.06 1.14.01 1.16-.05 1.08-.1.93-.07.8.07.72.31.7.57.74.8.82.93.9.89.98.67 1.03.33 1.01.03.94-.08.87.09.87.48 1.08.89 1.57 1.38" filter="url(#a)"/><path d="m39.6-64.87.71.43.88.78.96.88.9.86.8.8.76.73.8.68.91.66 1.01.66 1.04.71 1.02.78.95.84.86.87.81.85.84.8.89.74.93.69.94.7.91.74.87.86.86 1 .86 1.12.79 1.09.69.43-21.95-19.55.33.16.76-.06.99-.39 1.35-.69 1.73-.85 1.99-.89 2.13-.91 2.2-1 2.28-1.14 2.29-1.15 2.15-.82 1.83-.18 1.54.54 1.58 1.02 2.05 1.15 2.1 1.01-27.3 4.2-.48 1.45-.1 1.32.3.64.41.66.43.95.54 1.07.65.97.66.85.51.9.27 1.1.11 1.35.09 1.45.17 1.42.3 1.61.43 2.77" filter="url(#a)"/><path d="m36.27-67.66 2.13.29 1 .53.68.46.64.39.73.42.8.54.82.71.78.84.71.92.69.92.73.86.85.78.96.73 1.06.71 1.08.75 1.02.8.89.85.8.87.78.86.81.86.85.84.82.7.7.37.34.11" filter="url(#a)"/><path d="m34.01-69.62 1.06.76 1.34.94 1.26.81 1.07.59.93.34.92.16 1.02.03 1.18-.01 1.32-.03 1.42-.03 1.42-.03 1.37.02 1.29.13 1.22.29 1.17.51 1.19.74 1.31.91 1.62.79 1.93.17 1.21-.41 9.69-9.09-2.25 1.42-2.33.99-2.7.66-2.48.18-2.09-.13-1.79-.19-1.66-.05-1.7.22-1.81.48-1.9.64-1.87.61-1.74.46-1.5.26-1.25.08-1.03-.1-.91-.3-.87-.57-.92-.85-1.03-1.07-1.11-1.04-1.04-.62-1.25 1.06m-1.28-.87-.27-.7-.6-1.66-.66-1.77-.68-1.59-.69-1.34-.74-1.06-.82-.77-.87-.58-.89-.58-.88-.8-.87-1.07-.86-1.3-.88-1.5-.88-1.85-.59-1.99" filter="url(#a)"/><path d="m19.1-87.14.96 1.55 1.11.82 1.15.65 1.1.64 1.03.72.95.8.87.86.8.88.74.95.71 1.07.66 1.26.65 1.45.68 1.55.78 1.5.78 1.21.37.47.14.02-1.46-1.12-1.24-.77-1.06-.61-.96-.55-.9-.55-.87-.53-.87-.52-.91-.5-.95-.47-.99-.46-1.03-.44-1.03-.42-1.01-.42-.98-.4-.94-.4-.89-.39-.85-.36-.78-.31-.73-.25-.7-.2-.79-.2-.99-.28-1.39-.38 20.66 9.53 1.05.54.57.12.62.01.8.07.99.18 1.18.27 1.37.23 1.52.02 1.65-.34 1.74-.71 1.8-1 1.82-1.08 1.79-.87 1.67-.41 1.43.19 1.1.71.8.96.76.79 1.36.41 2.67.93-28.57-2.49-.31-.47-.88-.44-.87-.55-.77-.8-.69-1.1-.65-1.33-.69-1.41-.77-1.37-.85-1.24-.93-1.05-.97-.8-1.01-.57-.99-.44-.95-.49-.85-.73-.73-1-.57-1.18-.54-1.13-.71-.8-.6-.52" filter="url(#a)"/><path d="m29.33-72.76-1.49-1.34-.81-.94-.69-1.07-.66-1.17-.72-1.12-.86-.9-1-.59-1.09-.32-1.13-.21-1.09-.28-1.01-.46-.91-.68-.83-.83-.76-.89-.74-.86-.73-.77-.78-.69-.89-.71-1.03-.83-1.15-1.02-1.18-1.11-1.05-.97-.86-1.02 21.46 18.78-1.58-1.02-.9-.62-.79-.62-.79-.6-.85-.52-.92-.46-1-.42-1.03-.43-1.04-.46-1.01-.48-.95-.49-.87-.48-.83-.51-1-.58-1.6-.69" filter="url(#a)"/><path d="m26.6-74.52 2.1.31 1.65-.41 1.47-.33 1.2-.11.88.19.66.49.64.68.78.7 1.01.59 1.25.4 1.43.17 1.54-.12 1.59-.41 1.57-.63 1.54-.66 1.51-.45 1.56-.18 1.79-.09 2.04-.3 1.84-.4.8.37m-30.7-.87.27-.65-.25-1.68-.69-1.28-1.03-.56-1.15-.19-1.14-.24-1.02-.56-.88-.95-.76-1.29-.69-1.46-.67-1.44-.63-1.3-.54-1.26-.5-1.34-.65-1.1-.71.25" filter="url(#a)"/><path d="m25.43-75.12.39-.19.96.23.9.54.88.68.92.7.93.63.91.49.83.33.77.16.76.09.8.16.87.39 1 .77 1.32 1.21 1.99 1.48 1.38 4.04-.7-.79-.47-.44-.5-.42-.68-.57-.87-.74-.98-.84-1.01-.85-.94-.79-.84-.68-.74-.57-.68-.51-.69-.49-.75-.51-.85-.55-.93-.6-.96-.59-.94-.56-.92-.55-.87-.51-.29-.15m-1.25-.81-.8-1.33-.89-1.29-.91-1.1-.87-1.28-.81-1.36-.81-1.16-.84-.78-.89-.44-.89-.22-.85-.13-.8-.17-.8-.3-.89-.56-1.03-.92-1.17-1.33-1.2-1.55-.9-1.24-5.27 10.25 1.65.16 1.02.08.8.1.83.11.95.12 1.04.14 1.05.16 1.01.16.91.18.83.18.78.22.78.25.81.3.85.34.9.34.95.33 1.03.3 1.07.29 1.06.32 1.51.57" filter="url(#a)"/><path d="m21.81-76.83.03.39.7 1.06.83.9.88.51.92.28.92.27.92.39.89.56.87.69.8.79.72.85.6.86.49.86.43.86.47.88.58.97.7 1.14.82 1.44.8 1.53.37.85M21.81-76.83l-1.93-.83-1.18-.52-.91-.5-.8-.65-.74-.91-.66-1.13-.6-1.27-.58-1.32-.64-1.38-.78-1.45-.94-1.44-1.08-1.24-1.13-.87-1.01-.64-.73-.97-.37-1.28" filter="url(#a)"/><path d="m16.86-78.54.85-.85.94.27 1.07.36 1.16.22 1.17.16 1.11.22 1.05.3 1 .34.99.31 1.01.25 1.05.22 1.1.22 1.12.22 1.13.21 1.12.13 1.07.01 1.03-.09.97-.1.96.01 1.03.24 1.23.53 1.68.84 2.57.93-27.05-5.58.7-.09.93-.51 1.26-1.1 1.46-1.25 1.54-1.17 1.54-1 1.46-.68 1.29-.21 1.12.24 1.06.44 1.18.17 1.47-.5 1.84-1.29 2.1-1.78 2.11-1.72 1.87-1.16 1.49-.48 1.23-.33 1.39-.93 1.78-1.64 1.34-.79M12.2-80.05l-.65-.22-1.15-.31-1.13-.32-.99-.32-.87-.38-.84-.43-.88-.44-.94-.36-.99-.23-.99-.07-1 .03-.99.06H-.23l-1.05-.11-1.06-.22-1.02-.28-.94-.26-.86-.17-.86-.12-.94-.04" filter="url(#a)"/><path d="m12.11-80.06-1.42-2.72-1.19-1.53-.93-1.13-.86-.46-.9.12-.97.37-1.03.4-1.05.32-1.05.24-1.04.12-1.04-.06-1.06-.31-1.07-.56-1.08-.76-1.06-.82-1.02-.72-1-.47-1.02-.17-1.08.08-1.19.15-1.23-.02-1.13-.43-.74-.81-.52-.57" filter="url(#a)"/><path d="m8.45-80.94-.6-.3-.66-.27-.76-.29-.9-.6-.97-1.04-1.01-1.35-1-1.35-1.01-1.08-1.02-.73-1.07-.5-1.11-.52-1.13-.8-1.16-1.24-1.17-1.72-1.22-2.1-1.3-2.3-1.37-2.19-1.44-1.81-1.42-1.34-1.37-1.12-1.35-1.44-1.5-2.02-1.9-1.88-2.29-.68" filter="url(#a)"/><path d="m6.99-81.22-.49-.7-.88-1.19-1.04-1.42-1.05-1.27-1.02-.75-1.01-.22-1.03-.03-1.07-.24-1.1-.64-1.12-1.01-1.11-1.24-1.1-1.33-1.13-1.34-1.19-1.3-1.28-1.26-1.36-1.23-1.37-1.2-1.3-1.12-1.2-.98-1.26-.9-1.69-1.13-2.29-1.54" filter="url(#a)"/><path d="m3.6-81.6-.43-.16-.95-.44-.92-.8-.93-1-1.01-.96-1.07-.7-1.07-.42-1.01-.22-.97-.16-.97-.21-1.03-.34-1.13-.5-1.22-.61-1.24-.65-1.11-.65-.92-.64-.95-.7-1.65-1.15L4-81.39l.51-1.99 1.1-2.23 1.05-1.47.95-.75.95-.27 1.06-.11 1.18-.17 1.23-.32 1.24-.55 1.23-.96 1.23-1.51 1.28-1.98 1.33-2.04 1.34-1.57 1.27-.87 1.19-.47 1.19-.63 1.25-1.7L1.32-81.41l-.38-.74-.67-1.46-1.07-2.32-1.21-2.48-1.18-2.14-1.08-1.52-1-.72-.97.08-1.02.47-1.17.18-1.34-.83-1.49-2.16-1.56-3.26-1.55-3.58-1.53-2.92-1.53-1.71-1.39-1.14-.69-2.88" filter="url(#a)"/></g><path fill="none" stroke="#000" stroke-linejoin="round" stroke-width="3" d="M-9.7 2.47q19.31.17 9.655-7.888" filter="url(#a)"/><path fill="#D77F8C" stroke="#000" stroke-linejoin="round" stroke-width="3" d="m25.81 54.64.24.84.15.09-.35.99.18-.47.03.12v.34l.03.12-.35.55-.25 1.05-.73.85.36-.4-.47.56-.18.37-.73.82-.16.26-.58.56-.41.51.31-.45-1.31 1.3.67-.54-1.34 1.01.38-.27-.67.47-1.04.8h.04l-2.85 1.79 1.92-1.11-2.36 1.46.18-.17.14-.1-2.52 1.43-1.33.66-.1.1-1.41.65 1.05-.49-2.88 1.34 1.14-.54-2.32 1.03.93-.41-.52.23-2.02.82-1.48.56.91-.33-1.53.56-1.48.52-1.2.4-2.55.78-1.02.29.4-.11-1.63.45-.11.03-1.5.38-.39.1-1.29.3-.4.09-1.63.36-.73.15.03-.01-.43.09-1.19.21-1.47.24-1.28.2-1.28.18-1.38.14-1.52.15-.8.05-.61.04-.8.03-1.8.1.43-.06.48.06-1.15-.03-1.16.03.14.02-1.52-.12-2.59-.11.38-.03.48.11-2.16-.37.98.25-1.48-.23-1.03-.19-.82-.27-.09.01-.24-.04-.37-.21-.81-.19-.31-.14-.27-.25-1.21-.73.11.06-.32-.04-.65-.7-.34-.14.45.19-.25-.17-.08-.21-.52-.54-.37-.35-.08-.77-.09-.44.03.42.06-.92-.19-.18.26-.09.29-1.19.17-.49.07-.03-.25.16.74-1.28-.34.61.35-.74.41-.33.43-.74.87-.75-.33.18.62-.66.9-.73.19-.15.17-.06.04-.21.86-.59 1.04-.81.37-.27.66-.43.77-.45.38-.26.29-.17.16-.05 1.29-.78.64-.38.5-.28 1.89-.93-.34.14 2.61-1.19-.21.05.17-.05 1.98-.85.84-.35.53-.22.16-.05-.09.02 2.33-.88.25-.07 2.84-.98-1.73.58.96-.32 4.28-1.3-2.42.71 4.05-1.16-.39.11.74-.2 1.88-.46-.69.17 3.63-.82.85-.16-.9.18 2.35-.46-.4.09.91-.15 1.82-.28.66-.1 1.14-.18-.62.09 2.48-.25.6-.05L9.64 50l1.3-.04-1.2.09-.28-.03 2.08-.06 2.46-.03-.1.04.65-.02.94.07.92.08-.28.01.65-.01 2.01.34-.04-.07-.8-.03 1.04.08 1.21.33.68.22 1.06.32-.01-.09 1.01.45.1.2-.27-.12 1.37.59-.01.01.69.7.08.1.01-.1.66.71-.13-.17-.14-.16.53 1.31-.24-.59" filter="url(#a)"/></svg>