<svg xmlns="http://www.w3.org/2000/svg" width="500" height="500" viewBox="-100 -100 200 200"><defs><clipPath id="c"><path d="m33.18-3.22.09-.79.04-.74-.02-.7-.08-.66-.13-.61-.18-.57-.23-.54-.29-.5-.33-.47-.39-.44-.43-.41-.47-.37-.52-.35-.57-.33-.6-.3-.55-.28-.61-.26-.68-.24-.74-.22-.8-.2-.86-.19-.91-.17-.96-.15-1.02-.14-1.05-.13-1.1-.12-1.13-.1-1.16-.1-1.2-.08-1.21-.08-1.24-.07-1.25-.06-1.27-.05-1.27-.04-1.28-.04-1.28-.04-1.27-.03-1.27-.02-1.26-.02-1.24-.02-1.23-.01-1.22-.01-1.19-.01H-4.6l-1.08.01h-1.05l-1.02.01-.99.01-.95.01-.92.01-.87.01-.85.02-.81.01-.77.02-.73.02-.7.02-.67.02-.64.02-.6.02-.57.02-.54.02-.52.03-.49.02-.47.03-.44.02-.42.03-.39.03-.37.02-.35.03-.32.03-.31.04-.28.03-.27.03-.24.04-.23.03-.21.04-.2.03 1.17 5.79.26.37.27.38.28.4.29.4.3.42.31.43.32.45.33.45.34.47.36.48.36.49.38.51.38.51.41.53.41.54.43.56.44.56.45.58.48.58.49.6.5.61.53.62.54.63.56.63.58.64.6.65.62.64.64.65.66.64.68.64.7.63.73.63.74.61.76.6.79.58.8.56.82.54.84.51.86.49.88.45.9.42.91.38.93.35.94.3.96.25.97.21.98.15 1 .1 1 .04 1.01-.01 1.02-.08 1.02-.13 1.03-.21 1.03-.26 1.03-.33 1.03-.4 1.03-.47 1.02-.53 1.02-.61 1-.66 1-.73.99-.8.98-.85.95-.92.83-.53.81-.57.8-.59.78-.61.77-.64.75-.66.74-.67.71-.7.69-.7.67-.71.65-.73.62-.72.59-.73.56-.72.54-.71"/></clipPath><clipPath id="b"><path d="m-31.48 2.68-.21-1.35-.14-1.26-.09-1.19-.02-1.12.04-1.04.09-.98.16-.91.21-.86.26-.79.32-.75.37-.69.42-.64.47-.6.52-.55.56-.51.49-.48.57-.44.64-.4.7-.37.77-.34.83-.32.89-.28.94-.26 1-.24 1.04-.22 1.09-.19 1.12-.18 1.17-.16 1.19-.14 1.22-.13 1.24-.12 1.26-.1 1.27-.09 1.28-.08 1.29-.06 1.29-.06 1.29-.06 1.29-.04 1.27-.04 1.27-.03 1.25-.02 1.23-.02 1.21-.02 1.18-.01 1.17-.01h1.13l1.1-.01 1.08.01h2.04l.97.01.94.01.9.01.86.01.83.01.79.01.75.02.72.01.69.02.65.01.61.02.59.01.56.02.54.02.5.02.49.02.45.01.43.02.41.02.38.02.37.03.33.02.32.02.3.02.28.02.26.03.24.02.22.02.21.03-1.14 6.21-.25.39-.26.41-.27.42-.28.44-.29.45-.31.46-.32.48-.33.5-.34.51-.36.52-.37.54-.39.56-.4.57-.41.58-.44.61-.44.61-.47.63-.48.65-.5.66-.53.68-.54.69-.56.7-.59.72-.61.72-.63.74-.65.74-.68.74-.7.75-.73.75-.74.75-.78.75-.79.73-.82.73-.84.71-.86.7-.89.67-.9.66-.92.62-.95.6-.96.56-.98.52-.99.49-1.01.43-1.02.39-1.03.34-1.04.29-1.05.22-1.05.16-1.06.1-1.06.03-1.07-.04-1.06-.11-1.06-.19-1.06-.27-1.04-.34-1.04-.42-1.03-.5-1.02-.59-.99-.66-.99-.74-.96-.82-.94-.9-.92-.96-.89-1.04-.81-.6-.78-.63-.77-.66-.75-.69-.73-.71-.7-.75-.69-.76-.66-.79-.64-.8-.61-.81-.58-.83-.56-.83-.52-.83-.5-.83-.46-.82"/></clipPath><filter id="a"><feTurbulence baseFrequency=".05" numOctaves="3" result="noise" type="noise"/><feDisplacementMap in="SourceGraphic" in2="noise" scale="2"/></filter></defs><rect width="100%" height="100%" x="-100" y="-100" fill="#4682B4"/><path fill="#FBCEB1" stroke="#000" stroke-linejoin="round" stroke-width="1.667" d="m69.04-.05-.03 1.66.12 1.11-.29-.45-.09 2.37.18.93-.22 3.07-.09.92-.33 1.08.02 1.33-.04 1.01-.38 1.18-.03.46-.32 1.71-.14 1.56-.27 1.12-.29 1.06.1.39-.55 2.47-.02.14-.49 1.47-.54 2.35-.79 1.8.15-.39-.64 2.66-.4.53-.04.71-.84 1.94.17-.08-1.08 2.56-.35.84-.61 1.2-.15.53-1 1.64-.51 1.65-.42.86-.27.11-.66 1.65-.85 1.12-1.02 1.88-.36.63-.58.93-.6.69-1 1.44.48-.64-1.49 2.27-.46.71-.83.87-1.88 2.5-.11.41-1.11 1.05-.67.6-.1.45-1.09 1.17-1.16 1.05-1.18 1.05-.29.78-.29.33-1.86 1.6 1.27-1.22-2.1 1.91-1.09 1.06-1.01.55.36-.09-1.73 1.32-.39.36-1.27.51-1.63 1.39-1.68.82 1.13-.52-2.88 1.89.56-.49-1.45.75-1.5.84-1.54.79-.23.46-1.46.7 1.07-.64-2.65 1.21-1.23.65.45-.18-2.1.44-.94.66-.41-.19-2.25.8-1.73.52.02-.07-.26.23-.45.11-.76.22-2.93.5-1.42.4.05-.06-2.17.34-1.32.27-.8-.05.24.06-2.37.1-.14-.15-1.21.16-1.16-.16-1.91.11-.42.09-1.12-.2-1.57-.18.21.19-.71-.06-2.73-.18-1.91-.4.22.19.5.09-1.69-.37-1.98-.6h-.39l-1.8-.62h-.32l-.9-.08-1.97-.68.2.23-2.8-1.22-.16-.01-.05.01-3.75-1.49-.06-.13-1.57-.76-.2.04-1.21-.89-.83-.29-1.48-.74-1.14-.64.12-.19-1.18-.57-1.63-1.02-.5-.32-1.5-1.14-1.57-1.12.23.22-.69-.57-.98-1.17.2.24-2.1-1.64.01.37-1-1.29-1.73-1.66-.1.29-1.34-1.28-1.13-1.06-.68-1.17.13.38-1.89-2.21-.65-.88-.81-1.01-.08-.24-1.2-1.19-1.4-2.32.23.42-.53-.28-1.02-1.97-.93-1.19-.09.06-.02-.4-2.18-3.66-.22-.12-.04-.13-.99-2.22-.81-1.33-.37-.56.05.37-1.21-3.26-.17.03-1-2.45.35 1.12-1.19-3.28-.05-.21-.37-.4-1.03-3.25-.08.21v-.63l-.93-2.93-.17-.14-.21-1.29.18.8-.56-2.38-.58-2.75-.39-.88.05-.46-.35-1.62-.43-1.89-.12-1.64-.01 1.09-.49-3.39.18-.53-.34-2-.07-.2-.19-1.11-.04-.99-.15-3.05.15 1.55-.08-3.34-.27-2.35.18-.38-.1-1.94.02-1.53-.09.35.23-3.83-.03 1.53.38-3.17.15-2.12-.19 1.45.11-1.15.3-1.98.2-2.23.09-.7.33-1.85-.07-.31.35-1.41.59-2.93.22-.23.01-1.1.99-3.48-.05.36.06-.52.67-1.52.62-2.16-.23.92 1.17-3.54-.45 1.36.43-1.37.89-2.17.61-1.44-.31.59.55-.87 1.03-2.58-.12-.04.93-1.68.2-.8.58-.81.91-1.95.03-.15 1.97-3.2-.21.34 1.2-2.29 1.3-1.76-.56 1.14 2.21-3.31-1.24 1.63 2.24-3.02-.22.41.85-1.31.94-1.26.09.28.43-.64 2.27-2.46.08-.62 1.91-1.7.01-.27 1.96-1.6.04-.23.17.08.73-.79 2.4-2.16-.28.32.64-.19 1.03-.86 1.37-1.4.98-.7-.23.02 2.84-1.78-1.42.96 2.31-1.65 1.12-.51 1.57-.79.32-.33.86-.38 1.59-.84-1.12.28 2.61-1.04.48-.27 1.28-.4.87-.52 1.66-.59 1.12-.25.21-.46 1.37-.38.98-.1 1.39-.47 1.42-.29 1.57-.37.58-.43-.55.24 3.8-.52.18-.17.37.04 1.77-.39 1.07-.16.02-.02.07.02 2.58-.12.46-.08 2.2-.05-.5.2 1.62-.26 1.31.18.87.13-.01-.13 2.81.39.1-.15 2.08.25 1.87.35.62.18.65.11 1.1-.04h.21l1.96.49.91.19.42.13 2.44.94-.13.04 2.28.73.85.37-.63-.12.61.03.86.53 3.29 1.19.09-.04 1.08.45-.07.28 3.12 1.45-1.53-.83 2.53 1.72.36.18 1.74.96.45.23.72.38-.31-.1 2.68 2.18 1.76.86.03.41 1.04.33.39.47 1.67 1.77.56.19.62.36 1.42 1.22-.34.23 2.94 2.72-1.13-1.06.67.72 1.34 1.79-.37-.97.49.7 2.89 3.38-.97-1.14 2.01 2.23.5.95.85 1.04-.09-.11L54-51.1l.01.11 1.01 1.39 1.31 1.78.11.48v.14l1.7 3.09.44.71.55 1.15 1.06 1.88.13.24-.42-.93.68 2.44.79.79 1.03 2.19.35 1.52.62 1.65-.45-1.71.84 2.44.45.95-.11.66 1.21 3.41-.05-.48.64 2.04.27 1.34-.12.06 1.01 4.51-.32-1.68.5 2.1-.14.22.4.73v1.17l.62 4.44.21-.55-.14-.61.27 2.87.2 1.2-.07 1.58.23 3.38-.05-.68.15 1.71.04-.52-.07 2.06.15 1.78-.03 1.66" filter="url(#a)"/><path fill="#fff" d="m-31.48 2.68-.21-1.35-.14-1.26-.09-1.19-.02-1.12.04-1.04.09-.98.16-.91.21-.86.26-.79.32-.75.37-.69.42-.64.47-.6.52-.55.56-.51.49-.48.57-.44.64-.4.7-.37.77-.34.83-.32.89-.28.94-.26 1-.24 1.04-.22 1.09-.19 1.12-.18 1.17-.16 1.19-.14 1.22-.13 1.24-.12 1.26-.1 1.27-.09 1.28-.08 1.29-.06 1.29-.06 1.29-.06 1.29-.04 1.27-.04 1.27-.03 1.25-.02 1.23-.02 1.21-.02 1.18-.01 1.17-.01h1.13l1.1-.01 1.08.01h2.04l.97.01.94.01.9.01.86.01.83.01.79.01.75.02.72.01.69.02.65.01.61.02.59.01.56.02.54.02.5.02.49.02.45.01.43.02.41.02.38.02.37.03.33.02.32.02.3.02.28.02.26.03.24.02.22.02.21.03-1.14 6.21-.25.39-.26.41-.27.42-.28.44-.29.45-.31.46-.32.48-.33.5-.34.51-.36.52-.37.54-.39.56-.4.57-.41.58-.44.61-.44.61-.47.63-.48.65-.5.66-.53.68-.54.69-.56.7-.59.72-.61.72-.63.74-.65.74-.68.74-.7.75-.73.75-.74.75-.78.75-.79.73-.82.73-.84.71-.86.7-.89.67-.9.66-.92.62-.95.6-.96.56-.98.52-.99.49-1.01.43-1.02.39-1.03.34-1.04.29-1.05.22-1.05.16-1.06.1-1.06.03-1.07-.04-1.06-.11-1.06-.19-1.06-.27-1.04-.34-1.04-.42-1.03-.5-1.02-.59-.99-.66-.99-.74-.96-.82-.94-.9-.92-.96-.89-1.04-.81-.6-.78-.63-.77-.66-.75-.69-.73-.71-.7-.75-.69-.76-.66-.79-.64-.8-.61-.81-.58-.83-.56-.83-.52-.83-.5-.83-.46-.82" filter="url(#a)" transform="translate(42.73 -18.99)"/><path fill="#fff" d="m33.18-3.22.09-.79.04-.74-.02-.7-.08-.66-.13-.61-.18-.57-.23-.54-.29-.5-.33-.47-.39-.44-.43-.41-.47-.37-.52-.35-.57-.33-.6-.3-.55-.28-.61-.26-.68-.24-.74-.22-.8-.2-.86-.19-.91-.17-.96-.15-1.02-.14-1.05-.13-1.1-.12-1.13-.1-1.16-.1-1.2-.08-1.21-.08-1.24-.07-1.25-.06-1.27-.05-1.27-.04-1.28-.04-1.28-.04-1.27-.03-1.27-.02-1.26-.02-1.24-.02-1.23-.01-1.22-.01-1.19-.01H-4.6l-1.08.01h-1.05l-1.02.01-.99.01-.95.01-.92.01-.87.01-.85.02-.81.01-.77.02-.73.02-.7.02-.67.02-.64.02-.6.02-.57.02-.54.02-.52.03-.49.02-.47.03-.44.02-.42.03-.39.03-.37.02-.35.03-.32.03-.31.04-.28.03-.27.03-.24.04-.23.03-.21.04-.2.03 1.17 5.79.26.37.27.38.28.4.29.4.3.42.31.43.32.45.33.45.34.47.36.48.36.49.38.51.38.51.41.53.41.54.43.56.44.56.45.58.48.58.49.6.5.61.53.62.54.63.56.63.58.64.6.65.62.64.64.65.66.64.68.64.7.63.73.63.74.61.76.6.79.58.8.56.82.54.84.51.86.49.88.45.9.42.91.38.93.35.94.3.96.25.97.21.98.15 1 .1 1 .04 1.01-.01 1.02-.08 1.02-.13 1.03-.21 1.03-.26 1.03-.33 1.03-.4 1.03-.47 1.02-.53 1.02-.61 1-.66 1-.73.99-.8.98-.85.95-.92.83-.53.81-.57.8-.59.78-.61.77-.64.75-.66.74-.67.71-.7.69-.7.67-.71.65-.73.62-.72.59-.73.56-.72.54-.71" filter="url(#a)" transform="translate(-38.08 -22.4)"/><g fill="none" stroke="#000" transform="translate(42.73 -18.99)"><path stroke-linejoin="round" stroke-width="1.667" d="m-25.82 21.49-.86-2.38-.8-2.26-.73-2.15-.67-2.02-.6-1.92-.53-1.81-.46-1.71-.4-1.61-.34-1.52-.27-1.43-.21-1.35-.14-1.26-.09-1.19-.02-1.12.04-1.04.09-.98.16-.91.21-.86.26-.79.32-.75.37-.69.42-.64.47-.6.52-.55.56-.51.49-.48.57-.44.64-.4.7-.37.77-.34.83-.32.89-.28.94-.26 1-.24 1.04-.22 1.09-.19 1.12-.18 1.17-.16 1.19-.14 1.22-.13 1.24-.12 1.26-.1 1.27-.09 1.28-.08 1.29-.06 1.29-.06 1.29-.06 1.29-.04 1.27-.04 1.27-.03 1.25-.02 1.23-.02 1.21-.02 1.18-.01 1.17-.01h1.13l1.1-.01 1.08.01h2.04l.97.01.94.01.9.01.86.01.83.01.79.01.75.02.72.01.69.02.65.01.61.02.59.01.56.02.54.02.5.02.49.02.45.01.43.02.41.02.38.02.37.03.33.02.32.02.3.02.28.02.26.03.24.02.22.02.21.03.19.02.18.03.17.02.15.03.14.03.13.02.11.03.11.03.09.02.09.03" filter="url(#a)"/><path stroke-linejoin="round" stroke-width="2.222" d="m-35.44-6.56.05.42.1.49.15.56.19.61.23.67.27.7.32.74.35.77.39.79.42.81.46.82.5.83.52.83.56.83.58.83.61.81.64.8.66.79.69.76.7.75.73.71.75.69.77.66.78.63.81.6.89 1.04.92.96.94.9.96.82.99.74.99.66 1.02.59 1.03.5 1.04.42 1.04.34 1.06.27 1.06.19 1.06.11 1.07.04 1.06-.03 1.06-.1 1.05-.16 1.05-.22 1.04-.29 1.03-.34 1.02-.39 1.01-.43.99-.49.98-.52.96-.56.95-.6.92-.62.9-.66.89-.67.86-.7.84-.71.82-.73.79-.73.78-.75.74-.75.73-.75.7-.75.68-.74.65-.74.63-.74.61-.72.59-.72.56-.7.54-.69.53-.68.5-.66.48-.65.47-.63.44-.61.44-.61.41-.58.4-.57.39-.56.37-.54.36-.52.34-.51.33-.5.32-.48.31-.46.29-.45.28-.44.27-.42.26-.41.25-.39.24-.38.23-.36.22-.35.22-.34.2-.33.2-.31.18-.3.18-.29.18-.28.16-.27" filter="url(#a)"/><circle cx="-22.986" cy="-.749" r="3.626" clip-path="url(#b)" filter="url(#a)"/><circle cx="-23.096" cy="-2.929" r="3.476" clip-path="url(#b)" filter="url(#a)"/><circle cx="-23.406" cy=".401" r="3.328" clip-path="url(#b)" filter="url(#a)"/><circle cx="-25.931" cy=".481" r="3.436" clip-path="url(#b)" filter="url(#a)"/><circle cx="-22.331" cy="-3.104" r="4.8" clip-path="url(#b)" filter="url(#a)"/><circle cx="-22.101" cy="-1.919" r="4.516" clip-path="url(#b)" filter="url(#a)"/><circle cx="-21.931" cy="-2.629" r="3.226" clip-path="url(#b)" filter="url(#a)"/><circle cx="-23.211" cy="-3.374" r="4.008" clip-path="url(#b)" filter="url(#a)"/><circle cx="-23.441" cy="-.044" r="3.504" clip-path="url(#b)" filter="url(#a)"/><circle cx="-24.591" cy="-2.329" r="3.14" clip-path="url(#b)" filter="url(#a)"/></g><g fill="none" stroke="#000" transform="translate(-38.08 -22.4)"><path stroke-linejoin="round" stroke-width="2.222" d="m29.07 7.8.67-1.39.62-1.33.55-1.25.5-1.19.44-1.12.39-1.06.32-1.01.26-.94.21-.89.15-.84.09-.79.04-.74-.02-.7-.08-.66-.13-.61-.18-.57-.23-.54-.29-.5-.33-.47-.39-.44-.43-.41-.47-.37-.52-.35-.57-.33-.6-.3-.55-.28-.61-.26-.68-.24-.74-.22-.8-.2-.86-.19-.91-.17-.96-.15-1.02-.14-1.05-.13-1.1-.12-1.13-.1-1.16-.1-1.2-.08-1.21-.08-1.24-.07-1.25-.06-1.27-.05-1.27-.04-1.28-.04-1.28-.04-1.27-.03-1.27-.02-1.26-.02-1.24-.02-1.23-.01-1.22-.01-1.19-.01H-4.6l-1.08.01h-1.05l-1.02.01-.99.01-.95.01-.92.01-.87.01-.85.02-.81.01-.77.02-.73.02-.7.02-.67.02-.64.02-.6.02-.57.02-.54.02-.52.03-.49.02-.47.03-.44.02-.42.03-.39.03-.37.02-.35.03-.32.03-.31.04-.28.03-.27.03-.24.04-.23.03-.21.04-.2.03-.18.04-.16.04-.16.04-.14.03-.12.04-.12.05-.1.04-.09.04-.09.04-.07.05" filter="url(#a)"/><path stroke-linejoin="round" stroke-width="2.222" d="m35.87-6.14-.12.36-.16.43-.22.47-.26.53-.31.57-.34.61-.39.64-.43.66-.47.69-.49.7-.54.71-.56.72-.59.73-.62.72-.65.73-.67.71-.69.7-.71.7-.74.67-.75.66-.77.64-.78.61-.8.59-.81.57-.83.53-.95.92-.98.85-.99.8-1 .73-1 .66-1.02.61-1.02.53-1.03.47-1.03.4-1.03.33-1.03.26-1.03.21-1.02.13-1.02.08-1.01.01-1-.04-1-.1-.98-.15-.97-.21-.96-.25-.94-.3-.93-.35-.91-.38-.9-.42-.88-.45-.86-.49-.84-.51-.82-.54-.8-.56-.79-.58-.76-.6-.74-.61-.73-.63-.7-.63-.68-.64-.66-.64-.64-.65-.62-.64-.6-.65-.58-.64-.56-.63-.54-.63-.53-.62-.5-.61-.49-.6-.48-.58-.45-.58-.44-.56-.43-.56-.41-.54-.41-.53-.38-.51-.38-.51-.36-.49-.36-.48-.34-.47-.33-.45-.32-.45-.31-.43-.3-.42-.29-.4-.28-.4-.27-.38-.26-.37-.26-.36-.24-.34-.24-.34-.23-.32-.22-.31-.22-.31-.21-.29-.2-.28-.2-.27-.19-.26" filter="url(#a)"/><circle cx="-12.881" cy="-7.825" r="4.742" clip-path="url(#c)" filter="url(#a)"/><circle cx="-11.931" cy="-8.21" r="3.396" clip-path="url(#c)" filter="url(#a)"/><circle cx="-14.516" cy="-6.1" r="4.316" clip-path="url(#c)" filter="url(#a)"/><circle cx="-13.676" cy="-4.95" r="4.992" clip-path="url(#c)" filter="url(#a)"/><circle cx="-15.466" cy="-7.45" r="4.876" clip-path="url(#c)" filter="url(#a)"/><circle cx="-11.241" cy="-5.415" r="4.138" clip-path="url(#c)" filter="url(#a)"/><circle cx="-14.386" cy="-7.295" r="4.062" clip-path="url(#c)" filter="url(#a)"/><circle cx="-12.586" cy="-5.795" r="3.556" clip-path="url(#c)" filter="url(#a)"/><circle cx="-12.006" cy="-7.645" r="3.884" clip-path="url(#c)" filter="url(#a)"/><circle cx="-13.976" cy="-7.655" r="3.554" clip-path="url(#c)" filter="url(#a)"/></g><g fill="none" stroke="#0A0A0A" stroke-linejoin="round" stroke-width="2"><path d="m32.6-72.43.41.24.41.35.5.5.47.57.26.49-.05.35-.41.23-.74.1h-1.1l-1.44-.11-1.8-.22-2.18-.35-2.59-.47-3.04-.63-3.54-.8-4.07-.98-4.62-1.15-5.13-1.32-5.55-1.45-5.96-1.54m1.95-3.48.81-.01 1.41-.01 1.48.02 1.44.05 1.41.08 1.4.11 1.4.12 1.42.14 1.41.15 1.36.14 1.27.13 1.11.1.89.07.63.04h.35l.07-.02-.17-.04-.4-.05-.67-.09-1.12-.19" filter="url(#a)"/><path d="m30.86-73.39 1.1.67.37.4-.01.4-.23.49-.52.53-.93.49-1.44.41-1.98.31-2.54.22-3.07.16-3.63.09-4.21.02-4.85-.03-5.53-.09-6.27-.13-7.03-.22-7.73-.33-8.41-.42m77.71 15.84.28.71-.43.62-1.08.58-1.78.47-2.57.28-3.39.08-4.28-.12-5.16-.29-6.08-.49-7.02-.73-8-1.01L3.1-55.8l-10.13-1.64-11.16-1.98-11.96-2.37m63.2-10.41.64.44 1.07.85 1.41 1.12 1.46 1.15 1.33 1.05 1.18.96 1.05.87.95.81.82.72.67.57.46.39.17.14-.19-.25-.65-.73" filter="url(#a)"/><path d="m18.15-79.37.6.28 1.08.49 1.05.54 1.07.58 1.25.68 1.43.79 1.56.86 1.6.9 1.56.92 1.5.91 1.43.9 1.36.87 1.3.84 1.22.79 1.14.74 1.03.67.9.59.76.47.59.33.39.18.13.01-.14-.17-.5-.41" filter="url(#a)"/><path d="m21.15-78.23-.16-.02.52.21.86.36.87.39.68.36.43.32.18.29-.03.25-.27.22-.5.17-.78.11-1.06.04-1.36-.03-1.67-.1-1.98-.15-2.32-.21-2.7-.28-3.17-.4-3.68-.51-4.17-.64-4.57-.75-4.96-.83M59.9-41.06l.52 1.79.19 1.27-.26.91-.79.51-1.31.09-1.78-.22-2.26-.45-2.71-.62-3.19-.79-3.7-1.01-4.22-1.27-4.76-1.58-5.31-1.89-5.87-2.23L18-49.13l-7.05-2.94-7.72-3.29-8.43-3.6-9.12-3.88-9.59-4.24M-9.03-81.4l.42-.11.92-.09 1.18-.08 1.28-.04 1.36.01 1.46.03 1.56.06 1.61.07 1.6.09 1.56.1 1.5.11 1.42.1 1.3.1 1.17.07 1 .04.8.01.57-.02.31-.04.01-.05-.28-.05-.53-.03" filter="url(#a)"/><path d="m12.42-81.12 1.59.43 1.37.47 1.45.58 1.54.69 1.58.74 1.56.75 1.49.73 1.45.72 1.46.71 1.48.72 1.45.71 1.38.66 1.22.6 1.02.51.77.39.48.23.14.01-.17-.21-.29-.28m-12.24-6.27h-.11l.68.27 1.14.45 1.25.51 1.13.48.96.43.76.37.58.32.38.24.15.15-.13.01-.44-.13-.74-.29-1.01-.43-1.3-.56-1.69-.75-2.2-.99m39.76 38.02-.21.04-.13.84-.36.95-.78.79-1.29.48-1.82.18-2.33-.09-2.81-.26-3.3-.38-3.78-.5-4.3-.65-4.83-.85-5.39-1.06-5.95-1.3-6.54-1.56-7.11-1.82-7.7-2.11-8.27-2.43-8.87-2.69-9.54-2.85-10.29-2.9" filter="url(#a)"/><path d="m38.97-68.14.68.73.84.79.72.63.55.49.34.37.11.23-.17.02-.51-.25-.89-.55-1.29-.88-1.68-1.2-2.09-1.51-2.53-1.83-3.14-2.31M55.02-49.6l.73 1.24.13.83-.16.83-.41.83-.75.69-1.14.49-1.58.24-2.02.05-2.44-.09-2.84-.18-3.23-.25-3.66-.36-4.1-.51-4.58-.7-5.07-.89-5.56-1.07-6.06-1.22-6.54-1.35-7.04-1.51-7.55-1.69-8.05-1.93-8.52-2.22-9.09-2.45" filter="url(#a)"/><path d="m54-51.1.19.48.19.81-.15.76-.56.64-.96.54-1.34.44-1.78.26-2.24.04-2.75-.21-3.27-.44-3.79-.62-4.3-.75-4.8-.86-5.32-1.01-5.86-1.2-6.44-1.44-7.03-1.67-7.65-1.87-8.25-2.03-8.8-2.26-9.19-2.71M2.12-82.21l.85.13 1.28.22 1.68.33 1.93.42 2.03.5 2.05.54 1.97.56 1.88.54 1.78.52 1.72.51 1.67.52 1.59.51 1.44.49 1.23.42.97.3.7.17.36.05" filter="url(#a)"/><path d="m60.32-40.13-.08.05.25.88.27.99.11.81-.14.51-.41.17-.64-.11-.86-.32-1.07-.49-1.3-.68-1.56-.91-1.84-1.17-2.14-1.48-2.45-1.8-2.78-2.14-3.09-2.5-3.42-2.87-3.75-3.26-4.13-3.65-4.56-4.02-5.04-4.37-5.54-4.73-6.07-5.19" filter="url(#a)"/><path d="m60.58-38.62.41.98-.41.95-1.33.46-2.25-.09-3.14-.53-3.98-.83-4.83-1.08-5.7-1.33-6.63-1.65-7.6-2.02-8.59-2.45-9.61-2.9-10.63-3.37-11.72-3.77-12.97-4.07M-9.03-81.4l29.9 8.56 8.98 2.46-.8.2-6 .02-8.29.02-7.43-.27-4.36-.58-1-.59 1.12-.25 1.69.26 1.21.64.51.75.05.61.12.48.98.7 2.98 1.5 5.83 2.72 7.86 3.62 6.55 3.28 1.16 1.51-4.91-.37-9.17-2.42-37.54-20.53" filter="url(#a)"/><path d="m-12.86-80.69 20.15 7.51-2.98 1.85 2.25 1.55 6.67.6 6.7-.1 5.87.56 5.7 2 5.12 2.73 3.01 1.87-.27-.21-2.93-1.96-3.17-2.05-.89-.38 1.7 1.5.53.44-16.45-14.59" filter="url(#a)"/><path d="m-5.62-82.1.29 6.51 11.14 8.15 3.41 4.9-1.09.86-1.77-1.25-1.76-1.74-1.79-1.49-1.63-.92-1.52-.15-1.86.58-2.53 1.07-2.9 1.21-2.63 1.05-1.87.75-.88.44.72.14 3.67-.04 7.81.06 10.92.3 9.23.06.3-1.68L7.06-68.1l-17.52-6.74 4.91-7.24m65.74 41.71L32.71-57.82 16.98-65.7l.05-1.85 2.89.03-1.39-.46-4.6-1.2-3.77-1.34-.7-1.09 1.52-.96 1.78-1.04 1.16-1.1 1.53-.73 3.32.07 4.22.41-.4-1.43-10.38-4.73" filter="url(#a)"/><path d="M59.13-42.25 20.56-64.08 9.48-69.07l5.03.49 5.89 1.34-.63-.24-6.83-2.07-8.35-2.6-4.88-1.79 1.02-.57 5.9.26 7.36.54 4.84.26-.92-.84-5.78-2.6 9.02-1.34" filter="url(#a)"/><path d="m32.6-72.43-20.83-3.05 1.15-1.16 1.38-.93-.53.13-.74 1.79.47 3.32 1.7 4.17 1.67 4.15.29 3.34-1.43 2.03-2.04.66-.83-.3 1.68-.66 4.01-.63 4.52-.62 2.62-1.01-.71-1.57-3.4-1.74-4.41-1.19-5.8-.52-11.81-1.05-20.59-2.34-10.01-3.88" filter="url(#a)"/><path d="m64.21-30.79-6.64-9.45-6.49-8.87-5.74-5.91-6.82-5.34-7.12-5.04-5.96-4.09-4.01-2.72-2.14-1.4-.8-.52-.05-.22.12-.39-.6-.73-2.74-.96-6.4-1.05-10.02-1.14-8.65-1.36 4.21-2.1" filter="url(#a)"/><path d="M63.76-31.74 38.18-59.73l-9.94-8.87-1.21-.04 3.84 4.04 3.68 3.88.12 1.39-3.93-1.08-6.54-2.37-7.23-2.55-6.43-2.07-5.16-1.21-4.48-.28-4.72.3-5.01.17-3.89-.42-.55-.71 4.46-.11 8.79 1.08 3.58 1.72-39.45-3.65" filter="url(#a)"/><path d="m42.21-65.35-49.83.75-9.03-6.06 1.13-3.63 4.61-.14 6.68 2.86 8.15 4.72 8.66 4.89 7.82 3.49 5.92 1.43 3.84-.31 2.29-1.29 1.27-1.63.22-1.84-1.28-2.17-3.25-2.48-5.29-2.42-7.01-1.79-8.18-.77-8.43.38-6.91 1.62-1.9 3.18 8.97 4.69 24.84 3.95 21.61-1.81" filter="url(#a)"/><path d="m39.36-67.67.8 9.87-20.91 1.51-17.59-1.23L-3-60.07l4.28-2.86 6.63-2.4 5.43-1.28 3.85.19 3.03 1.63 2.69 2.66 2.15 3.11 1.1 2.96-.36 2.26-2.03 1.01-4.06-.83-6.64-3.01-9.48-4.86-11.46-5.28-11.44-3.63-8.88-.89-2.4-.39 13.35-7.88" filter="url(#a)"/><path d="m15.29-80.44 5.86 16.33-4.48 2.34 6.05 1.67L31-58.53l4.54-.16.97-1.62-.49-1.93-1.42-1.85-3.6-2.12-6.98-2.38-9.94-1.86-11.15-.46-11.71.89-15.06 1.08-11.82-1.59" filter="url(#a)"/><path d="M64.21-30.79 25.34-59.74l-9.18-5.45.21.39-1.31.8-1.72.8 1.25 1.01 4.87 1.02 6.57.64 5.81-.02 3.29-.67.04-1.16-3.12-1.31-5.52-1.02-6.57-.27-5.99.87-3.96 2.2-.98 3.62 2.85 4.97 8.31 5.87 15.19 5.18 17.78 2.08 8.21 2.36m-94.42-34.46 9.02-1.21 14.33-.33L3-70.68l7.31 3.77.79 1.43-2.5-1.43-1.26-2.78 2.36-2.19 5.24-.53 5.31.89 2.11 1-3.2-.3-7.74-2.02-7.7-2.61-1.74-1.56 2.7-.43-17.51-3.44" filter="url(#a)"/><path d="M62.92-34.18 28.59-55.82 3.71-66.21l-8.36-5.25.27-1.46 1.1.89-1.73 1.48-3.89.79-3.28-.25-.6-.89 1.78-.78 1.97-.2-.03.2-2.3-.17-2.89-1-2.31-.9-3.33 1.19-4.35 2.23L-9.03-81.4" filter="url(#a)"/><path d="m55.02-49.6-38.8-5.53-11.97-.06-13.77-3.14-10.57-4.01-3.14-3.17 3.25-1.48 6.12.64 6.13 2.55 5.52 3.65 6.32 3.75 8.82 2.91 10.57.96 7.78-2.07 3.15-2.01 26.15 17.99" filter="url(#a)"/><path d="m-53.3-52.41 31.37-18.05 15.56-4.13 4.22 2.18-3.4 3.31-5.79 2.09-3.38.6 1.19-.5 4.9-1.21 5.94-1.59 4.33-1.45 1.38-.63-1.1.8-1.81 2.46-.67 3.74 1.09 3.9 1.76 2.58.5-.05L1-61.45l-3.09-5.24-2.35-5.57-.57-4.08 1.85-1.69 9.57.8 27.05 5.31" filter="url(#a)"/><path d="m-39.68-67.38 13.87-2 16.44-3.84 7.98-1.46 4.37 1.29 4.71 3.29 4.93 4.05 2.36 3.47-2.84 2.04-8.38.55-11.6-.43-11.08-.78-7.06-.79-.95-.78 5.32-1.06 9.86-1.68 11.06-2.54 8.28-3.2 2.79-3.01-2.13-1.4-3.55 1.52-5.99 4.2-37.75 2.37" filter="url(#a)"/><path d="m51.16-55.53-5.84-2.26-10.2.16-14.71-2.71-11.69-3.8-6.39-3.37-2.3-2.1.25-.67 1.89.47 2.79 1.05 2.82 1.12 1.85.82.04.32-2.23-.23-4.61-.69-6.64-.79-7.73-.42-6.95.11-3.55.16 1.41-.48 2.67-.7-7.89 2.34-26.21 13.16" filter="url(#a)"/><path d="m-39.4-67.7 30.69 1.25-3.63.24-1.02.34 4.99.6 7.68-.05 7.29-1.22 5.28-1.94 2.99-1.59 1.3-.33.54 1.25.6 2.42.8 2.61.21 1.65-1.58-.08-3.77-1.82-4.64-2.86-2.85-2.86 1.2-1.94 4.93-.49 4.79.84-2.44.93-18.28-.77-33.69 3.09" filter="url(#a)"/><path d="m-39.04-67.57 15.44 14.09 21.95 4.61 14.77-1.24 10.69-2.49 7.75-1.53 4.91-.24 1.53-.05-2.58-1.43-6.07-3.39-6.54-4.3-3.1-3.16 1.93-.59 4.24 1.8 1.62 2.82-6.1.75-37.25-18.11" filter="url(#a)"/><path d="m-44.71-62.73 30.34-8.22 12.63 1.41 4.3.46-.95-1.57-1.56-1.53.66-.22 2.64.87 2.59 1.25.78 1.17-1.4 1.06-2.81 1.01-3.2.7-2.97-.04-2.57-.99-2.04-1.49-1.06-.89.76.85 3.63 2.97 6.9 4.07 8.72 2.94 6.94-.47 3.16-4.2 5.58-4.58 9.78-1.57" filter="url(#a)"/><path d="m-23.45-77.26 23.44 3.22 5.9 7.78 1.13 4.98.97.36 3.39-1.58 5.55-1.02 5.63.03 3.44.39-.04.09-3.69-.36-6.54-.67L7.9-65 .8-66.36l-4.33-1.67-.18-1.41 4.38-.16 8.54 2.15 11.87 5.07 13.32 7.41 10.56 7.21.32 2.41-20.66-7.17-60.51-17.99" filter="url(#a)"/><path d="M2.99-82.08.57-75.92l16.5 5.4 13.31 4.41 5.79 2.36-.97.39-5.71-.48-8.78-.52-10.54-.53-10.49-.97-7.94-1.69-3.27-2.25 1.72-2.07 5.02-.77 5.8 1.54 4.14 3.79-1.76 3.98-17.78 2-40.62 11.22" filter="url(#a)"/><path d="m41.03-65.9-19.45-2.7-9.11 1.52-10.35-1.23-7.07-1.37-2.89-.09-.46 1.02.67 1.49 1.81 1.54 3.59 1.53 5.91 1.79 7.72 2.09 7.13 1.73 2.65.01-4.52-2.73-9.46-4.56-8.03-2.81-8.49 4-45.69 14.56" filter="url(#a)"/><path d="m-42.53-64.75 27.75-8.31 7.13 3.25 11.84 7.75 14.26 6.81 8.56 3.58-.56.45-8-1.58-11.29-2.74-9.98-3.44-4.51-3.55 3.35-2.37 10.23.57 10.66 4.25-6.11 5.32-61.23-1.57" filter="url(#a)"/><path d="m39.36-67.67-49.42 2.91-1.77-3.85 13.41-1.12 13.26 1.71 6.91 2.08-.16.66-4.85-1.2-6.2-2.5-4.99-2.85-2.79-2.4-.83-1.53.47-.64 1.21.05 1.62.49 1.58.68.87.66-.59.47-2.22.28-2.49.31.86.61 8.91 1.29 17.98 4.01 22.29 13.9" filter="url(#a)"/><path d="M12.21-81.12 9-79.2l6.46 3.96.25 4.36-6.64 3.04-8.87.71-6.49-1.25-1.62-2.04L-4.45-72l6.67-.24L9.04-71l4.19 2.1.86 1.94-.38 1.17 1.63.84 4.19 1.58L22-61.45l-1.03-.81 26.14 2.53" filter="url(#a)"/><path d="m2.12-82.21-21.27 7.37-6.02 4.36 5.16 2.05 11.81 1.5 13.46 1.39 10.91 1.26 6.3 1.26 1.74 1.43-1.64 1.6-3.44 1.47-3.74.91-2.94.16-1.57-.46-.15-.6 1.01-.22 1.72.45 1.56.98-.13.98-3.55.27-7.69-.97-10.49-2.13-9.6-2.8 1.13-3.96 40.68-10.73" filter="url(#a)"/><path d="m-2.97-82.2 23.47 7.55 5.59 2.13.62.63.9 1.57 1.01 2.58-.32 2.59-2.1 1.67-3.26.3-3.78-1.12-4.35-2.26-5.36-2.8-6.38-2.43-6.09-1.03-3.22 1.34 2.57 4.08 9.97 5.67 15.14 3.17 10.75-5.61-4.22-11.12" filter="url(#a)"/><path d="m-12.86-80.69 9.1 7.41-1.84 5.46 7.07 3.21 7.86 1.17 3.23-.75-.04-1.9-.84-2.23-1.6-2.28-3.46-2.2-4.54-1.46-2.39.33 2.41 2.66 5.66 3.67 6.54 2.19 32.44 4.71" filter="url(#a)"/><path d="M43.29-63.9 3.43-67.2l-6.96-3.08-.97-.56 4.64.75 8.43 1.1 6.7 1.27.02 1.23-7.6.62-11.52-.62-9.1-1.99-1.34-2.62 7.96-1.54 15.87 2.21 23.22 9.06 25.8 17.97" filter="url(#a)"/><path d="m-39.68-67.38 30.09-7.37 12.42.35 1.76.87-5.11-.74-6.21-1.66-3.17-1.47 1.31-.36 5.42 1.37 7.81 3.21L11.67-69l2.55 3.45-3.19 1.7-5.49 1.82-7.64 5.12-49.18 1.89" filter="url(#a)"/><path d="m-42.7-64.83 46.76-2.31 9.83-4.42 1.36-1.27-.84.18-.98-.06-.37-.5.16-.35.53.38 1.06 1.25 2 1.9 3.08 2.2 3.65 2.19 3.18 1.8 1.91 1.09.82.31-.11-.17-4.85-.64-21.46-1.16-52.52 6.82" filter="url(#a)"/><path d="m-29.47-74.28 14.23 8.01 20.09 6.03 5.25 2.19-.58-.86 1.53-2.26 4.11-2.8 3.68-3.09.95-3.16-2-2.91-3.86-2.31-4.56-1.48-4.78-.62-5.13.15-5.7.76-5.97 1.14-5.08 1.28-2.47 1.16 1.56.81 5.7.28 8.13-.43 8.81-.83 13.22 1.28L46.74-60.7" filter="url(#a)"/><path d="m-44.71-62.73 33.38-.47 25.91 2.4 8.51-.74-3.31-1.49-9.04-1.53-9.29-1.7-5.22-1.71.75-1.27 5.92-.5 8.32.26 7.63.69 4.87.82 1.68.98-.79 1.39-2.47 1.83-4.2 1.62-6.44.15-8.2-2.24-7.17-4.1-2.25-3.7 3.03-.5-2.72 4.69-43.59 10.54" filter="url(#a)"/><path d="m-5.64-82.08-9.05 2.42-5.77 3.07-4.04 3.52-1.24 2.67 1.95 1.61 5.3.72 8.41-.12 10.36-.79 10.47-.97 8.8-.57 6.19.16 3.82 1.17 2.74 2.56 2.85 4.06 2.14 4.11-1.82.85-3.97-2.38 24.83 12.17" filter="url(#a)"/><path d="M56.44-47.34 38.36-61.56l-17.13-9.96-9.31-4.1-3.57-.27-.55 1.25.52 1.23.1.57-.91-.01-1.1.01.6.84 4.03 2.27 7.76 3.75 10.1 4.69 10.18 4.92 8.36 4.64 5.77 4.21 3.32 3.49 1.03 1.74-1.52-1.88-3.42-6.01 2.4.58" filter="url(#a)"/><path d="m-42.7-64.83 25.6-3.46 15.2 7.02 14.7 4.83 11.37 1.01 6.5-1.63 2.18-2.9-.02-2.83.12-1.67 1.32-.14 1.54.89-.57.94-5.05.18-10.21-.7-13.14-.97-10.88-.6-3.42-.4 2.31-1.05-7.97-.17-38.94 12.44" filter="url(#a)"/><path d="M52.51-53.54 33.76-67.69l-16.74-5.2-13.66.05-9.52 2.55-5.76 2.79-1.18 1.75 4.7.71 10.32.63 13.35 1.52 12.46 2.47 7.82 2.39.81.84-6.49-1.57-11.75-3.61-12.99-4.35-9.72-3.85-2.87-2.9 9.01-1.59 32.22 3.24m34.56 59 .18 2.34.24 2.41.34 2.42.68 2.47 1.31 2.54L73 1.95l2.17 2.59 1.9 2.54 1.22 2.49.41 2.44-.29 2.41-.77 2.41-.98 2.4-.94 2.42-.68 2.41-.28 2.38.23 2.36.71 2.31 1.1 2.28 1.26 2.25 1.14 2.22.65 2.21-.09 2.18-.92 2.13-1.53 2.08-1.64 2.03-1.2 2-.47 2.03-.02 2.12-.32 2.14-1.36 1.91-2.28 1.32M-.31-82.33l1.72.06 2.23.18 2.46.23 2.69.26 2.75.31 2.63.36 2.46.45 2.35.53 2.35.61 2.45.7 2.65.78 2.9.86 3.14.92 3.39.98 3.6 1.05 3.77 1.09 3.92 1.14 4.05 1.21 4.22 1.27 4.42 1.33 4.62 1.4 4.7 1.45 4.53 1.48 4.21 1.49 4.03 1.51 4.37 1.62 5.12 1.8 5.58 1.9 6.45 1.82" filter="url(#a)"/><path d="m-2.97-82.2 2.26-.07 2.33.06 2.5.16 2.4.21 2.24.26 2.17.31 2.25.37 2.4.45 2.58.53 2.75.62 2.92.71 3.12.78 3.31.86 3.5.92 3.67.99 3.84 1.05 4.05 1.1 4.28 1.16 4.54 1.22 4.8 1.28 5 1.34 5.13 1.4 5.07 1.45 4.8 1.5 4.31 1.53 3.79 1.58 3.55 1.67 3.81 1.77 4.56 1.86 5.55 1.93 6.54 1.93 7.4 1.92 5.94 2.01" filter="url(#a)"/><path d="m-5.62-82.1 2.43-.09 2.18-.04 2.14.06 2.27.14 2.42.19 2.49.25 2.5.31 2.48.36 2.48.43 2.53.52 2.59.6 2.65.68 2.68.77 2.7.84 2.71.91 2.74.97 2.75 1.03 2.75 1.08 2.71 1.13 2.69 1.19 2.75 1.25 2.89 1.32 3.06 1.41 3.18 1.48 3.19 1.52 3.16 1.4 3.23 1.02 2.67.67" filter="url(#a)"/><path d="m-5.64-82.08.88-.04 1.78-.04 2.11.01 2.25.06 2.34.13 2.41.21 2.46.28 2.47.35 2.45.42 2.42.49 2.37.54 2.34.61 2.33.65 2.35.71 2.37.76 2.39.85 2.41.93 2.43 1.03 2.5 1.12 2.6 1.23 2.7 1.31 2.73 1.38 2.61 1.4 2.37 1.39 2.14 1.38 2.15 1.43 2.69 1.65 3.7 2.11" filter="url(#a)"/><path d="m-8.48-81.53 2.06-.36 1.76-.16 1.89-.07h2l2.05.06 2.06.14 2.04.21 2 .29 1.92.36 1.87.43 1.82.49 1.79.56 1.75.61 1.71.68 1.67.73 1.61.8 1.53.89 1.45.97 1.35 1.06 1.24 1.15 1.12 1.23 1 1.3.91 1.35.84 1.39.82 1.41.83 1.44.87 1.45.87 1.5.82 1.56.68 1.64.5 1.76.36 1.89.27 2.02.21 2.12.1 2.18.02 2.23.04 2.82" filter="url(#a)"/><path d="m-9.03-81.4.57-.22 1.6-.23 1.86-.16 2-.08 2.12-.01 2.24.06 2.36.13 2.48.2 2.56.27 2.6.35 2.58.41 2.51.48 2.43.55 2.35.6 2.32.65 2.35.71 2.43.77 2.55.85 2.71.94 2.87 1.03 3.03 1.13 3.15 1.23 3.19 1.3 3.13 1.37 2.93 1.4 2.63 1.4 2.32 1.41 2.15 1.42 2.24 1.46 2.43 1.37 2.07.61" filter="url(#a)"/><path d="m-9.03-81.4 1.07-.22 1.44-.23 1.67-.16 1.92-.08 2.13-.01 2.34.06 2.54.12 2.72.2 2.84.27 2.89.35 2.9.41 2.83.48 2.74.54 2.61.6 2.46.65 2.34.71 2.28.76 2.32.85 2.47.93 2.74 1.02 3.04 1.13 3.34 1.22 3.56 1.31 3.68 1.38 3.7 1.4 3.6 1.4 3.34 1.38 3.01 1.44 3.2 1.65 4.46 2.11" filter="url(#a)"/><path d="m-12.83-80.88 3.09-.54 2.29-.34 2.1-.21 2.13-.12 2.2-.03 2.27.04 2.33.12 2.35.18 2.35.24 2.35.31 2.35.37 2.33.44 2.33.52 2.33.6 2.37.69 2.44.77 2.59.84 2.78.91 2.98.98 3.14 1.04 3.19 1.09 3.14 1.15 2.93 1.21 2.65 1.27 2.34 1.34 2.12 1.4 2.04 1.45 2.19 1.48 2.51 1.51 2.98 1.56 3.44 1.64 3.74 1.78 3.57 1.92 2.71 1.99 1.64 2.18" filter="url(#a)"/><path d="m-12.86-80.69.97-.32 1.77-.38 2.02-.31 2.17-.22 2.27-.14 2.35-.06 2.39.02 2.47.1 2.54.16 2.66.21 2.82.27 2.99.32 3.16.39 3.29.46 3.41.54 3.51.63 3.66.71 3.83.79 3.98.87 4.16.97 4.64 1.08 5.24 1.03" filter="url(#a)"/><path d="m-14.43-80.32 2.14-.59 2.01-.38 1.85-.28 1.79-.22 1.82-.16 1.92-.09 2.06-.02 2.18.05 2.29.12 2.35.19 2.38.26 2.36.33 2.33.41 2.3.47 2.25.53 2.22.59 2.16.64 2.1.69 2.05.76 2.02.83 2.02.91 2.06 1.01 2.17 1.12 2.3 1.22 2.44 1.32 2.5 1.4 2.43 1.44 2.24 1.39 2.03 1.25 1.97 1.23" filter="url(#a)"/><path d="m-14.43-80.32 1.32-.59 2.14-.38 2.05-.28 1.91-.22 1.94-.16 2.19-.09 2.56-.02 2.99.05 3.3.11 3.45.19 3.43.26 3.3.33 3.21.4 3.26.47 3.45.53 3.73.59 3.99.64 4.12.68 4.11.75 4.03.82 4 .91 4.12 1 4.44 1.11L63.55-72l5.48 1.32 5.92 1.43 6.21 1.48 6.4 1.41 5.54 1.01" filter="url(#a)"/><path d="m-15.85-80.03 2.22-.52 2.02-.43 2.11-.38 2.1-.3 2.06-.22 2-.14 1.97-.05 1.95.03 1.9.1 1.84.17 1.75.23 1.62.29 1.49.35 1.36.43 1.24.5 1.1.59.97.67.81.75.69.82.61.9.6.97.65 1.02.73 1.07.79 1.13.83 1.18.82 1.25.76 1.32.6 1.41.31 1.52-.07 1.63-.24 1.54-.47.68" filter="url(#a)"/><path d="m-18.22-79.46 2.24-.54 1.97-.49 1.79-.44 1.78-.38 1.87-.31 2.06-.23 2.28-.16 2.52-.07 2.74.01 2.97.08 3.18.15 3.37.2 3.47.26 3.53.32 3.55.37 3.63.46 3.76.53 4.01.63 4.27.7 4.45.76 4.47.86 4.65.99 6.54 1.3" filter="url(#a)"/><path d="m-18.22-79.46 2.06-.54 1.88-.49 1.88-.43 1.93-.39 1.98-.31 2.11-.23 2.28-.16 2.49-.07h2.69l2.88.08 3.06.15 3.28.2 3.55.25 3.86.31 4.15.37 4.36.44 4.43.54 4.42.62 4.41.69 4.6.74 4.89.81 2.91.69" filter="url(#a)"/><path d="m-19.59-79.08 2.39-.56 2.39-.59 2.25-.52 2.05-.41 1.91-.32 1.86-.24 1.89-.17 1.99-.09 2.11-.03 2.25.05 2.37.11 2.44.19 2.47.26 2.45.33 2.39.4 2.32.47 2.26.53 2.23.59 2.22.65 2.23.7 2.26.77 2.3.84 2.34.93 2.4 1.02 2.47 1.12 2.56 1.22 2.67 1.31 2.72 1.38 2.72 1.4 2.63 1.41 2.51 1.39 2.46 1.44 2.45 1.65 2.25 2.12" filter="url(#a)"/><path d="m-19.59-79.08 2.46-.55 2.46-.6 2.28-.52 2.09-.41 1.92-.32 1.81-.24 1.76-.17 1.74-.1 1.73-.03 1.72.04 1.72.11 1.71.17 1.7.26 1.62.32 1.49.39 1.26.46 1 .53.7.58.41.63.14.68-.12.74-.35.82-.56.89-.64 1-.56 1.1-.32 1.2-.01 1.33.23 1.47.18 1.59-1.17 1.81" filter="url(#a)"/><path d="m-19.8-78.62 1.97-.72 2.14-.59 2.19-.51 2.2-.45 2.17-.38 2.06-.32 1.92-.23 1.78-.16 1.65-.08 1.55.01 1.47.07 1.44.14 1.41.21 1.4.25 1.37.31 1.3.38 1.14.45.87.54.48.62.06.7-.21.77-.1.86.22.99.17 1.3" filter="url(#a)"/><path d="m-19.8-78.62.77-.72 2.18-.59 2.07-.51 1.72-.45 1.61-.38 1.81-.32 2.19-.23 2.6-.16 2.93-.07h3.19l3.39.08 3.54.15 3.62.2 3.69.26 3.73.32 3.82.38 3.94.46 4.1.54 4.22.63 4.29.71 4.39.78 4.73.87 5.43.98 6.27 1.08 6.05 1.04" filter="url(#a)"/><path d="m-22.58-77.78 2.23-.79 1.92-.7 1.83-.61 1.9-.52 2.02-.46 2.07-.38 2.11-.31 2.16-.24 2.24-.15 2.36-.07L.78-82l2.67.08 2.8.15 2.92.21 2.99.28 3.04.34 3.09.41 3.12.48 3.15.57 3.15.65 3.08.73 3 .81 2.93.89 2.95.95 3.09 1.02 3.35 1.06 3.63 1.1 3.84 1.16 3.85 1.23 3.67 1.23 3.88.98" filter="url(#a)"/><path d="m-22.58-77.78 1.48-.79 2.06-.71 1.95-.6 1.86-.53 1.91-.45 2.02-.38 2.15-.31 2.29-.23 2.44-.15 2.63-.06 2.81.01 2.97.09 3.07.15 3.11.22 3.09.29 3.06.35 3.05.42 3.11.5 3.23.58 3.43.67 3.65.74 3.87.82 4.07.9 4.19.96 4.27 1.02 4.31 1.07 4.41 1.13 4.62 1.18 4.92 1.25 5.25 1.32 5.43 1.41 5.27 1.53 4.6 1.63 3.64 1.55 4.2.68" filter="url(#a)"/><path d="m-24.73-76.86 2.21-.86 2.14-.79 1.97-.71 1.88-.61 1.92-.53 2.02-.46 2.14-.39 2.21-.31 2.25-.23 2.26-.15 2.3-.07 2.33.01 2.38.08 2.43.15 2.43.22 2.43.28 2.38.35 2.35.43 2.32.49 2.33.58 2.37.66 2.45.75 2.53.82 2.6.89 2.65.96 2.68 1.02 2.72 1.08 2.76 1.12 2.81 1.19 2.83 1.24 2.84 1.33 2.84 1.41 2.89 1.53 2.91 1.63 2.76 1.55 1.92.68" filter="url(#a)"/><path d="m-25.21-76.59 1.34-.76 1.24-.79 1.7-.72 2.23-.65 2.48-.59 2.44-.51 2.27-.42 2.1-.34 2.01-.26 2.03-.19 2.14-.11 2.32-.05 2.5.03 2.69.1 2.85.17 2.94.24 3.02.31 3.05.39 3.05.45 3.01.52 2.91.57 2.79.63 2.66.68 2.58.73 2.62.8 2.75.89 2.92.99 3.08 1.09 3.31 1.19 3.81 1.32 4.64 1.46 4.56 1.28" filter="url(#a)"/><path d="m-27.82-75.55 2.64-1.12 2.36-.93 2.23-.81 2.15-.71 2.1-.63 2.06-.54 2.06-.48 2.06-.4 2.05-.33 2.06-.26 2.04-.18 2.04-.1 2.06-.02 2.08.05 2.11.12 2.14.19 2.14.23 2.09.28 2.02.34 1.96.4 1.98.54 2.2.72 2.74.96" filter="url(#a)"/><path d="m-28.29-74.99 1.06-.77 1.44-.92 1.38-.89 1.58-.81 1.97-.72 2.29-.63 2.49-.55 2.54-.47 2.51-.39 2.44-.32 2.39-.24 2.38-.16 2.39-.08 2.45.01 2.52.07 2.64.14 2.75.22 2.88.27 2.99.35 3.09.41 3.19.5 3.28.57 3.42.66 3.58.73 3.78.82 4 .89 4.16.96 4.26 1.01 4.24 1.07 4.16 1.13 4.09 1.17 4.2 1.24 4.46 1.31 4.73 1.4 4.78 1.56 4.93 1.86 5.88 2.41" filter="url(#a)"/><path d="m-29.47-74.28.99-.7.69-.81.7-.87 1.24-.86 1.96-.8 2.43-.72 2.55-.64 2.47-.55 2.35-.48 2.28-.4 2.29-.33 2.36-.25 2.45-.17 2.57-.09 2.69-.01 2.81.07 2.92.13 3.04.2 3.13.26 3.22.33 3.3.39 3.39.48 3.53.55 3.71.63 3.94.72 4.18.81 4.39.88 4.53.96 4.6 1.01 4.6 1.04 4.5 1.06 4.31 1.14 4.88 1.56" filter="url(#a)"/><path d="m-29.47-74.28 1.03-.69 1.28-.79 1.5-.86 1.58-.86 1.61-.8 1.67-.72 1.78-.64 1.91-.57 2.04-.49 2.17-.42 2.27-.35 2.42-.27 2.62-.2 2.9-.12 3.25-.04 3.63.04 4 .11 4.36.18 4.68.23 4.91.26 4.95.29 5.01.36" filter="url(#a)"/><path d="m-29.47-74.28.94-.69 1.14-.81 1.73-.86 2.16-.86 2.31-.8 2.3-.72 2.21-.64 2.14-.56 2.1-.49 2.09-.41 2.09-.33 2.1-.26 2.12-.19 2.15-.1 2.2-.02 2.27.05 2.34.12 2.38.19 2.42.24 2.42.29 2.41.36 2.4.44 2.41.52 2.44.62 2.44.68 2.48.76 3.33 1.15M67.5-17.88l2.14 3.6 1.59 2.52.67 2.61.29 2.6.17 2.48.21 2.38.37 2.35.54 2.4.61 2.45.53 2.49.34 2.49.09 2.46-.15 2.42-.36 2.39-.54 2.39-.69 2.39-.81 2.42-.93 2.44-.99 2.44-1.01 2.42-.99 2.39-.93 2.33-.86 2.29-.8 2.23-.77 2.18-.75 2.12-.72 2.08-.74 2.01-.8 1.95-.99 1.92-1.28 1.92-1.56 1.94-1.6 1.89-1.23 1.67" filter="url(#a)"/><path d="m67.5-17.88 2.67 3.58.49 2.49 1.03 2.58 1.58 2.59 1.54 2.47 1.22 2.35.84 2.32.44 2.36.07 2.43-.22 2.48-.33 2.49-.26 2.45-.08 2.39.13 2.35.34 2.34.49 2.36.59 2.4.58 2.44.49 2.46.32 2.46.09 2.41-.13 2.33-.28 2.25-.18 2.18.17 2.1.57 1.92" filter="url(#a)"/><path d="m67.5-17.88 2.49 3.57 1.7 2.48 2.7 2.58 4.54 2.59 5.62 2.46 5.16 2.33L93.27.44l1.99 2.35 1.31 2.42 1.57 2.48 2.13 2.49 2.26 2.44 1.63 2.39.54 2.33-.36 2.31-.52 2.35.29 2.39 1.83 2.44 3.59 2.48 4.75 2.48 4.59 2.43 2.84 2.34.81 2.19 1.6 2.08M-31.04-73.49l1.88-1.07 1.79-.98 1.76-.88 1.78-.82 1.79-.76 1.84-.72 1.93-.66 2.01-.59 2.06-.52 2.07-.44 2.06-.36 2.05-.29 2.1-.2 2.21-.14 2.38-.06h2.59l2.84.08 3.07.14 3.26.22 3.36.29 3.4.36 3.4.44 3.39.51 3.37.57 3.33.61 3.33.63 3.45.67 3.65.76 3.7.79" filter="url(#a)"/><path d="m-31.04-73.49-.01-1.08.35-.97 1.22-.88 1.86-.82 2.31-.77 2.6-.71 2.72-.66 2.72-.59 2.6-.52 2.42-.44 2.24-.36 2.11-.28 2.09-.21 2.16-.13 2.33-.06 2.54.01 2.74.07 2.93.15 3.08.22 3.18.3 3.27.36 3.35.44 3.4.51 3.36.57 3.23.61 3.05.64 3.01.67 3.16.73 3.24.74 2.96.66" filter="url(#a)"/><path d="m-32.16-72.98 1.06-1.05 1.44-.86 1.62-.84 1.53-.86 1.26-.84 1.07-.8 1.09-.73 1.38-.64 1.82-.57 2.28-.5 2.66-.43 2.89-.35 2.99-.28 3.01-.2 3.04-.13L.1-82.1l3.29.04 3.53.11 3.8.18 4.06.23 4.25.26 4.39.29 4.44.36" filter="url(#a)"/><path d="m-32.16-72.98-1.08-1.05 1.54-.87 1.5-.85 1.17-.86 1.31-.85 1.87-.79 2.48-.72 2.9-.65 3-.57 2.88-.49 2.67-.41 2.49-.35 2.39-.26 2.4-.19 2.52-.11 2.67-.03 2.85.05 3.01.12 3.11.18 3.19.24 3.25.28 3.33.35 3.49.42 3.75.53 4.04.62 4.06.63 3.35.29" filter="url(#a)"/><path d="m-34.47-71.33.33-1.74 2.35-1.3 2.28-1.06 2.01-.92 1.87-.84 1.86-.78 1.89-.72 1.96-.66 2.04-.59 2.13-.52 2.21-.44 2.29-.37 2.35-.28 2.42-.21 2.49-.13 2.61-.06 2.76.01 2.95.07 3.15.15 3.34.23 3.49.29 3.57.37 3.57.44 3.46.51 3.3.56 3.13.62 3.06.65 3.2.68 3.52.75 3.99.83 4.7.98 6.66 1.42" filter="url(#a)"/><path d="m-34.47-71.33 1.34-1.74 2.6-1.29 2.4-1.06 2.03-.93 1.88-.83 1.93-.78 2.07-.72 2.19-.66 2.25-.6 2.21-.52 2.13-.44 2.05-.37 1.98-.29 1.96-.21 2-.14 2.09-.06H.86l2.35.07 2.47.15 2.54.21 2.57.29 2.52.36 2.44.43 2.35.51 2.27.58 2.24.61 2.24.63 2.38.67 2.58.76 2.12.79" filter="url(#a)"/><path d="m-34.47-71.33 2.71-1.74 1.94-1.3 1.7-1.06 1.66-.92 1.7-.84 1.8-.78 1.9-.72 2.01-.66 2.1-.59 2.17-.52 2.19-.44 2.2-.36 2.2-.29 2.2-.2 2.24-.13 2.31-.06 2.39.01 2.5.08 2.59.15 2.66.23 2.71.29 2.75.37 2.75.45 2.74.51 2.72.56 2.67.62 2.61.65 2.56.71 2.55.76 2.59.87 2.8 1 3.31 1.2 3.63 1.28" filter="url(#a)"/><path d="m-33.05-72.29-2.68 1.73-2.64 1.62-3.05 1.5-3.06 1.46-2.57 1.53-1.99 1.63-1.67 1.72-1.7 1.8-1.99 1.84-2.39 1.85-2.77 1.87-3.11 1.88-3.39 1.94-3.61 2.01-3.78 2.09-3.83 2.14-3.72 2.16-3.53 2.12-3.33 2.06-3.23 2-3.27 1.98-3.38 2-3.43 2.11-3.42 2.25-3.47 2.43-3.82 2.58-4.32 2.62-4.16 2.47-4.83 2.32" filter="url(#a)"/><path d="m-35.66-70.53-2.58 1.73-2.69 1.46-2.52 1.42-2.62 1.51-3.11 1.63-3.74 1.75-4.27 1.81-4.52 1.85-4.49 1.86-4.21 1.88-3.78 1.9-3.25 1.95-2.71 2.02-2.26 2.09-2.02 2.14-2.07 2.14-2.42 2.12-2.9 2.07-3.25 2.03-3.33 2.02-3.11 2.06-2.79 2.16-2.54 2.28-2.46 2.41-2.39 2.52-2.2 2.59-2.05 2.59-2.48 2.55-3.69 2.49-4.57 2.54-2.15 3.58" filter="url(#a)"/><path d="m-38.01-68.43-7.74 1.2-.72 1.33-1.08 1.46-2.91 1.62-4.39 1.75-5.06 1.82-4.95 1.85-4.29 1.86-3.31 1.85-2.23 1.87-1.27 1.92-.71 2-.76 2.09-1.45 2.16-2.53 2.16-3.64 2.13-4.44 2.05-4.78 1.97-4.77 1.94-4.64 1.97-4.68 2.08-4.94 2.23-5.13 2.44-4.59 2.65-3.03 2.7-2.05 2.2m90.09-51.3 1.2 1.21 3.26 1.35.77 1.48-1.99 1.65-3.08 1.77-2.66 1.84-1.61 1.87-.58 1.87.05 1.89.26 1.91.24 1.97.22 2.03.33 2.1.63 2.14 1.1 2.14 1.69 2.12 2.28 2.08 2.75 2.06 2.96 2.08 2.83 2.12 2.36 2.2 1.67 2.3 1 2.41.61 2.5.62 2.55 1.01 2.57 1.56 2.58 1.98 2.57 2.11 2.56 1.97 2.54 1.81 2.54 1.81 2.59 1.76 2.79L-6 5.03l-.51 2.58" filter="url(#a)"/><path d="m-39.04-67.57-1.92.71-5 1.33-5.88 1.52-4.81 1.69-3.36 1.77-2.41 1.79-2.08 1.8-2.17 1.85-2.43 1.96-2.63 2.08-2.6 2.18-2.38 2.25-2.06 2.26-1.8 2.24-1.75 2.22-1.96 2.19-2.41 2.17-2.99 2.17-3.54 2.17-3.93 2.2-4.08 2.23-3.99 2.29-3.76 2.36-3.48 2.43-3.24 2.47-3.06 2.47-2.9 2.43-2.72 2.37-2.54 2.34-2.4 2.38-2.41 2.51-2.8 2.64-3.68 2.71-4.71 2.74-4.4 3.25" filter="url(#a)"/><path d="m-39.68-67.38.59 1.49 2.06 1.43.08 1.63-1.93 1.78-2.36 1.85-1.56 1.86-.51 1.85.12 1.85.21 1.86-.05 1.92-.23 1.99-.07 2.09.51 2.16 1.35 2.17 2.22 2.13 2.84 2.04 3.1 1.97 2.98 1.93 2.73 1.97 2.62 2.07 2.82 2.23 3.13 2.44 2.93 2.64 2.08 2.71 2.61 2.19m78.51-1.48 4.94 2.38 2.11 2.71 1.61 2.65.47 2.54-.6 2.49-1.07 2.51-.93 2.54-.46 2.56.1 2.57.58 2.53.85 2.49.88 2.45.68 2.42.4 2.4.18 2.41.06 2.42.07 2.41.13 2.39.17 2.35.14 2.32.04 2.27-.07 2.25-.13 2.23-.18 2.22-.23 2.2-.33 2.15-.5 2.09-.73 1.97-1.02 1.83-1.33 1.76-2 2.23M-39.4-67.7l-2.24 2.07-2.08 1.59-2.9 1.71-3.54 1.81-3.52 1.82-3.03 1.79-2.47 1.83-2.08 1.95-1.9 2.09-1.84 2.2-1.77 2.25-1.72 2.27-1.73 2.25-1.84 2.22-2.02 2.18-2.23 2.18-2.36 2.17-2.35 2.17-2.2 2.2-1.95 2.23-1.68 2.3-1.47 2.36-1.42 2.43-1.56 2.46-1.81 2.46-2.12 2.43-2.31 2.38-2.35 2.36-2.23 2.41-2.06 2.5-1.88 2.61-1.67 2.68-1.43 2.66-1.59 2.56-3.26 2.03" filter="url(#a)"/><path d="m-42.7-64.83-5.55 1.87-1.86 1.98-1.86 1.94-2.67 1.89-2.9 1.86-2.39 1.86-1.55 1.87-.87 1.92-.5 2.02-.48 2.11-.67 2.16-.94 2.17-1.23 2.11-1.46 2.06-1.66 2.01-1.85 2.01-2.05 2.06-2.27 2.16-2.45 2.28-2.51 2.41-2.38 2.52-2.07 2.57-1.66 2.58-1.28 2.55-1.1 2.54-1.18 2.61-1.46 2.82-1.81 2.81" filter="url(#a)"/><path d="m-44.7-63-2.61 2.06-3.44 1.97-2.8 1.87-1.88 1.85-1.44 1.83-1.51 1.84-1.86 1.89-2.21 2-2.42 2.11-2.45 2.18-2.37 2.18-2.24 2.12-2.09 2.03-1.87 1.97-1.62 1.95-1.36 2-1.19 2.11-1.19 2.26-1.34 2.42-1.47 2.54-1.52 2.62-1.6 2.62-1.7 2.77-.82 3.44" filter="url(#a)"/><path d="m-44.7-63-3.28 2.08-4.76 1.97-4.34 1.88-2.72 1.86-1.19 1.85-.51 1.86-.77 1.92-1.64 2.02-2.68 2.11-3.57 2.18-4.12 2.17-4.25 2.12-3.99 2.05-3.4 2.01-2.65 2.01-1.96 2.07-1.44 2.17-1.23 2.29-1.27 2.41-1.54 2.51-1.91 2.56-2.3 2.58-2.64 2.56-2.95 2.55-3.37 2.58-4.04 2.6-4.67 2.44-3.83 1.69" filter="url(#a)"/><path d="m-44.71-62.73-3.31 2.32-3.46 2-3.47 1.69-3.34 1.68-2.59 1.86-1.74 2.1-1.36 2.27-1.61 2.32-2.17 2.29-2.67 2.25-2.84 2.2-2.64 2.16-2.22 2.16-1.82 2.14-1.61 2.16-1.66 2.17-1.95 2.21-2.37 2.28-2.81 2.36-3.21 2.43-3.56 2.48-3.76 2.48-3.77 2.41-3.5 2.34-2.83 2.29-1.81 2.34-.79 2.51-.49 2.67-1.8 2.61-4.06 2.11M67.24-18.83l1.88 2.01 3.58 2.48 3.37 2.53 1.67 2.58.28 2.57.13 2.47.91 2.39L80.98.58l2.7 2.4 3.11 2.45 3.2 2.48 3 2.48 2.5 2.45 1.72 2.42.76 2.39-.2 2.38-.91 2.4-1.29 2.42-1.29 2.44-1.05 2.44-.75 2.43-.57 2.39-.56 2.34-.67 2.28-.66 2.23-.37 2.19.16 2.14.75 2.08 1.16 2.01 1.3 1.91 1.24 1.86.67 1.94-2.22 2.38" filter="url(#a)"/><path d="m-49.4-57.31-6.35.98-2.61 1.27-.45 1.76-.68 2.16-1.8 2.37-2.72 2.39-3.01 2.32-2.77 2.23-2.26 2.17-1.73 2.15-1.3 2.14-1.03 2.13-.9 2.14-.88 2.16-.99 2.19-1.2 2.26-1.58 2.36-2.04 2.44-2.52 2.49-2.79 2.49-2.73 2.41-2.36 2.3-1.93 2.22-1.87 2.3-2.25 2.54-2.27 2.87-.3 2.84" filter="url(#a)"/><path d="m-50.43-56.33-2.32 1.13-4.38 1.77-3.82 2.26-3.18 2.47-3.97 2.45-5.45 2.33-6.25 2.23-5.77 2.17-4.38 2.14-2.86 2.15-1.72 2.14-1.02 2.15-.64 2.17-.41 2.22-.39 2.28-.71 2.36-1.41 2.43-2.42 2.47-3.47 2.46-4.28 2.41-4.62 2.36-4.46 2.34-4.09 2.39-3.93 2.49-4.32 2.6-5.08 2.67-5.58 2.64-5.06 2.55-.82 2.01m95.96-64.93-2.41 2.13-1.91 1.68-1.76 1.73-2.22 1.98-2.71 2.19-2.85 2.26-2.63 2.22-2.24 2.12-1.92 2.01-1.81 1.96-1.98 1.97-2.35 2.04-2.82 2.16-3.2 2.29-3.32 2.42-3.13 2.51-2.7 2.56-2.15 2.56-1.63 2.55-1.29 2.53-1.34 2.56L-101.7-6l-3.6 2.42-5.81 1.68" filter="url(#a)"/><path d="m-51.06-55.43-7.98 1.74-.07 2.39.53 2.61-.26 2.51-1.07 2.33-1.72 2.19-2.21 2.14-2.51 2.12-2.62 2.13-2.65 2.13-2.61 2.13-2.51 2.15-2.3 2.18-1.94 2.25-1.52 2.36-1.2 2.44-1.15 2.49-1.4 2.49-1.82 2.4-2.17 2.29-2.25 2.21-1.99 2.28-1.58 2.55-1.26 2.85-.24 2.84" filter="url(#a)"/><path d="m-52.06-54.04-2.06 2.64-2.19 2.86-2.32 2.6-2.53 2.34-2.6 2.2-2.46 2.14-2.2 2.14-1.91 2.16-1.63 2.16-1.4 2.17-1.22 2.21-1.08 2.25-1.01 2.32-1 2.38-1.05 2.43-1.18 2.45-1.39 2.46-1.61 2.44-1.77 2.42-1.82 2.44-1.73 2.45-1.56 2.5-1.38 2.53-1.27 2.55-1.23 2.55-1.19 2.52-1.06 2.52-.73 2.5-.3 2.52.13 2.53.37 2.51.37 2.45.24 2.37.05 2.37-.37 2.6-.69 2.95M66.74-20.93l5.8 2.26 2.37 2.5 1.34 2.63.59 2.6.25 2.56.1 2.52.01 2.53-.06 2.56-.1 2.57-.06 2.56.05 2.54.23 2.5.47 2.46.69 2.44.8 2.42.79 2.42.62 2.42.39 2.41.19 2.39.15 2.36.29 2.32.57 2.29.93 2.26 1.27 2.24 1.53 2.21 1.7 2.18 1.73 2.14 1.56 2.09L92 48.5l.22 2.02-.84 2.05-1.9 2.07-2.52 2.08-2.37 1.95-1.38 1.73-1.55 1.83" filter="url(#a)"/><path d="m-56.21-47.82-5.55 2.46-9.74 2.1-7.59 2.01-3.48 2.05-.24 2.12 1.13 2.14.7 2.15-.63 2.15-1.96 2.17-2.7 2.22-2.89 2.29-2.86 2.38-2.96 2.44-3.3 2.47-3.79 2.45-4.23 2.41-4.49 2.39-4.44 2.38-4.09 2.42-3.47 2.49-2.68 2.55-1.89 2.57-1.39 2.55-1.36 2.5-1.81 2.43-2.47 2.42-3.25 2.48-4.41 2.58-4.98 2.4M-58-44.81l-1.78 2.55-2.32 2.27-1.74 2.02-.95 1.88-.67 1.87-.97 1.94-1.53 2.08-2.03 2.24-2.23 2.36-2.16 2.48-2 2.53-1.9 2.57-1.89 2.57-1.95 2.57-1.94 2.56-1.81 2.55-1.56 2.57-1.28 2.58-1.13 2.6L-91 2.61l-1.32 2.61-1.43 2.58-1.31 2.5-.9 2.42-.49 2.36-.53 2.34-1.24 2.4-1.89 2.73-.6 3.81" filter="url(#a)"/><path d="m-60.5-39.53-4.86 2.65-10.81 2.23-8.77 2.17-3.91 2.12-1.02 2.1-.73 2.17-1.7 2.28-2.59 2.39-2.74 2.47-2.12 2.49-1.17 2.46-.4 2.39-.24 2.36-.87 2.35-2.07 2.4-3.42 2.48-4.43 2.55-4.86 2.57-4.8 2.54-4.57 2.47-4.43 2.42-4.48 2.4-4.62 2.47-4.42 2.57-5 2.38m87.15-55.58-3.69 2.88-.42 2.21-.36 2.05-.79 2.12-1.07 2.28-1.29 2.42-1.58 2.51-1.97 2.51-2.33 2.46-2.51 2.39-2.44 2.35-2.12 2.36-1.63 2.4-1.13 2.49-.76 2.53-.68 2.56-.89 2.53-1.3 2.48-1.62 2.45-1.63 2.45-1.2 2.5-.57 2.58-.01 2.63.3 2.56 1.36 2.09" filter="url(#a)"/><path d="m-62.38-35.23-1.54 2.89-.97 2.22-.86 2.06-.78 2.13-.73 2.3-.73 2.43-.71 2.51-.65 2.52-.53 2.47-.39 2.4-.26 2.37-.21 2.38-.21 2.43-.26 2.49-.31 2.54-.34 2.54-.35 2.54-.32 2.5-.27 2.48-.19 2.48-.06 2.5.14 2.52.37 2.49.58 2.42.67 2.35.62 2.35.53 2.58.57 2.93" filter="url(#a)"/><path d="m-63.7-31.69-.72 1.87-1.44 1.85-2.62 2.08-3.02 2.3-2.51 2.46-1.77 2.54-1.26 2.54-1.06 2.47-1.03 2.41-1.1 2.37-1.22 2.38-1.4 2.43-1.56 2.5-1.63 2.53-1.54 2.55-1.34 2.53-1.13 2.51-.95 2.49-.83 2.49-.71 2.5-.56 2.49-.39 2.48-.28 2.43-.29 2.37-.42 2.33-.67 2.3-.96 2.18-1.21 1.89-.55 1.78m33.45-65.87-.79 1.53-.58 2.03-.67 2.32-.75 2.5-.75 2.57-.64 2.56-.5 2.47-.37 2.38-.28 2.34-.24 2.36-.22 2.42-.23 2.49-.2 2.53-.16 2.55-.08 2.53.01 2.49.1 2.48.13 2.47.13 2.49.11 2.51.13 2.49.24 2.41.42 2.34.65 2.34.79 2.58.79 2.92" filter="url(#a)"/><path d="m-64.81-28.27-2.74 2.23-4.92 2.44-4.1 2.57L-79-18.4l-1.7 2.59-1.99 2.48-2.35 2.4-2.11 2.35-1.21 2.38-.11 2.44.62 2.5.71 2.55.17 2.55-.74 2.54-1.78 2.51-2.67 2.5-3.27 2.5-3.54 2.49-3.48 2.48-3.18 2.46-2.76 2.41-2.32 2.37-1.92 2.3-1.51 2.25-1 2.18-.35 2.13.25 2.12.36 2.17-.25 2.23-1.14 2.23.27 2.2" filter="url(#a)"/><path d="m-64.81-28.27-1.29 2.21-1.03 2.42-1.39 2.55-1.96 2.62-2.35 2.58-2.27 2.48-1.77 2.38-1.24 2.32-1.03 2.35-1.22 2.42-1.7 2.49-2.18 2.54-2.46 2.55-2.42 2.53-2.08 2.49-1.53 2.48-.87 2.47-.24 2.49.2 2.5.31 2.47v2.42l-.55 2.36-.93 2.33-.65 2.37.05 2.24-1.56 1.41" filter="url(#a)"/><path d="m-65.48-26.75-4.84 1.51-1.49 2.63.18 2.73.55 2.65.31 2.57-.02 2.55-.32 2.54-.55 2.56-.77 2.56-1.02 2.59-1.29 2.61-1.53 2.61-1.68 2.58-1.65 2.54-1.41 2.5-.98 2.44-.53 2.42-.15 2.4.01 2.39-.04 2.37-.27 2.34-.52 2.31-.64 2.29-.52 2.29-.2 2.33.21 2.34.44 2.27.33 2.1-.27 1.98-1.2 2.53M65.26-27.2l3.21 3.3 6.93 2.73 6.98 2.27 4.95 2.17 2.83 2.25 1.3 2.37.48 2.46.28 2.48.41 2.43.43 2.37.14 2.34-.37 2.35-.68 2.42-.4 2.48.51 2.49 1.72 2.47 2.7 2.38 3 2.29 2.64 2.25 1.97 2.28 1.48 2.4 1.09 2.49.55 2.03" filter="url(#a)"/><path d="m65.31-26.72.67 1.56 1.13 1.87 1.87 2.13 2.4 2.32 2.46 2.45 2.14 2.52 1.64 2.53 1.09 2.53.52 2.51v2.51l-.44 2.54-.71 2.54-.74 2.55-.57 2.53-.27 2.49.09 2.44.38 2.4.59 2.39.68 2.39.64 2.41.5 2.45.31 2.45.2 2.4.32 2.28.68 2.12.96 2.15.48 2.72" filter="url(#a)"/><path d="m65.31-26.72 1.71 1.58.28 1.89.4 2.16.7 2.35.85 2.48.91 2.54 1.03 2.55 1.21 2.55 1.47 2.54 1.71 2.54 1.9 2.56 1.93 2.56 1.75 2.56 1.31 2.53.7 2.5.02 2.47-.54 2.44-.89 2.43-.93 2.42-.71 2.42-.29 2.42.22 2.4.66 2.36.9 2.33.84 2.29.44 2.26-.17 2.25-.83 2.22-1.3 2.2-1.4 2.15L78 46.32l-.89 2-.78 1.94-.98 1.98-1.25 2.3-1.57 2.96" filter="url(#a)"/><path d="m64.21-30.79.93 3.07.97 2.24.97 2.09.75 2.17.49 2.3.36 2.42.38 2.49.47 2.52.56 2.51.57 2.5.51 2.51.4 2.52.25 2.54.13 2.56.03 2.53-.05 2.49-.1 2.43-.15 2.38-.2 2.36-.25 2.36-.32 2.4-.42 2.46-.56 2.57-.7 2.72-.53 2.61" filter="url(#a)"/><path d="m63.37-32.47.95 1.12 1.12 1.94 1.66 2.47 1.78 2.63 1.44 2.56.93 2.43.5 2.35.22 2.35.08 2.39.06 2.44.13 2.45.23 2.44.39 2.39.53 2.38.65 2.39.7 2.43.63 2.48.47 2.49.24 2.47.02 2.4-.07 2.33.01 2.29.23 2.32.44 2.39.49 2.48.24 2.49-.63 2.66" filter="url(#a)"/><path d="m62.75-34.12.54 1.14.88 2.34.92 2.49.82 2.37.65 2.29.53 2.29.46 2.36.46 2.43.45 2.49.44 2.53.37 2.53.3 2.54.22 2.54.13 2.56.07 2.55v2.55l-.07 2.54-.12 2.5-.18 2.47-.24 2.44-.3 2.43-.35 2.42-.41 2.43-.47 2.42-.52 2.41-.58 2.38-.63 2.32-.69 2.28-.75 2.26-.83 2.25-.93 2.25-1.03 2.23-1.11 2.19-1.21 2.22-1.3 2.41" filter="url(#a)"/><path d="m62.4-35.64 7.85 2.34 1.19 1.89.53 2.13.89 2.43 1.19 2.56 1.08 2.53.68 2.45.25 2.39.04 2.39.11 2.42.35 2.45.6 2.45.76 2.44.78 2.43.71 2.42.54 2.43.35 2.45.17 2.46.05 2.47v2.46l.08 2.42.27 2.4.55 2.38.83 2.39 1.05 2.42 1.12 2.45.96 2.48.57 2.47-.03 2.44-.61 2.36-.89 2.28-.62 2.2.01 2.12.34 1.94" filter="url(#a)"/><path d="m61.37-37.83 1.65 2.62 1.68 2.2 1.41 2.37 1.16 2.41 1.03 2.36.98 2.3 1.11 2.31 1.48 2.37 2.08 2.43 2.71 2.48 3.18 2.52 3.32 2.53 3.13 2.53 2.69 2.55 2.1 2.55 1.46 2.56.82 2.55.24 2.53-.23 2.51-.5 2.47-.49 2.44-.21 2.43.33 2.42.96 2.43 1.47 2.43 1.77 2.41 1.79 2.38 1.57 2.33 1.16 2.27.58 2.25-.06 2.26-.46 2.26-.31 2.22.24 2.11-.18 2.26" filter="url(#a)"/><path d="m60.58-38.62 10.68 2.75.53 2.27.67 2.09 1.99 2.21 2.44 2.41 1.99 2.5 1.19 2.49.57 2.44.37 2.4.56 2.39 1.02 2.41 1.65 2.44 2.45 2.45 3.38 2.43 4.29 2.42 4.9 2.41 4.91 2.41 4.23 2.44 2.99 2.47 1.64 2.49.72 2.46.59 2.41 1.26 2.37 2.3 2.34 3.01 2.35 2.81 2.41 1.75 2.47.7 2.52.85 2.55 2.88 2.56 5.97 2.48" filter="url(#a)"/><path d="m58.58-43.4 2.5 2.01 4.19 1.7 3.47 1.98 1.64 2.18.38 2.29.09 2.35.35 2.35.65 2.34.76 2.31.71 2.32.64 2.36.67 2.41.81 2.45.95 2.5.97 2.51.85 2.52.66 2.52.52 2.55.57 2.55.78 2.56 1.04 2.56 1.2 2.51 1.15 2.45.91 2.4.59 2.37.34 2.37.23 2.4.19 2.44.22 2.58.43 3.25" filter="url(#a)"/><path d="m58.58-43.4 1.43 2.02 2.19 1.71 2.98 2 3.02 2.2 2.38 2.31 1.61 2.36 1.14 2.37 1.08 2.34 1.26 2.34 1.5 2.35 1.75 2.38 2.05 2.43 2.43 2.47 2.82 2.51 3.08 2.52 3.05 2.54L95.04-4l2.11 2.55 1.48 2.56 1.05 2.55.87 2.54.95 2.51 1.16 2.48 1.35 2.45 1.41 2.43 1.34 2.43 1.18 2.43 1.06 2.44 1.02 2.42 1.09 2.39 1.14 2.33.98 2.27.46 2.24-.42 2.28-1.11 2.31-.59 2.21 1.85 1.63" filter="url(#a)"/><path d="m56.44-47.2 2.03 3.14 1.39 2.26.96 1.99.91 2.05 1.04 2.17 1.2 2.26 1.3 2.33 1.28 2.34 1.12 2.32.89 2.31.63 2.31.4 2.35.28 2.4.24 2.45.29 2.49.39 2.5.5 2.51.55 2.52.55 2.53.47 2.55.36 2.58.23 2.58.13 2.53.06 2.44-.01 2.35-.1 2.3-.28 2.37-.39 2.34m-21.2-74.65 12.26 1.51 3.93 2.1.45 2.23-1.12 2.23-1 2.2.09 2.14 1.38 2.12 2.4 2.15 2.98 2.19 3.2 2.25 3.18 2.3 3.01 2.32 2.71 2.32 2.32 2.33 1.95 2.34 1.69 2.37 1.71 2.42 2.01 2.45 2.49 2.49 2.93 2.51 3.16 2.52 3.05 2.53 2.65 2.55 2.06 2.57 1.52 2.58 1.17 2.57 1.15 2.53 1.41 2.47 1.9 2.38 2.56 2.36 3.41 2.39 3.93 2.48 1.39 2.61" filter="url(#a)"/><path d="m51.16-55.53 10.83 2 11.9 2.02 4.54 2.08.45 2.14.2 2.18 1.07 2.17 1.44 2.15 1.27 2.14 1.18 2.14 1.51 2.15 2.03 2.19 2.41 2.25 2.51 2.33 2.53 2.39 2.72 2.43 3.2 2.41 3.83 2.37 4.31 2.36 4.41 2.38 4.14 2.45 3.74 2.52 3.6 2.53L129-3.34l4.94 2.21 5.89 1.99 7.73 1.41" filter="url(#a)"/><path d="m51.16-55.53 3.27 2.01 2.54 2.04 1.34 2.09 1.25 2.16 1.46 2.19 1.48 2.18 1.32 2.17 1.22 2.15 1.3 2.16 1.6 2.18 1.98 2.21 2.3 2.28 2.41 2.34 2.23 2.4 1.85 2.42 1.36 2.42 1.01 2.41.88 2.4.98 2.42 1.21 2.44L85.52-8l1.38 2.44 1.23 2.4 1.05 2.37.96 2.35 1.1 2.42 1.42 2.55 1.8 2.64 1.89 2.62 1.3 2.39.55 2.15" filter="url(#a)"/><path d="m50.12-56.62 4.87 1.38 3.67 1.77 1.17 1.94.73 2.05 1.13 2.13 1.35 2.16 1.23 2.16 1.11 2.15 1.22 2.14 1.61 2.14 2.11 2.16 2.51 2.18 2.65 2.25 2.55 2.32 2.35 2.4 2.17 2.43 2.12 2.41 2.17 2.37 2.17 2.34 1.96 2.37 1.54 2.45 1.14 2.56 1.19 2.59 2.03 2.43 3.12 2.26 1.92 2.69" filter="url(#a)"/><path d="m47.23-60 4.27 2.31 3.88 2.23 2.8 2.16 2.21 2.17 1.68 2.19 1.39 2.2 1.62 2.17 2.33 2.13 3.12 2.12 3.58 2.13 3.55 2.17 3.14 2.23 2.69 2.28 2.44 2.3 2.45 2.31 2.57 2.29 2.59 2.3 2.41 2.32 2.03 2.38 1.62 2.45 1.37 2.5 1.43 2.52 1.86 2.48 2.52 2.45 2.86 2.46 2.09 2.65.62 2.82" filter="url(#a)"/><path d="m47.11-59.73 1.02.64 2.42 1.67 2.83 1.99 2.54 2.11 2.27 2.17 2.24 2.19 2.27 2.19 2.23 2.17 2.2 2.14 2.29 2.14 2.47 2.15 2.59 2.19 2.48 2.23 2.1 2.28 1.55 2.31 1.05 2.31.8 2.31.88 2.32 1.26 2.34 1.81 2.4 2.35 2.44 2.69 2.5 2.78 2.51 2.62 2.5 2.35 2.49 2.01 2.51 1.61 2.55 1.11 2.63 1.06 2.74 2.86 3.25" filter="url(#a)"/><path d="m45.77-61.52 1.78 1.65 2.34 2.14 2.96 2.08 3.36 2.01 3.12 2.03 2.42 2.07 1.73 2.11 1.37 2.15 1.4 2.16 1.67 2.16 2 2.15 2.2 2.15 2.26 2.17 2.19 2.21 2.06 2.26 1.91 2.33 1.69 2.39 1.39 2.42 1.08 2.41.86 2.39.91 2.37 1.29 2.39 1.93 2.46 2.61 2.53 3.05 2.54 2.99 2.42 2.36 2.22 1.53 2.01 1.28 1.41M45.1-62.24l11.76 1.7.91 1.44-.54 1.71-.08 1.92.98 2.06 2.16 2.13 3.2 2.17 3.77 2.17 3.75 2.16 3.22 2.14 2.57 2.11 2.26 2.13 2.62 2.17 3.67 2.22 5.06 2.27 6.27 2.3 6.86 2.31 6.66 2.28 5.95 2.27 5.31 2.29 5.23 2.35 5.66 2.46 5.83 2.56 5.45 2.63 5.81 2.61 6.86 2.6" filter="url(#a)"/><path d="m46.23-61.18.44.29 1.72 1.33 2.62 1.82 3.1 1.95 3.23 1.97 3.17 2 2.98 2.04 2.72 2.08 2.42 2.12 2.23 2.14 2.16 2.13 2.2 2.13 2.25 2.12 2.28 2.11 2.43 2.11L85-30.69l3.53 2.28 4.32 2.47 4.74 2.62 4.38 2.49 3.53 1.89 3.28 1.06" filter="url(#a)"/><path d="m43.29-63.9 7.6 1.68.78 1.55.51 1.57 1.7 1.72 2.85 1.91 3.45 2.03 3.47 2.11 3.06 2.16L69.26-47l2.15 2.16 1.95 2.14 1.92 2.13 1.95 2.13 2.03 2.17 2.09 2.22 2.14 2.27 2.17 2.31 2.15 2.31 2.11 2.28 2.17 2.28 2.47 2.29 3.08 2.35 3.74 2.46 3.87 2.57 3.04 2.63 1.91 2.61 3.15 2.61" filter="url(#a)"/><path d="m43.63-64.13 7.33 1.88 4.42 1.29.35 1.52-.52 1.77.38 1.91 1.69 1.97 2.73 2.02 3.31 2.05 3.44 2.11 3.36 2.13 3.33 2.15 3.46 2.14 3.69 2.15 3.9 2.14 4 2.15 4.04 2.18 4.12 2.24 4.24 2.32 4.22 2.4 3.78 2.46 2.81 2.43 1.65 2.35.97 2.27 1.4 2.25 3.07 2.4 4.99 2.93 3.9 4.12" filter="url(#a)"/><path d="m41.59-65.71 3.42 1.74 2.23 1.55 1.73 1.47 1.72 1.6 1.77 1.78 1.73 1.9 1.64 1.98 1.62 2.04 1.68 2.08 1.77 2.12 1.81 2.14 1.79 2.16 1.68 2.17 1.56 2.18 1.45 2.18 1.38 2.2 1.38 2.25 1.41 2.28 1.49 2.34 1.55 2.39 1.59 2.41 1.59 2.42 1.53 2.42 1.43 2.42 1.35 2.44 1.33 2.45 1.37 2.46 1.43 2.45 1.44 2.42 1.38 2.38 1.24 2.38 1.12 2.44 1.01 2.55.91 2.65.8 2.63.87 2.41.96 2.16" filter="url(#a)"/><path d="m38.97-68.14 1.89 1.68 1.57 1.34 1.76 1.37 2.04 1.46 2.31 1.54 2.62 1.63 2.88 1.76L57-55.48l2.83 1.99 2.61 2.08 2.4 2.14 2.27 2.16 2.28 2.16 2.36 2.15 2.52 2.14 2.71 2.16 2.97 2.19 3.27 2.23 3.51 2.27 3.61 2.3 3.45 2.32 3.04 2.3 2.51 2.3 2.06 2.32 1.92 2.37 2.17 2.46 2.78 2.55 3.36 2.57 3.28 2.5 2.42 2.26 3.45 1.67" filter="url(#a)"/><path d="m36.14-69.74 2.8 1.17 1.75 1.32 1.83 1.5 2.13 1.55 2.47 1.56 2.73 1.58 2.76 1.66 2.55 1.76 2.13 1.85 1.68 1.94 1.32 2.01 1.13 2.06 1.11 2.1 1.24 2.13 1.44 2.15 1.65 2.16 1.83 2.16 1.97 2.17 2.02 2.19 2 2.22 1.9 2.27 1.71 2.33 1.48 2.39 1.26 2.42 1.14 2.42 1.14 2.4 1.21 2.38 1.26 2.4 1.2 2.47 1.04 2.57.9 2.6.9 2.46 1.1 2.29 2.1 2.71" filter="url(#a)"/><path d="m33.46-71.92 4.62 2.26 3.08 1.64 1.98 1.44 1.77 1.38 1.73 1.41 1.61 1.47 1.53 1.53 1.67 1.64 1.97 1.75 2.32 1.87 2.52 1.98 2.49 2.06 2.26 2.12 1.91 2.15 1.56 2.15 1.31 2.16L69-40.76l1.27 2.16 1.45 2.18 1.67 2.23 1.79 2.28 1.81 2.3 1.71 2.32 1.63 2.3 1.65 2.29 1.83 2.31 2.01 2.37 1.96 2.47 1.58 2.58 1.02 2.64.65 2.63.96 2.62" filter="url(#a)"/><path d="m30.5-73.57 4.23 1.05 1.33 1.16 1.21 1.29 1.61 1.36 1.93 1.42 2.07 1.48 1.98 1.52 1.79 1.56 1.58 1.6 1.46 1.68 1.45 1.75 1.51 1.85 1.6 1.92 1.68 1.99 1.7 2.05 1.71 2.09 1.71 2.13 1.74 2.14 1.81 2.16 1.9 2.17 1.98 2.17 2 2.19 1.95 2.22 1.83 2.27 1.69 2.33 1.53 2.39 1.41 2.43 1.32 2.43 1.31 2.4 1.38 2.36 1.54 2.39 1.66 2.48 1.62 2.63 1.37 2.68.98 2.35.12 1.65" filter="url(#a)"/><path d="m27.97-75.29 2.68 1.56 2.97 1.3 3.61 1.34 3.95 1.42 3.66 1.44 2.89 1.43 2.05 1.42 1.5 1.43 1.41 1.47 1.7 1.53 2.18 1.62 2.66 1.72 3.02 1.83 3.23 1.95 3.35 2.03 3.39 2.11 3.41 2.14 3.43 2.16 3.51 2.14 3.76 2.12 4.24 2.12 4.85 2.14 5.22 2.21 5.05 2.29 4.27 2.38 3.32 2.4 2.77 2.27 2.77 2.09 4.01 2.3" filter="url(#a)"/><path d="m26.45-76.19 2.5 1.41 2.58 1.15 3.56 1.11 4.12 1.18 3.92 1.27 3.36 1.34 2.9 1.41 2.7 1.46 2.74 1.51 2.96 1.55 3.24 1.61 3.42 1.67 3.34 1.75 2.95 1.83 2.36 1.92 1.74 1.98 1.3 2.04 1.16 2.08 1.35 2.13 1.83 2.14 2.46 2.16 3.1 2.16 3.61 2.17 3.94 2.18 4.1 2.21 4.15 2.26 4.13 2.33 3.95 2.41 3.62 2.45 3.22 2.45 2.99 2.38 3.31 2.3 4.11 2.28 4.83 2.42 4.41 2.94 2.29 4.15" filter="url(#a)"/><path d="m26.45-76.19 2.45 1.41 2.44 1.14 2.98 1.12 3.26 1.18 3.13 1.26 2.75 1.34 2.37 1.41L48-65.87l2.23 1.51 2.5 1.55 2.81 1.6 2.97 1.67 2.92 1.74 2.68 1.84 2.41 1.9 2.24 1.98 2.28 2.04 2.52 2.09 2.9 2.12 3.31 2.14 3.63 2.16 3.77 2.16 3.7 2.17 3.4 2.17 2.94 2.2 2.45 2.25 2.11 2.33 2.11 2.41 2.56 2.48 3.3 2.46 3.85 2.37 3.69 2.25 2.73 2.15 1.8 2.09 2.14 2.68" filter="url(#a)"/><path d="m26.45-76.19 5.26 1.4 2.47 1.14 1.86 1.1 1.83 1.17 2 1.25L42-68.81l2.16 1.39 2.14 1.45 2.17 1.49 2.21 1.53 2.26 1.57 2.3 1.64 2.31 1.72 2.33 1.8 2.35 1.89 2.39 1.96 2.47 2.02 2.58 2.08 2.68 2.12 2.7 2.14 2.6 2.15 2.4 2.15 2.2 2.16 2.07 2.13 1.98 2.07 1.88 1.92 1.93 1.89 2.34 2.34" filter="url(#a)"/><path d="m20.3-78.6.85.39 1.65.65 2.11.8 2.43.91 2.62 1.03 2.68 1.13 2.63 1.23 2.55 1.31 2.47 1.36 2.39 1.4 2.31 1.41 2.22 1.43 2.22 1.46 2.33 1.48 2.54 1.55 2.76 1.62 2.92 1.72 2.9 1.82 2.71 1.92 2.4 2.03 2.08 2.09 1.86 2.14 1.79 2.16 1.84 2.15 1.91 2.13 1.94 2.12 1.93 2.14 1.96 2.2 2.15 2.31 2.54 2.43 2.93 2.47 2.95 2.23 3.1 1.62" filter="url(#a)"/><path d="m18.15-79.37 2.22.6 1.82.57 1.63.66 1.73.79 1.96.9 2.17 1.01 2.31 1.12 2.4 1.21 2.47 1.29 2.5 1.35 2.51 1.39 2.44 1.4 2.32 1.43 2.18 1.43 2.03 1.47 1.91 1.52 1.88 1.6 1.94 1.69 2.08 1.8 2.25 1.91 2.36 2.02 2.32 2.11 2.13 2.16 1.91 2.18 1.76 2.15 1.81 2.1 2.05 2.06 2.35 2.08L80-35.31l1.5 1.13" filter="url(#a)"/><path d="m14.38-80.63 2.07.52 2.27.71 2.62.76 2.73.81 2.62.88 2.54.95 2.74 1 3.17 1.06 3.68 1.09 3.99 1.15 4.06 1.2 3.92 1.26 3.76 1.34 3.75 1.4 4.01 1.45 4.48 1.47 5.03 1.47 5.51 1.49 5.9 1.6 6.27 1.8 6.1 1.89 4.41 1.79" filter="url(#a)"/><path d="m14.38-80.63 1.66.53 2.12.72 2.24.78 2.24.82 2.22.9 2.19.97 2.2 1.03 2.19 1.08 2.18 1.13 2.16 1.17 2.13 1.24 2.07 1.31 2 1.36 1.94 1.43 1.88 1.47 1.85 1.52 1.85 1.56 1.89 1.63 1.94 1.71 2 1.78 2.03 1.87 2.03 1.95 2.01 2.02 1.98 2.08 1.94 2.12 1.86 2.16 1.72 2.15L70.44-40l1.47 2.2 1.63 2.45 2.03 2.88" filter="url(#a)"/><path d="m12.42-81.12 2.83.76 2.93.76 3 .69 2.87.68 2.52.72 2.28.79 2.33.9 2.68 1.01 3.2 1.1 3.63 1.2 3.85 1.28 3.76 1.34 3.43 1.38 2.99 1.41 2.57 1.42 2.32 1.45 2.27 1.48 2.45 1.53 2.79 1.61 3.17 1.7 3.51 1.8 3.7 1.92 3.77 2.01 3.81 2.11 3.96 2.15 4.33 2.17 4.8 2.16 5.05 2.11 4.69 2.08 3.67 2.07 2.61 2.08 2.83 2.03 5.65 2.43" filter="url(#a)"/><path d="m12.21-81.12 1.31.46.81.58 1.05.68 1.2.75 1.16.8 1.11.87 1.22.95 1.4 1 1.5 1.04 1.42 1.09 1.14 1.14.78 1.2.36 1.26-.12 1.33-.73 1.4-1.52 1.45-2.41 1.47-3.04 1.45-2.94 1.44-1.84 1.58-.29 1.91.95 1.74" filter="url(#a)"/><path d="m12.21-81.12 1.91.47 1.96.59 2.16.69 2.28.75 2.39.82 2.55.88 2.86.96 3.32 1.01 3.85 1.07 4.41 1.11 4.86 1.16 5.18 1.22 5.28 1.29 5.17 1.35 4.84 1.41 4.35 1.45 3.77 1.5 3.3 1.53 3.09 1.58 3.17 1.67 3.49 1.76 3.83 1.86 3.99 1.92 3.81 1.97 3.52 2.03 4.06 2.23 7 2.73" filter="url(#a)"/><path d="m9.84-81.37 1.65.24 2.33.37 2.35.54 2.11.63 2 .66 2.04.69 2.15.74 2.26.81 2.38.9 2.51 1 2.66 1.1 2.86 1.19 3.03 1.27 3.13 1.33 3.13 1.37 3.02 1.41 2.8 1.43 2.57 1.45 2.36 1.49 2.24 1.55 2.24 1.61L64-57.88l2.49 1.81 2.67 1.91 2.8 2.02 2.88 2.09 2.9 2.15 2.89 2.17 2.83 2.15 2.75 2.13 2.71 2.1 2.75 2.1 2.95 2.15 3.27 2.27 3.52 2.63 3.32 3.48" filter="url(#a)"/><path d="m2.98-82.21 4.53.32 3.99.36 2.56.36 2.08.43 2.26.51 2.58.58 2.82.63 2.95.66 3.04.71 3.16.77 3.29.85 3.49.94 3.72 1.04 3.91 1.15 4.07 1.23 4.22 1.32 4.42 1.37 4.67 1.39 4.88 1.39 4.94 1.39 4.99 1.41 5.44 1.45 6.03 1.36 3.88.59" filter="url(#a)"/><path d="m2.12-82.21 1.62.11 2.63.25 2.78.32 2.53.37 2.3.43 2.27.51 2.38.57 2.49.62 2.5.66 2.43.71 2.35.77 2.36.85 2.53.94 2.8 1.04 3.08 1.14 3.26 1.24 3.29 1.31L48.9-69l3.1 1.4 3.14 1.39 3.28 1.39 3.48 1.41 3.63 1.46 3.5 1.35 2.08.6" filter="url(#a)"/></g><path fill="none" stroke="#000" stroke-linejoin="round" stroke-width="3" d="M-9.48 28.59Q9.6 48.66.06-4.178" filter="url(#a)"/><path fill="#D77F8C" stroke="#000" stroke-linejoin="round" stroke-width="3" d="m-28.23 74.57.72-1.33.71-1.3.7-1.26.7-1.22.69-1.19.68-1.16.68-1.13.67-1.09.66-1.06.66-1.03.65-1 .65-.97.64-.93.64-.9.63-.87.63-.85.62-.81.62-.78.62-.75.61-.72.6-.69.6-.67.6-.63.6-.61.59-.58.58-.55.59-.52.58-.5.58-.47.57-.44.58-.42.57-.39.57-.36.56-.34.57-.31.56-.29.56-.27.56-.23.56-.22.56-.19.56-.17.55-.14.56-.12.55-.1.56-.07.55-.06.56-.03.55-.01.56.02.55.03.56.06.55.07.56.1.56.11.56.14.56.16.56.17.57.19.56.22.57.23.57.25.57.27.58.28.58.3.58.32.58.34.59.35.59.37.59.39.6.4.6.41.6.44.61.44.61.46.62.48.62.49.63.5.63.52.63.53.65.55.64.55.65.57.66.58.66.6.67.6.68.62.68.62.69.64.69.65.7.66.71.67.71.68.72.68.73.7.74.71.74.71.76.72.76.74.76.73.78.75-.78-.75-.76-.73-.76-.74-.76-.72-.74-.71-.74-.71-.73-.7-.72-.68-.71-.68-.71-.67-.7-.66-.69-.65-.69-.64-.68-.62-.68-.62-.67-.6-.66-.6-.66-.58-.65-.57-.64-.55-.65-.55-.63-.53-.63-.52-.63-.5-.62-.49-.62-.48-.61-.46-.61-.44-.6-.44-.6-.41-.6-.4-.59-.39-.59-.37-.59-.35-.58-.34-.58-.32-.58-.3-.58-.28-.57-.27-.57-.25-.57-.23-.56-.22-.57-.19-.56-.17-.56-.16-.56-.14-.56-.11-.56-.1-.55-.07-.56-.06-.55-.03-.56-.02-.55.01-.56.03-.55.06-.56.07-.55.1-.56.12-.55.14-.56.17-.56.19-.56.22-.56.23-.56.27-.56.29-.57.31-.56.34-.57.36-.57.39-.58.42-.57.44-.58.47-.58.5-.59.52-.58.55-.59.58-.6.61-.6.63-.6.67-.6.69-.61.72-.62.75-.62.78-.62.81-.63.85-.63.87-.64.9-.64.93-.65.97-.65 1-.66 1.03-.66 1.06-.67 1.09-.68 1.13-.68 1.16-.69 1.19-.7 1.22-.7 1.26-.71 1.3" filter="url(#a)"/></svg>