<svg xmlns="http://www.w3.org/2000/svg" width="500" height="500" viewBox="-100 -100 200 200"><defs><clipPath id="c"><path d="m29.06.2-.41-.24-.42-.24-.45-.24-.47-.24-.49-.25-.51-.23-.53-.24-.54-.23-.56-.22-.58-.22-.59-.21-.6-.2-.62-.18-.63-.18-.65-.17-.73-.32-.75-.31-.76-.27-.77-.25-.79-.21-.81-.19-.81-.16-.82-.14-.84-.1-.84-.08-.85-.05-.86-.02-.87.01-.88.02-.87.06-.89.08-.88.09-.89.12-.9.14-.89.16-.89.18-.89.19-.89.2-.88.22-.88.24-.88.24-.87.25-.86.26-.85.27-.85.27-.83.28-.82.29-.81.28-.8.29-.78.29-.77.29-.75.29-.73.29-.72.29-.69.28-.68.28-.66.28-.63.28-.62.27-.59.27-.57.26-.55.26-.52.26-.5.26-.48.25-.45.24-.44.25-.41.24-.38.24-.37.24-.34.23-.32.23-.3.23-.27.22-.25.22-.22.23-.2.21-.18.22-.15.22-1.3.78.3.06.33.05.34.05.36.04.38.04.4.03.41.02.44.02.45.01h.95l.51-.02.51-.02.54-.03.55-.04.57-.05.58-.06.61-.06.62-.08.64-.09.65-.09.66-.11.69-.12.69-.14.7-.14.72-.16.73-.17.74-.19.74-.19.76-.21.76-.21.77-.23.78-.23.78-.24.79-.26.79-.25.79-.26.8-.27.8-.27.81-.26.8-.27.81-.27.81-.26.8-.26.81-.25.81-.24.81-.23.81-.22.8-.21L9 .83l.8-.18.81-.15.8-.13.8-.11.8-.09.79-.07.79-.03.79-.02.79.02.78.04.78.08.78.1.77.13.76.15.63.02.63.03.62.04.61.05.6.06.59.07.58.07.56.09.55.1.54.1.52.11.5.11.49.11.46.12.45.11"/></clipPath><clipPath id="b"><path d="m-30.76.25.3-.12.33-.13.34-.13.37-.13.38-.13.4-.13.41-.14.43-.13.44-.12.46-.13.47-.12.48-.11.49-.11.5-.11.52-.1.61-.19.62-.18.63-.16.64-.15.65-.13.65-.12.66-.1.67-.09.68-.07.69-.05.69-.04.7-.02.71-.01h.71l.73.02.73.04.75.05.75.06.75.07.77.08.77.09.78.11.79.11.8.12.8.13.81.13.81.15.82.14.82.16.82.15.83.17.83.16.83.17.83.17.84.17.83.17.82.18.83.17.82.17.81.18.81.17.8.17.79.17.78.17.77.17.75.17.75.16.73.17.71.16.7.16.68.16.67.16.66.15.65.16.63.15.62.16.6.15.59.15.57.15.55.15.54.15.52.15.5.15.49.14 5.73.79-.16.04-.17.04-.19.03-.21.03-.23.02-.24.02-.27.02-.28.01-.3.01h-.32l-.34-.01-.35-.01-.38-.02-.39-.03-.42-.03-.43-.04-.46-.05-.47-.05-.5-.06-.52-.07-.54-.07-.57-.09-.58-.09-.61-.1-.63-.11-.65-.12-.67-.13-.7-.14-.71-.15-.74-.16-.76-.16-.77-.17-.8-.18-.82-.18-.83-.19-.85-.2-.87-.19-.89-.21-.9-.2-.91-.2-.94-.2-.94-.2-.95-.2L2 1.03 1.02.84.04.65l-1-.17-1-.16-1-.16-1.01-.14-1.02-.13L-6-.23l-1.02-.1-1.01-.08-1.02-.07-1.01-.04-1-.03-1-.01-.99.01-.98.03-.97.06-.96.07-.94.1-.93.12-.81.01-.79.02-.78.03-.76.03-.75.05-.74.05-.71.05-.7.07-.68.07-.66.07-.63.08-.62.08-.58.08-.56.08-.53.08"/></clipPath><filter id="a"><feTurbulence baseFrequency=".05" numOctaves="3" result="noise" type="noise"/><feDisplacementMap in="SourceGraphic" in2="noise" scale="2"/></filter></defs><rect width="100%" height="100%" x="-100" y="-100" fill="beige"/><path fill="#C8A2C8" stroke="#000" stroke-linejoin="round" stroke-width="1.667" d="m75.86 1.18.18 1.21.1-1.84-.57 5.26.34-.46-.08 1.62-.4.63-.06 1.27.07 2.43-.34.02.03.94-.09 1.27-.44.84-.14.88.03 1.22-.63 2.16-.43 1.12v-.17l-.74 3.93-.38 1.11.22-.61-.58 1.85-.53 1.26-.33.88-.8 1.88-.51 1.16-.2.82-.33.56-.76 2.23-.75 1.26-.12.01-.68 1.75-.38.26.22.14-1.97 3.48.45-.55-1.52 2.29-.66.31-.34.87-.09.82-.94.73-.59 1.15-.82 1.24-1.87 2.39.09.01-.32-.25-1.6 1.81-.49.95.45-.44-2.21 2.43-.82 1.22-.79.14-1.14 1.86-.81.33-1.12 1.3-1.01 1.03.31-.56-1.4.75-1.3 1.21.75-.63-2.01 1.93-1.5.99-.4.3-1.92 1.42-1.39.74.54-.56-.16.83-3.62 1.69-.01.45-.91.02-2.49 1.63.39-.28.02-.31-.5.73-2.13.78-2.48.79-1.04.87-.46.15.5-.25-3.17 1.15.2.13-2.16.61-.16-.22-1.45.98-.4-.22-1.61.38-1.93.33-1.86.46-.49.03-1.54.5-1.92.48-1.71.18-.7-.14.66-.04-2.12.31-.74-.03-1.56.28-.54-.17-3.88.41 1.95-.04-2.64-.17.3-.03-.93-.03-2.14.14-1.88-.2-1.15-.21-1.31-.04-2.99-.4.03-.02-.9.02.3-.05-1-.25h-1.48l-.97-.38-1.09.09-3.06-.72-.19-.26-.67.05-1.37-.75-2.46-.53-.08-.14-.91-.7-1.38-.03-.31-.28-1.62-.72-1.15-.33-.67-.4-3.55-1.66-.13.26-.79-.56.02.06-2.6-1.64-.63-.1-.14-.28-1.15-.6-.6-.6-2.4-1.29-.3.11.38.02-2.08-1.89-1.82-1.18-.21-.51-1.15-.22-1.99-1.95-.47-.67-1.02-.27-1.3-1.55-.82-.44.6.16-2.1-1.51-.05-.84-1.12-.97-1.79-1.72-.18-.47-1.1-1.41-.52-.27-1.52-1.88.74.44-2.2-2.69 1.56 2.14-1.04-1.72-1.7-2.03.23.27-1.75-2.68-.41-.79-.09-.84-.94-1.04-.24-.97-1.64-2.46-.06.57-.5-1.29-.07-1.54-.99-.92.28-.3-1.59-3.21.51.77-1.23-2.92-.23-.71-.84-2.27.55 1.83-.91-3.37-.33-.61-.59-2.28.21 1.45-.4-3.03.08 1.14-.59-3.35-.11-.13-.2.37-.59-3.53-.17-1.3.14.13-.33-1.62-.18-2.59-.19-.47-.24-1.51.38-.06-.5-1.44.26.2V-.2l-.29-.22.11-1.35.26-2.27-.25-.24.24-2.08.17-.12-.06.24.13-2.47.2-.59.16-1.86-.23.5.63-2.25.15-2.62.18-.48-.16.08.75-2.46.27-1.99.38-.32.33-1.57.35-1.61.84-1.97-.33-.07.2.53 1.44-4.4.08.5.23-1.49.45-.92-.11-.13.87-1.27.07-.08 1.31-3.58.02.19 1.04-1.6.43-1.7.62-.84.29-.5.44-1.07.96-.62.68-1.7-.12.6 1.95-2.91.51-.83 1.24-1.77-.04-.18.84-.55.07-.86 1.73-1.62-.27.65 2.45-2.79.41-.63.81-.75.2-.32 1.42-1.05.43-.93.95-.55.83-.57.14-.62 1.97-1.48 1.15-1.2 1.02-.68 2.2-1.73-1.83 1.46 1.49-.87 2.3-1.96-.96.69.63-.37 1.89-.92.85-.95 1.99-1.05.88-.78.05.3 2.47-1.42 1.66-.87-.24.28.92-.29 2.83-1.45-.28.08 1.26-.44 2.09-.75 1.6-.54.96-.54 1.65-.18-.42-.19.1-.11 3.95-.67-.07-.02 1.56-.21.98-.46.92-.44.98-.19.44.02.72-.03 3.84-.53.28.03-.5-.11 3.15-.18.71-.15.42.02 1.62.07.52-.13 3.31-.11.33.02 1.89.31-1.57.1 3.72.07-.08-.04.64-.11 2.16.25.58.11 1.77.27-.8.1 3.09.26.11-.02 2.39.63.82.27 1.45.16 1.25.43.49.23 1.67.5.54-.19-.11.08 2.69 1.11 1.95.54-.75.14 1.96.36 2.13 1-1.16-.62 2.62 1.45 1.32.28-.32.11 3.45 1.65.51.37.66.2.27.01 1.47 1.53-.04-.41 2.62 1.5.68.56 1.04.53-.27.34 2.16 1.64.39-.22 1.9 1.7.47.77.63.48.61.25 2.52 2.65.36.14 1.24 1.11-.45-.62 2.11 2.04-.39-.39 1.99 2.92-1.22-1.6 2.03 1.79 1.51 2.54-.23-.33 1.42 1.73.01.06.67.68 1.44 2.51.4.12 1 .83-.48-.14.6 1.71.84.65.34.6 1.55 2.95.68.79-.25.19.8.88.54 1.38 1.04 1.99.95 2.13-.36-.44.57 1.08.37 1.3.52 1.38.4 1 .72 2.59.12.82.36-.01.52 1.86.06 1.05.43.58.24 1.91.21 1.69.61 1.16.17 2.44.13-.02-.42-.66.53 1.71.37 1.31.01 1.78-.22-.61.37 4.61.22.78-.01.13.15.08.02 2.81-.2 2.17.18 1.21" filter="url(#a)"/><path fill="#fff" d="m-30.76.25.3-.12.33-.13.34-.13.37-.13.38-.13.4-.13.41-.14.43-.13.44-.12.46-.13.47-.12.48-.11.49-.11.5-.11.52-.1.61-.19.62-.18.63-.16.64-.15.65-.13.65-.12.66-.1.67-.09.68-.07.69-.05.69-.04.7-.02.71-.01h.71l.73.02.73.04.75.05.75.06.75.07.77.08.77.09.78.11.79.11.8.12.8.13.81.13.81.15.82.14.82.16.82.15.83.17.83.16.83.17.83.17.84.17.83.17.82.18.83.17.82.17.81.18.81.17.8.17.79.17.78.17.77.17.75.17.75.16.73.17.71.16.7.16.68.16.67.16.66.15.65.16.63.15.62.16.6.15.59.15.57.15.55.15.54.15.52.15.5.15.49.14 5.73.79-.16.04-.17.04-.19.03-.21.03-.23.02-.24.02-.27.02-.28.01-.3.01h-.32l-.34-.01-.35-.01-.38-.02-.39-.03-.42-.03-.43-.04-.46-.05-.47-.05-.5-.06-.52-.07-.54-.07-.57-.09-.58-.09-.61-.1-.63-.11-.65-.12-.67-.13-.7-.14-.71-.15-.74-.16-.76-.16-.77-.17-.8-.18-.82-.18-.83-.19-.85-.2-.87-.19-.89-.21-.9-.2-.91-.2-.94-.2-.94-.2-.95-.2L2 1.03 1.02.84.04.65l-1-.17-1-.16-1-.16-1.01-.14-1.02-.13L-6-.23l-1.02-.1-1.01-.08-1.02-.07-1.01-.04-1-.03-1-.01-.99.01-.98.03-.97.06-.96.07-.94.1-.93.12-.81.01-.79.02-.78.03-.76.03-.75.05-.74.05-.71.05-.7.07-.68.07-.66.07-.63.08-.62.08-.58.08-.56.08-.53.08" filter="url(#a)" transform="translate(48.25 -22.05)"/><path fill="#fff" d="m29.06.2-.41-.24-.42-.24-.45-.24-.47-.24-.49-.25-.51-.23-.53-.24-.54-.23-.56-.22-.58-.22-.59-.21-.6-.2-.62-.18-.63-.18-.65-.17-.73-.32-.75-.31-.76-.27-.77-.25-.79-.21-.81-.19-.81-.16-.82-.14-.84-.1-.84-.08-.85-.05-.86-.02-.87.01-.88.02-.87.06-.89.08-.88.09-.89.12-.9.14-.89.16-.89.18-.89.19-.89.2-.88.22-.88.24-.88.24-.87.25-.86.26-.85.27-.85.27-.83.28-.82.29-.81.28-.8.29-.78.29-.77.29-.75.29-.73.29-.72.29-.69.28-.68.28-.66.28-.63.28-.62.27-.59.27-.57.26-.55.26-.52.26-.5.26-.48.25-.45.24-.44.25-.41.24-.38.24-.37.24-.34.23-.32.23-.3.23-.27.22-.25.22-.22.23-.2.21-.18.22-.15.22-1.3.78.3.06.33.05.34.05.36.04.38.04.4.03.41.02.44.02.45.01h.95l.51-.02.51-.02.54-.03.55-.04.57-.05.58-.06.61-.06.62-.08.64-.09.65-.09.66-.11.69-.12.69-.14.7-.14.72-.16.73-.17.74-.19.74-.19.76-.21.76-.21.77-.23.78-.23.78-.24.79-.26.79-.25.79-.26.8-.27.8-.27.81-.26.8-.27.81-.27.81-.26.8-.26.81-.25.81-.24.81-.23.81-.22.8-.21L9 .83l.8-.18.81-.15.8-.13.8-.11.8-.09.79-.07.79-.03.79-.02.79.02.78.04.78.08.78.1.77.13.76.15.63.02.63.03.62.04.61.05.6.06.59.07.58.07.56.09.55.1.54.1.52.11.5.11.49.11.46.12.45.11" filter="url(#a)" transform="translate(-29.14 -24.28)"/><g fill="none" stroke="#000" transform="translate(48.25 -22.05)"><path stroke-linejoin="round" stroke-width="1.667" d="m-32.36 1 .02-.01.05-.03.09-.05.12-.06.15-.08.18-.08.21-.1.23-.1.26-.12.29-.12.3-.12.33-.13.34-.13.37-.13.38-.13.4-.13.41-.14.43-.13.44-.12.46-.13.47-.12.48-.11.49-.11.5-.11.52-.1.61-.19.62-.18.63-.16.64-.15.65-.13.65-.12.66-.1.67-.09.68-.07.69-.05.69-.04.7-.02.71-.01h.71l.73.02.73.04.75.05.75.06.75.07.77.08.77.09.78.11.79.11.8.12.8.13.81.13.81.15.82.14.82.16.82.15.83.17.83.16.83.17.83.17.84.17.83.17.82.18.83.17.82.17.81.18.81.17.8.17.79.17.78.17.77.17.75.17.75.16.73.17.71.16.7.16.68.16.67.16.66.15.65.16.63.15.62.16.6.15.59.15.57.15.55.15.54.15.52.15.5.15.49.14.47.15.45.14.43.15.41.14.39.14.38.15.36.14.34.14.32.15.31.14" filter="url(#a)"/><path stroke-linejoin="round" stroke-width="2.222" d="M-31.51 1.17h.15l.2-.01.25-.02.28-.04.33-.06.36-.06.4-.06.44-.08.47-.08.5-.08.53-.08.56-.08.58-.08.62-.08.63-.08.66-.07.68-.07.7-.07.71-.05.74-.05.75-.05.76-.03.78-.03.79-.02.81-.01.93-.12.94-.1.96-.07.97-.06.98-.03.99-.01 1 .01 1 .03 1.01.04 1.02.07 1.01.08 1.02.1 1.01.12 1.02.13 1.01.14 1 .16 1 .16 1 .17.98.19.98.19.97.19.95.2.94.2.94.2.91.2.9.2.89.21.87.19.85.2.83.19.82.18.8.18.77.17.76.16.74.16.71.15.7.14.67.13.65.12.63.11.61.1.58.09.57.09.54.07.52.07.5.06.47.05.46.05.43.04.42.03.39.03.38.02.35.01.34.01h.32l.3-.01.28-.01.27-.02.24-.02.23-.02.21-.03.19-.03.17-.04.16-.04.13-.05.12-.04.11-.05.09-.05.07-.06.05-.05.04-.06.02-.06.01-.06v-.06" filter="url(#a)"/><circle cx="-23.797" cy=".924" r="3.76" clip-path="url(#b)" filter="url(#a)"/><circle cx="-21.827" cy="-2.931" r="3.96" clip-path="url(#b)" filter="url(#a)"/><circle cx="-23.562" cy="1.834" r="3.46" clip-path="url(#b)" filter="url(#a)"/><circle cx="-24.132" cy="-2.896" r="4.55" clip-path="url(#b)" filter="url(#a)"/><circle cx="-22.597" cy="-.016" r="3.798" clip-path="url(#b)" filter="url(#a)"/><circle cx="-25.147" cy="-1.406" r="3.266" clip-path="url(#b)" filter="url(#a)"/><circle cx="-20.737" cy=".444" r="4.794" clip-path="url(#b)" filter="url(#a)"/><circle cx="-25.147" cy="-.231" r="4.234" clip-path="url(#b)" filter="url(#a)"/><circle cx="-22.087" cy="-.071" r="4.216" clip-path="url(#b)" filter="url(#a)"/><circle cx="-24.067" cy="-1.306" r="4.3" clip-path="url(#b)" filter="url(#a)"/></g><g fill="none" stroke="#000" transform="translate(-29.14 -24.28)"><path stroke-linejoin="round" stroke-width="2.222" d="m31.58 1.89-.11-.08-.15-.1-.17-.13-.22-.15-.24-.17-.27-.19-.3-.2-.33-.22-.35-.22-.38-.23-.41-.24-.42-.24-.45-.24-.47-.24-.49-.25-.51-.23-.53-.24-.54-.23-.56-.22-.58-.22-.59-.21-.6-.2-.62-.18-.63-.18-.65-.17-.73-.32-.75-.31-.76-.27-.77-.25-.79-.21-.81-.19-.81-.16-.82-.14-.84-.1-.84-.08-.85-.05-.86-.02-.87.01-.88.02-.87.06-.89.08-.88.09-.89.12-.9.14-.89.16-.89.18-.89.19-.89.2-.88.22-.88.24-.88.24-.87.25-.86.26-.85.27-.85.27-.83.28-.82.29-.81.28-.8.29-.78.29-.77.29-.75.29-.73.29-.72.29-.69.28-.68.28-.66.28-.63.28-.62.27-.59.27-.57.26-.55.26-.52.26-.5.26-.48.25-.45.24-.44.25-.41.24-.38.24-.37.24-.34.23-.32.23-.3.23-.27.22-.25.22-.22.23-.2.21-.18.22-.15.22-.13.21-.1.21-.08.21-.06.21-.04.21-.01.21.01.21.03.2.06.21.07.2" filter="url(#a)"/><path stroke-linejoin="round" stroke-width="2.222" d="m31.31 2.51-.15-.01-.18-.03-.22-.05-.25-.06-.29-.08-.31-.09-.35-.1-.37-.1-.4-.11-.42-.12-.45-.11-.46-.12-.49-.11-.5-.11-.52-.11-.54-.1-.55-.1-.56-.09-.58-.07-.59-.07-.6-.06-.61-.05-.62-.04-.63-.03-.63-.02-.76-.15-.77-.13-.78-.1-.78-.08-.78-.04-.79-.02-.79.02-.79.03-.79.07-.8.09-.8.11-.8.13-.81.15-.8.18-.81.18-.8.21-.81.22-.81.23-.81.24-.81.25-.8.26-.81.26-.81.27-.8.27-.81.26-.8.27-.8.27-.79.26-.79.25-.79.26-.78.24-.78.23-.77.23-.76.21-.76.21-.74.19-.74.19-.73.17-.72.16-.7.14-.69.14-.69.12-.66.11-.65.09-.64.09-.62.08-.61.06-.58.06-.57.05-.55.04-.54.03-.51.02-.51.02h-.95l-.45-.01-.44-.02-.41-.02-.4-.03-.38-.04-.36-.04-.34-.05-.33-.05-.3-.06-.28-.06-.27-.07-.24-.07-.23-.07-.2-.08-.19-.07-.17-.08-.15-.09-.13-.08-.11-.09" filter="url(#a)"/><circle cx="2.353" cy="2.288" r="3.096" clip-path="url(#c)" filter="url(#a)"/><circle cx="5.723" cy="1.813" r="3.942" clip-path="url(#c)" filter="url(#a)"/><circle cx="7.258" cy="1.558" r="3.236" clip-path="url(#c)" filter="url(#a)"/><circle cx="4.658" cy="1.698" r="4.126" clip-path="url(#c)" filter="url(#a)"/><circle cx="5.693" cy=".968" r="4.754" clip-path="url(#c)" filter="url(#a)"/><circle cx="4.798" cy="-.642" r="3.14" clip-path="url(#c)" filter="url(#a)"/><circle cx="3.423" cy=".198" r="4.882" clip-path="url(#c)" filter="url(#a)"/><circle cx="3.203" cy="2.083" r="4.906" clip-path="url(#c)" filter="url(#a)"/><circle cx="2.663" cy="-1.562" r="4.43" clip-path="url(#c)" filter="url(#a)"/><circle cx="4.498" cy="-.532" r="3.138" clip-path="url(#c)" filter="url(#a)"/></g><g fill="none" stroke="#F0F" stroke-linejoin="round" stroke-width="2"><path d="m51.83-57.84-.54 6.4-20.17-2.1-23.17-5.68-14.9-4.24-5.94-1.45-1.08.31-.25.6-.86.24.08.13 4.09.36 9.72.35 12.76-.46 9.22-1.66.93-1.23 1.47 4.41 41.47 20.23" filter="url(#a)"/><path d="m5.91-78.87 7.67 2.27.5 3.26-6.5 2.19-5.16.78.44.28 5.41.74 7.79 1.52 7.61 2.03 5.64 2.06 2.65 1.62-.58.92-3.25.25-4.59-.06-4.23.27-2.48 1.24-.22 2.44 1.37 3.2 1.26 2.77-1.44.88-6.74-2.18L-.73-57.8l-9.1-7.34 8.57-6.84 29.07-1.77" filter="url(#a)"/><path d="m-12.89-78.23 17 6.98 3.91 7.91-.57 3.48 1.59 1.57 4.61 1.64 7.13 2.11 8.24 2.07 7.14 1.21 4.16-.22.69-1.54-2.06-2.19-3.86-2.05-4.97-1.56-5.27-1.15-3.97-.81-.53-.21 3.56.73 4.55 1.15-.81-.1-9.04-2.08-3.69.78L61.96-45.4" filter="url(#a)"/><path d="m15.85-77.38 26 25.94-11.35 2.71-20-5.73-16.07-6.04-8.98-3.68-1.73-1.69 3.87-.87 6.78-.68 7.85-.16 8.68 1.22 9.31 2.95 7.16 3.26-.08.24-9.19-5.77-10.28-9.38-1.27-3.92" filter="url(#a)"/><path d="m-59.45-49.69 47.94-15.67 12.88-2.59 6.29 1.75 5.36 1.93 2.05.78-2.07-.08-4.53-.3-4.72-.35-3.53-.55-2.13-.86-1.33-.95-1.18-.68-1.02-.09-.09.52 1.82.84 3.95.76 5.17.33 4.82-.08 3.41-.01 1.92.67.46 1.11-3.4-.21-15.72-3.51-38.04.19" filter="url(#a)"/><path d="M35.85-69.88 2.95-73.3l.12.42 9.14 1.87 6.78 1.43 2 1.23-2.33 1.78-5.78 2.32-7.83 2.07-7.86 1.15-6 .2-3.27-.26-.86-.15.59.06 1.04-.18.85-1.11.49-2.44.48-3.53 1.1-3.75 2.24-2.95 3.14-1.56 2.25-.05-2.96 1.66-15.32 4.71-32.75 12.77" filter="url(#a)"/><path d="m72.31-23.59-9.62-10.13-19.52-10.43-16.55-8.9-9.67-5.16-5.21-2.46-3.46-1.41-3.42-1.23L.73-64.5l-4.71-.91-4.73-.48-4.26-.08-3.37.06-1.85-.05.68-.23 4.2-.16 7.71.21 9.58.65 8.41.7 4.51.21.55-.33.92-.13 7.94 1.17 16.45 3.95 17.08 11.27" filter="url(#a)"/><path d="m-58.54-51.1 52.45-.02 3.58-7.56 1.79-4.95 3.32-.49 2.05 1.83.19 1.63-.21.25 1.21-.94 3.43-1.27 4.97-.92 4.73-.38 2.61-.11-.55-.29-3.22-.75-3.99-1.13-2.25-1.13 1.23-.64 4.46.08 5.38.67 3.35.94-.85 1.09-5.66 1.27-4.63 1.54 36.62 4.4" filter="url(#a)"/><path d="m60.52-47.91-47.73-17.4-12.89-.2 5.67 4.65 9.78 1.92 5.2-1.97-.6-3.79-3.52-3.33-3.13-1.64-.88.19 1.46 1.53 2.66 2.11 2.03 2.06-.23 1.7-3.03 1.42-4.48 1.22-2.69.77 2.62-.36 7.94-2.3 6.32-4.92-5.64-7.21-17.43-5.85" filter="url(#a)"/><path d="M13.35-77.99 10.5-66.42l9.04 6.68-1.72-1.3-4.04-3.41.31-2.07 4.8.12 6.75 2.01 6.32 3.05 4.51 2.91 2.46 1.88 1.1.6.02-.82-3.08-2.95-10.46-5.25-22.4-3.97-47.21 3.57" filter="url(#a)"/><path d="m31.4-71.92-37.86 1.43L-5.09-72l10.73.47 8.47 2.85 3.24 4.06-1.61 3.59-4.95 1.78-6.52-.54-6.43-2.4-5.07-3.25-3.05-3.05-1.03-2.24.41-1.31 1.12-.55 1.43.1 1.97.83 3.14 1.81L.9-67.04l2.99 3.26-1.99 2.44-9.01.44-9.65-.97 9.43.81 60.4 4.33" filter="url(#a)"/><path d="m59.84-48.65-3.97-3.72-9.25-4.57-15.82-4.48-18.14-2.15-14.11.12-5.72 1.1 2.51.85 7.2-.19 7.65-1.41 5.45-2.38 2.9-2.72 1.62-2.29 1.7-1.35 1.48-.55-1.38-.56-7.54-1.41L.71-76.73l-8.32-2.01" filter="url(#a)"/><path d="m32.4-71.53-35.45.5-2.16-2.56 5.24-.55 8.38 2.21 9.14 4.24 7.09 5.02 3.46 4.59.14 3.38-1.7 1.9-1.67.41-.28-1.13.91-2.85-.13-4.67-3.99-5.88-8.03-5.55-8.29-3.37-6.22-.63-20.15.34" filter="url(#a)"/><path d="m63.48-42.88-29.1-10.56 8.19 4.38 7.22 2.36-1.55-1.71-9.1-4.21-12.56-4.58-12.12-3.46-10.02-1.87-8.19-.9-5.93-1.09-.75-1.9 8.01-1.57 16.71 1.19 18.49 3.37-2.84-9.32" filter="url(#a)"/><path d="M57.14-52.59 9.08-66.25 3.41-70.8l3-1.9.83-1.4-.18-.86 1.55-.08 3.55.65 3.76 1.15 1.69 1.35-1.45 1.32-2.94 1.51.01 2.62 5.08 4.66-3.67 4.47-57.74-8.06" filter="url(#a)"/><path d="m67.44-36.82-6.67-5.94-17.52-10.01-20.76-8.98-16.21-4.88-7.44-1.46 1.51.23 7.52.75 9.28.91 7.52 1.1 4.07 1.4.76 1.69-1.31 1.83-2.02 1.71-1.97 1.36-1.81.87-1.59.38-.8-.16.8-1 2.32-2.42 1.77-4.22-2.02-5.52-7.05-5.19-7.64-3.08 5.17-.54" filter="url(#a)"/><path d="m66.64-37.7-29.07-5.4-27.56-10.47-4.03-7.8 9.37-2.94 10.39-.22 4.2-.31L26-66.32 15.32-68.3.81-69.61l-15.01-.06-12.62.9-8.53 1.3-4.37 1.38-.48 1.08 6.87-1.49 29.08-12.68" filter="url(#a)"/><path d="m-11.73-78.24 6.34 13.27 12.95 9.11 7.42 2.14 2.43-1.38-1.86-2.41-3.84-2.41-3.52-2.38-2.48-2.57-1.98-2.67-2.07-2.3-2.04-1.41-1.27-.23.16.8 1.66 1.35 2.76 1.29 3.53.83 4.37.35 5.12.19 4.52.4 1.15.84-4.1 1.58-7.18 2.86-8.91 3.2-46.73-5.85" filter="url(#a)"/><path d="m41.34-66.68-26.28.86-5.81 1.91-4.19-.28 1.54 1.07 7.1 2.93 7.42 2.73 2.19.78-5.44-1.22L6.34-60l-13.21-1.95-9.71-1.48-2.57-1.07 4.41-.42 6.48.69.69 1.67-10.27 1.24-17.22.51-24.39 11.12" filter="url(#a)"/><path d="m-28.45-73.49 42.37 17.04-1.86-4L.47-64.23l-12.76-.76-8.92.43-2.61.13 3.63-.16 8.4.3 11.11 1.45 11.7 2.72 10.43 3.58 7.84 3.61 4.38 2.77.58 1.17-2.61-.77-3.79-2.58-2.6-3.93-1.32-4.48-5.05-3.23-20.77 1.84-58.76 14.4" filter="url(#a)"/><path d="m-12.89-78.23 23.33 4.17 6.41 6.81 2.63 7.76 4.76 5.47 6.92 1.87 6.43-1 4.03-2.15 1.19-2.01-1.65-1.62-4.76-1.73-8.19-2.24-11.19-2.48-12.36-2.17-10.27-1.64-4.79-1.38 1.44-1.12h3.92l4.52 1.47 32.92-1.31" filter="url(#a)"/><path d="m13.46-78.01-5.42 9.07 1.66 5.01-6.77-.7-8.82-.66-5.72 1.34-2.38 2.02-1.92 1.07-3.58-.08-3.81-.28.15.17 7 .24 11.03-.29 7.48.44 6.13 4.92 53.87 10.46" filter="url(#a)"/><path d="m60.52-47.91-60.8-8.53-5.08-1.83 7.83 1.15 6.05.36.83-1.77-3.23-3.39-4.2-3.87-2.46-3.33.33-2.14 2.44-.7 3.05.68 2.28 1.63.84 1.96-.43 1.64-.99.86-.93-.11-.74-.91-.59-1.12.22-.34 2.38 1.42 5.07 3.47 8.97 5.48 42.96 15.07" filter="url(#a)"/></g><g fill="none" stroke="#000"><circle cx="9.484" cy="26.602" r="1.174" filter="url(#a)"/><circle cx="11.172" cy="27.95" r="1.986" filter="url(#a)"/><circle cx="8.288" cy="29.054" r="2.89" filter="url(#a)"/><circle cx="10.8" cy="26.018" r="2.192" filter="url(#a)"/><circle cx="7.948" cy="27.39" r="2.316" filter="url(#a)"/><circle cx="10.116" cy="26.302" r="2.746" filter="url(#a)"/><circle cx="8.36" cy="26.818" r="2.158" filter="url(#a)"/><circle cx="9.704" cy="25.99" r="2.486" filter="url(#a)"/><circle cx="8.548" cy="27.03" r="2.956" filter="url(#a)"/><circle cx="10.196" cy="27.562" r="2.604" filter="url(#a)"/><circle cx="-9.262" cy="31.468" r="1.698" filter="url(#a)"/><circle cx="-10.07" cy="30.64" r="2.696" filter="url(#a)"/><circle cx="-12.046" cy="31.256" r="1.132" filter="url(#a)"/><circle cx="-8.71" cy="31.688" r="2.688" filter="url(#a)"/><circle cx="-12.21" cy="28.5" r="1.174" filter="url(#a)"/><circle cx="-8.878" cy="30.148" r="1.448" filter="url(#a)"/><circle cx="-10.99" cy="29.704" r="1.99" filter="url(#a)"/><circle cx="-10.77" cy="32.244" r="1.014" filter="url(#a)"/><circle cx="-10.99" cy="31.284" r="1.746" filter="url(#a)"/><circle cx="-9.694" cy="28.808" r="2.926" filter="url(#a)"/></g><path fill="#D77F8C" stroke="#000" stroke-linejoin="round" stroke-width="3" d="m-19.64 74.26.18-1.2.19-1.17.19-1.15.21-1.11.21-1.09.23-1.06.23-1.03.25-1 .25-.97.26-.95.26-.91.28-.9.28-.86.29-.83.3-.81.31-.78.31-.76.32-.73.33-.7.33-.67.34-.65.34-.63.35-.59.36-.57.36-.55.36-.52.38-.49.37-.47.38-.44.39-.42.39-.39.39-.37.4-.34.4-.32.4-.29.41-.27.41-.25.41-.22.42-.19.41-.18.42-.15.43-.12.42-.11.43-.08.42-.05.43-.04.43-.01.43.02.43.03.43.06.43.08.43.1.43.12.43.15.43.17.43.19.43.21.42.23.43.26.42.27.42.3.42.31.42.34.41.36.41.38.41.4.41.41.4.44.4.46.4.48.39.5.39.52.38.54.38.55.37.58.37.59.37.62.36.63.35.65.35.67.34.69.34.71.33.72.32.74.32.76.31.78.31.79.29.82.29.83.28.84.27.87.27.88.26.9.25.91.24.93.23.95.22.96.21.98.2 1 .2 1.01-.2-1.01-.2-1-.21-.98-.22-.96-.23-.95-.24-.93-.25-.91-.26-.9-.27-.88-.27-.87-.28-.84-.29-.83-.29-.82-.31-.79-.31-.78-.32-.76-.32-.74-.33-.72-.34-.71-.34-.69-.35-.67-.35-.65-.36-.63-.37-.62-.37-.59-.37-.58-.38-.55-.38-.54-.39-.52-.39-.5-.4-.48-.4-.46-.4-.44-.41-.41-.41-.4-.41-.38-.41-.36-.42-.34-.42-.31-.42-.3-.42-.27-.43-.26L.52 48l-.43-.21-.43-.19-.43-.17-.43-.15-.43-.12-.43-.1-.43-.08-.43-.06-.43-.03-.43-.02-.43.01-.43.04-.42.05-.43.08-.42.11-.43.12-.42.15-.41.18-.42.19-.41.22-.41.25-.41.27-.4.29-.4.32-.4.34-.39.37-.39.39-.39.42-.38.44-.37.47-.38.49-.36.52-.36.55-.36.57-.35.59-.34.63-.34.65-.33.67-.33.7-.32.73-.31.76-.31.78-.3.81-.29.83-.28.86-.28.9-.26.91-.26.95-.25.97-.25 1-.23 1.03-.23 1.06-.21 1.09-.21 1.11-.19 1.15-.19 1.17" filter="url(#a)"/></svg>