<svg xmlns="http://www.w3.org/2000/svg" width="500" height="500" viewBox="-100 -100 200 200"><defs><clipPath id="c"><path d="m35.61 1.67-.18-.25-.2-.25-.24-.26-.28-.26-.31-.26-.34-.26-.38-.26-.42-.26-.46-.26-.49-.25-.53-.25-.57-.25-.61-.24-.65-.23-.68-.23-.52-.33-.6-.33-.66-.3-.74-.3-.81-.27-.87-.26-.94-.25-1-.22-1.07-.21-1.12-.19-1.17-.17-1.22-.15-1.27-.13-1.31-.12-1.35-.09-1.38-.07-1.42-.06-1.43-.04-1.46-.02H7.46l-1.49.01-1.49.04-1.5.04-1.5.07-1.5.07-1.49.09-1.47.11-1.47.12-1.44.13-1.43.14-1.4.15-1.38.16-1.35.17-1.32.18-1.29.19-1.26.19-1.22.2-1.18.2-1.15.21-1.11.21-1.07.21-1.04.22-.99.22-.96.22-.92.22-.89.21-.85.22-.82.22-.79.21-.75.21-.73.21-.69.21-.67.21-.64.2-.61.21-.58.2-.55.19-.53.2-.5.19-.48.19-.45.19-.43.18-.41.18-.39.18 3.07.72.39.13.42.12.43.12.46.12.48.11.5.11.52.11.55.1.57.1.6.09.62.09.64.09.67.08.7.08.72.08.74.08.78.07.8.07.83.07.86.06.89.06.92.06.95.06.98.05 1.01.05 1.04.05 1.06.05 1.1.04 1.12.05 1.14.04 1.17.04 1.2.04 1.21.03 1.23.04 1.25.03 1.26.03 1.28.03 1.28.03 1.3.03 1.3.02 1.3.03 1.3.02 1.3.02 1.3.02 1.28.01 1.28.02 1.26.01 1.24.01 1.23.01h4.64l1.08-.01 1.04-.01 1.01-.01.97-.02.92-.02.88-.03.83-.03.78-.03.74-.05.69-.04.64-.06.71-.06.69-.06.66-.07.64-.07.61-.09.59-.09.56-.1.54-.1.51-.12.48-.13.47-.13.43-.14.42-.16.39-.17.37-.18"/></clipPath><clipPath id="b"><path d="m-33.58 1.23.15-.31.19-.31.21-.31.25-.31.28-.32.32-.31.35-.31.4-.3.43-.31.47-.29.51-.29.54-.28.59-.27.62-.27.67-.25.48-.4.56-.38.63-.36.71-.33.78-.32.85-.28.92-.27.98-.23 1.05-.21 1.1-.19 1.17-.16 1.21-.14 1.26-.1 1.31-.09 1.35-.06 1.38-.03 1.42-.02 1.44.02 1.46.03 1.48.05 1.5.08 1.51.09 1.51.11 1.51.13 1.51.15 1.5.16 1.5.17 1.48.19 1.46.2 1.45.21 1.42.22 1.39.23 1.37.24 1.34.24L15.7-4l1.27.25 1.24.26 1.2.26 1.17.27 1.12.26 1.09.27 1.05.26 1.01.27.97.26.94.26.9.26.86.26.83.25.8.25.76.24.74.24.7.24.68.23.64.23.62.23.59.22.56.21.53.22.51.21.48.2.46.2.43.19.41.19.39.19-4.82 1.02-.48.11-.51.11-.52.1-.54.1-.57.09-.58.09-.61.09-.63.09-.66.08-.67.08-.7.07-.72.08-.74.07-.77.06-.79.07-.82.06-.84.06-.86.06-.9.05-.91.06-.95.05-.97.05-1 .04-1.02.05-1.04.04-1.07.04-1.09.04-1.12.04-1.13.03-1.15.04-1.17.03-1.19.03-1.2.03-1.21.02-1.22.03-1.24.02-1.23.03-1.25.02-1.24.01-1.24.02-1.24.02-1.24.01-1.23.01-1.21.01h-4.72l-1.13-.01-1.11-.01-1.08-.02-1.04-.02-1.02-.02-.98-.03-.95-.04-.91-.04-.87-.05-.83-.06-.79-.06-.75-.07-.7-.08-.66-.09-.62-.1-.57-.11-.65-.11-.63-.13-.61-.14-.59-.15-.56-.16-.54-.17-.52-.19-.51-.21-.48-.22-.46-.24-.44-.25-.43-.27-.4-.29-.4-.31-.37-.33"/></clipPath><filter id="a"><feTurbulence baseFrequency=".05" numOctaves="3" result="noise" type="noise"/><feDisplacementMap in="SourceGraphic" in2="noise" scale="2"/></filter></defs><rect width="100%" height="100%" x="-100" y="-100" fill="#556B2F"/><path fill="olive" stroke="#000" stroke-linejoin="round" stroke-width="1.667" d="m79.28 1.68.22.15-.24.1-.02 1.45-.21 2.77.07 1.68.01.01-.03 1.3-.27 3.18v-.54l.12.21-.87 4.66.23-1.06-.43 2.63-.12-.34-.84 3.43.69-1.41-.6 1.99-.31 1.81-.13-.17-1.03 3.32-.58 1.59-.59 2.75-.32.71-.29.2-.44 1.94-.07-.43-1.38 3.5.21-.28-1.05 1.66.44-.95-.59 2.2-1.42 2.2-.33 1.2-1.19 2.17-.79.89-.94 1.45.82-.75-1.52 2.16-.37.39-1.17 1.95.14.48-1.82 2.21-.53.32.04.38-1.86 2.14.15.1-1.04.98-.62 1.2-2 1.98-.07.25-.67.61-1.29 1.12-1.72 1.88 1.08-1.28-2.99 3.03-1.78 1.6 1.58-1.27-3.43 2.86-.57.44.06.07-1.03.55-.2.05-3.16 2.52-.42.12-.21.5-.53.32-.38-.06-2.93 2.17-.13-.08-.35.41-1.43.71-1.26.54-3.56 1.74.89-.13-.45-.1-1.19.58-3.05 1.31-1.71.73.8-.44-1.41.61-.7.56-2.8.81-1.26.14.66-.18-2.53.62-.23.24.34.02-4.13.85 1.07-.3-3.99.64-.9.15-.98.14-.52.25-1.81.23.45-.01-2.2.02-3.33.19-.54-.07-1.4.09-1.46-.01.22.1-.84-.2-.41.3-2.12-.45-1.25.12-2.3-.17-1.46-.18-1.36-.26-1.78-.17-.36-.11-.78-.14-1.67-.59.2.09-3.56-.74.5.23-2.78-.67 1.44.32-2.32-.74-1.68-.71-1.46-.22-.61-.51-1.32-.52-.3-.15.5.3-3.38-1.48.25.04-1.51-.59-.72-.19-3.08-1.55-1.33-.77-.44-.31-.65-.57-2.57-1.28.35.13-2.63-1.9.48.38-2.93-2.28.41.4-.99-.73-1.59-1.11-.03.1-.71-.55-3.03-2.71 1.36 1.17-3.31-3.13 1.46 1.41-1.93-1.84-.94-.89-2.23-2.77.85 1.11-.69-.44-1.38-1.5-1.55-1.77.49.77-1.93-3.32.67 1.21-1.58-2.02-.39-.87-.97-.6-2.09-3.12 1.18 1.25-1.45-2.3-.81-.83-1.43-2.86-.95-1 .03-.74-.9-.96-1.1-2.68-.21-.54-.33-.61-.36-.88-.71-1.52.14-.27-1.05-2.07.06-.48-.98-2.49-.47-.74-.3-.78-.17-.77-1.13-3.65-.13-.68-.23-1.36-.52-2.06-.36-.34-.04-.57-.17-1.46-.47-1.98.01.97-.31-2.5-.48-2.66.17 1.6-.21-3.34.1.42-.38-3.51-.18-1.2-.24.32.14-3.9.05-.84-.04.85-.03-2.45-.29-2.01.19-.09-.13-2.73.02-1.63.46-1.22-.06-1.33.05-1.64.49-2.28-.14.43.59-2.8-.23.96.51-2.71.13-1.93.23-1.3-.11.09.46-1.8.32-1.36.97-2.88-.02-.71.42-1.2.16-1.22.04.88.31-1.37 2.21-5.26-.85 2.16.44-1.38.54-2.24.98-2.28.31-.85.02.33.15-.41 2.61-4.68.44-.94-.5 1.11.11-.64 1.59-2.26.04-.96 1.41-1.68 1.6-2.46.52-.94.09.32.65-1.23-.05.04 1.95-2.46.47-.71 2.36-2.72-.04-.04 1.65-1.76-1.13.78 1.12-1.46 2.2-1.48-.4-.19 1.33-1.16 1.48-1.12.55-.77 1.58-1.16-.34-.12 1.34-1.03.86-.49 1.94-1.67-.01.08.69-.59 1.54-1.38 1.36-.78.35-.43 2.14-1.38 1.91-.76.95-.67-1.49.77.42-.32 2.14-1.4 1.69-.69.07.05.46-.39 2.87-1.27 1.71-.72-1.15.48 3.27-1.5.17-.06 2.67-1.07 1.36-.47 1.85-.36 1-.25.24.03 1.64-.53 1.33-.62.07.22 3.26-.66.52-.12.6-.23 1.49-.26-.18.23 2.65-.28.74-.03 1.73-.21.79-.2-.13-.21 3.25.13 1.55-.29.5.07 2.82.35-1.95-.38 3.62.24 1.8.4-1.03-.11 1.89-.08 1.87.33-.41-.05 1.13.27 2.05.26 1.31-.04 3.67.96-1.09-.19 2.08.49.09-.25.62.35.91.37 3.45 1.04.98.3.36.26.07-.01 2.09.8.64.27 2.69.74.31.22 2.16 1.04.98.61-.93-.46.92.48 1.22.55.86.26L37.26-77l2.03 1.41 1.28.83 1.99 1.22-1.55-.59 2.19 1.2.56.15 3.22 2.34.3.83 1.26.81.28-.04 1.83 1.8-1.16-1.1 2.76 2.7.72.73.03-.04.11.08 2.82 3.01.37-.12 1.61 1.97 1.32 1.57-.89-.29 2.05 1.96-.79-.23 1 .44.35.75 2.21 3.11.66.44-.04.46 1.16 1.37.1-.14 1.69 3.35 1.31 1.96-.32-.07.63.92.84 1.29.6 1.34.99 1.88.17.51.13.44.21.73.8 1.98 1.08 2.12.17.59.37 1.46.2.63.31.03 1.29 4.8.01.1.1-.6.92 3.22.3 2.38.14.44-.2-.53.45 1.67.83 3.28-.07-.03-.09-.4L79-11.5l-.4-.77.48 2.89-.26.32.04.7.36 1.68-.01 2.27.07-1 .3 1.05-.1 4.91-.2 1.13.22.15" filter="url(#a)"/><path fill="#fff" d="m-33.58 1.23.15-.31.19-.31.21-.31.25-.31.28-.32.32-.31.35-.31.4-.3.43-.31.47-.29.51-.29.54-.28.59-.27.62-.27.67-.25.48-.4.56-.38.63-.36.71-.33.78-.32.85-.28.92-.27.98-.23 1.05-.21 1.1-.19 1.17-.16 1.21-.14 1.26-.1 1.31-.09 1.35-.06 1.38-.03 1.42-.02 1.44.02 1.46.03 1.48.05 1.5.08 1.51.09 1.51.11 1.51.13 1.51.15 1.5.16 1.5.17 1.48.19 1.46.2 1.45.21 1.42.22 1.39.23 1.37.24 1.34.24L15.7-4l1.27.25 1.24.26 1.2.26 1.17.27 1.12.26 1.09.27 1.05.26 1.01.27.97.26.94.26.9.26.86.26.83.25.8.25.76.24.74.24.7.24.68.23.64.23.62.23.59.22.56.21.53.22.51.21.48.2.46.2.43.19.41.19.39.19-4.82 1.02-.48.11-.51.11-.52.1-.54.1-.57.09-.58.09-.61.09-.63.09-.66.08-.67.08-.7.07-.72.08-.74.07-.77.06-.79.07-.82.06-.84.06-.86.06-.9.05-.91.06-.95.05-.97.05-1 .04-1.02.05-1.04.04-1.07.04-1.09.04-1.12.04-1.13.03-1.15.04-1.17.03-1.19.03-1.2.03-1.21.02-1.22.03-1.24.02-1.23.03-1.25.02-1.24.01-1.24.02-1.24.02-1.24.01-1.23.01-1.21.01h-4.72l-1.13-.01-1.11-.01-1.08-.02-1.04-.02-1.02-.02-.98-.03-.95-.04-.91-.04-.87-.05-.83-.06-.79-.06-.75-.07-.7-.08-.66-.09-.62-.1-.57-.11-.65-.11-.63-.13-.61-.14-.59-.15-.56-.16-.54-.17-.52-.19-.51-.21-.48-.22-.46-.24-.44-.25-.43-.27-.4-.29-.4-.31-.37-.33" filter="url(#a)" transform="translate(34.54 -26.8)"/><path fill="#fff" d="m35.61 1.67-.18-.25-.2-.25-.24-.26-.28-.26-.31-.26-.34-.26-.38-.26-.42-.26-.46-.26-.49-.25-.53-.25-.57-.25-.61-.24-.65-.23-.68-.23-.52-.33-.6-.33-.66-.3-.74-.3-.81-.27-.87-.26-.94-.25-1-.22-1.07-.21-1.12-.19-1.17-.17-1.22-.15-1.27-.13-1.31-.12-1.35-.09-1.38-.07-1.42-.06-1.43-.04-1.46-.02H7.46l-1.49.01-1.49.04-1.5.04-1.5.07-1.5.07-1.49.09-1.47.11-1.47.12-1.44.13-1.43.14-1.4.15-1.38.16-1.35.17-1.32.18-1.29.19-1.26.19-1.22.2-1.18.2-1.15.21-1.11.21-1.07.21-1.04.22-.99.22-.96.22-.92.22-.89.21-.85.22-.82.22-.79.21-.75.21-.73.21-.69.21-.67.21-.64.2-.61.21-.58.2-.55.19-.53.2-.5.19-.48.19-.45.19-.43.18-.41.18-.39.18 3.07.72.39.13.42.12.43.12.46.12.48.11.5.11.52.11.55.1.57.1.6.09.62.09.64.09.67.08.7.08.72.08.74.08.78.07.8.07.83.07.86.06.89.06.92.06.95.06.98.05 1.01.05 1.04.05 1.06.05 1.1.04 1.12.05 1.14.04 1.17.04 1.2.04 1.21.03 1.23.04 1.25.03 1.26.03 1.28.03 1.28.03 1.3.03 1.3.02 1.3.03 1.3.02 1.3.02 1.3.02 1.28.01 1.28.02 1.26.01 1.24.01 1.23.01h4.64l1.08-.01 1.04-.01 1.01-.01.97-.02.92-.02.88-.03.83-.03.78-.03.74-.05.69-.04.64-.06.71-.06.69-.06.66-.07.64-.07.61-.09.59-.09.56-.1.54-.1.51-.12.48-.13.47-.13.43-.14.42-.16.39-.17.37-.18" filter="url(#a)" transform="translate(-34.69 -22.86)"/><g fill="none" stroke="#000" transform="translate(34.54 -26.8)"><path stroke-linejoin="round" stroke-width="1.667" d="m-33.92 3.6-.02-.15-.02-.18-.01-.2v-.22l.02-.23.03-.26.05-.27.07-.28.1-.29.12-.29.15-.31.19-.31.21-.31.25-.31.28-.32.32-.31.35-.31.4-.3.43-.31.47-.29.51-.29.54-.28.59-.27.62-.27.67-.25.48-.4.56-.38.63-.36.71-.33.78-.32.85-.28.92-.27.98-.23 1.05-.21 1.1-.19 1.17-.16 1.21-.14 1.26-.1 1.31-.09 1.35-.06 1.38-.03 1.42-.02 1.44.02 1.46.03 1.48.05 1.5.08 1.51.09 1.51.11 1.51.13 1.51.15 1.5.16 1.5.17 1.48.19 1.46.2 1.45.21 1.42.22 1.39.23 1.37.24 1.34.24L15.7-4l1.27.25 1.24.26 1.2.26 1.17.27 1.12.26 1.09.27 1.05.26 1.01.27.97.26.94.26.9.26.86.26.83.25.8.25.76.24.74.24.7.24.68.23.64.23.62.23.59.22.56.21.53.22.51.21.48.2.46.2.43.19.41.19.39.19.37.18.35.17.32.17.31.17.29.16.27.16.26.15.24.15.22.14.21.14" filter="url(#a)"/><path stroke-linejoin="round" stroke-width="2.222" d="m-37.23-2.47.31.59.31.57.31.53.31.51.32.47.32.45.33.43.34.4.35.37.37.36.37.33.4.31.4.29.43.27.44.25.46.24.48.22.51.21.52.19.54.17.56.16.59.15.61.14.63.13.65.11.57.11.62.1.66.09.7.08.75.07.79.06.83.06.87.05.91.04.95.04.98.03 1.02.02 1.04.02 1.08.02 1.11.01 1.13.01h4.72l1.21-.01 1.23-.01 1.24-.01 1.24-.02 1.24-.02 1.24-.01 1.25-.02 1.23-.03 1.24-.02 1.22-.03 1.21-.02 1.2-.03 1.19-.03 1.17-.03 1.15-.04 1.13-.03 1.12-.04 1.09-.04 1.07-.04 1.04-.04 1.02-.05 1-.04.97-.05.95-.05.91-.06.9-.05.86-.06.84-.06.82-.06.79-.07.77-.06.74-.07.72-.08.7-.07.67-.08.66-.08.63-.09.61-.09.58-.09.57-.09.54-.1.52-.1.51-.11.48-.11.46-.11.44-.11.42-.12.4-.12.38-.13.37-.12.34-.13.33-.14.32-.13.29-.14" filter="url(#a)"/><circle cx="-14.085" cy="1.07" r="3.15" clip-path="url(#b)" filter="url(#a)"/><circle cx="-16.27" cy="1.71" r="3.984" clip-path="url(#b)" filter="url(#a)"/><circle cx="-14.795" cy=".23" r="4.55" clip-path="url(#b)" filter="url(#a)"/><circle cx="-16.22" cy="1.02" r="4.948" clip-path="url(#b)" filter="url(#a)"/><circle cx="-15.855" cy=".335" r="3.354" clip-path="url(#b)" filter="url(#a)"/><circle cx="-16.95" cy=".01" r="3.504" clip-path="url(#b)" filter="url(#a)"/><circle cx="-17.12" cy=".86" r="4.308" clip-path="url(#b)" filter="url(#a)"/><circle cx="-18.32" cy="-.515" r="4.746" clip-path="url(#b)" filter="url(#a)"/><circle cx="-17.255" cy="2.365" r="3.534" clip-path="url(#b)" filter="url(#a)"/><circle cx="-17.39" cy="-.41" r="3.96" clip-path="url(#b)" filter="url(#a)"/></g><g fill="none" stroke="#000" transform="translate(-34.69 -22.86)"><path stroke-linejoin="round" stroke-width="2.222" d="m36.12 3.59.01-.13.01-.14v-.16l-.02-.17-.03-.19-.05-.21-.07-.21-.09-.23-.12-.24-.15-.24-.18-.25-.2-.25-.24-.26-.28-.26-.31-.26-.34-.26-.38-.26-.42-.26-.46-.26-.49-.25-.53-.25-.57-.25-.61-.24-.65-.23-.68-.23-.52-.33-.6-.33-.66-.3-.74-.3-.81-.27-.87-.26-.94-.25-1-.22-1.07-.21-1.12-.19-1.17-.17-1.22-.15-1.27-.13-1.31-.12-1.35-.09-1.38-.07-1.42-.06-1.43-.04-1.46-.02H7.46l-1.49.01-1.49.04-1.5.04-1.5.07-1.5.07-1.49.09-1.47.11-1.47.12-1.44.13-1.43.14-1.4.15-1.38.16-1.35.17-1.32.18-1.29.19-1.26.19-1.22.2-1.18.2-1.15.21-1.11.21-1.07.21-1.04.22-.99.22-.96.22-.92.22-.89.21-.85.22-.82.22-.79.21-.75.21-.73.21-.69.21-.67.21-.64.2-.61.21-.58.2-.55.19-.53.2-.5.19-.48.19-.45.19-.43.18-.41.18-.39.18-.37.17-.34.17-.33.16-.31.16-.29.16-.27.16-.25.15-.24.14-.23.14-.21.14" filter="url(#a)"/><path stroke-linejoin="round" stroke-width="2.222" d="m37.89 1.04-.23.33-.23.3-.25.29-.25.28-.27.25-.28.25-.29.23-.31.21-.33.2-.35.19-.37.18-.39.17-.42.16-.43.14-.47.13-.48.13-.51.12-.54.1-.56.1-.59.09-.61.09-.64.07-.66.07-.69.06-.71.06-.64.06-.69.04-.74.05-.78.03-.83.03-.88.03-.92.02-.97.02-1.01.01-1.04.01-1.08.01h-4.64l-1.23-.01-1.24-.01-1.26-.01L7.8 5.5l-1.28-.01-1.3-.02-1.3-.02-1.3-.02-1.3-.03-1.3-.02-1.3-.03-1.28-.03-1.28-.03-1.26-.03-1.25-.03-1.23-.04-1.21-.03-1.2-.04-1.17-.04-1.14-.04-1.12-.05-1.1-.04-1.06-.05-1.04-.05-1.01-.05-.98-.05-.95-.06-.92-.06-.89-.06-.86-.06-.83-.07-.8-.07-.78-.07-.74-.08-.72-.08-.7-.08-.67-.08-.64-.09-.62-.09-.6-.09-.57-.1-.55-.1-.52-.11-.5-.11-.48-.11-.46-.12-.43-.12-.42-.12-.39-.13-.37-.13-.36-.14-.33-.14-.31-.14-.3-.15-.28-.15-.26-.15-.25-.16-.23-.16-.21-.16" filter="url(#a)"/><circle cx="-8.377" cy="3.655" r="3.66" clip-path="url(#c)" filter="url(#a)"/><circle cx="-6.017" cy="3.325" r="3.308" clip-path="url(#c)" filter="url(#a)"/><circle cx="-4.632" cy="3.51" r="3.738" clip-path="url(#c)" filter="url(#a)"/><circle cx="-6.762" cy="1.295" r="3.63" clip-path="url(#c)" filter="url(#a)"/><circle cx="-8.647" cy="4.165" r="4.688" clip-path="url(#c)" filter="url(#a)"/><circle cx="-4.987" cy="3.62" r="4.9" clip-path="url(#c)" filter="url(#a)"/><circle cx="-5.112" cy="5.16" r="3.01" clip-path="url(#c)" filter="url(#a)"/><circle cx="-4.852" cy="3.055" r="4.876" clip-path="url(#c)" filter="url(#a)"/><circle cx="-5.537" cy=".825" r="3.5" clip-path="url(#c)" filter="url(#a)"/><circle cx="-6.387" cy="4.825" r="4.848" clip-path="url(#c)" filter="url(#a)"/></g><g fill="none" stroke="#000" stroke-linejoin="round" stroke-width="2"><path d="m53-64.75.74.78 1.01 1.14.73 1 .34.79-.08.56-.47.32-.82.11-1.13-.04-1.41-.16-1.7-.25-2.03-.36-2.38-.5-2.78-.68-3.2-.85-3.62-1.04-4.07-1.25-4.53-1.48-5.01-1.74-5.55-2.01-6.12-2.27-6.71-2.51-7.28-2.75-7.86-2.97" filter="url(#a)"/><path d="m24.48-82.54 1.49.61.95.5.49.48-.07.48-.71.44-1.38.39-2.02.36-2.57.36-3.09.42-3.59.5-4.15.56-4.79.59-5.5.54-6.24.42-7.05.27-8.02.25-9.28.43m-6.87-1.5 1.85-1.07 1.48-.72 1.4-.62 1.51-.65 1.62-.68 1.63-.68 1.58-.65 1.5-.61 1.38-.55 1.23-.48 1-.36.67-.23.27-.09-.22.05-.76.22-1.36.42-1.88.63" filter="url(#a)"/><path d="m59.6-56.8.79.63.67.99.46.95.14.71-.19.5-.47.35-.75.24-1.06.1-1.4-.09-1.77-.33-2.19-.59-2.6-.85-3.02-1.1-3.47-1.35-3.9-1.61-4.36-1.88-4.8-2.13-5.25-2.38-5.71-2.66-6.15-2.96-6.61-3.3-7.15-3.62-7.91-3.87M48.54-68.8l.52.33.5.49.39.47.21.38-.05.2-.38-.01-.73-.21-1.08-.42-1.51-.66-2-.98-2.59-1.38-3.29-1.84-4.1-2.37-4.94-2.91-5.59-3.4" filter="url(#a)"/><path d="m39.29-75.59 1.29.88 1.1.86 1.13.94 1.36 1.14 1.59 1.34 1.68 1.45 1.64 1.46 1.52 1.37 1.37 1.28 1.26 1.18 1.13 1.09 1.02.99.87.85.73.69.59.57.5.46.37.32.2.11-.06-.26" filter="url(#a)"/><path d="m56.3-61.78 1.19 1.57.46.96-.03.56-.37.3-.67.16-.92.08-1.21.01-1.54-.09-1.93-.26-2.37-.44-2.83-.64-3.3-.85-3.79-1.05-4.31-1.3-4.87-1.59-5.48-1.88-6.1-2.16-6.69-2.44-7.28-2.73-7.84-3.05-8.34-3.44m1.08-5.97 2.13-.1 1.87.12 1.95.3 2.18.46 2.49.64 2.78.8 3 .93 3.13 1.06 3.22 1.17 3.29 1.26 3.37 1.35 3.41 1.39 3.44 1.44 3.46 1.47 3.48 1.52 3.53 1.57 3.59 1.62 3.62 1.61 3.56 1.53L50-64.52l2.99 1.24" filter="url(#a)"/><path d="m69.19-42.92.51 1.25.16.88-.25.47-.57.24-.85.1-1.15-.05-1.5-.27-1.89-.55-2.31-.86-2.76-1.17-3.22-1.47-3.69-1.77-4.17-2.1-4.68-2.46-5.2-2.85-5.75-3.27-6.3-3.72-6.85-4.18-7.35-4.61-7.8-4.99-8.22-5.42" filter="url(#a)"/><path d="m-37.8-76.22.51-.22.77-.02 1.58-.13 2.31-.2 2.83-.18 3.22-.14 3.56-.08 3.87-.03 4.13.02 4.38.08 4.61.13 4.81.19 4.97.26 5.06.32 5.09.4 5.03.44 4.9.41 4.7.32 4.45.21 4.2.17m-80.74 1.4 1.1-.69 1.13-.73 1.12-.68.89-.51.57-.31.31-.16.19-.05.1.03v.14l-.16.29-.37.48-.66.7-.98.94-1.36 1.21-1.74 1.48-2.11 1.77-2.48 2.03-2.84 2.29-3.32 2.59" filter="url(#a)"/><path d="m-38.34-76.12.91-.59 1.21-.69 1.07-.56.94-.44.85-.36.78-.29.66-.2.53-.09.38.03.2.18-.01.34-.29.55-.6.75-.95.97-1.29 1.19-1.64 1.41-1.98 1.63-2.36 1.91-2.79 2.25-3.28 2.61-3.8 2.98-4.23 3.26-4.52 3.42" filter="url(#a)"/><path d="m-43.56-72.87 1.33-.74 1.8-.88 2.27-.97 2.47-.94 2.52-.86 2.63-.85 2.84-.9 3.09-.98 3.27-1.06 3.35-1.07 3.35-1.07 3.25-1.05 2.96-.99 2.28-.87m4.34-.73 1.19-.13.88.07.65.15.44.22.21.29-.05.35-.38.43-.74.5-1.09.6-1.47.73-1.85.86-2.23 1.01-2.66 1.15-3.17 1.28-3.74 1.41-4.38 1.52-5.02 1.66-5.62 1.82-6.12 1.95-6.61 2.08" filter="url(#a)"/><path d="M33.35-78.86 8.21-74.95l.36 10.78 16.25 8.2 12.5 2.03 1.16-4.25-8.17-7.62-12.18-7.25-11.37-4.32-7.73-.72-3.77 2.19-1.64 4.14-.9 5.69 2.15 6.84 3.84 3.72-44.49-15.46" filter="url(#a)"/><path d="m68.04-45.06-27.39-15.4-12.68-3.24-3.05.72-3.5.53-3.04.19.9.58 5.14 1.09 6.57 1.11 4.59.42.39-.75-4.18-2.05-7.55-3.15-8.62-3.66-7.01-3.3-3.15-1.92 1.58.1 5.12 1.65 5.2 1.32.81-1.57-4.77-5.19-1.92-5.35 11.59-.16" filter="url(#a)"/><path d="m-57.96-59.35 56.51.03 6.07-3.78-7.44-2.7-11.43-1.66-7.55-1.41.81-1.45 8.23-1.17L-2-71.93l7.81.19 1.9.11-3.45-.56-6.26-.86-7.3.03-6.47 1.28 6.46.62 53.07-1.66" filter="url(#a)"/><path d="m-7.45-86.34 15.07 1.96 5.16 5.21-.41 7.19.61 6.44.91 3.53-1.78.23-3.36-1.76-.37-1.82 5.4-.52 8.61.55 6.23-.03 1.3-1.91.63-1.84 8.72 5.76 33.9 29.43" filter="url(#a)"/><path d="m27.21-81.47 13.58 21.29-16.57-4.79-15.47-6.78-8.27-4.74-3.02-2.71-.29-.68 1.32 1.47 3.39 3.25 6.58 4.04 9.98 3.83 11.71 3.33 10.07 2.9 4.08 1.24-5.69-3.54-11.32-8.75 16.47-.67" filter="url(#a)"/><path d="M65.04-50.37 41.93-60.3l-18.33.5-16.42-3.01L.4-67.2l2.99-2.97 9.35-.18 12.04 2.62 11.33 4.18 7.69 3.92 2.09 2.26-3.94.27-8.78-1.08-11.35-1.49-11.35-1.2-9.1-.24-4 2.44 9.89 8.99 66.65 18.44" filter="url(#a)"/><path d="M52.97-64.71 7.28-74.85l-1.75-1.1 5.9 4.24 1.07 4.37-2.25 2.55-1.98.99-1.23.09-1.76-.35-2.45-.49-1.47-.53 1.5-.77 4.53-1.48 3.94-3.11-2.46-5.89-8.68-7.44-2-3.06" filter="url(#a)"/><path d="m-45.1-71.49 28.97-.75 14.84 7.08 9.76 3.66-.45-1.1-6.83-3.67-6.87-3.6-3.58-1.87-.52.1.56 1.21-.07 1.11-1 .12-.86-1.15.58-2.15 2.31-2.58 3.29-2.11 3.75-.49 4.85 2.21 6.2 5.09 4.57 6.18 2.48 3.71L59.6-56.8" filter="url(#a)"/><path d="m-39.71-75.46 43.64 5.18 26.57 7.9 10.04 1.92.95-1.39-2.64-2.35-3.15-2.24-2.77-1.87-3.34-1.51-5.57-1.19-8.81-.88-11.54-.63-12.31-.45-10.57-.13-6.77.68-1.8 2.21 3.7 4.23 8.99 5.93 12.95 6.24 15.34 3.84 18.25-3.64 1.9-25.25" filter="url(#a)"/><path d="m-13.27-85.65-10.07 11.99 3.87 1.77 3.22 1.92 8.91 3.12 13.95 3.18 13.05 1.84 7.36-.21.75-1.87-3.7-2.43-5.38-1.95-5.54-1.1-5.7-.64-6.43-.82L-6-72.26l-6.36-1.88-4.02-1.85-.81-1.24 1.63-.31 2.2.59 2.31 1.31 7.53 2.17 24.46 4.89L63.78-51.6" filter="url(#a)"/><path d="M73.91-31.24 55.58-49.72l-21.29-8.51-11.39-3.04-2.87-2.21 2.17-1.35 5.19.95 6.24 3.36 4.92 4.3 1.8 3.37-1.78 1.23-4.91-1.2L26.21-56l-9.48-4.27L6.3-64.51l-9.03-3-4.38-.8 2.64 1.73 8.76 3.55 9.47 3.26 2.73-.06-4.91-4.65 5.1-3.28 47.1 16.16" filter="url(#a)"/><path d="m-45.78-70.98 56.6 13.16 11.48-5.26 4.78-5.94 1.76-3.77-2.06-1.35-5.56.65-6.67 1.92-4.32 2.31.03 1.89 2.97.84 1.7-.55-3.55-1.75-9.5-2.39-12.24-2.34-10.49-1.75-6.91-.61-4.9.86h-.76L-12.15-86" filter="url(#a)"/><path d="M43.76-72.78 9.75-77.65l3.26 2.83 10.52 5.51 8.33 5.16 2.99 3.37-3.52 1.36-9.09-.02-11.72-.61-10.45-.7-5.99-.71-.23-.87 4.76-1.21 7.61-1.62 7.81-1.97 5.58-2.19 1.84-2.37-1.72-2.37L16.71-76l-.88-.92 2.97.06 2.98-.61-5.98-4L3.06-86.7" filter="url(#a)"/><path d="m72.09-36.04-17.7-12.21-20.17-16.62-9.61-9.86-1.99-4.05 1.61-.68 2.69 1.28 2.04 2.53-.41 2.93-4.56 2.08-8.67.1-9.69-2.05-5.46-3.14 2.88-2.26 10.4.66 10.32 4.35-5.73 4.87-55.84-8.11" filter="url(#a)"/><path d="m71.08-38.75-26.26-10.8L8.84-60.89l-19.26-6.75-2.55-3.58 6.67-1.24 9.23.52 7.61 1.48 3.65 1.58-1.4 1.05-6.17.27-9.14-.33-9.08-.56-5.75-.47-.17-.3 5.75-.19 9.86-.2 10.85-.25 8.95-.3 5.75-.33 3.4-.09 3.12.93 4.03 2.73 1.21 1.62-26.14-21" filter="url(#a)"/><path d="m52.97-64.71-31.18-6.13-9.36 2.07 6.36 1.05 9.95.1 7.9.12 4.36.11 1.51-.02.19.23-.19 1.06-.93 1.83-2.83 1.58-5.07-.17-5.72-2.73-3.65-4.51-.75-4.39-1.91-3.35-11.1-3.94-22.7-4.2m11.89-1.12 2.66.25 2.13.16 2.14.19 2.27.24 2.37.3 2.36.38 2.32.47 2.33.55 2.4.63 2.54.71 2.72.78 2.87.85 2.96.9 2.95.98 2.91 1.05 2.83 1.17 2.79 1.27 2.78 1.4 2.8 1.49 2.87 1.57 2.94 1.61 3 1.62 3 1.62 2.97 1.63 3.01 1.69 3.16 1.78 2.96 1.8 1.64 1.5" filter="url(#a)"/><path d="m-7.45-86.34 2.43-.29 2.4-.16 2.4-.04 2.47.06 2.61.15 2.76.24 2.96.32 3.13.39 3.31.46 3.51.53 3.71.59 3.91.66 4.02.71 4.02.77 3.91.81 3.78.86 3.77.91 3.97.99 4.4 1.08 4.94 1.2 5.4 1.32 5.6 1.42 5.42 1.5 5 1.55 4.65 1.54 4.93 1.64 6.94 2.42" filter="url(#a)"/><path d="m-8.19-86.31 1.4-.26 2.59-.18 2.92-.06 2.8.04 2.57.12 2.43.19 2.39.24 2.46.31 2.62.39 2.83.46 3.04.55 3.19.63 3.26.71 3.22.79 3.11.85 2.96.92 2.85 1 2.83 1.09 2.96 1.19 3.22 1.29 3.53 1.4 3.8 1.48 3.91 1.55 3.84 1.6 3.58 1.63 3.26 1.66 2.99 1.67 2.82 1.69 2.75 1.71 2.7 1.73 2.7 1.76 2.87 1.82 3.28 1.95 3.75 2.18 3.78 2.43 3.98 2.76" filter="url(#a)"/><path d="m-10.84-86.03 2.6-.31 2.54-.24 2.76-.16 2.88-.04 2.89.06 2.8.15 2.7.24 2.66.33 2.68.4 2.79.47 2.91.55 3.04.6 3.12.67 3.14.73 3.12.78 3.03.84 2.95.9 2.88.97 2.89 1.05 3.03 1.15 3.32 1.23 3.71 1.33 4.16 1.42 4.55 1.5 4.78 1.56 4.8 1.63 4.62 1.7 4.29 1.78 3.94 1.87 3.65 1.95 3.5 1.98 3.54 1.96 3.74 1.93 4.06 1.9 4.45 1.97 4.81 2.35 5.09 3.77" filter="url(#a)"/><path d="m-16.6-85.21 2.49-.37 1.95-.28 2.05-.24 2.26-.22 2.42-.19 2.5-.13 2.54-.05 2.6.03 2.65.13 2.71.21 2.77.3 2.83.37 2.91.45 3 .51 3.11.58 3.24.64 3.37.71 3.5.75 3.59.81 3.65.85 3.63.91 3.59.98 3.51 1.07 3.47 1.19 3.49 1.31 3.65 1.43 4 1.52 4.44 1.56 4.69 1.36 4.6.88m-.62 51.66.28 3.78-1.61 2.63-2.68 2.33-2.18 2.35-1.22 2.45-.79 2.55-1.14 2.58-1.98 2.57-2.91 2.52-3.68 2.47-4.1 2.45-4.09 2.45-3.63 2.5-2.83 2.57-1.88 2.62-.97 2.65-.35 2.61-.17 2.54-.47 2.45-1.19 2.39-2.04 2.4-2.75 2.45-3.12 2.51-3.26 2.5-3.4 2.41-3.73 2.25-4.15 2.09-4.33 1.89-3.15 1.31" filter="url(#a)"/><path d="m-24.02-83.01 1.91-.66 1.16-.6 1.75-.56 2.34-.48 2.58-.38 2.64-.31 2.65-.25 2.69-.2 2.71-.14 2.76-.07 2.8.01 2.91.09 3.04.18 3.23.26 3.45.34 3.66.42 3.81.48 3.85.55 3.8.61 3.7.68 3.66.75 3.77.82 4.08.85 4.25.81 3.17.49" filter="url(#a)"/><path d="m-35.78-77.84 1.7-.87 1.57-1 1.82-1.02 2.28-1.01 2.57-.93 2.62-.82 2.49-.7 2.35-.6 2.28-.5 2.32-.41 2.46-.34 2.66-.26 2.9-.18 3.13-.11 3.31-.02 3.48.04 3.63.12 3.78.18 3.94.25 4.1.32 4.2.39 4.23.48 4.22.56 4.19.65 4.25.72 4.56.81 5.2.87 6.05.95 6.19.91 3.44.52" filter="url(#a)"/><path d="m-36.85-76.89.29-.3 1.58-.94 2.2-1.11 2.51-1.13 2.6-1.05 2.53-.96 2.41-.83 2.31-.72 2.25-.61 2.24-.52 2.27-.43 2.34-.36 2.42-.28 2.49-.22 2.54-.15 2.58-.08 2.6-.01 2.61.08 2.62.16 2.66.25 2.71.32 2.76.41 2.8.47 2.83.55 2.85.61 2.85.68 2.86.75 2.89.82 2.91.86 2.65.81 1.29.5" filter="url(#a)"/><path d="m-36.85-76.89-.08-.3 1.79-.94 2.29-1.11 2.4-1.12 2.41-1.06 2.41-.95 2.41-.84 2.39-.72 2.34-.61 2.32-.52 2.32-.43 2.38-.36 2.46-.28 2.55-.22 2.64-.16 2.72-.09h2.79l2.9.07 3.04.16 3.23.24 3.43.33 3.6.4 3.67.47 3.61.54 3.47.6 3.35.68 3.4.76 3.66.83 4.06.94 3.9 1.11" filter="url(#a)"/><path d="m-41.85-74.08.09-1.44 1.68-1.01 1.36-.99 1.23-1 1.72-1.02 2.33-1.02 2.66-.98 2.58-.93 2.32-.83 2.11-.74 2.13-.62 2.4-.54 2.77-.45 3.11-.37 3.34-.29 3.44-.22 3.48-.14 3.47-.06 3.44.01 3.36.09 3.31.15 3.43.19 3.83.22 5.21.21" filter="url(#a)"/><path d="m-43.56-72.87 2.09-1.32 1.97-1.22 1.76-1.08 1.8-1.04 1.98-1.03 2.18-1.02 2.38-1.02 2.51-.97 2.58-.9 2.57-.82 2.54-.72 2.5-.62 2.45-.53 2.42-.43 2.42-.36 2.43-.27 2.44-.19 2.44-.11 2.42-.03 2.4.04 2.36.11 2.34.18 2.33.25 2.33.32 2.35.4 2.38.49 2.39.56 2.41.65 2.42.73 2.44.8 2.43.85 2.4.89 2.27.91 2.13.92 2.26 1.09 3.16 1.77" filter="url(#a)"/><path d="m-49.58-67.67 1.41-1.33 1.75-1.43 1.85-1.43 1.86-1.4 1.79-1.31 1.74-1.2 1.79-1.12 1.92-1.07 2.13-1.06 2.31-1.06 2.43-1.01 2.5-.96 2.5-.87 2.47-.77 2.42-.67 2.35-.57 2.32-.48 2.29-.39 2.32-.32 2.38-.27 2.44-.21 2.49-.16 2.52-.07 2.6.03 2.76.13 2.12.04" filter="url(#a)"/><path d="m-53.19-64.62 1.75-1.64 1.55-1.5 1.35-1.51 1.26-1.51 1.36-1.47 1.57-1.39 1.75-1.29 1.86-1.19 1.88-1.12 1.93-1.07 2-1.04 2.13-1.02 2.29-.97 2.41-.92 2.52-.84 2.6-.76 2.67-.66 2.74-.57 2.79-.47 2.83-.39 2.87-.31 2.92-.23 2.98-.16 3.04-.07 3.02.01 2.94.08 2.83.15 2.81.19 2.94.22 3.45.21m59.13 64.99 2.1 1.92 5.01 2.83 4.17 2.9 1.95 2.69.22 2.52-.39 2.46.07 2.49 1.21 2.54 2.39 2.56 3.05 2.55 2.86 2.53 1.9 2.48.56 2.46-.64 2.46-1.28 2.5-1.25 2.57-.62 2.63.34 2.64 1.39 2.62 2.24 2.55 2.72 2.45 2.71 2.39 2.22 2.39 1.35 2.46.34 2.53-.47 2.55-.79 2.43-.37 2.26.3 2.18.09 2.42M-68.55-44.25l2.42 1.18.37 2.3-1.45 2.45-1.63 2.51-1.03 2.49-.31 2.46.28 2.44.79 2.45 1.3 2.5 1.84 2.54 2.29 2.58 2.51 2.58 2.41 2.59 2.03 2.59 1.52 2.61 1.04 2.63.74 2.67.74 2.71 1.01 2.73 1.44 2.73 1.89 2.71 2.18 2.63 2.31 2.52 2.38 2.37 2.7 2.28 3.4 2.28 4.31 2.42 4.76 2.68 3.81 2.87.61 2.32" filter="url(#a)"/><path d="m-68.6-43.78-2.89 3.65-2.12 2.63-1.67 2.46-2.23 2.46-3.1 2.48-3.43 2.5-3.01 2.5-2.18 2.51-1.39 2.54-.95 2.57-.9 2.62-1.17 2.69-1.61 2.73-2.05 2.78-2.33 2.77-2.38 2.76-2.19 2.72-1.81 2.66-1.36 2.62-.97 2.58-.7 2.55-.61 2.52-.66 2.48-.76 2.45-.85 2.44-.82 2.45-.62 2.48-.29 2.5-.04 2.5-.07 2.44-.33 2.33-.34 2.21.39 2.22 1.52 2.79" filter="url(#a)"/><path d="m-73.21-33.65-8.72 1.26-9.17 2.52-4.13 2.52.81 2.5 2.25 2.51 1.11 2.54-.65 2.57-1.83 2.63-2.24 2.7-2.24 2.76-2.32 2.79-2.75 2.79-3.44 2.76-4.19 2.72-4.68 2.66-4.73 2.62-4.32 2.58-3.49 2.54-2.39 2.52-1.13 2.49.11 2.47 1.16 2.46 1.82 2.46 1.95 2.47 1.55 2.46.77 2.44-.15 2.42-.94 2.38-1.48 2.35-1.63 2.35-1.33 2.37-.47 2.42.68 2.48 1.47 2.54 1.07 2.62-.06 2.63.76 2.36m201.7-85.32.94 2.5 1.32 2.42 1.86 2.56 1.9 2.71 1.65 2.73 1.7 2.65 2.26 2.57 3.1 2.52 3.76 2.53 3.98 2.54 3.64 2.56 2.92 2.55 2.05 2.53 1.33 2.49.94 2.49.92 2.49 1.14 2.52 1.42 2.58 1.55 2.62 1.44 2.63 1.13 2.6.81 2.55.66 2.48.87 2.44 1.4 2.42 2.02 2.46 2.31 2.49 1.87 2.48.74 2.4-.59 2.26-1.25 2.08-.61 1.92 1.19 1.75 3.5 1.82" filter="url(#a)"/><path d="m74.22-31.21 2.48 3.97 1.61 3.02 1.52 2.68 1.11 2.66.67 2.7.61 2.71 1.02 2.64 1.74 2.58 2.47 2.54 2.98 2.54 3.23 2.54 3.28 2.56 3.2 2.55 2.99 2.53 2.67 2.5 2.19 2.49 1.58 2.49.89 2.53.24 2.58-.28 2.61-.6 2.63-.7 2.61-.61 2.55-.38 2.49-.12 2.43.06 2.43.14 2.46.2 2.49.34 2.49.58 2.4.75 2.26.51 2.09-.22 1.92-.95 1.75-.9 1.82M53.11-64.67l3.74 2.84 3.78 2.45 3.26 2.07 2.52 1.93 1.86 1.95 1.44 2.06 1.34 2.17 1.48 2.24 1.76 2.29 2.1 2.3 2.45 2.31 2.73 2.33 2.86 2.37 2.83 2.42 2.64 2.48 2.36 2.54 2.11 2.59 1.93 2.64 1.86 2.66 1.8 2.67 1.72 2.67 1.58 2.64 1.46 2.61 1.43 2.57 1.59 2.56 1.88 2.55L111.8.82l2.31 2.59 2.27 2.58 2.23 2.52 2.32 2.43 2.45 2.32 2.14 2.26 1.03 2.26-.3 2.12m-75.6-86.94-.22 1.43-.06 1.61-.09 1.76-.71 1.79-.76 1.79-.15 1.87.52 1.97.75 2.11.49 2.2-.02 2.26-.46 2.28-.72 2.29-.78 2.29-.81 2.31-.9 2.34-1.13 2.38-1.53 2.43-2.08 2.47-2.72 2.48-3.35 2.49L32.13-22l-3.93 2.49L24.55-17l-2.99 2.56-2.02 2.62-.97 2.68-.25 2.75-.42 2.79-1.75 2.77-3.7 2.46-4.5 1.75" filter="url(#a)"/><path d="m46.98-70.44 1.85 1.6 2.48 1.56 2.54 1.58 2.08 1.65 1.58 1.71 1.34 1.75 1.34 1.79 1.47 1.86 1.65 1.97 1.84 2.07 2.01 2.17 2.15 2.24 2.25 2.27 2.26 2.27 2.21 2.28 2.07 2.28 1.88 2.32 1.69 2.36 1.51 2.42 1.35 2.47 1.21 2.5 1.05 2.49.94 2.46.9 2.42 1.05 2.4 1.39 2.49 1.88 2.79 2.14 3.21" filter="url(#a)"/><path d="m42.56-73.54 4.31 1.16 3.29 1.62 2.54 1.68 2.35 1.65 2.16 1.64 1.97 1.67 1.96 1.71 2.17 1.75 2.47 1.8 2.72 1.87 2.79 1.97 2.64 2.07 2.37 2.16 2.14 2.22 2.08 2.27 2.16 2.27 2.3 2.28 2.36 2.3 2.29 2.32 2.12 2.37 1.93 2.42 1.79 2.48 1.78 2.5 1.87 2.49 2.05 2.47 2.21 2.43 2.2 2.41 2.14 2.49 2.7 2.8 4.36 3.21" filter="url(#a)"/><path d="m40.57-74.76 1.33.97 2.46 1.49 2.74 1.61 2.58 1.61 2.45 1.65 2.47 1.73 2.62 1.84 2.74 1.93 2.78 1.97 2.68 1.98 2.47 1.99 2.24 2.01 2.03 2.06 1.9 2.11 1.84 2.19 1.81 2.23 1.78 2.26 1.73 2.27 1.68 2.28 1.63 2.3 1.57 2.35 1.47 2.42 1.34 2.5 1.25 2.59 1.36 2.6 1.71 2.48 2.04 2.29 1.84 2.57" filter="url(#a)"/><path d="m27.21-81.47 2.99 1.03 2.6.98 2.28 1.02 2.36 1.2 2.67 1.38 3.01 1.51 3.23 1.59 3.23 1.61 3.05 1.63 2.77 1.63 2.52 1.64 2.36 1.66 2.32 1.68 2.33 1.71 2.28 1.75 2.18 1.8 1.97 1.88 1.8 2.01 1.72 2.13 1.87 2.24 2.27 2.31 2.76 2.31 2.95 2.28 2.56 2.16 1.87 1.58" filter="url(#a)"/><path d="m27.21-81.47 3.73 1.03 3.42.99 3.45 1.03 3.87 1.2 4.14 1.39 4.03 1.52 3.58 1.58 3 1.62 2.48 1.63 2.23 1.64 2.28 1.65 2.63 1.67 3.2 1.69 3.86 1.72 4.48 1.77 4.99 1.82 5.27 1.91 5.29 2.02 5.03 2.14 4.53 2.22 4 2.28 3.71 2.29 3.83 2.25 4.2 2.2 4.22 2.16 3.41 2.23 2.1 2.49" filter="url(#a)"/><path d="m24.48-82.54 3.31 1.03 2.7 1.01 2.4 1 2.3 1.06 2.35 1.21L40-75.87l2.59 1.49 2.73 1.56 2.84 1.61 2.98 1.62 3.13 1.63 3.31 1.64 3.49 1.66 3.66 1.68 3.78 1.71 3.9 1.74 4.06 1.78 4.31 1.87 4.61 2 4.78 2.13 4.73 2.26 4.62 2.32 5.04 2.33 6.2 2.4 5.31 2.74" filter="url(#a)"/></g><path fill="none" stroke="#000" stroke-linejoin="round" stroke-width="3" d="M-11.03 34.38Q13.14 51.045 1.055-5.254" filter="url(#a)"/><path fill="#D77F8C" stroke="#000" stroke-linejoin="round" stroke-width="3" d="m-32.68 64.25.66-.44.65-.45.64-.45.65-.46.64-.46.65-.46.64-.47.63-.46.64-.47.64-.47.63-.47.63-.47.63-.47.63-.47.63-.47.62-.47.63-.46.62-.47.63-.46.62-.46.62-.46.62-.45.62-.45.62-.44.62-.44.62-.44.62-.43.62-.43.62-.41.62-.42.62-.4.62-.4.62-.39.62-.39.62-.37.63-.37.62-.36.62-.34.63-.34.62-.33.63-.32.63-.31.62-.29.63-.29.64-.27.63-.26.63-.25.64-.23.64-.23.64-.2.64-.2.64-.17.65-.17.65-.15.65-.13.65-.12.66-.1.65-.08.66-.07.67-.05.66-.03.67-.01.68.01.67.02.68.05.68.06.69.08.68.11.7.12.69.15.7.17.7.19.71.21.71.24.72.26.72.28.72.31.73.33.73.35.74.38.74.41.74.43.76.45.75.49.76.51.77.54.77.56.77.59.79.62.78.65.8.68.79.71.81.74.81.77.81.8.82.83.83.86.83.89.84.93-.67-.05-.67-.05-.67-.05-.66-.04-.67-.04-.67-.04-.67-.03-.67-.03-.67-.02-.67-.03-.67-.02-.67-.01-.67-.02-.67-.01h-.67l-.67-.01h-2l-.67.01-.67.01-.67.01-.67.02-.67.02-.67.02-.67.02-.67.02-.67.03-.67.03-.67.04-.67.03-.67.04-.66.04-.67.04-.67.04-.67.05-.67.05-.67.05-.67.05-.67.05-.67.06-.67.06-.67.06-.67.06-.67.06-.67.07-.66.06-.67.07-.67.07-.67.07-.67.08-.67.07-.67.08-.67.07-.67.08-.67.08-.67.08-.67.09-.67.08-.67.09-.67.08-.66.09-.67.09-.67.09-.67.09-.67.09-.67.09-.67.09-.67.09-.67.1-.67.09-.67.1-.67.1-.67.09-.67.1-.66.1-.67.09-.67.1-.67.1-.67.1-.67.1-.67.1-.67.1-.67.1-.67.1-.67.1-.67.1-.67.1-.67.1-.66.1-.67.1-.67.1-.67.1-.67.1-.67.1-.67.1-.67.1-.67.1-.67.1" filter="url(#a)"/></svg>