<svg xmlns="http://www.w3.org/2000/svg" width="500" height="500" viewBox="-100 -100 200 200"><defs><clipPath id="c"><path d="m36.04 2.62-.11-.35-.14-.37-.17-.38-.21-.38-.25-.38-.28-.39-.32-.38-.36-.38-.4-.38-.43-.37-.47-.36-.52-.36-.55-.34-.58-.33-.63-.32-.46-.53-.53-.5-.6-.48-.68-.44-.74-.41-.81-.37-.87-.34-.94-.3-.99-.26-1.05-.23-1.1-.19-1.14-.15-1.19-.12-1.23-.08-1.26-.05-1.29-.01-1.32.02-1.33.05-1.36.08-1.36.11-1.38.14-1.37.16-1.38.19-1.37.21-1.37.24-1.35.25-1.34.28-1.32.29-1.3.3-1.28.32-1.25.33-1.22.34-1.19.36-1.16.35-1.12.37-1.09.37-1.05.37-1.01.38-.97.38-.94.37-.9.38-.86.37-.82.37-.78.36-.75.37-.72.35-.68.35-.65.34-.62.34-.59.33-.57.32-.54.31-.51.31-.48.31-.46.29-.43.29-.41.28-.38.28-.36.26-.34.26-.32.25-.3.25-.29.23-.26.23-1.04.74.26.09.27.08.28.07.29.07.31.06.32.06.34.04.35.04.37.03.38.03.41.02.42.01h.9l.48-.01.5-.01.52-.02.54-.03.56-.04.59-.04.62-.04.65-.05.67-.06.7-.06.73-.07.76-.07.79-.08.82-.07.85-.09.88-.08.9-.09.94-.09.96-.09.99-.09 1.02-.08 1.03-.09 1.07-.09 1.08-.08 1.1-.09 1.12-.08 1.13-.07 1.15-.07 1.16-.07 1.17-.06 1.17-.05 1.18-.05 1.18-.04 1.18-.03 1.17-.02 1.17-.02 1.15-.01h1.15l1.12.02 1.11.02 1.09.02 1.07.04 1.04.05 1.01.06.98.06.94.07.92.08.87.09.84.1.79.09.81.02.79.02.77.02.74.02.73.01h2.04l.63-.01.61-.02.59-.03.56-.04.54-.05.51-.07.49-.08"/></clipPath><clipPath id="b"><path d="m-35.46 3.22.12-.14.16-.16.19-.17.23-.18.26-.19.3-.19.34-.2.37-.2.41-.21.45-.21.49-.2.52-.21.56-.2.6-.2.63-.19.48-.33.55-.31.62-.3.68-.29.76-.27.82-.25.88-.23.94-.21 1-.19 1.05-.17 1.1-.15 1.14-.13 1.19-.11 1.22-.09 1.26-.07 1.28-.05 1.31-.03h1.33l1.35.01 1.36.03 1.36.05 1.37.06 1.37.09 1.36.1 1.35.11 1.35.13 1.33.14 1.31.16 1.29.17 1.26.17 1.24.19 1.22.2 1.18.21 1.15.21 1.11.22 1.08.22 1.04.23 1.01.24.97.23.93.24.9.24.85.24.82.24.78.24.75.24.71.24.68.23.65.23.63.23.59.22.57.22.54.21.51.22.48.21.46.2.44.2.41.2.39.19.36.19.35.18.32.18.31.18.29.17.27.16 1.07-.88-.28.09-.28.07-.3.07-.32.05-.33.05-.34.04-.36.03-.38.02-.39.01h-.85l-.45-.02-.47-.02-.49-.03-.52-.04-.53-.05-.56-.06-.58-.06-.6-.08-.63-.08-.66-.09-.69-.09-.72-.11-.75-.11-.78-.11-.81-.12-.84-.13-.87-.13-.9-.14-.93-.14-.97-.14-.99-.14-1.02-.14-1.04-.14L7.2 2.9l-1.1-.14-1.11-.14-1.14-.13-1.15-.13-1.18-.12-1.18-.12-1.2-.11-1.2-.1-1.21-.09-1.22-.08-1.22-.07-1.21-.05-1.21-.05-1.2-.03-1.19-.01-1.18-.01-1.15.02-1.14.03-1.12.04-1.08.06-1.06.08-1.03.09-1 .11-.95.13-.92.14-.88.16-.83.17-.79.18-.75.2-.79.08-.76.08-.74.09-.72.09-.69.09-.67.09-.65.08-.62.09-.6.08-.57.07-.55.07-.52.06-.5.05-.47.04-.45.03"/></clipPath><filter id="a"><feTurbulence baseFrequency=".05" numOctaves="3" result="noise" type="noise"/><feDisplacementMap in="SourceGraphic" in2="noise" scale="2"/></filter></defs><rect width="100%" height="100%" x="-100" y="-100" fill="beige"/><path fill="olive" stroke="#000" stroke-linejoin="round" stroke-width="1.667" d="m69.08.11-.06 2.81-.04-.87.12 2.04-.11 1.56-.22 1.61.21-1.25-.37 4.62.09-1.3-.53 3.15.05.76h.06l-.27 1.7-.04.24-.62 2.31.01.47-.15 1.01-.35 1.02-.49 2.99-.33.32-.6 1.92-.16.75-.31 1.74-.41 1.5-.66 1.61-.44 1.03-.16.35.13-.07-.47 1.52-.6 1.12-1.34 2.96-.21.48-.82 1.88.25-.47.26-.42-1.27 2.55-1.06 2.04-.44.96-.06.28-.94 1.05-.96 1.48.19.11-.68.98-.85 1.07-1.46 2.13-.06.55-2.29 2.63.68-.95-1.21 1.74-1.38 1.66v-.23l-.37.46-1.8 2.33-1.25 1.1 1.38-1.37-1.18 1.11-.03.4-1.73 1.62-1.23.79-.06.13-1.43 1.51-2.27 1.63.62-.28-.14.32-2.04 1.21-.37.54-2.34 1.47-1.64 1.04.74-.39-.89.62-2.38 1.3 1.02-.62-1.75 1.12-2.01 1.21.33-.52-2.89 1.7 1.42-.64-1.59.83-2.38.95.88-.4-.85.4-.28.04-3.26 1.11h-.44l-1.61.78-1.51.19.93-.25-1.89.59-2 .58-.22-.01-.62-.03-2.8.76-1.47.14 1.31-.19-2.59.12.4-.05-2.61.36-.14.06-1.54.19-.19-.33-2.63.12-1.13.05.21.03-2.91-.27h-1.45l1.1.15-2.11-.12-.2-.25-1.72-.14-.66-.2-1.28.04-1.38-.46-1.1-.14-.01-.22-1.11-.22-2.22-.55.91.26-1.04-.35-2.78-.84.17-.04-.77-.13-1.05-.46-1.46-.51-.99-.52-1.83-.79-1.83-.9-1.22-.39-.94-.57.65.26-2.18-1.11.03.11-1.5-1.06-2.17-1.45.84.46-2.31-1.49 1.17.8-1.41-1.12-1.55-1.09-.72-.28.25.02-2.52-2.32.4.47-1.5-1.44-.58-.06-.78-.89-1.8-1.48-.72-.76-.24-.64-1.8-1.94.87.73-1.64-1.54-.64-.52-1.49-1.97-.73-1.16-.46-.78.3.45-2.05-2.21-.66-1.03.04-.02-1.08-2-1.01-1.82.05.39-1.49-2.6.82 1.52-1.36-2.28-1.13-2.01-.11-.34-.24-.24-1.11-2.61-.97-2.09.16.36-.81-2.2-.3-.26-.33-1.69-.12.27-.44-1.78-.77-1.5-.44-1.71-.18-.54-.34-.94-.6-1.9-.33-1.38.29.17-.6-2.19-.41-1.55.2.21-.59-1.82-.13-1.36-.05-.85-.35-1.3-.04-1.3-.25-1.51-.04-.93-.3-.61-.13-2.79-.23-1.22-.17-1.79.22-1.89.12 2.11-.42-4.29.35-1.27-.07-.38-.1-3.06.16-.12-.09-1.9.18-.59.07-.55.18-2.2-.19.37.67-3.99.09-.43.11-.62-.04.09.22-2.01.65-2.57-.17.36.23-1.31.15-.35.39-2.03.17-.63.73-2.64.03-.3.31-.33.4-1.58.65-1.79.64-1.91.12-.53.7-1.98.07.47.57-1.71-.16.44 1.27-3.61.92-1.31-.1-.45 1.18-1.53-.67.91 1.04-1.71.67-1.6.71-1.15.42-.77.34-.47.98-1.75.94-1.56 1.09-1.57.84-1.22-.38.45.94-1.1 1.29-1.44.09-.07.34-.62.69-.82 2.27-2.44.36-.69.57-.67.42-.43 1.35-1.51.15.3 2.05-2.43-.52.98.58-.99.94-.5 1.17-1.1 2.55-2.11-.54.44.58-.42 1.25-1.02 2.34-1.56-.99.47.6-.4 2.04-1.24 1.76-1.12.06.12 2.29-1.45.08.14-.58.21 2.97-1.42.04.12.73-.59 2.24-.71.63-.42.33.04 1.04-.7 1.97-.71.91-.18 1.4-.35-.97.06 2.91-.82.79-.13.36.05 2.02-.39-.75.17 2.51-.69 1.11.06.94-.43.75.19 1.2-.06.22-.11 3-.38 2.22-.06-.31.26 1.52-.01.56-.22 1.28.21.59-.19.66.33.6-.27 1.55.17 2.46.3 1.17.34.76.22 1.2.2.9.14.86.13 2.22.53-2.25-.44 3.38.87-.11-.22.71.4 3.49 1.05.81.43-1.72-.57 2.6.76.21.34 1.63.4 1.58 1.09.8.12.51.2 1.88.89-.01.35 1.75.67.52.2 1.71 1.3.55.26 1.28.75.61.63.6.41 1.38.99.87.79-.05-.09.61.23 1.02 1.05 2.51 2.09 1.14.9.41.7 1.2 1.29.93 1.01-.57-.86.57.65 1.77 1.86-.32-.28 1.34 1.74.12-.12 1.39 2 1.21 1.37.66.9.08-.02.48.62 1.98 2.78-.57-.35 1.12 1.42.55 1.1-.38-1.1 1.55 2.97 1.44 2.32.05.32-.28-.67 1.52 2.97.54 1.64.41.33.78 1.85.14.55.24-.02.6 1.98.73 1.54.88 2.26-.48-1.25.68 1.98-.02.51.64 1.64.75 2.14.34 1.35-.29-.5.38 1.95.26.65.51 2.24.28.38-.21-.41.7 2.74.11 2.31.27 1.2-.1-.16.56 2.45.07 1.15.33 3.31-.15-1.3.08.86-.06.33.12 1.81.2 3.03.01.38-.08 1.76-.06 2.81" filter="url(#a)"/><path fill="#fff" d="m-35.46 3.22.12-.14.16-.16.19-.17.23-.18.26-.19.3-.19.34-.2.37-.2.41-.21.45-.21.49-.2.52-.21.56-.2.6-.2.63-.19.48-.33.55-.31.62-.3.68-.29.76-.27.82-.25.88-.23.94-.21 1-.19 1.05-.17 1.1-.15 1.14-.13 1.19-.11 1.22-.09 1.26-.07 1.28-.05 1.31-.03h1.33l1.35.01 1.36.03 1.36.05 1.37.06 1.37.09 1.36.1 1.35.11 1.35.13 1.33.14 1.31.16 1.29.17 1.26.17 1.24.19 1.22.2 1.18.21 1.15.21 1.11.22 1.08.22 1.04.23 1.01.24.97.23.93.24.9.24.85.24.82.24.78.24.75.24.71.24.68.23.65.23.63.23.59.22.57.22.54.21.51.22.48.21.46.2.44.2.41.2.39.19.36.19.35.18.32.18.31.18.29.17.27.16 1.07-.88-.28.09-.28.07-.3.07-.32.05-.33.05-.34.04-.36.03-.38.02-.39.01h-.85l-.45-.02-.47-.02-.49-.03-.52-.04-.53-.05-.56-.06-.58-.06-.6-.08-.63-.08-.66-.09-.69-.09-.72-.11-.75-.11-.78-.11-.81-.12-.84-.13-.87-.13-.9-.14-.93-.14-.97-.14-.99-.14-1.02-.14-1.04-.14L7.2 2.9l-1.1-.14-1.11-.14-1.14-.13-1.15-.13-1.18-.12-1.18-.12-1.2-.11-1.2-.1-1.21-.09-1.22-.08-1.22-.07-1.21-.05-1.21-.05-1.2-.03-1.19-.01-1.18-.01-1.15.02-1.14.03-1.12.04-1.08.06-1.06.08-1.03.09-1 .11-.95.13-.92.14-.88.16-.83.17-.79.18-.75.2-.79.08-.76.08-.74.09-.72.09-.69.09-.67.09-.65.08-.62.09-.6.08-.57.07-.55.07-.52.06-.5.05-.47.04-.45.03" filter="url(#a)" transform="translate(41.93 -18.4)"/><path fill="#fff" d="m36.04 2.62-.11-.35-.14-.37-.17-.38-.21-.38-.25-.38-.28-.39-.32-.38-.36-.38-.4-.38-.43-.37-.47-.36-.52-.36-.55-.34-.58-.33-.63-.32-.46-.53-.53-.5-.6-.48-.68-.44-.74-.41-.81-.37-.87-.34-.94-.3-.99-.26-1.05-.23-1.1-.19-1.14-.15-1.19-.12-1.23-.08-1.26-.05-1.29-.01-1.32.02-1.33.05-1.36.08-1.36.11-1.38.14-1.37.16-1.38.19-1.37.21-1.37.24-1.35.25-1.34.28-1.32.29-1.3.3-1.28.32-1.25.33-1.22.34-1.19.36-1.16.35-1.12.37-1.09.37-1.05.37-1.01.38-.97.38-.94.37-.9.38-.86.37-.82.37-.78.36-.75.37-.72.35-.68.35-.65.34-.62.34-.59.33-.57.32-.54.31-.51.31-.48.31-.46.29-.43.29-.41.28-.38.28-.36.26-.34.26-.32.25-.3.25-.29.23-.26.23-1.04.74.26.09.27.08.28.07.29.07.31.06.32.06.34.04.35.04.37.03.38.03.41.02.42.01h.9l.48-.01.5-.01.52-.02.54-.03.56-.04.59-.04.62-.04.65-.05.67-.06.7-.06.73-.07.76-.07.79-.08.82-.07.85-.09.88-.08.9-.09.94-.09.96-.09.99-.09 1.02-.08 1.03-.09 1.07-.09 1.08-.08 1.1-.09 1.12-.08 1.13-.07 1.15-.07 1.16-.07 1.17-.06 1.17-.05 1.18-.05 1.18-.04 1.18-.03 1.17-.02 1.17-.02 1.15-.01h1.15l1.12.02 1.11.02 1.09.02 1.07.04 1.04.05 1.01.06.98.06.94.07.92.08.87.09.84.1.79.09.81.02.79.02.77.02.74.02.73.01h2.04l.63-.01.61-.02.59-.03.56-.04.54-.05.51-.07.49-.08" filter="url(#a)" transform="translate(-36.69 -20.42)"/><g fill="none" stroke="#000" transform="translate(41.93 -18.4)"><path stroke-linejoin="round" stroke-width="1.667" d="m-35.35 3.5-.09.1-.07.07-.07.04h-.05l-.03-.02-.02-.05.02-.08.03-.09.07-.12.1-.13.12-.14.16-.16.19-.17.23-.18.26-.19.3-.19.34-.2.37-.2.41-.21.45-.21.49-.2.52-.21.56-.2.6-.2.63-.19.48-.33.55-.31.62-.3.68-.29.76-.27.82-.25.88-.23.94-.21 1-.19 1.05-.17 1.1-.15 1.14-.13 1.19-.11 1.22-.09 1.26-.07 1.28-.05 1.31-.03h1.33l1.35.01 1.36.03 1.36.05 1.37.06 1.37.09 1.36.1 1.35.11 1.35.13 1.33.14 1.31.16 1.29.17 1.26.17 1.24.19 1.22.2 1.18.21 1.15.21 1.11.22 1.08.22 1.04.23 1.01.24.97.23.93.24.9.24.85.24.82.24.78.24.75.24.71.24.68.23.65.23.63.23.59.22.57.22.54.21.51.22.48.21.46.2.44.2.41.2.39.19.36.19.35.18.32.18.31.18.29.17.27.16.25.16.23.15.23.15.2.15.2.13.18.14.16.12.16.13.15.12.13.11" filter="url(#a)"/><path stroke-linejoin="round" stroke-width="2.222" d="m-37.02 3.19.25.21.27.17.28.14.3.11.32.09.34.06.36.04.38.02h.4l.42-.01.45-.03.47-.04.5-.05.52-.06.55-.07.57-.07.6-.08.62-.09.65-.08.67-.09.69-.09.72-.09.74-.09.76-.08.79-.08.75-.2.79-.18.83-.17.88-.16.92-.14.95-.13 1-.11 1.03-.09 1.06-.08 1.08-.06 1.12-.04 1.14-.03 1.15-.02 1.18.01 1.19.01 1.2.03 1.21.05 1.21.05 1.22.07 1.22.08 1.21.09 1.2.1 1.2.11 1.18.12 1.18.12 1.15.13 1.14.13 1.11.14 1.1.14 1.07.14 1.04.14 1.02.14.99.14.97.14.93.14.9.14.87.13.84.13.81.12.78.11.75.11.72.11.69.09.66.09.63.08.6.08.58.06.56.06.53.05.52.04.49.03.47.02.45.02h.85l.39-.01.38-.02.36-.03.34-.04.33-.05.32-.05.3-.07.28-.07.28-.09.26-.09.25-.1.24-.11.23-.11.22-.13.21-.13.21-.14.19-.15.19-.16.18-.16" filter="url(#a)"/><circle cx="3.35" cy="2.659" r="4.828" clip-path="url(#b)" filter="url(#a)"/><circle cx="5.77" cy="4.774" r="4.246" clip-path="url(#b)" filter="url(#a)"/><circle cx="5.015" cy="5.154" r="4.276" clip-path="url(#b)" filter="url(#a)"/><circle cx="6.13" cy="3.954" r="4.366" clip-path="url(#b)" filter="url(#a)"/><circle cx="5.875" cy="4.159" r="3.236" clip-path="url(#b)" filter="url(#a)"/><circle cx="3.35" cy="4.054" r="3.528" clip-path="url(#b)" filter="url(#a)"/><circle cx="3.6" cy="3.644" r="4.504" clip-path="url(#b)" filter="url(#a)"/><circle cx="4.95" cy="2.194" r="4.826" clip-path="url(#b)" filter="url(#a)"/><circle cx="5.785" cy="3.124" r="3.658" clip-path="url(#b)" filter="url(#a)"/><circle cx="2.04" cy="3.359" r="3.252" clip-path="url(#b)" filter="url(#a)"/></g><g fill="none" stroke="#000" transform="translate(-36.69 -20.42)"><path stroke-linejoin="round" stroke-width="2.222" d="m35.73 4.99.1-.09.1-.13.09-.17.07-.2.05-.24.03-.26.01-.29-.02-.31-.05-.33-.07-.35-.11-.35-.14-.37-.17-.38-.21-.38-.25-.38-.28-.39-.32-.38-.36-.38-.4-.38-.43-.37-.47-.36-.52-.36-.55-.34-.58-.33-.63-.32-.46-.53-.53-.5-.6-.48-.68-.44-.74-.41-.81-.37-.87-.34-.94-.3-.99-.26-1.05-.23-1.1-.19-1.14-.15-1.19-.12-1.23-.08-1.26-.05-1.29-.01-1.32.02-1.33.05-1.36.08-1.36.11-1.38.14-1.37.16-1.38.19-1.37.21-1.37.24-1.35.25-1.34.28-1.32.29-1.3.3-1.28.32-1.25.33-1.22.34-1.19.36-1.16.35-1.12.37-1.09.37-1.05.37-1.01.38-.97.38-.94.37-.9.38-.86.37-.82.37-.78.36-.75.37-.72.35-.68.35-.65.34-.62.34-.59.33-.57.32-.54.31-.51.31-.48.31-.46.29-.43.29-.41.28-.38.28-.36.26-.34.26-.32.25-.3.25-.29.23-.26.23-.25.22-.23.21-.21.21-.21.19-.18.19-.18.19-.16.17-.15.17-.14.16-.13.16" filter="url(#a)"/><path stroke-linejoin="round" stroke-width="2.222" d="m36.82 4.09-.28.31-.28.29-.31.25-.33.22-.35.2-.38.18-.39.15-.42.13-.44.12-.47.09-.49.08-.51.07-.54.05-.56.04-.59.03-.61.02-.63.01H27.2l-.73-.01-.74-.02-.77-.02-.79-.02-.81-.02-.79-.09-.84-.1-.87-.09-.92-.08-.94-.07-.98-.06-1.01-.06-1.04-.05-1.07-.04-1.09-.02-1.11-.02-1.12-.02h-1.15l-1.15.01-1.17.02-1.17.02-1.18.03-1.18.04-1.18.05-1.17.05-1.17.06-1.16.07-1.15.07-1.13.07-1.12.08-1.1.09-1.08.08-1.07.09-1.03.09-1.02.08-.99.09-.96.09-.94.09-.9.09-.88.08-.85.09-.82.07-.79.08-.76.07-.73.07-.7.06-.67.06-.65.05-.62.04-.59.04-.56.04-.54.03-.52.02-.5.01-.48.01h-.9l-.42-.01-.41-.02-.38-.03-.37-.03-.35-.04-.34-.04-.32-.06-.31-.06-.29-.07-.28-.07-.27-.08-.26-.09-.25-.1-.23-.1-.23-.11-.21-.12-.21-.12-.2-.13-.19-.14-.18-.14-.18-.15-.17-.15" filter="url(#a)"/><circle cx="-11.051" cy="6.995" r="3.774" clip-path="url(#c)" filter="url(#a)"/><circle cx="-13.256" cy="5.53" r="3.14" clip-path="url(#c)" filter="url(#a)"/><circle cx="-12.016" cy="6.375" r="4.24" clip-path="url(#c)" filter="url(#a)"/><circle cx="-10.581" cy="4.74" r="4.56" clip-path="url(#c)" filter="url(#a)"/><circle cx="-13.546" cy="4" r="3.94" clip-path="url(#c)" filter="url(#a)"/><circle cx="-12.251" cy="6.59" r="3.778" clip-path="url(#c)" filter="url(#a)"/><circle cx="-13.731" cy="5.525" r="4.652" clip-path="url(#c)" filter="url(#a)"/><circle cx="-13.191" cy="7.61" r="4.94" clip-path="url(#c)" filter="url(#a)"/><circle cx="-13.231" cy="4.885" r="3.944" clip-path="url(#c)" filter="url(#a)"/><circle cx="-13.511" cy="8.56" r="4.176" clip-path="url(#c)" filter="url(#a)"/></g><g fill="none" stroke="#504444" stroke-linejoin="round" stroke-width="2"><path d="m11.62-79.84-.88 4.78 1.11 7.72-1.92 5.29-2.98 1.35-2-1.26.03-1.42 1.07-.22.08.71-1.47.57-1.04-.32 1.92-1.44 4.63-2.59 3.56-3.37-1.76-2.39L.21-70.65l-42.81 6.48" filter="url(#a)"/><path d="m33.09-71.2-41.4.44-5.16-.82 8.77-.62 7.96.48 1.72 1.53-2.89 1.8-3 1.04.16-.38 3.25-1.68 3.64-2.2.87-1.65-3.21-.19-5.51 1.76-3.34 3.48 3.13 3.75 7.4 1.19-4.42-3.68-38.9-.92" filter="url(#a)"/><path d="m43.61-63.19-4.93-2.89-7.06-2.18-6.55-.86-6.08-.1-5.6.7-4.34 1.97-2.51 3.26-.85 3.8.21 3.25.74 1.78 1.27-.08 2.44-1.55L15-57.95l7.16-.87 7.46.01 4.87-.57 20.37 9.83" filter="url(#a)"/><path d="m34.92-70.19 11.81 15.45-1.62-.37-1.58-.21-1.55.26-4.5-1.15-8.53-2.42-11.08-2.4-10.74-1.5-7.71-.75-3.42-.64.63-1.02 3.84-1.15 6.56-.47 8.93 1.06 10.09 2.78 8.44 3.69 2.95 2.93-5.61.41-13.27-2.38-8.06-1.2 42.38 6.94" filter="url(#a)"/><path d="m12.52-79.7-3.69 9.13L20.18-60.3l3.74 5-1.09.5-3.22-2.21-4.95-3.65-5.57-4.02L4.89-68l-1.5-1.93 1-.42 2.42.73 2.71 1.26 1.74 1-1.3-.11-6.65-1.56-12.17-2.14-13.95-.6-10.33 1.88-1.11-.56" filter="url(#a)"/><path d="m-50.89-54.79 54-7.13 13.88-5.8 3.96-1.09.81 1.54-.3 2.7-.71 3.05-1.01 2.59-1.21 1.31-1.26-.43-1.06-2.1-.23-3.27 1.47-3.62 3.14-2.99 2.85-1.52-1.79-.28-14.19-.69-38.3-.22" filter="url(#a)"/><path d="m61.97-36.22-8.17-5.64-19.85-14.5L17-66.16l-8.31-2.85-1.78 1.9.91 3.77 2.43 3.69 4.74 2.44 6.63.21 5.48-2.52.64-4.22-5.63-3.08-9.61 1.13-3.18 6.41 44.97 9.38" filter="url(#a)"/><path d="m-32.6-71.62 10.66 11.11 17.7-1.85 7.52-5.24 3.29-3.85 1.76-1.97-.18-1-2.16-.71-3.08-.62-2.86-.51-2.16-.36-1.25-.05.3.63L.18-74.1l7.61 4 12.14 6.61 14.33 8.84 11.16 8.8-.08 3.87-22.65-6.54-65.23-15.66" filter="url(#a)"/><path d="m-26.02-75.14 42.59 10.49 8.19 4.81-.22.94-1.69-1.35-3.06-2.15-2.75-1.37.24.3 4.06 1.65 6.11 1.77 5.39.69 2.81-.81-.04-1.78-2.34-1.76-4.61-1.2-7.74-1.05-11.08-1.38-10.63-.32 1.98 4.15 47.75 6.43" filter="url(#a)"/><path d="m11.62-79.84-2.75 5 2.59 6.04 11.09 5.87 9.49 4.18 2.22 1.07-5.12-2.11-9.24-4.01-9.75-4.17-7.99-3.06-5.49-1.45-3.02.04-.6 1.14 1.81 1.89 3.9 2.3 4.97 2.06 4.2.86 1.37-.97-1.97-2-2.36-1.35.37-1.73-18.98-9.24" filter="url(#a)"/><path d="m-5.64-80.74 24.13 20.8-2.32-1.76 2.52-2.27 6.16-.26 5.72 1.2 3 2.3-1.36 2.74-6.7 2.08-11.11.54-12.21-1.08-8.96-1.93-2.62-1.68 4.3-.68 10.12.42 14.49 1.5 16.4 3.17 13.74 7.24 16.09 22.99" filter="url(#a)"/><path d="M38.33-67.46 26.61-65.8l4.53 5.82-6.06.73-15.52-1.64-17.24-1.81-13.23-1.61-7.4-1.56-2.48-1.43.56-.93 2-.15 2.65.51 3.23.77 4.24.58 5.8.22 7.51.01 8.36.02h7.3l4.29-.43 1.01-1.3-.8-1.96-3.52-1.36-15.64 1.36-42.77 9.86" filter="url(#a)"/><path d="M60.4-38.93 19.77-62.34 3.35-69.06-9.66-70.1l-7.39.32.08.14 5.94-.15 8.8-.04 8.9.32 6.78.53 3.02.34-1.46-.19-5.27-.76-7.15-1.01-6.46-.74-3.51-.1.59.58 3.58.84 2.08.24-5.94-1.13-15.18-1.48-12 1.94" filter="url(#a)"/><path d="m9.66-80.26-26 11.32 4.36.18 6.11-.36 5.08-.19 5.76-.39 6.16-.62 5.3-.72 3.68-.69 2.25-.37 1.8.47 2.29 1.72 2.32 2.58-.38 1.77-7.22-1.26-15.68-4.62-17.32-4.81-.54-3.45" filter="url(#a)"/><path d="m.79-80.93-2.22-.02-2.72.18-2.51.26-2.31.3-2.14.35-2.04.41-2 .47-2.02.57-2.08.66-2.18.73-2.25.81-2.29.86-2.26.91-2.21.98-2.13 1.05-2.04 1.13-1.98 1.22-1.96 1.3-1.97 1.39-1.99 1.45-2.01 1.51-1.99 1.55-1.94 1.57-1.88 1.61-1.84 1.63-1.83 1.66-1.84 1.7-1.86 1.77-1.86 1.84-1.81 1.95-1.69 2.03-1.54 2.02-1.41 1.89-1.43 1.69-1.71 1.67" filter="url(#a)"/><path d="m.79-80.93-2.26-.03-2.81.19-2.55.26-2.3.3-2.2.35-2.24.4-2.42.47-2.66.57-2.84.65-2.89.73-2.79.81-2.63.85-2.53.91-2.61.97-2.87 1.04-3.25 1.12-3.6 1.21-3.82 1.3-3.8 1.39-3.58 1.45-3.23 1.51-2.81 1.54-2.44 1.58-2.15 1.59-2.06 1.63-2.17 1.64-2.55 1.68-3.07 1.73-3.56 1.82-3.82 1.99-3.71 2.15-3.14 2.2-1.44 2.32" filter="url(#a)"/><path d="m-2.64-81.12-3.26.31-2.55.24-2.36.32-2.49.41-2.62.49-2.63.57-2.55.62-2.44.69-2.35.75-2.34.82-2.42.9-2.61.97-2.82 1.05-2.99 1.12-3.04 1.19-3 1.24-2.89 1.27-2.84 1.3-2.85 1.31-2.97 1.36-3.16 1.41-3.32 1.51-3.4 1.63-3.29 1.75-3 1.8-2.78 1.77-3.18 1.62-3.94 1.22" filter="url(#a)"/><path d="m-5.64-80.74-2.34.22-2.35.3-2.65.34-2.81.39-3.07.46-3.43.56-3.79.66-3.96.75-3.81.81-3.31.86-2.6.9-1.92.96-1.51 1.03-1.51 1.12-1.89 1.2-2.46 1.3-3.01 1.38-3.41 1.46-3.59 1.51-3.59 1.54-3.51 1.56-3.44 1.59-3.5 1.62-3.82 1.64-4.38 1.63-5.03 1.64-5.56 1.74-6.22 2.12-8.43 2.85" filter="url(#a)"/><path d="m-7.81-80.76-2.31.4-2.6.46-2.81.52-2.91.58-2.88.63-2.84.69-2.89.75-2.97.81-3.02.89-2.94.97-2.79 1.05-2.66 1.12-2.71 1.18-3.09 1.24-3.79 1.27-4.61 1.29-5.16 1.3-5.1 1.31-4.33 1.37-3.24 1.48-2.67 1.64-3.28 1.8-4.46 1.85-2.97 1.37" filter="url(#a)"/><path d="m-8.75-80.33-2.56.47-1.45.36-1.3.44-1.58.56-1.77.68-1.78.78-1.65.83-1.53.87-1.44.92-1.42.97-1.43 1.04-1.45 1.13-1.43 1.22-1.35 1.31-1.19 1.39-.98 1.47-.75 1.51-.59 1.55-.56 1.57-.64 1.6-.75 1.62-.82 1.65-.77 1.68-.67 1.74-.65 1.84-.67 1.96-.55 2.07-.06 2.07.71 1.88 1.17 1.34" filter="url(#a)"/><path d="m-8.75-80.33-2.46.47-1.01.36-.21.43-.06.56-.39.68-.92.77-1.43.83-1.83.87-2.11.91-2.27.96-2.3 1.03-2.11 1.12-1.75 1.22-1.24 1.3-.65 1.39-.07 1.46.52 1.51 1.09 1.55 1.63 1.56 2.07 1.59 2.25 1.62 2.06 1.64 1.54 1.65.93 1.68.61 1.79.69 2 1.22 2.2 2.9 1.82m-1.59-34.12-1.61.3-2.45.57-3.08.73-3.18.81-2.9.85-2.48.87-2.18.9-2.09.95-2.26 1.01-2.61 1.11-3.11 1.21-3.68 1.3-4.2 1.39-4.55 1.47-4.61 1.51-4.45 1.54-4.24 1.55-4.16 1.57-4.29 1.62-4.4 1.63-4.2 1.61-3.47 1.52-2.4 1.51-2.39 2.04" filter="url(#a)"/><path d="m-16.73-78.64-2.01.74-1.23.87-.92.89-1.18.89-1.37.9-1.27.95-1.01 1.04-.79 1.14-.7 1.24-.74 1.33-.88 1.42-1.06 1.48-1.2 1.52-1.27 1.55-1.18 1.58-.96 1.6-.63 1.62-.28 1.66.01 1.7.22 1.76.39 1.85.64 1.93 1.01 2 1.39 2.01 1.54 1.97 1.4 2.01 1.56 2.41 2.06 3.67m3.14-41.79-6.41.65-1.1.86-1.19.88-2.28.92-2.96 1.03-3.18 1.14-3.34 1.25-3.61 1.35-3.92 1.42-4.09 1.49-3.99 1.54-3.66 1.55-3.23 1.57-2.91 1.6-2.9 1.62-3.32 1.65-4.1 1.7-4.95 1.76-5.53 1.84-5.64 1.93-5.4 2-5.15 2-5.02 1.96-4.59 2.01-3.98 2.4-6.11 3.67" filter="url(#a)"/><path d="m-22.05-76.7-3.66.66-3.65.87-2.22.89-1.65.94-1.65 1.05-1.86 1.17-2.14 1.27-2.41 1.37-2.55 1.44-2.53 1.51-2.38 1.55-2.2 1.57-2.12 1.6-2.21 1.63-2.44 1.66-2.72 1.7-2.92 1.75-2.97 1.81-2.91 1.88-2.79 1.95-2.73 2-2.75 2.06-2.83 2.11-2.89 2.16-2.81 2.19-2.56 2.22-2.16 2.23-1.76 2.22-1.46 2.21-1.43 2.19-1.69 2.18-2.15 2.19-2.69 2.22-3.16 2.4-3.33 3.34" filter="url(#a)"/><path d="m-25.98-75.02-9.9.86.01.78.07 1.01-1.59 1.18-2.78 1.29-3.27 1.37-3.38 1.45-3.36 1.51-3.39 1.55-3.55 1.57-3.92 1.58-4.44 1.61-4.92 1.64-5.17 1.67-5.02 1.73-4.45 1.78-3.61 1.86-2.82 1.93-2.38 2-2.52 2.03-3.14 2.08-3.85 2.14-4.22 2.22-4.08 2.26-3.89 2.24-4.45 2.19-6.32 2.31-8.66 2.86" filter="url(#a)"/><path d="m-30.78-72.62-2.09 1.14-2.82 1.27-3.39 1.32-3.35 1.33-2.81 1.32-2.21 1.34-1.94 1.4-2.15 1.48-2.65 1.59-3.2 1.69-3.56 1.76-3.61 1.81-3.36 1.86-2.89 1.91-2.37 1.97-1.86 2.01-1.52 2.03-1.38 2.04-1.5 2.02-1.89 2.02-2.47 2.04-3.09 2.1-3.52 2.22-3.64 2.35-3.62 2.48-3.93 2.56-4.38 2.57-1.64 2.6" filter="url(#a)"/><path d="m-36.59-68.89-2.62 1.45-3.38 1.39-2.71 1.31-1.97 1.37-1.85 1.5-2.35 1.63-3.03 1.74-3.51 1.8-3.58 1.85-3.26 1.9-2.76 1.94-2.39 1.99-2.37 2.02-2.75 2.05-3.41 2.05-4.07 2.07-4.5 2.09-4.57 2.13-4.34 2.2-4 2.26-3.81 2.32-3.91 2.35-4.22 2.36-4.46 2.32-4.29 2.26-3.55 2.19-2.38 2.16-1.22 2.17-.61 2.23-.78 2.36-1.67 2.47-2.84 2.52-3.8 2.45-4.2 2.25-3.55 2.06" filter="url(#a)"/><path d="m-37.88-67.89-4.07 2.51-1.75 1.82-1.36 1.56-1.51 1.54-1.71 1.6-1.85 1.66-1.87 1.7-1.8 1.76-1.67 1.82-1.57 1.9-1.48 1.98-1.45 2.03-1.43 2.08-1.42 2.12-1.4 2.16-1.37 2.19-1.34 2.21-1.31 2.22-1.32 2.21-1.29 2.2-1.24 2.2-1.13 2.2-.96 2.23-.83 2.27-.77 2.31-.85 2.37-.97 2.38-1.03 2.34-.96 2.15-.92 1.85-.96 1.75M67.02-19.76l1.96 3.71.5 2.72.77 2.47 1.18 2.44 1.24 2.48 1.03 2.51.79 2.51.7 2.47.73 2.44.75 2.43.75 2.43.7 2.45.71 2.46.83 2.46 1.05 2.46 1.27 2.46 1.41 2.45L84.75 26l1.16 2.37.89 2.31.66 2.25.51 2.18.37 2.12.12 2.06-.28 2.03-.78 2.01-1.14 2.01-1.26 2-.91 2.02.32 2.49" filter="url(#a)"/><path d="m-44.8-62.04-2.48 1.79-2 1.86-1.95 1.86-2.12 1.83-2.56 1.84-3.04 1.91-3.33 1.99-3.25 2.03-2.79 2.05-2.12 2.04-1.51 2.03-1.16 2.03-1.11 2.07-1.31 2.15-1.55 2.24-1.64 2.34-1.55 2.39-1.37 2.4-1.28 2.36-1.37 2.24-1.65 2.11-1.91 1.98-1.91 1.89-1.59 1.99-.77 2.69m44.98-49.5-2.13 2.46-1.67 1.8-1.55 1.68-1.48 1.79-1.44 1.94-1.36 2.04-1.24 2.08-1.15 2.12-1.08 2.15-1.04 2.19-1.03 2.21-1 2.23-.95 2.23-.88 2.22-.79 2.23-.72 2.22-.66 2.24-.63 2.27-.63 2.29-.63 2.31-.62 2.34-.6 2.35-.57 2.38-.52 2.41-.45 2.45-.39 2.51-.31 2.57-.21 2.6-.12 2.61.01 2.6.1 2.56.17 2.5.2 2.43.2 2.36.19 2.32.21 2.3.01 1.87" filter="url(#a)"/><path d="m-47.14-59.43-2.54 2.44-2.02 1.79-2.08 1.64-2.14 1.75-1.99 1.92-1.64 2.01-1.25 2.06-.99 2.08-.96 2.12-1.09 2.16-1.28 2.19-1.44 2.22-1.5 2.21-1.47 2.2-1.36 2.18-1.21 2.18-1.09 2.19-1.06 2.21-1.1 2.25-1.21 2.3-1.33 2.36-1.41 2.38-1.41 2.32-1.22 2.13-.91 1.83-1.08 1.74" filter="url(#a)"/><path d="m-50.46-55.48-.97 1.18-1.51 1.66-1.89 1.89-2.07 2.04-2.1 2.1-2.03 2.1-1.89 2.07-1.63 2.04-1.28 2.07-.91 2.12-.61 2.2-.44 2.27-.4 2.34-.48 2.37-.63 2.34-.79 2.31-.97 2.24-1.1 2.21-1.22 2.18-1.27 2.22-1.2 2.27-1.04 2.34-.76 2.43-.46 2.48-.18 2.53-.04 2.58-.05 2.65-.21 2.73-.41 2.74-.56 2.63-.71 2.42-.93 2.24" filter="url(#a)"/><path d="m-50.8-54.86-1.28 1.37-1.28 1.68-1.35 2.02-1.29 2.12-1.19 2.12-1.1 2.11-1.05 2.14-1.03 2.19-1 2.22-.96 2.24-.91 2.23-.85 2.22-.79 2.21-.72 2.22-.65 2.24-.6 2.26-.53 2.28-.49 2.32-.43 2.33-.39 2.35-.32 2.38-.26 2.4-.19 2.45-.13 2.51-.07 2.56-.01 2.61.04 2.61.1 2.59.17 2.55.22 2.5.28 2.42.33 2.36.4 2.32.43 2.3.22 1.86" filter="url(#a)"/><path d="M-52.18-53.35-53.39-52l-1.62 2.09-1.47 2.2-1.34 2.12-1.32 2.06-1.38 2.09-1.41 2.15-1.37 2.21-1.21 2.23-1.01 2.21-.86 2.18-.78 2.18-.82 2.17-.9 2.18-.99 2.21-1.07 2.25-1.11 2.29-1.14 2.34-1.11 2.35-1 2.28-.85 2.16-.71 2.03-.58 2.13-.09 2.76" filter="url(#a)"/><path d="m-52.74-52.7-1.92 2.71-1.8 2.43-1.44 2.15-1.19 2.06-1.12 2.1-1.14 2.18-1.16 2.23-1.19 2.25-1.19 2.23-1.19 2.21-1.19 2.2-1.2 2.2-1.21 2.23-1.23 2.24-1.22 2.28-1.16 2.31-1.02 2.33-.83 2.34-.6 2.36-.44 2.38-.39 2.43-.45 2.5-.62 2.57-.79 2.62-.92 2.62-.89 2.59-.73 2.57-.52 2.51-.34 2.39-.14 2.16.7 1.8" filter="url(#a)"/><path d="m-56.59-46.6-1.55 1.57-2.25 1.82-1.95 2.01-1.7 2.2-1.76 2.28-2.04 2.27-2.42 2.23-2.72 2.21-2.71 2.19-2.4 2.19-1.98 2.22-1.75 2.25-1.93 2.28-2.46 2.31-3.05 2.33-3.41 2.34-3.29 2.35-2.76 2.38-2.08 2.44-1.63 2.5-1.61 2.57-1.96 2.6-2.38 2.61-2.53 2.59-2.36 2.55-2.2 2.49-2.47 2.41-3.04 2.31-2.99 2.37-2.5 2.95m69.88-69.82-.98 1.56-1.22 1.82-1.39 2.01-1.64 2.2-1.82 2.28-1.8 2.27-1.56 2.23-1.22 2.2-.93 2.18-.84 2.2-.97 2.21-1.25 2.24-1.54 2.28-1.76 2.31-1.83 2.32-1.76 2.34-1.59 2.35-1.37 2.37-1.15 2.43-.97 2.5-.9 2.57-.95 2.61-1.12 2.61-1.26 2.59-1.19 2.56-.84 2.51-.58 2.38-.9 2.16-1.93 1.79" filter="url(#a)"/><path d="m-57.35-45.36-2.12 2.15-4.37 2-4.33 2.24-2.62 2.34-.96 2.3-.09 2.24.04 2.21-.2 2.19-.55 2.2-.83 2.23-.97 2.26-.96 2.29-.86 2.31-.74 2.34-.61 2.36-.5 2.37-.43 2.41-.43 2.45-.52 2.51-.75 2.56-1.03 2.59-1.3 2.59-1.41 2.57-1.28 2.53-.94 2.48-.44 2.42v2.37l.24 2.32.12 2.31-.28 2.3-.68 2.36-.55 2.5.24 2.86" filter="url(#a)"/><path d="m-58.73-42.61-.96 1.34-2.46 2.2-3.07 2.4-2.7 2.31-2.33 2.2-2.42 2.15-2.69 2.14-2.83 2.16-2.78 2.17-2.69 2.21-2.64 2.26-2.56 2.29-2.4 2.31-2.23 2.32-2.2 2.28-2.52 2.28-3.11 2.32-3.59 2.49-3.45 2.67-2.45 2.71-1.28 2.37-2.65 2.25" filter="url(#a)"/><path d="m-59.1-41.81-8.81 2.61-5.74 2.72-.55 2.39.27 2.21-.94 2.18-2.17 2.18-2.64 2.2-2.37 2.23-1.64 2.27-.86 2.3-.3 2.33-.11 2.35-.35 2.37-1.01 2.39-1.99 2.42-3.15 2.47-4.22 2.52-4.92 2.56-4.98 2.58-4.39 2.58-3.29 2.56-2.04 2.52-.96 2.47-.34 2.42-.14 2.39-.25 2.35-.39 2.34-.39 2.33-.22 2.32.02 2.32.13 2.28-.04 2.23-.43 2.18-1.11 2.19-2.35 2.29-4.63 2.37" filter="url(#a)"/><path d="m-61.1-38.52-6.49 2.54-.25 2.27.05 2.41-.44 2.49-.77 2.49-1.11 2.39-1.65 2.3-2.37 2.2-3.1 2.15-3.66 2.16-3.92 2.21-3.92 2.3-3.78 2.38-3.67 2.45-3.74 2.51-4 2.55-4.33 2.59-4.5 2.62-4.34 2.63-3.86 2.6-3.14 2.55-2.36 2.47-1.52 2.38-.64 2.31.14 2.26.41 2.24-.23 2.24-1.47 2.23-2.23 2.18-1.96 2.04-2.29 1.86" filter="url(#a)"/><path d="m-65.67-25.99-7.89 2.66-7.45 2.31-4.77 2.09-2.26 2.01-.38 2.06.56 2.18.61 2.31.01 2.41-1.02 2.49-2.15 2.53-3.06 2.56-3.5 2.6-3.37 2.62-2.83 2.62-2.2 2.59-1.74 2.52-1.56 2.45-1.52 2.37-1.42 2.31-1.11 2.25-.68 2.23-.27 2.21-.04 2.2-.19 2.16-.86 2.16-2.04 2.2-3.25 2.34-3.61 2.45-1.88 1.7M66.18-22.62l1.02 2.16.99 2.1 1.14 2.33 1.42 2.41 1.81 2.42 2.24 2.43 2.47 2.45 2.4 2.48 1.99 2.47 1.45 2.44 1.06 2.41 1.08 2.39 1.58 2.4 2.32 2.42 2.9 2.43 2.98 2.43 2.59 2.41 2.16 2.44 2.18 2.51 2.57 2.55 2.79 2.59 3.33 2.77" filter="url(#a)"/><path d="m65-27.56.84 2.76.68 2.19.79 2.09 1 2.18 1.17 2.29 1.2 2.37 1.08 2.42.81 2.45.58 2.47.48 2.48.58 2.48.85 2.46 1.17 2.44 1.45 2.43 1.55 2.42 1.49 2.44 1.24 2.45.92 2.45.53 2.45.09 2.47-.44 2.48-.99 2.47-1.35 2.4-1.16 2.29-.39 2.15.36 2.25-.69 3.06" filter="url(#a)"/><path d="m63.7-31.69.77 2.6.76 2.45.66 2.29.63 2.29.59 2.4.56 2.49.5 2.53.41 2.52.31 2.45.21 2.42.15 2.43.1 2.49.06 2.55.03 2.58v2.54l-.05 2.44-.08 2.27-.14 2.12-.2 2-.29 2.02-.41 2.15-.53 2.36-.61 2.59-.68 2.68" filter="url(#a)"/><path d="m64.18-30.44.76 1.29 1.27 2 1.65 2.19 1.76 2.19 1.41 2.19.87 2.25.53 2.31.57 2.37.94 2.43 1.42 2.46 1.76 2.48 1.8 2.49 1.52 2.49 1 2.48.4 2.47-.11 2.45-.42 2.46-.47 2.46-.32 2.46-.07 2.47.15 2.48.23 2.47.16 2.46-.03 2.43-.23 2.38-.32 2.33-.29 2.27-.14 2.2.03 2.14.1 2.07.02 2.03-.09 2.02-.12 2.03.05 1.91.08 1.48" filter="url(#a)"/><path d="m63.3-32.7 1.11 1.54 1.15 2.18 1.22 2.29 1.14 2.3.92 2.33.69 2.42.51 2.49.42 2.53.38 2.51.37 2.47.35 2.46.3 2.46.22 2.51.09 2.55-.05 2.55-.13 2.51-.14 2.42-.09 2.29.01 2.18.08 2.11.08 2.14-.02 2.24-.17 2.39-.35 2.54-.49 2.62-.54 2.54-.43 2.15.13 1.11" filter="url(#a)"/><path d="m61.73-36.2 2.04 2.28 1.67 2.3 1.09 2.18 1.09 2.15 1.18 2.17 1.12 2.18 1.04 2.19 1.09 2.24 1.28 2.3 1.55 2.35 1.77 2.4 1.87 2.45 1.82 2.46 1.63 2.49 1.37 2.48L84.46.89l.96 2.45.95 2.45 1.04 2.44 1.18 2.45 1.21 2.46 1.07 2.46.79 2.47.53 2.47.4 2.49.46 2.48.61 2.42.65 2.3.55 2.17.64 2.26 1.64 3.07" filter="url(#a)"/><path d="m61.59-36.75 2.45 1.33 4.98 1.97 3.27 2.13 1.29 2.22.72 2.26.89 2.3.99 2.35.85 2.41.75 2.47.93 2.51 1.53 2.5 2.43 2.47 3.42 2.46L90.3-4.9l4.66 2.51L99.7.16l4.58 2.56 4.33 2.53 4.07 2.43 3.81 2.3 3.49 2.16 3.06 2.07 2.53 2.08 1.86 2.19 1.13 2.38.72 2.6.73 2.78-.14 2.97" filter="url(#a)"/><path d="m60.81-38.6 7.1 2.29 4.52 2.32.18 2.26-.37 2.19.93 2.18 2.19 2.17 2.7 2.18 2.68 2.2 2.5 2.24 2.41 2.29 2.33 2.35 2.05 2.4 1.48 2.44.7 2.46-.07 2.48-.59 2.49-.68 2.47-.3 2.45.43 2.45 1.34 2.44 2.14 2.45 2.57 2.45 2.5 2.46 1.95 2.47 1.16 2.48.58 2.5.56 2.51 1.17 2.44 1.99 2.27 2.08 1.94.56 1.53" filter="url(#a)"/><path d="m60.4-38.93 3.42 1.76 3.19 1.76 4.19 1.94 3.99 2.09 2.77 2.19 1.67 2.24 1.53 2.29 2.38 2.33 3.58 2.4 4.27 2.47 4.04 2.49 3 2.5 1.74 2.46.86 2.44.74 2.45 1.33 2.5 2.26 2.55 3.08 2.6 3.45 2.58 3.3 2.49 2.68 2.3 1.68 2.1.72 1.92.68 1.9 2.32 2.05 2.78 2.12" filter="url(#a)"/><path d="m57.13-45.51 2.26 2.39 3.59 2.22 3.53 2.17 2.39 2.19 1.43 2.21 1.17 2.2 1.43 2.18 1.87 2.16 2.15 2.15 2.15 2.15 1.9 2.16 1.58 2.19 1.36 2.25 1.36 2.3 1.58 2.35 1.95 2.4 2.32 2.44 2.5 2.49 2.37 2.54L97.94.15l1.41 2.42 1.22 2.15 1.01 1.29" filter="url(#a)"/><path d="m55.41-48.48 8.69 1.38.15 2.27.25 2.36 2.23 2.29 3.53 2.2 3.43 2.14 2.38 2.11 1.24 2.13.66 2.18.76 2.23 1.3 2.27 1.86 2.34 2.15 2.39 2.17 2.46 2.09 2.48 2.1 2.49 2.34 2.47 2.74 2.45 3.15 2.45 3.45 2.49 3.54 2.57 3.35 2.64 2.9 2.65 2.43 2.56 2.41 2.37 3.33 2.04 4.71 1.66 2.51 1.59" filter="url(#a)"/><path d="m54.29-49.9 1.94 2.25 1.25 2.18 1.19 2.18 1.24 2.18 1.26 2.19 1.22 2.19 1.15 2.2 1.09 2.19 1.05 2.18 1.04 2.17 1.03 2.15.99 2.15.9 2.16.77 2.18.62 2.24.48 2.29.35 2.35.27 2.38.23 2.42.23 2.5.25 2.6.29 2.53.19 2.09" filter="url(#a)"/><path d="m54.29-49.9 1.86 2.28 2.88 2.2 4.68 2.2 5.07 2.21 3.88 2.21 2.44 2.21 1.82 2.22 2.18 2.21 2.99 2.2 3.65 2.19 3.81 2.18 3.49 2.19 2.82 2.2 2.05 2.24 1.36 2.28.84 2.33.48 2.38.29 2.42.26 2.46.4 2.48.81 2.49 1.46 2.48 2.25 2.44 3.05 2.42 3.71 2.43 4.14 2.47 4.37 2.5 4.53 2.42 4.31 2.17 2.02 1.76" filter="url(#a)"/><path d="m52.88-52.33 2.13 2.35 2.83 2.27 2.87 2.23 3.57 2.22 4.66 2.22 5 2.22 4.12 2.22 2.53 2.22 1.16 2.22.57 2.21.8 2.2 1.47 2.2 2.15 2.2 2.54 2.22 2.64 2.25 2.58 2.29 2.52 2.35 2.5 2.39 2.47 2.42 2.37 2.47 2.19 2.48L108.62-2l2.23 2.48 2.79 2.46 3.64 2.45 4.45 2.45 4.83 2.46 4.55 2.46 3.76 2.46 2.84 2.45 1.97 2.47.88 2.55-.39 2.57-.58 2.45" filter="url(#a)"/><path d="m51.66-53.83 2.77 1.48 2.81 1.79 3.71 1.78 4.01 1.88 3.7 2.03 2.89 2.15 1.87 2.19.97 2.17.48 2.14.5 2.11.93 2.13 1.53 2.15 2.07 2.19 2.41 2.24 2.59 2.29 2.77 2.36 3.11 2.44 3.56 2.53 3.9 2.56 3.72 2.5 2.97 2.3 2.24 2.05 2.68 2.02 3.79 2.7" filter="url(#a)"/><path d="m48.94-57.08 2.07 1.82 1.77 1.73 2.3 1.76 3.05 1.89 3.47 2.03 3.42 2.11 3.01 2.16 2.49 2.18 2.07 2.19 1.87 2.2 1.84 2.21 1.99 2.2 2.27 2.19 2.71 2.18 3.25 2.17 3.8 2.16 4.13 2.17 4.18 2.19 3.92 2.24 3.56 2.3 3.32 2.36 3.29 2.37 3.43 2.41 3.57 2.53 3.43 2.77 1.71 2.67" filter="url(#a)"/><path d="m48.94-57.08 2.82 1.84 2.54 1.75 1.74 1.79 1.78 1.92 2.48 2.05 3.21 2.14 3.46 2.18 3.12 2.21 2.42 2.21 1.68 2.23 1.15 2.22.94 2.22.98 2.21 1.22 2.21 1.59 2.2 2.02 2.21 2.47 2.23 2.92 2.25 3.3 2.3 3.56 2.34 3.72 2.39 3.78 2.43 3.79 2.46 3.79 2.48 3.73 2.5 3.56 2.48 3.23 2.46 2.72 2.45 2.19 2.46 1.81 2.46 1.79 2.47 2.11 2.46 2.51 2.43 2.6 2.46 2.28 2.62 3.57 2.58m-92.58-82.3 1.71 1.84 1.54 1.74 1.35 1.79 1.35 1.92 1.39 2.04 1.42 2.14 1.39 2.17 1.3 2.21 1.21 2.21 1.12 2.22 1.04 2.22.98 2.22.93 2.21.89 2.2.87 2.2.89 2.2.93 2.22 1 2.24 1.04 2.29 1.07 2.34 1.03 2.38.93 2.42.8 2.47.64 2.48.52 2.5.41 2.48.34 2.46.24 2.43.12 2.44-.05 2.48-.2 2.51-.23 2.43-.06 2.18.34 1.77" filter="url(#a)"/><path d="m47.6-58.82 2.77 1.99 2.59 2.15 2.18 2.03 2.6 1.93 3.13 1.92 3.12 1.97 2.51 2.06 1.64 2.14.93 2.17.64 2.17.71 2.17 1 2.16 1.29 2.18 1.49 2.2 1.57 2.24 1.57 2.29 1.51 2.35 1.41 2.4 1.3 2.44 1.13 2.48.94 2.5.76 2.48.6 2.48.52 2.48.5 2.52.57 2.57.7 2.63.89 2.61 1.12 2.54 1.31 2.36 1.38 2.1 1.05 1.88.3 1.86.32 2.33" filter="url(#a)"/><path d="m47.6-58.82 2.1 1.97 2.31 2.12 2.22 2.02 2.22 1.91 2.25 1.88 2.25 1.94 2.22 2.03 2.12 2.11 1.97 2.17 1.82 2.16 1.7 2.13 1.65 2.13 1.63 2.13 1.58 2.16 1.52 2.19 1.53 2.23 1.73 2.29 2.11 2.35 2.54 2.44 2.75 2.55 2.6 2.61 2.15 2.56 1.75 2.3 1.81 1.8 1.44 1.58" filter="url(#a)"/><path d="m46.15-60.4 9.06 1.65.44 1.93-.66 2.03.13 1.99 1.22 1.92 2.28 1.9 3.13 1.96 3.64 2.03 3.74 2.11 3.57 2.15 3.31 2.16 3.13 2.14 3.08 2.14 3.05 2.13L88.16-30l2.6 2.2 2.21 2.23 1.95 2.29 1.92 2.36 2.05 2.44 2.16 2.55 2.13 2.61 2.13 2.57 2.41 2.31 2.49 1.8 1.7 1.58" filter="url(#a)"/><path d="m45.58-61.05 2 2.09 1.94 1.81 2.18 1.73 2.28 1.73 2.28 1.78 2.24 1.88 2.21 1.99 2.2 2.07 2.22 2.12 2.22 2.16 2.18 2.18 2.09 2.19 1.97 2.19 1.9 2.2 1.89 2.18 1.97 2.17 2.22 2.16 2.62 2.14 3.08 2.11 3.34 2.08 3.14 2.16 2.65 2.32 3.01 1.94M42.47-64.09l2.68 1.59 3.34 1.37 2.98 1.31 2.89 1.46 3.01 1.68 3.01 1.81 2.89 1.89 2.86 1.91 2.98 1.93 3.13 1.98 3.15 2.03 3.03 2.1 2.85 2.14L84-38.74l2.78 2.15 3.04 2.13 3.41 2.15 3.73 2.16 3.9 2.2 3.88 2.24 3.81 2.28 3.95 2.35 4.38 2.44 4.95 2.57 4.99 2.68 3.77 2.71 2.06 2.42 4.66 1.06" filter="url(#a)"/><path d="m39.96-66.18 2.92 2.42L45.07-62l2.56 1.56 3.62 1.58 4.6 1.63 5.1 1.69 5.14 1.75 4.92 1.81 4.7 1.89 4.54 1.98 4.43 2.06L89-43.93l4.06 2.15 3.57 2.19 2.82 2.2 1.92 2.2 1.19 2.21 1 2.19 1.59 2.19 2.9 2.17 4.46 2.16 5.68 2.13 6.22 2.14 6.28 2.2 6.42 2.35 7.31 2.51 7.94 2.87" filter="url(#a)"/><path d="m38.38-67.37 3.19 1.01 3.14 1.72 1.78 1.68 1.33 1.54 1.61 1.47 2.22 1.53 2.81 1.65 3.14 1.78 3.19 1.84 3.11 1.89 3.1 1.92 3.29 1.96 3.61 2.02 3.91 2.09 4.01 2.13 3.81 2.15 3.31 2.14 2.63 2.12 1.94 2.12 1.52 2.14 1.58 2.19 2.17 2.21 2.94 2.21 3.37 2.23 3.11 2.3 3.31 2.31" filter="url(#a)"/><path d="m37.51-68.16 3.57.99 4.34 1.52 3.61 1.7 3.2 1.67 3.01 1.61 2.82 1.6 2.6 1.63 2.46 1.66 2.45 1.71 2.62 1.77 2.83 1.85 2.96 1.94 2.94 2.03 2.84 2.09 2.72 2.14 2.67 2.16 2.74 2.19 2.97 2.21 3.25 2.22 3.25 2.16 3.01 1.94 4.19 1.81" filter="url(#a)"/><path d="m37.51-68.16 1.66 1.01 3.23 1.55 3.83 1.72 3.7 1.69 3.17 1.64 2.58 1.64 2.16 1.66 2.05 1.7 2.2 1.76 2.51 1.83 2.9 1.91 3.3 1.98 3.7 2.06 4.1 2.12 4.57 2.16 5.07 2.19 5.52 2.21 5.75 2.21 5.62 2.21 5.07 2.21 4.25 2.2 3.42 2.18 2.87 2.18 2.66 2.18 2.63 2.21 2.5 2.25 2.16 2.32 1.8 2.36 1.86 2.38 2.75 2.36 4.19 2.51 4.63 3.54" filter="url(#a)"/><path d="m33.09-71.2 3.24 1.04 1.54 1.17 1.35 1.31 1.45 1.46 1.58 1.55 1.69 1.56 1.76 1.56L47.52-60l1.88 1.61 1.95 1.68 1.97 1.77 1.95 1.84 1.9 1.89 1.8 1.94 1.72 1.99 1.65 2.04 1.65 2.09 1.65 2.13 1.69 2.15 1.68 2.16 1.63 2.16 1.51 2.16 1.37 2.18 1.25 2.22 1.21 2.25 1.23 2.31 1.3 2.37 1.27 2.46 1.14 2.56.9 2.62.66 2.59.53 2.34.61 1.83.89 1.6" filter="url(#a)"/><path d="m29.11-73.37 2.42 1.06 2.82 1.26 3.02 1.29 3.15 1.33 3.49 1.4 3.89 1.5 4.02 1.58 3.68 1.61 3 1.64 2.22 1.65 1.61 1.68 1.39 1.72 1.65 1.77 2.3 1.84 3.14 1.9 3.85 1.98 4.22 2.05L83.09-44l3.58 2.16 2.79 2.18 2 2.21 1.42 2.22 1.18 2.22 1.3 2.21 1.68 2.21 2.22 2.19 2.84 2.19 3.47 2.19 4.15 2.22 4.82 2.25 5.26 2.33 5.17 2.37 4.57 2.38 4.21 2.37 5.03 2.52 4.5 3.55" filter="url(#a)"/><path d="m29.11-73.37 2.47 1.06 2.6 1.25 2.72 1.28 2.59 1.32 2.45 1.39 2.36 1.49 2.26 1.57 2.19 1.61 2.19 1.62 2.27 1.65 2.4 1.67 2.49 1.7 2.46 1.75 2.36 1.81 2.24 1.89 2.19 1.96 2.29 2.04 2.51 2.1 2.73 2.15 2.84 2.19 2.76 2.2 2.53 2.22 2.25 2.21 2.07 2.21 2.04 2.2 2.19 2.19 2.47 2.17 2.79 2.12 2.97 2.06 2.82 2.19 1.72 3.39" filter="url(#a)"/><path d="m27.24-74.61 2.65 1.12 2.49 1.15 1.96 1.22 1.79 1.26 1.87 1.3 2.02 1.37 2.15 1.47 2.27 1.54 2.35 1.58 2.36 1.61 2.25 1.62 2.05 1.63 1.84 1.67 1.7 1.7 1.7 1.75 1.85 1.83 2.06 1.92 2.27 2.02 2.42 2.1 2.54 2.15 2.6 2.15 2.43 2.13 1.86 2.09L78-34.24M26.73-74.81l1.58 1.07.6 1.12.53 1.16.85 1.18 1.07 1.24 1.08 1.33 1.02 1.43.91 1.48.73 1.53.45 1.53.15 1.56-.15 1.6-.37 1.67-.57 1.75-.8 1.81-1.07 1.87-1.36 1.92-1.56 1.97-1.62 2.02-1.47 2.09-1.17 2.13-.86 2.15-.68 2.15-.71 2.13-.83 2.13-.87 2.16-.88 2.2-1.31 2.23L17-23.99l-3.29 2.22-1.41 2.42m13.63-55.58-2.55-1.22-1.72-.87-1.61-.72-1.75-.63-1.9-.55-1.99-.46-2.06-.39-2.15-.32-2.2-.26-2.23-.2-2.25-.13-2.27-.06-2.32.02-2.38.08-2.42.16-2.42.23-2.38.28-2.31.33-2.26.4-2.24.47-2.27.57-2.33.67-2.41.78-2.47.85-2.48.87-2.24.75-.88.21" filter="url(#a)"/><path d="m21.63-76.95-2.8-1.01-1.51-.6-1.24-.49-1.48-.45-1.92-.42-2.31-.37-2.54-.29-2.63-.2-2.66-.1-2.74-.03-2.95.05-3.25.12-3.66.17-4.05.25-4.39.32-4.59.4-4.64.47-4.64.54-4.72.61-4.92.67-5.05.76-4.91.94" filter="url(#a)"/><path d="m20.82-77.38-3.46-1.09-2.35-.63-1.81-.43-1.74-.35-1.85-.3-2.02-.24-2.15-.18-2.25-.11-2.36-.03-2.44.05-2.52.12-2.57.19-2.61.26-2.66.32-2.75.39-2.88.46-3.04.54-3.21.61-3.36.7-3.48.76-3.56.82-3.57.89-3.56.95-3.48 1.01-3.38 1.1-3.27 1.18-3.23 1.27-3.3 1.37-3.45 1.45-3.59 1.51-3.59 1.55-3.4 1.56-3.22 1.58-3.42 1.66-4.09 1.76-4.52 1.77-3.04 1.56" filter="url(#a)"/><path d="m17.33-78.43-.81-.28-1.55-.4-1.95-.44-2.12-.42-2.17-.36-2.21-.27-2.24-.18-2.32-.08H-.49l-2.6.07-2.74.15-2.87.21-2.96.29-2.97.37-2.96.44-2.88.51-2.79.58-2.7.65-2.66.72-2.7.78-2.87.86-3.17.94-3.55 1.01-3.98 1.1-4.37 1.17-4.69 1.23-4.93 1.29-5.09 1.31-5.03 1.3-4.5 1.22-3.61 1.14-4.94 1.48" filter="url(#a)"/><path d="m16.73-78.61-1.64-.47-2.1-.49-2.27-.44-2.34-.36-2.32-.27-2.25-.17-2.21-.07-2.19.01-2.22.09-2.24.16-2.29.22-2.31.31-2.32.38-2.31.45-2.29.53-2.24.59-2.2.67-2.18.74-2.18.81-2.2.88-2.24.96-2.28 1.04-2.3 1.1-2.31 1.17-2.32 1.23-2.33 1.27-2.34 1.3-2.35 1.33-2.34 1.36-2.34 1.43-2.3 1.52-2.26 1.63-2.17 1.75-2.07 1.81-1.99 1.79-2.04 1.64-1.94 1.23" filter="url(#a)"/><path d="m16.73-78.61.45-.46-1.98-.48-2.9-.44-2.96-.38-2.71-.28-2.45-.18-2.28-.08-2.27-.01-2.34.07-2.47.13-2.6.2-2.7.26-2.76.34-2.77.42-2.8.49-2.87.55-2.98.62-3.16.68-3.32.74-3.41.79-3.43.86-3.53.98-4.07 1.17" filter="url(#a)"/><path d="m16.73-78.61-1.03-.47-2.28-.48-2.45-.44-2.41-.37-2.33-.27-2.25-.17-2.24-.08-2.26.01-2.33.08-2.39.15-2.45.22-2.49.3-2.53.36-2.56.45-2.6.51-2.63.59-2.67.65-2.73.73-2.79.79-2.88.86-2.98.94-3.06 1.02-3.09 1.1-3.07 1.17-3.03 1.24-3.02 1.27-3.04 1.31-3 1.29-2.82 1.26-2.65 1.27-2.9 1.44-3.25 1.78" filter="url(#a)"/><path d="m16.73-78.61-1.68-.47-2.16-.48L10.6-80l-2.3-.37-2.26-.27-2.26-.17-2.31-.08-2.4.01-2.53.09-2.62.15-2.7.23-2.75.29-2.79.38-2.86.44-2.97.53-3.09.59-3.23.66-3.3.73-3.29.8-3.17.87-3.01.95-2.84 1.02-2.77 1.11-2.83 1.17-2.99 1.23-3.27 1.27-3.55 1.29-3.81 1.31-3.96 1.31-4.05 1.36-4.18 1.46-4.6 1.65-5.38 1.95-5.52 2.56" filter="url(#a)"/><path d="m13.35-79.48-.59-.16-1.31-.28-1.67-.3-1.92-.26-2.15-.18-2.41-.1-2.67-.03-2.93.06-3.11.13-3.19.19-3.17.27-3.1.32-3 .39-2.99.47-3.06.54-3.25.62-3.5.7-3.71.76-3.8.83-3.72.89-3.47.95-3.17 1.01-2.92 1.1-2.84 1.18-2.95 1.28-3.2 1.37-3.53 1.45-3.89 1.51-4.27 1.54-4.58 1.56-4.64 1.58-4.33 1.66-3.99 1.75-4.53 1.77-6.49 1.56" filter="url(#a)"/><path d="m13.35-79.48.09-.16-1.64-.28-2.15-.31-2.26-.25-2.31-.18-2.4-.1-2.51-.02-2.58.05-2.6.13-2.56.2-2.47.27-2.4.33-2.41.39-2.51.47-2.72.55-3 .62-3.32.7-3.64.77-3.9.84-4.11.89-4.24.96-4.32 1.03-4.3 1.1-4.21 1.19-4.04 1.28-3.87 1.37-3.77 1.45-3.81 1.5-4.04 1.55-4.47 1.57-5.01 1.6-5.54 1.63-5.84 1.65-5.74 1.63-5.47 1.55-5.44 1.54-5.39 2.06" filter="url(#a)"/><path d="m8.49-80.6-2.98-.3-2.14-.12-2.05-.01-2.24.05-2.42.11-2.52.17-2.49.23-2.43.31-2.39.38-2.38.46-2.4.53-2.4.6-2.41.67-2.47.74-2.6.8-2.84.88-3.16.95-3.53 1.03-3.86 1.11-4.07 1.17-4.12 1.23-3.93 1.27-3.51 1.3-3.03 1.3-2.7 1.31-2.8 1.35-3.4 1.46-4.31 1.65-5.17 1.94-6.39 2.55" filter="url(#a)"/><path d="m3.22-81.13-1.87.04-2.04.08-2.18.11-2.21.16-2.2.23-2.18.31-2.17.39-2.16.47-2.14.54-2.12.6-2.09.67-2.04.73-2.01.81-2 .87-1.99.95-2.01 1.03-2.04 1.11-2.06 1.17-2.06 1.24-2.03 1.27-1.97 1.29-1.88 1.29-1.78 1.28-1.66 1.31-1.59 1.4-1.59 1.55-1.45 1.49" filter="url(#a)"/><path d="m2.63-80.94-1.86-.02-2.38.06-2.7.16-2.7.24-2.58.29-2.41.34-2.3.39-2.27.46-2.31.55-2.33.64-2.33.72-2.3.78-2.25.84-2.26.89-2.36.94-2.55 1.01-2.79 1.09-3.05 1.18-3.25 1.27-3.36 1.38-3.4 1.45-3.36 1.52-3.23 1.54-3.05 1.53-2.95 1.54-3.04 1.65-3.04 1.85-2.21 1.79" filter="url(#a)"/><path d="m1.35-81.15-2.04.13-2.27.1-2.5.16-2.71.23-2.87.31-2.92.4-2.89.47-2.8.54-2.71.61-2.67.67-2.69.74-2.87.8-3.19.88-3.68.95-4.23 1.03-4.72 1.11-4.97 1.18-4.91 1.23-4.58 1.27-4.25 1.29-4.12 1.29-4.26 1.28-4.46 1.3-4.63 1.41-4.67 1.54-2.76 1.49" filter="url(#a)"/></g><path fill="none" stroke="#000" stroke-linejoin="round" stroke-width="3" d="M-9.86 32.73Q10.26 47.37.2-4.148" filter="url(#a)"/><path fill="#D77F8C" stroke="#000" stroke-linejoin="round" stroke-width="3" d="m-15.89 56.59.07-.53.08-.53.1-.51.1-.51.11-.5.12-.5.13-.48.14-.48.15-.47.16-.46.16-.45.18-.44.18-.43.19-.43.2-.42.21-.4.21-.4.23-.39.23-.38.23-.37.25-.36.25-.35.26-.34.27-.32.27-.32.28-.31.29-.3.29-.29.3-.27.31-.27.31-.25.31-.25.33-.23.33-.22.33-.21.34-.19.35-.19.35-.17.35-.16.36-.15.37-.14.37-.12.37-.12.38-.09.38-.09.39-.07.39-.06.39-.05.4-.03.4-.02.41-.01.41.01.41.02.42.04.41.05.42.06.43.08.42.09.43.11.43.12.43.14.44.15.44.17.43.18.44.2.45.22.44.23.44.24.45.26.44.28.45.29.45.31.45.33.45.34.45.36.45.38.44.39.45.41.45.43.45.45.45.46.45.48.45.5.44.51.45.54.44.55.44.57.45.59.44.61.43.62.44.65.44.66.43.68.43.7.43.72.42.75.43.75.42.78.42.8.41.82-.41-.82-.42-.8-.42-.78-.43-.75-.42-.75-.43-.72-.43-.7-.43-.68-.44-.66-.44-.65-.43-.62-.44-.61-.45-.59-.44-.57-.44-.55-.45-.54-.44-.51-.45-.5-.45-.48-.45-.46-.45-.45-.45-.43-.45-.41-.44-.39-.45-.38-.45-.36-.45-.34-.45-.33-.45-.31-.45-.29-.44-.28-.45-.26-.44-.24-.44-.23-.45-.22-.44-.2-.43-.18-.44-.17-.44-.15-.43-.14-.43-.12-.43-.11-.42-.09-.43-.08-.42-.06-.41-.05-.42-.04-.41-.02-.41-.01-.41.01-.4.02-.4.03-.39.05-.39.06-.39.07-.38.09-.38.09-.37.12-.37.12-.37.14-.36.15-.35.16-.35.17-.35.19-.34.19-.33.21-.33.22-.33.23-.31.25-.31.25-.31.27-.3.27-.29.29-.29.3-.28.31-.27.32-.27.32-.26.34-.25.35-.25.36-.23.37-.23.38-.23.39-.21.4-.21.4-.2.42-.19.43-.18.43-.18.44-.16.45-.16.46-.15.47-.14.48-.13.48-.12.5-.11.5-.1.51-.1.51-.08.53" filter="url(#a)"/></svg>