<svg xmlns="http://www.w3.org/2000/svg" width="500" height="500" viewBox="-100 -100 200 200"><defs><clipPath id="c"><path d="m32.45-11.7-.15-.25-.2-.23-.23-.23-.28-.22-.31-.21-.36-.21-.39-.19-.43-.19-.46-.18-.5-.17-.54-.16-.57-.16-.6-.15-.64-.14-.66-.14-.65-.16-.7-.15-.75-.14-.79-.13-.84-.13-.88-.12-.92-.11-.97-.11-1-.1-1.03-.09-1.07-.08-1.09-.08-1.12-.06-1.14-.06-1.17-.06-1.18-.04-1.19-.04-1.21-.03-1.21-.02L6-16.25l-1.23-.01H3.55l-1.22.01-1.22.02-1.21.02-1.2.04-1.19.04-1.17.04-1.16.06-1.14.06-1.12.07-1.1.08-1.07.09-1.05.09-1.03.1-1 .1-.97.12-.94.12-.91.13-.89.13-.85.14-.82.15-.8.15-.76.16-.73.17-.71.17-.68.18-.64.18-.63.19-.59.2-.58.2-.54.2-.53.21-.5.22-.47.22-.45.23-.43.24-.41.24-.38.25-.36.25-.34.26-.32.27-.3.27-.28.28L-27.27.7l.46.63.48.63.5.63.51.63.52.64.53.63.55.63.56.62.57.63.58.61.6.61.6.6.62.58.63.58.65.57.66.56.67.56.69.54.7.53.71.51.73.49.74.47.75.44.77.42.77.38.79.36.8.32.81.28.82.25.82.21.84.17.84.12.86.09.85.04h.87l.87-.05.88-.09.88-.13.89-.18.89-.23.9-.26.9-.31.9-.35.9-.39.91-.42.91-.47.91-.49.91-.54.9-.56.91-.59.91-.61.9-.64.91-.66.9-.68.89-.69.89-.71.89-.71.88-.72.88-.72.86-.72.86-.72.85-.71.84-.7.83-.69.7-.62.69-.62.67-.61.66-.61.65-.6.63-.6.62-.59.6-.58.58-.57.56-.55.54-.55.52-.53.49-.52.46-.5.44-.48"/></clipPath><clipPath id="b"><path d="m-36.02-10.43.19-.19.22-.18.26-.18.3-.18.33-.17.37-.17.4-.16.44-.16.47-.15.5-.16.54-.14.57-.14.6-.14.63-.14.65-.12.63-.16.68-.14.73-.15.77-.14.82-.13.86-.13.9-.12.95-.11.98-.11 1.01-.11 1.05-.09 1.08-.09 1.1-.08 1.13-.08 1.16-.07 1.17-.06 1.19-.05 1.2-.05 1.21-.04 1.22-.03 1.23-.02 1.22-.02h2.46l1.22.01 1.21.01 1.21.03 1.19.03 1.18.04 1.16.05 1.15.06 1.13.06 1.1.07 1.09.08 1.06.08 1.04.1 1.01.1.98.1.96.11.93.12.91.13.87.13.85.13.82.14.79.15.76.15.74.15.71.16.68.16.66.17.64.17.62.17.59.18.57.18.55.19.52.19.5.2.49.2.46.2.44.2.42.22.4.21.38.22.37.22L27.92.9l-.37.53-.38.53-.4.54-.4.54-.42.54-.43.54-.44.54-.46.54-.47.53-.47.53-.5.53-.5.52-.51.51-.53.5-.54.49-.56.49-.57.49-.58.47-.6.47-.62.45-.63.44-.65.41-.66.4-.68.38-.69.35-.71.33-.73.3-.74.27-.75.24-.77.2-.79.18-.8.14-.81.1-.83.07-.84.04-.86-.01-.87-.04-.88-.08-.9-.12-.91-.15-.92-.19-.93-.23-.95-.26-.95-.3-.97-.33-.97-.37-.98-.4-.99-.42-1-.46-1.01-.48-1.01-.5-1.02-.53-1.02-.55-1.02-.57-1.03-.58-1.03-.59-1.03-.61-1.03-.62-1.02-.62-1.02-.62-1.02-.62-1.01-.63-1.01-.62-.99-.61-.84-.53-.83-.53-.82-.54-.8-.53-.8-.52-.78-.52-.77-.52-.75-.51-.73-.5-.71-.49-.69-.48-.67-.47-.65-.46-.62-.44-.59-.43"/></clipPath><filter id="a"><feTurbulence baseFrequency=".05" numOctaves="3" result="noise" type="noise"/><feDisplacementMap in="SourceGraphic" in2="noise" scale="2"/></filter></defs><rect width="100%" height="100%" x="-100" y="-100" fill="linen"/><path fill="#FFDAB9" stroke="#000" stroke-linejoin="round" stroke-width="1.667" d="m79.61 1.51-.01.63.22-.23-.1 1.21-.22 1.62.18.66-.3 2.06-.11 1.18-.06.54-.17 1.91-.32 1.58-.08-1.04-.42 3.39-.02-.75-.76 3.48-.13.92-.67 2.12-.04 1.04.21-.72-.73 2.24-.17.66-.81 1.82-.24.94-.03.2-1.54 2.99.8-1.77-1.06 2.55-.16.59-.18.08-1.14 2.52v-.21l-.72 1.35-1.54 2.72-.58 1.08.47-.84-2.25 3.43 1.23-1.67-.94 2.01-1.31 1.32-.68 1.31-2.07 2.72.82-1.32-1.15 1.34-.69.8-.53.94-1.67 1.52.24.02-1.63 1.73.15-.41-2.23 2.51-.39.3-2.14 1.83-.53.57-.57.69-.57.46.53-.38-2.83 2.29-.86.6.01-.04-1.33 1.03-1.16.83.84-.51-2.88 1.95.34-.22-1.35.69-2.16 1.37-1.76.93-.64.46.3-.05-2.15.91-2.74 1.36 2.1-.73-4.12 1.6-.77.26-1.13.63-1.21.51-.75.31.96-.34-3.49 1.25-.38-.08-1.85.68-.04-.05-1.37.67-2.48.46-1.03.44-1.23.11-1.59.55-.26-.27-2.2.35-.87.14-1 .31.37-.28-1.27.46-2.31.36.72-.42-.89.41-4.57.32-.72-.28.42.14-2.24-.02-1.87.01-1.07.06-.69-.13-1.5-.11-1.68.06.76-.12-2.57.21-.34-.26H-9.3l-.89-.19-3.04-.37-1.68-.55-.1-.05-.02.04-3.89-.75.93.17-2.87-.57-.79-.3.49.33-3.14-1.19-.93-.2-.57-.12-2.93-1.21 1.71.79-.94-.16-3.87-1.83 1.99.82-4.13-1.6-1.17-.6 1.78.73-4.14-1.82.56.37-2.27-1.38-1.03-.66-.59-.33-1.25-.74-.01.09-2.9-1.64.12-.17-.91-.49-1.74-1.62-.07.13-1.95-1.54.75 1.01-3.04-2.69-.96-.89.91.97-1.86-1.75-2.53-1.95 2.08 1.55-1.98-1.39-1.91-2.22.44.5-.29-.32-1.83-2.1-1.41-1.4-1.08-1.53.06.26-1.11-.97-.06-.56-1.42-1.72-.14-.54-.86-1.04.27.62-1.63-2.71-1.44-1.72-.69-1.25-.37-.95-.07-.24-.62-.69-.73-1.72-1.1-1.71.16-.66-.7-.52-.52-1.97-.02.48-.85-2.1-.23-.25-.54-1.94-.47-1.46-.51-1.83-.58-.57-.16-.29.28-.28-1.13-3.71v-.17l.24.77-.57-2.79-.43-.97-.5-3.23.15.86.04-.8-.74-2.8.29 1.52-.39-2.04.18-2.48-.31-1.31.21.07-.14-3.17-.14.02-.19-2.33.41-1.99-.35-.36.15.02.13-.29.05-1.75.1-1.86-.13.09.5-3.34.37-1.77.2-.76-.2.57.12-1.43.7-2.38.3-.61-.02-1.61.51-.47.06-1.2.95-2.11-.08-.48.09-.01.36-1.27.88-2.86.78-2.14-.25.57 1.07-1.48-.17-.23 1.05-2.28.11-.06.25-.23.37-.62.73-1.61.6-1.61.49-.51.62-.93 1.28-2.16 1.29-2.16.77-.94.58-.62.62-1.38-.31.56 1.77-2.44-.2.5.92-1.52h.44l.57-.95.72-.26 2.38-3.19.19-.14.9-.6.45-.62.17.08 2.42-2.59-.88.68 2.1-1.71 1.88-1.75-.58.99 1.84-1.74L-47-62l-1.1.78 1.23-.99 1.96-1.34.2-.01.74-.43-.07-.34 2.66-1.12.77-.84.62-.04 2.29-1.58 1.91-.61-.1-.26 2.2-1.01-.77.65 1.88-1.07.13-.03 2.95-1.2.15-.16 1.31-.17-.27-.24 2.68-.69 1.74-.71 1.42-.25 1.06-.48-1.42.6L-18.1-75l.68-.28-1.59.45 3.16-.79.7-.01.27-.17 1.08.11 4.37-.93.07.21.12-.17 2.4-.24.12.25.91-.29 1.45-.13 2.87.1.08-.18 1.7-.03 1.38.33.37-.15.92.16 3.68-.12-2.2.2 4.85.26-.8-.11 2.61.46v-.23l1.92.52.64.16 1.35-.02.77.29.26.03 3.08.75.77-.03.51.15 2.01.37.56.55 1.46.15 3.09 1.01-.47-.09 1.97.95-.64-.39 3 1.05.5.52 1.07.22-.63-.4 1.88 1.14 2.6 1.31.07.01 1.89.64.53.2 2.19 1.64 1.59.59-1.7-.9 2.89 1.6 1.97 1.3-.7-.07 1.06.34-.09.14 2.63 1.9 1.61 1.18-.36-.26 2.39 2.38 1.42 1.06-.73-.98 1.83 1.83.99.94-.12.03.13-.2 1.92 2.24.4.34 1.84 1.95-.48-.62 1.55 1.74.29.6.5.48 2.64 3.22.7 1.17-.31-.53 1.59 2.11-.4-.51.38.98 1.32 1.79.3.41.74 1.05.8 2.01.24.14.98 2.02.84 1.53-.36-.62.9 1.85-.1-.37.44 1.41.87 1.94.67 1.14.11.82.73 1.94.91 1.92.33 1.28-.04.13-.16.06 1.27 3.94-.3-.76.53 2.42.13-.35-.24.07.71 3.17.18.07.01 1.83.43 1.64.23.98-.14-.21.1 2.86.34 1.64-.17-.4.21 2.32-.09 1.26-.02 2.1-.01.63" filter="url(#a)"/><path fill="#fff" d="m-36.02-10.43.19-.19.22-.18.26-.18.3-.18.33-.17.37-.17.4-.16.44-.16.47-.15.5-.16.54-.14.57-.14.6-.14.63-.14.65-.12.63-.16.68-.14.73-.15.77-.14.82-.13.86-.13.9-.12.95-.11.98-.11 1.01-.11 1.05-.09 1.08-.09 1.1-.08 1.13-.08 1.16-.07 1.17-.06 1.19-.05 1.2-.05 1.21-.04 1.22-.03 1.23-.02 1.22-.02h2.46l1.22.01 1.21.01 1.21.03 1.19.03 1.18.04 1.16.05 1.15.06 1.13.06 1.1.07 1.09.08 1.06.08 1.04.1 1.01.1.98.1.96.11.93.12.91.13.87.13.85.13.82.14.79.15.76.15.74.15.71.16.68.16.66.17.64.17.62.17.59.18.57.18.55.19.52.19.5.2.49.2.46.2.44.2.42.22.4.21.38.22.37.22L27.92.9l-.37.53-.38.53-.4.54-.4.54-.42.54-.43.54-.44.54-.46.54-.47.53-.47.53-.5.53-.5.52-.51.51-.53.5-.54.49-.56.49-.57.49-.58.47-.6.47-.62.45-.63.44-.65.41-.66.4-.68.38-.69.35-.71.33-.73.3-.74.27-.75.24-.77.2-.79.18-.8.14-.81.1-.83.07-.84.04-.86-.01-.87-.04-.88-.08-.9-.12-.91-.15-.92-.19-.93-.23-.95-.26-.95-.3-.97-.33-.97-.37-.98-.4-.99-.42-1-.46-1.01-.48-1.01-.5-1.02-.53-1.02-.55-1.02-.57-1.03-.58-1.03-.59-1.03-.61-1.03-.62-1.02-.62-1.02-.62-1.02-.62-1.01-.63-1.01-.62-.99-.61-.84-.53-.83-.53-.82-.54-.8-.53-.8-.52-.78-.52-.77-.52-.75-.51-.73-.5-.71-.49-.69-.48-.67-.47-.65-.46-.62-.44-.59-.43" filter="url(#a)" transform="translate(29.54 -19.23)"/><path fill="#fff" d="m32.45-11.7-.15-.25-.2-.23-.23-.23-.28-.22-.31-.21-.36-.21-.39-.19-.43-.19-.46-.18-.5-.17-.54-.16-.57-.16-.6-.15-.64-.14-.66-.14-.65-.16-.7-.15-.75-.14-.79-.13-.84-.13-.88-.12-.92-.11-.97-.11-1-.1-1.03-.09-1.07-.08-1.09-.08-1.12-.06-1.14-.06-1.17-.06-1.18-.04-1.19-.04-1.21-.03-1.21-.02L6-16.25l-1.23-.01H3.55l-1.22.01-1.22.02-1.21.02-1.2.04-1.19.04-1.17.04-1.16.06-1.14.06-1.12.07-1.1.08-1.07.09-1.05.09-1.03.1-1 .1-.97.12-.94.12-.91.13-.89.13-.85.14-.82.15-.8.15-.76.16-.73.17-.71.17-.68.18-.64.18-.63.19-.59.2-.58.2-.54.2-.53.21-.5.22-.47.22-.45.23-.43.24-.41.24-.38.25-.36.25-.34.26-.32.27-.3.27-.28.28L-27.27.7l.46.63.48.63.5.63.51.63.52.64.53.63.55.63.56.62.57.63.58.61.6.61.6.6.62.58.63.58.65.57.66.56.67.56.69.54.7.53.71.51.73.49.74.47.75.44.77.42.77.38.79.36.8.32.81.28.82.25.82.21.84.17.84.12.86.09.85.04h.87l.87-.05.88-.09.88-.13.89-.18.89-.23.9-.26.9-.31.9-.35.9-.39.91-.42.91-.47.91-.49.91-.54.9-.56.91-.59.91-.61.9-.64.91-.66.9-.68.89-.69.89-.71.89-.71.88-.72.88-.72.86-.72.86-.72.85-.71.84-.7.83-.69.7-.62.69-.62.67-.61.66-.61.65-.6.63-.6.62-.59.6-.58.58-.57.56-.55.54-.55.52-.53.49-.52.46-.5.44-.48" filter="url(#a)" transform="translate(-31.4 -18.93)"/><g fill="none" stroke="#000" transform="translate(29.54 -19.23)"><path stroke-linejoin="round" stroke-width="1.667" d="m-35.87-8.32-.17-.23-.14-.23-.11-.22-.07-.21-.04-.22.01-.21.04-.2.07-.2.11-.2.15-.19.19-.19.22-.18.26-.18.3-.18.33-.17.37-.17.4-.16.44-.16.47-.15.5-.16.54-.14.57-.14.6-.14.63-.14.65-.12.63-.16.68-.14.73-.15.77-.14.82-.13.86-.13.9-.12.95-.11.98-.11 1.01-.11 1.05-.09 1.08-.09 1.1-.08 1.13-.08 1.16-.07 1.17-.06 1.19-.05 1.2-.05 1.21-.04 1.22-.03 1.23-.02 1.22-.02h2.46l1.22.01 1.21.01 1.21.03 1.19.03 1.18.04 1.16.05 1.15.06 1.13.06 1.1.07 1.09.08 1.06.08 1.04.1 1.01.1.98.1.96.11.93.12.91.13.87.13.85.13.82.14.79.15.76.15.74.15.71.16.68.16.66.17.64.17.62.17.59.18.57.18.55.19.52.19.5.2.49.2.46.2.44.2.42.22.4.21.38.22.37.22.34.22.33.23.31.23.29.23.28.23.26.24.25.24.23.25.22.24.2.25" filter="url(#a)"/><path stroke-linejoin="round" stroke-width="2.222" d="m-36.26-7.84.2.23.25.26.3.28.34.3.39.32.42.34.46.36.5.39.53.39.56.42.59.43.62.44.65.46.67.47.69.48.71.49.73.5.75.51.77.52.78.52.8.52.8.53.82.54.83.53.84.53.99.61 1.01.62 1.01.63 1.02.62 1.02.62 1.02.62 1.03.62 1.03.61 1.03.59 1.03.58 1.02.57 1.02.55 1.02.53 1.01.5 1.01.48 1 .46.99.42.98.4.97.37.97.33.95.3.95.26.93.23.92.19.91.15.9.12.88.08.87.04.86.01.84-.04.83-.07.81-.1.8-.14.79-.18.77-.2.75-.24.74-.27.73-.3.71-.33.69-.35.68-.38.66-.4.65-.41.63-.44.62-.45.6-.47.58-.47.57-.49.56-.49.54-.49.53-.5.51-.51.5-.52.5-.53.47-.53.47-.53.46-.54.44-.54.43-.54.42-.54.4-.54.4-.54.38-.53.37-.53.36-.53.35-.53.34-.52.32-.51.31-.5.31-.51.29-.49.28-.48.28-.48.26-.48" filter="url(#a)"/><circle cx="-2.23" cy="-2.332" r="3.86" clip-path="url(#b)" filter="url(#a)"/><circle cx="-2.705" cy=".178" r="3.01" clip-path="url(#b)" filter="url(#a)"/><circle cx="-5.57" cy=".328" r="3.148" clip-path="url(#b)" filter="url(#a)"/><circle cx="-5.43" cy="-2.957" r="3.096" clip-path="url(#b)" filter="url(#a)"/><circle cx="-4.96" cy="-.962" r="3.744" clip-path="url(#b)" filter="url(#a)"/><circle cx="-2.68" cy="1.088" r="4.526" clip-path="url(#b)" filter="url(#a)"/><circle cx="-1.905" cy="-2.857" r="4.702" clip-path="url(#b)" filter="url(#a)"/><circle cx="-3.43" cy="-.692" r="4.974" clip-path="url(#b)" filter="url(#a)"/><circle cx="-5.77" cy="-1.492" r="4.512" clip-path="url(#b)" filter="url(#a)"/><circle cx="-4.54" cy="-.362" r="3.604" clip-path="url(#b)" filter="url(#a)"/></g><g fill="none" stroke="#000" transform="translate(-31.4 -18.93)"><path stroke-linejoin="round" stroke-width="2.222" d="m31.64-8.69.28-.35.23-.34.19-.32.14-.32.11-.3.05-.3.02-.28-.03-.28-.07-.26-.11-.26-.15-.25-.2-.23-.23-.23-.28-.22-.31-.21-.36-.21-.39-.19-.43-.19-.46-.18-.5-.17-.54-.16-.57-.16-.6-.15-.64-.14-.66-.14-.65-.16-.7-.15-.75-.14-.79-.13-.84-.13-.88-.12-.92-.11-.97-.11-1-.1-1.03-.09-1.07-.08-1.09-.08-1.12-.06-1.14-.06-1.17-.06-1.18-.04-1.19-.04-1.21-.03-1.21-.02L6-16.25l-1.23-.01H3.55l-1.22.01-1.22.02-1.21.02-1.2.04-1.19.04-1.17.04-1.16.06-1.14.06-1.12.07-1.1.08-1.07.09-1.05.09-1.03.1-1 .1-.97.12-.94.12-.91.13-.89.13-.85.14-.82.15-.8.15-.76.16-.73.17-.71.17-.68.18-.64.18-.63.19-.59.2-.58.2-.54.2-.53.21-.5.22-.47.22-.45.23-.43.24-.41.24-.38.25-.36.25-.34.26-.32.27-.3.27-.28.28-.26.28-.24.29-.23.29-.2.3-.19.3-.17.31-.15.31-.14.32-.12.32-.11.33" filter="url(#a)"/><path stroke-linejoin="round" stroke-width="2.222" d="m33.64-10.33-.07.27-.11.29-.15.32-.2.34-.24.37-.28.38-.31.41-.35.43-.38.44-.41.47-.44.48-.46.5-.49.52-.52.53-.54.55-.56.55-.58.57-.6.58-.62.59-.63.6-.65.6-.66.61-.67.61-.69.62-.7.62-.83.69-.84.7-.85.71-.86.72-.86.72-.88.72-.88.72-.89.71-.89.71-.89.69-.9.68-.91.66-.9.64-.91.61-.91.59-.9.56-.91.54-.91.49-.91.47-.91.42-.9.39-.9.35-.9.31-.9.26-.89.23-.89.18-.88.13-.88.09-.87.05h-.87l-.85-.04-.86-.09-.84-.12-.84-.17-.82-.21-.82-.25-.81-.28-.8-.32-.79-.36-.77-.38-.77-.42-.75-.44-.74-.47-.73-.49-.71-.51-.7-.53-.69-.54-.67-.56-.66-.56-.65-.57-.63-.58-.62-.58-.6-.6-.6-.61-.58-.61-.57-.63-.56-.62-.55-.63-.53-.63-.52-.64-.51-.63-.5-.63-.48-.63-.46-.63-.46-.62-.44-.62-.43-.61-.41-.61-.41-.6-.38-.59-.38-.58-.36-.58-.35-.57-.34-.56" filter="url(#a)"/><circle cx="-15.404" cy=".756" r="3.22" clip-path="url(#c)" filter="url(#a)"/><circle cx="-14.694" cy="-.524" r="3.338" clip-path="url(#c)" filter="url(#a)"/><circle cx="-13.969" cy="-2.669" r="4.934" clip-path="url(#c)" filter="url(#a)"/><circle cx="-16.804" cy="-2.194" r="4.53" clip-path="url(#c)" filter="url(#a)"/><circle cx="-14.689" cy=".136" r="3.512" clip-path="url(#c)" filter="url(#a)"/><circle cx="-16.154" cy="-2.749" r="3.492" clip-path="url(#c)" filter="url(#a)"/><circle cx="-14.209" cy="-1.094" r="3.544" clip-path="url(#c)" filter="url(#a)"/><circle cx="-17.064" cy="1.081" r="4.906" clip-path="url(#c)" filter="url(#a)"/><circle cx="-17.524" cy="-1.664" r="4.476" clip-path="url(#c)" filter="url(#a)"/><circle cx="-16.199" cy="-1.674" r="4.718" clip-path="url(#c)" filter="url(#a)"/></g><g fill="none" stroke="#40E0D0" stroke-linejoin="round" stroke-width="2"><path d="m-19.01-74.83 2.12-.49 1.14-.2.83-.09.73-.04.48.05.05.16-.5.3-1.05.44-1.56.59-2.07.74-2.66.92-3.39 1.16-4.33 1.46-5.36 1.77m41.22-8.82-.27.2.95.2.83.23.52.28.18.34-.15.41-.47.47-.78.53-1.09.62-1.42.7-1.77.79-2.16.89-2.59 1-3.07 1.12-3.57 1.26-4.1 1.4-4.67 1.53-5.27 1.66-5.88 1.8-6.47 1.93-7.03 2.03-7.51 2.06" filter="url(#a)"/><path d="m-14.88-75.8 1.7-.13 1.63-.18 1.02-.06.56.08.27.18.03.3-.16.4-.41.53-.7.68-1.07.82-1.48.99-1.91 1.17-2.35 1.33-2.78 1.52-3.22 1.67-3.66 1.85-4.17 2.04-4.74 2.28-5.42 2.59-6.14 2.96-6.78 3.21m114.63.79L61-49.51l.65.95.52.94.3.81-.02.55-.41.26-.78-.01-1.11-.23-1.42-.39-1.75-.55-2.07-.71-2.45-.9-2.85-1.11-3.28-1.36-3.73-1.64-4.2-1.95-4.66-2.26-5.15-2.59-5.63-2.88-6.16-3.14-6.78-3.39-7.54-3.7" filter="url(#a)"/><path d="m55.29-55.46.57.58.27.34.27.43.26.49.11.46-.12.34-.37.2-.64.09-.91-.02-1.18-.16-1.5-.33-1.88-.55-2.32-.83-2.77-1.11-3.24-1.37-3.71-1.62-4.17-1.85-4.63-2.07-5.1-2.31-5.55-2.59-6.04-2.9-6.6-3.25m.6-3.39-.23.18 1.11.15 1.1.12.84.12.52.1.18.1-.21.07-.65.05-1.13.04-1.61.02-2.11-.01-2.66-.04-3.29-.1-3.82-.18m-12.1.98.01.11 1.41-.11 1.88-.09 2.2-.06 2.5-.04h2.69l2.76.03 2.74.08 2.69.11 2.67.13 2.64.13 2.58.12 2.44.09 2.18.07 1.87.04 1.55.01 1.27.01" filter="url(#a)"/><path d="m16.04-75.32 2.23.5 1.54.33 1.4.36 1.43.41 1.48.46 1.44.46 1.33.44 1.13.39.92.33.67.25.42.16.12.04-.22-.08-.59-.21-1.02-.35-1.54-.51-2.09-.73m7.63 2.56 1.76 1.03 1.29.75.81.54.43.45.09.41-.27.36-.65.29-1.06.23-1.47.18-1.9.11-2.35.05-2.82.01-3.28-.04-3.78-.06-4.3-.11-4.89-.17-5.49-.28-6.09-.43-6.72-.59-7.44-.69-8.2-.73m83.98 18.42.66 1.2-.44.79-1.31.7-2.27.52-3.42.21-4.65-.17-5.88-.5-7.09-.78-8.26-1.01-9.4-1.24-10.6-1.46-11.87-1.7-13.21-1.97-14.39-2.41" filter="url(#a)"/><path d="m54.19-56.31.09-.06.74.68.78.78.77.77.8.82.84.87.83.88.78.83.69.75.6.68.51.6.4.51.26.37.07.18-.14-.06-.35-.3-.57-.53-.77-.75-.97-.95-1.21-1.19-1.5-1.5-1.87-1.89-2.24-2.36" filter="url(#a)"/><path d="m56.16-54.49.38.37.27.68-.24.47-.87.16-1.54-.14-2.21-.4-2.87-.61-3.54-.85-4.27-1.15-5.09-1.53-6.01-1.99-7.03-2.45L15-64.78l-9.3-3.21-10.24-3.58M71.29-34.1l-.02.77-1.26.18-2.32-.06-3.37-.22-4.45-.37-5.58-.55-6.78-.82-8.05-1.11-9.37-1.45-10.75-1.84-12.18-2.27-13.63-2.7-15.06-3.07L-38-50.92" filter="url(#a)"/><path d="m45.53-63.05.68.36.5.63.31.76-.09.75-.58.66-1.11.54-1.67.4-2.26.25-2.85.13-3.43.02-4.01-.07-4.61-.11-5.23-.15-5.9-.17-6.59-.22-7.32-.3-8.05-.4-8.73-.52-9.33-.7-9.82-.95M11.1-76.07h.53l.91.15.88.16.77.15.65.14.52.15.35.13.1.12-.21.1-.56.09-.96.07-1.39.04h-1.85l-2.36-.06-2.88-.14-3.41-.2-4.01-.27-4.91-.24" filter="url(#a)"/><path d="m11.1-76.3 1.32.37.68.23.24.2-.11.23-.48.29-.93.34-1.46.38-2.07.43-2.72.48-3.39.53-4.13.6-4.95.66-5.82.68-6.69.65-7.56.6" filter="url(#a)"/><path d="m-17.42-75.28-.01.11 1.37-.12 1.81-.11 2.1-.07 2.38-.05 2.55-.03 2.61.02 2.57.05 2.54.09 2.51.1 2.48.11 2.43.1 2.3.08 2.09.06 1.8.04 1.53.03 1.28.03 1.14.08m43.46 25.72.16.66-.08.99-.67.98-1.53.72-2.45.39-3.33.14-4.2-.03-5.02-.13-5.88-.21-6.75-.28-7.68-.38-8.64-.49-9.63-.62-10.63-.77-11.64-.95-12.65-1.18-13.59-1.46" filter="url(#a)"/><path d="m13.66-75.62 1.2.14 1.31.38 1.62.55 1.86.68 2 .76 2.08.84 2.16.92 2.23.98 2.26 1.04 2.25 1.05 2.19 1.06 2.1 1.03 2 1 1.91.97 1.81.93 1.71.88 1.57.82 1.41.74 1.21.61.89.38.54.07M9.29-76.42l.3.11 1.3.37 1.65.53 1.86.67 2.02.77 2.17.87 2.31.94 2.45 1 2.55 1.06 2.62 1.11 2.64 1.15 2.64 1.16 2.6 1.17 2.54 1.16 2.46 1.14 2.34 1.11 2.18 1.07 2.01 1 1.84.94 1.73.97" filter="url(#a)"/><path d="m36.8-68.06.45.21.61.47.41.61.05.65-.39.64-.81.64-1.24.67-1.69.7-2.13.73-2.6.79-3.03.86-3.48.94-3.95 1-4.45 1.04-5 1.05-5.57 1.03-6.19 1.01-6.84 1.03-7.5 1.09-8.16 1.17-8.78 1.2-9.3 1.16-9.83 1.15" filter="url(#a)"/><path d="m44.26-64.28 1 .79.17.35-.05.31-.18.38-.38.42-.74.4-1.2.3-1.72.15-2.27-.03-2.86-.22-3.44-.41-4.06-.56-4.68-.71-5.3-.83-5.93-.95-6.6-1.07-7.41-1.2-8.32-1.34-9.13-1.49" filter="url(#a)"/><path d="m38.76-67.41.94.55 1.07.66.83.51.64.42.47.36.27.29.03.21-.21.12-.43.06-.68-.02-.95-.11-1.3-.24-1.68-.43-2.12-.65-2.57-.87L30-67.67l-3.58-1.35-4.11-1.59-4.71-1.8-5.55-2" filter="url(#a)"/><path d="m15.01-75.64.89.32 1.45.49 1.83.64 1.98.74 2.09.85 2.2.94 2.3 1.04 2.37 1.1 2.38 1.15 2.33 1.15 2.25 1.13 2.15 1.1 2.07 1.07 1.98 1.03 1.87.99 1.72.92 1.56.85 1.35.73.84.34m-90.61-7.27 2.09-1.19 1.91-.83 1.87-.67 1.95-.62 2.1-.61 2.29-.66 2.46-.69 2.54-.72 2.54-.7 2.47-.67 2.33-.65 2.15-.6 1.89-.56 1.6-.48 1.43-.4m-14.1 2.72.67-.26.96-.28 1.21-.35 1.13-.32.99-.26.91-.21.88-.17.83-.13.74-.08.57-.04.32.02.01.11-.34.18-.7.27-1.04.36-1.37.45-1.7.52-2.09.62-2.59.74-3.16.9-3.75 1.07" filter="url(#a)"/><path d="m-18.1-75 .33-.11.69-.1 1.17-.15 1.48-.17 1.69-.17 1.83-.17 1.86-.16 1.8-.14 1.71-.12 1.6-.09 1.52-.08 1.44-.06 1.35-.06 1.21-.04 1.03-.04.78-.04.51-.03.21-.02-.08-.03-.36-.03-.65-.03-.96-.05-1.38-.09m5.96.1-.07.24 1.55.32 1.86.4 1.95.49 2.01.57 2.09.63 2.14.67 2.18.69 2.21.7 2.21.69 2.2.69 2.16.68 2.08.66 1.97.65 1.81.6 1.6.53 1.37.45 1.09.38.63.17m16.48 12.18.61.49.99 1.01.96 1.01.82.86.65.71.49.57.33.43.16.27-.06.03-.36-.29-.74-.73-1.18-1.21-1.6-1.64-1.94-1.95m-91.18-13.85 1.41-.57 1.06-.37 1.28-.48 1.5-.55 1.59-.58 1.6-.55 1.54-.52 1.47-.49 1.37-.47 1.23-.41 1.03-.36.77-.27.49-.17.16-.06-.27.07-.74.22-.97.29" filter="url(#a)"/><path d="m15.78-75.35.97.2 1.3.27 1.11.24.9.24.75.26.6.27.41.28.15.26-.16.23-.48.19-.83.15-1.18.11-1.58.07-1.98.04-2.39.01-2.78-.01-3.16-.04-3.54-.1-3.98-.15-4.52-.19-5.2-.19-5.96-.22m86.08 37.31.6 1.43-.1.51-.73-.16-1.28-.63-1.81-.99-2.36-1.36-2.96-1.76-3.62-2.26-4.34-2.82-5.09-3.46-5.86-4.15-6.71-4.92-7.61-5.76-8.46-6.56m-35.13-6.62.68-.13 1.29-.16 1.24-.15.81-.06.35.06-.07.15-.44.27-.79.37-1.2.48-1.65.61-2.18.74-2.8.87-3.52 1.05-4.36 1.28-5.42 1.63" filter="url(#a)"/><path d="M11.1-76.07h.55l1.01.17 1.03.19.97.16.9.17.81.15.67.15.44.11.14.07-.22.03-.64-.03-1.1-.08-1.64-.17-2.26-.27-2.94-.37-3.52-.48m-38.99 6.48.26.16 1.45-.22 2.14-.26 2.58-.2 2.9-.1 3.22-.01 3.54.04 3.84.07 4.07.1 4.23.13 4.35.18 4.45.22 4.55.29 4.63.33 4.66.37 4.64.39 4.64.42 4.63.47 4.46.39" filter="url(#a)"/><path d="m-28.04-71.77.82-.32 1.94-.35 2.31-.22 2.43-.08 2.6.06 2.8.14 3.01.22 3.22.3 3.4.38 3.57.47 3.75.53 3.91.57 4.02.57 4.07.58 4.03.55 3.94.54 3.83.53 3.76.55 3.81.62 3.92.73 3.93.75m29.04 28.39.25.63-.06.87-.58.65-1.12.39-1.63.24-2.09.18-2.55.13-3.04.09-3.53.02-4.09-.11-4.66-.26-5.29-.46-5.93-.66-6.58-.86-7.24-1.05-7.89-1.23-8.52-1.4-9.16-1.61-9.77-1.84-10.36-2.08-10.93-2.35-11.49-2.65" filter="url(#a)"/><path d="m19.89-74.6.68.25.55.42.21.54-.24.62-.81.69-1.46.76-2.15.83-2.84.92-3.54 1.02-4.28 1.14-5.06 1.26-5.84 1.41-6.62 1.58-7.41 1.76-8.25 1.92-9.14 2.01-10.01 2.03" filter="url(#a)"/><path d="m54.19-56.31-.28-.19-.35.35-1.07.23-1.89.01-2.71-.14-3.53-.25-4.43-.41-5.41-.62-6.45-.89-7.53-1.15-8.67-1.38-9.84-1.59-11-1.84-12.05-2.31m-4.61-6.21 1.63-.53 1.53-.35 1.59-.3 1.78-.3 1.97-.31 2.05-.29 2.07-.27 2.1-.23 2.13-.2 2.18-.19 2.16-.19 2.07-.18 1.88-.16 1.6-.15 1.24-.12.87-.11.53-.11.2-.09M46.5-62.57l2.01 1.47 1.24.98.87.79.62.64.35.45.04.24-.26.06-.59-.12-.91-.29-1.24-.45-1.58-.61-1.94-.79-2.34-1-2.8-1.24-3.29-1.51-3.79-1.78-4.25-2.03-4.69-2.3-5.19-2.63" filter="url(#a)"/><path d="m61.52-49.04.31.6.39.82.09.69-.48.27-1.14-.24-1.76-.68-2.36-1.07-2.94-1.4-3.54-1.75-4.18-2.12-4.9-2.53-5.69-3-6.55-3.5-7.41-4.04-8.31-4.61" filter="url(#a)"/><path d="m46.23-62.98-.38.06-.25.33-.38.59-.74.75-1.27.79-1.92.76-2.63.67-3.38.58-4.17.49-4.98.42-5.79.38-6.63.36-7.46.38-8.28.42-9.14.45-10.01.47-10.94.46-11.88.45m21.17-19.37 3.23-.92 1.9-.33 1.76-.07 2.08.02 2.44.08 2.78.12 3.05.15 3.21.18 3.27.22 3.23.25 3.17.27 3.1.27 3.06.27 3.01.26 2.99.27 2.92.3 2.74.31 2.24.18m4.53 1.38.52.14.31.32.29.53.07.61-.33.6-.8.59-1.32.59-1.88.6-2.45.6-3.03.6-3.61.59-4.19.59-4.81.58-5.43.59-6.05.62-6.71.69-7.42.74-8.2.8-9 .78-9.75.67" filter="url(#a)"/><path d="m31.88-70.33.4.13-.06.31-.33.54-.82.61-1.52.61-2.33.62-3.19.62-4.09.65-5.04.64-5.99.63-6.92.62-7.9.63-8.96.62-10.08.63-10.98.52" filter="url(#a)"/><path d="m31.88-70.33.74.19.97.48 1.39.76 1.6.89 1.67.92 1.65.94 1.6.92 1.51.91 1.41.86 1.31.82 1.19.77 1.05.69.89.6.7.48.5.34.27.16-.02-.06-.38-.33-.84-.66-1.29-1.01m-70.27-12 .68-.26 1.01-.29 1.29-.36 1.22-.34 1.04-.27.89-.21.79-.16.69-.12.54-.06.29-.01-.08.08-.56.19-1.07.3-1.56.4-2.03.49-2.69.64m-22.89 10.09.77-.06 1.85-.11 2.94-.1 3.91-.06 4.73.03 5.45.14 6.07.25 6.62.41 7.1.58 7.52.76 7.93.9 8.33.96 8.73.98 9.16 1.07 9.68 1.37m15.93 7.99.99 1.15 1.11 1.4.76 1.02.43.66.19.41.02.26-.12.15-.26.05-.42-.09-.62-.25-.84-.46-1.12-.71-1.41-1.01-1.75-1.35-2.12-1.71-2.5-2.07-2.89-2.41-3.29-2.76-3.66-3.1-3.95-3.43-4.09-3.7" filter="url(#a)"/><path d="m-17.42-75.28-.01.11 1.35-.1 1.78-.07 2.09-.03h2.36l2.54.05 2.59.08 2.58.12 2.56.16 2.55.18 2.57.18 2.58.2 2.57.2 2.5.21 2.38.22 2.19.22 1.99.18 1.81.16 1.61.1 1.2.02M66.53-42.5l.5 1.04.39.93.13.74-.17.6-.47.45-.78.26-1.13.03-1.49-.23-1.87-.49-2.26-.71-2.64-.9-3.02-1.08-3.39-1.24-3.79-1.43-4.21-1.66-4.67-1.92-5.18-2.22-5.76-2.54-6.33-2.87-6.87-3.2-7.35-3.51-7.8-3.82-8.18-4.18m88.52 57.94.88 2.72 1.38 2.48 1.34 2.53 1.3 2.45 1.58 2.32 2.1 2.26 2.64 2.25 3.03 2.29 3.34 2.35 3.64 2.39 3.93 2.39 4.02 2.36 3.75 2.31 3.14 2.26 2.39 2.19 1.73 2.13 1.3 2.06 1.04 2 .83 1.95.7 1.93.8 1.94 1.27 2 1.89 2.08 2.12 2.15 1.53 2.19.51 2.12.21 1.85 1.42 1.54 2.77 1.47" filter="url(#a)"/><path d="m-1.41-77.07 2.39.2 1.92.12 1.87.15 1.89.21 1.91.29 1.94.37 1.96.44 1.97.51 1.96.58 1.9.65 1.81.71 1.7.75 1.59.79 1.55.82 1.58.87 1.66.94 1.69 1.04 1.52 1.13.98 1.17.11 1.11-.79.96-1.25.69" filter="url(#a)"/><path d="m-1.41-77.07 2.44.2 2.1.13 2.29.15 2.48.23 2.57.31 2.57.39 2.54.46 2.53.54 2.51.6 2.46.68 2.41.73 2.33.78 2.25.82 2.19.88 2.17.94 2.16 1.01 2.17 1.07L40.93-66l2.15 1.22 2.12 1.28 2.07 1.35 2.03 1.41 1.98 1.45 1.93 1.47 1.85 1.5 1.79 1.52 1.73 1.58 1.71 1.68 1.72 1.83 1.74 1.94 1.71 2 1.6 1.92 1.47 1.87 1.68 2.25" filter="url(#a)"/><path d="m-1.49-76.89 1.95-.08 2.61.09 2.93.19 2.83.25 2.55.29 2.35.33 2.29.37 2.35.43 2.45.5 2.56.59 2.66.66 2.79.74 2.92.82 3.05.9 3.16.96 3.21 1.04 3.23 1.09 3.23 1.15 3.22 1.2 3.26 1.27 3.34 1.34 3.44 1.4 3.55 1.48 3.6 1.53 3.55 1.58 3.35 1.6 3.08 1.64 2.8 1.66 2.67 1.73 2.77 1.81 3.05 1.91 3.38 1.95 3.65 1.86 3.94 1.6 4.24 1.69" filter="url(#a)"/><path d="m-4.36-76.99 2.78.03 2.44.1 2.36.12 2.61.16 2.98.23 3.27.3 3.41.38 3.41.45 3.36.52 3.36.59 3.44.66 3.64.72 3.89.76 4.18.81 4.47.86 4.8.92 5.18.98 5.55 1.05 5.84 1.13 5.91 1.19 5.77 1.26 5.46 1.33 5.21 1.42 5.21 1.49 5.51 1.51 5.87 1.45 5.97 1.36 6.37 1.33 10.06 1.77" filter="url(#a)"/><path d="m-6.72-76.57 2.44-.26 2.54-.05 2.48.05 2.52.1 2.71.16 2.9.21 3.01.29 3.02.36 3.06.43 3.23.5 3.56.58 3.94.64 4.21.7 4.23.75 4 .79 3.7.82 3.58.87 3.76.95 4.15 1.03 4.42 1.13 4.3 1.17 3.85 1.12 3.69.97 4.66.69" filter="url(#a)"/><path d="m-9.24-76.58 2.41-.1 2.46-.12 2.51-.04 2.58.04 2.71.1 2.87.16 2.98.22 3.05.29 3.11.37 3.16.44 3.22.52 3.26.58 3.29.65 3.33.71 3.47.76 3.71.81 4.07.85 4.47.91 4.84.98 5.12 1.05 5.25 1.11 5.24 1.19 5.11 1.25 4.95 1.33 4.92 1.43 5.12 1.51 5.36 1.54 5.06 1.46 3.92 1.26 3.74.63" filter="url(#a)"/><path d="m-9.36-76.41 2.17-.27 2.27-.13 2.45-.07 2.55.01 2.6.08 2.57.16 2.48.21 2.37.27 2.26.31 2.22.35 2.23.42 2.25.48 2.29.55 2.31.64 2.31.71 2.32.79 2.32.86 2.32.94 2.34 1.01 2.33 1.07 2.32 1.11 2.28 1.16 2.23 1.2 2.17 1.27 2.14 1.35 2.15 1.48 2.23 1.67 2.33 1.83 1.99 1.49" filter="url(#a)"/><path d="M-9.43-76.62h.69l1.7-.09 2.36-.08 2.62-.02 2.67.03 2.7.09 2.77.16 2.87.22 3.03.29 3.21.36 3.44.44 3.68.51 3.92.57 4.13.65 4.27.7 4.33.76 4.26.8 4.15.85 4.03.91 4.04.97 4.22 1.04 4.49 1.12 4.7 1.18 4.72 1.24 4.5 1.32 4.14 1.43 3.78 1.55 3.54 1.59 3.95 1.56 6.69 1.95" filter="url(#a)"/><path d="m-13.8-75.69 3.52-.56 2.68-.32 2.55-.19 2.76-.08 3.11-.01 3.43.07 3.59.15 3.59.2 3.48.25 3.32.3 3.17.34 3.1.4 3.14.46 3.26.53 3.47.61 3.78.69 4.18.76 4.65.84 5.06.92 5.26 1 5.13 1.08 4.86 1.11 4.91 1.11 5.62 1.18 7.66 1.87" filter="url(#a)"/><path d="m-15.15-75.63 2.13-.25 2.58-.35 2.51-.29 2.55-.19 2.72-.1 2.93-.01 3.06.07 3.06.13 2.96.2 2.83.25 2.79.3 2.88.34 3.08.4 3.35.47 3.63.54 3.87.61 4.03.69 4.1.77 4.14.84 4.19.93 4.33 1 4.57 1.07 4.83 1.11 4.98 1.13 5.15 1.15 5.71 1.21 6.71.9" filter="url(#a)"/><path d="m-17.42-75.28 1.49-.31 2.11-.33 2.32-.3 2.28-.23 2.27-.16 2.3-.11 2.34-.05 2.39.01 2.44.07 2.49.13 2.57.19 2.63.26 2.65.32 2.66.39 2.69.47 2.77.53 2.89.62 3.02.69 3.07.76 2.94.78 2.61.76 2.2.71 1.94.71" filter="url(#a)"/><path d="m-22.83-73.54 3.43-1.2 2.03-.66 2.24-.45 2.57-.32 2.67-.24 2.67-.17 2.66-.11 2.69-.04 2.76.03 2.89.08 3.03.14 3.19.22 3.33.28 3.42.35 3.46.43 3.46.5 3.46.57 3.47.63 3.5.7 3.53.75 3.57.8 3.64.85 3.74.9 3.86.97 4.01 1.05 4.13 1.11 4.18 1.18 4.12 1.24 3.95 1.33 3.77 1.43 3.84 1.55 4.32 1.6 5.13 1.56 6 1.96" filter="url(#a)"/><path d="m-25.63-72.7 2.88-.69 2.62-.65 2.52-.64 2.43-.57 2.29-.46 2.16-.37 2.1-.27 2.09-.19 2.09-.13 2.1-.06h2.09l2.09.05 2.1.11 2.13.18 2.14.24 2.11.31 2.02.38 1.9.45 1.77.51 1.69.61 1.74.7 1.88.8 1.82.82 1.36.72" filter="url(#a)"/><path d="m-28.04-71.77 1.45-.85 2.43-.72 2.54-.68 2.47-.64 2.38-.56 2.29-.46 2.22-.36 2.21-.27 2.3-.19 2.45-.12 2.68-.05 2.89.01 3.1.08 3.27.14 3.38.21 3.45.27 3.5.35 3.54.42 3.62.49 3.8.57 4.09.63 4.47.69 4.91.74 5.29.8 5.5.85 5.45.91 5.14.97 4.7 1.04 4.29 1.11 4.19 1.18 4.49 1.25 5.21 1.32 6.1 1.44 6.92 1.55 7.39 1.6 7.2 1.57 7.42 1.96M-32.45-70.24l-1.8.86-1.91.84-2.18 1.02-2.29 1.18-2.23 1.24-2.13 1.27-2.1 1.31-2.11 1.37-2.13 1.45-2.11 1.52-2.05 1.59-1.94 1.67-1.84 1.72-1.71 1.75-1.62 1.75-1.53 1.72-1.48 1.69-1.45 1.71-1.51 1.82-1.67 1.99-1.87 2.2-1.98 2.3-1.75 2.13-1.01 1.5" filter="url(#a)"/><path d="m-32.58-70.21-1.7.74-2.28 1.19-2.66 1.3-2.97 1.29-3.31 1.26-3.58 1.29-3.68 1.35-3.62 1.44-3.41 1.52-3.11 1.57-2.85 1.59-2.77 1.57-2.98 1.56-3.45 1.56-4.02 1.57-4.42 1.64-4.39 1.73-3.84 1.9-2.99 2.09-2.23 2.26-2.06 2.33-2.6 2.18-3.3 1.77-2.99.93" filter="url(#a)"/><path d="m-34.46-69.14-5.07.59-3.73 1.01-4.71 1.23-4.43 1.28-3.5 1.29-3.09 1.33-3.53 1.38-4.39 1.47-5.13 1.54-5.44 1.62-5.34 1.68-4.95 1.73-4.44 1.75-3.94 1.75-3.48 1.75-3.2 1.77-3.16 1.8-3.43 1.89-3.94 1.99-4.36 2.07-4.37 2.1-3.73 2.06-2.61 2.01-1.74 1.95-2.14 1.98-4.29 2.09-7.35 2.14-9.14 1.49" filter="url(#a)"/><path d="m-33.69-69.79-2.48 1.44-2.54 1.45-2.28 1.32-2.1 1.27-2.01 1.3-1.98 1.38-1.98 1.48-1.95 1.54-1.88 1.59-1.78 1.59-1.68 1.6-1.58 1.6-1.5 1.62-1.45 1.67-1.41 1.74-1.39 1.84-1.36 1.94-1.35 2.03-1.29 2.09-1.24 2.09-1.15 2.06-1.06 2.03-.97 2.03-.91 2.05-.86 2.12-.8 2.2-.75 2.24-.67 2.25-.59 2.25-.52 2.27-.45 2.34-.41 2.52-.52 3.56m156.64-8.53.97 2.73.3 2.39.39 2.31.58 2.29.63 2.29.56 2.27.5 2.25.53 2.22.58 2.21.55 2.22.36 2.25.05 2.31-.33 2.37-.64 2.41-.8 2.39-.81 2.33-.71 2.21-.58 2.11-.51 2.03-.54 2.03-.67 2.09-.86 2.18-1.02 2.24-1.06 2.23-.83 2.09-.47 1.83-.8 1.97M-40.61-66.29l-3.66 1.53-1.79 1.21-1.64 1.23-1.84 1.36-2.03 1.49-2.18 1.57-2.38 1.64-2.6 1.7-2.84 1.75-3 1.76-3.03 1.76-2.95 1.76-2.85 1.77-2.8 1.82-2.88 1.9-3.08 1.99-3.33 2.05-3.53 2.08-3.59 2.06-3.47 2.02-3.26 2.01-3.12 2.02-3.2 2.08-3.45 2.15-3.59 2.22-3.46 2.29-3.65 2.41-4.88 2.64" filter="url(#a)"/><path d="m-44.04-64.33-1.07.9-1.58 1.14-2.11 1.37-2.68 1.53-3.01 1.6-2.94 1.67-2.53 1.73-2.03 1.77-1.63 1.78-1.48 1.78-1.6 1.79-1.94 1.81-2.44 1.87-2.98 1.93-3.42 2-3.68 2.05-3.7 2.06-3.5 2.08-3.17 2.07-2.76 2.08-2.32 2.09-1.93 2.13-1.64 2.16-1.46 2.19-1.45 2.22-1.55 2.24-1.74 2.26-1.93 2.27-2.03 2.29-2 2.3-1.86 2.27-1.69 2.24-1.72 2.27-2.08 2.38-2.59 2.54-2.64 2.48-2.93 1.56" filter="url(#a)"/><path d="m-44.91-63.55-2.79 1.84-3.61 1.54-4.26 1.62-3.73 1.68-2.83 1.63-2.36 1.58-2.4 1.54-2.72 1.56-3.03 1.6-3.21 1.69-3.19 1.81-3.11 1.95-3.04 2.07-3.07 2.13-3.24 2.12-3.57 2.04-4.19 1.95-5.11 1.91-6.11 1.97-6.57 2.12-5.75 2.28-3.54 2.31-1.01 2.14-.24 1.85m205.52 3.15.3.92.46 2.11.5 2.45.53 2.53.54 2.51.53 2.43.45 2.36.29 2.3.08 2.29-.13 2.32-.31 2.36-.42 2.38-.46 2.38-.48 2.36-.48 2.32-.51 2.26-.55 2.2-.59 2.14-.62 2.07-.66 2.02-.71 1.97-.77 1.96-.89 1.98-1.04 2.01-1.22 2.07-1.35 2.12L69 43.46l-1.36 2.03-1.22 1.87-1.13 1.68-1.23 1.59-1.57 1.71-2.05 2.24M-46.87-62.21l-1.33 1.12-2.09 1.67-2.01 1.65-1.88 1.65-1.81 1.73-1.75 1.77-1.66 1.8-1.56 1.77-1.46 1.76-1.39 1.78-1.34 1.83-1.31 1.92-1.29 2L-69-37.7l-1.18 2.07-1.11 2.06-1.01 2.05-.93 2.04-.85 2.07-.78 2.1-.72 2.15-.67 2.19-.63 2.2-.57 2.22-.52 2.22-.46 2.26-.39 2.36-.33 2.49-.27 2.37-.25 1.35" filter="url(#a)"/><path d="m-46.87-62.21-3.69 1.12-1.89 1.67-1.8 1.65-2.16 1.65-2.41 1.73-2.46 1.77-2.36 1.8-2.17 1.77-1.94 1.76-1.82 1.78-1.87 1.83-2.11 1.92-2.46 2-2.73 2.06-2.79 2.07-2.59 2.06-2.21 2.05-1.83 2.04-1.57 2.07-1.57 2.1-1.74 2.15-1.99 2.19-2.18 2.2-2.23 2.22-2.16 2.22-2.06 2.26-1.99 2.36-1.89 2.49-1.54 2.37-.39 1.35" filter="url(#a)"/><path d="m-48.1-61.22-2.31 1.14-2.83 1.55-2.75 1.72-3.07 1.65-3.68 1.57-3.99 1.52-3.88 1.55-3.8 1.59-4.34 1.69-5.7 1.8-7.42 1.96-8.74 2.07-9.03 2.14-8.15 2.12-6.53 2.04-4.93 1.94-4.13 1.9-4.47 1.96-5.61 2.12-6.59 2.28-6.85 2.31-7.67 2.14-10.13 1.84" filter="url(#a)"/><path d="m-51.5-58.37-2.44.94-4.66 1.38-5.1 1.69-4.19 1.82-2.86 1.82-1.73 1.78-1.17 1.74-1.25 1.75-1.89 1.82-2.96 1.92-4.33 2.01-5.8 2.07-7.12 2.08-7.97 2.06-8.09 2.04-7.38 2.03-6.03 2.06-4.4 2.1-2.97 2.14-2.14 2.19-2.1 2.2-2.63 2.21-3.33 2.21-3.81 2.26-4.26 2.35-5.43 2.49-7.74 2.36-8.24 1.35" filter="url(#a)"/><path d="m-50.92-59.36-4.51 2.71-2.89 1.82-2.03 1.51-2.05 1.5-2.38 1.56-2.66 1.64-2.67 1.75-2.43 1.88-2.08 2.01-1.81 2.09-1.74 2.12-1.86 2.11-2.09 2.08-2.3 2.05-2.43 2.06-2.41 2.09-2.32 2.15-2.18 2.19-2.07 2.25-2.06 2.27-2.13 2.31-2.27 2.33-2.37 2.34-2.34 2.35-2.08 2.34-1.66 2.33-1.21 2.34-1 2.36-1.23 2.42-1.88 2.46-2.66 2.45-3.08 2.3-2.55 2.03-1.2 1.88-2 2.79" filter="url(#a)"/><path d="m-54.9-55.9-2.35 1.44-2.77 1.26-3.31 1.41-3.88 1.55-3.85 1.65-3.21 1.75-2.34 1.89-1.74 2.03-1.57 2.11-1.78 2.13-2.17 2.12-2.59 2.08-2.95 2.06-3.27 2.06-3.58 2.1-3.9 2.15-4.11 2.21-4.16 2.25-3.92 2.28-3.37 2.31-2.6 2.33-1.78 2.34-1.11 2.35-.72 2.35-.65 2.35-.87 2.35-1.26 2.37-1.71 2.39-2.12 2.41-2.39 2.37-2.44 2.31-2.2 2.22-1.86 2.21-1.81 2.29-2.43 2.44-3.5 2.4-3.35 1.56m91.91-76.05-1.72 1.7-2 1.92-1.94 1.77-1.77 1.65-1.69 1.66-1.73 1.76-1.86 1.91-2.05 2.04-2.2 2.1-2.28 2.09-2.25 2.05-2.16 2-2.04 2-1.96 2.02-1.9 2.08-1.83 2.14-1.67 2.18-1.43 2.2-1.17 2.19-1.04 2.13-1.2 2.09-1.71 2.25-2.63 2.76" filter="url(#a)"/><path d="m-62.26-48.31-2.17 1.3-2.62 1.81-2.34 2.16-2.44 2.31-2.43 2.29-2.07 2.15-1.59 2.02-1.29 1.95-1.24 1.97-1.35 2.04-1.49 2.14-1.66 2.2-1.91 2.24-2.25 2.26-2.59 2.29-2.73 2.31-2.57 2.34-2.12 2.34-1.59 2.33-1.29 2.28-1.35 2.24-1.67 2.29-2 2.42-2.27 2.57-2.58 2.73-2.24 3.42M77.7-17.13l2.48 1.26 4.1 1.54 1.99 2.04-.21 2.34-1 2.46-.64 2.48.19 2.42.97 2.37 1.38 2.32 1.44 2.31 1.3 2.33 1.21 2.35 1.32 2.38 1.61 2.38 1.97 2.36 2.24 2.32 2.21 2.26 1.85 2.2 1.2 2.15.4 2.08-.3 2.02-.79 1.99-.91 1.97-.69 1.98-.19 2.02.43 2.07.95 2.1 1.17 2.09.96 2.01.43 1.88-.22 1.74-.74 1.69-.95 1.79-1 2.07-2.01 2.34" filter="url(#a)"/><path d="m-64.75-44.85-5.65 1.25-3.31 2.03-3.42 2.32-2.29 2.28-1.16 2.16-.99 2.06-1.57 2.01-2.21 2.03-2.4 2.08-2.15 2.13-1.79 2.17-1.68 2.21-2.02 2.23-2.6 2.24-3.08 2.26-3.16 2.27-2.64 2.28-1.66 2.29-.53 2.29.41 2.31.86 2.33.7 2.37-.03 2.41-1.16 2.44-2.41 2.44-3.47 2.41-4.05 2.33-3.92 2.25-3.01 2.14-1.58 2.1-.27 2.15.11 2.28-.13 2.33" filter="url(#a)"/><path d="m-64.44-45.41-3.37 2.26-2.23 2.53-1.66 2.41-1.67 2.16-1.87 1.94-1.99 1.86-2.09 1.91-2.25 2.02-2.48 2.13-2.57 2.21-2.38 2.24-1.93 2.24-1.46 2.26-1.2 2.3-1.28 2.34-1.56 2.36-1.82 2.32-2.01 2.23-2.22 2.13-2.49 2.2-2.44 2.6-.94 3.09m43.91-49.74-.5 2.3-.8 2.56.99 2.43 2.67 2.17 3.28 1.98 3.07 1.92 2.58 1.97 2 2.08 1.29 2.16.38 2.24-.59 2.27-1.4 2.29-1.8 2.31-1.63 2.33-.92 2.34.16 2.35 1.37 2.34 2.43 2.35 3.17 2.34 3.55 2.36 3.63 2.38 3.55 2.37 3.41 2.35 3.21 2.3 2.86 2.26 2.35 2.25 1.81 2.26 1.59 2.3 2.01 2.32 2.96 2.29 3.82 2.34 3.8 2.51 3.03 2.52m-58.53-73.54-1.88 2.89-1.71 2.54-1.7 2.16-1.69 1.91-1.58 1.83-1.43 1.92-1.29 2.04-1.13 2.16-.99 2.23-.84 2.26-.73 2.27-.64 2.29-.59 2.32-.53 2.33-.49 2.34-.44 2.32-.41 2.3-.38 2.3-.37 2.33-.34 2.4-.29 2.46-.26 2.43-.25 2.27-.27 2-.23 1.85.55 2.77" filter="url(#a)"/><path d="m-67.7-40.31-5.12 2.62-5.5 2.1-5.01 1.81-4.07 1.75-3.28 1.87-2.75 2.04-2.89 2.17-3.83 2.24-5.14 2.26-6.05 2.26-5.98 2.28-4.98 2.31-3.61 2.33-2.57 2.34-2.28 2.31-2.56 2.29-2.79 2.27-2.44 2.32-1.71 2.41-1.5 2.49-2.52 2.49-4.12 2.3-5.28 1.74-9.39.62" filter="url(#a)"/><path d="m-68.98-38.15-11.9 1.8-8.87 1.95-3.5 1.88-1.77 1.88-.4 1.96 1.14 2.04 1.92 2.13 1.37 2.18-.31 2.2-2.55 2.21-4.78 2.22-6.53 2.24-7.56 2.25-7.83 2.26-7.43 2.27-6.57 2.25-5.34 2.25-3.86 2.28-2.39 2.35-1.36 2.41-1.26 2.46-2.42 2.48-4.5 2.54-5.99 2.75-3.39 3.21" filter="url(#a)"/><path d="m-68.98-38.15-2.83 1.79-5.19 1.94-4.94 1.87-3.17 1.87-1.77 1.93-1.32 2.04-1.49 2.11-1.91 2.16-2.42 2.19-2.98 2.2-3.7 2.21-4.52 2.21-5.41 2.25-6.25 2.26-6.87 2.26-7.13 2.23-6.82 2.18-5.82 2.22-4.47 2.34-3.92 2.52-5.68 2.43-9.99 1.51m98.6-46.72-1.89 1.81-3 1.97-2.47 1.9-1.53 1.9-.91 1.98-.72 2.07-.93 2.14-1.33 2.19-1.72 2.22-1.98 2.23-2.1 2.25-2.13 2.25-2.13 2.27-2.15 2.28-2.16 2.28-2.16 2.29-2.1 2.3-2.01 2.33-1.87 2.37-1.74 2.41-1.62 2.43-1.57 2.43-1.59 2.39-1.68 2.32-1.73 2.24-1.58 2.16-1.11 2.11-.33 2.14.52 2.18.79 2.13-.81 1.83" filter="url(#a)"/><path d="m-70.09-36.71-1.84 2.42-1.46 1.88-2.05 1.85-2.37 1.94-2.3 2.06-2.12 2.14-1.89 2.19-1.58 2.22-1.15 2.21-.7 2.23-.36 2.24-.24 2.26-.34 2.26-.6 2.27-.87 2.26-1.07 2.27-1.14 2.3-1.07 2.35-.94 2.42-.75 2.45-.58 2.46-.46 2.45-.49 2.37-.85 2.22-1.58 2.03-1.53 2.65" filter="url(#a)"/><path d="m-70.69-35.1-1.34 1.68-1.53 1.53-2.1 1.83-2.21 2.11-1.93 2.26-1.78 2.31-1.97 2.3-2.28 2.3-2.45 2.31-2.28 2.33-1.88 2.35-1.48 2.35-1.24 2.34-1.22 2.34-1.35 2.34-1.51 2.36-1.63 2.37-1.73 2.36-1.87 2.34-2.04 2.3-2.13 2.27-2.03 2.26-1.67 2.27-1.14 2.28-.63 2.3-.31 2.3-.21 2.28-.23 2.24-.19 2.14.09 2 .7 1.98 2.04 2.6m188.65-57.3 1.14 2.77 1.68 2.54 3.11 2.45 3.67 2.38 3.14 2.33 2.36 2.31L93.36-4l1.55 2.27L96.26.52l1.2 2.23 1.15 2.22 1.24 2.22 1.35 2.25 1.38 2.3 1.27 2.37 1.13 2.41 1.12 2.42 1.28 2.34 1.53 2.23 1.62 2.09 1.43 2 1.08 1.99.83 2.07 1.01 2.19 1.43 2.35 1.24 2.56-.04 2.7" filter="url(#a)"/><path d="m-71.79-32.87-.62.97-1.08 1.75-1.76 2.18-2.44 2.34-2.62 2.34-2.25 2.31-1.69 2.3-1.47 2.31-1.82 2.34-2.64 2.36-3.55 2.35-4.13 2.35-4.12 2.34-3.5 2.35-2.49 2.36-1.43 2.37-.62 2.36-.23 2.34-.24 2.31-.45 2.28-.66 2.27-.67 2.27-.48 2.29-.19 2.29-.01 2.28-.11 2.25-.47 2.2-.78 2.13-.65 2.06.07 1.99.91 2 .94 2.1.03 2.46.63 3.46" filter="url(#a)"/><path d="m-72.04-32.64-1.1 2.08-1.35 2.02-1.63 2.13-1.63 2.21-1.42 2.24-1.11 2.24-.75 2.25-.41 2.25-.13 2.26.05 2.28.14 2.29.14 2.29.09 2.3.03 2.32-.05 2.35-.1 2.38-.13 2.4-.13 2.42-.07 2.4.04 2.36.17 2.31.33 2.24.44 2.2.54 2.17.59 2.15.63 2.14.64 2.15.64 2.15.66 2.15.69 2.13.83 2.1 1.03 2.1 1.27 2.16 1.44 2.19" filter="url(#a)"/><path d="m-73.03-30.07-1.59 1.94-1.77 2.55-1.89 2.4-1.51 2.26-1.04 2.23-.75 2.26-.68 2.31-.8 2.35-1.02 2.34-1.29 2.32-1.46 2.29-1.5 2.3-1.41 2.33-1.3 2.38-1.23 2.38-1.16 2.34-1 2.26-.7 2.19-.35 2.18-.22 2.25-.57 2.33-1.29 2.28-1.48 2.04.16 1.94" filter="url(#a)"/><path d="m-74.1-28.59-3.65 2.13-1.58 2.35-1.35 2.29-1.59 2.26-1.86 2.25-2.12 2.24-2.23 2.27-2.05 2.28-1.61 2.3-1.08 2.3-.57 2.31-.19 2.32.02 2.35.14 2.39.18 2.41.18 2.41.22 2.39.28 2.36.38 2.3.49 2.25.61 2.21.69 2.17.73 2.16.74 2.15.67 2.15.57 2.14.4 2.14.18 2.12-.07 2.11-.27 2.07-.29 2.04-.05 1.98.45 1.89 1.06 1.79 1.69 1.76 2.43 2.22" filter="url(#a)"/><path d="m-73.85-29.16-4.98 3.66-3.7 2.54-1.43 2.23-.11 2.21.45 2.27.5 2.33.19 2.37-.3 2.36-.79 2.33-1.2 2.32-1.5 2.33-1.81 2.35-2.17 2.37-2.54 2.36-2.83 2.33-2.9 2.3-2.67 2.25-2.16 2.25-1.6 2.26-1.13 2.27-.88 2.29-.74 2.29-.51 2.26-.03 2.21.62 2.13 1.01 2.01.65 1.95-.7 1.93-3.35 1.56M76.59-21.13l3.87 2.95 2.94 1.95.57 1.84-.01 2.05.71 2.28 1.72 2.4 2.47 2.43 2.79 2.41 2.73 2.35 2.38 2.29 1.87 2.28 1.35 2.3.94 2.34.68 2.37.52 2.39.4 2.37.22 2.32-.07 2.27-.4 2.22-.59 2.16-.53 2.09-.08 1.99.59 1.87 1.28 1.84 1.71 1.96 1.64 2.1.55 1.34" filter="url(#a)"/><path d="m76.59-21.13 5.81 2.95 2.08 1.95.02 1.84-.46 2.05-.21 2.28.31 2.4.88 2.43 1.38 2.41 1.74 2.35 1.84 2.29 1.67 2.28 1.23 2.3.61 2.34-.04 2.37-.55 2.39-.79 2.37-.67 2.32-.26 2.27.21 2.22.53 2.16.62 2.09.55 1.99.45 1.87.29 1.84-.15 1.96-.7 2.1.22 1.34" filter="url(#a)"/><path d="M73.88-28.36 74.97-26l1.18 2.58 1 2.46.76 2.25.57 2.09.45 2.06.38 2.13.31 2.25.25 2.34.2 2.38.17 2.38.14 2.35.12 2.32.08 2.29.02 2.31-.05 2.34-.13 2.37-.21 2.39-.3 2.38-.37 2.34-.46 2.28-.54 2.23-.6 2.2-.64 2.14-.59 2-.5 1.7-.48 1.44-.89 1.72M73.01-30.3l1.34 2.85 1.19 2.58 1.2 2.29 1.27 2.19 1.33 2.2 1.48 2.27 1.79 2.31 2.21 2.33 2.63 2.33 2.9 2.32 2.84 2.3 2.44 2.28 1.7 2.26.8 2.23-.02 2.22-.53 2.23-.64 2.24-.32 2.3.26 2.37.96 2.44 1.59 2.46 1.99 2.41 2.02 2.25 1.63 2.05.9 1.89.2 1.91-.2 2.2.52 2.52" filter="url(#a)"/><path d="m73.01-30.3 1.64 2.83 1.5 2.56 2.11 2.28 2.75 2.17 3.13 2.17 3.29 2.25 3.35 2.3 3.47 2.31 3.74 2.32 4.17 2.3 4.53 2.29 4.54 2.26 4.02 2.25 3.02 2.21 1.88 2.2 1.04 2.17.71 2.17.83 2.2 1.04 2.31 1.4 2.51 2.59 2.76 4.76 2.76 3.79 2.07" filter="url(#a)"/><path d="m72.67-31.34 1.17 1.68 1.51 2.32 1.52 2.39 1.58 2.3 1.49 2.23 1.18 2.24.77 2.28.46 2.32.37 2.34.46 2.33.62 2.33.73 2.31.75 2.29.66 2.27.53 2.25.41 2.25.32 2.25.24 2.28.16 2.32.08 2.37-.02 2.4-.09 2.4-.16 2.34-.21 2.24-.27 2.14-.38 2.05-.54 2.04-.74 2.1-.95 2.19-1.18 2.3-1.38 2.32-1.16 2.1.18 1.17m-8.11-73.14 6.37 1.68 5.04 2.32 2.2 2.39 1.38 2.3 1.09 2.23.88 2.24.79 2.28.93 2.32 1.26 2.34 1.68 2.33 2.19 2.33 2.72 2.31 3.27 2.29 3.76 2.27 4.14 2.25 4.3 2.25 4.18 2.25 3.7 2.28 2.9 2.32 1.84 2.37.75 2.4-.14 2.4-.53 2.34-.31 2.24.48 2.14 1.49 2.05 2.35 2.04 2.8 2.1 2.79 2.19 2.47 2.3 2.29 2.32 2.93 2.1 4.47 1.17" filter="url(#a)"/><path d="m72.67-31.34 1.03 1.68 1.36 2.33 1.38 2.39 1.45 2.3 1.76 2.24 2.08 2.24 2.2 2.29 2.1 2.32 1.9 2.34 1.72 2.34 1.54 2.33 1.26 2.32.85 2.29.43 2.27.08 2.26-.07 2.26-.03 2.26.13 2.29.34 2.33.47 2.36.52 2.39.47 2.38.39 2.33.29 2.24.21 2.16.12 2.09.05 2.08-.06 2.11-.18 2.17-.33 2.22-.48 2.2-.59 2.09-.69 1.9-.84 1.75-.28 1.62" filter="url(#a)"/><path d="m72.67-31.34 5.72 1.68 2.46 2.33.64 2.4.4 2.3.57 2.24.55 2.25.4 2.28.32 2.33.47 2.34.79 2.34 1.13 2.33 1.34 2.32 1.37 2.29 1.2 2.28.95 2.26.63 2.26.33 2.27.07 2.29-.13 2.33-.21 2.36-.14 2.39.02 2.37.24 2.32.47 2.25.62 2.16.66 2.11.6 2.09.45 2.11.27 2.17.05 2.19-.14 2.17-.23 2.07-.2 1.93-.25 1.81-.75 1.79-.86 1.9" filter="url(#a)"/><path d="m71.77-33.19 1.24 1.98L75-28.75l2.87 2.57 3.76 2.55 3.99 2.42 3.34 2.28 2.21 2.18 1.16 2.14.6 2.19.6 2.26 1.01 2.32 1.51 2.37 1.86 2.38 1.93 2.35 1.81 2.34 1.64 2.32 1.6 2.33 1.7 2.36 1.98 2.37 2.34 2.39 2.78 2.37 3.21 2.34 3.54 2.28 3.6 2.23 3.22 2.18 2.33 2.1 1.06 2.01-.25 1.92-1.32 1.88-1.89 1.92-1.45 1.94.78 1.76 4.33 1.49" filter="url(#a)"/><path d="m71.29-34.1.72 1.23 1.29 1.9 1.87 2.31 2.25 2.47 2.08 2.5 1.44 2.4.8 2.29.48 2.2.64 2.18 1.16 2.21 1.81 2.26 2.37 2.33 2.67 2.36 2.72 2.38 2.59 2.36 2.41 2.34 2.21 2.34 1.99 2.34 1.68 2.36 1.24 2.37.7 2.38.16 2.37-.29 2.33-.55 2.29-.64 2.23-.56 2.17-.36 2.09-.09 2.03.19 1.95.39 1.92.38 1.93.08 1.96-.48 2.04-1.18 2.22-1.97 2.7-2.81 3.51" filter="url(#a)"/><path d="m70.07-36.26 1.03 1.74.99 1.64 1.23 1.94 1.34 2.23 1.2 2.39 1 2.44.83 2.38.74 2.28.7 2.19.72 2.15.74 2.18.77 2.24.78 2.31.74 2.36.65 2.37.49 2.35.3 2.31.14 2.29.04 2.29v2.33l.02 2.39.02 2.43-.03 2.43-.11 2.36-.16 2.22-.22 2.09-.41 2.17-.68 2.53m-14.7-66.5 12.96 1.74-1.73 2.12-2.57 2.14-.65 2.1 1.29 2.11 2.56 2.17 3.12 2.22 3.08 2.23 2.7 2.25 2.23 2.27 1.82 2.29 1.55 2.31 1.45 2.33 1.48 2.33 1.6 2.33 1.72 2.32 1.85 2.29L104.7.1l2.21 2.27 2.45 2.25 2.68 2.27 2.76 2.28 2.62 2.33 2.21 2.37 1.63 2.41 1.02 2.4.54 2.36.27 2.26.2 2.13.28 2.05.5 2.02.76 2.09.97 2.21 1 2.36.88 2.58-.35 2.72" filter="url(#a)"/><path d="m66.53-42.5 2.71 2.32 1.95 2.12 2.94 2.13 3.53 2.12 3.22 2.11 2.27 2.12 1.21 2.17.38 2.21-.1 2.23-.27 2.24-.19 2.27.1 2.29.54 2.31 1.07 2.32 1.62 2.33 2.09 2.33 2.41 2.31 2.54 2.3L97.04 0l2.29 2.26 1.97 2.26 1.59 2.25 1.18 2.28.77 2.32.43 2.37.17 2.43.03 2.44.05 2.39.31 2.27.8 2.1 1.31 1.97 1.4 1.96.63 2.06-.69 2.09.36 1.62" filter="url(#a)"/><path d="m65.34-44.1 4.55 1.84 8.35 2.03 6.19 2.09 2.05 2.1-.59 2.1-1.1 2.1-.24 2.11 1.07 2.16 2.26 2.18 3.05 2.22 3.44 2.22 3.5 2.25 3.4 2.27 3.31 2.29 3.34 2.32 3.49 2.32 3.69 2.32 3.81 2.31 3.86 2.29 3.93 2.27 4.16 2.24 4.55 2.22 4.91 2.2 4.82 2.18 4.01 2.18 2.54 2.27 1.09 2.54.71 3.03-.45 3.28" filter="url(#a)"/><path d="m65.65-43.57 4.56 1.32 1.51 1.48 1.39 1.8 1.48 1.94 1.54 1.97 1.71 2 1.96 2.1 2.12 2.21 2.22 2.3 2.31 2.34L89-21.78l2.98 2.28 3.44 2.23 3.8 2.21 3.88 2.21 3.67 2.26 3.25 2.31 2.7 2.35 2.14 2.36 1.65 2.36 1.26 2.32 1.03 2.31.95 2.31 1.06 2.34 1.3 2.4 1.58 2.44 1.75 2.43 1.75 2.37 1.77 2.23 1.95 2.11 1.7 2.18.36 2.54" filter="url(#a)"/><path d="m64.95-44.74 2.98 1.01 1.81 1.58 2.83 1.87 4.48 2 5.77 2.06 5.96 2.07 5.13 2.06 3.99 2.08 3.21 2.13 2.92 2.16 2.93 2.18 3.07 2.19 3.38 2.21 3.99 2.23 4.89 2.27 5.71 2.31 5.99 2.31 5.59 2.3 4.95 2.28 4.87 2.34 6.39 2.53 12.28 2.71" filter="url(#a)"/><path d="m62.31-47.96 3.09 3.22 1.38 2.07 1.19 1.81L69.45-39l1.8 1.91 2.02 1.96 2.1 2.01 2.07 2.1 1.98 2.19 1.92 2.29 1.96 2.33 2.11 2.33 2.31 2.28 2.44 2.23 2.39 2.2 2.15 2.2 1.73 2.25 1.27 2.31.9 2.35.74 2.38.83 2.35 1.1 2.32 1.4 2.29 1.5 2.29 1.27 2.33.74 2.4.17 2.48-.04 2.52.33 2.45 1.05 2.15 2.42 1.21" filter="url(#a)"/><path d="m61.81-48.44 6.65 2.65 4.09 1.87 2.06 1.83 1.79 1.93 1.73 2.02 1.43 2.08 1.02 2.09.68 2.12.44 2.14.31 2.17.25 2.2.26 2.23.33 2.25.44 2.26.59 2.29.77 2.31.98 2.32 1.24 2.33 1.57 2.33L90.4-4.7l2.37 2.3 2.74 2.28 2.98 2.27 3.01 2.25 2.76 2.26 2.27 2.27 1.58 2.32.84 2.38.15 2.44-.39 2.47-.7 2.42-.73 2.28-.44 2.08.06 1.93.46 1.93.43 2.21-.92 2.54" filter="url(#a)"/><path d="m61.81-48.44 2.6 2.63 2.14 1.85 2.25 1.81 2.02 1.9 1.54 2 1.12 2.05.88 2.08.84 2.09.9 2.11.94 2.14.97 2.18.96 2.2.96 2.21.99 2.24 1.05 2.26 1.11 2.29 1.12 2.31 1.09 2.32 1.01 2.32.91 2.31.83 2.3.79 2.27.8 2.23.76 2.2.57 2.26.34 2.45 1.01 2.52" filter="url(#a)"/><path d="m61.52-49.04 1.46 1.9 1.76 2.26 1.61 2.02 1.59 1.88 1.73 1.89 1.96 1.91 2.18 1.95 2.34 1.99 2.32 2.08 2.15 2.19 1.97 2.27 1.88 2.32 2.01 2.33 2.35 2.27 2.75 2.22 3.08 2.17 3.16 2.18 2.91 2.22 2.39 2.31 1.79 2.38 1.42 2.4 1.55 2.37 2.22 2.3 3.17 2.21 3.96 2.19 3.95 2.25 2.57 2.4.32 2.85" filter="url(#a)"/><path d="m59.97-50.78 3.46 2.45 3.02 2.24 1.64 1.96 1.17 1.87 1.35 1.93 1.63 1.98 1.78 2.04 1.79 2.06 1.72 2.08 1.57 2.1 1.34 2.14 1.09 2.16.9 2.19.83 2.21.87 2.22.98 2.24 1.06 2.29 1.08 2.31 1.08 2.32 1.03 2.31.93 2.31.75 2.33.61 2.36.74 2.23 1.39 1.57" filter="url(#a)"/><path d="m60.45-50.16 5.88 1.31 5.31 1.87 3.29 2.04 3.27 1.98 4.3 1.91 4.54 1.9 3.46 1.92 1.8 1.95.63 2.01.49 2.09L94.63-29l2.19 2.26 2.79 2.32 2.75 2.32 2.19 2.28 1.51 2.22 1.18 2.18 1.39 2.18 2.08 2.23 3.03 2.31 3.94 2.37 4.62 2.41 5.12 2.37 5.56 2.3 6.04 2.22 6.45 2.19 6.29 2.25 4.92 2.41 2.92 2.85" filter="url(#a)"/><path d="m58.61-52.11 3.74 1.67 4.68 2.1 4.24 2.08 3.19 1.96 2.7 1.9 2.82 1.92 3.03 1.98 3.04 2.01 2.83 2.05 2.58 2.06 2.37 2.08 2.21 2.12 1.98 2.15 1.62 2.18 1.23 2.18 1.01 2.19 1.22 2.21 1.97 2.28 3.03 2.35 3.83 2.36 3.59 2.39 2.2 2.48m-59.11-46.7 1.65 1.7 2.4 2.12 2.73 2.1 2.54 1.98 2.13 1.93 1.67 1.95 1.26 2 .99 2.04.87 2.07.9 2.09 1.01 2.12 1.15 2.15 1.25 2.18 1.3 2.2 1.32 2.22 1.35 2.24 1.41 2.26 1.47 2.29 1.48 2.32 1.37 2.32L90-7.5l.87 2.32.66 2.3.57 2.28.56 2.24.49 2.21.34 2.26.42 2.45 1.06 2.53M56.29-54.69l12.1 2.15 4.94 2.03 4.83 2.08 4.14 2.05 3.03 1.96 2.66 1.93 3.08 1.93 3.72 1.97 4.01 2.01 3.99 2.04 3.98 2.06 4.4 2.08 5.26 2.11 6.15 2.16 6.41 2.18 5.78 2.17 4.63 2.18 3.9 2.2 4.04 2.29 4.16 2.35 2.96 2.34 4.47 2.36" filter="url(#a)"/><path d="m56.28-54.52 1.24.69 4.18 1.54 5.63 1.89 5.33 2.02 4.86 2.03 4.73 2 4.54 1.97 3.85 1.98 2.68 2.01 1.41 2.04.48 2.07.18 2.1.48 2.13 1.18 2.15 2.03 2.18 2.82 2.21 3.39 2.22 3.63 2.25 3.52 2.27 3.11 2.3 2.55 2.32 2.07 2.33 1.86 2.33L124-5.17l2.32 2.31 2.64 2.28 2.78 2.26 2.64 2.23 2.36 2.23 2.09 2.23 1.76 2.03 1.91 1.23" filter="url(#a)"/><path d="m52.77-57.37 7.82.78 5.64 1.26 1.59 1.44 1.33 1.63 2.05 1.81 2.04 1.93 1.48 1.97 1.13 1.97 1.4 1.96 2.2 1.97 3.18 2 4.01 2.02 4.52 2.05 4.72 2.08 4.63 2.1 4.39 2.13 4.04 2.17 3.77 2.19 3.71 2.2 3.9 2.21 4.15 2.25 4.13 2.29 3.62 2.34 2.87 2.35 2.5 2.3 2.47 2.14 2.92 1.66" filter="url(#a)"/><path d="m46.59-62.71 2.88 1.77 4.72 1.76 5.4 1.73 4.18 1.65 2.52 1.62 1.49 1.65 1.25 1.71 1.64 1.78 2.44 1.85 3.38 1.89 4.27 1.91 4.91 1.92 5.25 1.93 5.28 1.94 5.1 1.97 4.81 2.02 4.52 2.08 4.29 2.16 4.14 2.25 4.01 2.3 3.83 2.32 3.59 2.29 3.36 2.23 3.41 2.17 3.89 2.14 4.73 2.2 5.62 2.31 6.13 2.45 5.97 2.55 5.04 2.53L171.99.6l1.78 1.31" filter="url(#a)"/><path d="m45.53-63.05 3.17 1.24 4.15 1.76 3.24 1.67 2.43 1.52 2.49 1.48 3 1.55 3.4 1.66 3.4 1.78 3.15 1.88 2.91 1.94 2.82 1.96 2.87 1.98 2.9 2 2.79 2.02 2.52 2.04 2.15 2.07 1.8 2.1 1.54 2.12 1.45 2.16 1.51 2.18 1.73 2.2 2.09 2.23 2.57 2.25 3.1 2.28 3.61 2.3 4 2.32 4.18 2.34 4.06 2.34 3.56 2.33 2.73 2.33 1.77 2.3 1.18 2.24 1.52 2.16 2.65 2.23 3.16 2.73" filter="url(#a)"/><path d="m45.53-63.05 5.53 1.24 1.65 1.76 1.32 1.66 1.98 1.52 2.59 1.49 2.89 1.54 2.96 1.66 2.96 1.78 2.96 1.87 2.86 1.94 2.64 1.96 2.33 1.98 2.11 2 2.14 2.01 2.44 2.04 2.9 2.07 3.31 2.09 3.44 2.13 3.17 2.15 2.58 2.18 1.88 2.2 1.32 2.22 1.19 2.25 1.59 2.27 2.47 2.3 3.61 2.33 4.63 2.33 5.15 2.34 4.84 2.34 3.71 2.34 2.33 2.31 1.81 2.22 2.78 2 3.06 1.93" filter="url(#a)"/><path d="m45.53-63.05 1.87 1.24 2.33 1.77 2.09 1.66 1.81 1.53 1.64 1.49 1.59 1.55 1.6 1.66 1.61 1.79 1.62 1.88 1.58 1.94 1.51 1.97 1.43 1.98 1.35 2 1.27 2.03 1.19 2.05 1.12 2.07 1.05 2.1.98 2.13.92 2.16.86 2.19.79 2.21.74 2.23.68 2.25.62 2.28.55 2.31.47 2.32.41 2.34.32 2.34.25 2.33.19 2.32.12 2.29.06 2.27.01 2.24-.07 2.24-.15 2.24-.23 2.04-.31 1.24" filter="url(#a)"/><path d="m41.37-65.88 3.44 2.06 2.83 1.52 3.6 1.53 3.98 1.61 3.49 1.64 2.66 1.64 2.05 1.65 1.82 1.68 1.85 1.73 1.92 1.79 1.88 1.84 1.73 1.89 1.55 1.91 1.44 1.92 1.42 1.94 1.51 1.96 1.68 1.99 1.88 2.04 2.09 2.1 2.29 2.17 2.47 2.24 2.61 2.29 2.63 2.3 2.52 2.28 2.3 2.25 2.02 2.21 1.74 2.21 1.56 2.25 1.38 2.32 1.13 2.39.75 2.43.32 2.4.11 2.32.37 2.2 1.04 2.17 1.61 2.2 1.16 1.99" filter="url(#a)"/><path d="m43.07-64.98 11.27.83 1.6 1.11 1.93 1.38 2.68 1.54 2.88 1.54 2.95 1.52 2.91 1.5 2.72 1.54 2.52 1.64 2.54 1.74 2.97 1.84 3.81 1.91 4.84 1.94L94.47-43l6.35 1.97 6.44 1.99 6.09 2.02 5.42 2.04 4.49 2.06 3.35 2.08 2.11 2.13 1.16 2.18 1.06 2.21 2.21 2.18 4.37 2.08 6.25 2.08 7.16 2.16" filter="url(#a)"/><path d="m43.07-64.98 2.05.82 1.42 1.1 2.12 1.37 3.43 1.52 5.26 1.55 7.29 1.5 8.87 1.48 9.4 1.51 8.74 1.61 7.18 1.73 5.21 1.83 3.28 1.9 1.72 1.93.91 1.94 1.24 1.94 2.77 1.97 4.96 2.01 6.77 2.03 7.46 2.03 7.43 1.97 7.89 1.99 9.2 2.21 6.82 2.58M32.32-70.51l3.49 1.84 2.48 1.32 2.06 1.19 1.93 1.2 1.93 1.29 1.95 1.38 1.95 1.48 1.93 1.55 1.88 1.59 1.81 1.62 1.72 1.65 1.64 1.68 1.56 1.73 1.5 1.78 1.43 1.82 1.37 1.87 1.29 1.9 1.2 1.92 1.11 1.93 1.01 1.95.93 1.97.86 2.02.82 2.08.8 2.16.79 2.24.78 2.31.74 2.34.67 2.31.56 2.23.44 2.15.36 2.1.29 2.16.24 2.29.16 2.49.05 2.65L76-1.85" filter="url(#a)"/><path d="m32.95-70.11 2.77.88 5.25 1.09 5.1 1.19 3.76 1.23 2.55 1.25 2 1.3 2.19 1.38 2.92 1.45 3.79 1.48 4.4 1.49 4.44 1.49 3.99 1.52 3.46 1.6 3.33 1.71 3.86 1.81 4.81 1.9 5.55 1.93 5.62 1.92 5.02 1.92 4.28 1.95 4.03 2.04 4.75 2.17 6.75 2.24 9.18 1.83M31.38-70.85l1.54.76 1.86.92 2.17 1.07 2.25 1.17 2.17 1.23 2.07 1.27 1.98 1.32 1.96 1.39 1.93 1.45 1.89 1.48 1.82 1.5 1.76 1.53 1.7 1.57 1.65 1.65 1.64 1.73 1.61 1.82 1.58 1.88 1.53 1.93 1.47 1.95 1.4 1.97 1.32 1.99 1.26 2.02 1.19 2.05 1.1 2.05 1.02 2.07.96 2.12.93 2.23.92 2.33.78 2.16.29 1.17M27.05-72.46l1.38.78 1.96.93 1.53 1.04.74 1.12.14 1.16.14 1.19.75 1.23 1.57 1.3 2.17 1.38 2.32 1.46 2 1.52 1.33 1.57.54 1.61-.18 1.64-.73 1.68-1.08 1.72-1.28 1.77-1.36 1.82-1.36 1.86-1.25 1.9-.98 1.91-.6 1.93-.23 1.94-.1 1.96-.39 1.99L33-31.99l-1.97 2.15-2.64 2.25-2.87 2.35-2.68 2.4-2.44 2.38-2.48 2.23-2.74 2.04-2.91 1.92-3.14 2.22-3.38 3.01" filter="url(#a)"/><path d="m22.97-73.53 3.46 1 2.5.84 2.21.8 2.21.83 2.32.93 2.4 1.03 2.41 1.11 2.35 1.19 2.27 1.24 2.18 1.31 2.11 1.38 2.08 1.42 2.05 1.47 2.02 1.48 2.02 1.51 2.03 1.55 2.08 1.61 2.18 1.71 2.28 1.81 2.36 1.88 2.39 1.94 2.36 1.93 2.26 1.93 2.09 1.97 1.86 2.04 1.62 2.18 1.59 2.26 1.81 1.84" filter="url(#a)"/><path d="m22.97-73.53 3.79 1 2.98.83 2.61.79 2.51.83 2.43.91 2.36 1.02 2.33 1.1 2.34 1.17 2.4 1.24 2.48 1.29 2.51 1.36 2.48 1.42 2.35 1.46 2.16 1.47 1.98 1.48 1.89 1.49 1.96 1.56 2.17 1.67 2.49 1.82 2.86 1.95 3.09 1.98 2.97 1.89 2.47 1.84 2.47 2.23" filter="url(#a)"/><path d="m15.01-75.64 2.51.43 4.14.55 4.74.63 4.12.69 3.11.77 2.43.83 2.29.91 2.47.98 2.77 1.05 3.09 1.1 3.44 1.14 3.79 1.2 4.21 1.24 4.67 1.32 5.1 1.4 5.4 1.48 5.4 1.54 5.04 1.58 4.42 1.58 3.94 1.59 4.08 1.6 4.93 1.63 5.89 1.7 6.08 2 6.96 3.13" filter="url(#a)"/><path d="m13.02-75.78 2.09.23 2.52.41 2.55.52 2.42.62 2.31.7 2.23.77 2.23.85 2.27.92 2.36.99 2.44 1.06 2.51 1.11 2.53 1.16 2.54 1.22 2.58 1.28 2.6 1.35 2.64 1.42 2.62 1.48 2.53 1.54 2.37 1.58 2.19 1.62 2.01 1.64 1.89 1.69 1.86 1.74 1.88 1.8 1.93 1.87 1.97 1.9 1.97 1.91 1.92 1.91 1.86 1.96 1.86 2.03 1.85 1.94 1.52 1.37" filter="url(#a)"/><path d="m11.1-76.3 2.57.55 2.93.49 3.21.52 3.27.6 3.25.69 3.16.75 3.02.79 2.93.81 2.97.85 3.17.9 3.5.98L49-67.32l4.34 1.13 4.65 1.18 4.78 1.25 4.75 1.32 4.74 1.42 4.87 1.51 5.05 1.53 5.08 1.44 5.31 1.23 7.11.62" filter="url(#a)"/><path d="m4.44-76.68 3.54.21 2.87.34 2.65.42 2.57.49 2.56.55 2.58.62 2.61.69 2.6.75 2.54.8 2.47.85 2.41.89 2.37.95 2.37 1.03L40.94-67l2.36 1.17 2.36 1.24 2.38 1.3 2.39 1.36 2.41 1.41 2.41 1.46 2.38 1.49 2.32 1.53 2.27 1.58 2.22 1.64 2.21 1.72 2.23 1.8 2.26 1.88 2.27 1.92 2.22 1.96 2.15 1.97 2.05 2 1.93 2.04 1.76 2.07 1.54 2.06 1.36 1.95 1.4 1.88 1.73 2.35" filter="url(#a)"/><path d="m6.64-76.88 2.28.4 2.02.33 2.04.3 2.23.34 2.52.4 2.81.49 3 .57 3.05.65 2.99.73 2.9.8 2.87.88 2.92.95 3.04 1.01 3.14 1.08 3.17 1.11 3.13 1.16 3.1 1.19L57-63.23l3.27 1.34 3.45 1.48 3.65 1.66 3.92 1.81 3.57 1.48" filter="url(#a)"/><path d="m2.96-76.76 2.28.12 2.82.22 2.78.32 2.65.41 2.53.48 2.48.55 2.46.62 2.44.68 2.39.75 2.32.79 2.28.84 2.23.9 2.23.95 2.26 1.02 2.28 1.09 2.33 1.16 2.35 1.24 2.37 1.29 2.36 1.36 2.34 1.41 2.28 1.46 2.16 1.49 2.04 1.52 1.9 1.57 1.8 1.64 1.75 1.71 1.76 1.81 1.79 1.88 1.86 1.92 1.89 1.96 1.9 1.96 1.83 1.99 1.67 2.05 1.46 2.12 1.26 2.09 1.13 1.82.83 1.27" filter="url(#a)"/><path d="m2.04-76.92 3.74.16 3.01.29 2.89.3 2.96.31 3.16.35 3.51.4 3.96.49 4.34.56 4.54.64 4.66.72 4.77.8 4.95.87 5.13.94 5.21 1.01 5.14 1.07 5.04 1.12 5.16 1.14 5.73 1.18 6.79 1.24 7.78 1.31 7.77 1.45 6.5 1.74 6.22 2.52" filter="url(#a)"/></g><path fill="none" stroke="#000" stroke-linejoin="round" stroke-width="3" d="M-10.18 29.95Q9.43 45.765-.375-3.902" filter="url(#a)"/><path fill="#D77F8C" stroke="#000" stroke-linejoin="round" stroke-width="3" d="m-59.35 43.93.72.77.74.74.76.72.79.7.81.68.83.65.85.63.88.61.89.59.91.56.93.54.96.52.97.5.98.48 1.01.45 1.02.44 1.04.41 1.06.4 1.07.37 1.08.36 1.1.33 1.12.31 1.12.3 1.15.27 1.15.26 1.17.23 1.17.22 1.19.2 1.2.18 1.21.16 1.23.15 1.23.12 1.23.11 1.25.09 1.26.07 1.26.06 1.27.03 1.28.02 1.28.01 1.29-.01 1.29-.03 1.3-.05 1.3-.06 1.31-.08 1.31-.09 1.31-.11 1.32-.12 1.31-.14 1.32-.16 1.32-.16 1.32-.19 1.32-.19 1.32-.22 1.32-.22 1.31-.24 1.32-.26 1.31-.26 1.31-.28 1.3-.3 1.31-.31 1.29-.31 1.3-.34 1.28-.34 1.29-.36 1.27-.37 1.27-.38 1.26-.39 1.26-.41 1.24-.41 1.24-.43 1.23-.44 1.22-.45 1.21-.46 1.2-.47 1.19-.48 1.17-.49 1.17-.5 1.15-.51 1.14-.52 1.13-.53 1.11-.54 1.1-.54 1.08-.56 1.07-.56 1.05-.58 1.04-.58 1.02-.59 1-.6.99-.6.97-.62.95-.62.93-.63.91-.63.89-.64.87-.65.85-.66.83-.66.8-.67.79-.67-1.12.52-1.11.52-1.11.52-1.12.51-1.11.5-1.12.5-1.11.49-1.12.49-1.11.49-1.12.48-1.11.47-1.12.47-1.11.46-1.11.45-1.12.45-1.11.44-1.12.44-1.11.43-1.12.42-1.11.42-1.12.41-1.11.4-1.11.39-1.12.39-1.11.38-1.12.37-1.11.37-1.12.36-1.11.34-1.12.34-1.11.34-1.12.32-1.11.32-1.11.3-1.12.3-1.11.29-1.12.28-1.11.27-1.12.26-1.11.25-1.12.24-1.11.24-1.11.22-1.12.21-1.11.2-1.12.19-1.11.19-1.12.17-1.11.16-1.12.15-1.11.13-1.11.13-1.12.12-1.11.1-1.12.1-1.11.08-1.12.07-1.11.06-1.12.04-1.11.04-1.12.02-1.11.01-1.11-.01-1.12-.01-1.11-.03-1.12-.04-1.11-.06-1.12-.07-1.11-.08-1.12-.09-1.11-.11-1.11-.13-1.12-.13-1.11-.15-1.12-.17-1.11-.18-1.12-.19-1.11-.21-1.12-.22-1.11-.24-1.11-.25-1.12-.27-1.11-.28-1.12-.3-1.11-.31-1.12-.33-1.11-.34-1.12-.36-1.11-.38-1.12-.39-1.11-.41-1.11-.43-1.12-.44-1.11-.46-1.12-.47-1.11-.49-1.12-.51-1.11-.53-1.12-.54" filter="url(#a)"/></svg>