<svg xmlns="http://www.w3.org/2000/svg" width="500" height="500" viewBox="-100 -100 200 200"><defs><clipPath id="c"><path d="m28.62-6.5-.1-.56-.13-.53-.16-.51-.2-.49-.23-.46-.27-.44-.3-.42-.33-.39-.37-.38-.4-.35-.43-.33-.47-.32-.5-.29-.53-.28-.56-.26-.49-.31-.54-.28-.59-.27-.64-.24-.7-.23-.74-.21-.8-.18-.83-.17-.89-.15-.92-.13-.96-.11-1-.1-1.02-.08-1.06-.06-1.09-.05-1.11-.03-1.13-.02H7.98l-1.16.02-1.17.02-1.19.04-1.18.06-1.19.06-1.19.08-1.18.09-1.18.1-1.17.11-1.15.13-1.15.13-1.12.15-1.11.15-1.08.17-1.06.18-1.04.18-1.01.2-.98.2-.95.22-.92.22-.89.23-.85.25-.83.25-.79.26-.75.26-.72.28-.69.29-.65.29-.62.3-.59.31-.56.32-.53.33-.49.33-.47.34-.43.36-.41.36-.37.38-.35.38-.32.39-.29.41-.25.41-.24.43-.2.43-.18.44-.15.46-.12.46-.22 1.87.31.49.34.49.36.5.38.51.4.5.42.51.44.52.46.51.48.52.5.52.53.51.54.52.57.52.58.51.61.51.63.51.65.52.68.51.7.51.72.5.74.49.77.49.78.48.81.46.83.45.85.44.87.42.88.4.91.38.91.36.94.33.95.31.96.29.97.25.98.23.99.2 1 .16 1 .13 1 .1 1.01.07 1.01.02h1.01l1-.05 1-.08.99-.12.99-.16.98-.19.96-.23.95-.28.94-.31.92-.34.9-.39.89-.41.86-.46.84-.49.82-.52.79-.56.76-.58.74-.61.72-.64.68-.67.65-.69.63-.71.59-.73.59-.55.57-.57.55-.58.53-.59.52-.6.49-.6.47-.62.45-.62.43-.62.41-.63.39-.63.37-.62.34-.63.33-.62.3-.62"/></clipPath><clipPath id="b"><path d="m-28.86-10.14.22-.5.24-.48.26-.45.3-.44.33-.42.36-.4.39-.38.41-.37.45-.34.48-.33.51-.3.53-.29.57-.28.59-.25.62-.24.55-.31.6-.29.65-.27.7-.24.75-.23.79-.2.84-.17.89-.16.92-.14.97-.11 1-.1 1.03-.07 1.06-.06 1.09-.04 1.12-.02 1.14-.01 1.16.02 1.17.02 1.19.05 1.19.05 1.21.07 1.2.08 1.21.1 1.2.11 1.2.11 1.2.13 1.18.14 1.17.15 1.15.15 1.14.16 1.12.17 1.1.18 1.07.19 1.05.19 1.02.19 1 .2.96.21.94.21.9.22.88.22.84.22.81.23.78.23.74.23.72.24.68.25.65.24.62.25.59.25.57.26.53.26.51.26.48.27.45.27.43.27.4.28.37.29.35.29.32.29.3.3.27.31.25.3.22.32.2.32-3.96 5.62-.33.55-.36.55-.37.56-.4.56-.42.57-.45.58-.46.58-.49.58-.51.59-.53.59-.55.6-.58.59-.59.6-.62.59-.64.6-.66.6-.69.61-.71.6-.73.6-.76.6-.78.6-.8.59-.82.58-.84.57-.87.56-.88.54-.9.53-.91.51-.93.49-.95.47-.96.45-.97.42-.98.39-.99.36-1 .33-1.01.3-1 .27-1.01.23-1.01.19-1.01.15-1.01.11-1 .07-1 .02-.99-.02-.98-.06-.96-.11-.96-.16-.94-.2-.92-.25-.9-.3-.89-.34-.86-.39-.84-.44-.81-.49-.8-.53-.76-.57-.74-.62-.7-.66-.68-.71-.65-.74-.62-.77-.59-.81-.55-.85-.53-.87-.53-.63-.52-.64-.5-.66-.48-.68-.46-.69-.44-.7-.42-.71-.4-.72-.38-.72-.35-.73-.34-.72-.32-.73-.29-.73-.28-.72-.25-.71"/></clipPath><filter id="a"><feTurbulence baseFrequency=".05" numOctaves="3" result="noise" type="noise"/><feDisplacementMap in="SourceGraphic" in2="noise" scale="2"/></filter></defs><rect width="100%" height="100%" x="-100" y="-100" fill="#E6E6FA"/><path fill="#CD5C5C" stroke="#000" stroke-linejoin="round" stroke-width="1.667" d="m74.86-.52.37 1.55-.32 1.91.11 2.55-.32-.2.18-.14-.23 2.29-.07.24-.21 2.13-.37 2.43-.07 2.29-.18-.65-.02.64-.23.93-.66 2.92.37-1.04-.48 1.87-.37 1.44-.22 1.05-.68 2.21-.07.16-.33 1.28-.07.57-1.08 2.64-.6 1.87-.39 1.52.15-.81-.48 1.1-1.25 2.67-.63 1.41.18-.1-.96 1.6-.2.49-1.35 2.88v-.66l-.53.86-.9 1.99-.68.96.16.14-.54.58-1.5 1.98-.29.13-1.3 1.65-.86 1.51L59.07 49l-2.35 2.85-1.29 1.66 1.3-1.4-2.38 2.42-.23.52-2.05 2.08-1.29 1.34L52 57.13l-1.25 1.29-1.88 1.61.2.11-2.69 2.29 1.31-.95-.48.16-2.19 1.71-.72.62-.68.58-1.5 1.22-1.04.42-.69.56-.35.61-1.72.8-.11.36-1.59.89-.14.1-3.29 1.64.32-.12-.6.35-2.25 1.02-.77.36-1.38.63-.29.28-1.78.4-.91.72-.56.14-1.52.61-2.04.7.35-.39-.64.26-3.4.8-.88.54-.77.27-2.19.24.62-.12-.4.17-1.4.35-2.91.41-1.54.23.76-.21-1.3.06-2.04.15-.74.26-1.29-.01-.38-.07-1.06.21-2.51-.07-1.3-.07.07.28-3.84-.55-.97.15-.45-.01.56.02-2.55-.18-.93-.35.64.15-4.18-.48.36.08-1.59-.34-1.36-.66.29.09-1.06.05-.91-.47-2.62-.6-.34.13-.07-.1-3.27-1.03-1.39-.54-.29-.08-.64-.25-2.01-1.01.26.27-1.7-.9-2.77-1.17.28.02.14-.09-1.04-.24-1.99-1.01-2.78-1.68.57.08-.86-.3-1.02-.54-3.05-2.27.94.53-.78-.35-2.44-1.93-1.23-.77-.04-.19-.5-.64-.53-.35-.94-1-.18.32-2.35-2.52-1.33-.84.35.23-.94-1.07-1.56-1.41-.67-1.02-1.3-1.63-.11-.13-1.63-1.53.58.38-.95-.97-1.05-1.21-.78-1.43.44.82-1.96-2.53.47.53-1.29-1.65-.45-1.22-1.9-2.79.14.07.14-.02-1.51-2.02-.22-.99-.99-1.55-.47-.77-.41-1.6-.36-1.17-.44.02-.94-2.46.17.69-.25-1.49-1.54-3.76.76 1.75-1.12-2.53-.15-1.37-.52-1.39.06-.41-.31-.97-.65-1.09-.18-2.21.03.45-.72-2.8.03-1.2-.48-1.25-.08-.9-.27-1.08.1-1.61-.45-2.13-.06-.5.09-1.27-.09-1.04-.02-1.29-.03-1.19-.29-.92.11-3.04.05-1.16-.07 1.88.19-1.42.01-2.66-.06.42.15-2v-1.09l.35-1.72.18-2.22.11-.65.27-1.31.46-2.95-.14 1.09.42-1.44.04-1.13.4-.85.38-2.43.7-2.73-.38 1.66.8-2.71.43-1.08-.16.45 1.13-3.62.05.08 1-2.13.11-.94.33-.44-.3.29 1.05-1.65 1.12-2.42.7-1.45-.6.91 1.18-2.15.43-.93 1.65-2.75.34-.62-.38 1 1.78-3.14.11-.29.29-.43 1.28-2.02 1.2-1.31.1-.05.5-.68.22-.25 1.8-1.94.66-.93.67-.87-.74.56 2.18-2.17 1.11-1.02.6-.94.82-.65 2.09-1.81-.77.7 2.11-2.01.6-.55 2-1.54.37-.27-.76.29 3.15-2.11 1.32-.57-.26-.16.54-.3 1.23-.68 1.3-.92.7-.67.87-.35.95-.54 1.61-.93-.35.36 4.18-1.96-1.38.62.95-.77.75-.3 1.28-.64 1.05-.14 1.31-.58 1.94-.99.04.27 2.52-.81-.55.04.72-.03 2.71-.77 1.08-.47 1.24-.28.93-.28 2.48-.53-.34.2 1.98-.26-.35.16 3.31-.68-.38.25 1.12-.2.75-.31 1.41-.09-.11.02 4.24-.01.53-.07.91-.06 1.86-.04-.12.17 2.73-.04-.24-.06 1.82.24.01.04 1.11.3 1.33.13 2.38.12 1.44.23-1.02-.04 1.78.1 2.28.84 1.66.29-.65-.23.67.33 2.13.27 2.21.82 1.2.18 1.43.5.13.14.58.41.82.18.26.03 3.57 1.78 1.25.43 1.36.56-.19.13 2.47 1.18-1.57-.66 2.68 1.52.55.09 1.02.61.58.34 1.74 1.11-.63-.46 1.47 1.28 2.51 1.36 1.74 1.45-.95-.55.5.26 1.51 1.05.64.69 1.32 1.24 1.33.89-.4-.19 3.01 2.89-1.92-1.66 3.4 3.3-.22-.15 1.22 1.24.41.11 1.1 1.4 1.18 1.78 1.22 1.59-.03-.22.75.81.95 1.35 1.57 2.37-.08-.36.5 1.03.14-.01.43 1.07 1.99 3.15-.81-1.52 1.65 2.61-.43-.32.31.47 1.19 2.4.04-.28.99 1.95 1.36 3.04-.48-.53.68.97.55 1.45.94 2.43-.61-1.26 1.36 3.04-.56-.61.73 1.86.39 1.11.05.88.29 1L72.98-18l.15 1.16.19.45-.31-1.44.4 2.24.44 1.6.44 2.88.03-.01.36 1.72-.08.22.35 2.9.03.83.04-.41-.05 2.73.19-.58-.1 2.64-.2.55.37 1.55" filter="url(#a)"/><path fill="#fff" d="m-28.86-10.14.22-.5.24-.48.26-.45.3-.44.33-.42.36-.4.39-.38.41-.37.45-.34.48-.33.51-.3.53-.29.57-.28.59-.25.62-.24.55-.31.6-.29.65-.27.7-.24.75-.23.79-.2.84-.17.89-.16.92-.14.97-.11 1-.1 1.03-.07 1.06-.06 1.09-.04 1.12-.02 1.14-.01 1.16.02 1.17.02 1.19.05 1.19.05 1.21.07 1.2.08 1.21.1 1.2.11 1.2.11 1.2.13 1.18.14 1.17.15 1.15.15 1.14.16 1.12.17 1.1.18 1.07.19 1.05.19 1.02.19 1 .2.96.21.94.21.9.22.88.22.84.22.81.23.78.23.74.23.72.24.68.25.65.24.62.25.59.25.57.26.53.26.51.26.48.27.45.27.43.27.4.28.37.29.35.29.32.29.3.3.27.31.25.3.22.32.2.32-3.96 5.62-.33.55-.36.55-.37.56-.4.56-.42.57-.45.58-.46.58-.49.58-.51.59-.53.59-.55.6-.58.59-.59.6-.62.59-.64.6-.66.6-.69.61-.71.6-.73.6-.76.6-.78.6-.8.59-.82.58-.84.57-.87.56-.88.54-.9.53-.91.51-.93.49-.95.47-.96.45-.97.42-.98.39-.99.36-1 .33-1.01.3-1 .27-1.01.23-1.01.19-1.01.15-1.01.11-1 .07-1 .02-.99-.02-.98-.06-.96-.11-.96-.16-.94-.2-.92-.25-.9-.3-.89-.34-.86-.39-.84-.44-.81-.49-.8-.53-.76-.57-.74-.62-.7-.66-.68-.71-.65-.74-.62-.77-.59-.81-.55-.85-.53-.87-.53-.63-.52-.64-.5-.66-.48-.68-.46-.69-.44-.7-.42-.71-.4-.72-.38-.72-.35-.73-.34-.72-.32-.73-.29-.73-.28-.72-.25-.71" filter="url(#a)" transform="translate(29.67 -22.06)"/><path fill="#fff" d="m28.62-6.5-.1-.56-.13-.53-.16-.51-.2-.49-.23-.46-.27-.44-.3-.42-.33-.39-.37-.38-.4-.35-.43-.33-.47-.32-.5-.29-.53-.28-.56-.26-.49-.31-.54-.28-.59-.27-.64-.24-.7-.23-.74-.21-.8-.18-.83-.17-.89-.15-.92-.13-.96-.11-1-.1-1.02-.08-1.06-.06-1.09-.05-1.11-.03-1.13-.02H7.98l-1.16.02-1.17.02-1.19.04-1.18.06-1.19.06-1.19.08-1.18.09-1.18.1-1.17.11-1.15.13-1.15.13-1.12.15-1.11.15-1.08.17-1.06.18-1.04.18-1.01.2-.98.2-.95.22-.92.22-.89.23-.85.25-.83.25-.79.26-.75.26-.72.28-.69.29-.65.29-.62.3-.59.31-.56.32-.53.33-.49.33-.47.34-.43.36-.41.36-.37.38-.35.38-.32.39-.29.41-.25.41-.24.43-.2.43-.18.44-.15.46-.12.46-.22 1.87.31.49.34.49.36.5.38.51.4.5.42.51.44.52.46.51.48.52.5.52.53.51.54.52.57.52.58.51.61.51.63.51.65.52.68.51.7.51.72.5.74.49.77.49.78.48.81.46.83.45.85.44.87.42.88.4.91.38.91.36.94.33.95.31.96.29.97.25.98.23.99.2 1 .16 1 .13 1 .1 1.01.07 1.01.02h1.01l1-.05 1-.08.99-.12.99-.16.98-.19.96-.23.95-.28.94-.31.92-.34.9-.39.89-.41.86-.46.84-.49.82-.52.79-.56.76-.58.74-.61.72-.64.68-.67.65-.69.63-.71.59-.73.59-.55.57-.57.55-.58.53-.59.52-.6.49-.6.47-.62.45-.62.43-.62.41-.63.39-.63.37-.62.34-.63.33-.62.3-.62" filter="url(#a)" transform="translate(-37.12 -18.77)"/><g fill="none" stroke="#000" transform="translate(29.67 -22.06)"><path stroke-linejoin="round" stroke-width="1.667" d="m-29.6-4.1-.02-.69v-.68l.01-.65.04-.63.06-.62.08-.59.1-.58.13-.55.16-.54.18-.51.22-.5.24-.48.26-.45.3-.44.33-.42.36-.4.39-.38.41-.37.45-.34.48-.33.51-.3.53-.29.57-.28.59-.25.62-.24.55-.31.6-.29.65-.27.7-.24.75-.23.79-.2.84-.17.89-.16.92-.14.97-.11 1-.1 1.03-.07 1.06-.06 1.09-.04 1.12-.02 1.14-.01 1.16.02 1.17.02 1.19.05 1.19.05 1.21.07 1.2.08 1.21.1 1.2.11 1.2.11 1.2.13 1.18.14 1.17.15 1.15.15 1.14.16 1.12.17 1.1.18 1.07.19 1.05.19 1.02.19 1 .2.96.21.94.21.9.22.88.22.84.22.81.23.78.23.74.23.72.24.68.25.65.24.62.25.59.25.57.26.53.26.51.26.48.27.45.27.43.27.4.28.37.29.35.29.32.29.3.3.27.31.25.3.22.32.2.32.18.32.16.33.13.33.12.33.09.35.07.34.06.35.04.36.02.36v.36" filter="url(#a)"/><path stroke-linejoin="round" stroke-width="2.222" d="m-30.35-8.69.06.47.08.51.1.55.12.58.13.61.16.64.17.65.2.68.21.69.24.7.25.71.28.72.29.73.32.73.34.72.35.73.38.72.4.72.42.71.44.7.46.69.48.68.5.66.52.64.53.63.53.87.55.85.59.81.62.77.65.74.68.71.7.66.74.62.76.57.8.53.81.49.84.44.86.39.89.34.9.3.92.25.94.2.96.16.96.11.98.06.99.02 1-.02 1-.07 1.01-.11 1.01-.15 1.01-.19L-.21 17l1-.27 1.01-.3 1-.33.99-.36.98-.39.97-.42.96-.45.95-.47.93-.49.91-.51.9-.53.88-.54.87-.56.84-.57.82-.58.8-.59.78-.6.76-.6.73-.6.71-.6.69-.61.66-.6.64-.6.62-.59.59-.6.58-.59.55-.6.53-.59.51-.59.49-.58.46-.58.45-.58.42-.57.4-.56.37-.56.36-.55.33-.55.31-.53.29-.53.27-.52.25-.51.23-.5.2-.5.19-.48.17-.48.15-.47.13-.46" filter="url(#a)"/><circle cx="5.595" cy="-1.198" r="4.136" clip-path="url(#b)" filter="url(#a)"/><circle cx="7.39" cy="-.133" r="4.866" clip-path="url(#b)" filter="url(#a)"/><circle cx="8.615" cy="-.413" r="4.022" clip-path="url(#b)" filter="url(#a)"/><circle cx="6.5" cy="-1.323" r="3.174" clip-path="url(#b)" filter="url(#a)"/><circle cx="6.775" cy="-4.038" r="3.744" clip-path="url(#b)" filter="url(#a)"/><circle cx="7.805" cy="-3.388" r="3.89" clip-path="url(#b)" filter="url(#a)"/><circle cx="8.69" cy="-3.073" r="4.802" clip-path="url(#b)" filter="url(#a)"/><circle cx="8.615" cy="-1.018" r="3.046" clip-path="url(#b)" filter="url(#a)"/><circle cx="7.66" cy="-4.433" r="4.142" clip-path="url(#b)" filter="url(#a)"/><circle cx="9.385" cy="-.888" r="3.502" clip-path="url(#b)" filter="url(#a)"/></g><g fill="none" stroke="#000" transform="translate(-37.12 -18.77)"><path stroke-linejoin="round" stroke-width="2.222" d="m27.88.6.2-.84.18-.81.14-.79.13-.75.09-.72.06-.69.03-.67v-.64l-.03-.61-.06-.58-.1-.56-.13-.53-.16-.51-.2-.49-.23-.46-.27-.44-.3-.42-.33-.39-.37-.38-.4-.35-.43-.33-.47-.32-.5-.29-.53-.28-.56-.26-.49-.31-.54-.28-.59-.27-.64-.24-.7-.23-.74-.21-.8-.18-.83-.17-.89-.15-.92-.13-.96-.11-1-.1-1.02-.08-1.06-.06-1.09-.05-1.11-.03-1.13-.02H7.98l-1.16.02-1.17.02-1.19.04-1.18.06-1.19.06-1.19.08-1.18.09-1.18.1-1.17.11-1.15.13-1.15.13-1.12.15-1.11.15-1.08.17-1.06.18-1.04.18-1.01.2-.98.2-.95.22-.92.22-.89.23-.85.25-.83.25-.79.26-.75.26-.72.28-.69.29-.65.29-.62.3-.59.31-.56.32-.53.33-.49.33-.47.34-.43.36-.41.36-.37.38-.35.38-.32.39-.29.41-.25.41-.24.43-.2.43-.18.44-.15.46-.12.46-.1.47-.07.49-.05.49-.02.5v.52l.02.52.05.53.07.54.08.55.11.55" filter="url(#a)"/><path stroke-linejoin="round" stroke-width="2.222" d="m30.42-8.95-.08.45-.1.49-.12.51-.14.53-.17.54-.19.57-.21.58-.23.59-.26.61-.27.61-.3.62-.33.62-.34.63-.37.62-.39.63-.41.63-.43.62-.45.62-.47.62-.49.6-.52.6-.53.59-.55.58-.57.57-.59.55-.59.73-.63.71-.65.69-.68.67-.72.64-.74.61-.76.58-.79.56-.82.52-.84.49-.86.46-.89.41-.9.39-.92.34-.94.31-.95.28-.96.23-.98.19-.99.16-.99.12-1 .08-1 .05H2.3l-1.01-.02-1.01-.07-1-.1-1-.13-1-.16-.99-.2-.98-.23-.97-.25-.96-.29-.95-.31-.94-.33-.91-.36-.91-.38-.88-.4-.87-.42-.85-.44-.83-.45-.81-.46-.78-.48-.77-.49-.74-.49-.72-.5-.7-.51-.68-.51-.65-.52-.63-.51-.61-.51-.58-.51-.57-.52-.54-.52-.53-.51-.5-.52-.48-.52-.46-.51-.44-.52-.42-.51-.4-.5-.38-.51-.36-.5-.34-.49-.31-.49-.3-.48-.28-.48-.26-.47-.23-.47-.22-.46-.2-.45-.19-.44-.16-.44-.15-.43-.13-.42" filter="url(#a)"/><circle cx="11.044" cy="-3.904" r="3.296" clip-path="url(#c)" filter="url(#a)"/><circle cx="8.299" cy="-4.829" r="3.526" clip-path="url(#c)" filter="url(#a)"/><circle cx="10.399" cy="-3.424" r="3.368" clip-path="url(#c)" filter="url(#a)"/><circle cx="10.759" cy="-4.904" r="4.45" clip-path="url(#c)" filter="url(#a)"/><circle cx="8.229" cy="-3.769" r="4.03" clip-path="url(#c)" filter="url(#a)"/><circle cx="9.874" cy="-2.609" r="4.152" clip-path="url(#c)" filter="url(#a)"/><circle cx="8.649" cy="-6.194" r="4.558" clip-path="url(#c)" filter="url(#a)"/><circle cx="11.164" cy="-4.974" r="3.202" clip-path="url(#c)" filter="url(#a)"/><circle cx="9.819" cy="-5.484" r="4.044" clip-path="url(#c)" filter="url(#a)"/><circle cx="10.444" cy="-2.179" r="3.508" clip-path="url(#c)" filter="url(#a)"/></g><g fill="none" stroke="#228B22" stroke-linejoin="round" stroke-width="2"><path d="m39-67.88 1.49 1.22 1.07 1.01.31.7-.34.5-.79.42-1.15.45-1.51.49-1.9.5-2.36.49-2.84.46-3.36.42-3.88.37-4.43.32-5.02.26-5.62.2-6.25.17-6.89.12-7.54.11-8.27.08-9.04.04-9.65-.12" filter="url(#a)"/><path d="m29.74-72.73 1.02.44.56.46.18.48-.14.5-.43.55-.72.58-1.05.63-1.4.67-1.78.73-2.17.81-2.57.88-3 .96-3.46 1.03-3.96 1.07-4.51 1.11-5.06 1.14-5.58 1.2-6.08 1.26-6.58 1.31-7.12 1.37-7.72 1.46-8.37 1.51-8.94 1.46m65.88-26.25 1.07.33 1.38.39 1.19.4.8.37.36.33.01.32-.26.33-.45.37-.63.41-.86.45-1.19.45-1.58.44-2.03.41-2.48.37-2.9.35-3.31.34-3.73.32-4.2.33-4.7.34-5.24.35-5.75.35-6.22.34-6.64.33" filter="url(#a)"/><path d="m8.87-78.68 1.81.13 1.12.15.95.17.98.22.98.23.86.22.72.19.59.18.46.17.29.14.04.11-.28.07-.65.01-1.01-.03-1.35-.07-1.71-.09-2.11-.14-2.61-.2-3.17-.3-3.7-.41-4.06-.49m57.14 23.64.63.56.88 1.08.89 1.15.76.99.61.78.48.63.33.47.13.27-.1.01-.35-.29-.61-.57-.87-.86-1.13-1.17-1.44-1.54-1.83-1.97-2.27-2.46-2.71-2.95m12.18 12.69.8 1.32-.11.35-.67-.04-1.11-.24-1.55-.46-2.07-.75-2.68-1.14L49-50.5l-4.05-2.01-4.78-2.41-5.53-2.82-6.38-3.23-7.31-3.68-8.32-4.21-9.21-4.85m-45.28 7.72.92-.46.81-.46 1.09-.6 1.36-.73 1.55-.81 1.65-.83 1.69-.82 1.72-.8 1.69-.78 1.62-.74 1.47-.68 1.26-.59 1-.48.73-.38.48-.26.26-.16.09-.09-.17.02" filter="url(#a)"/><path d="m24.51-75.13.58.32.7.34.86.47.84.52.56.49.18.4-.25.3-.64.23-1.01.16-1.35.12-1.72.07-2.11.04H18.6l-3-.03-3.46-.05-3.9-.1-4.36-.17-4.87-.27-5.47-.39-6.17-.46-6.89-.44m18.45-5.71.75-.05 1.14.01 1.34.07 1.43.09 1.45.13 1.4.14 1.32.16 1.25.16 1.17.16 1.07.13.93.12.71.07.42.04h.12l-.19-.04-.53-.08-1.07-.14-1.79-.22m28.04 10.01 1.07.69.88.61 1.06.75 1.06.74.84.61.56.42.34.29.16.19-.01.09-.23-.03-.49-.2-.81-.41-1.14-.65-1.53-.91-1.99-1.22-2.63-1.62-3.6-2.18m-52.74-4.69.1-.05 1.08-.26 1.53-.39 1.62-.41 1.57-.38 1.43-.33 1.27-.26 1.09-.2.92-.15.72-.1.49-.07.2-.02-.13.01-.47.05-.83.1-1.22.19-1.78.31" filter="url(#a)"/><path d="m44.27-64.08 1.02.85.45.7-.03.53-.53.36-1.08.2-1.64.04-2.22-.14-2.84-.33-3.52-.55-4.25-.76-5.03-.96-5.86-1.16-6.71-1.38-7.56-1.67-8.38-2.04-9.21-2.4M64.7-39.94l.22.81-.26.9-.86.79-1.51.66-2.22.43-2.97.16-3.73-.1-4.48-.33-5.26-.57-6.06-.78-6.88-1-7.71-1.2-8.53-1.4-9.39-1.56-10.25-1.72-11.17-1.85-12.1-1.99-12.97-2.34M2.23-79.46l.7.12 1.28.13 1.38.19 1.44.27 1.55.31 1.67.36 1.78.36 1.79.38 1.75.36 1.63.36 1.48.33 1.28.28 1.05.21.8.14.61.09.49.06.35.02.08-.05-.46-.16" filter="url(#a)"/><path d="m13.45-78.27 1.8.58 1.1.3.82.2.84.21.9.24.82.24.56.21.21.15-.17.08-.5.01-.78-.02-1.05-.06-1.37-.11-1.8-.19-2.33-.3-2.96-.44-3.67-.58-4.65-.7m45.2 16.11.94.95.28.63-.31.48-.87.38-1.44.24-2.05.1-2.7-.09-3.39-.29-4.11-.46-4.89-.65-5.71-.83-6.6-1.06-7.53-1.33-8.46-1.61-9.33-1.86-10.21-2.06" filter="url(#a)"/><path d="m-7.36-78.9.98-.19 1.42-.04 1.82.05 2.06.08 2.07.11 2.01.12 1.93.14 1.85.16 1.75.17 1.6.17 1.39.16 1.15.13.92.09.73.07.57.05h.31l-.33-.14m43.92 28.46.82 1.36.27.97-.32.55-.81.31-1.22.23-1.61.15-2.03.04-2.5-.12-3-.3-3.52-.47-4.04-.6-4.57-.71-5.11-.84-5.68-.97-6.27-1.16-6.89-1.37-7.52-1.6-8.14-1.85-8.74-2.12-9.27-2.43-9.8-2.77" filter="url(#a)"/><path d="m-18.43-76.81 1.19-.37 1.46-.28 1.66-.21 1.78-.12 1.84-.07 1.9-.04 1.94-.02 1.95-.02 1.96-.02 1.97-.01H1.2l1.99.01 1.96.03 1.84.02 1.65.01h2.57l.94-.01.69-.01.27-.08-.4-.19m18.28 5.89 1.04.54 1.04.69 1.17.84 1.34.96 1.5 1.09 1.61 1.17 1.65 1.21 1.64 1.23 1.62 1.24 1.59 1.22 1.53 1.17 1.41 1.05 1.2.88.93.67.66.48.39.29-.08-.14" filter="url(#a)"/><path d="m39-67.88 1.56 1.18 1.33.95.72.57.2.26-.14.07-.4-.04-.7-.15-1.09-.32-1.56-.54-2.05-.8-2.57-1.07-3.15-1.38-3.83-1.73-4.59-2.14-5.16-2.52m36.59 20.76.6.52.8.99.74.99.53.74.3.45.06.19-.2-.08-.52-.39-.91-.8-1.29-1.22-1.64-1.6-1.96-1.94-2.37-2.37-3.2-3.13m19.19 21.72-.13-.33.31.52.33.64.33.67.31.68.27.63.16.51.01.3-.19.01-.41-.32-.63-.66-.87-1-1.12-1.38-1.39-1.77-1.67-2.19-1.94-2.61-2.23-3.04-2.55-3.51-2.95-4.02m24.36 46.47-.18-2.37.46-1.82 1.07-1.39 1.31-1.22 1.08-1.29.55-1.42v-1.51l-.27-1.53-.22-1.53.04-1.53.35-1.51.52-1.49.52-1.46.39-1.43.24-1.44.16-1.48.21-1.55.35-1.67.55-1.97.76-2.67.85-3.43M-31.58-91.17l1.95.09 1.56.55 1.47.72 1.44.71 1.53.7 1.61.66 1.64.48 1.58.28 1.49.19 1.41.29 1.36.52 1.32.68 1.28.61 1.19.33 1.11-.04 1.03-.22 1.03-.08 1.1.33 1.25.78 1.46 1.11 1.61 1.32 1.51 1.27 1.02.47-.91.06-1.39.15-1.67.45-1.31.77-1.06.77-.94.46-.94.15-.95.03-.97.1-.97.25-.98.4-1 .48-1.03.53-1.07.59-1.08.64-1.09.7-1.06.71-.99.72-.91.73-.81.8-.77.91-.8.98-.9.94-.93.9-.81.77" filter="url(#a)"/><path d="m-32.06-101.41 1.22 1.27 1.68 1.39 1.75 1.65 1.87 1.68 1.95 1.46 1.91 1.11 1.8.77 1.66.54 1.53.5 1.46.6 1.39.81 1.36 1.07 1.33 1.26 1.28 1.31 1.19 1.08 1.1.58 1.07.01 1.16-.13 1.46.57 1.85 1.87 1.5 2.65" filter="url(#a)"/><path d="m-1.07-79.29.66-.09.93-.21 1.03-.33 1.05-.34 1.04-.23.99-.07.94.03.95.04 1.02-.02 1.13-.09 1.25-.11 1.23-.08 1.01-.09.75-.2 1.07-.29m-15.05 2.08-2.68.24-1.39.42-.96.6-.83.74-.78.83-.81.85-.86.77-.9.57-.94.32-.97.11-1.01.09-1.03.35-.97.8-.85 1.22-.7 1.58 11.44-9.48-.38-.37-.87-1.03-.98-1.21-1-.74-1.01-.18h-1.08l-1.17-.23-1.28-.65-1.38-.96-1.46-1.03-1.53-.89-1.6-.76-1.68-.77-1.74-.93-1.74-1.14-1.7-1.26-1.64-1.21-1.68-1.11-1.86-1.1-2.22-1.3-2.85-2.44 30.85 19.31 2.85-2.18 1.64-2.15 1.3-1.18 1.22-.93 1.21-1.01 1.2-1.17 1.21-1.41 1.25-1.7 1.32-1.88 1.4-1.83 1.47-1.49 1.49-.96 1.45-.42 1.42-.04 1.43.04 1.51-.28 1.63-.91 1.69-1.58 1.69-1.85 1.79-1.55 2.21-.79 2.58 1.04" filter="url(#a)"/><path d="m-5.2-79.3-1.53-4.67-.9.55-.85.82-1 .17-1.11-.3-1.17-.48-1.19-.48-1.24-.51-1.39-.79-1.6-1.27-1.83-1.76-1.98-1.92-2.02-1.65-1.9-1.31-1.51-1.46-.59-2.04L-8.1-78.95l.11-.01.62-.33.89-.33 1.12-.26 1.29-.35 1.38-.54 1.39-.78 1.33-.88 1.27-.85L2.5-84l1.15-.59 1.13-.59 1.13-.67 1.16-.76 1.22-.79 1.29-.68 1.34-.54 1.36-.44 1.35-.42 1.39-.46 1.49-.49 1.63-.52 1.48-.73.56-1.59-49.68 25 .71-.88.78-.72.9-.69.96-.74.99-.78.99-.74.96-.67.94-.61.95-.56.99-.55 1.07-.54 1.15-.51 1.21-.45 1.22-.36 1.19-.25 1.14-.13 1.06-.04 1.01-.07 1.17-.34 2.01-1.05-2.96.52-.49-7.75 1.03-1.38 1.09-.42 1.03-.59 1.06-.98 1.19-1.09 1.35-.78 1.47-.22 1.53.21 1.51.26 1.45-.18 1.39-.89 1.34-1.5 1.29-1.69 1.21-1.36 1.15-.8 1.18-.53 1.42-.95 1.94-1.94 2.87-3.4-45.6 29.58-.54.24.42-.05.84-.2 1.03-.29 1.13-.35 1.19-.35 1.18-.3 1.15-.27 1.09-.25 1.07-.27 1.08-.28 1.16-.29 1.24-.27 1.3-.24 1.31-.17 1.29-.12 1.2-.07h1.11l1.34-.07" filter="url(#a)"/><path d="m-13.04-78.17-.72-1.47-1.15.27-1.36.09-1.54-.48-1.64-.88-1.63-1-1.54-.95-1.45-.79-1.37-.53-1.33-.23-1.37-.03-1.46-.05-1.55-.25-1.61-.52-1.58-.73-1.42-.97-1.08-1.42-.14-2.2m23.94 12.14 1.34-.2 1.1-.19 1.07-.2.97-.18.92-.19.93-.19 1.03-.16 1.19-.13 1.32-.09 1.39-.07 1.34-.06 1.21-.07 1.13-.06 1.18-.07 1.8-.07m8.92-16.3-2.52 1.84-1.74 1.14-1.33.84-1.14.83-1.12.97-1.15 1.15-1.2 1.22-1.25 1.17-1.29 1.03-1.34.88-1.38.7-1.41.53-1.36.39-1.26.38-1.13.49-1 .69-.93.88-.93.97-.96.89-.96.67-.82.32-.28.05" filter="url(#a)"/><path d="m-24.54-59.93-.51.01.04-.78.26-1.24.41-1.42.54-1.46.62-1.43.68-1.35.7-1.22.69-1.14.68-1.14.72-1.19.8-1.29.92-1.3 1.04-1.18 1.14-.92 1.31-.65 1.8-.74 18.54-17.5-2.23 2.32-1.43.39-1.33-.32-1.43-.11-1.52.48-1.52 1.18-1.39 1.79-1.19 2.11L-7.23-86l-.94 1.6-.94 1.07-.98.68-1 .62-.96.74-.86.91-.87 1.11-1.4 1.43m-2.17.56-1.19 1.19-1.34.44-1.04.37-.83.57-.75.86-.73 1.12-.78 1.22-.84 1.1-.9.83-.93.54-.87.37-.74.39-.58.63-.53 1.07-.55 1.57-.01 1.62 12.61-13.89-1.52-.03-1.71-.84-1.36-.61-1.11-.18-1.15-.12-1.31-.29-1.41-.33-1.36-.09-1.25.19-1.17.26-1.18.02-1.25-.38-1.37-.64-1.47-.58-1.56-.28-1.55-.03-1.94-.53 23.67 4.46-1.94-1.44-2.07-2.09-1.39-.68-.97.45-.95.72-1.12.47-1.27.2-1.29.13-1.22.23-1.13.34-1.07.34-1.11.23-1.2.06-1.32-.11-1.44-.19-1.48-.2-1.49-.15-1.48-.1-1.52-.15-1.63-.3-1.76-.52-1.72-.64-1.21-.42-.05.37" filter="url(#a)"/><path d="m-17.35-77.28-1.28.82-1.27.71-1.05.41-.93.31-.95.31-1.02.36-1.07.44-1.07.49-1.04.52-.97.52-.86.51-.77.51-.73.54-.82.59-.95.65-1.01.68-1.06.75-17.56-16.82 1.15 1.44 1.08.08 1.12-.5 1.33-.33 1.55.06 1.71.38 1.77.52 1.77.53 1.73.53 1.68.62 1.64.77 1.62.94 1.6 1.04 1.59 1 1.56.84 1.5.54 1.39.16 1.22-.27 1.02-.62.84-.76.86-.38 1.33.67 2.27.91" filter="url(#a)"/><path d="m2.52-94.44-.57 1.39-1.18.78-1.42.49-1.55.55-1.56.72-1.44.89-1.25 1.06-1.08 1.23-.98 1.32-.96 1.23-1 .93-1.06.49-1.12.1-1.15-.04-1.13.21-1.09.79-1.06 1.37-1.11 1.6-1.24 1.38-1.35 1.13-1.08.81m95.27 60.42 2.56 1.35 1.51 1.39.42 1.28.13 1.23.4 1.19.82 1.15 1.09 1.09 1.1 1.04.9 1.04.65 1.09.5 1.18.55 1.31.83 1.46L86.1 1.9l1.54 2.05 2.28 2.64" filter="url(#a)"/><path d="m-23.83-75.24 1.51-.52.9-.33 1-.36 1.19-.41 1.27-.42 1.27-.39 1.22-.34 1.16-.28 1.11-.23 1.06-.19 1.04-.17 1.02-.15 1-.15.94-.17.88-.18.83-.19.74-.16.34-.08-2.01 1.06-.81.1-.91.11-1.05.14-1.06.14-1.03.14-1.04.16-1.1.21-1.17.26-1.23.3-1.26.35-1.25.35-1.17.33-1.02.29-.91.26-.89.22-.61.03m-5.9 2.8-2.48 1.48-1.25.9-.88.84-.7.96-.57 1.12-.46 1.28-.35 1.4-.26 1.45-.24 1.36-.31 1.19-.44 1.07-.53 1.14-.45 1.24-.21 1.01.02.58M73.01-17.83l-.27.75-.74-.33-1.15-.98-1.25-1.23-1.15-1.23-.91-1.12-.66-1.04-.47-.97-.39-.92-.46-.85-.57-.81-.74-.76-.93-.71-1.11-.64-1.27-.57-1.35-.6-1.27-.78-.93-.91-.25-.46m-81.64-70.12-2.06 2.05-.97 1.69-.6 1.9-.47 2.48-.38 3.08-.35 3.36-.38 3.2-.45 2.74-.45 2.29-.39 2-.31 1.81-.35 1.6-.56 1.29-.85 1.01-1.01.76-1.13.67-2.11-1.91-.74.76-.8.83-1.08.35-1.18.07-1.17.03-1.16.11-1.2.21-1.24.26-1.29.28-1.31.3-1.34.34-1.36.42-1.33.54-1.3.57-1.35.49-1.57.37-1.84.1-9.9 1.59 1.03-.63 1.37-.02 1.71.1 1.84-.08 1.84-.24 1.81-.28 1.78-.22 1.77-.15 1.69-.18 1.55-.32 1.34-.54 1.14-.73 1.04-.78 1.05-.69 1.15-.5 1.24-.31 1.26-.19 1.23-.09 1.26.07 1.41.32 1.54.43 1.34.15.93-.29-2.55-2.74-2.11-1.64-.77.88-.44 1.42-.92.58-1.75-.66-2.54-1.69-2.98-2.19-2.97-2.07-2.61-1.5-2.23-.76-2.01-.11-1.76.46-1.25.8-1.15-1.12 28.04 10.34-.8.44-.87.59-.89.61-.84.57-.79.53-.8.54-.87.59-.92.64-.93.66-.89.68-.89.72-.96.81-1.01.88-.85.78-.09.1" filter="url(#a)"/><path d="m-70.82-66.67 1.01-.7 1.67.25 2.06.42 1.95-.05 1.74-.41 1.71-.42 1.85-.16 2.02.12 2.04.21 1.9.07 1.63-.22 1.32-.55 1.08-.77 1.04-.75 1.18-.45 1.45.01 1.63.43 1.6.56 1.41.39 1.29.09 1.25-.17.96-.52-23.92 5.02 1.16-.92 1.56-.34 1.46-.44 1.4-.45 1.48-.32 1.62-.14 1.72.01 1.7.07 1.58.01 1.42-.13 1.25-.33 1.05-.59.77-.89.45-1.26.25-1.53.5-1.27 1.48.22 3.07 3.28" filter="url(#a)"/><path d="m-37.73-68.62.58-.85.55-1.15.65-1.2.86-.94 1.01-.64 1.02-.52.93-.56.84-.65.82-.69.87-.7.95-.76.98-.9.95-1.15.85-1.45.75-1.67.69-1.69.77-1.54.97-1.33 1.24-1.25 1.38-1.19 1.3-.94-35.54 44.13.32-.71.59-.83.6-.98.56-.98.52-.94.53-.97.57-1.04.58-1.13.59-1.2.59-1.21.63-1.16.73-1.05.84-.9.95-.76 1.01-.65 1-.64.93-.71.84-.83.74-.98.61-1.07.39-1.09.35-.93.81-.68" filter="url(#a)"/><path d="m-62.8-60.87.64-.45 1.39.06 1.57-.31 1.45-.63 1.35-.72 1.3-.67 1.33-.56 1.36-.46 1.4-.4 1.42-.34 1.38-.33 1.28-.41 1.13-.53 1.05-.64 1.04-.64 1.01-.52.92-.28.97.07 1.78.93-1.23.68-1.76-1.93-.64.46-.71 1.05-.85.99-1.01.72-1.2.42-1.38.23-1.48.19-1.44.29-1.33.45-1.23.6-1.21.67-1.28.69-1.37.66-1.42.63-1.33.51-1.08.24-.82.24" filter="url(#a)"/><path d="m-40.8-66.72.41-.97.78-.91.7-1.14.68-1.13.76-.97.85-.87.89-.91.86-1 .82-1.03.79-.94.75-.83.73-.85.71-1.05.73-1.36.8-1.57.93-1.52.94-1.34.37-1.06m-13.24 19.61-.68 2.16-1.13 1.1-1.06.53-.99.47-.95.64-.89.84-.81.98-.73 1.05-.69 1.07-.71 1.08-.71 1.09-.7 1.12-.64 1.14-.51 1.06-.39.89-.36.69-.6.67 11.23-16.01.89-.31.58-.27.68-.37.85-.41.96-.4 1-.41 1-.45.99-.49 1-.52 1-.52.98-.48.94-.44.89-.39.87-.34.91-.31 1.01-.29 1.13-.29 1.21-.28 1.16-.21.62-.05m-21.06 9.05-.77.64-1.1.91-1.06.97-.95.95-.85.95-.83.97-.84.98-.87.97-.86.94-.81.93-.72.91-.63.94-.56.96-.53.96-.54.93-.54.85-.53.81-.56.85-.63 1.01-.71 1.14-.5.88 13.02-17.64-1.38.16-1.78-.16-2.08-.56-2.28-.7-2.35-.62-2.28-.38-2.01-.07-1.63.31-1.26.58-1.09.68-1.23.6-1.56.38-1.92.07-2.21-.39-2.59-1.14-3.37-2.34" filter="url(#a)"/><path d="m-46.62-62.36 1.36-.98.94-.4 1.11-.17 1.3-.07 1.28-.05 1.14-.13.98-.25.89-.36.89-.41.95-.33 1.05-.18 1.16.02 1.24.14 1.31.17 1.32.17 1.25.18.97.28.88.56-20.02 1.81-.79.93-.76 1.05-.76.97-.74.99-.61 1.19-.4 1.43-.19 1.6-.09 1.61-.1 1.49-.2 1.29-.31 1.13-.39 1.01-.42.93-.44.88-.47.84-.48.86-.46.94-.36 1.07-.2 1.22v1.37l.29 1.48.98.99m6.9-25.27-1.21.37-1.47.22-1.71-.14-1.72-.08-1.6.19-1.46.43-1.3.62-1.12.73-.98.79-.95.75-1.13.59-1.45.33-1.76.01-1.9-.21-1.89-.26-1.94-.15-2.02.34-1.29 1.93" filter="url(#a)"/><path d="m-49.33-59.8.81-2.53.93-1.48.41-1.74.05-2.04-.01-2.16.09-2.12.17-2.04.15-2.04.07-2.17-.04-2.4v-2.46l.24-2.12.66-1.45 1.08-.81 1.21-.77.95-1.61.55-2.87.32-3.35-.62-1.96-7.02 38.12-.13.03-.9.63-1.13.72-1.24.66-1.29.59-1.28.49-1.23.44-1.19.42-1.17.45-1.14.48-1.13.48-1.18.43-1.29.37-1.42.33-1.48.4-1.41.56-1.29.72-1.28.79-1.31.68-.38.09" filter="url(#a)"/><path d="m-70.93-47.74 1.82-1.94 1.65-.67 1.66-.38 1.35-.59.85-.9.46-1.09.41-1.05.68-.81 1.15-.43 1.54-.1 1.7.08 1.61.03 1.4-.23 1.21-.55 1.09-.79.93-.83.77-.7 24.63-1.53-.3-.23-1.37-.3-1.39-.31-1.29-.27-1.17-.14h-1.09l-1.12-.03-1.2-.18-1.3-.34-1.32-.39-1.28-.26-1.19-.03-1.09.24-1.02.43-.94.56-.9.69-.83.87-.79 1-.98.72-1.68-.25-2.38-.25" filter="url(#a)"/><path d="m-50.65-58.69 1.28-1.1.87-.77.96-.81 1-.82.98-.78.95-.72.94-.68.95-.62.95-.58.92-.52.92-.49.91-.47.91-.48.92-.5.94-.51.98-.51 1.02-.48 1.07-.46 1.09-.44 1.02-.41.85-.35.65-.29.65-.34-25.03 35.51.22-2.36-.37-1.78-.35-1.62-.14-1.49.07-1.26.23-1.05.29-.96.26-1.03.18-1.19.11-1.28.13-1.25.29-1.11.52-.99.66-1.05.56-1.31.32-1.45.32-1.2m-.82.65-.36 1.46-.98 1.04-.8.98-.57.96-.53.94-.59.9-.63.87-.63.83-.61.83-.6.86-.59.9-.58.95-.56 1-.51 1.04-.45 1.07-.39 1.11-.38 1.15-.4 1.19-.44 1.23-.43 1.21-.34 1.13-.21 1.07-.17 1.26-.46 1.92" filter="url(#a)"/><path d="m-36.86-90.01-2.12 3.88-1.19 1.87-1.13.95-1.01.89-.74 1.26-.5 1.65-.33 1.86-.25 1.9-.25 1.8-.39 1.58-.63 1.23-.93.84-1.11.56-1.11.57-.85.95-.49 1.53-.19 1.99-.13 2.01-.4 1.59-.72 1.21-.14 1.85-.6.94-1.15 1.17-.86 1.05-.6.85-.56.82-.59.86-.6.91-.54.91-.48.91-.44.92-.45.98-.5 1.02-.55 1.04-.56 1.03-.49 1.03-.37.95-.16.72.11.57M73.13-16.84v.12l.01.39.1.97.16 1.31.16 1.39.06 1.34-.04 1.26-.15 1.22-.2 1.17-.19 1.12-.14 1.05-.11 1-.1.99-.12 1.04-.2 1.1-.36 1.14L71.5.98" filter="url(#a)"/><path d="m-53.18-56.08-.65 1.85.06 1.3-.17 1.07-.61.84-.81.71-.76.7-.56.79-.35.98-.15 1.19-.04 1.35-.02 1.39-.05 1.34-.11 1.24-.15 1.16-.18 1.14-.21 1.23-.34 1.39-.46 1.55-.29 1.9m3.67-20.95-.65-4.1.98-1.48.67-1.45.48-1.51.56-1.37.66-1.28.72-1.27.77-1.25.8-1.18.73-1.17.59-1.34.43-1.76.33-2.24.16-2.37-.12-1.23" filter="url(#a)"/><path d="m-54.62-54.47-1.08.58-1.78.19-1.45.4-.84.73-.55.89-.6.88-.78.83-.89.82-.91.84-.93.83-1.05.77-1.31.63-1.64.49-1.89.4-1.91.46-1.68.62-1.32.82-1.05 1.01-1.01 1.17-1.14 1.28-1.13 1.14-.65.25 25.59-16.03.12-.29.87-1 .94-1.12.89-1.09.82-1.07.79-1.05.78-1.05.81-1.03.86-.99.87-.92.9-.85.91-.78.94-.74.94-.72.86-.71.73-.69.67-.69.79-.79 1.09-.95-15.58 16.53-.82.81-1.02.87-1.07.73-1.11.5-1.16.38-1.2.38-1.22.47-1.22.57-1.19.63-1.12.71-1 .81-.89.91-.81 1.02-.78 1.11-.79 1.15-.83 1.14-.92 1.07-1.05 1.01-1.23.93-1.36.87-1.32.73-1.12.53-.91.34-.59.6m23.4-16.47-1.24 1.3-.72.75-.59.65-.62.75-.67.87-.7.94-.69.97-.68.98-.64.97-.63 1-.63 1.04-.64 1.09-.64 1.12-.63 1.12-.62 1.12-.61 1.1-.59 1.11-.57 1.09-.51.99-.42.85-.37.76-.43.96-.72 1.58 14.56-23.11-.8 1.68-.36 1.05-.53.69-.65.68-.63.87-.54 1.03-.46 1.12-.4 1.14-.31 1.16-.23 1.2-.17 1.28-.13 1.34-.14 1.37-.14 1.34-.14 1.29-.13 1.26-.19 1.27-.3 1.23-.35 1.04-.12.73.35.58" filter="url(#a)"/><path d="m-57.97-50.48.8-.52 1.37-.5 1.57-.12 1.49.01 1.28-.15 1.18-.33 1.23-.38 1.29-.38 1.2-.45 1.02-.61.91-.66 1.06-.43 1.46-.01 1.86.39 1.84.42.92-.17" filter="url(#a)"/><path d="m-57.97-50.48.97-.37 1.87-.03h1.71l1.17-.32.81-.66.74-.83.89-.76 1.13-.53 1.35-.27 1.48-.06 1.51.01 1.45-.05 1.3-.2 1.16-.33 1.08-.26 1.21.09 1.58.54 2 .63 1.65-.15m-25.56 4.23-.5.46-.83.94-.84 1.03-.87.92-.99.76-1.15.63-1.27.57-1.29.64-1.22.77-1.06.92-.89 1.03-.76 1.11-.69 1.12-.68 1.12-.71 1.05-.73.94-.79.8-.89.72-1.02.75-1.18.94-1.33 1.3-1.63 2.37" filter="url(#a)"/><path d="m-84.55-40.52 2.78.82 2.58-.4 2.05-.82 1.79-.72 1.7-.59 1.57-.65 1.37-.82 1.2-.94 1.16-.85 1.24-.67 1.25-.56 1.02-.72.62-1.03.56-1.18 1.56-.7 3.53.6.39 28.25-1.75-1.27-.86-1.65-.48-1.5-.23-1.26-.14-1.08-.12-1.03-.09-1.06-.04-1.14.04-1.18.09-1.23.09-1.27.04-1.36-.03-1.44-.05-1.5-.05-1.48.01-1.38.17-1.22.36-1.07.51-.97.5-1.08.44-1.77M95.42 9.51l-.98-1.89-1.43-1.1-1.58-1.25-1.39-1.52-1.15-1.64L87.83.49l-1.14-1.51-1.18-1.38-1.03-1.28-.73-1.22-.41-1.2-.31-1.18-.52-1.18-1-1.14-1.48-1.12-1.74-1.13-1.61-1.19-1.15-1.26-.48-1.25.26-1.1.89-.85.61-.58-3.83.08" filter="url(#a)"/><path d="m-56.12-26.41-2.12-1.37-.72-1.04-.24-1.28-.34-1.5-.34-1.47-.07-1.26.19-1.15.26-1.22.06-1.41-.15-1.5-.11-1.35.19-1.09.28-1.08-.56-1.6-1.26-1.69m-2.18 3.86.81-2.38-.25-1.98-.4-1.91.11-1.48.62-1 .77-.82.57-.97.27-1.28.01-1.57-.17-1.79-.26-1.96-.27-2.08-.2-2.13-.07-2.13.1-2.09.27-1.99.46-1.81.69-1.56.92-1.34 1.03-1.34.81-1.67.34-2.05-.3-1.96-1.89-2.25" filter="url(#a)"/><path d="m-62.49-15.41-.52-1.35-.39-1.58-.12-1.31.11-1.06.17-1 .12-1.05.07-1.11.08-1.16.06-1.18-.08-1.2-.31-1.26-.56-1.33-.68-1.41-.59-1.43-.32-1.38.07-1.25.44-1.09.74-.93.96-.94.85-1.27.09-1.95-.55-1.91-1.99 3.37 1.19-1.76.67-.93.53-.8.54-.88.59-.95.64-.97.7-.94.72-.87.71-.77.68-.68.67-.69.72-.79.8-.94.82-1 .73-.82m-11.14 14.72-1.17-2.44-.04-1.88-.96-2.23-1.63-2.56-1.22-2.31-.2-1.66.63-1.15.81-1.09.36-1.44-.35-1.93-1.05-2.45-1.54-2.91-1.62-3.26-1.11-3.16-.28-2.61-.2-2.29 8.39 37.52.35-2.12.69-1.62.59-1.41.4-1.27.32-1.18.28-1.21.23-1.29.2-1.38.19-1.41.21-1.35.22-1.3.2-1.26.2-1.28.27-1.3.43-1.22.55-1.05.51-.89.36-1.03.69-2.13" filter="url(#a)"/><path d="m-50.22-48.68-1.17.62-1.18.59-1.02.41-.95.32-.93.39-.95.52-.97.61-.97.67-.96.68-.96.64-1 .58-1.08.59-1.1.74-1.04 1.08-.95 1.43-1 1.7m7.58-24.97-.71 2.07-.23 1.14-.24 1.12-.34 1.22-.39 1.23-.4 1.16-.42 1.07-.41 1.07-.4 1.12-.38 1.21-.39 1.25-.43 1.2-.51 1.09-.61.97-.62.97-.42 1.25-.06 1.76.02 2.11-.64 1.96M71.93-22.02l-.43-.85-.49-.88-.46-.93-.4-.94-.32-.95-.3-.95-.31-.97-.39-.99-.48-.99-.56-.98-.62-1-.68-1.06-.72-1.17-.76-1.18-.83-1.07-1-1.43 8.75 16.34.58-1.22 1.65-1.69 1.42-1.66.33-1.27-.55-.93-.86-.84-.75-.92-.48-1.09-.14-1.31.2-1.56.56-1.82.89-2.08 1.14-2.28 1.24-2.36 1.16-2.25.91-2.03.61-1.78.45-1.68.57-1.85.92-2.3 1.08-2.64.62-2.27-.05-.86" filter="url(#a)"/><path d="m71.93-22.02-.32-.9-.3-.97-.28-1.02-.29-1-.33-.97-.39-.95-.44-.96-.47-.99-.5-1.02-.51-1.06-.52-1.11-.56-1.15-.59-1.17-.61-1.15-.6-1.07-.55-.95-.52-.82-.5-.72-.55-.66-.67-.76-1.25-1.65m-128.85 8.92-4.37-.78-1.59-.02-.84.47-.78.78-.67 1.06-.39 1.29-.09 1.44-.02 1.45-.33 1.33-.95 1.12-1.67.94-2.24.82-2.42.81-2.16.89-1.61 1.01-1.07 1.1-.75 1.16-.75 1.22-.95 1.3-1.07 1.43-.96 1.61-.75 1.87-1.07 2.05" filter="url(#a)"/><path d="m-68.72-32.5-.23-.12-.85.25-1.26.52-1.23.8-.99 1.02-.86 1.11-.88 1.09-1.02 1.02-1.17.95-1.24.97-1.24 1.05-1.17 1.13-1.07 1.17-.98 1.15-.9 1.09-.85 1.05-.89 1.08-1.03 1.18-1.23 1.3-1.23 1.41-.67 1.93 19.8-18.01-.7 2.23-.39 1.21-.33 1.02-.32 1.03-.31 1.09-.32 1.21-.3 1.28-.29 1.27-.27 1.17-.23 1.06-.21.99-.21 1.02-.21 1.13-.21 1.25-.18 1.31-.16 1.65 4.64-19.92-.63 2.26-.33 1.24-.28 1.04-.24 1.05-.18 1.14-.12 1.25-.05 1.34v1.31l.01 1.23-.01 1.11-.02 1.03-.03 1.06-.03 1.15v1.26l.03 1.36.08 1.51.18 1.65 1.62-21.99-7.23-.12-3.34.2-.75.97.14 1.36-.26 1.38-1 1.26-1.47 1.17-1.51 1.11-1.22 1.11-.76 1.15-.33 1.25-.09 1.37-.19 1.47-.58 1.54-1.09 1.56-1.53 1.55-1.79 1.52-1.97 1.49-2.26 1.43-2.6 1.46-2.41 1.74-.97 2.05 37.65-47.35-.74 2.16-.18 1.23-.26 1.24-.43 1.35-.46 1.37-.38 1.34-.28 1.31-.24 1.29-.29 1.25-.35 1.17-.35 1.04-.29.97-.2.97-.15 1.09-.16 1.26-.24 1.4-.28 1.41-.13.65M54.7-33.22l1.45.93 1.87.35 2.02.36 1.54.59.93.8.68.87.82.8 1.07.67 1.15.6.99.63.8.69.84.73 1.07.7 1.14.71.57.77m13.9-37.2-.18 3.53-.79 2.14-1.05 1.96-1.31 2.05-1.6 2.28-1.82 2.53-1.76 2.63-1.28 2.46-.57 2.05.03 1.64.11 1.43-.32 1.53-.79 1.72-.61 1.58-.09 1.3-2.48 3.13" filter="url(#a)"/><path d="m64.9-.93.6-1.48.6-.99.51-.9.36-.93.22-.98.12-1.05.04-1.1-.01-1.14-.01-1.18.04-1.21.12-1.19.21-1.14.31-1.1.38-1.11.32-1.19.09-1.28-.25-1.34-.42-1.33-.16-1.34.58-1.42 1.27-1.39 1.21-.54" filter="url(#a)"/><path d="m100.81-4.97-1.71-.32-.52-1.11-.5-1.21-1.22-1.25-1.91-1.27-2.14-1.28-1.88-1.34-1.41-1.42-1.01-1.44-.89-1.36-1.07-1.17-1.44-.94-1.85-.78-2.1-.79-2.08-.95-1.81-1.14-1.42-1.24-1.26-1.1-1.5-.78-1.6-.44-.46.04-1.36-3.04.12.09-.34-.94-.43-1.11-.43-1.1-.45-1.14-.5-1.2-.55-1.24-.55-1.19-.52-1.08-.47-.97-.42-.86-.4-.81-.42-.83-.53-.98-.68-1.28-.65-1.41 7.83 17.31-.98-1.82-1.11-1.08-.92-.87-.81-.93-.93-.93-1.23-.8-1.51-.56-1.63-.34-1.55-.24-1.27-.28-.94-.42-.76-.56-.84-.58-1.23-.37H52.9l-1.66.25-.99-.15" filter="url(#a)"/><path d="m45.81-48.48 1.44.2 1.28.28 1.31.43 1.27.54 1.21.53 1.18.49 1.18.47 1.14.49 1 .55.79.66.52.8.27.95.13 1.07.1 1.11.22 1.03.48.83.85.57 1.24.33 1.55.2 1.66.28 1.53.64 1.24 1.32 1.19 2.35" filter="url(#a)"/><path d="m87.34-18.56-1-1.1-.87-.29-1.4-.51-1.53-1.01-1.43-1.33-1.33-1.36-1.23-1.25-1.12-1.09-1.01-.97-.96-.86-.97-.79-.98-.78-.87-.86-.55-1.07-.06-1.27-.05-.9-3.39 1.64m-5.26-48.68-.1 2.53-.04 2.3.09 2.21.11 2.19.21 2.04.37 1.82.43 1.7.3 1.78.05 2.01-.19 2.21-.3 2.27-.21 2.13.02 1.85.26 1.55.4 1.32.36 1.22.15 1.25-.07 1.35-.18 1.43-.11 1.46.05 1.38.16 1.24.08 1.1-.47.76" filter="url(#a)"/><path d="m64.7-39.94 1.8.15 2.83-.1 1.92.51.94 1.18.93 1.23 1.7.81 2.59.34 3.07.09 2.96.14 2.37.37 1.56.69.89.97.63 1.11.84 1.08 1.42.91 2.28.6 3.35.24-34.91-15.31 2.61-2.32-.18-.7-.54-.85-.21-1.45.33-2 .59-2.2.39-2.05-.09-1.73-.46-1.58-.43-1.7-.08-2.02.26-2.3.36-2.45.29-2.54.45-2.51 2.13-1.55" filter="url(#a)"/><path d="m61.73-44.92.75-1.6-.47-.92-.91-.9-.88-.98-.75-1.02-.66-1.08-.63-1.16-.63-1.22-.65-1.23-.7-1.15-.75-1.07-.78-1.01-.78-1.05-.71-1.12-.64-1.18-.62-1.19-.65-1.15-.79-1.13-1.18-1.13 11.93 20.26.78-1.38.48-2.17.03-1.84-.31-1.41-.37-1.37-.1-1.75.24-2.21.4-2.39.21-2.19-.15-1.78L62-66l-.36-1.75.12-2.37.76-3.15 1.15-3.65 1.57-3.13-3.93 34.46.33-.13.56.25.73.51.93.64 1.02.67.99.65.94.61.95.57 1.07.55 1.23.58 1.42.66 1.6.75 1.76.78 1.81.71 1.63.61 1.24.68 1.21 1.02" filter="url(#a)"/><path d="m59.74-47.96 1.04 1.43.59.69.6.53.73.59.83.68.86.73.86.72.85.69.83.68.81.75.77.87.74 1.01.76 1.11.83 1.13.94 1.07 1.03.98 1.05.92.99.93.88.94.84.89.93.74.94-.02M58.79-49.31l-.51-.63-.47-.85-.41-1.35-.35-1.6-.35-1.59-.4-1.46-.41-1.42-.39-1.47-.33-1.58-.28-1.68-.25-1.75-.23-1.83-.19-1.93-.18-2.01-.17-2.02-.17-1.93v-1.88l.46-2.09.84-2.39-.42-2.08" filter="url(#a)"/><path d="m58.07-49.9 3.42-2.46 4.04-2.01 2.45-.26 1.25.73.75.97.68.91.94.74 1.37.5 1.76.3 1.91.19 1.85.2 1.65.29 1.44.46 1.15.75.84 1.14.97 1.45 2.24 1.43 5.17 1.2-36.28-9.9-.72-1.11-.43-1.06-.39-1.17-.52-1.18-.64-1.16-.6-1.23-.46-1.38-.36-1.52-.35-1.58-.4-1.59-.42-1.62-.35-1.64-.27-1.39-.14-.69.49.1 5.56 18.22 3.2-.35 2.75-.59 1.4.33.97.77.83.96.56 1.12.27 1.23.14 1.23.27 1.12.57.94.92.74 1.22.54 1.45.37 1.58.24 1.66.22 1.71.29 1.84.43 2.12.63 2.54 1.06 3.6 1.77" filter="url(#a)"/><path d="m90.65-39.84-3.2-.29-2.56-.23-1.79-.74-1.32-1.17-1.24-1.21-1.45-.96-1.7-.61-1.82-.37-1.78-.29-1.6-.34-1.36-.49-1.11-.65-.86-.81-.7-.87-.71-.83-.89-.7-1.19-.54-1.48-.39-1.73-.2h-3.65l-1.48-.5-1.36-1.24m-1.1-1.4-1.04.09-1.45.05-1.41-.21-1.29-.36-1.24-.34-1.19-.35-1.08-.46-.97-.6-.93-.62-.97-.48-1.02-.26-1.03-.06-1.01.05-1.1.06-1.45.03-2.02.16-2.47.7" filter="url(#a)"/><path d="m54.16-54.78.53.62.74 1.15.82 1.21.8 1.06.75.94.7.94.64.98.59.99.51.95.46.88.43.85.44.88.5.95.55.97.54.91.42.82-.04.46L61-34.39l.11-.67-.01-1.09.07-1.07.06-1.05-.02-1.05-.13-1.07-.23-1.06-.31-1.01-.38-.92-.47-.85-.58-.8-.66-.81-.71-.86-.65-.96-.53-1.11-.39-1.29-.36-1.42-.48-1.43-.67-1.23-.78-.94-.94-.94m-3.18-3.15.49.29-.61-.72-.79-.89-.83-.92-.85-.88-.83-.8-.8-.72-.79-.66-.82-.68-.88-.73-.93-.79-.95-.82-.93-.81-.89-.75-.85-.7-.84-.66-.86-.63-.85-.62-.83-.57-.77-.53-.71-.52-.44-.35" filter="url(#a)"/><path d="m51.68-57.51-.28-.34.87.69.93.83.87.82.85.86.88.93.88.99.84.99.77.96.75.94.77.94.85.98.85.91.75.68.68.53-14.27-14.6 2.17.96 1.49.22 1.56.19 1.66.11 1.69.08 1.64.19 1.51.43 1.36.67 1.23.79 1.24.72 1.4.54 1.72.37 2.16.27 2.5.01 1.63-.41-24.56-4.95.31.61.58 1.11.44 1.28.42 1.33.37 1.34.24 1.41.14 1.5.17 1.52.36 1.38.55 1.17.52 1.02.27 1.12-.03 1.42-.03 1.82.39 2.19" filter="url(#a)"/><path d="m47.74-61.1.92.67.84.69.87.77.89.82.89.86.87.86.87.88.88.88.9.92.91.95.9.94.86.92.82.9.82.93.85.99.84.95.71.73.55.64M46.42-62.34l-.76-.72-.76-.58-.63-.49-.7-.55-.87-.69-1.02-.78-1.04-.78-.97-.71-.89-.65-.84-.58-.85-.56-.88-.53-.89-.53-.82-.52-.73-.51-1.32-.74" filter="url(#a)"/><path d="m25.68-73.1 2.56 1.24 1.64.68 1.18.46.95.37.86.36.85.38.85.4.89.43.9.44.91.43.94.45.99.48 1.04.57 1.08.66 1.05.69.93.64.76.52.68.46.78.55.9.55-.64-.69-1.15-.51-.58-.43-.66-.5-.95-.62-1.12-.67-1.14-.63-1.05-.57-.94-.52-.89-.51-.87-.5-.87-.49-.87-.45-.86-.38-.85-.31-.83-.29-.86-.31-.95-.35-1.16-.3-9.64 3.14 1.1-.06.9-.02.79-.07.85-.08 1.02-.06 1.22-.02 1.35.02 1.37.05 1.31.06 1.22.05 1.12.05 1.08.04 1.05.06 1.04.08 1.03.15 1 .24.95.38.91.56.89.78.88 1.05.83 1.22.78.97.86-.08 1.18-1.22-.5-.26-.32.41-1.71.33-1.76-.07-1.42-.3-1.2-.16-1.17.1-1.21.29-1.21.31-1.18.29-1.15.27-1.05.2-.9.04-.79-.09-.94.29-1.62 1.46 18.58-2.82-.79-2.95-.46-3.03-.86-1.48-1.08-.5-.86-.69-.39-1.57-.01-2.33.04-2.48-.22-1.94-.63-1.1-.92-.54-1-.56-.91-1.15-.9-1.92-1.15-2.37-1.53-2.16-1-1.63 10.93 26.95.45 1.44-.41 1.5-.22 1.43.43.93.96.51 1.12.39.99.58.7.9.41 1.23.18 1.5.08 1.62.15 1.53.31 1.28.38 1.05.15 1.17.05 1.57L39-67.88l-.15.1-.8-.2-1.02-.16-1.08-.11-1.03-.2-.93-.32-.84-.42-.85-.45-.94-.4-1.1-.33-1.29-.26-1.4-.21-1.39-.16-1.22-.06-.98.03-.77.07-.69-.02-.95-.25 18.06 3.81.27-.03 1.37.31 1.81.03 1.96-.53 1.94-.89 1.72-.71 1.31-.05.91.69.71 1.14.79 1.15 1.15.78 1.59.27 1.99-.16 2.2-.37 2.2-.33 2.04-.13 1.92.07 2.01.15 2.43.11 2.79.29 2.12 1.31L11.1-74.55l1.79-.23 1.55.06 1.18.05 1.04.05 1.07.11 1.18.2 1.23.24 1.2.26 1.11.24 1.04.21 1.01.17 1.06.17 1.15.22 1.24.28 1.28.35 1.24.41 1.13.45.98.49.85.54.81.56.87.5 1 .31 1.02.13.76.25-.58-.34-.96-.42-1.02-.37-.94-.38-.87-.37-.88-.34-.98-.39-1.12-.45-1.23-.51-1.28-.5-1.24-.43-1.1-.32-.96-.22-.87-.14-.92-.11-1.1-.1-1.37-.15-1.7-.19-1.98-.02 3.8-20.9 1.05 1.49 1.47 1.93 1.43 1.88 1.19 1.74.91 1.57.7 1.42.61 1.36.6 1.48.69 1.71.8 1.93.87 2.01.85 1.88.75 1.6.61 1.21.4.79-.46.09" filter="url(#a)"/><path d="m33.06-71.09.35.16-.63-.25-.95-.37-1.18-.42-1.35-.44-1.4-.36-1.32-.21-1.16-.06-1 .02-.91-.01-.94-.12-1.07-.27-1.29-.38-1.47-.39-1.51-.27-1.06-.31 16.18 3.03-1.02-1.41-1.37-1.28-1.51-.73-1.29-.52-.92-.66-.66-.93-.58-1.21-.66-1.4-.86-1.54-1.03-1.68-1.07-1.87-.9-2.08-.54-2.14-.29-1.95-.86-1.4" filter="url(#a)"/><path d="m6.25-77.02.41-.01.96.06 1.2.11 1.22.1 1.15.09 1.09.09 1.09.13 1.08.14 1.1.14 1.11.12 1.14.11 1.2.13 1.24.18 1.22.24 1.13.3 1.01.34.9.33.89.33 1 .37 1.26.45 1.55.54 1.69.54 1.46.45-6.18-2.77-.41-.07-.56-.13-.67-.09-.88.03-1.1.08-1.28.04-1.33-.04-1.29-.04-1.2.04-1.14.22-1.14.4-1.17.5-1.16.48-1.09.34-1.01.2-1.1.23-1.37.42-1.4.07 19.04-2.71 1.17.32 1.86.35 1.9-.14 1.92-.92 2.03-1.65 2.11-2.06 2.2-2.2 2.29-2.2 2.37-2.11 2.26-1.73 1.92-1.03 1.57-.39 1.51-.43 1.69-.9 1.8-.07" filter="url(#a)"/><path d="m24.51-75.13.64.28.9.31 1.29.35 1.55.26 1.6.1 1.49-.03 1.32-.04 1.15.02 1.05.11 1.04.18 1.07.18 1.12.14 1.19.02 1.26-.13 1.35-.31 1.54-.39 1.89-.15 2.64.45-40.07-31.14 1.21 3.6 1.55 1.89 1.48 1.55 1.19 1.72.95 2.16.87 2.46.88 2.44.83 2.29.76 2.16.75 2.02.9 1.67 1.21 1.06 1.5.34 1.56-.13 1.1.32-.76 4.24L5.69-93.29l.3.91.73 1.48.88 1.44 1.05 1.22 1.19 1.01 1.2.94 1.14.99 1.07 1.02 1.06.94 1.07.79 1.05.71.98.73.96.8 1.07.72 1.34.45 1.6.17 1.49.46.51 3.24-1.43-.5-1.23-1.15-1.57-.51-1.3-.59-1.04-.65-.97-.57-1.02-.47-1.09-.41-1.11-.41-1.12-.42-1.13-.41-1.15-.41-1.14-.41-1.11-.46-1.07-.51-1.03-.55-1.03-.6-1.04-.63-1.1-.69-1.16-.7-1.25-.63-1.4-.47-1.65-.35-1.88-.49-1.21-.94" filter="url(#a)"/><path d="m19.54-76.77 2.63-2.19 2.13-2.23 1.66-1.56 1.6-1.71 1.66-1.74 1.71-1.29 1.77-.72 1.82-.31 1.83-.14 1.74-.03 1.55.12 1.3.37 1.1.63.98.81.96.84 1.05.7 1.2.42 1.39.12 1.58-.07 1.71.04 1.8.43 1.91.73 1.95.18 1.21-1.56" filter="url(#a)"/><path d="m42.71-77.27-1.05.15-1.41.43-1.47.42-1.39.38-1.29.3-1.21.16-1.22-.03-1.29-.23L31-76l-1.45-.28-1.41-.17-1.29-.04-1.09.06-.96.1-.95.1-1.11.04-1.4-.13-1.8-.45-1.47-.28-.84-.3-.81-.31-1-.32-1.09-.33-1.12-.31-1.11-.31-1.12-.28-1.13-.29-1.13-.33-1.08-.38-1.04-.43-1-.44-1-.37-1.03-.27-1.09-.17-1.15-.12-1.24-.17-1.35-.27-1.47-.33-1.51-.3-1.42-.14-1.16.07-.93.04 27.29 6.34-1.48-.16-.85-.08-.82-.01-1.01.09-1.17.29-1.22.63-1.2.98-1.22 1.24-1.25 1.24-1.24 1.05-1.14.84-.99.86-.85 1.07-.72 1.36-.4 2.14" filter="url(#a)"/><path d="m38.63-71.31-1.02-.4-1.05-.41-.98-.38-.92-.34-.94-.33-1.06-.34-1.2-.39-1.3-.45-1.32-.46-1.26-.44-1.13-.35-1.02-.24-.97-.18-1.01-.19-1.14-.28-1.3-.36-1.41-.38-1.32-.25-.89.03v.31l-3.94-1.13-.99-.06-.73-.07-1-.1-1.18-.1-1.19-.1-1.09-.08-1.02-.03-.98.01-.98.04-1.02.07-1.07.08-1.13.08-1.2.09-1.28.09-1.32.09-1.32.09-1.23.09-1.09.11-.93.15-.86.2-1.03.25-2.02.48" filter="url(#a)"/><path d="m11.67-78.37 1.89-.29 1.64-.02 1.27-.01 1.07.1 1.11.23 1.24.23 1.36.09 1.38-.11 1.36-.29 1.3-.39 1.28-.38 1.33-.31 1.44-.27 1.6-.27 1.73-.35 1.78-.46 1.72-.51 1.55-.43 1.38-.25 1.28-.06 1.34-.05 1.56-.36 1.77-.89 1.49-.77-35.29 5.63 1.11-1.93.91-1.12 1 .47 1.11.73 1.18.28 1.24-.15 1.31-.32 1.4-.29 1.46-.27 1.48-.3 1.41-.34 1.32-.32 1.23-.19 1.22-.01 1.31.12 1.46.21 1.59.22 1.59.21 1.47.22 1.25.18 1.1.03 1.22-.24 2.26-.16M7.54-78.81l-.83.05-.77.35-.87.57-.97.75-1.01.94-1.05 1.05-1.1.98-1.15.71-1.22.35-1.26.05-1.23-.01-1.09.25-.91.75-.72 1.24-.64 1.41-.82 1.16-1.64 1.41" filter="url(#a)"/><path d="m7.54-78.81 1.62-.8 1.5-.28 1.25-.45 1.17-.38 1.16-.16 1.17.07 1.15.22 1.14.3 1.18.26 1.27.18 1.34.08 1.34.04 1.25.07 1.14.14 1.08.15 1.13.07 1.33-.08 1.58-.19 1.78-.19 1.78-.1 1.6.03 1.42.17 1.93.64" filter="url(#a)"/><path d="m6.43-79.11 1.38-1.85 1.41.02 1.36.11 1.22-.13 1.16-.27 1.17-.25 1.2-.13 1.18-.02 1.12.04 1.12-.01 1.3-.17 1.61-.4 1.87-.61 1.9-.65 1.83-.71" filter="url(#a)"/><path d="m25.66-73.8-.65-.31-.61-.33-.76-.33-1.01-.34-1.21-.36-1.28-.38-1.24-.38-1.14-.36-1.06-.35-1.04-.34-1.06-.32-1.07-.28-1.07-.23-1.09-.18-1.15-.14-1.24-.15-1.21-.2-.95-.23-.4-.14m-1.58-.18-1.71-4.59-1.14-4.4-1.2-1.56-1.33.56L-2-87.95l-1.51 1.07-1.49.15-1.43-.83-1.35-1.4-1.29-1.47-1.26-1.22-1.27-.89-1.28-.61-1.3-.42-1.35-.37-1.44-.46-1.6-.74-1.78-1.06-1.98-1.28-2.35-1.42-3.37-1.99m50.58 36.73-.13-.72-.23-.92-.36-.88-.56-.81-.77-.79-.93-.82-1.01-.85-.99-.92-.92-.98-.88-.99-.87-.97-.91-.89-.94-.8-.98-.7-1.02-.59-1.07-.48-1.12-.4L7.73-78l-1.01-.29-.87-.31-.71-.39-.3-.34" filter="url(#a)"/><path d="m-6.61-79.21 2.17-.07 2.97-.04 2.87.02 2.62.11 2.45.17 2.35.25 2.31.31 2.35.37 2.41.45 2.47.51 2.53.6 2.56.69 2.6.77 2.64.86 2.68.93 2.69.99 2.64 1.04 2.56 1.06 2.48 1.09 2.45 1.13 2.5 1.18 2.62 1.25 2.74 1.33 2.83 1.43 2.86 1.56 2.83 1.66 2.77 1.74 2.6 1.73 2.43 1.72L71-52.5l3.78 2.6" filter="url(#a)"/><path d="m-8.1-78.95.72-.07 2.18-.13 2.5-.09 2.4-.03 2.31.04 2.29.11 2.34.18 2.44.26 2.53.33 2.63.41 2.72.47 2.81.54 2.88.6 2.89.65 2.86.7 2.83.78 2.9.84 3.06.9 3.32.96 3.52.98 3.55 1.03 3.32 1.08 3.09 1.27 3.51 1.9m16.35 51.25 3.5 2.6 1.6 2.58.57 2.58.13 2.5-.01 2.42v2.37l.14 2.34.37 2.32.7 2.32.99 2.32 1.14 2.33 1.12 2.35.96 2.37.8 2.4.81 2.42.98 2.43 1.26 2.42 1.48 2.39 1.49 2.35 1.28 2.28.9 2.21.49 2.11.13 2.04-.11 1.95-.27 1.9-.39 1.86-.47 1.85-.6 1.85-.83 1.84-1.31 1.85-1.97 1.83-2.46 1.77-2.23 1.6-1.27 1.39-.05 1.33" filter="url(#a)"/><path d="m-18.43-76.81.76-.69 2.51-.52 2.61-.38 2.48-.28 2.43-.21 2.44-.16 2.46-.09 2.51-.02 2.58.04 2.71.11 2.85.19 2.97.26 3.01.34 2.99.41 2.9.48 2.79.55 2.72.61 2.7.67 2.77.74 2.88.8 3.05.86 3.24.93 3.42.99 3.6 1.05 3.72 1.11 3.76 1.18 3.63 1.24 3.35 1.3 2.97 1.34 2.7 1.39 2.68 1.44 3.03 1.52 3.72 1.66 4.48 1.85 4.87 2.04 4.19 2.12 1.69 1.82M73.41-15.59l6.29 3.45 1.81 2.53-.24 2.15.25 2.08 1.28 2.2 1.66 2.36 1.31 2.47.69 2.53.29 2.52.3 2.48.58 2.42.93 2.33 1.15 2.26 1.25 2.2 1.27 2.18 1.34 2.2 1.44 2.28 1.51 2.34 1.58 2.37 1.7 2.35 1.86 2.25 1.89 2.11 1.4 2-.55 2.05" filter="url(#a)"/><path d="m-23.83-75.24 2.26-.75 2.49-.72 2.44-.64 2.34-.52 2.29-.41 2.27-.32 2.3-.23 2.33-.17 2.36-.11 2.42-.04 2.47.03 2.55.09 2.63.17 2.73.24 2.81.32 2.88.39 2.94.46 3.02.53 3.12.58 3.26.65 3.4.71 3.49.78 3.51.84 3.46.9 3.38.96 3.33 1.01 3.34 1.05 3.44 1.13 3.71 1.26 4.25 1.42 4.06 1.29" filter="url(#a)"/><path d="m-23.87-75.51 2.08-.43 2.26-.49 2.44-.54 2.38-.5 2.27-.42 2.18-.36 2.13-.31 2.1-.24 2.08-.19 2.04-.11 1.95-.04 1.79.04 1.56.12 1.3.18 1.04.26.82.32.66.38.51.45.39.52.31.6.33.69.52.8.79.92.9 1.07.42 1.16-.55 1.2" filter="url(#a)"/><path d="m-25.81-74.52-.47-.71.92-.74 2.94-.7 3.56-.62 3.34-.53 2.9-.42 2.58-.32 2.42-.24 2.41-.18 2.51-.11 2.64-.04 2.8.02 2.94.09 3.06.17 3.14.24 3.2.31 3.28.39 3.43.46 3.67.52 4.01.59 4.46.65 4.99.71 5.57.77 6.1.85 6.42.9 6.44.96 6.15 1 5.75 1.05 5.4 1.13 5.18 1.26 4.78 1.43 2.5 1.29" filter="url(#a)"/><path d="m-31.15-72.09 1.91-.99 2.24-.95 2.25-.87 2.16-.74 2.14-.65 2.15-.57 2.19-.5 2.21-.44 2.24-.37 2.29-.32 2.35-.25 2.41-.18 2.45-.11 2.44-.04 2.42.04 2.36.12 2.3.19 2.28.26 2.27.32 2.29.4 2.33.47 2.37.55 2.41.63 2.45.72 2.48.82 2.49.92 2.47.99 2.38 1.04 2.21 1.04 2.02 1.01 1.88 1 1.77 1 1.33.95" filter="url(#a)"/><path d="m-40.8-66.72 1.36-1.1.53-1.1.71-1.02 1.45-.99 2.07-.98 2.4-.95 2.5-.91 2.5-.85 2.44-.76 2.39-.69 2.35-.6 2.35-.54 2.38-.46 2.42-.39 2.49-.33 2.56-.26 2.64-.19 2.69-.13 2.72-.05 2.71.03 2.68.1 2.67.18 2.66.24 2.69.32 2.77.39 2.85.46 2.93.54 3.01.62 3.07.71 3.16.82 3.28.91 3.37 1 3.38 1.06 3.2 1.05 3.01 1.01 3.04.99 3.26 1.17" filter="url(#a)"/><path d="m-47.22-61.81 1.65-1.49 1.28-1.23 1.42-1.23 1.46-1.24 1.39-1.21 1.25-1.17 1.07-1.11.92-1.03.84-.94.9-.85 1.16-.78 1.59-.75 2.13-.72 2.66-.69 3.07-.66 3.23-.6 3.13-.52 2.9-.42 2.7-.32 2.73-.24 3.26-.18 4.85-.1" filter="url(#a)"/><path d="m-49.33-59.8 1.24-2.18.84-1.77.63-1.46 1.33-1.25 2.09-1.13 2.41-1.06 2.3-1.02 2.05-1 1.85-.97 1.79-.95 1.81-.93 1.89-.87 1.95-.8 2.02-.72 2.07-.65 2.09-.57 2.12-.5 2.17-.43 2.32-.37 2.55-.32 2.84-.29 3.32-.21 4.84-.11m-53.81 24.89 4.52 1.76 3.84 1.73 1.29 1.76-1.32 1.84-2.69 1.96-2.48 2.09-1.29 2.17.01 2.21.87 2.2 1.26 2.16 1.45 2.13 1.7 2.12 2.05 2.11 2.33 2.13 2.45 2.17 2.5 2.22 2.59 2.27 2.71 2.32 2.61 2.4 2.51 2.56 3.41 2.77 7.31 2.76m-37.63-47.84-4.34 1.78-3.23 1.75-1.31 1.78-1.19 1.88-1.79 2-2.22 2.11-2.34 2.2-2.29 2.22-2.21 2.21-2.18 2.18-2.22 2.16-2.4 2.16-2.7 2.16-3.05 2.18-3.22 2.23-3.1 2.27-2.62 2.33-1.93 2.38-1.27 2.44-.89 2.47-.9 2.47-1.33 2.43-2.03 2.35-2.74 2.26-3.18 2.23-3.16 2.27-2.65 2.37-1.74 2.43-1.2 2.46" filter="url(#a)"/><path d="m-55.29-53.6-2.39 2.17-2.82 1.71-4.2 1.77-5.04 1.89-5.06 1.96-4.9 2.01-5.01 2.05-5.31 2.08-5.38 2.11-4.86 2.14-3.79 2.18-2.51 2.24-1.52 2.31-1.09 2.37-1.3 2.42-1.93 2.43-2.66 2.43-3.27 2.44-3.72 2.44-4.17 2.44-4.8 2.41-5.65 2.34-6.49 2.23-6.76 2.15-5.92 2.16-3.9 2.22-1.43 2.16.85 1.9M-55.29-53.6l.77 2.18-.54 1.73-.96 1.79-1.2 1.91-1.01 1.98-.37 2.03.41 2.07 1.03 2.1 1.29 2.13 1.16 2.17.84 2.21.53 2.27.34 2.34.34 2.39.47 2.42.65 2.44.83 2.45 1.02 2.45 1.26 2.43 1.54 2.42 1.85 2.38 2.1 2.34 2.2 2.3 2.13 2.27 1.99 2.27 1.9 2.3 1.92 2.33 2.05 2.37 2.18 2.41 2.31 2.42 2.55 2.43 3.02 2.39 3.65 2.32 3.91 2.19 2.87 1.92.61 1.35m-48.82-76.1-1.39 1.7-1.55 2.05-1.63 2.04-1.84 2.01-2.07 2.04-2.16 2.08-2.08 2.11-1.87 2.12-1.6 2.16-1.36 2.23-1.23 2.31-1.22 2.37-1.28 2.42-1.36 2.43-1.39 2.42-1.38 2.42-1.42 2.44-1.54 2.44-1.7 2.42-1.78 2.33-1.56 2.2-1.07 2.11-.57 2.16-.7 2.31-2.18 2.27" filter="url(#a)"/><path d="m-58.47-49.8-1.43 1.71-1.6 2.05-1.75 2.05-1.92 2.01-2.05 2.05-2.16 2.09-2.2 2.12-2.15 2.13-2 2.18-1.82 2.23-1.73 2.32-1.79 2.38-1.96 2.42-2.17 2.43-2.28 2.43-2.23 2.43-1.99 2.44-1.62 2.43-1.27 2.4-1.08 2.32-1.11 2.24-1.26 2.17-1.34 2.17-1.33 2.22-1.52 2.28-2.07 2.42-1.87 2.98m47.6-61.05-5.6 2.46-5.12 2.02-1.92 2.16-.22 2.27-.25 2.27-1.14 2.22-2.01 2.16-2.46 2.14-2.54 2.12-2.54 2.14-2.74 2.17-3.21 2.2-3.81 2.26-4.28 2.32-4.36 2.38-3.94 2.44-3.02 2.47-1.87 2.47-.95 2.43-.75 2.33-1.43 2.22-2.51 2.18-2.97 2.25-2.03 2.39-.06 2.34" filter="url(#a)"/><path d="m-59.77-48.44-2.58 2.43-1.94 2.14-1.26 2-1.19 2.05-1.3 2.11-1.37 2.13-1.38 2.15-1.42 2.19-1.49 2.26-1.59 2.33-1.71 2.4-1.8 2.43-1.86 2.44-1.83 2.44-1.71 2.44-1.46 2.44-1.1 2.41-.7 2.38-.34 2.32-.13 2.28-.11 2.24-.27 2.25-.55 2.27-.84 2.32-1.03 2.37-1.07 2.41-.88 2.43-.45 2.43.07 2.44.02 2.37-1.37 1.9M72.98-18l4.14 1.58 5.18 2.03 4.57 2.3L89.9-9.8l.85 2.24-1 2.23-1.98 2.3-2.11 2.39-1.73 2.48-1.14 2.51-.52 2.51.01 2.48.45 2.43.8 2.36 1.03 2.32 1.1 2.28L86.67 21l.75 2.28.39 2.3-.03 2.3-.38 2.31-.62 2.28-.73 2.25-.71 2.19-.58 2.13-.4 2.08-.2 2.01-.04 1.97.02 1.93-.05 1.92-.23 1.91-.4 1.91-.53 1.88-.79 1.81-1.5 1.76L78 60.14l-2.57 2.29" filter="url(#a)"/><path d="m-61.45-45.7-4.58 2.4-8.3 2.56-6.05 2.38-3.49 2.21-3.41 2.13-4.91 2.1-6.12 2.12-5.95 2.12-4.63 2.16-3.02 2.19-1.91 2.26-1.62 2.31-2.04 2.38-2.87 2.43-3.82 2.47-4.59 2.47-5.02 2.42-4.98 2.32-4.53 2.21-3.84 2.16-3.29 2.25-3.65 2.38-5.92 2.33m98.54-52.76-1.56 2.42-1.52 2.57-1.32 2.4-1.2 2.23-1.18 2.14-1.24 2.13-1.33 2.13-1.4 2.15-1.42 2.18-1.4 2.23-1.34 2.28-1.27 2.34-1.2 2.4-1.17 2.44-1.19 2.45-1.21 2.45-1.23 2.4-1.17 2.35-1.03 2.3-.79 2.29-.5 2.31-.22 2.35-.02 2.42-.01 2.48-.18 2.54-.49 2.63-.76 2.68-.73 2.3m28.08-65.99-2.06 2.43-2.43 2.59-3.39 2.4-3.85 2.24-3.36 2.16-2.28 2.14-1.18 2.15-.55 2.16-.58 2.21-1.19 2.24-2.18 2.31-3.24 2.35-4.1 2.41-4.61 2.44-4.62 2.45-4.17 2.44-3.39 2.41-2.5 2.37-1.77 2.34-1.4 2.33-1.39 2.36-1.53 2.39-1.58 2.43-1.41 2.48-1.13 2.5-.98 2.49-1.1 2.47-1.4 2.42-1.63 2.36-1.75 2.36-1.92 2.32-2.15 2.08-2.28 1.33" filter="url(#a)"/><path d="m-63.23-42.56-.9.84-2 1.92-3.23 2.17-4.6 2.18-5 2.14-4.02 2.17-2.37 2.25-1.12 2.34-.97 2.41-1.94 2.44-3.42 2.45-4.65 2.44-5.03 2.44-4.41 2.43-3.04 2.41-1.53 2.37-.51 2.32-.43 2.28-1.33 2.24-2.94 2.24-4.72 2.28-6.07 2.32-6.64 2.37-6.25 2.4-4.93 2.42-2.87 2.42-.78 2.41-.04 2.36-1.93 2.27-2.86 2.35m90.53-68.08-.73.81-1.6 1.89-1.62 2.15-1.26 2.15-.92 2.11-.82 2.12-.94 2.2-1.15 2.31-1.32 2.39-1.38 2.43-1.27 2.42-1.06 2.41-.81 2.4-.68 2.42-.7 2.44-.84 2.41-.93 2.32-.89 2.17-.68 2.09-.49 2.15-.47 2.3-.13 2.26" filter="url(#a)"/><path d="m-62.85-43.56-4.12 2.96-5.46 2.43-4.9 2.17-3.51 2.09-2.26 2.09-1.89 2.11-2.43 2.13-3.39 2.15-4.02 2.2-3.82 2.26-2.75 2.32-1.25 2.38-.06 2.43.22 2.46-.55 2.46-1.99 2.41-3.25 2.32-3.62 2.23-2.97 2.2-1.96 2.25-1.52 2.36-1.13 2.4 1.6 2.44" filter="url(#a)"/><path d="m-62.85-43.56-2.41 3-2.34 2.46-2.6 2.2-3.59 2.13-4.48 2.13-4.54 2.14-3.79 2.18-2.81 2.2-2.12 2.26-1.78 2.32-1.62 2.37-1.36 2.41-.92 2.45-.43 2.45-.19 2.44-.4 2.41-1.1 2.38-2.07 2.36-3.01 2.35-3.56 2.37-3.59 2.4-3.08 2.44-2.21 2.47-1.22 2.48-.38 2.48.07 2.45.06 2.41-.37 2.35-.99 2.3-1.56 2.23-1.89 2.17-1.95 2.13-1.82 2.15-1.52 2.29-.91 2.48-.22 2.72" filter="url(#a)"/><path d="m-66.55-36.57-2.75 2.86-2.65 2.17-2.41 2.15-2.51 2.16-2.82 2.18-2.95 2.23-2.63 2.3-1.87 2.36-1.07 2.42-.58 2.46-.56 2.46-.85 2.44-1.13 2.4-1.22 2.35-1.16 2.32L-94.82 1l-1.25 2.34-1.59 2.38-2.01 2.43-2.33 2.47-2.43 2.49-2.27 2.49-1.89 2.46-1.3 2.4-.65 2.35-.25 2.35-.39 2.31-.79 2.07-1.87 1.32" filter="url(#a)"/><path d="m-68.42-32.79-6.13 1.67-3.02 2.25-1.48 2.54-2.07 2.57-3.06 2.52-3.35 2.46-2.83 2.44-2.08 2.44-1.76 2.43-2.14 2.41-2.95 2.37-3.68 2.31-3.86 2.28-3.38 2.25-2.46 2.27-1.48 2.3-.81 2.33-.55 2.36-.64 2.39-.84 2.39-.99 2.38-1.14 2.37-1.4 2.34-1.85 2.33-2.29 2.33-2.33 2.35-1.74 2.33-.79 2.27-.31 2.17-.89 2.1-1.79 2.15-.22 2.11m63.98-73.77-2.54 2.9-.62 2.4-.65 2.17-1.1 2.22-1.42 2.32-1.42 2.4-1.13 2.45-.73 2.48-.35 2.47-.15 2.45-.1 2.41-.16 2.36-.24 2.34-.28 2.34-.26 2.37-.21 2.4-.12 2.44v2.46l.12 2.48.25 2.46.35 2.44.41 2.39.39 2.34.31 2.28.17 2.23.04 2.19-.01 2.16.1 2.16.38 2.17.71 2.16.93 2.11.96 2.06.98 2.05 1.23 1.77m144.55-69.5 1.21 3.69 2.51 2.52 4.56 2.32 4.61 2.31 2.84 2.28 1.11 2.24.53 2.25.92 2.3 1.44 2.39 1.56 2.46 1.23 2.5.79 2.51.58 2.47.7 2.43.99 2.36 1.23 2.32 1.23 2.27 1.03 2.27.78 2.27.63 2.3.69 2.31.89 2.31 1.13 2.3 1.28 2.25 1.27 2.19 1.04 2.14.69 2.08.34 2.01.22 1.96.52 1.9 1.09 1.88 1.34 1.94.45 2.05-1.55 2.15-3.76 2.22" filter="url(#a)"/><path d="m70.47-26.87 3.18 2.71 3.18 2.64 2.82 2.49 2.32 2.41 1.36 2.43.58 2.48.44 2.52.87 2.52 1.43 2.49 1.77 2.45 1.76 2.4 1.54 2.37 1.42 2.34 1.6 2.34 2.17 2.33 2.89 2.34 3.45 2.35 3.56 2.37 3.12 2.39 2.29 2.42 1.37 2.43.63 2.43.27 2.41.31 2.36.62 2.31 1.04 2.23 1.37 2.14 1.43 2.04 1.06 1.95.22 1.88-.85 1.86-1.57 1.86-1.26 1.83.23 1.72 1.5 1.6-2.93 2.08" filter="url(#a)"/><path d="m70.47-26.87 4.77 2.7 2.52 2.61 1.06 2.48.34 2.39.58 2.41 1.14 2.46 1.42 2.51 1.25 2.51.87 2.48.63 2.43.74 2.39 1.2 2.35 1.87 2.33 2.55 2.31 3 2.31 3.13 2.32 2.9 2.32 2.41 2.33 1.75 2.38.99 2.41.25 2.44-.34 2.46-.58 2.44-.35 2.39.27 2.35.82 2.32.76 2.26.21 2.02 1.89 1.14" filter="url(#a)"/><path d="m71.03-26.26 16.32 1.65-3.23 2.38-4.32 2.55-1.73 2.48.59 2.39 2.05 2.32 3 2.27 3.81 2.23 4.52 2.23 4.93 2.27 4.85 2.35 4.28 2.43 3.45 2.48 2.57 2.5 1.83 2.49 1.32 2.44 1.13 2.37 1.34 2.27 2.02 2.2 3 2.16 3.9 2.18 4.16 2.27 3.5 2.39 2.13 2.48.6 2.5-1.71 2.88" filter="url(#a)"/><path d="m69.67-29.3 1.15 2.5 2.23 2.6 2.96 2.58 2.97 2.49 2.74 2.44 2.51 2.45 2.31 2.49 2.11 2.51 1.93 2.51 1.71 2.49 1.4 2.45 1 2.4.54 2.38.08 2.35-.28 2.34-.5 2.33-.56 2.34-.45 2.35-.22 2.38.06 2.39.32 2.42.5 2.43.55 2.43.45 2.41.25 2.37-.05 2.31-.36 2.23-.69 2.14-.9 2.05-.94 1.95-.67 1.88-.18 1.86.31 1.86.37 1.84-.17 1.72-1.19 1.6-2.61 2.08M69.67-29.3l-.35 2.5.82 2.6.46 2.57-.26 2.49-.76 2.44-.76 2.45-.48 2.48-.26 2.51-.27 2.51-.48 2.49-.75 2.45-.89 2.4-.87 2.38-.73 2.34-.52 2.34-.36 2.33-.28 2.34-.35 2.35-.56 2.37-.87 2.39-1.23 2.42-1.55 2.43-1.76 2.43-1.77 2.42-1.61 2.37-1.36 2.32-1.15 2.23-1.09 2.15-1.25 2.04-1.57 1.94-1.92 1.87-2.16 1.85-2.18 1.89-1.96 1.89L37 51.29l-1.08.82" filter="url(#a)"/><path d="m68.79-31.92 17.09 3L91-26.68l-.02 2.17-2.18 2.31-2.55 2.41-1.34 2.42.91 2.38 3.22 2.34 4.64 2.29 4.77 2.25 3.89 2.25 2.7 2.29 1.83 2.35 1.46 2.43 1.33 2.48.98 2.5.3 2.49-.47 2.44-.81 2.38-.35 2.28.81 2.21 2.16 2.17 2.95 2.19 2.71 2.28 1.79 2.39 1.23 2.49 2.01 2.5 3.06 2.89" filter="url(#a)"/><path d="m68.79-31.92 4.28 2.99 3.56 2.22.78 2.14-.45 2.29-.13 2.39.87 2.41 1.78 2.37 2.25 2.33 2.32 2.26 2.2 2.23 2.13 2.2 2.11 2.25 2.02 2.32 1.67 2.4 1.06 2.49.38 2.52-.06 2.52-.12 2.49.17 2.41.67 2.28 1.44 2.11 2.68 1.96 3.45 2.03" filter="url(#a)"/><path d="m68.11-32.89 1.78 2.03 2.24 1.99 2.47 2.21 1.99 2.38 1.47 2.45 1.36 2.45 1.53 2.44 1.64 2.44 1.51 2.47 1.2 2.49.91 2.5.76 2.47.81 2.44.98 2.4 1.23 2.36 1.47 2.34 1.66 2.32 1.8 2.32 1.85 2.31 1.84 2.31 1.8 2.34 1.74 2.37 1.68 2.41 1.58 2.46 1.35 2.48.95 2.46.48 2.39.33 2.32.64 2.3-.39 2.05" filter="url(#a)"/><path d="m67.23-35.4 3.64 2.31L76.85-31l4.03 2.1 1.07 2.24-.84 2.35-1.44 2.43-1.21 2.43-.68 2.45-.07 2.45.53 2.47 1.12 2.49 1.68 2.49 2.09 2.48 2.27 2.44 2.16 2.4 1.82 2.37 1.38 2.34.95 2.33.63 2.31.37 2.32.11 2.32-.15 2.34-.34 2.37-.39 2.42-.25 2.46.03 2.48.4 2.45.72 2.4.82 2.32.59 2.31.3 2.05" filter="url(#a)"/><path d="m67.23-35.4 1.41 2.32 3.47 2.11 5.33 2.11 5.41 2.25 4.07 2.37 2.57 2.44 1.97 2.45 2.34 2.45 3.03 2.47 3.37 2.49 3.13 2.5 2.52 2.5 1.88 2.47 1.42 2.45L110.2.4l.66 2.38.13 2.36-.47 2.34-.96 2.34-1.14 2.33-.98 2.35-.52 2.37.08 2.4.63 2.41 1.08 2.44 1.43 2.45 1.79 2.42 2.24 2.39 2.66 2.34 2.9 2.26 2.71 2.16 2 2.05.96 1.91.05 1.8-.17 1.8.64 2 2.79 2.62" filter="url(#a)"/><path d="m61.87-44.93 5.28 2.97 1.89 1.85 1.86 1.79 1.43 2.05.89 2.24.79 2.31 1.09 2.32 1.49 2.3 1.79 2.3 1.96 2.33 2.07 2.36 2.17 2.37 2.18 2.37 2.03 2.34 1.71 2.31 1.26 2.29.82 2.29.59 2.32.68 2.37L94.89.97l1.52 2.47 1.82 2.51 1.71 2.5 1.15 2.46.33 2.4-.39 2.3-.67 2.23L100 20l.34 2.18 1.08 2.28 1.38 2.43.86 2.48.71 1.76" filter="url(#a)"/><path d="m61.23-45.95 3.62 1.79 2.23 2.06.86 1.87.7 1.9 1.17 2.06 1.84 2.21 2.56 2.29 3.29 2.3 3.97 2.3 4.51 2.3 4.76 2.34 4.65 2.35 4.25 2.37 3.66 2.36 3.08 2.34 2.59 2.32 2.26 2.29 2.1 2.29 2.12 2.31 2.34 2.36 2.66 2.43 3.01 2.47 3.2 2.51 3.12 2.51 2.72 2.48 2.07 2.4 1.35 2.31.71 2.21.29 2.13.25 2.14.75 2.27 2.19 2.59 4.45 3.51" filter="url(#a)"/><path d="m55.67-53.27 4.63 2.54 5.17 2.01 2.93 1.81 1.76 1.68 2.41 1.69 3.82 1.77 4.87 1.89 4.97 2 4.21 2.07 2.93 2.11 1.58 2.14.58 2.19.15 2.24.37 2.3 1.1 2.35 2.07 2.39 2.94 2.42 3.48 2.44 3.6 2.47 3.37 2.49 2.94 2.5 2.51 2.49 2.23 2.46 2.18 2.42 2.4 2.37 2.83 2.33 3.4 2.33 3.92 2.35 4.12 2.36 3.71 2.25 2.94 1.97 2.53 1.77" filter="url(#a)"/><path d="m53.16-55.87 1.38 1.3 1.66 1.74 1.66 1.91 1.61 1.89 1.47 1.79 1.32 1.71 1.19 1.69 1.13 1.74 1.13 1.84 1.14 1.95 1.11 2.02 1.05 2.06.95 2.08.85 2.1.8 2.16.79 2.25.83 2.35.89 2.4.92 2.36.95 2.28.97 2.38.89 2.75" filter="url(#a)"/><path d="m53.16-55.87 1.86 1.33 1.89 1.78 1.48 1.94 1.25 1.91 1.16 1.82 1.15 1.76 1.21 1.76 1.28 1.81 1.33 1.91 1.32 1.99 1.25 2.05 1.16 2.11 1.06 2.16.94 2.2.86 2.25.76 2.3.69 2.36.61 2.39.55 2.43.49 2.45.46 2.48.44 2.49.42 2.49.42 2.49.42 2.46.39 2.43.36 2.39.31 2.36.22 2.34.11 2.34-.01 2.32-.13 2.3-.24 2.29-.32 2.34-.4 2.46-.33 2.51-.15 2.01M44.27-64.08l2.34 1.85 3.09 2.01 3.8 1.93 4.01 1.84 3.96 1.79 3.91 1.81 3.85 1.82 3.56 1.82 2.96 1.8 2.21 1.78 1.65 1.78 1.54 1.82 1.97 1.89 2.84 1.96 3.89 2.02 4.84 2.08 5.46 2.12 5.63 2.17 5.35 2.22 4.75 2.28 3.92 2.34 3.02 2.38 2.13 2.41 1.35 2.43.75 2.46.42 2.5.52 2.54 1.13 2.54 2.21 2.5 3.34 2.49 3.91 2.68 2.91 3.51" filter="url(#a)"/><path d="m44.72-63.79 1.46.44 3.03 1.37 3.3 1.75 4.13 1.83 5.53 1.81 6.6 1.79 6.76 1.8 5.95 1.81 4.6 1.81 3.32 1.78 2.51 1.76 2.27 1.75 2.43 1.78 2.69 1.85 2.82 1.94 2.81 2.01 2.73 2.05 2.66 2.09 2.57 2.11 2.37 2.16 2.08 2.26 2 2.37 2.63 2.44 3.89 2.36 4.73 2.13 6.49 2.55M40.47-66.6l2.84 1.86 1.86 1.35 1.88 1.52 2.01 1.72 1.99 1.8 1.89 1.81 1.75 1.81 1.64 1.82 1.57 1.82 1.55 1.82 1.56 1.81 1.57 1.79 1.57 1.81 1.54 1.84 1.48 1.9 1.4 1.96 1.29 2.02 1.16 2.09 1.04 2.13.94 2.18.86 2.23.83 2.29.82 2.34.82 2.38.82 2.41.81 2.45.8 2.47.77 2.5.75 2.53.67 2.53.56 2.5.41 2.45.3 2.38.29 2.21.33 1.89.32 1.86" filter="url(#a)"/><path d="m37.31-68.87 1.89 1.3 1.69 1.32 1.31 1.34.8 1.39.39 1.51.14 1.64.1 1.71.22 1.76.48 1.77.76 1.78.92 1.8.8 1.81.28 1.78-.52 1.73-1.32 1.69-1.75 1.7-1.53 1.77-.81 1.92-.22 2.05-.6 2.14-1.85 2.2-1.08 2.29m-1.12-39.01 2.04.95 3.21 1.21 3.65 1.37 3.85 1.39 3.99 1.39 3.86 1.41 3.54 1.5 3.24 1.62 3.21 1.75 3.46 1.86 3.76 1.93 3.84 1.95 3.53 1.96 3 1.94 2.57 1.92 2.56 1.9 3.03 1.86 3.81 1.84 4.71 1.9 5.84 2.09 7.46 2.32 9.29 2.48 9.83 2.9" filter="url(#a)"/><path d="m34.63-70.43 1.29.84 1.61.98 1.8 1.14 1.89 1.26 1.94 1.34 1.95 1.43 1.99 1.54 1.99 1.64 1.98 1.72 1.95 1.76 1.89 1.79 1.83 1.8 1.77 1.82 1.7 1.8 1.65 1.8 1.63 1.78 1.64 1.79 1.64 1.82 1.64 1.87L70-38.57l1.54 2 1.49 2.06 1.46 2.1 1.43 2.14 1.39 2.19 1.35 2.27 1.26 2.35 1.15 2.42.99 2.4.86 2.32.86 2.42 1.08 2.78" filter="url(#a)"/><path d="m32.16-71.61 1.56.81 2.22 1.05 2.5 1.16 2.74 1.25 3.12 1.32 3.58 1.36 3.94 1.39 4.04 1.43 3.94 1.51 3.78 1.61 3.78 1.74 4.01 1.84 4.39 1.92 4.67 1.95 4.67 1.96 4.28 1.94 3.65 1.93 3.08 1.91 2.95 1.85 3.4 1.81 4.21 1.85 4.95 2.08 5.54 2.36 6.56 1.66" filter="url(#a)"/><path d="m29.74-72.73 2.39 1.02 2.09 1.01 2 .99 2.03 1.05 2.16 1.12 2.33 1.21 2.41 1.3 2.38 1.39 2.24 1.5 2.07 1.6 1.97 1.68 1.99 1.73 2.1 1.76 2.27 1.79 2.37 1.81 2.3 1.81 2.03 1.8 1.64 1.74 1.31 1.66 1.26 1.65 1.58 1.73 2.12 1.93 2.67 2.11 3.29 1.94" filter="url(#a)"/><path d="m26.17-74.51 3.93 1.62 2.28 1.11 2.37 1.02 2.96 1.06 3.45 1.16 3.57 1.24 3.38 1.31 3.13 1.37 2.98 1.41 2.94 1.47 2.92 1.55 2.86 1.65 2.76 1.75 2.7 1.84 2.67 1.91 2.63 1.95 2.52 1.95 2.32 1.96 2.12 1.95 2.03 1.93 2.17 1.94 2.55 1.97 3.07 2.03 3.5 2.11 3.57 2.2 3.22 2.25 2.67 2.25 2.41 2.23 2.74 2.25 3.39 2.46 3.7 2.78 5.1 2.44" filter="url(#a)"/><path d="m25.91-74.54 3.27 1.5 2.57 1.21 2.14 1.09 1.91 1.06 1.85 1.08 1.89 1.16 1.96 1.25 2.05 1.34 2.13 1.43 2.18 1.54 2.2 1.62 2.17 1.69 2.13 1.75 2.09 1.78 2.02 1.8 1.93 1.82 1.85 1.81 1.77 1.8 1.72 1.8 1.7 1.81 1.73 1.84 1.74 1.89 1.72 1.94 1.63 2.01 1.49 2.06 1.34 2.12 1.23 2.15 1.18 2.22 1.2 2.27 1.26 2.35 1.26 2.39 1.25 2.41 1.2 2.4 1.19 2.42 1.19 2.51 1.02 2.67.64 3.1" filter="url(#a)"/><path d="m24.51-75.13 3.15.92 2.32 1.16 2.11 1.14 2.03 1.09 2 1.07 2.04 1.09 2.15 1.15 2.28 1.22 2.38 1.32 2.41 1.41 2.35 1.51 2.24 1.6 2.11 1.67 2.02 1.74 2 1.77 2.05 1.79 2.14 1.81 2.23 1.81 2.26 1.79 2.23 1.77 2.12 1.75 2.01 1.77 1.92 1.82 1.86 1.93 1.8 2.03 1.76 2.09 1.8 2.08 1.89 2.02 1.84 1.91 2 2.03" filter="url(#a)"/><path d="m21.75-75.95 2.23.61 1.73.67 1.92.83 2.14.94 2.28.99 2.37 1.03 2.41 1.08 2.35 1.15 2.23 1.21 2.07 1.28 1.93 1.33 1.85 1.38 1.86 1.43 1.94 1.51 2.06 1.6 2.16 1.72 2.18 1.82 2.14 1.91 2.03 1.95 1.88 1.97 1.75 1.96 1.61 1.95 1.48 1.95 1.35 1.86 1.2 1.63 1.1 1.33 1.44 1.51" filter="url(#a)"/><path d="m19.54-76.77 3.54.86 3.55.83 3.77.96 3.53 1.04L36.88-72l2.37 1.07 2.02 1.08 1.94 1.09 2.05 1.14 2.24 1.22 2.47 1.29 2.75 1.38 3.04 1.48 3.31 1.58 3.47 1.66L66-57.29l3.35 1.76 3.23 1.79 3.14 1.82 3.07 1.83 2.96 1.81 2.83 1.75 2.83 1.66 3.01 1.6 3.19 1.69 3.03 2.01 3.23 2.5" filter="url(#a)"/><path d="m17.41-77.04 3.47.9 2.42.73 2.08.75 2.1.84 2.16.93 2.16.98 2.15 1.04 2.13 1.09 2.16 1.15 2.17 1.21 2.15 1.28 2.11 1.34 2.02 1.39 1.94 1.45 1.94 1.52 1.98 1.62 2.11 1.72 2.25 1.82 2.37 1.9 2.41 1.95 2.39 1.96 2.31 1.96 2.19 1.95 2.1 1.92 2.03 1.88 1.93 1.83 1.83 1.86 1.8 2.09 1.89 2.37 1.52 1.69" filter="url(#a)"/></g><path fill="none" stroke="#000" stroke-linejoin="round" stroke-width="3" d="M-12.24 22.81Q9.98 30.15-1.13-4.178" filter="url(#a)"/><path fill="#D77F8C" stroke="#000" stroke-linejoin="round" stroke-width="3" d="m25.37 49.52-.12 1.25-.19.61-.1.16-.19.61.18-.41-.6 1.14.06-.28-.34.73-.23.58-.88 1.04.25-.22.01.02-.46.37-.3.54-1.04.95-.3.23.01.02-1.17.86.12-.09-1.24.79-.08.01.49-.26-1.2.75-.71.23-1.43.61.67-.17-.96.36-.12-.01-1.03.4-.05.01-1.83.46.76-.19-1.12.3.38-.08-.85.17-1.72.24-.44.06-1.41.08-.14.03-.75.01.54.02-.4-.02-1.71.01-.78-.02-1.3-.12.97.09-1.11-.09-1.09-.13-.65-.1-1.53-.28.14.02-1.15-.25-.55-.14.5.12-2.44-.69-.87-.31-.32-.14-.45-.17-1.31-.54.94.37-.78-.3-1.87-.94-.33-.21-.14-.1.07.07-1.74-1.1-.5-.36-.47-.28.32.23-.73-.51.44.34-.99-.85-1.48-1.33-.35-.31.1.01.17.24-.59-.69-.23-.18-1.52-1.91.51.59-.43-.48-.7-1.35.49.88-1.12-2.01.67 1.22-.81-1.57-.27-.65.04-.16-.06-.03-.18-.49-.09-.64-.27-.67.07-.31.01.13-.23-1.29.04-.48.05-.32.02-.65.05.3-.09-.5.12-1.1.33-.89-.23.4.76-1.58.23-.75-.28.54.02-.02.9-1.37-.22.39.03-.17.22-.43.2-.28 1.32-1.65.32-.24-.22.22.73-.57 1.13-.87.41-.33-.35.3-.47.15.9-.61 1.73-.9.45-.28h.09l1.32-.52-.38.12 1.25-.49-1.21.47 2-.73-.63.25 1.07-.38 1.1-.23.24-.05.32-.11.68-.11 1.58-.2 1.62-.17-.74.07 1.16-.11-.04.04 1.58-.03.68.01 1.17.06-.64-.03.48.02.36.01 1.21.13 1.04.12.51.08 1.53.29.69.16-.84-.19 2.78.72-1.84-.51 2.93.86.43.13-.45-.15.11.06 1.21.42 1.32.58 1.3.59.37.2.72.42-.05-.07.21.12 1.01.65 1.09.71-.12-.1-.62-.35 2.11 1.49-.47-.37.47.39.83.68.27.27.86.95.48.58-.76-.82 1.16 1.17.83 1.04-.46-.45 1.21 1.68.17.32-.53-.88.94 1.83-.13-.29-.09-.13.23.48.46 1.11.3 1.11.1.64-.01.32-.09-.75.37 1.92-.01.02-.03.48-.04.64-.05-.3-.05.63-.03.18" filter="url(#a)"/></svg>