<svg xmlns="http://www.w3.org/2000/svg" width="500" height="500" viewBox="-100 -100 200 200"><defs><clipPath id="c"><path d="m23.26.47-.07-.35-.09-.36L23-.6l-.13-.37-.14-.37-.17-.39-.18-.39-.21-.39-.23-.41-.26-.4-.27-.42-.3-.42-.33-.43-.34-.43-.37-.44-.28-.41-.31-.43-.36-.45-.4-.47-.45-.48-.48-.49-.53-.5-.56-.51-.61-.52-.64-.52-.68-.52-.72-.51-.74-.51-.78-.51-.81-.49-.84-.49-.86-.47-.89-.45-.9-.43-.93-.41-.94-.39-.95-.37-.97-.33-.98-.31-.98-.29-.99-.25-.99-.22-1-.19-.98-.15-.99-.13-.98-.08-.97-.06-.96-.02-.95.01-.93.04-.92.08-.9.1-.88.14-.87.17-.84.19-.82.22-.79.25-.77.27-.75.29-.72.31-.7.33-.67.35-.64.36-.61.37-.59.38-.57.38-.54.41-.51.41-.49.43-.47.43-.44.45-.41.45-.39.46-.37.47-.34.47-.31.48-.29.48-.26.48-.24.48-.63 3.28.22.62.23.61.26.61.27.61.3.6.32.59.34.59.36.59.38.59.4.58.42.57.45.58.46.56.48.57.5.57.52.56.54.56.57.56.58.55.61.56.63.56.64.55.66.55.68.55.7.54.72.54.73.54.74.52.76.53.77.51.78.51.79.5.8.48.8.48.82.46.81.44.82.43.83.41.82.39.83.36.82.35.82.31.82.3.81.26.8.23.8.2.78.17.78.13.76.09.76.06.73.01.73-.02.7-.07.7-.11.67-.15.65-.2.64-.25.61-.28.6-.34.58-.38.55-.42.53-.47.52-.5.49-.55.48-.31.47-.32.45-.34.45-.36.42-.38.42-.39.4-.41.38-.41.38-.43.35-.44.35-.44.33-.45.31-.45.3-.46.28-.45"/></clipPath><clipPath id="b"><path d="m-23.21-.95.08-.3.09-.3.12-.3.13-.31.16-.3.18-.32.21-.31.22-.32.25-.32.28-.33.3-.32.32-.33.35-.33.38-.33.4-.34.3-.33.34-.34.39-.35.44-.36.48-.36.52-.37.56-.38.61-.37.65-.38.68-.38.72-.37.76-.37.79-.36.82-.35.85-.35.88-.33.9-.33.93-.3.94-.3.97-.27.97-.26.99-.24 1-.22 1.01-.2 1.01-.18 1.01-.15 1.02-.14 1.01-.1 1-.09 1-.06 1-.04.98-.01.96.01.96.03.93.05.92.08.9.1.88.13.85.14.83.16.81.18.78.2.76.22.73.23.7.24.68.26.65.26.62.28.6.28.56.29.55.3.51.3.5.32.46.32.45.33.41.34.39.34.37.35.34.35.31.35.29.36.26.36.24.36.22.36-2.53.95-.2.59-.23.58-.25.58-.27.57-.3.57-.31.56-.33.56-.36.56-.37.54-.4.55-.41.54-.44.53-.45.54-.47.52-.49.53-.51.52-.53.52-.55.51-.57.51-.59.51-.61.51-.62.5-.64.5-.65.5-.67.49-.68.49-.69.47-.7.48-.72.46-.72.46-.73.44-.74.44-.74.42-.74.41-.76.4-.75.38-.75.36-.76.35-.75.33-.75.3-.75.29-.74.26-.74.24-.73.21-.73.18-.72.16-.71.12-.7.1-.7.06-.68.02h-.67l-.66-.05-.64-.08-.64-.11-.62-.16-.61-.19-.6-.23-.58-.27-.56-.31-.56-.35-.54-.38-.52-.42-.51-.46-.5-.49-.46-.28-.45-.29-.44-.32-.43-.32-.41-.35-.41-.35-.4-.37-.38-.37-.37-.39-.36-.39-.35-.4-.34-.4-.32-.4-.31-.41-.3-.4"/></clipPath><filter id="a"><feTurbulence baseFrequency=".05" numOctaves="3" result="noise" type="noise"/><feDisplacementMap in="SourceGraphic" in2="noise" scale="2"/></filter></defs><rect width="100%" height="100%" x="-100" y="-100" fill="#E0B0FF"/><path fill="#C04000" stroke="#000" stroke-linejoin="round" stroke-width="1.667" d="m64.93 1.59.29-.66L65 2.26l-.07 2.51-.13 1.62.09-.75-.11 2.03-.13-.57-.36 3.95.07-.29-.19 2.77.19-1.79-.27 2.28-.08 1.05-.36 2.29-.84 3.13.48-2.87-.66 3.23-.1.27-.01 1.1-.45.9-.59 3.04-.13.57-.6 1.21-.21.83-.56 1.93-.35 1.08.16-.28-.75 1.25-.35 1.27-1.02 2.59-.88 1.51-.02.45-.43 1 .32-1.28-1.19 2.73-.99 1.91-.01-.16-.31 1.33-1.33 1.95.85-1.3-1.61 2.48-.03.16-1.76 2.48-.47 1.14-1.12 1.21-.05.27-1 1.54.54-1.05-2.42 3.17-.12-.11.02.43-1.41 1.41.22-.23-.09.07-1.88 1.76-.8 1.04-1.83 1.82.39-.42-2.01 1.74-.69.85v-.23l.16-.05-1.93 1.57-1.35 1.09-1.56 1.17.61-.57-2.01 1.59.58-.36-2.07 1.18-.04-.03-1.52 1.24-.45.07.11-.13-3.07 1.74h-.44l.96-.36-3.81 1.96 1.23-.47-2.18.62.03.26-3.29 1.17-.96.37 1.12-.41-.22-.14-2.1.91-.47-.16-1.04.61-1.56.13-1.12.17-.46.38-1.05.2-2.07.19-.26.18-.83-.1-2.46.38.08-.06-1.04-.06-.49.13-1.46.09-1.9-.01-.65-.04-.72-.08-.03.18-1.84-.14-.27-.19.17.3-2.15-.22-1.34-.45-.95-.19-3-.38 1.43.38-1.28-.25-2.78-.59-.76-.56-1.12-.21.47.08-2.59-.67-.62-.16-.74-.56-1.82-.42-.49-.34-.39-.14-.81-.46-1.78-.83.07-.05-1.64-.6.17-.04-1.43-1.04h-.74l-1.35-1.24-1.05-.29.16-.04-1.52-1.01.18.18-2.2-1.91-.52-.13-.3-.27-.32-.34-1.68-1.46-1.67-1.13-1.21-1.29.17.16-.61-.71-1.41-1.05-1.12-1.53.32.73-1.12-1.63-1.17-1.28-.3-.04-1.03-1.22-.06-.11-1.53-1.68-.45-1.24-1.33-1.26.83 1.1-1.91-2.87-.91-1.04.84 1.18-1.68-2.86-.45-.8-.54-.87-1.07-2.16.3.78-.71-1.38-.97-1.42-.45-1.6.44 1.07-.44-1.13-.92-1.73-.79-1.78.09.3-.71-1.7-.83-2.84-.16-.07-.47-.85-.6-2.47.34 1.71-.88-3.23-.54-2.28.11.72-.09-.67-.74-2.98-.59-2.64-.25.1.31.3-.49-2.02-.14-1.41-.19-.91-.29-.41-.16-2.48.15.78-.48-2.49-.37-3.37.37 1.63-.05-1.68-.1-1.28-.27-2.95-.16.73.12-1.31-.15-2.45.19-1.28-.01 1.22-.02-4.49.04-1.53.01.52.28-.74.26-2.45-.1.17.2-2.92.05-.36.31-2.65-.09.91.67-3.82-.14.48.01.36.93-3.67.05-1.02.01-.43.63-2.21.09-.17.15-.79.51-1.56.68-1.81.5-1.81-.02.33.26-1.13.9-1.77-.17-.16.62-1.5.51-.94.37-1.12 1.18-2.68.27-.08.35-1.19.57-.9.91-1.76.14-.31.06-.08-.09-.05 1.39-2.39.68-1.04.73-.95.5-.91.13-.5.49-.44 1.37-1.84.63-1.07 1.36-1.72.41-.54-.38.73 1.35-1.86 1.19-1.14-.11-.22 1.84-1.61 1.19-1.73.2.21.3-.19.37-.79 1.3-.99-.14.09 1-.92 1.32-1.22 1.73-1.19 1.04-.96-1.28.95 2.33-1.49.62-.8.25-.08 1.66-1.1 1.12-.48.93-.59.35-.44.84-.49 1.09-.55 2.81-1.35-1.46.52 2.24-1 1.5-.29.22-.42.72-.21 1.9-.57.73-.24.67-.25.38-.13 1.04-.64 2.77-.7-.74.48.82-.25.31-.19 1.44-.44.59.09 2.17-.43 1.68-.06.03-.05 1.66-.29 1.25-.27-.62.25 2.51-.3.82.25 1.25-.33-.28.22 1.9.13 1.19-.3-.3.16 2.36.27 1.26.18.99-.19-1.03.16 2.56.24 1.24.36 1.73.48 1.34.08-.02-.1.5.24 1.18.17 1.29.69-.31-.17 2.18.48 1.16.49-.1.06 1.73.82 1.55.75.62-.04 1.32.7 1.11.72.12-.31-.35.21 2.39 1.25.64.22 1.17.95 1.4.64.32.49.72.08.98.92 2.21 1.38-.52-.41 1.04 1.14.92.76 2 1.31-1.01-.57 1.68 1.41-.07-.13.45.5 1.4 1.33 1.63 1.82-.5-.72 1.74 1.92 1.44 1.83-.18-.56 1.08 1.29.3.47.18.24 1.79 2.62-.81-1.28 1.86 2.52-.09-.25 1.04 1.5.64.82.71 1.65 1.11 1.18.3.69.82 1.47.36.7.31.84 1.29 2.41.15.4-.46-.85.93 1.89.07-.22 1.37 3.72.24.4.98 1.88-.04.35.2.58.22 1.11 1.04 2.63.11-.09.09.4.6 2.78.48.74.1.37.74 3.04-.07-.25.21 1.78-.09-.08.62 2.12.51 2.58v.31l.15 2.78-.04-.15.12-.3.16.93.23 1.53.04.96-.05.88.21 3.67.16.53.08.84.02 1.06-.22 3.23.29-.66" filter="url(#a)"/><path fill="#fff" d="m-23.21-.95.08-.3.09-.3.12-.3.13-.31.16-.3.18-.32.21-.31.22-.32.25-.32.28-.33.3-.32.32-.33.35-.33.38-.33.4-.34.3-.33.34-.34.39-.35.44-.36.48-.36.52-.37.56-.38.61-.37.65-.38.68-.38.72-.37.76-.37.79-.36.82-.35.85-.35.88-.33.9-.33.93-.3.94-.3.97-.27.97-.26.99-.24 1-.22 1.01-.2 1.01-.18 1.01-.15 1.02-.14 1.01-.1 1-.09 1-.06 1-.04.98-.01.96.01.96.03.93.05.92.08.9.1.88.13.85.14.83.16.81.18.78.2.76.22.73.23.7.24.68.26.65.26.62.28.6.28.56.29.55.3.51.3.5.32.46.32.45.33.41.34.39.34.37.35.34.35.31.35.29.36.26.36.24.36.22.36-2.53.95-.2.59-.23.58-.25.58-.27.57-.3.57-.31.56-.33.56-.36.56-.37.54-.4.55-.41.54-.44.53-.45.54-.47.52-.49.53-.51.52-.53.52-.55.51-.57.51-.59.51-.61.51-.62.5-.64.5-.65.5-.67.49-.68.49-.69.47-.7.48-.72.46-.72.46-.73.44-.74.44-.74.42-.74.41-.76.4-.75.38-.75.36-.76.35-.75.33-.75.3-.75.29-.74.26-.74.24-.73.21-.73.18-.72.16-.71.12-.7.1-.7.06-.68.02h-.67l-.66-.05-.64-.08-.64-.11-.62-.16-.61-.19-.6-.23-.58-.27-.56-.31-.56-.35-.54-.38-.52-.42-.51-.46-.5-.49-.46-.28-.45-.29-.44-.32-.43-.32-.41-.35-.41-.35-.4-.37-.38-.37-.37-.39-.36-.39-.35-.4-.34-.4-.32-.4-.31-.41-.3-.4" filter="url(#a)" transform="translate(40.73 -20.96)"/><path fill="#fff" d="m23.26.47-.07-.35-.09-.36L23-.6l-.13-.37-.14-.37-.17-.39-.18-.39-.21-.39-.23-.41-.26-.4-.27-.42-.3-.42-.33-.43-.34-.43-.37-.44-.28-.41-.31-.43-.36-.45-.4-.47-.45-.48-.48-.49-.53-.5-.56-.51-.61-.52-.64-.52-.68-.52-.72-.51-.74-.51-.78-.51-.81-.49-.84-.49-.86-.47-.89-.45-.9-.43-.93-.41-.94-.39-.95-.37-.97-.33-.98-.31-.98-.29-.99-.25-.99-.22-1-.19-.98-.15-.99-.13-.98-.08-.97-.06-.96-.02-.95.01-.93.04-.92.08-.9.1-.88.14-.87.17-.84.19-.82.22-.79.25-.77.27-.75.29-.72.31-.7.33-.67.35-.64.36-.61.37-.59.38-.57.38-.54.41-.51.41-.49.43-.47.43-.44.45-.41.45-.39.46-.37.47-.34.47-.31.48-.29.48-.26.48-.24.48-.63 3.28.22.62.23.61.26.61.27.61.3.6.32.59.34.59.36.59.38.59.4.58.42.57.45.58.46.56.48.57.5.57.52.56.54.56.57.56.58.55.61.56.63.56.64.55.66.55.68.55.7.54.72.54.73.54.74.52.76.53.77.51.78.51.79.5.8.48.8.48.82.46.81.44.82.43.83.41.82.39.83.36.82.35.82.31.82.3.81.26.8.23.8.2.78.17.78.13.76.09.76.06.73.01.73-.02.7-.07.7-.11.67-.15.65-.2.64-.25.61-.28.6-.34.58-.38.55-.42.53-.47.52-.5.49-.55.48-.31.47-.32.45-.34.45-.36.42-.38.42-.39.4-.41.38-.41.38-.43.35-.44.35-.44.33-.45.31-.45.3-.46.28-.45" filter="url(#a)" transform="translate(-32.51 -18.21)"/><g fill="none" stroke="#000" transform="translate(40.73 -20.96)"><path stroke-linejoin="round" stroke-width="1.667" d="m-23.15 1.93-.05-.29-.04-.29-.04-.28-.03-.29-.02-.28v-.58l.03-.28.04-.3.05-.29.08-.3.09-.3.12-.3.13-.31.16-.3.18-.32.21-.31.22-.32.25-.32.28-.33.3-.32.32-.33.35-.33.38-.33.4-.34.3-.33.34-.34.39-.35.44-.36.48-.36.52-.37.56-.38.61-.37.65-.38.68-.38.72-.37.76-.37.79-.36.82-.35.85-.35.88-.33.9-.33.93-.3.94-.3.97-.27.97-.26.99-.24 1-.22 1.01-.2 1.01-.18 1.01-.15 1.02-.14 1.01-.1 1-.09 1-.06 1-.04.98-.01.96.01.96.03.93.05.92.08.9.1.88.13.85.14.83.16.81.18.78.2.76.22.73.23.7.24.68.26.65.26.62.28.6.28.56.29.55.3.51.3.5.32.46.32.45.33.41.34.39.34.37.35.34.35.31.35.29.36.26.36.24.36.22.36.19.37.17.36.14.36.12.36.1.37.08.36.05.35.04.36.01.35v.36" filter="url(#a)"/><path stroke-linejoin="round" stroke-width="2.222" d="m-22.85 3.44.15.23.16.26.18.29.2.32.22.33.22.35.25.37.25.38.27.39.29.4.3.4.31.41.32.4.34.4.35.4.36.39.37.39.38.37.4.37.41.35.41.35.43.32.44.32.45.29.46.28.5.49.51.46.52.42.54.38.56.35.56.31.58.27.6.23.61.19.62.16.64.11.64.08.66.05h.67l.68-.02.7-.06.7-.1.71-.12.72-.16.73-.18.73-.21.74-.24.74-.26.75-.29.75-.3.75-.33.76-.35.75-.36.75-.38.76-.4.74-.41.74-.42.74-.44.73-.44.72-.46.72-.46.7-.48.69-.47.68-.49.67-.49.65-.5.64-.5.62-.5.61-.51.59-.51.57-.51.55-.51.53-.52.51-.52.49-.53.47-.52.45-.54.44-.53.41-.54.4-.55.37-.54.36-.56.33-.56.31-.56.3-.57.27-.57.25-.58.23-.58.2-.59.19-.59.16-.6.14-.61.12-.61.1-.61.08-.62.05-.63.04-.63.02-.63-.01-.65" filter="url(#a)"/><circle cx="1.085" cy="-1.151" r="3.072" clip-path="url(#b)" filter="url(#a)"/><circle cx=".6" cy="-2.686" r="4.506" clip-path="url(#b)" filter="url(#a)"/><circle cx=".01" cy="-.666" r="3.894" clip-path="url(#b)" filter="url(#a)"/><circle cx="1.82" cy=".334" r="3.73" clip-path="url(#b)" filter="url(#a)"/><circle cx="-1.2" cy="-1.901" r="4.296" clip-path="url(#b)" filter="url(#a)"/><circle cx="-1.08" cy=".484" r="3.926" clip-path="url(#b)" filter="url(#a)"/><circle cx="1.085" cy="-1.026" r="3.526" clip-path="url(#b)" filter="url(#a)"/><circle cx="-1.88" cy="-1.546" r="4.054" clip-path="url(#b)" filter="url(#a)"/><circle cx="-2.01" cy="-.141" r="3.946" clip-path="url(#b)" filter="url(#a)"/><circle cx="-.78" cy=".069" r="4.936" clip-path="url(#b)" filter="url(#a)"/></g><g fill="none" stroke="#000" transform="translate(-32.51 -18.21)"><path stroke-linejoin="round" stroke-width="2.222" d="m23.25 3.76.04-.33.03-.32.03-.32.02-.33.01-.32v-.33l-.01-.33-.02-.33-.04-.34-.05-.34-.07-.35-.09-.36L23-.6l-.13-.37-.14-.37-.17-.39-.18-.39-.21-.39-.23-.41-.26-.4-.27-.42-.3-.42-.33-.43-.34-.43-.37-.44-.28-.41-.31-.43-.36-.45-.4-.47-.45-.48-.48-.49-.53-.5-.56-.51-.61-.52-.64-.52-.68-.52-.72-.51-.74-.51-.78-.51-.81-.49-.84-.49-.86-.47-.89-.45-.9-.43-.93-.41-.94-.39-.95-.37-.97-.33-.98-.31-.98-.29-.99-.25-.99-.22-1-.19-.98-.15-.99-.13-.98-.08-.97-.06-.96-.02-.95.01-.93.04-.92.08-.9.1-.88.14-.87.17-.84.19-.82.22-.79.25-.77.27-.75.29-.72.31-.7.33-.67.35-.64.36-.61.37-.59.38-.57.38-.54.41-.51.41-.49.43-.47.43-.44.45-.41.45-.39.46-.37.47-.34.47-.31.48-.29.48-.26.48-.24.48-.21.49-.19.48-.17.48-.14.49-.12.48-.1.48-.07.47-.06.47-.03.47-.01.47" filter="url(#a)"/><path stroke-linejoin="round" stroke-width="2.222" d="m22.83 5.71-.14.25-.16.29-.17.32-.18.35-.2.38-.21.39-.23.42-.24.42-.26.44-.27.44-.28.45-.3.46-.31.45-.33.45-.35.44-.35.44-.38.43-.38.41-.4.41-.42.39-.42.38-.45.36-.45.34-.47.32-.48.31-.49.55-.52.5-.53.47-.55.42-.58.38-.6.34-.61.28-.64.25-.65.2-.67.15-.7.11-.7.07-.73.02-.73-.01-.76-.06-.76-.09L4 18.9l-.78-.17-.8-.2-.8-.23-.81-.26-.82-.3-.82-.31-.82-.35-.83-.36-.82-.39-.83-.41-.82-.43-.81-.44-.82-.46-.8-.48-.8-.48-.79-.5-.78-.51-.77-.51-.76-.53-.74-.52-.73-.54-.72-.54-.7-.54-.68-.55-.66-.55-.64-.55-.63-.56-.61-.56-.58-.55-.57-.56-.54-.56-.52-.56-.5-.57-.48-.57-.46-.56-.45-.58-.42-.57-.4-.58-.38-.59-.36-.59-.34-.59-.32-.59-.3-.6-.27-.61-.26-.61-.23-.61-.22-.62-.19-.62-.17-.63-.15-.64-.13-.63-.12-.65-.09-.65-.07-.66-.05-.66-.03-.66-.02-.67" filter="url(#a)"/><circle cx="6.753" cy="8.739" r="4.31" clip-path="url(#c)" filter="url(#a)"/><circle cx="6.368" cy="7.389" r="4.314" clip-path="url(#c)" filter="url(#a)"/><circle cx="7.693" cy="7.379" r="3.734" clip-path="url(#c)" filter="url(#a)"/><circle cx="4.188" cy="5.589" r="4.046" clip-path="url(#c)" filter="url(#a)"/><circle cx="7.388" cy="7.574" r="3.138" clip-path="url(#c)" filter="url(#a)"/><circle cx="7.543" cy="4.819" r="3.624" clip-path="url(#c)" filter="url(#a)"/><circle cx="4.618" cy="8.159" r="3.856" clip-path="url(#c)" filter="url(#a)"/><circle cx="4.943" cy="8.694" r="3.294" clip-path="url(#c)" filter="url(#a)"/><circle cx="4.138" cy="6.869" r="3.214" clip-path="url(#c)" filter="url(#a)"/><circle cx="7.833" cy="6.739" r="4.716" clip-path="url(#c)" filter="url(#a)"/></g><g fill="none" stroke="#0A0A0A" stroke-linejoin="round" stroke-width="2"><path d="M58.37-34.62 29.38-55.95l-6.65-3.32-5.93 1.41-4.86 2.44-3.39 1.25-2.9-.86-2.99-2.76-2.76-3.74-1.91-3.62-.64-2.48.79-.61 2.37 1.61 4.06 3.73 5.54 5.16 6 5.34 4.35 3.92.01 1.05-5.89-2.52-9.91-5.43-7.98-6.36-1.31-4.64-3.53.49-38.67 11.22" filter="url(#a)"/><path d="m59.31-32.39-40.4-15.59.85-7.07 4.83-5.2 3.73-1.73.68 1.19-4.86 2.06-11.09 1.46-14.79.56-13.82-.1-8.31-.63-.45-1.31 6.7-1.95L-7-62.88l10.21-1.91 6.48-1.78 2.29-2.63.79-4.04-5.26-5.18" filter="url(#a)"/><path d="m-51.3-48.19 40.13-9.11L4.1-54.83l11.32 3.93 7.21 2.44 5.29 1.33 4.55.6 1.49-.9-4.94-3.31-12.17-5.45-16-6-13.57-4.75-4.9-2.66 7.79-.29 22.64 4.65 40.18 19.17" filter="url(#a)"/><path d="m-33.16-67.54-1.02 7.36 19.69 1.05 19.2 1.44 8.79.88-.95-.19-6.33-1-7.6-1.49-6.01-1.77-2.77-1.78.86-1.52 3.61-1.15 4.57-.84 3.44-.72.76-.72-2.17-.68-3.77-.64-3.03-.73-.12-1.09 3.43-1.43 6.03-1.12 7.8.68L22-68.19l16.23 12.13 21.28 24.25" filter="url(#a)"/><path d="m2.01-78.54 18.68 8.01 4.3 4 1.63 2.97 1.89 2.95.09 1.81-2.09.49-2 .5.69 2.02 4.08 3.74 5.71 3.9 4.27 1.6.35-2.44-3.86-6.09-6.19-7.33-6.1-5.76-4.5-2.71 1.19 1.79 25.21 12.82" filter="url(#a)"/><path d="M56.22-39.56 23.04-56.68l3.56-3.02 7.15.31 2.91.67-3.31-.03-9.24-.93-13.12-1.5-14.04-1.47-12.39-.77-9.15.44-4.91 1.66.38 2.31 6.67 1.92 12.74.5 15.89-1.36 13.42-2.48 5.06-1.45-9.16.54L-29.51-70" filter="url(#a)"/><path d="m60.97-27.76-40.66-31.1-3.85-8.11 3.57-.35-.69.44-5.68-.31-6.89-.69-3.92-.65.93-.42h4.3l3.79.53.03.78-4.01.25L1.4-68.7l-9.92-3.37-9.85-3.32" filter="url(#a)"/><path d="M-42.52-59.31 9.87-60.5l14.33-1.8-2.07.38-9.68.31-10.34-.89-6.75-1.53-2.34-1.24.87-.59 2.57-.16 3.22-.1 3.25-.27 2.85-.56 2.18-.89 1.66-1.08 1.77-.78 2.62.31 3.31 1.86 1.98 2.7-3.16 1.17-11.3-3.16-15.96-6.36-9.15-1.64" filter="url(#a)"/><path d="m35.68-65.73-40.37 3.47-3.92-4.79 3.26-3.42 4.21-1.03 3.42.65 2.37 1.88 1.47 3.01.54 3.7-.47 3.46-1.29 2.2-1.68.46-1.83-.93-2.21-1.37-2.94-.94-3.05-.13-.88.52 3.71.33 6.03-1.97-3.45-6.99-23.55-5.28" filter="url(#a)"/><path d="m-50.8-49.1 45.65-13.16 6.08-7.9-3.84-2.23-5.13 1.5-2.44 2.38 1.36 1.07 3.65-.81 3.45-1.77 1.52-1.19-.48.58-.91 2.62 1.15 3.88 5.05 3.49 8.02 1.21 6.54-1.96.84-3.26.6 1.08L51.17-48.9" filter="url(#a)"/><path d="m25.33-72.39-22.65 1.3-4.05 6.61 2.48 6.52L7.5-54.6l7.86.51 6.73-1.05 3.36-1.57-.94-1.24-4.48-.29-5.81.9-4.35 1.83-1.32 2.11-.16 1.38-4.22-.38-9.56-2.12 1.66-1.27 52.26 3.58" filter="url(#a)"/><path d="m-.86-78.56 30.7 16.26 9.23 5.35-2.2-2.18-5.57-3.98-4.8-2.4-2.79-.18-.66 1.25 1.24 1.67 2.33 1.36 2.13.77.68.23-1.45-.02-4.09-.3-7.56-1.44-11.21-3.67L-6.82-71l-8.65-2.75-15.16 4.23" filter="url(#a)"/><path d="m-29.51-70 21.02-1.06 17.35 3.72 5.27 3.28-1.65 1.82-2.13.89.97.48 4.08.22 4.84-.22 3.01-.71.03-1.02-2.64-1.03-4.32-.9-4.82-.5-3.97.75-2.56 2.92L.11-57.6l-17.4.3-29.12 2.09" filter="url(#a)"/><path d="m-40.83-61.02-3 3.55 3.81-2.29 7.9-3.08 9.78-1.37 9.18.67 7.22 1.92 5.68 2.01 4.89.94 3.9-.78 2.09-2.31.02-2.77-1.08-1.85-.64-.08.86 1.31 2.37 1.23 2.94-.5 2.01-2.68-.61-3.17-6.2-1.43-27.93-3.93" filter="url(#a)"/><path d="m3.2-78.84 6.79 1.97-2.67-.19-2.78.45-2.81 1.43-3.75 1.98-4.12 2.16-2.9 2.26-.16 2.36 3.08 2.25 5.46 1.58 5.92.24 4.23-1.61 1.09-3.33-1.9-4.1-3.14-3.47-1.92-1.97.42-.76.58-.58-1.72-.51" filter="url(#a)"/><path d="M58.37-34.62 17.46-50.64 5.7-54.13l-7.6-3.89-3.53-3.53 1.68-1.36 6.33.95 9.02 2.43 9.15 2.87 6.75 2.41 2.26 1.27-3.46-.22-9.13-1.48-13.28-2-14.54-1.46-12.31-.08-6.75 1.28 1 1.43 8.57-.5 10.53-4.2-1.35-7.04-21.33-1.17" filter="url(#a)"/><path d="M55.76-40.41 32.6-57.59l-21.09-6.49-9.69-1.54-1.45-.05 2.15.69 2.67.81 1.25-.04-.98-1.16-2.47-1.42-2.17-.49-.3.84 1.31 1.53.85.98-.16-1.14 4.49-5.12 6.34-6.91" filter="url(#a)"/><path d="m12.01-77.18-15.25 3.37 4.1 2.1 6.32 2.12 3.5.67.69-.59v-.4l.28.73-.81 1.54-3.93 1.35-7.48.54-8.84.1-6.48.62-.72 1.53 6.32 1.22L-.3-64.2l3.57-7.3-4.95-7.31" filter="url(#a)"/><path d="m-6.48-78.2 3.81 6 5.85 7.05 10.86 4.18 6.72 1.19.71-1.26-1.59-2.38v-1.79l2.51-.18 3.1.9.81.36-2.98-1.44-5.32-2.8-3.46-2.15h1.75l1.57.24-22.05-8.23" filter="url(#a)"/><path d="m46.56-55.07-12.42-2.66-6.89 2.46-2.9 3.3-5.36-.67-6.22-4.22-3.7-4.97-.36-3.6 1.55-1.64 1.8-.16 1.44.63.97.89-.36.75-3.63.33-8.24-.2-11.31-.52-10.04-.67-6.03-.45-6.72 1.75-12.5 7.02" filter="url(#a)"/><path d="m-40.83-61.02 44.54-4.47 8.12-4.69 1.08-1.61 1.72.52 1.48.88.06.38-.68-.09-.08-.29 1.04-.34 1.41-.36.54-.22-1.07.26-2.41 1.15-2.67 2.22-2.12 2.95-2.48 2.63-5.89.79-11-2.57-9.27-6.38 1.54-5.62" filter="url(#a)"/><path d="m-48.81-51.88 38.15-15.42 5.64-3.49-4.55.74-4.16 1.32-1.95 1.12.35 1.25 3.39 1.43 6.22 1.06 6.79.04 4.2-1.13.14-1.66-2.4-.99-.78.93 6.36 3.43 15.55 3.14 1.19-12.28" filter="url(#a)"/><path d="M6.48-78.26 2.09-66.8l.05 6.66-4.57-.04L-4-61.2l3.76.8 6.88 2.48 6.78 2.9 4.46 2.1 1.45.49-.92-1.36-2.06-2.94-1.81-3.67-.2-3 2.43-.87 4.9 1.9 4.75 3.3-.87.4-10.42-8.06-1.78-10.37" filter="url(#a)"/><path d="m19.23-75.24-24.94 6.55 7.92-.14 11.17 1.63 5.42 2.78-1.06 2.03-4.87.37-5.51-1.23-3.99-2.18-1.53-2.21.79-1.38 2.52-.03 3.8 1.49 5.25 2.87 7.14 3.86 8.56 3.88 7.59 2.17 2.99-1.38-4.02-5.57-9.87-8.14L16.3-76.1" filter="url(#a)"/><path d="M43.92-58.1 3.86-68.12l-21.01.37-10.89 2.22-4.71 1.27-1.12.31 1.05-.33 2.46-.87 3.1-1.31 2.79-1.43 1.93-1.15 1.38-.62 1.9-.08 3.54.4 5.44 1.01 6.39 1.79 5.75 2.45 4.02 2.43 2.83 1.51 3.44.31 4.91.03 3.19 1.04-7.7 1.31-45.71-10.08" filter="url(#a)"/><path d="M56.76-38.74 37.93-51.55l-17.67-1.87L5.88-58.2l-7.02-5.97-1.97-4.4.09-1.94 1.2.02 2.66 1.08L5-68.01l4.73 1.33 3.93 1.27 2.12 1.43.08 1.84-1.46 2.23-2.34 2.14-2.8 1.29-3.27-.18-3.81-1.59-3.61-2.19-1.06-1.71 4.9-.38 11 1.31 4.73.9-36.51-15.07" filter="url(#a)"/><path d="M.11-78.67-.98-72.2l.87 8.23.04 2.84-3.44-1.08-3.35-2.16.07-1.79L-3-67.21l5.62-.37L8-67.4l4.08.54 2.71.68 1.7.56 1.17.36 1.25.39 2.17 1.02 3.83 2.25 5.47 3.71 5.86 4.64 3.7 4.15-1.82 1.45-10.19-3.44-17.62-8.42-13.39-9.08 22.31-6.65" filter="url(#a)"/><path d="m-12.39-77.31 7.56-.19 2.77 3.41 4.2 7.31 5.65 8.13 3.75 5.05-.33.12-3.55-3.97-4.47-5.71-3.67-5.14-2.41-3.31-1.41-1.37-.73-.12-.47.32-.95.1-2-.39-1.72-.86 2.77-.94 12.17.19 24.76 4.71" filter="url(#a)"/><path d="m-.86-78.56-1.08.79-1.06.4-.92.13-.92.02-.96.06-1.02.23-1.05.43-1.05.56-.99.6-.9.55-.8.51-.72.51-.67.6-.68.75-.69.87-.7.88-.71.75-.73.57-.8.55-.86.76-.73.85" filter="url(#a)"/><path d="m-6.51-78.15.52.03.89-.07.92-.12.93-.09.95-.05h.97l.94.02.94.04.93.07.94.08.97.11.97.14.98.16.97.19.98.21 1.02.23 1.07.25 1.1.26 1.06.27.96.26.8.26.74.29.85.39 1.11.55m-26.95-3.08-1.03.27-.69.04-.67-.14-.8-.18-.93-.13-.98-.06-1-.07-1-.11-1.03-.2-1.09-.28-1.17-.4-1.24-.5-1.28-.52-1.26-.37-1.1-.02-.96.4-1.72.83-10.63-14.6 1.54.7 1.32.29 1.58.49 1.67.4 1.67.51 1.71.87 1.73 1.2 1.72 1.31 1.64 1.27 1.56 1.19 1.47 1.13 1.4 1.06 1.32.97 1.23.74 1.17.4 1.09.1 1.01.22.94 1.05.82 1.8.55.78L6.66-99.2l-1.97 1.71-1.23 2-1.11 1.28-1.07.99-1.03 1.2-1.04 1.37-1.07 1.15-1.09.62-1.09.15-1.04.14-1.01.7-.97 1.57-.99 2.24-1.07 2.26-1.16 1.5-1.2.39-1.02.02-.2 2.79-.08-.23-1.11-4.86.56 1.03.96 1.27 1.06.39 1.12-.33 1.14-.75 1.11-1 1.08-1.2 1.02-1.44.99-1.67.99-1.81 1.01-1.78 1.04-1.57 1.06-1.23 1.07-.88 1.1-.68 1.16-.84 1.25-1.33 1.38-1.95 1.45-2.26 1.37-1.85.86-.97-.24-1.29" filter="url(#a)"/><path d="m-16.59-76.01 1.2-.95 1.09-.44.76-.41.6-.7.6-1.09.73-1.45.88-1.62 1.02-1.56 1.09-1.35 1.12-1.15 1.06-1.12 1-1.3.94-1.52.99-1.57 1.21-1.32 1.27-.12-16.61 18.05.66-.07.87.03.99-.12.91-.27.8-.3.76-.28.79-.23.9-.16 1-.09 1.08-.01 1.11.07 1.1.11 1.05.14 1.01.12.97.11.95.12.94.15.93.19.9.22.88.23.86.22.86.21.9.2 1.43.32m-32.4 3.2 1.05-1.39.94-1.24.8-1.09.79-1.06.82-1.01.87-.85.91-.64.94-.5.92-.53.89-.68.85-.87.81-1 .79-1.05.76-.97.74-.89.75-.85.81-.92.95-1.05 1.14-1.15 1.32-1.14 1.28-.89.64-.74-23.01 22.51-1.19.72-.92.43-.96.23h-1.05l-1.12-.09-1.16.01-1.15.26-1.03.56-.85.79-.69.89-.59.85-.61.65-.73.4-.94.17-1.17.1-1.36.16-1.42.3-1.22.48-.93.97L-34.21-67l-1.37-2.15.23-1.54.87-.69 1.16-.15 1.18-.15 1.04-.46.85-.83.75-1.07.74-1.13.79-1.13.83-1.13.85-1.14.87-1.1.89-.97.95-.77 1-.6 1.01-.55.97-.66.85-.85.62-.98.46-.5-18.31 20.7-1.14.86-.82.65-.67.52-.61.49-.6.46-.66.46-.76.47-.88.55-.94.65-.93.74-.87.81-.77.8-.7.73-.71.66-.78.67-.9.86-1.02 1.17-1.19 1.52" filter="url(#a)"/><path d="m-38.3-63.63-.62.74-.46.64-.44.68-.43.73-.46.75-.57.79-.67.83-.72.91-.68.97-.61 1.03-.52 1.05-.46 1.06-.43 1.09-.43 1.11-.44 1.16-.42 1.19-.38 1.18-.33 1.13-.32 1.06-.32 1.06-.33 1.16-.37 1.3-.39 1.32.01.91M75.66 1.85 75.3-.83l-.85-1.68-1.17-1.4-1.09-1.42-.99-1.48-.97-1.41-.93-1.26-.75-1.07-.42-.9-.16-.77-.17-.7-.45-.75-.82-.93-1.17-1.15-1.8-1.51" filter="url(#a)"/><path d="m-39.16-62.8-.75 1.08-.02 1.41.07 1.4-.23 1.18-.53 1-.66.99-.61 1.07-.46 1.15-.33 1.2-.26 1.17-.31 1.09-.44.99-.56.99-.54 1.09-.32 1.24-.01 1.33.29 1.32.35 1.31 1.96-17.52-2.19-5.51-1.1-2.91.3-.72 1.03.19 1.17.17 1.12-.13 1.09-.41 1.03-.67.92-.89.78-1.02.69-1.06.63-1.07.59-1.22.51-1.54.42-1.93.37-2.19.37-2.22.32-2.16.14-2.32.09-2.49-10.01 31.93.88-.1 1.23-.5 1.15-.34 1.04-.09.96.04.93.06.94-.02.94-.17.91-.37.85-.56.81-.64.78-.64.76-.57.77-.5.79-.47.82-.44.87-.41.91-.33.95-.21.95-.11.96-.03 1.08.04 1.43.11 2.22.23" filter="url(#a)"/><path d="m-46.82-54.67-.28-.94-.37-1.39.08-1.44.39-1.42.53-1.41.58-1.35.56-1.27.48-1.16.4-1.07.35-1.01.39-.97.45-1.02.49-1.24.52-1.66.57-2.13.74-2.34.5-2.73-6.38 24.55-1.16 1.42-1.1 1.08-1 .87-.78.8-.62.83-.57.88-.6.91-.62.9-.63.85-.61.78-.58.72-.57.69-.57.72-.61.8-.64.88-.67.98-.72 1.06-.74 1.13-.73 1.16-.64 1.1-.43.98-.11.58 12.71-17.33-1.16-3.28-.32-2.21.38-1.03.84-.44.92-.56.67-1.08.35-1.66.14-1.98.09-1.94.17-1.64.26-1.35.26-1.25.2-1.36.2-1.5.38-1.51.73-1.4 1.04-1.5 1.04-2.03.58-2.75-8.14 32.31 1.72-.87.98-1.14.73-.97.81-.55 1.08-.12 1.3.08 1.33-.01 1.16-.33.91-.64.71-.8.63-.7.7-.44.79-.17.88-.01.95.02 1.01-.02 1.15-.03 1.29.01 1.29.08.91.23.14 1.13" filter="url(#a)"/><path d="m-50.67-49.6-.44-2.04.04-2.07.74-1.29.93-.82.85-.7.67-.85.42-1.25.12-1.8-.19-2.35-.38-2.67-.38-2.59-.18-2.19.09-1.66.26-1.35.26-1.42.12-1.81.06-2.2.26-2.3.58-2.16.63-2.14.01-2.11-.77-.05-3.83 38.32.55-.3.88-.54 1.23-.52 1.23-.55 1.04-.59.84-.59.75-.58.72-.62.76-.68.82-.72.91-.65 1.01-.49.99-.31.88-.16.78-.06.9.03 1.43.18" filter="url(#a)"/><path d="m-50.8-49.1.23-.62.44-1.02.64-1.19.73-1.15.66-1.06.54-1.01.46-1.01.45-1.05.53-1.09.62-1.14.66-1.18.64-1.19.54-1.12.43-.97.37-.82.45-.87.74-1.23m-26.36 36.94.65-1.72.7-1.13.84-.77.89-.71.86-.76.84-.83.84-.89.88-.94.92-.97.96-.95.99-.88 1-.79.97-.71.86-.65.68-.64.45-.66.24-.77.14-1.04.45-1.26 1.84-.29" filter="url(#a)"/><path d="m-54.1-43.81-.36-.21-1.08-.42-1.4-.21-1.52.06-1.43.32-1.13.65-.8 1-.66 1.2-.85 1.15-1.25.88-1.62.59-1.71.45-1.47.52-1.25.61-1.44.44-1.79.19-.98 1.12m29.3-17.55-.18-.46-.59.36-.79.81-.8 1.01-.73 1.02-.63.95-.56.87-.55.82-.59.85-.66.89-.72.89-.7.76-.6.48-.39.21-.18.19m-3.28 6.61 1.3-1.46.55-1.1.48-.95.5-.87.5-.79.48-.69.53-.63.61-.62.69-.68.71-.74.69-.8.64-.83.62-.83.63-.84.7-.86.8-.88.86-.82.86-.67.76-.41.68-.26 1.1-.56M62.82-21.08l-.23-.58-.52-1.12-.62-1.1-.74-.99-.92-.87-1.09-.72-1.2-.62-1.23-.56-1.21-.52-1.13-.5-.98-.54-.76-.7-.58-.94-.6-1.16-.86-1.1-.51-.63m-108.01-.97.58-.99.91-1.04 1.06-.91.99-.8.84-.75.74-.71.64-.67.55-.66.51-.67.51-.7.59-.71.72-.67.84-.58.93-.5.94-.48.91-.51.9-.61.92-.65.99-.58 1.03-.37.97-.12.79-.06.67-.95-18.53 14.69-1.27.62-1.17.5-.62.81-.33.99-.28 1.07-.32 1.15-.4 1.17-.47 1.15-.53 1.1-.57 1.04-.57 1.04-.55 1.1-.52 1.15-.51 1.19-.5 1.16-.49 1.1-.48 1.06-.6 1.07-.87 1.12-1.17 1.62 10.87-17.78-2.48-.36-.8.59-.65 1.02-.66 1.16-.55 1.18-.31 1.19-.13 1.23-.11 1.25-.3 1.22-.59 1.17-.83 1.1-.97 1.04-1.01 1.01-1.04 1.02-1.11 1.05-1.18 1.12-1.16 1.22-1.02 1.33-.82 1.42-.8 1.45-.99 1.44-.45 1.27" filter="url(#a)"/><path d="m-60.88-8.49-.04-1.99-.06-1.42-.1-1.26-.14-1.18-.13-1.15-.1-1.12-.06-1.15-.01-1.2.03-1.23.08-1.22.11-1.16.16-1.1.24-1.05.36-1.08.46-1.17.38-1.3.03-1.27-.31-.6.02-.33-.14-.32-.37-1.14-.46-1.42-.36-1.46-.17-1.43.05-1.43.27-1.38.48-1.28.62-1.16.65-1.07.54-1.07.37-1.08.16-1.07-.03-.99-.13-.94v-1.11l.19-2.27-4.49 44.81-.03-.04-.1-.76-.02-1.08.08-1.21.11-1.25.12-1.26.09-1.23.09-1.18.1-1.13.1-1.11.08-1.12.07-1.19.05-1.26.06-1.27.08-1.22.1-1.08.09-.9.06-.72m127.17-45.2.07-.39-.08 1.73-.63 2.61-.91 3-.72 2.87-.22 2.38.29 1.86.55 1.5.49 1.43.17 1.57-.2 1.75-.45 1.84-.55 1.8-.59 1.74-.65 1.77-.67 1.87-.49 1.92-.01 1.73.71 1.28 1.39.69 1.71.23.8.51-5.8 4.1-.38-2.04-.57.79-.41 1.13.1 1.13.31 1.09.17 1.13-.1 1.24-.27 1.34-.28 1.35-.11 1.29.08 1.17.19 1.08.15 1.05-.02 1.12-.26 1.25-.56 1.44-.79 1.57-.79 1.54-.42 1.27-.47.64-11.63-67.41.4 2.44-.15 1.86-.14 1.71.09 1.54.35 1.39.5 1.36.54 1.43.49 1.55.41 1.62.34 1.61.31 1.5.28 1.34.24 1.22.22 1.2.22 1.19.3 1.12.48 1 1.03 1.48M24.01-61.63l.9-.14.91.3.97.13 1.02-.03 1 .02.95.19.89.35.87.4.89.33.95.19.98.07.98.01.96.02.92.1.9.24.89.44.88.61.91.7 1.01.67 1.13.5 1.2.31 1.09.25.81.39.54.51-13.22-19.66.6.21.79.58.86.86.81.99.71 1.05.65 1.08.59 1.11.52 1.11.45 1.08.4 1.03.42.98.51.92.68.84.85.78.94.75.86.99.61 1.74.77 2.36" filter="url(#a)"/><path d="m41.05-61.12 1.43.57 2.21-1.05 2.58-1.33 2.26-.9 1.72-.35 1.18.18.7.7.37 1.1.29 1.28.51 1.11.98.65 1.56.12 2.02-.27 2.22-.32 2.14.02 2.16.31 2.85-.03-27.18-1.79.98 1.15.67.93.66 1.07.56 1.14.45 1.1.39 1 .41.89.45.83.44.88.39.95.35 1.02.33 1.06.33 1.12.28 1.24.23 1.41.27 1.52.55 1.38-9.52-20.39-.35.99.2 1.28.64 1.11.69 1.12.67 1.13.7 1.02.71.89.67.8.55.82.42.9.35.97.36.96.45.9.53.83.54.86.47.98.36 1.17.26 1.33.2 1.43.17 1.43.15 1.37.21 1.4" filter="url(#a)"/><path d="m48.53-50.22-.27-.51-.53-.82-.55-.81-.54-.81-.52-.8-.51-.78-.56-.77-.63-.77-.72-.82-.78-.88-.78-.96-.77-1-.74-1-.71-.9-.64-.74-.57-.55-.4-.4.29-.12-14.15-9.35.73.4.5.25.66.35.87.45.98.51 1 .53.96.53.93.53.9.54.89.56.89.58.86.61.85.64.84.64.85.63.8.57.68.52.97.8-17.1-10.3.98-.4 1.27-.78 1.2-.9 1.01-.5.88.08.92.42 1.06.4 1.23.13 1.41-.23 1.58-.63 1.79-1.05 2.01-1.4 2.11-1.52 1.98-1.24 1.68-.6 1.4.1 1.34.37 1.35.01.62-1.19-16.04 29.35-1.45-.64-.31-1.8-.08-1.78-.25-1.44-.43-1.18-.55-1.02-.66-.78-.8-.47-.9-.3-.91-.41-.77-.8-.54-1.29-.32-1.61-.25-1.58-.35-1.23-.55-.87-.69-.9-.66-1.45-.86-1.62-1.63-.88 1-1.76.96.76 1.06.79 1.08.43 1 .23.91.18.86.16.9.14.99.13 1.1.11 1.17.13 1.16.16 1.13.21 1.11.23 1.14.23 1.21.17 1.26.03 1.12-.08.85.57-27.33-4.7-1.27-2.41-1.39-.07-1.17.13-.95-.22-.89-.64-.93-.97-.97-1.18-1-1.27-.99-1.23-.97-1.06-.97-.73-.99-.38-1.04-.18-1.09-.24-1.09-.46-1.05-.6-1.13-.65-1.61-1.06" filter="url(#a)"/><path d="m6.48-78.26 1.89 1.25 1.52.47 1.26.23 1.02.1.84.09.72.22.69.41.71.55.76.59.8.58.84.56.83.63.84.72.97.85 1.17 1.15-5.18-5.58-1.09-.58-.85-.34-.72-.22-.77-.18-.92-.19-1.07-.23-1.13-.26-1.09-.25-.99-.22-.91-.18-.92-.14-1-.1-1.01-.09-.86-.1-.82-.02M-25.3-93.38l2.14 1.03 1.44.75 1.15.26 1.08-.16 1.11-.1 1.15.39 1.17.94 1.17 1.21 1.15 1.03 1.15.6 1.17.19 1.22.06 1.26.19 1.26.46 1.22.62 1.14.68 1.08.69 1.08.86 1.1 1.14 1.08 1.26.85 1.14.24 1.47" filter="url(#a)"/></g><path fill="none" stroke="#000" stroke-linejoin="round" stroke-width="3" d="M-9.54 12.42Q10.24 9.225.35-4.146" filter="url(#a)"/><path fill="#D77F8C" stroke="#000" stroke-linejoin="round" stroke-width="3" d="m16.15 53 .02-.11-.03.26.14.22.04.36.03.6-.01.84-.12.16v.59l-.14.28.21-.38-.13.51-.22.96.06-.44-.1.26-.18.61-.54 1.3.12-.12-.24.28-.24.57-.39.5.32-.55-.75 1.23.01.01-.6.69-.13.13-.77.84.72-.81-.66.74.11-.09-.74.72.2-.18-1.41 1.17.62-.47-.95.74-.64.4.17-.09-1.29.82.84-.54-1.08.66-1.14.59.91-.44-.47.23-.71.32-.83.38-.68.26-.93.33.8-.27-.95.32-1.2.35-.85.2.25-.06-.71.16.31-.07-1.48.27-.88.1.03.01.57-.08-1.51.15-.83.04.09.01.12-.04-1.74.03h.13l-.55-.06-.98-.08-.43-.07.08.03h.21l-1.95-.37.15.03-.31-.08-.07.01-1.04-.28.26.08-.47-.13-1.6-.63 1 .35-1.12-.44.08-.03-.95-.53.11.15-.9-.58.05.08-.82-.75.01-.01-.52-.32.04-.02-.84-.92.62.72-.31-.27-.35-.37-.51-.92.26.38-.49-.58-.1-.11-.34-.87-.02-.13-.05-.01-.2-.44h-.05l-.31-1.01.03-.02-.04-.37-.12-1.17-.01-.13-.03-.71.02.1v.1l.1-1.08.01.1.03-.25.03-.25.52-1.35-.14.34-.05.11.14-.49.37-.73.19-.47.14-.35.69-1.05.27-.36-.46.66.82-1.12.37-.45-.57.65 1.27-1.4-.35.31.45-.44.19-.13h-.05l1.24-1.08-.51.45 1.58-1.21-.45.34-.14.08 1.85-1.2-1.04.64.27-.18 1.57-.89.14-.08.81-.38.62-.28-.27.1.1-.04 1.3-.52.18-.07-.2.08.63-.22 1.29-.39.43-.11.95-.21.05-.01-.41.08.99-.2 1.12-.16.71-.09-.11.01h.02l.87-.08h.12l.76-.01 1.69.01h-.32l.74.06-.36-.05 1.77.23-.48-.11.2.02.5.12.1-.01 1.53.31h-.24l1.11.34-.45-.19 1.91.69-.02.02-.04.02.78.36-.51-.23 1.03.51.09-.01.32.23.8.62-.13-.16.19.17.95.74.22.4.25.29.09.1.34.27-.16-.17.48.58-.13-.18.32.75.34.63-.07-.2.58 1.17-.1.04.22.56" filter="url(#a)"/></svg>