<svg viewBox="-100 -100 200 200" xmlns="http://www.w3.org/2000/svg" width="500" height="500" id="face-svg">
    <defs>
      <clipPath id="leftEyeClipPath">
        <polyline points="36.37,-10.05 35.84,-10.13 35.27,-10.21 34.68,-10.28 34.06,-10.35 33.41,-10.42 32.73,-10.48 32.04,-10.54 31.32,-10.59 30.58,-10.64 29.82,-10.69 29.04,-10.73 28.24,-10.77 27.43,-10.81 26.6,-10.85 25.76,-10.88 24.82,-10.91 23.86,-10.94 22.87,-10.97 21.87,-10.99 20.85,-11.02 19.82,-11.04 18.77,-11.06 17.72,-11.08 16.65,-11.09 15.59,-11.11 14.51,-11.12 13.44,-11.13 12.37,-11.14 11.3,-11.15 10.24,-11.16 9.18,-11.16 8.13,-11.17 7.09,-11.17 6.07,-11.17 5.06,-11.17 4.06,-11.16 3.08,-11.16 2.12,-11.15 1.18,-11.14 0.26,-11.13 -0.64,-11.11 -1.51,-11.1 -2.37,-11.08 -3.19,-11.06 -3.99,-11.03 -4.77,-11 -5.52,-10.97 -6.24,-10.94 -6.94,-10.9 -7.61,-10.86 -8.26,-10.82 -8.88,-10.77 -9.47,-10.72 -10.03,-10.67 -10.57,-10.61 -11.09,-10.55 -11.58,-10.48 -12.05,-10.41 -12.5,-10.34 -12.92,-10.26 -13.33,-10.18 -13.71,-10.09 -14.08,-10 -14.43,-9.91 -14.76,-9.81 -15.08,-9.71 -15.38,-9.6 -15.66,-9.49 -15.94,-9.37 -16.19,-9.25 -16.44,-9.13 -16.67,-9 -16.88,-8.86 -17.09,-8.72 -17.28,-8.58 -17.47,-8.43 -17.64,-8.28 -17.8,-8.12 -17.95,-7.95 -18,-4.85 -17.84,-4.51 -17.68,-4.17 -17.51,-3.82 -17.33,-3.46 -17.13,-3.09 -16.93,-2.71 -16.71,-2.33 -16.48,-1.94 -16.24,-1.54 -15.99,-1.14 -15.72,-0.72 -15.44,-0.31 -15.15,0.12 -14.84,0.54 -14.51,0.98 -14.17,1.42 -13.82,1.87 -13.44,2.32 -13.05,2.78 -12.64,3.25 -12.2,3.71 -11.75,4.18 -11.27,4.65 -10.77,5.12 -10.25,5.59 -9.7,6.06 -9.13,6.52 -8.53,6.98 -7.9,7.43 -7.25,7.87 -6.58,8.29 -5.88,8.71 -5.15,9.11 -4.39,9.5 -3.62,9.87 -2.81,10.22 -1.99,10.55 -1.13,10.85 -0.26,11.13 0.64,11.38 1.56,11.61 2.49,11.8 3.45,11.96 4.43,12.09 5.42,12.18 6.43,12.23 7.45,12.25 8.48,12.23 9.53,12.16 10.58,12.06 11.64,11.91 12.7,11.72 13.77,11.49 14.84,11.21 15.91,10.88 16.97,10.52 18.03,10.11 19.09,9.65 20.13,9.15 21.16,8.61 22.18,8.03 23.18,7.42 24.17,6.76 25.13,6.07 25.99,5.63 26.83,5.18 27.65,4.71 28.46,4.22 29.26,3.72 30.04,3.21 30.79,2.69 31.53,2.16 32.25,1.63 32.94,1.09 33.61,0.55 34.26,0.01 34.88,-0.53 35.46,-1.06 36.02,-1.58" />
      </clipPath>
      <clipPath id="rightEyeClipPath">
        <polyline points="-34.57,-8.6 -33.91,-8.71 -33.22,-8.82 -32.5,-8.92 -31.75,-9.02 -30.98,-9.11 -30.18,-9.19 -29.36,-9.27 -28.53,-9.35 -27.68,-9.42 -26.81,-9.48 -25.93,-9.54 -25.03,-9.6 -24.13,-9.65 -23.22,-9.7 -22.3,-9.75 -21.2,-9.79 -20.08,-9.83 -18.97,-9.87 -17.85,-9.9 -16.73,-9.93 -15.61,-9.96 -14.49,-9.99 -13.38,-10.01 -12.28,-10.04 -11.18,-10.06 -10.1,-10.08 -9.03,-10.09 -7.97,-10.11 -6.93,-10.12 -5.91,-10.13 -4.9,-10.14 -3.92,-10.15 -2.96,-10.15 -2.01,-10.16 -1.09,-10.16 -0.2,-10.16 0.67,-10.15 1.52,-10.15 2.34,-10.14 3.13,-10.13 3.9,-10.12 4.64,-10.1 5.36,-10.08 6.05,-10.06 6.71,-10.04 7.34,-10.01 7.95,-9.98 8.54,-9.94 9.09,-9.91 9.63,-9.87 10.13,-9.82 10.62,-9.77 11.08,-9.72 11.51,-9.67 11.93,-9.61 12.32,-9.54 12.69,-9.48 13.05,-9.41 13.38,-9.33 13.7,-9.25 14,-9.17 14.28,-9.08 14.55,-8.98 14.81,-8.89 15.05,-8.79 15.28,-8.68 15.5,-8.57 15.7,-8.46 15.9,-8.34 16.08,-8.21 16.26,-8.09 16.42,-7.95 16.57,-7.81 16.72,-7.67 16.85,-7.52 16.98,-7.37 17.1,-7.21 17.21,-7.05 17.32,-6.88 16.62,-4.99 16.44,-4.7 16.25,-4.4 16.05,-4.09 15.84,-3.78 15.62,-3.46 15.39,-3.13 15.14,-2.79 14.88,-2.45 14.6,-2.09 14.31,-1.73 14.01,-1.36 13.68,-0.99 13.35,-0.6 12.99,-0.21 12.62,0.18 12.23,0.59 11.83,1 11.4,1.42 10.96,1.85 10.49,2.28 10,2.72 9.49,3.16 8.95,3.6 8.39,4.05 7.8,4.5 7.19,4.95 6.55,5.4 5.88,5.85 5.19,6.29 4.47,6.73 3.72,7.16 2.95,7.58 2.16,7.99 1.33,8.39 0.49,8.77 -0.39,9.14 -1.28,9.49 -2.19,9.82 -3.13,10.13 -4.09,10.41 -5.06,10.67 -6.05,10.91 -7.06,11.11 -8.08,11.28 -9.11,11.42 -10.16,11.52 -11.21,11.59 -12.27,11.62 -13.33,11.61 -14.39,11.55 -15.45,11.46 -16.51,11.33 -17.57,11.15 -18.62,10.93 -19.66,10.66 -20.69,10.35 -21.7,9.99 -22.7,9.59 -23.68,9.14 -24.63,8.65 -25.57,8.12 -26.48,7.54 -27.36,6.93 -28.22,6.28 -29,5.88 -29.76,5.47 -30.51,5.04 -31.24,4.59 -31.94,4.13 -32.62,3.66 -33.28,3.17 -33.92,2.68 -34.53,2.18 -35.11,1.67 -35.66,1.16 -36.18,0.65 -36.67,0.14 -37.13,-0.37 -37.56,-0.87" />
      </clipPath>
      <filter id="fuzzy">
        <feTurbulence id="turbulence" baseFrequency="0.05" numOctaves="3" type="noise" result="noise" />
        <feDisplacementMap in="SourceGraphic" in2="noise" scale="2" />
      </filter>
      <linearGradient id="rainbowGradient" x1="0%" y1="0%" x2="100%" y2="0%">
        <stop offset="0%" style="stop-color: rgb(131, 179, 235); stop-opacity: 1" />
        <stop offset="50%" style="stop-color: rgb(177, 211, 37); stop-opacity: 1" />
        <stop offset="100%" style="stop-color: rgb(19, 202, 246); stop-opacity: 1" />
      </linearGradient>
    </defs>
    <rect x="-100" y="-100" width="100%" height="100%" fill="rgb(188, 166, 242)" />
    <polyline id="faceContour" points="66.62,0.72 66.64,2.14 66.67,1.56 66.69,2.75 66.52,4.97 66.54,6.07 66.28,8.33 66.27,8.68 66.07,10.79 65.77,13.6 66.09,11.21 65.81,14.06 65.47,15.55 65.41,15.12 64.92,18.26 64.53,20.72 64.37,20.88 64.02,23.12 64.12,22.4 63.92,24.24 63.88,23.85 63.3,26.56 62.99,27.09 62.21,29.47 62.04,30.41 62.09,29.73 61.28,31.92 60.79,33.31 60.26,34.92 59.64,36.51 59.6,36.97 59.63,36.4 58.08,39.77 57.78,40.71 57.78,41.34 57.17,41.64 55.5,44.83 54.96,46.2 55.46,45.45 54.34,47.53 53.48,48.26 53.47,48.72 53.25,48.99 52.28,50.57 50.99,52.37 50.37,53.56 49.37,55.06 49.29,55.09 48.37,55.98 48.92,55.14 47.52,57.16 45.47,59.36 46,58.8 44.9,60.08 44.32,60.67 43.2,61.86 42.88,62.36 40.92,64.33 41.36,64.13 40.59,64.41 40.08,64.93 38.64,66.5 37.39,67.1 37.43,67.53 35.94,68.89 33.62,70.3 35.27,69.06 34,69.9 31.57,71.5 31.56,71.83 30.89,72.2 29.73,72.75 27.65,74.05 27.73,74.04 26.63,74.3 24.51,75.42 24,76.06 23.7,75.92 23.06,76.28 21.26,77.02 20.23,77.23 20.38,77.49 19.5,77.65 18.37,78.39 15.42,79.23 15.61,78.92 15.39,79.25 12.99,79.61 13.55,79.67 11.28,80.03 11.98,79.95 10.18,80.37 8.05,80.68 6.49,81.02 6.04,81.05 5.41,80.87 5.16,81.12 2.93,81.41 1.34,81.13 0.76,81.22 -1.41,81.15 -1.6,81.37 -1.59,81.12 -3.39,81.37 -5.53,80.87 -6.76,80.8 -6.73,80.88 -7.38,80.85 -7.32,80.93 -8.59,80.69 -9.33,80.42 -9.71,80.3 -13.79,79.48 -11.91,79.77 -14.46,79.52 -16.35,78.78 -16.65,78.75 -18.64,77.99 -18.97,77.79 -20.04,77.32 -21.16,77.25 -21.39,76.79 -23.42,76.3 -23.4,75.89 -25.48,75.01 -26.47,74.69 -26.01,74.84 -27.34,74.11 -28.71,73.38 -29.81,72.64 -30.37,72.58 -31.83,71.54 -32.26,71.27 -33.32,70.83 -33.31,70.34 -35.47,69.15 -35.81,68.53 -35.74,68.26 -37.15,67.66 -38.11,66.48 -40.06,64.69 -39.98,64.81 -40.54,64.43 -41.78,63.35 -42.96,62.06 -43.27,62.02 -43.74,61.54 -44.26,60.75 -44.38,60.22 -46.22,58.28 -47.42,57.12 -47.23,57.55 -47.96,56.45 -49.22,54.3 -50.61,53.12 -50.5,53.06 -51.83,51.44 -52.15,50.79 -53.72,47.79 -53.5,48.65 -53.52,48.27 -53.75,47.76 -55.14,45.27 -55.53,44.95 -55.77,44.13 -57.32,41.45 -56.78,42.78 -57.76,40.99 -58.21,39.2 -58.92,38.16 -59.61,36.35 -59.74,35.89 -60.05,34.81 -60.92,32.66 -61.22,31.25 -61.84,30.17 -62,30.02 -62.08,29.84 -62.92,26.42 -62.82,27.14 -63.39,25.68 -64.12,22.08 -64.04,22.25 -64.49,20.59 -64.77,19.64 -64.84,18.78 -65.37,16.76 -65.12,17.82 -65.56,14.66 -65.79,14.04 -65.68,13.51 -66.09,11.75 -66.14,10.24 -66.01,10.34 -66.28,7.18 -66.29,6.78 -66.58,5.58 -66.55,4.53 -66.6,2.22 -66.61,1.06 -66.58,0.06 -66.62,-0.41 -66.54,-1.24 -66.43,-5.34 -66.42,-4.98 -66.39,-7.22 -66.18,-8.35 -66.3,-7.66 -66.09,-10.99 -65.94,-10.83 -65.62,-13.99 -65.47,-14.08 -65.44,-15.26 -65.6,-14.8 -65.33,-16.52 -64.78,-19.34 -64.74,-19.43 -63.93,-22.41 -63.59,-23.7 -63.33,-25.32 -63,-25.99 -62.94,-26.91 -63.2,-25.97 -62.13,-28.96 -61.62,-30.14 -61.75,-30.78 -61.39,-31.64 -60.94,-32.84 -60.57,-34.19 -59.58,-36.08 -59.21,-37.42 -58.37,-38.56 -58.34,-38.71 -56.95,-42.01 -57.36,-41.27 -57.04,-41.67 -56.44,-42.94 -56.29,-43.5 -54.44,-46.76 -55.48,-44.96 -53.27,-48.83 -53.31,-48.76 -52.24,-50.4 -52.01,-50.9 -51.07,-52.25 -50.42,-53.53 -50.49,-52.89 -48.49,-55 -48.78,-55.85 -48.6,-55.53 -47.99,-56.42 -46.37,-58.81 -45.39,-60.02 -44.67,-60.05 -44.41,-60.58 -43.18,-61.73 -43.17,-61.77 -40.89,-63.93 -41.07,-64.08 -40.61,-64.1 -39.59,-65.67 -37.46,-67.34 -36.37,-68.21 -35.99,-67.85 -36.52,-67.86 -34.77,-69.34 -33.42,-70.5 -32.41,-70.73 -31.05,-71.78 -30.94,-71.84 -30.8,-71.81 -30.2,-72.55 -29.07,-73.03 -27.88,-73.75 -26.2,-74.91 -25.01,-75.17 -23.59,-76 -22.8,-76.42 -23.1,-76.46 -22,-76.92 -21.17,-77 -18.3,-78.05 -17.42,-78.58 -17.18,-78.54 -15.88,-78.83 -15.56,-78.94 -14.27,-79.53 -13.25,-79.32 -13.08,-79.72 -10.24,-80.36 -10.23,-80.09 -9.6,-80.21 -9.7,-80.47 -8.25,-80.76 -6.12,-80.67 -5.41,-81.04 -3.46,-81.23 -3.4,-81.06 -3,-81.22 -2.26,-81.16 0.83,-81.38 0.25,-81.3 2.99,-81.14 1.7,-81.36 2.55,-81.32 4.39,-80.9 5.61,-80.97 7.18,-80.68 7.34,-80.7 8.17,-80.56 10.02,-80.24 10.74,-80.04 13.45,-79.49 14.88,-79.15 15.18,-79.07 15.24,-79.02 15.79,-78.68 18.29,-78.22 18.29,-78.13 18.76,-78.03 20.82,-77.15 21.27,-77.01 23.21,-76.02 24.12,-75.76 25.66,-75.18 25.56,-75.16 25.26,-75 27.05,-74.23 28.21,-73.63 29.96,-72.63 30.47,-72.41 31.54,-71.72 32.02,-71.51 32.7,-70.85 33.07,-70.47 35.34,-68.56 35.12,-69.05 36.97,-67.62 37.4,-66.98 38.03,-66.78 39.56,-65.3 40.58,-64.89 40.04,-64.42 41.27,-63.94 41.97,-63.06 42.61,-62.43 43.54,-61.24 44.2,-60.87 45.96,-58.88 46.42,-58.18 46.95,-57.13 46.88,-57.58 49.27,-54.83 48.2,-56.22 49.8,-53.87 50.8,-52.66 51.69,-51.65 51.13,-52.1 51.75,-51.08 54.13,-47.96 53.45,-48.3 55.44,-45.29 55.59,-45.4 56.27,-43.53 56.62,-42.79 57.23,-41.6 56.93,-42.01 57.38,-41.49 57.67,-40.84 59.24,-37.61 59.69,-36.25 59.86,-35.69 60.05,-35.38 60.29,-34.47 61.67,-30.73 60.85,-33.02 62,-29.69 62.64,-27.76 63.1,-26.29 62.87,-27.22 63.49,-24.56 64.38,-21.96 64.27,-21.16 64.03,-22.04 64.49,-20.82 64.92,-18.55 64.72,-19.35 65.44,-15.5 65.38,-15.45 65.77,-13.98 65.59,-14.49 66.28,-10.42 66.26,-9.52 66.29,-9.44 66.39,-8.59 66.58,-7.01 66.72,-4.12 66.52,-4.42 66.68,-2.92 66.7,-2.23 66.62,0.72 66.64,2.14" fill="rgb(169, 223, 32)" stroke="black" stroke-width="1.6666666666666665" stroke-linejoin="round" filter="url(#fuzzy)" />
    <g transform="translate(26.310000000000002 -20.490000000000002)">
      <polyline id="rightCountour" points="-34.57,-8.6 -33.91,-8.71 -33.22,-8.82 -32.5,-8.92 -31.75,-9.02 -30.98,-9.11 -30.18,-9.19 -29.36,-9.27 -28.53,-9.35 -27.68,-9.42 -26.81,-9.48 -25.93,-9.54 -25.03,-9.6 -24.13,-9.65 -23.22,-9.7 -22.3,-9.75 -21.2,-9.79 -20.08,-9.83 -18.97,-9.87 -17.85,-9.9 -16.73,-9.93 -15.61,-9.96 -14.49,-9.99 -13.38,-10.01 -12.28,-10.04 -11.18,-10.06 -10.1,-10.08 -9.03,-10.09 -7.97,-10.11 -6.93,-10.12 -5.91,-10.13 -4.9,-10.14 -3.92,-10.15 -2.96,-10.15 -2.01,-10.16 -1.09,-10.16 -0.2,-10.16 0.67,-10.15 1.52,-10.15 2.34,-10.14 3.13,-10.13 3.9,-10.12 4.64,-10.1 5.36,-10.08 6.05,-10.06 6.71,-10.04 7.34,-10.01 7.95,-9.98 8.54,-9.94 9.09,-9.91 9.63,-9.87 10.13,-9.82 10.62,-9.77 11.08,-9.72 11.51,-9.67 11.93,-9.61 12.32,-9.54 12.69,-9.48 13.05,-9.41 13.38,-9.33 13.7,-9.25 14,-9.17 14.28,-9.08 14.55,-8.98 14.81,-8.89 15.05,-8.79 15.28,-8.68 15.5,-8.57 15.7,-8.46 15.9,-8.34 16.08,-8.21 16.26,-8.09 16.42,-7.95 16.57,-7.81 16.72,-7.67 16.85,-7.52 16.98,-7.37 17.1,-7.21 17.21,-7.05 17.32,-6.88 16.62,-4.99 16.44,-4.7 16.25,-4.4 16.05,-4.09 15.84,-3.78 15.62,-3.46 15.39,-3.13 15.14,-2.79 14.88,-2.45 14.6,-2.09 14.31,-1.73 14.01,-1.36 13.68,-0.99 13.35,-0.6 12.99,-0.21 12.62,0.18 12.23,0.59 11.83,1 11.4,1.42 10.96,1.85 10.49,2.28 10,2.72 9.49,3.16 8.95,3.6 8.39,4.05 7.8,4.5 7.19,4.95 6.55,5.4 5.88,5.85 5.19,6.29 4.47,6.73 3.72,7.16 2.95,7.58 2.16,7.99 1.33,8.39 0.49,8.77 -0.39,9.14 -1.28,9.49 -2.19,9.82 -3.13,10.13 -4.09,10.41 -5.06,10.67 -6.05,10.91 -7.06,11.11 -8.08,11.28 -9.11,11.42 -10.16,11.52 -11.21,11.59 -12.27,11.62 -13.33,11.61 -14.39,11.55 -15.45,11.46 -16.51,11.33 -17.57,11.15 -18.62,10.93 -19.66,10.66 -20.69,10.35 -21.7,9.99 -22.7,9.59 -23.68,9.14 -24.63,8.65 -25.57,8.12 -26.48,7.54 -27.36,6.93 -28.22,6.28 -29,5.88 -29.76,5.47 -30.51,5.04 -31.24,4.59 -31.94,4.13 -32.62,3.66 -33.28,3.17 -33.92,2.68 -34.53,2.18 -35.11,1.67 -35.66,1.16 -36.18,0.65 -36.67,0.14 -37.13,-0.37 -37.56,-0.87" fill="white" stroke="white" stroke-width="0" stroke-linejoin="round" filter="url(#fuzzy)" />
    </g>
    <g transform="translate(-26.010000000000005 -22.73)">
      <polyline id="leftCountour" points="36.37,-10.05 35.84,-10.13 35.27,-10.21 34.68,-10.28 34.06,-10.35 33.41,-10.42 32.73,-10.48 32.04,-10.54 31.32,-10.59 30.58,-10.64 29.82,-10.69 29.04,-10.73 28.24,-10.77 27.43,-10.81 26.6,-10.85 25.76,-10.88 24.82,-10.91 23.86,-10.94 22.87,-10.97 21.87,-10.99 20.85,-11.02 19.82,-11.04 18.77,-11.06 17.72,-11.08 16.65,-11.09 15.59,-11.11 14.51,-11.12 13.44,-11.13 12.37,-11.14 11.3,-11.15 10.24,-11.16 9.18,-11.16 8.13,-11.17 7.09,-11.17 6.07,-11.17 5.06,-11.17 4.06,-11.16 3.08,-11.16 2.12,-11.15 1.18,-11.14 0.26,-11.13 -0.64,-11.11 -1.51,-11.1 -2.37,-11.08 -3.19,-11.06 -3.99,-11.03 -4.77,-11 -5.52,-10.97 -6.24,-10.94 -6.94,-10.9 -7.61,-10.86 -8.26,-10.82 -8.88,-10.77 -9.47,-10.72 -10.03,-10.67 -10.57,-10.61 -11.09,-10.55 -11.58,-10.48 -12.05,-10.41 -12.5,-10.34 -12.92,-10.26 -13.33,-10.18 -13.71,-10.09 -14.08,-10 -14.43,-9.91 -14.76,-9.81 -15.08,-9.71 -15.38,-9.6 -15.66,-9.49 -15.94,-9.37 -16.19,-9.25 -16.44,-9.13 -16.67,-9 -16.88,-8.86 -17.09,-8.72 -17.28,-8.58 -17.47,-8.43 -17.64,-8.28 -17.8,-8.12 -17.95,-7.95 -18,-4.85 -17.84,-4.51 -17.68,-4.17 -17.51,-3.82 -17.33,-3.46 -17.13,-3.09 -16.93,-2.71 -16.71,-2.33 -16.48,-1.94 -16.24,-1.54 -15.99,-1.14 -15.72,-0.72 -15.44,-0.31 -15.15,0.12 -14.84,0.54 -14.51,0.98 -14.17,1.42 -13.82,1.87 -13.44,2.32 -13.05,2.78 -12.64,3.25 -12.2,3.71 -11.75,4.18 -11.27,4.65 -10.77,5.12 -10.25,5.59 -9.7,6.06 -9.13,6.52 -8.53,6.98 -7.9,7.43 -7.25,7.87 -6.58,8.29 -5.88,8.71 -5.15,9.11 -4.39,9.5 -3.62,9.87 -2.81,10.22 -1.99,10.55 -1.13,10.85 -0.26,11.13 0.64,11.38 1.56,11.61 2.49,11.8 3.45,11.96 4.43,12.09 5.42,12.18 6.43,12.23 7.45,12.25 8.48,12.23 9.53,12.16 10.58,12.06 11.64,11.91 12.7,11.72 13.77,11.49 14.84,11.21 15.91,10.88 16.97,10.52 18.03,10.11 19.09,9.65 20.13,9.15 21.16,8.61 22.18,8.03 23.18,7.42 24.17,6.76 25.13,6.07 25.99,5.63 26.83,5.18 27.65,4.71 28.46,4.22 29.26,3.72 30.04,3.21 30.79,2.69 31.53,2.16 32.25,1.63 32.94,1.09 33.61,0.55 34.26,0.01 34.88,-0.53 35.46,-1.06 36.02,-1.58" fill="white" stroke="white" stroke-width="0" stroke-linejoin="round" filter="url(#fuzzy)" />
    </g>
    <g transform="translate(26.310000000000002 -20.490000000000002)">
      <polyline id="rightUpper" points="-38.91,-7 -38.7,-7.2 -38.43,-7.39 -38.11,-7.58 -37.74,-7.75 -37.32,-7.91 -36.85,-8.06 -36.34,-8.21 -35.79,-8.35 -35.2,-8.48 -34.57,-8.6 -33.91,-8.71 -33.22,-8.82 -32.5,-8.92 -31.75,-9.02 -30.98,-9.11 -30.18,-9.19 -29.36,-9.27 -28.53,-9.35 -27.68,-9.42 -26.81,-9.48 -25.93,-9.54 -25.03,-9.6 -24.13,-9.65 -23.22,-9.7 -22.3,-9.75 -21.2,-9.79 -20.08,-9.83 -18.97,-9.87 -17.85,-9.9 -16.73,-9.93 -15.61,-9.96 -14.49,-9.99 -13.38,-10.01 -12.28,-10.04 -11.18,-10.06 -10.1,-10.08 -9.03,-10.09 -7.97,-10.11 -6.93,-10.12 -5.91,-10.13 -4.9,-10.14 -3.92,-10.15 -2.96,-10.15 -2.01,-10.16 -1.09,-10.16 -0.2,-10.16 0.67,-10.15 1.52,-10.15 2.34,-10.14 3.13,-10.13 3.9,-10.12 4.64,-10.1 5.36,-10.08 6.05,-10.06 6.71,-10.04 7.34,-10.01 7.95,-9.98 8.54,-9.94 9.09,-9.91 9.63,-9.87 10.13,-9.82 10.62,-9.77 11.08,-9.72 11.51,-9.67 11.93,-9.61 12.32,-9.54 12.69,-9.48 13.05,-9.41 13.38,-9.33 13.7,-9.25 14,-9.17 14.28,-9.08 14.55,-8.98 14.81,-8.89 15.05,-8.79 15.28,-8.68 15.5,-8.57 15.7,-8.46 15.9,-8.34 16.08,-8.21 16.26,-8.09 16.42,-7.95 16.57,-7.81 16.72,-7.67 16.85,-7.52 16.98,-7.37 17.1,-7.21 17.21,-7.05 17.32,-6.88 17.42,-6.7 17.51,-6.53 17.6,-6.34 17.67,-6.16 17.75,-5.96 17.82,-5.77 17.88,-5.57 17.94,-5.36 18,-5.15 18.04,-4.94" fill="none" stroke="black" stroke-width="1.6666666666666665" stroke-linejoin="round" filter="url(#fuzzy)" />
      <polyline id="rightLower" points="-39.74,-4.78 -39.71,-4.54 -39.63,-4.25 -39.52,-3.92 -39.35,-3.55 -39.15,-3.16 -38.91,-2.74 -38.63,-2.3 -38.31,-1.84 -37.95,-1.36 -37.56,-0.87 -37.13,-0.37 -36.67,0.14 -36.18,0.65 -35.66,1.16 -35.11,1.67 -34.53,2.18 -33.92,2.68 -33.28,3.17 -32.62,3.66 -31.94,4.13 -31.24,4.59 -30.51,5.04 -29.76,5.47 -29,5.88 -28.22,6.28 -27.36,6.93 -26.48,7.54 -25.57,8.12 -24.63,8.65 -23.68,9.14 -22.7,9.59 -21.7,9.99 -20.69,10.35 -19.66,10.66 -18.62,10.93 -17.57,11.15 -16.51,11.33 -15.45,11.46 -14.39,11.55 -13.33,11.61 -12.27,11.62 -11.21,11.59 -10.16,11.52 -9.11,11.42 -8.08,11.28 -7.06,11.11 -6.05,10.91 -5.06,10.67 -4.09,10.41 -3.13,10.13 -2.19,9.82 -1.28,9.49 -0.39,9.14 0.49,8.77 1.33,8.39 2.16,7.99 2.95,7.58 3.72,7.16 4.47,6.73 5.19,6.29 5.88,5.85 6.55,5.4 7.19,4.95 7.8,4.5 8.39,4.05 8.95,3.6 9.49,3.16 10,2.72 10.49,2.28 10.96,1.85 11.4,1.42 11.83,1 12.23,0.59 12.62,0.18 12.99,-0.21 13.35,-0.6 13.68,-0.99 14.01,-1.36 14.31,-1.73 14.6,-2.09 14.88,-2.45 15.14,-2.79 15.39,-3.13 15.62,-3.46 15.84,-3.78 16.05,-4.09 16.25,-4.4 16.44,-4.7 16.62,-4.99 16.78,-5.27 16.94,-5.54 17.09,-5.8 17.23,-6.06 17.36,-6.31 17.48,-6.55 17.6,-6.79 17.71,-7.01 17.81,-7.23 17.9,-7.45" fill="none" stroke="black" stroke-width="2.2222222222222223" stroke-linejoin="round" filter="url(#fuzzy)" />
      <circle r="4.356" cx="-1.7901946614786817" cy="-1.3373839659948907" stroke="black" fill="none" stroke-width="1.0" filter="url(#fuzzy)" clip-path="url(#rightEyeClipPath)" /><circle r="3.42" cx="0.5648053385213179" cy="-3.4223839659948907" stroke="black" fill="none" stroke-width="1.0" filter="url(#fuzzy)" clip-path="url(#rightEyeClipPath)" /><circle r="3.71" cx="1.1748053385213182" cy="-2.4373839659948904" stroke="black" fill="none" stroke-width="1.0" filter="url(#fuzzy)" clip-path="url(#rightEyeClipPath)" /><circle r="4.808" cx="2.6098053385213174" cy="-4.067383965994891" stroke="black" fill="none" stroke-width="1.0" filter="url(#fuzzy)" clip-path="url(#rightEyeClipPath)" /><circle r="3.542" cx="2.614805338521318" cy="-4.692383965994891" stroke="black" fill="none" stroke-width="1.0" filter="url(#fuzzy)" clip-path="url(#rightEyeClipPath)" /><circle r="4.578" cx="0.494805338521318" cy="-2.4923839659948905" stroke="black" fill="none" stroke-width="1.0" filter="url(#fuzzy)" clip-path="url(#rightEyeClipPath)" /><circle r="3.7199999999999998" cx="2.324805338521319" cy="-4.46238396599489" stroke="black" fill="none" stroke-width="1.0" filter="url(#fuzzy)" clip-path="url(#rightEyeClipPath)" /><circle r="3.338" cx="-1.0601946614786817" cy="-5.512383965994891" stroke="black" fill="none" stroke-width="1.0" filter="url(#fuzzy)" clip-path="url(#rightEyeClipPath)" /><circle r="4.598" cx="-1.2051946614786817" cy="-6.1173839659948905" stroke="black" fill="none" stroke-width="1.0" filter="url(#fuzzy)" clip-path="url(#rightEyeClipPath)" /><circle r="4.0920000000000005" cx="1.5448053385213179" cy="-5.562383965994891" stroke="black" fill="none" stroke-width="1.0" filter="url(#fuzzy)" clip-path="url(#rightEyeClipPath)" />
      </g>
    <g transform="translate(-26.010000000000005 -22.73)">
      <polyline id="leftUpper" points="39.75,-8.9 39.59,-9.05 39.39,-9.18 39.15,-9.31 38.87,-9.44 38.54,-9.55 38.18,-9.66 37.78,-9.77 37.35,-9.87 36.88,-9.96 36.37,-10.05 35.84,-10.13 35.27,-10.21 34.68,-10.28 34.06,-10.35 33.41,-10.42 32.73,-10.48 32.04,-10.54 31.32,-10.59 30.58,-10.64 29.82,-10.69 29.04,-10.73 28.24,-10.77 27.43,-10.81 26.6,-10.85 25.76,-10.88 24.82,-10.91 23.86,-10.94 22.87,-10.97 21.87,-10.99 20.85,-11.02 19.82,-11.04 18.77,-11.06 17.72,-11.08 16.65,-11.09 15.59,-11.11 14.51,-11.12 13.44,-11.13 12.37,-11.14 11.3,-11.15 10.24,-11.16 9.18,-11.16 8.13,-11.17 7.09,-11.17 6.07,-11.17 5.06,-11.17 4.06,-11.16 3.08,-11.16 2.12,-11.15 1.18,-11.14 0.26,-11.13 -0.64,-11.11 -1.51,-11.1 -2.37,-11.08 -3.19,-11.06 -3.99,-11.03 -4.77,-11 -5.52,-10.97 -6.24,-10.94 -6.94,-10.9 -7.61,-10.86 -8.26,-10.82 -8.88,-10.77 -9.47,-10.72 -10.03,-10.67 -10.57,-10.61 -11.09,-10.55 -11.58,-10.48 -12.05,-10.41 -12.5,-10.34 -12.92,-10.26 -13.33,-10.18 -13.71,-10.09 -14.08,-10 -14.43,-9.91 -14.76,-9.81 -15.08,-9.71 -15.38,-9.6 -15.66,-9.49 -15.94,-9.37 -16.19,-9.25 -16.44,-9.13 -16.67,-9 -16.88,-8.86 -17.09,-8.72 -17.28,-8.58 -17.47,-8.43 -17.64,-8.28 -17.8,-8.12 -17.95,-7.95 -18.09,-7.79 -18.23,-7.61 -18.35,-7.44 -18.47,-7.25 -18.58,-7.07 -18.68,-6.88 -18.78,-6.68 -18.87,-6.48 -18.95,-6.28 -19.02,-6.07" fill="none" stroke="black" stroke-width="2.2222222222222223" stroke-linejoin="round" filter="url(#fuzzy)" />
      <polyline id="leftLower" points="39.62,-5.65 39.44,-5.4 39.23,-5.1 38.96,-4.75 38.66,-4.38 38.31,-3.97 37.93,-3.53 37.5,-3.07 37.04,-2.59 36.55,-2.1 36.02,-1.58 35.46,-1.06 34.88,-0.53 34.26,0.01 33.61,0.55 32.94,1.09 32.25,1.63 31.53,2.16 30.79,2.69 30.04,3.21 29.26,3.72 28.46,4.22 27.65,4.71 26.83,5.18 25.99,5.63 25.13,6.07 24.17,6.76 23.18,7.42 22.18,8.03 21.16,8.61 20.13,9.15 19.09,9.65 18.03,10.11 16.97,10.52 15.91,10.88 14.84,11.21 13.77,11.49 12.7,11.72 11.64,11.91 10.58,12.06 9.53,12.16 8.48,12.23 7.45,12.25 6.43,12.23 5.42,12.18 4.43,12.09 3.45,11.96 2.49,11.8 1.56,11.61 0.64,11.38 -0.26,11.13 -1.13,10.85 -1.99,10.55 -2.81,10.22 -3.62,9.87 -4.39,9.5 -5.15,9.11 -5.88,8.71 -6.58,8.29 -7.25,7.87 -7.9,7.43 -8.53,6.98 -9.13,6.52 -9.7,6.06 -10.25,5.59 -10.77,5.12 -11.27,4.65 -11.75,4.18 -12.2,3.71 -12.64,3.25 -13.05,2.78 -13.44,2.32 -13.82,1.87 -14.17,1.42 -14.51,0.98 -14.84,0.54 -15.15,0.12 -15.44,-0.31 -15.72,-0.72 -15.99,-1.14 -16.24,-1.54 -16.48,-1.94 -16.71,-2.33 -16.93,-2.71 -17.13,-3.09 -17.33,-3.46 -17.51,-3.82 -17.68,-4.17 -17.84,-4.51 -18,-4.85 -18.14,-5.18 -18.28,-5.5 -18.41,-5.81 -18.53,-6.11 -18.64,-6.4 -18.75,-6.69 -18.85,-6.97 -18.94,-7.24 -19.03,-7.5 -19.11,-7.76" fill="none" stroke="black" stroke-width="2.2222222222222223" stroke-linejoin="round" filter="url(#fuzzy)" />
      <circle r="4.224" cx="-10.118156251557535" cy="-3.7192700150294042" stroke="black" fill="none" stroke-width="1.0" filter="url(#fuzzy)" clip-path="url(#leftEyeClipPath)" /><circle r="3.856" cx="-12.203156251557534" cy="-7.194270015029405" stroke="black" fill="none" stroke-width="1.0" filter="url(#fuzzy)" clip-path="url(#leftEyeClipPath)" /><circle r="3.322" cx="-11.378156251557535" cy="-8.439270015029404" stroke="black" fill="none" stroke-width="1.0" filter="url(#fuzzy)" clip-path="url(#leftEyeClipPath)" /><circle r="4.046" cx="-11.288156251557535" cy="-7.264270015029404" stroke="black" fill="none" stroke-width="1.0" filter="url(#fuzzy)" clip-path="url(#leftEyeClipPath)" /><circle r="4.46" cx="-9.458156251557535" cy="-6.519270015029404" stroke="black" fill="none" stroke-width="1.0" filter="url(#fuzzy)" clip-path="url(#leftEyeClipPath)" /><circle r="4.448" cx="-10.493156251557535" cy="-8.284270015029405" stroke="black" fill="none" stroke-width="1.0" filter="url(#fuzzy)" clip-path="url(#leftEyeClipPath)" /><circle r="3.734" cx="-9.353156251557534" cy="-7.444270015029405" stroke="black" fill="none" stroke-width="1.0" filter="url(#fuzzy)" clip-path="url(#leftEyeClipPath)" /><circle r="4.62" cx="-9.353156251557534" cy="-8.584270015029404" stroke="black" fill="none" stroke-width="1.0" filter="url(#fuzzy)" clip-path="url(#leftEyeClipPath)" /><circle r="4.364" cx="-9.948156251557535" cy="-4.409270015029405" stroke="black" fill="none" stroke-width="1.0" filter="url(#fuzzy)" clip-path="url(#leftEyeClipPath)" /><circle r="4.048" cx="-10.588156251557535" cy="-3.9492700150294047" stroke="black" fill="none" stroke-width="1.0" filter="url(#fuzzy)" clip-path="url(#leftEyeClipPath)" />
    </g>
    <g id="hairs">
      <polyline points="-36.52,-67.86 -25.45,-65.77 -10.37,-68.91 -3.29,-70.27 -2.34,-68.72 -4.36,-65.87 -5.41,-63.46 -2.98,-62.26 2.24,-62.35 7.18,-63.62 9.06,-65.75 7.55,-68.04 4.81,-69.52 3.73,-69.49 5.81,-68.11 10.42,-66.35 16.07,-65.07 21.92,-64.01 26.09,-62.99 18.62,-65.54 -22,-76.92" fill="none" stroke="rgb(19, 101, 134)" stroke-width="2" stroke-linejoin="round" filter="url(#fuzzy)" /><polyline points="-8.25,-80.76 -9.31,-67.55 8.04,-63.13 15.07,-64.04 15.66,-66.35 17.07,-66.43 20.41,-63.31 22.68,-58.83 21.43,-55.97 17.03,-56.79 11.46,-61.21 6.07,-67.04 1.14,-71.31 -2.9,-72.05 -8.42,-69.48 -40.89,-63.93" fill="none" stroke="rgb(19, 101, 134)" stroke-width="2" stroke-linejoin="round" filter="url(#fuzzy)" /><polyline points="0.83,-81.38 20.06,-58.55 13.14,-62.5 7.35,-68.15 2.7,-71.54 -1.23,-73.47 -3.16,-74.77 -2.65,-75.66 -0.73,-76.04 1.05,-75.81 1.76,-75 1.61,-73.75 1.86,-72.16 4.05,-70.31 8.97,-68.33 15.96,-66.53 23.04,-65.35 27.95,-65.22 29.05,-66.7 26.21,-70.31 22.16,-75 18.76,-78.03" fill="none" stroke="rgb(19, 101, 134)" stroke-width="2" stroke-linejoin="round" filter="url(#fuzzy)" /><polyline points="7.18,-80.68 -4.49,-78.7 -5.66,-78.18 -8.44,-76.83 -12.73,-74.41 -16.24,-71.57 -17,-69.01 -14.47,-67.11 -10.12,-65.96 -6.6,-65.5 -6.2,-65.63 -9.44,-66.11 -15.17,-66.46 -21.38,-66.16 -25.9,-65.22 -26.48,-64.56 -21.89,-65.49 -14.82,-68.46 -11.83,-72.93 -2.26,-81.16" fill="none" stroke="rgb(19, 101, 134)" stroke-width="2" stroke-linejoin="round" filter="url(#fuzzy)" /><polyline points="25.26,-75 5.39,-62.63 16.39,-56.73 19.21,-54.6 10.85,-55.34 -1.54,-58.18 -10.8,-61.62 -13.12,-64.09 -8.26,-64.68 1.4,-63.38 12.25,-60.98 20.97,-58.62 25.86,-57.27 27.17,-57.34 26.38,-58.69 24.88,-60.76 22.99,-62.82 20.19,-64.19 16.33,-64.55 12.22,-64.51 8.21,-65.86 1.66,-70.18 -11.77,-75.11 -30.2,-72.55" fill="none" stroke="rgb(19, 101, 134)" stroke-width="2" stroke-linejoin="round" filter="url(#fuzzy)" /><polyline points="-13.08,-79.72 21.76,-68.31 29.87,-67.52 31.35,-67.07 31,-65.67 29.75,-63.94 28.25,-62.39 26.69,-61.3 24.35,-60.99 20.33,-61.81 14.69,-63.72 8.8,-66.07 4.6,-67.69 3.56,-67.33 6.37,-64.41 13.07,-59.46 22.21,-54.26 29.15,-51.37 27.34,-52.9 19.78,-58.06 48.2,-56.22" fill="none" stroke="rgb(19, 101, 134)" stroke-width="2" stroke-linejoin="round" filter="url(#fuzzy)" /><polyline points="63.49,-24.56 12.72,-56.84 -5.49,-67.79 -6.79,-71.65 -2.45,-71.26 2.41,-68.67 6.43,-66.11 10.01,-64.81 13.82,-64.7 18.1,-64.96 22.51,-64.97 26.16,-64.68 27.93,-64.5 26.95,-64.85 23.01,-65.75 16.9,-66.74 10.24,-67.29 4.92,-67.11 2.28,-66.29 2.22,-65.01 3.13,-62.96 2.59,-59.56 -1.85,-56.04 -11.51,-59.38 -3.46,-81.23" fill="none" stroke="rgb(19, 101, 134)" stroke-width="2" stroke-linejoin="round" filter="url(#fuzzy)" /><polyline points="7.18,-80.68 25.59,-70.73 25.34,-64.9 13.56,-62.07 -0.22,-62.15 -8.52,-63.55 -8.9,-64.51 -2.72,-64.03 7.13,-62.1 17.7,-59.44 26.53,-57.04 31.88,-55.64 32.95,-55.46 30.17,-56.15 25.25,-56.98 20.74,-57.1 18.71,-56 19.13,-54.05 19.57,-52.7 17.22,-53.8 10.49,-58.43 -5.46,-65.71 -39.59,-65.67" fill="none" stroke="rgb(19, 101, 134)" stroke-width="2" stroke-linejoin="round" filter="url(#fuzzy)" /><polyline points="-37.46,-67.34 -23.03,-61.21 -13.05,-60.18 -15.69,-61.74 -19.54,-63.98 -19.47,-66.29 -16.66,-68.36 -13.8,-69.96 -12.24,-70.96 -11.67,-71.37 -10.95,-71.2 -9.15,-70.55 -6.18,-69.59 -2.94,-68.61 -0.93,-67.82 -1.53,-67.25 -5.19,-66.7 -10.89,-65.92 -16.3,-64.94 -18.67,-64.18 -16.24,-64.16 -9.45,-65.11 0.33,-66.79 16.4,-67.78 44.2,-60.87" fill="none" stroke="rgb(19, 101, 134)" stroke-width="2" stroke-linejoin="round" filter="url(#fuzzy)" /><polyline points="-40.89,-63.93 -20.04,-58.35 3.11,-59.3 13.96,-63.59 17.46,-66.89 17.77,-68.53 16.56,-69.15 13.81,-69.3 9.29,-69.29 3.77,-69.39 -1.01,-69.88 -3.54,-70.82 -3.72,-71.92 -2.65,-72.6 -1.38,-72.24 -0.08,-70.64 0.91,-68.35 -0.53,-66.82 -5.91,-68.04 -6.89,-73.07 18.29,-78.22" fill="none" stroke="rgb(19, 101, 134)" stroke-width="2" stroke-linejoin="round" filter="url(#fuzzy)" /><polyline points="23.21,-76.02 34.14,-66.57 31.16,-66.36 27.39,-66.86 24.52,-67.49 21.87,-68.31 19.12,-68.99 15.85,-69.53 11.28,-70.2 4.98,-71.03 -2.3,-71.71 -8.64,-71.93 -11.72,-71.74 -10.04,-71.55 -3.88,-71.6 4.51,-71.7 11.78,-71.41 15.11,-70.83 14.33,-70.83 11.7,-72.71 -6.12,-80.67" fill="none" stroke="rgb(19, 101, 134)" stroke-width="2" stroke-linejoin="round" filter="url(#fuzzy)" /><polyline points="-48.6,-55.53 -26.17,-67.28 -10.92,-72.78 -8.13,-73.94 -9.71,-72.97 -8.36,-71.15 -1.94,-68.79 7.49,-66.14 16.54,-63.77 22.87,-62.38 26.11,-62.23 27.4,-63.01 28.12,-64.07 28.9,-64.87 29.35,-65.26 28.54,-65.42 25.89,-65.57 21.64,-65.6 16.63,-65.06 11.35,-63.47 5.44,-60.76 -0.76,-57.33 -3.78,-53.51 -3.91,-50.78 -45.39,-60.02" fill="none" stroke="rgb(19, 101, 134)" stroke-width="2" stroke-linejoin="round" filter="url(#fuzzy)" /><polyline points="23.21,-76.02 7.33,-67.38 6.76,-64.23 2.02,-67.02 -2.89,-70.65 -4.73,-72.88 -3.29,-73.54 -0.15,-73.07 2.68,-71.87 3.87,-70.08 3.5,-67.73 2.83,-64.92 3.32,-62.13 5.46,-60.17 8.25,-59.87 9.95,-61.59 9.56,-64.9 8,-68.61 7.56,-71.29 9.74,-71.96 12.76,-70.53 10.88,-67.86 -2.76,-64.97 -28.41,-61.78 -45.39,-60.02" fill="none" stroke="rgb(19, 101, 134)" stroke-width="2" stroke-linejoin="round" filter="url(#fuzzy)" /><polyline points="-46.37,-58.81 -42.08,-56.93 -24.23,-61.06 -6.38,-64.74 7.74,-66.46 18.37,-66.43 25.45,-65.69 28.35,-65.57 26.94,-66.89 22.04,-69.53 15.19,-72.47 7.83,-74.52 1.05,-74.96 -4.04,-73.84 -5.73,-71.82 -1.84,-69.86 8.68,-68.77 22.74,-68.77 31.91,-69.77 29.96,-72.63" fill="none" stroke="rgb(19, 101, 134)" stroke-width="2" stroke-linejoin="round" filter="url(#fuzzy)" /><polyline points="31.54,-71.72 11.7,-58.14 24.72,-48.36 29.75,-45.29 24.53,-45.86 15.13,-48.33 6.36,-51.92 0.57,-55.78 -1.62,-59.02 -0.81,-61.31 1.64,-62.97 3.99,-64.52 4.76,-66.11 3.14,-67.43 -0.75,-68.05 -5.97,-67.88 -10.73,-67.21 -12.56,-66.3 -9.02,-64.79 0.62,-61.94 13.01,-57.72 20.66,-54.44 21.05,-55.73 50.8,-52.66" fill="none" stroke="rgb(19, 101, 134)" stroke-width="2" stroke-linejoin="round" filter="url(#fuzzy)" /><polyline points="40.04,-64.42 -3.65,-67.43 -15.21,-65.88 -10.32,-63.32 0.1,-59.8 8.97,-56.76 12.9,-55.6 12.1,-56.71 8.77,-59.57 4.98,-63.2 1.66,-66.55 -1.27,-68.73 -3.99,-69.1 -5.54,-67.13 -3.83,-62.42 -3.64,-56.04 -47.99,-56.42" fill="none" stroke="rgb(19, 101, 134)" stroke-width="2" stroke-linejoin="round" filter="url(#fuzzy)" /><polyline points="32.02,-71.51 27.31,-54 21.27,-47.73 24.72,-49.2 28.36,-55.28 29.09,-61.67 27.59,-65.74 24.22,-67.46 18.95,-68.25 12.95,-69.31 8.95,-70.81 9.42,-72.1 14.41,-72.4 21.77,-70.9 29.97,-66.85 37.98,-61.91 33.07,-70.47" fill="none" stroke="rgb(19, 101, 134)" stroke-width="2" stroke-linejoin="round" filter="url(#fuzzy)" /><polyline points="46.95,-57.13 27.48,-68.71 27.55,-69.68 26.21,-70.08 21.13,-71.76 15.43,-73.91 11.73,-75.5 10.78,-76.07 11.9,-75.6 13.6,-74.27 14.1,-72.26 11.79,-69.8 5.84,-67.24 -3.27,-65.1 -13.66,-63.92 -22.82,-63.97 -28.97,-65.01 -31.89,-66.31 -32.24,-67.18 -29.72,-67.57 -21.53,-67.34 -1.17,-63.81 51.75,-51.08" fill="none" stroke="rgb(19, 101, 134)" stroke-width="2" stroke-linejoin="round" filter="url(#fuzzy)" /><polyline points="41.97,-63.06 42.92,-58.18 38.54,-61.04 37.64,-59.99 37.11,-57.11 34.19,-55.45 28.47,-55.92 20.96,-57.91 13.46,-60.25 7.92,-62.06 5.7,-63 7.01,-63.28 10.8,-63.38 15.17,-63.8 18.34,-64.86 19.39,-66.63 18.66,-68.79 17.33,-70.74 16.36,-71.82 15.52,-71.73 13.26,-70.9 7.75,-70.68 -1.19,-72.76 -9.28,-77.46 -9.7,-80.47" fill="none" stroke="rgb(19, 101, 134)" stroke-width="2" stroke-linejoin="round" filter="url(#fuzzy)" /><polyline points="51.75,-51.08 6.96,-67.23 -4.16,-73.49 -1.37,-73.4 7.92,-69.49 17.33,-64.44 22.88,-60.71 24.38,-59.56 24.18,-60.64 24.77,-62.51 27.2,-63.76 30.99,-63.72 34.87,-62.67 37.78,-61.32 39.22,-60.33 38.98,-60.11 36.4,-61.11 29.95,-63.77 17.86,-67.69 0.24,-70.95 -17.15,-72.4 -13.08,-79.72" fill="none" stroke="rgb(19, 101, 134)" stroke-width="2" stroke-linejoin="round" filter="url(#fuzzy)" /><polyline points="15.18,-79.07 19.42,-70.17 16.97,-60.96 12.79,-58.92 9.4,-61.79 5.96,-66.01 2.65,-69.52 0.46,-71.83 -0.17,-73.14 0.25,-73.73 0.73,-73.76 0.42,-73.32 -0.76,-72.48 -2.06,-71.24 -2.34,-69.49 -1.31,-67.2 -0.56,-64.65 -3.25,-62.56 -11.73,-61.76 -24.13,-62.47 -33.43,-64.5 -31.82,-69.13 -17.42,-78.58" fill="none" stroke="rgb(19, 101, 134)" stroke-width="2" stroke-linejoin="round" filter="url(#fuzzy)" /><polyline points="-51.07,-52.25 -31.17,-67.93 -17.43,-72.55 -2.74,-72.29 9.53,-70.43 15.48,-68.48 14.52,-67.11 9.02,-66.64 2.26,-67.17 -3.25,-68.43 -6.38,-69.89 -7.08,-71.01 -5.76,-71.42 -2.98,-71.07 0.92,-70.12 5.99,-68.85 12.46,-67.55 19.75,-66.43 26.18,-65.43 31.48,-63.52 40.34,-58.33 50.8,-52.66" fill="none" stroke="rgb(19, 101, 134)" stroke-width="2" stroke-linejoin="round" filter="url(#fuzzy)" /><polyline points="0.83,-81.38 13.37,-71.37 11.53,-63.94 4.63,-62.22 4.22,-61.63 10.16,-60.4 16.85,-59.13 20.19,-58.74 19.97,-59.29 18.71,-60.02 19.14,-60 22.5,-58.69 28.02,-56.39 33.32,-54.25 35,-53.8 29.9,-56.15 17.62,-60.92 4.67,-65.75 7.99,-66.63 49.27,-54.83" fill="none" stroke="rgb(19, 101, 134)" stroke-width="2" stroke-linejoin="round" filter="url(#fuzzy)" /><polyline points="50.8,-52.66 24.73,-67.64 16.48,-69 11.97,-67.77 5.52,-67.42 -2.15,-67.84 -9.68,-68.38 -16.45,-68.67 -22,-68.62 -25.75,-68.35 -26.91,-68.1 -24.61,-68.25 -18.46,-69.07 -9.21,-70.43 1.26,-71.69 11.27,-71.57 21.24,-68.2 33.52,-60.14 46.78,-50.5 46.42,-58.18" fill="none" stroke="rgb(19, 101, 134)" stroke-width="2" stroke-linejoin="round" filter="url(#fuzzy)" /><polyline points="63.1,-26.29 26.92,-50.71 24.89,-56.37 22,-59.3 16.81,-61.17 11.93,-62.1 7.57,-62.57 2.4,-63.02 -4.28,-63.69 -11.52,-64.63 -17.25,-65.73 -19.64,-66.81 -18.1,-67.77 -13.46,-68.58 -7.37,-69.17 -1.37,-69.14 3.87,-67.85 8.18,-65 9.66,-61.66 2.82,-60.28 -15.21,-63.8 -15.88,-78.83" fill="none" stroke="rgb(19, 101, 134)" stroke-width="2" stroke-linejoin="round" filter="url(#fuzzy)" /><polyline points="-26.2,-74.91 -5.08,-77.61 6.13,-75.74 11.24,-72.68 15,-69.14 19.11,-65.64 21.91,-63.05 21.36,-61.77 17.1,-61.49 10.48,-61.81 3.55,-62.6 -1.88,-64.02 -4.98,-66.14 -5.97,-68.73 -5.85,-71.25 -5.96,-73.13 -7.49,-73.94 -11.07,-73.58 -15.87,-72.5 -18.4,-72.24 -13.25,-75.65 -3.4,-81.06" fill="none" stroke="rgb(19, 101, 134)" stroke-width="2" stroke-linejoin="round" filter="url(#fuzzy)" /><polyline points="-5.41,-81.04 9.59,-76.2 6.77,-71.38 3.42,-67.8 1.2,-67.41 -1.52,-69.28 -4.14,-71.17 -4.24,-71.45 0.37,-69.69 9.84,-66.37 22.1,-62.34 34.06,-58.28 43.34,-54.51 49.11,-51.08 51.39,-48.35 48.96,-47.93 36.07,-54.71 -3.4,-81.06" fill="none" stroke="rgb(19, 101, 134)" stroke-width="2" stroke-linejoin="round" filter="url(#fuzzy)" /><polyline points="-26.2,-74.91 -1.94,-76.22 5.49,-75.85 9.37,-74.46 12.86,-71.81 16.29,-68.42 18.54,-65.53 19.2,-63.88 19.24,-63.25 20.06,-62.86 22.22,-62.21 25.12,-61.22 27.54,-60.09 28.5,-58.99 27.67,-58.12 25.21,-57.89 21.33,-58.93 16.36,-61.63 11.45,-65.49 9.02,-68.96 11.37,-70.49 16.58,-70.85 15.13,-74.19 -2.26,-81.16" fill="none" stroke="rgb(19, 101, 134)" stroke-width="2" stroke-linejoin="round" filter="url(#fuzzy)" /><polyline points="-44.41,-60.58 -5.19,-70.07 5.14,-70.85 13.55,-66.82 21.82,-63.05 24.86,-62.14 20.46,-63.78 11.11,-66.08 2.02,-67.15 -1.72,-66.2 2.32,-63.69 12.7,-60.8 24.67,-58.72 32.45,-58.34 31.56,-60.37 19.51,-65.46 -3.01,-72.97 -22,-76.92" fill="none" stroke="rgb(19, 101, 134)" stroke-width="2" stroke-linejoin="round" filter="url(#fuzzy)" /><polyline points="0.83,-81.38 1.06,-81.41 1.73,-81.94 2.45,-83.28 3.33,-85.16 4.4,-86.99 5.57,-88.38 6.77,-89.32 7.95,-89.99 9.17,-90.52 10.5,-90.95 12,-91.44 13.72,-92.3 15.58,-93.81 17.35,-96 18.7,-98.47 19.47,-100.92" fill="none" stroke="rgb(19, 101, 134)" stroke-width="2" stroke-linejoin="round" filter="url(#fuzzy)" /><polyline points="-3,-81.22 -1.82,-82.88 -0.47,-83.16 0.65,-83.51 1.61,-84.52 2.54,-86.2 3.55,-88.17 4.67,-89.98 5.87,-91.4 7.12,-92.44 8.39,-93.16 9.71,-93.6 11.07,-93.76 12.5,-93.75 13.99,-93.82 15.51,-94.29 17.03,-95.34 18.5,-96.88 19.92,-98.55 21.29,-99.89 22.61,-100.65 23.85,-100.89 25.14,-100.81 27.21,-100.85" fill="none" stroke="rgb(19, 101, 134)" stroke-width="2" stroke-linejoin="round" filter="url(#fuzzy)" /><polyline points="-3.4,-81.06 -3.95,-80.59 -4.95,-79.48 -6.06,-78.34 -7.11,-77.37 -8.03,-76.52 -8.79,-75.77 -9.5,-75.17 -10.22,-74.72 -11.01,-74.36 -11.83,-74.01 -12.65,-73.58 -13.43,-73.06 -14.14,-72.45 -14.77,-71.67 -15.31,-70.61 -15.86,-69.28 -16.65,-67.79 -18.06,-65.69" fill="none" stroke="rgb(19, 101, 134)" stroke-width="2" stroke-linejoin="round" filter="url(#fuzzy)" /><polyline points="-3.46,-81.23 -4.99,-80.72 -6.33,-80.43 -7.54,-80.24 -8.56,-80.12 -9.43,-80.02 -10.23,-79.89 -11.06,-79.72 -11.93,-79.51 -12.83,-79.24 -13.73,-78.94 -14.61,-78.6 -15.46,-78.22 -16.31,-77.82 -17.21,-77.39 -18.18,-76.95 -19.24,-76.51 -20.33,-76.1 -21.34,-75.72 -22.19,-75.38 -22.86,-75 -23.52,-74.5 -24.54,-73.76" fill="none" stroke="rgb(19, 101, 134)" stroke-width="2" stroke-linejoin="round" filter="url(#fuzzy)" /><polyline points="-5.41,-81.04 -6.48,-81.08 -7.83,-81.93 -8.99,-82.98 -9.9,-83.64 -10.71,-83.84 -11.57,-83.93 -12.6,-84.31 -13.77,-85.18 -15.03,-86.43 -16.3,-87.81 -17.52,-89.09 -18.72,-90.29 -19.96,-91.56 -21.35,-92.88 -23.11,-93.81 -25.62,-93.19 -35.8,-89.94 -33.88,-89.91 -32.18,-90.42 -30.56,-90.53 -29.09,-90.34 -27.81,-90.11 -26.61,-89.98 -25.4,-89.91 -24.1,-89.76 -22.69,-89.36 -21.23,-88.65 -19.79,-87.74 -18.44,-86.85 -17.21,-86.17 -16.08,-85.75 -15.01,-85.5 -13.93,-85.2 -12.84,-84.64 -11.76,-83.78 -10.72,-82.74 -9.76,-81.79 -8.82,-81.14 -7.74,-80.85 -6.48,-80.83 -5.41,-81.04 -6.12,-80.67 -5.17,-80.1 -4.22,-79.59 -3.43,-79.62 -2.64,-79.81 -1.75,-79.87 -0.77,-79.63 0.19,-79.04 1.05,-78.11 1.81,-76.99 2.53,-75.94 3.32,-75.17 4.25,-74.68 5.25,-74.15 6.13,-73.23 6.54,-71.91 -8.25,-80.76 -6.62,-80.97 -5.43,-82.07 -4.49,-83.83 -3.65,-85.54 -2.78,-86.75 -1.81,-87.37 -0.76,-87.57 0.29,-87.71 1.31,-88.1 2.3,-88.86 3.32,-89.9 4.4,-91.07 5.58,-92.25 6.84,-93.44 8.14,-94.69 9.48,-95.95 10.9,-97.05 12.48,-97.83 14.35,-98.41 16.62,-99.46 19.12,-101.71 65.77,-13.98 68.37,-15.83 70.45,-17.66 70.77,-19.16 70.32,-20.4 69.74,-21.44 69.33,-22.43 69.29,-23.51 69.66,-24.83 70.38,-26.42 71.29,-28.24 72.25,-30.17 73.16,-32.16 73.96,-34.24 74.72,-36.42 75.68,-38.65 76.9,-40.91 76.74,-43.88 -15.88,-78.83 -15.48,-80.08 -14.82,-81.45 -14,-82.5 -13.1,-83.37 -12.2,-84.07 -11.34,-84.59 -10.53,-85.07 -9.7,-85.69 -8.79,-86.57 -7.78,-87.69 -6.69,-88.93 -5.6,-90.15 -4.61,-91.25 -3.72,-92.16 -2.81,-92.79 -1.48,-93.14 0.95,-93.64" fill="none" stroke="rgb(19, 101, 134)" stroke-width="2" stroke-linejoin="round" filter="url(#fuzzy)" /><polyline points="-17.18,-78.54 -18.08,-79.76 -19.46,-80.32 -20.8,-80.03 -21.95,-79.55 -22.98,-79.26 -23.96,-79.17 -25,-79.15 -26.15,-79.1 -27.41,-79.03 -28.74,-78.92 -30.03,-78.76 -31.2,-78.51 -32.21,-78.25 -33.14,-78.11 -34.13,-78.26 -35.33,-78.73 -36.83,-79.4 -38.66,-80.04 -40.75,-80.36 -42.83,-79.58" fill="none" stroke="rgb(19, 101, 134)" stroke-width="2" stroke-linejoin="round" filter="url(#fuzzy)" /><polyline points="65.38,-15.45 71.51,-17.91 70.85,-19.27 69.81,-20.41 69.17,-21.45 68.62,-22.35 68.05,-23.23 67.55,-24.23 67.27,-25.45 67.27,-26.88 67.53,-28.51 68.02,-30.3 68.7,-32.24 69.52,-34.29 70.4,-36.4 71.3,-38.5 72.19,-40.55 73.08,-42.56 73.93,-44.5 74.56,-46.5 74.86,-49.03 75.18,-53.24" fill="none" stroke="rgb(19, 101, 134)" stroke-width="2" stroke-linejoin="round" filter="url(#fuzzy)" /><polyline points="-36.68,-57.22 -36.65,-58.67 -36.01,-60.15 -35.21,-61.37 -34.45,-62.28 -33.76,-62.99 -33.09,-63.67 -32.41,-64.44 -31.73,-65.3 -31.07,-66.22 -30.47,-67.13 -29.91,-68 -29.37,-68.85 -28.82,-69.71 -28.18,-70.62 -27.43,-71.55 -26.55,-72.48 -25.58,-73.37 -24.64,-74.25 -23.8,-75.11 -23.13,-75.88 -22.56,-76.46 -21.95,-76.81 -21.17,-77" fill="none" stroke="rgb(19, 101, 134)" stroke-width="2" stroke-linejoin="round" filter="url(#fuzzy)" /><polyline points="-22,-76.92 -20.74,-77.23 -19.31,-77.72 -18.13,-78.11 -17.18,-78.39 -16.34,-78.59 -15.52,-78.75 -14.67,-78.9 -13.77,-79.06 -12.84,-79.22 -11.89,-79.4 -10.99,-79.57 -10.24,-79.7 -9.65,-79.79 -9.1,-79.88 -8.17,-80 -23.1,-76.46 -23.35,-76.66 -24.38,-77.18 -25.62,-77.27 -26.9,-76.92 -28.2,-76.54 -29.49,-76.36 -30.69,-76.36 -31.73,-76.33 -32.59,-76.1 -33.33,-75.62 -34.07,-74.95 -34.9,-74.25 -35.87,-73.66 -36.96,-73.31 -38.14,-73.22 -39.36,-73.31 -40.66,-73.38 -42.08,-73.22 -43.67,-72.81 -45.28,-72.42 -46.41,-72.42" fill="none" stroke="rgb(19, 101, 134)" stroke-width="2" stroke-linejoin="round" filter="url(#fuzzy)" /><polyline points="-23.59,-76 -23.18,-76.61 -22.7,-77.03 -21.96,-77.64 -21.06,-78.78 -20.22,-80.73 -19.57,-83.38 -19.06,-86.28 -18.57,-88.88 -17.97,-90.84 -17.21,-92.12 -16.29,-92.9 -15.24,-93.43 -14.15,-93.98 -13.12,-94.86 -12.37,-96.35 -12.06,-98.58 -12.3,-102.02 -40.73,-47.89 -40.16,-50.11 -39.73,-51.57 -39.37,-52.65 -38.98,-53.57 -38.55,-54.49 -38.11,-55.51 -37.72,-56.68 -37.37,-58 -37.02,-59.43 -36.63,-60.88 -36.17,-62.25 -35.65,-63.48 -35.08,-64.56 -34.47,-65.53 -33.8,-66.38 -33,-67.05 -32.04,-67.45 -31,-67.58 -30.05,-67.64 -29.42,-68.03 -29.23,-69.15 -29.33,-71.14 -29.07,-73.03" fill="none" stroke="rgb(19, 101, 134)" stroke-width="2" stroke-linejoin="round" filter="url(#fuzzy)" /><polyline points="-29.07,-73.03 -29.83,-72.28 -30.37,-71.81 -30.87,-71.39 -31.48,-70.93 -32.24,-70.39 -33.1,-69.76 -33.96,-69.04 -34.76,-68.27 -35.51,-67.47 -36.25,-66.66 -37.02,-65.83 -37.83,-64.98 -38.65,-64.1 -39.43,-63.19 -40.16,-62.24 -40.81,-61.27 -41.39,-60.27 -41.93,-59.28 -42.46,-58.35 -43.03,-57.52 -43.72,-56.71 -44.59,-55.62 -45.71,-53.74 -30.2,-72.55 -30.62,-72.05 -30.97,-71.63 -31.4,-70.92 -31.9,-69.86 -32.46,-68.55 -33.04,-67.25 -33.66,-66.14 -34.37,-65.33 -35.17,-64.73 -36.04,-64.17 -36.9,-63.48 -37.66,-62.56 -38.29,-61.45 -38.77,-60.2 -39.16,-58.9 -39.5,-57.59 -39.83,-56.34 -40.12,-55.22 -40.4,-54.35 -40.71,-53.83" fill="none" stroke="rgb(19, 101, 134)" stroke-width="2" stroke-linejoin="round" filter="url(#fuzzy)" /><polyline points="-54.97,-73.89 -53,-72.76 -51.09,-72.13 -49.54,-72.16 -48.48,-72.91 -47.71,-74.06 -46.85,-75.11 -45.64,-75.66 -44.05,-75.59 -42.25,-75.03 -40.45,-74.26 -38.8,-73.57 -37.34,-73.2 -36.05,-73.25 -34.94,-73.71 -34.02,-74.44 -33.26,-75.1 -32.51,-75.17 -31.45,-73.98 -30.2,-72.55" fill="none" stroke="rgb(19, 101, 134)" stroke-width="2" stroke-linejoin="round" filter="url(#fuzzy)" /><polyline points="-33.42,-70.5 -35.14,-70.36 -36.33,-70.13 -37.11,-69.77 -37.92,-69.37 -38.99,-69.03 -40.32,-68.81 -41.77,-68.72 -43.22,-68.69 -44.63,-68.69 -46.07,-68.75 -47.62,-68.95 -49.28,-69.33 -50.94,-69.76 -52.42,-69.94 -53.64,-69.51 -54.93,-68.43 -57.46,-67.55" fill="none" stroke="rgb(19, 101, 134)" stroke-width="2" stroke-linejoin="round" filter="url(#fuzzy)" /><polyline points="-35.99,-67.85 -36.48,-69.66 -36.66,-72.8 -36.82,-76.36 -36.93,-79.64 -36.92,-82.25 -36.73,-84.12 -36.38,-85.48 -35.86,-86.67 -35.17,-87.89 -34.28,-89.23 -33.22,-90.66 -32.06,-92.16 -30.93,-93.72 -30.06,-95.56 -29.82,-98.05 -30.46,-100.82" fill="none" stroke="rgb(19, 101, 134)" stroke-width="2" stroke-linejoin="round" filter="url(#fuzzy)" /><polyline points="-37.46,-67.34 -36.65,-67.71 -36.01,-67.69 -35.18,-67.57 -34.01,-67.31 -32.6,-66.87 -31.17,-66.34 -29.91,-65.91 -28.92,-65.65 -28.13,-65.58 -27.41,-65.6 -26.61,-65.63 -25.59,-65.6 -24.35,-65.5 -22.99,-65.4 -21.49,-64.6" fill="none" stroke="rgb(19, 101, 134)" stroke-width="2" stroke-linejoin="round" filter="url(#fuzzy)" /><polyline points="-37.46,-67.34 -36.79,-68 -36.52,-68.77 -36.1,-69.62 -35.35,-70.39 -34.4,-71.02 -33.43,-71.56 -32.57,-72.11 -31.83,-72.71 -31.17,-73.41 -30.49,-74.15 -29.71,-74.92 -28.81,-75.69 -27.82,-76.48 -26.81,-77.29 -25.84,-78.14 -24.95,-78.97 -24.11,-79.74 -23.26,-80.43 -22.3,-81.08 -21.21,-81.75 -20.03,-82.51 -18.92,-83.29 -17.99,-83.89 -16.96,-84.16" fill="none" stroke="rgb(19, 101, 134)" stroke-width="2" stroke-linejoin="round" filter="url(#fuzzy)" /><polyline points="64.72,-19.35 64.85,-16.75 65.03,-15.37 64.97,-14.19 64.54,-12.92 63.71,-11.55 62.64,-10.19 61.55,-8.89 60.66,-7.64 60.11,-6.46 59.92,-5.3 60.02,-4.18 60.24,-3.07 60.4,-1.96 60.4,-0.86 60.17,0.22 59.74,1.26 59.15,2.27 58.47,3.3 57.76,4.39 57.02,5.52 56.06,6.61 54.79,7.6 53.76,8.78" fill="none" stroke="rgb(19, 101, 134)" stroke-width="2" stroke-linejoin="round" filter="url(#fuzzy)" /><polyline points="-19.14,-86.37 -20.47,-85.15 -21.98,-84.15 -23.16,-83.32 -24.03,-82.46 -24.77,-81.55 -25.55,-80.64 -26.44,-79.74 -27.43,-78.85 -28.45,-77.94 -29.42,-77.04 -30.28,-76.14 -31.02,-75.25 -31.67,-74.38 -32.3,-73.56 -33,-72.8 -33.81,-72.12 -34.71,-71.5 -35.62,-70.88 -36.42,-70.21 -37.08,-69.4 -37.66,-68.41 -38.38,-67.16 -39.44,-65.68 -40.61,-64.1 -43.18,-61.73 -43.66,-63.85 -43.33,-65.45 -42.62,-66.34 -41.82,-67.16 -40.99,-68.15 -40.16,-69.28 -39.43,-70.47 -38.87,-71.7 -38.41,-72.96 -37.89,-74.2 -37.17,-75.39 -36.29,-76.59 -35.47,-77.98 -35.06,-79.85 -35.54,-82.52" fill="none" stroke="rgb(19, 101, 134)" stroke-width="2" stroke-linejoin="round" filter="url(#fuzzy)" /><polyline points="-43.18,-61.73 -44.24,-61.06 -45.88,-61.55 -47.97,-62.43 -49.69,-62.6 -50.71,-61.84 -51.27,-60.63 -51.83,-59.53 -52.68,-58.84 -53.91,-58.58 -55.46,-58.63 -57.16,-58.76 -58.88,-58.81 -60.48,-58.64 -61.9,-58.17 -63.09,-57.37 -64.08,-56.28 -65.01,-55.05 -66.14,-53.94 -67.81,-53.24 -70.16,-53.15 -72.93,-53.6 -74.85,-53.85 -46.37,-58.81 -46.62,-61.07 -47.51,-63.84 -48.25,-66.46 -48.21,-68.15 -47.24,-68.64 -45.72,-68.43 -44.17,-68.27 -42.96,-68.76 -42.24,-70.15 -42.03,-72.47 -42.25,-75.47 -42.7,-78.8 -43.12,-82.04 -43.25,-84.92 -43.03,-87.46 -42.59,-89.92 -42.17,-92.5 -41.89,-94.88 -41.64,-96.31 -41.44,-96.63" fill="none" stroke="rgb(19, 101, 134)" stroke-width="2" stroke-linejoin="round" filter="url(#fuzzy)" /><polyline points="-43.92,-87.6 -45.13,-86.36 -45.17,-84.74 -45.03,-82.58 -45.23,-80.37 -45.74,-78.3 -46.27,-76.31 -46.64,-74.34 -46.89,-72.41 -47.11,-70.57 -47.27,-68.72 -47.14,-66.62 -46.58,-64.1 -45.88,-61.57 -45.72,-59.83 -46.37,-58.81" fill="none" stroke="rgb(19, 101, 134)" stroke-width="2" stroke-linejoin="round" filter="url(#fuzzy)" /><polyline points="54.11,-34.36 55.18,-33.88 55.91,-33.44 56.47,-32.8 57.12,-32.02 57.94,-31.18 58.86,-30.3 59.8,-29.36 60.66,-28.33 61.41,-27.25 62.02,-26.13 62.54,-24.96 63.01,-23.78 63.44,-22.69 63.81,-21.8 64.12,-21.08 64.46,-20.18 64.92,-18.55" fill="none" stroke="rgb(19, 101, 134)" stroke-width="2" stroke-linejoin="round" filter="url(#fuzzy)" /><polyline points="-51.07,-52.25 -52.25,-51.65 -53.17,-50.99 -53.83,-49.99 -54.53,-48.9 -55.36,-47.88 -56.26,-46.94 -57.12,-46.02 -57.82,-45.09 -58.37,-44.18 -58.85,-43.37 -59.38,-42.67 -60.07,-42.01 -60.93,-41.28 -61.86,-40.49 -62.65,-39.59" fill="none" stroke="rgb(19, 101, 134)" stroke-width="2" stroke-linejoin="round" filter="url(#fuzzy)" /><polyline points="-51.07,-52.25 -54.34,-57.07 -53.27,-57.24 -51.69,-56.98 -50.64,-57.35 -50.34,-58.71 -50.67,-61.02 -51.33,-63.89 -51.93,-66.71 -52.11,-68.97 -51.74,-70.47 -50.9,-71.33 -49.8,-71.88 -48.68,-72.46 -47.68,-73.3 -46.87,-74.53 -46.24,-76.17 -45.76,-78.19 -45.44,-80.49 -45.34,-82.97 -45.53,-85.68 -45.98,-88.92 -46.24,-92.7 -44.99,-94.92 -54.44,-46.76 -55.86,-47.7 -55.55,-49 -54.88,-50.2 -54.39,-51.47 -54.24,-52.97 -54.34,-54.65 -54.51,-56.37 -54.62,-58 -54.56,-59.43 -54.33,-60.64 -53.98,-61.71 -53.62,-62.89 -53.24,-64.49 -52.7,-66.6 -52.36,-69.24 -62.4,-23.25 -62.22,-24.47 -62.13,-25.33 -62.04,-26.08 -61.91,-26.92 -61.73,-27.9 -61.5,-28.96 -61.23,-30.03 -60.95,-31.1 -60.65,-32.21 -60.32,-33.41 -59.92,-34.69 -59.45,-36.01 -58.96,-37.23 -58.54,-38.21 -58.34,-38.71" fill="none" stroke="rgb(19, 101, 134)" stroke-width="2" stroke-linejoin="round" filter="url(#fuzzy)" /><polyline points="64.03,-22.04 66.72,-21.46 66.88,-20.11 67.01,-18.77 67.43,-17.51 67.96,-16.31 68.52,-15.13 69.13,-13.93 69.8,-12.72 70.42,-11.52 70.89,-10.32 71.24,-9.1 71.61,-7.85 72.18,-6.57 73.06,-5.29 74.19,-3.99 75.45,-2.64 76.71,-1.2 77.85,0.24 78.61,1.51 78.78,2.38 79.01,3.25" fill="none" stroke="rgb(19, 101, 134)" stroke-width="2" stroke-linejoin="round" filter="url(#fuzzy)" /><polyline points="64.03,-22.04 64.34,-21.94 64.54,-22.95 64.63,-24.44 64.65,-25.96 64.65,-27.41 64.67,-28.87 64.76,-30.43 64.96,-32.09 65.28,-33.8 65.65,-35.49 66.01,-37.13 66.36,-38.63 66.76,-39.98 67.08,-41.21 66.64,-42.31" fill="none" stroke="rgb(19, 101, 134)" stroke-width="2" stroke-linejoin="round" filter="url(#fuzzy)" /><polyline points="-76.78,-12.61 -75.96,-14.87 -75.2,-16 -74.04,-16.69 -72.91,-17.45 -72.12,-18.54 -71.66,-19.95 -71.25,-21.51 -70.55,-23.01 -69.41,-24.32 -68.01,-25.37 -66.73,-26.24 -65.9,-26.96 -65.33,-27.51 -64.26,-27.91 -62.13,-28.96 -55.11,-5.99 -56.28,-6.78 -56.77,-7.61 -56.99,-8.65 -57.1,-9.77 -57.23,-10.86 -57.54,-11.91 -58.11,-12.98 -58.87,-14.12 -59.61,-15.37 -60.11,-16.71 -60.28,-18.11 -60.25,-19.57 -60.32,-21.09 -60.68,-22.65 -61.3,-24.11 -61.9,-25.31 -62.23,-26.2 -62.31,-27.08 -62.13,-28.96 -59.21,0.94 -59.19,0.18 -59.7,-0.76 -60.3,-1.98 -60.89,-3.33 -61.47,-4.66 -61.96,-5.91 -62.3,-7.07 -62.46,-8.2 -62.49,-9.32 -62.48,-10.45 -62.52,-11.59 -62.65,-12.7 -62.84,-13.81 -63.05,-14.94 -63.23,-16.14 -63.33,-17.45 -63.34,-18.87 -63.24,-20.37 -63.03,-21.87 -62.72,-23.26 -62.35,-24.44 -62.15,-25.36 -62.47,-26.01 -63.2,-25.97" fill="none" stroke="rgb(19, 101, 134)" stroke-width="2" stroke-linejoin="round" filter="url(#fuzzy)" /><polyline points="-62.94,-26.91 -63.24,-26.1 -63.69,-25.09 -64.51,-23.92 -65.58,-22.64 -66.65,-21.29 -67.54,-19.92 -68.19,-18.6 -68.64,-17.36 -69.03,-16.21 -69.46,-15.13 -69.97,-14.05 -70.5,-12.94 -70.96,-11.77 -71.32,-10.55 -71.63,-9.3 -72,-8.03 -72.51,-6.72 -73.18,-5.34 -73.93,-3.87 -74.71,-2.36 -75.44,-0.94 -76.04,0.29 -76.45,1.38 -77.03,2.57" fill="none" stroke="rgb(19, 101, 134)" stroke-width="2" stroke-linejoin="round" filter="url(#fuzzy)" /><polyline points="64.27,-21.16 69.47,-23.01 71.91,-22.87 73.45,-22.1 73.82,-20.87 73.43,-19.37 72.98,-17.85 73.01,-16.45 73.82,-15.18 75.55,-14.02 78.14,-12.99 81.25,-12.11 84.19,-11.26 86.17,-10.13 86.81,-8.28 86.34,-5.33" fill="none" stroke="rgb(19, 101, 134)" stroke-width="2" stroke-linejoin="round" filter="url(#fuzzy)" /><polyline points="64.38,-21.96 65.99,-25.09 65.22,-26.53 64.49,-27.65 64.22,-28.98 64.28,-30.55 64.42,-32.17 64.44,-33.69 64.31,-35.08 64.1,-36.38 63.94,-37.73 63.92,-39.21 64.07,-40.89 64.34,-42.72 64.74,-44.61 65.3,-46.44 66.07,-48.18 66.99,-49.89 67.84,-51.65 68.62,-53.8 70.21,-57.34" fill="none" stroke="rgb(19, 101, 134)" stroke-width="2" stroke-linejoin="round" filter="url(#fuzzy)" /><polyline points="64.38,-21.96 64.32,-21.57 64.37,-21.16 64.54,-20.42 64.79,-19.43 65.1,-18.3 65.47,-17.14 65.89,-15.97 66.32,-14.81 66.74,-13.63 67.11,-12.44 67.42,-11.23 67.69,-10.05 67.93,-8.87 68.16,-7.67 68.38,-6.45 68.59,-5.22 68.75,-4.03 68.85,-2.84 68.95,-1.43 69.17,0.75" fill="none" stroke="rgb(19, 101, 134)" stroke-width="2" stroke-linejoin="round" filter="url(#fuzzy)" /><polyline points="61.02,-46.12 60.83,-44.97 60.7,-44.22 60.93,-43.39 61.35,-42.26 61.69,-40.85 61.82,-39.3 61.78,-37.78 61.68,-36.35 61.64,-34.99 61.71,-33.69 61.88,-32.37 62.13,-31.02 62.41,-29.63 62.69,-28.27 62.92,-27.09 63.13,-26.12 63.49,-24.56" fill="none" stroke="rgb(19, 101, 134)" stroke-width="2" stroke-linejoin="round" filter="url(#fuzzy)" /><polyline points="62.87,-27.22 62.54,-27.01 61.58,-27.67 60.69,-28.79 59.99,-29.98 59.24,-30.99 58.29,-31.77 57.21,-32.39 56.19,-32.99 55.28,-33.65 54.36,-34.39 53.23,-35.11 51.85,-35.7 50.56,-36.09 49.85,-36.3 49.83,-36.22 64.86,-66.09 65.07,-63.37 65.48,-60.7 65.76,-58.32 65.73,-56.02 65.36,-53.74 64.72,-51.51 63.97,-49.45 63.32,-47.65 62.96,-46.15 62.95,-44.86 63.19,-43.64 63.45,-42.31 63.5,-40.8 63.28,-39.13 62.95,-37.47 62.8,-35.97 62.94,-34.66 63.12,-33.4 62.94,-31.89 62.46,-29.92 62.64,-27.76 58.68,-3.62 59.12,-5.67 59.54,-7.06 59.68,-8.11 59.84,-9.15 60.17,-10.3 60.58,-11.53 60.89,-12.75 61.02,-13.93 61,-15.08 60.94,-16.22 60.98,-17.36 61.21,-18.52 61.65,-19.66 62.18,-20.78 62.59,-21.89 62.63,-23.03 62.21,-24.18 61.49,-25.22 61.08,-26.09 62.64,-27.76" fill="none" stroke="rgb(19, 101, 134)" stroke-width="2" stroke-linejoin="round" filter="url(#fuzzy)" /><polyline points="60.85,-33.02 60.97,-32.57 60.55,-33.5 60.09,-34.56 59.64,-35.58 59.14,-36.63 58.59,-37.74 58.02,-38.84 57.48,-39.86 56.97,-40.74 56.48,-41.5 55.97,-42.2 55.41,-42.93 54.79,-43.74 54.13,-44.69 53.44,-45.77 52.71,-46.95 51.98,-48.16 51.26,-49.29 50.59,-50.23 49.99,-50.93 49.33,-51.53 48.33,-52.28 58.99,-53.31 59.93,-50.72 59.78,-48.62 59.58,-46.94 59.65,-45.72 59.98,-44.9 60.42,-44.23 60.83,-43.44 61.15,-42.37 61.41,-41.03 61.68,-39.6 61.93,-38.23 62.12,-36.99 62.2,-35.75 62.08,-34.34 61.62,-32.91 60.85,-33.02 60.85,-33.02 61.5,-32.84 61.96,-34.26 62.05,-35.65 61.81,-36.78 61.5,-37.94 61.36,-39.39 61.48,-41.1 61.87,-42.92 62.42,-44.63 62.96,-46.1 63.36,-47.36 63.64,-48.64 64.04,-50.23 64.89,-52.26 66.28,-54.15 60.85,-33.02 61.04,-32.61 60.83,-33.66 60.58,-34.85 60.32,-35.99 60.08,-37.21 59.92,-38.62 59.92,-40.16 60.05,-41.7 60.21,-43.09 60.28,-44.28 60.17,-45.31 59.93,-46.32 59.64,-47.49 59.41,-48.92 59.25,-50.63 59.13,-52.59 59.01,-54.75 58.89,-56.93 58.86,-58.68 59.17,-59.12" fill="none" stroke="rgb(19, 101, 134)" stroke-width="2" stroke-linejoin="round" filter="url(#fuzzy)" /><polyline points="62.89,-9.89 62.71,-12.31 62.8,-13.59 62.91,-14.68 63.02,-15.85 63.13,-17.07 63.2,-18.26 63.26,-19.37 63.31,-20.39 63.31,-21.37 63.23,-22.38 63.06,-23.47 62.81,-24.66 62.55,-25.9 62.31,-27.19 62.05,-28.55 61.7,-29.99 61.39,-31.15 61.67,-30.73" fill="none" stroke="rgb(19, 101, 134)" stroke-width="2" stroke-linejoin="round" filter="url(#fuzzy)" /><polyline points="49.35,-60.61 50.8,-59.02 51.6,-58.13 52.28,-57.11 52.83,-55.95 53.24,-54.72 53.58,-53.41 53.94,-52.03 54.39,-50.6 54.95,-49.21 55.58,-47.9 56.22,-46.69 56.79,-45.58 57.23,-44.55 57.54,-43.58 57.76,-42.67 57.99,-41.75 58.29,-40.75 58.71,-39.57 59.22,-38.24 59.7,-36.94 59.97,-35.93 60.05,-35.38 57.38,-41.49 56.54,-41.36 56.02,-41.49 55.42,-41.89 54.86,-42.6 54.35,-43.56 53.8,-44.67 53.14,-45.82 52.36,-46.96 51.53,-48.05 50.72,-49.02 49.95,-49.8 49.16,-50.37 48.22,-50.89 46.99,-51.66 45.44,-53.01" fill="none" stroke="rgb(19, 101, 134)" stroke-width="2" stroke-linejoin="round" filter="url(#fuzzy)" /><polyline points="57.23,-41.6 56.72,-42.64 56.25,-43.69 55.74,-44.82 55.18,-46.04 54.56,-47.34 53.92,-48.68 53.31,-50.01 52.77,-51.28 52.3,-52.44 51.84,-53.51 51.29,-54.53 50.65,-55.51 49.97,-56.45 49.3,-57.36 48.63,-58.25 48.12,-58.56 56.62,-42.79 57.06,-44.43 56.73,-45.74 56.14,-47.03 55.56,-48.47 55.07,-50.04 54.69,-51.63 54.35,-53.13 53.96,-54.45 53.43,-55.58 52.78,-56.56 52.08,-57.52 51.43,-58.54 50.9,-59.68 50.49,-60.95 50.15,-62.33 49.79,-63.8 49.36,-65.3 48.81,-66.77 48.17,-68.16 47.49,-69.44 46.8,-70.61 46.11,-71.74 45.58,-73.32 56.62,-42.79 56.56,-44.01 56.95,-45.86 57.14,-47.74 56.87,-49.42 56.32,-50.95 55.69,-52.37 55.15,-53.71 54.8,-55.07 54.7,-56.6 54.83,-58.43 55.13,-60.56 55.57,-62.91 56.22,-65.51 57.29,-68.69 59.52,-72.43" fill="none" stroke="rgb(19, 101, 134)" stroke-width="2" stroke-linejoin="round" filter="url(#fuzzy)" /><polyline points="59.85,-82.42 59.28,-77.59 59.21,-74.94 58.82,-72.52 58.02,-69.76 57.03,-66.78 56.16,-63.9 55.67,-61.44 55.67,-59.57 56.07,-58.23 56.66,-57.14 57.15,-55.92 57.34,-54.25 57.28,-52.13 57.2,-49.91 57.21,-47.88 56.83,-45.8 56.27,-43.53" fill="none" stroke="rgb(19, 101, 134)" stroke-width="2" stroke-linejoin="round" filter="url(#fuzzy)" /><polyline points="47.9,-70.19 48.07,-67.99 48.66,-66.35 49.3,-64.87 49.79,-63.43 50.1,-62 50.3,-60.56 50.51,-59.15 50.81,-57.81 51.24,-56.6 51.79,-55.51 52.4,-54.54 53,-53.58 53.49,-52.47 53.86,-51.06 54.16,-49.37 54.54,-47.63 55.1,-46.15 55.59,-45.4 37.03,-72.8 38.27,-71.37 39.08,-70.27 39.8,-69.25 40.51,-68.32 41.18,-67.5 41.83,-66.74 42.46,-65.98 43.1,-65.14 43.75,-64.22 44.42,-63.21 45.1,-62.13 45.78,-61.04 46.45,-59.98 47.13,-58.99 47.82,-58.09 48.55,-57.29 49.3,-56.5 50,-55.63 50.61,-54.64 51.08,-53.54 51.44,-52.45 51.82,-51.41 52.53,-50.16 54.13,-47.96" fill="none" stroke="rgb(19, 101, 134)" stroke-width="2" stroke-linejoin="round" filter="url(#fuzzy)" /><polyline points="51.69,-51.65 51.44,-51.27 51.9,-50.12 52.68,-48.81 53.5,-47.51 54.22,-46.27 54.82,-45.09 55.29,-44.01 55.64,-43.01 55.89,-42.1 56.12,-41.24 56.39,-40.37 56.76,-39.42 57.23,-38.35 57.72,-37.18 58.12,-36 58.38,-34.88 58.51,-33.74 58.69,-32.2 59.29,-29.55" fill="none" stroke="rgb(19, 101, 134)" stroke-width="2" stroke-linejoin="round" filter="url(#fuzzy)" /><polyline points="50.8,-52.66 51.14,-51.87 51.13,-50.81 51.15,-49.25 51.37,-47.57 51.89,-46.1 52.59,-44.89 53.27,-43.83 53.75,-42.81 53.97,-41.75 53.95,-40.64 53.79,-39.47 53.59,-38.24 53.44,-36.96 53.42,-35.67 53.57,-34.44 53.89,-33.32 54.31,-32.31 54.71,-31.34 54.99,-30.31 55.07,-29.13 54.95,-27.75 54.71,-26.13 54.33,-24.25 53.86,-22.45 49.8,-53.87 48.31,-54.49 47.5,-54.96 46.86,-55.65 46.29,-56.47 45.7,-57.38 45.05,-58.32 44.3,-59.25 43.47,-60.09 42.58,-60.8 41.67,-61.35 40.75,-61.73 39.83,-61.98 38.91,-62.14 37.99,-62.3 37.05,-62.51 36.09,-62.8 35.13,-63.16 34.11,-63.62 32.79,-64.47 77.71,-45.78 75.4,-45.15 73.66,-45.52 71.93,-46.38 70.48,-47.44 69.34,-48.42 68.33,-49.13 67.25,-49.59 66.02,-49.89 64.59,-50.13 62.95,-50.34 61.14,-50.56 59.23,-50.8 57.36,-51.13 55.68,-51.61 54.3,-52.24 53.21,-52.95 52.28,-53.66 51.34,-54.32 50.32,-54.92 49.27,-55.47 48.3,-56.1 46.88,-57.58" fill="none" stroke="rgb(19, 101, 134)" stroke-width="2" stroke-linejoin="round" filter="url(#fuzzy)" /><polyline points="46.42,-58.18 45.45,-58.9 44.3,-59.73 43.34,-60.61 42.51,-61.44 41.72,-62.13 40.95,-62.69 40.17,-63.16 39.39,-63.6 38.58,-64.06 37.73,-64.52 36.83,-64.96 35.87,-65.37 34.88,-65.74 33.86,-66.09 32.85,-66.43 31.89,-66.77 30.99,-67.11 30.13,-67.39 29.28,-67.59 28.36,-67.72 27.35,-67.91 26.24,-68.32 25.12,-68.93 45.96,-58.88 46.04,-57.74 46.38,-56.88 46.82,-56 47.36,-55.13 47.97,-54.24 48.58,-53.3 49.14,-52.31 49.65,-51.28 50.15,-50.21 50.69,-49.11 51.28,-47.95 51.92,-46.75 52.57,-45.54 53.2,-44.37 53.72,-43.24 54.1,-42.18 54.34,-41.23 54.49,-40.46 54.61,-39.9 54.68,-39.41 54.58,-38.65" fill="none" stroke="rgb(19, 101, 134)" stroke-width="2" stroke-linejoin="round" filter="url(#fuzzy)" /><polyline points="44.2,-60.87 45.37,-59.29 46.05,-58.19 46.55,-57.24 46.93,-56.21 47.17,-54.99 47.34,-53.62 47.49,-52.22 47.7,-50.87 47.97,-49.62 48.31,-48.42 48.73,-47.25 49.24,-46.08 49.82,-44.91 50.41,-43.73 50.94,-42.54 51.32,-41.36 51.53,-40.22 51.58,-39.17 51.53,-38.28 51.45,-37.61 51.37,-37.03 51.1,-36.19" fill="none" stroke="rgb(19, 101, 134)" stroke-width="2" stroke-linejoin="round" filter="url(#fuzzy)" /><polyline points="39.56,-65.3 38.52,-66.55 37.72,-67.41 36.99,-68.33 36.36,-69.55 35.88,-71.17 35.54,-73.05 35.24,-74.94 34.85,-76.54 34.29,-77.72 33.53,-78.57 32.62,-79.27 31.65,-80.07 30.72,-81.12 29.97,-82.53 29.5,-84.33 29.35,-86.53 29.35,-88.96 29.03,-91.06 28.06,-91.88 39.56,-65.3 38.86,-67.16 37.89,-67.73 36.91,-68.21 35.97,-68.81 35.07,-69.53 34.25,-70.34 33.51,-71.25 32.84,-72.21 32.19,-73.19 31.48,-74.11 30.69,-74.94 29.8,-75.69 28.89,-76.4 28.02,-77.14 27.24,-77.95 26.55,-78.81 25.85,-79.69 25.03,-80.48 24.03,-81.15 22.85,-81.71 21.6,-82.3 20.43,-83.05 19.66,-83.99" fill="none" stroke="rgb(19, 101, 134)" stroke-width="2" stroke-linejoin="round" filter="url(#fuzzy)" /><polyline points="35.34,-68.56 34.7,-71.91 34.42,-74.12 33.8,-75.02 33.01,-75.55 32.13,-76.05 31.16,-76.58 30.13,-77.13 29.14,-77.77 28.26,-78.54 27.51,-79.49 26.84,-80.62 26.18,-81.91 25.46,-83.33 24.66,-84.82 23.78,-86.28 22.85,-87.61 21.88,-88.74 20.9,-89.64 19.91,-90.37 18.98,-91.07 18.21,-91.86 17.77,-92.72 17.54,-93.33" fill="none" stroke="rgb(19, 101, 134)" stroke-width="2" stroke-linejoin="round" filter="url(#fuzzy)" /><polyline points="33.07,-70.47 32.35,-70.28 31.69,-70.47 30.77,-70.29 29.63,-69.85 28.4,-69.53 27.24,-69.54 26.22,-69.88 25.35,-70.35 24.57,-70.71 23.78,-70.78 22.88,-70.57 21.83,-70.18 20.66,-69.81 19.44,-69.64 18.28,-69.71 17.16,-69.79 16.25,-69.44 33.07,-70.47 34.43,-69.06 35.23,-68.06 35.71,-66.72 36.04,-65.15 36.43,-63.76 37.02,-62.79 37.71,-62.15 38.35,-61.55 38.79,-60.71 38.98,-59.47 38.96,-57.83 38.84,-55.94 38.76,-54 38.85,-52.25 39.15,-50.83 39.5,-49.73 39.69,-48.93 39.33,-48.31" fill="none" stroke="rgb(19, 101, 134)" stroke-width="2" stroke-linejoin="round" filter="url(#fuzzy)" /><polyline points="33.07,-70.47 34.7,-69.58 35.72,-68.97 36.66,-68.42 37.67,-68.01 38.77,-67.75 39.87,-67.59 40.9,-67.4 41.82,-67.12 42.63,-66.71 43.45,-66.22 44.36,-65.75 45.43,-65.33 46.65,-64.92 47.91,-64.37 49.08,-63.59 50,-62.62 50.49,-61.44" fill="none" stroke="rgb(19, 101, 134)" stroke-width="2" stroke-linejoin="round" filter="url(#fuzzy)" /><polyline points="32.7,-70.85 32.02,-71.22 31.02,-70.91 29.71,-70.15 28.35,-69.57 27.14,-69.55 26.16,-70.01 25.35,-70.66 24.63,-71.21 23.87,-71.47 22.98,-71.39 21.91,-71.01 20.7,-70.44 19.43,-69.84 18.2,-69.32 17.07,-68.87 16.01,-68.32 14.92,-67.46 13.7,-66.46 12.75,-66.1 32.7,-70.85 33.64,-70.4 35.03,-70.32 36.49,-70.51 37.95,-70.78 39.34,-70.96 40.56,-70.87 41.57,-70.47 42.41,-69.87 43.25,-69.29 44.24,-68.91 45.49,-68.86 47.04,-69.1 48.84,-69.53 50.75,-69.98 52.67,-70.3 54.48,-70.43 56.15,-70.41 57.69,-70.28 59.13,-70.08 60.53,-69.8 62.01,-69.46 63.96,-69.19 67.02,-69.48 20.76,-108.13 20.5,-104.36 21.06,-101.64 22.08,-100.33 23.29,-99.83 24.56,-99.49 25.76,-98.74 26.79,-97.23 27.52,-94.82 27.92,-91.66 28.08,-88.2 28.15,-84.92 28.33,-82.23 28.78,-80.33 29.58,-79.19 30.66,-78.6 31.78,-78.14 32.57,-77.14 32.73,-75.03 32.46,-72.28 32.7,-70.85 32.7,-70.85 31.98,-71.14 31.09,-71.11 29.96,-70.78 28.71,-70.5 27.49,-70.46 26.39,-70.61 25.43,-70.83 24.57,-71.07 23.78,-71.36 22.99,-71.74 22.15,-72.2 21.21,-72.63 20.19,-72.94 19.11,-73.04 18.03,-72.91 16.97,-72.58 15.91,-72.12 14.87,-71.58 13.98,-71.07 13.6,-70.82 31.54,-71.72 30.67,-72.43 29.78,-73.3 28.76,-74.08 27.74,-74.72 26.84,-75.3 26.1,-75.98 25.47,-76.95 24.89,-78.36 24.34,-80.29 23.8,-82.66 23.23,-85.23 22.61,-87.62 21.87,-89.52 21.02,-90.83 20.12,-91.79 19.27,-92.76 18.55,-93.97 17.9,-95.29 17.07,-96.39 15.61,-97.02 12.98,-96.79 9.23,-73.9 10.42,-74.1 11.82,-74.11 12.99,-74.28 13.94,-74.59 14.8,-74.96 15.67,-75.3 16.6,-75.56 17.56,-75.7 18.57,-75.73 19.62,-75.65 20.71,-75.49 21.8,-75.28 22.86,-75.04 23.83,-74.8 24.7,-74.57 25.48,-74.31 26.29,-74 27.22,-73.6 28.31,-73.05 29.46,-72.45 30.47,-72.41 30.47,-72.41 33.73,-77.4 33.97,-75.93 34.05,-73.89 34.63,-72.65 35.68,-72.19 37,-72.2 38.39,-72.35 39.8,-72.52 41.31,-72.84 43.07,-73.56 45.1,-74.79 47.15,-76.23 48.83,-77.21 50.04,-77.31 51.88,-77.96 29.96,-72.63 30.47,-78.77 30.07,-81.85 29.53,-83.62 28.82,-84.24 27.92,-84.14 26.83,-83.82 25.63,-83.68 24.42,-84.02 23.36,-85.1 22.52,-87.02 21.9,-89.55 21.36,-92.24 20.75,-94.69 20.04,-96.98 19.52,-99.44 19.4,-101.05" fill="none" stroke="rgb(19, 101, 134)" stroke-width="2" stroke-linejoin="round" filter="url(#fuzzy)" /><polyline points="39.27,-50.31 39.07,-52.83 38.71,-54.35 38.36,-55.62 38.05,-56.81 37.73,-57.88 37.37,-58.84 37,-59.81 36.63,-60.88 36.28,-62.1 35.92,-63.45 35.53,-64.83 35.05,-66.15 34.48,-67.35 33.8,-68.39 33.08,-69.29 32.36,-70.1 31.71,-70.83 31.11,-71.5 30.49,-72.09 29.96,-72.63" fill="none" stroke="rgb(19, 101, 134)" stroke-width="2" stroke-linejoin="round" filter="url(#fuzzy)" /><polyline points="24.12,-75.76 23.35,-77.35 22.58,-79.51 21.7,-81.03 20.71,-81.8 19.72,-82.35 18.81,-83 17.99,-83.8 17.21,-84.68 16.43,-85.54 15.55,-86.31 14.5,-86.88 13.28,-87.22 11.93,-87.42 10.57,-87.65 9.32,-88.16 8.21,-89.05 7.18,-90.31 6.06,-91.85 4.71,-93.68 3,-95.87" fill="none" stroke="rgb(19, 101, 134)" stroke-width="2" stroke-linejoin="round" filter="url(#fuzzy)" /><polyline points="23.21,-76.02 24.16,-75.73 24.93,-75.45 25.6,-75.23 26.4,-75.09 27.4,-75.01 28.56,-74.95 29.74,-74.85 30.88,-74.7 31.95,-74.51 32.96,-74.27 33.95,-73.97 34.92,-73.57 35.88,-73.06 36.83,-72.45 37.78,-71.77 38.74,-71.1 39.72,-70.49 40.71,-69.95 41.68,-69.49 42.62,-69.12 43.56,-68.87 44.58,-68.76 45.72,-68.73 46.72,-68.46 20.82,-77.15 21.59,-76.56 22.55,-75.55 23.48,-74.8 24.32,-74.37 25.07,-74.03 25.82,-73.6 26.6,-73.01 27.43,-72.31 28.28,-71.56 29.11,-70.81 29.91,-70.1 30.67,-69.42 31.41,-68.74 32.15,-68.02 32.89,-67.23 33.62,-66.37 34.31,-65.42 34.96,-64.4 35.58,-63.34 36.18,-62.31 36.78,-61.38 37.28,-60.54 37.61,-59.76 37.98,-58.85" fill="none" stroke="rgb(19, 101, 134)" stroke-width="2" stroke-linejoin="round" filter="url(#fuzzy)" /><polyline points="15.79,-78.68 17.46,-78.58 18.6,-79 19.79,-79.63 21.11,-80.22 22.49,-80.68 23.87,-81.04 25.19,-81.4 26.45,-81.82 27.66,-82.32 28.92,-82.9 30.31,-83.58 31.86,-84.37 33.52,-85.2 35.15,-85.92 36.64,-86.36 37.91,-86.47 39.05,-86.35 40.19,-86.12 41.5,-85.88 43.12,-86.11 44.85,-88.19" fill="none" stroke="rgb(19, 101, 134)" stroke-width="2" stroke-linejoin="round" filter="url(#fuzzy)" /><polyline points="0.82,-80.66 1.05,-80.56 1.69,-80.56 2.34,-80.61 3.11,-80.64 4.03,-80.62 5.05,-80.57 6.09,-80.5 7.13,-80.41 8.18,-80.3 9.3,-80.15 10.52,-79.94 11.81,-79.68 13.07,-79.4 14.15,-79.14 14.92,-78.97 15.38,-78.86 15.79,-78.68" fill="none" stroke="rgb(19, 101, 134)" stroke-width="2" stroke-linejoin="round" filter="url(#fuzzy)" /><polyline points="15.24,-79.02 15.02,-79.26 14.37,-80.32 13.37,-81.91 12.16,-83.43 10.92,-84.77 9.76,-86.11 8.68,-87.51 7.63,-88.84 6.58,-90 5.5,-91.07 4.43,-92.25 3.4,-93.69 2.42,-95.33 1.43,-96.96 0.35,-98.37 -0.84,-99.56 -2.1,-100.71 -3.29,-101.93 -4.32,-103.22 -5.37,-104.81 -7.17,-107.46 -2.9,-68.09 -2.75,-68.82 -2.21,-68.87 -1.39,-69.09 -0.47,-69.68 0.42,-70.57 1.23,-71.62 2,-72.7 2.79,-73.74 3.66,-74.7 4.61,-75.56 5.62,-76.31 6.62,-76.89 7.61,-77.16 8.62,-76.99 9.76,-76.54 11.18,-76.45 13.01,-77.64 14.88,-79.15" fill="none" stroke="rgb(19, 101, 134)" stroke-width="2" stroke-linejoin="round" filter="url(#fuzzy)" /><polyline points="13.45,-79.49 11.61,-81.48 10.67,-86.7 9.92,-91.41 9.01,-93.21 7.88,-92.43 6.62,-90.57 5.36,-88.97 4.19,-88.26 3.16,-88.46 2.21,-89.35 1.25,-90.68 0.22,-92.31 -0.92,-94.22 -2.12,-96.39 -3.28,-98.79 -4.39,-101.44 -5.53,-104.27 -6.88,-106.92 -8.29,-109.26 8.17,-80.56 7.89,-85.09 7.13,-86 6.05,-85.46 4.88,-84.74 3.8,-84.51 2.85,-85 1.97,-86.09 1.07,-87.44 0.09,-88.68 -0.95,-89.57 -2.03,-90.15 -3.12,-90.62 -4.22,-91.26 -5.41,-92.28 -6.74,-93.79 -8.25,-95.74 -9.83,-97.91 -11.27,-99.99 -12.34,-101.58 -13.04,-102.09" fill="none" stroke="rgb(19, 101, 134)" stroke-width="2" stroke-linejoin="round" filter="url(#fuzzy)" /><polyline points="31.11,-85.36 29.96,-86.18 29.21,-86.07 28.29,-85.65 27.13,-85.24 25.78,-84.87 24.35,-84.52 22.94,-84.23 21.61,-84.05 20.4,-83.96 19.29,-83.9 18.23,-83.76 17.21,-83.52 16.19,-83.24 15.15,-83.06 14.03,-83.06 12.82,-83.18 11.49,-83.22 10.12,-82.96 8.82,-82.38 7.7,-81.74 6.77,-81.3 5.61,-80.97" fill="none" stroke="rgb(19, 101, 134)" stroke-width="2" stroke-linejoin="round" filter="url(#fuzzy)" /><polyline points="5.61,-80.97 6.67,-80.28 7.47,-79.44 8.41,-78.77 9.56,-78.4 10.81,-78.19 12.04,-77.99 13.16,-77.77 14.14,-77.54 15.03,-77.28 15.86,-76.96 16.68,-76.55 17.51,-76.05 18.36,-75.45 19.25,-74.78 20.16,-74.06 21.08,-73.29 21.95,-72.5 22.74,-71.72 23.42,-70.99 24.01,-70.33 24.63,-69.74 25.43,-69.13 26.47,-68.34 27.72,-67.2 4.39,-80.9 3.08,-80.94 2.35,-80.52 1.7,-79.96 0.91,-79.61 -0.03,-79.49 -1.02,-79.46 -1.98,-79.35 -2.9,-79.09 -3.8,-78.69 -4.73,-78.22 -5.7,-77.72 -6.68,-77.19 -7.62,-76.6 -8.44,-75.94 -9.16,-75.22 -9.84,-74.54 -10.6,-74 -11.47,-73.57 -12.31,-73.1 -12.95,-72.22 2.55,-81.32 2.16,-81.51 1.71,-81.94 0.92,-82.41 -0.09,-82.96 -1.17,-83.68 -2.25,-84.63 -3.31,-85.83 -4.39,-87.21 -5.56,-88.71 -6.82,-90.26 -8.15,-91.89 -9.5,-93.68 -10.8,-95.62 -12.03,-97.5 -13.21,-98.96 -14.37,-99.63 -15.55,-99.47 -16.75,-98.9 -18.03,-98.8 -19.76,-100.28 0.25,-81.3 1.76,-82.68 2.49,-84.02 3.34,-84.82 4.4,-85.39 5.56,-85.86 6.77,-86.42 8.05,-87.31 9.43,-88.58 10.92,-90.01 12.45,-91.27 13.94,-92.11 15.34,-92.49 16.61,-92.61 17.8,-92.75 19,-93.17 20.25,-93.91 21.56,-94.77 22.87,-95.4 24.19,-95.6 25.6,-95.56 27.27,-95.81 29.2,-96.57 30.86,-96.91" fill="none" stroke="rgb(19, 101, 134)" stroke-width="2" stroke-linejoin="round" filter="url(#fuzzy)" />
    </g>
    
        <g id="lineNose">
        <path d="M -7.78,7.17 Q 8.75, 11.94 0.4849999999999999, -4.260000000000001" fill="none" stroke="black" stroke-width="3" stroke-linejoin="round" filter="url(#fuzzy)"></path>
        </g>
      
    <g id="mouth">
      <polyline points="9.24,65.83 9.12,65.95 9.24,65.87 9.1,66.09 8.74,67.34 8.89,66.79 8.6,67.46 8.09,68.29 8.48,67.81 7.63,69.02 7.39,69.32 7.44,69.13 7.5,69.27 6.28,70.32 6.72,70.01 6.65,70.12 5.47,71.02 5.85,70.71 5.13,71.27 5.62,71 4.11,71.94 4.91,71.46 3.37,72.34 3.33,72.26 3.45,72.3 2.13,72.86 1.7,73.01 2.43,72.71 1.86,72.91 1.08,73.13 0.94,73.18 -0.57,73.54 -0.21,73.5 -0.12,73.46 -0.54,73.57 -2.14,73.79 -2.21,73.79 -2.81,73.86 -2.69,73.84 -4.58,73.93 -4.68,73.94 -4.4,73.94 -4.54,73.91 -6.42,73.84 -6.7,73.8 -6.93,73.79 -7.82,73.66 -8.07,73.62 -7.46,73.72 -8.28,73.59 -9.36,73.37 -9.67,73.3 -10.91,72.97 -11.23,72.88 -10.34,73.13 -11.82,72.68 -12.51,72.44 -13.43,72.06 -13.98,71.8 -13.78,71.88 -14.13,71.72 -15.09,71.26 -15.37,71.1 -15.14,71.24 -15.83,70.84 -16.1,70.67 -16.51,70.41 -16.64,70.32 -17.71,69.52 -18.3,69.11 -17.54,69.67 -19.19,68.3 -18.91,68.5 -18.7,68.69 -19.46,68.04 -19.46,67.95 -20.54,66.85 -20.76,66.42 -21.12,65.95 -20.82,66.38 -21.09,66.12 -21.75,65.08 -21.57,65.4 -21.56,65.19 -21.95,64.48 -22.07,64.44 -22.49,63.15 -22.66,62.87 -22.65,62.75 -22.85,61.9 -22.97,61.74 -22.85,61.87 -22.82,61.86 -22.88,61.6 -23.06,60.73 -23.11,60.47 -23.03,60.11 -22.96,59.16 -22.95,59.03 -22.83,58.32 -22.96,58.64 -22.98,58.61 -22.71,57.94 -22.68,57.81 -22.33,56.8 -22.21,56.7 -22.39,56.99 -22.1,56.22 -21.87,55.79 -21.47,55.4 -21.66,55.46 -20.99,54.57 -21.1,54.87 -20.63,54.18 -20.64,54.16 -19.76,53.38 -19.82,53.45 -18.93,52.81 -18.55,52.49 -18.36,52.42 -18.61,52.55 -18.27,52.41 -17.7,52.06 -17.01,51.66 -16.28,51.38 -17,51.63 -16.21,51.37 -15.84,51.19 -14.57,50.78 -14.99,50.89 -13.54,50.51 -12.97,50.43 -13.92,50.6 -13.46,50.5 -13.09,50.44 -12.1,50.24 -12.15,50.28 -11.36,50.18 -9.97,50.07 -10.07,50.09 -9.52,50.09 -8.01,50.12 -7.99,50.12 -8.57,50.08 -7,50.2 -7.43,50.16 -5.71,50.36 -5.62,50.38 -4.8,50.53 -5.19,50.46 -3.68,50.78 -3.99,50.7 -3.1,50.93 -1.91,51.29 -2.45,51.13 -1.56,51.41 -1.88,51.3 -0.5,51.82 -0.21,51.95 1.01,52.51 1.29,52.66 1.12,52.55 1.21,52.62 1.97,53.02 2.49,53.34 2.5,53.35 3.69,54.13 3.28,53.87 4.32,54.55 4.5,54.73 4.11,54.45 5.71,55.75 5.61,55.74 5.62,55.68 6.17,56.21 6.14,56.21 6.57,56.65 7.21,57.52 7.07,57.23 7.06,57.24 7.64,58.03 7.87,58.39 7.91,58.6 8.56,59.58 8.67,59.82 8.57,59.71 8.61,59.84 9.14,61.28 9.25,61.76 9.2,61.66 9.32,62.15 9.34,62.52 9.53,63.28 9.41,63.15 9.42,63.63 9.5,63.44 9.37,64.84 9.44,64.04 9.48,64.78 9.2,65.69" fill="rgb(175, 204, 102)" stroke="black" stroke-width="3" stroke-linejoin="round" filter="url(#fuzzy)" />
    </g>
  </svg>