<svg viewBox="-100 -100 200 200" xmlns="http://www.w3.org/2000/svg" width="500" height="500" id="face-svg">
    <defs>
      <clipPath id="leftEyeClipPath">
        <polyline points="27.87,-5.91 27.6,-6.06 27.29,-6.21 26.95,-6.36 26.57,-6.5 26.16,-6.65 25.72,-6.79 25.25,-6.92 24.74,-7.05 24.21,-7.18 23.66,-7.3 23.07,-7.42 22.47,-7.53 21.83,-7.63 21.18,-7.73 20.51,-7.83 19.79,-7.98 19.03,-8.12 18.25,-8.26 17.43,-8.38 16.59,-8.48 15.72,-8.58 14.83,-8.67 13.93,-8.74 13,-8.8 12.06,-8.85 11.1,-8.88 10.14,-8.91 9.16,-8.92 8.19,-8.93 7.2,-8.92 6.22,-8.91 5.24,-8.88 4.26,-8.85 3.29,-8.81 2.32,-8.76 1.36,-8.7 0.42,-8.64 -0.51,-8.57 -1.43,-8.49 -2.33,-8.41 -3.21,-8.32 -4.08,-8.23 -4.92,-8.14 -5.74,-8.04 -6.54,-7.95 -7.32,-7.85 -8.07,-7.74 -8.8,-7.64 -9.5,-7.53 -10.18,-7.43 -10.83,-7.33 -11.46,-7.22 -12.06,-7.12 -12.64,-7.01 -13.19,-6.91 -13.72,-6.81 -14.22,-6.71 -14.7,-6.62 -15.15,-6.52 -15.59,-6.43 -16,-6.34 -16.39,-6.25 -16.77,-6.16 -17.12,-6.08 -17.46,-6 -17.79,-5.92 -18.09,-5.84 -18.39,-5.77 -18.66,-5.69 -18.92,-5.62 -19.17,-5.55 -19.41,-5.48 -19.63,-5.42 -19.83,-5.36 -20.03,-5.3 -20.21,-5.24 -20.39,-5.18 -20.55,-5.13 -20.7,-5.07 -17.66,2.55 -17.38,2.85 -17.08,3.16 -16.78,3.46 -16.47,3.76 -16.14,4.07 -15.81,4.36 -15.47,4.66 -15.11,4.95 -14.75,5.24 -14.37,5.52 -13.99,5.8 -13.59,6.07 -13.18,6.33 -12.76,6.58 -12.33,6.83 -11.89,7.07 -11.43,7.31 -10.96,7.54 -10.47,7.75 -9.97,7.96 -9.46,8.16 -8.93,8.34 -8.38,8.5 -7.82,8.65 -7.25,8.78 -6.66,8.89 -6.05,8.99 -5.43,9.06 -4.79,9.11 -4.14,9.14 -3.47,9.15 -2.79,9.13 -2.1,9.1 -1.39,9.04 -0.67,8.96 0.06,8.85 0.81,8.73 1.56,8.58 2.33,8.41 3.11,8.22 3.89,8.01 4.68,7.78 5.48,7.53 6.29,7.27 7.1,6.99 7.91,6.69 8.72,6.39 9.54,6.07 10.36,5.74 11.18,5.4 11.99,5.05 12.8,4.7 13.61,4.35 14.4,3.99 15.2,3.63 15.98,3.28 16.75,2.92 17.51,2.58 18.25,2.23 18.98,1.9 19.7,1.58 20.39,1.26 21.07,0.96 21.73,0.67 22.31,0.37 22.87,0.07 23.41,-0.23 23.94,-0.52 24.44,-0.81 24.93,-1.09 25.4,-1.37 25.84,-1.65 26.26,-1.92 26.66,-2.18 27.03,-2.44 27.37,-2.7 27.69,-2.95 27.97,-3.19 28.23,-3.43" />
      </clipPath>
      <clipPath id="rightEyeClipPath">
        <polyline points="-29.09,-3.5 -28.86,-3.64 -28.59,-3.79 -28.29,-3.93 -27.96,-4.08 -27.6,-4.22 -27.2,-4.36 -26.77,-4.49 -26.32,-4.62 -25.84,-4.75 -25.32,-4.87 -24.78,-4.98 -24.22,-5.09 -23.63,-5.19 -23.01,-5.29 -22.38,-5.38 -21.74,-5.54 -21.06,-5.69 -20.34,-5.83 -19.59,-5.95 -18.8,-6.06 -17.98,-6.16 -17.13,-6.24 -16.25,-6.31 -15.35,-6.36 -14.42,-6.4 -13.47,-6.43 -12.51,-6.45 -11.53,-6.45 -10.54,-6.44 -9.53,-6.42 -8.52,-6.39 -7.51,-6.35 -6.49,-6.3 -5.47,-6.24 -4.46,-6.17 -3.45,-6.1 -2.44,-6.01 -1.45,-5.92 -0.47,-5.83 0.5,-5.73 1.45,-5.62 2.39,-5.52 3.31,-5.4 4.21,-5.29 5.08,-5.17 5.94,-5.05 6.77,-4.93 7.57,-4.81 8.36,-4.69 9.11,-4.57 9.84,-4.45 10.54,-4.34 11.22,-4.22 11.87,-4.1 12.49,-3.99 13.09,-3.88 13.66,-3.77 14.21,-3.67 14.73,-3.57 15.22,-3.47 15.7,-3.37 16.15,-3.28 16.58,-3.18 16.99,-3.1 17.38,-3.01 17.76,-2.93 18.12,-2.85 18.46,-2.77 18.78,-2.7 19.09,-2.62 19.38,-2.55 19.65,-2.49 19.91,-2.42 20.15,-2.36 20.39,-2.3 20.6,-2.25 20.81,-2.19 21,-2.14 21.18,-2.09 18.42,2.16 18.14,2.33 17.85,2.49 17.56,2.66 17.25,2.82 16.94,2.99 16.61,3.15 16.28,3.32 15.94,3.48 15.58,3.64 15.22,3.79 14.85,3.95 14.47,4.1 14.08,4.24 13.68,4.39 13.27,4.53 12.85,4.67 12.41,4.8 11.96,4.93 11.5,5.06 11.03,5.18 10.54,5.3 10.05,5.41 9.53,5.51 9.01,5.6 8.47,5.69 7.91,5.76 7.34,5.83 6.76,5.88 6.17,5.92 5.56,5.96 4.94,5.98 4.3,5.99 3.65,5.99 2.99,5.97 2.32,5.95 1.63,5.91 0.93,5.86 0.22,5.8 -0.5,5.73 -1.23,5.65 -1.97,5.55 -2.72,5.45 -3.48,5.33 -4.25,5.2 -5.03,5.07 -5.81,4.92 -6.6,4.77 -7.4,4.61 -8.19,4.44 -9,4.27 -9.8,4.09 -10.61,3.91 -11.41,3.72 -12.22,3.53 -13.03,3.34 -13.83,3.14 -14.63,2.95 -15.42,2.75 -16.21,2.56 -16.99,2.37 -17.76,2.18 -18.53,1.99 -19.28,1.81 -20.02,1.63 -20.65,1.45 -21.27,1.27 -21.88,1.1 -22.48,0.92 -23.07,0.75 -23.64,0.57 -24.2,0.4 -24.74,0.23 -25.27,0.05 -25.77,-0.12 -26.26,-0.29 -26.73,-0.45 -27.17,-0.62 -27.59,-0.79 -27.98,-0.95" />
      </clipPath>
      <filter id="fuzzy">
        <feTurbulence id="turbulence" baseFrequency="0.05" numOctaves="3" type="noise" result="noise" />
        <feDisplacementMap in="SourceGraphic" in2="noise" scale="2" />
      </filter>
      <linearGradient id="rainbowGradient" x1="0%" y1="0%" x2="100%" y2="0%">
        <stop offset="0%" style="stop-color: rgb(139, 202, 215); stop-opacity: 1" />
        <stop offset="50%" style="stop-color: rgb(6, 245, 7); stop-opacity: 1" />
        <stop offset="100%" style="stop-color: rgb(173, 200, 26); stop-opacity: 1" />
      </linearGradient>
    </defs>
    <rect x="-100" y="-100" width="100%" height="100%" fill="rgb(242, 166, 207)" />
    <polyline id="faceContour" points="59.76,0.92 59.77,0.32 59.69,2.5 59.72,4.9 59.68,4.64 59.48,7.4 59.59,7.7 59.55,8.16 59.42,9.66 59.19,10.22 59.13,12.59 59.06,12.58 58.73,13.68 58.7,15.51 58.09,18.59 58.45,17.53 58.13,18.68 57.83,19.45 57.17,23.48 57.16,22.4 56.27,26.2 56.26,25.96 56.44,26.39 55.71,28.83 55.99,27.48 55.14,30.79 54.47,32.41 54.59,31.44 53.85,34.25 53.62,34.81 53.61,35.03 52.96,36.19 51.78,38.92 52.42,37.73 51.21,40.74 51.2,40.71 50.4,42.27 50.21,42.66 49.44,43.65 48.95,45 48.65,45.53 47.81,47.02 47.57,47.65 46.52,48.85 45.18,51.21 45.97,49.99 44.37,52.23 44.68,51.8 43.78,53.39 42.71,54.79 42.54,55.15 41.41,56.52 42.12,55.69 40.08,57.95 39.67,58.16 39.48,58.88 38.42,59.95 37.93,60.44 37.35,60.89 37.42,60.91 34.65,63.46 34.34,64.29 34.24,63.81 32.31,65.68 31.79,66.42 31.98,65.97 30.36,67.07 30.28,67.49 28.48,68.86 27.7,69.27 27.69,69.31 25.57,70.63 24.34,71.3 25,70.93 24.5,71.4 23.83,71.79 22.32,72.33 21.03,73.07 20.77,73.31 20.69,73.39 19.29,73.93 17.07,74.93 17.4,74.86 16.44,75.19 14.95,75.59 13.43,76.16 13.32,76.17 11.48,76.58 10.51,76.82 9.85,76.84 9.09,77.06 9.24,76.97 8.72,77.21 5.96,77.51 4.2,77.76 3.58,78.06 4.05,77.83 4.43,77.77 1.79,78.1 1.29,78.04 -0.26,77.95 -1.5,78.01 -0.95,78.13 -1.86,78.1 -3.6,78.08 -4,77.77 -4.65,77.72 -5.61,77.89 -7.32,77.54 -9.18,77.13 -9.48,77.18 -10.36,77.08 -10.86,76.66 -11.78,76.59 -14.33,75.87 -12.8,76.2 -15.54,75.45 -14.15,75.75 -16.83,74.91 -17.37,74.87 -18.15,74.53 -20.26,73.47 -20.63,73.4 -21.93,72.69 -22.72,72.33 -23.13,71.96 -23.85,71.6 -25.44,70.51 -24.72,70.89 -26.19,70.41 -26.95,69.41 -27.15,69.46 -28.13,69.03 -29.1,68.22 -32.01,66.01 -32.11,65.81 -32.39,65.87 -32.36,65.56 -33.62,64.66 -34.05,64 -35.98,62.38 -36.8,61.79 -36.6,61.85 -37.9,60.51 -38.75,59.57 -39.04,59.56 -39.63,58.63 -40.53,57.43 -40.91,57.28 -41.9,55.86 -41.89,55.84 -43.49,53.81 -44.66,52.19 -44.52,52.38 -44.36,52.1 -45.07,51.75 -46.26,49.89 -46.85,49.02 -47.02,48.27 -47.59,47.25 -48.24,46.13 -49.71,43.45 -50.05,43.03 -49.98,42.91 -50.46,41.85 -51.14,40.15 -50.84,40.98 -51.65,39.26 -52.3,37.82 -52.49,37.14 -53.86,34.03 -53.23,35.67 -54.18,33.66 -54.29,32.42 -54.86,31.18 -55.04,30.67 -56,27.66 -56.24,26.49 -56.34,26.44 -56.32,26.86 -56.56,25.37 -56.83,24.49 -57.64,20.75 -57.91,20.06 -58.09,19.49 -58.28,17.81 -58.4,18.01 -58.59,16.63 -58.73,15.2 -58.66,14.83 -59.14,11.42 -59.38,11.2 -59.39,10.08 -59.51,7.87 -59.46,8.52 -59.52,6.52 -59.64,4.73 -59.78,3.61 -59.84,1.65 -59.78,0.23 -59.96,-0.39 -59.79,-1.63 -59.98,-0.43 -59.93,-2.91 -59.84,-4.99 -59.61,-5.73 -59.55,-7.22 -59.44,-8.16 -59.25,-9.64 -59.27,-10.42 -59.3,-10.74 -59.2,-11.97 -58.62,-15.56 -58.44,-16.48 -58.5,-16.49 -57.82,-19.71 -58.42,-17.58 -57.64,-20.45 -57.62,-20.82 -57.12,-23.74 -56.93,-23.98 -56.83,-25.02 -56.26,-27.08 -56.12,-27.52 -55.79,-28.2 -55.15,-30.17 -54.97,-31.13 -54.26,-32.52 -53.92,-33.44 -53.95,-33.65 -53.45,-35.29 -52.72,-36.99 -52.78,-36.95 -51.83,-38.85 -51.38,-40.24 -50.64,-41.38 -50.72,-41.45 -49.71,-43.45 -49.58,-43.52 -49.1,-44.87 -48.47,-45.81 -48.13,-46.74 -47.29,-47.89 -46.06,-49.6 -45.13,-51.22 -46.28,-49.54 -44.88,-51.93 -44.16,-52.45 -43.57,-53.26 -43.75,-53.33 -42.36,-55.3 -41.29,-56.47 -40.71,-57.31 -40.03,-58.17 -39.82,-58.34 -38,-60.18 -39.49,-58.79 -37.11,-60.99 -36.75,-61.8 -35.35,-63.3 -35.17,-63.12 -34.73,-63.6 -33.79,-64.67 -32.49,-65.66 -32.72,-65.44 -31.42,-66.42 -29.71,-67.92 -29.31,-67.96 -28.12,-68.92 -27.21,-69.65 -27.75,-69.14 -25.92,-70.13 -25.47,-70.69 -25.46,-70.51 -22.57,-72.35 -23.15,-72.05 -21.37,-72.96 -20.84,-73.01 -20.29,-73.31 -18.92,-74.14 -19.52,-73.89 -17.89,-74.53 -17.08,-74.97 -15.06,-75.75 -15.48,-75.41 -14.04,-75.8 -12.98,-76.33 -11.1,-76.79 -11.34,-76.46 -11.02,-76.79 -9.65,-77.29 -7.81,-77.48 -7.46,-77.51 -6.39,-77.83 -5.13,-77.86 -3.88,-77.96 -3.35,-78.09 -2.36,-77.93 -0.62,-78.02 -0.31,-77.95 1.61,-78.14 0.46,-78.08 1.54,-78 1.58,-77.98 2.84,-77.95 4.66,-77.86 5.45,-77.82 6.46,-77.54 8.88,-77.13 8.66,-77.16 9.19,-76.99 8.4,-77.42 10.76,-76.78 12.76,-76.15 13.41,-75.98 12.52,-76.3 14.9,-75.51 14.41,-75.77 17.43,-74.87 16.24,-75.12 18.62,-74.02 18.96,-74.18 20.99,-73.05 21.93,-72.45 21.82,-72.5 22.54,-72.39 22.66,-72.44 25.05,-70.72 25.19,-70.96 25.94,-70.57 26.32,-70.24 28.4,-68.73 29.3,-68.07 28.46,-68.6 30.79,-66.99 32.13,-65.91 32.55,-65.69 32.74,-65.36 33.23,-64.89 35.52,-62.83 34.32,-63.66 35.06,-63.25 36.15,-62.05 37.43,-60.64 37.62,-60.71 39.03,-58.74 39.98,-58.46 40.35,-57.92 40.23,-57.5 41.62,-56.24 42.11,-55.05 42.48,-54.89 43.66,-53.01 44.88,-51.59 45.23,-51.1 44.72,-51.38 45.96,-49.77 46.57,-49.31 47.35,-47.6 47.62,-47.22 48.93,-45.13 48.28,-46.17 49.54,-43.72 50.3,-42.11 49.88,-43.02 50.8,-41.09 51.04,-40.84 51.96,-38.42 52.26,-38.28 52.83,-36.16 53.16,-35.45 53.64,-34.78 53.6,-34.41 54.67,-32.24 54.78,-31.79 55.66,-28.33 55.84,-27.98 55.83,-27.63 56.13,-26.81 56.61,-24.81 56.92,-24.11 56.92,-23.3 57.1,-22.99 57.72,-20.45 57.76,-20.43 58.28,-18.33 58.46,-17.44 58.51,-15.54 58.8,-14.65 58.83,-14.09 58.9,-12.64 59.11,-11.11 59.15,-11.03 59.53,-8.25 59.52,-6.91 59.61,-4.83 59.85,-3.71 59.87,-4.11 59.73,-1.76 59.88,-1.28 59.76,0.92 59.77,0.32" fill="rgb(32, 223, 121)" stroke="black" stroke-width="1.6666666666666665" stroke-linejoin="round" filter="url(#fuzzy)" />
    <g transform="translate(35.75 -23.419999999999998)">
      <polyline id="rightCountour" points="-29.09,-3.5 -28.86,-3.64 -28.59,-3.79 -28.29,-3.93 -27.96,-4.08 -27.6,-4.22 -27.2,-4.36 -26.77,-4.49 -26.32,-4.62 -25.84,-4.75 -25.32,-4.87 -24.78,-4.98 -24.22,-5.09 -23.63,-5.19 -23.01,-5.29 -22.38,-5.38 -21.74,-5.54 -21.06,-5.69 -20.34,-5.83 -19.59,-5.95 -18.8,-6.06 -17.98,-6.16 -17.13,-6.24 -16.25,-6.31 -15.35,-6.36 -14.42,-6.4 -13.47,-6.43 -12.51,-6.45 -11.53,-6.45 -10.54,-6.44 -9.53,-6.42 -8.52,-6.39 -7.51,-6.35 -6.49,-6.3 -5.47,-6.24 -4.46,-6.17 -3.45,-6.1 -2.44,-6.01 -1.45,-5.92 -0.47,-5.83 0.5,-5.73 1.45,-5.62 2.39,-5.52 3.31,-5.4 4.21,-5.29 5.08,-5.17 5.94,-5.05 6.77,-4.93 7.57,-4.81 8.36,-4.69 9.11,-4.57 9.84,-4.45 10.54,-4.34 11.22,-4.22 11.87,-4.1 12.49,-3.99 13.09,-3.88 13.66,-3.77 14.21,-3.67 14.73,-3.57 15.22,-3.47 15.7,-3.37 16.15,-3.28 16.58,-3.18 16.99,-3.1 17.38,-3.01 17.76,-2.93 18.12,-2.85 18.46,-2.77 18.78,-2.7 19.09,-2.62 19.38,-2.55 19.65,-2.49 19.91,-2.42 20.15,-2.36 20.39,-2.3 20.6,-2.25 20.81,-2.19 21,-2.14 21.18,-2.09 18.42,2.16 18.14,2.33 17.85,2.49 17.56,2.66 17.25,2.82 16.94,2.99 16.61,3.15 16.28,3.32 15.94,3.48 15.58,3.64 15.22,3.79 14.85,3.95 14.47,4.1 14.08,4.24 13.68,4.39 13.27,4.53 12.85,4.67 12.41,4.8 11.96,4.93 11.5,5.06 11.03,5.18 10.54,5.3 10.05,5.41 9.53,5.51 9.01,5.6 8.47,5.69 7.91,5.76 7.34,5.83 6.76,5.88 6.17,5.92 5.56,5.96 4.94,5.98 4.3,5.99 3.65,5.99 2.99,5.97 2.32,5.95 1.63,5.91 0.93,5.86 0.22,5.8 -0.5,5.73 -1.23,5.65 -1.97,5.55 -2.72,5.45 -3.48,5.33 -4.25,5.2 -5.03,5.07 -5.81,4.92 -6.6,4.77 -7.4,4.61 -8.19,4.44 -9,4.27 -9.8,4.09 -10.61,3.91 -11.41,3.72 -12.22,3.53 -13.03,3.34 -13.83,3.14 -14.63,2.95 -15.42,2.75 -16.21,2.56 -16.99,2.37 -17.76,2.18 -18.53,1.99 -19.28,1.81 -20.02,1.63 -20.65,1.45 -21.27,1.27 -21.88,1.1 -22.48,0.92 -23.07,0.75 -23.64,0.57 -24.2,0.4 -24.74,0.23 -25.27,0.05 -25.77,-0.12 -26.26,-0.29 -26.73,-0.45 -27.17,-0.62 -27.59,-0.79 -27.98,-0.95" fill="white" stroke="white" stroke-width="0" stroke-linejoin="round" filter="url(#fuzzy)" />
    </g>
    <g transform="translate(-30.34 -21.979999999999997)">
      <polyline id="leftCountour" points="27.87,-5.91 27.6,-6.06 27.29,-6.21 26.95,-6.36 26.57,-6.5 26.16,-6.65 25.72,-6.79 25.25,-6.92 24.74,-7.05 24.21,-7.18 23.66,-7.3 23.07,-7.42 22.47,-7.53 21.83,-7.63 21.18,-7.73 20.51,-7.83 19.79,-7.98 19.03,-8.12 18.25,-8.26 17.43,-8.38 16.59,-8.48 15.72,-8.58 14.83,-8.67 13.93,-8.74 13,-8.8 12.06,-8.85 11.1,-8.88 10.14,-8.91 9.16,-8.92 8.19,-8.93 7.2,-8.92 6.22,-8.91 5.24,-8.88 4.26,-8.85 3.29,-8.81 2.32,-8.76 1.36,-8.7 0.42,-8.64 -0.51,-8.57 -1.43,-8.49 -2.33,-8.41 -3.21,-8.32 -4.08,-8.23 -4.92,-8.14 -5.74,-8.04 -6.54,-7.95 -7.32,-7.85 -8.07,-7.74 -8.8,-7.64 -9.5,-7.53 -10.18,-7.43 -10.83,-7.33 -11.46,-7.22 -12.06,-7.12 -12.64,-7.01 -13.19,-6.91 -13.72,-6.81 -14.22,-6.71 -14.7,-6.62 -15.15,-6.52 -15.59,-6.43 -16,-6.34 -16.39,-6.25 -16.77,-6.16 -17.12,-6.08 -17.46,-6 -17.79,-5.92 -18.09,-5.84 -18.39,-5.77 -18.66,-5.69 -18.92,-5.62 -19.17,-5.55 -19.41,-5.48 -19.63,-5.42 -19.83,-5.36 -20.03,-5.3 -20.21,-5.24 -20.39,-5.18 -20.55,-5.13 -20.7,-5.07 -17.66,2.55 -17.38,2.85 -17.08,3.16 -16.78,3.46 -16.47,3.76 -16.14,4.07 -15.81,4.36 -15.47,4.66 -15.11,4.95 -14.75,5.24 -14.37,5.52 -13.99,5.8 -13.59,6.07 -13.18,6.33 -12.76,6.58 -12.33,6.83 -11.89,7.07 -11.43,7.31 -10.96,7.54 -10.47,7.75 -9.97,7.96 -9.46,8.16 -8.93,8.34 -8.38,8.5 -7.82,8.65 -7.25,8.78 -6.66,8.89 -6.05,8.99 -5.43,9.06 -4.79,9.11 -4.14,9.14 -3.47,9.15 -2.79,9.13 -2.1,9.1 -1.39,9.04 -0.67,8.96 0.06,8.85 0.81,8.73 1.56,8.58 2.33,8.41 3.11,8.22 3.89,8.01 4.68,7.78 5.48,7.53 6.29,7.27 7.1,6.99 7.91,6.69 8.72,6.39 9.54,6.07 10.36,5.74 11.18,5.4 11.99,5.05 12.8,4.7 13.61,4.35 14.4,3.99 15.2,3.63 15.98,3.28 16.75,2.92 17.51,2.58 18.25,2.23 18.98,1.9 19.7,1.58 20.39,1.26 21.07,0.96 21.73,0.67 22.31,0.37 22.87,0.07 23.41,-0.23 23.94,-0.52 24.44,-0.81 24.93,-1.09 25.4,-1.37 25.84,-1.65 26.26,-1.92 26.66,-2.18 27.03,-2.44 27.37,-2.7 27.69,-2.95 27.97,-3.19 28.23,-3.43" fill="white" stroke="white" stroke-width="0" stroke-linejoin="round" filter="url(#fuzzy)" />
    </g>
    <g transform="translate(35.75 -23.419999999999998)">
      <polyline id="rightUpper" points="-29.48,-2.17 -29.61,-2.28 -29.69,-2.39 -29.74,-2.51 -29.76,-2.64 -29.74,-2.78 -29.68,-2.91 -29.59,-3.06 -29.46,-3.2 -29.29,-3.35 -29.09,-3.5 -28.86,-3.64 -28.59,-3.79 -28.29,-3.93 -27.96,-4.08 -27.6,-4.22 -27.2,-4.36 -26.77,-4.49 -26.32,-4.62 -25.84,-4.75 -25.32,-4.87 -24.78,-4.98 -24.22,-5.09 -23.63,-5.19 -23.01,-5.29 -22.38,-5.38 -21.74,-5.54 -21.06,-5.69 -20.34,-5.83 -19.59,-5.95 -18.8,-6.06 -17.98,-6.16 -17.13,-6.24 -16.25,-6.31 -15.35,-6.36 -14.42,-6.4 -13.47,-6.43 -12.51,-6.45 -11.53,-6.45 -10.54,-6.44 -9.53,-6.42 -8.52,-6.39 -7.51,-6.35 -6.49,-6.3 -5.47,-6.24 -4.46,-6.17 -3.45,-6.1 -2.44,-6.01 -1.45,-5.92 -0.47,-5.83 0.5,-5.73 1.45,-5.62 2.39,-5.52 3.31,-5.4 4.21,-5.29 5.08,-5.17 5.94,-5.05 6.77,-4.93 7.57,-4.81 8.36,-4.69 9.11,-4.57 9.84,-4.45 10.54,-4.34 11.22,-4.22 11.87,-4.1 12.49,-3.99 13.09,-3.88 13.66,-3.77 14.21,-3.67 14.73,-3.57 15.22,-3.47 15.7,-3.37 16.15,-3.28 16.58,-3.18 16.99,-3.1 17.38,-3.01 17.76,-2.93 18.12,-2.85 18.46,-2.77 18.78,-2.7 19.09,-2.62 19.38,-2.55 19.65,-2.49 19.91,-2.42 20.15,-2.36 20.39,-2.3 20.6,-2.25 20.81,-2.19 21,-2.14 21.18,-2.09 21.35,-2.04 21.51,-2 21.66,-1.96 21.8,-1.91 21.93,-1.88 22.06,-1.84 22.17,-1.8 22.28,-1.77 22.38,-1.73 22.47,-1.7" fill="none" stroke="black" stroke-width="1.6666666666666665" stroke-linejoin="round" filter="url(#fuzzy)" />
      <polyline id="rightLower" points="-30.23,-2.57 -30.17,-2.41 -30.07,-2.25 -29.93,-2.09 -29.75,-1.93 -29.53,-1.77 -29.29,-1.61 -29.01,-1.44 -28.69,-1.28 -28.35,-1.12 -27.98,-0.95 -27.59,-0.79 -27.17,-0.62 -26.73,-0.45 -26.26,-0.29 -25.77,-0.12 -25.27,0.05 -24.74,0.23 -24.2,0.4 -23.64,0.57 -23.07,0.75 -22.48,0.92 -21.88,1.1 -21.27,1.27 -20.65,1.45 -20.02,1.63 -19.28,1.81 -18.53,1.99 -17.76,2.18 -16.99,2.37 -16.21,2.56 -15.42,2.75 -14.63,2.95 -13.83,3.14 -13.03,3.34 -12.22,3.53 -11.41,3.72 -10.61,3.91 -9.8,4.09 -9,4.27 -8.19,4.44 -7.4,4.61 -6.6,4.77 -5.81,4.92 -5.03,5.07 -4.25,5.2 -3.48,5.33 -2.72,5.45 -1.97,5.55 -1.23,5.65 -0.5,5.73 0.22,5.8 0.93,5.86 1.63,5.91 2.32,5.95 2.99,5.97 3.65,5.99 4.3,5.99 4.94,5.98 5.56,5.96 6.17,5.92 6.76,5.88 7.34,5.83 7.91,5.76 8.47,5.69 9.01,5.6 9.53,5.51 10.05,5.41 10.54,5.3 11.03,5.18 11.5,5.06 11.96,4.93 12.41,4.8 12.85,4.67 13.27,4.53 13.68,4.39 14.08,4.24 14.47,4.1 14.85,3.95 15.22,3.79 15.58,3.64 15.94,3.48 16.28,3.32 16.61,3.15 16.94,2.99 17.25,2.82 17.56,2.66 17.85,2.49 18.14,2.33 18.42,2.16 18.69,2 18.96,1.83 19.21,1.67 19.46,1.51 19.7,1.35 19.93,1.19 20.16,1.03 20.37,0.88 20.59,0.73 20.79,0.57" fill="none" stroke="black" stroke-width="2.2222222222222223" stroke-linejoin="round" filter="url(#fuzzy)" />
      <circle r="3.2720000000000002" cx="-0.33616645920696886" cy="2.1515079590483843" stroke="black" fill="none" stroke-width="1.0" filter="url(#fuzzy)" clip-path="url(#rightEyeClipPath)" /><circle r="4.704" cx="-0.21116645920696975" cy="0.21650795904838382" stroke="black" fill="none" stroke-width="1.0" filter="url(#fuzzy)" clip-path="url(#rightEyeClipPath)" /><circle r="4.71" cx="-3.826166459206969" cy="3.2765079590483843" stroke="black" fill="none" stroke-width="1.0" filter="url(#fuzzy)" clip-path="url(#rightEyeClipPath)" /><circle r="3.608" cx="-1.2761664592069693" cy="1.2815079590483842" stroke="black" fill="none" stroke-width="1.0" filter="url(#fuzzy)" clip-path="url(#rightEyeClipPath)" /><circle r="3.408" cx="-2.571166459206969" cy="2.576507959048384" stroke="black" fill="none" stroke-width="1.0" filter="url(#fuzzy)" clip-path="url(#rightEyeClipPath)" /><circle r="4.186" cx="-4.136166459206969" cy="3.866507959048384" stroke="black" fill="none" stroke-width="1.0" filter="url(#fuzzy)" clip-path="url(#rightEyeClipPath)" /><circle r="4.008" cx="-1.9361664592069694" cy="4.196507959048384" stroke="black" fill="none" stroke-width="1.0" filter="url(#fuzzy)" clip-path="url(#rightEyeClipPath)" /><circle r="4.168" cx="-3.536166459206969" cy="4.4365079590483845" stroke="black" fill="none" stroke-width="1.0" filter="url(#fuzzy)" clip-path="url(#rightEyeClipPath)" /><circle r="3.054" cx="-4.561166459206969" cy="1.661507959048384" stroke="black" fill="none" stroke-width="1.0" filter="url(#fuzzy)" clip-path="url(#rightEyeClipPath)" /><circle r="3.98" cx="-3.7311664592069693" cy="2.1115079590483843" stroke="black" fill="none" stroke-width="1.0" filter="url(#fuzzy)" clip-path="url(#rightEyeClipPath)" />
      </g>
    <g transform="translate(-30.34 -21.979999999999997)">
      <polyline id="leftUpper" points="28.34,-4.45 28.49,-4.58 28.6,-4.71 28.66,-4.85 28.67,-5 28.64,-5.15 28.57,-5.3 28.46,-5.45 28.3,-5.6 28.11,-5.75 27.87,-5.91 27.6,-6.06 27.29,-6.21 26.95,-6.36 26.57,-6.5 26.16,-6.65 25.72,-6.79 25.25,-6.92 24.74,-7.05 24.21,-7.18 23.66,-7.3 23.07,-7.42 22.47,-7.53 21.83,-7.63 21.18,-7.73 20.51,-7.83 19.79,-7.98 19.03,-8.12 18.25,-8.26 17.43,-8.38 16.59,-8.48 15.72,-8.58 14.83,-8.67 13.93,-8.74 13,-8.8 12.06,-8.85 11.1,-8.88 10.14,-8.91 9.16,-8.92 8.19,-8.93 7.2,-8.92 6.22,-8.91 5.24,-8.88 4.26,-8.85 3.29,-8.81 2.32,-8.76 1.36,-8.7 0.42,-8.64 -0.51,-8.57 -1.43,-8.49 -2.33,-8.41 -3.21,-8.32 -4.08,-8.23 -4.92,-8.14 -5.74,-8.04 -6.54,-7.95 -7.32,-7.85 -8.07,-7.74 -8.8,-7.64 -9.5,-7.53 -10.18,-7.43 -10.83,-7.33 -11.46,-7.22 -12.06,-7.12 -12.64,-7.01 -13.19,-6.91 -13.72,-6.81 -14.22,-6.71 -14.7,-6.62 -15.15,-6.52 -15.59,-6.43 -16,-6.34 -16.39,-6.25 -16.77,-6.16 -17.12,-6.08 -17.46,-6 -17.79,-5.92 -18.09,-5.84 -18.39,-5.77 -18.66,-5.69 -18.92,-5.62 -19.17,-5.55 -19.41,-5.48 -19.63,-5.42 -19.83,-5.36 -20.03,-5.3 -20.21,-5.24 -20.39,-5.18 -20.55,-5.13 -20.7,-5.07 -20.84,-5.02 -20.98,-4.97 -21.1,-4.92 -21.22,-4.88 -21.33,-4.83 -21.43,-4.79 -21.52,-4.75 -21.61,-4.71 -21.69,-4.67 -21.76,-4.64" fill="none" stroke="black" stroke-width="2.2222222222222223" stroke-linejoin="round" filter="url(#fuzzy)" />
      <polyline id="leftLower" points="28.73,-5.67 28.87,-5.45 28.96,-5.24 29.01,-5.02 29.01,-4.8 28.98,-4.58 28.9,-4.36 28.79,-4.13 28.64,-3.9 28.45,-3.67 28.23,-3.43 27.97,-3.19 27.69,-2.95 27.37,-2.7 27.03,-2.44 26.66,-2.18 26.26,-1.92 25.84,-1.65 25.4,-1.37 24.93,-1.09 24.44,-0.81 23.94,-0.52 23.41,-0.23 22.87,0.07 22.31,0.37 21.73,0.67 21.07,0.96 20.39,1.26 19.7,1.58 18.98,1.9 18.25,2.23 17.51,2.58 16.75,2.92 15.98,3.28 15.2,3.63 14.4,3.99 13.61,4.35 12.8,4.7 11.99,5.05 11.18,5.4 10.36,5.74 9.54,6.07 8.72,6.39 7.91,6.69 7.1,6.99 6.29,7.27 5.48,7.53 4.68,7.78 3.89,8.01 3.11,8.22 2.33,8.41 1.56,8.58 0.81,8.73 0.06,8.85 -0.67,8.96 -1.39,9.04 -2.1,9.1 -2.79,9.13 -3.47,9.15 -4.14,9.14 -4.79,9.11 -5.43,9.06 -6.05,8.99 -6.66,8.89 -7.25,8.78 -7.82,8.65 -8.38,8.5 -8.93,8.34 -9.46,8.16 -9.97,7.96 -10.47,7.75 -10.96,7.54 -11.43,7.31 -11.89,7.07 -12.33,6.83 -12.76,6.58 -13.18,6.33 -13.59,6.07 -13.99,5.8 -14.37,5.52 -14.75,5.24 -15.11,4.95 -15.47,4.66 -15.81,4.36 -16.14,4.07 -16.47,3.76 -16.78,3.46 -17.08,3.16 -17.38,2.85 -17.66,2.55 -17.94,2.25 -18.2,1.94 -18.46,1.64 -18.71,1.34 -18.95,1.05 -19.18,0.75 -19.41,0.46 -19.63,0.18 -19.84,-0.11 -20.04,-0.39" fill="none" stroke="black" stroke-width="2.2222222222222223" stroke-linejoin="round" filter="url(#fuzzy)" />
      <circle r="4.1899999999999995" cx="-2.618012972581817" cy="-5.727054557109366" stroke="black" fill="none" stroke-width="1.0" filter="url(#fuzzy)" clip-path="url(#leftEyeClipPath)" /><circle r="4.246" cx="-4.213012972581817" cy="-7.242054557109366" stroke="black" fill="none" stroke-width="1.0" filter="url(#fuzzy)" clip-path="url(#leftEyeClipPath)" /><circle r="3.9379999999999997" cx="-5.168012972581817" cy="-6.8170545571093655" stroke="black" fill="none" stroke-width="1.0" filter="url(#fuzzy)" clip-path="url(#leftEyeClipPath)" /><circle r="3.808" cx="-1.5330129725818176" cy="-6.067054557109366" stroke="black" fill="none" stroke-width="1.0" filter="url(#fuzzy)" clip-path="url(#leftEyeClipPath)" /><circle r="3.002" cx="-1.168012972581817" cy="-4.782054557109365" stroke="black" fill="none" stroke-width="1.0" filter="url(#fuzzy)" clip-path="url(#leftEyeClipPath)" /><circle r="4.47" cx="-3.6280129725818173" cy="-3.157054557109366" stroke="black" fill="none" stroke-width="1.0" filter="url(#fuzzy)" clip-path="url(#leftEyeClipPath)" /><circle r="4.656" cx="-3.3880129725818176" cy="-4.892054557109366" stroke="black" fill="none" stroke-width="1.0" filter="url(#fuzzy)" clip-path="url(#leftEyeClipPath)" /><circle r="3.716" cx="-1.6430129725818174" cy="-6.137054557109366" stroke="black" fill="none" stroke-width="1.0" filter="url(#fuzzy)" clip-path="url(#leftEyeClipPath)" /><circle r="3.662" cx="-3.008012972581817" cy="-4.672054557109366" stroke="black" fill="none" stroke-width="1.0" filter="url(#fuzzy)" clip-path="url(#leftEyeClipPath)" /><circle r="3.23" cx="-4.568012972581817" cy="-2.627054557109366" stroke="black" fill="none" stroke-width="1.0" filter="url(#fuzzy)" clip-path="url(#leftEyeClipPath)" />
    </g>
    <g id="hairs">
      <polyline points="17.43,-74.87 17.39,-74.7 18.37,-74.16 19.63,-73.48 20.91,-72.76 22.11,-72.04 23.25,-71.35 24.36,-70.65 25.49,-69.94 26.63,-69.21 27.78,-68.46 28.88,-67.71 29.92,-67 30.86,-66.34 31.69,-65.75 32.37,-65.27 32.92,-64.9 33.33,-64.64 33.57,-64.5 33.62,-64.51 33.47,-64.69 33.13,-65.03 32.67,-65.47" fill="none" stroke="rgb(72, 19, 134)" stroke-width="2" stroke-linejoin="round" filter="url(#fuzzy)" /><polyline points="-11.02,-76.79 -9.61,-77.15 -8.25,-77.36 -6.95,-77.51 -5.64,-77.62 -4.31,-77.69 -2.99,-77.74 -1.7,-77.77 -0.48,-77.78 0.63,-77.79 1.61,-77.79 2.4,-77.8 2.98,-77.81 3.34,-77.82 3.48,-77.85 3.43,-77.88 3.2,-77.9 2.8,-77.93 2.28,-77.96 1.75,-78.02" fill="none" stroke="rgb(72, 19, 134)" stroke-width="2" stroke-linejoin="round" filter="url(#fuzzy)" /><polyline points="-17.08,-74.97 -15.69,-75.39 -14.49,-75.58 -13.05,-75.76 -11.39,-75.94 -9.63,-76.08 -7.8,-76.19 -5.89,-76.28 -3.93,-76.36 -1.92,-76.44 0.07,-76.51 1.99,-76.57 3.82,-76.61 5.51,-76.62 7.05,-76.61 8.48,-76.58 9.76,-76.53 10.72,-76.53" fill="none" stroke="rgb(72, 19, 134)" stroke-width="2" stroke-linejoin="round" filter="url(#fuzzy)" /><polyline points="8.4,-77.42 10.37,-76.86 11.65,-76.47 12.39,-76.23 12.84,-76.05 13.16,-75.87 13.36,-75.66 13.43,-75.44 13.3,-75.19 12.96,-74.94 12.34,-74.68 11.42,-74.46 10.14,-74.28 8.49,-74.15 6.43,-74.05 3.99,-73.98 1.16,-73.92 -2.09,-73.87 -5.82,-73.81 -10.02,-73.76 -14.56,-73.77" fill="none" stroke="rgb(72, 19, 134)" stroke-width="2" stroke-linejoin="round" filter="url(#fuzzy)" /><polyline points="47.35,-47.6 47.82,-46.87 48.34,-45.98 48.83,-45.08 49.29,-44.19 49.68,-43.4 50,-42.75 50.23,-42.25 50.36,-41.92 50.37,-41.78 50.21,-41.92 49.87,-42.38 49.33,-43.22 48.59,-44.44 47.66,-46.06 46.45,-48.15 44.77,-50.98" fill="none" stroke="rgb(72, 19, 134)" stroke-width="2" stroke-linejoin="round" filter="url(#fuzzy)" /><polyline points="39.98,-58.46 40.27,-57.93 40.68,-57.26 41.18,-56.52 41.68,-55.8 42.11,-55.15 42.41,-54.64 42.55,-54.34 42.47,-54.29 42.17,-54.49 41.64,-54.94 40.88,-55.63 39.83,-56.6 38.46,-57.89 36.74,-59.56 34.66,-61.61 32.18,-64.11 29.2,-67.12" fill="none" stroke="rgb(72, 19, 134)" stroke-width="2" stroke-linejoin="round" filter="url(#fuzzy)" /><polyline points="-23.15,-72.05 -21.68,-72.65 -20.31,-73.02 -18.77,-73.34 -17,-73.64 -14.96,-73.94 -12.67,-74.24 -10.17,-74.55 -7.57,-74.84 -4.91,-75.13 -2.25,-75.39 0.37,-75.63 2.92,-75.84 5.35,-76.02 7.73,-76.13 10.23,-76.18" fill="none" stroke="rgb(72, 19, 134)" stroke-width="2" stroke-linejoin="round" filter="url(#fuzzy)" /><polyline points="1.54,-78 2.05,-77.97 3.11,-77.9 4.35,-77.78 5.59,-77.63 6.74,-77.46 7.73,-77.3 8.57,-77.15 9.29,-77.02 9.93,-76.88 10.5,-76.75 11,-76.62 11.37,-76.51 11.59,-76.42 11.61,-76.37 11.42,-76.34 10.99,-76.35 10.32,-76.38 9.43,-76.44 8.33,-76.54 7.07,-76.69 5.62,-76.9 3.9,-77.2 1.78,-77.57" fill="none" stroke="rgb(72, 19, 134)" stroke-width="2" stroke-linejoin="round" filter="url(#fuzzy)" /><polyline points="-3.88,-77.96 -3.08,-77.96 -1.81,-77.83 -0.33,-77.64 1.19,-77.4 2.69,-77.12 4.19,-76.79 5.76,-76.42 7.44,-76.03 9.24,-75.63 11.11,-75.23 12.98,-74.83 14.75,-74.44 16.34,-74.08 17.68,-73.77 18.77,-73.53 19.71,-73.28 20.71,-72.94" fill="none" stroke="rgb(72, 19, 134)" stroke-width="2" stroke-linejoin="round" filter="url(#fuzzy)" /><polyline points="4.66,-77.86 5.6,-77.73 6.78,-77.5 7.88,-77.27 8.8,-77.08 9.62,-76.91 10.44,-76.73 11.29,-76.53 12.11,-76.33 12.81,-76.15 13.36,-76 13.73,-75.89 13.92,-75.83 13.89,-75.81 13.64,-75.83 13.16,-75.91 12.47,-76.03 11.54,-76.23 10.18,-76.55 8.11,-77.07" fill="none" stroke="rgb(72, 19, 134)" stroke-width="2" stroke-linejoin="round" filter="url(#fuzzy)" /><polyline points="-29.71,-67.92 -29.03,-68.25 -28.08,-68.78 -27.04,-69.31 -25.89,-69.83 -24.61,-70.38 -23.19,-70.99 -21.68,-71.63 -20.12,-72.29 -18.56,-72.94 -17.02,-73.55 -15.52,-74.11 -14.07,-74.64 -12.67,-75.14 -11.34,-75.6 -10.11,-76.03 -9.02,-76.43 -8.11,-76.79 -7.42,-77.1 -6.97,-77.34 -6.79,-77.52 -6.94,-77.6" fill="none" stroke="rgb(72, 19, 134)" stroke-width="2" stroke-linejoin="round" filter="url(#fuzzy)" /><polyline points="-18.92,-74.14 -18.73,-74.18 -17.72,-74.52 -16.4,-74.91 -15,-75.26 -13.54,-75.58 -12.06,-75.88 -10.57,-76.15 -9.11,-76.41 -7.68,-76.66 -6.28,-76.88 -4.93,-77.09 -3.66,-77.29 -2.53,-77.48 -1.58,-77.64 -0.84,-77.78 -0.3,-77.88 0.06,-77.96 0.32,-78.01 0.51,-78.04 0.52,-78.04" fill="none" stroke="rgb(72, 19, 134)" stroke-width="2" stroke-linejoin="round" filter="url(#fuzzy)" /><polyline points="45.23,-51.1 45.1,-50.89 45.14,-50.28 44.93,-49.67 44.33,-49.15 43.3,-48.8 41.81,-48.61 39.86,-48.59 37.42,-48.74 34.51,-49.06 31.1,-49.55 27.21,-50.23 22.81,-51.07 17.89,-52.08 12.41,-53.25 6.31,-54.61 -0.45,-56.17 -7.87,-57.93 -15.9,-59.95 -24.45,-62.24" fill="none" stroke="rgb(72, 19, 134)" stroke-width="2" stroke-linejoin="round" filter="url(#fuzzy)" /><polyline points="44.88,-51.59 44.93,-51.29 44.8,-50.95 44.56,-50.51 44.1,-50.04 43.31,-49.66 42.14,-49.42 40.57,-49.33 38.58,-49.41 36.17,-49.67 33.3,-50.09 29.97,-50.67 26.18,-51.42 21.91,-52.31 17.17,-53.38 11.95,-54.64 6.23,-56.13 -0.01,-57.88 -6.81,-59.87 -14.23,-62.04 -22.34,-64.31" fill="none" stroke="rgb(72, 19, 134)" stroke-width="2" stroke-linejoin="round" filter="url(#fuzzy)" /><polyline points="-25.46,-70.51 -23.67,-71.65 -22.68,-72.22 -21.9,-72.61 -21.24,-72.92 -20.7,-73.17 -20.29,-73.36 -19.98,-73.47 -19.77,-73.51 -19.71,-73.44 -19.84,-73.23 -20.23,-72.85 -20.93,-72.29 -21.95,-71.52 -23.34,-70.56 -25.09,-69.4 -27.22,-68.03 -29.69,-66.46 -32.41,-64.81" fill="none" stroke="rgb(72, 19, 134)" stroke-width="2" stroke-linejoin="round" filter="url(#fuzzy)" /><polyline points="2.84,-77.95 4.31,-77.85 5.62,-77.67 6.88,-77.43 8.03,-77.2 9.03,-76.99 9.94,-76.79 10.81,-76.59 11.66,-76.39 12.46,-76.2 13.14,-76.04 13.66,-75.91 13.99,-75.82 14.13,-75.77 14.06,-75.77 13.72,-75.84 13.06,-75.98 12.15,-76.19 11.1,-76.44 10.02,-76.74" fill="none" stroke="rgb(72, 19, 134)" stroke-width="2" stroke-linejoin="round" filter="url(#fuzzy)" /><polyline points="-17.08,-74.97 -15.76,-75.41 -14.76,-75.66 -13.65,-75.94 -12.46,-76.24 -11.31,-76.53 -10.26,-76.78 -9.31,-77.02 -8.44,-77.24 -7.69,-77.42 -7.12,-77.55 -6.79,-77.63 -6.77,-77.62 -7.1,-77.54 -7.81,-77.37 -8.85,-77.11 -10.03,-76.85" fill="none" stroke="rgb(72, 19, 134)" stroke-width="2" stroke-linejoin="round" filter="url(#fuzzy)" /><polyline points="52.83,-36.16 53.04,-35.65 52.99,-35.38 52.69,-35.25 52.09,-35.3 51.12,-35.65 49.74,-36.46 47.89,-37.83 45.57,-39.81 42.78,-42.37 39.52,-45.5 35.73,-49.21 31.36,-53.55 26.34,-58.54 20.76,-64.14 14.86,-70.32" fill="none" stroke="rgb(72, 19, 134)" stroke-width="2" stroke-linejoin="round" filter="url(#fuzzy)" /><polyline points="4.66,-77.86 5.65,-77.68 6.97,-77.3 8.31,-76.85 9.58,-76.34 10.89,-75.76 12.34,-75.09 13.94,-74.33 15.64,-73.53 17.36,-72.69 19.09,-71.85 20.8,-70.99 22.5,-70.13 24.17,-69.26 25.79,-68.41 27.32,-67.61 28.71,-66.88 29.94,-66.25 30.98,-65.73 31.87,-65.3 32.67,-64.88 33.36,-64.53" fill="none" stroke="rgb(72, 19, 134)" stroke-width="2" stroke-linejoin="round" filter="url(#fuzzy)" /><polyline points="1.54,-78 1.97,-77.97 2.81,-77.89 3.67,-77.76 4.39,-77.56 4.86,-77.32 5.02,-77.05 4.84,-76.76 4.36,-76.42 3.62,-76.02 2.64,-75.55 1.38,-75 -0.19,-74.39 -2.11,-73.74 -4.38,-73.03 -7.04,-72.25 -10.1,-71.38 -13.63,-70.38 -17.7,-69.23 -22.32,-67.93 -27.38,-66.6" fill="none" stroke="rgb(72, 19, 134)" stroke-width="2" stroke-linejoin="round" filter="url(#fuzzy)" /><polyline points="32.13,-65.91 32.47,-65.66 32.85,-65.28 33.25,-64.85 33.52,-64.51 33.59,-64.33 33.46,-64.28 33.15,-64.35 32.61,-64.58 31.79,-65 30.58,-65.72 28.85,-66.82 26.53,-68.33 23.61,-70.24 20.33,-72.49" fill="none" stroke="rgb(72, 19, 134)" stroke-width="2" stroke-linejoin="round" filter="url(#fuzzy)" /><polyline points="-27.21,-69.65 -27.01,-69.64 -26.18,-70.07 -25.18,-70.64 -24.09,-71.26 -22.95,-71.89 -21.85,-72.47 -20.83,-72.99 -19.93,-73.44 -19.18,-73.82 -18.59,-74.13 -18.15,-74.36 -17.87,-74.52 -17.75,-74.58 -17.82,-74.52 -18.11,-74.35 -18.67,-74.06 -19.55,-73.63 -20.91,-73.04" fill="none" stroke="rgb(72, 19, 134)" stroke-width="2" stroke-linejoin="round" filter="url(#fuzzy)" /><polyline points="-12.98,-76.33 -11.84,-76.56 -11.25,-76.67 -10.67,-76.81 -10.03,-76.95 -9.42,-77.04 -8.94,-77.06 -8.65,-76.98 -8.59,-76.81 -8.81,-76.52 -9.32,-76.12 -10.14,-75.6 -11.31,-74.97 -12.84,-74.24 -14.77,-73.42 -17.12,-72.47 -19.9,-71.37 -23.13,-70.08 -26.87,-68.52" fill="none" stroke="rgb(72, 19, 134)" stroke-width="2" stroke-linejoin="round" filter="url(#fuzzy)" /><polyline points="-17.89,-74.53 -16.67,-74.88 -15,-74.96 -12.99,-74.8 -10.59,-74.49 -7.83,-74.05 -4.78,-73.47 -1.48,-72.78 2.07,-71.96 5.86,-71.05 9.86,-70.06 13.98,-69.01 18.15,-67.93 22.31,-66.87 26.4,-65.84 30.38,-64.83" fill="none" stroke="rgb(72, 19, 134)" stroke-width="2" stroke-linejoin="round" filter="url(#fuzzy)" /><polyline points="44.72,-51.38 45.63,-50.2 46.16,-49.36 46.4,-48.71 46.38,-48.27 46.1,-48.05 45.56,-48.05 44.75,-48.27 43.64,-48.73 42.23,-49.45 40.51,-50.42 38.48,-51.65 36.13,-53.14 33.42,-54.92 30.29,-57.06 26.68,-59.59 22.53,-62.52 17.86,-65.84 12.68,-69.51 7.12,-73.55" fill="none" stroke="rgb(72, 19, 134)" stroke-width="2" stroke-linejoin="round" filter="url(#fuzzy)" /><polyline points="29.3,-68.07 29.46,-67.91 30.44,-67.18 31.42,-66.43 32.24,-65.76 32.92,-65.17 33.5,-64.63 34,-64.15 34.41,-63.74 34.74,-63.39 34.97,-63.11 35.08,-62.92 35.04,-62.86 34.81,-62.95 34.35,-63.24 33.63,-63.72 32.65,-64.4 31.41,-65.28 29.89,-66.35 28.11,-67.63 26.11,-69.11 24.01,-70.71" fill="none" stroke="rgb(72, 19, 134)" stroke-width="2" stroke-linejoin="round" filter="url(#fuzzy)" /><polyline points="47.35,-47.6 47.6,-46.97 47.45,-46.37 46.81,-45.92 45.67,-45.62 44,-45.51 41.78,-45.6 39.02,-45.89 35.7,-46.36 31.8,-47.01 27.28,-47.88 22.1,-49 16.21,-50.37 9.58,-51.99 2.21,-53.85 -5.87,-55.94 -14.65,-58.29 -24.23,-60.86" fill="none" stroke="rgb(72, 19, 134)" stroke-width="2" stroke-linejoin="round" filter="url(#fuzzy)" /><polyline points="28.4,-68.73 28.95,-68.3 29.65,-67.76 30.58,-67.04 31.53,-66.3 32.37,-65.62 33.07,-65.01 33.65,-64.49 34.12,-64.04 34.47,-63.69 34.71,-63.45 34.82,-63.31 34.76,-63.32 34.48,-63.51 33.92,-63.93 33.04,-64.63 31.83,-65.62 30.22,-66.94 28.17,-68.64" fill="none" stroke="rgb(72, 19, 134)" stroke-width="2" stroke-linejoin="round" filter="url(#fuzzy)" /><polyline points="-19.52,-73.89 -18.08,-74.44 -16.67,-74.88 -15.24,-75.22 -13.76,-75.48 -12.19,-75.7 -10.56,-75.91 -8.91,-76.11 -7.27,-76.29 -5.62,-76.46 -3.97,-76.62 -2.32,-76.77 -0.71,-76.89 0.83,-76.99 2.24,-77.08 3.47,-77.16 4.51,-77.24 5.39,-77.3 6.18,-77.32 6.87,-77.33 7.23,-77.36" fill="none" stroke="rgb(72, 19, 134)" stroke-width="2" stroke-linejoin="round" filter="url(#fuzzy)" /><polyline points="28.46,-68.6 30.22,-67.33 31.2,-66.55 31.66,-66.06 31.81,-65.72 31.71,-65.46 31.37,-65.3 30.8,-65.24 30,-65.26 28.98,-65.37 27.73,-65.58 26.17,-65.91 24.24,-66.4 21.88,-67.09 19.04,-67.98 15.73,-69.07 11.93,-70.34 7.64,-71.8 2.87,-73.45 -2.35,-75.31" fill="none" stroke="rgb(72, 19, 134)" stroke-width="2" stroke-linejoin="round" filter="url(#fuzzy)" /><polyline points="30.79,-66.99 31.5,-66.24 31.36,-65.73 30.61,-65.21 29.33,-64.65 27.44,-64.07 24.9,-63.49 21.72,-62.89 17.89,-62.21 13.36,-61.45 8.08,-60.66 2.01,-59.88 -4.88,-59.16 -12.66,-58.51 -21.32,-57.89 -30.86,-57.22" fill="none" stroke="rgb(72, 19, 134)" stroke-width="2" stroke-linejoin="round" filter="url(#fuzzy)" /><polyline points="-15.48,-75.41 -14.02,-75.71 -12.36,-75.78 -10.58,-75.58 -8.61,-75.16 -6.36,-74.57 -3.8,-73.84 -0.95,-72.98 2.15,-71.98 5.42,-70.85 8.83,-69.61 12.36,-68.27 15.98,-66.82 19.69,-65.28 23.44,-63.69 27.17,-62.09 30.81,-60.56 34.35,-59.11 37.9,-57.65" fill="none" stroke="rgb(72, 19, 134)" stroke-width="2" stroke-linejoin="round" filter="url(#fuzzy)" /><polyline points="-6.39,-77.83 -5.1,-77.81 -3.67,-77.69 -2.05,-77.44 -0.21,-77.09 1.78,-76.66 3.85,-76.15 5.96,-75.59 8.1,-74.96 10.3,-74.3 12.59,-73.62 14.96,-72.93 17.35,-72.26 19.68,-71.63 21.87,-71.03 23.89,-70.48 25.56,-70.08" fill="none" stroke="rgb(72, 19, 134)" stroke-width="2" stroke-linejoin="round" filter="url(#fuzzy)" />
    </g>
    
        <g id="lineNose">
        <path d="M -8.69,14.07 Q 9.69, 27.585 0.5, -5.0120000000000005" fill="none" stroke="black" stroke-width="3" stroke-linejoin="round" filter="url(#fuzzy)"></path>
        </g>
      
    <g id="mouth">
      <polyline points="-30.25,35.12 -29.52,35.46 -28.79,35.82 -28.05,36.21 -27.32,36.62 -26.59,37.05 -25.86,37.5 -25.13,37.98 -24.4,38.47 -23.67,38.98 -22.94,39.51 -22.21,40.05 -21.48,40.61 -20.75,41.19 -20.03,41.77 -19.3,42.37 -18.58,42.98 -17.86,43.6 -17.14,44.23 -16.42,44.87 -15.71,45.51 -14.99,46.16 -14.28,46.81 -13.57,47.47 -12.87,48.13 -12.16,48.8 -11.46,49.46 -10.76,50.13 -10.06,50.79 -9.37,51.45 -8.68,52.11 -7.99,52.76 -7.31,53.41 -6.63,54.05 -5.96,54.68 -5.28,55.31 -4.61,55.93 -3.95,56.53 -3.29,57.13 -2.63,57.71 -1.98,58.28 -1.33,58.84 -0.69,59.38 -0.05,59.9 0.58,60.41 1.21,60.9 1.83,61.37 2.45,61.81 3.06,62.24 3.67,62.65 4.27,63.03 4.87,63.38 5.46,63.71 6.04,64.02 6.62,64.29 7.19,64.54 7.76,64.76 8.32,64.95 8.87,65.11 9.42,65.23 9.96,65.32 10.49,65.38 11.01,65.4 11.53,65.38 12.04,65.33 12.55,65.23 13.04,65.1 13.53,64.93 14.01,64.71 14.48,64.45 14.95,64.15 15.41,63.8 15.86,63.41 16.3,62.97 16.73,62.49 17.15,61.95 17.56,61.36 17.97,60.73 18.37,60.04 18.75,59.3 19.13,58.5 19.5,57.65 19.86,56.75 20.21,55.78 20.55,54.76 20.88,53.68 21.2,52.54 21.51,51.34 21.81,50.08 22.1,48.75 22.38,47.36 22.65,45.91 22.91,44.38 23.16,42.79 23.4,41.14 23.62,39.41 23.84,37.62 24.04,35.75 24.23,33.81 24.41,31.8 24.41,31.8 23.86,31.95 23.32,32.1 22.77,32.24 22.22,32.38 21.68,32.51 21.13,32.64 20.58,32.77 20.04,32.89 19.49,33.01 18.95,33.13 18.4,33.24 17.85,33.34 17.31,33.45 16.76,33.55 16.21,33.64 15.67,33.74 15.12,33.82 14.57,33.91 14.03,33.99 13.48,34.07 12.93,34.15 12.39,34.22 11.84,34.29 11.29,34.36 10.75,34.42 10.2,34.48 9.65,34.54 9.11,34.59 8.56,34.64 8.01,34.69 7.47,34.74 6.92,34.78 6.37,34.83 5.83,34.87 5.28,34.9 4.73,34.94 4.19,34.97 3.64,35 3.09,35.03 2.55,35.05 2,35.08 1.45,35.1 0.91,35.12 0.36,35.14 -0.19,35.15 -0.73,35.17 -1.28,35.18 -1.83,35.19 -2.37,35.2 -2.92,35.21 -3.47,35.22 -4.01,35.22 -4.56,35.23 -5.11,35.23 -5.65,35.23 -6.2,35.23 -6.75,35.23 -7.29,35.23 -7.84,35.23 -8.39,35.23 -8.93,35.22 -9.48,35.22 -10.03,35.21 -10.57,35.21 -11.12,35.2 -11.67,35.19 -12.21,35.19 -12.76,35.18 -13.31,35.17 -13.85,35.16 -14.4,35.15 -14.94,35.15 -15.49,35.14 -16.04,35.13 -16.58,35.12 -17.13,35.11 -17.68,35.1 -18.22,35.1 -18.77,35.09 -19.32,35.08 -19.86,35.07 -20.41,35.07 -20.96,35.06 -21.5,35.06 -22.05,35.05 -22.6,35.05 -23.14,35.04 -23.69,35.04 -24.24,35.04 -24.78,35.04 -25.33,35.04 -25.88,35.04 -26.42,35.04 -26.97,35.05 -27.52,35.05 -28.06,35.06 -28.61,35.07 -29.16,35.08 -29.7,35.09" fill="rgb(102, 204, 149)" stroke="black" stroke-width="3" stroke-linejoin="round" filter="url(#fuzzy)" />
    </g>
  </svg>