<svg xmlns="http://www.w3.org/2000/svg" width="500" height="500" viewBox="-100 -100 200 200"><defs><clipPath id="c"><path d="m30.02-4.37-.14-.6-.16-.6-.2-.6-.24-.58-.27-.58-.3-.57-.35-.55-.37-.53-.41-.51-.45-.5-.48-.47-.51-.44-.55-.42-.58-.4-.62-.36-.5-.68-.57-.63-.63-.57-.68-.51-.74-.45-.8-.39-.85-.32-.89-.27-.94-.21-.99-.15-1.02-.09-1.06-.04-1.09.02-1.11.07-1.14.12-1.17.16-1.17.21-1.2.25-1.2.29-1.2.33-1.21.35-1.2.39-1.2.42-1.19.44-1.18.47-1.17.48-1.14.5-1.13.51-1.1.52-1.08.53-1.05.54-1.03.54-.99.54-.96.55-.92.53-.89.54-.86.53-.82.52-.78.51-.75.5-.71.5-.67.48-.64.46-.61.46-.57.44-.54.43-.51.41-.47.4-.45.39-.43.38-.4.36-.37.36-.35.34-.32.33-.3.31-.27.3-.25.3-.22.28-.21.27-.18.25-.17.25-.14.24-.13.23-.11.21 4.39 4.17.39.1.39.1.4.1.4.11.42.12.42.11.43.12.44.12.44.12.45.13.46.13.46.13.48.14.47.14.49.14.49.14.51.15.51.15.52.15.53.15.54.16.54.16.55.16.56.16.57.16.57.16.58.16.58.16.59.16.6.16.6.15.61.15.61.15.62.14.62.14.63.13.63.12.64.12.64.1.65.1.66.09.65.07.67.06.67.05.67.04.68.02.69.01.69-.01.69-.03.7-.04.71-.07.71-.08.71-.1.72-.12.73-.14.73-.16.73-.18.74-.21.74-.22.74-.25.75-.26.74-.29.75-.31.75-.33.61-.23.61-.25.6-.27.6-.27.59-.29.59-.31.58-.31.57-.33.56-.34.55-.36.54-.36.53-.38.51-.39.5-.4.48-.41"/></clipPath><clipPath id="b"><path d="m-29.26-4.51.18-.47.22-.48.24-.47.27-.47.31-.46.34-.44.36-.44.4-.42.44-.41.46-.39.5-.38.52-.35.56-.34.59-.31.62-.3.51-.53.57-.5.63-.45.68-.4.74-.36.79-.31.83-.26.89-.22.92-.18.97-.13 1.01-.08 1.04-.04 1.07-.01 1.1.04 1.12.08 1.14.11 1.16.15 1.17.18 1.17.21 1.19.24 1.18.27 1.19.29 1.18.31 1.17.33 1.16.35 1.15.37 1.13.37 1.11.4 1.09.4 1.06.4 1.04.42 1.01.42.99.42.95.42.91.42.89.42.85.42.81.41.79.41.74.4.71.39.68.39.64.38.6.37.58.36.54.35.51.34.48.33.45.32.43.32.41.3.37.3.35.29.33.28.3.27.27.26.26.26.23.25.21.24.18.23.17.22.15.22.13.21.11.2-3.18 4.08-.38.12-.4.12-.41.13-.41.13-.43.13-.44.14-.44.13-.46.15-.47.14-.48.15-.49.15-.5.15-.51.15-.52.16-.54.16-.54.16-.56.16-.57.17-.59.17-.59.17-.61.17-.62.17-.64.18-.64.17-.66.17-.67.17-.68.17-.69.17-.7.17-.71.16-.72.16-.73.16-.73.14-.75.15-.75.13-.76.13-.76.12-.77.11-.77.1-.78.09-.78.08-.78.06-.78.05-.79.04-.78.03h-1.57l-.77-.03-.78-.04-.77-.06-.77-.08-.76-.09-.75-.12-.75-.13-.74-.16-.73-.17-.72-.2-.71-.21-.7-.24-.68-.25-.68-.28-.66-.29-.64-.31-.64-.33-.57-.23-.56-.25-.54-.25-.54-.27-.53-.27-.52-.29-.5-.3-.49-.3-.47-.31-.47-.33-.44-.33-.43-.34-.42-.34-.4-.35-.38-.36"/></clipPath><filter id="a"><feTurbulence baseFrequency=".05" numOctaves="3" result="noise" type="noise"/><feDisplacementMap in="SourceGraphic" in2="noise" scale="2"/></filter></defs><rect width="100%" height="100%" x="-100" y="-100" fill="#556B2F"/><path fill="#FFDAB9" stroke="#000" stroke-linejoin="round" stroke-width="1.667" d="m62.33 1.68-.01.15-.06 1.42-.07 1.73-.08.18.04 1.61L62.1 6l.04 1.65-.27 1.99-.29 1.12.07-.18-.12 1.88-.36 2.41-.11.83-.27 2.06-.28.24.04.17-.58 2.85-.12.38-.05.68-.53 1.34-.37 1.37-.55 2.24.03.27-.34.79-.63 1.56-.42 2.08-.23.09-.91 2.1.14.15-.62 1.33-.44 1.24-.51 1.24.04-.31-.71 1.91-.69 1.12-.37.71.11-.19-1.31 2.02-.59 1.74-.14.49-1.33 1.71.09-.39-.12.61-1.31 2.14-1.02 1.37-.52.86-1.05 1.26.66-.66-1.1 1.53-1.19 1.44-.07-.23-1.41 1.6-.62.8.24-.33-1.68 2.08-1.44 1.23 1.03-.45-1.52 1.2-1.51 1.48L38 61.5l-2.55 1.96-.83 1.22-.55-.02-1.51 1.37-1.06.97.79-.83-.67.8-2.02 1.02-1.67 1.09.62.2-1.57.42-1.2.8-.62.59.26-.28-1.77.64-.06.32-1.12.46-1.14.53-1.63.81-.88.27 1.29-.29-1.9.57-1.38.42-1.73.63-.34.33-1.54.36-.71.16.06.04-2.19.4-.3.01-1.91.45.73-.23-.91.18-1.33.12-.6.17-2.15.4-1.4-.09-.61.09.13.05-3.41-.26-.37.19.09-.08h-1.32l-.03-.07-1.94-.02-.69-.22-.64-.18-.99-.03-.89-.15-2.34-.34-1.26-.36.79.28-2.27-.61-.1.06-1.71-.43-.04-.21-.92-.37-.92-.15-.94-.39-1.77-.82 1.11.67-3.2-1.39-.84-.55-.56-.25-2.22-1.04 1.23.39-1.08-.12-2.5-1.84v.29l-1.05-.87-.46-.1-.43-.53-1.93-1.3-1.05-.78.7.47-1.46-.91-1.59-1.47-.2-.1-.31-.34-.69-.48-2.22-2.24.56.57-1.77-1.47.88.77-2.02-2.06-1.23-1.41.61.69-.66-.68-2.09-2.52.12.1-.6-.85-.91-.85-1.31-2.11-.45-.77-.11-.06-.26-.15-.32-.54-.46-.81-.58-.59-1.73-3.48.13.95-.98-2.23-.35-.34-.1-.75-1.11-2.43-.42-.41-.56-.65-.24-.95-.55-1.21-.61-1.18-.34-1.34-.59-1.12.06-.18-.72-1.64-.58-2.04-.42-1.56-.12.05-.47-2.07-.42-.54-.06-.99-.69-2.83-.06.13-.25-.73-.48-2.78.1.48-.61-2.68.2.1-.2-.76-.15-2.19-.12-.19-.4-2.4-.22-1.32-.07-1.24.01-.25-.17-2.37.08.96-.02-1.2-.02-2.43-.16-1.52v-1.96l.13 1.16.03-3.51-.15 1.13.11-.89.2-3.16.21-2.15-.14.45.18-2.02.18-.53.13-2.51.11-.7.4-1.77-.18-.01.32-1.02.16-.86.19-.59.26-2.14-.08.12.58-2.27-.06.26.46-1.56.25-1.64.52-1.49.97-2.72.12-.47-.18.27.38-.84.73-2.02.46-1.48.15-.42.02.03 1.17-3.13.93-1.63-.29.53 1.21-2.63.27-.18.57-.85 1-2.12.24-.39.5-1.03.8-1.27.18-.49.6-1.09.46-.06 1.46-2.68.78-.83.24-.55-.03.17.8-1.17.95-.86 1.54-1.73-.01-.25.02.08 1.02-1.44 2.01-1.89-1.09 1.16 1.23-1.31 2.14-2.3-.59.65 1.19-1.15 1.11-.82.82-1.06 1.33-.93-.24.42.86-.77.26.04 2.65-2.31v.23l1.5-.99.96-.85-.18.57-.6-.05 1.99-1.02.53-.38 2.24-1.16.5-.46.66-.13 1.65-.62.88-.45.11-.18 1.67-.68.99-.14.19-.29.26.04 2.01-.66.98-.05 1.18-.6.82.07-.2-.13 3.07-.54-.52-.18 1.34-.06.55.09 1.39-.31.47-.04 1.95-.31.63-.08h1.1l-.46.14 2.69-.08 1.16.15.22-.3 1.2.18L5-77.2l-.61-.31.95.36 1.79.04h.43l.66.12 1.65.32.28-.07 1.61.4 1.27.57 1.32.24-.72-.26 1.78.69.57.11.97.33 1.91.83.5-.14.21.26 1.87.69.3.12.27.25.83.58 2.83 1.33-.4-.3 1.52.93.47.42 1.31.93.82.21.48.22.58.83 1.33.76.48.58 2.32 1.72-.04-.31.28.24 1.27.91-.83-.21 1.47.89 1.82 1.74.59.73.81.81.83.76.55.67.54.94.18-.2 1.36 2.13.35.16.81 1.24.25.06 1.43 2.02.72.93.49 1.03.02-.45 1.67 2.58.71 1.13-.04-.16.54.87 1.61 2.95-.22.05.84.96-.09.06.86 2.18.05-.45.01.54 1.83 3.93-.82-2 .66 1.1.93 2.28.21.83.84 2.28.2.24.12.46.7 2.15.22.84.67 2.03.05-.03.44 2.27.21.93-.25-.96.95 4.47.28.16.01.51.28 2.05-.08-.9.15.7.63 3.96-.05.94.23 1.17-.13-.35.33 2.6.13.4-.01 1.96.1.97-.05.75.04 2.68L62.2.33l.13 1.35-.01.15" filter="url(#a)"/><path fill="#fff" d="m-29.26-4.51.18-.47.22-.48.24-.47.27-.47.31-.46.34-.44.36-.44.4-.42.44-.41.46-.39.5-.38.52-.35.56-.34.59-.31.62-.3.51-.53.57-.5.63-.45.68-.4.74-.36.79-.31.83-.26.89-.22.92-.18.97-.13 1.01-.08 1.04-.04 1.07-.01 1.1.04 1.12.08 1.14.11 1.16.15 1.17.18 1.17.21 1.19.24 1.18.27 1.19.29 1.18.31 1.17.33 1.16.35 1.15.37 1.13.37 1.11.4 1.09.4 1.06.4 1.04.42 1.01.42.99.42.95.42.91.42.89.42.85.42.81.41.79.41.74.4.71.39.68.39.64.38.6.37.58.36.54.35.51.34.48.33.45.32.43.32.41.3.37.3.35.29.33.28.3.27.27.26.26.26.23.25.21.24.18.23.17.22.15.22.13.21.11.2-3.18 4.08-.38.12-.4.12-.41.13-.41.13-.43.13-.44.14-.44.13-.46.15-.47.14-.48.15-.49.15-.5.15-.51.15-.52.16-.54.16-.54.16-.56.16-.57.17-.59.17-.59.17-.61.17-.62.17-.64.18-.64.17-.66.17-.67.17-.68.17-.69.17-.7.17-.71.16-.72.16-.73.16-.73.14-.75.15-.75.13-.76.13-.76.12-.77.11-.77.1-.78.09-.78.08-.78.06-.78.05-.79.04-.78.03h-1.57l-.77-.03-.78-.04-.77-.06-.77-.08-.76-.09-.75-.12-.75-.13-.74-.16-.73-.17-.72-.2-.71-.21-.7-.24-.68-.25-.68-.28-.66-.29-.64-.31-.64-.33-.57-.23-.56-.25-.54-.25-.54-.27-.53-.27-.52-.29-.5-.3-.49-.3-.47-.31-.47-.33-.44-.33-.43-.34-.42-.34-.4-.35-.38-.36" filter="url(#a)" transform="translate(38 -21.65)"/><path fill="#fff" d="m30.02-4.37-.14-.6-.16-.6-.2-.6-.24-.58-.27-.58-.3-.57-.35-.55-.37-.53-.41-.51-.45-.5-.48-.47-.51-.44-.55-.42-.58-.4-.62-.36-.5-.68-.57-.63-.63-.57-.68-.51-.74-.45-.8-.39-.85-.32-.89-.27-.94-.21-.99-.15-1.02-.09-1.06-.04-1.09.02-1.11.07-1.14.12-1.17.16-1.17.21-1.2.25-1.2.29-1.2.33-1.21.35-1.2.39-1.2.42-1.19.44-1.18.47-1.17.48-1.14.5-1.13.51-1.1.52-1.08.53-1.05.54-1.03.54-.99.54-.96.55-.92.53-.89.54-.86.53-.82.52-.78.51-.75.5-.71.5-.67.48-.64.46-.61.46-.57.44-.54.43-.51.41-.47.4-.45.39-.43.38-.4.36-.37.36-.35.34-.32.33-.3.31-.27.3-.25.3-.22.28-.21.27-.18.25-.17.25-.14.24-.13.23-.11.21 4.39 4.17.39.1.39.1.4.1.4.11.42.12.42.11.43.12.44.12.44.12.45.13.46.13.46.13.48.14.47.14.49.14.49.14.51.15.51.15.52.15.53.15.54.16.54.16.55.16.56.16.57.16.57.16.58.16.58.16.59.16.6.16.6.15.61.15.61.15.62.14.62.14.63.13.63.12.64.12.64.1.65.1.66.09.65.07.67.06.67.05.67.04.68.02.69.01.69-.01.69-.03.7-.04.71-.07.71-.08.71-.1.72-.12.73-.14.73-.16.73-.18.74-.21.74-.22.74-.25.75-.26.74-.29.75-.31.75-.33.61-.23.61-.25.6-.27.6-.27.59-.29.59-.31.58-.31.57-.33.56-.34.55-.36.54-.36.53-.38.51-.39.5-.4.48-.41" filter="url(#a)" transform="translate(-26.66 -17.8)"/><g fill="none" stroke="#000" transform="translate(38 -21.65)"><path stroke-linejoin="round" stroke-width="1.667" d="m-29.73-.29-.04-.33-.03-.35-.01-.39.01-.41.03-.42.05-.45.08-.45.1-.47.13-.47.15-.48.18-.47.22-.48.24-.47.27-.47.31-.46.34-.44.36-.44.4-.42.44-.41.46-.39.5-.38.52-.35.56-.34.59-.31.62-.3.51-.53.57-.5.63-.45.68-.4.74-.36.79-.31.83-.26.89-.22.92-.18.97-.13 1.01-.08 1.04-.04 1.07-.01 1.1.04 1.12.08 1.14.11 1.16.15 1.17.18 1.17.21 1.19.24 1.18.27 1.19.29 1.18.31 1.17.33 1.16.35 1.15.37 1.13.37 1.11.4 1.09.4 1.06.4 1.04.42 1.01.42.99.42.95.42.91.42.89.42.85.42.81.41.79.41.74.4.71.39.68.39.64.38.6.37.58.36.54.35.51.34.48.33.45.32.43.32.41.3.37.3.35.29.33.28.3.27.27.26.26.26.23.25.21.24.18.23.17.22.15.22.13.21.11.2.09.19.08.19.06.18.05.18.03.17.02.17v.31l-.02.15-.03.15" filter="url(#a)"/><path stroke-linejoin="round" stroke-width="2.222" d="m-29.8.72.17.36.19.36.22.37.24.37.26.38.29.37.3.37.33.37.34.36.36.36.38.36.4.35.42.34.43.34.44.33.47.33.47.31.49.3.5.3.52.29.53.27.54.27.54.25.56.25.57.23.64.33.64.31.66.29.68.28.68.25.7.24.71.21.72.2.73.17.74.16.75.13.75.12.76.09.77.08.77.06.78.04.77.03h1.57l.78-.03.79-.04.78-.05.78-.06.78-.08.78-.09.77-.1.77-.11.76-.12.76-.13.75-.13.75-.15.73-.14.73-.16.72-.16.71-.16.7-.17.69-.17.68-.17.67-.17.66-.17.64-.17.64-.18.62-.17.61-.17.59-.17.59-.17.57-.17.56-.16.54-.16.54-.16.52-.16.51-.15.5-.15.49-.15.48-.15.47-.14.46-.15.44-.13.44-.14.43-.13.41-.13.41-.13.4-.12.38-.12.37-.12.37-.11.35-.11.35-.11.33-.11.33-.1.31-.1.31-.09.29-.1.29-.09" filter="url(#a)"/><circle cx="5.38" cy=".325" r="3.54" clip-path="url(#b)" filter="url(#a)"/><circle cx="7.44" cy=".69" r="3.174" clip-path="url(#b)" filter="url(#a)"/><circle cx="5.775" cy="-1.845" r="3.102" clip-path="url(#b)" filter="url(#a)"/><circle cx="6.605" cy="1.015" r="4.116" clip-path="url(#b)" filter="url(#a)"/><circle cx="6.825" cy="1.145" r="4.734" clip-path="url(#b)" filter="url(#a)"/><circle cx="5.41" cy="-1.955" r="3.52" clip-path="url(#b)" filter="url(#a)"/><circle cx="6.095" cy="-.695" r="4.812" clip-path="url(#b)" filter="url(#a)"/><circle cx="6.845" cy="1.07" r="3.954" clip-path="url(#b)" filter="url(#a)"/><circle cx="7.46" cy="-1.89" r="3.528" clip-path="url(#b)" filter="url(#a)"/><circle cx="7.41" cy=".39" r="4.448" clip-path="url(#b)" filter="url(#a)"/></g><g fill="none" stroke="#000" transform="translate(-26.66 -17.8)"><path stroke-linejoin="round" stroke-width="2.222" d="m29.73.89.14-.4.12-.44.1-.47.07-.51.05-.53.02-.55-.01-.58-.03-.58-.07-.6-.1-.6-.14-.6-.16-.6-.2-.6-.24-.58-.27-.58-.3-.57-.35-.55-.37-.53-.41-.51-.45-.5-.48-.47-.51-.44-.55-.42-.58-.4-.62-.36-.5-.68-.57-.63-.63-.57-.68-.51-.74-.45-.8-.39-.85-.32-.89-.27-.94-.21-.99-.15-1.02-.09-1.06-.04-1.09.02-1.11.07-1.14.12-1.17.16-1.17.21-1.2.25-1.2.29-1.2.33-1.21.35-1.2.39-1.2.42-1.19.44-1.18.47-1.17.48-1.14.5-1.13.51-1.1.52-1.08.53-1.05.54-1.03.54-.99.54-.96.55-.92.53-.89.54-.86.53-.82.52-.78.51-.75.5-.71.5-.67.48-.64.46-.61.46-.57.44-.54.43-.51.41-.47.4-.45.39-.43.38-.4.36-.37.36-.35.34-.32.33-.3.31-.27.3-.25.3-.22.28-.21.27-.18.25-.17.25-.14.24-.13.23-.11.21-.09.21-.08.2-.06.19-.05.18-.03.18-.02.16-.01.16.01.15.01.15.03.14m54.68-4-.22.48-.26.47-.29.48-.31.46-.35.46-.38.46-.39.44-.43.44-.44.43-.46.42-.48.41-.5.4-.51.39-.53.38-.54.36-.55.36-.56.34-.57.33-.58.31-.59.31-.59.29-.6.27-.6.27-.61.25-.61.23-.75.33-.75.31-.74.29-.75.26-.74.25-.74.22-.74.21-.73.18-.73.16-.73.14-.72.12-.71.1-.71.08-.71.07-.7.04-.69.03-.69.01-.69-.01-.68-.02-.67-.04-.67-.05-.67-.06-.65-.07-.66-.09-.65-.1-.64-.1-.64-.12-.63-.12-.63-.13-.62-.14-.62-.14-.61-.15-.61-.15-.6-.15-.6-.16-.59-.16-.58-.16-.58-.16-.57-.16-.57-.16-.56-.16-.55-.16-.54-.16-.54-.16-.53-.15-.52-.15-.51-.15-.51-.15-.49-.14-.49-.14-.47-.14-.48-.14-.46-.13-.46-.13-.45-.13-.44-.12-.44-.12-.43-.12-.42-.11-.42-.12-.4-.11-.4-.1-.39-.1-.39-.1-.37-.1-.36-.1-.36-.09-.35-.09-.34-.08-.33-.08-.33-.08-.31-.08-.31-.08-.3-.07" filter="url(#a)"/><circle cx="-12.179" cy="-1.199" r="4.946" clip-path="url(#c)" filter="url(#a)"/><circle cx="-13.534" cy="2.371" r="3.626" clip-path="url(#c)" filter="url(#a)"/><circle cx="-14.284" cy="1.921" r="3.364" clip-path="url(#c)" filter="url(#a)"/><circle cx="-12.594" cy="1.671" r="4.168" clip-path="url(#c)" filter="url(#a)"/><circle cx="-14.969" cy="2.701" r="3.996" clip-path="url(#c)" filter="url(#a)"/><circle cx="-13.779" cy=".571" r="4.84" clip-path="url(#c)" filter="url(#a)"/><circle cx="-12.299" cy="1.076" r="3.362" clip-path="url(#c)" filter="url(#a)"/><circle cx="-15.304" cy=".331" r="3.044" clip-path="url(#c)" filter="url(#a)"/><circle cx="-13.884" cy="1.696" r="4.416" clip-path="url(#c)" filter="url(#a)"/><circle cx="-15.509" cy="-1.934" r="4.126" clip-path="url(#c)" filter="url(#a)"/></g><g fill="none" stroke="#000" stroke-linejoin="round" stroke-width="2"><path d="m32.26-66.16 1.33 1.02.31.47-.18.37-.5.44-.74.57-.99.68-1.31.77-1.69.8-2.14.78-2.62.76-3.12.73-3.61.71-4.09.72-4.56.72-5.06.74-5.56.76-6.11.78-6.64.77-7.15.69-7.64.53-8.16.4m12.32-18.83 1.6-.86 1.07-.55.94-.43.86-.37.77-.33.65-.25.51-.18.38-.1.26-.02.14.06-.02.16-.2.26-.45.4-.73.55-1.02.68-1.31.82-1.6.95-1.91 1.11-2.3 1.33-2.75 1.62-3.26 1.93m53.38-9.97.65.37.92.44.92.46.98.53 1.03.57 1.05.57.98.55.87.49.74.43.58.35.41.26.22.16.02.06-.2-.06-.45-.2-.73-.38-1.02-.57-1.32-.75-1.62-.92-1.98-1.11" filter="url(#a)"/><path d="m49.82-46.8.47 1.17-.06 1.03-.79.54-1.48.14-2.13-.14-2.76-.36-3.38-.58-4.01-.8L31-46.84l-5.4-1.27-6.19-1.48-7-1.67-7.82-1.91-8.6-2.24-9.35-2.72-10.11-3.23m6.71-13.53.94-.07 1.75-.08 2.13.04 2.37.17 2.62.29 2.85.37 3.06.45 3.26.52 3.42.61 3.59.71 3.72.79 3.79.83 3.74.81 3.58.73 3.33.62" filter="url(#a)"/><path d="m49.82-46.8.4 1.13-.26.93-1.11.37-1.95-.1-2.77-.46-3.59-.75-4.4-1.01-5.23-1.3-6.04-1.64-6.88-2.04-7.77-2.41-8.75-2.73-9.86-2.98-11.13-3.2m-6.66-7.41 1.02-.57 1.43-.7 1.48-.64 1.52-.59 1.53-.56 1.51-.54 1.44-.5 1.32-.46 1.17-.4 1-.34.82-.28.61-.2.28-.1-.19.05" filter="url(#a)"/><path d="m-32.5-65.98 1.8-1.48 1.16-.82.94-.6.78-.47.72-.43.77-.45.85-.48.92-.52.92-.5.85-.45.73-.37.57-.27.37-.16.17-.05-.06.07-.26.19-.45.3-.61.38-.74.46-.94.54-1.23.7-1.68.93-2.27 1.31M5-77.2l.16.04 1.19.48 1.74.76 2.07 1.01 2.34 1.22 2.57 1.42 2.79 1.59 2.94 1.72 3.03 1.84 3.05 1.89 3.05 1.92 3.04 1.95L36-59.44l2.95 1.83 2.81 1.71" filter="url(#a)"/><path d="m-11.51-76.09.75-.17 1.4-.09 1.54.06 1.67.21 1.87.3 2.07.39 2.23.44 2.37.51 2.46.58 2.52.63 2.57.67 2.58.69 2.57.67 2.51.66 2.43.65 2.38.67 2.33.71 2.3.77 2.23.79 1.95.7m20.75 23.27-.05.22-.08.33-.32.28-.6.19-.89.05-1.21-.12-1.53-.3-1.9-.49-2.27-.69-2.68-.88-3.1-1.09-3.57-1.36-4.04-1.64-4.55-1.95-5.02-2.26-5.51-2.57-6-2.9-6.52-3.23-7.08-3.57-7.57-3.91" filter="url(#a)"/><path d="m46.97-50.93.31.68.19.69-.01.74-.34.67-.7.56-1.07.45-1.45.33-1.83.16-2.24-.01-2.65-.18-3.08-.32-3.51-.42-3.94-.54-4.38-.64-4.82-.78-5.26-.91-5.72-1.03-6.22-1.14-6.75-1.26-7.3-1.43-7.81-1.65-8.34-1.78m12.01-15.72.87-.11 1.08-.02 1.52.04 1.94.1 2.22.18 2.42.27 2.58.35 2.73.43 2.86.51 2.97.56 3.04.61 3.09.63 3.12.63 3.11.62 3.1.61 3.08.65 3.1.74 3.12.86 3.2 1.02" filter="url(#a)"/><path d="m54.43-37.71.58 1.27.33 1.25.03.98-.26.66-.55.38-.82.16-1.11-.03-1.39-.24-1.69-.45-2.02-.7-2.34-.96-2.68-1.22-3.02-1.47-3.37-1.75-3.74-2.03-4.12-2.35-4.52-2.66-4.94-2.95-5.34-3.23-5.73-3.49-6.08-3.8-6.44-4.18-6.98-4.56m48.5 6.16 1.38 1.37 1.01 1.06.88.95.79.88.72.83.65.78.58.71.51.63.41.52.29.37.15.19-.03-.02-.23-.25-.46-.55-.74-.86-1.04-1.22-1.36-1.59" filter="url(#a)"/><path d="m43.76-55.18.69.96.73.97.77 1.03.73.99.66.92.59.85.53.77.44.67.32.55.19.39.05.21-.12-.01-.29-.26-.47-.51-.64-.77-.81-1.02-.99-1.27-1.19-1.56-1.44-1.91-1.75-2.32-2.15-2.81M9.87-76.67l.76.16 1.24.45 1.33.58 1.33.64 1.37.72 1.46.79 1.55.86 1.63.92 1.67.96 1.66.97 1.64.98 1.58.98 1.55.96 1.5.96 1.45.92 1.4.87 1.3.82 1.19.73 1.05.64.91.54.76.42.56.29.32.13" filter="url(#a)"/><path d="m49.82-46.8.43 1.12-.2.91-.99.32-1.77-.19-2.53-.58-3.27-.9-4.03-1.22-4.83-1.53-5.66-1.88-6.56-2.26-7.5-2.62-8.5-2.93-9.59-3.23-10.77-3.6m-11.62-3.94.32-.33 1.31-.6 1.73-.68 1.95-.66 2.05-.61 2.13-.55 2.2-.51 2.23-.49 2.25-.46 2.22-.44 2.15-.43 2.08-.4 1.99-.38 1.91-.36 1.8-.32 1.57-.3 1.21-.29m11.88 2.04.83.28 1.28.54 1.46.68 1.52.75 1.53.79 1.53.84 1.5.84 1.47.83 1.42.81 1.36.77 1.26.73 1.1.65.84.56.41.33" filter="url(#a)"/><path d="m19.36-73.97.57.34.67.36.52.34.4.37.31.39.17.4-.05.37-.31.33-.59.3-.9.25-1.22.21-1.52.17-1.84.14-2.16.11-2.49.07-2.88.01-3.3-.07-3.77-.14-4.24-.21-4.71-.23-5.16-.24-5.72-.16" filter="url(#a)"/><path d="m40.78-58.88.46.63.34.57.27.54.16.5.02.44-.16.34-.36.24-.58.13-.82-.02-1.09-.18-1.38-.35-1.69-.53-2.03-.72-2.38-.91-2.76-1.12-3.14-1.34-3.52-1.58-3.94-1.84-4.37-2.1-4.82-2.32-5.27-2.56-5.65-2.82m-3.48-3.38 1.46-.21 1.07-.09.94-.02.93.01.91.01.77.01.55.01.25.02-.07.04-.45.05-.85.07-1.29.1-1.76.11-2.25.12" filter="url(#a)"/><path d="m52.59-41.97.13.51.25.67.2.56.13.45.03.26-.12.04-.28-.2-.46-.44-.66-.73-.93-1.13-1.25-1.59-1.59-2.13-1.99-2.68-2.35-3.22-2.66-3.75-2.86-4.24m-65.75-9.74.25-.34 1.07-.63 1.35-.7 1.42-.69 1.4-.63 1.35-.58 1.28-.52 1.21-.47 1.11-.43 1.01-.39.89-.33.75-.27.62-.21.46-.16.27-.09.03-.02-.29.08-.62.16-.91.25-1.05.31m46.42 7.49.86.73.28.79-.34.73-1.07.64-1.77.61-2.41.68-3 .79-3.59.94-4.21 1.05-4.91 1.12-5.69 1.17-6.55 1.18-7.39 1.19-8.2 1.14-8.92 1.07-9.69 1.05M3.08-77.56l1.22.2.94.16 1.13.2 1.29.23 1.37.25 1.38.27 1.35.28 1.27.29 1.14.27.9.23.58.15.18.04-.21-.08-.63-.22" filter="url(#a)"/><path d="m53.41-40.18.33 1.07.26.85-.02.31-.28.01-.52-.21-.81-.5-1.13-.91-1.53-1.41-1.93-1.93-2.36-2.46-2.83-3.02L39.25-52l-3.88-4.3-4.36-4.97-4.67-5.59m-54.51-2.52 1.57-.83 1.34-.73 1.26-.66 1.16-.58 1.07-.5.97-.44.89-.39.77-.33.65-.27.51-.19.37-.11.21-.04.03.06-.18.15-.44.27-.73.41-1.05.55-1.33.67-1.52.73-1.65.74-1.77.75" filter="url(#a)"/><path d="m1.66-77.44.72.01 1.38.42 1.69.69 1.9.89 2.16 1.07 2.41 1.23 2.63 1.37 2.8 1.5 2.94 1.61 3.04 1.71 3.1 1.77 3.11 1.8 3.04 1.78 2.93 1.71 2.82 1.63 2.76 1.6m5.16 4.79.5.76.24.53.08.43-.13.32-.41.13-.75-.11-1.12-.38-1.52-.66-1.95-1-2.39-1.37-2.86-1.74-3.33-2.1-3.79-2.44-4.25-2.8-4.72-3.17-5.25-3.61-5.95-4.11m41.21 26.54.08.2.12.63-.15.52-.55.15-1-.25-1.45-.63-1.88-.96-2.32-1.27-2.77-1.6-3.26-1.97-3.78-2.35-4.37-2.76-5-3.15-5.66-3.56-6.32-4.07-6.88-4.67" filter="url(#a)"/><path d="m25.67-70.74.06.06.32.38.17.42-.12.37-.5.31-.88.26-1.27.24-1.65.21-2.1.15-2.59.06-3.17-.05-3.78-.17-4.42-.25-5.03-.3-5.65-.31-6.33-.28-7.13-.28m50.18 3.18.54.77v.74l-.9.58-1.77.55-2.54.62-3.28.76-4 .91-4.78 1.05-5.65 1.11-6.61 1.14-7.66 1.16-8.75 1.21-9.86 1.27-10.83 1.22" filter="url(#a)"/><path d="m21.74-72.9.6.41 1.1.64 1.22.67 1.14.65 1.06.63.99.61.93.59.86.56.78.53.71.49.6.44.46.34.3.22.1.07-.12-.07-.33-.2-.54-.33-.75-.45-.98-.6-1.27-.78-1.69-1.04-2.26-1.4m-12.89-5.42 1.01.43.51.31.23.33.07.44-.1.53-.31.63-.59.71-.92.79-1.27.87-1.63.97-1.98 1.08-2.33 1.2-2.69 1.33-3.06 1.45-3.47 1.55-3.9 1.65-4.36 1.75-4.85 1.88-5.37 2.06-5.93 2.23-6.42 2.36-6.82 2.37" filter="url(#a)"/><path d="m11.76-76.34.96.43.38.31-.03.35-.3.45-.59.56-.92.65-1.35.73-1.84.83-2.39.94-2.95 1.06-3.51 1.2-4.08 1.36-4.65 1.51-5.25 1.65-5.91 1.78-6.67 1.95-7.42 2.09m85.12 12.56.66 1.78-.52.66-1.39.14-2.17-.16-2.94-.42-3.74-.66-4.58-.9-5.49-1.16-6.43-1.44-7.4-1.74-8.33-2.05-9.27-2.41-10.25-2.83-11.41-3.2" filter="url(#a)"/><path d="m53.41-40.18.32 1.11.24.92-.07.48-.31.28-.55.17h-.82l-1.12-.25-1.46-.56-1.79-.87-2.15-1.17-2.51-1.48-2.9-1.83-3.33-2.18-3.77-2.56-4.21-2.95-4.66-3.33-5.07-3.73-5.52-4.12-6.04-4.55-6.63-4.97M-7.82-77l.86.01 1.27-.03 1.53.01 1.68.07 1.77.14 1.84.22 1.91.25 1.97.28 1.96.28 1.89.27 1.76.25 1.62.23 1.47.21 1.33.18 1.19.17 1 .14.85.16" filter="url(#a)"/><path d="m1.88-77.74 1.13.19.77.15.44.14.25.14.08.18-.14.23-.41.28-.72.35-1.06.42-1.47.51-1.94.59-2.47.67-3.01.76-3.52.82-3.92.83-4.23.78-4.59.71" filter="url(#a)"/><path d="m5-77.2-.05-.1.53.08.65.11.55.15.41.19.26.24.08.29-.13.35-.4.39-.7.43-1.01.48-1.3.52-1.58.56-1.86.59-2.15.62-2.5.66-2.91.71-3.39.82-3.89.93-4.37 1.04-4.73 1.07-4.93.92" filter="url(#a)"/><path d="m-16.5-74.85 1.8-.34 1.87.05 2.1.34 2.42.59 2.78.8 3.11.98 3.41 1.16 3.68 1.32 3.92 1.45 4.13 1.58 4.33 1.67 4.48 1.75 4.57 1.84 4.6 1.88 4.58 1.86 4.56 1.81" filter="url(#a)"/><path d="m-12.33-76.16.65-.02.77-.16.81-.17.69-.13.53-.05.38.01.22.07.02.14-.23.22-.54.34-.88.46-1.22.59-1.54.69-1.86.78-2.17.83-2.56.92-3.06 1.06-3.66 1.22m56.43 1.86 1.06.7.88.68.64.52.32.32.02.17-.2.09-.38.06-.55.04-.76-.03-1.04-.14-1.38-.31-1.77-.5-2.17-.72-2.61-.92-3.06-1.12-3.53-1.32-4.03-1.52-4.53-1.78-4.89-2.06" filter="url(#a)"/><path d="m-27.57-69.33.37-.29 1.48-.5 2.01-.52 2.35-.43 2.59-.32 2.8-.21 2.97-.13 3.13-.07 3.25-.04 3.35-.01 3.44.03 3.52.07 3.6.1 3.63.11 3.63.09 3.59.07 3.57.14m-2.85-2.59.44.01.49.18.42.23.24.21.03.18-.18.14-.48.08-.86-.04-1.33-.17-1.88-.32-2.48-.48-3.13-.66-3.78-.86-4.31-1.06" filter="url(#a)"/><path d="m-28.17-69.38 1.53-.81 1.24-.69 1.09-.59.94-.47.77-.35.61-.24.44-.12.25-.01.05.11-.15.24-.36.38-.59.55-.83.71-1.11.9-1.42 1.11-1.76 1.32-2.13 1.55-2.49 1.75-2.89 1.99-3.45 2.4m88.79 13.72.88 1.85.12.83-.28.43-.63.26-.94.13h-1.27l-1.59-.13-1.94-.28-2.32-.43-2.71-.59-3.12-.75-3.57-.92-4.05-1.11-4.55-1.34-5.06-1.56-5.58-1.8L7.7-53.4l-6.47-2.36-6.85-2.72-7.29-3.08-7.96-3.26" filter="url(#a)"/><path d="m15.98-74.99 1.01.42.73.43.31.41-.05.44-.38.5-.68.59-1 .69-1.32.79-1.67.88-2.09.97-2.53 1.03-3.02 1.11-3.51 1.17-4.01 1.24-4.52 1.31-5.03 1.4-5.53 1.49-6.1 1.62-6.75 1.78-7.51 1.96M30.45-67.5l1.12.74 1.04.77.93.66.73.53.59.44.51.41.46.43.43.42.36.4.23.3.05.18-.18.01-.41-.17-.68-.37-.94-.56-1.21-.76-1.51-.99-1.81-1.23-2.09-1.46-2.32-1.67-2.66-1.92" filter="url(#a)"/><path d="m21.74-72.9.54.38.9.54.88.51.69.46.46.39.25.34.03.28-.18.22-.42.18-.64.14-.88.09-1.16.02-1.47-.06-1.82-.18-2.18-.3-2.55-.4-2.9-.46-3.24-.53-3.61-.57-4.01-.68-4.44-.82-4.97-.97m-8.96-.14.94-.09 1.29.03 1.88.13 2.42.22 2.83.33 3.13.44 3.36.54 3.55.61 3.71.67 3.82.7 3.92.75 4.03.83 4.18.93 4.32 1.06 4.46 1.24" filter="url(#a)"/><path d="m-22.91-72.4.91-.28 1.07-.41 1.01-.42.96-.39.91-.36.87-.31.81-.28.76-.24.7-.2.62-.17.48-.12.33-.06h.14l-.06.08-.29.16-.55.26-.83.37-1.12.47-1.46.6-1.83.75-2.29.96-2.83 1.16m59.14 6.08.5.44.66.65.83.84 1.02 1.03 1.13 1.15 1.12 1.16 1.01 1.08.88.96.73.82.58.67.44.52.29.34.12.14-.07-.1-.28-.35-.51-.64-.72-.9m-45.1-20.71.79.03.9.04 1.07.02 1.05.01.94.03.81.04.67.05.54.07.41.07.28.08.13.1-.02.11-.21.13-.4.14-.64.17-.9.17-1.2.18-1.52.19-1.85.18-2.19.2-2.56.22-3.01.23-3.46.23m-14.97 5.58 1.76-.73 1.94-.48 2.25-.27 2.55-.05 2.84.14 3.13.28 3.4.42 3.64.52 3.87.61 4.08.72 4.28.79 4.48.87 4.66.92 4.83.98 4.93 1.03 4.95 1.07 4.88 1.08" filter="url(#a)"/><path d="m40.78-58.88.51.67.52.67.56.71.57.73.55.7.49.63.39.55.27.43.13.28-.04.1-.21-.07-.38-.26-.59-.47-.83-.71-1.12-.99-1.44-1.32-1.76-1.68-2.08-2.06L34-63.36l-2.55-2.61M.5-77.59l.88-.16.84-.46.95-1.21 1.01-2.18 1.06-2.75 1.05-2.45 1.01-1.38.98-.21 1 .37 1.12.08 1.29-.83 1.45-1.7 1.5-1.96 1.38-1.5 1.2-.89 1.12-.82 1.32-1.44 1.67-3.01-49.71 10.4 1.43.86 1.66 1.16 1.47.86 1.3.68 1.23.62 1.14.5 1.09.26h1.05l1.04-.21 1.06-.33 1.06-.35 1.07-.24 1.08.07 1.1.55 1.15 1.11 1.16 1.54 1.15 1.64 1.11 1.41 1.09.92 1.08.4 1.08-.02 1.04-.11 1.01.72" filter="url(#a)"/><path d="m-2.83-77.65.76-.01.86-.17 1.05-.35 1.08-.38 1.02-.29.95-.15.89-.04h.86l.85-.01.87-.06.91-.12.94-.17.98-.26 1.05-.31 1.12-.27 1.21-.11 1.31.09 1.36.05-18.7 2.64-1.56-1.46-1.1-.33-.95.06-.88.23-.88.18-.92.08-.96-.03-.99-.1-1.02-.12-1.05-.09-1.04-.03-1.02.08-.96.15-.9.2-.89.15-.92.04-1-.13-1.05-.24-1.15-.1-1.48.2 18.77 1.57 1.45-.23.99-.15.88-.09.93-.05.99-.04 1.03-.04.99-.05.96-.05.91-.03h.88l.86.02.87.06.89.08.92.12.94.14.98.17 1 .17 1 .16.96.14.89.13.82.12.81.16.85.18.89.25-23.16-1.13.83-.1 1.04-.08.96-.02.92-.01h1.92l1 .01.98.04.95.08.89.09.87.12.84.13.85.13.87.14.89.16.92.17.96.21.99.24 1 .28.95.29.81.27.68.26 1.03.41-32.15 11.41.06-1.86.48-1.35.57-.88.55-.85.58-.94.69-.84.81-.54.88-.25.88-.2.82-.51.75-1.03.7-1.44.65-1.33.65-.77.54-1.13 56.99 43.87.94 1.42.77 1.11.72.93.62.87.58.87.63.89.7.91.73.89.69.9.6.92.47.97.38 1.03.36 1.08.4 1.06.47.98.57.83.62.67.59.67.48 1.14.61 2.56" filter="url(#a)"/><path d="m-16.5-74.85 1.45-1.2.9-2.12.72-2.05.76-1.32.88-.61.95-.25.96-.16.95-.16.97-.1.98-.05 1.02-.1 1.03-.29 1.02-.58.98-.89.97-1.12 1.06-1.23 1.21-1.34 1.21-1.76.73-2.74" filter="url(#a)"/><path d="m6.72-72.68-1.24-.48-.79-.44-.73-.33-.8-.31-.88-.34-.95-.33-.97-.3-.97-.23-.95-.16-.95-.1-.93-.06-.95-.02-.94-.01-.94-.01-.92-.03-.91-.03-.91-.05-.92-.02-.92.02-.91.07-.93.14-1.01.19-1.2.25-1.6.41" filter="url(#a)"/><path d="m51.38 6.32.74-.71.93-.41.66-.55.61-.71.77-.82.94-.89.99-.98.91-1.09.73-1.19.52-1.26.36-1.3.3-1.29.31-1.27.33-1.22.27-1.16.08-1.07-.14-1.01-.2-1.11.11-1.65.42-2.93-80.63-57.48 1.29-.52.87-.35.74-.33.8-.34.9-.35.96-.32.96-.3.94-.3.92-.32.9-.37.88-.41.87-.45.87-.44.89-.41.95-.33 1-.28 1-.24.91-.18.65-.1.05-.14-17.35 6.48-1.1-2.32-.74.68-.82.98-.95.74-1.07.47-1.16.22-1.16.02-1.08-.13-1.01-.25-.96-.28-1-.26-1.11-.21-1.24-.16-1.34-.12-1.32-.08-1.22-.03-1.12-.03-1.1-.07h-1.19l-1.25.4-1.17.92" filter="url(#a)"/><path d="m-19.72-73.6.52-.36.82-.44.79-.38.76-.31.8-.32.88-.35.94-.39.94-.41.91-.44.89-.48.88-.52.87-.52.84-.47.82-.39.86-.34 1.08-.57-13.6 6.69-1.06.25-1.2-.06-1.18-.07-1.16.14-1.11.34-1.03.39-.93.27-.86.02-.88-.24-.98-.4-1.15-.43-1.32-.34-1.44-.19-1.43-.05-1.23.01-.84-.05-.22-.25 18.02.66-1.02.41-1.11.28-1.16.07-1.3-.18-1.41-.43-1.39-.6-1.28-.64-1.1-.53-.96-.29-.9-.01-.9.29-.95.48-1.05.5-1.17.29-1.28-.09-1.4-.49-1.48-.67-1.53-.51-1.6-.17-1.86-.13-2.29-.42" filter="url(#a)"/><path d="m-22.25-72.53.79-2.28.88-.67.85-.41.87-.25.87-.1.89-.06.9-.14.93-.3.93-.49.92-.69.89-.86.86-.97.85-.98.86-.85.89-.63.92-.43.95-.33 1.01-.37 1.04-.44 1.05-.43.96-.33.68-.41.04-.88m-38.22 19.54 1.51-.43 1.3-.44 1.12-.4.94-.34.86-.23.92-.13 1.02-.13 1.1-.24 1.08-.39.98-.48.82-.41.64-.2.48.05.51.05 1.18-.39 18.56 2.72-1.93-1.15-1.05-.59-.94-.56-.99-.54-1.03-.43-.99-.28-.92-.16-.86-.08-.85-.02-.85.02-.87.08-.9.15-.92.22-.96.26-1.04.23-1.17.14-1.3.11-1.4.27-1.58.63-1.68 1.32-.82.08-1.09.69-.87.67-.71.56-.67.51-.72.54-.8.58-.85.61-.87.64-.88.65-.86.67-.85.68-.82.67-.83.65-.89.68-.88.68-.47.3 13.88-9.86-.78.22-1.14.57-.9.6-.71.57-.66.56-.7.6-.77.64-.82.69-.84.69-.84.71-.83.72-.81.72-.78.73-.76.72-.74.71-.69.67-.6.59-.61.61-1.12 1" filter="url(#a)"/><path d="m-29.85-68.29.46-.03.8-.17.68-.12.55-.16.55-.27.69-.4.85-.49.97-.53 1.01-.46 1.02-.37 1-.26.98-.15.94-.05.96-.01 1.02-.03 1.07.06-16.2 5.75-.81-.71-.44.36-.6.42-.95.17-1.25-.07-1.38-.17-1.35-.07-1.23.16-1.08.42-.94.62-.83.75-.77.82-.71.84-.71.83-.75.76-.89.66-1.04.55-1.16.4-1.15.17-1.04-.17-.99-.42" filter="url(#a)"/><path d="m-32.76-66.02-.6.42-.67.21-.92.22-1.04.33-1 .47-.94.6-.89.67-.87.69-.88.67-.9.59-.96.48-1.01.37-1.05.3-1.06.31-1.05.37-1.04.46-1 .49-.89.43-.77.3-.76.17-1.02.28 19.32-8.83-.36.85-.41.64-.65.61-.76.72-.74.85-.69.91-.67.93-.66.91-.65.89-.62.88-.59.89-.57.89-.5.85-.21.73.18.58 5.95-10.85 1.26.29.63-.19.8-.12 1.04-.09 1.07-.26.96-.47.8-.54.71-.47.67-.35.71-.28.77-.24.88-.25.96-.23 1.03-.16 1.07-.04 1.07.1 1.06.28 1.06.46 1.05.66 1.03.81.95.83.83.72.81.38 1.26.16" filter="url(#a)"/><path d="M-27.44-89.46-28-88.3l-.63 2.12-.89 1.8-.97 1.26-.78 1-.48 1.11-.22 1.47-.09 1.87-.14 2.12-.29 2.07-.5 1.8-.6 1.48-.5 1.31-.25 1.39-.11 1.49-.33 1.3-.75 1.03M60.95-16.1l.2-1.6.69-1.44.28-1.41-.19-1.3-.33-1.22-.28-1.19-.16-1.23-.02-1.32.14-1.44.27-1.53.29-1.55.18-1.5-.05-1.4-.31-1.29-.48-1.24-.5-1.22-.38-1.26-.2-1.3-.04-1.35.03-1.4.05-1.39.01-1.31-.42-1.69 1.22 31.58.23-1.6-.2-1.16-.14-1.28.23-1.46.65-1.59.88-1.63.77-1.59.43-1.49.05-1.38-.17-1.34-.21-1.36-.1-1.41.06-1.53.25-1.7.48-1.94.77-2.17.99-2.22.89-1.89.21-1.46-1.08-2.63-4.99 32.83 1.25-1.91 1.07-1.58.79-1.63.77-1.71.75-1.66.54-1.52.19-1.39-.07-1.33-.05-1.44.32-1.69.83-1.95 1.23-2.14 1.32-2.19 1.07-2.16.73-2.24.89-2.78 2.23-4.3M-37.24-62.36l-2.34.55-1.03.81-.74.69-.7.71-.73.7-.78.61-.93.46-1.12.26-1.32.05-1.43-.1-1.42-.14-1.33-.01-1.26.22-1.3.43-1.39.5-1.37.45-1.1.41-.9.19" filter="url(#a)"/><path d="m-39.38-60.06 1.29-1.38.74-.75.73-.73.78-.78.75-.77.7-.75.68-.74.69-.74.75-.74.8-.73.83-.68.81-.59.76-.51.7-.44.69-.42.73-.45.81-.53.91-.6.99-.64 1.01-.64.98-.62.92-.62.77-.6.38-.4" filter="url(#a)"/><path d="m-27.4-67.48.31-.08-.24-.06-.64.15-.89.32-.99.42-1.01.48-.92.47-.84.44-.76.41-.75.45-.79.53-.83.6-.83.64-.77.62-.75.69-1.28 1.34m-3.17 3.48-.11.15-.47.6-.66.84-.65.89-.56.86-.47.86-.44.9-.45.99-.47 1.06-.47 1.07-.46 1.05-.44 1.01-.41.96-.41.97-.44.98-.45 1.04-.44 1.07-.35 1-.18.59" filter="url(#a)"/><path d="m-48.3-48.76-.42.39-.39.73-.4.87-.39.97-.39 1.04-.35 1.12-.31 1.19-.24 1.26-.18 1.31-.14 1.34-.12 1.36-.11 1.37-.09 1.38-.06 1.34-.04 1.29-.02 1.23.02 1.19.14 1.14.32 1.1.41 1 .23 1.07-.09 1.8m2.16-25.43-.49.87-.59.72-.83.58-1 .52-.97.62-.85.77-.79.88-.82.88-.98.79-1.16.72-1.25.75-1.23.85-1.12.9-1.11.71-1.19.41-.75.97" filter="url(#a)"/><path d="m-35.53-63.68-.98.79-.79.71-.76.75-.78.8-.76.79-.73.78-.7.76-.67.75-.67.76-.65.77-.66.78-.65.77-.63.78-.61.77-.6.79-.61.85-.63.9-.65.94-.62.94-.58.9-.53.88-.5.87-.46.83-.33.59m-1.57 2.97-1.55-.08-.55 1.1-.54 1.2-.89 1.04-1.28.79-1.57.56-1.65.45-1.58.46-1.42.54-1.28.62-1.16.73-1.09.87-1.02 1.03-.99 1.2-1.01 1.26-1.14 1.21-1.28 1.07-1.37.94-1.32.91-1.18.97-1.06 1.03-.92 1.03-.46 1 20.64 4.76.07-.92-.04-1.1-.02-1.07.06-1.04.13-1.09.19-1.19.22-1.28.25-1.32.25-1.27.23-1.19.21-1.09.2-1.06.19-1.05.21-1.08.25-1.11.31-1.14.41-1.19.5-1.23.56-1.22.54-1.15.68-1.72" filter="url(#a)"/><path d="m-52.92-41.28-1.85.85-1.45.49-.96.98-1.08.97-1.39.68-1.51.5-1.38.55-1.14.68-.93.74-.83.77-.85.84-.99.99-1.29 1.18-1.68 1.25-2.06 1.18-2.69.94m15.18 12.42-.17-.36-.01-.7.07-.86.09-.95.11-1 .14-1.02.16-1.05.2-1.1.23-1.18.27-1.26.3-1.29.32-1.26.32-1.17.31-1.07.32-1 .35-.97.38-.98.41-.99.48-.98.56-1.12.64-1.55.5-2.05.51-.05 1.15-.44.87-.77.54-1.04.47-1.05.59-.89.75-.69.86-.55.91-.48.95-.46.95-.5.91-.56.81-.64.67-.67.6-.61.7-.46.93-.29 1.2-.19 1.38-.04 1.26.55" filter="url(#a)"/><path d="m-55.6-74-.54.89-.45 1.99-.29 2.02-.11 1.85-.11 1.65-.27 1.46-.42 1.4-.42 1.47-.25 1.64-.02 1.81.21 1.92.39 2.02.57 2.13.68 2.21.65 2.18.44 2 .12 1.7-.14 1.44-.23 1.34-.3 1.36-.4 1.7.55 3.4m0 0 1.64-1.86 1.4-.94.77-.96.47-1.07.42-1.08.46-1.07.5-1.02.52-.97.57-.89.63-.79.7-.72.76-.69.77-.71.75-.76.69-.77.68-.7.72-.55.83-.39.96-.3 1.04-.32.97-.35.74-.16.42.25m-34.89 32.5.89-.12 1.38-.42 1.39-.6 1.27-.71.94-.87.48-1.03.08-1.17-.07-1.25.19-1.23.85-1.11 1.75-.89 2.44-.66 2.37-.53 1.38-.43.4.07" filter="url(#a)"/><path d="m-57.5-29.96-.8-.66-1.34-1.8-1.2-2.07-1.01-2.03-.75-1.92-.28-1.71.29-1.44.76-1.19.95-1.08.84-1.13.52-1.36.12-1.64-.22-1.92-.44-2.08-.5-2.13-.45-2.06-.3-1.89-.07-1.68.17-1.56.15-2.07-.57-4.3 4.13 37.72-.37 1.1-.55 1.58-.51 1.55-.42 1.38-.33 1.22-.28 1.09-.26 1.04-.23.99-.21.97-.2.94-.18.92-.17.92-.16.95-.16 1-.16 1.08-.15 1.15-.15 1.2-.14 1.23-.13 1.25-.14 1.33-.14 1.44-.15 1.43-.13.99v-.24" filter="url(#a)"/><path d="m-58.59-26.77.27-1.98-.5-1.35-.76-1.28-.59-1.37-.27-1.37.03-1.31.21-1.28.21-1.38.01-1.6-.25-1.86-.45-2.02-.44-1.99-.2-1.8.12-1.59.32-1.51.13-1.68-.53-2.15-1.31-2.72 4 30.24.36-1.95-.29-1.23-.11-.95.26-.9.39-.99.32-1.15.18-1.29.09-1.42.09-1.48.13-1.49.19-1.46.27-1.41.35-1.32.43-1.24.52-1.16.55-1.11.55-1.07.52-1.05.51-1.01.52-.99.56-1.05.64-1.24.74-1.56.7-1.59M59.47-23.26l-.26-1.61-.1-1.28-.19-1.27-.27-1.25-.29-1.22-.23-1.24-.16-1.29-.13-1.35-.15-1.34-.2-1.3-.25-1.22-.28-1.15-.29-1.09-.29-1.04-.29-1.01-.3-.98-.32-.95-.36-.94-.44-.99-.5-1.07-.48-1.2-.33-1.24-.18-1.06-.53-.82" filter="url(#a)"/><path d="m58.98-25.5.81.32.46.93.64.95 1 .91 1.29.89 1.32.85 1.07.85.74.91.54 1.02.64 1.11.97 1.17 1.32 1.18 1.57 1.14 1.63 1.09 1.57 1.09 1.43 1.16 1.23 1.28 1.08 1.34 1.41 1.25 2.32.91-23.93-23.22 1.81.41 1.52.64.71.97.5 1.04.51 1.06.64 1.07.9 1.04 1.2.93 1.39.83 1.34.79 1.12.9.92 1.05.9 1.22 1.04 1.28 1.25 1.27 1.3 1.19 1.12 1.19.84 1.28.72 1.42 1.07 1.47 1.13 1.34-21.93-22.39-.56-1.46-.72-.79-.93-.69-.95-.8-.94-.83-1.01-.7-1.12-.5-1.16-.38-1.09-.37-.88-.47-.65-.59-.49-.67-.46-.64-.6-.55-.8-.46-.94-.46-.95-.51-.88-.44-.96-.08-1.03-.05 16.3 8.83-.59 1.34-.38 1.58-.37 1.58-.3 1.44-.2 1.3-.07 1.17.09 1.1.28 1.04.39 1.02.38.98.22.98-.06.99-.36 1.05-.56 1.16-.57 1.28-.44 1.33-.33 1.26-.54 1.09-1.07 1.07-.98 1.56" filter="url(#a)"/><path d="m57.27-30.98-.24-.87-.2-1.45-.14-1.54-.11-1.42-.1-1.27-.1-1.18-.12-1.15-.15-1.11-.18-1.06-.23-1.01-.26-.99-.31-1-.38-1.05-.43-1.12-.45-1.2-.39-1.28-.28-1.42-.28-1.56-.42-1.54-.43-.55 9.51 49.18-.05-1.48-.08-1.21-.09-1.12-.08-1.1-.1-1.17-.13-1.24-.14-1.25-.15-1.19-.16-1.08-.16-1.03-.17-1.03-.2-1.07-.22-1.12-.24-1.14-.23-1.14-.23-1.12-.25-1.12-.28-1.16-.33-1.21-.37-1.27-.38-1.26-.27-.9-2.18-5.63.77 1.72.57 1.38.45 1.2.39 1.09.38 1.06.38 1.1.39 1.13.37 1.14.35 1.13.31 1.1.29 1.1.28 1.11.29 1.17.3 1.2.3 1.14.26.99.19.72.03-.01" filter="url(#a)"/><path d="m53.41-40.18 2.13.01 1.88.28.91.64.4 1 .36 1.21.44 1.26.48 1.23.49 1.17.58 1.11.8 1.02 1.09.91 1.36.81 1.44.77 1.24.82.84.92.54 1.02.86 1.22 2.44 2.44-31-33.31.59.24.73.75.7.78.69.79.69.83.72.86.73.85.75.82.76.79.76.8.73.84.69.89.63.95.6 1 .56 1 .53.92.5.77.52.78.79 1.26-.51-1.5-.01-1.22.22-1.43.15-1.55-.11-1.46-.38-1.27-.59-1.09-.69-1-.68-1.03-.59-1.11-.52-1.19-.54-1.18-.62-1.09-.72-.95-.79-.86-.75-.88-.6-1-.41-1.2-.23-1.36-.17-1.4-.26-1.31L44.1-66l-.5-1.33" filter="url(#a)"/><path d="m52.5-41.91-1.16.5-.77-.35-.55-.87-.6-.98-.65-.94-.66-.91-.69-.85-.78-.75-.9-.6-1.04-.43-1.14-.33-1.15-.28-1.09-.33-.99-.39-.88-.43-.86-.4-.89-.27-.9-.12-.79-.12-.53-.46 20.88 29.13.35.1.12-.75.01-1.07-.05-1.19-.11-1.23-.19-1.2-.25-1.17-.26-1.15-.26-1.17-.24-1.21-.26-1.22-.32-1.18-.39-1.06-.46-.95-.47-.9-.4-.93-.24-1-.12-1.03-.13-.96-.1-.61m-.62-1.01-1.14-2.05-.68-1.16-.58-.91-.62-.92-.65-.93-.65-.93-.66-.92-.67-.91-.68-.92-.69-.91-.67-.87-.66-.84-.65-.82-.62-.78-.56-.72-.51-.65-.5-.66.3-18.12.36.77.21 1.3.15 1.69.3 1.87.45 1.83.54 1.67.56 1.46.53 1.32.44 1.26.34 1.29.3 1.33.29 1.34.34 1.3.44 1.23.59 1.1.78.91.99.69 1.09.55.94.69.47 1.19-.18 1.85-.54 2.11-.31 1.5.2.82" filter="url(#a)"/><path d="m47.48-50.35 1.29 1.84.99.93 1.21.43 1.48.23 1.45.29 1.14.48.78.68.58.79.57.78.72.69.94.58 1.13.49 1.23.48 1.21.55 1.12.75 1.02.98.87 1.19.7 1.21.64.88 1.08.13M46.25-51.86l-1.02-1.32-.81-.71-.9-.41-.97-.3-.97-.28-.92-.27-.86-.28-.8-.35-.75-.49-.75-.62-.85-.65-1.06-.55-1.25-.3-1.16.05-.4.58 12.04 3.88 1.15 1.49.88.97.88.66 1.12.44 1.36.27 1.47.21 1.4.31 1.22.49 1.07.65 1.02.68 1.09.54 1.3.3 1.56.03 1.86-.18 2.15-.24 2.28-.07 2.05.12 1.63-1.5" filter="url(#a)"/><path d="m52.4-38.89.03-.43-.15-.56-.23-.74-.28-.83-.33-.9-.41-.97-.49-1.02-.54-1.02-.56-1-.59-.99-.58-1-.58-.98-.57-.97-.6-.97-.68-1.01-.74-1.04-.53-.62 19.36 6.5-2.16 1.14-1.75.55-1.51.14-1.24-.19-1.02-.48-.91-.67-.94-.73-1-.71-1.04-.66-1.05-.64-1.03-.62-1.01-.62-.93-.66-.76-.86-.52-1.28-.55-1.28-1.94 1.07" filter="url(#a)"/><path d="m61.02-45.9-1.34.53-1.46-.01-1.03-.4-.62-.81-.52-1.01-.74-.93-1.1-.61-1.41-.33-1.48-.21-1.34-.34-1.06-.58-.81-.76-.77-.8-.96-.72-1.11-.63-.7-.43-13.36-11.61.91.63 1 .57.76.42.6.38.57.42.62.52.74.63.82.73.87.78.85.77.79.72.72.66.67.61.63.6.66.65.73.73.61.55" filter="url(#a)"/><path d="m43.76-55.18 1.4.05.79.81.66 1.08.61 1.08.64.99.69.91.73.87.76.86.74.88.71.91.69.94.67.91.64.84.64.71.62.62.57.52.41.4.04.42-12.36-13.96.47.42.68.61.96.56 1.19.44 1.24.38 1.12.48.91.7.73.91.61 1.05.63 1.05.72.99.81.87.85.78.82.72.75.67.73.63.8.57.95.56 1.09.66 1.07.67.58-.73-17.71-12.99-1.04-1.2-.9-.35-.9-.19-.92-.21-.98-.29-1.03-.33-1.05-.39-1-.45-.9-.46-.8-.42-.75-.32-.76-.25-.79-.22-.85-.29-.87-.38-.88-.42-.89-.32-.93-.06-1 .23-1.04.34-.97.11-.83.15m17.45 2.18.64-2.93.22-2.48-.84-1.08-1.06-.75-.73-1.08-.26-1.54.05-1.92.14-2.11.04-2.14-.17-2.09-.38-1.98-.51-1.89-.55-1.74-.6-1.46-.71-1.1-.81-1-.62-1.66.08-3.01" filter="url(#a)"/><path d="m38.55-61.18.67.64.93.37 1.09.09 1.06.07.94.23.83.45.78.61.77.69.78.75.77.84.77.89.79.9.85.82.93.72.95.76.91.92.79.87.68-.01" filter="url(#a)"/><path d="m36.73-62.92 1.84.57.86 1.08.72.91.77.65.85.44.95.3 1.06.21 1.13.19 1.12.27 1.07.43 1.01.59.97.69.98.73 1.03.7 1.1.64 1.15.61 1.17.61 1.18.64 1.18.67 1.17.74 1.05.85.85.87.93.42 1.53-.7L36.09-63.6l-.51-1.33.28-2.24.33-2.73.01-2.57-.32-2.14-.49-1.8-.48-1.75-.44-1.78-.49-1.63-.69-1.16-.99-.57-1.18-.29-1.15-.63-.9-1.56-.55-2.63-.26-3.25-.18-3.1-.44-2.41-1.45-1.5 14.36 53.2-.48-1.68-.04-1.5-.03-1.39-.17-1.23-.29-1.08-.36-.96-.38-.93-.37-.98-.39-1.06-.48-1.07-.65-.96-.81-.8-.85-.72-.67-.77-.37-.95-.06-1.11.17-1.15.26-.63" filter="url(#a)"/><path d="m34.58-64.44.81-1.35.5-.02.67.12 1-.01 1.38-.22 1.66-.35 1.68-.31 1.51-.08 1.3.13 1.17.23 1.18.17 1.26.07 1.4-.03 1.53-.1 1.68-.19 1.78-.18 1.8.03 2.09.11 3.11-.9-29.83 1.16 1.46 1.02.73.46.53.37.52.43.61.55.73.68.83.78.86.83.83.82.75.78.68.74.61.7.59.7.6.75.64.81.66.85.68.95-2.62 3.17-.2-1.46-.4-1.13-.51-.92-.53-.8-.51-.8-.5-.85-.55-.92-.62-.96-.69-.95-.72-.91-.71-.84-.65-.75-.61-.64-.6-.53-.67-.49-.76-.52-.85-.65-.84-.82-.74-.99-.53-1.07-.37-.78-.82-.21.67.28.62.54.63.82.63 1.09.61 1.2.58 1.12.55.94.51.8.49.75.49.81.53.9.58.99.59 1.06.56 1.1.48 1.1.4 1.06.33 1.01.31.97.3 1.01.29 1.16.09 1.11M26.79-70.11l-1.3.11-.96-.52-.97-.67-.94-.52-.87-.3-.84-.17-.84-.14-.84-.15-.89-.17-.92-.17-.94-.19-.92-.19-.86-.17-.79-.14-.78-.08-.87-.09-1.09-.19-1.37-.25" filter="url(#a)"/><path d="m22.01-72.65-.43-.03-.76.16-.94.31-.97.24-.96.02-.94-.15-.92-.2-.89-.17-.85-.14-.83-.12-.85-.09-.89-.01-.96.08-1 .14-.97.15-.92.2-.88.33-.9.49-1.27.92" filter="url(#a)"/><path d="m2.21-91.41 1.31 2.12 1.05 1.16.89.6.88.45.92.51.95.57.97.64.97.72.97.84.96.93.94.89.92.73.91.51.9.38.88.46.84.76.8 1.11.74 1.35.69 1.31.72 1.01.8.65.52.81L8.47-91.69l.44 1.98.72 1.73.85 1.7.94 1.47.99 1.13.97.83.92.63.85.58.81.6.83.68.83.87.78 1.16.7 1.48.61 1.55.65 1.23.77.72.61.45-5.76-2.09 1.11.43 1.07.38.91.34.81.35.77.4.78.43.82.47.87.49.92.52.94.53.91.54.88.54.85.53.82.52.78.53.78.55.8.63.88.72.97.82 1 .8.57.34" filter="url(#a)"/><path d="m15.41-75.1-1-.6-.54-1.09-.62-1.63-.77-1.8-.85-1.85-.86-1.95-.85-1.94-.85-1.74-.87-1.47-.89-1.32-.89-1.38-.9-1.48-.93-1.47-1.01-1.39-1.12-1.37L1.2-99l-1.42-1.45-1.49-2.11-.68-4.77" filter="url(#a)"/><path d="m9.87-76.67.69.03 1.1-.13 1.14-.46 1.06-.65 1.01-.62 1-.45 1.03-.27 1.1-.23 1.17-.38 1.25-.66 1.29-.89 1.28-.94 1.23-.73 1.18-.36 1.16-.03 1.25.05 1.43-.22 1.64-.74 1.77-1.15 1.7-.95 1.37.04.9.99M9.87-76.67l.87-1.2 1.2-.85 1.12-.31 1.03-.36.97-.38.96-.23 1.02-.15 1.15-.35 1.29-.77 1.39-1.19 1.42-1.38 1.39-1.34 1.36-1.19 1.36-.99 1.39-.67 1.43-.21 1.47.06 1.61-.46 2.24-1.77M4.39-77.51l-.14-.61-.81-1.16-.96-1.27-1-1.18-1.05-.89-1.06-.58-1.04-.4-1.01-.29-1-.17-1.05-.14-1.1-.33-1.14-.78-1.14-1.27-1.06-1.52-.85-1.54-.21-1.24" filter="url(#a)"/><path d="m-19.27-84.78.6.75 1.04.78 1.26.61 1.26.42 1.17.21 1.07.05 1.03.01 1.01.13 1.01.33 1.02.5 1.02.51 1.01.37 1.01.12 1-.07.98-.14.96-.05.96.16 1 .4 1.06.64 1.05.67.92.42.91.4-1.2-.18 1.21.07.97-.09.81-.08.82-.02.88-.04.92-.1.97-.15.99-.13 1.01-.03 1 .1.98.21.95.22.92.17.95.04.99-.09 1.05-.2 1.12-.28 1.14-.34 1.13-.38 1.1-.39 1.04-.32.83-.11.36.4" filter="url(#a)"/></g><g fill="none" stroke="#000"><circle cx="10.31" cy="13.992" r="2.686" filter="url(#a)"/><circle cx="8.142" cy="11.208" r="1.376" filter="url(#a)"/><circle cx="10.938" cy="11.408" r="2.78" filter="url(#a)"/><circle cx="10.002" cy="11.428" r="1.154" filter="url(#a)"/><circle cx="9.338" cy="12.14" r="2.388" filter="url(#a)"/><circle cx="8.21" cy="10.932" r="1.174" filter="url(#a)"/><circle cx="9.594" cy="10.752" r="2.346" filter="url(#a)"/><circle cx="10.574" cy="11.8" r="1.572" filter="url(#a)"/><circle cx="11.222" cy="12.024" r="2.922" filter="url(#a)"/><circle cx="8.874" cy="13.132" r="2.746" filter="url(#a)"/><circle cx="-8.272" cy="17.114" r="1.836" filter="url(#a)"/><circle cx="-8.744" cy="18.33" r="2.99" filter="url(#a)"/><circle cx="-8.944" cy="18.73" r="1.752" filter="url(#a)"/><circle cx="-7.732" cy="17.266" r="2.578" filter="url(#a)"/><circle cx="-9.012" cy="18.11" r="1.306" filter="url(#a)"/><circle cx="-9.084" cy="15.734" r="2.85" filter="url(#a)"/><circle cx="-7.28" cy="17.846" r="2.338" filter="url(#a)"/><circle cx="-7.776" cy="15.33" r="2.438" filter="url(#a)"/><circle cx="-7.152" cy="17.898" r="1.124" filter="url(#a)"/><circle cx="-10.704" cy="17.438" r="2.24" filter="url(#a)"/></g><path fill="#D77F8C" stroke="#000" stroke-linejoin="round" stroke-width="3" d="m-44.5 40.06 1.15.59 1.13.58 1.11.59 1.1.58 1.08.58 1.06.58 1.05.58 1.04.57 1.02.57 1 .57 1 .56.98.56.96.56.96.55.94.54.93.54.92.53.91.53.9.52.89.51.88.51.87.5.87.49.85.48.84.47.84.47.83.46.83.44.82.44.81.43.8.42.8.4.8.4.79.39.79.37.78.36.78.35.78.34.78.32.77.31.77.3.77.28.77.27.77.25.77.24.77.23.77.21.78.19.77.18.78.16.77.15.78.13.79.11.78.09.8.07.79.06.8.04.81.02h.81l.81-.02.83-.04.83-.06.84-.08.84-.1.85-.13.86-.14.87-.16.88-.19.89-.21.9-.23.91-.26.92-.28.93-.3.94-.33.95-.35.97-.38.98-.4.99-.42 1.01-.45 1.01-.48 1.04-.51 1.05-.53 1.06-.55 1.08-.59 1.09-.61 1.11-.64 1.13-.67 1.15-.69 1.16-.73 1.18-.75 1.2-.79 1.21-.81 1.24-.85 1.26-.87 1.27-.9 1.3-.94 1.31-.97 1.34-1 1.36-1.03 1.38-1.06-1.38 1.06-1.36 1.03-1.34 1-1.31.97-1.3.94-1.27.9-1.26.87-1.24.85-1.21.81-1.2.79-1.18.75-1.16.73-1.15.69-1.13.67-1.11.64-1.09.61-1.08.59-1.06.55-1.05.53-1.04.51-1.01.48-1.01.45-.99.42-.98.4-.97.38-.95.35-.94.33-.93.3-.92.28-.91.26-.9.23-.89.21-.88.19-.87.16-.86.14-.85.13-.84.1-.84.08-.83.06-.83.04-.81.02h-.81l-.81-.02-.8-.04-.79-.06-.8-.07L2 62.3l-.79-.11-.78-.13-.78-.15-.77-.16-.77-.18-.78-.19-.77-.21-.77-.23-.77-.24-.77-.25-.77-.27-.77-.28-.77-.3-.77-.31-.78-.32-.78-.34-.78-.35-.78-.36-.79-.37-.79-.39-.8-.4-.8-.4-.8-.42-.81-.43-.82-.44-.83-.44-.83-.46-.84-.47-.84-.47-.85-.48-.87-.49-.87-.5-.88-.51-.89-.51-.9-.52-.91-.53-.92-.53-.93-.54-.94-.54-.96-.55-.96-.56-.98-.56-1-.56-1-.57-1.02-.57-1.04-.57-1.05-.58-1.06-.58-1.08-.58-1.1-.58-1.11-.59-1.13-.58" filter="url(#a)"/></svg>