<svg viewBox="-100 -100 200 200" xmlns="http://www.w3.org/2000/svg" width="500" height="500" id="face-svg">
    <defs>
      <clipPath id="leftEyeClipPath">
        <polyline points="36.14,1.38 35.67,1.12 35.16,0.84 34.63,0.55 34.06,0.25 33.46,-0.06 32.83,-0.38 32.17,-0.7 31.48,-1.03 30.76,-1.37 30.02,-1.71 29.25,-2.06 28.45,-2.41 27.63,-2.77 26.78,-3.12 25.91,-3.48 25.03,-3.88 24.11,-4.29 23.14,-4.7 22.14,-5.12 21.1,-5.54 20.02,-5.96 18.91,-6.38 17.77,-6.8 16.6,-7.21 15.4,-7.61 14.18,-8 12.94,-8.39 11.69,-8.76 10.42,-9.11 9.14,-9.46 7.85,-9.78 6.56,-10.09 5.27,-10.37 3.97,-10.64 2.68,-10.89 1.4,-11.11 0.13,-11.31 -1.14,-11.48 -2.39,-11.63 -3.62,-11.75 -4.83,-11.85 -6.02,-11.92 -7.19,-11.97 -8.34,-11.99 -9.46,-11.98 -10.55,-11.94 -11.62,-11.89 -12.65,-11.8 -13.65,-11.69 -14.62,-11.56 -15.56,-11.41 -16.47,-11.23 -17.34,-11.03 -18.18,-10.81 -18.98,-10.57 -19.76,-10.31 -20.5,-10.04 -21.2,-9.75 -21.88,-9.45 -22.52,-9.14 -23.14,-8.81 -23.72,-8.48 -24.28,-8.14 -24.82,-7.79 -25.33,-7.44 -25.81,-7.08 -26.27,-6.72 -26.71,-6.35 -27.12,-5.97 -27.51,-5.59 -27.88,-5.21 -28.23,-4.82 -28.56,-4.43 -28.86,-4.03 -29.15,-3.64 -29.42,-3.24 -29.67,-2.85 -29.9,-2.45 -30.12,-2.06 -25.42,4.76 -24.95,5.12 -24.46,5.48 -23.96,5.82 -23.44,6.17 -22.91,6.5 -22.37,6.83 -21.81,7.15 -21.24,7.46 -20.66,7.76 -20.06,8.06 -19.44,8.35 -18.82,8.62 -18.17,8.89 -17.52,9.15 -16.85,9.39 -16.16,9.63 -15.46,9.87 -14.74,10.09 -14.01,10.3 -13.25,10.5 -12.48,10.7 -11.7,10.87 -10.9,11.04 -10.08,11.19 -9.25,11.33 -8.41,11.46 -7.55,11.57 -6.68,11.66 -5.79,11.75 -4.9,11.81 -3.99,11.86 -3.07,11.9 -2.14,11.92 -1.2,11.93 -0.25,11.92 0.71,11.9 1.67,11.86 2.64,11.81 3.62,11.75 4.6,11.68 5.58,11.59 6.57,11.49 7.56,11.38 8.54,11.26 9.53,11.13 10.52,10.99 11.5,10.84 12.49,10.69 13.46,10.53 14.44,10.36 15.4,10.19 16.36,10.02 17.31,9.85 18.25,9.67 19.18,9.49 20.1,9.32 21.01,9.14 21.91,8.97 22.79,8.8 23.65,8.64 24.5,8.48 25.33,8.33 26.15,8.18 26.94,8.04 27.66,7.9 28.36,7.75 29.04,7.61 29.71,7.48 30.37,7.34 31.01,7.21 31.63,7.08 32.24,6.95 32.83,6.83 33.39,6.71 33.94,6.59 34.47,6.48 34.97,6.37 35.45,6.27 35.91,6.17" />
      </clipPath>
      <clipPath id="rightEyeClipPath">
        <polyline points="-36.02,-0.05 -35.59,-0.3 -35.14,-0.57 -34.66,-0.84 -34.14,-1.13 -33.59,-1.42 -33.02,-1.72 -32.41,-2.02 -31.78,-2.34 -31.11,-2.66 -30.42,-2.98 -29.7,-3.31 -28.95,-3.64 -28.17,-3.97 -27.37,-4.31 -26.54,-4.65 -25.74,-5.03 -24.89,-5.41 -23.99,-5.81 -23.05,-6.2 -22.07,-6.6 -21.04,-6.99 -19.98,-7.39 -18.88,-7.78 -17.74,-8.17 -16.58,-8.55 -15.38,-8.92 -14.17,-9.28 -12.92,-9.63 -11.66,-9.96 -10.39,-10.28 -9.1,-10.59 -7.8,-10.88 -6.5,-11.14 -5.19,-11.39 -3.88,-11.62 -2.58,-11.83 -1.28,-12.01 0.02,-12.17 1.3,-12.31 2.57,-12.42 3.82,-12.51 5.05,-12.57 6.27,-12.61 7.46,-12.62 8.62,-12.61 9.77,-12.57 10.88,-12.51 11.97,-12.42 13.02,-12.31 14.05,-12.18 15.04,-12.02 16,-11.84 16.92,-11.64 17.82,-11.43 18.68,-11.19 19.5,-10.94 20.3,-10.67 21.06,-10.38 21.78,-10.08 22.48,-9.77 23.15,-9.45 23.78,-9.12 24.39,-8.78 24.97,-8.44 25.53,-8.09 26.06,-7.73 26.56,-7.37 27.04,-7 27.5,-6.63 27.93,-6.25 28.34,-5.86 28.73,-5.47 29.1,-5.08 29.44,-4.68 29.76,-4.28 30.07,-3.88 30.35,-3.48 30.62,-3.08 30.87,-2.68 27.58,4.77 27.15,5.17 26.7,5.57 26.23,5.97 25.75,6.35 25.25,6.73 24.74,7.1 24.21,7.47 23.66,7.82 23.09,8.17 22.51,8.51 21.91,8.83 21.29,9.15 20.66,9.45 20,9.75 19.33,10.03 18.64,10.31 17.93,10.57 17.2,10.83 16.45,11.07 15.67,11.3 14.88,11.52 14.06,11.72 13.23,11.91 12.37,12.08 11.49,12.23 10.59,12.36 9.67,12.48 8.74,12.58 7.78,12.66 6.81,12.72 5.82,12.76 4.82,12.79 3.8,12.79 2.76,12.77 1.72,12.74 0.66,12.69 -0.41,12.62 -1.48,12.53 -2.57,12.42 -3.65,12.3 -4.75,12.16 -5.84,12.01 -6.94,11.84 -8.04,11.66 -9.13,11.47 -10.22,11.27 -11.31,11.06 -12.38,10.84 -13.45,10.61 -14.51,10.38 -15.55,10.14 -16.58,9.9 -17.6,9.65 -18.59,9.41 -19.57,9.17 -20.53,8.92 -21.46,8.69 -22.37,8.45 -23.26,8.23 -24.12,8.01 -24.95,7.8 -25.75,7.59 -26.52,7.4 -27.27,7.22 -27.98,7.03 -28.68,6.84 -29.36,6.65 -30.02,6.47 -30.66,6.29 -31.27,6.12 -31.87,5.96 -32.45,5.79 -33,5.64 -33.54,5.49 -34.05,5.34 -34.53,5.2 -34.99,5.07 -35.43,4.94 -35.84,4.82" />
      </clipPath>
      <filter id="fuzzy">
        <feTurbulence id="turbulence" baseFrequency="0.05" numOctaves="3" type="noise" result="noise" />
        <feDisplacementMap in="SourceGraphic" in2="noise" scale="2" />
      </filter>
      <linearGradient id="rainbowGradient" x1="0%" y1="0%" x2="100%" y2="0%">
        <stop offset="0%" style="stop-color: rgb(30, 30, 99); stop-opacity: 1" />
        <stop offset="50%" style="stop-color: rgb(223, 114, 105); stop-opacity: 1" />
        <stop offset="100%" style="stop-color: rgb(9, 114, 29); stop-opacity: 1" />
      </linearGradient>
    </defs>
    <rect x="-100" y="-100" width="100%" height="100%" fill="rgb(166, 188, 242)" />
    <polyline id="faceContour" points="78.53,-0.03 78.42,0.32 78.36,2.88 78.56,3.33 78.27,6.06 78.16,6.53 78.14,6.56 77.79,10.35 77.77,11.26 77.84,10.6 77.71,12.35 76.94,15.7 77.46,13.7 76.8,17.9 76.76,17.28 76.17,19.66 75.73,22.14 75.94,21.23 75.62,21.83 75.03,25 73.96,27.8 73.7,28.91 74.61,26.71 73.46,29.56 72.6,32.05 73.09,31.44 71.74,34.1 71.95,33.31 71.76,34.45 70.8,36.16 70.4,37.32 68.52,41.05 68.49,41.38 66.84,44.18 67.99,42.56 67.3,43.43 66.08,45.47 66.19,45.36 64.81,47.7 64.2,48.9 62.61,51.14 62.25,51.61 61.83,51.99 61.9,52.31 60.35,53.96 60.27,54.54 58.54,56.34 57.12,57.96 57.85,57.42 56.46,58.71 55.97,59.46 54.5,60.9 53.38,62.23 52.57,63.07 53.11,62.64 50.1,65.21 50.11,65.21 49.1,66.14 47.62,67.71 46.8,68.33 46.52,68.59 45.45,69.41 44.59,69.81 42.01,71.5 41.21,72.35 42.16,71.54 40.18,72.75 38.76,73.96 37.25,74.81 36.44,75.04 34.42,76.33 34.12,76.44 33.66,76.68 31.22,77.82 30.47,78.39 29.78,78.67 28.36,79.03 27.29,79.72 26.36,80.03 25,80.45 22.56,81.24 21.84,81.65 22.94,81.36 20.35,82.07 20.63,82.05 18.15,82.58 17.51,83 15.87,83.07 13.96,83.47 13.24,83.77 12.84,83.58 10.43,84.02 10.31,84.24 9.31,84.5 8.8,84.33 6.77,84.61 5.25,84.58 3.68,84.66 1.22,84.84 0.67,84.94 -0.85,84.83 -1.03,84.98 -2.22,84.71 -3.83,84.76 -5.25,84.53 -6.69,84.61 -6.92,84.72 -8.11,84.55 -10.39,84.06 -12.24,84.06 -10.97,84.04 -13.15,83.72 -16.47,82.93 -17.01,82.87 -17.59,82.76 -17.74,82.84 -20.62,81.83 -19.06,82.46 -21,81.94 -21.64,81.58 -25,80.44 -24.85,80.81 -26,80.24 -28.53,79.01 -29.58,78.81 -30.92,78.31 -30.99,78.1 -32.87,77.34 -32.02,77.55 -35.34,75.96 -34.71,76.28 -35.84,75.69 -39.27,73.8 -39.41,73.2 -39.82,73.24 -40.23,72.9 -41.58,71.78 -42.92,71.23 -43.92,70.29 -44.55,70.09 -44.39,70.02 -46.73,68 -47.28,67.89 -48.05,66.88 -50.24,65.28 -51.38,64.3 -50.87,64.67 -52.05,63.8 -52.71,63.22 -54.68,61.15 -54.59,60.8 -55.28,60.28 -56.9,58.54 -57.52,57.59 -58.81,56.1 -58.82,55.96 -60.77,53.74 -62.41,51.76 -61.21,53.26 -63.25,50.16 -62.93,51.06 -63.36,49.9 -64.1,48.96 -65.55,46.53 -65.37,47.09 -66.81,44.24 -68.35,42.12 -67.38,43.55 -68.22,41.48 -69.35,40.26 -69.74,38.95 -70.7,36.85 -71.69,34.58 -70.75,36.62 -72.21,33.51 -72.73,31.62 -72.69,31.49 -73.82,28.72 -73.84,28.79 -73.83,28.52 -75.21,24.88 -75.08,24.79 -74.73,25.83 -75.23,23.64 -76.1,20.48 -76.35,19.67 -76.68,17.9 -76.7,18.02 -76.9,17.25 -77.44,12.97 -77.39,12.88 -77.57,11.61 -78.08,9.91 -78.1,9.27 -78.31,6.68 -78.18,7.96 -78.48,5.01 -78.38,6.18 -78.26,2.77 -78.54,2.76 -78.65,-0.31 -78.27,-3.14 -78.3,-1.1 -78.35,-2.22 -78.36,-4.26 -78.12,-6.98 -78.18,-9.11 -77.85,-9.71 -78.02,-9.26 -77.86,-11.34 -77.63,-13.34 -77.83,-12.36 -77.28,-15.47 -76.94,-17.89 -76.77,-16.86 -76.38,-20.04 -75.67,-22.67 -75.59,-23.83 -75.07,-24.17 -75.08,-24.58 -74.55,-27.31 -74.41,-27.15 -73.83,-28.66 -74.08,-28.63 -72.42,-33.15 -72.14,-33.69 -71.82,-34.16 -72.13,-33.32 -70.76,-36.88 -70.5,-37.15 -69.59,-39.19 -68.52,-41.74 -69.5,-39.8 -68.24,-41.98 -66.58,-45.25 -66.7,-45.2 -66.21,-45.51 -65.81,-46.71 -65.28,-47.43 -64.05,-49.15 -63.91,-49.56 -62.21,-52.27 -61.8,-52.46 -60.31,-54.67 -60.9,-53.48 -59.2,-55.7 -57.8,-57.44 -58.74,-56.58 -57.13,-58.62 -56.62,-59.11 -55.61,-59.98 -53.65,-61.98 -53.26,-62.39 -53.3,-62.1 -51.74,-64 -50.48,-65.14 -50.91,-64.56 -49.01,-66.23 -48.33,-67.13 -47.75,-67.29 -45.75,-69.04 -45.57,-69.39 -43.89,-70.38 -43.72,-70.59 -41.57,-72.37 -41.85,-72.1 -41.16,-72.68 -39.32,-73.5 -37.31,-74.99 -36.02,-75.41 -35.56,-75.63 -34.86,-76.26 -34.34,-76.56 -31.68,-78.04 -31.25,-78.17 -29.6,-78.72 -29.9,-78.72 -28.11,-79.58 -26.98,-79.69 -26.14,-80.01 -23.35,-81.28 -24.31,-80.78 -22.87,-81.14 -22.43,-81.72 -18.2,-82.83 -17.65,-82.97 -18,-82.56 -17.1,-83.1 -14.38,-83.6 -14.79,-83.38 -14.23,-83.56 -11.45,-83.99 -9.84,-84.5 -9.45,-84.62 -6.41,-84.66 -5.96,-84.8 -5.1,-84.8 -3.07,-84.92 -1.88,-84.84 -1.89,-85.11 0.67,-85.01 1.89,-85.02 2.85,-84.81 4.05,-84.79 5.99,-84.9 7.33,-84.6 5.21,-85.02 9.14,-84.45 9.75,-84.35 12.54,-83.86 12.71,-84.03 13.14,-83.72 15.17,-83.34 15.08,-83.29 17.64,-83.02 18.47,-82.51 18.61,-82.43 20.03,-82.28 21.6,-81.89 22.09,-81.58 25.1,-80.69 25.44,-80.41 27.11,-79.76 27.79,-79.68 28.33,-79.12 29.53,-78.56 32.17,-77.5 31.13,-77.9 33.78,-76.71 33.32,-76.96 35.11,-76.02 36.87,-74.91 38.27,-74.29 39.96,-73.34 39.82,-73.31 41.97,-71.86 42.22,-71.89 42.84,-71.47 45.47,-69.27 46.44,-68.53 47.56,-67.58 45.42,-69.12 48.34,-66.96 50.03,-65.4 48.57,-66.61 49.71,-65.7 53.15,-62.78 53.72,-61.96 52.92,-63.04 53.68,-61.89 55.04,-60.4 55.86,-59.61 58.38,-56.84 57.64,-57.52 58.46,-56.39 58.98,-55.74 61.51,-52.82 61.61,-52.36 61.31,-52.68 61.92,-52.01 62.93,-50.7 64.87,-47.6 64.88,-47.76 65.46,-46.57 65.75,-46.46 66.43,-45.19 66.95,-44.3 68.03,-42.53 68.54,-41.86 69.13,-40.19 69.8,-38.93 71.29,-35.77 71.07,-35.76 71.67,-34.27 71.35,-35.05 72.81,-31.69 73.27,-30.75 73.23,-30.74 73.7,-29.23 73.6,-29.18 74.64,-26.83 74.99,-25.13 75.8,-22.37 75.67,-22.23 76.53,-19.51 76.26,-20.6 76.53,-19.31 77.21,-15.86 77.19,-16.12 77.38,-14.82 77.55,-11.8 77.72,-11.31 78.11,-9.26 78.28,-7.8 77.98,-7.93 78.18,-6.78 78.26,-4.51 78.5,-2.52 78.2,-4.27 78.39,-1.43 78.53,-0.03 78.42,0.32" fill="rgb(223, 168, 32)" stroke="black" stroke-width="1.6666666666666665" stroke-linejoin="round" filter="url(#fuzzy)" />
    <g transform="translate(36.910000000000004 -26.84)">
      <polyline id="rightCountour" points="-36.02,-0.05 -35.59,-0.3 -35.14,-0.57 -34.66,-0.84 -34.14,-1.13 -33.59,-1.42 -33.02,-1.72 -32.41,-2.02 -31.78,-2.34 -31.11,-2.66 -30.42,-2.98 -29.7,-3.31 -28.95,-3.64 -28.17,-3.97 -27.37,-4.31 -26.54,-4.65 -25.74,-5.03 -24.89,-5.41 -23.99,-5.81 -23.05,-6.2 -22.07,-6.6 -21.04,-6.99 -19.98,-7.39 -18.88,-7.78 -17.74,-8.17 -16.58,-8.55 -15.38,-8.92 -14.17,-9.28 -12.92,-9.63 -11.66,-9.96 -10.39,-10.28 -9.1,-10.59 -7.8,-10.88 -6.5,-11.14 -5.19,-11.39 -3.88,-11.62 -2.58,-11.83 -1.28,-12.01 0.02,-12.17 1.3,-12.31 2.57,-12.42 3.82,-12.51 5.05,-12.57 6.27,-12.61 7.46,-12.62 8.62,-12.61 9.77,-12.57 10.88,-12.51 11.97,-12.42 13.02,-12.31 14.05,-12.18 15.04,-12.02 16,-11.84 16.92,-11.64 17.82,-11.43 18.68,-11.19 19.5,-10.94 20.3,-10.67 21.06,-10.38 21.78,-10.08 22.48,-9.77 23.15,-9.45 23.78,-9.12 24.39,-8.78 24.97,-8.44 25.53,-8.09 26.06,-7.73 26.56,-7.37 27.04,-7 27.5,-6.63 27.93,-6.25 28.34,-5.86 28.73,-5.47 29.1,-5.08 29.44,-4.68 29.76,-4.28 30.07,-3.88 30.35,-3.48 30.62,-3.08 30.87,-2.68 27.58,4.77 27.15,5.17 26.7,5.57 26.23,5.97 25.75,6.35 25.25,6.73 24.74,7.1 24.21,7.47 23.66,7.82 23.09,8.17 22.51,8.51 21.91,8.83 21.29,9.15 20.66,9.45 20,9.75 19.33,10.03 18.64,10.31 17.93,10.57 17.2,10.83 16.45,11.07 15.67,11.3 14.88,11.52 14.06,11.72 13.23,11.91 12.37,12.08 11.49,12.23 10.59,12.36 9.67,12.48 8.74,12.58 7.78,12.66 6.81,12.72 5.82,12.76 4.82,12.79 3.8,12.79 2.76,12.77 1.72,12.74 0.66,12.69 -0.41,12.62 -1.48,12.53 -2.57,12.42 -3.65,12.3 -4.75,12.16 -5.84,12.01 -6.94,11.84 -8.04,11.66 -9.13,11.47 -10.22,11.27 -11.31,11.06 -12.38,10.84 -13.45,10.61 -14.51,10.38 -15.55,10.14 -16.58,9.9 -17.6,9.65 -18.59,9.41 -19.57,9.17 -20.53,8.92 -21.46,8.69 -22.37,8.45 -23.26,8.23 -24.12,8.01 -24.95,7.8 -25.75,7.59 -26.52,7.4 -27.27,7.22 -27.98,7.03 -28.68,6.84 -29.36,6.65 -30.02,6.47 -30.66,6.29 -31.27,6.12 -31.87,5.96 -32.45,5.79 -33,5.64 -33.54,5.49 -34.05,5.34 -34.53,5.2 -34.99,5.07 -35.43,4.94 -35.84,4.82" fill="white" stroke="white" stroke-width="0" stroke-linejoin="round" filter="url(#fuzzy)" />
    </g>
    <g transform="translate(-35.050000000000004 -26.430000000000003)">
      <polyline id="leftCountour" points="36.14,1.38 35.67,1.12 35.16,0.84 34.63,0.55 34.06,0.25 33.46,-0.06 32.83,-0.38 32.17,-0.7 31.48,-1.03 30.76,-1.37 30.02,-1.71 29.25,-2.06 28.45,-2.41 27.63,-2.77 26.78,-3.12 25.91,-3.48 25.03,-3.88 24.11,-4.29 23.14,-4.7 22.14,-5.12 21.1,-5.54 20.02,-5.96 18.91,-6.38 17.77,-6.8 16.6,-7.21 15.4,-7.61 14.18,-8 12.94,-8.39 11.69,-8.76 10.42,-9.11 9.14,-9.46 7.85,-9.78 6.56,-10.09 5.27,-10.37 3.97,-10.64 2.68,-10.89 1.4,-11.11 0.13,-11.31 -1.14,-11.48 -2.39,-11.63 -3.62,-11.75 -4.83,-11.85 -6.02,-11.92 -7.19,-11.97 -8.34,-11.99 -9.46,-11.98 -10.55,-11.94 -11.62,-11.89 -12.65,-11.8 -13.65,-11.69 -14.62,-11.56 -15.56,-11.41 -16.47,-11.23 -17.34,-11.03 -18.18,-10.81 -18.98,-10.57 -19.76,-10.31 -20.5,-10.04 -21.2,-9.75 -21.88,-9.45 -22.52,-9.14 -23.14,-8.81 -23.72,-8.48 -24.28,-8.14 -24.82,-7.79 -25.33,-7.44 -25.81,-7.08 -26.27,-6.72 -26.71,-6.35 -27.12,-5.97 -27.51,-5.59 -27.88,-5.21 -28.23,-4.82 -28.56,-4.43 -28.86,-4.03 -29.15,-3.64 -29.42,-3.24 -29.67,-2.85 -29.9,-2.45 -30.12,-2.06 -25.42,4.76 -24.95,5.12 -24.46,5.48 -23.96,5.82 -23.44,6.17 -22.91,6.5 -22.37,6.83 -21.81,7.15 -21.24,7.46 -20.66,7.76 -20.06,8.06 -19.44,8.35 -18.82,8.62 -18.17,8.89 -17.52,9.15 -16.85,9.39 -16.16,9.63 -15.46,9.87 -14.74,10.09 -14.01,10.3 -13.25,10.5 -12.48,10.7 -11.7,10.87 -10.9,11.04 -10.08,11.19 -9.25,11.33 -8.41,11.46 -7.55,11.57 -6.68,11.66 -5.79,11.75 -4.9,11.81 -3.99,11.86 -3.07,11.9 -2.14,11.92 -1.2,11.93 -0.25,11.92 0.71,11.9 1.67,11.86 2.64,11.81 3.62,11.75 4.6,11.68 5.58,11.59 6.57,11.49 7.56,11.38 8.54,11.26 9.53,11.13 10.52,10.99 11.5,10.84 12.49,10.69 13.46,10.53 14.44,10.36 15.4,10.19 16.36,10.02 17.31,9.85 18.25,9.67 19.18,9.49 20.1,9.32 21.01,9.14 21.91,8.97 22.79,8.8 23.65,8.64 24.5,8.48 25.33,8.33 26.15,8.18 26.94,8.04 27.66,7.9 28.36,7.75 29.04,7.61 29.71,7.48 30.37,7.34 31.01,7.21 31.63,7.08 32.24,6.95 32.83,6.83 33.39,6.71 33.94,6.59 34.47,6.48 34.97,6.37 35.45,6.27 35.91,6.17" fill="white" stroke="white" stroke-width="0" stroke-linejoin="round" filter="url(#fuzzy)" />
    </g>
    <g transform="translate(36.910000000000004 -26.84)">
      <polyline id="rightUpper" points="-38.66,1.8 -38.52,1.68 -38.35,1.55 -38.16,1.4 -37.94,1.23 -37.69,1.05 -37.42,0.86 -37.11,0.65 -36.78,0.43 -36.41,0.2 -36.02,-0.05 -35.59,-0.3 -35.14,-0.57 -34.66,-0.84 -34.14,-1.13 -33.59,-1.42 -33.02,-1.72 -32.41,-2.02 -31.78,-2.34 -31.11,-2.66 -30.42,-2.98 -29.7,-3.31 -28.95,-3.64 -28.17,-3.97 -27.37,-4.31 -26.54,-4.65 -25.74,-5.03 -24.89,-5.41 -23.99,-5.81 -23.05,-6.2 -22.07,-6.6 -21.04,-6.99 -19.98,-7.39 -18.88,-7.78 -17.74,-8.17 -16.58,-8.55 -15.38,-8.92 -14.17,-9.28 -12.92,-9.63 -11.66,-9.96 -10.39,-10.28 -9.1,-10.59 -7.8,-10.88 -6.5,-11.14 -5.19,-11.39 -3.88,-11.62 -2.58,-11.83 -1.28,-12.01 0.02,-12.17 1.3,-12.31 2.57,-12.42 3.82,-12.51 5.05,-12.57 6.27,-12.61 7.46,-12.62 8.62,-12.61 9.77,-12.57 10.88,-12.51 11.97,-12.42 13.02,-12.31 14.05,-12.18 15.04,-12.02 16,-11.84 16.92,-11.64 17.82,-11.43 18.68,-11.19 19.5,-10.94 20.3,-10.67 21.06,-10.38 21.78,-10.08 22.48,-9.77 23.15,-9.45 23.78,-9.12 24.39,-8.78 24.97,-8.44 25.53,-8.09 26.06,-7.73 26.56,-7.37 27.04,-7 27.5,-6.63 27.93,-6.25 28.34,-5.86 28.73,-5.47 29.1,-5.08 29.44,-4.68 29.76,-4.28 30.07,-3.88 30.35,-3.48 30.62,-3.08 30.87,-2.68 31.1,-2.28 31.31,-1.88 31.51,-1.49 31.69,-1.09 31.86,-0.7 32.01,-0.31 32.15,0.08 32.27,0.46 32.38,0.84 32.48,1.22" fill="none" stroke="black" stroke-width="1.6666666666666665" stroke-linejoin="round" filter="url(#fuzzy)" />
      <polyline id="rightLower" points="-38.56,3.88 -38.41,3.95 -38.23,4.03 -38.02,4.12 -37.79,4.2 -37.53,4.29 -37.24,4.39 -36.93,4.49 -36.6,4.59 -36.23,4.7 -35.84,4.82 -35.43,4.94 -34.99,5.07 -34.53,5.2 -34.05,5.34 -33.54,5.49 -33,5.64 -32.45,5.79 -31.87,5.96 -31.27,6.12 -30.66,6.29 -30.02,6.47 -29.36,6.65 -28.68,6.84 -27.98,7.03 -27.27,7.22 -26.52,7.4 -25.75,7.59 -24.95,7.8 -24.12,8.01 -23.26,8.23 -22.37,8.45 -21.46,8.69 -20.53,8.92 -19.57,9.17 -18.59,9.41 -17.6,9.65 -16.58,9.9 -15.55,10.14 -14.51,10.38 -13.45,10.61 -12.38,10.84 -11.31,11.06 -10.22,11.27 -9.13,11.47 -8.04,11.66 -6.94,11.84 -5.84,12.01 -4.75,12.16 -3.65,12.3 -2.57,12.42 -1.48,12.53 -0.41,12.62 0.66,12.69 1.72,12.74 2.76,12.77 3.8,12.79 4.82,12.79 5.82,12.76 6.81,12.72 7.78,12.66 8.74,12.58 9.67,12.48 10.59,12.36 11.49,12.23 12.37,12.08 13.23,11.91 14.06,11.72 14.88,11.52 15.67,11.3 16.45,11.07 17.2,10.83 17.93,10.57 18.64,10.31 19.33,10.03 20,9.75 20.66,9.45 21.29,9.15 21.91,8.83 22.51,8.51 23.09,8.17 23.66,7.82 24.21,7.47 24.74,7.1 25.25,6.73 25.75,6.35 26.23,5.97 26.7,5.57 27.15,5.17 27.58,4.77 28,4.36 28.4,3.94 28.79,3.52 29.16,3.09 29.52,2.67 29.86,2.23 30.2,1.8 30.51,1.36 30.82,0.92 31.11,0.47" fill="none" stroke="black" stroke-width="2.2222222222222223" stroke-linejoin="round" filter="url(#fuzzy)" />
      <circle r="3.158" cx="-0.23041826898336915" cy="0.3478876672851494" stroke="black" fill="none" stroke-width="1.0" filter="url(#fuzzy)" clip-path="url(#rightEyeClipPath)" /><circle r="4.648" cx="1.599581731016631" cy="1.4728876672851499" stroke="black" fill="none" stroke-width="1.0" filter="url(#fuzzy)" clip-path="url(#rightEyeClipPath)" /><circle r="4.632" cx="1.5795817310166314" cy="-0.3771123327148507" stroke="black" fill="none" stroke-width="1.0" filter="url(#fuzzy)" clip-path="url(#rightEyeClipPath)" /><circle r="4.76" cx="1.764581731016631" cy="-1.5571123327148508" stroke="black" fill="none" stroke-width="1.0" filter="url(#fuzzy)" clip-path="url(#rightEyeClipPath)" /><circle r="4.458" cx="-0.020418268983368737" cy="-1.0571123327148506" stroke="black" fill="none" stroke-width="1.0" filter="url(#fuzzy)" clip-path="url(#rightEyeClipPath)" /><circle r="3.578" cx="0.34458173101663103" cy="-2.0971123327148504" stroke="black" fill="none" stroke-width="1.0" filter="url(#fuzzy)" clip-path="url(#rightEyeClipPath)" /><circle r="4.402" cx="-1.080418268983369" cy="-1.2271123327148508" stroke="black" fill="none" stroke-width="1.0" filter="url(#fuzzy)" clip-path="url(#rightEyeClipPath)" /><circle r="3.19" cx="0.029581731016631085" cy="0.11788766728514943" stroke="black" fill="none" stroke-width="1.0" filter="url(#fuzzy)" clip-path="url(#rightEyeClipPath)" /><circle r="3.358" cx="-1.560418268983369" cy="1.4778876672851498" stroke="black" fill="none" stroke-width="1.0" filter="url(#fuzzy)" clip-path="url(#rightEyeClipPath)" /><circle r="4.436" cx="-0.01041826898336895" cy="-2.497112332714851" stroke="black" fill="none" stroke-width="1.0" filter="url(#fuzzy)" clip-path="url(#rightEyeClipPath)" />
      </g>
    <g transform="translate(-35.050000000000004 -26.430000000000003)">
      <polyline id="leftUpper" points="39.09,3.34 38.94,3.21 38.76,3.07 38.54,2.91 38.3,2.73 38.02,2.54 37.71,2.34 37.37,2.12 36.99,1.89 36.58,1.64 36.14,1.38 35.67,1.12 35.16,0.84 34.63,0.55 34.06,0.25 33.46,-0.06 32.83,-0.38 32.17,-0.7 31.48,-1.03 30.76,-1.37 30.02,-1.71 29.25,-2.06 28.45,-2.41 27.63,-2.77 26.78,-3.12 25.91,-3.48 25.03,-3.88 24.11,-4.29 23.14,-4.7 22.14,-5.12 21.1,-5.54 20.02,-5.96 18.91,-6.38 17.77,-6.8 16.6,-7.21 15.4,-7.61 14.18,-8 12.94,-8.39 11.69,-8.76 10.42,-9.11 9.14,-9.46 7.85,-9.78 6.56,-10.09 5.27,-10.37 3.97,-10.64 2.68,-10.89 1.4,-11.11 0.13,-11.31 -1.14,-11.48 -2.39,-11.63 -3.62,-11.75 -4.83,-11.85 -6.02,-11.92 -7.19,-11.97 -8.34,-11.99 -9.46,-11.98 -10.55,-11.94 -11.62,-11.89 -12.65,-11.8 -13.65,-11.69 -14.62,-11.56 -15.56,-11.41 -16.47,-11.23 -17.34,-11.03 -18.18,-10.81 -18.98,-10.57 -19.76,-10.31 -20.5,-10.04 -21.2,-9.75 -21.88,-9.45 -22.52,-9.14 -23.14,-8.81 -23.72,-8.48 -24.28,-8.14 -24.82,-7.79 -25.33,-7.44 -25.81,-7.08 -26.27,-6.72 -26.71,-6.35 -27.12,-5.97 -27.51,-5.59 -27.88,-5.21 -28.23,-4.82 -28.56,-4.43 -28.86,-4.03 -29.15,-3.64 -29.42,-3.24 -29.67,-2.85 -29.9,-2.45 -30.12,-2.06 -30.32,-1.67 -30.5,-1.28 -30.67,-0.89 -30.82,-0.5 -30.96,-0.12 -31.09,0.26 -31.2,0.63 -31.3,1 -31.39,1.37 -31.46,1.73" fill="none" stroke="black" stroke-width="2.2222222222222223" stroke-linejoin="round" filter="url(#fuzzy)" />
      <polyline id="leftLower" points="38.97,5.33 38.8,5.4 38.6,5.48 38.37,5.55 38.11,5.63 37.81,5.71 37.49,5.8 37.14,5.88 36.75,5.98 36.35,6.07 35.91,6.17 35.45,6.27 34.97,6.37 34.47,6.48 33.94,6.59 33.39,6.71 32.83,6.83 32.24,6.95 31.63,7.08 31.01,7.21 30.37,7.34 29.71,7.48 29.04,7.61 28.36,7.75 27.66,7.9 26.94,8.04 26.15,8.18 25.33,8.33 24.5,8.48 23.65,8.64 22.79,8.8 21.91,8.97 21.01,9.14 20.1,9.32 19.18,9.49 18.25,9.67 17.31,9.85 16.36,10.02 15.4,10.19 14.44,10.36 13.46,10.53 12.49,10.69 11.5,10.84 10.52,10.99 9.53,11.13 8.54,11.26 7.56,11.38 6.57,11.49 5.58,11.59 4.6,11.68 3.62,11.75 2.64,11.81 1.67,11.86 0.71,11.9 -0.25,11.92 -1.2,11.93 -2.14,11.92 -3.07,11.9 -3.99,11.86 -4.9,11.81 -5.79,11.75 -6.68,11.66 -7.55,11.57 -8.41,11.46 -9.25,11.33 -10.08,11.19 -10.9,11.04 -11.7,10.87 -12.48,10.7 -13.25,10.5 -14.01,10.3 -14.74,10.09 -15.46,9.87 -16.16,9.63 -16.85,9.39 -17.52,9.15 -18.17,8.89 -18.82,8.62 -19.44,8.35 -20.06,8.06 -20.66,7.76 -21.24,7.46 -21.81,7.15 -22.37,6.83 -22.91,6.5 -23.44,6.17 -23.96,5.82 -24.46,5.48 -24.95,5.12 -25.42,4.76 -25.88,4.39 -26.32,4.02 -26.76,3.64 -27.17,3.26 -27.58,2.87 -27.97,2.48 -28.35,2.08 -28.72,1.68 -29.07,1.28 -29.41,0.87" fill="none" stroke="black" stroke-width="2.2222222222222223" stroke-linejoin="round" filter="url(#fuzzy)" />
      <circle r="3.012" cx="-2.9438169645915613" cy="1.419429733394292" stroke="black" fill="none" stroke-width="1.0" filter="url(#fuzzy)" clip-path="url(#leftEyeClipPath)" /><circle r="3.89" cx="-0.30381696459156116" cy="4.1094297333942915" stroke="black" fill="none" stroke-width="1.0" filter="url(#fuzzy)" clip-path="url(#leftEyeClipPath)" /><circle r="4.8100000000000005" cx="-0.8888169645915611" cy="0.019429733394292104" stroke="black" fill="none" stroke-width="1.0" filter="url(#fuzzy)" clip-path="url(#leftEyeClipPath)" /><circle r="4.218" cx="-0.4038169645915608" cy="1.4694297333942918" stroke="black" fill="none" stroke-width="1.0" filter="url(#fuzzy)" clip-path="url(#leftEyeClipPath)" /><circle r="3.204" cx="-2.873816964591561" cy="3.179429733394292" stroke="black" fill="none" stroke-width="1.0" filter="url(#fuzzy)" clip-path="url(#leftEyeClipPath)" /><circle r="3.862" cx="-0.6588169645915611" cy="3.919429733394292" stroke="black" fill="none" stroke-width="1.0" filter="url(#fuzzy)" clip-path="url(#leftEyeClipPath)" /><circle r="4.746" cx="-0.32881696459156107" cy="2.464429733394292" stroke="black" fill="none" stroke-width="1.0" filter="url(#fuzzy)" clip-path="url(#leftEyeClipPath)" /><circle r="3.96" cx="-0.2588169645915612" cy="1.6444297333942917" stroke="black" fill="none" stroke-width="1.0" filter="url(#fuzzy)" clip-path="url(#leftEyeClipPath)" /><circle r="4.748" cx="1.171183035408439" cy="1.6494297333942924" stroke="black" fill="none" stroke-width="1.0" filter="url(#fuzzy)" clip-path="url(#leftEyeClipPath)" /><circle r="3.7640000000000002" cx="0.8911830354084396" cy="0.47942973339429207" stroke="black" fill="none" stroke-width="1.0" filter="url(#fuzzy)" clip-path="url(#leftEyeClipPath)" />
    </g>
    <g id="hairs">
      <polyline points="48.57,-66.61 50.19,-65.24 51.78,-63.83 52.89,-62.77 53.74,-61.88 54.56,-60.98 55.41,-60.02 56.27,-59.04 57.04,-58.15 57.68,-57.39 58.16,-56.81 58.46,-56.42 58.56,-56.25 58.44,-56.33 58.1,-56.65 57.55,-57.21 56.76,-58.01 55.66,-59.12 54.19,-60.6 52.46,-62.4 50.67,-64.39" fill="none" stroke="rgb(19, 134, 101)" stroke-width="2" stroke-linejoin="round" filter="url(#fuzzy)" /><polyline points="-39.32,-73.5 -37.6,-74.58 -36.14,-75.29 -34.71,-75.91 -33.14,-76.57 -31.38,-77.28 -29.48,-78.01 -27.53,-78.72 -25.59,-79.39 -23.69,-80.02 -21.84,-80.61 -20.05,-81.19 -18.37,-81.73 -16.86,-82.23 -15.57,-82.69 -14.53,-83.08 -13.78,-83.4 -13.37,-83.61 -13.45,-83.66 -14.09,-83.54" fill="none" stroke="rgb(19, 134, 101)" stroke-width="2" stroke-linejoin="round" filter="url(#fuzzy)" /><polyline points="25.1,-80.69 25.69,-80.34 26.32,-79.96 26.75,-79.55 26.98,-79.12 26.98,-78.67 26.7,-78.21 26.1,-77.77 25.18,-77.32 23.92,-76.84 22.32,-76.33 20.33,-75.79 17.91,-75.24 15.01,-74.69 11.59,-74.15 7.6,-73.62 3.04,-73.07 -2.1,-72.51 -7.8,-71.94 -14.06,-71.41 -20.92,-70.93 -28.41,-70.48 -36.57,-69.99" fill="none" stroke="rgb(19, 134, 101)" stroke-width="2" stroke-linejoin="round" filter="url(#fuzzy)" /><polyline points="-5.96,-84.8 -4.89,-84.81 -3.82,-84.81 -2.97,-84.76 -2.31,-84.65 -1.84,-84.46 -1.61,-84.17 -1.67,-83.79 -2.07,-83.33 -2.84,-82.76 -3.98,-82.09 -5.47,-81.3 -7.32,-80.38 -9.55,-79.31 -12.22,-78.09 -15.4,-76.72 -19.11,-75.2 -23.36,-73.53 -28.13,-71.72 -33.41,-69.77 -39.24,-67.67 -45.78,-65.25" fill="none" stroke="rgb(19, 134, 101)" stroke-width="2" stroke-linejoin="round" filter="url(#fuzzy)" /><polyline points="-17.65,-82.97 -17.51,-82.85 -16.83,-82.96 -16.09,-83.03 -15.46,-83.02 -14.91,-82.93 -14.45,-82.74 -14.15,-82.45 -14.08,-82.01 -14.3,-81.41 -14.85,-80.64 -15.75,-79.69 -17.02,-78.56 -18.64,-77.25 -20.63,-75.75 -22.99,-74.05 -25.73,-72.15 -28.9,-70.04 -32.52,-67.72 -36.64,-65.15 -41.29,-62.31 -46.49,-59.14 -52.21,-55.6 -58.41,-51.72" fill="none" stroke="rgb(19, 134, 101)" stroke-width="2" stroke-linejoin="round" filter="url(#fuzzy)" /><polyline points="61.61,-52.36 61.66,-52.27 62.2,-51.54 62.93,-50.49 63.6,-49.49 64.1,-48.71 64.4,-48.16 64.55,-47.8 64.57,-47.59 64.46,-47.5 64.18,-47.55 63.73,-47.77 63.08,-48.2 62.2,-48.88 61.09,-49.88 59.7,-51.25 58.03,-53.02 56.03,-55.23 53.64,-57.91 50.84,-61.05 47.68,-64.63 44.15,-68.61" fill="none" stroke="rgb(19, 134, 101)" stroke-width="2" stroke-linejoin="round" filter="url(#fuzzy)" /><polyline points="-37.31,-74.99 -36.03,-75.31 -34.36,-75.58 -32.08,-75.86 -29.15,-76.15 -25.65,-76.37 -21.7,-76.49 -17.37,-76.5 -12.69,-76.4 -7.68,-76.23 -2.38,-76.04 3.14,-75.86 8.79,-75.67 14.55,-75.45 20.42,-75.18 26.42,-74.87 32.53,-74.56" fill="none" stroke="rgb(19, 134, 101)" stroke-width="2" stroke-linejoin="round" filter="url(#fuzzy)" /><polyline points="18.47,-82.51 18.84,-82.4 19.3,-82.19 19.51,-81.88 19.29,-81.48 18.52,-81.05 17.1,-80.63 14.92,-80.21 11.94,-79.81 8.15,-79.41 3.56,-79.01 -1.86,-78.63 -8.18,-78.28 -15.5,-77.94 -24.05,-77.48" fill="none" stroke="rgb(19, 134, 101)" stroke-width="2" stroke-linejoin="round" filter="url(#fuzzy)" /><polyline points="48.57,-66.61 50.07,-65.34 51.31,-64.18 51.82,-63.54 51.79,-63.26 51.44,-63.13 50.85,-63.08 49.96,-63.16 48.69,-63.46 46.95,-64.05 44.72,-64.94 41.98,-66.14 38.68,-67.67 34.73,-69.58 30.06,-71.91 24.69,-74.63 18.82,-77.67 12.71,-81.01" fill="none" stroke="rgb(19, 134, 101)" stroke-width="2" stroke-linejoin="round" filter="url(#fuzzy)" /><polyline points="47.56,-67.58 46.82,-68.01 46.91,-67.63 46.63,-67.31 45.77,-67.19 44.35,-67.24 42.29,-67.48 39.44,-68.01 35.71,-68.84 31.07,-69.96 25.54,-71.3 19.1,-72.88 11.73,-74.78 3.39,-77.14 -5.98,-79.99" fill="none" stroke="rgb(19, 134, 101)" stroke-width="2" stroke-linejoin="round" filter="url(#fuzzy)" /><polyline points="50.03,-65.4 49.41,-65.77 49.58,-65.14 49.51,-64.35 48.75,-63.74 47.27,-63.31 45.17,-62.97 42.51,-62.64 39.23,-62.34 35.27,-62.12 30.57,-62.02 25.1,-62.05 18.88,-62.22 11.88,-62.52 4.06,-62.97 -4.64,-63.58 -14.22,-64.31 -24.69,-65.07 -36.09,-65.87" fill="none" stroke="rgb(19, 134, 101)" stroke-width="2" stroke-linejoin="round" filter="url(#fuzzy)" /><polyline points="45.42,-69.12 47.39,-67.49 47.96,-66.61 47.81,-66.02 47.24,-65.44 46.21,-64.89 44.61,-64.43 42.39,-64.08 39.57,-63.79 36.16,-63.54 32.14,-63.33 27.46,-63.18 22.09,-63.14 16.01,-63.23 9.22,-63.43 1.69,-63.75 -6.64,-64.19 -15.82,-64.77 -25.86,-65.44 -36.75,-66.13" fill="none" stroke="rgb(19, 134, 101)" stroke-width="2" stroke-linejoin="round" filter="url(#fuzzy)" /><polyline points="48.34,-66.96 48.9,-66.2 48.66,-65.74 48.17,-65.05 47.23,-64.25 45.58,-63.52 43.18,-62.87 40.07,-62.23 36.3,-61.57 31.85,-60.88 26.66,-60.22 20.68,-59.61 13.88,-59.07 6.22,-58.57 -2.33,-58.1 -11.81,-57.67 -22.26,-57.31 -33.61,-57.01 -45.63,-56.86" fill="none" stroke="rgb(19, 134, 101)" stroke-width="2" stroke-linejoin="round" filter="url(#fuzzy)" /><polyline points="66.43,-45.19 66.92,-44.27 67.17,-43.48 67.05,-42.92 66.54,-42.62 65.59,-42.66 64.15,-43.15 62.17,-44.16 59.65,-45.72 56.57,-47.8 52.93,-50.4 48.7,-53.52 43.84,-57.21 38.34,-61.47 32.19,-66.3 25.31,-71.7 17.55,-77.71" fill="none" stroke="rgb(19, 134, 101)" stroke-width="2" stroke-linejoin="round" filter="url(#fuzzy)" /><polyline points="9.14,-84.45 10.14,-84.26 11.08,-84.01 11.62,-83.73 11.84,-83.39 11.78,-82.99 11.44,-82.51 10.79,-81.95 9.79,-81.32 8.43,-80.61 6.68,-79.79 4.54,-78.86 1.97,-77.8 -1.07,-76.63 -4.64,-75.33 -8.77,-73.94 -13.49,-72.45 -18.79,-70.86 -24.66,-69.17 -31.12,-67.36 -38.17,-65.47 -45.7,-63.65" fill="none" stroke="rgb(19, 134, 101)" stroke-width="2" stroke-linejoin="round" filter="url(#fuzzy)" /><polyline points="66.95,-44.3 29.47,-58.87 -0.63,-67.09 -13.83,-72.85 -17.94,-74.79 -16.87,-72.53 -11.34,-67.37 -2.81,-61.73 5.58,-57.97 10.8,-57.4 11.71,-59.86 9.46,-64.08 6.61,-68.48 5.87,-71.72 8.95,-72.9 15.65,-71.47 23.86,-67.34 31.33,-61.16 39.25,-53.57 54.44,-43.1 72.81,-31.69" fill="none" stroke="rgb(19, 134, 101)" stroke-width="2" stroke-linejoin="round" filter="url(#fuzzy)" /><polyline points="64.88,-47.76 50.92,-62.3 43.17,-66.57 32.12,-67.85 21.09,-67.1 15.16,-65 15.58,-62.97 20.04,-62.28 25.12,-63.31 28.37,-65.27 29,-66.68 26.57,-66.72 18.65,-66.67 1.2,-68.67 -26.11,-69.11 -62.21,-52.27" fill="none" stroke="rgb(19, 134, 101)" stroke-width="2" stroke-linejoin="round" filter="url(#fuzzy)" /><polyline points="12.71,-84.03 24.23,-76.18 20.41,-71.72 15.78,-71.67 14.97,-73.61 15.26,-75.66 13.93,-77.07 10.18,-77.76 4.77,-77.97 -0.5,-77.83 -3.47,-77.35 -2.43,-76.45 3.03,-75.12 11.85,-73.35 22.18,-71.02 32.46,-67.75 42,-63.15 50.68,-57.32 58.03,-51.41 62.9,-47.42 64.39,-46.86 62.58,-49.81 55.04,-60.4" fill="none" stroke="rgb(19, 134, 101)" stroke-width="2" stroke-linejoin="round" filter="url(#fuzzy)" /><polyline points="18.47,-82.51 2.44,-83.2 -0.53,-82.7 2.51,-80.57 10.39,-76.92 19.73,-72.16 26.6,-66.98 28.86,-62.51 27.53,-59.82 26.5,-58.98 29.36,-58.94 35.04,-59 36.26,-60.66 24.85,-66.78 3.89,-76.96 4.05,-84.79" fill="none" stroke="rgb(19, 134, 101)" stroke-width="2" stroke-linejoin="round" filter="url(#fuzzy)" /><polyline points="-55.61,-59.98 -7.72,-72.15 -2,-75.89 -6.22,-77.44 -8.35,-78.32 -6.58,-78.36 -1.99,-77.24 3.94,-74.91 10.29,-71.53 16.95,-67.45 24.16,-63.18 31.74,-59.25 38.81,-56.15 44.03,-54.24 46.13,-53.81 44.24,-55.11 38.01,-58.2 27.83,-62.79 15.19,-68.11 2.68,-73.07 -6.7,-76.58 -10.93,-77.33 -8.69,-72.98 8.11,-58.98 74.64,-26.83" fill="none" stroke="rgb(19, 134, 101)" stroke-width="2" stroke-linejoin="round" filter="url(#fuzzy)" /><polyline points="-9.45,-84.62 -5.17,-83.72 -2.56,-78.97 4.76,-72.17 12.07,-66.19 15.16,-62.52 13.09,-61.12 6.4,-61.27 -3.59,-62.31 -14.58,-63.94 -23.54,-66.1 -27.85,-68.67 -26.23,-71.32 -19.13,-73.56 -8.53,-74.86 2.48,-74.9 10.79,-73.86 14.7,-72.55 13.18,-71.94 -1.45,-71.59 -50.91,-64.56" fill="none" stroke="rgb(19, 134, 101)" stroke-width="2" stroke-linejoin="round" filter="url(#fuzzy)" /><polyline points="-14.79,-83.38 7.41,-75.08 21.23,-64.13 14.46,-59.38 1.85,-59.72 -3.58,-62.02 0.11,-64.1 8.03,-65.04 15.43,-64.76 20.35,-63.98 21.69,-64.33 17.32,-67.53 6.32,-73.6 -6.85,-79.84 -14.02,-83.07 -14.23,-83.56" fill="none" stroke="rgb(19, 134, 101)" stroke-width="2" stroke-linejoin="round" filter="url(#fuzzy)" /><polyline points="71.29,-35.77 12.48,-64.32 -4.47,-74.5 -10.06,-75.83 -8.26,-74.04 0.36,-71.71 11.98,-69.61 21.34,-68.01 24.81,-67.27 21.81,-67.55 14.73,-68.47 7.51,-69.21 3.76,-69.14 5.08,-68.22 10.25,-66.81 15.76,-65.01 17.47,-62.57 12.89,-60.45 3.59,-62.31 -4.61,-71.56 -24.31,-80.78" fill="none" stroke="rgb(19, 134, 101)" stroke-width="2" stroke-linejoin="round" filter="url(#fuzzy)" /><polyline points="28.33,-79.12 -0.84,-71.89 9.92,-72.32 22.06,-72.36 27.65,-70.99 27.29,-69.35 24.64,-68.24 23.17,-67.8 23.59,-67.82 23.65,-68.06 20.03,-68.36 11.13,-68.8 -1.12,-69.5 -11.46,-70.24 -14.18,-70.01 -7.41,-66.82 9.77,-57.21 71.07,-35.76" fill="none" stroke="rgb(19, 134, 101)" stroke-width="2" stroke-linejoin="round" filter="url(#fuzzy)" /><polyline points="-50.91,-64.56 11.94,-58.68 18.54,-62.91 14.98,-66.28 11.83,-68.61 9.12,-70.18 7.16,-70.63 7.45,-69.87 10.59,-68.45 15.51,-67.14 20.26,-66.55 23.15,-66.93 23.28,-68.37 20.45,-70.82 15.42,-73.96 10.08,-77.25 6.52,-80.22 4.88,-82.72 3.67,-84.37 7.33,-84.6" fill="none" stroke="rgb(19, 134, 101)" stroke-width="2" stroke-linejoin="round" filter="url(#fuzzy)" /><polyline points="-14.38,-83.6 3.74,-82.98 11.93,-81.89 16.07,-80.16 22.61,-76.65 31.94,-71.73 41.06,-66.63 46.91,-62.44 47.57,-59.7 42.2,-58.69 31.34,-59.5 17.9,-61.46 6.6,-62.98 -0.57,-63.71 -6.81,-68.26 9.75,-84.35" fill="none" stroke="rgb(19, 134, 101)" stroke-width="2" stroke-linejoin="round" filter="url(#fuzzy)" /><polyline points="-48.33,-67.13 -36.79,-67.17 -12.61,-62.2 4.45,-59.11 8.39,-59.17 6.26,-60.51 4.7,-61.96 5.11,-63.5 6.54,-65.31 9.01,-67.12 13.25,-68.49 18.28,-69.44 20.87,-70.61 18.61,-72.53 14.11,-74.48 13.85,-74.64 15.98,-73.6 -14.23,-83.56" fill="none" stroke="rgb(19, 134, 101)" stroke-width="2" stroke-linejoin="round" filter="url(#fuzzy)" /><polyline points="-18.2,-82.83 -27.1,-79.19 -32.15,-75.74 -33.79,-72.33 -29.77,-70.54 -22.86,-70.11 -17.67,-69.74 -16.14,-68.5 -16.69,-66.37 -16.48,-64.15 -13.96,-62.95 -9.62,-63.57 -4.98,-65.97 -0.89,-69.08 3.46,-71.1 10.26,-70.31 21.54,-65.8 37.06,-58.1 53.02,-49.28 63.43,-42.92 63.36,-45.01 48.34,-66.96" fill="none" stroke="rgb(19, 134, 101)" stroke-width="2" stroke-linejoin="round" filter="url(#fuzzy)" /><polyline points="-45.75,-69.04 4.25,-70.38 29.41,-65.22 31.96,-63.04 22.2,-63.96 10.76,-66.1 3.13,-67.75 -0.89,-68.46 -3.72,-68.91 -6.65,-69.84 -9,-71.2 -9.43,-72.29 -7.23,-72.62 -2.33,-72.41 5.43,-72.24 16.19,-72.13 28.95,-71.34 40.87,-69.22 53.68,-61.89" fill="none" stroke="rgb(19, 134, 101)" stroke-width="2" stroke-linejoin="round" filter="url(#fuzzy)" /><polyline points="-31.68,-78.04 9.09,-73.17 12.59,-74.63 16.5,-73.67 25.97,-69.98 36,-65.07 41.57,-60.27 39.72,-56.56 29.55,-54.68 12.74,-55.14 -6.21,-58 -21.33,-62.73 -28.15,-68.31 -26.02,-73.51 -17.68,-77.27 -5.88,-79.24 9.03,-80.44 18.47,-82.51" fill="none" stroke="rgb(19, 134, 101)" stroke-width="2" stroke-linejoin="round" filter="url(#fuzzy)" /><polyline points="73.27,-30.75 33.11,-64.13 15.39,-75.28 0.09,-77.01 -13.98,-74.64 -23.44,-71.64 -26.42,-70.09 -23.81,-70.5 -17.84,-72.36 -10.47,-74.68 -2.95,-76.58 3.71,-77.51 8.37,-77.25 10.36,-75.8 10.32,-73.3 10.52,-70.08 13.72,-66.87 20.83,-64.76 29.7,-64.69 36.96,-66.4 42.04,-67.81 47.11,-66.9 49.71,-65.7" fill="none" stroke="rgb(19, 134, 101)" stroke-width="2" stroke-linejoin="round" filter="url(#fuzzy)" /><polyline points="39.82,-73.31 -10.56,-64.31 -3.61,-58.36 10.84,-54.69 12.86,-55 4.85,-58 -4.21,-61.74 -8.2,-65.01 -5.69,-67.12 1.82,-67.65 11.67,-66.69 20.73,-65.02 26.01,-63.97 25.9,-64.6 21.52,-66.89 16.62,-69.63 14.99,-71.37 17.31,-72.01 21.59,-72.73 30.64,-72.16 53.68,-61.89" fill="none" stroke="rgb(19, 134, 101)" stroke-width="2" stroke-linejoin="round" filter="url(#fuzzy)" /><polyline points="42.22,-71.89 33.23,-59 22.03,-58.86 22.64,-61.28 23.34,-65 19.46,-69.45 13.02,-73.47 7.58,-76.08 5.47,-76.9 7.24,-76.05 11.92,-73.9 17.4,-71.06 21.24,-68.35 21.56,-66.65 17.89,-66.55 11.37,-67.92 4.06,-69.83 -2.1,-70.88 -6.24,-70.02 -8.89,-67.39 -11.42,-64.66 -13.89,-63.97 -10.46,-64.99 13.68,-60.15 73.6,-29.18" fill="none" stroke="rgb(19, 134, 101)" stroke-width="2" stroke-linejoin="round" filter="url(#fuzzy)" /><polyline points="-18,-82.56 -13.77,-80.93 -10.27,-80.19 -10,-80.07 -6.54,-80.22 1.06,-80.13 9.5,-79.62 14.66,-78.9 14.02,-78.13 7.84,-77.05 -0.17,-75.06 -3.27,-71.59 5.37,-66.71 25.62,-62.1 41.82,-62.79 25.1,-80.69" fill="none" stroke="rgb(19, 134, 101)" stroke-width="2" stroke-linejoin="round" filter="url(#fuzzy)" /><polyline points="38.27,-74.29 4.68,-78.5 -6.44,-77.4 -1.51,-73.75 6.68,-69.04 11.53,-65.2 12.15,-63.21 9.3,-63.13 3.77,-64.54 -3.06,-66.86 -8.8,-69.4 -11.02,-71.52 -8.77,-72.78 -3.36,-73.04 2.38,-72.51 6.04,-71.68 7.31,-70.86 7.89,-69.36 9.37,-65.1 16.43,-55.42 71.29,-35.77" fill="none" stroke="rgb(19, 134, 101)" stroke-width="2" stroke-linejoin="round" filter="url(#fuzzy)" /><polyline points="27.11,-79.76 24.96,-75.18 18.92,-70.45 11.78,-68.88 8.21,-67.79 6.93,-66.62 5.85,-66.03 3.81,-66.39 0.39,-67.47 -3.97,-68.77 -7.59,-69.84 -8.43,-70.31 -6.17,-69.89 -3.9,-68.6 -6.81,-67.04 -16.99,-66.49 -27.69,-68.09 -23.72,-72.19 15.17,-83.34" fill="none" stroke="rgb(19, 134, 101)" stroke-width="2" stroke-linejoin="round" filter="url(#fuzzy)" /><polyline points="-3.07,-84.92 -6.82,-82.67 -0.08,-79.71 3.94,-76.68 5.74,-74.46 6.34,-73.04 5.44,-72.2 3.68,-71.78 3.32,-71.61 6.52,-71.42 13.43,-70.83 21.22,-69.61 24.91,-68.12 20.02,-67.41 6.38,-68.48 -8.97,-71.39 -16.93,-75.25 -35.56,-75.63" fill="none" stroke="rgb(19, 134, 101)" stroke-width="2" stroke-linejoin="round" filter="url(#fuzzy)" /><polyline points="2.85,-84.81 8.2,-74.2 24.51,-63.54 26.31,-62.33 19.33,-67.53 12.57,-73.34 9.96,-76.2 11.22,-75.73 13.88,-73.66 14.53,-72.36 10.54,-73.02 2.56,-74.83 -3.88,-75.65 -1.2,-74.52 9.08,-74.21 -9.45,-84.62" fill="none" stroke="rgb(19, 134, 101)" stroke-width="2" stroke-linejoin="round" filter="url(#fuzzy)" /><polyline points="69.8,-38.93 17.29,-67.43 2.19,-75.4 -0.01,-74.65 -2.56,-72.41 -7.59,-71.82 -12.09,-72.93 -13.05,-74.66 -9.89,-76.3 -4.62,-77.69 -0.18,-78.71 2.4,-78.71 6.01,-76.58 16.58,-71.24 37.73,-63.63 53.15,-62.78" fill="none" stroke="rgb(19, 134, 101)" stroke-width="2" stroke-linejoin="round" filter="url(#fuzzy)" /><polyline points="-6.41,-84.66 20.06,-76.89 40.35,-65.65 51.8,-57.69 55.4,-55.31 53.45,-57.35 48.41,-61.29 42.23,-65.03 36.16,-67.64 30.95,-69.14 27.24,-69.91 25.7,-70.15 26.65,-69.87 29.58,-69.14 32.86,-68.38 34.34,-68.32 32.44,-69.62 27.17,-72.31 20.28,-75.66 14.28,-78.57 10.67,-80.23 8.1,-80.48 1.28,-79.38 -17.81,-75.7 -51.74,-64" fill="none" stroke="rgb(19, 134, 101)" stroke-width="2" stroke-linejoin="round" filter="url(#fuzzy)" /><polyline points="-1.89,-85.11 -25.35,-72.97 -18.64,-74.3 -4.27,-73.44 10.84,-69.92 21.93,-67.25 26.92,-67.44 26.85,-69.96 24.26,-72.99 21.66,-74.85 20.74,-74.65 22.19,-72.45 25.68,-69 30.06,-65.42 33.9,-62.77 36.27,-61.7 37.14,-62.33 37.22,-64.26 37.34,-66.74 38.08,-68.75 40.04,-69.13 43.57,-67.3 46.95,-64.72 43.29,-66.76 20.03,-82.28" fill="none" stroke="rgb(19, 134, 101)" stroke-width="2" stroke-linejoin="round" filter="url(#fuzzy)" /><polyline points="-11.45,-83.99 -13.81,-67.05 13.51,-58.48 29.85,-54.72 32.23,-56.47 28.22,-61.8 23.61,-67.76 20.16,-72.13 17.41,-73.87 14.76,-73.1 12.41,-70.79 11.19,-68.31 11.78,-66.82 14.08,-66.69 17.14,-67.39 19.63,-68.04 20.31,-68.26 17.57,-68.77 8.94,-71.05 -3.3,-75.79 12.71,-84.03" fill="none" stroke="rgb(19, 134, 101)" stroke-width="2" stroke-linejoin="round" filter="url(#fuzzy)" />
    </g>
    
        <g id="lineNose">
        <path d="M -9.57,13.86 Q 10.3, 23.28 0.3650000000000002, -5.202000000000001" fill="none" stroke="black" stroke-width="3" stroke-linejoin="round" filter="url(#fuzzy)"></path>
        </g>
      
    <g id="mouth">
      <polyline points="-63.47,35.73 -62.4,36.3 -61.3,36.87 -60.17,37.43 -59.02,38 -57.85,38.57 -56.66,39.14 -55.44,39.7 -54.2,40.27 -52.95,40.83 -51.67,41.39 -50.37,41.95 -49.06,42.5 -47.73,43.06 -46.38,43.61 -45.01,44.15 -43.63,44.69 -42.24,45.23 -40.83,45.77 -39.4,46.3 -37.97,46.82 -36.52,47.34 -35.06,47.85 -33.59,48.36 -32.11,48.86 -30.62,49.36 -29.12,49.85 -27.61,50.33 -26.1,50.8 -24.58,51.27 -23.06,51.73 -21.53,52.18 -19.99,52.62 -18.45,53.05 -16.91,53.48 -15.37,53.89 -13.83,54.3 -12.28,54.69 -10.73,55.08 -9.19,55.45 -7.65,55.81 -6.1,56.16 -4.56,56.5 -3.03,56.83 -1.5,57.15 0.03,57.45 1.55,57.75 3.07,58.02 4.58,58.29 6.08,58.54 7.57,58.78 9.05,59 10.53,59.21 11.99,59.41 13.44,59.59 14.88,59.75 16.31,59.9 17.73,60.03 19.13,60.15 20.51,60.25 21.89,60.33 23.24,60.39 24.58,60.44 25.9,60.47 27.2,60.49 28.49,60.48 29.75,60.46 31,60.41 32.22,60.35 33.42,60.27 34.6,60.17 35.76,60.04 36.89,59.9 38,59.74 39.09,59.55 40.14,59.35 41.18,59.12 42.18,58.87 43.16,58.6 44.1,58.31 45.02,57.99 45.91,57.65 46.77,57.29 47.59,56.9 48.39,56.49 49.15,56.06 49.88,55.6 50.57,55.11 51.23,54.6 51.85,54.07 52.44,53.51 52.99,52.92 53.5,52.31 53.98,51.67 54.41,51 54.81,50.31 55.16,49.59 55.47,48.84 55.75,48.06 55.97,47.25 55.97,47.25 54.78,47.3 53.59,47.33 52.39,47.36 51.2,47.39 50,47.41 48.81,47.43 47.61,47.44 46.42,47.45 45.22,47.46 44.03,47.46 42.84,47.45 41.64,47.44 40.45,47.43 39.25,47.41 38.06,47.39 36.86,47.36 35.67,47.33 34.47,47.3 33.28,47.26 32.09,47.22 30.89,47.17 29.7,47.13 28.5,47.07 27.31,47.01 26.11,46.95 24.92,46.89 23.72,46.82 22.53,46.75 21.34,46.68 20.14,46.6 18.95,46.52 17.75,46.43 16.56,46.34 15.36,46.25 14.17,46.16 12.97,46.06 11.78,45.96 10.59,45.85 9.39,45.75 8.2,45.64 7,45.52 5.81,45.41 4.61,45.29 3.42,45.17 2.22,45.05 1.03,44.92 -0.16,44.79 -1.36,44.66 -2.55,44.53 -3.75,44.39 -4.94,44.25 -6.14,44.11 -7.33,43.97 -8.53,43.82 -9.72,43.68 -10.91,43.53 -12.11,43.37 -13.3,43.22 -14.5,43.07 -15.69,42.91 -16.89,42.75 -18.08,42.59 -19.28,42.43 -20.47,42.26 -21.66,42.09 -22.86,41.93 -24.05,41.76 -25.25,41.59 -26.44,41.41 -27.64,41.24 -28.83,41.07 -30.03,40.89 -31.22,40.71 -32.41,40.53 -33.61,40.35 -34.8,40.17 -36,39.99 -37.19,39.81 -38.39,39.62 -39.58,39.44 -40.78,39.25 -41.97,39.07 -43.16,38.88 -44.36,38.69 -45.55,38.5 -46.75,38.31 -47.94,38.12 -49.14,37.93 -50.33,37.74 -51.53,37.55 -52.72,37.36 -53.91,37.17 -55.11,36.98 -56.3,36.79 -57.5,36.59 -58.69,36.4 -59.89,36.21 -61.08,36.02 -62.28,35.83" fill="rgb(204, 175, 102)" stroke="black" stroke-width="3" stroke-linejoin="round" filter="url(#fuzzy)" />
    </g>
  </svg>