<svg xmlns="http://www.w3.org/2000/svg" width="500" height="500" viewBox="-100 -100 200 200"><defs><clipPath id="c"><path d="m33.55-10.96-.27-.16-.3-.16-.32-.16-.35-.17-.38-.16-.41-.17-.43-.17-.47-.16-.49-.17-.52-.17-.54-.16-.58-.16-.6-.16-.63-.16-.66-.16-.6-.2-.64-.19-.69-.19-.74-.19-.79-.18-.83-.18-.88-.17-.92-.16-.96-.15-1-.15-1.04-.13-1.08-.13-1.11-.12-1.13-.1-1.17-.1-1.2-.09-1.21-.07-1.24-.07-1.26-.05-1.27-.05-1.29-.03-1.29-.02-1.3-.01H1.65l-1.31.01-1.32.03-1.31.03-1.3.05-1.3.05-1.29.07-1.28.07-1.26.09-1.25.1-1.24.1-1.21.12-1.2.12-1.18.13-1.15.14-1.13.15-1.1.15-1.08.16-1.05.17-1.03.18-1 .17-.97.19-.94.19-.92.19-.89.2-.86.2-.84.2-.81.2-.79.21-.77.21-.74.22-.72.22-.69.22-.67.23-.65.23-.62.23-.61.23-.57.24-.56.24-.54.24-.51.24 2.25 13.04.57.6.58.6.6.6.62.6.64.59.66.59.68.59.69.58.71.57.73.57.75.55.76.54.78.53.8.52.81.5.84.5.85.48.88.47.89.46.92.43.93.41.94.39.97.36.98.33.99.3 1.01.26 1.02.23 1.03.2 1.04.15 1.05.12 1.06.07 1.07.04 1.07-.01 1.08-.05 1.08-.09 1.09-.13 1.08-.17 1.09-.22 1.08-.25 1.09-.3 1.08-.33 1.07-.37 1.07-.41 1.06-.43 1.05-.48 1.04-.5 1.03-.52 1.02-.55 1.01-.58.99-.59.98-.61.97-.63.94-.63.93-.64.91-.65.89-.64.87-.65.85-.64.83-.62.81-.62.78-.61.77-.58.74-.57.71-.54.67-.54.65-.52.64-.52.62-.51.6-.5.59-.49.57-.47.54-.47.54-.45.51-.43.49-.42.47-.41.45-.38.43-.37.41-.36"/></clipPath><clipPath id="b"><path d="m-33.36-11.51.27-.17.29-.17.31-.18.34-.18.36-.18.38-.19.41-.19.43-.19.46-.19.48-.19.5-.2.53-.19.55-.19.58-.19.6-.2.55-.22.59-.23.64-.23.68-.22.71-.23.76-.22.8-.21.84-.21.87-.21.91-.19.95-.19.97-.19 1.02-.17 1.04-.16 1.07-.16 1.09-.14 1.12-.13 1.15-.12 1.16-.11 1.19-.09 1.19-.08 1.22-.07 1.23-.06 1.23-.04 1.25-.03 1.25-.01h1.25l1.26.01 1.25.03 1.26.04 1.25.06 1.24.07 1.23.08 1.23.1 1.21.1 1.21.12 1.18.14 1.18.14 1.15.15 1.14.17 1.12.17 1.09.18 1.08.19 1.06.2 1.03.21 1.01.21.99.22.96.22.94.22.91.23.9.24.87.24.85.24.84.25.81.25.79.26.77.26.75.26.73.26.71.27.69.27.66.28.65.27.62.28-.02 14.14-.43.66-.45.65-.47.66-.5.65-.52.65-.54.65-.57.64-.59.64-.61.63-.64.63-.65.61-.69.6-.7.59-.73.58-.75.57-.78.56-.8.55-.84.54-.85.52-.88.51-.91.48-.94.46-.96.43-.98.4-1.01.37-1.03.35-1.06.3-1.07.27-1.1.23-1.11.19-1.14.16-1.15.11-1.16.07-1.18.02-1.19-.01-1.2-.06-1.2-.11-1.22-.14-1.22-.19-1.22-.24-1.22-.27-1.22-.31-1.21-.35-1.21-.39-1.21-.43-1.19-.46-1.18-.5-1.16-.52-1.15-.55-1.13-.58-1.11-.6-1.09-.62-1.07-.64-1.03-.65-1.01-.66-.98-.67-.95-.68-.92-.68-.89-.68-.85-.68-.81-.67-.78-.65-.74-.65-.7-.63-.71-.58-.69-.57-.67-.57-.64-.56-.62-.56-.6-.54-.58-.54-.55-.52-.53-.52-.5-.5-.48-.48-.45-.47-.43-.45-.41-.44-.38-.42"/></clipPath><filter id="a"><feTurbulence baseFrequency=".05" numOctaves="3" result="noise" type="noise"/><feDisplacementMap in="SourceGraphic" in2="noise" scale="2"/></filter></defs><rect width="100%" height="100%" x="-100" y="-100" fill="#B0E0E6"/><path fill="wheat" stroke="#000" stroke-linejoin="round" stroke-width="1.667" d="m85.82-.32.15 1.23-.23.22-.11 3.05-.04-.23-.19 2.78.22 1.62-.58 1.75.55-1.65-.55 3.46-.21-.28-.38 2.64-.29 2.47.28-.61-.16-.04L83.09 22v-1.24l-.79 2.96.12-.2-.3.27-1.21 3.51.2.22-.27.81-.64.54-.02 1.48-.57.75-1.13 2.88-.86 1.43-.38 1.3-.28.24-.62.57-1.07 2.15-.91 1.67-.63 1.4-.15.14.02.15-.07-.24-3.14 4.73.38-.64-.69.84-1.4 2.12-.26.24-.36.09-.62 1.22-1.79 2.34.75-.91-.55.47-1.91 1.89-1.72 1.92.1.31-.97.9-2.51 2.17-.9 1.02.5-.27-.7.36-2.55 2.36-1.49.77-1.18 1-.74.42 1.62-.87-3.19 2-.5.38-1.55 1.3-.39.01-1.91 1.12-.72.42-1.6 1.15.52-.21-1.73 1.16-2.08.82-1.05.39-3.45 1.57 2.75-1.18-2.49 1.6-1.24.13-.23.38-2.71.8.19.12-2.77.78-.63.42-4.44 1.55.32-.07-.17-.12-2.03.43-.26.09-2.1.65-1.28.29.6-.26-2.04.44-1.87.2-2.59.57-.67.21-.51.07-2.68.38-2.48-.03 1.08.2-1.97-.13-3.55.07h.85l-1.7.36-.36-.05-2.2-.13-2.46-.09-.07.11-2.49-.21-.17-.23-1.1-.08-2.21-.03-1.82-.36.27.17-2.07-.17-.26-.31-3.91-.4-1.03-.39.6.03-.1.24-2.82-.63-1.99-.68-2.24-.43-.08-.4-2.3-.64 1.34.57-2.84-1.16.2.18-2.75-.9-1.73-.83-.27-.34-3.17-1.19-.45.13-1.7-.94-.16-.29.13.05-3.06-1.27-.7-.78.52.41-.84-.47-4.1-2.32.42.14-2.92-1.66-.42-.36-1.21-.85.15-.07-2.62-1.9 1.37.71-2.74-1.87-1.21-1.05.74.84-2.18-1.99-1.92-1.23-.07-.65-1.61-1.61.41.56-1.31-1.71.14.48-2.91-3.07-1.29-1.32-.74-1.15.01-.2-1.66-1.43-.1-.57.45.56-.63-.67-1.58-2.54-.18.26-1.29-2.05-1.71-2.66.02.05-1.02-2.13-.46-.74-1.27-1.68 1.14 1.8-2.47-4.73.03-.17-.05.27-.79-2.09-1.23-2.37-.3-1.67-.31-.4-.58-.73.16-.7-1.13-2.07-.45-1.86-.21-.34-.14-1.46-.49-2.12-.39-.76.42.86-1.24-3.65.47.94-.53-1.87-.14-1.56-.63-2.64v-.71l-.08-.82-.01-.77-.17-2.58.17-1.03-.22-1.59-.08-.18-.19-2.08.35-1.62-.3-.03.02-2.46.19-1.06.11-.53.05-.74.08-2.82.22.41-.2-.8.58-5.08.09 1.92.15-.72.45-2.42.52-2.86-.08-.16.39-1.38.3-.76.48-1.93-.06-.01.24-.96.44-2.19.85-2.1.06-.16 1.3-2.4.05-.55.86-2.03-.15.21-.13-.42 1.05-2.28.37.11 1.28-2.77.9-1.7.47-.85 1.02-1.83-.15.6.79-2.05.74-.11 1.17-2.54.98-1.3 1.5-1.86-.9.78.4-.39 1.45-1.82 1.19-1.33.48-.78 1.3-1.13 1.62-2.14-.22.01 1.2-.89.4-.14 1.23-1.18.14-.6 1.99-1.75-.01.02 2.53-1.88-.08-.55.85-.34 2.18-1.8-.68.64 2.46-1.67-.12-.07.38-.32 1.56-1.18 3.24-2.03.14.02.57-.42 1.27-.85 3.67-2.11-1.41.92 1.82-.95 2.74-1.48 1.12-.36.19-.27 1.89-.54.19-.37 1.86-.86 1.39-.5-.14.05 2.45-.96.79.07 2.39-1.11.34.26 2.08-.89 1.52-.24.92-.18.34-.04 1.2-.2 1.44-.44 1.9-.35 1.88-.47.81.01.65-.01 2.56-.47 1.6-.15.91-.26-.19.31 1.63-.25 4.4.03-.22-.06.26-.24 2.02.18 1.43.13 1.21-.28 2.25.4.65.11.68-.15 2.05.11-.43-.02 1.99.43.87-.25 3.27.47-.47-.03 3.13.69.08-.1 2.07.51.15-.02 1.95.7 2.19.71.9.25 1.01.11 2 .53.96.44 1.21.26 1.18.34.62.34 1.35.44 2.34.79.74.52 1.26.81-.7-.36 2.99 1.42 1.81.8-.69-.37 1.76 1.28L44.45-71l.18.01-.38-.38 1.73 1.15 2.77 1.86 1.58 1.12.9.32 1.6 1.61.66.51.28-.23 2.06 1.86.8.62 1.38 1.37-1.07-1.34.27.63 1.82 1.77 2.37 1.89.5.39 1.06 1.32.02.07 1.09 1.02 1.43 1.83.75.5.79 1.34 1.79 2.26-.65-.9 2.46 3.02-.73-1.2.92 2.04.88.55 1.18 1.86-.58-.23 1.89 2.5.25.44.35.88.79 1.61.05-.47 1.57 3.14.11-.01 1.02 2.23.88 1.78-.1-.07-.13.1 1.31 2.85 1.16 2.61-.09.31.13.95.55.71.6 2.46-.21-.71.85 2.48.68 2.97-.1-.55.11.01.14 1.99.6 1.74-.05 1.03.25-.14.1 3.43.25-.06.18 2.51-.04 1.98.11 1.31.04.83.49 3.51.03-1.11-.26.8.15 1.23" filter="url(#a)"/><path fill="#fff" d="m-33.36-11.51.27-.17.29-.17.31-.18.34-.18.36-.18.38-.19.41-.19.43-.19.46-.19.48-.19.5-.2.53-.19.55-.19.58-.19.6-.2.55-.22.59-.23.64-.23.68-.22.71-.23.76-.22.8-.21.84-.21.87-.21.91-.19.95-.19.97-.19 1.02-.17 1.04-.16 1.07-.16 1.09-.14 1.12-.13 1.15-.12 1.16-.11 1.19-.09 1.19-.08 1.22-.07 1.23-.06 1.23-.04 1.25-.03 1.25-.01h1.25l1.26.01 1.25.03 1.26.04 1.25.06 1.24.07 1.23.08 1.23.1 1.21.1 1.21.12 1.18.14 1.18.14 1.15.15 1.14.17 1.12.17 1.09.18 1.08.19 1.06.2 1.03.21 1.01.21.99.22.96.22.94.22.91.23.9.24.87.24.85.24.84.25.81.25.79.26.77.26.75.26.73.26.71.27.69.27.66.28.65.27.62.28-.02 14.14-.43.66-.45.65-.47.66-.5.65-.52.65-.54.65-.57.64-.59.64-.61.63-.64.63-.65.61-.69.6-.7.59-.73.58-.75.57-.78.56-.8.55-.84.54-.85.52-.88.51-.91.48-.94.46-.96.43-.98.4-1.01.37-1.03.35-1.06.3-1.07.27-1.1.23-1.11.19-1.14.16-1.15.11-1.16.07-1.18.02-1.19-.01-1.2-.06-1.2-.11-1.22-.14-1.22-.19-1.22-.24-1.22-.27-1.22-.31-1.21-.35-1.21-.39-1.21-.43-1.19-.46-1.18-.5-1.16-.52-1.15-.55-1.13-.58-1.11-.6-1.09-.62-1.07-.64-1.03-.65-1.01-.66-.98-.67-.95-.68-.92-.68-.89-.68-.85-.68-.81-.67-.78-.65-.74-.65-.7-.63-.71-.58-.69-.57-.67-.57-.64-.56-.62-.56-.6-.54-.58-.54-.55-.52-.53-.52-.5-.5-.48-.48-.45-.47-.43-.45-.41-.44-.38-.42" filter="url(#a)" transform="translate(38.89 -26)"/><path fill="#fff" d="m33.55-10.96-.27-.16-.3-.16-.32-.16-.35-.17-.38-.16-.41-.17-.43-.17-.47-.16-.49-.17-.52-.17-.54-.16-.58-.16-.6-.16-.63-.16-.66-.16-.6-.2-.64-.19-.69-.19-.74-.19-.79-.18-.83-.18-.88-.17-.92-.16-.96-.15-1-.15-1.04-.13-1.08-.13-1.11-.12-1.13-.1-1.17-.1-1.2-.09-1.21-.07-1.24-.07-1.26-.05-1.27-.05-1.29-.03-1.29-.02-1.3-.01H1.65l-1.31.01-1.32.03-1.31.03-1.3.05-1.3.05-1.29.07-1.28.07-1.26.09-1.25.1-1.24.1-1.21.12-1.2.12-1.18.13-1.15.14-1.13.15-1.1.15-1.08.16-1.05.17-1.03.18-1 .17-.97.19-.94.19-.92.19-.89.2-.86.2-.84.2-.81.2-.79.21-.77.21-.74.22-.72.22-.69.22-.67.23-.65.23-.62.23-.61.23-.57.24-.56.24-.54.24-.51.24 2.25 13.04.57.6.58.6.6.6.62.6.64.59.66.59.68.59.69.58.71.57.73.57.75.55.76.54.78.53.8.52.81.5.84.5.85.48.88.47.89.46.92.43.93.41.94.39.97.36.98.33.99.3 1.01.26 1.02.23 1.03.2 1.04.15 1.05.12 1.06.07 1.07.04 1.07-.01 1.08-.05 1.08-.09 1.09-.13 1.08-.17 1.09-.22 1.08-.25 1.09-.3 1.08-.33 1.07-.37 1.07-.41 1.06-.43 1.05-.48 1.04-.5 1.03-.52 1.02-.55 1.01-.58.99-.59.98-.61.97-.63.94-.63.93-.64.91-.65.89-.64.87-.65.85-.64.83-.62.81-.62.78-.61.77-.58.74-.57.71-.54.67-.54.65-.52.64-.52.62-.51.6-.5.59-.49.57-.47.54-.47.54-.45.51-.43.49-.42.47-.41.45-.38.43-.37.41-.36" filter="url(#a)" transform="translate(-53.35 -26.88)"/><g fill="none" stroke="#000" transform="translate(38.89 -26)"><path stroke-linejoin="round" stroke-width="1.667" d="m-34.99-10.14.09-.1.1-.11.12-.12.14-.13.15-.14.16-.14.19-.15.21-.15.22-.16.25-.17.27-.17.29-.17.31-.18.34-.18.36-.18.38-.19.41-.19.43-.19.46-.19.48-.19.5-.2.53-.19.55-.19.58-.19.6-.2.55-.22.59-.23.64-.23.68-.22.71-.23.76-.22.8-.21.84-.21.87-.21.91-.19.95-.19.97-.19 1.02-.17 1.04-.16 1.07-.16 1.09-.14 1.12-.13 1.15-.12 1.16-.11 1.19-.09 1.19-.08 1.22-.07 1.23-.06 1.23-.04 1.25-.03 1.25-.01h1.25l1.26.01 1.25.03 1.26.04 1.25.06 1.24.07 1.23.08 1.23.1 1.21.1 1.21.12 1.18.14 1.18.14 1.15.15 1.14.17 1.12.17 1.09.18 1.08.19 1.06.2 1.03.21 1.01.21.99.22.96.22.94.22.91.23.9.24.87.24.85.24.84.25.81.25.79.26.77.26.75.26.73.26.71.27.69.27.66.28.65.27.62.28.6.28.59.27.56.28.55.28.52.28.51.28.48.29.47.28.45.28.43.28" filter="url(#a)"/><path stroke-linejoin="round" stroke-width="2.222" d="m-34.16-6.29.15.2.18.22.19.25.22.27.24.29.26.32.29.34.31.36.33.38.36.4.38.42.41.44.43.45.45.47.48.48.5.5.53.52.55.52.58.54.6.54.62.56.64.56.67.57.69.57.71.58.7.63.74.65.78.65.81.67.85.68.89.68.92.68.95.68.98.67 1.01.66 1.03.65 1.07.64 1.09.62 1.11.6 1.13.58 1.15.55 1.16.52 1.18.5 1.19.46 1.21.43 1.21.39 1.21.35 1.22.31 1.22.27 1.22.24 1.22.19 1.22.14 1.2.11 1.2.06 1.19.01 1.18-.02 1.16-.07 1.15-.11 1.14-.16 1.11-.19 1.1-.23 1.07-.27 1.06-.3 1.03-.35 1.01-.37.98-.4.96-.43.94-.46.91-.48.88-.51.85-.52.84-.54.8-.55.78-.56.75-.57.73-.58.7-.59.69-.6.65-.61.64-.63.61-.63.59-.64.57-.64.54-.65.52-.65.5-.65.47-.66.45-.65.43-.66.41-.65.38-.64.37-.65.34-.64.32-.63.31-.63.28-.63.26-.62.25-.61.22-.6" filter="url(#a)"/><circle cx="4.69" cy="11.495" r="4.63" clip-path="url(#b)" filter="url(#a)"/><circle cx="5.88" cy="11.68" r="3.946" clip-path="url(#b)" filter="url(#a)"/><circle cx="4.995" cy="10.535" r="4.864" clip-path="url(#b)" filter="url(#a)"/><circle cx="5.005" cy="10.71" r="3.17" clip-path="url(#b)" filter="url(#a)"/><circle cx="3.665" cy="9.12" r="3.838" clip-path="url(#b)" filter="url(#a)"/><circle cx="4.085" cy="8.585" r="4.486" clip-path="url(#b)" filter="url(#a)"/><circle cx="5.57" cy="9.32" r="3.744" clip-path="url(#b)" filter="url(#a)"/><circle cx="2.36" cy="10.4" r="3.238" clip-path="url(#b)" filter="url(#a)"/><circle cx="5.88" cy="8.72" r="3.72" clip-path="url(#b)" filter="url(#a)"/><circle cx="2.42" cy="8.71" r="4.342" clip-path="url(#b)" filter="url(#a)"/></g><g fill="none" stroke="#000" transform="translate(-53.35 -26.88)"><path stroke-linejoin="round" stroke-width="2.222" d="m35.02-9.61-.06-.11-.08-.11-.09-.12-.11-.13-.13-.13-.16-.14-.17-.15-.2-.15-.22-.15-.25-.16-.27-.16-.3-.16-.32-.16-.35-.17-.38-.16-.41-.17-.43-.17-.47-.16-.49-.17-.52-.17-.54-.16-.58-.16-.6-.16-.63-.16-.66-.16-.6-.2-.64-.19-.69-.19-.74-.19-.79-.18-.83-.18-.88-.17-.92-.16-.96-.15-1-.15-1.04-.13-1.08-.13-1.11-.12-1.13-.1-1.17-.1-1.2-.09-1.21-.07-1.24-.07-1.26-.05-1.27-.05-1.29-.03-1.29-.02-1.3-.01H1.65l-1.31.01-1.32.03-1.31.03-1.3.05-1.3.05-1.29.07-1.28.07-1.26.09-1.25.1-1.24.1-1.21.12-1.2.12-1.18.13-1.15.14-1.13.15-1.1.15-1.08.16-1.05.17-1.03.18-1 .17-.97.19-.94.19-.92.19-.89.2-.86.2-.84.2-.81.2-.79.21-.77.21-.74.22-.72.22-.69.22-.67.23-.65.23-.62.23-.61.23-.57.24-.56.24-.54.24-.51.24-.49.24-.47.25-.45.24-.43.25-.41.25-.39.25-.37.25-.36.25-.33.26-.32.25m75.15.27-.17.18-.19.19-.22.21-.24.23-.27.25-.29.26-.32.28-.34.31-.37.31-.38.34-.41.36-.43.37-.45.38-.47.41-.49.42-.51.43-.54.45-.54.47-.57.47-.59.49-.6.5-.62.51-.64.52-.65.52-.67.54-.71.54-.74.57-.77.58-.78.61-.81.62-.83.62-.85.64-.87.65-.89.64-.91.65-.93.64-.94.63-.97.63-.98.61-.99.59-1.01.58-1.02.55-1.03.52-1.04.5-1.05.48-1.06.43-1.07.41-1.07.37-1.08.33-1.09.3-1.08.25-1.09.22-1.08.17-1.09.13-1.08.09-1.08.05-1.07.01-1.07-.04-1.06-.07-1.05-.12-1.04-.15-1.03-.2-1.02-.23-1.01-.26-.99-.3-.98-.33-.97-.36-.94-.39-.93-.41-.92-.43-.89-.46-.88-.47-.85-.48-.84-.5-.81-.5-.8-.52-.78-.53-.76-.54-.75-.55-.73-.57-.71-.57-.69-.58-.68-.59-.66-.59-.64-.59-.62-.6-.6-.6-.58-.6-.57-.6-.54-.59-.53-.6-.51-.59-.49-.58-.47-.59-.45-.57-.44-.57-.42-.57-.4-.56-.38-.55" filter="url(#a)"/><circle cx="-1.252" cy="-7.36" r="3.04" clip-path="url(#c)" filter="url(#a)"/><circle cx="-2.217" cy="-11.065" r="3.46" clip-path="url(#c)" filter="url(#a)"/><circle cx="-1.472" cy="-9.98" r="4.184" clip-path="url(#c)" filter="url(#a)"/><circle cx="-.382" cy="-8.745" r="4.594" clip-path="url(#c)" filter="url(#a)"/><circle cx="-1.437" cy="-9.75" r="3.646" clip-path="url(#c)" filter="url(#a)"/><circle cx="-2.612" cy="-6.97" r="3.974" clip-path="url(#c)" filter="url(#a)"/><circle cx="1.373" cy="-10.14" r="3.36" clip-path="url(#c)" filter="url(#a)"/><circle cx="-1.377" cy="-11.2" r="3.634" clip-path="url(#c)" filter="url(#a)"/><circle cx=".668" cy="-9.725" r="4.658" clip-path="url(#c)" filter="url(#a)"/><circle cx="1.653" cy="-9.975" r="4.082" clip-path="url(#c)" filter="url(#a)"/></g><g fill="none" stroke="#CCF" stroke-linejoin="round" stroke-width="2"><path d="m-51.27-66.7 71.01 9.57 6.63-6.18-15.84-4.98-17.21-1.28-8.72.51.69.54 5.88.05 6.43-.13 4.75.05 3.09.2 2.06.09 1.05-.16-.51-.23-2.43.11-3.65.85-3.19 2.03-2.07 3.15.12.76 40.33-13.1" filter="url(#a)"/><path d="m-66.92-52.13 90.81 9.39 23.06-1.39-5.74-7.63-10.29-7.96-4.45-4.42 1.3-.36 2.56 2.08.24 2.49-2.53 1.68-3.63.67-3.74.06-4.9-.22-7.71-.66-9.56-1.69-7.02-3.28-.38-4.62 6.07-3.81 15.61 2.17L66.25-53.1" filter="url(#a)"/><path d="M79.22-32.26 49.47-57.37l-18.49-4.78-13.93.56-13.04-.17-13.77-1.64-12.78-1.93-8.88-1.41-2.99-1 3.22-1.02 8.44-1.31 11.96-1.57 13.16-1.73 11.34-1.71 6.46-1.46.58-.6-.9 2.15 11.03 10.48 48.34 32.25" filter="url(#a)"/><path d="m-62.14-57.2 47.3-6.53 31 2.29 5.55-.78-7.63-2.92-11.93-2.12-11.94-.25-8.3.69-1.52.15 5.36-.89 9.12-1.21 9.96-.15 11.14 1.59 11.71 1.51-.24-4.16-34.83-13.08" filter="url(#a)"/><path d="M81.37-26.46 24.98-44.98l3.36-6.24L37.03-54l6.09-.55 3.96.64 1.92.55-.89-.52-3.98-1.95-6.12-3.09-6.37-3.48-4.85-3.08-2.72-2.19-1.59-1.34-2.57-.9-5.33-.94-8.3-1.09L-3.17-73l-7.47-.84-2.46-.67 3.65-.22 8.28 2.13 15.81 9.1L74.8-40.54" filter="url(#a)"/><path d="m19.29-81.07-8.6 13.28 11.89 6.82 2.86-1.17 1.57-1.89 5.85.7 8.18 2.45 6.1 1.95 1.45-.02-3.07-1.99-6.15-2.87-8.39-2.3-11.06-.61-13.98 1.34-13.59 2.4-4.8 1.28 6.3-3.09-30.4-10.35" filter="url(#a)"/><path d="m-34.28-76.32 4.31 2.32 7.25 4.67 14.6 4.44 18.91 4.76 18.78 4.26 14.23 2.56 7.49.4 1.36-1.21-2.51-1.59-4.39-.83-5.74.21-7.74.45-9.74-.72-9.22-2.86-3.98-4.73 4.09-5.23 8.72-4.34 6.17-2.78-2.82-2.78" filter="url(#a)"/><path d="m-25.54-79.63 11.38 5.31 6.36 5.22 9.89.83 3.36-.89-3.13-.42-3.01.48 1.69.53 5.95-.44 7.13-1.45 5.84-1.33 3.45.11 1.07 1.85 1.71 2.58 9.06 1.17 1.94-8.77" filter="url(#a)"/><path d="m28.45-78.35-.51 20.47-15.61-1-4.82-6.11 1.84-4.41 5.59-1.14 7.79 1.81 8.07 3.87 5.91 4.66 1.45 3.99-3.93 2.11-7.95-.14-8.44-1.8-4.69-2.32 1.75-1.8 7.83-.85h10.64l8.89.45 3.28.35-4.21-.42-10.75-1.93L19.6-65.8l5.61-.23 44.7 17.45" filter="url(#a)"/><path d="m-60.77-58.98 66.43-2.16 6.02-7.83-3.87-3.24-2.66.59-3.88 1.67-7.09.96-8.81-.2-7.72-1.03-4.66-1.17-.8-.65 3.49.38 8.13 1.59 12.25 2.57L9.7-64.56l9.88 2.3 1.02.49-8.73-1.95-12.73-3.53-5.77-3.63 31.11-8.55" filter="url(#a)"/></g><path fill="none" stroke="#000" stroke-linejoin="round" stroke-width="3" d="M-10.93 28.37Q12.33 43.515.7-4.932" filter="url(#a)"/><path fill="#D77F8C" stroke="#000" stroke-linejoin="round" stroke-width="3" d="m-49.98 79.4.54-1.28.57-1.25.6-1.23.64-1.21.67-1.17.7-1.15.73-1.13.76-1.1.79-1.07.81-1.04.85-1.02.86-1 .9-.96.92-.94.94-.92.97-.89.98-.86 1.01-.83 1.04-.81 1.05-.79 1.07-.75 1.09-.73 1.1-.71 1.13-.68 1.13-.65 1.16-.62 1.17-.6 1.18-.57 1.2-.55 1.21-.52 1.22-.49 1.23-.47 1.24-.44 1.26-.41 1.26-.39 1.26-.36 1.28-.34 1.28-.3 1.28-.29 1.3-.25 1.29-.23 1.3-.2 1.3-.18 1.3-.15 1.3-.12 1.3-.1 1.31-.07 1.3-.04 1.3-.02 1.29.01 1.29.04 1.29.06 1.28.09 1.28.11 1.26.15 1.27.16 1.25.2 1.24.22 1.23.25 1.23.27 1.21.31 1.2.32 1.18.36 1.18.38 1.15.41 1.14.43 1.13.46 1.11.49 1.09.51 1.07.55 1.06.56 1.03.6 1.02.62.99.65.97.67.94.7.93.73.89.75.88.78.84.81.82.84.79.86.77.89.73.91.71.94.67.97.64.99.61 1.03.58 1.05.54 1.07.51 1.1.47 1.13.44 1.16.4 1.18.36 1.21.32 1.23.29 1.27.24 1.29.21 1.31-.97-.27-.97-.27-.98-.26-.97-.26-.97-.25-.97-.24-.97-.24-.97-.24-.97-.23-.97-.22-.97-.22-.97-.22-.98-.21-.97-.2-.97-.2-.97-.19-.97-.19-.97-.18-.97-.17-.97-.18-.97-.16-.97-.16-.97-.16-.98-.15-.97-.14-.97-.14-.97-.13-.97-.13-.97-.13-.97-.11-.97-.12-.97-.1-.97-.11-.98-.09-.97-.09-.97-.09-.97-.08-.97-.07-.97-.07-.97-.07-.97-.06-.97-.05-.97-.05-.98-.04-.97-.04-.97-.04-.97-.02-.97-.02-.97-.02-.97-.01-.97-.01h-1.94l-.98.01-.97.02-.97.02-.97.03-.97.03-.97.03-.97.04-.97.05-.97.05-.97.06-.97.06-.98.07-.97.07-.97.08-.97.09-.97.08-.97.1-.97.1-.97.1-.97.11-.97.12-.98.12-.97.13-.97.13-.97.13-.97.15-.97.14-.97.15-.97.16-.97.16-.97.17-.98.18-.97.17-.97.19-.97.19-.97.19-.97.2-.97.21-.97.21-.97.21-.97.22-.98.23-.97.23-.97.23-.97.25-.97.24" filter="url(#a)"/></svg>