<svg xmlns="http://www.w3.org/2000/svg" width="500" height="500" viewBox="-100 -100 200 200"><defs><clipPath id="c"><path d="m39.47 9.72-.56-.38-.6-.39-.65-.4-.69-.41-.73-.41-.76-.43-.79-.43-.83-.44-.86-.44-.88-.44-.91-.44-.94-.45-.95-.44-.98-.45-1-.44-1.15-.54-1.17-.53-1.19-.54-1.22-.53-1.24-.52-1.25-.51-1.27-.5-1.28-.49-1.29-.48-1.3-.45-1.3-.44-1.31-.42-1.3-.4-1.3-.37-1.3-.35-1.29-.33-1.28-.3-1.28-.27-1.25-.24-1.25-.22-1.23-.19-1.21-.16-1.19-.12-1.17-.1-1.15-.07-1.13-.05-1.1-.01-1.08.02-1.05.05-1.02.07-1 .1-.97.13-.94.15-.91.18-.89.2-.85.22-.83.24-.79.26-.77.28-.74.3-.71.32-.68.32-.66.34-.62.35-.61.36-.58.36-.55.37-.53.38-.51.37-.49.38-.47.37-.45.38-.43.39-.41.38-.39.39-.38.38-.35.39-.34.38-.32.39-.31.37-.29.38-.28.37-.26.37-.24.36 5.92-1.87.44.04.46.03.46.03.48.02.5.02h.5l.52.01h1.64l.57-.01.59-.01h.59l.61-.01h.61l.64-.01h.65l.66-.01h1.37l.71.02.72.01.73.03.74.04.76.04.76.06.78.07.79.09.81.1.81.11.82.13.84.14.84.16.85.17.87.19.87.21.89.22.89.23.9.24.91.26.93.27.93.28.94.3.95.29.95.31.97.31.98.32.98.32.99.32 1 .32 1.01.32 1.02.31 1.02.31 1.03.3 1.04.29 1.04.28 1.04.26 1.05.25 1.06.23 1.05.22 1.06.19 1.05.18 1.05.15 1.05.12.83.18.83.16.82.15.8.14.79.12.77.11.76.1.74.09.71.07.69.05.67.04.64.03.6.01h.58l.54-.02"/></clipPath><clipPath id="b"><path d="m-34.74 13.32.51-.35.54-.37.58-.39.61-.4.65-.41.67-.42.71-.44.74-.44.77-.45.79-.47.82-.47.85-.47.88-.49.89-.48.92-.49.97-.54 1.02-.55 1.04-.55 1.08-.57 1.12-.58 1.14-.57 1.18-.58 1.19-.58 1.23-.57 1.24-.56 1.26-.56 1.28-.54 1.29-.53 1.3-.52 1.31-.49 1.32-.47 1.32-.46 1.32-.42 1.32-.4 1.32-.37 1.3-.35 1.3-.31 1.29-.28 1.28-.25 1.26-.21 1.25-.18 1.22-.15 1.21-.11 1.18-.07 1.17-.04 1.13-.01 1.12.03 1.08.06 1.06.1 1.03.12 1 .16.97.19.95.21.91.25.88.26.85.29.83.32.79.33.76.35.74.37.71.37.68.39.65.4.63.41.61.41.58.41.56.43.54.43.52.43.49.44.48.45.45.45.43.45.42.45.39.45.38.45.35.45.34.45.32.44-9.95-7.01-.55.22-.58.21-.6.19-.61.17-.64.17-.66.15-.67.14-.69.13-.71.13-.73.11-.74.11-.76.1-.78.1-.79.1-.81.09-.83.08-.85.09-.86.08-.89.08-.9.08-.91.09-.93.1-.94.1-.96.11-.97.12-.97.14-.99.15-.99.16-1 .18-1.01.2-1.01.21-1.01.23-1.02.25-1.02.27-1.02.28-1.01.3-1.02.32-1.01.34-1.01.35-1.01.37-.99.38-1 .4-.98.4-.98.42-.97.43-.96.43-.95.44-.94.44-.92.45-.92.44-.9.44-.89.43-.88.43-.87.41-.85.41-.83.38-.83.37-.8.35-.8.33-.77.31-.76.28-.75.25-.73.22-.71.2-.62.26-.61.24-.6.24-.57.22-.57.2-.54.19-.53.17-.5.16-.49.14-.47.13-.45.11-.42.09-.4.08-.38.06-.35.05"/></clipPath><filter id="a"><feTurbulence baseFrequency=".05" numOctaves="3" result="noise" type="noise"/><feDisplacementMap in="SourceGraphic" in2="noise" scale="2"/></filter></defs><rect width="100%" height="100%" x="-100" y="-100" fill="#704214"/><path fill="#E2725B" stroke="#000" stroke-linejoin="round" stroke-width="1.667" d="m87.88-.06-.07 1.89-.29.83.2.05-.17 2-.12 1.72-.39 2.27.03.55-.42 2.92.33-.04-.66 1.88-.07 1.48-.52 1.44.4-.7-.55 1.5-.29 1.62-.27.87-.18 1.36-.18 1.11-1.42 2.85.61-1.74-.77 2.09-.55 1.88-.57 1.96.2-.97-1.26 3.54-.66 1.11-.82 1.15.06.75-1.04 1.45-.48 1.58-.56.31-.4 1.24-1.66 2.49.32-.15.19-.75-2.43 3.94-.46.77-.01-.13-.25.69-2.41 2.66-.29.55-.5.71-.05.07-.92 1.13-.53.58-1.66 1.7-.54.45-2.28 2.27.24-.15-3.33 3.18.45-.44-.59.93-1.48 1.03-.22.23-1.13.74-2.13 1.34-.14.46-1.23 1.16-1.26.69-.41.38-2.16 1.13-1.81 1.27.64-.16-2.08 1.54.27-.67-2.42 1.65-2.14 1.56.32-.54-.34.19-3.91 1.82.87-.48-2.18.84-.42.45-.04.09-4.69 2.03-.21.05.63-.36-4.36 1.65 1.34-.82-3.27 1.43-2.05.74 1.45-.59-1.08.15-1.86.41-2.57.87-.7-.01-2.16.28.13.06-1.3.29-3.95.63.66-.16-4.59.73.68-.3.87-.03-4.12.34.7.13-3.43.06-1.54.06-.05.19-3.18-.25 1.56.32-2.2-.25-2.41.1.2-.32-2.7-.05-1.58-.04-.63-.39-3.72-.25-.54.06 1.42.21-4.16-.65.34-.25-2.46-.21.63-.17-4.68-1.01 2.57.87-2.37-.64-3.06-.97.24.31-1.45-.72-1.92-.29.44.01-2.96-1.14.3.17-1.94-.81-3.65-1.15.68.34-1.24-.58-.11-.14-2.94-1.68-.12.35-1.86-1.09-2.42-1.47 1.48.9-3.78-2.14.39.48-1.6-1.21-2.14-1.62 1.66 1.45-3.08-1.93-2.07-1.55-.65-.3.95.76-2.81-2.54-.87-.82-1.22-.4-1.12-1.51-.29.07-1.07-1.51-1.61-1.37.21-.05-2.79-1.93.41.32-1.29-1.6-.53-.67-1.8-1.52 1.1.78-2.24-2.25-.35-.45-.8-1.36-1.46-1.51-.79-1.69-.11.21-.32-.25-2.3-3.51.63.96-1.71-3.09-.06.33-.23-.99-1.53-2.04-.43-1.16-.5-.61-.67-1.58-1.01-1.78-.24-1.16-.12-.19-1.13-2.89-.13-.71-.21.11-1.17-2.99.16-.54-.92-1.51-.15-1.74.08.16-.3-1.24.11.65-1.2-4.48-.22-1.38.15.62-.05-.87-.23-1.19-.53-1.84-.19-2.43.19.29-.72-3.68-.12-2.88.1 1.49-.12-2.97.01.98.04-2.36-.04-.31.24-1.16-.16-1.9.25-1.87.1-.81-.33 1.17.51-3.16.39-2.41.19-2.41-.12.24.52-2.45-.09-.28.9-2.58-.34.84.69-2.78-.21.38.92-2.95.3-1.49.15-.4.79-2.36.23-.18.47-1.47-.05.03.84-2.2.99-1.99-.13.4.55-1.7.13.67 2.07-4.74-.28.93.74-1.54.49-.27-.4-.45 1.49-1.66 1.17-2.45.72-1.2.84-.87.76-.85.83-.97.58-1.43-.06.05.65-.51 2.26-2.51.57-.7-.09-.23 2.4-2.43-.62.53.86-.95 2.02-2.03-.01.39 3.38-3.54.91-.34-1.28 1.29 2.25-2.49-.33.31 2.03-1.41-.15.03 1.34-1.28 2.03-1.44.5-.2 1.79-1.33 1.28-.9 2.69-1.39.3.12 1.83-1.79-.19.63 2.19-1.42-.23.01 1.52-.71.88-.47 2.23-.83-.44.05 2.02-1.09 2.49-.75 1.13-.34 1.23-.5.59-.41-.5.36 1.79-.98 3.89-.99 1.49-.39.19-.2 1.87-.19-.4-.29 1.19-.41 3.68-.48-.14-.08 3.55-.63.36.09-.53.13 2.18-.2.91-.21 1.68-.36-.51.05 4.72-.64-.22.39 1.74-.23v.07l1.17-.33 4.02.2.07-.08 1.83.12 1.46.2 1.12.04 2.63-.04-.45.08 3.27.25 1.06.25-1.02-.31 3.84.52-.81.17 2.06.31.09.05 3.74.38 1.15.16 1.27.55 1.64.43-1.16-.08 3.23.71.44.08 2.69.63.42.42 2.54.75.73.51.65.14 1.24.3L36.76-75l.56.03 2.26.97-1.43-.38 2.4.74 1.27.73 1.63.64 1.29 1.54 1.18.23 1.03.77.65-.3 2.91 2.4 1.25.76 1.04.6.63.66.83.59.32.12.91.83 1.53.94.97 1.28 1.96 1.59-.08-.18.9.84.38.39 2.03 1.7.45.42 1.31 1.31.85.65 2.53 3.16-.58-.69.43 1.39 1.12.02.26.7 2 3.11-.59-1.73 1.44 2.74-.08.17.99 1.1 2.2 3.08-.43-.38.82.88 1.3 1.87.32.15.91 2.46.17-.03 1.13 2.95.09-.4-.01.43 1.35 3.33.29.22.91 2.06.16.11.09 1.71.4.36 1.06 2.11-.3.01.76 2.13.27 1.37.58 1.64.54 1.56-.3-.34.47 2.56.17.39.49 1.97.18 1.87-.03.87.15.33.4 2.06-.12-.08.13 2.5.09.78-.02.36.43 3.42-.08.79-.07 1.89" filter="url(#a)"/><path fill="#fff" d="m-34.74 13.32.51-.35.54-.37.58-.39.61-.4.65-.41.67-.42.71-.44.74-.44.77-.45.79-.47.82-.47.85-.47.88-.49.89-.48.92-.49.97-.54 1.02-.55 1.04-.55 1.08-.57 1.12-.58 1.14-.57 1.18-.58 1.19-.58 1.23-.57 1.24-.56 1.26-.56 1.28-.54 1.29-.53 1.3-.52 1.31-.49 1.32-.47 1.32-.46 1.32-.42 1.32-.4 1.32-.37 1.3-.35 1.3-.31 1.29-.28 1.28-.25 1.26-.21 1.25-.18 1.22-.15 1.21-.11 1.18-.07 1.17-.04 1.13-.01 1.12.03 1.08.06 1.06.1 1.03.12 1 .16.97.19.95.21.91.25.88.26.85.29.83.32.79.33.76.35.74.37.71.37.68.39.65.4.63.41.61.41.58.41.56.43.54.43.52.43.49.44.48.45.45.45.43.45.42.45.39.45.38.45.35.45.34.45.32.44-9.95-7.01-.55.22-.58.21-.6.19-.61.17-.64.17-.66.15-.67.14-.69.13-.71.13-.73.11-.74.11-.76.1-.78.1-.79.1-.81.09-.83.08-.85.09-.86.08-.89.08-.9.08-.91.09-.93.1-.94.1-.96.11-.97.12-.97.14-.99.15-.99.16-1 .18-1.01.2-1.01.21-1.01.23-1.02.25-1.02.27-1.02.28-1.01.3-1.02.32-1.01.34-1.01.35-1.01.37-.99.38-1 .4-.98.4-.98.42-.97.43-.96.43-.95.44-.94.44-.92.45-.92.44-.9.44-.89.43-.88.43-.87.41-.85.41-.83.38-.83.37-.8.35-.8.33-.77.31-.76.28-.75.25-.73.22-.71.2-.62.26-.61.24-.6.24-.57.22-.57.2-.54.19-.53.17-.5.16-.49.14-.47.13-.45.11-.42.09-.4.08-.38.06-.35.05" filter="url(#a)" transform="translate(51.39 -25.35)"/><path fill="#fff" d="m39.47 9.72-.56-.38-.6-.39-.65-.4-.69-.41-.73-.41-.76-.43-.79-.43-.83-.44-.86-.44-.88-.44-.91-.44-.94-.45-.95-.44-.98-.45-1-.44-1.15-.54-1.17-.53-1.19-.54-1.22-.53-1.24-.52-1.25-.51-1.27-.5-1.28-.49-1.29-.48-1.3-.45-1.3-.44-1.31-.42-1.3-.4-1.3-.37-1.3-.35-1.29-.33-1.28-.3-1.28-.27-1.25-.24-1.25-.22-1.23-.19-1.21-.16-1.19-.12-1.17-.1-1.15-.07-1.13-.05-1.1-.01-1.08.02-1.05.05-1.02.07-1 .1-.97.13-.94.15-.91.18-.89.2-.85.22-.83.24-.79.26-.77.28-.74.3-.71.32-.68.32-.66.34-.62.35-.61.36-.58.36-.55.37-.53.38-.51.37-.49.38-.47.37-.45.38-.43.39-.41.38-.39.39-.38.38-.35.39-.34.38-.32.39-.31.37-.29.38-.28.37-.26.37-.24.36 5.92-1.87.44.04.46.03.46.03.48.02.5.02h.5l.52.01h1.64l.57-.01.59-.01h.59l.61-.01h.61l.64-.01h.65l.66-.01h1.37l.71.02.72.01.73.03.74.04.76.04.76.06.78.07.79.09.81.1.81.11.82.13.84.14.84.16.85.17.87.19.87.21.89.22.89.23.9.24.91.26.93.27.93.28.94.3.95.29.95.31.97.31.98.32.98.32.99.32 1 .32 1.01.32 1.02.31 1.02.31 1.03.3 1.04.29 1.04.28 1.04.26 1.05.25 1.06.23 1.05.22 1.06.19 1.05.18 1.05.15 1.05.12.83.18.83.16.82.15.8.14.79.12.77.11.76.1.74.09.71.07.69.05.67.04.64.03.6.01h.58l.54-.02" filter="url(#a)" transform="translate(-45.27 -22.35)"/><g fill="none" stroke="#000" transform="translate(51.39 -25.35)"><path stroke-linejoin="round" stroke-width="1.667" d="m-37.67 15.9.11-.17.15-.19.19-.21.23-.23.28-.25.31-.27.36-.29.4-.31.43-.32.47-.34.51-.35.54-.37.58-.39.61-.4.65-.41.67-.42.71-.44.74-.44.77-.45.79-.47.82-.47.85-.47.88-.49.89-.48.92-.49.97-.54 1.02-.55 1.04-.55 1.08-.57 1.12-.58 1.14-.57 1.18-.58 1.19-.58 1.23-.57 1.24-.56 1.26-.56 1.28-.54 1.29-.53 1.3-.52 1.31-.49 1.32-.47 1.32-.46 1.32-.42 1.32-.4 1.32-.37 1.3-.35 1.3-.31 1.29-.28 1.28-.25 1.26-.21 1.25-.18 1.22-.15 1.21-.11 1.18-.07 1.17-.04 1.13-.01 1.12.03 1.08.06 1.06.1 1.03.12 1 .16.97.19.95.21.91.25.88.26.85.29.83.32.79.33.76.35.74.37.71.37.68.39.65.4.63.41.61.41.58.41.56.43.54.43.52.43.49.44.48.45.45.45.43.45.42.45.39.45.38.45.35.45.34.45.32.44.31.44.28.43.28.42.25.42.24.42.23.4.22.4.19.39.19.39.17.37" filter="url(#a)"/><path stroke-linejoin="round" stroke-width="2.222" d="m-38.23 16.55.03.07.07.06.11.05.14.04.18.03.21.03h.51l.29-.02.33-.03.35-.05.38-.06.4-.08.42-.09.45-.11.47-.13.49-.14.5-.16.53-.17.54-.19.57-.2.57-.22.6-.24.61-.24.62-.26.71-.2.73-.22.75-.25.76-.28.77-.31.8-.33.8-.35.83-.37.83-.38.85-.41.87-.41.88-.43.89-.43.9-.44.92-.44.92-.45.94-.44.95-.44.96-.43.97-.43.98-.42.98-.4 1-.4.99-.38 1.01-.37 1.01-.35 1.01-.34 1.02-.32 1.01-.3 1.02-.28 1.02-.27 1.02-.25 1.01-.23 1.01-.21 1.01-.2 1-.18.99-.16.99-.15.97-.14.97-.12.96-.11.94-.1.93-.1.91-.09.9-.08.89-.08.86-.08.85-.09.83-.08.81-.09.79-.1.78-.1.76-.1.74-.11.73-.11.71-.13.69-.13.67-.14.66-.15.64-.17.61-.17.6-.19.58-.21.55-.22.54-.23.52-.25.49-.27.48-.28.46-.3.43-.32.42-.33.4-.36.38-.37.36-.38" filter="url(#a)"/><circle cx="-6.746" cy=".336" r="3.034" clip-path="url(#b)" filter="url(#a)"/><circle cx="-6.361" cy="3.331" r="4.41" clip-path="url(#b)" filter="url(#a)"/><circle cx="-5.156" cy="3.756" r="3.048" clip-path="url(#b)" filter="url(#a)"/><circle cx="-7.501" cy="1.221" r="3.078" clip-path="url(#b)" filter="url(#a)"/><circle cx="-3.656" cy=".771" r="4.576" clip-path="url(#b)" filter="url(#a)"/><circle cx="-7.271" cy="3.336" r="3.754" clip-path="url(#b)" filter="url(#a)"/><circle cx="-7.351" cy="4.841" r="4.284" clip-path="url(#b)" filter="url(#a)"/><circle cx="-6.761" cy="3.206" r="3.71" clip-path="url(#b)" filter="url(#a)"/><circle cx="-5.206" cy="2.371" r="4.196" clip-path="url(#b)" filter="url(#a)"/><circle cx="-7.036" cy="1.206" r="3.704" clip-path="url(#b)" filter="url(#a)"/></g><g fill="none" stroke="#000" transform="translate(-45.27 -22.35)"><path stroke-linejoin="round" stroke-width="2.222" d="m42.16 12.54.01-.18-.06-.21-.13-.23-.19-.26-.25-.28-.31-.3-.36-.31-.42-.34-.46-.35-.52-.36-.56-.38-.6-.39-.65-.4-.69-.41-.73-.41-.76-.43-.79-.43-.83-.44-.86-.44-.88-.44-.91-.44-.94-.45-.95-.44-.98-.45-1-.44-1.15-.54-1.17-.53-1.19-.54-1.22-.53-1.24-.52-1.25-.51-1.27-.5-1.28-.49-1.29-.48-1.3-.45-1.3-.44-1.31-.42-1.3-.4-1.3-.37-1.3-.35-1.29-.33-1.28-.3-1.28-.27-1.25-.24-1.25-.22-1.23-.19-1.21-.16-1.19-.12-1.17-.1-1.15-.07-1.13-.05-1.1-.01-1.08.02-1.05.05-1.02.07-1 .1-.97.13-.94.15-.91.18-.89.2-.85.22-.83.24-.79.26-.77.28-.74.3-.71.32-.68.32-.66.34-.62.35-.61.36-.58.36-.55.37-.53.38-.51.37-.49.38-.47.37-.45.38-.43.39-.41.38-.39.39-.38.38-.35.39-.34.38-.32.39-.31.37-.29.38-.28.37-.26.37-.24.36-.23.36-.22.35-.2.34-.19.34-.18.32-.17.33-.15.31-.15.31-.13.3-.12.29" filter="url(#a)"/><path stroke-linejoin="round" stroke-width="2.222" d="m42.5 12.78-.02.14-.08.13-.15.13-.21.11-.27.1-.32.08-.37.08-.42.06-.46.04-.5.03-.54.02h-.58l-.6-.01-.64-.03-.67-.04-.69-.05-.71-.07-.74-.09-.76-.1-.77-.11-.79-.12-.8-.14-.82-.15-.83-.16-.83-.18-1.05-.12-1.05-.15-1.05-.18-1.06-.19-1.05-.22-1.06-.23-1.05-.25-1.04-.26-1.04-.28-1.04-.29-1.03-.3-1.02-.31-1.02-.31-1.01-.32-1-.32-.99-.32-.98-.32-.98-.32-.97-.31-.95-.31-.95-.29-.94-.3-.93-.28L4.74 6l-.91-.26-.9-.24-.89-.23-.89-.22-.87-.21-.87-.19-.85-.17-.84-.16-.84-.14-.82-.13-.81-.11-.81-.1-.79-.09-.78-.07-.76-.06-.76-.04-.74-.04-.73-.03-.72-.01-.71-.02h-1.37l-.66.01h-.65l-.64.01h-.61l-.61.01h-.59l-.59.01-.57.01h-1.64l-.52-.01h-.5l-.5-.02-.48-.02-.46-.03-.46-.03-.44-.04-.42-.05-.41-.06-.4-.07-.39-.07-.37-.09-.35-.09-.34-.11-.33-.11-.32-.13-.3-.13" filter="url(#a)"/><circle cx="11.563" cy="6.026" r="4.92" clip-path="url(#c)" filter="url(#a)"/><circle cx="11.433" cy="6.781" r="4.966" clip-path="url(#c)" filter="url(#a)"/><circle cx="9.188" cy="5.226" r="4.492" clip-path="url(#c)" filter="url(#a)"/><circle cx="12.353" cy="3.146" r="3.504" clip-path="url(#c)" filter="url(#a)"/><circle cx="10.018" cy="4.656" r="4.842" clip-path="url(#c)" filter="url(#a)"/><circle cx="9.958" cy="6.861" r="3.936" clip-path="url(#c)" filter="url(#a)"/><circle cx="12.048" cy="4.476" r="4.638" clip-path="url(#c)" filter="url(#a)"/><circle cx="10.863" cy="4.591" r="3.208" clip-path="url(#c)" filter="url(#a)"/><circle cx="9.818" cy="8.056" r="3.626" clip-path="url(#c)" filter="url(#a)"/><circle cx="8.748" cy="7.656" r="3.18" clip-path="url(#c)" filter="url(#a)"/></g><g fill="none" stroke="#504444" stroke-linejoin="round" stroke-width="2"><path d="m86.75-12.96.06 1.42.03 1.05.02.98-.01 1.02-.07 1.08-.13 1.16-.18 1.23-.17 1.3-.13 1.36L86.06-1 85.9.29l-.26 1.19-.36 1.1-.37 1.09-.32 1.27-.32 1.56-.51 1.87M-28.61-93.92l1.63.6 1.29.22 1.66.41 1.92.6 1.91.65 1.75.64 1.52.6 1.34.46 1.23.24 1.22.01 1.26-.08 1.37.09 1.48.52 1.52 1.04 1.47 1.38 1.31 1.38 1.26 1.12 1.63.82 2.83.42" filter="url(#a)"/><path d="m.99-82.8.61-.14 1.2-.47 1.43-1.12 1.54-1.54 1.54-1.43 1.46-.82 1.36-.11 1.26.31 1.24.24 1.29-.21 1.38-.74 1.51-1.05 1.66-1.06 1.83-.86 1.99-.68 2.07-.68 2.07-.91 2.27-1.51-58.55 17.48 2.82-.72 1.67-.45 1.17-.33 1.01-.28 1.07-.29 1.22-.3 1.36-.3 1.42-.27 1.36-.23 1.25-.19 1.11-.15 1.04-.14 1.04-.14 1.1-.17 1.22-.19 1.43-.19 1.62-.15 1 .08" filter="url(#a)"/><path d="m23.41-89.84-1.83-.35-2.01.04-1.71.31-1.46.42-1.33.45-1.29.44-1.3.41-1.32.38-1.38.31-1.42.22-1.45.15-1.47.15-1.49.25-1.52.43-1.56.54-1.58.49-1.53.34-1.37.32-1.06.62-.75.85-.3.17" filter="url(#a)"/><path d="m27.35-104.98-2.75 2.37-2.66 1.78-2.15 1.41-1.74.94-1.5.51-1.41.36-1.41.54-1.48.92-1.57 1.27-1.64 1.36-1.65 1.12-1.64.63-1.6.19-1.58.12-1.59.59L-.6-89.4l-1.54 2.2-1.38 2.27-1.1 1.54-.79.58-.31-.09" filter="url(#a)"/><path d="m-10.44-82.26 3.04.03 1.56.19 1.16.08 1.19.08 1.33.11 1.44.14 1.47.13 1.45.15 1.42.2 1.37.26 1.34.33 1.29.38 1.22.43 1.16.48 1.09.52 1.04.51 1.04.45 1.08.34 1.2.22 1.37.2 1.5.34 1.46.64 1.11.97-30.82-7.23-1.48-.15-1.41-1.09-1.39-1.8-1.42-2.01-1.55-1.77-1.74-1.38-1.86-1.04-1.87-.8-1.79-.66-1.68-.64-1.65-.69-1.74-.69-1.93-.57-2.17-.36-2.32-.28-2.13-.51-1.47-.78-1.23-1.49 30.83 16.71-1.46-.02h-1.23l-1.05.07-1.05.02-1.2-.1-1.4-.17-1.52-.18-1.52-.08-1.42.05-1.33.15-1.31.16-1.4.08-1.55-.01-1.68-.09-1.69-.1-1.54-.05-1.3-.03-1.18-.05-1.31-.1-1.68-.06-2.36.05" filter="url(#a)"/><path d="m-45.96-102.79 2.37 1.82 1.79 1.13 1.59.93 1.85 1.08 2.3 1.46 2.57 1.73 2.5 1.66 2.19 1.23 1.82.67 1.58.17 1.51-.09 1.57-.09 1.65.04 1.64.1 1.48.05 1.3.25 1.29 1.23 1.58 2.83 1.81 3.27 1.64 1.01" filter="url(#a)"/><path d="m-11.61-81.95-1.45-1.84-1.22-1.18-.94.23-1.1.47-1.42.05-1.67-.44-1.77-.76-1.74-.87-1.67-.83-1.64-.69-1.68-.53-1.81-.45-1.91-.47-1.92-.49-1.77-.38-1.51-.11-1.33.22-1.43.3-1.85-.02-2.35-.6-2.45-1.14-1.55-1.73m36.18 11.26 1.02-2.05 1.39-.03 1.51-.02 1.39-.49 1.27-.97 1.27-1.24 1.37-1.17 1.48-.83 1.56-.46 1.59-.25 1.6-.25 1.6-.41 1.59-.61 1.58-.69 1.54-.68 1.5-.69 1.48-.86 1.48-1.22 1.54-1.52 1.48-1.21 1.65-.04m66.98 82.71.49 1.72.23 1.41.24 1.14.3 1.03.34 1.04.34 1.08.3 1.16.24 1.23.18 1.32.14 1.38.12 1.39.11 1.35.12 1.26.12 1.21.16 1.23.21 1.37.22 1.56.14 1.56-.06 1.07M-14.17-81.67l.28.05 1-.06 1.17-.06 1.26-.06 1.32-.08 1.35-.12 1.31-.1 1.26-.06 1.24.02 1.29.1 1.39.18 1.46.23 1.45.28 1.41.3 1.39.28 1.52.24 1.96.08" filter="url(#a)"/><path d="m-14.17-81.67-1.17-.02-1.77-.15-1.93-.62-1.9-.97-1.75-1.02-1.59-.88-1.55-.72-1.65-.6-1.79-.51-1.88-.44-1.86-.41-1.79-.46-1.74-.63-1.82-.84-2.09-1.1-2.53-1.49-3.03-2.1-3.35-2.72-3.05-2.46-2.09.48 36.42 18.2-.89.21-1.48.37-1.25.43-1.05.46-1.04.48-1.16.52-1.29.58-1.35.62-1.28.64-1.16.61-1.06.55-1.04.52-1.11.51-1.18.57-1.23.64-1.19.7-1.11.7-1.06.7-1.08.73-1.23.65" filter="url(#a)"/><path d="m4.99-94.78-1.63 1.09-1.63 1.25-1.69.94-1.65.86-1.51.9-1.37.84-1.32.69-1.33.51-1.36.47-1.33.63-1.23.88-1.1 1.06-.98 1.04-.89.83-.89.59-1.01.45-1.23.4-.78.3m-3.68.48 2.39-.76 1.57-.95 1.2-1.2.97-1.14.88-1.01.9-.95 1.01-.88 1.15-.81 1.3-.78 1.38-.9 1.37-1.09 1.28-1.19 1.16-1.12 1.23-1 1.77-.88L1.15-96m-25.43 16.32 1.22-.15 1.08.04 1.45.39 1.68.57 1.63.49 1.45.31 1.26.2 1.13.19 1.09.28 1.11.42 1.19.57 1.25.69 1.28.72 1.26.71 1.23.65 1.19.61 1.2.53 1.25.44 1.31.37 1.3.32 1.23.34 1.12.55.95 1.37m-29.05-10.41-2.04.35-2.15.37-1.65.21-1.23.09-1.06.09-1.11.21-1.25.31-1.39.35-1.48.3-1.51.17-1.54-.01-1.54-.14-1.51-.21-1.4-.13-1.34.05-1.84.49 18.66-1.12-1.03.6-.49.46-.57.55-.83.64-1.06.72-1.14.84-1.08.96-.97 1.04-.86 1.03-.83.95-.81.81-.81.67-.8.58-.77.56-.71.76-.69 1.72" filter="url(#a)"/><path d="m-31.64-77.12.99 2.23h-.65l-1.06.18-1.15.64-1.14.88-1.09.94-1 .94-.89.94-.79.96-.65 1.05-.51 1.17-.41 1.3-.38 1.36-.42 1.37-.5 1.38-.54 1.46-.58 1.55-.66 1.5-.85 1.23-1.05.92-1.09.92-.65 1.59" filter="url(#a)"/><path d="m-31.64-77.12.17.16-.35.75-.75.95-.97 1.04-1.05 1.12-1.02 1.09-.98.98-.94.87-.84.86-.71.93-.59 1.06-.48 1.17-.44 1.24-.48 1.27-.59 1.25-.77 1.19-.9 1.15-.88 1.22-.69 1.4-.45 1.58-.34 2.05m-22.96-20.2 1.09.6 1.93.47 1.86.03 1.65-.47 1.47-.88 1.42-1.06 1.5-1.01 1.64-.79 1.77-.51 1.82-.21 1.81.03 1.76.22 1.68.3 1.61.31 1.53.24 1.45.05 1.35-.22 1.23-.61 1.11-1.07 1.05-1.39 1.19-1.21 1.6-.09 2.17 1.82 1.82 1.96" filter="url(#a)"/><path d="m-50.9-50.7.82-1.78.63-.93.74-.69.58-1 .37-1.42.32-1.65.46-1.62.7-1.4.91-1.17 1.01-1.01.99-.95.9-.94.8-.91.76-.85.74-.83.69-.93.63-1.13.59-1.32.64-1.4.82-1.31 1.09-1.09 1.36-.86 1.4-.66 1.22-.52-1.23.5-2.26-1.28-2.27-.63-2.21-.85-1.92-.64-1.65-.27-1.44.03-1.29.25-1.21.33-1.3.24h-1.51l-1.76-.19-1.92-.16-1.96.08-1.96.35-2.02.46-2.22.27-2.5-.09-2.65-.35-2.26-.25-1.17-.32" filter="url(#a)"/><path d="m-34.09-76.23.96-.54.65-.85.49-1.09.72-1.08 1.14-.86 1.46-.61 1.53-.46 1.4-.41 1.22-.41 1.12-.46 1.14-.56 1.29-.74 1.47-.87 1.62-.83 1.67-.54 1.2.05-21.57 11.01 1.57-1.34 1.22-.72.78-.97.54-1.33.65-1.52.95-1.46 1.23-1.28 1.35-1.07 1.29-.9 1.17-.81 1.1-.76 1.17-.77 1.35-.86 1.53-1.07 1.65-1.31 1.61-1.41 1.11-.91" filter="url(#a)"/><path d="m-36.58-75.48-1.4.56-1.06.42-1.13.33-1.15.33-1.1.35-1.06.38-1.06.4-1.1.45-1.19.5-1.29.57-1.4.64-1.46.72-1.48.75-1.48.76-1.46.71-1.38.68-1.25.66-1.06.69-.93.77-1.04.85-1.83 1.32-5.75-11.33 1.9 1.49 2.09.71 2.08.41 1.98.05 1.94-.12 2-.13 2.05-.12 2-.19 1.84-.33 1.61-.45 1.43-.42 1.33-.26 1.31-.05 1.31.12 1.26.13 1.14-.09.98-.39-6 3.75-.58.9-.91 1.54-.71 1.88-.82 1.6-.97 1.2-.97 1.02-.8 1.02-.61 1.09-.44 1.11-.33 1.15-.26 1.18-.26 1.22-.36 1.23-.54 1.17-.74 1.07-.9.93-.89.86-.7.9-.35 1.09.03 1.38.3 1.65.31 1.8.1 1.79.56 1.8" filter="url(#a)"/><path d="m-46.39-69.86-1.03.2-1.75.41-1.8.5-1.65.58-1.51.63-1.43.62-1.36.55-1.3.47-1.2.43-1.08.43-.94.45-.92.45-1.13.38-1.59.4-2 .59-1.32.27 22.01-7.36-1.12.15h-2.13l-2.37-.17-2.19-.02-1.93.19-1.74.32-1.58.37-1.38.45-1.21.51-1.12.54-1.21.48-1.42.35-1.68.27-1.87.28-1.94.37-1.92.47-1.88.47-1.84.42-1.81.38-1.8.42-1.88.5-2.01.68-1.98 1.05-2.06.66" filter="url(#a)"/><path d="m-46.69-69.98-2.41.84h-2.45l-2.35-.2-2.06.01-1.73.28-1.48.46-1.32.5-1.22.49-1.2.46-1.3.37-1.55.25-1.86.13-2.11.07-2.14.18-1.97.39-1.69.61-1.49.72-1.51.67-1.71.54-1.95.45-2.08.52-2.11.58-2.17.19-2.68-1.26M85.92-17.54l-1.62.81.45 1.08.54 1.22.25 1.29.04 1.26-.07 1.19-.1 1.14-.13 1.11-.14 1.12-.15 1.17-.15 1.22-.17 1.28-.2 1.3-.24 1.31-.26 1.27-.25 1.23-.2 1.19-.2 1.2-.27 1.26-.43 1.36-.6 1.41-.65 1.41-.56 1.27-.52.64" filter="url(#a)"/><path d="m-78.68-54.11.8.04.91-.9 1.13-1.06 1.39-.81 1.6-.51 1.66-.37 1.56-.44 1.41-.64 1.25-.87 1.13-1.06 1.02-1.12.95-1.06.95-.84 1.03-.58 1.15-.35 1.24-.25 1.27-.28 1.32-.36 1.55-.31 1.74-.22 1.17-.26-3.87 2.92-.65.07-1.04.31-.87.53-.73.65-.8.71-1.06.72-1.35.69-1.6.61-1.7.51-1.64.45-1.46.49-1.27.59-1.17.72-1.27.76-1.57.67-1.93.47-1.97.09-1.03-.22 46.58-27.11-.74.65-1.11.68-1.3.85-1.32.93-1.28.89-1.19.8-1.11.72-1.04.7-.96.71-.89.75-.86.78-.9.8-.99.81-1.1.82-1.22.84-1.32.88-1.39.89-1.4.86-1.4.82-1.31.8-1.05.91-.59 1.26-.88 1.52.33-.31.14-.37.36-1.07.46-1.32.54-1.54.49-1.88.39-2.22.36-2.38.53-2.19.82-1.72 1.12-1.17 1.26-.79 1.2-.73.99-.94.74-1.27.59-1.54.59-1.64.72-1.55.94-1.39 1.17-1.26 1.37-1.28 1.41-1.56 1.17-2.02.52-2.94" filter="url(#a)"/><path d="m-60.12-59.88 1.41-1.6.81-1.01.54-1.12.45-1.31.59-1.34.84-1.25 1.03-1.2 1.12-1.24 1.13-1.33 1.11-1.35 1.07-1.26 1.01-1.14.86-1.08.68-1.14.51-1.19.21-.7" filter="url(#a)"/><path d="m-58.84-61.17-.37.09.32-.87.48-1.02.54-1.07.61-1.13.73-1.15.93-1.09 1.16-.99 1.32-.92 1.39-.95 1.34-1.07 1.2-1.18.98-1.18.74-.97.06-.56-26.48 40.13.18-1.21.07-.98.22-1.12.37-1.33.45-1.43.49-1.37.54-1.24.58-1.09.59-.99.58-.94.58-.95.6-.97.67-.99.76-.97.83-.92.86-.88.84-.87.79-.93.78-1.06.89-1.22 1.1-1.42 1.24-1.73 1.04-1.46-40.64 3.24 3.52.24 3.95.71 3.14.34 2.02-.29 1.22-.72 1.06-.82 1.4-.64 1.92-.36 2.3-.12 2.4.01 2.33.06 2.21.07 2.04-.03 1.69-.45 1.05-1.29.61-2.09 1.66-1.45 6.12 3.59M79.05 2.44l.86-.31.46-.84.57-1.16.65-1.33.53-1.35.34-1.3.25-1.23.31-1.18.46-1.14.6-1.13.65-1.13.54-1.17.35-1.21.14-1.27-.01-1.3-.07-1.27-.04-1.15-.03-.99-.23-1.08" filter="url(#a)"/><path d="m-63.13-57.29-5.31-3.8-4.21-1.92-1.51.37v1.63l-.05 1.72-1.01 1.09-1.99.39-2.39.04-2.13.15-1.56.5-1.11.81-1.05.94-1.3.9-1.65.82-1.81.85-1.69.99-1.36 1.18-.98 1.28-.85 1.17-1.16.9-1.92.57-2.72.54-2.7.96-.99.8 41.46-13.27 1.59.01 1.31-1.07 1.05-.77.87-.57.76-.56.76-.64.81-.71.91-.74 1.02-.77 1.13-.81 1.21-.84 1.29-.85 1.33-.84 1.34-.8 1.31-.72 1.24-.62 1.15-.5 1.07-.39 1.03-.28 1.02-.2 1.06-.15 1.08-.18" filter="url(#a)"/><path d="m-87.37-35.49.5-.05.56-.8.8-1.09.95-1.12 1.02-.96 1.07-.8 1.11-.74 1.17-.78 1.22-.86 1.24-.95 1.22-.99 1.16-.97 1.05-.92.93-.87.82-.85.71-.86.69-.92.76-.98.92-.97 1.11-.88 1.26-.86 1.72-1.52-1.73 1.48-1.14.92-1.03.92-1.04.9-1.07.76-1.11.6-1.19.5-1.22.51-1.21.62-1.15.83-1.11 1.03-1.2 1.17-1.35 1.17-1.41.94-1.13.58-.79.21 18.88-13.14-1.46 1.71-.75 1.24-.71 1.16-.67 1.12-.42 1.16-.08 1.27.2 1.38.25 1.44.11 1.41-.08 1.39-.16 1.4-.06 1.48.15 1.54.32 1.51.4 1.37.34 1.2.13 1.11-.24 1.13-.46 1.28.56 1.05.23-23.92 1.67-1.27.9-.76.91-.82 1.07-.96 1.18-.99 1.23-.86 1.19-.7 1.08-.55.96-.51.89-.53.87-.58.95-.6 1.07-.59 1.22-.58 1.34-.57 1.41-.62 1.48-.71 1.67-.82 2.08-1.05" filter="url(#a)"/><path d="m-68.26-51.87-1.89 1.5-1.82.31-1.89-.06-1.56.2-1.08.66-.76 1.03-.8 1.18-1.17 1.09-1.66.86-2.07.58-2.26.38-2.19.35-1.95.45-1.68.64-1.48.84-1.33.95-1.21 1.03-1.1 1.05-1.1 1.08-1.33 1.07-1.65 1-1.77.83-2.13.76 21.65-.3 1.59-2.76 1.01-1.1.74-.7.58-.74.55-.94.65-1.12.77-1.24.87-1.24.89-1.14.86-1.01.84-.88.79-.75.72-.6.58-.41.53-.34" filter="url(#a)"/><path d="m-70.97-83.54-.48 1.92.28 2.19.62 2.48.88 2.65.93 2.63.75 2.5.39 2.32-.08 2.09-.54 1.78-.85 1.45-.87 1.25-.57 1.28-.12 1.52.14 1.67-.01 1.61-.27 1.68.25 3.16M84.3 6.2l.16-1.53.24-1.21.27-1.04.27-1.08.25-1.22.2-1.32.13-1.36.08-1.33.04-1.28.02-1.21.03-1.16.03-1.12.02-1.11-.01-1.14-.04-1.19-.07-1.25-.08-1.28-.1-1.25-.11-1.17-.15-1.11-.25-1.15-.43-1.43 7.45 27.52-.04-1.67-.33-1.34-.31-1.14-.23-1.18-.17-1.3-.13-1.4-.12-1.44-.18-1.4-.27-1.33-.35-1.24-.38-1.17-.34-1.14-.27-1.13-.25-1.15-.28-1.2-.36-1.24-.39-1.26-.37-1.24-.39-1.15-.56-1.03-.86-1.03-.87-1.34" filter="url(#a)"/><path d="m-78.24-83.43.22 1.08.91 2.53 1.48 3.17 1.28 3.31.77 3.16.26 2.75-.11 2.26-.27 1.85-.12 1.74.22 1.9.49 2.11.38 2.09-.19 1.71-.77 1.18-.5 1.09 1.04 1.8 1.46 2.23-.83.97.05-1.38.59-.82.55-.9.39-1.2.27-1.46.2-1.54.28-1.48.44-1.3.71-1.12.99-.95 1.2-.86 1.29-.85 1.24-.89 1.05-.96.82-1.04.6-1.1.47-1.15.47-1.14.6-1.11.79-1.06.96-1.08 1.05-1.18 1.04-1.29 1.12-1.61-17.93 28.32.83-.8.99-.64 1.03-.55.89-.66.77-.89.71-1.03.75-1.02.87-.9 1.01-.77 1.15-.64 1.25-.61 1.3-.65 1.29-.71 1.22-.77 1.12-.74 1.02-.66.94-.55.91-.48.89-.46.91-.51.98-.57 1.25-.64 1.88-.71-24.8 16.83-1.5 1.07-1.07 1.46-.97 1.18-1.03.81-1.09.62-1.21.6-1.4.65-1.56.69-1.55.74-1.33.79-1.03.9-.89.99-1.03 1-1.3.91-1.43.73-1.52.5-2.41-.13 18.94-8.2-.48-2.71.44-2.01.5-1.63.32-1.49-.09-1.59-.53-1.8-.75-1.92-.62-1.89-.3-1.78.02-1.69.19-1.66.23-1.69.14-1.75-.01-1.91-.18-2.15-.24-2.4-.03-2.51.37-2.47.39-2.5-.89-2.77-3.84-2.74" filter="url(#a)"/><path d="m-80.25-34.07-4.72-2.94 1.59-1.07 1.72-.74.87-.88.14-1.23-.47-1.7-.99-2.2-1.3-2.53-1.33-2.61-1.08-2.45-.66-2.11-.16-1.73.29-1.41.6-1.22.68-1.25.51-1.5.17-1.84-.16-2.15-.4-2.29-.55-2.35-.7-2.48-.49-2.69 1.32-2.58m5.12 43.95-.34 1.13-.29 1-.36 1.14-.39 1.16-.4 1.08-.42 1.03-.41 1.03-.41 1.1-.39 1.18-.36 1.26-.33 1.3-.29 1.28-.25 1.22-.21 1.13-.19 1.1-.19 1.13-.22 1.28-.32 1.75" filter="url(#a)"/><path d="m-80.8-32.37.39-1.27.14-1.49-.21-1.7-.43-1.64-.44-1.51-.32-1.45-.16-1.51.01-1.58.2-1.59.45-1.49.68-1.3.83-1.13.85-1.02.77-1.01.62-1.1.51-1.21.46-1.33.46-1.41.44-1.46.33-1.53.1-1.63-.1-1.75.05-1.93.56-2.77m-6.19 35.81-2.01-.27-2.36.46-1.15.99-.24 1.19.04 1.25-.13 1.23-.5 1.18-.85 1.17-1.12 1.15-1.29 1.13-1.46 1.1-1.65 1.04-1.8.99-1.87.98-1.81 1.05-1.63 1.17-1.41 1.35-1.25 1.57-1.21 1.78-1.33 1.87-1.51 1.62-1.41.95-.43.55m28.51-25.9.26-.13.56-.73.67-1.06.64-1.14.6-1.08.56-.98.56-.96.62-1.01.7-1.07.79-1.13.84-1.12.85-1.08.83-1 .8-.91.8-.84.8-.8.83-.81.86-.86.88-.92.88-.94.87-.89.83-.75.69-.57.68-.5" filter="url(#a)"/><path d="m-82.5-28.58-.37-2.3-.52-1.76-.39-1.41-.11-1.31.13-1.33.21-1.34.06-1.39-.3-1.52-.65-1.71-.76-1.84-.48-1.83.1-1.66.69-1.41 1.02-1.24.94-1.2.56-1.32.03-1.53-.46-1.79-.85-2.14-1.06-2.62-.88-3.02.21-2.06 2.93 37.7-.41 1.13-.41 1.09-.4 1.19-.4 1.28-.38 1.32-.35 1.32-.32 1.26-.3 1.21-.27 1.17-.26 1.17-.25 1.2-.23 1.28-.22 1.36-.2 1.44-.2 1.47-.18 1.45-.15 1.37-.12 1.26-.09 1.2-.07 1.2-.06 1.24-.05 1.21-.05 1.22-.03 1.66M84.07-24.25l-.63-1.57-.36-1.14-.28-1.07-.35-1.09-.46-1.15-.52-1.19-.51-1.21-.47-1.2-.43-1.18-.43-1.18-.45-1.18-.5-1.18-.55-1.16-.6-1.14-.66-1.1-.7-1.1-.77-1.14-.81-1.21-.78-1.29-.68-1.37-.93-1.93" filter="url(#a)"/><path d="m84.07-24.25-.19.71-.09 1.35-.1 1.46.03 1.37.18 1.24.28 1.17.31 1.16.3 1.19.26 1.22.2 1.2.15 1.17.09 1.13.01 1.11-.09 1.1-.19 1.14-.26 1.19-.28 1.26-.27 1.36-.27 1.43-.35 1.45-.49 1.33-.5 1.03 1.27-26.77-.02.66.13 1.3-.05 1.45-.28 1.43-.41 1.36-.48 1.31-.46 1.28-.41 1.29-.33 1.27-.2 1.22-.07 1.16.02 1.1.03 1.05-.03 1.05-.21 1.08-.48 1.13-.81 1.21-1.12 1.3-1.23 1.37L76.65.13l-.69 1.23-1.31.91 18.94-8.06-.58-1.74-.31-1.17-.48-1.04-.65-1.03-.75-1.09-.8-1.16-.82-1.2-.8-1.19-.73-1.16-.62-1.13-.48-1.16-.33-1.23-.24-1.34-.28-1.35-.51-1.24-.87-1.07-1.33-1.27" filter="url(#a)"/><path d="m83.01-26.36.13 1.62-.86 1.54-.39 1.49.3 1.33.59 1.2.49 1.15.26 1.16.09 1.19.01 1.23-.02 1.24-.09 1.22-.23 1.19-.45 1.16-.67 1.14-.87 1.13-.97 1.16-.96 1.17-.88 1.23-.8 1.27-.84 1.34L75.8.12l-1.38 1.2-1.6.9m9.54-30.76 1.3.17 2.06.35 2.29.48 2.34.58 2.04.79 1.54 1.04 1.19 1.21 1.26 1.24 1.66 1.14 2.17 1.01 2.47.97 2.41 1.06 2.12 1.22 1.89 1.35 2.06 1.32 2.68 1.13 3.13 1.06 2.19 1.74m-36.8-17.86.3.5.44.87.52 1 .61 1.06.73 1.11.79 1.16.79 1.2.74 1.2.74 1.18.79 1.16.91 1.15 1.02 1.16 1.06 1.17 1.04 1.19.96 1.18.96 1.15 1.06 1.1 1.23 1.08 1.29 1.12 1.04 1.17.63 1.08.97.63" filter="url(#a)"/><path d="m79.82-34.58.34-.85 1.32-2.11 1.4-2.24.43-1.75-.66-1.17-1.27-.86-1.33-.84-1.11-1-.79-1.21-.5-1.39-.3-1.47-.2-1.49-.21-1.42-.32-1.29-.44-1.18-.48-1.14-.37-1.25-.14-1.53.12-1.93.32-2.34.4-2.61.37-2.65.1-2.51-.37-2.9 3.69 39.13.5 1.04.82 1.4.73 1.3.52 1.17.4 1.08.38 1.02.46 1.01.56 1.01.63 1.06.68 1.12.68 1.22.64 1.29.55 1.25.35 1-.01.29-9.28-18.78.13.81.11 1.21.11 1.18.26 1.19.43 1.21.55 1.18.58 1.12.51 1.07.41 1.05.3 1.09.23 1.12.21 1.18.23 1.23.27 1.26.28 1.27.26 1.23.2 1.17.09 1.14-.03 1.16-.09 1.25.04 1.5" filter="url(#a)"/><path d="m66.9-71.36 1.05 1.6.4 1.18.16 1.39.11 1.64.18 1.77.32 1.76.48 1.66.63 1.51.73 1.32.77 1.15.77 1.02.73.96.66.97.54 1.06.38 1.19.21 1.35.08 1.48.08 1.56.21 1.53.42 1.4.57 1.2.6 1.1.41 1.14.13.86.35 1.88.25 1.39.29 1.2.35 1.13.39 1.15.4 1.2.43 1.21.43 1.16.41 1.11.36 1.08.3 1.07.25 1.1.26 1.15.27 1.21.29 1.27.24 1.3.12 1.28-.05 1.19-.13 1.13.2 1.59-7.03-26.82-.61-.63-.69-.88-.89-1.09-.91-1.1-.82-1.02-.75-.94-.72-.88-.73-.85-.75-.8-.75-.74-.75-.69-.78-.7-.88-.83-1.08-1.01-1.21-1.14-1.16-1.13L97.62-31l-1.99-.23-1.37-.67-1.49-.75-1.4-.93-1.07-1.17-.76-1.28-.69-1.23-.93-1.02-1.44-.76-1.97-.52-2.32-.39-2.34-.37-2.05-.51-1.58-.75-1.14-.88.43.38-.07.17.33.85.38 1.14.42 1.23.49 1.2.54 1.15.55 1.11.5 1.12.45 1.15.41 1.19.35 1.21.29 1.21.23 1.18.17 1.16.17 1.13.2 1.12.25 1.15.27 1.19.26 1.28.18 1.34.09 1.32-.04 1.07-.21.34" filter="url(#a)"/><path d="m75.51-42.08.03.09.59.67.78.91.8 1.02.74 1.07.68 1.08.65 1.06.61 1.04.6 1.06.62 1.12.68 1.19.73 1.17.7 1.07.58.97.36 1.18-11.35-17.78-.38-1.09-.33-1.02-.5-.95-.47-1.03-.34-1.16-.2-1.25-.15-1.27-.18-1.27-.32-1.3-.48-1.33-.66-1.35-.77-1.35-.82-1.31-.82-1.24-.77-1.12-.67-1.01-.55-.92-.6-.89L63-67.2" filter="url(#a)"/><path d="m72.32-46.26-.14-.81-.26-1.13.04-1.4.11-1.5-.07-1.35-.31-1.17-.45-1.12-.46-1.25-.4-1.48-.3-1.71-.23-1.83-.23-1.84-.27-1.74-.33-1.61-.36-1.51-.41-1.46-.54-1.44-.72-1.43-.87-1.45-.77-1.56-.3-1.72.19-1.4 7.25-2.09 2.09.74.01 2.39-1.2 3.1L72.08-71l-.79 2.6-.11 2.1.52 1.66.96 1.36 1.1 1.24.83 1.36.19 1.66-.59 2.02-1.08 2.2-.98 2.1-.52 1.87-.25 1.53-.4.13m-1.67-2.08-.72-.41-.46-.76-.38-1.2-.42-1.49-.57-1.51-.75-1.33-.88-1.15-.87-1.03-.79-1-.72-.99-.7-1.01-.77-1.01-.88-1.03-.94-1.02-.89-1.01-.69-1.01-.45-.99-.32-1-.47-.86 12.67 19.81-.7-.43-.45-.77-.67-.94-.92-1.06-1.04-1.1-1.04-1.07-.98-1.02-.92-.95-.84-.91-.81-.87-.78-.9-.8-.95-.83-1.01-.86-1.01-.86-.93-.82-.79-.74-.66-.66-.63-.6-.74-.68-.86 14.96 39.28.73-.9.76-1.59.6-1.61.35-1.5.17-1.41.06-1.35v-1.35l-.06-1.37-.14-1.38-.26-1.34-.4-1.23-.52-1.09-.59-.99-.55-1-.35-1.16-.1-1.32v-1.28l-.21-1.22" filter="url(#a)"/><path d="m59.87-60.44-1.41.55-1.65-.27-1.17-.89-1.01-.85-.94-.67-.85-.62-.81-.65-.87-.69-1.04-.63-1.28-.49-1.48-.32-1.62-.14h-1.68l-1.69.07-1.63.06-1.55-.03-1.41-.12-1.28-.16-1.19-.08-1.16.07-1.21.17-1.3.15-1.44.07-1.55.4 31.22 5.07-.53-.38-1.08-.87-1.21-.88-1.15-.72-1.05-.58-.96-.52-.94-.5-1-.53-1.12-.57-1.23-.63-1.29-.68-1.3-.69-1.29-.68-1.28-.63-1.3-.59-1.33-.51-1.35-.42-1.3-.32-1.16-.23-1-.15-1-.03-1.01.18 51.64 23.1-3.6-1.46-1.71-1.22-1.21-.92-1.39-.56-1.7-.3-1.84-.17-1.8-.17-1.58-.26-1.33-.43-1.14-.64-1.04-.85-1.05-.98-1.13-1-1.24-.9-1.33-.73-1.39-.56-1.31-.45-.97-.57.08.18-1.38-1.59-1.07-1.34-.94-1.05-.76-.91-.65-.85-.67-.81-.79-.82-.93-.89-1.03-1.02-1.04-1.18-.99-1.29-.94-1.33-.93-1.34-.96-1.3-1.04-1.26-1.09-1.2-1.04-1.13-.83-1.05-.57-1.02-1.06-1.2 16.75 20.99 1.46.82 1.28.13 1.28.14 1.25.38 1.17.69 1.09.91 1.04 1.05 1.04 1.07 1.03.99 1.04.88 1.02.76 1 .69 1.01.68 1.03.69 1.08.71 1.15.69 1.3.68 1.46.75 1.57.94 1.45 1.11.57.53" filter="url(#a)"/><path d="m57.02-63.13-1.1-.93-.76-.75-.58-.74-.57-.81-.69-.91-.87-.98-1.05-1.02-1.16-1.01-1.22-.93-1.24-.85-1.26-.77-1.28-.72-1.28-.71-1.24-.73-1.11-.78-.94-.81-.8-.8-.81-.84-.96-1.02-1.34-1.5" filter="url(#a)"/><path d="m55.49-64.07.33 2.01-.36 2.58.16 1.71.75.81 1 .45.91.57.71.89.54 1.18.42 1.38.36 1.49.28 1.51.14 1.45-.1 1.37-.45 1.33-.55 1.25.25.57-5.3-21.38-.37-.36-.38-.82-.31-1.32-.28-1.83-.21-2.33-.12-2.69-.05-2.84.02-2.92.1-3.1.17-3.4.1-3.57-.16-3.33-.49-2.73-.55-1.71.64-.67 1.57 33.5-1.14 2.3-.32 2.08.83 1.07 1.18.69 1.01.72.77.82.61.92.53 1 .48 1.12.46 1.24.46 1.32.47 1.34.47 1.28.46 1.17.4 1.05.28 1 .1 1.11-.04 1.3-.2 1.31-1.25.73" filter="url(#a)"/><path d="m91.3-58.55-2.6-.87-1.91-.33L85-60.2l-1.67-.48-1.66-.37-1.79-.26-1.96-.21-2.09-.24-2.1-.33-2-.41-1.88-.44-1.77-.37-1.72-.25-1.7-.15-1.64-.14-1.56-.25-1.49-.41-1.45-.49-1.44-.41-1.4-.17-1.25.06-1-.09-11.34-32.74.68 1.23 1.46.56 1.28 1.14.7 1.99.06 2.86-.25 3.28-.04 2.97.51 2.15 1.1 1.26 1.43.7 1.45.59 1.27.8 1.1 1.13.82 1.74.17 2.9-.73 4.06-.3 2.72m-5.2-3.76 1.73 2.3.75 1.93.26 1.72-.02 1.62-.1 1.55-.03 1.44.12 1.37.29 1.33.43 1.25.53 1.14.57.96.55.82.46.82.24 1.12-.24 1.73-.52 1.71M47.6-70.03l-.65-.2-.68-.87-.89-.99-1.12-.9-1.21-.81-1.15-.8-1.03-.78-.94-.74-.94-.69-.98-.68-1.02-.73-1.02-.8-1.02-.85-1.03-.83-1.11-.83-1.23-.91-1.38-1.03-1.96-.91" filter="url(#a)"/><path d="m46.95-69.73 1.38.28 1.84.64 1.77.42 1.88-.12 2.15-.76 2.37-1.1 2.38-1.03 2.2-.65 1.94-.16 1.71.23 1.52.49 1.38.62 1.26.72 1.22.81 1.28.83 1.54.76 1.97.54 2.48.23 2.87-.07 2.97-.24 2.66-.26 2.01-.05 1.22.34.41.85-44.41-3.32-.89-.9-1.09-.84-1.24-.84-1.23-.83-1.15-.79-1.05-.71-1.01-.59-1.04-.49-1.09-.45-1.13-.47-1.15-.52-1.14-.6-1.16-.64-1.22-.62-1.3-.56-1.4-.47-1.42-.41-1.37-.37-1.2-.4-.99-.48-.92-.61-1.12-.75" filter="url(#a)"/><path d="m68.62-50.76-.73-.4-.58-.67-.73-.92-.9-1.07-.99-1.11-1.01-1.08-.98-1-.93-.92-.89-.85-.88-.82-.88-.81-.91-.83-.92-.84-.92-.85-.88-.81-.85-.75-.82-.69-.86-.66-.95-.69-1.11-.77-1.29-.89-1.39-.93-1.28-.78-1.02-.6-2.47-1.77-1.53-.49-1.3-.57-1.08-.45-.97-.36-1.01-.32-1.1-.33-1.18-.3-1.21-.28-1.24-.23-1.25-.21-1.31-.23-1.36-.3-1.4-.35-1.44-.36-1.42-.3-1.2-.21-.11-.16m5.63-10.37.57 1.73 1.25 1.11 1.34.93 1.26.88 1.11.91.99.98.95 1.05.91 1.1.84 1.14.77 1.1.76.88.93.51 1.24.22 1.31.56.25 2.72" filter="url(#a)"/><path d="m41.82-72.91.29 2.7 1.28.75 1.32.44 1.33.49 1.34.59 1.29.74 1.15.85.96.91.81.91.73.86.74.81.75.82.75.89.69 1.01.59 1.12.52 1.17.49 1.12.54 1.03.65.95.78.92.84.99.79 1.19.77 1.67 1.19 2.51-20.59-25.44-1.44-.36-1.49.41-1.39.63-1.24.22-1.14-.19-1.17-.24-1.32.1-1.49.52-1.6.74-1.59.63-1.49.25-1.36-.16-1.25-.36-1.19-.26-1.13.04-1.07.36-1.09.55-1.19.27 22.37-3.88-1.19-.66-.7-.45-.81-.62-.97-.7-1.08-.67-1.13-.61-1.15-.61-1.18-.64-1.21-.68-1.27-.7-1.31-.67-1.31-.6-1.27-.5-1.22-.41-1.2-.34-1.25-.33-1.37-.39-1.53-.48-1.63-.55-1.55-.53-1.62-.38 25.95 11.52 1.23.82 1.21.96 1.1.98 1.08.88 1.11.84 1.11.92 1.02 1.09.82 1.28.62 1.36.45 1.34.4 1.2.46 1.04.58.91.68.91.73.99.72 1.06.62 1.03.39.98.03 1.04-.18 1.02-14.18-20.65 1 1.15 1.06 1.16 1.09.96.97.95.82 1.14.71 1.39.7 1.52.7 1.5.64 1.36.52 1.2.35 1.08.21 1.05.09 1.14.04 1.39.15 1.74" filter="url(#a)"/><path d="m40.55-73.64 1.4.54 1.65.27 1.86-.15 2.08-.53 2.32-.79 2.48-.82 2.41-.57 2.09-.14 1.68.27 1.33.5 1.22.48 1.32.29 1.48.18 1.64.21 1.79.32 2.05.23 2.39-.24 2.57-.84 2.17-.57" filter="url(#a)"/><path d="m34.72-76.26 1.65.61 1.53-.22 1.45-.52 1.34-.32 1.35-.02 1.51.1 1.74-.03 1.95-.27 2.07-.44 2.07-.42 2.01-.17 2.06.06 2.35-.03 2.84-.7 3.07-1.43 1.9-.51-32.13 4.01 1.49.16 1.41.39 1.13.54.96.55.93.53 1.04.52 1.16.56 1.26.58 1.31.59 1.33.54 1.36.5 1.44.47 1.54.53 1.59.64 1.48.72 1.21.68.89.5" filter="url(#a)"/><path d="m33.48-76.56 1.71-.21 2.27-1.27 1.87-.88 1.26.04.98.64 1.04.75 1.26.62 1.49.39 1.67.22 1.77.11 1.82.09 1.84.15 1.8.27 1.72.38 1.63.39 1.61.25 1.67-.04 1.86-.36 2.05-.56 2.19-.44 2.26-.05 2.38.45 1.97 1.63M32.83-76.7l-1.19-.42-1.46-.44-1.47-.47-1.43-.44-1.34-.4-1.25-.36-1.17-.32-1.18-.3-1.24-.29-1.35-.27-1.41-.25-1.41-.23-1.33-.2-1.22-.17-1.13-.14-1.06-.08-1.05-.04-1.3-.02-2.26-.15m24.52 4.48-1.76-.98-1.09-1.84-.89-2.17-1.01-1.55-1.17-.72-1.28-.2-1.35-.08-1.4-.2-1.43-.42-1.42-.62-1.37-.76-1.3-.82-1.21-.89-1.16-.98-1.13-1.15-1.14-1.4-1.19-1.65-1.28-1.92-1.38-2.1-1.49-2.13-1.59-1.87-1.75-1.2-1.99-.41" filter="url(#a)"/><path d="m32.1-77.21-1.87-.66-1.45-.77-1.23-1.19-.98-1.76-.75-2.18-.69-2.22-.83-1.93-1.05-1.6-1.23-1.46-1.31-1.52-1.28-1.65-1.23-1.68-1.2-1.56-1.19-1.43-1.21-1.44-1.26-1.62-1.32-1.82-1.44-1.83L9-107.12l-1.71-1.37-1.8-1.38L3.58-111l-2.17.49m28.15 32.55-1.11-.12-1.47-.2-1.44-.12-1.3-.07-1.21-.05-1.21-.03-1.32.05-1.42.14-1.47.2-1.42.17-1.33.11-1.23.1-1.15.17-1.13.34-1.16.53-1.21.69-1.27.79-1.31.82-1.33.75-1.29.54-1.25.64" filter="url(#a)"/><path d="m11.68-79.93.3-.35 1.07.08 1.12.17 1.21.08h1.35l1.47.02 1.47.09 1.37.15 1.23.18 1.12.18 1.13.2 1.24.25 1.38.3 1.42.3 1 .32-5.62-1.76-1.41-.65-1.33-1.15-1.39-1.36-1.37-1.3-1.27-1.16-1.18-.99-1.12-.82-1.13-.68-1.17-.67-1.21-.81-1.27-.98-1.33-1.06-1.41-1-1.49-.79-1.55-.58-1.63-.46-1.71-.51-1.78-.74-1.82-1.14-1.68-1.6-1.43-1.99-1.59-1.62.12 1.58 1.45-.54 1.37.75 1.68 1.21 1.82 1.34 1.8 1.35 1.7 1.23 1.61 1.11 1.53 1.09 1.44 1.23 1.36 1.44 1.26 1.54L10.98-87l1.12 1.2 1.06.93 1.04.79 1.03.81 1.12.86 1.35.79 1.69.58 1.64.34" filter="url(#a)"/><path d="m21.03-80.7 1.24.18 1.13-.18 1.36-.66 1.63-.89 1.74-.67 1.66-.18 1.48.31 1.32.66 1.21.79 1.17.76 1.22.57 1.32.31 1.41.03 1.48-.17 1.48-.22 1.47-.11 1.48.11 1.54.33 1.63.41 1.74.31 1.84-.05 1.77-.18" filter="url(#a)"/><path d="m-3.74-73.5 1.56-.34 1.69-.49 1.47-.51 1.35-.59 1.32-.63 1.33-.63 1.33-.62 1.32-.6 1.3-.63 1.26-.65 1.21-.61 1.16-.5 1.13-.34 1.15-.17 1.25-.04 1.47.03 1.78.09 1.69.03m-4.98-.59 1.09.06 1.81-.12 1.81-.51 1.64-.75 1.46-.61 1.33-.26 1.33.04 1.43.16 1.54.12 1.59.09 1.54.15 1.42.29 1.31.41 1.3.42 1.38.3 1.51.07 1.54-.16 1.28-.43.27-1.1m-26.58 1.83 1.22-.47 2.17-1.49 2.02-1.28 1.59-.54 1.31.02 1.3.06 1.54-.36 1.88-.95 2.12-1.33 2.17-1.31 2.08-1.01 1.94-.73 1.9-.66 1.96-.77 2.09-.85 2.23-.82 2.43-.8 2.62-.06-5.6-4.24-1.82.86-1.68.67-2.01.98-2.19.97-2.16.68-2.02.38-1.91.43-1.89.91-1.94 1.64-2.02 2.21-2.05 2.29-2.02 1.83-1.9.95h-1.68l-1.35-.51-1.01.16-.57 2.66" filter="url(#a)"/><path d="m14.8-81.77.06.25.93.35 1.35.37 1.48.39 1.42.45 1.25.55 1.12.67 1.02.81 1.02.91 1.06.94 1.11.91 1.13.84 1.14.78 1.1.72 1.04.72.99.74.92.79.85.85.77.88.69.86.7.78.86.67 1.08.7 1.05 1.06-6.59-9.2-.61-.55-.94-.75-1.17-.8-1.26-.75-1.3-.66-1.28-.54-1.2-.42-1.15-.35-1.13-.33-1.2-.34-1.3-.38-1.41-.43-1.42-.42-1.31-.4-1.15-.37-1.25-.36-2.31-.46" filter="url(#a)"/><path d="m10.96-82.29.16.15-.91.03-1.3.1-1.38.2-1.4.25-1.4.31-1.42.35-1.42.41-1.44.45-1.41.49-1.34.53-1.24.61-1.16.66-1.16.65-1.21.59-1.26.52-1.2.43-1.05.29-.86.59" filter="url(#a)"/><path d="m10.96-82.29 2.28.65 1.12 1.03.99 1.17 1.17.99 1.34.66 1.37.42 1.26.35 1.09.51.92.85.78 1.28.72 1.66.72 1.83.79 1.72.87 1.4.92.98.79.81.45 1.16.22 1.65-16.78-18.81-1.46-.39-1.53-.68-1.4-.99-1.37-1.15-1.4-1.06-1.44-.77-1.5-.4-1.54-.14-1.54-.08-1.51-.18-1.46-.39-1.43-.6-1.44-.71-1.51-.67-1.52-.47-1.5-.19-1.43-.09-1.39-.31-1.26-.71-.43-.68" filter="url(#a)"/><path d="m11.98-81.98-1.54.31-1.61.44-1.49.93-1.46 1.14-1.42.84-1.41.26-1.4-.2-1.39-.3-1.35-.07-1.3.31-1.23.59-1.19.66-1.18.58-1.19.52-1.18.58-1.11.78-.99 1.02-.85 1.12-.67.98-.43.48-.21-.04 45.54-8.15-1.95-.52-1.6-.35-1.52-.29-1.43-.26-1.29-.23-1.21-.22-1.2-.21-1.28-.21-1.4-.18-1.46-.14-1.47-.07-1.37-.03-1.26-.05-1.14-.1-1.06-.12-1.04-.12-1.3-.08-2.29-.1 2.32-.07 1.38-.44 1.13-.33 1.12-.08 1.18.12 1.27.22 1.37.26 1.44.24 1.45.21 1.41.19 1.34.17 1.3.15 1.31.18 1.37.2 1.43.24 1.49.27 1.49.26 1.44.24 1.35.21 1.29.17 1.43.24 1.78.81L8.1-82.56l.58.22 1.23.29 1.16.26 1.07.23 1.08.22 1.13.22 1.22.22 1.32.22 1.39.24 1.39.28 1.32.34 1.23.38 1.17.4 1.16.42 1.23.43 1.3.46 1.36.53 1.35.59 1.28.59 1.09.49.73.32M5.47-82.52l-1.18-.37-1.31-1.46-1.44-2.35-1.59-2.68-1.66-2.52-1.59-1.93-1.49-1.12-1.43-.37h-1.46l-1.57-.16-1.7-.78-1.78-1.59-1.77-2.15-1.66-2.2-1.45-1.68-1.25-.89-1.56-.49-3.26-1 28.03 23.7-1.41-.09-1.42.06-1.51.08-1.52.03-1.4.02-1.29.06-1.23.11-1.25.17-1.3.23-1.3.25-1.25.27-1.16.25-1.05.24-.95.22-.92.22-1.02.25-1.23.28-.76.29 20.51-3.14-1.43-.41-1.54-1.01-1.61-.94-1.47-.65-1.33-.56-1.3-.61-1.37-.56-1.42-.33-1.44-.06-1.38.05-1.31-.07-1.23-.38-1.14-.71-1.13-1.03-1.49-1.19-2.78-.67" filter="url(#a)"/><path d="m-20.62-72.45 1.46-.61 1.54-1 1.36-.99 1.16-.78 1.02-.42.96-.11.98.02 1.02-.13 1.08-.47 1.13-.83 1.16-.99 1.18-.87 1.16-.53 1.14-.22 1.2-.18 1.41-.52 1.64-.87 1.08-.93 1.61.13 1.48.1 1.43.08 1.39.08 1.35.1 1.28.11 1.21.12 1.15.15 1.14.16 1.16.19 1.23.21 1.31.22 1.38.25 1.4.27 1.36.29 1.27.3 1.17.31 1.15.32 1.24.33 1.37.36 1.42.41 1 .43" filter="url(#a)"/></g><g fill="none" stroke="#000"><circle cx="9.464" cy="27.556" r="1.544" filter="url(#a)"/><circle cx="9.88" cy="25.788" r="1.864" filter="url(#a)"/><circle cx="11.068" cy="26.5" r="2" filter="url(#a)"/><circle cx="9.556" cy="26.424" r="1.808" filter="url(#a)"/><circle cx="11.644" cy="25.428" r="1.202" filter="url(#a)"/><circle cx="12.216" cy="26.088" r="1.792" filter="url(#a)"/><circle cx="12.26" cy="25.38" r="2.852" filter="url(#a)"/><circle cx="9.556" cy="26.104" r="2.386" filter="url(#a)"/><circle cx="12.628" cy="26.596" r="2.692" filter="url(#a)"/><circle cx="13.184" cy="26.668" r="1.506" filter="url(#a)"/><circle cx="-11.36" cy="30.472" r="1.634" filter="url(#a)"/><circle cx="-10.212" cy="31.396" r="1.796" filter="url(#a)"/><circle cx="-8.912" cy="30.732" r="2.422" filter="url(#a)"/><circle cx="-8.712" cy="30.504" r="1.008" filter="url(#a)"/><circle cx="-10.332" cy="30.212" r="2.276" filter="url(#a)"/><circle cx="-9.844" cy="32.56" r="2.188" filter="url(#a)"/><circle cx="-9.116" cy="32.288" r="1.9" filter="url(#a)"/><circle cx="-12.172" cy="29.612" r="1.358" filter="url(#a)"/><circle cx="-12.256" cy="33.08" r="1.324" filter="url(#a)"/><circle cx="-11.876" cy="33.42" r="2.972" filter="url(#a)"/></g><path fill="#D77F8C" stroke="#000" stroke-linejoin="round" stroke-width="3" d="m-17.26 38.65.48.93.48.92.49.91.5.91.49.9.5.9.51.88.51.88.51.86.52.86.51.85.52.83.53.83.52.81.53.8.53.79.54.78.53.76.54.75.53.73.54.72.54.71.54.68.54.68.54.65.55.64.54.62.54.6.54.58.54.57.54.54.54.53.54.5.53.49.54.46.53.44.54.42.53.39.52.37.53.35.52.32.52.3.52.28.52.24.51.23.51.19.5.17.5.14.5.11.49.09.49.05.48.03h.48l.48-.04.47-.06.46-.1.46-.13.45-.16.45-.19.44-.22.43-.26.43-.3.42-.32.42-.37.41-.4.4-.43.39-.47.39-.51.38-.54.37-.59.36-.62.35-.66.35-.69.34-.74.33-.78.32-.82.31-.86.3-.9.29-.95.28-.98.27-1.03.27-1.08.25-1.11.24-1.17.23-1.2.22-1.25.21-1.3.2-1.34.19-1.39.17-1.44.16-1.49.16-1.53.14-1.58.12-1.63.12-1.68.1-1.73.09-1.78.08-1.83.06-1.89-.41 1.32-.42 1.28-.41 1.24-.41 1.21-.42 1.18-.41 1.14-.41 1.11-.42 1.08-.41 1.04-.41 1.01-.42.98-.41.95-.41.91-.41.89-.42.85-.41.83-.41.79-.42.76-.41.74-.41.7-.42.68-.41.64-.41.62-.42.59-.41.57-.41.53-.42.51-.41.49-.41.45-.42.43-.41.41-.41.37-.42.36-.41.33-.41.3-.42.28-.41.26-.41.23-.41.21-.42.19-.41.16-.41.15-.42.12-.41.1-.41.07-.42.06-.41.04-.41.01h-.42l-.41-.02-.41-.05-.42-.06-.41-.08-.41-.1-.42-.12-.41-.13-.41-.15-.42-.17-.41-.19-.41-.2-.42-.22-.41-.23-.41-.26-.41-.26-.42-.28-.41-.3-.41-.3-.42-.33-.41-.33-.41-.35-.42-.37-.41-.37-.41-.39-.42-.4-.41-.41-.41-.43-.42-.43-.41-.44-.41-.46-.42-.47-.41-.47-.41-.49-.42-.49-.41-.5-.41-.51-.42-.52-.41-.53-.41-.53-.41-.55-.42-.54-.41-.56-.41-.56-.42-.57-.41-.57-.41-.58-.42-.59-.41-.58-.41-.6-.42-.59" filter="url(#a)"/></svg>