<svg viewBox="-100 -100 200 200" xmlns="http://www.w3.org/2000/svg" width="500" height="500" id="face-svg">
    <defs>
      <clipPath id="leftEyeClipPath">
        <polyline points="27.76,-3.34 27.43,-3.55 27.08,-3.77 26.7,-4 26.29,-4.23 25.85,-4.47 25.38,-4.71 24.88,-4.95 24.36,-5.19 23.81,-5.44 23.23,-5.68 22.63,-5.92 22,-6.16 21.34,-6.4 20.67,-6.64 19.97,-6.87 19.3,-7.19 18.58,-7.51 17.82,-7.81 17.02,-8.11 16.18,-8.39 15.31,-8.66 14.4,-8.92 13.46,-9.16 12.49,-9.39 11.5,-9.6 10.48,-9.79 9.44,-9.97 8.38,-10.13 7.31,-10.28 6.23,-10.4 5.14,-10.51 4.04,-10.59 2.94,-10.66 1.85,-10.71 0.75,-10.74 -0.34,-10.76 -1.42,-10.75 -2.48,-10.73 -3.54,-10.69 -4.58,-10.63 -5.6,-10.56 -6.6,-10.47 -7.57,-10.36 -8.52,-10.24 -9.45,-10.1 -10.35,-9.95 -11.22,-9.78 -12.07,-9.6 -12.88,-9.41 -13.66,-9.21 -14.41,-8.99 -15.13,-8.77 -15.81,-8.53 -16.46,-8.29 -17.08,-8.04 -17.67,-7.78 -18.23,-7.51 -18.76,-7.24 -19.26,-6.97 -19.72,-6.69 -20.17,-6.4 -20.58,-6.12 -20.97,-5.83 -21.34,-5.54 -21.68,-5.25 -22.01,-4.96 -22.31,-4.66 -22.59,-4.37 -22.85,-4.07 -23.09,-3.77 -23.31,-3.47 -23.51,-3.17 -23.69,-2.86 -23.85,-2.56 -24,-2.26 -24.13,-1.96 -24.24,-1.66 -24.34,-1.35 -24.42,-1.05 -19.49,7.63 -19.06,7.96 -18.63,8.29 -18.18,8.61 -17.72,8.92 -17.25,9.23 -16.77,9.54 -16.29,9.83 -15.79,10.11 -15.28,10.39 -14.76,10.65 -14.23,10.91 -13.7,11.15 -13.15,11.37 -12.59,11.59 -12.03,11.79 -11.45,11.98 -10.86,12.16 -10.25,12.32 -9.64,12.47 -9.01,12.6 -8.37,12.72 -7.72,12.81 -7.06,12.88 -6.39,12.93 -5.71,12.95 -5.02,12.95 -4.32,12.92 -3.61,12.87 -2.9,12.79 -2.17,12.69 -1.44,12.56 -0.71,12.4 0.04,12.22 0.78,12.01 1.54,11.78 2.29,11.53 3.05,11.25 3.81,10.95 4.58,10.63 5.34,10.3 6.1,9.94 6.87,9.58 7.63,9.19 8.39,8.8 9.14,8.4 9.9,7.99 10.64,7.58 11.39,7.17 12.12,6.76 12.85,6.35 13.57,5.94 14.28,5.55 14.99,5.16 15.68,4.79 16.36,4.43 17.03,4.09 17.69,3.77 18.33,3.48 18.96,3.21 19.58,2.96 20.18,2.74 20.76,2.55 21.33,2.39 21.89,2.25 22.39,2.02 22.88,1.8 23.36,1.59 23.83,1.39 24.29,1.2 24.73,1.03 25.16,0.86 25.57,0.71 25.97,0.56 26.35,0.43 26.71,0.31 27.06,0.19 27.39,0.09 27.7,-0.01 28,-0.1" />
      </clipPath>
      <clipPath id="rightEyeClipPath">
        <polyline points="-25.03,-0.2 -24.66,-0.32 -24.25,-0.44 -23.83,-0.58 -23.37,-0.72 -22.89,-0.86 -22.38,-1.01 -21.84,-1.17 -21.28,-1.33 -20.7,-1.49 -20.09,-1.65 -19.46,-1.82 -18.8,-1.98 -18.12,-2.15 -17.42,-2.32 -16.7,-2.49 -15.99,-2.7 -15.24,-2.9 -14.46,-3.11 -13.63,-3.32 -12.77,-3.53 -11.88,-3.73 -10.96,-3.93 -10.01,-4.13 -9.04,-4.32 -8.05,-4.5 -7.03,-4.68 -6,-4.85 -4.95,-5.01 -3.9,-5.16 -2.83,-5.3 -1.76,-5.44 -0.69,-5.56 0.39,-5.67 1.46,-5.77 2.52,-5.86 3.58,-5.93 4.62,-5.99 5.66,-6.04 6.67,-6.08 7.67,-6.1 8.66,-6.11 9.61,-6.1 10.55,-6.09 11.46,-6.06 12.35,-6.01 13.2,-5.96 14.03,-5.89 14.83,-5.81 15.6,-5.72 16.33,-5.61 17.04,-5.5 17.71,-5.37 18.35,-5.23 18.96,-5.09 19.54,-4.93 20.08,-4.77 20.6,-4.6 21.08,-4.42 21.53,-4.24 21.95,-4.05 22.35,-3.85 22.72,-3.65 23.07,-3.45 23.39,-3.24 23.69,-3.03 23.97,-2.82 24.22,-2.6 24.45,-2.39 24.66,-2.16 24.85,-1.94 25.02,-1.71 25.17,-1.48 25.3,-1.25 25.42,-1.02 25.51,-0.78 25.59,-0.55 25.65,-0.31 25.69,-0.07 25.72,0.16 19.34,5.22 18.8,5.42 18.25,5.62 17.69,5.82 17.11,6.01 16.53,6.19 15.93,6.37 15.33,6.54 14.72,6.7 14.09,6.86 13.46,7 12.82,7.14 12.17,7.27 11.52,7.39 10.85,7.5 10.18,7.6 9.49,7.69 8.8,7.77 8.09,7.85 7.38,7.91 6.66,7.96 5.92,8 5.19,8.02 4.44,8.03 3.69,8.02 2.94,8 2.18,7.96 1.41,7.91 0.65,7.84 -0.12,7.75 -0.88,7.65 -1.65,7.54 -2.41,7.4 -3.18,7.26 -3.94,7.1 -4.7,6.92 -5.45,6.73 -6.2,6.53 -6.94,6.32 -7.67,6.1 -8.4,5.87 -9.12,5.63 -9.83,5.39 -10.54,5.14 -11.23,4.88 -11.91,4.63 -12.58,4.37 -13.24,4.12 -13.89,3.87 -14.52,3.62 -15.14,3.38 -15.75,3.15 -16.35,2.92 -16.93,2.71 -17.49,2.51 -18.05,2.32 -18.58,2.15 -19.11,2 -19.61,1.87 -20.11,1.75 -20.59,1.66 -21.05,1.59 -21.5,1.53 -21.93,1.51 -22.35,1.5 -22.74,1.4 -23.11,1.32 -23.48,1.24 -23.83,1.17 -24.17,1.12 -24.5,1.07 -24.81,1.02 -25.11,0.99 -25.4,0.96 -25.68,0.95 -25.94,0.93 -26.19,0.93 -26.42,0.93 -26.64,0.93 -26.84,0.94" />
      </clipPath>
      <filter id="fuzzy">
        <feTurbulence id="turbulence" baseFrequency="0.05" numOctaves="3" type="noise" result="noise" />
        <feDisplacementMap in="SourceGraphic" in2="noise" scale="2" />
      </filter>
      <linearGradient id="rainbowGradient" x1="0%" y1="0%" x2="100%" y2="0%">
        <stop offset="0%" style="stop-color: rgb(21, 183, 111); stop-opacity: 1" />
        <stop offset="50%" style="stop-color: rgb(165, 143, 115); stop-opacity: 1" />
        <stop offset="100%" style="stop-color: rgb(110, 163, 135); stop-opacity: 1" />
      </linearGradient>
    </defs>
    <rect x="-100" y="-100" width="100%" height="100%" fill="rgb(166, 242, 166)" />
    <polyline id="faceContour" points="59.92,0.78 59.87,2.5 60.03,2.43 59.96,4.52 59.9,6.65 59.63,7.69 59.79,8.25 59.51,11.3 59.38,12.31 59.46,10.87 59.15,13.63 59.18,14.02 58.86,16.74 59.02,15.3 58.81,17.02 58.1,21.27 57.78,22.21 57.41,25 57.62,22.99 57.19,25.56 56.97,26.23 57.04,26.36 56.74,28.18 56.17,29.88 55.69,31.37 55.85,31.88 54.58,35.39 54.74,35.19 54.17,36.67 53.3,39.44 53.21,39.53 52.82,40.73 53.01,40.51 51.93,43.1 50.93,45.38 51.23,44.59 50.55,45.89 49.31,48.58 49.85,48.05 48.94,49.62 48.11,51.74 48.03,51.48 46.99,53.39 46.77,54.11 45.67,56.01 45.55,56.2 45.66,55.94 43.94,58.8 44.65,57.79 42.8,60.56 43.14,59.92 42.03,61.28 40.08,63.84 39.88,64.26 40.22,64.08 38.34,66.38 38.57,66.11 37.49,67.23 35.76,69.05 34.69,70.29 35.86,69.22 34.1,71.02 35.07,69.88 32.1,72.58 32.44,72.32 30.33,74.49 31.09,73.64 30.11,74.37 29.63,74.75 29.15,75.34 28.28,75.89 26.06,77.39 25.92,77.89 25.65,78.01 23.33,79.46 22.17,79.92 21.2,80.45 21.11,80.52 18.72,81.89 18.31,81.92 18.33,82.15 16.82,82.56 17.69,82.21 15.47,83.17 14.6,83.48 14.79,83.63 12.76,84.06 10.84,84.73 12.33,84.36 9.29,84.97 9.75,84.86 8.21,85.18 7.37,85.44 7.23,85.72 6.38,85.63 5.33,85.81 2.57,86.04 2,86.04 1.98,85.95 1.92,86.01 -1.11,86.22 -1.46,86.04 -3.07,86.18 -1.82,86.27 -3.52,86.14 -3.62,86.12 -7.29,85.64 -6.13,85.73 -6.92,85.38 -7.04,85.59 -7.8,85.35 -10.38,84.84 -11.64,84.39 -10.46,84.92 -13.77,83.83 -13.85,83.8 -15.53,83.05 -16.12,83.2 -17.4,82.63 -17.53,82.55 -18.51,81.91 -19.67,81.34 -21.57,80.39 -22.17,79.99 -22.24,79.98 -23.92,79.02 -22.73,79.7 -24.26,78.83 -26.44,77.28 -27.44,76.64 -26.29,77.29 -27.9,76.47 -28.48,75.87 -29.44,74.99 -30.26,74.47 -30.94,73.65 -32.11,72.78 -34.26,70.64 -34.47,70.57 -34.15,70.95 -33.74,71.03 -34.95,70.06 -36.63,68.5 -36.73,67.8 -37.15,67.75 -38.38,65.98 -39.11,64.91 -40.05,63.96 -40.6,63.18 -42.35,61.04 -42.74,60.38 -42.94,60.22 -43.46,59.56 -43.39,59.69 -44.62,57.79 -45.36,56.28 -46.56,54.46 -46,55.04 -47.62,52.32 -47.67,52.13 -48.41,50.54 -48.86,49.61 -49.85,47.76 -49.84,47.71 -51.24,44.96 -51.22,45.01 -51.45,43.92 -52.1,42.61 -53.21,39.88 -53.03,40.38 -53.86,37.94 -53.96,37.46 -54.8,35.21 -54.9,34.58 -54.78,34.18 -55.36,32.71 -55.57,32.8 -56.02,30.49 -56.44,29 -56.78,27.88 -56.94,26.74 -57.6,24.56 -57.62,23.57 -57.69,22.63 -57.79,23.13 -58.11,21.16 -58.45,18.38 -58.72,17.93 -58.95,16.04 -58.9,15.17 -59.13,13.18 -59.5,11.25 -59.42,10.42 -59.56,9.63 -59.7,8.53 -59.94,6.14 -59.7,6.11 -59.73,5.18 -60.05,1.9 -59.82,1.6 -59.94,-1.37 -59.95,-0.26 -59.82,-2.57 -59.99,-4.38 -59.76,-6.29 -59.73,-8.11 -59.62,-7.82 -59.6,-9.89 -59.55,-8.35 -59.26,-13.24 -59.41,-13.24 -59.07,-15.57 -59.01,-15.9 -58.82,-17.09 -58.39,-20.36 -58.45,-19.82 -57.87,-23.02 -57.89,-22.5 -57.46,-24.64 -57.33,-25.55 -57.24,-26.07 -56.53,-28.56 -57.02,-27.34 -56.13,-29.85 -55.68,-32.31 -55.01,-34.88 -55.03,-34.65 -54.63,-35.51 -54.27,-36.87 -53.51,-38.75 -52.85,-40.63 -53.82,-38.47 -52.81,-40.46 -51.95,-42.81 -51.41,-44.33 -51.04,-45 -50.43,-46.58 -50.08,-47.39 -49.41,-49.09 -48.7,-50.33 -48.8,-49.86 -47.31,-53.07 -46.52,-54.45 -47.69,-52.57 -46.57,-54.09 -45.72,-55.82 -43.95,-58.44 -45.03,-57.09 -44.1,-58.19 -42.17,-61.05 -43.1,-60.24 -41.34,-62.71 -40.45,-63.9 -41.3,-62.44 -39.7,-64.62 -38.4,-66.49 -38.96,-65.57 -37.25,-67.66 -36.72,-68.14 -36.32,-68.7 -35.35,-69.76 -34.25,-70.8 -34.51,-70.74 -32.27,-72.51 -32.6,-72.5 -32.81,-72.06 -30.53,-74.43 -29.32,-75.27 -27.68,-76.52 -27.52,-76.66 -27.35,-76.83 -26.98,-77.04 -26.32,-77.5 -25.22,-78.26 -23.77,-79.17 -23.41,-79.29 -22.48,-80.17 -21.28,-80.66 -21.13,-80.69 -18.78,-81.69 -18.3,-81.97 -17.81,-82.31 -16.54,-82.99 -15.88,-83.06 -14.34,-83.79 -14.81,-83.36 -13.45,-83.94 -12.39,-84.43 -10.86,-84.92 -8.59,-85.16 -9.05,-85.4 -7.83,-85.51 -6.79,-85.77 -7.58,-85.49 -6.48,-85.72 -3.95,-86.2 -4.08,-86.02 -2.97,-86.04 -1.31,-86.05 -0.94,-86.25 -0.26,-86.02 1.44,-86.34 1.42,-86.31 2.15,-86.23 3.74,-86.07 4.9,-85.99 5.9,-85.99 5.66,-85.85 8.65,-85.3 8.58,-85.35 10.19,-84.83 10.26,-84.74 12.48,-84.34 12.34,-84.46 13.39,-84.19 13.21,-84.04 15.09,-83.55 15.91,-83.17 16.07,-83.22 18.16,-82.31 18.7,-81.93 18.4,-82.3 20.23,-81.2 21.64,-80.45 21.11,-80.94 23.76,-79.02 24.5,-78.85 24.16,-78.81 24.68,-78.58 25.34,-78.11 26.21,-77.41 28.15,-75.88 28.94,-75.52 28.81,-75.91 30.94,-73.86 31.13,-73.59 31.98,-73.14 34.28,-70.46 33.48,-71.5 35.3,-69.84 34.66,-70.49 35.44,-69.54 35.69,-69.14 38.38,-66.07 37.89,-66.96 38.98,-65.34 38.88,-65.33 41.36,-62.73 40.19,-64.01 41.49,-62.17 43.19,-59.58 43.29,-60.02 44.48,-58.06 44.68,-57.53 44.74,-57.18 45.89,-55.76 46.5,-54.76 46.76,-53.88 47.23,-53.14 47.88,-51.58 48.94,-50.08 48.85,-49.91 49.72,-48.12 50.49,-46.16 50.45,-46.54 51.49,-44.34 52.03,-42.91 51.91,-43.55 53.11,-39.77 52.43,-41.56 53.33,-39.27 54.2,-36.99 54.28,-36.82 54.56,-35.79 55.4,-33.58 55.74,-32.57 55.85,-30.66 55.97,-30.77 56.01,-30.88 56.69,-27.71 57.1,-25.82 57.09,-26.96 57.31,-24.95 57.69,-23.57 57.94,-22.49 58.41,-19.59 58.43,-19.59 58.6,-18.36 59.22,-14.32 59.32,-13.39 59.44,-11.1 59.3,-12.36 59.36,-10.81 59.65,-9.65 59.79,-8.62 59.75,-5.16 59.86,-6.21 59.77,-4.03 59.81,-2.07 59.95,-1.8 59.92,0.78 59.87,2.5" fill="rgb(222, 32, 223)" stroke="black" stroke-width="1.6666666666666665" stroke-linejoin="round" filter="url(#fuzzy)" />
    <g transform="translate(22.71 -25.18)">
      <polyline id="rightCountour" points="-25.03,-0.2 -24.66,-0.32 -24.25,-0.44 -23.83,-0.58 -23.37,-0.72 -22.89,-0.86 -22.38,-1.01 -21.84,-1.17 -21.28,-1.33 -20.7,-1.49 -20.09,-1.65 -19.46,-1.82 -18.8,-1.98 -18.12,-2.15 -17.42,-2.32 -16.7,-2.49 -15.99,-2.7 -15.24,-2.9 -14.46,-3.11 -13.63,-3.32 -12.77,-3.53 -11.88,-3.73 -10.96,-3.93 -10.01,-4.13 -9.04,-4.32 -8.05,-4.5 -7.03,-4.68 -6,-4.85 -4.95,-5.01 -3.9,-5.16 -2.83,-5.3 -1.76,-5.44 -0.69,-5.56 0.39,-5.67 1.46,-5.77 2.52,-5.86 3.58,-5.93 4.62,-5.99 5.66,-6.04 6.67,-6.08 7.67,-6.1 8.66,-6.11 9.61,-6.1 10.55,-6.09 11.46,-6.06 12.35,-6.01 13.2,-5.96 14.03,-5.89 14.83,-5.81 15.6,-5.72 16.33,-5.61 17.04,-5.5 17.71,-5.37 18.35,-5.23 18.96,-5.09 19.54,-4.93 20.08,-4.77 20.6,-4.6 21.08,-4.42 21.53,-4.24 21.95,-4.05 22.35,-3.85 22.72,-3.65 23.07,-3.45 23.39,-3.24 23.69,-3.03 23.97,-2.82 24.22,-2.6 24.45,-2.39 24.66,-2.16 24.85,-1.94 25.02,-1.71 25.17,-1.48 25.3,-1.25 25.42,-1.02 25.51,-0.78 25.59,-0.55 25.65,-0.31 25.69,-0.07 25.72,0.16 19.34,5.22 18.8,5.42 18.25,5.62 17.69,5.82 17.11,6.01 16.53,6.19 15.93,6.37 15.33,6.54 14.72,6.7 14.09,6.86 13.46,7 12.82,7.14 12.17,7.27 11.52,7.39 10.85,7.5 10.18,7.6 9.49,7.69 8.8,7.77 8.09,7.85 7.38,7.91 6.66,7.96 5.92,8 5.19,8.02 4.44,8.03 3.69,8.02 2.94,8 2.18,7.96 1.41,7.91 0.65,7.84 -0.12,7.75 -0.88,7.65 -1.65,7.54 -2.41,7.4 -3.18,7.26 -3.94,7.1 -4.7,6.92 -5.45,6.73 -6.2,6.53 -6.94,6.32 -7.67,6.1 -8.4,5.87 -9.12,5.63 -9.83,5.39 -10.54,5.14 -11.23,4.88 -11.91,4.63 -12.58,4.37 -13.24,4.12 -13.89,3.87 -14.52,3.62 -15.14,3.38 -15.75,3.15 -16.35,2.92 -16.93,2.71 -17.49,2.51 -18.05,2.32 -18.58,2.15 -19.11,2 -19.61,1.87 -20.11,1.75 -20.59,1.66 -21.05,1.59 -21.5,1.53 -21.93,1.51 -22.35,1.5 -22.74,1.4 -23.11,1.32 -23.48,1.24 -23.83,1.17 -24.17,1.12 -24.5,1.07 -24.81,1.02 -25.11,0.99 -25.4,0.96 -25.68,0.95 -25.94,0.93 -26.19,0.93 -26.42,0.93 -26.64,0.93 -26.84,0.94" fill="white" stroke="white" stroke-width="0" stroke-linejoin="round" filter="url(#fuzzy)" />
    </g>
    <g transform="translate(-28.47 -27.049999999999997)">
      <polyline id="leftCountour" points="27.76,-3.34 27.43,-3.55 27.08,-3.77 26.7,-4 26.29,-4.23 25.85,-4.47 25.38,-4.71 24.88,-4.95 24.36,-5.19 23.81,-5.44 23.23,-5.68 22.63,-5.92 22,-6.16 21.34,-6.4 20.67,-6.64 19.97,-6.87 19.3,-7.19 18.58,-7.51 17.82,-7.81 17.02,-8.11 16.18,-8.39 15.31,-8.66 14.4,-8.92 13.46,-9.16 12.49,-9.39 11.5,-9.6 10.48,-9.79 9.44,-9.97 8.38,-10.13 7.31,-10.28 6.23,-10.4 5.14,-10.51 4.04,-10.59 2.94,-10.66 1.85,-10.71 0.75,-10.74 -0.34,-10.76 -1.42,-10.75 -2.48,-10.73 -3.54,-10.69 -4.58,-10.63 -5.6,-10.56 -6.6,-10.47 -7.57,-10.36 -8.52,-10.24 -9.45,-10.1 -10.35,-9.95 -11.22,-9.78 -12.07,-9.6 -12.88,-9.41 -13.66,-9.21 -14.41,-8.99 -15.13,-8.77 -15.81,-8.53 -16.46,-8.29 -17.08,-8.04 -17.67,-7.78 -18.23,-7.51 -18.76,-7.24 -19.26,-6.97 -19.72,-6.69 -20.17,-6.4 -20.58,-6.12 -20.97,-5.83 -21.34,-5.54 -21.68,-5.25 -22.01,-4.96 -22.31,-4.66 -22.59,-4.37 -22.85,-4.07 -23.09,-3.77 -23.31,-3.47 -23.51,-3.17 -23.69,-2.86 -23.85,-2.56 -24,-2.26 -24.13,-1.96 -24.24,-1.66 -24.34,-1.35 -24.42,-1.05 -19.49,7.63 -19.06,7.96 -18.63,8.29 -18.18,8.61 -17.72,8.92 -17.25,9.23 -16.77,9.54 -16.29,9.83 -15.79,10.11 -15.28,10.39 -14.76,10.65 -14.23,10.91 -13.7,11.15 -13.15,11.37 -12.59,11.59 -12.03,11.79 -11.45,11.98 -10.86,12.16 -10.25,12.32 -9.64,12.47 -9.01,12.6 -8.37,12.72 -7.72,12.81 -7.06,12.88 -6.39,12.93 -5.71,12.95 -5.02,12.95 -4.32,12.92 -3.61,12.87 -2.9,12.79 -2.17,12.69 -1.44,12.56 -0.71,12.4 0.04,12.22 0.78,12.01 1.54,11.78 2.29,11.53 3.05,11.25 3.81,10.95 4.58,10.63 5.34,10.3 6.1,9.94 6.87,9.58 7.63,9.19 8.39,8.8 9.14,8.4 9.9,7.99 10.64,7.58 11.39,7.17 12.12,6.76 12.85,6.35 13.57,5.94 14.28,5.55 14.99,5.16 15.68,4.79 16.36,4.43 17.03,4.09 17.69,3.77 18.33,3.48 18.96,3.21 19.58,2.96 20.18,2.74 20.76,2.55 21.33,2.39 21.89,2.25 22.39,2.02 22.88,1.8 23.36,1.59 23.83,1.39 24.29,1.2 24.73,1.03 25.16,0.86 25.57,0.71 25.97,0.56 26.35,0.43 26.71,0.31 27.06,0.19 27.39,0.09 27.7,-0.01 28,-0.1" fill="white" stroke="white" stroke-width="0" stroke-linejoin="round" filter="url(#fuzzy)" />
    </g>
    <g transform="translate(22.71 -25.18)">
      <polyline id="rightUpper" points="-27.29,0.5 -27.18,0.48 -27.05,0.45 -26.89,0.4 -26.7,0.35 -26.49,0.28 -26.25,0.2 -25.99,0.12 -25.7,0.02 -25.38,-0.08 -25.03,-0.2 -24.66,-0.32 -24.25,-0.44 -23.83,-0.58 -23.37,-0.72 -22.89,-0.86 -22.38,-1.01 -21.84,-1.17 -21.28,-1.33 -20.7,-1.49 -20.09,-1.65 -19.46,-1.82 -18.8,-1.98 -18.12,-2.15 -17.42,-2.32 -16.7,-2.49 -15.99,-2.7 -15.24,-2.9 -14.46,-3.11 -13.63,-3.32 -12.77,-3.53 -11.88,-3.73 -10.96,-3.93 -10.01,-4.13 -9.04,-4.32 -8.05,-4.5 -7.03,-4.68 -6,-4.85 -4.95,-5.01 -3.9,-5.16 -2.83,-5.3 -1.76,-5.44 -0.69,-5.56 0.39,-5.67 1.46,-5.77 2.52,-5.86 3.58,-5.93 4.62,-5.99 5.66,-6.04 6.67,-6.08 7.67,-6.1 8.66,-6.11 9.61,-6.1 10.55,-6.09 11.46,-6.06 12.35,-6.01 13.2,-5.96 14.03,-5.89 14.83,-5.81 15.6,-5.72 16.33,-5.61 17.04,-5.5 17.71,-5.37 18.35,-5.23 18.96,-5.09 19.54,-4.93 20.08,-4.77 20.6,-4.6 21.08,-4.42 21.53,-4.24 21.95,-4.05 22.35,-3.85 22.72,-3.65 23.07,-3.45 23.39,-3.24 23.69,-3.03 23.97,-2.82 24.22,-2.6 24.45,-2.39 24.66,-2.16 24.85,-1.94 25.02,-1.71 25.17,-1.48 25.3,-1.25 25.42,-1.02 25.51,-0.78 25.59,-0.55 25.65,-0.31 25.69,-0.07 25.72,0.16 25.74,0.4 25.74,0.63 25.73,0.87 25.7,1.11 25.67,1.34 25.62,1.57 25.56,1.81 25.49,2.04 25.41,2.27 25.32,2.5" fill="none" stroke="black" stroke-width="1.6666666666666665" stroke-linejoin="round" filter="url(#fuzzy)" />
      <polyline id="rightLower" points="-27.94,0.96 -27.91,0.99 -27.87,1 -27.8,1.01 -27.72,1 -27.61,1 -27.49,0.99 -27.35,0.98 -27.2,0.96 -27.03,0.95 -26.84,0.94 -26.64,0.93 -26.42,0.93 -26.19,0.93 -25.94,0.93 -25.68,0.95 -25.4,0.96 -25.11,0.99 -24.81,1.02 -24.5,1.07 -24.17,1.12 -23.83,1.17 -23.48,1.24 -23.11,1.32 -22.74,1.4 -22.35,1.5 -21.93,1.51 -21.5,1.53 -21.05,1.59 -20.59,1.66 -20.11,1.75 -19.61,1.87 -19.11,2 -18.58,2.15 -18.05,2.32 -17.49,2.51 -16.93,2.71 -16.35,2.92 -15.75,3.15 -15.14,3.38 -14.52,3.62 -13.89,3.87 -13.24,4.12 -12.58,4.37 -11.91,4.63 -11.23,4.88 -10.54,5.14 -9.83,5.39 -9.12,5.63 -8.4,5.87 -7.67,6.1 -6.94,6.32 -6.2,6.53 -5.45,6.73 -4.7,6.92 -3.94,7.1 -3.18,7.26 -2.41,7.4 -1.65,7.54 -0.88,7.65 -0.12,7.75 0.65,7.84 1.41,7.91 2.18,7.96 2.94,8 3.69,8.02 4.44,8.03 5.19,8.02 5.92,8 6.66,7.96 7.38,7.91 8.09,7.85 8.8,7.77 9.49,7.69 10.18,7.6 10.85,7.5 11.52,7.39 12.17,7.27 12.82,7.14 13.46,7 14.09,6.86 14.72,6.7 15.33,6.54 15.93,6.37 16.53,6.19 17.11,6.01 17.69,5.82 18.25,5.62 18.8,5.42 19.34,5.22 19.88,5.01 20.4,4.8 20.9,4.58 21.4,4.37 21.89,4.15 22.37,3.92 22.83,3.7 23.29,3.47 23.73,3.25 24.17,3.02" fill="none" stroke="black" stroke-width="2.2222222222222223" stroke-linejoin="round" filter="url(#fuzzy)" />
      <circle r="4.454" cx="-13.541938361989569" cy="4.610526188822492" stroke="black" fill="none" stroke-width="1.0" filter="url(#fuzzy)" clip-path="url(#rightEyeClipPath)" /><circle r="4.0120000000000005" cx="-15.13693836198957" cy="3.7055261888224926" stroke="black" fill="none" stroke-width="1.0" filter="url(#fuzzy)" clip-path="url(#rightEyeClipPath)" /><circle r="4.078" cx="-12.80693836198957" cy="1.565526188822492" stroke="black" fill="none" stroke-width="1.0" filter="url(#fuzzy)" clip-path="url(#rightEyeClipPath)" /><circle r="4.132" cx="-15.711938361989569" cy="4.685526188822491" stroke="black" fill="none" stroke-width="1.0" filter="url(#fuzzy)" clip-path="url(#rightEyeClipPath)" /><circle r="4.05" cx="-14.166938361989569" cy="4.415526188822492" stroke="black" fill="none" stroke-width="1.0" filter="url(#fuzzy)" clip-path="url(#rightEyeClipPath)" /><circle r="3.902" cx="-12.44193836198957" cy="5.485526188822492" stroke="black" fill="none" stroke-width="1.0" filter="url(#fuzzy)" clip-path="url(#rightEyeClipPath)" /><circle r="3.036" cx="-12.60193836198957" cy="5.690526188822492" stroke="black" fill="none" stroke-width="1.0" filter="url(#fuzzy)" clip-path="url(#rightEyeClipPath)" /><circle r="4.93" cx="-13.041938361989569" cy="5.250526188822493" stroke="black" fill="none" stroke-width="1.0" filter="url(#fuzzy)" clip-path="url(#rightEyeClipPath)" /><circle r="4.364" cx="-13.05693836198957" cy="4.740526188822492" stroke="black" fill="none" stroke-width="1.0" filter="url(#fuzzy)" clip-path="url(#rightEyeClipPath)" /><circle r="3.692" cx="-12.73193836198957" cy="2.895526188822492" stroke="black" fill="none" stroke-width="1.0" filter="url(#fuzzy)" clip-path="url(#rightEyeClipPath)" />
      </g>
    <g transform="translate(-28.47 -27.049999999999997)">
      <polyline id="leftUpper" points="29.46,-1.91 29.41,-1.97 29.34,-2.06 29.23,-2.16 29.11,-2.29 28.95,-2.43 28.77,-2.59 28.56,-2.76 28.32,-2.94 28.06,-3.13 27.76,-3.34 27.43,-3.55 27.08,-3.77 26.7,-4 26.29,-4.23 25.85,-4.47 25.38,-4.71 24.88,-4.95 24.36,-5.19 23.81,-5.44 23.23,-5.68 22.63,-5.92 22,-6.16 21.34,-6.4 20.67,-6.64 19.97,-6.87 19.3,-7.19 18.58,-7.51 17.82,-7.81 17.02,-8.11 16.18,-8.39 15.31,-8.66 14.4,-8.92 13.46,-9.16 12.49,-9.39 11.5,-9.6 10.48,-9.79 9.44,-9.97 8.38,-10.13 7.31,-10.28 6.23,-10.4 5.14,-10.51 4.04,-10.59 2.94,-10.66 1.85,-10.71 0.75,-10.74 -0.34,-10.76 -1.42,-10.75 -2.48,-10.73 -3.54,-10.69 -4.58,-10.63 -5.6,-10.56 -6.6,-10.47 -7.57,-10.36 -8.52,-10.24 -9.45,-10.1 -10.35,-9.95 -11.22,-9.78 -12.07,-9.6 -12.88,-9.41 -13.66,-9.21 -14.41,-8.99 -15.13,-8.77 -15.81,-8.53 -16.46,-8.29 -17.08,-8.04 -17.67,-7.78 -18.23,-7.51 -18.76,-7.24 -19.26,-6.97 -19.72,-6.69 -20.17,-6.4 -20.58,-6.12 -20.97,-5.83 -21.34,-5.54 -21.68,-5.25 -22.01,-4.96 -22.31,-4.66 -22.59,-4.37 -22.85,-4.07 -23.09,-3.77 -23.31,-3.47 -23.51,-3.17 -23.69,-2.86 -23.85,-2.56 -24,-2.26 -24.13,-1.96 -24.24,-1.66 -24.34,-1.35 -24.42,-1.05 -24.5,-0.75 -24.56,-0.46 -24.6,-0.16 -24.64,0.14 -24.66,0.43 -24.67,0.72 -24.68,1.01 -24.67,1.3 -24.66,1.59 -24.63,1.87" fill="none" stroke="black" stroke-width="2.2222222222222223" stroke-linejoin="round" filter="url(#fuzzy)" />
      <polyline id="leftLower" points="29.77,-1 29.7,-0.88 29.6,-0.78 29.48,-0.69 29.34,-0.6 29.17,-0.52 28.98,-0.44 28.76,-0.36 28.53,-0.27 28.27,-0.19 28,-0.1 27.7,-0.01 27.39,0.09 27.06,0.19 26.71,0.31 26.35,0.43 25.97,0.56 25.57,0.71 25.16,0.86 24.73,1.03 24.29,1.2 23.83,1.39 23.36,1.59 22.88,1.8 22.39,2.02 21.89,2.25 21.33,2.39 20.76,2.55 20.18,2.74 19.58,2.96 18.96,3.21 18.33,3.48 17.69,3.77 17.03,4.09 16.36,4.43 15.68,4.79 14.99,5.16 14.28,5.55 13.57,5.94 12.85,6.35 12.12,6.76 11.39,7.17 10.64,7.58 9.9,7.99 9.14,8.4 8.39,8.8 7.63,9.19 6.87,9.58 6.1,9.94 5.34,10.3 4.58,10.63 3.81,10.95 3.05,11.25 2.29,11.53 1.54,11.78 0.78,12.01 0.04,12.22 -0.71,12.4 -1.44,12.56 -2.17,12.69 -2.9,12.79 -3.61,12.87 -4.32,12.92 -5.02,12.95 -5.71,12.95 -6.39,12.93 -7.06,12.88 -7.72,12.81 -8.37,12.72 -9.01,12.6 -9.64,12.47 -10.25,12.32 -10.86,12.16 -11.45,11.98 -12.03,11.79 -12.59,11.59 -13.15,11.37 -13.7,11.15 -14.23,10.91 -14.76,10.65 -15.28,10.39 -15.79,10.11 -16.29,9.83 -16.77,9.54 -17.25,9.23 -17.72,8.92 -18.18,8.61 -18.63,8.29 -19.06,7.96 -19.49,7.63 -19.91,7.3 -20.32,6.96 -20.71,6.62 -21.1,6.28 -21.48,5.94 -21.85,5.6 -22.21,5.25 -22.56,4.91 -22.9,4.57 -23.23,4.22" fill="none" stroke="black" stroke-width="2.2222222222222223" stroke-linejoin="round" filter="url(#fuzzy)" />
      <circle r="4.33" cx="-3.746635919207023" cy="3.302383004854641" stroke="black" fill="none" stroke-width="1.0" filter="url(#fuzzy)" clip-path="url(#leftEyeClipPath)" /><circle r="4.644" cx="-3.0216359192070232" cy="4.607383004854642" stroke="black" fill="none" stroke-width="1.0" filter="url(#fuzzy)" clip-path="url(#leftEyeClipPath)" /><circle r="4.42" cx="-2.9716359192070225" cy="4.722383004854641" stroke="black" fill="none" stroke-width="1.0" filter="url(#fuzzy)" clip-path="url(#leftEyeClipPath)" /><circle r="3.144" cx="-3.866635919207023" cy="6.237383004854642" stroke="black" fill="none" stroke-width="1.0" filter="url(#fuzzy)" clip-path="url(#leftEyeClipPath)" /><circle r="4.724" cx="-5.046635919207024" cy="6.672383004854641" stroke="black" fill="none" stroke-width="1.0" filter="url(#fuzzy)" clip-path="url(#leftEyeClipPath)" /><circle r="3.58" cx="-4.726635919207023" cy="4.682383004854641" stroke="black" fill="none" stroke-width="1.0" filter="url(#fuzzy)" clip-path="url(#leftEyeClipPath)" /><circle r="3.094" cx="-3.9616359192070227" cy="7.112383004854641" stroke="black" fill="none" stroke-width="1.0" filter="url(#fuzzy)" clip-path="url(#leftEyeClipPath)" /><circle r="3.424" cx="-6.216635919207023" cy="3.0373830048546413" stroke="black" fill="none" stroke-width="1.0" filter="url(#fuzzy)" clip-path="url(#leftEyeClipPath)" /><circle r="3.608" cx="-7.186635919207022" cy="7.162383004854641" stroke="black" fill="none" stroke-width="1.0" filter="url(#fuzzy)" clip-path="url(#leftEyeClipPath)" /><circle r="4.66" cx="-2.8916359192070225" cy="5.087383004854641" stroke="black" fill="none" stroke-width="1.0" filter="url(#fuzzy)" clip-path="url(#leftEyeClipPath)" />
    </g>
    <g id="hairs">
      <polyline points="-32.6,-72.5 -31.86,-72.82 -30.1,-73.63 -27.96,-74.3 -25.67,-74.65 -23.25,-74.7 -20.64,-74.54 -17.74,-74.25 -14.5,-73.89 -10.94,-73.48 -7.09,-73.02 -2.99,-72.48 1.32,-71.87 5.78,-71.19 10.36,-70.48 15.01,-69.77 19.72,-69.04 24.47,-68.27 29.24,-67.42 34,-66.51" fill="none" stroke="rgb(134, 133, 19)" stroke-width="2" stroke-linejoin="round" filter="url(#fuzzy)" /><polyline points="-17.81,-82.31 -16.53,-82.68 -14.93,-82.71 -13,-82.49 -10.66,-82.08 -7.88,-81.53 -4.67,-80.88 -1.14,-80.12 2.61,-79.23 6.47,-78.21 10.42,-77.06 14.45,-75.79 18.59,-74.45 22.85,-73.09 27.14,-71.79 31.27,-70.7" fill="none" stroke="rgb(134, 133, 19)" stroke-width="2" stroke-linejoin="round" filter="url(#fuzzy)" /><polyline points="-21.13,-80.69 -19.39,-81.41 -18.07,-81.9 -16.73,-82.3 -15.27,-82.66 -13.69,-82.98 -12.01,-83.28 -10.25,-83.55 -8.4,-83.84 -6.47,-84.12 -4.52,-84.39 -2.62,-84.63 -0.85,-84.83 0.73,-84.98 2.1,-85.11 3.27,-85.24 4.23,-85.39 4.95,-85.57 5.35,-85.79" fill="none" stroke="rgb(134, 133, 19)" stroke-width="2" stroke-linejoin="round" filter="url(#fuzzy)" /><polyline points="48.85,-49.91 49.58,-48.34 50.12,-47.15 50.55,-46.22 50.87,-45.48 51.07,-44.92 51.13,-44.61 51.04,-44.55 50.78,-44.8 50.33,-45.37 49.68,-46.33 48.79,-47.72 47.65,-49.58 46.23,-51.93 44.52,-54.81 42.52,-58.27 40.36,-62.21" fill="none" stroke="rgb(134, 133, 19)" stroke-width="2" stroke-linejoin="round" filter="url(#fuzzy)" /><polyline points="47.23,-53.14 47.67,-51.82 47.58,-50.81 46.93,-49.98 45.75,-49.25 44.03,-48.65 41.75,-48.19 38.89,-47.87 35.41,-47.71 31.32,-47.71 26.59,-47.84 21.23,-48.11 15.23,-48.49 8.57,-48.96 1.22,-49.55 -6.81,-50.28 -15.53,-51.21 -24.97,-52.3 -35.28,-53.33" fill="none" stroke="rgb(134, 133, 19)" stroke-width="2" stroke-linejoin="round" filter="url(#fuzzy)" /><polyline points="-14.81,-83.36 -13.57,-83.88 -12.31,-84.33 -11.13,-84.68 -10.16,-84.94 -9.46,-85.1 -9.02,-85.18 -8.78,-85.17 -8.71,-85.1 -8.8,-84.94 -9.06,-84.71 -9.56,-84.38 -10.35,-83.94 -11.48,-83.39 -12.98,-82.71 -14.88,-81.91 -17.22,-80.94 -20.04,-79.8 -23.35,-78.47" fill="none" stroke="rgb(134, 133, 19)" stroke-width="2" stroke-linejoin="round" filter="url(#fuzzy)" /><polyline points="21.11,-80.94 22.89,-79.72 23.68,-79.19 24.02,-78.92 24.22,-78.71 24.37,-78.47 24.44,-78.25 24.33,-78.09 23.95,-78.06 23.21,-78.17 22.09,-78.44 20.55,-78.88 18.57,-79.5 16.09,-80.33 13.06,-81.43 9.47,-82.82 5.48,-84.48" fill="none" stroke="rgb(134, 133, 19)" stroke-width="2" stroke-linejoin="round" filter="url(#fuzzy)" /><polyline points="18.7,-81.93 19.09,-81.82 20.08,-81.29 21.16,-80.68 22.2,-80.06 23.15,-79.49 23.96,-78.98 24.62,-78.54 25.18,-78.16 25.66,-77.83 26.08,-77.53 26.41,-77.28 26.6,-77.13 26.58,-77.11 26.29,-77.25 25.68,-77.58 24.74,-78.11 23.46,-78.86 21.86,-79.84 20.09,-80.98" fill="none" stroke="rgb(134, 133, 19)" stroke-width="2" stroke-linejoin="round" filter="url(#fuzzy)" /><polyline points="-23.77,-79.17 -23.07,-79.46 -21.84,-79.82 -20.22,-80.1 -18.29,-80.31 -16.12,-80.46 -13.78,-80.54 -11.28,-80.56 -8.64,-80.49 -5.88,-80.35 -2.99,-80.14 -0.01,-79.89 3.05,-79.64 6.17,-79.41 9.29,-79.2 12.37,-78.98 15.35,-78.74 18.17,-78.45 20.78,-78.19 23.11,-78.08" fill="none" stroke="rgb(134, 133, 19)" stroke-width="2" stroke-linejoin="round" filter="url(#fuzzy)" /><polyline points="34.66,-70.49 35.35,-69.62 36.12,-68.67 36.79,-67.8 37.26,-67.13 37.52,-66.61 37.6,-66.21 37.53,-65.9 37.28,-65.69 36.84,-65.58 36.17,-65.61 35.23,-65.83 34,-66.27 32.44,-66.93 30.55,-67.82 28.33,-68.93 25.79,-70.25 22.92,-71.78 19.71,-73.53 16.17,-75.51 12.3,-77.74 8.05,-80.23 3.45,-83.02" fill="none" stroke="rgb(134, 133, 19)" stroke-width="2" stroke-linejoin="round" filter="url(#fuzzy)" /><polyline points="20.23,-81.2 21.24,-80.64 22.27,-79.92 23.44,-79.02 24.59,-78.06 25.72,-77.05 26.89,-75.97 28.17,-74.79 29.54,-73.52 30.98,-72.2 32.42,-70.88 33.83,-69.58 35.18,-68.31 36.44,-67.1 37.6,-65.97 38.62,-64.97 39.45,-64.17 40.05,-63.63 40.37,-63.39 40.46,-63.44 40.54,-63.52" fill="none" stroke="rgb(134, 133, 19)" stroke-width="2" stroke-linejoin="round" filter="url(#fuzzy)" /><polyline points="-9.05,-85.4 -7.91,-85.43 -6.77,-85.26 -5.37,-84.93 -3.56,-84.48 -1.4,-83.91 0.99,-83.24 3.54,-82.46 6.21,-81.59 8.96,-80.65 11.76,-79.65 14.6,-78.62 17.44,-77.57 20.28,-76.53 23.08,-75.51 25.88,-74.48 28.67,-73.38 31.38,-72.21" fill="none" stroke="rgb(134, 133, 19)" stroke-width="2" stroke-linejoin="round" filter="url(#fuzzy)" /><polyline points="25.34,-78.11 26.45,-77.24 27.67,-76.32 28.79,-75.5 29.81,-74.7 30.78,-73.89 31.7,-73.1 32.51,-72.37 33.15,-71.78 33.52,-71.43 33.57,-71.39 33.26,-71.68 32.6,-72.28 31.61,-73.17 30.32,-74.33" fill="none" stroke="rgb(134, 133, 19)" stroke-width="2" stroke-linejoin="round" filter="url(#fuzzy)" /><polyline points="-26.98,-77.04 -25.98,-77.56 -24.38,-78.17 -22.4,-78.75 -20.09,-79.27 -17.48,-79.73 -14.58,-80.17 -11.44,-80.58 -8.14,-81 -4.73,-81.4 -1.27,-81.79 2.24,-82.14 5.75,-82.45 9.21,-82.74 12.48,-83.03" fill="none" stroke="rgb(134, 133, 19)" stroke-width="2" stroke-linejoin="round" filter="url(#fuzzy)" /><polyline points="-12.39,-84.43 -10.9,-84.8 -9.8,-85.04 -9.08,-85.18 -8.61,-85.23 -8.28,-85.21 -8.01,-85.13 -7.8,-84.98 -7.68,-84.76 -7.69,-84.44 -7.9,-84.02 -8.33,-83.48 -9.01,-82.83 -9.95,-82.07 -11.14,-81.2 -12.6,-80.2 -14.34,-79.05 -16.36,-77.75 -18.69,-76.28 -21.36,-74.64 -24.38,-72.83 -27.77,-70.84 -31.59,-68.61 -35.99,-65.94" fill="none" stroke="rgb(134, 133, 19)" stroke-width="2" stroke-linejoin="round" filter="url(#fuzzy)" /><polyline points="44.74,-57.18 45.31,-56.1 44.97,-55.41 43.84,-54.99 42.01,-54.78 39.47,-54.79 36.17,-55.04 32.07,-55.56 27.08,-56.34 21.15,-57.37 14.25,-58.67 6.41,-60.29 -2.34,-62.3 -12.05,-64.71 -22.78,-67.43" fill="none" stroke="rgb(134, 133, 19)" stroke-width="2" stroke-linejoin="round" filter="url(#fuzzy)" /><polyline points="34.66,-70.49 35.34,-69.62 36.06,-68.67 36.65,-67.82 37.01,-67.15 37.13,-66.63 37.04,-66.22 36.76,-65.9 36.29,-65.65 35.6,-65.49 34.65,-65.45 33.43,-65.56 31.89,-65.85 30.02,-66.33 27.82,-67 25.31,-67.85 22.49,-68.88 19.37,-70.08 15.91,-71.45 12.07,-73.01 7.77,-74.74 2.94,-76.65 -2.47,-78.72 -8.39,-80.94" fill="none" stroke="rgb(134, 133, 19)" stroke-width="2" stroke-linejoin="round" filter="url(#fuzzy)" /><polyline points="35.3,-69.84 34.94,-69.98 34.74,-69.56 34.4,-68.89 33.65,-68.23 32.36,-67.7 30.48,-67.32 28.03,-67.08 24.99,-66.95 21.33,-66.89 17,-66.89 11.93,-66.93 6.1,-67.06 -0.52,-67.36 -7.87,-67.89 -15.97,-68.65 -24.87,-69.55" fill="none" stroke="rgb(134, 133, 19)" stroke-width="2" stroke-linejoin="round" filter="url(#fuzzy)" /><polyline points="-23.77,-79.17 -23.24,-79.49 -22.51,-79.94 -21.72,-80.35 -20.96,-80.7 -20.3,-80.97 -19.81,-81.12 -19.51,-81.15 -19.43,-81.03 -19.56,-80.76 -19.91,-80.32 -20.49,-79.71 -21.31,-78.92 -22.37,-77.94 -23.73,-76.73 -25.44,-75.29 -27.56,-73.58 -30.13,-71.57 -33.18,-69.22 -36.82,-66.31" fill="none" stroke="rgb(134, 133, 19)" stroke-width="2" stroke-linejoin="round" filter="url(#fuzzy)" /><polyline points="52.43,-41.56 53.2,-39.59 53.74,-38.16 54.09,-37.16 54.32,-36.41 54.42,-35.9 54.36,-35.72 54.12,-35.94 53.71,-36.61 53.13,-37.7 52.38,-39.22 51.42,-41.22 50.25,-43.77 48.85,-46.91 47.2,-50.66 45.26,-55.01" fill="none" stroke="rgb(134, 133, 19)" stroke-width="2" stroke-linejoin="round" filter="url(#fuzzy)" /><polyline points="48.85,-49.91 49.43,-48.47 49.52,-47.66 49.18,-47.35 48.4,-47.44 47.16,-47.95 45.42,-48.88 43.16,-50.27 40.38,-52.1 37.07,-54.4 33.21,-57.17 28.77,-60.47 23.7,-64.32 17.96,-68.75 11.48,-73.8 4.14,-79.53" fill="none" stroke="rgb(134, 133, 19)" stroke-width="2" stroke-linejoin="round" filter="url(#fuzzy)" /><polyline points="52.43,-41.56 53.13,-39.62 53.47,-38.34 53.48,-37.53 53.24,-36.99 52.73,-36.69 51.95,-36.67 50.89,-36.97 49.55,-37.57 47.93,-38.44 46.03,-39.59 43.85,-41.02 41.36,-42.74 38.54,-44.76 35.38,-47.09 31.86,-49.72 27.97,-52.69 23.69,-56.01 19.05,-59.7 14.08,-63.81 8.8,-68.39 3.19,-73.5 -2.74,-79.13" fill="none" stroke="rgb(134, 133, 19)" stroke-width="2" stroke-linejoin="round" filter="url(#fuzzy)" /><polyline points="30.94,-73.86 31.38,-73.44 32.11,-72.74 32.74,-72.1 33.12,-71.67 33.23,-71.45 33.14,-71.36 32.86,-71.35 32.41,-71.43 31.72,-71.64 30.76,-72.04 29.46,-72.68 27.81,-73.58 25.8,-74.74 23.41,-76.17 20.57,-77.87 17.23,-79.88 13.31,-82.33" fill="none" stroke="rgb(134, 133, 19)" stroke-width="2" stroke-linejoin="round" filter="url(#fuzzy)" /><polyline points="2.15,-86.23 3.5,-86.11 4.57,-86.01 5.49,-85.89 6.32,-85.74 7.06,-85.57 7.64,-85.4 8.01,-85.26 8.11,-85.14 7.92,-85.07 7.38,-85.03 6.48,-85.02 5.2,-85.04 3.52,-85.09 1.39,-85.14 -1.23,-85.22 -4.16,-85.36" fill="none" stroke="rgb(134, 133, 19)" stroke-width="2" stroke-linejoin="round" filter="url(#fuzzy)" /><polyline points="50.49,-46.16 50.6,-45.92 50.59,-45.34 50.2,-45.01 49.38,-45.07 48.11,-45.49 46.41,-46.28 44.28,-47.42 41.67,-48.95 38.55,-50.91 34.87,-53.33 30.59,-56.24 25.68,-59.68 20.1,-63.69 13.88,-68.3 7.12,-73.49 -0.02,-79.23" fill="none" stroke="rgb(134, 133, 19)" stroke-width="2" stroke-linejoin="round" filter="url(#fuzzy)" /><polyline points="30.94,-73.86 31.45,-73.36 32.38,-72.46 33.34,-71.48 34.22,-70.58 35.01,-69.73 35.79,-68.86 36.59,-67.94 37.42,-66.96 38.26,-65.98 39.07,-65.02 39.8,-64.15 40.45,-63.38 40.99,-62.72 41.41,-62.21 41.7,-61.85 41.84,-61.67 41.81,-61.7 41.59,-61.95 41.17,-62.45 40.55,-63.19 39.72,-64.21 38.59,-65.58 37.07,-67.44" fill="none" stroke="rgb(134, 133, 19)" stroke-width="2" stroke-linejoin="round" filter="url(#fuzzy)" /><polyline points="12.48,-84.34 12.7,-84.31 13.28,-84.11 14.08,-83.81 15.01,-83.46 15.98,-83.08 16.94,-82.69 17.84,-82.31 18.64,-81.96 19.35,-81.63 19.95,-81.34 20.42,-81.08 20.74,-80.89 20.86,-80.78 20.75,-80.77 20.38,-80.88 19.75,-81.11 18.9,-81.43 17.85,-81.84 16.61,-82.34 15.12,-82.96 13.18,-83.73" fill="none" stroke="rgb(134, 133, 19)" stroke-width="2" stroke-linejoin="round" filter="url(#fuzzy)" /><polyline points="10.26,-84.74 11.75,-84.46 12.76,-84.17 13.75,-83.81 14.84,-83.35 16.03,-82.85 17.23,-82.33 18.39,-81.83 19.44,-81.37 20.36,-80.96 21.13,-80.61 21.68,-80.35 21.92,-80.26 21.77,-80.38 21.28,-80.66" fill="none" stroke="rgb(134, 133, 19)" stroke-width="2" stroke-linejoin="round" filter="url(#fuzzy)" /><polyline points="44.48,-58.06 44.67,-57.57 44.98,-56.98 45.29,-56.34 45.51,-55.76 45.61,-55.28 45.57,-54.92 45.37,-54.71 45.01,-54.67 44.45,-54.83 43.66,-55.23 42.62,-55.89 41.33,-56.83 39.77,-58.08 37.92,-59.63 35.77,-61.51 33.29,-63.74 30.48,-66.3 27.36,-69.21 23.93,-72.47 20.24,-76.1 16.36,-80.1" fill="none" stroke="rgb(134, 133, 19)" stroke-width="2" stroke-linejoin="round" filter="url(#fuzzy)" /><polyline points="-0.94,-86.25 -0.13,-86.17 0.59,-86.16 1.14,-86.08 1.58,-85.92 1.91,-85.68 2.09,-85.36 2.08,-84.97 1.84,-84.49 1.35,-83.91 0.56,-83.23 -0.56,-82.45 -2.05,-81.57 -3.91,-80.6 -6.14,-79.54 -8.73,-78.39 -11.7,-77.12 -15.05,-75.72 -18.79,-74.16 -22.96,-72.45 -27.58,-70.57 -32.79,-68.41" fill="none" stroke="rgb(134, 133, 19)" stroke-width="2" stroke-linejoin="round" filter="url(#fuzzy)" /><polyline points="52.43,-41.56 53.2,-39.56 53.74,-38.13 54.11,-37.05 54.36,-36.16 54.51,-35.44 54.53,-34.93 54.42,-34.68 54.18,-34.7 53.82,-34.95 53.33,-35.45 52.72,-36.21 51.95,-37.26 51.02,-38.61 49.92,-40.29 48.64,-42.29 47.19,-44.62 45.57,-47.31 43.77,-50.38 41.74,-53.9 39.42,-57.99 36.74,-62.78 33.79,-68.21" fill="none" stroke="rgb(134, 133, 19)" stroke-width="2" stroke-linejoin="round" filter="url(#fuzzy)" /><polyline points="37.89,-66.96 38.46,-65.83 38.47,-65.01 37.94,-64.3 36.84,-63.64 35.18,-63 32.94,-62.42 30.04,-61.96 26.43,-61.65 22.08,-61.49 16.99,-61.45 11.16,-61.51 4.57,-61.66 -2.79,-61.89 -10.95,-62.21 -19.95,-62.56 -29.95,-62.76" fill="none" stroke="rgb(134, 133, 19)" stroke-width="2" stroke-linejoin="round" filter="url(#fuzzy)" /><polyline points="-32.81,-72.06 -30.82,-73.82 -29.01,-74.97 -27.3,-75.75 -25.61,-76.28 -23.82,-76.7 -21.83,-77.1 -19.59,-77.53 -17.11,-78.01 -14.44,-78.5 -11.6,-78.99 -8.66,-79.45 -5.64,-79.89 -2.61,-80.32 0.39,-80.76 3.33,-81.19 6.19,-81.6 8.99,-81.98 11.74,-82.3 14.29,-82.64" fill="none" stroke="rgb(134, 133, 19)" stroke-width="2" stroke-linejoin="round" filter="url(#fuzzy)" /><polyline points="-10.86,-84.92 -9.35,-85.1 -8.26,-85.17 -7.11,-85.13 -5.79,-84.99 -4.27,-84.8 -2.53,-84.57 -0.61,-84.31 1.41,-84.03 3.47,-83.72 5.52,-83.39 7.52,-83.07 9.46,-82.74 11.31,-82.43 13.11,-82.12 14.87,-81.79 16.59,-81.44 18.18,-81.11 19.47,-80.9 20.39,-80.83" fill="none" stroke="rgb(134, 133, 19)" stroke-width="2" stroke-linejoin="round" filter="url(#fuzzy)" /><polyline points="28.15,-75.88 28.75,-75.61 29.43,-75.14 30.19,-74.49 30.93,-73.81 31.58,-73.17 32.06,-72.67 32.33,-72.34 32.36,-72.2 32.16,-72.2 31.77,-72.32 31.18,-72.56 30.39,-72.93 29.34,-73.48 27.99,-74.25 26.29,-75.27 24.23,-76.56 21.78,-78.11 18.99,-79.93 15.89,-82.01" fill="none" stroke="rgb(134, 133, 19)" stroke-width="2" stroke-linejoin="round" filter="url(#fuzzy)" /><polyline points="-0.94,-86.25 -0.05,-86.18 0.92,-86.18 1.88,-86.16 2.9,-86.09 3.97,-85.98 5.05,-85.85 6.09,-85.71 7.08,-85.54 7.96,-85.37 8.71,-85.22 9.28,-85.09 9.64,-85 9.77,-84.96 9.65,-84.96 9.27,-85.01 8.64,-85.08 7.75,-85.17 6.62,-85.3 5.24,-85.45 3.57,-85.63 1.51,-85.85" fill="none" stroke="rgb(134, 133, 19)" stroke-width="2" stroke-linejoin="round" filter="url(#fuzzy)" /><polyline points="25.34,-78.11 26.45,-77.24 27.66,-76.33 28.75,-75.53 29.75,-74.77 30.71,-73.98 31.6,-73.2 32.38,-72.5 32.95,-71.96 33.24,-71.7 33.17,-71.76 32.75,-72.15 32,-72.81 30.99,-73.67 29.76,-74.65" fill="none" stroke="rgb(134, 133, 19)" stroke-width="2" stroke-linejoin="round" filter="url(#fuzzy)" /><polyline points="26.21,-77.41 27.63,-76.37 28.54,-75.76 29.3,-75.19 30.01,-74.59 30.65,-73.97 31.17,-73.42 31.53,-72.99 31.67,-72.7 31.6,-72.55 31.33,-72.53 30.88,-72.6 30.27,-72.75 29.47,-73 28.45,-73.37 27.19,-73.91 25.63,-74.64 23.76,-75.57 21.54,-76.71 18.95,-78.07 15.97,-79.67 12.59,-81.53 8.9,-83.66" fill="none" stroke="rgb(134, 133, 19)" stroke-width="2" stroke-linejoin="round" filter="url(#fuzzy)" /><polyline points="-13.45,-83.94 -12.09,-84.26 -10.28,-84.27 -8.32,-83.97 -6.27,-83.39 -4.09,-82.57 -1.71,-81.55 0.93,-80.35 3.85,-79 7.03,-77.53 10.41,-75.95 13.95,-74.26 17.59,-72.49 21.3,-70.65 25.06,-68.74 28.84,-66.78 32.64,-64.77 36.46,-62.69 40.38,-60.47" fill="none" stroke="rgb(134, 133, 19)" stroke-width="2" stroke-linejoin="round" filter="url(#fuzzy)" /><polyline points="23.76,-79.02 24.17,-78.89 24.4,-78.73 24.73,-78.48 25.16,-78.12 25.62,-77.72 26,-77.35 26.22,-77.07 26.21,-76.88 25.96,-76.8 25.43,-76.83 24.58,-77.01 23.36,-77.38 21.72,-77.99 19.63,-78.85 17.09,-79.94 14.14,-81.23 10.78,-82.66 6.88,-84.27" fill="none" stroke="rgb(134, 133, 19)" stroke-width="2" stroke-linejoin="round" filter="url(#fuzzy)" /><polyline points="-9.05,-85.4 -7.98,-85.5 -7.07,-85.54 -6.05,-85.55 -4.78,-85.56 -3.32,-85.56 -1.76,-85.53 -0.2,-85.48 1.33,-85.42 2.78,-85.35 4.14,-85.29 5.39,-85.24 6.51,-85.19 7.53,-85.13 8.41,-85.07 9.12,-85.01 9.58,-84.96 9.69,-84.96 9.44,-85.05" fill="none" stroke="rgb(134, 133, 19)" stroke-width="2" stroke-linejoin="round" filter="url(#fuzzy)" /><polyline points="-41.3,-62.44 1.2,-68.13 18.52,-61.88 17.79,-58.95 10.85,-60.52 6.05,-63.67 6.54,-66.23 11.47,-67.66 18.03,-68.41 23.34,-69.15 25.79,-70.24 25.35,-71.51 23.28,-72.37 21.23,-72.23 20.17,-70.96 19.55,-69.26 17.47,-68.31 12.23,-68.94 4.55,-70.9 -1.3,-73.24 -0.39,-75.65 3.9,-78.6 -14.34,-83.79" fill="none" stroke="rgb(134, 133, 19)" stroke-width="2" stroke-linejoin="round" filter="url(#fuzzy)" /><polyline points="-40.45,-63.9 2.25,-70.88 24.58,-67.84 35.21,-64.04 39.58,-61.61 40.46,-60.81 39.04,-61.45 35.87,-63.24 31.62,-65.64 27.21,-67.91 23.64,-69.33 21.52,-69.5 20.7,-68.49 20.44,-66.7 19.87,-64.59 18.61,-62.43 17.17,-60.41 16.68,-58.82 18.27,-58.22 22.23,-59.03 27.62,-60.89 32.42,-62.57 33.64,-63.8 25.38,-69.05 -4.08,-86.02" fill="none" stroke="rgb(134, 133, 19)" stroke-width="2" stroke-linejoin="round" filter="url(#fuzzy)" /><polyline points="57.1,-25.82 38.6,-56.88 28.66,-68.79 18.39,-75.55 8.6,-79.66 0.35,-81.4 -6.14,-80.98 -10.59,-78.88 -12.52,-75.78 -11.82,-72.54 -9.3,-70.09 -6.47,-69.24 -4.71,-70.35 -4.56,-73.12 -5.59,-76.5 -6.99,-79.15 -8.31,-79.94 -9.56,-78.14 -8.97,-72.98 3.58,-62.16 54.28,-36.82" fill="none" stroke="rgb(134, 133, 19)" stroke-width="2" stroke-linejoin="round" filter="url(#fuzzy)" /><polyline points="18.4,-82.3 13.87,-82.27 15.09,-81.08 16.75,-79.54 19.19,-76.58 21.36,-72.77 21.99,-69.24 20.9,-66.47 19.01,-64.35 17.58,-62.76 17.51,-61.85 18.89,-61.81 21.06,-62.55 22.93,-63.67 23.64,-64.82 23.17,-66.08 22.42,-67.53 21.81,-68.31 15.89,-68.36 -21.13,-80.69" fill="none" stroke="rgb(134, 133, 19)" stroke-width="2" stroke-linejoin="round" filter="url(#fuzzy)" /><polyline points="54.2,-36.99 27.78,-57.43 24.07,-62.01 17.29,-65.88 6.74,-68.44 -2.42,-69.31 -6.24,-68.97 -4.32,-67.82 1.02,-66 6.87,-63.81 11.39,-61.7 14,-60.1 14.8,-59.15 13.97,-58.7 11.78,-58.63 8.87,-59.04 6.26,-60.24 4.79,-62.63 4.2,-66.27 3.11,-70.61 0.58,-74.3 -1.6,-75.65 0.96,-74.14 7.89,-73.1 -8.59,-85.16" fill="none" stroke="rgb(134, 133, 19)" stroke-width="2" stroke-linejoin="round" filter="url(#fuzzy)" /><polyline points="20.23,-81.2 17.43,-72.02 8.57,-72.36 6.25,-74.06 4.33,-75.07 0.59,-75.24 -3.12,-74.77 -5.34,-74.06 -6.38,-73.52 -6.55,-73.41 -4.57,-73.62 1.7,-73.57 12.75,-72.15 26.14,-68.03 38.03,-60.84 45.34,-53.97 43.29,-60.02" fill="none" stroke="rgb(134, 133, 19)" stroke-width="2" stroke-linejoin="round" filter="url(#fuzzy)" /><polyline points="50.49,-46.16 41.41,-57.23 30.38,-62.39 20.04,-66.12 16.62,-66.98 18.87,-66.05 21.49,-65.63 20.35,-66.89 14.63,-69.37 6.13,-71.84 -2.59,-73.24 -9.44,-73.03 -13.25,-70.96 -13.48,-67.09 -10.2,-62.32 -4.28,-58.84 4.19,-58.9 20.67,-60.1 50.49,-46.16" fill="none" stroke="rgb(134, 133, 19)" stroke-width="2" stroke-linejoin="round" filter="url(#fuzzy)" /><polyline points="-15.88,-83.06 -19.51,-77.74 -11.08,-74.35 -0.91,-73.36 6.77,-72.86 10.84,-71.73 10.41,-70.57 5.99,-70.54 0.19,-72.1 -3.66,-74.64 -3.76,-76.87 -0.74,-77.69 3.17,-76.96 5.96,-75.81 6.6,-76.39 4.02,-80.7 4.9,-85.99" fill="none" stroke="rgb(134, 133, 19)" stroke-width="2" stroke-linejoin="round" filter="url(#fuzzy)" /><polyline points="-35.35,-69.76 -31.94,-70.55 -19.08,-71.47 -2.69,-69.68 9.82,-68.26 14.59,-68.82 12.46,-70.54 6.89,-72 1.22,-72.39 -2.83,-71.78 -5,-70.63 -5.5,-69.38 -4.09,-68.14 -0.31,-66.67 5.64,-64.65 12.19,-62.12 16.87,-59.88 17.95,-59.36 15.79,-61.74 12.54,-66.85 10.28,-72.74 9.79,-77.04 11.52,-79.65 5.66,-85.85" fill="none" stroke="rgb(134, 133, 19)" stroke-width="2" stroke-linejoin="round" filter="url(#fuzzy)" /><polyline points="21.64,-80.45 37.71,-55.46 31.8,-59.01 24.69,-65.58 22.93,-68.5 24.23,-69.11 25.01,-69.65 23.44,-70.87 19.45,-72.39 14.04,-73.66 8.66,-74.59 4.69,-75.47 2.75,-76.48 2.65,-77.27 4.01,-77.03 6.94,-74.95 11.63,-70.9 16.54,-65.8 15.9,-63.44 -14.81,-83.36" fill="none" stroke="rgb(134, 133, 19)" stroke-width="2" stroke-linejoin="round" filter="url(#fuzzy)" /><polyline points="-21.13,-80.69 -20.02,-78.58 -11.83,-77.22 -6.55,-76.89 -5.05,-77.63 -4.41,-78.69 -2.42,-79.24 1.23,-78.66 5.54,-76.6 9.24,-73.1 11.61,-68.64 12.71,-64.15 13.13,-60.78 13.58,-59.45 14.48,-60.28 15.72,-62.3 16.77,-63.77 16.84,-63.09 15.45,-59.91 13.12,-55.64 11.9,-52.36 16.87,-49.19 55.97,-30.77" fill="none" stroke="rgb(134, 133, 19)" stroke-width="2" stroke-linejoin="round" filter="url(#fuzzy)" /><polyline points="-35.35,-69.76 5.72,-63.43 11.23,-63.2 8.22,-62.36 6.04,-60.75 7.18,-59.02 9.81,-58.46 11.45,-60.07 11.07,-63.77 9.04,-68.45 6.27,-72.62 3.62,-75.15 1.79,-75.57 1.33,-74.16 2.6,-71.69 5.67,-69.02 10.26,-66.69 15.74,-64.74 21.06,-62.99 24.49,-61.72 23.47,-62.02 15.67,-64.91 2.95,-69.63 -1.7,-73.05 31.13,-73.59" fill="none" stroke="rgb(134, 133, 19)" stroke-width="2" stroke-linejoin="round" filter="url(#fuzzy)" /><polyline points="-26.98,-77.04 11.94,-66.74 16.25,-72.81 13.09,-78.19 9.25,-79.54 6.71,-77.35 5.67,-73.59 5.12,-70.5 3.93,-69.31 1.75,-69.49 -0.72,-69.16 -2.02,-66.64 -1.01,-62.43 1.29,-60.81 2.1,-68.16 18.4,-82.3" fill="none" stroke="rgb(134, 133, 19)" stroke-width="2" stroke-linejoin="round" filter="url(#fuzzy)" /><polyline points="4.9,-85.99 -5.1,-78.17 8.05,-74.09 21.23,-69.55 29.17,-65.83 31.88,-63.63 29.76,-63.14 22.98,-64.51 12.67,-67.51 1.29,-71.23 -8.36,-74.47 -14.45,-76.52 -16.45,-77.55 -14.69,-78.5 -10.24,-80.2 -5.73,-82.3 -5.97,-83.02 -21.13,-80.69" fill="none" stroke="rgb(134, 133, 19)" stroke-width="2" stroke-linejoin="round" filter="url(#fuzzy)" /><polyline points="-38.96,-65.57 13.03,-53.87 17.45,-55.05 6.78,-63 -2.48,-70.26 -5.57,-73.97 -2.71,-74.32 3.93,-72.86 11.48,-71.29 17.49,-70.79 20.82,-71.63 21.66,-73.25 21.09,-74.68 20.29,-75.05 20.04,-73.99 20.54,-71.76 21.29,-69.14 21.02,-67.04 18.05,-65.86 11.82,-65.06 5.22,-63.78 1.23,-64.28 -27.35,-76.83" fill="none" stroke="rgb(134, 133, 19)" stroke-width="2" stroke-linejoin="round" filter="url(#fuzzy)" /><polyline points="28.15,-75.88 27.08,-71.47 17.68,-75.94 12.31,-78.71 9.78,-78.69 8.76,-76.66 9.28,-73.69 11.31,-70.9 14.1,-69.19 16.33,-68.92 16.49,-69.85 13.46,-71.34 7.46,-72.67 0.81,-73.4 -2.51,-73.49 0.09,-73.24 4.32,-72.97 -4.38,-72.08 -41.34,-62.71" fill="none" stroke="rgb(134, 133, 19)" stroke-width="2" stroke-linejoin="round" filter="url(#fuzzy)" /><polyline points="-36.32,-68.7 -17.03,-76.35 0.02,-76.34 11.71,-73.19 17.77,-71.72 19.26,-72.7 18.17,-74.21 16.02,-74.49 13.6,-73.23 11.5,-71.18 10.38,-69.28 10.48,-68.07 11.04,-67.81 10.85,-68.78 9.62,-71.14 8.41,-74.53 7.54,-78.03 3.92,-80.67 -7.51,-81.1 -29.32,-75.27" fill="none" stroke="rgb(134, 133, 19)" stroke-width="2" stroke-linejoin="round" filter="url(#fuzzy)" /><polyline points="24.68,-78.58 21.16,-76.82 24.34,-74.09 24.19,-74.89 21.98,-76.49 19.01,-77.37 15.84,-77.49 12.75,-77.1 9.93,-76.12 7.23,-74.27 4.17,-71.52 0.08,-68.51 -5.5,-66.45 -12.11,-66.37 -17.86,-68.21 -19.64,-70.6 -14.09,-71.64 0.57,-70.3 20.36,-68.71 21.64,-80.45" fill="none" stroke="rgb(134, 133, 19)" stroke-width="2" stroke-linejoin="round" filter="url(#fuzzy)" /><polyline points="-16.54,-82.99 19.22,-63.79 17.75,-61.98 9.37,-67.13 4.79,-72.93 2.3,-76.62 -1.65,-77.82 -7.77,-77.13 -14.05,-75.41 -17.91,-73.48 -17.87,-71.9 -13.89,-70.8 -6.49,-69.9 3.74,-69.09 14.54,-69.29 21.49,-71.99 35.3,-69.84" fill="none" stroke="rgb(134, 133, 19)" stroke-width="2" stroke-linejoin="round" filter="url(#fuzzy)" /><polyline points="57.1,-25.82 46.13,-41.47 29.08,-53.09 18.6,-61.04 16.4,-66.29 19.16,-68.94 23.62,-69.54 27.65,-69.22 30.05,-68.94 30.11,-69.04 27.28,-69.5 21.12,-70.26 12.03,-71.39 1.9,-72.88 -5.96,-74.57 -8.67,-76.22 -6.28,-77.39 -1.86,-76.61 6.16,-70.81 44.74,-57.18" fill="none" stroke="rgb(134, 133, 19)" stroke-width="2" stroke-linejoin="round" filter="url(#fuzzy)" /><polyline points="-6.79,-85.77 -5.33,-85.65 -7.04,-85.38 -8.16,-85.12 -8.09,-84.54 -6.28,-83.36 -2.41,-81.56 2.67,-79.42 7,-77.27 8.93,-75.22 8.6,-73.15 8.29,-70.87 10.94,-68.38 17.82,-65.79 27.16,-63.02 34.97,-60.11 36.6,-58.94 25.71,-65.57 -8.59,-85.16" fill="none" stroke="rgb(134, 133, 19)" stroke-width="2" stroke-linejoin="round" filter="url(#fuzzy)" /><polyline points="41.36,-62.73 -7.45,-64.59 -12.77,-68.28 -2.28,-68.18 8.3,-66.26 11.81,-64.7 8.65,-64.4 4.05,-65.32 3.73,-66.69 9.86,-67.55 19.76,-67.49 27.87,-67.23 29.03,-68.11 20.09,-70.66 -1.85,-72.7 -39.7,-64.62" fill="none" stroke="rgb(134, 133, 19)" stroke-width="2" stroke-linejoin="round" filter="url(#fuzzy)" /><polyline points="-30.53,-74.43 3.8,-60.36 6.98,-63.45 10.43,-68.61 16.17,-71.16 21.49,-71.01 23.77,-69.69 22.11,-68.63 18.17,-68.19 15.14,-67.68 14.66,-66.32 14.1,-64.47 7.91,-64.2 -5.2,-68.14 -13.92,-76.81 -0.94,-86.25" fill="none" stroke="rgb(134, 133, 19)" stroke-width="2" stroke-linejoin="round" filter="url(#fuzzy)" /><polyline points="52.43,-41.56 15.67,-69.02 2.29,-75.68 1.11,-74.39 4.2,-71.25 7.22,-68.81 9.39,-67.59 11.49,-66.92 13.72,-65.94 14.96,-64.39 13.72,-62.79 9.66,-61.86 4.3,-62.04 0.14,-63.24 -0.91,-65.17 1.38,-67.52 5.81,-69.99 10.67,-72.09 14.22,-73.43 14.44,-74.42 10.62,-76.23 9.7,-77.47 34.28,-70.46" fill="none" stroke="rgb(134, 133, 19)" stroke-width="2" stroke-linejoin="round" filter="url(#fuzzy)" /><polyline points="-29.32,-75.27 15.71,-66.42 27.04,-64.59 22.54,-66.59 14.4,-68.61 9.63,-68.64 10.24,-66.89 14.64,-64.63 19.76,-63.16 22.89,-63.16 22.68,-64.68 19.25,-67.34 13.92,-70.52 8.76,-73.56 5.87,-75.73 6.43,-76.58 9.79,-76.19 13.64,-75.34 15.86,-74.77 17.38,-74.12 20.54,-73.49 10.26,-84.74" fill="none" stroke="rgb(134, 133, 19)" stroke-width="2" stroke-linejoin="round" filter="url(#fuzzy)" /><polyline points="18.16,-82.31 32.33,-68.93 32.94,-66.77 25.34,-70.19 15.27,-72.8 6.82,-72.27 1.73,-69.61 -0.41,-67.23 -0.71,-66.96 0.32,-68.89 2.93,-71.39 6.8,-72.44 8.99,-71.27 3.62,-69.46 -10.14,-71.19 -3.95,-86.2" fill="none" stroke="rgb(134, 133, 19)" stroke-width="2" stroke-linejoin="round" filter="url(#fuzzy)" /><polyline points="55.97,-30.77 32.97,-60.89 22.59,-67.87 17.13,-68.35 15.53,-68.61 17.76,-68.92 22.23,-68.57 26.66,-67.73 29.27,-67.23 29.25,-67.86 26.89,-69.71 23.59,-72.02 21.3,-73.42 21.67,-72.72 24.99,-69.7 29.66,-65.69 32.47,-63.58 29.85,-66.97 21.22,-76.56 18.16,-82.31" fill="none" stroke="rgb(134, 133, 19)" stroke-width="2" stroke-linejoin="round" filter="url(#fuzzy)" /><polyline points="40.19,-64.01 8.52,-62.49 8.98,-64.16 7.46,-67.42 4.73,-70.02 4.66,-70.99 7.52,-70.68 11.43,-70.29 14.34,-70.94 14.97,-72.97 13.17,-75.72 10.24,-77.77 8.74,-77.55 10.37,-74.5 11.51,-70.28 -0.91,-67.63 -43.95,-58.44" fill="none" stroke="rgb(134, 133, 19)" stroke-width="2" stroke-linejoin="round" filter="url(#fuzzy)" /><polyline points="3.74,-86.07 -4.29,-64.39 13.94,-58.65 27.03,-58.98 30.81,-61.5 27.03,-64.85 18.89,-67.88 9.79,-69.82 2.39,-70.59 -1.89,-70.57 -2.86,-70.14 -1.43,-69.57 0.75,-69.15 1.8,-69.36 0.91,-70.51 -0.15,-72.32 2.73,-73.98 12.23,-74.79 24.65,-73.98 38.38,-66.07" fill="none" stroke="rgb(134, 133, 19)" stroke-width="2" stroke-linejoin="round" filter="url(#fuzzy)" /><polyline points="-42.17,-61.05 -8.12,-70.44 3.71,-71.06 1.71,-70.6 -0.37,-68.6 1.93,-66.32 5.99,-65.78 8.27,-67.71 7.48,-71.07 4.38,-74.03 0.35,-75.26 -3.26,-74.71 -5.66,-73.53 -7.54,-73.02 -11.68,-73.02 -21.22,-70.71 -35.86,-62.68 -47.31,-53.07" fill="none" stroke="rgb(134, 133, 19)" stroke-width="2" stroke-linejoin="round" filter="url(#fuzzy)" /><polyline points="55.74,-32.57 6.23,-55.69 1.77,-64.34 1.67,-67.28 -2.25,-68.5 -6.03,-68.88 -6.32,-68.93 -3.62,-69.11 -0.35,-69.56 1.58,-70 1.87,-70.09 1.34,-69.77 1.14,-69.32 2.09,-69.19 4.43,-69.66 7.62,-70.77 10.36,-72.29 11.25,-73.88 9.9,-75.19 7.97,-75.74 8.77,-74.7 13.95,-71.28 15.08,-68.09 -18.78,-81.69" fill="none" stroke="rgb(134, 133, 19)" stroke-width="2" stroke-linejoin="round" filter="url(#fuzzy)" />
    </g>
    
        <g id="pointNose">
          <g id="rightNose"><circle r="1.334" cx="8.876000000000001" cy="15.190000000000001" stroke="black" fill="none" stroke-width="1.0" filter="url(#fuzzy)" /><circle r="2.088" cx="8.68" cy="15.225999999999999" stroke="black" fill="none" stroke-width="1.0" filter="url(#fuzzy)" /><circle r="2.372" cx="10.636000000000001" cy="14.830000000000002" stroke="black" fill="none" stroke-width="1.0" filter="url(#fuzzy)" /><circle r="1.144" cx="7.540000000000001" cy="16.146" stroke="black" fill="none" stroke-width="1.0" filter="url(#fuzzy)" /><circle r="1.342" cx="7.5600000000000005" cy="12.806000000000001" stroke="black" fill="none" stroke-width="1.0" filter="url(#fuzzy)" /><circle r="2.574" cx="10.844000000000001" cy="15.478000000000002" stroke="black" fill="none" stroke-width="1.0" filter="url(#fuzzy)" /><circle r="1.708" cx="8.836" cy="15.018" stroke="black" fill="none" stroke-width="1.0" filter="url(#fuzzy)" /><circle r="1.596" cx="9.324" cy="13.666" stroke="black" fill="none" stroke-width="1.0" filter="url(#fuzzy)" /><circle r="1.5659999999999998" cx="7.664" cy="15.661999999999999" stroke="black" fill="none" stroke-width="1.0" filter="url(#fuzzy)" /><circle r="1.568" cx="7.436" cy="15.258" stroke="black" fill="none" stroke-width="1.0" filter="url(#fuzzy)" /></g>
          <g id="leftNose"><circle r="1.202" cx="-10.552000000000001" cy="18.258000000000003" stroke="black" fill="none" stroke-width="1.0" filter="url(#fuzzy)" /><circle r="1.444" cx="-6.916" cy="16.23" stroke="black" fill="none" stroke-width="1.0" filter="url(#fuzzy)" /><circle r="2.3120000000000003" cx="-6.768000000000001" cy="15.066000000000003" stroke="black" fill="none" stroke-width="1.0" filter="url(#fuzzy)" /><circle r="1.658" cx="-10.508000000000001" cy="17.386000000000003" stroke="black" fill="none" stroke-width="1.0" filter="url(#fuzzy)" /><circle r="1.1179999999999999" cx="-8.756" cy="15.578000000000003" stroke="black" fill="none" stroke-width="1.0" filter="url(#fuzzy)" /><circle r="1.666" cx="-9.596" cy="17.222" stroke="black" fill="none" stroke-width="1.0" filter="url(#fuzzy)" /><circle r="1.984" cx="-8.712" cy="17.798000000000002" stroke="black" fill="none" stroke-width="1.0" filter="url(#fuzzy)" /><circle r="1.87" cx="-8.804" cy="14.930000000000003" stroke="black" fill="none" stroke-width="1.0" filter="url(#fuzzy)" /><circle r="1.3980000000000001" cx="-9.248000000000001" cy="17.514000000000003" stroke="black" fill="none" stroke-width="1.0" filter="url(#fuzzy)" /><circle r="2.87" cx="-7.340000000000001" cy="14.806000000000001" stroke="black" fill="none" stroke-width="1.0" filter="url(#fuzzy)" /></g>
        </g>
      
    <g id="mouth">
      <polyline points="-34.94,48.17 -34.69,47.88 -34.41,47.6 -34.12,47.31 -33.81,47.03 -33.49,46.74 -33.15,46.46 -32.79,46.18 -32.42,45.91 -32.04,45.63 -31.63,45.36 -31.22,45.09 -30.79,44.82 -30.34,44.55 -29.88,44.29 -29.41,44.03 -28.93,43.78 -28.43,43.53 -27.92,43.28 -27.39,43.04 -26.85,42.8 -26.31,42.56 -25.75,42.33 -25.17,42.1 -24.59,41.88 -24,41.67 -23.39,41.46 -22.78,41.25 -22.15,41.05 -21.52,40.86 -20.88,40.67 -20.22,40.49 -19.56,40.31 -18.89,40.14 -18.21,39.98 -17.52,39.82 -16.83,39.67 -16.13,39.53 -15.42,39.4 -14.7,39.27 -13.97,39.15 -13.24,39.04 -12.51,38.94 -11.76,38.84 -11.02,38.75 -10.26,38.68 -9.5,38.61 -8.74,38.55 -7.97,38.5 -7.2,38.46 -6.42,38.42 -5.64,38.4 -4.86,38.39 -4.07,38.39 -3.28,38.39 -2.49,38.41 -1.69,38.44 -0.9,38.48 -0.1,38.53 0.7,38.6 1.51,38.67 2.31,38.75 3.11,38.85 3.92,38.96 4.72,39.08 5.53,39.21 6.33,39.36 7.13,39.51 7.94,39.69 8.74,39.87 9.54,40.07 10.33,40.28 11.13,40.5 11.92,40.74 12.72,40.99 13.5,41.25 14.29,41.53 15.07,41.82 15.85,42.13 16.62,42.46 17.4,42.79 18.16,43.15 18.92,43.51 19.68,43.9 20.43,44.3 21.17,44.71 21.91,45.14 22.65,45.59 23.37,46.06 24.1,46.54 24.81,47.03 25.51,47.55 26.21,48.08 26.9,48.63 27.59,49.19 28.26,49.78 28.93,50.38 29.59,51 30.23,51.63 30.87,52.29 31.5,52.96 30.87,52.29 30.23,51.63 29.59,51 28.93,50.38 28.26,49.78 27.59,49.19 26.9,48.63 26.21,48.08 25.51,47.55 24.81,47.03 24.1,46.54 23.37,46.06 22.65,45.59 21.91,45.14 21.17,44.71 20.43,44.3 19.68,43.9 18.92,43.51 18.16,43.15 17.4,42.79 16.62,42.46 15.85,42.13 15.07,41.82 14.29,41.53 13.5,41.25 12.72,40.99 11.92,40.74 11.13,40.5 10.33,40.28 9.54,40.07 8.74,39.87 7.94,39.69 7.13,39.51 6.33,39.36 5.53,39.21 4.72,39.08 3.92,38.96 3.11,38.85 2.31,38.75 1.51,38.67 0.7,38.6 -0.1,38.53 -0.9,38.48 -1.69,38.44 -2.49,38.41 -3.28,38.39 -4.07,38.39 -4.86,38.39 -5.64,38.4 -6.42,38.42 -7.2,38.46 -7.97,38.5 -8.74,38.55 -9.5,38.61 -10.26,38.68 -11.02,38.75 -11.76,38.84 -12.51,38.94 -13.24,39.04 -13.97,39.15 -14.7,39.27 -15.42,39.4 -16.13,39.53 -16.83,39.67 -17.52,39.82 -18.21,39.98 -18.89,40.14 -19.56,40.31 -20.22,40.49 -20.88,40.67 -21.52,40.86 -22.15,41.05 -22.78,41.25 -23.39,41.46 -24,41.67 -24.59,41.88 -25.17,42.1 -25.75,42.33 -26.31,42.56 -26.85,42.8 -27.39,43.04 -27.92,43.28 -28.43,43.53 -28.93,43.78 -29.41,44.03 -29.88,44.29 -30.34,44.55 -30.79,44.82 -31.22,45.09 -31.63,45.36 -32.04,45.63 -32.42,45.91 -32.79,46.18 -33.15,46.46 -33.49,46.74 -33.81,47.03 -34.12,47.31 -34.41,47.6 -34.69,47.88" fill="rgb(203, 102, 204)" stroke="black" stroke-width="3" stroke-linejoin="round" filter="url(#fuzzy)" />
    </g>
  </svg>