<svg xmlns="http://www.w3.org/2000/svg" width="500" height="500" viewBox="-100 -100 200 200"><defs><clipPath id="c"><path d="m22.24-1.22-.13-.08-.15-.07-.18-.06-.2-.07-.23-.06-.25-.06-.28-.06-.3-.05-.32-.05-.35-.06-.37-.04-.39-.05-.42-.05-.43-.04-.46-.04-.44-.05-.48-.04-.51-.05-.54-.04-.57-.04-.61-.03-.63-.04-.66-.03-.7-.03-.71-.02-.74-.03-.77-.02-.79-.01-.81-.02L8-2.52l-.84-.01-.86-.01-.87-.01H1.85l-.91.01H.03l-.91.02-.91.01-.91.01-.9.02-.89.02-.89.02-.87.02-.86.03-.85.02-.84.03-.82.03-.8.04-.79.03-.76.04-.75.03-.72.04-.71.04-.68.05-.66.04-.63.04-.61.05-.59.05-.56.05-.54.05-.51.05-.5.05-.46.06-.45.05-.42.06-.41.06-.37.06-.36.06-.33.06-.31.07-.29.06-.27.07-.24.07-.22.07-.2.07-.17.07-1.12.8.4.09.41.08.44.09.45.08.47.08.48.09.5.09.51.08.53.09.54.08.56.08.57.09.59.08.6.08.62.08.63.09.65.08.67.08.68.08.69.07.71.08.73.07.73.07.75.07.76.07.77.06.78.06.79.05.79.06.8.04.81.05.81.03.81.04.82.02.82.03.82.02.81.01h2.44l.8-.01.8-.02.79-.02.78-.03.77-.03.76-.04.76-.05.73-.05.73-.05.71-.06.7-.07.68-.07.67-.08.65-.08.63-.08.62-.09.59-.09.58-.1.56-.1.54-.1.52-.1.5-.11.47-.11.46-.11.44-.09.41-.09.41-.09.38-.09.37-.09.36-.1.34-.09.32-.09.3-.1.29-.09.27-.1.24-.09.23-.09.21-.09.2-.09"/></clipPath><clipPath id="b"><path d="m-20.24-1.72.16-.05.19-.06.21-.06.23-.05.24-.05.27-.05.28-.05.31-.04.32-.05.35-.04.36-.04.39-.04.4-.04.42-.04.44-.04.42-.04.44-.04.48-.04.51-.04.53-.03.57-.04.59-.03.63-.03.65-.03.67-.03.71-.03.72-.02.75-.03.77-.02.79-.02.81-.01.83-.02.84-.01.85-.02h.87l.88-.01.88-.01h3.6l.9.01.9.01.9.01.89.01.89.02.88.02.87.01.86.03.85.02.84.03.82.03.8.03.79.03.77.03.75.04.73.04.71.04.7.04.67.04.64.05.63.05.6.05.58.05.56.05.54.05.52.06.49.05.48.06.46.06.43.06.41.07.39.06.37.07.35.06.33.07.3.07.29.07.26.08-1 1.44-.46.11-.49.11-.51.11-.52.11-.54.11-.56.11-.58.1-.59.11-.61.11-.62.11-.64.11-.65.1-.67.1-.68.11-.7.1-.72.09-.73.1-.75.1-.76.09-.78.1-.79.08-.8.09-.82.08-.82.08-.83.07-.84.07-.85.06-.85.06-.86.05-.85.04-.86.04-.86.03-.86.03-.85.02-.85.01H-.56l-.83-.01-.82-.02-.81-.03-.8-.03-.79-.04-.77-.05-.75-.05-.74-.06-.73-.07-.7-.07-.69-.08-.67-.08-.65-.09-.63-.1-.6-.1-.59-.1-.56-.11-.54-.11-.52-.12-.49-.11-.48-.12-.45-.12-.43-.12-.4-.13-.38-.12-.36-.12-.34-.12-.35-.11-.33-.1-.31-.11-.3-.1-.29-.11-.27-.1-.25-.1-.24-.11-.22-.1-.21-.1-.19-.1-.18-.09-.16-.1-.14-.09-.14-.09"/></clipPath><filter id="a"><feTurbulence baseFrequency=".05" numOctaves="3" result="noise" type="noise"/><feDisplacementMap in="SourceGraphic" in2="noise" scale="2"/></filter></defs><rect width="100%" height="100%" x="-100" y="-100" fill="#E6E6FA"/><path fill="#D2691E" stroke="#000" stroke-linejoin="round" stroke-width="1.667" d="m64.51.7-.12 1.42-.01 2.02.22-.06-.09 2.24-.33 1.47.2-.88-.18 2.65-.1.19-.32 3.86-.01.72-.53 1.78-.04 1.56-.1-.3.1 2.22-.38 1.49.05.07-.94 2.49-.35 3.32-.16.12-.61 2.05-.23 1.74-.1-1.18-.68 3.43.6-1.73-.8 3.16.04-.09-1.17 3.46.21-.43-.75 2.49-.33.03-.1.25-.34.89-1.55 4.25-.32 1.08-.08-.4-.98 1.58.02.78-.35-.03-1.28 3.29-.02-.91-.38 1.13-1.1 2.31-.04.21-.63 1.13-.29.38-1.67 2.36-.98 1.84-.65.95-.85 1.2-.72.98-.48.78.13.4-1.17.71-1.62 1.9-.9.79-.02.42-1.72 2.16.6-.58-.98.91-.82.38-1.36 2.09-.69-.01-.12.39.1-.23-3.35 3.02-.73.21-.63.71-.86.4-1.47 1.55-.56-.12-.69 1.08-1.19.69.55-.78-2.47 1.82-.39-.27-1.1 1.13-1.64.82.12.01-.46-.03-.84.33-1.49.99-1.13.13.13.39-2 .21-2.08 1.08 1.34-.47-1.98.54-2.48.92-.2-.28-1.75.45.16-.07-2.08.21.22.4-2.52.05v-.24l-.38.5.17.02-3.25-.13h1.33l-3.2.27-.94-.27-1.48.01-1.16.02-.41-.37.27.48-.33-.47-3.45-.41-1.39-.24-.21.16-.78-.14-1.09-.14-1.07-.6-.48-.23-.42.14-2.27-1.12-.32-.17.49.5-2.34-1.16.16.46-1.63-.47-1.26-.75-1.68-1.12h-.06l-1.25-.47-1.73-1.07-.22-.22-1.05-.69-.66-.58-.51-.22-1.76-1.37-.8-.13-.02.15-1.07-1.09-2.28-1.86 1.07 1.07-1.1-.91-1.2-.9-1.3-1.71-1.36-1.34-.07-.35-1.87-1.34-.28-.19-.79-1.39-1.19-1.17-.68-.76.32.61-1.27-1.89.01.15-1.02-1.17-1.48-2.34.5 1.15-1.81-2.46-.59-1.16-.03-.07-.72-.95-.87-1.49-.97-1.52-.49-1.18.15-.3-1.79-3.06.24.56-1.39-2.53.42 1.06-.97-1.93-.2-1.06-1.7-3.68-.4-.65.39.03-1.12-2.2-.34-.84.36.6-.63-2.05-1.13-3.05-.4-1.68-.27-.33-.64-1.42.04-.68-.31-1.04-.26-1.56-.6-1.82L-62 25l.44.65-.46-1.52-.59-2.65-.04-1.5.02.18-.15-.26-.72-5.49-.12-.59-.04.69-.22-1.82-.11-1.47-.03-1.09-.28-1.51-.18-4.05-.08-.01.02.71.03.01.2-4.53-.16-1.61-.04.95-.03-4.23.14-.61.14-1.61.09-.61-.04-2.02.17 1.06-.07-1.66.19-3.74.43-2.14.35-1.63.28-1.49-.5.8.15-.55.45-2.64.24-.77.25-.33.21-2.55.3-.21.55-2.13.37-2.25.6-2.81-.06.86.03-.78.68-1.71.38-1.28.85-2.61.63-1.82-.14.11.13-.05.25-.5 1.32-3.86.05.15.46-1.52.66-.62.74-2.4.44-.71.84-1.96.62-1.2.96-1.63-.93 2.24 1.08-3-.1.75 1.79-3.15.52-.96.66-.44.7-1.21.98-1.71 1.58-2.45-.15.4.42-.72.94-.69-.05-.16.9-1.49.27-.32 1.61-1.65.87-.84 1.25-1.71.58-.48 1.46-.96.28-.92-.48.53.99-1.09 1.31-1.43.31-.14 2.02-1.52-.39.55 1.43-1.38.85-.57.67-.54 2.12-1.49 1.08-.72-.15.3 2.62-1.26.9-1.1.02.39.28-.57.97-.33 1.86-.63.9-.37.24-.42 1.19-.64 1.49-.17.88-.37 1.58-.56-.07.01 1.79-.56.31.08 1.15-.27 1.7-.38-.32-.05 2.22-.57.93-.08.77.18 1.02-.21.38-.21-.22-.11 2.44.25.68-.06.93-.19.35-.16 1.48.1 1.83.2 2.11.38-.97-.26 1.69.3-.14-.06 1.05-.16 1.89.33.34.11 2.73.86-1.3-.2 2.63.73-.31-.32 2.86.77 1.39.23-.02.43.56.01 1.75.7.28.32 1.12.17.74.77 1.41.36.32.28 1.02.81.21.54 1.86.33.78.51 1.23 1.03 1.44.74-.28-.26.79 1.12 1.31.83 2.35 1.63L32.21-77l1.82 1.78.46.13 1.83 2.15.26-.63 1.33 1.81 1.12.62.33.51 1.55 1.75.62.95-.33-.16 1.84 1.75 1.02 1.71-.61-.76 2.3 2.76-1.03-1.17 1.69 2.08 1.13 1.64.59.96 1.15 1.95.6.7-.71-.76 2.19 3.21.98 1.55-.73-1.01.73 1.44.99 1.11.65 2.42.4.03.02 1.11 1.44 2.52.08.6-.38-1.05.92 2.43.34 1.01.65.59.26 1.42 1.04 3.15.32.18.46 2.19.06.2.65 2.18-.21-.41.9 2.66.15.14.44 2.08.16.94.78 3.38-.16-.4.2 1.41.42 1.51.21 1.05-.09 1.57-.15-1.41.88 4.44.02.21.23 3.39-.04.92.18.65.12 2.77.11.09.04-.1.2 3.69.06.86-.12 2.05L64.51.7l-.12 1.42" filter="url(#a)"/><path fill="#fff" d="m-20.24-1.72.16-.05.19-.06.21-.06.23-.05.24-.05.27-.05.28-.05.31-.04.32-.05.35-.04.36-.04.39-.04.4-.04.42-.04.44-.04.42-.04.44-.04.48-.04.51-.04.53-.03.57-.04.59-.03.63-.03.65-.03.67-.03.71-.03.72-.02.75-.03.77-.02.79-.02.81-.01.83-.02.84-.01.85-.02h.87l.88-.01.88-.01h3.6l.9.01.9.01.9.01.89.01.89.02.88.02.87.01.86.03.85.02.84.03.82.03.8.03.79.03.77.03.75.04.73.04.71.04.7.04.67.04.64.05.63.05.6.05.58.05.56.05.54.05.52.06.49.05.48.06.46.06.43.06.41.07.39.06.37.07.35.06.33.07.3.07.29.07.26.08-1 1.44-.46.11-.49.11-.51.11-.52.11-.54.11-.56.11-.58.1-.59.11-.61.11-.62.11-.64.11-.65.1-.67.1-.68.11-.7.1-.72.09-.73.1-.75.1-.76.09-.78.1-.79.08-.8.09-.82.08-.82.08-.83.07-.84.07-.85.06-.85.06-.86.05-.85.04-.86.04-.86.03-.86.03-.85.02-.85.01H-.56l-.83-.01-.82-.02-.81-.03-.8-.03-.79-.04-.77-.05-.75-.05-.74-.06-.73-.07-.7-.07-.69-.08-.67-.08-.65-.09-.63-.1-.6-.1-.59-.1-.56-.11-.54-.11-.52-.12-.49-.11-.48-.12-.45-.12-.43-.12-.4-.13-.38-.12-.36-.12-.34-.12-.35-.11-.33-.1-.31-.11-.3-.1-.29-.11-.27-.1-.25-.1-.24-.11-.22-.1-.21-.1-.19-.1-.18-.09-.16-.1-.14-.09-.14-.09" filter="url(#a)" transform="translate(40.81 -28.47)"/><path fill="#fff" d="m22.24-1.22-.13-.08-.15-.07-.18-.06-.2-.07-.23-.06-.25-.06-.28-.06-.3-.05-.32-.05-.35-.06-.37-.04-.39-.05-.42-.05-.43-.04-.46-.04-.44-.05-.48-.04-.51-.05-.54-.04-.57-.04-.61-.03-.63-.04-.66-.03-.7-.03-.71-.02-.74-.03-.77-.02-.79-.01-.81-.02L8-2.52l-.84-.01-.86-.01-.87-.01H1.85l-.91.01H.03l-.91.02-.91.01-.91.01-.9.02-.89.02-.89.02-.87.02-.86.03-.85.02-.84.03-.82.03-.8.04-.79.03-.76.04-.75.03-.72.04-.71.04-.68.05-.66.04-.63.04-.61.05-.59.05-.56.05-.54.05-.51.05-.5.05-.46.06-.45.05-.42.06-.41.06-.37.06-.36.06-.33.06-.31.07-.29.06-.27.07-.24.07-.22.07-.2.07-.17.07-1.12.8.4.09.41.08.44.09.45.08.47.08.48.09.5.09.51.08.53.09.54.08.56.08.57.09.59.08.6.08.62.08.63.09.65.08.67.08.68.08.69.07.71.08.73.07.73.07.75.07.76.07.77.06.78.06.79.05.79.06.8.04.81.05.81.03.81.04.82.02.82.03.82.02.81.01h2.44l.8-.01.8-.02.79-.02.78-.03.77-.03.76-.04.76-.05.73-.05.73-.05.71-.06.7-.07.68-.07.67-.08.65-.08.63-.08.62-.09.59-.09.58-.1.56-.1.54-.1.52-.1.5-.11.47-.11.46-.11.44-.09.41-.09.41-.09.38-.09.37-.09.36-.1.34-.09.32-.09.3-.1.29-.09.27-.1.24-.09.23-.09.21-.09.2-.09" filter="url(#a)" transform="translate(-28.64 -25.35)"/><g fill="none" stroke="#000" transform="translate(40.81 -28.47)"><path stroke-linejoin="round" stroke-width="1.667" d="m-20.92-1.04-.01-.08.01-.07.02-.07.04-.07.06-.07.07-.07.1-.06.11-.07.13-.06.15-.06.16-.05.19-.06.21-.06.23-.05.24-.05.27-.05.28-.05.31-.04.32-.05.35-.04.36-.04.39-.04.4-.04.42-.04.44-.04.42-.04.44-.04.48-.04.51-.04.53-.03.57-.04.59-.03.63-.03.65-.03.67-.03.71-.03.72-.02.75-.03.77-.02.79-.02.81-.01.83-.02.84-.01.85-.02h.87l.88-.01.88-.01h3.6l.9.01.9.01.9.01.89.01.89.02.88.02.87.01.86.03.85.02.84.03.82.03.8.03.79.03.77.03.75.04.73.04.71.04.7.04.67.04.64.05.63.05.6.05.58.05.56.05.54.05.52.06.49.05.48.06.46.06.43.06.41.07.39.06.37.07.35.06.33.07.3.07.29.07.26.08.24.07.22.08.2.08.18.07.16.08.14.09.12.08.11.08.08.08.07.09" filter="url(#a)"/><path stroke-linejoin="round" stroke-width="2.222" d="m-21.14-1.52-.02.06v.06l.01.06.03.07.04.07.05.08.07.08.09.08.1.08.11.09.14.09.14.09.16.1.18.09.19.1.21.1.22.1.24.11.25.1.27.1.29.11.3.1.31.11.33.1.35.11.34.12.36.12.38.12.4.13.43.12.45.12.48.12.49.11.52.12.54.11.56.11.59.1.6.1.63.1.65.09.67.08.69.08.7.07.73.07.74.06.75.05.77.05.79.04.8.03.81.03.82.02.83.01h1.68l.85-.01.85-.02.86-.03.86-.03.86-.04.85-.04.86-.05.85-.06.85-.06.84-.07.83-.07.82-.08.82-.08.8-.09.79-.08.78-.1.76-.09.75-.1.73-.1.72-.09.7-.1.68-.11.67-.1.65-.1.64-.11.62-.11.61-.11.59-.11.58-.1.56-.11.54-.11.52-.11.51-.11.49-.11.46-.11.46-.11.43-.11.41-.11.4-.1.38-.11.36-.1.34-.1.33-.1.3-.1.29-.1" filter="url(#a)"/><circle cx="6.104" cy="-.245" r="3.82" clip-path="url(#b)" filter="url(#a)"/><circle cx="6.539" cy="-2.915" r="3.956" clip-path="url(#b)" filter="url(#a)"/><circle cx="4.749" cy="1.045" r="4.028" clip-path="url(#b)" filter="url(#a)"/><circle cx="5.284" cy="-2.765" r="3.342" clip-path="url(#b)" filter="url(#a)"/><circle cx="5.199" cy="-.365" r="3.76" clip-path="url(#b)" filter="url(#a)"/><circle cx="6.764" cy="-1.375" r="3.496" clip-path="url(#b)" filter="url(#a)"/><circle cx="4.814" cy=".46" r="3.396" clip-path="url(#b)" filter="url(#a)"/><circle cx="6.879" cy=".75" r="3.006" clip-path="url(#b)" filter="url(#a)"/><circle cx="8.784" cy="-2.02" r="3.482" clip-path="url(#b)" filter="url(#a)"/><circle cx="6.084" cy="-.385" r="4.36" clip-path="url(#b)" filter="url(#a)"/></g><g fill="none" stroke="#000" transform="translate(-28.64 -25.35)"><path stroke-linejoin="round" stroke-width="2.222" d="m22.08-.37.13-.09.11-.1.08-.09.05-.09.03-.09v-.08l-.02-.08-.05-.08-.07-.08-.1-.07-.13-.08-.15-.07-.18-.06-.2-.07-.23-.06-.25-.06-.28-.06-.3-.05-.32-.05-.35-.06-.37-.04-.39-.05-.42-.05-.43-.04-.46-.04-.44-.05-.48-.04-.51-.05-.54-.04-.57-.04-.61-.03-.63-.04-.66-.03-.7-.03-.71-.02-.74-.03-.77-.02-.79-.01-.81-.02L8-2.52l-.84-.01-.86-.01-.87-.01H1.85l-.91.01H.03l-.91.02-.91.01-.91.01-.9.02-.89.02-.89.02-.87.02-.86.03-.85.02-.84.03-.82.03-.8.04-.79.03-.76.04-.75.03-.72.04-.71.04-.68.05-.66.04-.63.04-.61.05-.59.05-.56.05-.54.05-.51.05-.5.05-.46.06-.45.05-.42.06-.41.06-.37.06-.36.06-.33.06-.31.07-.29.06-.27.07-.24.07-.22.07-.2.07-.17.07-.16.07-.13.08-.11.07-.09.08-.07.08-.05.08-.03.08-.01.08.01.08.02.08" filter="url(#a)"/><path stroke-linejoin="round" stroke-width="2.222" d="m22.97-1.31.04.07v.07L23-1.1l-.04.08-.06.08-.09.08-.11.08-.12.09-.15.09-.17.09-.2.09-.21.09-.23.09-.24.09-.27.1-.29.09-.3.1-.32.09-.34.09-.36.1-.37.09-.38.09-.41.09-.41.09-.44.09-.46.11-.47.11-.5.11-.52.1-.54.1-.56.1-.58.1-.59.09-.62.09-.63.08-.65.08-.67.08-.68.07-.7.07-.71.06-.73.05-.73.05-.76.05-.76.04-.77.03-.78.03-.79.02-.8.02-.8.01H-.75l-.81-.01-.82-.02-.82-.03-.82-.02-.81-.04-.81-.03-.81-.05-.8-.04-.79-.06-.79-.05-.78-.06-.77-.06-.76-.07-.75-.07-.73-.07-.73-.07-.71-.08-.69-.07-.68-.08-.67-.08-.65-.08-.63-.09-.62-.08-.6-.08-.59-.08-.57-.09-.56-.08-.54-.08-.53-.09-.51-.08-.5-.09-.48-.09-.47-.08-.45-.08-.44-.09-.41-.08-.4-.09-.39-.08-.37-.08-.35-.08-.34-.08-.32-.08-.3-.08-.29-.07-.28-.08-.25-.07-.25-.08" filter="url(#a)"/><circle cx="-11.171" cy="-1.616" r="4.996" clip-path="url(#c)" filter="url(#a)"/><circle cx="-12.431" cy="1.024" r="3.72" clip-path="url(#c)" filter="url(#a)"/><circle cx="-11.551" cy="-.936" r="3.642" clip-path="url(#c)" filter="url(#a)"/><circle cx="-10.046" cy="-2.366" r="4.392" clip-path="url(#c)" filter="url(#a)"/><circle cx="-10.191" cy=".824" r="3.43" clip-path="url(#c)" filter="url(#a)"/><circle cx="-11.646" cy="-1.831" r="3.914" clip-path="url(#c)" filter="url(#a)"/><circle cx="-10.866" cy=".429" r="4.38" clip-path="url(#c)" filter="url(#a)"/><circle cx="-8.736" cy="-2.196" r="3.926" clip-path="url(#c)" filter="url(#a)"/><circle cx="-10.626" cy="-1.806" r="3.638" clip-path="url(#c)" filter="url(#a)"/><circle cx="-11.601" cy="-2.546" r="4.034" clip-path="url(#c)" filter="url(#a)"/></g><g fill="none" stroke="#C04000" stroke-linejoin="round" stroke-width="2"><path d="m-1.95-88.48 18.18 17.36-9.38 1.19-2.1 1.27 8.06 3.81L23.59-60l7.21 3.57 1.91 1.01-1.45-1.19-1.62-1.94.42-1.24 2.65-.03 3.46.61 2.36.15.05-1.1-2.28-2.24-3.59-2.45-3.49-1.55-2.55-.2-2.26.38-4.4-.68-9.59-2.51-16.09-2.29-20.61 1.28-12.78-.25" filter="url(#a)"/><path d="M-9.17-87.68 1.9-85.56l-4.03 2.85-3.28 1.2-.48-.57-.18-.98-.7-.64.01-.25 2.29.2 5.15 1.18 7.65 2.72 9.11 4.13 8.97 4.29 6.83 2.98 3.11 1.49-2.9-1.04-22.73-19.29" filter="url(#a)"/><path d="m36.32-72.94-10.6 7.46-21.54-4.36-13.58-4.39-6.16-2.33-1.55-.34 1.07 1.41 2.53 2.37 3.1 1.88 2.6.03 1.19-2.15-.47-3.28-1.15-2.71.37-1.03 4.35.16 7.99-.69 4.2-3.43-9.94-4.2" filter="url(#a)"/><path d="M-36.23-73.59-10-76.03l6.38 4.58.72 1.8-1.16-2 .03-2.94 2.35-1.46 4.37.63 5.72 2 6.58 2.51 6.95 2.63 6.47 2.82 4.67 2.99 1.4 2.7-2.63 1.63-5.55.13-4.89-.85.51-.16 8.77 3.56 15.9 11.08 13.44 12.02" filter="url(#a)"/><path d="m-23.44-82.5 10.88 14.21 24.36 6.66 8.24-.89-6.55-4.76-11.85-4.7L-8-75l-4.67-1.55-.23-.86 3.02-.8 5.6-.94 7.55-.72 8.35.5 7.78 2.9 4.78 5.06-7.68 2.89-46.53-10.1" filter="url(#a)"/><path d="M-31.55-77.51 9.9-65.79l.4 1.18-2.85-.01 1.1-1.59 2.66-3.03 1.57-3.44-.22-2.63-1.17-1.05-.88.56.14 1.56 1.17 1.76 1.89 1.46 2.43 1.16 2.92 1.07 2.98 1 1.8.57-1.11-.38-4.94-1.48-6.82-1.9-2.93-.93 7.81 1.83 19.44 8.88 24.95 29.25" filter="url(#a)"/><path d="m-47.68-59.33 15.37-12.25 18.24-6.21 13.25-1.48 4.92.11-1.1.48-2.99.88-2.46 1.4-1.57 1.91-.38 2.62 2.51 3.54L5.5-64.2l11.86 3.4 12.21.81 6.96-2.83-1.45-5.57-11.39-6.96L-7.27-88.3" filter="url(#a)"/><path d="m-19.43-84.4 18.72 4.25-10.03 3.48-10.33 2.15-3.85.67 1.93.04 5.2-.08 5.6.15 3.94.75 2.22 1.38 2.39 1.46 4.69.68 6.98-.3 6.37.68L21.39-61l39.69 31.44" filter="url(#a)"/><path d="m-34.92-75.02 14.87-7 4.57.4 3.54 2.77 4.54 1.74 4.03-.08 1.89-.79.08-.08.23 1.45 2.63 3.01 6.13 4.14 8.91 4.73 9.37 4.78 6.87 4.11 1.86 2.5-4.24-.13-9.31-3.27L9.84-62.7l-8.75-7.09-2.96-6.27L.92-80l5.55-.56 9.64 5.77 35.25 20.77" filter="url(#a)"/><path d="m-19.19-84.82 5.56 7.48 12.82 14.2 13.44 7.46 4.64-.68-2.97-4.2-4.6-3.09-1.35-.05 2.76 2.15 4.1 2.09 1.91.14-1.37-1.88-2.51-2.04-1.02.06.17 2.8-1.2 3.57-5.37-.75-38.41-19.12" filter="url(#a)"/><path d="m-46.7-61.04 20.31-9.47 17.22-4.28 5.9 1.08 3.28 4.15 5.65 4.66 6.46 3.15 3.96.63.24-1.81-2.25-3.38-2.59-3.87-1.34-3.37.55-2.18 2.37-.67 3.7.71 4.1 1.44 3.24 1.26 1.13.43-1.72-.24-4.29-.07-5.39.77-4.17 1.18-2.16.62-9.12 1.72-47.42 10.9" filter="url(#a)"/><path d="m23.45-82.84-28.43 5.22-8.49 1.75-7.69 2.7-4.12 3.11 1.09 2.8 4.01 1.74 3.88-.29 2.78-2.7 2.93-4.27 4.8-3.96 7.27-1.85 8.85.94 8.97 3.06 8.18 4.1 7.14 4.33 2.7 1.06-17.46-19.32" filter="url(#a)"/><path d="m-47.68-59.33 34.81-17.37 9.03-3.64 2.25 2.86 1.64 3.54 1.76 1.62 1.54-.06 1.59-.55 2.34-.37 3.57-.16 4.54-.14 4.47-.18 3.04-.16.49-.08-2.55.03-5.45.24-7.44.73-7.29 1.63-3.21 2.75 5.49 3.44 14.07 2.41 8.08-3.35-29.64-22.27" filter="url(#a)"/><path d="m36.32-72.94-3.61 12.95-17.1-9.05-8.94-8-.36-3.79 3.94-.85 4.35.9 2.64 1.99.35 2.35L16-74.71l-2.82.23-3.21-1.55-2.72-2.66-1.24-2.25 1.34.09 4.89 4.09 8.48 8.45 8.6 9.63-4.59.6-46.92-25.32" filter="url(#a)"/><path d="m-23.16-83.07 21.55 1.85 11.63 9.2 4.39 8.65-4.32 3.86-6.84-.29-3.56-1.94.32-1.66 1.66-.79 1.39-.37 1.56-.87 2.23-2.14 2.16-3.39 2.2-3.21 5.36-.92 8 .39-11.53-12.18" filter="url(#a)"/><path d="M57.71-39.85 35.08-53.48l-14.75-7.75 2.06-.02 5.72 1.88.22-.87-6.59-4.27-10.41-5.67L.26-74.84l-10.12-2.25-8.64.1-6.5 1.37-3.11 1.21 1.91-.07 8.15-1.67 13.52-2.69 11.1-2.82-15.74-6.02" filter="url(#a)"/><path d="m-1.27-88.54-2.22-.03-1.73.16-1.91.26-2.08.35-2.17.41-2.24.48-2.38.56-2.56.64-2.69.72-2.76.79-2.83.88-2.96.97-3.19 1.07-3.48 1.18-3.67 1.27-3.6 1.33-3.25 1.35-2.78 1.37-2.52 1.39-2.86 1.48-3.88 1.6-5.13 1.77-5.65 1.84-4.62 1.7-3.09 1.19" filter="url(#a)"/><path d="m-4.17-88.62-1.5.29-1.8.31-2 .42-2.07.49-2.06.57-2.01.63-1.97.7-1.95.78-1.95.85-1.99.94-2.04 1.02-2.07 1.1-2.05 1.18-1.99 1.26-1.91 1.32-1.83 1.39-1.79 1.44-1.77 1.5-1.78 1.57-1.78 1.63-1.76 1.69-1.75 1.75-1.75 1.8-1.76 1.85-1.79 1.89-1.8 1.91-1.78 1.9-1.72 1.88-1.63 1.91-1.58 2.11-1.56 2.48" filter="url(#a)"/><path d="m-4.17-88.62-1.51.29-1.87.31-2.17.41-2.27.49-2.22.56-2.16.63-2.15.69-2.2.78-2.33.84-2.45.93-2.55 1.01-2.58 1.09-2.52 1.17-2.36 1.25-2.17 1.31-1.96 1.38-1.85 1.43-1.86 1.49-2.04 1.55-2.36 1.61-2.74 1.69-3.04 1.73-3.16 1.79-3.06 1.84-2.88 1.92-2.86 2-3.17 2.02-3.2 2.09" filter="url(#a)"/><path d="m-4.17-88.62-2.15.29-2.67.31-2.61.42-2.41.5-2.28.56-2.31.63-2.54.71-2.91.78-3.35.86-3.76.93-4.03 1.03-4.07 1.1-3.83 1.18-3.39 1.26-2.81 1.33-2.24 1.39-1.83 1.45-1.68 1.5-1.84 1.57-2.22 1.64-2.73 1.69-3.29 1.75-3.87 1.81-4.49 1.85-5.13 1.88-5.62 1.91-5.73 1.92-5.35 1.92-4.75 1.99-4.55 2.16-4.97 2.47-4.22 2.79" filter="url(#a)"/><path d="m-6.34-88.38-3.75.54-3.15.45-2.32.49-1.99.58-2 .67-2.1.75-2.19.83-2.25.92-2.27 1.01-2.3 1.12-2.37 1.22-2.55 1.29-2.86 1.34-3.27 1.39-3.72 1.43-4.12 1.48-4.4 1.53-4.5 1.59-4.37 1.65-4.04 1.7-3.56 1.76-3.06 1.83-2.74 1.94-2.72 2.07-2.92 2.17-3.06 2.18-2.93 2.1-2.68 2.03-2.89 2.1-3.94 2.35-5.54 2.35" filter="url(#a)"/><path d="m-6.34-88.38-2.48.54-1.99.45-1.96.49-2 .58-2.03.67-2.02.75-2.01.83-2.03.92-2.08 1.01-2.15 1.12-2.22 1.22-2.26 1.29-2.22 1.34-2.13 1.39-2 1.43-1.9 1.48-1.86 1.53-1.9 1.59-2.01 1.65-2.15 1.7-2.23 1.76-2.24 1.83-2.15 1.94-2 2.07-1.85 2.17-1.73 2.18-1.69 2.1-1.72 2.03-1.83 2.1-1.9 2.35-1.57 2.35" filter="url(#a)"/><path d="m-7.27-88.3-2.19.59-2.18.57-2.13.57-2.16.63-2.21.7-2.25.77-2.3.86-2.35.93-2.46 1.01-2.56 1.1-2.61 1.18-2.6 1.25-2.55 1.32-2.48 1.37-2.4 1.43-2.35 1.49-2.36 1.55-2.4 1.62-2.39 1.68-2.29 1.73-2.15 1.78-2.13 1.84-2.45 1.92-3.08 1.99-3.55 2.02-3.56 2.08" filter="url(#a)"/><path d="m-7.27-88.3-2.22.59-2.75.58-2.88.58-2.75.64-2.5.71-2.24.79-2.08.87-2.08.95-2.25 1.03-2.53 1.12-2.84 1.2-3.1 1.27-3.22 1.34-3.23 1.4-3.13 1.46-2.96 1.52-2.77 1.58-2.59 1.65-2.44 1.7-2.3 1.76-2.16 1.81-2.01 1.85-1.92 1.89-1.91 1.91-2.11 1.95-2.5 1.99-2.98 2.06-3.31 2.17-3.21 2.3-2.73 2.4-2.38 2.41-2.94 2.23-3.93 1.22" filter="url(#a)"/><path d="m-9.49-87.73-1.56.37-2.02.45-2.24.57-2.25.69-2.14.77-2.04.84-2 .93-2.02 1.03-2.08 1.14-2.12 1.23-2.14 1.3-2.11 1.36-2.07 1.4-2.02 1.45-1.96 1.49-1.9 1.55-1.86 1.61-1.8 1.67-1.75 1.73-1.7 1.79-1.69 1.88-1.68 1.96-1.74 2.05-1.83 2.12-1.98 2.15-2.15 2.17-2.28 2.18-2.27 2.22-2.11 2.25-1.78 2.28-1.39 2.25-1.17 2.2-1.31 2.26-1.74 2.53-1.42 2.69" filter="url(#a)"/><path d="m-9.49-87.73-2.14.37-3.72.45-3.39.57-2.17.69-1.29.77-1.06.84-1.25.93-1.64 1.03-2 1.14-2.32 1.23-2.56 1.3-2.79 1.36-2.99 1.4-3.2 1.45-3.4 1.49-3.53 1.55-3.59 1.61-3.57 1.67-3.52 1.73-3.48 1.79-3.5 1.88-3.53 1.96-3.53 2.05-3.4 2.12-3.1 2.15-2.75 2.17-2.52 2.18-2.55 2.22-2.86 2.25-3.28 2.28-3.63 2.25-3.97 2.2-4.48 2.26-4.73 2.53-2.39 2.69" filter="url(#a)"/><path d="m-9.49-87.73-1.53.37-2.42.45-3.19.58-3.43.69-3.28.76-2.93.85-2.6.93-2.45 1.03-2.53 1.14-2.75 1.23-2.97 1.3-3.12 1.36-3.2 1.41-3.28 1.45-3.43 1.49-3.7 1.56-4.04 1.61-4.31 1.67-4.38 1.74-4.14 1.8-3.57 1.88-2.86 1.96-2.23 2.05-1.9 2.12-2.02 2.15-2.56 2.17-3.3 2.19-4.03 2.22-4.63 2.25-5.03 2.27-5.18 2.26-4.95 2.24-4.23 2.29-3.5 2.4-3.75 2.47-4.74 2.17" filter="url(#a)"/><path d="m-12.02-87.03-5.78.49-1.25.59-1.24.7-2.22.8-3.13.87-3.61.95-3.55 1.02-3.13 1.12-2.59 1.19-2.19 1.27-2.03 1.34-2.11 1.39-2.39 1.44-2.81 1.51-3.29 1.56-3.76 1.63-4.13 1.69-4.35 1.75-4.43 1.8-4.51 1.84-4.8 1.88-5.37 1.91-6.08 1.89-6.6 1.87-6.71 1.9-6.07 2.1-2.45 2.47" filter="url(#a)"/><path d="m-12.33-87.11-2.03.65-2.45.77-2.53.8-2.48.84-2.41.92-2.38 1.04-2.4 1.14-2.46 1.25-2.54 1.33-2.62 1.37-2.77 1.41-2.97 1.44-3.17 1.5-3.36 1.55-3.45 1.61-3.43 1.68-3.31 1.73-3.2 1.8-3.16 1.88-3.23 1.96-3.37 2.06-3.46 2.11-3.42 2.16-3.24 2.17-3.04 2.18-2.98 2.21-3.17 2.25-3.5 2.27-3.86 2.26-4.24 2.24-4.74 2.28-5.1 2.4-4.56 2.47-3.9 2.16" filter="url(#a)"/><path d="m-16.51-85.63-2.18.78-2 .79-2.15.86-2.32.99-2.38 1.14-2.34 1.26-2.21 1.33-2.06 1.37-1.9 1.38-1.79 1.4-1.75 1.45-1.75 1.51-1.72 1.59-1.65 1.65-1.55 1.67-1.49 1.69-1.56 1.74-1.79 1.9-2.16 2.12-2.51 2.35-2.58 2.36-2.08 1.88-.7.49" filter="url(#a)"/><path d="m-16.51-85.63-2.82.79-3.28.81-3.2.88-2.67 1.03-2.33 1.17-2.32 1.28-2.4 1.35-2.39 1.39-2.21 1.42-1.93 1.45-1.67 1.5-1.56 1.56-1.61 1.62-1.8 1.69-2.1 1.74-2.4 1.82-2.68 1.89-2.93 1.98-3.12 2.05-3.27 2.12-3.29 2.16-3.18 2.17-2.92 2.2-2.6 2.22-2.36 2.24-2.33 2.26-2.5 2.29-2.85 2.31-3.25 2.36-3.62 2.46-3.82 2.6-3.66 2.73-3.1 2.79-2.64 2.57-2.92 1.75" filter="url(#a)"/><path d="m-18-85.46-1.73.99-1.91.94-2.04.95-2.17 1.04-2.25 1.14-2.24 1.23-2.17 1.31-2.03 1.36-1.87 1.42-1.76 1.47-1.72 1.53-1.74 1.6-1.77 1.65-1.79 1.72-1.76 1.77-1.69 1.82-1.61 1.85-1.52 1.9-1.46 1.92-1.44 1.97-1.48 2.02-1.57 2.09-1.67 2.18-1.77 2.27-1.76 2.35-1.69 2.4-1.6 2.42-1.58 2.44-1.62 2.45-1.44 2.2-.4 1.03m134.14 12.6-2.31 4.27-.5 3.56-1.87 3.03-2.4 2.82-1.74 2.77-.84 2.73-.24 2.68-.04 2.62-.09 2.62-.27 2.64-.58 2.7-.96 2.73-1.36 2.73-1.8 2.69-2.22 2.62-2.56 2.53-2.76 2.44-2.72 2.39-2.45 2.36-2.06 2.36-1.74 2.38-1.67 2.37-1.92 2.35-2.34 2.31-2.68 2.24-2.68 2.21-2.23 2.18-1.47 2.21-.8 2.25-.66 2.26-1.25 2.23-2.2 2.11-2.88 1.97-3.33 2.14m57.62-86.5 1.22 4.23 2.57 3.55 3.77 3.01 3.44 2.79 2.14 2.74.95 2.72.31 2.66.01 2.59-.2 2.57-.31 2.61-.17 2.67.33 2.73 1.09 2.74 1.89 2.72 2.48 2.63 2.69 2.52 2.45 2.4 1.82 2.31.99 2.28.33 2.31.17 2.39.71 2.47 1.64 2.52 2.22 2.46 1.98 2.06 3.61 1.16" filter="url(#a)"/><path d="m62.89-19.43 1.67 4.26 4.22 3.57 4.86 3.02 3.27 2.82 1.43 2.77.45 2.73.11 2.67-.02 2.62-.19 2.61-.3 2.65-.24 2.69.05 2.73.46 2.73.86 2.69 1.14 2.62 1.2 2.53 1.06 2.44.76 2.38.37 2.36-.04 2.36-.35 2.37-.46 2.38-.4 2.36-.23 2.3-.13 2.24-.25 2.19-.61 2.18-1.08 2.2-1.41 2.26-1.34 2.3-.87 2.26-.05 2.06.88 1.54M-19.43-84.4l-3.59.93-1.46.92-1.59 1.02-2.37 1.16-3.27 1.25-4.01 1.33-4.37 1.38-4.18 1.44-3.59 1.49-2.9 1.55-2.46 1.61-2.47 1.68-2.86 1.73-3.43 1.79-3.94 1.83-4.23 1.88-4.23 1.91-3.97 1.96-3.49 2.01-2.86 2.06-2.15 2.13-1.52 2.21-1.12 2.28-1.11 2.34-1.55 2.39-2.42 2.43-3.49 2.46-4.47 2.49-5.02 2.53-4.91 2.58-4.17 2.61-3.2 2.61-2.59 2.54-2.81 2.43-3.43 2.41-3.13 2.92-2.11 4.52" filter="url(#a)"/><path d="m-23.16-83.07-1.78.77-2.37 1.23-2.16 1.36-1.97 1.41-1.79 1.41-1.68 1.4-1.67 1.41-1.81 1.46-2.07 1.54-2.32 1.62-2.51 1.67-2.59 1.71-2.61 1.77-2.63 1.85-2.73 1.95-2.89 2.07-3.04 2.13-3.05 2.16-2.91 2.13-2.65 2.14-2.4 2.18-2.24 2.29-2.05 2.33-1.66 2.2-1.26 1.83-2.03 1.5" filter="url(#a)"/><path d="m-23.44-82.5-2.93.86-3.08 1.19-2.32 1.32-2.09 1.35-2.03 1.38-2.02 1.43-2.2 1.48-2.7 1.54-3.39 1.61-4.04 1.68-4.41 1.73-4.38 1.78-4.03 1.83-3.46 1.87-2.82 1.91-2.23 1.94-1.77 1.99-1.48 2.04-1.42 2.12-1.62 2.19-2 2.28-2.57 2.34-3.22 2.39-3.91 2.42-4.47 2.44-4.78 2.46-4.68 2.5-4.11 2.57-3.17 2.68-2.06 2.81-1.57 2.92-3.62 3.11" filter="url(#a)"/><path d="m-23.44-82.5-1.6.86-2.61 1.18-3.55 1.31-3.89 1.35-3.51 1.38-2.83 1.42-2.2 1.47-1.8 1.54-1.65 1.59-1.76 1.67-2.02 1.72-2.34 1.78-2.66 1.82-2.92 1.86-3.19 1.9-3.5 1.92-3.85 1.97-4.17 2.02-4.33 2.09-4.23 2.19-3.91 2.27-3.49 2.35-3.2 2.39-3.1 2.41-3.07 2.43-3.03 2.42-3.28 2.38-4.49 2.41-6.47 3.43" filter="url(#a)"/><path d="m-24.36-81.79-2.51 1.26-2.26 1.42-2 1.38-1.96 1.39-2.08 1.44-2.22 1.49-2.31 1.55-2.26 1.63-2.07 1.68-1.8 1.75-1.56 1.8-1.38 1.85-1.33 1.88-1.37 1.92-1.44 1.97-1.48 2.01-1.46 2.08-1.39 2.14-1.32 2.22-1.29 2.29-1.32 2.34-1.43 2.4-1.57 2.43-1.69 2.47-1.72 2.5-1.64 2.53-1.47 2.56-1.25 2.59-1.08 2.58-1.01 2.56-1.06 2.55-1.13 2.57-1.16 2.62-1.07 2.67-.84 2.59-.6 2.33-1.29 2.21" filter="url(#a)"/><path d="m-24.36-81.79-3.91 1.25-2.27 1.41-2.99 1.37-4.53 1.37-5.51 1.42-5.38 1.48-4.51 1.53-3.42 1.61-2.52 1.67-1.93 1.73-1.67 1.78-1.7 1.82-1.97 1.87-2.42 1.9-2.95 1.93-3.49 1.97-3.92 2.02-4.22 2.11-4.25 2.18-3.93 2.28-3.23 2.34-2.33 2.39-1.77 2.41-2.08 2.43-3.38 2.43-4.98 2.44-5.65 2.5-5.06 2.73-4.44 2.79" filter="url(#a)"/><path d="m-26.98-80.53-.59.93-1.17 1.41-.6 1.45.12 1.39.09 1.4-.62 1.46-1.49 1.55-1.96 1.64-1.87 1.7-1.28 1.74-.46 1.8.37 1.88.97 1.98 1.25 2.07 1.21 2.13.99 2.16.72 2.17.59 2.18.61 2.2.76 2.24.88 2.25 1.01 2.26 1.26 2.28 1.81 2.33 2.64 2.44 3.33 2.59 3.31 2.79 2.64 3.01 3.51 3.02m-18.03-58.45-1.51.94-2 1.41-1.99 1.46-1.91 1.4-2.01 1.41-2.31 1.47-2.66 1.57-2.89 1.65-2.92 1.71-2.75 1.76-2.47 1.83-2.14 1.9-1.86 2-1.67 2.07-1.58 2.14-1.56 2.16-1.57 2.19-1.51 2.2-1.4 2.22-1.24 2.25-1.12 2.27-1.1 2.31-1.2 2.34-1.38 2.4-1.6 2.48-1.77 2.55-1.82 2.6-1.77 2.58-1.65 2.5-1.59 2.4-1.63 2.34-1.72 2.5-1.82 3.15-1.81 4.44" filter="url(#a)"/><path d="m-26.98-80.53-1.46.92-1.92 1.4-1.88 1.44-1.69 1.39-1.54 1.38-1.49 1.44-1.47 1.55-1.48 1.63-1.47 1.68-1.42 1.72-1.38 1.77-1.35 1.85-1.36 1.96-1.34 2.07-1.33 2.14-1.26 2.15L-52-51.9l-1.1 2.14-1.06 2.19-1.02 2.25-1 2.29-.91 2.21-.81 2.07-.75 2.14-.94 2.95m31.68-46.45-4.76 1.84-5.01 1.57-4.2 1.38-2.78 1.33-1.71 1.42-1.22 1.53-1.11 1.64-1.22 1.69-1.46 1.7-1.8 1.74-2.16 1.82-2.54 1.95-2.98 2.08-3.53 2.15-4.19 2.16-4.77 2.1-5.1 2.08-5.08 2.16-4.69 2.32-4.05 2.44-3.43 2.3-3.29 1.45" filter="url(#a)"/><path d="m-27.91-80.11-6.05 1.86-2.32 1.59-1.94 1.4-1.61 1.38-1.22 1.46-1.09 1.57-1.23 1.66-1.5 1.72-1.75 1.77-1.92 1.82-2 1.9-2.06 2-2.17 2.09-2.31 2.14-2.51 2.17-2.71 2.18-2.88 2.21-3 2.22-3.01 2.25-2.9 2.28-2.71 2.3-2.47 2.35-2.28 2.41-2.16 2.48-2.09 2.54-1.95 2.58-1.67 2.57-1.34 2.51-1.23 2.44-1.53 2.43-2.07 2.57-2.45 2.9-2.78 3.13-3.86 2.26" filter="url(#a)"/><path d="m-27.91-80.11-3.01 1.86-4.09 1.59-4.41 1.41-3.59 1.38-2.43 1.46-1.47 1.57-.83 1.67-.49 1.72-.52 1.76-.9 1.83-1.52 1.91-2.25 2-2.9 2.08-3.32 2.14-3.44 2.18-3.34 2.19-3.13 2.2-2.98 2.23-3.04 2.25-3.29 2.28-3.67 2.32-4.03 2.35-4.17 2.42-4.02 2.48-3.56 2.53-2.87 2.57-2.05 2.56-1.21 2.52-.46 2.47v2.48l-.15 2.59-1.18 2.78-2.88 2.89-4.37 2.6-4.17 2.09" filter="url(#a)"/><path d="m-30.03-78.62-1.29 1.07-1.28 1.25-1.28 1.42-1.19 1.49-1.15 1.56-1.19 1.62-1.26 1.7-1.32 1.75-1.32 1.81-1.31 1.85-1.25 1.89-1.16 1.92-1.05 1.96-.89 2.01-.73 2.07-.57 2.14-.5 2.22-.49 2.29-.58 2.35-.7 2.4-.79 2.43-.82 2.47-.74 2.49-.57 2.53-.37 2.56-.17 2.58-.06 2.58-.04 2.56-.08 2.55-.15 2.55-.11 2.63.09 2.67.43 2.58.76 2.33.38 2.2" filter="url(#a)"/><path d="m-30.7-78.08-2.24 1.59-1.83 1.31-1.49 1.29-1.42 1.41-1.54 1.56-1.76 1.67-2.04 1.72-2.4 1.74-2.82 1.78-3.25 1.88-3.5 1.98-3.49 2.08-3.15 2.14-2.6 2.16-2.05 2.17-1.69 2.17-1.7 2.2-2.09 2.23-2.67 2.25-3.18 2.26-3.36 2.26-3.06 2.32-2.47 2.44-1.98 2.59-1.98 2.79-2.23 3-2.1 3.01m64.09-56-6.42 1.59-2.29 1.32-1.07 1.3-.8 1.41-1.23 1.57-1.98 1.67-2.61 1.72-3 1.75-3.24 1.8-3.42 1.88-3.58 1.99-3.58 2.09-3.31 2.14-2.81 2.17-2.24 2.17-1.93 2.18-2.07 2.21-2.71 2.23-3.64 2.26-4.51 2.28-5.02 2.3-4.96 2.37-4.43 2.46-3.77 2.58-3.34 2.68-3.21 2.69-2.87 2.58-2.26 2.36-4.59 2.54" filter="url(#a)"/><path d="m-31.55-77.51-1.43 1.14-1.73 1.47-1.66 1.53-1.54 1.56-1.48 1.63-1.47 1.7-1.45 1.76-1.44 1.81-1.44 1.85-1.42 1.89-1.4 1.93-1.38 1.96-1.33 2.01-1.28 2.08-1.24 2.14-1.19 2.23-1.15 2.29-1.09 2.35-1.03 2.4-.97 2.44-.89 2.46-.83 2.5-.78 2.53-.72 2.56-.69 2.58-.66 2.57-.64 2.57-.61 2.55-.57 2.57-.54 2.6-.46 2.63-.36 2.58-.24 2.47-.17 2.47-.14 2.84m35.42-76.65-2.55 1.12-4.36 1.46-3.57 1.52-2.87 1.53-3.05 1.6-3.57 1.68-3.89 1.74-3.96 1.79-3.9 1.83-3.75 1.86-3.45 1.9-3.06 1.92-2.8 1.97-2.89 2.01-3.48 2.1-4.41 2.18-5.25 2.28-5.58 2.34-5.21 2.38-4.35 2.41-3.43 2.42-2.91 2.42-2.76 2.43-2.57 2.49-2.4 2.73-5.38 2.77" filter="url(#a)"/><path d="m-32.98-76.13-4.96 1.07-.99 1.19-.77 1.36-1.37 1.57-2.04 1.69-2.69 1.73-3.3 1.73-3.76 1.76-3.87 1.84-3.6 1.98-3.17 2.09-2.89 2.14-3.01 2.16-3.51 2.15-4.09 2.15-4.44 2.18-4.47 2.23-4.43 2.25-4.68 2.23-5.33 2.21-5.88 2.25-5.67 2.38-4.59 2.44-1.16 2.13" filter="url(#a)"/><path d="m-34.92-75.02-3.14 1.8-2.43 1.43-2.01 1.53-2.51 1.68-3.26 1.76-3.79 1.79-4.03 1.82-4.08 1.85-4 1.89-3.92 1.91-3.95 1.94-4.19 1.98-4.57 2.07-4.93 2.17-5.12 2.27-5.07 2.34-4.89 2.38-4.84 2.39-5.08 2.41-5.17 2.42-3.73 2.16 1.13 1m83.58-42.99-1.76 1.83-1.48 1.45-1.52 1.58-1.53 1.72-1.5 1.79-1.48 1.82-1.49 1.86-1.48 1.9-1.47 1.93-1.42 1.96-1.38 2.02-1.37 2.07-1.39 2.16-1.44 2.23-1.47 2.3-1.47 2.36-1.4 2.4-1.26 2.44-1.08 2.47-.9 2.51-.76 2.53-.68 2.55-.66 2.58-.71 2.57-.77 2.57-.82 2.56-.83 2.58-.81 2.6-.78 2.62-.73 2.64-.63 2.7-.45 2.82-.22 3.06-.03 3.02-.19 1.38" filter="url(#a)"/><path d="m-36.23-73.59-1.02 1.03-1.5 1.64-1.62 1.83-1.55 1.81-1.42 1.77-1.36 1.78-1.34 1.9-1.35 2.03-1.34 2.12-1.3 2.18-1.23 2.19-1.16 2.2-1.1 2.21-1.05 2.23-.99 2.26-.95 2.29-.9 2.32-.86 2.38-.8 2.42-.77 2.48-.73 2.53-.68 2.55-.64 2.55-.57 2.54-.51 2.53-.45 2.56-.38 2.62-.32 2.7-.27 2.77-.22 2.79-.18 2.75-.13 2.68-.09 2.54-.07 2.14-.04.84" filter="url(#a)"/><path d="m-37.22-72.5-.61.82-1.52 1.47-2.05 1.74-2.59 1.8-3.12 1.83-3.37 1.84-3.2 1.89-2.7 1.91-2.13 1.95-1.76 1.99-1.74 2.05-1.97 2.13-2.29 2.21-2.51 2.3-2.57 2.35-2.55 2.39-2.53 2.43-2.58 2.44-2.63 2.48-2.59 2.52-2.46 2.55-2.36 2.59-2.49 2.58-3.02 2.53-3.73 2.47-4.09 2.49-3.35 2.71-1.43 2.97.64 2.08m169.65-10.6-.37-2.2-.28-2.31-.28-2.48-.06-2.52.52-2.51 1.42-2.51 2.24-2.51 2.56-2.46 2.22-2.38 1.45-2.29.63-2.23.02-2.18-.34-2.17-.56-2.16-.81-2.17-1.04-2.17L69.27-59l-1.11-2.11-.81-2.04-.38-1.93-.02-1.83.05-1.72-.23-1.64-.72-1.57-1.17-1.5-1.33-1.44-1.39-1.43-2.78-1.81" filter="url(#a)"/><path d="m63.13-19.59 6.93-2.22.27-2.33.02-2.51 1.02-2.54 1.41-2.53 1.11-2.54.58-2.51.17-2.46-.06-2.4-.1-2.31-.1-2.25-.15-2.21-.35-2.19-.73-2.18-1.18-2.18-1.57-2.16-1.79-2.13-1.81-2.07-1.64-2.01-1.41-1.91-1.18-1.82-1.02-1.74-.94-1.65-.96-1.58-1.1-1.53-1.34-1.47-1.68-1.42-2.01-1.37-2.24-1.31-2.34-1.25-2.36-1.15-2.41-1.07-2.59-.97-2.83-.89-3.05-.83-3.58-.77-5.9-.83m-63.24 14.77-11.01 1.69-2.47 1.89-1.13 1.86-1.23 1.8-1.52 1.82-1.83 1.86-2.24 1.89-2.81 1.92-3.59 1.94-4.46 2-5.28 2.09-5.82 2.18-6.04 2.28-5.97 2.34-5.69 2.37-5.3 2.39-4.95 2.4-5.05 2.41-5.91 2.41-7.14 2.48-7.38 2.71-7.07 2.75" filter="url(#a)"/><path d="m-37.02-72.11-4.2 1.72-2.31 1.93-2.09 1.87-1.7 1.84-1.3 1.86-1.21 1.9-1.34 1.93-1.53 1.96-1.65 2.01-1.61 2.08-1.51 2.15-1.35 2.24-1.24 2.31-1.17 2.37-1.17 2.41-1.2 2.44-1.28 2.47-1.35 2.5-1.42 2.53-1.5 2.56-1.55 2.57-1.61 2.57-1.66 2.57-1.68 2.57-1.67 2.57-1.58 2.6-1.44 2.63-1.28 2.66-1.22 2.71-1.32 2.81-1.57 2.94-1.77 2.93-1.6 2.66-.96 2.86" filter="url(#a)"/><path d="m-37.02-72.11-8.29 1.69-4.13 1.89-4.07 1.86-5.25 1.8-5.79 1.82-5.1 1.86-3.38 1.89-1.27 1.92.28 1.94.56 2-.47 2.09-2.26 2.18-3.93 2.28-4.96 2.34-5.34 2.37-5.62 2.39-6.34 2.4-7.32 2.41-7.56 2.41-5.96 2.48-3.19 2.71-2.73 2.75m92.12-47.48-2.34 1.71-2.08 1.92-1.79 1.87-1.7 1.83-1.78 1.84-1.9 1.88-2 1.92-2.07 1.95-2.05 1.99-1.96 2.05-1.77 2.14-1.57 2.22-1.41 2.3-1.39 2.35-1.5 2.4-1.69 2.43-1.82 2.45-1.79 2.48-1.57 2.51-1.29 2.56-1.04 2.58-.95 2.57-.97 2.54-1.04 2.5-1.09 2.53-1.17 2.64-1.43 2.76-1.76 2.57-1.61 2.26" filter="url(#a)"/><path d="m-39.06-70.67-4.36 2.23-2.31 1.91-3.67 1.8-4.77 1.82-4.54 1.88-3.68 1.92-2.92 1.95-2.47 1.97-2.16 2.04-1.87 2.13-1.73 2.22-1.77 2.3-2.02 2.35-2.32 2.4-2.55 2.42-2.72 2.44-2.95 2.47-3.32 2.51-3.73 2.56-3.99 2.58-3.97 2.58-3.82 2.52-4.01 2.46-4.74 2.48-5.62 2.71-5.83 2.96-4.33 2.07" filter="url(#a)"/><path d="m-39.06-70.67-2.38 2.22-2.29 1.91-2.42 1.79-2.97 1.8-3.44 1.87-3.45 1.91-3.09 1.94-2.7 1.96-2.54 2.02-2.61 2.1-2.8 2.21-2.96 2.28-3.08 2.35-3.29 2.39-3.65 2.4-4.21 2.42-4.82 2.45-5.25 2.48-5.22 2.55-4.59 2.64-3.65 2.68-3.01 2.6-3.3 2.18-5.77.93m81.37-49.53.22 1.8.63 1.72-.1 1.8-.61 1.9-.77 1.95-.71 1.97-.61 2.01-.47 2.08-.16 2.17.4 2.25 1.05 2.33 1.6 2.38 1.85 2.43 1.74 2.45 1.43 2.48 1.12 2.51 1.03 2.54 1.18 2.55 1.51 2.58 1.81 2.57 1.9 2.58 1.71 2.58 1.32 2.6.9 2.61.64 2.65.68 2.69.99 2.74 1.42 2.79 1.81 2.82 2 2.82L-13.81 6l1.37 2.68.76 2.57.64 2.47 1.49 2.57 2.29 3.87" filter="url(#a)"/><path d="m-42.79-66.47-12.99 1.42-4.29 1.34-1.36 1.7-1.8 2.08-2.22 2.25-1.88 2.26-1.44 2.19-1.49 2.14-2.11 2.14-3.01 2.19-3.86 2.23-4.43 2.26L-88.4-40l-4.88 2.31-5.02 2.36-5.17 2.46-5.18 2.56-4.81 2.61-4.06 2.58-3.2 2.47-2.79 2.29-3.18 2.13-4.14 2.13-3.29 2.77m91.06-52.82-1.18 1.56-1.24 1.72-1.44 1.88-1.61 1.94-1.79 1.94-1.9 1.94-1.89 2-1.79 2.1-1.63 2.21-1.46 2.29-1.3 2.36-1.2 2.38-1.16 2.39-1.2 2.41-1.27 2.44-1.36 2.48-1.41 2.54-1.47 2.63-1.56 2.67-1.69 2.59-1.62 2.16-.86.93m32.03-47.56-.93 1.59-1.06 1.75-1.14 1.91-1.21 1.97-1.21 1.97-1.16 1.99-1.09 2.05-1 2.16-.92 2.25-.84 2.33-.75 2.38-.66 2.42-.56 2.44-.51 2.47-.49 2.5-.5 2.53-.54 2.56-.54 2.56-.53 2.57-.48 2.57-.39 2.56-.3 2.57-.22 2.6-.15 2.63-.11 2.66-.06 2.72.03 2.8.16 2.88.32 2.88.45 2.75.5 2.64.66 2.71" filter="url(#a)"/><path d="m-43.96-64.66-1.34.94-3.76 1.63-4.87 2.18-3.59 2.35-1.7 2.31-.7 2.21-.82 2.14-1.67 2.16-2.64 2.21-3.33 2.25-3.56 2.27-3.35 2.31-2.93 2.35-2.54 2.4-2.33 2.48-2.34 2.53-2.47 2.56-2.7 2.54-3.05 2.51-3.61 2.48-4.36 2.51-5 2.59-5.08 2.71-4.32 2.8-2.84 2.8-1.53 2.74-1.7 2.64-2.6 1.81m80.78-65.25-1.42 1.63-1.53 1.95-1.65 2.01-1.67 1.96-1.58 1.96-1.48 2.03-1.44 2.13-1.48 2.24-1.54 2.33-1.57 2.38-1.63 2.4-1.72 2.43-1.85 2.45-2.03 2.48-2.17 2.52-2.23 2.54-2.12 2.57-1.8 2.56-1.32 2.54-.84 2.53-.54 2.53-.6 2.59-1.02 2.61-1.51 2.56-1.63 2.44-1.1 2.45-1.15 2.82" filter="url(#a)"/><path d="m-43.91-64.5-1.5 1.64-1.79 1.97-2.14 2.02-2.25 1.98-2.04 1.98-1.74 2.05-1.57 2.16-1.63 2.26-1.86 2.34-2.2 2.39-2.66 2.43-3.25 2.45-3.96 2.47-4.68 2.51-5.24 2.53-5.51 2.56-5.48 2.57-5.18 2.57-4.78 2.57-4.31 2.57-3.8 2.58-3.19 2.61-2.48 2.64-1.75 2.68-1.16 2.73-.91 2.79-1.16 2.83-1.86 2.84-2.6 2.78-2.73 2.67-2.09 2.54-1.71 2.18-2.89 1.02" filter="url(#a)"/><path d="m-43.91-64.5-3.64 1.65-1.65 1.97-1.84 2.03-2.13 1.98-1.98 2-1.6 2.06-1.27 2.17-1.06 2.27-1 2.35-1.05 2.4-1.22 2.43-1.52 2.47-1.97 2.48-2.54 2.52-3.15 2.54-3.7 2.56-4.07 2.58-4.15 2.58-3.96 2.58-3.52 2.59-2.91 2.6-2.21 2.63-1.49 2.66-.85 2.7-.45 2.74-.38 2.77L-99.9.6l-1.18 2.79-1.58 2.74-1.55 2.69-.99 2.63-.17 2.6.43 2.63.41 2.71-.25 2.75-1.22 2.6-2.61 1.81" filter="url(#a)"/><path d="m-43.91-64.5-12.73 1.61.35 1.94-.07 2-3.32 1.95-5.42 1.94-5.67 2-4.97 2.11-4.29 2.22-3.99 2.31-3.85 2.37-3.6 2.39-3.22 2.4-2.83 2.43-2.66 2.45-2.85 2.49-3.43 2.55-4.33 2.58-5.2 2.58-5.56 2.5-4.99 2.36-3.79 2.36-2.96 2.89-2.57 4.48m91.01-54.22.1 1.42-.39 2.37-.88 2.51-1.03 2.36-.94 2.19-.75 2.11-.61 2.14-.61 2.19-.64 2.25-.57 2.28-.29 2.29.23 2.34.89 2.39 1.52 2.47 1.95 2.54 2.01 2.56 1.69 2.55 1.15 2.49.59 2.45.22 2.47.14 2.58.28 2.73.52 2.83.69 2.8.84 2.86 2.01 3.73m-8.12-63.9-1.3 1.44-2 2.38-1.98 2.52-1.58 2.37-1.2 2.2-1.03 2.14-1.03 2.16-1.09 2.21-1.13 2.26-1.09 2.29-1.02 2.33-.92 2.36-.85 2.43-.8 2.48-.76 2.53-.73 2.56-.7 2.55-.68 2.53-.68 2.53-.67 2.56-.67 2.62-.67 2.69-.64 2.74-.58 2.75-.5 2.71-.4 2.64-.3 2.55-.26 2.5-.29 2.56-.18 2.88.17 3.03" filter="url(#a)"/><path d="m-45.27-63.09-1.62 2.16-2.28 2.11-2.49 1.98-2.12 1.94-1.58 2.02-1.17 2.14-.88 2.26-.74 2.35-.77 2.39-.96 2.42-1.28 2.44-1.64 2.46-1.94 2.49-2.09 2.52-2.02 2.56-1.76 2.56-1.39 2.57-.98 2.55-.66 2.55-.52 2.56-.55 2.58-.68 2.62-.85 2.65-.96 2.69-.99 2.81-.91 2.93-.75 2.91-.66 2.64-.65 2.85" filter="url(#a)"/><path d="m-47.68-59.33-4.96 2.23-3.51 2.38-1.78 2.1-.94 2.01-.7 2.11-.73 2.22-.89 2.28-1.14 2.31-1.49 2.32-1.9 2.37-2.26 2.42-2.47 2.5-2.46 2.54-2.18 2.55-1.71 2.56-1.15 2.53-.66 2.54-.42 2.57-.48 2.62-.8 2.69-1.24 2.72-1.67 2.73-1.95 2.7-2.02 2.64-1.97 2.58-1.89 2.56L-93 7.03l-2.14 2.66-2.16 2.79-1.51 3.06.25 4.36" filter="url(#a)"/><path d="m-49.04-57.68-1.87 3.14-1.56 2.09-1.63 1.88-1.86 2.06-2.18 2.23-2.56 2.3-2.85 2.3-2.84 2.31-2.47 2.35-1.98 2.41-1.58 2.49-1.46 2.55-1.52 2.56-1.64 2.54-1.67 2.52-1.65 2.51-1.69 2.55-1.92 2.61-2.33 2.69-2.82 2.73-3.22 2.75-3.38 2.7-3.19 2.63-2.7 2.54-2.05 2.49-1.52 2.55-1.26 2.87-.74 3.02" filter="url(#a)"/><path d="m-49.04-57.68-3.62 3.13-2.24 2.07-2.14 1.86-1.95 2.03-1.78 2.21-1.75 2.29-1.72 2.28-1.73 2.28-1.92 2.31-2.43 2.38-3.28 2.47-4.24 2.55-4.94 2.56-5.04 2.54-4.42 2.47-3.26 2.43-2.11 2.45-1.55 2.57-1.82 2.73-2.42 2.82-2.41 2.78-1.53 2.84-.75 3.72" filter="url(#a)"/><path d="m-49.56-56.72-2.25 1.96-3.67 1.93-3.4 2.2-2.47 2.36-1.75 2.42-1.41 2.45-1.24 2.45-1.15 2.46-1.13 2.49-1.17 2.52-1.21 2.54-1.22 2.57-1.18 2.58-1.11 2.59-1.04 2.58-.96 2.59-.9 2.6-.82 2.63-.75 2.66-.71 2.7-.71 2.74-.72 2.77-.74 2.78-.72 2.76-.7 2.74-.7 2.69-.74 2.65-.83 2.62-.95 2.63-1.02 2.64-.96 2.63-.8 2.57-.72 2.45-.79 2.28-.44 2.09 1.37 1.8" filter="url(#a)"/><path d="m-51.35-53.57-4.42 1.53-1.2 1.54-2.34 2.01-3.76 2.28-4.34 2.34-3.85 2.33-2.65 2.31-1.34 2.36-.4 2.43-.02 2.5-.13 2.56-.6 2.56-1.24 2.56-1.93 2.54-2.55 2.54-2.96 2.57-3.03 2.63-2.72 2.68-2.06 2.72-1.21 2.71-.43 2.69.04 2.64.02 2.61-.53 2.58-1.49 2.62-2.52 2.67-3.14 2.76-3.05 2.82-2.38 2.81-1.73 2.72-.99 3.08" filter="url(#a)"/><path d="m-52.33-51.32-2.3.65-2.37 1.99-1.39 2.39-.79 2.39-.71 2.32-.8 2.26-.85 2.29-.86 2.39-.88 2.48-.92 2.56-.94 2.56-.91 2.54-.84 2.48-.82 2.45-.91 2.49-1.06 2.58-1.18 2.7-1.18 2.77-.98 2.77-.71 2.73-.54 2.7-.65 2.75-.87 3.35M62.5-22.15l.29-1.9-.16-2.55-.58-2.56-.69-2.5-.66-2.5-.65-2.5-.63-2.47-.58-2.37-.51-2.29-.47-2.2-.49-2.16-.61-2.15-.81-2.15-1.03-2.16-1.24-2.18-1.37-2.16-1.4-2.13-1.37-2.05-1.28-1.94-1.22-1.81-1.26-1.71-1.41-1.65-1.58-1.58-1.66-1.56-1.97-1.84" filter="url(#a)"/><path d="m-52.36-51.93-15.01 2.96-2.29 2.75 1.82 2.51 1.86 2.33.56 2.26-1.07 2.31-2.64 2.42-3.85 2.51-4.38 2.57-4.1 2.58-3.14 2.55-1.85 2.52-.65 2.52.13 2.55.28 2.62-.13 2.68-.96 2.72-1.92 2.72-2.74 2.69-3.24 2.62L-99 2.04l-3.01 2.56-2.35 2.59-1.47 2.67-.69 2.76-.74 2.85-1.81 2.8-1.87 1.71m58.58-71.91-1.4 2.99-1.48 2.75-1.83 2.53-2.06 2.35-1.91 2.29-1.44 2.35-.94 2.44-.66 2.53-.74 2.58-1.13 2.59-1.65 2.57-2.08 2.56-2.28 2.56-2.17 2.6-1.77 2.64-1.18 2.69-.55 2.71.02 2.7.43 2.69.62 2.67.58 2.64.38 2.65.08 2.65-.27 2.68-.54 2.7-.72 2.69-.73 2.65-.59 2.6-.34 2.54-.14 2.47-.07 2.45-.16 2.47-.29 2.51-.22 2.62.15 2.61.55 1.63" filter="url(#a)"/><path d="m-54.26-48.06-1.47 2.55-2.64 2.39-3.04 2.4-2.3 2.42-1.52 2.45-1.28 2.5-1.45 2.54-1.66 2.57-1.7 2.59-1.63 2.57-1.65 2.56-1.86 2.55-2.19 2.58-2.49 2.6-2.64 2.64-2.66 2.69-2.6 2.73-2.5 2.76L-93.9.82l-2.18 2.77-1.99 2.73-1.91 2.66-2.09 2.6-2.41 2.57-2.53 2.61-2.12 2.69-1.42 2.73-1.19 2.58-.6 1.79M-55-45.66l-1.1 2.33-.96 2.22-.84 2.11-.79 2.21-.75 2.39-.72 2.53-.68 2.59-.63 2.59-.58 2.54-.52 2.48-.46 2.46-.39 2.51-.34 2.6-.29 2.68-.25 2.74-.2 2.73-.16 2.68-.12 2.6-.07 2.52V4.3l.08 2.54.17 2.86.15 2.99" filter="url(#a)"/><path d="m-55.66-45.04-7.8 2.03-.16 2.39-.76 2.43-2 2.47-2.08 2.51-1.5 2.56-1.02 2.6-.94 2.6-1.19 2.58-1.49 2.58-1.63 2.57-1.57 2.59-1.37 2.63-1.16 2.67-1.07 2.7-1.12 2.74-1.19 2.77-1.21 2.77-1.06 2.76-.78 2.72-.47 2.68-.28 2.65-.28 2.63-.38 2.62-.46 2.6-.4 2.59-.16 2.53.1 2.47.21 2.43-.03 2.42-.59 2.5-1.12 2.6-.75 2.62 1.3 2.65" filter="url(#a)"/><path d="m-56.17-43.67-1.56 3.07-1.91 2.44-1.53 2.46-.89 2.5-.49 2.55-.43 2.58-.59 2.6-.8 2.58-.93 2.56-.94 2.55-.83 2.57-.65 2.6-.5 2.65-.4 2.69-.34 2.73-.29 2.77-.23 2.78-.16 2.76-.08 2.72-.07 2.66-.1 2.61-.2 2.6-.26 2.61-.22 2.64-.05 2.65.21 2.57.42 2.45.26 2.31-.3 2.06" filter="url(#a)"/><path d="m-57.49-39.81-.69 1.1-1.11 2.02-1.26 2.48-1.37 2.65-1.44 2.68-1.37 2.64-1.19 2.57-.98 2.52-.78 2.52-.63 2.58-.5 2.64-.41 2.7-.38 2.72-.37 2.71-.37 2.69-.38 2.65-.32 2.63-.21 2.64-.05 2.64.16 2.68.35 2.68.45 2.68.46 2.65.38 2.59.27 2.52.2 2.48.22 2.45.37 2.46.54 2.5.63 2.52.54 2.45.28 2.13-.19 1.83M62.3-23.56l-.57-2.87-.62-2.71-.59-2.53-.44-2.45-.18-2.41.08-2.36.21-2.3.18-2.24.02-2.17-.26-2.13-.62-2.09-.98-2.08-1.31-2.05-1.53-2.04-1.61-2.02-1.58-2.02-1.47-2.01-1.34-2-1.22-1.97-1.15-1.93-1.14-1.88-1.19-1.8-1.33-1.69-1.48-1.58-1.65-1.46-1.76-1.32-1.78-1.22-1.74-1.14-1.67-1.08-1.64-1.02-1.68-.96-1.76-.89-1.84-.79-1.89-.69-1.75-.65" filter="url(#a)"/><path d="m62.3-23.56-.6-2.83-.62-2.67-.6-2.5-.53-2.41-.46-2.38-.38-2.35-.32-2.28-.28-2.21-.3-2.14-.4-2.1-.55-2.07-.76-2.04-.97-2.02-1.17-2-1.32-2-1.4-2-1.36-1.99-1.25-1.98-1.11-1.97-1.03-1.97-1.12-1.95-1.53-1.97-2.19-2.18m-99.79 34.26-2.51 1.32-6.24 2.39-6.11 2.52-3.54 2.57-1.36 2.62-.36 2.62-.19 2.6-.37 2.57-.67 2.57-1.09 2.6-1.59 2.63-2.08 2.68-2.42 2.71-2.5 2.75-2.28 2.77-1.81 2.77-1.19 2.76-.53 2.72.07 2.69.56 2.65.91 2.63 1.09 2.61 1.04 2.6.78 2.57.3 2.53-.3 2.49-.89 2.47-1.34 2.45-1.57 2.46-1.61 2.45-1.51 2.44-1.31 2.39-1.02 2.34-.59 2.28.08 2.09.01 1.82" filter="url(#a)"/><path d="m-57.87-39.26-1.95 2.28-.74 2.72-.92 2.76-1.21 2.73-1.19 2.66-.92 2.57-.61 2.52-.34 2.52-.17 2.58-.11 2.66-.11 2.7-.17 2.73-.28 2.72-.38 2.69-.48 2.66-.55 2.65-.58 2.64-.58 2.66-.5 2.67-.36 2.68-.17 2.67.05 2.63.27 2.59.44 2.54.55 2.51.61 2.48.66 2.47.68 2.49.71 2.5.7 2.51.65 2.53.59 2.58.62 2.64.8 2.59 1.08 2.38 1.43 2.23" filter="url(#a)"/><path d="m-57.73-39.37-1.82 3.61-1.17 2.72-.85 2.56-.86 2.61-.81 2.64-.65 2.59-.44 2.56-.29 2.55-.27 2.58-.29 2.62-.35 2.66-.36 2.71-.36 2.74-.33 2.77-.29 2.78-.23 2.75-.17 2.72-.08 2.67.01 2.64.11 2.62.17 2.61.21 2.59.19 2.58.2 2.52.22 2.48.33 2.43.49 2.43.68 2.47.82 2.51.89 2.44.78 2.11.21 1.34" filter="url(#a)"/><path d="m-57.73-39.37-1.61 3.61-1.91 2.72-2.05 2.56-1.75 2.61-1.36 2.64-1.09 2.59-.98 2.56-1.03 2.55-1.22 2.58-1.41 2.62-1.52 2.66-1.49 2.71-1.37 2.74-1.29 2.77-1.33 2.78-1.54 2.75-1.81 2.72-2.06 2.67-2.21 2.64-2.26 2.62-2.24 2.61-2.2 2.59-2.12 2.58-1.96 2.52-1.73 2.48-1.41 2.43-1.09 2.43-.87 2.47-.8 2.51-.91 2.44-1 2.11-.93 1.34m47.92-80.79-1.28 3.28-1.02 2.83-.95 2.75-.81 2.68-.68 2.56-.62 2.49-.62 2.49-.64 2.57-.69 2.65-.72 2.72-.74 2.73-.74 2.72-.7 2.69-.61 2.65-.45 2.64-.22 2.63.01 2.66.23 2.67.37 2.68.42 2.66.39 2.64.33 2.58.25 2.54.23 2.49.25 2.47.31 2.47.36 2.48.39 2.5.41 2.49.48 2.52.63 2.59.89 2.71.98 2.67.56 2.03" filter="url(#a)"/><path d="m-58.36-37.55-1.36 3.28-1.09 2.83-.72 2.75-.55 2.67-.48 2.56-.47 2.48-.44 2.49-.39 2.57-.33 2.65-.28 2.71-.23 2.74-.19 2.72-.16 2.68-.12 2.65-.09 2.63-.04 2.63.02 2.65.08 2.67.14 2.68.22 2.67.28 2.64.35 2.58.41 2.53.48 2.49.55 2.46.62 2.47.65 2.48.68 2.49.69 2.48.75 2.48.91 2.59 1.19 2.92 1.24 3.14" filter="url(#a)"/><path d="m-60.24-32.03-1.96 4.02-.69 3.08-.54 2.66-.96 2.49-1.59 2.49-2.16 2.56-2.47 2.63-2.49 2.68-2.33 2.72-2.05 2.76-1.68 2.78-1.21 2.78-.69 2.76-.24 2.71.07 2.67.19 2.64.22 2.62.28 2.6.41 2.59.59 2.56.7 2.52.62 2.49.35 2.45-.08 2.45-.47 2.45-.67 2.44-.62 2.42-.39 2.38-.23 2.33-.25 2.27-.17 2.22.58 2.25 1.95 2.74" filter="url(#a)"/><path d="m-60.84-29.22-4.46 3.58-2.78 2.66.01 2.34.68 2.36.04 2.54-.97 2.69-1.78 2.77-2.14 2.78-2.03 2.74-1.64 2.69-1.17 2.66-.77 2.63-.46 2.64-.23 2.66-.11 2.67-.1 2.68-.29 2.66-.62 2.63-1 2.58-1.26 2.54-1.24 2.51-.87 2.5-.27 2.48.43 2.5.99 2.5 1.29 2.52 1.26 2.52.98 2.52.61 2.5.3 2.43.13 2.35.14 2.23.22 2.15.28 2.12.26 2.14.29 2.15.66 1.8" filter="url(#a)"/><path d="m-60.84-29.22-1.81 3.57-1.12 2.65-.35 2.33-.07 2.34-.07 2.52-.16 2.68-.26 2.77-.31 2.77-.32 2.74-.29 2.68-.23 2.63-.16 2.62-.1 2.63-.06 2.64-.01 2.67.02 2.68.06 2.66.1 2.63.15 2.58.19 2.52.24 2.49.29 2.47.35 2.46.45 2.48.53 2.49.6 2.5.62 2.53.62 2.57.62 2.62.68 2.59.82 2.37 1.24 2.22m120.1-81.36-.55-2.18-.31-2.31.21-2.48.66-2.55.69-2.5.22-2.4-.5-2.29-1.16-2.21-1.55-2.19-1.64-2.17-1.53-2.18-1.36-2.17-1.18-2.17-1.06-2.12-1.01-2.08-.99-1.99-1.02-1.9-1.06-1.81-1.12-1.72-1.16-1.65-1.2-1.57-1.25-1.51-1.31-1.47-1.4-1.41-1.52-1.36-1.66-1.29-1.82-1.23-2-1.14-2.15-1.06-2.28-.97-2.34-.89-2.39-.82-2.55-.75-2.88-.7-3.17-.63-2.61-.6" filter="url(#a)"/><path d="m61.08-29.56-.39-2.43-.25-2.3-.53-2.37-.61-2.38-.57-2.31-.56-2.22-.63-2.15-.71-2.11-.81-2.08-.9-2.06-1-2.04L53-56.04l-1.26-2.03-1.43-2.01-1.59-2-1.7-1.99-1.78-1.97-1.8-1.94-1.79-1.88-1.74-1.8-1.69-1.7-1.62-1.58-1.58-1.44-1.55-1.32-1.55-1.21-1.57-1.13-1.62-1.07-1.69-1.03-1.76-.98-1.85-.89-1.94-.77-2.14-.67" filter="url(#a)"/><path d="m59.59-34.13.1-2.53.8-2.56.65-2.36.25-2.19-.3-2.11-.91-2.09-1.4-2.07-1.65-2.06-1.63-2.03-1.42-2.03-1.15-2.01-.93-2.02-.85-2-.91-1.99-1.07-1.96-1.27-1.93-1.45-1.87-1.59-1.79-1.66-1.69-1.72-1.57-1.79-1.43-1.87-1.31-1.99-1.21-2.08-1.12-2.1-1.07-2.02-1.02-1.88-.96-1.77-.88-1.73-.78-1.81-.69-1.9-.65" filter="url(#a)"/><path d="m59.59-34.13 1.24-2.54.99-2.56-.48-2.36-1.06-2.2-.81-2.11-.4-2.09-.24-2.08-.47-2.06-.94-2.04-1.39-2.03-1.66-2.02-1.73-2.01L51-62.24l-1.52-1.99-1.47-1.96-1.48-1.92-1.58-1.87-1.7-1.78-1.81-1.68L39.57-75l-1.89-1.43-1.86-1.31-1.81-1.21-1.74-1.13-1.69-1.07-1.67-1-1.65-.94-1.68-.87-1.72-.78-1.81-.69-1.98-.61-2.22-.54-2.07-.51" filter="url(#a)"/><path d="m59.53-34.33-.07-2.79-.62-2.75-.44-2.4-.41-2.2-.5-2.13-.59-2.14-.7-2.14-.79-2.17-.89-2.18-.95-2.17-.99-2.14-1.02-2.07-1.08-1.99-1.2-1.9-1.4-1.79-1.6-1.7-1.78-1.63-1.85-1.56-1.83-1.5-1.74-1.46-1.64-1.41-1.6-1.35-1.63-1.3-1.7-1.22-1.79-1.15-1.83-1.05-1.87-.96-1.97-.88-2.2-.82-2.57-.76-3.05-.69-3.2-.56" filter="url(#a)"/><path d="m59.07-36.52 1.6-2.84.41-2.39-1.15-2.14-1.11-2.07-.2-2.07.61-2.07.84-2.05.55-2.04.11-2.02-.14-2.01-.11-2.01.08-2 .23-1.99.12-1.96-.29-1.93-.94-1.87-1.73-1.79-2.47-1.69-2.98-1.56-3.17-1.43-3.02-1.3-2.64-1.2-2.21-1.12-1.92-1.07-1.8-1.02-1.82-.96-1.9-.87-2.13-.78-2.4-.69-1.99-.65" filter="url(#a)"/><path d="m59.07-36.52 2.66-2.85 1.85-2.4-1.04-2.15L60.35-46l-2.07-2.08-1.58-2.08-1.22-2.06-1.08-2.05-1.08-2.03-1.1-2.02-1.12-2.02-1.13-2-1.18-1.99-1.27-1.96-1.39-1.92-1.5-1.85-1.56-1.77-1.59-1.66-1.58-1.55-1.55-1.42-1.56-1.31-1.58-1.22-1.63-1.12-1.69-1.06-1.76-.99-1.8-.93-1.85-.85-1.92-.78-2.05-.7-2.23-.65-2.44-.6-2.7-.57-2.95-.53-3.16-.43-2.68-.27" filter="url(#a)"/><path d="m57.71-39.85 3.9-2.16 2.45-2.05.32-2.01-.09-2.06-.02-2.09-.13-2.06-.61-2.04-1.35-2.02-2.11-2.02-2.62-2.02-2.78-2-2.6-1.99-2.2-1.96-1.77-1.92-1.38-1.85-1.11-1.77-.97-1.66-.95-1.54-1.02-1.42-1.16-1.31-1.33-1.21-1.53-1.12-1.71-1.05-1.87-.99-1.98-.93-2.07-.85-2.13-.77-2.24-.71-2.43-.64-2.74-.6-3.14-.57-3.54-.53-3.7-.43-3.12-.27" filter="url(#a)"/><path d="m57.45-41.27 4.5-1.59-.66-1.83-1.56-2.01-1.29-2.09-.59-2.13-.05-2.16-.02-2.18-.53-2.17-1.23-2.15-1.82-2.08-2.08-1.99-1.98-1.88-1.61-1.78-1.17-1.68-.84-1.61-.68-1.55-.72-1.49-.89-1.45-1.09-1.41-1.32-1.37-1.59-1.32-1.91-1.25-2.05-1.16-1.76-1.04-1.19-.92-1.65-.86" filter="url(#a)"/><path d="m57.45-41.27-.73-1.58-.79-1.82-.93-2-1-2.09-1.06-2.13-1.14-2.15-1.24-2.17-1.33-2.17-1.4-2.14-1.43-2.09-1.43-1.99-1.42-1.88-1.42-1.78-1.44-1.68-1.48-1.61-1.51-1.54-1.55-1.49-1.56-1.44-1.61-1.41-1.69-1.39-1.81-1.34-1.95-1.29-1.98-1.2-1.64-1.19" filter="url(#a)"/><path d="m56.8-41.86-.41-2.35 1.89-1.91 3.73-2.06 3.88-2.11 2.52-2.08.36-2.04-1.8-2.02-3.31-2.02-3.86-2.02-3.55-2.01-2.72-1.99-1.77-1.96-1.04-1.91-.66-1.85-.65-1.76-.87-1.65-1.21-1.53-1.56-1.41-1.87-1.3-2.13-1.2-2.31-1.12-2.41-1.05-2.43-.98-2.39-.92-2.32-.84-2.28-.77-2.31-.7-2.43-.65-2.61-.59-2.85-.54-3.07-.47-3.25-.4-3.33-.31-3.39-.2-3.52-.09-3.18.13" filter="url(#a)"/><path d="m56.8-41.86-.31-2.34-.38-1.9-.87-2.05-.92-2.11-.6-2.06-.09-2.03.38-2.02.59-2.01.43-2.01-.04-2-.67-1.99-1.29-1.96-1.8-1.92-2.11-1.86-2.25-1.77-2.22-1.67-2.13-1.54-2.03-1.41-1.98-1.3-1.98-1.2-1.97-1.12-1.92-1.06-1.79-.99-1.63-.93-1.54-.86-1.59-.77-1.8-.69-2.14-.63-2.47-.59-2.73-.63-3.58-.78" filter="url(#a)"/><path d="m55.92-44.25-.54-2.51.19-2.19-.06-2.18-.37-2.18-.6-2.2-.84-2.19-1.07-2.16-1.15-2.08-1.1-1.98-.96-1.87-.86-1.77-.89-1.67-1.06-1.61-1.3-1.54-1.5-1.49-1.6-1.44-1.57-1.39-1.5-1.33-1.43-1.28-1.47-1.19-1.61-1.12-1.86-1.04-2.13-.95-2.4-.87-2.6-.81-2.76-.73-2.84-.66-2.82-.58-2.66-.47-2.33-.33-1.87-.14-1.15-.01" filter="url(#a)"/><path d="m54.4-47.37 3.47-1.71 1.22-2.12-.71-2.19-2.35-2.21-2.92-2.21-2.67-2.16-2.02-2.09-1.37-1.98-.9-1.87-.7-1.75-.77-1.68-1.04-1.6-1.41-1.53-1.73-1.49-1.92-1.44-1.95-1.38-1.82-1.32-1.62-1.26-1.43-1.19-1.35-1.1-1.4-1.03-1.6-.94-1.88-.87-2.16-.78-2.41-.72-2.53-.63-2.58-.54-2.54-.44-2.52-.35-2.56-.26-2.69-.18-2.9-.13-3.05-.07h-3.04l-3.16-.03" filter="url(#a)"/><path d="m53.33-50.93-2.53-1.96-3.38-1.78-2.4-1.95-1.21-2.04-.8-2.04-1.06-2.02-1.58-1.99-2-1.96-2.17-1.92-2.13-1.85-1.97-1.75-1.77-1.64-1.61-1.5-1.54-1.39-1.56-1.27L24-79.17l-1.7-1.11-1.77-1.03-1.81-.96-1.81-.9-1.79-.83-1.75-.76-1.71-.69-1.65-.64-1.61-.57-1.55-.52-1.49-.45L3.95-88l-1.31-.28-1.21-.2-1.11-.1-.99-.03-.83.04-.65.1-.56.09" filter="url(#a)"/><path d="m53.33-50.93-1.29-1.96-1.13-1.79-1.25-1.95-1.36-2.03-1.42-2.05-1.49-2.02-1.55-1.99-1.61-1.96-1.66-1.92-1.72-1.85-1.73-1.75-1.72-1.63-1.71-1.51-1.67-1.39L30.37-78l-1.64-1.18-1.65-1.1-1.67-1.03-1.71-.96-1.73-.9-1.78-.83-1.82-.76-1.88-.69-1.93-.63-2-.58-2.05-.51-2.07-.44-2.09-.37-2.06-.28-2.03-.19-1.97-.1-1.91-.03-1.8.06-1.7.12-1.81.23-2.46.44" filter="url(#a)"/><path d="m52.34-52.04-.81-1.53-1.25-2.16-1.22-2.21-1.25-2.19-1.34-2.12-1.39-1.98-1.42-1.84-1.4-1.74-1.41-1.65-1.41-1.58L38-72.57l-1.5-1.48-1.58-1.43-1.66-1.37-1.76-1.32-1.82-1.26-1.87-1.18-1.9-1.1-1.92-1.01-1.95-.94-1.99-.85-2.03-.78-2.08-.71-2.09-.62-2.06-.53-2.01-.44-1.95-.35-1.92-.25-1.97-.18-2.07-.13-2.16-.05-2.15.01-2.05.09-1.83.25" filter="url(#a)"/><path d="m51.61-53.48 2.43-1.19-.73-1.91-.83-2.08-1.12-2.06-1.52-2.01-1.61-1.98-1.43-1.96-1.23-1.92-1.19-1.85-1.33-1.76-1.54-1.64-1.67-1.51-1.67-1.38-1.54-1.26-1.34-1.17-1.18-1.1-1.08-1.03-1.1-.98-1.21-.9-1.44-.84-1.72-.76-2.06-.69-2.4-.64-2.74-.59-3.09-.55-3.38-.5-3.4-.41-2.95-.28-2.09-.16" filter="url(#a)"/><path d="m51.61-53.48.08-1.16.9-1.89.27-2.06-1-2.04-1.82-1.99-1.95-1.96-1.68-1.94-1.36-1.92-1.17-1.86-1.15-1.78-1.22-1.67-1.29-1.52-1.29-1.38-1.24-1.25-1.17-1.16-1.13-1.09-1.18-1.05-1.26-1.01-1.37-.95-1.55-.88-1.82-.75-2.55-.66" filter="url(#a)"/><path d="m52.34-52.47-2.13-3.24-1.5-2.29-1.51-2.22-1.53-2.13-1.49-1.99-1.47-1.83-1.5-1.72-1.54-1.64-1.62-1.57-1.68-1.53-1.74-1.47-1.78-1.43-1.8-1.37-1.81-1.32-1.81-1.25-1.78-1.17-1.78-1.1-1.78-1.01-1.8-.93-1.84-.85-1.89-.78-1.94-.69-1.94-.62-1.93-.52-1.87-.44-1.81-.34-1.78-.26-1.79-.18-1.84-.11-1.87-.06-1.83.01-1.74.07-1.61.11-1.53.04" filter="url(#a)"/><path d="m52.34-52.47 4.12-3.22-2.02-2.28-3.22-2.2-2.84-2.13-2.1-1.98-1.46-1.82-.99-1.71-.69-1.63-.54-1.57-.49-1.52-.46-1.47-.44-1.42-.42-1.38-.47-1.33-.6-1.27-.82-1.19-1.11-1.11-1.44-1.02-1.82-.94-2.2-.86-2.55-.8-2.86-.73-3.11-.67-3.26-.59-3.25-.5-3.07-.33-2.57-.03" filter="url(#a)"/><path d="m49.17-57.23-.23-.98.36-2.04 1.11-2.17.97-1.99.22-1.8-.7-1.68-1.44-1.62-1.76-1.56-1.65-1.51-1.27-1.46-.9-1.42-.78-1.38-.99-1.32-1.44-1.27-1.92-1.18-2.25-1.11-2.33-1.02-2.2-.93-2.03-.86-2.07-.8-2.42-.73-2.96-.66-3.38-.6-3.3-.49-2.73-.33-2.05-.03" filter="url(#a)"/><path d="m49.28-57.17-3.07-2.88-4.77-2.5-3.77-2.03-2.54-1.76L33.02-68l-2.07-1.6-1.85-1.56-1.43-1.5-1.06-1.46-.94-1.42-1.16-1.37-1.54-1.32-1.91-1.26-2.09-1.17-2.03-1.1-1.79-1.01-1.53-.93-1.38-.85-1.41-.79-1.57-.72-1.74-.64-1.75-.56-1.56-.45-1.23-.32-.88-.21-.72-.19-1.02-.36" filter="url(#a)"/><path d="m45.75-62.63-.29-2.23 1.72-2.18.95-2.01-.71-1.89-2-1.76-2.65-1.62-2.7-1.46-2.38-1.32-1.94-1.21-1.57-1.13-1.38-1.07-1.35-1-1.45-.94-1.61-.87-1.79-.81-2-.74-2.22-.67-2.46-.61-2.66-.55-2.81-.48-2.91-.42-2.95-.33-2.97-.26-2.99-.16-3.01-.09h-3.05l-3.11.09-3.22.16-3.4.23-3.63.31-3.84.37-3.95.45-3.99.54-4.31.68-5.29.79" filter="url(#a)"/><path d="m45.75-62.63-1.89-2.21L41.95-67l-1.87-2-1.97-1.87-2.1-1.77-2.09-1.61-1.95-1.46-1.77-1.32-1.61-1.21-1.53-1.12-1.53-1.07-1.56-1.01-1.6-.95-1.64-.89-1.69-.82-1.75-.74-1.82-.68-1.9-.62-1.96-.58-1.98-.52-1.99-.47-1.93-.39-1.84-.29-1.75-.19-1.71-.09-1.45.13" filter="url(#a)"/><path d="m43.45-65.39-.05-1.19.52-1.56.06-1.64-.43-1.56-.3-1.5.12-1.43.24-1.4-.21-1.36-1.07-1.31-1.93-1.25-2.44-1.17-2.55-1.08-2.37-1-2.16-.91-2.11-.85-2.28-.77-2.59-.72-2.86-.65-2.88-.56-2.62-.46-2.18-.31-1.69-.13-1.11-.01" filter="url(#a)"/><path d="m44.06-64.63-2.01-2.57-1.51-1.97-1.63-1.86-1.7-1.77-1.64-1.61-1.49-1.45-1.36-1.3-1.28-1.2-1.3-1.12-1.37-1.06-1.49-1-1.62-.94-1.73-.87-1.81-.8-1.89-.74-1.96-.67-2.03-.61-2.11-.55-2.21-.48-2.3-.42-2.36-.33-2.39-.26-2.4-.17-2.39-.08h-2.35l-2.32.08-2.29.15-2.29.24-2.3.3-2.27.37-2.23.42-2.34.52-2.74.75" filter="url(#a)"/><path d="m43.04-66.34-1.58-1.76-1.61-1.76-1.51-1.59-1.46-1.49-1.46-1.42-1.49-1.39-1.55-1.36-1.6-1.31-1.63-1.24-1.63-1.17-1.64-1.07-1.62-.99-1.64-.91-1.67-.83-1.76-.77-1.89-.7-1.99-.62-2.06-.54-2.04-.44-1.96-.32-1.96-.23-2.17-.18-2.68-.19-2.9-.11" filter="url(#a)"/><path d="m41.2-68.09-.61-1.26-.43-1.76.2-1.78.24-1.63-.44-1.43-1.38-1.28-2.09-1.18-2.35-1.11-2.28-1.05-2.04-1-1.81-.93-1.68-.88-1.69-.8-1.81-.73-2-.67-2.21-.6-2.41-.55-2.56-.49-2.67-.42-2.74-.34-2.79-.25-2.81-.17L0-88.49h-2.86l-2.9.07-2.99.16-3.17.24-3.4.3-3.51.35-3.34.38-3.43.43" filter="url(#a)"/><path d="m41.2-68.09-.02-1.26-1.64-1.75-1.95-1.78-1.91-1.62-1.78-1.43-1.64-1.29-1.56-1.17-1.56-1.1-1.59-1.05-1.66-1-1.71-.94-1.76-.88-1.8-.8-1.83-.74-1.89-.67-1.96-.61-2.04-.55-2.11-.5-2.15-.44-2.16-.35-2.13-.27-2.11-.18-2.07-.09-2.02-.02-1.92.05-1.83.13-1.97.23-2.7.44" filter="url(#a)"/><path d="m39.36-70.63-.39-1.18 1.39-1.35 1.17-1.4-.02-1.39-1.2-1.37-1.98-1.31-2.24-1.24-2.17-1.14-2.03-1.06-1.99-.97-2.09-.89-2.28-.81-2.47-.73-2.62-.66-2.67-.58-2.63-.48-2.58-.4-2.53-.31-2.54-.23-2.6-.15-2.71-.09-2.8-.02-2.88.05-2.96.12-3.06.2-3.22.28-3.41.37-3.64.45-3.88.51-4.18.59-4.54.67-4.8.81-4.6.94" filter="url(#a)"/><path d="m39.03-71.14-1.23-2.05-.09-1.64.12-1.37-.51-1.21L36-78.54l-1.8-1.08-1.91-1.04-1.79-1-1.66-.93-1.66-.86-1.8-.79-2.06-.73-2.34-.65-2.55-.6-2.67-.54-2.7-.48-2.69-.41-2.66-.32-2.64-.25-2.64-.16-2.66-.07H-2.9l-2.69.09-2.72.16-2.76.24-2.84.31-3 .38-3.25.45-3.63.54-4.14.68-4.96.78" filter="url(#a)"/><path d="m37.91-71.76-.96-1.37-.28-1.43-.6-1.4-1.35-1.37-1.91-1.31-2.1-1.24-2.08-1.14-1.97-1.05-1.9-.97-1.86-.88-1.89-.82-1.95-.74-2.03-.67-2.09-.6-2.09-.5-2.09-.41-2.08-.32-2.14-.23-2.24-.17-2.36-.11-2.42-.04-2.39.01-2.31.08-2.24.1-2.24.04" filter="url(#a)"/><path d="m34.49-75.09-1.68-1.39-1.19-1.1-.78-1.07-.47-1.07-.51-1.03-.85-1-1.28-.93-1.63-.86-1.88-.78-2.06-.71-2.23-.65-2.39-.59-2.51-.53-2.58-.47-2.59-.4-2.56-.32-2.54-.24-2.53-.15-2.56-.07-2.6.02-2.67.09-2.76.17-2.89.24-3.04.32-3.18.39-3.31.46-3.44.55-3.58.66-3.58.75-3.07.77" filter="url(#a)"/><path d="m32.21-77 .14-.67-.45-1.03-.82-1.07-.61-1.05-.48-.99-.74-.94-1.34-.85-1.97-.78-2.45-.7-2.7-.64-2.78-.58-2.77-.53-2.74-.45-2.71-.39-2.66-.3-2.63-.23-2.59-.13-2.55-.05-2.53.03-2.52.11-2.56.18-2.65.27-2.85.34-3.1.41-3.39.5-3.63.57-3.77.65-3.75.72-3.62.79-3.57.86-3.71.97-4.04 1.1-4.28 1.25-4.27 1.55" filter="url(#a)"/><path d="m32.21-77 .01-.66-.82-1.02-1.02-1.06-1.33-1.04-1.65-.99-1.85-.93-1.87-.86-1.85-.78-1.85-.7-1.91-.65-2.02-.59-2.13-.53-2.2-.49-2.26-.41-2.32-.33-2.37-.25-2.42-.16-2.47-.08h-2.52l-2.55.08-2.64.15-2.76.24-2.88.32-2.73.36-2.3.27" filter="url(#a)"/><path d="m34.16-75.56-1.63-1.89.62-1.43.77-1.25-.35-1.12-1.51-1.02-2.18-.94-2.42-.86-2.49-.79-2.55-.73-2.62-.65-2.67-.57-2.62-.48-2.53-.39-2.46-.3-2.47-.22-2.62-.15-2.82-.09-3.02-.04-3.18.04-3.29.1-3.39.17-3.57.26-3.92.37-4.52.48-5.4.51" filter="url(#a)"/><path d="m34.16-75.56 3.97-1.9-3.63-1.45-3.92-1.25-2.66-1.13-1.61-1.03-1.14-.93-1.22-.86-1.56-.79-1.95-.72-2.25-.64-2.4-.55-2.44-.46-2.44-.38-2.41-.28-2.42-.21-2.48-.14-2.55-.06h-2.67l-2.79.07-2.92.15-3.07.23-3.21.3-3.32.39-3.39.46-3.45.55-3.5.62-3.56.69-3.68.77-3.82.84-3.95.91-4.06 1-4.25 1.16-4.63 1.35-4.93 1.34" filter="url(#a)"/><path d="m29.71-79.14-.99-.77-1.77-1-1.81-1-1.71-.94-1.64-.85-1.63-.76-1.7-.69-1.81-.63-1.93-.58-2.06-.52-2.15-.45-2.2-.39-2.2-.3-2.18-.22-2.13-.13-2.09-.05-2.05.04-2.02.11-2.03.19-2.04.26-2.09.34-2.13.41-2.19.49-2.24.57-2.3.65-2.32.72-2.3.78-2.27.84-2.29.95-2.36 1.07-1.9.89" filter="url(#a)"/><path d="m28.55-79.62-.22-1.27-.75-1.06-1.66-.95-1.59-.84L23-84.5l-1.38-.67-1.75-.62-2.18-.58-2.51-.52-2.65-.47-2.67-.39-2.65-.31-2.64-.23-2.65-.14-2.68-.06-2.69.02-2.69.1-2.72.17-2.77.24-2.87.32-3.01.38-3.26.44-3.75.55-4.42.67-4.54.78" filter="url(#a)"/><path d="m28.55-79.62-1.68-1.27-1.46-1.06-1.58-.95-1.71-.85-1.76-.75-1.75-.68-1.78-.62-1.88-.57-2.01-.52-2.16-.47-2.23-.39-2.25-.31-2.24-.22-2.19-.14-2.15-.06-2.11.03-2.09.1-2.11.18-2.17.24-2.27.32-2.37.39-2.5.46-2.63.56-2.8.65-2.92.75-2.59.77" filter="url(#a)"/><path d="m24.47-82.03-1.43-1.01-1.34-.86-1.19-.74-1.34-.65-1.68-.6-2.04-.56-2.28-.52-2.39-.45-2.42-.37-2.39-.29-2.36-.2-2.32-.11-2.29-.03-2.27.05-2.26.12-2.3.21-2.37.28-2.5.35-2.66.43-2.83.51-2.96.58-3 .66-2.98.73-2.93.82-2.96.9-3.14 1-3.42 1.14-3.65 1.29-3.67 1.44-3.47 1.49-3.26 1.26" filter="url(#a)"/><path d="m23.45-82.84-1.21-.71-1.51-.8-1.66-.76-1.76-.71-1.89-.63-1.98-.55-2.02-.45-2.04-.34-2.05-.27-2.09-.18-2.16-.12-2.21-.07-2.25.01-2.28.06-2.31.14-2.4.22-2.55.3-2.78.38-3.04.45-3.29.53-3.47.6-3.57.68-3.55.79-3.35.88-3 .89" filter="url(#a)"/><path d="m21.72-83.48-1.71-.89-1.8-.8-2-.72-2.1-.63-2.07-.54-1.96-.43-1.85-.34-1.82-.24-1.85-.18-1.92-.1-1.98-.05-2.03.03-2.04.09-2.07.17-2.09.24-2.13.33-2.2.41-2.28.48-2.35.56-2.39.64-2.39.71-2.34.79-2.28.86-2.25.94-2.28 1.03-2.39 1.13-2.5 1.21-2.61 1.28-2.67 1.35-2.77 1.57-2.7 2.08" filter="url(#a)"/><path d="m20.98-84.25-1.35-.54-1.46-.58-1.47-.58-1.67-.56-1.93-.52-2.12-.45-2.22-.38-2.29-.28-2.37-.19-2.47-.11-2.57-.02-2.63.05-2.72.13-2.82.21-3.02.28-3.32.35-3.7.43-4.08.51-4.34.58-4.36.66-4.11.73-3.75.8-3.5.88-3.65.99-4.26 1.13-5.11 1.29-6.01 1.52-6.89 1.79" filter="url(#a)"/><path d="m19.58-84.74-1.86-.65-1.13-.6-1.02-.56-1.55-.52-2.17-.46-2.53-.37-2.7-.27-2.73-.18-2.72-.08-2.64-.01-2.58.07-2.54.15-2.57.23-2.7.31-2.9.38-3.13.45-3.34.54-3.46.61-3.5.7-3.48.77-3.44.87-3.42.96-3.48 1.06-3.66 1.16-3.98 1.24-4.38 1.31-4.76 1.36-4.96 1.38-4.79 1.42-4.31 1.48-3.75 1.62-3.59 1.77-3.99 1.86-4.34 1.72-3.74 1.21" filter="url(#a)"/><path d="m19.58-84.74-1.97-.65-1.85-.59-1.88-.55-1.98-.53-2.07-.46-2.14-.38-2.18-.28-2.2-.19-2.24-.1-2.28-.02-2.34.05-2.42.13-2.58.2-2.78.28-3.02.35-3.26.42-3.47.49-3.57.58-3.58.65-3.53.72-3.53.78-3.63.84-3.83.94-3.81 1.07-2.32.88" filter="url(#a)"/><path d="m19.58-84.74-1.92-.65-1.77-.6-1.85-.56-1.98-.52-2.12-.46-2.18-.37-2.2-.27-2.18-.18-2.17-.09H-.96l-2.21.07-2.29.15-2.39.22-2.5.31-2.59.37-2.62.46-2.61.53-2.56.61-2.52.69-2.54.77-2.65.86-2.83.96-3.08 1.05-3.34 1.16-3.57 1.25-3.69 1.31-3.69 1.36-3.53 1.37-3.27 1.39-3.04 1.46-3.01 1.61-3.4 1.84-4.25 2.02-5.5 1.96" filter="url(#a)"/><path d="m17.83-85.44-1.27-.57-1.95-.62-1.93-.54-1.86-.43-1.89-.31-1.98-.23-2.08-.15-2.18-.09-2.24-.03-2.31.03-2.36.11-2.41.18-2.46.27-2.49.34-2.52.43-2.54.5-2.58.58-2.67.66-2.81.73-3 .81-3.26.89-3.55.98-3.83 1.05-4.01 1.14-4.07 1.22-4 1.3-3.87 1.35-3.75 1.41-3.69 1.45-3.74 1.52-3.97 1.61-4.36 1.75-4.65 1.86-4.75 1.74" filter="url(#a)"/><path d="m17.27-85.45-1.35-.58-1.6-.55-1.94-.53-2.2-.46-2.27-.37-2.25-.27-2.22-.17-2.22-.09h-2.25l-2.32.07-2.42.15-2.56.22-2.71.3-2.84.38-2.98.45-3.15.53-3.31.6-3.47.69-3.53.76-3.51.85-3.41.94-3.31 1.05-3.3 1.15-3.38 1.26-3.52 1.33-3.62 1.37-3.72 1.34-3.88 1.31-4.21 1.33-4.95 1.52-6.44 1.91" filter="url(#a)"/><path d="m17.27-85.45-1.03-.57-1.09-.54-1.39-.53-1.79-.47-2.16-.38-2.46-.28-2.67-.18-2.81-.1-2.89-.02-2.96.05-3.02.13-3.05.2-3.04.27-3.02.34-3.09.4-3.3.49-3.72.57-4.3.65-4.92.71-5.42.74-5.28.67-2.94.41" filter="url(#a)"/><path d="m15.9-86.11.64-.48-2.26-.54-3-.48-2.89-.38-2.61-.26-2.46-.18-2.41-.09-2.4-.01-2.42.06-2.49.13-2.67.21-2.99.28-3.35.34-3.64.42-3.77.49-3.77.58-3.85.65-4.28.71-5.09.76-5.84.81-6 .97-7.06 1.59" filter="url(#a)"/><path d="m13.35-86.56-1.85-.6-2.29-.52-2.22-.37-2.11-.25-2.04-.15-2.03-.07-2.03.02-2.03.09-2.02.17-2.03.24-2.03.32-2.04.39-2.07.48-2.12.55-2.16.63-2.24.71-2.31.8-2.39.89-2.45.98-2.5 1.07-2.53 1.17-2.54 1.25-2.51 1.31-2.48 1.37-2.43 1.41-2.36 1.46-2.29 1.52-2.21 1.58-2.16 1.65-2.19 1.68-2.3 1.67-2.51 1.69-2.7 1.81-2.82 2.13-2.95 2.6-3.84 3.31" filter="url(#a)"/><path d="m13.35-86.56-1.83-.59-2.24-.52-2.2-.38-2.13-.25-2.2-.15-2.31-.08-2.35.01-2.3.08-2.22.15-2.16.23-2.21.31-2.36.38-2.63.45-2.97.53-3.32.6-3.62.68-3.8.76-3.85.84-3.81.94-3.8 1.04-4 1.16-4.46 1.26-5.08 1.35-5.54 1.38-5.42 1.33-4.81 1.25-4.65 1.21-6.42 1.44" filter="url(#a)"/><path d="m13.35-86.56-1.83-.59-2.26-.53-2.2-.37-2.07-.25-2.02-.15-2-.08-2 .01-2.02.08-2.05.16-2.1.23-2.18.31-2.23.38-2.26.45-2.26.54-2.24.6-2.2.69-2.19.77-2.25.85-2.37.94-2.51 1.05-2.64 1.16-2.67 1.26-2.63 1.33-2.54 1.36-2.44 1.35-2.31 1.3-2.17 1.33-2.24 1.51-3.04 1.91" filter="url(#a)"/><path d="m13.35-86.56-.98-.6-1.56-.52-2.24-.37-2.5-.25-2.51-.15-2.43-.07-2.39.02-2.41.09-2.53.16-2.67.24-2.82.32-2.91.4-2.94.47-2.91.55-2.86.62-2.81.71-2.79.8-2.79.88-2.83.98-2.87 1.07-2.98 1.17-3.16 1.24-3.46 1.32-3.81 1.36-4.16 1.4-4.37 1.45-4.34 1.52-4.08 1.59-3.67 1.66-3.22 1.68-2.95 1.64-3.15 1.61-4.06 1.71-5.49 2.05-5.89 2.13" filter="url(#a)"/><path d="m10.72-87.29-1.39-.51-1.34-.28-1.37-.16-1.66-.12-2-.09-2.2-.03-2.27.03-2.3.1-2.35.18-2.48.26-2.63.34-2.79.42-2.93.5-3.02.57-3.05.65-3.05.72-3.02.79-3.04.86-3.13.94-3.31 1.03-3.54 1.13-3.79 1.21-4.06 1.27-4.42 1.35-5 1.56-6.89 2.07" filter="url(#a)"/><path d="m10.72-87.29-1.13-.51-1.29-.28-1.67-.16-1.96-.12-2.08-.08-2.1-.03-2.08.04-2.07.11-2.1.19-2.17.28-2.25.35-2.29.44-2.31.51-2.31.6-2.31.66-2.31.74-2.33.82-2.39.9-2.47.98-2.55 1.06-2.65 1.15-2.72 1.22-2.75 1.3-2.73 1.36-2.7 1.41-2.72 1.46-2.82 1.53-3.02 1.61-3.18 1.71-3.05 1.77-2.61 1.7-3.12 1.48" filter="url(#a)"/><path d="m12.02-87.09-2.97-.67-2.67-.37-2.17-.22-1.83-.14-1.66-.06-1.57.02-1.53.1-1.47.17-1.4.25-1.33.33-1.23.4-1.1.48-.93.56-.73.63-.51.72-.32.81-.2.89-.21.99-.38 1.09-.64 1.17-.93 1.25-1.12 1.32-1.14 1.37-.96 1.42-.61 1.47-.19 1.52.24 1.59.64 1.64 1.04 1.69 1.44 1.72 1.79 1.78 2.03 1.92 1.98 2.12 1.56 2.35.86 2.39.4 1.93.59.53" filter="url(#a)"/><path d="m9.29-87.95-1.7-.23-1.44-.1-1.7-.1-2.02-.09-2.2-.04-2.27.03-2.28.1-2.34.17-2.46.26-2.59.33-2.71.41-2.81.49-2.97.56-3.23.63-3.59.71-3.94.77-4.15.84-4.19.9-4.29.99-4.59 1.15-4.98 1.34-5.36 1.32" filter="url(#a)"/><path d="m9.29-87.95-1.73-.23-1.54-.1-1.78-.1-2.03-.08-2.15-.03-2.19.04-2.18.11-2.19.2-2.29.28-2.47.36-2.73.44-3 .52-3.27.6-3.47.67-3.65.75-3.81.82-3.96.91-4.09.98-4.1 1.07-3.97 1.15-3.68 1.23-3.36 1.29-3.11 1.36-3.11 1.42-3.39 1.47-3.89 1.54-4.42 1.61-4.68 1.69-4.44 1.74-4.03 1.73-4.7 1.68-7.21 1.79" filter="url(#a)"/><path d="m8.95-88.06-2.2-.18-1.71-.17-1.85-.12-2.11-.05-2.34.01-2.52.09-2.64.17-2.66.24-2.62.31-2.54.39-2.54.46-2.62.53-2.8.62-3.03.69-3.27.77-3.51.85-3.74.94-3.97 1.05-4.11 1.16-4.12 1.27-3.93 1.33-3.66 1.36-3.49 1.34-3.58 1.3-4.06 1.32-4.91 1.52-5.26 1.9" filter="url(#a)"/><path d="m7.06-88.39-.86.09-1.55-.08-2.06-.1-2.18-.05-2.11.03-2.04.11-2.03.18-2.12.26-2.25.34-2.38.42-2.46.5-2.51.57-2.54.64-2.56.71-2.6.78-2.61.84-2.61.92-2.62 1.01-2.67 1.13-2.77 1.24-2.78 1.21-2.64.96" filter="url(#a)"/><path d="m7.06-88.39-1.05.09-1.68-.08-2.01-.1-2.08-.04-2.07.04-2.12.13-2.24.2-2.37.28-2.49.37-2.52.45-2.47.53-2.39.6-2.3.68-2.27.76-2.26.83-2.33.91-2.41 1-2.51 1.07-2.63 1.16-2.73 1.24-2.82 1.3-2.91 1.37-2.99 1.42-3.06 1.49-3.11 1.55-3.16 1.61-3.25 1.69-3.41 1.74-3.6 1.78-3.67 1.84-3.42 1.94-2.83 2.03-1.85 1.79" filter="url(#a)"/><path d="m6.01-88.23-1.51-.2-1.8-.13-1.97-.05-2 .02-1.99.1-2.01.18-2.08.25-2.18.32-2.28.4-2.39.47-2.51.55-2.66.63-2.83.71-3.04.79-3.31.88-3.6.97-3.87 1.07-4.04 1.17-4.05 1.26-3.91 1.32-3.69 1.35-3.55 1.39-3.63 1.42-3.96 1.5-4.4 1.6-4.62 1.71-4.29 1.74-3.39 1.57-2.44 1.16-2.43.59" filter="url(#a)"/><path d="m6.15-88.17-.03-.16-2.64-.17-2.79-.05-2.55.05-2.37.12-2.34.21-2.46.3-2.62.37-2.76.46-2.77.54-2.67.61-2.5.69-2.36.77-2.35.84-2.49.92-2.77 1.01-3.11 1.09-3.44 1.16-3.7 1.25-3.91 1.31-4.12 1.38-4.39 1.44-4.76 1.49-5.18 1.57-5.55 1.62-5.77 1.69-5.74 1.75-5.35 1.8-4.68 1.86-3.87 1.9-3.31 1.93-3.34 1.9-3.79 1.83-3.6 1.79-3.24 2.17" filter="url(#a)"/><path d="m4.46-88.47-1.69-.13-2.06-.05-1.99.03-1.87.11-1.83.19-1.84.26-1.88.34-1.9.41-1.93.49-1.94.57-1.95.65-1.94.73-1.94.82-1.94.9-1.95 1-1.97 1.1-1.97 1.18-1.96 1.27-1.94 1.32-1.88 1.38-1.83 1.43-1.77 1.47-1.73 1.53-1.69 1.59-1.65 1.65-1.6 1.7-1.56 1.74-1.52 1.83-1.55 1.94-1.61 2.09-1.68 2.2-1.69 2.21-1.55 2.08-1.33 1.93-1.18 2.1-1.35 2.75" filter="url(#a)"/><path d="m4.46-88.47-1.47-.13-2.11-.05-2.1.03-1.96.1-1.92.18-1.95.25-2.07.33-2.26.4-2.47.48-2.64.55-2.73.63-2.71.7-2.61.79-2.51.87-2.5.97-2.6 1.07-2.83 1.17-3.13 1.26-3.4 1.32-3.54 1.36-3.51 1.37-3.34 1.4-3.13 1.48-3.03 1.61-3.18 1.77-3.63 1.85-4.05 1.7-2.62 1.2" filter="url(#a)"/><path d="m1.49-88.79-1.69.1-1.61.11-1.56.15-1.51.22-1.5.3-1.56.39-1.65.47-1.72.55-1.72.62-1.67.7-1.58.78-1.5.85-1.47.94-1.51 1.02-1.58 1.1-1.62 1.18-1.59 1.25-1.44 1.32-1.19 1.39-.85 1.45-.52 1.51-.26 1.57-.13 1.64-.14 1.7-.26 1.75-.41 1.81-.56 1.85-.61 1.89-.57 1.91-.41 1.93-.18 1.96.09 2.03.3 2.16.33 2.32.13 2.33.21 1.87" filter="url(#a)"/><path d="m.01-88.89-1.85.2-2.01.12-2 .19-2.08.27-2.16.35-2.19.41-2.21.49-2.29.57-2.43.65-2.59.74-2.71.81-2.73.9-2.67 1-2.58 1.1-2.47 1.19-2.42 1.26-2.4 1.33-2.45 1.37-2.52 1.42-2.65 1.47-2.85 1.52-3.12 1.59-3.4 1.64-3.53 1.68-3.41 1.71-3.01 1.78-2.57 1.91-2.45 2.13-2.86 2.34-3.42 2.38-3.48 1.92-2.87.52" filter="url(#a)"/><path d="m.01-88.89-1.75.2-1.75.12-1.75.19-1.93.27-2.16.35-2.38.41-2.55.49-2.67.57-2.75.65-2.79.74-2.76.81-2.66.9-2.51 1-2.36 1.1-2.27 1.19-2.27 1.26-2.37 1.33-2.55 1.37-2.78 1.42-3.03 1.47-3.29 1.52-3.56 1.59-3.79 1.64-3.93 1.68-3.89 1.71-3.62 1.78-3.18 1.91-2.67 2.13-2.32 2.34-2.41 2.38-3.07 1.92-3.98.52" filter="url(#a)"/></g><path fill="none" stroke="#000" stroke-linejoin="round" stroke-width="3" d="M-9.51 34.58Q9.47 51-.02-5.73" filter="url(#a)"/><path fill="#D77F8C" stroke="#000" stroke-linejoin="round" stroke-width="3" d="m27.21 55.04.04.16-.01.32-.04-.27.05 1.04-.03-.12-.03.32-.16 1.5-.02.31-.16.75.11-.42-.14.04-.66 1.91.37-.85-.64 1.47.06-.13-.01.29-.69 1.15-.15.41-.03-.1-.72.96.17-.24-.47.78-.32.29-.27.38-.71.76-.65.5.75-.7-.74.73-1.2 1.02.6-.44-1.61 1.18.31-.19-.35.22-.46.3-1.39.76-.03.08.45-.32-1.43.76.17-.07-.13.08-1.71.68-.49.2h-.01l-1.2.4-.19.05-.79.21-.69.15-.95.19-.29.05-.35.05-.29.04-1.05.12.67-.07-.89.09-1.48.07-.25.01h-.4l-.28-.02-.93-.01-2.03-.21-.07-.05.97.16-1.37-.17-.76-.2-1.1-.25.32.08-.8-.18.15.04-.87-.26-.6-.26-.68-.26-.21-.07-.17.01-.96-.54-.8-.41-.46-.27-.28-.19-.34-.19-.65-.5.2.19-1.64-1.35.59.64-.45-.57-.31-.23-1.27-1.28.09-.03-.48-.63.07-.03-.25-.12-.65-1.05-.21-.42.6.89-.95-1.61.33.37-.32-.55-.12-.59-.06-.01-.34-1.6-.09.29-.01-.76-.13-.44-.05-.75-.07-.16.2-.93-.05-.45.05-.6-.14.86.2-.48.01-.17.14-1.32.38-.91-.23.85.61-1.75-.35.57.78-1.46.03-.16-.2.41.16-.44.73-1.24.19-.29.33-.42.84-.93-.35.37 1.08-1.14-.27.23.07-.13 1.18-1.08.09-.03.97-.78-.35.3-.15.1 1.9-1.35-.31.18.4-.29 1.39-.75-.18.08 1.3-.65-1.19.62.72-.41 1-.41.35-.15.26-.09 1.41-.51 1.33-.38.72-.18h-.04l-.17.04.56-.13-.17.04 2.25-.38.42-.05-.38.04 1.92-.16.1.01.35-.03h.5l-.23-.01 1.62.04.77.06h.33l-.15-.02 1.17.18.2.03 1.65.32.62.13.48.16.29.04 1.12.34-1.33-.36 1.25.39 1.2.46-.43-.2.42.23.62.31.23.08.57.23 1.58.98.32.2-.23-.06.45.3.05.01.82.74.79.8-.05-.11.57.73.46.49-.27-.49.05.29 1.15 1.5.21.42-.52-.75.2.27.45.95.61 1.09-.38-.79.5 1.84.16.15.05.16.03.75" filter="url(#a)"/></svg>