<svg xmlns="http://www.w3.org/2000/svg" width="500" height="500" viewBox="-100 -100 200 200"><defs><clipPath id="c"><path d="m26.86 2.33-.29-.34-.31-.34-.35-.35-.36-.34-.39-.36-.42-.35-.44-.34-.46-.35-.5-.34-.51-.33-.54-.33-.57-.33-.59-.31-.62-.3-.63-.3-.58-.44-.63-.43-.66-.41-.71-.38-.76-.36-.79-.34-.83-.31-.87-.28-.9-.25-.94-.23-.96-.2-.99-.18-1.01-.14-1.04-.12-1.05-.09-1.06-.07-1.08-.04-1.09-.01-1.09.01-1.09.03-1.09.06-1.09.08-1.09.1-1.07.12-1.07.14-1.05.15-1.03.17-1.02.19-.99.2-.97.22-.95.23-.92.24-.89.24-.86.26-.83.27-.8.27-.77.27-.74.28-.7.28-.66.29-.63.28-.6.29-.56.29-.53.28-.49.28-.47.28-.43.27-.4.28-.37.26-.34.26-.31.26-.28.25-.26.25-.23.24-.2.24-.17.23-.14.23-.12.22-.09.22-.07.21-.04.2-.02.2.01.19.03.18-.73 3.83.47-.01.48-.02.49-.02.51-.01.53-.02.53-.02.55-.02.56-.02.58-.02.59-.02.6-.02.62-.02.63-.03.64-.02.66-.02.67-.02.69-.02.7-.02.72-.02.73-.02.75-.02.76-.02.78-.01.79-.02.8-.01.82-.02.83-.01h.83l.85-.01h3.46l.89.01h.88l.89.02.88.01.89.02.89.01.88.03.88.02.87.03.87.02.86.04.85.03.84.03.83.04.81.04.8.04.79.04.76.04.75.04.73.05.71.04.69.04.67.05.64.04.62.04.59.04.57.05.55.03.52.04.49.04.47.03.47.03.46.03.45.02.43.03.41.02.39.02.38.02.37.01.34.02.33.01h.31l.3.01h.79"/></clipPath><clipPath id="b"><path d="m-27.77 2.05.32-.2.33-.19.36-.2.39-.2.4-.2.44-.21.45-.2.48-.2.5-.2.53-.19.55-.2.57-.19.6-.18.62-.18.64-.18.6-.26.64-.24.68-.24.72-.23.75-.21.8-.2.82-.19.86-.17.89-.16.92-.15.94-.13.97-.11.98-.1 1.01-.08 1.02-.07 1.03-.06 1.04-.04 1.04-.03 1.05-.01h1.05l1.05.01 1.05.03 1.04.03 1.02.05 1.02.06 1 .07.99.08.96.09.95.1.92.1.9.12.87.12.84.12.81.13.79.13.75.14.72.14.69.14.65.15.62.14.58.15.55.15.52.14.48.15.45.14.41.14.38.14.36.14.32.13.29.13.26.13.24.12.2.12.17.11.15.12.11.11.09.1.06.1.04.1v.09L20.5 1l-.04.08-.08.07-.09.08 3.33 2.7-.42-.02-.43-.03-.45-.02-.46-.03-.47-.03-.48-.02-.5-.03-.51-.03-.52-.02-.54-.03-.55-.03-.56-.03-.58-.02-.59-.03-.6-.02-.61-.03-.64-.03-.64-.02-.67-.03-.67-.02-.7-.02-.7-.02-.72-.02-.74-.02-.75-.02-.76-.01-.78-.01-.78-.01-.8-.01H3.55l-.83.01h-.84l-.85.01-.85.02-.86.01-.86.02-.86.03-.86.02-.86.03-.86.03-.86.03-.85.04-.85.04-.84.04-.83.04-.83.05-.81.04-.8.05-.79.05-.78.05-.76.05-.75.05-.73.05-.72.05-.69.05-.68.05-.65.05-.64.05-.61.05-.59.04-.57.05-.54.04-.53.04-.52.04-.5.03-.48.04-.47.03-.46.04-.44.03-.42.03-.41.03-.39.03-.37.02-.36.02-.34.02-.32.02-.31.02"/></clipPath><linearGradient id="d" x1="0%" x2="100%" y1="0%" y2="0%"><stop offset="0%" style="stop-color:[object Object];stop-opacity:1"/><stop offset="51.9%" style="stop-color:[object Object];stop-opacity:1"/><stop offset="100%" style="stop-color:[object Object];stop-opacity:1"/></linearGradient><filter id="a"><feTurbulence baseFrequency=".05" numOctaves="3" result="noise" type="noise"/><feDisplacementMap in="SourceGraphic" in2="noise" scale="2"/></filter></defs><rect width="100%" height="100%" x="-100" y="-100" fill="#36454F"/><path fill="plum" stroke="#000" stroke-linejoin="round" stroke-width="1.667" d="m62.93.85.17.77-.18.13-.07 4.13-.02 2.31-.09-2.4.02 2.16-.32 3.22.22-.41-.1 1.21-.43 2.04-.03 1.26-.46 1.99.21-.15-.39 2.64-.25 1.48-.27 1.58.14-.87-.83 3.66.17.07-.53 2.46-.24 1-.1-.01-1.02 3.61.07-.45-.54 2.26-.73 2.77.15-1.07-.25.76-.7 1.89.14.03-1.23 3.19.32-.57-1.6 3.53.2-.43-.71 2.28-.52.48-.83 2.66-.29-.34-.24.95-2.27 4.35.23-.28-.75 1.22-.87 1.37.16-.44-.54.67-1.91 3.29.29-.62-1.56 2.29-.23.52-.9 1.01.14.08.02.15-.8 1.04-1.61 1.83-1.08 1.02-.49.73-2.12 2.72 1.66-2.06-2.56 2.84-.59.47-.45.78-1.13.47-.18.24-1.12.91-1.71 1.45.08.29-2.14 1.64-1.1.64.31-.14.11-.14-1.91 1.21-.3.64-1.81.7-.9.57-.57.58-.97.29-.98.29.45-.1-1.65 1.1-1.9.67-1.21.42.71-.1-1.43.46-1.73.66-.81.16.89-.16-2.76.71-1.07.27 1.1-.33-2.47.54-.26.35-1.13.29-1.39-.15-2.01.49-1.11-.1-.05.16-1.09-.1-1.05.21-1.07.11-1.13-.26-1.34.26-1.84-.4-.1.18-1.04-.36-.38.07-2.06-.29.39.23-2.09-.62-1.31-.15-1.46-.56.51.2-1.6-.44-1.24-.43-.54.13.12.01-1.64-.72-2.23-1.02.39.2-.79-.28-2.04-1.21-.93-.52-.32.15.03.16-2.1-1.67-.16.15.27.26-1.68-1.22-.47-.38-3.39-2.29 1.02.61-1.38-.69-.62-.52-.79-.9-2.01-1.68.76.69-1.75-1.12-.5-.95-1.58-1.89.43.91-2.33-2.56.86 1.16-1.81-1.95-1-1.23-.79-1.21.01.46-.44-.79-.64-.81-1.1-1.49-.18-.35-.68-.8-1.15-1.74-1.71-2.29-.2-.96-.11-.03-.2-.58-1.35-1.83-.58-1.09.25.47-1.79-3.3.59.85-1.43-2.41.09.06-1.68-3.59h-.1l.06-.25-1.16-2.61-.41-1.29-.7-2.16.56 2.06-1.58-4.34.17-.02-.98-2.94.13.28-1.25-3.63-.33-1.33.38 1.74.07-.51-.61-2.11-.3-1.27-.15-.83-.83-4.24-.41-1.78.18 1.52-.11-2.37-.22-.08-.28-2.8-.36-1.32-.17-2.23.05.32-.06-.61-.18-1.84-.13-.88-.51-4.59.24-1.01-.13-.73-.11.04-.11-1.88.06-1.64.09-.54-.07-2.38.03-.22.01-2.42.05-.49-.08-.65.29-3.18.03-.69.32-2.12-.24-.3.6-4.29.02-.77.14-.13-.07.64.27-2.75.47-1.65.32-1.78-.06-1.05.48-.64v-1.78l.7-2.75-.58 2.46.86-2.91.7-2.74.58-2.37.05.15.03-.06.22-1.31.55-1.05.56-2.11 1.28-3.17-.11-.21.46-.92.53-1.12.19-.73.78-1.65.55-1.34.41-.9.35-.96.52-1.04.89-1.25.88-1.97.47-.69.59-1.01-.39.21 2.08-3.23-.44.3.79-1 1.1-1.65.51-.92.85-1.37.48.08 1.16-1.78.22-.42 1.03-1.4 1.27-1-.19-.49 1.69-1.93.02.43 1.4-1.55-.13.11.47-.62 1.05-.83.95-.89 1.78-1.91 1.25-.69-.1.19.2-.59 2.17-1.41.01-.23 2.02-1.45-.06.01.37-.41.35-.01 1.22-.78 1.74-1.05-.52.11 3.73-1.62.82-.84-.5.25-.64.36 2.78-1.09 1.25-.69-.04.09.45-.26 2.8-.71 1.27-.64-.77.27 1.67-.53 1.72-.32 2.16-.34-.71.01 1.06-.42.59.18.41-.3 2.16.05 1.27-.36.31-.01 1-.03 1.83-.08-.48.13 2.31-.02.18.18 1.19-.28-.08.28 1.64-.03 2.73.61-.43-.28-.31-.18 3.88.95h-.17l-.7-.21.93.12 3.32 1.14-1.4-.57 1.99.62.95.22 1.74.88.16.08 1.51.45.65.49-.05.12 1.39.64 1.9.9 1.46.78-.5-.43 1.46.86 1.85 1.31-1.12-.7 1.53.99.7.36.22.13 2.47 2.06.45-.01.87 1.13.69.59.74.87v-.27l2.22 1.74.53.9-.21-.18 1.68 1.38.25.5 1.42 1.51 1.11 1.41-.08-.32-.16.14 2.38 2.63.73 1.31-.79-1.26.98 1.36 1.73 1.78.97 1.92.37.84.12.03.61 1.5 1.44 1.82.89 1.71-.37-1.05 1.68 3.52-.45-.88.81 1.03.81 1.76.87 2.37-.41-1.27 1.07 2.13.07.43.56 1.27 1.27 3.69.22.14-.07.5 1.03 2.73.03.14.78 1.34.05.82.3 1.76.4.52.79 3.74.02.1.59 1.17-.12.13-.01-.15.77 3.45.47 1.66.09 1.17.18.62.14 1.94.26 1.39.31 1.33.3 3.72.11-.6.09 1.23.01.84-.07.95.47 3.01-.05 1.31.09 2.41-.03.56.16 1.52-.08.64-.04 2.02.17.77" filter="url(#a)"/><path fill="#fff" d="m-27.77 2.05.32-.2.33-.19.36-.2.39-.2.4-.2.44-.21.45-.2.48-.2.5-.2.53-.19.55-.2.57-.19.6-.18.62-.18.64-.18.6-.26.64-.24.68-.24.72-.23.75-.21.8-.2.82-.19.86-.17.89-.16.92-.15.94-.13.97-.11.98-.1 1.01-.08 1.02-.07 1.03-.06 1.04-.04 1.04-.03 1.05-.01h1.05l1.05.01 1.05.03 1.04.03 1.02.05 1.02.06 1 .07.99.08.96.09.95.1.92.1.9.12.87.12.84.12.81.13.79.13.75.14.72.14.69.14.65.15.62.14.58.15.55.15.52.14.48.15.45.14.41.14.38.14.36.14.32.13.29.13.26.13.24.12.2.12.17.11.15.12.11.11.09.1.06.1.04.1v.09L20.5 1l-.04.08-.08.07-.09.08 3.33 2.7-.42-.02-.43-.03-.45-.02-.46-.03-.47-.03-.48-.02-.5-.03-.51-.03-.52-.02-.54-.03-.55-.03-.56-.03-.58-.02-.59-.03-.6-.02-.61-.03-.64-.03-.64-.02-.67-.03-.67-.02-.7-.02-.7-.02-.72-.02-.74-.02-.75-.02-.76-.01-.78-.01-.78-.01-.8-.01H3.55l-.83.01h-.84l-.85.01-.85.02-.86.01-.86.02-.86.03-.86.02-.86.03-.86.03-.86.03-.85.04-.85.04-.84.04-.83.04-.83.05-.81.04-.8.05-.79.05-.78.05-.76.05-.75.05-.73.05-.72.05-.69.05-.68.05-.65.05-.64.05-.61.05-.59.04-.57.05-.54.04-.53.04-.52.04-.5.03-.48.04-.47.03-.46.04-.44.03-.42.03-.41.03-.39.03-.37.02-.36.02-.34.02-.32.02-.31.02" filter="url(#a)" transform="translate(30.66 -28.36)"/><path fill="#fff" d="m26.86 2.33-.29-.34-.31-.34-.35-.35-.36-.34-.39-.36-.42-.35-.44-.34-.46-.35-.5-.34-.51-.33-.54-.33-.57-.33-.59-.31-.62-.3-.63-.3-.58-.44-.63-.43-.66-.41-.71-.38-.76-.36-.79-.34-.83-.31-.87-.28-.9-.25-.94-.23-.96-.2-.99-.18-1.01-.14-1.04-.12-1.05-.09-1.06-.07-1.08-.04-1.09-.01-1.09.01-1.09.03-1.09.06-1.09.08-1.09.1-1.07.12-1.07.14-1.05.15-1.03.17-1.02.19-.99.2-.97.22-.95.23-.92.24-.89.24-.86.26-.83.27-.8.27-.77.27-.74.28-.7.28-.66.29-.63.28-.6.29-.56.29-.53.28-.49.28-.47.28-.43.27-.4.28-.37.26-.34.26-.31.26-.28.25-.26.25-.23.24-.2.24-.17.23-.14.23-.12.22-.09.22-.07.21-.04.2-.02.2.01.19.03.18-.73 3.83.47-.01.48-.02.49-.02.51-.01.53-.02.53-.02.55-.02.56-.02.58-.02.59-.02.6-.02.62-.02.63-.03.64-.02.66-.02.67-.02.69-.02.7-.02.72-.02.73-.02.75-.02.76-.02.78-.01.79-.02.8-.01.82-.02.83-.01h.83l.85-.01h3.46l.89.01h.88l.89.02.88.01.89.02.89.01.88.03.88.02.87.03.87.02.86.04.85.03.84.03.83.04.81.04.8.04.79.04.76.04.75.04.73.05.71.04.69.04.67.05.64.04.62.04.59.04.57.05.55.03.52.04.49.04.47.03.47.03.46.03.45.02.43.03.41.02.39.02.38.02.37.01.34.02.33.01h.31l.3.01h.79" filter="url(#a)" transform="translate(-30.42 -27.9)"/><g fill="none" stroke="#000" transform="translate(30.66 -28.36)"><path stroke-linejoin="round" stroke-width="1.667" d="m-29.73 3.52.11-.1.13-.1.15-.13.16-.13.18-.15.21-.16.22-.16.25-.18.26-.18.29-.18.32-.2.33-.19.36-.2.39-.2.4-.2.44-.21.45-.2.48-.2.5-.2.53-.19.55-.2.57-.19.6-.18.62-.18.64-.18.6-.26.64-.24.68-.24.72-.23.75-.21.8-.2.82-.19.86-.17.89-.16.92-.15.94-.13.97-.11.98-.1 1.01-.08 1.02-.07 1.03-.06 1.04-.04 1.04-.03 1.05-.01h1.05l1.05.01 1.05.03 1.04.03 1.02.05 1.02.06 1 .07.99.08.96.09.95.1.92.1.9.12.87.12.84.12.81.13.79.13.75.14.72.14.69.14.65.15.62.14.58.15.55.15.52.14.48.15.45.14.41.14.38.14.36.14.32.13.29.13.26.13.24.12.2.12.17.11.15.12.11.11.09.1.06.1.04.1v.09L20.5 1l-.04.08-.08.07-.09.08-.12.07-.15.06-.16.06-.19.05-.22.05-.23.04-.25.04-.28.03-.29.03-.31.02" filter="url(#a)"/><path stroke-linejoin="round" stroke-width="2.222" d="m-29.52 4.93.12.01h.14l.16.01h.38l.21-.01h.24l.25-.01.27-.02.28-.01.31-.02.32-.02.34-.02.36-.02.37-.02.39-.03.41-.03.42-.03.44-.03.46-.04.47-.03.48-.04.5-.03.52-.04.53-.04.54-.04.57-.05.59-.04.61-.05.64-.05.65-.05.68-.05.69-.05.72-.05.73-.05.75-.05.76-.05.78-.05.79-.05.8-.05.81-.04.83-.05.83-.04.84-.04.85-.04.85-.04.86-.03.86-.03.86-.03.86-.02.86-.03.86-.02.86-.01.85-.02.85-.01h.84l.83-.01H6l.8.01.78.01.78.01.76.01.75.02.74.02.72.02.7.02.7.02.67.02.67.03.64.02.64.03.61.03.6.02.59.03.58.02.56.03.55.03.54.03.52.02.51.03.5.03.48.02.47.03.46.03.45.02.43.03.42.02.41.02.4.03.38.02.37.02.36.02.35.01.34.02.32.02.32.01.3.01" filter="url(#a)"/><circle cx="6.313" cy=".473" r="3.516" clip-path="url(#b)" filter="url(#a)"/><circle cx="7.003" cy="2.628" r="3.806" clip-path="url(#b)" filter="url(#a)"/><circle cx="7.008" cy="3.328" r="4.194" clip-path="url(#b)" filter="url(#a)"/><circle cx="8.208" cy="-.132" r="4.11" clip-path="url(#b)" filter="url(#a)"/><circle cx="7.238" cy=".963" r="4.112" clip-path="url(#b)" filter="url(#a)"/><circle cx="5.858" cy="-.677" r="3.812" clip-path="url(#b)" filter="url(#a)"/><circle cx="7.803" cy=".398" r="4.504" clip-path="url(#b)" filter="url(#a)"/><circle cx="8.173" cy="3.048" r="4.88" clip-path="url(#b)" filter="url(#a)"/><circle cx="6.073" cy=".948" r="4.444" clip-path="url(#b)" filter="url(#a)"/><circle cx="6.098" cy="2.483" r="3.848" clip-path="url(#b)" filter="url(#a)"/></g><g fill="none" stroke="#000" transform="translate(-30.42 -27.9)"><path stroke-linejoin="round" stroke-width="2.222" d="m28.65 4.92-.1-.16-.12-.19-.13-.22-.14-.23-.17-.26-.18-.28-.21-.3-.22-.3-.25-.32-.27-.33-.29-.34-.31-.34-.35-.35-.36-.34-.39-.36-.42-.35-.44-.34-.46-.35-.5-.34-.51-.33-.54-.33-.57-.33-.59-.31-.62-.3-.63-.3-.58-.44-.63-.43-.66-.41-.71-.38-.76-.36-.79-.34-.83-.31-.87-.28-.9-.25-.94-.23-.96-.2-.99-.18-1.01-.14-1.04-.12-1.05-.09-1.06-.07-1.08-.04-1.09-.01-1.09.01-1.09.03-1.09.06-1.09.08-1.09.1-1.07.12-1.07.14-1.05.15-1.03.17-1.02.19-.99.2-.97.22-.95.23-.92.24-.89.24-.86.26-.83.27-.8.27-.77.27-.74.28-.7.28-.66.29-.63.28-.6.29-.56.29-.53.28-.49.28-.47.28-.43.27-.4.28-.37.26-.34.26-.31.26-.28.25-.26.25-.23.24-.2.24-.17.23-.14.23-.12.22-.09.22-.07.21-.04.2-.02.2.01.19.03.18.05.18.07.17.1.17.11.16.14.15.16.14.17.14.19.13.21.13.23.12M28.73 7.3l-.1.04-.1.05-.12.03-.14.04-.15.02-.17.03-.18.02-.2.01-.21.02-.23.01h-.79l-.3-.01h-.31l-.33-.01-.34-.02-.37-.01-.38-.02-.39-.02-.41-.02-.43-.03-.45-.02-.46-.03-.47-.03-.47-.03-.49-.04-.52-.04-.55-.03-.57-.05-.59-.04-.62-.04-.64-.04-.67-.05-.69-.04-.71-.04-.73-.05-.75-.04-.76-.04-.79-.04-.8-.04-.81-.04-.83-.04-.84-.03-.85-.03-.86-.04-.87-.02-.87-.03-.88-.02-.88-.03-.89-.01-.89-.02L1 6.38l-.89-.02h-.88l-.89-.01h-3.46l-.85.01h-.83l-.83.01-.82.02-.8.01-.79.02-.78.01-.76.02-.75.02-.73.02-.72.02-.7.02-.69.02-.67.02-.66.02-.64.02-.63.03-.62.02-.6.02-.59.02-.58.02-.56.02-.55.02-.53.02-.53.02-.51.01-.49.02-.48.02-.47.01-.46.02-.44.01-.43.01-.42.01-.4.01-.39.01-.38.01h-.37l-.35.01h-.35" filter="url(#a)"/><circle cx="9.481" cy="-.063" r="4.68" clip-path="url(#c)" filter="url(#a)"/><circle cx="10.166" cy="-1.223" r="3.05" clip-path="url(#c)" filter="url(#a)"/><circle cx="11.051" cy="-.928" r="3.286" clip-path="url(#c)" filter="url(#a)"/><circle cx="7.376" cy=".842" r="4.578" clip-path="url(#c)" filter="url(#a)"/><circle cx="7.011" cy="-1.288" r="3.104" clip-path="url(#c)" filter="url(#a)"/><circle cx="10.346" cy=".912" r="4.664" clip-path="url(#c)" filter="url(#a)"/><circle cx="7.571" cy="3.162" r="3.276" clip-path="url(#c)" filter="url(#a)"/><circle cx="8.661" cy="2.777" r="4.972" clip-path="url(#c)" filter="url(#a)"/><circle cx="8.136" cy="-.468" r="3.764" clip-path="url(#c)" filter="url(#a)"/><circle cx="6.196" cy="1.202" r="4.308" clip-path="url(#c)" filter="url(#a)"/></g><g fill="none" stroke="url(#d)" stroke-linejoin="round" stroke-width="2"><path d="m15.52-86.21 1.23.61.88.39.74.34.65.33.58.32.5.3.36.25.15.16-.13.07-.45-.06-.8-.17-1.19-.31-1.58-.43-2-.57-2.45-.7-2.9-.84-3.29-1m19.42 6.08 1.05.79.71.59.89.74 1.13.95 1.28 1.13 1.36 1.23 1.36 1.26 1.29 1.23 1.21 1.17 1.12 1.09 1.04.99.94.87.81.74.65.6.5.47.34.31.12.07-.13-.21-.24-.33m-75.75-5.89 1.59-1.31 1.45-.62 1.56-.34 1.89-.27 2.23-.24 2.52-.16 2.74-.06 2.93.05 3.15.15 3.36.2 3.6.21 3.82.23 4 .25 4.11.31 4.17.38 4.19.46 4.21.53 4.28.58 4.33.59 4.28.55 4.17.45m-50.75-13.7 1.1-.38 1.47-.45 1.33-.39 1.26-.32 1.27-.3 1.27-.26 1.19-.25 1.08-.21.98-.18.88-.15.82-.13.72-.11.6-.09.43-.05.22-.02-.03.02-.3.06-.54.08-.78.12-.96.13-1.14.17-1.42.21m54.2 27.74.32.66.43.77.57.96.59.96.47.78.3.53.11.27-.07.02-.27-.25-.47-.54-.71-.9-.98-1.3-1.26-1.74-1.61-2.23-1.99-2.76-2.45-3.36" filter="url(#a)"/><path d="m-27.75-79.73.18-.13.62-.33 1.02-.49 1.34-.64 1.55-.74 1.64-.77 1.63-.75 1.5-.69 1.36-.59 1.23-.52 1.12-.46 1.03-.42.94-.38.81-.32.63-.24.31-.14-.24.01-.92.18m39.5 7.31.68.42.95.69 1.06.82.97.8.82.7.65.58.51.46.35.32.16.16-.09-.03-.36-.23-.63-.44-.9-.64-1.16-.86-1.54-1.18-2.16-1.71m-14.23-7.07 1.56.49 1.13.44.82.38.54.34.28.3.05.28-.15.26-.36.26-.59.22-.91.18-1.3.13-1.74.07-2.19.02-2.65-.03-3.11-.08-3.58-.1-4.05-.13-4.45-.19-4.82-.3m63.63 31.84.75 1.21.62 1.25.44.98.31.76.23.67.16.62.09.56-.03.41-.18.19-.34-.1-.52-.41-.71-.73-.91-1.03-1.11-1.33-1.32-1.64-1.53-1.97-1.75-2.33-1.99-2.78-2.27-3.26-2.59-3.79-3-4.3-3.4-4.77" filter="url(#a)"/><path d="m36.18-72.52 1.13 1.08.63.92.31.8-.03.66-.33.55-.61.49-.9.45-1.2.41-1.51.36-1.82.31-2.15.27-2.5.2-2.89.12-3.28.01-3.71-.08-4.15-.18-4.58-.31-5.05-.43-5.55-.54-6.1-.61-6.67-.64-7.2-.66-7.64-.81m2.53-9.99 1.24-.77 1.23-.74 1.26-.72 1.18-.65.98-.54.79-.42.67-.33.61-.28.55-.22.46-.15.29-.06.09.06-.18.2-.47.34-.73.48-.99.59-1.25.71-1.55.84-1.96 1.04-2.39 1.31" filter="url(#a)"/><path d="m36.39-72.34.2.29.38.72.18.86-.14.86-.51.79-.86.76-1.21.73-1.55.74-1.9.75-2.27.77-2.64.8-3.05.83-3.46.85-3.9.84-4.37.83-4.83.8-5.31.78-5.78.77-6.28.74-6.79.71-7.28.7-7.78.68-8.19.61" filter="url(#a)"/><path d="m38.11-70.64 1.16 1.28.77.88.57.68.52.65.47.6.33.44.13.21-.07-.01-.3-.24-.59-.53-.98-.94-1.42-1.43-1.8-1.88-2.12-2.33m-7.28-6.58.68.41.92.67 1.01.78.92.76.78.66.63.57.51.47.38.37.26.29.12.18-.05.07-.25-.07-.48-.21-.75-.41-1.07-.64-1.43-.89-1.78-1.16-2.07-1.39-2.34-1.65-2.69-1.95m-41.72-.5.51-.4.58-.03 1.11.01h1.58l1.91.03 2.12.09 2.31.15 2.45.22 2.57.29 2.67.35 2.75.42 2.8.47 2.81.53 2.8.57 2.79.6 2.77.62 2.76.62 2.73.6 2.69.6 2.63.58 2.52.58 2.33.53 2.11.49m24.51 34.94.45 1.7-.32.76-.95.38-1.53.15-2.1-.05-2.71-.3-3.34-.64-4.01-1.05-4.69-1.49-5.4-1.88-6.12-2.17-6.86-2.42-7.64-2.67-8.4-3.02-9.14-3.49-9.81-4.02-10.52-4.47" filter="url(#a)"/><path d="m46.77-59.32.27.48.46.94.38.89.15.68-.1.43-.36.22-.6.02-.86-.15-1.12-.35-1.41-.55-1.72-.77-2.01-1-2.32-1.2-2.64-1.43-2.98-1.67-3.34-1.98-3.74-2.31-4.15-2.67-4.58-3.03-5.05-3.36-5.59-3.7-6.15-4.01m51.83 32.05-.19-.27-.12.4-.4.46-.84.2-1.32-.14-1.81-.42-2.3-.64-2.82-.87-3.37-1.16L34-55.76l-4.6-1.94-5.26-2.39-5.92-2.83-6.6-3.25-7.3-3.68-7.94-4.14-8.27-4.76" filter="url(#a)"/><path d="m51.14-51.79-.23-.21-.21.58-.58.78-1.08.65-1.61.47-2.12.35-2.62.29-3.16.24-3.71.13-4.31-.02-4.93-.21-5.57-.42-6.21-.62-6.86-.81-7.52-.98-8.19-1.12-8.88-1.24-9.59-1.32-10.37-1.44M3.17-88.88l.64.28 1.46.39 1.64.48 1.67.58 1.72.68 1.79.77 1.84.84 1.87.89 1.93.94 1.96.95 1.96.96 1.93.93 1.85.9 1.73.85 1.56.78 1.34.67 1.09.55.91.49M-.51-88.76l1.52.02.82.03.56.05.45.09.31.13.04.17-.35.2-.79.23-1.27.28-1.8.33-2.4.38-2.96.44-3.44.47-3.92.48" filter="url(#a)"/><path d="m1.8-88.78.47.07.79.06 1.04.11 1.17.15 1.17.16 1.07.15.94.15.78.14.61.12.45.09.27.08.08.04h-.15l-.45-.03-.81-.1-1.22-.16-1.65-.26-1.98-.33M43.7-63.86l1.33 1.62.8 1.25.49.92.36.75.29.65.19.53.03.35-.16.13-.37-.11-.58-.33-.78-.56-1.01-.79-1.25-1.06-1.51-1.34-1.82-1.65-2.13-1.95-2.49-2.28-2.83-2.64-3.15-3.04-3.44-3.49-3.78-3.93m31.29 33.32-.2-.38-.32.24-.72.28-1.2.1-1.75-.26-2.37-.76-3.02-1.29-3.72-1.84-4.44-2.36-5.19-2.88-5.96-3.39-6.75-3.89-7.6-4.37-8.48-4.92-9.19-5.65" filter="url(#a)"/><path d="m-14-86.37.91-.29h1.16l1.74.14 2.13.25 2.3.37 2.4.51 2.52.63 2.68.73 2.87.82 3.05.88 3.16.94 3.22.98 3.22 1.02 3.19 1.02 3.11 1 3.04.98 3.01 1.02 3.06 1.09" filter="url(#a)"/><path d="m-29.78-78.05.66-.51 1.2-.63 1.36-.53 1.59-.49 1.89-.53 2.2-.62 2.48-.68 2.64-.72 2.69-.71 2.65-.67 2.56-.61 2.49-.55 2.45-.52 2.44-.51 2.43-.47 2.39-.42 2.03-.46m44.77 35.89-.22-.28-.21.35-.56.4-1.09.11-1.65-.25-2.22-.56-2.79-.81-3.38-1.06L35-55.27l-4.7-1.78-5.41-2.25-6.12-2.73-6.81-3.23L4.52-69l-8.18-4.19-9.37-4.4m43.92.3.5.29.48.5.35.45.19.33v.22l-.23.1-.51-.05-.83-.21-1.17-.4-1.54-.59-1.96-.82-2.45-1.1-3-1.4-3.57-1.71-4.21-1.99-4.82-2.35m47.62 44.76.02.34-.24.73-.52.78-.88.68-1.3.56-1.72.46-2.14.39-2.57.28-3.03.11-3.49-.09-3.98-.3-4.46-.48-4.95-.6-5.43-.69-5.93-.79-6.44-.92-6.95-1.07-7.46-1.26-7.96-1.44-8.46-1.65-8.97-1.88-9.55-2.06" filter="url(#a)"/><path d="m3.09-88.6 1.64.11 1.24.14.83.11.62.12.43.14.21.15-.04.14-.27.15-.48.15-.75.17-1.05.17-1.46.17-1.94.19-2.45.17-2.97.15-3.48.13-4.26.19" filter="url(#a)"/><path d="m1.98-88.6.77-.08.58.14.51.26.23.33-.15.4-.56.49-.98.59-1.43.7-1.92.84-2.39.97-2.87 1.12-3.38 1.27-3.98 1.44-4.66 1.67-5.48 1.99-6.3 2.23" filter="url(#a)"/><path d="m33.64-74.71.52.29.7.64.45.57.19.44-.02.36-.24.27-.53.14-.83-.02-1.17-.2-1.52-.38-1.86-.56-2.25-.76-2.65-.96-3.08-1.16-3.52-1.34-4.03-1.56-4.62-1.83-5.22-2.16-5.66-2.5m56.17 40.48.55 2.23-.46.85-1.21.3-1.91-.07-2.61-.45-3.36-.84-4.12-1.2-4.89-1.56-5.72-1.92-6.57-2.34-7.46-2.83-8.36-3.38-9.24-3.96-10.17-4.43-11.27-4.63m78.22 28.56.37 1.71-.53.81-1.3.46-2.03.28-2.76.13-3.51-.06-4.29-.34-5.09-.71-5.94-1.08-6.79-1.4-7.63-1.66-8.49-1.85-9.36-2.04-10.28-2.31-11.19-2.67-11.99-3.2" filter="url(#a)"/><path d="M49.83-54.26v.13l-.03.77-.37.71-.75.67-1.16.6-1.58.49-2.03.38-2.47.28-2.91.22-3.37.16-3.85.08-4.37-.05-4.9-.21-5.44-.38-6.01-.55-6.56-.72-7.12-.86-7.7-.99-8.28-1.07-8.89-1.13-9.56-1.22m54.78-28.38.46.2.57.31.45.37.34.41.25.45.07.45-.18.44-.47.4-.8.39-1.13.37-1.47.36-1.82.39-2.15.42-2.49.46-2.84.46-3.19.45-3.56.41-3.99.35-4.45.35-4.98.37-5.54.47-6.1.54m36.19-11.02-.1-.03.53.24.5.34.22.36-.11.41-.45.48-.86.55-1.31.6-1.78.63-2.24.67-2.69.7-3.15.77-3.67.84-4.28.93-4.99 1.03-5.64 1.09-6.11 1.04m57.91.71.44.58.04.56-.31.61-.73.67-1.26.69-1.82.71-2.37.72-2.94.74-3.54.72-4.17.68-4.85.66-5.54.65-6.25.68-6.99.71-7.78.72-8.56.74-9.31.87" filter="url(#a)"/><path d="m51.14-51.79-.24-.23-.24.52-.62.67-1.15.51-1.7.29-2.25.13-2.81.03-3.39-.05-3.99-.19-4.63-.41-5.27-.7-5.92-.99-6.59-1.29-7.26-1.56-7.99-1.77-8.72-1.94-9.47-2.1-10.29-2.24m7.26-18.86.74-.38 1.53-.67 1.39-.52 1.29-.37 1.39-.32 1.55-.32 1.71-.33 1.82-.35 1.9-.33 1.91-.33 1.91-.3 1.86-.3 1.78-.27 1.67-.25 1.54-.23 1.39-.2 1.24-.18 1.1-.15.98-.13.8-.13.56-.14.52-.05" filter="url(#a)"/><path d="m45.43-62.08.74 1.47.56 1.08.59 1.08.68 1.17.72 1.2.68 1.14.6 1.01.51.87.41.73.31.58.19.41.07.2-.09-.07-.26-.34-.42-.62-.59-.92-.77-1.26-1.04-1.74-1.42-2.38-1.92-3.09m-72.79-18.16.45-.34.73-.43.98-.56 1.09-.64 1.1-.63.99-.57.8-.44.57-.3.39-.17.22-.05.1.03-.04.13-.21.23-.43.37-.7.54-1.05.74-1.4.96-1.73 1.15-2.01 1.28-2.35 1.33M3.09-88.6l1.56.14.98.23.4.27.02.38-.32.48-.71.6-1.11.71-1.5.85-1.93 1.01-2.36 1.18-2.84 1.34-3.34 1.48-3.86 1.61-4.43 1.73-5.07 1.86-5.77 2.06-6.43 2.33m48.19-16.09 1.13.43 1.24.6 1.24.67 1.27.72 1.31.79 1.38.85 1.46.9 1.47.9 1.42.86 1.29.79 1.14.71.98.62.79.5.61.39.43.27.27.16h.1l-.17-.27" filter="url(#a)"/><path d="m-27.81-79.72.48-.35.83-.46 1.14-.62 1.32-.71 1.38-.73 1.31-.7 1.14-.59.95-.49.79-.39.65-.31.52-.23.34-.16.14-.06-.11.06-.39.17-.66.28-.8.33-.83.41m62.33 19.05 1.13 1.46 1.13 1.54.92 1.39.74 1.2.65 1.09.6 1.01.55.92.45.75.32.55.17.32.01.07-.17-.2-.37-.48-.58-.77-.78-1.09-1.01-1.43-1.26-1.82-1.52-2.23-1.61-2.44M-8.66-87.92l.93-.23.99-.09 1.21-.06 1.35-.06 1.4-.04 1.38-.01 1.33.01 1.27.02 1.19.05 1.1.04 1 .05.89.04.79.04.67.04.51.02.3.01.04-.02-.27-.04-.63-.08-1.08-.14-1.43-.22" filter="url(#a)"/><path d="m40.4-67.9 1.57 1.84.63.84.27.44.17.38.03.35-.22.17-.55-.11-.93-.44-1.28-.78-1.64-1.14-2.03-1.52-2.46-1.95L31-72.23l-3.52-2.92-4.16-3.43-4.88-3.94" filter="url(#a)"/><path d="M7.46-88.02h.09l1.19.54 1.78.92 2.01 1.17 2.19 1.36 2.42 1.54 2.66 1.7 2.84 1.82 2.95 1.9 2.97 1.93 2.91 1.88 2.82 1.87 2.8 1.96 2.9 2.19m-57.2-18.25.37-.07 1.13-.3 1.47-.4 1.5-.39 1.48-.35 1.46-.32 1.43-.29 1.31-.26 1.13-.23.93-.18.73-.15.54-.12.33-.08.05-.04-.35.03-.96.09m4.15-.21 1.57.02.94.02.79.04.79.08.78.1.68.12.51.12.32.14.11.15-.12.16-.36.18-.6.19-.86.22-1.14.25-1.46.27-1.79.31-2.18.33-2.6.34-3.01.33-3.46.36-4.17.48" filter="url(#a)"/><path d="m49.46-55.31 1.01 2.09.56 1.05.51.98.5.98.43.92.37.82.3.74.23.67.16.59.06.43-.06.22-.2-.04-.36-.35-.52-.63-.69-.93-.85-1.22-1.01-1.5-1.19-1.82-1.38-2.17-1.58-2.58-1.85-3.08-2.16-3.63-2.51-4.13M15.52-86.21l1.19.61.76.39.55.35.39.37.29.4.18.41v.42l-.23.41-.52.38-.82.35-1.12.33-1.43.32-1.73.31-2.03.34-2.37.38-2.74.41-3.12.42-3.52.39-3.89.32-4.24.23-4.59.15-5 .16-5.51.22m86.36 64.5 7.07 2.61 4.59 3.05-.36 2.93-1.86 2.74L70.41.32l-.42 2.6.47 2.59.9 2.61.76 2.63.25 2.66-.39 2.66-.83 2.66-.92 2.63-.64 2.58-.1 2.52.61 2.47 1.34 2.42 1.98 2.38 2.41 2.34 2.55 2.32 2.35 2.3 1.82 2.32 1.08 2.32.26 2.32-.46 2.3-.99 2.27-1.28 2.2-1.37 2.13-1.36 2.05-1.28 1.97-1.18 1.9-1.12 1.88-1.34 1.96-2.05 2.31-2.75 3M-.51-88.76h-1.82l-2.19.12-2.27.2-2.24.31-2.31.4-2.51.51-2.7.6-2.84.68-2.85.76-2.78.83-2.69.89-2.59.95-2.52 1-2.47 1.07-2.49 1.13-2.59 1.22-2.79 1.3-3.06 1.39-3.33 1.46-3.47 1.51-3.42 1.55-3.18 1.59-2.81 1.64-2.53 1.7-2.48 1.79-2.71 1.91-3.08 2.01-3.34 2.09-3.39 2.11-3.46 2.08-3.94 2.07-4.54 2.06-2.98 1.96" filter="url(#a)"/><path d="m-.03-88.89-2.47.18-2.41.25-2.43.3-2.37.35-2.27.43-2.13.51-2.04.57-2.03.65-2.14.71-2.37.78-2.69.88-2.94.97-3.05 1.05-2.99 1.12-2.87 1.17-2.86 1.21-3.03 1.28-3.32 1.35-3.41 1.39-3.03 1.34-2.47 1.13-2.93.98" filter="url(#a)"/><path d="m-1.86-88.81-2.41.12-1.78.22-1.67.31-1.86.42-2.06.51-2.18.61-2.23.7-2.28.77-2.38.84-2.52.9-2.67.96-2.78 1.01-2.79 1.08-2.7 1.15-2.54 1.23-2.35 1.32-2.24 1.39-2.25 1.47-2.42 1.52-2.78 1.57-3.27 1.61-3.81 1.67-4.24 1.73-4.48 1.82-4.39 1.91-3.98 1.99-3.34 2.06-2.65 2.09-2.1 2.12-1.81 2.12-1.89 2.14-2.32 2.15-2.99 2.17-3.56 2.22-3.74 2.51-4.34 3.78M62.27-13.04l11.32 1.19.61 2.17.02 2.64 2.61 2.76 4.6 2.73 4.84 2.68 3.87 2.63 2.66 2.58 1.83 2.54 1.45 2.52 1.27 2.5 1.03 2.52.63 2.56.19 2.6-.03 2.66.15 2.69.72 2.68 1.42 2.62 1.97 2.52 2.41 2.45 2.99 2.47 3.7 2.55 3.48 2.54 3.63 2.16" filter="url(#a)"/><path d="m-13.5-86.74-1.27.54-1.84.67-1.88.75-1.87.83-1.96.95-2.05 1.06-2.12 1.13-2.11 1.18-2.01 1.24-1.88 1.29-1.71 1.33-1.59 1.39-1.49 1.44-1.47 1.51-1.52 1.59-1.6 1.66-1.73 1.75-1.86 1.8-1.98 1.86-2.03 1.91-2.06 1.95-2.01 2.01-1.93 2.08-1.81 2.15-1.67 2.21-1.53 2.27-1.37 2.32-1.24 2.37-1.2 2.43-1.28 2.49-1.48 2.51-1.62 2.56-1.5 2.92-1.23 4.26" filter="url(#a)"/><path d="m-17.25-85.4-1.87.63-1.63.77-1.93.95-2.26 1.08-2.62 1.16-3.15 1.19-3.85 1.24-4.42 1.28-4.55 1.33-4.12 1.38-3.31 1.44-2.49 1.5-1.96 1.58-1.84 1.66-2.03 1.74-2.32 1.8-2.58 1.86-2.76 1.89-2.87 1.94-2.99 2-3.07 2.07-3.14 2.14-3.25 2.21-3.54 2.25-4.15 2.29-5.02 2.36-5.86 2.45-6.16 2.56-5.19 2.52-.93 1.93" filter="url(#a)"/><path d="m-17.21-85.49-2.63 1.16-1.86.94-1.79 1.02-1.7 1.05-1.6 1.08-1.56 1.14-1.6 1.25-1.65 1.36-1.68 1.45-1.67 1.51-1.63 1.55-1.58 1.6-1.53 1.63-1.47 1.69-1.45 1.77-1.41 1.84-1.39 1.94-1.34 2-1.29 2.06-1.23 2.09-1.17 2.13-1.12 2.14-1.07 2.18-1.03 2.22-.99 2.27-.95 2.33-.92 2.39-.87 2.42-.82 2.44-.76 2.44-.71 2.47-.65 2.53-.61 2.63-.61 2.7-.72 2.93" filter="url(#a)"/><path d="m-18.46-84.8-2.06.74-2.17.94-2.85 1.12-3.48 1.17-3.78 1.2-3.62 1.22-3.16 1.27-2.71 1.32-2.44 1.37-2.41 1.42-2.56 1.47-2.75 1.56-2.88 1.64-2.87 1.73-2.73 1.81-2.56 1.84-2.52 1.86-2.73 1.9-3.21 1.95-3.86 2.04-4.6 2.15-5.24 2.23-5.76 2.25-6.67 2.22-8.91 2.23" filter="url(#a)"/><path d="m-24.65-81.86-2.84.84-2.96.84-2.63 1.01-2.28 1.21-2.05 1.36-1.89 1.48-1.75 1.53-1.63 1.55-1.66 1.56-1.89 1.59-2.28 1.63-2.73 1.7-3.06 1.81-3.19 1.92-3.13 2-2.95 2.07-2.79 2.08-2.86 2.08-3.22 2.09-3.81 2.11-4.3 2.12-4.26 2.09-3.59 1.89-2.6 1.4" filter="url(#a)"/><path d="m-24.13-81.97-3.57 1.38-1.37 1.15-1.19 1.2-1.44 1.28-1.79 1.36-2.16 1.41-2.51 1.46-2.78 1.53-2.93 1.61-2.93 1.7-2.82 1.77-2.7 1.84-2.62 1.89-2.59 1.94-2.59 1.98-2.57 2.05-2.46 2.1-2.3 2.18-2.15 2.23-2.03 2.3-1.95 2.34-1.87 2.4-1.74 2.45-1.55 2.5-1.36 2.53-1.29 2.55-1.43 2.57-1.79 2.56-2.27 2.55-2.68 2.54-2.82 2.54-2.61 2.58-2.25 2.65-2.06 2.81-2.05 3.08-2.11 3.41" filter="url(#a)"/><path d="m-27.09-80.14-1.31.76-2.52 1.13-2.96 1.28-2.61 1.37-2.04 1.41-1.75 1.46-1.84 1.52-2.22 1.6-2.66 1.7-2.95 1.77-3.04 1.85-2.98 1.88-2.93 1.93-3 1.97-3.23 2.04-3.59 2.1-4 2.17-4.33 2.23-4.41 2.28-4.13 2.34-3.47 2.39-2.56 2.45-1.68 2.49-1.18 2.53-1.2 2.56-1.75 2.57-2.55 2.56-3.32 2.53-3.93 2.52-4.45 2.52-4.93 2.49-4.94 2.49-3.24 3.41" filter="url(#a)"/><path d="m-27.44-80.13-1.43.83-2.66 1.31-2.39 1.47-1.9 1.54-1.76 1.58-1.96 1.58-2.29 1.59-2.68 1.62-3.03 1.67-3.33 1.76-3.49 1.86-3.46 1.95-3.3 2.02-3.11 2.07-2.98 2.1-2.99 2.12-3.15 2.15-3.44 2.17-3.83 2.21-4.26 2.27-4.65 2.33-4.91 2.38-4.95 2.42-4.73 2.43-4.23 2.45-3.6 2.47-3.02 2.52-2.79 2.6-3.14 2.64-4.47 2.61-7.37 2.38" filter="url(#a)"/><path d="m-27.44-80.13-1.07.81-1.82 1.28-2.55 1.45-3.55 1.52-4.47 1.56-4.83 1.56-4.47 1.56-3.67 1.57-2.97 1.62-2.75 1.7-3.12 1.8-3.82 1.92-4.43 2.01-4.63 2.07-4.3 2.08-3.62 2.07-2.94 2.08-2.6 2.1-2.79 2.12-3.4 2.08-4.26 1.87-5.94 1.4" filter="url(#a)"/><path d="m-27.44-80.13-4.55.84-2.32 1.31-1.85 1.48-2.38 1.55-2.88 1.58-3 1.6-2.85 1.6-2.66 1.63-2.58 1.69-2.64 1.78-2.76 1.87-2.84 1.96-2.81 2.03-2.65 2.08-2.35 2.11-2.02 2.14-1.69 2.16-1.46 2.2-1.35 2.24-1.35 2.29-1.46 2.34-1.6 2.38-1.73 2.42-1.86 2.45-1.97 2.47-2.07 2.5-2.18 2.51-2.23 2.52-2.23 2.53-2.16 2.52L-98-16.8l-2.02 2.63-2.02 2.83-1.96 3.06-2 3.21-3.29 3.08" filter="url(#a)"/><path d="m-37.08-71.92-.92.82-1.47 1.45-1.77 1.8-1.94 1.94-1.99 1.94-1.9 1.92-1.71 1.94-1.5 1.99-1.39 2.05-1.38 2.14-1.46 2.2-1.56 2.27-1.6 2.32-1.56 2.37-1.4 2.42-1.21 2.47-.99 2.51-.8 2.53-.71 2.55-.72 2.57-.82 2.56-.95 2.57-1.08 2.58-1.17 2.59-1.19 2.62-1.18 2.65-1.16 2.67-1.1 2.67-1.04 2.65-.92 2.62-.8 2.62-.7 2.64-.64 2.72-.54 2.81-.3 2.86.02 2.56.27 1.3M61.4-19.48l9.37 2.68 10.3 2.75 4.6 2.85.98 2.89-.67 2.83-1.72 2.73-2.4 2.64-2.44 2.58-1.71 2.57-.48 2.57.83 2.58 1.89 2.62 2.57 2.65 3.01 2.66 3.43 2.63 3.96 2.58 4.56 2.51 4.99 2.46 4.91 2.44 4.19 2.41 3.11 2.3 2.3 2.06 1.65 1.86-.83 2.17" filter="url(#a)"/><path d="m-38.82-69.86-1.73 1.48-1.32 1.6-1.4 1.77-1.51 1.93-1.55 2.06-1.55 2.12-1.56 2.14-1.53 2.13-1.47 2.14-1.37 2.16-1.27 2.2-1.15 2.25-1.04 2.31-.94 2.35-.85 2.4-.76 2.43-.72 2.46-.69 2.47-.7 2.5-.72 2.51-.76 2.54-.76 2.55-.76 2.58-.73 2.64-.68 2.7-.63 2.78-.61 2.83-.59 2.83-.56 2.75-.47 2.62-.33 2.49-.19 2.49-.08 2.71.01 3.15.23 3.08" filter="url(#a)"/><path d="m-40.53-68.36-1.43 1.55-1.63 1.74-1.76 1.94-1.86 2.07-1.83 2.14-1.69 2.14-1.53 2.12-1.4 2.12L-55-50.4l-1.36 2.18-1.45 2.22-1.55 2.29-1.62 2.34-1.66 2.39-1.66 2.42-1.66 2.44-1.64 2.46-1.59 2.48-1.49 2.5-1.34 2.51-1.22 2.52-1.14 2.51-1.15 2.56-1.21 2.64-1.31 2.82-1.4 2.99-1.46 3.08-1.24 2.98-.19 2.68" filter="url(#a)"/><path d="m-41.61-66.87-1.45 1.78-1.7 1.97-1.89 2.13-1.86 2.18-1.75 2.16-1.75 2.14-1.96 2.13-2.23 2.15-2.46 2.19-2.56 2.25-2.6 2.31-2.61 2.36-2.66 2.4-2.66 2.44-2.58 2.46-2.41 2.47-2.19 2.5-1.99 2.51-1.9 2.53-1.93 2.56-2.05 2.58-2.23 2.64-2.43 2.71-2.59 2.77-2.68 2.82-2.62 2.8-2.36 2.74-2.02 2.63-1.69 2.54-1.48 2.54-1.35 2.69-1.24 2.89-1.36 2.86-2.04 2.24" filter="url(#a)"/><path d="m-44.5-63.35-1.68 2.31-1.64 2.32-2.03 2.18-2.82 2.09-3.68 2.07-4.13 2.11-3.96 2.15-3.31 2.22-2.63 2.28-2.3 2.34-2.43 2.39-2.73 2.41-2.86 2.44-2.67 2.44-2.23 2.47-1.9 2.49-2.04 2.5-2.73 2.49-3.69 2.49-4.4 2.5-4.42 2.61-3.73 2.8-2.93 3.05-3.15 3.17-5.8 3.04" filter="url(#a)"/><path d="m-45.86-61.06-2.55 2.5-2.63 2.2-2.23 2.06-2.02 2.07-2.05 2.11-2.12 2.18-1.94 2.24-1.52 2.3-1.05 2.37-.78 2.41-.8 2.44-1.07 2.45-1.45 2.47-1.81 2.48-2.03 2.51-2.1 2.52-2.02 2.54-1.8 2.57-1.49 2.62-1.25 2.7-1.17 2.77-1.39 2.83-1.86 2.82-2.43 2.74-2.92 2.6-3.13 2.47-3.03 2.47-2.62 2.71-1.76 3.13.06 3.07" filter="url(#a)"/><path d="m-49-55.69-1.58 2.07-2.29 2.32-2.71 2.31-3.59 2.31-4.36 2.36-4.28 2.44-3.31 2.49-2.01 2.54-1.03 2.56-.67 2.57-.9 2.57-1.41 2.56-1.88 2.56-2.12 2.58-2.14 2.59-2.06 2.62-1.95 2.64-1.9 2.66-1.87 2.65-1.84 2.65L-94.61-3l-1.43 2.64-1.01 2.66-.49 2.67-.11 2.66-.07 2.65-.54 2.59-1.4 2.55-2.27 2.54-2.63 2.63-2.29 2.79-1.71 2.99-1.74 2.99-3.28 2.63" filter="url(#a)"/><path d="m-50.06-53.99-2.11 2.71-2.48 2.33-2.12 2.26-1.7 2.32-1.65 2.41-1.81 2.49-1.89 2.52-1.81 2.54-1.67 2.55-1.63 2.55-1.73 2.54-1.92 2.53-2.08 2.53-2.08 2.56-1.88 2.59-1.52 2.63-1.1 2.66-.75 2.65-.63 2.62-.78 2.58-1.18 2.56-1.66 2.59-2.02 2.68-2.15 2.87-1.96 3.19-1.66 3.21M61.08-22.04l.47 2.56.74 2.67.9 2.78.9 2.86.71 2.88.43 2.83.18 2.75.01 2.68-.08 2.63-.12 2.61-.12 2.61-.07 2.62v2.65l.06 2.65.11 2.65.08 2.63-.03 2.58-.2 2.54-.39 2.48-.57 2.42-.71 2.37-.76 2.33-.76 2.29-.69 2.29-.65 2.3-.65 2.33-.74 2.36-.9 2.35-1.04 2.35-1.09 2.34-1 2.1-.4 1.11M-54.63-44.15l-1.3 2.36-1.63 2.62-1.68 2.58-1.42 2.55-1.03 2.55-.78 2.55-.75 2.53-.88 2.51-1 2.51-1.03 2.55-.91 2.59-.74 2.63-.61 2.65-.6 2.64-.72 2.61-.91 2.58-1.01 2.58-.95 2.61-.74 2.67-.44 2.74-.19 2.73-.18 2.54-.61 2.23-1.51 2.56" filter="url(#a)"/><path d="m60.52-24.87.43 2.63.32 2.6.3 2.65.25 2.73.13 2.81-.03 2.83-.17 2.8-.24 2.72-.24 2.65-.22 2.59-.22 2.56-.26 2.55-.34 2.57-.43 2.6-.51 2.65-.52 2.68-.5 2.68-.52 2.6-.57 2.46-.65 2.26-.71 2.1-.79 2.43m4.73-60.45 8.05 2.99-.73 2.76-.48 2.69 1.77 2.69 3.71 2.76 4.65 2.81 4.78 2.82 4.55 2.8 4.41 2.73 4.42 2.67 4.39 2.61 4.17 2.59 3.63 2.58 2.81 2.59 1.82 2.62.77 2.65-.19 2.67-.84 2.66-.84 2.59.02 2.51 1.6 2.45 3.08 2.47 3.41 2.6 3.04 2.56 4.84 1.3" filter="url(#a)"/><path d="m59.88-28.3 3.74 1.43 3.82 2.64 2.78 2.91 3.25 2.92 4.24 2.8 5.14 2.71 5.8 2.64 6.08 2.65 5.73 2.68 4.62 2.68 3.1 2.66 1.79 2.63 1.32 2.59 1.82 2.55 2.93 2.51 3.84 2.49 3.88 2.47 2.89 2.48 1.45 2.49.69 2.54 1.39 2.77 3.69 3.19m-74.6-58.7.5 1.2.48 1.88.52 2.51.5 2.8.47 2.86.41 2.82.38 2.76.35 2.72.32 2.71.29 2.71.22 2.7.15 2.69.06 2.65-.01 2.63-.04 2.59-.07 2.58-.09 2.57-.1 2.57-.14 2.6-.18 2.64-.26 2.66-.36 2.68-.47 2.67-.61 2.63-.75 2.58-.86 2.54-.93 2.52-.97 2.49-.95 2.47-.92 2.41-.91 2.33-1 2.29-1.08 2.28-.92 1.79m4.62-93.85-1.55-3.12-2.26-2.71L51-46.01l-1.52-2.1-1.05-2.05-.89-2.08-1.01-2.14-1.31-2.18-1.67-2.18-2.01-2.12-2.3-2.03-2.49-1.93-2.57-1.81-2.54-1.73-2.4-1.67-2.15-1.61-1.85-1.56-1.51-1.5-1.27-1.43-1.15-1.34-1.16-1.24-1.26-1.15-1.37-1.08-1.5-1.03-1.65-1-1.81-.94-1.77-.81-1.55-.61" filter="url(#a)"/><path d="m54.47-44.95-3.5-1.58-5.63-1.81-3.56-1.97-.85-2.07.14-2.15-.43-2.21-1.46-2.2-2.2-2.14-2.39-2.02-2.19-1.91-1.91-1.81-1.72-1.72-1.66-1.65-1.66-1.6-1.61-1.55-1.53-1.48-1.41-1.41-1.34-1.32-1.38-1.23-1.5-1.15-1.64-1.08-1.77-1.02-1.83-.96-1.79-.9-1.69-.84-1.55-.75-1.39-.69-1.3-.62-1.21-.54-.45-.2" filter="url(#a)"/><path d="m53.91-46.22-4.19-2.1-4.36-1.96-2.22-2-.76-2-.46-1.98-.9-1.96-1.46-1.95-1.75-1.93-1.7-1.88-1.5-1.82-1.39-1.76-1.43-1.68-1.54-1.6-1.64-1.51-1.67-1.45-1.7-1.39-1.85-1.38-2.11-1.35-2.33-1.3-2.29-1.18-1.92-1.01-1.65-.92-2.13-1.22" filter="url(#a)"/><path d="m51.14-51.79-.99-2.61.51-2.57.98-2.39.05-2.2-.95-2.02-1.35-1.87-1.28-1.76-1.08-1.69-.95-1.63-.95-1.58-1.09-1.53-1.29-1.46-1.53-1.37-1.77-1.3-1.95-1.21-2.03-1.13-2.06-1.06-2.03-.99-2-.93-2.03-.86-2.09-.8-2.22-.72-2.36-.66-2.49-.58-2.6-.51-2.68-.44-2.74-.37-2.81-.27-2.92-.19-3.07-.1h-3.3l-3.59.08-3.88.17-4.11.24-4.28.31-4.59.41-5.89.64" filter="url(#a)"/><path d="m49.46-55.31 2.27-1.37-1.78-1.92-2.2-2-1.95-1.96-1.73-1.9-1.63-1.82-1.54-1.74-1.45-1.66-1.35-1.57-1.26-1.5-1.2-1.44-1.19-1.39-1.23-1.34-1.31-1.28-1.43-1.21-1.57-1.15-1.72-1.07-1.87-1.01-1.99-.94-2.08-.89-2.13-.83-2.14-.74-2.1-.65-2.05-.54-2.02-.44L8.77-88l-2.14-.25-2.27-.2-2.37-.16-2.34-.12-2.04-.08" filter="url(#a)"/><path d="m49.83-54.26.38-2.85 3.61-2.38 2.82-2.2.4-2.01-1.8-1.84-3.13-1.73-3.57-1.67-3.4-1.62-2.93-1.58-2.43-1.53-1.97-1.45-1.63-1.38-1.4-1.29L33.53-79l-1.2-1.13-1.21-1.05-1.3-.99-1.45-.93-1.64-.87-1.85-.79-2.06-.73-2.25-.66-2.41-.58-2.56-.52-2.65-.45-2.74-.37-2.81-.29-2.88-.2-3.01-.1-3.22-.01-3.53.09-3.83.18-4.08.24-4.09.24" filter="url(#a)"/><path d="m47.5-57.79-.74-1.89-1.2-2.14-1.45-2-1.47-1.8-1.45-1.7-1.46-1.65-1.49-1.61-1.52-1.57-1.55-1.53-1.57-1.46-1.57-1.38-1.56-1.29-1.57-1.2-1.59-1.12-1.62-1.06-1.68-.99-1.73-.93-1.77-.87-1.8-.8-1.82-.73-1.83-.66-1.86-.59-1.91-.53-1.95-.46-1.99-.39-1.99-.31-1.94-.22-1.92-.12-2.05-.04-2.57.05" filter="url(#a)"/><path d="m46.77-59.32-1.52-2.58-1.43-2.09-1.27-1.78-1.22-1.66-1.26-1.63-1.34-1.61-1.41-1.58-1.42-1.53-1.4-1.46-1.35-1.37-1.35-1.28-1.41-1.2-1.52-1.11-1.68-1.05-1.81-.98-1.91-.92-1.96-.86-1.96-.79-1.96-.72-1.95-.65-1.95-.58-1.99-.51-2.03-.44-2.08-.36-2.1-.28-2.14-.19-2.2-.1h-2.27l-2.35.09-2.43.17-2.42.23-2.3.26-1.96.29" filter="url(#a)"/><path d="m46.4-60.16-1.94-2.62-1.47-1.95-1.35-1.8-1.33-1.71-1.33-1.64-1.37-1.56-1.43-1.47-1.52-1.41-1.6-1.37-1.66-1.33-1.69-1.27-1.69-1.21-1.69-1.14-1.72-1.05-1.77-1-1.84-.94-1.9-.89-1.96-.82-1.96-.75-1.93-.65-1.88-.54-1.83-.42-1.81-.33-1.88-.24-2.01-.19-2.13-.16-2.25-.14" filter="url(#a)"/><path d="m43.7-63.86 3.11-1.1 2.18-1.7.69-1.71.3-1.65.07-1.55-.48-1.47-1.23-1.41-1.9-1.36-2.32-1.33-2.44-1.27-2.41-1.2-2.37-1.12-2.42-1.06-2.54-.99-2.69-.92-2.79-.86-2.8-.79-2.72-.71-2.6-.61-2.49-.52-2.47-.41-2.54-.33-2.7-.26-2.91-.19-3.1-.12-3.24-.07-3.36-.01-3.44.08-3.55.15-3.71.24-4.01.34-4.45.4-4.02.36" filter="url(#a)"/><path d="m42.78-65.27-1.4-2.17-.97-1.74-1.06-1.63-1.24-1.59-1.46-1.54-1.68-1.46-1.83-1.37-1.89-1.27-1.86-1.17-1.8-1.09-1.74-1.03-1.71-.97-1.67-.91-1.65-.86-1.66-.78-1.7-.72-1.79-.64-1.89-.58-1.99-.51-2.07-.44-2.11-.37-2.12-.29-2.1-.2-2.1-.11H-.89l-2.31.1-2.44.19-2.67.26" filter="url(#a)"/><path d="m40.4-67.9 1.2-.78.06-1.52-.84-1.55-.92-1.44-.94-1.38-1.22-1.36-1.58-1.32-1.85-1.27-1.97-1.2-1.97-1.12-1.95-1.04-1.95-.98-2-.91-2.08-.85-2.15-.78-2.17-.69-2.17-.6-2.18-.5-2.21-.41-2.29-.32-2.39-.25-2.51-.18-2.6-.11-2.67-.05-2.7.01-2.74.1-2.8.17-2.92.27-3.11.37-3.39.47-3.7.59-3.99.7-4.33.86-5.34 1.26" filter="url(#a)"/><path d="m37.86-71.14-1.52-1.5-1.03-1.58-.84-1.47-1.23-1.36-1.69-1.24-1.98-1.14-2.04-1.06-1.99-1.01-1.9-.96-1.8-.9-1.74-.83-1.72-.77-1.74-.69-1.78-.62-1.85-.56-1.92-.48-2-.4-2.06-.33-2.12-.24-2.16-.16-2.21-.06-2.27.02-2.32.11-2.38.19-2.42.27-2.46.35-2.5.43-2.53.5-2.55.58-2.54.64-2.47.66-2.27.66-1.46.61" filter="url(#a)"/><path d="m36.39-72.34-1.8-1.95-.97-1.48-.95-1.35-1.21-1.22-1.51-1.12-1.75-1.05-1.89-1-1.91-.95-1.85-.9-1.75-.84-1.68-.77-1.67-.69-1.73-.63-1.81-.56-1.91-.49-2.01-.42-2.1-.34-2.17-.26-2.26-.18-2.34-.08-2.45.01-2.55.1-2.64.17-2.7.25-2.78.3-3.07.42-3.92.63" filter="url(#a)"/><path d="m33.64-74.98-.75-.95-1.11-1.27-1.32-1.22-1.51-1.1-1.7-1.02-1.79-.98-1.79-.96-1.7-.9-1.62-.84-1.59-.76-1.63-.7-1.72-.62-1.8-.56-1.9-.5-1.97-.43-2.05-.36-2.11-.28-2.14-.19-2.16-.09H-.95l-2.35.1-2.5.2-2.75.25" filter="url(#a)"/><path d="m31.34-77.3 1.21-1.45.35-.99-1.16-.94-1.84-.96-2.12-.96-2.24-.9-2.27-.83-2.24-.75-2.2-.68-2.17-.61-2.2-.54-2.22-.48-2.26-.4-2.29-.33-2.33-.25-2.38-.15-2.47-.07-2.62.03-2.79.1-2.93.19-3.04.26-3.14.33-3.26.41-3.48.51-3.95.6-5.32.76" filter="url(#a)"/><path d="m30.89-77.29.93-1.77-1.35-1.24-1.88-1-2.13-.93-2.18-.92-2.08-.9-1.99-.85-1.96-.76-1.99-.66-2.04-.56-2.13-.46-2.19-.37-2.24-.28-2.27-.21-2.3-.14-2.32-.08-2.34-.01-2.38.06-2.42.15-2.48.23-2.52.32-2.59.42-2.67.51-2.77.6-2.9.69-3.06.76-3.2.84-3.28.9-3.25.95-3.07.99-2.81 1.04-2.61 1.1-2.69 1.2-3.14 1.34-3.91 1.52-4.77 2.06" filter="url(#a)"/><path d="m27.5-79.84-.92-.76-1.08-1.07-1.11-1.02-1.12-.92-1.23-.82-1.51-.74-1.86-.66-2.09-.6-2.17-.53-2.13-.47-2.07-.4-2.09-.33-2.19-.24-2.38-.16-2.64-.06-2.92.02-3.2.11-3.47.19-3.71.25-3.92.32-4.11.41-3.97.48-2.61.47" filter="url(#a)"/><path d="m22.82-82.65-2.26-1.17-1.59-.83-1.56-.7-1.65-.64-1.71-.57-1.72-.52-1.74-.45-1.83-.37-1.94-.3-2.08-.21-2.22-.11-2.36-.03-2.48.06-2.59.14-2.7.22-2.78.3-2.88.37-2.97.45-3.07.51-3.13.59-3.12.65-2.99.72-2.85.8-2.9.94-3.37 1.08-4.02 1.16-3.95.84" filter="url(#a)"/><path d="m20.92-83.55-.12-.8-1.94-.83-2.31-.77-2.16-.65-1.94-.53-1.82-.41-1.83-.32-1.91-.25-2.01-.18-2.11-.13-2.16-.07h-2.19l-2.19.07-2.19.15-2.2.24-2.28.34-2.4.42-2.6.52-2.83.61-3.08.7-3.31.77-3.49.84-3.58.9-3.55.96-3.36.99-3.06 1.03-2.83 1.09-2.92 1.21-3.4 1.34-3.88 1.51-4.2 2.05" filter="url(#a)"/><path d="m19.53-84.19-.88-.59-.94-.63-.95-.62-1.32-.57-1.79-.51-2.1-.45-2.21-.37-2.22-.3-2.21-.2-2.26-.12-2.39-.03-2.54.06-2.69.15-2.84.22-2.98.29-3.14.37-3.28.45-3.41.51-3.47.59-3.51.64-3.56.7-3.72.77-4.08.93-4.85 1.19-5.54 1.57" filter="url(#a)"/><path d="m12.58-87.05-1.11-.4-.91-.29L9.15-88l-1.88-.21-2.15-.16-2.25-.13-2.25-.07h-2.24l-2.23.07-2.25.15-2.28.24-2.37.33-2.49.43-2.63.52-2.83.61-3.01.69-3.2.76-3.33.84-3.38.91-3.37.96-3.28.97-3.07.91-2.79.91-2.41 1.22" filter="url(#a)"/><path d="m13.98-86.48-2.35-.8-1.05-.45-1.48-.36-2.1-.28-2.38-.18-2.45-.08-2.43.01-2.41.09-2.45.18-2.54.25-2.72.32-2.95.4-3.19.47-3.43.54-3.65.62-3.83.68-4.01.76-4.22.85-4.51.95-4.89 1.03-5.33 1.11-5.65 1.15-5.69 1.18-5.43 1.21-5.23 1.33-6.08 1.86" filter="url(#a)"/><path d="m10.43-87.53-2.47-.52-1.88-.22-1.9-.15-1.83-.11-1.68-.07-1.52.01-1.44.08-1.44.17-1.5.26-1.57.36-1.63.45-1.62.54-1.57.63-1.48.71-1.33.79-1.16.85-.93.91-.68.95-.43 1-.21 1.04-.04 1.11-.01 1.22-.2 1.35-.58 1.52-.75 1.67.51 1.68" filter="url(#a)"/><path d="m10.6-87.53-2.69-.59-2.1-.34-2.01-.18-2.06-.06-2.14.04-2.19.13-2.22.2-2.27.28-2.3.35-2.35.44-2.39.5-2.44.58-2.45.66-2.42.74-2.35.81-2.27.91-2.22.98-2.24 1.06-2.36 1.13-2.55 1.2-2.77 1.25-2.92 1.3-3.01 1.36-2.97 1.41-2.85 1.47-2.69 1.54-2.54 1.63-2.45 1.72-2.44 1.8-2.52 1.85-2.62 1.86-2.72 1.87-2.79 1.91-2.94 2.02-3.18 2.24-3.25 2.69" filter="url(#a)"/><path d="m7.03-88.3-1.96-.27-1.75-.14-1.88-.03-2.15.05-2.35.13-2.37.21-2.23.29-2.08.36-2.04.44-2.11.51-2.33.59-2.6.66-2.89.74-3.14.83-3.33.91-3.48.99-3.56 1.06-3.6 1.14-3.6 1.2-3.55 1.26-3.46 1.31-3.38 1.36-3.34 1.42-3.41 1.48-3.6 1.56-3.95 1.63-4.37 1.72-4.78 1.8-5.06 1.84-5.1 1.88-4.85 1.9-4.29 1.96-3.75 2.06-3.84 2.17-5.09 2.28-6.72 2.29-5.33 2.18" filter="url(#a)"/><path d="m7.03-88.3-1.88-.27-1.66-.14-1.78-.04-1.97.05-2.14.14-2.31.2-2.5.28-2.69.36-2.91.43-3.11.51-3.24.58-3.29.65-3.2.73-2.93.82-2.55.89-2.13.99-1.82 1.06-1.72 1.13-1.9 1.19-2.32 1.24-2.84 1.3-3.33 1.35-3.67 1.4-3.79 1.45-3.79 1.52-3.78 1.62-3.87 1.73-4.04 1.82-4.14 1.87-4 1.85-3.6 1.8-3.22 1.82-3.42 2.28" filter="url(#a)"/><path d="m3.17-88.88-1.54.05-2.06.06-2.31.14-2.31.22-2.32.28-2.44.35-2.72.43-3.01.5-3.19.58-3.23.64-3.12.72-3 .8-2.92.88-2.95.97L-37-81.2l-3.14 1.12-3.17 1.17-3.14 1.24-3.17 1.28-3.41 1.34-3.93 1.36-4.57 1.37-4.99 1.38-4.95 1.49-5.01 1.78-6.52 2.2" filter="url(#a)"/></g><path fill="none" stroke="#000" stroke-linejoin="round" stroke-width="3" d="M-8.4 27.29Q9.51 30.48.555-5.15" filter="url(#a)"/><path fill="#D77F8C" stroke="#000" stroke-linejoin="round" stroke-width="3" d="m19.43 65.91.16 1.48-.15-1.1.15 1.31.16.98-.09.69.04-.96-.02.84-.11 1.97.14-.64-.07.51-.05.03-.12.98-.18.98-.35.98-.05.17-.05.47.1-.29-.78 1.71.23-.3-.22.47-.14.04-.41 1.01-.36.58-.2.3-.02-.1-.25.53-.41.44.07-.11-.72.91-.24.27-.77.83-.97.89.26-.29.25-.12-.38.25-1.69 1.28-.06.09-.67.36-.04.02.07-.01-.29.12-.56.31-.51.27-.87.35-.9.33.6-.2-.22.07-.71.24-.55.16-1.82.37-.69.1 1.2-.18-.95.15-1.27.1-.33.01-.81-.01-.99-.06.04.03-.97-.11-.49-.08.91.14-.59-.11-1.46-.29-.19-.05-.45-.07-.25-.11-1.44-.5-.15-.08.31.11h-.05l-1.05-.48-1.36-.7-.28-.19-.62-.36.93.61-1.61-1.13.18.08-.72-.51-.05-.14.07.09-1.05-.88.58.41-.77-.69-.79-.87-.62-.78.31.36-.44-.53-.05-.17-.5-.69-.14-.3-.81-1.45-.05-.02-.18-.47-.33-.94-.26-.62.2.75-.02-.51-.02-.02-.39-1.1-.14-.82.13.45-.22-1.3-.21-.97.2.76-.19-1.46-.05.47.07-2.13-.01-.02.06-.04.04-.81v.13l.34-1.63-.09.15.34-1.28.1-.04.09-.47.18-.62.19-.47.04-.02-.01.11.48-1.05.38-.72.05-.03.87-1.26.05-.26-.23.49.44-.67.17-.16.97-1.13.26-.25.16-.23.93-.8-.06.08-.16.11 1.17-.94-.15.09 1.43-.92-.38.24.01-.01.53-.34.41-.19.04-.01 1.87-.89-.57.23 1.5-.55.25-.08-.56.18 1.72-.49-.54.14 1.77-.37-.47.08.15-.03 1.49-.18.21-.02-.12.01.86-.05 1.74.03-.51-.02.42.05 1.17.08.58.12.02.01 1.28.3-.12-.04.55.13-.41-.14.88.3 1.43.53.45.21-.16-.05-.19-.14 1.45.75-.22-.16.22.19.71.43 1.28.85-.6-.48 1.33 1.01-.38-.29.47.45 1.03.9.4.51-.6-.71 1.01 1.25.19.13.34.55-.13-.25.42.54.52.84.12.47.31.43.53 1.05-.26-.58.5 1.22.04.18.29 1.11.27.64-.27-.75.26.63" filter="url(#a)"/></svg>