<svg viewBox="-100 -100 200 200" xmlns="http://www.w3.org/2000/svg" width="500" height="500" id="face-svg">
    <defs>
      <clipPath id="leftEyeClipPath">
        <polyline points="26.1,-3.09 26.02,-3.81 25.9,-4.49 25.72,-5.13 25.49,-5.73 25.22,-6.29 24.9,-6.82 24.54,-7.31 24.14,-7.77 23.7,-8.2 23.22,-8.6 22.71,-8.98 22.17,-9.33 21.59,-9.65 20.99,-9.96 20.35,-10.24 19.63,-10.5 18.87,-10.74 18.08,-10.96 17.26,-11.16 16.41,-11.36 15.53,-11.53 14.63,-11.69 13.71,-11.84 12.77,-11.98 11.81,-12.11 10.84,-12.22 9.86,-12.32 8.86,-12.42 7.87,-12.51 6.86,-12.59 5.86,-12.66 4.85,-12.72 3.84,-12.78 2.84,-12.83 1.85,-12.87 0.86,-12.91 -0.11,-12.94 -1.08,-12.97 -2.03,-12.99 -2.97,-13.01 -3.89,-13.03 -4.8,-13.04 -5.69,-13.04 -6.55,-13.04 -7.4,-13.04 -8.22,-13.04 -9.02,-13.03 -9.8,-13.02 -10.56,-13.01 -11.29,-12.99 -11.99,-12.97 -12.67,-12.95 -13.33,-12.92 -13.96,-12.89 -14.56,-12.86 -15.14,-12.83 -15.7,-12.8 -16.23,-12.76 -16.73,-12.72 -17.22,-12.67 -17.68,-12.63 -18.11,-12.58 -18.53,-12.53 -18.92,-12.48 -19.3,-12.43 -19.66,-12.37 -19.99,-12.31 -20.31,-12.25 -20.61,-12.19 -20.9,-12.13 -21.16,-12.06 -21.41,-11.99 -21.64,-11.92 -21.85,-11.84 -22.05,-11.77 -22.23,-11.69 -22.39,-11.61 -22.54,-11.53 -22.68,-11.44 -19.15,-6.4 -18.74,-6.04 -18.33,-5.67 -17.9,-5.28 -17.47,-4.89 -17.03,-4.48 -16.57,-4.07 -16.11,-3.64 -15.64,-3.2 -15.15,-2.76 -14.66,-2.3 -14.16,-1.83 -13.66,-1.35 -13.14,-0.87 -12.62,-0.37 -12.09,0.13 -11.55,0.65 -10.99,1.17 -10.43,1.71 -9.86,2.25 -9.27,2.81 -8.68,3.37 -8.09,3.93 -7.48,4.51 -6.87,5.08 -6.25,5.66 -5.62,6.24 -4.99,6.82 -4.35,7.4 -3.71,7.98 -3.06,8.54 -2.41,9.1 -1.75,9.65 -1.09,10.19 -0.42,10.71 0.25,11.22 0.93,11.7 1.6,12.16 2.29,12.6 2.97,13.01 3.66,13.39 4.35,13.74 5.05,14.05 5.75,14.33 6.45,14.57 7.16,14.76 7.87,14.91 8.58,15.01 9.3,15.07 10.02,15.07 10.74,15.02 11.46,14.92 12.19,14.76 12.92,14.55 13.65,14.28 14.38,13.95 15.11,13.56 15.84,13.11 16.58,12.61 17.31,12.04 18.04,11.42 18.76,10.74 19.48,10.01 20.2,9.23 20.9,8.4 21.44,7.9 21.96,7.37 22.47,6.82 22.96,6.26 23.43,5.67 23.88,5.06 24.31,4.44 24.71,3.81 25.09,3.17 25.44,2.52 25.76,1.86 26.05,1.21 26.31,0.55 26.52,-0.1 26.7,-0.75" />
      </clipPath>
      <clipPath id="rightEyeClipPath">
        <polyline points="-25.69,-5.66 -25.49,-6.62 -25.24,-7.52 -24.95,-8.36 -24.63,-9.16 -24.26,-9.9 -23.86,-10.6 -23.42,-11.25 -22.94,-11.85 -22.43,-12.42 -21.89,-12.95 -21.32,-13.44 -20.72,-13.9 -20.09,-14.33 -19.43,-14.72 -18.74,-15.08 -18.02,-15.42 -17.26,-15.73 -16.46,-16.02 -15.63,-16.29 -14.76,-16.53 -13.85,-16.75 -12.92,-16.96 -11.96,-17.15 -10.98,-17.32 -9.97,-17.47 -8.95,-17.62 -7.91,-17.74 -6.85,-17.86 -5.78,-17.97 -4.7,-18.06 -3.62,-18.14 -2.53,-18.22 -1.44,-18.28 -0.36,-18.34 0.73,-18.39 1.81,-18.43 2.87,-18.47 3.93,-18.5 4.98,-18.52 6.01,-18.54 7.03,-18.56 8.02,-18.57 9,-18.57 9.95,-18.57 10.89,-18.57 11.79,-18.56 12.68,-18.55 13.53,-18.54 14.36,-18.52 15.16,-18.5 15.94,-18.47 16.68,-18.45 17.39,-18.42 18.08,-18.38 18.73,-18.35 19.36,-18.31 19.95,-18.26 20.52,-18.22 21.06,-18.17 21.57,-18.12 22.06,-18.07 22.51,-18.02 22.95,-17.96 23.36,-17.9 23.74,-17.83 24.11,-17.77 24.45,-17.7 24.77,-17.63 25.06,-17.55 25.34,-17.48 25.6,-17.4 25.83,-17.31 26.04,-17.23 26.24,-17.14 26.41,-17.05 26.57,-16.95 26.71,-16.86 26.83,-16.75 26.93,-16.65 21.41,-9.61 20.87,-9.09 20.33,-8.57 19.76,-8.03 19.19,-7.47 18.61,-6.89 18.01,-6.3 17.4,-5.7 16.79,-5.07 16.16,-4.44 15.52,-3.78 14.87,-3.12 14.22,-2.43 13.55,-1.73 12.88,-1.02 12.2,-0.3 11.5,0.45 10.79,1.2 10.07,1.98 9.35,2.76 8.61,3.56 7.86,4.37 7.11,5.2 6.35,6.03 5.59,6.87 4.82,7.71 4.05,8.56 3.27,9.4 2.49,10.25 1.71,11.09 0.93,11.93 0.15,12.75 -0.63,13.56 -1.41,14.35 -2.18,15.12 -2.96,15.87 -3.73,16.59 -4.49,17.28 -5.25,17.93 -6.01,18.54 -6.76,19.12 -7.51,19.64 -8.25,20.12 -8.98,20.54 -9.7,20.9 -10.42,21.2 -11.13,21.44 -11.83,21.61 -12.52,21.71 -13.21,21.74 -13.89,21.69 -14.55,21.56 -15.21,21.34 -15.86,21.05 -16.5,20.67 -17.14,20.21 -17.76,19.65 -18.37,19.02 -18.97,18.29 -19.56,17.48 -20.14,16.58 -20.71,15.6 -21.26,14.55 -21.81,13.41 -22.34,12.2 -22.77,11.48 -23.19,10.72 -23.59,9.93 -23.98,9.11 -24.35,8.26 -24.7,7.39 -25.03,6.49 -25.34,5.57 -25.63,4.64 -25.89,3.7 -26.13,2.74 -26.35,1.79 -26.54,0.83 -26.7,-0.11 -26.83,-1.05" />
      </clipPath>
      <filter id="fuzzy">
        <feTurbulence id="turbulence" baseFrequency="0.05" numOctaves="3" type="noise" result="noise" />
        <feDisplacementMap in="SourceGraphic" in2="noise" scale="2" />
      </filter>
      <linearGradient id="rainbowGradient" x1="0%" y1="0%" x2="100%" y2="0%">
        <stop offset="0%" style="stop-color: rgb(157, 208, 81); stop-opacity: 1" />
        <stop offset="50%" style="stop-color: rgb(157, 18, 36); stop-opacity: 1" />
        <stop offset="100%" style="stop-color: rgb(158, 61, 117); stop-opacity: 1" />
      </linearGradient>
    </defs>
    <rect x="-100" y="-100" width="100%" height="100%" fill="rgb(242, 242, 166)" />
    <polyline id="faceContour" points="70.15,0.04 70.12,0.41 70.36,1.76 70.24,2.63 70.17,3.48 70.01,5.08 70.11,6.65 70.21,6.36 69.72,8.48 69.78,9.9 69.56,11.41 68.92,13.78 68.86,14.14 68.6,15.43 68.25,16.76 68.4,16.63 68,17.81 67.72,19.98 67.65,20.64 67.3,21.46 66.86,22.29 66.75,23.03 65.89,24.56 65.43,25.71 65.6,25.72 64.64,28.7 64.11,28.91 63.33,30.89 64.12,30.47 62.82,32.83 62.7,32.31 62.66,33.11 62.31,34.14 60.81,36.23 60.92,35.89 59.9,37.56 60.11,37.59 58.48,40.38 58.29,40.25 56.85,42.2 57.76,41.19 56.79,42.83 54.94,45.05 54.51,45.24 54.28,45.88 52.76,47.57 51.85,48.68 51.87,49.18 51.98,49.26 50.99,49.8 49.44,51.15 49.13,52.01 48.87,51.97 47.08,53.75 46.44,54.36 45.51,55.11 45.39,55.25 43.83,56.94 42.67,57.15 43.25,57.01 41.64,58.33 39.58,59.85 39.85,59.63 38.25,60.36 36.37,61.81 38.25,60.59 34.69,62.79 34.3,63 34.3,63.21 32.87,63.63 31.82,64.26 29.66,65.39 29.99,65.2 28.49,65.68 27.46,66.48 26.22,66.75 25.61,67.2 24.88,67.34 24.09,67.7 24.41,67.53 20.45,68.98 19.54,69.16 20.44,69.16 18.93,69.71 16.44,70.21 16.09,70.29 15.41,70.48 15.48,70.61 12.79,71.04 11.51,71.15 11.56,71.17 9.56,71.3 9.29,71.67 6.34,71.78 8.15,71.67 3.98,71.89 5,71.96 2.7,72.16 2.96,72.14 2.25,71.98 -0.6,72.06 -2.57,72.25 -2.48,72.11 -2.58,72.27 -4.09,72.03 -4.48,71.94 -7.33,71.65 -6.78,71.94 -10.26,71.55 -9.49,71.44 -9.86,71.52 -11.3,71.35 -13.31,70.74 -14.76,70.63 -16.11,70.2 -16.58,70.12 -15.91,70.35 -18.82,69.57 -19.29,69.36 -21.21,69.02 -22.63,68.47 -23.36,68.03 -24.19,67.59 -25.11,67.49 -26.52,66.85 -26.72,66.69 -27.16,66.23 -30.4,65.25 -29.65,65.42 -30.41,64.86 -33.7,63.42 -31.94,64.38 -33.27,63.49 -34.71,62.52 -35.53,62.32 -36.85,61.44 -38.76,60.08 -38.2,60.62 -38.66,60.42 -40.36,59.06 -42.17,57.9 -41.4,58.18 -43.19,56.82 -43.71,56.67 -45.04,55.37 -45.85,54.67 -47.23,53.71 -48.13,52.73 -46.59,54.16 -48.86,51.89 -48.89,51.81 -50.8,50.25 -50.98,49.22 -51.86,48.48 -52.45,47.63 -54.06,46.42 -54.29,45.59 -55.03,45.21 -56.15,43.34 -56.63,42.9 -57.18,42.09 -57.14,42.03 -58.79,39.76 -59.07,39.79 -59.45,38.37 -59.94,38.11 -59.66,37.88 -60.46,36.28 -60.96,35.84 -61.79,33.63 -62.5,32.65 -62.17,33.58 -63,31.84 -63.4,30.87 -64.35,28.98 -64.97,27.45 -64.78,27.69 -66.31,23.66 -65.62,25.3 -66.29,23.82 -66.71,22.65 -66.89,22.25 -67.34,20.97 -68.03,18.04 -67.63,18.91 -68.33,16.46 -68.84,14.97 -68.82,13.74 -69,13.4 -69.17,12.83 -69.16,11.64 -69.66,10.99 -69.87,8.11 -69.9,8.34 -69.87,7.29 -69.78,7.26 -70.01,4.98 -70.06,2.22 -70.01,2.76 -70.06,1.28 -70.4,-0.61 -70.27,-1.39 -69.98,-3.51 -69.98,-4.73 -70.08,-4.91 -69.97,-6.16 -70.07,-5.48 -69.71,-7.29 -69.74,-8.9 -69.7,-9.48 -69.32,-10.89 -69.19,-12.99 -69.35,-13.12 -68.7,-15.2 -68.47,-16.05 -68.44,-16.78 -68.04,-18.16 -67.84,-19.33 -67.27,-20.25 -67.52,-20.49 -67.28,-20.85 -66.29,-23.33 -66.07,-23.92 -65.79,-25.98 -65.06,-27.14 -64.56,-28.49 -64.81,-27.97 -63.71,-30.53 -63.25,-31.72 -63.09,-32.08 -62.74,-32.03 -62.42,-32.81 -61.78,-33.93 -61.54,-34.81 -61.19,-35.71 -60.09,-36.99 -59.77,-38.21 -58.84,-40.13 -58.78,-39.6 -58.06,-40.68 -58.21,-40.59 -55.61,-44.5 -54.77,-44.71 -54.91,-45.28 -54.6,-45.72 -54.23,-46.01 -52.89,-47.55 -52.2,-48.8 -51.58,-49.15 -50.07,-50.95 -49.37,-51.58 -49.33,-51.58 -46.77,-53.89 -48.05,-52.82 -45.53,-54.75 -45.63,-54.88 -43.54,-56.89 -44.53,-55.93 -42.25,-58.06 -42.74,-57.15 -41.91,-57.89 -40.58,-58.75 -40.58,-58.81 -39.09,-60.32 -37.81,-60.82 -36.95,-61.31 -34.77,-62.63 -35.35,-62.69 -32.9,-63.61 -32,-64.42 -32.06,-63.93 -30.81,-65.09 -30,-65.36 -27.88,-66.23 -27.63,-66.37 -26.92,-66.62 -26.1,-67.45 -26.42,-67.05 -23.02,-68.21 -23.19,-68.03 -22.98,-68.54 -21.4,-68.74 -20.1,-69.31 -17.17,-69.94 -16.52,-70.22 -16.99,-70.11 -13.89,-70.93 -14.54,-70.55 -12.09,-71.12 -11.96,-71.11 -12.05,-71.33 -8.58,-71.58 -8.46,-71.96 -6.69,-71.85 -6.31,-71.84 -4.95,-72.08 -3.44,-72.34 -3.52,-72.35 -2.63,-72.07 -1.3,-72.22 0.79,-72.16 1.83,-72.22 3.34,-72.03 1.32,-72.11 4.32,-72.19 6.58,-71.99 7.02,-71.83 6.41,-72.16 8.59,-71.51 10.46,-71.56 11.43,-71.15 11.8,-71.09 12.52,-71.35 13.79,-70.83 14.88,-70.63 16.34,-70.18 19.29,-69.63 18.5,-69.82 18.85,-69.62 21.17,-68.81 23.37,-68.1 23.07,-68.09 22.55,-68.6 24.77,-67.85 25.92,-67.04 26.02,-67.36 27.66,-66.13 29.46,-65.45 29.8,-65.35 31.36,-64.47 31.9,-64.43 33.36,-63.85 34.89,-62.8 34.7,-62.64 35.58,-62.27 36.16,-61.98 37.11,-61.24 37.1,-61.38 38.87,-60.34 39.8,-59.37 41.15,-59.05 43.52,-56.83 43.8,-56.41 42.89,-57.4 44.09,-56.43 45.16,-55.38 46.43,-54.13 46.37,-54.45 49.22,-51.48 48.11,-52.62 48.45,-52.06 50.24,-50.51 52.03,-48.82 51.87,-48.88 52.3,-48.4 53.17,-47.08 53.88,-46.34 54.49,-45.54 54.62,-45.37 55.11,-45.23 57.19,-42.34 57.04,-42.54 58.21,-40.28 58.47,-39.51 59.87,-38.16 60.51,-36.92 60.71,-36.38 61.39,-35.05 60.93,-35.93 62.57,-33.62 63.23,-31.49 63.33,-31.34 63.78,-29.95 64.34,-29.27 64.69,-28.65 64.8,-27.65 64.82,-27.7 66.19,-24.69 66.55,-23.48 66.2,-24.29 66.56,-23.85 66.96,-21.58 67.63,-19.33 68.16,-17.73 67.98,-18.52 67.93,-18.77 68.49,-16.61 68.65,-14.79 69.09,-12.73 69.33,-11.32 69.7,-11.14 69.79,-10.53 70.02,-9.12 70.05,-6.76 70.12,-6.49 70.1,-5.59 70.34,-5.41 70.02,-3.45 70.34,-2.08 70.43,-0.34 70.15,0.04 70.12,0.41" fill="rgb(32, 32, 223)" stroke="black" stroke-width="1.6666666666666665" stroke-linejoin="round" filter="url(#fuzzy)" />
    <g transform="translate(37.760000000000005 -18.740000000000002)">
      <polyline id="rightCountour" points="-25.69,-5.66 -25.49,-6.62 -25.24,-7.52 -24.95,-8.36 -24.63,-9.16 -24.26,-9.9 -23.86,-10.6 -23.42,-11.25 -22.94,-11.85 -22.43,-12.42 -21.89,-12.95 -21.32,-13.44 -20.72,-13.9 -20.09,-14.33 -19.43,-14.72 -18.74,-15.08 -18.02,-15.42 -17.26,-15.73 -16.46,-16.02 -15.63,-16.29 -14.76,-16.53 -13.85,-16.75 -12.92,-16.96 -11.96,-17.15 -10.98,-17.32 -9.97,-17.47 -8.95,-17.62 -7.91,-17.74 -6.85,-17.86 -5.78,-17.97 -4.7,-18.06 -3.62,-18.14 -2.53,-18.22 -1.44,-18.28 -0.36,-18.34 0.73,-18.39 1.81,-18.43 2.87,-18.47 3.93,-18.5 4.98,-18.52 6.01,-18.54 7.03,-18.56 8.02,-18.57 9,-18.57 9.95,-18.57 10.89,-18.57 11.79,-18.56 12.68,-18.55 13.53,-18.54 14.36,-18.52 15.16,-18.5 15.94,-18.47 16.68,-18.45 17.39,-18.42 18.08,-18.38 18.73,-18.35 19.36,-18.31 19.95,-18.26 20.52,-18.22 21.06,-18.17 21.57,-18.12 22.06,-18.07 22.51,-18.02 22.95,-17.96 23.36,-17.9 23.74,-17.83 24.11,-17.77 24.45,-17.7 24.77,-17.63 25.06,-17.55 25.34,-17.48 25.6,-17.4 25.83,-17.31 26.04,-17.23 26.24,-17.14 26.41,-17.05 26.57,-16.95 26.71,-16.86 26.83,-16.75 26.93,-16.65 21.41,-9.61 20.87,-9.09 20.33,-8.57 19.76,-8.03 19.19,-7.47 18.61,-6.89 18.01,-6.3 17.4,-5.7 16.79,-5.07 16.16,-4.44 15.52,-3.78 14.87,-3.12 14.22,-2.43 13.55,-1.73 12.88,-1.02 12.2,-0.3 11.5,0.45 10.79,1.2 10.07,1.98 9.35,2.76 8.61,3.56 7.86,4.37 7.11,5.2 6.35,6.03 5.59,6.87 4.82,7.71 4.05,8.56 3.27,9.4 2.49,10.25 1.71,11.09 0.93,11.93 0.15,12.75 -0.63,13.56 -1.41,14.35 -2.18,15.12 -2.96,15.87 -3.73,16.59 -4.49,17.28 -5.25,17.93 -6.01,18.54 -6.76,19.12 -7.51,19.64 -8.25,20.12 -8.98,20.54 -9.7,20.9 -10.42,21.2 -11.13,21.44 -11.83,21.61 -12.52,21.71 -13.21,21.74 -13.89,21.69 -14.55,21.56 -15.21,21.34 -15.86,21.05 -16.5,20.67 -17.14,20.21 -17.76,19.65 -18.37,19.02 -18.97,18.29 -19.56,17.48 -20.14,16.58 -20.71,15.6 -21.26,14.55 -21.81,13.41 -22.34,12.2 -22.77,11.48 -23.19,10.72 -23.59,9.93 -23.98,9.11 -24.35,8.26 -24.7,7.39 -25.03,6.49 -25.34,5.57 -25.63,4.64 -25.89,3.7 -26.13,2.74 -26.35,1.79 -26.54,0.83 -26.7,-0.11 -26.83,-1.05" fill="white" stroke="white" stroke-width="0" stroke-linejoin="round" filter="url(#fuzzy)" />
    </g>
    <g transform="translate(-42.38 -17.28)">
      <polyline id="leftCountour" points="26.1,-3.09 26.02,-3.81 25.9,-4.49 25.72,-5.13 25.49,-5.73 25.22,-6.29 24.9,-6.82 24.54,-7.31 24.14,-7.77 23.7,-8.2 23.22,-8.6 22.71,-8.98 22.17,-9.33 21.59,-9.65 20.99,-9.96 20.35,-10.24 19.63,-10.5 18.87,-10.74 18.08,-10.96 17.26,-11.16 16.41,-11.36 15.53,-11.53 14.63,-11.69 13.71,-11.84 12.77,-11.98 11.81,-12.11 10.84,-12.22 9.86,-12.32 8.86,-12.42 7.87,-12.51 6.86,-12.59 5.86,-12.66 4.85,-12.72 3.84,-12.78 2.84,-12.83 1.85,-12.87 0.86,-12.91 -0.11,-12.94 -1.08,-12.97 -2.03,-12.99 -2.97,-13.01 -3.89,-13.03 -4.8,-13.04 -5.69,-13.04 -6.55,-13.04 -7.4,-13.04 -8.22,-13.04 -9.02,-13.03 -9.8,-13.02 -10.56,-13.01 -11.29,-12.99 -11.99,-12.97 -12.67,-12.95 -13.33,-12.92 -13.96,-12.89 -14.56,-12.86 -15.14,-12.83 -15.7,-12.8 -16.23,-12.76 -16.73,-12.72 -17.22,-12.67 -17.68,-12.63 -18.11,-12.58 -18.53,-12.53 -18.92,-12.48 -19.3,-12.43 -19.66,-12.37 -19.99,-12.31 -20.31,-12.25 -20.61,-12.19 -20.9,-12.13 -21.16,-12.06 -21.41,-11.99 -21.64,-11.92 -21.85,-11.84 -22.05,-11.77 -22.23,-11.69 -22.39,-11.61 -22.54,-11.53 -22.68,-11.44 -19.15,-6.4 -18.74,-6.04 -18.33,-5.67 -17.9,-5.28 -17.47,-4.89 -17.03,-4.48 -16.57,-4.07 -16.11,-3.64 -15.64,-3.2 -15.15,-2.76 -14.66,-2.3 -14.16,-1.83 -13.66,-1.35 -13.14,-0.87 -12.62,-0.37 -12.09,0.13 -11.55,0.65 -10.99,1.17 -10.43,1.71 -9.86,2.25 -9.27,2.81 -8.68,3.37 -8.09,3.93 -7.48,4.51 -6.87,5.08 -6.25,5.66 -5.62,6.24 -4.99,6.82 -4.35,7.4 -3.71,7.98 -3.06,8.54 -2.41,9.1 -1.75,9.65 -1.09,10.19 -0.42,10.71 0.25,11.22 0.93,11.7 1.6,12.16 2.29,12.6 2.97,13.01 3.66,13.39 4.35,13.74 5.05,14.05 5.75,14.33 6.45,14.57 7.16,14.76 7.87,14.91 8.58,15.01 9.3,15.07 10.02,15.07 10.74,15.02 11.46,14.92 12.19,14.76 12.92,14.55 13.65,14.28 14.38,13.95 15.11,13.56 15.84,13.11 16.58,12.61 17.31,12.04 18.04,11.42 18.76,10.74 19.48,10.01 20.2,9.23 20.9,8.4 21.44,7.9 21.96,7.37 22.47,6.82 22.96,6.26 23.43,5.67 23.88,5.06 24.31,4.44 24.71,3.81 25.09,3.17 25.44,2.52 25.76,1.86 26.05,1.21 26.31,0.55 26.52,-0.1 26.7,-0.75" fill="white" stroke="white" stroke-width="0" stroke-linejoin="round" filter="url(#fuzzy)" />
    </g>
    <g transform="translate(37.760000000000005 -18.740000000000002)">
      <polyline id="rightUpper" points="-25.14,7.73 -25.42,6.03 -25.65,4.42 -25.82,2.9 -25.95,1.45 -26.03,0.09 -26.05,-1.2 -26.03,-2.42 -25.96,-3.56 -25.85,-4.64 -25.69,-5.66 -25.49,-6.62 -25.24,-7.52 -24.95,-8.36 -24.63,-9.16 -24.26,-9.9 -23.86,-10.6 -23.42,-11.25 -22.94,-11.85 -22.43,-12.42 -21.89,-12.95 -21.32,-13.44 -20.72,-13.9 -20.09,-14.33 -19.43,-14.72 -18.74,-15.08 -18.02,-15.42 -17.26,-15.73 -16.46,-16.02 -15.63,-16.29 -14.76,-16.53 -13.85,-16.75 -12.92,-16.96 -11.96,-17.15 -10.98,-17.32 -9.97,-17.47 -8.95,-17.62 -7.91,-17.74 -6.85,-17.86 -5.78,-17.97 -4.7,-18.06 -3.62,-18.14 -2.53,-18.22 -1.44,-18.28 -0.36,-18.34 0.73,-18.39 1.81,-18.43 2.87,-18.47 3.93,-18.5 4.98,-18.52 6.01,-18.54 7.03,-18.56 8.02,-18.57 9,-18.57 9.95,-18.57 10.89,-18.57 11.79,-18.56 12.68,-18.55 13.53,-18.54 14.36,-18.52 15.16,-18.5 15.94,-18.47 16.68,-18.45 17.39,-18.42 18.08,-18.38 18.73,-18.35 19.36,-18.31 19.95,-18.26 20.52,-18.22 21.06,-18.17 21.57,-18.12 22.06,-18.07 22.51,-18.02 22.95,-17.96 23.36,-17.9 23.74,-17.83 24.11,-17.77 24.45,-17.7 24.77,-17.63 25.06,-17.55 25.34,-17.48 25.6,-17.4 25.83,-17.31 26.04,-17.23 26.24,-17.14 26.41,-17.05 26.57,-16.95 26.71,-16.86 26.83,-16.75 26.93,-16.65 27.02,-16.55 27.09,-16.44 27.14,-16.32 27.18,-16.21 27.21,-16.09 27.22,-15.97 27.21,-15.85 27.2,-15.73 27.17,-15.6 27.13,-15.47" fill="none" stroke="black" stroke-width="1.6666666666666665" stroke-linejoin="round" filter="url(#fuzzy)" />
      <polyline id="rightLower" points="-26.08,-8.42 -26.36,-7.96 -26.58,-7.41 -26.75,-6.79 -26.88,-6.1 -26.97,-5.36 -27.02,-4.57 -27.02,-3.74 -26.99,-2.87 -26.93,-1.97 -26.83,-1.05 -26.7,-0.11 -26.54,0.83 -26.35,1.79 -26.13,2.74 -25.89,3.7 -25.63,4.64 -25.34,5.57 -25.03,6.49 -24.7,7.39 -24.35,8.26 -23.98,9.11 -23.59,9.93 -23.19,10.72 -22.77,11.48 -22.34,12.2 -21.81,13.41 -21.26,14.55 -20.71,15.6 -20.14,16.58 -19.56,17.48 -18.97,18.29 -18.37,19.02 -17.76,19.65 -17.14,20.21 -16.5,20.67 -15.86,21.05 -15.21,21.34 -14.55,21.56 -13.89,21.69 -13.21,21.74 -12.52,21.71 -11.83,21.61 -11.13,21.44 -10.42,21.2 -9.7,20.9 -8.98,20.54 -8.25,20.12 -7.51,19.64 -6.76,19.12 -6.01,18.54 -5.25,17.93 -4.49,17.28 -3.73,16.59 -2.96,15.87 -2.18,15.12 -1.41,14.35 -0.63,13.56 0.15,12.75 0.93,11.93 1.71,11.09 2.49,10.25 3.27,9.4 4.05,8.56 4.82,7.71 5.59,6.87 6.35,6.03 7.11,5.2 7.86,4.37 8.61,3.56 9.35,2.76 10.07,1.98 10.79,1.2 11.5,0.45 12.2,-0.3 12.88,-1.02 13.55,-1.73 14.22,-2.43 14.87,-3.12 15.52,-3.78 16.16,-4.44 16.79,-5.07 17.4,-5.7 18.01,-6.3 18.61,-6.89 19.19,-7.47 19.76,-8.03 20.33,-8.57 20.87,-9.09 21.41,-9.61 21.93,-10.1 22.44,-10.58 22.94,-11.05 23.42,-11.5 23.89,-11.94 24.35,-12.36 24.8,-12.77 25.23,-13.16 25.65,-13.54 26.06,-13.91" fill="none" stroke="black" stroke-width="2.2222222222222223" stroke-linejoin="round" filter="url(#fuzzy)" />
      <circle r="3.7960000000000003" cx="-23.848597193330196" cy="6.73292663824121" stroke="black" fill="none" stroke-width="1.0" filter="url(#fuzzy)" clip-path="url(#rightEyeClipPath)" /><circle r="4.772" cx="-19.838597193330195" cy="5.187926638241212" stroke="black" fill="none" stroke-width="1.0" filter="url(#fuzzy)" clip-path="url(#rightEyeClipPath)" /><circle r="4.304" cx="-19.643597193330194" cy="4.067926638241211" stroke="black" fill="none" stroke-width="1.0" filter="url(#fuzzy)" clip-path="url(#rightEyeClipPath)" /><circle r="4.8260000000000005" cx="-22.633597193330196" cy="5.80292663824121" stroke="black" fill="none" stroke-width="1.0" filter="url(#fuzzy)" clip-path="url(#rightEyeClipPath)" /><circle r="4.2780000000000005" cx="-23.343597193330197" cy="3.432926638241211" stroke="black" fill="none" stroke-width="1.0" filter="url(#fuzzy)" clip-path="url(#rightEyeClipPath)" /><circle r="3.64" cx="-19.418597193330196" cy="5.757926638241212" stroke="black" fill="none" stroke-width="1.0" filter="url(#fuzzy)" clip-path="url(#rightEyeClipPath)" /><circle r="4.218" cx="-20.868597193330196" cy="3.612926638241211" stroke="black" fill="none" stroke-width="1.0" filter="url(#fuzzy)" clip-path="url(#rightEyeClipPath)" /><circle r="4.056" cx="-20.828597193330197" cy="3.682926638241211" stroke="black" fill="none" stroke-width="1.0" filter="url(#fuzzy)" clip-path="url(#rightEyeClipPath)" /><circle r="3.2359999999999998" cx="-19.903597193330196" cy="4.802926638241211" stroke="black" fill="none" stroke-width="1.0" filter="url(#fuzzy)" clip-path="url(#rightEyeClipPath)" /><circle r="4.866" cx="-21.133597193330196" cy="5.627926638241211" stroke="black" fill="none" stroke-width="1.0" filter="url(#fuzzy)" clip-path="url(#rightEyeClipPath)" />
      </g>
    <g transform="translate(-42.38 -17.28)">
      <polyline id="leftUpper" points="23.38,6.96 23.97,5.69 24.49,4.48 24.92,3.34 25.29,2.26 25.58,1.23 25.81,0.26 25.98,-0.65 26.08,-1.51 26.12,-2.33 26.1,-3.09 26.02,-3.81 25.9,-4.49 25.72,-5.13 25.49,-5.73 25.22,-6.29 24.9,-6.82 24.54,-7.31 24.14,-7.77 23.7,-8.2 23.22,-8.6 22.71,-8.98 22.17,-9.33 21.59,-9.65 20.99,-9.96 20.35,-10.24 19.63,-10.5 18.87,-10.74 18.08,-10.96 17.26,-11.16 16.41,-11.36 15.53,-11.53 14.63,-11.69 13.71,-11.84 12.77,-11.98 11.81,-12.11 10.84,-12.22 9.86,-12.32 8.86,-12.42 7.87,-12.51 6.86,-12.59 5.86,-12.66 4.85,-12.72 3.84,-12.78 2.84,-12.83 1.85,-12.87 0.86,-12.91 -0.11,-12.94 -1.08,-12.97 -2.03,-12.99 -2.97,-13.01 -3.89,-13.03 -4.8,-13.04 -5.69,-13.04 -6.55,-13.04 -7.4,-13.04 -8.22,-13.04 -9.02,-13.03 -9.8,-13.02 -10.56,-13.01 -11.29,-12.99 -11.99,-12.97 -12.67,-12.95 -13.33,-12.92 -13.96,-12.89 -14.56,-12.86 -15.14,-12.83 -15.7,-12.8 -16.23,-12.76 -16.73,-12.72 -17.22,-12.67 -17.68,-12.63 -18.11,-12.58 -18.53,-12.53 -18.92,-12.48 -19.3,-12.43 -19.66,-12.37 -19.99,-12.31 -20.31,-12.25 -20.61,-12.19 -20.9,-12.13 -21.16,-12.06 -21.41,-11.99 -21.64,-11.92 -21.85,-11.84 -22.05,-11.77 -22.23,-11.69 -22.39,-11.61 -22.54,-11.53 -22.68,-11.44 -22.8,-11.35 -22.9,-11.26 -22.99,-11.17 -23.07,-11.08 -23.14,-10.99 -23.19,-10.89 -23.24,-10.79 -23.27,-10.69 -23.28,-10.59 -23.29,-10.48" fill="none" stroke="black" stroke-width="2.2222222222222223" stroke-linejoin="round" filter="url(#fuzzy)" />
      <polyline id="leftLower" points="25.6,-5.82 25.99,-5.5 26.32,-5.12 26.57,-4.69 26.76,-4.22 26.88,-3.71 26.95,-3.17 26.96,-2.59 26.92,-2 26.83,-1.38 26.7,-0.75 26.52,-0.1 26.31,0.55 26.05,1.21 25.76,1.86 25.44,2.52 25.09,3.17 24.71,3.81 24.31,4.44 23.88,5.06 23.43,5.67 22.96,6.26 22.47,6.82 21.96,7.37 21.44,7.9 20.9,8.4 20.2,9.23 19.48,10.01 18.76,10.74 18.04,11.42 17.31,12.04 16.58,12.61 15.84,13.11 15.11,13.56 14.38,13.95 13.65,14.28 12.92,14.55 12.19,14.76 11.46,14.92 10.74,15.02 10.02,15.07 9.3,15.07 8.58,15.01 7.87,14.91 7.16,14.76 6.45,14.57 5.75,14.33 5.05,14.05 4.35,13.74 3.66,13.39 2.97,13.01 2.29,12.6 1.6,12.16 0.93,11.7 0.25,11.22 -0.42,10.71 -1.09,10.19 -1.75,9.65 -2.41,9.1 -3.06,8.54 -3.71,7.98 -4.35,7.4 -4.99,6.82 -5.62,6.24 -6.25,5.66 -6.87,5.08 -7.48,4.51 -8.09,3.93 -8.68,3.37 -9.27,2.81 -9.86,2.25 -10.43,1.71 -10.99,1.17 -11.55,0.65 -12.09,0.13 -12.62,-0.37 -13.14,-0.87 -13.66,-1.35 -14.16,-1.83 -14.66,-2.3 -15.15,-2.76 -15.64,-3.2 -16.11,-3.64 -16.57,-4.07 -17.03,-4.48 -17.47,-4.89 -17.9,-5.28 -18.33,-5.67 -18.74,-6.04 -19.15,-6.4 -19.54,-6.76 -19.92,-7.1 -20.29,-7.43 -20.65,-7.75 -21,-8.07 -21.34,-8.37 -21.67,-8.66 -21.99,-8.95 -22.29,-9.22 -22.59,-9.49" fill="none" stroke="black" stroke-width="2.2222222222222223" stroke-linejoin="round" filter="url(#fuzzy)" />
      <circle r="4.4239999999999995" cx="-2.4247348677485805" cy="-9.24496942316327" stroke="black" fill="none" stroke-width="1.0" filter="url(#fuzzy)" clip-path="url(#leftEyeClipPath)" /><circle r="4.676" cx="-5.999734867748581" cy="-10.45996942316327" stroke="black" fill="none" stroke-width="1.0" filter="url(#fuzzy)" clip-path="url(#leftEyeClipPath)" /><circle r="3.234" cx="-2.3047348677485804" cy="-8.20496942316327" stroke="black" fill="none" stroke-width="1.0" filter="url(#fuzzy)" clip-path="url(#leftEyeClipPath)" /><circle r="4.378" cx="-6.55973486774858" cy="-7.459969423163271" stroke="black" fill="none" stroke-width="1.0" filter="url(#fuzzy)" clip-path="url(#leftEyeClipPath)" /><circle r="3.114" cx="-6.874734867748581" cy="-8.649969423163272" stroke="black" fill="none" stroke-width="1.0" filter="url(#fuzzy)" clip-path="url(#leftEyeClipPath)" /><circle r="4.986" cx="-2.2597348677485805" cy="-9.509969423163271" stroke="black" fill="none" stroke-width="1.0" filter="url(#fuzzy)" clip-path="url(#leftEyeClipPath)" /><circle r="3.15" cx="-3.734734867748581" cy="-7.644969423163271" stroke="black" fill="none" stroke-width="1.0" filter="url(#fuzzy)" clip-path="url(#leftEyeClipPath)" /><circle r="3.732" cx="-4.999734867748581" cy="-8.974969423163271" stroke="black" fill="none" stroke-width="1.0" filter="url(#fuzzy)" clip-path="url(#leftEyeClipPath)" /><circle r="3.706" cx="-6.059734867748581" cy="-11.154969423163271" stroke="black" fill="none" stroke-width="1.0" filter="url(#fuzzy)" clip-path="url(#leftEyeClipPath)" /><circle r="3.082" cx="-3.659734867748581" cy="-11.449969423163271" stroke="black" fill="none" stroke-width="1.0" filter="url(#fuzzy)" clip-path="url(#leftEyeClipPath)" />
    </g>
    <g id="hairs">
      
    </g>
    
        <g id="pointNose">
          <g id="rightNose"><circle r="2.46" cx="10.33" cy="13.352" stroke="black" fill="none" stroke-width="1.0" filter="url(#fuzzy)" /><circle r="2.2359999999999998" cx="7.434000000000001" cy="15.616" stroke="black" fill="none" stroke-width="1.0" filter="url(#fuzzy)" /><circle r="1.838" cx="10.574000000000002" cy="12.404" stroke="black" fill="none" stroke-width="1.0" filter="url(#fuzzy)" /><circle r="2.9619999999999997" cx="9.530000000000001" cy="16.176000000000002" stroke="black" fill="none" stroke-width="1.0" filter="url(#fuzzy)" /><circle r="1.242" cx="7.4300000000000015" cy="14.104" stroke="black" fill="none" stroke-width="1.0" filter="url(#fuzzy)" /><circle r="2.072" cx="8.110000000000001" cy="13.468" stroke="black" fill="none" stroke-width="1.0" filter="url(#fuzzy)" /><circle r="1.066" cx="8.218" cy="15.024000000000001" stroke="black" fill="none" stroke-width="1.0" filter="url(#fuzzy)" /><circle r="2.964" cx="9.966000000000001" cy="15.832" stroke="black" fill="none" stroke-width="1.0" filter="url(#fuzzy)" /><circle r="1.952" cx="9.862" cy="14.364" stroke="black" fill="none" stroke-width="1.0" filter="url(#fuzzy)" /><circle r="2.786" cx="7.354000000000001" cy="12.388" stroke="black" fill="none" stroke-width="1.0" filter="url(#fuzzy)" /></g>
          <g id="leftNose"><circle r="2.1100000000000003" cx="-9.938" cy="19.706" stroke="black" fill="none" stroke-width="1.0" filter="url(#fuzzy)" /><circle r="1.562" cx="-9.27" cy="20.746" stroke="black" fill="none" stroke-width="1.0" filter="url(#fuzzy)" /><circle r="1.436" cx="-7.8420000000000005" cy="20.058" stroke="black" fill="none" stroke-width="1.0" filter="url(#fuzzy)" /><circle r="1.992" cx="-8.938" cy="21.293999999999997" stroke="black" fill="none" stroke-width="1.0" filter="url(#fuzzy)" /><circle r="2.3899999999999997" cx="-10.270000000000001" cy="20.093999999999998" stroke="black" fill="none" stroke-width="1.0" filter="url(#fuzzy)" /><circle r="1.794" cx="-6.822000000000001" cy="19.637999999999998" stroke="black" fill="none" stroke-width="1.0" filter="url(#fuzzy)" /><circle r="2.1319999999999997" cx="-7.378" cy="20.526" stroke="black" fill="none" stroke-width="1.0" filter="url(#fuzzy)" /><circle r="1.5859999999999999" cx="-10.23" cy="18.938" stroke="black" fill="none" stroke-width="1.0" filter="url(#fuzzy)" /><circle r="1.686" cx="-7.07" cy="18.733999999999998" stroke="black" fill="none" stroke-width="1.0" filter="url(#fuzzy)" /><circle r="1.8159999999999998" cx="-8.774000000000001" cy="19.474" stroke="black" fill="none" stroke-width="1.0" filter="url(#fuzzy)" /></g>
        </g>
      
    <g id="mouth">
      <polyline points="-34.2,42.59 -33.17,42.3 -32.14,42.01 -31.11,41.71 -30.09,41.41 -29.07,41.1 -28.06,40.79 -27.05,40.48 -26.05,40.16 -25.05,39.85 -24.05,39.53 -23.06,39.21 -22.08,38.89 -21.1,38.56 -20.12,38.24 -19.15,37.92 -18.19,37.59 -17.22,37.27 -16.27,36.95 -15.32,36.62 -14.38,36.3 -13.44,35.98 -12.5,35.66 -11.58,35.34 -10.65,35.03 -9.74,34.71 -8.83,34.4 -7.92,34.1 -7.02,33.79 -6.13,33.49 -5.24,33.19 -4.36,32.9 -3.49,32.61 -2.62,32.33 -1.76,32.05 -0.9,31.77 -0.05,31.51 0.79,31.24 1.63,30.99 2.45,30.74 3.28,30.49 4.09,30.26 4.9,30.03 5.7,29.81 6.5,29.59 7.28,29.39 8.06,29.19 8.83,29 9.6,28.82 10.36,28.65 11.11,28.49 11.85,28.34 12.58,28.2 13.31,28.07 14.03,27.95 14.74,27.84 15.44,27.74 16.14,27.65 16.83,27.58 17.51,27.52 18.18,27.47 18.84,27.43 19.49,27.41 20.14,27.4 20.78,27.4 21.4,27.41 22.02,27.44 22.64,27.49 23.24,27.55 23.83,27.62 24.41,27.71 24.99,27.82 25.56,27.94 26.11,28.08 26.66,28.23 27.2,28.4 27.73,28.59 28.25,28.79 28.76,29.01 29.26,29.25 29.75,29.51 30.23,29.79 30.7,30.08 31.16,30.4 31.61,30.73 32.05,31.08 32.48,31.46 32.9,31.85 33.31,32.26 33.71,32.7 34.1,33.15 34.48,33.63 34.85,34.12 35.21,34.64 35.56,35.19 35.89,35.75 36.22,36.34 36.53,36.95 36.84,37.58 37.13,38.24 37.13,38.24 36.42,37.87 35.7,37.52 34.99,37.19 34.28,36.87 33.56,36.56 32.85,36.26 32.14,35.98 31.42,35.71 30.71,35.45 30,35.21 29.28,34.97 28.57,34.75 27.86,34.54 27.14,34.34 26.43,34.16 25.72,33.98 25,33.82 24.29,33.67 23.58,33.52 22.86,33.39 22.15,33.27 21.44,33.16 20.72,33.06 20.01,32.97 19.3,32.89 18.58,32.82 17.87,32.76 17.16,32.71 16.44,32.66 15.73,32.63 15.02,32.6 14.3,32.59 13.59,32.58 12.88,32.58 12.16,32.59 11.45,32.61 10.74,32.63 10.02,32.66 9.31,32.7 8.6,32.75 7.88,32.81 7.17,32.87 6.46,32.94 5.74,33.01 5.03,33.09 4.32,33.18 3.6,33.27 2.89,33.37 2.18,33.48 1.46,33.59 0.75,33.71 0.04,33.83 -0.68,33.96 -1.39,34.09 -2.1,34.23 -2.82,34.37 -3.53,34.52 -4.24,34.67 -4.96,34.83 -5.67,34.99 -6.38,35.15 -7.1,35.32 -7.81,35.49 -8.52,35.66 -9.23,35.84 -9.95,36.02 -10.66,36.2 -11.37,36.39 -12.09,36.57 -12.8,36.76 -13.51,36.96 -14.23,37.15 -14.94,37.35 -15.65,37.55 -16.37,37.75 -17.08,37.95 -17.79,38.15 -18.51,38.35 -19.22,38.56 -19.93,38.76 -20.65,38.97 -21.36,39.18 -22.07,39.38 -22.79,39.59 -23.5,39.8 -24.21,40 -24.93,40.21 -25.64,40.41 -26.35,40.62 -27.07,40.82 -27.78,41.02 -28.49,41.22 -29.21,41.42 -29.92,41.62 -30.63,41.81 -31.35,42.01 -32.06,42.2 -32.77,42.39 -33.49,42.58" fill="rgb(102, 102, 204)" stroke="black" stroke-width="3" stroke-linejoin="round" filter="url(#fuzzy)" />
    </g>
  </svg>