<svg viewBox="-100 -100 200 200" xmlns="http://www.w3.org/2000/svg" width="500" height="500" id="face-svg">
    <defs>
      <clipPath id="leftEyeClipPath">
        <polyline points="26.93,-2.06 26.67,-2.13 26.38,-2.19 26.06,-2.25 25.71,-2.31 25.34,-2.37 24.94,-2.42 24.51,-2.47 24.06,-2.52 23.58,-2.56 23.08,-2.61 22.55,-2.65 22.01,-2.69 21.44,-2.72 20.85,-2.76 20.24,-2.79 19.62,-2.82 18.96,-2.86 18.26,-2.89 17.54,-2.92 16.79,-2.95 16.02,-2.97 15.22,-3 14.39,-3.02 13.55,-3.04 12.68,-3.06 11.8,-3.08 10.9,-3.1 9.98,-3.11 9.06,-3.12 8.12,-3.14 7.18,-3.15 6.23,-3.15 5.27,-3.16 4.32,-3.17 3.36,-3.17 2.41,-3.17 1.46,-3.18 0.52,-3.18 -0.42,-3.18 -1.34,-3.17 -2.26,-3.17 -3.17,-3.16 -4.06,-3.16 -4.93,-3.15 -5.79,-3.14 -6.64,-3.13 -7.46,-3.12 -8.27,-3.11 -9.06,-3.1 -9.82,-3.08 -10.57,-3.07 -11.29,-3.05 -11.99,-3.03 -12.67,-3.02 -13.32,-3 -13.96,-2.98 -14.57,-2.96 -15.15,-2.93 -15.72,-2.91 -16.26,-2.89 -16.78,-2.86 -17.28,-2.84 -17.76,-2.81 -18.22,-2.79 -18.67,-2.76 -19.09,-2.73 -19.49,-2.7 -19.88,-2.67 -20.25,-2.64 -20.61,-2.61 -20.94,-2.58 -21.26,-2.54 -21.56,-2.51 -21.85,-2.48 -22.12,-2.44 -22.38,-2.4 -22.62,-2.37 -22.84,-2.33 -23.05,-2.29 -20.64,-0.73 -20.34,-0.63 -20.03,-0.52 -19.71,-0.41 -19.38,-0.3 -19.03,-0.19 -18.66,-0.07 -18.29,0.04 -17.9,0.15 -17.49,0.27 -17.07,0.39 -16.64,0.5 -16.19,0.62 -15.73,0.74 -15.26,0.85 -14.77,0.97 -14.27,1.09 -13.75,1.2 -13.21,1.32 -12.66,1.44 -12.09,1.56 -11.51,1.67 -10.91,1.79 -10.29,1.9 -9.66,2.01 -9.01,2.12 -8.35,2.23 -7.68,2.33 -6.99,2.43 -6.28,2.52 -5.57,2.61 -4.84,2.7 -4.1,2.78 -3.35,2.86 -2.59,2.93 -1.82,2.99 -1.04,3.05 -0.25,3.1 0.54,3.14 1.34,3.17 2.15,3.2 2.96,3.22 3.77,3.23 4.59,3.23 5.41,3.23 6.22,3.21 7.04,3.19 7.85,3.16 8.66,3.12 9.47,3.07 10.27,3.01 11.07,2.94 11.86,2.86 12.64,2.78 13.4,2.68 14.16,2.58 14.91,2.47 15.64,2.35 16.36,2.22 17.07,2.09 17.76,1.94 18.43,1.79 19.08,1.64 19.72,1.48 20.34,1.32 20.89,1.2 21.43,1.08 21.96,0.95 22.47,0.83 22.97,0.7 23.44,0.57 23.9,0.44 24.35,0.31 24.77,0.18 25.17,0.05 25.55,-0.09 25.91,-0.22 26.25,-0.34 26.56,-0.47 26.85,-0.6" />
      </clipPath>
      <clipPath id="rightEyeClipPath">
        <polyline points="-25.8,-1.61 -25.45,-1.69 -25.07,-1.78 -24.66,-1.85 -24.23,-1.93 -23.77,-2 -23.29,-2.06 -22.79,-2.12 -22.27,-2.18 -21.72,-2.24 -21.16,-2.29 -20.58,-2.34 -19.98,-2.39 -19.36,-2.43 -18.73,-2.47 -18.08,-2.51 -17.38,-2.55 -16.66,-2.59 -15.91,-2.62 -15.14,-2.66 -14.35,-2.69 -13.53,-2.72 -12.7,-2.74 -11.86,-2.77 -10.99,-2.79 -10.12,-2.81 -9.23,-2.83 -8.33,-2.85 -7.43,-2.86 -6.51,-2.88 -5.59,-2.89 -4.67,-2.9 -3.75,-2.91 -2.82,-2.92 -1.9,-2.93 -0.98,-2.93 -0.07,-2.93 0.84,-2.94 1.74,-2.94 2.63,-2.94 3.51,-2.94 4.38,-2.94 5.24,-2.93 6.08,-2.93 6.91,-2.93 7.72,-2.92 8.52,-2.91 9.29,-2.91 10.05,-2.9 10.79,-2.89 11.52,-2.88 12.22,-2.87 12.9,-2.86 13.56,-2.85 14.2,-2.83 14.82,-2.82 15.42,-2.8 16,-2.79 16.55,-2.78 17.09,-2.76 17.61,-2.74 18.11,-2.73 18.59,-2.71 19.05,-2.69 19.49,-2.67 19.92,-2.66 20.33,-2.64 20.72,-2.62 21.1,-2.6 21.46,-2.58 21.81,-2.56 22.14,-2.54 22.46,-2.51 22.76,-2.49 23.05,-2.47 23.32,-2.45 23.58,-2.42 23.83,-2.4 24.06,-2.38 24.28,-2.35 20.71,-1.05 20.43,-0.96 20.13,-0.87 19.81,-0.77 19.47,-0.68 19.12,-0.58 18.76,-0.48 18.37,-0.38 17.97,-0.28 17.54,-0.18 17.11,-0.07 16.65,0.04 16.17,0.14 15.68,0.25 15.17,0.36 14.64,0.47 14.1,0.58 13.53,0.69 12.94,0.81 12.33,0.92 11.7,1.04 11.06,1.16 10.39,1.27 9.7,1.39 8.99,1.5 8.26,1.62 7.51,1.73 6.75,1.85 5.97,1.96 5.17,2.06 4.35,2.17 3.52,2.27 2.68,2.37 1.82,2.47 0.95,2.56 0.08,2.65 -0.81,2.73 -1.71,2.81 -2.61,2.88 -3.51,2.94 -4.42,3 -5.33,3.05 -6.24,3.09 -7.14,3.12 -8.04,3.15 -8.94,3.17 -9.83,3.18 -10.71,3.18 -11.58,3.17 -12.43,3.15 -13.27,3.12 -14.09,3.08 -14.9,3.02 -15.68,2.96 -16.45,2.89 -17.19,2.81 -17.9,2.72 -18.59,2.62 -19.25,2.5 -19.88,2.38 -20.48,2.25 -21.05,2.1 -21.59,1.95 -22.1,1.79 -22.57,1.63 -23.05,1.52 -23.5,1.4 -23.94,1.29 -24.35,1.17 -24.74,1.04 -25.11,0.92 -25.45,0.79 -25.76,0.66 -26.05,0.52 -26.32,0.39 -26.56,0.26 -26.77,0.12 -26.95,-0.01 -27.11,-0.14 -27.24,-0.27" />
      </clipPath>
      <filter id="fuzzy">
        <feTurbulence id="turbulence" baseFrequency="0.05" numOctaves="3" type="noise" result="noise" />
        <feDisplacementMap in="SourceGraphic" in2="noise" scale="2" />
      </filter>
      <linearGradient id="rainbowGradient" x1="0%" y1="0%" x2="100%" y2="0%">
        <stop offset="0%" style="stop-color: rgb(165, 66, 141); stop-opacity: 1" />
        <stop offset="50%" style="stop-color: rgb(9, 236, 132); stop-opacity: 1" />
        <stop offset="100%" style="stop-color: rgb(180, 43, 183); stop-opacity: 1" />
      </linearGradient>
    </defs>
    <rect x="-100" y="-100" width="100%" height="100%" fill="rgb(166, 242, 193)" />
    <polyline id="faceContour" points="63.45,1.44 63.16,0.03 63.22,1.04 63.26,4.36 63.17,7.1 63.09,5.76 62.79,10.4 62.92,10.13 62.76,11.15 62.77,12.97 62.58,13.43 62.2,17.82 62.07,18.66 62.01,18.11 61.74,21.21 61.69,20.34 61.23,22.12 60.92,24.3 60.41,26.65 60.84,25 60.28,26.8 60.3,28.19 59.45,30.48 58.64,33.75 58.53,34.39 58.59,34.61 58.52,34.89 57.7,37.29 57.43,37.27 57.11,39.22 56.56,41.1 56.07,42.22 55.81,42.15 54.49,45.28 54.86,44.84 53.54,47.72 53.07,49.09 52.56,49.61 52.58,50.36 51.92,52.09 51.35,52.67 50.76,54.3 49.53,56.32 49.3,56.21 48.46,57.97 48.23,58.48 46.84,60.77 46.84,60.45 45.34,63.41 45.23,63.83 44.78,63.94 43.71,65.53 43.83,65.14 43.38,66.02 41.97,67.76 41.09,68.63 41.36,68.51 39.73,70.36 38.72,71.77 37.04,73.17 38.65,71.67 36.16,73.58 35.38,75.15 34.8,75.35 34.27,75.95 34.08,76.09 31.6,78.24 31.01,78.87 29.69,79.78 29.8,79.69 29.46,79.62 28.32,80.79 26.9,81.96 26.4,82.3 23.9,83.54 23.13,84.13 24.27,83.69 21.76,84.8 20.29,85.8 19.01,86.36 18.83,86.29 19.51,85.92 18.53,86.5 16.83,87 16.64,86.99 13.61,88.09 13.62,88.43 12.73,88.38 11.13,88.65 11.22,88.89 10.34,89.12 8.12,89.63 6.86,89.68 7.11,89.99 6.53,90.07 4.64,90.16 2.9,90.06 3.6,90.34 1.01,90.23 1.26,90.22 0.75,90.44 -1.34,90.13 -1.67,90.14 -1.65,90.36 -4.14,90.22 -3.83,89.96 -5.83,90.07 -6.59,89.63 -8.59,89.46 -7.44,89.82 -11.56,88.65 -10.61,88.9 -11.09,89 -12.5,88.26 -14.09,88.29 -14.18,88.01 -16.41,87.16 -16.2,87.42 -17.82,86.54 -18.47,86.32 -19.01,86.22 -21,85.25 -21.37,85.06 -22.6,84.43 -24.32,83.58 -24.04,83.76 -24.29,83.43 -26.58,81.89 -26.65,81.77 -26.83,82.1 -28.31,80.66 -30.63,78.84 -31.51,78.24 -30.84,78.51 -32.12,78.13 -33.22,77.01 -33.4,76.89 -35.08,75.11 -35.19,74.71 -37.26,73.31 -37.83,72.36 -37.72,72.47 -38.57,71.48 -38.83,71.19 -39.93,70.09 -40.36,69.29 -41.06,68.67 -42.6,66.82 -43.45,65.98 -43.94,64.92 -45.56,62.74 -45.79,62.72 -45.9,62.41 -47.52,59.61 -48.04,59.25 -47.87,59.09 -48.69,57.82 -48.86,57.47 -50.33,54.63 -50.48,54.5 -51.32,53.13 -51.94,51.57 -52.33,50.76 -52.34,50.68 -53.4,48.27 -54.33,46.05 -55.22,44.41 -55.03,44.5 -55.08,44.79 -55.8,42.4 -56.22,41.89 -56.61,40.22 -56.89,39.56 -57.4,37.93 -58.57,34.04 -58.66,34.39 -59.02,32.62 -59.35,31.59 -59.46,30.97 -60.1,28.9 -60.02,29.39 -60.59,26.21 -61.05,23.78 -61.52,21.63 -61.18,22.84 -61.47,22.47 -61.76,19.66 -61.99,19.01 -62.12,16.81 -62.41,15.29 -62.41,14.4 -62.86,11.24 -63.1,9.42 -62.65,11.14 -62.98,7.86 -63.08,6.6 -63.17,4.83 -63.21,3.92 -63.38,4.02 -63.3,0.54 -63.32,-0.65 -63.24,-2.12 -63.39,-0.91 -63.29,-3.93 -63.13,-4.41 -63.33,-5.79 -62.98,-8.31 -62.99,-10.52 -62.63,-12.14 -62.93,-10.95 -62.48,-13.74 -62.27,-16.93 -62.15,-16.36 -61.72,-19.09 -61.69,-21.13 -61.37,-21.46 -61.18,-23.08 -60.8,-24.52 -60.56,-25.4 -60.68,-25.84 -60.04,-28.21 -60.19,-28.38 -59.04,-31.58 -59.08,-32.17 -58.87,-33.65 -58.36,-35.55 -58.18,-35.45 -58.04,-36.16 -57.14,-38.56 -57.12,-38.77 -56.59,-40.57 -56.48,-40.32 -55.24,-44.04 -55.62,-43.7 -54.95,-44.86 -54.07,-47.01 -53.01,-49.28 -52.25,-50.98 -52.01,-50.91 -52.4,-50.98 -50.69,-53.52 -50.17,-54.91 -50.3,-54.55 -49.47,-56.24 -48.71,-58.18 -47.85,-59.24 -47.34,-59.58 -46.75,-61.39 -46.73,-61.1 -45.74,-62.69 -44.66,-64.13 -43.61,-65.32 -43.32,-65.57 -42.2,-67.43 -41.83,-68.28 -41.15,-68.8 -41.35,-68.41 -39.22,-70.68 -37.97,-72.08 -37.92,-72.37 -37.01,-73.55 -37,-73.31 -35.12,-75.08 -35.72,-74.53 -34.06,-76.23 -33.74,-76.77 -30.92,-78.9 -31.65,-78.25 -30.98,-78.9 -28.35,-81.05 -28.61,-80.57 -26.6,-82.13 -26.51,-81.84 -25.76,-82.25 -23.63,-83.96 -22.99,-84.03 -22.9,-84.29 -22.91,-84.17 -21.54,-84.63 -19.57,-86.03 -19.9,-85.92 -19.4,-85.76 -19.02,-86.38 -16.83,-87.24 -16.33,-87.22 -16.46,-87.41 -14.37,-88.16 -12.14,-88.39 -10.39,-89.1 -11.65,-88.94 -9.07,-89.53 -9.74,-89.52 -6.18,-90.14 -7.87,-89.81 -7.08,-89.89 -3.59,-90.31 -4.63,-90.19 -3.72,-90.33 -2.78,-90.21 -1.17,-90.35 0.61,-90.43 0.71,-90.36 3.06,-90.33 1.67,-90.34 4.07,-90.33 4.86,-90.17 7.17,-89.9 5.66,-90.2 8.38,-89.43 9.44,-89.18 10.9,-88.98 10.57,-89.21 12.19,-88.73 12.37,-88.36 13.15,-88.59 15.15,-87.71 14.97,-87.99 17.3,-86.91 18.28,-86.71 18.23,-86.35 20.45,-85.74 20.7,-85.16 21.6,-84.67 21.38,-85.12 22.47,-84.59 23.77,-83.56 24.68,-83.18 25.81,-82.43 27.64,-81.55 26.86,-81.82 28.77,-80.3 29.07,-80.24 30.13,-79.64 31.01,-78.87 31.27,-78.57 33.13,-76.72 33.81,-76.48 34.03,-76.27 36.36,-73.86 36.25,-74.18 36.87,-73.37 37.4,-72.99 39.77,-70.44 39.03,-70.92 40.77,-69.27 42.57,-67.16 41.71,-68.09 42.7,-67.06 44.19,-64.96 43.5,-65.71 44.47,-64.13 46.46,-61.4 46.39,-61.45 47.32,-59.96 46.78,-60.97 47.85,-59.08 49.24,-56.58 48.64,-58.07 50.62,-54.33 50.39,-54.66 51.37,-52.52 51.87,-51.68 52.65,-50.14 52.67,-50.17 52.99,-49.54 53.67,-47.52 53.74,-47.6 54.83,-44.92 56.24,-41.98 55.86,-42.35 56.15,-41.93 56.69,-39.98 57.58,-37.47 56.98,-39.1 58.41,-34.29 58.62,-34.81 59.26,-32.38 59.41,-31.42 59.68,-30.6 60.5,-27.01 60.22,-27.99 60.6,-26.43 60.91,-25.12 61.48,-22.45 61.37,-22.18 61.84,-19.79 61.77,-19.63 61.76,-19.66 62.07,-17.29 62.17,-16.51 62.55,-13.14 62.91,-10.95 62.62,-13.96 62.83,-9.89 63.15,-9.04 63.14,-6.28 63.15,-5.63 63.25,-3.93 63.22,-0.77 63.38,-1.72 63.45,1.44 63.16,0.03" fill="rgb(223, 32, 155)" stroke="black" stroke-width="1.6666666666666665" stroke-linejoin="round" filter="url(#fuzzy)" />
    <g transform="translate(37.07 -25.18)">
      <polyline id="rightCountour" points="-25.8,-1.61 -25.45,-1.69 -25.07,-1.78 -24.66,-1.85 -24.23,-1.93 -23.77,-2 -23.29,-2.06 -22.79,-2.12 -22.27,-2.18 -21.72,-2.24 -21.16,-2.29 -20.58,-2.34 -19.98,-2.39 -19.36,-2.43 -18.73,-2.47 -18.08,-2.51 -17.38,-2.55 -16.66,-2.59 -15.91,-2.62 -15.14,-2.66 -14.35,-2.69 -13.53,-2.72 -12.7,-2.74 -11.86,-2.77 -10.99,-2.79 -10.12,-2.81 -9.23,-2.83 -8.33,-2.85 -7.43,-2.86 -6.51,-2.88 -5.59,-2.89 -4.67,-2.9 -3.75,-2.91 -2.82,-2.92 -1.9,-2.93 -0.98,-2.93 -0.07,-2.93 0.84,-2.94 1.74,-2.94 2.63,-2.94 3.51,-2.94 4.38,-2.94 5.24,-2.93 6.08,-2.93 6.91,-2.93 7.72,-2.92 8.52,-2.91 9.29,-2.91 10.05,-2.9 10.79,-2.89 11.52,-2.88 12.22,-2.87 12.9,-2.86 13.56,-2.85 14.2,-2.83 14.82,-2.82 15.42,-2.8 16,-2.79 16.55,-2.78 17.09,-2.76 17.61,-2.74 18.11,-2.73 18.59,-2.71 19.05,-2.69 19.49,-2.67 19.92,-2.66 20.33,-2.64 20.72,-2.62 21.1,-2.6 21.46,-2.58 21.81,-2.56 22.14,-2.54 22.46,-2.51 22.76,-2.49 23.05,-2.47 23.32,-2.45 23.58,-2.42 23.83,-2.4 24.06,-2.38 24.28,-2.35 20.71,-1.05 20.43,-0.96 20.13,-0.87 19.81,-0.77 19.47,-0.68 19.12,-0.58 18.76,-0.48 18.37,-0.38 17.97,-0.28 17.54,-0.18 17.11,-0.07 16.65,0.04 16.17,0.14 15.68,0.25 15.17,0.36 14.64,0.47 14.1,0.58 13.53,0.69 12.94,0.81 12.33,0.92 11.7,1.04 11.06,1.16 10.39,1.27 9.7,1.39 8.99,1.5 8.26,1.62 7.51,1.73 6.75,1.85 5.97,1.96 5.17,2.06 4.35,2.17 3.52,2.27 2.68,2.37 1.82,2.47 0.95,2.56 0.08,2.65 -0.81,2.73 -1.71,2.81 -2.61,2.88 -3.51,2.94 -4.42,3 -5.33,3.05 -6.24,3.09 -7.14,3.12 -8.04,3.15 -8.94,3.17 -9.83,3.18 -10.71,3.18 -11.58,3.17 -12.43,3.15 -13.27,3.12 -14.09,3.08 -14.9,3.02 -15.68,2.96 -16.45,2.89 -17.19,2.81 -17.9,2.72 -18.59,2.62 -19.25,2.5 -19.88,2.38 -20.48,2.25 -21.05,2.1 -21.59,1.95 -22.1,1.79 -22.57,1.63 -23.05,1.52 -23.5,1.4 -23.94,1.29 -24.35,1.17 -24.74,1.04 -25.11,0.92 -25.45,0.79 -25.76,0.66 -26.05,0.52 -26.32,0.39 -26.56,0.26 -26.77,0.12 -26.95,-0.01 -27.11,-0.14 -27.24,-0.27" fill="white" stroke="white" stroke-width="0" stroke-linejoin="round" filter="url(#fuzzy)" />
    </g>
    <g transform="translate(-34.13 -21.650000000000002)">
      <polyline id="leftCountour" points="26.93,-2.06 26.67,-2.13 26.38,-2.19 26.06,-2.25 25.71,-2.31 25.34,-2.37 24.94,-2.42 24.51,-2.47 24.06,-2.52 23.58,-2.56 23.08,-2.61 22.55,-2.65 22.01,-2.69 21.44,-2.72 20.85,-2.76 20.24,-2.79 19.62,-2.82 18.96,-2.86 18.26,-2.89 17.54,-2.92 16.79,-2.95 16.02,-2.97 15.22,-3 14.39,-3.02 13.55,-3.04 12.68,-3.06 11.8,-3.08 10.9,-3.1 9.98,-3.11 9.06,-3.12 8.12,-3.14 7.18,-3.15 6.23,-3.15 5.27,-3.16 4.32,-3.17 3.36,-3.17 2.41,-3.17 1.46,-3.18 0.52,-3.18 -0.42,-3.18 -1.34,-3.17 -2.26,-3.17 -3.17,-3.16 -4.06,-3.16 -4.93,-3.15 -5.79,-3.14 -6.64,-3.13 -7.46,-3.12 -8.27,-3.11 -9.06,-3.1 -9.82,-3.08 -10.57,-3.07 -11.29,-3.05 -11.99,-3.03 -12.67,-3.02 -13.32,-3 -13.96,-2.98 -14.57,-2.96 -15.15,-2.93 -15.72,-2.91 -16.26,-2.89 -16.78,-2.86 -17.28,-2.84 -17.76,-2.81 -18.22,-2.79 -18.67,-2.76 -19.09,-2.73 -19.49,-2.7 -19.88,-2.67 -20.25,-2.64 -20.61,-2.61 -20.94,-2.58 -21.26,-2.54 -21.56,-2.51 -21.85,-2.48 -22.12,-2.44 -22.38,-2.4 -22.62,-2.37 -22.84,-2.33 -23.05,-2.29 -20.64,-0.73 -20.34,-0.63 -20.03,-0.52 -19.71,-0.41 -19.38,-0.3 -19.03,-0.19 -18.66,-0.07 -18.29,0.04 -17.9,0.15 -17.49,0.27 -17.07,0.39 -16.64,0.5 -16.19,0.62 -15.73,0.74 -15.26,0.85 -14.77,0.97 -14.27,1.09 -13.75,1.2 -13.21,1.32 -12.66,1.44 -12.09,1.56 -11.51,1.67 -10.91,1.79 -10.29,1.9 -9.66,2.01 -9.01,2.12 -8.35,2.23 -7.68,2.33 -6.99,2.43 -6.28,2.52 -5.57,2.61 -4.84,2.7 -4.1,2.78 -3.35,2.86 -2.59,2.93 -1.82,2.99 -1.04,3.05 -0.25,3.1 0.54,3.14 1.34,3.17 2.15,3.2 2.96,3.22 3.77,3.23 4.59,3.23 5.41,3.23 6.22,3.21 7.04,3.19 7.85,3.16 8.66,3.12 9.47,3.07 10.27,3.01 11.07,2.94 11.86,2.86 12.64,2.78 13.4,2.68 14.16,2.58 14.91,2.47 15.64,2.35 16.36,2.22 17.07,2.09 17.76,1.94 18.43,1.79 19.08,1.64 19.72,1.48 20.34,1.32 20.89,1.2 21.43,1.08 21.96,0.95 22.47,0.83 22.97,0.7 23.44,0.57 23.9,0.44 24.35,0.31 24.77,0.18 25.17,0.05 25.55,-0.09 25.91,-0.22 26.25,-0.34 26.56,-0.47 26.85,-0.6" fill="white" stroke="white" stroke-width="0" stroke-linejoin="round" filter="url(#fuzzy)" />
    </g>
    <g transform="translate(37.07 -25.18)">
      <polyline id="rightUpper" points="-27.76,-0.46 -27.71,-0.6 -27.62,-0.74 -27.5,-0.87 -27.35,-0.99 -27.17,-1.1 -26.95,-1.22 -26.71,-1.32 -26.44,-1.42 -26.13,-1.52 -25.8,-1.61 -25.45,-1.69 -25.07,-1.78 -24.66,-1.85 -24.23,-1.93 -23.77,-2 -23.29,-2.06 -22.79,-2.12 -22.27,-2.18 -21.72,-2.24 -21.16,-2.29 -20.58,-2.34 -19.98,-2.39 -19.36,-2.43 -18.73,-2.47 -18.08,-2.51 -17.38,-2.55 -16.66,-2.59 -15.91,-2.62 -15.14,-2.66 -14.35,-2.69 -13.53,-2.72 -12.7,-2.74 -11.86,-2.77 -10.99,-2.79 -10.12,-2.81 -9.23,-2.83 -8.33,-2.85 -7.43,-2.86 -6.51,-2.88 -5.59,-2.89 -4.67,-2.9 -3.75,-2.91 -2.82,-2.92 -1.9,-2.93 -0.98,-2.93 -0.07,-2.93 0.84,-2.94 1.74,-2.94 2.63,-2.94 3.51,-2.94 4.38,-2.94 5.24,-2.93 6.08,-2.93 6.91,-2.93 7.72,-2.92 8.52,-2.91 9.29,-2.91 10.05,-2.9 10.79,-2.89 11.52,-2.88 12.22,-2.87 12.9,-2.86 13.56,-2.85 14.2,-2.83 14.82,-2.82 15.42,-2.8 16,-2.79 16.55,-2.78 17.09,-2.76 17.61,-2.74 18.11,-2.73 18.59,-2.71 19.05,-2.69 19.49,-2.67 19.92,-2.66 20.33,-2.64 20.72,-2.62 21.1,-2.6 21.46,-2.58 21.81,-2.56 22.14,-2.54 22.46,-2.51 22.76,-2.49 23.05,-2.47 23.32,-2.45 23.58,-2.42 23.83,-2.4 24.06,-2.38 24.28,-2.35 24.49,-2.33 24.69,-2.3 24.87,-2.28 25.04,-2.25 25.21,-2.22 25.36,-2.2 25.5,-2.17 25.63,-2.14 25.75,-2.12 25.86,-2.09" fill="none" stroke="black" stroke-width="1.6666666666666665" stroke-linejoin="round" filter="url(#fuzzy)" />
      <polyline id="rightLower" points="-26.95,-1.32 -27.11,-1.25 -27.25,-1.17 -27.35,-1.08 -27.42,-0.98 -27.46,-0.88 -27.48,-0.76 -27.46,-0.65 -27.42,-0.53 -27.34,-0.4 -27.24,-0.27 -27.11,-0.14 -26.95,-0.01 -26.77,0.12 -26.56,0.26 -26.32,0.39 -26.05,0.52 -25.76,0.66 -25.45,0.79 -25.11,0.92 -24.74,1.04 -24.35,1.17 -23.94,1.29 -23.5,1.4 -23.05,1.52 -22.57,1.63 -22.1,1.79 -21.59,1.95 -21.05,2.1 -20.48,2.25 -19.88,2.38 -19.25,2.5 -18.59,2.62 -17.9,2.72 -17.19,2.81 -16.45,2.89 -15.68,2.96 -14.9,3.02 -14.09,3.08 -13.27,3.12 -12.43,3.15 -11.58,3.17 -10.71,3.18 -9.83,3.18 -8.94,3.17 -8.04,3.15 -7.14,3.12 -6.24,3.09 -5.33,3.05 -4.42,3 -3.51,2.94 -2.61,2.88 -1.71,2.81 -0.81,2.73 0.08,2.65 0.95,2.56 1.82,2.47 2.68,2.37 3.52,2.27 4.35,2.17 5.17,2.06 5.97,1.96 6.75,1.85 7.51,1.73 8.26,1.62 8.99,1.5 9.7,1.39 10.39,1.27 11.06,1.16 11.7,1.04 12.33,0.92 12.94,0.81 13.53,0.69 14.1,0.58 14.64,0.47 15.17,0.36 15.68,0.25 16.17,0.14 16.65,0.04 17.11,-0.07 17.54,-0.18 17.97,-0.28 18.37,-0.38 18.76,-0.48 19.12,-0.58 19.47,-0.68 19.81,-0.77 20.13,-0.87 20.43,-0.96 20.71,-1.05 20.98,-1.14 21.23,-1.22 21.47,-1.31 21.69,-1.39 21.89,-1.47 22.09,-1.55 22.26,-1.63 22.42,-1.7 22.57,-1.78 22.71,-1.85" fill="none" stroke="black" stroke-width="2.2222222222222223" stroke-linejoin="round" filter="url(#fuzzy)" />
      <circle r="4.008" cx="1.3416756907229312" cy="-0.6517206326530487" stroke="black" fill="none" stroke-width="1.0" filter="url(#fuzzy)" clip-path="url(#rightEyeClipPath)" /><circle r="4.322" cx="2.2366756907229313" cy="-0.33672063265304875" stroke="black" fill="none" stroke-width="1.0" filter="url(#fuzzy)" clip-path="url(#rightEyeClipPath)" /><circle r="4.65" cx="-0.23832430927706882" cy="-1.5617206326530488" stroke="black" fill="none" stroke-width="1.0" filter="url(#fuzzy)" clip-path="url(#rightEyeClipPath)" /><circle r="3.308" cx="0.35167569072293103" cy="-1.516720632653049" stroke="black" fill="none" stroke-width="1.0" filter="url(#fuzzy)" clip-path="url(#rightEyeClipPath)" /><circle r="3.58" cx="0.9466756907229312" cy="0.4982793673469512" stroke="black" fill="none" stroke-width="1.0" filter="url(#fuzzy)" clip-path="url(#rightEyeClipPath)" /><circle r="4.398" cx="-1.5783243092770687" cy="2.343279367346951" stroke="black" fill="none" stroke-width="1.0" filter="url(#fuzzy)" clip-path="url(#rightEyeClipPath)" /><circle r="4.678" cx="-1.2733243092770687" cy="1.1682793673469511" stroke="black" fill="none" stroke-width="1.0" filter="url(#fuzzy)" clip-path="url(#rightEyeClipPath)" /><circle r="4.414" cx="1.2916756907229314" cy="1.008279367346951" stroke="black" fill="none" stroke-width="1.0" filter="url(#fuzzy)" clip-path="url(#rightEyeClipPath)" /><circle r="3.422" cx="1.3716756907229315" cy="1.258279367346951" stroke="black" fill="none" stroke-width="1.0" filter="url(#fuzzy)" clip-path="url(#rightEyeClipPath)" /><circle r="3.936" cx="-0.42832430927706877" cy="-0.20172063265304896" stroke="black" fill="none" stroke-width="1.0" filter="url(#fuzzy)" clip-path="url(#rightEyeClipPath)" />
      </g>
    <g transform="translate(-34.13 -21.650000000000002)">
      <polyline id="leftUpper" points="27.82,-1.2 27.88,-1.31 27.91,-1.41 27.9,-1.5 27.85,-1.59 27.78,-1.68 27.67,-1.76 27.53,-1.84 27.36,-1.92 27.16,-1.99 26.93,-2.06 26.67,-2.13 26.38,-2.19 26.06,-2.25 25.71,-2.31 25.34,-2.37 24.94,-2.42 24.51,-2.47 24.06,-2.52 23.58,-2.56 23.08,-2.61 22.55,-2.65 22.01,-2.69 21.44,-2.72 20.85,-2.76 20.24,-2.79 19.62,-2.82 18.96,-2.86 18.26,-2.89 17.54,-2.92 16.79,-2.95 16.02,-2.97 15.22,-3 14.39,-3.02 13.55,-3.04 12.68,-3.06 11.8,-3.08 10.9,-3.1 9.98,-3.11 9.06,-3.12 8.12,-3.14 7.18,-3.15 6.23,-3.15 5.27,-3.16 4.32,-3.17 3.36,-3.17 2.41,-3.17 1.46,-3.18 0.52,-3.18 -0.42,-3.18 -1.34,-3.17 -2.26,-3.17 -3.17,-3.16 -4.06,-3.16 -4.93,-3.15 -5.79,-3.14 -6.64,-3.13 -7.46,-3.12 -8.27,-3.11 -9.06,-3.1 -9.82,-3.08 -10.57,-3.07 -11.29,-3.05 -11.99,-3.03 -12.67,-3.02 -13.32,-3 -13.96,-2.98 -14.57,-2.96 -15.15,-2.93 -15.72,-2.91 -16.26,-2.89 -16.78,-2.86 -17.28,-2.84 -17.76,-2.81 -18.22,-2.79 -18.67,-2.76 -19.09,-2.73 -19.49,-2.7 -19.88,-2.67 -20.25,-2.64 -20.61,-2.61 -20.94,-2.58 -21.26,-2.54 -21.56,-2.51 -21.85,-2.48 -22.12,-2.44 -22.38,-2.4 -22.62,-2.37 -22.84,-2.33 -23.05,-2.29 -23.25,-2.25 -23.44,-2.21 -23.61,-2.17 -23.76,-2.13 -23.91,-2.09 -24.04,-2.05 -24.16,-2 -24.28,-1.96 -24.37,-1.92 -24.46,-1.87" fill="none" stroke="black" stroke-width="2.2222222222222223" stroke-linejoin="round" filter="url(#fuzzy)" />
      <polyline id="leftLower" points="28.18,-1.58 28.19,-1.51 28.16,-1.43 28.1,-1.35 28.01,-1.26 27.89,-1.16 27.74,-1.06 27.56,-0.95 27.35,-0.84 27.11,-0.72 26.85,-0.6 26.56,-0.47 26.25,-0.34 25.91,-0.22 25.55,-0.09 25.17,0.05 24.77,0.18 24.35,0.31 23.9,0.44 23.44,0.57 22.97,0.7 22.47,0.83 21.96,0.95 21.43,1.08 20.89,1.2 20.34,1.32 19.72,1.48 19.08,1.64 18.43,1.79 17.76,1.94 17.07,2.09 16.36,2.22 15.64,2.35 14.91,2.47 14.16,2.58 13.4,2.68 12.64,2.78 11.86,2.86 11.07,2.94 10.27,3.01 9.47,3.07 8.66,3.12 7.85,3.16 7.04,3.19 6.22,3.21 5.41,3.23 4.59,3.23 3.77,3.23 2.96,3.22 2.15,3.2 1.34,3.17 0.54,3.14 -0.25,3.1 -1.04,3.05 -1.82,2.99 -2.59,2.93 -3.35,2.86 -4.1,2.78 -4.84,2.7 -5.57,2.61 -6.28,2.52 -6.99,2.43 -7.68,2.33 -8.35,2.23 -9.01,2.12 -9.66,2.01 -10.29,1.9 -10.91,1.79 -11.51,1.67 -12.09,1.56 -12.66,1.44 -13.21,1.32 -13.75,1.2 -14.27,1.09 -14.77,0.97 -15.26,0.85 -15.73,0.74 -16.19,0.62 -16.64,0.5 -17.07,0.39 -17.49,0.27 -17.9,0.15 -18.29,0.04 -18.66,-0.07 -19.03,-0.19 -19.38,-0.3 -19.71,-0.41 -20.03,-0.52 -20.34,-0.63 -20.64,-0.73 -20.92,-0.84 -21.19,-0.94 -21.44,-1.04 -21.69,-1.14 -21.92,-1.24 -22.13,-1.33 -22.34,-1.43 -22.53,-1.52 -22.72,-1.61 -22.89,-1.7" fill="none" stroke="black" stroke-width="2.2222222222222223" stroke-linejoin="round" filter="url(#fuzzy)" />
      <circle r="4.672" cx="19.72002094984183" cy="0.8822132122533244" stroke="black" fill="none" stroke-width="1.0" filter="url(#fuzzy)" clip-path="url(#leftEyeClipPath)" /><circle r="3.578" cx="22.290020949841832" cy="-1.542786787746676" stroke="black" fill="none" stroke-width="1.0" filter="url(#fuzzy)" clip-path="url(#leftEyeClipPath)" /><circle r="4.484" cx="20.255020949841835" cy="-1.522786787746676" stroke="black" fill="none" stroke-width="1.0" filter="url(#fuzzy)" clip-path="url(#leftEyeClipPath)" /><circle r="4.34" cx="19.030020949841834" cy="1.567213212253324" stroke="black" fill="none" stroke-width="1.0" filter="url(#fuzzy)" clip-path="url(#leftEyeClipPath)" /><circle r="3.814" cx="18.205020949841835" cy="-0.5027867877466761" stroke="black" fill="none" stroke-width="1.0" filter="url(#fuzzy)" clip-path="url(#leftEyeClipPath)" /><circle r="4.324" cx="18.855020949841833" cy="-1.997786787746676" stroke="black" fill="none" stroke-width="1.0" filter="url(#fuzzy)" clip-path="url(#leftEyeClipPath)" /><circle r="4.172" cx="20.920020949841835" cy="-0.9477867877466761" stroke="black" fill="none" stroke-width="1.0" filter="url(#fuzzy)" clip-path="url(#leftEyeClipPath)" /><circle r="4.78" cx="19.34502094984183" cy="1.362213212253324" stroke="black" fill="none" stroke-width="1.0" filter="url(#fuzzy)" clip-path="url(#leftEyeClipPath)" /><circle r="3.9859999999999998" cx="21.120020949841834" cy="-0.7227867877466758" stroke="black" fill="none" stroke-width="1.0" filter="url(#fuzzy)" clip-path="url(#leftEyeClipPath)" /><circle r="3.194" cx="19.505020949841832" cy="1.8872132122533243" stroke="black" fill="none" stroke-width="1.0" filter="url(#fuzzy)" clip-path="url(#leftEyeClipPath)" />
    </g>
    <g id="hairs">
      <polyline points="3.06,-90.33 5.31,-86.77 -1.11,-82.96 -3.28,-79.73 -3.69,-78.07 -5.14,-77.23 -6.48,-76.25 -4.89,-74.75 0.86,-72.92 8.97,-71.16 15.66,-69.76 17.6,-68.51 13.67,-66.59 5.7,-63.27 -1.1,-58.79 2.44,-54.86 23.13,-55.75 34.03,-76.27" fill="none" stroke="rgb(93, 134, 19)" stroke-width="2" stroke-linejoin="round" filter="url(#fuzzy)" /><polyline points="33.81,-76.48 37.45,-66.59 26.98,-69.81 16.04,-69.74 8.7,-66.98 5.26,-64.81 4.9,-64.5 6.12,-65.8 7.2,-68.23 7.25,-71.56 6.83,-75.51 7.13,-79.44 8.53,-82.52 9.93,-84.14 9.46,-84.38 5.73,-84.15 -0.48,-84.8 -2.88,-86.84 13.15,-88.59" fill="none" stroke="rgb(93, 134, 19)" stroke-width="2" stroke-linejoin="round" filter="url(#fuzzy)" /><polyline points="40.77,-69.27 45.68,-59.62 42.25,-58.98 33.09,-64.68 25.21,-70.05 21.65,-73.06 21.22,-74.72 21.36,-76.44 20.46,-78.78 18.4,-81.51 15.96,-84.04 14.01,-85.86 12.9,-86.76 12.29,-86.77 11.27,-86.1 8.72,-84.96 3.87,-83.49 -3.2,-81.71 -11.15,-79.62 -17.7,-77.48 -21.06,-75.8 -22.96,-74.45 -30.92,-70.73 -46.73,-61.1" fill="none" stroke="rgb(93, 134, 19)" stroke-width="2" stroke-linejoin="round" filter="url(#fuzzy)" /><polyline points="-48.71,-58.18 -35.44,-70.61 -18.5,-76.86 -2.29,-80.12 7.75,-81.98 10.83,-83.05 9.27,-83.43 6.47,-82.98 5.38,-81.46 7.29,-78.48 11.42,-73.86 15.54,-68.01 17.56,-62.04 17.12,-57.41 15.91,-55.43 16.4,-56.96 19.02,-62.34 19,-71.04 6.42,-80.63 -23.63,-83.96" fill="none" stroke="rgb(93, 134, 19)" stroke-width="2" stroke-linejoin="round" filter="url(#fuzzy)" /><polyline points="-48.71,-58.18 3.35,-53.07 15.68,-54.96 17.07,-54.64 11.96,-54.98 6.06,-56.85 3.8,-59.11 6,-60.69 11.17,-61.51 17.34,-62.18 22.84,-63.31 26.24,-65.14 26.33,-67.42 22.45,-69.62 14.83,-71.25 4.89,-72.21 -4.89,-72.82 -11.9,-73.6 -14.93,-74.69 -15.36,-75.42 -15.54,-74.65 -13.21,-71.6 4.54,-65.18 55.86,-42.35" fill="none" stroke="rgb(93, 134, 19)" stroke-width="2" stroke-linejoin="round" filter="url(#fuzzy)" /><polyline points="-34.06,-76.23 7.74,-73.11 26.46,-65.45 28.08,-64.17 21.74,-66.37 12.2,-68.05 1.83,-67.88 -7.12,-66.65 -12.93,-65.75 -15.21,-65.83 -14.09,-66.45 -8.76,-66.57 1.8,-65.84 15.6,-65.99 25.14,-70.44 21.67,-80.49 8.38,-89.43" fill="none" stroke="rgb(93, 134, 19)" stroke-width="2" stroke-linejoin="round" filter="url(#fuzzy)" /><polyline points="25.81,-82.43 4.18,-86.03 -11.29,-82.93 -18.71,-76.73 -15.7,-70.13 -4.74,-65.26 8.49,-63.5 19.12,-64.8 25.35,-67.62 27.96,-69.93 28.44,-70.43 27.6,-69.23 25.58,-67.62 22.93,-66.91 21.39,-67.23 23.14,-67.24 28.47,-65.33 33.37,-62.01 29.29,-61.45 6.06,-67.68 -42.2,-67.43" fill="none" stroke="rgb(93, 134, 19)" stroke-width="2" stroke-linejoin="round" filter="url(#fuzzy)" /><polyline points="22.47,-84.59 35.44,-69.37 35.7,-69.72 33.11,-72.3 27.9,-74.78 19.57,-76.29 8.69,-76.57 -2.8,-76.06 -12.23,-75.61 -17.51,-75.91 -18,-77.06 -14.48,-78.55 -8.54,-79.62 -1.87,-79.64 4.2,-78.36 8.91,-75.91 12.32,-72.62 15.06,-68.76 17.46,-64.66 18.12,-61.14 14.44,-60.05 7.99,-63.45 13.19,-68.77 48.64,-58.07" fill="none" stroke="rgb(93, 134, 19)" stroke-width="2" stroke-linejoin="round" filter="url(#fuzzy)" /><polyline points="30.13,-79.64 30.8,-61.47 17.52,-64.74 13.39,-65.96 12.87,-65.57 8.89,-66.33 1.16,-68.12 -6.35,-69.26 -10.07,-68.55 -9.25,-66.2 -5.66,-63.51 -1.95,-62.08 0.02,-62.91 -0.04,-65.8 -0.89,-69.64 -0.37,-73.64 2.83,-78.55 6.42,-85.2 10.9,-88.98" fill="none" stroke="rgb(93, 134, 19)" stroke-width="2" stroke-linejoin="round" filter="url(#fuzzy)" /><polyline points="60.22,-27.99 22.2,-66.72 8.49,-77.91 0.78,-79.62 -3.45,-78.98 -2.87,-77.95 0.86,-76.86 3.87,-75.9 3.21,-75.28 -1.24,-75.12 -7.05,-75.28 -11.01,-75.45 -10.93,-75.26 -6.78,-74.56 -0.81,-73.65 3.32,-73.13 2.37,-73.48 -4.33,-74.46 -13.41,-75.26 -18.07,-75.45 -11.08,-76.01 9.96,-78.21 31.01,-78.87" fill="none" stroke="rgb(93, 134, 19)" stroke-width="2" stroke-linejoin="round" filter="url(#fuzzy)" /><polyline points="0.61,-90.43 -2.16,-90.27 -4.22,-90.13 -5.93,-89.96 -7.63,-89.68 -9.52,-89.28 -11.6,-88.75 -13.78,-88.11 -15.93,-87.41 -17.97,-86.66 -19.88,-85.87 -21.69,-85.03 -23.44,-84.13 -25.19,-83.15 -26.98,-82.08 -28.82,-80.93 -30.73,-79.69 -32.66,-78.37 -34.6,-76.96 -36.52,-75.47 -38.4,-73.89 -40.22,-72.23 -41.98,-70.5 -43.68,-68.7 -45.32,-66.85 -46.92,-64.95 -48.46,-63.01 -49.97,-61.03 -51.44,-59.02 -52.89,-56.97 -54.36,-54.88 -55.88,-52.73 -57.47,-50.5 -59.15,-48.17 -60.81,-45.75 -62.24,-43.31 -63.44,-40.57" fill="none" stroke="rgb(93, 134, 19)" stroke-width="2" stroke-linejoin="round" filter="url(#fuzzy)" /><polyline points="-3.72,-90.33 -5.27,-90.16 -7.49,-89.83 -9.74,-89.41 -12.08,-88.9 -14.63,-88.33 -17.37,-87.71 -20.2,-87.05 -23.09,-86.34 -26.02,-85.59 -29,-84.78 -32.02,-83.91 -35.14,-82.94 -38.46,-81.87 -42.09,-80.65 -46.07,-79.29 -50.32,-77.82 -54.58,-76.28 -58.56,-74.74 -62.08,-73.24 -65.27,-71.77 -68.63,-70.3 -72.74,-68.76 -77.36,-67.13 -81.18,-65.32" fill="none" stroke="rgb(93, 134, 19)" stroke-width="2" stroke-linejoin="round" filter="url(#fuzzy)" /><polyline points="-3.72,-90.33 -5.3,-90.16 -7.74,-89.82 -10.18,-89.38 -12.79,-88.86 -15.47,-88.28 -17.99,-87.64 -20.24,-86.96 -22.29,-86.23 -24.35,-85.44 -26.62,-84.59 -29.18,-83.65 -32.03,-82.61 -35.08,-81.46 -38.18,-80.19 -41.23,-78.82 -44.15,-77.37 -46.99,-75.86 -49.83,-74.32 -52.83,-72.75 -56.11,-71.14 -59.71,-69.5 -63.59,-67.79 -67.56,-66.01 -71.41,-64.15 -74.89,-62.21 -77.89,-60.19 -80.47,-58.09 -82.87,-55.92 -85.41,-53.67 -88.33,-51.32 -91.69,-48.87 -95.32,-46.3 -99.04,-43.66 -102.78,-41.07 -106.5,-38.71 -109.53,-36.77 -110.02,-35.55" fill="none" stroke="rgb(93, 134, 19)" stroke-width="2" stroke-linejoin="round" filter="url(#fuzzy)" /><polyline points="-4.63,-90.19 -6.19,-90.01 -7.54,-89.78 -9.37,-89.37 -11.57,-88.81 -13.89,-88.13 -16.12,-87.4 -18.18,-86.63 -20.12,-85.84 -22.03,-85 -24.02,-84.09 -26.12,-83.1 -28.34,-82.03 -30.64,-80.86 -32.97,-79.61 -35.3,-78.28 -37.63,-76.86 -39.92,-75.35 -42.17,-73.76 -44.35,-72.09 -46.45,-70.35 -48.51,-68.55 -50.57,-66.69 -52.69,-64.78 -54.95,-62.83 -57.39,-60.85 -60.02,-58.82 -62.78,-56.76 -65.57,-54.64 -68.24,-52.47 -70.66,-50.23 -72.83,-47.91 -74.91,-45.53 -77.19,-43.1 -79.83,-40.65 -82.71,-38.19 -85.18,-35.78 -86.35,-33.65" fill="none" stroke="rgb(93, 134, 19)" stroke-width="2" stroke-linejoin="round" filter="url(#fuzzy)" /><polyline points="-3.59,-90.31 -8.54,-89.88 -10.88,-89.43 -13.07,-88.91 -15.76,-88.32 -18.75,-87.69 -21.59,-87.02 -23.95,-86.31 -25.86,-85.55 -27.61,-84.73 -29.51,-83.85 -31.8,-82.87 -34.53,-81.77 -37.68,-80.54 -41.16,-79.17 -44.87,-77.7 -48.73,-76.18 -52.69,-74.64 -56.77,-73.13 -61.01,-71.62 -65.4,-70.1 -69.78,-68.5 -73.84,-66.78 -77.49,-64.94 -81.34,-63.03 -84.75,-61.39" fill="none" stroke="rgb(93, 134, 19)" stroke-width="2" stroke-linejoin="round" filter="url(#fuzzy)" /><polyline points="-7.08,-89.89 -7.52,-89.84 -9.96,-89.45 -13.56,-88.87 -17.21,-88.18 -20.17,-87.43 -22.36,-86.66 -24.16,-85.88 -26.01,-85.06 -28.16,-84.18 -30.61,-83.21 -33.16,-82.16 -35.65,-81.01 -37.99,-79.77 -40.24,-78.46 -42.53,-77.07 -44.99,-75.59 -47.73,-74.02 -50.82,-72.37 -54.28,-70.65 -58.13,-68.85 -62.31,-67.01 -66.65,-65.12 -70.89,-63.2 -74.67,-61.24 -77.87,-59.24 -80.82,-57.21 -84.11,-55.14 -87.76,-53.08 -91.48,-50.91" fill="none" stroke="rgb(93, 134, 19)" stroke-width="2" stroke-linejoin="round" filter="url(#fuzzy)" /><polyline points="-7.08,-89.89 -7.48,-89.84 -9.23,-89.44 -11.51,-88.85 -13.9,-88.15 -16.21,-87.4 -18.36,-86.63 -20.38,-85.83 -22.28,-84.99 -24.1,-84.09 -25.87,-83.11 -27.62,-82.03 -29.4,-80.86 -31.21,-79.61 -33.09,-78.27 -35.02,-76.85 -37,-75.34 -38.98,-73.75 -40.96,-72.08 -42.9,-70.33 -44.78,-68.53 -46.6,-66.67 -48.36,-64.76 -50.08,-62.82 -51.76,-60.83 -53.39,-58.81 -55,-56.74 -56.6,-54.63 -58.22,-52.46 -59.88,-50.22 -61.57,-47.9 -63.21,-45.52 -64.75,-43.09 -66.24,-40.64 -67.84,-38.19 -69.57,-35.77 -70.99,-33.65" fill="none" stroke="rgb(93, 134, 19)" stroke-width="2" stroke-linejoin="round" filter="url(#fuzzy)" /><polyline points="-7.87,-89.81 -9.88,-89.43 -12.14,-88.9 -14.68,-88.3 -17.25,-87.64 -19.63,-86.95 -21.73,-86.22 -23.54,-85.44 -25.17,-84.59 -26.79,-83.65 -28.54,-82.61 -30.54,-81.45 -32.81,-80.17 -35.35,-78.79 -38.12,-77.32 -41.09,-75.8 -44.25,-74.25 -47.62,-72.68 -51.24,-71.08 -55.11,-69.43 -59.23,-67.72 -63.48,-65.94 -67.69,-64.07 -71.67,-62.13 -75.25,-60.1 -78.44,-58 -81.44,-55.82 -84.65,-53.56 -88.49,-51.21 -93.25,-48.76 -98.94,-46.22 -105.28,-43.63 -111.76,-41.1 -117.78,-38.75 -122.54,-36.65 -125.14,-34.67 -124.95,-32.17" fill="none" stroke="rgb(93, 134, 19)" stroke-width="2" stroke-linejoin="round" filter="url(#fuzzy)" /><polyline points="-7.87,-89.81 -9.9,-89.43 -12.29,-88.91 -14.79,-88.32 -17.12,-87.67 -19.13,-86.99 -20.85,-86.27 -22.47,-85.51 -24.2,-84.68 -26.21,-83.78 -28.55,-82.78 -31.24,-81.66 -34.22,-80.41 -37.46,-79.03 -40.93,-77.56 -44.61,-76.04 -48.4,-74.51 -52.19,-72.97 -55.79,-71.43 -59.1,-69.86 -62.07,-68.22 -64.72,-66.49 -67.08,-64.67 -69.26,-62.77 -71.52,-60.8 -74.26,-58.75 -77.78,-56.67 -82.49,-54.91" fill="none" stroke="rgb(93, 134, 19)" stroke-width="2" stroke-linejoin="round" filter="url(#fuzzy)" /><polyline points="-6.18,-90.14 -8.83,-89.56 -11.64,-88.91 -14.32,-88.17 -16.64,-87.4 -18.68,-86.62 -20.6,-85.83 -22.67,-85 -25.08,-84.11 -27.92,-83.12 -31.08,-82.05 -34.38,-80.88 -37.59,-79.62 -40.61,-78.28 -43.48,-76.86 -46.32,-75.36 -49.28,-73.77 -52.42,-72.1 -55.71,-70.35 -58.99,-68.55 -62.09,-66.69 -64.85,-64.79 -67.24,-62.84 -69.33,-60.86 -71.32,-58.85 -73.45,-56.79 -75.94,-54.68 -78.88,-52.52 -82.3,-50.29 -86.13,-47.97 -90.18,-45.59 -94.1,-43.16 -97.53,-40.7 -100.55,-38.18 -103.12,-35.45" fill="none" stroke="rgb(93, 134, 19)" stroke-width="2" stroke-linejoin="round" filter="url(#fuzzy)" /><polyline points="-9.74,-89.52 -11.79,-88.95 -14.13,-88.32 -16.77,-87.67 -19.37,-86.98 -22.01,-86.27 -24.88,-85.5 -27.99,-84.68 -31.17,-83.78 -34.17,-82.78 -36.85,-81.66 -39.2,-80.4 -41.38,-79.02 -43.6,-77.54 -45.98,-76.02 -48.56,-74.48 -51.3,-72.95 -54.14,-71.42 -57.08,-69.84 -60.2,-68.21 -63.58,-66.48 -67.29,-64.66 -71.31,-62.76 -75.61,-60.79 -79.9,-58.74 -83.34,-56.67 -84.76,-54.91" fill="none" stroke="rgb(93, 134, 19)" stroke-width="2" stroke-linejoin="round" filter="url(#fuzzy)" /><polyline points="-9.74,-89.52 -11.34,-88.95 -13,-88.32 -14.69,-87.67 -16.33,-86.98 -17.89,-86.27 -19.4,-85.5 -20.89,-84.68 -22.39,-83.78 -23.9,-82.78 -25.42,-81.66 -26.94,-80.4 -28.44,-79.02 -29.88,-77.54 -31.22,-76.02 -32.42,-74.48 -33.47,-72.95 -34.4,-71.42 -35.28,-69.84 -36.18,-68.21 -37.12,-66.48 -38.09,-64.66 -38.97,-62.76 -39.67,-60.79 -40.12,-58.74 -40.35,-56.67 -40.45,-54.91" fill="none" stroke="rgb(93, 134, 19)" stroke-width="2" stroke-linejoin="round" filter="url(#fuzzy)" /><polyline points="62.17,-16.51 67.06,-12.48 67.21,-9.6 67.93,-7.03 69.91,-4.55 72.51,-2.07 74.87,0.48 76.4,3.16 76.94,5.95 76.66,8.79 75.92,11.63 75.02,14.4 74.18,17.06 73.49,19.64 73.03,22.18 72.81,24.73 72.87,27.33 73.19,29.97 73.78,32.6 74.65,35.18 75.77,37.69 77.02,40.16 78.12,42.65 78.84,45.17 79.28,47.56 79.92,49.61" fill="none" stroke="rgb(93, 134, 19)" stroke-width="2" stroke-linejoin="round" filter="url(#fuzzy)" /><polyline points="-11.65,-88.94 -13.27,-88.31 -15.67,-87.63 -17.86,-86.94 -19.67,-86.21 -21.21,-85.43 -22.67,-84.58 -24.23,-83.64 -25.97,-82.6 -27.94,-81.43 -30.14,-80.13 -32.53,-78.73 -35.02,-77.24 -37.52,-75.71 -39.95,-74.15 -42.27,-72.57 -44.44,-70.96 -46.45,-69.3 -48.32,-67.58 -50.08,-65.78 -51.78,-63.91 -53.46,-61.95 -55.17,-59.91 -56.94,-57.79 -58.78,-55.6 -60.66,-53.32 -62.57,-50.96 -64.49,-48.52 -66.4,-46.03 -68.3,-43.52 -70.15,-41.04 -71.9,-38.63 -73.43,-36.29 -74.71,-33.92 -75.83,-31.44 -77.01,-28.82 -78.36,-26.33 -79.06,-24.52" fill="none" stroke="rgb(93, 134, 19)" stroke-width="2" stroke-linejoin="round" filter="url(#fuzzy)" /><polyline points="-11.65,-88.94 -13.01,-88.31 -14.81,-87.64 -16.4,-86.95 -17.77,-86.23 -18.96,-85.45 -20.01,-84.61 -20.9,-83.69 -21.64,-82.66 -22.33,-81.5 -23.06,-80.22 -23.86,-78.82 -24.67,-77.33 -25.35,-75.8 -25.79,-74.25 -25.96,-72.69 -25.95,-71.1 -25.91,-69.47 -25.94,-67.78 -26.08,-66 -26.22,-64.15 -26.14,-62.21 -25.66,-60.19 -24.69,-58.1 -23.34,-55.94 -21.86,-53.7 -20.49,-51.38 -19.25,-48.93 -17.86,-46.34 -15.94,-43.63 -13.5,-40.95 -11.38,-38.49 -10.42,-36.16" fill="none" stroke="rgb(93, 134, 19)" stroke-width="2" stroke-linejoin="round" filter="url(#fuzzy)" /><polyline points="-16.46,-87.41 -17.43,-86.92 -18.84,-86.22 -20.37,-85.45 -21.96,-84.61 -23.62,-83.7 -25.4,-82.68 -27.33,-81.52 -29.43,-80.23 -31.68,-78.8 -34,-77.3 -36.29,-75.75 -38.46,-74.2 -40.49,-72.64 -42.43,-71.06 -44.38,-69.43 -46.44,-67.74 -48.64,-65.97 -50.96,-64.11 -53.3,-62.17 -55.52,-60.16 -57.52,-58.07 -59.29,-55.91 -60.84,-53.67 -62.27,-51.35 -63.71,-48.91 -65.32,-46.32 -67.19,-43.61 -69.3,-40.94 -71.33,-38.48 -72.55,-36.16" fill="none" stroke="rgb(93, 134, 19)" stroke-width="2" stroke-linejoin="round" filter="url(#fuzzy)" /><polyline points="-16.33,-87.22 -18.13,-86.48 -19.43,-85.75 -20.72,-84.98 -22.11,-84.14 -23.56,-83.16 -25.03,-82.06 -26.52,-80.87 -28.04,-79.59 -29.6,-78.24 -31.2,-76.82 -32.79,-75.31 -34.36,-73.71 -35.87,-72.03 -37.33,-70.28 -38.73,-68.46 -40.07,-66.6 -41.33,-64.7 -42.48,-62.76 -43.48,-60.78 -44.34,-58.77 -45.05,-56.72 -45.65,-54.62 -46.19,-52.47 -46.72,-50.24 -47.27,-47.93 -47.89,-45.55 -48.56,-43.13 -49.29,-40.68 -50.06,-38.17 -50.81,-35.45" fill="none" stroke="rgb(93, 134, 19)" stroke-width="2" stroke-linejoin="round" filter="url(#fuzzy)" /><polyline points="-19.02,-86.38 -24.75,-85.73 -26.41,-84.98 -27.91,-84.15 -29.56,-83.18 -31.48,-82.07 -33.97,-80.86 -37.08,-79.58 -40.49,-78.23 -43.7,-76.8 -46.31,-75.29 -48.22,-73.69 -49.65,-72.01 -50.98,-70.25 -52.59,-68.44 -54.78,-66.58 -57.78,-64.68 -61.7,-62.74 -66.5,-60.76 -71.94,-58.75 -77.59,-56.7 -82.94,-54.61 -87.68,-52.45 -91.95,-50.22 -96.31,-47.92 -101.3,-45.54 -106.83,-43.12 -112.02,-40.67 -115.91,-38.17 -118.85,-35.45" fill="none" stroke="rgb(93, 134, 19)" stroke-width="2" stroke-linejoin="round" filter="url(#fuzzy)" /><polyline points="-19.4,-85.76 -20.39,-85.43 -21.93,-84.63 -23.55,-83.72 -25.27,-82.72 -27.15,-81.58 -29.16,-80.28 -31.21,-78.82 -33.2,-77.29 -35.07,-75.72 -36.83,-74.17 -38.5,-72.63 -40.12,-71.07 -41.73,-69.47 -43.33,-67.8 -44.93,-66.04 -46.53,-64.19 -48.15,-62.26 -49.79,-60.25 -51.47,-58.18 -53.16,-56.04 -54.8,-53.85 -56.32,-51.58 -57.73,-49.19 -59.09,-46.54 -60.45,-43.54 -61.55,-40.32" fill="none" stroke="rgb(93, 134, 19)" stroke-width="2" stroke-linejoin="round" filter="url(#fuzzy)" /><polyline points="-19.4,-85.76 -20.46,-85.42 -22.3,-84.62 -24.67,-83.7 -27.57,-82.69 -30.7,-81.54 -33.79,-80.22 -36.83,-78.76 -40.08,-77.22 -43.73,-75.65 -47.79,-74.09 -52.04,-72.53 -56.19,-70.95 -59.97,-69.32 -63.24,-67.62 -65.97,-65.84 -68.25,-63.97 -70.27,-62.02 -72.26,-59.99 -74.47,-57.89 -77.08,-55.72 -80.24,-53.46 -84.06,-51.12 -88.61,-48.68 -93.92,-46.14 -99.84,-43.56 -105.96,-41.04 -111.82,-38.7 -117.12,-36.62 -121.55,-34.66 -124.92,-32.17" fill="none" stroke="rgb(93, 134, 19)" stroke-width="2" stroke-linejoin="round" filter="url(#fuzzy)" /><polyline points="-19.9,-85.92 -21.5,-84.98 -23.18,-84.2 -25.04,-83.26 -27.12,-82.14 -29.49,-80.93 -32.26,-79.65 -35.42,-78.33 -38.8,-76.94 -42.11,-75.46 -45.15,-73.88 -47.87,-72.22 -50.47,-70.48 -53.18,-68.69 -56.2,-66.86 -59.63,-64.98 -63.47,-63.07 -67.61,-61.13 -71.77,-59.15 -75.61,-57.14 -78.94,-55.1 -81.88,-53.06 -85.08,-50.91" fill="none" stroke="rgb(93, 134, 19)" stroke-width="2" stroke-linejoin="round" filter="url(#fuzzy)" /><polyline points="-19.9,-85.92 -21.43,-84.97 -22.85,-84.18 -24.45,-83.23 -26.22,-82.1 -28.06,-80.87 -29.9,-79.59 -31.71,-78.24 -33.53,-76.83 -35.36,-75.33 -37.19,-73.73 -39.01,-72.05 -40.8,-70.3 -42.52,-68.49 -44.18,-66.64 -45.78,-64.74 -47.31,-62.81 -48.78,-60.85 -50.18,-58.85 -51.52,-56.82 -52.8,-54.75 -54.05,-52.62 -55.32,-50.41 -56.63,-48.1 -57.98,-45.7 -59.37,-43.28 -60.98,-40.57" fill="none" stroke="rgb(93, 134, 19)" stroke-width="2" stroke-linejoin="round" filter="url(#fuzzy)" /><polyline points="-19.57,-86.03 -22.63,-84.71 -25.96,-83.72 -29.92,-82.74 -33.73,-81.63 -36.72,-80.32 -38.86,-78.85 -40.56,-77.29 -42.23,-75.72 -44.2,-74.18 -46.68,-72.65 -49.84,-71.12 -53.79,-69.54 -58.48,-67.89 -63.69,-66.14 -69.05,-64.31 -74.25,-62.39 -79.1,-60.39 -83.56,-58.33 -87.62,-56.2 -91.32,-54.04 -95.04,-51.91 -99.72,-49.78 -105.92,-47.01" fill="none" stroke="rgb(93, 134, 19)" stroke-width="2" stroke-linejoin="round" filter="url(#fuzzy)" /><polyline points="-25.76,-82.25 -27.09,-81.67 -29.11,-80.35 -31.3,-78.7 -33.41,-77 -35.46,-75.37 -37.57,-73.79 -39.83,-72.24 -42.23,-70.65 -44.66,-69 -46.94,-67.27 -48.97,-65.44 -50.76,-63.53 -52.4,-61.53 -54.03,-59.45 -55.71,-57.3 -57.44,-55.07 -59.15,-52.76 -60.78,-50.39 -62.29,-47.96 -63.75,-45.49 -65.25,-43.02 -66.86,-40.56 -68.63,-38.12 -70.54,-35.69 -72.51,-33.27 -74.49,-30.82 -76.43,-28.36 -78.31,-25.86 -80.1,-23.32 -81.77,-20.71 -83.29,-18.01 -84.66,-15.19 -85.97,-12.28 -87.32,-9.37 -88.78,-6.58 -90.2,-4.1 -90.98,-2.12" fill="none" stroke="rgb(93, 134, 19)" stroke-width="2" stroke-linejoin="round" filter="url(#fuzzy)" /><polyline points="-26.51,-81.84 -28.57,-80.58 -30.4,-79.36 -32.06,-78.07 -33.66,-76.66 -35.27,-75.12 -36.9,-73.47 -38.53,-71.74 -40.14,-69.94 -41.71,-68.1 -43.24,-66.21 -44.74,-64.28 -46.2,-62.32 -47.61,-60.33 -48.97,-58.29 -50.25,-56.21 -51.49,-54.07 -52.68,-51.88 -53.86,-49.63 -55.02,-47.32 -56.15,-44.96 -57.25,-42.57 -58.29,-40.17 -59.27,-37.76 -60.18,-35.36 -61.03,-32.94 -61.82,-30.48 -62.54,-27.98 -63.19,-25.44 -63.79,-22.85 -64.4,-20.05 -64.97,-16.36" fill="none" stroke="rgb(93, 134, 19)" stroke-width="2" stroke-linejoin="round" filter="url(#fuzzy)" /><polyline points="-26.6,-82.13 -32.53,-80.59 -37.64,-78.74 -40.19,-76.95 -41.5,-75.29 -42.36,-73.73 -43.14,-72.2 -44.06,-70.63 -45.25,-68.98 -46.76,-67.24 -48.64,-65.41 -50.93,-63.49 -53.67,-61.49 -56.84,-59.41 -60.32,-57.25 -63.87,-55.01 -67.24,-52.7 -70.25,-50.33 -72.86,-47.89 -75.18,-45.43 -77.39,-42.95 -79.62,-40.49 -81.97,-38.05 -84.44,-35.62 -86.97,-33.2 -89.56,-30.75 -92.18,-28.28 -94.87,-25.77 -97.63,-23.22 -100.47,-20.61 -103.34,-17.9 -106.2,-15.1 -109.06,-12.23 -112.05,-9.37 -115.31,-6.63 -118.69,-4.1 -121.89,-1.8 -125.34,0.54" fill="none" stroke="rgb(93, 134, 19)" stroke-width="2" stroke-linejoin="round" filter="url(#fuzzy)" /><polyline points="-28.61,-80.57 -31.54,-79.31 -35.4,-78.08 -38.29,-76.66 -40.25,-75.11 -42.38,-73.44 -45.33,-71.69 -48.83,-69.88 -52.2,-68.03 -54.9,-66.13 -56.92,-64.2 -58.71,-62.24 -60.85,-60.23 -63.71,-58.19 -67.34,-56.1 -71.44,-53.96 -75.56,-51.76 -79.3,-49.5 -82.49,-47.18 -85.23,-44.82 -87.76,-42.44 -90.32,-40.03 -92.97,-37.62 -95.58,-35.2 -97.94,-32.77 -99.96,-30.3 -101.76,-27.77 -103.61,-25.19 -105.86,-22.52 -108.87,-19.75 -112.92,-16.9 -117.52,-14.19 -119.74,-12.14" fill="none" stroke="rgb(93, 134, 19)" stroke-width="2" stroke-linejoin="round" filter="url(#fuzzy)" /><polyline points="-31.65,-78.25 -33.64,-76.66 -35.33,-75.1 -36.74,-73.64 -38.05,-72.2 -39.37,-70.71 -40.73,-69.11 -42.13,-67.41 -43.56,-65.6 -44.98,-63.71 -46.4,-61.73 -47.8,-59.69 -49.16,-57.58 -50.5,-55.4 -51.82,-53.13 -53.11,-50.79 -54.39,-48.35 -55.62,-45.84 -56.78,-43.32 -57.83,-40.86 -58.78,-38.51 -59.65,-36.26 -60.48,-33.98 -61.32,-31.46 -62.17,-28.62 -63.04,-25.84" fill="none" stroke="rgb(93, 134, 19)" stroke-width="2" stroke-linejoin="round" filter="url(#fuzzy)" /><polyline points="-31.65,-78.25 -33.01,-76.66 -34,-75.09 -35.16,-73.63 -36.32,-72.19 -37.22,-70.69 -37.74,-69.09 -38,-67.38 -38.22,-65.57 -38.63,-63.67 -39.32,-61.7 -40.24,-59.65 -41.23,-57.53 -42.08,-55.34 -42.6,-53.07 -42.69,-50.71 -42.36,-48.27 -41.74,-45.78 -40.98,-43.27 -40.18,-40.81 -39.3,-38.45 -38.25,-36.15 -36.95,-33.82 -35.51,-31.36 -34.17,-28.75 -32.88,-26.3 -30.73,-24.52" fill="none" stroke="rgb(93, 134, 19)" stroke-width="2" stroke-linejoin="round" filter="url(#fuzzy)" /><polyline points="-33.74,-76.77 -35.96,-74.97 -39.59,-73.53 -44.24,-72.14 -49.11,-70.65 -54.24,-69.04 -59.6,-67.32 -64.66,-65.5 -68.69,-63.58 -71.26,-61.6 -72.46,-59.53 -72.87,-57.4 -73.29,-55.2 -74.49,-52.92 -76.91,-50.55 -80.51,-48.11 -84.88,-45.63 -89.38,-43.14 -93.52,-40.69 -97.13,-38.3 -100.32,-35.95 -103.23,-33.59 -105.93,-31.16 -108.39,-28.67 -110.93,-26.2 -114.49,-23.83 -120.02,-21.48 -127.95,-19.09" fill="none" stroke="rgb(93, 134, 19)" stroke-width="2" stroke-linejoin="round" filter="url(#fuzzy)" /><polyline points="-33.74,-76.77 -35.85,-74.97 -37.53,-73.54 -38.9,-72.14 -40.39,-70.66 -42.22,-69.06 -44.31,-67.34 -46.41,-65.52 -48.3,-63.61 -49.89,-61.63 -51.26,-59.57 -52.62,-57.45 -54.14,-55.25 -55.93,-52.97 -57.98,-50.61 -60.23,-48.17 -62.57,-45.68 -64.91,-43.18 -67.17,-40.73 -69.31,-38.36 -71.24,-36.03 -72.87,-33.69 -74.08,-31.25 -74.88,-28.72 -75.5,-26.25 -76.64,-23.95 -79.26,-21.46" fill="none" stroke="rgb(93, 134, 19)" stroke-width="2" stroke-linejoin="round" filter="url(#fuzzy)" /><polyline points="-33.74,-76.77 -35.53,-74.96 -37.26,-73.52 -39.5,-72.11 -42.46,-70.61 -45.88,-68.99 -49.14,-67.25 -51.75,-65.4 -53.58,-63.48 -54.9,-61.47 -56.15,-59.39 -57.76,-57.23 -59.93,-55 -62.64,-52.69 -65.72,-50.31 -68.93,-47.87 -72.07,-45.4 -74.98,-42.92 -77.62,-40.46 -79.97,-38.04 -82.02,-35.64 -83.73,-33.23 -85.12,-30.8 -86.3,-28.34 -87.6,-25.86 -89.37,-23.34 -91.86,-20.76 -94.99,-18.08 -98.42,-15.25 -101.78,-12.29 -104.87,-9.32 -107.47,-6.42 -110.11,-3.93" fill="none" stroke="rgb(93, 134, 19)" stroke-width="2" stroke-linejoin="round" filter="url(#fuzzy)" /><polyline points="-34.06,-76.23 -35.4,-74.96 -36.98,-73.38 -38.75,-71.6 -40.68,-69.74 -42.76,-67.85 -44.91,-65.94 -46.98,-64 -48.84,-62.02 -50.46,-60 -51.89,-57.95 -53.25,-55.84 -54.62,-53.68 -56.02,-51.46 -57.44,-49.18 -58.86,-46.85 -60.27,-44.48 -61.68,-42.08 -63.06,-39.67 -64.37,-37.24 -65.57,-34.8 -66.6,-32.33 -67.45,-29.81 -68.14,-27.25 -68.73,-24.63 -69.31,-21.94 -69.94,-19.19 -70.68,-16.37 -71.52,-13.5 -72.42,-10.58 -73.27,-7.64 -74.02,-4.73 -74.63,-1.95 -75.11,0.65 -75.58,3.05 -76.46,4.83" fill="none" stroke="rgb(93, 134, 19)" stroke-width="2" stroke-linejoin="round" filter="url(#fuzzy)" /><polyline points="-35.12,-75.08 -37.49,-73.48 -40.34,-71.62 -43.28,-69.72 -45.9,-67.83 -48.15,-65.93 -50.19,-63.99 -52.23,-62.02 -54.5,-60 -57.11,-57.95 -60.08,-55.85 -63.34,-53.7 -66.79,-51.49 -70.34,-49.21 -73.94,-46.89 -77.61,-44.52 -81.41,-42.13 -85.39,-39.72 -89.56,-37.3 -93.8,-34.87 -97.97,-32.41 -101.98,-29.92 -105.84,-27.37 -109.62,-24.76 -113.27,-22.08 -116.57,-19.34 -119.12,-16.53 -120.69,-13.66 -121.57,-10.73 -122.79,-7.72 -125.74,-4.7 -131.13,-2.04 -135.93,-0.65" fill="none" stroke="rgb(93, 134, 19)" stroke-width="2" stroke-linejoin="round" filter="url(#fuzzy)" /><polyline points="-35.12,-75.08 -37.63,-73.5 -40.58,-71.66 -43.93,-69.78 -47.95,-67.91 -52.46,-66.04 -56.9,-64.13 -60.66,-62.18 -63.49,-60.19 -65.59,-58.17 -67.52,-56.11 -69.89,-54 -73.1,-51.83 -77.2,-49.59 -81.91,-47.28 -86.76,-44.93 -91.37,-42.55 -95.64,-40.16 -99.69,-37.78 -103.76,-35.42 -108,-33.05 -112.52,-30.62 -117.57,-28.08 -124.07,-25.49 -133.39,-23.08" fill="none" stroke="rgb(93, 134, 19)" stroke-width="2" stroke-linejoin="round" filter="url(#fuzzy)" /><polyline points="-35.12,-75.08 -37.38,-73.47 -39.02,-71.61 -40.64,-69.71 -42.25,-67.81 -43.78,-65.91 -45.23,-63.97 -46.66,-61.99 -48.12,-59.97 -49.65,-57.91 -51.27,-55.81 -52.96,-53.65 -54.66,-51.43 -56.3,-49.15 -57.83,-46.82 -59.25,-44.45 -60.57,-42.05 -61.86,-39.64 -63.13,-37.21 -64.36,-34.77 -65.49,-32.3 -66.49,-29.79 -67.34,-27.23 -68.1,-24.61 -68.89,-21.92 -69.81,-19.17 -70.95,-16.35 -72.26,-13.48 -73.62,-10.57 -74.84,-7.63 -75.74,-4.72 -76.29,-1.94 -76.66,0.66 -77.21,3.05 -77.93,4.83" fill="none" stroke="rgb(93, 134, 19)" stroke-width="2" stroke-linejoin="round" filter="url(#fuzzy)" /><polyline points="-37,-73.31 -38.14,-72.12 -39.5,-70.62 -40.93,-68.96 -42.38,-67.19 -43.84,-65.31 -45.27,-63.35 -46.69,-61.32 -48.08,-59.21 -49.45,-57.04 -50.79,-54.78 -52.11,-52.46 -53.39,-50.06 -54.61,-47.6 -55.77,-45.12 -56.85,-42.64 -57.85,-40.18 -58.77,-37.74 -59.61,-35.31 -60.38,-32.88 -61.1,-30.43 -61.76,-27.95 -62.39,-25.42 -62.99,-22.85 -63.57,-20.21 -64.13,-17.51 -64.65,-14.75 -65.12,-11.97 -65.5,-9.19 -65.78,-6.47 -65.97,-3.82 -66.09,-1.2 -66.18,1.46 -66.23,4.23 -66.25,7.09 -66.26,9.77 -66.46,11.24" fill="none" stroke="rgb(93, 134, 19)" stroke-width="2" stroke-linejoin="round" filter="url(#fuzzy)" /><polyline points="-37.01,-73.55 -38.87,-71.65 -41.08,-69.66 -43.07,-67.77 -45.05,-65.89 -47.2,-63.96 -49.5,-61.99 -51.76,-59.98 -53.84,-57.94 -55.77,-55.84 -57.67,-53.7 -59.69,-51.49 -61.81,-49.22 -63.94,-46.89 -65.98,-44.52 -67.92,-42.13 -69.89,-39.73 -72.03,-37.31 -74.44,-34.89 -77.04,-32.44 -79.6,-29.96 -81.81,-27.42 -83.45,-24.82 -84.57,-22.15 -85.51,-19.41 -86.8,-16.61 -88.86,-13.77 -91.66,-10.84 -94.63,-7.75 -96.92,-4.38 -98.13,-0.91" fill="none" stroke="rgb(93, 134, 19)" stroke-width="2" stroke-linejoin="round" filter="url(#fuzzy)" /><polyline points="-39.22,-70.68 -41.23,-68.97 -43.13,-67.2 -45,-65.32 -47.05,-63.35 -49.41,-61.33 -52.19,-59.24 -55.33,-57.07 -58.65,-54.84 -61.96,-52.53 -65.21,-50.13 -68.52,-47.68 -72.07,-45.18 -75.99,-42.7 -80.29,-40.25 -84.8,-37.84 -89.22,-35.45 -93.27,-33.05 -96.76,-30.63 -99.75,-28.18 -102.5,-25.69 -105.4,-23.17 -108.79,-20.59 -112.78,-17.9 -117.24,-15.09 -121.85,-12.19 -126.27,-9.3 -130.27,-6.54 -133.65,-4.08 -135.19,-2.12" fill="none" stroke="rgb(93, 134, 19)" stroke-width="2" stroke-linejoin="round" filter="url(#fuzzy)" /><polyline points="-41.35,-68.41 -42.42,-67.51 -44.45,-65.84 -47.64,-63.94 -51.54,-61.96 -55.15,-59.96 -57.76,-57.93 -59.34,-55.86 -60.38,-53.74 -61.57,-51.56 -63.57,-49.3 -66.73,-46.98 -71.05,-44.62 -76.14,-42.24 -81.36,-39.85 -85.98,-37.47 -89.45,-35.09 -91.57,-32.68 -92.53,-30.25 -92.94,-27.75 -93.68,-25.21 -95.54,-22.58 -98.46,-19.79 -101.35,-16.74 -104.66,-13.74" fill="none" stroke="rgb(93, 134, 19)" stroke-width="2" stroke-linejoin="round" filter="url(#fuzzy)" /><polyline points="-43.32,-65.57 -44.56,-63.77 -45.63,-61.77 -46.63,-59.77 -47.55,-57.74 -48.35,-55.67 -49.09,-53.54 -49.8,-51.33 -50.51,-49.05 -51.15,-46.71 -51.64,-44.34 -51.9,-41.95 -51.89,-39.55 -51.61,-37.15 -51.15,-34.74 -50.62,-32.31 -50.16,-29.84 -49.86,-27.31 -49.73,-24.72 -49.68,-22.06 -49.52,-19.33 -49.08,-16.54 -48.2,-13.71 -46.93,-10.8 -45.52,-7.72 -44.41,-4.37 -43.96,-0.91" fill="none" stroke="rgb(93, 134, 19)" stroke-width="2" stroke-linejoin="round" filter="url(#fuzzy)" /><polyline points="-43.32,-65.57 -44.85,-63.76 -46.94,-61.74 -49.84,-59.72 -52.95,-57.68 -55.65,-55.59 -57.91,-53.43 -60.11,-51.2 -62.63,-48.9 -65.64,-46.55 -69.19,-44.16 -73.23,-41.75 -77.69,-39.33 -82.36,-36.91 -86.9,-34.46 -90.89,-31.99 -93.97,-29.48 -96.01,-26.91 -97.17,-24.28 -97.87,-21.58 -98.6,-18.83 -99.74,-16.01 -101.36,-13.16 -103.24,-10.28 -105.01,-7.4 -106.37,-4.58 -107.35,-1.86 -108.39,0.73 -110.03,3.18 -112.58,5.55 -116.1,7.94 -120.67,10.65 -124.7,14.4" fill="none" stroke="rgb(93, 134, 19)" stroke-width="2" stroke-linejoin="round" filter="url(#fuzzy)" /><polyline points="61.84,-19.79 63.93,-18.51 64.45,-15.87 64.73,-12.92 65.46,-10.07 66.83,-7.38 68.77,-4.82 71.1,-2.28 73.53,0.3 75.72,2.98 77.45,5.74 78.68,8.57 79.54,11.4 80.23,14.17 80.86,16.84 81.51,19.42 82.32,21.95 83.51,24.5 85.33,27.1 87.95,29.77 91.25,32.43 94.75,35.01 97.57,37.47 98.76,39.88 98.35,42.44 99.39,45.28" fill="none" stroke="rgb(93, 134, 19)" stroke-width="2" stroke-linejoin="round" filter="url(#fuzzy)" /><polyline points="-44.66,-64.13 -50.05,-61.68 -56.92,-59.64 -62.15,-57.61 -64.05,-55.51 -63.85,-53.35 -63.53,-51.11 -64.4,-48.79 -66.8,-46.43 -70.24,-44.02 -73.93,-41.6 -77.14,-39.18 -79.58,-36.74 -81.37,-34.29 -82.86,-31.8 -84.38,-29.27 -86.1,-26.69 -87.95,-24.04 -89.85,-21.33 -91.73,-18.56 -93.64,-15.74 -95.66,-12.9 -97.86,-10.04 -100.2,-7.2 -102.61,-4.42 -105.05,-1.71 -107.5,0.91 -110.04,3.46 -112.78,6 -115.8,8.58 -118.97,11.27 -121.84,14.07 -123.75,16.93 -124.39,19.68 -124.71,22.13 -125.31,23.78" fill="none" stroke="rgb(93, 134, 19)" stroke-width="2" stroke-linejoin="round" filter="url(#fuzzy)" /><polyline points="-44.66,-64.13 -49.27,-61.68 -52.29,-59.64 -53.06,-57.6 -53.36,-55.5 -54.08,-53.33 -55.39,-51.08 -57.22,-48.77 -59.43,-46.39 -61.8,-43.99 -64.02,-41.56 -65.86,-39.13 -67.2,-36.69 -68.07,-34.23 -68.66,-31.74 -69.17,-29.2 -69.78,-26.61 -70.62,-23.95 -71.75,-21.24 -73.21,-18.46 -75,-15.65 -77.09,-12.8 -79.42,-9.96 -81.88,-7.13 -84.36,-4.35 -86.71,-1.64 -88.82,0.99 -90.6,3.58 -92.02,6.16 -93.09,8.77 -93.93,11.45 -94.67,14.22 -95.52,17.02 -96.57,19.83 -97.69,22.61 -98.37,25.45 -98.09,28.43 -97.49,30.97" fill="none" stroke="rgb(93, 134, 19)" stroke-width="2" stroke-linejoin="round" filter="url(#fuzzy)" /><polyline points="-44.66,-64.13 -46.62,-61.71 -48.08,-59.71 -49.75,-57.72 -51.57,-55.67 -53.38,-53.56 -55.1,-51.37 -56.75,-49.11 -58.4,-46.78 -60.13,-44.41 -61.95,-42.03 -63.8,-39.65 -65.56,-37.27 -67.19,-34.89 -68.72,-32.5 -70.29,-30.06 -72.02,-27.57 -73.96,-25.01 -76,-22.38 -77.93,-19.64 -79.54,-16.81 -80.73,-14.14 -81.89,-12.14" fill="none" stroke="rgb(93, 134, 19)" stroke-width="2" stroke-linejoin="round" filter="url(#fuzzy)" /><polyline points="-45.74,-62.69 -47.16,-61.11 -49.75,-59.11 -53.67,-56.93 -58.14,-54.7 -62.13,-52.41 -65.24,-50.02 -67.67,-47.54 -69.81,-45.01 -71.96,-42.51 -74.32,-40.08 -77.1,-37.72 -80.48,-35.39 -84.53,-33.03 -89.12,-30.63 -93.94,-28.19 -98.65,-25.74 -102.95,-23.27 -106.72,-20.75 -110.01,-18.1 -112.98,-15.27 -115.95,-12.29 -120.24,-9.29 -129.45,-5.79" fill="none" stroke="rgb(93, 134, 19)" stroke-width="2" stroke-linejoin="round" filter="url(#fuzzy)" /><polyline points="-45.74,-62.69 -46.85,-61.08 -48.21,-59.03 -49.66,-56.82 -51.04,-54.54 -52.3,-52.19 -53.49,-49.75 -54.63,-47.24 -55.72,-44.71 -56.75,-42.19 -57.7,-39.73 -58.55,-37.3 -59.33,-34.89 -60.05,-32.46 -60.72,-30.01 -61.36,-27.51 -61.97,-24.97 -62.54,-22.38 -63.09,-19.73 -63.59,-17.02 -64.04,-14.28 -64.43,-11.53 -64.75,-8.78 -65,-6.06 -65.17,-3.36 -65.28,-0.68 -65.33,2.02 -65.37,4.74 -65.39,7.5 -65.41,10.28 -65.4,13.06 -65.31,15.83 -65.13,18.52 -64.84,21.07 -64.46,23.49 -63.98,26.05 -63.5,28.9" fill="none" stroke="rgb(93, 134, 19)" stroke-width="2" stroke-linejoin="round" filter="url(#fuzzy)" /><polyline points="-45.74,-62.69 -47.75,-61.11 -49.74,-59.09 -51.61,-56.91 -53.92,-54.67 -56.64,-52.36 -59.4,-49.96 -61.9,-47.47 -64.06,-44.95 -65.96,-42.45 -67.72,-40.01 -69.42,-37.63 -71.03,-35.27 -72.45,-32.9 -73.64,-30.49 -74.64,-28.04 -75.59,-25.57 -76.67,-23.07 -78.01,-20.5 -79.73,-17.82 -81.93,-15.02 -84.69,-12.13 -87.9,-9.24 -91.04,-6.5 -93.25,-4.06 -94.09,-2.12" fill="none" stroke="rgb(93, 134, 19)" stroke-width="2" stroke-linejoin="round" filter="url(#fuzzy)" /><polyline points="-46.73,-61.1 -47.59,-59.5 -48.69,-57.58 -49.82,-55.49 -50.98,-53.32 -52.18,-51.08 -53.38,-48.76 -54.52,-46.38 -55.59,-43.98 -56.56,-41.55 -57.45,-39.13 -58.29,-36.7 -59.06,-34.25 -59.78,-31.77 -60.45,-29.24 -61.08,-26.65 -61.65,-24.01 -62.17,-21.3 -62.64,-18.53 -63.06,-15.71 -63.45,-12.86 -63.79,-10.01 -64.1,-7.17 -64.38,-4.39 -64.6,-1.69 -64.77,0.93 -64.89,3.48 -64.94,6.01 -64.92,8.59 -64.85,11.28 -64.72,14.08 -64.53,16.93 -64.3,19.69 -64.03,22.13 -63.9,23.78" fill="none" stroke="rgb(93, 134, 19)" stroke-width="2" stroke-linejoin="round" filter="url(#fuzzy)" /><polyline points="-47.34,-59.58 -49.58,-57.68 -52.54,-55.5 -54.44,-53.33 -55.34,-51.11 -56.01,-48.8 -57.05,-46.43 -58.65,-44.02 -60.82,-41.61 -63.49,-39.2 -66.56,-36.79 -69.86,-34.37 -73.12,-31.92 -76.03,-29.42 -78.34,-26.86 -79.9,-24.24 -80.78,-21.55 -81.15,-18.8 -81.31,-15.99 -81.5,-13.14 -81.92,-10.25 -82.59,-7.37 -83.48,-4.54 -84.51,-1.82 -85.57,0.75 -86.59,3.15 -87.56,5.42 -88.44,7.56 -88.85,9.42" fill="none" stroke="rgb(93, 134, 19)" stroke-width="2" stroke-linejoin="round" filter="url(#fuzzy)" /><polyline points="-47.34,-59.58 -50.48,-57.66 -51.57,-55.47 -52.48,-53.28 -53.95,-51.04 -56.24,-48.72 -59.1,-46.33 -61.96,-43.91 -64.35,-41.48 -66.19,-39.06 -67.78,-36.63 -69.53,-34.18 -71.69,-31.7 -74.25,-29.17 -76.97,-26.58 -79.6,-23.93 -82.02,-21.21 -84.32,-18.44 -86.73,-15.63 -89.52,-12.78 -92.78,-9.93 -96.39,-7.1 -100.05,-4.32 -103.42,-1.62 -106.23,1 -108.34,3.56 -109.66,6.11 -110.23,8.71 -110.24,11.39 -110.22,14.17 -110.93,16.99 -112.94,19.77 -115.88,22.49 -117.95,25.35 -117.46,29.39" fill="none" stroke="rgb(93, 134, 19)" stroke-width="2" stroke-linejoin="round" filter="url(#fuzzy)" /><polyline points="-48.71,-58.18 -50.23,-55.45 -51.85,-53.29 -53.6,-51.12 -55.08,-48.82 -56.2,-46.45 -57.15,-44.05 -58.17,-41.65 -59.34,-39.26 -60.61,-36.88 -61.85,-34.49 -62.94,-32.07 -63.85,-29.61 -64.61,-27.08 -65.24,-24.5 -65.78,-21.84 -66.25,-19.11 -66.73,-16.33 -67.3,-13.49 -68.04,-10.59 -68.93,-7.61 -69.87,-4.62 -70.72,-2 -71.29,-0.65" fill="none" stroke="rgb(93, 134, 19)" stroke-width="2" stroke-linejoin="round" filter="url(#fuzzy)" /><polyline points="-48.71,-58.18 -50.62,-55.42 -51.9,-53.22 -53.04,-51 -54.04,-48.67 -54.96,-46.26 -55.85,-43.83 -56.72,-41.39 -57.58,-38.97 -58.41,-36.53 -59.19,-34.08 -59.93,-31.6 -60.66,-29.06 -61.36,-26.47 -62.04,-23.81 -62.68,-21.09 -63.24,-18.32 -63.72,-15.5 -64.11,-12.65 -64.41,-9.81 -64.67,-6.98 -64.9,-4.22 -65.12,-1.52 -65.36,1.12 -65.58,3.7 -65.77,6.28 -65.86,8.9 -65.82,11.58 -65.64,14.33 -65.37,17.12 -65.07,19.92 -64.79,22.71 -64.51,25.49 -64.22,28.25 -63.89,30.76 -63.61,32.62" fill="none" stroke="rgb(93, 134, 19)" stroke-width="2" stroke-linejoin="round" filter="url(#fuzzy)" /><polyline points="-48.71,-58.18 -50.04,-55.43 -51.34,-53.25 -52.66,-51.06 -54.08,-48.74 -55.78,-46.35 -57.82,-43.94 -60.08,-41.52 -62.38,-39.11 -64.55,-36.7 -66.55,-34.28 -68.38,-31.83 -70.04,-29.33 -71.53,-26.76 -72.81,-24.14 -73.91,-21.45 -74.9,-18.69 -75.96,-15.88 -77.23,-13.03 -78.85,-10.16 -80.76,-7.29 -82.79,-4.48 -84.68,-1.77 -86.24,0.8 -87.47,3.23 -88.59,5.58 -89.85,7.96 -91.33,10.66 -92.4,14.4" fill="none" stroke="rgb(93, 134, 19)" stroke-width="2" stroke-linejoin="round" filter="url(#fuzzy)" /><polyline points="61.37,-22.18 61.83,-19.72 62.43,-17.24 63.09,-14.76 63.73,-12.14 64.29,-9.31 64.69,-6.36 64.94,-3.4 65.15,-0.51 65.42,2.3 65.77,5.06 66.17,7.78 66.5,10.49 66.69,13.19 66.74,15.87 66.75,18.53 66.86,21.12 67.18,23.64 67.72,26.11 68.38,28.54 68.94,30.96 69.16,33.34 68.9,35.63 68.18,38.02 67.08,41.1" fill="none" stroke="rgb(93, 134, 19)" stroke-width="2" stroke-linejoin="round" filter="url(#fuzzy)" /><polyline points="61.37,-22.18 64.36,-19.68 64.67,-17.16 65.47,-14.63 67.03,-11.95 68.87,-9.08 70.61,-6.11 72.03,-3.13 73.01,-0.21 73.55,2.63 73.81,5.43 74.01,8.2 74.4,10.94 75.14,13.66 76.27,16.35 77.7,19 79.23,21.6 80.64,24.15 81.73,26.66 82.43,29.13 82.8,31.57 83.01,33.99 83.25,36.4 83.67,38.81 84.31,41.24 85.1,43.69 85.9,46.16 86.53,48.65 86.84,51.13 86.69,53.59 86.1,56 85.23,58.33 84.39,60.5 83.8,62.45 83.44,64.14 82.83,65.73 80.2,67.76" fill="none" stroke="rgb(93, 134, 19)" stroke-width="2" stroke-linejoin="round" filter="url(#fuzzy)" /><polyline points="-50.69,-53.52 -54.83,-51.14 -55.63,-48.7 -56.33,-46.22 -57.47,-43.76 -58.93,-41.33 -60.46,-38.93 -61.83,-36.52 -62.94,-34.11 -63.82,-31.66 -64.54,-29.15 -65.17,-26.58 -65.78,-23.95 -66.43,-21.25 -67.19,-18.48 -68.08,-15.67 -69.08,-12.82 -70.1,-9.96 -71.07,-7.11 -71.94,-4.33 -72.7,-1.64 -73.36,0.93 -73.89,3.42 -74.25,5.87 -74.47,8.38 -74.65,11.06 -74.99,13.95 -75.6,16.89 -75.91,19.66" fill="none" stroke="rgb(93, 134, 19)" stroke-width="2" stroke-linejoin="round" filter="url(#fuzzy)" /><polyline points="-52.25,-50.98 -56.89,-47.43 -58.55,-44.33 -59.63,-41.65 -60.31,-39.28 -60.78,-37.04 -61.35,-34.79 -62.27,-32.44 -63.55,-30.02 -65.05,-27.56 -66.56,-25.09 -67.96,-22.57 -69.23,-19.99 -70.4,-17.31 -71.55,-14.54 -72.75,-11.73 -73.96,-8.97 -75.04,-6.31 -75.8,-3.77 -76.2,-1.31 -76.53,1.2 -77.33,3.88 -78.77,6.6" fill="none" stroke="rgb(93, 134, 19)" stroke-width="2" stroke-linejoin="round" filter="url(#fuzzy)" /><polyline points="-52.25,-50.98 -56.64,-47.38 -61.16,-44.25 -64.53,-41.55 -66.8,-39.14 -68.12,-36.84 -68.73,-34.53 -68.94,-32.13 -69.08,-29.67 -69.42,-27.17 -70.11,-24.62 -71.09,-22.02 -72.22,-19.36 -73.34,-16.65 -74.35,-13.89 -75.26,-11.13 -76.19,-8.38 -77.26,-5.67 -78.59,-2.97 -80.23,-0.29 -82.12,2.41 -84.12,5.13 -86.04,7.87 -87.65,10.63 -88.84,13.37 -89.61,16.09 -90.14,18.76 -90.75,21.37 -91.79,23.95 -93.43,26.55 -95.47,29.22 -97.32,31.97 -98.32,34.8 -98.33,37.64 -97.43,40.22" fill="none" stroke="rgb(93, 134, 19)" stroke-width="2" stroke-linejoin="round" filter="url(#fuzzy)" /><polyline points="-52.25,-50.98 -53.81,-47.4 -54.98,-44.28 -55.89,-41.59 -56.66,-39.21 -57.35,-36.94 -58,-34.65 -58.57,-32.28 -59.08,-29.84 -59.51,-27.36 -59.89,-24.84 -60.25,-22.28 -60.59,-19.65 -60.91,-16.95 -61.19,-14.2 -61.39,-11.43 -61.49,-8.68 -61.46,-5.99 -61.31,-3.35 -61.06,-0.73 -60.76,1.92 -60.47,4.62 -60.19,7.37 -59.9,10.13 -59.55,12.92 -59.13,15.85 -58.67,19.08 -58.17,22.47" fill="none" stroke="rgb(93, 134, 19)" stroke-width="2" stroke-linejoin="round" filter="url(#fuzzy)" /><polyline points="-54.07,-47.01 -56.46,-43.94 -58.28,-41.32 -59.45,-39.02 -60.53,-36.83 -61.63,-34.58 -62.59,-32.21 -63.31,-29.76 -63.81,-27.27 -64.21,-24.75 -64.65,-22.19 -65.25,-19.56 -66.07,-16.85 -67.08,-14.1 -68.19,-11.33 -69.28,-8.58 -70.21,-5.9 -70.89,-3.25 -71.31,-0.62 -71.49,2.04 -71.52,4.74 -71.56,7.48 -71.77,10.25 -72.22,13.04 -72.83,15.87 -73.33,18.66 -73.48,20.96 -73.46,21.63" fill="none" stroke="rgb(93, 134, 19)" stroke-width="2" stroke-linejoin="round" filter="url(#fuzzy)" /><polyline points="-54.95,-44.86 -55.96,-43.3 -57.29,-41.07 -58.43,-38.7 -59.3,-36.34 -59.96,-33.96 -60.54,-31.55 -61.12,-29.07 -61.77,-26.52 -62.49,-23.9 -63.24,-21.21 -63.99,-18.46 -64.68,-15.66 -65.26,-12.81 -65.73,-9.95 -66.11,-7.09 -66.47,-4.3 -66.85,-1.62 -67.28,0.91 -67.72,3.31 -68.15,5.64 -68.56,8 -68.95,10.68 -69.13,14.4" fill="none" stroke="rgb(93, 134, 19)" stroke-width="2" stroke-linejoin="round" filter="url(#fuzzy)" /><polyline points="-58.04,-36.16 -58.62,-34.61 -59.48,-32.08 -60.3,-29.4 -60.96,-26.82 -61.46,-24.29 -61.87,-21.73 -62.23,-19.08 -62.57,-16.34 -62.91,-13.54 -63.24,-10.75 -63.52,-8 -63.75,-5.3 -63.9,-2.62 -63.99,0.05 -64,2.74 -63.97,5.46 -63.89,8.19 -63.78,10.94 -63.65,13.67 -63.48,16.37 -63.27,19.03 -63.01,21.66 -62.68,24.27 -62.26,26.89 -61.75,29.54 -61.14,32.24 -60.47,34.94 -59.76,37.57 -59.03,40.07 -58.3,42.34 -57.57,44.35 -56.95,46.05" fill="none" stroke="rgb(93, 134, 19)" stroke-width="2" stroke-linejoin="round" filter="url(#fuzzy)" /><polyline points="-58.04,-36.16 -66.68,-34.6 -73.49,-32.07 -76.24,-29.38 -77.99,-26.79 -79.6,-24.26 -80.85,-21.69 -81.43,-19.02 -81.29,-16.27 -80.63,-13.48 -79.94,-10.68 -79.76,-7.93 -80.5,-5.21 -82.29,-2.53 -84.89,0.16 -87.83,2.86 -90.57,5.58 -92.7,8.32 -94.07,11.07 -94.75,13.8 -94.95,16.5 -94.93,19.17 -94.92,21.81 -95.05,24.45 -95.41,27.08 -96.05,29.73 -96.93,32.4 -98.03,35.04 -99.24,37.63 -100.42,40.14 -101.34,42.55 -101.77,44.91 -101.62,47.29 -101.13,49.7 -100.85,52.07 -100.18,54.5" fill="none" stroke="rgb(93, 134, 19)" stroke-width="2" stroke-linejoin="round" filter="url(#fuzzy)" /><polyline points="-58.18,-35.45 -58.95,-33.51 -59.87,-31.17 -61.15,-28.61 -63.02,-25.98 -65.5,-23.29 -68.51,-20.53 -71.93,-17.72 -75.63,-14.86 -79.42,-11.98 -82.97,-9.12 -85.91,-6.3 -87.88,-3.55 -88.68,-0.88 -88.39,1.73 -87.27,4.31 -85.71,6.89 -84.11,9.52 -82.81,12.2 -82.01,14.93 -81.83,17.68 -82.23,20.43 -83.1,23.15 -84.23,25.83 -85.47,28.46 -86.68,31.04 -87.85,33.63 -88.95,36.25 -89.87,38.89 -90.48,41.45 -90.75,43.72 -90.95,45.69 -91.08,48.27" fill="none" stroke="rgb(93, 134, 19)" stroke-width="2" stroke-linejoin="round" filter="url(#fuzzy)" /><polyline points="-58.87,-33.65 -59.31,-31.26 -59.91,-28.6 -60.51,-25.94 -61.08,-23.25 -61.59,-20.5 -62.07,-17.68 -62.52,-14.82 -62.93,-11.94 -63.3,-9.07 -63.62,-6.25 -63.86,-3.5 -64.01,-0.84 -64.07,1.75 -64.03,4.31 -63.91,6.88 -63.72,9.5 -63.47,12.18 -63.18,14.91 -62.85,17.66 -62.49,20.41 -62.09,23.14 -61.64,25.81 -61.14,28.42 -60.57,30.99 -59.92,33.55 -59.18,36.19 -58.38,38.91 -57.6,41.56 -56.99,43.66 -56.82,44.41" fill="none" stroke="rgb(93, 134, 19)" stroke-width="2" stroke-linejoin="round" filter="url(#fuzzy)" /><polyline points="-59.08,-32.17 -60.62,-29.01 -62.93,-26.49 -65.6,-24.11 -68.62,-21.64 -72.25,-19 -76.69,-16.23 -81.7,-13.4 -86.53,-10.58 -90.32,-7.83 -92.64,-5.14 -93.74,-2.48 -94.34,0.19 -95.13,2.87 -96.45,5.59 -98.2,8.33 -100.01,11.07 -101.46,13.8 -102.31,16.49 -102.51,19.15 -102.27,21.77 -102.01,24.38 -102.25,27 -103.41,29.66 -105.54,32.33 -108.3,35 -111.05,37.61 -113.27,40.1 -114.87,42.44 -116.13,44.71 -117.33,47.2 -116.89,50.68" fill="none" stroke="rgb(93, 134, 19)" stroke-width="2" stroke-linejoin="round" filter="url(#fuzzy)" /><polyline points="-59.08,-32.17 -60.1,-29.04 -61.09,-26.55 -62.02,-24.22 -63.03,-21.8 -64.19,-19.21 -65.43,-16.47 -66.64,-13.66 -67.79,-10.85 -68.93,-8.12 -70.09,-5.48 -71.25,-2.88 -72.33,-0.29 -73.39,2.34 -74.57,5.03 -76.09,7.75 -78.03,10.5 -80.18,13.26 -82.07,16.01 -83.3,18.68 -83.92,21.11 -84.42,23.26 -83.57,26.21" fill="none" stroke="rgb(93, 134, 19)" stroke-width="2" stroke-linejoin="round" filter="url(#fuzzy)" /><polyline points="-60.19,-28.38 -60.83,-26.19 -61.58,-24.01 -62.78,-21.59 -64.95,-18.94 -68.15,-16.13 -71.94,-13.26 -75.73,-10.43 -79.01,-7.66 -81.4,-4.97 -82.72,-2.3 -83.1,0.37 -82.98,3.06 -82.95,5.78 -83.52,8.53 -84.92,11.27 -86.98,14 -89.27,16.7 -91.31,19.36 -92.77,22.01 -93.56,24.64 -93.85,27.27 -93.92,29.91 -93.99,32.56 -94.16,35.18 -94.45,37.76 -94.88,40.26 -95.68,42.69 -97.17,45.08 -99.55,47.46 -102.51,49.87 -105.05,52.29 -106.05,54.72 -105.52,57.08 -105.23,59.09" fill="none" stroke="rgb(93, 134, 19)" stroke-width="2" stroke-linejoin="round" filter="url(#fuzzy)" /><polyline points="-60.19,-28.38 -62.72,-26.19 -62.93,-24.01 -63.34,-21.59 -64.67,-18.94 -67.13,-16.13 -70.51,-13.26 -74.2,-10.43 -77.55,-7.66 -80.02,-4.97 -81.39,-2.3 -81.69,0.37 -81.17,3.06 -80.25,5.78 -79.36,8.53 -78.86,11.27 -78.96,14 -79.68,16.7 -80.9,19.36 -82.46,22.01 -84.11,24.64 -85.67,27.27 -86.94,29.91 -87.86,32.56 -88.46,35.18 -88.9,37.76 -89.42,40.26 -90.16,42.69 -91.12,45.08 -92.07,47.46 -92.65,49.87 -92.55,52.29 -91.69,54.72 -90.43,57.08 -89.85,59.09" fill="none" stroke="rgb(93, 134, 19)" stroke-width="2" stroke-linejoin="round" filter="url(#fuzzy)" /><polyline points="60.91,-25.12 62.8,-22.41 63.54,-19.83 64.44,-17.31 66,-14.76 68.14,-12.08 70.59,-9.25 73.2,-6.32 75.94,-3.37 78.77,-0.47 81.47,2.36 83.67,5.15 85.12,7.9 85.82,10.62 86.05,13.34 86.29,16.02 87.03,18.68 88.53,21.28 90.75,23.82 93.4,26.31 96,28.76 98.11,31.18 99.45,33.57 100.08,35.93 100.23,38.28 100.04,40.65 99.32,43.09 97.91,45.65 96.86,48.28 98.74,50.36" fill="none" stroke="rgb(93, 134, 19)" stroke-width="2" stroke-linejoin="round" filter="url(#fuzzy)" /><polyline points="60.6,-26.43 78.69,-23.21 77.81,-20.78 76.25,-18.4 76.02,-15.8 76.28,-13.06 76.52,-10.31 76.73,-7.64 77.13,-5.03 77.94,-2.45 79.32,0.15 81.28,2.83 83.75,5.59 86.61,8.4 89.74,11.23 93.07,14 96.49,16.69 99.83,19.28 102.87,21.81 105.37,24.35 107.18,26.96 108.3,29.65 109.02,32.35 109.91,34.94 111.81,37.33 115.05,39.65 116.43,42.22" fill="none" stroke="rgb(93, 134, 19)" stroke-width="2" stroke-linejoin="round" filter="url(#fuzzy)" /><polyline points="60.6,-26.43 62.66,-23.21 65.45,-20.78 67.69,-18.41 69.64,-15.82 71.47,-13.08 72.86,-10.34 73.45,-7.66 73.17,-5.06 72.29,-2.49 71.21,0.1 70.27,2.77 69.7,5.53 69.62,8.35 70.08,11.18 71.05,13.96 72.44,16.64 74.02,19.21 75.51,21.72 76.62,24.24 77.17,26.85 77.24,29.58 77.11,32.33 77.11,34.92 77.5,37.2 77.97,39.22" fill="none" stroke="rgb(93, 134, 19)" stroke-width="2" stroke-linejoin="round" filter="url(#fuzzy)" /><polyline points="60.5,-27.01 67.34,-25.45 68.15,-23.17 67.77,-20.84 67.15,-18.4 66.48,-15.8 65.96,-13.1 65.79,-10.38 66.04,-7.7 66.63,-5.08 67.4,-2.48 68.19,0.14 68.89,2.83 69.48,5.59 69.96,8.41 70.36,11.22 70.71,14 71.05,16.69 71.43,19.29 71.87,21.85 72.32,24.41 72.68,27.03 72.84,29.7 72.8,32.37 72.64,34.96 72.44,37.44 72.17,39.86 71.73,42.43 71.2,45.28" fill="none" stroke="rgb(93, 134, 19)" stroke-width="2" stroke-linejoin="round" filter="url(#fuzzy)" /><polyline points="58.41,-34.29 59.7,-32.41 61.4,-30.3 63.12,-27.93 64.5,-25.41 65.38,-22.84 65.73,-20.26 65.69,-17.68 65.48,-15.05 65.31,-12.35 65.31,-9.55 65.53,-6.68 65.93,-3.79 66.45,-0.9 67.06,1.94 67.76,4.74 68.56,7.5 69.46,10.24 70.42,12.96 71.32,15.66 72.04,18.33 72.48,20.95 72.6,23.5 72.46,25.99 72.15,28.45 71.79,30.89 71.47,33.28 71.15,35.6 70.58,38 69.85,41.1" fill="none" stroke="rgb(93, 134, 19)" stroke-width="2" stroke-linejoin="round" filter="url(#fuzzy)" /><polyline points="58.41,-34.29 65.34,-32.42 69.66,-30.32 69.73,-27.96 69.57,-25.46 70.86,-22.89 73.15,-20.33 75.46,-17.76 77.16,-15.15 78.15,-12.47 78.62,-9.68 78.95,-6.82 79.53,-3.92 80.68,-1.04 82.51,1.8 84.81,4.58 87.17,7.33 89.14,10.05 90.49,12.77 91.39,15.48 92.26,18.17 93.52,20.8 95.34,23.32 97.63,25.75 100.42,28.19 103.66,30.95 105.66,34.39" fill="none" stroke="rgb(93, 134, 19)" stroke-width="2" stroke-linejoin="round" filter="url(#fuzzy)" /><polyline points="56.98,-39.1 58.37,-35.22 59.64,-31.79 60.84,-28.77 61.86,-26.06 62.63,-23.52 63.19,-21.04 63.62,-18.52 64.01,-15.92 64.39,-13.26 64.76,-10.58 65.08,-7.92 65.29,-5.28 65.38,-2.65 65.34,0.01 65.21,2.71 65.05,5.47 64.89,8.27 64.76,11.08 64.65,13.86 64.53,16.56 64.35,19.19 64.08,21.77 63.71,24.35 63.26,26.97 62.79,29.64 62.32,32.32 61.87,34.92 61.42,37.41 60.88,39.85 60.04,42.42 58.58,45.28" fill="none" stroke="rgb(93, 134, 19)" stroke-width="2" stroke-linejoin="round" filter="url(#fuzzy)" /><polyline points="56.98,-39.1 58.36,-35.22 59.48,-31.78 60.48,-28.76 61.39,-26.04 62.25,-23.5 63.06,-21.01 63.8,-18.48 64.48,-15.88 65.04,-13.21 65.48,-10.53 65.76,-7.86 65.93,-5.21 66.01,-2.57 66.06,0.09 66.1,2.8 66.18,5.57 66.29,8.37 66.46,11.17 66.65,13.94 66.8,16.64 66.85,19.29 66.72,21.89 66.37,24.49 65.8,27.11 65.06,29.76 64.25,32.4 63.47,35.01 62.76,37.56 62.1,40.06 61.37,42.58 60.49,45.12 59.49,47.54 58.44,49.61" fill="none" stroke="rgb(93, 134, 19)" stroke-width="2" stroke-linejoin="round" filter="url(#fuzzy)" /><polyline points="57.58,-37.47 61.65,-40.7 59.55,-43.37 57.38,-45.88 56.79,-48.17 57.84,-50.29 59.69,-52.36 61.22,-54.45 61.6,-56.57 60.64,-58.68 58.68,-60.75 56.29,-62.75 53.98,-64.66 52.02,-66.5 50.43,-68.29 49.11,-70.04 47.9,-71.75 46.7,-73.42 45.52,-75.05 44.43,-76.61 43.57,-78.09 42.98,-79.47 42.57,-80.74 42.12,-81.93 41.35,-83.04 40.05,-84.07 38.12,-85.03 35.5,-85.94 32.17,-86.87 28.45,-87.8 25.5,-88.59" fill="none" stroke="rgb(93, 134, 19)" stroke-width="2" stroke-linejoin="round" filter="url(#fuzzy)" /><polyline points="57.58,-37.47 56.55,-40.7 55.56,-43.37 54.54,-45.88 53.56,-48.17 52.62,-50.29 51.64,-52.36 50.58,-54.45 49.44,-56.57 48.23,-58.68 46.96,-60.75 45.65,-62.75 44.31,-64.66 42.93,-66.5 41.52,-68.29 40.05,-70.04 38.52,-71.75 36.93,-73.42 35.29,-75.05 33.61,-76.61 31.91,-78.09 30.21,-79.47 28.51,-80.74 26.81,-81.93 25.1,-83.04 23.41,-84.07 21.72,-85.03 19.95,-85.94 17.97,-86.87 15.71,-87.8 13.53,-88.59" fill="none" stroke="rgb(93, 134, 19)" stroke-width="2" stroke-linejoin="round" filter="url(#fuzzy)" /><polyline points="56.69,-39.98 55.87,-42.32 55.15,-44.72 54.71,-47.09 54.37,-49.42 53.88,-51.7 53.17,-53.9 52.34,-56 51.57,-57.98 50.93,-59.89 50.43,-61.77 49.98,-63.64 49.54,-65.52 49.09,-67.4 48.64,-69.26 48.14,-71.08 47.48,-72.83 46.51,-74.48 45.14,-76.04 43.42,-77.51 41.56,-78.92 39.83,-80.26 38.45,-81.5 37.32,-82.57 35.31,-83.56" fill="none" stroke="rgb(93, 134, 19)" stroke-width="2" stroke-linejoin="round" filter="url(#fuzzy)" /><polyline points="56.69,-39.98 56.34,-42.34 57.22,-44.75 59.38,-47.14 61.56,-49.49 62.81,-51.78 63.12,-53.98 62.8,-56.09 62,-58.08 60.77,-60.01 59.25,-61.91 57.76,-63.8 56.64,-65.69 55.99,-67.56 55.67,-69.41 55.31,-71.21 54.55,-72.94 53.16,-74.58 51.19,-76.14 48.85,-77.61 46.44,-78.99 44.19,-80.3 42.17,-81.52 40.28,-82.65 38.36,-83.69 36.26,-84.62 34.04,-85.47 31.98,-86.25 30.37,-86.98 28.54,-87.71" fill="none" stroke="rgb(93, 134, 19)" stroke-width="2" stroke-linejoin="round" filter="url(#fuzzy)" /><polyline points="56.15,-41.93 55.65,-43.5 54.92,-46 54.39,-48.29 54.04,-50.33 53.75,-52.32 53.44,-54.36 53.08,-56.48 52.7,-58.61 52.29,-60.68 51.79,-62.67 51.19,-64.57 50.54,-66.39 49.9,-68.15 49.31,-69.87 48.73,-71.58 48.12,-73.26 47.41,-74.93 46.63,-76.55 45.81,-78.07 44.88,-79.42 43.59,-80.61 41.75,-81.79 39.57,-83.18" fill="none" stroke="rgb(93, 134, 19)" stroke-width="2" stroke-linejoin="round" filter="url(#fuzzy)" /><polyline points="55.86,-42.35 55.02,-44.81 54.34,-47.21 54.01,-49.54 53.93,-51.82 53.99,-54.03 54.13,-56.12 54.26,-58.09 54.19,-59.98 53.76,-61.85 52.89,-63.72 51.69,-65.6 50.39,-67.48 49.19,-69.34 48.19,-71.15 47.31,-72.89 46.4,-74.53 45.27,-76.09 43.87,-77.55 42.24,-78.95 40.56,-80.28 38.92,-81.52 37.17,-82.67 34.81,-83.8 31.37,-85.12" fill="none" stroke="rgb(93, 134, 19)" stroke-width="2" stroke-linejoin="round" filter="url(#fuzzy)" /><polyline points="56.24,-41.98 58.27,-46.08 62.16,-48.58 63.77,-50.57 63.01,-52.53 60.69,-54.6 57.73,-56.75 54.85,-58.89 52.44,-60.97 50.58,-62.97 49.14,-64.88 47.94,-66.71 46.87,-68.5 45.89,-70.24 44.96,-71.94 44.09,-73.6 43.27,-75.21 42.48,-76.74 41.67,-78.19 40.78,-79.55 39.73,-80.82 38.42,-82 36.82,-83.09 34.91,-84.12 32.73,-85.08 30.34,-85.96 27.79,-86.78 25.13,-87.51 22.42,-88.14 19.71,-88.66 17.03,-89.1 14.3,-89.49 11.34,-89.86 8.19,-90.18 5.75,-90.33" fill="none" stroke="rgb(93, 134, 19)" stroke-width="2" stroke-linejoin="round" filter="url(#fuzzy)" /><polyline points="52.67,-50.17 54.58,-52.11 54.66,-54.42 54.09,-56.56 53.2,-58.48 52.35,-60.3 51.7,-62.13 51.2,-64 50.68,-65.89 49.94,-67.78 48.85,-69.62 47.41,-71.41 45.71,-73.13 43.86,-74.75 41.98,-76.28 40.09,-77.73 38.18,-79.1 36.28,-80.39 34.4,-81.59 32.61,-82.7 30.91,-83.72 29.22,-84.65 27.43,-85.49 25.46,-86.27 23.27,-87 20.77,-87.7 17.7,-88.36" fill="none" stroke="rgb(93, 134, 19)" stroke-width="2" stroke-linejoin="round" filter="url(#fuzzy)" /><polyline points="52.65,-50.14 51.68,-52.3 50.89,-54.5 50.43,-56.8 50.28,-59.05 50.44,-61.16 51.04,-63.12 52.21,-64.97 53.75,-66.76 55.08,-68.5 55.51,-70.21 54.56,-71.9 52.27,-73.57 49.18,-75.19 46.05,-76.75 43.52,-78.21 41.86,-79.56 40.93,-80.82 40.39,-81.99 39.83,-83.09 38.94,-84.1 37.54,-85.02 35.47,-85.91 32.41,-86.87 27.72,-87.99" fill="none" stroke="rgb(93, 134, 19)" stroke-width="2" stroke-linejoin="round" filter="url(#fuzzy)" /><polyline points="52.65,-50.14 52.2,-52.31 51.69,-54.52 50.54,-56.83 49.08,-59.09 47.64,-61.2 46.32,-63.16 45.11,-65.02 43.95,-66.82 42.83,-68.57 41.75,-70.29 40.71,-71.98 39.64,-73.64 38.48,-75.26 37.15,-76.8 35.65,-78.25 34.01,-79.6 32.3,-80.86 30.57,-82.03 28.83,-83.12 27.05,-84.13 25.18,-85.09 23.2,-85.99 21.11,-86.85 18.96,-87.64 16.94,-88.29 15.26,-88.72 13.94,-88.98" fill="none" stroke="rgb(93, 134, 19)" stroke-width="2" stroke-linejoin="round" filter="url(#fuzzy)" /><polyline points="51.87,-51.68 50.52,-54.51 49.48,-56.8 48.49,-58.68 47.37,-60.47 46.13,-62.31 44.79,-64.21 43.4,-66.12 41.94,-68.01 40.43,-69.86 38.85,-71.64 37.21,-73.35 35.53,-74.96 33.8,-76.48 32.06,-77.91 30.3,-79.25 28.55,-80.51 26.81,-81.68 25.08,-82.77 23.35,-83.77 21.61,-84.69 19.85,-85.54 18.04,-86.32 16.17,-87.05 14.25,-87.71 12.28,-88.3 10.26,-88.83 8.23,-89.28 6.19,-89.65 4.18,-89.92 2.2,-90.11 0.26,-90.21 -1.65,-90.23 -3.6,-90.17 -5.65,-90.02 -7.88,-89.77 -10.22,-89.42 -12.32,-88.94" fill="none" stroke="rgb(93, 134, 19)" stroke-width="2" stroke-linejoin="round" filter="url(#fuzzy)" /><polyline points="51.37,-52.52 50.68,-54.54 50.47,-56.91 50.45,-59.23 49.97,-61.34 48.84,-63.29 47.34,-65.13 45.8,-66.92 44.48,-68.66 43.46,-70.38 42.7,-72.07 42.05,-73.73 41.35,-75.34 40.44,-76.87 39.18,-78.31 37.55,-79.66 35.61,-80.9 33.54,-82.07 31.53,-83.15 29.7,-84.17 28.02,-85.12 26.34,-86.01 24.52,-86.83 22.53,-87.58 20.48,-88.21 18.48,-88.7 16.44,-89.1 14.18,-89.47 11.89,-89.9" fill="none" stroke="rgb(93, 134, 19)" stroke-width="2" stroke-linejoin="round" filter="url(#fuzzy)" /><polyline points="50.62,-54.33 49.92,-56.93 49.57,-59.41 48.59,-61.54 47.07,-63.46 45.39,-65.29 43.78,-67.07 42.3,-68.82 40.92,-70.54 39.59,-72.24 38.24,-73.89 36.86,-75.49 35.43,-77.01 33.93,-78.43 32.38,-79.76 30.77,-81 29.06,-82.16 27.23,-83.23 25.28,-84.23 23.23,-85.16 21.12,-86.02 19.01,-86.8 16.94,-87.49 14.94,-88.1 12.99,-88.62 11.06,-89.06 9.07,-89.43 6.97,-89.73 4.71,-89.96 2.28,-90.11 -0.29,-90.18 -2.88,-90.17 -5.33,-90.11 -7.41,-90.01 -9.13,-89.87 -11.53,-89.53" fill="none" stroke="rgb(93, 134, 19)" stroke-width="2" stroke-linejoin="round" filter="url(#fuzzy)" /><polyline points="46.78,-60.97 47.35,-62.06 49.2,-63.67 49.54,-65.41 48.39,-67.17 47.07,-68.91 46.32,-70.62 45.99,-72.31 45.47,-73.97 44.33,-75.57 42.53,-77.09 40.34,-78.51 38.13,-79.84 36.11,-81.06 34.33,-82.21 32.68,-83.27 31.04,-84.27 29.31,-85.2 27.49,-86.05 25.59,-86.83 23.61,-87.53 21.53,-88.14 19.25,-88.65 16.72,-89.09 13.88,-89.47 10.75,-89.78 7.32,-90.02 3.56,-90.18 -0.62,-90.24 -5.25,-90.21 -10.15,-90.1 -15.31,-89.89" fill="none" stroke="rgb(93, 134, 19)" stroke-width="2" stroke-linejoin="round" filter="url(#fuzzy)" /><polyline points="46.39,-61.45 50.27,-63.57 50.41,-65.42 50.81,-67.2 51.56,-68.93 52.37,-70.63 53.09,-72.31 53.38,-73.97 52.9,-75.58 51.51,-77.1 49.38,-78.53 46.84,-79.84 44.22,-81.06 41.69,-82.2 39.24,-83.26 36.82,-84.26 34.32,-85.19 31.71,-86.06 29.02,-86.86 26.34,-87.58 23.74,-88.19 21.2,-88.7 18.55,-89.12 15.62,-89.51 12.36,-89.87 9.02,-90.18 6.35,-90.33" fill="none" stroke="rgb(93, 134, 19)" stroke-width="2" stroke-linejoin="round" filter="url(#fuzzy)" /><polyline points="46.46,-61.4 45.31,-64.51 46.68,-66.53 47.83,-68.36 47.39,-70.2 45.53,-71.99 43.02,-73.69 40.52,-75.28 38.35,-76.77 36.53,-78.17 34.98,-79.49 33.58,-80.72 32.24,-81.87 30.89,-82.94 29.47,-83.92 27.9,-84.82 26.1,-85.65 24.04,-86.41 21.73,-87.12 19.21,-87.76 16.54,-88.35 13.77,-88.86 10.96,-89.29 8.14,-89.64 5.33,-89.9 2.52,-90.08 -0.3,-90.16 -3.21,-90.17 -6.28,-90.09 -9.57,-89.92 -13.08,-89.66 -16.71,-89.29 -20.29,-88.82 -23.97,-88.21 -29.23,-87.41" fill="none" stroke="rgb(93, 134, 19)" stroke-width="2" stroke-linejoin="round" filter="url(#fuzzy)" /><polyline points="41.71,-68.09 43.88,-69.35 41.96,-70.9 39.8,-72.57 38.19,-74.26 36.9,-75.89 35.57,-77.42 34,-78.82 32.22,-80.11 30.36,-81.31 28.53,-82.42 26.76,-83.46 25.01,-84.43 23.22,-85.34 21.34,-86.16 19.37,-86.91 17.34,-87.58 15.27,-88.16 13.18,-88.65 11.05,-89.07 8.86,-89.41 6.56,-89.69 4.13,-89.88 1.59,-90.01 -1.02,-90.06 -3.66,-90.04 -6.26,-89.93 -8.84,-89.75 -11.43,-89.47 -14.14,-89.08 -17.09,-88.57 -20.31,-87.94 -23.7,-87.21 -27.04,-86.44 -30.06,-85.63 -32.89,-84.63" fill="none" stroke="rgb(93, 134, 19)" stroke-width="2" stroke-linejoin="round" filter="url(#fuzzy)" /><polyline points="40.77,-69.27 39.59,-70.83 38.68,-72.59 37.82,-74.32 36.57,-75.98 34.93,-77.51 33.13,-78.91 31.36,-80.19 29.66,-81.37 28,-82.48 26.34,-83.52 24.62,-84.48 22.81,-85.38 20.9,-86.2 18.91,-86.94 16.86,-87.6 14.78,-88.17 12.68,-88.66 10.56,-89.07 8.39,-89.41 6.17,-89.67 3.89,-89.86 1.56,-89.97 -0.82,-90.01 -3.2,-89.97 -5.57,-89.85 -7.92,-89.65 -10.3,-89.35 -12.74,-88.94 -15.31,-88.42 -18.02,-87.81 -20.84,-87.12 -23.68,-86.39 -26.41,-85.64 -28.9,-84.91 -31.14,-84.17 -33.37,-83.3 -36.52,-81.84" fill="none" stroke="rgb(93, 134, 19)" stroke-width="2" stroke-linejoin="round" filter="url(#fuzzy)" /><polyline points="40.77,-69.27 39.41,-70.82 37.93,-72.57 36.6,-74.3 35.45,-75.95 34.53,-77.48 33.69,-78.88 32.68,-80.16 31.32,-81.34 29.58,-82.44 27.59,-83.48 25.51,-84.45 23.43,-85.35 21.4,-86.18 19.41,-86.94 17.42,-87.6 15.39,-88.19 13.3,-88.68 11.16,-89.1 8.94,-89.45 6.65,-89.73 4.27,-89.93 1.8,-90.07 -0.73,-90.12 -3.27,-90.11 -5.76,-90.03 -8.15,-89.88 -10.52,-89.64 -13.06,-89.29 -16.08,-88.78 -19.75,-88.09 -23.6,-87.22" fill="none" stroke="rgb(93, 134, 19)" stroke-width="2" stroke-linejoin="round" filter="url(#fuzzy)" /><polyline points="36.87,-73.37 35.9,-74.49 34.45,-76.13 33.06,-77.68 31.77,-79.05 30.42,-80.29 28.92,-81.44 27.25,-82.52 25.47,-83.55 23.61,-84.51 21.71,-85.41 19.81,-86.24 17.96,-86.99 16.16,-87.66 14.4,-88.23 12.63,-88.72 10.79,-89.13 8.82,-89.48 6.71,-89.76 4.44,-89.98 2.03,-90.11 -0.47,-90.17 -2.97,-90.16 -5.33,-90.09 -7.44,-89.97 -9.3,-89.79 -11.14,-89.51 -13.01,-89.1" fill="none" stroke="rgb(93, 134, 19)" stroke-width="2" stroke-linejoin="round" filter="url(#fuzzy)" /><polyline points="36.25,-74.18 34.72,-75.78 33.67,-77.16 32.65,-78.53 31.23,-79.86 29.4,-81.09 27.38,-82.21 25.4,-83.24 23.56,-84.18 21.85,-85.04 20.23,-85.84 18.64,-86.57 17.01,-87.26 15.29,-87.88 13.43,-88.44 11.41,-88.92 9.24,-89.33 6.94,-89.65 4.52,-89.88 2.03,-90.03 -0.54,-90.09 -3.2,-90.06 -5.96,-89.95 -8.84,-89.74 -11.83,-89.45 -14.9,-89.07 -18.02,-88.6 -21.19,-88.05 -24.4,-87.44 -27.61,-86.79 -30.73,-86.1 -33.62,-85.36 -36.23,-84.59 -38.45,-84.03" fill="none" stroke="rgb(93, 134, 19)" stroke-width="2" stroke-linejoin="round" filter="url(#fuzzy)" /><polyline points="36.36,-73.86 34.64,-76.12 32.77,-77.84 31.31,-79.2 30.2,-80.4 29.31,-81.54 28.5,-82.62 27.6,-83.65 26.45,-84.6 25.01,-85.49 23.32,-86.3 21.49,-87.04 19.58,-87.69 17.61,-88.25 15.52,-88.72 13.26,-89.12 10.76,-89.45 8.02,-89.7 5.07,-89.89 1.98,-90 -1.17,-90.03 -4.35,-89.99 -7.55,-89.87 -10.87,-89.66 -14.41,-89.35 -18.3,-88.94 -22.55,-88.42 -27.06,-87.81 -31.57,-87.12 -35.82,-86.38 -39.72,-85.64 -43.43,-84.9 -47.3,-84.16 -51.72,-83.3 -58.03,-81.84" fill="none" stroke="rgb(93, 134, 19)" stroke-width="2" stroke-linejoin="round" filter="url(#fuzzy)" /><polyline points="33.81,-76.48 32.71,-78.12 31.52,-79.33 30.53,-80.44 29.57,-81.54 28.37,-82.62 26.75,-83.64 24.74,-84.59 22.49,-85.48 20.2,-86.3 18,-87.05 15.95,-87.71 14.07,-88.28 12.28,-88.76 10.51,-89.16 8.66,-89.51 6.67,-89.79 4.46,-90.01 2.01,-90.14 -0.66,-90.2 -3.4,-90.18 -5.98,-90.11 -8.15,-90.01 -9.96,-89.87 -12.61,-89.53" fill="none" stroke="rgb(93, 134, 19)" stroke-width="2" stroke-linejoin="round" filter="url(#fuzzy)" /><polyline points="33.13,-76.72 31.4,-78.54 29.76,-80.01 28.19,-81.26 26.71,-82.37 25.23,-83.37 23.7,-84.29 22.08,-85.14 20.41,-85.92 18.69,-86.65 16.9,-87.33 15.03,-87.94 13.06,-88.49 10.97,-88.96 8.79,-89.35 6.55,-89.65 4.27,-89.87 1.97,-89.99 -0.34,-90.03 -2.66,-89.99 -5.03,-89.85 -7.45,-89.63 -9.96,-89.31 -12.56,-88.92 -15.25,-88.44 -18.02,-87.89 -20.84,-87.28 -23.67,-86.61 -26.49,-85.9 -29.29,-85.13 -32.07,-84.31 -34.85,-83.44 -37.7,-82.49 -40.78,-81.42 -44.39,-80.12 -48.89,-78.49 -54.12,-76.77" fill="none" stroke="rgb(93, 134, 19)" stroke-width="2" stroke-linejoin="round" filter="url(#fuzzy)" /><polyline points="30.13,-79.64 30.38,-80.51 29.39,-81.65 27.48,-82.78 25.44,-83.82 23.56,-84.77 21.82,-85.64 20.09,-86.44 18.27,-87.17 16.35,-87.8 14.34,-88.34 12.25,-88.8 10.09,-89.18 7.89,-89.48 5.62,-89.72 3.31,-89.89 0.96,-89.98 -1.43,-89.99 -3.84,-89.92 -6.27,-89.77 -8.73,-89.52 -11.23,-89.19 -13.77,-88.75 -16.34,-88.23 -18.91,-87.62 -21.44,-86.94 -23.91,-86.2 -26.32,-85.42 -28.71,-84.59 -31.13,-83.68 -33.64,-82.69 -36.26,-81.6 -38.99,-80.42 -41.84,-79.17 -44.86,-77.86 -48.13,-76.46 -51.53,-75 -54.84,-73.55" fill="none" stroke="rgb(93, 134, 19)" stroke-width="2" stroke-linejoin="round" filter="url(#fuzzy)" /><polyline points="24.68,-83.18 23.31,-84.17 22.16,-84.95 20.87,-85.76 19.56,-86.56 18.19,-87.3 16.65,-87.93 14.88,-88.46 12.95,-88.89 10.87,-89.25 8.65,-89.56 6.27,-89.79 3.71,-89.96 0.98,-90.05 -1.89,-90.06 -4.85,-90 -7.89,-89.86 -11.04,-89.63 -14.34,-89.3 -17.85,-88.87 -21.55,-88.34 -25.39,-87.72 -29.24,-87.04 -32.97,-86.31 -36.53,-85.55 -39.98,-84.77 -43.51,-83.93 -47.38,-82.97 -51.84,-81.8 -57.17,-80.42 -64.32,-78.9" fill="none" stroke="rgb(93, 134, 19)" stroke-width="2" stroke-linejoin="round" filter="url(#fuzzy)" /><polyline points="23.77,-83.56 21.94,-84.64 20.44,-85.4 18.92,-86.12 17.25,-86.82 15.41,-87.48 13.44,-88.1 11.41,-88.64 9.37,-89.11 7.33,-89.49 5.32,-89.78 3.35,-89.98 1.42,-90.09 -0.5,-90.12 -2.42,-90.06 -4.38,-89.92 -6.38,-89.69 -8.42,-89.38 -10.48,-88.97 -12.55,-88.49 -14.59,-87.94 -16.59,-87.32 -18.5,-86.66 -20.34,-85.95 -22.11,-85.19 -23.83,-84.38 -25.52,-83.54 -27.19,-82.69 -28.82,-81.89 -30.59,-81.05" fill="none" stroke="rgb(93, 134, 19)" stroke-width="2" stroke-linejoin="round" filter="url(#fuzzy)" /><polyline points="23.77,-83.56 21.97,-84.64 20.51,-85.4 19.01,-86.12 17.33,-86.82 15.49,-87.48 13.53,-88.1 11.52,-88.64 9.48,-89.11 7.45,-89.49 5.42,-89.78 3.39,-89.98 1.34,-90.09 -0.75,-90.12 -2.91,-90.06 -5.14,-89.92 -7.45,-89.69 -9.82,-89.38 -12.23,-88.97 -14.68,-88.49 -17.15,-87.94 -19.66,-87.32 -22.19,-86.66 -24.74,-85.95 -27.27,-85.19 -29.72,-84.38 -32.06,-83.54 -34.37,-82.69 -36.85,-81.89 -39.33,-81.05" fill="none" stroke="rgb(93, 134, 19)" stroke-width="2" stroke-linejoin="round" filter="url(#fuzzy)" /><polyline points="22.47,-84.59 23.01,-85 22.42,-85.77 20.47,-86.61 18.29,-87.37 16.3,-88 14.42,-88.51 12.46,-88.93 10.34,-89.28 8.09,-89.58 5.72,-89.8 3.28,-89.96 0.79,-90.04 -1.73,-90.04 -4.27,-89.96 -6.81,-89.8 -9.38,-89.55 -12.05,-89.21 -14.87,-88.77 -17.93,-88.23 -21.23,-87.61 -24.75,-86.92 -28.41,-86.19 -32.1,-85.4 -35.73,-84.57 -39.28,-83.66 -42.77,-82.67 -46.31,-81.58 -49.94,-80.4 -53.65,-79.15 -57.26,-77.84 -60.68,-76.45 -64.09,-75 -67.92,-73.55" fill="none" stroke="rgb(93, 134, 19)" stroke-width="2" stroke-linejoin="round" filter="url(#fuzzy)" /><polyline points="22.47,-84.59 20.64,-85 18.91,-85.77 17.12,-86.62 15.28,-87.37 13.46,-88 11.69,-88.51 9.95,-88.93 8.2,-89.28 6.41,-89.57 4.59,-89.8 2.74,-89.95 0.92,-90.02 -0.83,-90.02 -2.48,-89.94 -4,-89.77 -5.4,-89.51 -6.71,-89.15 -7.98,-88.7 -9.24,-88.16 -10.51,-87.54 -11.78,-86.85 -13.01,-86.11 -14.17,-85.31 -15.21,-84.45 -16.13,-83.53 -16.91,-82.52 -17.61,-81.42 -18.25,-80.24 -18.9,-78.98 -19.58,-77.64 -20.27,-76.23 -20.93,-74.71 -21.53,-73.07 -22.02,-71.27 -22.22,-69.43 -21.64,-68.28" fill="none" stroke="rgb(93, 134, 19)" stroke-width="2" stroke-linejoin="round" filter="url(#fuzzy)" /><polyline points="21.38,-85.12 20.3,-85.5 19.14,-86.16 17.98,-86.86 16.5,-87.53 14.66,-88.15 12.56,-88.69 10.33,-89.15 8.08,-89.52 5.83,-89.8 3.62,-89.98 1.44,-90.08 -0.72,-90.09 -2.87,-90.01 -5.05,-89.85 -7.31,-89.6 -9.65,-89.27 -12.09,-88.85 -14.62,-88.35 -17.21,-87.79 -19.83,-87.16 -22.43,-86.48 -25,-85.75 -27.52,-84.96 -30.01,-84.1 -32.48,-83.17 -34.95,-82.12 -37.47,-80.95 -40.08,-79.61 -42.86,-78.12 -45.81,-76.52 -48.91,-74.93 -52.09,-73.45 -55.34,-72.1 -58.19,-70.68" fill="none" stroke="rgb(93, 134, 19)" stroke-width="2" stroke-linejoin="round" filter="url(#fuzzy)" /><polyline points="21.38,-85.12 22.67,-85.5 20.94,-86.16 18.84,-86.86 16.68,-87.54 14.47,-88.15 12.21,-88.69 9.97,-89.15 7.74,-89.52 5.53,-89.79 3.32,-89.98 1.09,-90.07 -1.16,-90.08 -3.43,-90 -5.72,-89.83 -8.03,-89.58 -10.35,-89.24 -12.7,-88.82 -15.07,-88.32 -17.44,-87.75 -19.79,-87.12 -22.1,-86.44 -24.36,-85.69 -26.61,-84.89 -28.9,-84.02 -31.33,-83.06 -33.95,-81.99 -36.8,-80.8 -39.84,-79.46 -42.99,-78.01 -46.11,-76.47 -49.04,-74.91 -51.75,-73.39 -54.36,-71.92 -57.1,-70.44 -60,-68.91 -62.73,-67.43" fill="none" stroke="rgb(93, 134, 19)" stroke-width="2" stroke-linejoin="round" filter="url(#fuzzy)" /><polyline points="17.3,-86.91 15.13,-87.64 13.05,-88.28 11.06,-88.83 9.06,-89.28 7.03,-89.64 5,-89.9 2.97,-90.08 0.92,-90.16 -1.19,-90.16 -3.4,-90.08 -5.73,-89.91 -8.22,-89.66 -10.89,-89.32 -13.8,-88.89 -17,-88.39 -20.53,-87.82 -24.35,-87.2 -28.38,-86.52 -32.48,-85.79 -36.53,-85.01 -40.41,-84.18 -44.1,-83.27 -47.74,-82.27 -51.67,-81.13 -56.3,-79.79 -61.87,-78.24 -68,-76.52 -73.78,-74.78 -78.41,-73.31" fill="none" stroke="rgb(93, 134, 19)" stroke-width="2" stroke-linejoin="round" filter="url(#fuzzy)" /><polyline points="14.97,-87.99 14.42,-88.42 13.57,-88.74 12.26,-89.05 10.55,-89.38 8.6,-89.67 6.45,-89.91 4.06,-90.07 1.45,-90.14 -1.33,-90.14 -4.17,-90.06 -7.04,-89.91 -9.96,-89.68 -13.02,-89.35 -16.31,-88.91 -19.84,-88.37 -23.57,-87.73 -27.4,-87.04 -31.32,-86.3 -35.38,-85.56 -39.73,-84.81 -44.4,-84.02 -49.33,-83.1 -54.82,-81.92 -62.12,-80.57" fill="none" stroke="rgb(93, 134, 19)" stroke-width="2" stroke-linejoin="round" filter="url(#fuzzy)" /><polyline points="14.97,-87.99 13.49,-88.42 12.15,-88.74 10.66,-89.06 8.96,-89.38 7.08,-89.68 5.04,-89.91 2.87,-90.06 0.6,-90.13 -1.72,-90.11 -4.05,-90.03 -6.38,-89.86 -8.74,-89.61 -11.17,-89.26 -13.71,-88.81 -16.38,-88.26 -19.15,-87.62 -21.96,-86.93 -24.78,-86.19 -27.56,-85.41 -30.29,-84.59 -32.93,-83.7 -35.46,-82.71 -37.9,-81.62 -40.3,-80.44 -42.75,-79.2 -45.48,-77.91 -48.8,-76.5 -52.44,-75.08" fill="none" stroke="rgb(93, 134, 19)" stroke-width="2" stroke-linejoin="round" filter="url(#fuzzy)" /><polyline points="14.97,-87.99 13.48,-88.42 12.11,-88.75 10.61,-89.07 8.9,-89.39 7,-89.68 4.94,-89.9 2.76,-90.05 0.53,-90.11 -1.7,-90.09 -3.91,-89.98 -6.12,-89.8 -8.35,-89.53 -10.67,-89.15 -13.1,-88.68 -15.67,-88.12 -18.4,-87.49 -21.28,-86.78 -24.33,-86.02 -27.56,-85.21 -30.95,-84.34 -34.45,-83.39 -38.02,-82.37 -41.63,-81.26 -45.27,-80.06 -48.99,-78.79 -52.88,-77.43 -57.02,-75.98 -61.45,-74.45 -66.04,-72.81 -70.56,-71.08 -74.74,-69.29 -78.51,-67.46 -82.16,-65.59 -86.24,-63.57 -91.07,-61.1" fill="none" stroke="rgb(93, 134, 19)" stroke-width="2" stroke-linejoin="round" filter="url(#fuzzy)" /><polyline points="15.15,-87.71 12.95,-88.34 11.15,-88.89 9.3,-89.33 7.3,-89.69 5.21,-89.95 3.07,-90.11 0.9,-90.19 -1.35,-90.19 -3.75,-90.1 -6.37,-89.94 -9.25,-89.68 -12.38,-89.34 -15.68,-88.91 -19.02,-88.41 -22.31,-87.84 -25.48,-87.22 -28.56,-86.54 -31.64,-85.82 -34.82,-85.04 -38.2,-84.22 -41.88,-83.33 -46.05,-82.36 -50.96,-81.24 -56.82,-79.92 -63.44,-78.33 -69.85,-76.51 -74.91,-74.53" fill="none" stroke="rgb(93, 134, 19)" stroke-width="2" stroke-linejoin="round" filter="url(#fuzzy)" /><polyline points="13.15,-88.59 12.57,-88.78 11.79,-89.07 10.56,-89.4 8.81,-89.7 6.56,-89.94 4.01,-90.09 1.38,-90.15 -1.18,-90.13 -3.59,-90.04 -5.91,-89.87 -8.31,-89.61 -10.96,-89.25 -14,-88.79 -17.48,-88.23 -21.35,-87.6 -25.47,-86.9 -29.67,-86.16 -33.79,-85.37 -37.69,-84.54 -41.29,-83.64 -44.54,-82.65 -47.51,-81.55 -50.41,-80.37 -53.56,-79.13 -57.26,-77.82 -61.6,-76.44 -66.49,-74.99 -72.74,-73.55" fill="none" stroke="rgb(93, 134, 19)" stroke-width="2" stroke-linejoin="round" filter="url(#fuzzy)" /><polyline points="12.37,-88.36 10.66,-88.96 8.75,-89.39 6.71,-89.74 4.71,-89.99 2.78,-90.14 0.91,-90.2 -0.94,-90.19 -2.8,-90.09 -4.69,-89.91 -6.61,-89.64 -8.54,-89.28 -10.46,-88.83 -12.35,-88.31 -14.18,-87.73 -15.96,-87.09 -17.68,-86.4 -19.36,-85.65 -21,-84.84 -22.64,-83.96 -24.3,-82.99 -26.02,-81.91 -27.79,-80.71 -29.62,-79.37 -31.47,-77.92 -33.27,-76.39 -34.96,-74.84 -36.51,-73.32 -37.93,-71.84 -39.27,-70.34 -40.61,-68.79 -41.92,-67.15 -43.17,-65.32" fill="none" stroke="rgb(93, 134, 19)" stroke-width="2" stroke-linejoin="round" filter="url(#fuzzy)" /><polyline points="12.19,-88.73 10.8,-89.04 9.02,-89.41 7.05,-89.74 4.94,-89.98 2.71,-90.12 0.45,-90.17 -1.75,-90.13 -3.83,-90.03 -5.8,-89.84 -7.73,-89.56 -9.69,-89.18 -11.75,-88.7 -13.91,-88.13 -16.14,-87.49 -18.39,-86.78 -20.64,-86.02 -22.89,-85.2 -25.16,-84.33 -27.47,-83.38 -29.83,-82.36 -32.22,-81.25 -34.59,-80.05 -36.87,-78.77 -39.04,-77.41 -41.12,-75.97 -43.17,-74.43 -45.29,-72.79 -47.52,-71.07 -49.85,-69.27 -52.16,-67.45 -54.34,-65.58 -56.55,-63.57 -59.58,-61.1" fill="none" stroke="rgb(93, 134, 19)" stroke-width="2" stroke-linejoin="round" filter="url(#fuzzy)" /><polyline points="12.19,-88.73 10.9,-89.04 9.71,-89.4 8.08,-89.73 5.91,-89.98 3.37,-90.12 0.63,-90.17 -2.17,-90.14 -4.92,-90.04 -7.62,-89.86 -10.31,-89.6 -13.07,-89.23 -15.95,-88.76 -18.91,-88.2 -21.9,-87.55 -24.89,-86.85 -27.9,-86.1 -31,-85.3 -34.25,-84.46 -37.67,-83.54 -41.24,-82.53 -44.95,-81.43 -48.82,-80.25 -52.89,-78.99 -57.21,-77.67 -61.87,-76.28 -67.13,-74.79 -73.44,-73.16 -81.21,-71.21 -90.32,-68.41" fill="none" stroke="rgb(93, 134, 19)" stroke-width="2" stroke-linejoin="round" filter="url(#fuzzy)" /><polyline points="12.19,-88.73 10.73,-89.04 9.05,-89.41 7.16,-89.74 5.08,-89.98 2.87,-90.12 0.61,-90.16 -1.59,-90.13 -3.7,-90.02 -5.73,-89.83 -7.73,-89.55 -9.78,-89.17 -11.9,-88.69 -14.12,-88.12 -16.44,-87.47 -18.85,-86.76 -21.33,-86 -23.88,-85.18 -26.5,-84.3 -29.18,-83.35 -31.88,-82.32 -34.58,-81.21 -37.27,-80 -39.96,-78.72 -42.69,-77.36 -45.51,-75.9 -48.41,-74.36 -51.34,-72.72 -54.25,-71 -57.13,-69.21 -60.09,-67.37 -63.25,-65.48 -66.57,-63.5 -69.68,-61.44 -71.33,-59.58" fill="none" stroke="rgb(93, 134, 19)" stroke-width="2" stroke-linejoin="round" filter="url(#fuzzy)" /><polyline points="10.57,-89.21 8.8,-89.45 6.66,-89.8 4.59,-90.04 2.61,-90.18 0.67,-90.23 -1.26,-90.21 -3.21,-90.1 -5.22,-89.91 -7.27,-89.63 -9.34,-89.26 -11.39,-88.81 -13.41,-88.28 -15.38,-87.69 -17.35,-87.04 -19.34,-86.34 -21.41,-85.58 -23.6,-84.75 -25.92,-83.85 -28.38,-82.86 -30.96,-81.76 -33.64,-80.54 -36.37,-79.2 -39.09,-77.77 -41.75,-76.27 -44.28,-74.73 -46.63,-73.2 -48.81,-71.66 -50.88,-70.09 -52.94,-68.47 -55.13,-66.74 -57.53,-64.91 -60.02,-63.02 -62.26,-61.14 -64.08,-59.24" fill="none" stroke="rgb(93, 134, 19)" stroke-width="2" stroke-linejoin="round" filter="url(#fuzzy)" /><polyline points="8.38,-89.43 6.76,-89.83 4.78,-90.09 2.6,-90.21 0.24,-90.23 -2.18,-90.18 -4.51,-90.06 -6.74,-89.87 -8.98,-89.59 -11.36,-89.2 -14,-88.71 -16.88,-88.12 -19.92,-87.46 -23,-86.74 -26.05,-85.97 -29.04,-85.15 -32,-84.27 -34.98,-83.31 -38,-82.28 -41.02,-81.15 -43.96,-79.95 -46.74,-78.66 -49.26,-77.29 -51.52,-75.83 -53.58,-74.28 -55.6,-72.64 -57.77,-70.92 -60.29,-69.13 -63.29,-67.29 -66.86,-65.4 -70.98,-63.46 -75.4,-61.51 -79.46,-59.69 -82.46,-58.18" fill="none" stroke="rgb(93, 134, 19)" stroke-width="2" stroke-linejoin="round" filter="url(#fuzzy)" /><polyline points="1.67,-90.34 0.48,-90.35 -1.22,-90.32 -3.17,-90.21 -5.37,-90.01 -7.77,-89.71 -10.19,-89.31 -12.49,-88.82 -14.62,-88.27 -16.64,-87.65 -18.63,-86.98 -20.68,-86.26 -22.82,-85.48 -25.04,-84.63 -27.31,-83.7 -29.61,-82.68 -31.96,-81.55 -34.43,-80.3 -37.13,-78.95 -40.14,-77.51 -43.49,-76.01 -47.11,-74.48 -50.82,-72.92 -54.42,-71.33 -57.75,-69.71 -60.8,-68.03 -63.71,-66.27 -66.73,-64.42 -70.08,-62.5 -73.83,-60.49 -77.83,-58.4 -81.75,-56.26 -85.32,-54.06 -88.55,-51.83 -91.87,-49.49 -95.94,-46.85 -101.38,-43.7" fill="none" stroke="rgb(93, 134, 19)" stroke-width="2" stroke-linejoin="round" filter="url(#fuzzy)" /><polyline points="1.67,-90.34 0.41,-90.35 -1.22,-90.32 -3,-90.22 -4.91,-90.03 -6.9,-89.74 -8.89,-89.35 -10.85,-88.88 -12.77,-88.34 -14.66,-87.74 -16.51,-87.08 -18.3,-86.38 -20.06,-85.64 -21.79,-84.83 -23.52,-83.96 -25.28,-83.01 -27.12,-81.94 -29.04,-80.74 -31.05,-79.39 -33.08,-77.92 -35.06,-76.37 -36.91,-74.82 -38.59,-73.32 -40.17,-71.87 -41.78,-70.41 -43.51,-68.89 -45.13,-67.43" fill="none" stroke="rgb(93, 134, 19)" stroke-width="2" stroke-linejoin="round" filter="url(#fuzzy)" /><polyline points="1.67,-90.34 0.34,-90.35 -1.46,-90.32 -3.39,-90.22 -5.47,-90.03 -7.73,-89.73 -10.17,-89.34 -12.68,-88.87 -15.17,-88.32 -17.55,-87.71 -19.76,-87.06 -21.8,-86.35 -23.72,-85.6 -25.58,-84.78 -27.49,-83.9 -29.53,-82.92 -31.79,-81.84 -34.33,-80.62 -37.19,-79.27 -40.35,-77.81 -43.77,-76.29 -47.38,-74.75 -51.08,-73.23 -54.72,-71.74 -58.13,-70.22 -61.1,-68.64 -63.54,-66.92 -65.92,-64.99 -70.16,-62.69" fill="none" stroke="rgb(93, 134, 19)" stroke-width="2" stroke-linejoin="round" filter="url(#fuzzy)" /><polyline points="0.71,-90.36 -1.21,-90.34 -3.33,-90.25 -6.14,-90.05 -9.52,-89.75 -12.94,-89.34 -15.94,-88.85 -18.4,-88.29 -20.4,-87.67 -22.14,-87 -23.78,-86.28 -25.49,-85.51 -27.37,-84.68 -29.52,-83.76 -32.05,-82.76 -35.03,-81.63 -38.54,-80.39 -42.6,-79.04 -47.11,-77.59 -51.91,-76.09 -56.71,-74.56 -61.29,-73.01 -65.56,-71.45 -69.69,-69.85 -74.02,-68.2 -78.96,-66.46 -84.68,-64.63 -90.92,-62.72 -96.98,-60.72 -101.99,-58.64 -105.55,-56.43 -108.68,-54.03 -116.03,-50.98" fill="none" stroke="rgb(93, 134, 19)" stroke-width="2" stroke-linejoin="round" filter="url(#fuzzy)" />
    </g>
    
        <g id="lineNose">
        <path d="M -7.96,11.26 Q 10.53, 18.615000000000002 1.2849999999999997, -4.970000000000001" fill="none" stroke="black" stroke-width="3" stroke-linejoin="round" filter="url(#fuzzy)"></path>
        </g>
      
    <g id="mouth">
      <polyline points="-12.63,72.71 -12.58,71.53 -12.51,70.39 -12.44,69.27 -12.35,68.19 -12.26,67.15 -12.16,66.13 -12.05,65.15 -11.93,64.2 -11.8,63.29 -11.67,62.4 -11.53,61.55 -11.38,60.73 -11.22,59.94 -11.06,59.17 -10.89,58.44 -10.71,57.74 -10.52,57.07 -10.33,56.43 -10.14,55.81 -9.93,55.23 -9.73,54.67 -9.51,54.14 -9.29,53.63 -9.07,53.16 -8.84,52.71 -8.6,52.29 -8.36,51.89 -8.12,51.52 -7.87,51.18 -7.62,50.86 -7.36,50.56 -7.11,50.29 -6.84,50.05 -6.58,49.83 -6.31,49.63 -6.03,49.45 -5.76,49.3 -5.48,49.17 -5.2,49.06 -4.92,48.98 -4.64,48.92 -4.35,48.87 -4.06,48.85 -3.77,48.85 -3.48,48.87 -3.19,48.91 -2.9,48.97 -2.61,49.05 -2.32,49.15 -2.02,49.27 -1.73,49.4 -1.44,49.56 -1.14,49.73 -0.85,49.92 -0.56,50.12 -0.27,50.35 0.02,50.59 0.31,50.84 0.59,51.11 0.88,51.4 1.16,51.7 1.44,52.02 1.72,52.35 2,52.7 2.27,53.06 2.54,53.43 2.81,53.82 3.08,54.22 3.34,54.63 3.59,55.06 3.85,55.49 4.1,55.94 4.34,56.4 4.59,56.87 4.82,57.35 5.06,57.85 5.28,58.35 5.51,58.86 5.72,59.38 5.93,59.91 6.14,60.45 6.34,61 6.53,61.56 6.72,62.12 6.9,62.69 7.08,63.27 7.24,63.85 7.4,64.45 7.56,65.04 7.7,65.65 7.84,66.26 7.97,66.87 8.1,67.49 8.21,68.12 8.32,68.74 8.41,69.38 8.5,70.01 8.58,70.65 8.65,71.3 8.71,71.94 8.65,71.3 8.58,70.65 8.5,70.01 8.41,69.38 8.32,68.74 8.21,68.12 8.1,67.49 7.97,66.87 7.84,66.26 7.7,65.65 7.56,65.04 7.4,64.45 7.24,63.85 7.08,63.27 6.9,62.69 6.72,62.12 6.53,61.56 6.34,61 6.14,60.45 5.93,59.91 5.72,59.38 5.51,58.86 5.28,58.35 5.06,57.85 4.82,57.35 4.59,56.87 4.34,56.4 4.1,55.94 3.85,55.49 3.59,55.06 3.34,54.63 3.08,54.22 2.81,53.82 2.54,53.43 2.27,53.06 2,52.7 1.72,52.35 1.44,52.02 1.16,51.7 0.88,51.4 0.59,51.11 0.31,50.84 0.02,50.59 -0.27,50.35 -0.56,50.12 -0.85,49.92 -1.14,49.73 -1.44,49.56 -1.73,49.4 -2.02,49.27 -2.32,49.15 -2.61,49.05 -2.9,48.97 -3.19,48.91 -3.48,48.87 -3.77,48.85 -4.06,48.85 -4.35,48.87 -4.64,48.92 -4.92,48.98 -5.2,49.06 -5.48,49.17 -5.76,49.3 -6.03,49.45 -6.31,49.63 -6.58,49.83 -6.84,50.05 -7.11,50.29 -7.36,50.56 -7.62,50.86 -7.87,51.18 -8.12,51.52 -8.36,51.89 -8.6,52.29 -8.84,52.71 -9.07,53.16 -9.29,53.63 -9.51,54.14 -9.73,54.67 -9.93,55.23 -10.14,55.81 -10.33,56.43 -10.52,57.07 -10.71,57.74 -10.89,58.44 -11.06,59.17 -11.22,59.94 -11.38,60.73 -11.53,61.55 -11.67,62.4 -11.8,63.29 -11.93,64.2 -12.05,65.15 -12.16,66.13 -12.26,67.15 -12.35,68.19 -12.44,69.27 -12.51,70.39 -12.58,71.53" fill="rgb(204, 102, 168)" stroke="black" stroke-width="3" stroke-linejoin="round" filter="url(#fuzzy)" />
    </g>
  </svg>