<svg xmlns="http://www.w3.org/2000/svg" width="500" height="500" viewBox="-100 -100 200 200"><defs><clipPath id="c"><path d="m32.29-.99-.2-.3-.24-.31-.26-.3-.3-.31-.32-.3-.35-.31-.38-.31-.4-.31-.44-.31-.47-.31-.5-.31-.53-.3-.56-.3-.58-.3-.62-.3-.51-.35-.58-.35-.62-.34-.68-.34-.73-.34-.78-.33-.82-.32-.87-.31-.91-.3-.95-.29-.99-.28-1.02-.27-1.05-.25-1.08-.24-1.1-.22-1.12-.21-1.14-.19-1.16-.17-1.16-.16-1.17-.14-1.18-.12-1.17-.1-1.17-.09-1.17-.06-1.16-.05-1.15-.03-1.14-.01-1.11.01-1.11.02-1.08.05-1.05.06-1.04.07-1.01.09-.98.11-.95.12-.92.14-.89.15-.86.16-.83.17-.8.19-.77.19-.73.21-.7.21-.67.21-.64.23-.61.22-.58.24-.55.23-.53.24-.5.23-.48.24-.45.24-.43.24-.41.25-.38.24-.36.25-.34.24-.31.25-.3.24-.27.24-.26.24-.24.24-.22.24-.2.23.27 4.45.28.19.3.19.3.19.32.19.33.2.34.21.36.21.37.21.38.23.39.22.41.24.42.24.44.24.44.26.47.26.48.26.49.28.51.28.53.29.54.3.57.3.58.32.6.32.62.33.64.34.65.35.68.35.69.36.71.37.74.37.74.38.77.37.78.38.8.38.81.37.83.38.85.37.85.36.87.35.88.34.89.33.9.32.91.3.91.28.92.27.92.24.93.21.93.19.93.17.92.13.92.1.92.07.91.03.91-.01.9-.04.88-.08.87-.12.86-.16.85-.21.83-.24.81-.29.79-.33.77-.36.75-.41.7-.2.67-.21.67-.23.65-.25.64-.27.62-.28.61-.29.59-.31.57-.32.55-.33.54-.35.51-.34.49-.36.48-.36.45-.36"/></clipPath><clipPath id="b"><path d="m-31.19-.92.21-.24.24-.24.26-.24.29-.23.32-.24.35-.24.38-.24.41-.23.44-.24.47-.23.5-.23.53-.23.56-.22.58-.23.62-.22.52-.25.57-.24.63-.25.68-.25.72-.24.78-.24.83-.23.87-.24.91-.22.95-.22.99-.22 1.02-.2 1.06-.2 1.08-.19 1.1-.18 1.12-.17 1.14-.16 1.16-.15 1.16-.14 1.18-.12 1.17-.11 1.18-.1 1.18-.09 1.17-.07 1.16-.06 1.15-.05 1.14-.03 1.12-.02 1.11-.01H4.9l1.06.02L7-9.02l1.02.05.98.05.96.07.93.08.9.09.86.1.84.1.8.12.78.13.74.13.71.14.67.14.65.15.62.16.59.15.57.16.53.17.52.16.49.17.46.16.45.17.41.18.4.17.37.17.36.18.33.17.31.18.29.17.27.18.25.17.24.17.22.17-1.04 2.5-.3.19-.32.19-.33.19-.34.2-.36.2-.37.2-.38.21-.4.22-.42.21-.43.23-.44.22-.46.24-.47.24-.49.24-.51.25-.52.26-.54.26-.56.27-.58.27-.6.29-.62.29-.63.29-.66.31-.68.31-.7.32-.72.33-.73.33-.76.34-.78.35-.79.34-.82.36-.83.35-.85.35-.86.36-.88.35-.9.35-.9.34-.92.34-.93.33-.94.32-.94.32-.95.29-.96.29-.96.26-.96.25-.96.23-.95.2-.96.18-.95.16-.94.12-.93.1-.92.07-.91.03h-.89l-.88-.04-.86-.07-.84-.11-.82-.15-.8-.18-.77-.22-.75-.27-.73-.3-.69-.34-.67-.37-.65-.18-.63-.19-.62-.21-.6-.23-.58-.24-.57-.26-.54-.27-.53-.28-.51-.3-.49-.3-.46-.31-.45-.32-.43-.33-.4-.32-.39-.33"/></clipPath><filter id="a"><feTurbulence baseFrequency=".05" numOctaves="3" result="noise" type="noise"/><feDisplacementMap in="SourceGraphic" in2="noise" scale="2"/></filter></defs><rect width="100%" height="100%" x="-100" y="-100" fill="#E6E6FA"/><path fill="olive" stroke="#000" stroke-linejoin="round" stroke-width="1.667" d="m65.63-.45-.15 3.16.07-.18.14.38-.16 2.74-.14 1-.03 1.33-.28.54-.19 3.06h-.04l-.04.51.03-.22-.35 2.72-.4 2.73.07-.85-.15-.08-.44 2.58-.03.95-.18.46-.5 2.5-.28 1.34-.38.67-.6 2.31-.37.78.32-.76-1.32 3.31.06.52-.61 1.41-.36 1.27-.58 1.04-.64 1.42-.16-.14-.99 2.81-.56 1.03.17-.08-1.07 1.5-1.03 2.12.39-.48-.62.73h.17l-.72 1.19L51.74 48l-.04.15-.13-.09-1.59 2.4-.34.57-.32.2-.4.94-1.41 1.78-.3.47-.49.63-.47.38-1.27 1.97-.97.33-1.36 1.49.06.22-.63.5-1.45 1.52-.2.37-1.14.95-.87.44-.95.67h.41l-2.56 1.89-.68.44.75-.37-2.65 1.92-1.02.15-.91 1.14-.33-.23-.63.48-1.09.6-.14.51-2.07.94-.91.43-1.1.67-1.14.33-1.34.73-.95.56.33-.08-.13-.34-2.17.91-1.42.69-.21.13-1.31.42-.96-.01.86-.08-1.65.38-1.42.28-1.86.49-.64.2-1.2-.06-1.73.31-1.16.14-.45.35-2.04-.01 1.18.02-1.67.01v-.08l-3.03.28-1.11-.08.44.05-1.17.15-2.67-.29.18-.1-1.81-.17-1.13.09.63.08-2.24-.31.62-.09-2.43-.19.21-.15-3.03-.59.05.02-.82-.17-2.11-.71-1.46-.46-.43.19.84.15-1.77-.76-.23-.19-2.22-.89-.38-.05-1.73-.7-1.26-.4-.31-.21-1.31-.56.58-.14-2.99-1.15-1.54-1.21.31.19-1.43-.88-.03-.07-.57-.42-1.23-.72-2.03-1.24-.44-.6-.08-.21-.19.1-2.16-2.07-.88-.63-.86-.27-.38-.73-.62-.73-1.39-.92-1.33-1.68-1.43-1.39 1.11 1.13-.62-.67-1.91-2.56.14.34-1.33-1.03-.65-.89.43.14-.87-1.22-.85-.77-1.12-1.61-.55-.65-1.32-2.32-.61-1.01-.16-.59-.54-.84.19.49-1.42-1.79-.75-2.33-.58-1.08-.17-.55.12.47-1.35-2.22-.21-.56.27.08-.88-1.69-1.23-3.1-.03-.57-.41-1.06-.23-.53-.34-.49-.3-1.3-.93-3.31-.16.14-.23-1.05-.3-.91-.72-2.84.11-.16-.3-.76-.47-2.63-.1-.09.03-.63-.54-2.63.14-.17-.39-2.26.03 1.02-.11-2.25.07-.83-.31-1.4-.07-1.42v-.68l.04-.28-.09-1.63-.15-2.09.11-2.06-.03-1.25.06-.85-.02-.26.04-2.66.01.62.19-1.89.3-3.04-.22-.04.18-.42.02-1.75.42-1.05-.11.38.3-2.38.53-2.04-.18.13.69-3.34.27-.93.13-.82.14-.08.35-1.36.34-1.62.4-1.17.43-1.04.19-.59.4-1.32.42-1.48.71-1.28.55-1.34.37-1.32.04.03 1-2.62.05.37.22-1.07 1.2-2.1.19-.33.83-1.79-.35.6 1.74-2.6.26-.06.22-1.16.82-1.32.64-.71.59-.96.38-.44 1.35-1.69-.59.54 1.31-1.77.94-1.07.35-.9 1.32-1.17.85-1.47 1.39-1.3-.58.48 1.49-1.32 1.09-1.34-.36.28.58-.06.98-.94.62-1.06 1.74-1.2.79-.92.62-.58.73-.64.94-.46 1.55-1.12 1.99-1.47-.86.69 1.77-1.31-.52.31.63-.56 2.66-1.12-.24-.15 2.58-1.45-.05-.08.03.18 2.74-1.17-1.09.52 1.64-.97.4-.17.97-.38 1.95-.34-.01-.42 1.35-.36 2.27-.54.7-.1.5-.22.3-.26.36.15 1.05-.36 2.36-.53.17-.02 1.89-.19 1.32-.22.8-.2-.65.07 2.71-.39 1.48-.01 1.2-.09-.67.21 3.9.09-.71-.14.94.04 1.98.01-.01-.01 2.18.35.02.05 1.5.21-.33-.14 1.4.07 1.35.14.94.5 1.9.45-.96-.25 1.73.21.11.25 1.51.26 2.39.7-.16.01.78.45 1.46.56-.51-.39 2.23.82.23.21 1.21.48 1.86.93 1.25.41 1.27.69.84.72-.66-.39 1.98.93.92.75.12.36 1.84.84 1.47 1.04-.53-.22 1.7.97-.39.05 1.61 1 .26.15 1.6 1.82 1.83 1.24.12-.12.63.54 1.82 2.09-.19-.12.61.95.97.24.99 1.1.48.81 1.5 1.59-.54-.3 1.12 1.55.55.44 2.13 2.64-.29-.2.78.85.38.75 1.19 1.96.25.4.23.31-.03.13 1.02 1.35 1.29 1.98.21 1.23.02.15 1.19 1.5.05.52.62.97 1.18 2.68v.16l-.22-.73.69 2.41.9 1.8.56 1.74.36.87.14.23.05.48L62.08-25l-.58-1.72.49 2.11.41.16.17 1.44.82 2.35.14 1.94.4 1.03.14 1.3.42 2.08.05.23.27.96-.03.81.16 1.96-.09-.78.19 1.84.34 1.69-.08 1.45.15.23.11 1.22-.07 4.19.22-.69-.08.75-.15 3.16" filter="url(#a)"/><path fill="#fff" d="m-31.19-.92.21-.24.24-.24.26-.24.29-.23.32-.24.35-.24.38-.24.41-.23.44-.24.47-.23.5-.23.53-.23.56-.22.58-.23.62-.22.52-.25.57-.24.63-.25.68-.25.72-.24.78-.24.83-.23.87-.24.91-.22.95-.22.99-.22 1.02-.2 1.06-.2 1.08-.19 1.1-.18 1.12-.17 1.14-.16 1.16-.15 1.16-.14 1.18-.12 1.17-.11 1.18-.1 1.18-.09 1.17-.07 1.16-.06 1.15-.05 1.14-.03 1.12-.02 1.11-.01H4.9l1.06.02L7-9.02l1.02.05.98.05.96.07.93.08.9.09.86.1.84.1.8.12.78.13.74.13.71.14.67.14.65.15.62.16.59.15.57.16.53.17.52.16.49.17.46.16.45.17.41.18.4.17.37.17.36.18.33.17.31.18.29.17.27.18.25.17.24.17.22.17-1.04 2.5-.3.19-.32.19-.33.19-.34.2-.36.2-.37.2-.38.21-.4.22-.42.21-.43.23-.44.22-.46.24-.47.24-.49.24-.51.25-.52.26-.54.26-.56.27-.58.27-.6.29-.62.29-.63.29-.66.31-.68.31-.7.32-.72.33-.73.33-.76.34-.78.35-.79.34-.82.36-.83.35-.85.35-.86.36-.88.35-.9.35-.9.34-.92.34-.93.33-.94.32-.94.32-.95.29-.96.29-.96.26-.96.25-.96.23-.95.2-.96.18-.95.16-.94.12-.93.1-.92.07-.91.03h-.89l-.88-.04-.86-.07-.84-.11-.82-.15-.8-.18-.77-.22-.75-.27-.73-.3-.69-.34-.67-.37-.65-.18-.63-.19-.62-.21-.6-.23-.58-.24-.57-.26-.54-.27-.53-.28-.51-.3-.49-.3-.46-.31-.45-.32-.43-.33-.4-.32-.39-.33" filter="url(#a)" transform="translate(30.8 -23.24)"/><path fill="#fff" d="m32.29-.99-.2-.3-.24-.31-.26-.3-.3-.31-.32-.3-.35-.31-.38-.31-.4-.31-.44-.31-.47-.31-.5-.31-.53-.3-.56-.3-.58-.3-.62-.3-.51-.35-.58-.35-.62-.34-.68-.34-.73-.34-.78-.33-.82-.32-.87-.31-.91-.3-.95-.29-.99-.28-1.02-.27-1.05-.25-1.08-.24-1.1-.22-1.12-.21-1.14-.19-1.16-.17-1.16-.16-1.17-.14-1.18-.12-1.17-.1-1.17-.09-1.17-.06-1.16-.05-1.15-.03-1.14-.01-1.11.01-1.11.02-1.08.05-1.05.06-1.04.07-1.01.09-.98.11-.95.12-.92.14-.89.15-.86.16-.83.17-.8.19-.77.19-.73.21-.7.21-.67.21-.64.23-.61.22-.58.24-.55.23-.53.24-.5.23-.48.24-.45.24-.43.24-.41.25-.38.24-.36.25-.34.24-.31.25-.3.24-.27.24-.26.24-.24.24-.22.24-.2.23.27 4.45.28.19.3.19.3.19.32.19.33.2.34.21.36.21.37.21.38.23.39.22.41.24.42.24.44.24.44.26.47.26.48.26.49.28.51.28.53.29.54.3.57.3.58.32.6.32.62.33.64.34.65.35.68.35.69.36.71.37.74.37.74.38.77.37.78.38.8.38.81.37.83.38.85.37.85.36.87.35.88.34.89.33.9.32.91.3.91.28.92.27.92.24.93.21.93.19.93.17.92.13.92.1.92.07.91.03.91-.01.9-.04.88-.08.87-.12.86-.16.85-.21.83-.24.81-.29.79-.33.77-.36.75-.41.7-.2.67-.21.67-.23.65-.25.64-.27.62-.28.61-.29.59-.31.57-.32.55-.33.54-.35.51-.34.49-.36.48-.36.45-.36" filter="url(#a)" transform="translate(-30.85 -22.5)"/><g fill="none" stroke="#000" transform="translate(30.8 -23.24)"><path stroke-linejoin="round" stroke-width="1.667" d="m-32.02 1.48.01-.24L-32 1l.03-.24.05-.24.07-.24.09-.24.1-.24.14-.24.15-.24.18-.24.21-.24.24-.24.26-.24.29-.23.32-.24.35-.24.38-.24.41-.23.44-.24.47-.23.5-.23.53-.23.56-.22.58-.23.62-.22.52-.25.57-.24.63-.25.68-.25.72-.24.78-.24.83-.23.87-.24.91-.22.95-.22.99-.22 1.02-.2 1.06-.2 1.08-.19 1.1-.18 1.12-.17 1.14-.16 1.16-.15 1.16-.14 1.18-.12 1.17-.11 1.18-.1 1.18-.09 1.17-.07 1.16-.06 1.15-.05 1.14-.03 1.12-.02 1.11-.01H4.9l1.06.02L7-9.02l1.02.05.98.05.96.07.93.08.9.09.86.1.84.1.8.12.78.13.74.13.71.14.67.14.65.15.62.16.59.15.57.16.53.17.52.16.49.17.46.16.45.17.41.18.4.17.37.17.36.18.33.17.31.18.29.17.27.18.25.17.24.17.22.17.2.17.19.16.17.17.16.16.14.16.13.15.12.15.11.15.09.15.08.14" filter="url(#a)"/><path stroke-linejoin="round" stroke-width="2.222" d="m-31.69 2.83.16.21.18.22.21.25.23.27.25.29.27.3.29.31.32.32.34.33.36.33.39.33.4.32.43.33.45.32.46.31.49.3.51.3.53.28.54.27.57.26.58.24.6.23.62.21.63.19.65.18.67.37.69.34.73.3.75.27.77.22.8.18.82.15.84.11.86.07.88.04h.89l.91-.03.92-.07.93-.1.94-.12.95-.16.96-.18.95-.2.96-.23.96-.25.96-.26.96-.29.95-.29.94-.32.94-.32.93-.33.92-.34.9-.34.9-.35.88-.35.86-.36.85-.35.83-.35.82-.36.79-.34.78-.35.76-.34.73-.33.72-.33.7-.32.68-.31.66-.31.63-.29.62-.29.6-.29.58-.27.56-.27.54-.26.52-.26.51-.25.49-.24.47-.24.46-.24.44-.22.43-.23.42-.21.4-.22.38-.21.37-.2.36-.2.34-.2.33-.19.32-.19.3-.19.3-.19.28-.18.27-.18.26-.19.24-.18.24-.17.23-.18.22-.18.2-.17.2-.18" filter="url(#a)"/><circle cx="-15.118" cy="-.527" r="4.306" clip-path="url(#b)" filter="url(#a)"/><circle cx="-17.918" cy="-4.692" r="3.222" clip-path="url(#b)" filter="url(#a)"/><circle cx="-16.013" cy="-3.542" r="3.984" clip-path="url(#b)" filter="url(#a)"/><circle cx="-16.373" cy="-1.347" r="3.938" clip-path="url(#b)" filter="url(#a)"/><circle cx="-13.388" cy="-3.217" r="4.128" clip-path="url(#b)" filter="url(#a)"/><circle cx="-15.873" cy="-4.557" r="3.586" clip-path="url(#b)" filter="url(#a)"/><circle cx="-13.743" cy="-.962" r="4.648" clip-path="url(#b)" filter="url(#a)"/><circle cx="-14.578" cy="-4.062" r="4.098" clip-path="url(#b)" filter="url(#a)"/><circle cx="-13.118" cy="-1.032" r="4.59" clip-path="url(#b)" filter="url(#a)"/><circle cx="-16.973" cy="-3.577" r="3.628" clip-path="url(#b)" filter="url(#a)"/></g><g fill="none" stroke="#000" transform="translate(-30.85 -22.5)"><path stroke-linejoin="round" stroke-width="2.222" d="M33.13 1.7v-.23l-.02-.25-.03-.25-.05-.27-.07-.27-.09-.27-.11-.28-.13-.29-.15-.29-.19-.29-.2-.3-.24-.31-.26-.3-.3-.31-.32-.3-.35-.31-.38-.31-.4-.31-.44-.31-.47-.31-.5-.31-.53-.3-.56-.3-.58-.3-.62-.3-.51-.35-.58-.35-.62-.34-.68-.34-.73-.34-.78-.33-.82-.32-.87-.31-.91-.3-.95-.29-.99-.28-1.02-.27-1.05-.25-1.08-.24-1.1-.22-1.12-.21-1.14-.19-1.16-.17-1.16-.16-1.17-.14-1.18-.12-1.17-.1-1.17-.09-1.17-.06-1.16-.05-1.15-.03-1.14-.01-1.11.01-1.11.02-1.08.05-1.05.06-1.04.07-1.01.09-.98.11-.95.12-.92.14-.89.15-.86.16-.83.17-.8.19-.77.19-.73.21-.7.21-.67.21-.64.23-.61.22-.58.24-.55.23-.53.24-.5.23-.48.24-.45.24-.43.24-.41.25-.38.24-.36.25-.34.24-.31.25-.3.24-.27.24-.26.24-.24.24-.22.24-.2.23-.18.23-.17.23-.15.22-.14.22-.12.22-.11.21-.1.2-.08.21-.08.2-.06.19m57.26 6.92-.2.23-.23.25-.25.28-.28.3-.31.32-.33.33-.36.34-.38.35-.4.35-.43.36-.45.36-.48.36-.49.36-.51.34-.54.35-.55.33-.57.32-.59.31-.61.29-.62.28-.64.27-.65.25-.67.23-.67.21-.7.2-.75.41-.77.36-.79.33-.81.29-.83.24-.85.21-.86.16-.87.12-.88.08-.9.04-.91.01-.91-.03-.92-.07-.92-.1-.92-.13-.93-.17-.93-.19-.93-.21-.92-.24-.92-.27-.91-.28-.91-.3-.9-.32-.89-.33-.88-.34-.87-.35-.85-.36-.85-.37-.83-.38-.81-.37-.8-.38-.78-.38-.77-.37-.74-.38-.74-.37-.71-.37-.69-.36-.68-.35-.65-.35-.64-.34-.62-.33-.6-.32-.58-.32-.57-.3-.54-.3-.53-.29-.51-.28-.49-.28-.48-.26-.47-.26-.44-.26-.44-.24-.42-.24-.41-.24-.39-.22-.38-.23-.37-.21-.36-.21-.34-.21-.33-.2-.32-.19-.3-.19-.3-.19-.28-.19-.28-.18-.26-.17-.26-.18-.24-.17-.23-.17-.23-.17-.21-.17-.21-.16-.2-.17-.19-.16" filter="url(#a)"/><circle cx="5.105" cy=".01" r="4.134" clip-path="url(#c)" filter="url(#a)"/><circle cx="8.325" cy="2.31" r="4.13" clip-path="url(#c)" filter="url(#a)"/><circle cx="8.84" cy="1.025" r="3.416" clip-path="url(#c)" filter="url(#a)"/><circle cx="5.04" cy="2.21" r="3.152" clip-path="url(#c)" filter="url(#a)"/><circle cx="7.225" cy="1.76" r="4.808" clip-path="url(#c)" filter="url(#a)"/><circle cx="8.69" cy=".325" r="3.978" clip-path="url(#c)" filter="url(#a)"/><circle cx="6.48" cy="2.215" r="3.514" clip-path="url(#c)" filter="url(#a)"/><circle cx="5.735" cy="3.17" r="3.568" clip-path="url(#c)" filter="url(#a)"/><circle cx="5.45" cy="2.38" r="4.838" clip-path="url(#c)" filter="url(#a)"/><circle cx="7.885" cy="4.37" r="4.946" clip-path="url(#c)" filter="url(#a)"/></g><g fill="none" stroke="#40E0D0" stroke-linejoin="round" stroke-width="2"><path d="m52.88-45.96.69 1.24-.05.87-.83.32-1.55-.19-2.24-.6-2.95-.97-3.71-1.35-4.51-1.79-5.32-2.27-6.12-2.77-6.93-3.23-7.81-3.68-8.89-4.18-10.2-4.77m-10.12-5.76 1.66-.38 1.07-.27.82-.21.76-.2.79-.19.81-.18.73-.16.55-.11.26-.03-.06.04-.42.11-.76.19-1.18.29-1.86.42m-7.83 2.35.57-.2.77-.23.72-.19.57-.12.36.01.02.19-.42.41-.92.64-1.41.88-1.87 1.14-2.3 1.42-2.82 1.76-3.45 2.18-4.17 2.61" filter="url(#a)"/><path d="m52.88-45.96.97 1.42.76 1.33.55 1.06.44.87.38.74.31.64.22.51.09.33-.05.12-.22-.11-.38-.34-.54-.62-.74-.94-.95-1.33-1.17-1.74-1.43-2.18-1.72-2.6-2.03-3.02-2.32-3.44m-64.06-19.47 1.59-.33 1.72-.2 1.62-.07 1.64.04 1.78.12 2.02.15 2.27.18 2.49.2 2.63.23 2.7.25 2.72.29 2.73.33 2.73.36 2.72.39 2.67.4 2.55.38 2.39.35 2.2.3 2.02.27 1.89.31m4.72 2.32 1.53.81 1.1.7.87.62.81.63.83.64.84.68.83.66.73.6.54.45.28.24-.02.01-.33-.22-.61-.46-.88-.68-1.13-.93-1.43-1.2" filter="url(#a)"/><path d="m36.49-64.78.64.6.92.88.76.74.5.57.23.45-.01.34-.24.23-.47.11h-.7l-.96-.11-1.24-.23-1.54-.35-1.87-.48-2.2-.64-2.56-.79-2.95-.99-3.38-1.19-3.85-1.4-4.32-1.6-4.73-1.81-5.07-2.02-5.42-2.26m47.1 17.84.51.87.22.78-.12.69-.38.68-.66.66-1.01.59-1.42.49-1.87.38-2.34.29-2.8.18-3.27.09-3.74.01-4.19-.03-4.66-.07-5.13-.11-5.61-.2-6.1-.34-6.58-.49-7.08-.65-7.62-.73-8.18-.84-8.72-1.02" filter="url(#a)"/><path d="m-36.09-65.26 1.26-.64 1.65-.74 1.73-.59 1.82-.43 2-.34 2.25-.3 2.55-.32 2.8-.34 3.01-.33 3.14-.31 3.24-.24 3.33-.19 3.38-.12 3.45-.1 3.49-.08 3.51-.1 3.51-.12 3.49-.13L17-70.8l3.49-.07 3.59.04M53.9-44.61l.74 1.5.1.89-.26.57-.55.39-.86.26-1.22.11-1.61-.08-2.03-.27-2.45-.46-2.89-.63-3.31-.81-3.75-1.05-4.22-1.32-4.69-1.62-5.18-1.92-5.67-2.2-6.18-2.49-6.71-2.74-7.27-2.95-7.9-3.11-8.67-3.25" filter="url(#a)"/><path d="m52.91-46.09.32.57.66 1.06.63 1.13.51.97.41.81.31.66.23.52.11.38-.02.2h-.17l-.31-.21-.47-.41-.62-.66-.81-.92-1.01-1.26-1.23-1.62-1.46-1.99-1.7-2.39-1.95-2.79-2.22-3.17-2.53-3.51m-63.51-14.87 1.04-.32.91-.26.69-.17.47-.03.15.15-.26.37-.75.6-1.24.85-1.68 1.13-2.1 1.41-2.54 1.67-3 1.9-3.52 2.09-4.09 2.35" filter="url(#a)"/><path d="m-6.74-77.38.54-.14.76-.11 1.02-.09 1.02-.04h.89l.72.05.54.08.34.11.12.14-.13.18-.4.24-.7.29-1.02.33-1.33.39-1.63.43-1.93.48-2.22.53-2.57.59-2.96.62-3.4.67-3.95.81M7.6-77.33l1.2.12.91.23.54.27.12.25-.27.25-.62.27-.92.32-1.28.37-1.68.41-2.18.45-2.71.46-3.28.47-3.85.48-4.44.53-5.1.63-5.82.79" filter="url(#a)"/><path d="m-17.66-75.09 1.76-.36 1.36-.2 1.3-.14 1.46-.1 1.71-.11 1.98-.11 2.18-.11 2.29-.1 2.28-.08 2.19-.07 2.03-.06 1.85-.06 1.71-.05 1.59-.02 1.46.03 1.24.07m12.48 3.7 1.33.75.58.67-.18.65-.87.68-1.49.73-2.03.84-2.59.93-3.18 1.03-3.82 1.1-4.56 1.17-5.33 1.26-6.16 1.37-6.99 1.54-7.85 1.75-8.7 1.97-9.53 2.13" filter="url(#a)"/><path d="m25.07-71.93 1.11.45.82.45.53.34.33.26.19.21v.14l-.26.03-.62-.13-1.04-.3-1.48-.52-1.94-.73-2.43-.97-3.02-1.23-3.73-1.55" filter="url(#a)"/><path d="m11.29-76.62 1.21.35 1.04.42 1.39.64 1.77.86 2.05 1.03 2.19 1.14 2.24 1.22 2.24 1.26 2.23 1.27 2.22 1.26 2.19 1.26 2.14 1.25 2.08 1.24 1.98 1.18 1.74.94" filter="url(#a)"/><path d="m13.19-76.17-.22-.08.35.12.44.24.31.3.04.34-.34.34-.73.35-1.12.35-1.49.36-1.84.39-2.21.43-2.64.47-3.12.52-3.7.56-4.38.61-5.12.64-5.81.64-6.22.52m83.07 33.49-.04.05.04.4.11.74.05.72-.13.49-.35.15-.58-.18-.82-.48-1.06-.77-1.3-1.06-1.57-1.34-1.85-1.62-2.14-1.89-2.42-2.19-2.72-2.53-3.02-2.93-3.33-3.38-3.65-3.88-4.03-4.4-4.51-4.93-5.17-5.45m-45.56-1.84.32-.08 1.08-.2 1.52-.29 1.79-.34 2.04-.35 2.29-.36 2.51-.35 2.68-.36 2.81-.35 2.84-.34 2.8-.33 2.67-.31 2.5-.28 2.39-.22 2.39-.17 2.39-.13" filter="url(#a)"/><path d="m-10.12-76.95.79-.04 1.45-.04 1.64.01 1.77.08 1.93.13 2.13.18 2.25.24 2.31.28 2.31.31 2.26.33 2.19.33 2.05.3 1.85.26 1.59.19 1.33.14 1.06.09.76.01m-34.94-1.48.74-.08h.95l1.29.09 1.71.15 2.12.2 2.44.27 2.66.33 2.8.4 2.87.46 2.92.5 2.94.53 2.97.55 2.95.55 2.92.55 2.86.58 2.8.6 2.74.63 2.67.66 2.57.64" filter="url(#a)"/><path d="m55.4-41.4.29.48.39.71.31.72.17.64-.01.48-.18.3-.35.15h-.51l-.7-.18-.92-.41-1.17-.69-1.44-1-1.69-1.31-1.96-1.6-2.2-1.89-2.45-2.17-2.72-2.44-3.01-2.73-3.36-3.04-3.73-3.39-4.1-3.79-4.37-4.21-4.47-4.57" filter="url(#a)"/><path d="m34.88-65.78 1.11.77.73.77.52.75.22.65-.14.51-.52.4-.91.29-1.28.19-1.67.1-2.06.01-2.44-.07-2.86-.16-3.28-.25-3.71-.35-4.15-.47-4.61-.6-5.08-.74-5.63-.88-6.23-1.02-6.9-1.08-7.67-1.12m35.75-7.88 1.59.38 1.43.47 1.2.48 1.13.49 1.13.51 1.19.53 1.23.55 1.27.57 1.27.59 1.22.58 1.1.53.92.46.69.35.44.23.2.1-.02-.02-.22-.14-.41-.26-.62-.39-.94-.61m-33.81-7.02.45-.04 1.46-.07 1.62-.02 1.59.06 1.57.09 1.55.11 1.49.11 1.41.1 1.29.1 1.13.09.97.09.77.07.57.05h.32l.02-.06-.38-.13-.86-.16" filter="url(#a)"/><path d="m18.59-74.54.99.34.92.34 1.11.47 1.27.58 1.36.66 1.37.68 1.29.66 1.15.6.99.55.85.48.71.42.59.36.44.27.24.15-.01-.01-.27-.17-.54-.34-.76-.47-.94-.6-1.22-.8m4.5 2.75.87.64.47.4.39.37.35.39.32.43.25.44.13.42-.07.34-.32.22-.6.11-.91-.02-1.22-.16-1.53-.29-1.85-.41-2.18-.55-2.55-.67-2.92-.8-3.31-.94-3.68-1.08L10.24-70l-4.43-1.4L.88-73l-5.45-1.84m2.7-2.95-1.68.04-2.08.21-2.25.28-2.46.34-2.59.39-2.6.45-2.52.51-2.44.58-2.38.64-2.31.69-2.24.75-2.16.8-2.13.86-2.17.94-2.31 1.02-2.5 1.1-2.7 1.18-2.89 1.25-3 1.31-3.11 1.36-3.18 1.4-3.24 1.44-3.23 1.47-3.09 1.54-2.84 1.61-2.63 1.7-2.68 1.74-3.03 1.74-3.57 1.73-3.96 1.7" filter="url(#a)"/><path d="m-6.59-77.51-1.16.23-2.08.34-2.38.4-2.46.45-2.46.51-2.37.59-2.25.65-2.16.7-2.17.75-2.27.8-2.41.87-2.51.95-2.53 1.03-2.49 1.1-2.44 1.19-2.47 1.25-2.57 1.31-2.68 1.37-2.74 1.4-2.74 1.44-2.72 1.49-2.8 1.54-3.01 1.61-3.28 1.69-3.4 1.74-3.21 1.75-2.92 1.79-3.22 1.88-4.32 2.15" filter="url(#a)"/><path d="m-13.89-76.21-2.46.53-2.06.63-2.11.71-2.22.73-2.25.76-2.18.79-2.1.86-2.05.95-2.1 1.04-2.16 1.12-2.22 1.19-2.24 1.26-2.23 1.32-2.24 1.37-2.31 1.4-2.46 1.44-2.63 1.47-2.78 1.54-2.82 1.61-2.78 1.68-2.73 1.73-2.74 1.75-2.8 1.78-2.84 1.88-2.5 2.13M64.54-14.08l.41 1.7.21 2.04.22 2.39.25 2.56.24 2.58.18 2.54.1 2.5.03 2.44-.05 2.37-.12 2.3-.22 2.22-.32 2.17-.41 2.16-.48 2.17-.53 2.21-.56 2.26-.59 2.29-.63 2.32-.69 2.34-.75 2.33-.83 2.31-.88 2.25-.92 2.15-.93 2.03-.96 1.89-1 1.82-1.1 1.83-1.24 1.92-1.28 1.9-.94 1.32" filter="url(#a)"/><path d="m-21.92-73.59-2.84.9-2.72.72-3.27.83-3.76.99-3.53 1.11-2.83 1.18-2.11 1.25-1.6 1.31-1.34 1.36-1.27 1.4-1.34 1.46-1.51 1.49-1.78 1.54-2.2 1.61-2.78 1.66-3.48 1.72-4.22 1.78-4.87 1.83-5.28 1.87-5.4 1.9-5.18 1.92-4.67 1.93-3.97 1.95-3.23 1.97-2.53 2.02-1.98 2.09-1.58 2.16-1.39 2.22-1.45 2.25-1.89 2.28-2.82 2.3-4.09 2.37-5.03 2.42-4.18 2.36-.94 2.07" filter="url(#a)"/><path d="m-25.59-71.9-1.29 1.5-1.43 1.34-1.85 1.22-1.79 1.22-1.52 1.29-1.26 1.37-1.06 1.41-.92 1.43-.78 1.47-.65 1.52-.54 1.57-.43 1.65-.34 1.71-.23 1.76-.11 1.82.03 1.86.2 1.9.36 1.92.49 1.9.5 1.88.38 1.87.17 1.93v2.05l-.06 2.24-.19 2.32-.48 2.11m12.8-44.26-8.81 1.52-2.03 1.34-.04 1.24-.2 1.24-.85 1.31-1.38 1.38-1.71 1.43-1.86 1.46-1.95 1.49-2.04 1.55-2.14 1.61-2.23 1.68-2.33 1.73-2.42 1.79-2.51 1.84-2.63 1.88-2.77 1.9-2.9 1.92-3 1.94-2.97 1.96-2.78 1.99-2.41 2.03-1.95 2.1-1.5 2.16-1.26 2.21-1.3 2.26-1.69 2.28-2.33 2.31-3.03 2.34-3.56 2.33-3.64 2.31-3.21 2.23-2.33 2.18-1.53 2.33-2.95 3.45m172.32-9.13 4.24 1.56 1.62 1.89.77 2.04 1.11 2.21 1.11 2.35.61 2.42L74.1.6l.2 2.4.85 2.34 1.8 2.3 2.63 2.26 3 2.23 2.76 2.23 1.98 2.24.93 2.27-.07 2.31-.75 2.36-1.05 2.37-1.02 2.35-.79 2.3-.38 2.23.33 2.18 1.23 2.16 1.83 2.14 1.09 2.01-1.37 1.67" filter="url(#a)"/><path d="m-32.47-67.62-2.3 1-1.97 1.29-1.81 1.43-1.79 1.46-1.84 1.45-1.9 1.45-1.95 1.49-1.97 1.57-1.98 1.65-1.96 1.72-1.92 1.77-1.85 1.81-1.73 1.86-1.59 1.9-1.41 1.91-1.25 1.9-1.08 1.86-.97 1.86-.95 1.91-1.06 2.05-1.36 2.23-1.76 2.32-2.13 2.09" filter="url(#a)"/><path d="m-36.82-64.62-2.82 1.58-2.4 1.51-1.37 1.38-1.19 1.4-1.59 1.54-2.15 1.69-2.64 1.81-3.01 1.82-3.26 1.79-3.38 1.74-3.39 1.72-3.32 1.74-3.26 1.83-3.35 1.93-3.6 2.03-3.87 2.11-3.82 2.13-3.15 2.14-1.94 2.16-1.04 2.18-1.71 2.21-4.02 2.37m60.28-40.81-1.91 1.6-1.77 1.53-1.55 1.41-1.53 1.44-1.69 1.58-1.83 1.73-1.81 1.81-1.64 1.83-1.4 1.81-1.21 1.78-1.11 1.79-1.09 1.83-1.14 1.9-1.18 1.98-1.23 2.05-1.23 2.1-1.25 2.14-1.22 2.16-1.19 2.16-1.13 2.17-1.05 2.17-.97 2.21-.93 2.26-.92 2.31-.91 2.36-.9 2.37-.85 2.32-.74 2.26-.54 2.19-.34 2.18-.26 2.21-.28 2.2m36.8-63.84 2.6 1.6 1.69 1.52-.58 1.4-1.37 1.43-1.65 1.57-1.91 1.72-1.96 1.82-1.5 1.82-.6 1.81.43 1.77 1.18 1.78 1.4 1.81 1.19 1.88.82 1.97.61 2.04.74 2.1 1.13 2.14 1.58 2.16 1.81 2.15 1.73 2.15 1.45 2.15 1.28 2.17 1.42 2.23 1.85 2.33 2.23 2.42 2.23 2.44 1.89 2.33 1.64 2.25.96 2.59" filter="url(#a)"/><path d="m-47.35-54.02-1.18 1.72-1.22 1.67-1.3 1.8-1.36 1.9-1.41 1.96-1.46 1.94-1.51 1.92-1.55 1.92-1.61 1.95-1.69 2.02-1.74 2.1-1.75 2.17-1.71 2.23-1.62 2.25L-70-24.2l-1.48 2.29-1.43 2.3-1.35 2.3-1.2 2.29-1 2.27-.81 2.27-.7 2.31-.68 2.36-.76 2.31-1.01 2.22-1.02 2.56" filter="url(#a)"/><path d="m-49.95-50.28-1.69 1.23-2.94 1.44-2.32 1.59-1.62 1.74-1.51 1.89-1.58 2.03-1.51 2.11-1.29 2.15-1.17 2.16-1.23 2.15-1.45 2.14-1.72 2.15-1.95 2.15-2.16 2.19-2.38 2.24-2.64 2.3-2.87 2.35-2.95 2.34-2.74 2.3-2.19 2.24-1.5 2.2-1.19 2.22-1.84 2.35-2.95 2.64-1.28 3.35" filter="url(#a)"/><path d="m-49.36-50.82-2.84 1.96-5.38 2-4.98 2.02-3.35 1.98-2.32 1.91-1.93 1.89-1.62 1.93-1.11 2.02-.61 2.11-.37 2.18-.5 2.23-.94 2.25-1.48 2.28-2.02 2.28-2.42 2.3-2.73 2.3-2.91 2.28-2.92 2.27-2.64 2.28-2.04 2.3-1.21 2.35-.55 2.37-.69 2.4-2.11 2.66-4.2 3.27M63.53-18.72l.2 2.17.1 2.02.17 2 .21 2.13.18 2.32.05 2.45-.13 2.5-.32 2.51-.49 2.48-.59 2.44-.65 2.38-.63 2.3-.57 2.21-.52 2.14-.5 2.1-.55 2.12-.63 2.17-.7 2.24-.74 2.28-.79 2.29-.87 2.29-1.02 2.38-1.2 2.52-1.33 2.47" filter="url(#a)"/><path d="m-53.62-44.48-2.89 2.06-2.52 2.27-2.8 2.29-3.26 2.24-2.98 2.19-2.09 2.18-1.14 2.17-.48 2.18-.25 2.2-.33 2.25-.61 2.28-1 2.33-1.45 2.34-1.92 2.34-2.4 2.34-2.82 2.34-3.11 2.35-3.14 2.35-2.91 2.37-2.47 2.36-1.97 2.35-1.57 2.31-1.38 2.28-1.37 2.25-1.42 2.24-1.4 2.25-1.26 2.27-1.07 2.31-.84 2.32-.6 2.34-.27 2.35.12 2.36.4 2.35.33 2.34-.16 2.26-.86 1.98-.78 1.6" filter="url(#a)"/><path d="m-55.01-42.48-1.96 2.3-1.49 2.37-1.6 2.23-1.37 2.16-.94 2.15-.6 2.15-.47 2.16-.52 2.17-.64 2.22-.77 2.26-.83 2.32-.82 2.34-.76 2.33-.68 2.32-.61 2.31-.58 2.31-.56 2.34-.54 2.37-.48 2.39-.37 2.36-.24 2.31-.08 2.23.02 2.17.06 2.17.03 2.22v2.3l.09 2.31.23 2.31.04 2.82" filter="url(#a)"/><path d="m-61.18-27.64 1.03 2.28 1.78 2.32.53 2.36-.4 2.37-.7 2.34-.6 2.32-.27 2.31.34 2.34 1.18 2.36 2.14 2.4 2.98 2.41 3.45 2.41 3.42 2.4 2.88 2.37 2.04 2.33 1.13 2.29.34 2.26-.14 2.25-.26 2.26-.07 2.28.36 2.3.9 2.32 1.41 2.32 1.84 2.3 2.15 2.27 2.35 2.22 2.44 2.16 2.46 2.09 2.46 2.01 2.43 1.96 2.37 1.94 2.23 1.97 2.04 2.03 1.93 2.11 2.16 2.09 2.72 1.82 2.38 1.2m67.74-78.74 4.45 2.29 4.87 2.71 5.07 2.51 2.72 2.29-.22 2.21-2.07 2.26-2.5 2.35-1.93 2.44-.92 2.49.1 2.5.88 2.49 1.37 2.44 1.63 2.39 1.7 2.31 1.66 2.25 1.55 2.2 1.38 2.18 1.2 2.19 1.05 2.22.95 2.26.96 2.29 1.02 2.33 1.06 2.34 1.04 2.35.91 2.32.68 2.27.38 2.17.1 2.04-.11 1.89-.16 1.78-.01 1.83.17 2.1-.63 2.38" filter="url(#a)"/><path d="m60.89-29.1 9.22 2.84 6.73 2.06 2.25 2.16.81 2.32.33 2.33.33 2.27.92 2.23 1.72 2.26 2.07 2.33 1.74 2.4 1.03 2.46.48 2.49.51 2.48 1.13 2.45 2.11 2.4 3.14 2.32 3.94 2.23 4.36 2.15 4.36 2.1 4.08 2.11 3.75 2.17 3.5 2.26 3.16 2.32 2.57 2.24 2.11 2.11 1.92 2.66" filter="url(#a)"/><path d="m60.75-29.33 2.2 1.16 1.78 1.93.91 2.42.72 2.66.89 2.65 1.31 2.53 1.94 2.39 2.68 2.31 3.36 2.27 3.77 2.3 3.73 2.33L87.19-2 89.31.39l.87 2.38-.27 2.37-.98 2.33-1.15 2.3-.79 2.29-.14 2.28.57 2.29 1.15 2.31 1.53 2.33 1.7 2.35 1.75 2.36 1.7 2.33 1.57 2.31 1.35 2.24 1 2.19.55 2.12.03 2.06-.53 1.98-1.11 1.93-1.59 1.9-1.71 1.89-1.18 1.88.1 1.81 2.89 1.55M59.83-31.94l1.35 1.98 2.33 1.71 2.52 1.99 2.53 2.33 2.88 2.54 3.54 2.59 4.03 2.5 3.93 2.37 3.22 2.27 2.34 2.22 1.84 2.24 2.1 2.29 2.92 2.35 3.82 2.39 4.16 2.39 3.73 2.36 2.83 2.31 2.04 2.27 1.93 2.23 2.55 2.18 3.69 2.15 5.18 2.13 6.54 2.29 3.76 2.74" filter="url(#a)"/><path d="m56.66-39.23 2.15 2.47 1.74 2 1.25 2.08 1.52 2.08 2.45 2.1 3.63 2.19 4.49 2.33 4.79 2.46 4.59 2.49 4.27 2.47 4.14 2.39 4.28 2.31 4.49 2.26 4.42 2.27 3.81 2.31 2.61 2.35 1.09 2.39-.22 2.39-.8 2.37-.37 2.33.96 2.28 2.76 2.24 4.41 2.2 5.4 2.15 5.03 2.15 3.05 2.3 2.35 2.75M53.9-44.61l.95 2.58.12 2.09.13 2.05.6 2.14.95 2.21 1.03 2.24.94 2.25.77 2.23.59 2.23.43 2.25.27 2.27.13 2.27.06 2.28.01 2.29.01 2.31-.02 2.35-.07 2.41-.14 2.45-.23 2.47-.32 2.48-.38 2.46-.41 2.42-.44 2.35-.47 2.26-.51 2.19-.59 2.13-.68 2.14-.81 2.19-.95 2.27-1.04 2.33-1.01 2.26-.83 2.13-.93 2.68m1.85-77.14 1.98 1.86 4.07 2.08 4.13 2.03 2.83 2.04 1.75 2.1 1.59 2.17 2.04 2.21 2.68 2.2 3.41 2.19 4.33 2.19 5.51 2.21 6.56 2.23 6.9 2.26 6.08 2.24 4.35 2.19 2.6 2.19 1.97 2.24 3.07 2.37 5.39 2.52 7.65 2.54 8.26 2.29 5.43 2.27" filter="url(#a)"/><path d="m52.68-46.4.88 1.26 1.74 1.92 2.07 2.04 1.81 2.07 1.23 2.08.71 2.08.47 2.1.46 2.13.59 2.17.79 2.25.99 2.35 1.19 2.41 1.35 2.44 1.43 2.44 1.43 2.4 1.32 2.35 1.14 2.33.9 2.33.66 2.34.43 2.36.27 2.38.2 2.39.21 2.37.29 2.34.39 2.3.43 2.28.39 2.25.25 2.26.08 2.28-.05 2.33-.08 2.4-.1 2.45-.11 2.46-.16 2.39-.18 2.26-.59 2.18M50.86-49.51l14.57 2.03-2.05 1.67-2.86 1.77-.61 1.91 1.3 1.99 2.39 2.06 2.91 2.12 3.04 2.18 2.86 2.2 2.48 2.22 2.1 2.22 1.99 2.23 2.37 2.24 3.28 2.25 4.48 2.26 5.55 2.26 6.09 2.26 5.84 2.28 4.94 2.32 3.81 2.39 2.95 2.45 2.63 2.49L123.7.81l3.12 2.51 3.4 2.5 3.58 2.47 3.52 2.3 3.15 2.01 3.64 1.99" filter="url(#a)"/><path d="m48.24-52.8 5.93 2.11 3.81 1.85 2.33 1.79 1.49 1.81 1.65 1.89 2.22 1.95 2.51 2.01 2.38 2.04 2.15 2.05 2.15 2.07 2.41 2.09L80.01-29l2.91 2.2 2.87 2.3 2.82 2.39 3.06 2.46 3.8 2.46 4.97 2.4 6.19 2.32 6.9 2.23 6.64 2.22 5.35 2.27 3.62 2.38 2.5 2.49 2.85 2.48 4.57 2.33 5.18 2.72" filter="url(#a)"/><path d="m46.57-54.79 1.84 2 1.46 1.97 1.32 1.86 1.25 1.82 1.17 1.83 1.11 1.88 1.07 1.95 1.06 2 1.07 2.03 1.09 2.05 1.1 2.06 1.08 2.08 1.03 2.12.95 2.19.88 2.28.78 2.4.7 2.47.61 2.49.53 2.42.48 2.3.42 2.19.4 2.15.4 2.21.42 2.43.36 2.85.08 3.47m-28.3-63.86 2.38 1.7 3.75 1.58 3.37 1.61 2.48 1.7 2.31 1.78 2.84 1.83 3.53 1.84 3.83 1.86 3.54 1.89 2.79 1.92 1.87 1.97 1.08 2 .57 2.04.37 2.07.43 2.1.62 2.13.87 2.18 1.11 2.25 1.36 2.31 1.68 2.38 2.11 2.42 2.63 2.42 3.24 2.4 3.82 2.37 4.26 2.32 4.5 2.32 4.47 2.33 4.17 2.37 3.58 2.41 2.71 2.42 1.69 2.4.86 2.36.6 2.32 1.16 2.28 2.17 2.26 2.94 2.13 2.81.87M34.88-65.78l-1.09-.97-1.26-1.01-1.57-1.06-1.8-1.05-1.95-1.01-2-.95-1.99-.88-1.93-.8-1.84-.71-1.76-.63-1.71-.56-1.68-.48-1.72-.42-1.8-.35-1.91-.29-2.05-.23-2.2-.17-2.31-.1-2.43-.03-2.49.04-2.55.11-2.57.18-2.57.25-2.57.33-2.56.38-2.56.46-2.56.52-2.56.58-2.56.64-2.54.69-2.49.74-2.44.78-2.45.86-2.56.99-2.72 1.1-2.6 1.1-2.02.89" filter="url(#a)"/><path d="m34.1-66.58-1.47-1.51-1.06-1.16-1.32-1.04-1.1-.99-.93-.93-1.11-.85-1.5-.77-1.83-.69-1.98-.61-2.05-.54-2.12-.47-2.24-.41-2.38-.34-2.51-.28-2.59-.22-2.67-.16-2.79-.1-2.98-.04-3.25.04-3.53.12-3.77.2-3.89.29-3.92.36-3.82.4-3.54.36-3.61.29" filter="url(#a)"/><path d="m28.43-70.11-1.72-1.28-1.77-1.04-1.84-.85-1.69-.74-1.45-.66-1.34-.59-1.45-.51-1.71-.45-1.98-.39-2.18-.32-2.3-.25-2.37-.19-2.44-.13-2.54-.06-2.67.01-2.84.08-3.01.16-3.2.24-3.38.3-3.53.36-3.65.43-3.77.47-3.86.53-3.96.59-4.02.65-4.04.71-3.98.79-3.88.86-3.84.92-3.97.96-4.35 1-4.93 1.13-5.33 1.36-4.4 1.4" filter="url(#a)"/><path d="m26.32-71.52-2.3-1.06-1.6-.8-1.69-.7-1.9-.64-1.97-.59-1.96-.51-1.94-.44-1.91-.38-1.9-.32-1.9-.25-1.94-.2-2-.12-2.1-.07-2.21.01-2.34.08-2.43.16-2.49.23-2.51.3-2.49.37-2.46.42-2.42.47-2.41.52-2.42.58-2.45.63-2.5.7-2.53.79-2.56.87-2.54.94-2.42.91-2.11.74-1.77.57" filter="url(#a)"/><path d="m25.07-71.93-2.57-1.16-1.78-.81-1.48-.63-1.61-.56-1.8-.51-1.84-.46-1.77-.4-1.73-.33-1.77-.28-1.91-.22-2.12-.16-2.33-.09-2.47-.04-2.58.04-2.64.11-2.69.19-2.75.25-2.8.32-2.82.38-2.8.44-2.74.51-2.66.59-2.65.66-2.74.71-2.83.71-2.62.57-1.23.2" filter="url(#a)"/><path d="m22-73.34-.88-.74-1.58-.53-1.82-.52-1.86-.51-1.76-.45-1.66-.4-1.62-.33-1.73-.27-1.97-.21-2.26-.15-2.55-.1-2.79-.02-2.95.05-3.1.12-3.25.19-3.39.26-3.53.33-3.62.39-3.69.45-3.74.52-3.87.59-4.12.65-4.47.69-4.84.7-5.11.73-5.21.79-5.58 1.03-6.75 1.46" filter="url(#a)"/><path d="m21.77-73.55-1.78-.58-1.82-.67-1.74-.59-1.72-.51-1.75-.43-1.82-.37-1.86-.31-1.9-.25-1.94-.19-2.01-.13-2.09-.06H-.89l-2.35.08-2.49.15-2.64.23-2.8.3-2.96.37-3.1.41-3.17.47-3.19.51-3.11.56-3 .6-2.88.65-2.93.72-3.42.9-4.01 1.24" filter="url(#a)"/><path d="m17.81-74.99-1.88-.59-1.61-.44-1.73-.39-1.88-.36-1.93-.3-1.92-.24-1.89-.18-1.92-.11-1.99-.04-2.1.03-2.19.1-2.27.18-2.31.25-2.32.32-2.3.38-2.26.44-2.22.49-2.19.55-2.19.6-2.21.66-2.25.73-2.32.8-2.4.87-2.47.93-2.54 1-2.59 1.07-2.67 1.18-2.73 1.31-2.76 1.44-2.75 1.55-2.85 1.57-2.91 1.33" filter="url(#a)"/><path d="m13.19-76.17-2.15-.65-2.25-.36-2.02-.23-1.86-.16-1.84-.1-1.93-.04-2.07.02-2.19.09-2.26.18-2.28.25-2.25.33-2.2.37-2.16.43-2.13.48-2.17.52-2.24.57-2.32.63-2.43.69-2.54.78-2.64.89-2.63 1-2.32.96-1.15.59" filter="url(#a)"/></g><g fill="none" stroke="#000"><circle cx="8.8" cy="24.742" r="2.23" filter="url(#a)"/><circle cx="10.736" cy="23.03" r="2.2" filter="url(#a)"/><circle cx="11.336" cy="23.89" r="1.736" filter="url(#a)"/><circle cx="8.78" cy="25.558" r="1.956" filter="url(#a)"/><circle cx="9.664" cy="26.154" r="1.604" filter="url(#a)"/><circle cx="8.952" cy="24.418" r="1.99" filter="url(#a)"/><circle cx="10.496" cy="26.734" r="2.988" filter="url(#a)"/><circle cx="7.836" cy="26.818" r="1.28" filter="url(#a)"/><circle cx="11.064" cy="26.018" r="2.332" filter="url(#a)"/><circle cx="8.716" cy="22.99" r="1.266" filter="url(#a)"/><circle cx="-8.074" cy="28.13" r="1.806" filter="url(#a)"/><circle cx="-8.938" cy="26.33" r="1.052" filter="url(#a)"/><circle cx="-6.71" cy="26.138" r="2.448" filter="url(#a)"/><circle cx="-5.738" cy="27.702" r="2.144" filter="url(#a)"/><circle cx="-8.878" cy="29.582" r="2.536" filter="url(#a)"/><circle cx="-7.938" cy="27.998" r="1.704" filter="url(#a)"/><circle cx="-7.31" cy="29.034" r="2.894" filter="url(#a)"/><circle cx="-9.462" cy="28.746" r="2.458" filter="url(#a)"/><circle cx="-6.182" cy="26.162" r="1.478" filter="url(#a)"/><circle cx="-8.334" cy="29.55" r="2.814" filter="url(#a)"/></g><path fill="#D77F8C" stroke="#000" stroke-linejoin="round" stroke-width="3" d="m33.36 48.43-.07.11-.04.57-.07-.22-.38.61.15-.18.02.13-.86.96-.85.61.7-.5-.58.55-.95.48-.52.33.9-.44-1.19.72-.85.26-.24.07.49-.1-1.8.65-1.42.3.61-.05.16-.05-2.6.5-.25.13-1.09.13.13-.04.11.03-.95.14.21-.02-2.01.16-2.16.21.72-.05-1.18.04-.85.03-1.64.04.93-.03-2.32-.01-.95-.02-1.88-.09.7.05-1.02-.06-2.49-.19 1.01.1-.81-.09-3.88-.42.38.04.62.08-1.97-.27-2.35-.36.82.13-3.6-.66 1.63.32-2.6-.52.39.08-3.01-.68 1.33.31-.37-.09-1.69-.41-.61-.16-.59-.16-2.47-.74-1.04-.31-.72-.22.26.08-2.74-.97 1.18.41-1.01-.34-2-.81-1.11-.45 1.29.52-2.79-1.21.53.29-.48-.23-2.58-1.28 1.08.56-.47-.32-2.49-1.34-.25-.15.32.14-1.85-1.24 1.39.87-2.45-1.65.85.52-.46-.28-.17-.24-1.91-1.65 1.01.97-.93-1.09-.54-.53-.07-.13-.32-.28-.06-.13-.37-.95-.51-.87.38.82-.36-.74.23.02-.21-1.38-.11-.37.05.44.15-1-.05.76.39-1.51-.33.48.13-.1.58-1.24-.18.39.76-.86.22-.3.4-.26-.05.08.76-.51.69-.51-.46.21.23-.07.06-.01 1.48-.64v-.02l.46-.22.68-.18 1.19-.35-.3.03 2.16-.5.96-.17-.91.16 1.37-.17.11-.07 2.15-.23-.49-.03 1.62-.13.01-.01 2.27-.11 1.45-.03h-1.2l.45.02.78.02.96-.05.74.03h1.34l3.58.22-.21-.04-.89-.03 1.27.09 1.5.12 2.99.33.58.09 1.83.27-2.33-.33 3.63.54.33.06.88.16 1.8.36 1.26.27-.85-.19 1.39.3.46.12 1.23.28.2.06 1.25.32 1.27.35.51.16 2.86.86 1.25.41-2.13-.68 1.8.59 1.44.51.02.01.31.11 3.25 1.36-1.55-.7.87.35 1.86.86-.11-.01 2.13.98.37.23-.77-.43 2.45 1.49-.28-.29 1.32.93-.24-.2 1.6 1.2-.98-.71 1.41 1.1-.34-.42.97.95-.03-.18 1.57 1.6-.86-.86.92 1.21.7.78-.54-.82.56 1.07-.06-.32.23.7.38.74-.11.11.18.94.1.25-.05.57.07-.53" filter="url(#a)"/></svg>