<svg xmlns="http://www.w3.org/2000/svg" width="500" height="500" viewBox="-100 -100 200 200"><defs><clipPath id="c"><path d="m32.99-2.22-.44-.17-.48-.18-.52-.18-.55-.17-.58-.17-.62-.17-.64-.17-.66-.17-.7-.17-.71-.16-.74-.16-.76-.17-.78-.15-.8-.16-.81-.16-.92-.16-.95-.17-.97-.16-.98-.17-1.01-.17-1.03-.16-1.03-.16-1.05-.16-1.06-.16-1.07-.15-1.07-.15-1.08-.14-1.08-.14-1.07-.13-1.07-.13-1.07-.12-1.06-.11-1.05-.11-1.03-.1-1.03-.08-1.01-.08-.99-.08-.98-.06-.95-.05-.94-.04-.91-.03-.89-.03-.87-.01h-.84l-.82.01-.79.02-.76.03-.74.03-.71.05-.68.06-.65.07-.62.08-.59.08-.57.1-.54.1-.51.11-.48.12-.46.12-.43.13-.4.14-.38.14-.36.15-.33.15-.32.16-.29.15-.28.16-.25.17-.23.17-.22.17-.19.18-.18.18-.16.18-.14.19-.12.19-.11.19-.09.19-.07.2-.06.2-.04.2.77 2.19.31.24.31.25.33.24.33.25.35.25.36.25.37.24.38.25.39.25.4.25.41.25.43.26.43.25.45.25.46.25.47.25.49.25.5.26.51.25.53.25.55.25.55.26.58.25.58.24.61.25.61.24.63.24.65.24.66.22.68.23.69.22.7.21.72.2.73.19.75.19.76.17.77.17.78.15.8.14.81.13.82.11.83.1.84.08.85.07.86.05.87.03.88.02.88-.01.89-.02.9-.04.9-.06.9-.09.91-.1.91-.13.9-.14.91-.17.91-.19.9-.2.9-.23.89-.25.89-.27.87-.28.87-.31.86-.32.71-.2.7-.22.69-.22.68-.23.66-.23.65-.25.62-.24.61-.26.59-.25.56-.26.54-.26.52-.27.49-.26.46-.26.42-.26"/></clipPath><clipPath id="b"><path d="m-30.89-2.08.64-.15.67-.15.71-.15.73-.16.75-.15.78-.16.8-.15.82-.16.84-.15.85-.16.87-.15.88-.16.89-.15.91-.15.91-.16 1.08-.17 1.09-.18 1.09-.17 1.11-.17 1.11-.18 1.11-.16 1.11-.17 1.11-.16 1.1-.16 1.1-.15 1.09-.15 1.09-.13 1.07-.14 1.05-.12 1.05-.12 1.02-.11 1.01-.1 1-.09.97-.09.95-.07.93-.06.9-.05.88-.05.86-.03.83-.02.81-.01h.78l.75.02.72.02.7.04.66.04.64.06.61.06.58.08.56.09.52.09.5.11.47.12.44.12.42.13.39.14.36.15.34.16.31.16.29.17.26.17.25.18.22.18.2.19.18.19.16.19.15.2.12.2.11.21.08.21.07.22.05.21.03.23.02.22v.23l-.02.23-.03.23-.05.23-.07.24-.93 2.12-.39.22-.4.22-.42.22-.43.21-.44.22-.45.22-.47.21-.48.22-.49.21-.51.22-.52.21-.54.21-.54.21-.56.21-.58.2-.59.21-.6.2-.63.21-.63.2-.66.2-.67.2-.68.19-.71.19-.71.18-.73.19-.75.17-.76.17-.78.17-.79.15-.8.15-.81.15-.83.13-.83.13-.85.11-.86.11-.86.1-.88.09-.88.07-.88.07-.89.05-.9.04-.9.03-.9.02h-.9l-.9-.01-.9-.02-.89-.04-.9-.05-.89-.06-.88-.08-.87-.09-.87-.1-.86-.12-.84-.13-.84-.14-.82-.16-.81-.17-.79-.19-.77-.19-.76-.2-.74-.22-.72-.23-.7-.23-.67-.25-.61-.17-.6-.18-.57-.18-.56-.18-.54-.19-.53-.19-.5-.2-.48-.2-.46-.19-.44-.2-.41-.2-.39-.2-.37-.2-.33-.19-.31-.2"/></clipPath><filter id="a"><feTurbulence baseFrequency=".05" numOctaves="3" result="noise" type="noise"/><feDisplacementMap in="SourceGraphic" in2="noise" scale="2"/></filter></defs><rect width="100%" height="100%" x="-100" y="-100" fill="ivory"/><path fill="#FBCEB1" stroke="#000" stroke-linejoin="round" stroke-width="1.667" d="m69.66.75-.12.96.01 1.57.01-.85-.18 3.02.28.29-.33 4.46-.05-.46-.36 4.22.33-2.73-.49 3.99-.46 2.11-.24 2.06.33-1.36-.57 2.92-.03-.91-.63 3.01-.27 2.08.46-1.07-.81 3.37-.34 1.45-.29.54-.28 1.32-.3 1.91-.84 1.52-.46 2.3.45-1.47-.98 2.8-1.22 3.07.13.3.06-.18-1.78 4.14.95-1.94-2 4.26.53-1.45-.85 1.84-.39.93-1.02 2.05.35-.13-1.11 2.2-.79.93-1.33 2.67-.07.04-.35.56-.88 1.47-.48.86-1.42 1.76-.08.4-.38.24-.67 1.04-1.05 1.37-.64 1.14-1.29 1.58-.12-.09-1.22 1.81-1.28 1.67-1.39 1.51-.31-.1-1.44 1.77-.28.05-.51.66-1.92 1.73-1.15 1.19.6-1.05-2.23 2v.09l-1.92 1.43-.64.69-1.23 1-.05-.32-1.53 1.36-.93.62-1.07.49-.16.19-1.41.9-1.1.67-2.07.89 1-.55-2.63 1.34 1.41-.81-3.42 1.43 1.15-.17-2.9 1.04-1.53.4-.39.17-1.68.8-1.17.01 1.49-.32-.83.53-2.93.7-1 .1-2.56.4.71-.24-.13.31-2.34.32-1.36-.06-1.14.07-.89.24-.59-.1-2.19.08-1 .16-.81-.18-.95-.04-.03-.05-2.33-.14-1.32.14-1.35-.33.18-.1-2.45-.3-1.25-.41-.27-.02-.27.04-1.57-.45-1.91-.65-.74-.12-.61.11-.93-.49-1.03-.37-1.2-.19-.83-.68-2.11-.74-.6-.23-2.04-1.06h.19l.31.16-2.44-1.29.23.36-1.02-.49-.71-.56-2.56-1.58-1.41-.96-1.03-.93.21.25-.12-.04-1.28-1.18-2.42-1.91-.79-.48-1.04-.67.14-.11-2.52-2.46.64.49-.81-.76-.98-1.07-1.31-1.1-.42-.44-1.5-1.56-.18-.25-1.52-1.94-.86-.97-.16.22-1.22-2.24-1.61-1.7.02-.21-.34-.85-.91-1.21-.61-.42-.45-1.01-.9-1.87.22.31-1.05-1.37-1.02-1.85-1.21-2.17-.39-.8-.55-1.27-.18-.12-.43-.67-1.24-3.52-.52-.85.16.31-.47-.86-.54-1.3-1.28-2.99-.27-1.03-.41-1.06-.91-2.78.64 1.19-.61-2.14-.21-.26-.73-2.79-.53-1.17-.39-1.65-.55-2.48.12-.11-.11-1.17-.49-1.78-.03.86-.66-3.48-.43-3.38.13.48-.23-1.4.13-.48-.53-3.72-.26-1.08.17 1.38-.27-3.16-.03.62V5.16l-.1.95-.03-.38-.18-3.67.16-2.98.11-1.7-.04 1.65-.11-4.37.12 1.11.31-3.74.02-2.62.03-1.42.22-.15.14-1.29-.05-.88.44-2.39.02.01.28-2.34.31-2.65-.24 2.68.67-4.38.08-.08.51-2.24.04-.73.97-3.22-.32.68.88-3.05-.11-.41.4-.96 1.01-3.54-.17.84.75-1.66.82-2.37.72-1.93.28-.71-.04-.24.52-1.23.56-1.31 1.6-3.42-.51.99.15-.58.64-1.17.65-1.18 1.12-2.25.24-.72 1.65-2.58-.72 1.15 1.03-1.76 1.12-1.74-.36.4 2.34-3.1.25-.38-.33.21 2.1-2.7-.55.24.84-.72 2.01-2.68.53-.51v.21l1.56-2.08.15-.13 1.88-2.16.57-.83.52-.01.85-1.1-.01.19 1.37-1.25 1.31-1.27 1.22-.95.97-.91.76-.57.26.08 2.36-1.91-1.38.85 1.37-1.22 1.24-.67 2.77-1.45.78-.72h-.02l.72-.28 2.27-1.26.68-.47.14-.26 1.56-.41 2.16-1.08.57-.16-.18.21 1.77-.81 1.25-.35-.02-.06 3.92-1.39.06.21-1.21.38 1.81-.48 1.74-.33 1.04-.45 2.24-.18-.21-.23 1.34-.27 1.26.06 1.38-.17.39-.14.4.32 2.39-.25 1.98.06.19-.15.92-.01 2.43.39-1.51-.25 1.83.4 2.39.27.26.09-.11-.44.9.53 3.36.59.21-.08-.35-.22 2.63.74-.01.17 1.33.31 2.73 1.04.27-.01.51.21.39-.05 2.2 1.07.33.29 1.43.3.82.85.75.36.91.06.84.62.69.49 1.24.91 2.77 1.85v-.07l1.44.65-.04.35 2.42 1.6-.37-.26 1.72.87.29.9-.73-.78 2.6 2.12.85.82.52.37 1.41 1.88.32.28.69.31 1.19 1.32 2.25 2.64-1.13-1.31 1.73 1.91.18.31.07.12 1.19 1.22 1.89 2.44.5 1.14 1.52 1.71-.24-.34-.16.28 1.59 2.16.67.86.79 1.75 1.63 2.37-.47-1.03-.22.2 1.26 1.92 1.6 3.22-.02.37.11.15.66 1.57 1.2 2.01.9 2.62-.28-1.06.5 1.59.88 2.79.42.39.38 1.46.87 2.07.03.84.62 1.35.31.86.12.42.33 2.27.49 1.91.02.18.5 1.54.29 1.71.1-.02.61 4.2.17.86.42 3.21.18-.36-.22-.54.47 2.92.2.7.09 3.31.2.67.09.91.1.48-.18.58.17 3.02.12.01.03 3.25.03 2-.12.96" filter="url(#a)"/><path fill="#fff" d="m-30.89-2.08.64-.15.67-.15.71-.15.73-.16.75-.15.78-.16.8-.15.82-.16.84-.15.85-.16.87-.15.88-.16.89-.15.91-.15.91-.16 1.08-.17 1.09-.18 1.09-.17 1.11-.17 1.11-.18 1.11-.16 1.11-.17 1.11-.16 1.1-.16 1.1-.15 1.09-.15 1.09-.13 1.07-.14 1.05-.12 1.05-.12 1.02-.11 1.01-.1 1-.09.97-.09.95-.07.93-.06.9-.05.88-.05.86-.03.83-.02.81-.01h.78l.75.02.72.02.7.04.66.04.64.06.61.06.58.08.56.09.52.09.5.11.47.12.44.12.42.13.39.14.36.15.34.16.31.16.29.17.26.17.25.18.22.18.2.19.18.19.16.19.15.2.12.2.11.21.08.21.07.22.05.21.03.23.02.22v.23l-.02.23-.03.23-.05.23-.07.24-.93 2.12-.39.22-.4.22-.42.22-.43.21-.44.22-.45.22-.47.21-.48.22-.49.21-.51.22-.52.21-.54.21-.54.21-.56.21-.58.2-.59.21-.6.2-.63.21-.63.2-.66.2-.67.2-.68.19-.71.19-.71.18-.73.19-.75.17-.76.17-.78.17-.79.15-.8.15-.81.15-.83.13-.83.13-.85.11-.86.11-.86.1-.88.09-.88.07-.88.07-.89.05-.9.04-.9.03-.9.02h-.9l-.9-.01-.9-.02-.89-.04-.9-.05-.89-.06-.88-.08-.87-.09-.87-.1-.86-.12-.84-.13-.84-.14-.82-.16-.81-.17-.79-.19-.77-.19-.76-.2-.74-.22-.72-.23-.7-.23-.67-.25-.61-.17-.6-.18-.57-.18-.56-.18-.54-.19-.53-.19-.5-.2-.48-.2-.46-.19-.44-.2-.41-.2-.39-.2-.37-.2-.33-.19-.31-.2" filter="url(#a)" transform="translate(31.48 -28.69)"/><path fill="#fff" d="m32.99-2.22-.44-.17-.48-.18-.52-.18-.55-.17-.58-.17-.62-.17-.64-.17-.66-.17-.7-.17-.71-.16-.74-.16-.76-.17-.78-.15-.8-.16-.81-.16-.92-.16-.95-.17-.97-.16-.98-.17-1.01-.17-1.03-.16-1.03-.16-1.05-.16-1.06-.16-1.07-.15-1.07-.15-1.08-.14-1.08-.14-1.07-.13-1.07-.13-1.07-.12-1.06-.11-1.05-.11-1.03-.1-1.03-.08-1.01-.08-.99-.08-.98-.06-.95-.05-.94-.04-.91-.03-.89-.03-.87-.01h-.84l-.82.01-.79.02-.76.03-.74.03-.71.05-.68.06-.65.07-.62.08-.59.08-.57.1-.54.1-.51.11-.48.12-.46.12-.43.13-.4.14-.38.14-.36.15-.33.15-.32.16-.29.15-.28.16-.25.17-.23.17-.22.17-.19.18-.18.18-.16.18-.14.19-.12.19-.11.19-.09.19-.07.2-.06.2-.04.2.77 2.19.31.24.31.25.33.24.33.25.35.25.36.25.37.24.38.25.39.25.4.25.41.25.43.26.43.25.45.25.46.25.47.25.49.25.5.26.51.25.53.25.55.25.55.26.58.25.58.24.61.25.61.24.63.24.65.24.66.22.68.23.69.22.7.21.72.2.73.19.75.19.76.17.77.17.78.15.8.14.81.13.82.11.83.1.84.08.85.07.86.05.87.03.88.02.88-.01.89-.02.9-.04.9-.06.9-.09.91-.1.91-.13.9-.14.91-.17.91-.19.9-.2.9-.23.89-.25.89-.27.87-.28.87-.31.86-.32.71-.2.7-.22.69-.22.68-.23.66-.23.65-.25.62-.24.61-.26.59-.25.56-.26.54-.26.52-.27.49-.26.46-.26.42-.26" filter="url(#a)" transform="translate(-43.3 -33.37)"/><g fill="none" stroke="#000" transform="translate(31.48 -28.69)"><path stroke-linejoin="round" stroke-width="1.667" d="m-35.14-.74.21-.12.26-.12.32-.13.36-.13.42-.13.45-.14.5-.14.54-.14.57-.15.62-.14.64-.15.67-.15.71-.15.73-.16.75-.15.78-.16.8-.15.82-.16.84-.15.85-.16.87-.15.88-.16.89-.15.91-.15.91-.16 1.08-.17 1.09-.18 1.09-.17 1.11-.17 1.11-.18 1.11-.16 1.11-.17 1.11-.16 1.1-.16 1.1-.15 1.09-.15 1.09-.13 1.07-.14 1.05-.12 1.05-.12 1.02-.11 1.01-.1 1-.09.97-.09.95-.07.93-.06.9-.05.88-.05.86-.03.83-.02.81-.01h.78l.75.02.72.02.7.04.66.04.64.06.61.06.58.08.56.09.52.09.5.11.47.12.44.12.42.13.39.14.36.15.34.16.31.16.29.17.26.17.25.18.22.18.2.19.18.19.16.19.15.2.12.2.11.21.08.21.07.22.05.21.03.23.02.22v.23l-.02.23-.03.23-.05.23-.07.24-.08.24-.09.24-.11.24-.12.24-.14.24-.15.24-.16.25-.17.24-.19.25-.2.25" filter="url(#a)"/><path stroke-linejoin="round" stroke-width="2.222" d="m-36.24.39-.02.11.01.13.05.14.09.16.12.16.16.16.19.18.22.18.25.18.29.19.31.2.33.19.37.2.39.2.41.2.44.2.46.19.48.2.5.2.53.19.54.19.56.18.57.18.6.18.61.17.67.25.7.23.72.23.74.22.76.2.77.19.79.19.81.17.82.16.84.14.84.13.86.12.87.1.87.09.88.08.89.06.9.05.89.04.9.02.9.01h.9l.9-.02.9-.03.9-.04.89-.05.88-.07.88-.07.88-.09.86-.1.86-.11.85-.11.83-.13.83-.13.81-.15.8-.15.79-.15.78-.17.76-.17.75-.17.73-.19.71-.18.71-.19.68-.19.67-.2.66-.2.63-.2.63-.21.6-.2.59-.21.58-.2.56-.21.54-.21.54-.21.52-.21.51-.22.49-.21.48-.22.47-.21.45-.22.44-.22.43-.21.42-.22.4-.22.39-.22.37-.21.37-.22.35-.22.34-.22.33-.21.31-.22.31-.21.29-.22.29-.21.27-.22" filter="url(#a)"/><circle cx="-17.438" cy="-.043" r="4.612" clip-path="url(#b)" filter="url(#a)"/><circle cx="-20.308" cy="1.802" r="4.69" clip-path="url(#b)" filter="url(#a)"/><circle cx="-19.628" cy="1.992" r="3.686" clip-path="url(#b)" filter="url(#a)"/><circle cx="-20.498" cy="-1.198" r="4.636" clip-path="url(#b)" filter="url(#a)"/><circle cx="-19.578" cy="1.062" r="4.154" clip-path="url(#b)" filter="url(#a)"/><circle cx="-17.513" cy="-1.293" r="4.506" clip-path="url(#b)" filter="url(#a)"/><circle cx="-18.508" cy="1.297" r="3.812" clip-path="url(#b)" filter="url(#a)"/><circle cx="-18.578" cy="1.212" r="3.498" clip-path="url(#b)" filter="url(#a)"/><circle cx="-17.828" cy="2.717" r="4.3" clip-path="url(#b)" filter="url(#a)"/><circle cx="-17.443" cy=".852" r="4.85" clip-path="url(#b)" filter="url(#a)"/></g><g fill="none" stroke="#000" transform="translate(-43.3 -33.37)"><path stroke-linejoin="round" stroke-width="2.222" d="m35.08-.32.01-.2-.04-.2-.09-.2-.15-.19-.19-.19-.24-.19-.28-.18-.33-.18-.37-.19-.41-.18-.44-.17-.48-.18-.52-.18-.55-.17-.58-.17-.62-.17-.64-.17-.66-.17-.7-.17-.71-.16-.74-.16-.76-.17-.78-.15-.8-.16-.81-.16-.92-.16-.95-.17-.97-.16-.98-.17-1.01-.17-1.03-.16-1.03-.16-1.05-.16-1.06-.16-1.07-.15-1.07-.15-1.08-.14-1.08-.14-1.07-.13-1.07-.13-1.07-.12-1.06-.11-1.05-.11-1.03-.1-1.03-.08-1.01-.08-.99-.08-.98-.06-.95-.05-.94-.04-.91-.03-.89-.03-.87-.01h-.84l-.82.01-.79.02-.76.03-.74.03-.71.05-.68.06-.65.07-.62.08-.59.08-.57.1-.54.1-.51.11-.48.12-.46.12-.43.13-.4.14-.38.14-.36.15-.33.15-.32.16-.29.15-.28.16-.25.17-.23.17-.22.17-.19.18-.18.18-.16.18-.14.19-.12.19-.11.19-.09.19-.07.2-.06.2-.04.2-.03.2-.02.2v.2l.02.2.02.2.04.21.05.2.06.2.07.21.09.2" filter="url(#a)"/><path stroke-linejoin="round" stroke-width="2.222" d="M35.31-.17v.16l-.05.17-.11.19-.15.2-.2.22-.24.22-.28.24-.32.24-.36.25-.4.26-.42.26-.46.26-.49.26-.52.27-.54.26-.56.26-.59.25-.61.26-.62.24-.65.25-.66.23-.68.23-.69.22-.7.22-.71.2-.86.32-.87.31-.87.28-.89.27-.89.25-.9.23-.9.2-.91.19-.91.17-.9.14-.91.13-.91.1-.9.09-.9.06-.9.04-.89.02-.88.01-.88-.02-.87-.03-.86-.05-.85-.07-.84-.08-.83-.1L3.16 8l-.81-.13-.8-.14-.78-.15L0 7.41l-.76-.17-.75-.19-.73-.19-.72-.2-.7-.21-.69-.22-.68-.23-.66-.22-.65-.24-.63-.24-.61-.24-.61-.25-.58-.24-.58-.25-.55-.26-.55-.25-.53-.25-.51-.25-.5-.26-.49-.25-.47-.25-.46-.25-.45-.25-.43-.25-.43-.26-.41-.25-.4-.25-.39-.25-.38-.25-.37-.24-.36-.25-.35-.25-.33-.25-.33-.24-.31-.25-.31-.24-.29-.24-.28-.25-.28-.24-.26-.24-.26-.24-.24-.24-.24-.24-.22-.23-.22-.24-.21-.23" filter="url(#a)"/><circle cx="13.768" cy=".81" r="3.088" clip-path="url(#c)" filter="url(#a)"/><circle cx="12.378" cy="1.045" r="3.446" clip-path="url(#c)" filter="url(#a)"/><circle cx="10.283" cy="-1.875" r="4.616" clip-path="url(#c)" filter="url(#a)"/><circle cx="11.588" cy="2.605" r="3.306" clip-path="url(#c)" filter="url(#a)"/><circle cx="12.428" cy="2.605" r="4.756" clip-path="url(#c)" filter="url(#a)"/><circle cx="12.288" cy="2.105" r="3.088" clip-path="url(#c)" filter="url(#a)"/><circle cx="11.913" cy="1.44" r="3.686" clip-path="url(#c)" filter="url(#a)"/><circle cx="14.608" cy="2.545" r="4.766" clip-path="url(#c)" filter="url(#a)"/><circle cx="11.973" cy=".64" r="3.474" clip-path="url(#c)" filter="url(#a)"/><circle cx="14.298" cy="-.58" r="3.646" clip-path="url(#c)" filter="url(#a)"/></g><g fill="none" stroke="#4682B4" stroke-linejoin="round" stroke-width="2"><path d="m7.69-91.1-21.49 4.95-2.57 2.4 5.48 1.24 7.15.14 6.04-.1 5.15.57 5.25 1.62 5.38 2.4 4.45 2.51 2.41 1.94.11 1-1.46.06-2.04-.53-2.18-.48-3 .26-5.42 1.22-9.29 1.4-12.34-.12-10.56-3.2-1.42-6.29 11.21-7.09 19.14-3.9" filter="url(#a)"/><path d="m-42.38-73.05 54.88 6.06 16.11-.07 3.8-1.3-2.26-2.22-5.66-2.09-6.48-1.31-5.07-.51-2.88.04-1.38.17-1.02-.1L6.41-75l-1.26-1.02-.62-.82.5.19 1.28 1.69.71 2.86-2.01 2.76-6.64.97-11.43-1.77-13.49-3.31-11.36-.5-8.63 5.89" filter="url(#a)"/><path d="m-10.77-90.5 7.5 5.01L.26-76l1.02 4.46-.79-1.28-1.04-3.42-1.29-2.55-1.83-.55-1.92 1.17-1.23 2.15-.04 2.45 1.3 2.34 2.61 1.98 3.97 1.5 5.2.9 5.52.16 3.31-.82-2.73-1.99-11.2-2.83-16.3-2.57-13.19-1.05-18.17 8.1" filter="url(#a)"/><path d="m-54.49-57.08 30.02-13.82 19.27 1.99 15.99 1.05 8.89-1.11 3.2-1.04.88-.07.59.28.2-.44-1.31-1.72-3.64-2.78-5.55-3.08-6.03-2.51-4.7-1.26-2.03.26 1.17 1.68 4.18 2.79 6.54 3.5 7.7 3.93 6.52 4.24 1.51 4.27-6.76 3.53-7.35 2.6 44.04 5.82" filter="url(#a)"/><path d="M-35.13-78.84-.76-62.17l-9.13-1.17-10.76-3.81-3.58-2.34 4.99-1.34 10.64-1.46 10.65-2.16 5.36-2.54-2.34-1.91-8.7-.13-10.66 2.02-6.68 3.34 2.86 3.06 14.76 1.74 22.67 1.21 20.91 4.26 21.59 21.16" filter="url(#a)"/><path d="M65.33-32.48 2.65-61.61l-9.99-10.03 10.12-1.3 11.23.92 6.08.89 2.36.9 1.79 1 2.65.62 2.95-.25 2-.94-.09-.83-3.23-.06-7.33.49-11.15.03-11.55-1.71-5.44-4.14 5.52-6.12 11.91-5.55 9.33-.53" filter="url(#a)"/><path d="m-44.83-70.06 46.99.39 2.91-3.58-8.05-1.65-7.98-1.68-4.38-2.27-1.49-1.85-.22-.35.5 1.51 1.79 3.04 3.66 3.92 5.17 4.03 5.2 3.38 3.23 2.19-.22.85-3.71-.18-5.51-.62-4.63-.65-1.62-.84 1.45-1.77 2.9-3.43 3.49-4.7 6.26-4.32 11.53-3.48 2.14-7.6" filter="url(#a)"/><path d="m31.79-81.42-11.73-3.44-2.81 4.2-5.22 2.96-5.95-.9-3.88-3.11-1.17-3.11 1.13-1.8 2.75-.11 3.39 1.34 2.58 2.28.23 2.62-2.98 2.46-5.83 1.97-7 1.24-5.9.48-2.72-.02 2.15.24 9.35 1.54 19.15 3.96 25.71 7.93 15.71 11.2" filter="url(#a)"/><path d="m-3.33-91.88 8.79 4.75 4.5 6.22-5.98 4.89-6.41 3.09-1.17 1.57 3.51.93 5.66.92 5.82.85 4.62.38 2.38-.23-.3-.48-2.18-.17-2.12.61.1 1.75 2.91 2.87 3.55 2.99.38.7-3.5-4.09-1.85-9.46L1.63-91.9" filter="url(#a)"/><path d="m7.84-91.45-25.29 6.78-8.69 3.71.48.59 2.51-.16 1.71 1.08 1.72 2.87 3.25 3.98 5.21 3.56 6.42 1.46 6.54-1.58 5.73-4.07 4.29-4.67 2.38-2.91-.32.12-6.09 2.44-19.91 3.52-39.17 13.21" filter="url(#a)"/><path d="m29.02-83.27-11.91 6.51-11.67.3-2.96-3.26-1.06-3.32-1.27-2.14-1.02-.95-.52-.08-.22.46.09.68.73.65 1.48.52 1.77.5 1.21.73-.13 1.26-1.78 2.03-3.08 2.74-3.58 2.99-3.28 2.3-2.82.51-2.53-1.77-.92-3.27 5.28-3.41 14.35-4.03 3.56-7.6" filter="url(#a)"/><path d="m47.2-67.39 3.05 12.99-13.95-1.68-15.74-5.35-10.69-3.55-5.22-1.7-.97-1.25 1.98-1.43 3.54-1.48 3.38-1.11 1.46-.52-1.56-.01-4.25.22-4.92.14-2.41-.14 2.66-.61 7.69-1.36 9.46-2.27 6.74-2.84 1.43-2.79-3.91-2.95-9.06-4.33" filter="url(#a)"/><path d="m-24.34-85.97 9.01-.16 12.89-1.01 10.77.82 9.31 3.13 7.29 4.49 4.41 4.46 1.57 3.35-.23 1.64-.99-.08-1.43-1.37-2.39-1.9-3.92-1.56-5.45-.45-6.19.89-5.63 1.77-3.47 1.58.21.13 4.13-1.97 5.77-2.49 9.1 4.33 41.18 27.6" filter="url(#a)"/><path d="m-47.07-67.55 41.71-10.52 20.3 3.52 7.63 6.92 4.52 5.55 3.67 1.7.91-2.52-3.07-5.12-5.85-5.23-5.82-3.4-3.06-.96.92.86 3.98 1.47 4.67 1.05 2.79.3-.6-.06-4.06.26-6.32 1.25-6.2 2.76-2.56 4.86 7.4 8.6 50.48 20.73" filter="url(#a)"/><path d="m-44.98-69.93 54.31 1.88 21.33 7.96-1.53.86-9.37-3.76-7.26-4.89-2.56-4.19.21-2.67-.04-.93-2.18.6-4.34 1.56-4.95 1.93-3.59 1.76-.94 1.29 1.82.62 3.88-.1 5.09-.93 5.71-1.87 6.05-2.58 6.52-2.13 7.69.59 9.64 5.53 10.73 10.13 7.51 9.78" filter="url(#a)"/><path d="m-53.37-58.82 38.3-10.78 3.94-4.07-3.2-2.52-5.77-1.04-4.32-.45.4-.61 5.76-.45 9.2.65 9.62 2.24 7.58 3.24 4.79 2.8 2.62 1.06.84-.61-2.95-.41-12.36 1.91-26.69 2.94-20.93-2.93" filter="url(#a)"/><path d="m-54.49-57.08 51.05-2.31 2.57-10.16.14-6.15 5.12-1.95 7.31-.09 6.03.13 3.55-.15 1.94-.1 1.86.51 2.68 1.37 3.37 2 3.15 1.96 1.81 1.19-.38-.04-2.81-1.18-4.7-1.75-5.42-1.58-4.86-.92-3.79-.43-3.31-.81-3.33-2.26-2.28-4.16-.77-5.06-.97-2.75" filter="url(#a)"/><path d="m35.24-79.15-6.03-2.45 2.86 3.79-.1 4.07-7.06 1.93-12.22-.07-12.38-.76-8.33-.52-3.11-.28.56-.47 1.93-.89 1.84-1.17 1.74-1.13 2.72-.72 5.49.26 10.07 1.86 13.95 2.72 9.96-.51-5.34-7.93" filter="url(#a)"/><path d="m-41.01-74.16 45.25-2.86 9.81-3.69 5.96.93 6.95 3.9 4.77 3.89.06 2.2-4.29.62-6.24.1-5.53.61-3.35 1.49-1.21 2.06-.22 1.94-.73 1.17-2.13.05-3.24-1.06-2.96-2.17-1.45-3.64-.26-5.8-.05-7.61 1.29-6.47 10.54-2.13" filter="url(#a)"/><path d="m-13.17-90.28-18.68 12.71 1.99 2.32 11.8 2.33 14.32 4.12 11.35 3.48 6.45.79 2.84-1.99 1.25-3.32.74-2.63.55-.36.86 2.26 1.95 3.61 3.24 2.57 2.7-.96-3.25-6.05L7.85-81.6l-30.49-5.04" filter="url(#a)"/><path d="M-35.39-78.92.86-80.26l16.86 4.72 4.91 3.59-.77.3-3.7-2.88-5.43-4.35-6.05-4.02-5-2.67-2.33-1.14.36.11.74.98-2.1 1.53-5.03 2.1-.64 3.94 18.66 11.08 54.11 34.91" filter="url(#a)"/><path d="m-46.54-67.85 23.87-12.03 13.23-2.1 9.77 1.43 8.04 1.34 3.99-.06-.27-.8-1.78-.01.04 1.69 3.17 2.99 4.67 2.71 2.8.76-1.72-1.95-5.96-4.06-6.91-4.59-3.69-3.51 1.68-.99 6.63 3.73 14.1 14.1 40.66 39.41M1.44-91.75l1.28-.02 1.85.17 2.13.27 2.2.33 2.25.42 2.36.51 2.51.59 2.67.68 2.76.73 2.75.81 2.66.87 2.54.94 2.47 1.03 2.48 1.12 2.6 1.19 2.79 1.27 2.99 1.32 3.16 1.39 3.24 1.44 3.17 1.49 2.97 1.55 2.71 1.62 2.48 1.69 2.41 1.78 2.55 1.87 2.85 1.97 3.1 2.04 3.11 2.09 2.8 2.12 2.45 2.12 2.48 2.15 3.11 2.25 3.7 2.38 2.56 2.17" filter="url(#a)"/><path d="m-.54-91.81 2.33.06 2.16.19 2.09.24 2.26.29 2.48.34 2.55.42 2.45.5 2.28.59 2.14.67 2.13.77 2.29.86 2.55.96 2.88 1.05 3.18 1.12 3.41 1.2 3.57 1.25 3.62 1.3 3.57 1.36 3.42 1.42 3.21 1.5 2.99 1.58 2.81 1.66 2.73 1.73 2.72 1.78 2.78 1.83 2.84 1.89 2.92 1.94 3.02 2.01 3.24 2.07 3.6 2.13 4.08 2.19 4.66 2.23 5.26 2.27 5.68 2.29 5.38 2.29 3.66 2M-3.72-91.74l-2.39.25-2.29.42-2.25.48-2.27.51-2.35.56-2.45.65-2.5.73-2.5.82-2.53.9-2.68.97-2.93 1.06-3.26 1.13-3.59 1.21-3.81 1.27-3.95 1.35-4 1.41-4.03 1.49-4.02 1.56-3.98 1.63-3.94 1.7-4.01 1.77-4.31 1.83-4.72 1.88-4.88 1.88-4.28 1.82-2.91 1.69-1.62 1.95" filter="url(#a)"/><path d="m-5.1-91.57-3.4.29-2.11.43-2.27.51-2.72.57-2.95.63-2.93.7-2.82.78-2.77.87-2.79.98-2.82 1.06-2.79 1.16-2.77 1.23-2.8 1.29-2.91 1.33-3.09 1.35-3.22 1.39-3.19 1.43-3.04 1.47-2.91 1.53-2.99 1.62-3.38 1.72-3.91 1.83-4.38 1.91-4.84 1.98-5.72 2.21-7.75 2.88" filter="url(#a)"/><path d="m-6.36-91.63-1.82.52-2.29.53-2.18.51-2.07.57-2.06.66-2.1.75-2.12.84-2.13.92-2.12 1-2.1 1.08-2.05 1.15-2 1.23-1.95 1.31-1.92 1.37-1.93 1.45-1.95 1.52-1.97 1.59-1.98 1.66-1.96 1.72-1.91 1.79-1.83 1.84-1.73 1.88-1.64 1.93-1.57 1.99-1.5 2.04-1.46 2.11-1.42 2.16-1.35 2.16-1.26 2.12-1.16 2.04-1.14 2.05-1.18 2.23-1.1 2.13" filter="url(#a)"/><path d="m-9.73-90.95-2.17.6-2 .57-2.03.63-2.01.69-1.99.77-2.01.87-2.04.97-2.07 1.07-2.07 1.16-2.05 1.24-1.99 1.29-1.91 1.32-1.83 1.34-1.75 1.38-1.7 1.41-1.66 1.44-1.62 1.5-1.62 1.57-1.67 1.72-1.73 1.88-1.62 1.89-1.02 1.25" filter="url(#a)"/><path d="m-14.32-89.69-.79.08-2.08.69-2.13.8-2.06.87-2.06.93-2.06 1.02-2.05 1.1-2.04 1.18-2.01 1.24-2.02 1.32-2.05 1.39-2.12 1.47-2.2 1.53-2.3 1.61-2.37 1.67-2.43 1.74-2.46 1.8-2.47 1.85-2.46 1.9-2.44 1.95-2.42 2-2.38 2.05-2.32 2.1-2.21 2.13-2.06 2.14-1.85 2.15-1.65 2.15-1.51 2.2-1.47 2.3-1.59 2.46-1.85 2.64-2.11 2.74-1.84 2.57-.45 1.88" filter="url(#a)"/><path d="m-14.32-89.69-.54.08-2.06.67-2.4.81-2.58.85-2.77.92-2.86 1.01-2.78 1.09-2.59 1.16-2.44 1.23-2.48 1.3-2.77 1.37-3.25 1.44-3.74 1.52-4.09 1.58-4.12 1.66-3.83 1.72-3.26 1.78-2.66 1.83-2.23 1.88-2.16 1.91-2.46 1.96-2.95 2.03-3.44 2.11-3.74 2.2-3.85 2.23-3.81 2.11-3.27 1.69-.98.57" filter="url(#a)"/><path d="m-14.32-89.69-1.51.07-3.05.67-2.91.79-2.44.84-2.2.9-2.26.99-2.46 1.07-2.7 1.14-2.9 1.2-2.98 1.28-2.89 1.34-2.69 1.41-2.5 1.48-2.51 1.55-2.78 1.62-3.31 1.69-3.86 1.76-4.16 1.83-3.99 1.88-3.54 1.93-3.43 1.78-4.01.95" filter="url(#a)"/><path d="m-13.11-90.07-3.78.9-4.04.72-3.28.78-2.33.88-1.89.99-2.1 1.09-2.84 1.18-3.84 1.26-4.77 1.3-5.39 1.33-5.56 1.35-5.33 1.38-4.84 1.42-4.25 1.47-3.69 1.52-3.27 1.61-3.08 1.71-3.13 1.83-3.4 1.9-3.71 1.97-3.97 2.2-4.76 2.86" filter="url(#a)"/><path d="m-13.11-90.07-3.18.91-2.74.74-3.41.81-3.81.91-3.58 1.02-2.97 1.13-2.34 1.22-1.91 1.28-1.73 1.33-1.78 1.37-2.01 1.4-2.28 1.44-2.56 1.49-2.81 1.56-3.02 1.63-3.22 1.7-3.43 1.79-3.64 1.87-3.89 1.93-4.15 1.99-4.37 2.03-4.53 2.08-4.56 2.13-4.45 2.17-4.23 2.22-3.95 2.26-3.7 2.29-3.6 2.32-3.64 2.35-3.86 2.43-4.11 2.54-4.27 2.7-4.22 2.87-3.98 3.01-3.77 3.09-4.03 3.24-5.69 3.8" filter="url(#a)"/><path d="m-13.11-90.07-3.08.9-2.22.73-2.22.79-2.6.89-2.95.99-3.03 1.11-2.83 1.19-2.51 1.26-2.29 1.31-2.24 1.34-2.35 1.37-2.57 1.4-2.79 1.44-2.92 1.49-2.98 1.56-2.99 1.64-2.98 1.74-3.06 1.84-3.18 1.92-3.31 1.99-3.42 2.02-3.49 1.98-3.7 1.86-4.18 1.78-4 2.36" filter="url(#a)"/><path d="m-13.11-90.07-2.9.91-1.97.74-1.81.81-1.87.91-1.88 1.02-1.68 1.13-1.27 1.21-.77 1.28-.36 1.33-.11 1.37-.07 1.39-.15 1.44-.25 1.49-.32 1.55-.38 1.63-.5 1.7-.72 1.79-1.03 1.87-1.31 1.93-1.42 1.98-1.25 2.03-.8 2.08-.14 2.12.58 2.17 1.16 2.22 1.48 2.26 1.52 2.28 1.34 2.31 1.11 2.34.99 2.4 1.07 2.52 1.28 2.7 1.51 2.89 1.71 3 1.62 2.96.67 2.83" filter="url(#a)"/><path d="m-13.17-90.28-3.32 1.23-2.61.93-2.44.87-2.45.93-2.45 1.02-2.39 1.11-2.28 1.18-2.16 1.25-2.07 1.33-2.05 1.39-2.12 1.47-2.24 1.54-2.42 1.61-2.56 1.68-2.68 1.74-2.75 1.81-2.75 1.85-2.69 1.9-2.57 1.96-2.35 2-2.1 2.05-1.82 2.1-1.63 2.12-1.57 2.15-1.66 2.15-1.84 2.17-2.04 2.22-2.2 2.32-2.32 2.45-2.43 2.59-2.52 2.63-2.47 2.53-2.17 2.24-1.59 2.09" filter="url(#a)"/><path d="m-20.09-87.67-3.12.43-2.47.88-2.96 1.04-3.33 1.14-3.36 1.19-3.24 1.27-2.98 1.33-2.63 1.4-2.25 1.48-1.98 1.55-1.95 1.62-2.18 1.69-2.58 1.75-3.02 1.81-3.38 1.86-3.6 1.91-3.69 1.96-3.7 2.01-3.65 2.05-3.57 2.1-3.45 2.13-3.27 2.15-3.03 2.16-2.82 2.19-2.75 2.25-2.91 2.34-3.31 2.44-3.75 2.53-4.01 2.58-3.91 2.56-3.58 2.52-3.57 2.56-4.4 2.73-6.85 2.66" filter="url(#a)"/><path d="m-20.09-87.67-1.38.43-2.03.88-2.18 1.05-2.27 1.14-2.32 1.2-2.27 1.27-2.16 1.34-2.04 1.41-1.97 1.48-1.98 1.56-2.07 1.62-2.23 1.7-2.43 1.76-2.62 1.81-2.73 1.87-2.75 1.92-2.66 1.97-2.48 2.01-2.24 2.07-1.99 2.1-1.77 2.13-1.64 2.16-1.62 2.18-1.73 2.23-1.92 2.27-2.13 2.36-2.28 2.43-2.29 2.51-2.13 2.55-1.84 2.57-1.49 2.57-1.23 2.58-1.25 2.63-1.61 2.71-2.17 2.86-2.6 3.08-2.84 2.93" filter="url(#a)"/><path d="m-19.91-87.88-2.38 1.08-2.21 1.06-2.24 1.14-2.29 1.25-2.23 1.31-2.08 1.35-1.91 1.36-1.79 1.39-1.75 1.42-1.76 1.47-1.79 1.54-1.84 1.61-1.87 1.69-1.9 1.79-1.89 1.86-1.87 1.93-1.83 1.98-1.77 2.02-1.71 2.06-1.64 2.1-1.56 2.16-1.47 2.21-1.38 2.27-1.32 2.28-1.27 2.26-1.24 2.25-1.23 2.28-1.21 2.37-1.24 2.59-1.58 3.35" filter="url(#a)"/><path d="m-19.91-87.88-3.06 1.07-2.65 1.06-2.79 1.14-2.7 1.23-2.55 1.31-2.48 1.34-2.51 1.36-2.61 1.38-2.73 1.41-2.83 1.46-2.91 1.52-2.98 1.6-3.09 1.68-3.2 1.77-3.36 1.85-3.5 1.93-3.65 1.97-3.78 2.01-3.93 2.03-4.14 2.08-4.42 2.13-4.69 2.22-4.79 2.31-4.67 2.31-4.3 2.22-3.43 1.99-.94 1.43" filter="url(#a)"/><path d="m-19.91-87.88-2.66 1.07-3.35 1.06-4.11 1.14-4.26 1.24-3.88 1.31-3.39 1.35-3.1 1.35-2.99 1.39-2.96 1.41-2.93 1.47-2.89 1.52-2.88 1.6-2.96 1.69-3.21 1.77-3.66 1.86-4.27 1.93-4.85 1.98-5.15 2.01-5.03 2.04-4.55 2.08-4.03 2.15-3.86 2.22-4.32 2.28-5.32 2.3-6.18 2.24-5.86 2.19-3.79 2.31-2.29 3.15" filter="url(#a)"/><path d="m-20.48-87.72-6.59 1.23-3.86 1.12-5.48 1.15-6.07 1.19-5.29 1.24-4.27 1.31-3.69 1.38-3.6 1.46-3.79 1.52-4.12 1.59-4.45 1.67-4.66 1.72-4.55 1.79-4.04 1.84-3.17 1.87-2.33 1.92-2.03 1.96-2.71 2.02-4.32 2.11-6.25 2.16-7.37 2.18-6.9 2.09-5.16 1.94-3.74 1.95-3.33 3.06" filter="url(#a)"/><path d="m-24.2-86.23-3.07.92-3.76 1.12L-34.7-83l-3.48 1.24-3.05 1.31-2.47 1.39-1.96 1.46-1.76 1.53-1.92 1.6-2.34 1.67-2.84 1.73-3.26 1.79-3.6 1.84-3.93 1.88-4.34 1.92-4.73 1.97-4.84 2.03-4.49 2.1-3.77 2.15-3.11 2.16-3.04 2.09-3.68 2.02-4.44 2.02-4.3 2.21-3.6 2.11" filter="url(#a)"/><path d="m-24.2-86.23-1.66.92-2.24 1.11-2.66 1.19-2.78 1.24-2.64 1.31-2.44 1.38-2.3 1.46-2.26 1.53-2.25 1.59-2.21 1.66-2.16 1.73-2.15 1.79-2.25 1.84-2.47 1.87-2.72 1.91-2.87 1.96-2.86 2.02-2.68 2.11-2.52 2.16-2.62 2.18-3.11 2.08-3.78 1.93-3.96 1.95-3.26 3.06" filter="url(#a)"/><path d="m-24.34-85.97-2.45 1.32-2.8 1.26-3.09 1.35-2.67 1.36-2.11 1.35-1.83 1.35-1.85 1.39-2.03 1.44-2.28 1.5-2.53 1.57-2.76 1.66-2.95 1.75-3.04 1.85-3 1.92-2.86 1.98-2.76 1.99-2.79 1.99-3.02 1.99-3.39 2.06-3.74 2.26-3.6 2.47-1.58 2.17" filter="url(#a)"/><path d="m-27.29-84.24-4.76.88-6.78 1.4-4.4 1.42-2.23 1.37-1.11 1.38-.68 1.43-.64 1.49-1 1.56-1.69 1.63-2.62 1.73-3.59 1.81-4.42 1.9-4.91 1.95-4.98 2.01-4.65 2.05-4.07 2.09-3.45 2.13-2.93 2.18-2.61 2.23-2.44 2.26-2.31 2.3-2.19 2.35-2.11 2.39-2.26 2.48-2.8 2.58-3.73 2.71-4.83 2.8-5.67 2.87L-123-26l-5.24 2.76-4.19 2.56-3.2 2.35-2.54 2.21-2.14 2.2-3.34 1.91" filter="url(#a)"/><path d="m-27.99-83.96-3.49 1.92-2.32 1.55-1.83 1.35-1.74 1.34-1.85 1.4-2.07 1.47-2.3 1.54-2.48 1.62-2.56 1.7-2.52 1.8-2.4 1.89-2.24 1.94-2.05 2-1.87 2.02-1.74 2.06-1.67 2.11-1.64 2.16-1.64 2.21-1.64 2.25-1.59 2.28-1.54 2.28-1.52 2.29-1.64 2.36-1.93 2.48-2.3 2.69-2.63 2.93-2.67 3.07-1.72 2.8" filter="url(#a)"/><path d="m-27.99-83.96-2.99 1.93-2.22 1.56-1.92 1.36-1.95 1.36-1.98 1.43-1.95 1.49-1.89 1.56-1.87 1.65-1.89 1.73-1.95 1.83-1.99 1.9-2.01 1.97-1.98 2.01-1.93 2.06-1.85 2.1-1.75 2.14-1.62 2.19-1.49 2.23-1.35 2.27-1.25 2.32-1.19 2.36-1.19 2.42-1.23 2.51-1.28 2.59-1.31 2.7-1.31 2.77-1.25 2.81-1.16 2.79-1.07 2.71-1.01 2.58-.99 2.46-1.02 2.39-1.04 2.42-1 2.54-.9 2.71-.86 2.79-.92 2.7" filter="url(#a)"/><path d="M-31.54-81.79-34-80.27l-1.94 1.22-1.8 1.28-1.84 1.4-1.78 1.48-1.67 1.54-1.63 1.62-1.71 1.71-1.86 1.8-2.03 1.9-2.14 1.95-2.18 2-2.14 2.03-2.02 2.06-1.89 2.11-1.75 2.16-1.66 2.22-1.6 2.25-1.61 2.28-1.66 2.28-1.71 2.32-1.74 2.38-1.77 2.51-1.77 2.69-1.76 2.87-1.7 2.99-1.45 2.93-.6 2.81M68.38-16.2l1.27.67 1.04 2.26.32 2.69.01 2.77-.03 2.75.05 2.7.19 2.67.32 2.68.4 2.73.4 2.79.34 2.84.25 2.87.17 2.87.16 2.85.15 2.84.15 2.81.05 2.8-.11 2.78-.34 2.76-.56 2.73-.7 2.68-.74 2.6-.7 2.5-.62 2.39-.59 2.29-.64 2.21-.77 2.16-.93 2.1-1.12 2.02-1.3 1.91-1.33 1.81-.9 1.53m6.11-79.06-1.16.63-1.67 2.22-.63 2.66.23 2.74.44 2.73.26 2.67-.02 2.62-.24 2.63-.38 2.67-.48 2.75-.55 2.82-.66 2.85-.81 2.85-.98 2.83-1.13 2.8-1.27 2.79-1.39 2.76-1.55 2.75-1.77 2.72-1.95 2.72-1.93 2.74-1.72 2.92-2.07 3.46M-32.78-81.12l-1.81.82-3.39 1.33-4.25 1.51-4.93 1.57-4.97 1.62-4.16 1.68-2.86 1.75-1.68 1.81-1.04 1.86-1.11 1.89-1.75 1.94-2.73 1.98-3.74 2.03-4.51 2.1-4.82 2.13-4.6 2.13-4.04 2.11-3.47 2.1-3.31 2.13-3.86 2.26-4.94 2.44-6.01 2.69-6.76 2.93-8.66 2.9" filter="url(#a)"/><path d="m-32.77-80.75-3.79 1.7-4.82 1.65-3.1 1.63-1.5 1.65-1.23 1.71-2 1.79-3.18 1.85-4.16 1.9-4.6 1.94-4.41 1.97-3.75 2.03-2.92 2.08-2.18 2.11-1.69 2.15-1.45 2.17-1.43 2.2-1.49 2.23-1.57 2.3-1.62 2.37-1.69 2.44-1.77 2.5-1.94 2.55-2.18 2.57-2.47 2.59-2.73 2.62-2.84 2.66-2.77 2.71-2.48 2.76-2.11 2.79-1.8 2.83-1.76 2.9-2.04 3.05-2.36 3.19-2.52 2.89-4 1.35" filter="url(#a)"/><path d="m-32.77-80.75-4.38 1.67-3.28 1.63-1.63 1.59-1.46 1.61-2.18 1.67-2.92 1.76-3.3 1.81-3.27 1.85-3.06 1.89-2.82 1.92-2.66 1.97-2.61 2.03-2.62 2.09-2.64 2.14-2.62 2.13-2.57 2.09-2.52 2.06-2.43 2.09-2.23 2.21-1.84 2.41-1.72 2.69-3.88 3.33" filter="url(#a)"/><path d="m-35.13-78.84-5.93.98-5.13 1.49-2.37 1.57-1.61 1.57-1.7 1.62-1.76 1.73-1.75 1.84-1.9 1.93-2.21 1.98-2.51 2.02-2.61 2.06-2.5 2.09-2.27 2.13-2.1 2.19-2.07 2.23-2.16 2.27-2.3 2.31-2.44 2.34-2.57 2.41-2.77 2.49L-88.9-37l-3.61 2.7-4.19 2.79-4.67 2.83-4.85 2.8-4.54 2.71-3.75 2.56-2.83 2.42-2.34 2.34-2.67 2.37-3.62 2.54-4.28 2.77-2.04 2.83" filter="url(#a)"/><path d="m-35.13-78.84-2.32.98-1.87 1.49-2.15 1.56-2.55 1.57-2.75 1.62-2.73 1.73-2.56 1.84-2.29 1.92-1.99 1.98-1.68 2.02-1.4 2.05-1.22 2.09-1.13 2.13-1.15 2.18-1.22 2.23-1.34 2.27-1.49 2.3-1.66 2.34-1.85 2.4-2.02 2.48-2.16 2.59-2.2 2.7-2.16 2.79-2.08 2.85-1.97 2.83-1.86 2.72-1.71 2.56-1.55 2.38-1.48 2.27-1.6 2.31-2.01 2.52-2.95 3.17m61.1-70.87-.48.98-.62 1.5-.45 1.57-.41 1.57-.76 1.63-1.08 1.74-1.15 1.84-1.04 1.93-.93 1.98-.94 2.03-1.01 2.06-1.04 2.1-.94 2.14-.73 2.19-.45 2.24-.2 2.27.02 2.32.18 2.36.33 2.43.53 2.5.81 2.6 1.16 2.7 1.56 2.77 1.93 2.8 2.22 2.77 2.39 2.69 2.45 2.58 2.41 2.47 2.27 2.42 2.06 2.45 1.81 2.56 1.51 2.73 1.08 2.91.84 3.19 2.57 3.88" filter="url(#a)"/><path d="m-35.13-78.84-6.28.96-4.25 1.48-2.23 1.56-1.6 1.55-1.94 1.6-2.57 1.71-3.15 1.81-3.58 1.91-3.79 1.96-3.77 2.01-3.59 2.03-3.44 2.05-3.52 2.11-3.93 2.15-4.63 2.22-5.44 2.25-6.12 2.27-6.47 2.28-6.36 2.31-5.76 2.38-4.88 2.5-4.04 2.68-3.61 2.88-3.87 2.98-4.79 2.92-5.3 2.8m108.91-55.36-1.48.96-1.97 1.47-2 1.55-1.98 1.55-1.91 1.59-1.8 1.69-1.67 1.81-1.63 1.9-1.7 1.96-1.8 1.99-1.86 2.02-1.87 2.05-1.85 2.09-1.84 2.14-1.86 2.21-1.84 2.26-1.75 2.26-1.57 2.26-1.43 2.25-1.44 2.3-1.63 2.43-1.86 2.67-2 3.04-1.87 3.4" filter="url(#a)"/><path d="m-35.13-78.84-2.8.96-3.04 1.48-2.34 1.56-2.07 1.55-2.09 1.6-2.07 1.71-1.86 1.81-1.62 1.91-1.54 1.96-1.7 2.01-2.05 2.03-2.45 2.05-2.82 2.11-3.07 2.15-3.16 2.22-3.13 2.25-3.02 2.27-2.94 2.28-2.98 2.31-3.23 2.38-3.68 2.5-4.11 2.68-4.08 2.88-3.2 2.98-1.77 2.92-2.12 2.8" filter="url(#a)"/><path d="m-37.12-77.44-1.69 1.77-.98 1.54-1.11 1.65-1.32 1.78-1.26 1.84-.99 1.87-.64 1.89-.37 1.93-.23 1.98-.19 2.03-.22 2.1-.33 2.13-.49 2.13-.7 2.11-.84 2.1-.84 2.15-.64 2.27-.23 2.45.33 2.62.79 2.7.99 2.53.56 1.83" filter="url(#a)"/><path d="m-38.34-76.49-2.81 1.92-1.94 1.46-1.6 1.54-1.5 1.72-1.57 1.88-1.66 1.96-1.7 2-1.69 2.04-1.67 2.07-1.65 2.1-1.63 2.14-1.57 2.2-1.47 2.24-1.32 2.28-1.17 2.33-1.04 2.36-.99 2.44-.99 2.51-1.06 2.61-1.15 2.7-1.22 2.76-1.24 2.78-1.21 2.75-1.1 2.68-.98 2.58-.86 2.51-.77 2.47-.73 2.5-.7 2.62-.67 2.79-.64 3-.59 3.25-.47 3.5-.25 3.64-.19 3.34" filter="url(#a)"/><path d="m-39.65-75.22-1.44 1.17-1.75 1.6-2.36 1.82-3.38 1.87-4.39 1.89-4.84 1.9-4.61 1.94-4.07 2-3.63 2.05-3.5 2.11-3.58 2.13-3.78 2.14-3.9 2.13-3.89 2.15-3.76 2.21-3.63 2.32-3.63 2.43-3.8 2.53-3.97 2.57-3.91 2.52-3.68 2.48-3.52 2.53-3.24 2.71-1.64 2.62" filter="url(#a)"/><path d="m-41.02-73.97-1.02.99-1.44 1.39-1.94 1.72-2.55 1.91-3.05 1.99-3.21 2.02-3 2.05-2.61 2.07-2.22 2.1-1.89 2.15-1.57 2.2-1.24 2.24-.94 2.29-.73 2.33-.67 2.38-.78 2.44-1.02 2.52-1.31 2.62-1.53 2.7-1.61 2.75-1.53 2.77-1.34 2.74-1.1 2.67-.92 2.6-.9 2.53-1.02 2.51-1.26 2.55-1.52 2.67-1.73 2.82-1.79 3.01-1.75 3.2-1.64 3.31-1.54 3.27-1.46 2.95-1.15 2.17-.38.76M67.96-19.41l-8.43 2.71-2.64 2.68-.5 2.55-.36 2.5.04 2.6.56 2.79.49 2.95-.33 3.06-1.42 3.08-2.24 3.04-2.41 2.94-1.98 2.83-1.27 2.69-.63 2.59-.32 2.53-.41 2.49-.76 2.5-1.18 2.52-1.51 2.53-1.63 2.52-1.54 2.5-1.32 2.47-1.16 2.44-1.16 2.41-1.4 2.4-1.83 2.4-2.32 2.39-2.75 2.36-3.03 2.3-3.11 2.21-2.88 2.1-2.28 2.04-1.52 2.03-1.25 2.14-2.2 2.3-3.84 2.67m60.52-91.26.51 2.71.4 2.68.29 2.55.19 2.5.11 2.6.06 2.79.02 2.95-.03 3.06-.08 3.08-.13 3.04-.18 2.94-.23 2.83-.28 2.69-.35 2.59-.41 2.53-.48 2.49-.56 2.5-.64 2.52-.69 2.53-.75 2.52-.79 2.5-.84 2.47-.89 2.44-.94 2.41-1.02 2.4-1.08 2.4-1.15 2.39-1.22 2.36-1.27 2.3-1.3 2.21-1.33 2.1-1.37 2.04-1.44 2.03-1.58 2.14-1.77 2.3-2.21 2.67" filter="url(#a)"/><path d="m-41.01-74.16-1.77 1.63-2.15 1.98-2.63 1.94-3.63 1.92-4.5 1.94-4.62 1.98-4 2.03-3.01 2.09-2.02 2.14-1.26 2.16-.74 2.18-.48 2.2-.47 2.24-.69 2.3-1.13 2.38-1.75 2.46-2.48 2.51-3.21 2.55-3.9 2.58-4.48 2.61-4.94 2.64-5.3 2.67-5.53 2.72-5.56 2.77-5.33 2.81-4.8 2.87-4.02 2.93-3.21 2.99-2.57 3.02-2.24 3-2.09 2.88-1.84 2.68-1.18 2.44-.22 2.22-1.35 2.04" filter="url(#a)"/><path d="m-41.86-73.06-6.78 1.27-1.54 1.79-1.54 1.95-1.73 2-1.69 2-1.85 2.02-2.33 2.03-3.04 2.05-3.78 2.1-4.29 2.16-4.37 2.22-4.02 2.26-3.51 2.27-3.31 2.29-3.73 2.33-4.71 2.4-5.88 2.54-6.88 2.69-7.58 2.85-7.95 2.95-7.8 2.98-6.74 2.92-5 2.6-.93 1.34m100.98-54.01-1.6 1.28-2.17 1.8-2.01 1.97-1.77 2.01-1.7 2.01-1.72 2.04-1.73 2.04-1.68 2.08-1.6 2.12-1.54 2.17-1.51 2.24-1.5 2.27-1.51 2.29-1.52 2.33-1.52 2.38-1.51 2.47-1.47 2.58-1.39 2.71-1.28 2.8-1.16 2.85-1.02 2.82-.87 2.71-.72 2.53-.65 2.36-.72 2.26-.89 2.3-.97 2.51-.84 3.16" filter="url(#a)"/><path d="m-46.54-67.85-1.35 1.23-1.69 1.95-1.61 1.99-1.75 2.01-1.96 2.1-2.07 2.16-1.98 2.18-1.73 2.18-1.45 2.17-1.21 2.22-1.11 2.29-1.13 2.37-1.22 2.46-1.29 2.52-1.29 2.56-1.2 2.57-1.08 2.6-.97 2.62-.92 2.66-.95 2.71-1 2.76-1.05 2.8-1.04 2.86-1 2.92-.94 3-.88 3.04-.81 3.03-.67 2.91-.52 2.69-.62 2.38-1.19 2.47" filter="url(#a)"/><path d="m-46.54-68.06-1.8 2.36-1.32 1.95-1.15 2.02-1 2.06-.92 2.08-.99 2.12-1.1 2.2-1.18 2.26-1.14 2.29-1.02 2.33-.86 2.35-.72 2.42-.62 2.51-.58 2.61-.56 2.72-.57 2.77-.54 2.79-.49 2.75-.41 2.66-.32 2.57-.23 2.49-.17 2.46-.11 2.52-.07 2.63-.01 2.8.09 3.01.25 3.23.43 3.4.48 3.45.32 3.24.17 2.73m16.14-79.78-2.15 2.35-1.83 1.95-1.92 2.03-1.88 2.05-2 2.07-2.38 2.13-2.91 2.19-3.35 2.26-3.63 2.29-3.69 2.32-3.6 2.35-3.36 2.41-2.99 2.5-2.58 2.61-2.22 2.71-1.94 2.78-1.75 2.8-1.55 2.75-1.28 2.66-.95 2.56-.66 2.48-.58 2.44-.79 2.49-1.26 2.6-1.89 2.78-2.6 3-3.37 3.24-4.07 3.5-4.25 3.62-2.63 3.32" filter="url(#a)"/><path d="m-46.54-68.06-1.97 2.36-1.48 1.97-1.56 2.03-1.69 2.06-1.81 2.09-2.04 2.14-2.46 2.2-3.02 2.27-3.5 2.31-3.75 2.33-3.69 2.38-3.39 2.44-2.97 2.53-2.53 2.63-2.06 2.71-1.51 2.77-.88 2.77-.25 2.73.21 2.66.36 2.6.1 2.54-.46 2.54-1.16 2.6-1.8 2.71-2.19 2.84-2.32 2.99-2.26 3.09-2.08 3.13-1.87 3.04-1.58 2.82-1.08 2.54-.4 2.34.11 2.42-.19 3.04-1.34 4.84" filter="url(#a)"/><path d="m-49.37-64.39-1.85 2.54-1.62 2.29-1.36 2.06-1.3 2.06-1.32 2.18-1.34 2.28-1.31 2.3-1.26 2.31-1.21 2.32-1.16 2.38-1.15 2.47-1.12 2.6-1.1 2.72-1.03 2.8-.92 2.82-.8 2.77-.67 2.66-.57 2.53-.52 2.41-.53 2.37-.56 2.42-.59 2.54-.55 2.71-.39 2.9-.18 3.16-.35 3.85m22.66-63.75-.72 1.04-1.4 2.03-1.74 2.28-2 2.25-2.24 2.16-2.33 2.1-2.26 2.14-2.11 2.23-2.04 2.35-2.16 2.46-2.4 2.53-2.57 2.55-2.5 2.54-2.17 2.54-1.67 2.56-1.21 2.62-.91 2.68-.83 2.74-.95 2.75-1.3 2.69-1.68 2.67-1.79 3-1.71 4.55" filter="url(#a)"/><path d="m-53.73-58.42-.86 1.27-1.26 1.74-1.36 2.19-1.28 2.34-1.2 2.35-1.21 2.3-1.34 2.29-1.59 2.36-1.89 2.46-2.1 2.6-2.12 2.73-1.88 2.81-1.46 2.83-1.03 2.76-.74 2.65-.73 2.52-.91 2.39-1.18 2.36-1.37 2.4-1.35 2.54-1.14 2.71-.9 2.89-.72 3.15-.41 3.84" filter="url(#a)"/><path d="m-54.49-57.08-.85 1.51-1.4 2.37-1.49 2.5-1.42 2.41-1.32 2.33-1.3 2.34-1.41 2.42-1.58 2.53L-67-36l-1.84 2.76-1.78 2.8-1.58 2.8-1.26 2.73-.91 2.66-.62 2.59-.43 2.56-.34 2.57-.31 2.64-.28 2.75-.26 2.86-.25 2.95-.27 3.01-.33 3-.39 2.92-.39 2.82-.32 2.7-.17 2.63-.01 2.62.08 2.67.06 2.71-.02 2.76-.06 2.8.07 2.86.32 2.9.41 2.65.12 1.96" filter="url(#a)"/><path d="m-54.49-57.08-2.06 1.49-4.38 2.35-4.34 2.48-2.72 2.4-1.01 2.31-.02 2.31.13 2.37-.23 2.5-.8 2.63-1.29 2.75-1.61 2.81-1.7 2.81-1.58 2.74-1.31 2.65-1.06 2.54-.91 2.48-.95 2.47-1.11 2.53-1.34 2.66-1.55 2.83-1.73 3.01-1.9 3.15-2.03 3.23-2.03 3.15-1.81 2.85-1.43 2.38-.85 2.03.29 2.79m41.33-72.7 1.85 1.49-1.44 2.35-1.13 2.48.2 2.4 1.69 2.31 2.68 2.31 2.75 2.37 1.92 2.5.64 2.63-.47 2.75-.95 2.81-.67 2.81.1 2.74.93 2.65 1.42 2.54 1.46 2.48 1.21 2.47 1.02 2.53 1.19 2.66 1.79 2.83 2.59 3.01 3.31 3.15 3.65 3.23 3.6 3.15 3.12 2.85 2.26 2.38 1.89 2.03 4.39 2.79" filter="url(#a)"/><path d="m-54.8-56.47-3.09 3.07-2.29 2.71-1.12 2.41-.9 2.26-1.19 2.25-1.52 2.32-1.63 2.46-1.53 2.62-1.35 2.74-1.17 2.83-1.04 2.83-.95 2.76-.87 2.64-.85 2.49-.9 2.4-1.01 2.37-1.09 2.43-1.06 2.56-.9 2.73-.72 2.96-.64 3.22-.78 3.6-.93 3.92M67.18-24.47l2.65 4.13 4.51 3.23 2.89 2.85 1.32 2.62.76 2.55.5 2.62.09 2.77-.34 2.93-.57 3.03-.49 3.06-.17 3.04.33 2.94.87 2.83 1.4 2.69 1.86 2.58 2.11 2.51 2.11 2.48 1.84 2.49 1.36 2.51.8 2.53.25 2.54-.28 2.51-.73 2.46-1.11 2.41-1.27 2.38-1.12 2.37-.61 2.41.06 2.45.44 2.47.01 2.47-1.32 2.39-1.82 2.4" filter="url(#a)"/><path d="m-56.69-53.17-1.15 2.8-.45 2.32-.01 2.21.01 2.23-.1 2.33.01 2.49.38 2.66.89 2.77 1.26 2.84 1.36 2.83 1.21 2.74.96 2.64.79 2.53.79 2.46.98 2.47 1.19 2.54 1.35 2.67 1.41 2.84 1.47 3 1.61 3.13 1.94 3.17 2.38 3.07 2.82 2.8 3.05 2.43 2.85 2.1 2.17 1.99 1.93 1.65m-32.87-66.28-2.05 1.91-2.41 2.1-3.38 2.19-4.13 2.32-3.71 2.5-2.35 2.67-.79 2.81.27 2.86.58 2.83.13 2.75-.76 2.63-1.79 2.53-2.64 2.47-3.17 2.49-3.38 2.56-3.39 2.7-3.36 2.85-3.44 2.99-3.61 3.09-3.75 3.09-3.66 2.99-3.12 2.79-2.17 2.55-1.24 2.41-.99 2.51-1.75 2.85-2.84 3.2-3.55 2.42m65.81-72.89-.15 1.08-.86 2.29-.85 2.56-.64 2.64-.42 2.64-.24 2.6-.09 2.56.01 2.57.07 2.6.06 2.67.02 2.72-.01 2.77.02 2.82.08 2.86.15 2.92.15 2.95.11 2.94.04 2.9-.01 2.8.03 2.69.18 2.6.4 2.6.65 2.64.88 2.73 1.1 2.74 1.43 2.65 2.09 2.57" filter="url(#a)"/><path d="m-59.1-48.57-.16 1.09-.43 2.3-.54 2.58-.7 2.65-.59 2.65-.19 2.61.35 2.58.84 2.59 1.1 2.62 1.06 2.69.77 2.74.37 2.78.05 2.84-.07 2.89.03 2.91.27 2.94.48 2.93.56 2.87.49 2.81.35 2.72.33 2.67.49 2.65.85 2.67 1.26 2.69 1.59 2.7 1.74 2.7 1.63 2.69 1.29 2.68.81 2.69.42 2.73.21 2.86" filter="url(#a)"/><path d="m-59.1-48.57.83 1.1-.18 2.3.09 2.59.29 2.66.06 2.65-.32 2.61-.53 2.59-.46 2.59-.23 2.64.01 2.69.2 2.74.42 2.8.78 2.85 1.28 2.88 1.83 2.93 2.29 2.93 2.56 2.92 2.61 2.87 2.49 2.81 2.34 2.74L-40.53 7l2.17 2.67 2.21 2.67 2.34 2.69 2.56 2.7 2.84 2.7 3.05 2.69 3.04 2.66 2.7 2.63 2.27 2.56 2.29 2.45 2.74 2.4 2.04 2.92m-48.97-86.73-1.03 2.27-.97 2.18-.94 2.26-.96 2.46-1.03 2.66-1.1 2.81-1.15 2.88-1.13 2.85-1.04 2.75-.9 2.61-.73 2.48-.57 2.39-.49 2.38-.44 2.46-.44 2.61-.46 2.79-.43 3-.41 3.21-.38 3.38-.31 3.41-.13 3.18.12 2.69" filter="url(#a)"/><path d="m-59.25-47.99-.89 2.31-.79 2.21-.8 2.32-.83 2.52-.78 2.72-.63 2.84-.43 2.89-.24 2.85-.09 2.75-.04 2.64-.05 2.54-.1 2.51-.15 2.54-.14 2.62-.06 2.75.07 2.86.26 2.97.43 3.02.56 3 .62 2.92.62 2.8.56 2.69.48 2.63.4 2.61.35 2.66.41 2.71.57 2.75.83 2.79 1.12 2.81 1.29 2.78 1.22 2.58 1.07 2.22 1.48 1.95m-5.81-88.75-2.57 3.56-2.35 2.78-2.69 2.69-3.17 2.65-2.88 2.59-1.91 2.54-.9 2.54-.33 2.58-.27 2.65-.54 2.71-.87 2.76-1.12 2.8-1.32 2.85-1.47 2.91-1.61 2.95-1.77 2.97-1.95 2.91-2.19 2.8-2.42 2.65-2.56 2.53-2.55 2.51-2.53 2.66-2.94 2.87-4 2.54" filter="url(#a)"/><path d="m-60.34-45.56-14.99 2.17.37 2.25.17 2.52-1.2 2.75-1.63 2.88-1.85 2.93-2.14 2.87-2.3 2.76-2.08 2.63-1.6 2.54-1.18 2.51-1.24 2.55-1.89 2.63-2.95 2.76-4.03 2.87-4.69 2.97-4.65 3.01-3.84 2.98-2.49 2.91-.9 2.8.58 2.71 1.64 2.66 2.04 2.64 1.74 2.67.83 2.71-.4 2.75-1.49 2.76-2.11 2.75-2.15 2.7-1.83 2.63-1.5 2.53-1.26 2.47-.86 2.48.01 2.57.01 3.22m59.86-94.54 1.5 2.17 1.85 2.25 1.74 2.53 1.26 2.75.35 2.89-.35 2.92-.4 2.87.14 2.76.97 2.64 1.77 2.54 2.28 2.52 2.39 2.55 2.08 2.64 1.43 2.76.65 2.88-.04 2.96-.4 3-.33 2.98.15 2.9.85 2.81 1.58 2.72 2.14 2.67 2.52 2.65 2.73 2.68 2.8 2.71 2.77 2.74 2.61 2.75 2.31 2.74 1.97 2.7 1.77 2.62 1.77 2.55 1.89 2.48 1.87 2.47 1.58 2.45 1.76 2.37 4.35 1.71" filter="url(#a)"/><path d="m-60.9-44.25-4.34 1.9-3.34 2.54-.68 2.67.21 2.6-.23 2.53-1.16 2.54-2.03 2.59-2.61 2.67-2.9 2.72-2.93 2.78-2.72 2.82-2.35 2.87-1.93 2.91-1.55 2.95-1.3 2.93-1.15 2.89-1.05 2.79-1.02 2.69-1.09 2.61-1.3 2.6-1.64 2.64-1.94 2.7-1.92 2.72-1.37 2.68-.68 2.66-1.41 2.74" filter="url(#a)"/><path d="m-61.42-43.02-9.34 1.78.66 2.47 1.66 2.73.51 2.89-.87 2.94-2.01 2.88-2.71 2.76-2.92 2.59-2.81 2.45-2.66 2.38-2.66 2.4-2.78 2.49-2.8 2.64-2.58 2.82-2.15 3.01-1.7 3.16L-98 2.59l-1.48 3.12-1.97 2.81-2.79 2.33-3.66 2-4.86 2.77" filter="url(#a)"/><path d="m-61.38-42.78-1.63 2.88-1.91 2.88-1.89 2.63-2.17 2.51-2.57 2.52-2.88 2.6-3.11 2.67-3.24 2.74-3.21 2.79-2.97 2.83-2.47 2.87-1.8 2.92L-92.34-7l-.7 2.93-.76 2.88-1.23 2.78-1.87 2.7-2.21 2.64-2.05 2.62-1.5 2.65-1.02 2.68-1.18 2.7-2.05 2.69-3.09 2.67-3.45 2.65-2.81 2.65-.96 2.66m55.84-73.68-1.12 2.9-1.09 2.91-.9 2.65-.79 2.54-.8 2.55-.85 2.63-.88 2.71-.87 2.77-.78 2.82-.66 2.86-.54 2.91-.45 2.93-.4 2.94-.37 2.92-.34 2.87-.31 2.8-.25 2.74-.14 2.71v2.68l.14 2.68.24 2.69.29 2.7.27 2.69.23 2.67.2 2.66.26 2.64.36 2.63.53 2.63.68 2.64.79 2.63.83 2.59.8 2.49.75 2.39.76 2.33.86 2.35.9 2.54" filter="url(#a)"/><path d="m-61.66-42.07-1.22 3.25-1.03 2.83-.95 2.95-.86 2.99-.77 2.91-.67 2.76-.58 2.58-.48 2.44-.4 2.38-.33 2.41-.26 2.52-.23 2.67-.21 2.85-.17 3.01-.16 3.12-.11 3.13-.05 3 .02 2.76.08 2.45.15 2.26.22 2.38.36 3.02.78 4.8m4.58-59.51-1.03 2.27-1.19 2.2-1.37 2.43-1.49 2.61-1.84 2.71-2.25 2.77-2.3 2.81-1.87 2.84-1.14 2.89-.49 2.93-.12 2.95-.07 2.93-.24 2.86-.5 2.79-.77 2.71-1.03 2.66-1.29 2.64-1.51 2.66-1.69 2.68-1.75 2.69-1.63 2.68-1.31 2.67-.85 2.65-.51 2.61-.53 2.56-.98 2.53-1.4 2.6-.65 2.94 2.3 3.6" filter="url(#a)"/><path d="m-64.79-33.41-2.28 1.77-2.31 2.41-1.07 2.66-.64 2.73-.88 2.78-1.34 2.82-1.84 2.84-2.38 2.89-2.88 2.93-3.19 2.95-3.15 2.93-2.73 2.87-2.09 2.77-1.54 2.7-1.24 2.65-1.18 2.64-1.21 2.66-1.15 2.67-.98 2.69-.86 2.68-1.03 2.67-1.56 2.64-2.24 2.61-2.62 2.56-2.29 2.52-1.34 2.6-.02 2.93 1.79 3.6m44.25-76.17-.94 1.79-.82 2.43-.76 2.67-.84 2.76-.84 2.8-.7 2.83-.52 2.87-.37 2.91-.31 2.94-.38 2.96-.57 2.93-.85 2.87-1.12 2.79-1.34 2.73-1.39 2.68-1.24 2.67-.92 2.68-.44 2.68.04 2.69.43 2.68.63 2.68.6 2.65.39 2.64.08 2.62-.21 2.63-.38 2.62-.41 2.61-.29 2.57-.04 2.5.3 2.41.61 2.37.79 2.44 1.1 2.6 2.5 2.94" filter="url(#a)"/><path d="m-65.19-32.45-1.66 3.05-6.11 2.86-9.93 2.73-10.14 2.51-7.55 2.35-3.82 2.31-.52 2.38 1.24 2.52 1.13 2.71-.28 2.89-1.88 3.02-2.79 3.1-2.71 3.07-2.13 2.93-1.89 2.74-2.45 2.55-3.71 2.47-4.87 2.52-5.19 2.66-4.44 2.73-3.25 2.6-2.6 2.42-1.33 3.06m76.11-58.72-3.07 2.65-1.83 2.75-1.01 2.52-.25 2.31-.05 2.29-.56 2.38-1.51 2.56-2.5 2.75-3.15 2.92-3.2 3.04-2.65 3.08-1.73 3.03-.76 2.91-.01 2.75.37 2.62.41 2.56.24 2.58-.06 2.63-.43 2.7-.95 2.74-1.63 2.76-2.38 2.79-3.07 2.76-3.5 2.56-3.27 2.18-1.42 1.94M66.79-26.16l.23 2.58.2 3.19-.05 3.08-.64 2.84-1.48 2.66-2.42 2.59-3.17 2.65-3.41 2.76-3 2.91-2.17 3.01-1.36 3.05-.94 3.03-1.08 2.95-1.63 2.83-2.23 2.7-2.59 2.58-2.52 2.49-2.09 2.47-1.54 2.47-1.18 2.51-1.23 2.54-1.74 2.56-2.6 2.52-3.44 2.46-3.92 2.39-3.89 2.33-3.54 2.32-3.43 2.38-3.16 2.44.19 2.69" filter="url(#a)"/><path d="m66.29-27.7 1.74 3.39 2.54 3.21 3.08 2.76 2.99 2.54 2.49 2.54 1.72 2.61.78 2.67-.15 2.7-.82 2.69L79.61.1l-.8 2.71-.19 2.74.56 2.79 1.24 2.83 1.68 2.86 1.85 2.87 1.78 2.85 1.61 2.85 1.44 2.82 1.3 2.81 1.17 2.78.94 2.77.52 2.74-.03 2.69-.51 2.62-.72 2.52-.53 2.4-.08 2.29.33 2.21.37 2.18v2.13l-.4 2.02-.11 1.95 1.09 2.05M66.27-27.88l-.17 1.91-.81 2.61-1.71 2.95-1.99 2.96-1.45 2.82-.59 2.69.1 2.63.44 2.66.48 2.78.25 2.89-.17 3-.71 3.04-1.26 3.03-1.63 2.95-1.73 2.84-1.58 2.7-1.35 2.58-1.23 2.5-1.35 2.46-1.67 2.47-2.02 2.51-2.22 2.55-2.2 2.56-2.03 2.54-1.91 2.47-1.91 2.37-1.97 2.3-1.83 2.32-1.55 2.34-2.57 2.14" filter="url(#a)"/><path d="m66.27-27.88 6.31 1.92 5.5 2.62L81-20.38l1.83 2.96 1.19 2.83.35 2.7-.61 2.64-1.25 2.68-1.29 2.79-.83 2.91-.11 3 .53 3.04.94 3.01 1.06 2.95.94 2.83.73 2.71.59 2.6.6 2.52.77 2.48 1.03 2.5 1.25 2.51L90 31.82l1.06 2.54.62 2.51.05 2.47-.43 2.41-.69 2.37-.73 2.37-.72 2.41-.87 2.46-1.18 2.5-1.07 2.48.6 2.22" filter="url(#a)"/><path d="m66.27-27.88 9.05 1.9-.99 2.58-1.69 2.93-.67 2.95.19 2.81.72 2.67 1.07 2.59 1.56 2.62 2.35 2.74 3.47 2.87 4.66 2.99 5.5 3.05 5.68 3.05 5.08 2.98 3.89 2.86 2.58 2.7 1.65 2.54 1.33 2.42 1.55 2.37 1.87 2.41 1.99 2.5 1.89 2.57 1.99 2.63 2.53 2.87 4.19 4.15" filter="url(#a)"/><path d="m66.27-27.88 6.03 1.93 2.21 2.62 1.94 2.97.89 2.96-.22 2.83-.48 2.7.02 2.66.82 2.69 1.5 2.8L80.8-.81l1.8 3 1.59 3.04 1.27 3.01.95 2.94.64 2.83.35 2.71.11 2.61-.12 2.53-.26 2.5-.35 2.5-.36 2.52-.32 2.53-.25 2.54-.18 2.51-.17 2.47-.25 2.42-.37 2.4-.49 2.39-.52 2.41-.47 2.44-.4 2.44-.41 2.41-.55 2.26-.74 1.96-.88 1.26" filter="url(#a)"/><path d="m65.78-29.79 5.3 2.46 4.04 2.99.58 2.97-.5 2.73.34 2.57 2.17 2.53 4.09 2.58 5.32 2.63 5.48 2.67 4.6 2.65 3.11 2.64 1.55 2.65.5 2.68.25 2.74.84 2.81 1.87 2.86 2.88 2.86 3.4 2.84 3.34 2.81 2.86 2.8 2.36 2.76 2.3 2.76 2.54 2.9 1.59 3.37" filter="url(#a)"/><path d="m65.45-32.06 2.15 3.27 3.37 2.68 5.69 2.79 6.27 2.91 4.31 2.92 1.3 2.81-1.03 2.72-1.99 2.68-1.77 2.72-.99 2.81-.16 2.91.43 2.99.73 3.02.8 3 .78 2.94.79 2.83.9 2.72 1.11 2.62 1.35 2.54 1.56 2.51 1.65 2.5 1.58 2.52 1.32 2.54.9 2.53.37 2.51-.2 2.47-.65 2.43-.9 2.4-.79 2.39-.37 2.42.22 2.44.67 2.45.63 2.4.13 2.27-.16 1.96 1.38 1.26" filter="url(#a)"/><path d="m65.33-32.48.83 2.52 1.69 2.72 1.71 2.92 1.03 2.89.43 2.75.3 2.63.58 2.6.99 2.62 1.36 2.66 1.62 2.68 1.78 2.68L79.5-.12l1.84 2.7 1.71 2.73 1.4 2.78.94 2.83.39 2.85-.14 2.86-.5 2.86-.66 2.84-.58 2.82-.36 2.8-.12 2.79.05 2.77.09 2.77.01 2.74-.04 2.69.06 2.57.32 2.35.52 2.11.16 2.03-1.41 2.12" filter="url(#a)"/><path d="m65.02-33.34 2.55 2.02.97 2.51.75 2.63.94 2.77 1.19 2.86 1.34 2.87 1.32 2.8 1.25 2.71 1.24 2.67 1.4 2.69 1.67 2.78 1.96 2.88 2.15 2.98 2.2 3.03 2.13 3.03 2.04 2.95 1.97 2.85 1.94 2.72L95.86 19l1.52 2.49.88 2.44.04 2.46-.79 2.52-1.16 2.56-.9 2.6-.11 2.58.68 2.49.92 2.3.39 2.15L95.81 46" filter="url(#a)"/><path d="m65.02-33.34 2.43 2.01 5.42 2.51 3.8 2.62.78 2.76-1.04 2.86-1.33 2.86-.73 2.79.17 2.71 1.01 2.65 1.7 2.68 2.17 2.76 2.38 2.88 2.4 2.98 2.33 3.03 2.28 3.04 2.38 2.97 2.61 2.86 2.93 2.72 3.23 2.57 3.31 2.45 3.02 2.41 2.25 2.44 1.13 2.5.08 2.59-.27 2.64.34 2.7 1.25 2.68.54 1.66" filter="url(#a)"/><path d="m65.02-33.34.93 2.01 1.61 2.52 1.87 2.62 1.6 2.76 1.15 2.87.8 2.86.54 2.8.34 2.7.23 2.66.2 2.69.29 2.77.49 2.88.7 2.98.91 3.03 1.02 3.03 1.05 2.97 1.04 2.85 1.02 2.72 1.09 2.58 1.26 2.47 1.5 2.43 1.69 2.45 1.69 2.51 1.36 2.58.75 2.62-.05 2.62-.71 2.52-.98 2.18-.91 1.85M64.37-35.53l1.92 2.03 2.4 2.24 3.33 2.46 3.87 2.62 3.47 2.75 2.85 2.84 2.7 2.84 3.1 2.79 3.77 2.73 4.31 2.69 4.48 2.72 4.06 2.79 3.04 2.89 1.49 2.98-.24 3.02-1.73 3.01-2.53 2.95-2.49 2.85-1.77 2.72-.66 2.6.43 2.51 1.26 2.47 1.78 2.48 2.04 2.51 2.15 2.56 2.22 2.59 2.32 2.56 2.51 2.48 2.83 2.35 3.18 2.28 2.69 2.37.55 2.62" filter="url(#a)"/><path d="m62.7-39.45 1.02 2.07 1.12 2.32 1 2.41.82 2.51.68 2.66.64 2.75.64 2.76.68 2.7.71 2.63.68 2.59.61 2.59.51 2.63.42 2.65.35 2.65.3 2.62.25 2.61.19 2.62.11 2.71v2.85l-.13 2.96-.23 2.87-.19 2.45-.09 1.88" filter="url(#a)"/><path d="m62.7-39.45.88 2.1 1.59 2.36 2.67 2.46 2.99 2.57 2.48 2.71 1.74 2.77 1.39 2.78 1.47 2.73 1.72 2.68 1.79 2.65 1.54 2.65 1.02 2.67.47 2.67.07 2.69-.04 2.69.1 2.72.36 2.74.66 2.79.87 2.82.98 2.86 1.01 2.86.96 2.86.9 2.85.83 2.83.83 2.81.88 2.8 1 2.78 1.02 2.78.82 2.75.33 2.69-.31 2.58-.78 2.36-.85 2.12-.45 2.03 1.34 2.13" filter="url(#a)"/><path d="m62.7-39.45.85 2.09.91 2.36.86 2.44.76 2.56.66 2.69.6 2.77.58 2.77.56 2.73.56 2.66.56 2.64.53 2.64.48 2.65.39 2.67.29 2.67.18 2.68.07 2.69v2.73l-.06 2.77-.13 2.82-.2 2.85-.29 2.87-.37 2.86-.43 2.84-.47 2.82-.5 2.8-.57 2.78-.65 2.76-.73 2.75-.79 2.78-.87 2.95-1.17 3.49" filter="url(#a)"/><path d="m61.6-42.77 2.09 1.43 1.39 2.35 1.52 2.53 1.91 2.5 1.94 2.49 1.58 2.53 1.12 2.62.76 2.72.53 2.78.39 2.79.28 2.78.15 2.73.07 2.71.05 2.73.15 2.8.34 2.88.61 2.96.88 3.02 1.07 3.02 1.13 2.98 1.01 2.87.75 2.74.42 2.6.1 2.48-.11 2.44-.17 2.44-.07 2.52.13 2.59.27 2.66.25 2.71.11 2.68.55 1.68" filter="url(#a)"/><path d="m61.6-42.77 1.45 1.41 3.02 2.34 2.61 2.52 1.81 2.48 1.4 2.47 1.23 2.51 1.08 2.6.89 2.7.74 2.77.77 2.79.94 2.76 1.13 2.71 1.23 2.68 1.12 2.68.86 2.74.56 2.85.39 2.97.43 3.05.7 3.08 1.08 3.05 1.43 2.94 1.57 2.77 1.48 2.54 1.13 2.31.55 2.16-.12 2.32-.43 3.45" filter="url(#a)"/><path d="m60.7-45.39 1.07 2.24 2.16 2.68 3.24 2.62 3.36 2.53 2.94 2.5 2.62 2.57 2.55 2.65 2.49 2.73 2.24 2.73 1.93 2.7 2.02 2.65 2.8 2.61 4.27 2.62 5.91 2.63 6.91 2.65 6.61 2.66 4.92 2.63 2.55 2.62.7 2.64.38 2.72 1.57 2.86 3.11 2.95 3.77 2.89 3.95 2.47 6.96 1.88" filter="url(#a)"/><path d="m58.75-49.49.65 1.4 1.24 2.26 1.71 2.54 2.13 2.62 2.28 2.6 2.11 2.55 1.78 2.56 1.54 2.59 1.53 2.66L75.47-25l2.13 2.72 2.5 2.7 2.71 2.66 2.74 2.63 2.56 2.63 2.29 2.64 2 2.66 1.68 2.66 1.38 2.65 1.02 2.62.64 2.65.36 2.73.4 2.86.96 2.97 1.89 2.89 2.71 2.48 1.69 1.89" filter="url(#a)"/><path d="m58.75-49.49.98 1.42 1.62 2.27 1.97 2.57 1.89 2.63 1.44 2.61.97 2.58.72 2.58.65 2.63.66 2.67.69 2.72.71 2.73.77 2.71.87 2.68.97 2.66 1.01 2.66.99 2.66.9 2.67.79 2.67.75 2.69.75 2.69.81 2.73.86 2.77.87 2.82.8 2.86.6 2.88.34 2.87.03 2.85-.18 2.83-.21 2.81-.14 2.79-.16 2.79-.2 2.72.08 2.07" filter="url(#a)"/><path d="m55.89-54.63 5.59 3.65 3.94 2.61.8 2.52-.51 2.57-.44 2.62.2 2.6.9 2.58 1.54 2.6 2.02 2.63 2.36 2.68 2.49 2.71 2.34 2.72 1.92 2.71 1.3 2.69.58 2.66-.03 2.66-.41 2.67-.46 2.67-.23 2.68.23 2.68.78 2.7 1.29 2.73 1.65 2.77 1.79 2.83 1.71 2.86 1.46 2.88 1.13 2.87.84 2.86.58 2.83.4 2.81.25 2.79.27 2.8.32 2.72-.95 2.07" filter="url(#a)"/><path d="m56.58-53.8 2.19.88 2 2.14.75 2.39.41 2.49.56 2.56.86 2.59 1.18 2.59 1.49 2.59 1.79 2.59 1.98 2.63 2.01 2.67 1.84 2.71 1.51 2.72 1.12 2.7.76 2.69.46 2.66.29 2.66.2 2.66.19 2.67.24 2.68.3 2.67.36 2.69.36 2.71.35 2.77.31 2.83.27 2.87.2 2.89.07 2.88-.18 2.85-.5 2.84-.71 2.77-.62 2.63-.03 2.78" filter="url(#a)"/><path d="m54.95-56.17 1.72 1.65 3.94 2.23 5.17 2.51 5.13 2.59 4.96 2.58 5.15 2.55 5.32 2.53 5.06 2.5 4.17 2.48 2.96 2.5 1.83 2.52 1.22 2.59 1.29 2.67 1.9 2.74 2.72 2.78 3.3 2.76 3.32 2.71 2.73 2.63 1.88 2.61 1.37 2.66 1.62 2.79L124.2.38l3.22 3.12 3.28 3.24 3.44 3.49 5.39 3.73" filter="url(#a)"/><path d="m54.16-57.92 14.62 2.73.25 2.09.22 2.2 1.51 2.32 1.83 2.42 1.98 2.51 2.94 2.54 4.83 2.55 6.97 2.54 8.25 2.53 7.95 2.56 6.11 2.62 3.57 2.69 1.46 2.74.5 2.7.8 2.63 2.02 2.54 3.81 2.53 6.09 2.6 8.13 2.7 8.15 2.85 5.98 3.08" filter="url(#a)"/><path d="m53.49-58.78 1.94 2.2L57-54.49l1.3 2.31 1.17 2.49 1.19 2.57 1.25 2.59 1.27 2.57 1.26 2.55 1.21 2.54 1.12 2.53 1.02 2.55.92 2.59.84 2.64.8 2.69.81 2.74.81 2.76.81 2.77.76 2.75.68 2.74.56 2.77.48 2.81.41 2.88.38 2.96.38 3.01.37 3.03.34 2.99.29 2.89.23 2.77.13 2.62v2.49l-.16 2.44-.29 2.45-.32 2.52-.25 2.6-.23 2.66-.51 2.9-1.45 4.19M53.49-58.78l9.72 2.18 3.61 2.07 2.4 2.28 1.53 2.46.49 2.55.08 2.57.66 2.55 1.91 2.54 3.24 2.51 4.16 2.5 4.47 2.5 4.23 2.54 3.82 2.6 3.5 2.68 3.38 2.74 3.28 2.77 2.89 2.76 2.11 2.71 1.23 2.66.77 2.64 1.24 2.69 2.61 2.82 4.25 2.97 5.13 3.11 4.57 3.2 3.11 3.24 2.98 3.06 6.93 2.1" filter="url(#a)"/><path d="m52.3-60.88 1.13 1.02 1.66 2.08 1.51 2.27 1.36 2.29 1.39 2.32 1.47 2.38 1.44 2.45 1.29 2.52 1.1 2.56 1 2.57 1 2.58 1.12 2.6 1.28 2.62 1.39 2.67 1.41 2.7 1.31 2.71 1.11 2.7.86 2.68.61 2.66.43 2.65.33 2.66.35 2.68.48 2.67.67 2.66.89 2.64 1.04 2.67 1.06 2.75.83 2.87.41 2.97v2.91l-.08 2.5.16 1.91" filter="url(#a)"/><path d="m52.3-60.88 11.93 1.02 3.45 2.08.76 2.28-.24 2.29.47 2.32 2.15 2.38 3.67 2.46 4.36 2.52 4.11 2.56 3.2 2.57 2 2.59.88 2.6.08 2.63-.17 2.67.19 2.7 1.08 2.71 2.2 2.7 3.24 2.69 3.91 2.66 4.07 2.66 3.78 2.66 3.22 2.67 2.57 2.67 2 2.67 1.62 2.66 1.51 2.69 1.82 2.76 2.61 2.85 3.66 2.92 4.25 2.91 3.31 2.78.76 2.83-1.15 3.85" filter="url(#a)"/><path d="m50.28-63.73 3.87 2.03 1.41 1.83 1.52 2.05 1.69 2.19 1.77 2.24 1.83 2.29 1.87 2.35 1.92 2.43 2.09 2.48 2.44 2.53 2.82 2.55 3.03 2.55 2.91 2.55 2.44 2.58 1.85 2.64 1.4 2.7 1.27 2.73 1.43 2.72 1.68 2.64 1.78 2.57 1.65 2.55 1.47 2.61 1.61 2.71 2.37 2.87 3.45 3.09M47.2-67.39l2.46 3.03 1.74 2.28 1.48 2.06 1.43 2.09 1.39 2.17 1.32 2.21 1.25 2.27 1.18 2.33 1.13 2.4 1.06 2.46 1.01 2.52.96 2.53.92 2.53.88 2.51.83 2.53.79 2.6.74 2.72.71 2.83.68 2.83.63 2.56.57 2.07.56 2.38" filter="url(#a)"/><path d="m47.13-67.51 2.58 1.88 1.7 2.22 1.86 2.19 2.12 2.15 2.3 2.16 2.4 2.22 2.56 2.32 2.74 2.4 2.87 2.48 2.81 2.53 2.53 2.53 2.1 2.53 1.64 2.52 1.28 2.52 1.04 2.52.91 2.55.85 2.6.82 2.67.83 2.74.9 2.78 1.02 2.77 1.13 2.72 1.16 2.65 1.13 2.6 1.1 2.65 1.16 2.79L92.01.17l1.56 3.09 1.91 3.15 1.87 3.79" filter="url(#a)"/><path d="m46.95-67.82 1.33 1.37 2.33 2.12 2.23 2.12 2.01 2.09 1.97 2.11 1.99 2.16 1.9 2.21 1.66 2.26 1.35 2.32 1.14 2.4 1.09 2.46 1.22 2.51 1.41 2.53 1.58 2.53 1.65 2.51 1.7 2.51 1.72 2.58 1.64 2.72 1.44 2.91 1.2 2.98 1.14 2.54.84.78M46.95-67.82l2.55 1.38 2.75 2.12 3.21 2.12 3.31 2.09 2.93 2.12 2.7 2.17 3.01 2.21 3.76 2.27 4.63 2.33 5.49 2.4 6.39 2.47 7.38 2.51 8.22 2.54 8.44 2.53 7.65 2.52 5.98 2.54 4.08 2.6 2.83 2.72 2.57 2.84 2.96 2.83 3.54 2.56 4.7 2.09 6.82 2.38M46.95-67.82l.31 1.39 1.61 2.13 1.49 2.14 1.2 2.1 1.01 2.13.89 2.18.79 2.23.69 2.29.58 2.35.37 2.42.07 2.48-.32 2.52-.77 2.54-1.16 2.55-1.4 2.56-1.41 2.58-1.13 2.64-.69 2.7-.24 2.75v2.73l-.1 2.64-.56 2.56-1.25 2.52-1.71 2.6-1.52 2.65-1.27 2.93" filter="url(#a)"/><path d="m46.95-67.82 4.47 1.37 3.48 2.12 4.09 2.12 4.46 2.09 3.92 2.11 2.84 2.16 1.98 2.21 1.86 2.26 2.62 2.32 3.89 2.4 5.11 2.46 5.67 2.51 5.27 2.53 4.12 2.53 2.89 2.51 2.46 2.51 3.35 2.58 5.38 2.72 7.48 2.91 8.06 2.98 6.22 2.54 5.62.78" filter="url(#a)"/><path d="m45.22-69.73 1.88 2.01 2.39 2.09 3.24 2.17 3.46 2.17 2.89 2.16 2.03 2.18 1.38 2.23 1.1 2.31L64.67-50l1.18 2.47 1.34 2.52 1.56 2.53 1.76 2.53 1.94 2.53 2.02 2.51 1.97 2.53 1.81 2.55 1.6 2.61 1.43 2.67 1.42 2.74 1.57 2.78 1.92 2.77 2.32 2.73 2.63 2.65 2.63 2.61L96-5.62l1.57 2.79.94 2.99.77 3.09 1.14 3.16 1.6 3.79" filter="url(#a)"/><path d="m45.22-69.73 1.97 2.02 1.84 2.09 1.64 2.17 1.51 2.17 1.44 2.16 1.4 2.18 1.41 2.24 1.42 2.32 1.45 2.4 1.43 2.48 1.35 2.52 1.26 2.53 1.13 2.54 1.03 2.52.92 2.53.85 2.53.78 2.56.77 2.61.77 2.67.81 2.74.87 2.77.91 2.77.92 2.73.86 2.67.72 2.64.55 2.68.37 2.81.22 2.98.1 3.13.04 3.26.02 3.51.01 3.76" filter="url(#a)"/><path d="m46.35-68.42.89.79 1.63 1.5 1.76 1.92 1.71 2.06 1.89 2.1 2.32 2.15 2.85 2.2 3.24 2.26 3.4 2.31 3.32 2.37 3.11 2.44 2.86 2.49 2.63 2.53 2.36 2.56 2.05 2.57 1.71 2.59 1.4 2.63 1.21 2.66 1.19 2.69 1.29 2.72 1.41 2.7 1.49 2.68 1.48 2.65 1.43 2.65 1.42 2.66 1.45 2.69 1.5 2.71 1.53 2.66 1.68 2.55 2.08 2.5 2.27 2.72.42 3.45" filter="url(#a)"/><path d="m44.1-71.06 1.42 1.55 1.75 1.85 2.05 2.04 2.26 2.12 2.25 2.15 2.07 2.17L57.72-57l1.63 2.24 1.53 2.32 1.54 2.4 1.59 2.47 1.62 2.51 1.61 2.53L68.76-40l1.44 2.53 1.38 2.52 1.39 2.53 1.43 2.56 1.52 2.61 1.56 2.67 1.56 2.74 1.46 2.78 1.28 2.77 1.08 2.73.95 2.66 1 2.61L86-5.64l1.42 2.8L88.83.15l1.07 3.1.73 3.16 1.4 3.79M42.91-72.38l7.4 2.72 1.79 1.75 1.1 1.73 1.31 1.89 1.7 2 2.13 2.07 2.5 2.12 2.73 2.17 2.79 2.22 2.71 2.27 2.59 2.34 2.54 2.4 2.63 2.47 2.81 2.51 2.99 2.54 3.01 2.54 2.77 2.53 2.29 2.55 1.72 2.61 1.35 2.73 1.38 2.84 1.91 2.84 2.87 2.57 4.11 2.1 4.9 2.39" filter="url(#a)"/><path d="m42.22-72.69 3.02 1.52 4.44 1.63 5.08 1.81 4.7 1.97 3.5 2.06L65-61.6l.92 2.12.48 2.14.74 2.18 1.49 2.25 2.42 2.35 3.17 2.43 3.59 2.49 3.63 2.52 3.47 2.51 3.33 2.5 3.38 2.47 3.6 2.44 3.77 2.4 3.47 2.36 2.43 2.19.92 1.78" filter="url(#a)"/><path d="m41.9-72.97 3.37 1.42 3.97 1.81L52.73-68l3.19 1.79 2.83 1.9 2.46 1.99 2.18 2.06 1.99 2.11 1.77 2.17 1.5 2.22 1.23 2.28 1.07 2.34 1.12 2.4 1.41 2.47 1.89 2.51 2.41 2.54 2.89 2.54 3.28 2.54 3.67 2.55 4.09 2.62 4.49 2.73 4.58 2.84 4.07 2.84 3.1 2.58 2.52 2.11 4.37 2.39" filter="url(#a)"/><path d="m41.9-72.97 2.39 1.44 1.61 1.83 1.34 1.77 1.37 1.81 1.46 1.93 1.53 2.02 1.54 2.09 1.52 2.14 1.48 2.21 1.4 2.26 1.34 2.32 1.31 2.38 1.3 2.44 1.33 2.49 1.35 2.53 1.38 2.56 1.35 2.58 1.32 2.61 1.23 2.64 1.11 2.66.96 2.7.79 2.71.64 2.71.51 2.69.44 2.67.44 2.66.45 2.68.48 2.68.47 2.69.42 2.66.35 2.62.34 2.62.36 2.7.36 2.92.21 3.33-.08 4.55M39.97-75.22l2.27 1.83 2.32 1.78 2.47 1.77 2.55 1.75 2.59 1.8 2.86 1.89 3.48 1.97 4.24 2.04 4.72 2.1 4.64 2.15 4.04 2.2 3.23 2.26 2.64 2.32 2.52 2.39 2.88 2.45L90.85-42l3.95 2.54 4.34 2.53 4.69 2.5 5.14 2.47 5.4 2.49 4.93 2.63 3.26 2.97 1.91 3.6" filter="url(#a)"/><path d="m39.12-76.04 3.07 1.42L45.26-73l2.91 1.66 2.86 1.73 2.48 1.83 2.13 1.95 2.24 2.03 2.87 2.09 3.78 2.11 4.58 2.15 5.06 2.19 5.2 2.27 5.12 2.35 5 2.43 4.94 2.49 5.09 2.52 5.41 2.52 5.71 2.51 5.51 2.48 4.54 2.45 3.44 2.41 3.86 2.37 6.98 2.2 9.86 1.79" filter="url(#a)"/><path d="m39.12-76.04 6.72 1.43 4.9 1.63 1.6 1.68 1.44 1.74 2.81 1.85 4.29 1.96 5.17 2.05 5.25 2.1 4.59 2.13 3.59 2.17 2.74 2.23 2.44 2.29 2.79 2.37 3.58 2.44 4.49 2.5 5.19 2.52 5.42 2.52 5.11 2.51 4.34 2.5 3.41 2.48 2.76 2.49 2.76 2.53 3.4 2.61 4.17 2.76 4.26 2.92 3.14 3.02 1.19 3.05.4 3.39" filter="url(#a)"/><path d="m36.52-78.16 3.32 2.51 2.27 2.06 2.16 1.89 2.34 1.82 2.53 1.8 2.54 1.84 2.34 1.91 2.04 1.98 1.75 2.06 1.58 2.12 1.56 2.18 1.63 2.23 1.75 2.29 1.84 2.35 1.91 2.41L70-44.24l1.89 2.52 1.85 2.54 1.79 2.56 1.69 2.57 1.63 2.59 1.58 2.65 1.59 2.72 1.57 2.77 1.52 2.76 1.51 2.65 1.69 2.54 2.14 2.52 2.68 2.61 2.81 2.13" filter="url(#a)"/><path d="m37.25-77.38 2.22 1.33 3.56 1.48 4.4 1.6 4.33 1.68 3.84 1.77 3.55 1.87 3.44 1.96 3.24 2.05 2.73 2.11 1.99 2.15 1.28 2.19.85 2.25.74 2.32.9 2.39 1.15 2.45 1.39 2.49 1.62 2.52 1.92 2.53 2.41 2.53 3.1 2.53 3.94 2.53 4.74 2.56 5.3 2.6 5.41 2.67 4.91 2.75 3.8 2.8 2.33 2.81.95 2.74.32 2.63.81 2.53 2.19 2.55 3.65 2.84 4.09 3.3 1.27 3.15" filter="url(#a)"/><path d="m35.61-78.89 2.7.66 4.91 1.18 3.54 1.61 1.63 1.78 1.13 1.82 1.95 1.82 3.16 1.82 3.95 1.86 4.05 1.91 3.59 1.98 3.02 2.04 2.7 2.11 2.77 2.17 3.13 2.22 3.55 2.28 3.8 2.35 3.82 2.4 3.72 2.47 3.64 2.51 3.73 2.54 3.92 2.56 4.13 2.55 4.24 2.57 4.34 2.64 4.61 2.73 5.06 2.85 5.36 2.85 5.15 2.6 4.51 2.13 3.48 2.4" filter="url(#a)"/><path d="m35.61-78.89 2.01.66 1.36 1.2 1.91 1.61 2.57 1.79 3.21 1.83 3.56 1.82 3.45 1.84 2.91 1.86 2.28 1.93 1.93 1.99 2.06 2.06 2.72 2.12 3.78 2.19 4.97 2.24 6.02 2.29 6.6 2.36 6.52 2.42 5.75 2.48 4.41 2.52 2.81 2.54 1.3 2.57.26 2.59-.06 2.62.41 2.66 1.48 2.71 2.79 2.74 3.86 2.73 4.42 2.68 4.52 2.61 4.43 2.59 4.21 2.64 3.55 2.74 2.99 2.88 6.6 3.13" filter="url(#a)"/><path d="m35.61-78.89 1.87.65 1.18 1.18 1.49 1.59 1.81 1.78 2.03 1.82 2.1 1.81 2.05 1.81 1.92 1.84 1.76 1.9 1.63 1.97 1.57 2.03 1.54 2.1 1.54 2.15 1.55 2.21 1.53 2.26 1.48 2.33 1.4 2.39 1.28 2.46 1.17 2.51 1.09 2.55L68.69-37l1.12 2.51 1.18 2.48 1.16 2.51 1.06 2.63.95 2.98.97 3.62" filter="url(#a)"/><path d="m35.61-78.89 1.18.65 1.71 1.17 1.99 1.59 1.97 1.77 1.87 1.81 1.79 1.8 1.69 1.8 1.62 1.84 1.58 1.89 1.59 1.95 1.64 2.03 1.72 2.09 1.77 2.14 1.77 2.19 1.74 2.25 1.66 2.31 1.56 2.38 1.5 2.45 1.46 2.53 1.43 2.56 1.35 2.56 1.25 2.5 1.26 2.42 1.5 2.33 1.8 2.18" filter="url(#a)"/><path d="m33.19-80.49 2.93 1.41 2.46 1.47 1.78 1.49 1.66 1.53 1.77 1.61 1.89 1.68 1.95 1.77 1.99 1.87 2.04 1.96 2.1 2.03 2.2 2.1 2.28 2.15 2.41 2.2 2.6 2.25 2.83 2.33 3.07 2.38 3.23 2.45 3.22 2.49 2.98 2.52 2.56 2.54 2.03 2.53 1.53 2.54 1.2 2.54 1.1 2.57 1.27 2.62 1.59 2.68 1.99 2.74 2.32 2.79 2.49 2.79 2.44 2.74 2.15 2.66 1.63 2.59 1.02 2.63.49 2.81.41 3.04 1.07 3 2.61 2.44" filter="url(#a)"/><path d="m33.23-80.84 3.1 1.44 2.59 1.12 2.04 1.32 1.6 1.57 1.4 1.73 1.45 1.79 1.61 1.82 1.77 1.83 1.92 1.86 1.97 1.92 1.95 1.99 1.85 2.04 1.71 2.12 1.6 2.17 1.52 2.22 1.52 2.29 1.56 2.35 1.65 2.41 1.76 2.47 1.91 2.51 2.04 2.55 2.1 2.55 2.07 2.57 1.93 2.59 1.79 2.65 1.69 2.73 1.71 2.8 1.74 2.8 1.72 2.65 1.56 2.46 1.23 2.6.5 3.42" filter="url(#a)"/><path d="m29.02-83.27 2.34 1.48 2.26 1.33 2.48 1.36 2.62 1.4 2.59 1.46 2.53 1.51 2.47 1.57 2.44 1.65 2.44 1.73 2.49 1.82 2.61 1.91 2.81 2L62.11-62l3.13 2.11 3.1 2.14 2.91 2.2 2.62 2.26 2.32 2.34 2.12 2.43 2.1 2.5 2.23 2.53 2.37 2.54 2.43 2.54 2.52 2.5 2.9 2.43 3.32 2.45 1.78 3.15" filter="url(#a)"/><path d="m27.09-84.67 3.31 1.43 3.81 1.4 3.26 1.37 2.83 1.38 2.37 1.43 1.79 1.47 1.32 1.54 1.26 1.6 1.66 1.67 2.33 1.76 3.06 1.85 3.55 1.94 3.7 2.01 3.53 2.08 3.18 2.13 2.84 2.19 2.62 2.24 2.61 2.31 2.76 2.38 2.97 2.44 3.17 2.48 3.28 2.52 3.24 2.53 3.1 2.53 2.87 2.53 2.64 2.52 2.47 2.54 2.45 2.58 2.62 2.66 2.97 2.77 3.43 2.87 3.83 2.92 3.94 2.86 3.5 2.64 2.69 2.17 1.83 1.4" filter="url(#a)"/><path d="m26.25-85.29 2.61 1.47 2.97 1.57 2.69 1.4 2.74 1.29 3.17 1.29 3.49 1.4 3.42 1.54 2.94 1.66 2.35 1.73 1.94 1.79 1.94 1.83 2.35 1.88 3.01 1.92 3.7 1.99 4.17 2.05 4.33 2.11 4.23 2.16 4.02 2.23 3.82 2.29 3.68 2.35 3.55 2.41 3.35 2.47 3.08 2.51 2.83 2.55 2.71 2.56 2.78 2.58 3.02 2.6 3.3 2.65 3.48 2.74 3.57 2.8 3.66 2.8 4.03 2.67 4.74 2.47 5.54 2.61 4.59 3.42" filter="url(#a)"/><path d="m25.34-85.35 1.83.92 2.13 1.22 2.43 1.32 2.71 1.34 2.75 1.37 2.52 1.41 2.08 1.46 1.67 1.51 1.44 1.57 1.45 1.65 1.7 1.72 2.04 1.82 2.42 1.9 2.72 1.98 2.86 2.05 2.88 2.1 2.81 2.15 2.7 2.19 2.62 2.25 2.55 2.34 2.46 2.43 2.36 2.51 2.32 2.54 2.45 2.55 2.63 2.55 2.43 2.52 1.61 2.27 1.46 1.65" filter="url(#a)"/><path d="m24.59-85.71 1.8.75 2.47 1.25 3.12 1.39 3.57 1.35 3.8 1.29 3.74 1.29 3.5 1.38 3.26 1.5 3.13 1.63 3.15 1.7 3.21 1.76 3.17 1.8 3.05 1.83 2.92 1.88 2.92 1.94 3.13 2.01 3.46 2.07 3.86 2.12 4.24 2.18 4.56 2.22 4.84 2.28 5.08 2.33 5.17 2.44 4.91 2.59 4.3 2.71 5.56 2.42" filter="url(#a)"/><path d="m23.77-86.56 3.8 1.04 4.31 1.08 4.37 1.2 3.41 1.27 2.06 1.31 1.17 1.35 1.09 1.39 1.67 1.43 2.54 1.48 3.23 1.53 3.58 1.6 3.59 1.68 3.52 1.76 3.71 1.87 4.3 1.96 5.25 2.04 6.19 2.09 6.6 2.08 6.08 2.06 4.87 2.07 4.33 2.26 6.06 2.89M22.34-86.86l2.13.96 2.11 1.03 2.23 1.24 2.3 1.34 2.27 1.33 2.13 1.32 1.99 1.35 1.89 1.43 1.83 1.53 1.85 1.64 1.88 1.72 1.91 1.78 1.93 1.83 1.94 1.87 1.9 1.93 1.85 1.98 1.79 2.05L58-58.42l1.71 2.17 1.74 2.23 1.81 2.29 1.93 2.35 2.06 2.41 2.18 2.47 2.24 2.51 2.21 2.55 2.1 2.56 1.95 2.58 1.84 2.61 1.8 2.66 1.83 2.74 1.89 2.8 1.8 2.81 1.5 2.66 1.03 2.48.79 2.61L91.7-9.5" filter="url(#a)"/><path d="m19.81-88.22 4.56 1.19 3.56 1.04 4.44 1.09 4.42 1.21 3.81 1.29 3.31 1.3 3.07 1.29 2.93 1.31 2.85 1.39 3.02 1.49 3.64 1.6 4.69 1.68 5.74 1.75 6.25 1.78L82-67l4.84 1.86 3.63 1.93 2.97 1.99 3.13 2.05 3.95 2.12 5.06 2.17 6.25 2.21 7.48 2.24 8.34 2.32 8.46 2.72M19.81-88.22l1.99 1.2 1.84 1.05 1.92 1.12 1.83 1.23 1.64 1.3 1.5 1.32 1.5 1.32 1.55 1.36 1.6 1.43 1.58 1.53 1.48 1.63 1.32 1.71 1.12 1.77.89 1.82.63 1.87.4 1.92.22 1.98.13 2.04.17 2.1.32 2.16.51 2.22.66 2.28.68 2.35.53 2.4.24 2.47-.09 2.52-.33 2.55-.35 2.56-.17 2.56.07 2.57.15 2.63-.05 2.76-.49 2.93-.88 3.02-1.21 2.61-1.93.83" filter="url(#a)"/><path d="m19.42-88.17 2.63.89 2.25.87 1.98.95 1.87 1.07 1.98 1.17 2.19 1.26 2.36 1.31 2.44 1.36 2.44 1.4 2.38 1.45 2.36 1.5 2.39 1.56 2.52 1.63 2.72 1.71 2.98 1.8 3.18 1.88 3.3 1.97 3.24 2.04 2.96 2.09 2.52 2.13 1.98 2.16 1.55 2.22 1.44 2.33 1.74 2.45 2.39 2.54 3.03 2.52 3.1 2.37 2.27 2.48" filter="url(#a)"/><path d="m18.64-88.37 1.62.45 2.42.7 2.2.83 1.95.95 2.07 1.06 2.41 1.16 2.75 1.24L37-80.67l2.92 1.35 2.75 1.4 2.47 1.45 2.19 1.51 1.93 1.56 1.73 1.63 1.58 1.71 1.47 1.8 1.4 1.88 1.39 1.97 1.43 2.04 1.57 2.09 1.79 2.13 2.06 2.16 2.33 2.23 2.52 2.32 2.53 2.45 2.35 2.55 2.08 2.53 2.12 2.36 2.88 2.49" filter="url(#a)"/><path d="m15.91-89.41 2.35.8 2.08.77 2.15.88 2.17.98 2.16 1.09 2.17 1.19 2.16 1.25 2.11 1.28 1.99 1.3 1.89 1.33 1.84 1.39 1.83 1.49 1.88 1.6 1.93 1.67 1.94 1.74 1.92 1.78 1.87 1.82 1.81 1.87 1.74 1.93 1.68 1.99 1.63 2.06 1.58 2.12 1.57 2.17 1.58 2.22 1.55 2.25 1.55 2.32 2.02 2.73" filter="url(#a)"/><path d="m15.91-89.41 2.65.79 2.55.77 2.72.87 2.6.97 2.46 1.07 2.57 1.18 2.8 1.25 2.9 1.27 2.71 1.28 2.32 1.3 1.94 1.36 1.79 1.47 1.96 1.57 2.37 1.68 2.9 1.73 3.44 1.76 3.9 1.78 4.2 1.82 4.14 1.9 3.58 1.95 2.63 2.06 2.17 2.42 4.2 3.36M14.59-89.89l1.25.59.64.68.41.77.62.86 1.1.97 1.64 1.06 1.99 1.17 2.06 1.23 1.92 1.27 1.66 1.27 1.33 1.3.96 1.36.5 1.45-.01 1.57-.43 1.68-.64 1.73-.57 1.75-.26 1.77.07 1.82.17 1.89-.1 1.89-.8 1.77-1.68 2.12" filter="url(#a)"/><path d="m12.31-90.41 2.01.52 2.01.61 2.12.68 2.21.78 2.29.87 2.41.96 2.56 1.08 2.68 1.16 2.68 1.23 2.58 1.26 2.44 1.29 2.37 1.33 2.4 1.39 2.53 1.48 2.65 1.58 2.74 1.67 2.73 1.73 2.73 1.77 2.78 1.81 2.93 1.85 3.1 1.92 3.18 1.98 3.05 2.06 2.67 2.12 2.2 2.18 2.08 2.27 3.25 3.34" filter="url(#a)"/><path d="m7.84-91.45 2.96.71 2.48.54 3.06.64 3.69.71 4.01.75 4.01.8 3.86.85 3.79.93 3.95 1.02 4.25 1.11 4.55 1.2 4.77 1.26 4.79 1.32 4.6 1.37 4.14 1.41 3.55 1.47 3.03 1.51 2.96 1.58 3.52 1.63 4.6 1.73 5.66 1.83 6.08 1.96 5.82 2.09 6.13 2.11 10.19 2.14" filter="url(#a)"/><path d="m7.95-91.01 1.71.23 2.55.4 2.67.51 2.55.58 2.56.67 2.72.75 2.98.85 3.21.93 3.36 1.04 3.37 1.14 3.24 1.2 3 1.25 2.81 1.26 2.83 1.28 3.22 1.33 3.9 1.42 4.62 1.56 5.07 1.69 5.03 1.76 4.57 1.71 3.95 1.61 3.52 1.62 3.73 2.49" filter="url(#a)"/><path d="m7.95-91.01 1.63.22 2.58.41 2.88.5 2.91.59 2.98.66 3.24.75 3.67.84 4.07.93 4.23 1.04 4.09 1.13 3.68 1.2 3.19 1.25 2.84 1.25 2.79 1.26 3.04 1.31 3.51 1.41 4.06 1.56 4.56 1.71 4.83 1.8 4.66 1.73 3.95 1.37 1.98.7" filter="url(#a)"/><path d="m7.69-91.1 1.46.06 2.05.38 2.04.52 2.11.63 2.21.7 2.32.76 2.4.81 2.47.88 2.5.95 2.47 1.05 2.36 1.13 2.21 1.21 2.03 1.28 1.91 1.34 1.85 1.39 1.89 1.45 2 1.51 2.17 1.56 2.36 1.64 2.53 1.71 2.67 1.79 2.72 1.89 2.69 1.96 2.57 2.04 2.39 2.09 2.19 2.13 2.06 2.18 2.01 2.24 2.08 2.33 2.24 2.46 2.46 2.55 2.7 2.54 2.73 2.38 2.15 2.5" filter="url(#a)"/><path d="m1.63-91.9 2.61.31 2.26.26 2.36.28 2.49.34 2.57.42 2.53.5 2.34.58 2.12.68 1.95.76 1.9.86 2.04.95 2.33 1.05 2.71 1.13 3.11 1.2 3.43 1.25 3.63 1.3 3.7 1.34 3.62 1.41 3.47 1.49 3.2 1.57 2.87 1.66 2.52 1.73 2.24 1.78 2.18 1.82 2.34 1.87 2.71 1.93 3.14 2 3.5 2.06 3.76 2.13 4.01 2.19 4.27 2.22 4.31 2.22 2.32 1.64" filter="url(#a)"/></g><path fill="none" stroke="#000" stroke-linejoin="round" stroke-width="3" d="M-9.8 44.45Q9.79 53.13-.005-6.072" filter="url(#a)"/><path fill="#D77F8C" stroke="#000" stroke-linejoin="round" stroke-width="3" d="m-23.83 41.81.48 1.64.49 1.62.48 1.6.49 1.57.48 1.55.48 1.52.49 1.49.48 1.47.48 1.45.49 1.42.48 1.39.48 1.36.48 1.34.49 1.32.48 1.28.48 1.26.48 1.23.49 1.2.48 1.17.48 1.14.48 1.12.49 1.09.48 1.06.48 1.02.49 1 .48.97.48.94.49.91.48.87.48.85.49.81.48.79.49.75.48.72.49.69.48.65.49.63.48.58.49.56.49.52.48.49.49.46.49.42.49.39.49.35.49.32.49.28.49.25.49.21.49.18.49.14.49.1.5.07.49.03.49-.01.5-.04.49-.08.5-.12.5-.16.49-.2.5-.23.5-.28.5-.31.5-.35.5-.39.5-.43.5-.47.51-.51.5-.55.5-.6.51-.63.51-.67.5-.72.51-.76.51-.8.51-.84.51-.88.51-.93.51-.97.52-1.01.51-1.06.52-1.1.52-1.14.51-1.19.52-1.23.52-1.28.52-1.32.52-1.37.53-1.41.52-1.46.53-1.5.52-1.55.53-1.6.53-1.64.53-1.69.53-1.74.53-1.78.54-1.83.53-1.88-.49.12-.49.11-.49.11-.5.11-.49.1-.49.1-.49.09-.5.09-.49.08-.49.08-.49.07-.5.07-.49.06-.49.06-.49.06-.5.05-.49.05-.49.04-.49.04-.5.03-.49.03-.49.03-.49.02-.5.01-.49.01-.49.01-.49.01h-.5l-.49-.01-.49-.01-.49-.01-.5-.02-.49-.02-.49-.02-.5-.03-.49-.03-.49-.04-.49-.04-.5-.04-.49-.05-.49-.05-.49-.06-.5-.06-.49-.06-.49-.07-.49-.07-.5-.08-.49-.07-.49-.09-.49-.08-.5-.09-.49-.09-.49-.1-.49-.1-.5-.1-.49-.11-.49-.11-.49-.11-.5-.12-.49-.12-.49-.12-.49-.13-.5-.13-.49-.13-.49-.14-.49-.14-.5-.14-.49-.15-.49-.14-.49-.16-.5-.15-.49-.16-.49-.16-.49-.17-.5-.16-.49-.18-.49-.17-.49-.18-.5-.17-.49-.19-.49-.18-.49-.19-.5-.19-.49-.19-.49-.2-.49-.2-.5-.2-.49-.21-.49-.2-.49-.21-.5-.21-.49-.22-.49-.22-.49-.22-.5-.22-.49-.22-.49-.23-.49-.23-.5-.23" filter="url(#a)"/></svg>