<svg viewBox="-100 -100 200 200" xmlns="http://www.w3.org/2000/svg" width="500" height="500" id="face-svg">
    <defs>
      <clipPath id="leftEyeClipPath">
        <polyline points="22.49,1.4 22.35,1.11 22.19,0.81 22.02,0.51 21.82,0.2 21.6,-0.1 21.36,-0.41 21.09,-0.71 20.81,-1.01 20.5,-1.31 20.17,-1.6 19.82,-1.88 19.45,-2.16 19.06,-2.43 18.64,-2.69 18.2,-2.94 17.81,-3.34 17.39,-3.71 16.93,-4.07 16.44,-4.4 15.91,-4.71 15.34,-5 14.73,-5.26 14.1,-5.5 13.42,-5.71 12.72,-5.9 11.99,-6.07 11.22,-6.2 10.43,-6.32 9.61,-6.4 8.77,-6.47 7.9,-6.51 7.02,-6.53 6.11,-6.52 5.19,-6.49 4.25,-6.45 3.31,-6.38 2.35,-6.29 1.38,-6.18 0.41,-6.06 -0.57,-5.92 -1.55,-5.77 -2.53,-5.6 -3.5,-5.42 -4.47,-5.22 -5.43,-5.02 -6.39,-4.8 -7.33,-4.58 -8.27,-4.35 -9.18,-4.11 -10.09,-3.87 -10.97,-3.62 -11.84,-3.36 -12.68,-3.11 -13.5,-2.85 -14.3,-2.59 -15.08,-2.33 -15.83,-2.07 -16.55,-1.81 -17.25,-1.56 -17.92,-1.3 -18.56,-1.05 -19.18,-0.8 -19.76,-0.56 -20.32,-0.32 -20.85,-0.08 -21.35,0.15 -21.82,0.38 -22.27,0.61 -22.69,0.83 -23.08,1.04 -23.44,1.25 -23.78,1.46 -24.09,1.66 -24.36,1.86 -24.62,2.05 -24.84,2.24 -25.03,2.42 -25.2,2.6 -25.34,2.77 -28.15,4.74 -27.77,4.8 -27.37,4.87 -26.95,4.93 -26.5,4.98 -26.04,5.04 -25.55,5.09 -25.04,5.14 -24.52,5.19 -23.97,5.23 -23.4,5.28 -22.81,5.32 -22.2,5.36 -21.57,5.4 -20.92,5.43 -20.25,5.47 -19.56,5.5 -18.85,5.53 -18.12,5.56 -17.36,5.58 -16.59,5.61 -15.79,5.63 -14.98,5.66 -14.15,5.68 -13.3,5.7 -12.44,5.72 -11.56,5.74 -10.67,5.76 -9.76,5.77 -8.85,5.79 -7.92,5.81 -6.99,5.82 -6.05,5.83 -5.11,5.85 -4.16,5.86 -3.21,5.88 -2.26,5.89 -1.32,5.9 -0.37,5.91 0.57,5.92 1.5,5.93 2.43,5.94 3.34,5.95 4.25,5.96 5.14,5.96 6.02,5.97 6.88,5.97 7.72,5.97 8.54,5.97 9.35,5.97 10.13,5.97 10.88,5.96 11.62,5.95 12.33,5.94 13.01,5.92 13.66,5.9 14.29,5.87 14.89,5.84 15.45,5.8 15.99,5.76 16.5,5.71 16.98,5.66 17.42,5.6 17.84,5.53 18.22,5.45 18.64,5.36 19.04,5.26 19.43,5.15 19.79,5.03 20.13,4.9 20.46,4.76 20.77,4.61 21.06,4.44 21.33,4.26 21.58,4.07 21.82,3.86 22.03,3.64 22.23,3.39 22.41,3.13 22.58,2.86" />
      </clipPath>
      <clipPath id="rightEyeClipPath">
        <polyline points="-23.08,1.89 -22.88,1.6 -22.64,1.31 -22.39,1.01 -22.11,0.71 -21.81,0.41 -21.48,0.1 -21.12,-0.2 -20.74,-0.5 -20.34,-0.8 -19.9,-1.1 -19.44,-1.39 -18.96,-1.68 -18.45,-1.95 -17.91,-2.23 -17.35,-2.49 -16.87,-2.89 -16.33,-3.27 -15.75,-3.63 -15.13,-3.97 -14.46,-4.3 -13.75,-4.6 -13,-4.88 -12.21,-5.14 -11.38,-5.38 -10.51,-5.6 -9.61,-5.79 -8.68,-5.96 -7.73,-6.1 -6.74,-6.22 -5.74,-6.32 -4.71,-6.4 -3.67,-6.45 -2.62,-6.49 -1.55,-6.5 -0.48,-6.49 0.6,-6.45 1.67,-6.4 2.75,-6.33 3.82,-6.25 4.88,-6.14 5.94,-6.02 6.98,-5.89 8,-5.74 9,-5.57 9.99,-5.39 10.94,-5.2 11.88,-5 12.78,-4.8 13.66,-4.58 14.5,-4.35 15.31,-4.12 16.09,-3.88 16.83,-3.64 17.53,-3.39 18.19,-3.14 18.81,-2.89 19.4,-2.63 19.94,-2.38 20.44,-2.12 20.9,-1.87 21.32,-1.62 21.7,-1.37 22.05,-1.12 22.35,-0.87 22.61,-0.63 22.84,-0.39 23.03,-0.16 23.17,0.07 23.28,0.3 23.36,0.53 23.39,0.75 23.38,0.97 23.34,1.18 23.25,1.39 23.13,1.59 22.98,1.79 22.78,1.99 22.55,2.18 22.28,2.36 27.39,4.76 26.82,4.83 26.23,4.91 25.63,4.98 25.01,5.04 24.37,5.11 23.71,5.17 23.04,5.23 22.35,5.28 21.64,5.34 20.92,5.39 20.18,5.44 19.43,5.49 18.66,5.53 17.88,5.57 17.08,5.61 16.27,5.65 15.44,5.69 14.59,5.72 13.72,5.75 12.85,5.78 11.96,5.81 11.05,5.84 10.14,5.86 9.21,5.89 8.28,5.91 7.34,5.93 6.39,5.95 5.44,5.97 4.49,5.99 3.54,6.01 2.58,6.03 1.63,6.04 0.68,6.06 -0.27,6.07 -1.21,6.09 -2.14,6.1 -3.07,6.12 -3.98,6.13 -4.88,6.14 -5.77,6.16 -6.65,6.17 -7.51,6.18 -8.35,6.19 -9.17,6.2 -9.98,6.2 -10.76,6.21 -11.52,6.22 -12.26,6.22 -12.97,6.22 -13.67,6.22 -14.33,6.22 -14.97,6.22 -15.59,6.21 -16.17,6.2 -16.73,6.19 -17.27,6.17 -17.77,6.15 -18.25,6.12 -18.7,6.09 -19.12,6.06 -19.52,6.02 -19.89,5.97 -20.23,5.91 -20.55,5.85 -20.89,5.78 -21.22,5.7 -21.53,5.61 -21.83,5.51 -22.11,5.41 -22.37,5.29 -22.62,5.16 -22.85,5.03 -23.06,4.88 -23.26,4.71 -23.45,4.54 -23.62,4.35 -23.77,4.14 -23.91,3.92 -24.03,3.69" />
      </clipPath>
      <filter id="fuzzy">
        <feTurbulence id="turbulence" baseFrequency="0.05" numOctaves="3" type="noise" result="noise" />
        <feDisplacementMap in="SourceGraphic" in2="noise" scale="2" />
      </filter>
      <linearGradient id="rainbowGradient" x1="0%" y1="0%" x2="100%" y2="0%">
        <stop offset="0%" style="stop-color: rgb(96, 242, 166); stop-opacity: 1" />
        <stop offset="50%" style="stop-color: rgb(75, 19, 23); stop-opacity: 1" />
        <stop offset="100%" style="stop-color: rgb(134, 82, 178); stop-opacity: 1" />
      </linearGradient>
    </defs>
    <rect x="-100" y="-100" width="100%" height="100%" fill="rgb(230, 166, 242)" />
    <polyline id="faceContour" points="69.68,-0.19 69.7,1.18 69.76,3.11 69.83,4.35 69.77,6.09 69.74,5.21 69.45,10.19 69.42,9.71 69.3,11.01 68.86,13.87 68.54,16.55 68.78,15.46 68.79,16.16 68.58,17.25 68.35,17.78 67.95,20.63 67.68,22.56 67.06,24.94 66.76,26.29 66.57,27.12 66.36,28.07 65.4,31.38 65.7,30.72 65.88,30.57 64.53,34.29 64.81,33.84 64.36,35.08 63.7,37.12 63.55,37.93 61.87,42.2 61.67,42.57 61.84,42.49 61.46,42.83 60.74,44.7 59.48,48 59.42,47.6 58.79,48.87 57.42,51.31 56.79,52.85 57.79,51.19 57.44,51.62 56.28,53.78 54.83,55.91 55.05,55.83 54.31,57.15 53.34,58.54 53.05,58.92 52.27,60.54 49.86,64 49.62,64.01 48.35,65.48 48.29,65.75 48.24,65.49 47.11,66.85 46.11,68.18 45.3,69.17 44.97,69.47 42.28,72.18 42.19,72.39 41.79,72.93 39.8,74.8 39.45,74.91 39.82,74.8 37.25,77.18 37.95,76.24 35.76,78.11 35.92,78.13 34.77,78.89 34.55,79.11 32.97,80.11 31.95,80.95 30.56,81.66 29.67,82.08 28.17,83.34 28.34,83.03 25.86,84.42 25.5,84.91 24.12,85.42 23.71,85.55 22.11,86.11 20.93,86.55 21.18,86.9 19.35,87.55 18.15,87.99 16.52,88.53 16.48,88.3 14.09,88.91 13.62,88.93 12.68,89.63 11.37,89.78 12.41,89.75 8.67,90.38 7.45,90.39 8.63,90.47 7.61,90.29 6.78,90.57 3.95,90.66 2.8,90.72 3.07,90.66 2.49,90.77 -0.23,90.91 -1.05,91.05 -1.01,90.71 -4.36,90.57 -3.79,90.77 -6.12,90.68 -5.88,90.78 -7.64,90.6 -9.11,90.08 -9.47,89.93 -12.33,89.63 -12.34,89.72 -14.24,89.13 -15.41,88.91 -15.57,88.86 -16.31,88.31 -17.49,87.94 -18.62,87.82 -18.64,87.7 -20.96,86.75 -22.75,86.11 -21.77,86.44 -23.79,85.63 -26.07,84.24 -25.26,84.87 -26.79,83.63 -28.54,83.17 -28.14,83.43 -28.8,82.91 -31.66,80.98 -31.86,80.91 -33.24,80.08 -32.25,80.62 -35.31,78.23 -36.47,77.67 -38.01,76.23 -38.47,75.92 -37.22,77.03 -39.14,75.45 -40.17,74.38 -40.65,73.97 -42.14,72.29 -41.7,72.71 -42.82,71.83 -44.33,70.11 -46.29,68.05 -46.29,67.99 -46.16,68.14 -47.89,66.43 -48.52,64.98 -48.64,65.39 -48.93,64.82 -51.49,61.01 -51.53,61.04 -51.48,61.67 -53.72,58.22 -53.21,58.88 -53.72,57.88 -54.85,56.35 -56.12,54.31 -56.29,53.83 -57.75,50.97 -57.68,51.1 -58.23,49.7 -58.93,48.66 -59.7,47.1 -60.62,45.31 -60.92,44.23 -61.48,43.01 -61.76,41.97 -61.4,43.06 -62.46,40.23 -63.02,39.2 -62.7,39.74 -63.84,35.98 -64.02,36.01 -65.39,31.59 -65.74,29.99 -65.26,31.85 -65.88,29.66 -66.39,27.64 -66.92,25.93 -67,25.26 -67.16,24.46 -66.85,25.25 -67.95,20.89 -67.86,21.27 -68.14,19.36 -68.23,18.24 -68.58,16.4 -68.55,16.08 -68.99,13.22 -69.49,9.29 -69.11,10.48 -69.3,8.9 -69.46,6.93 -69.67,5.75 -69.79,4.27 -69.68,3.31 -69.84,1.87 -69.58,-2.05 -69.6,-2.09 -69.84,-1.7 -69.7,-3.26 -69.63,-7.5 -69.41,-8.93 -69.57,-8.28 -69.27,-10.95 -69.28,-10.44 -69.13,-11.77 -68.83,-15.53 -68.63,-15.07 -68.47,-16.45 -68.24,-19.16 -68.01,-19.44 -67.82,-21.46 -66.95,-24.66 -66.97,-25.17 -66.8,-25.52 -66.66,-27.34 -66.47,-27.74 -66.61,-27.41 -65.76,-30.37 -65.42,-31.01 -65.36,-32.32 -64.33,-34.71 -63.91,-36.85 -64.13,-35.29 -63.26,-38.32 -62.88,-39.07 -61.92,-42.27 -62.03,-41.85 -60.21,-46.08 -61.09,-43.76 -60.1,-45.9 -59.72,-47.27 -59.38,-47.81 -58.08,-50.13 -57.96,-50.73 -56.41,-53.39 -56.38,-53.68 -55.73,-54.86 -54.99,-56.04 -54.73,-56.25 -53.63,-58.26 -52.31,-60.13 -51.01,-61.92 -52.02,-60.9 -50.56,-62.5 -49.59,-64.03 -49.65,-64.13 -49.31,-64.56 -48.59,-65.17 -47.2,-67.28 -46.2,-68.06 -46.14,-68.29 -44.29,-70.32 -43.56,-70.94 -43.16,-71.31 -42.54,-72.16 -40.53,-74.01 -39.24,-75.15 -38.51,-75.78 -39.1,-75.41 -37.65,-76.76 -35.95,-77.87 -36.8,-77.55 -33.88,-79.71 -35.27,-78.61 -31.74,-81.12 -31.32,-81.15 -29.55,-82.13 -28.4,-83.18 -29.45,-82.54 -27.62,-83.77 -27.8,-83.19 -24.26,-85.06 -24.28,-85.23 -23.92,-85.54 -21.23,-86.89 -21.84,-86.65 -19.56,-87.19 -18.85,-87.51 -16.91,-88.2 -17.04,-88.46 -16.73,-88.28 -15.55,-88.85 -14.53,-89.08 -12.73,-89.73 -12.2,-89.52 -11.91,-89.5 -10.22,-90.06 -7.88,-90.27 -8.41,-90.52 -5.22,-91.01 -4.36,-90.84 -3.64,-90.76 -2.26,-91.07 -2.6,-90.85 -0.73,-90.96 0.03,-91.11 0.74,-91.06 0.75,-91.24 2.52,-90.95 5.98,-90.87 5.97,-90.49 6.2,-90.62 7.27,-90.52 7.87,-90.49 10.21,-90.23 10.33,-90.11 13.64,-89.26 13.58,-89.39 15.27,-88.85 14.62,-89.17 15.95,-88.77 16.59,-88.18 19.47,-87.23 19.87,-87.17 19.11,-87.68 21.18,-86.5 22.65,-86.01 23.41,-85.6 25.03,-84.85 26.72,-84.09 26.5,-83.98 27.46,-83.89 27.91,-83.73 29.76,-82.38 29.96,-82.4 31.73,-81.19 32.15,-80.83 32.5,-80.57 33.83,-79.55 35.62,-78.29 35.22,-78.63 38.67,-76.02 38.69,-75.9 39.64,-74.69 40.48,-74.09 41.36,-73.23 41.41,-73.29 42.93,-71.69 43.5,-71.46 44.52,-69.96 45.13,-69.6 45.84,-68.45 47.61,-66.66 48,-65.91 48,-66.17 48.38,-65.79 50.12,-63.22 52.19,-60.69 52.94,-59.81 53.47,-58.64 52.96,-59.46 52.94,-59.51 55.02,-55.85 54.51,-57.05 55.65,-54.85 55.79,-54.77 56.46,-53.73 58.42,-49.82 57.62,-51.4 58.9,-48.97 60.11,-45.88 59.27,-48.1 60.34,-45.75 60.74,-44.5 60.88,-44.64 61.61,-42.64 62.54,-39.93 62.98,-39.88 63.79,-37.24 64.39,-35.02 64.77,-33.91 64.96,-33.34 65.59,-31.33 66.06,-29.27 66.19,-29.53 66.55,-27.74 66.25,-28.24 67.22,-25.22 67.51,-23.83 67.4,-24.11 67.76,-21.26 68.05,-20.49 68.23,-18.38 68.53,-16.92 68.94,-14.08 69.09,-13.49 69.16,-12.28 69.44,-11.23 69.06,-11.86 69.41,-8.03 69.65,-6.56 69.7,-4.48 69.83,-2.99 69.76,-1.33 69.77,-1.55 69.68,-0.19 69.7,1.18" fill="rgb(63, 223, 32)" stroke="black" stroke-width="1.6666666666666665" stroke-linejoin="round" filter="url(#fuzzy)" />
    <g transform="translate(30.85 -32.97)">
      <polyline id="rightCountour" points="-23.08,1.89 -22.88,1.6 -22.64,1.31 -22.39,1.01 -22.11,0.71 -21.81,0.41 -21.48,0.1 -21.12,-0.2 -20.74,-0.5 -20.34,-0.8 -19.9,-1.1 -19.44,-1.39 -18.96,-1.68 -18.45,-1.95 -17.91,-2.23 -17.35,-2.49 -16.87,-2.89 -16.33,-3.27 -15.75,-3.63 -15.13,-3.97 -14.46,-4.3 -13.75,-4.6 -13,-4.88 -12.21,-5.14 -11.38,-5.38 -10.51,-5.6 -9.61,-5.79 -8.68,-5.96 -7.73,-6.1 -6.74,-6.22 -5.74,-6.32 -4.71,-6.4 -3.67,-6.45 -2.62,-6.49 -1.55,-6.5 -0.48,-6.49 0.6,-6.45 1.67,-6.4 2.75,-6.33 3.82,-6.25 4.88,-6.14 5.94,-6.02 6.98,-5.89 8,-5.74 9,-5.57 9.99,-5.39 10.94,-5.2 11.88,-5 12.78,-4.8 13.66,-4.58 14.5,-4.35 15.31,-4.12 16.09,-3.88 16.83,-3.64 17.53,-3.39 18.19,-3.14 18.81,-2.89 19.4,-2.63 19.94,-2.38 20.44,-2.12 20.9,-1.87 21.32,-1.62 21.7,-1.37 22.05,-1.12 22.35,-0.87 22.61,-0.63 22.84,-0.39 23.03,-0.16 23.17,0.07 23.28,0.3 23.36,0.53 23.39,0.75 23.38,0.97 23.34,1.18 23.25,1.39 23.13,1.59 22.98,1.79 22.78,1.99 22.55,2.18 22.28,2.36 27.39,4.76 26.82,4.83 26.23,4.91 25.63,4.98 25.01,5.04 24.37,5.11 23.71,5.17 23.04,5.23 22.35,5.28 21.64,5.34 20.92,5.39 20.18,5.44 19.43,5.49 18.66,5.53 17.88,5.57 17.08,5.61 16.27,5.65 15.44,5.69 14.59,5.72 13.72,5.75 12.85,5.78 11.96,5.81 11.05,5.84 10.14,5.86 9.21,5.89 8.28,5.91 7.34,5.93 6.39,5.95 5.44,5.97 4.49,5.99 3.54,6.01 2.58,6.03 1.63,6.04 0.68,6.06 -0.27,6.07 -1.21,6.09 -2.14,6.1 -3.07,6.12 -3.98,6.13 -4.88,6.14 -5.77,6.16 -6.65,6.17 -7.51,6.18 -8.35,6.19 -9.17,6.2 -9.98,6.2 -10.76,6.21 -11.52,6.22 -12.26,6.22 -12.97,6.22 -13.67,6.22 -14.33,6.22 -14.97,6.22 -15.59,6.21 -16.17,6.2 -16.73,6.19 -17.27,6.17 -17.77,6.15 -18.25,6.12 -18.7,6.09 -19.12,6.06 -19.52,6.02 -19.89,5.97 -20.23,5.91 -20.55,5.85 -20.89,5.78 -21.22,5.7 -21.53,5.61 -21.83,5.51 -22.11,5.41 -22.37,5.29 -22.62,5.16 -22.85,5.03 -23.06,4.88 -23.26,4.71 -23.45,4.54 -23.62,4.35 -23.77,4.14 -23.91,3.92 -24.03,3.69" fill="white" stroke="white" stroke-width="0" stroke-linejoin="round" filter="url(#fuzzy)" />
    </g>
    <g transform="translate(-44.91 -27.14)">
      <polyline id="leftCountour" points="22.49,1.4 22.35,1.11 22.19,0.81 22.02,0.51 21.82,0.2 21.6,-0.1 21.36,-0.41 21.09,-0.71 20.81,-1.01 20.5,-1.31 20.17,-1.6 19.82,-1.88 19.45,-2.16 19.06,-2.43 18.64,-2.69 18.2,-2.94 17.81,-3.34 17.39,-3.71 16.93,-4.07 16.44,-4.4 15.91,-4.71 15.34,-5 14.73,-5.26 14.1,-5.5 13.42,-5.71 12.72,-5.9 11.99,-6.07 11.22,-6.2 10.43,-6.32 9.61,-6.4 8.77,-6.47 7.9,-6.51 7.02,-6.53 6.11,-6.52 5.19,-6.49 4.25,-6.45 3.31,-6.38 2.35,-6.29 1.38,-6.18 0.41,-6.06 -0.57,-5.92 -1.55,-5.77 -2.53,-5.6 -3.5,-5.42 -4.47,-5.22 -5.43,-5.02 -6.39,-4.8 -7.33,-4.58 -8.27,-4.35 -9.18,-4.11 -10.09,-3.87 -10.97,-3.62 -11.84,-3.36 -12.68,-3.11 -13.5,-2.85 -14.3,-2.59 -15.08,-2.33 -15.83,-2.07 -16.55,-1.81 -17.25,-1.56 -17.92,-1.3 -18.56,-1.05 -19.18,-0.8 -19.76,-0.56 -20.32,-0.32 -20.85,-0.08 -21.35,0.15 -21.82,0.38 -22.27,0.61 -22.69,0.83 -23.08,1.04 -23.44,1.25 -23.78,1.46 -24.09,1.66 -24.36,1.86 -24.62,2.05 -24.84,2.24 -25.03,2.42 -25.2,2.6 -25.34,2.77 -28.15,4.74 -27.77,4.8 -27.37,4.87 -26.95,4.93 -26.5,4.98 -26.04,5.04 -25.55,5.09 -25.04,5.14 -24.52,5.19 -23.97,5.23 -23.4,5.28 -22.81,5.32 -22.2,5.36 -21.57,5.4 -20.92,5.43 -20.25,5.47 -19.56,5.5 -18.85,5.53 -18.12,5.56 -17.36,5.58 -16.59,5.61 -15.79,5.63 -14.98,5.66 -14.15,5.68 -13.3,5.7 -12.44,5.72 -11.56,5.74 -10.67,5.76 -9.76,5.77 -8.85,5.79 -7.92,5.81 -6.99,5.82 -6.05,5.83 -5.11,5.85 -4.16,5.86 -3.21,5.88 -2.26,5.89 -1.32,5.9 -0.37,5.91 0.57,5.92 1.5,5.93 2.43,5.94 3.34,5.95 4.25,5.96 5.14,5.96 6.02,5.97 6.88,5.97 7.72,5.97 8.54,5.97 9.35,5.97 10.13,5.97 10.88,5.96 11.62,5.95 12.33,5.94 13.01,5.92 13.66,5.9 14.29,5.87 14.89,5.84 15.45,5.8 15.99,5.76 16.5,5.71 16.98,5.66 17.42,5.6 17.84,5.53 18.22,5.45 18.64,5.36 19.04,5.26 19.43,5.15 19.79,5.03 20.13,4.9 20.46,4.76 20.77,4.61 21.06,4.44 21.33,4.26 21.58,4.07 21.82,3.86 22.03,3.64 22.23,3.39 22.41,3.13 22.58,2.86" fill="white" stroke="white" stroke-width="0" stroke-linejoin="round" filter="url(#fuzzy)" />
    </g>
    <g transform="translate(30.85 -32.97)">
      <polyline id="rightUpper" points="-24.06,4.04 -24.04,3.91 -24,3.76 -23.94,3.59 -23.87,3.39 -23.79,3.18 -23.69,2.95 -23.57,2.7 -23.43,2.44 -23.27,2.17 -23.08,1.89 -22.88,1.6 -22.64,1.31 -22.39,1.01 -22.11,0.71 -21.81,0.41 -21.48,0.1 -21.12,-0.2 -20.74,-0.5 -20.34,-0.8 -19.9,-1.1 -19.44,-1.39 -18.96,-1.68 -18.45,-1.95 -17.91,-2.23 -17.35,-2.49 -16.87,-2.89 -16.33,-3.27 -15.75,-3.63 -15.13,-3.97 -14.46,-4.3 -13.75,-4.6 -13,-4.88 -12.21,-5.14 -11.38,-5.38 -10.51,-5.6 -9.61,-5.79 -8.68,-5.96 -7.73,-6.1 -6.74,-6.22 -5.74,-6.32 -4.71,-6.4 -3.67,-6.45 -2.62,-6.49 -1.55,-6.5 -0.48,-6.49 0.6,-6.45 1.67,-6.4 2.75,-6.33 3.82,-6.25 4.88,-6.14 5.94,-6.02 6.98,-5.89 8,-5.74 9,-5.57 9.99,-5.39 10.94,-5.2 11.88,-5 12.78,-4.8 13.66,-4.58 14.5,-4.35 15.31,-4.12 16.09,-3.88 16.83,-3.64 17.53,-3.39 18.19,-3.14 18.81,-2.89 19.4,-2.63 19.94,-2.38 20.44,-2.12 20.9,-1.87 21.32,-1.62 21.7,-1.37 22.05,-1.12 22.35,-0.87 22.61,-0.63 22.84,-0.39 23.03,-0.16 23.17,0.07 23.28,0.3 23.36,0.53 23.39,0.75 23.38,0.97 23.34,1.18 23.25,1.39 23.13,1.59 22.98,1.79 22.78,1.99 22.55,2.18 22.28,2.36 21.98,2.54 21.64,2.72 21.27,2.89 20.87,3.05 20.43,3.21 19.96,3.36 19.46,3.51 18.93,3.65 18.37,3.79 17.78,3.93" fill="none" stroke="black" stroke-width="1.6666666666666665" stroke-linejoin="round" filter="url(#fuzzy)" />
      <polyline id="rightLower" points="-24.61,0.27 -24.6,0.71 -24.58,1.13 -24.55,1.53 -24.52,1.9 -24.47,2.24 -24.4,2.57 -24.33,2.88 -24.25,3.17 -24.15,3.44 -24.03,3.69 -23.91,3.92 -23.77,4.14 -23.62,4.35 -23.45,4.54 -23.26,4.71 -23.06,4.88 -22.85,5.03 -22.62,5.16 -22.37,5.29 -22.11,5.41 -21.83,5.51 -21.53,5.61 -21.22,5.7 -20.89,5.78 -20.55,5.85 -20.23,5.91 -19.89,5.97 -19.52,6.02 -19.12,6.06 -18.7,6.09 -18.25,6.12 -17.77,6.15 -17.27,6.17 -16.73,6.19 -16.17,6.2 -15.59,6.21 -14.97,6.22 -14.33,6.22 -13.67,6.22 -12.97,6.22 -12.26,6.22 -11.52,6.22 -10.76,6.21 -9.98,6.2 -9.17,6.2 -8.35,6.19 -7.51,6.18 -6.65,6.17 -5.77,6.16 -4.88,6.14 -3.98,6.13 -3.07,6.12 -2.14,6.1 -1.21,6.09 -0.27,6.07 0.68,6.06 1.63,6.04 2.58,6.03 3.54,6.01 4.49,5.99 5.44,5.97 6.39,5.95 7.34,5.93 8.28,5.91 9.21,5.89 10.14,5.86 11.05,5.84 11.96,5.81 12.85,5.78 13.72,5.75 14.59,5.72 15.44,5.69 16.27,5.65 17.08,5.61 17.88,5.57 18.66,5.53 19.43,5.49 20.18,5.44 20.92,5.39 21.64,5.34 22.35,5.28 23.04,5.23 23.71,5.17 24.37,5.11 25.01,5.04 25.63,4.98 26.23,4.91 26.82,4.83 27.39,4.76 27.94,4.68 28.47,4.6 28.98,4.51 29.48,4.43 29.95,4.34 30.41,4.25 30.85,4.15 31.28,4.05 31.68,3.95 32.07,3.85" fill="none" stroke="black" stroke-width="2.2222222222222223" stroke-linejoin="round" filter="url(#fuzzy)" />
      <circle r="3.442" cx="-17.666773805187603" cy="1.1742548765801244" stroke="black" fill="none" stroke-width="1.0" filter="url(#fuzzy)" clip-path="url(#rightEyeClipPath)" /><circle r="3.324" cx="-18.156773805187605" cy="2.809254876580124" stroke="black" fill="none" stroke-width="1.0" filter="url(#fuzzy)" clip-path="url(#rightEyeClipPath)" /><circle r="4.5" cx="-17.991773805187606" cy="3.394254876580124" stroke="black" fill="none" stroke-width="1.0" filter="url(#fuzzy)" clip-path="url(#rightEyeClipPath)" /><circle r="3.7" cx="-19.531773805187605" cy="1.5892548765801244" stroke="black" fill="none" stroke-width="1.0" filter="url(#fuzzy)" clip-path="url(#rightEyeClipPath)" /><circle r="4.36" cx="-17.041773805187603" cy="1.0892548765801244" stroke="black" fill="none" stroke-width="1.0" filter="url(#fuzzy)" clip-path="url(#rightEyeClipPath)" /><circle r="3.294" cx="-20.801773805187604" cy="3.434254876580124" stroke="black" fill="none" stroke-width="1.0" filter="url(#fuzzy)" clip-path="url(#rightEyeClipPath)" /><circle r="4.974" cx="-17.751773805187604" cy="1.3942548765801241" stroke="black" fill="none" stroke-width="1.0" filter="url(#fuzzy)" clip-path="url(#rightEyeClipPath)" /><circle r="3.01" cx="-20.426773805187604" cy="4.994254876580124" stroke="black" fill="none" stroke-width="1.0" filter="url(#fuzzy)" clip-path="url(#rightEyeClipPath)" /><circle r="3.362" cx="-20.191773805187605" cy="1.7492548765801246" stroke="black" fill="none" stroke-width="1.0" filter="url(#fuzzy)" clip-path="url(#rightEyeClipPath)" /><circle r="3.11" cx="-19.256773805187603" cy="1.2292548765801241" stroke="black" fill="none" stroke-width="1.0" filter="url(#fuzzy)" clip-path="url(#rightEyeClipPath)" />
      </g>
    <g transform="translate(-44.91 -27.14)">
      <polyline id="leftUpper" points="22.9,3.61 22.92,3.48 22.93,3.32 22.93,3.14 22.92,2.94 22.89,2.72 22.84,2.48 22.78,2.23 22.7,1.96 22.6,1.68 22.49,1.4 22.35,1.11 22.19,0.81 22.02,0.51 21.82,0.2 21.6,-0.1 21.36,-0.41 21.09,-0.71 20.81,-1.01 20.5,-1.31 20.17,-1.6 19.82,-1.88 19.45,-2.16 19.06,-2.43 18.64,-2.69 18.2,-2.94 17.81,-3.34 17.39,-3.71 16.93,-4.07 16.44,-4.4 15.91,-4.71 15.34,-5 14.73,-5.26 14.1,-5.5 13.42,-5.71 12.72,-5.9 11.99,-6.07 11.22,-6.2 10.43,-6.32 9.61,-6.4 8.77,-6.47 7.9,-6.51 7.02,-6.53 6.11,-6.52 5.19,-6.49 4.25,-6.45 3.31,-6.38 2.35,-6.29 1.38,-6.18 0.41,-6.06 -0.57,-5.92 -1.55,-5.77 -2.53,-5.6 -3.5,-5.42 -4.47,-5.22 -5.43,-5.02 -6.39,-4.8 -7.33,-4.58 -8.27,-4.35 -9.18,-4.11 -10.09,-3.87 -10.97,-3.62 -11.84,-3.36 -12.68,-3.11 -13.5,-2.85 -14.3,-2.59 -15.08,-2.33 -15.83,-2.07 -16.55,-1.81 -17.25,-1.56 -17.92,-1.3 -18.56,-1.05 -19.18,-0.8 -19.76,-0.56 -20.32,-0.32 -20.85,-0.08 -21.35,0.15 -21.82,0.38 -22.27,0.61 -22.69,0.83 -23.08,1.04 -23.44,1.25 -23.78,1.46 -24.09,1.66 -24.36,1.86 -24.62,2.05 -24.84,2.24 -25.03,2.42 -25.2,2.6 -25.34,2.77 -25.45,2.94 -25.53,3.1 -25.59,3.26 -25.62,3.41 -25.62,3.55 -25.6,3.7 -25.56,3.83 -25.48,3.96 -25.39,4.09 -25.27,4.21" fill="none" stroke="black" stroke-width="2.2222222222222223" stroke-linejoin="round" filter="url(#fuzzy)" />
      <polyline id="leftLower" points="23.4,-1.14 23.38,-0.62 23.35,-0.14 23.3,0.32 23.24,0.75 23.17,1.16 23.08,1.54 22.98,1.9 22.86,2.24 22.73,2.56 22.58,2.86 22.41,3.13 22.23,3.39 22.03,3.64 21.82,3.86 21.58,4.07 21.33,4.26 21.06,4.44 20.77,4.61 20.46,4.76 20.13,4.9 19.79,5.03 19.43,5.15 19.04,5.26 18.64,5.36 18.22,5.45 17.84,5.53 17.42,5.6 16.98,5.66 16.5,5.71 15.99,5.76 15.45,5.8 14.89,5.84 14.29,5.87 13.66,5.9 13.01,5.92 12.33,5.94 11.62,5.95 10.88,5.96 10.13,5.97 9.35,5.97 8.54,5.97 7.72,5.97 6.88,5.97 6.02,5.97 5.14,5.96 4.25,5.96 3.34,5.95 2.43,5.94 1.5,5.93 0.57,5.92 -0.37,5.91 -1.32,5.9 -2.26,5.89 -3.21,5.88 -4.16,5.86 -5.11,5.85 -6.05,5.83 -6.99,5.82 -7.92,5.81 -8.85,5.79 -9.76,5.77 -10.67,5.76 -11.56,5.74 -12.44,5.72 -13.3,5.7 -14.15,5.68 -14.98,5.66 -15.79,5.63 -16.59,5.61 -17.36,5.58 -18.12,5.56 -18.85,5.53 -19.56,5.5 -20.25,5.47 -20.92,5.43 -21.57,5.4 -22.2,5.36 -22.81,5.32 -23.4,5.28 -23.97,5.23 -24.52,5.19 -25.04,5.14 -25.55,5.09 -26.04,5.04 -26.5,4.98 -26.95,4.93 -27.37,4.87 -27.77,4.8 -28.15,4.74 -28.51,4.67 -28.85,4.6 -29.16,4.53 -29.46,4.46 -29.73,4.38 -29.99,4.3 -30.22,4.22 -30.43,4.14 -30.63,4.05 -30.81,3.96" fill="none" stroke="black" stroke-width="2.2222222222222223" stroke-linejoin="round" filter="url(#fuzzy)" />
      <circle r="3.386" cx="-7.028377572721833" cy="0.9916946251797989" stroke="black" fill="none" stroke-width="1.0" filter="url(#fuzzy)" clip-path="url(#leftEyeClipPath)" /><circle r="4.864" cx="-6.168377572721833" cy="1.6516946251797986" stroke="black" fill="none" stroke-width="1.0" filter="url(#fuzzy)" clip-path="url(#leftEyeClipPath)" /><circle r="4.282" cx="-7.833377572721833" cy="3.4566946251797983" stroke="black" fill="none" stroke-width="1.0" filter="url(#fuzzy)" clip-path="url(#leftEyeClipPath)" /><circle r="3.126" cx="-7.198377572721833" cy="1.4766946251797988" stroke="black" fill="none" stroke-width="1.0" filter="url(#fuzzy)" clip-path="url(#leftEyeClipPath)" /><circle r="4.416" cx="-7.463377572721834" cy="-0.19330537482020116" stroke="black" fill="none" stroke-width="1.0" filter="url(#fuzzy)" clip-path="url(#leftEyeClipPath)" /><circle r="3.934" cx="-8.638377572721833" cy="0.29669462517979905" stroke="black" fill="none" stroke-width="1.0" filter="url(#fuzzy)" clip-path="url(#leftEyeClipPath)" /><circle r="4.3100000000000005" cx="-8.983377572721833" cy="3.541694625179799" stroke="black" fill="none" stroke-width="1.0" filter="url(#fuzzy)" clip-path="url(#leftEyeClipPath)" /><circle r="3.442" cx="-8.038377572721833" cy="0.8766946251797991" stroke="black" fill="none" stroke-width="1.0" filter="url(#fuzzy)" clip-path="url(#leftEyeClipPath)" /><circle r="4.98" cx="-9.808377572721833" cy="2.4116946251797984" stroke="black" fill="none" stroke-width="1.0" filter="url(#fuzzy)" clip-path="url(#leftEyeClipPath)" /><circle r="4.2780000000000005" cx="-6.508377572721833" cy="3.016694625179799" stroke="black" fill="none" stroke-width="1.0" filter="url(#fuzzy)" clip-path="url(#leftEyeClipPath)" />
    </g>
    <g id="hairs">
      <polyline points="-10.22,-90.06 -8.65,-90.28 -7.34,-90.52 -6,-90.7 -4.79,-90.81 -3.79,-90.87 -3.02,-90.9 -2.47,-90.93 -2.16,-90.94 -2.13,-90.92 -2.42,-90.87 -3.07,-90.75 -4.11,-90.54 -5.58,-90.27 -7.57,-89.97 -10.01,-89.75" fill="none" stroke="rgb(19, 38, 134)" stroke-width="2" stroke-linejoin="round" filter="url(#fuzzy)" /><polyline points="15.95,-88.77 16.98,-88.17 17.9,-87.69 18.32,-87.34 18.4,-86.99 18.25,-86.56 17.87,-86.05 17.16,-85.51 16.05,-84.96 14.49,-84.42 12.44,-83.9 9.88,-83.37 6.82,-82.79 3.2,-82.12 -0.97,-81.37 -5.74,-80.56 -11.08,-79.7 -17,-78.82 -23.52,-77.88 -30.79,-76.8" fill="none" stroke="rgb(19, 38, 134)" stroke-width="2" stroke-linejoin="round" filter="url(#fuzzy)" /><polyline points="44.52,-69.96 45.04,-69.43 45.41,-68.78 45.4,-68.35 44.86,-68.29 43.85,-68.52 42.4,-68.93 40.52,-69.53 38.1,-70.44 34.94,-71.83 30.91,-73.82 25.96,-76.39 20.21,-79.44 13.86,-82.86 6.95,-86.68" fill="none" stroke="rgb(19, 38, 134)" stroke-width="2" stroke-linejoin="round" filter="url(#fuzzy)" /><polyline points="26.5,-83.98 27.38,-83.75 28.39,-83.23 29.5,-82.53 30.62,-81.77 31.71,-81 32.78,-80.23 33.83,-79.45 34.88,-78.68 35.89,-77.91 36.83,-77.19 37.64,-76.56 38.25,-76.06 38.6,-75.76 38.67,-75.68 38.44,-75.82 37.93,-76.18 37.18,-76.74 36.2,-77.47 34.98,-78.4 33.49,-79.54 31.67,-80.94" fill="none" stroke="rgb(19, 38, 134)" stroke-width="2" stroke-linejoin="round" filter="url(#fuzzy)" /><polyline points="-27.62,-83.77 -26.54,-83.75 -24.32,-83.95 -21.63,-83.94 -18.48,-83.65 -14.82,-83.09 -10.66,-82.28 -6.03,-81.22 -1,-79.95 4.38,-78.45 10.08,-76.74 16.07,-74.86 22.3,-72.93 28.65,-71.11 34.98,-69.53 41.31,-68.09" fill="none" stroke="rgb(19, 38, 134)" stroke-width="2" stroke-linejoin="round" filter="url(#fuzzy)" /><polyline points="-23.92,-85.54 -22.04,-86.28 -20.4,-86.46 -18.46,-86.42 -16.26,-86.24 -13.87,-85.92 -11.29,-85.44 -8.48,-84.83 -5.4,-84.08 -2.07,-83.22 1.52,-82.24 5.3,-81.16 9.24,-80.01 13.29,-78.85 17.38,-77.72 21.49,-76.62 25.59,-75.5 29.7,-74.28 33.79,-72.94 37.77,-71.61 41.5,-70.49" fill="none" stroke="rgb(19, 38, 134)" stroke-width="2" stroke-linejoin="round" filter="url(#fuzzy)" /><polyline points="48,-65.91 48.26,-65.74 49.08,-64.71 50.19,-63.24 51.27,-61.78 52.15,-60.57 52.8,-59.63 53.3,-58.87 53.7,-58.21 54.06,-57.61 54.38,-57.05 54.64,-56.58 54.79,-56.24 54.81,-56.06 54.66,-56.1 54.35,-56.36 53.86,-56.89 53.17,-57.71 52.27,-58.84 51.13,-60.33 49.76,-62.17 48.15,-64.33 46.31,-66.81 44.15,-69.68" fill="none" stroke="rgb(19, 38, 134)" stroke-width="2" stroke-linejoin="round" filter="url(#fuzzy)" /><polyline points="-21.84,-86.65 -20.2,-87.07 -19.18,-87.37 -18.66,-87.5 -18.54,-87.44 -18.75,-87.18 -19.22,-86.74 -19.98,-86.08 -21.12,-85.17 -22.74,-83.95 -24.92,-82.37 -27.69,-80.44 -31.06,-78.17 -35.08,-75.56 -39.94,-72.43" fill="none" stroke="rgb(19, 38, 134)" stroke-width="2" stroke-linejoin="round" filter="url(#fuzzy)" /><polyline points="-39.1,-75.41 -37.64,-76.55 -36.16,-77.43 -34.53,-78.22 -32.62,-79.03 -30.4,-79.89 -27.94,-80.78 -25.32,-81.66 -22.64,-82.5 -19.94,-83.28 -17.22,-84.03 -14.46,-84.75 -11.63,-85.47 -8.74,-86.2 -5.85,-86.92 -3.07,-87.63 -0.5,-88.3 1.79,-88.96 3.78,-89.57 5.53,-90.1" fill="none" stroke="rgb(19, 38, 134)" stroke-width="2" stroke-linejoin="round" filter="url(#fuzzy)" /><polyline points="38.67,-76.02 38.72,-75.62 38.54,-74.98 37.86,-74.34 36.61,-73.74 34.74,-73.15 32.23,-72.53 29.03,-71.87 25.1,-71.16 20.4,-70.42 14.88,-69.68 8.52,-68.97 1.26,-68.29 -6.92,-67.65 -16.04,-66.96 -26.09,-66.15 -37.17,-65.21" fill="none" stroke="rgb(19, 38, 134)" stroke-width="2" stroke-linejoin="round" filter="url(#fuzzy)" /><polyline points="10.33,-90.11 12.63,-89.46 14.24,-88.84 15.78,-88.07 17.49,-87.09 19.46,-85.93 21.65,-84.63 23.97,-83.28 26.33,-81.88 28.72,-80.44 31.11,-78.97 33.49,-77.5 35.78,-76.11 37.91,-74.85 39.82,-73.73 41.46,-72.74" fill="none" stroke="rgb(19, 38, 134)" stroke-width="2" stroke-linejoin="round" filter="url(#fuzzy)" /><polyline points="35.22,-78.63 37.49,-76.84 38.8,-75.66 39.81,-74.66 40.73,-73.76 41.61,-72.91 42.44,-72.11 43.23,-71.35 43.91,-70.67 44.46,-70.11 44.82,-69.73 44.96,-69.56 44.85,-69.65 44.43,-70.05 43.7,-70.77 42.68,-71.78 41.37,-73.04" fill="none" stroke="rgb(19, 38, 134)" stroke-width="2" stroke-linejoin="round" filter="url(#fuzzy)" /><polyline points="19.11,-87.68 20.93,-86.7 22.59,-85.81 24.25,-84.86 25.92,-83.85 27.55,-82.81 29.12,-81.8 30.65,-80.78 32.17,-79.74 33.7,-78.67 35.2,-77.59 36.61,-76.55 37.87,-75.63 38.97,-74.84 39.88,-74.21 40.59,-73.74 41.05,-73.46 41.24,-73.36" fill="none" stroke="rgb(19, 38, 134)" stroke-width="2" stroke-linejoin="round" filter="url(#fuzzy)" /><polyline points="35.62,-78.29 36.12,-77.89 36.98,-77.08 37.45,-76.41 37.44,-76 36.98,-75.82 36.09,-75.85 34.78,-76.06 33.05,-76.44 30.89,-76.99 28.24,-77.72 25.08,-78.68 21.34,-79.88 16.96,-81.37 11.82,-83.19 5.8,-85.34 -1.04,-87.74" fill="none" stroke="rgb(19, 38, 134)" stroke-width="2" stroke-linejoin="round" filter="url(#fuzzy)" /><polyline points="-23.92,-85.54 -22.24,-86.36 -21.19,-86.77 -20.24,-87.07 -19.46,-87.31 -18.92,-87.47 -18.65,-87.52 -18.62,-87.46 -18.81,-87.25 -19.28,-86.89 -20.08,-86.33 -21.28,-85.55 -22.93,-84.56 -25,-83.34 -27.51,-81.91 -30.55,-80.22 -34.32,-78.13" fill="none" stroke="rgb(19, 38, 134)" stroke-width="2" stroke-linejoin="round" filter="url(#fuzzy)" /><polyline points="53.47,-58.64 53.29,-58.92 53.64,-58.32 54.18,-57.41 54.74,-56.47 55.28,-55.56 55.79,-54.65 56.25,-53.79 56.62,-53.02 56.87,-52.41 56.97,-52.03 56.9,-51.89 56.66,-52 56.27,-52.36 55.72,-52.94 55.01,-53.75 54.12,-54.79 53.05,-56.09 51.77,-57.68 50.26,-59.6 48.51,-61.89 46.5,-64.61 44.23,-67.79 41.64,-71.5" fill="none" stroke="rgb(19, 38, 134)" stroke-width="2" stroke-linejoin="round" filter="url(#fuzzy)" /><polyline points="-21.23,-86.89 -20.79,-86.84 -19.3,-86.94 -17.41,-87.01 -15.35,-86.97 -13.12,-86.81 -10.68,-86.54 -7.98,-86.18 -5.03,-85.76 -1.87,-85.28 1.45,-84.74 4.91,-84.15 8.48,-83.52 12.15,-82.86 15.86,-82.16 19.55,-81.44 23.15,-80.72 26.55,-80.07 29.65,-79.53 32.43,-79.11" fill="none" stroke="rgb(19, 38, 134)" stroke-width="2" stroke-linejoin="round" filter="url(#fuzzy)" /><polyline points="54.51,-57.05 55.25,-55.64 55.69,-54.77 55.96,-54.06 56.01,-53.59 55.73,-53.52 55.07,-53.92 53.99,-54.85 52.46,-56.35 50.49,-58.42 48.09,-61.02 45.26,-64.15 41.94,-67.84 38.07,-72.2 33.5,-77.39" fill="none" stroke="rgb(19, 38, 134)" stroke-width="2" stroke-linejoin="round" filter="url(#fuzzy)" /><polyline points="58.9,-48.97 59.49,-47.47 59.69,-46.96 59.83,-46.52 59.92,-46.08 59.93,-45.69 59.83,-45.42 59.58,-45.32 59.12,-45.48 58.43,-45.99 57.47,-46.92 56.19,-48.34 54.57,-50.31 52.58,-52.87 50.17,-56.05 47.31,-59.87 44.02,-64.3 40.32,-69.33 36.28,-74.88" fill="none" stroke="rgb(19, 38, 134)" stroke-width="2" stroke-linejoin="round" filter="url(#fuzzy)" /><polyline points="38.67,-76.02 38.98,-75.6 39.58,-74.95 40.2,-74.33 40.76,-73.79 41.22,-73.33 41.58,-72.94 41.8,-72.63 41.85,-72.43 41.69,-72.39 41.28,-72.53 40.59,-72.9 39.58,-73.53 38.27,-74.4 36.63,-75.5 34.64,-76.86 32.2,-78.54 29.18,-80.68 25.52,-83.35" fill="none" stroke="rgb(19, 38, 134)" stroke-width="2" stroke-linejoin="round" filter="url(#fuzzy)" /><polyline points="32.5,-80.57 33.61,-79.64 34.27,-78.85 34.51,-78.11 34.27,-77.41 33.48,-76.8 32.07,-76.32 30.03,-75.97 27.39,-75.74 24.16,-75.62 20.34,-75.57 15.9,-75.58 10.77,-75.63 4.86,-75.71 -1.86,-75.82 -9.41,-76.01 -17.74,-76.34 -26.78,-76.88" fill="none" stroke="rgb(19, 38, 134)" stroke-width="2" stroke-linejoin="round" filter="url(#fuzzy)" /><polyline points="62.98,-39.88 46.34,-58.97 38.59,-64.96 29.66,-70.03 19.32,-73.01 8.92,-74.12 0.46,-74.71 -4.82,-75.63 -6.98,-76.9 -6.92,-78.13 -5.68,-78.89 -4.11,-78.97 -2.87,-78.49 -2.62,-77.75 -3.96,-77.14 -7.2,-76.89 -11.74,-77.04 -15.73,-77.43 -16.79,-77.71 -13.6,-77.5 -7.22,-76.76 -3.09,-76.95 -29.55,-82.13" fill="none" stroke="rgb(19, 38, 134)" stroke-width="2" stroke-linejoin="round" filter="url(#fuzzy)" /><polyline points="-49.31,-64.56 -24.54,-80.37 -15.07,-84.54 -15.16,-82.24 -16.03,-77.22 -12.16,-71.76 -3.21,-66.84 8.24,-62.98 19.32,-60.69 28.01,-60.46 33.27,-62.38 34.93,-65.85 33.4,-69.7 29.34,-72.77 23.45,-74.36 16.65,-74.37 10.73,-72.95 8.76,-70.07 14.16,-65.6 25.76,-60.95 28.11,-63.31 -12.73,-89.73" fill="none" stroke="rgb(19, 38, 134)" stroke-width="2" stroke-linejoin="round" filter="url(#fuzzy)" /><polyline points="15.27,-88.85 10.63,-83.86 5.25,-78.03 -2.37,-77.06 -8.22,-78.5 -12.34,-79.91 -15.09,-80.83 -15.77,-81.63 -13.55,-82.49 -8.24,-83.24 -0.52,-83.73 8.04,-84.02 15.42,-84.1 20.3,-83.56 21.44,-83.04 6.2,-90.62" fill="none" stroke="rgb(19, 38, 134)" stroke-width="2" stroke-linejoin="round" filter="url(#fuzzy)" /><polyline points="26.72,-84.09 37.96,-68.04 25.65,-67.28 12.11,-72.82 6.28,-78.46 6.82,-81.36 10.45,-81.23 15.04,-79.04 19.22,-75.9 21.57,-72.66 20.77,-70.11 16.5,-69.11 10.05,-70.18 3.74,-72.53 -0.34,-74.3 0.57,-74.66 14.61,-74.55 47.61,-66.66" fill="none" stroke="rgb(19, 38, 134)" stroke-width="2" stroke-linejoin="round" filter="url(#fuzzy)" /><polyline points="64.96,-33.34 35.53,-67.3 22.94,-76.14 15.05,-73.8 10.85,-67.94 10.21,-62.93 11.46,-60.07 11.63,-58.95 8.13,-58.81 0.55,-59.32 -8.86,-60.56 -16.64,-62.74 -20.23,-65.93 -19.28,-69.89 -15.51,-73.93 -11.26,-77.05 -7.82,-78.27 -4.84,-77.26 -1.05,-74.86 4.42,-72.86 11.95,-72.42 23.35,-71.4 41.69,-63.29 60.74,-44.5" fill="none" stroke="rgb(19, 38, 134)" stroke-width="2" stroke-linejoin="round" filter="url(#fuzzy)" /><polyline points="7.27,-90.52 35.83,-69.48 42.96,-61.26 37.48,-63.98 28.77,-71.02 21.97,-77.63 18.31,-81.93 16.88,-83.79 16.21,-83.79 15.16,-82.63 13.1,-80.93 9.77,-79.23 5.19,-77.92 -0.1,-77.1 -4.64,-76.55 -6.39,-75.78 -3.75,-74.24 2.8,-71.61 9.61,-68.2 10.35,-65.06 -0.72,-63.36 -22.61,-63.4 -41.96,-65.44 -40.53,-74.01" fill="none" stroke="rgb(19, 38, 134)" stroke-width="2" stroke-linejoin="round" filter="url(#fuzzy)" /><polyline points="-49.31,-64.56 -45.9,-64.57 -29.03,-66.79 -8.92,-64.61 4.11,-61.37 7.91,-60.39 6.34,-62.41 3.63,-66.54 1.81,-71.54 1.4,-76.34 2.6,-80.06 5.51,-82.22 9.51,-82.81 13.05,-82.34 14.13,-81.55 11.33,-81.05 4.71,-80.93 -3.71,-80.75 -9.99,-79.97 -9.44,-79 -2.52,-80.55 -16.73,-88.28" fill="none" stroke="rgb(19, 38, 134)" stroke-width="2" stroke-linejoin="round" filter="url(#fuzzy)" /><polyline points="59.27,-48.1 53.85,-52.5 42.45,-62.05 29.78,-68.3 17.46,-71.11 6.97,-71.62 -0.3,-71.31 -3.95,-71.69 -4.86,-73.68 -4.12,-77.07 -1.84,-80.65 2.63,-83.09 9.22,-83.82 15.58,-83.48 17.08,-83.33 8.85,-83.42 -12.13,-80.35 -48.59,-65.17" fill="none" stroke="rgb(19, 38, 134)" stroke-width="2" stroke-linejoin="round" filter="url(#fuzzy)" /><polyline points="29.76,-82.38 33.71,-69.29 24.34,-67.36 15.09,-66.76 8.03,-67.51 4.59,-68.83 5.5,-69.37 9.76,-68.62 14.46,-67 16.15,-65.46 12.71,-64.83 4.81,-65.57 -4.27,-67.63 -10.27,-70.49 -10.25,-73.25 -4.18,-74.9 4.98,-74.92 12.81,-73.78 15.96,-72.27 14.28,-69.89 6.72,-66.14 -39.1,-75.41" fill="none" stroke="rgb(19, 38, 134)" stroke-width="2" stroke-linejoin="round" filter="url(#fuzzy)" /><polyline points="29.76,-82.38 23.68,-78.55 28.94,-72.04 28.76,-70.65 28.19,-70.34 31.11,-68.39 36.65,-65.19 42.13,-62.31 45.58,-60.84 46.27,-60.89 44.19,-62.05 39.5,-63.93 32.44,-66.44 23.51,-69.67 13.76,-73.41 4.59,-76.85 -2.6,-78.8 -6.86,-78.42 -7.93,-76.05 -6.19,-73.35 -1.04,-72.22 14.82,-71.24 55.02,-55.85" fill="none" stroke="rgb(19, 38, 134)" stroke-width="2" stroke-linejoin="round" filter="url(#fuzzy)" /><polyline points="-19.56,-87.19 -18.26,-75.94 1.82,-76.06 18.26,-76.34 28.24,-75.66 32.29,-75.06 31.86,-74.73 28.69,-74.1 24.56,-72.74 21.08,-70.64 19.38,-68.21 19.5,-66.12 20.26,-65.22 20.1,-66.2 18.51,-68.97 16.79,-72.57 17.14,-75.68 20.37,-77.82 24.39,-79.73 25.19,-82.46 20.83,-86.02 15.95,-88.77" fill="none" stroke="rgb(19, 38, 134)" stroke-width="2" stroke-linejoin="round" filter="url(#fuzzy)" /><polyline points="5.98,-90.87 -8.13,-86.2 -5.59,-84.86 0.35,-82.73 5.37,-79.11 6.57,-75.39 4.01,-73.54 0.09,-74.43 -2.5,-77.46 -2.5,-81.2 -0.25,-84.38 3.07,-86.39 6.33,-87.22 8.98,-87.15 10.9,-86.5 11.99,-85.47 11.84,-84.19 9.89,-82.84 6.17,-81.73 1.83,-81.2 -1.44,-81.14 -2.71,-80.19 1.69,-76.45 41.41,-73.29" fill="none" stroke="rgb(19, 38, 134)" stroke-width="2" stroke-linejoin="round" filter="url(#fuzzy)" /><polyline points="-55.73,-54.86 7,-55.56 19.37,-66.71 24.27,-71.7 29.09,-72.16 33.41,-70.94 37.08,-69.01 40.21,-66.67 42.43,-64.37 43.09,-62.5 41.34,-61.43 35.67,-61.87 24.16,-64.96 6.74,-71.08 -11.28,-78.43 -20.58,-84.01 -24.26,-85.06" fill="none" stroke="rgb(19, 38, 134)" stroke-width="2" stroke-linejoin="round" filter="url(#fuzzy)" /><polyline points="66.19,-29.53 14.41,-62.61 1.01,-71.83 3.82,-77.06 7.56,-81.32 9.26,-84.03 11.1,-84.82 14.82,-83.89 20.27,-81.45 26.16,-77.56 30.45,-72.77 29.84,-68.92 20.25,-68.84 1.1,-73.87 -16.74,-81.26 -7.88,-90.27" fill="none" stroke="rgb(19, 38, 134)" stroke-width="2" stroke-linejoin="round" filter="url(#fuzzy)" /><polyline points="-2.6,-90.85 6.4,-78.16 -0.07,-72.83 0.7,-69.1 4.29,-65.71 8.63,-62.59 14.49,-60.25 21.54,-59.6 28.03,-60.9 32.35,-63.35 33.67,-65.69 31.45,-67.26 25.25,-68.41 15.51,-69.85 4.57,-71.66 -3.83,-72.97 -6.95,-72.68 -4.95,-70.47 3.38,-67.29 48.38,-65.79" fill="none" stroke="rgb(19, 38, 134)" stroke-width="2" stroke-linejoin="round" filter="url(#fuzzy)" /><polyline points="47.61,-66.66 44.49,-66.34 34.4,-67.93 19.35,-69.43 3.4,-71.72 -8.57,-74.28 -14.68,-76.37 -15.83,-77.59 -14,-77.86 -10.66,-77.26 -5.99,-76.16 0.51,-75.16 8.24,-74.81 14.51,-74.91 16.19,-73.98 13.69,-69.34 16.61,-57.68 65.59,-31.33" fill="none" stroke="rgb(19, 38, 134)" stroke-width="2" stroke-linejoin="round" filter="url(#fuzzy)" /><polyline points="-3.64,-90.76 17.51,-82.15 11.54,-83.47 3.8,-84.78 3.36,-82.89 10.36,-77.01 20.65,-68.64 28.65,-61.29 29.94,-58.45 23.6,-61.48 12.67,-68.77 1.98,-76.94 -5.22,-82.97 -9.35,-85.8 -13.55,-86.04 -21.61,-84.16 -33.88,-79.71" fill="none" stroke="rgb(19, 38, 134)" stroke-width="2" stroke-linejoin="round" filter="url(#fuzzy)" /><polyline points="-27.8,-83.19 -3.6,-75.35 -8.18,-74.16 -4.45,-72.52 6.84,-68.37 16.62,-63.89 19.58,-61.41 16.64,-61.48 11.83,-63.29 8.3,-65.82 6.53,-68.57 5.36,-71.43 4,-74.28 3.25,-76.63 5,-77.59 10.74,-76.22 20.36,-71.93 31.86,-65.27 41.75,-58.95 45.14,-58.62 36.35,-70.33 14.62,-89.17" fill="none" stroke="rgb(19, 38, 134)" stroke-width="2" stroke-linejoin="round" filter="url(#fuzzy)" />
    </g>
    
        <g id="pointNose">
          <g id="rightNose"><circle r="2.608" cx="9.122000000000002" cy="2.7120000000000006" stroke="black" fill="none" stroke-width="1.0" filter="url(#fuzzy)" /><circle r="2.206" cx="10.190000000000001" cy="3.4160000000000004" stroke="black" fill="none" stroke-width="1.0" filter="url(#fuzzy)" /><circle r="1.256" cx="10.674000000000001" cy="3.880000000000001" stroke="black" fill="none" stroke-width="1.0" filter="url(#fuzzy)" /><circle r="2.966" cx="12.010000000000002" cy="3.0520000000000005" stroke="black" fill="none" stroke-width="1.0" filter="url(#fuzzy)" /><circle r="2.378" cx="8.73" cy="5.484" stroke="black" fill="none" stroke-width="1.0" filter="url(#fuzzy)" /><circle r="2.924" cx="11.726" cy="4.936" stroke="black" fill="none" stroke-width="1.0" filter="url(#fuzzy)" /><circle r="1.37" cx="11.558" cy="5.176" stroke="black" fill="none" stroke-width="1.0" filter="url(#fuzzy)" /><circle r="1.8159999999999998" cx="12.670000000000002" cy="4.184" stroke="black" fill="none" stroke-width="1.0" filter="url(#fuzzy)" /><circle r="2.924" cx="10.99" cy="3.9880000000000004" stroke="black" fill="none" stroke-width="1.0" filter="url(#fuzzy)" /><circle r="1.8639999999999999" cx="12.282" cy="4.352" stroke="black" fill="none" stroke-width="1.0" filter="url(#fuzzy)" /></g>
          <g id="leftNose"><circle r="2.26" cx="-9.346" cy="-1.1199999999999994" stroke="black" fill="none" stroke-width="1.0" filter="url(#fuzzy)" /><circle r="1.192" cx="-9.006" cy="-0.10799999999999943" stroke="black" fill="none" stroke-width="1.0" filter="url(#fuzzy)" /><circle r="1.43" cx="-7.734" cy="1.2160000000000006" stroke="black" fill="none" stroke-width="1.0" filter="url(#fuzzy)" /><circle r="2.346" cx="-9.698" cy="-0.22399999999999953" stroke="black" fill="none" stroke-width="1.0" filter="url(#fuzzy)" /><circle r="1.198" cx="-9.638" cy="-0.10399999999999943" stroke="black" fill="none" stroke-width="1.0" filter="url(#fuzzy)" /><circle r="1.612" cx="-9.79" cy="1.2960000000000007" stroke="black" fill="none" stroke-width="1.0" filter="url(#fuzzy)" /><circle r="1.834" cx="-7.901999999999999" cy="2.3080000000000007" stroke="black" fill="none" stroke-width="1.0" filter="url(#fuzzy)" /><circle r="1.696" cx="-6.954" cy="0.30400000000000027" stroke="black" fill="none" stroke-width="1.0" filter="url(#fuzzy)" /><circle r="1.114" cx="-6.974" cy="-0.48799999999999955" stroke="black" fill="none" stroke-width="1.0" filter="url(#fuzzy)" /><circle r="1.446" cx="-8.033999999999999" cy="-0.3519999999999994" stroke="black" fill="none" stroke-width="1.0" filter="url(#fuzzy)" /></g>
        </g>
      
    <g id="mouth">
      <polyline points="-24.25,39.06 -23.78,39.63 -23.32,40.2 -22.85,40.77 -22.37,41.35 -21.9,41.94 -21.42,42.52 -20.94,43.11 -20.46,43.69 -19.98,44.28 -19.49,44.87 -19.01,45.46 -18.52,46.04 -18.03,46.63 -17.54,47.22 -17.04,47.8 -16.55,48.38 -16.06,48.95 -15.56,49.53 -15.06,50.09 -14.56,50.66 -14.06,51.21 -13.56,51.77 -13.06,52.31 -12.56,52.85 -12.06,53.38 -11.56,53.9 -11.05,54.42 -10.55,54.92 -10.05,55.42 -9.54,55.91 -9.04,56.38 -8.53,56.85 -8.03,57.3 -7.52,57.74 -7.02,58.17 -6.51,58.58 -6.01,58.98 -5.51,59.37 -5,59.74 -4.5,60.1 -4,60.44 -3.5,60.77 -3,61.08 -2.5,61.37 -2,61.65 -1.5,61.9 -1,62.14 -0.5,62.36 -0.01,62.56 0.48,62.73 0.98,62.89 1.47,63.03 1.96,63.14 2.44,63.23 2.93,63.3 3.41,63.35 3.9,63.37 4.38,63.36 4.86,63.34 5.33,63.28 5.81,63.2 6.28,63.1 6.75,62.97 7.22,62.81 7.69,62.62 8.15,62.4 8.61,62.15 9.07,61.88 9.52,61.57 9.97,61.24 10.42,60.87 10.87,60.47 11.31,60.04 11.76,59.58 12.19,59.08 12.63,58.55 13.06,57.99 13.49,57.39 13.91,56.75 14.33,56.08 14.75,55.38 15.16,54.63 15.57,53.85 15.98,53.03 16.38,52.18 16.77,51.28 17.17,50.35 17.56,49.37 17.94,48.36 18.32,47.3 18.7,46.2 19.07,45.06 19.44,43.88 19.8,42.66 20.16,41.39 20.51,40.08 20.86,38.72 21.21,37.32 21.55,35.87 21.88,34.38 21.55,35.87 21.21,37.32 20.86,38.72 20.51,40.08 20.16,41.39 19.8,42.66 19.44,43.88 19.07,45.06 18.7,46.2 18.32,47.3 17.94,48.36 17.56,49.37 17.17,50.35 16.77,51.28 16.38,52.18 15.98,53.03 15.57,53.85 15.16,54.63 14.75,55.38 14.33,56.08 13.91,56.75 13.49,57.39 13.06,57.99 12.63,58.55 12.19,59.08 11.76,59.58 11.31,60.04 10.87,60.47 10.42,60.87 9.97,61.24 9.52,61.57 9.07,61.88 8.61,62.15 8.15,62.4 7.69,62.62 7.22,62.81 6.75,62.97 6.28,63.1 5.81,63.2 5.33,63.28 4.86,63.34 4.38,63.36 3.9,63.37 3.41,63.35 2.93,63.3 2.44,63.23 1.96,63.14 1.47,63.03 0.98,62.89 0.48,62.73 -0.01,62.56 -0.5,62.36 -1,62.14 -1.5,61.9 -2,61.65 -2.5,61.37 -3,61.08 -3.5,60.77 -4,60.44 -4.5,60.1 -5,59.74 -5.51,59.37 -6.01,58.98 -6.51,58.58 -7.02,58.17 -7.52,57.74 -8.03,57.3 -8.53,56.85 -9.04,56.38 -9.54,55.91 -10.05,55.42 -10.55,54.92 -11.05,54.42 -11.56,53.9 -12.06,53.38 -12.56,52.85 -13.06,52.31 -13.56,51.77 -14.06,51.21 -14.56,50.66 -15.06,50.09 -15.56,49.53 -16.06,48.95 -16.55,48.38 -17.04,47.8 -17.54,47.22 -18.03,46.63 -18.52,46.04 -19.01,45.46 -19.49,44.87 -19.98,44.28 -20.46,43.69 -20.94,43.11 -21.42,42.52 -21.9,41.94 -22.37,41.35 -22.85,40.77 -23.32,40.2 -23.78,39.63" fill="rgb(119, 204, 102)" stroke="black" stroke-width="3" stroke-linejoin="round" filter="url(#fuzzy)" />
    </g>
  </svg>