<svg viewBox="-100 -100 200 200" xmlns="http://www.w3.org/2000/svg" width="500" height="500" id="face-svg">
    <defs>
      <clipPath id="leftEyeClipPath">
        <polyline points="28.66,-3.82 28.48,-4.23 28.27,-4.62 28.03,-4.98 27.74,-5.32 27.42,-5.64 27.07,-5.94 26.67,-6.22 26.25,-6.48 25.79,-6.72 25.29,-6.95 24.76,-7.17 24.21,-7.36 23.62,-7.55 23,-7.72 22.35,-7.88 21.73,-8.03 21.06,-8.17 20.35,-8.3 19.59,-8.42 18.78,-8.53 17.93,-8.63 17.05,-8.72 16.12,-8.81 15.16,-8.88 14.17,-8.95 13.15,-9.02 12.1,-9.08 11.03,-9.13 9.94,-9.18 8.84,-9.22 7.72,-9.26 6.59,-9.29 5.45,-9.32 4.3,-9.34 3.16,-9.36 2.02,-9.38 0.88,-9.39 -0.26,-9.4 -1.38,-9.41 -2.49,-9.42 -3.59,-9.42 -4.67,-9.41 -5.73,-9.41 -6.77,-9.4 -7.79,-9.39 -8.78,-9.38 -9.75,-9.36 -10.7,-9.35 -11.61,-9.33 -12.49,-9.3 -13.35,-9.28 -14.17,-9.25 -14.97,-9.22 -15.73,-9.19 -16.46,-9.16 -17.16,-9.12 -17.82,-9.08 -18.46,-9.04 -19.06,-9 -19.64,-8.96 -20.19,-8.91 -20.71,-8.86 -21.2,-8.81 -21.67,-8.76 -22.11,-8.7 -22.53,-8.64 -22.93,-8.58 -23.3,-8.52 -23.65,-8.46 -23.98,-8.39 -24.28,-8.32 -24.57,-8.25 -24.83,-8.18 -25.07,-8.1 -25.3,-8.03 -25.5,-7.95 -25.69,-7.86 -25.85,-7.78 -26,-7.69 -23.34,-3.94 -22.94,-3.65 -22.53,-3.36 -22.11,-3.06 -21.68,-2.76 -21.23,-2.45 -20.77,-2.13 -20.3,-1.81 -19.81,-1.48 -19.31,-1.14 -18.79,-0.8 -18.26,-0.46 -17.72,-0.11 -17.16,0.25 -16.59,0.61 -16,0.97 -15.4,1.34 -14.79,1.72 -14.15,2.1 -13.5,2.48 -12.84,2.87 -12.15,3.26 -11.45,3.65 -10.74,4.04 -10.01,4.44 -9.26,4.83 -8.5,5.22 -7.72,5.6 -6.93,5.98 -6.13,6.35 -5.31,6.72 -4.48,7.07 -3.64,7.42 -2.79,7.75 -1.93,8.07 -1.06,8.38 -0.18,8.66 0.71,8.94 1.6,9.19 2.49,9.42 3.39,9.62 4.29,9.81 5.19,9.96 6.1,10.09 7,10.2 7.89,10.27 8.79,10.31 9.68,10.32 10.56,10.3 11.43,10.25 12.3,10.16 13.15,10.03 14,9.87 14.83,9.67 15.64,9.44 16.44,9.17 17.22,8.86 17.98,8.51 18.73,8.13 19.45,7.72 20.15,7.27 20.83,6.78 21.48,6.27 22.11,5.72 22.72,5.15 23.28,4.78 23.83,4.4 24.35,4 24.86,3.6 25.35,3.18 25.82,2.75 26.27,2.32 26.69,1.87 27.1,1.43 27.48,0.98 27.83,0.52 28.16,0.07 28.47,-0.38 28.75,-0.83 29,-1.27" />
      </clipPath>
      <clipPath id="rightEyeClipPath">
        <polyline points="-30.26,-2.83 -30.08,-3.2 -29.86,-3.55 -29.6,-3.88 -29.3,-4.2 -28.96,-4.49 -28.58,-4.76 -28.17,-5.02 -27.72,-5.26 -27.23,-5.48 -26.71,-5.69 -26.16,-5.89 -25.58,-6.07 -24.97,-6.24 -24.33,-6.4 -23.66,-6.54 -22.98,-6.68 -22.26,-6.81 -21.5,-6.93 -20.7,-7.04 -19.85,-7.14 -18.97,-7.23 -18.06,-7.32 -17.11,-7.39 -16.14,-7.47 -15.13,-7.53 -14.11,-7.59 -13.06,-7.64 -11.99,-7.69 -10.91,-7.73 -9.82,-7.77 -8.72,-7.8 -7.61,-7.83 -6.5,-7.86 -5.39,-7.88 -4.28,-7.89 -3.17,-7.91 -2.08,-7.92 -0.99,-7.93 0.09,-7.93 1.15,-7.93 2.2,-7.93 3.23,-7.93 4.23,-7.92 5.22,-7.91 6.18,-7.9 7.12,-7.89 8.04,-7.87 8.92,-7.86 9.78,-7.84 10.61,-7.81 11.41,-7.79 12.17,-7.76 12.91,-7.74 13.62,-7.71 14.3,-7.67 14.95,-7.64 15.57,-7.6 16.16,-7.57 16.71,-7.53 17.25,-7.48 17.75,-7.44 18.23,-7.4 18.68,-7.35 19.11,-7.3 19.52,-7.25 19.91,-7.2 20.27,-7.14 20.61,-7.08 20.93,-7.03 21.23,-6.97 21.51,-6.9 21.77,-6.84 22.01,-6.77 22.23,-6.7 22.43,-6.63 22.62,-6.56 22.79,-6.48 22.94,-6.4 23.08,-6.32 22.05,-3.87 21.74,-3.64 21.42,-3.42 21.09,-3.18 20.75,-2.94 20.39,-2.7 20.02,-2.44 19.64,-2.19 19.24,-1.92 18.83,-1.65 18.4,-1.37 17.97,-1.09 17.51,-0.8 17.05,-0.5 16.57,-0.2 16.07,0.11 15.56,0.42 15.03,0.74 14.48,1.07 13.92,1.4 13.33,1.73 12.73,2.07 12.11,2.42 11.48,2.77 10.82,3.12 10.14,3.47 9.45,3.82 8.73,4.17 8,4.52 7.25,4.87 6.48,5.22 5.69,5.56 4.89,5.89 4.07,6.22 3.23,6.53 2.38,6.84 1.52,7.14 0.64,7.42 -0.25,7.68 -1.15,7.93 -2.06,8.16 -2.98,8.37 -3.91,8.56 -4.85,8.73 -5.79,8.88 -6.73,8.99 -7.67,9.08 -8.62,9.15 -9.57,9.18 -10.51,9.18 -11.45,9.15 -12.38,9.09 -13.3,8.99 -14.22,8.86 -15.12,8.7 -16.01,8.5 -16.89,8.26 -17.75,7.99 -18.6,7.68 -19.42,7.34 -20.22,6.96 -21,6.55 -21.76,6.1 -22.49,5.62 -23.2,5.12 -23.84,4.81 -24.46,4.49 -25.06,4.16 -25.64,3.81 -26.2,3.45 -26.73,3.08 -27.24,2.7 -27.73,2.31 -28.19,1.92 -28.62,1.52 -29.03,1.12 -29.4,0.72 -29.74,0.32 -30.05,-0.08 -30.33,-0.48" />
      </clipPath>
      <filter id="fuzzy">
        <feTurbulence id="turbulence" baseFrequency="0.05" numOctaves="3" type="noise" result="noise" />
        <feDisplacementMap in="SourceGraphic" in2="noise" scale="2" />
      </filter>
      <linearGradient id="rainbowGradient" x1="0%" y1="0%" x2="100%" y2="0%">
        <stop offset="0%" style="stop-color: rgb(238, 20, 253); stop-opacity: 1" />
        <stop offset="50%" style="stop-color: rgb(209, 145, 13); stop-opacity: 1" />
        <stop offset="100%" style="stop-color: rgb(223, 137, 99); stop-opacity: 1" />
      </linearGradient>
    </defs>
    <rect x="-100" y="-100" width="100%" height="100%" fill="rgb(166, 212, 242)" />
    <polyline id="faceContour" points="67.91,0.52 67.92,-0.22 67.77,3.7 67.85,3.47 67.59,6.51 67.58,5.58 67.4,7.89 67.33,12.54 67.41,10.89 67.02,13.7 67.22,12.66 66.54,16.37 66.34,18.53 66.42,18.53 66.49,19.22 65.95,20.82 65.33,23.83 64.8,26.42 65.04,25.4 64.57,28.74 64.55,27.81 64.27,28.88 63.85,30.89 62.86,34.64 62.52,35.87 62.94,34.86 61.97,37.29 61.78,38.69 60.99,40.18 61.38,38.84 60.16,42.87 60.06,43.75 60.04,43.87 58.16,47.65 58.68,46.27 57.37,49.61 57.17,49.56 56.95,50.79 55.47,53.58 55.2,53.95 54.6,55.27 54.72,55.18 53.58,57.3 51.84,59.63 52.36,59.57 51.55,60.82 51.92,59.95 51.4,60.84 49.29,64.04 48.68,64.76 46.47,67.87 47.16,67.28 46.05,68.63 46.18,68.48 44.13,70.92 43.25,71.73 43.44,71.97 43.8,71.25 42.77,72.74 40.96,74.5 40.99,74.26 39.18,76.23 39.13,76.31 38.17,77.03 36.93,78.02 35.83,79.37 34.54,80.26 32.83,81.43 33.2,81.42 32.35,81.96 30.84,83.41 29.88,83.46 28.53,84.75 26.45,86.2 25.25,86.54 25.48,86.47 25.38,86.72 23.74,87.44 23.3,87.79 20.38,89.07 19.64,89.19 21.05,88.51 18.23,89.97 18.47,90 17.12,90.31 15.65,90.83 15.25,91.08 12.44,91.59 10.99,91.91 12.13,91.82 10.31,92.25 10.37,92.31 9.64,92.2 6.49,92.99 5.8,92.94 5,92.89 5.26,93.17 1.61,93.12 3.01,93.01 1.31,93.2 -0.95,93.1 -0.13,93.43 -2.29,93.47 -4.24,93.11 -3.95,93.18 -5.54,92.98 -4.56,93.1 -6.79,92.71 -8.25,92.46 -9.02,92.26 -10.16,92.21 -10.91,92.19 -13.03,91.79 -12.49,91.61 -13.97,91.26 -14.96,90.89 -18.24,89.82 -16.9,90.44 -18.79,89.73 -20.99,88.78 -21.58,88.49 -21.47,88.38 -22.5,88.31 -24.28,86.87 -24.86,86.62 -26.93,85.59 -26.65,85.87 -27.56,85.21 -28.62,84.55 -30.66,82.85 -30.17,83.22 -31.87,82.52 -32.45,81.79 -33.53,80.86 -33.56,81.07 -35.83,79.36 -37.23,77.95 -36.69,78.31 -37.67,77.6 -39.21,76.21 -38.28,76.73 -40.27,75.18 -42.78,72.12 -42.56,72.35 -43.31,71.56 -44.53,70.48 -45.22,69.7 -44.79,69.82 -46.95,67.38 -47.3,66.67 -46.71,67.4 -49.31,63.84 -48.42,64.84 -49.12,63.97 -50.56,62.13 -52.57,58.81 -51.58,60.7 -52.44,58.57 -52.81,58.06 -53.63,57.23 -54.22,55.87 -56.05,52.04 -56.73,51.28 -57.08,50.57 -58.2,48.13 -57.26,49.96 -57.91,48.75 -58.19,47.47 -59.31,44.82 -59.55,44.68 -60.35,41.81 -60.69,41.83 -61.7,38.67 -61.83,37.36 -62.46,36.67 -62.76,34.26 -62.9,33.94 -63.05,34.12 -64.06,30.84 -63.94,29.99 -64.14,29.13 -64.94,26.41 -65.27,24.63 -65.54,24.19 -65.64,23.23 -65.81,22.67 -65.99,20.33 -66.5,18.62 -66.23,19.28 -66.57,17.87 -66.75,15.13 -66.87,12.9 -67.06,13.44 -67.05,11.08 -67.51,7.5 -67.46,5.87 -67.71,5.85 -67.41,4.65 -67.64,1 -67.71,2.15 -67.82,-1.9 -67.64,-0.38 -67.62,-2.39 -67.57,-4.85 -67.47,-6.57 -67.68,-6.49 -67.5,-7.91 -67.26,-9.86 -67.2,-10.2 -66.94,-14.38 -66.66,-14.77 -66.88,-14.84 -66.04,-19.67 -66.14,-19.08 -66.41,-18.16 -65.82,-21.96 -65.75,-21.98 -65.46,-24.4 -65.04,-26.94 -64.94,-27.06 -64.19,-29.72 -64.1,-29.36 -63.27,-33.24 -63.18,-32.94 -62.63,-35.31 -62.99,-34.2 -62.14,-36.28 -61.55,-38.68 -61.16,-39.53 -60.57,-41.47 -60.89,-41.22 -59.2,-45.53 -59.24,-45.21 -58.3,-47.37 -58.74,-46.12 -58.1,-47.63 -56.86,-50.99 -56.06,-52.22 -55.71,-52.71 -56.28,-52.25 -55.11,-54.54 -54.36,-55.33 -53.81,-56.95 -53.39,-57.59 -52,-59.69 -50.96,-61.32 -51.75,-60.11 -50.56,-61.96 -50.08,-62.65 -48.18,-65.33 -47.49,-66.09 -47.06,-66.92 -46.88,-67.67 -44.81,-70.05 -45.21,-69.69 -43.97,-71.41 -43.45,-71.42 -41.08,-73.85 -41.4,-73.69 -41.69,-73.36 -39.89,-75.59 -37.75,-77.53 -38.98,-76.06 -37.8,-77.75 -36.98,-78.44 -36.68,-78.74 -34.98,-79.92 -33.48,-81.4 -33.77,-81.29 -32.97,-81.48 -30.69,-82.94 -31.08,-82.62 -28.96,-84.42 -27.83,-85.09 -27.77,-85.34 -24.78,-86.62 -25.32,-86.45 -24.11,-87.22 -22.5,-88.04 -21.89,-88.16 -20.85,-88.76 -20.42,-88.94 -18.26,-89.72 -18.66,-89.64 -17.56,-90.43 -16.92,-90.49 -14.98,-91.04 -13.66,-91.35 -12.8,-91.71 -12.6,-91.78 -9.87,-92.22 -10.29,-92.08 -7.29,-92.73 -6.08,-92.92 -6.35,-93.11 -6.08,-92.81 -5.81,-92.93 -3.49,-93.1 -2.18,-93.08 -2.3,-93.33 -0.33,-93.34 1.96,-93.28 2.53,-93.46 3.68,-93.32 4.45,-93.14 6.07,-93.18 6.17,-93.12 7.49,-92.82 9.36,-92.64 9.19,-92.63 10.37,-91.99 11.38,-91.86 12.69,-91.65 13.83,-91.35 13.99,-91.44 17.28,-90.24 17.47,-90.32 18.5,-89.83 17.53,-90.17 20.2,-89.21 21.11,-88.69 22.08,-88.31 22.19,-88.15 22.93,-87.91 24.44,-87.06 25.99,-86.33 26.34,-85.88 28.16,-85.11 28.82,-84.6 28.73,-84.62 31.38,-82.6 31.36,-82.55 32.71,-81.99 32.02,-82.4 34.79,-79.92 35.09,-79.71 35.25,-79.71 38.56,-76.65 37.75,-77.16 38.39,-76.79 40.19,-75.16 41.16,-74.41 41.58,-73.48 42.39,-72.73 42.4,-72.78 44.37,-70.77 44.25,-70.55 45.54,-69.21 46.92,-67.42 47.4,-66.96 47.53,-66.3 49.18,-64.06 49.4,-63.81 49.48,-63.74 51.43,-60.63 51.65,-60.46 52.81,-58.65 53.36,-57.22 54.33,-55.81 54.21,-56.4 55.68,-53.42 55.77,-52.87 55.49,-53.93 56.54,-51.41 57.09,-50.33 57.67,-49.34 58.12,-48.16 59.1,-45.92 59.68,-45 59.27,-45.58 61.16,-40.66 61.35,-40.38 61.85,-38.18 61.13,-40.4 62.04,-38.06 62.64,-36.17 63.64,-32.76 63.4,-32.76 63.06,-33.76 64.25,-30.15 64.43,-28.58 64.74,-27.58 65.08,-25.53 65.38,-25.04 65.26,-24.76 65.97,-20.95 65.84,-21.19 66.28,-18.89 66.38,-17.45 66.35,-18.25 67.02,-13.26 66.99,-14 67.53,-9.84 67.29,-10.56 67.43,-10.19 67.65,-7.48 67.68,-5 67.6,-5.08 67.57,-2.58 67.58,-1.99 67.91,0.52 67.92,-0.22" fill="rgb(223, 108, 32)" stroke="black" stroke-width="1.6666666666666665" stroke-linejoin="round" filter="url(#fuzzy)" />
    <g transform="translate(32.3 -25.669999999999998)">
      <polyline id="rightCountour" points="-30.26,-2.83 -30.08,-3.2 -29.86,-3.55 -29.6,-3.88 -29.3,-4.2 -28.96,-4.49 -28.58,-4.76 -28.17,-5.02 -27.72,-5.26 -27.23,-5.48 -26.71,-5.69 -26.16,-5.89 -25.58,-6.07 -24.97,-6.24 -24.33,-6.4 -23.66,-6.54 -22.98,-6.68 -22.26,-6.81 -21.5,-6.93 -20.7,-7.04 -19.85,-7.14 -18.97,-7.23 -18.06,-7.32 -17.11,-7.39 -16.14,-7.47 -15.13,-7.53 -14.11,-7.59 -13.06,-7.64 -11.99,-7.69 -10.91,-7.73 -9.82,-7.77 -8.72,-7.8 -7.61,-7.83 -6.5,-7.86 -5.39,-7.88 -4.28,-7.89 -3.17,-7.91 -2.08,-7.92 -0.99,-7.93 0.09,-7.93 1.15,-7.93 2.2,-7.93 3.23,-7.93 4.23,-7.92 5.22,-7.91 6.18,-7.9 7.12,-7.89 8.04,-7.87 8.92,-7.86 9.78,-7.84 10.61,-7.81 11.41,-7.79 12.17,-7.76 12.91,-7.74 13.62,-7.71 14.3,-7.67 14.95,-7.64 15.57,-7.6 16.16,-7.57 16.71,-7.53 17.25,-7.48 17.75,-7.44 18.23,-7.4 18.68,-7.35 19.11,-7.3 19.52,-7.25 19.91,-7.2 20.27,-7.14 20.61,-7.08 20.93,-7.03 21.23,-6.97 21.51,-6.9 21.77,-6.84 22.01,-6.77 22.23,-6.7 22.43,-6.63 22.62,-6.56 22.79,-6.48 22.94,-6.4 23.08,-6.32 22.05,-3.87 21.74,-3.64 21.42,-3.42 21.09,-3.18 20.75,-2.94 20.39,-2.7 20.02,-2.44 19.64,-2.19 19.24,-1.92 18.83,-1.65 18.4,-1.37 17.97,-1.09 17.51,-0.8 17.05,-0.5 16.57,-0.2 16.07,0.11 15.56,0.42 15.03,0.74 14.48,1.07 13.92,1.4 13.33,1.73 12.73,2.07 12.11,2.42 11.48,2.77 10.82,3.12 10.14,3.47 9.45,3.82 8.73,4.17 8,4.52 7.25,4.87 6.48,5.22 5.69,5.56 4.89,5.89 4.07,6.22 3.23,6.53 2.38,6.84 1.52,7.14 0.64,7.42 -0.25,7.68 -1.15,7.93 -2.06,8.16 -2.98,8.37 -3.91,8.56 -4.85,8.73 -5.79,8.88 -6.73,8.99 -7.67,9.08 -8.62,9.15 -9.57,9.18 -10.51,9.18 -11.45,9.15 -12.38,9.09 -13.3,8.99 -14.22,8.86 -15.12,8.7 -16.01,8.5 -16.89,8.26 -17.75,7.99 -18.6,7.68 -19.42,7.34 -20.22,6.96 -21,6.55 -21.76,6.1 -22.49,5.62 -23.2,5.12 -23.84,4.81 -24.46,4.49 -25.06,4.16 -25.64,3.81 -26.2,3.45 -26.73,3.08 -27.24,2.7 -27.73,2.31 -28.19,1.92 -28.62,1.52 -29.03,1.12 -29.4,0.72 -29.74,0.32 -30.05,-0.08 -30.33,-0.48" fill="white" stroke="white" stroke-width="0" stroke-linejoin="round" filter="url(#fuzzy)" />
    </g>
    <g transform="translate(-42.95 -28.79)">
      <polyline id="leftCountour" points="28.66,-3.82 28.48,-4.23 28.27,-4.62 28.03,-4.98 27.74,-5.32 27.42,-5.64 27.07,-5.94 26.67,-6.22 26.25,-6.48 25.79,-6.72 25.29,-6.95 24.76,-7.17 24.21,-7.36 23.62,-7.55 23,-7.72 22.35,-7.88 21.73,-8.03 21.06,-8.17 20.35,-8.3 19.59,-8.42 18.78,-8.53 17.93,-8.63 17.05,-8.72 16.12,-8.81 15.16,-8.88 14.17,-8.95 13.15,-9.02 12.1,-9.08 11.03,-9.13 9.94,-9.18 8.84,-9.22 7.72,-9.26 6.59,-9.29 5.45,-9.32 4.3,-9.34 3.16,-9.36 2.02,-9.38 0.88,-9.39 -0.26,-9.4 -1.38,-9.41 -2.49,-9.42 -3.59,-9.42 -4.67,-9.41 -5.73,-9.41 -6.77,-9.4 -7.79,-9.39 -8.78,-9.38 -9.75,-9.36 -10.7,-9.35 -11.61,-9.33 -12.49,-9.3 -13.35,-9.28 -14.17,-9.25 -14.97,-9.22 -15.73,-9.19 -16.46,-9.16 -17.16,-9.12 -17.82,-9.08 -18.46,-9.04 -19.06,-9 -19.64,-8.96 -20.19,-8.91 -20.71,-8.86 -21.2,-8.81 -21.67,-8.76 -22.11,-8.7 -22.53,-8.64 -22.93,-8.58 -23.3,-8.52 -23.65,-8.46 -23.98,-8.39 -24.28,-8.32 -24.57,-8.25 -24.83,-8.18 -25.07,-8.1 -25.3,-8.03 -25.5,-7.95 -25.69,-7.86 -25.85,-7.78 -26,-7.69 -23.34,-3.94 -22.94,-3.65 -22.53,-3.36 -22.11,-3.06 -21.68,-2.76 -21.23,-2.45 -20.77,-2.13 -20.3,-1.81 -19.81,-1.48 -19.31,-1.14 -18.79,-0.8 -18.26,-0.46 -17.72,-0.11 -17.16,0.25 -16.59,0.61 -16,0.97 -15.4,1.34 -14.79,1.72 -14.15,2.1 -13.5,2.48 -12.84,2.87 -12.15,3.26 -11.45,3.65 -10.74,4.04 -10.01,4.44 -9.26,4.83 -8.5,5.22 -7.72,5.6 -6.93,5.98 -6.13,6.35 -5.31,6.72 -4.48,7.07 -3.64,7.42 -2.79,7.75 -1.93,8.07 -1.06,8.38 -0.18,8.66 0.71,8.94 1.6,9.19 2.49,9.42 3.39,9.62 4.29,9.81 5.19,9.96 6.1,10.09 7,10.2 7.89,10.27 8.79,10.31 9.68,10.32 10.56,10.3 11.43,10.25 12.3,10.16 13.15,10.03 14,9.87 14.83,9.67 15.64,9.44 16.44,9.17 17.22,8.86 17.98,8.51 18.73,8.13 19.45,7.72 20.15,7.27 20.83,6.78 21.48,6.27 22.11,5.72 22.72,5.15 23.28,4.78 23.83,4.4 24.35,4 24.86,3.6 25.35,3.18 25.82,2.75 26.27,2.32 26.69,1.87 27.1,1.43 27.48,0.98 27.83,0.52 28.16,0.07 28.47,-0.38 28.75,-0.83 29,-1.27" fill="white" stroke="white" stroke-width="0" stroke-linejoin="round" filter="url(#fuzzy)" />
    </g>
    <g transform="translate(32.3 -25.669999999999998)">
      <polyline id="rightUpper" points="-29.63,2.37 -29.9,1.71 -30.12,1.09 -30.3,0.5 -30.43,-0.06 -30.51,-0.59 -30.55,-1.09 -30.55,-1.56 -30.49,-2.01 -30.4,-2.43 -30.26,-2.83 -30.08,-3.2 -29.86,-3.55 -29.6,-3.88 -29.3,-4.2 -28.96,-4.49 -28.58,-4.76 -28.17,-5.02 -27.72,-5.26 -27.23,-5.48 -26.71,-5.69 -26.16,-5.89 -25.58,-6.07 -24.97,-6.24 -24.33,-6.4 -23.66,-6.54 -22.98,-6.68 -22.26,-6.81 -21.5,-6.93 -20.7,-7.04 -19.85,-7.14 -18.97,-7.23 -18.06,-7.32 -17.11,-7.39 -16.14,-7.47 -15.13,-7.53 -14.11,-7.59 -13.06,-7.64 -11.99,-7.69 -10.91,-7.73 -9.82,-7.77 -8.72,-7.8 -7.61,-7.83 -6.5,-7.86 -5.39,-7.88 -4.28,-7.89 -3.17,-7.91 -2.08,-7.92 -0.99,-7.93 0.09,-7.93 1.15,-7.93 2.2,-7.93 3.23,-7.93 4.23,-7.92 5.22,-7.91 6.18,-7.9 7.12,-7.89 8.04,-7.87 8.92,-7.86 9.78,-7.84 10.61,-7.81 11.41,-7.79 12.17,-7.76 12.91,-7.74 13.62,-7.71 14.3,-7.67 14.95,-7.64 15.57,-7.6 16.16,-7.57 16.71,-7.53 17.25,-7.48 17.75,-7.44 18.23,-7.4 18.68,-7.35 19.11,-7.3 19.52,-7.25 19.91,-7.2 20.27,-7.14 20.61,-7.08 20.93,-7.03 21.23,-6.97 21.51,-6.9 21.77,-6.84 22.01,-6.77 22.23,-6.7 22.43,-6.63 22.62,-6.56 22.79,-6.48 22.94,-6.4 23.08,-6.32 23.2,-6.24 23.3,-6.16 23.4,-6.07 23.48,-5.98 23.54,-5.89 23.6,-5.8 23.64,-5.71 23.67,-5.62 23.69,-5.52 23.69,-5.42" fill="none" stroke="black" stroke-width="1.6666666666666665" stroke-linejoin="round" filter="url(#fuzzy)" />
      <polyline id="rightLower" points="-31,-3.62 -31.13,-3.42 -31.21,-3.18 -31.24,-2.91 -31.23,-2.62 -31.18,-2.31 -31.08,-1.97 -30.95,-1.62 -30.78,-1.25 -30.58,-0.87 -30.33,-0.48 -30.05,-0.08 -29.74,0.32 -29.4,0.72 -29.03,1.12 -28.62,1.52 -28.19,1.92 -27.73,2.31 -27.24,2.7 -26.73,3.08 -26.2,3.45 -25.64,3.81 -25.06,4.16 -24.46,4.49 -23.84,4.81 -23.2,5.12 -22.49,5.62 -21.76,6.1 -21,6.55 -20.22,6.96 -19.42,7.34 -18.6,7.68 -17.75,7.99 -16.89,8.26 -16.01,8.5 -15.12,8.7 -14.22,8.86 -13.3,8.99 -12.38,9.09 -11.45,9.15 -10.51,9.18 -9.57,9.18 -8.62,9.15 -7.67,9.08 -6.73,8.99 -5.79,8.88 -4.85,8.73 -3.91,8.56 -2.98,8.37 -2.06,8.16 -1.15,7.93 -0.25,7.68 0.64,7.42 1.52,7.14 2.38,6.84 3.23,6.53 4.07,6.22 4.89,5.89 5.69,5.56 6.48,5.22 7.25,4.87 8,4.52 8.73,4.17 9.45,3.82 10.14,3.47 10.82,3.12 11.48,2.77 12.11,2.42 12.73,2.07 13.33,1.73 13.92,1.4 14.48,1.07 15.03,0.74 15.56,0.42 16.07,0.11 16.57,-0.2 17.05,-0.5 17.51,-0.8 17.97,-1.09 18.4,-1.37 18.83,-1.65 19.24,-1.92 19.64,-2.19 20.02,-2.44 20.39,-2.7 20.75,-2.94 21.09,-3.18 21.42,-3.42 21.74,-3.64 22.05,-3.87 22.35,-4.08 22.64,-4.29 22.91,-4.49 23.17,-4.69 23.43,-4.88 23.67,-5.06 23.9,-5.24 24.13,-5.41 24.34,-5.58 24.55,-5.74" fill="none" stroke="black" stroke-width="2.2222222222222223" stroke-linejoin="round" filter="url(#fuzzy)" />
      <circle r="4.614" cx="-5.3995915233002725" cy="2.547484141156957" stroke="black" fill="none" stroke-width="1.0" filter="url(#fuzzy)" clip-path="url(#rightEyeClipPath)" /><circle r="3.122" cx="-7.924591523300272" cy="5.267484141156958" stroke="black" fill="none" stroke-width="1.0" filter="url(#fuzzy)" clip-path="url(#rightEyeClipPath)" /><circle r="4.8580000000000005" cx="-8.504591523300272" cy="3.102484141156957" stroke="black" fill="none" stroke-width="1.0" filter="url(#fuzzy)" clip-path="url(#rightEyeClipPath)" /><circle r="4.172" cx="-6.984591523300272" cy="5.672484141156957" stroke="black" fill="none" stroke-width="1.0" filter="url(#fuzzy)" clip-path="url(#rightEyeClipPath)" /><circle r="4.752" cx="-6.934591523300272" cy="5.262484141156957" stroke="black" fill="none" stroke-width="1.0" filter="url(#fuzzy)" clip-path="url(#rightEyeClipPath)" /><circle r="3.7640000000000002" cx="-8.914591523300272" cy="5.4474841411569574" stroke="black" fill="none" stroke-width="1.0" filter="url(#fuzzy)" clip-path="url(#rightEyeClipPath)" /><circle r="4.386" cx="-4.909591523300272" cy="4.552484141156957" stroke="black" fill="none" stroke-width="1.0" filter="url(#fuzzy)" clip-path="url(#rightEyeClipPath)" /><circle r="4.836" cx="-7.934591523300272" cy="4.882484141156958" stroke="black" fill="none" stroke-width="1.0" filter="url(#fuzzy)" clip-path="url(#rightEyeClipPath)" /><circle r="3.558" cx="-9.114591523300273" cy="5.102484141156957" stroke="black" fill="none" stroke-width="1.0" filter="url(#fuzzy)" clip-path="url(#rightEyeClipPath)" /><circle r="4.426" cx="-6.734591523300272" cy="5.502484141156957" stroke="black" fill="none" stroke-width="1.0" filter="url(#fuzzy)" clip-path="url(#rightEyeClipPath)" />
      </g>
    <g transform="translate(-42.95 -28.79)">
      <polyline id="leftUpper" points="28.27,1.85 28.48,1.13 28.65,0.45 28.79,-0.19 28.88,-0.8 28.94,-1.38 28.96,-1.93 28.94,-2.44 28.88,-2.93 28.79,-3.39 28.66,-3.82 28.48,-4.23 28.27,-4.62 28.03,-4.98 27.74,-5.32 27.42,-5.64 27.07,-5.94 26.67,-6.22 26.25,-6.48 25.79,-6.72 25.29,-6.95 24.76,-7.17 24.21,-7.36 23.62,-7.55 23,-7.72 22.35,-7.88 21.73,-8.03 21.06,-8.17 20.35,-8.3 19.59,-8.42 18.78,-8.53 17.93,-8.63 17.05,-8.72 16.12,-8.81 15.16,-8.88 14.17,-8.95 13.15,-9.02 12.1,-9.08 11.03,-9.13 9.94,-9.18 8.84,-9.22 7.72,-9.26 6.59,-9.29 5.45,-9.32 4.3,-9.34 3.16,-9.36 2.02,-9.38 0.88,-9.39 -0.26,-9.4 -1.38,-9.41 -2.49,-9.42 -3.59,-9.42 -4.67,-9.41 -5.73,-9.41 -6.77,-9.4 -7.79,-9.39 -8.78,-9.38 -9.75,-9.36 -10.7,-9.35 -11.61,-9.33 -12.49,-9.3 -13.35,-9.28 -14.17,-9.25 -14.97,-9.22 -15.73,-9.19 -16.46,-9.16 -17.16,-9.12 -17.82,-9.08 -18.46,-9.04 -19.06,-9 -19.64,-8.96 -20.19,-8.91 -20.71,-8.86 -21.2,-8.81 -21.67,-8.76 -22.11,-8.7 -22.53,-8.64 -22.93,-8.58 -23.3,-8.52 -23.65,-8.46 -23.98,-8.39 -24.28,-8.32 -24.57,-8.25 -24.83,-8.18 -25.07,-8.1 -25.3,-8.03 -25.5,-7.95 -25.69,-7.86 -25.85,-7.78 -26,-7.69 -26.14,-7.6 -26.26,-7.51 -26.36,-7.42 -26.45,-7.32 -26.52,-7.22 -26.58,-7.12 -26.63,-7.02 -26.66,-6.92 -26.68,-6.81 -26.69,-6.7" fill="none" stroke="black" stroke-width="2.2222222222222223" stroke-linejoin="round" filter="url(#fuzzy)" />
      <polyline id="leftLower" points="29.87,-4.71 29.93,-4.49 29.95,-4.23 29.94,-3.94 29.9,-3.62 29.83,-3.28 29.72,-2.91 29.59,-2.52 29.42,-2.11 29.22,-1.7 29,-1.27 28.75,-0.83 28.47,-0.38 28.16,0.07 27.83,0.52 27.48,0.98 27.1,1.43 26.69,1.87 26.27,2.32 25.82,2.75 25.35,3.18 24.86,3.6 24.35,4 23.83,4.4 23.28,4.78 22.72,5.15 22.11,5.72 21.48,6.27 20.83,6.78 20.15,7.27 19.45,7.72 18.73,8.13 17.98,8.51 17.22,8.86 16.44,9.17 15.64,9.44 14.83,9.67 14,9.87 13.15,10.03 12.3,10.16 11.43,10.25 10.56,10.3 9.68,10.32 8.79,10.31 7.89,10.27 7,10.2 6.1,10.09 5.19,9.96 4.29,9.81 3.39,9.62 2.49,9.42 1.6,9.19 0.71,8.94 -0.18,8.66 -1.06,8.38 -1.93,8.07 -2.79,7.75 -3.64,7.42 -4.48,7.07 -5.31,6.72 -6.13,6.35 -6.93,5.98 -7.72,5.6 -8.5,5.22 -9.26,4.83 -10.01,4.44 -10.74,4.04 -11.45,3.65 -12.15,3.26 -12.84,2.87 -13.5,2.48 -14.15,2.1 -14.79,1.72 -15.4,1.34 -16,0.97 -16.59,0.61 -17.16,0.25 -17.72,-0.11 -18.26,-0.46 -18.79,-0.8 -19.31,-1.14 -19.81,-1.48 -20.3,-1.81 -20.77,-2.13 -21.23,-2.45 -21.68,-2.76 -22.11,-3.06 -22.53,-3.36 -22.94,-3.65 -23.34,-3.94 -23.72,-4.22 -24.09,-4.49 -24.45,-4.75 -24.79,-5.01 -25.12,-5.26 -25.45,-5.51 -25.75,-5.75 -26.05,-5.98 -26.34,-6.21 -26.62,-6.43" fill="none" stroke="black" stroke-width="2.2222222222222223" stroke-linejoin="round" filter="url(#fuzzy)" />
      <circle r="4.4079999999999995" cx="8.287250084164526" cy="-1.7229302329879927" stroke="black" fill="none" stroke-width="1.0" filter="url(#fuzzy)" clip-path="url(#leftEyeClipPath)" /><circle r="3.73" cx="9.912250084164526" cy="-2.0979302329879927" stroke="black" fill="none" stroke-width="1.0" filter="url(#fuzzy)" clip-path="url(#leftEyeClipPath)" /><circle r="3.056" cx="10.247250084164527" cy="-3.6479302329879926" stroke="black" fill="none" stroke-width="1.0" filter="url(#fuzzy)" clip-path="url(#leftEyeClipPath)" /><circle r="3.5" cx="10.582250084164526" cy="-3.7279302329879926" stroke="black" fill="none" stroke-width="1.0" filter="url(#fuzzy)" clip-path="url(#leftEyeClipPath)" /><circle r="4.464" cx="10.947250084164526" cy="-1.582930232987993" stroke="black" fill="none" stroke-width="1.0" filter="url(#fuzzy)" clip-path="url(#leftEyeClipPath)" /><circle r="4.84" cx="9.857250084164527" cy="-2.637930232987993" stroke="black" fill="none" stroke-width="1.0" filter="url(#fuzzy)" clip-path="url(#leftEyeClipPath)" /><circle r="4.402" cx="9.662250084164526" cy="-5.032930232987993" stroke="black" fill="none" stroke-width="1.0" filter="url(#fuzzy)" clip-path="url(#leftEyeClipPath)" /><circle r="4.812" cx="9.542250084164525" cy="-5.712930232987993" stroke="black" fill="none" stroke-width="1.0" filter="url(#fuzzy)" clip-path="url(#leftEyeClipPath)" /><circle r="3.586" cx="11.497250084164527" cy="-2.9029302329879934" stroke="black" fill="none" stroke-width="1.0" filter="url(#fuzzy)" clip-path="url(#leftEyeClipPath)" /><circle r="3.226" cx="10.557250084164526" cy="-4.372930232987993" stroke="black" fill="none" stroke-width="1.0" filter="url(#fuzzy)" clip-path="url(#leftEyeClipPath)" />
    </g>
    <g id="hairs">
      <polyline points="59.1,-45.92 59.31,-45.27 59.22,-44.39 58.79,-43.52 57.89,-43.04 56.46,-43.05 54.54,-43.42 52.16,-44.04 49.3,-44.89 45.93,-46.02 42.01,-47.49 37.53,-49.32 32.46,-51.51 26.8,-54.05 20.53,-56.96 13.6,-60.27 6,-63.99 -2.31,-68.07 -11.33,-72.47 -20.96,-77.26" fill="none" stroke="rgb(19, 134, 65)" stroke-width="2" stroke-linejoin="round" filter="url(#fuzzy)" /><polyline points="17.28,-90.24 17.66,-90.16 18.23,-89.92 19.03,-89.56 20.01,-89.13 21.03,-88.66 22.02,-88.19 22.97,-87.74 23.86,-87.29 24.71,-86.86 25.47,-86.45 26.12,-86.09 26.61,-85.8 26.91,-85.59 27.02,-85.46 26.93,-85.43 26.61,-85.52 26.06,-85.72 25.26,-86.05 24.22,-86.51 22.94,-87.08 21.35,-87.82 19.3,-88.77 16.62,-90" fill="none" stroke="rgb(19, 134, 65)" stroke-width="2" stroke-linejoin="round" filter="url(#fuzzy)" /><polyline points="-32.97,-81.48 -31.28,-82.44 -29.59,-83.21 -27.54,-84.02 -25.13,-84.81 -22.45,-85.55 -19.53,-86.24 -16.44,-86.88 -13.21,-87.49 -9.87,-88.08 -6.45,-88.64 -2.97,-89.17 0.47,-89.68 3.78,-90.19 6.85,-90.72 9.78,-91.22" fill="none" stroke="rgb(19, 134, 65)" stroke-width="2" stroke-linejoin="round" filter="url(#fuzzy)" /><polyline points="-2.3,-93.33 -0.45,-93.33 1.06,-93.33 2.22,-93.32 3.15,-93.27 3.93,-93.2 4.57,-93.1 5.08,-92.98 5.43,-92.82 5.58,-92.63 5.52,-92.42 5.23,-92.18 4.71,-91.92 3.94,-91.65 2.9,-91.35 1.55,-91.03 -0.13,-90.69 -2.16,-90.33 -4.58,-89.96 -7.38,-89.57 -10.58,-89.17 -14.17,-88.74 -18.16,-88.32" fill="none" stroke="rgb(19, 134, 65)" stroke-width="2" stroke-linejoin="round" filter="url(#fuzzy)" /><polyline points="21.11,-88.69 21.73,-88.4 22.13,-88.14 22.49,-87.81 22.76,-87.44 22.83,-87.09 22.59,-86.78 21.96,-86.54 20.89,-86.36 19.35,-86.25 17.33,-86.22 14.79,-86.29 11.72,-86.46 8.07,-86.71 3.82,-87.05 -1.03,-87.46 -6.45,-87.98 -12.28,-88.66" fill="none" stroke="rgb(19, 134, 65)" stroke-width="2" stroke-linejoin="round" filter="url(#fuzzy)" /><polyline points="11.38,-91.86 12.58,-91.62 13.78,-91.31 15.08,-90.91 16.36,-90.48 17.55,-90.05 18.62,-89.63 19.62,-89.23 20.55,-88.84 21.41,-88.47 22.17,-88.14 22.81,-87.84 23.33,-87.6 23.71,-87.4 23.95,-87.27 23.99,-87.21 23.81,-87.25 23.37,-87.4 22.67,-87.67 21.7,-88.05 20.41,-88.6 18.63,-89.35 16.25,-90.36" fill="none" stroke="rgb(19, 134, 65)" stroke-width="2" stroke-linejoin="round" filter="url(#fuzzy)" /><polyline points="20.2,-89.21 21.02,-88.77 21.71,-88.43 22.38,-88.1 23.1,-87.72 23.84,-87.3 24.52,-86.88 25.08,-86.49 25.48,-86.15 25.68,-85.86 25.68,-85.65 25.45,-85.5 25,-85.44 24.29,-85.46 23.33,-85.56 22.09,-85.74 20.55,-86 18.66,-86.36 16.38,-86.84 13.68,-87.46 10.55,-88.23 7.01,-89.14 3.02,-90.2 -1.47,-91.41" fill="none" stroke="rgb(19, 134, 65)" stroke-width="2" stroke-linejoin="round" filter="url(#fuzzy)" /><polyline points="54.33,-55.81 54.61,-55.43 55.07,-54.53 55.41,-53.79 55.69,-53.16 55.92,-52.59 56.1,-52.06 56.19,-51.64 56.16,-51.4 55.97,-51.37 55.6,-51.58 55.04,-52.07 54.27,-52.88 53.24,-54.09 51.94,-55.75 50.34,-57.86 48.47,-60.39 46.31,-63.34 43.83,-66.75 40.97,-70.76 37.83,-75.3" fill="none" stroke="rgb(19, 134, 65)" stroke-width="2" stroke-linejoin="round" filter="url(#fuzzy)" /><polyline points="49.48,-63.74 50.73,-61.68 51.29,-60.47 51.46,-59.57 51.29,-58.93 50.77,-58.55 49.89,-58.44 48.65,-58.57 47.03,-58.93 45.03,-59.49 42.64,-60.22 39.85,-61.13 36.66,-62.22 33.04,-63.53 28.95,-65.06 24.38,-66.85 19.32,-68.91 13.78,-71.25 7.75,-73.94 1.19,-77 -5.94,-80.47 -13.65,-84.23" fill="none" stroke="rgb(19, 134, 65)" stroke-width="2" stroke-linejoin="round" filter="url(#fuzzy)" /><polyline points="49.18,-64.06 49.45,-63.69 49.98,-62.89 50.6,-61.88 51.16,-60.91 51.56,-60.1 51.78,-59.52 51.79,-59.19 51.58,-59.13 51.14,-59.32 50.49,-59.77 49.61,-60.46 48.5,-61.4 47.16,-62.57 45.56,-64.01 43.67,-65.75 41.46,-67.84 38.88,-70.3 35.94,-73.15 32.66,-76.39 29.12,-80.02 25.33,-84.08" fill="none" stroke="rgb(19, 134, 65)" stroke-width="2" stroke-linejoin="round" filter="url(#fuzzy)" /><polyline points="-43.97,-71.41 -24.73,-63.56 -7.22,-58.51 -2.83,-57.72 -6.06,-59.35 -10.17,-61.68 -9.95,-63.91 -3.81,-66 6.34,-68.09 17.12,-70.23 25.68,-72.33 30.58,-74.36 31.51,-76.33 28.74,-78.22 22.72,-79.82 14.33,-80.87 5.42,-81.44 -0.97,-82.26 -1.77,-84.3 2.16,-87.31 1.16,-89.01 -22.5,-88.04" fill="none" stroke="rgb(19, 134, 65)" stroke-width="2" stroke-linejoin="round" filter="url(#fuzzy)" /><polyline points="22.93,-87.91 44.4,-60.82 43.1,-62.96 35.76,-70.78 29.99,-75.1 26.93,-74.77 25.29,-71.8 23.77,-68.59 21.91,-66.6 20.06,-66.13 19.02,-66.76 19.74,-67.72 22.94,-68 27.82,-66.95 28.72,-66.03 11.68,-69.8 -41.08,-73.85" fill="none" stroke="rgb(19, 134, 65)" stroke-width="2" stroke-linejoin="round" filter="url(#fuzzy)" /><polyline points="44.37,-70.77 38.32,-68.84 20.23,-71.77 9.58,-75.43 9.38,-78.74 14.01,-80.84 17.75,-81.52 17.85,-81.16 14.58,-80.27 10.1,-79.09 6.78,-77.51 5.68,-75.33 6.02,-72.79 5.75,-70.78 2.57,-70.49 -4.83,-72.11 -15.02,-73.54 -20.96,-71.28 -6.71,-63.94 56.54,-51.41" fill="none" stroke="rgb(19, 134, 65)" stroke-width="2" stroke-linejoin="round" filter="url(#fuzzy)" /><polyline points="-17.56,-90.43 -25.02,-86.1 -22.14,-86.39 -16.06,-86.12 -8.17,-83.77 1.36,-80.16 10.41,-76.78 15.78,-74.93 15.75,-75.2 11.77,-77.23 7.88,-79.52 8.48,-79.86 15.76,-76.32 28.45,-68.71 42.03,-59.86 50.7,-55.42 50.93,-59.82 45.54,-69.21" fill="none" stroke="rgb(19, 134, 65)" stroke-width="2" stroke-linejoin="round" filter="url(#fuzzy)" /><polyline points="-34.98,-79.92 -32.76,-79.87 -26.63,-74.58 -18.04,-67.6 -11.83,-63.75 -7.01,-64.69 -0.52,-68.84 8.27,-73.57 17.39,-77.05 24.5,-78.67 28.34,-78.8 28.4,-78.35 23.96,-78.36 14.01,-79.48 -1.04,-81.33 -17.34,-82.3 -29.72,-80.27 -45.21,-69.69" fill="none" stroke="rgb(19, 134, 65)" stroke-width="2" stroke-linejoin="round" filter="url(#fuzzy)" /><polyline points="-7.29,-92.73 0.17,-91.64 6.42,-86.73 12.65,-80.75 13.8,-77.46 10.87,-76.97 8.65,-77.23 10.44,-76.59 15.78,-74.76 21.49,-72.39 24.28,-70.34 22.89,-69.16 18.73,-68.97 14.94,-69.59 14.31,-70.77 17.19,-72.36 20.54,-74.39 19.05,-76.95 7.43,-79.12 -17.47,-76.26 -54.36,-55.33" fill="none" stroke="rgb(19, 134, 65)" stroke-width="2" stroke-linejoin="round" filter="url(#fuzzy)" /><polyline points="-12.6,-91.78 9.73,-87.91 16,-87.25 19.71,-86.42 21.72,-85.32 21.16,-84.18 18.3,-83.04 14.92,-81.66 13.12,-79.66 14.14,-76.69 17.73,-72.77 22.36,-68.57 25.67,-65.38 25.33,-64.64 20.13,-67.11 10.85,-72.16 -0.22,-77.74 -10.65,-81.42 -17.55,-82.36 -12.57,-83.17 22.08,-88.31" fill="none" stroke="rgb(19, 134, 65)" stroke-width="2" stroke-linejoin="round" filter="url(#fuzzy)" /><polyline points="6.17,-93.12 -23.49,-76.43 -18.49,-73.26 -7.82,-72.5 -4.72,-72.75 -8.02,-74.33 -12.22,-76.79 -14.25,-79.21 -14.31,-80.89 -13.65,-81.66 -12.51,-81.81 -10,-81.63 -5.33,-81.05 1.33,-79.53 9.21,-76.37 18.22,-70.94 29.37,-62.72 43.46,-51.67 57.53,-40.27 63.64,-32.76" fill="none" stroke="rgb(19, 134, 65)" stroke-width="2" stroke-linejoin="round" filter="url(#fuzzy)" /><polyline points="51.65,-60.46 14.82,-74.63 14.19,-76.76 13,-77.76 6.69,-79.86 0.43,-80.82 -1.4,-78.56 2.28,-73.06 9.58,-66.45 16.86,-61.78 20.7,-61.27 19.96,-65.15 16.26,-71.68 12.41,-78.36 10.33,-83.2 11.16,-84.74 17.96,-80.78 35.73,-66.6 63.06,-33.76" fill="none" stroke="rgb(19, 134, 65)" stroke-width="2" stroke-linejoin="round" filter="url(#fuzzy)" /><polyline points="-7.29,-92.73 30.19,-68.75 41.14,-56.86 37.52,-57.6 30.44,-64.11 24.3,-71.46 18.97,-77.18 13.38,-80.29 7.6,-80.71 3.28,-79.07 2.63,-76.37 6.67,-73.64 13.89,-71.56 20.55,-70.58 22.78,-70.89 19.29,-71.9 12.47,-71.77 6.35,-68.22 -1.28,-62.44 -48.18,-65.33" fill="none" stroke="rgb(19, 134, 65)" stroke-width="2" stroke-linejoin="round" filter="url(#fuzzy)" /><polyline points="63.64,-32.76 40.08,-53.93 16.22,-67.6 -1.93,-72.9 -14.95,-73.96 -21.1,-74.11 -19.71,-74.72 -12.39,-75.75 -1.95,-76.72 8.93,-77.3 18.29,-77.48 25.13,-77.48 29.29,-77.51 31.39,-77.62 32.5,-77.62 33.66,-77.11 35.32,-75.77 37.02,-73.69 37.22,-71.9 33.43,-72.68 23.19,-78.55 7.53,-88.37 -2.3,-93.33" fill="none" stroke="rgb(19, 134, 65)" stroke-width="2" stroke-linejoin="round" filter="url(#fuzzy)" /><polyline points="-18.66,-89.64 -36.99,-73.9 -37.14,-74.02 -29.62,-78.73 -20.06,-83.95 -12.35,-87.81 -8.55,-89.56 -9.09,-88.98 -12.9,-86.07 -17.55,-81.16 -19.6,-75.06 -15.86,-69.14 -5.24,-64.95 9.89,-63.45 24.66,-64.24 34.88,-65.66 39.48,-67.04 36.89,-72.72 20.2,-89.21" fill="none" stroke="rgb(19, 134, 65)" stroke-width="2" stroke-linejoin="round" filter="url(#fuzzy)" /><polyline points="55.49,-53.93 40,-48.28 28.44,-53.41 30,-57.52 32.88,-59.82 30.91,-60.98 24.23,-61.94 15.48,-63.56 6.94,-66.16 -0.45,-69.25 -6.71,-71.66 -11.6,-72.08 -14.28,-69.9 -14.62,-66.02 -15.69,-62.98 -23.07,-63.81 -36.85,-67.92 -50.56,-61.96" fill="none" stroke="rgb(19, 134, 65)" stroke-width="2" stroke-linejoin="round" filter="url(#fuzzy)" /><polyline points="20.2,-89.21 -1.99,-86.68 -1.48,-87.67 -1.23,-87.84 -1.73,-86.17 0.36,-82.75 6.21,-78.23 14.44,-73.46 22.63,-69.15 28.68,-65.75 31.72,-63.4 32.25,-62.04 31.62,-61.57 31.22,-61.99 31.7,-63.22 32.58,-65.08 32.61,-67.34 30.46,-70.07 25.56,-73.69 18.61,-78.59 11.63,-84.15 7.14,-88.4 7.47,-88.73 16.73,-82.48 49.4,-63.81" fill="none" stroke="rgb(19, 134, 65)" stroke-width="2" stroke-linejoin="round" filter="url(#fuzzy)" /><polyline points="18.5,-89.83 31.17,-74.99 19.98,-77.59 10.15,-81.96 8.34,-84.56 11.55,-85.41 15.26,-85.35 16.75,-85.14 15.23,-85.11 11.04,-85.1 5.05,-84.53 -1.49,-82.74 -6.94,-79.51 -9.59,-75.54 -8.35,-72.42 -3.64,-71.83 2.59,-74.32 7.91,-78.23 11.33,-79.66 17.84,-73.06 57.67,-49.34" fill="none" stroke="rgb(19, 134, 65)" stroke-width="2" stroke-linejoin="round" filter="url(#fuzzy)" /><polyline points="58.12,-48.16 13.76,-64.83 18.52,-70.31 26.41,-70.68 26.4,-70.56 21.07,-71.62 16.11,-73.41 14.92,-74.68 17.45,-74.44 21.81,-72.44 26.2,-69.07 29.7,-65.06 31.76,-61.37 31.35,-59.13 26.78,-59.36 16.88,-62.38 2.61,-67.29 -12.28,-72.08 -22.41,-74.84 -22.69,-74.89 -6.65,-71.95 47.53,-66.3" fill="none" stroke="rgb(19, 134, 65)" stroke-width="2" stroke-linejoin="round" filter="url(#fuzzy)" /><polyline points="10.37,-91.99 -20.14,-80.83 -32.7,-73.22 -31.17,-72.29 -22.38,-73.91 -11.01,-74.93 0.67,-74.37 11.37,-72.37 19.61,-69.55 23.73,-66.73 22.98,-64.85 18.59,-64.7 13.58,-66.51 11.04,-69.74 11.94,-73.19 14.45,-75.43 15.73,-75.32 14.35,-72.87 9.38,-71.19 -3.12,-77.7 -14.98,-91.04" fill="none" stroke="rgb(19, 134, 65)" stroke-width="2" stroke-linejoin="round" filter="url(#fuzzy)" /><polyline points="-6.08,-92.92 -11.28,-83.61 2.77,-81.65 13.53,-79.78 18.7,-77.49 20.36,-74.73 19.32,-71.42 15.09,-68.08 8.34,-65.52 1.62,-64.27 -2.95,-64.43 -6.23,-65.6 -11.72,-67.11 -21.56,-68.39 -32.8,-69.64 -39.04,-72.1 -37.29,-76.99 -33.48,-81.4" fill="none" stroke="rgb(19, 134, 65)" stroke-width="2" stroke-linejoin="round" filter="url(#fuzzy)" /><polyline points="-43.97,-71.41 -38.65,-75.18 -28.97,-78.08 -16.91,-79.39 -7.13,-79.55 -2.43,-78.84 -2.05,-77.67 -3.19,-76.36 -3.45,-75.11 -1.92,-74.14 1.19,-73.61 5.36,-73.46 9.92,-73.31 13.61,-72.81 14.6,-71.92 11.76,-70.85 6.46,-69.56 3.3,-67.35 7.97,-63.51 22.29,-58.79 39.63,-56.53 47.86,-61.09 46.92,-67.42" fill="none" stroke="rgb(19, 134, 65)" stroke-width="2" stroke-linejoin="round" filter="url(#fuzzy)" /><polyline points="-45.21,-69.69 1.85,-57.03 7.35,-57.9 4.44,-63.3 -0.71,-70.41 -4.51,-77.32 -5.68,-82.83 -4.64,-86.29 -1.97,-87.48 2.11,-86.46 7.16,-83.7 11.88,-80.08 14.35,-76.79 13.17,-74.89 9.01,-74.93 5.38,-76.64 7.55,-78.64 18.79,-78.34 34.74,-74.3 38.39,-76.79" fill="none" stroke="rgb(19, 134, 65)" stroke-width="2" stroke-linejoin="round" filter="url(#fuzzy)" /><polyline points="-12.8,-91.71 -15.71,-71.72 -8.46,-69 -9.59,-72.98 -9.62,-77.34 -3.32,-79.4 7.02,-78.89 16.16,-77.33 20.51,-76.72 20.48,-77.94 19.47,-80.16 20.28,-82 21.67,-83.31 19.19,-85.41 12.47,-88.91 17.53,-90.17" fill="none" stroke="rgb(19, 134, 65)" stroke-width="2" stroke-linejoin="round" filter="url(#fuzzy)" /><polyline points="-44.81,-70.05 -12.17,-82.7 -5.37,-84.43 -5.1,-83.58 -3.71,-82.4 -0.57,-81.13 3.32,-79.58 6.57,-77.54 7.66,-75.01 5.56,-72.24 0.32,-69.76 -6.88,-68.25 -14.11,-68.24 -19.37,-69.86 -21.39,-72.8 -20.17,-76.41 -16.96,-79.89 -13.67,-82.39 -11.92,-83.07 -11.8,-81.61 -9.5,-79.28 5.38,-78.65 42.39,-72.73" fill="none" stroke="rgb(19, 134, 65)" stroke-width="2" stroke-linejoin="round" filter="url(#fuzzy)" /><polyline points="61.16,-40.66 0.92,-64.59 -14.96,-71.31 -8.89,-73.52 0.82,-74.06 6.55,-73.69 8.71,-72.63 9.7,-71.22 10.33,-69.98 9.93,-69.43 7.81,-69.74 4.19,-70.76 0.12,-72.24 -3.16,-73.99 -4.72,-76.01 -4.31,-78.37 -2.53,-80.95 -0.75,-83.31 -0.66,-84.62 -2.8,-83.99 -4.36,-80.98 2.19,-76.11 24.35,-70.96 47.4,-66.96" fill="none" stroke="rgb(19, 134, 65)" stroke-width="2" stroke-linejoin="round" filter="url(#fuzzy)" /><polyline points="40.19,-75.16 22.4,-71.57 27.11,-61.32 26.25,-59.79 23.11,-64.54 21.49,-70.66 21.1,-75.26 20.89,-77.41 21.01,-77.31 22.3,-75.69 25.01,-73.53 28.33,-71.66 30.87,-70.64 31.49,-70.61 29.97,-71.25 26.93,-71.96 23.23,-72.48 19.38,-73.65 15.1,-77.33 9.35,-84.88 10.37,-91.99" fill="none" stroke="rgb(19, 134, 65)" stroke-width="2" stroke-linejoin="round" filter="url(#fuzzy)" /><polyline points="42.4,-72.78 31.15,-76.65 28.84,-73.69 33.92,-67.46 38.36,-62.46 39.94,-60.19 39.47,-60.62 37.58,-63.4 34.03,-67.92 28.47,-73.03 20.82,-77.36 11.29,-79.91 0.38,-80.54 -10.76,-79.92 -19.98,-79.09 -24.47,-78.72 -21.73,-78.48 -10.34,-76.55 9.82,-70.26 35.5,-60.75 45.54,-69.21" fill="none" stroke="rgb(19, 134, 65)" stroke-width="2" stroke-linejoin="round" filter="url(#fuzzy)" /><polyline points="21.11,-88.69 5.37,-91.21 -1.74,-91.85 -3.55,-91.52 -2.98,-90.54 -1.13,-89.47 1.33,-88.83 3.61,-88.78 4.98,-89.05 5.36,-89.19 5.57,-88.88 6.6,-88.18 7.72,-87.77 5.78,-88.62 0.43,-90.74 7.49,-92.82" fill="none" stroke="rgb(19, 134, 65)" stroke-width="2" stroke-linejoin="round" filter="url(#fuzzy)" /><polyline points="49.48,-63.74 -7.33,-70.63 -20.41,-75.29 -15.52,-77.88 -5.51,-77.87 4.37,-75.9 10.97,-73.32 12.14,-71.59 7.95,-71.58 0.98,-73.15 -5.18,-75.23 -7.83,-76.35 -6.01,-75.58 -0.41,-73.13 7.04,-70.37 13.28,-69.03 14.18,-70.22 5.4,-73.98 -12.25,-80.03 -12.6,-91.78" fill="none" stroke="rgb(19, 134, 65)" stroke-width="2" stroke-linejoin="round" filter="url(#fuzzy)" /><polyline points="49.4,-63.81 38.05,-71.63 21.75,-78.05 14.09,-79.94 15.75,-77.85 20.01,-73.87 21.08,-70 17.4,-67.14 11.02,-65.13 5.19,-63.4 2.16,-61.73 1.88,-60.59 2.3,-60.88 1,-63.25 -2.74,-67.4 -7.02,-71.7 -8.49,-73.88 -4.46,-72.44 5.89,-68.43 21.02,-66.43 34.11,-71.88 35.25,-79.71" fill="none" stroke="rgb(19, 134, 65)" stroke-width="2" stroke-linejoin="round" filter="url(#fuzzy)" />
    </g>
    
        <g id="pointNose">
          <g id="rightNose"><circle r="2.6799999999999997" cx="10.282" cy="27.294" stroke="black" fill="none" stroke-width="1.0" filter="url(#fuzzy)" /><circle r="2.564" cx="8.278" cy="28.802" stroke="black" fill="none" stroke-width="1.0" filter="url(#fuzzy)" /><circle r="1.794" cx="11.798" cy="26.950000000000003" stroke="black" fill="none" stroke-width="1.0" filter="url(#fuzzy)" /><circle r="2.232" cx="11.494" cy="28.354000000000003" stroke="black" fill="none" stroke-width="1.0" filter="url(#fuzzy)" /><circle r="2.084" cx="8.542" cy="27.946" stroke="black" fill="none" stroke-width="1.0" filter="url(#fuzzy)" /><circle r="2.424" cx="8.738" cy="27.814" stroke="black" fill="none" stroke-width="1.0" filter="url(#fuzzy)" /><circle r="1.798" cx="11.506" cy="29.174" stroke="black" fill="none" stroke-width="1.0" filter="url(#fuzzy)" /><circle r="1.818" cx="10.014" cy="30.490000000000002" stroke="black" fill="none" stroke-width="1.0" filter="url(#fuzzy)" /><circle r="1.056" cx="10.434000000000001" cy="29.106" stroke="black" fill="none" stroke-width="1.0" filter="url(#fuzzy)" /><circle r="2.4299999999999997" cx="8.714" cy="26.666" stroke="black" fill="none" stroke-width="1.0" filter="url(#fuzzy)" /></g>
          <g id="leftNose"><circle r="2.794" cx="-10.13" cy="36.814" stroke="black" fill="none" stroke-width="1.0" filter="url(#fuzzy)" /><circle r="2.0860000000000003" cx="-10.742" cy="36.374" stroke="black" fill="none" stroke-width="1.0" filter="url(#fuzzy)" /><circle r="2.378" cx="-10.754000000000001" cy="36.586" stroke="black" fill="none" stroke-width="1.0" filter="url(#fuzzy)" /><circle r="1.608" cx="-11.834" cy="38.738" stroke="black" fill="none" stroke-width="1.0" filter="url(#fuzzy)" /><circle r="2.02" cx="-11.926" cy="35.982" stroke="black" fill="none" stroke-width="1.0" filter="url(#fuzzy)" /><circle r="2.616" cx="-9.206" cy="36.754" stroke="black" fill="none" stroke-width="1.0" filter="url(#fuzzy)" /><circle r="2.08" cx="-11.406" cy="35.202" stroke="black" fill="none" stroke-width="1.0" filter="url(#fuzzy)" /><circle r="1.5659999999999998" cx="-10.466000000000001" cy="35.558" stroke="black" fill="none" stroke-width="1.0" filter="url(#fuzzy)" /><circle r="1.034" cx="-9.238" cy="36.282000000000004" stroke="black" fill="none" stroke-width="1.0" filter="url(#fuzzy)" /><circle r="2.162" cx="-10.522" cy="37.534" stroke="black" fill="none" stroke-width="1.0" filter="url(#fuzzy)" /></g>
        </g>
      
    <g id="mouth">
      <polyline points="-53.05,45.5 -52.57,46.15 -52.06,46.8 -51.54,47.44 -51,48.06 -50.44,48.68 -49.85,49.28 -49.25,49.88 -48.63,50.46 -47.99,51.03 -47.34,51.6 -46.66,52.15 -45.97,52.69 -45.26,53.22 -44.53,53.73 -43.79,54.24 -43.03,54.73 -42.25,55.21 -41.46,55.68 -40.66,56.14 -39.83,56.58 -39,57.01 -38.15,57.43 -37.28,57.83 -36.4,58.22 -35.51,58.6 -34.6,58.96 -33.68,59.31 -32.75,59.65 -31.81,59.97 -30.85,60.28 -29.89,60.57 -28.91,60.85 -27.92,61.11 -26.92,61.36 -25.9,61.59 -24.88,61.81 -23.85,62.01 -22.81,62.2 -21.76,62.37 -20.7,62.53 -19.63,62.67 -18.55,62.79 -17.47,62.89 -16.38,62.98 -15.28,63.05 -14.17,63.11 -13.06,63.15 -11.94,63.17 -10.81,63.17 -9.68,63.16 -8.54,63.12 -7.4,63.07 -6.25,63 -5.1,62.91 -3.94,62.81 -2.78,62.68 -1.61,62.54 -0.44,62.38 0.73,62.2 1.9,61.99 3.08,61.77 4.26,61.53 5.44,61.27 6.62,60.99 7.8,60.69 8.99,60.37 10.18,60.03 11.36,59.66 12.55,59.28 13.73,58.87 14.92,58.45 16.1,58 17.29,57.53 18.47,57.04 19.65,56.53 20.83,55.99 22,55.44 23.18,54.86 24.35,54.25 25.51,53.63 26.68,52.98 27.83,52.31 28.99,51.61 30.14,50.9 31.29,50.15 32.43,49.39 33.56,48.6 34.69,47.79 35.81,46.95 36.93,46.09 38.04,45.2 39.14,44.29 40.24,43.35 41.33,42.39 42.41,41.4 43.48,40.39 44.54,39.35 45.6,38.29 46.64,37.2 47.68,36.08 46.64,37.2 45.6,38.29 44.54,39.35 43.48,40.39 42.41,41.4 41.33,42.39 40.24,43.35 39.14,44.29 38.04,45.2 36.93,46.09 35.81,46.95 34.69,47.79 33.56,48.6 32.43,49.39 31.29,50.15 30.14,50.9 28.99,51.61 27.83,52.31 26.68,52.98 25.51,53.63 24.35,54.25 23.18,54.86 22,55.44 20.83,55.99 19.65,56.53 18.47,57.04 17.29,57.53 16.1,58 14.92,58.45 13.73,58.87 12.55,59.28 11.36,59.66 10.18,60.03 8.99,60.37 7.8,60.69 6.62,60.99 5.44,61.27 4.26,61.53 3.08,61.77 1.9,61.99 0.73,62.2 -0.44,62.38 -1.61,62.54 -2.78,62.68 -3.94,62.81 -5.1,62.91 -6.25,63 -7.4,63.07 -8.54,63.12 -9.68,63.16 -10.81,63.17 -11.94,63.17 -13.06,63.15 -14.17,63.11 -15.28,63.05 -16.38,62.98 -17.47,62.89 -18.55,62.79 -19.63,62.67 -20.7,62.53 -21.76,62.37 -22.81,62.2 -23.85,62.01 -24.88,61.81 -25.9,61.59 -26.92,61.36 -27.92,61.11 -28.91,60.85 -29.89,60.57 -30.85,60.28 -31.81,59.97 -32.75,59.65 -33.68,59.31 -34.6,58.96 -35.51,58.6 -36.4,58.22 -37.28,57.83 -38.15,57.43 -39,57.01 -39.83,56.58 -40.66,56.14 -41.46,55.68 -42.25,55.21 -43.03,54.73 -43.79,54.24 -44.53,53.73 -45.26,53.22 -45.97,52.69 -46.66,52.15 -47.34,51.6 -47.99,51.03 -48.63,50.46 -49.25,49.88 -49.85,49.28 -50.44,48.68 -51,48.06 -51.54,47.44 -52.06,46.8 -52.57,46.15" fill="rgb(204, 142, 102)" stroke="black" stroke-width="3" stroke-linejoin="round" filter="url(#fuzzy)" />
    </g>
  </svg>