<svg xmlns="http://www.w3.org/2000/svg" width="500" height="500" viewBox="-100 -100 200 200"><defs><clipPath id="c"><path d="m33.55-3.34-.03-.1-.07-.09-.1-.08-.15-.08-.19-.07-.23-.07-.27-.06-.31-.07-.35-.05-.38-.05-.43-.05-.47-.05-.51-.04-.54-.04-.58-.04-.48-.03-.53-.03-.6-.03-.67-.03-.72-.02-.79-.03-.85-.02-.9-.02-.95-.01-1.01-.02-1.05-.01-1.1-.01-1.14-.01-1.17-.01-1.21-.01h-1.25l-1.27-.01H7.98l-1.35.01H5.27l-1.36.01-1.35.01-1.35.01-1.35.02-1.33.01-1.31.02-1.31.02-1.28.02-1.26.02-1.23.03-1.21.03-1.18.03-1.16.03-1.12.04-1.08.04-1.06.04-1.01.05-.99.04-.94.05-.91.06-.87.05-.84.06-.8.07-.77.06-.73.07-.7.07-.66.08-.63.08-.6.08-.57.08-.54.09-.5.09-.48.1-.44.1-.42.1-.38.11-.36.11-.32.11-.3.12-.27.12-.24.12-2.88 1.29.48.17.5.17.51.18.53.17.54.18.56.18.57.18.59.18.6.18.62.18.63.18.65.18.66.18.68.17.69.18.71.17.73.18.75.17.76.17.79.17.8.17.82.16.83.15.85.16.87.14.88.14.9.13.92.12.93.12.94.1.96.1.96.08.98.08.99.06 1 .06 1.01.04 1.02.03 1.02.01 1.03.01 1.04-.01 1.03-.02 1.05-.03 1.04-.05 1.04-.06 1.05-.07 1.04-.08 1.04-.1 1.03-.11 1.03-.12 1.03-.14 1.01-.14 1.01-.16 1-.16.99-.18.98-.18.96-.2.95-.2.94-.21.92-.21.9-.23.88-.22.87-.24.84-.23.83-.24.75-.18.74-.19.72-.19.71-.19.69-.19.68-.19.66-.19.65-.19.62-.19.61-.19.59-.18.57-.18.54-.18.53-.17.5-.17"/></clipPath><clipPath id="b"><path d="m-33.36-4.39-.08-.09-.04-.08v-.08l.05-.07.1-.07.13-.07.18-.06.23-.05.27-.05.31-.05.35-.05.4-.04.43-.04.48-.04.51-.03.42-.03.48-.03.54-.03.61-.02.67-.03.73-.02.79-.01.85-.02.9-.02.95-.01 1-.01 1.04-.01 1.09-.01 1.12-.01h1.17l1.19-.01h5.02l1.3.01 1.32.01 1.32.01 1.32.01 1.33.01 1.32.02 1.32.02 1.3.02 1.3.02 1.28.03 1.27.03 1.25.03 1.22.03 1.21.04 1.17.04 1.15.05 1.12.05 1.09.05 1.06.05 1.03.06.99.07.96.07.92.07.89.07.86.08.81.08.79.09.75.09.72.1.68.1.66.1.62.11.59.12.56.12.54.12.5.13.47.13.44.14.41.14.38.15.35.15.33.16.29.16.27.17 3.55 1.73-.45.22-.46.23-.48.22-.48.23-.5.23-.51.23-.53.22-.53.23-.55.23-.56.22-.57.22-.59.22-.59.22-.61.21-.62.22-.63.21-.65.2-.66.21-.68.2-.69.19-.7.19-.72.18-.73.17-.74.16-.75.16-.77.14-.78.13-.79.12-.8.11-.81.09-.82.08-.83.06-.84.05-.85.03-.86.02-.87.01-.88-.02-.88-.03-.9-.04-.9-.06-.91-.08-.91-.09-.93-.11-.93-.12-.93-.14-.95-.15-.95-.17-.95-.18-.96-.19-.96-.2-.97-.22-.97-.22-.98-.23-.98-.24-.98-.25-.98-.26-.99-.26-.98-.26-.99-.27-.98-.27-.99-.27-.98-.26-.97-.27-.97-.27-.81-.22-.81-.23-.8-.23-.79-.22-.78-.23-.77-.22-.76-.22-.75-.22-.73-.21-.72-.21-.7-.2-.69-.2-.66-.19-.65-.19-.62-.18"/></clipPath><filter id="a"><feTurbulence baseFrequency=".05" numOctaves="3" result="noise" type="noise"/><feDisplacementMap in="SourceGraphic" in2="noise" scale="2"/></filter></defs><rect width="100%" height="100%" x="-100" y="-100" fill="#FFFFE0"/><path fill="#D2691E" stroke="#000" stroke-linejoin="round" stroke-width="1.667" d="m81.55 2.47-.21-1.09.2 1.04.06 2.02-.33 1.41-.28 2.76.23 1.29-.04.29-.65 2.53.19-1.49-.09 1.17-.28 3.56-.16.53-.44 3.25-.22.1-.14 1.4-.4 2.35-.26.46-.45 1.52-.92 2.99.12-.38-.09 1.16-.46 1.53-1.13 3.49-.03-.79-.75 3.04-.07-.2-1.24 3.25.29-1.01-1.59 3.67.45-1.4-.49 1.72-.85 2.02-1.18 1.75.37-.53-1.34 2.41-1.53 3.29 1.35-2.95-2.51 4.56-.1.51.08-.46-2.35 3.56-.04.07-1.35 1.66.01.02-1.48 2.74-.74.34-.43.67L59 63.41l.32.06-1.6 1.43.06.43-1.08 1.15-1.06 1.39-2.38 2.1-.68 1.09-1.64.88-.65.45.83-.55-3.4 2.88.33.03-.75.6.06-.34-2.68 2.44-2.5 2 .57-.73-1.2.79-.33.29-.97.58-2.05 1.4-1.9.83.8-.28-3.5 2.11-.33-.14-2.1 1.13.19.15-1.08.22-2.24.83-.83.59-.98.47-.74.13-.77.49-1.5.45-1.46.43-2.45.73.89-.5-2.29.98-1.29.16.03-.02-2.02.37-3.28.74.22.11-2.03-.07.78.15-2.66.31-.22.09-3.31.05-.28.23-2.37.14-1.14-.28-1-.04-1.6.33 1.52-.22-2.77.07-1.41-.03-3.28-.56.78.13.54.1-2.38-.26-2.72-.37-1.13-.26-1.64-.49-.76.1-1.25-.26.07.11-2.74-1.05-.72.07-1.21-.46-1.44-.77.33.58-3.51-1.55.56.34-4.43-1.68.96.27-.22-.18-2.18-.66-2.84-1.47-.14-.35.39.31-.93-.31-3.39-2.02-.56-.67-1.05-.2.66.44-1.35-.92-2.41-2.03-1.25-.77-2.13-1.72 1.36 1.15-.94-.84-.79-.41-1.91-1.59-1.62-1.4-2.33-2.14-.03-.05.47.46-1.79-1.94-.53-.45-.71-.74-1.09-.89-1.33-1.92-.72-.88-1.25-1.17-.39-.47-.69-1.34-1.05-.77-1.28-2.04.53.64-2.67-3.2.28.35-1.51-2.53-.29-.52-.76-1.07-.63-1.5-1.14-1.39.04-.35-1.83-3 .66.46-.61-.46-.81-1.76-1.43-3.24-.34-.96.42 1.6-.21-.88-1.59-4.44-.6-1.2-.59-2.1-.23.33-.23-.98-.38-1.08-.51-2.45-.56-1.14.12.04-.4-2.57-.72-2.46-.01.16-.61-2.36-.69-3.21.32-.07-.45-2.16-.25-.42-.23-2.24.17-.38-.16-.54-.22-1.51-.19-4.18-.03-.8-.34-.98.14.8.01-2.97.1-2.92-.05-.11.11-1.71-.1-.87.04.18.11-5.15-.06.41.14-1.39.47-2.4-.24.33.05-.99.77-2.91.25-2.55.07.38.21-1.51.21-1.25-.16.41.71-2.31.26-2.19.8-2.42.53-1.99-.05-.61.34-.7.23-1.62.93-2.32 1.14-2.29.03-1.12-.65 1.69 1.65-3.18.07-.7.66-1.74 1.37-2.99-.72 1.99.94-2.38 1.71-3.03.47-.59.77-1.69-.04.45 1.31-2.6.93-1.8v-.01l.93-.99.99-1.73 1.26-1.66.39-.52.36-.64 1.06-1.33.42-.84 1.7-1.73.73-.69 1.37-1.74.49-.44 1.07-.94.72-.72 1.54-2.11.91-.63-.81 1.17 2.68-2.68.8-.89.6-.45 1.43-1.29.02.15 2.31-2.16-.78.77 2.03-1.49 2.39-1.87 1.09-.74-.43.42 2.78-1.6 1.09-.65.6-.45-.45.14 3.76-2.2-.14.39 2.2-.94-1.14.43 1.69-.74 1.81-.92 2.39-.91-.83.35 2.45-1.09 1.48-.42-.03-.01 2.24-.53.23-.4 1.92-.32-.43-.03 1.67-.22 1.85-.42.5-.41 3.25-.41.26-.1-.54.15 1.56-.37 4.21-.27.5-.28 1.67-.11.28.06 1.87-.26.46.24 1.64.13 1.15-.07.75-.01 2.26.08.06-.12 1.69.36 2.19-.21 1.43.34-.11.18 3.34.28-1.4-.24 1.55.36 3.53.8.92.24 1.02.31.82.25 3.6.66-2.01-.58 1.52.49 1.02.43 2.75 1.01-.42-.29 2.57 1.34.44-.18 1.34.85.48.3.36.09 1.98.72 2.16 1.35.23.02 1.97 1.26 1.32.54 1.8 1.12-.98-.47.32.44 2.89 1.77 1.27.55.81.73.11.13 2.68 1.99-.22-.18 1.47 1.39-.33-.17 2.4 2.16 1.3 1.33.23-.5 1.31 1.82 2.17 1.99-.48-.43.86.82 2.65 2.89-.53-.18.8 1.07 1.77 2.11.43.08 1.08 1.33-.02.35 1.04 1.45.72 1.01 1.28 2.16.1.02.97.88.92 1.88.46.68.98 2.1.22-.26.45 1.56 1.93 3.52.07-.04.44.41 1.34 3.26.27.57.55 1.87.58 1.07.29.9.12.79.85 1.6.43 1.18.78 2.53-.13.18.17-.13.86 4 .61 1.43.07.52.9 3.43.19.88-.04.39v1.01l.53.9.18 2.02-.03 1.83h.45l-.05 1.41.4 1.99-.18 1.02.2 1.43.32 3.29.08 2.11-.22.21.17 2.7.04 2.37-.21-1.09" filter="url(#a)"/><path fill="#fff" d="m-33.36-4.39-.08-.09-.04-.08v-.08l.05-.07.1-.07.13-.07.18-.06.23-.05.27-.05.31-.05.35-.05.4-.04.43-.04.48-.04.51-.03.42-.03.48-.03.54-.03.61-.02.67-.03.73-.02.79-.01.85-.02.9-.02.95-.01 1-.01 1.04-.01 1.09-.01 1.12-.01h1.17l1.19-.01h5.02l1.3.01 1.32.01 1.32.01 1.32.01 1.33.01 1.32.02 1.32.02 1.3.02 1.3.02 1.28.03 1.27.03 1.25.03 1.22.03 1.21.04 1.17.04 1.15.05 1.12.05 1.09.05 1.06.05 1.03.06.99.07.96.07.92.07.89.07.86.08.81.08.79.09.75.09.72.1.68.1.66.1.62.11.59.12.56.12.54.12.5.13.47.13.44.14.41.14.38.15.35.15.33.16.29.16.27.17 3.55 1.73-.45.22-.46.23-.48.22-.48.23-.5.23-.51.23-.53.22-.53.23-.55.23-.56.22-.57.22-.59.22-.59.22-.61.21-.62.22-.63.21-.65.2-.66.21-.68.2-.69.19-.7.19-.72.18-.73.17-.74.16-.75.16-.77.14-.78.13-.79.12-.8.11-.81.09-.82.08-.83.06-.84.05-.85.03-.86.02-.87.01-.88-.02-.88-.03-.9-.04-.9-.06-.91-.08-.91-.09-.93-.11-.93-.12-.93-.14-.95-.15-.95-.17-.95-.18-.96-.19-.96-.2-.97-.22-.97-.22-.98-.23-.98-.24-.98-.25-.98-.26-.99-.26-.98-.26-.99-.27-.98-.27-.99-.27-.98-.26-.97-.27-.97-.27-.81-.22-.81-.23-.8-.23-.79-.22-.78-.23-.77-.22-.76-.22-.75-.22-.73-.21-.72-.21-.7-.2-.69-.2-.66-.19-.65-.19-.62-.18" filter="url(#a)" transform="translate(49.3 -28.63)"/><path fill="#fff" d="m33.55-3.34-.03-.1-.07-.09-.1-.08-.15-.08-.19-.07-.23-.07-.27-.06-.31-.07-.35-.05-.38-.05-.43-.05-.47-.05-.51-.04-.54-.04-.58-.04-.48-.03-.53-.03-.6-.03-.67-.03-.72-.02-.79-.03-.85-.02-.9-.02-.95-.01-1.01-.02-1.05-.01-1.1-.01-1.14-.01-1.17-.01-1.21-.01h-1.25l-1.27-.01H7.98l-1.35.01H5.27l-1.36.01-1.35.01-1.35.01-1.35.02-1.33.01-1.31.02-1.31.02-1.28.02-1.26.02-1.23.03-1.21.03-1.18.03-1.16.03-1.12.04-1.08.04-1.06.04-1.01.05-.99.04-.94.05-.91.06-.87.05-.84.06-.8.07-.77.06-.73.07-.7.07-.66.08-.63.08-.6.08-.57.08-.54.09-.5.09-.48.1-.44.1-.42.1-.38.11-.36.11-.32.11-.3.12-.27.12-.24.12-2.88 1.29.48.17.5.17.51.18.53.17.54.18.56.18.57.18.59.18.6.18.62.18.63.18.65.18.66.18.68.17.69.18.71.17.73.18.75.17.76.17.79.17.8.17.82.16.83.15.85.16.87.14.88.14.9.13.92.12.93.12.94.1.96.1.96.08.98.08.99.06 1 .06 1.01.04 1.02.03 1.02.01 1.03.01 1.04-.01 1.03-.02 1.05-.03 1.04-.05 1.04-.06 1.05-.07 1.04-.08 1.04-.1 1.03-.11 1.03-.12 1.03-.14 1.01-.14 1.01-.16 1-.16.99-.18.98-.18.96-.2.95-.2.94-.21.92-.21.9-.23.88-.22.87-.24.84-.23.83-.24.75-.18.74-.19.72-.19.71-.19.69-.19.68-.19.66-.19.65-.19.62-.19.61-.19.59-.18.57-.18.54-.18.53-.17.5-.17" filter="url(#a)" transform="translate(-35.62 -28.57)"/><g fill="none" stroke="#000" transform="translate(49.3 -28.63)"><path stroke-linejoin="round" stroke-width="1.667" d="m-30.22-3.18-.49-.15-.45-.15-.42-.13-.38-.14-.33-.12-.3-.12-.26-.11-.21-.1-.17-.1-.13-.09-.08-.09-.04-.08v-.08l.05-.07.1-.07.13-.07.18-.06.23-.05.27-.05.31-.05.35-.05.4-.04.43-.04.48-.04.51-.03.42-.03.48-.03.54-.03.61-.02.67-.03.73-.02.79-.01.85-.02.9-.02.95-.01 1-.01 1.04-.01 1.09-.01 1.12-.01h1.17l1.19-.01h5.02l1.3.01 1.32.01 1.32.01 1.32.01 1.33.01 1.32.02 1.32.02 1.3.02 1.3.02 1.28.03 1.27.03 1.25.03 1.22.03 1.21.04 1.17.04 1.15.05 1.12.05 1.09.05 1.06.05 1.03.06.99.07.96.07.92.07.89.07.86.08.81.08.79.09.75.09.72.1.68.1.66.1.62.11.59.12.56.12.54.12.5.13.47.13.44.14.41.14.38.15.35.15.33.16.29.16.27.17.24.17.22.18.19.18.17.19.14.19.12.2.09.2.07.21.05.2.03.22" filter="url(#a)"/><path stroke-linejoin="round" stroke-width="2.222" d="m-34.73-4.04.29.09.34.09.37.11.42.12.45.13.48.13.51.15.55.16.57.16.6.17.62.18.65.19.66.19.69.2.7.2.72.21.73.21.75.22.76.22.77.22.78.23.79.22.8.23.81.23.81.22.97.27.97.27.98.26.99.27.98.27.99.27.98.26.99.26.98.26.98.25.98.24.98.23.97.22.97.22.96.2.96.19.95.18.95.17.95.15.93.14.93.12.93.11.91.09.91.08.9.06.9.04.88.03.88.02.87-.01.86-.02.85-.03.84-.05.83-.06.82-.08.81-.09.8-.11.79-.12.78-.13.77-.14.75-.16.74-.16.73-.17.72-.18.7-.19.69-.19.68-.2.66-.21.65-.2.63-.21.62-.22.61-.21.59-.22.59-.22.57-.22.56-.22.55-.23.53-.23.53-.22.51-.23.5-.23.48-.23.48-.22.46-.23.45-.22.43-.22.42-.22.41-.22.4-.21.38-.21.38-.21.36-.21.34-.2.34-.2.32-.19" filter="url(#a)"/><circle cx="-6.342" cy=".613" r="4.318" clip-path="url(#b)" filter="url(#a)"/><circle cx="-6.787" cy="-.197" r="3.29" clip-path="url(#b)" filter="url(#a)"/><circle cx="-3.477" cy=".518" r="4.304" clip-path="url(#b)" filter="url(#a)"/><circle cx="-5.242" cy="-.667" r="3.912" clip-path="url(#b)" filter="url(#a)"/><circle cx="-5.197" cy="3.673" r="4.57" clip-path="url(#b)" filter="url(#a)"/><circle cx="-3.232" cy="1.058" r="4.056" clip-path="url(#b)" filter="url(#a)"/><circle cx="-3.922" cy="1.303" r="3.108" clip-path="url(#b)" filter="url(#a)"/><circle cx="-4.542" cy="-.757" r="4.644" clip-path="url(#b)" filter="url(#a)"/><circle cx="-7.527" cy="2.938" r="3.696" clip-path="url(#b)" filter="url(#a)"/><circle cx="-5.487" cy="-.357" r="3.02" clip-path="url(#b)" filter="url(#a)"/></g><g fill="none" stroke="#000" transform="translate(-35.62 -28.57)"><path stroke-linejoin="round" stroke-width="2.222" d="m31.93-2.03.3-.16.27-.16.25-.15.22-.14.18-.14.15-.12.12-.12.08-.11.05-.11v-.1l-.03-.1-.07-.09-.1-.08-.15-.08-.19-.07-.23-.07-.27-.06-.31-.07-.35-.05-.38-.05-.43-.05-.47-.05-.51-.04-.54-.04-.58-.04-.48-.03-.53-.03-.6-.03-.67-.03-.72-.02-.79-.03-.85-.02-.9-.02-.95-.01-1.01-.02-1.05-.01-1.1-.01-1.14-.01-1.17-.01-1.21-.01h-1.25l-1.27-.01H7.98l-1.35.01H5.27l-1.36.01-1.35.01-1.35.01-1.35.02-1.33.01-1.31.02-1.31.02-1.28.02-1.26.02-1.23.03-1.21.03-1.18.03-1.16.03-1.12.04-1.08.04-1.06.04-1.01.05-.99.04-.94.05-.91.06-.87.05-.84.06-.8.07-.77.06-.73.07-.7.07-.66.08-.63.08-.6.08-.57.08-.54.09-.5.09-.48.1-.44.1-.42.1-.38.11-.36.11-.32.11-.3.12-.27.12-.24.12-.22.13-.19.13-.17.14-.14.14-.11.14-.1.15-.07.15-.05.15-.03.15v.16" filter="url(#a)"/><path stroke-linejoin="round" stroke-width="2.222" d="m35.11-3.06-.23.08-.26.09-.3.1-.32.12-.35.12-.38.13-.41.15-.43.14-.45.16-.48.16-.5.17-.53.17-.54.18-.57.18-.59.18-.61.19-.62.19-.65.19-.66.19-.68.19-.69.19-.71.19-.72.19-.74.19-.75.18-.83.24-.84.23-.87.24-.88.22-.9.23-.92.21-.94.21-.95.2-.96.2-.98.18-.99.18-1 .16-1.01.16-1.01.14-1.03.14-1.03.12-1.03.11-1.04.1-1.04.08-1.05.07-1.04.06-1.04.05-1.05.03-1.03.02-1.04.01-1.03-.01-1.02-.01-1.02-.03-1.01-.04-1-.06-.99-.06-.98-.08-.96-.08-.96-.1-.94-.1-.93-.12-.92-.12-.9-.13-.88-.14-.87-.14-.85-.16-.83-.15-.82-.16-.8-.17-.79-.17-.76-.17-.75-.17-.73-.18-.71-.17-.69-.18-.68-.17-.66-.18-.65-.18-.63-.18-.62-.18-.6-.18-.59-.18-.57-.18-.56-.18-.54-.18-.53-.17-.51-.18-.5-.17-.48-.17-.47-.17-.45-.17-.44-.16-.43-.17-.41-.16-.4-.15-.38-.16-.37-.15-.36-.15-.34-.14" filter="url(#a)"/><circle cx="16.458" cy="-4.332" r="3.756" clip-path="url(#c)" filter="url(#a)"/><circle cx="14.813" cy="-4.522" r="4.06" clip-path="url(#c)" filter="url(#a)"/><circle cx="18.968" cy="-1.632" r="4.462" clip-path="url(#c)" filter="url(#a)"/><circle cx="15.863" cy="-4.342" r="3.152" clip-path="url(#c)" filter="url(#a)"/><circle cx="19.288" cy="-3.302" r="4.106" clip-path="url(#c)" filter="url(#a)"/><circle cx="18.988" cy="-2.832" r="3.692" clip-path="url(#c)" filter="url(#a)"/><circle cx="15.363" cy="-3.772" r="4.554" clip-path="url(#c)" filter="url(#a)"/><circle cx="17.563" cy="-3.847" r="3.778" clip-path="url(#c)" filter="url(#a)"/><circle cx="17.918" cy="-2.042" r="3.78" clip-path="url(#c)" filter="url(#a)"/><circle cx="18.888" cy="-3.752" r="3.47" clip-path="url(#c)" filter="url(#a)"/></g><g fill="none" stroke="#4682B4" stroke-linejoin="round" stroke-width="2"><path d="m39.59-80.71 2.08 1.27 1.1.79.53.6.15.54-.17.49-.5.44-.84.39-1.16.35-1.51.28-1.88.21-2.3.12-2.77.02-3.28-.09-3.8-.2-4.37-.31-4.94-.42-5.53-.55-6.1-.69-6.64-.89-7.19-1.11-7.84-1.29-8.83-1.3" filter="url(#a)"/><path d="m22.74-89.15-.66-.11.87.48 1.58.79 1.89.98 1.99 1.07 2.02 1.15 2.02 1.17 1.98 1.18 1.98 1.18 1.96 1.18 1.94 1.14 1.87 1.11 1.74 1.02 1.52.9 1.22.71.87.5.44.2.12-.05m-78.56-11.26 1.74-.8 1.47-.61 1.31-.51 1.25-.46 1.19-.43 1.08-.36.92-.31.75-.23.54-.16.32-.07.07.02-.21.12-.55.24-1.01.39-1.57.58-2.27.84-3.03 1.12M73.16-41.03l.35.9.41 1.11.38 1.03.33.92.28.84.24.76.16.63.05.48-.05.29-.18.1-.3-.12-.43-.39-.6-.72-.78-1.11-.98-1.56-1.2-2.01-1.42-2.48-1.65-2.93-1.89-3.4-2.13-3.91-2.43-4.52-2.88-5.25M-12.25-91.5l2.11-.32 2.2-.25 1.78-.19 1.45-.13 1.24-.07 1.11-.03h1.01l.89.02.75.02.58.02.38.03.13.04-.18.07-.55.1-1 .14-1.46.15-1.87.17-2.25.17-2.7.19-3.32.27m32.68 1.37 1.23.5.89.57.47.61-.04.65-.57.7-1.1.75-1.64.82-2.16.9-2.66 1-3.18 1.14-3.74 1.26-4.35 1.38-5.04 1.47-5.77 1.54-6.55 1.61-7.37 1.72-8.15 1.86-8.88 1.98-9.65 2.15m77.96-18.66.9.35 1.44.68 1.49.77 1.42.78 1.29.72 1.13.66.96.59.82.51.72.47.62.41.48.35.3.24.04.1-.25-.05-.55-.21-.86-.38-1.14-.54-1.39-.7-1.68-.9-2.03-1.12-2.47-1.39-2.89-1.66" filter="url(#a)"/><path d="m29.95-86.08.23.31-.03.54-.44.79-1.09.99-1.89 1.11-2.79 1.2-3.76 1.28-4.77 1.37L9.61-77l-6.8 1.65-7.78 1.84-8.83 2.04-10 2.25-11.26 2.46-12.52 2.71" filter="url(#a)"/><path d="m-5.98-92.42 1.44.05 1.62.29 1.98.52 2.34.73 2.67.91 2.94 1.05 3.2 1.17 3.42 1.29L17.24-85 21-83.5l3.86 1.58 3.88 1.63 3.86 1.64 3.8 1.62 3.71 1.59 3.64 1.54 3.6 1.57 3.48 1.58" filter="url(#a)"/><path d="m-15.72-90.73 1.24-.34 1.61-.19 1.6-.08 1.79-.02h2.08l2.3.02 2.35.06 2.31.08 2.21.13 2.13.15 2.06.17 2 .19 1.95.19 1.87.17 1.76.16 1.6.12 1.4.09 1.16.04.91.01h.69l.56.03.33.06" filter="url(#a)"/><path d="m-20.96-89.34.79-.33 1.38-.23 1.77-.21 2.18-.21 2.49-.23 2.65-.23 2.65-.21 2.54-.19 2.41-.18 2.31-.18 2.21-.17 2.04-.15 1.66-.12 1.2-.13m15.95 3.3 1.71.63.95.41.63.35.31.3-.07.21-.41.15-.75.1-1.11.06h-1.55l-2.09-.07-2.78-.19-3.56-.31-4.38-.48-5.1-.67-5.67-.84-6.41-.96" filter="url(#a)"/><path d="m-5.98-92.42 1.22-.06.94-.03.83.02.73.07.57.1.38.12.15.15-.11.2-.42.24-.76.32-1.18.39-1.66.47-2.21.57-2.81.67-3.42.77-3.99.88-4.45.94-4.92.92" filter="url(#a)"/><path d="m17.3-90.37 1.05.29 1.13.26.92.2.69.19.58.23.49.26.39.28.2.27-.04.24-.34.18-.65.13-.98.1-1.32.06-1.68.04-2.07.01-2.49-.03-2.93-.11-3.39-.19-3.94-.3-4.56-.37-5.22-.41-5.84-.46m-23.69 6.61.74-.46 1.53-.75 1.5-.63 1.41-.55 1.43-.54 1.53-.58 1.61-.61 1.62-.6 1.56-.58 1.44-.52 1.28-.45 1.11-.4.94-.33.74-.26.52-.19.3-.11.06-.03-.17.03-.39.09-.65.17-1 .28-1.54.45" filter="url(#a)"/><path d="m-32.16-85.07 1.88-.68 2.23-.52 2.43-.28 2.66-.1 2.93.05 3.22.17 3.47.27 3.7.37 3.89.44 4.06.5 4.24.55 4.4.57 4.53.59 4.65.61 4.69.63 4.67.67 4.6.7 4.54.68 4.57.7m3.28.21.78.56.1.65-.43.74-1 .82-1.62.87-2.28.92-2.92.98-3.59 1.05-4.3 1.1-5.07 1.15-5.9 1.18-6.76 1.22-7.65 1.27-8.58 1.33-9.5 1.38-10.41 1.4-11.28 1.35-12.11 1.22" filter="url(#a)"/><path d="m34.93-83.62.6.34.75.56.36.48-.19.35-.67.24-1.09.19-1.48.14-1.98.09-2.54-.02-3.18-.14-3.83-.28-4.51-.42-5.21-.56-5.95-.7-6.7-.84-7.56-1-8.65-1.11" filter="url(#a)"/><path d="m58.18-64.6.84 1.1.61.84.15.44-.33.09-.78-.19-1.21-.45-1.65-.77-2.14-1.13-2.7-1.56-3.34-2.01-4.04-2.5-4.84-3.03-5.73-3.61-6.6-4.24-7.13-4.79M-1.7-92.49l1.5.1 1.55.1 1.69.15 1.83.2 1.95.23 2.03.28 2.04.3 1.96.31 1.82.31 1.61.27 1.38.23 1.14.19.9.12.64.08.38.04-.03.01m.04-.16 1.47.54 1.63.68 1.69.76 1.69.81 1.67.84 1.64.85 1.61.87 1.59.87 1.58.87 1.57.86 1.51.83 1.4.76 1.24.67 1.01.54.76.39.47.22.21.07-.06-.09-.4-.28-1.08-.65" filter="url(#a)"/><path d="m18.32-90.06 1.25.28 1.05.2.65.17.52.21.47.26.34.28.12.26-.19.21-.56.14-.94.07-1.34.02-1.77-.03-2.23-.06-2.75-.11-3.28-.17-3.81-.27-4.34-.39-4.98-.53-5.87-.6m-5.88-1.02 2.12-.28 1.15-.15 1.11-.15 1.34-.17 1.4-.17 1.16-.14.74-.07h.26l-.18.08-.59.15-1.09.21-1.69.31-2.41.4-3.2.5m70.3 22.49 1.06 1.18.78 1.14.31.84-.05.61-.38.41-.74.22-1.13.02-1.55-.14-1.97-.31-2.42-.48-2.89-.67-3.37-.89-3.88-1.13-4.4-1.36-4.94-1.6-5.54-1.84-6.14-2.09-6.72-2.36-7.27-2.67-7.8-3.03-8.36-3.41" filter="url(#a)"/><path d="m1.84-92.44 1.72.13 1.66.3 1.97.47 2.24.63 2.36.77 2.46.88 2.55.97 2.66 1.05 2.77 1.12 2.85 1.15 2.85 1.17 2.77 1.15 2.63 1.09 2.42 1.02 2.2.93 2.01.83 1.87.76 1.79.72 1.77.75" filter="url(#a)"/><path d="m-.06-92.36 1.15-.01 1.4.08 1.61.15 1.75.21 1.86.25 1.9.28 1.85.31 1.78.31 1.68.33 1.61.32 1.52.32 1.4.3 1.2.25.89.16.54.06.16-.05-.15-.13-.36-.13-.59-.12m-66.3 12.19h.39l1.73-.76 2.24-.83 2.49-.69 2.69-.56 2.92-.46 3.13-.41 3.35-.36 3.56-.32 3.74-.27 3.91-.23 4.04-.18 4.16-.14 4.25-.14 4.34-.13 4.37-.14 4.39-.12 4.4-.08 4.42-.03 4.41.04 4.25.02 3.85-.12" filter="url(#a)"/><path d="m47.35-75.54.17.21.43.51.46.59.36.54.15.42-.17.23-.54.03-.97-.19-1.46-.44-1.98-.71-2.53-1.01-3.11-1.31-3.67-1.66-4.23-2-4.83-2.39-5.55-2.8-6.42-3.19" filter="url(#a)"/><path d="m12.7-91.53-.12.09 1.46.54 2.04.77 2.16.89 2.16.96 2.14 1.03 2.14 1.09 2.16 1.17 2.21 1.25 2.28 1.33 2.34 1.38 2.36 1.41 2.33 1.41 2.27 1.39 2.17 1.35 2.07 1.29 1.96 1.22 1.84 1.11 1.69.98 1.49.81 1.23.62 1.1.6" filter="url(#a)"/><path d="m47.13-75.72.91.96.61.81.47.81.21.71-.13.61-.52.5-.9.4-1.32.29-1.73.19-2.16.06-2.61-.08-3.09-.23-3.59-.39-4.13-.56-4.69-.72-5.27-.87-5.86-1.01-6.45-1.14-7.03-1.32-7.55-1.55-8.02-1.85-8.52-2.16" filter="url(#a)"/><path d="m67.27-52.26.44.86.26.79.02.65-.2.53-.5.32-.85.02-1.27-.31-1.73-.67-2.21-1.06-2.7-1.47-3.2-1.92-3.71-2.37-4.22-2.81-4.78-3.23-5.38-3.68-6.01-4.15-6.63-4.66-7.25-5.16-7.87-5.65" filter="url(#a)"/><path d="m17.3-90.37.93.31.79.33.36.34-.11.41-.47.52-.79.66-1.13.79-1.55.88-2.05.97-2.58 1.05-3.14 1.15-3.71 1.25-4.27 1.37-4.82 1.49-5.4 1.62-6.03 1.76-6.74 1.89-7.48 2.01-8.27 2.1-9.09 2.22" filter="url(#a)"/><path d="m-1.7-92.49 1.39.23 1.2.42 1.17.35 1.18.32 1.2.4 1.22.53 1.21.61 1.19.62 1.14.58 1.12.54 1.13.51 1.17.52 1.23.53 1.26.54 1.24.57 1.13.66.97.86.77 1.11.63 1.33.61 1.35.8 1.12.96.67.53-.17-26.78-14.18 1.41-.12 1.16.01 1.14.02h4.8l1.28.03 1.29.05 1.27.08 1.24.12 1.23.14 1.24.17 1.28.21 1.34.25 1.39.28 1.38.29 1.31.28 1.21.24 1.06.19.93.18.96.24 1.3.44 2.08.74m-5.5-26.29-3.6 2.29-1.91.74-1.37.5-1.37.97-1.52 1.51-1.6 1.76-1.63 1.74-1.58 1.58-1.49 1.42-1.4 1.4-1.32 1.49-1.26 1.54-1.21 1.36-1.17.88-1.12.34-1.08.03-1.01.32-.91 1.28-.7 1.63" filter="url(#a)"/><path d="m-6.48-92.14.76-.5.95-1.05.98-1.87 1.04-2.08 1.1-1.61 1.19-1.12 1.27-1.12 1.37-1.56 1.45-2.08 1.54-2.38 1.58-2.25 1.6-1.7 1.54-.89 1.47-.1 1.41.38 1.45.29 1.63-.31 1.91-1.06 2.17-1.63 2.23-1.99 2-2.24 1.59-1.81m-38 29.32-.01-.59-.83-.02-1.34-.3-1.56-.78-1.55-1.04-1.4-.88-1.18-.36-1.03.16-.99.4-1.1.19-1.28-.31-1.46-.77-1.55-.79-1.35-.46-.54-1.1 17.71 6.5-1.07-.02-1.59-.03-1.59-.36-1.53-.8-1.41-.93-1.27-.69-1.17-.26-1.11.09-1.1.31-1.16.36-1.22.29-1.33.12-1.47-.12-1.59-.42-1.71-.74-1.78-.99-1.76-1.06-1.68-.9-1.58-.5-1.53-.09-1.51.09-1.43-.04-1.19-.03-1.17.32M80.37-15.89l-.15-1.58-.12-1.15-.09-1.04-.1-1.13-.08-1.35-.04-1.55v-1.69l-.01-1.73-.06-1.67-.16-1.56-.24-1.47-.28-1.4-.29-1.37-.25-1.36-.2-1.36-.16-1.36-.17-1.37-.25-1.4-.36-1.47-.47-1.53-.49-1.51-.4-1.17-.13-.41" filter="url(#a)"/><path d="m-15.22-91.14 2.06-.46.96-1 .89-1.49 1.21-1.44 1.45-1.01 1.5-.57 1.43-.34 1.32-.44 1.24-.89 1.2-1.5 1.22-2.05 1.24-2.24 1.3-2 1.35-1.52 1.45-1.22 1.57-1.33 1.7-1.58 1.74-1.43 1.49-.94.78-1.93" filter="url(#a)"/><path d="m-15.72-90.73 1.06-.7 1.17-1.22.94-1.3 1-1.03 1.26-.65 1.47-.36 1.54-.22 1.44-.18 1.3-.18 1.18-.17 1.13-.14 1.14-.14 1.15-.28 1.21-.61 1.34-.9 1.82-.81-20.15 8.89.12-6.65 1.15-1.73 1.11-.73 1.11-1.05 1.3-1.25 1.51-.97 1.6-.39 1.55.16 1.41.48 1.29.4 1.23-.13 1.22-1.02 1.25-1.95 1.32-2.53 1.52-2.81 2.14-4.15m-22.68 24.74-1.16-.22-.99-.67-1.04-.4-1.07-.02-1.11.13-1.21.03-1.32-.15-1.4-.26-1.45-.26-1.46-.17-1.43-.06-1.38-.02-1.35-.13-1.38-.32-1.51-.49-1.66-.46-1.6-.15-1.25.06-1.23-1.02 23.33 4.8-.82-2.33-1.31-1.74-1.25-.58-1.33-.52-1.43-.64-1.5-.61-1.55-.52-1.62-.52-1.66-.48-1.6-.34-1.47-.11-1.33.11-1.28.19-1.38.09-1.63-.23-1.85-.69-1.86-1.06-1.6-.95-1.93-1.3 26.68 12.98h-1.63l-1.67-1.49-1.99-2.4L-28.1-95l-1.47-.32-1.18.79-1.11 1.05-1.21.65-1.35.07-1.47-.3-1.49-.33-1.44-.11-1.39.13-1.39.2-1.5.02-1.69-.25-1.8-.4-1.84-.21-1.96.13-2.57.2-3.33-.07 15 23.1-.17-.61.81-1.25.91-1.49.85-1.4.82-1.23.84-1.07.84-.99.85-.93.88-.88.91-.82.91-.8.88-.82.83-.86.85-.91.94-.89 1.07-.81 1.14-.7 1.17-.58 1.29-.57 1.5-.54m117.5 20.73-1.01 3.94.2 2.91-.45 2.73-.77 2.71-.6 2.54-.39 2.32-.31 2.13-.37 2-.47 1.95-.64 1.95-.82 2.02-.89 2.05-.78 2.02-.44 1.9-.04 1.77.21 1.72.14 1.78-.23 1.93-.74 2.05-1.25 2.06-1.58 1.89-1.58 1.57-1.12 1.22-.21 1" filter="url(#a)"/><path d="m2.19-110.33-1.04.32-1.26.52-1.28.62-1.26.99-1.25 1.3-1.3 1.45-1.39 1.44-1.46 1.4-1.46 1.33-1.4 1.27-1.32 1.16-1.27.96-1.29.67-1.32.31-1.34.03-1.29-.03-1.17.21-.98.72-.81 1.35-.73 1.72-.8 1.53-1.05.82-1.36.46-1.46 2.49.83-.35.14-.23.94-.79.89-1.49.71-2.01.67-2 .75-1.52.9-.86 1.07-.28 1.22.06 1.32.11 1.34-.08 1.3-.44 1.21-.81 1.17-1.06 1.26-1.18 1.46-1.17 1.66-1.19 1.63-1.31 1.29-1.27.73-.51-27.55 20.6.24.23-.53 1.01-.83 1.18-.96 1-.97.82-.94.79-.93.83-.98.82-1.07.78-1.14.74-1.13.79-1.05.92-.9 1.05-.78 1.13-.69 1.11-.68 1.05-.71 1.03-.76 1.07-.79 1.2-.7 1.18.04.34" filter="url(#a)"/><path d="m-31.02-85.5-.34-.61.27-2.65.56-2.91.93-1.84 1.2-.74 1.28-.34 1.18-.63.98-1.27.8-1.86.72-2.09.77-1.92.89-1.53 1.07-1.2 1.2-1.13 1.27-1.33 1.25-1.63 1.19-1.78 1.15-1.77 1.26-1.72 1.67-1.78 2.22-1.88 1.68-2.8m-39.57 58.35.79-3.08.71-1.66.74-1.02.73-.86.69-.93.66-1.07.69-1.17.78-1.23.84-1.29.84-1.34.81-1.35.81-1.25.87-1 .97-.66 1.04-.43 1.04-.68.86-1.54.3-1.44m.14-.39-2.35 1.27-1.15.62-.99.5-1.08.52-1.17.57-1.22.64-1.23.72-1.23.78-1.19.79-1.15.77-1.09.74-1.04.72-1.02.72-1.02.72-1.02.74-1.03.73-1.03.7-1.02.7-1 .72-1.01.77-1.01.82-1.03.79-1.08.77-1.21 1.18" filter="url(#a)"/><path d="m-65.11-75.83.65-.76 1.7.03 1.93.14 1.79.05 1.6-.05 1.48-.17 1.36-.37 1.19-.64 1.02-.89.88-1.07.86-1.06.98-.87 1.23-.56 1.48-.27 1.63-.15 1.6-.24 1.46-.46 1.31-.56 1.29-.45 1.28-.08 1.09.53.46.98 2.47-1.24 1.4-.4 1.01-.26.93-.33 1.03-.4 1.14-.43 1.21-.41 1.22-.39 1.18-.36 1.14-.33 1.11-.3 1.08-.25 1.03-.21 1-.15.97-.07 1.01.01 1.09.01 1.15-.12.86-.3M96.7-50.44l-3.29 3.16-2.44 2.58-2 2.43-1.29 2.22-.48 1.91.2 1.58.58 1.38.46 1.46-.17 1.77-1.06 2.2-1.73 2.47-1.82 2.45-1.42 2.13-1.04 1.68-.96 1.24-.58.97" filter="url(#a)"/><path d="m-36.39-82.89.62-.58 1.14-1.2.69-1.95.26-2.59.23-2.69.47-2.29.81-1.74 1.06-1.24 1.21-.87 1.27-.68 1.25-.66 1.17-.82 1.08-1.1.96-1.42.9-1.69.87-1.93.92-2.13 1.01-2.36 1.11-2.61 1.17-2.81 1.09-2.9.81-2.89.53-2.56 1.1-1.33" filter="url(#a)"/><path d="m-82.64-78.35 1.12-.66 2-.3 2.11-.4 2.2-.33 2.38-.05 2.43.15 2.27.1 2-.1 1.77-.23 1.7-.2 1.71-.08 1.75.04 1.76.08 1.74.09 1.75.17 1.77.3 1.79.42 1.77.47 1.7.34 1.64.04 1.63-.43 1.7-.85 1.52-.83-4.73 3.33.2.04 1.21-.66 1.38-.83 1.27-.78 1.16-.7 1.1-.62 1.08-.57 1.08-.49 1.1-.43 1.13-.37 1.14-.32 1.08-.26.99-.24.96-.26 1.15-.36 1.55-.5 2.06-.5m-21.95 10.01-.03.89-.59.97-.8 1.01-.9.93-.94.83-.89.8-.82.87-.75.98-.68 1.1-.64 1.19-.63 1.26-.63 1.29-.66 1.27-.7 1.21-.72 1.15-.71 1.08-.66 1.05-.61 1.06-.59 1.11-.61 1.15-.61 1.13-.54 1.05-.33 1.05-.14 1.53" filter="url(#a)"/><path d="m-22.88-76.34-2.29-.76-1.69-.34-1.16-.01-.96.1-1.03-.02-1.2-.19-1.33-.31-1.36-.31-1.36-.25-1.35-.16-1.37-.08-1.4.02-1.41.19-1.38.42-1.31.66-1.2.78-1.07.7-1.03.49-.71.14-1.05 1.09-.9.99-.84 1.1-.78 1.09-.72.98-.74.91-.72.94-.69 1.07-.59 1.2-.51 1.32-.49 1.39-.54 1.41-.62 1.38-.69 1.32-.7 1.21-.88 1.04 29.94-54.33-1.25 2.9-1.43 1.27-1.36.99-1.19 1.38-.91 1.98-.63 2.41-.48 2.51-.53 2.27-.71 1.79-.96 1.23-1.15.76-1.24.54-1.18.66-1.01 1.05-.82 1.55-.63 2.01-.54 2.27-.53 2.25-.58 2.01-.67 1.6-.76 1.17-.85.86-.81.83-.29 1.34" filter="url(#a)"/><path d="m-50.32-72.64.78-.7.85-.62.96-.51 1.06-.42 1.15-.38 1.23-.41 1.3-.45 1.33-.49 1.33-.47 1.28-.43 1.24-.38 1.18-.34 1.14-.32 1.11-.33 1.12-.41 1.12-.48 1.07-.44.81-.19-.12.05-2.55-19.31-1.75.8-.97.98-.66 1.19-.67 1.43-.78 1.48-.89 1.38-.91 1.29-.89 1.29-.85 1.35-.86 1.39-.91 1.41-.95 1.38-.97 1.38-.92 1.42-.81 1.46-.69 1.5-.6 1.45-.61 1.36-.68 1.24-.83 1.13-.99 1.09-.97.96-.1.18-33.94 11.48 1.64-.23 2.34.13 2.5.12 2.17-.25 1.73-.58 1.4-.8 1.21-.93 1.1-1 1.08-.98 1.1-.9 1.14-.81 1.17-.78 1.21-.79 1.31-.75 1.48-.61 1.69-.36 1.82-.13 1.79-.01 1.66-.11 1.53-.43 1.96-.65-3.33 3.77-1.25.19-2.33-.4-2.69-.62-2.36-.28-1.72.3-1.25.71-1.21.75-1.43.58-1.59.49-1.59.55-1.56.64-1.72.57-2.1.33-2.53.04-2.81-.14-2.91-.11-2.98.09-3.07.54-2.81 1.54-2.01 2.72M79.7-20.21l-1.28-1.2-.78-1.66-.35-1.74-.19-1.71-.25-1.58-.39-1.38-.55-1.23-.68-1.13-.73-1.08-.74-1.04-.73-1.02-.73-1-.75-1-.79-1.02-.82-1.07-.84-1.11-.83-1.15-.8-1.21-.77-1.25-.77-1.27-.8-1.15-.85-.9-1.27-.87" filter="url(#a)"/><path d="m-61.14-61.29-.64 1.17-.24 1.22-.35 1.23-.63 1.15-.75 1.07-.67 1.11-.47 1.23-.29 1.36-.25 1.41-.31 1.34-.43 1.23-.55 1.24-.67 1.48-.75 1.95-.56 2.41 7.56-20.6 1.42-.28 1.04-1.05.92-1.14.91-1.01.94-.88.96-.79.97-.76.96-.71.96-.63.96-.57.99-.57 1.05-.65 1.08-.7 1.07-.66 1.14-.85-16.43 12.58-.81.32-.96.66-1.01.93-.94 1.03-.94 1.01-1.03.93-1.17.83-1.26.78-1.25.85-1.14.97-1.01 1.14-.91 1.25-.9 1.29-.97 1.23-1.07 1.15-1.15 1.08-1.16 1.03-1.13.98-1.03.93-.95.94-.96 1.09-1.16 1.39-1.36 1.71-.67 1.9 24.58-24.78 1.32-.02 1.14-.62.77-1.18.72-1.32.78-1.24.88-1.08.97-.89 1.07-.7 1.16-.52 1.21-.4 1.2-.37 1.15-.41 1.09-.49 1.08-.52 1.11-.48 1.16-.34 1.18-.22 1.13-.21.98-.31.84-.44 1.44-.29" filter="url(#a)"/><path d="m-65.27-35.53-.64-2.26-.24-1.64.28-1.14.57-1.13.45-1.39.15-1.62-.08-1.69-.07-1.61.05-1.52.18-1.44.19-1.42.12-1.46.12-1.58.35-1.7.89-1.67" filter="url(#a)"/><path d="m-88.18-47.12 1.01-.83 1.39-1.12 1.78-.77 1.85-.63 1.66-.83 1.54-.98 1.58-.91 1.76-.65 1.91-.4 1.99-.26 1.95-.25 1.74-.33 1.36-.46 1.14-.65 1.31-.95-.99 1.73 1.17-1.3 1.37-.68 1.19-.52.89-.69.75-.89.81-.96.94-.93 1.05-.86 1.12-.75 1.19-.59 1.25-.45 1.26-.41 1.19-.49 1.03-.52.74-.18-.16.41m-17.65 12.61-.97 1.54-.87.84-1.16.74-1.61.72-2.07.57-2.5.31-2.7.12-2.53.23-1.95.61-1.26 1.03-.84 1.19-.92 1-1.46.62-2.31.42-3.56.55-4.86.83" filter="url(#a)"/><path d="m-68.37-50.01.97-2.17.13-1.97-.49-2.16-.48-2.17-.08-1.88.34-1.54.53-1.36.57-1.33.58-1.37.62-1.39.7-1.41.72-1.46.67-1.54.6-1.61.55-1.65.51-1.66.46-1.7.38-1.79.29-1.87.36-1.88.61-1.71.86-1.56.75-1.76.39-2.71-10.5 41.2-1.64.78-2.13.62-2.13.71-2 .61-1.67.69-1.29.91-1.11 1.11-1.11 1.11-1.07 1.04-.91.98-.79 1.03-1.05 1.09-1.75 1.11-2.48 1.01-2.72.81-2.68.27" filter="url(#a)"/><path d="m-69.1-48.77-.81 1.22-.97 1.55-.86 1.3-.77 1.12-.71 1.13-.67 1.19-.63 1.19-.58 1.14-.55 1.1-.55 1.12-.59 1.21-.61 1.3-.59 1.36-.52 1.35-.45 1.32-.43 1.37-.5 1.58-.59 1.9-.51 2.12 21.24-42.96-.96.89-.86 1.23-.68 1.24-.58 1.17-.55 1.1-.58 1.11-.62 1.15-.64 1.17-.63 1.19-.59 1.18-.55 1.22-.56 1.27-.57 1.22-.51 1.06-.47 1.19-.47.59.48-.82.42-1.03.32-1.29.25-1.48.21-1.58.16-1.64.07-1.74.01-1.82.03-1.83.1-1.75.23-1.63.39-1.54.57-1.44.74-1.34.95-1.18 1.09-1.04 1.16-.97 1.07-1.03.86-1.25.62-1.51.44-1.58.39-1.38.5-1.25 1.46-2.06" filter="url(#a)"/><path d="m-72.87-41.77-1.33-2.81-1.48-2.11.31-1.43 1.13-1.22.89-1.42.16-1.83-.58-2.28-1.01-2.59-1.03-2.63-.79-2.46-.63-2.43-.89-2.83-1.36-3.5-1.23-3.46-.24-1.99 8.08 34.99-.3 1.55-.17 1.43-.18 1.19-.21 1.05-.27 1.12-.36 1.27-.45 1.37-.5 1.37-.47 1.32-.39 1.31-.26 1.44-.13 1.65-.04 1.86v1.87l-.02 1.52.05.5" filter="url(#a)"/><path d="m-68.03-73.61-1.01 2.03-.79 1.45-.37 1.54-.05 1.76-.02 1.83-.2 1.74-.34 1.63-.37 1.58-.3 1.59-.16 1.68v1.77l.11 1.85.14 1.89.04 1.87-.17 1.75-.41 1.57-.57 1.36-.6 1.23-.58 1.26-.43 1.41.51 1.49-3.1 7.22 1.48-1.72 2.03-.81 1.83-.33 1.31-.41.77-.8.36-1.17.2-1.35.3-1.29.61-1.08 1.04-.85 1.52-.66 1.82-.54 1.71-.48 1.09-.43.78.25-17.42 13.99-1.96.42-2.25 1.05-1.7 1.53-1.49 1.52-1.31 1.33-1.03 1.13-.79 1.05-.65 1.06-.62 1.18-.75 1.32-1.07 1.41-1.56 1.35-2 1.2-2.08 1.1-1.84 1.08-1.7.94-1.19.15 27.34 12.59.12-1.8-.58-1.18-.66-1.07-.43-1.14-.21-1.27-.11-1.34-.09-1.34-.12-1.31-.16-1.28-.19-1.29-.22-1.32-.22-1.35-.18-1.34-.11-1.28-.03-1.2.02-1.14.01-1.16-.01-1.31.01-1.53.12-1.76.2-1.89.09-1.76-.6-1.35M98.65 7.11l-.87-1.79-1.16-1.54-.8-1.26-.5-1.26-.51-1.43-.8-1.61-1.13-1.75-1.34-1.82-1.36-1.82-1.26-1.75-1.1-1.65-.96-1.51-.81-1.39-.6-1.34-.34-1.32-.05-1.33.07-1.3-.18-1.17-.82-.95-1.58-.8-1.94-.91-1.51-1.28-.56-1.17m-.61-1.43-.33-2.6.1-1.46.35-1.41.49-1.6.44-1.66.26-1.58.05-1.46-.09-1.39-.19-1.4-.23-1.46-.31-1.53-.42-1.54-.52-1.55-.51-1.61-.34-1.78-.15-1.95-.1-1.87-.2-1.59-.04-2.11.88 27.55-.1-.16-.23-.8-.35-1.18-.4-1.28-.41-1.25-.4-1.19-.4-1.17-.42-1.2-.47-1.26-.53-1.31-.59-1.34-.63-1.36-.67-1.36-.69-1.37-.67-1.37-.64-1.33-.58-1.26-.56-1.22-.61-1.26-.72-1.52" filter="url(#a)"/><path d="m76.25-33.05.54 1.65.7 1 1.16 1.03 1.29 1.25L81-26.69l.68 1.53.41 1.51.32 1.4.42 1.27.57 1.16.69 1.11.69 1.13.58 1.18.45 1.24.34 1.33.33 1.41.44 1.52.63 1.66.83 1.78.91 1.87.82 1.9.61 1.91.36 2.08.32 2.47" filter="url(#a)"/><path d="m74.97-35.83-.96-.4-1.01-.59-.65-.98-.61-1.15-.78-1.15-1.02-1.04-1.25-.89-1.38-.79-1.35-.82-1.17-.9-.97-.94-.88-.87-.92-.76-.92-.86-.78-1.24 36.31 32.39-1.41-.5-.45-1.36-.89-1.33-1.64-1-2.12-.77-2.22-.73-2.06-.86-1.77-1.09-1.42-1.31-1.07-1.46-.79-1.51-.63-1.43-.62-1.27-.82-1.09-1.21-.99-1.46-1.03-1.08-1.28-.72-.56-.29-1.01-.44-1.14-.76-1.13-.99-1.09-1.08-1.07-1.05-1.09-.99-1.13-.91-1.15-.83-1.16-.78-1.13-.77-1.08-.81-.98-.88-.9-.94-.81-.97-.78-.97-.77-.96-.76-.96-.73-.93-.67-.87-.64-.82-.65-1.01-.64-1.56-.92 20.88 20.3 3.47-.64 2.75-.03.83 1.09-.18 1.64-.11 1.63.51 1.4 1.13 1.25 1.58 1.2 1.81 1.24 1.82 1.28 1.58 1.3 1.11 1.32.61 1.32.38 1.31.59 1.25 1.17 1.18 1.8 1.09 2.1 1.04 1.94 1.05 1.57 1.28 1.92 1.8" filter="url(#a)"/><path d="m73.98-38.59.74.83 1.68.39 2.84.02 3.13.08 2.54.43 1.62.89.79 1.28.3 1.58.15 1.76.29 1.81.55 1.74.77 1.59.83 1.45.7 1.31.55 1.25.59 1.21.93 1.21 1.51 1.16 2.16 1.02 2.58.77 1.83.97M71.31-44.66l1.95-4.89.79-2.72-.22-1.52-1.17-.76-1.39-.65-.91-1.07-.18-1.68.42-2.18.63-2.37.49-2.29.26-2.1.13-2 .26-2.15.55-2.54.87-3.05.99-3.26.98-2.89 2.56-3.15m-7.01 41.27.07.39.18 1.14-.09 1.67-.38 1.85-.47 1.78-.44 1.6-.33 1.44-.19 1.32-.06 1.28.06 1.27.13 1.24.09 1.17-.16 1.13-.76 1.52-1.49 2.95 1.24-26.57.34.46.58 1.34.66 1.51.64 1.42.61 1.36.55 1.36.48 1.38.4 1.34.33 1.28.29 1.22.29 1.17.32 1.19.33 1.25.3 1.29.17 1.22-.01.85-.15.25m-7.11-21.99-.86-.73-.67-1.11-.72-1-.86-.87-.98-.8-1-.78-.94-.8-.86-.83-.83-.82-.89-.79-.99-.72-1.11-.65-1.17-.61-1.2-.61-1.18-.62-1.16-.61-1.18-.57-1.26-.47-1.29-.34-1.15-.32-.96-.71" filter="url(#a)"/><path d="m67.73-51.58 2.61.04.41 1.33.67 1.4 1.21 1.16 1.42 1 1.38 1 1.3 1.04 1.24 1.06 1.21 1.03 1.22.97 1.2.94 1.13.96 1.03 1.04.96 1.13.94 1.18.96 1.2.98 1.26 1.01 1.38 1.25 1.5 1.68 1.53 1.85 1.61 1.09 2.75" filter="url(#a)"/><path d="m65.28-55.04 1.39-.45 1.3.35.61 1.17.38 1.42.48 1.37.71 1.25.96 1.16 1.2 1.06 1.36.99 1.43.97 1.37.99 1.2 1.06 1.02 1.13.87 1.15.84 1.12.9 1.07 1.04 1.04 1.13 1.03 1.13 1.07 1.03 1.07 1.02.99 1.42 1.06 2.19 2.32-45.55-61.73.86 1.42 1.23 1.79 1.09 1.61.97 1.35.83 1.31.66 1.46.5 1.65.43 1.77.48 1.75.6 1.62.75 1.45.87 1.29.93 1.18.98 1.11 1 1.04 1 1.03.89 1.13.67 1.36.42 1.61.34 1.68.53 1.47.78 1.11.74 1.18" filter="url(#a)"/><path d="m60.75-61.42-1.13-1.76-.3-1.8.36-2.5.8-3.13.79-3.19.28-2.58-.46-1.72-1.06-1.09-1.25-.95-1.1-1.23-.81-1.62-.56-1.88-.38-1.93-.25-1.99-.29-2.31-1.48-2.46 4.27 28.96 2 .17 1.95.2 1.06.79.72.99.89.84 1.21.61 1.4.51 1.38.57 1.2.73.97.93.82 1.09.77 1.15.83 1.15.9 1.14.92 1.2.87 1.34.84 1.42.94 1.28 1.33 1.12 1.9 1.9-25.02-21.84 2.6-4.51-1.06-.31-1.51-.27-1.33-.7-1.1-1.02-.92-1.25-.75-1.43-.63-1.54-.58-1.54-.6-1.5-.65-1.49-.64-1.6-.57-1.89-.39-2.33-.18-2.73-.03-2.92-.08-2.7-.35-2.16-.74-1.65-1.01-1.57-1-2.03-.92-2.39-1.49-2.39L55.68-67.7l-1.83-1.51-1.49-.83-1.23-.76-1.09-.87-1.04-.84-1.06-.69-1.08-.54-1.08-.49-1.06-.54-1.04-.62-1.04-.67-1.05-.67-1.06-.6-1.04-.49-1.01-.37-1.01-.3-1.08-.26-1.2-.32-1.28-.36-1.32-.32-1.71-.31" filter="url(#a)"/><path d="m51.97-71.01-1.7-.89-1.54-.64-1.13-.63-.91-.72-.85-.78-.9-.77-.99-.72-1.07-.64-1.11-.58-1.11-.52-1.08-.42-1.05-.3-1.1-.18-1.17-.14-1.26-.21-1.32-.31-1.37-.41-1.42-.42-1.39-.25-1.02.27 18.87 4.73-.39 1.25.39 1.04.58 1.23.73 1.3.8 1.26.81 1.21.79 1.19.73 1.2.66 1.24.6 1.29.49 1.38.33 1.51.17 1.64.03 1.73-.01 1.67.05 1.52.09 1.36.1 1.32.12 1.38.27 1.5.13 2.1" filter="url(#a)"/><path d="m59.18-59.84-1.17-1.65-.67-1.31-.68-1.19-.82-1.08-.9-1-.94-.94-.94-.96-.94-.99-.95-1-.96-1.02-.94-1.02-.87-1.03-.79-1.03-.75-1.01-.78-.96-.85-.9-.8-.8-.68-.66-1.27-.55.65 1.23.68.92.6 1.18.59 1.24.69 1.09.82.91.93.8 1 .8 1.01.86.95.98.84 1.11.76 1.19.7 1.23.68 1.23.67 1.21.64 1.24.56 1.29.45 1.4.33 1.54-.12 1.44" filter="url(#a)"/><path d="m24.59-115.36 1.74 3.05.65 1.38.72 1.38.89 1.76.92 2.11.82 2.42.67 2.62.53 2.69.48 2.57.52 2.27.66 1.89.85 1.53 1.02 1.26 1.14 1.1 1.2.97 1.2.81 1.14.59.96.43.58.73.18 1.97 1.02 2.89-3.21-2.21 1.08.64 1.67.53 1.86-.11 1.93-.57 1.85-.61 1.62-.24 1.33.25 1.12.64 1.12.79 1.26.72 1.47.52 1.6.39 1.58.43 1.45.6 1.31.8 1.24.89 1.28.88 1.4.77 1.54.62 1.7.48 1.95.3 2.08-.47-33.44-8.25 1.2.43 1.65.55 1.56.43 1.54.13 1.56-.08 1.57-.14 1.51-.06 1.44.12 1.36.35 1.27.61 1.2.84 1.15.96 1.18.97 1.32.82 1.53.55 1.78.25 1.92.11 1.87.17 1.67.44 1.43.73 1.31.9 1.44.74 2.18.08-56.34-11.19 1.73.21.76-.21.87-.25 1.13-.29 1.25-.23 1.24-.04 1.16.13 1.1.16 1.11.02 1.15-.16 1.22-.25 1.32-.19 1.39-.01 1.42.21 1.4.42 1.4.6 1.45.74 1.58.9" filter="url(#a)"/><path d="m40.25-80.68-1.67-.75-1.51-.64-1.39-.65-1.35-.58-1.33-.44-1.29-.27-1.23-.06-1.21.17-1.22.31-1.25.34-1.24.23-1.22.06-1.18-.02-1.15.05-1.13.3-1.13.64-1.16.83-1.18.75-1.19.37-1.2-.04-1.45.01-2.45 1m27.33-2.73 1.4-.31 1.78-2.12 1.92-1.61 1.59-.23 1.15.88.91 1.31 1.03 1.01 1.53.12L52-83.79l2.95-2.11 3.41-2.64 3.41-2.4 2.93-1.38 2.1-.02 1.43 1.12 1.66 1.46 3.78.19" filter="url(#a)"/><path d="m38.45-81.8 1.17.17 1.15-.83 1.61-1.03 1.68-.45 1.43.27 1.24.62 1.32.42 1.61-.12 2.01-.81 2.4-1.41 2.59-1.59 2.49-1.11 2.17-.21 2.09-.16 2.71-2.53" filter="url(#a)"/><path d="m35.16-83.6-.96-.02-1.41-.33-1.34-.2-1.18-.1-1.05-.13-1-.25-1.03-.34-1.09-.31-1.17-.13-1.24.14-1.26.4-1.22.55-1.15.58-1.13.51-1.14.41-1.23.42-1.39.54-1.61.65-1.86.41-1.73-.15 24.96-2.67 1.04-.34 1.14.74 1.07.78.93.65.88.58.93.57 1.06.58 1.16.54 1.22.5 1.22.46 1.17.46 1.12.52 1.06.61 1.02.72 1.05.82 1.09.87 1.15.88 1.18.89 1.39 1.06 1.94 1.52" filter="url(#a)"/><path d="m30.79-85.69 1.99.37 2.07-.5 2-.75 1.9-.69 1.71-.52 1.44-.23 1.21.15 1.07.52 1.09.69 1.24.63 1.42.38 1.55.14 1.57.05 1.49.11 1.39.26 1.38.35 1.52.38 1.81.27 1.98-.1 1-.22-33.45-2.35.6.24.78.35.85.4.99.47 1.14.57 1.23.64 1.24.71 1.19.72 1.1.71.99.67.91.62.89.61.95.67 1.04.75 1.06.8.99.79 1.06.84 1.76 1.3M26.02-87.8l-2.09-.6-1.3-.37-.95-.16-.94-.03-1.06.01-1.21-.06-1.32-.13-1.37-.19-1.37-.21-1.32-.19-1.25-.16-1.2-.1-1.18-.04-1.21.06-1.27.15-1.28.19-1.27.19-1.21.17-1.16.23-1.1.39-1.02.42 26.08.43-1.84-1.55-.8-2.54-.26-3.3-.16-3.67-.4-3.43-.78-2.64-1.18-1.51-1.53-.34-1.74.53-1.75.84-1.59.48-1.36-.43-1.19-1.62-1.16-2.85-1.29-3.94-1.59-4.56-1.92-3.53" filter="url(#a)"/><path d="m23.27-88.81 1.81.53 1.28.19 1.2.14 1.1.19 1.03.27 1.02.24 1.14.15 1.3.1 1.43.12 1.5.16 1.53.19 1.52.16 1.39.1 1.05.03.49.04.11.24-42.23 1.62.98-.59 1.06-.58 1.12-.64 1.19-.63 1.24-.45 1.23-.2 1.21.01 1.16.12 1.14.1 1.19-.04 1.29-.24 1.4-.41 1.47-.44 1.45-.34 1.36-.13 1.19.09.98.24.75.3.71.17 1.21-.81L51.88-104l-3.63 2.35-2.68 1.02-2.09.07-1.72-.57-1.59-.57h-1.66l-1.77.8-1.85 1.5-1.91 1.9-1.93 2.04-1.94 1.97-1.89 1.73-1.79 1.26-1.56.62-1.21.07-.6.03.68.63" filter="url(#a)"/><path d="m16.38-90.61-2.54-.56-1.41-.29-1.06-.17-1.07-.13-1.16-.1-1.25-.07-1.29-.04-1.29-.02L4.05-92l-1.22-.01H.49L-.65-92l-1.11.02-1.12.04-1.15.06-1.23.1-1.36.15-1.51.19-1.54.23-1.3.23-.7.19-.18.15m43.81 1.71-.68.44-.78-.05-.94-.28-1.09-.28-1.2-.21-1.27-.13-1.26-.13-1.17-.17-1.05-.2-.97-.22-.99-.18-1.08-.12-1.2-.07-1.32-.11-1.61-.24-2.5-.53 30.65-12.73-2.92.34-2.05.22-1.84 1.22-1.88 1.9-1.9 2.01-1.86 1.73-1.77 1.33-1.69 1.01-1.58.78-1.44.57-1.27.35-1.12.08-1.03-.23-1.04-.55-1.12-.63-1.35-.07-1.91 1.26-2.88 1.41" filter="url(#a)"/><path d="m9.36-91.81 2.08-1.25 1.28-1.11 1.33.14 1.41.8 1.42.8 1.38.45 1.34.03 1.3-.32 1.28-.49 1.27-.47 1.28-.32 1.31-.14 1.34-.05 1.4-.15 1.46-.38 1.53-.67 1.56-.83 1.58-.75 1.58-.43 1.58.01 1.57.45 1.57.63 1.79.29 2.31-.83-9.29-14.54-2.91 1.62-2.34 2.3-2.11 1.92-1.73 1.19-1.39.65-1.26.55-1.37.89-1.6 1.38-1.79 1.79-1.91 1.9-1.89 1.66-1.73 1.17-1.45.68-1.21.43-1.12.42-.74.4-1.43-.34-1.8-.01-1.37-.26-1.19-.61-1.16-.98-1.17-1.22-1.16-1.27-1.17-1.11-1.16-.79-1.17-.42-1.22-.06-1.31.17-1.45.27-1.59.23-1.61.05-1.44-.28-1.2-.63-1.26-.75-2.42-.64" filter="url(#a)"/><path d="m26.65-106.89-1.27 1.59-1.27 2.22-1.58 1.81-1.68 1.15-1.68.64-1.68.44-1.66.53-1.59.7-1.47.81-1.35.77-1.3.64-1.31.52-1.37.5-1.41.51-1.35.54-1.26.64-1.58.44" filter="url(#a)"/><path d="m1.09-92.43 1.07-.32 1.28-1.07 1.35-1.39 1.45-1.43 1.5-1.37 1.46-1.14 1.38-.71 1.32-.2 1.33.15 1.4.24 1.5.17 1.55.04 1.56-.04 1.49-.12 1.42-.29 1.38-.63 1.4-1.06 1.57-1.44 1.8-1.53 1.85-1.27.76-.54M-1.7-92.49l2.76.07 2.89.13 3.03.2 2.99.26 2.88.35 2.87.41 2.95.49 3.04.55 3.08.62 3.08.69 3.08.79 3.12.88 3.28.97 3.6 1.07 4.11 1.16 4.8 1.25 5.56 1.33 6.32 1.4 6.92 1.47 7.2 1.54 7.13 1.58 6.77 1.64 6.35 1.71 6.14 1.78 6.27 1.89 6.82 2 7.92 2.13 8.96 2.23 5.9 1.89" filter="url(#a)"/><path d="m-1.7-92.49 2.78.07 2.85.13 2.77.19 2.68.26 2.67.33 2.81.41 3.09.48 3.41.54 3.73.6 4.09.67 4.56.76 5.17.86 5.86.95 6.42 1.05 6.55 1.13 6.15 1.22 5.37 1.31 4.69 1.38 4.56 1.47 5.2 1.52 6.32 1.55 7.47 1.53 7.91 1.44 4.06 1.13" filter="url(#a)"/><path d="m-1.7-92.49 2.92.08 2.74.13 2.64.19 2.59.27 2.58.35 2.66.43 2.87.49 3.21.56 3.59.63 3.91.72 4.06.8 4 .9 3.8 1 3.6 1.09 3.56 1.18 3.79 1.26 4.25 1.35 4.81 1.42 5.31 1.49 5.61 1.56 5.62 1.61 5.41 1.69 5.11 1.75 4.88 1.83 4.85 1.91 5.06 1.99 5.35 2.04 5.46 2.07 5.21 2.08 4.69 2.07 4.52 2.06 5.25 2.07 6.73 2.23 7.4 2.67 6.18 3.86" filter="url(#a)"/><path d="m-1.7-92.49 2.94.08 3.08.13 3.01.19 2.88.27 2.88.36 3.02.42 3.23.5 3.36.56 3.43.63 3.49.72 3.58.81 3.68.9 3.72 1 3.64 1.09 3.45 1.18 3.2 1.27 3.04 1.35 3.11 1.42 3.46 1.49 4.13 1.56 5 1.62 5.89 1.69 6.6 1.76L89-69.65l6.67 1.91 6.06 1.98 5.36 2.04 4.97 2.07 5.05 2.08 5.49 2.08 5.96 2.08 6.23 2.13 6.26 2.25 6.1 2.47 5.44 2.57 2.74 1.7" filter="url(#a)"/><path d="m-2.16-92.73 1.99.21 2.15.09 2.31.12 2.42.21 2.47.33 2.52.43 2.5.52 2.44.6 2.34.64 2.23.7 2.14.76 2.05.82 2 .88 1.97.97 1.95 1.05 1.95 1.12 1.92 1.17 1.84 1.19 1.75 1.2 1.64 1.25 1.5 1.31 1.27 1.36.87 1.3" filter="url(#a)"/><path d="m-2.16-92.73 1.94.21 1.74.09 1.73.13 1.99.22 2.3.33 2.52.45 2.5.53 2.27.6 1.83.66 1.27.72.66.77.14.85-.19.91-.22.99.04 1.06.5 1.13.98 1.18 1.26 1.23 1.19 1.28.72 1.36-.05 1.47-.9 1.61-1.56 1.75-1.86 1.88-1.78 1.99-1.59 2.07-1.58 2.1-2.58 1.63" filter="url(#a)"/><path d="m-4.03-92.47 2.47.01 2.84.07 3.06.12 3.07.19 2.94.26 2.83.34 2.89.41 3.1.47 3.44.54 3.79.61 4.04.68 4.07.77 3.98.87 3.9.96 4.07 1.05 4.62 1.14 5.5 1.23 6.43 1.32 7.02 1.39 7.03 1.47 6.52 1.52 5.92 1.57 5.69 1.6 5.93 1.67 6.16 1.77 6.38 1.84 7.49 1.29" filter="url(#a)"/><path d="m-6.48-92.14 1.95-.27 2.03-.08 2.23.02 2.41.07 2.57.14 2.75.22 3 .32 3.29.42 3.59.5 3.83.59 3.96.64 3.97.7 3.91.76 3.8.82 3.74.89 3.74.97 3.84 1.05 3.99 1.12 4.17 1.17 4.32 1.2 4.53 1.23 4.88 1.28 5.47 1.37 6.29 1.53 7.17 1.84 7.96 2.63" filter="url(#a)"/><path d="m-11.71-91.65 1.79-.28 2.64-.25 2.78-.13 2.87-.04 3.03.04 3.21.12 3.28.19 3.22.26 3.06.33 2.91.41 2.87.47 3 .55 3.3.62 3.69.7 4.09.79 4.4.89 4.54.97 4.46 1.07 4.19 1.16 3.85 1.25 3.56 1.33 3.48 1.41 3.62 1.48 3.96 1.54 4.31 1.6 4.55 1.67 4.61 1.74 4.62 1.82 4.75 1.9 5.09 1.99 5.47 2.07 5.52 2.11 4.88 2.11 3.76 2.08 3.25 2.01 4.11 1.53" filter="url(#a)"/><path d="m-11.71-91.65 1.98-.28 2.62-.25 2.67-.14 2.69-.04 2.78.05 2.89.11 3.01.18 3.11.26 3.15.33 3.14.4 3.1.47 3.07.53 3.08.61 3.14.69 3.26.78 3.47.87 3.73.96 4.04 1.05 4.38 1.15 4.63 1.24 4.74 1.32 4.66 1.4 4.35 1.46 3.91 1.53 3.47 1.59 3.27 1.63 3.51 1.7 4.18 1.77 5.01 1.87 5.66 2 6.19 2.23 6.31 2.76" filter="url(#a)"/><path d="m-11.71-91.65 2-.28 2.66-.25 2.65-.14 2.58-.04 2.56.04 2.57.12 2.57.18 2.55.25 2.51.32 2.47.4 2.42.46 2.4.54 2.39.6 2.42.68 2.46.77 2.51.86 2.54.95 2.55 1.05L35.63-84l2.5 1.22 2.47 1.32 2.44 1.39 2.44 1.47 2.43 1.52 2.44 1.57 2.4 1.61 2.35 1.67 2.36 1.78 2.35 1.84 1.61 1.3" filter="url(#a)"/><path d="m-11.97-91.55 1.43-.16 2.56-.3 2.57-.24 2.53-.12 2.62-.03 2.74.06 2.93.14 3.22.23 3.54.33 3.84.42 3.98.5 3.95.58 3.77.65 3.6.72 3.54.78 3.64.84 3.88.92 4.16.99 4.38 1.06 4.5 1.12 4.46 1.18 4.34 1.25 4.18 1.31 4.11 1.39 4.16 1.5 4.41 1.62 4.84 1.75 5.44 1.87 6.05 1.97 6.36 2.02 6.04 2.02 5.18 1.95 5.09 1.84 7.52 1.73" filter="url(#a)"/><path d="m-11.97-91.55 1.47-.16 2.71-.3 2.65-.24 2.46-.12 2.36-.02 2.4.05 2.49.15 2.58.23 2.66.33 2.71.42 2.7.5 2.65.59 2.57.65 2.48.71 2.4.78 2.35.85 2.36.92 2.39.99 2.47 1.06 2.54 1.13 2.6 1.19 2.61 1.25 2.58 1.32 2.53 1.4 2.48 1.51 2.45 1.62 2.46 1.76 2.49 1.86 2.46 1.96 2.36 2 2.14 2.01 1.91 1.96 1.82 1.91 1.99 1.93 2.4 2.15" filter="url(#a)"/><path d="m-11.97-91.55 1.44-.16 2.68-.3 2.66-.24 2.54-.12 2.54-.03 2.63.05 2.79.13 2.98.23 3.16.31 3.31.41 3.35.5 3.29.57 3.14.64 2.98.7 2.89.76 2.92.83 3.09.89 3.33.98 3.64 1.04 3.95 1.12 4.25 1.17 4.53 1.21 4.77 1.25 4.84 1.31 4.67 1.41 4.18 1.57 3.64 1.8 3.55 2.01 4.15 1.82" filter="url(#a)"/><path d="m-11.97-91.55 1.31-.16 2.53-.3 2.63-.24 2.55-.12 2.48-.02 2.53.06 2.61.14 2.73.23 2.83.33 2.88.42 2.89.51 2.87.59 2.85.65 2.81.72 2.76.78 2.71.85 2.66.92 2.63 1 2.66 1.06L40.69-83l2.85 1.19 2.96 1.26 3.05 1.32 3.1 1.42 3.12 1.51 3.14 1.63 3.18 1.76 3.2 1.86 3.21 1.94 3.12 1.99 2.93 2 2.66 1.98 2.38 1.94 2.24 1.97 2.45 2.06 2.9 2.15" filter="url(#a)"/><path d="m-15.22-91.14 3.2-.41 2.97-.33 2.66-.25 2.37-.14 2.22-.06 2.21.02 2.2.1 2.15.16 2.02.24 1.84.3 1.68.38 1.59.44 1.59.51 1.61.57 1.61.64 1.54.72 1.42.81 1.22.92.97 1 .61 1.1.12 1.18-.39 1.26-.48 1.35.54 1.69" filter="url(#a)"/><path d="m-18.81-90.06 1.78-.41 2.35-.5 2.49-.45 2.54-.35 2.55-.26 2.56-.16 2.55-.06 2.53.02 2.53.09 2.5.18 2.45.24 2.4.32 2.34.39 2.27.46 2.2.53 2.16.61 2.13.69 2.1.77 2.1.86 2.1.96 2.1 1.05 2.1 1.14 2.1 1.23 2.09 1.32 2.09 1.4 2.05 1.46 2 1.53 1.92 1.59 1.82 1.64 1.71 1.7 1.59 1.77 1.51 1.88 1.5 2 1.66 2.23 2.08 2.77" filter="url(#a)"/><path d="m-20.73-89.74 1.92-.44 2.54-.51 2.56-.47 2.6-.4 2.66-.32 2.7-.24 2.73-.14 2.79-.05 2.86.04 2.99.13 3.16.22 3.4.3 3.71.4 4.06.49 4.41.56 4.71.64 4.91.7 5.03.76 5.07.84 5.05.9 5.03.98 5.02 1.05 5.02 1.11 5.03 1.17 5.02 1.23 4.94 1.28 4.87 1.35 4.96 1.46 5.36 1.6 6.13 1.75 7.15 1.89 8.15 1.99 8.62 2.18 8.06 2.87" filter="url(#a)"/><path d="m-20.96-89.34 1.73-.58 1.64-.52 2.04-.49 2.43-.44 2.63-.36 2.7-.26 2.71-.17 2.71-.09 2.71.01 2.73.07 2.75.16 2.77.22 2.81.3 2.84.36 2.88.44 2.93.5 2.97.56 3.01.64 3.06.72 3.09.82 3.12.91 3.13 1 3.14 1.1 3.15 1.18 3.25 1.27 3.53 1.36 4.27 1.69" filter="url(#a)"/><path d="m-20.96-89.34 1.63-.58 1.34-.52 1.75-.49 2.27-.44 2.65-.36 2.87-.26 2.98-.17 3.05-.08H.69l3.18.08 3.22.16 3.23.22 3.21.3 3.2.37 3.21.44 3.29.5 3.41.58 3.59.64 3.8.73 4.01.82 4.19.92 4.26 1.01 4.23 1.1 4.14 1.19 4.12 1.28 4.32 1.36 4.86 1.45 5.27 1.43" filter="url(#a)"/><path d="m-23.2-88.81 2.18-.73 2.27-.58 2.39-.52 2.46-.47 2.55-.41 2.61-.33 2.65-.24 2.66-.16 2.68-.07 2.77.01 2.96.1 3.26.18 3.68.28 4.22.37 4.87.46 5.53.54 6.11.61 6.44.66 6.38.72 5.88.77 5.04.83 4.36.88 4.67 1 6.25 1.21 6.22 1.36m2.3 64.43.51 3.07.99 2.77.83 2.98.5 3.09.27 3.06.17 2.94.23 2.82.51 2.72 1.03 2.66 1.75 2.63 2.47 2.64 2.96 2.66 3.06 2.68 2.71 2.7 2 2.69 1.07 2.67.11 2.65-.77 2.61-1.45 2.61-1.89 2.6-2.08 2.6-2.01 2.6-1.8 2.6-1.5 2.55-1.22 2.47-1.03 2.39-.94 2.28-.97 2.21-1.05 2.14-1.08 2.09-.99 2.04-.81 2.01-.85 2.08-1.47 2.28-2.49 2.26" filter="url(#a)"/><path d="m-24.65-88.38 1.54-.54 1.79-.6 2.12-.57 2.43-.52 2.62-.47 2.7-.4 2.72-.33 2.74-.25 2.76-.15 2.86-.07 3.01.01 3.21.11 3.41.19 3.59.28 3.75.38 3.9.46 4.1.55 4.4.61 4.8.68 5.24.73 5.6.8 5.73.86 5.61.95 5.4 1.03 5.4 1.14 5.74 1.19 6.2 1.18 6.6 1.15 6.94 1.59" filter="url(#a)"/><path d="m-27.1-87.29 3.17-1.14 2.37-.78 2.02-.62 2.02-.55 2.19-.49 2.39-.43 2.56-.35 2.67-.26 2.79-.18 2.87-.09H.9l3 .08 3.03.16 3.02.23 2.99.31 2.95.37 2.92.45 2.94.52 2.96.59 3.02.67 3.05.76 3.08.85 3.1.94 3.14 1.03 3.21 1.13 3.35 1.22 3.51 1.3 3.65 1.39 3.74 1.47 3.82 1.53 3.9 1.57 3.95 1.6 3.91 1.65 4.06 1.89 5.52 2.77" filter="url(#a)"/><path d="m-27.1-87.29 2.65-1.14 1.53-.77 1.66-.62 2.11-.55 2.38-.49 2.54-.43 2.66-.36 2.81-.27 2.96-.18 3.1-.09 3.19-.01 3.24.07 3.24.15 3.26.22 3.28.29 3.36.37 3.45.43 3.56.5 3.68.57 3.8.64 3.92.73 4.07.82 4.19.91 4.3 1.02 4.36 1.1 4.36 1.19 4.27 1.28 3.98 1.36 3.77 1.45 4.8 1.44" filter="url(#a)"/><path d="m-30.47-85.81 1.96-1.38 2.45-.91 2.28-.72 2.19-.63 2.26-.58 2.4-.52 2.56-.47 2.67-.4 2.73-.33 2.74-.24 2.72-.16 2.72-.07 2.76.02 2.85.11 2.99.19 3.15.29 3.29.38 3.38.47 3.41.55 3.33.62 3.19.68 3.03.75 2.9.82 2.88.89 3 .96 3.22 1.04 3.47 1.11 3.67 1.17 3.76 1.21 3.8 1.24 3.8 1.29 3.76 1.38 3.62 1.54 3.54 1.86 4.59 2.64" filter="url(#a)"/><path d="m-32.16-85.07 2.3-1.29 2.13-1.02 1.7-.89 1.37-.76 1.48-.66 1.98-.58 2.54-.51 2.94-.44 3.17-.37 3.25-.29 3.3-.21 3.39-.11 3.51-.04 3.66.05 3.82.12 3.92.19 4 .27 4.07.34 4.21.41 4.51.47 5.01.52 5.64.56 6.28.64 6.75.77 7.22.97" filter="url(#a)"/><path d="m-32.16-85.07-.99-1.29 2.59-1.03 3.04-.89 2.68-.76 2.43-.66 2.41-.57 2.54-.51 2.73-.44 2.92-.37 3.12-.29 3.29-.2 3.5-.11 3.68-.02 3.85.05 3.99.13 4.06.2 4.11.27 4.13.35 4.16.41 4.22.48 4.37.53 4.69.6 5.29.68 6.12.79 6.84.9 6.68.96 5.18.89" filter="url(#a)"/><path d="m-33.08-84.95 1.63-.56 1.69-.76 1.95-.85 2.06-.81 2.12-.74 2.18-.65 2.29-.6 2.39-.54 2.5-.48 2.56-.42 2.6-.36 2.57-.28 2.53-.19 2.47-.11 2.43-.03 2.42.05 2.47.13 2.55.23 2.68.32 2.84.45 3.02.54 3.04.61 2.62.53 1.11.23m56.02 70.43 12.93 2.58-1.96 2.61-2.32 2.88-.29 3.06 1.08 3.07 1.62 2.97 1.93 2.85 2.54 2.75 3.63 2.69 4.92 2.67 5.86 2.69 5.96 2.74 5.12 2.77 3.52 2.81 1.61 2.84-.17 2.84-1.52 2.83-2.17 2.8-2.08 2.73-1.25 2.63.07 2.5 1.48 2.36 2.53 2.26 2.91 2.22 2.63 2.26 2.03 2.41 1.6 2.58 1.33 2.68.29 2.56-1.9 2.46m-51.93-80.1.19 2.57-.09 2.59-.03 2.86.05 3.04.06 3.07-.01 2.96-.11 2.84-.24 2.73-.38 2.67-.54 2.65-.68 2.67-.81 2.71-.88 2.76-.92 2.8-.97 2.83-1.07 2.84-1.25 2.84-1.44 2.83-1.57 2.78-1.59 2.67-1.46 2.52-1.24 2.32-1.03 2.16-.97 2.02-1.07 1.75-.9.96" filter="url(#a)"/><path d="m-38.08-81.79 2.06-1.26 2.22-1.19 2.12-1.03 2.04-.92 2-.87 1.99-.81 2.05-.74 2.15-.67 2.28-.6 2.42-.54 2.53-.48 2.6-.41 2.62-.34 2.62-.26 2.6-.18 2.58-.09h2.58l2.62.09 2.68.17 2.76.27 2.85.36 2.92.45 2.95.53 2.95.6 2.91.67 2.84.74 2.77.79 2.75.86 2.77.95 2.87 1.04L41-83.53l2.98 1.2 2.77 1.18 2.45 1.17 3.15 1.59" filter="url(#a)"/><path d="m-38.08-81.79 2.38-1.25 2.36-1.19 2.58-1.02 2.76-.92 2.7-.87 2.46-.81 2.27-.73 2.22-.67 2.3-.61 2.39-.55 2.38-.48 2.3-.43 2.14-.35 1.98-.28 1.86-.2 1.76-.11 1.71-.02 1.67.06 1.65.14 1.62.24 1.57.33 1.49.44 1.35.53 1.17.59.96.63.83.7.92.84 1.2 1.03" filter="url(#a)"/><path d="m-40.86-80.19-3.08-1.62-.26-1.19 1-1.1 1.78-1.06 2.46-1.02 2.81-.95 2.81-.88 2.7-.79 2.72-.7 2.89-.62 3.1-.53 3.27-.47 3.37-.39 3.46-.31 3.56-.22 3.69-.14 3.87-.05 4.06.03 4.29.1 4.56.18 4.86.25 5.15.33 5.37.41 5.43.47 5.38.5 5.47.5 6.14.65" filter="url(#a)"/><path d="m-40.43-80.61 1.98-1.17 2.08-1.23 2.19-1.14 2.19-1.03 2.16-.94 2.13-.88 2.11-.81 2.12-.74 2.19-.68 2.28-.61 2.4-.55 2.48-.48 2.55-.43 2.56-.35 2.56-.27 2.51-.19 2.47-.11 2.44-.02 2.44.06 2.49.16 2.55.25 2.64.34 2.72.44 2.74.52 2.71.6 2.61.65 2.46.71 2.31.78 2.16.8 1.85.73 1.31.51" filter="url(#a)"/><path d="m-40.43-80.61-2.55-1.17-1.24-1.23 2.33-1.14 3.37-1.03 2.69-.95 1.67-.87 1.17-.81 1.4-.75 2.13-.67 2.94-.61 3.56-.55 3.85-.48 3.84-.42 3.69-.35 3.5-.27 3.39-.19 3.38-.11 3.47-.01 3.66.07 3.91.15 4.21.26 4.59.34 4.98.44 5.34.53 5.58.59 5.58.66 5.31.72 4.8.76 4.29.82 4.22.84 5.15.96 7.53 1.46" filter="url(#a)"/><path d="m-43.91-78 2.5-2.02 2.22-1.52 2.35-1.3 2.33-1.17 2.22-1.04 2.08-.96 2-.88 1.95-.82 1.98-.75 2.07-.69 2.2-.62 2.36-.57 2.51-.51 2.62-.45 2.68-.4 2.67-.32 2.6-.24 2.46-.14 2.34-.05 2.35.01 2.64.03 3.39.08" filter="url(#a)"/><path d="m-45.94-76.51 2.99-2.35 2.18-1.55 1.47-1.29.88-1.18.88-1.12 1.42-1.07 2.12-1.02 2.64-.96 2.85-.88 2.84-.79 2.71-.71 2.58-.63 2.51-.54 2.52-.47 2.61-.4 2.79-.31 3-.23 3.25-.14 3.49-.05 3.73.02 3.93.11 4.09.18 4.17.25 4.18.33 4.12.41 4.04.47 3.99.5 4.02.54 4.34.6 5.7.7" filter="url(#a)"/><path d="m-45.94-76.51 2.98-2.35 1.69-1.55.72-1.29.42-1.18.99-1.11 1.96-1.07 2.74-1.02 3.07-.96 3.03-.88 2.79-.8 2.55-.71 2.38-.63 2.37-.54 2.49-.48 2.7-.39 2.96-.32 3.19-.23 3.4-.14 3.55-.06 3.67.02 3.78.1 3.9.18 4.08.25 4.33.33 4.63.41 4.9.47 4.87.5 4.28.5 3.8.65m37.38 68.99.49 2.33.34 2.62.3 2.77.26 2.95.18 3.04.12 3.02.04 2.93-.02 2.81-.08 2.73-.13 2.66-.19 2.63-.25 2.63-.31 2.65-.39 2.68-.47 2.69-.55 2.69-.63 2.67-.71 2.64-.79 2.61-.87 2.59-.95 2.58-1.02 2.6-1.09 2.62-1.15 2.63-1.2 2.6-1.25 2.51-1.29 2.37-1.34 2.24-1.45 2.17-1.61 2.22-1.74 2.28-1.75 2.07" filter="url(#a)"/><path d="m-47.49-75.27.37-1.64.4-1.51 1.43-1.5 2.38-1.43 2.65-1.32 2.41-1.19 2.03-1.07 1.69-.99 1.44-.9 1.28-.83 1.31-.76 1.53-.7 1.97-.63 2.55-.57 3.1-.51 3.53-.45 3.75-.39 3.81-.31 3.74-.23 3.68-.14 3.72-.06 3.92.02 4.31.08 4.71.15 4.74.22 3.95.16" filter="url(#a)"/><path d="m-47.49-75.27-9.14-1.65.26-1.52 4.66-1.51 4.71-1.43 3.49-1.31 2.55-1.2 2.18-1.07 2.12-.99 2.1-.9 2.08-.83 2.13-.76 2.3-.69 2.59-.62 2.93-.56 3.24-.5 3.45-.44 3.55-.37 3.59-.29 3.62-.2 3.69-.13 3.83-.04 4.09.05 4.45.13 4.91.22 5.42.33 5.9.43 6.17.53 6.12.59 5.73.61 5.53.63 7.47.96" filter="url(#a)"/><path d="m-48.92-73.98 1.61-1.32 1.95-1.66 1.76-1.67 1.44-1.52 1.4-1.36 1.71-1.25 2.18-1.15 2.56-1.09 2.76-1.02 2.76-.96 2.64-.88 2.51-.8 2.4-.71 2.36-.63 2.39-.55 2.46-.47 2.57-.39 2.68-.31 2.77-.22 2.83-.13 2.87-.05 2.91.03 2.95.11 2.99.19 3.04.26 3.08.34 3.13.41 3.16.48 3.15.54 3.12.61 3.07.69 3.03.79 3.03.89 3.05.98 3.08 1.03 3.18 1.17" filter="url(#a)"/><path d="m-48.92-73.98 1.61-1.32 1.96-1.66 1.97-1.67 1.95-1.52 2.01-1.37 2.16-1.24 2.28-1.16L-32.6-85l2.42-1.03 2.42-.95 2.39-.88 2.36-.8 2.32-.72 2.33-.62 2.37-.55 2.44-.47 2.52-.39 2.6-.3 2.66-.22 2.7-.13 2.73-.05 2.73.04 2.72.11 2.71.19 2.68.27 2.67.34 2.64.41 2.62.48 2.62.55 2.63.61 2.63.7 2.66.8 2.67.9 2.7.99 2.73 1.1 2.88 1.26 3.22 1.56" filter="url(#a)"/><path d="m-48.92-73.98-10.72-1.3 3.32-1.64 4.99-1.66 3.41-1.51 1.97-1.36 1.29-1.24 1.21-1.14 1.45-1.09 1.78-1.03 2.07-.97 2.25-.89 2.34-.82 2.46-.73 2.69-.64 3.04-.57 3.45-.5 3.8-.42 4.04-.35 4.16-.27 4.24-.17 4.34-.07H3.2l4.79.08 5.12.13 6.32.15" filter="url(#a)"/><path d="m-50.32-72.64-.22-1.28 1.41-1.42.78-1.59.07-1.59.1-1.5.68-1.37 1.35-1.25 1.92-1.17 2.41-1.09 2.86-1.03 3.21-.97 3.37-.9 3.3-.81 3.07-.73 2.83-.64 2.72-.57 2.77-.49 2.98-.41 3.23-.34 3.44-.25 3.56-.16 3.67-.07 3.76.01 3.94.08 4.17.16 4.4.22 4.5.29 4.53.42 5.82.72" filter="url(#a)"/><path d="m-52.19-71.13.35-1.39 1.45-1.35 1.62-1.45 1.79-1.55 1.83-1.56 1.75-1.48 1.65-1.37 1.62-1.26 1.69-1.18 1.81-1.1 1.99-1.04 2.17-.98 2.33-.9 2.44-.83 2.48-.74 2.49-.66 2.52-.57 2.62-.51 2.81-.44 3.02-.36 3.24-.27 3.41-.18 3.59-.08h3.77l3.89.09 3.56.17" filter="url(#a)"/><path d="m-55.36-67.67-.39-1.92-2.61-1.6-.3-1.75 2.44-1.78 3.71-1.72 3.68-1.63 3.09-1.53 2.47-1.44 2.01-1.33 1.72-1.22 1.57-1.12 1.48-1.02 1.4-.93 1.36-.86 1.39-.78 1.55-.71 1.91-.65 2.46-.59 3.08-.53 3.66-.46 4.04-.41 4.2-.33 4.15-.25 3.99-.16 3.86-.06 3.99.01 4.6.03 6.09.08" filter="url(#a)"/><path d="m-56.43-66.73-.1-1.85-.2-1.86-.04-1.67.04-1.55-.16-1.53-.41-1.54-.44-1.53-.08-1.47.56-1.38 1.38-1.28 2.16-1.19 2.79-1.11 3.24-1.06 3.51-1 3.62-.92 3.59-.85 3.46-.76 3.26-.67 3.09-.59 3.04-.52 3.24-.47 3.74-.41 4.58-.34 4.58-.19M79.7-20.21l.4 1.82.54 2.28.84 2.6 1.64 2.85 2.5 3.01 2.82 3.03 2.45 2.97 1.68 2.86.93 2.78.39 2.73.07 2.71-.17 2.72-.35 2.76-.48 2.79-.52 2.83-.45 2.84-.29 2.84-.08 2.81.15 2.78.36 2.7.53 2.61.64 2.51.69 2.42.67 2.36.55 2.33.37 2.34.2 2.36.09 2.38.15 2.34.36 2.24.53 2.08.43 1.92-.19 1.85-1.3 1.92-2.54 2.11-3.56 2.25-3.9 1.87" filter="url(#a)"/><path d="m-58.29-64.55 1.17-1.99 1.48-1.93 1.96-1.82 2.02-1.69 1.92-1.58 1.86-1.54 1.88-1.54 1.93-1.53 1.98-1.47 2.02-1.38 2.02-1.29 2.04-1.2 2.09-1.12 2.16-1.07 2.28-1 2.36-.94 2.41-.87 2.34-.76 2.22-.67 2.13-.59 2.18-.54 2.29-.47 1.73-.33m-48.9 29.74-4.43 1.92-3.13 2-.92 2.19-.38 2.33-.65 2.41-1.03 2.46-1.34 2.49-1.65 2.53-1.97 2.57-2.29 2.6-2.56 2.62-2.7 2.67-2.72 2.71-2.6 2.74-2.35 2.76-1.99 2.74-1.52 2.72-1.05 2.68-.72 2.65-.66 2.64-.91 2.64-1.4 2.68-1.94 2.71-2.26 2.73-2.25 2.74-1.85 2.73-1.13 2.77-.34 2.78.28 2.58.46 2.34" filter="url(#a)"/><path d="m-62.95-58.8-2.34 2.7-2.9 2.44-3.38 2.46-3.55 2.46-3.61 2.47-3.51 2.51-3.12 2.56-2.44 2.58-1.65 2.61-.98 2.64-.61 2.69-.59 2.74-.85 2.76-1.21 2.74-1.54 2.71-1.76 2.66-1.9 2.61-2.02 2.59-2.14 2.6-2.27 2.66-2.47 2.73-2.89 2.75-3.49 2.63-3.6 2.32-.94 1.91" filter="url(#a)"/><path d="m-65.2-55.41-1.34 1.88-1.66 2.46-2.19 2.48-3.04 2.49-3.89 2.53-4.28 2.58-4.09 2.61-3.55 2.63-2.98 2.67-2.69 2.71-2.69 2.75-2.85 2.77-2.92 2.74-2.66 2.72-1.96 2.68-.98 2.65-.01 2.64.62 2.65.63 2.68-.01 2.71-1.09 2.72-2.33 2.74-3.35 2.73-3.96 2.72-4.19 2.72-4.19 2.72-3.98 2.77-3.13 3-1.25 3.31.64 3.05" filter="url(#a)"/><path d="m-65.2-55.41-2.05 1.88-2.83 2.46-2.12 2.48-1.62 2.49-1.7 2.53-2.03 2.58-2.32 2.61-2.46 2.63-2.49 2.67-2.41 2.71-2.23 2.75-1.97 2.77-1.63 2.74-1.28 2.72-1.02 2.68-.9 2.65-.96 2.64-1.15 2.65-1.34 2.68-1.4 2.71-1.23 2.72-.83 2.74-.42 2.73-.21 2.72-.44 2.72-1.05 2.72-1.69 2.77-1.76 3-.81 3.31.75 3.05" filter="url(#a)"/><path d="m-66.13-54.42-2.33 1.91-2.1 2.32-1.64 2.62-1.41 2.64-1.51 2.56-1.76 2.49-1.84 2.53-1.67 2.62-1.36 2.72-1.1 2.81-1.04 2.82-1.15 2.79-1.34 2.74-1.45 2.69-1.49 2.68-1.48 2.69-1.49 2.73-1.63 2.74-1.87 2.74-2.11 2.73-2.19 2.75-2.01 2.78-1.63 2.83-1.29 2.83-1.07 2.73-.53 2.51m39.56-67.19-1.31 2.32-1.5 2.77-1.5 2.75-1.41 2.57-1.33 2.48-1.3 2.53-1.3 2.63-1.26 2.75-1.2 2.81-1.14 2.84-1.08 2.8-1.03 2.75-.97 2.71-.86 2.7-.68 2.7-.49 2.73-.3 2.75-.21 2.76-.23 2.76-.31 2.76-.41 2.78-.43 2.78-.31 2.77-.08 2.74.17 2.71.33 2.72.33 2.82.14 3.11-.12 3.98" filter="url(#a)"/><path d="m-68.33-50.46-1.96 2.9-1.95 2.95-1.87 2.58-2 2.43-2.06 2.49-1.9 2.63-1.69 2.76-1.53 2.84-1.46 2.85-1.4 2.8-1.29 2.75-1.1 2.72-.86 2.7-.6 2.71-.39 2.73-.24 2.75-.16 2.76-.15 2.77-.13 2.77-.1 2.77-.07 2.78-.05 2.77-.12 2.75-.26 2.75-.38 2.77-.36 2.82-.14 2.89.14 2.9.36 2.78.87 2.89" filter="url(#a)"/><path d="m-69.57-48.18-1.96 3.85-1.59 2.54-1.89 2.3-2.02 2.43-1.89 2.64-1.71 2.79-1.58 2.86-1.43 2.86-1.14 2.81-.79 2.75-.48 2.72-.3 2.7-.3 2.71-.43 2.74-.6 2.75-.76 2.77-.85 2.77-.85 2.77-.8 2.78-.72 2.78-.65 2.77-.57 2.76-.44 2.76-.29 2.78-.13 2.8-.04 2.81-.03 2.76-.1 2.61-.14 2.37-.1 2.18v2.51" filter="url(#a)"/><path d="m-71.28-45.15-9.29 1.72-7.13 2.73-3.06 2.71-2.24 2.62-2.01 2.65-1.62 2.73-1.38 2.79-1.42 2.79-1.5 2.77-1.41 2.72-1.31 2.68-1.49 2.65-2.13 2.66-3.19 2.66-4.22 2.69-4.74 2.72-4.36 2.73-3.06 2.74-1.28 2.75.34 2.76 1.12 2.78.77 2.81-.54 2.86-2.19 2.91-3.5 2.93-4.06 2.91-3.87 2.87-3.32 2.78-2.66 2.7-1.85 2.65-.99 2.55-.91 2.41-2.51 2.89" filter="url(#a)"/><path d="m-72.22-42.77-5.16 1.38-6.79 1.91-8.13 2.3-7.97 2.6-5.36 2.79-1.84 2.87.44 2.87.51 2.79-1.23 2.71-3.47 2.64-5.04 2.64-5.32 2.67-4.43 2.71-2.99 2.73-1.76 2.72-1.28 2.71-1.69 2.72-2.54 2.77-3.02 2.81-2.7 2.82-2.6 2.7-5.22 2.49" filter="url(#a)"/><path d="m-71.5-44.76-2 3.98-1.54 2.93-1.14 2.57-.88 2.61-.82 2.73-.88 2.8-.97 2.8-1.03 2.77-1.01 2.72-.87 2.67-.68 2.65-.44 2.65-.25 2.66-.1 2.69-.05 2.71-.03 2.73-.03 2.74-.04 2.75-.01 2.75.02 2.78.08 2.81.14 2.86.22 2.9.29 2.93.37 2.92.48 2.85.58 2.78.71 2.7.8 2.64.83 2.56.79 2.4 1.15 2.89" filter="url(#a)"/><path d="m-73.53-40.03-2.81 2.67-2.76 2.24-3.69 2.53-4.63 2.74-5.25 2.84-4.81 2.84-3.23 2.78-1.26 2.73.19 2.68.61 2.65.19 2.66-.66 2.68-1.45 2.7-1.97 2.73-2.18 2.74-2.17 2.76-2.13 2.76-2.22 2.78-2.51 2.8-3.04 2.84-3.66 2.86-4.2 2.89-4.46 2.9-4.27 2.87-3.65 2.83-2.77 2.77-1.89 2.71-1.3 2.63-1.09 2.57-1.12 2.51-1.04 2.46-.55 2.41.4 2.37 1.48 2.37 2.49 2.45 3.55 2.63 4.41 2.79" filter="url(#a)"/><path d="m-76.7-32.11-2.15 2.43-1.72 2.81-2.67 2.86-3.17 2.76-2.95 2.64-2.2 2.59-1.23 2.57-.45 2.57-.1 2.61-.13 2.65-.38 2.69-.68 2.71-.96 2.7-1.25 2.7-1.57 2.69-1.82 2.69-1.93 2.71-1.7 2.78-1.17 2.93-.55 3.09-.49 3-2.65 2.56" filter="url(#a)"/><path d="m-76.7-32.11-1.19 2.48-1.7 2.85-1.47 2.9-1.14 2.78-1.19 2.69-1.67 2.63-2.33 2.62-2.74 2.63-2.62 2.66-1.99 2.7-1.08 2.72-.2 2.74.43 2.75.72 2.75.74 2.77.59 2.79.38 2.82.18 2.87v2.88l-.13 2.9-.3 2.88-.49 2.83-.75 2.76-.97 2.69-1.07 2.62-.89 2.56-.37 2.51.43 2.44 1.26 2.39 1.74 2.34 1.56 2.31.89 2.41.28 2.73" filter="url(#a)"/><path d="m-76.93-30.49-1.06 2.23-2.9 3.01-4 2.86-3.61 2.62-2.37 2.55-1.08 2.59-.15 2.68.31 2.73.41 2.75.36 2.74.26 2.73.18 2.74.03 2.75-.25 2.76-.62 2.74-1.06 2.72-1.44 2.71-1.64 2.73-1.63 2.8-1.43 2.87-1.18 2.87-.81 2.75-.02 2.86" filter="url(#a)"/><path d="m-77.27-29.79-2.42 2.99-1.29 3.04-1.35 2.82-1.23 2.67-1.15 2.62-1.3 2.61-1.6 2.63-1.93 2.67-2.18 2.71-2.29 2.74-2.23 2.75-1.97 2.75-1.58 2.77-1.14 2.77-.69 2.81-.28 2.83.11 2.87.41 2.89.6 2.88.56 2.87.27 2.81-.21 2.76-.75 2.69-1.12 2.62-1.13 2.56-.76 2.51-.09 2.46.64 2.42 1.21 2.4 1.46 2.38 1.35 2.39 1 2.37.7 2.29.88 2.11 1.68 1.9 1.29 1.72M76.9-30.34l7.03 3.24.19 2.86.93 2.7 2.61 2.57 3.42 2.57 3.47 2.65 3.09 2.79 2.47 2.9 1.7 2.94 1.02 2.91.71 2.85.94 2.77 1.61 2.71 2.47 2.67 3.23 2.68 3.64 2.71 3.57 2.76 3.02 2.8 2.15 2.82 1.2 2.84.61 2.87.63 2.87 1.2 2.88 1.9 2.79 2.38 2.58 2.93 2.12 3.34 1.13" filter="url(#a)"/><path d="m75.82-34.23 5.52 2.78 2.52 2.69 1.72 2.89 1.38 2.85 1.21 2.71.81 2.62.19 2.65-.31 2.73-.44 2.83-.19 2.9.27 2.92.71 2.89 1.04 2.83 1.15 2.75 1.1 2.69.9 2.64.63 2.63.35 2.64.11 2.67-.02 2.7v2.71l.12 2.68.26 2.64.3 2.6.16 2.55-.19 2.53-.65 2.51-1.09 2.51-1.48 2.46-2.02 1.91" filter="url(#a)"/><path d="m74.85-36.62 2.77 2.52.94 2.57.9 2.73 1.3 2.83 1.67 2.8 2.19 2.7 3.09 2.64 4.31 2.65 5.34 2.72 5.61 2.82 4.95 2.89 3.71 2.92 2.58 2.89 2.05 2.83 2.22 2.75 2.73 2.67 3.12 2.63 3.07 2.6 2.69 2.63 2.29 2.67 2.38 2.72 3.17 2.73 4.42 2.69 5.22 2.64 4.51 2.58 2.12 2.57-.57 2.53-2.92 2.35" filter="url(#a)"/><path d="m73.16-41.03 1.98 2.26 2.23 2.28 3.09 2.41 3.12 2.56 2.68 2.7 2.32 2.76 2.21 2.76 2.19 2.71 2.1 2.69 1.83 2.7 1.4 2.76.82 2.82.3 2.88-.06 2.91-.18 2.88-.02 2.83.29 2.77.67 2.7 1.01 2.66 1.24 2.65 1.35 2.65 1.31 2.68 1.17 2.71.93 2.71.72 2.69.68 2.65.86 2.6 1.2 2.57 1.4 2.54 1.15 2.52.54 2.52.46 2.46 2.46 1.92" filter="url(#a)"/><path d="m71.82-44.29 1.39 3.31 1.13 2.75 1.09 2.57 1.06 2.62.97 2.71.87 2.76.79 2.75.72 2.72.67 2.68.62 2.68.56 2.72.48 2.8.39 2.86.28 2.89.18 2.9.08 2.85.02 2.8-.02 2.74-.06 2.7-.11 2.7-.16 2.73-.27 2.76-.38 2.81-.49 2.83-.58 2.85-.66 2.88-.73 2.91-.83 2.93-.94 2.91-1.01 2.81-.97 2.68m-4.09-86.61 4.14 3.31 3.84 2.75 3.42 2.57 4.17 2.62 4.56 2.71 3.93 2.76 2.77 2.75 2.13 2.72 2.61 2.68 4.1 2.68 5.91 2.72 7.22 2.8 7.5 2.86 6.67 2.89 5.06 2.9 3.14 2.85 1.33 2.8-.13 2.74-1.02 2.7-1.26 2.7-.76 2.73.39 2.76 1.81 2.81 3.06 2.83 3.7 2.85 3.55 2.88 2.6 2.91 1.01 2.93-.61 2.91-.62 2.81 3.43 2.68" filter="url(#a)"/><path d="m71.38-44.7.73 3.1.01 2.56.36 2.43.63 2.45.51 2.56.13 2.67-.31 2.74-.75 2.73-1.15 2.7-1.53 2.68-1.82 2.7-1.94 2.74-1.87 2.81-1.72 2.88-1.63 2.9-1.66 2.89-1.78 2.84-1.85 2.76-1.69 2.69-1.31 2.64-.87 2.61-.7 2.63-1.08 2.68-1.97 2.73-3.04 2.75-3.75 2.71-3.8 2.63-3.57 2.59-3.59 2.62-3.12 2.69" filter="url(#a)"/><path d="m68.93-49.74 1.8 3.6 1.38 2.67 1.34 2.56 1.37 2.55 1.34 2.59 1.2 2.64 1.05 2.7.98 2.73 1.04 2.74 1.2 2.72 1.42 2.69 1.6 2.71 1.7 2.74 1.7 2.79 1.62 2.86 1.46 2.89 1.29 2.89L93.47.18l.77 2.81.42 2.75.08 2.71-.18 2.71-.29 2.74-.26 2.76-.15 2.81v2.84l.1 2.86.14 2.88.08 2.92-.07 2.93-.27 2.92-.57 2.82-1.09 2.68" filter="url(#a)"/><path d="m68.71-49.48 2.33 2.01 3.98 2.71 2.56 2.77.89 2.64.3 2.56.54 2.55 1.07 2.6 1.51 2.66 1.74 2.72 1.9 2.72 2.08 2.71 2.36 2.7 2.74 2.72 3.11 2.77 3.36 2.82 3.41 2.87 3.23 2.9 2.82 2.88 2.22 2.83 1.53 2.78.87 2.71.44 2.67.34 2.64.61 2.65 1.09 2.69 1.58 2.71 1.9 2.73 2.04 2.71 2.05 2.66 1.95 2.6 1.5 2.56.55 2.51-.56 2.4-1.24 2.24" filter="url(#a)"/><path d="m67.73-51.58 4.65 2.5 5.24 2.75 6.51 2.64 5.46 2.56 3.52 2.54 1.88 2.55.8 2.61.3 2.66.46 2.71 1.18 2.71 2.06 2.69 2.68 2.64 2.8 2.63 2.56 2.66 2.37 2.74 2.67 2.84 3.66 2.94 5.21 2.96 6.91 2.91 8.27 2.8 8.71 2.7 7.72 2.55 4.69 2.15-.34 1.37" filter="url(#a)"/><path d="m66.35-54.14 2.02 2.44 1.86 2.63 2.35 2.68 2.76 2.64 3.17 2.59 3.72 2.57L86.59-36l5.02 2.63 5.62 2.68 6.1 2.72 6.25 2.71 5.86 2.7 4.9 2.69 3.62 2.68 2.49 2.71 1.85 2.77 1.73 2.85 1.8 2.91 1.61 2.91 1.04 2.88.42 2.8.4 2.71L136.66 8l2.96 2.63 4.22 2.69 4.12 2.79 2.54 2.83.38 2.63-1.13 2.48" filter="url(#a)"/><path d="m66.35-54.14 6.18 2.43 3.92 2.62 3.11 2.67 2.86 2.62 2.93 2.59 2.99 2.56 3.1 2.57 3.47 2.62 4.18 2.67 5 2.7 5.55 2.72 5.51 2.69 4.78 2.66 3.48 2.65 1.88 2.68.34 2.75-.81 2.85-1.35 2.93-1.18 2.94-.4 2.91.72 2.8 1.82 2.69 2.63 2.55 3.04 2.41 3.14 2.43 4.01 3.39m-71.97-71 .9 1.4.96 2.08.69 2.44.18 2.57-.15 2.58-.23 2.57-.22 2.55-.3 2.56-.42 2.6-.41 2.65-.2 2.69.07 2.71.23 2.69.17 2.63-.11 2.6-.43 2.61-.66 2.7-.83 2.84-1.1 3.02-1.68 3.07-2.36 2.89-2.11 2.53.2 2.5" filter="url(#a)"/><path d="m64-57.2.05 2.29 1.29 2.41 1.56 2.44 1.45 2.53 1.28 2.6 1.12 2.62.98 2.6.86 2.57.76 2.58.67 2.6.63 2.65.58 2.68.52 2.7.44 2.7.33 2.68.2 2.69.04 2.74-.14 2.81-.33 2.87-.49 2.92-.61 2.91-.65 2.87-.65 2.79-.63 2.7-.68 2.59-.79 2.51-.98 2.49-1.09 2.67-.97 3.1-.75 3.48" filter="url(#a)"/><path d="m63.28-58.21 2.55 2.44 1.96 2.07 1.73 2.24 1.4 2.43 1.13 2.56 1 2.58 1.02 2.6 1.19 2.59 1.44 2.61 1.71 2.65 1.88 2.68 1.89 2.71 1.7 2.71 1.38 2.71.98 2.7.62 2.7.36 2.73.22 2.79.2 2.85.24 2.89.29 2.91.31 2.87.31 2.81.31 2.74.31 2.67.28 2.67.22 2.7.07 2.78-.11 2.84-.21 2.85-.11 2.98.13 3.71" filter="url(#a)"/><path d="m62.24-59.66 2.75 2.34 3.88 2.37 2.8 2.4 1.61 2.47 1.15 2.53 1.17 2.59 1.37 2.62 1.58 2.6 1.7 2.59 1.79 2.59 1.89 2.61 2.03 2.66 2.26 2.69 2.45 2.7 2.51 2.7 2.34 2.7 1.95 2.72 1.44 2.75.97 2.81.7 2.87.67 2.91.83 2.9 1.06 2.86 1.22 2.79 1.27 2.7 1.22 2.63 1.15 2.59 1.02 2.59.78 2.69.3 2.83-.31 2.87-.6 2.7.3 2.47" filter="url(#a)"/><path d="m62.26-60.01 4.95 2.03 4 2.1 2.25 2.11.77 2.25.3 2.41.52 2.51.9 2.56 1.3 2.57 1.66 2.58L81-36.3l2.61 2.63L86.83-31l3.84 2.7 4.32 2.71 4.54 2.69 4.5 2.68 4.31 2.66 4.12 2.68 3.94 2.76 3.68 2.85 3.13 2.94 2.28 2.97 1.41 2.92.95 2.83 1.16 2.72 1.85 2.56 2.67 2.17 5.67 1.39" filter="url(#a)"/><path d="m60.75-61.42 2.2 1.59 2.08 1.92 1.42 2.04 1.06 2.14 1.01 2.28 1.11 2.41 1.22 2.51 1.27 2.56 1.27 2.58 1.23 2.6 1.16 2.63 1.08 2.65.99 2.69.92 2.7.88 2.72.86 2.71.88 2.71.93 2.72.98 2.75 1.03 2.79 1.05 2.85 1.02 2.9.9 2.89.73 2.88.5 2.81.26 2.75.05 2.7-.1 2.69-.21 2.72-.3 2.78-.39 2.83-.44 2.84-.37 2.83-.09 2.72.39 1.87" filter="url(#a)"/><path d="m60.75-61.42 1.23 1.56 1.11 1.88.91 2.01.78 2.09.84 2.22 1.01 2.36 1.13 2.47 1.05 2.53.77 2.55.42 2.55.16 2.56.12 2.6.26 2.64.46 2.69.57 2.72.51 2.7.32 2.64.09 2.56-.11 2.5-.24 2.56-.25 2.76-.21 3.22-.43 4.24M58.71-64.42l7.01 1.26 5.16 1.71 2.73 1.94 3.05 2.11 4.83 2.23 5.93 2.33 5.43 2.41 3.78 2.49 1.97 2.54.78 2.56.5 2.57 1.05 2.55 2.2 2.55 3.65 2.57 5.1 2.63 6.19 2.68 6.67 2.71 6.54 2.68 6.07 2.62 5.65 2.56 5.44 2.56 5.29 2.66 5.02 2.9 4.59 3.14.43 2.86" filter="url(#a)"/><path d="m55.2-68.13 12.05 2.74 7.29 2-.01 1.91-1.26 2.01 1.05 2.12 4 2.25 5.86 2.34 6.24 2.43 5.59 2.49 4.59 2.55 3.75 2.58 3.16 2.58 2.75 2.58 2.45 2.59 2.35 2.61 2.6 2.65 3.21 2.67 3.97 2.7 4.47 2.69 4.36 2.67 3.54 2.68 2.24 2.72 1 2.79.45 2.89.94 2.98 2.37 2.97 4.14 2.91 5.43 2.81 5.77 2.84 5.26 3.06 4.54 3.04M55.68-67.7l.79 1.19.52 2.01-1.03 2.16-2.41 2.12-2.62 2.1-1.57 2.11.03 2.18 1.46 2.27 2.23 2.38 2.28 2.46 1.85 2.53 1.21 2.56.6 2.6.1 2.61-.31 2.65-.66 2.68-.97 2.7-1.22 2.71-1.39 2.71-1.45 2.7-1.38 2.7-1.19 2.73-.94 2.78-.63 2.86-.39 2.91-.28 2.94-.43 2.91-.94 2.83-1.75 2.72-2.66 2.63-3.28 2.56-3.4 2.66-3.48 3.1-4.21 3.68" filter="url(#a)"/><path d="m53.51-69.69 3.08 2 4.21 2.14 4.71 2 4.38 1.96 3.27 2.01 2.01 2.1 1.18 2.22 1.1 2.31 1.73 2.39 2.76 2.47 3.83 2.53L90.35-43l4.88 2.57 4.72 2.56 4.35 2.55 4 2.57 3.9 2.63 4.17 2.68 4.88 2.73 5.88 2.7 6.82 2.62 7.07 2.53 5.99 2.5 3.69 2.61 1.22 2.97.19 3.86" filter="url(#a)"/><path d="m53.51-69.69 9.12 2 7.47 2.14 2.76 1.99.48 1.95.1 2.01.48 2.1 1.06 2.21 1.63 2.3 2.04 2.39 2.26 2.47 2.39 2.53 2.65 2.56 3.24 2.56 4.14 2.55 5.05 2.54 5.59 2.56 5.43 2.62 4.55 2.69 3.33 2.74 2.3 2.71 2.02 2.62 2.6 2.49 3.48 2.41 3.96 2.38 5.1 2.53" filter="url(#a)"/><path d="m52.2-71.51 6.1 2.72 5.23 2.09 3.26 2.09 2.94 2.12 3.38 2.1 3.39 2.08 2.58 2.09 1.36 2.15.39 2.23.12 2.34.55 2.44 1.45 2.49 2.52 2.54 3.49 2.56 4.21 2.57 4.63 2.61 4.65 2.65 4.28 2.7 3.64 2.74 2.93 2.72 2.5 2.66 2.64 2.56 3.41 2.47 4.3 2.47 4.41 2.55 2.55 2.56" filter="url(#a)"/><path d="m48.27-74.5 2.88 2.68 2.37 2.1 2.52 2.02 2.76 2 2.78 1.99 2.57 1.99 2.28 2.04 2.01 2.11 1.79 2.2 1.63 2.3 1.51 2.39 1.45 2.46 1.45 2.52 1.49 2.56 1.57 2.56L81-38.02l1.77 2.55 1.85 2.58 1.84 2.62 1.72 2.7 1.42 2.74 1.09 2.72.87 2.62.87 2.5 1.05 2.42 1.17 2.39 1.56 2.54" filter="url(#a)"/><path d="m48.6-74.33 2.12 1.74 2.31 1.83 2.4 1.96 2.33 2.04 2.15 2.08 1.95 2.11 1.82 2.1 1.77 2.11 1.76 2.12 1.76 2.19 1.71 2.26 1.6 2.35 1.48 2.43 1.34 2.5 1.24 2.54 1.15 2.57 1.12 2.6 1.09 2.64 1.07 2.66 1.03 2.71.96 2.71.87 2.71.77 2.67.7 2.64.65 2.63.64 2.7.66 2.87.71 3.09.78 3.22.78 2.96.55 1.97" filter="url(#a)"/><path d="m47.13-75.72 3.71 1.78 3 2.1L56-69.77l1.84 2.05 1.63 2.03 1.48 2.01 1.43 2.02 1.48 2.08 1.58 2.15 1.66 2.23 1.71 2.33 1.75 2.41 1.79 2.47 1.85 2.53 1.93 2.57 2 2.58 2.04 2.59 2 2.6 1.9 2.62 1.73 2.66 1.51 2.68 1.32 2.7 1.15 2.69 1.01 2.69.89 2.69.77 2.73.68 2.81.64 2.89.65 2.98.72 2.99.76 2.91.71 2.83.54 2.85.48 3.06.38 3.06" filter="url(#a)"/><path d="m47.35-75.54 3.43 1.35 1.97 1.59 1.61 1.77 1.84 1.89 2.24 1.99 2.5 2.04 2.48 2.07 2.24 2.07 1.92 2.07 1.73 2.07 1.7 2.11 1.82 2.18 1.98 2.29 2.11 2.4 2.2 2.49 2.27 2.52 2.33 2.53 2.31 2.51 2.07 2.48 1.6 2.56 1.29 2.79 1.7 3.3" filter="url(#a)"/><path d="m47.35-75.54 2.19 1.37 3.94 1.62 4.41 1.79 3.97 1.92L65-66.83l2.39 2.07 1.98 2.09 1.9 2.09 2.02 2.1 2.2 2.12 2.28 2.17 2.29 2.25 2.28 2.34 2.33 2.42 2.51 2.49 2.79 2.53 3.05 2.57 3.16 2.58 3.02 2.62 2.6 2.66 2.12 2.71 1.87 2.74 2.15 2.73 3.02 2.67 4.15 2.57 4.78 2.49 4.19 2.48 2.37 2.56 1.54 2.57" filter="url(#a)"/><path d="m44.67-77.53 7.84 1.72 1.79 1.9 1.28 2.02 1.62 2.04 1.96 2.03 2.33 2.02 2.81 2 3.37 2.02 3.87 2.07 4.25 2.13 4.46 2.22 4.55 2.3 4.57 2.39 4.54 2.47 4.46 2.52 4.28 2.55 3.93 2.57 3.44 2.57 2.94 2.58 2.61 2.6 2.58 2.65 2.79 2.69 3 2.71 2.99 2.7 2.77 2.65 2.6 2.59 2.89 2.58 3.7 2.68 4.64 2.91 5.01 3.16 5.26 2.89" filter="url(#a)"/><path d="m44.56-77.66 3.48 1.78 2.49 1.61 1.85 1.66 1.66 1.77 1.77 1.89 1.99 1.98 2.21 2.04 2.33 2.06 2.35 2.08 2.29 2.07 2.27 2.09 2.29 2.13 2.32 2.2 2.31 2.3 2.15 2.4 1.85 2.49 1.55 2.52 1.4 2.54 1.53 2.52L86.54-35l2.27 2.59 2.36 2.7 1.96 2.78 1.4 2.41M44.56-77.66l-2.63 1.79.62 1.62 2.39 1.67 1.95 1.79.8 1.91-.02 1.99-.23 2.05-.05 2.08.29 2.09.64 2.09.95 2.12 1.16 2.16 1.26 2.24 1.26 2.32 1.16 2.42 1.02 2.48.89 2.53.71 2.56.46 2.57.08 2.6-.39 2.66-.87 2.71-1.28 2.77-1.6 2.78-1.83 2.7-1.85 2.53-1.6 2.33-.91 2.04" filter="url(#a)"/><path d="m43.75-78.39 2.36 1.15 2.51 1.57 2.36 1.83 2.17 1.97 2.22 2.02 2.49 2.03 2.81 2.02 3.03 2.03 3.03 2.04 2.86 2.09 2.62 2.16 2.38 2.24 2.2 2.32 2.12 2.4L81-48.05l2.1 2.52 2.11 2.56 2.12 2.58 2.11 2.6 2.07 2.6 1.98 2.63 1.8 2.66 1.58 2.68 1.31 2.7 1.07 2.7.86 2.69.75 2.7.7 2.74.74 2.8.83 2.9.97 2.98 1.08 2.99 1.1 2.92.91 2.84.55 2.85.18 3.07.54 3.06" filter="url(#a)"/><path d="m43.75-78.39 8.26 1.13 2.83 1.55 3.31 1.8 4.05 1.95 4.18 2 3.95 2.01 3.55 2.01 3.09 1.99 2.72 2.01 2.65 2.05 2.9 2.11 3.28 2.19 3.59 2.28 3.72 2.36 3.84 2.45 4.1 2.51 4.62 2.56 5.4 2.56 6.39 2.55 7.39 2.53 8.2 2.54 8.46 2.6 7.95 2.73 6.79 2.87 5.6 2.84 5.08 2.43 3.62 1.87" filter="url(#a)"/><path d="m40.25-80.68.82.64 2.05 1.24 2.32 1.43 2.4 1.61 2.54 1.75 2.77 1.88 3.01 1.95 3.21 1.98 3.33 1.98 3.31 1.98 3.16 1.99 2.93 2.01 2.7 2.06 2.59 2.15 2.62 2.23 2.69 2.32 2.66 2.42 2.43 2.51 2.12 2.61 1.88 2.64 1.88 2.54 2.21 2.32 2.68 2.21M38.45-81.8l1.03 1.08 1.95 1.48 2.24 1.58 2.18 1.6 2.01 1.63 1.87 1.7 1.8 1.77 1.76 1.87 1.73 1.94 1.66 2.02 1.57 2.05 1.43 2.06 1.29 2.08 1.17 2.08 1.09 2.13 1.07 2.19 1.11 2.29 1.16 2.39 1.16 2.49 1.11 2.55 1 2.54.89 2.51.81 2.44.66 2.44.28 2.55" filter="url(#a)"/><path d="m35.16-83.6 2.61 1.46 2.78 1.39 3.9 1.48 4.61 1.55 4.28 1.59 3.22 1.63 2.18 1.69 1.61 1.76L62-69.19l2.09 1.93 2.72 2.01 3.34 2.04 3.89 2.06 4.35 2.07 4.8 2.07 5.23 2.09 5.56 2.17 5.61 2.27 5.33 2.39 4.78 2.51 4.19 2.58 3.72 2.59 3.56 2.51 5.13 2.07" filter="url(#a)"/><path d="m32.77-84.97 2.56 1.4 2.81 1.41 2.95 1.44 2.78 1.51 2.46 1.57 2.16 1.62 1.96 1.67 1.86 1.73 1.85 1.81 1.87 1.9 1.92 1.96 1.97 2.02 2.03 2.07 2.11 2.09 2.21 2.12 2.34 2.16 2.45 2.2 2.49 2.27 2.42 2.35 2.23 2.42 1.92 2.48 1.56 2.53 1.24 2.58 1.04 2.61 1.03 2.64 1.17 2.67 1.42 2.72 1.66 2.73 1.81 2.72 1.81 2.68 1.67 2.64L96-15.63l1.24 2.68.95 2.86.56 3.2.18 3.56.18 3.43" filter="url(#a)"/><path d="m30.43-85.78 2.35 1 2.4 1.25 2.34 1.35 2.31 1.43 2.31 1.5 2.35 1.55 2.37 1.61 2.35 1.65 2.27 1.73 2.2 1.8 2.13 1.87 2.14 1.95 2.16 2.01 2.2 2.06 2.21 2.08 2.17 2.1 2.06 2.14 1.95 2.18 1.8 2.24 1.68 2.33 1.59 2.41 1.52 2.47 1.5 2.53 1.5 2.56 1.5 2.58 1.47 2.61 1.44 2.67 1.39 2.73 1.31 2.8 1.2 2.83L89.64-21l.95 2.58 1.55 2.53" filter="url(#a)"/><path d="m30.43-85.78 2.4 1 2.56 1.25 2.58 1.36 2.6 1.43 2.75 1.5 3.03 1.56 3.27 1.61 3.34 1.66 3.14 1.73 2.8 1.81 2.48 1.88 2.34 1.95 2.47 2.02 2.78 2.05 3.16 2.09 3.43 2.11 3.46 2.15 3.21 2.19 2.79 2.26 2.34 2.33 2.04 2.41 2.02 2.48 2.3 2.53 2.73 2.57 3.17 2.59 3.47 2.63 3.53 2.67 3.38 2.73 3.11 2.76 2.75 2.76 2.26 2.7 1.64 2.58 1.13 2.47 1.48 2.46 3.21 2.84" filter="url(#a)"/><path d="m29.95-86.08 1.71.86L34-83.94l2.14 1.29 1.7 1.24 1.3 1.23 1 1.3.77 1.41.58 1.54.48 1.68.51 1.81.7 1.89.92 1.95.94 1.97.59 1.97-.11 1.96-.92 1.96-1.5 2.02-1.67 2.1-1.39 2.22-.76 2.29.09 2.21.94 1.72" filter="url(#a)"/><path d="m28.61-86.93 1.68 1.04 1.95 1.1 1.61 1.21 1.01 1.31.52 1.39.31 1.46.3 1.52.26 1.57.12 1.61-.09 1.67-.3 1.75-.43 1.83-.45 1.91-.5 1.98-.6 2.04-.77 2.07-.95 2.05-1.12 2.03-1.49 2.02-2.14 2.04-2.48 2.2-1.81 2.65-2.63 3.82" filter="url(#a)"/><path d="m28.61-86.93 2.51 1.05 2.43 1.12 2.99 1.24 3.64 1.33 3.91 1.42 3.73 1.48 3.36 1.55 3.11 1.6 3.06 1.65 3.12 1.72 3.11 1.79 2.94 1.87 2.62 1.94 2.35 2 2.28 2.05 2.49 2.08 2.95 2.09 3.49 2.13 3.87 2.17 3.94 2.23 3.62 2.32 3.08 2.4 2.59 2.48 2.41 2.53 2.67 2.56 3.23 2.56 3.92 2.58 4.65 2.64 5.47 2.74 6.26 2.86 6.29 3.02 3.6 3.52M28.17-86.75l.45.68.55.96.53 1.18.34 1.24.29 1.23.54 1.25 1.03 1.31 1.64 1.41 2.12 1.54 2.31 1.68 2.11 1.8 1.58 1.89.8 1.95-.1 1.97-1.02 1.97-1.91 1.96-2.6 1.97-2.9 2.02-2.77 2.11-2.48 2.22-2.73 2.29-3.81 2.22-3.38 1.72" filter="url(#a)"/><path d="M25.6-88.09 28.89-87l3.51 1.07 3.33 1.13 2.84 1.22 2.48 1.31 2.41 1.39 2.64 1.46 3.03 1.51 3.53 1.57 4.17 1.63 4.88 1.68 5.49 1.75 5.78 1.83 5.76 1.92 5.61 1.99 5.68 2.03 6.15 2.07 6.88 2.06 7.42 2.05 7.29 2.05 6.32 2.1 4.68 2.23 2.92 2.45 1.92 2.55 2.92 1.66" filter="url(#a)"/><path d="M25.6-88.09 28.19-87l2.49 1.08 2.61 1.13 2.61 1.22 2.48 1.31 2.31 1.39 2.17 1.47 2.07 1.52 2.05 1.57 2.07 1.63L51.18-73l2.19 1.76 2.23 1.84 2.25 1.92 2.19 1.99 2.08 2.04 1.93 2.06 1.8 2.07 1.75 2.06 1.81 2.08 1.96 2.13 2.1 2.25 2.15 2.41 2.01 2.53 1.75 2.53 1.71 2.87" filter="url(#a)"/><path d="m26.02-87.8 2.04.89 2.5.86 3.01 1.02 3.09 1.16 2.92 1.22 2.68 1.25 2.44 1.29 2.29 1.36 2.27 1.47 2.39 1.59 2.56 1.71 2.71 1.81 2.78 1.9 2.78 1.95 2.73 1.99 2.7 2.01 2.7 2.03 2.77 2.07 2.9 2.12 3.02 2.19 3.11 2.27 3.1 2.35 2.96 2.44 2.75 2.52 2.55 2.57 2.45 2.58 2.48 2.57 2.51 2.52 2.34 2.49 1.9 2.54 1.6 2.76 2.06 3.29 3.11 3.92" filter="url(#a)"/><path d="m23.27-88.81 3.41.83 2.36.98 2.25 1.05 2.65 1.12 3.38 1.2 4.21 1.3 4.81 1.37 5.03 1.44 4.91 1.5 4.7 1.56 4.56 1.6 4.51 1.66 4.47 1.73 4.4 1.81 4.41 1.91 4.74 1.98 5.48 2.04 6.47 2.08 7.28 2.07 7.44 2.03 6.55 1.99 4.39 1.92 1.01 2.06" filter="url(#a)"/><path d="m22.25-89.24 3.04 1.21 2.3.99 2.08.94 2.12 1.02 2.2 1.13 2.19 1.19 2.13 1.22 2.04 1.25 1.99 1.32 1.97 1.41 1.99 1.54 2.03 1.66 2.05 1.78 2.04 1.88 2.02 1.95 1.93 1.97 1.84 1.97 1.71 1.96 1.62 1.96 1.55 2 1.53 2.11 1.57 2.25 1.6 2.44 1.55 2.61" filter="url(#a)"/><path d="m19.14-89.81 1.93.35 2.35.68 2.53.85 2.78.96 3.24 1.05 3.74 1.13 4.03 1.22 3.97 1.31 3.68 1.38 3.33 1.45 3.07 1.52 2.96 1.58 2.97 1.63 3.11 1.7 3.31 1.78 3.59 1.85 3.86 1.92 4.08 1.99 4.15 2.03 4.08 2.07 3.94 2.08 3.88 2.09 3.97 2.12 4.2 2.19 4.33 2.28 4.11 2.41 3.49 2.52 2.91 2.59 3.12 2.62 4.1 2.54 3.26 2.09" filter="url(#a)"/><path d="m18.32-90.06 2.38.66 1.67.66 1.97.79 2.04.87 2.03.95 2.01 1.02 2.01 1.1 1.96 1.17 1.85 1.2 1.69 1.25 1.55 1.31 1.44 1.4 1.39 1.52 1.35 1.64 1.29 1.77 1.19 1.88 1.1 1.94 1.07 1.99 1.16 1.97 1.31 1.94 1.32 1.92 1.05 1.93.46 2.04.17 2.12" filter="url(#a)"/><path d="m12.7-91.53 1.18.38 1.79.56 1.26.58 1.08.62 1.42.71 1.77.81 1.75.92 1.31 1.03.64 1.11.07 1.2-.23 1.29-.15 1.36.21 1.44.65 1.51.99 1.56 1.08 1.63.91 1.69.56 1.77.2 1.83-.05 1.92-.13 1.98-.1 2.04-.05 2.07-.12 2.07-.36 2.08-.74 2.1-1.2 2.15-1.74 2.26-2.42 2.42-3.31 2.54-4.19 2.55-5.65 2.89" filter="url(#a)"/><path d="m9.36-91.81 2.79.36 3.21.63 3.3.67 3.44.68 3.48.71 3.43.78 3.5.84 3.85.92 4.42 1 5.04 1.08 5.47 1.13 5.65 1.19 5.66 1.22 5.63 1.28 5.68 1.36 5.83 1.46 6.1 1.61 6.34 1.75 6.32 1.88 5.85 1.98 5.22 2.05 5.34 2.09 4.3 1.61" filter="url(#a)"/><path d="m9.47-91.99 3.22.39 3.22.47 2.9.53 2.35.56 2.06.61 2.13.69 2.42.78 2.75.89 3.02.99L36.78-85l3.46 1.16 3.71 1.25 3.99 1.33 4.28 1.41 4.57 1.47 4.83 1.53 5.11 1.57 5.37 1.62 5.56 1.69 5.58 1.76 5.44 1.86 5.16 1.98 4.87 2.21 4.52 2.74" filter="url(#a)"/><path d="m8.04-92.33 2.08.43 3.74.51 4.88.61 4.87.66 4.06.69 3.01.74 2.15.8 1.63.88 1.46.95 1.59 1.02 1.96 1.1 2.45 1.16 2.98 1.23 3.52 1.28 4.08 1.37 4.69 1.45 5.31 1.56 5.86 1.67 6.22 1.78 6.19 1.86 5.74 1.93 4.98 1.97 4.18 1.99 3.68 2.02 3.73 2.05 4.34 2.09 5.23 2.16 5.98 2.24 6.24 2.33 5.97 2.42 5.53 2.54 5.57 2.67 6.69 2.75 7.9 2.62 3.28 2.18" filter="url(#a)"/><path d="m5.85-92.12 3.51.22 2.8.35 2.91.45 3.59.51 4.19.56 4.28.62 3.76.7 2.95.8 2.2.9 1.81.99 1.9 1.09 2.38 1.17 3.08 1.26 3.84 1.35 4.5 1.41 5.03 1.48 5.41 1.54 5.7 1.6 5.93 1.65 6.1 1.73 6.12 1.8 5.87 1.9 5.28 1.99 4.46 2.07 3.71 2.11 3.7 2.1 5.47 2.14 9.75 2.59" filter="url(#a)"/><path d="m5.85-92.12 3.19.22 2.71.36 2.79.45 3.01.52 3.03.58 2.86.63 2.64.73 2.59.81 2.75.92 3.07 1.02 3.4 1.11 3.65 1.2 3.78 1.29 3.82 1.37 3.83 1.44 3.85 1.51 3.91 1.57 3.94 1.64 3.92 1.7 3.86 1.78 3.76 1.85 3.67 1.92 3.64 1.98 3.69 2.04L91-61.42l3.88 2.09 3.98 2.12 4.09 2.14 4.27 2.21 4.49 2.3 4.59 2.41 4.43 2.51 3.85 2.58 2.98 2.59 2.28 2.55 2.53 2.42 4.06 2.45" filter="url(#a)"/><path d="m4.16-92.48 3.11.25 2.67.38 2.95.5 3.14.58 3.05.64 2.83.69 2.62.74 2.46.79 2.39.87 2.36.94 2.35 1.02 2.33 1.09 2.32 1.15 2.29 1.21 2.28 1.28L45.58-79l2.26 1.44 2.23 1.54 2.2 1.66 2.15 1.76 2.15 1.87 2.16 1.92 2.22 1.98 2.3 1.98 2.37 2 2.42 2.02 2.44 2.06 2.39 2.14 2.29 2.22 2.17 2.3 2.11 2.31 2.15 2.34 2.63 2.76" filter="url(#a)"/><path d="m1.84-92.44 2.94.06 3.51.21 3.27.36 3.04.47 3.15.57 3.45.62 3.63.68 3.53.72 3.17.79 2.72.85 2.4.93 2.38 1 2.65 1.08 3.11 1.13 3.6 1.2 4.03 1.25 4.34 1.31 4.5 1.4 4.55 1.5 4.47 1.63 4.27 1.76 4.06 1.87 4 1.95 4.23 2 4.67 2 5.13 1.95 5.56 1.89 6.14 1.92 5.34 2.14" filter="url(#a)"/></g><path fill="none" stroke="#000" stroke-linejoin="round" stroke-width="3" d="M-9.86-.02Q10.1 2.1.12-5.716" filter="url(#a)"/><path fill="#D77F8C" stroke="#000" stroke-linejoin="round" stroke-width="3" d="m-15.01 40.3.36 1.47.36 1.45.35 1.44.36 1.42.35 1.4.36 1.38.35 1.37.35 1.34.35 1.32.35 1.31.35 1.28.35 1.26.35 1.24.35 1.21.35 1.19.34 1.17.35 1.15.35 1.12.34 1.09.35 1.07.34 1.05.35 1.02.34.99.35.96.34.94.34.91.35.88.34.85.35.82.34.79.35.76.34.73.34.7.35.66.34.63.35.6.34.57.35.53.35.5.34.46.35.43.35.39.34.36.35.32.35.28.35.24.35.21.35.16.36.13.35.09.35.05h.36l.35-.03.36-.08.36-.11.36-.16.36-.21.36-.24.36-.29.36-.34.37-.38.36-.42.37-.48.37-.51.37-.57.37-.61.37-.66.38-.71.37-.75.38-.81.38-.86.38-.9.38-.96.39-1.01.38-1.06.39-1.11.39-1.16.39-1.22.39-1.27.4-1.32.4-1.38.4-1.43.4-1.49.4-1.55.41-1.6.4-1.66.42-1.71.41-1.78.41-1.83.42-1.89.42-1.95.42-2.01.43-2.07.42-2.13.43-2.19.43-2.25.44-2.32.44-2.37.44-2.45-.37.58-.36.56-.37.55-.36.53-.37.52-.36.51-.37.5-.36.49-.37.47-.36.47-.37.45-.36.44-.37.43-.36.41-.37.41-.36.39-.37.38-.36.38-.37.36-.36.35-.37.33-.36.33-.37.32-.36.31-.37.29-.36.29-.37.28-.36.26-.37.26-.37.24-.36.24-.37.23-.36.21-.37.21-.36.2-.37.19-.36.17-.37.17-.36.17-.37.15-.36.14-.37.13-.36.13-.37.12-.36.1-.37.1-.36.1-.37.08-.36.07-.37.07-.36.06-.37.05-.36.05-.37.03-.36.03-.37.02-.36.02h-.73l-.37-.01-.36-.01-.37-.02-.36-.03-.37-.04-.36-.04-.37-.05-.36-.05-.37-.06-.36-.07-.37-.07-.36-.08-.37-.09-.36-.09-.37-.1-.36-.1-.37-.11-.36-.11-.37-.12-.36-.12-.37-.13-.36-.14-.37-.14-.36-.14-.37-.15-.36-.15-.37-.16-.36-.16-.37-.17-.36-.17-.37-.18-.36-.18-.37-.18-.36-.19-.37-.19-.36-.2-.37-.2-.36-.2-.37-.21-.36-.2" filter="url(#a)"/></svg>