<svg viewBox="-100 -100 200 200" xmlns="http://www.w3.org/2000/svg" width="500" height="500" id="face-svg">
    <defs>
      <clipPath id="leftEyeClipPath">
        <polyline points="26.86,-5.97 26.66,-6.29 26.44,-6.6 26.19,-6.91 25.92,-7.21 25.61,-7.51 25.28,-7.8 24.91,-8.09 24.52,-8.37 24.1,-8.65 23.65,-8.92 23.17,-9.18 22.66,-9.44 22.12,-9.7 21.56,-9.95 20.96,-10.2 20.46,-10.46 19.91,-10.72 19.3,-10.98 18.64,-11.23 17.94,-11.49 17.18,-11.74 16.38,-11.98 15.53,-12.22 14.65,-12.46 13.72,-12.69 12.75,-12.91 11.76,-13.13 10.73,-13.34 9.67,-13.54 8.59,-13.73 7.48,-13.91 6.36,-14.08 5.22,-14.24 4.07,-14.39 2.9,-14.52 1.74,-14.65 0.57,-14.76 -0.61,-14.86 -1.77,-14.95 -2.94,-15.02 -4.09,-15.08 -5.24,-15.13 -6.37,-15.16 -7.49,-15.18 -8.59,-15.19 -9.67,-15.18 -10.73,-15.16 -11.77,-15.13 -12.78,-15.08 -13.77,-15.02 -14.73,-14.95 -15.66,-14.87 -16.57,-14.78 -17.44,-14.68 -18.29,-14.57 -19.1,-14.44 -19.89,-14.31 -20.65,-14.18 -21.37,-14.03 -22.07,-13.88 -22.74,-13.72 -23.38,-13.56 -24,-13.39 -24.58,-13.22 -25.15,-13.04 -25.69,-12.87 -26.21,-12.69 -26.71,-12.5 -27.18,-12.31 -27.63,-12.12 -28.05,-11.93 -28.46,-11.73 -28.84,-11.53 -29.21,-11.33 -29.55,-11.13 -29.88,-10.93 -30.18,-10.72 -30.47,-10.52 -30.74,-10.31 -24.83,-4.45 -24.37,-3.94 -23.9,-3.43 -23.41,-2.92 -22.91,-2.41 -22.39,-1.89 -21.86,-1.37 -21.31,-0.85 -20.75,-0.32 -20.17,0.21 -19.58,0.74 -18.97,1.27 -18.35,1.8 -17.72,2.34 -17.07,2.87 -16.41,3.41 -15.73,3.95 -15.03,4.49 -14.32,5.04 -13.6,5.59 -12.86,6.13 -12.1,6.68 -11.34,7.23 -10.56,7.77 -9.76,8.31 -8.96,8.84 -8.15,9.37 -7.32,9.89 -6.49,10.41 -5.65,10.91 -4.8,11.4 -3.95,11.88 -3.1,12.34 -2.24,12.79 -1.37,13.21 -0.51,13.62 0.36,14.01 1.22,14.37 2.08,14.71 2.94,15.02 3.79,15.3 4.64,15.55 5.48,15.77 6.32,15.96 7.15,16.11 7.96,16.22 8.77,16.3 9.56,16.34 10.35,16.33 11.11,16.29 11.87,16.2 12.61,16.07 13.33,15.89 14.04,15.67 14.73,15.4 15.4,15.09 16.05,14.73 16.68,14.33 17.3,13.88 17.89,13.38 18.47,12.85 19.02,12.27 19.55,11.65 20.07,10.99 20.56,10.3 21.03,9.86 21.5,9.4 21.95,8.93 22.38,8.43 22.8,7.93 23.21,7.41 23.6,6.88 23.98,6.33 24.34,5.79 24.69,5.23 25.02,4.67 25.34,4.11 25.64,3.55 25.93,3 26.2,2.45" />
      </clipPath>
      <clipPath id="rightEyeClipPath">
        <polyline points="-27.67,-6.83 -27.46,-7.07 -27.22,-7.32 -26.96,-7.56 -26.67,-7.81 -26.35,-8.05 -26.01,-8.3 -25.64,-8.54 -25.25,-8.78 -24.82,-9.03 -24.37,-9.27 -23.89,-9.5 -23.39,-9.74 -22.86,-9.97 -22.3,-10.21 -21.71,-10.43 -21.22,-10.69 -20.67,-10.95 -20.07,-11.21 -19.43,-11.46 -18.74,-11.72 -18,-11.97 -17.21,-12.21 -16.38,-12.45 -15.51,-12.68 -14.6,-12.91 -13.66,-13.12 -12.68,-13.33 -11.67,-13.54 -10.64,-13.73 -9.58,-13.91 -8.49,-14.08 -7.39,-14.23 -6.27,-14.38 -5.14,-14.51 -4,-14.63 -2.85,-14.74 -1.7,-14.83 -0.54,-14.91 0.61,-14.98 1.76,-15.03 2.9,-15.06 4.04,-15.08 5.16,-15.09 6.27,-15.08 7.36,-15.06 8.44,-15.03 9.49,-14.98 10.52,-14.91 11.54,-14.84 12.52,-14.75 13.48,-14.65 14.42,-14.53 15.33,-14.41 16.21,-14.27 17.06,-14.13 17.88,-13.97 18.68,-13.81 19.44,-13.63 20.18,-13.45 20.89,-13.27 21.57,-13.07 22.22,-12.87 22.85,-12.67 23.45,-12.47 24.03,-12.26 24.59,-12.05 25.12,-11.83 25.63,-11.61 26.12,-11.39 26.58,-11.16 27.03,-10.93 27.45,-10.7 27.85,-10.46 28.23,-10.23 28.59,-9.99 28.94,-9.75 29.26,-9.51 29.56,-9.27 29.85,-9.03 25.88,-1.53 25.47,-1.06 25.03,-0.58 24.58,-0.1 24.12,0.38 23.63,0.86 23.14,1.34 22.62,1.83 22.09,2.32 21.55,2.8 20.99,3.29 20.41,3.78 19.82,4.27 19.21,4.75 18.59,5.24 17.95,5.72 17.29,6.2 16.62,6.69 15.93,7.17 15.22,7.66 14.49,8.13 13.75,8.61 12.99,9.08 12.21,9.54 11.42,10 10.61,10.45 9.79,10.88 8.95,11.31 8.1,11.72 7.24,12.12 6.37,12.5 5.49,12.87 4.6,13.22 3.71,13.54 2.81,13.85 1.9,14.13 0.99,14.4 0.07,14.63 -0.85,14.84 -1.76,15.03 -2.68,15.18 -3.59,15.31 -4.5,15.4 -5.4,15.47 -6.29,15.5 -7.18,15.5 -8.06,15.46 -8.93,15.39 -9.78,15.29 -10.62,15.15 -11.44,14.98 -12.25,14.77 -13.04,14.53 -13.81,14.25 -14.56,13.93 -15.29,13.58 -16,13.2 -16.69,12.78 -17.35,12.33 -17.99,11.85 -18.6,11.34 -19.19,10.8 -19.75,10.24 -20.28,9.65 -20.79,9.03 -21.3,8.61 -21.8,8.17 -22.28,7.72 -22.74,7.27 -23.19,6.8 -23.62,6.32 -24.03,5.84 -24.42,5.36 -24.8,4.87 -25.17,4.38 -25.51,3.89 -25.84,3.4 -26.15,2.92 -26.44,2.44 -26.72,1.96" />
      </clipPath>
      <filter id="fuzzy">
        <feTurbulence id="turbulence" baseFrequency="0.05" numOctaves="3" type="noise" result="noise" />
        <feDisplacementMap in="SourceGraphic" in2="noise" scale="2" />
      </filter>
      <linearGradient id="rainbowGradient" x1="0%" y1="0%" x2="100%" y2="0%">
        <stop offset="0%" style="stop-color: rgb(41, 193, 70); stop-opacity: 1" />
        <stop offset="50%" style="stop-color: rgb(180, 166, 235); stop-opacity: 1" />
        <stop offset="100%" style="stop-color: rgb(66, 153, 174); stop-opacity: 1" />
      </linearGradient>
    </defs>
    <rect x="-100" y="-100" width="100%" height="100%" fill="rgb(169, 242, 166)" />
    <polyline id="faceContour" points="66.95,0.81 66.89,0.73 66.71,2.01 66.85,2.43 66.74,5.61 66.68,5.88 66.42,8.2 66.53,7.99 66.32,8.72 66.02,11.31 66.03,12.7 65.84,13.14 65.68,15.28 65.57,15.95 65.18,16.98 64.54,20 64.88,19.23 64.5,20.49 63.8,23.55 64.49,21.33 63.5,25.11 63.22,25.41 62.96,27.2 62.71,26.73 61.98,30.04 61.43,31.08 61.7,30.48 60.17,34.46 60.26,34.3 60.02,34.52 59.06,37.35 59.84,35.17 58.72,38.21 57.84,39.82 57.68,39.76 57.69,40.25 56.19,43.07 55.3,44.64 54.78,45.43 54.51,45.93 54.47,46.03 53.83,46.84 53.71,46.96 52.73,48.69 51.86,49.93 51.11,51.25 50.08,52.42 49.82,52.79 47.8,55.14 48.32,54.58 47.54,55.43 47.03,56.43 46.47,57.01 44.77,58.85 44.56,58.98 43.24,60.46 41.86,61.94 41.62,62.01 41.23,62.43 38.93,64.28 40.12,63.38 38.48,64.85 36.25,66.35 36.41,66.21 35.49,66.96 33.72,68.28 34.48,67.83 33.83,68.24 32.75,68.95 30.82,70.07 30.57,70.32 29.29,71.44 29.17,71.4 27.38,72.2 25.89,72.82 25.95,73 24.86,73.78 22.52,74.52 21.28,74.83 22.25,74.81 19.52,75.94 18.42,76.11 18.99,76.12 17.25,76.42 15.07,77.28 15.54,77.2 13.87,77.44 13.51,77.65 13.93,77.35 11.98,77.7 11.22,78 10.11,78.33 8.82,78.26 7.76,78.64 6.18,78.99 3.84,79.08 4.69,78.93 1.85,79.17 0.89,79.2 2.27,79.12 -0.3,79.08 -2.08,79.1 -3.4,79.17 -3.68,79 -4.35,78.96 -6.02,78.72 -5.91,78.89 -7.64,78.45 -8.71,78.59 -11.15,77.9 -10.73,77.95 -10.4,78.17 -12.68,77.68 -13.08,77.51 -13.93,77.51 -16.52,76.55 -16.37,76.73 -17.98,76.09 -19.87,75.38 -20.25,75.25 -20.64,75.25 -20.84,75.44 -22.92,74.22 -24.1,73.58 -23.77,73.71 -26.49,72.96 -26.89,72.64 -27.57,72.1 -27.82,71.75 -28.9,71.15 -30.16,70.53 -32.11,69.2 -31.07,70.24 -33.8,68.3 -34.12,67.9 -34.18,67.98 -36.63,66.3 -36.65,66.33 -37.9,64.97 -37.41,65.31 -38.2,64.95 -39.59,63.78 -41.01,62.63 -41.76,61.81 -43.16,60.34 -43.02,60.63 -43.36,60.03 -45.11,58.47 -45.93,57.51 -45.45,58.06 -47.41,56.04 -48.54,54.6 -47.98,54.91 -49.36,53.43 -50.19,52.15 -51.14,50.86 -50.77,51.46 -51.92,49.56 -53.06,48.15 -54.22,46.26 -54.63,45.57 -54.81,45.67 -55.19,44.33 -56.6,42.01 -55.39,43.86 -57.46,40.48 -57.46,40.37 -58.02,39.26 -58.62,37.51 -59.73,35.38 -59.38,36.16 -59.47,36.16 -60.49,33.35 -60.91,32 -60.71,33.06 -62.23,29.3 -62.38,27.83 -63.06,25.7 -62.48,27.62 -62.94,26.1 -63.45,24.17 -63.77,23.76 -63.91,22.84 -64.84,19.2 -64.92,18.2 -64.76,18.58 -65.02,17.71 -65.47,16.04 -65.45,14.93 -66,12.45 -66.15,11.7 -65.92,12.19 -66.5,8.56 -66.47,7.3 -66.29,9.52 -66.6,6.98 -66.67,6.47 -66.67,3.31 -66.75,1.21 -66.71,0.75 -66.65,-0.97 -66.8,-0.99 -66.64,-1.28 -66.82,-3.61 -66.54,-4.95 -66.62,-5.42 -66.65,-6.51 -66.53,-8.04 -66.46,-8.86 -66.08,-12.39 -66,-12.3 -65.86,-14.1 -65.57,-14.73 -65.36,-16.45 -65.24,-16.47 -65.31,-16.53 -64.65,-19.97 -64.38,-21.05 -64.38,-21.21 -63.5,-24.95 -63.41,-24.32 -63.61,-24.35 -62.79,-26.53 -62.62,-27.6 -61.71,-29.87 -61.59,-30.56 -61.41,-31.27 -60.92,-32.6 -60.34,-33.72 -60.55,-33.52 -59.99,-34.34 -58.24,-38.51 -57.92,-38.88 -58.51,-38.45 -57.21,-40.8 -57.27,-40.65 -56.43,-42.25 -55.35,-43.96 -55.55,-44.18 -54.36,-45.62 -54.69,-45.11 -54.11,-46.09 -52.35,-49.16 -52.74,-48.58 -51.41,-50.37 -49.93,-52.51 -50.87,-51.08 -50.21,-52.3 -49.25,-53.45 -48.26,-54.35 -47.25,-55.6 -46.83,-56.36 -45.47,-57.67 -45.14,-58.43 -44.1,-59.29 -42.64,-60.91 -41.72,-61.78 -41.94,-61.5 -40.52,-62.81 -39.64,-63.54 -38.65,-64.41 -38.02,-65.29 -38.84,-64.31 -36.21,-66.38 -35.48,-66.78 -36.31,-66.53 -34.72,-67.53 -33.61,-68.49 -31.19,-69.85 -30.41,-70.26 -30.99,-70.24 -29.52,-71.08 -27.59,-72.08 -27.13,-72.38 -25.52,-73.19 -25.36,-73.16 -25.14,-73.11 -24.25,-73.61 -22.47,-74.6 -21.38,-74.83 -19.34,-75.79 -20.05,-75.25 -19.73,-75.66 -17.91,-76.4 -17.22,-76.38 -14.98,-77.23 -13.67,-77.41 -13.42,-77.48 -12.76,-77.66 -10.97,-77.93 -10.47,-78.17 -10.7,-78.2 -9.64,-78.52 -6.11,-78.6 -7.09,-78.73 -5,-78.88 -4.61,-78.95 -2.67,-79.25 -1.3,-79.03 -1.41,-79.09 0.72,-79.02 2.44,-78.96 2.27,-78.98 3.27,-78.99 3.82,-79.1 4.99,-78.71 4.77,-79.11 8.39,-78.47 9.83,-78.36 10.23,-78.11 11.22,-77.92 11.67,-77.85 13,-77.61 12.99,-77.47 13.95,-77.51 16.11,-76.95 18.1,-76.2 16.82,-76.61 19.59,-75.68 19.76,-75.53 20.04,-75.35 22.09,-74.68 22.76,-74.44 24.36,-73.85 24.62,-73.8 26.07,-72.69 26.08,-72.98 28.87,-71.48 27.53,-72.01 29.66,-70.91 28.82,-71.41 32.1,-69.58 31.2,-69.85 32.54,-68.97 34.3,-67.79 34.83,-67.51 35.48,-67.21 36.85,-65.96 37.64,-65.6 39.37,-64.17 39.09,-64.29 39.76,-63.91 41.02,-62.39 41.77,-61.57 42.76,-60.72 42.52,-61.13 45.21,-58.2 45.63,-57.77 45.92,-57.54 46.52,-56.41 47.26,-56.22 48.77,-54.37 49.23,-53.43 48.8,-54.11 50.8,-51.26 50.99,-50.95 51.01,-51.03 51.31,-50.55 52.46,-49.04 52.74,-48.27 54.09,-46.38 54.55,-45.74 55.3,-44.62 55.99,-43.34 56.78,-41.77 57.27,-40.7 57.68,-39.93 58.49,-37.98 58.61,-38.5 58.46,-37.97 59.09,-36.84 60.22,-34.09 60.67,-33.33 60.87,-32.42 61.61,-30.47 61.91,-29.79 61.81,-30.36 62.22,-28.94 62.61,-27.67 62.92,-26.84 63.5,-25.1 64.38,-21.76 64.35,-21.51 64.57,-19.62 64.64,-20 64.8,-19.72 65.25,-16.66 65.22,-17.5 65.54,-15.77 65.84,-14.31 66.07,-11.93 65.93,-12.66 66.44,-9.74 66.37,-9.12 66.31,-8.75 66.76,-4.51 66.62,-5.89 66.74,-5.82 66.64,-3.43 66.9,-2.18 66.95,0.81 66.89,0.73" fill="rgb(216, 32, 223)" stroke="black" stroke-width="1.6666666666666665" stroke-linejoin="round" filter="url(#fuzzy)" />
    <g transform="translate(43.989999999999995 -20.82)">
      <polyline id="rightCountour" points="-27.67,-6.83 -27.46,-7.07 -27.22,-7.32 -26.96,-7.56 -26.67,-7.81 -26.35,-8.05 -26.01,-8.3 -25.64,-8.54 -25.25,-8.78 -24.82,-9.03 -24.37,-9.27 -23.89,-9.5 -23.39,-9.74 -22.86,-9.97 -22.3,-10.21 -21.71,-10.43 -21.22,-10.69 -20.67,-10.95 -20.07,-11.21 -19.43,-11.46 -18.74,-11.72 -18,-11.97 -17.21,-12.21 -16.38,-12.45 -15.51,-12.68 -14.6,-12.91 -13.66,-13.12 -12.68,-13.33 -11.67,-13.54 -10.64,-13.73 -9.58,-13.91 -8.49,-14.08 -7.39,-14.23 -6.27,-14.38 -5.14,-14.51 -4,-14.63 -2.85,-14.74 -1.7,-14.83 -0.54,-14.91 0.61,-14.98 1.76,-15.03 2.9,-15.06 4.04,-15.08 5.16,-15.09 6.27,-15.08 7.36,-15.06 8.44,-15.03 9.49,-14.98 10.52,-14.91 11.54,-14.84 12.52,-14.75 13.48,-14.65 14.42,-14.53 15.33,-14.41 16.21,-14.27 17.06,-14.13 17.88,-13.97 18.68,-13.81 19.44,-13.63 20.18,-13.45 20.89,-13.27 21.57,-13.07 22.22,-12.87 22.85,-12.67 23.45,-12.47 24.03,-12.26 24.59,-12.05 25.12,-11.83 25.63,-11.61 26.12,-11.39 26.58,-11.16 27.03,-10.93 27.45,-10.7 27.85,-10.46 28.23,-10.23 28.59,-9.99 28.94,-9.75 29.26,-9.51 29.56,-9.27 29.85,-9.03 25.88,-1.53 25.47,-1.06 25.03,-0.58 24.58,-0.1 24.12,0.38 23.63,0.86 23.14,1.34 22.62,1.83 22.09,2.32 21.55,2.8 20.99,3.29 20.41,3.78 19.82,4.27 19.21,4.75 18.59,5.24 17.95,5.72 17.29,6.2 16.62,6.69 15.93,7.17 15.22,7.66 14.49,8.13 13.75,8.61 12.99,9.08 12.21,9.54 11.42,10 10.61,10.45 9.79,10.88 8.95,11.31 8.1,11.72 7.24,12.12 6.37,12.5 5.49,12.87 4.6,13.22 3.71,13.54 2.81,13.85 1.9,14.13 0.99,14.4 0.07,14.63 -0.85,14.84 -1.76,15.03 -2.68,15.18 -3.59,15.31 -4.5,15.4 -5.4,15.47 -6.29,15.5 -7.18,15.5 -8.06,15.46 -8.93,15.39 -9.78,15.29 -10.62,15.15 -11.44,14.98 -12.25,14.77 -13.04,14.53 -13.81,14.25 -14.56,13.93 -15.29,13.58 -16,13.2 -16.69,12.78 -17.35,12.33 -17.99,11.85 -18.6,11.34 -19.19,10.8 -19.75,10.24 -20.28,9.65 -20.79,9.03 -21.3,8.61 -21.8,8.17 -22.28,7.72 -22.74,7.27 -23.19,6.8 -23.62,6.32 -24.03,5.84 -24.42,5.36 -24.8,4.87 -25.17,4.38 -25.51,3.89 -25.84,3.4 -26.15,2.92 -26.44,2.44 -26.72,1.96" fill="white" stroke="white" stroke-width="0" stroke-linejoin="round" filter="url(#fuzzy)" />
    </g>
    <g transform="translate(-34.269999999999996 -23.41)">
      <polyline id="leftCountour" points="26.86,-5.97 26.66,-6.29 26.44,-6.6 26.19,-6.91 25.92,-7.21 25.61,-7.51 25.28,-7.8 24.91,-8.09 24.52,-8.37 24.1,-8.65 23.65,-8.92 23.17,-9.18 22.66,-9.44 22.12,-9.7 21.56,-9.95 20.96,-10.2 20.46,-10.46 19.91,-10.72 19.3,-10.98 18.64,-11.23 17.94,-11.49 17.18,-11.74 16.38,-11.98 15.53,-12.22 14.65,-12.46 13.72,-12.69 12.75,-12.91 11.76,-13.13 10.73,-13.34 9.67,-13.54 8.59,-13.73 7.48,-13.91 6.36,-14.08 5.22,-14.24 4.07,-14.39 2.9,-14.52 1.74,-14.65 0.57,-14.76 -0.61,-14.86 -1.77,-14.95 -2.94,-15.02 -4.09,-15.08 -5.24,-15.13 -6.37,-15.16 -7.49,-15.18 -8.59,-15.19 -9.67,-15.18 -10.73,-15.16 -11.77,-15.13 -12.78,-15.08 -13.77,-15.02 -14.73,-14.95 -15.66,-14.87 -16.57,-14.78 -17.44,-14.68 -18.29,-14.57 -19.1,-14.44 -19.89,-14.31 -20.65,-14.18 -21.37,-14.03 -22.07,-13.88 -22.74,-13.72 -23.38,-13.56 -24,-13.39 -24.58,-13.22 -25.15,-13.04 -25.69,-12.87 -26.21,-12.69 -26.71,-12.5 -27.18,-12.31 -27.63,-12.12 -28.05,-11.93 -28.46,-11.73 -28.84,-11.53 -29.21,-11.33 -29.55,-11.13 -29.88,-10.93 -30.18,-10.72 -30.47,-10.52 -30.74,-10.31 -24.83,-4.45 -24.37,-3.94 -23.9,-3.43 -23.41,-2.92 -22.91,-2.41 -22.39,-1.89 -21.86,-1.37 -21.31,-0.85 -20.75,-0.32 -20.17,0.21 -19.58,0.74 -18.97,1.27 -18.35,1.8 -17.72,2.34 -17.07,2.87 -16.41,3.41 -15.73,3.95 -15.03,4.49 -14.32,5.04 -13.6,5.59 -12.86,6.13 -12.1,6.68 -11.34,7.23 -10.56,7.77 -9.76,8.31 -8.96,8.84 -8.15,9.37 -7.32,9.89 -6.49,10.41 -5.65,10.91 -4.8,11.4 -3.95,11.88 -3.1,12.34 -2.24,12.79 -1.37,13.21 -0.51,13.62 0.36,14.01 1.22,14.37 2.08,14.71 2.94,15.02 3.79,15.3 4.64,15.55 5.48,15.77 6.32,15.96 7.15,16.11 7.96,16.22 8.77,16.3 9.56,16.34 10.35,16.33 11.11,16.29 11.87,16.2 12.61,16.07 13.33,15.89 14.04,15.67 14.73,15.4 15.4,15.09 16.05,14.73 16.68,14.33 17.3,13.88 17.89,13.38 18.47,12.85 19.02,12.27 19.55,11.65 20.07,10.99 20.56,10.3 21.03,9.86 21.5,9.4 21.95,8.93 22.38,8.43 22.8,7.93 23.21,7.41 23.6,6.88 23.98,6.33 24.34,5.79 24.69,5.23 25.02,4.67 25.34,4.11 25.64,3.55 25.93,3 26.2,2.45" fill="white" stroke="white" stroke-width="0" stroke-linejoin="round" filter="url(#fuzzy)" />
    </g>
    <g transform="translate(43.989999999999995 -20.82)">
      <polyline id="rightUpper" points="-28.74,-4.42 -28.7,-4.65 -28.65,-4.89 -28.58,-5.13 -28.51,-5.37 -28.42,-5.61 -28.31,-5.85 -28.18,-6.09 -28.03,-6.34 -27.86,-6.58 -27.67,-6.83 -27.46,-7.07 -27.22,-7.32 -26.96,-7.56 -26.67,-7.81 -26.35,-8.05 -26.01,-8.3 -25.64,-8.54 -25.25,-8.78 -24.82,-9.03 -24.37,-9.27 -23.89,-9.5 -23.39,-9.74 -22.86,-9.97 -22.3,-10.21 -21.71,-10.43 -21.22,-10.69 -20.67,-10.95 -20.07,-11.21 -19.43,-11.46 -18.74,-11.72 -18,-11.97 -17.21,-12.21 -16.38,-12.45 -15.51,-12.68 -14.6,-12.91 -13.66,-13.12 -12.68,-13.33 -11.67,-13.54 -10.64,-13.73 -9.58,-13.91 -8.49,-14.08 -7.39,-14.23 -6.27,-14.38 -5.14,-14.51 -4,-14.63 -2.85,-14.74 -1.7,-14.83 -0.54,-14.91 0.61,-14.98 1.76,-15.03 2.9,-15.06 4.04,-15.08 5.16,-15.09 6.27,-15.08 7.36,-15.06 8.44,-15.03 9.49,-14.98 10.52,-14.91 11.54,-14.84 12.52,-14.75 13.48,-14.65 14.42,-14.53 15.33,-14.41 16.21,-14.27 17.06,-14.13 17.88,-13.97 18.68,-13.81 19.44,-13.63 20.18,-13.45 20.89,-13.27 21.57,-13.07 22.22,-12.87 22.85,-12.67 23.45,-12.47 24.03,-12.26 24.59,-12.05 25.12,-11.83 25.63,-11.61 26.12,-11.39 26.58,-11.16 27.03,-10.93 27.45,-10.7 27.85,-10.46 28.23,-10.23 28.59,-9.99 28.94,-9.75 29.26,-9.51 29.56,-9.27 29.85,-9.03 30.12,-8.79 30.37,-8.54 30.61,-8.3 30.83,-8.06 31.04,-7.83 31.23,-7.59 31.41,-7.35 31.58,-7.12 31.73,-6.88 31.87,-6.65" fill="none" stroke="black" stroke-width="1.6666666666666665" stroke-linejoin="round" filter="url(#fuzzy)" />
      <polyline id="rightLower" points="-28.56,-1.8 -28.45,-1.55 -28.32,-1.25 -28.17,-0.93 -28.01,-0.58 -27.84,-0.2 -27.65,0.2 -27.44,0.62 -27.22,1.05 -26.97,1.5 -26.72,1.96 -26.44,2.44 -26.15,2.92 -25.84,3.4 -25.51,3.89 -25.17,4.38 -24.8,4.87 -24.42,5.36 -24.03,5.84 -23.62,6.32 -23.19,6.8 -22.74,7.27 -22.28,7.72 -21.8,8.17 -21.3,8.61 -20.79,9.03 -20.28,9.65 -19.75,10.24 -19.19,10.8 -18.6,11.34 -17.99,11.85 -17.35,12.33 -16.69,12.78 -16,13.2 -15.29,13.58 -14.56,13.93 -13.81,14.25 -13.04,14.53 -12.25,14.77 -11.44,14.98 -10.62,15.15 -9.78,15.29 -8.93,15.39 -8.06,15.46 -7.18,15.5 -6.29,15.5 -5.4,15.47 -4.5,15.4 -3.59,15.31 -2.68,15.18 -1.76,15.03 -0.85,14.84 0.07,14.63 0.99,14.4 1.9,14.13 2.81,13.85 3.71,13.54 4.6,13.22 5.49,12.87 6.37,12.5 7.24,12.12 8.1,11.72 8.95,11.31 9.79,10.88 10.61,10.45 11.42,10 12.21,9.54 12.99,9.08 13.75,8.61 14.49,8.13 15.22,7.66 15.93,7.17 16.62,6.69 17.29,6.2 17.95,5.72 18.59,5.24 19.21,4.75 19.82,4.27 20.41,3.78 20.99,3.29 21.55,2.8 22.09,2.32 22.62,1.83 23.14,1.34 23.63,0.86 24.12,0.38 24.58,-0.1 25.03,-0.58 25.47,-1.06 25.88,-1.53 26.29,-2 26.68,-2.47 27.05,-2.93 27.41,-3.39 27.75,-3.84 28.08,-4.3 28.39,-4.75 28.69,-5.19 28.98,-5.63 29.25,-6.07" fill="none" stroke="black" stroke-width="2.2222222222222223" stroke-linejoin="round" filter="url(#fuzzy)" />
      <circle r="3.882" cx="-3.898470831811985" cy="-6.527055700340345" stroke="black" fill="none" stroke-width="1.0" filter="url(#fuzzy)" clip-path="url(#rightEyeClipPath)" /><circle r="4.412" cx="-4.643470831811985" cy="-3.802055700340344" stroke="black" fill="none" stroke-width="1.0" filter="url(#fuzzy)" clip-path="url(#rightEyeClipPath)" /><circle r="3.1" cx="-4.4684708318119855" cy="-5.402055700340345" stroke="black" fill="none" stroke-width="1.0" filter="url(#fuzzy)" clip-path="url(#rightEyeClipPath)" /><circle r="3.634" cx="-2.318470831811985" cy="-7.287055700340344" stroke="black" fill="none" stroke-width="1.0" filter="url(#fuzzy)" clip-path="url(#rightEyeClipPath)" /><circle r="4.156" cx="-1.3734708318119857" cy="-5.507055700340344" stroke="black" fill="none" stroke-width="1.0" filter="url(#fuzzy)" clip-path="url(#rightEyeClipPath)" /><circle r="3.7800000000000002" cx="-5.063470831811985" cy="-7.0320557003403446" stroke="black" fill="none" stroke-width="1.0" filter="url(#fuzzy)" clip-path="url(#rightEyeClipPath)" /><circle r="4.5120000000000005" cx="-5.368470831811985" cy="-6.462055700340344" stroke="black" fill="none" stroke-width="1.0" filter="url(#fuzzy)" clip-path="url(#rightEyeClipPath)" /><circle r="4.744" cx="-5.068470831811985" cy="-8.507055700340345" stroke="black" fill="none" stroke-width="1.0" filter="url(#fuzzy)" clip-path="url(#rightEyeClipPath)" /><circle r="4.978" cx="-4.318470831811985" cy="-4.772055700340344" stroke="black" fill="none" stroke-width="1.0" filter="url(#fuzzy)" clip-path="url(#rightEyeClipPath)" /><circle r="3.71" cx="-3.4234708318119855" cy="-3.852055700340345" stroke="black" fill="none" stroke-width="1.0" filter="url(#fuzzy)" clip-path="url(#rightEyeClipPath)" />
      </g>
    <g transform="translate(-34.269999999999996 -23.41)">
      <polyline id="leftUpper" points="27.61,-2.34 27.61,-2.74 27.6,-3.14 27.58,-3.52 27.53,-3.89 27.48,-4.26 27.4,-4.61 27.3,-4.96 27.18,-5.3 27.03,-5.64 26.86,-5.97 26.66,-6.29 26.44,-6.6 26.19,-6.91 25.92,-7.21 25.61,-7.51 25.28,-7.8 24.91,-8.09 24.52,-8.37 24.1,-8.65 23.65,-8.92 23.17,-9.18 22.66,-9.44 22.12,-9.7 21.56,-9.95 20.96,-10.2 20.46,-10.46 19.91,-10.72 19.3,-10.98 18.64,-11.23 17.94,-11.49 17.18,-11.74 16.38,-11.98 15.53,-12.22 14.65,-12.46 13.72,-12.69 12.75,-12.91 11.76,-13.13 10.73,-13.34 9.67,-13.54 8.59,-13.73 7.48,-13.91 6.36,-14.08 5.22,-14.24 4.07,-14.39 2.9,-14.52 1.74,-14.65 0.57,-14.76 -0.61,-14.86 -1.77,-14.95 -2.94,-15.02 -4.09,-15.08 -5.24,-15.13 -6.37,-15.16 -7.49,-15.18 -8.59,-15.19 -9.67,-15.18 -10.73,-15.16 -11.77,-15.13 -12.78,-15.08 -13.77,-15.02 -14.73,-14.95 -15.66,-14.87 -16.57,-14.78 -17.44,-14.68 -18.29,-14.57 -19.1,-14.44 -19.89,-14.31 -20.65,-14.18 -21.37,-14.03 -22.07,-13.88 -22.74,-13.72 -23.38,-13.56 -24,-13.39 -24.58,-13.22 -25.15,-13.04 -25.69,-12.87 -26.21,-12.69 -26.71,-12.5 -27.18,-12.31 -27.63,-12.12 -28.05,-11.93 -28.46,-11.73 -28.84,-11.53 -29.21,-11.33 -29.55,-11.13 -29.88,-10.93 -30.18,-10.72 -30.47,-10.52 -30.74,-10.31 -30.99,-10.11 -31.23,-9.9 -31.45,-9.7 -31.65,-9.5 -31.84,-9.29 -32.02,-9.09 -32.18,-8.89 -32.33,-8.7 -32.47,-8.5 -32.59,-8.3" fill="none" stroke="black" stroke-width="2.2222222222222223" stroke-linejoin="round" filter="url(#fuzzy)" />
      <polyline id="leftLower" points="28.02,-2.01 27.91,-1.71 27.79,-1.36 27.64,-0.97 27.49,-0.55 27.31,-0.1 27.12,0.37 26.91,0.87 26.69,1.38 26.45,1.91 26.2,2.45 25.93,3 25.64,3.55 25.34,4.11 25.02,4.67 24.69,5.23 24.34,5.79 23.98,6.33 23.6,6.88 23.21,7.41 22.8,7.93 22.38,8.43 21.95,8.93 21.5,9.4 21.03,9.86 20.56,10.3 20.07,10.99 19.55,11.65 19.02,12.27 18.47,12.85 17.89,13.38 17.3,13.88 16.68,14.33 16.05,14.73 15.4,15.09 14.73,15.4 14.04,15.67 13.33,15.89 12.61,16.07 11.87,16.2 11.11,16.29 10.35,16.33 9.56,16.34 8.77,16.3 7.96,16.22 7.15,16.11 6.32,15.96 5.48,15.77 4.64,15.55 3.79,15.3 2.94,15.02 2.08,14.71 1.22,14.37 0.36,14.01 -0.51,13.62 -1.37,13.21 -2.24,12.79 -3.1,12.34 -3.95,11.88 -4.8,11.4 -5.65,10.91 -6.49,10.41 -7.32,9.89 -8.15,9.37 -8.96,8.84 -9.76,8.31 -10.56,7.77 -11.34,7.23 -12.1,6.68 -12.86,6.13 -13.6,5.59 -14.32,5.04 -15.03,4.49 -15.73,3.95 -16.41,3.41 -17.07,2.87 -17.72,2.34 -18.35,1.8 -18.97,1.27 -19.58,0.74 -20.17,0.21 -20.75,-0.32 -21.31,-0.85 -21.86,-1.37 -22.39,-1.89 -22.91,-2.41 -23.41,-2.92 -23.9,-3.43 -24.37,-3.94 -24.83,-4.45 -25.27,-4.95 -25.7,-5.45 -26.11,-5.94 -26.51,-6.44 -26.89,-6.92 -27.25,-7.41 -27.6,-7.89 -27.94,-8.37 -28.26,-8.85 -28.57,-9.32" fill="none" stroke="black" stroke-width="2.2222222222222223" stroke-linejoin="round" filter="url(#fuzzy)" />
      <circle r="3.882" cx="-11.133883508821977" cy="-0.4607694070020045" stroke="black" fill="none" stroke-width="1.0" filter="url(#fuzzy)" clip-path="url(#leftEyeClipPath)" /><circle r="4.52" cx="-9.453883508821978" cy="2.9842305929979958" stroke="black" fill="none" stroke-width="1.0" filter="url(#fuzzy)" clip-path="url(#leftEyeClipPath)" /><circle r="4.024" cx="-7.318883508821978" cy="-0.6807694070020047" stroke="black" fill="none" stroke-width="1.0" filter="url(#fuzzy)" clip-path="url(#leftEyeClipPath)" /><circle r="3.976" cx="-9.028883508821979" cy="3.1192305929979955" stroke="black" fill="none" stroke-width="1.0" filter="url(#fuzzy)" clip-path="url(#leftEyeClipPath)" /><circle r="4.254" cx="-11.218883508821978" cy="0.9892305929979952" stroke="black" fill="none" stroke-width="1.0" filter="url(#fuzzy)" clip-path="url(#leftEyeClipPath)" /><circle r="4.324" cx="-6.8388835088219775" cy="3.5042305929979953" stroke="black" fill="none" stroke-width="1.0" filter="url(#fuzzy)" clip-path="url(#leftEyeClipPath)" /><circle r="4.3100000000000005" cx="-11.408883508821978" cy="1.0992305929979955" stroke="black" fill="none" stroke-width="1.0" filter="url(#fuzzy)" clip-path="url(#leftEyeClipPath)" /><circle r="4.946" cx="-6.548883508821978" cy="2.939230592997996" stroke="black" fill="none" stroke-width="1.0" filter="url(#fuzzy)" clip-path="url(#leftEyeClipPath)" /><circle r="3.668" cx="-10.088883508821977" cy="3.0092305929979952" stroke="black" fill="none" stroke-width="1.0" filter="url(#fuzzy)" clip-path="url(#leftEyeClipPath)" /><circle r="4.324" cx="-8.408883508821978" cy="3.6542305929979957" stroke="black" fill="none" stroke-width="1.0" filter="url(#fuzzy)" clip-path="url(#leftEyeClipPath)" />
    </g>
    <g id="hairs">
      <polyline points="13,-77.61 13.35,-77.49 14.2,-77.28 15.07,-77 15.71,-76.71 16.03,-76.44 16.06,-76.19 15.83,-75.95 15.35,-75.72 14.59,-75.51 13.52,-75.31 12.06,-75.12 10.17,-74.95 7.81,-74.79 4.94,-74.64 1.6,-74.52 -2.18,-74.44 -6.37,-74.44 -11.02,-74.5 -16.31,-74.53" fill="none" stroke="rgb(134, 130, 19)" stroke-width="2" stroke-linejoin="round" filter="url(#fuzzy)" /><polyline points="34.83,-67.51 35.48,-67 35.92,-66.34 35.96,-65.73 35.5,-65.21 34.52,-64.75 33.04,-64.33 31.08,-63.91 28.62,-63.51 25.63,-63.13 22.07,-62.78 17.88,-62.48 13.05,-62.24 7.56,-62.12 1.41,-62.11 -5.41,-62.2 -12.9,-62.41 -21.05,-62.75 -29.9,-63.21" fill="none" stroke="rgb(134, 130, 19)" stroke-width="2" stroke-linejoin="round" filter="url(#fuzzy)" /><polyline points="8.39,-78.47 9.46,-78.32 10.27,-78.15 10.97,-78 11.59,-77.86 12.09,-77.75 12.44,-77.66 12.6,-77.59 12.51,-77.54 12.09,-77.52 11.28,-77.56 10.05,-77.66 8.35,-77.85 6.07,-78.13 2.95,-78.53" fill="none" stroke="rgb(134, 130, 19)" stroke-width="2" stroke-linejoin="round" filter="url(#fuzzy)" /><polyline points="52.46,-49.04 52.98,-48.07 53.61,-47.06 54.14,-46.19 54.51,-45.47 54.71,-44.91 54.71,-44.57 54.48,-44.5 54,-44.75 53.24,-45.35 52.2,-46.28 50.88,-47.53 49.28,-49.08 47.38,-50.94 45.15,-53.19 42.55,-55.9 39.55,-59.12 36.12,-62.86 32.23,-67.13" fill="none" stroke="rgb(134, 130, 19)" stroke-width="2" stroke-linejoin="round" filter="url(#fuzzy)" /><polyline points="48.8,-54.11 50.04,-52.32 50.49,-51.63 50.58,-51.39 50.5,-51.3 50.26,-51.31 49.81,-51.48 49.07,-51.93 47.96,-52.75 46.43,-54 44.44,-55.71 41.96,-57.92 38.99,-60.65 35.55,-63.95 31.51,-67.9" fill="none" stroke="rgb(134, 130, 19)" stroke-width="2" stroke-linejoin="round" filter="url(#fuzzy)" /><polyline points="-10.97,-77.93 -10.37,-77.98 -9.07,-77.76 -6.99,-77.31 -4.39,-76.65 -1.44,-75.8 1.77,-74.76 5.25,-73.57 8.96,-72.22 12.88,-70.71 16.98,-69.06 21.24,-67.26 25.59,-65.37 29.99,-63.42 34.39,-61.46 38.83,-59.49 43.26,-57.6" fill="none" stroke="rgb(134, 130, 19)" stroke-width="2" stroke-linejoin="round" filter="url(#fuzzy)" /><polyline points="-30.41,-70.26 -30.29,-70.52 -29.46,-71.04 -28.52,-71.55 -27.75,-71.93 -27.23,-72.13 -26.95,-72.18 -26.85,-72.09 -26.91,-71.89 -27.16,-71.55 -27.67,-71.04 -28.53,-70.29 -29.79,-69.29 -31.45,-68.02 -33.53,-66.44 -36.03,-64.52 -38.99,-62.23 -42.5,-59.56" fill="none" stroke="rgb(134, 130, 19)" stroke-width="2" stroke-linejoin="round" filter="url(#fuzzy)" /><polyline points="59.09,-36.84 59.91,-34.89 60.4,-33.66 60.7,-32.77 60.87,-32.17 60.9,-31.82 60.82,-31.67 60.62,-31.65 60.32,-31.72 59.89,-31.92 59.31,-32.32 58.53,-33.01 57.54,-34.08 56.32,-35.58 54.87,-37.53 53.2,-39.9 51.3,-42.66 49.15,-45.79 46.72,-49.33 43.97,-53.3 40.92,-57.74 37.66,-62.61" fill="none" stroke="rgb(134, 130, 19)" stroke-width="2" stroke-linejoin="round" filter="url(#fuzzy)" /><polyline points="24.62,-73.8 25.69,-73.09 26.6,-72.6 27.37,-72.19 27.96,-71.86 28.39,-71.6 28.65,-71.4 28.71,-71.28 28.5,-71.27 27.97,-71.41 27.09,-71.73 25.78,-72.28 23.99,-73.08 21.62,-74.16 18.43,-75.6" fill="none" stroke="rgb(134, 130, 19)" stroke-width="2" stroke-linejoin="round" filter="url(#fuzzy)" /><polyline points="8.39,-78.47 9.29,-78.3 9.6,-78.03 9.46,-77.7 8.91,-77.27 7.92,-76.74 6.51,-76.08 4.65,-75.27 2.3,-74.32 -0.64,-73.23 -4.27,-72.01 -8.61,-70.66 -13.7,-69.15 -19.58,-67.46 -26.29,-65.55 -33.79,-63.52" fill="none" stroke="rgb(134, 130, 19)" stroke-width="2" stroke-linejoin="round" filter="url(#fuzzy)" /><polyline points="45.63,-57.77 46.03,-57.31 46.64,-56.61 47.34,-55.83 47.98,-55.06 48.51,-54.38 48.89,-53.84 49.1,-53.47 49.14,-53.29 49,-53.32 48.69,-53.54 48.21,-53.94 47.55,-54.54 46.67,-55.36 45.5,-56.49 43.98,-57.97 42.06,-59.86 39.75,-62.17 37.13,-64.83" fill="none" stroke="rgb(134, 130, 19)" stroke-width="2" stroke-linejoin="round" filter="url(#fuzzy)" /><polyline points="-2.67,-79.25 -1.71,-79.12 -0.84,-79.05 0.02,-79 0.71,-78.95 1.14,-78.89 1.31,-78.8 1.28,-78.67 1.06,-78.48 0.64,-78.23 -0.01,-77.92 -0.99,-77.55 -2.39,-77.14 -4.28,-76.69 -6.72,-76.17 -9.73,-75.57 -13.23,-74.9 -17.11,-74.22 -21.2,-73.63" fill="none" stroke="rgb(134, 130, 19)" stroke-width="2" stroke-linejoin="round" filter="url(#fuzzy)" /><polyline points="-17.22,-76.38 -15.33,-76.94 -13.73,-77.21 -12.14,-77.36 -10.44,-77.47 -8.59,-77.57 -6.62,-77.65 -4.53,-77.72 -2.33,-77.77 -0.09,-77.83 2.08,-77.88 4.09,-77.93 5.89,-77.98 7.51,-78 8.97,-77.99 10.18,-77.96" fill="none" stroke="rgb(134, 130, 19)" stroke-width="2" stroke-linejoin="round" filter="url(#fuzzy)" /><polyline points="59.09,-36.84 59.82,-34.96 60.04,-33.94 59.88,-33.4 59.39,-33.25 58.58,-33.49 57.44,-34.05 55.99,-34.85 54.21,-35.85 52.08,-37.08 49.54,-38.58 46.55,-40.47 43.1,-42.81 39.18,-45.68 34.83,-49.06 30.06,-52.92 24.84,-57.23 19.09,-61.98 12.71,-67.18 5.73,-72.86" fill="none" stroke="rgb(134, 130, 19)" stroke-width="2" stroke-linejoin="round" filter="url(#fuzzy)" /><polyline points="2.44,-78.96 2.68,-78.96 3.38,-78.94 4.32,-78.86 5.48,-78.73 6.81,-78.56 8.2,-78.37 9.52,-78.17 10.66,-77.98 11.58,-77.82 12.29,-77.69 12.82,-77.59 13.2,-77.51 13.45,-77.45 13.53,-77.42 13.37,-77.42 12.87,-77.48 11.92,-77.63 10.45,-77.87 8.48,-78.19 6.24,-78.56" fill="none" stroke="rgb(134, 130, 19)" stroke-width="2" stroke-linejoin="round" filter="url(#fuzzy)" /><polyline points="26.08,-72.98 27.66,-72.09 28.45,-71.6 29.23,-71.12 30.11,-70.59 31.04,-70 31.96,-69.4 32.85,-68.81 33.67,-68.26 34.39,-67.76 34.99,-67.34 35.45,-67.01 35.73,-66.77 35.83,-66.64 35.73,-66.61 35.43,-66.7 34.93,-66.92 34.2,-67.27 33.25,-67.78 32.02,-68.47 30.51,-69.35 28.65,-70.45 26.38,-71.78 23.59,-73.39" fill="none" stroke="rgb(134, 130, 19)" stroke-width="2" stroke-linejoin="round" filter="url(#fuzzy)" /><polyline points="12.99,-77.47 14.3,-77.27 15.84,-76.84 17.24,-76.36 18.51,-75.86 19.75,-75.35 20.98,-74.83 22.21,-74.3 23.42,-73.79 24.57,-73.3 25.62,-72.85 26.53,-72.45 27.27,-72.12 27.84,-71.86 28.21,-71.69 28.38,-71.62 28.34,-71.65 28.07,-71.8 27.52,-72.09 26.67,-72.54 25.55,-73.18" fill="none" stroke="rgb(134, 130, 19)" stroke-width="2" stroke-linejoin="round" filter="url(#fuzzy)" /><polyline points="-38.84,-64.31 -36.85,-65.72 -35.34,-66.52 -33.65,-67.22 -31.51,-68.02 -28.94,-68.92 -26.09,-69.86 -23.08,-70.77 -19.96,-71.65 -16.75,-72.51 -13.46,-73.37 -10.14,-74.19 -6.81,-74.96 -3.49,-75.66 -0.18,-76.32 3.13,-76.98 6.46,-77.66" fill="none" stroke="rgb(134, 130, 19)" stroke-width="2" stroke-linejoin="round" filter="url(#fuzzy)" /><polyline points="-30.41,-70.26 -29.99,-70.47 -28.27,-70.9 -25.85,-71.28 -23.01,-71.53 -19.86,-71.63 -16.39,-71.6 -12.55,-71.5 -8.32,-71.38 -3.75,-71.24 1.08,-71.09 6.05,-70.89 11.09,-70.63 16.18,-70.33 21.32,-70.04 26.37,-69.87" fill="none" stroke="rgb(134, 130, 19)" stroke-width="2" stroke-linejoin="round" filter="url(#fuzzy)" /><polyline points="-33.61,-68.49 -31.85,-69.47 -30.72,-70.11 -29.64,-70.71 -28.39,-71.35 -27.03,-72.01 -25.66,-72.64 -24.34,-73.22 -23.08,-73.75 -21.88,-74.24 -20.71,-74.73 -19.59,-75.2 -18.55,-75.63 -17.63,-76.01 -16.88,-76.33 -16.31,-76.57 -15.94,-76.74 -15.8,-76.83 -15.97,-76.81 -16.52,-76.65 -17.5,-76.34 -18.79,-75.86" fill="none" stroke="rgb(134, 130, 19)" stroke-width="2" stroke-linejoin="round" filter="url(#fuzzy)" /><polyline points="18.1,-76.2 18.03,-76.2 18.83,-75.89 19.77,-75.54 20.72,-75.17 21.69,-74.8 22.6,-74.44 23.43,-74.1 24.13,-73.78 24.68,-73.49 25.06,-73.26 25.27,-73.09 25.29,-72.98 25.11,-72.95 24.72,-72.98 24.12,-73.07 23.32,-73.24 22.3,-73.48 21.04,-73.82 19.5,-74.29 17.58,-74.9 15.17,-75.67 12.13,-76.6 8.48,-77.68" fill="none" stroke="rgb(134, 130, 19)" stroke-width="2" stroke-linejoin="round" filter="url(#fuzzy)" /><polyline points="16.11,-76.95 16.99,-76.49 17,-76.1 16.55,-75.6 15.6,-74.98 14.1,-74.26 11.99,-73.42 9.22,-72.47 5.7,-71.4 1.38,-70.2 -3.8,-68.84 -9.88,-67.34 -16.86,-65.7 -24.78,-63.94 -33.76,-61.93" fill="none" stroke="rgb(134, 130, 19)" stroke-width="2" stroke-linejoin="round" filter="url(#fuzzy)" /><polyline points="-10.97,-77.93 -10.57,-78.11 -9.86,-78.27 -8.78,-78.43 -7.57,-78.58 -6.41,-78.71 -5.35,-78.83 -4.4,-78.91 -3.6,-78.96 -2.95,-78.97 -2.52,-78.94 -2.32,-78.88 -2.39,-78.8 -2.75,-78.69 -3.39,-78.55 -4.31,-78.39 -5.51,-78.18 -7,-77.93 -8.88,-77.62 -11.29,-77.24 -14.39,-76.77" fill="none" stroke="rgb(134, 130, 19)" stroke-width="2" stroke-linejoin="round" filter="url(#fuzzy)" /><polyline points="47.26,-56.22 48.27,-54.89 48.77,-54.12 49.07,-53.58 49.21,-53.22 49.13,-53.1 48.8,-53.23 48.22,-53.6 47.39,-54.18 46.27,-55.02 44.82,-56.17 42.98,-57.7 40.7,-59.67 37.99,-62.08 34.84,-64.96 31.14,-68.45" fill="none" stroke="rgb(134, 130, 19)" stroke-width="2" stroke-linejoin="round" filter="url(#fuzzy)" /><polyline points="20.04,-75.35 21.51,-74.85 22.4,-74.48 22.91,-74.17 23.08,-73.9 22.9,-73.66 22.35,-73.47 21.39,-73.36 19.98,-73.32 18.11,-73.36 15.8,-73.46 13.04,-73.63 9.78,-73.87 5.96,-74.2 1.53,-74.65 -3.63,-75.23 -9.74,-75.88" fill="none" stroke="rgb(134, 130, 19)" stroke-width="2" stroke-linejoin="round" filter="url(#fuzzy)" /><polyline points="0.72,-79.02 1.84,-78.99 2.54,-78.98 3.21,-78.97 3.96,-78.93 4.82,-78.86 5.73,-78.76 6.62,-78.63 7.35,-78.5 7.84,-78.36 8.06,-78.24 7.99,-78.13 7.68,-78.03 7.12,-77.92 6.34,-77.8 5.29,-77.68 3.97,-77.55 2.33,-77.42 0.37,-77.31 -1.94,-77.22 -4.6,-77.15 -7.61,-77.12 -10.98,-77.15" fill="none" stroke="rgb(134, 130, 19)" stroke-width="2" stroke-linejoin="round" filter="url(#fuzzy)" /><polyline points="13,-77.61 13.39,-77.49 14.35,-77.27 15.41,-76.98 16.33,-76.69 17.04,-76.41 17.57,-76.15 17.95,-75.91 18.17,-75.68 18.23,-75.48 18.09,-75.29 17.72,-75.13 17.08,-74.99 16.14,-74.88 14.9,-74.81 13.33,-74.78 11.44,-74.8 9.24,-74.86 6.75,-74.97 3.94,-75.13 0.79,-75.33 -2.75,-75.59 -6.75,-75.91 -11.43,-76.23" fill="none" stroke="rgb(134, 130, 19)" stroke-width="2" stroke-linejoin="round" filter="url(#fuzzy)" /><polyline points="41.77,-61.57 42.56,-60.86 43.56,-59.83 44.71,-58.55 45.84,-57.26 46.86,-56.06 47.81,-54.94 48.68,-53.9 49.44,-52.98 50.05,-52.23 50.48,-51.68 50.75,-51.34 50.85,-51.2 50.73,-51.36 50.22,-52.09" fill="none" stroke="rgb(134, 130, 19)" stroke-width="2" stroke-linejoin="round" filter="url(#fuzzy)" /><polyline points="66.07,-11.93 67.58,-10.06 71.36,-8.1 75.3,-5.8 78.51,-3.28 81.25,-0.7 83.63,1.86 85.43,4.35 86.49,6.77 86.92,9.16 87.04,11.54 87.12,13.93 87.26,16.33 87.38,18.74 87.35,21.13 87.16,23.49 86.94,25.8 86.97,28.05 87.55,30.27 88.88,32.45 90.94,34.61 93.41,36.74 95.8,38.82 97.67,40.84 98.95,42.79 100,44.59 101.17,46.19 101.56,47.75 98.47,49.93" fill="none" stroke="rgb(134, 130, 19)" stroke-width="2" stroke-linejoin="round" filter="url(#fuzzy)" /><polyline points="66.07,-11.93 78.88,-10.05 78.75,-8.07 78.09,-5.76 77.6,-3.24 76.84,-0.64 76.01,1.92 75.5,4.42 75.64,6.86 76.51,9.26 77.95,11.65 79.66,14.06 81.29,16.47 82.6,18.88 83.47,21.27 83.91,23.62 83.98,25.94 83.8,28.2 83.58,30.43 83.55,32.62 83.96,34.77 84.91,36.88 86.34,38.94 88,40.94 89.56,42.88 90.76,44.75 91.42,46.59 91.42,48.44 90.65,50.37 89.03,52.34 87,54.19 85.94,55.7 87.72,57.01" fill="none" stroke="rgb(134, 130, 19)" stroke-width="2" stroke-linejoin="round" filter="url(#fuzzy)" /><polyline points="-1.3,-79.03 -4.29,-78.9 -6.77,-78.7 -8.85,-78.42 -10.73,-78.06 -12.6,-77.63 -14.55,-77.13 -16.59,-76.57 -18.72,-75.96 -20.92,-75.28 -23.18,-74.54 -25.46,-73.73 -27.75,-72.84 -30,-71.86 -32.23,-70.8 -34.42,-69.66 -36.62,-68.47 -38.84,-67.22 -41.09,-65.94 -43.37,-64.64 -45.68,-63.28 -47.99,-61.85 -50.3,-60.33 -52.62,-58.69 -54.94,-56.96 -57.23,-55.16 -59.45,-53.36 -61.53,-51.58 -63.42,-49.81 -65.19,-47.94 -67.17,-45.89 -69.64,-44.18" fill="none" stroke="rgb(134, 130, 19)" stroke-width="2" stroke-linejoin="round" filter="url(#fuzzy)" /><polyline points="-2.67,-79.25 -4.79,-78.92 -7.03,-78.59 -9.42,-78.26 -11.98,-77.88 -14.73,-77.45 -17.65,-76.93 -20.71,-76.32 -23.93,-75.64 -27.3,-74.91 -30.8,-74.13 -34.37,-73.31 -37.89,-72.42 -41.28,-71.46 -44.42,-70.42 -47.3,-69.31 -50.03,-68.14 -52.84,-66.96 -55.99,-65.76 -59.51,-64.52 -63.27,-63.19 -67.28,-61.78 -72.01,-60.29 -77.07,-58.43" fill="none" stroke="rgb(134, 130, 19)" stroke-width="2" stroke-linejoin="round" filter="url(#fuzzy)" /><polyline points="-4.61,-78.95 -7.34,-78.73 -9.63,-78.44 -11.44,-78.08 -13.12,-77.64 -14.9,-77.13 -16.82,-76.56 -18.86,-75.94 -21.04,-75.26 -23.34,-74.51 -25.74,-73.69 -28.2,-72.79 -30.66,-71.8 -33.08,-70.73 -35.43,-69.58 -37.76,-68.38 -40.14,-67.13 -42.69,-65.84 -45.53,-64.51 -48.76,-63.13 -52.41,-61.68 -56.41,-60.14 -60.56,-58.5 -64.63,-56.78 -68.36,-55.01 -71.62,-53.21 -74.52,-51.4 -77.35,-49.58 -80.4,-47.74 -83.71,-45.88 -86.82,-44.04 -89.11,-42.29 -90.54,-40.62 -92.59,-38.88" fill="none" stroke="rgb(134, 130, 19)" stroke-width="2" stroke-linejoin="round" filter="url(#fuzzy)" /><polyline points="-4.61,-78.95 -7.72,-78.73 -10.33,-78.44 -13.28,-78.09 -16.48,-77.65 -19.63,-77.15 -22.48,-76.58 -24.91,-75.97 -26.96,-75.29 -28.78,-74.56 -30.53,-73.75 -32.38,-72.86 -34.49,-71.88 -37,-70.82 -40,-69.68 -43.5,-68.48 -47.42,-67.23 -51.63,-65.96 -55.95,-64.66 -60.27,-63.32 -64.54,-61.9 -68.79,-60.39 -73.16,-58.75 -77.79,-57.01 -82.66,-55.2 -87.51,-53.39 -91.75,-51.64 -94.9,-49.94 -97.28,-48.04 -101.36,-45.11" fill="none" stroke="rgb(134, 130, 19)" stroke-width="2" stroke-linejoin="round" filter="url(#fuzzy)" /><polyline points="-5,-78.88 -7.18,-78.58 -9.78,-78.25 -12.2,-77.88 -14.67,-77.44 -17.45,-76.91 -20.49,-76.28 -23.59,-75.59 -26.6,-74.84 -29.58,-74.05 -32.71,-73.2 -36.15,-72.3 -39.97,-71.32 -44.15,-70.26 -48.62,-69.14 -53.31,-67.97 -58.22,-66.77 -63.38,-65.52 -68.78,-64.21 -74.35,-62.83 -79.89,-61.34 -85.21,-59.73 -90.14,-58.01 -94.63,-56.23 -98.94,-54.49 -103.5,-53.07 -106.62,-52.51" fill="none" stroke="rgb(134, 130, 19)" stroke-width="2" stroke-linejoin="round" filter="url(#fuzzy)" /><polyline points="-5,-78.88 -6.94,-78.58 -9.39,-78.25 -11.91,-77.89 -14.48,-77.45 -17.03,-76.93 -19.55,-76.31 -22.1,-75.62 -24.77,-74.88 -27.62,-74.1 -30.64,-73.27 -33.74,-72.38 -36.87,-71.41 -39.97,-70.37 -43.12,-69.25 -46.44,-68.09 -50.05,-66.9 -53.97,-65.69 -57.98,-64.43 -61.78,-63.09 -65.29,-61.65 -68.9,-60.09 -73.38,-58.34 -78.72,-56.36" fill="none" stroke="rgb(134, 130, 19)" stroke-width="2" stroke-linejoin="round" filter="url(#fuzzy)" /><polyline points="-9.64,-78.52 -11.26,-78.14 -13.2,-77.68 -15.06,-77.16 -16.89,-76.58 -18.74,-75.96 -20.65,-75.28 -22.67,-74.54 -24.85,-73.73 -27.18,-72.83 -29.62,-71.85 -32.1,-70.78 -34.59,-69.63 -37.05,-68.42 -39.48,-67.17 -41.84,-65.89 -44.12,-64.59 -46.29,-63.24 -48.36,-61.82 -50.39,-60.29 -52.47,-58.66 -54.69,-56.92 -57.06,-55.12 -59.53,-53.32 -62.07,-51.55 -64.65,-49.79 -67.34,-47.93 -70.26,-45.88 -73.31,-44.18" fill="none" stroke="rgb(134, 130, 19)" stroke-width="2" stroke-linejoin="round" filter="url(#fuzzy)" /><polyline points="-10.47,-78.17 -13.33,-77.7 -16.64,-77.16 -19.91,-76.57 -22.48,-75.94 -24.37,-75.25 -25.97,-74.5 -27.64,-73.67 -29.58,-72.76 -31.92,-71.75 -34.74,-70.67 -38.1,-69.5 -41.95,-68.28 -46.12,-67.02 -50.36,-65.72 -54.42,-64.38 -58.2,-62.99 -61.74,-61.52 -65.22,-59.97 -68.8,-58.32 -72.53,-56.6 -76.31,-54.83 -79.94,-53.03 -83.26,-51.22 -86.25,-49.39 -89.07,-47.55 -91.94,-45.69 -95.11,-43.81 -98.76,-41.88 -103.04,-39.87 -108.04,-37.72 -113.68,-35.47 -119.33,-33.32 -123.36,-31.27" fill="none" stroke="rgb(134, 130, 19)" stroke-width="2" stroke-linejoin="round" filter="url(#fuzzy)" /><polyline points="-13.67,-77.41 -16.85,-76.57 -19.62,-75.92 -21.89,-75.25 -23.77,-74.5 -25.5,-73.66 -27.32,-72.73 -29.42,-71.71 -31.86,-70.61 -34.6,-69.42 -37.53,-68.18 -40.52,-66.91 -43.45,-65.59 -46.28,-64.24 -49.01,-62.83 -51.65,-61.34 -54.25,-59.77 -56.82,-58.11 -59.39,-56.39 -61.96,-54.62 -64.59,-52.81 -67.32,-50.99 -70.17,-49.15 -73.12,-47.29 -76.14,-45.4 -79.17,-43.48 -82.17,-41.51 -85.18,-39.48 -88.26,-37.4 -91.46,-35.28 -94.71,-33.14 -97.82,-30.98 -100.57,-28.76 -102.88,-26.45 -105.06,-24.07 -107.83,-21.76 -112.29,-19.97" fill="none" stroke="rgb(134, 130, 19)" stroke-width="2" stroke-linejoin="round" filter="url(#fuzzy)" /><polyline points="-14.98,-77.23 -18.47,-76.37 -22.19,-75.53 -25.43,-74.73 -28.16,-73.92 -30.63,-73.08 -33.13,-72.16 -35.89,-71.15 -38.96,-70.05 -42.21,-68.9 -45.47,-67.7 -48.56,-66.46 -51.43,-65.17 -54.07,-63.81 -56.53,-62.37 -58.95,-60.84 -61.46,-59.22 -64.26,-57.54 -67.5,-55.8 -71.27,-54.03 -75.58,-52.24 -80.37,-50.42 -85.4,-48.57 -90.21,-46.72 -94.24,-44.84 -97.17,-42.94 -99.34,-41 -101.83,-39.28 -105.08,-38.51" fill="none" stroke="rgb(134, 130, 19)" stroke-width="2" stroke-linejoin="round" filter="url(#fuzzy)" /><polyline points="-17.22,-76.38 -19.51,-75.85 -21.55,-75.26 -24.67,-74.52 -28.71,-73.67 -32.87,-72.74 -36.54,-71.72 -39.58,-70.61 -42.26,-69.42 -44.93,-68.17 -47.85,-66.89 -51.09,-65.58 -54.65,-64.23 -58.39,-62.82 -62.09,-61.33 -65.48,-59.76 -68.35,-58.1 -70.65,-56.37 -72.55,-54.6 -74.43,-52.79 -76.72,-50.97 -79.76,-49.13 -83.68,-47.27 -88.29,-45.38 -93.23,-43.46 -98.04,-41.49 -102.45,-39.47 -106.48,-37.39 -110.51,-35.27 -115.02,-33.13 -120.22,-30.97 -125.8,-28.75 -131.11,-26.45 -135.63,-24.06 -139.38,-21.75 -144.56,-19.97" fill="none" stroke="rgb(134, 130, 19)" stroke-width="2" stroke-linejoin="round" filter="url(#fuzzy)" /><polyline points="-19.34,-75.79 -25.68,-74.66 -29.26,-73.7 -30.51,-72.79 -31.46,-71.8 -32.96,-70.69 -34.98,-69.49 -37.29,-68.23 -39.77,-66.95 -42.45,-65.67 -45.4,-64.36 -48.65,-63.01 -52.19,-61.57 -55.98,-60.03 -59.99,-58.38 -64.16,-56.64 -68.38,-54.86 -72.59,-53.06 -76.88,-51.27 -81.5,-49.47 -86.66,-47.65 -92.16,-45.8 -97.18,-43.98 -100.72,-42.25 -102.92,-40.6 -107.47,-38.88" fill="none" stroke="rgb(134, 130, 19)" stroke-width="2" stroke-linejoin="round" filter="url(#fuzzy)" /><polyline points="-19.34,-75.79 -23.31,-74.67 -25.28,-73.71 -27.14,-72.81 -29.21,-71.83 -31.28,-70.73 -33.24,-69.54 -35.09,-68.29 -36.9,-67.01 -38.72,-65.74 -40.58,-64.46 -42.56,-63.13 -44.72,-61.72 -47.06,-60.2 -49.53,-58.56 -51.99,-56.81 -54.34,-55.02 -56.58,-53.23 -58.77,-51.48 -61,-49.74 -63.25,-47.89 -65.46,-45.86 -67.23,-44.18" fill="none" stroke="rgb(134, 130, 19)" stroke-width="2" stroke-linejoin="round" filter="url(#fuzzy)" /><polyline points="-25.36,-73.16 -27.48,-72.25 -29.62,-71.17 -31.92,-69.96 -34.58,-68.72 -37.72,-67.47 -41.22,-66.22 -44.8,-64.92 -48.11,-63.54 -50.91,-62.06 -53.17,-60.48 -55.11,-58.83 -57.06,-57.11 -59.34,-55.35 -62.13,-53.56 -65.39,-51.75 -69.01,-49.91 -72.81,-48.04 -76.77,-46.16 -80.93,-44.24 -85.41,-42.28 -90.23,-40.29 -95.22,-38.24 -100.11,-36.15 -104.63,-34.02 -108.68,-31.84 -112.4,-29.65 -116.05,-27.44 -119.91,-25.22 -124.38,-22.93 -129.99,-20.46 -136.38,-17.92 -139.38,-16.45" fill="none" stroke="rgb(134, 130, 19)" stroke-width="2" stroke-linejoin="round" filter="url(#fuzzy)" /><polyline points="-25.52,-73.19 -27.85,-71.98 -30.03,-70.72 -31.97,-69.43 -33.82,-68.12 -35.62,-66.82 -37.36,-65.53 -39.03,-64.25 -40.65,-62.91 -42.24,-61.48 -43.82,-59.92 -45.42,-58.26 -47.01,-56.51 -48.57,-54.72 -50.08,-52.93 -51.52,-51.14 -52.9,-49.35 -54.24,-47.53 -55.57,-45.7 -56.87,-43.87 -58.1,-42.05 -59.29,-40.12 -60.55,-37.78 -62.16,-34.34" fill="none" stroke="rgb(134, 130, 19)" stroke-width="2" stroke-linejoin="round" filter="url(#fuzzy)" /><polyline points="-27.59,-72.08 -30.67,-70.64 -34.27,-69.34 -37.47,-68.01 -39.95,-66.68 -42.02,-65.38 -43.93,-64.06 -45.75,-62.68 -47.52,-61.19 -49.37,-59.59 -51.41,-57.89 -53.69,-56.12 -56.12,-54.32 -58.58,-52.5 -60.96,-50.67 -63.22,-48.82 -65.4,-46.96 -67.58,-45.06 -69.81,-43.12 -72.06,-41.14 -74.25,-39.1 -76.29,-37.02 -78.11,-34.9 -79.79,-32.74 -81.5,-30.54 -83.44,-28.3 -85.7,-26.02 -88.16,-23.7 -90.49,-21.35 -92.36,-18.99 -93.65,-16.61 -94.76,-14.2 -96.45,-11.7 -99.03,-9.07 -100.88,-6.51" fill="none" stroke="rgb(134, 130, 19)" stroke-width="2" stroke-linejoin="round" filter="url(#fuzzy)" /><polyline points="65.22,-17.5 66.3,-14.79 68.26,-12.17 71.59,-9.57 75.46,-7.12 79.12,-4.79 82.03,-2.5 83.92,-0.16 84.84,2.24 85.09,4.7 85.03,7.19 84.94,9.69 85.04,12.15 85.5,14.56 86.43,16.9 87.81,19.17 89.5,21.4 91.39,23.66 93.48,25.98 95.91,28.36 98.72,30.72 101.64,32.92 104.18,34.9 106.26,36.79 108.7,38.77 112.63,40.25" fill="none" stroke="rgb(134, 130, 19)" stroke-width="2" stroke-linejoin="round" filter="url(#fuzzy)" /><polyline points="65.22,-17.5 66.51,-14.76 68.64,-12.11 70.04,-9.49 70.77,-7.02 71.51,-4.67 72.63,-2.33 74.03,0.04 75.42,2.47 76.5,4.96 77.11,7.46 77.24,9.96 76.97,12.42 76.39,14.84 75.61,17.2 74.69,19.53 73.74,21.83 72.87,24.13 72.18,26.43 71.74,28.73 71.55,31 71.57,33.22 71.72,35.39 71.93,37.52 72.16,39.61 72.41,41.68 72.7,43.7 73.03,45.65 73.38,47.52 73.67,49.34 73.71,51.15 73.27,52.96 72.2,54.8 70.62,56.71 68.67,58.85" fill="none" stroke="rgb(134, 130, 19)" stroke-width="2" stroke-linejoin="round" filter="url(#fuzzy)" /><polyline points="-31.19,-69.85 -31.97,-68.05 -29.75,-66.61 -27.12,-65.33 -26.01,-64.1 -26.64,-62.8 -28.42,-61.37 -30.72,-59.79 -33.09,-58.09 -35.18,-56.32 -36.68,-54.52 -37.38,-52.73 -37.27,-50.94 -36.49,-49.14 -35.25,-47.33 -33.73,-45.5 -32.06,-43.64 -30.34,-41.74 -28.71,-39.76 -27.37,-37.62 -26.42,-35.4 -25.22,-33.29 -22.24,-31.27" fill="none" stroke="rgb(134, 130, 19)" stroke-width="2" stroke-linejoin="round" filter="url(#fuzzy)" /><polyline points="-33.61,-68.49 -35.54,-67.12 -37.71,-66.09 -41.43,-64.93 -46.14,-63.59 -50.44,-62.11 -53.4,-60.52 -55.05,-58.85 -56.07,-57.12 -57.32,-55.36 -59.43,-53.58 -62.63,-51.79 -66.8,-49.98 -71.66,-48.14 -76.78,-46.28 -81.77,-44.4 -86.23,-42.49 -90.02,-40.54 -93.35,-38.53 -96.92,-36.47 -101.41,-34.36 -106.64,-32.24 -111.2,-30.09 -114.67,-27.6" fill="none" stroke="rgb(134, 130, 19)" stroke-width="2" stroke-linejoin="round" filter="url(#fuzzy)" /><polyline points="-34.72,-67.53 -36.13,-66.41 -38.12,-65.19 -40.4,-63.99 -42.74,-62.68 -44.92,-61.21 -46.83,-59.58 -48.52,-57.84 -50.11,-56.04 -51.69,-54.22 -53.33,-52.39 -55.04,-50.57 -56.83,-48.73 -58.7,-46.87 -60.61,-44.98 -62.52,-43.05 -64.36,-41.07 -66.04,-39.03 -67.49,-36.95 -68.69,-34.83 -69.65,-32.68 -70.46,-30.48 -71.27,-28.25 -72.23,-25.97 -73.45,-23.65 -74.93,-21.31 -76.6,-18.95 -78.31,-16.59 -79.85,-14.18 -80.99,-11.68 -81.7,-9.06 -82.53,-6.51" fill="none" stroke="rgb(134, 130, 19)" stroke-width="2" stroke-linejoin="round" filter="url(#fuzzy)" /><polyline points="-34.72,-67.53 -38.41,-66.42 -39.42,-65.2 -40.2,-64.01 -41.47,-62.71 -43.4,-61.26 -45.94,-59.64 -48.9,-57.91 -51.96,-56.11 -54.81,-54.3 -57.22,-52.48 -59.17,-50.67 -60.81,-48.85 -62.41,-47.01 -64.24,-45.13 -66.46,-43.22 -69.06,-41.26 -71.88,-39.24 -74.69,-37.17 -77.3,-35.06 -79.69,-32.93 -81.96,-30.77 -84.25,-28.57 -86.49,-26.29 -88.38,-23.94 -89.49,-21.59 -89.84,-19.23 -91.23,-16.47" fill="none" stroke="rgb(134, 130, 19)" stroke-width="2" stroke-linejoin="round" filter="url(#fuzzy)" /><polyline points="-35.48,-66.78 -38.4,-65.12 -39.92,-63.97 -41.37,-62.72 -43.1,-61.26 -45.28,-59.62 -48.01,-57.86 -51.37,-56.05 -55.37,-54.23 -59.93,-52.41 -64.94,-50.6 -70.19,-48.78 -75.48,-46.93 -80.53,-45.06 -85.11,-43.14 -89.13,-41.18 -92.67,-39.16 -96.04,-37.09 -99.65,-34.97 -103.89,-32.84 -108.89,-30.67 -114.44,-28.46 -119.98,-26.18 -124.83,-23.85 -128.55,-21.5 -131.1,-19.16 -133.06,-16.83 -135.14,-14.73" fill="none" stroke="rgb(134, 130, 19)" stroke-width="2" stroke-linejoin="round" filter="url(#fuzzy)" /><polyline points="-38.02,-65.29 -41.75,-63.59 -45.69,-61.98 -49.42,-60.33 -52.83,-58.59 -55.29,-56.8 -56.74,-55 -57.71,-53.19 -58.88,-51.37 -60.73,-49.53 -63.32,-47.66 -66.46,-45.76 -69.76,-43.83 -72.86,-41.86 -75.55,-39.85 -77.89,-37.79 -80.09,-35.68 -82.47,-33.54 -85.22,-31.37 -88.31,-29.16 -91.53,-26.94 -94.65,-24.69 -97.57,-22.42 -100.44,-20.14 -103.62,-17.86 -107.35,-15.57 -111.48,-13.25 -115.51,-10.84 -118.89,-8.31 -121.56,-5.76 -123.75,-3.35 -124.78,-0.99" fill="none" stroke="rgb(134, 130, 19)" stroke-width="2" stroke-linejoin="round" filter="url(#fuzzy)" /><polyline points="65.25,-16.66 76.38,-14.97 74.82,-12.72 72.58,-10.48 72.91,-8.23 75.72,-5.88 79.49,-3.42 82.67,-0.89 84.52,1.63 85.28,4.11 85.63,6.54 86.18,8.94 87.12,11.32 88.28,13.71 89.44,16.11 90.51,18.52 91.66,20.92 93.16,23.28 95.19,25.59 97.71,27.85 100.52,30.06 103.39,32.25 106.16,34.43 108.64,36.56 110.47,38.64 111.32,40.72 111.9,43 114.73,45.43" fill="none" stroke="rgb(134, 130, 19)" stroke-width="2" stroke-linejoin="round" filter="url(#fuzzy)" /><polyline points="-40.52,-62.81 -42.46,-61.37 -45.63,-59.57 -49.29,-57.68 -52.72,-55.78 -55.48,-53.91 -57.56,-52.08 -59.17,-50.25 -60.56,-48.41 -61.94,-46.54 -63.43,-44.62 -65.03,-42.67 -66.62,-40.66 -68.12,-38.6 -69.48,-36.49 -70.76,-34.34 -72.09,-32.15 -73.64,-29.93 -75.51,-27.67 -77.71,-25.37 -80.19,-23.04 -82.82,-20.69 -85.48,-18.31 -88.08,-15.91 -90.6,-13.52 -93.06,-11.12 -95.51,-8.74 -97.97,-6.37 -100.51,-4.03 -103.17,-1.68 -105.97,0.69 -108.78,3.1 -111.26,5.51 -113,7.85 -113.86,10.1 -114.16,12.36 -114.64,14.92 -117.31,17.71" fill="none" stroke="rgb(134, 130, 19)" stroke-width="2" stroke-linejoin="round" filter="url(#fuzzy)" /><polyline points="-42.64,-60.91 -49.18,-58.65 -52.86,-56.62 -55.23,-54.77 -56.81,-52.97 -57.86,-51.16 -58.72,-49.3 -59.65,-47.41 -60.81,-45.49 -62.34,-43.54 -64.32,-41.55 -66.72,-39.52 -69.41,-37.44 -72.12,-35.31 -74.58,-33.15 -76.55,-30.95 -77.95,-28.73 -78.87,-26.49 -79.54,-24.22 -80.23,-21.94 -81.22,-19.64 -82.7,-17.32 -84.76,-14.98 -87.34,-12.61 -90.27,-10.22 -93.32,-7.82 -96.21,-5.41 -98.7,-3.01 -100.65,-0.63 -101.99,1.73 -102.75,4.09 -103.09,6.45 -103.3,8.82 -103.75,11.18 -104.72,13.52 -106.18,15.81 -107.98,17.89 -109.98,19.2" fill="none" stroke="rgb(134, 130, 19)" stroke-width="2" stroke-linejoin="round" filter="url(#fuzzy)" /><polyline points="-44.1,-59.29 -45.43,-57.56 -46.33,-55.66 -46.51,-53.78 -46.22,-51.97 -45.94,-50.18 -45.99,-48.35 -46.47,-46.49 -47.2,-44.58 -47.94,-42.63 -48.55,-40.62 -49,-38.56 -49.36,-36.46 -49.69,-34.31 -49.96,-32.12 -50.06,-29.91 -49.85,-27.65 -49.23,-25.35 -48.21,-23.03 -46.9,-20.67 -45.49,-18.3 -44.18,-15.91 -43.1,-13.51 -42.3,-11.12 -41.65,-8.74 -40.91,-6.38 -39.76,-4.05 -37.9,-1.72 -35.31,0.65 -32.32,3.07 -29.58,5.51 -27.56,7.84 -25.89,9.95 -23.35,12.12 -20.31,14.93" fill="none" stroke="rgb(134, 130, 19)" stroke-width="2" stroke-linejoin="round" filter="url(#fuzzy)" /><polyline points="-45.14,-58.43 -48.1,-56.46 -51.89,-54.66 -55.06,-52.92 -57.93,-51.13 -61.16,-49.27 -64.7,-47.38 -67.94,-45.46 -70.34,-43.51 -71.72,-41.52 -72.28,-39.49 -72.42,-37.41 -72.58,-35.28 -73.08,-33.11 -74.12,-30.92 -75.69,-28.7 -77.67,-26.45 -79.84,-24.19 -81.97,-21.91 -83.9,-19.61 -85.54,-17.29 -86.91,-14.95 -88.07,-12.59 -89.15,-10.2 -90.27,-7.79 -91.5,-5.39 -92.85,-2.99 -94.22,-0.62 -95.46,1.74 -96.43,4.1 -97.06,6.46 -97.41,8.83 -97.63,11.19 -98.03,13.53 -99.04,15.81 -100.88,17.89 -102.89,19.2" fill="none" stroke="rgb(134, 130, 19)" stroke-width="2" stroke-linejoin="round" filter="url(#fuzzy)" /><polyline points="-45.47,-57.67 -46.45,-55.64 -47.07,-53.71 -47.54,-51.91 -47.97,-50.14 -48.47,-48.33 -49.07,-46.47 -49.73,-44.57 -50.44,-42.62 -51.16,-40.61 -51.86,-38.56 -52.5,-36.45 -53.1,-34.3 -53.69,-32.12 -54.27,-29.91 -54.82,-27.65 -55.26,-25.36 -55.51,-23.04 -55.54,-20.69 -55.42,-18.31 -55.22,-15.93 -55.01,-13.53 -54.77,-11.14 -54.38,-8.76 -53.7,-6.41 -52.69,-4.1 -51.44,-1.79 -50.2,0.58 -49.19,3.04 -48.5,5.55 -47.98,7.85 -47.45,9.67 -46.4,11.7" fill="none" stroke="rgb(134, 130, 19)" stroke-width="2" stroke-linejoin="round" filter="url(#fuzzy)" /><polyline points="-46.83,-56.36 -48.46,-54.55 -50.2,-52.93 -52.13,-51.22 -54.56,-49.39 -57.82,-47.51 -62,-45.63 -66.91,-43.74 -72.2,-41.8 -77.48,-39.82 -82.38,-37.79 -86.59,-35.7 -89.88,-33.57 -92.27,-31.42 -94.06,-29.24 -95.73,-27.05 -97.71,-24.84 -100.23,-22.58 -103.26,-20.28 -106.63,-18.01 -110.23,-15.93 -114.87,-14.11 -123.11,-12.39" fill="none" stroke="rgb(134, 130, 19)" stroke-width="2" stroke-linejoin="round" filter="url(#fuzzy)" /><polyline points="64.8,-19.72 66.66,-17.33 69.45,-14.78 70.76,-12.17 70.85,-9.6 70.97,-7.13 71.92,-4.75 73.74,-2.39 75.93,0 77.94,2.43 79.46,4.91 80.45,7.41 81.09,9.9 81.54,12.37 81.9,14.79 82.23,17.16 82.54,19.48 82.85,21.79 83.23,24.1 83.7,26.4 84.26,28.7 84.83,30.97 85.28,33.19 85.52,35.36 85.45,37.5 85.1,39.6 84.5,41.66 83.75,43.68 82.92,45.63 82.08,47.51 81.32,49.34 80.72,51.14 80.22,52.96 79.53,54.79 78.2,56.7 75.74,58.85" fill="none" stroke="rgb(134, 130, 19)" stroke-width="2" stroke-linejoin="round" filter="url(#fuzzy)" /><polyline points="-48.26,-54.35 -45.05,-52.79 -43.17,-51.13 -43.75,-49.23 -45.05,-47.29 -46.58,-45.37 -48.1,-43.43 -49.22,-41.45 -49.52,-39.41 -48.84,-37.33 -47.32,-35.19 -45.3,-33.02 -43.19,-30.82 -41.3,-28.6 -39.77,-26.36 -38.65,-24.09 -37.89,-21.81 -37.45,-19.51 -37.21,-17.2 -36.96,-14.86 -36.43,-12.49 -35.38,-10.1 -33.72,-7.7 -31.57,-5.3 -29.23,-2.91 -27.02,-0.53 -25.15,1.83 -23.62,4.19 -22.29,6.54 -20.94,8.9 -19.39,11.25 -17.46,13.58 -14.99,15.88 -11.65,18.15 -7.2,20.5 -3.97,23.76" fill="none" stroke="rgb(134, 130, 19)" stroke-width="2" stroke-linejoin="round" filter="url(#fuzzy)" /><polyline points="-48.26,-54.35 -62.12,-52.8 -61.67,-51.14 -60.6,-49.25 -62.14,-47.32 -65.85,-45.41 -70.1,-43.48 -73.3,-41.51 -74.71,-39.48 -74.55,-37.41 -73.71,-35.28 -73.19,-33.12 -73.76,-30.93 -75.76,-28.72 -79.11,-26.48 -83.39,-24.23 -88.04,-21.96 -92.47,-19.67 -96.32,-17.37 -99.43,-15.05 -101.87,-12.69 -103.84,-10.3 -105.56,-7.89 -107.29,-5.48 -109.2,-3.1 -111.32,-0.75 -113.62,1.59 -116.11,3.93 -119.02,6.3 -122.68,8.68 -127.14,10.97 -131.62,12.45" fill="none" stroke="rgb(134, 130, 19)" stroke-width="2" stroke-linejoin="round" filter="url(#fuzzy)" /><polyline points="-50.21,-52.3 -52.8,-51.25 -56.31,-49.25 -60.48,-47.24 -65.3,-45.32 -69.34,-43.4 -71.64,-41.43 -72.53,-39.4 -73.1,-37.31 -74.29,-35.18 -76.43,-33.01 -79.31,-30.81 -82.54,-28.59 -85.84,-26.35 -89.1,-24.09 -92.42,-21.81 -95.89,-19.52 -99.57,-17.2 -103.44,-14.87 -107.37,-12.51 -111.09,-10.12 -114.3,-7.72 -116.78,-5.32 -118.58,-2.93 -120.12,-0.56 -122.05,1.79 -124.92,4.14 -128.74,6.5 -132.81,8.86 -135.93,11.21 -137.16,13.54 -136.5,15.82 -135.37,17.89 -137.26,19.2" fill="none" stroke="rgb(134, 130, 19)" stroke-width="2" stroke-linejoin="round" filter="url(#fuzzy)" /><polyline points="-50.87,-51.08 -52.03,-50.04 -54.12,-48.35 -56.01,-46.43 -57.38,-44.51 -58.48,-42.6 -59.63,-40.64 -61.01,-38.6 -62.63,-36.5 -64.37,-34.37 -66.05,-32.22 -67.53,-30.05 -68.71,-27.83 -69.64,-25.56 -70.42,-23.26 -71.17,-20.93 -72.01,-18.59 -72.94,-16.24 -73.96,-13.85 -74.97,-11.43 -75.85,-8.99 -76.5,-6.59 -76.96,-4.17 -77.85,-1.28" fill="none" stroke="rgb(134, 130, 19)" stroke-width="2" stroke-linejoin="round" filter="url(#fuzzy)" /><polyline points="-51.41,-50.37 -53.62,-48.48 -57.48,-46.32 -60.58,-44.33 -62.2,-42.39 -62.91,-40.4 -63.44,-38.31 -64.14,-36.17 -65.05,-34 -66.07,-31.8 -67.11,-29.57 -68.11,-27.3 -69.08,-24.99 -70.06,-22.65 -71.15,-20.29 -72.43,-17.91 -73.99,-15.51 -75.88,-13.12 -78.1,-10.73 -80.59,-8.35 -83.28,-5.99 -86.08,-3.64 -88.87,-1.29 -91.56,1.07 -94.03,3.44 -96.22,5.81 -98.07,8.15 -99.55,10.46 -100.63,12.76 -101.33,15.07 -101.71,17.42 -101.96,19.8 -102.3,22.2 -102.75,24.56 -102.93,26.65 -102.52,27.83" fill="none" stroke="rgb(134, 130, 19)" stroke-width="2" stroke-linejoin="round" filter="url(#fuzzy)" /><polyline points="64.64,-20 66.1,-17.36 66.5,-15.05 66.83,-12.76 67.11,-10.49 67.28,-8.19 67.4,-5.8 67.49,-3.33 67.6,-0.81 67.75,1.71 67.96,4.21 68.23,6.66 68.54,9.09 68.82,11.51 69.01,13.92 69.02,16.33 68.83,18.74 68.44,21.14 67.91,23.5 67.28,25.82 66.63,28.09 65.98,30.33 65.34,32.53 64.72,34.69 64.08,36.81 63.42,38.88 62.69,40.89 61.86,42.83 60.9,44.71 59.78,46.56 58.49,48.42 57.08,50.35 55.67,52.32 54.41,54.18 53.4,55.7 52.47,57.01" fill="none" stroke="rgb(134, 130, 19)" stroke-width="2" stroke-linejoin="round" filter="url(#fuzzy)" /><polyline points="-54.36,-45.62 -54.14,-43.58 -55.53,-41.37 -56.6,-39.25 -57.16,-37.14 -57.44,-34.99 -57.68,-32.81 -57.99,-30.61 -58.33,-28.38 -58.56,-26.15 -58.58,-23.89 -58.31,-21.62 -57.79,-19.32 -57.09,-17.02 -56.34,-14.69 -55.66,-12.33 -55.16,-9.95 -54.85,-7.55 -54.7,-5.15 -54.63,-2.77 -54.52,-0.41 -54.28,1.93 -53.79,4.28 -53,6.62 -51.91,8.97 -50.63,11.31 -49.38,13.63 -48.3,15.92 -47.33,18.17 -46.25,20.51 -45.4,23.76" fill="none" stroke="rgb(134, 130, 19)" stroke-width="2" stroke-linejoin="round" filter="url(#fuzzy)" /><polyline points="-54.36,-45.62 -57.34,-43.6 -60.37,-41.41 -62.24,-39.31 -63.43,-37.23 -64.34,-35.11 -65.13,-32.95 -65.9,-30.77 -66.69,-28.58 -67.51,-26.37 -68.37,-24.14 -69.23,-21.89 -70.08,-19.62 -70.88,-17.35 -71.59,-15.07 -72.22,-12.75 -72.82,-10.38 -73.46,-7.95 -74.18,-5.53 -74.99,-3.18 -75.88,-0.9 -76.91,1.38 -78.11,3.89 -78.98,6.98" fill="none" stroke="rgb(134, 130, 19)" stroke-width="2" stroke-linejoin="round" filter="url(#fuzzy)" /><polyline points="-55.35,-43.96 -58.89,-41.28 -61.62,-39.17 -64.99,-37.13 -68.66,-35.02 -72.04,-32.84 -74.75,-30.65 -76.73,-28.45 -78.24,-26.23 -79.67,-24 -81.33,-21.74 -83.44,-19.47 -86.19,-17.19 -89.67,-14.9 -93.79,-12.57 -98.21,-10.19 -102.43,-7.78 -106.05,-5.38 -109.01,-3.02 -111.59,-0.71 -114.1,1.59 -116.4,3.91 -117.93,6.27 -119.08,8.77 -122.58,12.19" fill="none" stroke="rgb(134, 130, 19)" stroke-width="2" stroke-linejoin="round" filter="url(#fuzzy)" /><polyline points="-57.21,-40.8 -60.16,-38.37 -62.59,-35.89 -63.66,-33.67 -64.27,-31.53 -65.23,-29.35 -66.87,-27.09 -69.13,-24.77 -71.78,-22.41 -74.59,-20.04 -77.44,-17.66 -80.24,-15.27 -82.84,-12.88 -85.1,-10.49 -86.94,-8.12 -88.44,-5.77 -89.78,-3.44 -91.18,-1.09 -92.81,1.26 -94.68,3.62 -96.69,5.97 -98.64,8.3 -100.28,10.61 -101.42,12.91 -101.99,15.21 -102.15,17.55 -102.35,19.91 -103.06,22.3 -104.33,24.66 -105.54,26.99 -106.12,29.46 -107.01,33.06" fill="none" stroke="rgb(134, 130, 19)" stroke-width="2" stroke-linejoin="round" filter="url(#fuzzy)" /><polyline points="-57.21,-40.8 -62.59,-38.39 -66.63,-35.92 -68.48,-33.71 -70.77,-31.6 -74.88,-29.45 -80.78,-27.21 -87.36,-24.9 -93.08,-22.56 -96.85,-20.21 -98.61,-17.85 -99.28,-15.48 -100.16,-13.1 -102.16,-10.72 -105.43,-8.37 -109.38,-6.04 -113.06,-3.75 -115.83,-1.44 -117.76,0.9 -119.68,3.29 -122.75,5.68 -127.61,7.99 -133.65,10.18 -138.88,12.42 -141.79,14.95 -147.1,17.71" fill="none" stroke="rgb(134, 130, 19)" stroke-width="2" stroke-linejoin="round" filter="url(#fuzzy)" /><polyline points="-58.51,-38.45 -59.49,-37.11 -60.64,-34.87 -61.82,-32.59 -63.14,-30.34 -64.6,-28.1 -66.07,-25.85 -67.37,-23.58 -68.5,-21.28 -69.6,-18.97 -70.83,-16.64 -72.3,-14.29 -74.06,-11.92 -76.05,-9.52 -78.18,-7.12 -80.37,-4.72 -82.48,-2.32 -84.37,0.05 -85.88,2.42 -86.89,4.77 -87.39,7.13 -87.48,9.48 -87.38,11.82 -87.31,14.15 -87.42,16.46 -87.7,18.76 -88.03,21.03 -88.24,23.29 -88.22,25.53 -88.09,27.78 -88.05,30.05 -88.37,32.33 -89.11,34.57 -90.04,36.69 -90.8,38.66 -91.22,40.46 -91.83,42.01" fill="none" stroke="rgb(134, 130, 19)" stroke-width="2" stroke-linejoin="round" filter="url(#fuzzy)" /><polyline points="-57.92,-38.88 -65.17,-35.68 -72.16,-33.5 -75.86,-31.46 -77.05,-29.32 -76.94,-27.05 -76.73,-24.72 -77.25,-22.36 -78.75,-19.98 -80.96,-17.6 -83.32,-15.22 -85.35,-12.82 -86.75,-10.44 -87.52,-8.08 -87.91,-5.73 -88.35,-3.4 -89.29,-1.06 -91.05,1.29 -93.64,3.65 -96.75,6 -99.88,8.33 -102.53,10.63 -104.53,12.93 -106.06,15.23 -107.6,17.56 -109.48,19.93 -111.57,22.31 -113.38,24.67 -114.61,26.99 -115.23,29.46 -113.02,33.06" fill="none" stroke="rgb(134, 130, 19)" stroke-width="2" stroke-linejoin="round" filter="url(#fuzzy)" /><polyline points="64.57,-19.62 65.15,-18.88 65.84,-17.08 67.07,-14.81 68.75,-12.34 70.67,-9.84 72.83,-7.41 75.41,-5.05 78.52,-2.73 82.04,-0.38 85.69,2.01 89.26,4.46 92.77,6.94 96.46,9.43 100.46,11.91 104.49,14.33 107.85,16.67 109.82,18.92 110.19,21.1 109.66,23.3 109.65,25.64 111.29,28.18 114.6,30.87 118.53,33.32 123.38,34.52" fill="none" stroke="rgb(134, 130, 19)" stroke-width="2" stroke-linejoin="round" filter="url(#fuzzy)" /><polyline points="-60.34,-33.72 -61.82,-31.56 -62.44,-29.35 -62.99,-27 -63.6,-24.6 -64.27,-22.21 -64.94,-19.84 -65.59,-17.46 -66.18,-15.08 -66.68,-12.68 -67.07,-10.3 -67.37,-7.94 -67.58,-5.6 -67.72,-3.27 -67.8,-0.94 -67.84,1.41 -67.85,3.76 -67.83,6.11 -67.77,8.44 -67.66,10.74 -67.49,13.03 -67.27,15.34 -67,17.67 -66.67,20.03 -66.28,22.4 -65.82,24.76 -65.29,27.1 -64.65,29.45 -63.9,31.78 -63.35,33.35" fill="none" stroke="rgb(134, 130, 19)" stroke-width="2" stroke-linejoin="round" filter="url(#fuzzy)" /><polyline points="-60.92,-32.6 -68.43,-30.34 -73.06,-27.97 -72.64,-25.7 -71.08,-23.44 -70.42,-21.14 -71.05,-18.82 -72.66,-16.5 -74.83,-14.16 -77.16,-11.79 -79.34,-9.39 -81.22,-6.98 -82.83,-4.58 -84.33,-2.19 -85.95,0.17 -87.92,2.53 -90.35,4.88 -93.17,7.23 -96.15,9.57 -98.9,11.9 -101.05,14.23 -102.35,16.54 -102.75,18.83 -102.47,21.09 -101.96,23.34 -101.77,25.58 -102.39,27.82 -103.98,30.08 -106.28,32.36 -108.63,34.59 -110.24,36.71 -110.51,38.67 -109.83,40.46 -111.83,42.01" fill="none" stroke="rgb(134, 130, 19)" stroke-width="2" stroke-linejoin="round" filter="url(#fuzzy)" /><polyline points="-63.61,-24.35 -64.16,-23.4 -65,-21.05 -65.68,-18.58 -66.33,-16.25 -67.03,-13.93 -67.76,-11.57 -68.4,-9.15 -68.95,-6.71 -69.43,-4.29 -69.97,-1.9 -70.62,0.47 -71.39,2.83 -72.23,5.18 -73.05,7.53 -73.75,9.87 -74.23,12.21 -74.42,14.54 -74.28,16.84 -73.81,19.14 -73.05,21.41 -72.11,23.67 -71.13,25.92 -70.25,28.16 -69.56,30.39 -69.06,32.61 -68.7,34.78 -68.4,36.91 -68.02,38.99 -67.49,41.04 -66.73,43.08 -65.72,45.12 -64.49,47.16 -63.13,49.2 -61.84,51.19 -60.78,53.06 -59.92,54.6" fill="none" stroke="rgb(134, 130, 19)" stroke-width="2" stroke-linejoin="round" filter="url(#fuzzy)" /><polyline points="64.38,-21.76 72.01,-20.24 74.49,-18.81 75.39,-16.97 75.63,-14.77 76.1,-12.37 77.18,-9.92 78.68,-7.5 80.13,-5.13 81.18,-2.79 81.8,-0.44 82.28,1.96 82.92,4.41 83.86,6.89 84.97,9.38 86.04,11.86 86.94,14.29 87.72,16.64 88.65,18.89 90.03,21.08 92.1,23.28 94.95,25.62 98.33,28.17 101.27,30.86 102.29,33.31 101.52,34.52" fill="none" stroke="rgb(134, 130, 19)" stroke-width="2" stroke-linejoin="round" filter="url(#fuzzy)" /><polyline points="61.81,-30.36 62.72,-27.75 63.64,-25.1 64.43,-22.54 65.06,-20.09 65.54,-17.73 65.91,-15.42 66.2,-13.14 66.44,-10.86 66.64,-8.54 66.81,-6.17 66.95,-3.74 67.04,-1.26 67.07,1.23 67.03,3.71 66.93,6.15 66.77,8.57 66.55,10.97 66.28,13.36 65.94,15.77 65.55,18.2 65.11,20.62 64.61,23 64.06,25.33 63.47,27.58 62.81,29.78 62.08,32 61.27,34.33 60.43,36.62 59.83,38.21" fill="none" stroke="rgb(134, 130, 19)" stroke-width="2" stroke-linejoin="round" filter="url(#fuzzy)" /><polyline points="60.87,-32.42 61.75,-30.35 62.62,-28.35 63.95,-26.06 66.07,-23.71 68.91,-21.49 71.93,-19.38 74.42,-17.27 75.96,-15.09 76.59,-12.79 76.73,-10.42 76.87,-8.05 77.31,-5.7 78.13,-3.38 79.28,-1.05 80.68,1.31 82.22,3.74 83.79,6.21 85.23,8.72 86.3,11.24 86.77,13.82 86.45,16.61 85.56,20" fill="none" stroke="rgb(134, 130, 19)" stroke-width="2" stroke-linejoin="round" filter="url(#fuzzy)" /><polyline points="60.67,-33.33 61.58,-31.27 62.55,-29.46 63.49,-27.36 64.31,-25.03 65,-22.61 65.58,-20.2 66.09,-17.82 66.56,-15.48 67.06,-13.17 67.68,-10.84 68.51,-8.49 69.57,-6.1 70.87,-3.66 72.29,-1.18 73.69,1.3 74.89,3.78 75.76,6.24 76.24,8.68 76.36,11.11 76.2,13.53 75.88,15.95 75.51,18.37 75.16,20.77 74.9,23.15 74.78,25.48 74.84,27.77 75.06,30.02 75.37,32.23 75.62,34.41 75.61,36.57 75.2,38.68 74.44,40.74 73.57,42.74 72.97,44.57 72.83,45.99 73.06,46.96" fill="none" stroke="rgb(134, 130, 19)" stroke-width="2" stroke-linejoin="round" filter="url(#fuzzy)" /><polyline points="58.46,-37.97 57.99,-38.88 56.65,-40.77 54.48,-42.97 51.79,-45.18 48.98,-47.27 46.34,-49.19 43.95,-50.98 41.75,-52.67 39.57,-54.31 37.28,-55.94 34.83,-57.56 32.3,-59.17 29.85,-60.74 27.6,-62.25 25.61,-63.69 23.87,-65.05 22.35,-66.34 20.95,-67.58 19.53,-68.74 17.92,-69.82 15.91,-70.84 13.42,-71.82 10.67,-72.79 8.33,-73.78 7.44,-74.68" fill="none" stroke="rgb(134, 130, 19)" stroke-width="2" stroke-linejoin="round" filter="url(#fuzzy)" /><polyline points="58.61,-38.5 58.1,-40.09 58.38,-42.01 58.72,-44.07 58.44,-46.09 57.6,-48.02 56.59,-49.82 55.67,-51.55 54.78,-53.23 53.77,-54.9 52.47,-56.55 50.86,-58.18 49.03,-59.8 47.11,-61.4 45.25,-62.96 43.52,-64.47 41.93,-65.92 40.45,-67.3 39,-68.61 37.56,-69.85 36.09,-71 34.6,-72.03 33.11,-72.96 31.59,-73.78 29.97,-74.52 28.24,-75.19 27.43,-75.68" fill="none" stroke="rgb(134, 130, 19)" stroke-width="2" stroke-linejoin="round" filter="url(#fuzzy)" /><polyline points="58.49,-37.98 57.35,-40.56 56.38,-43.02 55.69,-45.33 55.17,-47.44 54.76,-49.36 54.66,-51.14 55.13,-52.82 56.21,-54.46 57.55,-56.09 58.6,-57.71 58.89,-59.32 58.23,-60.88 56.77,-62.38 54.86,-63.81 52.88,-65.16 51.05,-66.45 49.45,-67.66 48,-68.82 46.54,-69.91 44.87,-70.95 42.83,-71.94 40.38,-72.91 37.65,-73.84 34.85,-74.73 32.17,-75.56 29.57,-76.3 26.83,-76.93 23.85,-77.44 21.52,-77.85" fill="none" stroke="rgb(134, 130, 19)" stroke-width="2" stroke-linejoin="round" filter="url(#fuzzy)" /><polyline points="57.68,-39.93 56.64,-41.99 55.53,-44.17 54.55,-46.27 53.71,-48.21 52.9,-50.02 52.02,-51.75 51.08,-53.44 50.13,-55.12 49.18,-56.78 48.19,-58.43 47.09,-60.05 45.86,-61.64 44.48,-63.19 42.98,-64.68 41.39,-66.11 39.73,-67.46 38.04,-68.74 36.34,-69.93 34.64,-71.02 32.95,-72.03 31.22,-72.94 29.44,-73.78 27.54,-74.54 25.51,-75.24 23.35,-75.88 21.07,-76.48 18.69,-77.03 16.24,-77.53 13.7,-77.96 11.08,-78.33 8.38,-78.63 5.63,-78.83 2.85,-78.95 -0.01,-78.98 -3.15,-78.96 -6.79,-78.89 -10.83,-78.73" fill="none" stroke="rgb(134, 130, 19)" stroke-width="2" stroke-linejoin="round" filter="url(#fuzzy)" /><polyline points="55.99,-43.34 56.07,-45.66 58.57,-47.79 61.86,-49.66 64.3,-51.37 65.14,-53.01 64.49,-54.62 62.8,-56.25 60.47,-57.88 57.72,-59.49 54.73,-61.05 51.7,-62.55 48.85,-63.96 46.38,-65.3 44.37,-66.58 42.8,-67.79 41.56,-68.93 40.48,-70.02 39.38,-71.05 38.1,-72.04 36.49,-72.99 34.5,-73.89 32.14,-74.73 29.52,-75.51 26.79,-76.2 24.11,-76.8 21.54,-77.32 19.04,-77.75 16.45,-78.11 13.59,-78.41 10.37,-78.66 6.85,-78.86 2.87,-78.99 -2.99,-79.09" fill="none" stroke="rgb(134, 130, 19)" stroke-width="2" stroke-linejoin="round" filter="url(#fuzzy)" /><polyline points="55.99,-43.34 57.55,-45.65 58.96,-47.76 60,-49.63 59.72,-51.32 58.27,-52.94 56.43,-54.54 54.83,-56.15 53.63,-57.78 52.63,-59.39 51.55,-60.96 50.21,-62.45 48.6,-63.87 46.83,-65.21 45.01,-66.49 43.18,-67.7 41.3,-68.85 39.35,-69.93 37.36,-70.96 35.39,-71.95 33.49,-72.91 31.62,-73.84 29.65,-74.74 27.49,-75.59 25.17,-76.34 22.78,-76.97 19.9,-77.47" fill="none" stroke="rgb(134, 130, 19)" stroke-width="2" stroke-linejoin="round" filter="url(#fuzzy)" /><polyline points="55.3,-44.62 56.2,-46.55 58.27,-48.46 60.15,-50.2 59.98,-51.86 58.07,-53.51 55.71,-55.18 53.88,-56.83 52.79,-58.47 52.12,-60.1 51.44,-61.69 50.4,-63.24 48.9,-64.73 47.01,-66.16 44.89,-67.51 42.7,-68.78 40.58,-69.97 38.56,-71.07 36.65,-72.07 34.82,-72.98 33.03,-73.8 31.23,-74.56 29.36,-75.25 27.35,-75.9 25.11,-76.5 22.58,-77.06 19.75,-77.57 16.66,-78.02 13.36,-78.41 9.94,-78.73 6.63,-78.94 3.77,-79.01 1.28,-79.02" fill="none" stroke="rgb(134, 130, 19)" stroke-width="2" stroke-linejoin="round" filter="url(#fuzzy)" /><polyline points="54.55,-45.74 53.02,-47.97 51.84,-49.8 50.77,-51.44 49.69,-53.02 48.52,-54.6 47.25,-56.21 45.86,-57.85 44.39,-59.46 42.88,-61.03 41.34,-62.52 39.78,-63.93 38.2,-65.27 36.59,-66.54 34.97,-67.74 33.34,-68.89 31.69,-69.97 29.99,-70.99 28.21,-71.98 26.32,-72.94 24.32,-73.86 22.24,-74.75 20.11,-75.58 18.01,-76.32 15.95,-76.94 13.94,-77.44 12.2,-77.85" fill="none" stroke="rgb(134, 130, 19)" stroke-width="2" stroke-linejoin="round" filter="url(#fuzzy)" /><polyline points="54.55,-45.74 70.97,-47.95 67.65,-49.78 63.31,-51.41 61.39,-52.98 60.66,-54.54 59.89,-56.14 58.88,-57.77 58.02,-59.39 57.59,-60.95 57.58,-62.44 57.83,-63.85 58.21,-65.19 58.67,-66.46 59.06,-67.68 59.1,-68.82 58.43,-69.89 56.83,-70.9 54.4,-71.88 51.49,-72.84 48.44,-73.79 45.32,-74.7 42.41,-75.53" fill="none" stroke="rgb(134, 130, 19)" stroke-width="2" stroke-linejoin="round" filter="url(#fuzzy)" /><polyline points="54.09,-46.38 52.84,-48.58 51.86,-50.28 50.8,-51.86 49.58,-53.48 48.23,-55.12 46.81,-56.77 45.31,-58.39 43.74,-60 42.08,-61.59 40.36,-63.14 38.58,-64.64 36.76,-66.07 34.91,-67.43 33.04,-68.72 31.2,-69.94 29.42,-71.06 27.73,-72.08 26.12,-72.99 24.52,-73.8 22.89,-74.52 21.28,-75.17 19.85,-75.72 18.61,-76.2" fill="none" stroke="rgb(134, 130, 19)" stroke-width="2" stroke-linejoin="round" filter="url(#fuzzy)" /><polyline points="54.09,-46.38 58.3,-48.6 56.72,-50.32 54.6,-51.92 53.06,-53.55 52.28,-55.22 52.16,-56.88 52.33,-58.52 52.35,-60.14 51.88,-61.73 50.82,-63.28 49.24,-64.77 47.31,-66.2 45.22,-67.55 43.14,-68.82 41.15,-70 39.31,-71.1 37.6,-72.09 36,-73 34.47,-73.82 32.93,-74.57 31.29,-75.26 29.4,-75.91 27.17,-76.51 24.54,-77.06 21.53,-77.57 18.17,-78.02 14.52,-78.42 10.69,-78.73 7.04,-78.94 3.98,-79.01 1.39,-79.02" fill="none" stroke="rgb(134, 130, 19)" stroke-width="2" stroke-linejoin="round" filter="url(#fuzzy)" /><polyline points="51.01,-51.03 50.38,-51.95 49.48,-53.59 48.51,-55.33 47.28,-57.02 45.73,-58.67 43.97,-60.29 42.12,-61.89 40.27,-63.44 38.44,-64.93 36.62,-66.34 34.82,-67.68 33.04,-68.94 31.3,-70.11 29.61,-71.18 27.95,-72.17 26.3,-73.06 24.62,-73.87 22.9,-74.62 21.1,-75.3 19.21,-75.94 17.24,-76.52 15.18,-77.06 13.05,-77.54 10.85,-77.96 8.62,-78.32 6.39,-78.59 4.16,-78.79 1.96,-78.9 -0.29,-78.94 -2.64,-78.91 -5.16,-78.82 -7.74,-78.67 -10.11,-78.46 -11.72,-78.17" fill="none" stroke="rgb(134, 130, 19)" stroke-width="2" stroke-linejoin="round" filter="url(#fuzzy)" /><polyline points="50.99,-50.95 52.58,-53.16 53.25,-54.75 51.47,-56.35 48.97,-58.02 46.72,-59.68 44.89,-61.25 43.43,-62.73 42.23,-64.12 41.22,-65.43 40.32,-66.68 39.45,-67.87 38.49,-69 37.31,-70.07 35.79,-71.09 33.88,-72.06 31.66,-73.01 29.29,-73.92 26.96,-74.78 24.77,-75.58 22.7,-76.29 20.65,-76.9 18.57,-77.4 16.54,-77.8 14.67,-78.14 12.73,-78.47" fill="none" stroke="rgb(134, 130, 19)" stroke-width="2" stroke-linejoin="round" filter="url(#fuzzy)" /><polyline points="48.8,-54.11 49.35,-54.92 48.53,-56.37 48.25,-58.06 48.57,-59.75 48.87,-61.34 48.8,-62.8 48.28,-64.18 47.4,-65.48 46.25,-66.73 44.96,-67.91 43.69,-69.04 42.62,-70.1 41.83,-71.11 41.24,-72.08 40.58,-73.03 39.5,-73.94 37.67,-74.8 34.96,-75.59 31.62,-76.3 28.18,-76.9 25.21,-77.4 22.97,-77.8 21.06,-78.14 18.27,-78.47" fill="none" stroke="rgb(134, 130, 19)" stroke-width="2" stroke-linejoin="round" filter="url(#fuzzy)" /><polyline points="46.52,-56.41 46.76,-58.15 46.98,-59.97 46.63,-61.57 46.37,-62.99 46.27,-64.31 45.82,-65.59 44.6,-66.83 42.68,-68.01 40.48,-69.12 38.49,-70.17 36.97,-71.16 35.91,-72.13 35.13,-73.06 34.37,-73.97 33.33,-74.83 31.73,-75.62 29.42,-76.32 26.46,-76.91 23.25,-77.41 20.36,-77.81 18.16,-78.15 16.47,-78.47" fill="none" stroke="rgb(134, 130, 19)" stroke-width="2" stroke-linejoin="round" filter="url(#fuzzy)" /><polyline points="45.21,-58.2 43.08,-60.36 41.29,-62.18 39.75,-63.8 38.34,-65.28 36.88,-66.66 35.28,-67.97 33.54,-69.21 31.72,-70.36 29.91,-71.41 28.12,-72.37 26.33,-73.23 24.52,-74.01 22.67,-74.73 20.78,-75.4 18.84,-76.02 16.85,-76.59 14.81,-77.11 12.72,-77.58 10.58,-77.98 8.38,-78.31 6.15,-78.57 3.91,-78.75 1.64,-78.85 -0.66,-78.87 -3.03,-78.83 -5.46,-78.73 -7.9,-78.56 -10.25,-78.32 -12.45,-78.01 -14.54,-77.63 -16.79,-77.13 -19.88,-76.38" fill="none" stroke="rgb(134, 130, 19)" stroke-width="2" stroke-linejoin="round" filter="url(#fuzzy)" /><polyline points="45.21,-58.2 43.07,-60.36 41.25,-62.18 39.6,-63.8 37.98,-65.28 36.32,-66.67 34.59,-67.98 32.83,-69.21 31.08,-70.37 29.38,-71.42 27.72,-72.37 26.08,-73.23 24.42,-74.02 22.73,-74.74 20.98,-75.4 19.16,-76.02 17.24,-76.59 15.23,-77.11 13.13,-77.57 10.94,-77.97 8.67,-78.3 6.35,-78.56 3.99,-78.73 1.57,-78.83 -0.92,-78.85 -3.48,-78.81 -6.1,-78.7 -8.7,-78.53 -11.21,-78.28 -13.6,-77.96 -15.98,-77.56 -18.58,-77.04 -21.66,-76.4 -25.16,-75.66" fill="none" stroke="rgb(134, 130, 19)" stroke-width="2" stroke-linejoin="round" filter="url(#fuzzy)" /><polyline points="42.76,-60.72 42.33,-62.37 43.42,-63.93 43.1,-65.38 41.29,-66.74 39.19,-68.04 37.57,-69.28 36.39,-70.43 35.25,-71.48 33.82,-72.42 32,-73.28 29.89,-74.05 27.62,-74.77 25.33,-75.43 23.08,-76.04 20.89,-76.61 18.69,-77.13 16.41,-77.58 13.96,-77.98 11.28,-78.3 8.35,-78.55 5.22,-78.72 1.89,-78.82 -1.62,-78.84 -5.29,-78.79 -9.09,-78.68 -12.96,-78.5 -16.82,-78.24 -20.68,-77.92 -24.65,-77.51 -28.92,-77.02 -33.45,-76.47 -37.48,-75.97 -39.26,-75.79" fill="none" stroke="rgb(134, 130, 19)" stroke-width="2" stroke-linejoin="round" filter="url(#fuzzy)" /><polyline points="39.76,-63.91 46.06,-64.66 42.85,-65.88 39.43,-67.15 37.63,-68.34 36.84,-69.44 36.15,-70.46 35,-71.44 33.36,-72.39 31.41,-73.31 29.35,-74.18 27.26,-74.98 25.1,-75.71 22.82,-76.35 20.4,-76.9 17.85,-77.38 15.21,-77.77 12.49,-78.1 9.7,-78.38 6.81,-78.59 3.78,-78.74 0.61,-78.83 -2.72,-78.85 -6.19,-78.79 -9.81,-78.65 -13.6,-78.43 -17.6,-78.15 -21.84,-77.82 -26.31,-77.45 -30.94,-77.02 -36.21,-76.4" fill="none" stroke="rgb(134, 130, 19)" stroke-width="2" stroke-linejoin="round" filter="url(#fuzzy)" /><polyline points="39.37,-64.17 35.72,-65.8 32.88,-67.21 31.05,-68.43 29.33,-69.51 27.26,-70.52 24.77,-71.49 21.9,-72.44 18.79,-73.36 15.65,-74.22 12.72,-75.02 10.2,-75.75 8.2,-76.38 6.71,-76.93 5.62,-77.39 4.78,-77.78 4.06,-78.11 3.33,-78.37 2.53,-78.58 1.65,-78.72 0.7,-78.8 -0.27,-78.81 -1.21,-78.74 -2.06,-78.59 -2.75,-78.37 -3.24,-78.08 -3.48,-77.73 -3.5,-77.31 -3.37,-76.8 -3.24,-76.17 -3.26,-75.45 -3.46,-74.83" fill="none" stroke="rgb(134, 130, 19)" stroke-width="2" stroke-linejoin="round" filter="url(#fuzzy)" /><polyline points="35.48,-67.21 34.35,-68.22 33.94,-69.53 33.56,-70.73 32.68,-71.76 31.19,-72.67 29.19,-73.47 26.89,-74.21 24.49,-74.9 22.18,-75.54 20,-76.14 17.94,-76.7 15.92,-77.2 13.85,-77.65 11.68,-78.03 9.37,-78.33 6.92,-78.56 4.33,-78.71 1.58,-78.79 -1.34,-78.8 -4.46,-78.73 -7.78,-78.6 -11.3,-78.4 -15.01,-78.12 -18.87,-77.78 -22.84,-77.37 -26.84,-76.89 -30.79,-76.34 -34.6,-75.74 -38.26,-75.09 -41.87,-74.36 -45.55,-73.61 -49.3,-72.88 -53.18,-72.08" fill="none" stroke="rgb(134, 130, 19)" stroke-width="2" stroke-linejoin="round" filter="url(#fuzzy)" /><polyline points="34.83,-67.51 35.88,-68.68 38.7,-69.66 39.57,-70.6 38.07,-71.54 35.19,-72.47 31.93,-73.39 28.94,-74.27 26.47,-75.08 24.44,-75.8 22.56,-76.44 20.55,-76.98 18.25,-77.44 15.66,-77.82 12.86,-78.15 9.96,-78.42 7.02,-78.64 4.01,-78.8 0.84,-78.91 -2.59,-78.94 -6.4,-78.89 -10.71,-78.75 -15.58,-78.52 -20.66,-78.22 -23.86,-77.93" fill="none" stroke="rgb(134, 130, 19)" stroke-width="2" stroke-linejoin="round" filter="url(#fuzzy)" /><polyline points="31.2,-69.85 29.21,-71.06 27.5,-71.98 25.8,-72.8 24.04,-73.56 22.23,-74.27 20.36,-74.94 18.43,-75.58 16.42,-76.18 14.34,-76.73 12.22,-77.24 10.11,-77.69 8.06,-78.07 6.13,-78.39 4.33,-78.62 2.66,-78.78 1.1,-78.85 -0.4,-78.86 -1.86,-78.81 -3.27,-78.68 -4.61,-78.5 -5.86,-78.24 -7.04,-77.91 -8.17,-77.5 -9.26,-77.01 -10.29,-76.46 -11,-75.97 -10.91,-75.79" fill="none" stroke="rgb(134, 130, 19)" stroke-width="2" stroke-linejoin="round" filter="url(#fuzzy)" /><polyline points="32.1,-69.58 31.5,-70.66 31.62,-71.61 30.37,-72.57 27.92,-73.5 25.09,-74.39 22.5,-75.19 20.38,-75.9 18.66,-76.52 17.12,-77.04 15.54,-77.48 13.72,-77.86 11.58,-78.17 9.11,-78.42 6.41,-78.62 3.58,-78.77 0.67,-78.84 -2.31,-78.85 -5.37,-78.77 -8.58,-78.62 -11.94,-78.4 -15.42,-78.11 -18.96,-77.77 -22.54,-77.37 -26.3,-76.87 -30.4,-76.2 -34.3,-75.25" fill="none" stroke="rgb(134, 130, 19)" stroke-width="2" stroke-linejoin="round" filter="url(#fuzzy)" /><polyline points="32.1,-69.58 30.31,-70.65 28.81,-71.6 27.33,-72.55 25.64,-73.48 23.67,-74.36 21.54,-75.17 19.38,-75.89 17.28,-76.51 15.24,-77.04 13.26,-77.48 11.29,-77.86 9.3,-78.17 7.26,-78.44 5.17,-78.65 3.03,-78.81 0.84,-78.91 -1.39,-78.95 -3.68,-78.89 -6.06,-78.75 -8.58,-78.51 -11.17,-78.22 -12.84,-77.93" fill="none" stroke="rgb(134, 130, 19)" stroke-width="2" stroke-linejoin="round" filter="url(#fuzzy)" /><polyline points="32.1,-69.58 28.75,-70.67 26.14,-71.63 24.41,-72.6 22.86,-73.54 21.18,-74.42 19.35,-75.22 17.43,-75.93 15.47,-76.54 13.5,-77.05 11.54,-77.49 9.58,-77.85 7.66,-78.15 5.78,-78.39 3.95,-78.57 2.18,-78.69 0.45,-78.73 -1.23,-78.71 -2.87,-78.61 -4.46,-78.43 -6.01,-78.18 -7.5,-77.85 -8.89,-77.45 -10.15,-76.97 -11.26,-76.42 -12.19,-75.8 -12.96,-75.11 -13.58,-74.36 -14.09,-73.56 -14.54,-72.7 -14.98,-71.77 -15.43,-70.74 -15.89,-69.61 -16.26,-68.39 -16.42,-67.2 -16.42,-66.18 -17,-65.29" fill="none" stroke="rgb(134, 130, 19)" stroke-width="2" stroke-linejoin="round" filter="url(#fuzzy)" /><polyline points="29.66,-70.91 27.49,-71.67 25.21,-72.61 22.97,-73.56 20.52,-74.45 17.86,-75.26 15.21,-75.97 12.82,-76.57 10.79,-77.08 9.11,-77.51 7.65,-77.88 6.28,-78.18 4.92,-78.42 3.53,-78.61 2.15,-78.74 0.81,-78.8 -0.43,-78.79 -1.55,-78.7 -2.56,-78.53 -3.47,-78.3 -4.31,-77.99 -5.08,-77.61 -5.75,-77.16 -6.3,-76.63 -6.71,-76 -7,-75.3 -7.19,-74.55 -7.26,-73.8 -7.08,-73.08 -6.25,-72.38" fill="none" stroke="rgb(134, 130, 19)" stroke-width="2" stroke-linejoin="round" filter="url(#fuzzy)" /><polyline points="24.62,-73.8 26.38,-74.46 27.05,-75.09 25.23,-75.7 22.73,-76.29 20.39,-76.85 18.23,-77.35 15.99,-77.79 13.53,-78.17 10.84,-78.47 7.98,-78.69 4.96,-78.83 1.76,-78.9 -1.67,-78.9 -5.32,-78.83 -9.11,-78.71 -12.93,-78.53 -16.69,-78.28 -20.46,-77.95 -24.54,-77.54 -29.46,-77.03 -35.87,-76.39 -44.19,-75.66" fill="none" stroke="rgb(134, 130, 19)" stroke-width="2" stroke-linejoin="round" filter="url(#fuzzy)" /><polyline points="22.76,-74.44 20.74,-75.15 19.06,-75.75 17.23,-76.35 15.25,-76.91 13.21,-77.41 11.13,-77.84 9.03,-78.2 6.94,-78.48 4.87,-78.68 2.84,-78.81 0.83,-78.85 -1.19,-78.83 -3.21,-78.74 -5.22,-78.58 -7.18,-78.36 -9.08,-78.07 -10.92,-77.71 -12.73,-77.28 -14.52,-76.78 -16.29,-76.23 -18.05,-75.61 -19.77,-74.94 -21.45,-74.2 -23.12,-73.41 -24.79,-72.53 -26.49,-71.56 -28.22,-70.48 -29.95,-69.23 -32.05,-67.53" fill="none" stroke="rgb(134, 130, 19)" stroke-width="2" stroke-linejoin="round" filter="url(#fuzzy)" /><polyline points="19.59,-75.68 18.37,-76.35 17.44,-76.99 15.95,-77.49 13.64,-77.91 10.9,-78.27 8.15,-78.54 5.54,-78.74 3.02,-78.85 0.45,-78.89 -2.25,-78.86 -5.12,-78.77 -8.15,-78.61 -11.31,-78.38 -14.58,-78.09 -17.98,-77.73 -21.54,-77.3 -25.23,-76.8 -28.99,-76.25 -32.73,-75.64 -36.44,-74.97 -40.23,-74.24 -44.42,-73.46 -49.37,-72.6 -55.15,-71.66 -60.91,-70.63 -64.86,-69.85" fill="none" stroke="rgb(134, 130, 19)" stroke-width="2" stroke-linejoin="round" filter="url(#fuzzy)" /><polyline points="16.82,-76.61 15.98,-76.98 14.46,-77.37 12.73,-77.73 10.86,-78.04 8.82,-78.31 6.63,-78.54 4.35,-78.7 2.02,-78.8 -0.33,-78.83 -2.69,-78.78 -5.07,-78.66 -7.51,-78.45 -10.03,-78.18 -12.67,-77.83 -15.45,-77.41 -18.37,-76.91 -21.43,-76.34 -24.56,-75.7 -27.72,-75 -30.84,-74.24 -33.91,-73.42 -36.96,-72.54 -40.12,-71.58 -43.5,-70.55 -47.2,-69.45 -51.15,-68.28 -55.14,-67.1 -58.85,-65.9 -62.16,-64.66 -65.37,-63.32 -69.12,-61.94 -73.92,-60.91" fill="none" stroke="rgb(134, 130, 19)" stroke-width="2" stroke-linejoin="round" filter="url(#fuzzy)" /><polyline points="16.11,-76.95 13.75,-77.39 11.96,-77.76 10.15,-78.07 8.21,-78.34 6.17,-78.56 4.1,-78.73 2.01,-78.83 -0.1,-78.86 -2.22,-78.82 -4.36,-78.69 -6.51,-78.49 -8.66,-78.22 -10.81,-77.87 -12.94,-77.46 -15.07,-76.97 -17.21,-76.41 -19.34,-75.77 -21.48,-75.07 -23.61,-74.32 -25.71,-73.52 -27.8,-72.67 -29.88,-71.74 -31.98,-70.71 -34.15,-69.57 -36.36,-68.36 -38.5,-67.18 -40.34,-66.17 -42.11,-65.29" fill="none" stroke="rgb(134, 130, 19)" stroke-width="2" stroke-linejoin="round" filter="url(#fuzzy)" /><polyline points="13.95,-77.51 12.71,-77.69 10.93,-78 8.81,-78.34 6.63,-78.62 4.54,-78.8 2.54,-78.9 0.56,-78.91 -1.44,-78.86 -3.47,-78.75 -5.47,-78.58 -7.41,-78.34 -9.27,-78.03 -11.03,-77.64 -12.71,-77.2 -14.33,-76.68 -15.91,-76.11 -17.48,-75.47 -19.05,-74.78 -20.64,-74.02 -22.27,-73.18 -23.92,-72.26 -25.58,-71.25 -27.19,-70.14 -28.72,-68.93 -30.13,-67.64 -31.38,-66.33 -32.44,-65.08 -33.27,-63.98 -34.12,-62.81" fill="none" stroke="rgb(134, 130, 19)" stroke-width="2" stroke-linejoin="round" filter="url(#fuzzy)" /><polyline points="13,-77.61 11.08,-77.97 8.84,-78.36 6.56,-78.66 4.44,-78.84 2.46,-78.93 0.51,-78.93 -1.47,-78.88 -3.48,-78.76 -5.47,-78.58 -7.44,-78.34 -9.35,-78.02 -11.2,-77.64 -12.99,-77.18 -14.7,-76.66 -16.31,-76.08 -17.83,-75.45 -19.24,-74.74 -20.57,-73.98 -21.84,-73.13 -23.07,-72.21 -24.28,-71.19 -25.46,-70.07 -26.55,-68.87 -27.5,-67.6 -28.3,-66.32 -29.03,-65.08 -29.78,-63.94 -30.6,-62.86 -31.38,-61.78" fill="none" stroke="rgb(134, 130, 19)" stroke-width="2" stroke-linejoin="round" filter="url(#fuzzy)" /><polyline points="13,-77.61 11.58,-77.96 9.75,-78.35 7.51,-78.66 5.18,-78.85 2.87,-78.93 0.49,-78.95 -2.06,-78.9 -4.84,-78.79 -7.83,-78.63 -11.02,-78.4 -14.4,-78.1 -17.94,-77.73 -21.62,-77.29 -25.37,-76.79 -29.14,-76.23 -32.94,-75.62 -36.93,-74.95 -41.3,-74.23 -46.17,-73.44 -51.35,-72.59 -56.38,-71.65 -60.81,-70.63 -64.7,-69.85" fill="none" stroke="rgb(134, 130, 19)" stroke-width="2" stroke-linejoin="round" filter="url(#fuzzy)" /><polyline points="4.99,-78.71 3.38,-78.89 1.58,-78.97 -0.33,-78.99 -2.25,-78.91 -4.17,-78.75 -6.08,-78.51 -7.93,-78.2 -9.69,-77.82 -11.36,-77.37 -12.94,-76.84 -14.47,-76.24 -16,-75.57 -17.55,-74.84 -19.13,-74.05 -20.7,-73.2 -22.17,-72.29 -23.48,-71.3 -24.53,-70.25 -25.28,-69.14 -25.75,-67.97 -26.02,-66.75 -26.18,-65.49 -26.35,-64.15 -26.58,-62.74 -26.86,-61.24 -27.14,-59.63 -27.39,-57.94 -27.64,-56.2 -27.91,-54.44 -28.25,-52.7 -28.64,-50.86 -28.98,-48.67 -29.22,-46.09" fill="none" stroke="rgb(134, 130, 19)" stroke-width="2" stroke-linejoin="round" filter="url(#fuzzy)" /><polyline points="4.99,-78.71 3.37,-78.89 1.44,-78.97 -0.68,-78.99 -2.93,-78.91 -5.33,-78.75 -7.88,-78.5 -10.48,-78.19 -13.04,-77.8 -15.57,-77.35 -18.1,-76.82 -20.73,-76.21 -23.47,-75.54 -26.32,-74.8 -29.2,-74 -32.03,-73.14 -34.76,-72.22 -37.36,-71.23 -39.87,-70.18 -42.38,-69.06 -45.02,-67.88 -47.86,-66.65 -50.95,-65.36 -54.26,-64.01 -57.74,-62.58 -61.31,-61.06 -64.9,-59.46 -68.5,-57.78 -72.13,-56.05 -75.82,-54.27 -79.6,-52.47 -83.41,-50.64 -87.11,-48.78 -90.57,-46.92 -93.93,-45.12 -97.55,-43.23 -101.27,-40.65" fill="none" stroke="rgb(134, 130, 19)" stroke-width="2" stroke-linejoin="round" filter="url(#fuzzy)" /><polyline points="3.82,-79.1 2.53,-79.03 0.52,-79 -2.04,-78.94 -4.9,-78.83 -7.78,-78.65 -10.52,-78.39 -13.11,-78.06 -15.64,-77.67 -18.22,-77.2 -20.91,-76.67 -23.74,-76.09 -26.72,-75.45 -29.86,-74.75 -33.23,-73.99 -36.92,-73.15 -40.97,-72.23 -45.43,-71.22 -50.24,-70.1 -55.27,-68.89 -60.27,-67.6 -65.1,-66.3 -69.97,-65.06 -75.3,-63.97 -79.77,-62.81" fill="none" stroke="rgb(134, 130, 19)" stroke-width="2" stroke-linejoin="round" filter="url(#fuzzy)" /><polyline points="3.27,-78.99 1.65,-79.01 -0.65,-79.03 -3,-78.96 -5.24,-78.79 -7.4,-78.55 -9.57,-78.24 -11.89,-77.86 -14.46,-77.43 -17.34,-76.91 -20.44,-76.32 -23.61,-75.66 -26.68,-74.94 -29.55,-74.16 -32.2,-73.34 -34.74,-72.45 -37.27,-71.49 -39.89,-70.45 -42.61,-69.34 -45.42,-68.18 -48.32,-67 -51.37,-65.79 -54.61,-64.54 -58,-63.21 -61.24,-61.8 -64.27,-60.3 -68.81,-58.43" fill="none" stroke="rgb(134, 130, 19)" stroke-width="2" stroke-linejoin="round" filter="url(#fuzzy)" />
    </g>
    
        <g id="lineNose">
        <path d="M -8.45,-5.01 Q 10.94, 0.28500000000000003 1.245, -4.2" fill="none" stroke="black" stroke-width="3" stroke-linejoin="round" filter="url(#fuzzy)"></path>
        </g>
      
    <g id="mouth">
      <polyline points="9.76,52.8 9.65,52.98 9.59,52.98 9.26,54.23 9.46,53.91 9.39,53.91 8.81,54.83 8.7,55.09 8.59,55.17 8.6,55.28 8.05,55.81 8.25,55.77 7.83,56.05 7.69,56.3 7.18,56.64 7.68,56.23 6.67,56.97 6.63,57.06 5.71,57.6 6.24,57.25 6.04,57.38 5.49,57.74 4.95,58.02 4.23,58.24 4.42,58.15 3.55,58.54 2.9,58.74 3.59,58.5 2.85,58.68 1.72,59 1.33,59.04 1.72,59.02 0.65,59.19 0.39,59.24 0.85,59.14 -1.21,59.38 -1.41,59.43 -1.03,59.39 -2.05,59.43 -2.73,59.46 -2.57,59.44 -2.77,59.46 -3.06,59.44 -4.02,59.42 -4.3,59.42 -4.5,59.4 -5.62,59.31 -6.97,59.14 -5.92,59.28 -7.42,59.07 -7.8,59 -8.18,58.93 -8.46,58.87 -10.02,58.5 -9.84,58.54 -10.73,58.29 -11.08,58.18 -11.28,58.12 -12.53,57.69 -12.46,57.7 -13,57.51 -12.49,57.69 -14.16,57.01 -13.15,57.43 -14.45,56.82 -15.11,56.52 -14.72,56.72 -15.45,56.31 -15.97,56.02 -16.31,55.84 -16.7,55.55 -17.52,54.98 -16.88,55.5 -17.93,54.71 -18.47,54.21 -17.74,54.85 -18.7,54.08 -19.18,53.57 -19.68,53.1 -19.89,52.82 -19.78,52.99 -19.9,52.88 -20.05,52.69 -20.29,52.4 -20.6,51.93 -21,51.19 -21.22,50.96 -21.33,50.59 -21.53,50.19 -21.32,50.82 -21.61,49.79 -21.75,49.49 -21.86,49.27 -21.77,49.28 -21.86,48.61 -21.85,48.78 -21.95,48.11 -22,47.99 -21.92,47.53 -21.87,47.8 -21.72,46.79 -21.83,47.32 -21.82,47.03 -21.56,46.04 -21.31,45.71 -21.2,45.44 -21.37,45.67 -20.79,44.85 -20.56,44.53 -20.74,44.75 -20.5,44.34 -20.64,44.65 -19.73,43.68 -19.86,43.73 -19.78,43.64 -19.21,43.15 -19.48,43.34 -18.92,42.94 -18.23,42.51 -18.47,42.68 -18.2,42.57 -17.65,42.21 -16.5,41.77 -16.93,41.89 -16.17,41.61 -16.15,41.6 -16.28,41.7 -15.38,41.41 -15.31,41.35 -15.14,41.31 -14.5,41.12 -13.9,41 -13.39,40.88 -12.17,40.72 -11.42,40.64 -12.46,40.74 -11.2,40.63 -11.16,40.63 -9.95,40.56 -10.24,40.57 -9.18,40.55 -9.68,40.57 -9.27,40.55 -8.54,40.58 -8.32,40.57 -6.61,40.7 -6.98,40.66 -5.93,40.78 -5.25,40.88 -5.68,40.82 -4.17,41.06 -3.3,41.24 -2.67,41.39 -2.7,41.39 -2.38,41.47 -1.51,41.7 -1.35,41.75 -0.25,42.11 -0.29,42.11 -0.78,41.93 0.73,42.5 0.8,42.51 0.8,42.52 1.74,42.9 1.69,42.9 2.11,43.09 2.46,43.24 3,43.52 3.17,43.6 3.59,43.83 4.05,44.12 5.64,45.15 5.48,45.07 6.08,45.5 5.44,45.08 6.7,46.1 6.12,45.6 6.6,46.03 7.49,46.84 7.18,46.58 7.28,46.61 8.32,47.8 8.22,47.71 8.73,48.38 8.51,48.1 8.64,48.39 9.07,49.23 9.2,49.44 9.09,49.26 9.39,50.03 9.37,49.86 9.62,50.54 9.66,51.02 9.75,51.23 9.76,51.34 9.69,51.52 9.81,51.55 9.72,52.48 9.71,52.21 9.67,52.87" fill="rgb(200, 102, 204)" stroke="black" stroke-width="3" stroke-linejoin="round" filter="url(#fuzzy)" />
    </g>
  </svg>