<svg viewBox="-100 -100 200 200" xmlns="http://www.w3.org/2000/svg" width="500" height="500" id="face-svg">
    <defs>
      <clipPath id="leftEyeClipPath">
        <polyline points="26.38,-3.69 26.34,-3.84 26.27,-4.01 26.17,-4.19 26.04,-4.37 25.89,-4.56 25.72,-4.76 25.51,-4.96 25.28,-5.16 25.02,-5.37 24.73,-5.57 24.41,-5.78 24.06,-5.99 23.68,-6.2 23.28,-6.4 22.85,-6.6 22.52,-6.9 22.15,-7.19 21.72,-7.48 21.24,-7.75 20.72,-8.01 20.15,-8.26 19.53,-8.5 18.86,-8.72 18.16,-8.93 17.41,-9.12 16.62,-9.3 15.79,-9.46 14.93,-9.6 14.04,-9.73 13.12,-9.84 12.17,-9.93 11.2,-10 10.2,-10.06 9.19,-10.1 8.16,-10.12 7.11,-10.13 6.06,-10.11 4.99,-10.08 3.92,-10.04 2.85,-9.98 1.78,-9.9 0.71,-9.81 -0.36,-9.71 -1.42,-9.59 -2.47,-9.45 -3.51,-9.31 -4.54,-9.15 -5.56,-8.98 -6.56,-8.8 -7.55,-8.61 -8.51,-8.42 -9.46,-8.21 -10.38,-8 -11.29,-7.78 -12.17,-7.55 -13.03,-7.32 -13.87,-7.08 -14.68,-6.84 -15.47,-6.6 -16.23,-6.35 -16.98,-6.11 -17.7,-5.86 -18.39,-5.61 -19.07,-5.36 -19.73,-5.12 -20.36,-4.87 -20.98,-4.63 -21.57,-4.38 -22.15,-4.13 -22.7,-3.89 -23.24,-3.64 -23.76,-3.4 -24.27,-3.16 -24.75,-2.92 -25.22,-2.68 -25.66,-2.44 -26.1,-2.21 -26.51,-1.98 -26.91,-1.75 -26.53,7.8 -26.23,8.12 -25.92,8.44 -25.6,8.74 -25.25,9.05 -24.9,9.34 -24.53,9.63 -24.14,9.91 -23.74,10.18 -23.33,10.44 -22.9,10.68 -22.45,10.92 -21.98,11.14 -21.5,11.35 -21.01,11.55 -20.5,11.73 -19.97,11.9 -19.42,12.06 -18.85,12.2 -18.27,12.33 -17.66,12.44 -17.04,12.53 -16.39,12.6 -15.73,12.64 -15.05,12.66 -14.35,12.66 -13.63,12.63 -12.89,12.58 -12.13,12.5 -11.36,12.4 -10.57,12.27 -9.76,12.11 -8.94,11.93 -8.1,11.72 -7.25,11.49 -6.39,11.23 -5.52,10.95 -4.64,10.64 -3.75,10.32 -2.85,9.98 -1.95,9.62 -1.04,9.24 -0.13,8.85 0.78,8.45 1.7,8.04 2.61,7.62 3.51,7.2 4.42,6.77 5.31,6.34 6.2,5.92 7.08,5.5 7.94,5.09 8.8,4.68 9.63,4.29 10.46,3.92 11.26,3.56 12.05,3.22 12.81,2.9 13.56,2.6 14.28,2.34 14.97,2.09 15.64,1.88 16.29,1.7 16.91,1.55 17.5,1.42 18.09,1.18 18.67,0.95 19.23,0.73 19.77,0.51 20.3,0.31 20.81,0.12 21.31,-0.06 21.79,-0.24 22.25,-0.4 22.7,-0.56 23.13,-0.72 23.54,-0.87 23.94,-1.01 24.31,-1.15 24.67,-1.29" />
      </clipPath>
      <clipPath id="rightEyeClipPath">
        <polyline points="-26.05,0.63 -26.02,0.54 -25.96,0.43 -25.87,0.31 -25.76,0.17 -25.62,0.03 -25.45,-0.12 -25.25,-0.29 -25.03,-0.46 -24.77,-0.64 -24.48,-0.82 -24.17,-1.02 -23.83,-1.22 -23.45,-1.42 -23.05,-1.63 -22.62,-1.84 -22.3,-2.09 -21.92,-2.35 -21.49,-2.61 -21.01,-2.87 -20.49,-3.14 -19.91,-3.41 -19.29,-3.68 -18.62,-3.94 -17.91,-4.21 -17.16,-4.47 -16.37,-4.72 -15.55,-4.97 -14.68,-5.21 -13.79,-5.44 -12.87,-5.66 -11.92,-5.87 -10.94,-6.06 -9.95,-6.25 -8.93,-6.42 -7.9,-6.57 -6.86,-6.71 -5.8,-6.84 -4.74,-6.94 -3.67,-7.03 -2.6,-7.11 -1.53,-7.16 -0.46,-7.2 0.61,-7.22 1.67,-7.22 2.72,-7.21 3.76,-7.17 4.79,-7.12 5.81,-7.06 6.8,-6.97 7.79,-6.88 8.75,-6.76 9.69,-6.63 10.62,-6.49 11.52,-6.33 12.4,-6.16 13.26,-5.98 14.09,-5.79 14.9,-5.59 15.69,-5.38 16.46,-5.16 17.2,-4.94 17.91,-4.71 18.61,-4.47 19.28,-4.23 19.94,-3.99 20.57,-3.75 21.18,-3.5 21.78,-3.25 22.35,-3 22.91,-2.74 23.45,-2.48 23.96,-2.22 24.46,-1.96 24.95,-1.69 25.41,-1.43 25.86,-1.16 26.29,-0.9 26.7,-0.64 27.1,-0.38 25.55,5.97 25.26,6.21 24.96,6.45 24.64,6.68 24.3,6.9 23.96,7.12 23.59,7.32 23.21,7.52 22.82,7.71 22.41,7.89 21.98,8.06 21.54,8.21 21.09,8.36 20.62,8.49 20.13,8.61 19.63,8.72 19.11,8.83 18.57,8.92 18.01,8.99 17.44,9.06 16.85,9.11 16.24,9.15 15.61,9.17 14.97,9.18 14.3,9.17 13.62,9.14 12.92,9.1 12.21,9.04 11.48,8.96 10.73,8.87 9.97,8.76 9.2,8.63 8.41,8.49 7.61,8.33 6.8,8.16 5.98,7.97 5.14,7.77 4.3,7.56 3.45,7.34 2.6,7.11 1.74,6.87 0.87,6.62 0.01,6.37 -0.86,6.11 -1.73,5.85 -2.6,5.59 -3.46,5.33 -4.32,5.07 -5.17,4.82 -6.02,4.57 -6.86,4.33 -7.69,4.1 -8.51,3.88 -9.32,3.68 -10.11,3.48 -10.89,3.31 -11.66,3.15 -12.41,3 -13.13,2.88 -13.85,2.78 -14.54,2.7 -15.21,2.64 -15.85,2.61 -16.48,2.59 -17.08,2.6 -17.67,2.51 -18.23,2.43 -18.79,2.35 -19.33,2.28 -19.86,2.22 -20.37,2.17 -20.87,2.12 -21.36,2.08 -21.83,2.05 -22.28,2.02 -22.72,1.99 -23.14,1.97 -23.54,1.95 -23.93,1.93 -24.3,1.91" />
      </clipPath>
      <filter id="fuzzy">
        <feTurbulence id="turbulence" baseFrequency="0.05" numOctaves="3" type="noise" result="noise" />
        <feDisplacementMap in="SourceGraphic" in2="noise" scale="2" />
      </filter>
      <linearGradient id="rainbowGradient" x1="0%" y1="0%" x2="100%" y2="0%">
        <stop offset="0%" style="stop-color: rgb(38, 44, 132); stop-opacity: 1" />
        <stop offset="50%" style="stop-color: rgb(196, 29, 247); stop-opacity: 1" />
        <stop offset="100%" style="stop-color: rgb(226, 182, 55); stop-opacity: 1" />
      </linearGradient>
    </defs>
    <rect x="-100" y="-100" width="100%" height="100%" fill="rgb(240, 166, 242)" />
    <polyline id="faceContour" points="62.04,0.01 61.85,0.27 61.81,1.28 61.63,5.52 61.69,4.62 61.75,5.04 61.47,8.96 61.29,10.18 61.45,8.56 61.41,10.85 61.1,14.6 61.24,12.82 61.06,14.73 60.39,17.38 60.22,18.56 59.91,20.54 60.26,19.08 59.56,22.24 59.63,22.14 59.22,23.54 58.85,25.35 59.04,24.91 58.18,27.56 58.05,28.01 57.16,31.41 57.18,31.6 56.69,32.85 56.56,33.32 56.01,35.06 55.62,36.14 55.06,37.51 54.83,38.53 54.37,39 53.81,40.79 53.03,42.08 53.24,42.29 52.88,43.15 51.73,44.97 51.8,45.2 50.45,48.07 49.28,50.03 48.99,50.58 48.78,50.97 48.81,50.86 47.25,53.19 47.08,53.75 46.71,54.15 45.33,56.12 44.8,56.78 43.7,58.3 44.54,57.45 43.29,58.69 42.98,59.37 40.79,61.86 40.93,61.77 40.65,62 39.27,63.76 39.01,64.04 38.25,64.79 36.59,66.51 36.45,66.41 36.53,66.31 34.94,67.91 33.35,69.67 32.83,70.01 32.12,70.5 32.29,70.54 30.33,71.86 29.95,72.2 28.76,72.84 29.05,72.68 28.33,73.46 26.52,74.56 25.24,75.16 24.73,75.54 24.54,75.63 22.71,76.7 20.95,77.66 21.63,77.28 20.34,77.97 19.13,78.3 18.78,78.34 16.68,79.37 15.97,79.8 13.85,80.16 14.25,80.05 14.2,80.04 12.44,80.68 11.7,80.99 10.41,81.44 10.79,80.98 8.36,81.68 6.92,82.06 6.13,82.11 6.99,81.76 5.31,82.01 3.58,82.29 3.05,82.18 1.86,82.36 0.15,82.52 -1.26,82.53 -2.09,82.54 -3.3,82.37 -2.42,82.54 -4.06,82.41 -6.22,82.06 -6.3,82.14 -6.9,81.74 -6.88,81.87 -7.6,81.82 -11.06,81.04 -10.38,81.05 -10.31,81.43 -12.25,80.76 -13.52,80.28 -13.92,80.44 -15.59,79.62 -15.85,79.69 -15.99,79.63 -17.7,79.12 -18.11,78.69 -21.16,77.42 -21.14,77.55 -22.86,76.57 -23.98,76.21 -23.74,75.93 -24.57,75.69 -25.62,75 -25.54,74.85 -25.76,74.95 -28.06,73.18 -29.93,72.11 -29.23,72.68 -29.27,72.79 -31.86,70.62 -33.56,69.34 -32.43,70.16 -33.27,69.53 -34.09,68.62 -35.93,67.3 -36.25,66.69 -36.62,66.36 -36.82,66.37 -39.41,63.55 -38.51,64.32 -40.1,62.66 -41.29,61.58 -41.89,60.7 -42.81,59.48 -42.86,59.26 -43.23,58.68 -44.21,57.68 -45.21,55.84 -45.66,55.65 -46.23,54.67 -47.64,52.74 -47.77,52.22 -48.16,51.62 -48.6,50.95 -49.81,48.42 -49.55,49.29 -50.92,46.67 -51.48,45.89 -51.34,45.95 -52.47,43.78 -52.64,43.19 -53.03,42.5 -53.57,40.95 -53.6,40.68 -54.02,40.42 -54.88,38.19 -55.66,35.55 -55.75,35.98 -56.2,34.36 -57.37,31.23 -57.41,30.85 -56.97,31.93 -57.7,29.18 -58.27,28.01 -58.78,26.05 -58.63,25.66 -59.26,24.31 -59.31,23.82 -59.5,22.21 -60.07,19.37 -60.28,19.3 -60.15,19.68 -60.6,16.65 -60.6,15.19 -60.91,13.42 -60.87,14.51 -61.17,12.26 -61.57,8.69 -61.45,7.83 -61.51,7.05 -61.59,7.12 -61.64,5.55 -61.91,4.66 -61.69,2.9 -61.99,1.84 -61.94,-0.27 -61.72,-1.51 -61.67,-2.07 -61.66,-4.39 -61.74,-4.42 -61.74,-6.74 -61.31,-9.35 -61.45,-10.42 -61.2,-10.62 -61.27,-12.12 -60.94,-12.65 -61,-13.13 -60.83,-14.52 -60.97,-14.21 -60.14,-19.8 -60.25,-19.22 -59.74,-20.6 -59.66,-22.1 -59.46,-21.97 -59.15,-24.28 -58.36,-26.96 -58.67,-26.61 -58.53,-27.03 -57.99,-29.18 -57.4,-30.58 -56.84,-32.36 -56.94,-32.58 -55.76,-35.13 -56.18,-34.39 -56.21,-34.81 -55.43,-36.4 -55,-37.99 -53.66,-40.56 -53.76,-40.71 -53.47,-41.23 -52.37,-43.83 -52.62,-43.52 -52.18,-44.44 -51.06,-46.82 -50.98,-46.79 -50.73,-47.21 -49.3,-49.42 -48.81,-50.49 -48.9,-50.43 -47.57,-52.75 -46.53,-54.31 -45.69,-55.19 -46.57,-54.05 -45.1,-56.32 -44.52,-57.07 -43.58,-58.27 -43.92,-57.99 -43.02,-59.36 -41.18,-61.27 -40.42,-62.25 -39.64,-63.52 -40.17,-62.32 -37.93,-64.86 -39.05,-63.7 -37.41,-65.82 -36.54,-66.16 -34.96,-67.75 -33.69,-69.03 -34.03,-69.11 -34.21,-68.74 -33.2,-69.47 -31.4,-71.07 -29.95,-72.09 -29.96,-72.03 -29.96,-72.12 -27.48,-74 -27.01,-73.97 -25.78,-74.99 -26.64,-74.26 -24.26,-75.7 -23.86,-76.08 -23.05,-76.42 -22.27,-76.85 -20.27,-77.83 -19.45,-78.21 -18.15,-78.95 -18.37,-78.83 -17.29,-79.11 -15.72,-79.57 -15.24,-79.68 -14.94,-79.76 -13.33,-80.56 -12.14,-80.83 -11.13,-81.09 -11.01,-81.12 -9.48,-81.42 -8.34,-81.46 -8.24,-81.53 -7.66,-81.61 -7.27,-81.74 -5.49,-82.01 -3.61,-82.32 -2.71,-82.39 -1.28,-82.39 -0.09,-82.26 1.37,-82.23 1.22,-82.24 2.36,-82.22 1.22,-82.49 3.71,-82.41 4.08,-82.38 5.57,-81.94 6.24,-82.12 7.82,-81.72 7.91,-81.67 10.57,-81.35 12.65,-80.61 11.67,-80.95 12.72,-80.57 12.32,-80.8 13.62,-80.32 15.67,-79.69 15.79,-79.61 16.7,-79.2 17.58,-79.05 20.58,-77.72 20.61,-77.62 21.92,-77.19 20.67,-77.78 22.75,-76.69 24.29,-75.88 24.85,-75.54 25.06,-75.4 25.33,-75.1 26.42,-74.61 27.39,-73.67 27.93,-73.36 30.51,-71.73 30.17,-72.03 31.53,-70.89 32.41,-70.28 31.96,-70.3 34.46,-68.4 34.81,-68.14 34.2,-68.6 35.79,-67.26 37.65,-65.35 38.22,-64.98 38.86,-64.2 38.68,-64.39 39.43,-63.62 40.64,-62.3 41.01,-61.55 43.32,-59.08 43.17,-58.98 44.21,-57.74 44.02,-58.04 44.26,-57.55 46.97,-53.44 46.13,-54.87 47.04,-53.71 46.46,-54.44 48.04,-51.81 48.16,-51.55 49.48,-49.26 50.36,-47.98 51.35,-46.42 51.77,-45.52 51.27,-46.19 52.23,-43.78 52.81,-43.12 53.05,-42.81 53.03,-42.33 54.97,-38.19 54.95,-38.24 55.45,-36.9 55.47,-36.3 55.79,-35.79 56.11,-34.88 56.93,-32.54 57.21,-31.12 57.46,-30.94 57.95,-29.14 58.25,-28.34 58.17,-28.11 59.28,-24.32 58.81,-24.89 59.76,-22.47 59.64,-21.48 59.8,-20.27 60.14,-19.47 60.25,-18.48 60.41,-17.04 61,-14.01 61.21,-13.2 61.04,-14.35 61.57,-9.83 61.26,-11.03 61.46,-8.58 61.66,-7.41 61.81,-7.23 61.73,-5.81 61.97,-3.68 61.66,-3.58 62.02,-2.28 62.04,0.01 61.85,0.27" fill="rgb(38, 223, 32)" stroke="black" stroke-width="1.6666666666666665" stroke-linejoin="round" filter="url(#fuzzy)" />
    <g transform="translate(42.650000000000006 -24.57)">
      <polyline id="rightCountour" points="-26.05,0.63 -26.02,0.54 -25.96,0.43 -25.87,0.31 -25.76,0.17 -25.62,0.03 -25.45,-0.12 -25.25,-0.29 -25.03,-0.46 -24.77,-0.64 -24.48,-0.82 -24.17,-1.02 -23.83,-1.22 -23.45,-1.42 -23.05,-1.63 -22.62,-1.84 -22.3,-2.09 -21.92,-2.35 -21.49,-2.61 -21.01,-2.87 -20.49,-3.14 -19.91,-3.41 -19.29,-3.68 -18.62,-3.94 -17.91,-4.21 -17.16,-4.47 -16.37,-4.72 -15.55,-4.97 -14.68,-5.21 -13.79,-5.44 -12.87,-5.66 -11.92,-5.87 -10.94,-6.06 -9.95,-6.25 -8.93,-6.42 -7.9,-6.57 -6.86,-6.71 -5.8,-6.84 -4.74,-6.94 -3.67,-7.03 -2.6,-7.11 -1.53,-7.16 -0.46,-7.2 0.61,-7.22 1.67,-7.22 2.72,-7.21 3.76,-7.17 4.79,-7.12 5.81,-7.06 6.8,-6.97 7.79,-6.88 8.75,-6.76 9.69,-6.63 10.62,-6.49 11.52,-6.33 12.4,-6.16 13.26,-5.98 14.09,-5.79 14.9,-5.59 15.69,-5.38 16.46,-5.16 17.2,-4.94 17.91,-4.71 18.61,-4.47 19.28,-4.23 19.94,-3.99 20.57,-3.75 21.18,-3.5 21.78,-3.25 22.35,-3 22.91,-2.74 23.45,-2.48 23.96,-2.22 24.46,-1.96 24.95,-1.69 25.41,-1.43 25.86,-1.16 26.29,-0.9 26.7,-0.64 27.1,-0.38 25.55,5.97 25.26,6.21 24.96,6.45 24.64,6.68 24.3,6.9 23.96,7.12 23.59,7.32 23.21,7.52 22.82,7.71 22.41,7.89 21.98,8.06 21.54,8.21 21.09,8.36 20.62,8.49 20.13,8.61 19.63,8.72 19.11,8.83 18.57,8.92 18.01,8.99 17.44,9.06 16.85,9.11 16.24,9.15 15.61,9.17 14.97,9.18 14.3,9.17 13.62,9.14 12.92,9.1 12.21,9.04 11.48,8.96 10.73,8.87 9.97,8.76 9.2,8.63 8.41,8.49 7.61,8.33 6.8,8.16 5.98,7.97 5.14,7.77 4.3,7.56 3.45,7.34 2.6,7.11 1.74,6.87 0.87,6.62 0.01,6.37 -0.86,6.11 -1.73,5.85 -2.6,5.59 -3.46,5.33 -4.32,5.07 -5.17,4.82 -6.02,4.57 -6.86,4.33 -7.69,4.1 -8.51,3.88 -9.32,3.68 -10.11,3.48 -10.89,3.31 -11.66,3.15 -12.41,3 -13.13,2.88 -13.85,2.78 -14.54,2.7 -15.21,2.64 -15.85,2.61 -16.48,2.59 -17.08,2.6 -17.67,2.51 -18.23,2.43 -18.79,2.35 -19.33,2.28 -19.86,2.22 -20.37,2.17 -20.87,2.12 -21.36,2.08 -21.83,2.05 -22.28,2.02 -22.72,1.99 -23.14,1.97 -23.54,1.95 -23.93,1.93 -24.3,1.91" fill="white" stroke="white" stroke-width="0" stroke-linejoin="round" filter="url(#fuzzy)" />
    </g>
    <g transform="translate(-32.08 -28.22)">
      <polyline id="leftCountour" points="26.38,-3.69 26.34,-3.84 26.27,-4.01 26.17,-4.19 26.04,-4.37 25.89,-4.56 25.72,-4.76 25.51,-4.96 25.28,-5.16 25.02,-5.37 24.73,-5.57 24.41,-5.78 24.06,-5.99 23.68,-6.2 23.28,-6.4 22.85,-6.6 22.52,-6.9 22.15,-7.19 21.72,-7.48 21.24,-7.75 20.72,-8.01 20.15,-8.26 19.53,-8.5 18.86,-8.72 18.16,-8.93 17.41,-9.12 16.62,-9.3 15.79,-9.46 14.93,-9.6 14.04,-9.73 13.12,-9.84 12.17,-9.93 11.2,-10 10.2,-10.06 9.19,-10.1 8.16,-10.12 7.11,-10.13 6.06,-10.11 4.99,-10.08 3.92,-10.04 2.85,-9.98 1.78,-9.9 0.71,-9.81 -0.36,-9.71 -1.42,-9.59 -2.47,-9.45 -3.51,-9.31 -4.54,-9.15 -5.56,-8.98 -6.56,-8.8 -7.55,-8.61 -8.51,-8.42 -9.46,-8.21 -10.38,-8 -11.29,-7.78 -12.17,-7.55 -13.03,-7.32 -13.87,-7.08 -14.68,-6.84 -15.47,-6.6 -16.23,-6.35 -16.98,-6.11 -17.7,-5.86 -18.39,-5.61 -19.07,-5.36 -19.73,-5.12 -20.36,-4.87 -20.98,-4.63 -21.57,-4.38 -22.15,-4.13 -22.7,-3.89 -23.24,-3.64 -23.76,-3.4 -24.27,-3.16 -24.75,-2.92 -25.22,-2.68 -25.66,-2.44 -26.1,-2.21 -26.51,-1.98 -26.91,-1.75 -26.53,7.8 -26.23,8.12 -25.92,8.44 -25.6,8.74 -25.25,9.05 -24.9,9.34 -24.53,9.63 -24.14,9.91 -23.74,10.18 -23.33,10.44 -22.9,10.68 -22.45,10.92 -21.98,11.14 -21.5,11.35 -21.01,11.55 -20.5,11.73 -19.97,11.9 -19.42,12.06 -18.85,12.2 -18.27,12.33 -17.66,12.44 -17.04,12.53 -16.39,12.6 -15.73,12.64 -15.05,12.66 -14.35,12.66 -13.63,12.63 -12.89,12.58 -12.13,12.5 -11.36,12.4 -10.57,12.27 -9.76,12.11 -8.94,11.93 -8.1,11.72 -7.25,11.49 -6.39,11.23 -5.52,10.95 -4.64,10.64 -3.75,10.32 -2.85,9.98 -1.95,9.62 -1.04,9.24 -0.13,8.85 0.78,8.45 1.7,8.04 2.61,7.62 3.51,7.2 4.42,6.77 5.31,6.34 6.2,5.92 7.08,5.5 7.94,5.09 8.8,4.68 9.63,4.29 10.46,3.92 11.26,3.56 12.05,3.22 12.81,2.9 13.56,2.6 14.28,2.34 14.97,2.09 15.64,1.88 16.29,1.7 16.91,1.55 17.5,1.42 18.09,1.18 18.67,0.95 19.23,0.73 19.77,0.51 20.3,0.31 20.81,0.12 21.31,-0.06 21.79,-0.24 22.25,-0.4 22.7,-0.56 23.13,-0.72 23.54,-0.87 23.94,-1.01 24.31,-1.15 24.67,-1.29" fill="white" stroke="white" stroke-width="0" stroke-linejoin="round" filter="url(#fuzzy)" />
    </g>
    <g transform="translate(42.650000000000006 -24.57)">
      <polyline id="rightUpper" points="-25.18,0.68 -25.34,0.76 -25.5,0.82 -25.63,0.86 -25.75,0.88 -25.86,0.88 -25.94,0.86 -26,0.83 -26.04,0.78 -26.06,0.71 -26.05,0.63 -26.02,0.54 -25.96,0.43 -25.87,0.31 -25.76,0.17 -25.62,0.03 -25.45,-0.12 -25.25,-0.29 -25.03,-0.46 -24.77,-0.64 -24.48,-0.82 -24.17,-1.02 -23.83,-1.22 -23.45,-1.42 -23.05,-1.63 -22.62,-1.84 -22.3,-2.09 -21.92,-2.35 -21.49,-2.61 -21.01,-2.87 -20.49,-3.14 -19.91,-3.41 -19.29,-3.68 -18.62,-3.94 -17.91,-4.21 -17.16,-4.47 -16.37,-4.72 -15.55,-4.97 -14.68,-5.21 -13.79,-5.44 -12.87,-5.66 -11.92,-5.87 -10.94,-6.06 -9.95,-6.25 -8.93,-6.42 -7.9,-6.57 -6.86,-6.71 -5.8,-6.84 -4.74,-6.94 -3.67,-7.03 -2.6,-7.11 -1.53,-7.16 -0.46,-7.2 0.61,-7.22 1.67,-7.22 2.72,-7.21 3.76,-7.17 4.79,-7.12 5.81,-7.06 6.8,-6.97 7.79,-6.88 8.75,-6.76 9.69,-6.63 10.62,-6.49 11.52,-6.33 12.4,-6.16 13.26,-5.98 14.09,-5.79 14.9,-5.59 15.69,-5.38 16.46,-5.16 17.2,-4.94 17.91,-4.71 18.61,-4.47 19.28,-4.23 19.94,-3.99 20.57,-3.75 21.18,-3.5 21.78,-3.25 22.35,-3 22.91,-2.74 23.45,-2.48 23.96,-2.22 24.46,-1.96 24.95,-1.69 25.41,-1.43 25.86,-1.16 26.29,-0.9 26.7,-0.64 27.1,-0.38 27.49,-0.12 27.85,0.14 28.21,0.39 28.54,0.64 28.87,0.89 29.18,1.14 29.48,1.38 29.76,1.62 30.04,1.86 30.3,2.09" fill="none" stroke="black" stroke-width="1.6666666666666665" stroke-linejoin="round" filter="url(#fuzzy)" />
      <polyline id="rightLower" points="-27.08,1.4 -26.88,1.51 -26.66,1.59 -26.42,1.67 -26.17,1.73 -25.9,1.77 -25.62,1.81 -25.31,1.85 -24.99,1.87 -24.66,1.89 -24.3,1.91 -23.93,1.93 -23.54,1.95 -23.14,1.97 -22.72,1.99 -22.28,2.02 -21.83,2.05 -21.36,2.08 -20.87,2.12 -20.37,2.17 -19.86,2.22 -19.33,2.28 -18.79,2.35 -18.23,2.43 -17.67,2.51 -17.08,2.6 -16.48,2.59 -15.85,2.61 -15.21,2.64 -14.54,2.7 -13.85,2.78 -13.13,2.88 -12.41,3 -11.66,3.15 -10.89,3.31 -10.11,3.48 -9.32,3.68 -8.51,3.88 -7.69,4.1 -6.86,4.33 -6.02,4.57 -5.17,4.82 -4.32,5.07 -3.46,5.33 -2.6,5.59 -1.73,5.85 -0.86,6.11 0.01,6.37 0.87,6.62 1.74,6.87 2.6,7.11 3.45,7.34 4.3,7.56 5.14,7.77 5.98,7.97 6.8,8.16 7.61,8.33 8.41,8.49 9.2,8.63 9.97,8.76 10.73,8.87 11.48,8.96 12.21,9.04 12.92,9.1 13.62,9.14 14.3,9.17 14.97,9.18 15.61,9.17 16.24,9.15 16.85,9.11 17.44,9.06 18.01,8.99 18.57,8.92 19.11,8.83 19.63,8.72 20.13,8.61 20.62,8.49 21.09,8.36 21.54,8.21 21.98,8.06 22.41,7.89 22.82,7.71 23.21,7.52 23.59,7.32 23.96,7.12 24.3,6.9 24.64,6.68 24.96,6.45 25.26,6.21 25.55,5.97 25.83,5.72 26.09,5.47 26.34,5.2 26.58,4.94 26.8,4.67 27.01,4.39 27.21,4.12 27.39,3.83 27.56,3.55 27.72,3.26" fill="none" stroke="black" stroke-width="2.2222222222222223" stroke-linejoin="round" filter="url(#fuzzy)" />
      <circle r="4.436" cx="-7.856639118758732" cy="3.1029603969769557" stroke="black" fill="none" stroke-width="1.0" filter="url(#fuzzy)" clip-path="url(#rightEyeClipPath)" /><circle r="3.708" cx="-10.311639118758732" cy="2.962960396976955" stroke="black" fill="none" stroke-width="1.0" filter="url(#fuzzy)" clip-path="url(#rightEyeClipPath)" /><circle r="4.62" cx="-7.666639118758733" cy="6.122960396976955" stroke="black" fill="none" stroke-width="1.0" filter="url(#fuzzy)" clip-path="url(#rightEyeClipPath)" /><circle r="4.078" cx="-11.576639118758733" cy="1.7729603969769556" stroke="black" fill="none" stroke-width="1.0" filter="url(#fuzzy)" clip-path="url(#rightEyeClipPath)" /><circle r="4.63" cx="-9.561639118758732" cy="3.917960396976955" stroke="black" fill="none" stroke-width="1.0" filter="url(#fuzzy)" clip-path="url(#rightEyeClipPath)" /><circle r="3.968" cx="-11.611639118758733" cy="4.292960396976955" stroke="black" fill="none" stroke-width="1.0" filter="url(#fuzzy)" clip-path="url(#rightEyeClipPath)" /><circle r="4.682" cx="-12.316639118758733" cy="1.5879603969769551" stroke="black" fill="none" stroke-width="1.0" filter="url(#fuzzy)" clip-path="url(#rightEyeClipPath)" /><circle r="4.338" cx="-11.601639118758733" cy="4.087960396976955" stroke="black" fill="none" stroke-width="1.0" filter="url(#fuzzy)" clip-path="url(#rightEyeClipPath)" /><circle r="3.934" cx="-10.186639118758732" cy="3.587960396976955" stroke="black" fill="none" stroke-width="1.0" filter="url(#fuzzy)" clip-path="url(#rightEyeClipPath)" /><circle r="4.25" cx="-10.906639118758733" cy="5.757960396976955" stroke="black" fill="none" stroke-width="1.0" filter="url(#fuzzy)" clip-path="url(#rightEyeClipPath)" />
      </g>
    <g transform="translate(-32.08 -28.22)">
      <polyline id="leftUpper" points="25.74,-3.04 25.88,-3.01 26,-3 26.11,-3.02 26.2,-3.06 26.28,-3.12 26.34,-3.2 26.38,-3.3 26.41,-3.42 26.41,-3.55 26.38,-3.69 26.34,-3.84 26.27,-4.01 26.17,-4.19 26.04,-4.37 25.89,-4.56 25.72,-4.76 25.51,-4.96 25.28,-5.16 25.02,-5.37 24.73,-5.57 24.41,-5.78 24.06,-5.99 23.68,-6.2 23.28,-6.4 22.85,-6.6 22.52,-6.9 22.15,-7.19 21.72,-7.48 21.24,-7.75 20.72,-8.01 20.15,-8.26 19.53,-8.5 18.86,-8.72 18.16,-8.93 17.41,-9.12 16.62,-9.3 15.79,-9.46 14.93,-9.6 14.04,-9.73 13.12,-9.84 12.17,-9.93 11.2,-10 10.2,-10.06 9.19,-10.1 8.16,-10.12 7.11,-10.13 6.06,-10.11 4.99,-10.08 3.92,-10.04 2.85,-9.98 1.78,-9.9 0.71,-9.81 -0.36,-9.71 -1.42,-9.59 -2.47,-9.45 -3.51,-9.31 -4.54,-9.15 -5.56,-8.98 -6.56,-8.8 -7.55,-8.61 -8.51,-8.42 -9.46,-8.21 -10.38,-8 -11.29,-7.78 -12.17,-7.55 -13.03,-7.32 -13.87,-7.08 -14.68,-6.84 -15.47,-6.6 -16.23,-6.35 -16.98,-6.11 -17.7,-5.86 -18.39,-5.61 -19.07,-5.36 -19.73,-5.12 -20.36,-4.87 -20.98,-4.63 -21.57,-4.38 -22.15,-4.13 -22.7,-3.89 -23.24,-3.64 -23.76,-3.4 -24.27,-3.16 -24.75,-2.92 -25.22,-2.68 -25.66,-2.44 -26.1,-2.21 -26.51,-1.98 -26.91,-1.75 -27.3,-1.53 -27.66,-1.3 -28.02,-1.08 -28.36,-0.87 -28.68,-0.66 -29,-0.45 -29.29,-0.24 -29.58,-0.04 -29.85,0.16 -30.12,0.36" fill="none" stroke="black" stroke-width="2.2222222222222223" stroke-linejoin="round" filter="url(#fuzzy)" />
      <polyline id="leftLower" points="27.36,-3.01 27.16,-2.78 26.95,-2.57 26.72,-2.37 26.48,-2.19 26.22,-2.02 25.94,-1.87 25.65,-1.72 25.34,-1.57 25.02,-1.43 24.67,-1.29 24.31,-1.15 23.94,-1.01 23.54,-0.87 23.13,-0.72 22.7,-0.56 22.25,-0.4 21.79,-0.24 21.31,-0.06 20.81,0.12 20.3,0.31 19.77,0.51 19.23,0.73 18.67,0.95 18.09,1.18 17.5,1.42 16.91,1.55 16.29,1.7 15.64,1.88 14.97,2.09 14.28,2.34 13.56,2.6 12.81,2.9 12.05,3.22 11.26,3.56 10.46,3.92 9.63,4.29 8.8,4.68 7.94,5.09 7.08,5.5 6.2,5.92 5.31,6.34 4.42,6.77 3.51,7.2 2.61,7.62 1.7,8.04 0.78,8.45 -0.13,8.85 -1.04,9.24 -1.95,9.62 -2.85,9.98 -3.75,10.32 -4.64,10.64 -5.52,10.95 -6.39,11.23 -7.25,11.49 -8.1,11.72 -8.94,11.93 -9.76,12.11 -10.57,12.27 -11.36,12.4 -12.13,12.5 -12.89,12.58 -13.63,12.63 -14.35,12.66 -15.05,12.66 -15.73,12.64 -16.39,12.6 -17.04,12.53 -17.66,12.44 -18.27,12.33 -18.85,12.2 -19.42,12.06 -19.97,11.9 -20.5,11.73 -21.01,11.55 -21.5,11.35 -21.98,11.14 -22.45,10.92 -22.9,10.68 -23.33,10.44 -23.74,10.18 -24.14,9.91 -24.53,9.63 -24.9,9.34 -25.25,9.05 -25.6,8.74 -25.92,8.44 -26.23,8.12 -26.53,7.8 -26.81,7.48 -27.08,7.15 -27.34,6.83 -27.59,6.49 -27.82,6.16 -28.04,5.83 -28.25,5.49 -28.44,5.16 -28.63,4.83 -28.8,4.49" fill="none" stroke="black" stroke-width="2.2222222222222223" stroke-linejoin="round" filter="url(#fuzzy)" />
      <circle r="4.97" cx="10.91375920511154" cy="-0.6434874328137596" stroke="black" fill="none" stroke-width="1.0" filter="url(#fuzzy)" clip-path="url(#leftEyeClipPath)" /><circle r="3.17" cx="10.768759205111541" cy="-3.7584874328137596" stroke="black" fill="none" stroke-width="1.0" filter="url(#fuzzy)" clip-path="url(#leftEyeClipPath)" /><circle r="4.1259999999999994" cx="9.838759205111542" cy="-3.80848743281376" stroke="black" fill="none" stroke-width="1.0" filter="url(#fuzzy)" clip-path="url(#leftEyeClipPath)" /><circle r="3.208" cx="8.35375920511154" cy="-4.02348743281376" stroke="black" fill="none" stroke-width="1.0" filter="url(#fuzzy)" clip-path="url(#leftEyeClipPath)" /><circle r="3.3" cx="8.858759205111541" cy="-2.1284874328137597" stroke="black" fill="none" stroke-width="1.0" filter="url(#fuzzy)" clip-path="url(#leftEyeClipPath)" /><circle r="4.388" cx="10.328759205111542" cy="-2.0034874328137597" stroke="black" fill="none" stroke-width="1.0" filter="url(#fuzzy)" clip-path="url(#leftEyeClipPath)" /><circle r="4.672" cx="10.14875920511154" cy="-2.30348743281376" stroke="black" fill="none" stroke-width="1.0" filter="url(#fuzzy)" clip-path="url(#leftEyeClipPath)" /><circle r="4.684" cx="8.78375920511154" cy="0.12651256718623927" stroke="black" fill="none" stroke-width="1.0" filter="url(#fuzzy)" clip-path="url(#leftEyeClipPath)" /><circle r="3.142" cx="12.148759205111542" cy="-1.3384874328137595" stroke="black" fill="none" stroke-width="1.0" filter="url(#fuzzy)" clip-path="url(#leftEyeClipPath)" /><circle r="3.854" cx="8.088759205111542" cy="-3.9184874328137598" stroke="black" fill="none" stroke-width="1.0" filter="url(#fuzzy)" clip-path="url(#leftEyeClipPath)" />
    </g>
    <g id="hairs">
      <polyline points="31.96,-70.3 33.28,-69.07 33.16,-68.44 32.27,-67.87 30.78,-67.17 28.6,-66.39 25.59,-65.63 21.66,-64.93 16.84,-64.29 11.17,-63.64 4.66,-62.96 -2.73,-62.21 -11.15,-61.38 -20.77,-60.42 -31.74,-59.28" fill="none" stroke="rgb(19, 23, 134)" stroke-width="2" stroke-linejoin="round" filter="url(#fuzzy)" /><polyline points="22.75,-76.69 23.89,-76.07 24.67,-75.61 25.32,-75.19 25.99,-74.74 26.71,-74.25 27.41,-73.77 28.01,-73.36 28.43,-73.08 28.59,-72.96 28.45,-73.04 28,-73.3 27.2,-73.79 25.92,-74.58 23.86,-75.84" fill="none" stroke="rgb(19, 23, 134)" stroke-width="2" stroke-linejoin="round" filter="url(#fuzzy)" /><polyline points="-8.34,-81.46 -7.97,-81.49 -7.1,-81.47 -5.73,-81.41 -3.99,-81.3 -2.01,-81.1 0.08,-80.82 2.19,-80.44 4.27,-80 6.28,-79.52 8.22,-79.03 10.11,-78.53 11.98,-78.03 13.88,-77.51 15.8,-76.99 17.71,-76.47 19.56,-75.96 21.3,-75.49 22.88,-75.07 24.22,-74.73 25.25,-74.52 25.93,-74.47" fill="none" stroke="rgb(19, 23, 134)" stroke-width="2" stroke-linejoin="round" filter="url(#fuzzy)" /><polyline points="34.46,-68.4 34.65,-68.25 35.06,-67.85 35.73,-67.19 36.42,-66.51 36.95,-65.94 37.28,-65.52 37.43,-65.21 37.45,-64.96 37.35,-64.76 37.09,-64.64 36.62,-64.66 35.87,-64.86 34.84,-65.28 33.52,-65.91 31.93,-66.74 30.07,-67.79 27.96,-69.05 25.6,-70.54 22.94,-72.27 19.89,-74.23 16.28,-76.45 12.06,-78.96" fill="none" stroke="rgb(19, 23, 134)" stroke-width="2" stroke-linejoin="round" filter="url(#fuzzy)" /><polyline points="24.85,-75.54 25.16,-75.32 25.74,-74.91 26.54,-74.36 27.46,-73.73 28.39,-73.1 29.22,-72.53 29.88,-72.07 30.32,-71.73 30.54,-71.52 30.55,-71.45 30.34,-71.53 29.91,-71.77 29.2,-72.2 28.16,-72.83 26.78,-73.69 25.06,-74.78 23.1,-76.07" fill="none" stroke="rgb(19, 23, 134)" stroke-width="2" stroke-linejoin="round" filter="url(#fuzzy)" /><polyline points="50.36,-47.98 50.95,-46.93 51.01,-46.52 50.74,-46.45 50.24,-46.64 49.49,-47.12 48.44,-47.9 47.05,-49.04 45.24,-50.59 42.97,-52.69 40.19,-55.41 36.89,-58.79 33.02,-62.84 28.42,-67.56 22.92,-73.04" fill="none" stroke="rgb(19, 23, 134)" stroke-width="2" stroke-linejoin="round" filter="url(#fuzzy)" /><polyline points="46.46,-54.44 47.54,-52.61 48.28,-51.33 48.87,-50.26 49.27,-49.45 49.4,-48.99 49.25,-48.89 48.83,-49.12 48.16,-49.66 47.26,-50.47 46.11,-51.57 44.68,-52.97 42.91,-54.75 40.75,-56.98 38.18,-59.75 35.21,-63.06 31.93,-66.86 28.44,-71.05" fill="none" stroke="rgb(19, 23, 134)" stroke-width="2" stroke-linejoin="round" filter="url(#fuzzy)" /><polyline points="54.97,-38.19 55.09,-37.85 55.29,-37.21 55.5,-36.54 55.72,-35.83 55.94,-35.12 56.12,-34.49 56.22,-34.03 56.21,-33.82 56.05,-33.92 55.72,-34.36 55.21,-35.16 54.53,-36.32 53.68,-37.87 52.67,-39.81 51.51,-42.16 50.16,-45 48.49,-48.51 46.35,-52.98" fill="none" stroke="rgb(19, 23, 134)" stroke-width="2" stroke-linejoin="round" filter="url(#fuzzy)" /><polyline points="1.22,-82.24 1.76,-82.27 2.11,-82.27 2.54,-82.16 2.91,-81.94 3.12,-81.62 3.12,-81.22 2.86,-80.72 2.31,-80.12 1.39,-79.43 0.05,-78.65 -1.78,-77.78 -4.07,-76.83 -6.77,-75.78 -9.85,-74.61 -13.34,-73.29 -17.33,-71.75 -21.93,-69.98 -27.1,-68.02 -32.63,-66.06" fill="none" stroke="rgb(19, 23, 134)" stroke-width="2" stroke-linejoin="round" filter="url(#fuzzy)" /><polyline points="12.32,-80.8 13.58,-80.33 14.48,-79.9 15.03,-79.48 15.35,-79.03 15.45,-78.53 15.25,-78 14.66,-77.46 13.66,-76.9 12.26,-76.31 10.46,-75.67 8.28,-74.96 5.67,-74.19 2.64,-73.38 -0.81,-72.52 -4.67,-71.6 -8.97,-70.58 -13.79,-69.41 -19.23,-68.08 -25.28,-66.66 -31.75,-65.35" fill="none" stroke="rgb(19, 23, 134)" stroke-width="2" stroke-linejoin="round" filter="url(#fuzzy)" /><polyline points="-33.2,-69.47 -31.65,-70.75 -30.46,-71.62 -29.39,-72.34 -28.27,-73.06 -27.08,-73.79 -25.89,-74.51 -24.76,-75.17 -23.72,-75.77 -22.76,-76.32 -21.89,-76.82 -21.14,-77.27 -20.54,-77.62 -20.16,-77.85 -20.1,-77.91 -20.46,-77.74 -21.29,-77.32 -22.48,-76.73" fill="none" stroke="rgb(19, 23, 134)" stroke-width="2" stroke-linejoin="round" filter="url(#fuzzy)" /><polyline points="31.53,-70.89 32.07,-70.43 32.5,-69.98 32.82,-69.59 32.88,-69.35 32.67,-69.27 32.19,-69.3 31.41,-69.51 30.23,-69.95 28.55,-70.71 26.29,-71.8 23.39,-73.21 19.85,-74.9 15.7,-76.9 10.95,-79.23" fill="none" stroke="rgb(19, 23, 134)" stroke-width="2" stroke-linejoin="round" filter="url(#fuzzy)" /><polyline points="1.37,-82.23 1.41,-82.21 1.43,-82.13 1.41,-81.95 1.32,-81.62 1.05,-81.11 0.49,-80.43 -0.41,-79.57 -1.7,-78.53 -3.4,-77.32 -5.57,-75.95 -8.29,-74.42 -11.64,-72.7 -15.65,-70.75 -20.32,-68.49 -25.57,-65.92 -31.33,-63.13 -37.55,-60.24" fill="none" stroke="rgb(19, 23, 134)" stroke-width="2" stroke-linejoin="round" filter="url(#fuzzy)" /><polyline points="46.97,-53.44 46.65,-54.06 46.77,-53.92 47.1,-53.37 47.55,-52.57 48.04,-51.69 48.49,-50.84 48.83,-50.15 48.99,-49.68 48.95,-49.48 48.71,-49.53 48.28,-49.82 47.67,-50.31 46.91,-50.99 45.98,-51.87 44.85,-53 43.49,-54.42 41.86,-56.21 39.93,-58.38 37.67,-60.94 35.06,-63.9 32.14,-67.23 28.92,-70.96" fill="none" stroke="rgb(19, 23, 134)" stroke-width="2" stroke-linejoin="round" filter="url(#fuzzy)" /><polyline points="32.41,-70.28 32.73,-69.84 33.43,-69.21 33.95,-68.73 34.33,-68.33 34.59,-67.96 34.66,-67.69 34.45,-67.59 33.89,-67.72 33,-68.06 31.8,-68.58 30.32,-69.25 28.55,-70.09 26.47,-71.16 23.97,-72.53 20.9,-74.29 17.06,-76.47 12.47,-79.01" fill="none" stroke="rgb(19, 23, 134)" stroke-width="2" stroke-linejoin="round" filter="url(#fuzzy)" /><polyline points="20.67,-77.78 22.36,-76.89 23.47,-76.28 24.12,-75.89 24.49,-75.61 24.71,-75.38 24.85,-75.16 24.89,-74.97 24.77,-74.83 24.37,-74.81 23.6,-74.93 22.4,-75.23 20.76,-75.69 18.69,-76.34 16.18,-77.16 13.19,-78.2 9.69,-79.43 5.82,-80.81" fill="none" stroke="rgb(19, 23, 134)" stroke-width="2" stroke-linejoin="round" filter="url(#fuzzy)" /><polyline points="-18.15,-78.95 -17.89,-78.98 -17.08,-79.19 -16.15,-79.46 -15.27,-79.73 -14.48,-80 -13.8,-80.23 -13.29,-80.4 -13.02,-80.46 -13.04,-80.42 -13.38,-80.27 -14.08,-79.99 -15.2,-79.58 -16.81,-78.98 -19.07,-78.11" fill="none" stroke="rgb(19, 23, 134)" stroke-width="2" stroke-linejoin="round" filter="url(#fuzzy)" /><polyline points="15.67,-79.69 16.09,-79.5 16.98,-79.15 18.13,-78.7 19.25,-78.25 20.19,-77.86 20.91,-77.55 21.44,-77.3 21.8,-77.09 21.99,-76.95 21.94,-76.89 21.65,-76.92 21.11,-77.06 20.34,-77.29 19.38,-77.6 18.23,-78 16.82,-78.53 14.93,-79.27 12.13,-80.32" fill="none" stroke="rgb(19, 23, 134)" stroke-width="2" stroke-linejoin="round" filter="url(#fuzzy)" /><polyline points="-5.49,-82.01 -3.96,-82.22 -2.65,-82.3 -1.45,-82.32 -0.4,-82.31 0.45,-82.29 1.09,-82.29 1.55,-82.3 1.87,-82.3 2.05,-82.29 2.05,-82.25 1.8,-82.17 1.24,-82.06 0.34,-81.92 -0.89,-81.75 -2.42,-81.6 -4.24,-81.47 -6.51,-81.41" fill="none" stroke="rgb(19, 23, 134)" stroke-width="2" stroke-linejoin="round" filter="url(#fuzzy)" /><polyline points="15.67,-79.69 15.99,-79.51 16.6,-79.17 17.26,-78.73 17.7,-78.28 17.76,-77.85 17.41,-77.45 16.72,-77.05 15.71,-76.62 14.37,-76.15 12.68,-75.67 10.6,-75.16 8.12,-74.63 5.25,-74.04 1.97,-73.4 -1.73,-72.7 -5.92,-71.94 -10.66,-71.14 -15.98,-70.33 -21.75,-69.63 -27.74,-69.19" fill="none" stroke="rgb(19, 23, 134)" stroke-width="2" stroke-linejoin="round" filter="url(#fuzzy)" /><polyline points="31.96,-70.3 33.48,-69.1 33.95,-68.54 34.05,-68.1 33.97,-67.62 33.62,-67.16 32.89,-66.83 31.73,-66.64 30.15,-66.58 28.19,-66.59 25.85,-66.66 23.11,-66.79 19.89,-67.03 16.13,-67.41 11.78,-67.95 6.82,-68.64 1.3,-69.46 -4.77,-70.41 -11.44,-71.53 -18.65,-72.91" fill="none" stroke="rgb(19, 23, 134)" stroke-width="2" stroke-linejoin="round" filter="url(#fuzzy)" /><polyline points="12.72,-80.57 13,-80.5 14.08,-80.09 15.42,-79.53 16.83,-78.91 18.31,-78.24 19.82,-77.53 21.3,-76.83 22.66,-76.16 23.88,-75.56 24.94,-75.02 25.86,-74.54 26.62,-74.15 27.16,-73.87 27.42,-73.74 27.34,-73.81 26.97,-74.08 26.33,-74.51" fill="none" stroke="rgb(19, 23, 134)" stroke-width="2" stroke-linejoin="round" filter="url(#fuzzy)" /><polyline points="32.41,-70.28 32.78,-69.8 33.62,-69.07 34.39,-68.41 35.13,-67.76 35.87,-67.08 36.57,-66.41 37.17,-65.83 37.61,-65.37 37.91,-65 38.09,-64.72 38.14,-64.52 38.05,-64.42 37.76,-64.48 37.25,-64.73 36.48,-65.21 35.48,-65.92 34.27,-66.82 32.84,-67.93 31.14,-69.29 29.08,-70.97 26.6,-72.99 23.93,-75.2" fill="none" stroke="rgb(19, 23, 134)" stroke-width="2" stroke-linejoin="round" filter="url(#fuzzy)" /><polyline points="-2.71,-82.39 -1.33,-82.32 0.06,-82.19 1.38,-82.03 2.64,-81.86 3.92,-81.68 5.28,-81.49 6.76,-81.26 8.32,-81 9.89,-80.71 11.34,-80.44 12.59,-80.21 13.56,-80.05 14.25,-79.97 14.64,-79.94 14.58,-80.01" fill="none" stroke="rgb(19, 23, 134)" stroke-width="2" stroke-linejoin="round" filter="url(#fuzzy)" /><polyline points="25.06,-75.4 25.53,-75.04 26.19,-74.56 26.85,-74.05 27.4,-73.56 27.75,-73.17 27.81,-72.89 27.55,-72.73 26.98,-72.68 26.09,-72.76 24.9,-72.97 23.39,-73.3 21.56,-73.77 19.38,-74.37 16.79,-75.13 13.67,-76.1 9.92,-77.31 5.5,-78.76 0.41,-80.36" fill="none" stroke="rgb(19, 23, 134)" stroke-width="2" stroke-linejoin="round" filter="url(#fuzzy)" /><polyline points="12.72,-80.57 12.99,-80.51 14,-80.14 15.22,-79.65 16.51,-79.1 17.85,-78.51 19.23,-77.87 20.58,-77.22 21.85,-76.6 23.01,-76.02 24.07,-75.47 25.04,-74.95 25.92,-74.47 26.7,-74.03 27.36,-73.65 27.89,-73.35 28.28,-73.12 28.53,-72.98 28.59,-72.96 28.44,-73.07 28.04,-73.35 27.4,-73.78 26.58,-74.33 25.69,-74.94" fill="none" stroke="rgb(19, 23, 134)" stroke-width="2" stroke-linejoin="round" filter="url(#fuzzy)" /><polyline points="-3.61,-82.32 -2.49,-82.29 -1.07,-82.1 0.43,-81.79 1.93,-81.4 3.41,-80.94 4.97,-80.42 6.66,-79.83 8.51,-79.16 10.51,-78.44 12.61,-77.67 14.77,-76.88 16.96,-76.06 19.14,-75.23 21.28,-74.39 23.3,-73.56 25.14,-72.8 26.77,-72.12 28.21,-71.54 29.56,-71.01 30.89,-70.45 31.95,-70.02" fill="none" stroke="rgb(19, 23, 134)" stroke-width="2" stroke-linejoin="round" filter="url(#fuzzy)" /><polyline points="-34.96,-67.75 -34.05,-68.56 -33.12,-68.96 -31.7,-69.39 -29.7,-69.99 -27.26,-70.71 -24.52,-71.47 -21.55,-72.2 -18.39,-72.9 -15.02,-73.57 -11.49,-74.21 -7.84,-74.81 -4.12,-75.4 -0.34,-75.97 3.52,-76.52 7.47,-77.02 11.42,-77.49 15.06,-78.06" fill="none" stroke="rgb(19, 23, 134)" stroke-width="2" stroke-linejoin="round" filter="url(#fuzzy)" /><polyline points="26.42,-74.61 27.23,-73.86 27.94,-73.22 28.42,-72.67 28.54,-72.24 28.28,-71.89 27.65,-71.63 26.66,-71.45 25.3,-71.35 23.53,-71.34 21.35,-71.4 18.75,-71.53 15.69,-71.77 12.12,-72.15 8,-72.7 3.31,-73.42 -1.94,-74.26 -7.81,-75.16 -14.47,-76.04" fill="none" stroke="rgb(19, 23, 134)" stroke-width="2" stroke-linejoin="round" filter="url(#fuzzy)" /><polyline points="-34.96,-67.75 -34.2,-68.58 -33.71,-69.05 -33.02,-69.58 -32.05,-70.29 -30.9,-71.11 -29.72,-71.95 -28.57,-72.75 -27.47,-73.49 -26.45,-74.18 -25.53,-74.79 -24.73,-75.31 -24.1,-75.72 -23.64,-76.02 -23.37,-76.2 -23.29,-76.26 -23.4,-76.19 -23.72,-76 -24.27,-75.67 -25.07,-75.21 -26.14,-74.62" fill="none" stroke="rgb(19, 23, 134)" stroke-width="2" stroke-linejoin="round" filter="url(#fuzzy)" /><polyline points="-0.09,-82.26 0.93,-82.22 1.68,-82.16 2.5,-82.08 3.53,-81.95 4.77,-81.77 6.19,-81.53 7.7,-81.24 9.23,-80.92 10.73,-80.6 12.17,-80.29 13.47,-79.99 14.57,-79.74 15.37,-79.55 15.83,-79.46 15.96,-79.47 15.85,-79.55 15.57,-79.67 15.02,-79.87" fill="none" stroke="rgb(19, 23, 134)" stroke-width="2" stroke-linejoin="round" filter="url(#fuzzy)" /><polyline points="24.85,-75.54 25.09,-75.35 25.48,-75.05 25.96,-74.66 26.42,-74.24 26.73,-73.87 26.8,-73.59 26.56,-73.44 25.96,-73.43 24.99,-73.56 23.66,-73.83 21.96,-74.25 19.91,-74.82 17.5,-75.55 14.71,-76.45 11.45,-77.52 7.55,-78.84 2.84,-80.47" fill="none" stroke="rgb(19, 23, 134)" stroke-width="2" stroke-linejoin="round" filter="url(#fuzzy)" /><polyline points="-29.95,-72.09 -29.69,-72.23 -28.78,-72.81 -27.49,-73.58 -26.09,-74.37 -24.71,-75.11 -23.36,-75.82 -22.03,-76.5 -20.76,-77.16 -19.59,-77.77 -18.58,-78.28 -17.77,-78.69 -17.23,-78.98 -17.08,-79.12 -17.46,-79.07" fill="none" stroke="rgb(19, 23, 134)" stroke-width="2" stroke-linejoin="round" filter="url(#fuzzy)" /><polyline points="31.96,-70.3 33.41,-69.1 33.67,-68.57 33.4,-68.17 32.8,-67.72 31.76,-67.3 30.17,-67 27.94,-66.86 25.08,-66.85 21.64,-66.91 17.62,-67.03 13.01,-67.22 7.72,-67.52 1.67,-67.99 -5.24,-68.64 -13,-69.47 -21.35,-70.56" fill="none" stroke="rgb(19, 23, 134)" stroke-width="2" stroke-linejoin="round" filter="url(#fuzzy)" /><polyline points="10.57,-81.35 11.79,-80.88 12.52,-80.54 13.37,-80.13 14.51,-79.58 15.95,-78.89 17.57,-78.11 19.28,-77.28 21.01,-76.44 22.71,-75.61 24.32,-74.83 25.76,-74.1 26.99,-73.49 27.99,-72.99 28.8,-72.6 29.45,-72.31 29.92,-72.1" fill="none" stroke="rgb(19, 23, 134)" stroke-width="2" stroke-linejoin="round" filter="url(#fuzzy)" /><polyline points="4.08,-82.38 5.22,-82.11 6.07,-81.89 6.78,-81.62 7.34,-81.26 7.65,-80.83 7.59,-80.36 7.14,-79.83 6.32,-79.25 5.2,-78.58 3.82,-77.81 2.18,-76.91 0.23,-75.88 -2.07,-74.71 -4.74,-73.41 -7.83,-72.03 -11.35,-70.58 -15.35,-69.06 -19.85,-67.45 -24.88,-65.62 -30.53,-63.46 -36.91,-60.87" fill="none" stroke="rgb(19, 23, 134)" stroke-width="2" stroke-linejoin="round" filter="url(#fuzzy)" /><polyline points="1.22,-82.24 1.78,-82.28 2.2,-82.32 2.74,-82.28 3.25,-82.16 3.62,-81.98 3.79,-81.75 3.73,-81.47 3.39,-81.15 2.71,-80.8 1.59,-80.41 -0.04,-79.99 -2.2,-79.52 -4.88,-78.96 -8.04,-78.31 -11.64,-77.56 -15.76,-76.73 -20.58,-75.73" fill="none" stroke="rgb(19, 23, 134)" stroke-width="2" stroke-linejoin="round" filter="url(#fuzzy)" /><polyline points="38.68,-64.39 39.41,-63.54 40.02,-62.59 40.43,-61.68 40.53,-60.94 40.26,-60.42 39.61,-60.11 38.63,-59.94 37.31,-59.9 35.64,-60 33.6,-60.25 31.18,-60.67 28.38,-61.22 25.22,-61.89 21.67,-62.66 17.72,-63.56 13.32,-64.62 8.37,-65.89 2.83,-67.38 -3.31,-69.1 -9.96,-71.04 -16.98,-73.22" fill="none" stroke="rgb(19, 23, 134)" stroke-width="2" stroke-linejoin="round" filter="url(#fuzzy)" /><polyline points="-15.72,-79.57 -15.17,-79.72 -14.31,-80 -13.22,-80.35 -12.08,-80.67 -10.96,-80.93 -9.89,-81.15 -8.87,-81.33 -7.92,-81.49 -7,-81.62 -6.13,-81.76 -5.29,-81.88 -4.52,-82 -3.86,-82.09 -3.37,-82.15 -3.11,-82.16 -3.12,-82.11 -3.39,-82.04 -3.92,-81.94 -4.67,-81.82 -5.65,-81.7 -6.88,-81.55 -8.35,-81.36 -10.07,-81.12" fill="none" stroke="rgb(19, 23, 134)" stroke-width="2" stroke-linejoin="round" filter="url(#fuzzy)" /><polyline points="-14.94,-79.76 -13.41,-80.27 -11.83,-80.41 -10.13,-80.3 -8.24,-80.01 -6.14,-79.59 -3.85,-79.05 -1.38,-78.43 1.29,-77.74 4.16,-77.02 7.21,-76.28 10.42,-75.5 13.71,-74.65 17.03,-73.72 20.3,-72.74 23.43,-71.76 26.33,-70.88 28.96,-70.15 31.54,-69.44" fill="none" stroke="rgb(19, 23, 134)" stroke-width="2" stroke-linejoin="round" filter="url(#fuzzy)" /><polyline points="24.85,-75.54 25.14,-75.33 25.68,-74.95 26.4,-74.46 27.17,-73.93 27.91,-73.43 28.5,-73.03 28.86,-72.76 28.91,-72.67 28.63,-72.78 27.99,-73.1 27.03,-73.63 25.72,-74.39 23.97,-75.43 21.5,-76.87" fill="none" stroke="rgb(19, 23, 134)" stroke-width="2" stroke-linejoin="round" filter="url(#fuzzy)" /><polyline points="-12.14,-80.83 -11.26,-80.99 -10.2,-81.06 -8.94,-81.08 -7.56,-81.04 -6.08,-80.97 -4.47,-80.88 -2.68,-80.79 -0.74,-80.69 1.31,-80.58 3.39,-80.44 5.43,-80.26 7.37,-80.05 9.16,-79.84 10.77,-79.64 12.21,-79.47 13.53,-79.31 14.77,-79.14 15.87,-79 16.63,-78.96 16.83,-79.08" fill="none" stroke="rgb(19, 23, 134)" stroke-width="2" stroke-linejoin="round" filter="url(#fuzzy)" /><polyline points="26.42,-74.61 27.33,-73.84 28.35,-73.12 29.32,-72.47 30.14,-71.89 30.81,-71.38 31.34,-70.92 31.75,-70.54 32.02,-70.23 32.16,-70.01 32.14,-69.87 31.94,-69.83 31.53,-69.92 30.83,-70.17 29.83,-70.61 28.49,-71.25 26.86,-72.07 24.95,-73.05 22.77,-74.19 20.36,-75.51 17.75,-77.04 15.06,-78.78" fill="none" stroke="rgb(19, 23, 134)" stroke-width="2" stroke-linejoin="round" filter="url(#fuzzy)" /><polyline points="-3.61,-82.32 1.55,-77.96 18.23,-67.1 31.77,-57.76 37.58,-54.59 36.82,-56.68 31.94,-60.94 25.08,-64.51 17.88,-65.71 11.16,-64.46 5.12,-62.33 0.49,-61.43 -0.55,-63.15 2.48,-67.78 1.2,-75.06 -14.94,-79.76" fill="none" stroke="rgb(19, 23, 134)" stroke-width="2" stroke-linejoin="round" filter="url(#fuzzy)" /><polyline points="31.96,-70.3 46.15,-45.05 40.55,-44.79 29.65,-50.65 21.88,-55.55 17.57,-58.72 14.86,-60.77 13.01,-62.17 12.12,-63.3 12.01,-64.56 12.07,-66.23 11.6,-68.35 10.19,-70.71 7.88,-73.1 5.03,-75.31 2.36,-77.14 0.74,-78.43 0.8,-78.99 2.54,-78.72 5.21,-77.63 7.52,-76.1 7.24,-75.28 -0.54,-77.04 -18.15,-78.95" fill="none" stroke="rgb(19, 23, 134)" stroke-width="2" stroke-linejoin="round" filter="url(#fuzzy)" /><polyline points="44.21,-57.74 15.69,-70.2 -7.68,-70.33 -20.01,-66.67 -20.67,-63.35 -14.01,-61.39 -6.2,-60.58 -1.76,-60.58 -1.8,-61.32 -4.36,-62.84 -6.42,-64.96 -5.86,-67.24 -2.36,-69.06 2.97,-69.92 8.44,-69.67 12.08,-68.57 12.01,-66.82 8.12,-63.78 3.83,-58.09 -0.22,-51.9 -41.18,-61.27" fill="none" stroke="rgb(19, 23, 134)" stroke-width="2" stroke-linejoin="round" filter="url(#fuzzy)" /><polyline points="37.65,-65.35 37.16,-57.38 24.62,-64.61 16.64,-70.47 12.58,-73.69 9.55,-75.43 7.57,-76.04 8.03,-75.29 10.94,-73.37 14.29,-71.22 15.57,-69.98 13.86,-69.93 10.35,-70.06 6.39,-69.06 0.47,-67 -11.22,-65.84 -26.52,-67.32 -25.78,-74.99" fill="none" stroke="rgb(19, 23, 134)" stroke-width="2" stroke-linejoin="round" filter="url(#fuzzy)" /><polyline points="56.93,-32.54 46.54,-49.93 40.06,-54.18 30.11,-55.1 17.04,-56.91 6.83,-59.4 3.56,-61.24 6.54,-61.61 11.78,-60.79 14.78,-59.99 12.78,-60.44 5.68,-62.39 -4.38,-64.9 -14.21,-66.47 -20.42,-65.97 -19.34,-63.22 -6.44,-59.29 20.84,-56.9 44.26,-57.55" fill="none" stroke="rgb(19, 23, 134)" stroke-width="2" stroke-linejoin="round" filter="url(#fuzzy)" /><polyline points="40.64,-62.3 36.62,-62.11 23.83,-63.7 7.35,-62.08 -5.67,-59.13 -8.63,-56.27 -0.78,-53.95 13.1,-52.17 26.53,-50.83 34.51,-50.22 34.7,-51.45 27.64,-55.99 16.8,-64.04 7.01,-72.77 -2.33,-77.14 -26.64,-74.26" fill="none" stroke="rgb(19, 23, 134)" stroke-width="2" stroke-linejoin="round" filter="url(#fuzzy)" /><polyline points="-39.64,-63.52 -24.97,-62.99 -2.67,-66.19 13.46,-66.6 22.67,-65.72 26.48,-65.54 27.1,-66.28 26.37,-67.32 25.32,-68.13 24.42,-68.61 23.86,-68.8 23.69,-68.79 23.75,-68.64 23.77,-68.43 23.34,-68.11 21.89,-67.54 18.4,-66.65 11.77,-65.6 2,-64.79 -7.8,-64.54 -10.97,-64.97 -0.7,-65.85 21.08,-66.71 30.51,-71.73" fill="none" stroke="rgb(19, 23, 134)" stroke-width="2" stroke-linejoin="round" filter="url(#fuzzy)" /><polyline points="-48.9,-50.43 -25.14,-61.75 2.58,-63.34 19.6,-62.81 25.99,-63.89 27.55,-65.32 28.54,-65.21 29.41,-63.7 28.28,-62.54 23.54,-63.29 15.54,-65.96 6.52,-68.95 -0.59,-70.26 -2.75,-68.64 3.47,-63.79 20.67,-55.49 44.48,-42.81 58.25,-28.34" fill="none" stroke="rgb(19, 23, 134)" stroke-width="2" stroke-linejoin="round" filter="url(#fuzzy)" /><polyline points="-39.64,-63.52 -23.85,-72.52 -9.88,-73.1 4.54,-69.77 14.96,-65.24 20.29,-61.19 22.59,-58.58 24.27,-57.79 26.25,-58.74 27.8,-61.08 27.8,-64.25 26.09,-67.48 23.88,-69.84 22.96,-70.56 24.25,-69.57 26.86,-67.58 28.52,-65.21 26.12,-61.72 11.39,-56.43 -44.52,-57.07" fill="none" stroke="rgb(19, 23, 134)" stroke-width="2" stroke-linejoin="round" filter="url(#fuzzy)" /><polyline points="-0.09,-82.26 -12.12,-75.27 -9.84,-75.42 -6.27,-74.75 0.77,-71.47 11.07,-66.31 21.35,-60.86 28.05,-56.55 29.17,-54.16 24.77,-53.87 16.64,-55.46 7.5,-58.49 -0.12,-62.38 -4.68,-66.44 -5.96,-69.9 -4.71,-72.07 -1.87,-72.5 2.07,-71.15 7.27,-68.39 13.33,-64.91 16.9,-61.6 10.18,-59.92 -13.96,-61.6 -41.18,-61.27" fill="none" stroke="rgb(19, 23, 134)" stroke-width="2" stroke-linejoin="round" filter="url(#fuzzy)" /><polyline points="3.71,-82.41 2.33,-71.24 13.73,-64.21 16.41,-61.12 11.19,-60.53 3.04,-61.99 -4.32,-64.73 -9.29,-67.62 -11.45,-69.62 -10.7,-70.27 -7.15,-69.81 -1.52,-69.08 4.66,-68.88 9.62,-69.42 12.12,-70.17 11.72,-70.51 8.08,-70.68 0.78,-71.72 -9.14,-73.82 -16.83,-75.69 -9.48,-81.42" fill="none" stroke="rgb(19, 23, 134)" stroke-width="2" stroke-linejoin="round" filter="url(#fuzzy)" /><polyline points="-25.78,-74.99 -21.43,-65.69 -1.66,-67.49 12.13,-69.09 16.47,-69.69 13.43,-69.91 7.24,-70.01 1.89,-70.28 -0.61,-71.13 -0.48,-72.75 0.61,-74.94 0.87,-77.09 -0.57,-78.43 -3.45,-78.19 -7.49,-75.85 -14.49,-71.01 -29.04,-63.36 -46.57,-54.05" fill="none" stroke="rgb(19, 23, 134)" stroke-width="2" stroke-linejoin="round" filter="url(#fuzzy)" /><polyline points="-11.13,-81.09 12.49,-72.34 11.83,-67.61 6.14,-67.82 3.88,-69.98 4.55,-71.79 5.95,-72.16 7.57,-70.69 10.46,-67.53 15.38,-63.56 21.42,-60.19 26.16,-58.69 27.11,-59.38 23.4,-61.37 16.65,-63.08 10.64,-63.32 9.6,-62.31 14.52,-61.98 18.99,-65.17 10.3,-73.11 -15.24,-79.68" fill="none" stroke="rgb(19, 23, 134)" stroke-width="2" stroke-linejoin="round" filter="url(#fuzzy)" /><polyline points="-14.94,-79.76 -3.87,-80.98 -3.81,-80.47 -4.17,-78.7 -2.61,-76.68 -1.05,-75.1 -1.03,-74.05 -1.9,-73.02 -1.81,-71.38 0.67,-68.93 5.55,-66.18 11.4,-63.97 16.02,-62.99 17.32,-63.27 14.38,-64.21 8.24,-64.91 2.12,-64.45 0.48,-62.13 6.46,-57.83 17.46,-53.27 17.93,-54.35 -27.48,-74" fill="none" stroke="rgb(19, 23, 134)" stroke-width="2" stroke-linejoin="round" filter="url(#fuzzy)" /><polyline points="-7.66,-81.61 -2.08,-80.13 9.55,-73.97 20.41,-67.86 25.43,-64.91 25.55,-64.69 23.41,-65.31 20.45,-65.3 17.06,-64.06 13.73,-61.76 11.53,-59.01 11.54,-56.57 14.07,-55.13 18.32,-55.1 22.92,-56.35 26.73,-58.22 29.29,-59.82 30.43,-60.73 29.64,-61.51 26.05,-63.48 19.38,-67.47 9.24,-72.54 -18.15,-78.95" fill="none" stroke="rgb(19, 23, 134)" stroke-width="2" stroke-linejoin="round" filter="url(#fuzzy)" /><polyline points="12.32,-80.8 16.88,-74.42 25.51,-68.31 24.33,-67.29 14.74,-68.06 2.57,-68.02 -6.83,-66.62 -11.38,-64.65 -12.43,-63.23 -12.82,-63.09 -14.56,-64.19 -17.61,-65.87 -20.41,-67.42 -21.25,-68.57 -19.6,-69.66 -16.44,-71.26 -13.48,-73.63 -11.88,-76.48 -11.34,-79.09 -10.51,-80.75 -7.66,-81.61" fill="none" stroke="rgb(19, 23, 134)" stroke-width="2" stroke-linejoin="round" filter="url(#fuzzy)" /><polyline points="3.71,-82.41 10.33,-67.61 6.93,-60.7 7.84,-60.27 9.32,-63.47 8.74,-67.85 5.89,-71.68 2.16,-73.93 -0.54,-74.47 -1.01,-74.04 0.38,-73.63 2.22,-73.67 3.83,-73.6 4.87,-72.21 -2.2,-67.55 -45.1,-56.32" fill="none" stroke="rgb(19, 23, 134)" stroke-width="2" stroke-linejoin="round" filter="url(#fuzzy)" />
    </g>
    
        <g id="pointNose">
          <g id="rightNose"><circle r="2.588" cx="7.928000000000001" cy="18.316" stroke="black" fill="none" stroke-width="1.0" filter="url(#fuzzy)" /><circle r="1.374" cx="7.516" cy="17.776" stroke="black" fill="none" stroke-width="1.0" filter="url(#fuzzy)" /><circle r="2.576" cx="6.772" cy="19.656" stroke="black" fill="none" stroke-width="1.0" filter="url(#fuzzy)" /><circle r="1.328" cx="8.796" cy="19.336" stroke="black" fill="none" stroke-width="1.0" filter="url(#fuzzy)" /><circle r="2.6719999999999997" cx="9.856" cy="17.396" stroke="black" fill="none" stroke-width="1.0" filter="url(#fuzzy)" /><circle r="2.9539999999999997" cx="7.484" cy="18.148" stroke="black" fill="none" stroke-width="1.0" filter="url(#fuzzy)" /><circle r="2.1" cx="7.879999999999999" cy="17.508" stroke="black" fill="none" stroke-width="1.0" filter="url(#fuzzy)" /><circle r="2.2199999999999998" cx="10.256" cy="16.08" stroke="black" fill="none" stroke-width="1.0" filter="url(#fuzzy)" /><circle r="2.3680000000000003" cx="7.087999999999999" cy="19.052" stroke="black" fill="none" stroke-width="1.0" filter="url(#fuzzy)" /><circle r="1.466" cx="9.72" cy="19.104" stroke="black" fill="none" stroke-width="1.0" filter="url(#fuzzy)" /></g>
          <g id="leftNose"><circle r="1.006" cx="-9.193999999999999" cy="16.536" stroke="black" fill="none" stroke-width="1.0" filter="url(#fuzzy)" /><circle r="1.106" cx="-5.598" cy="18.416" stroke="black" fill="none" stroke-width="1.0" filter="url(#fuzzy)" /><circle r="2.826" cx="-8.586" cy="15.036000000000001" stroke="black" fill="none" stroke-width="1.0" filter="url(#fuzzy)" /><circle r="2.6639999999999997" cx="-5.434" cy="18.352" stroke="black" fill="none" stroke-width="1.0" filter="url(#fuzzy)" /><circle r="2.59" cx="-9.182" cy="18.124000000000002" stroke="black" fill="none" stroke-width="1.0" filter="url(#fuzzy)" /><circle r="2.858" cx="-9.018" cy="17.008" stroke="black" fill="none" stroke-width="1.0" filter="url(#fuzzy)" /><circle r="2.224" cx="-6.314" cy="18.404" stroke="black" fill="none" stroke-width="1.0" filter="url(#fuzzy)" /><circle r="1.908" cx="-8.382" cy="18.744" stroke="black" fill="none" stroke-width="1.0" filter="url(#fuzzy)" /><circle r="2.662" cx="-8.618" cy="15.740000000000002" stroke="black" fill="none" stroke-width="1.0" filter="url(#fuzzy)" /><circle r="1.3940000000000001" cx="-7.994" cy="16.292" stroke="black" fill="none" stroke-width="1.0" filter="url(#fuzzy)" /></g>
        </g>
      
    <g id="mouth">
      <polyline points="23.35,50.56 23.45,50.34 23.06,51.31 23.13,51.25 22.97,51.4 22.86,51.91 22.86,51.92 22.76,51.99 22.46,52.2 22.31,52.52 21.9,52.79 21.53,53.21 21.06,53.46 21.54,53.16 20.59,53.86 20.9,53.69 20.01,54.07 20.27,53.98 19.65,54.25 18.75,54.66 18.16,54.83 18.41,54.75 17.34,55.09 18.05,54.91 17.74,54.99 15.85,55.44 16.29,55.36 16.27,55.36 14.54,55.65 14.58,55.67 14.95,55.59 13.89,55.7 13.8,55.74 12.48,55.86 12.42,55.86 11.7,55.89 9.86,55.9 10.94,55.91 9.8,55.9 10,55.91 8.38,55.84 7.29,55.77 7.31,55.78 6.21,55.66 6.51,55.7 6.26,55.68 4.94,55.52 4.51,55.45 4.52,55.45 2.84,55.17 2.21,55.05 2.47,55.1 1.97,55 1.49,54.89 -0.33,54.45 -1.12,54.22 -1.79,54.03 -1.74,54.04 -1.46,54.13 -3.01,53.63 -3.76,53.36 -3.14,53.59 -4.94,52.93 -5.43,52.72 -4.64,53.05 -6.1,52.43 -6.47,52.27 -6.85,52.06 -6.8,52.11 -7.38,51.81 -7.81,51.62 -7.93,51.54 -8.72,51.07 -9.83,50.4 -10.08,50.28 -10.31,50.11 -10.4,50.08 -10.26,50.1 -12.01,48.84 -12.3,48.57 -12.5,48.3 -11.99,48.75 -13,47.89 -13.28,47.45 -12.88,47.97 -13.65,47.05 -13.75,46.78 -13.69,46.86 -13.72,46.92 -14.05,46.45 -14.59,45.35 -14.37,45.88 -14.52,45.43 -14.75,45.03 -14.83,44.33 -14.8,44.49 -14.83,43.96 -14.86,43.42 -14.84,43.16 -14.87,43.4 -14.84,43.31 -14.61,42.65 -14.48,42.31 -14.76,42.68 -14.59,42.44 -14.62,42.34 -14.47,42.01 -13.93,41.42 -13.98,41.32 -13.99,41.3 -13.46,40.89 -12.7,40.22 -13.26,40.66 -12.95,40.39 -12.8,40.16 -11.66,39.6 -12.04,39.74 -11.77,39.63 -11.64,39.57 -11.34,39.39 -9.91,38.87 -9.44,38.68 -9.62,38.77 -9.5,38.65 -8.36,38.41 -8.47,38.44 -7.45,38.14 -7.28,38.17 -7.4,38.13 -5.54,37.89 -4.96,37.85 -5.82,37.92 -4.18,37.76 -4.28,37.78 -3.15,37.73 -3.63,37.76 -2.65,37.7 -1.64,37.71 -1.37,37.73 -0.85,37.73 -0.66,37.73 -0.49,37.73 1.66,37.88 2.11,37.93 1.8,37.88 2.18,37.94 3.34,38.07 3.3,38.06 3.92,38.15 4.54,38.25 6.12,38.53 7.58,38.84 6.09,38.52 8.67,39.11 8.68,39.11 8.85,39.16 10,39.48 10.04,39.49 11.41,39.91 10.93,39.77 11.47,39.95 11.89,40.09 13.37,40.63 13.8,40.82 14.83,41.26 14.29,41 13.96,40.87 14.48,41.09 15.89,41.75 16.76,42.17 17.06,42.33 17.16,42.41 17.81,42.76 18.38,43.16 17.83,42.83 19.46,43.87 18.93,43.47 20.25,44.5 20.23,44.51 20.23,44.52 21.02,45.24 21.22,45.36 21.6,45.73 21.12,45.29 22.14,46.31 22.03,46.23 21.89,46.21 22.23,46.44 22.97,47.71 22.68,47.34 23.17,48.19 23.22,48.38 23.33,48.66 23.15,48.05 23.49,49.23 23.44,49.23 23.53,49.51 23.49,49.26 23.39,50.03 23.36,50.3" fill="rgb(105, 204, 102)" stroke="black" stroke-width="3" stroke-linejoin="round" filter="url(#fuzzy)" />
    </g>
  </svg>