<svg xmlns="http://www.w3.org/2000/svg" width="500" height="500" viewBox="-100 -100 200 200"><defs><clipPath id="c"><path d="m26.52 9.87-.04-.23-.08-.25-.12-.25-.15-.27-.18-.28-.22-.29-.26-.3-.28-.31-.32-.32-.36-.33-.38-.34-.41-.35-.44-.36-.47-.36-.5-.37-.48-.37-.53-.38-.57-.4-.61-.42-.65-.43-.68-.44-.72-.44-.75-.46-.79-.46-.82-.46-.84-.46L14 .08l-.9-.45-.92-.45-.94-.44-.96-.42-.98-.42-.99-.4-1-.38-1.01-.36-1.02-.34-1.02-.33-1.03-.29-1.03-.28-1.03-.25-1.02-.22-1.02-.2-1.02-.17-1-.15-1-.12-.98-.09-.97-.06-.95-.04h-.94l-.92.01-.91.04-.88.07-.86.09-.84.11-.82.13-.8.15-.77.17-.75.19-.72.2-.7.22-.68.22-.65.23-.63.24-.6.25-.58.25-.56.25-.54.26-.52.26-.49.27-.47.27-.45.27-.43.27-.41.28-.39.27-.37.28-.34.27-.33.26-.31.27-.28.26-.6 3.41.37-.01.38-.02.39-.03.41-.03.43-.03.44-.03.46-.04.47-.04.49-.04.5-.04.52-.04.53-.04.54-.04.56-.03.58-.04.59-.04.61-.03.62-.03.65-.03.65-.03.68-.01.69-.02h.7l.72.01.74.01.75.03.76.03.77.05.79.06.8.07.81.09.81.09.83.11.84.13.84.13.85.15.86.16.86.18.87.18.87.19.87.21.87.21.88.23.87.23.87.23.87.25.87.24.86.25.86.25.85.25.85.25.83.25.83.24.82.24.81.23.79.22.78.21.77.2.76.18.74.18.72.15.71.14.68.13.67.1.59.14.58.12.56.12.55.11.53.1.51.08.49.08.47.06.46.06.43.04.4.03.39.01.36.01.33-.01.31-.02"/></clipPath><clipPath id="b"><path d="m-31.1 12.48.17-.29.21-.3.25-.32.27-.33.31-.35.34-.36.37-.38.41-.39.43-.4.46-.41.49-.42.51-.44.54-.44.57-.45.59-.46.6-.46.64-.48.68-.5.71-.52.74-.53.78-.54.81-.56.83-.56.87-.57.89-.57.91-.57.93-.56.95-.56.97-.55.98-.54 1-.52 1.01-.51 1.01-.49 1.02-.46 1.03-.45 1.02-.42 1.03-.39 1.03-.37 1.02-.34 1.01-.3 1.01-.28 1-.25.99-.21.97-.18.96-.15.94-.12.93-.08L5-6.9l.89-.02h.87l.85.04.82.07.81.09.78.12.75.15.73.16.71.19.68.2.66.22.63.23.61.25.58.25.56.26.54.26.51.27.5.27.47.27.45.28.42.28.41.28.39.28.36.28.35.28.32.28.31.27.28.27.27.26.24.26.23.25 1.36 3.85-.26.03-.26.03-.28.01-.29.01-.31.01h-.32l-.33-.01-.35-.01-.36-.01-.37-.02-.39-.01-.4-.02-.42-.02-.43-.01-.44-.02-.46-.02-.47-.01-.5-.02-.5-.01h-1.62l-.58.02-.59.03-.6.04-.62.05-.64.06-.66.08-.67.1-.68.11-.7.12-.72.14-.73.16-.75.17-.76.19-.77.21-.79.22-.8.23-.81.25-.83.27-.83.28-.85.29-.86.3-.86.31-.88.32-.88.32-.89.33-.9.34-.9.34-.91.34-.92.33-.91.34-.92.32-.92.33-.92.31-.92.3-.91.29-.91.28-.91.26-.91.24-.89.22-.89.21-.88.18-.87.15-.73.21-.72.19-.71.18-.7.17-.68.16-.67.15-.65.13-.64.12-.62.11-.6.09-.57.09-.56.07-.52.05-.51.04-.47.03"/></clipPath><linearGradient id="d" x1="0%" x2="100%" y1="0%" y2="0%"><stop offset="0%" style="stop-color:[object Object];stop-opacity:1"/><stop offset="13.2%" style="stop-color:[object Object];stop-opacity:1"/><stop offset="100%" style="stop-color:[object Object];stop-opacity:1"/></linearGradient><filter id="a"><feTurbulence baseFrequency=".05" numOctaves="3" result="noise" type="noise"/><feDisplacementMap in="SourceGraphic" in2="noise" scale="2"/></filter></defs><rect width="100%" height="100%" x="-100" y="-100" fill="#F3E5AB"/><path fill="#FBCEB1" stroke="#000" stroke-linejoin="round" stroke-width="1.667" d="m71.7.15-.23.81.12.9-.13 2.34.01 1 .06-1.01-.38 2.53-.07.65.04.95-.57 3.15-.17.76.15.05-.26.71-.56 2.34.32-.27-.52 1.87-.1.06-.17 1.74-.72 1.12.07.09-.12.58-.36.87-.17 1.22-.83 1.84.03-.2-.92 2.53-.04-.14-1.19 2.92-.36.97.01-.13-.59 1.05-.16.78-1.5 2.9-.45.01.41-.04-.94 1.43-.87 1.18-.47.55-.75 1.32-.04-.04-1.61 2.12.2-.26-1.8 2.89-.21-.23-.58 1.32.12-.8-1.31 1.86-.65.43-1.74 2.03.3-.54-.57.74-.46.52-3.3 3.02.64-.56-.63.59-1.02 1.08-1.78 1.05.33-.25v.32l-.8.67-.65.26-3.71 2.62.43.01-.82.39-.24.12-2.7 1.71.63-.25-1.27.52-1.7.98-.69.35-.52.5-.29-.01-2.47 1.24-1.93.66.51.08-2.8 1.01 1.62-.7-1.74.77-2.82.91-2.21.65 1.09-.18-.81.17-2.32.63-.94.25-.44.2-.98.4-.61-.03-1.87.35.04.09-3.08.48-.68.22.25-.03-1.76-.06-2.8.62.34-.23.02-.1-1.91.18-1.11.07-2.13.06-1.43.01.03.04-1.07.08-2.42-.12 1.22.06-2.76-.05 1.34-.08-3.77-.06-1.32-.23-.75-.16-.37.1-.45-.14-.69-.28-2.39-.32.44.06-2.23-.41-.85-.24-1.62-.58-1.28-.04-.62-.26-1.42-.19-1.31-.59-1.39-.54-2.1-.8.08.17-1.14-.52.54.09-1.41-.32-1.14-.55-2.65-1.29.31.34-.1-.09-2.17-.94-2.08-1.33-.21-.47-.27.05-1.23-.48-1.46-1.31-1.01-.42.24-.21-3.16-1.85.13.25.33.12-1.36-.92-1.1-1.18-.31-.07-2.05-1.4.12-.38-1.55-1.09-1.59-1.56-.71-.65-.1-.32-1.08-.66-1.23-1.47-.23-.34.34.64-1.5-1.57-.03-.08-1.52-1.91.06.14-1.53-2.22-.73-.71.26-.36-1.43-1.61.21.51-1.19-1.73-.16-.42-.63-.97.1.22-1.01-1.98-1.57-2.56-.2-.92-.72-1.04.06-.42-.22-.58-.59-.65-.64-1.84-.38-.72-1.02-2.49.36.17-.86-1.22-.49-1.52.17-.66.04.29-.75-2.21-.4-1.38-.04-.32-.09-.73-.42-1.43-.53-2.06.01-1.22.03.97-.35-2.44-.17-.13-.08-.57-.36-2.56.14-.61-.12-1.85-.18-.62-.07-1.28-.09-.52.07-1.55.23.05-.2-2.17.09.43.24-4-.25.75.46-2.33-.38.88.46-2.27.3-1.72-.04.39.59-2.92.15-.85.21-1.4.3-1.59-.13.96.96-3.61-.13.73-.19.32.34-2.45.75-2.13.11-.42.18.42 1.05-3.17.86-1.73-.67 1.4.91-1.9.19-.67.28-.8.56-.87.69-2.02.07.02 1.22-2.16.44-.48-.23.25 1.08-1.76.72-1.14.89-1.42.16-.55.3-.07.88-.91 1.59-2 .92-1.43.16-.46-.09.16.95-1.07 1.46-1.78 1.69-1.43-.21-.14-.38.45 1.79-1.79-.27.57 2.13-2.13-.24.23 2.27-2.15-.19.14.68-.42 2.11-1.4-1.7 1.15 1.83-1.78.69-.49 1.32-.99 1.3-.9 1.21-.6 1.02-.68-.54.63 2.87-1.85 1.91-1.24.21.11.3-.16 1.42-1.01-.42.36 2.53-1.2-1.44.57 3-1.12 1.05-.61.1-.19 1.05-.27.85-.47 2.3-.81 1.48-.15 2.4-.71-2.37.46 2.82-.78-.85.31 2.34-.54 1.26-.42.95-.12 1.57-.47.47.08.73-.35 2.72-.24.92-.06h.1l2.41-.37.05-.03.68.02 1.43.07 1.6-.22 1.07-.16 1.28-.03 1.28.28 2.64.03-.39-.09.99-.02.7.19 1.99.03.04.03 1.89.08 2.58.74-2.04-.49 4.2.57.3.3 1.61.15-1.65-.34 3.29.86.13-.03 1.42.6 1.37.31-.93-.4 3.21 1.05.97.43.62.12 1.68.63.52-.05.54.51.85.29 1.12.33.22.21 2.57 1.13 1.46.62.92.67 1.07.4.66.38-.28-.07 2.14 1.07.99.91-.49-.43 1.32 1.03 1.94 1.12 1.34 1.03.57.46.26.3 2.08 1.21.03.44 1.41.98h-.15l-.08-.18 1.85 2.02.74.27 1.5 1.47.46.16.18.42 1.35 1.57 1.23 1.15-.36.17.68.84.66.44.54.66 1.85 1.66.52 1.2.65 1.13.69.93-.14-.43 1.05 1.96.33.24.67 1.23.49 1.08.3.24 1.35 2.52.58.67-.35-.07 1.39 2.1-.21.05.32.89.7.68.06 1.47.89 1.89.59 1.35.31.18-.2.36.75.96-.08 1.16.93 2.96.29 1.28-.03.11.22 1.04-.09-.44.42 2.19.79 1.99-.18 1.69.37-.17-.15.01.26 1.63.41 2.6-.35-.78.24 2.9.13 2.24.21-.96-.24 1.11.16 1.37-.23.81" filter="url(#a)"/><path fill="#fff" d="m-31.1 12.48.17-.29.21-.3.25-.32.27-.33.31-.35.34-.36.37-.38.41-.39.43-.4.46-.41.49-.42.51-.44.54-.44.57-.45.59-.46.6-.46.64-.48.68-.5.71-.52.74-.53.78-.54.81-.56.83-.56.87-.57.89-.57.91-.57.93-.56.95-.56.97-.55.98-.54 1-.52 1.01-.51 1.01-.49 1.02-.46 1.03-.45 1.02-.42 1.03-.39 1.03-.37 1.02-.34 1.01-.3 1.01-.28 1-.25.99-.21.97-.18.96-.15.94-.12.93-.08L5-6.9l.89-.02h.87l.85.04.82.07.81.09.78.12.75.15.73.16.71.19.68.2.66.22.63.23.61.25.58.25.56.26.54.26.51.27.5.27.47.27.45.28.42.28.41.28.39.28.36.28.35.28.32.28.31.27.28.27.27.26.24.26.23.25 1.36 3.85-.26.03-.26.03-.28.01-.29.01-.31.01h-.32l-.33-.01-.35-.01-.36-.01-.37-.02-.39-.01-.4-.02-.42-.02-.43-.01-.44-.02-.46-.02-.47-.01-.5-.02-.5-.01h-1.62l-.58.02-.59.03-.6.04-.62.05-.64.06-.66.08-.67.1-.68.11-.7.12-.72.14-.73.16-.75.17-.76.19-.77.21-.79.22-.8.23-.81.25-.83.27-.83.28-.85.29-.86.3-.86.31-.88.32-.88.32-.89.33-.9.34-.9.34-.91.34-.92.33-.91.34-.92.32-.92.33-.92.31-.92.3-.91.29-.91.28-.91.26-.91.24-.89.22-.89.21-.88.18-.87.15-.73.21-.72.19-.71.18-.7.17-.68.16-.67.15-.65.13-.64.12-.62.11-.6.09-.57.09-.56.07-.52.05-.51.04-.47.03" filter="url(#a)" transform="translate(35.72 -21.38)"/><path fill="#fff" d="m26.52 9.87-.04-.23-.08-.25-.12-.25-.15-.27-.18-.28-.22-.29-.26-.3-.28-.31-.32-.32-.36-.33-.38-.34-.41-.35-.44-.36-.47-.36-.5-.37-.48-.37-.53-.38-.57-.4-.61-.42-.65-.43-.68-.44-.72-.44-.75-.46-.79-.46-.82-.46-.84-.46L14 .08l-.9-.45-.92-.45-.94-.44-.96-.42-.98-.42-.99-.4-1-.38-1.01-.36-1.02-.34-1.02-.33-1.03-.29-1.03-.28-1.03-.25-1.02-.22-1.02-.2-1.02-.17-1-.15-1-.12-.98-.09-.97-.06-.95-.04h-.94l-.92.01-.91.04-.88.07-.86.09-.84.11-.82.13-.8.15-.77.17-.75.19-.72.2-.7.22-.68.22-.65.23-.63.24-.6.25-.58.25-.56.25-.54.26-.52.26-.49.27-.47.27-.45.27-.43.27-.41.28-.39.27-.37.28-.34.27-.33.26-.31.27-.28.26-.6 3.41.37-.01.38-.02.39-.03.41-.03.43-.03.44-.03.46-.04.47-.04.49-.04.5-.04.52-.04.53-.04.54-.04.56-.03.58-.04.59-.04.61-.03.62-.03.65-.03.65-.03.68-.01.69-.02h.7l.72.01.74.01.75.03.76.03.77.05.79.06.8.07.81.09.81.09.83.11.84.13.84.13.85.15.86.16.86.18.87.18.87.19.87.21.87.21.88.23.87.23.87.23.87.25.87.24.86.25.86.25.85.25.85.25.83.25.83.24.82.24.81.23.79.22.78.21.77.2.76.18.74.18.72.15.71.14.68.13.67.1.59.14.58.12.56.12.55.11.53.1.51.08.49.08.47.06.46.06.43.04.4.03.39.01.36.01.33-.01.31-.02" filter="url(#a)" transform="translate(-32.47 -18.39)"/><g fill="none" stroke="#000" transform="translate(35.72 -21.38)"><path stroke-linejoin="round" stroke-width="1.667" d="m-30.79 14.48-.2-.13-.17-.14-.13-.16-.09-.18-.04-.19-.01-.21.02-.22.07-.24.1-.26.14-.27.17-.29.21-.3.25-.32.27-.33.31-.35.34-.36.37-.38.41-.39.43-.4.46-.41.49-.42.51-.44.54-.44.57-.45.59-.46.6-.46.64-.48.68-.5.71-.52.74-.53.78-.54.81-.56.83-.56.87-.57.89-.57.91-.57.93-.56.95-.56.97-.55.98-.54 1-.52 1.01-.51 1.01-.49 1.02-.46 1.03-.45 1.02-.42 1.03-.39 1.03-.37 1.02-.34 1.01-.3 1.01-.28 1-.25.99-.21.97-.18.96-.15.94-.12.93-.08L5-6.9l.89-.02h.87l.85.04.82.07.81.09.78.12.75.15.73.16.71.19.68.2.66.22.63.23.61.25.58.25.56.26.54.26.51.27.5.27.47.27.45.28.42.28.41.28.39.28.36.28.35.28.32.28.31.27.28.27.27.26.24.26.23.25.21.23.19.23.17.22.16.21.13.19.13.19.1.17.09.16.07.15.06.14" filter="url(#a)"/><path stroke-linejoin="round" stroke-width="2.222" d="m-31.72 14.23.09.08.14.07.19.06.23.05.26.04.31.04.35.02h.79l.45-.02.47-.03.51-.04.52-.05.56-.07.57-.09.6-.09.62-.11.64-.12.65-.13.67-.15.68-.16.7-.17.71-.18.72-.19.73-.21.87-.15.88-.18.89-.21.89-.22.91-.24.91-.26.91-.28.91-.29.92-.3.92-.31.92-.33.92-.32.91-.34.92-.33.91-.34.9-.34.9-.34.89-.33.88-.32.88-.32.86-.31.86-.3.85-.29.83-.28.83-.27.81-.25.8-.23.79-.22.77-.21.76-.19.75-.17.73-.16.72-.14.7-.12.68-.11.67-.1.66-.08.64-.06.62-.05.6-.04.59-.03.58-.02h1.62l.5.01.5.02.47.01.46.02.44.02.43.01.42.02.4.02.39.01.37.02.36.01.35.01.33.01h.32l.31-.01.29-.01.28-.01.26-.03.26-.03.24-.04.22-.05.22-.06.2-.06.19-.08.17-.09.17-.1.15-.1.14-.12.13-.13" filter="url(#a)"/><circle cx="-4.065" cy="4.638" r="3.912" clip-path="url(#b)" filter="url(#a)"/><circle cx="-5.02" cy="7.303" r="3.444" clip-path="url(#b)" filter="url(#a)"/><circle cx="-5.2" cy="6.458" r="3.82" clip-path="url(#b)" filter="url(#a)"/><circle cx="-8.055" cy="8.983" r="3.68" clip-path="url(#b)" filter="url(#a)"/><circle cx="-6.105" cy="7.043" r="4.32" clip-path="url(#b)" filter="url(#a)"/><circle cx="-5.645" cy="8.968" r="3.758" clip-path="url(#b)" filter="url(#a)"/><circle cx="-7.465" cy="6.818" r="3.89" clip-path="url(#b)" filter="url(#a)"/><circle cx="-6.37" cy="4.828" r="4.512" clip-path="url(#b)" filter="url(#a)"/><circle cx="-5.255" cy="6.078" r="3.728" clip-path="url(#b)" filter="url(#a)"/><circle cx="-5.455" cy="6.883" r="3.652" clip-path="url(#b)" filter="url(#a)"/></g><g fill="none" stroke="#000" transform="translate(-32.47 -18.39)"><path stroke-linejoin="round" stroke-width="2.222" d="m24.78 11.49.36-.11.31-.12.27-.13.23-.15.2-.15.15-.17.11-.18.07-.19.04-.21v-.21l-.04-.23-.08-.25-.12-.25-.15-.27-.18-.28-.22-.29-.26-.3-.28-.31-.32-.32-.36-.33-.38-.34-.41-.35-.44-.36-.47-.36-.5-.37-.48-.37-.53-.38-.57-.4-.61-.42-.65-.43-.68-.44-.72-.44-.75-.46-.79-.46-.82-.46-.84-.46L14 .08l-.9-.45-.92-.45-.94-.44-.96-.42-.98-.42-.99-.4-1-.38-1.01-.36-1.02-.34-1.02-.33-1.03-.29-1.03-.28-1.03-.25-1.02-.22-1.02-.2-1.02-.17-1-.15-1-.12-.98-.09-.97-.06-.95-.04h-.94l-.92.01-.91.04-.88.07-.86.09-.84.11-.82.13-.8.15-.77.17-.75.19-.72.2-.7.22-.68.22-.65.23-.63.24-.6.25-.58.25-.56.25-.54.26-.52.26-.49.27-.47.27-.45.27-.43.27-.41.28-.39.27-.37.28-.34.27-.33.26-.31.27-.28.26-.27.25-.24.25-.23.24-.21.23-.19.23-.17.22-.16.21-.13.2-.12.2-.11.18" filter="url(#a)"/><path stroke-linejoin="round" stroke-width="2.222" d="m27.44 10.05.03.13-.02.13-.05.12-.09.1-.12.1-.16.08-.19.07-.22.06-.25.04-.28.04-.31.02-.33.01-.36-.01-.39-.01-.4-.03-.43-.04-.46-.06-.47-.06-.49-.08-.51-.08-.53-.1-.55-.11-.56-.12-.58-.12-.59-.14-.67-.1-.68-.13-.71-.14-.72-.15-.74-.18-.76-.18-.77-.2-.78-.21-.79-.22-.81-.23-.82-.24-.83-.24-.83-.25-.85-.25-.85-.25-.86-.25-.86-.25-.87-.24-.87-.25-.87-.23-.87-.23-.88-.23-.87-.21-.87-.21-.87-.19-.87-.18-.86-.18-.86-.16-.85-.15-.84-.13-.84-.13-.83-.11-.81-.09-.81-.09-.8-.07-.79-.06-.77-.05-.76-.03-.75-.03-.74-.01-.72-.01h-.7l-.69.02-.68.01-.65.03-.65.03-.62.03-.61.03-.59.04-.58.04-.56.03-.54.04-.53.04-.52.04-.5.04-.49.04-.47.04-.46.04-.44.03-.43.03-.41.03-.39.03-.38.02-.37.01-.35.01-.34.01-.32-.01h-.3l-.29-.02-.28-.02-.26-.02-.25-.04-.24-.04-.22-.04" filter="url(#a)"/><circle cx="21.041" cy="8.975" r="3.834" clip-path="url(#c)" filter="url(#a)"/><circle cx="19.736" cy="5.46" r="4.824" clip-path="url(#c)" filter="url(#a)"/><circle cx="17.026" cy="9.305" r="4.114" clip-path="url(#c)" filter="url(#a)"/><circle cx="20.176" cy="7.315" r="4.456" clip-path="url(#c)" filter="url(#a)"/><circle cx="17.711" cy="8.51" r="3.572" clip-path="url(#c)" filter="url(#a)"/><circle cx="21.631" cy="9.97" r="3.912" clip-path="url(#c)" filter="url(#a)"/><circle cx="19.266" cy="6.285" r="3.23" clip-path="url(#c)" filter="url(#a)"/><circle cx="20.936" cy="5.325" r="4.588" clip-path="url(#c)" filter="url(#a)"/><circle cx="17.516" cy="9.075" r="3.826" clip-path="url(#c)" filter="url(#a)"/><circle cx="21.351" cy="6.995" r="4.892" clip-path="url(#c)" filter="url(#a)"/></g><g fill="none" stroke="url(#d)" stroke-linejoin="round" stroke-width="2"><path d="m-12.2-69.61 2.09-.13 1.62-.03 1.6.03 1.73.08 1.88.13 2.05.18 2.21.22 2.36.25 2.44.28 2.44.29 2.38.3 2.22.28 2.04.26 1.84.23 1.7.21 1.6.22 1.51.22 1.38.21 1.07.18" filter="url(#a)"/><path d="m-38.73-59.03 2.38-1.47 1.72-.93 1.38-.61 1.32-.5 1.38-.48 1.5-.49 1.61-.51 1.73-.54 1.8-.55 1.84-.55 1.86-.55 1.87-.54 1.85-.51 1.78-.48 1.64-.45 1.43-.39 1.18-.35.93-.29.73-.24.57-.21.43-.18.29-.14-.01-.06m36.73 5.74 2.01.9 1.33.64.88.47.53.33.27.23.06.18-.15.13-.39.08h-.63l-.92-.07-1.23-.16-1.6-.3-2.02-.44-2.45-.61-2.9-.78-3.39-.97-3.96-1.16-4.65-1.4-5.36-1.62" filter="url(#a)"/><path d="m-14.97-68.87 1.45-.18 1.84.16 2.46.39 2.99.59 3.38.78 3.68.94 3.96 1.1 4.25 1.26 4.54 1.41 4.84 1.52 5.07 1.59 5.24 1.64 5.32 1.68 5.37 1.76 5.31 1.8M.06-70.63l1.51.19 1.43.11 1.26.09 1.25.12 1.33.15 1.42.18 1.46.2 1.42.21 1.34.21 1.19.19 1.02.16.8.13.55.08.29.04.04-.01-.18-.05-.44-.1-.85-.17-1.69-.35m6.27 1.42 2.34.79 1.53.54 1.23.42 1.06.37.91.33.79.3.7.28.61.26.53.23.4.2.15.11-.19-.02-.64-.19-1.14-.4-1.63-.59-2.04-.74-2.29-.81" filter="url(#a)"/><path d="m13.94-69.28.54.22.62.14.72.18.83.22.82.23.69.2.5.16.28.11.01.05-.35-.02-.78-.12-1.3-.24-1.87-.37-2.47-.5-3.03-.57" filter="url(#a)"/><path d="m7.27-70.21.66.09 1.24.19 1.25.2 1.17.19 1.05.18.85.15.56.11.26.08-.04.04h-.36l-.73-.06-1.15-.13-1.58-.2-1.96-.26-2.23-.32m18.02 3.72 1.07.42.37.3-.05.32-.37.37-.65.42-.97.5-1.35.54-1.85.57-2.44.56-3.13.57-3.82.56-4.51.58-5.17.61-5.85.64-6.55.71-7.32.8-8.09.94-8.97 1.1m94.88 16.57.2.25.48.76.49.82.45.75.37.66.27.5.12.26-.12-.08-.4-.48-.71-.88-.99-1.29-1.23-1.66-1.43-2.04-1.68-2.5" filter="url(#a)"/><path d="m54.6-45.17.54.52.4.72.11.76-.33.63-.81.42-1.26.19h-1.71l-2.13-.16-2.57-.28-3.03-.4-3.51-.53-4.02-.68-4.53-.84-5.06-1.04-5.62-1.26-6.19-1.47-6.76-1.69L.8-52.2l-7.85-2.12-8.38-2.31-8.93-2.51m86.27 24.07.1.68-.68.75-1.74.37-2.81-.01-3.88-.32-4.96-.59-6.06-.81-7.16-1.02-8.24-1.26-9.35-1.55-10.5-1.95-11.71-2.4-13-2.79-14.37-2.99m5.15-16.22.68-.17 1.65-.15 2.44-.13 3-.04 3.34.09 3.54.23 3.74.36 4.01.47 4.33.53 4.64.58 4.89.61 5.04.63 5.11.66 5.07.64 4.94.56 4.68.41" filter="url(#a)"/><path d="m-3.89-70.22 1.24-.14.86.02.56.19.19.33-.29.45-.84.57-1.38.73-1.88.89-2.36 1.06-2.86 1.22-3.4 1.39-4.03 1.57-4.73 1.78-5.5 2.02-6.33 2.33-7.29 2.71" filter="url(#a)"/><path d="m47.05-53.06.32.38.44.73.11.64-.35.48-.85.33-1.35.22-1.86.1-2.41-.02-2.96-.16-3.52-.3-4.07-.43-4.6-.52-5.18-.64-5.8-.77-6.48-.95-7.17-1.19-7.82-1.42-8.47-1.62-9.12-1.77m10.69-9.37.72-.05 1.23-.17 1.4-.16 1.37-.15 1.27-.13 1.19-.11 1.12-.09 1.06-.08.99-.06.89-.05.74-.03.56-.01.31.01.04.04-.26.05-.57.06-.88.08-1.21.11-1.6.13-2.1.16-2.7.22m-23.91 7.56.79-.32 1.43-.36 1.93-.31 2.41-.28 2.88-.28 3.29-.28 3.62-.25 3.92-.23 4.15-.21 4.36-.2 4.49-.2 4.51-.2 4.45-.18 4.38-.12 4.4-.06 4.5-.04" filter="url(#a)"/><path d="m-12.93-69.26 1.08-.25 1.1-.11.67.02.23.11-.18.23-.59.36-1.03.52-1.51.69-2.05.89-2.66 1.08-3.31 1.28-4.03 1.5-4.89 1.77-5.93 2.13M3.59-70.41l.84.04.74.12.6.16.4.22.12.3-.19.35-.55.42-.96.46-1.4.52-1.88.57-2.38.65-2.91.75-3.47.87-4.08 1-4.71 1.09-5.31 1.16-5.91 1.23-6.65 1.39" filter="url(#a)"/><path d="m-31.35-63.45 57.87 19.22 10.13-2.87-2.43-5.7.01-1.73 4.38 2.05 5.53 3.21 3.19 2.06-1.02-.03-5.28-1.82-8.1-2.62-8.84-2.39-7.93-1.58-6.8-.78-6.61-.33-6.73-.24-4.6-.34 1.46-.81 7.69-2.5 3.77-5.23-12.8-4.03" filter="url(#a)"/><path d="M5.28-70.24 26.8-58.58l-9.46 1.12-13.3-1.15-6.31-.69.32.3 2.62 1.04 1.88 1.55 1.34 1.95 2.86 2.17 5.87 2.23 9.13 2.55 11.83 3.69 10.74 4.15-3.18-2.9-39.8-27.78" filter="url(#a)"/><path d="m34.16-61.89 5.51 12.06-9.23-5.59-3.18-4.06 2.44-.24 3.51 1.8.63 1.8-4.44.58-9.5-.86-12.64-1.68-12.78-1.53-9.84-.69-4.58.28 1.48.79 6.16.46 6.71-.57 1.38-1.54-8.19-1.03-15.31 1.15-6.24-1.36" filter="url(#a)"/><path d="M24.28-66.23 43.6-47.72l-5.88 1.39-11.09-1.29-8.53-1.77-3.89-2.73-.45-3.23-.12-2.73-2.62-1.52-5.93-.21-7.6.78-6.13 1.39-1.95 1.7 1.97 1.71.89.87-7.34-1.39-14.12-3.86.84-5.96" filter="url(#a)"/><path d="m45.76-54.48-32.04-7.69L.53-58.56l3.24 5.07 8.63 1.35 5.59-2.23.46-3.63-2.63-3.08-2.6-1.55-.51.14 1.85 1.54 3.08 2.4 2.74 2.73 1.37 2.53.12 1.96.1 1.28 1.83.93 4.79 1.2 7.49 1.99 8 2.45 4.89 1.35-1.89-2.05-9.88-6.66-11.69-8.32 14.06.56" filter="url(#a)"/><path d="m-1.22-70.6 19.55 10.11 7.5 7.63-4.51 1.27-4.2-.98.74-.99 3.58-.76 3.2-.85 1.38-1.05-.28-1.14-1.35-1.09-2.04-.98-2.33-.82-1.71-.43.25.28 3.09 1.27 5.27 2.05 5.11 1.9 2.27.3-1.24-2.19-1.97-3.49 1.58-1.34 6.9 3.3" filter="url(#a)"/><path d="m3.98-70.32-19.87 5.22 6.63 3.72 16.22 4.06 12.65 3.21 5.15 1.44-.84-.01-3.98-.7-4.58-.9-3.3-.78-.96-.4 1.31.24 2.29.93 1.21 1.31-1.72 1.2-5.01.64-6.38-.12-4.23-.82.7-1.56 4.63-2.68 3.24-4.16-3.46-4.88-7.79-3.36 2.89-1.88" filter="url(#a)"/><path d="m63.79-31.71-33.02-17.9-17.58-3.57-16.11-2.55-10.39-2.52-3.86-1.67 1.07-.52 4.07.2 4.99.27 3.72-.05.98-.34-1.78-.38-3.16-.24-2.79-.1-1.52-.06-.72-.09-1.19-.01-2.5.28-3.13.8-1.55 1.51 3.22 2.33 11.64 2.44 19.24-.99-6.15-15.34" filter="url(#a)"/><path d="m-48.49-51.77 33.87-8.91 4.98-3.13 3.58-.23 5.58 1.43 5.97 1.77 4.17 1.37 1.19 1.24-1.22 1.66-2.35 1.91-3.42 1.14-5.55-.34-6.92-.85-2.92 1.47L.6-46.37l61.31 11.3" filter="url(#a)"/><path d="m54.6-45.17-24.19-7.89-19.67-5.88-6.76-2.86 1.23.94 4.71 3.77 4.73 4.52 3.15 3.34 1.72 1.11.64-1.32-1.13-3.35-3.58-4.49-4.65-4.09-1.6-1.92 5.9 1.39 13.8 4.24 15.25 5.24 9.77 6.41" filter="url(#a)"/><path d="M-33.74-62.01.77-53.82l6.74 2.87 3.12-2.04.33-3.85-.27-2.7.39-.59-.23.8-2.86.91-5.83.2-7.05-.66-5.45-1.12-1.55-.95 3.19-.19 7.2.9 9.14 1.8 8.18 1.9 3.86.94-4.06-.45-15.34-.94-26.09.37-18.05 1.25" filter="url(#a)"/><path d="m35.89-61.11-19-4.14 3.52 3.39 4.28 4.49-2.37 1.93-7.92-.7-10.21-2.04-9.46-2.3-6.44-2.08-2.26-1.61 1.57-.89 3.85.18 4.09 1.43 2.78 2.47.92 2.84-.49 2.32-1.2 1.13-1.49-.35.93-2.35 30.03-7.75" filter="url(#a)"/><path d="M63.79-31.71 49.4-47.45l-8.41-5.11-7.36-1.58-7.26-.92-7.38-.99-6.64-1.08-4.38-1.04-1.58-.99.31-1.05.68-1.24.12-1.41-.33-1.33-.2-.92.29-.21.44.7-.17 1.73-1.33 2.64-2.4 2.88-3 1.41-2.26-2.19 4.69-5.52 23.79-1.47" filter="url(#a)"/><path d="M67.84-23.1 47.96-45.81l-4.77-5 3.11 3.23 1.88 3.68-3.28.88-7.21-1.7-7.54-2.76-5-2.55-1.69-1.81.75-1.1 1.83-.64 1.77-.46.67-.54-1.52-.87-4.65-1.25-7.92-1.42-10.01-1.19-9.6-.55-5.77.24 1.57.96 10.86 1.54 17.87 2.41 18.43 5.4 27.55 20.64" filter="url(#a)"/><path d="M54.6-45.17 5.3-57.94-8.55-62.6l2.24-2.48 4.95-.88 2.51.58.71 1.66 1.55 2.2L7.1-59.3l4.82 1.82 3.97 1.25 1.85.67-.22.07-1.75-.51-3.2-.94-5.05-1.07-6.79-.93-7.15-.88-4.18-1.32 7.1-1.98 35.28-.06" filter="url(#a)"/><path d="m55.8-44.07-10.15-4.87-22.44-3.3-21.9-2.3-11.98-1.93-2.71-2.03 1.43-2.07.93-1.62-1.86-.71-4.69.36-6.2 1.22-5.92 1.58-3.96 1.41-.69.9 3.57.36 8.42.15 13.09.5L6.85-55.1l15.57 1.85 10.19.97 1.02-1.93-7-5.39-5.16-5.1 12.69 2.81" filter="url(#a)"/><path d="m38.74-59.2-4.23-.19-.59 1.64-4.28-.63-3.91-1.22-1.44-.82.24-.2-.12.42-2.47 1.04-5.51 1.6-7.12 1.94-5.51 1.84-.81 1.25 4.1.29 5.55-.68 3.37-.84 2.94.72L25-51.93 7.31-70.18" filter="url(#a)"/><path d="m-27.3-65.18 4.21 6.87 12.89-1.43 6.49-2.07 5.81.29 9.32 2.99 11.93 4.59 11 4.64 7.24 3.7 2.84 2.45-.64 1.19-2.3-.02-.57-.22 5.93 2.41 12.5 7.28 8.18 9.23" filter="url(#a)"/><path d="m-6.05-70.28 17.38 5.94 5.83 4.86-6.5.73-7.6-1.11-3.87-1.13-1.09-.41-.19.34.49.93 2.05 1.41 4.11 1.73 5.36 1.78 4.83 1.46 2.68.95-.06.46-2.21.19-3.11.02-2.74-.23-1.58-.73-.42-1.5-.09-2.57-1.08-3.72-3.4-4.2-4.65-3.13 9.22-1.97" filter="url(#a)"/><path d="m17.62-68.34 13.57 8.99 4.18 3.88 3.67 2.41.86.3-1.92-.98-3.76-1.33-5.51-1.57-7.47-1.93-8.92-2.14-8.96-1.81-7.4-.79-4.49.83-.6 2.83 2.78 4.34.72 3.49-12.17-2.14-14.22-9.22" filter="url(#a)"/><path d="m-45.56-54.22 53.79 1.37 20.86 6.19-3.48-.52-11.56-4.72-8.54-4.7-2.05-2.57 3.05-.42 4.77.64 3.06.43-.59-.56-3.8-1.57-4.32-1.97-1.59-1.5 2.48-.18 3.92 1.65-3.21 2.57-38.58-3.37" filter="url(#a)"/><path d="M67.53-23.28 3.87-45.23l-13.41-9.16 1.75-2.16 4.7-.07 2.66.41-1.54 1-5.59 1.69-6.94 1.88-4.54 1.29-.1.16 3.05-.88 2.88-1.28.64-.79.26.41 4.05 2.06 2.37 3.83-48.81 1.32" filter="url(#a)"/><path d="m11.78-69.36 15.98 6 5.3 3.31-3.74 1.69-11.34.55-13.11.21-8.52.47-.52 1.17 7.13 2.16 11.8 3.05 12.58 3.28 10.1 2.56 5.82 1.08 1.35-.55-2.14-1.7-4.23-2.08-5.31-1.82-6.02-1.33-6.5-.9-5.95-.6-3.47-.5-.66-1.19-2.62-3.3-9.6-5.78 6.47-6.85" filter="url(#a)"/><path d="m45.79-54.04-20.06-1.93-9.74 2.45-8.67-.56-1.82-.55 5.27 1.46 8.49 3.2 7.06 3.3 2.5 1.54-2.24-1.12-4.66-3.26-4.31-3.92-2.92-3.24-2.2-2.23-1.54-1.79 1.37-1.65 5.84-.91 3.03-.66L.06-70.63" filter="url(#a)"/><path d="M54.6-45.17 9.85-57.19l-22.13-2.46-4.54-1.36 2.04-.71 3.57.04 4.74.34 6.1.34 6.37.36 4.7.26 1.69-.25-.72-1.09-.51-1.43 2.75-.5 6.69 1.57 6.28 3.12-6.29 1.04-43.59-9" filter="url(#a)"/><path d="m60.75-37.38-21.78-6.76-23.78-5.85-3.43-.78 8.74 1.3 8.08.91 1.74.11-3.06.11-4.39.46-5.12.19-8.09-.86-11.4-1.47-8.46-.36 4.56 1.55 15.25-.67-21.81-20.11" filter="url(#a)"/><path d="m45.76-54.48-25.85-7.13-17.65 2.63-6.54 5.36-.09 3.05 3.8.04 6.41-1.28 6.88-.73 5.15.69 2.67 1.83.65 1.78-1.08.24-3.23-2.24-5.28-4.31-5.55-4.56-4.06-2.64-4.11.22-4.02.98 26.55-6.88" filter="url(#a)"/><path d="M59.51-39.15 5.08-55.23l-18.64-4.93.08-1.23 4.31.79 1.35 1.72-1.45 2.06-.7 2.28 2.81 2.27 6.64 1.72 9.31.7 10.47-.18 9.91-.27 6.47.23-1.62-.13-15.15-2.69-29.28-5.81-23.03-3.47" filter="url(#a)"/><path d="m-45.56-54.22 49.81-.1 22.27 8.3 3.11 4.56-2.22.42-1.63-2.11-.57-3.45.08-3.83.65-3.27.97-1.86.42.09-1.66 2.06-5.68 3.16-10.98 2.44-14.65-.21-12.44-3.53-3.25-5.22 9.01-4.19 35.01-5.82" filter="url(#a)"/><path d="m-13.4-69.34 13.56.88-5.1 1.95-6.53 4.11-.97 4.4 3.8 2.67 4.57.41 2.85-.9 1.26-.76 1.04.26 1.76 1.14 2.46 1.22 2.62.59 2.09-.22.74-.67-1.58-.56-4.62-.1-6.95.34-5.66.43 2.07.11 14-.34 16.02-1.64L5.28-70.24" filter="url(#a)"/><path d="m-55.56-44.61 66.52-3.91 18.58-4.49-.98-2.35-7.6-.51-6.36.64-2.51.96-.1.73-.15.4-1.56.22-2.89.14-3.55-.06-3.42-.35-2.47-.54-.5-.44 2.19-.11 4.45.19 4.92.26 3.43.24 1.59.4-.09-.22-2.96-4.66 13.3-8.16" filter="url(#a)"/><path d="m34.16-61.89-15.03-3.24-14.19.71-7.98.7.35.04 4.21-.2 3.09-.13h.07l-1.83.29-1.45.82.53 1.55 2.75 2.27 4.16 2.7 4.41 2.76 3.73 2.38 2.29 1.57-.14.3-3.76-1.35-7.95-2.91-10.9-3.57-10.51-2.8-6.07-1.04 2.22-.02 16.16-1.43 34.92-.07" filter="url(#a)"/><path d="m-56.64-42.72 46.33-4.1-2.28-5.56-1.09-4.72 3.99-2.68 2.92-.5-1.08.93-3.16 1.44-1.61 1.39 2.14 1.12 5.54.78 6.85.37 5.77.04 3.07.08-.02.75-2.12 1.86-2.15 2.82.2 2.64 3.85.34 6.88-4.01 7.35-7.86 14-1.61" filter="url(#a)"/><path d="m-12.93-69.26 24.52 7.4 5.24 6.67.58 1.74 2.48-.96 3.06-1.42 1.46-1.18-.59-1.2-1.39-1.3-.42-.81 1.19.39 1.34 1.65-1.55 1.97-6.69.97-10.42-.58-8.03-.96 4.36 1.01 44.76 2.63" filter="url(#a)"/><path d="m-9.48-69.85-9.35 3.3 6.56 4.27 16.11 6.54 15.27 6.33 8.22 3.94 2.02 1 .26-1.22 1.95-2.08 4.09-1.8 4.4-1.15 2.46-.88-.58-1.24-2.9-1.57-3.17-1-2.22.24-4.52-.34-15.47-5.71-27.05-8.12" filter="url(#a)"/><path d="m1.34-70.35 29.31 14.03.76 2.27-4.34-.85-.49.44.13 1.16-3.9.39-7.92-.78L7-54.99l-3.76-.95 1.43-.1 4.55.48 3.73-.01-1.28-1.39-3.54-1.91 30.61-.33" filter="url(#a)"/><path d="m-54.7-45.52 39.59-13.05 5.39-5.33 1.9-.97 3.7 2.3 5.27 4.01 5.81 3.72 4.54 2.16 1.29.7-2.69.2-5.26.56-4.61 1.21.05 1.68 7.57 1.71 13.37.62 9.93-3.16-4.49-9.75-7.62-8.83" filter="url(#a)"/><path d="m-48.49-51.77 45.54-4.44 9.73.36-7.82-2.33-7.66-2.72-.58-.84 6.19 1.77 9.73 3.73 10.35 4.39 9.59 3.9 8.22 2.71 5.28.86.54-1.46-2.23-2.85 1.92-2.07-2.56-9.35" filter="url(#a)"/><path d="m45.76-54.48-2.02.72-7.28-3.08-8.83-2.86-9.07-1.91-6.36-.07-2.05 1.98 1.42 3.23 2.61 3.09 1.75 1.77.07.08-1.4-1.16-2.4-1.63-3.1-1.56-3.65-1.42-3.52-1.47-1.89-1.47 1.28-1.16 4.04-.55 2.36-.19-6.4-.45-15.99-1.29-2.51-4.45" filter="url(#a)"/><path d="m35.89-61.11-4.54 1.58.98 4.41-7.62 1.04-8.86.25-3.71 1.47.49 2.46.23 2-2.64.41-4.48-1.3-3.35-2.32-.02-2.54 3.43-2.28 5.42-1.85 5.37-1.34 3-.86-1.98-.67-8.29-.52L-.74-60.1l5.02 6.16 55.23 14.79" filter="url(#a)"/><path d="M39.57-58.6 26.9-57.03l-5.06 5.23 1.1 4.07-.19.89-1.51-1.33-1.71-2.35-1.86-2.64-1.84-2.38-1.01-1.61.18-.78.28-.46-1.56-.84-4.53-1.47-6.8-1.67-7.45-1.16-6.98-.36-5.61.09-3.87.33-17.69 4.49" filter="url(#a)"/><path d="m-8.56-69.91 37.43 13.05 12.8 5.39 1.79 2.44-5.58-.76-8.93-2.86-8.22-3.22-4.93-2.44-1.08-1.32 1.51-.48 1.77-.11-.27-.14-3.41-.34-5.86-.45-6.06-.3-3.62.23.6 1.1 4.65 2.1 6.33 2.84 5.02 3.09 4.49 2.86 10.83.65 3.46-13.31" filter="url(#a)"/><path d="m8.05-61.31-1.07-.91-.81-1.11-.81-.83-.8-.6-.81-.48-.89-.46-.99-.56-1.11-.68-1.18-.75-1.2-.7-1.18-.48-1.11-.18-1.01.09-.9.19-.97-.13-1.67-1.01L76.96-43.6l-.29 1.57.22 1.68-.13 1.61-.34 1.5-.52 1.45-.65 1.48-.63 1.51-.41 1.48-.05 1.38.3 1.25.45 1.14.35 1.1.05 1.17-.38 1.32-.76 1.51-.96 1.63-.9 1.61-.66 1.42-.36 1.15-.2.94-.23.99-.26 1.38.24 1.84M-33.78-80.65l1.19 1.46 1.43.74 1.91 1.15 2.2 1.59 2.12 1.65 1.75 1.34 1.32.78.98.15.83-.37.86-.61 1.05-.41 1.28.17 1.43.89 1.43 1.43 1.07 1.43" filter="url(#a)"/><path d="m63.72 10.36 1.03-1.98.86-1.27.63-1.01.36-.9.2-.87.13-.9.18-.95.26-.98.31-.97.31-.93.25-.93.17-.96.18-1.03.27-1.12.35-1.2.34-1.19.16-1.12-.16-.95-.44-.78-.33-.78.36-1.17.91-1.85M-43.36-59.75l1.38-.54 1.11-.5 1.03-.47 1.1-.52 1.17-.56 1.18-.49 1.12-.36 1.02-.25.93-.21.87-.21.86-.26.89-.3.93-.34.97-.35.99-.32 1-.28 1.05-.28 1.22-.34 1.46-.41 1.56-.33 8.71 8.11-1.21-1.06-1.18-.33-1-.05-.87-.07-.84-.24-.95-.36-1.08-.36-1.19-.26-1.24-.14-1.24-.06-1.21-.05-1.17-.05-1.14-.05-1.1-.01-1.05.04-.97.09-.9.12-.83.11-.8.07-.8.03-.91.11-1.37.6-34.66 4.56 3.54.4 2.66-.3 1.88-.36 1.57-.07 1.6.24 1.75.38 1.83.35 1.77.17 1.56-.11 1.31-.35 1.1-.47 1.01-.39 1.02-.22 1.06-.07 1.09-.05 1.16-.11 1.33-.19 1.48-.29 1.38-.62" filter="url(#a)"/><path d="m59.47 6.96 1.4-.63.77-.77.76-.76.81-.76.78-.82.72-.9.65-.93.57-.93.43-.91.28-.9.12-.94.03-1 .05-1.07.15-1.14.3-1.16.41-1.11.47-1.05.49-1 .49-1.06.43-1.22.23-1.4-.03-1.29-.06-.44M-43.04-56.49l-.91.54-.83.36-.79.19-.83.22-.86.35-.87.52-.9.64-.95.64-1.03.56-1.06.44-1 .38-.92.38-.87.46-.9.59-.99.75-1 .85-.84.78-.62.42-.63.01M-43.73-56l-.69 1.15-.06.86-.14.92-.42.83-.67.72-.77.7-.64.86-.32 1.13.05 1.4.35 1.57.44 1.56.28 1.41-.05 1.19-.4.98-.54.87-.45.8-.23.74.07.88.65 1.77-5.97-11.64-1.16 1.35-.79.81-.66.6-.7.68-.77.83-.8.91-.75.93-.68.9-.62.89-.6.89-.6.9-.62.88-.61.86-.59.82-.58.85-.59.9-.61 1.01-.61 1.09-.71 1.01m134.68 8.41-1.77-.28-.27-.61-.26-.78-.5-.93-.76-.92-.98-.81-1.09-.68-1.02-.62-.86-.62-.7-.67-.67-.7-.78-.68-.95-.62-1.1-.56-1.14-.53-1.06-.52-.95-.52-.88-.47-.94-.34-1.13-.11-1.39.05-1.63.01" filter="url(#a)"/><path d="m56.35-17.95 1.23-1.13.9-.89.48-.92.16-1.04.1-1.17.21-1.23.37-1.24.44-1.18.39-1.12.29-1.08.2-1.09.12-1.14.03-1.22-.06-1.25-.16-1.22-.2-1.16-.1-1.35-.33-.24.47.48.54.78.55.91.58.97.6.99.59.94.55.87.49.81.45.78.41.79.4.85.4 1 .45 1.2.55 1.4.66 1.37L51.7-48.9l-.33-.41-.66-.6-.83-.76-.83-.83-.73-.8-.61-.74-.56-.67-.6-.63-.68-.63-.76-.65-.82-.69-.87-.75-.91-.83-.93-.9-.91-.89-.84-.81-.76-.71-.88-.77-1.54-1.02" filter="url(#a)"/><path d="m49.56-50.95 1.22.89 1.13.36 1.35.18 1.42.18 1.4.18 1.38.18 1.38.2 1.38.3 1.35.45 1.32.58 1.34.64 1.44.57 1.56.43 1.61.32 1.52.35 1.27.53 1.05.75 1.06.85 1.35.8 1.74.7 1.82.7 1.4.63 1.11-.16m-47.7-37.52.64 1.54 1.19.89 1.37 1 1.2 1.17.88 1.35.6 1.47.41 1.53.34 1.5.37 1.41.48 1.28.65 1.11.83.94 1.02.76 1.15.62 1.17.57 1.04.66.79.87.51 1.1.3 1.21.24 1.09.28.9.27.99.14 1.51.23 1.44m3.06 19.98-.2-1 .13-1.1.1-1.03-.01-.97-.17-.96-.32-.98-.43-1.01-.47-1-.47-.96-.48-.86-.5-.79-.5-.77-.43-.86-.29-1.03-.12-1.26-.02-1.4-.07-1.43-.24-1.33-.43-1.14-.51-.95-.42-.75-.33-.62-.65-.87-2.37-1.95-1.54.39-1.61-.1-1.34-.44-1.02-.57-.82-.57-.77-.5-.81-.37-.84-.26-.86-.2-.91-.16-1.06-.1-1.32.02-1.6.17-1.69.28-1.01.05m-.26-7.25-1.26-.53-1.11-.4-1.16-.4-1.11-.4-1.02-.39-.95-.38-.93-.39-.92-.39-.9-.39-.84-.39-.82-.39-.9-.41-1.11-.44-1.08-.39.27-.04m-.34 1.97-2.03-.98-1.4-1.27-1.1-1.2-1-.92-.95-.59-.97-.28-1.04-.14-1.15-.21-1.25-.38-1.31-.49-1.33-.42-1.31-.21-1.25-.07-1.16-.17-1.06-.5-1.13-.73-1.82-.41m16.79 8.15 1.35 2.96 1.35-.29 1.23-.64 1.12-.16.96.41.76.94.59 1.31.54 1.49.56 1.43.64 1.2.71.87.76.62.83.56.9.67.88.76.6.53" filter="url(#a)"/></g><g fill="none" stroke="#000"><circle cx="12.184" cy="9.004" r="1.058" filter="url(#a)"/><circle cx="12.76" cy="9.032" r="2.95" filter="url(#a)"/><circle cx="12.508" cy="6.736" r="1.566" filter="url(#a)"/><circle cx="12.26" cy="6.76" r="1.874" filter="url(#a)"/><circle cx="9.868" cy="6.38" r="2.262" filter="url(#a)"/><circle cx="12.136" cy="9.476" r="1.172" filter="url(#a)"/><circle cx="12.368" cy="6.596" r="2.626" filter="url(#a)"/><circle cx="13.052" cy="8.056" r="1.204" filter="url(#a)"/><circle cx="12.508" cy="9.616" r="2.296" filter="url(#a)"/><circle cx="11.892" cy="9.364" r="2.916" filter="url(#a)"/><circle cx="-10.26" cy="14.246" r="1.932" filter="url(#a)"/><circle cx="-11.836" cy="12.73" r="1.156" filter="url(#a)"/><circle cx="-11.168" cy="13.386" r="2.812" filter="url(#a)"/><circle cx="-12.7" cy="11.226" r="1.712" filter="url(#a)"/><circle cx="-10.732" cy="14.154" r="2.82" filter="url(#a)"/><circle cx="-12.704" cy="12.17" r="1.056" filter="url(#a)"/><circle cx="-10.712" cy="13.826" r="2.878" filter="url(#a)"/><circle cx="-12.676" cy="12.242" r="2.96" filter="url(#a)"/><circle cx="-13.472" cy="13.122" r="1.328" filter="url(#a)"/><circle cx="-9.964" cy="11.466" r="2.668" filter="url(#a)"/></g><path fill="#D77F8C" stroke="#000" stroke-linejoin="round" stroke-width="3" d="m-8.84 66.17.09-.9.09-.88.09-.88.1-.86.11-.85.1-.83.12-.82.11-.81.12-.79.13-.78.13-.77.13-.75.14-.74.14-.72.15-.71.14-.69.16-.68.15-.67.16-.65.17-.63.16-.62.17-.6.18-.59.18-.57.18-.56.18-.54.19-.52.19-.51.19-.49.2-.48.2-.46.2-.44.21-.42.2-.41.21-.39.22-.37.21-.36.22-.34.22-.32.23-.3.22-.29.23-.26.23-.25.24-.23.23-.21.24-.2.24-.17.24-.16.25-.13.24-.12.25-.1.25-.08.25-.05.25-.04.26-.02h.26l.25.02.26.04.26.06.27.08.26.11.26.12.27.14.27.17.27.18.27.21.27.23.27.25.27.27.27.3.28.31.27.34.28.36.27.38.28.41.28.43.27.45.28.47.28.5.28.52.28.54.28.56.28.59.28.62.27.63.28.67.28.68.28.71.28.73.28.76.28.79.28.8.27.83.28.86.28.88.27.91.28.94.27.95.28.99.27 1.01-.27-1.01-.28-.99-.27-.95-.28-.94-.27-.91-.28-.88-.28-.86-.27-.83-.28-.8-.28-.79-.28-.76-.28-.73-.28-.71-.28-.68-.28-.67-.27-.63-.28-.62-.28-.59-.28-.56-.28-.54-.28-.52-.28-.5-.28-.47-.27-.45-.28-.43-.28-.41-.27-.38-.28-.36-.27-.34-.28-.31-.27-.3-.27-.27-.27-.25-.27-.23-.27-.21-.27-.18-.27-.17-.27-.14-.26-.12-.26-.11-.27-.08-.26-.06-.26-.04-.25-.02h-.26l-.26.02-.25.04-.25.05-.25.08-.25.1-.24.12-.25.13-.24.16-.24.17-.24.2-.23.21-.24.23-.23.25-.23.26-.22.29-.23.3-.22.32-.22.34-.21.36-.22.37-.21.39-.2.41-.21.42-.2.44-.2.46-.2.48-.19.49-.19.51-.19.52-.18.54-.18.56-.18.57-.18.59-.17.6-.16.62-.17.63-.16.65-.15.67-.16.68-.14.69-.15.71-.14.72-.14.74-.13.75-.13.77-.13.78-.12.79-.11.81-.12.82-.1.83-.11.85-.1.86-.09.88-.09.88" filter="url(#a)"/></svg>