<svg viewBox="-100 -100 200 200" xmlns="http://www.w3.org/2000/svg" width="500" height="500" id="face-svg">
    <defs>
      <clipPath id="leftEyeClipPath">
        <polyline points="28.34,-0.51 28.23,-0.67 28.08,-0.86 27.9,-1.06 27.68,-1.27 27.43,-1.49 27.15,-1.72 26.83,-1.96 26.48,-2.19 26.11,-2.43 25.7,-2.66 25.26,-2.89 24.8,-3.12 24.31,-3.33 23.79,-3.54 23.25,-3.74 22.7,-4.18 22.11,-4.59 21.48,-4.97 20.82,-5.31 20.13,-5.62 19.39,-5.88 18.63,-6.12 17.84,-6.31 17.01,-6.46 16.16,-6.58 15.28,-6.66 14.38,-6.7 13.45,-6.7 12.5,-6.67 11.54,-6.61 10.55,-6.51 9.56,-6.38 8.55,-6.22 7.52,-6.03 6.49,-5.82 5.46,-5.58 4.41,-5.31 3.37,-5.02 2.33,-4.72 1.28,-4.39 0.24,-4.05 -0.79,-3.69 -1.82,-3.32 -2.83,-2.94 -3.84,-2.55 -4.83,-2.14 -5.81,-1.74 -6.78,-1.32 -7.72,-0.91 -8.65,-0.49 -9.55,-0.07 -10.44,0.36 -11.3,0.78 -12.14,1.19 -12.95,1.61 -13.74,2.02 -14.5,2.43 -15.24,2.83 -15.95,3.23 -16.63,3.62 -17.28,4.01 -17.9,4.39 -18.5,4.76 -19.06,5.13 -19.6,5.5 -20.12,5.85 -20.6,6.2 -21.06,6.55 -21.5,6.89 -21.9,7.23 -22.28,7.56 -22.64,7.88 -22.96,8.2 -23.26,8.52 -23.54,8.83 -23.78,9.13 -24,9.44 -24.2,9.73 -24.36,10.02 -24.79,10.68 -24.55,10.74 -24.29,10.79 -24.01,10.84 -23.7,10.87 -23.38,10.9 -23.03,10.91 -22.67,10.92 -22.28,10.91 -21.87,10.89 -21.44,10.86 -21,10.82 -20.53,10.77 -20.04,10.71 -19.54,10.63 -19.02,10.54 -18.47,10.44 -17.9,10.32 -17.31,10.2 -16.71,10.06 -16.08,9.9 -15.43,9.73 -14.76,9.55 -14.08,9.34 -13.38,9.13 -12.66,8.9 -11.92,8.65 -11.17,8.39 -10.41,8.11 -9.63,7.82 -8.84,7.51 -8.04,7.2 -7.22,6.87 -6.4,6.53 -5.56,6.19 -4.72,5.84 -3.87,5.48 -3.01,5.12 -2.15,4.76 -1.28,4.39 -0.41,4.03 0.47,3.67 1.34,3.32 2.22,2.97 3.1,2.64 3.98,2.31 4.86,2 5.74,1.71 6.62,1.43 7.49,1.18 8.36,0.95 9.22,0.74 10.08,0.56 10.93,0.4 11.77,0.28 12.61,0.18 13.44,0.12 14.26,0.09 15.07,0.09 15.87,0.13 16.65,0.2 17.43,0.3 18.19,0.44 18.94,0.62 19.67,0.82 20.3,0.81 20.92,0.8 21.52,0.81 22.11,0.82 22.68,0.83 23.23,0.85 23.77,0.86 24.29,0.88 24.79,0.9 25.27,0.91 25.73,0.91 26.16,0.91 26.57,0.89 26.96,0.86 27.31,0.81" />
      </clipPath>
      <clipPath id="rightEyeClipPath">
        <polyline points="-27.19,-0.26 -27.09,-0.55 -26.95,-0.87 -26.77,-1.2 -26.54,-1.55 -26.28,-1.91 -25.97,-2.28 -25.63,-2.65 -25.25,-3.02 -24.83,-3.39 -24.38,-3.76 -23.9,-4.12 -23.38,-4.47 -22.84,-4.81 -22.26,-5.13 -21.65,-5.43 -21.03,-6.09 -20.36,-6.7 -19.66,-7.26 -18.91,-7.77 -18.12,-8.22 -17.3,-8.62 -16.44,-8.97 -15.55,-9.26 -14.62,-9.49 -13.67,-9.67 -12.69,-9.79 -11.69,-9.86 -10.66,-9.87 -9.62,-9.83 -8.56,-9.75 -7.49,-9.61 -6.4,-9.43 -5.31,-9.2 -4.22,-8.94 -3.12,-8.63 -2.02,-8.29 -0.93,-7.91 0.16,-7.5 1.24,-7.06 2.31,-6.59 3.36,-6.1 4.4,-5.59 5.42,-5.06 6.42,-4.51 7.4,-3.95 8.35,-3.38 9.28,-2.79 10.18,-2.2 11.04,-1.61 11.88,-1.01 12.68,-0.41 13.45,0.19 14.19,0.79 14.88,1.39 15.54,1.98 16.17,2.57 16.75,3.14 17.29,3.72 17.8,4.28 18.27,4.83 18.69,5.38 19.08,5.91 19.43,6.44 19.75,6.96 20.02,7.47 20.26,7.97 20.46,8.46 20.63,8.94 20.76,9.42 20.85,9.88 20.9,10.34 20.92,10.79 20.9,11.23 20.84,11.66 20.74,12.09 20.61,12.51 20.45,12.92 20.24,13.32 20.01,13.72 24.38,14.87 23.86,14.9 23.32,14.92 22.77,14.94 22.2,14.94 21.62,14.93 21.03,14.91 20.43,14.88 19.81,14.84 19.18,14.78 18.55,14.72 17.9,14.63 17.25,14.54 16.58,14.43 15.91,14.3 15.23,14.17 14.54,14.02 13.83,13.86 13.12,13.68 12.39,13.48 11.66,13.28 10.92,13.05 10.18,12.81 9.44,12.55 8.69,12.27 7.94,11.98 7.19,11.67 6.44,11.34 5.69,11 4.95,10.65 4.2,10.28 3.46,9.9 2.72,9.51 1.99,9.11 1.26,8.7 0.54,8.28 -0.18,7.86 -0.89,7.44 -1.6,7.01 -2.31,6.59 -3.01,6.17 -3.7,5.76 -4.39,5.36 -5.08,4.96 -5.76,4.58 -6.44,4.21 -7.11,3.86 -7.79,3.53 -8.46,3.23 -9.14,2.94 -9.81,2.69 -10.48,2.46 -11.16,2.26 -11.83,2.09 -12.51,1.96 -13.2,1.87 -13.88,1.8 -14.58,1.78 -15.27,1.79 -15.97,1.85 -16.68,1.94 -17.39,2.06 -18.1,2.23 -18.82,2.43 -19.55,2.66 -20.09,2.64 -20.64,2.62 -21.17,2.6 -21.7,2.59 -22.22,2.58 -22.73,2.57 -23.23,2.56 -23.72,2.54 -24.19,2.51 -24.65,2.47 -25.09,2.42 -25.51,2.35 -25.92,2.27 -26.3,2.16 -26.66,2.02" />
      </clipPath>
      <filter id="fuzzy">
        <feTurbulence id="turbulence" baseFrequency="0.05" numOctaves="3" type="noise" result="noise" />
        <feDisplacementMap in="SourceGraphic" in2="noise" scale="2" />
      </filter>
      <linearGradient id="rainbowGradient" x1="0%" y1="0%" x2="100%" y2="0%">
        <stop offset="0%" style="stop-color: rgb(160, 77, 216); stop-opacity: 1" />
        <stop offset="50%" style="stop-color: rgb(226, 222, 108); stop-opacity: 1" />
        <stop offset="100%" style="stop-color: rgb(20, 63, 97); stop-opacity: 1" />
      </linearGradient>
    </defs>
    <rect x="-100" y="-100" width="100%" height="100%" fill="rgb(166, 242, 172)" />
    <polyline id="faceContour" points="76.94,0.51 76.99,0.24 76.99,3.52 76.99,5.31 77.12,6.4 76.99,6.99 76.94,8.08 76.51,9.3 76.65,11.63 76.44,12.5 76.05,16.52 76.19,15.56 75.95,16.71 75.41,19.11 75.38,18.93 74.97,22.14 74.89,21.26 74.29,23.66 74.25,23.9 74.19,24.06 73.97,25.81 72.8,30.56 72.77,30.09 71.84,32.66 71.52,34.19 71.35,33.79 70.65,36.36 70.38,36.55 69.72,39.07 69,40.62 69.11,40.49 68.15,42.28 67.79,43.21 67.03,44.88 66.61,45.64 65.06,48.66 64.87,48.55 64.04,50.46 63.46,51.59 62.55,53.47 61.91,54.48 61.49,54.79 60.96,56.29 59.76,57.46 58.75,59.05 59.36,58.29 56.44,61.66 56.96,61 56.63,61.75 54.51,64.66 53.83,65.44 53.61,65.41 53.26,65.66 52.2,66.81 51.72,67.14 50.68,68.66 50.64,68.38 48.66,70.7 47.71,71.26 45.26,73.55 46.77,72.39 43.75,74.74 44.64,74.19 42.09,76.1 40.24,77.53 39.7,78.12 38.95,78.33 39.26,78.06 37.12,79.72 35.35,80.6 35.13,80.74 34.58,81.02 32.25,82.53 31.37,83.22 32.26,82.72 28.57,84.66 28.69,84.41 28.23,84.4 26.55,85.35 24.89,86.13 24,86.25 22.84,86.81 21.27,87.6 20.63,87.57 20.69,87.56 18.1,88.44 17.65,88.3 15.96,88.72 14.91,89.3 12.6,89.46 11.39,89.77 10.86,89.79 9.47,90.2 8.18,90.34 7.07,90.27 5.77,90.78 5.46,90.6 2.47,90.78 2.66,90.72 1.35,90.93 0.27,91.01 -2.6,90.96 -2.92,90.63 -3.5,90.8 -3.65,90.75 -5.37,90.89 -7.73,90.26 -7,90.66 -10.84,89.91 -10.58,89.93 -12.06,89.96 -15.34,88.93 -14.77,89.41 -15.2,89.1 -18.09,88.51 -17.78,88.43 -20.18,87.74 -21.9,87.03 -20.39,87.63 -22.54,87.09 -24.19,86.17 -24.56,85.78 -27.18,85.16 -26.52,85.36 -29.19,84.27 -28.6,84.43 -31.16,83.1 -32.59,82.58 -32.37,82.4 -34.33,81.45 -34.12,81.49 -36.59,80.24 -36.39,79.88 -36.5,80.19 -40.35,77.69 -39.78,77.82 -41.71,76.07 -42.03,76.26 -43.23,75.38 -44.79,73.89 -43.94,74.8 -46.98,71.96 -46.15,72.73 -49.07,70.18 -49.54,69.6 -49.33,69.7 -50.98,68.23 -52.05,66.86 -52.34,67.07 -52.87,66.38 -54.8,63.99 -54.97,63.67 -57.59,60.57 -56.24,62.37 -57.61,60.31 -58.42,59.1 -59.33,57.78 -60.63,56.22 -61.25,54.87 -62.23,53.71 -62.22,53.33 -62.46,53.61 -63.69,51.1 -64.5,50.42 -65.83,47.73 -65.7,47.19 -65.65,47.61 -66.34,46.66 -67.49,43.84 -68.11,42.55 -69.53,39.74 -69.31,39.88 -70.18,38.12 -71.1,35.4 -70.99,35.2 -71.06,35.73 -71.73,33.16 -71.91,32.05 -72.29,31.32 -73.45,27.4 -73.11,28.75 -73.77,25.81 -74.09,24.94 -74.51,24.02 -74.73,22.22 -75.48,18.96 -74.84,21.39 -75.3,18.85 -75.89,16 -76.1,15.67 -76,15.32 -76.27,11.37 -76.21,11.75 -76.77,8.55 -76.59,8.63 -77.14,5.48 -77.02,6.93 -77.07,3.37 -77.24,2.7 -77.1,0.81 -77.14,0.02 -77.24,-2.39 -77.17,-2.55 -77,-4.63 -77,-3.32 -76.8,-8.49 -76.71,-8.3 -76.66,-11.24 -76.59,-11.26 -76.24,-12.49 -76.09,-13.38 -75.57,-17.04 -75.89,-15.19 -75.63,-17.8 -75.32,-18.18 -74.94,-20.48 -74.12,-25.34 -73.78,-26.59 -73.64,-26.84 -73.63,-26.16 -72.64,-30.19 -72.96,-28.72 -72.82,-30.22 -71.95,-32.72 -71.88,-32.77 -71.29,-34.66 -70.94,-35.51 -69.77,-39.03 -70.51,-36.36 -69.36,-39.25 -68.29,-41.48 -67.97,-43.26 -67.59,-43.4 -66.81,-44.69 -67.31,-44.41 -65.63,-47.78 -65.72,-47.41 -64.46,-49.58 -64.16,-49.74 -63.1,-52.06 -62.25,-53.62 -60.85,-55.63 -61.48,-54.58 -59.63,-57.5 -60.3,-56.55 -58.16,-59.46 -57.53,-60.08 -57.52,-60.41 -57.34,-60.59 -55.64,-62.63 -54.19,-64.96 -52.81,-66.05 -53.94,-64.87 -51.36,-67.25 -51.83,-66.97 -50.12,-68.92 -49.64,-69.78 -47.34,-71.45 -48.61,-70.73 -46.36,-72.51 -45.11,-73.26 -44,-74.57 -43,-75.42 -43.43,-74.68 -41.27,-76.53 -41.11,-76.66 -39.72,-78.09 -38.89,-78.35 -37.11,-79.86 -34.24,-81.15 -33.76,-81.32 -32.41,-82.37 -31.88,-82.54 -31.68,-82.9 -31.06,-83.19 -30.33,-83.45 -27.59,-85.01 -26.53,-85.09 -26.73,-85.38 -23.93,-86.46 -22.18,-86.9 -22.1,-86.91 -20.56,-87.47 -20.91,-87.51 -19.17,-88.08 -16.83,-88.69 -17.96,-88.06 -15.11,-88.96 -14.91,-89.27 -12.77,-89.53 -12.92,-89.4 -9.35,-89.9 -10.83,-89.8 -7.51,-90.29 -6.36,-90.24 -7.93,-90.39 -4.85,-90.59 -3.45,-90.79 -1.31,-90.52 -1.32,-90.74 0.01,-90.89 1.78,-90.81 2.15,-90.82 2.69,-90.64 4.38,-90.78 6.67,-90.23 8.14,-90.43 7.34,-90.23 9.87,-90.03 10.7,-90.06 11.64,-89.57 12.87,-89.35 15.82,-88.99 13.94,-89.29 15.61,-89.13 17.4,-88.19 18.33,-88.31 20.74,-87.46 22.38,-86.85 23.51,-86.42 24.9,-85.88 24.77,-86.02 26.12,-85.51 26.34,-85.07 29.16,-84.11 29.79,-83.71 30.23,-83.3 30.88,-82.91 31.2,-83 35.68,-80.59 34.84,-80.89 36.54,-79.82 38,-79.06 39.36,-78.03 38.02,-78.72 40.12,-77.39 42.07,-76.3 41.49,-76.56 42.38,-75.99 44.12,-74.34 44.82,-73.89 46.06,-72.71 47.65,-71.24 47.63,-71.27 49.15,-69.93 50.36,-68.66 50.29,-68.8 50.94,-67.86 53.15,-65.76 54.26,-64.27 55.16,-63.67 55.14,-63.29 55.77,-62.97 56.73,-61.58 57.36,-60.44 58.38,-59.4 58.95,-58.04 60.25,-56.59 61.86,-54.28 61.74,-54.39 62.84,-52.69 63.25,-51.8 63.54,-50.9 64.33,-50.28 64.47,-50 65.56,-47.59 67.01,-44.95 66.25,-45.97 67.01,-45.31 68.54,-41.37 68.32,-42.12 69.53,-39.42 69.62,-39.22 70.26,-37.08 70.96,-35.76 71.25,-35.02 71.87,-33.57 71.97,-31.82 72.56,-31.1 72.37,-31.19 73.72,-27.62 74.14,-24.37 73.62,-27.2 74.15,-24.37 74.97,-21.25 74.79,-21.43 74.81,-21.46 75.19,-19.75 76.12,-15.6 75.73,-16.19 76.06,-14.77 76.57,-12.53 76.49,-11.36 76.84,-9.8 77.03,-8.24 76.83,-5.97 76.88,-6.83 76.84,-4.05 77.01,-3.7 76.96,-1.61 76.94,0.51 76.99,0.24" fill="rgb(223, 32, 209)" stroke="black" stroke-width="1.6666666666666665" stroke-linejoin="round" filter="url(#fuzzy)" />
    <g transform="translate(41.010000000000005 -26.02)">
      <polyline id="rightCountour" points="-27.19,-0.26 -27.09,-0.55 -26.95,-0.87 -26.77,-1.2 -26.54,-1.55 -26.28,-1.91 -25.97,-2.28 -25.63,-2.65 -25.25,-3.02 -24.83,-3.39 -24.38,-3.76 -23.9,-4.12 -23.38,-4.47 -22.84,-4.81 -22.26,-5.13 -21.65,-5.43 -21.03,-6.09 -20.36,-6.7 -19.66,-7.26 -18.91,-7.77 -18.12,-8.22 -17.3,-8.62 -16.44,-8.97 -15.55,-9.26 -14.62,-9.49 -13.67,-9.67 -12.69,-9.79 -11.69,-9.86 -10.66,-9.87 -9.62,-9.83 -8.56,-9.75 -7.49,-9.61 -6.4,-9.43 -5.31,-9.2 -4.22,-8.94 -3.12,-8.63 -2.02,-8.29 -0.93,-7.91 0.16,-7.5 1.24,-7.06 2.31,-6.59 3.36,-6.1 4.4,-5.59 5.42,-5.06 6.42,-4.51 7.4,-3.95 8.35,-3.38 9.28,-2.79 10.18,-2.2 11.04,-1.61 11.88,-1.01 12.68,-0.41 13.45,0.19 14.19,0.79 14.88,1.39 15.54,1.98 16.17,2.57 16.75,3.14 17.29,3.72 17.8,4.28 18.27,4.83 18.69,5.38 19.08,5.91 19.43,6.44 19.75,6.96 20.02,7.47 20.26,7.97 20.46,8.46 20.63,8.94 20.76,9.42 20.85,9.88 20.9,10.34 20.92,10.79 20.9,11.23 20.84,11.66 20.74,12.09 20.61,12.51 20.45,12.92 20.24,13.32 20.01,13.72 24.38,14.87 23.86,14.9 23.32,14.92 22.77,14.94 22.2,14.94 21.62,14.93 21.03,14.91 20.43,14.88 19.81,14.84 19.18,14.78 18.55,14.72 17.9,14.63 17.25,14.54 16.58,14.43 15.91,14.3 15.23,14.17 14.54,14.02 13.83,13.86 13.12,13.68 12.39,13.48 11.66,13.28 10.92,13.05 10.18,12.81 9.44,12.55 8.69,12.27 7.94,11.98 7.19,11.67 6.44,11.34 5.69,11 4.95,10.65 4.2,10.28 3.46,9.9 2.72,9.51 1.99,9.11 1.26,8.7 0.54,8.28 -0.18,7.86 -0.89,7.44 -1.6,7.01 -2.31,6.59 -3.01,6.17 -3.7,5.76 -4.39,5.36 -5.08,4.96 -5.76,4.58 -6.44,4.21 -7.11,3.86 -7.79,3.53 -8.46,3.23 -9.14,2.94 -9.81,2.69 -10.48,2.46 -11.16,2.26 -11.83,2.09 -12.51,1.96 -13.2,1.87 -13.88,1.8 -14.58,1.78 -15.27,1.79 -15.97,1.85 -16.68,1.94 -17.39,2.06 -18.1,2.23 -18.82,2.43 -19.55,2.66 -20.09,2.64 -20.64,2.62 -21.17,2.6 -21.7,2.59 -22.22,2.58 -22.73,2.57 -23.23,2.56 -23.72,2.54 -24.19,2.51 -24.65,2.47 -25.09,2.42 -25.51,2.35 -25.92,2.27 -26.3,2.16 -26.66,2.02" fill="white" stroke="white" stroke-width="0" stroke-linejoin="round" filter="url(#fuzzy)" />
    </g>
    <g transform="translate(-38.83 -24.14)">
      <polyline id="leftCountour" points="28.34,-0.51 28.23,-0.67 28.08,-0.86 27.9,-1.06 27.68,-1.27 27.43,-1.49 27.15,-1.72 26.83,-1.96 26.48,-2.19 26.11,-2.43 25.7,-2.66 25.26,-2.89 24.8,-3.12 24.31,-3.33 23.79,-3.54 23.25,-3.74 22.7,-4.18 22.11,-4.59 21.48,-4.97 20.82,-5.31 20.13,-5.62 19.39,-5.88 18.63,-6.12 17.84,-6.31 17.01,-6.46 16.16,-6.58 15.28,-6.66 14.38,-6.7 13.45,-6.7 12.5,-6.67 11.54,-6.61 10.55,-6.51 9.56,-6.38 8.55,-6.22 7.52,-6.03 6.49,-5.82 5.46,-5.58 4.41,-5.31 3.37,-5.02 2.33,-4.72 1.28,-4.39 0.24,-4.05 -0.79,-3.69 -1.82,-3.32 -2.83,-2.94 -3.84,-2.55 -4.83,-2.14 -5.81,-1.74 -6.78,-1.32 -7.72,-0.91 -8.65,-0.49 -9.55,-0.07 -10.44,0.36 -11.3,0.78 -12.14,1.19 -12.95,1.61 -13.74,2.02 -14.5,2.43 -15.24,2.83 -15.95,3.23 -16.63,3.62 -17.28,4.01 -17.9,4.39 -18.5,4.76 -19.06,5.13 -19.6,5.5 -20.12,5.85 -20.6,6.2 -21.06,6.55 -21.5,6.89 -21.9,7.23 -22.28,7.56 -22.64,7.88 -22.96,8.2 -23.26,8.52 -23.54,8.83 -23.78,9.13 -24,9.44 -24.2,9.73 -24.36,10.02 -24.79,10.68 -24.55,10.74 -24.29,10.79 -24.01,10.84 -23.7,10.87 -23.38,10.9 -23.03,10.91 -22.67,10.92 -22.28,10.91 -21.87,10.89 -21.44,10.86 -21,10.82 -20.53,10.77 -20.04,10.71 -19.54,10.63 -19.02,10.54 -18.47,10.44 -17.9,10.32 -17.31,10.2 -16.71,10.06 -16.08,9.9 -15.43,9.73 -14.76,9.55 -14.08,9.34 -13.38,9.13 -12.66,8.9 -11.92,8.65 -11.17,8.39 -10.41,8.11 -9.63,7.82 -8.84,7.51 -8.04,7.2 -7.22,6.87 -6.4,6.53 -5.56,6.19 -4.72,5.84 -3.87,5.48 -3.01,5.12 -2.15,4.76 -1.28,4.39 -0.41,4.03 0.47,3.67 1.34,3.32 2.22,2.97 3.1,2.64 3.98,2.31 4.86,2 5.74,1.71 6.62,1.43 7.49,1.18 8.36,0.95 9.22,0.74 10.08,0.56 10.93,0.4 11.77,0.28 12.61,0.18 13.44,0.12 14.26,0.09 15.07,0.09 15.87,0.13 16.65,0.2 17.43,0.3 18.19,0.44 18.94,0.62 19.67,0.82 20.3,0.81 20.92,0.8 21.52,0.81 22.11,0.82 22.68,0.83 23.23,0.85 23.77,0.86 24.29,0.88 24.79,0.9 25.27,0.91 25.73,0.91 26.16,0.91 26.57,0.89 26.96,0.86 27.31,0.81" fill="white" stroke="white" stroke-width="0" stroke-linejoin="round" filter="url(#fuzzy)" />
    </g>
    <g transform="translate(41.010000000000005 -26.02)">
      <polyline id="rightUpper" points="-25.62,0.12 -26,0.38 -26.33,0.56 -26.61,0.65 -26.83,0.68 -27.01,0.65 -27.14,0.55 -27.22,0.41 -27.26,0.22 -27.25,0 -27.19,-0.26 -27.09,-0.55 -26.95,-0.87 -26.77,-1.2 -26.54,-1.55 -26.28,-1.91 -25.97,-2.28 -25.63,-2.65 -25.25,-3.02 -24.83,-3.39 -24.38,-3.76 -23.9,-4.12 -23.38,-4.47 -22.84,-4.81 -22.26,-5.13 -21.65,-5.43 -21.03,-6.09 -20.36,-6.7 -19.66,-7.26 -18.91,-7.77 -18.12,-8.22 -17.3,-8.62 -16.44,-8.97 -15.55,-9.26 -14.62,-9.49 -13.67,-9.67 -12.69,-9.79 -11.69,-9.86 -10.66,-9.87 -9.62,-9.83 -8.56,-9.75 -7.49,-9.61 -6.4,-9.43 -5.31,-9.2 -4.22,-8.94 -3.12,-8.63 -2.02,-8.29 -0.93,-7.91 0.16,-7.5 1.24,-7.06 2.31,-6.59 3.36,-6.1 4.4,-5.59 5.42,-5.06 6.42,-4.51 7.4,-3.95 8.35,-3.38 9.28,-2.79 10.18,-2.2 11.04,-1.61 11.88,-1.01 12.68,-0.41 13.45,0.19 14.19,0.79 14.88,1.39 15.54,1.98 16.17,2.57 16.75,3.14 17.29,3.72 17.8,4.28 18.27,4.83 18.69,5.38 19.08,5.91 19.43,6.44 19.75,6.96 20.02,7.47 20.26,7.97 20.46,8.46 20.63,8.94 20.76,9.42 20.85,9.88 20.9,10.34 20.92,10.79 20.9,11.23 20.84,11.66 20.74,12.09 20.61,12.51 20.45,12.92 20.24,13.32 20.01,13.72 19.74,14.11 19.43,14.49 19.09,14.87 18.72,15.24 18.31,15.61 17.88,15.97 17.41,16.32 16.91,16.67 16.38,17.02 15.83,17.36" fill="none" stroke="black" stroke-width="1.6666666666666665" stroke-linejoin="round" filter="url(#fuzzy)" />
      <polyline id="rightLower" points="-28.4,-1.91 -28.42,-1.23 -28.38,-0.63 -28.3,-0.1 -28.18,0.36 -28.01,0.76 -27.81,1.1 -27.57,1.39 -27.3,1.64 -26.99,1.85 -26.66,2.02 -26.3,2.16 -25.92,2.27 -25.51,2.35 -25.09,2.42 -24.65,2.47 -24.19,2.51 -23.72,2.54 -23.23,2.56 -22.73,2.57 -22.22,2.58 -21.7,2.59 -21.17,2.6 -20.64,2.62 -20.09,2.64 -19.55,2.66 -18.82,2.43 -18.1,2.23 -17.39,2.06 -16.68,1.94 -15.97,1.85 -15.27,1.79 -14.58,1.78 -13.88,1.8 -13.2,1.87 -12.51,1.96 -11.83,2.09 -11.16,2.26 -10.48,2.46 -9.81,2.69 -9.14,2.94 -8.46,3.23 -7.79,3.53 -7.11,3.86 -6.44,4.21 -5.76,4.58 -5.08,4.96 -4.39,5.36 -3.7,5.76 -3.01,6.17 -2.31,6.59 -1.6,7.01 -0.89,7.44 -0.18,7.86 0.54,8.28 1.26,8.7 1.99,9.11 2.72,9.51 3.46,9.9 4.2,10.28 4.95,10.65 5.69,11 6.44,11.34 7.19,11.67 7.94,11.98 8.69,12.27 9.44,12.55 10.18,12.81 10.92,13.05 11.66,13.28 12.39,13.48 13.12,13.68 13.83,13.86 14.54,14.02 15.23,14.17 15.91,14.3 16.58,14.43 17.25,14.54 17.9,14.63 18.55,14.72 19.18,14.78 19.81,14.84 20.43,14.88 21.03,14.91 21.62,14.93 22.2,14.94 22.77,14.94 23.32,14.92 23.86,14.9 24.38,14.87 24.89,14.83 25.39,14.78 25.86,14.72 26.32,14.66 26.77,14.59 27.2,14.51 27.61,14.42 28.01,14.33 28.39,14.24 28.76,14.14" fill="none" stroke="black" stroke-width="2.2222222222222223" stroke-linejoin="round" filter="url(#fuzzy)" />
      <circle r="4.824" cx="-7.405921747317096" cy="-4.437136756275142" stroke="black" fill="none" stroke-width="1.0" filter="url(#fuzzy)" clip-path="url(#rightEyeClipPath)" /><circle r="3.6959999999999997" cx="-7.840921747317096" cy="-2.1921367562751417" stroke="black" fill="none" stroke-width="1.0" filter="url(#fuzzy)" clip-path="url(#rightEyeClipPath)" /><circle r="4.1739999999999995" cx="-6.275921747317096" cy="-1.057136756275142" stroke="black" fill="none" stroke-width="1.0" filter="url(#fuzzy)" clip-path="url(#rightEyeClipPath)" /><circle r="4.954" cx="-8.300921747317096" cy="-1.1871367562751418" stroke="black" fill="none" stroke-width="1.0" filter="url(#fuzzy)" clip-path="url(#rightEyeClipPath)" /><circle r="4.632" cx="-7.675921747317096" cy="-2.312136756275142" stroke="black" fill="none" stroke-width="1.0" filter="url(#fuzzy)" clip-path="url(#rightEyeClipPath)" /><circle r="3.636" cx="-6.6959217473170956" cy="-3.5421367562751414" stroke="black" fill="none" stroke-width="1.0" filter="url(#fuzzy)" clip-path="url(#rightEyeClipPath)" /><circle r="3.228" cx="-5.705921747317095" cy="-1.8321367562751418" stroke="black" fill="none" stroke-width="1.0" filter="url(#fuzzy)" clip-path="url(#rightEyeClipPath)" /><circle r="4.172" cx="-8.030921747317096" cy="-4.947136756275142" stroke="black" fill="none" stroke-width="1.0" filter="url(#fuzzy)" clip-path="url(#rightEyeClipPath)" /><circle r="3.372" cx="-5.640921747317096" cy="-4.677136756275141" stroke="black" fill="none" stroke-width="1.0" filter="url(#fuzzy)" clip-path="url(#rightEyeClipPath)" /><circle r="3.7720000000000002" cx="-9.050921747317096" cy="-0.6321367562751421" stroke="black" fill="none" stroke-width="1.0" filter="url(#fuzzy)" clip-path="url(#rightEyeClipPath)" />
      </g>
    <g transform="translate(-38.83 -24.14)">
      <polyline id="leftUpper" points="27.4,-0.73 27.67,-0.49 27.9,-0.31 28.1,-0.19 28.25,-0.11 28.36,-0.09 28.43,-0.11 28.47,-0.16 28.46,-0.25 28.42,-0.36 28.34,-0.51 28.23,-0.67 28.08,-0.86 27.9,-1.06 27.68,-1.27 27.43,-1.49 27.15,-1.72 26.83,-1.96 26.48,-2.19 26.11,-2.43 25.7,-2.66 25.26,-2.89 24.8,-3.12 24.31,-3.33 23.79,-3.54 23.25,-3.74 22.7,-4.18 22.11,-4.59 21.48,-4.97 20.82,-5.31 20.13,-5.62 19.39,-5.88 18.63,-6.12 17.84,-6.31 17.01,-6.46 16.16,-6.58 15.28,-6.66 14.38,-6.7 13.45,-6.7 12.5,-6.67 11.54,-6.61 10.55,-6.51 9.56,-6.38 8.55,-6.22 7.52,-6.03 6.49,-5.82 5.46,-5.58 4.41,-5.31 3.37,-5.02 2.33,-4.72 1.28,-4.39 0.24,-4.05 -0.79,-3.69 -1.82,-3.32 -2.83,-2.94 -3.84,-2.55 -4.83,-2.14 -5.81,-1.74 -6.78,-1.32 -7.72,-0.91 -8.65,-0.49 -9.55,-0.07 -10.44,0.36 -11.3,0.78 -12.14,1.19 -12.95,1.61 -13.74,2.02 -14.5,2.43 -15.24,2.83 -15.95,3.23 -16.63,3.62 -17.28,4.01 -17.9,4.39 -18.5,4.76 -19.06,5.13 -19.6,5.5 -20.12,5.85 -20.6,6.2 -21.06,6.55 -21.5,6.89 -21.9,7.23 -22.28,7.56 -22.64,7.88 -22.96,8.2 -23.26,8.52 -23.54,8.83 -23.78,9.13 -24,9.44 -24.2,9.73 -24.36,10.02 -24.51,10.31 -24.62,10.6 -24.71,10.88 -24.78,11.16 -24.82,11.43 -24.84,11.7 -24.83,11.97 -24.8,12.23 -24.75,12.49 -24.68,12.75" fill="none" stroke="black" stroke-width="2.2222222222222223" stroke-linejoin="round" filter="url(#fuzzy)" />
      <polyline id="leftLower" points="29.09,-1.44 29.08,-1 29.03,-0.63 28.94,-0.31 28.82,-0.04 28.65,0.19 28.45,0.38 28.21,0.53 27.94,0.65 27.64,0.74 27.31,0.81 26.96,0.86 26.57,0.89 26.16,0.91 25.73,0.91 25.27,0.91 24.79,0.9 24.29,0.88 23.77,0.86 23.23,0.85 22.68,0.83 22.11,0.82 21.52,0.81 20.92,0.8 20.3,0.81 19.67,0.82 18.94,0.62 18.19,0.44 17.43,0.3 16.65,0.2 15.87,0.13 15.07,0.09 14.26,0.09 13.44,0.12 12.61,0.18 11.77,0.28 10.93,0.4 10.08,0.56 9.22,0.74 8.36,0.95 7.49,1.18 6.62,1.43 5.74,1.71 4.86,2 3.98,2.31 3.1,2.64 2.22,2.97 1.34,3.32 0.47,3.67 -0.41,4.03 -1.28,4.39 -2.15,4.76 -3.01,5.12 -3.87,5.48 -4.72,5.84 -5.56,6.19 -6.4,6.53 -7.22,6.87 -8.04,7.2 -8.84,7.51 -9.63,7.82 -10.41,8.11 -11.17,8.39 -11.92,8.65 -12.66,8.9 -13.38,9.13 -14.08,9.34 -14.76,9.55 -15.43,9.73 -16.08,9.9 -16.71,10.06 -17.31,10.2 -17.9,10.32 -18.47,10.44 -19.02,10.54 -19.54,10.63 -20.04,10.71 -20.53,10.77 -21,10.82 -21.44,10.86 -21.87,10.89 -22.28,10.91 -22.67,10.92 -23.03,10.91 -23.38,10.9 -23.7,10.87 -24.01,10.84 -24.29,10.79 -24.55,10.74 -24.79,10.68 -25.01,10.61 -25.2,10.54 -25.38,10.46 -25.53,10.37 -25.67,10.27 -25.78,10.17 -25.87,10.07 -25.95,9.96 -26,9.84 -26.04,9.73" fill="none" stroke="black" stroke-width="2.2222222222222223" stroke-linejoin="round" filter="url(#fuzzy)" />
      <circle r="4.368" cx="17.519023135837582" cy="-2.188041942956612" stroke="black" fill="none" stroke-width="1.0" filter="url(#fuzzy)" clip-path="url(#leftEyeClipPath)" /><circle r="3.504" cx="16.989023135837584" cy="0.206958057043388" stroke="black" fill="none" stroke-width="1.0" filter="url(#fuzzy)" clip-path="url(#leftEyeClipPath)" /><circle r="4.11" cx="17.404023135837583" cy="-2.293041942956612" stroke="black" fill="none" stroke-width="1.0" filter="url(#fuzzy)" clip-path="url(#leftEyeClipPath)" /><circle r="4.652" cx="20.584023135837583" cy="-1.9980419429566119" stroke="black" fill="none" stroke-width="1.0" filter="url(#fuzzy)" clip-path="url(#leftEyeClipPath)" /><circle r="3.96" cx="18.154023135837583" cy="0.746958057043388" stroke="black" fill="none" stroke-width="1.0" filter="url(#fuzzy)" clip-path="url(#leftEyeClipPath)" /><circle r="3.498" cx="16.099023135837584" cy="-2.1030419429566116" stroke="black" fill="none" stroke-width="1.0" filter="url(#fuzzy)" clip-path="url(#leftEyeClipPath)" /><circle r="3.528" cx="19.259023135837584" cy="-3.0180419429566117" stroke="black" fill="none" stroke-width="1.0" filter="url(#fuzzy)" clip-path="url(#leftEyeClipPath)" /><circle r="4.652" cx="18.27402313583758" cy="0.006958057043387811" stroke="black" fill="none" stroke-width="1.0" filter="url(#fuzzy)" clip-path="url(#leftEyeClipPath)" /><circle r="3.762" cx="19.709023135837583" cy="-0.49304194295661175" stroke="black" fill="none" stroke-width="1.0" filter="url(#fuzzy)" clip-path="url(#leftEyeClipPath)" /><circle r="4.91" cx="20.19902313583758" cy="-2.208041942956612" stroke="black" fill="none" stroke-width="1.0" filter="url(#fuzzy)" clip-path="url(#leftEyeClipPath)" />
    </g>
    <g id="hairs">
      <polyline points="64.47,-50 65.45,-47.93 66.09,-46.6 66.52,-45.69 66.86,-44.88 67.13,-44.14 67.28,-43.52 67.28,-43.11 67.1,-42.95 66.72,-43.06 66.15,-43.46 65.35,-44.18 64.32,-45.25 63.02,-46.68 61.45,-48.49 59.61,-50.68 57.48,-53.28 55.07,-56.31 52.37,-59.79 49.34,-63.75 45.95,-68.19 42.33,-73.1" fill="none" stroke="rgb(125, 134, 19)" stroke-width="2" stroke-linejoin="round" filter="url(#fuzzy)" /><polyline points="67.01,-45.31 67.59,-43.02 66.97,-42.08 65.41,-41.63 62.9,-41.5 59.44,-41.71 55,-42.28 49.55,-43.23 43.06,-44.59 35.52,-46.36 26.91,-48.51 17.17,-51.02 6.27,-53.86 -5.84,-57.11 -19.13,-60.92 -33.56,-65.31" fill="none" stroke="rgb(125, 134, 19)" stroke-width="2" stroke-linejoin="round" filter="url(#fuzzy)" /><polyline points="-10.83,-89.8 -8.3,-90.01 -6.36,-89.9 -4.2,-89.6 -1.53,-89.15 1.58,-88.56 4.95,-87.87 8.44,-87.1 12.02,-86.26 15.67,-85.35 19.38,-84.37 23.13,-83.33 26.89,-82.27 30.69,-81.18 34.54,-80.03" fill="none" stroke="rgb(125, 134, 19)" stroke-width="2" stroke-linejoin="round" filter="url(#fuzzy)" /><polyline points="-12.77,-89.53 -12.13,-89.53 -11.22,-89.57 -10.56,-89.52 -10.22,-89.34 -10.21,-89.01 -10.51,-88.51 -11.11,-87.82 -12.05,-86.93 -13.41,-85.82 -15.26,-84.48 -17.64,-82.9 -20.57,-81.08 -24.05,-79 -28.1,-76.62 -32.77,-73.86 -38.12,-70.69 -44.15,-67.16 -50.72,-63.55" fill="none" stroke="rgb(125, 134, 19)" stroke-width="2" stroke-linejoin="round" filter="url(#fuzzy)" /><polyline points="-20.91,-87.51 -19.35,-87.95 -18.29,-88.15 -17.58,-88.19 -17.09,-88.14 -16.78,-87.96 -16.7,-87.62 -16.91,-87.1 -17.44,-86.38 -18.33,-85.46 -19.63,-84.34 -21.35,-82.99 -23.5,-81.4 -26.1,-79.53 -29.17,-77.34 -32.78,-74.81 -36.95,-71.97 -41.65,-68.89 -46.91,-65.56 -52.94,-61.69" fill="none" stroke="rgb(125, 134, 19)" stroke-width="2" stroke-linejoin="round" filter="url(#fuzzy)" /><polyline points="40.12,-77.39 41.34,-76.64 42.22,-75.92 43.29,-74.95 44.57,-73.76 45.95,-72.46 47.32,-71.15 48.62,-69.9 49.81,-68.76 50.86,-67.75 51.77,-66.88 52.55,-66.13 53.19,-65.51 53.67,-65.03 53.9,-64.81 53.74,-64.99 53.02,-65.76 51.75,-67.14" fill="none" stroke="rgb(125, 134, 19)" stroke-width="2" stroke-linejoin="round" filter="url(#fuzzy)" /><polyline points="-33.76,-81.32 -32.77,-82.04 -32.14,-82.47 -31.62,-82.78 -31.1,-83.06 -30.57,-83.3 -30.14,-83.43 -29.92,-83.41 -30,-83.18 -30.43,-82.73 -31.28,-82.02 -32.65,-81.02 -34.6,-79.69 -37.18,-77.97 -40.38,-75.87 -44.01,-73.52" fill="none" stroke="rgb(125, 134, 19)" stroke-width="2" stroke-linejoin="round" filter="url(#fuzzy)" /><polyline points="12.87,-89.35 14.35,-89.18 14.96,-89.06 15.64,-88.85 16.46,-88.54 17.28,-88.18 17.95,-87.82 18.35,-87.47 18.38,-87.16 18.01,-86.9 17.26,-86.68 16.14,-86.49 14.66,-86.31 12.81,-86.14 10.57,-86 7.91,-85.89 4.82,-85.82 1.31,-85.77 -2.63,-85.75 -7.02,-85.78 -11.92,-85.91 -17.44,-86.16" fill="none" stroke="rgb(125, 134, 19)" stroke-width="2" stroke-linejoin="round" filter="url(#fuzzy)" /><polyline points="62.84,-52.69 63.08,-51.98 63.06,-51.56 62.78,-51.31 62.2,-51.19 61.26,-51.26 59.86,-51.65 57.99,-52.41 55.62,-53.55 52.72,-55.07 49.25,-57 45.18,-59.38 40.45,-62.25 35.08,-65.63 29.06,-69.54 22.39,-73.99 15.01,-78.98 6.97,-84.49" fill="none" stroke="rgb(125, 134, 19)" stroke-width="2" stroke-linejoin="round" filter="url(#fuzzy)" /><polyline points="63.54,-50.9 63.74,-50.43 63.1,-49.89 61.62,-49.46 59.17,-49.4 55.73,-49.8 51.3,-50.61 45.86,-51.79 39.34,-53.34 31.63,-55.3 22.63,-57.67 12.3,-60.44 0.64,-63.64 -12.27,-67.32 -26.31,-71.54" fill="none" stroke="rgb(125, 134, 19)" stroke-width="2" stroke-linejoin="round" filter="url(#fuzzy)" /><polyline points="24.77,-86.02 25.97,-85.42 27.43,-84.59 29.08,-83.6 30.77,-82.54 32.49,-81.41 34.31,-80.2 36.26,-78.89 38.28,-77.52 40.28,-76.14 42.14,-74.83 43.75,-73.68 45.08,-72.74 46.14,-72.01 47,-71.45 47.69,-71.02 48,-70.88" fill="none" stroke="rgb(125, 134, 19)" stroke-width="2" stroke-linejoin="round" filter="url(#fuzzy)" /><polyline points="34.84,-80.89 36.39,-79.92 37.69,-79.04 38.78,-78.24 39.83,-77.43 40.92,-76.59 42.06,-75.7 43.21,-74.78 44.37,-73.83 45.51,-72.86 46.63,-71.89 47.66,-70.98 48.56,-70.18 49.3,-69.52 49.84,-69.04 50.18,-68.74 50.32,-68.62 50.27,-68.66 50.02,-68.89 49.51,-69.36 48.67,-70.14 47.44,-71.29 45.85,-72.79" fill="none" stroke="rgb(125, 134, 19)" stroke-width="2" stroke-linejoin="round" filter="url(#fuzzy)" /><polyline points="26.34,-85.07 28.22,-84.34 29.09,-83.85 29.55,-83.43 29.87,-82.97 30.12,-82.47 30.2,-81.92 30,-81.39 29.43,-80.89 28.44,-80.46 27.03,-80.09 25.18,-79.76 22.93,-79.47 20.28,-79.2 17.24,-78.95 13.83,-78.71 10.02,-78.49 5.79,-78.29 1.06,-78.1 -4.26,-77.92 -10.28,-77.73 -17.05,-77.51 -24.52,-77.27 -32.54,-77.04" fill="none" stroke="rgb(125, 134, 19)" stroke-width="2" stroke-linejoin="round" filter="url(#fuzzy)" /><polyline points="54.26,-64.27 54.74,-63.84 54.82,-63.53 54.68,-63.23 54.29,-62.94 53.61,-62.72 52.59,-62.62 51.18,-62.71 49.31,-63.05 46.93,-63.69 43.96,-64.68 40.36,-66.03 36.11,-67.76 31.21,-69.85 25.7,-72.28 19.61,-75.01 12.87,-78.05 5.41,-81.44 -2.92,-85.25" fill="none" stroke="rgb(125, 134, 19)" stroke-width="2" stroke-linejoin="round" filter="url(#fuzzy)" /><polyline points="46.06,-72.71 46.9,-71.7 46.97,-70.93 46.45,-70.15 45.34,-69.36 43.63,-68.53 41.32,-67.63 38.36,-66.69 34.68,-65.78 30.22,-64.94 24.94,-64.17 18.84,-63.41 11.91,-62.6 4.17,-61.71 -4.37,-60.77 -13.71,-59.85 -23.88,-58.98 -34.99,-58.14 -47.1,-57.39" fill="none" stroke="rgb(125, 134, 19)" stroke-width="2" stroke-linejoin="round" filter="url(#fuzzy)" /><polyline points="57.36,-60.44 58.17,-59.4 58.86,-58.31 59.39,-57.36 59.63,-56.69 59.53,-56.34 59.08,-56.34 58.28,-56.66 57.13,-57.3 55.65,-58.23 53.83,-59.44 51.64,-60.95 49.03,-62.81 45.92,-65.1 42.24,-67.85 37.94,-71.08 32.97,-74.81 27.34,-79.09 21.02,-83.94" fill="none" stroke="rgb(125, 134, 19)" stroke-width="2" stroke-linejoin="round" filter="url(#fuzzy)" /><polyline points="-3.45,-90.79 -2.01,-90.68 -1.04,-90.71 -0.15,-90.75 0.66,-90.74 1.37,-90.68 1.98,-90.58 2.47,-90.45 2.78,-90.28 2.85,-90.08 2.64,-89.86 2.12,-89.6 1.3,-89.3 0.15,-88.97 -1.35,-88.6 -3.28,-88.2 -5.66,-87.74 -8.54,-87.21 -11.9,-86.58 -15.75,-85.86 -20.19,-85.03 -25.36,-84.07" fill="none" stroke="rgb(125, 134, 19)" stroke-width="2" stroke-linejoin="round" filter="url(#fuzzy)" /><polyline points="67.01,-45.31 67.96,-42.9 68.47,-41.64 68.81,-40.69 69.01,-39.94 69.06,-39.38 68.95,-39.07 68.65,-39.04 68.14,-39.3 67.41,-39.88 66.44,-40.78 65.22,-42.03 63.74,-43.65 61.98,-45.69 59.92,-48.19 57.56,-51.16 54.9,-54.61 51.93,-58.57 48.67,-63.04 45.14,-68 41.23,-73.49" fill="none" stroke="rgb(125, 134, 19)" stroke-width="2" stroke-linejoin="round" filter="url(#fuzzy)" /><polyline points="-44,-74.57 -43.3,-75.07 -42.56,-75.57 -41.62,-76.26 -40.56,-77.07 -39.39,-77.93 -38.17,-78.77 -37,-79.54 -35.98,-80.17 -35.23,-80.61 -34.8,-80.85 -34.68,-80.87 -34.82,-80.72 -35.18,-80.39 -35.74,-79.92 -36.52,-79.27 -37.6,-78.41 -39.07,-77.27 -40.97,-75.84 -43.27,-74.16 -45.97,-72.26" fill="none" stroke="rgb(125, 134, 19)" stroke-width="2" stroke-linejoin="round" filter="url(#fuzzy)" /><polyline points="-23.93,-86.46 -22.66,-86.78 -21.69,-87.07 -20.68,-87.38 -19.57,-87.71 -18.34,-88.05 -17.07,-88.36 -15.8,-88.67 -14.57,-88.95 -13.39,-89.21 -12.3,-89.44 -11.32,-89.63 -10.49,-89.78 -9.85,-89.88 -9.43,-89.95 -9.25,-89.97 -9.32,-89.93 -9.66,-89.84 -10.26,-89.69 -11.16,-89.47 -12.4,-89.19 -14.02,-88.84 -16.06,-88.43 -18.43,-87.93" fill="none" stroke="rgb(125, 134, 19)" stroke-width="2" stroke-linejoin="round" filter="url(#fuzzy)" /><polyline points="42.07,-76.3 41.88,-76.28 42.02,-75.9 42.04,-75.46 41.66,-75.13 40.78,-75 39.29,-75.12 37.13,-75.52 34.24,-76.22 30.57,-77.21 26.06,-78.5 20.72,-80.08 14.61,-81.95 7.67,-84.16 -0.47,-86.81" fill="none" stroke="rgb(125, 134, 19)" stroke-width="2" stroke-linejoin="round" filter="url(#fuzzy)" /><polyline points="54.26,-64.27 54.56,-63.86 54.1,-63.61 53.03,-63.38 51.34,-63.18 48.96,-63.05 45.82,-63.05 41.88,-63.24 37.09,-63.67 31.41,-64.42 24.75,-65.52 17.03,-66.97 8.16,-68.72 -1.97,-70.72 -13.43,-72.9 -26.14,-75.27" fill="none" stroke="rgb(125, 134, 19)" stroke-width="2" stroke-linejoin="round" filter="url(#fuzzy)" /><polyline points="-22.18,-86.9 -21.67,-87.06 -20.75,-87.36 -19.58,-87.71 -18.22,-88.06 -16.77,-88.4 -15.32,-88.72 -13.92,-89.03 -12.6,-89.31 -11.43,-89.56 -10.43,-89.76 -9.65,-89.9 -9.13,-89.99 -8.94,-90.03 -9.14,-90 -9.8,-89.9 -10.91,-89.76 -12.49,-89.56" fill="none" stroke="rgb(125, 134, 19)" stroke-width="2" stroke-linejoin="round" filter="url(#fuzzy)" /><polyline points="62.84,-52.69 63.09,-51.95 63.1,-51.43 62.88,-51.02 62.39,-50.67 61.56,-50.43 60.34,-50.4 58.69,-50.63 56.6,-51.13 54.05,-51.88 51.04,-52.91 47.51,-54.25 43.45,-55.91 38.83,-57.91 33.61,-60.29 27.8,-63.03 21.37,-66.15 14.33,-69.67 6.68,-73.59 -1.61,-77.92 -10.72,-82.58" fill="none" stroke="rgb(125, 134, 19)" stroke-width="2" stroke-linejoin="round" filter="url(#fuzzy)" /><polyline points="-43.43,-74.68 -41.89,-75.99 -40.71,-76.97 -39.46,-77.9 -38.07,-78.85 -36.62,-79.78 -35.26,-80.61 -34.1,-81.3 -33.21,-81.82 -32.61,-82.18 -32.27,-82.38 -32.19,-82.41 -32.38,-82.26 -32.86,-81.91 -33.68,-81.34 -34.85,-80.52 -36.38,-79.44 -38.31,-78.11 -40.66,-76.6" fill="none" stroke="rgb(125, 134, 19)" stroke-width="2" stroke-linejoin="round" filter="url(#fuzzy)" /><polyline points="9.87,-90.03 10.86,-89.81 12.28,-89.29 13.96,-88.61 15.76,-87.82 17.69,-86.87 19.82,-85.76 22.18,-84.49 24.74,-83.1 27.4,-81.63 30.05,-80.14 32.63,-78.67 35.07,-77.24 37.4,-75.86 39.65,-74.51 41.84,-73.17 43.99,-71.83 46.05,-70.52 47.93,-69.28 49.52,-68.27 50.62,-67.71" fill="none" stroke="rgb(125, 134, 19)" stroke-width="2" stroke-linejoin="round" filter="url(#fuzzy)" /><polyline points="-41.27,-76.53 -40.59,-77.01 -39.17,-77.8 -37.22,-78.68 -34.92,-79.59 -32.45,-80.44 -29.95,-81.19 -27.46,-81.84 -24.96,-82.42 -22.39,-82.95 -19.7,-83.48 -16.87,-84.02 -13.91,-84.57 -10.87,-85.12 -7.83,-85.66 -4.86,-86.19 -2.05,-86.7 0.54,-87.19 2.91,-87.67 5.11,-88.13 7.25,-88.55 9.45,-88.88 11.64,-89.1" fill="none" stroke="rgb(125, 134, 19)" stroke-width="2" stroke-linejoin="round" filter="url(#fuzzy)" /><polyline points="18.33,-88.31 28.64,-68.58 18.21,-72.27 10.43,-77.7 5.11,-80.8 2.55,-81.55 2.96,-80.33 4.57,-77.76 4.88,-74.86 2.88,-72.68 -0.25,-71.83 -2.45,-72.28 -2.54,-73.48 -0.92,-74.66 1.44,-75.09 4.3,-74.31 8.28,-72.53 13.34,-70.96 17.55,-71.56 18.84,-75.57 19.31,-81.27 25.53,-83.4 39.36,-78.03" fill="none" stroke="rgb(125, 134, 19)" stroke-width="2" stroke-linejoin="round" filter="url(#fuzzy)" /><polyline points="70.26,-37.08 26.21,-68.65 6.67,-73.95 6.53,-71.37 13.77,-69.31 18.4,-69.59 17.29,-71.44 12.53,-73.73 7.74,-75.81 5.46,-77.55 6.39,-79.06 9.82,-80.4 14.47,-81.42 19.11,-81.89 22.8,-81.71 25.04,-80.92 26.05,-79.57 26.88,-77.57 29.27,-74.71 35.48,-70.19 48.78,-61.2 67.01,-44.95" fill="none" stroke="rgb(125, 134, 19)" stroke-width="2" stroke-linejoin="round" filter="url(#fuzzy)" /><polyline points="29.16,-84.11 43.66,-70.68 48.76,-64.21 50.49,-61.04 48.84,-61.6 45.02,-64.37 40.24,-67.52 34.91,-69.85 28.88,-70.96 21.99,-71.11 14.59,-70.96 7.58,-71.13 2.16,-71.92 -0.79,-73.2 -1.21,-74.59 0.11,-75.66 2.06,-75.99 4.04,-75.19 6.52,-73.18 10.71,-70.54 17.45,-68.57 26.33,-68.02 35.92,-67.39 42.47,-66.35 26.34,-85.07" fill="none" stroke="rgb(125, 134, 19)" stroke-width="2" stroke-linejoin="round" filter="url(#fuzzy)" /><polyline points="-6.36,-90.24 7.64,-83.84 19.26,-75.1 17.38,-71.77 10.83,-73.09 5.89,-76.06 2.92,-78.52 0.5,-79.63 -1.58,-79.5 -2.47,-78.74 -1.61,-78.06 0.4,-78 2.1,-78.75 2.09,-80.09 -0.28,-81.52 -4.72,-82.41 -10.29,-82.35 -15.95,-81.39 -20.84,-80.03 -24.14,-78.98 -24.85,-78.56 -22.2,-77.84 -16.2,-74.32 -2.32,-66 57.36,-60.44" fill="none" stroke="rgb(125, 134, 19)" stroke-width="2" stroke-linejoin="round" filter="url(#fuzzy)" /><polyline points="15.82,-88.99 22.4,-83.04 18.45,-77.02 4.63,-72.94 -6.98,-69.98 -11.32,-68.28 -9.83,-68.09 -6.05,-69.16 -2.73,-70.84 -1.04,-72.41 -0.79,-73.44 -1.07,-73.76 -0.64,-73.35 1.65,-72.1 6.58,-69.96 14.04,-67.23 22.63,-64.73 29.62,-63.59 31.77,-64.69 26.75,-67.93 14.57,-71.86 -1.75,-74.14 -15.3,-73.63 -10.92,-72.91 42.07,-76.3" fill="none" stroke="rgb(125, 134, 19)" stroke-width="2" stroke-linejoin="round" filter="url(#fuzzy)" /><polyline points="-50.12,-68.92 -16.13,-76.18 -14.96,-78.09 -15.87,-78.05 -15.6,-77.08 -13.66,-75.77 -10.17,-74.17 -6.09,-72.33 -2.19,-70.63 1.56,-69.66 5.5,-69.79 9.47,-70.8 12.81,-71.95 15,-72.3 16.22,-71.3 17.43,-69.1 19.62,-66.52 22.99,-64.6 26.31,-64.16 27.02,-65.71 22.8,-69.61 14.59,-75.86 8.78,-82.96 13.6,-86.87 29.79,-83.71" fill="none" stroke="rgb(125, 134, 19)" stroke-width="2" stroke-linejoin="round" filter="url(#fuzzy)" /><polyline points="-48.61,-70.73 -8.3,-80.51 10.39,-78.51 19.19,-74.07 25.12,-70.43 30.37,-67.86 33.62,-66.38 33.19,-66.19 29.02,-67.31 22.97,-69.41 17.53,-71.77 14.32,-73.61 13.29,-74.37 13.02,-73.9 11.69,-72.66 8.1,-71.51 2.07,-71.27 -5.57,-72.1 -13.06,-73.14 -17.58,-72.75 -15.1,-69.53 -0.99,-63.26 26.32,-54.5 57.7,-43.56 71.25,-35.02" fill="none" stroke="rgb(125, 134, 19)" stroke-width="2" stroke-linejoin="round" filter="url(#fuzzy)" /><polyline points="-6.36,-90.24 -32.87,-75.4 -29.95,-75.4 -17.56,-77.07 -5.68,-76.79 0.77,-75.45 1.39,-74.7 -0.73,-75.27 -1.69,-76.87 0.75,-78.65 6.26,-79.8 12.63,-79.8 17.23,-78.48 18.22,-76.01 15.28,-72.92 9.48,-69.99 3.07,-67.97 -0.56,-66.94 2.9,-65.85 14.78,-63.34 20.68,-62.38 -27.59,-85.01" fill="none" stroke="rgb(125, 134, 19)" stroke-width="2" stroke-linejoin="round" filter="url(#fuzzy)" /><polyline points="63.54,-50.9 44.13,-48.62 23.8,-54.26 9.15,-60.01 -5.78,-64.39 -19.12,-67.44 -27.01,-69.65 -27.67,-71.2 -21.87,-71.9 -11.91,-71.44 -0.48,-69.68 10.37,-66.76 19.85,-63.14 28.2,-59.43 35.58,-56.33 41.01,-54.48 42.45,-54.35 38.21,-55.97 28.66,-58.61 16.56,-61.26 5.5,-64.14 -4.69,-69.07 -44,-74.57" fill="none" stroke="rgb(125, 134, 19)" stroke-width="2" stroke-linejoin="round" filter="url(#fuzzy)" /><polyline points="24.77,-86.02 41.35,-72.94 43.7,-70.7 45.73,-67.22 46.62,-63.18 44.05,-60.59 39.03,-59.62 34.74,-59.39 33.68,-59.19 36.02,-58.92 39.97,-58.74 43.09,-58.77 43.36,-59.12 39.73,-60.06 32.35,-62.01 22.72,-65.29 13.58,-69.7 8.18,-74.35 8.92,-77.73 16.03,-78.27 27.11,-75.27 37.3,-69.89 38.77,-65.83 18.75,-67.96 -43,-75.42" fill="none" stroke="rgb(125, 134, 19)" stroke-width="2" stroke-linejoin="round" filter="url(#fuzzy)" /><polyline points="69.62,-39.22 1.71,-63.18 -7.22,-75.52 2,-80.66 11.16,-81.7 15.9,-80.07 16.55,-76.58 13.07,-72.43 5.62,-69.16 -2.83,-67.61 -6.59,-67.32 -1.65,-67.1 8.89,-66.32 15.56,-64.87 18.87,-59.55 69.62,-39.22" fill="none" stroke="rgb(125, 134, 19)" stroke-width="2" stroke-linejoin="round" filter="url(#fuzzy)" /><polyline points="-7.51,-90.29 6.33,-79.18 11.89,-71.46 21.43,-69.13 26.78,-70.5 25.62,-72.26 20.14,-72.35 12.76,-70.98 4.78,-69.8 -2.77,-70.24 -7.99,-72.62 -8.44,-76.29 -2.73,-80.14 8.07,-82.54 21.16,-80.82 36.85,-70.31 69.53,-39.42" fill="none" stroke="rgb(125, 134, 19)" stroke-width="2" stroke-linejoin="round" filter="url(#fuzzy)" /><polyline points="58.95,-58.04 50.16,-59.66 30.49,-61.24 10.69,-67.28 1.65,-73.44 2.53,-77.63 7.16,-79.94 10.52,-81.03 11.01,-81.14 9.46,-80.29 7.39,-78.6 5.91,-76.42 5.5,-73.99 6.11,-71.08 7.31,-67.26 8.47,-62.67 9.23,-58.88 9.56,-58.82 8.29,-65.32 0.58,-78.61 -10.83,-89.8" fill="none" stroke="rgb(125, 134, 19)" stroke-width="2" stroke-linejoin="round" filter="url(#fuzzy)" /><polyline points="-55.64,-62.63 -17.09,-67.28 12.63,-66.25 27.69,-67.56 33.64,-69.98 33.61,-72.62 29.42,-74.89 22.8,-76.2 15.78,-76.15 10.56,-74.78 8.99,-72.52 11.54,-70 16.63,-67.87 20.8,-66.81 20.31,-67.38 13.85,-69.61 4.56,-72.66 -1.52,-75.51 0.35,-78.48 30.23,-83.3" fill="none" stroke="rgb(125, 134, 19)" stroke-width="2" stroke-linejoin="round" filter="url(#fuzzy)" /><polyline points="71.25,-35.02 29.64,-59.46 9.37,-60.71 -3.62,-61.3 -5.36,-64.68 1.02,-69.2 9.45,-73.03 15.62,-75.69 18.12,-77.67 17.65,-79.46 15.49,-80.92 12.6,-81.34 9.81,-80.06 8.82,-76.93 12.08,-72.79 19.49,-69.69 23.06,-70.87 7.55,-78.34 -30.33,-83.45" fill="none" stroke="rgb(125, 134, 19)" stroke-width="2" stroke-linejoin="round" filter="url(#fuzzy)" /><polyline points="10.7,-90.06 -6.81,-80.72 -6.73,-75.52 -4.97,-71.62 -3.41,-68.86 -3.93,-68.08 -5.82,-69.39 -6.69,-72.06 -4.87,-75.13 -0.28,-77.73 6.13,-79.16 13.14,-79.05 19.45,-77.51 23.65,-75.17 24.35,-72.97 20.77,-71.67 13.34,-71.58 3.75,-72.45 -5.7,-73.72 -13,-74.78 -16.78,-75.21 -16.58,-75.09 -13.85,-75.53 -11.54,-78.98 8.14,-90.43" fill="none" stroke="rgb(125, 134, 19)" stroke-width="2" stroke-linejoin="round" filter="url(#fuzzy)" /><polyline points="35.68,-80.59 0.58,-69.13 18.17,-62.93 37.18,-57.79 42.77,-56.91 35.54,-60.07 22.8,-64.64 12.86,-68.34 10.06,-70.31 12.28,-70.61 13.01,-69.4 7.49,-66.59 -0.64,-62.16 1.8,-57.45 24.06,-58.46 29.16,-84.11" fill="none" stroke="rgb(125, 134, 19)" stroke-width="2" stroke-linejoin="round" filter="url(#fuzzy)" /><polyline points="65.56,-47.59 24.68,-70.57 18.4,-77.1 18.6,-78.8 18.37,-79.18 15.43,-79.01 10.5,-78.26 6.49,-77.14 5.96,-76.41 8.25,-76.85 9.3,-78.6 5.26,-80.86 -2.44,-82.15 -4.92,-80.05 12.1,-69.22 70.26,-37.08" fill="none" stroke="rgb(125, 134, 19)" stroke-width="2" stroke-linejoin="round" filter="url(#fuzzy)" /><polyline points="68.32,-42.12 4.98,-68.42 -12.4,-79.16 -11.92,-83.93 -8.66,-86.26 -7.87,-87.36 -9.08,-87.57 -10.2,-86.95 -9.95,-85.37 -8.5,-82.68 -6.93,-78.96 -6.23,-74.69 -6.56,-70.59 -7.3,-67.29 -8.52,-65.08 -13.85,-64.16 -31.83,-64.15 -57.52,-60.41" fill="none" stroke="rgb(125, 134, 19)" stroke-width="2" stroke-linejoin="round" filter="url(#fuzzy)" /><polyline points="-48.61,-70.73 20.16,-62.94 48.15,-56.33 58.47,-52.9 60.64,-52.89 58.37,-55.56 53.14,-59.45 45.73,-63.03 36.83,-65.4 27.5,-66.8 19.36,-68.41 14.71,-71.32 15.8,-75.19 23.28,-77.65 35.06,-75.9 46.65,-70.35 50.36,-68.66" fill="none" stroke="rgb(125, 134, 19)" stroke-width="2" stroke-linejoin="round" filter="url(#fuzzy)" /><polyline points="-20.56,-87.47 4.46,-87.37 9.41,-87.74 10.23,-86.63 11.29,-84.25 14.01,-81.04 19.36,-76.97 27.13,-72.24 35.28,-67.83 40.83,-65.19 41.27,-65.32 35.7,-68.21 25.03,-72.74 11.47,-77.14 -2.51,-79.69 -15.02,-79.5 -24.08,-77.04 -24.48,-73.67 -3.71,-68.66 61.86,-54.28" fill="none" stroke="rgb(125, 134, 19)" stroke-width="2" stroke-linejoin="round" filter="url(#fuzzy)" /><polyline points="-22.18,-86.9 -16.58,-86.7 -16.92,-82.99 -15.95,-81.06 -11.71,-81.43 -6.33,-82.26 -2.41,-82.28 -1.76,-81.28 -4.39,-79.59 -7.89,-77.6 -8.38,-75.68 -2.96,-74.14 8.16,-73.02 21.55,-71.84 32.56,-69.89 37.73,-66.94 36.01,-63.89 33.82,-59.54 71.25,-35.02" fill="none" stroke="rgb(125, 134, 19)" stroke-width="2" stroke-linejoin="round" filter="url(#fuzzy)" /><polyline points="15.82,-88.99 -15.02,-82.18 -20.5,-73.96 -6.1,-67.85 13.46,-64.37 27.78,-63.35 33.29,-64.35 31.14,-66.71 24.91,-69.33 18.69,-71.1 15.57,-71.39 16.73,-70.3 21.36,-68.51 27.4,-66.8 32.37,-65.72 34.23,-65.39 32.07,-65.65 26.95,-66.03 22.1,-65.75 21.24,-64.16 24.09,-62.1 22.06,-63.8 4.69,-75.28 -6.36,-90.24" fill="none" stroke="rgb(125, 134, 19)" stroke-width="2" stroke-linejoin="round" filter="url(#fuzzy)" /><polyline points="6.67,-90.23 7.58,-90.13 5.21,-89.23 -1.27,-87.82 -9.54,-85.99 -16.71,-83.65 -20.22,-80.85 -18.43,-77.7 -11.5,-74.26 -1.31,-70.58 9.49,-66.81 18.88,-63.2 26.11,-60.08 31.35,-57.81 34.71,-56.75 35.59,-57.17 32.8,-59.13 25.44,-62.39 13.56,-66.25 -1.77,-69.54 -18.82,-70.94 -35.06,-69.84 -46.48,-67.61 -47.89,-68.79 -34.24,-81.15" fill="none" stroke="rgb(125, 134, 19)" stroke-width="2" stroke-linejoin="round" filter="url(#fuzzy)" /><polyline points="-31.88,-82.54 13.08,-73.9 19.17,-78.51 19.43,-82.05 17.6,-83.14 13.15,-82.68 6.87,-81.37 -0.07,-79.6 -6.76,-77.55 -12.02,-75.27 -13.98,-72.86 -11.05,-70.67 -3.6,-69.33 5.29,-69.52 11.14,-71.46 11.1,-74.37 6.73,-76.51 4.44,-75.62 13.02,-69.41 39.27,-55.64 72.56,-31.1" fill="none" stroke="rgb(125, 134, 19)" stroke-width="2" stroke-linejoin="round" filter="url(#fuzzy)" /><polyline points="29.79,-83.71 22.85,-79.22 15.01,-74.01 9.58,-71.55 6.01,-71.97 5.37,-73.54 6.81,-74.94 8.66,-75.63 10.05,-75.52 10.89,-74.78 10.73,-73.7 8.52,-72.74 3.67,-72.38 -2.88,-72.93 -8.95,-74.25 -12.9,-75.74 -14.97,-76.52 -15.9,-75.93 -13.39,-73.87 -1.34,-71.14 19.28,-71.26 10.7,-90.06" fill="none" stroke="rgb(125, 134, 19)" stroke-width="2" stroke-linejoin="round" filter="url(#fuzzy)" /><polyline points="22.38,-86.85 -8.14,-74.25 -5.22,-73.62 1.62,-75.08 6.98,-75.57 8.98,-74.42 7.54,-72.5 4.17,-71.38 1.18,-72.14 0.54,-74.69 2.83,-77.95 7.49,-80.37 13.99,-80.72 22.07,-78.78 30.15,-76 33.32,-75.11 23.92,-78.36 -12.77,-89.53" fill="none" stroke="rgb(125, 134, 19)" stroke-width="2" stroke-linejoin="round" filter="url(#fuzzy)" /><polyline points="-16.83,-88.69 -21.25,-84.97 -24.43,-80.9 -25.78,-78.05 -25.49,-76.32 -23.4,-75.41 -20.38,-74.61 -17.33,-73.46 -14.44,-72.08 -11.25,-70.78 -7.29,-69.62 -2.66,-68.41 1.95,-66.99 5.59,-65.66 7.79,-65.02 8.91,-65.59 9.78,-67.35 10.79,-69.75 10.96,-72.24 8.01,-74.81 0.39,-77.8 -9.96,-80.97 -17.76,-82.91 -22.82,-81.3 -48.61,-70.73" fill="none" stroke="rgb(125, 134, 19)" stroke-width="2" stroke-linejoin="round" filter="url(#fuzzy)" /><polyline points="30.88,-82.91 -6.39,-76.32 0.89,-66.76 16.27,-62.5 23.91,-65.34 24.56,-71.6 22.79,-77.36 21.05,-80.76 19.77,-81.67 18.95,-80.7 18.42,-78.52 16.87,-75.64 11.92,-72.3 2.88,-68.34 -4.49,-63.26 3.02,-57.1 33.6,-52.93 54.26,-64.27" fill="none" stroke="rgb(125, 134, 19)" stroke-width="2" stroke-linejoin="round" filter="url(#fuzzy)" /><polyline points="64.47,-50 47.7,-56.96 20.75,-68.69 7.22,-72.22 9.09,-70.49 17.13,-69.03 21.92,-70.51 20.34,-74.05 15.51,-77.08 12.45,-77.67 13.16,-76.14 14.72,-74.82 12.1,-75.85 4.88,-77.88 4.92,-75.98 49.15,-69.93" fill="none" stroke="rgb(125, 134, 19)" stroke-width="2" stroke-linejoin="round" filter="url(#fuzzy)" /><polyline points="70.96,-35.76 60.92,-46.42 41.66,-59.99 28.24,-67.03 22.09,-67.75 17.26,-66.48 10.39,-66.49 2.73,-68.46 -2.79,-71.29 -4.51,-73.62 -2.77,-74.76 0.87,-74.94 4.64,-74.92 7.09,-75.41 7.21,-76.65 4.64,-78.28 0.08,-79.58 -4.26,-79.91 -5.02,-79.04 0.57,-77.21 12.43,-74.96 26.56,-72.8 37.81,-70.85 45.4,-68.89 46.06,-72.71" fill="none" stroke="rgb(125, 134, 19)" stroke-width="2" stroke-linejoin="round" filter="url(#fuzzy)" /><polyline points="58.95,-58.04 11.22,-65.82 1.6,-69.18 -0.32,-71.61 3.6,-73.57 9.94,-75.55 14.49,-77.65 15.58,-79.37 14.68,-79.92 14.89,-78.48 18.24,-74.55 23.59,-68.4 26.63,-61.6 23.08,-56.88 12.6,-56.94 -1.17,-62.84 -16.32,-73.52 -20.56,-87.47" fill="none" stroke="rgb(125, 134, 19)" stroke-width="2" stroke-linejoin="round" filter="url(#fuzzy)" /><polyline points="-48.61,-70.73 -47.95,-70.31 -43.51,-72.21 -39.67,-74.03 -36.08,-75.16 -30.26,-76.31 -21.84,-77.76 -12.84,-79.11 -5.77,-79.79 -1.77,-79.32 0.28,-77.56 2.84,-74.74 6.34,-71.59 5.84,-69.43 -1.22,-71.43 24.77,-86.02" fill="none" stroke="rgb(125, 134, 19)" stroke-width="2" stroke-linejoin="round" filter="url(#fuzzy)" /><polyline points="9.87,-90.03 41.27,-68.01 48.13,-57.64 36.05,-56.93 17.26,-60.04 3.75,-62.87 0.29,-64.07 4.31,-63.94 10.4,-63.43 14.53,-63.4 15.44,-64.44 13.54,-66.77 9.59,-70.28 4.48,-74.45 -0.49,-78.25 -3.74,-80.52 -4.21,-80.68 -1.55,-79.33 2.65,-77.48 -2.6,-74.07 -53.94,-64.87" fill="none" stroke="rgb(125, 134, 19)" stroke-width="2" stroke-linejoin="round" filter="url(#fuzzy)" /><polyline points="71.87,-33.57 33.28,-66.62 13.05,-74.63 13.44,-71.29 24.09,-65.6 32.76,-62.62 33.68,-63.36 28.29,-65.99 21.55,-68.25 17.58,-69.24 17.58,-69.47 20.33,-69.54 23.93,-69.13 26.77,-67.59 27.84,-65.13 29.69,-62.57 41.16,-60.12 54.26,-64.27" fill="none" stroke="rgb(125, 134, 19)" stroke-width="2" stroke-linejoin="round" filter="url(#fuzzy)" /><polyline points="-47.34,-71.45 -8.86,-80.41 -7.12,-79.58 -8.35,-74.5 -2.3,-70.72 6.73,-70.6 12.28,-73.25 11.41,-76.38 4.87,-78.15 -4.81,-78.02 -14.96,-76.51 -23.5,-74.6 -28.84,-73.12 -29.45,-72.46 -23.75,-72.59 -10.96,-73.34 6.96,-74.73 22.8,-77.12 23.81,-81.55 -1.31,-90.52" fill="none" stroke="rgb(125, 134, 19)" stroke-width="2" stroke-linejoin="round" filter="url(#fuzzy)" /><polyline points="54.26,-64.27 12.82,-65.84 23.83,-63.18 33.61,-61.74 32.61,-64.18 26.5,-68.43 20.64,-71.83 15.88,-73.71 11.36,-74.91 7.95,-76.31 8.09,-78.02 12.68,-79.72 18.76,-81.4 21.37,-83.5 18.15,-85.99 10.15,-87.88 -9.35,-89.9" fill="none" stroke="rgb(125, 134, 19)" stroke-width="2" stroke-linejoin="round" filter="url(#fuzzy)" /><polyline points="2.15,-90.82 24.43,-82.18 30.88,-77.95 28.25,-77.81 24.97,-78.74 23.49,-79.32 22.26,-79.28 19.31,-78.65 14.33,-77.38 8.79,-75.4 4.62,-72.94 2.93,-70.47 3.72,-68.46 6.5,-67.03 10.96,-65.85 16.73,-64.46 22.75,-62.81 27.11,-61.53 28.2,-61.58 26.02,-63.5 21.67,-66.81 14.22,-70.59 -0.56,-74.62 -21.67,-79.07 -23.93,-86.46" fill="none" stroke="rgb(125, 134, 19)" stroke-width="2" stroke-linejoin="round" filter="url(#fuzzy)" /><polyline points="61.74,-54.39 -4.18,-65.89 -19.86,-72.64 -15.79,-75.85 -5.28,-77.94 4.3,-79.61 10.21,-80.45 12.23,-79.85 10.75,-77.64 6.13,-74.26 -1.08,-70.53 -9.71,-67.27 -17.99,-64.99 -23.97,-63.73 -26.23,-63.16 -24.27,-62.89 -18.47,-62.82 -10.12,-63.41 -1.61,-65.38 3.79,-68.98 3.45,-73.3 -3.57,-76.24 -21.35,-74.27 -59.63,-57.5" fill="none" stroke="rgb(125, 134, 19)" stroke-width="2" stroke-linejoin="round" filter="url(#fuzzy)" /><polyline points="-58.16,-59.46 -30.06,-73.55 -10.69,-81.29 -5.89,-84.92 -7.82,-85.7 -9.67,-84.67 -8.9,-82.87 -6.26,-81.22 -3.41,-80.17 -1.06,-79.47 1.5,-78.37 5.6,-76.19 12.02,-72.83 20.13,-68.96 27.86,-65.83 32.47,-64.86 31.89,-67.02 26.39,-71.95 19.56,-77.35 17.43,-79.53 24.19,-76.06 34.08,-71.22 17.4,-88.19" fill="none" stroke="rgb(125, 134, 19)" stroke-width="2" stroke-linejoin="round" filter="url(#fuzzy)" /><polyline points="70.26,-37.08 10.06,-60.04 7.02,-67.25 9.85,-69.61 6.87,-71.57 1.07,-73.09 -3.63,-73.73 -6.2,-73.47 -6.89,-72.51 -4.88,-71.03 1.58,-69.31 12.79,-67.84 25.81,-67.44 35.81,-68.55 39.59,-70.3 36.1,-70.6 18.5,-69.76 -41.27,-76.53" fill="none" stroke="rgb(125, 134, 19)" stroke-width="2" stroke-linejoin="round" filter="url(#fuzzy)" /><polyline points="-1.32,-90.74 -1.95,-91.13 -3.27,-91.58 -4.76,-92.71 -6.18,-94.62 -7.48,-96.82 -8.74,-98.65 -10,-99.76 -11.28,-100.21 -12.59,-100.27 -13.93,-100.26 -15.31,-100.43 -16.76,-100.97 -18.29,-102.06 -19.78,-104.08 -20.5,-108.01 -32.11,-102.57 -29.21,-102.54 -27.1,-101.61 -25.58,-100.88 -24.3,-100.32 -23.04,-99.72 -21.73,-99.02 -20.37,-98.3 -19.02,-97.69 -17.68,-97.24 -16.36,-96.86 -15.02,-96.41 -13.65,-95.8 -12.28,-95.13 -10.95,-94.58 -9.69,-94.38 -8.54,-94.65 -7.45,-95.25 -6.32,-95.71 -5.01,-95.3 -3.48,-93.66 -2.02,-91.63 -1.32,-90.74" fill="none" stroke="rgb(125, 134, 19)" stroke-width="2" stroke-linejoin="round" filter="url(#fuzzy)" /><polyline points="-1.32,-90.74 -2.03,-92.6 -3.52,-94.53 -5.19,-97.23 -6.71,-99.75 -8.07,-101.58 -9.34,-102.69 -10.62,-103.23 -11.92,-103.36 -13.26,-103.29 -14.66,-103.34 -16.14,-103.76 -17.68,-104.58 -19.23,-105.62 -20.76,-106.58 -22.24,-107.36 -23.73,-108.16 -25.25,-109.27 -26.77,-110.72 -28.2,-112.12 -29.63,-113.13 -31.39,-113.4" fill="none" stroke="rgb(125, 134, 19)" stroke-width="2" stroke-linejoin="round" filter="url(#fuzzy)" /><polyline points="30.29,-111.34 27.81,-108.49 25.2,-106.11 22.85,-104.55 20.86,-103.55 19.2,-102.88 17.8,-102.51 16.56,-102.45 15.37,-102.6 14.17,-102.69 12.9,-102.51 11.59,-102 10.26,-101.36 8.94,-100.81 7.62,-100.39 6.27,-99.81 4.9,-98.71 3.55,-97.05 2.31,-95.33 1.18,-94.08 0,-92.97 -1.32,-90.74" fill="none" stroke="rgb(125, 134, 19)" stroke-width="2" stroke-linejoin="round" filter="url(#fuzzy)" /><polyline points="-1.31,-90.52 -3.15,-90.55 -4.73,-90.28 -5.97,-89.95 -7.02,-89.66 -8.01,-89.37 -9.05,-89.04 -10.12,-88.62 -11.21,-88.1 -12.29,-87.45 -13.33,-86.69 -14.34,-85.85 -15.31,-85.03 -16.28,-84.33 -17.25,-83.84 -18.24,-83.49 -19.16,-83.08 -19.9,-82.42 -20.77,-81.65" fill="none" stroke="rgb(125, 134, 19)" stroke-width="2" stroke-linejoin="round" filter="url(#fuzzy)" /><polyline points="20.1,-101.88 18.26,-101.51 16.98,-100.35 15.82,-98.98 14.6,-97.96 13.31,-97.39 12.03,-97.09 10.78,-96.82 9.56,-96.42 8.33,-95.86 7.07,-95.18 5.78,-94.49 4.49,-93.85 3.26,-93.27 2.13,-92.73 1.08,-92.18 0.06,-91.57 -0.87,-90.98 -1.31,-90.52" fill="none" stroke="rgb(125, 134, 19)" stroke-width="2" stroke-linejoin="round" filter="url(#fuzzy)" /><polyline points="-3.45,-90.79 -5.14,-92.56 -6.5,-93.79 -7.52,-94.02 -8.54,-94.01 -9.68,-94.15 -10.92,-94.49 -12.23,-94.96 -13.58,-95.48 -14.95,-96.04 -16.31,-96.62 -17.67,-97.21 -18.99,-97.72 -20.26,-98.02 -21.46,-98.05 -22.59,-97.97 -23.68,-98.15 -24.71,-98.83 -25.42,-99.62" fill="none" stroke="rgb(125, 134, 19)" stroke-width="2" stroke-linejoin="round" filter="url(#fuzzy)" /><polyline points="-3.45,-90.79 -5.03,-91.52 -6.27,-91.34 -7.26,-91.26 -8.28,-91.42 -9.4,-91.71 -10.61,-92.02 -11.87,-92.32 -13.13,-92.55 -14.38,-92.66 -15.59,-92.62 -16.77,-92.49 -17.93,-92.41 -19.11,-92.48 -20.32,-92.74 -21.51,-93.17 -22.64,-93.81 -23.65,-94.61 -24.22,-94.91 -30.28,-109.4 -28.02,-106.89 -26.46,-105.14 -25.16,-104.08 -23.9,-103.37 -22.57,-102.72 -21.18,-101.94 -19.73,-100.92 -18.24,-99.74 -16.74,-98.61 -15.28,-97.78 -13.88,-97.39 -12.57,-97.39 -11.3,-97.56 -10.08,-97.71 -8.93,-97.7 -7.85,-97.43 -6.73,-96.38 -5.25,-93.61 -3.45,-90.79" fill="none" stroke="rgb(125, 134, 19)" stroke-width="2" stroke-linejoin="round" filter="url(#fuzzy)" /><polyline points="-4.85,-90.59 -3.27,-86.08 -2.03,-86.01 -0.99,-86.94 -0.02,-87.48 0.94,-87.2 1.91,-86.29 2.92,-85.23 4,-84.45 5.11,-84.1 6.21,-84 7.26,-83.86 8.24,-83.42 9.18,-82.61 10.08,-81.56 10.96,-80.46 11.8,-79.45 12.6,-78.54 13.35,-77.64 14.13,-76.69 15.04,-75.72 16.14,-74.75 17.39,-73.65 18.68,-72.5" fill="none" stroke="rgb(125, 134, 19)" stroke-width="2" stroke-linejoin="round" filter="url(#fuzzy)" /><polyline points="16.27,-113.01 14.36,-108.81 12.83,-106.92 11.47,-106.39 10.21,-106.27 8.92,-105.89 7.55,-105.03 6.12,-103.81 4.68,-102.5 3.33,-101.48 2.08,-101 0.91,-101.04 -0.22,-101.16 -1.36,-100.72 -2.58,-99.25 -3.95,-96.74 -5.63,-93.3 -7.93,-90.39" fill="none" stroke="rgb(125, 134, 19)" stroke-width="2" stroke-linejoin="round" filter="url(#fuzzy)" /><polyline points="-7.51,-90.29 -6.93,-89.92 -6.28,-89.89 -5.19,-90 -3.91,-90.11 -2.63,-90.19 -1.45,-90.22 -0.36,-90.21 0.66,-90.14 1.66,-90 2.69,-89.76 3.8,-89.42 4.99,-89.03 6.19,-88.66 7.25,-88.33 8.16,-87.98 9.59,-87.53 -7.51,-90.29 -9.82,-93.42 -11.38,-96.35 -12.76,-97.29 -14.08,-97.33 -15.41,-97.32 -16.81,-97.75 -18.32,-98.85 -19.9,-100.42 -21.45,-101.95 -22.85,-102.9 -24.09,-103.12 -25.25,-102.93 -26.53,-102.9 -28.11,-103.44 -30.03,-104.64 -32.14,-106.19 -34.2,-107.49 -36.19,-107.8 -39.27,-108.04 -39.88,-109.72 -36.59,-108.98 -34.56,-108.63 -32.54,-107.46 -30.29,-105.34 -28.02,-102.74 -25.95,-100.16 -24.14,-97.99 -22.59,-96.47 -21.24,-95.72 -20.04,-95.66 -18.91,-96.03 -17.79,-96.43 -16.58,-96.5 -15.25,-96.02 -13.83,-95.02 -12.36,-93.69 -10.95,-92.3 -9.57,-91.06 -7.51,-90.29" fill="none" stroke="rgb(125, 134, 19)" stroke-width="2" stroke-linejoin="round" filter="url(#fuzzy)" /><polyline points="-9.35,-89.9 -11.66,-89.6 -13.06,-89.41 -14.23,-89.19 -15.35,-88.93 -16.42,-88.66 -17.46,-88.4 -18.48,-88.13 -19.46,-87.85 -20.4,-87.55 -21.3,-87.25 -22.22,-86.93 -23.28,-86.56 -24.54,-86.1 -25.87,-85.56 -26.53,-85.09 -9.35,-89.9 -9.3,-88.75 -8.3,-88.36 -7.3,-88.39 -6.29,-88.33 -5.18,-88.03 -3.97,-87.52 -2.75,-86.83 -1.59,-86.06 -0.52,-85.37 0.48,-84.91 1.42,-84.72 2.36,-84.61 3.37,-84.26 4.56,-83.45 5.96,-82.38 7.39,-82.1" fill="none" stroke="rgb(125, 134, 19)" stroke-width="2" stroke-linejoin="round" filter="url(#fuzzy)" /><polyline points="75.73,-16.19 76.84,-17.18 76.59,-18.86 76.32,-20.37 76.34,-21.7 76.55,-23 76.78,-24.36 76.96,-25.76 77.1,-27.23 77.24,-28.8 77.41,-30.45 77.53,-32.1 77.53,-33.63 77.34,-34.99 76.99,-36.26 76.61,-37.5 76.28,-38.75 76.23,-40.23 75.73,-16.19 73.27,-16.37 72.59,-17.88 72.59,-19.37 72.5,-20.55 72.09,-21.56 71.53,-22.57 71,-23.63 70.5,-24.72 69.86,-25.83 68.94,-26.9 67.79,-27.88 66.62,-28.74 65.61,-29.53 64.76,-30.39 63.96,-31.44" fill="none" stroke="rgb(125, 134, 19)" stroke-width="2" stroke-linejoin="round" filter="url(#fuzzy)" /><polyline points="75.73,-16.19 75.78,-16.99 75.9,-18.77 76.73,-20.59 78.09,-22.34 79.32,-24 79.94,-25.53 79.96,-26.96 79.7,-28.38 79.49,-29.91 79.54,-31.59 79.92,-33.4 80.57,-35.32 81.42,-37.31 82.38,-39.37 83.33,-41.47 84.15,-43.58 84.78,-45.69 85.24,-47.78 85.52,-49.86 85.57,-51.92 85.4,-54.11 85.31,-56.73 86.06,-59.72" fill="none" stroke="rgb(125, 134, 19)" stroke-width="2" stroke-linejoin="round" filter="url(#fuzzy)" /><polyline points="75.73,-16.19 77.76,-14.92 79.1,-13.49 79.15,-11.92 78.98,-10.37 79.22,-8.94 79.93,-7.62 80.97,-6.36 82.13,-5.08 83.26,-3.72 84.21,-2.28 84.91,-0.76 85.33,0.83 85.52,2.44 85.56,4.03 85.56,5.56 85.62,7.05 85.78,8.51 86.08,10.02 86.49,11.66 86.96,13.47 87.52,15.39 88.28,17.25 89.48,18.75 90.7,19.96" fill="none" stroke="rgb(125, 134, 19)" stroke-width="2" stroke-linejoin="round" filter="url(#fuzzy)" /><polyline points="-17.96,-88.06 -18.45,-90.7 -19.68,-91.65 -20.83,-91.72 -21.77,-91.16 -22.71,-90.49 -23.83,-90.14 -25.21,-90.26 -26.82,-90.81 -28.57,-91.67 -30.4,-92.71 -32.22,-93.83 -34,-94.99 -35.71,-96.16 -37.4,-97.35 -39.12,-98.51 -40.93,-99.53 -42.85,-100.25 -44.89,-100.57 -47,-100.51 -49.1,-100.22 -51.14,-99.95 -53.11,-99.87 -55.19,-99.97 -57.63,-99.11" fill="none" stroke="rgb(125, 134, 19)" stroke-width="2" stroke-linejoin="round" filter="url(#fuzzy)" /><polyline points="-20.91,-87.51 -21.04,-87.11 -21.68,-86.57 -22.62,-86.05 -23.76,-85.55 -24.97,-85.01 -26.15,-84.34 -27.26,-83.55 -28.28,-82.69 -29.2,-81.83 -29.99,-81.06 -30.67,-80.37 -31.31,-79.73 -31.97,-79.03 -32.76,-78.13 -33.78,-76.96 -35.14,-75.56 -36.87,-74.28 -20.91,-87.51 -21.18,-87.64 -22.01,-87.76 -23.09,-87.65 -24.32,-87.34 -25.63,-86.97 -26.96,-86.61 -28.26,-86.27 -29.49,-85.94 -30.63,-85.62 -31.66,-85.33 -32.62,-85.1 -33.61,-84.93 -34.72,-84.78 -36.01,-84.59 -37.5,-84.27 -39.14,-83.8 -40.82,-83.29 -42.45,-82.96 -43.92,-82.98 -44.88,-83.22 -20.56,-87.47 -21.85,-87.66 -23.03,-87.53 -24.59,-87.94 -26.49,-89.19 -28.51,-90.8 -30.4,-92.09 -31.97,-92.64 -33.25,-92.57 -34.35,-92.24 -35.46,-92.03 -36.7,-92.04 -38.11,-92.16 -39.68,-92.2 -41.38,-92.05 -43.14,-91.73 -44.95,-91.39 -46.77,-91.2 -48.57,-91.25 -50.32,-91.5 -51.97,-91.87 -53.57,-92.36 -55.45,-93.18 -58.26,-94.61 -64.44,-83.27 -62.52,-84.79 -60.46,-85.11 -58.45,-84.96 -56.49,-84.67 -54.58,-84.41 -52.72,-84.19 -50.96,-84 -49.34,-83.88 -47.85,-83.84 -46.42,-83.87 -44.96,-83.9 -43.38,-83.86 -41.65,-83.75 -39.83,-83.64 -38.03,-83.64 -36.42,-83.91 -35.14,-84.53 -34.24,-85.47 -33.58,-86.4 -32.86,-86.79 -31.69,-86.15 -29.91,-84.96 -27.59,-85.01 -51.87,-67.92 -51.63,-68.26 -50.81,-69.19 -49.85,-70.14 -48.88,-70.99 -47.9,-71.79 -46.91,-72.59 -45.92,-73.38 -44.96,-74.15 -44.03,-74.88 -43.12,-75.58 -42.18,-76.27 -41.19,-76.97 -40.11,-77.7 -38.93,-78.47 -37.65,-79.27 -36.34,-80.08 -35.06,-80.84 -33.9,-81.53 -32.92,-82.11 -32.11,-82.58 -31.4,-82.98 -30.65,-83.4 -29.54,-83.99 -27.59,-85.01 -11.89,-114.3 -14.63,-112.43 -16.14,-110.51 -17.36,-108.6 -18.46,-106.7 -19.48,-104.83 -20.46,-103.1 -21.43,-101.66 -22.38,-100.44 -23.29,-99.28 -24.15,-98.01 -24.99,-96.57 -25.86,-94.97 -26.76,-93.18 -27.64,-91.22 -28.52,-89.17 -29.45,-87.29 -30.46,-85.74 -31.27,-84.21 -31.68,-82.9 -31.68,-82.9 -30.85,-83.11 -29.66,-83.54 -28.26,-83.76 -26.77,-83.53 -25.23,-82.99 -23.74,-82.41 -22.38,-82.01 -21.18,-81.79 -20.08,-81.64 -19.03,-81.5 -18,-81.38 -16.98,-81.34 -15.96,-81.4 -14.95,-81.57 -13.92,-81.76 -12.87,-81.91 -11.79,-81.97 -10.68,-81.9 -9.55,-81.65 -8.44,-81.19 -7.38,-80.43 -6.45,-79.33 -5.62,-77.95 -4.09,-76.55" fill="none" stroke="rgb(125, 134, 19)" stroke-width="2" stroke-linejoin="round" filter="url(#fuzzy)" /><polyline points="-13.93,-82.03 -15.62,-82.35 -16.74,-83.01 -17.85,-83.52 -18.91,-83.79 -19.87,-83.79 -20.77,-83.52 -21.71,-83.1 -22.76,-82.66 -23.93,-82.33 -25.21,-82.16 -26.57,-82.16 -27.97,-82.29 -29.31,-82.44 -30.47,-82.51 -31.31,-82.44 -31.87,-82.31 -32.41,-82.37" fill="none" stroke="rgb(125, 134, 19)" stroke-width="2" stroke-linejoin="round" filter="url(#fuzzy)" /><polyline points="75.19,-19.75 75.81,-17.2 76.29,-15.82 76.71,-14.55 77.06,-13.18 77.36,-11.76 77.59,-10.34 77.75,-8.96 77.84,-7.62 77.9,-6.33 78,-5.03 78.13,-3.71 78.31,-2.33 78.49,-0.9 78.66,0.58 78.82,2.09 78.99,3.6 79.17,5.04 79.36,6.38 79.52,7.64 79.63,8.89 79.7,10.26 79.76,11.75 79.81,13.05" fill="none" stroke="rgb(125, 134, 19)" stroke-width="2" stroke-linejoin="round" filter="url(#fuzzy)" /><polyline points="75.19,-19.75 76.24,-21.22 76.26,-22.05 76.34,-23.15 76.86,-24.63 77.86,-26.41 79.05,-28.32 80.06,-30.26 80.72,-32.14 81.12,-33.95 81.46,-35.74 81.89,-37.56 82.41,-39.42 82.89,-41.29 83.16,-43.11 83.14,-44.84 82.94,-46.55 82.77,-48.37 82.89,-50.45 83.4,-52.87 84.21,-55.47 85.31,-57.67 86.36,-57.92" fill="none" stroke="rgb(125, 134, 19)" stroke-width="2" stroke-linejoin="round" filter="url(#fuzzy)" /><polyline points="-33.76,-81.32 -32.83,-82.25 -32.27,-82.97 -31.78,-83.85 -31.23,-85.08 -30.55,-86.58 -29.7,-88.11 -28.72,-89.52 -27.65,-90.79 -26.56,-92.01 -25.53,-93.26 -24.56,-94.54 -23.63,-95.72 -22.68,-96.7 -21.69,-97.46 -20.63,-98.12 -19.54,-98.86 -18.44,-99.83 -17.35,-101.05 -16.23,-102.42 -15.07,-103.89 -13.87,-105.38 -12.65,-106.75 -11.32,-107.6 -8.95,-107.58" fill="none" stroke="rgb(125, 134, 19)" stroke-width="2" stroke-linejoin="round" filter="url(#fuzzy)" /><polyline points="-33.76,-81.32 -34.83,-80.69 -36.26,-79.48 -37.43,-77.91 -38.33,-76.31 -39.11,-74.95 -39.86,-73.86 -40.56,-72.92 -41.19,-71.98 -41.8,-70.98 -42.47,-69.97 -43.21,-68.95 -43.92,-67.87 -44.46,-66.62 -44.79,-65.13 -45.07,-63.48 -45.5,-61.72 -46.05,-59.51" fill="none" stroke="rgb(125, 134, 19)" stroke-width="2" stroke-linejoin="round" filter="url(#fuzzy)" /><polyline points="-34.24,-81.15 -37.29,-81.42 -39.8,-82.04 -41.53,-81.97 -42.66,-81.22 -43.46,-80.13 -44.25,-79.14 -45.3,-78.59 -46.74,-78.6 -48.54,-79.07 -50.62,-79.82 -52.85,-80.69 -55.14,-81.55 -57.41,-82.28 -59.52,-82.74 -61.4,-82.82 -63.06,-82.6 -64.66,-82.31 -66.4,-82.21 -68.39,-82.28 -70.53,-82.14 -72.63,-81.37 -74.45,-80.1 -75.56,-79.35" fill="none" stroke="rgb(125, 134, 19)" stroke-width="2" stroke-linejoin="round" filter="url(#fuzzy)" /><polyline points="-34.24,-81.15 -36.15,-79.13 -37.41,-77.32 -38.55,-76.19 -39.61,-75.43 -40.6,-74.81 -41.51,-74.21 -42.38,-73.59 -43.22,-72.87 -44.06,-72.05 -44.87,-71.1 -45.65,-70.07 -46.41,-69 -47.16,-67.92 -47.92,-66.87 -48.7,-65.87 -49.47,-64.93 -50.18,-64.01 -50.8,-63.02 -51.34,-61.9 -51.94,-60.58 -52.69,-59.08 -53.49,-57.57 -53.84,-56.54" fill="none" stroke="rgb(125, 134, 19)" stroke-width="2" stroke-linejoin="round" filter="url(#fuzzy)" /><polyline points="-38.89,-78.35 -36.65,-78.78 -34.71,-79.07 -33.45,-79.83 -32.62,-80.74 -31.92,-81.48 -31.16,-81.94 -30.24,-82.14 -29.14,-82.18 -27.91,-82.16 -26.62,-82.2 -25.33,-82.37 -24.1,-82.66 -22.94,-83.01 -21.85,-83.36 -20.83,-83.64 -19.84,-83.83 -18.85,-83.92 -17.84,-83.93 -16.8,-83.93 -15.75,-83.92 -14.67,-83.91 -13.56,-83.81 -12.53,-83.52 -11.98,-82.93 -38.89,-78.35 -38.4,-75.12 -39.08,-74.03 -39.75,-73.06 -40.4,-72.15 -41.07,-71.34 -41.71,-70.42 -42.26,-69.22 -42.72,-67.8 -43.17,-66.34 -43.69,-64.99 -44.28,-63.81 -44.94,-62.75 -45.62,-61.73 -46.25,-60.73 -46.77,-59.72 -47.06,-58.62 -47.05,-57.26 -46.85,-55.37 -47.06,-52.97" fill="none" stroke="rgb(125, 134, 19)" stroke-width="2" stroke-linejoin="round" filter="url(#fuzzy)" /><polyline points="-18.89,-111.24 -20.68,-109.14 -21.79,-108.07 -22.83,-106.83 -23.84,-105.58 -24.83,-104.45 -25.83,-103.37 -26.82,-102.07 -27.76,-100.35 -28.61,-98.15 -29.38,-95.63 -30.08,-93.07 -30.77,-90.73 -31.45,-88.76 -32.13,-87.22 -32.83,-86.05 -33.61,-85.16 -34.56,-84.51 -35.76,-84.05 -37.26,-83.74 -38.95,-83.45 -40.5,-82.77 -41.39,-81.09 -41.41,-78.35 -41.27,-76.53 -41.27,-76.53 -42.9,-76.02 -43.9,-75.83 -44.73,-75.19 -45.64,-74.32 -46.69,-73.51 -47.88,-72.91 -49.21,-72.53 -50.66,-72.33 -52.21,-72.25 -53.86,-72.26 -55.58,-72.38 -57.36,-72.57 -59.11,-72.7 -60.75,-72.56 -62.24,-72.04 -63.57,-71.21 -64.79,-70.29 -65.92,-69.53 -67.13,-69.02 -68.79,-68.45 -71.58,-67.14 -43.43,-74.68 -42.07,-76.2 -41.17,-77.42 -40.33,-78.83 -39.48,-80.63 -38.66,-82.81 -37.89,-85.15 -37.18,-87.31 -36.51,-89.1 -35.87,-90.5 -35.23,-91.66 -34.55,-92.74 -33.76,-93.86 -32.82,-95.07 -31.77,-96.44 -30.72,-98.04 -29.66,-100.03 -28.35,-102.29 -26.33,-103.15 -43.43,-74.68 -41.6,-75.32 -40.34,-75.78 -38.98,-76.04 -37.47,-76.26 -35.91,-76.6 -34.44,-77.05 -33.12,-77.49 -31.95,-77.75 -30.89,-77.78 -29.9,-77.66 -28.95,-77.57 -27.97,-77.6 -26.87,-77.63 -25.6,-77.4 -24.13,-76.7 -22.52,-75.66 -20.75,-74.7 -18.79,-73.61 -26.73,-85.38 -27.04,-85.08 -28.05,-84.59 -29.23,-84.03 -30.27,-83.51 -31.13,-83.06 -31.88,-82.63 -32.64,-82.17 -33.54,-81.63 -34.62,-80.99 -35.88,-80.25 -37.25,-79.42 -38.61,-78.55 -39.83,-77.69 -40.9,-76.85 -41.95,-75.96 -43.43,-74.68" fill="none" stroke="rgb(125, 134, 19)" stroke-width="2" stroke-linejoin="round" filter="url(#fuzzy)" /><polyline points="74.81,-21.46 75.26,-19.4 75.65,-17.5 75.99,-15.98 76.34,-14.6 76.71,-13.23 77.02,-11.83 77.26,-10.43 77.41,-9.05 77.5,-7.73 77.56,-6.45 77.61,-5.19 77.65,-3.9 77.69,-2.56 77.73,-1.15 77.81,0.32 77.92,1.86 78.06,3.46 78.21,5.01 78.32,6.3 78.34,7.11" fill="none" stroke="rgb(125, 134, 19)" stroke-width="2" stroke-linejoin="round" filter="url(#fuzzy)" /><polyline points="-45.11,-73.26 -44.17,-74.27 -43.45,-74.95 -42.74,-75.62 -41.96,-76.37 -41.05,-77.2 -40,-78.1 -38.83,-79.06 -37.61,-80.1 -36.42,-81.2 -35.32,-82.29 -34.36,-83.3 -33.51,-84.19 -32.72,-84.97 -31.93,-85.68 -31.06,-86.4 -30.08,-87.17 -28.99,-88 -27.83,-88.89 -26.61,-89.84 -25.31,-90.78 -24.06,-91.63 -23.49,-92.34" fill="none" stroke="rgb(125, 134, 19)" stroke-width="2" stroke-linejoin="round" filter="url(#fuzzy)" /><polyline points="-34.82,-90.15 -35.44,-89.31 -36.29,-88.02 -37.5,-86.77 -38.95,-85.69 -40.39,-84.62 -41.61,-83.42 -42.56,-82.07 -43.3,-80.67 -43.89,-79.28 -44.41,-77.93 -44.92,-76.62 -45.51,-75.34 -46.23,-74.09 -47.03,-72.89 -47.76,-71.79 -48.41,-70.85 -49.64,-69.78" fill="none" stroke="rgb(125, 134, 19)" stroke-width="2" stroke-linejoin="round" filter="url(#fuzzy)" /><polyline points="-50.12,-68.92 -51.85,-68.39 -53.98,-69.13 -56.37,-70.29 -58.63,-71.16 -60.4,-71.21 -61.58,-70.38 -62.35,-69.03 -63.04,-67.64 -63.95,-66.55 -65.28,-65.91 -67.1,-65.76 -69.35,-65.99 -71.77,-66.33 -74.07,-66.48 -76.01,-66.17 -77.6,-65.36 -79.04,-64.26 -80.62,-63.18 -82.47,-62.3 -84.46,-61.57 -86.32,-60.78 -87.97,-59.9 -89.7,-59.27 -92.76,-59.56 -53.94,-64.87 -54.24,-65.83 -55.35,-65.54 -56.4,-64.4 -57.4,-63.23 -58.46,-62.43 -59.69,-61.99 -61.13,-61.79 -62.77,-61.72 -64.55,-61.71 -66.34,-61.69 -68.07,-61.56 -69.73,-61.21 -71.44,-60.64 -73.35,-59.92 -75.33,-59.27 -76.38,-58.74" fill="none" stroke="rgb(125, 134, 19)" stroke-width="2" stroke-linejoin="round" filter="url(#fuzzy)" /><polyline points="-53.94,-64.87 -52.57,-66.75 -51.95,-68.3 -51.23,-69.58 -50.38,-70.67 -49.55,-71.75 -48.79,-72.93 -48.1,-74.22 -47.43,-75.58 -46.8,-76.97 -46.21,-78.34 -45.65,-79.67 -45.04,-80.91 -44.31,-82.05 -43.43,-83.13 -42.38,-84.27 -41.16,-85.56 -39.74,-87.05 -38.21,-88.5 -37.19,-89.58" fill="none" stroke="rgb(125, 134, 19)" stroke-width="2" stroke-linejoin="round" filter="url(#fuzzy)" /><polyline points="-53.94,-64.87 -54.45,-66.06 -55.56,-65.67 -56.9,-64.82 -58.51,-64.29 -60.51,-64.41 -62.83,-65.01 -65.11,-65.59 -67.01,-65.72 -68.37,-65.25 -69.29,-64.26 -70.04,-63.01 -70.91,-61.74 -72.1,-60.62 -73.68,-59.72 -75.62,-59.06 -77.92,-58.67 -80.65,-58.59 -83.81,-58.81 -87.14,-59.19 -90.08,-59.49 -92.62,-59.47 -53.94,-64.87 -53.71,-65.16 -54.42,-64.33 -55.41,-63.14 -56.37,-61.99 -57.22,-61 -57.98,-60.1 -58.72,-59.21 -59.45,-58.3 -60.18,-57.36 -60.93,-56.4 -61.69,-55.4 -62.49,-54.35 -63.31,-53.22 -64.16,-52.05 -65.03,-50.86 -65.89,-49.71 -66.74,-48.6 -67.53,-47.53 -68.23,-46.49 -68.8,-45.55 -69.32,-44.83 -69.99,-44.55" fill="none" stroke="rgb(125, 134, 19)" stroke-width="2" stroke-linejoin="round" filter="url(#fuzzy)" /><polyline points="82.55,-46.81 81.61,-45.27 80.85,-43.24 79.87,-41.07 79.07,-39.08 78.68,-37.36 78.68,-35.88 79,-34.53 79.47,-33.17 79.84,-31.7 79.94,-30.12 79.84,-28.53 79.83,-27.04 79.98,-25.49 79.36,-23.61 74.79,-21.43 74.79,-21.43 74.35,-22.12 73.12,-23.28 71.88,-24.3 70.92,-25.32 70.24,-26.5 69.84,-27.82 69.63,-29.2 69.44,-30.5 69.09,-31.67 68.43,-32.67 67.47,-33.53 66.29,-34.29 65.07,-35.05 63.93,-35.87 62.94,-36.76 62.04,-37.72 61.13,-38.71 60.18,-39.6 59.26,-40.05 58.39,-39.17" fill="none" stroke="rgb(125, 134, 19)" stroke-width="2" stroke-linejoin="round" filter="url(#fuzzy)" /><polyline points="-82.94,-46.93 -81.49,-48.82 -80.21,-49.97 -79.15,-50.82 -78.12,-51.56 -77,-52.31 -75.83,-53.14 -74.61,-54.02 -73.26,-54.88 -71.68,-55.61 -69.84,-56.15 -67.82,-56.52 -65.8,-56.8 -63.98,-57.07 -62.49,-57.48 -61.4,-58.19 -60.68,-59.28 -60.13,-60.59 -59.3,-61.41 -57.52,-60.41" fill="none" stroke="rgb(125, 134, 19)" stroke-width="2" stroke-linejoin="round" filter="url(#fuzzy)" /><polyline points="-40.97,-71.85 -42.08,-71.25 -43.3,-70.59 -44.55,-70.01 -45.72,-69.48 -46.8,-68.94 -47.83,-68.33 -48.84,-67.65 -49.84,-66.95 -50.8,-66.27 -51.71,-65.6 -52.58,-64.9 -53.45,-64.11 -54.39,-63.16 -55.4,-62.05 -56.39,-60.97 -57.17,-60.29 -57.53,-60.08" fill="none" stroke="rgb(125, 134, 19)" stroke-width="2" stroke-linejoin="round" filter="url(#fuzzy)" /><polyline points="-61.48,-54.58 -63.41,-59.36 -63.33,-61.28 -63.14,-62.98 -62.82,-64.43 -62.33,-65.72 -61.73,-67.01 -61.02,-68.33 -60.2,-69.58 -59.32,-70.74 -58.52,-71.94 -57.92,-73.37 -57.58,-75.15 -57.39,-77.21 -57.19,-79.31 -56.76,-81.13 -55.99,-82.51 -54.92,-83.54 -53.79,-84.62 -52.93,-86.23 -52.58,-88.48 -52.63,-90.55 -52.91,-90.98" fill="none" stroke="rgb(125, 134, 19)" stroke-width="2" stroke-linejoin="round" filter="url(#fuzzy)" /><polyline points="60.86,-42.23 62.02,-41.23 63.09,-39.96 64.1,-38.89 65.01,-37.9 65.87,-36.92 66.71,-35.93 67.5,-34.94 68.18,-33.91 68.7,-32.83 69.1,-31.71 69.54,-30.57 70.17,-29.44 71,-28.3 71.88,-27.15 72.59,-26.03 73.1,-24.93 73.65,-23.51 74.97,-21.25" fill="none" stroke="rgb(125, 134, 19)" stroke-width="2" stroke-linejoin="round" filter="url(#fuzzy)" /><polyline points="-56.84,-79.89 -56.65,-77.4 -56.99,-75.51 -57.53,-74.13 -58.11,-72.95 -58.59,-71.64 -58.91,-69.97 -59.1,-68.01 -59.27,-66.01 -59.55,-64.26 -60,-62.87 -60.61,-61.76 -61.3,-60.74 -61.99,-59.69 -62.63,-58.64 -62.99,-57.5 -62.6,-55.85 -62.25,-53.62" fill="none" stroke="rgb(125, 134, 19)" stroke-width="2" stroke-linejoin="round" filter="url(#fuzzy)" /><polyline points="-64.16,-49.74 -60.7,-49.58 -59.94,-51.15 -59.49,-52.5 -58.76,-53.34 -57.79,-53.88 -56.72,-54.34 -55.65,-54.83 -54.68,-55.38 -53.8,-56 -52.92,-56.63 -51.83,-57.17 -50.36,-57.44 -48.53,-57.29 -46.63,-56.74 -44.97,-56.15 -43.1,-56.44 -64.16,-49.74 -67.52,-51.23 -69.36,-51.04 -70.3,-50.11 -70.63,-48.77 -70.86,-47.42 -71.39,-46.25 -72.39,-45.31 -73.76,-44.5 -75.28,-43.72 -76.75,-42.88 -78.11,-41.97 -79.46,-41.04 -80.96,-40.15 -82.7,-39.33 -84.66,-38.59 -86.82,-37.94 -89.16,-37.39 -91.64,-36.94 -93.98,-36.48 -95.75,-35.87 -96.71,-35.24 -96.66,-34.83" fill="none" stroke="rgb(125, 134, 19)" stroke-width="2" stroke-linejoin="round" filter="url(#fuzzy)" /><polyline points="-64.16,-49.74 -63.41,-51.86 -63.38,-54.15 -63.79,-56.38 -64.08,-58.3 -64.03,-59.88 -63.66,-61.19 -63.04,-62.31 -62.25,-63.24 -61.31,-64.03 -60.33,-64.84 -59.4,-65.87 -58.64,-67.23 -58.1,-68.83 -57.75,-70.49 -57.53,-72.08 -57.32,-73.64 -56.94,-75.2 -55.7,-76.59 -64.46,-49.58 -65.63,-48.28 -66.98,-47.56 -68.07,-46.78 -68.8,-45.87 -69.45,-44.91 -70.28,-43.96 -71.35,-43.04 -72.59,-42.13 -73.79,-41.19 -74.8,-40.18 -75.56,-39.05 -76.13,-37.82 -76.69,-36.55 -77.37,-35.33 -78.25,-34.24 -79.29,-33.29 -80.38,-32.43 -81.41,-31.63 -82.33,-30.89 -83.24,-30.28 -84.26,-29.87 -85.77,-29.33 -65.63,-47.78 -66.74,-45.75 -67.4,-44.76 -68.12,-44.02 -69.08,-43.26 -70.43,-42.51 -72.12,-41.83 -73.92,-41.22 -75.48,-40.54 -76.66,-39.67 -77.61,-38.62 -78.7,-37.56 -80.2,-36.65 -82.08,-35.93 -83.9,-35.27 -85.22,-34.53 -86.1,-33.49 -87.42,-31.06" fill="none" stroke="rgb(125, 134, 19)" stroke-width="2" stroke-linejoin="round" filter="url(#fuzzy)" /><polyline points="-67.31,-44.41 -65.97,-46.39 -65.11,-47.59 -64.38,-48.72 -63.62,-49.9 -62.74,-51.05 -61.71,-52.05 -60.54,-52.8 -59.27,-53.32 -57.96,-53.69 -56.67,-54.04 -55.5,-54.44 -54.47,-54.93 -53.55,-55.46 -52.62,-55.98 -51.56,-56.54 -50.27,-57.28 -48.76,-58.23 -47.27,-59.12" fill="none" stroke="rgb(125, 134, 19)" stroke-width="2" stroke-linejoin="round" filter="url(#fuzzy)" /><polyline points="74.15,-24.37 74.55,-25.91 74.79,-26.87 74.68,-28.19 74.54,-29.77 74.51,-31.34 74.54,-32.81 74.6,-34.24 74.77,-35.72 75.09,-37.34 75.48,-39.05 75.74,-40.75 75.74,-42.36 75.64,-43.91 75.83,-45.42 77.06,-46.51" fill="none" stroke="rgb(125, 134, 19)" stroke-width="2" stroke-linejoin="round" filter="url(#fuzzy)" /><polyline points="74.15,-24.37 74.31,-22.37 73.88,-21.23 72.82,-19.95 71.59,-18.38 70.64,-16.74 70.14,-15.21 69.93,-13.79 69.81,-12.44 69.64,-11.09 69.4,-9.75 69.03,-8.42 68.41,-7.16 67.43,-5.99 66.09,-4.91 64.58,-3.85 63.4,-3.05 74.15,-24.37 74.73,-22.46 75.04,-21.48 75.37,-20.45 75.75,-19.18 76.11,-17.76 76.43,-16.3 76.78,-14.86 77.18,-13.43 77.65,-12.02 78.16,-10.63 78.65,-9.28 79.06,-7.95 79.33,-6.65 79.47,-5.34 79.52,-4 79.57,-2.61 79.68,-1.16 79.86,0.36 80.12,1.94 80.46,3.55 80.9,5.11 81.43,6.49 81.88,7.6 81.99,8.61" fill="none" stroke="rgb(125, 134, 19)" stroke-width="2" stroke-linejoin="round" filter="url(#fuzzy)" /><polyline points="-66.64,-75.01 -67.77,-73.17 -67.94,-71.67 -67.94,-70.14 -67.96,-68.44 -68.04,-66.66 -68.16,-64.9 -68.35,-63.22 -68.62,-61.58 -68.93,-59.91 -69.19,-58.13 -69.28,-56.18 -69.12,-54.08 -68.73,-51.89 -68.24,-49.74 -67.81,-47.76 -67.57,-46.07 -67.56,-44.72 -67.75,-43.69 -68.05,-42.77 -68.29,-41.48 -68.29,-41.48 -70.12,-39.99 -72.14,-39.4 -74.18,-39.14 -76.29,-38.83 -78.27,-38.32 -79.85,-37.55 -80.84,-36.52 -81.32,-35.29 -81.53,-34.01 -81.87,-32.82 -82.67,-31.83 -84.14,-31.06 -86.23,-30.35 -88.64,-29.43 -90.92,-27.99 -92.73,-25.96 -94.27,-23.69 -96.02,-21.73 -96.94,-19.4" fill="none" stroke="rgb(125, 134, 19)" stroke-width="2" stroke-linejoin="round" filter="url(#fuzzy)" /><polyline points="-68.65,-10.09 -68.68,-11.24 -68.86,-12.53 -69.36,-13.81 -69.93,-15.1 -70.34,-16.47 -70.51,-18.02 -70.47,-19.69 -70.3,-21.36 -70.08,-22.92 -69.85,-24.3 -69.67,-25.52 -69.55,-26.63 -69.47,-27.72 -69.39,-28.82 -69.3,-29.97 -69.18,-31.19 -69.08,-32.5 -69.07,-33.88 -69.14,-35.29 -69.19,-36.61 -69.1,-37.83 -68.83,-39.31 -68.29,-41.48 -74.75,-68.35 -75.23,-65.41 -74.91,-62.32 -73.74,-58.99 -72.35,-55.81 -71.2,-53.05 -70.45,-50.75 -70.09,-48.87 -70.02,-47.34 -70.13,-46.03 -70.29,-44.78 -70.43,-43.37 -70.49,-41.69 -70.48,-39.86 -70.37,-38.5 -69.77,-39.03 -71.29,-34.66 -70.81,-35.92 -70.33,-37.08 -69.85,-38.15 -69.31,-39.34 -68.75,-40.61 -68.19,-41.85 -67.65,-43 -67.12,-44.08 -66.55,-45.11 -65.93,-46.14 -65.24,-47.19 -64.49,-48.27 -63.68,-49.39 -62.85,-50.54 -62.01,-51.69 -61.21,-52.82 -60.45,-53.9 -59.73,-54.91 -59.04,-55.89 -58.31,-56.89 -57.53,-57.9 -56.78,-58.78 -56.45,-59.28" fill="none" stroke="rgb(125, 134, 19)" stroke-width="2" stroke-linejoin="round" filter="url(#fuzzy)" /><polyline points="-71.88,-32.77 -71.04,-34.2 -70.19,-35.39 -69.29,-36.34 -68.28,-37.16 -67.17,-37.98 -66.12,-38.9 -65.31,-39.93 -64.77,-41.04 -64.39,-42.16 -64,-43.24 -63.49,-44.27 -62.8,-45.23 -61.98,-46.17 -61.04,-47.11 -60.01,-48.04 -58.93,-48.96 -57.83,-49.81 -56.75,-50.51 -55.71,-51 -54.85,-51.35 -54.53,-51.15 -71.95,-32.72 -72.52,-30.84 -72.81,-29.68 -73.04,-28.73 -73.3,-27.79 -73.58,-26.75 -73.89,-25.51 -74.23,-24.01 -74.59,-22.31 -74.93,-20.55 -75.25,-18.88 -75.51,-17.39 -75.73,-16.07 -75.92,-14.86 -76.11,-13.67 -76.3,-12.5 -76.48,-11.36 -76.62,-10.23 -76.72,-9.11 -76.8,-8.49 -71.95,-32.72 -71.71,-30.54 -71.47,-29.17 -71.43,-28.15 -71.31,-27.11 -71.05,-25.95 -70.69,-24.6 -70.29,-22.98 -69.84,-21.12 -69.37,-19.19 -68.98,-17.4 -68.81,-15.92 -68.84,-14.73 -68.88,-13.66 -68.57,-12.45 -67.78,-11.08 -66.98,-9.85" fill="none" stroke="rgb(125, 134, 19)" stroke-width="2" stroke-linejoin="round" filter="url(#fuzzy)" /><polyline points="-72.82,-30.22 -73.04,-32.3 -72.77,-33.61 -72.19,-34.76 -71.58,-35.92 -71.09,-37.1 -70.7,-38.34 -70.37,-39.67 -70.1,-41.1 -69.91,-42.58 -69.83,-44.05 -69.81,-45.47 -69.79,-46.86 -69.66,-48.21 -69.38,-49.56 -69.02,-50.94 -68.7,-52.4 -68.47,-54.05 -68.2,-56.27 -72.96,-28.72 -72.91,-30.4 -72.97,-32.07 -73.06,-33.61 -73,-35.05 -72.82,-36.41 -72.67,-37.79 -72.7,-39.28 -72.93,-40.98 -73.3,-42.85 -73.63,-44.72 -73.72,-46.36 -73.49,-47.64 -73.04,-48.7 -72.69,-49.93 -72.86,-51.68 -74.09,-53.45" fill="none" stroke="rgb(125, 134, 19)" stroke-width="2" stroke-linejoin="round" filter="url(#fuzzy)" /><polyline points="57.28,-39.74 57.9,-38.5 59.24,-37.51 60.82,-36.88 62.44,-36.38 63.99,-35.86 65.49,-35.28 66.91,-34.64 68.18,-33.94 69.2,-33.12 69.84,-32.16 70.03,-30.99 69.73,-29.54 69.05,-27.77 68.52,-25.9 69.41,-24.95 73.62,-27.2 74.14,-24.37 73.85,-25.19 73.51,-24.06 73.18,-22.6 73.03,-21.27 72.99,-20.01 72.83,-18.66 72.44,-17.19 71.88,-15.65 71.31,-14.14 70.84,-12.68 70.41,-11.26 69.88,-9.86 69.18,-8.5 68.38,-7.2 67.7,-6 67.33,-4.92 67.15,-3.88 66.74,-2.77 65.49,-1.37" fill="none" stroke="rgb(125, 134, 19)" stroke-width="2" stroke-linejoin="round" filter="url(#fuzzy)" /><polyline points="72.56,-31.1 73.12,-30.21 74.09,-28.63 75.23,-27.36 76.24,-26.28 76.99,-25.18 77.58,-24.02 78.22,-22.84 79.09,-21.65 80.2,-20.46 81.46,-19.22 82.66,-17.92 83.64,-16.53 84.34,-15.06 84.83,-13.53 85.35,-11.97 86.15,-10.46 87.32,-9.04 88.78,-7.71 90.29,-6.42 91.65,-5.07 92.77,-3.54 93.5,-1.68 93.19,0.62" fill="none" stroke="rgb(125, 134, 19)" stroke-width="2" stroke-linejoin="round" filter="url(#fuzzy)" /><polyline points="69.89,-1.46 70.13,-2.91 70.59,-4.1 70.94,-5.22 71.19,-6.34 71.41,-7.55 71.58,-8.83 71.69,-10.17 71.73,-11.55 71.75,-12.94 71.83,-14.36 72,-15.81 72.23,-17.26 72.46,-18.68 72.61,-20.03 72.62,-21.3 72.48,-22.51 72.25,-23.7 72.05,-24.94 71.99,-26.34 72.09,-27.94 72.24,-29.66 72.26,-31.06 71.97,-31.82 93.11,-19.91 93.13,-20.76 90.49,-22.15 87.44,-23.19 85.2,-24.09 84,-25.13 83.48,-26.38 83.11,-27.69 82.53,-28.94 81.61,-30.15 80.42,-31.36 79.09,-32.52 77.65,-33.48 76,-34.18 74.13,-34.77 71.25,-35.02" fill="none" stroke="rgb(125, 134, 19)" stroke-width="2" stroke-linejoin="round" filter="url(#fuzzy)" /><polyline points="70.96,-35.76 70.78,-37.41 71.08,-39.26 71.17,-40.94 71.05,-42.53 70.95,-44.18 70.98,-45.91 71.04,-47.63 71.04,-49.29 70.96,-50.93 70.91,-52.59 70.95,-54.3 71.1,-56.04 71.29,-57.76 71.43,-59.45 71.39,-61.07 71.05,-62.61 70.41,-64.12 69.63,-65.77 68.99,-67.75 68.76,-70.08 69.19,-72.91 69.62,-39.22 70.26,-37.5 70.88,-36.19 71.57,-35.07 72.47,-34.08 73.61,-33.19 74.9,-32.29 76.23,-31.32 77.52,-30.27 78.72,-29.16 79.83,-28.03 80.85,-26.88 81.77,-25.71 82.6,-24.51 83.33,-23.24 84.02,-21.89 84.76,-20.46 85.71,-19.01 86.9,-17.56 88.2,-16.12 89.32,-14.62 90.1,-13 90.75,-11.26 91.82,-9.4 93.73,-7.28" fill="none" stroke="rgb(125, 134, 19)" stroke-width="2" stroke-linejoin="round" filter="url(#fuzzy)" /><polyline points="68.32,-42.12 69,-43.29 68.95,-44.97 68.67,-46.4 68.57,-47.9 68.58,-49.54 68.43,-51.06 67.98,-52.29 67.34,-53.29 66.72,-54.28 66.34,-55.5 66.24,-57.06 66.32,-58.93 66.38,-60.98 66.26,-63.04 65.88,-64.97 65.33,-66.75 64.82,-68.52 64.63,-70.53 64.88,-72.86 64.72,-74.28" fill="none" stroke="rgb(125, 134, 19)" stroke-width="2" stroke-linejoin="round" filter="url(#fuzzy)" /><polyline points="67.65,-76.39 66.8,-72.91 66.85,-70.64 67.04,-68.49 67.27,-66.32 67.58,-64.21 67.83,-62.2 67.88,-60.22 67.68,-58.26 67.27,-56.31 66.81,-54.44 66.47,-52.71 66.37,-51.12 66.58,-49.68 67.04,-48.38 67.61,-47.23 68.02,-46.1 68.12,-44.43 68.54,-41.37" fill="none" stroke="rgb(125, 134, 19)" stroke-width="2" stroke-linejoin="round" filter="url(#fuzzy)" /><polyline points="66.25,-45.97 66.31,-46.17 65.76,-47.46 65.16,-48.85 64.63,-50.04 64.13,-51.07 63.62,-52.05 63.1,-53.07 62.54,-54.18 61.95,-55.41 61.3,-56.71 60.6,-58.07 59.87,-59.41 59.15,-60.72 58.46,-61.95 57.84,-63.11 57.28,-64.2 56.74,-65.25 56.16,-66.34 55.47,-67.54 54.61,-68.86 53.66,-70.24 52.88,-71.37 52.58,-71.69 88.37,-29.05 86.56,-32.06 85.31,-34.3 83.81,-35.58 82.08,-36.37 80.25,-37 78.42,-37.62 76.69,-38.3 75.21,-39.11 74.07,-40.12 73.28,-41.33 72.75,-42.7 72.36,-44.18 72.02,-45.7 71.72,-47.17 71.5,-48.42 70.84,-49.12 65.56,-47.59 60.25,-56.59 59.93,-58.64 59.62,-60.46 60.01,-62.91 60.69,-65.54 61.09,-67.73 60.95,-69.27 60.38,-70.43 59.62,-71.54 58.8,-72.79 57.98,-74.12 57.12,-75.4 56.22,-76.58 55.37,-77.76 54.63,-79.11 54.05,-80.75 53.58,-82.68 53.15,-84.84 52.71,-87.12 52.19,-89.36 51.62,-91.33 51.26,-92.88 51.86,-94.07 57.36,-60.44 58.16,-59.27 58.75,-57.71 59.26,-56.02 59.77,-54.48 60.21,-53.09 60.49,-51.78 60.58,-50.45 60.52,-49.08 60.42,-47.68 60.38,-46.27 60.48,-44.9 60.73,-43.63 61.08,-42.43 61.46,-41.27 61.86,-40.08 62.32,-38.88 62.79,-37.66 62.97,-36.39 62.46,-35.19" fill="none" stroke="rgb(125, 134, 19)" stroke-width="2" stroke-linejoin="round" filter="url(#fuzzy)" /><polyline points="67.69,-38.13 67.52,-39 67.04,-40.21 66.55,-41.52 66.08,-42.83 65.63,-44.07 65.17,-45.28 64.7,-46.48 64.22,-47.67 63.75,-48.82 63.28,-49.88 62.81,-50.88 62.35,-51.88 61.87,-52.92 61.34,-54.06 60.7,-55.28 59.91,-56.59 59.02,-57.94 58.17,-59.27 57.36,-60.44" fill="none" stroke="rgb(125, 134, 19)" stroke-width="2" stroke-linejoin="round" filter="url(#fuzzy)" /><polyline points="56.73,-61.58 57.86,-60.96 59.59,-60.71 61.54,-60.45 63.29,-59.92 64.77,-59.16 66.17,-58.46 67.69,-58 69.35,-57.8 71.12,-57.74 73.02,-57.73 75.24,-57.8 77.95,-58 80.88,-58.19 83.29,-58.18 84.81,-58.13 86.96,-58.8 55.14,-63.29 54.55,-63.48 53.04,-63.48 51.38,-63.76 49.98,-64.38 48.92,-65.21 48.1,-66.19 47.42,-67.27 46.78,-68.41 46.08,-69.52 45.25,-70.49 44.27,-71.24 43.13,-71.74 41.91,-72.01 40.68,-72.17 39.53,-72.34 38.5,-72.61 37.59,-72.99 36.73,-73.38 35.84,-73.7 34.85,-73.92 33.73,-74.03 32.45,-74.07 30.89,-74.19 28.37,-75.47 55.14,-63.29 56.77,-63.68 58.26,-63.49 59.18,-62.51 60.1,-61.34 61.45,-60.44 63.3,-59.97 65.45,-59.81 67.53,-59.72 69.25,-59.44 70.48,-58.85 71.26,-57.95 71.82,-56.83 72.45,-55.67 73.42,-54.64 74.86,-53.88 76.71,-53.41 78.74,-53.08 80.77,-52.59 82.96,-51.98 85.51,-52.72 59.51,-33.53 60.66,-35.07 60.92,-36.58 60.76,-37.95 60.47,-39.24 60.23,-40.53 60.11,-41.88 60.09,-43.32 60.13,-44.79 60.14,-46.2 60.03,-47.47 59.73,-48.55 59.23,-49.5 58.62,-50.44 58.01,-51.52 57.5,-52.82 57.08,-54.33 56.67,-55.91 56.2,-57.42 55.69,-58.83 55.27,-60.21 55.02,-61.57 54.91,-62.7 55.16,-63.67 50.94,-67.86 52.92,-66.47 54.46,-65.71 56.05,-65.71 57.79,-66.14 59.55,-66.54 61.14,-66.58 62.6,-66.21 64.14,-65.66 65.99,-65.21 68.15,-64.96 70.35,-64.75 72.21,-64.33 73.48,-63.51 74.18,-62.34 74.64,-61.08 75.31,-60.04 76.55,-59.37 78.55,-58.93 81.44,-58.33 85.12,-57.09 79.99,-58.06 77.41,-58.76 75.63,-59.02 73.94,-59.06 72.26,-59.12 70.71,-59.4 69.34,-59.97 68.01,-60.72 66.58,-61.48 64.99,-62.16 63.33,-62.75 61.72,-63.29 60.24,-63.79 58.87,-64.18 57.55,-64.41 56.26,-64.56 55.04,-64.8 53.87,-65.36 52.66,-66.36 51.37,-67.65 50.29,-68.8" fill="none" stroke="rgb(125, 134, 19)" stroke-width="2" stroke-linejoin="round" filter="url(#fuzzy)" /><polyline points="50.36,-68.66 49.27,-69.87 48.43,-71.07 47.79,-72.42 47.27,-74.09 46.94,-76.19 46.82,-78.7 46.88,-81.43 46.94,-84.05 46.81,-86.23 46.35,-87.77 45.61,-88.76 44.77,-89.57 44.07,-90.72 43.63,-92.61 43.43,-95.28 43.61,-98.41 44.85,-101.31 47.65,-71.24 50.24,-73.97 52.13,-74.61 53.4,-74.28 54.11,-73.11 54.67,-71.56 55.37,-70.09 56.29,-68.94 57.37,-68.14 58.53,-67.6 59.75,-67.18 61.07,-66.8 62.59,-66.47 64.44,-66.27 66.7,-66.26 69.28,-66.41 71.93,-66.56 74.29,-66.46 76.1,-65.97 77.42,-65.18 78.7,-64.49 80.48,-64.35 82.23,-64.27" fill="none" stroke="rgb(125, 134, 19)" stroke-width="2" stroke-linejoin="round" filter="url(#fuzzy)" /><polyline points="46.06,-72.71 46.89,-71.3 47.54,-70.22 48.21,-69.2 48.82,-68.12 49.32,-66.83 49.69,-65.28 49.97,-63.55 50.2,-61.79 50.42,-60.19 50.69,-58.82 51.05,-57.68 51.51,-56.67 52,-55.64 52.46,-54.46 52.84,-53.06 53.15,-51.46 53.38,-49.74 53.41,-47.96 53.16,-46.18 53.45,-44.82" fill="none" stroke="rgb(125, 134, 19)" stroke-width="2" stroke-linejoin="round" filter="url(#fuzzy)" /><polyline points="46.06,-72.71 46.47,-76.16 46.35,-78.59 45.47,-79.57 44.38,-79.99 43.4,-80.49 42.63,-81.35 42.09,-82.66 41.75,-84.42 41.49,-86.48 41.17,-88.68 40.66,-90.87 39.93,-93 39.03,-95.09 38.07,-97.12 37.21,-98.97 36.55,-100.47 36.01,-101.49 35.46,-102.28 44.82,-73.89 47.74,-75.37 49.97,-76.21 50.74,-75.11 51.1,-73.47 51.76,-72.22 52.88,-71.52 54.35,-71.17 55.97,-70.93 57.58,-70.67 59.03,-70.3 60.23,-69.78 61.21,-69.06 62.1,-68.21 63.11,-67.35 64.43,-66.61 66.15,-66.09 68.2,-65.72 70.41,-65.4 72.63,-65.1 74.83,-64.89 77,-64.81 78.73,-64.48 59.65,-56.03 58.68,-57.38 57.91,-58.64 57.2,-59.8 56.52,-60.85 55.88,-61.78 55.25,-62.64 54.59,-63.49 53.84,-64.38 53,-65.35 52.11,-66.36 51.2,-67.38 50.32,-68.34 49.48,-69.24 48.64,-70.09 47.78,-70.93 46.88,-71.81 45.93,-72.73 44.95,-73.66 44.12,-74.34" fill="none" stroke="rgb(125, 134, 19)" stroke-width="2" stroke-linejoin="round" filter="url(#fuzzy)" /><polyline points="42.38,-75.99 43.8,-74.85 45.04,-74.05 46.18,-73.25 47.22,-72.42 48.19,-71.61 49.13,-70.82 50.07,-70.04 51.05,-69.25 52.07,-68.43 53.12,-67.59 54.16,-66.74 55.12,-65.89 55.97,-65.05 56.71,-64.2 57.42,-63.3 58.16,-62.36 58.99,-61.35 59.92,-60.27 60.94,-59.07 61.99,-57.75 62.93,-56.46 63.5,-55.93" fill="none" stroke="rgb(125, 134, 19)" stroke-width="2" stroke-linejoin="round" filter="url(#fuzzy)" /><polyline points="29.05,-100.9 30.36,-100.45 31.45,-99.13 32.41,-97.45 33.16,-95.6 33.81,-93.83 34.54,-92.25 35.46,-90.85 36.54,-89.59 37.69,-88.4 38.77,-87.2 39.63,-85.83 40.19,-84.18 40.5,-82.3 40.73,-80.42 41.08,-78.79 41.58,-77.57 42.02,-76.75 42.38,-75.99" fill="none" stroke="rgb(125, 134, 19)" stroke-width="2" stroke-linejoin="round" filter="url(#fuzzy)" /><polyline points="41.49,-76.56 42.37,-75.53 42.98,-73.77 43.24,-71.57 43.43,-69.39 43.8,-67.63 44.41,-66.4 45.19,-65.54 45.95,-64.78 46.5,-63.76 46.74,-62.24 46.75,-60.22 46.78,-58.06 47.03,-56.27 47.41,-55.15 47.71,-54.75 54.7,-63.14 53.77,-64.05 52.66,-65.3 51.59,-66.52 50.66,-67.57 49.83,-68.48 49.03,-69.31 48.19,-70.13 47.32,-70.97 46.39,-71.84 45.43,-72.76 44.46,-73.7 43.51,-74.63 42.65,-75.5 41.92,-76.19 41.27,-76.72 40.12,-77.39" fill="none" stroke="rgb(125, 134, 19)" stroke-width="2" stroke-linejoin="round" filter="url(#fuzzy)" /><polyline points="38,-79.06 37.92,-82.56 36.57,-83.07 35.26,-83.93 34.2,-85.39 33.29,-86.87 32.4,-88.02 31.46,-88.85 30.47,-89.54 29.48,-90.25 28.52,-91.1 27.62,-92.09 26.74,-93.24 25.83,-94.53 24.82,-96.01 23.71,-97.77 22.54,-99.89 21.37,-102.34 20.27,-104.93 19.28,-107.26 18.37,-108.96 17.42,-109.91 16.13,-110.55 14.62,-112.51" fill="none" stroke="rgb(125, 134, 19)" stroke-width="2" stroke-linejoin="round" filter="url(#fuzzy)" /><polyline points="36.54,-79.82 39.39,-82.44 41.12,-83.76 41.89,-83.31 42.47,-82.27 43.21,-81.35 44.21,-80.75 45.46,-80.48 46.95,-80.44 48.61,-80.54 50.35,-80.66 52.1,-80.74 53.8,-80.74 55.43,-80.65 56.99,-80.46 58.56,-80.21 60.26,-79.97 62.23,-79.84 64.45,-79.84 66.72,-79.96 68.71,-80.14 70.04,-80.2 70.25,-79.32 34.84,-80.89 36.6,-80.53 38.08,-80.39 39.63,-81.08 41.2,-81.99 42.58,-82.46 43.75,-82.36 44.85,-81.96 45.99,-81.5 47.24,-81.05 48.58,-80.6 50.03,-80.24 51.66,-80.08 53.48,-80.21 55.46,-80.59 57.52,-81.08 59.59,-81.5 61.72,-81.8 63.98,-82.02 66.34,-82.18 68.53,-82.16 70.19,-81.9 71.32,-81.67 72.45,-81.8 34.84,-80.89 34.23,-81.34 32.82,-82.23 31.64,-83.08 30.69,-83.82 29.81,-84.5 28.88,-85.09 27.89,-85.61 26.89,-86.1 25.91,-86.61 24.93,-87.19 23.92,-87.83 22.81,-88.52 21.59,-89.21 20.28,-89.83 18.92,-90.36 17.62,-90.79 16.42,-91.15 15.35,-91.49 14.34,-91.84 13.31,-92.25 12.2,-92.74 11.13,-93.2 10.23,-93.33 35.68,-80.59 35.8,-80.72 37.42,-81.8 39.74,-83.96 41.89,-85.92 43.51,-86.92 44.8,-87.15 46.07,-87.16 47.48,-87.29 49.08,-87.62 50.86,-88.03 52.81,-88.43 54.89,-88.83 57.08,-89.28 59.17,-89.69 60.84,-89.62 62.42,-88.82 70.74,-79.87 68.99,-78.99 67.24,-78.43 65.04,-77.96 62.69,-77.7 60.5,-77.66 58.59,-77.8 56.98,-78.12 55.64,-78.68 54.48,-79.46 53.39,-80.37 52.3,-81.32 51.16,-82.25 50.03,-83.2 48.95,-84.16 47.92,-85.07 46.87,-85.79 45.73,-86.21 44.48,-86.29 43.14,-86.09 41.75,-85.7 40.27,-85.18 38.66,-84.53 37.03,-83.45 35.68,-80.59 31.2,-83 34.05,-81.77 35.68,-81.47 37.06,-81.37 38.29,-81.23 39.36,-80.96 40.33,-80.61 41.29,-80.22 42.26,-79.79 43.22,-79.27 44.16,-78.6 45.1,-77.78 46.08,-76.89 47.15,-76.04 48.3,-75.31 49.53,-74.72 50.74,-74.2 51.86,-73.64 52.84,-72.93 53.77,-72.07 54.9,-71.12 56.53,-70.16 58.4,-69.18 31.2,-83 30.71,-82.83 30.03,-82.73 29.02,-82.34 27.74,-81.67 26.33,-80.81 24.93,-79.85 23.61,-78.92 22.37,-78.16 21.19,-77.77 20.04,-77.78 18.87,-78.08 17.67,-78.4 16.42,-78.49 15.18,-78.26 14.02,-77.82 12.98,-77.39 12.05,-77.16 11.12,-77.08 10.11,-76.79 9.07,-75.82 8.19,-74.74" fill="none" stroke="rgb(125, 134, 19)" stroke-width="2" stroke-linejoin="round" filter="url(#fuzzy)" /><polyline points="30.23,-83.3 30.93,-82.74 32.08,-81.89 33.32,-80.76 34.42,-79.58 35.36,-78.45 36.18,-77.41 36.89,-76.46 37.53,-75.54 38.11,-74.57 38.63,-73.52 39.13,-72.38 39.64,-71.22 40.23,-70.08 40.93,-68.98 41.73,-67.89 42.52,-66.76 43.2,-65.68 43.53,-65.14 30.23,-83.3 29.81,-84.37 29.26,-86.49 28.51,-88.3 27.66,-89.53 26.8,-90.39 25.86,-91.03 24.79,-91.5 23.54,-91.91 22.18,-92.4 20.77,-93.03 19.41,-93.78 18.14,-94.56 16.97,-95.28 15.88,-95.95 14.84,-96.71 13.79,-97.75 12.75,-99.22 11.69,-101.01 10.64,-102.77 9.64,-104.06 8.78,-104.81 7.83,-106.05 29.16,-84.11 30.19,-85.04 31.22,-85.81 32.15,-85.55 33.26,-84.85 34.57,-84.19 35.99,-83.74 37.42,-83.48 38.8,-83.41 40.14,-83.52 41.44,-83.71 42.71,-83.91 44.03,-84.12 45.41,-84.45 46.77,-84.8 48.03,-84.66 49.37,-83.18 6.75,-74.97 6.95,-75.27 7.9,-76.11 8.99,-76.96 10.05,-77.49 11.09,-77.93 12.16,-78.66 13.29,-79.79 14.52,-81.14 15.87,-82.43 17.32,-83.44 18.81,-84.08 20.27,-84.34 21.61,-84.27 22.76,-83.99 23.76,-83.73 24.72,-83.75 25.79,-84.12 27.14,-84.44 29.16,-84.11" fill="none" stroke="rgb(125, 134, 19)" stroke-width="2" stroke-linejoin="round" filter="url(#fuzzy)" /><polyline points="29.16,-84.11 26.39,-82.05 25.15,-82.11 24.2,-82.1 23.19,-81.9 22.1,-81.96 20.98,-82.47 19.8,-83.19 18.56,-83.76 17.28,-83.94 16.01,-83.65 14.77,-83.05 13.6,-82.32 12.48,-81.67 11.39,-81.16 10.33,-80.75 9.27,-80.32 8.22,-79.76 7.17,-79.02 6.09,-78.15 4.98,-77.24 3.82,-76.4 2.73,-75.76 1.91,-75.58 1.47,-75.24 5.13,-106.33 7.15,-105.34 8.5,-105.33 9.62,-105.09 10.73,-104.41 11.86,-103.34 12.97,-101.93 13.99,-100.27 14.93,-98.5 15.81,-96.82 16.72,-95.35 17.73,-94.07 18.88,-92.86 20.17,-91.66 21.54,-90.52 22.88,-89.51 24.02,-88.51 24.71,-87.17 24.77,-86.02" fill="none" stroke="rgb(125, 134, 19)" stroke-width="2" stroke-linejoin="round" filter="url(#fuzzy)" /><polyline points="24.77,-86.02 25.76,-85.19 26.78,-84.32 27.73,-83.23 28.51,-82.03 29.19,-80.78 29.9,-79.52 30.72,-78.3 31.64,-77.18 32.64,-76.21 33.66,-75.39 34.63,-74.68 35.52,-74.04 36.32,-73.39 37.01,-72.62 37.57,-71.66 38.01,-70.47 38.35,-69.07 38.69,-67.55 39.13,-66.07 39.74,-64.74 40.48,-63.61 41.18,-62.63 41.31,-61.82 24.77,-86.02 24.58,-86.77 24.01,-88.67 23.01,-90.23 21.65,-91.22 20.22,-92.18 18.94,-93.56 17.86,-95.35 16.93,-97.29 16.05,-99.05 15.09,-100.37 14.02,-101.15 12.83,-101.49 11.58,-101.59 10.32,-101.73 9.07,-102.13 7.8,-102.92 6.48,-104.1 5.12,-105.62 3.8,-107.45 2.63,-109.59 1.54,-111.97 0.02,-114.75" fill="none" stroke="rgb(125, 134, 19)" stroke-width="2" stroke-linejoin="round" filter="url(#fuzzy)" /><polyline points="20.74,-87.46 22.18,-87.08 23.53,-87.37 24.82,-88.17 26.03,-88.89 27.18,-89.19 28.32,-89.15 29.53,-89.07 30.91,-89.32 32.51,-90.05 34.34,-91.21 36.36,-92.54 38.43,-93.76 40.46,-94.64 42.33,-95.14 44.03,-95.33 45.59,-95.39 47.13,-95.52 48.75,-95.9 50.51,-96.54 52.36,-97.31 54.18,-97.98 56,-98.36 58.07,-98.67 60.54,-99.82" fill="none" stroke="rgb(125, 134, 19)" stroke-width="2" stroke-linejoin="round" filter="url(#fuzzy)" /><polyline points="15.61,-89.13 14.87,-89.5 14.32,-90.12 13.45,-90.94 12.41,-92 11.35,-93.27 10.3,-94.62 9.24,-95.85 8.13,-96.75 6.95,-97.33 5.7,-97.76 4.44,-98.32 3.19,-99.19 1.98,-100.45 0.78,-102.05 -0.47,-103.96 -1.82,-106.14 -3.29,-108.52 -4.88,-110.87 -6.49,-112.82 -7.99,-114.06 -9.33,-114.66 -10.99,-115.48 -14.27,-118.29" fill="none" stroke="rgb(125, 134, 19)" stroke-width="2" stroke-linejoin="round" filter="url(#fuzzy)" /><polyline points="15.82,-88.99 13.88,-91.57 12.71,-94.58 11.55,-95.5 10.3,-94.79 9.03,-93.66 7.78,-92.9 6.54,-92.82 5.31,-93.41 4.11,-94.54 2.95,-96.05 1.81,-97.76 0.68,-99.46 -0.5,-100.94 -1.74,-102.06 -3.09,-102.78 -4.51,-103.21 -5.95,-103.58 -7.33,-104.07 -8.63,-104.85 -9.96,-106.12 -11.31,-108.08 -11.46,-110.17 10.7,-90.06 9.71,-91.41 8.83,-94.1 7.91,-96.18 6.77,-97.51 5.5,-98.69 4.23,-99.9 3,-101.02 1.82,-102.06 0.63,-103.35 -0.63,-105.24 -1.99,-107.7 -3.45,-110.19 -4.98,-111.97 -6.49,-112.69 -7.93,-112.79 -9.36,-113.44 -10.92,-115.68 -12.54,-119.35 -12.65,-121.65 8.14,-90.43 6.57,-90.92 5,-91.62 3.67,-92.29 2.54,-92.95 1.5,-93.58 0.44,-94.2 -0.69,-94.96 -1.93,-96.02 -3.28,-97.5 -4.73,-99.48 -6.21,-101.94 -7.7,-104.7 -9.18,-107.45 -10.68,-109.85 -12.25,-111.84 -13.97,-113.81 -15.87,-116.41 -17.94,-119.52 -20.26,-121.32 8.14,-90.43 8.36,-90.65 9.47,-91.46 10.76,-92.39 12.08,-93.27 13.41,-94.32 14.78,-95.83 16.22,-97.85 17.77,-100.1 19.48,-102.23 21.45,-104.23 23.73,-106.46 26.32,-109.29 29,-112.45 31.36,-115.04 33.05,-116.46 33.79,-117.36" fill="none" stroke="rgb(125, 134, 19)" stroke-width="2" stroke-linejoin="round" filter="url(#fuzzy)" /><polyline points="6.67,-90.23 4.83,-91.98 3.51,-93.49 2.45,-94.41 1.44,-95.05 0.39,-95.65 -0.74,-96.31 -1.96,-97 -3.26,-97.6 -4.6,-98.05 -5.92,-98.37 -7.18,-98.62 -8.41,-98.87 -9.64,-99.19 -10.93,-99.59 -12.3,-100.14 -13.75,-100.88 -15.24,-101.83 -16.65,-102.88 -17.54,-103.3 2.69,-90.64 2.2,-94.35 1.37,-94.6 0.33,-94.63 -0.81,-95.06 -2.03,-95.57 -3.31,-95.78 -4.6,-95.62 -5.85,-95.27 -7.05,-94.97 -8.23,-94.86 -9.43,-94.95 -10.67,-95.22 -11.98,-95.66 -13.35,-96.24 -14.74,-96.88 -16.12,-97.39 -17.44,-97.72 -18.68,-98.06 -19.87,-98.64 -21.59,-99.19" fill="none" stroke="rgb(125, 134, 19)" stroke-width="2" stroke-linejoin="round" filter="url(#fuzzy)" /><polyline points="2.69,-90.64 4.41,-90.63 5.94,-90.62 7.18,-90.65 8.28,-90.63 9.36,-90.58 10.48,-90.51 11.61,-90.45 12.72,-90.38 13.81,-90.26 14.87,-90.09 15.97,-89.84 17.14,-89.52 18.41,-89.18 19.78,-88.83 21.19,-88.53 22.55,-88.28 23.81,-88.08 24.92,-87.89 25.91,-87.64 26.89,-87.28 28.02,-86.81 29.37,-86.3 30.58,-85.93" fill="none" stroke="rgb(125, 134, 19)" stroke-width="2" stroke-linejoin="round" filter="url(#fuzzy)" /><polyline points="-17.59,-92.68 -17.57,-92.56 -16.56,-92.75 -15.34,-92.81 -14.06,-92.64 -12.77,-92.3 -11.5,-91.96 -10.27,-91.74 -9.11,-91.7 -8.01,-91.79 -6.92,-91.95 -5.79,-92.09 -4.55,-92.11 -3.25,-91.96 -1.99,-91.64 -0.83,-91.25 0.33,-90.95 1.78,-90.81 33.28,-95.99 31.07,-96.75 29.63,-96.74 28.42,-96.42 27.19,-95.94 25.8,-95.4 24.24,-94.87 22.58,-94.42 20.92,-94.11 19.35,-93.94 17.91,-93.84 16.61,-93.79 15.4,-93.75 14.25,-93.7 13.09,-93.63 11.92,-93.47 10.73,-93.22 9.54,-92.92 8.35,-92.71 7.15,-92.71 5.91,-92.85 4.6,-92.83 3.33,-92.26 2.32,-91.25 1.78,-90.81" fill="none" stroke="rgb(125, 134, 19)" stroke-width="2" stroke-linejoin="round" filter="url(#fuzzy)" />
    </g>
    
        <g id="lineNose">
        <path d="M -9.69,7.32 Q 12.44, 7.365 1.375, -5.408" fill="none" stroke="black" stroke-width="3" stroke-linejoin="round" filter="url(#fuzzy)"></path>
        </g>
      
    <g id="mouth">
      <polyline points="-68.58,31.96 -67.33,33.98 -66.06,35.97 -64.78,37.92 -63.49,39.83 -62.19,41.69 -60.88,43.52 -59.56,45.31 -58.22,47.07 -56.88,48.78 -55.53,50.45 -54.16,52.08 -52.79,53.68 -51.41,55.23 -50.02,56.75 -48.62,58.23 -47.22,59.66 -45.81,61.06 -44.39,62.42 -42.96,63.74 -41.53,65.02 -40.09,66.26 -38.64,67.46 -37.19,68.62 -35.73,69.74 -34.27,70.82 -32.81,71.86 -31.34,72.87 -29.87,73.83 -28.39,74.75 -26.91,75.63 -25.43,76.48 -23.94,77.28 -22.46,78.05 -20.97,78.77 -19.48,79.45 -17.99,80.1 -16.5,80.7 -15,81.27 -13.51,81.79 -12.02,82.28 -10.53,82.72 -9.04,83.13 -7.55,83.49 -6.06,83.82 -4.58,84.1 -3.1,84.34 -1.62,84.55 -0.14,84.71 1.33,84.84 2.81,84.92 4.27,84.96 5.73,84.97 7.19,84.93 8.64,84.85 10.09,84.73 11.53,84.58 12.96,84.38 14.39,84.14 15.82,83.86 17.23,83.54 18.64,83.18 20.04,82.78 21.43,82.33 22.81,81.85 24.19,81.33 25.55,80.77 26.91,80.16 28.26,79.52 29.59,78.83 30.92,78.11 32.23,77.34 33.54,76.53 34.83,75.68 36.11,74.79 37.38,73.86 38.63,72.89 39.88,71.88 41.11,70.83 42.32,69.73 43.53,68.6 44.72,67.42 45.89,66.21 47.05,64.95 48.2,63.65 49.32,62.31 50.44,60.93 51.53,59.51 52.61,58.04 53.68,56.54 54.72,54.99 55.75,53.4 56.76,51.78 57.76,50.11 58.73,48.4 59.69,46.64 60.62,44.85 61.54,43.01 62.44,41.14 63.31,39.22 63.31,39.22 61.99,39.47 60.68,39.7 59.36,39.94 58.04,40.16 56.72,40.38 55.4,40.6 54.08,40.8 52.76,41 51.44,41.19 50.12,41.38 48.81,41.56 47.49,41.73 46.17,41.9 44.85,42.06 43.53,42.21 42.21,42.36 40.89,42.5 39.57,42.63 38.25,42.76 36.94,42.88 35.62,43 34.3,43.1 32.98,43.2 31.66,43.3 30.34,43.39 29.02,43.47 27.7,43.54 26.38,43.61 25.06,43.67 23.75,43.73 22.43,43.78 21.11,43.82 19.79,43.85 18.47,43.88 17.15,43.91 15.83,43.92 14.51,43.93 13.19,43.94 11.88,43.93 10.56,43.92 9.24,43.91 7.92,43.88 6.6,43.85 5.28,43.82 3.96,43.78 2.64,43.73 1.32,43.67 0,43.61 -1.31,43.54 -2.63,43.47 -3.95,43.39 -5.27,43.3 -6.59,43.21 -7.91,43.11 -9.23,43 -10.55,42.89 -11.87,42.77 -13.18,42.64 -14.5,42.51 -15.82,42.37 -17.14,42.23 -18.46,42.08 -19.78,41.92 -21.1,41.75 -22.42,41.58 -23.74,41.41 -25.06,41.22 -26.37,41.03 -27.69,40.84 -29.01,40.64 -30.33,40.43 -31.65,40.21 -32.97,39.99 -34.29,39.76 -35.61,39.53 -36.93,39.29 -38.24,39.04 -39.56,38.79 -40.88,38.53 -42.2,38.26 -43.52,37.99 -44.84,37.71 -46.16,37.43 -47.48,37.14 -48.8,36.84 -50.11,36.54 -51.43,36.23 -52.75,35.91 -54.07,35.59 -55.39,35.26 -56.71,34.93 -58.03,34.58 -59.35,34.24 -60.67,33.88 -61.99,33.52 -63.3,33.16 -64.62,32.78 -65.94,32.41 -67.26,32.02" fill="rgb(204, 102, 196)" stroke="black" stroke-width="3" stroke-linejoin="round" filter="url(#fuzzy)" />
    </g>
  </svg>