<svg viewBox="-100 -100 200 200" xmlns="http://www.w3.org/2000/svg" width="500" height="500" id="face-svg">
    <defs>
      <clipPath id="leftEyeClipPath">
        <polyline points="28.68,1.17 28.43,1.1 28.16,1.03 27.85,0.94 27.52,0.86 27.16,0.77 26.76,0.67 26.34,0.58 25.89,0.47 25.4,0.36 24.88,0.25 24.33,0.14 23.75,0.02 23.13,-0.11 22.49,-0.23 21.81,-0.37 21.27,-0.48 20.66,-0.6 19.99,-0.74 19.26,-0.88 18.47,-1.02 17.63,-1.18 16.73,-1.34 15.78,-1.5 14.78,-1.67 13.74,-1.84 12.66,-2.02 11.54,-2.19 10.39,-2.37 9.2,-2.54 7.99,-2.71 6.76,-2.88 5.52,-3.05 4.25,-3.21 2.98,-3.36 1.7,-3.51 0.42,-3.66 -0.85,-3.79 -2.13,-3.92 -3.39,-4.04 -4.64,-4.15 -5.87,-4.24 -7.09,-4.33 -8.29,-4.41 -9.46,-4.48 -10.6,-4.53 -11.72,-4.58 -12.8,-4.61 -13.85,-4.63 -14.87,-4.64 -15.85,-4.64 -16.79,-4.63 -17.7,-4.61 -18.56,-4.58 -19.39,-4.54 -20.18,-4.49 -20.93,-4.42 -21.64,-4.36 -22.31,-4.28 -22.95,-4.19 -23.55,-4.1 -24.11,-4 -24.64,-3.9 -25.14,-3.79 -25.6,-3.68 -26.04,-3.57 -26.45,-3.46 -26.84,-3.34 -27.19,-3.21 -27.51,-3.08 -27.81,-2.95 -28.08,-2.82 -28.33,-2.68 -28.55,-2.55 -28.75,-2.41 -28.92,-2.27 -29.07,-2.13 -29.2,-1.98 -29.31,-1.84 -29.4,-1.7 -25.47,-1.27 -24.91,-1.09 -24.34,-0.92 -23.75,-0.75 -23.16,-0.59 -22.55,-0.43 -21.93,-0.27 -21.3,-0.11 -20.66,0.05 -20.01,0.2 -19.35,0.35 -18.67,0.5 -17.98,0.64 -17.29,0.79 -16.58,0.93 -15.86,1.07 -15.12,1.21 -14.37,1.35 -13.61,1.49 -12.83,1.62 -12.04,1.76 -11.24,1.89 -10.42,2.02 -9.6,2.16 -8.76,2.29 -7.91,2.42 -7.05,2.55 -6.18,2.68 -5.3,2.81 -4.42,2.94 -3.52,3.07 -2.63,3.2 -1.72,3.32 -0.82,3.45 0.09,3.57 1,3.69 1.92,3.81 2.83,3.92 3.73,4.04 4.64,4.15 5.54,4.25 6.43,4.35 7.32,4.45 8.2,4.54 9.07,4.63 9.93,4.71 10.77,4.78 11.61,4.85 12.42,4.91 13.23,4.96 14.01,5 14.78,5.03 15.52,5.06 16.25,5.08 16.95,5.08 17.64,5.08 18.3,5.06 18.93,5.04 19.54,5 20.13,4.95 20.69,4.89 21.22,4.82 21.73,4.74 22.21,4.65 22.66,4.55 23.13,4.5 23.58,4.45 24.02,4.4 24.44,4.34 24.84,4.27 25.23,4.21 25.61,4.13 25.96,4.06 26.3,3.98 26.62,3.9 26.93,3.82 27.22,3.74 27.5,3.65 27.76,3.56 28,3.48" />
      </clipPath>
      <clipPath id="rightEyeClipPath">
        <polyline points="-27.17,0.98 -26.91,0.92 -26.63,0.86 -26.31,0.79 -25.97,0.72 -25.59,0.65 -25.19,0.57 -24.75,0.49 -24.27,0.4 -23.77,0.32 -23.23,0.22 -22.66,0.13 -22.06,0.03 -21.42,-0.07 -20.75,-0.17 -20.05,-0.28 -19.49,-0.37 -18.85,-0.47 -18.16,-0.58 -17.4,-0.69 -16.58,-0.81 -15.71,-0.94 -14.78,-1.07 -13.8,-1.2 -12.77,-1.34 -11.7,-1.48 -10.58,-1.62 -9.43,-1.76 -8.25,-1.91 -7.03,-2.05 -5.79,-2.19 -4.53,-2.33 -3.25,-2.46 -1.96,-2.59 -0.67,-2.72 0.63,-2.84 1.93,-2.96 3.23,-3.07 4.52,-3.18 5.8,-3.27 7.06,-3.36 8.3,-3.44 9.53,-3.51 10.72,-3.58 11.89,-3.63 13.03,-3.68 14.14,-3.72 15.21,-3.74 16.25,-3.76 17.24,-3.77 18.2,-3.77 19.12,-3.76 19.99,-3.74 20.83,-3.72 21.61,-3.68 22.36,-3.64 23.07,-3.59 23.73,-3.53 24.35,-3.47 24.92,-3.4 25.46,-3.32 25.96,-3.24 26.42,-3.16 26.85,-3.07 27.25,-2.98 27.61,-2.89 27.94,-2.79 28.24,-2.69 28.51,-2.59 28.75,-2.49 28.95,-2.38 29.13,-2.27 29.28,-2.16 29.4,-2.05 29.49,-1.93 29.56,-1.82 29.6,-1.7 29.62,-1.59 29.61,-1.47 29.58,-1.36 24.28,-0.61 23.59,-0.48 22.9,-0.36 22.19,-0.24 21.47,-0.13 20.75,-0.01 20.01,0.1 19.27,0.21 18.52,0.32 17.76,0.43 16.99,0.54 16.22,0.65 15.43,0.75 14.65,0.85 13.85,0.96 13.05,1.06 12.24,1.16 11.42,1.26 10.59,1.36 9.76,1.46 8.91,1.56 8.06,1.66 7.21,1.75 6.35,1.85 5.49,1.95 4.63,2.05 3.77,2.15 2.91,2.24 2.05,2.34 1.19,2.44 0.33,2.54 -0.52,2.63 -1.36,2.73 -2.2,2.82 -3.03,2.92 -3.86,3.01 -4.67,3.1 -5.48,3.19 -6.28,3.28 -7.06,3.36 -7.83,3.44 -8.59,3.52 -9.34,3.6 -10.08,3.67 -10.8,3.73 -11.5,3.8 -12.19,3.85 -12.87,3.91 -13.53,3.95 -14.17,3.99 -14.8,4.03 -15.41,4.05 -16.01,4.07 -16.59,4.08 -17.15,4.09 -17.7,4.08 -18.23,4.07 -18.75,4.05 -19.25,4.02 -19.73,3.98 -20.2,3.93 -20.65,3.87 -21.09,3.81 -21.52,3.73 -21.93,3.65 -22.32,3.61 -22.69,3.57 -23.06,3.53 -23.41,3.48 -23.76,3.43 -24.09,3.37 -24.41,3.32 -24.72,3.26 -25.02,3.19 -25.31,3.13 -25.59,3.06 -25.85,2.99 -26.11,2.93 -26.35,2.86 -26.58,2.79" />
      </clipPath>
      <filter id="fuzzy">
        <feTurbulence id="turbulence" baseFrequency="0.05" numOctaves="3" type="noise" result="noise" />
        <feDisplacementMap in="SourceGraphic" in2="noise" scale="2" />
      </filter>
      <linearGradient id="rainbowGradient" x1="0%" y1="0%" x2="100%" y2="0%">
        <stop offset="0%" style="stop-color: rgb(92, 185, 131); stop-opacity: 1" />
        <stop offset="50%" style="stop-color: rgb(192, 248, 251); stop-opacity: 1" />
        <stop offset="100%" style="stop-color: rgb(213, 61, 196); stop-opacity: 1" />
      </linearGradient>
    </defs>
    <rect x="-100" y="-100" width="100%" height="100%" fill="rgb(242, 166, 214)" />
    <polyline id="faceContour" points="65.64,0.19 65.51,2.34 65.6,3.72 65.4,5.75 65.49,4.8 65.46,5.87 65.29,7.53 65.27,8.1 65.28,8.8 64.73,13.05 64.84,13.34 64.72,14.35 64.39,16.4 64.02,17.91 64.11,18.71 63.72,20.86 63.51,22.04 63.56,21.37 62.8,24.34 62.64,25.41 62.34,26.43 62.35,26.5 61.73,28.54 60.89,31.58 61.1,30.74 60.13,33.95 59.98,34.31 59.62,35.18 58.99,37.03 58.96,37 59.01,36.92 58.1,39.5 57.89,39.85 57.39,40.72 56.17,44.09 56.76,42.54 54.9,45.69 55.3,45.94 54.61,47.29 53.43,48.6 52.81,49.76 52.87,50.45 51.22,52.15 51.18,52.68 50.17,54.13 49.94,54.94 50.23,54.01 48.84,56.56 47.26,58.35 47.58,57.92 46.73,59.9 46.06,60 44.78,61.68 43.23,63.33 43.46,63.43 42.43,64.08 42.42,64.4 41.12,66.08 41.15,65.69 39.44,68.02 36.94,69.83 37.92,69.03 36.23,70.5 35.35,71.36 35.02,71.57 33.43,72.64 34.59,71.89 33.34,72.83 31.32,73.88 30.25,74.91 29.57,75.47 30.35,74.96 28.68,76.13 26.67,77.13 27.09,76.81 26.71,77.1 23.65,78.74 22.31,79.5 23.94,78.57 22.76,79.23 19.96,80.37 20.71,80.18 19.04,80.88 18.43,80.93 17.06,81.8 15.29,82.07 13.72,82.53 13.84,82.55 12.12,83.04 11.28,83.27 10.47,83.59 9.75,83.67 7.74,83.8 6.12,84.05 6.29,84.19 5.6,83.91 3.1,84.43 2.67,84.28 1.9,84.44 1.49,84.47 0.05,84.34 -0.68,84.27 -3.17,84.44 -2.23,84.58 -3.13,84.3 -5.3,84.21 -5.13,84.33 -5.41,84.01 -7.78,83.75 -9.06,83.73 -11.8,82.93 -12.09,82.8 -11.72,83.02 -13.16,82.92 -13.89,82.35 -16.02,81.75 -15.4,82.12 -16.32,81.75 -19.11,80.61 -20.15,80.63 -19.96,80.17 -21.46,79.58 -21.96,79.61 -22.4,79.53 -24.26,78.41 -25.15,78.2 -26.59,77.19 -26.62,77.01 -28.27,76.02 -29.81,75.12 -29.91,75.28 -30.52,74.86 -31.76,73.88 -32.64,72.88 -33.7,72.78 -33.95,72.1 -35.49,71.19 -36.67,70.28 -37.14,69.46 -38.02,69.15 -39.84,67.19 -40.43,66.31 -41.06,65.95 -41.29,65.43 -42.06,64.83 -42.31,64.64 -42.77,64.13 -45.4,60.92 -44.54,61.72 -46.12,60.31 -46.03,60.42 -47.63,57.83 -48.72,56.4 -48.24,56.54 -49.53,55.33 -50.14,54.41 -50.49,54.35 -51.97,51.6 -52.53,50.92 -52.44,50.41 -53.08,50.11 -53.75,48.6 -53.84,47.56 -54.89,45.82 -54.67,46.6 -55.75,44.63 -55.75,44.74 -57.57,40.88 -57.37,41.11 -58.48,38.58 -58.53,38.51 -59.41,35.63 -59.76,35.33 -59.81,34.67 -60.25,33.69 -60.35,32.62 -60.77,32.09 -61.39,29.86 -61.13,30.78 -62.23,26.78 -62.09,27.7 -62.35,26.56 -63.28,21.71 -63.35,21.51 -63.68,19.82 -63.98,18.47 -64.31,17.02 -64.3,16.98 -64.32,15.95 -64.69,14.37 -64.73,13.12 -64.95,12.49 -65.07,10.89 -65.16,9.08 -65.28,7.04 -65.56,6.08 -65.41,4.72 -65.45,3.99 -65.59,0.96 -65.48,0.02 -65.71,-0.13 -65.47,-1.43 -65.59,-2.24 -65.66,-4.11 -65.45,-4.09 -65.39,-6.02 -65.45,-6.52 -65.22,-9.64 -65.19,-10.58 -64.97,-12.2 -64.74,-13.63 -64.36,-16.2 -64.47,-15.33 -64.44,-16.01 -64.1,-17.37 -64.09,-17.67 -63.67,-19.9 -62.91,-23.58 -63.14,-23.07 -62.64,-24.94 -62.3,-26.6 -62.09,-27.22 -61.87,-27.86 -62.09,-27.98 -60.65,-31.99 -60.67,-32.45 -60.28,-33.43 -60.25,-33.14 -59.71,-35 -59.56,-35.37 -58.91,-36.98 -57.74,-39.25 -57.81,-40.34 -56.87,-41.67 -57.17,-41.75 -56.33,-43.3 -55.25,-45.45 -54.84,-47.02 -55.01,-46.09 -53.3,-49.49 -52.94,-49.93 -52.09,-51.44 -52.09,-50.82 -51.4,-52.75 -50.03,-54.82 -49.55,-55.09 -48.94,-56 -49.05,-55.77 -48.58,-57.01 -46.66,-59.65 -46.38,-59.55 -44.85,-61.73 -45.75,-60.51 -43.95,-62.92 -43.23,-63.19 -42.49,-64.7 -42.23,-64.74 -41.09,-65.58 -39.48,-67.66 -39.08,-67.57 -38.02,-68.43 -37.43,-69.29 -37.24,-69.55 -36.1,-70.45 -34.78,-71.47 -34.75,-71.57 -33.05,-72.94 -33,-73.08 -31.5,-74.34 -30.61,-74.48 -30.19,-74.93 -29.14,-75.61 -27.63,-76.53 -26.22,-77.26 -27.23,-76.78 -26.41,-77.53 -22.93,-79.19 -22.69,-79.17 -21.95,-79.78 -22.34,-79.46 -20.57,-80.22 -19.44,-80.59 -18.52,-81.12 -18.1,-81.26 -16.41,-82.02 -14.84,-82.35 -15.03,-82.18 -13.15,-82.68 -11.45,-83.09 -12.17,-83.19 -10.28,-83.39 -8.25,-83.64 -9.81,-83.49 -7.43,-84.08 -5.29,-84.01 -4.82,-84.08 -4.31,-84.44 -3.45,-84.21 -2.14,-84.37 -1.11,-84.48 1.11,-84.49 2.05,-84.35 2.19,-84.39 1.88,-84.57 2.83,-84.33 5.1,-84.35 6.39,-84.1 6.98,-84.06 7.6,-83.99 10.12,-83.57 10.28,-83.4 10.01,-83.37 12.82,-82.86 13.77,-82.54 13.54,-82.5 14.24,-82.47 17.28,-81.55 17.38,-81.61 19.26,-80.9 17.67,-81.43 20.87,-80.16 20.1,-80.55 21.75,-79.89 22.83,-79.53 25.08,-78.44 24,-78.6 25.71,-77.71 27.15,-76.99 29.26,-75.83 28.19,-76.12 28.53,-76.22 30.9,-74.67 32.74,-73.63 32.68,-73.44 33.55,-72.32 34.57,-71.78 35.95,-70.58 36.12,-70.82 35.91,-70.93 38.95,-68.15 38.01,-68.82 39.77,-67.02 40.93,-66.07 41.65,-65.97 41.88,-64.81 43.96,-62.9 42.69,-64.12 44.33,-62.32 45.14,-61.31 44.75,-61.82 46.71,-59.21 47.18,-58.94 48.9,-56.41 49.54,-55.65 48.85,-56.08 50.03,-54.82 51.22,-52.35 50.3,-54.64 51.94,-51.79 53.01,-49.79 53.25,-49.85 53.06,-49.64 54.11,-47.88 55.53,-45.17 55.33,-45.5 55.37,-45.44 56.19,-43.18 57.32,-40.78 57.37,-41.27 57.69,-40.4 57.83,-39.8 59.09,-36.66 59.05,-36.89 59.97,-34.87 60.29,-33.58 60.99,-31.23 60.72,-31.93 61.23,-29.74 61.7,-28.69 62.31,-27.15 62.22,-25.73 62.98,-24.49 62.79,-24.41 63.15,-22.72 63.58,-21.72 64.21,-18.81 63.88,-19.16 64.37,-16.68 64.52,-16.09 64.67,-15.19 64.97,-13.4 65.06,-11.92 65.03,-11.15 65.3,-8.33 65.41,-7.18 65.66,-5.45 65.7,-4 65.65,-4.39 65.57,-1.65 65.65,-0.02 65.64,0.19 65.51,2.34" fill="rgb(32, 223, 103)" stroke="black" stroke-width="1.6666666666666665" stroke-linejoin="round" filter="url(#fuzzy)" />
    <g transform="translate(24.759999999999998 -24.240000000000002)">
      <polyline id="rightCountour" points="-27.17,0.98 -26.91,0.92 -26.63,0.86 -26.31,0.79 -25.97,0.72 -25.59,0.65 -25.19,0.57 -24.75,0.49 -24.27,0.4 -23.77,0.32 -23.23,0.22 -22.66,0.13 -22.06,0.03 -21.42,-0.07 -20.75,-0.17 -20.05,-0.28 -19.49,-0.37 -18.85,-0.47 -18.16,-0.58 -17.4,-0.69 -16.58,-0.81 -15.71,-0.94 -14.78,-1.07 -13.8,-1.2 -12.77,-1.34 -11.7,-1.48 -10.58,-1.62 -9.43,-1.76 -8.25,-1.91 -7.03,-2.05 -5.79,-2.19 -4.53,-2.33 -3.25,-2.46 -1.96,-2.59 -0.67,-2.72 0.63,-2.84 1.93,-2.96 3.23,-3.07 4.52,-3.18 5.8,-3.27 7.06,-3.36 8.3,-3.44 9.53,-3.51 10.72,-3.58 11.89,-3.63 13.03,-3.68 14.14,-3.72 15.21,-3.74 16.25,-3.76 17.24,-3.77 18.2,-3.77 19.12,-3.76 19.99,-3.74 20.83,-3.72 21.61,-3.68 22.36,-3.64 23.07,-3.59 23.73,-3.53 24.35,-3.47 24.92,-3.4 25.46,-3.32 25.96,-3.24 26.42,-3.16 26.85,-3.07 27.25,-2.98 27.61,-2.89 27.94,-2.79 28.24,-2.69 28.51,-2.59 28.75,-2.49 28.95,-2.38 29.13,-2.27 29.28,-2.16 29.4,-2.05 29.49,-1.93 29.56,-1.82 29.6,-1.7 29.62,-1.59 29.61,-1.47 29.58,-1.36 24.28,-0.61 23.59,-0.48 22.9,-0.36 22.19,-0.24 21.47,-0.13 20.75,-0.01 20.01,0.1 19.27,0.21 18.52,0.32 17.76,0.43 16.99,0.54 16.22,0.65 15.43,0.75 14.65,0.85 13.85,0.96 13.05,1.06 12.24,1.16 11.42,1.26 10.59,1.36 9.76,1.46 8.91,1.56 8.06,1.66 7.21,1.75 6.35,1.85 5.49,1.95 4.63,2.05 3.77,2.15 2.91,2.24 2.05,2.34 1.19,2.44 0.33,2.54 -0.52,2.63 -1.36,2.73 -2.2,2.82 -3.03,2.92 -3.86,3.01 -4.67,3.1 -5.48,3.19 -6.28,3.28 -7.06,3.36 -7.83,3.44 -8.59,3.52 -9.34,3.6 -10.08,3.67 -10.8,3.73 -11.5,3.8 -12.19,3.85 -12.87,3.91 -13.53,3.95 -14.17,3.99 -14.8,4.03 -15.41,4.05 -16.01,4.07 -16.59,4.08 -17.15,4.09 -17.7,4.08 -18.23,4.07 -18.75,4.05 -19.25,4.02 -19.73,3.98 -20.2,3.93 -20.65,3.87 -21.09,3.81 -21.52,3.73 -21.93,3.65 -22.32,3.61 -22.69,3.57 -23.06,3.53 -23.41,3.48 -23.76,3.43 -24.09,3.37 -24.41,3.32 -24.72,3.26 -25.02,3.19 -25.31,3.13 -25.59,3.06 -25.85,2.99 -26.11,2.93 -26.35,2.86 -26.58,2.79" fill="white" stroke="white" stroke-width="0" stroke-linejoin="round" filter="url(#fuzzy)" />
    </g>
    <g transform="translate(-28.92 -26.95)">
      <polyline id="leftCountour" points="28.68,1.17 28.43,1.1 28.16,1.03 27.85,0.94 27.52,0.86 27.16,0.77 26.76,0.67 26.34,0.58 25.89,0.47 25.4,0.36 24.88,0.25 24.33,0.14 23.75,0.02 23.13,-0.11 22.49,-0.23 21.81,-0.37 21.27,-0.48 20.66,-0.6 19.99,-0.74 19.26,-0.88 18.47,-1.02 17.63,-1.18 16.73,-1.34 15.78,-1.5 14.78,-1.67 13.74,-1.84 12.66,-2.02 11.54,-2.19 10.39,-2.37 9.2,-2.54 7.99,-2.71 6.76,-2.88 5.52,-3.05 4.25,-3.21 2.98,-3.36 1.7,-3.51 0.42,-3.66 -0.85,-3.79 -2.13,-3.92 -3.39,-4.04 -4.64,-4.15 -5.87,-4.24 -7.09,-4.33 -8.29,-4.41 -9.46,-4.48 -10.6,-4.53 -11.72,-4.58 -12.8,-4.61 -13.85,-4.63 -14.87,-4.64 -15.85,-4.64 -16.79,-4.63 -17.7,-4.61 -18.56,-4.58 -19.39,-4.54 -20.18,-4.49 -20.93,-4.42 -21.64,-4.36 -22.31,-4.28 -22.95,-4.19 -23.55,-4.1 -24.11,-4 -24.64,-3.9 -25.14,-3.79 -25.6,-3.68 -26.04,-3.57 -26.45,-3.46 -26.84,-3.34 -27.19,-3.21 -27.51,-3.08 -27.81,-2.95 -28.08,-2.82 -28.33,-2.68 -28.55,-2.55 -28.75,-2.41 -28.92,-2.27 -29.07,-2.13 -29.2,-1.98 -29.31,-1.84 -29.4,-1.7 -25.47,-1.27 -24.91,-1.09 -24.34,-0.92 -23.75,-0.75 -23.16,-0.59 -22.55,-0.43 -21.93,-0.27 -21.3,-0.11 -20.66,0.05 -20.01,0.2 -19.35,0.35 -18.67,0.5 -17.98,0.64 -17.29,0.79 -16.58,0.93 -15.86,1.07 -15.12,1.21 -14.37,1.35 -13.61,1.49 -12.83,1.62 -12.04,1.76 -11.24,1.89 -10.42,2.02 -9.6,2.16 -8.76,2.29 -7.91,2.42 -7.05,2.55 -6.18,2.68 -5.3,2.81 -4.42,2.94 -3.52,3.07 -2.63,3.2 -1.72,3.32 -0.82,3.45 0.09,3.57 1,3.69 1.92,3.81 2.83,3.92 3.73,4.04 4.64,4.15 5.54,4.25 6.43,4.35 7.32,4.45 8.2,4.54 9.07,4.63 9.93,4.71 10.77,4.78 11.61,4.85 12.42,4.91 13.23,4.96 14.01,5 14.78,5.03 15.52,5.06 16.25,5.08 16.95,5.08 17.64,5.08 18.3,5.06 18.93,5.04 19.54,5 20.13,4.95 20.69,4.89 21.22,4.82 21.73,4.74 22.21,4.65 22.66,4.55 23.13,4.5 23.58,4.45 24.02,4.4 24.44,4.34 24.84,4.27 25.23,4.21 25.61,4.13 25.96,4.06 26.3,3.98 26.62,3.9 26.93,3.82 27.22,3.74 27.5,3.65 27.76,3.56 28,3.48" fill="white" stroke="white" stroke-width="0" stroke-linejoin="round" filter="url(#fuzzy)" />
    </g>
    <g transform="translate(24.759999999999998 -24.240000000000002)">
      <polyline id="rightUpper" points="-28.55,1.43 -28.48,1.39 -28.4,1.35 -28.31,1.31 -28.2,1.27 -28.08,1.23 -27.94,1.18 -27.78,1.14 -27.6,1.09 -27.4,1.03 -27.17,0.98 -26.91,0.92 -26.63,0.86 -26.31,0.79 -25.97,0.72 -25.59,0.65 -25.19,0.57 -24.75,0.49 -24.27,0.4 -23.77,0.32 -23.23,0.22 -22.66,0.13 -22.06,0.03 -21.42,-0.07 -20.75,-0.17 -20.05,-0.28 -19.49,-0.37 -18.85,-0.47 -18.16,-0.58 -17.4,-0.69 -16.58,-0.81 -15.71,-0.94 -14.78,-1.07 -13.8,-1.2 -12.77,-1.34 -11.7,-1.48 -10.58,-1.62 -9.43,-1.76 -8.25,-1.91 -7.03,-2.05 -5.79,-2.19 -4.53,-2.33 -3.25,-2.46 -1.96,-2.59 -0.67,-2.72 0.63,-2.84 1.93,-2.96 3.23,-3.07 4.52,-3.18 5.8,-3.27 7.06,-3.36 8.3,-3.44 9.53,-3.51 10.72,-3.58 11.89,-3.63 13.03,-3.68 14.14,-3.72 15.21,-3.74 16.25,-3.76 17.24,-3.77 18.2,-3.77 19.12,-3.76 19.99,-3.74 20.83,-3.72 21.61,-3.68 22.36,-3.64 23.07,-3.59 23.73,-3.53 24.35,-3.47 24.92,-3.4 25.46,-3.32 25.96,-3.24 26.42,-3.16 26.85,-3.07 27.25,-2.98 27.61,-2.89 27.94,-2.79 28.24,-2.69 28.51,-2.59 28.75,-2.49 28.95,-2.38 29.13,-2.27 29.28,-2.16 29.4,-2.05 29.49,-1.93 29.56,-1.82 29.6,-1.7 29.62,-1.59 29.61,-1.47 29.58,-1.36 29.53,-1.24 29.46,-1.13 29.37,-1.01 29.26,-0.9 29.14,-0.79 28.99,-0.68 28.83,-0.57 28.66,-0.46 28.47,-0.35 28.26,-0.25" fill="none" stroke="black" stroke-width="1.6666666666666665" stroke-linejoin="round" filter="url(#fuzzy)" />
      <polyline id="rightLower" points="-28.21,2.21 -28.11,2.25 -27.99,2.29 -27.86,2.34 -27.72,2.4 -27.56,2.45 -27.39,2.52 -27.21,2.58 -27.01,2.65 -26.8,2.72 -26.58,2.79 -26.35,2.86 -26.11,2.93 -25.85,2.99 -25.59,3.06 -25.31,3.13 -25.02,3.19 -24.72,3.26 -24.41,3.32 -24.09,3.37 -23.76,3.43 -23.41,3.48 -23.06,3.53 -22.69,3.57 -22.32,3.61 -21.93,3.65 -21.52,3.73 -21.09,3.81 -20.65,3.87 -20.2,3.93 -19.73,3.98 -19.25,4.02 -18.75,4.05 -18.23,4.07 -17.7,4.08 -17.15,4.09 -16.59,4.08 -16.01,4.07 -15.41,4.05 -14.8,4.03 -14.17,3.99 -13.53,3.95 -12.87,3.91 -12.19,3.85 -11.5,3.8 -10.8,3.73 -10.08,3.67 -9.34,3.6 -8.59,3.52 -7.83,3.44 -7.06,3.36 -6.28,3.28 -5.48,3.19 -4.67,3.1 -3.86,3.01 -3.03,2.92 -2.2,2.82 -1.36,2.73 -0.52,2.63 0.33,2.54 1.19,2.44 2.05,2.34 2.91,2.24 3.77,2.15 4.63,2.05 5.49,1.95 6.35,1.85 7.21,1.75 8.06,1.66 8.91,1.56 9.76,1.46 10.59,1.36 11.42,1.26 12.24,1.16 13.05,1.06 13.85,0.96 14.65,0.85 15.43,0.75 16.22,0.65 16.99,0.54 17.76,0.43 18.52,0.32 19.27,0.21 20.01,0.1 20.75,-0.01 21.47,-0.13 22.19,-0.24 22.9,-0.36 23.59,-0.48 24.28,-0.61 24.96,-0.73 25.62,-0.86 26.28,-0.99 26.92,-1.12 27.56,-1.25 28.18,-1.39 28.79,-1.53 29.39,-1.67 29.98,-1.81 30.57,-1.96" fill="none" stroke="black" stroke-width="2.2222222222222223" stroke-linejoin="round" filter="url(#fuzzy)" />
      <circle r="3.446" cx="6.46460147662817" cy="1.422289979250115" stroke="black" fill="none" stroke-width="1.0" filter="url(#fuzzy)" clip-path="url(#rightEyeClipPath)" /><circle r="3.184" cx="10.359601476628171" cy="-2.0627100207498845" stroke="black" fill="none" stroke-width="1.0" filter="url(#fuzzy)" clip-path="url(#rightEyeClipPath)" /><circle r="3.5460000000000003" cx="10.764601476628169" cy="0.4872899792501153" stroke="black" fill="none" stroke-width="1.0" filter="url(#fuzzy)" clip-path="url(#rightEyeClipPath)" /><circle r="3.678" cx="9.55460147662817" cy="0.587289979250115" stroke="black" fill="none" stroke-width="1.0" filter="url(#fuzzy)" clip-path="url(#rightEyeClipPath)" /><circle r="3.95" cx="10.59460147662817" cy="-0.5277100207498846" stroke="black" fill="none" stroke-width="1.0" filter="url(#fuzzy)" clip-path="url(#rightEyeClipPath)" /><circle r="3.198" cx="6.14960147662817" cy="-0.1077100207498849" stroke="black" fill="none" stroke-width="1.0" filter="url(#fuzzy)" clip-path="url(#rightEyeClipPath)" /><circle r="4.07" cx="6.59960147662817" cy="-1.0477100207498846" stroke="black" fill="none" stroke-width="1.0" filter="url(#fuzzy)" clip-path="url(#rightEyeClipPath)" /><circle r="3.928" cx="10.664601476628171" cy="-0.5177100207498848" stroke="black" fill="none" stroke-width="1.0" filter="url(#fuzzy)" clip-path="url(#rightEyeClipPath)" /><circle r="4.464" cx="8.89460147662817" cy="1.9272899792501148" stroke="black" fill="none" stroke-width="1.0" filter="url(#fuzzy)" clip-path="url(#rightEyeClipPath)" /><circle r="4.992" cx="9.33960147662817" cy="2.087289979250115" stroke="black" fill="none" stroke-width="1.0" filter="url(#fuzzy)" clip-path="url(#rightEyeClipPath)" />
      </g>
    <g transform="translate(-28.92 -26.95)">
      <polyline id="leftUpper" points="30.05,1.71 29.97,1.67 29.89,1.62 29.79,1.58 29.69,1.53 29.57,1.48 29.43,1.43 29.28,1.37 29.1,1.31 28.9,1.24 28.68,1.17 28.43,1.1 28.16,1.03 27.85,0.94 27.52,0.86 27.16,0.77 26.76,0.67 26.34,0.58 25.89,0.47 25.4,0.36 24.88,0.25 24.33,0.14 23.75,0.02 23.13,-0.11 22.49,-0.23 21.81,-0.37 21.27,-0.48 20.66,-0.6 19.99,-0.74 19.26,-0.88 18.47,-1.02 17.63,-1.18 16.73,-1.34 15.78,-1.5 14.78,-1.67 13.74,-1.84 12.66,-2.02 11.54,-2.19 10.39,-2.37 9.2,-2.54 7.99,-2.71 6.76,-2.88 5.52,-3.05 4.25,-3.21 2.98,-3.36 1.7,-3.51 0.42,-3.66 -0.85,-3.79 -2.13,-3.92 -3.39,-4.04 -4.64,-4.15 -5.87,-4.24 -7.09,-4.33 -8.29,-4.41 -9.46,-4.48 -10.6,-4.53 -11.72,-4.58 -12.8,-4.61 -13.85,-4.63 -14.87,-4.64 -15.85,-4.64 -16.79,-4.63 -17.7,-4.61 -18.56,-4.58 -19.39,-4.54 -20.18,-4.49 -20.93,-4.42 -21.64,-4.36 -22.31,-4.28 -22.95,-4.19 -23.55,-4.1 -24.11,-4 -24.64,-3.9 -25.14,-3.79 -25.6,-3.68 -26.04,-3.57 -26.45,-3.46 -26.84,-3.34 -27.19,-3.21 -27.51,-3.08 -27.81,-2.95 -28.08,-2.82 -28.33,-2.68 -28.55,-2.55 -28.75,-2.41 -28.92,-2.27 -29.07,-2.13 -29.2,-1.98 -29.31,-1.84 -29.4,-1.7 -29.47,-1.56 -29.53,-1.42 -29.57,-1.28 -29.59,-1.14 -29.59,-1 -29.58,-0.87 -29.56,-0.73 -29.52,-0.6 -29.47,-0.47 -29.4,-0.34" fill="none" stroke="black" stroke-width="2.2222222222222223" stroke-linejoin="round" filter="url(#fuzzy)" />
      <polyline id="leftLower" points="29.64,2.77 29.53,2.81 29.42,2.86 29.29,2.93 29.15,2.99 28.99,3.07 28.82,3.14 28.64,3.22 28.44,3.31 28.23,3.39 28,3.48 27.76,3.56 27.5,3.65 27.22,3.74 26.93,3.82 26.62,3.9 26.3,3.98 25.96,4.06 25.61,4.13 25.23,4.21 24.84,4.27 24.44,4.34 24.02,4.4 23.58,4.45 23.13,4.5 22.66,4.55 22.21,4.65 21.73,4.74 21.22,4.82 20.69,4.89 20.13,4.95 19.54,5 18.93,5.04 18.3,5.06 17.64,5.08 16.95,5.08 16.25,5.08 15.52,5.06 14.78,5.03 14.01,5 13.23,4.96 12.42,4.91 11.61,4.85 10.77,4.78 9.93,4.71 9.07,4.63 8.2,4.54 7.32,4.45 6.43,4.35 5.54,4.25 4.64,4.15 3.73,4.04 2.83,3.92 1.92,3.81 1,3.69 0.09,3.57 -0.82,3.45 -1.72,3.32 -2.63,3.2 -3.52,3.07 -4.42,2.94 -5.3,2.81 -6.18,2.68 -7.05,2.55 -7.91,2.42 -8.76,2.29 -9.6,2.16 -10.42,2.02 -11.24,1.89 -12.04,1.76 -12.83,1.62 -13.61,1.49 -14.37,1.35 -15.12,1.21 -15.86,1.07 -16.58,0.93 -17.29,0.79 -17.98,0.64 -18.67,0.5 -19.35,0.35 -20.01,0.2 -20.66,0.05 -21.3,-0.11 -21.93,-0.27 -22.55,-0.43 -23.16,-0.59 -23.75,-0.75 -24.34,-0.92 -24.91,-1.09 -25.47,-1.27 -26.02,-1.45 -26.56,-1.63 -27.09,-1.81 -27.6,-2 -28.11,-2.19 -28.6,-2.39 -29.08,-2.58 -29.56,-2.78 -30.02,-2.99 -30.47,-3.2" fill="none" stroke="black" stroke-width="2.2222222222222223" stroke-linejoin="round" filter="url(#fuzzy)" />
      <circle r="3.472" cx="-9.083020388121987" cy="-0.04412333170995719" stroke="black" fill="none" stroke-width="1.0" filter="url(#fuzzy)" clip-path="url(#leftEyeClipPath)" /><circle r="4.604" cx="-10.28802038812199" cy="0.6808766682900425" stroke="black" fill="none" stroke-width="1.0" filter="url(#fuzzy)" clip-path="url(#leftEyeClipPath)" /><circle r="4.736" cx="-9.728020388121989" cy="-0.0391233317099573" stroke="black" fill="none" stroke-width="1.0" filter="url(#fuzzy)" clip-path="url(#leftEyeClipPath)" /><circle r="4.48" cx="-8.968020388121989" cy="-3.3041233317099574" stroke="black" fill="none" stroke-width="1.0" filter="url(#fuzzy)" clip-path="url(#leftEyeClipPath)" /><circle r="3.864" cx="-9.143020388121988" cy="1.0058766682900426" stroke="black" fill="none" stroke-width="1.0" filter="url(#fuzzy)" clip-path="url(#leftEyeClipPath)" /><circle r="4.062" cx="-10.973020388121988" cy="-3.1891233317099577" stroke="black" fill="none" stroke-width="1.0" filter="url(#fuzzy)" clip-path="url(#leftEyeClipPath)" /><circle r="4.004" cx="-7.823020388121988" cy="-0.7741233317099576" stroke="black" fill="none" stroke-width="1.0" filter="url(#fuzzy)" clip-path="url(#leftEyeClipPath)" /><circle r="3.45" cx="-10.923020388121987" cy="-3.2441233317099574" stroke="black" fill="none" stroke-width="1.0" filter="url(#fuzzy)" clip-path="url(#leftEyeClipPath)" /><circle r="3.602" cx="-9.343020388121989" cy="-1.3191233317099575" stroke="black" fill="none" stroke-width="1.0" filter="url(#fuzzy)" clip-path="url(#leftEyeClipPath)" /><circle r="4.034" cx="-7.548020388121988" cy="-2.1841233317099578" stroke="black" fill="none" stroke-width="1.0" filter="url(#fuzzy)" clip-path="url(#leftEyeClipPath)" />
    </g>
    <g id="hairs">
      <polyline points="-29.14,-75.61 -27.55,-76.21 -25.69,-76.34 -23.24,-76.19 -20.02,-75.9 -16.1,-75.44 -11.65,-74.75 -6.78,-73.8 -1.49,-72.62 4.24,-71.26 10.4,-69.79 16.88,-68.27 23.56,-66.76 30.41,-65.27 37.47,-63.66" fill="none" stroke="rgb(62, 19, 134)" stroke-width="2" stroke-linejoin="round" filter="url(#fuzzy)" /><polyline points="-5.29,-84.01 -4.82,-84.12 -4.26,-84.2 -3.59,-84.21 -2.89,-84.18 -2.29,-84.09 -1.91,-83.94 -1.83,-83.72 -2.04,-83.43 -2.51,-83.06 -3.2,-82.61 -4.1,-82.05 -5.26,-81.4 -6.72,-80.64 -8.54,-79.77 -10.75,-78.78 -13.37,-77.67 -16.41,-76.42 -19.89,-75.06 -23.83,-73.57 -28.2,-71.98 -32.96,-70.3" fill="none" stroke="rgb(62, 19, 134)" stroke-width="2" stroke-linejoin="round" filter="url(#fuzzy)" /><polyline points="-36.1,-70.45 -35.15,-71.21 -34.37,-71.85 -33.61,-72.48 -32.87,-73.05 -32.17,-73.53 -31.54,-73.92 -31.01,-74.2 -30.59,-74.38 -30.31,-74.43 -30.17,-74.35 -30.18,-74.13 -30.36,-73.75 -30.73,-73.18 -31.32,-72.41 -32.16,-71.4 -33.28,-70.14 -34.65,-68.63 -36.27,-66.91 -38.12,-64.98 -40.27,-62.81 -42.76,-60.3 -45.64,-57.37 -48.85,-54.17" fill="none" stroke="rgb(62, 19, 134)" stroke-width="2" stroke-linejoin="round" filter="url(#fuzzy)" /><polyline points="-10.28,-83.39 -9.21,-83.55 -8.47,-83.69 -7.56,-83.83 -6.65,-83.95 -5.94,-84.02 -5.5,-84.04 -5.34,-84 -5.45,-83.9 -5.89,-83.73 -6.75,-83.48 -8.15,-83.14 -10.19,-82.71 -12.84,-82.14 -15.95,-81.45" fill="none" stroke="rgb(62, 19, 134)" stroke-width="2" stroke-linejoin="round" filter="url(#fuzzy)" /><polyline points="32.68,-73.44 33.37,-72.53 33.68,-71.8 33.48,-71.19 32.77,-70.58 31.6,-69.91 29.97,-69.14 27.84,-68.3 25.15,-67.43 21.87,-66.54 17.95,-65.65 13.37,-64.77 8.11,-63.89 2.16,-63.02 -4.48,-62.14 -11.8,-61.22 -19.87,-60.21 -28.76,-59 -38.55,-57.47" fill="none" stroke="rgb(62, 19, 134)" stroke-width="2" stroke-linejoin="round" filter="url(#fuzzy)" /><polyline points="44.75,-61.82 46.23,-59.89 47.42,-58.34 48.41,-56.94 49.24,-55.71 49.94,-54.62 50.57,-53.64 51.16,-52.75 51.67,-51.98 52.1,-51.36 52.38,-50.94 52.48,-50.79 52.34,-50.98 51.99,-51.49 51.41,-52.32 50.46,-53.75" fill="none" stroke="rgb(62, 19, 134)" stroke-width="2" stroke-linejoin="round" filter="url(#fuzzy)" /><polyline points="2.05,-84.35 2.15,-84.4 2.54,-84.41 3.28,-84.37 4.15,-84.28 4.94,-84.18 5.54,-84.05 5.89,-83.91 5.98,-83.75 5.77,-83.57 5.26,-83.39 4.43,-83.2 3.26,-83.01 1.72,-82.82 -0.22,-82.62 -2.6,-82.41 -5.47,-82.2 -8.92,-82 -13.08,-81.76" fill="none" stroke="rgb(62, 19, 134)" stroke-width="2" stroke-linejoin="round" filter="url(#fuzzy)" /><polyline points="38.01,-68.82 39.48,-67.4 40.62,-66.35 41.57,-65.4 42.41,-64.48 43.17,-63.59 43.88,-62.75 44.53,-61.98 45.12,-61.26 45.65,-60.61 46.1,-60.06 46.42,-59.63 46.58,-59.39 46.54,-59.39 46.26,-59.67 45.75,-60.24 44.99,-61.13 43.94,-62.34 42.55,-63.89 40.67,-65.9" fill="none" stroke="rgb(62, 19, 134)" stroke-width="2" stroke-linejoin="round" filter="url(#fuzzy)" /><polyline points="-9.81,-83.49 -7.68,-83.84 -5.95,-83.96 -4.5,-84.02 -3.13,-84.03 -1.69,-84.02 -0.15,-83.99 1.43,-83.93 2.95,-83.87 4.32,-83.8 5.5,-83.73 6.52,-83.67 7.41,-83.62 8.18,-83.58 8.79,-83.56 9.16,-83.57 9.24,-83.62 8.95,-83.71 8.15,-83.87" fill="none" stroke="rgb(62, 19, 134)" stroke-width="2" stroke-linejoin="round" filter="url(#fuzzy)" /><polyline points="46.71,-59.21 47.4,-58.44 48.07,-57.51 48.41,-56.91 48.46,-56.64 48.3,-56.63 47.91,-56.86 47.27,-57.36 46.33,-58.17 45.01,-59.37 43.23,-61.03 40.95,-63.19 38.21,-65.81 35.14,-68.85 31.7,-72.43" fill="none" stroke="rgb(62, 19, 134)" stroke-width="2" stroke-linejoin="round" filter="url(#fuzzy)" /><polyline points="44.33,-62.32 44.84,-61.67 45.32,-61.01 45.86,-60.21 46.29,-59.47 46.49,-58.92 46.38,-58.65 45.97,-58.66 45.27,-58.92 44.3,-59.41 43.08,-60.1 41.58,-61.01 39.76,-62.17 37.57,-63.61 34.96,-65.35 31.94,-67.42 28.51,-69.83 24.63,-72.62 20.22,-75.84 15.23,-79.47" fill="none" stroke="rgb(62, 19, 134)" stroke-width="2" stroke-linejoin="round" filter="url(#fuzzy)" /><polyline points="50.3,-54.64 51.41,-52.53 51.69,-51.52 51.29,-51.27 50.37,-51.45 48.97,-51.96 47.03,-52.86 44.48,-54.22 41.28,-56.07 37.41,-58.41 32.89,-61.27 27.73,-64.71 21.94,-68.75 15.43,-73.38 7.94,-78.57" fill="none" stroke="rgb(62, 19, 134)" stroke-width="2" stroke-linejoin="round" filter="url(#fuzzy)" /><polyline points="28.19,-76.12 29.16,-75.67 30.66,-74.71 32.09,-73.67 33.36,-72.65 34.52,-71.67 35.59,-70.76 36.59,-69.94 37.47,-69.22 38.22,-68.6 38.8,-68.1 39.17,-67.78 39.26,-67.7 39.02,-67.94 38.38,-68.59 37.26,-69.68" fill="none" stroke="rgb(62, 19, 134)" stroke-width="2" stroke-linejoin="round" filter="url(#fuzzy)" /><polyline points="-34.75,-71.57 -33.36,-72.56 -31.86,-73.34 -30.03,-74.07 -27.87,-74.8 -25.4,-75.54 -22.67,-76.31 -19.76,-77.11 -16.73,-77.9 -13.6,-78.7 -10.36,-79.51 -7.04,-80.32 -3.74,-81.11 -0.54,-81.85 2.54,-82.53 5.48,-83.21" fill="none" stroke="rgb(62, 19, 134)" stroke-width="2" stroke-linejoin="round" filter="url(#fuzzy)" /><polyline points="51.94,-51.79 52.61,-50.58 52.86,-50.01 52.96,-49.51 52.95,-49.06 52.74,-48.77 52.28,-48.73 51.55,-48.96 50.55,-49.46 49.26,-50.25 47.68,-51.35 45.77,-52.79 43.52,-54.55 40.89,-56.64 37.86,-59.1 34.39,-61.95 30.49,-65.24 26.14,-69.01 21.23,-73.31 15.75,-78.15" fill="none" stroke="rgb(62, 19, 134)" stroke-width="2" stroke-linejoin="round" filter="url(#fuzzy)" /><polyline points="55.37,-45.44 56.08,-43.52 56.44,-42.37 56.44,-41.75 56.17,-41.35 55.69,-41.03 54.99,-40.8 54.03,-40.71 52.78,-40.81 51.21,-41.16 49.3,-41.78 47.05,-42.67 44.45,-43.83 41.5,-45.28 38.18,-47.01 34.49,-49.04 30.41,-51.38 25.95,-54.03 21.09,-56.98 15.81,-60.23 10.08,-63.79 3.89,-67.68 -2.78,-71.95 -10.03,-76.53" fill="none" stroke="rgb(62, 19, 134)" stroke-width="2" stroke-linejoin="round" filter="url(#fuzzy)" /><polyline points="35.95,-70.58 36.19,-70.59 36.79,-70.08 37.53,-69.36 38.23,-68.66 38.78,-68.09 39.13,-67.68 39.23,-67.47 39.05,-67.46 38.56,-67.69 37.74,-68.17 36.58,-68.93 35.05,-69.99 33.15,-71.34 30.85,-73 28.03,-75.02 24.5,-77.5" fill="none" stroke="rgb(62, 19, 134)" stroke-width="2" stroke-linejoin="round" filter="url(#fuzzy)" /><polyline points="42.69,-64.12 43.87,-62.78 44.54,-61.94 45.04,-61.22 45.46,-60.52 45.72,-59.92 45.74,-59.49 45.48,-59.32 44.92,-59.41 44.07,-59.73 42.96,-60.28 41.55,-61.04 39.84,-62.01 37.8,-63.22 35.41,-64.69 32.64,-66.44 29.49,-68.49 25.93,-70.87 21.95,-73.61 17.49,-76.75 12.43,-80.25" fill="none" stroke="rgb(62, 19, 134)" stroke-width="2" stroke-linejoin="round" filter="url(#fuzzy)" /><polyline points="-22.34,-79.46 -20.84,-80.07 -19.57,-80.58 -18.39,-81.04 -17.22,-81.47 -16.08,-81.86 -15,-82.19 -14.07,-82.46 -13.32,-82.66 -12.82,-82.8 -12.61,-82.84 -12.74,-82.8 -13.25,-82.64 -14.18,-82.36 -15.53,-81.94 -17.25,-81.36" fill="none" stroke="rgb(62, 19, 134)" stroke-width="2" stroke-linejoin="round" filter="url(#fuzzy)" /><polyline points="-20.57,-80.22 -19.39,-80.54 -17.9,-80.73 -16.01,-80.81 -13.73,-80.75 -11.14,-80.56 -8.29,-80.24 -5.22,-79.83 -1.98,-79.33 1.4,-78.77 4.88,-78.17 8.45,-77.53 12.09,-76.87 15.78,-76.2 19.51,-75.5 23.24,-74.73 26.9,-73.88 30.35,-73.06" fill="none" stroke="rgb(62, 19, 134)" stroke-width="2" stroke-linejoin="round" filter="url(#fuzzy)" /><polyline points="40.93,-66.07 41.6,-65.56 42.35,-64.63 43.12,-63.66 43.88,-62.72 44.64,-61.78 45.41,-60.81 46.19,-59.83 46.95,-58.87 47.64,-57.99 48.18,-57.29 48.51,-56.86 48.56,-56.77 48.32,-57.06 47.8,-57.71 47.05,-58.68 46.08,-59.92 44.78,-61.55" fill="none" stroke="rgb(62, 19, 134)" stroke-width="2" stroke-linejoin="round" filter="url(#fuzzy)" /><polyline points="1.88,-84.57 3.3,-84.29 5.25,-83.81 7.37,-83.14 9.62,-82.28 12.03,-81.27 14.59,-80.12 17.29,-78.84 20.1,-77.47 22.99,-76.03 25.91,-74.56 28.8,-73.11 31.59,-71.72 34.22,-70.4 36.48,-69.3" fill="none" stroke="rgb(62, 19, 134)" stroke-width="2" stroke-linejoin="round" filter="url(#fuzzy)" /><polyline points="28.53,-76.22 30.38,-74.98 31.41,-74.13 31.87,-73.47 31.97,-72.92 31.77,-72.46 31.26,-72.08 30.45,-71.75 29.33,-71.45 27.88,-71.16 26.1,-70.9 23.96,-70.7 21.39,-70.56 18.37,-70.51 14.85,-70.54 10.83,-70.67 6.31,-70.89 1.3,-71.2 -4.21,-71.59 -10.26,-72.04 -16.84,-72.57 -23.89,-73.28" fill="none" stroke="rgb(62, 19, 134)" stroke-width="2" stroke-linejoin="round" filter="url(#fuzzy)" /><polyline points="57.37,-41.27 57.69,-40.37 58.12,-39.21 58.59,-37.99 59.03,-36.86 59.38,-35.88 59.61,-35.11 59.72,-34.58 59.7,-34.33 59.54,-34.38 59.25,-34.74 58.82,-35.45 58.2,-36.55 57.4,-38.08 56.4,-40.06 55.21,-42.46 53.85,-45.29 52.33,-48.55 50.72,-52.22" fill="none" stroke="rgb(62, 19, 134)" stroke-width="2" stroke-linejoin="round" filter="url(#fuzzy)" /><polyline points="-37.24,-69.55 -35.96,-70.36 -34.4,-71.03 -32.51,-71.6 -30.26,-72.12 -27.64,-72.57 -24.7,-72.96 -21.45,-73.31 -17.94,-73.61 -14.18,-73.89 -10.22,-74.14 -6.08,-74.35 -1.78,-74.51 2.68,-74.65 7.27,-74.77 11.92,-74.89 16.53,-75.01 21,-75.15 25.12,-75.47" fill="none" stroke="rgb(62, 19, 134)" stroke-width="2" stroke-linejoin="round" filter="url(#fuzzy)" /><polyline points="14.24,-82.47 16.12,-81.84 16.79,-81.38 16.81,-80.92 16.39,-80.38 15.62,-79.71 14.49,-78.91 12.97,-77.96 11.01,-76.85 8.54,-75.59 5.54,-74.19 1.98,-72.65 -2.17,-70.98 -6.96,-69.17 -12.43,-67.2 -18.59,-65.02 -25.41,-62.6 -32.82,-60.06 -40.82,-57.58" fill="none" stroke="rgb(62, 19, 134)" stroke-width="2" stroke-linejoin="round" filter="url(#fuzzy)" /><polyline points="-10.28,-83.39 -9.06,-83.51 -7.87,-83.52 -6.19,-83.46 -4.19,-83.33 -2.07,-83.14 0.13,-82.88 2.41,-82.59 4.77,-82.27 7.2,-81.92 9.61,-81.55 11.91,-81.18 14.01,-80.83 15.92,-80.54 17.72,-80.29 19.44,-80.08 20.87,-79.96" fill="none" stroke="rgb(62, 19, 134)" stroke-width="2" stroke-linejoin="round" filter="url(#fuzzy)" /><polyline points="34.57,-71.78 35.27,-71.06 35.21,-70.58 34.73,-69.95 33.82,-69.15 32.4,-68.26 30.39,-67.35 27.76,-66.43 24.44,-65.51 20.42,-64.6 15.67,-63.69 10.17,-62.77 3.94,-61.82 -3.07,-60.79 -10.85,-59.63 -19.42,-58.35 -28.72,-57.06 -38.69,-55.98" fill="none" stroke="rgb(62, 19, 134)" stroke-width="2" stroke-linejoin="round" filter="url(#fuzzy)" /><polyline points="29.26,-75.83 28.9,-75.89 29.58,-75.43 30.75,-74.66 31.95,-73.81 33.04,-72.98 33.98,-72.24 34.78,-71.6 35.45,-71.08 35.98,-70.66 36.36,-70.34 36.59,-70.12 36.63,-70.03 36.42,-70.15 35.92,-70.51 35.03,-71.17 33.71,-72.13 32.02,-73.36 30.3,-74.69" fill="none" stroke="rgb(62, 19, 134)" stroke-width="2" stroke-linejoin="round" filter="url(#fuzzy)" /><polyline points="27.15,-76.99 28.31,-76.27 28.99,-75.77 29.96,-75.07 31.19,-74.16 32.5,-73.14 33.78,-72.1 34.96,-71.11 36.05,-70.19 37.04,-69.36 37.95,-68.6 38.78,-67.89 39.53,-67.25 40.17,-66.68 40.67,-66.24 40.99,-65.99 41.06,-65.95 40.83,-66.16 40.3,-66.65 39.46,-67.46 38.25,-68.68" fill="none" stroke="rgb(62, 19, 134)" stroke-width="2" stroke-linejoin="round" filter="url(#fuzzy)" /><polyline points="38.01,-68.82 39.22,-67.47 39.61,-66.59 39.3,-65.9 38.36,-65.3 36.8,-64.78 34.65,-64.33 31.91,-63.93 28.59,-63.55 24.68,-63.18 20.14,-62.81 14.94,-62.46 8.97,-62.19 2.18,-62.02 -5.48,-61.96 -13.95,-62 -23.17,-62.16 -33.15,-62.44" fill="none" stroke="rgb(62, 19, 134)" stroke-width="2" stroke-linejoin="round" filter="url(#fuzzy)" /><polyline points="53.06,-49.64 53.74,-48.07 53.52,-47.2 52.4,-47.01 50.51,-47.22 47.88,-47.75 44.49,-48.65 40.28,-49.99 35.2,-51.78 29.26,-54 22.44,-56.63 14.64,-59.67 5.75,-63.13 -4.31,-67.03 -15.24,-71.56" fill="none" stroke="rgb(62, 19, 134)" stroke-width="2" stroke-linejoin="round" filter="url(#fuzzy)" /><polyline points="44.33,-62.32 44.8,-61.68 45.18,-61.04 45.56,-60.29 45.77,-59.59 45.68,-59.09 45.22,-58.86 44.39,-58.89 43.22,-59.15 41.73,-59.62 39.94,-60.27 37.83,-61.11 35.34,-62.16 32.42,-63.43 29.05,-64.94 25.2,-66.72 20.9,-68.78 16.15,-71.15 10.89,-73.83 5,-76.81 -1.79,-80.04" fill="none" stroke="rgb(62, 19, 134)" stroke-width="2" stroke-linejoin="round" filter="url(#fuzzy)" /><polyline points="53.01,-49.79 53.11,-49.72 53.22,-49.3 53.29,-48.76 53.14,-48.43 52.67,-48.46 51.87,-48.84 50.73,-49.57 49.24,-50.68 47.35,-52.23 45.03,-54.22 42.28,-56.64 39.11,-59.5 35.52,-62.83 31.45,-66.69 26.81,-71.15 21.3,-76.31" fill="none" stroke="rgb(62, 19, 134)" stroke-width="2" stroke-linejoin="round" filter="url(#fuzzy)" /><polyline points="41.88,-64.81 43.02,-63.73 43.66,-62.99 44.37,-62.11 45.19,-61.06 46.09,-59.89 47.04,-58.65 47.96,-57.42 48.79,-56.3 49.47,-55.36 49.99,-54.63 50.34,-54.12 50.56,-53.8 50.64,-53.68 50.59,-53.75 50.39,-54.06 49.97,-54.69 49.23,-55.79 48.07,-57.42" fill="none" stroke="rgb(62, 19, 134)" stroke-width="2" stroke-linejoin="round" filter="url(#fuzzy)" /><polyline points="53.06,-49.64 53.86,-48.07 54.01,-47.21 53.51,-47.06 52.48,-47.35 50.97,-48.02 48.94,-49.12 46.3,-50.75 43.02,-52.92 39.05,-55.61 34.39,-58.82 29.04,-62.59 23.04,-66.98 16.48,-72.03 9.29,-77.81" fill="none" stroke="rgb(62, 19, 134)" stroke-width="2" stroke-linejoin="round" filter="url(#fuzzy)" /><polyline points="2.83,-84.33 25.01,-64.89 23.67,-62.25 15.89,-63.81 5.81,-66.44 -2.63,-67.98 -6.76,-68.13 -6.57,-68.05 -4.05,-68.81 -1.26,-70.21 1.12,-70.98 3.69,-69.88 6.95,-66.72 10.17,-62.73 11.85,-59.99 12.07,-60.21 12.92,-63.2 8.98,-66.71 -33.05,-72.94" fill="none" stroke="rgb(62, 19, 134)" stroke-width="2" stroke-linejoin="round" filter="url(#fuzzy)" /><polyline points="-41.09,-65.58 -3.36,-58.26 -7.31,-61.8 -11.01,-65.74 -9.03,-68.53 -4.69,-70.3 -0.57,-70.98 3.18,-70.6 7.14,-69.68 11.03,-68.87 13.86,-68.53 15.05,-68.37 15.23,-67.67 15.77,-65.87 17.54,-63.1 19.75,-60.34 20.18,-58.96 16.63,-59.97 8.79,-63.36 -1.05,-68.11 -9.41,-72.71 -14,-75.85 -13.77,-76.63 -4.01,-74.68 34.57,-71.78" fill="none" stroke="rgb(62, 19, 134)" stroke-width="2" stroke-linejoin="round" filter="url(#fuzzy)" /><polyline points="41.88,-64.81 31.66,-57.18 22.55,-58.05 23.64,-59.98 26.13,-61.85 26.28,-63.4 24.49,-64.81 21.93,-66.47 18.96,-68.58 15.06,-70.89 9.58,-72.83 2.67,-73.96 -4.26,-74.33 -9.06,-74.37 -10.24,-74.53 -8.35,-74.56 -5.69,-73.26 -3.12,-69.14 3.69,-62.72 21.09,-60.24 28.19,-76.12" fill="none" stroke="rgb(62, 19, 134)" stroke-width="2" stroke-linejoin="round" filter="url(#fuzzy)" /><polyline points="-33.05,-72.94 -12.65,-72.36 1.72,-70.66 4.62,-69.74 6.46,-68.67 10.77,-67.21 14.48,-65.99 14.66,-65.75 12.13,-66.35 10.27,-66.76 11.34,-66.29 14.17,-65.58 15.59,-65.73 14.57,-66.05 10.82,-65.96 -22.34,-79.46" fill="none" stroke="rgb(62, 19, 134)" stroke-width="2" stroke-linejoin="round" filter="url(#fuzzy)" /><polyline points="29.26,-75.83 39.44,-64.55 36.88,-66.56 30.34,-69.79 20.94,-72.11 10.21,-73.41 0.67,-73.84 -5.4,-73.67 -6.96,-73.1 -4.54,-72.18 0.02,-70.87 4.63,-69.35 8.18,-68.02 11.02,-67.15 14.11,-66.51 17.26,-65.58 18.08,-64.23 13.14,-63.36 1.48,-64.47 -11.91,-68.15 -19.35,-72.87 -34.78,-71.47" fill="none" stroke="rgb(62, 19, 134)" stroke-width="2" stroke-linejoin="round" filter="url(#fuzzy)" /><polyline points="28.19,-76.12 39.61,-59.28 26.73,-63.61 9.93,-70.04 0.87,-72.91 1.76,-72.02 7.98,-69.01 12.64,-66.1 11.16,-65.16 3.6,-66.65 -6.52,-69.29 -15.26,-71.19 -19.68,-71.6 -15.61,-70.94 5.29,-67.09 54.11,-47.88" fill="none" stroke="rgb(62, 19, 134)" stroke-width="2" stroke-linejoin="round" filter="url(#fuzzy)" /><polyline points="51.22,-52.35 22.88,-71.25 7.63,-77.99 -2.15,-78.97 -9.9,-76.86 -13.39,-73.3 -9.87,-69.28 0.43,-65.2 14.11,-61.35 26.42,-58.29 33.36,-56.81 32.88,-57.48 25.25,-60.23 13.04,-64.21 1.03,-68.08 -4.8,-70.5 0.22,-70.61 15.91,-67.78 36.14,-59.14 60.72,-31.93" fill="none" stroke="rgb(62, 19, 134)" stroke-width="2" stroke-linejoin="round" filter="url(#fuzzy)" /><polyline points="53.06,-49.64 11.57,-56.25 9.64,-62.18 12.65,-66.19 16.58,-67.15 18.71,-66.93 16.93,-67.22 12.15,-68.14 7.5,-68.75 5.76,-68.11 7.81,-65.8 12.69,-61.99 18.84,-57.42 24.85,-53.23 29.43,-50.7 31.29,-50.68 30.31,-52.79 29.74,-54.85 35.78,-53.48 49.71,-46.39 60.29,-33.58" fill="none" stroke="rgb(62, 19, 134)" stroke-width="2" stroke-linejoin="round" filter="url(#fuzzy)" /><polyline points="-37.24,-69.55 -0.56,-71.18 3.36,-67.34 5.71,-62.15 10.4,-59.62 14.61,-59.51 16.71,-60.49 16.62,-62.07 14.73,-64.35 11.75,-67.13 8.78,-69.66 6.91,-71.06 6.43,-70.84 6.53,-69.29 5.79,-67.42 3.09,-66.53 -2.3,-67.29 -11.03,-68.94 -21.96,-69.97 -26.78,-71.86 -7.43,-84.08" fill="none" stroke="rgb(62, 19, 134)" stroke-width="2" stroke-linejoin="round" filter="url(#fuzzy)" /><polyline points="1.11,-84.49 30.01,-66.51 34.65,-64.11 34.69,-63.3 32.73,-62.19 26.67,-62.14 17.27,-63.45 8.25,-65.29 3.18,-66.89 2.91,-68.18 5.53,-69.63 8.21,-71.48 9.56,-73.31 10.39,-74.07 12.45,-72.7 16.01,-68.9 18.42,-63.84 16.12,-60.3 10.91,-61.43 16.66,-66.09 47.18,-58.94" fill="none" stroke="rgb(62, 19, 134)" stroke-width="2" stroke-linejoin="round" filter="url(#fuzzy)" /><polyline points="-1.11,-84.48 23.45,-66.44 13.7,-69.08 0.18,-72.03 -6.1,-71.95 -5.86,-70.19 -4.47,-68.33 -5.81,-67.07 -9.65,-66.48 -13.28,-66.49 -14.84,-67.09 -14.96,-68.23 -15.25,-69.57 -15.13,-70.23 -10.15,-68.76 5.97,-63.5 34.4,-53.69 55.53,-45.17" fill="none" stroke="rgb(62, 19, 134)" stroke-width="2" stroke-linejoin="round" filter="url(#fuzzy)" /><polyline points="6.39,-84.1 4.75,-81.62 10.36,-76 14.28,-73.29 13.33,-74.07 10.43,-75.87 8.87,-76.62 10.17,-75.58 14.07,-73.12 19.07,-70.19 23.04,-67.83 24.02,-66.73 21.2,-66.98 15.4,-67.97 9.06,-68.83 5.47,-68.82 7.98,-67.71 18.75,-65.54 34.09,-63.58 32.68,-73.44" fill="none" stroke="rgb(62, 19, 134)" stroke-width="2" stroke-linejoin="round" filter="url(#fuzzy)" /><polyline points="-20.57,-80.22 -4.57,-81.74 8.13,-78.97 18.03,-74.56 22.25,-69.86 20.7,-65.49 16.24,-61.94 13.14,-59.42 14.23,-57.82 18.69,-56.99 22.3,-56.97 20.35,-58 11.39,-60.48 -0.6,-64.71 -7.84,-70.55 -5.12,-76.82 0.9,-81.23 -12.17,-83.19" fill="none" stroke="rgb(62, 19, 134)" stroke-width="2" stroke-linejoin="round" filter="url(#fuzzy)" /><polyline points="-49.05,-55.77 -23.75,-69.9 1.22,-72.66 17.84,-72.29 24.56,-72.8 24.02,-74.3 19.52,-75.81 13.76,-76.77 9.07,-77.15 7.48,-76.91 10.37,-75.74 17.73,-73.07 27.37,-68.58 34.03,-63.66 27.48,-64.21 -11.45,-83.09" fill="none" stroke="rgb(62, 19, 134)" stroke-width="2" stroke-linejoin="round" filter="url(#fuzzy)" /><polyline points="-51.4,-52.75 -8.52,-68.2 -1.4,-74.06 2.44,-74 7.79,-71.99 12.49,-70.51 15.07,-70.14 15.51,-70.28 14.6,-70.37 13.47,-70.36 13.08,-70.62 13.86,-71.45 15.56,-72.77 17.6,-74.13 19.5,-74.9 21.23,-74.61 22.97,-73.09 24.69,-70.74 25.81,-68.48 25.71,-67.45 25.04,-67.98 26.56,-68.58 33.26,-66.13 44.1,-58.04 57.83,-39.8" fill="none" stroke="rgb(62, 19, 134)" stroke-width="2" stroke-linejoin="round" filter="url(#fuzzy)" /><polyline points="17.38,-81.61 13.31,-70.73 -7.23,-68.64 -16.67,-69.32 -14.06,-70.31 -6.42,-70.1 0.02,-68.33 2.64,-65.94 1.55,-64.53 -2.25,-65.06 -7.88,-66.98 -14.05,-68.63 -16.98,-68.74 -8.95,-66.98 18.09,-60.1 60.72,-31.93" fill="none" stroke="rgb(62, 19, 134)" stroke-width="2" stroke-linejoin="round" filter="url(#fuzzy)" /><polyline points="-48.58,-57.01 -26.35,-70.42 -4.5,-73.6 10.57,-72.33 15.08,-70.26 9.96,-68.95 -0.68,-68.52 -12,-68.54 -20.21,-68.62 -23.34,-68.7 -21.12,-68.94 -14.8,-69.42 -6.79,-70.03 0.04,-70.48 3.49,-70.52 3.03,-70.03 -0.08,-69.1 -4.05,-68.02 -8.32,-67.48 -13.22,-68.51 -16.05,-72.01 -7.41,-77.54 19.26,-80.9" fill="none" stroke="rgb(62, 19, 134)" stroke-width="2" stroke-linejoin="round" filter="url(#fuzzy)" /><polyline points="32.68,-73.44 26.36,-74.07 23.43,-70.09 21.57,-66.69 19.78,-64.7 16.42,-63.28 11.06,-61.97 4.75,-61.28 -0.82,-61.88 -4.56,-63.85 -6.45,-66.69 -7.21,-69.71 -7.6,-72.37 -7.89,-74.32 -7.99,-75.35 -7.66,-75.29 -6.87,-74.21 -5.98,-72.49 -5.66,-70.74 -5.97,-69.39 -5.02,-68.42 1.23,-67.49 15.3,-66.23 33.05,-62.85 55.53,-45.17" fill="none" stroke="rgb(62, 19, 134)" stroke-width="2" stroke-linejoin="round" filter="url(#fuzzy)" /><polyline points="-4.31,-84.44 5.37,-79.36 12.08,-71.5 17.77,-67.38 19.44,-67.89 17.03,-70.83 12.39,-73.87 7.71,-75.42 4.42,-74.86 2.83,-72.46 2.62,-69.12 3.56,-65.86 5.93,-63.22 10.38,-61.12 17.17,-59.18 25.32,-57.32 32.35,-56 35.04,-55.95 30.88,-57.4 19.45,-59.75 4.39,-61.59 0.46,-60.57 48.9,-56.41" fill="none" stroke="rgb(62, 19, 134)" stroke-width="2" stroke-linejoin="round" filter="url(#fuzzy)" /><polyline points="-31.5,-74.34 5.34,-72.71 20.35,-67.74 26.81,-63.14 24.32,-62.78 16.13,-65.82 7.66,-69.77 2.82,-72.94 2.57,-74.87 5.5,-75.84 9.26,-76.31 11.71,-76.6 11.6,-76.7 8.58,-76.46 3.1,-75.79 -3.59,-74.88 -9.47,-74.21 -12.07,-74.22 -9.49,-74.74 -1.35,-74.53 10.72,-71.7 22.45,-65.9 22.32,-62.7 -18.52,-81.12" fill="none" stroke="rgb(62, 19, 134)" stroke-width="2" stroke-linejoin="round" filter="url(#fuzzy)" /><polyline points="46.71,-59.21 37.1,-52.93 22.87,-62.19 18.82,-68.17 18.01,-69.99 15.7,-70.33 11.88,-70.74 7.94,-71.46 4.39,-72.27 1.07,-73.05 -1.73,-73.8 -2.88,-74.54 -1.44,-75.44 1.81,-76.95 4.29,-79.37 4.52,-82.09 5.56,-83.6 10.28,-83.4" fill="none" stroke="rgb(62, 19, 134)" stroke-width="2" stroke-linejoin="round" filter="url(#fuzzy)" /><polyline points="27.15,-76.99 9.42,-71.18 -5.33,-65.64 -4.66,-63.61 3.24,-63.55 12.68,-63.07 21.31,-61.12 27.23,-58.59 28.86,-57.09 26.06,-57.37 20.45,-58.8 14.16,-60.23 8.2,-61.13 2.02,-62.12 -5.03,-64.28 -11.44,-67.99 -12.77,-72.02 -3.87,-72.86 18.72,-63.01 62.31,-27.15" fill="none" stroke="rgb(62, 19, 134)" stroke-width="2" stroke-linejoin="round" filter="url(#fuzzy)" /><polyline points="38.95,-68.15 43.7,-61.96 43.99,-61.27 44.22,-58.85 42.19,-55.61 36.4,-53.69 28.68,-53.73 22.46,-55.07 19.95,-56.87 20.97,-58.78 23.66,-60.94 26.01,-63.57 26.84,-66.67 25.9,-69.94 23.42,-72.85 19.66,-74.83 14.7,-75.46 8.6,-74.46 1.86,-71.8 -4.47,-67.81 -9.6,-63.38 -14.76,-60.2 -23.48,-60.3 -35.36,-64.25 -39.48,-67.66" fill="none" stroke="rgb(62, 19, 134)" stroke-width="2" stroke-linejoin="round" filter="url(#fuzzy)" />
    </g>
    
        <g id="lineNose">
        <path d="M -9.96,28.54 Q 10.49, 38.595 0.2649999999999997, -5.246" fill="none" stroke="black" stroke-width="3" stroke-linejoin="round" filter="url(#fuzzy)"></path>
        </g>
      
    <g id="mouth">
      <polyline points="-33.78,70.3 -33.45,69.24 -33.1,68.2 -32.73,67.18 -32.35,66.18 -31.94,65.21 -31.52,64.25 -31.09,63.32 -30.63,62.41 -30.16,61.52 -29.68,60.65 -29.17,59.81 -28.66,58.98 -28.13,58.18 -27.58,57.4 -27.02,56.64 -26.45,55.9 -25.86,55.18 -25.26,54.49 -24.65,53.81 -24.02,53.16 -23.39,52.53 -22.74,51.92 -22.08,51.33 -21.42,50.76 -20.74,50.21 -20.05,49.68 -19.35,49.18 -18.65,48.69 -17.93,48.23 -17.21,47.79 -16.48,47.37 -15.74,46.97 -15,46.59 -14.25,46.23 -13.49,45.89 -12.73,45.57 -11.96,45.28 -11.19,45 -10.41,44.75 -9.63,44.51 -8.84,44.3 -8.05,44.11 -7.26,43.93 -6.46,43.78 -5.67,43.65 -4.87,43.54 -4.07,43.45 -3.26,43.38 -2.46,43.33 -1.66,43.3 -0.86,43.29 -0.05,43.3 0.75,43.33 1.55,43.39 2.35,43.46 3.14,43.55 3.94,43.66 4.73,43.8 5.52,43.95 6.3,44.12 7.08,44.32 7.86,44.53 8.63,44.76 9.39,45.02 10.15,45.29 10.91,45.58 11.66,45.9 12.4,46.23 13.13,46.58 13.86,46.95 14.58,47.35 15.29,47.76 15.99,48.19 16.69,48.64 17.37,49.11 18.04,49.6 18.71,50.11 19.36,50.64 20,51.19 20.63,51.76 21.25,52.35 21.86,52.96 22.45,53.58 23.03,54.23 23.6,54.9 24.16,55.58 24.7,56.29 25.22,57.01 25.73,57.75 26.23,58.52 26.71,59.3 27.17,60.1 27.62,60.92 28.05,61.76 28.46,62.62 28.86,63.49 29.24,64.39 29.59,65.3 29.93,66.24 29.93,66.24 29.3,65.6 28.66,64.97 28.02,64.35 27.39,63.75 26.75,63.16 26.11,62.59 25.48,62.03 24.84,61.48 24.2,60.94 23.56,60.42 22.93,59.91 22.29,59.42 21.65,58.94 21.02,58.47 20.38,58.02 19.74,57.58 19.1,57.15 18.47,56.74 17.83,56.34 17.19,55.95 16.56,55.58 15.92,55.22 15.28,54.87 14.64,54.54 14.01,54.22 13.37,53.92 12.73,53.63 12.1,53.35 11.46,53.09 10.82,52.84 10.18,52.61 9.55,52.39 8.91,52.18 8.27,51.99 7.64,51.81 7,51.64 6.36,51.49 5.72,51.36 5.09,51.23 4.45,51.12 3.81,51.03 3.18,50.95 2.54,50.88 1.9,50.83 1.26,50.79 0.63,50.77 -0.01,50.76 -0.65,50.76 -1.28,50.78 -1.92,50.81 -2.56,50.86 -3.19,50.92 -3.83,50.99 -4.47,51.08 -5.11,51.19 -5.74,51.31 -6.38,51.44 -7.02,51.59 -7.65,51.75 -8.29,51.92 -8.93,52.12 -9.57,52.32 -10.2,52.54 -10.84,52.77 -11.48,53.02 -12.11,53.29 -12.75,53.56 -13.39,53.86 -14.03,54.16 -14.66,54.49 -15.3,54.82 -15.94,55.17 -16.57,55.54 -17.21,55.92 -17.85,56.32 -18.49,56.73 -19.12,57.15 -19.76,57.59 -20.4,58.05 -21.03,58.52 -21.67,59 -22.31,59.5 -22.95,60.01 -23.58,60.54 -24.22,61.09 -24.86,61.65 -25.49,62.22 -26.13,62.81 -26.77,63.41 -27.4,64.03 -28.04,64.67 -28.68,65.32 -29.32,65.98 -29.95,66.66 -30.59,67.36 -31.23,68.07 -31.86,68.79 -32.5,69.53 -33.14,70.29" fill="rgb(102, 204, 140)" stroke="black" stroke-width="3" stroke-linejoin="round" filter="url(#fuzzy)" />
    </g>
  </svg>