<svg xmlns="http://www.w3.org/2000/svg" width="500" height="500" viewBox="-100 -100 200 200"><defs><clipPath id="c"><path d="m33.77-6.26-.18-.14-.21-.13-.24-.13-.28-.12-.3-.12-.34-.12-.37-.11-.4-.1-.45-.1-.47-.1-.52-.09-.55-.09-.59-.08-.62-.07-.66-.07-.49-.11-.56-.1-.63-.09-.71-.09-.77-.07-.83-.06-.91-.06-.96-.04-1.03-.04-1.08-.03-1.13-.02-1.19-.01h-2.5l-1.31.02-1.34.02-1.37.03-1.4.03-1.41.05-1.44.05-1.44.06-1.45.06-1.46.08-1.45.07-1.45.09-1.44.09-1.43.1-1.41.11-1.4.11-1.37.11-1.35.13-1.32.13-1.29.13-1.26.14-1.22.15-1.19.15-1.14.16-1.11.17-1.07.17-1.03.18-.98.18-.94.19-.9.19-.86.21-.82.2-.77.22-.74.22-.69.23-.66.23-.63.24-.59.25-.55.25-.52.27-.48.27-.45.27-.41.29-.38.3-.35.3-.32.31-.28.32-.25.32-.23.34-.19.34-.17.36-1.57.66.47.3.5.3.51.3.53.3.56.3.58.3.59.3.62.3.65.29.66.29.69.29.71.28.73.27.75.27.78.27.81.26.82.26.86.25.88.24.91.24.93.22.97.21.99.2 1.01.19 1.04.17 1.07.16 1.09.13 1.11.12 1.14.1 1.16.09 1.18.06 1.19.04 1.21.02h1.23l1.24-.02 1.24-.05 1.26-.06 1.26-.09 1.27-.11 1.27-.13 1.26-.15 1.26-.17 1.26-.19 1.25-.21 1.23-.22 1.22-.25 1.2-.26 1.18-.27 1.16-.29 1.13-.3 1.1-.31 1.08-.33 1.04-.33 1-.34.96-.34.93-.35.88-.35.84-.35.8-.35.75-.35.7-.35.65-.34.61-.33.56-.33.64-.31.62-.3.59-.3.57-.3.54-.3.52-.3.5-.29.46-.28.45-.28.42-.28.4-.27.37-.27.36-.26.33-.25.31-.25"/></clipPath><clipPath id="b"><path d="m-32.59-5.21.17-.18.21-.18.23-.17.27-.16.3-.16.33-.15.37-.15.4-.14.44-.13.48-.13.51-.11.55-.12.58-.1.63-.1.66-.09.48-.14.56-.13.63-.12.7-.1.77-.1.83-.08.91-.07.96-.06 1.03-.05 1.09-.04 1.14-.02 1.18-.02h2.51l1.32.01 1.34.03 1.38.03 1.39.04 1.42.06 1.44.06 1.44.07 1.45.07 1.45.09 1.45.09 1.44.1 1.43.11 1.41.12 1.4.12 1.37.13 1.35.14 1.32.14 1.29.15 1.25.16 1.22.16 1.17.18 1.14.17 1.09.19 1.05.19 1 .19.96.21.91.2.86.22.81.22.77.23.71.24.67.24.63.25.58.25.54.27.49.27.46.27.41.29.37.29.33.3.29.31.25.32.21.33.16.33.13.35.09.35.06.36.01.38-.01.38-.06.38L34.23.57l-.53.24-.55.26-.57.25-.59.25-.61.25-.63.26-.65.25-.67.26-.7.25-.71.25-.74.25-.76.25-.78.25-.8.24-.82.24-.84.24-.87.23-.9.24-.91.23-.95.22-.96.22-.99.21-1.02.2-1.04.19-1.05.18-1.09.18-1.1.15-1.11.15-1.14.13-1.16.12-1.16.11-1.19.09-1.19.07-1.2.05-1.21.04-1.22.03H.6l-1.22-.01-1.23-.03-1.22-.05-1.21-.07-1.21-.08-1.19-.11-1.19-.12L-9.04 7l-1.15-.16-1.13-.17-1.11-.19-1.09-.2-1.06-.22-1.03-.23-1-.24-.97-.26-.93-.27-.89-.28-.86-.29-.82-.29-.78-.31-.73-.31-.69-.32-.65-.32-.61-.33-.56-.32-.51-.33-.6-.28-.57-.28-.55-.28-.53-.29-.5-.28-.48-.29-.46-.28-.43-.29-.42-.29-.39-.28-.37-.28-.35-.28-.34-.28-.31-.27-.3-.27"/></clipPath><filter id="a"><feTurbulence baseFrequency=".05" numOctaves="3" result="noise" type="noise"/><feDisplacementMap in="SourceGraphic" in2="noise" scale="2"/></filter></defs><rect width="100%" height="100%" x="-100" y="-100" fill="#F08080"/><path fill="olive" stroke="#000" stroke-linejoin="round" stroke-width="1.667" d="m79.17 2.05-.1-.41-.03.01.29 2.15-.08 1.95-.23 1.49-.42 1.34.24-.07-.36 1.52-.23 3.36-.19.95-.14-.98.02 2.32-.62 1.35-.27 1.6.67-1.53-1.34 3.84.41.51-1.04 2.93-.45 1.01-.1.38-.09-.33-.19 1.58-.9 2.71-.46.49-.99 2.59-.08-.54.05.37-.8 1.86.01.41-1.34 2.51-.1.82-1.64 1.9-.91 2.01.79-.85-.75.94-.95.94-.31 1.37-1.2 1.43-.8.86-.47.94-.33.67-1.09 1.68-2.25 2.55 1.13-1.47-2.35 3.02h-.08l-.56.9-.72.29-2.18 2.87.53-.38-1.52 1.21-1.53 1.47 1.04-1.25-1.29 1.11-1.84 1.66-1.14 1.02.28.07-1.8 1.5-.26-.09-1.59 1.24-2.22 1.41-.13.29-.44.67-1.09.39-1.06.41-.92.84-.14.39-1.14.63-1.77 1.15-2.87 1.4-.85.22.44-.29-1.76.81-1.89.93-.57.39-1.8.42-.03.22-1.46.74-1.99.71 1.42-.79-2.87.81-.14.2-2.25.71.39-.1-3.19.89-1.65.27-.26.24-2.01.47-.26-.08-.41.04-1.39.32-1.44.18-3.59.41 1.63-.18-3.19.43-.64-.17-.09-.01-2.3.08-.23.18-2.57-.17-.8.31-.94-.02-3.43-.34-1.3-.23 1.58.17-2.9-.21.45-.08-3.96-.34-.41.13-.57-.46-2.36-.1 1.61.02-4.49-.78-.57-.09 1.4.47-3.31-1.05.36.07-2.26-.59-1.14-.45-2.28-.72.15.28-.88-.42-.87-.41-1.73-.88-1.48-.25-.82-.47-.45-.28-.5-.07-1.41-.82-2.73-.99-.39-.6-2.74-1.51 1.59.85-2.29-.81-.87-1.13-.65-.34-1.1-.82-2.02-.91-2.02-1.33-.02-.1-.79-.47-2.14-1.65-.7-.43-1.46-1.9 1.36 1.1-1.04-.56-1.66-1.64-.29-.46-1.03-.96-.83-.87-2.71-2.3.03-.53-.62-.39-2.26-2.77.03.28.26.16.17-.28-2.87-3.35.33.06-.94-.55-.76-1.83-1.7-1.87-.47-.27-.79-1.12-.12-1.7-1.58-1.81.38-.18-.76-1.19-1.03-1.56h.07l-.24-1.29-.53-.33-1.61-3.56.47 1.47-.16-1.39-1.28-2.45-.23-.49.32.11-.82-1.92.15.37-1.76-4.92.53 1.1-.91-2.63.12-.51-.1-.76-.55-2.04-.29.23-.72-3.52.15-.28-.62-2.82.17-.15-.52-2.58.23-.34.07.09-.1.2-.09-3.85.02-.43-.12-2.82-.34-1.61-.08-.29.29-1.7.19-.72-.18-1.18-.06-1.41.37-1.5-.25-.85.33-1.48.31-1.04.11-2.7.32.33-.1.1-.15-1.43 1.18-3.54-.65 1.25.86-3 .59-1.95-.44-.18 1.16-2.28-.18.56 1.07-3.69-.18-.36.64-.87-.27.47 1.16-3.59-.15-.1 1.64-2.55-.59.73 1.04-1.76.29-.79.03.02 1.06-2.29.65-1.14.7-1.14.39-1.31.99-1.61 1.24-1.65-.5.58 1.04-1.42.78-1.23.89-1.28 1.06-1.78.23.01L-62-51l-.46.4 1.51-2.09 1.94-1.39-.69-.15 1.31-1.13.96-.77.42-.42 1.64-2.4.68.16 1.6-1.57 2.05-2.15-.47.35 1.9-1.31.24-.2 1.71-1.53.92-.43 2.05-1.45-.32.05 1.09-.76.93-.32-.11-.55.82-.68 1.27-.41 1.47-.92 1.3-.35 1.76-1.49.16.17 1.53-.92 1.29-.92-.17.29 3.14-1.32 1.23-.52-.68.2 1.16-.51 3.5-1.03.36-.32 1.15-.26.96-.39 1.28-.31-.41.22 1.61-.81 2.45-.48-1.89.43 4.76-.85-.47.09 3.79-.83-.6.05.13-.05 2.42-.11-.16-.16 2.54-.22 1.31.02 3.21-.32.29-.25.82.17.47.02 2.52-.13.62-.04.77.26-.43-.22 3.26.36-.35-.28 2.92.42-.05.1 3 .23-.94-.25 2.12.52.86.08 3.32.66-.1.05 1.33.21-.76-.02 1.72.15 3.7 1 1.5.66 1.05.24-.58-.05 1.25.11 1.84.6-.22.41 1.88.43-.03.17 2.32 1.12.41.11.71-.02 2.64 1.37-.32.01 1.17.36 1.83 1.44 1.83.84.96.38.46.54.92.59 2.13 1.43.11.21 3.32 2.06-1.53-.79 1.37.68 3 2.26.92.94-1.9-1.4 1.03.81 1.92 1.57.02-.25 2.25 2.56 2.29 1.77h-.21l.56 1.02.26.12 1.53 1.27 1.04.87.84 1.71-.29-.28 1.23 1.47 1.48 1.57.64 1.63.66.44-.73-.77 1.95 2.48.54.97.47.8 2 3.31-.11-.13 1.16 1.4-.06-.09 1.06 2.3-.6-.62.88 1.73.6.96-.32-.22 1.58 3.3-.53-.92.34.86 1.62 3.11-.34.08 1.4 2.81.01.5.34 1.23.09 1.36.28.95.43 1.54.98 2.13-.29-.35.22.87.55 2.52.54 2.86-.2.74-.38-1.38.76 2.96-.2.59.51 1.76.29 2.45-.5-.44.29 1.16.27 1.07-.22 3.53-.01 1.99-.1-.41" filter="url(#a)"/><path fill="#fff" d="m-32.59-5.21.17-.18.21-.18.23-.17.27-.16.3-.16.33-.15.37-.15.4-.14.44-.13.48-.13.51-.11.55-.12.58-.1.63-.1.66-.09.48-.14.56-.13.63-.12.7-.1.77-.1.83-.08.91-.07.96-.06 1.03-.05 1.09-.04 1.14-.02 1.18-.02h2.51l1.32.01 1.34.03 1.38.03 1.39.04 1.42.06 1.44.06 1.44.07 1.45.07 1.45.09 1.45.09 1.44.1 1.43.11 1.41.12 1.4.12 1.37.13 1.35.14 1.32.14 1.29.15 1.25.16 1.22.16 1.17.18 1.14.17 1.09.19 1.05.19 1 .19.96.21.91.2.86.22.81.22.77.23.71.24.67.24.63.25.58.25.54.27.49.27.46.27.41.29.37.29.33.3.29.31.25.32.21.33.16.33.13.35.09.35.06.36.01.38-.01.38-.06.38L34.23.57l-.53.24-.55.26-.57.25-.59.25-.61.25-.63.26-.65.25-.67.26-.7.25-.71.25-.74.25-.76.25-.78.25-.8.24-.82.24-.84.24-.87.23-.9.24-.91.23-.95.22-.96.22-.99.21-1.02.2-1.04.19-1.05.18-1.09.18-1.1.15-1.11.15-1.14.13-1.16.12-1.16.11-1.19.09-1.19.07-1.2.05-1.21.04-1.22.03H.6l-1.22-.01-1.23-.03-1.22-.05-1.21-.07-1.21-.08-1.19-.11-1.19-.12L-9.04 7l-1.15-.16-1.13-.17-1.11-.19-1.09-.2-1.06-.22-1.03-.23-1-.24-.97-.26-.93-.27-.89-.28-.86-.29-.82-.29-.78-.31-.73-.31-.69-.32-.65-.32-.61-.33-.56-.32-.51-.33-.6-.28-.57-.28-.55-.28-.53-.29-.5-.28-.48-.29-.46-.28-.43-.29-.42-.29-.39-.28-.37-.28-.35-.28-.34-.28-.31-.27-.3-.27" filter="url(#a)" transform="translate(40 -21.9)"/><path fill="#fff" d="m33.77-6.26-.18-.14-.21-.13-.24-.13-.28-.12-.3-.12-.34-.12-.37-.11-.4-.1-.45-.1-.47-.1-.52-.09-.55-.09-.59-.08-.62-.07-.66-.07-.49-.11-.56-.1-.63-.09-.71-.09-.77-.07-.83-.06-.91-.06-.96-.04-1.03-.04-1.08-.03-1.13-.02-1.19-.01h-2.5l-1.31.02-1.34.02-1.37.03-1.4.03-1.41.05-1.44.05-1.44.06-1.45.06-1.46.08-1.45.07-1.45.09-1.44.09-1.43.1-1.41.11-1.4.11-1.37.11-1.35.13-1.32.13-1.29.13-1.26.14-1.22.15-1.19.15-1.14.16-1.11.17-1.07.17-1.03.18-.98.18-.94.19-.9.19-.86.21-.82.2-.77.22-.74.22-.69.23-.66.23-.63.24-.59.25-.55.25-.52.27-.48.27-.45.27-.41.29-.38.3-.35.3-.32.31-.28.32-.25.32-.23.34-.19.34-.17.36-1.57.66.47.3.5.3.51.3.53.3.56.3.58.3.59.3.62.3.65.29.66.29.69.29.71.28.73.27.75.27.78.27.81.26.82.26.86.25.88.24.91.24.93.22.97.21.99.2 1.01.19 1.04.17 1.07.16 1.09.13 1.11.12 1.14.1 1.16.09 1.18.06 1.19.04 1.21.02h1.23l1.24-.02 1.24-.05 1.26-.06 1.26-.09 1.27-.11 1.27-.13 1.26-.15 1.26-.17 1.26-.19 1.25-.21 1.23-.22 1.22-.25 1.2-.26 1.18-.27 1.16-.29 1.13-.3 1.1-.31 1.08-.33 1.04-.33 1-.34.96-.34.93-.35.88-.35.84-.35.8-.35.75-.35.7-.35.65-.34.61-.33.56-.33.64-.31.62-.3.59-.3.57-.3.54-.3.52-.3.5-.29.46-.28.45-.28.42-.28.4-.27.37-.27.36-.26.33-.25.31-.25" filter="url(#a)" transform="translate(-48.07 -26.19)"/><g fill="none" stroke="#000" transform="translate(40 -21.9)"><path stroke-linejoin="round" stroke-width="1.667" d="m-33.33-3.19.03-.21.03-.22.04-.21.04-.2.06-.21.07-.2.08-.2.11-.2.13-.19.15-.18.17-.18.21-.18.23-.17.27-.16.3-.16.33-.15.37-.15.4-.14.44-.13.48-.13.51-.11.55-.12.58-.1.63-.1.66-.09.48-.14.56-.13.63-.12.7-.1.77-.1.83-.08.91-.07.96-.06 1.03-.05 1.09-.04 1.14-.02 1.18-.02h2.51l1.32.01 1.34.03 1.38.03 1.39.04 1.42.06 1.44.06 1.44.07 1.45.07 1.45.09 1.45.09 1.44.1 1.43.11 1.41.12 1.4.12 1.37.13 1.35.14 1.32.14 1.29.15 1.25.16 1.22.16 1.17.18 1.14.17 1.09.19 1.05.19 1 .19.96.21.91.2.86.22.81.22.77.23.71.24.67.24.63.25.58.25.54.27.49.27.46.27.41.29.37.29.33.3.29.31.25.32.21.33.16.33.13.35.09.35.06.36.01.38-.01.38-.06.38-.09.4-.12.41-.15.41-.19.43-.21.43-.25.44-.27.45-.3.46-.33.47-.35.47" filter="url(#a)"/><path stroke-linejoin="round" stroke-width="2.222" d="m-34.54-4.63.2.2.21.21.21.22.21.23.22.23.23.25.25.25.25.25.27.26.28.27.3.27.31.27.34.28.35.28.37.28.39.28.42.29.43.29.46.28.48.29.5.28.53.29.55.28.57.28.6.28.51.33.56.32.61.33.65.32.69.32.73.31.78.31.82.29.86.29.89.28.93.27.97.26 1 .24 1.03.23 1.06.22 1.09.2 1.11.19 1.13.17 1.15.16 1.17.13 1.19.12 1.19.11 1.21.08 1.21.07 1.22.05 1.23.03L.6 7.6h1.22l1.22-.03 1.21-.04 1.2-.05 1.19-.07 1.19-.09 1.16-.11 1.16-.12 1.14-.13 1.11-.15 1.1-.15 1.09-.18 1.05-.18 1.04-.19 1.02-.2.99-.21.96-.22.95-.22.91-.23.9-.24.87-.23.84-.24.82-.24.8-.24.78-.25.76-.25.74-.25.71-.25.7-.25.67-.26.65-.25.63-.26.61-.25.59-.25.57-.25.55-.26.53-.24.52-.25.49-.24.47-.24.46-.24.43-.23.42-.23.4-.23.39-.23.37-.22.35-.21" filter="url(#a)"/><circle cx="11.107" cy="-2.483" r="3.3" clip-path="url(#b)" filter="url(#a)"/><circle cx="9.957" cy=".452" r="4.71" clip-path="url(#b)" filter="url(#a)"/><circle cx="12.542" cy="-.118" r="3.026" clip-path="url(#b)" filter="url(#a)"/><circle cx="8.447" cy="-2.888" r="3.652" clip-path="url(#b)" filter="url(#a)"/><circle cx="8.487" cy="-3.473" r="3.306" clip-path="url(#b)" filter="url(#a)"/><circle cx="9.457" cy="-1.173" r="4.174" clip-path="url(#b)" filter="url(#a)"/><circle cx="9.632" cy="-2.973" r="3.706" clip-path="url(#b)" filter="url(#a)"/><circle cx="8.132" cy=".917" r="3.364" clip-path="url(#b)" filter="url(#a)"/><circle cx="11.252" cy="-3.363" r="4.084" clip-path="url(#b)" filter="url(#a)"/><circle cx="8.702" cy="-3.678" r="3.454" clip-path="url(#b)" filter="url(#a)"/></g><g fill="none" stroke="#000" transform="translate(-48.07 -26.19)"><path stroke-linejoin="round" stroke-width="2.222" d="m34.55-4.76-.03-.16-.04-.15-.04-.16-.05-.15-.06-.15-.07-.15-.09-.15-.11-.15-.13-.14-.16-.14-.18-.14-.21-.13-.24-.13-.28-.12-.3-.12-.34-.12-.37-.11-.4-.1-.45-.1-.47-.1-.52-.09-.55-.09-.59-.08-.62-.07-.66-.07-.49-.11-.56-.1-.63-.09-.71-.09-.77-.07-.83-.06-.91-.06-.96-.04-1.03-.04-1.08-.03-1.13-.02-1.19-.01h-2.5l-1.31.02-1.34.02-1.37.03-1.4.03-1.41.05-1.44.05-1.44.06-1.45.06-1.46.08-1.45.07-1.45.09-1.44.09-1.43.1-1.41.11-1.4.11-1.37.11-1.35.13-1.32.13-1.29.13-1.26.14-1.22.15-1.19.15-1.14.16-1.11.17-1.07.17-1.03.18-.98.18-.94.19-.9.19-.86.21-.82.2-.77.22-.74.22-.69.23-.66.23-.63.24-.59.25-.55.25-.52.27-.48.27-.45.27-.41.29-.38.3-.35.3-.32.31-.28.32-.25.32-.23.34-.19.34-.17.36-.13.36-.12.37-.08.37-.06.39-.04.39-.01.4.01.41.03.42.06.42.07.43" filter="url(#a)"/><path stroke-linejoin="round" stroke-width="2.222" d="m35.47-5.49-.19.17-.2.18-.21.18-.21.2-.22.2-.24.21-.24.21-.26.23-.28.23-.3.24-.31.25-.33.25-.36.26-.37.27-.4.27-.42.28-.45.28-.46.28-.5.29-.52.3-.54.3-.57.3-.59.3-.62.3-.64.31-.56.33-.61.33-.65.34-.7.35-.75.35-.8.35-.84.35-.88.35-.93.35-.96.34-1 .34-1.04.33-1.08.33-1.1.31-1.13.3-1.16.29-1.18.27-1.2.26-1.22.25-1.23.22-1.25.21-1.26.19-1.26.17-1.26.15-1.27.13-1.27.11-1.26.09-1.26.06-1.24.05-1.24.02h-1.23l-1.21-.02-1.19-.04-1.18-.06-1.16-.09-1.14-.1-1.11-.12-1.09-.13-1.07-.16-1.04-.17-1.01-.19-.99-.2-.97-.21-.93-.22-.91-.24-.88-.24-.86-.25-.82-.26-.81-.26-.78-.27-.75-.27-.73-.27-.71-.28-.69-.29-.66-.29-.65-.29-.62-.3-.59-.3-.58-.3-.56-.3-.53-.3-.51-.3-.5-.3-.47-.3-.46-.29-.44-.3-.41-.29-.4-.29-.39-.29-.36-.28-.35-.28-.34-.27-.31-.27-.31-.27" filter="url(#a)"/><circle cx="-21.539" cy="4.408" r="4.316" clip-path="url(#c)" filter="url(#a)"/><circle cx="-21.519" cy="3.693" r="3.636" clip-path="url(#c)" filter="url(#a)"/><circle cx="-22.029" cy="2.048" r="3.692" clip-path="url(#c)" filter="url(#a)"/><circle cx="-20.414" cy=".433" r="3.09" clip-path="url(#c)" filter="url(#a)"/><circle cx="-18.939" cy="1.923" r="4.492" clip-path="url(#c)" filter="url(#a)"/><circle cx="-22.864" cy="3.243" r="4.3" clip-path="url(#c)" filter="url(#a)"/><circle cx="-19.989" cy="2.113" r="4.468" clip-path="url(#c)" filter="url(#a)"/><circle cx="-20.954" cy=".933" r="3.888" clip-path="url(#c)" filter="url(#a)"/><circle cx="-23.079" cy=".433" r="4.466" clip-path="url(#c)" filter="url(#a)"/><circle cx="-19.784" cy="3.658" r="3.426" clip-path="url(#c)" filter="url(#a)"/></g><g fill="none" stroke="#4682B4" stroke-linejoin="round" stroke-width="2"><path d="m8.01-81.06-4.73-.15-3 1.15 2.7 3.35 9.34 5.18 11.28 5.2 7.71 3.44 2.11 1.23-1.51-.03-1.46.05 1.07.9 2.83 1.33.66.33-5.34-2.26-8.07-4.37 5.13-1.01 33.76 14.26" filter="url(#a)"/><path d="m2.18-81.56-2.95 2.73-11.49 2.76-2.96 1.18 4.78.25 6.94.21 4.95.43 1.35.59-1.94.67-3.69.72-3.56.73-2.12.71-.52.67.18.64-.18.5-.7.13-.03-.5 2.66-1.12 6.81-1.22 10.44-.37 11.04 1.38 7.29 3.3.58 4.28-.43 5.13 39.99 17.07" filter="url(#a)"/><path d="m-42.28-69.34 18.87 11.92 28.76 1.17 8.92-4.48-4.42-5.12-8.72-2.98-7.67-.48-4.14 1.15-.48 1.68 1.58 1.31 1.41.39-.2-.64-1.96-1.39-2.95-1.62-3.09-1.38-2.76-.86-1.88-.24.53.36 5.93.84 14.06 1.2 20.79 1.75 20.41 3.85 23.06 14.79" filter="url(#a)"/><path d="m24.76-77.43 15.06 8.81 2.27 3.04-2.07 1.93-4.25.61-4.84-.29-4.25.04-3.74.98-3.97 1.39-4.11.7-2.75-.57.45-1.42 4.15-.98 6.01.66 4.3 2.57-.99 3.23-7.25 1.74-8.44-.95 3.09-1.36 26.2 4.87 31.43 16.46" filter="url(#a)"/><path d="M-23.81-77.65 24.61-60.4l.98-5.24-12.23-6.49L.02-75.9l-10.28-1.5-6.38-.22-2.92.45-.23.85 1.83.95 3.13.73 2.67.47-1.13 1.1-8.84 3.5-16.54 5.61-6.02-3.12" filter="url(#a)"/><path d="m31.22-74.64-6.95 1.94-.57 5.9.52 4.36.82 1.96.97.23 2.29-.33 3.81-.22 3.77-.16 1.79-.42-.99-.63-3.2-.44-4.43.14-5.12.56-6.03.16-7.75-1.07L.02-64.93l-11.16-1.94-5.22.51L.63-62.2l63.14 14.08" filter="url(#a)"/><path d="m57.11-56.15-22.8-13.23-9.05-3.94 1.53 1.71 1.98 2.94-3.49 1.5-8.5-.54-9.59-1.92-6.92-2.26-2.71-1.75.49-.8 1.06.19-1 .96-3.77 1.4-4.34 1.61-.63 1.86 6.95 2.57 15.36 3.72 20.01 3.57 15.16-.97.38-5.9" filter="url(#a)"/><path d="M69.72-39.38 57.65-51.7l-8.19-7.9-.8-.99L50-59.22l-.8.23-4.68-1.65-8.76-2.64-12.13-2.56-13.95-1.93-13.55-1.24-10.8-.69-6.31-.21-1.07.31 4.02.96 8.27 1.61L1.1-65.12l10.45 1.57 5.53.57-3.99-.69-14.56-1.6-18.77-2.09-11.64-2.8-10.4.82" filter="url(#a)"/><path d="m52.2-61.25-14.5 3.26-22.11-6.56-8.28-3.95 2.23.19 3.88 1.8-1.38.83-7.57-.94-9.19-2.07-4.78-2.25 2.36-1.74 6.61-.48 3.28 1.86-8.78 4.67-24.61 5.12-18.97-1.96" filter="url(#a)"/><path d="m-45.01-67.03 29.03 1.39L5.29-63.3l5.79.3 1.98-.16 3.33.19 4.16.6 2.87.61-.3.07-4.04-.59-6.47-.76-6.14-.13-3.09.97.85 1.7 3.24 1.41 2.61.07-.67-1.74-4.93-3.14-8.33-3.66-8.76-3.48-3.58-3.37 5.38-3.78-1.39-2.39" filter="url(#a)"/><path d="m59.94-53.89 4.32 7.46 3.44 6.14-.41.06-3.37-3.87-4.83-4.59-5.56-3.66-6.3-2.71-6.92-2.45-6.6-2.74-4.91-3.04-2.81-3.05-2.63-2.87-6.2-2.72-12.71-2.34-17.87-1.55-8.56-2.31" filter="url(#a)"/><path d="m1.22-81.56-1.76-.18-1.12-.26-1.09-.36-1.3-.47-1.48-.42-1.53-.22-1.46-.01-1.34.09-1.24.03-1.2-.12-1.24-.26-1.34-.33-1.44-.34-1.51-.32-1.5-.31-1.43-.28-1.32-.26-1.18-.25-1.07-.26-1-.15-1.1.05 25.13 4.76 1.82-1.9 1.11-1.43.91-.61.98-.15 1.14-.18 1.27-.37 1.32-.4 1.33-.26 1.31-.08 1.31.01 1.34-.02 1.4-.15 1.42-.3 1.41-.47 1.38-.67 1.4-.81 1.56-.79 1.86-.55 2.23-.29 2.36-.46 1.92-.87-32.07 10.56-1.07.47-1.68.53-1.65.42-1.44.36-1.2.45-1 .64-.9.88-.88 1.06-.97 1.08-1.1.88-1.19.57-1.18.34-1.09.33-.91.57-.68.95-.49 1.31-.38 1.57-.42 1.58-.7.92" filter="url(#a)"/><path d="m-2.59-81.62.8.56 1 .97 1.05.86.98.51.91.29.91.37.97.57 1.04.67 1.1.61 1.1.5 1.06.5 1 .66.96.92 1 1.11 1.07 1.18 1.07 1.12.91 1 .7 1.1-21.13-12.93-1.47.03-1.41.02-1.19-.02-1.06.02-1.03.11-1.09.18-1.2.25-1.28.28-1.29.3-1.24.3-1.16.28-1.08.27-1.01.24-1 .22-1.01.22-1.09.24-1.18.25-1.25.29-1.27.31-1.22.33-1.16.36-1.22.41-1.35.43-.78.14 26.73-5.48-1.97-2.07-1.29-.95-1.07-.43-1.05-.36-1.16-.28-1.32-.15-1.47-.06-1.52-.1-1.51-.24-1.44-.4-1.35-.51-1.25-.53-1.16-.47-1.15-.43-1.23-.59-1.35-1-1.35-1.78 20.26 10.73.45-1.72 1.43-.32 1.65-.45 1.54-.82 1.32-1.08 1.17-1.13 1.09-1.01 1.08-.88 1.07-.92 1.05-1.18 1.06-1.54 1.15-1.72 1.34-1.49 1.59-.99 2.38-1.17" filter="url(#a)"/><path d="m-12.33-80.53.7-.08 1.14-.15 1.31-.28 1.46-.41 1.5-.48 1.45-.47 1.33-.39 1.21-.33 1.13-.27 1.06-.22 1.03-.15L2-83.82l1.02-.01 1.08-.03 1.17-.13 1.27-.26 1.33-.36 1.32-.38 1.22-.33 1.09-.31 1.42-.05-25.25 5.15.7-.02 1.14.04 1.32.15 1.46.29 1.53.47 1.47.62 1.33.68 1.18.63 1.07.48 1 .26.95.02.91-.14.89-.13.92.08 1.01.42 1.1.68 1.09.68.6.7-41.91 5.92.42-.44.72-.85.83-.91.93-.86.99-.75 1.03-.6 1.08-.47 1.13-.43 1.16-.46 1.12-.53 1.05-.57.96-.54.88-.51.84-.48.85-.48.89-.5.99-.49 1.12-.49 1.29-.47.77-.22-4.85.81-1.15-.04-1.16-1.31-1.31-1.48-1.38-.96-1.5-.63-1.7-.7-1.84-.89-1.81-.85-1.63-.46-1.39.11-1.24.58-1.25.67-1.43.35-1.68-.24-1.94-.76-2.09-.89-2.16-.7-2.29-.5-2.48-.48" filter="url(#a)"/><path d="m-20.37-78.94 1.17-1.22.79-1.9 1.13-1.66 1.26-1.43 1.15-1.61 1-2.01.93-2.31 1-2.36 1.17-2.14 1.37-1.65 1.54-.94 1.62-.17 1.62.4 1.54.52 1.43.12 1.34-.66L.96-99.5l1.21-2.23 1.18-2.54 1.25-2.18 1.38-1.03.69.66-1.52 29.89-1.87-.47-.93-.32-.8-.34-.9-.33-.99-.28-1.05-.17-1.12-.07h-2.55l-1.39-.05-1.39-.13-1.32-.19-1.22-.19-1.13-.12h-1.1l-1.15.17-1.22.34-1.3.48-1.31.44-1.27.24h-1.37l-1.75-.21-.87.09.76-.43.71-.42.86-.59 1.03-.58 1.16-.53 1.27-.57 1.28-.72 1.21-.85 1.08-.89.97-.84.95-.75 1.05-.75 1.24-.84 1.52-1 1.92-1.08 2.66-.97m81.2 74.61-.35-1.78-.2-1.1-.17-.99-.17-1.1-.13-1.21-.1-1.26-.09-1.25-.15-1.24-.24-1.26-.34-1.33-.39-1.41-.35-1.5-.21-1.45.09-1.06.57-.01 2.23 17.95.31 1.9.13.95.24.8.48.95.67 1.12.75 1.19.75 1.2.69 1.21.58 1.25.41 1.35.25 1.43.17 1.44.21 1.32.33 1.16.43 1.14.44 1.33.37 1.64.14 1.68M-29.98-75.53l.06.4-.9.6-1.17.62-1.16.55-1.08.53-1.03.59-1 .67-1.01.74-1.03.79-1.02.81-.94.8-.8.78-.6.79-.44.81-.46.79-.78.72 25.05-29.43-.68 1.05-1.27 1.49-1.03 1.6-.87 1.57-.78 1.41-.71 1.28-.66 1.27-.66 1.35-.71 1.44-.86 1.43-1.03 1.27-1.12 1-.94.76-.5.76-.42 1.08-3.14 1.32-.66-.62-.88.4-1.05.52-1.18.45-1.35.29-1.47.15-1.44.09-1.31.14-1.13.25-.98.33-.91.36-.92.38-.99.4-1.1.44-1.22.48-1.31.48-1.37.46-1.41.39-1.47.33-1.62.33-2.01.49-2.56.69 5.37-1.7 1.62-.89 1.54-.41 1.36-.64 1.24-.72 1.24-.49 1.29-.08 1.36.28 1.36.43 1.28.39 1.21.19 1.19-.04 1.24-.25 1.29-.42 1.29-.53 1.16-.56.65-.24" filter="url(#a)"/><path d="m-11.02-75.67-2.46.15-1.68.17-1.42.05-1.25-.04-1.12-.05-1.02.02-.94.1-.94.15-.99.16-1.08.16-1.17.16-1.23.16-1.26.14-1.27.13-1.26.11-1.25.15-1.22.27-1.13.45-.99.66-.88.81-.92.73-1.74.01" filter="url(#a)"/><path d="m-39.54-70.67 1.14-.82.93-1.07.87-.93.92-.78 1.01-.67 1.07-.63 1.1-.6 1.09-.58 1.08-.57 1.1-.6 1.17-.65 1.21-.73 1.16-.79 1.01-.82.94-.81 1.09-.56-16.89 11.61 2.43 1.65 1.46-.02.91-.79.91-.71 1.08-.38 1.18-.23 1.16-.31 1.08-.45 1.06-.45 1.14-.28h1.27l1.36.23 1.34.38 1.25.48 1.14.63 1.1.86 1.13.95 1.33.67 1.79.11-27.57.22.68.2 1.09.03 1.08-.47 1.13-.6 1.21-.5 1.22-.42 1.17-.4 1.11-.42 1.11-.36 1.18-.23 1.25-.06 1.27.05 1.2.04 1.15-.08 1.26-.22 1.53-.19 1.32.33M91.82 15.71l.08-2.94-1.04-1.9-1.15-1.5-.89-1.44-.61-1.47-.52-1.44-.58-1.38-.65-1.32L85.8.99l-.6-1.37-.5-1.42-.43-1.43-.39-1.39-.43-1.34-.47-1.29-.5-1.26-.51-1.22-.48-1.18-.39-1.11-.25-1.12-.14-1.27-.38-1.54-1.29-1.6-1.79-1.08" filter="url(#a)"/><path d="m-33.79-83.25-2.26.8-.86 1.48-.64 1.5-.75 1.29-.91 1.06-1.04.9-1.09.89-.98 1.03-.72 1.27-.41 1.49-.21 1.52-.2 1.26-.37.84-.45.51-.01.33-2.02.54-1.34.82-1.1.86-1.09.72-1.24.51-1.48.34-1.7.25-1.81.27-1.73.4-1.58.56-1.42.63-1.31.61-1.2.58-1.08.64-1 .85-1.18 1.2-1.46 1.87 21.69-10.2-.53 1.29-.65 1.28-.85.87-.8.88-.69 1.1-.72 1.23-.85 1.21-.91 1.15-.8 1.17-.55 1.29-.24 1.42.05 1.51.27 1.54.25 1.45-.69 1.17" filter="url(#a)"/><path d="m-47.66-65.2-1.23 1.13-.92.83-.9.83-.95.9-1.03 1-1.06 1.06-1.03 1.07-.95 1.07-.87 1.03-.79.98-.75.96-.73.93-.71.9-.7.88-.65.83-.59.81-.52.83-.52.91-.57 1.06-.67 1.19-.77 1.27-.81 1.34m17.72-21.81-1.39.9-1.22.46-1.4.2-1.65.1-1.84.13-1.98.15-2.11.1-2.19-.03-2.16-.07-1.95.02-1.64.26-1.41.49-1.45.57-1.76.39-2.09.04-1.99-.25-1.28.23" filter="url(#a)"/><path d="m-49.37-63.67 1.05-1.69.81-1.46.79-1.05.72-.79.65-.69.58-.77.48-1.02.4-1.37.39-1.64.45-1.79.57-1.79.66-1.74.69-1.74.68-1.79.68-1.84.72-1.83.83-1.72.9-1.55.9-1.42.87-1.39 1.27-1.54 2.44-2.61m-43.98 54.22.75-1.23.88-1.25 1.15-1 1.31-.72 1.33-.59 1.25-.63 1.12-.74 1.01-.82.89-.84.82-.81.78-.77.8-.74.81-.76.81-.83.76-.92.67-1.02.66-1.04.83-.94 1.14-.75 1.46-.59 1.58-.71 1.59-1.1 2.38-1.03-3.65 3.72 1.7-1.29 1.41-.88 1.25-.55 1.13-.55 1.04-.68 1.04-.7 1.08-.58 1.12-.41 1.1-.24 1.04-.18.96-.19.9-.28.88-.39.91-.48.97-.54 1.04-.56 1.1-.53 1.14-.43 1.14-.34 1.14-.27 1.16-.25 1.29-.22 1.59-.13 1.78.24" filter="url(#a)"/><path d="m-59.7-54.23.94-1.1.49-1.32.55-1.34.84-1.2 1.06-1.09 1.11-1.08 1.02-1.12.88-1.18.74-1.22.66-1.31.6-1.44.55-1.58.5-1.63.5-1.47.55-1.13.6-.88.43-1.21-14.78 24.93 1.41-1.65 1.07-1.12.86-.85.82-.78.87-.81.92-.89.99-.98 1.03-1.01 1.07-1.02 1.07-.98 1.05-.92 1.02-.86 1.02-.81 1.03-.78 1.04-.76 1.03-.72.97-.64.87-.55.74-.46.61-.42.27-.41" filter="url(#a)"/><path d="m-62.46-50.6 1.36-1.7.95-1.23.67-1.03.59-1.02.61-1.08.7-1.15.79-1.21.87-1.25.91-1.25.91-1.23.88-1.2.86-1.13.88-1.07.93-1.02.96-.96.97-.92.88-.89.72-.87.54-.87.31-.98-.24-1.27-16.2 24.02-1.03-1.89-.37-1.52.79-.92.98-.88.54-1.28-.08-1.87-.55-2.4-.65-2.64-.31-2.45.29-1.96.92-1.41 1.23-1.13 1.13-1.24.75-1.65.35-2.08.18-2.34.25-2.34.37-2.27.22-2.34-.34-2.72-1.03-3.76m-3.64 41.09-.53.49-.82.97-.95 1.01-1 .89-.98.77-.94.77-.91.84-.88.96-.87 1.06-.91 1.1-.97 1.06-1.04.96-1.05.86-.93.78-.7.78-.47.83-.54.92-1.41 1.45m155.07 13-.33-1.29-.23-1.17-.19-1.16-.24-1.19-.33-1.25-.41-1.32-.45-1.34-.42-1.33-.35-1.26-.27-1.19-.21-1.12-.19-1.08-.21-1.02-.25-.96-.24-.89-.24-.92-.44-1.52" filter="url(#a)"/><path d="m-57.73-86.66-1.15 2.75-.62 2.53-.55 2.15-.53 1.92-.53 1.84-.63 1.78-.78 1.69-.86 1.64-.82 1.65-.65 1.7-.44 1.76-.25 1.79-.09 1.8.07 1.84.26 1.95.46 2.05.58 2.02.52 1.79.26 1.44-.1 1.18-.46 1.21-.75 1.32-22.33 27.03-.09-.09.71-1.29.88-1.42.9-1.31.97-1.21 1.09-1.11 1.22-1 1.31-.92 1.29-.87 1.18-.89.98-.97.74-1.05.55-1.11.43-1.09.45-1.02.58-.9.79-.83.94-.83.88-.98.57-1.26.16-1.54.29-1.51 2.95-.11" filter="url(#a)"/><path d="m-70.08-37.94-.76 1.47-.74.77-1 .55-1.33.48-1.66.47-1.82.53-1.66.69-1.18.9-.61 1.1-.2 1.25-.16 1.3-.45 1.26-.98 1.15-1.52 1.03-1.98.97-2.27.97-2.4 1.05-2.46 1.14-2.46 1.29-2.28 1.62-1.77 1.89 27.27-17.06.97-1.19.83-.77.79-.8.94-.83 1.19-.8 1.35-.75 1.32-.74 1.13-.81.88-.84.76-.81.78-.73.9-.69 1.01-.74 1.07-.77 1.18-.54 1.5.37-28.24-22.28 2.47 4.76 1.41 3.43.9 2.64.49 2.06.26 1.78.2 1.77.23 1.87.27 1.94.34 1.97.48 1.96.66 1.95.78 1.85.75 1.68.54 1.46.22 1.24-.05 1.16-.21 1.27-.21 1.65.05 2.79" filter="url(#a)"/><path d="m-74.56-27.61-1.84-.67h-2.06l-.74.93-.02 1.4-.13 1.44-.79 1.29-1.56 1.11-2.06 1.02-2.11 1.02-1.76 1.09-1.33 1.17-1.09 1.18-1.15 1.14-1.41 1.1-1.64 1.08-1.62 1.15-1.35 1.26-.95 1.39-.69 1.45-.72 1.48-.94 1.46-1.16 1.41-1.65 1.42-3.36 1.7" filter="url(#a)"/><path d="m-81.32-74.53-1.67 2.3-.37 2.24.42 2.09.92 2.25 1.02 2.43.77 2.37.4 2.18.22 2 .31 1.97.63 2.11.94 2.29 1.08 2.4.97 2.35.7 2.17.33 1.9-.03 1.6-.44 1.26-.92.89-1.35.58-1.35.52-.49.96 1.23 1.94 2.49 2.9.95 3.22-9.7-39.55.97 1.95.39 2.39.34 2.43.52 2.35.8 2.33.96 2.34.94 2.32.71 2.23.38 2.06.08 1.85-.05 1.7.08 1.64.36 1.65.63 1.65.72 1.62.51 1.5-.06 1.31-.92 1.05-1.83.79-2.04.65-.02 1.11 5.86 3.03-.5 1-1.09 1.23-.96 1.14-.8 1.13-.95 1.15-1.3 1.14-1.59 1.12-1.66 1.11-1.54 1.11-1.38 1.07-1.31.97-1.31.91-1.31.95-1.39 1.12-1.71 1.25-2.13 1.2-2.01.98 22.94-18.58h-3.45l-2.74.79-2.56.77-1.43 1.04-.23 1.41.43 1.66.5 1.69.14 1.59-.4 1.4-.99 1.19-1.55 1.02-2.01.93-2.32.92-2.4 1-2.21 1.13-1.79 1.26-1.31 1.37-1.07 1.44-1.32 1.45-1.98 1.4-2.3 1.39-.65 1.77M66.32-37.34l.88.07.67.57.49.69.41.76.43.81.49.82.57.84.62.87.65.95.67 1.07.7 1.19.75 1.24.72 1.22.58 1.15.44 1.09.46 1.1" filter="url(#a)"/><path d="m75.85-22.9-.5-1.09-1.08-.88-.98-1.02-.64-1.26-.42-1.35-.41-1.28-.52-1.13-.63-.95-.71-.83-.76-.73-.76-.69-.69-.66-.58-.69-.49-.7-.56-.65-.8-.49-1.05-.24-.82.09 10.56 8.65-.03-.95-.33-1.37-.34-1.18-.32-1.05-.32-.99-.35-.96-.39-.91-.42-.86-.44-.84-.46-.87-.47-.91-.52-1-.57-1.11-.61-1.21-.65-1.27-.66-1.27-.64-1.19-.58-1.08-.52-.98-.54-.98-.68-1.15-.92-1.42-1.01-1.62" filter="url(#a)"/><path d="m62.88-46.16.04.21.77.95.88 1.17.87 1.24.82 1.21.77 1.08.72.93.67.8.64.71.62.68.6.69.54.74.47.84.42.97.39.98.29.11 22.03 14.4-2.18-1.75-1.46-1.02-1.12-.94-.78-1.14-.71-1.23-1.04-1.13-1.44-.99-1.53-.97-1.26-1.11-.81-1.33-.58-1.46-.77-1.38-1.43-.97-2.37-.3-3.08.13-2.52-1.19" filter="url(#a)"/><path d="m94.15-14.83-1.48-2.75-1.21-1.94-1.16-1.32-1.16-1.08-1.19-1.06-1.21-1.09-1.19-1.1-1.16-1.08-1.19-1.06-1.25-1.07-1.32-1.07-1.43-1.07-1.58-.98-1.75-.8-1.74-.63-1.37-.65-.8-.87-.3-.56m-.6-.96.82-1.78-.32-.79-.24-.92v-1.22l.03-1.41-.13-1.49-.36-1.49-.56-1.4-.67-1.28-.7-1.17-.65-1.11-.59-1.13-.51-1.2-.43-1.31-.38-1.39-.36-1.44-.38-1.42-.42-1.37-.47-1.32-.45-1.24-.37-1.16-.31-1.1-.39-1.23-1.06-1.92" filter="url(#a)"/><path d="m70.78-37.08-.57-1.6-.41-1.04-.38-1.11-.39-1.32-.32-1.57-.08-1.78.24-1.94.46-1.98.5-1.91.41-1.85.37-1.92.46-2.12.58-2.31.55-2.31.22-2.05-.24-1.7-.53-1.51-.54-1.46-.45-1.28.28-1.86-.16 34.62 2.62-1.28 2.48-.36 1.09.61.9.81 1.17.75 1.4.72 1.51.79 1.53.94 1.46 1.08 1.41 1.17 1.41 1.17 1.43 1.12 1.27 1.12.78 1.27.31 1.49.58 1.5 1.9 1 3.21-.26-17.24.38-.41-1.01-.42-1.09-.51-1.14-.7-1.17-.87-1.2-.97-1.2-.95-1.14-.89-1.05-.79-.96-.67-.91-.55-.9-.46-.89-.39-.87-.41-.81-.46-.74-.5-.71-.27-.44-9.26-20.21.36.74.63 1.16.7 1.15.63 1.11.57 1.14.51 1.22.48 1.26.45 1.22.42 1.14.43 1.07.47 1.07.55 1.16.66 1.3.74 1.4.81 1.37.75 1.2.1 1.5" filter="url(#a)"/><path d="m66.73-43.87 1.9 1.75 1.8.54 2.09.04 2.31-.16h1.98l1.29.37.7.73.51.9.69.87.99.78 1.12.77 1.04.9.98 1.13 1.25 1.28 2.12 1.21 4.05 1.21-27.78-16.57.32.18-.24-.65-.41-1.18-.35-1.46-.2-1.57.02-1.71.25-1.91.45-2.09.54-2.18.5-2.13.27-1.96-.09-1.79-.5-1.72-.72-1.9-.56-2.36-.16-2.83-.29-2.57-1.56-.91" filter="url(#a)"/><path d="m64.5-47.35-.18.37.12 1.42.27 1.62.42 1.55.47 1.42.46 1.25.46 1.07.48.9.45.81.32.81.13.9-.08 1.02-.17 1.12-.17 1.13-.17 1.07-.33.87-.07.58-6.42-23.02.17-.55-.37-1.03-.69-1.02-.6-1.05-.37-1.16-.24-1.31-.3-1.45-.48-1.58-.62-1.7-.66-1.73-.54-1.63-.3-1.39.16-1.15.75-1.05.19-.91 4.19 18.99.3.26 1.2.63 1.69.47 1.64.35 1.22.5.78.8.57 1.09.64 1.23.87 1.2 1.18 1.04 1.42.82 1.51.64 1.39.56 1.13.59.85.68.76.72.86.69.98.71 1.02 1.03 1.85 1.98-3.79-8.35-1.16.14-1.15-.54-1.56-.69-1.79-.77-1.75-.82-1.51-.82-1.23-.79-1.06-.71-1.01-.64-1.04-.65-1.09-.74-1.09-.79-1.05-.74-1.06-.57-1.18-.46-1.22-.63m-1.79-1.39-.57-.7-.93-.83-1.37-.87-1.52-.75-1.37-.64-1.09-.56-.87-.51-.81-.45-.88-.4-.99-.39-1.09-.43-1.12-.49-1.14-.52-1.17-.51-1.21-.45-1.25-.33-1.28-.23-1.29-.16-1.34-.19-1.41-.34-1.41-.62-1.07-.87-.46 7.76 1.96-.82 1.39-.39 1.28-.2 1.35-.1h1.4l1.4.07 1.38.11 1.4.06 1.44-.02 1.41-.06 1.27-.02 1.06.07.94.18.95.3 1.1.49 1.31.75 1.52.95 1.61.84.91.25" filter="url(#a)"/><path d="m63.02-31.9.02-1.2.18-.93-.1-.86-.34-.84-.47-.93-.43-1.13-.27-1.37-.08-1.54.04-1.59.06-1.5-.05-1.35-.21-1.2-.35-1.14-.4-1.16-.39-1.24-.37-1.26-.4-1.23-.5-1.14-.65-1.05-.69-.95-.6-.83-.47-.83m.21 0 1.07-.75 1.87-.92 1.6-.25 1.06.57.92.86 1.18.68 1.53.41 1.73.3 1.74.36 1.58.47 1.37.53 1.27.49 1.46.38 1.86.3 2.04.34 2.02.11M52.22-61.5l-.3-.56-.17-1.3v-1.21l-.21-.91-.63-.7-.95-.63-1.08-.66-1.08-.79-1.03-.89-1.01-.97-1-1-.99-1.02-.98-1.03-.98-1.06-1-1.14-.99-1.27-.93-1.41-.83-1.48-.83-1.42-.99-1.25-1.13-.53L52.22-61.5l-.58-.21-.96-.3-.89-.07-.81-.14-.81-.41-.89-.61-.98-.67-1.07-.62-1.16-.51-1.25-.41-1.33-.28-1.36-.19-1.36-.14-1.35-.14-1.34-.18-1.36-.21-1.33-.22-1.19-.23-1.08-.33-1.73-.38 5.11-29.39-.61 3.36.2 2.64.69 1.76.97 1.14.97 1.1.79 1.48.62 1.87.57 2.04.63 1.96.76 1.77.83 1.57.86 1.43.89 1.28 1 1.04 1.15.81 1.22.75.99 1.04.42 1.53-.24 1.8.02 1.34" filter="url(#a)"/><path d="m44.07-67.38 1.75 1.28.81.81.89.8.84.83.61.88.37.98.32 1.07.43 1.15.62 1.17.75 1.19.77 1.18.68 1.16.57 1.12.5 1.07.46 1.03.44 1.04.39 1.09.33 1.14.29 1.21.3 1.34.26 1.64.02 1.93-12.4-25.11 2.84-.27 2.83-1.96 2.4-1.17 1.47.17.62 1.01.27 1.21.45 1 .93.68 1.44.47 1.72.45 1.72.55 1.58.59 1.59.32 1.99-.3 2.67-.95 3.01-.94 1.68.64-29.21-1.5-.49-.81-.85-1.09-.8-1.17-.6-1.57-.42-2.09-.35-2.4-.44-2.33-.63-1.93-.8-1.52-.9-1.31-.87-1.36-.76-1.6-.67-1.84-.63-1.87-.71-1.6-.86-1.12-1-.7-.96-.65-.65-1.1-.23-1.58-.59-.82 14.1 30.25 1.04.24 1.98-.62 2.08-.9 1.73-.29 1.26.37.92.6.85.53.94.4 1.17.37 1.43.44 1.75.45 2.07.29 2.29-.07 2.35-.47 2.18-.63 1.9-.35 1.8.56" filter="url(#a)"/><path d="m41.83-69.02 1.54 1.06 1.22.84 1.06.74.99.69.98.71.93.7.81.64.69.57.65.55.74.64.92.81 1.11 1 1.22 1.14 1.14 1.11.81.9.47.77M23.25-72.7l.11-.13.73.08.95.03.97.07.98.13 1.03.13 1.08.1 1.14.07 1.17.06 1.19.08 1.2.14 1.23.23 1.28.37 1.32.52 1.31.57 1.18.38.79.26-15.64-19.51 1.1 1.28.64 1.02.54.9.58 1.02.63 1.14.73 1.1.81.95.87.86.87.92.82 1.06.79 1.2.81 1.18.92 1 1.11.71 1.35.42 1.54.24 1.53.29.95.88-.95 3.34" filter="url(#a)"/><path d="m40.45-70.15.93.12 1.61-.19 1.66.04 1.46.37 1.32.5 1.33.39 1.5.15 1.69-.17 1.79-.48 1.7-.62 1.47-.45 1.2.08 1.11.71 1.44 1.05 2.4.93 3.89.28 9.76-7.98-2.73 1.08-3.03.87-3.03.29-2.79.04-2.36-.03-1.83-.11-1.39-.25-1.14-.36-1.14-.38-1.33-.27-1.58-.08-1.81.15-1.92.28-1.95.33-1.94.34-1.89.36-1.8.36-1.68.29-1.68.22-1.91.13-1.95-.65" filter="url(#a)"/><path d="m34.98-73.18-1.91-.81-1.24-.42-1.1-.31-1.08-.23-1.08-.13-1.05-.06-1.02-.01-1 .03-1 .07-1.05.1-1.16.1-1.29.09-1.38.1-1.38.18-1.31.34-1.19.49-1.12.57-1.2.52-1.37.38-1.53.25-1.64.19 10.47-19.84 1.87 2.41 2.25 1.07 1.75.74 1.12.89.69 1.21.49 1.49.43 1.66.46 1.66.53 1.53.63 1.34.72 1.13.83.92.92.72 1.12.67 1.82.96-2.64-1.37 1.74.78 1.15.43 1.18.5 1.27.6 1.25.64 1.19.65 1.15.67 1.15.65 1.17.65 1.18.65 1.16.67 1.13.67 1.08.66 1.03.62.99.52.93.42.9.38.93.46 1.08.63 1.3.88 1.55 1.06 1.54 1.06.9.37" filter="url(#a)"/><path d="m32.34-74.55.06-1.91.04-2.69-.24-2.47-.44-2.06-.62-1.52-.74-1.12-.78-1.01-.73-1.21-.71-1.5-.84-1.65-1.1-1.55-1.42-1.24-1.54-.95-1.39-.91-1-1.31-.67-2.08-.86-2.97-2.06-4.21 13.92 32.27.7-.05 1.25-.26 1.39-.18 1.33.06 1.3.33 1.28.52 1.25.64 1.16.73 1.11.76 1.1.76 1.18.68 1.29.56 1.37.42 1.37.33 1.35.4 1.47.62 1.72 1.02 1.39 1.33" filter="url(#a)"/><path d="m28.9-75.76 1.57.82 1.09.5 1.04.43 1.05.48 1.06.54 1.09.63 1.13.69 1.15.72 1.11.71 1.05.69.99.71 1.03.77 1.15.85 1.39 1.01 2.14 1.51 20.09-19.6-4.46.15-2.69.5-2.3.72-2.2.53-2.11.27-1.96.07-1.87.07-1.92.28-2.05.59-2.17.82-2.18.89-2.07.82-1.9.71-1.75.61-1.61.49-1.46.3-1.28-.03-1.11-.34-1-.4-1 .04-.67.44" filter="url(#a)"/><path d="m25.43-77.37 1.21.57.86.52.89.46.98.44 1.02.44 1.06.45 1.06.48 1.08.52 1.11.56 1.12.62 1.15.65 1.15.68 1.14.71 1.11.72 1.09.73 1.09.75 1.09.77 1.07.78 1.05.77 1.04.8 1.08.85 1.06.88.62.6-.78-.4" filter="url(#a)"/><path d="m53.15-81.71-2.26-.74-1.52-.53-1.52-.12-1.85.34-1.98.38-1.84.09-1.64-.1-1.57.04-1.66.46-1.78.87-1.8 1.03-1.67.86-1.47.5-1.23.13-1.05-.11-1.04-.03-1.84 1.27-3.22-.96-2.66-.8-1.4-.6-.82-.82-.74-1.08-.89-1.11-1.1-.9-1.22-.57-1.27-.31-1.26-.24-1.23-.34-1.24-.48-1.24-.55-1.25-.48-1.22-.32-1.12-.19-.99-.27-.92-.53-1.14-.76-1.92-.63" filter="url(#a)"/><path d="m-3.14-88.58.5.26.81.78 1.02.74 1.09.46 1.05.28 1.01.31 1.02.46 1.08.62 1.14.69 1.19.66 1.2.59 1.19.52 1.18.46 1.2.39 1.26.3 1.3.15 1.29-.05 1.12-.2.8-.01.44.73.76 1.11" filter="url(#a)"/><path d="m17.55-79.46-.98-.46-1.13-.58-1.33-.62-1.31-.72-1.19-.98-1.09-1.34-1.07-1.66-1.11-1.78-1.17-1.69-1.21-1.41-1.2-.97-1.13-.56-1.05-.36-1.04-.6-1.17-1.29-1.38-2.13-1.15-2.59" filter="url(#a)"/><path d="m16.32-79.72-2.16-2.24-1.32-2.19-1.14-1.14-1.12-.76-1.15-.82-1.2-.82-1.25-.63-1.26-.34-1.22-.17-1.16-.16-1.11-.33-1.11-.66-1.14-1.11-1.2-1.62-1.31-2.09-1.46-2.37-1.72-2.43-2.03-2.43-2.28-2.61-2.18-2.94-1.07-1.99L5.44-81.2l-1.87-4.02-.97-1.2-.83-2.1-.96-2.46-1.08-1.66-1.15-.53-1.24.12-1.39.02-1.63-.62-1.82-1.25-1.89-1.33-1.77-.83-1.61-.51-1.56-1.37-1.33-3.33" filter="url(#a)"/><path d="m2.18-81.56 2.15.17 1.43.07 1.3.06 1.25.05 1.2.03 1.2.05 1.22.09 1.24.12 1.23.16 1.19.16 1.13.18 1.14.19 1.24.26 1.37.32 1.44.37 1.36.33 1.13.24.9.12.97.13 1.47.37-54.95-20.73.43.13 1.38.31 1.7.87 1.85 1.07 1.86.77 1.77.42 1.63.38 1.52.69 1.46 1.06 1.47 1.16 1.51.85 1.57.29 1.6-.23 1.59-.33 1.52.1 1.41.78 1.3 1.16 1.24.95 1.2.91 1.05 2.58.76 3.56-.77-3.3-1.05-2.27-1.19-.38-1.22-.1-1.3-.5-1.45-.81-1.59-.91-1.68-.95-1.7-1.1-1.67-1.33-1.6-1.46-1.54-1.31-1.48-.87-1.48-.26-1.49.24-1.53.49-1.54.41-1.55.1-1.53-.36-1.57-.98-1.68-1.69-1.85-2.31-2.1-2.62-2.43-3L1.84-81.6l.56 1.08.78 1.18 1.07.58 1.2.11 1.22.03 1.16.25 1.08.54 1.05.74 1.05.78 1.08.75 1.07.72.98.73.88.68.83.51.96.33 1.31.39 1.66.94 1.46 1.69m57.12 57.93 15.92 1.79-1.38 2.1-2.85 2.37-1.4 2.55-.19 2.61.3 2.61.42 2.59.48 2.57.63 2.56.8 2.53.88 2.49.87 2.44.8 2.39.79 2.33.91 2.29 1.16 2.25 1.45 2.23 1.66 2.23 1.76 2.22 1.83 2.2 1.99 2.19 2.3 2.14 2.68 2.11 2.89 2.07 2.62 2.04 1.75 2 .41 1.98-1.08 1.96-2.33 1.95-3.09 1.91-3.31 1.85-2.99 1.78-2.16 1.68-1.15 1.61-.4 1.55 1.11 1.32" filter="url(#a)"/><path d="m1.22-81.56-2.53.12-2.67.17-3.15.26-3.65.33-3.96.39-3.92.44-3.54.49-3.03.52-2.64.57-2.52.64-2.69.73-3 .81-3.31.91-3.57 1-3.81 1.08-4.12 1.13-4.61 1.15-5.26 1.14-5.86 1.13-6.13 1.14-5.83 1.2-5 1.33-4.15 1.53-4.44 1.85-7.75 2.71" filter="url(#a)"/><path d="m1.22-81.56-3.06.12-2.85.18-3.18.26-3.39.33-3.49.4-3.48.44-3.35.49-3.14.53-2.98.59-2.98.66-3.17.74-3.46.83-3.78.92-4.01 1.01-4.11 1.08-4.09 1.12-4.04 1.15-3.99 1.16-3.98 1.19-4.01 1.22-4.06 1.32-4.19 1.46-4.44 1.63-4.72 1.81-4.76 1.92-4.23 1.95-3.38 1.89-3.66 1.94-8.39 2.62" filter="url(#a)"/><path d="m-1.3-81.43-2.41.04-3.01.23-2.7.27-2.51.31-2.74.37-3.32.46-3.99.54-4.47.62-4.52.67-4.13.74-3.45.81-2.74.88-2.27.95-2.21 1.01-2.55 1.08-3.13 1.14-3.77 1.2-4.27 1.25-4.63 1.31-4.89 1.37-5.18 1.45-5.52 1.52-5.85 1.62-6.02 1.71-6.04 1.79-6.08 1.87-6.29 1.85-6.53 1.75-6.15 1.62" filter="url(#a)"/><path d="m-1.77-81.45-1.8.15-2.41.27-2.34.33-2.13.4-2.02.45-1.99.49-1.92.52-1.8.57-1.63.64-1.5.73-1.41.81-1.38.92-1.41 1-1.44 1.08-1.44 1.13-1.31 1.15-1.02 1.14-.61 1.13-.21 1.13.02 1.21-.02 1.33-.26 1.52-.6 1.85-.68 2.71" filter="url(#a)"/><path d="m-7.4-81.07-2.89.35-2.6.42-2.58.49-2.51.51-2.52.54-2.65.59-2.87.68-3.04.77-3.15.87-3.2.95-3.22 1.04-3.25 1.1-3.25 1.14-3.2 1.17-3.14 1.21-3.12 1.25-3.21 1.32-3.38 1.43-3.61 1.53-3.74 1.66-3.72 1.75-3.5 1.82-3.18 1.87-2.88 1.87-2.73 1.87-2.75 1.85-2.9 1.87-3.09 1.89-3.31 1.96-3.6 2.06-4.08 2.15-4.73 2.2-5.26 2.1-4.96 1.87-3.33 1.68-1.59 2.04" filter="url(#a)"/><path d="m-15.05-79.84-2.92.6-2.66.67-2.4.68-2.36.73-2.42.81-2.46.89-2.42.96-2.35 1.03-2.26 1.08-2.18 1.14-2.14 1.2-2.13 1.25-2.16 1.3-2.2 1.35-2.24 1.43-2.24 1.52-2.18 1.6-2.13 1.69-2.1 1.8-2.16 1.9-2.13 1.88-1.92 1.64" filter="url(#a)"/><path d="m-21.57-78.35-2.99.69-4.96.81-5.14.9-3.83.99-2.58 1.07-2.13 1.15-2.34 1.17-2.8 1.18-3.11 1.17-3.12 1.19-3.01 1.25-3.01 1.37-3.29 1.52-3.84 1.66-4.46 1.79-4.89 1.87-5 1.89-4.8 1.88-4.42 1.84-4.05 1.8-3.73 1.76-3.58 1.76-3.69 1.77-4.03 1.89-4.53 2.45M78.02-15.24l3.19 2.86 2.77 2.31 4.05 2.27 4.55 2.39 3.25 2.51.96 2.57-.88 2.6-1.51 2.58-1.04 2.57-.07 2.55.82 2.52 1.4 2.49 1.67 2.45 1.76 2.38 1.77 2.34 1.76 2.28 1.65 2.24 1.41 2.23.99 2.22.47 2.22.01 2.21-.24 2.19-.18 2.15.13 2.11.44 2.06.57 2.03.45 2 .16 1.97-.25 1.96-.88 1.96-1.64 2.01-2.11 2.16-1.52 2.44" filter="url(#a)"/><path d="m-24.96-77.39-5.99 1.06-5.04.97-3.66 1.01-2.43 1.06-1.77 1.12-1.66 1.19-1.95 1.23-2.52 1.29-3.22 1.35-3.85 1.42-4.27 1.49-4.4 1.57-4.24 1.65-3.92 1.72-3.55 1.76-3.26 1.78-3.15 1.8-3.22 1.82-3.42 1.85-3.61 1.9-3.67 1.99-3.55 2.05-3.36 2.13-3.34 2.17-3.72 2.23-4.35 2.29-5.19 2.37" filter="url(#a)"/><path d="m-25.32-77.07-3.29 1.14-2.39.97-2.28 1.08-2.27 1.18-2.19 1.21-2.04 1.18-1.9 1.15-1.8 1.17-1.77 1.24-1.82 1.37-1.9 1.51-1.99 1.68-2.03 1.8-2.02 1.88-1.92 1.89-1.8 1.87-1.66 1.83-1.52 1.79-1.4 1.76-1.31 1.74-1.27 1.77-1.33 1.89-1.73 2.44" filter="url(#a)"/><path d="m-25.32-77.07-3.46 1.15-2.76.99-3.18 1.1-3.36 1.2-3.06 1.22-2.59 1.19-2.29 1.19-2.28 1.22-2.47 1.31-2.72 1.43-2.88 1.57-2.93 1.7-2.89 1.8-2.87 1.86-2.89 1.87-2.92 1.88-2.83 1.87-2.58 1.86-2.15 1.89-1.64 1.92-1.2 1.98-.99 2.04-1.09 2.08-1.47 2.09-2.03 2.08-2.63 2.04-3.08 2.04-3.18 2.08-2.78 2.19-1.96 2.34-1.28 2.58-1.55 3.02-2.56 3.98" filter="url(#a)"/><path d="m-25.32-77.07-3.73 1.15-3.19.98-3.4 1.11-3.63 1.19-3.5 1.21-3.02 1.2-2.42 1.18-1.94 1.21-1.63 1.3-1.5 1.42-1.5 1.57-1.61 1.69-1.83 1.8-2.12 1.86-2.46 1.88-2.78 1.87-3.06 1.86-3.34 1.86-3.58 1.87-3.8 1.9-3.99 1.97-4.06 2.05-3.99 2.09-3.69 2.11-3.23 2.08-2.69 2.01-2.26 1.98-2.16 2.03-2.55 2.15-2.94 2.23-1.49 2.54" filter="url(#a)"/><path d="m-25.32-77.07-3.33 1.15-2.45.99-2.41 1.11-2.5 1.2-2.55 1.22-2.5 1.19-2.35 1.19-2.24 1.23-2.24 1.32-2.37 1.44-2.57 1.58-2.73 1.7-2.77 1.8-2.66 1.85-2.48 1.88-2.3 1.88-2.18 1.88-2.14 1.87-2.15 1.9-2.17 1.93-2.11 1.98-2.03 2.04-1.95 2.07-1.97 2.09-2.13 2.09-2.39 2.07-2.68 2.08-2.84 2.14-2.78 2.25-2.45 2.41-1.95 2.62-1.53 2.82-1.47 2.93-1.75 2.66-2.16 1.82" filter="url(#a)"/><path d="m-28.82-76.04-2.66.72-3.2 1-3.17 1.06-2.84 1.13-2.36 1.2-1.9 1.25-1.67 1.3-1.68 1.36-1.91 1.43-2.24 1.51-2.58 1.59-2.83 1.67-2.92 1.72-2.87 1.77-2.73 1.8-2.55 1.81-2.42 1.84-2.36 1.89-2.35 1.93-2.35 2-2.32 2.07-2.29 2.13-2.31 2.19-2.36 2.22-2.42 2.25-2.42 2.28-2.38 2.28-2.44 2.26-2.64 2.29-2.91 2.93" filter="url(#a)"/><path d="m-30.53-75.21-2.77 1.22-2.51 1.35-2.33 1.29-2.2 1.2-2.14 1.15-2.12 1.16-2.12 1.27-2.13 1.4-2.11 1.57-2.08 1.71-2.05 1.82-2.05 1.87-2.04 1.89-2.04 1.87-2 1.84-1.9 1.84-1.76 1.84-1.6 1.88-1.45 1.95-1.37 2.05-1.33 2.12-1.33 2.15-1.31 2.07-1.3 1.93-1.31 1.87-1.36 2.11-1.63 2.71" filter="url(#a)"/><path d="m-30.53-75.21-3.05 1.22-3.23 1.36-3.45 1.29-3.98 1.2-4.68 1.15-5.24 1.18-5.45 1.27-5.22 1.42-4.49 1.57-3.44 1.72-2.32 1.82-1.5 1.87-1.22 1.89-1.49 1.87-2.21 1.86-3.09 1.84-3.92 1.86-4.57 1.9-5.12 1.97-5.61 2.04-6.1 2.1-6.42 2.11-6.34 2.07-5.73 2-4.68 1.98-3.63 2.02-2.97 2.15-2.84 2.23-3.4 2.53" filter="url(#a)"/><path d="m-33.5-74.18-1.14 1.58-1.69 1.33-1.93 1.19-1.83 1.11-1.47 1.13-.97 1.23-.44 1.39.01 1.56.23 1.72.13 1.83-.2 1.88-.48 1.89-.41 1.86.16 1.84 1.18 1.81 2.33 1.81 3.25 1.84 3.55 1.93 3.06 2.05 1.87 2.18.57 2.25.25 2.12 2.13 1.69 6.52 1.11M-33.5-74.18l-4.51 1.58-3.44 1.33-1.6 1.18-.99 1.11-1.22 1.12-1.8 1.23-2.49 1.38-3.11 1.55-3.57 1.72-3.79 1.83-3.77 1.88-3.54 1.89-3.18 1.86-2.77 1.83-2.46 1.8-2.36 1.8-2.47 1.82-2.66 1.9-2.77 2.05-2.76 2.22-2.91 2.38-3.34 2.29-2.84 1.55" filter="url(#a)"/><path d="m-33.5-74.18-2.53 1.59-2.69 1.34-3.12 1.18-3.24 1.13-3.18 1.14-3.3 1.26-3.71 1.41-4.22 1.58-4.55 1.73-4.62 1.83-4.48 1.89-4.21 1.89-3.85 1.87-3.37 1.85-2.77 1.84-2.13 1.86-1.6 1.9-1.39 1.96-1.57 2.04-2.08 2.1-2.78 2.11-3.53 2.07-4.28 2-4.89 1.97-5.09 2.02-4.77 2.14-4.42 2.23-3.67 2.53" filter="url(#a)"/><path d="m-33.5-74.18-11.04 1.58-.91 1.33-.71 1.18-2.22 1.11-3.01 1.12-2.98 1.23-2.75 1.38-2.86 1.55-3.38 1.72-4.05 1.83-4.49 1.88-4.54 1.89-4.34 1.86-4.22 1.83-4.51 1.8-5.37 1.8-6.63 1.82-7.75 1.9-8.12 2.05-7.47 2.22-6.26 2.38-5.17 2.29-3.88 1.55m105.37-38.38-2.28 1.05-2.82 1.3-2.64 1.31-2.68 1.31-3.02 1.35-3.3 1.43-3.3 1.52-3.12 1.6-2.88 1.69-2.62 1.74-2.41 1.78-2.23 1.8-2.15 1.82-2.21 1.85-2.39 1.88-2.65 1.95-2.86 2.01-2.97 2.07-2.97 2.13-2.94 2.19-2.92 2.22-2.93 2.25-2.99 2.26-3.08 2.28-3.2 2.28-3.39 2.29-3.58 2.29-3.3 2.24-1.75 2.06" filter="url(#a)"/><path d="m-39.54-70.67-12.35 1.24-.53 1.23-1.02 1.31-2.51 1.42-2.88 1.53-3.05 1.62-3.82 1.7-5.1 1.76-6.28 1.8-6.77 1.81-6.4 1.82-5.39 1.85-4.14 1.89-3.1 1.95-2.54 2.02-2.57 2.08-3.07 2.14-3.79 2.18-4.49 2.23-4.99 2.24-5.3 2.27-5.4 2.27-5.22 2.28-4.72 2.27-4.09 2.26-3.84 2.25-4.46 2.3-5.47 2.63-6.84 3.73" filter="url(#a)"/><path d="m-39.54-70.67-2.32 1.24-2.31 1.22-3.23 1.3-3.97 1.41-4.12 1.52-3.76 1.62-3.21 1.69-2.68 1.75-2.31 1.79-2.11 1.8-2.07 1.81-2.21 1.83-2.57 1.87-3.16 1.94-3.92 2-4.74 2.07-5.38 2.13-5.62 2.18-5.33 2.21-4.52 2.25-3.46 2.26-2.54 2.27-2.01 2.26-2.08 2.29-2.75 2.35-3.39 2.17" filter="url(#a)"/><path d="m-39.54-70.67-5.41 1.25-1.82 1.24-1.88 1.32-2.11 1.44-2.38 1.55-2.82 1.64-3.18 1.72-3.3 1.77-3.13 1.81-2.84 1.82-2.53 1.85-2.24 1.88-1.94 1.93-1.65 1.98-1.46 2.04-1.43 2.11-1.62 2.15-1.97 2.2-2.37 2.24-2.69 2.25-2.82 2.28-2.73 2.28-2.47 2.29-2.18 2.3-1.95 2.3-1.9 2.31-2.02 2.32-2.17 2.33-2.19 2.35-1.97 2.37-1.55 2.39-1.18 2.41-1.06 2.45-1.31 2.54-1.91 2.8-2.83 3.33-2.9 3.99" filter="url(#a)"/><path d="m-45.01-67.03-3.78 1.49-2.54 1.61-3.28 1.65-3.86 1.71-3.88 1.77-3.94 1.81-4.48 1.81-5.37 1.8-6.08 1.81-6.23 1.86-5.78 1.92-5.05 2-4.49 2.07-4.4 2.13-4.71 2.17-4.96 2.21-4.6 2.23-3.53 2.26-2.42 2.25-2.6 2.26-4.87 2.27-8.01 2.34-8.29 2.16m104.5-43.76-2.25 1.63-2.56 1.91-2.6 2.07-2.62 2.02-2.62 1.93-2.63 1.86-2.6 1.82-2.6 1.84-2.68 1.86-2.87 1.92-3.19 2-3.56 2.05-3.89 2.09-4.14 2.09-4.27 2.09-4.32 2.09-4.34 2.12-4.38 2.19-4.43 2.31-4.39 2.43-4.06 2.56-3.32 2.62-2.24 2.61-1.26 2.54-.9 2.42-1.53 2.32-2.87 2.29-4.08 2.32-4.17 2.38-3.57 2.38" filter="url(#a)"/><path d="m-49.61-63.47-4.78 1.73-3.91 2.21-1.86 2.09-1.06 1.92-1.11 1.85-1.47 1.83-1.82 1.83-2.05 1.88-2.18 1.93-2.18 2.01-2.07 2.06-1.84 2.1-1.57 2.1-1.34 2.11-1.31 2.12-1.47 2.16-1.83 2.24-2.27 2.34-2.64 2.44-2.85 2.52-2.78 2.57-2.48 2.56-1.99 2.51-1.43 2.45-.94 2.39-.62 2.35-.53 2.34-.65 2.37-.85 2.4-1.01 2.45-.99 2.45-.87 2.34-.92 2.07-1.74 2.09" filter="url(#a)"/><path d="m-51.51-62.16-1.98 1.69-2.22 1.82-2.26 1.88-2.53 1.84-2.94 1.78-3.2 1.79-3.17 1.84-2.89 1.94-2.52 2.01-2.23 2.09-2.17 2.13-2.36 2.18-2.72 2.21-3.08 2.23-3.27 2.24-3.25 2.26-3.1 2.25-2.97 2.25-2.84 2.22-2.46 2.16-1.86 2-2.64 1.79" filter="url(#a)"/><path d="m-59.01-54.08-2.72 2.52-1.49 1.82-1.33 1.76-1.69 1.88-2.47 2.02-3.46 2.12-4.27 2.14-4.6 2.12-4.42 2.08-4.07 2.07-3.78 2.11-3.66 2.21-3.55 2.33-3.26 2.46-2.83 2.54-2.53 2.59-2.65 2.58-3.31 2.5-4.34 2.42-5.35 2.35-6.03 2.32-6.24 2.32-6.12 2.34-5.72 2.4-4.95 2.46-3.63 2.53-2.19 2.36-3.73 1.34" filter="url(#a)"/><path d="m-60.95-52.69-1.07 1.6-1.3 1.85-1.41 2.07-1.44 2.14-1.45 2.18-1.45 2.2-1.44 2.23-1.42 2.25-1.4 2.27-1.36 2.28-1.28 2.29-1.16 2.28-.99 2.29-.84 2.29-.73 2.31-.67 2.32-.63 2.33-.6 2.35-.54 2.38-.47 2.41-.38 2.46-.32 2.51-.27 2.57-.22 2.61-.17 2.63-.11 2.6-.04 2.56.02 2.53.06 2.57.08 2.55.06 2.24.07 1.58M76.56-20.41l1.93 2.24 5.56 2.68 7.23 2.6 6.68 2.44 5.11 2.39 3.03 2.41.77 2.48-1.2 2.53-2.31 2.56-2.14 2.55-.74 2.56 1.47 2.53 3.76 2.52 5.38 2.49 5.86 2.45 5.21 2.39 3.85 2.33 2.26 2.26.91 2.19.02 2.16-.24 2.19.33 2.24 1.59 2.32 2.72 2.34 2.74 2.21 4.53 1.65" filter="url(#a)"/><path d="m-64.79-46.86-2.91 2.16-3.66 2.02-3.25 2.13-2.44 2.21-1.71 2.25-1.19 2.26-1.03 2.26-1.18 2.26-1.56 2.26-1.95 2.26-2.23 2.26-2.33 2.28-2.32 2.29-2.27 2.3-2.22 2.32-2.25 2.34-2.43 2.36-2.72 2.39-3 2.44-3.03 2.55-2.78 2.72-2.51 2.9-2.84 2.69-4.6 1.22m56.59-52.48-1.22 1.59-1.76 2.11-2.13 2.24-2.32 2.27-2.26 2.26-1.98 2.27-1.57 2.26-1.14 2.26-.85 2.26-.79 2.26-.98 2.28-1.33 2.29-1.7 2.3-1.95 2.33-1.99 2.34-1.84 2.36L-94-6.12l-1.38 2.46-1.34 2.56-1.52 2.67-1.87 2.75-2.14 2.6-1.69 2.16.65 2.11" filter="url(#a)"/><path d="m-66.11-44.79-12.52 2.89-15.16 2.55-10.67 2.19-6.02 1.97-1.82 1.93 1.49 2.03 3.06 2.18 2.5 2.35.44 2.49-1.95 2.59-3.56 2.62-3.97 2.57-3.51 2.48-2.76 2.39-2.31 2.33-2.37 2.29-3 2.31-4.22 2.34-5.96 2.38-7.71 2.42-8.22 2.43-6.4 2.31-3.38 2.02-5.55 2.07M76.13-21.95l3.57 2.81 7.85 2.42 7.69 2.39 5.39 2.43 2.81 2.5.51 2.57-1.18 2.58-1.99 2.56L98.89.84l-1.15 2.49-.18 2.46.66 2.42 1.19 2.38 1.38 2.36 1.42 2.35 1.49 2.36 1.8 2.39 2.38 2.42 3.12 2.42 3.76 2.4 3.9 2.33 3.31 2.28 2.04 2.24.54 2.23-.56 2.23-.87 2.19-.43 2.07.26 1.94.67 1.89.89 1.76m-48.38-70.4.98 2.8.58 2.4.49 2.37.54 2.41.61 2.48.6 2.55.46 2.57.24 2.55.03 2.52-.11 2.48-.19 2.44-.21 2.41-.19 2.37-.16 2.32-.12 2.31-.11 2.33-.15 2.38-.26 2.43-.39 2.48-.53 2.44-.61 2.34-.59 2.15-.54 1.96-.57 2.01-.73 2.69M-71.17-35.67l-6.33 2.34-7.71 2.32-3.28 2.3-.15 2.29.62 2.29.21 2.29-.46 2.32-1.04 2.33-1.53 2.35-1.9 2.38-2.1 2.4-2.06 2.45-1.83 2.49-1.52 2.54-1.27 2.57-1.14 2.59-1.2 2.59-1.41 2.58-1.74 2.53-2.11 2.49-2.4 2.44-2.49 2.4-2.25 2.36-1.67 2.32-.88 2.29-.2 2.27.11 2.23-.09 2.19-.71 2.15-1.36 2.14-1.58 2.15-1.01 2.21.23 2.25 1.39 2.3 1.16 2.3-1.33 2.28m49.7-82.17-.95 2.15-.81 2.28-.71 2.25-.66 2.25-.6 2.27-.54 2.28-.48 2.3-.44 2.32-.39 2.33-.33 2.37-.26 2.39-.19 2.44-.12 2.51-.05 2.56.03 2.6.09 2.6.16 2.57.22 2.53.3 2.5.37 2.46.42 2.37.46 2.23.48 2.07.63 2.26 1.11 3.35" filter="url(#a)"/><path d="m-71.91-33.85-4.29 2.59-.25 2.46-.02 2.49-.87 2.63-2.18 2.72-3.76 2.7-5.26 2.6-6.22 2.48-6.32 2.39-5.63 2.35-4.41 2.34-3.04 2.35-1.8 2.38-.82 2.39-.21 2.42.06 2.43-.04 2.47-.45 2.52-1.09 2.57-1.86 2.63-2.57 2.67-3.12 2.66-3.37 2.59-3.24 2.47-2.69 2.34-1.83 2.21-.83 2.09-.05 1.99.23 1.92-.19 1.88-1.32 1.94-3.34 2.09-7.26 1.89" filter="url(#a)"/><path d="m-74.56-27.61-1.22 1.41-4.33 2.18-6.75 2.26-6.39 2.28-4.21 2.3-1.72 2.32-.02 2.33.4 2.36-.39 2.39-1.8 2.45-3.1 2.5-3.77 2.56-3.71 2.6-3.33 2.6-3.19 2.56-3.68 2.53-4.87 2.48-6.46 2.43-7.98 2.36-8.71 2.25-7.82 2.18-4.64 2.27-.12 2.55 2.48 2.39M75.85-22.9l1.1 2.28 1.32 2.43 1.78 2.56 2.71 2.53 4.08 2.44 5.15 2.39 5.31 2.4 4.54 2.45 3.35 2.51 2.36 2.54 1.84 2.54 1.84 2.54 2.1 2.52 2.39 2.52 2.56 2.49 2.73 2.46 3.21 2.43 4.14 2.36 5.25 2.24 5.73 2.06 4.49 1.98.71 2.45" filter="url(#a)"/><path d="m75.41-25.99.42 1.95.62 2.32.73 2.41.77 2.43.82 2.43.81 2.46.71 2.51.52 2.56.32 2.56.17 2.56.09 2.54.12 2.5.2 2.46.3 2.43.38 2.4.4 2.37.34 2.36.23 2.38.08 2.4-.04 2.42-.12 2.42-.17 2.39-.2 2.34-.24 2.29-.33 2.26-.45 2.23-.63 2.22-.84 2.18-1.07 2.11-1.27 2.04-1.51 2.09-1.89 2.39-2.64 3.26m.69-84.67 1.85 3.02 3.39 2.83 3.98 2.62L85-20.99l1.65 2.51.73 2.51.48 2.48.68 2.45.98 2.41 1.24 2.42 1.36 2.45 1.32 2.5 1.07 2.53.71 2.54.38 2.54.24 2.53.37 2.52.65 2.5.91 2.47 1.15 2.48 1.61 2.59 3.01 2.94" filter="url(#a)"/><path d="m71.66-35.01 1.38 2.2 1.39 1.96 1.47 2.27 1.34 2.47 1.01 2.54.73 2.55.65 2.55.74 2.54.86 2.51.9 2.49.87 2.47.81 2.48.76 2.51.76 2.53.8 2.55.84 2.56.86 2.56.83 2.55.78 2.54.63 2.51.4 2.46.09 2.42-.25 2.35-.53 2.29-.72 2.22-.81 2.19-.79 2.2-.64 2.26-.37 2.33-.12 2.35-.04 2.24-.06 1.66M71.66-35.01l-.69 2.2-.32 1.96.8 2.27 1.12 2.47.95 2.54.7 2.55.46 2.55.26 2.54.02 2.51-.28 2.49-.6 2.47-.87 2.48-1 2.51-.94 2.53-.8 2.55-.64 2.56-.59 2.56-.66 2.55-.82 2.54-1.01 2.51-1.16 2.46-1.27 2.42-1.31 2.35-1.28 2.29-1.17 2.22-1.03 2.19-.94 2.2-1.02 2.26-1.29 2.33-1.66 2.35-2.02 2.24-2.41 1.66" filter="url(#a)"/><path d="m71.66-35.01 2.65 2.21 1.61 1.97 1.19 2.29.91 2.48.86 2.55.98 2.56 1.21 2.56 1.53 2.54 1.96 2.52 2.46 2.5 3.07 2.49 3.65 2.5 4.09 2.52 4.21 2.54 3.88 2.56 3.14 2.57 2.1 2.56.98 2.56.02 2.53-.65 2.5-.99 2.46-1.03 2.41-.86 2.36-.47 2.3.13 2.26.88 2.24 1.72 2.23L113.3 33l2.74 2.24 2.63 2.22 2.09 2.17 1.24 2.12.08 2.07-1.3 2.05-2.44 2.01-2.09 1.87.27 1.46" filter="url(#a)"/><path d="m71.66-35.01 1.14 2.18 1.91 1.94 2.85 2.24 2.84 2.45 2 2.52 1.03 2.53.45 2.52.4 2.52.69 2.5 1.11 2.46 1.44 2.44 1.55 2.44 1.43 2.48 1.16 2.51.94 2.53.91 2.55 1.06 2.55 1.27 2.55 1.31 2.53 1.1 2.51.76 2.5.59 2.48.71 2.49.49 2.43-.97 1.93M70.18-37.7l2.95 2.5 2.84 2.15 2.42 2.12 2.48 2.27 2.7 2.42 3.11 2.49 3.72 2.52 4.31 2.53 4.68 2.52 4.65 2.5 4.17 2.46 3.25 2.45 2.09 2.46.96 2.47.22 2.51.09 2.54.63 2.56 1.68 2.55 2.9 2.55 4.01 2.53 4.82 2.52 5.39 2.5 5.86 2.49 6.31 2.49 6.01 2.43 1.47 1.94" filter="url(#a)"/><path d="m70.78-37.08.78 1.12 1.74 1.64 2.93 2.19 3.76 2.46 4.15 2.53 4.21 2.5 3.98 2.46 3.49 2.44 2.83 2.42 2.14 2.44 1.58 2.46 1.24 2.49 1.19 2.53 1.44 2.54 1.94 2.55 2.54 2.53 2.96 2.5 3.02 2.48 2.65 2.43 2.03 2.39 1.4 2.35.97 2.33.79 2.33.84 2.39 1.24 2.46 2.11 2.53 3.27 2.55 4 2.5 3.3 2.19 1.02.99" filter="url(#a)"/><path d="m70.78-37.08 2.99 1.13 4.33 1.66 4.57 2.21 4.44 2.48 3.57 2.54 2.05 2.52.48 2.47-.5 2.45-.63 2.45-.04 2.46.83 2.48 1.6 2.51 2.08 2.54 2.25 2.55 2.24 2.55 2.13 2.54 1.97 2.51 1.78 2.47 1.49 2.45 1.16 2.41.87 2.39.71 2.38.72 2.39.9 2.4 1.22 2.43 1.54 2.42 1.76 2.41 1.8 2.35 1.58 2.3 1.17 2.26.77 2.25.57 2.24.62 2.21.65 2.09.18 1.96-.72 1.9-.32 1.77" filter="url(#a)"/><path d="m69.78-39.29 3.32 1.76 6.27 1.51 4.74 1.79 1.81 2.14-.15 2.39-.78 2.47-.56 2.48-.01 2.46.57 2.43 1.1 2.43L87.65-15l1.97 2.46 2.34 2.49 2.64 2.52 2.84 2.54 2.89 2.55 2.81 2.53 2.63 2.51 2.47 2.47 2.47 2.44 2.68 2.39 3.06 2.34 3.33 2.3 3.21 2.29 2.45 2.36 1.18 2.49-.06 2.53-.4 2.48-.34 3.04" filter="url(#a)"/><path d="m68.62-40.69 1.34 1.49 2.77 1.89 3.34 2.06 2.54 2.12 1.48 2.21.91 2.31.95 2.41 1.41 2.48 2.04 2.52 2.68 2.53 3.28 2.53 3.82 2.52 4.26 2.5 4.55 2.49 4.52 2.49 4.13 2.51 3.37 2.53 2.42 2.55 1.56 2.57 1.02 2.56.91 2.56 1.14 2.54 1.5 2.52 1.75 2.48 1.76 2.42 1.47 2.37 1.09 2.28.88 2.22 1.11 2.18 1.84 2.19 2.59 2.26 2.5 2.38 1.47 2.51 1.65 2.65" filter="url(#a)"/><path d="m66.26-44.67 10.08 3.04 6.12 2.1.73 1.73-.42 1.67.54 1.84 1.29 2.07 1.29 2.27 1.12 2.4 1.4 2.43 2.28 2.43 3.29 2.41 3.87 2.4 3.74 2.39 3.05 2.41 2.23 2.46 1.65 2.5 1.5 2.55L111.83-3l2.59 2.53L118.13 2l4.53 2.39 3.7 2.29 1.23 1.83" filter="url(#a)"/><path d="m66.26-44.67 7.56 3.08 3.94 2.11 2.79 1.76 1.22 1.74-.16 1.91-.79 2.14-.69 2.31-.19 2.42.4 2.45.9 2.46 1.29 2.46 1.61 2.46 1.87 2.46 2.1 2.49 2.25 2.5 2.26 2.54 2.07 2.54 1.71 2.55L97.65.25l.79 2.51.48 2.48.32 2.45.29 2.41.31 2.39.32 2.37.35 2.39.42 2.4.64 2.44.93 2.45 1.12 2.43 1.03 2.36.59 2.27-.03 2.22-.44 2.26-.34 2.43.18 2.4.01 1.33" filter="url(#a)"/><path d="m64.5-47.35 3.92 1.74 7.53 1.97 6.55 2.01 4.73 2 3.85 2.01 3.32 2.04 2.55 2.08 1.77 2.16 1.5 2.24 2.05 2.34 3.12 2.42 4.08 2.47 4.44 2.51 4.09 2.51 3.36 2.5 2.74 2.45 2.6 2.41 3.05 2.39 3.94 2.43 4.9 2.53 5.24 2.56 4.16 2.46 3.27 2.87" filter="url(#a)"/><path d="m60.49-52.46 2.9 2.59 1.62 2.16 1.49 2.03 1.51 2.02 1.45 2.02 1.34 2.04 1.26 2.06 1.17 2.09 1.07 2.14.97 2.22.88 2.3.86 2.38.86 2.44.87 2.48.86 2.52.8 2.52.72 2.51.62 2.51.52 2.49.45 2.51.35 2.51.27 2.53.18 2.56.09 2.56.01 2.58-.06 2.56-.11 2.56-.14 2.53-.18 2.51-.21 2.46-.31 2.39-.43 2.29-.59 2.17-.73 2.1-.75 2.17-.57 2.22M58.9-54.76l8.16 2.13 7.84 1.9 5.92 1.9 3.75 2.02 2.35 2.15 1.58 2.17 1.46 2.09 2.09 1.99 3.39 1.94 4.97 1.98 6.27 2.08 6.85 2.22 6.52 2.33 5.35 2.39 3.7 2.42 2 2.42.69 2.41.07 2.41.22 2.41.99 2.45 2.1 2.52 3.27 2.58 4.53 2.62 6.2 2.56 8.46 2.38 10.35 2.09" filter="url(#a)"/><path d="m54.47-58.94 1.84 1.58 1.91 1.6 1.96 1.77 1.94 1.91 1.86 2 1.76 2.03 1.74 2.03L69.42-44l2.31 2.03 2.78 2.03 3.14 2.04 3.26 2.08 3.07 2.12 2.62 2.18 2.03 2.26 1.48 2.34 1.09 2.41.94 2.47 1.01 2.51 1.24 2.52 1.5 2.51 1.71 2.49 1.85 2.45 1.93 2.44 1.91 2.47 1.76 2.53 1.53 2.58 1.45 2.59 1.54 2.67.24 2.86" filter="url(#a)"/><path d="m52.22-61.5 3.24 3.11 2.32 2.07 2.25 1.83 2.16 1.82 1.94 1.87 1.72 1.96 1.55 2.04 1.46 2.1 1.4 2.11 1.4 2.07 1.46 2.04 1.63 2.02 1.85 2.06 2.08 2.13 2.24 2.23 2.3 2.32 2.25 2.38 2.14 2.42 2.05 2.43 1.98 2.44 1.94 2.45 1.9 2.47 1.81 2.49 1.69 2.53 1.54 2.56 1.37 2.56 1.17 2.56.88 2.53.58 2.51.31 2.5.16 2.49.1 2.44.12 2.32.04 2.67" filter="url(#a)"/><path d="m52.2-61.25 6.78 1.99.69 1.72.26 1.68 1.08 1.76 1.92 1.88 2.46 1.96 2.78 1.99 3.01 2.01 3.3 2 3.66 2 3.92 2 3.92 2.01 3.51 2.03 2.75 2.06 2 2.11 1.64 2.2 1.92 2.3 2.75 2.39 3.64 2.46 4.04 2.47 3.77 2.54 3.39 2.8 3.56 3.25" filter="url(#a)"/><path d="m52.2-61.25 3.21 2 2.19 1.73 2.4 1.69 2.43 1.78 2.09 1.89 1.68 1.96 1.47 2.01 1.48 2.01 1.57 2.02 1.63 2.01 1.59 2.01 1.5 2.03 1.46 2.05 1.49 2.09 1.64 2.15 1.82 2.22 1.95 2.32 1.98 2.4 1.92 2.47 1.91 2.51 2.06 2.55 2.3 2.57 2.35 2.52 2 2.38 1.34 2.17.58 2.01" filter="url(#a)"/><path d="m50.28-62.82 4.68 2.01 5.89 2.27 4.4 2.03 2.74 1.89 1.78 1.84 1.54 1.88 1.7 1.94 1.89 2.02 1.94 2.08 1.8 2.1 1.65 2.07 1.55 2.02 1.56 1.99 1.69 2.02 1.86 2.1 2 2.21 2.06 2.31 1.96 2.38 1.72 2.42 1.42 2.43 1.16 2.41 1.09 2.41 1.25 2.42 1.7 2.46 2.35 2.52 2.9 2.61 2.83 2.68 1.84 2.67 1.44 2.27" filter="url(#a)"/><path d="m50.23-63.17.47.51 1.9 1.5 2.07 1.74 1.85 1.76 1.66 1.78 1.61 1.83 1.63 1.91 1.67 1.96 1.69 2 1.63 2.02 1.55 2.03 1.44 2.03 1.36 2.04 1.32 2.05 1.3 2.09 1.3 2.13 1.29 2.19 1.27 2.26L78.46-27l1.18 2.41 1.13 2.47 1.08 2.51 1.01 2.52.89 2.52.74 2.49.58 2.46.46 2.45.42 2.48.44 2.54.41 2.59.32 2.59.34 2.68.5 2.87m-42.1-74.69 4.6 1.92 5.9 1.42 5.6 1.56 3.94 1.67 2.37 1.71 1.52 1.75 1.45 1.79 2.11 1.87 3.35 1.93 4.79 1.97 5.93 1.99 6.36 2 5.95 2 4.99 2 4.04 2 3.66 2.01 4.17 2.03 5.43 2.07 6.84 2.15 7.6 2.3 7.14 2.5 5.33 2.6 1.79 2.46" filter="url(#a)"/><path d="m43.96-67.59 3.97 1.6 2.77 1.28 2.55 1.28 2.61 1.41 2.87 1.58 3.32 1.74 3.82 1.81 4.27 1.84 4.43 1.84 4.22 1.87 3.71 1.91 3.18 1.98 2.96 2.06 3.24 2.11 3.95 2.08 4.79 1.99 5.34 1.88 5.23 1.81 4.47 1.9 3.76 2.18 4.39 2.49 7.01 2.59 10.66 2.1" filter="url(#a)"/><path d="m43.96-67.59 3.6 1.62 2.92 1.29 2.51 1.3 2.36 1.44 2.16 1.61 1.97 1.75 1.92 1.83 2.01 1.86 2.13 1.87 2.2 1.91 2.25 1.95 2.34 2.01 2.48 2.06 2.59 2.07 2.6 2.06 2.44 2.02 2.09 2 1.68 2.02 1.31 2.08 1.13 2.19 1.18 2.31 1.41 2.39 1.73 2.43 1.95 2.44 2.01 2.42 1.94 2.39 1.93 2.36 2.05 2.39 2.19 2.69 1.82 3.57" filter="url(#a)"/><path d="m40.91-69.61 3.22 1.89 3.83 1.57 4 1.4 3.16 1.38 2.17 1.49 1.63 1.63 1.51 1.75 1.59 1.82 1.67 1.86 1.7 1.9L67.1-51l1.77 1.98L70.75-47l2.04 2.05L75-42.88l2.38 2.07 2.54 2.05 2.69 2.06 2.85 2.08 2.98 2.15 3.05 2.22 2.98 2.3 2.77 2.37 2.49 2.41 2.24 2.44 2.17 2.44 2.31 2.45 2.6 2.47 2.89 2.5 2.96 2.53 2.7 2.57 2.06 2.59 1.25 2.57.71 2.53.9 2.5 1.91 2.54 2.89 2.75 1.81 3.68m-93.3-86.2-.46 1.84 3.28 1.61 3.24 1.56 2.21 1.48 1.17 1.44.42 1.44.15 1.52.34 1.62.85 1.72 1.46 1.79 1.94 1.84 2.19 1.88 2.19 1.92 1.99 1.96 1.68 2.01 1.28 2.05.83 2.07.37 2.05-.12 2.04-.56 2.04-.92 2.05-1.12 2.12-1.13 2.2-.98 2.3-.71 2.38-.42 2.42-.17 2.44v2.43l.09 2.42.07 2.42-.08 2.46-.27 2.53-.33 2.64-.16 2.75-.6 3.43" filter="url(#a)"/><path d="m34.66-73.17 9.24 1.53 5.2 1.34 5.46 1.35 5.03 1.41 3.72 1.46 2.59 1.49 1.97 1.53 1.63 1.58 1.42 1.63 1.4 1.68 1.81 1.72 2.71 1.78 4.02 1.84 5.5 1.9 6.72 1.96 7.32 1.99 7.07 2 6.1 1.99 4.97 1.99 4.23 1.99 3.87 2.05 3.57 2.3 5.65 2.73M32.34-74.55l-1.43-.46-1.81-.75-1.99-.77-2.1-.73-2.16-.67-2.21-.63-2.25-.56-2.29-.49-2.34-.42-2.38-.36-2.41-.29-2.41-.21-2.44-.15-2.46-.07-2.51.01-2.59.09-2.66.17-2.71.24-2.73.32-2.69.39-2.61.43-2.5.5-2.4.55-2.35.61-2.35.68-2.4.77-2.47.87-2.53.97-2.55 1.08-2.53 1.17-2.48 1.22-2.38 1.21-2.18 1.1-1.64.94" filter="url(#a)"/><path d="m31.63-74.53.56-1-.76-.78-1.5-.69-1.96-.66-2.26-.64-2.46-.62-2.59-.56-2.7-.5-2.83-.42-2.97-.34-3.11-.25-3.25-.17-3.39-.08-3.55-.01-3.71.07-3.86.14-3.98.2-4.05.27-4.14.33-4.27.4-4.43.48-4.58.55-4.67.61-4.62.69-4.47.75-4.36.82-4.53.9-5.15.96-6.2 1.02-7.3 1.1-7.84 1.25-7.15 1.37" filter="url(#a)"/><path d="m31.22-74.64-2.08-1.08-2.06-.84-2.07-.74-2.05-.67-2.05-.63-2.09-.56-2.18-.49-2.29-.41-2.39-.36-2.48-.28-2.53-.21-2.57-.14-2.62-.07-2.7.01-2.79.1-2.91.17-3 .25-3.05.33-3.03.38-2.93.44-2.77.5-2.64.56-2.53.61-2.52.7-2.59.78-2.69.87-2.8.97-2.91 1.07-2.97 1.16-2.96 1.19-2.82 1.17-2.5 1.08-2.09.93-1.83.77" filter="url(#a)"/><path d="m17.55-79.46-1.76-.37-2.25-.42-2.36-.35-2.4-.27-2.42-.2-2.42-.13-2.43-.05-2.48.02-2.57.1-2.66.19-2.74.27-2.78.33-2.75.4-2.68.44-2.54.49-2.43.53-2.37.59-2.39.66-2.49.74-2.57.84-2.64.93-2.68 1.07-2.71 1.27-2.56 1.36" filter="url(#a)"/><path d="m16.32-79.72-2.88-.56-2.13-.36-2.24-.27-2.45-.19-2.6-.12-2.72-.05-2.9.03-3.15.12-3.48.2-3.81.28-4.03.34-4.08.41-3.94.45-3.7.5-3.52.55-3.56.61-3.9.69-4.4.77-4.86.87-5.09.98-5.05 1.08-5.03 1.17-5.35 1.22-5.97 1.19-6.32 1.09-6.35.93" filter="url(#a)"/><path d="m13-80.38-1.74-.41-1.63-.26-2.28-.2-2.63-.12-2.69-.04-2.68.05-2.71.11-2.79.17-2.92.24-3.08.3-3.26.36-3.44.44-3.6.51-3.74.58-3.85.64-3.95.72-4.04.78-4.13.85-4.17.93-4.18.99-4.17 1.05-4.29 1.12-4.62 1.18-5.16 1.23-5.7 1.28-5.88 1.33-5.44 1.41-4.92 1.51-5.7 1.6-8.35 1.67" filter="url(#a)"/><path d="m10.02-80.98-2.13-.12-2.22-.19-2.15-.12-2.18-.03-2.33.04-2.52.12-2.69.17-2.77.24-2.81.29-2.84.35-2.9.43-2.96.5-3 .57-3 .63-2.99.7-2.99.77-3.04.83-3.13.91-3.26.97-3.48 1.04-3.82 1.11-4.16 1.19-4.18 1.24-3.49 1.21-2.23 1.1" filter="url(#a)"/><path d="m10.96-80.73-2.04-.26-2.47-.17-2.6-.12-2.63-.03-2.68.05-2.76.14-2.84.23-2.86.3-2.87.37-2.85.43-2.84.49-2.8.54-2.78.6-2.75.67-2.73.75-2.76.83-2.85.92-2.99 1-3.15 1.07-3.27 1.11-3.35 1.15-3.37 1.19-3.38 1.22-3.4 1.3-3.45 1.38-3.54 1.5-3.61 1.63-3.68 1.76-3.7 1.85-3.74 1.9-3.76 1.9-3.78 1.87-3.82 1.83-3.92 1.79-3.89 1.75-3.39 1.69-2.76 1.31" filter="url(#a)"/><path d="m1.84-81.6-2.67.1-2.62.15-2.73.22-2.61.26-2.46.31-2.41.39-2.49.46-2.66.55-2.84.61-2.99.68-3.02.76-2.94.82-2.73.89-2.46.95-2.21 1.03-2.04 1.09-2 1.15-2.07 1.21-2.23 1.28-2.45 1.33-2.69 1.41-2.93 1.47-3.13 1.55-3.28 1.64-3.34 1.7-3.29 1.75-3.15 1.79-2.9 1.8-2.69 1.81-2.62 1.83-2.76 1.89-2.95 2-2.82 2.07-2.16 2.08-1.71 2.35" filter="url(#a)"/></g><path fill="none" stroke="#000" stroke-linejoin="round" stroke-width="3" d="M-9.45 9.93Q13.19 18.465 1.87-4.652" filter="url(#a)"/><path fill="#D77F8C" stroke="#000" stroke-linejoin="round" stroke-width="3" d="m-49.83 34.26.04-.23.07-.22.11-.21.15-.21.18-.2.22-.19.25-.19.28-.18.32-.17.35-.17.38-.17.42-.15.44-.16.47-.14.51-.14.53-.13.56-.13.59-.12.62-.12.64-.11.67-.11.69-.1.72-.09.74-.09.77-.08.79-.08.81-.07.84-.07.85-.06.88-.05.9-.05.91-.05.94-.04.95-.03.97-.03.99-.02 1.01-.02 1.02-.02h1.04l1.05-.01h1.06l1.08.01 1.1.01 1.1.02 1.12.02 1.13.03 1.14.03 1.15.03 1.15.04 1.17.05 1.18.05 1.18.05 1.19.06 1.2.07 1.21.07 1.21.07 1.21.08 1.22.08 1.22.09 1.23.09 1.22.09 1.23.1 1.24.1 1.23.11 1.23.11 1.23.12 1.23.12 1.23.13 1.23.12 1.22.14 1.23.13 1.21.14 1.21.15 1.21.15 1.2.15 1.2.16 1.19.16 1.18.16 1.17.17 1.17.17 1.15.18 1.15.17 1.13.19 1.13.18 1.11.19 1.1.2 1.09.19 1.07.2 1.06.21 1.05.2 1.03.21 1.01.22 1 .21.98.22.97.23.94.22.93.23.91.24.89.23.87.24-.87-.24-.89-.23-.91-.24-.93-.23-.94-.22-.97-.23-.98-.22-1-.21-1.01-.22-1.03-.21-1.05-.2-1.06-.21-1.07-.2-1.09-.19-1.1-.2-1.11-.19-1.13-.18-1.13-.19-1.15-.17-1.15-.18-1.17-.17-1.17-.17-1.18-.16-1.19-.16-1.2-.16-1.2-.15-1.21-.15-1.21-.15-1.21-.14-1.23-.13-1.22-.14-1.23-.12-1.23-.13-1.23-.12-1.23-.12-1.23-.11-1.23-.11-1.24-.1-1.23-.1-1.22-.09-1.23-.09-1.22-.09-1.22-.08-1.21-.08-1.21-.07-1.21-.07-1.2-.07-1.19-.06-1.18-.05-1.18-.05-1.17-.05-1.15-.04-1.15-.03-1.14-.03-1.13-.03-1.12-.02-1.1-.02-1.1-.01-1.08-.01h-1.06l-1.05.01h-1.04l-1.02.02-1.01.02-.99.02-.97.03-.95.03-.94.04-.91.05-.9.05-.88.05-.85.06-.84.07-.81.07-.79.08-.77.08-.74.09-.72.09-.69.1-.67.11-.64.11-.62.12-.59.12-.56.13-.53.13-.51.14-.47.14-.44.16-.42.15-.38.17-.35.17-.32.17-.28.18-.25.19-.22.19-.18.2-.15.21-.11.21-.07.22" filter="url(#a)"/></svg>