<svg viewBox="-100 -100 200 200" xmlns="http://www.w3.org/2000/svg" width="500" height="500" id="face-svg">
    <defs>
      <clipPath id="leftEyeClipPath">
        <polyline points="30.14,1.52 29.96,1.44 29.74,1.35 29.49,1.27 29.22,1.18 28.91,1.09 28.57,1 28.2,0.91 27.81,0.81 27.39,0.72 26.94,0.62 26.47,0.52 25.97,0.42 25.45,0.32 24.91,0.22 24.34,0.11 23.73,0.01 23.1,-0.1 22.43,-0.22 21.73,-0.33 21.01,-0.45 20.26,-0.57 19.49,-0.68 18.69,-0.8 17.86,-0.92 17.02,-1.04 16.15,-1.15 15.26,-1.27 14.35,-1.38 13.42,-1.49 12.48,-1.59 11.52,-1.69 10.54,-1.79 9.56,-1.88 8.56,-1.97 7.55,-2.05 6.54,-2.13 5.51,-2.2 4.49,-2.26 3.45,-2.32 2.42,-2.37 1.38,-2.41 0.35,-2.45 -0.68,-2.48 -1.71,-2.51 -2.74,-2.52 -3.76,-2.53 -4.77,-2.53 -5.77,-2.53 -6.76,-2.52 -7.74,-2.5 -8.71,-2.48 -9.66,-2.45 -10.6,-2.41 -11.52,-2.37 -12.42,-2.32 -13.31,-2.27 -14.18,-2.21 -15.02,-2.15 -15.85,-2.09 -16.65,-2.02 -17.43,-1.95 -18.19,-1.88 -18.93,-1.8 -19.64,-1.73 -20.33,-1.65 -21,-1.57 -21.65,-1.49 -22.28,-1.41 -22.88,-1.32 -23.47,-1.24 -24.03,-1.15 -24.57,-1.07 -25.09,-0.98 -25.58,-0.89 -26.06,-0.81 -26.51,-0.72 -26.94,-0.63 -27.34,-0.54 -27.73,-0.46 -31.01,1.27 -30.53,1.28 -30.03,1.3 -29.52,1.32 -28.99,1.34 -28.44,1.36 -27.89,1.38 -27.31,1.4 -26.72,1.41 -26.12,1.43 -25.51,1.45 -24.88,1.47 -24.24,1.49 -23.59,1.52 -22.92,1.54 -22.24,1.56 -21.54,1.58 -20.83,1.61 -20.1,1.63 -19.36,1.65 -18.61,1.68 -17.84,1.71 -17.06,1.74 -16.26,1.76 -15.46,1.79 -14.64,1.83 -13.81,1.86 -12.98,1.89 -12.13,1.93 -11.28,1.96 -10.42,2 -9.55,2.04 -8.68,2.08 -7.8,2.12 -6.91,2.16 -6.02,2.2 -5.12,2.24 -4.23,2.29 -3.32,2.33 -2.42,2.37 -1.51,2.41 -0.6,2.45 0.3,2.5 1.22,2.54 2.13,2.58 3.04,2.61 3.95,2.65 4.86,2.69 5.77,2.72 6.67,2.75 7.58,2.78 8.48,2.81 9.38,2.83 10.28,2.85 11.17,2.86 12.06,2.88 12.94,2.89 13.82,2.89 14.69,2.89 15.56,2.89 16.42,2.88 17.28,2.87 18.12,2.85 18.95,2.83 19.78,2.81 20.47,2.8 21.14,2.79 21.81,2.78 22.46,2.76 23.1,2.74 23.72,2.72 24.32,2.7 24.91,2.68 25.48,2.65 26.03,2.62 26.55,2.59 27.06,2.56 27.54,2.52 27.99,2.49 28.41,2.45" />
      </clipPath>
      <clipPath id="rightEyeClipPath">
        <polyline points="-31.02,1.18 -31,1.09 -30.94,0.99 -30.83,0.9 -30.67,0.81 -30.47,0.71 -30.23,0.62 -29.94,0.52 -29.61,0.42 -29.24,0.32 -28.83,0.23 -28.38,0.13 -27.89,0.03 -27.36,-0.07 -26.8,-0.17 -26.2,-0.27 -25.63,-0.38 -25.01,-0.49 -24.33,-0.6 -23.61,-0.71 -22.83,-0.82 -22,-0.93 -21.12,-1.04 -20.2,-1.15 -19.24,-1.25 -18.24,-1.36 -17.2,-1.46 -16.12,-1.56 -15.02,-1.65 -13.88,-1.75 -12.72,-1.83 -11.54,-1.92 -10.34,-1.99 -9.12,-2.07 -7.89,-2.14 -6.65,-2.2 -5.41,-2.26 -4.16,-2.31 -2.91,-2.35 -1.66,-2.39 -0.42,-2.43 0.82,-2.45 2.04,-2.47 3.25,-2.49 4.44,-2.5 5.62,-2.5 6.78,-2.5 7.91,-2.49 9.02,-2.47 10.1,-2.45 11.15,-2.42 12.18,-2.39 13.17,-2.36 14.13,-2.31 15.06,-2.27 15.95,-2.22 16.81,-2.16 17.63,-2.1 18.42,-2.04 19.17,-1.98 19.89,-1.91 20.57,-1.84 21.22,-1.77 21.83,-1.7 22.41,-1.63 22.95,-1.55 23.47,-1.48 23.95,-1.4 24.4,-1.32 24.81,-1.25 25.2,-1.17 25.55,-1.09 25.87,-1.01 26.16,-0.93 26.42,-0.85 26.65,-0.77 26.85,-0.69 27.02,-0.61 27.16,-0.53 27.27,-0.45 28.17,1.14 27.57,1.16 26.96,1.19 26.34,1.21 25.71,1.23 25.06,1.26 24.41,1.28 23.75,1.31 23.08,1.33 22.4,1.36 21.71,1.38 21.02,1.41 20.32,1.44 19.62,1.46 18.92,1.49 18.2,1.52 17.48,1.55 16.75,1.58 16.01,1.61 15.26,1.64 14.51,1.67 13.76,1.71 13,1.74 12.24,1.78 11.48,1.81 10.73,1.85 9.97,1.89 9.21,1.92 8.46,1.96 7.71,2 6.97,2.04 6.22,2.09 5.49,2.13 4.75,2.17 4.02,2.21 3.29,2.26 2.57,2.3 1.85,2.34 1.13,2.38 0.42,2.43 -0.3,2.47 -1.01,2.51 -1.72,2.55 -2.43,2.58 -3.15,2.62 -3.86,2.65 -4.58,2.68 -5.3,2.71 -6.03,2.74 -6.76,2.77 -7.5,2.79 -8.25,2.81 -9.01,2.82 -9.78,2.83 -10.56,2.84 -11.35,2.84 -12.15,2.84 -12.97,2.83 -13.8,2.82 -14.64,2.81 -15.5,2.79 -16.37,2.76 -17.25,2.73 -18.15,2.7 -19.06,2.66 -19.74,2.64 -20.42,2.62 -21.1,2.59 -21.78,2.57 -22.45,2.53 -23.12,2.5 -23.78,2.47 -24.43,2.43 -25.07,2.39 -25.7,2.34 -26.32,2.3 -26.92,2.25 -27.51,2.2 -28.07,2.14 -28.61,2.09" />
      </clipPath>
      <filter id="fuzzy">
        <feTurbulence id="turbulence" baseFrequency="0.05" numOctaves="3" type="noise" result="noise" />
        <feDisplacementMap in="SourceGraphic" in2="noise" scale="2" />
      </filter>
      <linearGradient id="rainbowGradient" x1="0%" y1="0%" x2="100%" y2="0%">
        <stop offset="0%" style="stop-color: rgb(70, 9, 192); stop-opacity: 1" />
        <stop offset="50%" style="stop-color: rgb(170, 179, 49); stop-opacity: 1" />
        <stop offset="100%" style="stop-color: rgb(202, 116, 145); stop-opacity: 1" />
      </linearGradient>
    </defs>
    <rect x="-100" y="-100" width="100%" height="100%" fill="rgb(242, 166, 221)" />
    <polyline id="faceContour" points="83.4,-0.14 83.58,0.6 83.62,2.29 83.17,3.53 83.67,3.38 82.94,6.69 83.31,7.1 83.17,8.59 83.01,8.33 82.86,10.11 82.41,10.69 82.3,11.58 81.66,13.84 81.85,13.24 80.93,16.7 81.33,15.93 80.84,17.52 80.26,20.08 80.73,18.98 79.56,21.18 79.77,21.04 79.38,22.04 77.93,25.56 78.08,25.53 76.64,27.66 76.55,27.82 75.92,29.02 76.02,29.95 75.3,30.43 73.97,32.69 73.54,33.29 73.17,34.39 72.19,35.41 72.07,35.94 70.84,37.25 71.38,36.33 71.53,37.08 70.93,37.78 69.29,39.52 68.26,40.24 67.43,41.59 67.16,41.98 65.77,43.38 65.88,43.63 64.41,45.04 64.43,44.81 62.39,46.95 61.81,47.45 59.89,49.4 60.53,48.84 59.44,49.79 59.17,50.16 56.48,52.43 55.67,52.5 53.99,54.15 52.61,55.18 54.68,53.72 53.07,54.9 51.61,55.57 49.04,57.21 49.88,57.07 47.93,58 46.91,58.63 45.52,59.33 45.27,59.55 42.34,60.94 43.86,60.38 41,61.59 39.36,62.45 37.08,63.5 37.45,63.58 35.42,63.9 34.16,64.64 33.92,64.83 34.03,64.57 32.05,65.57 29.48,66.15 29.88,66.24 27.04,66.96 26.13,67.29 27.3,67.12 25.28,67.58 23.25,67.99 22.04,68.16 21.72,68.53 20.28,68.56 16.8,69.33 17.64,69.25 15,69.72 15.41,69.69 13.71,69.81 10.43,70.34 10.56,70.21 10.18,70.43 6.8,70.4 6.76,70.69 5.04,70.79 3.21,70.81 2.2,70.88 0.3,70.92 -0.94,70.67 -1.17,70.98 -4.22,70.79 -2.82,70.88 -5.29,70.63 -6.25,70.64 -6.56,70.62 -9.49,70.5 -10.58,70.2 -10.42,70.38 -13.59,69.83 -13.99,69.88 -15.91,69.4 -16.5,69.63 -18.96,69.13 -20.92,68.39 -19.82,69.04 -23.21,68.13 -21.48,68.31 -25.27,67.42 -24.39,67.96 -28.6,66.43 -29.16,66.43 -31.16,65.9 -32.02,65.47 -30.39,65.89 -32.54,65.34 -34.03,64.99 -36.15,63.91 -37.21,63.22 -37.67,63.11 -38.44,63.09 -39.27,62.26 -41.3,61.37 -44.66,59.83 -44.06,60.49 -43.98,60.5 -46.29,59.17 -47.07,58.53 -46.86,58.58 -49.27,56.99 -48.7,57.65 -50.55,56.31 -52.63,54.91 -53.96,54.29 -55.68,52.52 -54.62,53.51 -55.78,52.37 -56.12,52.5 -57.05,51.65 -59.51,49.68 -60.94,48.62 -60.97,48.35 -61.97,47.38 -63.63,46.11 -62.39,46.93 -64.48,45.03 -65.2,43.83 -65.76,43.37 -66.94,42.64 -66.76,42.5 -68.11,41.34 -69.63,38.8 -69.33,39.84 -70.42,37.84 -72,36.16 -71.1,36.69 -72.94,34.27 -72.91,34.35 -74.46,32.03 -74.4,31.79 -75.01,31.26 -74.31,32.14 -76.2,29.53 -76.54,28.23 -76.82,27.63 -77.28,26.69 -78.69,24.23 -78.76,23.1 -78.93,23.68 -79.67,21.51 -79.93,20.21 -80.47,19.72 -80.6,17.59 -80.72,17.5 -81.64,15.43 -81.9,14.44 -81.67,14.41 -81.97,14.45 -81.94,12.78 -82.12,11.62 -82.73,8.93 -82.95,8.48 -83.19,7.08 -82.96,7.26 -83.09,4.43 -83.35,3.92 -83.37,2.78 -83.33,2.13 -83.44,1.48 -83.36,-0.15 -83.42,-1.68 -83.32,-3.16 -83.28,-3.19 -83.19,-3.45 -83.56,-4.36 -83.13,-6.35 -82.87,-7.67 -83.15,-7.42 -82.87,-10.22 -82.62,-9.95 -82.09,-13.08 -81.88,-13.82 -81.8,-14.41 -81.69,-13.8 -80.62,-17.75 -80.86,-17.75 -80.47,-18.84 -79.97,-21.07 -79.09,-22.3 -79.54,-21.57 -79.64,-21.96 -78.34,-24.62 -78.41,-24.99 -77.12,-26.6 -76.12,-28.94 -76.24,-29.22 -76.11,-29.31 -75.29,-30.16 -75.33,-30.72 -74.7,-32.02 -74.43,-32.03 -72.8,-34.76 -71.81,-35.97 -71.91,-36.57 -71.48,-36.9 -71.19,-37.51 -69.12,-39.47 -69.74,-39.46 -68.62,-40.59 -68.06,-41.05 -67.71,-41.39 -66.5,-42.92 -65.41,-44.17 -63.92,-45.39 -62.81,-46.76 -61.95,-47.58 -61.21,-47.96 -61.75,-47.82 -59.88,-49.55 -59.04,-50.16 -59.15,-50.02 -56.47,-52.57 -57.6,-51.1 -54.26,-53.53 -53.87,-54.47 -53.58,-54.78 -52.65,-55.22 -52.02,-55.93 -51.07,-56.15 -49.99,-57.07 -47.91,-58.31 -46.23,-58.79 -44.89,-59.49 -46.52,-58.72 -42.13,-61.06 -42.73,-60.98 -41.24,-61.57 -39.79,-62.32 -39.57,-62.64 -37.94,-63.01 -35.88,-63.8 -36.59,-63.69 -33.16,-64.99 -32.53,-65.07 -31.82,-65.77 -29.91,-66.06 -30.78,-66 -27.66,-66.64 -26.53,-67.21 -26.83,-67.05 -22.6,-68.21 -24.22,-67.6 -20.46,-68.84 -19.31,-68.79 -18.49,-68.94 -16.74,-69.36 -17.94,-69.42 -15.02,-69.65 -16.59,-69.57 -13.3,-70.07 -10.4,-70.39 -9.03,-70.49 -9.13,-70.6 -7.74,-70.45 -7.98,-70.45 -3.98,-70.78 -2.85,-70.97 -3.74,-70.71 -1.25,-70.98 0.65,-70.72 -0.08,-70.75 4.48,-70.84 4.49,-70.8 5.76,-70.63 7.26,-70.55 7.45,-70.68 10.11,-70.19 9.58,-70.4 12.42,-69.88 13.6,-69.81 16.13,-69.46 16.29,-69.56 16.61,-69.42 20.22,-68.82 18.8,-69.08 19.26,-68.82 22.34,-68.38 23.42,-67.92 23.24,-67.95 26.37,-67.57 26.8,-67.26 29.73,-66.16 29.18,-66.33 30.5,-65.75 30.44,-65.89 33.4,-65.08 35.5,-64.26 33.97,-64.71 36.93,-63.75 36.97,-63.61 37.58,-63.29 42.2,-61.26 40.95,-61.92 42.03,-61.06 44.67,-60.04 43.19,-60.72 48.12,-58.07 46.81,-58.54 49.92,-56.62 47.81,-57.78 50.73,-56.46 50.63,-56.6 51.39,-56.13 52.06,-55.54 53.9,-53.99 55.02,-53.72 56.56,-52.44 57.97,-51.28 58.37,-51.04 59.92,-49.48 60.16,-49.35 60.24,-49.03 61.34,-48 63.75,-46.1 62.56,-46.77 64.63,-44.46 64.38,-44.86 65.97,-43.03 67.08,-42.71 67.88,-41.21 68.74,-40.26 69.24,-39.44 69.93,-38.51 70.66,-37.64 70.76,-38.02 71.83,-35.93 72.34,-35.03 73.01,-34.63 73.84,-33.09 74.79,-32.02 74.41,-31.87 75.83,-29.52 75.9,-29.27 76.61,-28.8 77.41,-26.93 77.96,-25.61 78.96,-23.88 78.64,-23.65 79.34,-22.71 79.25,-22.68 79.5,-22.19 79.67,-21.47 80.37,-18.58 80.52,-18.4 81.6,-15.74 81.79,-13.6 81.89,-14.43 82.15,-12.49 82.31,-11.19 82.28,-10.98 82.9,-9.95 83.21,-7.48 82.76,-9.27 83.24,-6.42 83.49,-3.77 83.13,-4.9 83.47,-3.56 83.56,-3.59 83.53,-2.18 83.4,-0.14 83.58,0.6" fill="rgb(32, 223, 86)" stroke="black" stroke-width="1.6666666666666665" stroke-linejoin="round" filter="url(#fuzzy)" />
    <g transform="translate(45.53 -19.49)">
      <polyline id="rightCountour" points="-31.02,1.18 -31,1.09 -30.94,0.99 -30.83,0.9 -30.67,0.81 -30.47,0.71 -30.23,0.62 -29.94,0.52 -29.61,0.42 -29.24,0.32 -28.83,0.23 -28.38,0.13 -27.89,0.03 -27.36,-0.07 -26.8,-0.17 -26.2,-0.27 -25.63,-0.38 -25.01,-0.49 -24.33,-0.6 -23.61,-0.71 -22.83,-0.82 -22,-0.93 -21.12,-1.04 -20.2,-1.15 -19.24,-1.25 -18.24,-1.36 -17.2,-1.46 -16.12,-1.56 -15.02,-1.65 -13.88,-1.75 -12.72,-1.83 -11.54,-1.92 -10.34,-1.99 -9.12,-2.07 -7.89,-2.14 -6.65,-2.2 -5.41,-2.26 -4.16,-2.31 -2.91,-2.35 -1.66,-2.39 -0.42,-2.43 0.82,-2.45 2.04,-2.47 3.25,-2.49 4.44,-2.5 5.62,-2.5 6.78,-2.5 7.91,-2.49 9.02,-2.47 10.1,-2.45 11.15,-2.42 12.18,-2.39 13.17,-2.36 14.13,-2.31 15.06,-2.27 15.95,-2.22 16.81,-2.16 17.63,-2.1 18.42,-2.04 19.17,-1.98 19.89,-1.91 20.57,-1.84 21.22,-1.77 21.83,-1.7 22.41,-1.63 22.95,-1.55 23.47,-1.48 23.95,-1.4 24.4,-1.32 24.81,-1.25 25.2,-1.17 25.55,-1.09 25.87,-1.01 26.16,-0.93 26.42,-0.85 26.65,-0.77 26.85,-0.69 27.02,-0.61 27.16,-0.53 27.27,-0.45 28.17,1.14 27.57,1.16 26.96,1.19 26.34,1.21 25.71,1.23 25.06,1.26 24.41,1.28 23.75,1.31 23.08,1.33 22.4,1.36 21.71,1.38 21.02,1.41 20.32,1.44 19.62,1.46 18.92,1.49 18.2,1.52 17.48,1.55 16.75,1.58 16.01,1.61 15.26,1.64 14.51,1.67 13.76,1.71 13,1.74 12.24,1.78 11.48,1.81 10.73,1.85 9.97,1.89 9.21,1.92 8.46,1.96 7.71,2 6.97,2.04 6.22,2.09 5.49,2.13 4.75,2.17 4.02,2.21 3.29,2.26 2.57,2.3 1.85,2.34 1.13,2.38 0.42,2.43 -0.3,2.47 -1.01,2.51 -1.72,2.55 -2.43,2.58 -3.15,2.62 -3.86,2.65 -4.58,2.68 -5.3,2.71 -6.03,2.74 -6.76,2.77 -7.5,2.79 -8.25,2.81 -9.01,2.82 -9.78,2.83 -10.56,2.84 -11.35,2.84 -12.15,2.84 -12.97,2.83 -13.8,2.82 -14.64,2.81 -15.5,2.79 -16.37,2.76 -17.25,2.73 -18.15,2.7 -19.06,2.66 -19.74,2.64 -20.42,2.62 -21.1,2.59 -21.78,2.57 -22.45,2.53 -23.12,2.5 -23.78,2.47 -24.43,2.43 -25.07,2.39 -25.7,2.34 -26.32,2.3 -26.92,2.25 -27.51,2.2 -28.07,2.14 -28.61,2.09" fill="white" stroke="white" stroke-width="0" stroke-linejoin="round" filter="url(#fuzzy)" />
    </g>
    <g transform="translate(-29.17 -20.79)">
      <polyline id="leftCountour" points="30.14,1.52 29.96,1.44 29.74,1.35 29.49,1.27 29.22,1.18 28.91,1.09 28.57,1 28.2,0.91 27.81,0.81 27.39,0.72 26.94,0.62 26.47,0.52 25.97,0.42 25.45,0.32 24.91,0.22 24.34,0.11 23.73,0.01 23.1,-0.1 22.43,-0.22 21.73,-0.33 21.01,-0.45 20.26,-0.57 19.49,-0.68 18.69,-0.8 17.86,-0.92 17.02,-1.04 16.15,-1.15 15.26,-1.27 14.35,-1.38 13.42,-1.49 12.48,-1.59 11.52,-1.69 10.54,-1.79 9.56,-1.88 8.56,-1.97 7.55,-2.05 6.54,-2.13 5.51,-2.2 4.49,-2.26 3.45,-2.32 2.42,-2.37 1.38,-2.41 0.35,-2.45 -0.68,-2.48 -1.71,-2.51 -2.74,-2.52 -3.76,-2.53 -4.77,-2.53 -5.77,-2.53 -6.76,-2.52 -7.74,-2.5 -8.71,-2.48 -9.66,-2.45 -10.6,-2.41 -11.52,-2.37 -12.42,-2.32 -13.31,-2.27 -14.18,-2.21 -15.02,-2.15 -15.85,-2.09 -16.65,-2.02 -17.43,-1.95 -18.19,-1.88 -18.93,-1.8 -19.64,-1.73 -20.33,-1.65 -21,-1.57 -21.65,-1.49 -22.28,-1.41 -22.88,-1.32 -23.47,-1.24 -24.03,-1.15 -24.57,-1.07 -25.09,-0.98 -25.58,-0.89 -26.06,-0.81 -26.51,-0.72 -26.94,-0.63 -27.34,-0.54 -27.73,-0.46 -31.01,1.27 -30.53,1.28 -30.03,1.3 -29.52,1.32 -28.99,1.34 -28.44,1.36 -27.89,1.38 -27.31,1.4 -26.72,1.41 -26.12,1.43 -25.51,1.45 -24.88,1.47 -24.24,1.49 -23.59,1.52 -22.92,1.54 -22.24,1.56 -21.54,1.58 -20.83,1.61 -20.1,1.63 -19.36,1.65 -18.61,1.68 -17.84,1.71 -17.06,1.74 -16.26,1.76 -15.46,1.79 -14.64,1.83 -13.81,1.86 -12.98,1.89 -12.13,1.93 -11.28,1.96 -10.42,2 -9.55,2.04 -8.68,2.08 -7.8,2.12 -6.91,2.16 -6.02,2.2 -5.12,2.24 -4.23,2.29 -3.32,2.33 -2.42,2.37 -1.51,2.41 -0.6,2.45 0.3,2.5 1.22,2.54 2.13,2.58 3.04,2.61 3.95,2.65 4.86,2.69 5.77,2.72 6.67,2.75 7.58,2.78 8.48,2.81 9.38,2.83 10.28,2.85 11.17,2.86 12.06,2.88 12.94,2.89 13.82,2.89 14.69,2.89 15.56,2.89 16.42,2.88 17.28,2.87 18.12,2.85 18.95,2.83 19.78,2.81 20.47,2.8 21.14,2.79 21.81,2.78 22.46,2.76 23.1,2.74 23.72,2.72 24.32,2.7 24.91,2.68 25.48,2.65 26.03,2.62 26.55,2.59 27.06,2.56 27.54,2.52 27.99,2.49 28.41,2.45" fill="white" stroke="white" stroke-width="0" stroke-linejoin="round" filter="url(#fuzzy)" />
    </g>
    <g transform="translate(45.53 -19.49)">
      <polyline id="rightUpper" points="-28.56,1.98 -29.02,1.9 -29.44,1.83 -29.8,1.76 -30.12,1.68 -30.39,1.6 -30.61,1.52 -30.79,1.44 -30.91,1.35 -30.99,1.26 -31.02,1.18 -31,1.09 -30.94,0.99 -30.83,0.9 -30.67,0.81 -30.47,0.71 -30.23,0.62 -29.94,0.52 -29.61,0.42 -29.24,0.32 -28.83,0.23 -28.38,0.13 -27.89,0.03 -27.36,-0.07 -26.8,-0.17 -26.2,-0.27 -25.63,-0.38 -25.01,-0.49 -24.33,-0.6 -23.61,-0.71 -22.83,-0.82 -22,-0.93 -21.12,-1.04 -20.2,-1.15 -19.24,-1.25 -18.24,-1.36 -17.2,-1.46 -16.12,-1.56 -15.02,-1.65 -13.88,-1.75 -12.72,-1.83 -11.54,-1.92 -10.34,-1.99 -9.12,-2.07 -7.89,-2.14 -6.65,-2.2 -5.41,-2.26 -4.16,-2.31 -2.91,-2.35 -1.66,-2.39 -0.42,-2.43 0.82,-2.45 2.04,-2.47 3.25,-2.49 4.44,-2.5 5.62,-2.5 6.78,-2.5 7.91,-2.49 9.02,-2.47 10.1,-2.45 11.15,-2.42 12.18,-2.39 13.17,-2.36 14.13,-2.31 15.06,-2.27 15.95,-2.22 16.81,-2.16 17.63,-2.1 18.42,-2.04 19.17,-1.98 19.89,-1.91 20.57,-1.84 21.22,-1.77 21.83,-1.7 22.41,-1.63 22.95,-1.55 23.47,-1.48 23.95,-1.4 24.4,-1.32 24.81,-1.25 25.2,-1.17 25.55,-1.09 25.87,-1.01 26.16,-0.93 26.42,-0.85 26.65,-0.77 26.85,-0.69 27.02,-0.61 27.16,-0.53 27.27,-0.45 27.35,-0.37 27.41,-0.3 27.44,-0.22 27.44,-0.15 27.41,-0.07 27.36,0 27.28,0.07 27.18,0.14 27.06,0.21 26.91,0.28" fill="none" stroke="black" stroke-width="1.6666666666666665" stroke-linejoin="round" filter="url(#fuzzy)" />
      <polyline id="rightLower" points="-32.17,1.47 -32.02,1.54 -31.81,1.6 -31.55,1.67 -31.25,1.73 -30.9,1.79 -30.51,1.85 -30.08,1.92 -29.62,1.98 -29.13,2.03 -28.61,2.09 -28.07,2.14 -27.51,2.2 -26.92,2.25 -26.32,2.3 -25.7,2.34 -25.07,2.39 -24.43,2.43 -23.78,2.47 -23.12,2.5 -22.45,2.53 -21.78,2.57 -21.1,2.59 -20.42,2.62 -19.74,2.64 -19.06,2.66 -18.15,2.7 -17.25,2.73 -16.37,2.76 -15.5,2.79 -14.64,2.81 -13.8,2.82 -12.97,2.83 -12.15,2.84 -11.35,2.84 -10.56,2.84 -9.78,2.83 -9.01,2.82 -8.25,2.81 -7.5,2.79 -6.76,2.77 -6.03,2.74 -5.3,2.71 -4.58,2.68 -3.86,2.65 -3.15,2.62 -2.43,2.58 -1.72,2.55 -1.01,2.51 -0.3,2.47 0.42,2.43 1.13,2.38 1.85,2.34 2.57,2.3 3.29,2.26 4.02,2.21 4.75,2.17 5.49,2.13 6.22,2.09 6.97,2.04 7.71,2 8.46,1.96 9.21,1.92 9.97,1.89 10.73,1.85 11.48,1.81 12.24,1.78 13,1.74 13.76,1.71 14.51,1.67 15.26,1.64 16.01,1.61 16.75,1.58 17.48,1.55 18.2,1.52 18.92,1.49 19.62,1.46 20.32,1.44 21.02,1.41 21.71,1.38 22.4,1.36 23.08,1.33 23.75,1.31 24.41,1.28 25.06,1.26 25.71,1.23 26.34,1.21 26.96,1.19 27.57,1.16 28.17,1.14 28.76,1.12 29.34,1.09 29.9,1.07 30.45,1.04 30.99,1.02 31.51,1 32.02,0.97 32.52,0.95 33,0.92 33.47,0.9" fill="none" stroke="black" stroke-width="2.2222222222222223" stroke-linejoin="round" filter="url(#fuzzy)" />
      <circle r="3.168" cx="-2.149290820281238" cy="2.576379859519945" stroke="black" fill="none" stroke-width="1.0" filter="url(#fuzzy)" clip-path="url(#rightEyeClipPath)" /><circle r="3.686" cx="0.945709179718762" cy="-0.6686201404800545" stroke="black" fill="none" stroke-width="1.0" filter="url(#fuzzy)" clip-path="url(#rightEyeClipPath)" /><circle r="4.202" cx="2.3257091797187615" cy="-1.2736201404800545" stroke="black" fill="none" stroke-width="1.0" filter="url(#fuzzy)" clip-path="url(#rightEyeClipPath)" /><circle r="4.422" cx="2.010709179718761" cy="1.8663798595199452" stroke="black" fill="none" stroke-width="1.0" filter="url(#fuzzy)" clip-path="url(#rightEyeClipPath)" /><circle r="4.564" cx="-2.359290820281238" cy="-0.29362014048005447" stroke="black" fill="none" stroke-width="1.0" filter="url(#fuzzy)" clip-path="url(#rightEyeClipPath)" /><circle r="3.19" cx="-1.594290820281238" cy="0.38137985951994535" stroke="black" fill="none" stroke-width="1.0" filter="url(#fuzzy)" clip-path="url(#rightEyeClipPath)" /><circle r="4.752" cx="-1.519290820281238" cy="0.01137985951994569" stroke="black" fill="none" stroke-width="1.0" filter="url(#fuzzy)" clip-path="url(#rightEyeClipPath)" /><circle r="4.366" cx="-2.129290820281238" cy="-1.7736201404800545" stroke="black" fill="none" stroke-width="1.0" filter="url(#fuzzy)" clip-path="url(#rightEyeClipPath)" /><circle r="3.062" cx="0.9157091797187622" cy="1.2313798595199454" stroke="black" fill="none" stroke-width="1.0" filter="url(#fuzzy)" clip-path="url(#rightEyeClipPath)" /><circle r="3.616" cx="2.590709179718761" cy="1.0963798595199452" stroke="black" fill="none" stroke-width="1.0" filter="url(#fuzzy)" clip-path="url(#rightEyeClipPath)" />
      </g>
    <g transform="translate(-29.17 -20.79)">
      <polyline id="leftUpper" points="29.94,2.19 30.14,2.14 30.29,2.08 30.41,2.02 30.49,1.95 30.52,1.89 30.52,1.82 30.48,1.75 30.4,1.67 30.29,1.6 30.14,1.52 29.96,1.44 29.74,1.35 29.49,1.27 29.22,1.18 28.91,1.09 28.57,1 28.2,0.91 27.81,0.81 27.39,0.72 26.94,0.62 26.47,0.52 25.97,0.42 25.45,0.32 24.91,0.22 24.34,0.11 23.73,0.01 23.1,-0.1 22.43,-0.22 21.73,-0.33 21.01,-0.45 20.26,-0.57 19.49,-0.68 18.69,-0.8 17.86,-0.92 17.02,-1.04 16.15,-1.15 15.26,-1.27 14.35,-1.38 13.42,-1.49 12.48,-1.59 11.52,-1.69 10.54,-1.79 9.56,-1.88 8.56,-1.97 7.55,-2.05 6.54,-2.13 5.51,-2.2 4.49,-2.26 3.45,-2.32 2.42,-2.37 1.38,-2.41 0.35,-2.45 -0.68,-2.48 -1.71,-2.51 -2.74,-2.52 -3.76,-2.53 -4.77,-2.53 -5.77,-2.53 -6.76,-2.52 -7.74,-2.5 -8.71,-2.48 -9.66,-2.45 -10.6,-2.41 -11.52,-2.37 -12.42,-2.32 -13.31,-2.27 -14.18,-2.21 -15.02,-2.15 -15.85,-2.09 -16.65,-2.02 -17.43,-1.95 -18.19,-1.88 -18.93,-1.8 -19.64,-1.73 -20.33,-1.65 -21,-1.57 -21.65,-1.49 -22.28,-1.41 -22.88,-1.32 -23.47,-1.24 -24.03,-1.15 -24.57,-1.07 -25.09,-0.98 -25.58,-0.89 -26.06,-0.81 -26.51,-0.72 -26.94,-0.63 -27.34,-0.54 -27.73,-0.46 -28.09,-0.37 -28.43,-0.29 -28.74,-0.2 -29.04,-0.12 -29.31,-0.04 -29.56,0.04 -29.79,0.12 -30,0.19 -30.19,0.27 -30.36,0.34" fill="none" stroke="black" stroke-width="2.2222222222222223" stroke-linejoin="round" filter="url(#fuzzy)" />
      <polyline id="leftLower" points="30.71,2.02 30.67,2.06 30.58,2.11 30.45,2.15 30.27,2.2 30.05,2.24 29.8,2.28 29.5,2.33 29.17,2.37 28.81,2.41 28.41,2.45 27.99,2.49 27.54,2.52 27.06,2.56 26.55,2.59 26.03,2.62 25.48,2.65 24.91,2.68 24.32,2.7 23.72,2.72 23.1,2.74 22.46,2.76 21.81,2.78 21.14,2.79 20.47,2.8 19.78,2.81 18.95,2.83 18.12,2.85 17.28,2.87 16.42,2.88 15.56,2.89 14.69,2.89 13.82,2.89 12.94,2.89 12.06,2.88 11.17,2.86 10.28,2.85 9.38,2.83 8.48,2.81 7.58,2.78 6.67,2.75 5.77,2.72 4.86,2.69 3.95,2.65 3.04,2.61 2.13,2.58 1.22,2.54 0.3,2.5 -0.6,2.45 -1.51,2.41 -2.42,2.37 -3.32,2.33 -4.23,2.29 -5.12,2.24 -6.02,2.2 -6.91,2.16 -7.8,2.12 -8.68,2.08 -9.55,2.04 -10.42,2 -11.28,1.96 -12.13,1.93 -12.98,1.89 -13.81,1.86 -14.64,1.83 -15.46,1.79 -16.26,1.76 -17.06,1.74 -17.84,1.71 -18.61,1.68 -19.36,1.65 -20.1,1.63 -20.83,1.61 -21.54,1.58 -22.24,1.56 -22.92,1.54 -23.59,1.52 -24.24,1.49 -24.88,1.47 -25.51,1.45 -26.12,1.43 -26.72,1.41 -27.31,1.4 -27.89,1.38 -28.44,1.36 -28.99,1.34 -29.52,1.32 -30.03,1.3 -30.53,1.28 -31.01,1.27 -31.48,1.25 -31.94,1.23 -32.37,1.21 -32.79,1.19 -33.2,1.17 -33.59,1.15 -33.97,1.13 -34.33,1.11 -34.68,1.09 -35.01,1.07" fill="none" stroke="black" stroke-width="2.2222222222222223" stroke-linejoin="round" filter="url(#fuzzy)" />
      <circle r="4.016" cx="-19.004254873251334" cy="2.583926095560111" stroke="black" fill="none" stroke-width="1.0" filter="url(#fuzzy)" clip-path="url(#leftEyeClipPath)" /><circle r="3.01" cx="-21.064254873251333" cy="0.06892609556011076" stroke="black" fill="none" stroke-width="1.0" filter="url(#fuzzy)" clip-path="url(#leftEyeClipPath)" /><circle r="3.984" cx="-23.494254873251332" cy="2.943926095560111" stroke="black" fill="none" stroke-width="1.0" filter="url(#fuzzy)" clip-path="url(#leftEyeClipPath)" /><circle r="4.098" cx="-20.024254873251333" cy="1.6889260955601104" stroke="black" fill="none" stroke-width="1.0" filter="url(#fuzzy)" clip-path="url(#leftEyeClipPath)" /><circle r="4.598" cx="-20.049254873251336" cy="3.0589260955601105" stroke="black" fill="none" stroke-width="1.0" filter="url(#fuzzy)" clip-path="url(#leftEyeClipPath)" /><circle r="4.784" cx="-19.779254873251332" cy="1.8689260955601101" stroke="black" fill="none" stroke-width="1.0" filter="url(#fuzzy)" clip-path="url(#leftEyeClipPath)" /><circle r="4.9" cx="-19.894254873251334" cy="-0.9460739044398894" stroke="black" fill="none" stroke-width="1.0" filter="url(#fuzzy)" clip-path="url(#leftEyeClipPath)" /><circle r="4.768" cx="-22.039254873251334" cy="0.4039260955601107" stroke="black" fill="none" stroke-width="1.0" filter="url(#fuzzy)" clip-path="url(#leftEyeClipPath)" /><circle r="3.588" cx="-22.194254873251335" cy="-1.3710739044398894" stroke="black" fill="none" stroke-width="1.0" filter="url(#fuzzy)" clip-path="url(#leftEyeClipPath)" /><circle r="4.77" cx="-22.569254873251335" cy="2.7739260955601104" stroke="black" fill="none" stroke-width="1.0" filter="url(#fuzzy)" clip-path="url(#leftEyeClipPath)" />
    </g>
    <g id="hairs">
      <polyline points="51.39,-56.13 -13.23,-51.66 -13.68,-51.67 2.57,-52.65 9.16,-53.56 2.24,-54.47 -10.07,-55.68 -18.5,-57.28 -18.33,-58.81 -10.03,-59.42 2.73,-58.6 14.98,-57.01 21.92,-56.47 21.05,-58.65 14.41,-63.14 8.42,-67.29 19.26,-68.82" fill="none" stroke="rgb(51, 19, 134)" stroke-width="2" stroke-linejoin="round" filter="url(#fuzzy)" /><polyline points="9.58,-70.4 11.43,-68.16 15.68,-64.71 19.52,-63.25 18.36,-63.97 12.43,-65.33 3.81,-66.02 -5.23,-65.59 -12.64,-64.33 -16.9,-62.78 -17.58,-61.18 -15.29,-59.35 -11.15,-57 -5.87,-54.17 0.53,-51.43 8.36,-49.45 17.74,-48.27 27.79,-46.81 33.87,-43.81 19.03,-41.06 -61.75,-47.82" fill="none" stroke="rgb(51, 19, 134)" stroke-width="2" stroke-linejoin="round" filter="url(#fuzzy)" /><polyline points="62.56,-46.77 18.25,-52.93 24.03,-55.56 33.53,-56.81 37.95,-56.81 38.04,-55.8 37.24,-53.97 38.29,-51.67 41.33,-49.61 44.04,-48.63 43.38,-49.22 37.44,-51.21 26.41,-53.93 12.79,-56.69 0.64,-59.1 -5.89,-60.93 -4.57,-61.52 4.02,-59.55 18.9,-54.15 40.69,-48.19 49.92,-56.62" fill="none" stroke="rgb(51, 19, 134)" stroke-width="2" stroke-linejoin="round" filter="url(#fuzzy)" /><polyline points="-66.5,-42.92 -21.36,-57.13 8.59,-54.48 25.02,-50.18 24.17,-49.67 11.47,-51.97 -3.59,-54.97 -13.82,-57.47 -16.98,-59.1 -15.13,-59.84 -12.32,-59.87 -11.81,-59.57 -14.33,-59.47 -18.15,-59.85 -20.84,-60.49 -21.03,-60.8 -18.24,-60.46 -10.97,-59.67 5.99,-57.43 59.92,-49.48" fill="none" stroke="rgb(51, 19, 134)" stroke-width="2" stroke-linejoin="round" filter="url(#fuzzy)" /><polyline points="78.96,-23.88 21.2,-51.72 11.61,-57.61 12.26,-55.13 8.64,-51.74 2.19,-49.63 -2.5,-48.53 -3.61,-48.11 -2.07,-48.6 0.3,-50.29 2.18,-53.05 3.06,-56.17 3.12,-58.84 2.73,-60.52 2.08,-61.23 0.94,-61.31 -1.16,-61.12 -4.4,-60.92 -8.15,-60.87 -10.85,-61.2 -10.72,-61.94 -7.47,-62.4 -3.46,-61.43 1.82,-59.33 43.19,-60.72" fill="none" stroke="rgb(51, 19, 134)" stroke-width="2" stroke-linejoin="round" filter="url(#fuzzy)" /><polyline points="78.64,-23.65 0.3,-42.34 -13.27,-50.92 -17.01,-53.88 -23.29,-55.66 -28.34,-57.79 -28.58,-59.71 -24.21,-60.21 -17.5,-58.74 -10.88,-55.96 -5.8,-53.32 -2.07,-51.61 1.93,-49.87 6.95,-46.12 15.98,-39.86 76.61,-28.8" fill="none" stroke="rgb(51, 19, 134)" stroke-width="2" stroke-linejoin="round" filter="url(#fuzzy)" /><polyline points="64.63,-44.46 31.24,-51.57 34.43,-52.04 34.34,-55.33 27.31,-59.01 16.59,-60.81 6.61,-60.29 1.13,-58.4 1.13,-56.75 4.21,-56.68 7.02,-58.36 8.78,-60.35 12.26,-60.48 20.05,-57.47 26.71,-52.62 10.89,-49.61 -62.81,-46.76" fill="none" stroke="rgb(51, 19, 134)" stroke-width="2" stroke-linejoin="round" filter="url(#fuzzy)" /><polyline points="-26.83,-67.05 -1.43,-68.35 4.45,-65.98 2.17,-60.82 -0.53,-55.54 0.01,-51.93 5.22,-50.04 14.41,-49.05 24.79,-48.39 32.95,-48.06 36.94,-48.32 37.32,-49.16 36.33,-50.22 35.8,-51.21 35.48,-52.23 33.63,-53.55 29.72,-54.88 25.87,-55.36 22.54,-55.47 8.31,-58.85 -37.94,-63.01" fill="none" stroke="rgb(51, 19, 134)" stroke-width="2" stroke-linejoin="round" filter="url(#fuzzy)" /><polyline points="-46.52,-58.72 -8.09,-64.4 11.62,-64.77 18.03,-64.19 20.99,-63.34 24.35,-62.33 27.02,-61.48 26.75,-61.28 22.87,-62.03 16.73,-63.52 10.56,-65.06 5.94,-65.89 3.23,-65.7 1.94,-64.84 1.51,-64.01 1.89,-63.6 3.17,-62.87 -0.82,-60.36 -47.91,-58.31" fill="none" stroke="rgb(51, 19, 134)" stroke-width="2" stroke-linejoin="round" filter="url(#fuzzy)" /><polyline points="79.25,-22.68 12.82,-42.45 9.96,-54.71 16.63,-60.35 21.81,-61.5 24.59,-60.16 25.94,-57.9 26.59,-55.96 26.54,-55.21 25.71,-55.91 24.63,-57.57 24.46,-59.24 26.13,-59.95 29.54,-59.22 33.25,-57.27 35.08,-54.94 33.38,-53.27 28.47,-52.97 23.17,-53.98 21.27,-55.42 24.8,-55.88 33.39,-53.98 47.79,-49.76 57.97,-51.28" fill="none" stroke="rgb(51, 19, 134)" stroke-width="2" stroke-linejoin="round" filter="url(#fuzzy)" /><polyline points="19.26,-68.82 -30.16,-55.15 -35.06,-49.04 -17.76,-47.39 2.01,-48.5 13.95,-50.71 16.21,-52.75 12.04,-54.04 6.3,-54.44 2.78,-54.11 2.76,-53.49 5.33,-53.29 8.46,-54.08 10.18,-55.91 9.43,-58.15 6.66,-59.8 4.03,-60.05 4.59,-58.59 9.93,-55.75 17.78,-52.31 23.22,-49.55 21.44,-50.52 -16.59,-69.57" fill="none" stroke="rgb(51, 19, 134)" stroke-width="2" stroke-linejoin="round" filter="url(#fuzzy)" /><polyline points="-63.92,-45.39 22.46,-39.18 47.93,-42.03 51.92,-45.49 49.73,-46.98 44.29,-48.24 36.25,-50.9 27.89,-54.6 21.95,-57.81 19.51,-59.26 19.27,-58.77 18.94,-57.05 17.18,-55.17 14.64,-54.18 13.1,-54.87 13.31,-57.53 12.94,-61.42 7.11,-64.45 -9.5,-63.42 -53.58,-54.78" fill="none" stroke="rgb(51, 19, 134)" stroke-width="2" stroke-linejoin="round" filter="url(#fuzzy)" /><polyline points="-59.15,-50.02 -24.4,-42.02 20.81,-34.76 43.12,-33.26 47.28,-35.69 43.97,-39.07 38.86,-42.26 33.05,-45.7 26.36,-49.99 18.92,-54.78 11.47,-59.02 5.86,-61.6 5.21,-61.99 11.68,-59.98 21.26,-55.34 16.72,-49.84 -46.52,-58.72" fill="none" stroke="rgb(51, 19, 134)" stroke-width="2" stroke-linejoin="round" filter="url(#fuzzy)" /><polyline points="9.58,-70.4 10.73,-63.77 19.39,-58.99 12.18,-58.5 -3.71,-59.41 -18.91,-59.81 -28.12,-59.33 -29.24,-58.33 -22.25,-57.25 -9.02,-56.39 6.94,-55.9 21.63,-55.8 32.17,-55.91 38.08,-55.79 41.06,-54.92 43.59,-53.16 46.99,-51.1 50.66,-49.73 52.95,-49.32 52.03,-49.18 41.51,-51.53 -2.85,-70.97" fill="none" stroke="rgb(51, 19, 134)" stroke-width="2" stroke-linejoin="round" filter="url(#fuzzy)" /><polyline points="82.28,-10.98 81.28,-9.66 80.91,-8.59 80.91,-7.61 81.04,-6.59 81.18,-5.6 81.24,-4.7 81.13,-3.88 80.82,-3.04 80.28,-2.14 79.47,-1.14 78.34,-0.08 76.88,1 75.27,2.05 73.8,3.08 72.82,4.15 72.41,5.28 72.2,6.37 71.54,7.39" fill="none" stroke="rgb(51, 19, 134)" stroke-width="2" stroke-linejoin="round" filter="url(#fuzzy)" /><polyline points="-27.32,-68.28 -24.74,-68.82 -23.19,-69.11 -21.74,-69.33 -20.37,-69.5 -19.19,-69.65 -18.17,-69.8 -17.23,-69.97 -16.25,-70.15 -15.14,-70.32 -13.87,-70.49 -12.48,-70.64 -11.1,-70.75 -9.8,-70.82 -8.62,-70.83 -7.46,-70.81 -6.2,-70.82 -4.83,-70.86 -3.73,-70.87 -3.74,-70.71 16.78,-61.68 16.93,-62.29 16.03,-62.66 15.02,-63.06 13.97,-63.61 12.87,-64.37 11.72,-65.27 10.57,-66.14 9.43,-66.83 8.31,-67.29 7.2,-67.55 6.07,-67.71 4.9,-67.91 3.67,-68.25 2.38,-68.73 1.06,-69.27 -0.25,-69.78 -1.5,-70.2 -2.65,-70.5 -3.77,-70.67 -5.23,-70.67 -7.98,-70.45 7.01,-66.53 6.54,-67.18 5.65,-67.6 4.55,-68.05 3.3,-68.53 1.96,-68.98 0.62,-69.36 -0.66,-69.65 -1.88,-69.84 -3.06,-69.96 -4.27,-70.03 -5.51,-70.09 -6.76,-70.19 -7.87,-70.3 -8.76,-70.4 -9.48,-70.43 -10.4,-70.39 -39.39,-81.41 -37.7,-81.16 -35.78,-79.79 -33.74,-78.62 -31.77,-77.74 -29.78,-76.72 -27.67,-75.32 -25.49,-73.69 -23.38,-72.17 -21.5,-71.08 -19.95,-70.57 -18.79,-70.62 -17.95,-71.04 -17.28,-71.41 -16.62,-71.04 -16.59,-69.57 -15.02,-69.65 -15.47,-72.01 -13.99,-72.86 -12.23,-73.05 -10.7,-73 -9.4,-73.06 -8.21,-73.49 -7.03,-74.3 -5.82,-75.32 -4.57,-76.34 -3.29,-77.24 -1.95,-78.09 -0.53,-79.06 0.98,-80.3 2.58,-81.85 4.24,-83.66 5.89,-85.54 7.51,-87.32 9.07,-88.83 10.63,-90.08 12.24,-91.28 14.06,-92.81 16.96,-95.42" fill="none" stroke="rgb(51, 19, 134)" stroke-width="2" stroke-linejoin="round" filter="url(#fuzzy)" /><polyline points="-17.94,-69.42 -17.69,-69.21 -18.38,-68.84 -19.46,-68.41 -20.72,-67.91 -22.01,-67.33 -23.26,-66.66 -24.44,-65.93 -25.56,-65.19 -26.65,-64.53 -27.73,-64 -28.82,-63.58 -29.91,-63.24 -31.01,-62.91 -32.14,-62.55 -33.28,-62.14 -34.41,-61.66 -35.5,-61.1 -36.51,-60.47 -37.41,-59.74 -38.21,-58.95 -38.9,-58.14 -39.4,-57.39 -39.23,-56.86" fill="none" stroke="rgb(51, 19, 134)" stroke-width="2" stroke-linejoin="round" filter="url(#fuzzy)" /><polyline points="-3.17,-59.87 -3.21,-60.91 -4.21,-61.46 -5.43,-61.81 -6.58,-62.15 -7.65,-62.5 -8.77,-62.87 -10.03,-63.3 -11.4,-63.83 -12.81,-64.47 -14.16,-65.19 -15.38,-65.92 -16.49,-66.56 -17.55,-67.01 -18.63,-67.21 -19.81,-67.19 -21.12,-67.03 -22.53,-66.83 -24.01,-66.73 -25.56,-66.86 -26.53,-67.21" fill="none" stroke="rgb(51, 19, 134)" stroke-width="2" stroke-linejoin="round" filter="url(#fuzzy)" /><polyline points="-10.04,-67.93 -12.55,-67.96 -14.27,-67.97 -15.39,-67.94 -16.25,-67.85 -17.06,-67.78 -17.97,-67.73 -19.03,-67.68 -20.25,-67.58 -21.57,-67.4 -22.92,-67.15 -24.28,-66.88 -25.62,-66.63 -26.95,-66.4 -28.28,-66.16 -29.49,-65.92 -29.91,-66.06" fill="none" stroke="rgb(51, 19, 134)" stroke-width="2" stroke-linejoin="round" filter="url(#fuzzy)" /><polyline points="-36.59,-63.69 -34.82,-65.73 -34.17,-67.78 -33.47,-69.01 -32.54,-69.61 -31.49,-70.1 -30.4,-70.68 -29.25,-71.32 -28.03,-71.97 -26.75,-72.67 -25.47,-73.58 -24.22,-74.75 -23,-76.06 -21.82,-77.23 -20.78,-78.11 -20.19,-79.08 -20.82,-80.56" fill="none" stroke="rgb(51, 19, 134)" stroke-width="2" stroke-linejoin="round" filter="url(#fuzzy)" /><polyline points="81.89,-14.43 81.67,-12.81 81.6,-11.65 81.84,-10.69 82.11,-9.78 82.21,-8.83 82.09,-7.83 81.79,-6.81 81.39,-5.8 80.99,-4.86 80.64,-3.98 80.37,-3.1 80.2,-2.18 80.12,-1.17 80.07,-0.09 79.93,1.02 79.63,2.13 79.16,3.23 78.55,4.37 77.81,5.62 77.04,6.57" fill="none" stroke="rgb(51, 19, 134)" stroke-width="2" stroke-linejoin="round" filter="url(#fuzzy)" /><polyline points="-37.94,-63.01 -39.2,-62.76 -40.47,-62.76 -42.04,-63.04 -43.77,-63.39 -45.44,-63.58 -46.91,-63.45 -48.18,-63.05 -49.39,-62.51 -50.67,-61.94 -52.06,-61.43 -53.52,-61 -54.99,-60.68 -56.48,-60.52 -58.04,-60.56 -59.74,-60.75 -61.61,-60.92 -63.61,-60.91 -65.61,-60.9 -66.36,-61.77 -37.94,-63.01 -39.49,-63.22 -40.7,-63.15 -41.75,-62.69 -42.97,-62.33 -44.51,-62.32 -46.25,-62.56 -47.98,-62.77 -49.6,-62.75 -51.13,-62.48 -52.69,-62.14 -54.33,-61.88 -56.02,-61.76 -57.63,-61.71 -59.09,-61.59 -60.45,-61.36 -61.91,-61.07 -63.71,-60.87 -65.81,-60.81 -67.92,-60.68 -70.49,-59.62" fill="none" stroke="rgb(51, 19, 134)" stroke-width="2" stroke-linejoin="round" filter="url(#fuzzy)" /><polyline points="-42.73,-60.98 -43.85,-61.18 -45.61,-61.27 -46.87,-61 -47.91,-60.45 -49.02,-59.78 -50.29,-59.13 -51.66,-58.63 -53.09,-58.34 -54.54,-58.26 -55.98,-58.31 -57.35,-58.28 -58.6,-57.96 -59.74,-57.23 -60.8,-56.45 -61.4,-57.16 -46.23,-58.79 -45.42,-59.05 -44.39,-59.11 -43.07,-59.28 -41.79,-59.59 -40.61,-59.96 -39.49,-60.31 -38.34,-60.59 -37.16,-60.83 -35.93,-61.03 -34.65,-61.23 -33.37,-61.46 -32.11,-61.74 -30.94,-62.05 -29.91,-62.3 -29.09,-62.33 -28.87,-61.9 -29.91,-66.06 -31.36,-65.69 -32.54,-65.23 -33.76,-64.74 -35.01,-64.24 -36.24,-63.75 -37.41,-63.28 -38.54,-62.81 -39.64,-62.33 -40.71,-61.82 -41.77,-61.29 -42.83,-60.73 -43.89,-60.16 -44.94,-59.59 -46,-59.04 -47.13,-58.46 -48.39,-57.81 -49.73,-57.09 -51,-56.38 -52.02,-55.93 -53.58,-54.78 -52.15,-54.58 -51.13,-54.86 -49.8,-55 -48.12,-54.97 -46.34,-54.89 -44.63,-54.82 -43.02,-54.67 -41.45,-54.41 -39.89,-54.1 -38.41,-53.92 -37.13,-53.98 -36.04,-54.2 -34.97,-54.29 -33.7,-53.96 -31.98,-53.12" fill="none" stroke="rgb(51, 19, 134)" stroke-width="2" stroke-linejoin="round" filter="url(#fuzzy)" /><polyline points="-59.55,-34.01 -59.48,-34.2 -59.63,-35.02 -59.83,-36.08 -59.95,-37.3 -59.9,-38.61 -59.6,-39.88 -59.03,-41.01 -58.31,-41.97 -57.61,-42.85 -57.07,-43.72 -56.75,-44.67 -56.59,-45.74 -56.51,-46.92 -56.43,-48.17 -56.23,-49.4 -55.82,-50.55 -55.11,-51.57 -54.1,-52.45 -53.17,-53.31 -53.58,-54.78" fill="none" stroke="rgb(51, 19, 134)" stroke-width="2" stroke-linejoin="round" filter="url(#fuzzy)" /><polyline points="-53.87,-54.47 -52.92,-54.3 -51.64,-54.08 -50.4,-54.11 -49.17,-54.38 -47.94,-54.84 -46.69,-55.37 -45.45,-55.86 -44.25,-56.27 -43.05,-56.59 -41.79,-56.76 -40.39,-56.72 -38.82,-56.39 -37.18,-55.88 -35.62,-55.4 -34.19,-55.1 -32.65,-54.85 -30.89,-54.92" fill="none" stroke="rgb(51, 19, 134)" stroke-width="2" stroke-linejoin="round" filter="url(#fuzzy)" /><polyline points="65.33,-35.98 66.02,-35.5 66.83,-35 67.78,-34.37 68.72,-33.65 69.6,-32.87 70.41,-32.06 71.15,-31.21 71.82,-30.33 72.42,-29.42 72.99,-28.47 73.56,-27.49 74.18,-26.49 74.88,-25.53 75.63,-24.63 76.37,-23.82 77.01,-23.1 77.56,-22.46 78.1,-21.83 78.73,-21.12 79.45,-20.23 80.15,-19.06 80.78,-17.64 81.6,-15.74" fill="none" stroke="rgb(51, 19, 134)" stroke-width="2" stroke-linejoin="round" filter="url(#fuzzy)" /><polyline points="-42.5,-75.57 -44.69,-75.07 -45.95,-74.07 -46.77,-72.79 -47.46,-71.4 -48.06,-69.89 -48.54,-68.23 -48.95,-66.5 -49.38,-64.82 -49.92,-63.3 -50.62,-61.96 -51.49,-60.81 -52.48,-59.87 -53.54,-59.12 -54.6,-58.49 -55.59,-57.89 -56.5,-57.21 -57.38,-56.42 -58.35,-55.6 -59.43,-54.81 -60.42,-53.97 -60.89,-52.82 -60.46,-51.13 -59.88,-49.55" fill="none" stroke="rgb(51, 19, 134)" stroke-width="2" stroke-linejoin="round" filter="url(#fuzzy)" /><polyline points="-65.36,-28.02 -65.55,-29.03 -65.53,-30.51 -65.59,-31.87 -65.71,-33.04 -65.87,-34.13 -66.03,-35.22 -66.11,-36.29 -66.05,-37.29 -65.83,-38.22 -65.5,-39.12 -65.15,-40.11 -64.81,-41.25 -64.43,-42.51 -63.89,-43.8 -63.13,-44.99 -62.25,-45.98 -61.5,-46.77 -61.17,-47.36 -61.75,-47.82" fill="none" stroke="rgb(51, 19, 134)" stroke-width="2" stroke-linejoin="round" filter="url(#fuzzy)" /><polyline points="-97.52,-37.07 -97.84,-37.54 -95.93,-37.4 -93.54,-37.34 -91.64,-37.7 -90.34,-38.51 -89.27,-39.55 -88,-40.54 -86.3,-41.27 -84.22,-41.7 -81.96,-41.93 -79.76,-42.1 -77.83,-42.35 -76.27,-42.75 -75.1,-43.34 -74.24,-44.12 -73.51,-45.02 -72.63,-45.94 -71.34,-46.75 -69.48,-47.33 -67.2,-47.7 -64.99,-48.02 -63.3,-48.4 -61.21,-47.96 -62.81,-46.76 -62.97,-48.04 -64.21,-49.96 -65.69,-52.2 -66.47,-54.11 -66.23,-55.35 -65.2,-56.03 -63.87,-56.54 -62.71,-57.31 -62.08,-58.65 -62.2,-60.72 -63.16,-63.52 -64.8,-66.84 -66.58,-70.19 -67.54,-72.7 -66.91,-73.56" fill="none" stroke="rgb(51, 19, 134)" stroke-width="2" stroke-linejoin="round" filter="url(#fuzzy)" /><polyline points="-65.46,-25.21 -66.16,-26.34 -66.59,-27.36 -67.01,-28.56 -67.43,-29.94 -67.7,-31.34 -67.7,-32.59 -67.41,-33.6 -66.95,-34.45 -66.5,-35.27 -66.14,-36.13 -65.85,-37 -65.51,-37.84 -65.04,-38.6 -64.46,-39.36 -63.93,-40.3 -63.6,-41.59 -63.55,-43.31 -63.52,-45.22 -62.81,-46.76" fill="none" stroke="rgb(51, 19, 134)" stroke-width="2" stroke-linejoin="round" filter="url(#fuzzy)" /><polyline points="-101.45,-32.33 -99.96,-34.33 -97.01,-35.18 -93.94,-35.36 -91.56,-35.48 -89.77,-35.75 -88.17,-36.17 -86.49,-36.69 -84.76,-37.33 -83.1,-38.07 -81.57,-38.85 -80.12,-39.57 -78.71,-40.19 -77.31,-40.72 -75.9,-41.18 -74.36,-41.52 -72.64,-41.69 -70.92,-41.77 -69.58,-42.03 -68.6,-42.57 -66.5,-42.92" fill="none" stroke="rgb(51, 19, 134)" stroke-width="2" stroke-linejoin="round" filter="url(#fuzzy)" /><polyline points="-68.06,-41.05 -71.43,-44.22 -70.97,-45.62 -69.29,-46.44 -67.92,-47.46 -67.25,-48.8 -67.13,-50.32 -67.25,-51.84 -67.37,-53.29 -67.35,-54.65 -67.16,-55.95 -66.82,-57.24 -66.38,-58.54 -65.83,-59.85 -65.14,-61.15 -64.37,-62.42 -63.75,-63.77 -63.62,-65.37 -63.92,-67.19 -64.12,-68.94 -68.62,-40.59 -68.44,-41.28 -67.93,-42.15 -67.34,-43.33 -66.65,-44.63 -65.87,-45.89 -65.11,-47.04 -64.43,-48.06 -63.84,-48.97 -63.27,-49.79 -62.66,-50.56 -61.99,-51.34 -61.27,-52.16 -60.5,-53 -59.65,-53.87 -58.71,-54.85 -57.68,-56.11 -56.79,-57.43" fill="none" stroke="rgb(51, 19, 134)" stroke-width="2" stroke-linejoin="round" filter="url(#fuzzy)" /><polyline points="-71.19,-37.51 -71.75,-37.12 -72.85,-36.84 -74.79,-36.6 -77.24,-36.32 -79.53,-35.89 -81.23,-35.28 -82.3,-34.52 -82.99,-33.71 -83.62,-32.93 -84.42,-32.18 -85.47,-31.41 -86.79,-30.58 -88.33,-29.68 -90.09,-28.76 -91.98,-27.92 -93.85,-27.16 -95.46,-26.45 -96.61,-25.65 -97.4,-24.62 -98.32,-23.44 -100.07,-22.55 -103.04,-22.69" fill="none" stroke="rgb(51, 19, 134)" stroke-width="2" stroke-linejoin="round" filter="url(#fuzzy)" /><polyline points="-71.48,-36.9 -70.8,-37.77 -69.92,-38.63 -68.95,-39.23 -67.84,-39.65 -66.65,-40.04 -65.42,-40.52 -64.16,-41.12 -62.9,-41.83 -61.7,-42.61 -60.61,-43.42 -59.66,-44.18 -58.79,-44.83 -57.91,-45.33 -56.95,-45.72 -55.9,-46.06 -54.82,-46.44 -53.74,-46.84 -52.75,-47.1 -52.29,-46.39" fill="none" stroke="rgb(51, 19, 134)" stroke-width="2" stroke-linejoin="round" filter="url(#fuzzy)" /><polyline points="-74.7,-32.02 -74.66,-33.09 -74.2,-34.55 -73.54,-35.73 -73.1,-36.78 -72.97,-37.87 -73.02,-39.04 -73.05,-40.21 -72.96,-41.32 -72.71,-42.38 -72.33,-43.42 -71.85,-44.52 -71.32,-45.71 -70.76,-47.02 -70.18,-48.37 -69.55,-49.67 -68.88,-50.85 -68.2,-51.87 -67.57,-52.82 -67.07,-53.83 -66.71,-54.97 -66.38,-56.22 -65.91,-57.42 -65.41,-58.38 -66.08,-58.62" fill="none" stroke="rgb(51, 19, 134)" stroke-width="2" stroke-linejoin="round" filter="url(#fuzzy)" /><polyline points="-53.44,-45.41 -54.76,-45.04 -55.88,-44.62 -56.81,-44.24 -57.76,-43.82 -58.89,-43.33 -60.2,-42.77 -61.6,-42.16 -62.95,-41.51 -64.19,-40.85 -65.3,-40.2 -66.28,-39.57 -67.15,-38.93 -67.93,-38.26 -68.66,-37.57 -69.39,-36.87 -70.13,-36.14 -70.91,-35.36 -71.71,-34.51 -72.54,-33.56 -73.37,-32.56 -74.1,-31.58 -74.61,-30.66 -74.99,-29.85 -76.11,-29.31 -77.12,-26.6 -76.55,-28.16 -76.28,-28.98 -76.09,-29.62 -75.89,-30.31 -75.63,-31.11 -75.24,-32.02 -74.74,-33.03 -74.17,-34.1 -73.58,-35.15 -73.01,-36.16 -72.47,-37.1 -71.95,-37.98 -71.44,-38.85 -70.95,-39.71 -70.5,-40.56 -70.06,-41.39 -69.6,-42.22 -69.03,-43.12 -68.26,-44.17 -67.23,-45.4" fill="none" stroke="rgb(51, 19, 134)" stroke-width="2" stroke-linejoin="round" filter="url(#fuzzy)" /><polyline points="-78.34,-24.62 -76.65,-22.22 -77.14,-21.45 -77.65,-20.85 -77.75,-19.97 -77.45,-18.81 -76.97,-17.52 -76.63,-16.24 -76.63,-15.06 -76.98,-14 -77.5,-13.01 -77.95,-12 -78.18,-10.94 -78.16,-9.83 -77.93,-8.68 -77.55,-7.54 -77.06,-6.44 -76.45,-5.39 -75.7,-4.42 -74.84,-3.57 -73.95,-2.84 -73.13,-2.15 -72.46,-1.29 -71.99,-0.13" fill="none" stroke="rgb(51, 19, 134)" stroke-width="2" stroke-linejoin="round" filter="url(#fuzzy)" /><polyline points="78.96,-23.88 78.36,-23.34 78.13,-22.75 78.22,-22.18 78.34,-21.42 78.36,-20.4 78.31,-19.14 78.24,-17.75 78.2,-16.35 78.23,-15.02 78.33,-13.83 78.47,-12.76 78.58,-11.79 78.6,-10.85 78.43,-9.92 78,-9 77.43,-8.14 77.04,-7.36 77.35,-5.97" fill="none" stroke="rgb(51, 19, 134)" stroke-width="2" stroke-linejoin="round" filter="url(#fuzzy)" /><polyline points="60.05,-38.23 60.36,-36.91 61.02,-36.05 61.85,-35.44 62.84,-34.98 64,-34.64 65.33,-34.35 66.72,-34.02 68.04,-33.58 69.19,-33 70.14,-32.3 70.97,-31.51 71.81,-30.71 72.68,-29.93 73.55,-29.16 74.42,-28.38 75.45,-27.58 76.77,-26.7 77.96,-25.61" fill="none" stroke="rgb(51, 19, 134)" stroke-width="2" stroke-linejoin="round" filter="url(#fuzzy)" /><polyline points="85.1,-3.84 84.74,-6.14 84.43,-7.64 84.15,-8.68 83.85,-9.61 83.54,-10.53 83.23,-11.47 82.93,-12.44 82.62,-13.47 82.29,-14.57 81.93,-15.78 81.53,-17.06 81.09,-18.38 80.65,-19.64 80.23,-20.79 79.84,-21.75 79.51,-22.52 79.21,-23.18 78.9,-23.83 78.52,-24.62 78.01,-25.66 77.41,-26.93 75.9,-29.27 77.34,-28.66 79.04,-27.77 80.07,-26.68 80.63,-25.62 81.21,-24.77 82.12,-24.15 83.39,-23.66 84.84,-23.11 86.24,-22.37 87.47,-21.38 88.54,-20.16 89.5,-18.83 90.41,-17.5 91.35,-16.24 92.47,-15.12 93.99,-14.13 96.12,-13.26 98.85,-12.46 101.87,-11.69 104.49,-11.11 105.46,-11.81" fill="none" stroke="rgb(51, 19, 134)" stroke-width="2" stroke-linejoin="round" filter="url(#fuzzy)" /><polyline points="74.64,-65.27 74.95,-63.08 74.99,-61.58 75.49,-60.43 76.39,-59.41 77.23,-58.3 77.6,-56.87 77.41,-55.05 76.87,-53 76.34,-50.94 76.13,-49.09 76.35,-47.55 76.84,-46.27 77.34,-45.1 77.6,-43.9 77.53,-42.6 77.22,-41.2 76.83,-39.75 76.54,-38.32 76.49,-36.98 76.74,-35.77 77.36,-34.74 78.41,-33.92 79.3,-32.98 75.83,-29.52" fill="none" stroke="rgb(51, 19, 134)" stroke-width="2" stroke-linejoin="round" filter="url(#fuzzy)" /><polyline points="74.79,-32.02 75.05,-31.37 75.58,-30.37 76.26,-29.41 77.06,-28.45 77.86,-27.44 78.56,-26.41 79.09,-25.41 79.48,-24.49 79.8,-23.66 80.13,-22.88 80.51,-22.07 80.96,-21.14 81.47,-20.07 82.03,-18.85 82.6,-17.54 83.16,-16.23 83.66,-14.99 84.1,-13.87 84.53,-12.86 85,-11.95 85.47,-11.14 85.9,-10.31" fill="none" stroke="rgb(51, 19, 134)" stroke-width="2" stroke-linejoin="round" filter="url(#fuzzy)" /><polyline points="73.84,-33.09 74.78,-32.35 75.98,-31.73 77.14,-31 78.12,-30.14 79.17,-29.23 80.54,-28.36 82.22,-27.6 83.99,-26.94 85.59,-26.34 86.9,-25.74 87.99,-25.09 89,-24.35 90.01,-23.46 91.03,-22.39 92,-21.12 92.88,-19.72 93.72,-18.29 94.63,-16.95 95.77,-15.77 97.26,-14.77 99.1,-13.91 100.94,-13.15 101.42,-12.17" fill="none" stroke="rgb(51, 19, 134)" stroke-width="2" stroke-linejoin="round" filter="url(#fuzzy)" /><polyline points="71.83,-35.93 73.13,-35.5 74.65,-35.07 75.73,-34.33 76.63,-33.47 77.69,-32.66 78.99,-31.93 80.37,-31.2 81.68,-30.39 82.9,-29.48 84.08,-28.53 85.29,-27.64 86.49,-26.86 87.59,-26.19 88.54,-25.58 89.39,-24.95 90.31,-24.2 91.47,-23.25 93.01,-22.07 94.95,-20.7 97.11,-18.73 71.83,-35.93 70.13,-36.71 68.86,-37.04 68.18,-37.63 67.49,-38.32 66.59,-38.98 65.55,-39.66 64.55,-40.42 63.68,-41.28 62.91,-42.17 62.12,-43 61.2,-43.69 60.09,-44.2 58.83,-44.57 57.51,-44.87 56.27,-45.17 55.18,-45.54 54.25,-46.03 53.38,-46.62 52.46,-47.29 51.36,-47.96 49.99,-48.46 48.55,-48.62" fill="none" stroke="rgb(51, 19, 134)" stroke-width="2" stroke-linejoin="round" filter="url(#fuzzy)" /><polyline points="103.19,-17.16 102.01,-19.6 100.95,-21.72 99.4,-23.35 97.5,-24.55 95.61,-25.42 93.9,-26.08 92.37,-26.63 90.96,-27.2 89.66,-27.88 88.48,-28.73 87.42,-29.72 86.42,-30.77 85.39,-31.8 84.18,-32.7 82.68,-33.42 80.83,-33.96 78.83,-34.41 77.13,-34.99 76.34,-35.98 76.69,-37.51 76.81,-39.04 70.76,-38.02 45.42,-56.81 47.12,-55.98 47.95,-55.73 48.74,-55.48 49.54,-55.12 50.41,-54.63 51.39,-54.03 52.49,-53.37 53.68,-52.67 54.89,-51.96 56.06,-51.26 57.15,-50.56 58.14,-49.88 59.04,-49.2 59.9,-48.52 60.75,-47.82 61.61,-47.11 62.48,-46.38 63.35,-45.62 64.22,-44.85 65.1,-44.04 66.02,-43.18 66.97,-42.25 67.89,-41.26 68.74,-40.26 62.65,-20.58 64.4,-22.47 65.5,-24.02 65.8,-25.16 65.57,-26.06 65.09,-26.88 64.66,-27.75 64.54,-28.79 64.87,-30.05 65.57,-31.51 66.4,-33.01 67.09,-34.43 67.47,-35.68 67.53,-36.75 67.29,-37.68 66.82,-38.54 66.17,-39.38 65.43,-40.27 64.8,-41.31 64.5,-42.61 64.52,-43.94 64.63,-44.46" fill="none" stroke="rgb(51, 19, 134)" stroke-width="2" stroke-linejoin="round" filter="url(#fuzzy)" /><polyline points="56.56,-52.44 54.26,-52.46 53.15,-53.41 52.27,-54.39 51.41,-55.12 50.54,-55.59 49.63,-55.83 48.61,-55.87 47.46,-55.77 46.17,-55.65 44.78,-55.64 43.37,-55.84 42.01,-56.23 40.7,-56.65 39.34,-56.99 37.9,-57.3 50.53,-76.4 50.78,-73.64 51.47,-71.71 52.26,-70.03 53.03,-68.36 53.76,-66.89 54.39,-65.66 54.78,-64.49 54.8,-63.12 54.48,-61.44 54.03,-59.56 53.72,-57.69 53.79,-56.02 54.34,-54.62 55.31,-53.49 56.56,-52.44 94.17,-50.6 93.12,-50.3 90.72,-50.04 87.94,-49.86 85.32,-49.91 82.87,-50.1 80.43,-50.31 78,-50.46 75.66,-50.62 73.55,-50.84 71.72,-51.2 70.15,-51.66 68.71,-52.15 67.26,-52.56 65.71,-52.8 64.03,-52.87 62.28,-52.86 60.5,-52.89 58.74,-53.04 56.99,-53.33 55.29,-53.79 53.68,-54.46 52.06,-55.54 51.39,-56.13 51.81,-54.8 52.7,-53.56 53.85,-52.59 54.81,-51.55 55.4,-50.32 55.69,-49 55.87,-47.72 56.07,-46.58 56.37,-45.56 56.75,-44.62 57.17,-43.68 57.53,-42.68 57.72,-41.57 57.66,-40.29 57.37,-38.84 57,-37.31 56.78,-35.84 56.7,-34.46 56.47,-33.07 50.73,-56.46 52.27,-57.82 54.25,-58.8 56.11,-59.01 57.93,-58.81 59.61,-58.32 61.09,-57.61 62.45,-56.85 63.85,-56.23 65.46,-55.88 67.39,-55.86 69.67,-56.12 72.22,-56.55 74.85,-56.95 77.35,-57.16 79.61,-57.12 81.72,-56.88 83.88,-56.57 86.25,-56.26 88.74,-55.9 90.94,-55.23 92.08,-53.92 46.81,-58.54 46.95,-59.46 46.69,-61.59 46.2,-63.3 45.42,-64.47 44.67,-65.75 44.24,-67.7 44.12,-70.34 44.15,-73.26 44.14,-76.01 44,-78.43 43.74,-80.63 43.28,-82.7 42.35,-84.51 40.96,-85.89 40.58,-87.46 36.93,-63.75 35.25,-64.23 34.23,-64.54 33.09,-64.9 31.9,-65.27 30.77,-65.61 29.69,-65.94 28.61,-66.26 27.46,-66.6 26.24,-66.95 24.97,-67.3 23.7,-67.63 22.46,-67.93 21.28,-68.19 20.18,-68.4 19.16,-68.57 18.19,-68.7 17.21,-68.8 16.22,-68.89 15.14,-68.98 13.48,-69.16" fill="none" stroke="rgb(51, 19, 134)" stroke-width="2" stroke-linejoin="round" filter="url(#fuzzy)" /><polyline points="33.4,-65.08 31.7,-66.05 31.14,-67.44 30.84,-69.06 30.26,-70.38 29.27,-71.28 28.05,-72 26.78,-72.75 25.55,-73.53 24.34,-74.2 23.16,-74.71 22.03,-75.19 21.03,-75.89 20.16,-77.02 19.38,-78.63 18.59,-80.61 17.63,-82.7 16.34,-84.74 14.6,-86.99 12.3,-90.42 19.82,-85.37 20.52,-86.43 21.2,-84.98 21.83,-82.84 22.43,-80.8 23.11,-78.98 23.9,-77.3 24.76,-75.65 25.63,-73.92 26.52,-72.18 27.48,-70.59 28.48,-69.27 29.37,-68.18 29.97,-67.13 30.28,-66.2 30.44,-65.89 7.03,-86.21 8.3,-84.84 9.5,-83.93 10.73,-82.74 12.07,-81.47 13.5,-80.37 14.96,-79.48 16.33,-78.63 17.54,-77.67 18.58,-76.6 19.53,-75.54 20.44,-74.59 21.38,-73.8 22.36,-73.05 23.35,-72.15 24.32,-70.98 25.29,-69.63 26.36,-68.32 27.57,-67.28 28.76,-66.57 29.18,-66.33 49.81,-62.3 49.18,-62.3 47.65,-62.87 46.21,-63.41 44.95,-63.94 43.74,-64.48 42.48,-64.99 41.1,-65.37 39.65,-65.6 38.18,-65.68 36.77,-65.71 35.44,-65.76 34.17,-65.92 32.95,-66.17 31.8,-66.5 30.74,-66.87 29.74,-67.28 28.71,-67.71 27.43,-68.06 25.7,-68.1 23.24,-67.95 43.75,-49.63 42.28,-51.01 41.54,-52.44 40.61,-53.46 39.52,-54.1 38.43,-54.6 37.41,-55.17 36.45,-55.86 35.54,-56.67 34.68,-57.56 33.89,-58.5 33.15,-59.46 32.42,-60.41 31.65,-61.29 30.83,-62.08 29.96,-62.79 29.08,-63.43 28.15,-63.96 27.08,-64.29 25.81,-64.36 24.4,-64.37 23.22,-64.91 22.68,-66.6 22.34,-68.38 19.26,-68.82 21.61,-68.93 23.02,-68.61 24.31,-68.4 25.71,-68.35 27.17,-68.35 28.56,-68.35 29.83,-68.35 31.05,-68.36 32.34,-68.44 33.74,-68.56 35.18,-68.64 36.5,-68.56 37.6,-68.31 38.72,-68.14 39.82,-68.51" fill="none" stroke="rgb(51, 19, 134)" stroke-width="2" stroke-linejoin="round" filter="url(#fuzzy)" /><polyline points="0.54,-58.92 1.1,-59.03 2.4,-59.44 3.65,-60.19 4.78,-61.24 5.87,-62.34 6.95,-63.27 8.09,-64.02 9.32,-64.71 10.66,-65.41 12.05,-65.95 13.35,-65.99 14.43,-65.34 15.4,-64.53 16.89,-65.13 20.22,-68.82 16.29,-69.56 15.5,-69.82 14.15,-70.61 12.75,-71.71 11.42,-72.74 10.17,-73.5 8.97,-73.95 7.78,-74.2 6.57,-74.34 5.3,-74.53 3.95,-74.84 2.53,-75.3 1.07,-75.85 -0.35,-76.39 -1.7,-76.86 -2.94,-77.29 -4.17,-77.75 -5.82,-78.27 -8.93,-78.88 16.29,-69.56 18.14,-72.63 19.52,-73.24 20.49,-72.95 21.54,-72.75 22.89,-73 24.54,-73.72 26.45,-74.83 28.54,-76.21 30.7,-77.66 32.77,-78.94 34.63,-79.83 36.21,-80.2 37.62,-80.11 39.1,-79.85 40.83,-79.89 42.79,-80.52 44.85,-81.64 48.11,-83.03" fill="none" stroke="rgb(51, 19, 134)" stroke-width="2" stroke-linejoin="round" filter="url(#fuzzy)" /><polyline points="48.6,-81.86 47.32,-81.27 45.51,-80.17 43.23,-78.45 40.85,-76.68 38.57,-75.22 36.52,-74.17 34.73,-73.51 33.19,-73.22 31.79,-73.22 30.44,-73.45 29.09,-73.82 27.7,-74.25 26.29,-74.58 24.83,-74.65 23.33,-74.32 21.84,-73.61 20.46,-72.67 19.15,-71.72 17.68,-70.76 16.29,-69.56" fill="none" stroke="rgb(51, 19, 134)" stroke-width="2" stroke-linejoin="round" filter="url(#fuzzy)" /><polyline points="13.6,-69.81 15.32,-69.84 16.43,-69.9 17.44,-69.86 18.44,-69.82 19.44,-69.82 20.51,-69.86 21.7,-69.94 23.01,-70.03 24.4,-70.09 25.83,-70.07 27.27,-69.92 28.64,-69.66 29.89,-69.39 30.96,-69.35 31.88,-69.69 32.55,-70.45" fill="none" stroke="rgb(51, 19, 134)" stroke-width="2" stroke-linejoin="round" filter="url(#fuzzy)" /><polyline points="10.11,-70.19 11.37,-75.62 12.94,-76.06 14.48,-75.53 15.81,-74.7 16.97,-73.88 18.08,-73.33 19.24,-73.27 20.59,-73.84 22.2,-75.08 24.04,-76.8 26.04,-78.61 28.05,-80.11 29.98,-81.06 31.82,-81.52 33.6,-81.77 35.35,-82.11 37.08,-82.68 38.87,-83.42 40.89,-84.06 43.43,-84.3 47,-85.06 7.45,-70.68 9.61,-73.24 11.24,-74.54 13.08,-76.09 14.99,-77.71 16.72,-78.82 18.12,-79.05 19.24,-78.5 20.21,-77.65 21.21,-76.96 22.35,-76.66 23.65,-76.71 25.13,-76.98 26.77,-77.39 28.59,-77.95 30.6,-78.72 32.73,-79.65 34.79,-80.65 36.53,-81.59 37.9,-81.68 30.9,-68.76 28.55,-69.22 26.81,-69.53 25.3,-69.69 23.91,-69.8 22.6,-69.87 21.38,-69.94 20.26,-70.01 19.2,-70.08 18.16,-70.14 17.07,-70.18 15.9,-70.2 14.62,-70.22 13.26,-70.27 11.85,-70.35 10.48,-70.46 9.19,-70.55 8.01,-70.61 6.92,-70.62 5.76,-70.63" fill="none" stroke="rgb(51, 19, 134)" stroke-width="2" stroke-linejoin="round" filter="url(#fuzzy)" /><polyline points="82.28,-10.98 83.25,-8.39 85.6,-6.55 88.59,-4.78 90.81,-2.86 92.21,-0.8 93.31,1.35 94.45,3.55 95.61,5.76 96.76,7.98 97.88,10.19 98.99,12.39 100.04,14.55 100.87,16.68 101.36,18.81 101.5,20.96 101.43,23.13 101.35,25.29 101.42,27.42 101.7,29.48 102.08,31.44 102.44,33.3 102.78,35.04 103.14,36.66 103.4,38.21 103.16,39.8 102.28,41.57 102.48,43.38" fill="none" stroke="rgb(51, 19, 134)" stroke-width="2" stroke-linejoin="round" filter="url(#fuzzy)" /><polyline points="-9.03,-70.49 -12.36,-70.08 -15,-69.66 -17.7,-69.15 -20.55,-68.56 -23.41,-67.92 -26.23,-67.25 -28.99,-66.53 -31.73,-65.76 -34.43,-64.93 -37.11,-64.04 -39.8,-63.08 -42.49,-62.06 -45.2,-60.99 -47.92,-59.89 -50.63,-58.74 -53.31,-57.57 -55.9,-56.35 -58.39,-55.09 -60.73,-53.76 -62.95,-52.36 -65.11,-50.89 -67.27,-49.35 -69.53,-47.74 -71.94,-46.07 -74.52,-44.36 -77.2,-42.63 -79.87,-40.89 -82.41,-39.16 -84.75,-37.43 -86.87,-35.69 -88.82,-33.92 -90.68,-32.12 -92.49,-30.29 -94.27,-28.41 -96.06,-26.42 -98.02,-24.2 -100.37,-21.57" fill="none" stroke="rgb(51, 19, 134)" stroke-width="2" stroke-linejoin="round" filter="url(#fuzzy)" /><polyline points="-10.4,-70.39 -14.82,-69.8 -17.62,-69.39 -20.1,-68.98 -22.54,-68.49 -24.96,-67.9 -27.39,-67.21 -29.87,-66.46 -32.43,-65.66 -35.11,-64.8 -37.89,-63.89 -40.69,-62.92 -43.48,-61.89 -46.24,-60.79 -49.01,-59.62 -51.86,-58.38 -54.85,-57.07 -58.01,-55.71 -61.33,-54.3 -64.8,-52.87 -68.36,-51.42 -71.95,-49.95 -75.46,-48.44 -78.78,-46.89 -81.79,-45.29 -84.45,-43.63 -86.85,-41.93 -89.17,-40.21 -91.63,-38.45 -94.39,-36.63 -97.44,-34.74 -100.61,-32.83 -103.67,-31.06 -106.43,-29.68 -107.95,-28.94" fill="none" stroke="rgb(51, 19, 134)" stroke-width="2" stroke-linejoin="round" filter="url(#fuzzy)" /><polyline points="-17.94,-69.42 -18.99,-69.03 -20.84,-68.57 -23.1,-67.95 -25.28,-67.24 -27.07,-66.46 -28.44,-65.64 -29.58,-64.78 -30.63,-63.87 -31.61,-62.9 -32.41,-61.87 -32.96,-60.76 -33.28,-59.59 -33.52,-58.34 -33.88,-57.02 -34.45,-55.65 -35.16,-54.24 -35.78,-52.81 -36.03,-51.35 -35.68,-49.88 -34.69,-48.37 -33.24,-46.82 -31.61,-45.22 -30.08,-43.56 -28.83,-41.86 -27.87,-40.13 -27.13,-38.37 -26.53,-36.55 -26,-34.69 -25.46,-32.83 -24.82,-31.04 -24.15,-29.4 -23.72,-27.69 -22.5,-24.99" fill="none" stroke="rgb(51, 19, 134)" stroke-width="2" stroke-linejoin="round" filter="url(#fuzzy)" /><polyline points="-18.49,-68.94 -22.94,-68.63 -25.46,-68.02 -27.71,-67.27 -30.25,-66.49 -33.27,-65.68 -36.7,-64.84 -40.28,-63.94 -43.71,-62.99 -46.77,-61.97 -49.49,-60.9 -52.07,-59.74 -54.73,-58.51 -57.64,-57.21 -60.82,-55.84 -64.21,-54.43 -67.7,-53 -71.22,-51.57 -74.68,-50.16 -77.98,-48.73 -81.07,-47.25 -83.99,-45.63 -86.99,-43.88 -90.3,-42.12 -93.94,-40.6 -98.36,-39.47" fill="none" stroke="rgb(51, 19, 134)" stroke-width="2" stroke-linejoin="round" filter="url(#fuzzy)" /><polyline points="-26.83,-67.05 -28.2,-66.56 -30.34,-65.85 -32.87,-64.99 -35.57,-64.06 -38.43,-63.08 -41.56,-62.04 -44.99,-60.95 -48.64,-59.83 -52.29,-58.69 -55.73,-57.52 -58.86,-56.33 -61.7,-55.09 -64.36,-53.78 -66.97,-52.4 -69.62,-50.93 -72.34,-49.39 -75.1,-47.77 -77.82,-46.1 -80.48,-44.38 -83.11,-42.65 -85.82,-40.91 -88.78,-39.2 -92.06,-37.52 -95.55,-35.82 -98.9,-34.06 -101.8,-32.24 -104.25,-30.5 -106.1,-29.22" fill="none" stroke="rgb(51, 19, 134)" stroke-width="2" stroke-linejoin="round" filter="url(#fuzzy)" /><polyline points="-36.59,-63.69 -39.95,-62.96 -41.72,-61.98 -43.54,-60.84 -45.6,-59.66 -47.86,-58.49 -50.27,-57.32 -52.77,-56.11 -55.29,-54.85 -57.79,-53.51 -60.24,-52.09 -62.63,-50.58 -65.03,-49 -67.49,-47.36 -70.1,-45.67 -72.92,-43.95 -75.96,-42.22 -79.18,-40.48 -82.43,-38.74 -85.56,-37 -88.41,-35.24 -90.88,-33.45 -93.01,-31.62 -94.92,-29.75 -96.79,-27.82 -98.73,-25.83 -100.82,-23.77 -103.14,-21.64 -105.74,-19.43 -108.66,-17.14 -111.67,-14.82 -114.33,-12.48 -116.16,-10.15 -117.33,-7.95 -119.19,-6.35" fill="none" stroke="rgb(51, 19, 134)" stroke-width="2" stroke-linejoin="round" filter="url(#fuzzy)" /><polyline points="-37.94,-63.01 -40.57,-62.09 -44.07,-60.89 -47.2,-59.68 -49.93,-58.52 -52.6,-57.37 -55.33,-56.21 -58.09,-54.99 -60.93,-53.7 -63.95,-52.31 -67.23,-50.83 -70.75,-49.28 -74.38,-47.66 -77.98,-45.98 -81.45,-44.27 -84.75,-42.53 -87.89,-40.81 -91,-39.12 -94.31,-37.45 -98.03,-35.77 -102.17,-34.02 -106.27,-32.21 -109.31,-30.49 -109.9,-29.22" fill="none" stroke="rgb(51, 19, 134)" stroke-width="2" stroke-linejoin="round" filter="url(#fuzzy)" /><polyline points="-57.6,-51.1 -60.06,-50.18 -64.24,-49.14 -69.2,-47.83 -73.67,-46.26 -76.87,-44.55 -78.8,-42.81 -80.14,-41.07 -81.71,-39.33 -84.09,-37.57 -87.3,-35.76 -90.89,-33.93 -94.27,-32.09 -97.02,-30.24 -99.11,-28.38 -100.79,-26.48 -102.41,-24.56 -104.34,-22.61 -106.85,-20.64 -110.1,-18.65 -114.05,-16.6 -118.25,-14.47 -121.91,-12.25 -124.4,-9.88 -126.06,-7.29 -127.27,-4.36" fill="none" stroke="rgb(51, 19, 134)" stroke-width="2" stroke-linejoin="round" filter="url(#fuzzy)" /><polyline points="-56.47,-52.57 -59.19,-50.41 -61.25,-48.64 -63.1,-46.97 -65.07,-45.25 -67.4,-43.48 -70.32,-41.71 -73.95,-39.96 -78.23,-38.23 -82.8,-36.5 -87.16,-34.74 -90.86,-32.95 -93.75,-31.1 -96.03,-29.2 -98.11,-27.24 -100.45,-25.22 -103.31,-23.13 -106.67,-20.97 -110.24,-18.77 -113.62,-16.52 -116.49,-14.27 -118.75,-12.04 -120.52,-9.86 -122.08,-7.75 -123.73,-5.71 -125.8,-3.72 -128.6,-1.74 -132.37,0.29 -137.29,2.4 -143.2,4.58 -149.24,6.82 -153.4,9.07 -153.47,11.62" fill="none" stroke="rgb(51, 19, 134)" stroke-width="2" stroke-linejoin="round" filter="url(#fuzzy)" /><polyline points="-59.04,-50.16 -64.13,-48.44 -68.39,-46.93 -72.28,-45.26 -77.32,-43.48 -82.87,-41.7 -87.63,-39.96 -90.97,-38.25 -93.18,-36.54 -95.06,-34.8 -97.41,-33.02 -100.72,-31.19 -104.99,-29.31 -109.88,-27.37 -114.89,-25.37 -119.69,-23.3 -124.18,-21.15 -128.48,-18.95 -132.77,-16.7 -137.07,-14.42 -141.19,-12.16 -144.74,-9.96 -147.3,-7.85 -148.76,-5.85 -149.79,-3.97 -152.24,-2.12 -158.21,-0.12 -167.59,2.13" fill="none" stroke="rgb(51, 19, 134)" stroke-width="2" stroke-linejoin="round" filter="url(#fuzzy)" /><polyline points="-59.88,-49.55 -61.5,-48.02 -63.36,-46.28 -65.37,-44.41 -67.48,-42.59 -69.75,-40.83 -72.2,-39.08 -74.75,-37.29 -77.23,-35.47 -79.51,-33.61 -81.5,-31.74 -83.22,-29.86 -84.71,-27.97 -86.02,-26.04 -87.18,-24.09 -88.22,-22.1 -89.2,-20.07 -90.18,-18 -91.21,-15.88 -92.33,-13.71 -93.53,-11.5 -94.82,-9.27 -96.18,-7.06 -97.64,-4.89 -99.24,-2.77 -101.02,-0.72 -102.96,1.29 -104.96,3.31 -106.76,5.36 -108.08,7.52 -108.72,9.77 -108.79,12.05 -108.79,14.07 -110.28,15.43" fill="none" stroke="rgb(51, 19, 134)" stroke-width="2" stroke-linejoin="round" filter="url(#fuzzy)" /><polyline points="-61.95,-47.58 -64,-45.42 -66.02,-43.37 -67.86,-41.49 -69.51,-39.75 -71.01,-38.05 -72.46,-36.35 -73.93,-34.6 -75.45,-32.8 -77,-30.95 -78.51,-29.04 -79.88,-27.07 -81.04,-25.04 -81.99,-22.93 -82.81,-20.77 -83.58,-18.56 -84.38,-16.31 -85.24,-14.07 -86.13,-11.85 -87.01,-9.69 -87.85,-7.58 -88.66,-5.53 -89.44,-3.51 -90.24,-1.49 -91.05,0.56 -91.83,2.68 -92.5,4.85 -92.98,7.07 -93.23,9.31 -93.3,11.48 -93.33,13.51 -93.41,15.33 -93.31,17.5" fill="none" stroke="rgb(51, 19, 134)" stroke-width="2" stroke-linejoin="round" filter="url(#fuzzy)" /><polyline points="-62.81,-46.76 -65.73,-44.38 -68.94,-42.42 -73.71,-40.74 -79.9,-39.1 -85.85,-37.38 -89.98,-35.56 -91.86,-33.71 -92.26,-31.86 -92.46,-30.03 -93.51,-28.18 -95.84,-26.3 -99.28,-24.38 -103.5,-22.43 -108.3,-20.47 -113.67,-18.47 -119.55,-16.42 -125.5,-14.29 -130.75,-12.06 -134.69,-9.72 -137.35,-7.3 -139.43,-4.95 -140.7,-3.19" fill="none" stroke="rgb(51, 19, 134)" stroke-width="2" stroke-linejoin="round" filter="url(#fuzzy)" /><polyline points="-63.92,-45.39 -65.16,-43.22 -64.46,-41.35 -63.44,-39.64 -62.71,-37.97 -62.27,-36.28 -61.95,-34.53 -61.72,-32.72 -61.7,-30.86 -62.12,-28.93 -63.06,-26.95 -64.43,-24.9 -65.98,-22.79 -67.41,-20.61 -68.45,-18.4 -68.97,-16.16 -68.97,-13.92 -68.52,-11.71 -67.73,-9.54 -66.68,-7.43 -65.38,-5.36 -63.85,-3.31 -62.12,-1.26 -60.29,0.82 -58.53,2.93 -57.05,5.09 -56.02,7.27 -55.42,9.44 -55.04,11.58 -54.49,13.66 -53.38,15.68 -51.59,17.67 -49.45,19.66 -47.57,21.68 -46.19,23.87 -44.52,26.69" fill="none" stroke="rgb(51, 19, 134)" stroke-width="2" stroke-linejoin="round" filter="url(#fuzzy)" /><polyline points="-65.41,-44.17 -67.69,-42.11 -72.07,-40.55 -78.27,-38.96 -83.82,-37.22 -87.35,-35.37 -89.13,-33.49 -90.12,-31.61 -91.02,-29.74 -91.99,-27.86 -92.8,-25.94 -93.25,-23.99 -93.42,-22 -93.64,-19.98 -94.29,-17.91 -95.63,-15.8 -97.69,-13.63 -100.34,-11.41 -103.43,-9.19 -106.84,-6.97 -110.51,-4.81 -114.37,-2.71 -118.3,-0.66 -122.12,1.34 -125.71,3.34 -128.87,5.39 -131.3,7.54 -132.63,9.79 -133.04,12.06 -133.86,14.07 -136.93,15.43" fill="none" stroke="rgb(51, 19, 134)" stroke-width="2" stroke-linejoin="round" filter="url(#fuzzy)" /><polyline points="-67.71,-41.39 -68.7,-40.4 -70.51,-38.97 -73.04,-37.23 -75.68,-35.34 -77.91,-33.43 -79.54,-31.54 -80.68,-29.68 -81.66,-27.8 -82.8,-25.88 -84.3,-23.93 -86.16,-21.94 -88.19,-19.91 -90.13,-17.84 -91.8,-15.72 -93.14,-13.55 -94.26,-11.34 -95.35,-9.11 -96.53,-6.91 -97.86,-4.75 -99.25,-2.64 -100.6,-0.6 -101.88,1.42 -103.1,3.43 -104.31,5.49 -105.5,7.63 -106.6,9.83 -107.57,12.02 -108.3,14.04 -108.44,15.8 -107.7,17.59" fill="none" stroke="rgb(51, 19, 134)" stroke-width="2" stroke-linejoin="round" filter="url(#fuzzy)" /><polyline points="80.37,-18.58 86.14,-16.24 88.05,-14.17 88.67,-12.17 89.07,-10.19 89.49,-8.17 90.13,-6.12 91.34,-4.05 93.32,-1.94 95.89,0.22 98.58,2.42 101.03,4.61 103.22,6.74 105.44,8.8 107.87,10.81 110.38,12.82 112.53,14.89 114.03,17.02 115.2,19.17 116.86,21.29 119.53,23.38 122.38,25.54 123.72,27.8 124.06,29.95" fill="none" stroke="rgb(51, 19, 134)" stroke-width="2" stroke-linejoin="round" filter="url(#fuzzy)" /><polyline points="-76.11,-29.31 -78.63,-27.86 -81.95,-25.63 -83.55,-23.48 -84.1,-21.46 -84.83,-19.46 -86.32,-17.4 -88.4,-15.26 -90.51,-13.05 -92.08,-10.81 -92.86,-8.57 -92.97,-6.36 -92.78,-4.22 -92.72,-2.12 -93.1,-0.07 -94,1.97 -95.25,4.02 -96.58,6.1 -97.67,8.2 -98.33,10.32 -98.53,12.44 -98.38,14.56 -98.04,16.68 -97.6,18.8 -97.14,20.95 -96.71,23.12 -96.45,25.26 -96.52,27.32 -97.01,29.24 -97.81,30.96 -98.55,32.51 -99.14,34.27" fill="none" stroke="rgb(51, 19, 134)" stroke-width="2" stroke-linejoin="round" filter="url(#fuzzy)" /><polyline points="-76.12,-28.94 -78.24,-25.7 -81.81,-23.38 -87.26,-21.43 -92.67,-19.5 -96.74,-17.49 -99.78,-15.38 -102.85,-13.18 -106.72,-10.94 -111.44,-8.7 -116.43,-6.49 -120.92,-4.36 -124.34,-2.3 -126.56,-0.3 -127.92,1.68 -129.14,3.67 -131,5.72 -134.01,7.83 -138.12,9.99 -142.48,12.13 -145.66,14.14 -146.88,16.02 -147.95,17.94 -152.05,20.21" fill="none" stroke="rgb(51, 19, 134)" stroke-width="2" stroke-linejoin="round" filter="url(#fuzzy)" /><polyline points="-79.64,-21.96 -82.89,-21.17 -83.58,-19.39 -84.74,-17.32 -87.39,-15.14 -91.41,-12.88 -95.86,-10.6 -99.54,-8.33 -101.72,-6.11 -102.41,-3.97 -102.28,-1.89 -102.25,0.15 -103,2.18 -104.75,4.23 -107.2,6.31 -109.81,8.41 -112.12,10.53 -113.9,12.65 -115.23,14.77 -116.32,16.89 -117.34,19.02 -118.31,21.15 -119.17,23.28 -119.89,25.37 -120.55,27.38 -121.26,29.3 -122.03,31.14 -122.57,32.95 -122.43,34.85 -121.17,36.97 -119.04,39.3 -119.35,41.34" fill="none" stroke="rgb(51, 19, 134)" stroke-width="2" stroke-linejoin="round" filter="url(#fuzzy)" /><polyline points="78.96,-23.88 82.13,-22.71 84.38,-21 87.97,-18.9 91.58,-16.68 94.25,-14.5 96.09,-12.37 97.77,-10.29 100.03,-8.21 103.11,-6.12 106.63,-4.01 109.93,-1.86 112.51,0.31 114.44,2.5 116.29,4.68 118.8,6.82 122.44,8.93 127.11,11.02 132.24,13.11 137.02,15.21 140.78,17.34 143.14,19.5 144.09,21.67 143.79,23.84 142.55,26 140.82,28.14 139.24,30.21 138.57,32.16 139.47,33.93 142.05,35.51 145.5,36.96 147.88,38.45 146.82,40.15 143.74,41.98" fill="none" stroke="rgb(51, 19, 134)" stroke-width="2" stroke-linejoin="round" filter="url(#fuzzy)" /><polyline points="76.61,-28.8 78.97,-26.21 79.96,-24.26 80.96,-22.41 81.96,-20.34 82.92,-18.08 83.88,-15.74 84.93,-13.45 86.13,-11.26 87.5,-9.18 89.05,-7.18 90.72,-5.2 92.44,-3.2 94.09,-1.15 95.51,0.95 96.61,3.1 97.32,5.29 97.7,7.5 97.85,9.71 97.96,11.91 98.15,14.09 98.47,16.24 98.85,18.38 99.14,20.54 99.24,22.74 99.15,24.95 98.99,27.13 98.83,29.23 98.59,31.25 98.01,33.28 97.04,35.33 96.92,37.25" fill="none" stroke="rgb(51, 19, 134)" stroke-width="2" stroke-linejoin="round" filter="url(#fuzzy)" /><polyline points="75.9,-29.27 77.67,-26.93 78.82,-24.85 79.89,-22.94 81,-20.99 82.14,-18.92 83.31,-16.79 84.53,-14.65 85.78,-12.53 86.96,-10.43 87.95,-8.34 88.68,-6.25 89.21,-4.13 89.69,-1.99 90.29,0.18 91.12,2.37 92.16,4.54 93.3,6.69 94.36,8.8 95.18,10.89 95.67,12.97 95.85,15.08 95.87,17.21 95.88,19.36 96,21.53 96.19,23.71 96.28,25.89 96.05,28.07 95.33,30.2 94.12,32.2 92.65,33.99 91.36,35.46 90.84,36.63 91.95,37.78" fill="none" stroke="rgb(51, 19, 134)" stroke-width="2" stroke-linejoin="round" filter="url(#fuzzy)" /><polyline points="73.01,-34.63 76.22,-32.28 80.03,-30.23 84.63,-28.31 90.07,-26.43 96.01,-24.56 101.52,-22.63 105.78,-20.57 108.62,-18.39 110.55,-16.14 112.33,-13.88 114.57,-11.7 117.6,-9.63 121.49,-7.64 125.97,-5.7 130.49,-3.75 134.48,-1.76 137.75,0.31 140.79,2.44 144.51,4.6 149.39,6.8 154.81,9.03 159.42,11.38 163.2,13.94 168.79,16.7" fill="none" stroke="rgb(51, 19, 134)" stroke-width="2" stroke-linejoin="round" filter="url(#fuzzy)" /><polyline points="71.83,-35.93 73.57,-34.27 75.28,-32.28 77.13,-30.3 79.15,-28.36 81.43,-26.46 84.07,-24.55 87.1,-22.58 90.37,-20.51 93.61,-18.33 96.55,-16.09 98.96,-13.86 100.76,-11.68 101.99,-9.59 102.7,-7.57 102.95,-5.59 102.8,-3.6 102.37,-1.58 101.89,0.5 101.7,2.63 102.14,4.81 103.4,7.03 105.51,9.28 108.2,11.53 110.93,13.74 113.01,15.82 114.01,17.65 114.33,19.27 114.48,21.04" fill="none" stroke="rgb(51, 19, 134)" stroke-width="2" stroke-linejoin="round" filter="url(#fuzzy)" /><polyline points="65.97,-43.03 66.58,-44.56 65.11,-46.28 63.1,-48 60.93,-49.68 58.74,-51.33 56.61,-52.92 54.56,-54.44 52.58,-55.84 50.67,-57.14 48.79,-58.35 46.89,-59.48 44.91,-60.55 42.83,-61.58 40.63,-62.56 38.38,-63.5 36.09,-64.38 33.82,-65.2 31.55,-65.97 29.25,-66.68 26.91,-67.35 24.5,-67.96 22.03,-68.52 19.46,-69.02 16.79,-69.47 14.03,-69.87 11.27,-70.21 8.66,-70.48 6.29,-70.65 3.93,-70.74 0.73,-70.72" fill="none" stroke="rgb(51, 19, 134)" stroke-width="2" stroke-linejoin="round" filter="url(#fuzzy)" /><polyline points="59.92,-49.48 66.31,-51.36 64.61,-53.19 60.19,-54.79 55.96,-56.17 52.7,-57.41 50.28,-58.55 48.32,-59.64 46.52,-60.68 44.72,-61.69 42.91,-62.67 41.09,-63.6 39.23,-64.47 37.28,-65.28 35.14,-66.03 32.8,-66.73 30.27,-67.39 27.62,-68 24.9,-68.55 22.14,-69.05 19.28,-69.49 16.29,-69.89 13.25,-70.24 10.4,-70.51 8.04,-70.69 6.26,-70.84" fill="none" stroke="rgb(51, 19, 134)" stroke-width="2" stroke-linejoin="round" filter="url(#fuzzy)" /><polyline points="58.37,-51.04 56.45,-52.46 54.91,-53.87 54.34,-55.1 54.18,-56.2 53.57,-57.29 52.09,-58.45 49.84,-59.67 47.18,-60.89 44.48,-62.05 41.91,-63.13 39.5,-64.11 37.17,-65.01 34.87,-65.83 32.54,-66.58 30.18,-67.26 27.78,-67.87 25.32,-68.4 22.8,-68.86 20.19,-69.26 17.48,-69.61 14.61,-69.92 11.56,-70.2 8.3,-70.44 4.85,-70.63 1.33,-70.77 -2.17,-70.83 -5.9,-70.76 -11.25,-70.45" fill="none" stroke="rgb(51, 19, 134)" stroke-width="2" stroke-linejoin="round" filter="url(#fuzzy)" /><polyline points="57.97,-51.28 60.77,-53.35 59.29,-54.97 57.91,-56.31 56.07,-57.51 53.48,-58.64 50.65,-59.71 48.19,-60.75 46.37,-61.76 45.02,-62.73 43.75,-63.66 42.22,-64.52 40.26,-65.33 37.88,-66.07 35.24,-66.77 32.49,-67.42 29.72,-68.02 26.9,-68.56 23.94,-69.05 20.81,-69.49 17.53,-69.86 14.22,-70.18 10.97,-70.43 7.7,-70.6 4.13,-70.7 -0.07,-70.73 -4.6,-70.74 -7.46,-70.78" fill="none" stroke="rgb(51, 19, 134)" stroke-width="2" stroke-linejoin="round" filter="url(#fuzzy)" /><polyline points="52.06,-55.54 52.85,-56.59 51,-57.68 48.81,-58.79 46.63,-59.86 44.44,-60.9 42.3,-61.9 40.32,-62.87 38.54,-63.79 36.86,-64.65 35.11,-65.44 33.16,-66.18 30.94,-66.86 28.48,-67.49 25.85,-68.07 23.11,-68.59 20.32,-69.06 17.48,-69.47 14.6,-69.81 11.67,-70.09 8.69,-70.3 5.65,-70.45 2.53,-70.53 -0.67,-70.55 -3.95,-70.52 -7.33,-70.42 -10.82,-70.26 -14.41,-70.04 -18.13,-69.74 -21.97,-69.36 -25.91,-68.9 -29.94,-68.36 -33.98,-67.76 -37.84,-67.14 -41.37,-66.52 -44.76,-65.88 -48.33,-65.07" fill="none" stroke="rgb(51, 19, 134)" stroke-width="2" stroke-linejoin="round" filter="url(#fuzzy)" /><polyline points="51.39,-56.13 50.73,-56.52 50.13,-57.29 49.25,-58.45 47.6,-59.77 45.14,-61.07 42.21,-62.27 39.19,-63.33 36.34,-64.28 33.74,-65.15 31.4,-65.95 29.27,-66.68 27.25,-67.34 25.23,-67.93 23.12,-68.44 20.84,-68.89 18.35,-69.28 15.66,-69.63 12.81,-69.92 9.82,-70.17 6.75,-70.38 3.63,-70.54 0.49,-70.63 -2.67,-70.65 -5.89,-70.61 -9.18,-70.49 -12.59,-70.29 -16.1,-70.03 -19.57,-69.71 -22.68,-69.36 -25.23,-69.04 -27.99,-68.84" fill="none" stroke="rgb(51, 19, 134)" stroke-width="2" stroke-linejoin="round" filter="url(#fuzzy)" /><polyline points="50.63,-56.6 50.72,-57.68 48.99,-58.79 46.86,-59.86 44.66,-60.88 42.54,-61.88 40.59,-62.85 38.92,-63.77 37.54,-64.63 36.42,-65.42 35.39,-66.15 34.19,-66.83 32.57,-67.47 30.34,-68.06 27.51,-68.6 24.24,-69.08 20.77,-69.51 17.34,-69.88 14.09,-70.2 10.99,-70.44 7.84,-70.61 4.31,-70.7 0.17,-70.73 -4.17,-70.74 -6.62,-70.78" fill="none" stroke="rgb(51, 19, 134)" stroke-width="2" stroke-linejoin="round" filter="url(#fuzzy)" /><polyline points="19.26,-68.82 18.84,-69.04 16.77,-69.42 14.11,-69.8 11.36,-70.11 8.71,-70.35 6.14,-70.51 3.58,-70.6 1,-70.62 -1.61,-70.59 -4.26,-70.5 -6.93,-70.35 -9.62,-70.14 -12.32,-69.86 -15.04,-69.5 -17.77,-69.07 -20.5,-68.56 -23.25,-68 -25.99,-67.37 -28.75,-66.69 -31.54,-65.96 -34.38,-65.16 -37.28,-64.31 -40.26,-63.39 -43.29,-62.42 -46.36,-61.38 -49.44,-60.3 -52.49,-59.18 -55.46,-58.04 -58.3,-56.88 -60.96,-55.69 -63.48,-54.46 -65.98,-53.14 -68.64,-51.69 -71.52,-50.09 -74.44,-48.52 -76.74,-47.58" fill="none" stroke="rgb(51, 19, 134)" stroke-width="2" stroke-linejoin="round" filter="url(#fuzzy)" /><polyline points="10.11,-70.19 7.29,-70.48 4.37,-70.65 1.58,-70.75 -1.08,-70.76 -3.67,-70.7 -6.24,-70.57 -8.79,-70.37 -11.3,-70.11 -13.75,-69.8 -16.13,-69.43 -18.49,-69.01 -20.85,-68.53 -23.27,-67.98 -25.74,-67.36 -28.25,-66.67 -30.76,-65.91 -33.22,-65.1 -35.62,-64.24 -37.98,-63.33 -40.32,-62.36 -42.66,-61.33 -45.06,-60.23 -47.54,-59.05 -50.1,-57.78 -52.64,-56.45 -55.02,-55.07 -57.32,-53.5 -60.22,-51.1" fill="none" stroke="rgb(51, 19, 134)" stroke-width="2" stroke-linejoin="round" filter="url(#fuzzy)" /><polyline points="5.76,-70.63 3.66,-70.73 0.83,-70.73 -1.94,-70.69 -4.55,-70.59 -7.09,-70.44 -9.63,-70.21 -12.21,-69.91 -14.83,-69.52 -17.52,-69.06 -20.27,-68.53 -23.08,-67.94 -25.92,-67.29 -28.77,-66.59 -31.61,-65.83 -34.42,-65.02 -37.21,-64.15 -39.98,-63.21 -42.73,-62.22 -45.48,-61.17 -48.21,-60.08 -50.91,-58.96 -53.58,-57.8 -56.2,-56.61 -58.77,-55.37 -61.31,-54.08 -63.82,-52.71 -66.29,-51.27 -68.72,-49.74 -71.11,-48.14 -73.5,-46.46 -75.94,-44.72 -78.45,-42.93 -80.98,-41.13 -83.46,-39.39 -85.75,-37.81 -87.27,-36.57" fill="none" stroke="rgb(51, 19, 134)" stroke-width="2" stroke-linejoin="round" filter="url(#fuzzy)" /><polyline points="4.49,-70.8 1.09,-70.82 -1.74,-70.83 -4.84,-70.76 -8.03,-70.61 -11.03,-70.4 -13.78,-70.13 -16.4,-69.81 -19.08,-69.45 -22,-69.03 -25.26,-68.55 -28.87,-68 -32.72,-67.37 -36.66,-66.68 -40.54,-65.93 -44.28,-65.12 -47.98,-64.26 -51.79,-63.35 -55.9,-62.39 -60.44,-61.37 -65.38,-60.28 -70.48,-59.1 -75.38,-57.83 -79.84,-56.52 -84.09,-55.34 -88.99,-54.47" fill="none" stroke="rgb(51, 19, 134)" stroke-width="2" stroke-linejoin="round" filter="url(#fuzzy)" />
    </g>
    
        <g id="pointNose">
          <g id="rightNose"><circle r="1.244" cx="14.309999999999999" cy="13.165999999999999" stroke="black" fill="none" stroke-width="1.0" filter="url(#fuzzy)" /><circle r="2.4459999999999997" cx="12.825999999999999" cy="12.526" stroke="black" fill="none" stroke-width="1.0" filter="url(#fuzzy)" /><circle r="2.894" cx="12.389999999999999" cy="15.433999999999997" stroke="black" fill="none" stroke-width="1.0" filter="url(#fuzzy)" /><circle r="2.824" cx="13.07" cy="12.613999999999999" stroke="black" fill="none" stroke-width="1.0" filter="url(#fuzzy)" /><circle r="2.178" cx="12.69" cy="15.701999999999998" stroke="black" fill="none" stroke-width="1.0" filter="url(#fuzzy)" /><circle r="1.37" cx="14.466000000000001" cy="13.581999999999999" stroke="black" fill="none" stroke-width="1.0" filter="url(#fuzzy)" /><circle r="1.758" cx="11.145999999999999" cy="14.341999999999999" stroke="black" fill="none" stroke-width="1.0" filter="url(#fuzzy)" /><circle r="2.16" cx="12.857999999999999" cy="14.777999999999999" stroke="black" fill="none" stroke-width="1.0" filter="url(#fuzzy)" /><circle r="2.448" cx="12.79" cy="13.177999999999999" stroke="black" fill="none" stroke-width="1.0" filter="url(#fuzzy)" /><circle r="2.332" cx="11.27" cy="15.918" stroke="black" fill="none" stroke-width="1.0" filter="url(#fuzzy)" /></g>
          <g id="leftNose"><circle r="2.1719999999999997" cx="-12.661999999999999" cy="19.358" stroke="black" fill="none" stroke-width="1.0" filter="url(#fuzzy)" /><circle r="2.63" cx="-12.682" cy="20.418" stroke="black" fill="none" stroke-width="1.0" filter="url(#fuzzy)" /><circle r="1.396" cx="-14.198" cy="18.63" stroke="black" fill="none" stroke-width="1.0" filter="url(#fuzzy)" /><circle r="2.5620000000000003" cx="-12.622" cy="20.954" stroke="black" fill="none" stroke-width="1.0" filter="url(#fuzzy)" /><circle r="2.606" cx="-12.358" cy="21.11" stroke="black" fill="none" stroke-width="1.0" filter="url(#fuzzy)" /><circle r="1.5819999999999999" cx="-11.722" cy="18.334" stroke="black" fill="none" stroke-width="1.0" filter="url(#fuzzy)" /><circle r="1.036" cx="-14.19" cy="21.15" stroke="black" fill="none" stroke-width="1.0" filter="url(#fuzzy)" /><circle r="2.3200000000000003" cx="-11.718" cy="18.817999999999998" stroke="black" fill="none" stroke-width="1.0" filter="url(#fuzzy)" /><circle r="1.38" cx="-13.906" cy="21.605999999999998" stroke="black" fill="none" stroke-width="1.0" filter="url(#fuzzy)" /><circle r="2.064" cx="-12.065999999999999" cy="18.413999999999998" stroke="black" fill="none" stroke-width="1.0" filter="url(#fuzzy)" /></g>
        </g>
      
    <g id="mouth">
      <polyline points="-52.95,33.43 -51.7,33.75 -50.45,34.08 -49.2,34.41 -47.94,34.75 -46.69,35.09 -45.44,35.43 -44.19,35.78 -42.94,36.12 -41.68,36.48 -40.43,36.83 -39.18,37.18 -37.93,37.54 -36.68,37.89 -35.43,38.25 -34.19,38.61 -32.94,38.96 -31.7,39.32 -30.46,39.67 -29.22,40.02 -27.98,40.37 -26.75,40.72 -25.52,41.06 -24.29,41.4 -23.06,41.73 -21.84,42.07 -20.62,42.39 -19.4,42.71 -18.19,43.03 -16.98,43.34 -15.77,43.65 -14.57,43.94 -13.37,44.23 -12.18,44.52 -10.99,44.79 -9.8,45.06 -8.62,45.32 -7.45,45.56 -6.28,45.8 -5.11,46.03 -3.96,46.25 -2.8,46.46 -1.66,46.66 -0.51,46.84 0.62,47.02 1.75,47.18 2.87,47.32 3.99,47.46 5.1,47.58 6.2,47.69 7.29,47.78 8.38,47.86 9.46,47.92 10.53,47.97 11.6,48 12.65,48.02 13.7,48.01 14.74,47.99 15.78,47.96 16.8,47.9 17.81,47.83 18.82,47.74 19.81,47.62 20.8,47.49 21.78,47.34 22.75,47.17 23.71,46.97 24.65,46.76 25.59,46.52 26.52,46.27 27.44,45.99 28.34,45.68 29.24,45.35 30.13,45 31,44.63 31.86,44.23 32.71,43.8 33.55,43.35 34.38,42.88 35.2,42.38 36,41.85 36.79,41.29 37.57,40.71 38.34,40.1 39.09,39.46 39.83,38.79 40.56,38.09 41.28,37.37 41.98,36.61 42.67,35.82 43.34,35.01 44,34.16 44.65,33.28 45.28,32.37 45.9,31.42 46.5,30.45 47.09,29.44 47.66,28.39 48.22,27.32 48.76,26.21 48.76,26.21 47.75,26.55 46.73,26.88 45.71,27.21 44.69,27.52 43.68,27.83 42.66,28.13 41.64,28.42 40.63,28.7 39.61,28.98 38.59,29.24 37.57,29.5 36.56,29.75 35.54,29.99 34.52,30.23 33.51,30.45 32.49,30.67 31.47,30.89 30.45,31.09 29.44,31.29 28.42,31.48 27.4,31.66 26.39,31.84 25.37,32.01 24.35,32.17 23.33,32.33 22.32,32.48 21.3,32.63 20.28,32.77 19.27,32.9 18.25,33.03 17.23,33.15 16.21,33.26 15.2,33.37 14.18,33.47 13.16,33.57 12.15,33.66 11.13,33.75 10.11,33.84 9.09,33.91 8.08,33.99 7.06,34.05 6.04,34.12 5.03,34.17 4.01,34.23 2.99,34.28 1.97,34.32 0.96,34.36 -0.06,34.4 -1.08,34.44 -2.09,34.46 -3.11,34.49 -4.13,34.51 -5.15,34.53 -6.16,34.55 -7.18,34.56 -8.2,34.57 -9.21,34.57 -10.23,34.57 -11.25,34.57 -12.27,34.57 -13.28,34.56 -14.3,34.55 -15.32,34.54 -16.33,34.53 -17.35,34.51 -18.37,34.49 -19.38,34.47 -20.4,34.45 -21.42,34.43 -22.44,34.4 -23.45,34.38 -24.47,34.35 -25.49,34.32 -26.5,34.29 -27.52,34.25 -28.54,34.22 -29.56,34.18 -30.57,34.15 -31.59,34.11 -32.61,34.07 -33.62,34.04 -34.64,34 -35.66,33.96 -36.68,33.92 -37.69,33.88 -38.71,33.84 -39.73,33.8 -40.74,33.76 -41.76,33.73 -42.78,33.69 -43.8,33.65 -44.81,33.61 -45.83,33.58 -46.85,33.54 -47.86,33.5 -48.88,33.47 -49.9,33.44 -50.92,33.41 -51.93,33.38" fill="rgb(102, 204, 131)" stroke="black" stroke-width="3" stroke-linejoin="round" filter="url(#fuzzy)" />
    </g>
  </svg>