<svg xmlns="http://www.w3.org/2000/svg" width="500" height="500" viewBox="-100 -100 200 200"><defs><clipPath id="c"><path d="m32.8 7-.4-.42-.44-.44-.47-.44-.52-.44-.55-.45-.58-.46-.61-.45-.64-.46-.68-.45-.7-.46-.72-.44-.75-.45-.77-.44-.78-.43-.81-.42-.92-.57-.94-.56-.97-.55-.99-.53-1.01-.5-1.03-.49-1.05-.46-1.06-.44-1.07-.41-1.07-.38-1.08-.36-1.09-.33-1.09-.3-1.08-.27-1.09-.24-1.08-.21-1.07-.18-1.06-.15-1.05-.12-1.04-.09-1.02-.06-1.01-.03h-.98l-.97.03-.95.05-.93.07-.9.11-.88.12-.85.15-.83.18-.8.19-.78.21-.74.23-.72.25-.69.26-.66.28-.64.29-.6.3-.58.31-.55.31-.52.33-.5.33-.47.33-.45.34-.42.33-.39.34-.38.34-.35.33-.33.33-.31.32-.3.31-.27.32-.26.31-.23.31-.22.3-.2.29-.19.29-.16.28-.16.28-.13.26-.12.26-.11.25-.09.24-.08.23L-19 7.8l.31-.11.33-.1.34-.11.35-.12.36-.11.37-.11.38-.11.39-.11.4-.11.41-.1.42-.1.43-.1.45-.1.45-.09.47-.09.48-.08.5-.08.5-.08.53-.07.53-.07.55-.05.57-.05.58-.04.59-.03.61-.01.63-.01.64.01.65.02.67.04.69.05.7.06.71.07.73.09.75.1.75.12.78.13.78.14.8.15.81.16.82.18.84.18.84.2.86.2.87.21.87.21.89.22.89.22.9.23.9.22.91.23.92.22.91.21.92.22.92.2.92.2.91.18.92.17.91.17.9.14.9.13.88.11.88.09.86.08.85.05.71.08.69.08.68.06.66.05.65.03.62.02h.61l.58-.01.56-.02.53-.05.51-.06.48-.07.44-.09.42-.11.38-.13"/></clipPath><clipPath id="b"><path d="m-31.09 8.69.56-.37.6-.38.64-.39.68-.4.7-.41.74-.41.76-.42.79-.42.81-.42.83-.43.85-.42.87-.42.88-.42.89-.42.91-.42 1.1-.52 1.12-.52 1.12-.51 1.13-.5 1.13-.49 1.14-.48 1.12-.47 1.13-.45 1.12-.43 1.1-.42 1.1-.39 1.09-.38 1.07-.35 1.05-.33 1.04-.3L-2-4.28l1-.26.98-.22.96-.21.93-.17.92-.15.88-.12.86-.09.84-.06.8-.04.79-.02.75.02.73.04.7.06.67.09.64.11.62.13.59.15.56.17.54.19.51.21.48.23.46.24.44.25.41.26.38.28.36.28.34.29.32.3.3.3.28.3.26.31.24.3.22.3.21.3.19.3.18.29.16.3.15.29.13.29.11.28.11.28.09.28.07.26.07.27.05.25.03.25.03.23.01.23-2.5 3.32-.38-.11-.38-.12-.39-.12-.41-.12-.41-.12-.43-.12-.43-.12-.45-.12-.46-.12-.46-.12-.48-.11-.49-.12-.5-.1-.51-.11-.53-.1-.53-.09-.55-.1-.56-.09-.58-.08-.58-.07-.61-.07-.61-.05-.63-.05-.64-.03-.65-.02h-.67l-.68.01-.69.02-.7.05-.72.05-.73.08-.73.09-.75.1-.76.13-.77.13-.78.16-.79.17-.8.18-.8.2-.82.22-.82.22-.83.24-.83.24-.84.26-.84.26-.85.27-.85.28-.86.28-.85.28-.86.27-.85.28-.86.28-.85.27-.85.26-.84.25-.84.24-.83.23-.83.22-.81.2-.81.18-.79.16-.78.15-.76.12-.75.09-.61.14-.6.12-.57.12-.56.1-.54.08-.52.07-.49.06-.47.04-.44.02-.41.01h-.38l-.34-.03-.31-.04-.27-.06-.24-.07"/></clipPath><filter id="a"><feTurbulence baseFrequency=".05" numOctaves="3" result="noise" type="noise"/><feDisplacementMap in="SourceGraphic" in2="noise" scale="2"/></filter></defs><rect width="100%" height="100%" x="-100" y="-100" fill="#B0E0E6"/><path fill="#F0F" stroke="#000" stroke-linejoin="round" stroke-width="1.667" d="M70.96 1.72 70.89.21l.08 3.53-.08-.1.13.28L70.84 6l-.05 3.49-.41 1.56.11.89-.07.19-.1.37-.15 2.03-.66 1.89.05.79-.62 2.29.14.22-.65 2.08-.19 1.48-.32 1.3-.22 1.4-.62 1.86-.27.23.79-.4-.97 2.79-.53 1.47-.9 1.86-.56 1.84-.52 1.84-.42 1.08.04-.2-1 2.59-.1.63-.94 2 .39-1.17-.74 1.13-.96 2.13.75-.88-2.05 3.4.35-.23-1.98 3.59-.63 1-.06-.37-.79 1.94-1.1.67-.53 1.73-.07.06-.31.92-.97 1.35-1.61.83-.89 1.22-1.14 1.79.14.61-1.02.18.31.16-2.01 1.75-.24.32-2.49 3.2 1.25-1.63-1.98 2.36-.81-.15-.78 1.06-1.43 1.28.38-.28-1.33 1.42-1.45 1.3-.19.16-2.58 1.71-.83.43-.63.58-.59.48-1.39.86.48-.7-2.11 1.72-1.16.38.24-.03-2.03.76-.64.43-3.01 1.12 1.08-.16-2.16.74-.84.51-.4.48.48-.61-3.01 1.44-1.38.19-.82.29-1.48.55-1.46.19-1.31.21 1.41-.06-1.79.46-.73.16-1.15-.01-2.1.4-.32-.27-3.72.68.41-.15-.12.06-1.74.33-.32-.13-1.91-.16-1.42-.12-.14.07-1.6-.01-2.23-.17-.23.1-1.97-.39-1.07.22.56-.16-3.23-.27.57.05-1.77-.72-2.09-.39-.35.11-1.8-.85.52.12-2.18-.63 1.39.53-3.84-1.24-1.29-.54 1.12.42-1.02-.36-2.23-.74-1.81-1.04-1.25-.44 1.16.52-3.69-1.94.28.26-.45-.33.35.03-2.89-1.74.18-.22-2.1-.98.98.54-3.25-2.14-.44-.73-.46-.03-2.27-1.77.49.3-2.47-2.43.03.51-1.12-1.43-.43.02-.76-1.4.28.72-3.09-3.07-1.14-1.3-.69-.88.26.74.25-.12-1.61-2.06-.82-.74-1-1.14-.23-1.05-1.34-1.77.8 1.15-2.96-4.06-.22.24.18-.47-1.4-1.71-.24-.41-1.09-1.7-.16-.55-.73-2.3-.67-.26-.17-.84.11-.14-1.74-2.64-.44-2.05-.34-.63-.06.22-.97-2.07-.65-1.13-.28-1.16-.46-1.73-.7-1.36-.84-1.93.02-.55-.21-.99-1.11-3.64-.09-.4-.04-.44-.1-1.05-.73-2.6.37 1.81-.67-3.89-.26-.14-.37-1.96-.28-2.22-.33-1.81.25.44-.5-2.55v-1.52l-.09 1.01.06-3.57-.16-1.1-.12-2.33-.21-.72.27 1.15-.34-3.05.01-2.89-.07-1.11.31-.22-.2-2.59-.02-.44.41-1.45-.1-.71.43-2.34.18-1.34-.16-.16-.05-1.18.25-.94.45-2.81.33-.52-.01-1.4.37-2.19.56-1.93.23-1.73.03-.02.15-.58.22-1.84.36-.16.11-1.48 1.47-3.15.08-.74.51-1.82-.23-.19 1.31-2.65.53-1.95-.81 2.04.87-2.18 1.03-1.57.46-2.03-.06.76 1.02-2.79 1.43-2.55.49-.39.2-1.16.21.24.44-.93.54-1.32.85-1.42.62-.47.32-1.52.26.06 1.99-3.4-.13-.08 1.55-1.62.26-.38.22-.19 1-1.02-.03-.27 1-1.2 2.85-2.62-1 .11 2.27-2.33 1.27-.57.11-.07-.51.05 2.14-1.99.29-.26.5-.37 2.23-1.78.42-.83.72-.76 2.09-1.28 1.22-.39-1.26.57 3.76-2.73-.87.19.22.35 1.62-1.01-.04-.14 1.55-1.14 2.75-1.22 1.39-.27.09-.36.34-.6 2.17-.86 2.24-.36-2 .24 3.51-1.31 1.29-.31.31-.19 1.66-.38 1.06-.2-1.64.31 2.29-.41 1.42-.4.18-.27.98-.44 3.64-.29.77-.08-.32-.13 2.05-.42-1.73.39 1.93-.22 1.44-.08 2.88-.35.7.05 1.97.34.53-.32 1.5.01h-.76l1.64.25.61-.04 1.08.14 3.58.62-.99-.15 1.79.14-.76-.24 2.71.7 1.66.57.38.02.64.15 2.41.14.35.63 1.54.13 2.04 1.02.62.24.24-.04.23-.05 2.66 1.27-.97-.47.69.54 3.95 1.77.45.62-1.64-1.22 3.87 1.99-1.06-.22.62.47 2.84 1.2 1.06.93.91.54.89.66.55.61 2.77 2.13-.16.32.47.19-.39-.61 1.84 1.75.16.87 2.6 1.54.03.38.23.22 1.98 2.06-.26-.44 1.51 1.68-.32.05.69.67 2.03 1.84.05.64 1.55 1.69-.15-.46 1.82 2.4-.29-.47 1.19 2.03.22.36 1.09 1.31.53 1.05 1.86 2.9.48 1.2-.07-.4.98 2.04.03-.35.78 1.73-.19-.03 2.26 3.53.25 1.58.99 2-.73-.69.83 1.19.49 1.1.21 2.06.38.99.42.45 1.12 1.73-.04 1.25.56.91.05.11.4 2.1.47 1.9.08 1.23.24-.37.65 4.79-.37-2.09 1.16 3.69-.01 1.05.25 2.49.29.54.07.07.49 4.23-.38-.35.05.07.22 2.79.29 1.02-.12 1.9.21.09.06 1.87.13-.45-.13 5.21-.07-1.51" filter="url(#a)"/><path fill="#fff" d="m-31.09 8.69.56-.37.6-.38.64-.39.68-.4.7-.41.74-.41.76-.42.79-.42.81-.42.83-.43.85-.42.87-.42.88-.42.89-.42.91-.42 1.1-.52 1.12-.52 1.12-.51 1.13-.5 1.13-.49 1.14-.48 1.12-.47 1.13-.45 1.12-.43 1.1-.42 1.1-.39 1.09-.38 1.07-.35 1.05-.33 1.04-.3L-2-4.28l1-.26.98-.22.96-.21.93-.17.92-.15.88-.12.86-.09.84-.06.8-.04.79-.02.75.02.73.04.7.06.67.09.64.11.62.13.59.15.56.17.54.19.51.21.48.23.46.24.44.25.41.26.38.28.36.28.34.29.32.3.3.3.28.3.26.31.24.3.22.3.21.3.19.3.18.29.16.3.15.29.13.29.11.28.11.28.09.28.07.26.07.27.05.25.03.25.03.23.01.23-2.5 3.32-.38-.11-.38-.12-.39-.12-.41-.12-.41-.12-.43-.12-.43-.12-.45-.12-.46-.12-.46-.12-.48-.11-.49-.12-.5-.1-.51-.11-.53-.1-.53-.09-.55-.1-.56-.09-.58-.08-.58-.07-.61-.07-.61-.05-.63-.05-.64-.03-.65-.02h-.67l-.68.01-.69.02-.7.05-.72.05-.73.08-.73.09-.75.1-.76.13-.77.13-.78.16-.79.17-.8.18-.8.2-.82.22-.82.22-.83.24-.83.24-.84.26-.84.26-.85.27-.85.28-.86.28-.85.28-.86.27-.85.28-.86.28-.85.27-.85.26-.84.25-.84.24-.83.23-.83.22-.81.2-.81.18-.79.16-.78.15-.76.12-.75.09-.61.14-.6.12-.57.12-.56.1-.54.08-.52.07-.49.06-.47.04-.44.02-.41.01h-.38l-.34-.03-.31-.04-.27-.06-.24-.07" filter="url(#a)" transform="translate(41.03 -26.76)"/><path fill="#fff" d="m32.8 7-.4-.42-.44-.44-.47-.44-.52-.44-.55-.45-.58-.46-.61-.45-.64-.46-.68-.45-.7-.46-.72-.44-.75-.45-.77-.44-.78-.43-.81-.42-.92-.57-.94-.56-.97-.55-.99-.53-1.01-.5-1.03-.49-1.05-.46-1.06-.44-1.07-.41-1.07-.38-1.08-.36-1.09-.33-1.09-.3-1.08-.27-1.09-.24-1.08-.21-1.07-.18-1.06-.15-1.05-.12-1.04-.09-1.02-.06-1.01-.03h-.98l-.97.03-.95.05-.93.07-.9.11-.88.12-.85.15-.83.18-.8.19-.78.21-.74.23-.72.25-.69.26-.66.28-.64.29-.6.3-.58.31-.55.31-.52.33-.5.33-.47.33-.45.34-.42.33-.39.34-.38.34-.35.33-.33.33-.31.32-.3.31-.27.32-.26.31-.23.31-.22.3-.2.29-.19.29-.16.28-.16.28-.13.26-.12.26-.11.25-.09.24-.08.23L-19 7.8l.31-.11.33-.1.34-.11.35-.12.36-.11.37-.11.38-.11.39-.11.4-.11.41-.1.42-.1.43-.1.45-.1.45-.09.47-.09.48-.08.5-.08.5-.08.53-.07.53-.07.55-.05.57-.05.58-.04.59-.03.61-.01.63-.01.64.01.65.02.67.04.69.05.7.06.71.07.73.09.75.1.75.12.78.13.78.14.8.15.81.16.82.18.84.18.84.2.86.2.87.21.87.21.89.22.89.22.9.23.9.22.91.23.92.22.91.21.92.22.92.2.92.2.91.18.92.17.91.17.9.14.9.13.88.11.88.09.86.08.85.05.71.08.69.08.68.06.66.05.65.03.62.02h.61l.58-.01.56-.02.53-.05.51-.06.48-.07.44-.09.42-.11.38-.13" filter="url(#a)" transform="translate(-39.92 -23.17)"/><g fill="none" stroke="#000" transform="translate(41.03 -26.76)"><path stroke-linejoin="round" stroke-width="1.667" d="m-33.84 11.49-.01-.18.07-.21.13-.23.19-.26.26-.27.32-.3.37-.31.43-.33.47-.35.52-.36.56-.37.6-.38.64-.39.68-.4.7-.41.74-.41.76-.42.79-.42.81-.42.83-.43.85-.42.87-.42.88-.42.89-.42.91-.42 1.1-.52 1.12-.52 1.12-.51 1.13-.5 1.13-.49 1.14-.48 1.12-.47 1.13-.45 1.12-.43 1.1-.42 1.1-.39 1.09-.38 1.07-.35 1.05-.33 1.04-.3L-2-4.28l1-.26.98-.22.96-.21.93-.17.92-.15.88-.12.86-.09.84-.06.8-.04.79-.02.75.02.73.04.7.06.67.09.64.11.62.13.59.15.56.17.54.19.51.21.48.23.46.24.44.25.41.26.38.28.36.28.34.29.32.3.3.3.28.3.26.31.24.3.22.3.21.3.19.3.18.29.16.3.15.29.13.29.11.28.11.28.09.28.07.26.07.27.05.25.03.25.03.23.01.23.01.23-.01.21-.02.2-.03.19-.03.18-.05.17-.06.16-.07.15-.07.14-.08.13" filter="url(#a)"/><path stroke-linejoin="round" stroke-width="2.222" d="m-33.27 10.23-.29.25-.23.22-.17.21-.11.19-.05.18.01.16.05.14.1.13.15.11.19.09.24.07.27.06.31.04.34.03h.38l.41-.01.44-.02.47-.04.49-.06.52-.07.54-.08.56-.1.57-.12.6-.12.61-.14.75-.09.76-.12.78-.15.79-.16.81-.18.81-.2.83-.22.83-.23.84-.24.84-.25.85-.26.85-.27.86-.28.85-.28.86-.27.85-.28.86-.28.85-.28.85-.27.84-.26.84-.26.83-.24.83-.24.82-.22.82-.22.8-.2.8-.18.79-.17.78-.16.77-.13.76-.13.75-.1.73-.09.73-.08.72-.05.7-.05.69-.02.68-.01h.67l.65.02.64.03.63.05.61.05.61.07.58.07.58.08.56.09.55.1.53.09.53.1.51.11.5.1.49.12.48.11.46.12.46.12.45.12.43.12.43.12.41.12.41.12.39.12.38.12.38.11.36.11.35.11.34.1.33.1.32.09.31.09.3.09.29.07.29.08.27.06" filter="url(#a)"/><circle cx="9.245" cy=".583" r="4.708" clip-path="url(#b)" filter="url(#a)"/><circle cx="11.595" cy="2.773" r="3.32" clip-path="url(#b)" filter="url(#a)"/><circle cx="9.21" cy=".058" r="3.802" clip-path="url(#b)" filter="url(#a)"/><circle cx="8.73" cy="1.573" r="3.772" clip-path="url(#b)" filter="url(#a)"/><circle cx="9.445" cy="1.043" r="3.338" clip-path="url(#b)" filter="url(#a)"/><circle cx="11.25" cy="1.263" r="4.53" clip-path="url(#b)" filter="url(#a)"/><circle cx="9.02" cy="1.288" r="3.282" clip-path="url(#b)" filter="url(#a)"/><circle cx="10.395" cy="3.848" r="4.226" clip-path="url(#b)" filter="url(#a)"/><circle cx="7.775" cy="2.213" r="3.246" clip-path="url(#b)" filter="url(#a)"/><circle cx="10.86" cy="2.338" r="3.314" clip-path="url(#b)" filter="url(#a)"/></g><g fill="none" stroke="#000" transform="translate(-39.92 -23.17)"><path stroke-linejoin="round" stroke-width="2.222" d="m34.13 10.25.11-.22.06-.24-.01-.27-.06-.3-.11-.32-.17-.35-.22-.36-.26-.38-.31-.4L32.8 7l-.4-.42-.44-.44-.47-.44-.52-.44-.55-.45-.58-.46-.61-.45-.64-.46-.68-.45-.7-.46-.72-.44-.75-.45-.77-.44-.78-.43-.81-.42-.92-.57-.94-.56-.97-.55-.99-.53-1.01-.5-1.03-.49-1.05-.46-1.06-.44-1.07-.41-1.07-.38-1.08-.36-1.09-.33-1.09-.3-1.08-.27-1.09-.24-1.08-.21-1.07-.18-1.06-.15-1.05-.12-1.04-.09-1.02-.06-1.01-.03h-.98l-.97.03-.95.05-.93.07-.9.11-.88.12-.85.15-.83.18-.8.19-.78.21-.74.23-.72.25-.69.26-.66.28-.64.29-.6.3-.58.31-.55.31-.52.33-.5.33-.47.33-.45.34-.42.33-.39.34-.38.34-.35.33-.33.33-.31.32-.3.31-.27.32-.26.31-.23.31-.22.3-.2.29-.19.29-.16.28-.16.28-.13.26-.12.26-.11.25-.09.24-.08.23-.07.22-.05.21-.04.2-.02.19-.02.18-.01.17.01.16.01.15.03.14.04.13" filter="url(#a)"/><path stroke-linejoin="round" stroke-width="2.222" d="m34.45 8.76.1.31.04.3-.02.27-.07.26-.12.23-.17.22-.21.21-.26.18-.3.16-.34.15-.38.13-.42.11-.44.09-.48.07-.51.06-.53.05-.56.02-.58.01h-.61l-.62-.02-.65-.03-.66-.05-.68-.06-.69-.08-.71-.08-.85-.05-.86-.08-.88-.09-.88-.11-.9-.13-.9-.14-.91-.17-.92-.17-.91-.18-.92-.2-.92-.2-.92-.22-.91-.21-.92-.22-.91-.23-.9-.22-.9-.23-.89-.22-.89-.22-.87-.21-.87-.21-.86-.2-.84-.2-.84-.18-.82-.18-.81-.16-.8-.15L0 6.35l-.78-.13-.75-.12-.75-.1-.73-.09-.71-.07-.7-.06-.69-.05-.67-.04-.65-.02-.64-.01-.63.01-.61.01-.59.03-.58.04-.57.05-.55.05-.53.07-.53.07-.5.08-.5.08-.48.08-.47.09-.45.09-.45.1-.43.1-.42.1-.41.1-.4.11-.39.11-.38.11-.37.11-.36.11-.35.12-.34.11-.33.1-.31.11-.31.11-.3.1-.29.1-.28.1-.27.09-.27.09-.25.09-.25.08-.23.08-.23.08" filter="url(#a)"/><circle cx="12.409" cy="3.825" r="3.21" clip-path="url(#c)" filter="url(#a)"/><circle cx="12.584" cy="7.01" r="4.902" clip-path="url(#c)" filter="url(#a)"/><circle cx="9.619" cy="7.435" r="4.156" clip-path="url(#c)" filter="url(#a)"/><circle cx="13.404" cy="6.55" r="3.524" clip-path="url(#c)" filter="url(#a)"/><circle cx="13.414" cy="5.305" r="5" clip-path="url(#c)" filter="url(#a)"/><circle cx="9.429" cy="7.745" r="3.744" clip-path="url(#c)" filter="url(#a)"/><circle cx="9.464" cy="3.31" r="3.306" clip-path="url(#c)" filter="url(#a)"/><circle cx="11.949" cy="5.39" r="4.52" clip-path="url(#c)" filter="url(#a)"/><circle cx="10.164" cy="3.405" r="3.216" clip-path="url(#c)" filter="url(#a)"/><circle cx="9.269" cy="4.315" r="4.764" clip-path="url(#c)" filter="url(#a)"/></g><g fill="none" stroke="#228B22" stroke-linejoin="round" stroke-width="2"><path d="m-38.46-73.77 1.62-.92 1.12-.65 1-.68.98-.69.93-.64.9-.59.9-.55.91-.53.86-.48.72-.4.47-.24.14-.07-.18.12-.45.28-.71.44-1 .62-1.4.9-1.87 1.28m64.77-2.18-.29.08.76.5 1.14.69 1.12.7.99.68.81.63.64.56.43.44.21.31v.17l-.17.07-.34-.01-.5-.1-.72-.21-.98-.36-1.3-.53-1.66-.73-2.01-.93-2.37-1.1-2.73-1.3-3.1-1.52-3.55-1.76-3.93-2.01" filter="url(#a)"/><path d="m17.22-85.18.76.5 1.18.47 1.13.42.94.35.79.29.7.29.64.29.59.3.48.29.34.24.13.18-.11.1h-.38l-.62-.07-.88-.16-1.12-.24-1.41-.33-1.76-.44-2.22-.59-2.72-.75-3.24-.93-3.67-1.12" filter="url(#a)"/><path d="m-7.72-86.75.32-.13h.76l1.13.1 1.57.15 1.94.2 2.15.24 2.19.29 2.14.33 2.07.38 1.98.42 1.94.43 1.92.45 1.89.43 1.85.42 1.75.37 1.61.34 1.44.28 1.28.25 1.15.23 1.04.22.92.2.7.15.17-.08m-59.49 4.02 1.26-.78 1.4-.77 1.81-.86 2.01-.85 2.03-.81 1.97-.76 1.88-.71 1.81-.68 1.69-.63 1.56-.58 1.44-.52 1.34-.47 1.21-.39 1-.29.6-.17-.15-.08m66.16 32 .74 1.38.6 1.31.19.83-.19.41-.49.14-.76-.02-1.01-.12-1.28-.23-1.59-.4-1.94-.66-2.34-.99-2.77-1.36-3.22-1.72-3.7-2.06-4.21-2.37-4.74-2.69-5.24-3.03-5.69-3.4-6.04-3.78-6.31-4.18-6.64-4.55" filter="url(#a)"/><path d="m-16.42-84.97.62.01.94.17 1.64.23 2.17.29 2.6.4 2.92.53 3.14.66 3.26.81 3.32.93 3.39 1.05 3.51 1.12 3.68 1.19 3.83 1.21 3.95 1.24 3.99 1.26 3.95 1.3 3.87 1.36 3.75 1.38 3.54 1.3" filter="url(#a)"/><path d="m58.59-49.26.14.18.22.47.11.42-.02.36-.16.3-.39.12-.71-.22-1.09-.69-1.5-1.21-1.88-1.69-2.24-2.13-2.62-2.57-3.04-3.05-3.52-3.62-4.05-4.22-4.52-4.8-4.95-5.36m.65-2.55-.07-.22 1.01.57 1.2.79 1.34.89 1.45.98 1.46 1 1.36.97 1.2.9 1 .8.76.61.47.39.2.15-.01-.03-.14-.12-.29-.24-.75-.67m-51.34-13.63 2.56-.19 1.52-.08 1.2-.01 1.24.05 1.45.09 1.75.11 1.98.14 2.13.15 2.14.18 2.05.19 1.9.21 1.73.21 1.57.19 1.45.18 1.36.16 1.29.16 1.18.16 1 .14.75.09.36-.01-.16-.14" filter="url(#a)"/><path d="m-36.41-74.87 2.35-1.59 1.38-.47 1.51-.13 1.96-.08 2.45-.08 2.87-.06 3.17-.01 3.39.09 3.53.19 3.69.29 3.83.4 3.99.49 4.12.56 4.22.62 4.29.68 4.32.72 4.3.77 4.29.81 4.32.86 4.4.91 4.47.93 4.37.86M-8.04-86.88l1.08-.17h.81l1.27-.01 1.67-.02 1.82.01 1.79.03 1.66.06 1.5.08 1.33.1 1.21.09 1.11.11 1.03.1.92.1.77.08.57.06.33.01.08-.01-.13-.04-.34-.05-.62-.08-1.05-.17-1.74-.29m56.59 47.73-.22-.05.2.65.28.9.26.88.2.73.14.56.04.35-.09.16-.24-.05-.4-.26-.55-.46-.71-.69-.86-.94-1.02-1.24-1.2-1.56-1.4-1.91-1.63-2.31-1.88-2.75-2.13-3.22-2.37-3.69-2.53-4.11-2.6-4.4-2.57-4.69" filter="url(#a)"/><path d="m-25.6-81.8 1.84-.63 1.24-.43 1.06-.41 1.06-.4.99-.35.83-.26.64-.17.43-.08h.27l.15.06.02.13-.1.2-.26.28-.47.39-.74.5-1.04.62-1.4.77-1.73.92-2.06 1.08-2.38 1.25-2.76 1.46-3.21 1.73-3.78 2.08m32.65-14.15 2.23-.15 1.85.08 1.78.16 1.72.2 1.67.22 1.65.24 1.71.27 1.78.3 1.82.32 1.72.31 1.47.26 1.08.15.6.02.25-.09" filter="url(#a)"/><path d="m-18.08-84.59 1.22-.27.67-.15.59-.14.72-.18.82-.21.85-.2.8-.16.64-.08h.39l.1.1-.19.2-.43.3-.65.41-.86.52-1.11.63-1.41.74-1.75.83-2.13.92-2.52 1.03-2.95 1.18-3.36 1.36-3.66 1.41m82.59 15.08.74.97-.18.47-.92.24-1.66.03-2.44-.21-3.23-.42-4.04-.64-4.91-.9-5.86-1.23-6.87-1.64-7.95-2.09-9.11-2.54-10.4-2.86-11.91-3.03m81.08 33.96.13 1.02-.88.24-1.61.05-2.35-.1-3.14-.35-3.98-.68-4.87-1.07-5.8-1.46-6.79-1.85-7.84-2.2-8.9-2.52-9.98-2.85-11.05-3.19-12.13-3.64-13.28-4.07" filter="url(#a)"/><path d="m-17-84.86 1.75-.34 1.09-.24.84-.12.7.02.47.18.09.35-.33.56-.72.76-1.04.97-1.28 1.18-1.5 1.38-1.79 1.56-2.14 1.77-2.62 2-3.17 2.27-3.76 2.6-4.34 2.97-4.86 3.34-5.31 3.65-5.7 3.85" filter="url(#a)"/><path d="m21.15-83.4.29.17-.11.2-.42.34-.8.48-1.24.6-1.73.71-2.32.79-3.03.83-3.83.87-4.66.93-5.5 1.04-6.34 1.22-7.2 1.38-8.11 1.5-9.03 1.43" filter="url(#a)"/><path d="m-41.83-70.4 1.95-1.27 2.23-.72 2.9-.35 3.58-.05 4.18.21 4.73.4 5.23.55 5.73.69 6.22.84 6.73.96 7.27 1.06 7.78 1.15 8.2 1.25 8.46 1.42 8.54 1.58M30.19-78.97l1.18.66 1.45.81 1.26.76 1.01.7.83.64.65.58.43.45.2.3-.03.15-.23.03-.4-.06-.58-.15-.82-.27-1.12-.45-1.48-.65-1.89-.88-2.29-1.09-2.68-1.3-3.07-1.52-3.52-1.77-4.22-2.11" filter="url(#a)"/><path d="m14.81-85.32 1.71.26 1.23.38 1.07.39.87.35.61.27.39.22.22.19.07.2-.09.2-.29.2-.55.17-.85.11-1.19.05-1.5-.02-1.79-.08-2.06-.14-2.38-.18-2.81-.24-3.38-.3-4-.38-4.51-.44-4.86-.52m37.85 4.49.15.24.46.26.81.46.98.6 1.11.67 1.15.72 1.12.72 1.01.69.86.62.68.52.45.39.22.24v.1l-.21-.03-.37-.15-.54-.25-.75-.38-1-.56-1.34-.78-1.69-1.03-2.01-1.26-2.28-1.45-2.61-1.66" filter="url(#a)"/><path d="m-1.47-87.56 1.14.22 1.6.42 1.75.59 1.9.77 2.14 1 2.44 1.2 2.75 1.39 3.01 1.53 3.18 1.63 3.24 1.68 3.26 1.71 3.3 1.74 3.34 1.79 3.38 1.84 3.37 1.86 3.3 1.85 3.18 1.83 2.98 1.79" filter="url(#a)"/><path d="m30.19-78.97 1.15.65 1.38.77 1.11.7.82.62.56.56.33.47.05.34-.25.19-.54.04-.8-.09-1.07-.18-1.33-.28-1.63-.4-1.96-.55-2.32-.73-2.69-.91-3.07-1.11-3.51-1.29-4.05-1.5-4.66-1.7-5.41-1.88" filter="url(#a)"/><path d="m-13.29-85.67.77-.24 1.77-.14 2.16-.01 2.19.13 2.17.24 2.24.34 2.43.41 2.67.44 2.9.46 3.01.45 3 .45 2.84.45 2.61.43 2.38.41 2.21.39 2.09.4 2.04.45m27.03 22.5.7 1.42.19.99-.15.96-.52.94-.98.81-1.51.58-2.07.35-2.6.17-3.13.05-3.63.01-4.13-.02-4.66-.09-5.22-.23-5.81-.44-6.41-.69-7.03-.92-7.66-1.1-8.32-1.18-9.05-1.2-9.8-1.19L-39.24-60" filter="url(#a)"/><path d="m-7.72-86.75.35-.1.85.06 1.27.22 1.78.3 2.2.39 2.46.47 2.56.54 2.55.62 2.51.69 2.46.75 2.46.79 2.47.83 2.51.85 2.51.84 2.46.81 2.36.76 2.24.73 2.18.74 2.18.81 2.13.83 1.75.56" filter="url(#a)"/><path d="m50.29-61.27 5.55 9.23-.33.71-2.22-2.39-3.32-2.16-5.82-2.02-8.64-2.24-10.2-2.14-10.01-1.57-8.38-.85-5.83-.2-3 .3-1 .6-.72.55-1.65.08-1.43-.65 2.48-1.13 9.76-.73 15.71.86 14.29 2.75 3.03.43-24.39-23.63" filter="url(#a)"/><path d="m39.83-72.43-8.3 20.02-15.9 2.66-5.73-3.26 2.58-3.59 7.59-1.79 8.22-.83 5.5-1.18 2.08-1.48-.43-.77-2.4.51-4.77 1.31-6.91 1.23-6.95.46-4.4-1.14-2.5-3.86-7.26-5.55-38.71-4.08" filter="url(#a)"/><path d="m-46.9-64.97 49.4-6.98 14.39 1.63-6.02 2.1-9.2.7-3.23-.83L1.4-70.1l5.12-1.99 3.51-1.82.5-1.47-1.54-1.09-1.54-.66.21-.11 2.76.75 5.1 1.85 5.96 2.69 3.79 2.3-1.79.28-5.91-1.03 4.68 5.73 44.09 32.34" filter="url(#a)"/><path d="M58.59-49.26 5.58-65.25l-18.77-2.92-5.37 1.42 6.13 1.08H-.52l10.38-.72 4.69-.96-.68-.71-3.09-.11-2.82.57-1.87.88-1.94.56-2.99-.32-3.4-1.37-1.54-2.06 2.65-2.08 7.37-1.29 10.37.21 10.7 2.21L36.32-67l4.99 2.76-5.03-4.86-22.49-16.39" filter="url(#a)"/><path d="m-27.42-80.57-2.62 9.56 19.32 2.65 17.64-.52 9.29-1.66 3.24-.54 1.02 1.2.92 2.01.55 1.49-1.32.32-4.3-.61-7.42-.86-10.07-.57-11.85-.1-11.49.28-6.87.1 2.15-1.74 8.56-5.33-12.63-2.17" filter="url(#a)"/><path d="M50.24-61.91 31.86-73.32l-6.22-3.3-6.69-2.87-5.07-1.58-2.24.94-.34 3.6.52 5.27.7 5.11.1 2.93-1.14-.46-1.57-3.51.18-4.59 2.88-2.79 2.49 1.3-6.86 4.36-47.06-4.86" filter="url(#a)"/><path d="M5.8-87.13.54-84.22l-7.4 3.65.52 2.32 3.39.99 2.13.45.85.53 1.31.98 2.63 1.62 3.2 2.21 2.39 2.4.93 2.03.09 1.18.44.2 1.42-.68 1.78-1.34.57-1.86-2.17-2.35-5.38-2.71-7.79-2.51-8.49-1.41-6.73-.03-.74-.19 11.62-3.12 22.11-3.32" filter="url(#a)"/><path d="m39.83-72.43-25.65-2.39-10.35 1.29 2.23.22 1.54-.71-3.45-.78-5.78.07-3.85 1.24.57 1.99 4.7 1.88 6.57 1.03 5.68-.01 3.02-.72.17-.88-1.53-.64-1.63-.3-.64.07.43.67 1.01 1.84 1.35 3.45 1.82 4.38.86 2.68-6.7-2.66-23.47-8.27-25.91-4.03" filter="url(#a)"/><path d="M60.31-46.24 11.38-64.78l-22.51.53.95 3.43 11.79 2.78 13.77 1.5 10.74-.4 5.08-2.7-1.13-4.44-5.63-4.7-6.92-3.31-4.96-1-1.35 1.08 1.2 2.03.74 1.82-2.35 1.37-5.2 1.93-5.25 3.08-5.04 1.42-12.37-6.31-15.59-10.93" filter="url(#a)"/><path d="M66.34-32.33 16.54-62.9l-19.41-7.46-6.35-1.82-1.64-.84.62-.44 1.81.07 2.33.58 2.67 1.15 3.26 1.82 4.09 2.27 4.61 1.86 4.06.32 2.36-1.95.28-3.85-1.03-4.32-1.01-2.95-.18-.32.66 2.42 1.54 3.83 2.6 2.23 3.01-3.02 16.24-1.24" filter="url(#a)"/><path d="m-16.42-84.97 25.7 3.08 4.9 1.52-1.3.87 1.18 2.15 5.11 3.42 6.33 3.4 4.03 2.14-.25.46-4.38-.73-6.83-1.04-7.19-.62-5.95-.01-3.96.37-1.9.3-.12-.08 1.41-.54 2.71-.85 3.38-1 2.89-1.09 1.75-.8 2.04 1.03 4.19 5.23-1.88 6.95-48.74-16.25" filter="url(#a)"/><path d="M24.9-81.98 20.14-69.9l-18.96.66-6 1.06 4.21 1.77 5.23.12.27-2.07-5.44-2.97-8.63-2.34-8.43-.97-5.41.43-.56 1.58 4.96 2.58 9.67 3.46 11.86 3.97 10.37 3.53 6.17 1.84 2.63-.58 2.98-2.54 5.12-3.86 2.14-6.63 4.74-3.7" filter="url(#a)"/><path d="M-18.39-84.4 4.44-70.62l2.92 4.51 2.32-1.82-2.26-3.68-6.15-2.34-6.14-.22-3.23 1.05.16 1.37 2.74 1.28 4.49 1.16 5.7.81 5.99.19 4.65-.2 1.37.08-4.2-.6-13.79-6.14L-17-84.86" filter="url(#a)"/><path d="M39.75-72.53 10.82-62.02l9.66 2.26 6.33-3.42-.64-2.79-3.61-.86-2.72-.13-.16-.22 1.72-.05 1.79.46.82.57 1.07-.1 4.01-.55 6.94.18 2.07-.99-20.53-16.89" filter="url(#a)"/><path d="m2.47-87.48-6.86 19.07 16.68 7.59 9.08 1.72 3.93-1.15 1.99-3.13.47-4.37-.99-4.35-1.9-3.05-2.35-1.1-2.73.77-2.99 2.09-2.41 2.77-.39 3.01 2.66 2.9 5.1 2.26 4.98.86 1.78-1.09-2.69-2.51-5.57-2.02-5.73.38-6.38.99-11.89-6.08-4.3-14.96" filter="url(#a)"/><path d="m-42.62-69.77 38.25 2.79 2.4-.49-1.78-.88 1.08.21 4.66 1.39 4.94 1.78 1.5 1.16-3.14-.15-6.02-1.37-5.81-1.91-2.98-1.64.74-.95 3.57-.38 4.66-.1 4.55.07 4.75.55 6.32 1.42 8.26 2.33 7.49 2.63 1.12 1.96-9.27.26-12.17-2.75 31.09-6.94" filter="url(#a)"/><path d="m-17-84.86 39.92 12 7.7 1.62-7.54-2.88-10.6-3.43-7.15-1.59-2.7.82-.31 2.39-.34 2.58-1.7 1.77-2.47 1.02-.3 1.45 6.89 3.55 18.37 6.89 25.71 9.65 11.02 1.4" filter="url(#a)"/><path d="m-4.35-87.21 5.36.32 5.86 3.17 9.65 6.11 9.34 6.07 4.79 3.39-.05.65-2.61-.29-3.46.49-4.41 1.4-6.38 1.07-8.66-.61-10.03-2.4-9.83-3.07-8.09-2.54-5.06-1.83-1.56-1.8 1.25-2.26.82-1.23" filter="url(#a)"/><path d="m-36.37-75.05 47.62 4.51 25.26 11.78 5.54 5.55-6.72-2.37-9.68-6.03-6.29-4.79-1.91-1.39-.7.99-3.33.92-7.09-.64-8.2-1.71-4.99-1.03 1.45 1.25L6.9-62.35l52.6 14.73" filter="url(#a)"/><path d="m-25.6-81.8-6.74 5.41-1.23 1.33-3.43 3.53-3.02 4.56.69 3.38 4.95 1.01 7.09-1.31 6.37-2.85 3.96-3.42 1.68-3.26.8-2.75 1.61-2.17 3.42-1.59 5.11-.96 5.66-.22 4.56.6 2.3 1.37.14 2.03-.43 2.62.92 3.38 2.53 4.59 2.32 5.94 4.79 7.07 45.76 15.95" filter="url(#a)"/><path d="m-17-84.86 15.54 5.81 2.64 5.77-5.17.2-2.47-2.94 1.89-3.43 3.66-2.5 3.01-1.08 1.85.39 1.98 1.59 3.85 2.07 5.5 1.29 3.95-.76-.62-2.72-.93-1.8 13.57 4.22" filter="url(#a)"/><path d="M-46.9-64.97.52-72.13l21.45.43 4.63-.59-4.64-2.42L13.73-78l-7.48-2.8-4.44-1.27-1.27.69.72 2.45 1.53 3.47 1.69 3.39 1.56 2.33 1.48.95 2.6.21 6.54 1.22 13.11 5.08 18.54 10.87 12 5.17" filter="url(#a)"/><path d="m-44.25-67.83 59.4 15.37-.9 3.81-16.81-4.82-10.13-6.86v-4.5l6.34-1.27 8.34.35 6.85-.14 3.09-1.64-1.01-2.79-2.71-2.82-.37-1.88 4.43-.74 6.81-.58 2.72-2.12-3.42-3.75 6.52.23" filter="url(#a)"/><path d="M64.21-37.56 20.62-62.63l-5.13-9.05 2.88-1.08 6.96 4.49 7.47 6.61 3.15 5.3-3.9 2.21-9.74-.78-11.22-2.5-7.67-2.8-1.07-2.09 5.21-1.03 8.14-.36 6.44-.72.97-2.31-5.47-4.5-9.14-5.79-7.31-5.06-1.08-2.92 2.29-1.22-8.39-1.07" filter="url(#a)"/><path d="m-7.72-86.91-12.46 6.68-8.08 5.41.92.27 3.87-1.38 4.06-.13 6.07 1.78 10.14 3.13 12.96 3.68 11.3 3.35 5 1.95-2.39-.37-5.8-2.52-2.89-3.07 2.37-1.95 4.77-.7 26.09 7.03" filter="url(#a)"/><path d="M44.38-67.99 20.91-79.24 9.14-80.25-.29-78.2l-6.24.71-2.39-1.24-.09-1.94.76-1.44 1.66-.52 3.41.35 5.44 1.09 6.19 1.79 4.3 2.3-.44 2.34-6.34 1.72-9.64.83-6.21.48 3.63 1.17 6.37 1.67-36.49-6.16" filter="url(#a)"/><path d="M44.38-67.99 6.42-60.77l5.33-2.71 5.52-3.05.58-.92-2.43-.04-2.74-.25-1.74-.52-1.49-.48-2.8-.36-4.74-.49-5.72-.97-5.05-1.55-3.32-1.87-1.63-1.6-.55-.77.16.28.98 1.05 2.09 1.24 3.93 1.17 7.96 2.09 15.73 5.61 23.66 9.55 11.69-4.22" filter="url(#a)"/><path d="m-46.9-64.97 11.21-6.61.73.16 4.31-1.15 9.9-2.19 12.97-2.34 11.56-2.06 6.4-1.66.12-1.01-4.39.25-4.73 2.31.45 4.92 10.12 7.11 18.36 6.52 14.36-.31-4.72-11.5" filter="url(#a)"/><path d="m13.79-85.49 10.62 11.42-9.92.59-7.28 2.52-.57 3.53L10.06-65l4.05.8 3.21-.26 2.31-.49 1.5-.11.44.46-.9.82-2.14.82-2.93.6-3.17.25-2.95-.3-2.37-1.4-1.56-3.13-.41-4.81 1.43-5.04 4.12-3.07 4.12-.91-16.28-6.79" filter="url(#a)"/><path d="m-38.46-73.77 41.95 8.54-7.32-2.21-9.51-2.97-.78-2.1 6.17-.56 8.83.74 7.8 1.32 4.49 1.29.57 1.01-2.5.66-3.82.47-3.53.51-2.7.64-2.4.55-2.61-.02-2.22-.78-.37-1.25 3.56-1.81 14.25-2.79 32.98 4.54" filter="url(#a)"/><path d="m-26.03-80.84 55.05 26.43 11.07 4.62-5.47-1.79-8.32-3.11-4.96-4.22-.09-4.73 3.58-3.74 5.08-1.76 4.4-.16h1.77l-1.88-1.02-4.47-1.95-3.32-1.36 2.57 1.52 10.83 7.84 23.81 25.11M-.77-87.51l1.44.07.99-.34.8-.81.78-1.23.9-1.41 1.07-1.25 1.19-.9 1.26-.67 1.26-.77 1.22-1.05 1.23-1.25 1.31-1.19 1.41-.91 1.43-.73 1.26-1.05 1.1-1.94-50.46 17.25 2.2-1.04 1.54-.1 1.26.16 1.23.14 1.25.04 1.24-.04 1.24-.1 1.22-.13 1.17-.21 1.08-.28.97-.35.87-.38.82-.33.85-.26.93-.14 1.08-.03 1.22.08 1.33.16 1.35.2 1.19.2.89.22.46.4-.53.57-.77.24-2.76-1.25-1.62-.61-1.23-.48-1.2-1.11-1.22-1.79-1.21-2.07-1.22-1.88-1.27-1.47-1.37-1.02-1.47-.68-1.5-.42-1.46-.18-1.43.02-1.49-.07-1.7-.73-1.79-1.95-1.38-2.66M70.07-14.73l-.29-1.03-.31-1.51-.38-1.57-.46-1.46-.53-1.34-.54-1.26-.53-1.21-.52-1.19-.49-1.18-.47-1.13-.45-1.06-.47-.96-.54-.89-.71-.88-.89-.85-.73-.64" filter="url(#a)"/><path d="m-13.29-85.67.37-2.02 1.01-2.96 1.23-2.23 1.14-.94.93-.34.76-.42.73-.74.9-.94 1.18-1.02 1.45-1.11 1.61-1.39 1.61-1.82 1.5-2.28 1.39-2.7 1.51-2.68m-53.29 28.63 1.45 1.08 1.48.09 1.46-.41 1.4-.56 1.32-.62 1.22-.6 1.17-.5 1.14-.3 1.17-.04 1.21.21 1.25.37 1.3.37 1.32.24 1.35.03 1.34-.24 1.26-.51 1.15-.77 1.02-.94.99-.88 1.05-.51 1.22.13 1.39.59 1.58.3 1.63-.3" filter="url(#a)"/><path d="m-19.68-84.09 1.24.84.82-.39.74-.36.69-.06.72.14.81.13h.93l1.05-.11 1.15-.17 1.21-.15 1.16-.1 1.01-.05.78.02.59.1.56.2.81.36 1.28.73m-19.06.18.64.31-.67.79-.93.9-.98.75-1.06.57-1.15.53-1.2.55-1.16.6-1.02.63-.85.65-.69.71-.61.77-.6.82-.67.81-.77.76-.86.75-.87.9-.68 1.16-.31 1.22 7.46-10.75-1.57-.38-1.71-1.67-1.25-.91-.74.26-.56.9-.69.93-.91.68-1.12.47-1.22.42-1.26.47-1.3.51-1.38.39-1.5.14-1.61-.19-1.7-.48-1.69-.65-1.61-.61-1.53-.35-1.63-.06-1.93-.26-1.9-1.96 3.77 22.41.48-.34.8-.52.72-.53.64-.59.67-.69.76-.83.89-.94 1-.98 1.05-.96 1.04-.86.98-.76.89-.67.8-.63.76-.65.79-.67.88-.71.96-.76 1.03-.81 1.05-.87 1.11-.93 1.54-1.06" filter="url(#a)"/><path d="m-39.18-73.01 1.89 1.02 1.94.94 1.19-.14.79-.65.75-.53.84-.11.97.34 1.07.51 1.14.37 1.2.05 1.27-.16 1.33-.12 1.22.09.84.17.67.72" filter="url(#a)"/><path d="m-42.33-70.03.91-.73 1.15-.95 1.13-.87 1.1-.73 1.08-.6 1.04-.47.99-.38.95-.29.91-.23.92-.19.95-.21 1.02-.3 1.09-.4 1.15-.45 1.19-.42 1.19-.3 1.17-.15 1.15-.07 1.1-.08 1.07-.13 1.1-.12 1.35-.12 1.54-.19m-33.67 17.26-.21.48-.27.78-.21.98-.26 1.13-.34 1.25-.34 1.39-.25 1.51-.12 1.58-.06 1.57-.05 1.46-.12 1.3-.22 1.12-.32.96-.38.88-.4.89-.38 1.02-.28 1.23-.15 1.44-.06 1.56-.08 1.52-.19 1.39-.22 1.25.09 1 1.24.11m-1.54-20.9-.14-1.65.04-2.22.3-1.74.38-1.34.37-1.11.29-1.09.2-1.29.13-1.61.17-1.9.3-2.05.48-2.03.62-1.9.61-1.75.34-1.63-.25-1.5-.99-1.24" filter="url(#a)"/><path d="m-34.9-63.62-1.72.53-1.05.42-.87.41-.87.26-1 .03-1.16-.12-1.3-.07-1.34.13-1.31.38-1.23.56-1.11.65-.98.66-.83.64-.72.64-.66.66-.7.72-.83.78-1.01.84-1.13.86-.98.84-.49 1.07-.62.47-.8 1.17-.82.77-.94.38-1.05.25-1.22.32-1.52.4-1.83.46-2.04.45-2.09.46-2.06.44-2.02.4-2.02.28-2.15.1-2.39-.05-2.6.1-2.59.48-3.64-.66m29.54-1.16 4.01 2.43 1.53.48.51-.57.14-1.11-.03-1.37-.01-1.39.26-1.2.72-.82 1.2-.46 1.45-.23 1.46-.14h1.34l1.38.38 1.68.92 1.78.79M68.1-25.2l.77 2.6.82 1.34.92 1.32 1.29 1.31 1.73 1.17 1.93 1.06 1.73 1.06 1.33 1.14 1.04 1.2 1.05 1.23 1.27 1.26 1.45 1.29 1.42 1.32 1.24 1.28 1.31 1.15 1.95.85 2.12.14M-65.09-34.17l-1.36 1.09-.7 1.51-.68 1.53-.79 1.3-.92 1.03-.97.84-.91.8-.81.91-.73 1.08-.7 1.25-.67 1.4-.62 1.48-.64 1.5-.82 1.44-1.18 1.3-1.48 1.09-1.37.89-.73.83-.13 1.11" filter="url(#a)"/><path d="m-65.6-32.35.55-1.27.57-1.14.59-1.1.56-.94.55-.84.63-.83.76-.85.9-.88 1-.92 1-.96.95-.99.86-.94.79-.78.77-.58.76-.44.79-.45.91-.48 1.25-.27 1.58.25M62.45-4.32l.23-.59.93-1.15.68-1.26.36-1.2.2-1.13.21-1.14.26-1.2.3-1.27.33-1.35.32-1.43.22-1.5.08-1.51-.05-1.48.03-1.49.36-1.53.63-1.42.24-1.09M55.72-54.41l-1.59-.24-.79-.76-.67-.82-.74-.75-.79-.72-.84-.72-.88-.73-.95-.67-1.04-.52-1.09-.36-1.1-.23-1.03-.21-.94-.28-.89-.34-.94-.29-1.05-.17-1.17-.13-1.25-.27-.92-.45 2.7-9.46.19.13-.12-.65-.33-1.36-.5-1.68-.62-1.72-.68-1.75-.68-1.84-.66-2.05-.58-2.27-.47-2.44-.36-2.5-.29-2.51-.27-2.56-.33-2.75-.51-3.04-.68-3.19-.38-3.05 1.38-3.73" filter="url(#a)"/><path d="m72.07-62.58-1.39-2.98-1.99-.96-2.09-.24-1.8-.22-1.54-.32-1.46-.31-1.5-.27-1.52-.25-1.5-.3-1.48-.3-1.46-.26-1.44-.19-1.33-.22-1.14-.4-.89-.7-.67-1-.62-1.1-.85-.83-1.31-.23-1.78.4-1.91.64-1.48.36-.82.08-.43.07M18.04-89.24l.63 1.12 1.12.71 1.13.55.95.45.81.45.74.52.75.61.84.67.94.67 1.03.6 1.05.51.98.44.86.44.77.53.72.67.84 1 1.45 2-20.41-35.3.12 2.07 1.16 2.76 1.28 2.19 1.16 1.9 1.1 1.79 1.11 1.64 1.12 1.56 1.04 1.7.85 2.03.65 2.33.5 2.36.48 2.04.57 1.49.77.91 1.02.49 1.23.35 1.19.67.36 1.45-1.57 2.13-5.61-2.42-.98-.51-1.28-.67-1.25-.64-1.18-.67-1.11-.77-1.06-.94-1.03-1.06-1.02-1.12-1.01-1.14-.98-1.16-.97-1.22-1-1.28-1.06-1.29-1.12-1.22-1.13-1.05-1.05-.89-.92-.74-.83-.62-.88-.48-1.13-.47-1.68-1.12" filter="url(#a)"/><path d="M2.43-85.97h1.26l1.17-.04 1.24.02 1.19.1 1.06.13.95.14.95.16 1.01.16 1.08.15 1.11.15 1.1.16 1.11.21 1.15.23 1.23.2 1.39.22 1.72.58-9.02-2.66 1.22.18 1.03-.3 1.18-.65 1.32-.69 1.37-.5 1.34-.25 1.25-.07 1.12.04.97.11.85.18.82.21.85.15 1 .04 1.51.15 3.05.47" filter="url(#a)"/><path d="m-16.17-80.76 1.7-.52 1.22-.5 1.13-.53 1.18-.51 1.17-.44 1.06-.36.92-.29.83-.26.85-.25.96-.26 1.09-.3 1.21-.31 1.25-.32 1.22-.29 1.12-.25 1.01-.2.9-.16.87-.13.93-.11 1.06-.06h1.21l1.25.09 1.07.11 1.14.09-6.07-.71.81.71 1.2.82 1.17.85 1.02.52.92.21.93.13.98.27 1.02.44 1.02.56 1.02.6 1.01.63 1.03.69 1.05.8 1.05.87 1 .81.75.69.17 1.04" filter="url(#a)"/></g><path fill="none" stroke="#000" stroke-linejoin="round" stroke-width="3" d="M-10.19 15.65Q11.64 20.415.725-5.174" filter="url(#a)"/><path fill="#D77F8C" stroke="#000" stroke-linejoin="round" stroke-width="3" d="m37.08 49.99-.07-.25.08.65.11.64-.22.25.13-.39-.02.67-.29.36-.1.22.23-.32-.48.78v.1l-.43.3-.86 1.11-.18.23-.29.26-.16.05-1.02.94-.13.12-.32.26-.5.3-.19.21-1.19.77-1.3.85-.47.27-.75.4 1.16-.63-1.9 1.09-.72.38.27-.18-2.91 1.46.83-.38-1.88.87.33-.13-.14.04-2.62 1.15.6-.28-.01.05-3.3 1.28-.56.22.31-.11-.95.35-1.85.64-.57.2-1.14.37.71-.23-3.65 1.14-.25.07-.36.1-2.14.59-.02.01-1.14.3-.36.09-1.28.31-.16.04-1.32.3-1.53.35-.37.08-1.93.39-2.2.39.44-.09-1.77.31-.81.11-1.03.15 1.4-.23-3.4.46-1.69.16-.1.02-1.3.07 1.07-.08-.87.12-.91.02-1.99.11-.84.03-.86-.04.25.05-1.62-.11-1.34-.09h-.03l.56.06-1-.04-1.17-.08-.63-.16-.94-.16-1.02-.16.54.1-.17-.14h-.03l-1.84-.65.63.35-1.47-.6-.2-.23.39.25-1.07-.83.09.15-.5-.53-.17-.24h-.09l-.08-.36-.19-.43.1-.32-.26-.04-.02-.38.25-.55-.11.67.13-1.16-.03.46.26-.82-.13.39.85-1.41-.45.73.02-.29.84-1.11.33-.36.36-.19.11-.21.06-.03 1.47-1.22-.26.22.49-.54.6-.4 1.14-.83.84-.44.78-.49-.19.1-.1.02.54-.29 1.79-.99.84-.41-.32.14 1.74-.87.54-.25-.43.21 2.5-1.17-1.13.53 1.42-.66 2.27-.94 1.26-.48-1.13.44 3.06-1.15-1.12.42 1.57-.6 1.43-.48 1.95-.66-.01.02.77-.25 1-.3.68-.21 1.7-.48 1.06-.29.44-.12.79-.21-.38.1 2.57-.64.75-.17 1.91-.42-1.48.32 2.84-.6-.64.12 2.08-.4.23-.06 2.4-.4 1.19-.17.89-.12-.4.03 1.54-.2.46-.03 2.43-.27 1.15-.09-.93.1 1.22-.11 1.78-.12-.06.02.59-.03h.25l.84-.02 2.07.05 1.3.02.29.01-.33.02 2.1.21-.34-.05 1.36.28-.67-.13h.36l1.38.3.39.16-.38-.14.56.2 1.06.25.65.38-.45-.14 1.41.72.2.24.17.34.03.09-.36-.35.16.15.54.25.18.71" filter="url(#a)"/></svg>