<svg xmlns="http://www.w3.org/2000/svg" width="500" height="500" viewBox="-100 -100 200 200"><defs><clipPath id="c"><path d="m29.78-3.89-.07-.73-.11-.72-.15-.72-.19-.7-.22-.68-.26-.68-.3-.65-.33-.65-.38-.63-.41-.61-.46-.6-.49-.57-.54-.57-.57-.54-.61-.52-.45-.68-.53-.65-.6-.62-.66-.6-.74-.56-.8-.54-.87-.51-.92-.47-.99-.44-1.03-.41-1.1-.37-1.13-.34-1.19-.31-1.22-.27-1.26-.24-1.29-.2-1.32-.17-1.35-.14-1.36-.1-1.38-.08-1.39-.04h-1.4l-1.41.02-1.4.05-1.4.08-1.39.1-1.39.13-1.37.16-1.35.18-1.33.21-1.32.22-1.28.25-1.27.27-1.23.28-1.2.3-1.17.31-1.14.33-1.11.34-1.07.35-1.03.37-1 .37-.96.37-.93.38-.9.39-.85.39-.83.39-.79.39-.76.39-.73.39-.71.39-.68.38-.64.39-.63.38-.59.39-.57.38-.55.38-.52.37-.49.38-.47.36-.45.37-.43.36-.41.35-.38.35-.37.35 7.3 11.12.56.58.58.59.59.58.61.58.62.58.64.58.66.58.66.58.69.57.7.57.71.57.73.56.74.56.75.56.77.55.79.54.8.55.82.54.83.53.85.53.87.52.88.51.89.5.9.48.92.47.92.46.94.44.94.42.95.4.96.38.96.36.97.34.97.31.97.28.98.26.97.23.97.2.97.17.96.13.96.11.95.07.95.03.94.01.92-.04.92-.07.9-.11.9-.14.88-.19.86-.22.85-.25.83-.3.82-.33.79-.37.78-.41.76-.45.74-.48.72-.51.71-.55.67-.58.66-.61.64-.65.62-.67.59-.7.58-.73.55-.55.55-.58.53-.59.52-.62.5-.62.49-.65.48-.66.47-.67.45-.69.43-.7.43-.71.41-.72.39-.73.39-.74.37-.75"/></clipPath><clipPath id="b"><path d="m-31.93-7.09.06-.7.1-.7.13-.69.17-.69.21-.67.24-.67.28-.66.32-.64.35-.64.4-.61.44-.6.47-.58.51-.57.55-.54.59-.53.43-.73.49-.71.56-.67.64-.63.71-.6.77-.56.84-.52.91-.47.96-.44 1.02-.4 1.07-.35 1.13-.31 1.17-.28 1.21-.23 1.25-.18 1.29-.15 1.31-.11 1.35-.07 1.36-.04 1.38.01 1.4.04 1.4.07 1.41.11 1.41.14 1.41.17 1.41.19 1.39.23 1.39.25 1.37.28 1.35.3 1.33.32 1.31.33 1.28.36 1.25.37 1.23.39 1.19.4 1.16.41 1.13.42 1.09.43 1.06.44 1.02.44.99.44.95.45.92.45.88.45.85.45.82.44.78.44.76.44.72.43.7.43.67.43.65.42.62.42.59.41.56.41.54.41.52.4.49.39.47.38.45.38.43.38.4.36.39.36-5.33 12.4-.45.7-.46.7-.48.7-.5.69-.51.69-.53.68-.54.68-.56.68-.58.67-.59.66-.61.66-.63.65-.64.63-.65.63-.68.62-.69.62-.71.61-.73.59-.75.59-.76.58-.79.56-.8.55-.82.52-.83.51-.86.49-.86.46-.89.44-.89.41-.91.39-.93.36-.93.32-.94.3-.96.26-.96.23-.97.2-.98.16-.98.13-.99.08-.98.05-.99.02-.99-.03-.99-.06-.99-.11-.98-.14-.98-.18-.97-.22-.96-.25-.96-.3-.94-.33-.94-.37-.92-.4-.9-.44-.89-.47-.88-.5-.86-.53-.84-.57-.82-.59-.8-.62-.78-.64-.75-.67-.74-.68-.71-.71-.69-.72-.67-.74-.64-.6-.63-.62-.62-.63-.6-.64-.58-.65-.57-.66-.56-.67-.54-.69-.52-.68-.51-.7-.5-.7-.48-.71-.46-.71-.44-.72-.43-.72"/></clipPath><filter id="a"><feTurbulence baseFrequency=".05" numOctaves="3" result="noise" type="noise"/><feDisplacementMap in="SourceGraphic" in2="noise" scale="2"/></filter></defs><rect width="100%" height="100%" x="-100" y="-100" fill="#98FB98"/><path fill="olive" stroke="#000" stroke-linejoin="round" stroke-width="1.667" d="m75.13.28.14 2.32-.3 1.95.1-.64.05.74-.38 3.82.19-.91-.35 4.3.32-1.71-.44 2.4-.17 2.45-.2-.03.01 1.51-.42 1.94-.65 3.06.43-3.14-.83 4.46-.69 2.98.52-1.3-.44 2.02-.48.55-.77 3.6-.47 1.64-.68 1.83.83-2.09-.93 2.05-.38 1.68-.76 1.55-.23.77-.31 1.22-1.2 2.22-.74 2.46-.74.57.17.1-.62.89-.87 1.91-.69 1.17-.67 1.79-.37.38-1.08 1.9.16.02-1.53 2.02-.48.64-.38 1.05-1.26 1.54.18.22-1.23 1.61.29-.49-1.31 1.64-2.39 3.26.25-.29-1.96 2.08.2-.42-.92 1.12-1.09 1.18.24-.34-2.05 2.29-2.31 1.88 1.92-1.68-3.14 2.86.19-.03-.51.16-1.77 1.96-2.16 1.37-.09.26.04-.16-2.6 1.9 1.38-.74-1.8 1.2-2.05 1.17-.7.49-.63.59-.88.47-.62.08-2.71 1.61.38-.57-.24.27-2 .97-1.48.92-2.3.84.4-.11-.64.24-1.48.55-2.92.68-2.03.72.51.15-1.74.38-.88.18-1.18.35-.29-.24-2.74.82-.65.05-.48.26-2.06-.12 1.48-.03-3.83.34-.18.12-.62.32-2.11-.09-.92.02-2.29.1-.17-.15-.74.02-3.05-.26-.19-.1-.01.09-2.36-.15-2.29-.28.13-.17-1.75-.23-.49-.05.09-.09-1.74-.4-2.54-.39-1.52-.21-1.52-.78.61.41.21-.2-2.67-.9-1.85-.68-1.55-.56-.35.18-1.3-.79-.48-.23-2.14-1.08 1.77.68-2.98-1.14-1.36-.96-.92-.2-.51-.52-1.76-1.01-1.98-1.34.74.48-3.11-2.1 1.31 1.32-2.62-2.16-.34-.37-1.82-1.33.33.39-2.12-2.22-.31-.07-1.12-.9-1.61-1.52-.47-.16-.52-1.08-.01.2-2.58-2.58-.47-.48.92.64-2.32-2.38-.88-.84-1.64-2.2.52.99-.64-.93L-57 58.7l1.15 1.63-2.26-3.01-.54-.96-.44-.53-.41-.43-.29-.88-1.37-2.52-.68-.96-.63-1.07-2.11-3.86.74 2.06-.52-1.67-.75-1.71-.69-.87-.3-1.05.09.36-1.31-2.62-.87-2.29.04-.68-.92-1.67-.49-1.49.1-.03-.54-2.32-.17.04-.82-2.52-.43-1.77-.2-.23-.66-2.39-.18-1.05-.08-1.09-.53-1.24-.48-3.78-.32-1.27.06.1-.3-3.04-.48-2.22.03-.3.08-.65-.31-1.94.05-1.53-.38-2.06.02 1.53-.02-2.22.05-1.02V1.7l-.06-1.25-.06-1.96-.04.28.15-4.43-.02 1.33.44-3.9-.15-.11.26-2.01-.06.13.35-2.96.24-2.15-.05-1.15-.09.86.52-3.16.5-2.05.09-.18.26-2.33-.06 1.06.47-1.8-.03-.74.58-1.51.29-1.62.33-1.56.85-2.61.05.47 1.18-3.26-.29.87 1.32-3.69.73-2.37.09-.1.46-.67 1.09-2.71.5-.92-.29.19 1.03-2.32-.04.93 1.56-3.57.18-.45.13-.17.88-1.34.19-.66 1.78-2.5-.58.98 2.17-3.69.88-1.41.04-.02 1.04-1.53 2.06-2.52-.68.99 1.02-1.22v-.03l1.45-2.05 1.67-1.92.17-.06 1.24-1.27-.71.58 2.77-2.24.41-.58 1.66-1.79.85-.63-1.21.69 1.8-.96 1.4-1.58 2.94-2.33-2.3 1.9 2.26-1.76 2-1.08.52-.84.53-.01.04-.09 2.14-1.34.96-.58.42-.54 2.48-.95.34-.18 2.01-1.22.12.28 1.17-.7.33-.32 2.64-1.34 1.7-.69.14.1 1.08-.18.67-.37.52-.02 2.21-1.05 1.36-.01 2.07-.42-.06-.18 2.75-.72-.74.12.86-.24 2.84-.24.48-.1.6.04.99-.17 1.7-.31.88.22 2.32-.32-.9.28 3.7-.2-.57.02 1.94.03 1.17.07 1.64-.14 1.11.28-1 .05 2.39.16 2.18.28-.11-.15 2.84.87-.15.04 1.54.09.2.25 1.29.01 1.61.81 1.89.13-.28-.06 2.58 1.12.84.23.52.18.16.37 2.95.88.39.51.28-.22 1.84.94 2.46 1.34.95.66-.7-.34 2.19.89.03.15 2.68 1.66 1 .88-.64-.77.23.57 2.17 1.34 2.27 1.78 1.15 1.02.5-.01-.13.03.92 1.13 2.35 1.85-.23-.55 2.09 2.05.06.32.08.31 2.59 2.48.03-.24L51.94-65l.55.43 1.07 1.54-.37-.77.68 1.07 1.84 2 .14.19 1.32 1.93.28.62 1.28 1.67.73 1.11-.45-.72L60.82-53l-.04-.06.98 1.42 1.73 3.22-.49-.48.73.89.29 1.02 1.12 2.07.42.69.57 1.05.2 1.03.85 1.74 1.25 3.44.54.71-.4-1.32 1.26 4.07.47 2.06.39.3-.29-.2 1.07 3.84-.14-1.81.58 2.44.49 3.17-.46-2.48.45 2.13.89 3.26.07 2.03-.02-.41.75 3.02.09.79-.17.12.12.54.45 3.38.02.34.45 3.34-.07-.7-.09-.06.38 4.05.03 1.34-.15 2.23-.01 1.07.14 2.32" filter="url(#a)"/><path fill="#fff" d="m-31.93-7.09.06-.7.1-.7.13-.69.17-.69.21-.67.24-.67.28-.66.32-.64.35-.64.4-.61.44-.6.47-.58.51-.57.55-.54.59-.53.43-.73.49-.71.56-.67.64-.63.71-.6.77-.56.84-.52.91-.47.96-.44 1.02-.4 1.07-.35 1.13-.31 1.17-.28 1.21-.23 1.25-.18 1.29-.15 1.31-.11 1.35-.07 1.36-.04 1.38.01 1.4.04 1.4.07 1.41.11 1.41.14 1.41.17 1.41.19 1.39.23 1.39.25 1.37.28 1.35.3 1.33.32 1.31.33 1.28.36 1.25.37 1.23.39 1.19.4 1.16.41 1.13.42 1.09.43 1.06.44 1.02.44.99.44.95.45.92.45.88.45.85.45.82.44.78.44.76.44.72.43.7.43.67.43.65.42.62.42.59.41.56.41.54.41.52.4.49.39.47.38.45.38.43.38.4.36.39.36-5.33 12.4-.45.7-.46.7-.48.7-.5.69-.51.69-.53.68-.54.68-.56.68-.58.67-.59.66-.61.66-.63.65-.64.63-.65.63-.68.62-.69.62-.71.61-.73.59-.75.59-.76.58-.79.56-.8.55-.82.52-.83.51-.86.49-.86.46-.89.44-.89.41-.91.39-.93.36-.93.32-.94.3-.96.26-.96.23-.97.2-.98.16-.98.13-.99.08-.98.05-.99.02-.99-.03-.99-.06-.99-.11-.98-.14-.98-.18-.97-.22-.96-.25-.96-.3-.94-.33-.94-.37-.92-.4-.9-.44-.89-.47-.88-.5-.86-.53-.84-.57-.82-.59-.8-.62-.78-.64-.75-.67-.74-.68-.71-.71-.69-.72-.67-.74-.64-.6-.63-.62-.62-.63-.6-.64-.58-.65-.57-.66-.56-.67-.54-.69-.52-.68-.51-.7-.5-.7-.48-.71-.46-.71-.44-.72-.43-.72" filter="url(#a)" transform="translate(29.59 -28.53)"/><path fill="#fff" d="m29.78-3.89-.07-.73-.11-.72-.15-.72-.19-.7-.22-.68-.26-.68-.3-.65-.33-.65-.38-.63-.41-.61-.46-.6-.49-.57-.54-.57-.57-.54-.61-.52-.45-.68-.53-.65-.6-.62-.66-.6-.74-.56-.8-.54-.87-.51-.92-.47-.99-.44-1.03-.41-1.1-.37-1.13-.34-1.19-.31-1.22-.27-1.26-.24-1.29-.2-1.32-.17-1.35-.14-1.36-.1-1.38-.08-1.39-.04h-1.4l-1.41.02-1.4.05-1.4.08-1.39.1-1.39.13-1.37.16-1.35.18-1.33.21-1.32.22-1.28.25-1.27.27-1.23.28-1.2.3-1.17.31-1.14.33-1.11.34-1.07.35-1.03.37-1 .37-.96.37-.93.38-.9.39-.85.39-.83.39-.79.39-.76.39-.73.39-.71.39-.68.38-.64.39-.63.38-.59.39-.57.38-.55.38-.52.37-.49.38-.47.36-.45.37-.43.36-.41.35-.38.35-.37.35 7.3 11.12.56.58.58.59.59.58.61.58.62.58.64.58.66.58.66.58.69.57.7.57.71.57.73.56.74.56.75.56.77.55.79.54.8.55.82.54.83.53.85.53.87.52.88.51.89.5.9.48.92.47.92.46.94.44.94.42.95.4.96.38.96.36.97.34.97.31.97.28.98.26.97.23.97.2.97.17.96.13.96.11.95.07.95.03.94.01.92-.04.92-.07.9-.11.9-.14.88-.19.86-.22.85-.25.83-.3.82-.33.79-.37.78-.41.76-.45.74-.48.72-.51.71-.55.67-.58.66-.61.64-.65.62-.67.59-.7.58-.73.55-.55.55-.58.53-.59.52-.62.5-.62.49-.65.48-.66.47-.67.45-.69.43-.7.43-.71.41-.72.39-.73.39-.74.37-.75" filter="url(#a)" transform="translate(-34.53 -26.09)"/><g fill="none" stroke="#000" transform="translate(29.59 -28.53)"><path stroke-linejoin="round" stroke-width="1.667" d="m-31.23-.39-.14-.61-.14-.63-.12-.64-.11-.67-.1-.67-.07-.68-.04-.7-.03-.69.01-.71.04-.7.06-.7.1-.7.13-.69.17-.69.21-.67.24-.67.28-.66.32-.64.35-.64.4-.61.44-.6.47-.58.51-.57.55-.54.59-.53.43-.73.49-.71.56-.67.64-.63.71-.6.77-.56.84-.52.91-.47.96-.44 1.02-.4 1.07-.35 1.13-.31 1.17-.28 1.21-.23 1.25-.18 1.29-.15 1.31-.11 1.35-.07 1.36-.04 1.38.01 1.4.04 1.4.07 1.41.11 1.41.14 1.41.17 1.41.19 1.39.23 1.39.25 1.37.28 1.35.3 1.33.32 1.31.33 1.28.36 1.25.37 1.23.39 1.19.4 1.16.41 1.13.42 1.09.43 1.06.44 1.02.44.99.44.95.45.92.45.88.45.85.45.82.44.78.44.76.44.72.43.7.43.67.43.65.42.62.42.59.41.56.41.54.41.52.4.49.39.47.38.45.38.43.38.4.36.39.36.36.35.35.35.33.33.32.33.3.33.28.31.27.31.25.29.24.3.23.28" filter="url(#a)"/><path stroke-linejoin="round" stroke-width="2.222" d="m-33.18-3.92.27.68.28.69.29.69.32.71.33.71.35.71.36.72.38.71.39.72.42.72.43.72.44.72.46.71.48.71.5.7.51.7.52.68.54.69.56.67.57.66.58.65.6.64.62.63.63.62.64.6.67.74.69.72.71.71.74.68.75.67.78.64.8.62.82.59.84.57.86.53.88.5.89.47.9.44.92.4.94.37.94.33.96.3.96.25.97.22.98.18.98.14.99.11.99.06.99.03.99-.02.98-.05.99-.08.98-.13.98-.16.97-.2.96-.23.96-.26.94-.3.93-.32.93-.36.91-.39.89-.41.89-.44.86-.46.86-.49.83-.51.82-.52.8-.55.79-.56.76-.58.75-.59.73-.59.71-.61.69-.62.68-.62.65-.63.64-.63.63-.65.61-.66.59-.66.58-.67.56-.68.54-.68.53-.68.51-.69.5-.69.48-.7.46-.7.45-.7.43-.7.42-.7.4-.7.38-.7.37-.69.36-.7.34-.7.33-.69.31-.7.3-.69" filter="url(#a)"/><circle cx="-22.706" cy="-.37" r="3.344" clip-path="url(#b)" filter="url(#a)"/><circle cx="-22.851" cy="2.66" r="4.866" clip-path="url(#b)" filter="url(#a)"/><circle cx="-25.131" cy="-.785" r="3.246" clip-path="url(#b)" filter="url(#a)"/><circle cx="-25.631" cy="3.365" r="4.856" clip-path="url(#b)" filter="url(#a)"/><circle cx="-24.946" cy="3.99" r="3.5" clip-path="url(#b)" filter="url(#a)"/><circle cx="-25.541" cy=".54" r="4.446" clip-path="url(#b)" filter="url(#a)"/><circle cx="-22.671" cy="3.74" r="3.158" clip-path="url(#b)" filter="url(#a)"/><circle cx="-22.906" cy="2.225" r="3.264" clip-path="url(#b)" filter="url(#a)"/><circle cx="-25.436" cy="1.495" r="4.328" clip-path="url(#b)" filter="url(#a)"/><circle cx="-24.191" cy="-.76" r="4.234" clip-path="url(#b)" filter="url(#a)"/></g><g fill="none" stroke="#000" transform="translate(-34.53 -26.09)"><path stroke-linejoin="round" stroke-width="2.222" d="m29.03 3.73.17-.77.15-.77.14-.77.12-.77.09-.77.08-.76.04-.77.02-.75-.01-.75-.05-.74-.07-.73-.11-.72-.15-.72-.19-.7-.22-.68-.26-.68-.3-.65-.33-.65-.38-.63-.41-.61-.46-.6-.49-.57-.54-.57-.57-.54-.61-.52-.45-.68-.53-.65-.6-.62-.66-.6-.74-.56-.8-.54-.87-.51-.92-.47-.99-.44-1.03-.41-1.1-.37-1.13-.34-1.19-.31-1.22-.27-1.26-.24-1.29-.2-1.32-.17-1.35-.14-1.36-.1-1.38-.08-1.39-.04h-1.4l-1.41.02-1.4.05-1.4.08-1.39.1-1.39.13-1.37.16-1.35.18-1.33.21-1.32.22-1.28.25-1.27.27-1.23.28-1.2.3-1.17.31-1.14.33-1.11.34-1.07.35-1.03.37-1 .37-.96.37-.93.38-.9.39-.85.39-.83.39-.79.39-.76.39-.73.39-.71.39-.68.38-.64.39-.63.38-.59.39-.57.38-.55.38-.52.37-.49.38-.47.36-.45.37-.43.36-.41.35-.38.35-.37.35-.35.33-.33.34-.31.32-.3.32-.28.32-.27.3-.25.3-.24.3-.22.29-.21.28" filter="url(#a)"/><path stroke-linejoin="round" stroke-width="2.222" d="m32.37-4.61-.24.74-.25.75-.27.75-.27.75-.29.76-.31.77-.31.76-.33.76-.35.75-.35.75-.37.75-.39.74-.39.73-.41.72-.43.71-.43.7-.45.69-.47.67-.48.66-.49.65-.5.62-.52.62-.53.59-.55.58-.55.55-.58.73-.59.7-.62.67-.64.65-.66.61-.67.58-.71.55-.72.51-.74.48-.76.45-.78.41-.79.37-.82.33-.83.3-.85.25-.86.22-.88.19-.9.14-.9.11-.92.07-.92.04-.94-.01-.95-.03-.95-.07-.96-.11-.96-.13-.97-.17-.97-.2-.97-.23-.98-.26-.97-.28-.97-.31-.97-.34-.96-.36-.96-.38-.95-.4-.94-.42-.94-.44-.92-.46-.92-.47-.9-.48-.89-.5-.88-.51-.87-.52-.85-.53-.83-.53-.82-.54-.8-.55-.79-.54-.77-.55-.75-.56-.74-.56-.73-.56-.71-.57-.7-.57-.69-.57-.66-.58-.66-.58-.64-.58-.62-.58-.61-.58-.59-.58-.58-.59-.56-.58-.54-.58-.53-.58-.51-.58-.5-.58-.48-.57-.47-.58-.45-.57-.43-.57-.43-.57-.4-.56" filter="url(#a)"/><circle cx="-20.118" cy="-1.08" r="4.976" clip-path="url(#c)" filter="url(#a)"/><circle cx="-23.173" cy="-3.49" r="3.052" clip-path="url(#c)" filter="url(#a)"/><circle cx="-21.383" cy="-3.14" r="3.966" clip-path="url(#c)" filter="url(#a)"/><circle cx="-19.398" cy="-3.8" r="4.156" clip-path="url(#c)" filter="url(#a)"/><circle cx="-22.478" cy="-4.985" r="3.914" clip-path="url(#c)" filter="url(#a)"/><circle cx="-19.643" cy="-3.125" r="3.952" clip-path="url(#c)" filter="url(#a)"/><circle cx="-21.608" cy="-.965" r="4.918" clip-path="url(#c)" filter="url(#a)"/><circle cx="-21.218" cy="-3.355" r="3.168" clip-path="url(#c)" filter="url(#a)"/><circle cx="-22.758" cy="-2.225" r="3.97" clip-path="url(#c)" filter="url(#a)"/><circle cx="-18.803" cy="-2.82" r="4.918" clip-path="url(#c)" filter="url(#a)"/></g><g fill="none" stroke="#2C222B" stroke-linejoin="round" stroke-width="2"><path d="M70.4-31.35 44.11-60.81l-17.4-8.69-3.55-.03 5.63 2.64 6.86 2.85 3.31 2.08-.98 1-3.62-.03-4.28-.65-3.88-.82-3.48-.67-3.35-.47-3.17-.46-2.51-.67-1.37-.95.02-1.05 1.37-.8 2.4-.45 2.31-.72-.26-2.38-5.53-4.98-9.7-6.17-4.61-3.57 21.06-1.61" filter="url(#a)"/><path d="M36.86-78.42-9-76.86l-6.93 1.6 9.36 2.77L5.2-70.85l6.53-.02.31-.67-3.57-.32-5.15.34-5.6.65-5.64.45-5.11-.18-3.71-1.08-1.6-1.99.5-2.51 1.83-2.08 2.44-.34 3.28 2.63 5.66 6.14 9.32 8.71 10.44 8 2.93 1.49-8.88-10.56 24.41-18.57" filter="url(#a)"/><path d="m2.78-90.16 2.07 2.11 13.49 6.85 12.26 7.08 4.89 3.59-2.23-.45-6.52-2.93-8.31-3.37-8.69-2.39-8.08-.87-6.29.5-3.19 1.35.46 1.63 3.14 1.44 3.52.9 1.53.19-1.34-.51-3.22-.88-3.6-.66-3.61.06-3.3.83 2.44 1.77 22.32 6.41 56.66 27.1" filter="url(#a)"/><path d="M14.59-88.36.13-70.74l3.3 4.88-1.71-4.68-.48-5.52 4.05-2.53 6.78.27 6.06 1.19 3.17.52.3-.46-.91-.57-.05.55 2.24 2.38 4.75 4.02 6.05 4.67 4.9 4.06 1.06 2.27-3.88-.34-7.01-3.43-6.62-6.77-6.16-10.2-3.12-8.27" filter="url(#a)"/><path d="m-7.28-89.71-9.04 3.95 10.5 2.35 14.45 2.95 8.06 2.31.12.94-3.72-.06-3.12-.44-.93-.41v-.27l-1.08-.2-2.87-.2-3.42-.15-1.77.03 1.46.33 4.4.51 5.11.25 2.74-.49-2.25-1.18-8.67-.62-15.77 2.52-23.31 8.73-24 15.45" filter="url(#a)"/><path d="M68.57-37.58 30.44-64.21 14-70.17 3.24-72.18l-4.62-1.56-.19-1.69 2.95-1.31 5.97-.1 8.18 1.35 7.9 2.05 4.3 1.49-1.7-.02-7.73-1.54-11.2-2.13-10.39-1.49-5.23.12 2.75 2.17 10.91 3.91 14.68 3.47 3.45-2.59-40.71-17.91" filter="url(#a)"/><path d="m-26.4-84.41 23.52 7.28-6.59 6.93-3.3 4.9-1.42.67-3.26-2.65-4.56-3.74-3.69-3-.88-1.33 3.59.64 9.29 2.42L.94-69.16l16.69 1.74 13.18-1.43 6.49-2.89 5.75 3.66 22.51 23.85" filter="url(#a)"/><path d="m-7.88-89.75 27.48 8.64 17.54 10 4.27 3.91-5.8-1.19-9.69-2.43-7.99-1.34-3.39-.18.9.32 2.85.8 2.68 1.79 2.22 2.89 2.94 3.53 2.6 3.94-11.26 2.63-67.51-11.12" filter="url(#a)"/><path d="m19.38-87.41-4.22 6.83-7.58 1.38 2.19-.08 5.39-.07 3.14-.45-.13-.83-1.45-.47-.38.62 1.41 1.72 1.6 2.09-.99 1.48-5.13.43-7.51.02-5.46 1.17-.66 3.4-1.31 3.62-15.77-2.25-24.88-5.85" filter="url(#a)"/><path d="m-30.03-82.45 55.52 21.39 7.2-1.57-8.31-4.39-7.36-2.96-.66-.67 4.16.82 3.94.55-.28-.98-5-2.47-6.71-2.82-3.91-1.86 1.84-.18 6.77 1.25 7 1.41 1.37-.05-5.35-1.03.54 4.63 43.29 24.39" filter="url(#a)"/><path d="m3.95-90.09-12.8 3.44-2.26 8.65 8.34 9.07 13.21 6.56 12.21 4.5 7.25 2.88.74.66-4.72-2.2-7.47-4.6-7.52-5.64-6.18-5.22-4.99-3.9-4.71-2.45-5.15-1.28-5.53-.49-4.97.02-2.97.36 1.19.4 9.56-.1 23.89.46 36.94 9.51" filter="url(#a)"/><path d="M66.33-42.15 8.8-67.74l-12.99-8.13 3.01-2.45 6.53.9 6.88 3.45 5.79 4.14 2.84 2.53-1.26-.27-4.28-2.27-4.14-2.12-.35.01 5.58 2.75 10.83 4.54 12.73 4.71 10.12 3.32 3.39-.48-7.08-8.75-19.86-18.32" filter="url(#a)"/><path d="m55.71-60.73-6.4-3.33-9.79-2.53-14.24-4.79-13.6-3.81-9.28-1.45-4.35.75-1.34 2-.78 2.07-1.71 1.3-2.98.15-3.9-.91-4.18-1.59-3.69-1.74-2.45-1.3-.67-.48 1.24.17 2.54.18 2.39-.54 1.15-1.6 2.99-2.39 14.96-2.01 35.01 3.59" filter="url(#a)"/><path d="M55.71-60.73 42.7-68.97l-14.35-8.38-10.26-3.8-9.96-1.03-10.64.11-9.89.83-7.66 1.49-4.65 1.8-1.14 1.17 2.57-.49 5.63-2.42 7.14-3.26 7.63-1.92 9.36 1.92 16.21 9.74 42.45 28.29" filter="url(#a)"/><path d="m.84-90.19 41.53 32.5 4.87 1.83L35-65.28l-16.78-9.17-14.14-5.46-8.74-2.42-3.56-.79.15.24 2.24 1.47 2.57 2.78.9 3.05-2.02 1.09-5.28-2.24-11.57-2.47-22.53 6.13" filter="url(#a)"/><path d="m10.27-89.46 5.04 6.87 13.9 6.47 6.74 1.33 1.53-.74-.11.02-.95 1.51-3.64 1.91-8.55.74-13.14-1.16-13.62-2.62-8.02-3.27.59-3.53 4.42-3.4-2.72-2.04-11.39.46" filter="url(#a)"/><path d="m-7.28-89.71 18.62 7.39-11.88 3.09-10.14 2.75 1.48 2.18 9.04 1.29 9.54.03 6.22-1.31 2.65-2.14.07-2.04-2.33-1.06-5.64.2-9.87.83-12.28-.52-6.61-4.37 7.21-6.02" filter="url(#a)"/><path d="m-45.2-72.17 33.48.69 21.76 3.47-.97-.01-8.98-.56-4.17.2 4.27.51 9.46.17 9.37-.4 5.59-.64 1.12-.21-1.53 1-1.39 2.6.6 3.75 2.4 3.75 2.47 2.5.95.69-.66-.91-2.01-2.35-6.05-4.64-15.85-7.79-25-7.9-13.89-1.95" filter="url(#a)"/><path d="M63-48.9 14.61-73.22.73-80.27l3.72.71 8.14 4.73 6 5.93 2.92 5.11 1.18 2.92.14-.19-1.2-3.32-2.26-5.15-1.67-4.66.75-2.18 3 .56 1.81 1.4-4.95-.39-15.02-2.76-18.32-3.33 7.15-8.86" filter="url(#a)"/><path d="m-11.2-89.41 3.6 15.84 19.72 3.41 8.19-3.91.29-4.88-2.67-3.35-4.16-1.79-5.16-.72-4.91.26-3.03 1.36-.31 2.37 1.91 2.8 2.81 2.29 2.98 1.11 4.23.29 8.26 1.29 13.41 4.07 10.75 3.22L31.37-81.8" filter="url(#a)"/><path d="m-59.81-54.39 72.51-3.82 17.17-2.85-10.5-4.25L2.2-68.52-9.05-69.7l-1.69.34 4.83.85 5.75.66 2.4.28-1.84.04-3.93-.15-2.95-.54-.08-1.26 2.52-2.15 3.38-2.74L1.9-76.9l1.32-1.24 1.02.92 1.9 3.21 3.22 4.41 4.28 3.04 5.19-1.78 5.02-8.11 9.74-4.31" filter="url(#a)"/><path d="m-36.94-78.76 47.95 16.67L6-69.37l-9.91-5.13-1.81.03 4.8 2.59 6.01 2.66 3.55 1.5.56.01-1.1-1.48-1.31-2.77-1-3.59-1.03-3.77-1.59-3.28-2.04-2.29L-.36-86l.52.01 3.66.87 6.7 1.49 7.54 2.24 2.86 3.63-13.7 5.3-57.79 5.59" filter="url(#a)"/><path d="m-20.17-86.89 15.64 4.09 6.73 4.99 2.07.54 3.89-1.68 6.21-1.04 7.02.93 6.15 2.55 3.67 2.82v1.58l-3.8-.51-6.28-2.29-6.59-2.9-5.26-2.15-3.96-.76-4.01.61-4.7 1.85-3.72 3.17 3.02 2.93 40.95-6.26" filter="url(#a)"/></g><path fill="none" stroke="#000" stroke-linejoin="round" stroke-width="3" d="M-11.01 23.91Q11.26 28.32.125-5.314" filter="url(#a)"/><path fill="#D77F8C" stroke="#000" stroke-linejoin="round" stroke-width="3" d="m-34.42 50.45.44 1.86.47 1.83.48 1.79.5 1.76.52 1.72.54 1.69.56 1.65.57 1.62.59 1.57.61 1.54.62 1.51.64 1.47.65 1.43.67 1.39.68 1.36.69 1.32.71 1.28.72 1.24.73 1.21.74 1.17.76 1.13.76 1.09.78 1.05.78 1.02.8.97.8.94.81.89.82.86.82.82.83.78.84.74.84.69.85.66.86.62.85.58.87.53.86.5.87.45.87.42.87.37.87.33.88.29.87.25.88.2.87.16.88.13.87.07.87.04.87-.01.86-.05.86-.09.86-.14.86-.18.84-.22.85-.27.84-.31.83-.36.82-.4.82-.44.81-.49.8-.54.79-.58.79-.62.77-.67.77-.71.75-.76.74-.81.74-.85.71-.9.71-.95.7-.99.68-1.03.66-1.09.66-1.13.63-1.18.63-1.22.6-1.28.59-1.32.58-1.36.55-1.42.54-1.46.52-1.52.5-1.56.48-1.61.47-1.65.44-1.71.42-1.76.4-1.8.38-1.86.36-1.9.34-1.95.31-2.01.29-2.05.26-2.1.24-2.16.22-2.2.19-2.26.16-2.3.14-2.36-.66 1.68-.67 1.65-.66 1.62-.66 1.57-.67 1.55-.66 1.5-.66 1.48-.66 1.43-.67 1.41-.66 1.36-.66 1.34-.67 1.29-.66 1.27-.66 1.23-.66 1.19-.67 1.16-.66 1.13-.66 1.1-.67 1.05-.66 1.03-.66.99-.66.96-.67.93-.66.89-.66.86-.67.83-.66.79-.66.76-.66.73-.67.7-.66.66-.66.63-.67.6-.66.57-.66.53-.67.51-.66.47-.66.44-.66.41-.67.37-.66.35-.66.31-.67.29-.66.25-.66.22-.66.19-.67.17-.66.13-.66.1-.67.07-.66.04-.66.01-.66-.02-.67-.05-.66-.08-.66-.11-.67-.14-.66-.17-.66-.19-.66-.23-.67-.25-.66-.29-.66-.31-.67-.34-.66-.37-.66-.4-.66-.42-.67-.46-.66-.48-.66-.51-.67-.54-.66-.56-.66-.59-.66-.62-.67-.65-.66-.68-.66-.7-.67-.73-.66-.76-.66-.78-.67-.81-.66-.83-.66-.87-.66-.88-.67-.92-.66-.94-.66-.97-.67-.99-.66-1.02-.66-1.04-.66-1.07-.67-1.1-.66-1.12-.66-1.14-.67-1.17-.66-1.2-.66-1.22-.66-1.25-.67-1.26" filter="url(#a)"/></svg>