<svg xmlns="http://www.w3.org/2000/svg" width="500" height="500" viewBox="-100 -100 200 200"><defs><clipPath id="c"><path d="m38.77 2.44-.19-.65-.21-.66-.25-.67-.28-.67-.31-.68-.35-.67-.38-.66-.43-.66-.45-.65-.5-.63-.53-.61-.57-.6-.61-.58-.65-.55-.68-.53-.52-.89-.59-.84-.67-.78-.73-.73-.8-.67-.87-.61-.93-.54-1-.48-1.05-.42-1.11-.36-1.16-.29-1.2-.23-1.25-.17-1.29-.11-1.33-.05h-1.35l-1.39.06-1.4.11-1.43.16-1.44.21-1.44.26-1.46.3-1.45.34-1.46.38-1.45.41-1.44.45-1.42.48-1.41.5-1.4.53-1.37.55-1.34.57-1.32.58-1.29.6-1.26.61-1.22.62-1.19.63-1.15.64-1.12.63-1.08.64-1.05.63-1 .64-.97.63-.93.62-.89.62-.85.6-.82.6-.79.6-.75.58-.72.57-.69.56-.67.54-.63.54-.61.53-.58.52-.55.51-.52.5-.5.49-.47.48-.45.46-.43.46-.4.44-.38.44-.36.42-.34.41-.29 2.6.25.23.27.22.29.21.3.19.32.18.34.18.36.16.38.15.4.13.42.12.45.11.46.1.49.09.52.07.53.05.56.05.59.04.61.02.64.01h.67l.7-.02.73-.03.77-.05.79-.06.83-.07.86-.09.89-.1.93-.11.95-.13.99-.13 1.02-.15 1.05-.16 1.08-.16 1.1-.18 1.14-.18 1.15-.19 1.18-.19 1.2-.2 1.22-.19 1.23-.2 1.25-.2 1.26-.2 1.27-.19 1.28-.19 1.28-.19 1.29-.17 1.28-.17 1.27-.16 1.27-.15 1.26-.13 1.25-.12 1.22-.1 1.21-.09 1.19-.06 1.16-.05 1.13-.04 1.1-.01 1.07.01 1.03.03.99.06.96.07.91.09.86.12.83.13h.84l.82.01.79.01.77.02.75.02.72.02.69.03.67.02.64.03.61.02.59.02.56.02h.53l.5.01.47-.01"/></clipPath><clipPath id="b"><path d="m-40.3-.19.16-.92.2-.93.22-.94.26-.93.3-.93.33-.92.37-.9.41-.88.44-.87.48-.83.52-.81.56-.77.59-.74.64-.7.67-.67.5-1.19.58-1.11.65-1.02.72-.93.79-.84.86-.74.92-.65.99-.55 1.05-.46 1.1-.37 1.16-.27 1.2-.19 1.25-.09 1.29-.01 1.33.07 1.35.15 1.39.23 1.41.29 1.43.37 1.45.43 1.45.49 1.47.54 1.46.6 1.46.64 1.46.69 1.45.72 1.44.76 1.42.78 1.41.82 1.38.83 1.35.85 1.33.87 1.31.88 1.27.88 1.23.89 1.21.88 1.16.89 1.13.88 1.1.87 1.05.87 1.02.85.98.84.94.82.9.81.86.79.83.77.8.76.76.73.74.72.7.7.67.69.65.67.61.65.59.63.56.61.53.6.51.58.48.56.46.55.43.53.41.51.39.49.37.48.35.47 1.29 5.43-.23.12-.24.12-.25.12-.27.11-.29.1-.31.1-.32.1-.34.08-.36.08-.37.08-.4.06-.42.06-.44.05-.46.05-.49.04-.5.03-.53.02-.55.02-.58.01h-1.24l-.67-.02-.69-.02-.73-.04-.75-.04-.79-.05-.82-.06-.85-.07-.89-.08-.91-.09-.95-.09-.97-.11-1.01-.1-1.03-.12-1.07-.12-1.08-.13-1.12-.14L6.59 17l-1.16-.15-1.18-.14-1.2-.15-1.21-.14-1.23-.15-1.24-.15-1.25-.14-1.25-.14-1.26-.14-1.26-.14-1.26-.13-1.26-.12-1.25-.12-1.24-.11-1.23-.1-1.22-.09-1.2-.08-1.17-.07-1.16-.06-1.13-.05-1.1-.04-1.07-.03-1.04-.01-1.01-.01-.97.01-.93.02-.9-.06-.89-.07-.86-.06-.85-.06-.82-.07-.79-.06-.78-.07-.75-.07-.72-.08-.7-.08-.67-.08-.65-.1-.61-.1-.59-.11-.56-.12"/></clipPath><filter id="a"><feTurbulence baseFrequency=".05" numOctaves="3" result="noise" type="noise"/><feDisplacementMap in="SourceGraphic" in2="noise" scale="2"/></filter></defs><rect width="100%" height="100%" x="-100" y="-100" fill="#98FB98"/><path fill="gold" stroke="#000" stroke-linejoin="round" stroke-width="1.667" d="m77.3 0-.07 1.29-.06.07-.03 3.57-.08 2.18.32-2.2-.1 2.32-.06.66-.44 2.41-.18 1.73-.3 3.41-.5 2.13.12-.98-.73 4.41-.07 1.69.2-1.86-.5 3.44-.22.43-.46 1.44.17-.69-.41 2.38-.54 2.02-.55 2.34.03-.54-.57 1.83-.54 1.1-.33 1.2-1.22 3.17.66-1.07-1.37 3.19-.28.02-1.33 3.12.09.79-.69.57-1.5 3.49.47-1.4.23.16-1.94 3.7-.93 1.35.05.06-.46 1.15-1.39 1.9-1.38 2.3-.85.85-1.12 1.76 1.06-.98-.07-.19-2.46 3.26-.4.74-1.4 1.58.16-.01-1.09.84-1.96 2.53.2-.27-2.6 2.54 1.6-1.51-2.44 2.61-1.72 1.6-.22.08-.59.56-1.82 1.7-.23.32-.73.18-.95 1.48-1.61.67-1.45 1.29-.9.77h-.47l-.92.96L34.65 83l.4-.04-.43.16-2.49 1.27.38-.13-1.88 1.34-1.27.4-.99.47-1.7.94.26-.4-3.21 1.84 1.56-.79-3.31 1.15.25-.14-2.7.7-.42.28-1.3.69-1.05.09-2.67.77-.01.08-.92.28-1.56.3H9.88l-1.67.14-1.39.24-1.94.27-1.12.01-1.41-.13-2.17.19.87.07-1.61.05-.27-.27-2.17.2.42-.11-3.03-.35-1.94-.12-1.3.1 2.5.28-3.39-.57h-.78l-.88-.1-.57-.42-2.92-.22-.47-.46-3.11-.59.93.05-2.27-.61.38-.03-1.39-.58-3.38-1.03-.58-.01.93.05-3.07-1.24-.39.02-1.07-.67-1.42-.45.45.12-2.65-1.27-2.01-1.04.93.33-1.76-1.13-1.62-.87-.43-.47-2.01-1.11 1.1.42-3.21-2.19-.28-.19-1.11-.7-1.61-1.23-.04-.01-1.24-1.51-2.54-1.91.63.3-1.74-1.65.35.48-.99-1.14-.91-.8-.84-.9-2.5-2.99-.88-.84.37.43-.37-.16-2.78-4.17 1.85 2.63-2.63-3.44.07.16-.37-.52-1.13-1.47-2.34-3.73-.35-.49-.8-1.16.2-.25-1.61-2.54-.15-.6-.63-.88.24.76-2.2-4.35.77 1.16-1.94-4.37.67 1.9-1.73-4.37.64 1.48-.32-1.15-1.02-1.99-.54-1.35-.25-.8-.62-2.7-.53-1.12-.59-.8.12-.59-.52-.89-.49-2.04-.27-1.84.01-.14-.81-4.07-.36-1.71-.11.55-.65-3.02-.34-3.03.06.4-.17-1.73-.36-1.67.15-.23.02-.39-.46-1.91-.05-3.14.16-.03-.17-2.24-.02-1.35-.29-1.61.15-2.63-.15 1.31.24-3.39-.12-.28.11-.83.12-3.79.09.8.3-1.79-.06-.8.15-3.81.22-.35.68-3.06-.4 1.66.49-1.88-.02-1.73.49-1.41-.01-.74 1.21-4.75-.39 1.8.46-3.24.68-1.41-.04.04.29-1.84.56-1.33.99-2.95-.04-.54.47-.92 1.17-2.89-.1.06 1.15-3.12-.97 2.37 1-2.22.97-2.56 1.13-1.8-.12-.46 1.8-3.03-.5.86.49-.63.78-1.32.45-1.02 1.84-3.07.95-1.32-.37.38 1.2-1.84.98-1.12.89-1.41 1.1-1.64-.69.83.47-.57 1.94-2.44 2.22-2.64-.27.13-.48.38 2.41-2.34.72-.76.61-.82.75-.7.2-.25 1.6-1.39 1.67-1.46-.42.04 1.73-1.55 2.36-1.68-.12.22 1.42-1.24 1.45-.78 1.13-.93-1.57.72 3.08-1.72-.39-.09 2.17-1.08.89-.64-.34.13 4.22-2.48-.73.5.5-.32 2.58-1.31 1.23-.18-1.15.33 2.91-1.41 1.35-.29-.53.04 3.25-1.36v.07l2.33-.48.73-.28.71-.07.66-.47 3.22-.68.4-.01-.62-.03 2.27-.36 1.43-.14 2.32-.24.69-.17.71-.25 1.64.14 2.13-.48-.53.09 1.17.03 3.07.06-.39-.01.67.04.44-.03 2.45.3.58-.25 2.12.44.56.1 2.56.12.33.32 3.2.58-.97-.39.95.36 1.19.33 3.49.77-.77-.25.17.33 2.72.54.64.39-.72-.06 3.46.87 1.31.62 1.58.57h-.53l2.41.96.39.33 2.05.86-.72-.03 2.55 1.16 1.31.76-.79-.47 3.98 2.35-.78-.57 1.73 1.48-.4-.42.7.46 2.12 1.7 1.36.8 1.15 1.02 2.42 2.14-.45-.67.48.9 1.7 1.51.47.13 1.76 1.98-.04-.16 2.83 2.99.24.2-.79-.75.99 1.04.22.71 2.52 2.69.62.85.68 1.23 2.03 2.09-.35-.36.25.47.61.58 1.87 3.39.59.38.91 1.83.03-.26.09.48 1.54 2.64.07.37 1.17 2.04-.04-.18.43 1.38 1.17 1.51.55 1.89 1.48 3.61-.4-1.28 1 2.84.86 1.75-.15-.34.65 2.4.02.33.55.44.69 3.43 1.05 3.18-.13.18-.4-2.03.58 1.69.33 2.49.4 2 .41-.09.12 2.23.45 2.44-.16-1.27.71 5.24.16-.82.2 1.18-.03 1.76.39 4.28-.12-2.95.44 5.12.08.72-.27.72.08.24.14.9L77.3 0l-.07 1.29" filter="url(#a)"/><path fill="#fff" d="m-40.3-.19.16-.92.2-.93.22-.94.26-.93.3-.93.33-.92.37-.9.41-.88.44-.87.48-.83.52-.81.56-.77.59-.74.64-.7.67-.67.5-1.19.58-1.11.65-1.02.72-.93.79-.84.86-.74.92-.65.99-.55 1.05-.46 1.1-.37 1.16-.27 1.2-.19 1.25-.09 1.29-.01 1.33.07 1.35.15 1.39.23 1.41.29 1.43.37 1.45.43 1.45.49 1.47.54 1.46.6 1.46.64 1.46.69 1.45.72 1.44.76 1.42.78 1.41.82 1.38.83 1.35.85 1.33.87 1.31.88 1.27.88 1.23.89 1.21.88 1.16.89 1.13.88 1.1.87 1.05.87 1.02.85.98.84.94.82.9.81.86.79.83.77.8.76.76.73.74.72.7.7.67.69.65.67.61.65.59.63.56.61.53.6.51.58.48.56.46.55.43.53.41.51.39.49.37.48.35.47 1.29 5.43-.23.12-.24.12-.25.12-.27.11-.29.1-.31.1-.32.1-.34.08-.36.08-.37.08-.4.06-.42.06-.44.05-.46.05-.49.04-.5.03-.53.02-.55.02-.58.01h-1.24l-.67-.02-.69-.02-.73-.04-.75-.04-.79-.05-.82-.06-.85-.07-.89-.08-.91-.09-.95-.09-.97-.11-1.01-.1-1.03-.12-1.07-.12-1.08-.13-1.12-.14L6.59 17l-1.16-.15-1.18-.14-1.2-.15-1.21-.14-1.23-.15-1.24-.15-1.25-.14-1.25-.14-1.26-.14-1.26-.14-1.26-.13-1.26-.12-1.25-.12-1.24-.11-1.23-.1-1.22-.09-1.2-.08-1.17-.07-1.16-.06-1.13-.05-1.1-.04-1.07-.03-1.04-.01-1.01-.01-.97.01-.93.02-.9-.06-.89-.07-.86-.06-.85-.06-.82-.07-.79-.06-.78-.07-.75-.07-.72-.08-.7-.08-.67-.08-.65-.1-.61-.1-.59-.11-.56-.12" filter="url(#a)" transform="translate(45.35 -30.94)"/><path fill="#fff" d="m38.77 2.44-.19-.65-.21-.66-.25-.67-.28-.67-.31-.68-.35-.67-.38-.66-.43-.66-.45-.65-.5-.63-.53-.61-.57-.6-.61-.58-.65-.55-.68-.53-.52-.89-.59-.84-.67-.78-.73-.73-.8-.67-.87-.61-.93-.54-1-.48-1.05-.42-1.11-.36-1.16-.29-1.2-.23-1.25-.17-1.29-.11-1.33-.05h-1.35l-1.39.06-1.4.11-1.43.16-1.44.21-1.44.26-1.46.3-1.45.34-1.46.38-1.45.41-1.44.45-1.42.48-1.41.5-1.4.53-1.37.55-1.34.57-1.32.58-1.29.6-1.26.61-1.22.62-1.19.63-1.15.64-1.12.63-1.08.64-1.05.63-1 .64-.97.63-.93.62-.89.62-.85.6-.82.6-.79.6-.75.58-.72.57-.69.56-.67.54-.63.54-.61.53-.58.52-.55.51-.52.5-.5.49-.47.48-.45.46-.43.46-.4.44-.38.44-.36.42-.34.41-.29 2.6.25.23.27.22.29.21.3.19.32.18.34.18.36.16.38.15.4.13.42.12.45.11.46.1.49.09.52.07.53.05.56.05.59.04.61.02.64.01h.67l.7-.02.73-.03.77-.05.79-.06.83-.07.86-.09.89-.1.93-.11.95-.13.99-.13 1.02-.15 1.05-.16 1.08-.16 1.1-.18 1.14-.18 1.15-.19 1.18-.19 1.2-.2 1.22-.19 1.23-.2 1.25-.2 1.26-.2 1.27-.19 1.28-.19 1.28-.19 1.29-.17 1.28-.17 1.27-.16 1.27-.15 1.26-.13 1.25-.12 1.22-.1 1.21-.09 1.19-.06 1.16-.05 1.13-.04 1.1-.01 1.07.01 1.03.03.99.06.96.07.91.09.86.12.83.13h.84l.82.01.79.01.77.02.75.02.72.02.69.03.67.02.64.03.61.02.59.02.56.02h.53l.5.01.47-.01" filter="url(#a)" transform="translate(-50.89 -31.1)"/><g fill="none" stroke="#000" transform="translate(45.35 -30.94)"><path stroke-linejoin="round" stroke-width="1.667" d="m-40.66 6.95-.02-.42-.03-.52-.01-.59v-.66l.02-.72.03-.78.05-.81.08-.85.11-.89.13-.9.16-.92.2-.93.22-.94.26-.93.3-.93.33-.92.37-.9.41-.88.44-.87.48-.83.52-.81.56-.77.59-.74.64-.7.67-.67.5-1.19.58-1.11.65-1.02.72-.93.79-.84.86-.74.92-.65.99-.55 1.05-.46 1.1-.37 1.16-.27 1.2-.19 1.25-.09 1.29-.01 1.33.07 1.35.15 1.39.23 1.41.29 1.43.37 1.45.43 1.45.49 1.47.54 1.46.6 1.46.64 1.46.69 1.45.72 1.44.76 1.42.78 1.41.82 1.38.83 1.35.85 1.33.87 1.31.88 1.27.88 1.23.89 1.21.88 1.16.89 1.13.88 1.1.87 1.05.87 1.02.85.98.84.94.82.9.81.86.79.83.77.8.76.76.73.74.72.7.7.67.69.65.67.61.65.59.63.56.61.53.6.51.58.48.56.46.55.43.53.41.51.39.49.37.48.35.47.33.45.31.43.29.42.27.41.26.39.24.38.23.37.21.35.2.34.19.34" filter="url(#a)"/><path stroke-linejoin="round" stroke-width="2.222" d="m-39.03 11.21.27.32.29.3.33.26.36.25.38.21.41.2.45.18.47.17.5.14.54.14.56.12.59.11.61.1.65.1.67.08.7.08.72.08.75.07.78.07.79.06.82.07.85.06.86.06.89.07.9.06.93-.02.97-.01 1.01.01 1.04.01 1.07.03 1.1.04 1.13.05 1.16.06 1.17.07 1.2.08 1.22.09 1.23.1 1.24.11 1.25.12 1.26.12 1.26.13 1.26.14 1.26.14 1.25.14 1.25.14 1.24.15 1.23.15 1.21.14 1.2.15 1.18.14 1.16.15 1.13.13 1.12.14 1.08.13 1.07.12 1.03.12 1.01.1.97.11.95.09.91.09.89.08.85.07.82.06.79.05.75.04.73.04.69.02.67.02h1.24l.58-.01.55-.02.53-.02.5-.03.49-.04.46-.05.44-.05.42-.06.4-.06.37-.08.36-.08.34-.08.32-.1.31-.1.29-.1.27-.11.25-.12.24-.12.23-.12.21-.13.2-.14.18-.14.18-.14.16-.15.15-.15.14-.15.14-.16.12-.16.11-.16" filter="url(#a)"/><circle cx="2.574" cy="11.868" r="3.756" clip-path="url(#b)" filter="url(#a)"/><circle cx="4.004" cy="14.103" r="4.658" clip-path="url(#b)" filter="url(#a)"/><circle cx="4.884" cy="13.338" r="3.19" clip-path="url(#b)" filter="url(#a)"/><circle cx="2.339" cy="11.098" r="3.858" clip-path="url(#b)" filter="url(#a)"/><circle cx="3.434" cy="11.098" r="3.696" clip-path="url(#b)" filter="url(#a)"/><circle cx="4.874" cy="13.478" r="3.962" clip-path="url(#b)" filter="url(#a)"/><circle cx="2.954" cy="13.123" r="4.088" clip-path="url(#b)" filter="url(#a)"/><circle cx="2.999" cy="14.113" r="4.958" clip-path="url(#b)" filter="url(#a)"/><circle cx="1.974" cy="14.678" r="3.778" clip-path="url(#b)" filter="url(#a)"/><circle cx="4.969" cy="12.568" r="3.484" clip-path="url(#b)" filter="url(#a)"/></g><g fill="none" stroke="#000" transform="translate(-50.89 -31.1)"><path stroke-linejoin="round" stroke-width="2.222" d="m39.35 7.19.01-.25v-.32l-.01-.37-.03-.43-.04-.48-.05-.52-.08-.56-.1-.58-.13-.61-.15-.63-.19-.65-.21-.66-.25-.67-.28-.67-.31-.68-.35-.67-.38-.66-.43-.66-.45-.65-.5-.63-.53-.61-.57-.6-.61-.58-.65-.55-.68-.53-.52-.89-.59-.84-.67-.78-.73-.73-.8-.67-.87-.61-.93-.54-1-.48-1.05-.42-1.11-.36-1.16-.29-1.2-.23-1.25-.17-1.29-.11-1.33-.05h-1.35l-1.39.06-1.4.11-1.43.16-1.44.21-1.44.26-1.46.3-1.45.34-1.46.38-1.45.41-1.44.45-1.42.48-1.41.5-1.4.53-1.37.55-1.34.57-1.32.58-1.29.6-1.26.61-1.22.62-1.19.63-1.15.64-1.12.63-1.08.64-1.05.63-1 .64-.97.63-.93.62-.89.62-.85.6-.82.6-.79.6-.75.58-.72.57-.69.56-.67.54-.63.54-.61.53-.58.52-.55.51-.52.5-.5.49-.47.48-.45.46-.43.46-.4.44-.38.44-.36.42-.34.41-.32.4-.3.39-.29.38-.26.36-.25.36-.24.35-.22.34-.21.33-.19.31-.18.31" filter="url(#a)"/><path stroke-linejoin="round" stroke-width="2.222" d="m38.52 9.18-.23.23-.24.2-.27.16-.3.14-.31.11-.35.08-.36.07-.4.05-.42.04-.45.02-.47.01-.5-.01h-.53l-.56-.02-.59-.02-.61-.02-.64-.03-.67-.02-.69-.03-.72-.02-.75-.02-.77-.02-.79-.01-.82-.01h-.84l-.83-.13-.86-.12-.91-.09-.96-.07-.99-.06-1.03-.03-1.07-.01-1.1.01-1.13.04-1.16.05-1.19.06-1.21.09-1.22.1-1.25.12-1.26.13-1.27.15-1.27.16-1.28.17-1.29.17-1.28.19-1.28.19-1.27.19-1.26.2-1.25.2-1.23.2-1.22.19-1.2.2-1.18.19-1.15.19-1.14.18-1.1.18-1.08.16-1.05.16-1.02.15-.99.13-.95.13-.93.11-.89.1-.86.09-.83.07-.79.06-.77.05-.73.03-.7.02h-.67l-.64-.01-.61-.02-.59-.04-.56-.05-.53-.05-.52-.07-.49-.09-.46-.1-.45-.11-.42-.12-.4-.13-.38-.15-.36-.16-.34-.18-.32-.18-.3-.19-.29-.21-.27-.22-.25-.23-.23-.23-.23-.25-.2-.26-.2-.27-.17-.27-.17-.29-.16-.29-.14-.3-.13-.31-.12-.31" filter="url(#a)"/><circle cx="21.247" cy="-4.467" r="4.202" clip-path="url(#c)" filter="url(#a)"/><circle cx="21.137" cy="-6.422" r="3.024" clip-path="url(#c)" filter="url(#a)"/><circle cx="18.157" cy="-3.727" r="4.344" clip-path="url(#c)" filter="url(#a)"/><circle cx="19.012" cy="-3.272" r="3.258" clip-path="url(#c)" filter="url(#a)"/><circle cx="18.262" cy="-5.587" r="4.956" clip-path="url(#c)" filter="url(#a)"/><circle cx="20.797" cy="-5.157" r="3.572" clip-path="url(#c)" filter="url(#a)"/><circle cx="20.382" cy="-4.767" r="3.198" clip-path="url(#c)" filter="url(#a)"/><circle cx="18.922" cy="-5.622" r="3.25" clip-path="url(#c)" filter="url(#a)"/><circle cx="18.277" cy="-5.382" r="4.294" clip-path="url(#c)" filter="url(#a)"/><circle cx="20.147" cy="-3.387" r="3.89" clip-path="url(#c)" filter="url(#a)"/></g><g fill="none" stroke="#000"><circle cx="10.334" cy="36.546" r="2.116" filter="url(#a)"/><circle cx="12.19" cy="36.33" r="1.35" filter="url(#a)"/><circle cx="9.574" cy="37.218" r="2.89" filter="url(#a)"/><circle cx="9.418" cy="38.882" r="2.652" filter="url(#a)"/><circle cx="11.342" cy="35.762" r="1.11" filter="url(#a)"/><circle cx="11.782" cy="36.318" r="1.948" filter="url(#a)"/><circle cx="10.094" cy="37.662" r="1.19" filter="url(#a)"/><circle cx="9.262" cy="36.162" r="2.968" filter="url(#a)"/><circle cx="8.982" cy="37.434" r="1.138" filter="url(#a)"/><circle cx="9.87" cy="35.806" r="1.918" filter="url(#a)"/><circle cx="-12.592" cy="35.436" r="1.244" filter="url(#a)"/><circle cx="-13.784" cy="32.528" r="2.19" filter="url(#a)"/><circle cx="-10.972" cy="32.292" r="1.052" filter="url(#a)"/><circle cx="-13.936" cy="31.924" r="1.332" filter="url(#a)"/><circle cx="-11.056" cy="31.608" r="1.86" filter="url(#a)"/><circle cx="-13.784" cy="32.264" r="2.632" filter="url(#a)"/><circle cx="-11.46" cy="31.772" r="1.336" filter="url(#a)"/><circle cx="-10.732" cy="32.7" r="2.416" filter="url(#a)"/><circle cx="-13.496" cy="31.96" r="2.176" filter="url(#a)"/><circle cx="-10.86" cy="35.008" r="1.748" filter="url(#a)"/></g><path fill="#D77F8C" stroke="#000" stroke-linejoin="round" stroke-width="3" d="m45.88 75.49.11.05-.34.69-.41.98.1-.41-.04.48-.78 1 .08-.1-.96.77-.39.5-.76.51-.07.15-.37.19-.57.27.6-.22-.48.3-1.16.49-.29.2-1.5.48.32-.01-2.38.65-.66.16.61-.15.17.08-2.25.45.7-.21-2.89.39 1.92-.22-.85.07-2.42.24-1 .06-.25.02-1.81-.06 1.2.07-.63-.03-3.34-.17 1.79.16-4.08-.41.39.08-.46-.09-.52-.05-2.19-.38-1.48-.3 1.87.39-3.24-.68-1.05-.28-.39-.08-.51-.15.24.06-1.92-.55-1.38-.45-.74-.25-1.45-.52-1.22-.47-.47-.2 1.67.65-1.88-.76-1.97-.86-.11-.04-1.35-.66-1.66-.84-.61-.38.79.42-.59-.31-.5-.29-2.25-1.35.98.59-1.88-1.21-.03-.02-1.95-1.42.68.57-.97-.79-1.82-1.49 1.48 1.26-.88-.79-1.63-1.5-.71-.7.59.51.07.01-1.5-1.57-.58-.83-.78-.92-.35-.66.57.83-.72-.92-.32-.54v-.29l-.57-1.05-.11-.06-.02-.46-.6-1.55-.02-.33.15.78-.06-.79-.25-1.33.11-.91-.14 1.02.04-.63.21-1.51.15-.44.4-.83-.22.06.27-.4.08-.15.25-.41.61-1.06-.31.65.62-.89.22-.11 1.16-.99-.6.38.96-.75-.33.17 1.78-1.03.39-.31.26-.08.75-.32-.39.13 1.19-.43.58-.22 1.09-.3-.2.04.12.03 1.64-.33 1.56-.3-1.61.25 2.59-.39 1.02-.1h.33l.97-.08-.52.1 1.63-.13 2.08.08-.45.01.21-.02.4.03 1.13-.01 1.78.17 1.78.23-.43-.04 2.76.41-.69-.1-.71-.15 1.28.23 2.19.46.58.12 2.89.75.36.1-.41-.11-.36-.11 3.81 1.19-1.38-.46 2.1.71 1.49.58-1.19-.46 2.4.95-.52-.21.2.06 1.69.73.45.22 2.79 1.35-1.24-.64 1.63.89.24.14 2.47 1.38.43.29-.84-.54 2.33 1.59-.54-.41.84.61.47.34.95.68.52.37 2.25 1.97L39.8 62l1.13 1.13.53.41-.1-.01 1.13 1.08-.39-.47.66.95 1.13 1.53.81.95-.79-1.03 1.33 2.07-.15-.03.31.69.38.72-.33-.95.62 1.67.01.02-.03.31.21 1.14-.05.62.19.24.06.19-.25.1-.03.63-.19 1.52-.06.46" filter="url(#a)"/></svg>