<svg xmlns="http://www.w3.org/2000/svg" width="500" height="500" viewBox="-100 -100 200 200"><defs><clipPath id="c"><path d="m28.91-8.16-.34-.25-.37-.25-.38-.26-.41-.27-.42-.28-.45-.3-.46-.3-.49-.31-.5-.31-.52-.33-.53-.33-.56-.34-.57-.35-.58-.35-.61-.36-.62-.36-.65-.37-.68-.39-.7-.4-.72-.41-.75-.42-.77-.42-.79-.43-.81-.43-.83-.44-.85-.43-.87-.43-.87-.42-.9-.41-.9-.41-.92-.39-.92-.38-.93-.36-.94-.35-.95-.32-.94-.31-.95-.29-.95-.26-.95-.24-.95-.22-.94-.18-.94-.17-.93-.13-.93-.11-.92-.08-.91-.06-.89-.03-.89.01-.87.02-.87.06-.84.08-.84.1-.81.13-.81.16-.78.17-.77.2-.75.21-.73.24-.72.25-.7.27-.68.28-.67.29-.64.3-.63.31-.61.31-.6.33-.58.33-.56.34-.56.35-.53.35-.52.37-.51.36-.49.38-.48.37-.47.38-.44.38-.44.39-.42.38-.41.38 6.42 10.1.26.85.27.84.28.84.31.84.31.84.34.83.35.83.36.82.38.81.39.81.4.81.42.8.43.79.44.78.46.77.47.77.48.77.5.76.51.75.53.74.54.74.54.71.56.71.57.69.58.67.58.65.6.64.6.61.6.58.62.57.62.53.62.51.64.47.63.44.64.41.65.38.65.33.65.3.66.27.66.22.67.17.66.14.68.09.67.05h.69l.68-.04.69-.09.7-.14.7-.19.7-.23.71-.28.71-.33.72-.37.73-.42.73-.47.74-.51.74-.56.75-.59.75-.64.76-.68.76-.71.77-.75.77-.78.77-.8.62-.56.61-.58.62-.58.61-.6.6-.61.6-.62.59-.62.58-.63.58-.64.56-.63.55-.63.54-.63.53-.62.51-.62.49-.6"/></clipPath><clipPath id="b"><path d="m-32.37-9.53.42-.29.44-.3.47-.32.49-.32.51-.34.54-.35.56-.36.58-.36.61-.38.62-.39.64-.39.67-.41.67-.41.7-.41.72-.43.75-.42.77-.44.81-.45.83-.48.86-.48.88-.49.9-.51.93-.5.94-.52.96-.51.97-.51.99-.5.99-.5 1.01-.49 1.02-.48 1.02-.46 1.02-.45 1.02-.43 1.03-.41 1.02-.38 1.02-.37 1.01-.34 1.01-.31.99-.28.99-.25.98-.22.96-.2.95-.16.93-.12.91-.1.9-.06.88-.03h.86l.84.04.82.06.8.1.77.13.75.16.73.18.71.21.69.24.66.26.64.28.62.31.6.32.58.34.55.35.54.36.51.38.5.38.48.39.47.4.44.41.43.42.42.43.4.44.38.45.36.45.35.46.34.46.32.46.31.47.29.46.28.47-6.74 7.95-.26 1.18-.28 1.17-.29 1.16-.3 1.15-.31 1.14-.32 1.14-.34 1.12-.34 1.11-.36 1.1-.36 1.09-.37 1.08-.38 1.06-.4 1.05-.39 1.03-.41 1.03L11.69 9l-.43 1-.44.99-.45.98-.46.96-.47.95-.47.93-.49.9-.48.89-.5.86-.5.83-.51.81-.51.78-.51.74-.53.71-.52.68-.54.64-.53.6-.55.56-.55.52-.55.48-.57.42-.57.39-.57.33-.59.29-.59.23-.6.18-.61.13-.62.07-.64.02-.64-.04-.66-.09-.67-.15-.68-.21-.7-.27-.71-.32-.73-.38-.74-.44-.76-.49-.78-.55-.79-.6-.81-.66-.83-.7-.84-.76-.86-.8-.88-.84-.89-.89-.9-.92-.92-.96-.7-.66-.7-.68-.7-.7-.7-.71-.7-.72-.7-.73-.7-.74-.69-.75-.68-.76-.67-.75-.67-.75-.65-.75-.64-.74-.62-.73-.6-.71"/></clipPath><filter id="a"><feTurbulence baseFrequency=".05" numOctaves="3" result="noise" type="noise"/><feDisplacementMap in="SourceGraphic" in2="noise" scale="2"/></filter></defs><rect width="100%" height="100%" x="-100" y="-100" fill="#FFFDD0"/><path fill="#FBCEB1" stroke="#000" stroke-linejoin="round" stroke-width="1.667" d="m69.06 1.69-.18-.44.1 1.37-.23 2.08.03.73-.11 1.9.08-.74.01 2.11-.02-.14-.49 3.23-.04 1.35-.63 2.77.17-.46-.37 2.13-.15 1.97-.56 2.25.3-2.37-.57 3.14-.13.81-.35 1.79-.42.74.47-.79-.87 1.89-1.03 3.79.34-.52-.96 2.29-.24 1.44-.4-.54-.4 1.91-.07-.12-.15.89-1.77 3.82.57-1.09-1.55 2.98-.21.35-.5 1.1-.83 1.91-.62.35.72.02-1.99 3.05.38-.48-1.19 1.57-.71 1.13-1.44 2.37.68-.97-1.9 2.73-.05.17-1.21 1.36-.45.88-1.07 1.14.26-.47-1.55 1.56-.82 1.1-.22.6-.18.43-1.47 1.59-.89.71-.27.29-1.85 1.59-.74.48-1.51 1.49-.46.25-1.61 1.62-.62.4.68-.76-1.15.87-.47.32-2.82 2.2-1.21.98-.29-.12-.45.48-1.39.53.07.05-.84.53-3.15 1.58.67-.15-2.04 1.06.65-.26-1.54.37-1.13.54-.44.23-3.13 1.07h.83l-2.37.75-1.61.36-.2.18.82-.09-2.23.57-2 .18.99-.17-2.22.6-1.65.38-1.82.14-.9-.04.41-.07-1.63.44-.88.08-.82.01-1.21.09-1.86-.05-1.14.01.2.06-1.64-.11-.89.13-1.25-.22-1.16.14.15-.18-3.18-.26-.79-.14-1.85-.5-.25-.09-.38.16-.22-.19-2.39-.33-1.67-.52-.12-.02-2.46-.7.13-.23-1.39-.45-.95-.22.43.05-2.24-1.03-1.23.01-1.13-.88-.63-.43-1.21-.16-1.55-.86.65.23-1.97-1.04-.61-.51-3.01-1.65-.42-.48-.55-.23-.9-.44.95.35-1.41-.94-2.66-1.9-.02.21-.34-1-1.32-.75-2.28-1.85.49.5-.9-1.01-.21-.25-.6-.77-1.87-1.7-1.32-1.56.84.83-1.03-.65-2.04-2.48-1.05-1.24.53.8-1.5-1.91-.97-1.54.07-.15-.72-.36-1.02-1.38-1.43-2.6-.41-.57-.53-1-.33-.35-.78-1.17.81.75-2.04-3.59-.77-1.27-.29-.54.15.35-1.27-2.55.21-.2-1.33-1.85-.31-.8-.12-.58-.74-1.44.03.02-.37-1.27-1.58-4.22.27.73-.04-.54-.66-2.1-1-3.43.41 1.5-.16.11-.34-2.27-.72-3.16-.37-1.93.01.41-.39-2.29-.24-.55-.08-.54-.49-3.2.04-1.08-.13-.92-.16-1.76-.14.45-.35-3.37.16 1.63.06-1.14-.06-1.95-.11-3.43-.25-1.16.02.54.02-1.45.13-2.78-.03-1.88.11.69.02-1.71.04-1.62.08-.76.45-3.22-.02-1.17-.28 2.39.74-4.64.04.37.6-3.3-.13.15.07-1.1.24-1.04.66-2.42.34-1.25-.1.15.75-2.32.65-2.94-.29 1.72.67-2.84.16-.21.43-1.19-.11-.13 1.13-3.16.56-1.75-.21.85 1.51-3.12.2-1.19-.29.99.13-.42 1.64-3.35 1.15-1.88-.48.64.89-1.91-.25.77.89-1.85.76-.84.09-.42 1.3-2.3.64-1.1 1.69-2.35-.31.41.87-1.28.72-1.2.87-1.07 1.24-.9.27-.79.91-1.23-.11.34 2.23-2.83.29-.06 1.85-1.57-1.43 1.22.58-.73 1.95-1.79.97-.83 1.69-1.3-1.27.82 1.44-1.49 2.57-1.69v-.48l2.06-1.17-.8.58.95-.99 2.87-1.56-1.2.78 3.04-1.8-.52-.03-.35.45 4.4-2.46-1.37.54 3.48-1.72-1.97 1.25 2.26-1.25 1.13-.61 2.01-.64-1.08.23 3.08-1.09 1.29-.49-.4.08 2.22-.5-1.5.44 1.01-.27 3.9-1.2-1.37.35 2.47-.59-.32.29 2.13-.27 1.07-.26-.39-.11 2.02-.23 1.68-.03 1.26-.36 1.92.05.33-.2 1.94.03.34.04 1.32.1-.29-.16 2.39.33-.69-.05 3.32.29-1.83-.39 2.96.33.87.02 1.44.46 1 .17 1.1.37-.6-.3 3.77.84-.04.06 2.39.65-.07-.17-.37.13.85.24 2.73.94.57.28.79.25 2.03.91 1 .33-.49.04 2.21.88.4.13 2.09 1.04-1.26-.34 1.58.89 2.24 1.27.23.16 1.42.5 1.28 1.04.73.35.61.4 1.24 1.03.39.77-.39-.37 1.65 1.2 1.28 1.03 1.08 1.01.86.53.78 1.1-.02.01 2.46 1.95.03.58.03-.19 1.6 1.73.7.88-.17-.16 1.6 2.08.69 1.06 1.26 1.18.18.11 1.42 2.18-.06-.11.25.51 1.65 2.52-.08-.05.39.56 1.56 2.73.08-.23 1.32 2.85.07.44 1.67 2.64-.05.22-.73-2.05 1.85 3.63.36 1.24.57 1.81.09.14.6.83.96 2.12-.46-.86 1.2 3.51-.07.23.79 1.96.16.33-.21.73.98 2.02.49 1.63-.07.78.48 1.68-.13-.16.65 3.44.46.95.03.75.14 1.61.26 1.73.3 1.19-.02-.17.3 3.71-.21-1.97.35 2.83.1-.25.01 1.87.23 4.02-.02-1.42.05 2-.06 3.21-.18-.44" filter="url(#a)"/><path fill="#fff" d="m-32.37-9.53.42-.29.44-.3.47-.32.49-.32.51-.34.54-.35.56-.36.58-.36.61-.38.62-.39.64-.39.67-.41.67-.41.7-.41.72-.43.75-.42.77-.44.81-.45.83-.48.86-.48.88-.49.9-.51.93-.5.94-.52.96-.51.97-.51.99-.5.99-.5 1.01-.49 1.02-.48 1.02-.46 1.02-.45 1.02-.43 1.03-.41 1.02-.38 1.02-.37 1.01-.34 1.01-.31.99-.28.99-.25.98-.22.96-.2.95-.16.93-.12.91-.1.9-.06.88-.03h.86l.84.04.82.06.8.1.77.13.75.16.73.18.71.21.69.24.66.26.64.28.62.31.6.32.58.34.55.35.54.36.51.38.5.38.48.39.47.4.44.41.43.42.42.43.4.44.38.45.36.45.35.46.34.46.32.46.31.47.29.46.28.47-6.74 7.95-.26 1.18-.28 1.17-.29 1.16-.3 1.15-.31 1.14-.32 1.14-.34 1.12-.34 1.11-.36 1.1-.36 1.09-.37 1.08-.38 1.06-.4 1.05-.39 1.03-.41 1.03L11.69 9l-.43 1-.44.99-.45.98-.46.96-.47.95-.47.93-.49.9-.48.89-.5.86-.5.83-.51.81-.51.78-.51.74-.53.71-.52.68-.54.64-.53.6-.55.56-.55.52-.55.48-.57.42-.57.39-.57.33-.59.29-.59.23-.6.18-.61.13-.62.07-.64.02-.64-.04-.66-.09-.67-.15-.68-.21-.7-.27-.71-.32-.73-.38-.74-.44-.76-.49-.78-.55-.79-.6-.81-.66-.83-.7-.84-.76-.86-.8-.88-.84-.89-.89-.9-.92-.92-.96-.7-.66-.7-.68-.7-.7-.7-.71-.7-.72-.7-.73-.7-.74-.69-.75-.68-.76-.67-.75-.67-.75-.65-.75-.64-.74-.62-.73-.6-.71" filter="url(#a)" transform="translate(43.97 -26.91)"/><path fill="#fff" d="m28.91-8.16-.34-.25-.37-.25-.38-.26-.41-.27-.42-.28-.45-.3-.46-.3-.49-.31-.5-.31-.52-.33-.53-.33-.56-.34-.57-.35-.58-.35-.61-.36-.62-.36-.65-.37-.68-.39-.7-.4-.72-.41-.75-.42-.77-.42-.79-.43-.81-.43-.83-.44-.85-.43-.87-.43-.87-.42-.9-.41-.9-.41-.92-.39-.92-.38-.93-.36-.94-.35-.95-.32-.94-.31-.95-.29-.95-.26-.95-.24-.95-.22-.94-.18-.94-.17-.93-.13-.93-.11-.92-.08-.91-.06-.89-.03-.89.01-.87.02-.87.06-.84.08-.84.1-.81.13-.81.16-.78.17-.77.2-.75.21-.73.24-.72.25-.7.27-.68.28-.67.29-.64.3-.63.31-.61.31-.6.33-.58.33-.56.34-.56.35-.53.35-.52.37-.51.36-.49.38-.48.37-.47.38-.44.38-.44.39-.42.38-.41.38 6.42 10.1.26.85.27.84.28.84.31.84.31.84.34.83.35.83.36.82.38.81.39.81.4.81.42.8.43.79.44.78.46.77.47.77.48.77.5.76.51.75.53.74.54.74.54.71.56.71.57.69.58.67.58.65.6.64.6.61.6.58.62.57.62.53.62.51.64.47.63.44.64.41.65.38.65.33.65.3.66.27.66.22.67.17.66.14.68.09.67.05h.69l.68-.04.69-.09.7-.14.7-.19.7-.23.71-.28.71-.33.72-.37.73-.42.73-.47.74-.51.74-.56.75-.59.75-.64.76-.68.76-.71.77-.75.77-.78.77-.8.62-.56.61-.58.62-.58.61-.6.6-.61.6-.62.59-.62.58-.63.58-.64.56-.63.55-.63.54-.63.53-.62.51-.62.49-.6" filter="url(#a)" transform="translate(-27.5 -22.97)"/><g fill="none" stroke="#000" transform="translate(43.97 -26.91)"><path stroke-linejoin="round" stroke-width="1.667" d="m-35.07-7.28.14-.18.17-.18.2-.2.23-.21.26-.21.29-.23.31-.24.34-.26.37-.26.39-.28.42-.29.44-.3.47-.32.49-.32.51-.34.54-.35.56-.36.58-.36.61-.38.62-.39.64-.39.67-.41.67-.41.7-.41.72-.43.75-.42.77-.44.81-.45.83-.48.86-.48.88-.49.9-.51.93-.5.94-.52.96-.51.97-.51.99-.5.99-.5 1.01-.49 1.02-.48 1.02-.46 1.02-.45 1.02-.43 1.03-.41 1.02-.38 1.02-.37 1.01-.34 1.01-.31.99-.28.99-.25.98-.22.96-.2.95-.16.93-.12.91-.1.9-.06.88-.03h.86l.84.04.82.06.8.1.77.13.75.16.73.18.71.21.69.24.66.26.64.28.62.31.6.32.58.34.55.35.54.36.51.38.5.38.48.39.47.4.44.41.43.42.42.43.4.44.38.45.36.45.35.46.34.46.32.46.31.47.29.46.28.47.27.47.26.46.24.47.23.46.22.46.2.45.2.45.19.45.17.45.17.44" filter="url(#a)"/><path stroke-linejoin="round" stroke-width="2.222" d="m-33.01.4.26.35.32.41.36.46.4.51.44.55.47.59.51.62.53.66.56.67.59.7.6.71.62.73.64.74.65.75.67.75.67.75.68.76.69.75.7.74.7.73.7.72.7.71.7.7.7.68.7.66.92.96.9.92.89.89.88.84.86.8.84.76.83.7.81.66.79.6.78.55.76.49.74.44.73.38.71.32.7.27.68.21.67.15.66.09.64.04.64-.02.62-.07.61-.13.6-.18.59-.23.59-.29.57-.33.57-.39.57-.42.55-.48.55-.52.55-.56.53-.6.54-.64.52-.68.53-.71.51-.74.51-.78.51-.81.5-.83.5-.86.48-.89.49-.9.47-.93.47-.95.46-.96.45-.98.44-.99.43-1 .42-1.01.41-1.03.39-1.03.4-1.05.38-1.06.37-1.08.36-1.09.36-1.1.34-1.11.34-1.12.32-1.14.31-1.14.3-1.15.29-1.16.28-1.17.26-1.18.25-1.19.24-1.19.23-1.2.21-1.21.2-1.21.19-1.22.17-1.23.17-1.23.15-1.23.13-1.24" filter="url(#a)"/><circle cx="21.089" cy="-13.024" r="3.402" clip-path="url(#b)" filter="url(#a)"/><circle cx="20.594" cy="-12.704" r="4.6" clip-path="url(#b)" filter="url(#a)"/><circle cx="18.929" cy="-9.659" r="4.87" clip-path="url(#b)" filter="url(#a)"/><circle cx="21.004" cy="-9.024" r="4.578" clip-path="url(#b)" filter="url(#a)"/><circle cx="21.484" cy="-10.949" r="4.17" clip-path="url(#b)" filter="url(#a)"/><circle cx="20.824" cy="-12.139" r="3.236" clip-path="url(#b)" filter="url(#a)"/><circle cx="21.559" cy="-10.179" r="4.952" clip-path="url(#b)" filter="url(#a)"/><circle cx="19.434" cy="-12.959" r="4.794" clip-path="url(#b)" filter="url(#a)"/><circle cx="19.689" cy="-12.139" r="4.174" clip-path="url(#b)" filter="url(#a)"/><circle cx="18.229" cy="-13.579" r="3.222" clip-path="url(#b)" filter="url(#a)"/></g><g fill="none" stroke="#000" transform="translate(-27.5 -22.97)"><path stroke-linejoin="round" stroke-width="2.222" d="m31.16-6.33-.13-.14-.14-.15-.17-.16-.2-.16-.21-.18-.24-.19-.25-.2-.28-.2-.31-.22-.32-.23-.34-.25-.37-.25-.38-.26-.41-.27-.42-.28-.45-.3-.46-.3-.49-.31-.5-.31-.52-.33-.53-.33-.56-.34-.57-.35-.58-.35-.61-.36-.62-.36-.65-.37-.68-.39-.7-.4-.72-.41-.75-.42-.77-.42-.79-.43-.81-.43-.83-.44-.85-.43-.87-.43-.87-.42-.9-.41-.9-.41-.92-.39-.92-.38-.93-.36-.94-.35-.95-.32-.94-.31-.95-.29-.95-.26-.95-.24-.95-.22-.94-.18-.94-.17-.93-.13-.93-.11-.92-.08-.91-.06-.89-.03-.89.01-.87.02-.87.06-.84.08-.84.1-.81.13-.81.16-.78.17-.77.2-.75.21-.73.24-.72.25-.7.27-.68.28-.67.29-.64.3-.63.31-.61.31-.6.33-.58.33-.56.34-.56.35-.53.35-.52.37-.51.36-.49.38-.48.37-.47.38-.44.38-.44.39-.42.38-.41.38-.39.38-.38.39-.37.37-.35.38-.35.38-.32.37-.32.37-.31.36-.29.36-.28.36" filter="url(#a)"/><path stroke-linejoin="round" stroke-width="2.222" d="m29.49.34-.22.29-.25.35-.29.38-.33.43-.35.46-.38.49-.41.53-.44.54-.45.57-.48.58-.49.6-.51.62-.53.62-.54.63-.55.63-.56.63-.58.64-.58.63-.59.62-.6.62-.6.61-.61.6-.62.58-.61.58-.62.56-.77.8-.77.78-.77.75-.76.71-.76.68-.75.64-.75.59-.74.56-.74.51-.73.47-.73.42-.72.37-.71.33-.71.28-.7.23-.7.19-.7.14-.69.09-.68.04h-.69l-.67-.05-.68-.09-.66-.14-.67-.17-.66-.22-.66-.27-.65-.3-.65-.33-.65-.38-.64-.41-.63-.44-.64-.47-.62-.51-.62-.53-.62-.57-.6-.58-.6-.61-.6-.64-.58-.65-.58-.67-.57-.69-.56-.71-.54-.71-.54-.74-.53-.74-.51-.75-.5-.76-.48-.77-.47-.77-.46-.77-.44-.78-.43-.79-.42-.8-.4-.81-.39-.81-.38-.81-.36-.82-.35-.83-.34-.83-.31-.84-.31-.84-.28-.84-.27-.84-.26-.85-.24-.85-.22-.85-.2-.85-.19-.85-.18-.86-.15-.85-.14-.86-.12-.85-.11-.86-.09-.85" filter="url(#a)"/><circle cx="7.874" cy="-11.302" r="4.832" clip-path="url(#c)" filter="url(#a)"/><circle cx="8.779" cy="-9.232" r="3.148" clip-path="url(#c)" filter="url(#a)"/><circle cx="6.324" cy="-9.382" r="3.816" clip-path="url(#c)" filter="url(#a)"/><circle cx="6.959" cy="-11.637" r="3.78" clip-path="url(#c)" filter="url(#a)"/><circle cx="7.819" cy="-11.977" r="4.568" clip-path="url(#c)" filter="url(#a)"/><circle cx="9.639" cy="-11.017" r="4.562" clip-path="url(#c)" filter="url(#a)"/><circle cx="5.864" cy="-11.967" r="3.22" clip-path="url(#c)" filter="url(#a)"/><circle cx="6.644" cy="-12.747" r="4.398" clip-path="url(#c)" filter="url(#a)"/><circle cx="5.174" cy="-11.612" r="3.26" clip-path="url(#c)" filter="url(#a)"/><circle cx="5.594" cy="-13.202" r="3.632" clip-path="url(#c)" filter="url(#a)"/></g><g fill="none" stroke="#504444" stroke-linejoin="round" stroke-width="2"><path d="m39.05-68.54.89.93.24.8-.41.71-1.02.68-1.62.67-2.24.66-2.9.63-3.59.6-4.3.59-4.99.56-5.69.54-6.42.52-7.22.51-8.07.51-8.98.51-9.83.45-10.62.35M.48-83.16l.91.05.82.04.85.07.82.07.71.05.57.03.38.05.13.06-.23.07-.71.06-1.27.06-1.9.03-2.59.04-3.44.02" filter="url(#a)"/><path d="m1.8-83.06.51.04 1.2.23 1.44.33 1.62.39 1.78.46 1.92.54 2.03.61 2.06.65 2.06.69 2.02.68 1.99.69 1.95.67 1.87.65 1.73.6 1.52.53 1.29.46 1.05.38.83.3.61.24m6.12 3.78.17.45.16.36.2.45.01.47-.33.38-.76.25-1.19.1-1.65-.04-2.11-.19-2.61-.36-3.14-.53-3.69-.69-4.26-.84-4.82-1.01-5.34-1.21L2.21-74l-6.37-1.74-7.03-2.03" filter="url(#a)"/><path d="m17.52-80.61.24.26 1.14.51 1.51.66 1.59.71 1.57.74 1.52.74 1.43.72 1.33.69 1.23.64 1.13.6 1.01.54.9.48.76.39.59.29.35.13.01-.04-.38-.25-.75-.39" filter="url(#a)"/><path d="m-1.8-83.23 1.46.06 1.14.12 1.14.17 1.25.21 1.37.26 1.47.28 1.57.3 1.62.33 1.65.35 1.64.36 1.59.38 1.51.36 1.41.35 1.3.32 1.19.28 1.03.24.84.19.6.13.37.06.15.01-.08-.08-.36-.18-.64-.27m38.26 37.4-.23-.16-.25.24-.35.72-.64.82-1.03.65-1.44.45-1.87.26-2.3.13-2.73.02-3.18-.09-3.64-.22-4.11-.38-4.58-.54-5.05-.71-5.52-.88-6-1.06-6.48-1.25-7.01-1.41-7.57-1.55-8.11-1.69-8.63-1.87-9.12-2.1-9.67-2.36m25.86-26.94 1.73-.28 1.41-.02 1.52.06 1.67.11 1.87.16 2.09.21 2.26.28 2.36.33 2.41.38 2.39.43 2.34.47 2.27.49 2.22.51 2.16.51 2.13.52 2.1.5 2.08.5 2.02.48 1.94.46 1.79.42 1.57.37 1.31.31 1.07.3m6.66 3.88.31.52.61.58.94.81 1.08.93 1.08.96 1.02.94.94.9.86.83.76.77.67.67.56.59.44.48.33.38.21.27.06.12-.1-.04-.3-.24-.53-.49-.79-.75-1.09-1.04-1.42-1.35-1.74-1.63-1.92-1.82m13.64 14.69 1.01 1.57.51.85.37.69.26.61.09.46-.14.17-.45-.22-.8-.69-1.17-1.2-1.51-1.66-1.83-2.06L47.19-57l-2.58-2.97-3.09-3.6-3.64-4.29" filter="url(#a)"/><path d="m54.59-50.59.43.94.12 1-.41.79-.94.52-1.53.16-2.15-.24-2.79-.62-3.45-.93-4.1-1.15L35-51.51l-5.46-1.66-6.18-2.02-6.92-2.4-7.67-2.77-8.51-3.07-9.5-3.29-10.55-3.55m46.63-6.34.7.32.7.42.65.43.68.46.66.43.55.37.36.28.1.17-.2.07-.54-.06-.91-.2-1.25-.33-1.59-.48-1.91-.62-2.29-.78-2.72-.95-3.22-1.15-3.7-1.34-4.19-1.54m38.43 20.32.46.63.45.66.47.73.37.65.16.46-.1.25-.39.02-.7-.21-1.01-.42-1.32-.65-1.63-.88-1.94-1.13-2.27-1.38-2.61-1.66-3.03-1.99-3.56-2.37-4.18-2.84-4.77-3.32L16.4-78m-53.51 7.56 1.3-.69 1.05-.52 1.36-.64 1.6-.71 1.75-.71 1.83-.72 1.92-.73 2.01-.74 2.08-.75 2.1-.73 2.07-.7 2.02-.67 1.95-.62 1.9-.6 1.83-.57 1.72-.53 1.6-.5 1.44-.44 1.21-.37.94-.31.63-.22" filter="url(#a)"/><path d="m4.7-83.04 2.14.25 1.34.23.94.25.67.26.48.28.32.3.14.33-.12.36-.42.38-.75.41-1.06.46-1.34.52-1.62.58-1.93.64-2.26.69-2.64.73-3.06.76-3.51.8-3.95.83-4.38.87-4.82.9-5.34.99L-32.5-70" filter="url(#a)"/><path d="m18-80.24 1.9.68 1.16.46.9.4.71.36.49.32.27.27.06.23-.18.2-.45.17-.72.14-1.02.11-1.32.06h-1.66l-2.02-.07-2.41-.17-2.84-.26-3.31-.36-3.78-.47-4.3-.54-4.93-.57-5.72-.54m67.79 32.29.95 2.07.71 1.42.56 1.02.42.74.34.66.3.65.23.59.14.45.01.23-.13-.03-.27-.27-.45-.55-.64-.83-.85-1.18-1.09-1.58-1.33-2.01-1.56-2.44-1.77-2.85-2.03-3.28-2.32-3.75M-28.03-76.1l1.84-.85.8-.32.77-.32.77-.32.67-.23.5-.11.26.04-.02.23-.33.42-.65.61-.95.8-1.22.98-1.47 1.15-1.77 1.32-2.12 1.54-2.56 1.81-3.09 2.16-3.61 2.52-4.08 2.77" filter="url(#a)"/><path d="m-9.01-82.46 1.77-.17 1.51-.14 1.26-.11 1.03-.06h.8l.54.05.29.11.04.17-.2.24-.44.29-.68.36-.95.41-1.21.48-1.53.56-1.88.67-2.29.78-2.72.88-3.15.95-3.56 1.02-4 1.1-4.6 1.2m74.47 10.76v.42l.02.53-.13.64-.42.68-.74.7-1.09.69-1.49.67-1.91.6-2.39.52-2.88.45-3.37.38-3.86.32-4.35.26-4.82.21-5.31.15-5.81.08-6.36.05-6.95.01-7.55-.05-8.15-.17-8.72-.36-9.35-.52" filter="url(#a)"/><path d="m-2.13-83.03.74-.11.97-.02.9.01.82.04.75.05.71.05.62.06.52.06.37.08.2.1-.02.13-.26.15-.53.17-.81.17-1.12.18-1.45.18-1.81.18-2.27.19-2.8.22-3.33.26-3.5.2m68.41 30.65.97 1.78.39 1.14.03.93-.33.65-.72.3h-1.11l-1.49-.22-1.87-.38-2.24-.55-2.66-.76-3.1-1.01-3.55-1.28-4.01-1.55-4.45-1.83-4.92-2.1-5.41-2.38-5.96-2.68-6.56-2.99-7.15-3.28-7.72-3.57-8.32-3.87" filter="url(#a)"/><path d="m39.05-68.54 1.02.93.62.79.25.69-.09.63-.4.61-.72.55-1.07.52-1.44.46-1.81.43-2.18.4-2.57.39-2.96.36-3.38.32-3.85.28-4.33.21-4.84.15-5.35.08-5.85.02-6.38-.03-6.91-.08-7.38-.17-7.74-.4-8.06-.71m1.47-9.91 1.73-.92 1.06-.58.96-.57.98-.58 1.01-.59 1.01-.57.93-.5.76-.4.57-.28.37-.16.14-.02-.1.11-.36.26-.67.43-1.05.63-1.5.87-1.98 1.12-2.25 1.27" filter="url(#a)"/><path d="m37.4-70.14.34.57.69.69 1.08.99 1.27 1.17 1.3 1.22 1.24 1.21 1.16 1.17 1.08 1.1.97 1 .83.87.66.68.43.46.19.2-.08-.11-.29-.39-.44-.59M15.24-81.15l.58.2.84.24.71.23.71.25.79.29.83.32.8.31.65.26.43.21.16.12-.18.02-.52-.08-.88-.19-1.24-.3-1.61-.43-2.04-.57-2.57-.72-3.33-.9m43.4 28.32.53.9.6.98.45.77.32.61.18.46v.25l-.25-.05-.56-.49-.93-1.01-1.33-1.59-1.76-2.16-2.2-2.67-2.72-3.23-3.42-3.97m-74.91-8.03 1.92-1.16 1.24-.68 1.44-.69 1.68-.76 1.76-.77 1.7-.71 1.61-.65 1.54-.61 1.47-.59 1.36-.53 1.19-.48.95-.4.67-.31.31-.17-.25.05m74.27 39.88-.18-.41-.07.8-.52.71-1.1.27-1.69-.19-2.25-.59-2.85-.92-3.43-1.24-4.05-1.57-4.67-1.96-5.34-2.38-6.06-2.8-6.81-3.21-7.58-3.6-8.37-4.01-9.25-4.41-10.3-4.76" filter="url(#a)"/><path d="m52.77-53.57.58.97.72 1.16.66 1.08.65 1.07.62 1.07.58 1.02.48.9.36.68.19.41.03.12-.14-.15-.32-.38-.5-.64-.74-.97-.99-1.37-1.25-1.82-1.51-2.26-1.75-2.66-2.09-3.13m11.28 17.09-.05-.39.32.85.13.8-.19.35-.53-.13-.85-.58-1.2-.96-1.55-1.35-1.93-1.77-2.33-2.23-2.76-2.78-3.22-3.34-3.7-3.93-4.19-4.52-4.77-5.16-5.48-5.9" filter="url(#a)"/><path d="m54.98-50.03.95 1.72.35 1-.02.69-.41.3-.84-.19-1.33-.66-1.8-1.06-2.27-1.38-2.76-1.72-3.27-2.13-3.87-2.64-4.49-3.17-5.13-3.69-5.75-4.18-6.37-4.67L11-77.03" filter="url(#a)"/><path d="m-35.05-71.61.19.04 1.58-.49 2.32-.57 2.78-.52 3.15-.46 3.53-.43 3.89-.42 4.23-.43 4.47-.41 4.62-.37 4.76-.34 4.9-.29 5.07-.28 5.08-.25 4.85-.26m40.74 38.53.17 1.08-.39.41-.92.1-1.5-.16-2.12-.43-2.77-.77-3.42-1.17-4.13-1.61-4.87-2.06-5.64-2.5-6.44-2.91-7.25-3.36-8.11-3.83-8.95-4.35-9.75-4.92-10.59-5.48m-12.46-5.58 2.05-.84 1.45-.33 1.82-.35 2.24-.39 2.55-.37 2.76-.33 2.93-.29 3.01-.23 3.05-.17 3.05-.13 3.05-.12 3.05-.14L6-79.97l2.88-.22 2.7-.22 2.69-.16" filter="url(#a)"/><path d="m-24.26-77.82 1.41-.46 1.79-.2 2.22-.05 2.64.08 2.97.24 3.21.41 3.47.54 3.75.65 4.06.71 4.34.75 4.54.79 4.68.85 4.74.88 4.74.89 4.64.83 4.4.68m9.71 5.36.31.5.01.77-.74.69-1.46.62-2.15.61-2.86.61-3.57.62-4.31.6-5.07.55-5.89.47-6.79.39-7.74.34-8.71.31-9.63.26-10.52.21-11.49.13" filter="url(#a)"/><path d="m-35.85-71.03 1.37-1 1.57-.87 1.54-.77 1.59-.74 1.68-.77 1.8-.8 1.85-.82 1.83-.79 1.7-.73 1.57-.66 1.43-.59 1.29-.53 1.1-.48.86-.4.6-.32.48-.26" filter="url(#a)"/><path d="m-17.51-80.4 1.53-.45 1.47-.43 1.08-.27.85-.15.72-.08.62-.04.51.01.41.05.28.12.13.19-.07.29-.33.37-.63.49-.96.59-1.32.71-1.67.83-2.01.95-2.37 1.09-2.75 1.26-3.17 1.45-3.59 1.63-3.89 1.74-4.08 1.73m54.27-12.29.24.25 1.14.5 1.52.62 1.6.68 1.54.66 1.42.64 1.25.57 1.04.49.8.39.53.25.23.1-.04-.05-.3-.2-.62-.37" filter="url(#a)"/><path d="m-22.2-78.84 2.5-.66 2.08-.06 2.15.38 2.47.68 2.96.87 3.47 1.01 3.94 1.14 4.32 1.3 4.63 1.46 4.88 1.62 5.12 1.77 5.33 1.88 5.53 1.98 5.7 2.06 5.8 2.13 5.78 2.19M.14-83.2l.57.05.77.05.87.06.93.07.94.07.91.06.86.07.8.08.68.1.54.11.35.1.14.1-.09.08-.34.06-.66.04-1.06.02H4.83l-2-.02-2.48-.03-2.89-.02-3.16-.06" filter="url(#a)"/><path d="m51.23-55.75.41.55.41.7.24.53.06.39-.12.24-.34.06-.57-.15-.83-.38-1.13-.65-1.48-.97-1.87-1.38-2.32-1.85-2.79-2.35-3.29-2.85-3.81-3.29-4.36-3.7-5.07-4.26" filter="url(#a)"/><path d="m51.23-55.75.26.56-.04.71-.51.6-.97.51-1.43.44-1.91.37-2.43.3-2.96.21-3.53.12-4.15-.01-4.8-.18-5.49-.4-6.18-.63-6.88-.81-7.57-.93-8.29-1.03-8.97-1.21-9.53-1.57-10.06-2.03m27.22-21.96 1.55 1.36 1.41.94 1.23-.14 1.09-.49.98-.3.9.1.83.5.79.8.79.91.8.86.82.71.86.52.9.41.98.45 1.01.74.94 1.36.71 2.17 6.3-12.87-2.38-.55-1.22.07-1.01.12h-1.07l-1.12-.12-1.14-.16-1.11-.11H5.79l-1 .14-.97.22-.93.25-.9.21-.9.14-.91.1-.97.11-1.05.19-1.16.28-1.27.34-1.4.37-1.56.35-1.78.25" filter="url(#a)"/><path d="m-16.01-80.84-1.4.4-.92.63-.89 1.07-.89 1.24-.9 1.13-.88 1-.8 1.03-.73 1.11-.69 1.12-.74 1-.82.77-.9.6-.9.52-.85.58-.74.74-.64.95-.53 1.18-.39 1.39-.27 1.53-.19 1.56-.26 1.46-.54 1.4-1.01 1.85m114.16-.07-2.6 1.61-1.27 1.59-.61 2.08-.52 2.31-.45 2.19-.15 1.87.21 1.54.39 1.39.28 1.43.02 1.59-.14 1.68-.05 1.64.23 1.5.51 1.35.57 1.32.31 1.41-.21 1.61-.89 1.84-1.57 2.05-2.17 2.23-2.42 2.3-1.96 2.09-.9 1.59-.11 1.38" filter="url(#a)"/><path d="m-26.52-76.57-.12-1.97-1.18-.61-1.25.23-1.13.69-1.16.43-1.4-.3-1.68-.98-1.81-1.23-1.69-.92-1.44-.33-1.23.21-1.19.44-1.37.31-1.65-.07-1.94-.51-2.13-.87-2.23-1.03-2.29-.84-2.37-.4-2.45.01-2.01.12 33.72 7.62 1.74-1.17 1.38-.66 1.16-.54 1.04-.63.96-.83.84-1.03.71-1.13.63-1.07.67-.89.78-.63.93-.42 1.04-.29 1.06-.27 1.03-.34 1-.48.96-.61.78-.58.16-.2-17.01 11.7-1.94 3.14-1.21.41-.93.15-.83.44-.75.78-.66 1.04-.56 1.2-.48 1.31-.44 1.39-.44 1.48-.44 1.54-.37 1.59-.23 1.66-.06 1.8v1.96l-.18 1.96-.51 1.63-.31 1.45" filter="url(#a)"/><path d="m-30.19-74.6-.6-1.19-.04-2.34.37-2.66.6-2.2.76-1.42.87-.93.88-.99.83-1.45.75-2.04.67-2.54.68-2.78.75-2.66.88-1.93 1.06-.86 1.57-1.21M-34.9-72.02l1.76-.74 1.07-.29.97-.19.97-.26 1-.36 1.06-.36 1.1-.26 1.09-.15 1.08-.1 1.05-.13 1.04-.21 1.05-.26 1.06-.25 1.06-.18 1.03-.07.97.06.87.19.79.28.81.3.98.18 1.09-.05.13-.22m-29.64 9.62.02-2.31.76-.66.55-1.08.33-1.86.28-2.24.36-2.09.53-1.61.73-1.11.87-.82.9-.81.82-1.07.66-1.44.52-1.81.46-2.14.52-2.37.65-2.42.73-2.23.39-2.07-1.42-2.12-10.61 34.05-.73-.58-.76-.57-1.22-.28-1.72-.36-1.87-.33-1.64-.06-1.28.38-.96.76-.78 1-.71 1.12-.72 1.15-.78 1.1-.92 1.03-1.12.92-1.42.79-1.75.58-2.08.29h-2.3l-2.2-.1-1.45.17.32.4 35.34-27.83.4.4-.4.51-.76.8-.84 1.01-.77 1.19-.64 1.39-.55 1.52-.58 1.51-.71 1.36-.84 1.16-.9 1.01-.87.98-.78 1.04-.69 1.13-.63 1.15-.58 1.03-.55.87-.5.8-.44 1.02-.37 1.53-.37 1.8-.29.84m-3.29 3.99-3.18-1.57-.64.96-.83.93-1.11.89-.99 1.09-.79 1.26-.67 1.22-.67 1.05-.7.87-.74.76-.83.7-1.03.65-1.31.57-1.53.5-1.61.45-1.5.46-1.31.53-1.21.66-1.26.78-1.37.94-1.28 1.46-.6 3.09" filter="url(#a)"/><path d="m-54.77-27.07-.53-1.22-.08-1.62.02-1.46.18-1.21.25-1.06.12-1.07-.07-1.21-.21-1.37-.24-1.47-.15-1.44v-1.29l.13-1.11.22-.97.28-.94.34-.95.47-1.01.63-1.08.66-1.31.45-1.65.13-1.78-.58-1.29-3.41 5.76-4.38-5.13 1.04-1.18 2.09-.3 1.54-.62.81-1.11.41-1.39.34-1.44.36-1.43.31-1.55.08-1.85-.24-2.31-.52-2.76-.61-2.95-.4-2.7-.02-2 .3-1.2.26-.92.13-1.53 1.12-2.26m120.16 60.8.51.72 1.25 1.24.89 1.28.41 1.3.26 1.29.36 1.23.44 1.16.42 1.1.34 1.07.31 1.07.36 1.1.47 1.18.57 1.28.58 1.38.53 1.46.48 1.49.5 1.49.6 1.45.66 1.37.57 1.42.81 1.9" filter="url(#a)"/><path d="m-62.66-34.76.75-.91.65-.83.52-.94.53-.85.73-.69.98-.6 1.13-.57 1.1-.61.91-.67.68-.74.54-.79.53-.79.63-.77.8-.73.99-.68 1.16-.6 1.27-.5 1.28-.41 1.19-.4 1.07-.42 1.07-.38 1.27-.16 1.46.11.77-.33M-65.89-4.98l-.13-.14-.13-.96-.1-1.26-.04-1.34v-1.29l.01-1.21v-2.39l-.02-1.25-.03-1.27-.01-1.27.04-1.25.11-1.24.2-1.24.26-1.24.32-1.25.34-1.25.36-1.22.36-1.15.36-1.05.3-.99.09-1.06-.08-1.17m129.4 5.73.32 1.33.22 1.15.22 1.18.26 1.28.27 1.33.26 1.35.24 1.32.22 1.28.19 1.23.17 1.18.16 1.12.13 1.08.12 1.06.12 1.08.1 1.15.1 1.24.09 1.34.07 1.39.05 1.42.01 1.4-.03 1.34-.04 1.12.01.99m-9.35-44 1.16-1.03 1.42.7 1.24 1.07 1.62.71 2.31.17 2.59-.05 2.17.19 1.27.73.37 1.28-.13 1.6-.12 1.63.31 1.45.95 1.18 1.49.98 1.79.88 1.77.93 1.56 1.06 1.41 1.22 1.52 1.29 1.87 1.28 2.17 1.23 2.16 1.23 2.05 1.38 1.84 1.77M58.01-44.24l2.72-3.51.55-2.34-.8-1.24-.92-1.08-.58-1.25-.27-1.44-.03-1.64.22-1.86.45-2.13.61-2.38.69-2.63.74-2.93.83-3.27.84-3.43.62-3.09.25-2.23.24-2.04" filter="url(#a)"/><path d="m57.94-44.68.53.85.69.87.54.67.5.74.56.92.65 1.03.68 1.04.66 1.01.63.96.6.97.58 1.02.55 1.09.51 1.15.49 1.14.52 1.04.62.89.74.89.86 1.43-10.91-17.71.51.86.68.88.74.54 1.01.41 1.36.41 1.61.46 1.65.5 1.47.56 1.14.72.79.92.56 1.11.53 1.22.7 1.21.94 1.07 1.13.84 1.06.59.84.37M56.62-47.53l1.94-2.6-.25-1.48-.65-1.09-.5-1.12-.43-1.15-.5-1.03-.6-.91-.61-.96-.5-1.16-.4-1.43-.33-1.65-.32-1.74-.31-1.63-.33-1.2-.55-.72" filter="url(#a)"/><path d="m52.77-53.57 1.41.17 1.69.21 1.46.35 1.4.5 1.29.72 1.03 1.03.71 1.3.41 1.45.24 1.46.21 1.35.33 1.21.53 1.09.77.99.98.89 1.13.81 1.22.73 1.26.69 1.28.73 1.3.83 1.31.99 1.21 1.17.96 1.58-39.81-43.02 1.04.91.75.85.62.87.56.88.52.89.56.92.64.97.73.98.79.97.81.94.8.9.77.89.73.89.7.88.69.84.7.77.73.71.72.69.62.87.71 1.73-30.54-28.26.16.36.93.64 1.19.8 1.2.75 1.17.65 1.08.61.99.64.92.68.86.74.81.81.76.89.76.96.78.99.83.97.91.9.95.83.96.75.93.7.85.68.78.67.67.6.43.47-.26.42-7.75-5.15 1.88.15 1.27.23 1.02.55.99.55.98.42.91.38.83.42.79.44.84.44.93.43 1.02.46 1.09.51 1.08.54 1.07.54 1.07.53 1.08.52 1.07.51.86.36.51-.27" filter="url(#a)"/><path d="m29.65-74.89-.24-2.02.04-1.92-.4-1.35-.71-1-.81-.89-.78-1.07-.73-1.43-.68-1.91-.66-2.43-.65-2.89-.67-3.09-.65-2.89-.48-2.32-.04-1.72.56-2.2 6.58 28.58.07-.68 1.51-1.07 1.87-1.06 1.7-.61 1.45-.13 1.28.15 1.16.25 1.08.26 1.07.18 1.12.02 1.19-.07 1.27-.01 1.3.18 1.39.27 1.59.06 1.91-.53 2.22-1.07 2.35-.87 2.86.35-40.13-.62.05-.44.4.05.97-.17 1.35-.54 1.45-.61 1.37-.35 1.23.01 1.15.16 1.16.07 1.21-.16 1.28-.38 1.32-.46 1.32-.41 1.34-.27 1.36-.08 1.37.1 1.37.24 1.35.31 1.36.19 1.45-.15 1.69-.66 2.14-.94-30.04 3.78.63-.14 1.01-.79.99-1.25 1.01-1.09 1.13-.69 1.33-.57 1.51-.73 1.59-.87 1.52-.73 1.34-.28 1.13.27.99.63.94.71.99.56 1.09.32 1.22.07 1.44-.19 1.73-.55 1.97-.91 2.13-1.05 2.19-.62M8.53-82.69l1.22.36 1 .31.96.36 1.02.43 1.08.47 1.05.46.96.42.89.36.86.32.9.3.96.33 1.02.38 1.04.44 1.02.48.99.5.95.49.9.47.88.47.85.48.79.52.79.62.87.78.98.91.67.72M4.7-83.04l2.13.59 1.35 1.24 1.05 1.24.97.78.98.41 1.02.3 1.02.37.98.5.88.6.76.74.67.89.64 1.04.68 1.13.75 1.15.78 1.14.74 1.24.6 1.43.47 1.54.42 1.4.47 1.25.18 1.6" filter="url(#a)"/></g><path fill="none" stroke="#000" stroke-linejoin="round" stroke-width="3" d="M-10.72 5.67Q10.31 12.27-.205-4.836" filter="url(#a)"/><path fill="#D77F8C" stroke="#000" stroke-linejoin="round" stroke-width="3" d="m-52.74 26.01.48 1.23.53 1.18.56 1.16.6 1.12.64 1.08.67 1.05.71 1.02.74.98.78.95.81.92.85.88.87.85.9.82.94.79.96.76.99.72 1.01.69 1.05.67 1.06.63 1.09.6 1.11.58 1.14.54 1.15.52 1.18.49 1.19.45 1.22.44 1.23.4 1.24.38 1.27.35 1.27.32 1.29.29 1.31.27 1.31.25 1.33.22 1.33.19 1.35.17 1.35.15 1.37.12 1.36.1 1.38.07 1.37.05 1.39.03 1.38.01 1.39-.02 1.38-.04 1.39-.06 1.39-.08 1.38-.1 1.38-.12 1.38-.15 1.38-.16 1.37-.18 1.36-.2 1.35-.22 1.35-.24 1.34-.26 1.33-.27 1.31-.3 1.31-.3 1.29-.33 1.28-.35 1.26-.36 1.25-.37 1.24-.39 1.21-.41 1.2-.42 1.18-.44 1.16-.45 1.13-.47 1.12-.48 1.09-.49 1.07-.5 1.05-.52 1.02-.53.99-.55.97-.55.93-.57.91-.58.88-.59.85-.59.82-.61.78-.62.75-.63.71-.64.68-.65.65-.66.6-.66.57-.67.53-.68.49-.69.45-.69.4-.71.37-.7.32-.72.27-.72.23-.72.19-.73.13-.74.09-.74-1 .36-.99.36-1 .36-1 .35-.99.35-1 .35-1 .35-.99.34-1 .34-1 .34-.99.33-1 .33-.99.32-1 .32-1 .32-.99.31-1 .31-1 .3-.99.3-1 .29-1 .29-.99.29-1 .27-1 .28-.99.26-1 .26-1 .26-.99.25-1 .24-1 .24-.99.23-1 .22-1 .21-.99.21-1 .2-1 .2-.99.18-1 .18-1 .17-.99.17-1 .15-1 .15-.99.13-1 .13-1 .12-.99.12-1 .1-1 .09-.99.08-1 .08-1 .06-.99.06-1 .04-1 .04-.99.02-1 .02h-1l-.99-.01-1-.02-1-.03-.99-.04-1-.05-1-.06-.99-.08-1-.09-1-.1-.99-.11-1-.12-1-.14-.99-.15-1-.16-.99-.17-1-.19-1-.2-.99-.22-1-.23-1-.24-.99-.25-1-.27-1-.29-.99-.29-1-.32-1-.32-.99-.35-1-.35-1-.38-.99-.38-1-.41-1-.41-.99-.44-1-.45-1-.46-.99-.49-1-.49-1-.52-.99-.53-1-.55-1-.56-.99-.59" filter="url(#a)"/></svg>